<?xml version="1.0" encoding="UTF-8"?>
<svg id="Layer_2" data-name="Layer 2" xmlns="http://www.w3.org/2000/svg" viewBox="0 0 401.36 341.67">
  <defs>
    <style>
      .cls-1 {
        fill: #6d442f;
        fill-rule: evenodd;
      }
    </style>
  </defs>
  <g id="_Layer_" data-name="&amp;lt;Layer&amp;gt;">
    <g>
      <g>
        <path class="cls-1" d="M101.5,305.91l-.12.17.19.03-.06-.2h0ZM198.03,242.75l-.12.18.18.03-.06-.21h0ZM152.91,225.77c-.06-.07-.14-.22-.17-.21-.29.08-.3.23-.05.38.03.02.14-.11.22-.17h0ZM60.59,179.18l.11-.17-.17-.02.06.2h0ZM69.62,192.92l-.1-.32-.11.31h.21ZM123.71,251.43c-.03.09-.11.2-.09.29.02.09.17.23.21.22.28-.09.34-.28.15-.51-.04-.04-.18,0-.27,0h0ZM172.14,215.25c0-.35-.13-.45-.34-.23-.04.04.06.21.09.32.08-.03.17-.06.24-.08h0ZM257.47,201.63c-.07.04-.21.08-.22.13-.02.23,0,.45.02.68,0,.06.13.1.2.15.06-.1.17-.21.16-.3-.03-.22-.1-.43-.16-.65h0ZM123.91,247.58c.03-.08-.06-.26-.15-.3-.07-.03-.28.03-.32.1-.08.19-.12.41-.14.63,0,.03.25.14.27.11.14-.16.26-.35.33-.54h0ZM268.35,212.85c-.03.11-.09.22-.07.32.05.4.19.42.33.06.04-.1,0-.23-.03-.34-.02-.04-.15-.03-.23-.05h0ZM138.6,236.06c-.11.03-.25.03-.31.1-.13.17-.31.38-.3.57.03.26.32.36.53.18.15-.13.22-.37.27-.59,0-.06-.12-.17-.19-.26h0ZM162.63,228.63c.06-.5-.22-.84-.53-.66-.09.06-.2.16-.22.26-.06.38.3.83.55.69.09-.05.13-.19.19-.28h0ZM111.93,296.26c-.07.09-.23.2-.21.27.05.22.14.44.27.63.04.06.23.07.34.04.31-.09.39-.32.18-.56-.15-.16-.38-.25-.57-.38h0ZM265.96,209.79c-.14-.14-.31-.46-.56-.55-.4-.14-.62.19-.74.54-.12.36.09.62.55.71.37.08.63-.12.75-.71h0ZM241.76,188.97c.48,0,.8-.3.59-.58-.12-.17-.45-.39-.52-.34-.27.17-.46.44-.7.67.22.09.42.17.63.26h0ZM124.96,254.18c-.19.2-.46.41-.61.68-.05.1.27.53.3.52.3-.12.6-.27.83-.49.07-.07-.06-.39-.15-.58-.03-.06-.19-.07-.37-.13h0ZM111.2,257.39c.1-.03.24-.03.3-.1.16-.15.31-.33.42-.52.04-.07-.04-.2-.05-.3-.18.05-.42.04-.56.15-.15.12-.24.34-.32.53-.02.04.13.15.2.23h0ZM196.62,221.48c-.12-.1-.24-.26-.28-.24-.3.14-.6.28-.85.48-.23.19-.19.42.09.53.09.04.26.03.33-.03.24-.22.46-.48.7-.74h0ZM189.7,222.51c.55-.28.44-.76.45-1.16,0-.21-.16-.41-.24-.62-.15.25-.41.5-.43.77-.04.32.13.66.22,1.02h0ZM141.56,233.87c.09.07.19.2.29.2.63-.04,1.04-.43,1.34-.96.05-.09.04-.23,0-.33-.12-.29-.32-.33-.57-.11-.34.3-.69.59-1.02.9-.06.06-.03.21-.04.31h0ZM223.8,200.59c-.04-.22,0-.37-.08-.45-.14-.16-.32-.38-.48-.37-.18,0-.42.2-.53.37-.29.48-.07.93.23,1.3.08.1.5.12.54.05.16-.31.23-.66.32-.9h0ZM265.5,221.3c-.77-.45-1.34-.01-1.91.4-.27.2-.29.37-.05.5.1.05.22.1.32.09.71-.06,1.27-.36,1.65-1h0ZM278.79,203.34c.08,1.33-.13,1.99.49,3.24-.12-1.23.08-1.89-.49-3.24h0ZM215.14,205.41c.09-.37-.33-.77-.69-.62-.31.13-.63.34-.86.6-.1.12-.09.49.02.65.11.17.4.33.62.33.46,0,.8-.4.92-.95h0ZM85.38,215.54c-.06-.65-.53-1.06-.86-1.56-.05-.07-.29-.12-.32-.08-.12.17-.31.4-.27.56.13.61.53,1.08,1.04,1.43.06.04.22.01.27-.04.07-.07.1-.2.15-.31h0ZM251.45,278.08c-.29.73-.77,1.22-.9,1.89-.04.2.1.43.16.64.15-.13.36-.23.44-.4.29-.61.83-1.17.31-2.13h0ZM273.93,187.33c-.9.9-1.29,1.75-1.41,2.73,0,.08.13.21.23.25.1.04.28.03.35-.04.78-.7.93-1.61.83-2.95h0ZM142.44,237.47c.15.17.22.34.31.35.97.06,1.58-.45,1.84-1.35.04-.14-.19-.38-.33-.54-.05-.06-.29-.08-.34-.03-.51.52-.99,1.05-1.48,1.57h0ZM259.41,186.02c-.04-.11-.06-.23-.09-.35-.16-.57-.69-.73-1.12-.35-.56.49-.6.93-.17,1.61.16.25.37.33.64.21.54-.23.78-.61.74-1.12h0ZM228.35,232.51c.31-.02.58.04.77-.06.59-.31.69-.66.35-1.1-.35-.46-.72-.89-1.12-1.4v2.56h0ZM261.95,210.78c-.05-.1-.07-.21-.15-.28-.08-.07-.21-.14-.31-.12-.98.14-1.78.65-2.57,1.21-.07.05-.13.25-.09.31.11.16.34.41.41.37.88-.37,1.75-.77,2.6-1.19.07-.03.07-.2.1-.31h0ZM44.93,153.61c.07-.14.18-.24.18-.35,0-1.18-.59-1.99-1.61-2.52-.06-.03-.23.03-.29.09-.06.07-.12.22-.09.3.39.98.83,1.92,1.81,2.47h0ZM295.67,97.98c-.33-.05-.73.41-.62.72.24.71.61,1.32,1.28,1.7.09.06.3.09.35.03.15-.16.34-.37.35-.56.05-.81-.35-1.41-1.03-1.82-.09-.06-.23-.04-.35-.06h0ZM128.97,243.81c-.21-.09-.46-.29-.62-.23-.81.29-1.44.81-1.92,1.52-.06.07,0,.26.06.34.14.16.34.43.48.4,1.01-.15,1.73-.69,2.06-1.69.04-.1-.04-.23-.06-.34h0ZM271.77,203.18c-.05-.39-.1-.76-.17-1.12-.05-.32-.24-.44-.54-.32-.1.04-.23.14-.26.24-.33.84-.3,1.67.05,2.5.04.08.22.18.27.15.2-.1.48-.21.54-.37.11-.35.08-.73.11-1.07h0ZM73.86,193.67c-.03.61-.19,1.05-.04,1.27.62.89,1.34,1.72,2.05,2.55.2.24.44.15.57-.16.04-.11.07-.25.03-.34-.58-1.22-1.56-2.12-2.6-3.32h0ZM127.14,249.7c.15,0,.28.04.38,0,.9-.36,1.69-.89,2.26-1.69.08-.12-.06-.43-.14-.63-.03-.07-.2-.16-.28-.14-1.09.25-1.98.78-2.43,1.86-.04.1-.05.24,0,.34.04.11.15.18.23.27h0ZM70.23,188.67c-.11.33-.32.66-.29.96.09.89.61,1.57,1.36,2.05.14.08.48,0,.61-.14.15-.14.28-.48.21-.64-.39-.89-.87-1.74-1.89-2.23h0ZM287.82,137.35c-.34.42-.72.86-1.09,1.32-.14.19-.25.4-.37.6-.21.35,0,.85.47,1.19.28.2.75.11.91-.22.34-.62.71-1.24.9-1.91.13-.46-.17-.9-.83-1h0ZM260.81,195.08c-.14-.14-.36-.55-.61-.57-1.08-.08-1.82.86-1.56,1.87.09.35.46.62.79.56,1.03-.19,1.49-.75,1.38-1.87h0ZM250.75,235.84c-.09.03-.24.05-.25.11-.27,1.11.02,2.15.47,3.16.05.1.17.2.29.22.22.03.46.05.68-.01.29-.08.38-.33.27-.6-.38-.9-.76-1.79-1.17-2.69-.04-.09-.18-.13-.29-.19h0ZM242.53,262.37c-.18.06-.34.07-.38.15-.54,1.08-.34,2.11.27,3.09.16.25.42.31.63.1.25-.24.6-.54.6-.82,0-.99-.52-1.79-1.12-2.52h0ZM130.45,251.07c-.1-.06-.21-.19-.3-.18-1.12.16-2.01.77-2.73,1.62-.11.13-.07.45,0,.65.08.28.35.39.59.22.81-.54,1.59-1.09,2.35-1.68.12-.09.06-.41.09-.63h0ZM270.19,196.38c.11-.06.26-.09.31-.17.48-.83.99-1.64,1.4-2.5.12-.27-.04-.68-.11-1.02,0-.11-.11-.24-.2-.28-.09-.03-.25.01-.34.08-1.04.92-1.62,2.04-1.48,3.47,0,.11.08.23.16.31.06.06.17.08.25.12h0ZM261.61,177.67c-.17.14-.47.25-.49.41-.15.88.3,1.65.63,2.42.11.27.5.49.81.61.32.12.59-.59.5-1.13-.11-.74-.39-1.41-.86-1.98-.14-.16-.39-.22-.59-.33h0ZM141.46,243.8c0-.12.06-.26.02-.36-.5-1.22-1-2.44-1.55-3.64-.05-.1-.36-.1-.56-.11-.04,0-.14.2-.12.29.27,1.04.54,2.09.86,3.12.1.33.3.66.54.92.1.11.4.07.6.04.07-.01.14-.17.21-.27h0ZM265.12,194.3c0-.12-.02-.24-.04-.36-.08-.55-.43-.9-.91-.93-.47-.03-1.01.26-1.09.72-.08.45-.08.95.02,1.39.08.32.38.57.81.58.5,0,1.03-.29,1.13-.69.05-.23.06-.47.08-.71h0ZM264.11,184.81c-.12-.88-.81-1.49-1.46-1.29-.73.22-1.08.86-.97,1.75.08.64.65.98,1.37.83.72-.16,1.14-.67,1.06-1.29h0ZM79.32,208.02c-.06.09-.17.21-.16.28.43,1.28,1.38,2.19,2.27,3.15.06.07.24.07.34.03.11-.03.27-.17.25-.21-.41-1.38-1.04-2.61-2.39-3.3-.07-.04-.22.03-.32.06h0ZM337.88,50.57c-.6-.31-.8-.43-1.02-.54-1.08-.49-1.9-.11-2.6.74-.25.3-.2.69.15.89.57.34,1.16.46,1.74.12.53-.31,1-.69,1.74-1.21h0ZM272.89,231.02c-.57.22-1.2.35-1.43.99-.3.8-.44,1.63-.12,2.47.1.26.3.36.57.2,1.41-.82,1.62-1.62.98-3.66h0ZM265.53,199.88c-.06-.39-.08-.77-.21-1.11-.12-.33-.31-.66-.77-.67-.57-.02-1.09.24-1.18.65-.21.9-.04,1.7.58,2.4.3.34,1.07.2,1.24-.24.13-.34.23-.69.34-1.03h0ZM219.94,184.84c-1.34-.22-2.41.21-3.33,1.04-.17.15-.13.65-.06.96.07.32.57.39.92.14.86-.61,1.91-1,2.47-2.15h0ZM257.47,271.12c-.68.33-1.24.57-1.76.88-.18.11-.42.46-.36.59.27.71.2,1.55.75,2.34.37-.55.66-.94.9-1.36.24-.42.5-.86.62-1.33.08-.29-.08-.64-.16-1.12h0ZM106.77,245.88c-.43-.8-.59-1.68-1.45-2.08-.16-.08-.51-.02-.61.1-.23.26-.45.6-.48.93-.08,1.04.4,1.84,1.24,2.43.23.17.47.12.63-.14.24-.41.45-.83.67-1.24h0ZM260.37,202.25c.58.03,1.27-.49,1.3-1.07.03-.48-.05-.98-.14-1.46-.07-.35-.25-.68-.69-.74-.56-.08-1.01.18-1.29.57-.47.63-.37,1.79.17,2.41.14.16.42.2.64.29h0ZM273.23,225.28c-.02-.12-.13-.83-.27-1.54,0-.04-.2-.07-.32-.06-.1,0-.27.04-.29.1-.54,1.26-.69,2.57-.63,3.92,0,.1.14.28.22.28.22,0,.49,0,.65-.11.7-.48.68-1.24.64-2.59h0ZM264.62,189.61c-.07-.44-.08-.81-.22-1.13-.07-.19-.3-.37-.51-.45-.52-.2-1.34.17-1.52.65-.28.72-.19,1.41.14,2.08.24.48,1.26.57,1.55.09.24-.4.38-.86.56-1.24h0ZM229,202.28c-.1.06-.22.1-.32.17-.1.08-.21.17-.24.28-.31,1.23-.4,2.44.35,3.56.17.26.42.31.63.11.24-.25.65-.6.6-.84-.17-1.08-.47-2.14-.75-3.2,0-.05-.19-.05-.28-.07h0ZM265.98,205.26c-.09-.41-.22-1.01-.42-1.57-.06-.17-.42-.38-.58-.34-.33.09-.78.26-.88.52-.34.85-.14,1.69.29,2.48.16.29.69.5.96.31.19-.13.39-.29.49-.49.11-.21.09-.48.14-.92h0ZM157.11,227.25c.3.14.69.46.89.37,1.09-.53,2.19-1.11,3-2.06.13-.15.15-.5.06-.69-.08-.16-.45-.35-.56-.29-1.06.6-2.1,1.24-3.12,1.92-.15.1-.16.43-.27.75h0ZM257.91,191.2c.04.24.02.51.11.72.1.19.28.42.47.47.79.24,1.89-.53,1.84-1.29-.02-.48-.17-.95-.32-1.4-.16-.46-.78-.59-1.24-.36-.78.4-.89,1.09-.86,1.86h0ZM299.39,120.75c.1-.27.14-.39.19-.5.11-.22.24-.43.35-.65.06-.11.1-.23.17-.33.18-.26.14-.57-.16-.6-.32-.03-.88.06-.94.24-.57,1.62-1.06,3.27-1.56,4.92-.08.29.32.73.69.71.2-.02.53-.17.56-.32.28-1.2.49-2.42.7-3.47h0ZM271.75,164.51c.02-.45-.68-.87-1.09-.66-1.42.73-2,1.81-1.74,3.31.02.11.11.27.2.29.2.05.53.13.63.02.66-.72,1.29-1.47,1.89-2.25.13-.17.06-.47.1-.71h0ZM233.18,290.69c.26-.09.69-.12.9-.35.65-.73,1.02-1.63,1.24-2.58.02-.08-.1-.21-.19-.28-.07-.06-.21-.12-.29-.09-1.05.37-1.9,1.03-2.7,1.79-.31.3-.17,1,.28,1.23.22.11.45.17.76.3h0ZM159.64,221.27c-.05-.11-.06-.28-.15-.31-.19-.08-.5-.21-.61-.13-1.15.9-2.29,1.83-3.39,2.79-.06.06.11.42.22.62.04.09.18.13.3.16.12.02.27.05.36,0,1.22-.6,2.34-1.34,3.18-2.43.13-.16.07-.46.1-.7h0ZM168.63,238.25c-.37.21-.8.42-1.2.68-1,.67-1.18,1.22-.84,2.52.05.17.38.4.51.36.46-.13.92-.3,1.31-.57,1-.7,1.18-1.25.83-2.52-.05-.16-.34-.26-.62-.46h0ZM229.3,301.23c-1.87,1.52-3.57,2.86-5.04,4.49-.05.05-.03.27,0,.27.21.07.51.22.64.13,1.21-.81,2.41-1.64,3.57-2.53.37-.28.68-.72.87-1.15.12-.26-.02-.65-.05-1.22h0ZM366.96,4.78c-.99,1.05-2.01,2.1-2.98,3.18-.24.26-.42.6-.5.94-.05.16.13.48.29.59.16.11.55.16.64.07,1.23-1.35,2.15-2.9,2.54-4.78h0ZM299.82,107.1c-.08-.33-.29-1.27-.52-2.21-.03-.12-.11-.22-.15-.33-.09.06-.28.12-.29.19-.1.91-.8,1.48-1.2,2.22-.33.6.17,1.47.92,1.67.63.17,1.34-.33,1.24-1.54h0ZM270.94,154.7c-.22.17-.4.25-.4.33-.03,1.23-.27,2.4-.77,3.54-.29.66-.41,1.41-.54,2.13-.03.15.22.38.38.53.06.06.25.03.35-.02.45-.21.9-.47.97-1,.23-1.81.16-3.61,0-5.5h0ZM181.5,213.39c-.19-.14-.39-.36-.49-.33-.58.2-1.13.44-1.68.71-1.01.48-2.01.94-2.98,1.48-.41.23-.76.6-1.08.96-.11.12-.1.49,0,.62.13.14.48.25.63.17,1.95-1.04,3.8-2.24,5.58-3.62h0ZM173.6,235.08c-.73.19-1.48.52-2.11,1.11-.4.37-.44.85-.35,1.34.04.23.13.49.29.63.29.26.66.22.98,0,.81-.53,1.65-1.05,2-2.01.07-.2.04-.51-.07-.68-.12-.16-.39-.22-.73-.4h0ZM174.84,213.73c-.11-.05-.27-.09-.3-.17-.08-.2-.2-.55-.13-.62,1.6-1.37,3.44-2.3,5.4-3.01.08-.03.22.06.32.12.23.13.32.43.06.59-1.65,1.06-3.33,2.07-5,3.09-.09.06-.24,0-.36,0h0ZM264.73,250.25c.18-.13.48-.22.55-.39.67-1.82,1.08-3.71,1.28-5.65.04-.38-.29-.77-.61-.68-.21.06-.46.17-.56.34-.17.3-.31.66-.36,1.01-.2,1.56-.36,3.13-.51,4.7-.02.22.14.44.21.66h0ZM265.77,238.33c-.03.67.15.97.54,1.09.35.1.8-.11.91-.41.46-1.26.81-2.55.69-3.9-.02-.19-.25-.5-.41-.52-.34-.03-.75,0-.99.18-.26.2-.45.6-.49.94-.13.96-.21,1.93-.24,2.63h0ZM278.23,158.29c.22-.04.51,0,.66-.13,1.11-.98,2.04-2.12,2.8-3.41.06-.1.13-.26.08-.34-.17-.3-.34-.63-.59-.84-.12-.1-.55-.06-.66.08-.79.94-1.58,1.89-2.25,2.92-.23.36-.17.93-.22,1.41,0,.1.12.21.19.32h0ZM90.23,222.23c.03-.11.1-.25.06-.32-.68-1.15-1.52-2.17-2.58-3-.14-.12-.46-.08-.67-.04-.33.07-.53.58-.41.87.48,1.13,1.15,2.13,2.1,2.92.09.07.21.1.31.17.29.19,1.09-.21,1.18-.6h0ZM273.2,237.21c-1.24.04-1.95.78-2.54,1.53-.33.43-.32,1.15-.37,1.75-.02.14.28.43.46.46,1.18.23,2.38-.25,2.44-1.54.04-.73,0-1.46,0-2.2h0ZM253.59,258.45c.46-.33.9-.49.95-.72.19-1.03.09-5.48-.06-6.2,0-.06-.17-.13-.26-.14-.11-.01-.27,0-.35.07-.42.31-.63.74-.6,1.26.09,1.84.21,3.67.34,5.72h0ZM276.7,173.96c.35-.15.63-.18.76-.35.57-.64,1.1-1.33,1.11-2.24,0-.2-.16-.47-.32-.59-.55-.37-1.19-.36-1.73-.03-.75.44-1.26,1.13-1.55,1.97-.1.31.08.78.43.89.46.14.93.25,1.3.34h0ZM179.09,206.34c-.23-.17-.49-.43-.56-.38-1.86,1.19-3.72,2.38-5.35,3.89-.22.21-.18.49.06.61.21.11.5.2.67.13,1.84-.77,3.42-1.92,4.86-3.27.23-.21.23-.66.33-.98h0ZM96.21,231.11c-.11.04-.26.06-.35.14-.31.3-.55,1.08-.36,1.34.77,1.09,1.57,2.17,2.37,3.25.19.26.71.18.95-.11.4-.49.5-.98.22-1.33-.83-1.06-1.68-2.1-2.53-3.13-.07-.08-.2-.09-.3-.15h0ZM287.79,147.72c.62-.26.63-.93.94-1.41.26-.41.49-.85.74-1.27.33-.52.66-1.03.97-1.55.06-.1.05-.23.09-.35.13-.37-.21-1.08-.59-1.2-.44-.14-.75.12-.92.42-.71,1.28-1.45,2.55-2.02,3.89-.24.57.1,1.19.79,1.46h0ZM161.56,242.55c-.02.12-.09.26-.05.36.27.68.53,1.35.85,2,.08.14.5.28.61.2.5-.32,1.01-.68,1.41-1.11.55-.62.47-1.62-.19-2.33-.2-.22-.66-.38-.95-.31-.46.09-.9.36-1.3.62-.19.12-.27.38-.39.58h0ZM268.5,228.79c.08-1.12-.45-1.58-1.09-1.36-.46.15-.95.28-1.35.55-.27.18-.51.56-.57.88-.13.86,0,1.72.58,2.41.12.15.42.26.62.24.64-.06,1.22-.31,1.42-.96.22-.69.32-1.42.38-1.75h0ZM103.26,241.28c0-.24.05-.52-.06-.71-.58-1.19-1.18-2.37-2.21-3.24-.08-.07-.46.05-.56.18-.36.5-.64,1.08-.37,1.69.49,1.1,1.09,2.15,2.03,2.95.24.2.79.1.93-.2.09-.22.16-.45.24-.67h0ZM264.22,33.7c-.92,0-1.3-.04-1.66.02-.19.03-.49.2-.52.35-.03.18.1.49.26.61,1.26.99,2.66,1.68,4.28,1.9.44.06.9-.43.85-.93-.09-.83-.55-1.46-1.25-1.61-.84-.17-1.68-.29-1.97-.34h0ZM255.53,234.21c.07.58.17,1.3.27,2.02.02.11.1.25.18.31.19.13.46.34.61.29,1.87-.64,2.26-1.44,1.95-2.92-.05-.24-.1-.47-.17-.71-.12-.44-.63-.95-.97-.97-.66-.05-1.58.56-1.71,1.13-.05.23-.09.47-.16.86h0ZM225.4,263.2c-.31-1.64-.6-3.22-.91-4.8-.06-.3-.61-.47-.92-.29-1.13.63-1.4,1.34-.94,2.42.5,1.13,1,2.26,1.52,3.38.11.21.3.39.49.55.06.05.23,0,.33-.03.1-.04.23-.13.25-.21.08-.35.13-.71.17-1.02h0ZM271.14,243.43c-.93,0-1.26.16-1.44.81-.19.7-.34,1.41-.46,2.12-.06.37.5.95.88,1.03,1.13.22,2.6-.52,2.58-1.86,0-.48,0-.97-.1-1.44-.07-.36-.35-.61-.77-.63-.24-.01-.49-.02-.69-.04h0ZM279.19,214.77h.16c.06,1.96.12,3.91.23,5.86,0,.34.22.68.36,1,.04.08.22.12.33.12.08,0,.24-.07.25-.13.07-.47.22-.97.12-1.41-.5-2.42-.51-4.86-.49-7.31,0-1.34-.12-2.68-.2-4.03,0-.11-.11-.22-.17-.32-.14.12-.39.23-.39.36-.09,1.95-.14,3.9-.2,5.85h0ZM298,129.69c.35-.04.59-.06.83-.09.32-.03.84-.62.94-1.06.08-.39-.34-.98-.8-1.06-1.21-.22-2.41-.44-3.62-.62-.39-.05-.77.15-.83.55-.03.32.04.76.24,1,.3.36.72.7,1.16.85.7.24,1.44.31,2.06.43h0ZM108.07,248.85c-.7.64-.94,1.4-.55,2.3.43,1.01.85,2.02,1.32,3.01.08.2.34.37.56.44.51.17.92-.14,1.28-.46.42-.36.57-.93.32-1.29-.86-1.32-1.75-2.62-2.64-3.93-.05-.06-.2-.05-.3-.08h0ZM198.8,226.93c0-.81-.39-2.38-.82-3.16-.05-.08-.19-.12-.3-.14-.12-.03-.27-.07-.35-.02-2.12,1.25-2.25,2.16-1.72,3.91.15.48.66.83,1.15.69.58-.17,1.14-.41,1.68-.68.18-.09.25-.4.37-.6h0ZM183.1,272.56c-.35.35-.75.55-.79.82-.36,1.96-.18,3.86.78,5.65.2.38.89.44,1.26.1.39-.35.61-.81.49-1.3-.41-1.76-.89-3.51-1.74-5.28h0ZM274.39,168.57c0,.12.04.24,0,.35-.29,1.21-.81,2.32-1.58,3.3-.26.33-.94.42-1.34.13-.3-.21-.57-.46-.81-.74-.32-.41-.44-.96-.16-1.38.54-.81,1.15-1.58,1.79-2.32.46-.54,1.49-.33,1.9.34.06.1.11.22.17.33h0ZM263.89,232.23c-.15-.82-.28-1.53-.43-2.24-.05-.29-.61-.59-.86-.47-.64.34-1.28.69-1.9,1.07-.46.28-.65.79-.6,1.26.06.59.27,1.17.47,1.73.16.43.83.66,1.25.46.45-.2.93-.38,1.28-.7.35-.3.54-.75.79-1.13h0ZM90.31,226.07c.54,1.23,1.29,2.45,2.34,3.48.51.5,1.11.38,1.7.2.33-.1.58-.58.43-.84-.79-1.36-1.57-2.72-2.39-4.06-.11-.19-.36-.29-.61-.48-.63.35-1.13.85-1.48,1.71h0ZM234.38,247.99c-.08-.42-.25-1.12-.34-1.83-.11-.96-.78-1.45-1.5-1.92-.44-.29-.98-.28-1.35,0-.42.3-.68.86-.58,1.25.37,1.28.75,2.55,1.55,3.64.13.18.38.32.59.38.48.14,1.58-.72,1.62-1.52h0ZM195.24,200.36c.24-.05.52-.04.71-.16,2.06-1.33,4.12-2.67,6.16-4.03.19-.13.37-.36.43-.57.05-.19-.07-.44-.16-.63-.05-.09-.21-.17-.31-.16-.24,0-.52,0-.69.11-2.08,1.31-4.14,2.63-6.2,3.98-.17.12-.32.39-.35.6-.03.21.08.46.16.67.04.09.17.14.27.21h0ZM235.27,251.68c-.63-.1-1.13-.02-1.41.44-.2.3-.44.69-.38.99.35,1.8.77,3.59,1.18,5.37.08.35.57.55.89.41.35-.15.65-.34.7-.77,0-.12.06-.24.05-.36-.15-2.07-.45-4.13-1.02-6.08h0ZM218.68,192.52c.63-.33,1.13-.48,1.47-.8.87-.83,1.71-1.71,2.48-2.64.17-.2.11-.74-.06-1-.17-.27-.64-.58-.87-.52-1.27.36-2.6.65-3.62,1.59-.08.08-.13.2-.18.31.23.92.47,1.84.79,3.06h0ZM283.52,156.67c.94.12,1.68.52,2.23,1.21.13.16.14.48.07.69-.06.2-.24.42-.43.52-.19.11-.48.14-.69.1-.8-.17-1.44.06-1.98.65-.58.63-1.12,1.28-1.73,1.87-.12.12-.47.1-.67.02-.32-.12-.45-.67-.3-.94.92-1.6,1.96-3.09,3.5-4.13h0ZM249.04,240.09c0-.84-.18-1.91-.74-2.89-.19-.34-.84-.59-1.27-.47-1.39.34-1.88,1.09-1.49,2.37.21.7.44,1.4.72,2.07.08.2.33.34.55.46.75.43,2.19-.4,2.24-1.54h0ZM231.27,201.74c.05.34.15,1.06.28,1.78.05.23.16.47.31.64.15.15.42.3.61.26.99-.2,1.88-.72,2.21-1.68.41-1.19.17-2.39-.56-3.45-.12-.17-.4-.33-.6-.32-1.19.04-2.29,1.23-2.25,2.77h0ZM262.52,206.68c-.14-.75-.23-1.35-.36-1.95-.09-.44-.79-.63-1.2-.36-.44.28-.63.68-.82,1.15-.43,1.08-.48,1.06-1.59.64-.52-.2-1.07.03-1.05.48.03.73.09,1.46.22,2.17.03.19.33.5.48.48,1.36-.14,2.63-.6,3.7-1.44.34-.26.45-.82.62-1.16h0ZM261,240.76s.1.74.28,1.43c.04.14.44.32.61.27.97-.32,1.73-.93,1.88-2.01.17-1.2.26-2.42.34-3.63.02-.22-.11-.59-.23-.63-.32-.1-.72-.15-1-.02-1.31.62-2.15,1.57-1.95,3.15.04.24.04.48.08,1.43h0ZM288.89,149.19c.57-.78,1.15-1.55,1.69-2.34.56-.81,1.07-1.64,1.64-2.44.12-.19.38-.28.58-.42.24-.17.79-.06.98.23.13.2.31.48.25.65-.63,1.86-1.48,3.62-2.63,5.22-.51.71-1.09.77-1.83.08-.25-.24-.41-.58-.68-.97h0ZM277.51,148.42c-.14,1.53-.28,2.87-.37,4.21-.02.22.15.44.23.67.3-.13.71-.18.9-.41.53-.67.94-1.45,1.47-2.12.93-1.17,1-2.44.62-3.82-.1-.38-.58-.65-.83-.42-.71.66-1.42,1.33-2.02,1.89h0ZM256.34,253.21h-.16c0,.86-.02,1.72,0,2.58,0,.23.12.5.26.66.14.14.44.27.61.23.64-.17,1.12-.66,1.2-1.27.29-2.07.49-4.16.69-6.24.02-.17-.22-.45-.4-.53-.19-.08-.5-.06-.69.04-.82.39-1.44.99-1.5,1.94-.06.86,0,1.73,0,2.59h0ZM190.9,197.63c-.05-.07-.18-.15-.17-.22,0-.11.07-.26.16-.33.88-.65,1.75-1.36,2.69-1.92,2.01-1.2,4.05-2.33,6.08-3.49.32-.18.88.02.88.32,0,.23,0,.54-.13.68-1.74,1.77-3.85,3.04-5.98,4.28-.2.12-.45.19-.69.23-.94.16-1.89.3-2.83.45h0ZM202.26,219.59c-.36.24-.78.48-1.17.76-.99.71-1.4,1.68-1.26,2.88.08.6.18,1.21.28,1.82.07.42.85.7,1.21.43.78-.59,1.57-1.17,2.3-1.82.37-.33.55-.82.33-1.33-.31-.79-.63-1.59-1-2.35-.08-.17-.4-.22-.69-.38h0ZM268.8,250.2c-.69.94-.9,1.91-1.13,2.87-.16.69.24,1.29.88,1.31.63.02,1.24.04,1.85.01.54-.02.96-.35,1.09-.85.27-1.06.47-2.15.68-3.24.07-.45-.52-.89-1.02-.76-.83.21-1.65.46-2.35.66h0ZM204.28,198.83c-.09.21-.14.51-.31.6-.97.54-1.99.99-2.94,1.54-1.21.69-2.29,1.49-2.32,3.09,0,.19-.23.46-.43.56-.31.15-.72.33-1,.25-.63-.18-1.16-1.32-.98-1.83.04-.11.06-.24.12-.34.15-.2.29-.4.47-.56,1.97-1.73,4.29-2.87,6.67-3.89.15-.06.44.13.63.26.06.04.06.21.08.33h0ZM256.61,245.83c.58.29,1.02.2,1.44-.13.48-.38.99-.78,1.06-1.43.18-1.58.23-3.17-.07-4.74-.04-.19-.28-.4-.47-.48-.87-.32-2.21.5-2.21,1.36,0,1.83.02,3.66.26,5.42h0ZM153.58,302.87c-.06-.23-.09-.49-.21-.69-.92-1.58-1.86-3.16-2.81-4.72-.19-.3-.48-.54-.75-.78-.06-.06-.24-.05-.33,0-.18.12-.48.28-.5.45-.05.47-.07,1,.07,1.44.67,1.95,1.4,3.88,2.15,5.8.05.13.48.25.62.17.53-.29,1.03-.64,1.49-1.03.16-.13.18-.43.28-.65h0ZM254.76,245.03c-.09-1.05-.19-2.14-.31-3.24-.03-.28-.57-.61-.85-.54-.97.24-1.7.96-1.69,1.7.04,1.98.57,3.87,1.17,5.74.03.1.47.18.64.09.44-.23.82-.58.87-1.11.07-.86.11-1.72.17-2.64h0ZM234.96,242.27c.29,1.29.55,2.46.82,3.62.06.24.17.45.26.68.23.6.79.76,1.48.49,1.76-.68,1.9-1.45,1.6-2.79-.2-.94-.58-1.85-.89-2.77-.08-.25-.66-.48-.95-.35-.76.35-1.51.72-2.32,1.11h0ZM240.16,240.69c.3,1.16.6,2.35.95,3.52.05.16.39.35.59.35,1.03-.05,1.88-.56,2.54-1.3.22-.24.34-.73.24-1.03-.33-1.05-.72-2.09-1.18-3.09-.1-.21-.68-.37-.96-.28-.58.17-1.13.46-1.61.82-.26.19-.35.6-.57,1.01h0ZM290.69,133.09c.22,1.6.29,2.83.58,4.01.26,1.06.67,2.1,1.17,3.07.41.81,1.23,1.16,2.15,1.21.72.05,1.4-.43,1.66-1.19.19-.59.02-1.24-.48-1.65-.38-.31-.75-.65-1.17-.9-1.3-.78-2.24-1.88-2.97-3.2-.21-.37-.46-.7-.92-1.37h0ZM269.3,261.53c.98-1.65,1.33-2.62,1.4-4.14,0-.18-.26-.52-.41-.53-3.02-.15-3.83.08-4.36,2.69-.11.48-.3.94-.44,1.41-.09.31.23.76.54.81,1.12.19,2.2-.07,3.26-.24h0ZM247.46,245.92c.08,1.32.45,3.24,1.06,5.11.05.16.38.33.58.34,1.1.03,2.01-.78,1.91-1.75-.11-1.1-.32-2.18-.51-3.27-.15-.84-.3-1.68-.51-2.5-.05-.15-.39-.34-.58-.32-1.19.06-1.99.81-1.95,2.4h0ZM263.71,247.41c-.04-.36-.11-1.21-.2-2.05-.03-.28-.58-.44-.89-.29-.8.37-1.51.9-1.63,1.82-.29,2.17-.48,4.35-.71,6.53-.04.33.45.69.74.58,1.35-.51,2.18-1.35,2.54-2.83.28-1.13.02-2.18.15-3.74h0ZM164.1,293.59c-.04-.24-.02-.51-.12-.72-.65-1.32-1.32-2.63-2.01-3.93-.11-.21-.29-.4-.5-.53-.18-.12-.49-.25-.66-.17-1.38.62-2.08,1.29-1.61,2.81.03.12.06.24.11.35.59,1.34,1.19,2.68,1.82,4.01.15.33.46.59.89.48,1.03-.27,1.6-1.04,2.02-1.95.06-.1.03-.24.05-.36h0ZM218.49,258.11c-.16-2.04-.68-3.79-1.4-5.48-.07-.17-.74-.27-.97-.14-1.56.86-2.29,2.09-1.69,3.96.34,1.04.43,2.15.65,3.24.08.42.79.71,1.21.49.54-.29,1.11-.55,1.55-.96.33-.3.48-.8.65-1.09h0ZM283.25,146.21c1.21,2.09,2.77,3.79,4.32,5.48.34.36.69.69,1.03,1.05.39.43.35,1.12-.09,1.66-.67.83-1.35,1-2.24.57-1.69-.82-2.57-2.29-2.9-4.01-.3-1.53-.33-3.13-.12-4.76h0ZM265.53,212.29c.51.43.69.87.59,1.39-.09.51-.41.89-.88,1.1-2.27.96-4.54,1.92-6.81,2.86-.33.14-.71.31-1.05.27-.31-.04-.68-.3-.83-.57-.17-.29-.21-.74-.14-1.08.07-.32.34-.79.58-.83,1.5-.25,2.76-1.02,4.11-1.63.89-.4,1.82-.75,2.75-1.07.57-.2,1.16-.31,1.67-.44h0ZM221.78,249.51c-.54.22-.88.36-1.21.5-1.38.58-1.49,1.25-1.33,2.32.2,1.44.66,2.86,1.02,4.28.11.44.78.64,1.24.36.62-.39,1.24-.79,1.83-1.23.41-.31.61-.78.51-1.3-.37-1.68-.71-3.37-2.06-4.93h0ZM209.61,274.4c-.41-2.06-.79-3.98-1.21-5.89-.03-.14-.4-.31-.58-.28-.36.06-.71.23-1.04.4-1.52.81-1.83,1.39-1.51,2.93.25,1.2.51,2.4.81,3.6.08.35.27.68.42,1.01.13.29.68.54.92.39.53-.31,1.09-.58,1.53-.99.33-.31.46-.81.66-1.17h0ZM165.36,246.52c-.23.03-.36.02-.47.06-.23.08-.46.18-.65.31-1.45.95-1.75,1.57-1.37,3.02.38,1.42.8,2.82,1.26,4.21.1.29.41.5.63.77.43-.23.76-.37,1.05-.58.4-.28.78-.6,1.14-.92.77-.68.87-1.17.46-2.29-.41-1.15-.81-2.3-1.28-3.44-.19-.43-.52-.8-.76-1.16h0ZM240.77,196.58c.06.58.11.82.13,1.06,0,.12.02.26-.04.36-.1.21-.24.57-.36.57-.34,0-.82-.04-.98-.26-.28-.37-.34-.89-.54-1.34-.32-.73-.76-.85-1.45-.52-.86.42-1.33,1.07-1.28,2.02.05.73.14,1.46.25,2.18.1.65.79,1.13,1.32.89,1.78-.81,3.54-1.64,5.3-2.5.2-.09.35-.34.48-.54.49-.68.05-2.52-.75-2.92-.42-.21-.91-.3-1.38-.43-.29-.08-.5.04-.55.33-.08.47-.14.95-.16,1.1h0ZM259.26,263.15c.03.35.08,1.32.16,2.29,0,.09.12.19.22.22.11.04.29.07.35,0,.36-.32.8-.61,1.03-1.01,1.4-2.47,2.33-5.11,2.68-7.93.03-.22-.08-.46-.14-.69-.07-.24-.53-.23-.98-.07-2.06.73-3.26,2.05-3.15,4.37.04.73-.07,1.46-.16,2.82h0ZM148,307.33c-.21-.11-.51-.16-.62-.34-1.14-1.78-2.25-3.56-2.9-5.58-.32-1.03.42-2.2,1.63-2.46.21-.05.51.02.69.15.28.22.54.52.71.83.89,1.62,1.75,3.26,2.62,4.89.17.34.05,1.09-.29,1.38-.46.4-.98.75-1.48,1.1-.08.06-.23.02-.35.02h0ZM206.25,258c-1.9.37-2.59.98-2.64,2.4-.06,1.96-.06,3.92.68,5.8.25.64.83.92,1.43.59,1.75-.96,2.23-1.45,1.74-3.48-.2-.83-.2-1.71-.35-2.55-.18-.95-.26-1.95-.86-2.77h0ZM186.07,273.99c-.07.5-.2.84-.17,1.16.33,2.64,1.1,2.52,2.76,1.58.64-.37,1.29-.71,1.9-1.11.65-.43,1-1.02,1.02-1.84.02-1.75-.46-3.39-.98-5.02-.12-.4-.81-.62-1.24-.42-.32.16-.67.31-.98.49-1.18.71-1.35,1.23-.81,2.39.4.89.8,1.78,1.15,2.7.12.33.11.72.07,1.08-.02.22-.17.51-.35.61-.17.09-.53.08-.69-.04-.56-.45-1.05-.97-1.69-1.57h0ZM202.63,267.86c-.08-1.43-.89-5.02-1.37-6.17-.16-.39-.8-.58-1.26-.37-1.54.72-1.83,1.18-1.73,2.79.06,1.1.11,2.19.2,3.29.25,2.83,1.03,3.18,3.41,1.53.1-.07.21-.14.27-.23.19-.3.35-.61.47-.83h0ZM228.07,246.39c-.51-.08-.88,0-1.74.41-1.96.93-2.23,1.45-1.72,3.41.25.95.52,1.88.8,2.81.13.43.85.78,1.19.56,1.12-.72,2.26-1.43,3.33-2.22.4-.29.53-.88.33-1.34-.48-1.11-1.03-2.2-1.58-3.28-.09-.18-.4-.25-.61-.36h0ZM166.31,284.41c.23.08.51.11.65.26,1.1,1.21,1.49,2.79,2.1,4.25.11.27-.05.72-.2,1.01-.17.31-.46.57-.74.81-2.26,1.99-2.61,1.91-3.82-.83-.11-.23-.19-.45-.27-.68-.29-.9-1.14-1.72-.62-2.74.46-.9,1.72-1.71,2.9-2.08h0ZM213.65,264.51c-.88.53-1.72,1.01-2.53,1.52-.69.42-1,1.08-.92,1.85.18,1.79.16,3.65,1.32,5.32,1.38-.29,2.46-1.08,3.31-2.1.73-.85.06-1.87-.07-2.81-.12-.96-.25-1.93-.46-2.88-.07-.31-.39-.57-.64-.91h0ZM220.81,266.71c-.31-1.48-.61-3.04-.97-4.6-.15-.68-.81-.95-1.42-.6-.75.43-1.5.86-2.2,1.35-.41.3-.58.79-.49,1.32.26,1.46.52,2.91.81,4.36.05.23.17.47.34.64.15.15.42.36.58.31,1.09-.3,2.03-.89,2.81-1.69.24-.24.33-.63.54-1.1h0ZM248.59,290.12c-.67.42-.99.59-1.27.82-2.83,2.21-2.44,2.55.22,4.44.73.51,1.54.77,2.38.93.51.09,1.02-.03,1.34-.44.74-.96,1.44-1.96,2.15-2.96.19-.27-.07-.73-.45-.84-1.52-.41-3.22-.39-4.37-1.95h0ZM258.12,276.13c-.31.39-.66.73-.89,1.15-.55.96-1.04,1.95-1.54,2.94-.17.35.22,1.1.63,1.19,4.89,1.09,5.17.9,6.79-3.08.13-.33.18-.7.26-1.03-.13-.1-.23-.23-.33-.24-.61-.02-1.25-.14-1.81.03-1.25.38-2.12-.26-3.11-.95h0ZM209.93,263.88c.82.05,1.31-.58,1.96-.91,1.29-.68,1.58-1.79,1.31-3.11-.26-1.32-.56-2.63-.85-3.94-.15-.63-.85-.95-1.44-.71-1.02.43-2,.93-2.52,1.99.58,4.67.62,4.82,1.54,6.68h0ZM177.33,283.05c1.35-.11,2.24-1.01,3.25-1.66.72-.46.86-1.18.68-1.95-.33-1.31-.71-2.6-1.08-3.89-.15-.49-.78-.74-1.16-.45-4.54,3.34-3.88,2.39-2.21,7.01.11.33.34.63.52.95h0ZM141.07,312.27c-.02-.23.04-.52-.07-.71-.99-1.69-2.02-3.36-3.05-5.02-.35-.56-.98-.6-1.58-.13-.3.22-.59.46-.85.7-.38.35-.62.82-.54,1.31.18,1.09.43,2.17.7,3.23.12.46.35.94.63,1.32,1.31,1.7,1.87,1.96,3.6.67.3-.22.58-.45.82-.73.16-.17.23-.43.33-.65h0ZM193.55,273.39c.28.02.57.12.74.02.86-.48,1.7-.96,2.48-1.54.25-.19.48-.66.44-.95-.31-2.05-.69-4.08-1.06-6.12-.09-.46-.7-.63-1.18-.35-.42.25-.84.5-1.24.77-1.02.67-1.42,1.62-1.28,2.84.21,1.81.42,3.62,1.1,5.33h0ZM175.93,284.07c-.68-1.44-1.21-2.56-1.76-3.65-.31-.64-.96-.82-1.53-.45-.92.61-1.84,1.23-2.75,1.87-1.25.9-1.43,1.5-.83,2.81.46,1,.99,1.97,1.46,2.88.26.04.4.12.49.08,1.8-.82,3.24-2.12,4.92-3.54h0ZM146.16,308.87c0-.98-.66-1.45-.98-2.09-.32-.66-.66-1.31-1.01-1.95-.34-.65-.72-1.28-1.08-1.91-.06-.11-.16-.19-.22-.29-.36-.53-1.01-.65-1.62-.26-.51.33-1,.69-1.48,1.07-.53.42-.74,1.1-.48,1.63.63,1.32,1.27,2.64,1.98,3.93,1.49,2.72,1.58,2.68,3.97.79.37-.29.67-.67.92-.92h0ZM254.15,282.71c1.2.83,2.2,1.22,3.35,1.25.6.02,1.21.14,1.79.29.14.04.28.38.29.59,0,.23-.1.49-.24.68-.69,1.02-1.38,2.04-2.12,3.04-1.44,1.95-4.72,2.09-6.54.28-.14-.14-.18-.46-.16-.68.03-.23.16-.47.32-.66.63-.76,1.34-1.46,1.9-2.26.49-.69.84-1.49,1.4-2.53h0ZM240.76,266.4c0-.32.04-.57,0-.81-.28-1.95-.57-3.89-.86-5.83,0-.11-.15-.29-.21-.28-.24.03-.5.07-.69.21-.57.42-.4,1.11-.53,1.69-.16.7-.5.84-1,.4-.09-.08-.14-.21-.22-.29-.71-.63-1.74-.41-2.01.46-.14.46-.25.96-.23,1.43.06,1.73.18,3.45.29,5.17.02.24.14.47.21.7.1.29.31.41.58.32,1.53-.51,2.92-1.29,4.19-2.26.26-.2.34-.63.47-.9h0ZM155.71,301.61c-.26-.14-.57-.2-.67-.38-1.03-1.8-2.03-3.62-3.02-5.45-.28-.53,0-1.13.64-1.54.32-.2.8-.15.99.13.34.5.68,1.01,1.01,1.52.46.72.91,1.45,1.38,2.17.19.3.83.45.94.23.09-.2.21-.48.15-.65-.43-1.15-.93-2.27-1.36-3.41-.16-.45-.28-.95-.26-1.43.02-.49.3-.94.81-1.12.34-.12.73-.18,1.03.13.25.26.49.54.68.85.69,1.15,1.38,2.32,2.04,3.48.47.81.44,1.42-.13,2-1.28,1.32-2.67,2.52-4.23,3.46h0ZM231.37,253.8c.29.4.61.66.7.99.37,1.42.7,2.86.98,4.31.14.78-.14,1.49-.84,1.91-1.05.64-2.12,1.25-3.21,1.81-1.2.62-1.95.27-2.16-.95-.12-.73-.17-1.47-.29-2.19-.11-.61-.28-1.2-.37-1.81-.13-.82.25-1.47.93-1.85,1.38-.77,2.81-1.47,4.25-2.2h0ZM100.88,310.52c-1.02-1.49-1.85-2.7-2.92-3.73-.46-.43-1.25-.57-1.69-.28-1.55,1-3,2.12-4.28,3.46-.36.38-.46.87-.27,1.37.44,1.16,1.06,2.19,1.98,3.07,1.03.98,1.71,1.03,2.86.02,1.37-1.22,2.72-2.46,4.33-3.91h0ZM246.18,263.78c1.54-.52,2.64-1.54,3.91-2.29.42-.25.82-.56,1.15-.92.24-.26.47-.63.49-.95.12-1.96.26-3.93-.15-5.88-.06-.27-.59-.61-.86-.53-1.21.34-1.8.94-1.89,1.96-.07.73-.1,1.46-.18,2.19-.03.3-.26.46-.54.37-.21-.07-.46-.19-.55-.36-.17-.32-.18-.72-.35-1.05-.1-.19-.34-.38-.54-.45-.89-.27-2.29.57-2.28,1.38.02,1.85.03,3.71.9,5.41.21.41.58.75.89,1.12h0ZM138.75,245.63c-.09-.33-.14-.57-.22-.8-.5-1.38-1.06-2.74-1.52-4.13-1.04-3.14-1.38-2.7-3.66-1.06-.3.21-.58.45-.86.69-.82.69-1.21,1.63-.92,2.62.39,1.29.56,2.61.86,3.92.17.7.55,1.35.89,1.99.07.15.4.19.62.25.11.02.25,0,.35-.06,1.35-.85,2.7-1.68,4-2.58.26-.17.35-.6.48-.84h0ZM230.7,184.22c-.11.2-.13.34-.22.41-1.52,1.23-3.23,2.16-4.84,3.29-.35-.3-.73-.47-.88-.76-.73-1.27-1.41-2.57-2.06-3.88-1.42-2.82-1.31-2.9,1.73-4.16.68-.28,1.38-.5,2.07-.73.34-.11,1.15.19,1.32.47.12.21.25.42.35.64.38.9.7,1.83,1.15,2.69.38.73.93,1.38,1.38,2.02h0ZM242.6,255.11c-.45-.76-.67-1.19-.94-1.59-.23-.34-.71-.3-.91-.02-.55.74-.58,1.61-.74,2.45-.1.52-.46.84-.94,1.06-.34.14-.88.02-.97-.25-.54-1.76-1.01-3.54-1.13-5.4-.06-.79.32-1.43,1-1.86.31-.2.64-.38.96-.57.76-.43.88-.39,1.81.53.09.09.17.26.25.26.23-.02.58-.06.63-.19.11-.33.12-.7.1-1.06-.02-.68.26-1.2.77-1.59.39-.3.81-.57,1.22-.83,1.39-.86,2.01-.6,2.23.98.21,1.46.39,2.93.57,4.4.1.8-.11,1.47-.85,1.89-.96.56-1.91,1.09-3.09,1.77h0ZM219.45,201.96c-.62.27-1.3.54-1.96.87-.43.21-.63.75-.47,1.27.14.46.31.93.56,1.35.19.34.57.43.94.25.23-.1.39-.31.61-.42.75-.37,1.49,0,1.66.82.07.36.14.74.1,1.1-.09.73-.25,1.04-1.13,1.22-.35.07-.71.14-1.14.22.04.4,0,.78.12,1.09.33.79.81,1.53,1.11,2.34.4,1.12,1.13,1.84,2.18,2.37.8.41.89.81.48,1.87-.28.73-.36,1.41-.21,2.16.34,1.65,1.06,2.99,2.66,3.79.56.28.8.98.45,1.61-.67,1.25-.29,2.4.23,3.54.09.21.31.37.49.54.23.23,1.21.37,1.38.15.19-.28.4-.7.33-.98-.46-1.79-.83-3.64-1.55-5.33-1.52-3.54-2.51-7.22-3.57-10.9-.75-2.61-1.6-5.19-2.25-7.83-.12-.51-.47-.85-1.03-1.1h0ZM218.38,214.08c-.04.12-.05.25-.1.35-.06.11-.14.22-.24.28-3.88,2.1-7.61,4.46-11.35,6.81-.4.25-1.12.02-1.26-.39-.23-.7-.48-1.4-.61-2.11-.14-.77.12-1.47.76-1.95,1.86-1.41,3.66-2.89,5.61-4.15,1.33-.86,2.7-1.64,3.85-2.75.31-.3,1.06-.21,1.33.1.84.92,1.5,1.95,1.95,3.1.08.21.04.48.06.72h0ZM148.22,239.27c2.33-.9,5.24-2.87,8.81-5.96-.53-.98-.69-1.07-1.24-.67-.1.07-.17.19-.27.26-.82.62-1.25.57-1.8-.17-.81-1.06-1.27-2.41-2.62-3.04-.23-.11-.34-.64-.39-.98-.09-.59.24-1.23-.17-1.79-.12,0-.25-.01-.36,0-.12.02-.26.04-.35.11-1.61,1.32-3.22,2.65-4.93,4.07,1.91,2.46,2.5,5.37,3.34,8.18h0ZM243.19,294.92c.75.56,1.46,1.22,2.29,1.69.85.48,1.79.78,2.7,1.16.33.14.43.7.16.95-1.25,1.18-2.47,2.39-3.78,3.5-.32.28-.91.4-1.36.35-1.09-.11-2.18-.38-3.26-.56-.61-.09-1.22-.19-1.82-.15-.3.02-.64.31-.84.57-.24.33.12,1.06.55,1.2.58.18,1.18.31,1.77.45.47.11.96.18,1.41.34.1.04.21.51.11.6-.5.53-1.03,1.05-1.6,1.5-.61.49-1.27.6-2.06.27-.79-.33-1.66-.4-2.47-.68-.45-.15-.9-.42-1.23-.75-.19-.21-.26-.69-.17-.98.1-.32.4-.6.67-.84.75-.64,1.52-1.26,2.3-1.86,1.67-1.29,3.2-2.67,4.12-4.64.49-1.04,1.37-1.71,2.53-2.13h0ZM160.93,218.95c2.31-1.81,4.52-3.57,7.18-4.92.18.33.38.6.49.89.17.45.23.97.47,1.38.73,1.28,1.5,2.55,2.29,3.79.44.69,1.06,1.05,1.88.65.31-.15.49-.14.57.17.03.09-.06.26-.16.32-2.29,1.67-4.58,3.34-6.89,4.98-.4.28-.86.46-1.3.68-.25.13-.84-.16-.89-.45-.16-.97-.31-1.89-1.17-2.61-.43-.36-.54-1.07-.82-1.62-.48-.99-.98-1.97-1.65-3.27h0ZM207.64,199.09c2.76-1.35,5.4-2.69,7.78-4.49.24-.19.35-.58.45-.77-1.1-1.66-2.12-3.2-3.16-4.73-.49-.71-1.02-1.4-1.57-2.07-.75-.91-1.3-1.02-2.24-.49-1.28.73-2.58,1.47-3.85,2.21-.43.25-.86.5-1.27.77-.6.39-.82,1-.55,1.58.26.56.48,1.15.83,1.66,1.1,1.63,2.02,3.35,2.6,5.25.12.4.62.7.98,1.08h0ZM246.36,213.59c-.22-1.7-.41-3.41-.63-5.12-.06-.45-.72-.8-1.14-.64-1.98.72-3.75,1.8-5.44,3.06-1.58,1.18-3.21,2.29-4.79,3.44-1,.72-2.02,1.42-2.99,2.17-.62.49-.92,1.15-.71,1.95.18.72.38,1.43.59,2.13.19.67.84.97,1.43.67.55-.27,1.09-.56,1.63-.86,3.65-2.05,7.24-4.2,11.15-5.72.22-.08.44-.26.58-.44.15-.18.22-.43.32-.64h0ZM162.93,271.36c-1.19-1.43-2.13-2.99-2.96-4.6.23-.27.41-.44.56-.64.75-1.02.74-1.74-.04-2.63-.39-.45-1.24-.27-1.47.34-.13.34-.2.7-.33,1.14-.31-.26-.65-.43-.83-.7-.49-.71-.94-1.44-1.37-2.19-1.68-2.88-2.82-6.02-4.31-8.99-.32-.65-.54-1.38-.69-2.1-.28-1.19-.46-2.41-.66-3.52.55-1.21,1.6-1.67,2.48-2.3.29-.21.81-.11.98.18.29.53.72,1.05.86,1.62.69,3.28,2.37,6.19,3.49,9.31.42,1.16.88,2.3,1.36,3.44.51,1.25,1.01,2.5,1.81,3.63.57.8,1,1.7,1.43,2.58.59,1.23,1.29,2.38,2.16,3.42.3.35.3.93.05.99-.2.05-.48.11-.64.01-1.16-.7-1.28.53-1.87.99h0ZM180.89,204.26c2-2.15,3.33-3.07,7.48-5.19.14.18.39.35.41.54.11.9.56,1.53,1.22,2.18,1.87,1.83,2.76,3.16,3.85,5.28-.11.21-.17.5-.35.62-2.62,1.81-5.26,3.6-7.9,5.39-.4.28-1.02.1-1.26-.34-.33-.66-.66-1.31-.93-1.99-.86-2.16-1.69-4.33-2.53-6.49h0ZM247.63,222.54c-.13.12-.29.33-.5.44-5.08,2.51-10.17,5.02-15.25,7.51-.1.05-.24,0-.48,0-.9-2.12-1.49-4.38-2.06-6.64-.03-.08.11-.28.17-.29.22-.02.57-.03.61.08.36.78.66,1.59.98,2.38.16.37.67.66.89.47.17-.14.36-.3.45-.5.09-.22.09-.48.08-.72-.03-.97.49-1.66,1.21-2.18,1-.72,2.06-1.37,3.1-2.01,2.22-1.34,4.54-2.48,6.98-3.4.58-.22,1.17-.39,1.76-.56.82-.24,1.51.17,1.68.95.29,1.45.53,2.9.38,4.46h0ZM387.31,55.45c-.24-.03-.49-.08-.74-.09-3.83-.14-7.6-.83-11.44-.87-1.85-.02-3.69-.31-5.53-.48-.75-.07-1.48-.23-2.21-.23-2.48,0-4.91-.48-7.35-.85-1.83-.28-3.64-.66-5.5-.66-.87,0-1.7-.23-2.51-.59-2.59-1.17-5.34-1.89-8.1-2.52-1.22-.28-2.43-.39-3.65-.56-.73-.1-1.42-.38-2.1-.63-.15-.06-.3-.38-.28-.53.06-.21.26-.46.45-.54.34-.14.72-.26,1.07-.2,1.34.2,2.68.48,4.01.74.6.12,1.19.35,1.8.4,5.3.47,10.44,1.9,15.67,2.81,4.87.85,9.77,1.42,14.68,1.87,2.32.21,4.65.57,6.96.92,2.8.44,5.59.97,8.39,1.37,2.18.32,4.31,1.02,6.46,1.58.17.04.25.37.38.57-.22.08-.44.27-.62.24-3.16-.55-6.32-1.12-9.48-1.68-.12-.02-.24-.04-.36-.06h0ZM169.66,242.89c.25.03.38.02.49.07,1.73.71,1.86.66,1.96-1.05.04-.53.15-.98.48-1.34,1.63-1.73,5.68-4.49,8.46-5.83.58,0,.9.39,1.17.8.6.93,1.21,1.85,1.73,2.83.65,1.23.39,1.99-.85,2.79-1.24.81-2.49,1.59-3.74,2.38-2.92,1.85-5.76,3.8-8.3,6.17-.35.33-.8.56-1.21.83-.24.16-.81-.04-.97-.3-.85-1.39-1.17-2.97-1.51-4.53-.17-.78.12-1.47.8-1.93.5-.34,1.03-.63,1.47-.89h0ZM219.48,217.18c.64.65.75,1.54.98,2.35.23.77.08,1.49-.61,1.97-1.21.84-2.41,1.73-3.68,2.46-4.39,2.52-8.62,5.27-12.82,8.06-1.64,1.09-3.35,2.01-4.93,2.93-1.08-.57-1.24-1.43-1.4-2.26-.06-.33.02-.78.21-1.04.42-.6.91-1.17,1.45-1.66,4.71-4.2,10.02-7.57,15.36-10.86,1.45-.89,3.15-1.36,4.76-1.99.19-.08.46.03.69.05h0ZM185.38,242.57c.25.12.58.17.67.34.65,1.18,1.27,2.37,1.86,3.58.08.17-.04.48-.15.69-.11.2-.3.39-.49.53-3.69,2.68-7.36,5.39-11.09,8.01-1.4.99-2.99,1.71-4.45,2.63-1.56.99-3.07,2.06-4.59,3.09-.41.27-1.14,0-1.19-.44-.11-.86-.21-1.71-.29-2.56-.07-.64.13-1.23.56-1.71.41-.46.85-.89,1.3-1.31,1.73-1.58,3.49-3.11,5.21-4.71,1.63-1.52,3.38-2.87,5.3-4,2.12-1.26,4.25-2.52,6.37-3.76.31-.18.68-.27,1-.39h0ZM167.74,265.38c-.47-1.14.05-1.72.91-2.19.54-.29,1.16-.55,1.55-1,1.4-1.67,3.33-2.53,5.16-3.57,2.7-1.53,5.13-3.44,7.6-5.3,1.38-1.04,2.74-2.1,4.15-3.11.5-.35,1.08-.61,1.66-.78.3-.09.84,0,1.01.22.76.96,1.45,1.98,2.14,3.01.2.31.15.7-.12,1.01-.08.09-.15.21-.25.28-4.93,3.29-9.56,7.03-14.78,9.9-2.17,1.19-4.18,2.64-6.27,3.97-.52.33-1.04.66-1.6.92-.19.08-.5.04-.7-.07-.69-.39-1.05-1.04-1.16-1.8-.04-.17.22-.39.31-.6.16-.32.29-.64.39-.89h0ZM186.57,222.75c.11.05.25.07.31.15.19.31.46.62.52.96.85,4.4,3.21,8.27,4.42,12.53,1.81,2.94,3.08,6.17,4.8,9.16.68,1.17,1.39,2.31,2.05,3.5.07.12-.11.48-.27.61-.16.12-.53.21-.64.11-.35-.32-.62-.74-.94-1.1-.32-.34-.94-.41-1.37-.19-.41.22-.66.84-.46,1.27.16.33.43.61.57.95.07.19.07.49-.03.65-.12.17-.39.27-.6.35-.1.03-.26-.04-.34-.11-1.35-1.27-2.71-2.51-3-4.51-.06-.45-.39-.92-.72-1.25-1.5-1.52-2.63-3.25-3.21-5.33-.16-.58-.51-1.11-.84-1.63-1.99-3.15-3.49-6.51-4.55-10.07-.11-.35-.19-.72-.23-1.09-.1-1.3.22-2.47,1.32-3.27.79-.57,1.66-1.07,2.5-1.57.19-.11.46-.08.7-.12h0ZM166.65,277.09c1.89-2.98,4.42-5.13,7.12-7.1,1.1-.8,2.21-1.57,3.31-2.38,8.15-6.03,16.68-11.48,25.41-16.62.75-.44,1.52-.81,2.3-1.21,2.41-1.25,4.82-2.5,7.24-3.75.77-.4,1.52-.85,2.33-1.15,5.57-2.05,10.72-5.02,16.2-7.27,1.48-.61,2.89-1.4,4.31-2.16,1.61-.88,3.25-1.69,5.09-2.24-.07.25-.07.49-.18.59-1.26,1.03-2.72,1.7-4.19,2.35-2.03.9-4.07,1.8-5.93,3.04-.3.2-.64.4-.98.52-2.82,1.01-5.28,2.68-7.82,4.2-1.91,1.15-3.87,2.18-5.97,2.94-1.42.51-2.68,1.26-3.86,2.17-2.84,2.19-5.85,4.08-9.02,5.78-4.9,2.63-9.66,5.5-14.49,8.26-1.08.61-2.17,1.17-3.23,1.8-1.59.95-3.21,1.88-4.71,2.95-3.62,2.57-7.19,5.22-10.8,7.84-.69.49-1.41.95-2.12,1.42h0ZM299.77,96.43c.29.49.52.78.67,1.11.99,2.27,2.09,4.49,2.9,6.82.57,1.61.9,3.35,1.05,5.06.21,2.46.2,4.94.23,7.41.02,1.73-.05,3.46-.06,5.2,0,1.36-.12,2.71-.44,4.05-.21.96-.35,1.95-.37,2.93-.03,2-.46,3.92-.98,5.83-.97,3.58-2.08,7.12-3.5,10.55-.62,1.48-1.27,2.96-2.04,4.37-1.35,2.5-2.78,4.96-4.22,7.41-.81,1.38-1.71,2.72-2.58,4.07-.4.63-.88,1.21-1.2,1.88-1.49,3.15-3.61,5.9-5.46,8.82-1.53,2.42-2.74,4.97-3.58,7.71-.54,1.78-1.03,3.57-1.62,5.32-1.43,4.24-2.35,8.57-2.58,13.04-.11,2.1-.27,4.2-.36,6.3-.05.86-.02,1.73.06,2.59.08.86.44,1.72.38,2.56-.17,2.47.36,4.92.17,7.39-.03.24-.13.47-.22.83-.3-.21-.71-.34-.8-.58-.49-1.3-.44-2.69-.33-4.03.18-1.99-.03-3.94-.18-5.91-.38-4.8-.65-9.59.82-14.32,1.06-3.42,1.68-6.96,2.28-10.5.8-4.8,2.33-9.31,5.05-13.42,1.97-2.99,3.79-6.08,5.3-9.34.58-1.23,1.25-2.44,2.05-3.53,2.64-3.61,4.69-7.55,6.75-11.49.75-1.41,1.27-2.95,1.84-4.45.35-.92.62-1.88.95-2.81.62-1.75,1.23-3.49,1.52-5.33.14-.85.46-1.67.71-2.5.13-.47.38-.95.39-1.42.05-2.84.9-5.61.77-8.48-.05-1.36.02-2.72.06-4.08.12-4.37-.72-8.62-1.65-12.84-.23-1.07-.83-2.05-1.26-3.08-.28-.68-.61-1.35-.81-2.06-.07-.25.16-.58.31-1.06h0ZM200.23,241.95c-.22-.23-.59-.45-.68-.76-.23-.82-.37-1.68-.51-2.53-.11-.66.14-1.23.64-1.65.66-.55,1.35-1.09,2.06-1.57,3.06-2.09,6.09-4.22,9.21-6.22,2.69-1.73,5.49-3.32,8.25-4.96.43-.25.9-.39,1.37-.58.63-.26,1.17-.06,1.5.63.42.88.85,1.78,1.15,2.71.42,1.29.75,2.61,1.1,3.92.24.89.06,1.41-.68,1.9-.92.62-1.85,1.22-2.76,1.85-.06.04-.06.27,0,.35.13.17.29.39.47.43.23.05.49-.03.72-.13.78-.36,1.55-.75,2.33-1.12.25-.12.45,0,.5.28.02.11,0,.3-.06.35-.91.63-1.84,1.24-2.75,1.87-4.37,3.04-9.01,5.62-13.67,8.16-1.84,1-3.76,1.85-5.68,2.72-1.04.47-2.19-.18-2.58-1.41-.06-.2,0-.52.15-.66.34-.34.85-.55,1.09-.93.4-.65.86-1.18,1.54-1.55,6.29-3.44,12-7.81,18.09-11.58.51-.32.93-.8,1.36-1.23.37-.37.39-.95.09-1.34-.27-.37-.97-.52-1.32-.27-2.32,1.64-4.65,3.26-6.94,4.94-4.28,3.16-8.87,5.83-13.57,8.3-.1.06-.24.04-.43.08h0ZM294.8,111.45c.27,2.5-.62,5.14-.86,7.84-.08.97-.47,1.92-.82,2.84-2.65,7.02-6.31,13.42-11.49,18.9-2.21,2.34-4.5,4.58-6.88,6.75-4.22,3.84-8.73,7.29-13.16,10.88-1.25,1.01-2.5,2.03-3.63,3.16-1.67,1.67-3.49,3.14-5.37,4.57-2.56,1.95-5.19,3.8-7.7,5.8-2.05,1.63-4.31,2.89-6.54,4.23-.77.47-1.57.71-2.47.6-1.01-.13-1.57.37-2.02,1.24-.21.39-.74.62-1.13.89-.26.18-.82.01-1-.22-.57-.69-.84-1.51-.93-2.38-.02-.21.1-.5.26-.66.25-.26.56-.5.87-.67.88-.46,1.78-.88,2.67-1.31,2.45-1.2,4.83-2.5,6.96-4.23,1.15-.92,2.36-1.79,3.75-2.38.67-.28,1.27-.77,1.81-1.26,1.65-1.5,3.42-2.85,5.27-4.11,1.02-.7,1.95-1.51,2.93-2.27.78-.6,1.56-1.21,2.35-1.81.4-.3.85-.52,1.21-.86,4.7-4.39,9.82-8.33,13.96-13.3.23-.29.49-.56.77-.81,4.56-4.07,8.16-8.93,11.61-13.93.92-1.32,1.79-2.7,2.88-3.87,1.75-1.86,2.85-4.01,3.49-6.45.93-3.61,1.68-7.23,1.19-10.99-.12-.98-.32-1.95-.43-2.93-.13-1.27-.57-2.4-1.41-3.36-.75-.84-1.34-1.78-1.71-2.84-.08-.22-.07-.5,0-.72.06-.22.23-.53.4-.56.33-.07.88-.1,1.02.08.91,1.31,1.88,2.61,2.54,4.05.56,1.21.79,2.59,1.09,3.92.43,1.93.73,3.89.52,6.15h0ZM197.67,273.92c.38.28.66.5.96.71.34.24.82.13.92-.18.07-.24.16-.48.17-.71.05-.82.46-1.38,1.15-1.76.54-.3,1.08-.6,1.62-.89.27-.14.85.08.93.37.58,2.02,1.16,4.03,1.7,6.05.14.5-.05.99-.41,1.35-.44.43-.91.84-1.4,1.21-3.46,2.6-7.14,4.85-10.86,7.05-1.91,1.13-3.78,2.34-5.62,3.58-3.69,2.48-7.34,5.01-11.02,7.5-3.88,2.64-7.77,5.25-11.66,7.88-.41.27-.8.61-1.25.78-.3.11-.81.09-1.03-.1-1.62-1.43-2.12-3.28-1.72-5.36.08-.46.36-.95.71-1.26,1.26-1.17,2.59-2.27,3.91-3.38.18-.16.46-.38.63-.34,1.5.43,1.44-.65,1.77-1.6.22-.64.96-1.09,1.43-1.66.97-1.14,2.44-1.6,3.42-2.78.94-1.13,2.17-2,3.28-2.98.09-.08.21-.16.27-.26.65-1.19,2.44-.29,3.04-1.78.49-1.18,1.86-1.55,2.93-2.14.78-.44,1.28-.26,1.79.6.13.21.2.46.33.66.26.41.52.84.85,1.2.1.11.43.06.63.03.07-.01.2-.21.18-.29-.26-.82-.57-1.62-.79-2.45-.09-.34-.08-.73,0-1.08.05-.18.31-.39.51-.45.19-.05.57,0,.64.14.4.75.73,1.55,1.1,2.32.31.66.63,1.32,1.01,1.95.09.17.41.22.63.32.1-.22.31-.47.26-.65-.23-.83-.56-1.62-.8-2.45-.2-.71-.4-1.43-.49-2.15-.06-.49.05-1.04.51-1.31,1.16-.69,2.36-1.33,3.54-1.98.22-.12.77.25.86.55.35,1.31.69,2.61,1.07,3.92.07.28.33.39.59.25.19-.1.46-.32.46-.47-.14-1.35-.3-2.69-.51-4.02-.17-1.14.34-1.89,1.24-2.47.83-.52,1.65-1.07,2.54-1.47h0ZM257.58,267.66c-1.36,1.45-2.8,2.97-4.92,3.56-.63.17-1.15.5-1.47,1.06-.7,1.21-1.77,2.04-2.84,2.89-2.12,1.7-4.33,3.29-6.56,4.85-6.28,4.41-12.61,8.73-19.24,12.61-1.07.62-2.07,1.36-3.1,2.03-1.02.66-1.88.39-2.28-.84-.63-1.99-1.61-3.88-1.66-6.05-.02-.72-.3-1.43-.49-2.24.35-.34.65-.73,1.05-.99,5.08-3.3,10.16-6.62,15.28-9.84,3.24-2.04,6.59-3.92,9.9-5.86.31-.19.64-.37.98-.52,1.25-.56,2.52-1.02,3.71-1.69,1.18-.66,2.29-1.46,3.34-2.32,1.45-1.18,3.31-1.53,4.87-2.53,1.5-.95,1.59-.8,2.1-1.55.19-.29.53-.49.81-.71.07-.05.25-.02.35.03.09.04.17.13.23.22.06.11.1.23.1.35-.05,2.47-.1,4.94-.17,7.56h0ZM186.85,318.41c.41-.26.82-.51,1.23-.75,3.7-2.24,7.23-4.73,10.83-7.12,1.74-1.15,3.32-2.56,4.95-3.87,1.06-.85,2.07-1.75,3.14-2.59,2.72-2.13,5.46-4.24,8.19-6.36,1.07-.83,1.26-1.5.48-2.47-.72-.89-1.08-1.92-1.29-3.03-.22-1.21-.46-2.42-.71-3.63-.29-1.49-1.06-1.81-2.37-.99-.2.13-.43.25-.62.4-3.77,2.78-7.53,5.59-11.04,8.72-.55.49-1.12.98-1.75,1.34-6.56,3.74-12.61,8.2-18.4,13.04-.95.79-1.9,1.57-2.91,2.29l-.74.53-2.36-.59c1.91-1.46,3.82-2.96,5.74-4.41,4.62-3.51,9.12-7.2,14.09-10.25.74-.45,1.41-1,2.08-1.54.51-.42.72-1.01.56-1.66-.34-1.31-.71-2.62-1.09-3.92-.25-.85-.54-1.69.34-2.35.28-.21.63-.37,1.01-.15.95.51.82,1.44.9,2.27.08.74,0,1.5.19,2.21.32,1.27.73,1.9,1.99.94,1.96-1.5,3.91-3.02,5.86-4.54,1.86-1.44,3.63-3,5.57-4.31,3.69-2.49,7.46-4.85,11.24-7.22,3.86-2.43,7.78-4.81,11.93-7.37-.09-2.58.18-4.92-.41-7.24-.14-.53-.64-.83-1.12-.57-1.09.58-2.14,1.22-3.23,1.81-.85.45-1.2,1.14-1.29,2.09-.06.56-.57.7-1.07.33-.28-.21-.43-.69-.86-.52-1.14.47-2.25,1.03-2.74,2.3-.15.36-.32.74-.76.58-.64-.23-1.18-.16-1.73.23-.71.49-1.4,1-2.14,1.47-.7.46-.89,1.11-.86,1.9.03.71.32,1.45-.18,2.11-.96-.08-.9-1.05-1.38-1.55-.15-.16-.4-.21-.72-.37-1.25.65-2.53,1.36-3.42,2.61-.29.42-.58.77-1.08.95-1.31.46-2.38,1.28-3.33,2.28-.26.26-.52.56-.85.71-2.06.93-3.65,2.52-5.49,3.77-1.63,1.11-3.32,2.14-5,3.18-2.74,1.69-5.52,3.3-8.21,5.03-2.07,1.34-4.03,2.86-6.09,4.24-4,2.7-8.06,5.28-12.01,8.04-2.63,1.83-5.48,3.4-7.45,6.05-.07.09-.19.18-.3.22-.87.29-1.31,1.03-1.89,1.67-.57.63-1.45.93-2.1,1.49-3.69,3.2-7.52,6.24-11.39,9.22l-.19.06-2.52-.46c3.26-2.41,6.42-4.96,9.57-7.52,1.06-.86,2.1-1.73,3.14-2.61.56-.48,1.2-.95,1.35-1.72.17-.89.84-1.12,1.51-1.44.38-.18.41-.6.25-.94-.69-1.45-1.39-2.89-2.13-4.32-.09-.19-.37-.29-.6-.46-.78.55-1.52,1.21-2.37,1.66-1.2.62-1.78,1.63-2.1,2.79-.92.19-1.8.06-2.53.7-.63.56-.92,1.13-.59,1.93.05.11.15.23.15.34,0,.23,0,.53-.13.65-.13.11-.52.12-.63,0-.86-.86-1.58-.69-2.62-.13-1.44.79-1.85,2.64-3.54,3.09-1.61.42-2.77,1.61-4.1,2.5-1.55,1.03-3,2.18-4.47,3.31-.13.1-.25.2-.35.32l-2.39-.44-1.13-.36c0-.12-.03-.23-.07-.33-.32-.8-.73-1.56-1.17-2.31-.79-1.35-1.02-2.76-.64-4.28.77-.03,1.5,0,1.73.95.38,1.56.66,3.15,1.66,4.49.19.26.67.36.99.15.86-.55,1.2-1.39.81-2.2-.81-1.67-1.66-3.31-2.48-4.95-.26-.02-.53-.11-.71-.03-.8.37-1.49.87-1.91,1.67-1.57.53-2.73,1.65-3.86,2.79-.24.24-.41.64-.45.98-.05.38-.07.74-.08,1.11l-3.46-1.09-3.83.85.27-.25c1.61-1.53,3.29-3,4.96-4.48,3.33-2.95,6.71-5.85,10.02-8.82,2.32-2.06,4.57-4.17,6.84-6.28.36-.33.69-.71.63-1.27l.27-.04-.2.11c-.23.07-.5.11-.7.23-2.68,1.76-5.45,3.4-8,5.36-3.81,2.94-7.71,5.77-11.58,8.65-1.09.81-2.18,1.63-3.21,2.5-2.37,1.99-4.71,4.01-7.07,6.01l-2.27.51-6.67,2.96c.06-.07.1-.14.15-.23.45-.06.78-.23.75-.76.52-.02.73-.31.69-.81l.28-.06-.21.14c-.23.26-.46.53-.7.8-.46.06-.78.24-.74.77-.62-.05-1.12.18-1.53.66l-.14.16-2.96,1.32-1.17-.26c5.12-3.95,10.23-7.91,15.32-11.89,1.75-1.37,3.42-2.84,5.13-4.26.29-.23.58-.54.92-.6,1.69-.28,2.81-1.49,4.1-2.42,6.4-4.65,12.82-9.27,19.18-13.97,3.87-2.86,7.68-5.83,11.48-8.79,3.02-2.35,5.99-4.77,8.99-7.16.29-.23.57-.48.84-.72.31-.27.39-.69.19-.98-.33-.46-.99-.77-1.26-.52-1.08,1.04-2.4,1.69-3.73,2.35-1.09.55-2.06,1.36-3.04,2.11-4.79,3.7-9.53,7.49-14.37,11.12-4.35,3.25-8.84,6.34-13.27,9.49-.49.36-1,.73-1.68.54l.02.02c.09-.35.06-.78.26-1.01.4-.46.9-.84,1.4-1.19,10.61-7.3,20.73-15.26,30.69-23.41.68-.55,1.29-1.15,1.91-1.75.53-.51.59-1.14.23-1.66-.29-.4-.74-.5-1.31-.31-1.55.51-3,1.17-4.31,2.13-2.7,1.98-5.37,3.98-8.05,5.98-.7.52-1.29,1.11-1.65,1.96-.22.54-.68,1.03-1.12,1.43-1.66,1.49-3.3,2.99-5.05,4.36-2.82,2.22-5.71,4.36-8.16,6.99-.17.17-.4.29-.6.43-.42.3-1.38.26-1.75-.12-1.02-1.07-2.03-2.17-3.02-3.26-.49-.54-.91-1.17-1.46-1.66-.57-.51-.97-1.06-1.28-1.76-.5-1.12-1.21-2.15-1.82-3.23-.37-.64-.74-1.29-1.08-1.94-.5-1.01-.34-1.81.58-2.65,1.28-1.16,2.59-2.29,3.92-3.41,1.79-1.52,3.63-2.99,5.4-4.52.94-.8,1.79-1.71,2.69-2.56,1.03-.99,2.39-1.26,3.71-1.54.34-.07.82.02,1.05.23.73.63,1.7.26,2.44.69.16.55-.27.89-.45,1.32-.13.32-.28.75-.17,1.05.44,1.28.93,2.54,2.27,3.33.62-.47,1.2-.93,1.8-1.35.29-.2.6-.38.98-.21.24.1.09.54-.32.88-.19.16-.39.3-.59.45-1.43,1.02-1.37,1.48-.51,3.13.22.43.57.8.89,1.18.29.36.99.52,1.35.3.62-.39,1.26-.77,1.86-1.21,3.37-2.51,6.74-5.04,10.11-7.56.19-.15.39-.3.55-.49.25-.29.46-.63.23-1-.63-1.06-1.24-2.13-2.41-2.67-1.64.4-2.99,1.26-4.25,2.28-.86.7-1.77,1.35-2.66,2-.24.17-.49.09-.64-.18-.05-.09-.08-.28-.02-.35.27-.4.52-.84.86-1.16,1.02-.91,2.08-1.76,3.1-2.67.64-.58,1.27-1.19,1.84-1.84.44-.49.52-1.1.24-1.73-.09-.22-.16-.47-.25-.7-.3-.75-.79-.97-1.42-.61-2.16,1.22-4.26,2.49-6.23,4.02-1.36,1.06-2.81,2-4.24,2.96-.08.06-.38-.14-.54-.28-.06-.05-.05-.28,0-.35.33-.37.64-.76,1.02-1.06,1.16-.92,2.28-1.94,3.55-2.69,1.85-1.09,3.28-2.61,4.85-4.01,1.07-.95,1.11-1.67.32-2.92-.27-.43-.91-.7-1.26-.49-1.06.64-2.14,1.24-3.13,1.96-1.12.79-2.25,1.5-3.48,2.11-3.21,1.62-6.17,3.62-8.62,6.33-.73.81-1.65,1.49-2.57,2.11-5.13,3.47-9.93,7.36-14.66,11.34-3.79,3.18-7.65,6.29-11.46,9.46-2.09,1.74-4.14,3.54-6.2,5.31-.75.65-1.49,1.32-2.27,1.92-3.65,2.77-7.12,5.75-10.59,8.74-.56.48-1.17.91-1.78,1.33-2.34,1.61-4.71,3.19-7.05,4.8-.49.35-1,.76-1.34,1.26-1.67,2.45-3.94,4.25-6.19,6.07l-1.71-.06-12.65,5.24-3.59.29c1.04-.82,2.11-1.61,3.22-2.35,3.39-2.28,6.7-4.65,9.75-7.39,1.66-1.49,3.39-2.89,5.31-4.05,2.03-1.23,3.7-2.89,5.27-4.66,2.29-2.59,3.49-5.65,3.84-9.07.14-1.38-.17-2.71-.41-4.05-.17-.92.1-1.78.86-2.32,1.32-.95,2.37-2.16,3.41-3.38.24-.28.51-.55.79-.79,3.65-2.96,6.97-6.32,10.75-9.15,3.16-2.38,6.23-4.88,9.3-7.38,1.35-1.09,2.62-2.27,3.85-3.49,1.81-1.78,1.82-2.09.56-4.12-.53-.84-1.09-1.66-1.59-2.51-.89-1.49-1.74-2.99-2.64-4.47-.84-1.37-1.73-2.7-2.58-4.07-.72-1.15-1.48-2.29-2.1-3.49-2.7-5.16-5.46-10.26-8.87-15-1.15-1.6-2.14-3.33-3.19-5.01-2.55-4.09-5.07-8.2-7.65-12.28-1.65-2.62-3.36-5.19-5.02-7.8-.6-.95-1.08-1.95-.68-3.15.17-.49-.04-.97-.29-1.41-1.18-2.04-2.26-4.12-3.74-5.97-.76-.96-1.43-2.01-2.09-3.07-2.68-4.31-5.31-8.64-8.01-12.94-.78-1.25-1.65-2.47-2.53-3.66-2.67-3.58-4.91-7.43-7.02-11.35-1.95-3.59-4.01-7.1-6.37-10.45-1.71-2.42-3.21-5-4.9-7.43-.98-1.42-2.17-2.69-3.25-4.05-.69-.87-1.39-1.73-2-2.66-.24-.38-.44-1.05-.26-1.39.63-1.21-.2-2.15-.42-3.19.23-.09.48-.3.65-.25,1.04.37,2.07.79,3.08,1.22.72.3,1.15.92,1.58,1.53,1.92,2.73,4.2,5.18,6.35,7.73.08.1.4.03.6-.02.05-.01.1-.23.07-.33-.09-.49-.18-.98-.35-1.44-.29-.81-.66-1.6-.96-2.41-.13-.34-.22-.71-.27-1.07-.06-.38-.02-.8.35-.97.3-.14.8-.28,1.01-.13,2.09,1.51,4.4,2.79,5.72,5.16.18.32.36.67.63.92,2.09,1.98,3.46,4.5,5.1,6.82,1.99,2.84,4.12,5.57,6.5,8.1,1.09,1.17,2.06,2.47,3.1,3.69.22.27.51.5.76.74.27-.23.24-.43.13-.71-.71-1.85-1.36-3.71-2.08-5.55-.32-.8-.78-1.55-1.1-2.35-.13-.32-.09-.72-.12-1.09-.02-.32.38-.67.72-.69.92-.03,1.82.19,2.26,1.02,2.13,4.01,5.58,6.91,8.55,10.21,1.98,2.21,3.82,4.49,5.05,7.26.89,2.02,2.12,3.9,3.3,5.79.85,1.36,1.89,2.6,2.75,3.95,2.53,3.96,5.15,7.87,7.76,11.78,2.96,4.42,5.79,8.93,8.74,13.35,1.3,1.95,2.71,3.83,4.17,5.67,1.01,1.26,1.86,2.62,2.71,3.98.91,1.47,1.81,2.97,2.93,4.27,2.12,2.45,3.79,5.19,5.49,7.92,1.25,1.99,2.48,3.99,3.77,5.97.4.61.87,1.2,1.41,1.7.21.21.7.31,1.01.23.46-.12.89-.42,1.29-.7.93-.62,1.78-1.36,2.74-1.91,3.77-2.16,7.24-4.75,10.69-7.38.49-.37,1.02-.7,1.48-1.12,5.34-4.84,11.38-8.74,17.1-13.07,1.97-1.49,3.9-3.04,5.86-4.56.69-.53,1.37-1.07,2.07-1.56,3.36-2.32,6.71-4.65,10.11-6.91,2.17-1.44,4.38-2.81,6.63-4.1,3.75-2.17,7.36-4.54,10.74-7.27,1.72-1.39,3.67-2.5,5.56-3.68,1.05-.66,2.18-1.19,3.22-1.83,2.23-1.35,4.46-2.65,6.83-3.74.89-.41,1.69-1.03,2.56-1.5,1.83-1.02,3.64-2.1,5.55-2.98,1.38-.64,2.57-1.42,3.61-2.53,4.21-4.54,8.21-9.25,12.18-14.01,1.82-2.19,3.71-4.31,5.54-6.49,1.43-1.7,2.8-3.47,4.24-5.16,1.76-2.07,3.58-4.1,5.38-6.14.82-.93,1.64-1.86,2.46-2.79,2.36-2.7,4.64-5.48,7.1-8.1,6.44-6.86,12.56-14,18.42-21.36,2.31-2.9,4.8-5.67,7.22-8.48,6.38-7.41,12.75-14.83,19.72-21.71.97-.95,1.84-2.01,2.74-3.02,1.39-1.57,2.75-3.19,4.18-4.73,3.19-3.45,6.21-7.06,9.18-10.7,1.1-1.33,1.93-2.88,2.97-4.27,2.6-3.48,2.12-3.5-1.96-4.38-.47-.11-1.01-.08-1.46-.24-4.89-1.81-10.15-2.2-15.09-3.82-.58-.19-1.19-.42-1.78-.43-4.01-.06-7.82-1.21-11.69-2.01-.6-.12-1.21-.26-1.82-.32-2.6-.26-5.1-.96-7.61-1.64-2.49-.68-4.96-1.45-7.54-1.8-.26-.04-.77.37-.81.64-.03.24-.08.49-.09.74,0,.49.02.99,0,1.49-.03,1.98.03,3.96-.12,5.94-.26,3.33-.42,6.66-.47,10,0,.49-.09.98-.17,1.47-.05.32-.25.43-.5.33-.11-.04-.26-.1-.29-.18-.16-.59-.43-1.19-.4-1.78.1-2.72-.15-5.43.16-8.16.19-1.71.12-3.46.09-5.19-.04-2.26-.73-4.37-1.45-6.39-.98-.8-2.11-.95-3.17-1.26-1.45-.42-2.76-1.09-3.96-1.97-.82-.59-1.45-1.32-1.86-2.27-.46-1.1-.17-2.24.81-2.94.86-.6,1.8-.83,2.82-.76.99.06,1.96.23,2.95.37,1.08.15,2.14.68,3.28.37.22-.05.53-.01.71.11,1.4.99,3.07.83,4.63,1.16,3.39.72,6.76,1.52,10.16,2.22,4.24.87,8.48,1.72,12.74,2.5,2.06.38,4.16.56,6.24.87,3.79.56,7.58,1.12,11.37,1.71.97.15,1.95.34,2.91.6,3.95,1.08,8.03,1.41,12.06,1.98,1.08.15,1.97-.15,2.7-.92,2.29-2.44,4.63-4.83,6.8-7.36,4.85-5.62,9.65-11.29,14.39-17,3.56-4.29,7.44-8.28,11.07-12.51,1.04-1.22,2.06-2.47,3.11-3.68.87-1,2.41-1.19,3.73-.44.29.16.58.53.64.84.29,1.73.32,3.4-.57,5.04-.89,1.62-1.62,3.27-2.86,4.7-1.7,1.96-3.16,4.12-4.77,6.15-1.32,1.64-2.73,3.2-4.05,4.83-1.89,2.29-3.7,4.64-5.58,6.94-1.33,1.63-2.73,3.2-4.09,4.81-2.39,2.84-4.78,5.69-7.16,8.54-.16.18-.25.42-.38.63-.26.41-.06,1.11.34,1.27.34.13.69.31,1.05.37,7.17,1.32,14.34,2.7,21.52,3.92,5.62.95,11.27,1.56,16.91,2.29,5.15.66,10.29,1.45,15.39,2.41.72.14,1.45.31,2.15.55,1.7.58,2.59,1.77,2.71,3.59.11,1.43-.44,2.53-2.17,2.97-1.57.4-3.19.34-4.8.17-.7-.07-1.24.32-1.37.96-.23,1.09-.51,2.18-.58,3.28-.18,2.59-.4,5.17-.72,7.75-.39,3.31-.5,6.66-.77,9.99-.17,2.1-.4,4.19-.57,6.28-.16,1.98-.25,3.95-.41,5.92-.04.47-.19.95-.37,1.39-.06.16-.39.23-.62.3-.06.02-.2-.11-.23-.2-.09-.35-.24-.71-.23-1.07.06-1.61.16-3.21.26-4.82.15-2.22.22-4.45.47-6.66.6-5.41.47-10.87,1.15-16.28.26-2.08.15-4.2.19-6.3,0-.47-.42-1-.88-1.03-1.49-.11-2.9-.6-4.33-1-1.8-.52-3.68-.35-5.52-.48-2.84-.19-5.69-.21-8.53-.31-.62-.02-1.25-.08-1.86-.04-3.86.28-7.63-.33-11.41-.96-1.95-.32-3.9-.72-5.91-.52-.72.07-1.47-.12-2.19-.27-3.28-.67-6.57-1.17-9.94-1.1-.85.02-1.72-.16-2.58-.26-1.35-.14-2.7-.29-4.07-.45-1.19.72-1.91,2.04-3.36,2.29-.31.05-.62.39-.83.67-.82,1.09-1.61,2.2-2.39,3.31-3.1,4.47-6.39,8.81-9.85,13.01-.39.47-.8.95-1.14,1.46-3.73,5.56-8.2,10.54-12.27,15.84-.3.39-.52.83-.81,1.28.1.37.15.74.3,1.05,1.37,2.8,2.18,5.76,2.97,8.76,1.13,4.24,1.14,8.57,1.48,12.87.04.49.06,1-.04,1.48-.57,2.94-.34,5.92-.49,8.89-.15,2.98-.65,5.88-1.14,8.82-.52,3.08-1.81,5.9-2.55,8.9-.32,1.3-1,2.53-1.62,3.73-2.47,4.71-4.98,9.4-7.45,14.11-.74,1.42-1.28,2.95-2.05,4.35-1.68,3.02-3.49,5.98-5.17,9-1.98,3.55-4.35,6.92-5.52,10.88-.17.6-.35,1.19-.55,1.77-.8,2.44-.78,4.91.18,7.27.52,1.31.7,2.61.68,3.98-.02,1.11,0,2.23-.04,3.34-.08,1.99.11,3.94.38,5.91,1.07,7.59,1.85,15.21,1.73,22.9-.05,3.71.08,7.42.04,11.13-.02,2.23-.15,4.45-.38,6.67-.35,3.57-.37,7.17-.97,10.71-.4,2.31-.71,4.64-1.38,6.9-.46,1.54-.86,3.09-1.11,4.69-.22,1.45-.74,2.86-1.16,4.28-.35,1.18-.8,2.34-1.15,3.53-.48,1.67-1.07,3.29-2.05,4.75-.34.51-.63,1.08-.81,1.66-.65,2.06-2.03,3.67-3.19,5.42-.27.4-.64.75-1.01,1.07-2.85,2.42-4.01,4.71-6.39,7.68-.69.86-1.38,1.75-1.86,2.74-.38.81-.87,1.46-1.49,2.08-5.55,5.59-11.53,11.23-17.61,15.65l-2.96-1.65-2.69-1.2c2.07-1.66,4.08-3.42,6.09-5.16,1.96-1.7,3.79-3.56,5.56-5.46,2.19-2.35,4.62-4.48,6.6-7.03.46-.59.91-1.17,1.4-1.73.71-.84,1.46-1.67,2.21-2.48.75-.81,1.64-1.52,2.28-2.42,1.58-2.22,3.16-4.44,4.52-6.8,1.22-2.14,2.15-4.45,3.18-6.69.26-.58.27-1.22-.1-1.77-.55-.81-.41-1.6-.11-2.47,1.22-3.63,2.38-7.29,3.56-10.93.11-.35.32-.7.35-1.05.21-2.99,1.27-5.78,2.01-8.65.52-2.05.69-4.15.79-6.25.23-5.2.34-10.39.5-15.59.03-.74-.08-1.51.06-2.22.62-3.09.29-6.16,0-9.24-.05-.49-.37-.85-.6-.66-.28.22-.61.49-.7.8-.36,1.34-.24,2.72.13,4.03.32,1.11.35,2.13.09,3.26-.36,1.56-.56,3.15-.01,4.76.19.54.07,1.22,0,1.82-.33,2.83-.46,5.66-.49,8.52-.04,3.46-.43,6.91-1.29,10.28-.12.48-.19.97-.27,1.46-.91,5.77-2.77,11.25-4.99,16.63-1.03,2.51-1.81,5.14-3.24,7.48-.12.21-.28.44-.3.67-.23,2.45-1.68,4.37-2.89,6.35-1.22,2-2.81,3.75-4.52,5.39-1.14,1.11-2.19,2.35-3.19,3.62-1.53,1.95-3.15,3.81-5.02,5.45-1.4,1.22-2.71,2.54-4.09,3.78-2.76,2.49-5.62,4.84-8.81,6.79-1.5.92-2.91,1.95-4.25,3.06l-.1-.04-4.06-.52c-.29-.25-.58-.5-.89-.7-1.06-.68-1.37-1.65-1.22-2.83.73.11,1.45.12,2.04.69.69.68,1.26,1.69,2.24,1.83,1.22.17,1.78-1.12,2.7-1.69.92-.6,1.82-1.23,2.7-1.89.15-.11.17-.43.21-.65,0-.06-.14-.2-.23-.21-1.74-.19-3.32-.79-4.86-1.93-1.54,1.06-3.12,1.96-4.42,3.28-.16.16-.2.43-.32.64-1.21,0-1.92.96-2.8,1.57-.5.36-1.17.62-1.38,1.52l-10.05,4.6-11.72,3.08-5.98-.21c.09-.5.02-1-.29-1.53-.45-.79-.57-1.61-.62-2.47.95.09,1.89.17,2.82.26,1.11-1.3,2.21-2.59,3.31-3.88.25-.01.5-.05.73-.02.48.07.93.73.75,1.05-.17.32-.34.66-.57.94-.63.76-1.3,1.48-1.94,2.24-.43.5-.38,1.18.08,1.67.49.52,1.09.67,1.66.41.34-.16.66-.34,1.01-.49,1.33-.58,2.11-1.54,2.56-2.95.69-2.12,1.71-4.11,2.99-5.94.41-.59,1-1.06,1.53-1.57.26-.25.83-.16.98.14.09.2.24.51.16.66-.38.77-.76,1.57-1.28,2.23-1,1.27-1.86,2.61-2.55,4.22.37.07.77.29.98.17.95-.56,1.85-1.23,2.78-1.83.75-.49,1.24-1.18,1.6-1.99,1.44-3.28,2.9-6.55,4.37-9.81.26-.57.51-1.13.42-1.77.35-.1.39-.19.14-.25-.03.1-.05.21-.08.31-.69-.14-1.15.28-1.62.65-2.89,2.26-5.77,4.52-8.66,6.78-1.65,1.28-3.3,2.53-4.94,3.81-.47.37-.96.77-1.03,1.44-.75,0-1.4.29-2.01.71-1.38.96-2.75,1.93-4.12,2.9-.78.41-1.69.63-2.15,1.5l-.17.18.11-.25c.46.38,1.09.61,1.12,1.4-.2.24-.43.54-.67.81l-.2.2h-.16s-2.29-1.21-2.29-1.21h0s0,0,0,0l-1.86-.99h0ZM258.81,172.08c.54.46,1.03.82,1.44,1.26.49.53.45,1.26-.07,1.62-.59.43-1.2.87-1.85,1.23-3.58,1.96-7.17,3.91-10.76,5.84-3.59,1.94-7.12,3.96-10.52,6.24-4.21,2.82-8.41,5.68-13.04,7.82-.22.11-.45.21-.65.36-4.32,3.13-9.16,5.39-13.57,8.39-2.25,1.53-4.67,2.79-7,4.2-1.27.78-2.48,1.61-3.7,2.46-2.45,1.69-4.81,3.5-7.31,5.08-5.34,3.37-10.69,6.72-16.14,9.89-5.9,3.44-11.3,7.56-16.64,11.77-1.26,1-2.52,2.01-3.84,2.92-5.61,3.86-11.28,7.62-16.84,11.54-9.2,6.5-18.33,13.08-27.47,19.66-2.42,1.74-4.81,3.51-7.1,5.39-2.01,1.64-3.9,3.43-5.81,5.19-4.02,3.67-7.99,7.4-12.05,11.03-1.19,1.06-2.63,1.84-3.96,2.74-.26.17-.49.11-.63-.14-.06-.1-.11-.24-.08-.34.14-.46.18-1.05.48-1.35,2.46-2.44,4.95-4.83,7.44-7.24,1.24-1.21,2.46-2.44,3.7-3.65.7-.69,1.43-1.36,2.15-2.03.36-.33.78-.61,1.13-.96,3.67-3.71,7.95-6.66,12.09-9.8.49-.37,1.08-.66,1.49-1.1,2.63-2.82,5.92-4.86,8.73-7.47,1.43-1.33,3.22-2.29,4.86-3.39,2.57-1.73,5.16-3.41,7.7-5.16,2.34-1.62,4.64-3.3,7.16-4.63.55-.29,1.05-.65,1.56-1.01,3.03-2.13,6.05-4.28,9.27-6.15,2.34-1.36,4.42-3.16,6.62-4.77.99-.73,1.99-1.46,2.99-2.19,3.79-2.77,7.51-5.64,11.16-8.6.58-.47,1.18-.9,1.78-1.33,2.23-1.56,4.5-3.07,6.7-4.67,2.1-1.53,4.26-2.94,6.51-4.25,1.93-1.12,3.67-2.52,5.49-3.79.81-.57,1.63-1.13,2.46-1.67,1.74-1.16,3.49-2.34,5.27-3.45,1.67-1.04,3.22-2.31,5.13-2.96.34-.12.66-.34.96-.56,2.69-2,5.7-3.47,8.64-5.06,1.3-.7,2.54-1.53,3.81-2.29.63-.38,1.25-.8,1.93-1.09,2.74-1.19,5.13-2.96,7.53-4.69.9-.65,1.8-1.3,2.77-1.86,4.48-2.64,8.9-5.37,13.49-7.81,2.83-1.51,5.65-3.07,8.49-4.55,1.87-.97,3.72-1.96,5.45-3.18.79-.56,1.71-.94,2.65-1.44h0ZM257.06,153.37c.02.31-.09.43-.31.34-.02,0,0-.21.05-.24.08-.05.2-.04.31-.06.06-.36,0-.78.2-1.06,3.15-4.71,5.86-9.71,9.44-14.15,1.7-2.1,3.19-4.39,4.8-6.57,2.92-3.98,5.87-7.94,8.81-11.9,2.46-2.32,4.02-5.29,5.94-8,.58-.81,1.13-1.63,1.71-2.42.52-.72,1.23-1.12,1.47-.88.49.49.41,1.12.38,1.7-.13,2.74-.72,5.36-2.02,7.82-.87,1.63-1.68,3.3-2.46,4.97-1.41,3.04-3.3,5.77-5.29,8.44-2.82,3.75-5.83,7.36-9.02,10.78-2.61,2.79-5.46,5.37-8.33,7.87-1.47,1.28-3.27,2.2-4.94,3.25-.19.12-.47.07-.72.1h0ZM292.06,42.68c-.18-.1-.35-.21-.55-.29-.05-.02-.13.04-.2.06.28.06.55.12.82.17.41.54,1.02.63,1.64.71,6.25.79,12.35,2.33,18.49,3.69,3.74.83,7.43,1.77,11.16,2.64,1.2.28,2.41.49,3.63.68.99.15,1.96-.02,2.9-.39.7-.27,1.14-1.08.9-1.79-.11-.35-.26-.69-.44-1.01-.31-.58-.9-.62-1.38.02-.4.55-.93.96-1.54.73-1.64-.62-3.4-.58-5.07-.96-4.09-.94-8.24-1.53-12.4-2.08-1.58-.21-3.17-.46-4.74-.78-4.37-.89-8.78-1.38-13.22-1.39h0ZM222.96,295.28c-.94,1-1.59,2.18-2.11,3.43-1.04,2.49-2.2,4.94-3.05,7.5-.75,2.26-2.16,3.8-4.13,4.96-.1.06-.32.08-.35.03-.11-.18-.29-.44-.23-.58,1.02-2.76,2.24-5.44,3.68-8.01.9-1.6,1.89-3.16,2.14-5.1.9-.61,1.78-1.28,2.73-1.83.39-.23.93-.21,1.4-.31.02-.12,0-.28.06-.36,1.08-1.21,2.44-2,3.95-2.54.12-.04.52.26.52.38-.05.49-.19.97-.32,1.44-.34,1.29-.7,2.59-1.06,3.86.57.3.75-.13.86-.35.58-1.09,1.08-2.22,1.64-3.31.28-.54.58-1.11.98-1.56.2-.21.71-.33.99-.23,2.08.69,2.55,2.04,1.11,3.55-1.53,1.59-3.24,3.02-4.91,4.49-.25.23-.66.36-1,.39-.86.09-1.29.62-1.63,1.32-.8,1.62-2.21,2.61-3.71,3.49-.07.04-.22.01-.29-.04-.08-.07-.19-.22-.16-.32.46-2.06,1.35-3.94,2.34-5.79.58-1.08,1.05-2.22,1.53-3.35.23-.54-.07-.87-.98-1.13h0ZM232.55,212.79c-.28,1.07-1.24,1.42-2.08,1.86-.14.07-.53-.05-.6-.19-.77-1.57-1.07-3.23-.63-4.95.06-.21.31-.37.47-.54.22-.24.81-.17.93.12.25.68.5,1.35.71,2.04.23.73.64,1.3,1.27,1.73.46-1.08.29-2.17.03-3.26-.59-2.52,0-2.99,2.46-4.16.15-.07.51.07.64.22.24.27.35.64.57.93.2.28.46.54.75.73.25.17.54.04.56-.23.06-.6.09-1.21.05-1.81-.06-.82.19-1.47.93-1.84,1.66-.83,3.25-1.78,5.07-2.22.36-.09,1.09.32,1.16.71.12.73.24,1.46.26,2.19,0,.5-.23.95-.68,1.25-.41.28-.79.6-1.23.84-3.17,1.69-6.18,3.6-8.96,5.88-.49.4-1.03.68-1.68.69h0ZM274.21,152.71c.07-.27.15-.54.22-.81.04.08.12.19.09.24-.11.18-.25.35-.37.52.17,1.34.39,2.69.53,4.03.14,1.37.57,2.65,1.16,3.88.59,1.23,1.34,2.35,2.47,3.18.89.66,1.75,1.36,2.61,2.05.31.25.46.57.37.97-.15.64-.69,1.26-1.16,1.31-1.41.15-2.6-.07-3.66-1.23-1.83-2.02-2.8-4.36-2.98-7.01-.13-1.97,0-3.95.04-5.92,0-.51.19-.95.67-1.22h0ZM266.83,269.39c0-.24.04-.49,0-.73-.14-.64-.41-.92-.9-.96-.48-.03-.97-.01-1.45-.03-.49-.02-1.01-.07-1.22-.59-.32-.77.06-1.96.69-2.28.32-.16.66-.32,1-.41.59-.14,1.2-.21,1.79-.34.58-.13,1.14-.3,1.69-.44.15.28.36.49.34.69-.16,1.87-.97,3.49-2,5.02-.59,1.87-1.15,3.76-2.12,5.39-.33.14-.54.33-.75.33-1.56.03-3.11-.07-4.64-.11-.07-.9.58-1.23.84-1.77.21-.44.39-.91.63-1.33.31-.53.66-1.02,1-1.54,1.74-.3,3.5-.24,5.11-.9h0ZM245.21,280.44c.05-.09.08-.19.12-.28.2.1.15.18-.18.22.15.63,0,1.23-.26,1.78-.71,1.43-1.42,2.84-2.17,4.25-.16.31-.42.6-.68.86-1.15,1.08-2.37,2.07-3.6,2.97-.35-.24-.4-.45-.25-.71.61-1.06,1.25-2.11,1.83-3.18.23-.43.38-.96.05-1.38-.5-.62-.38-1.12.2-1.54,1.29-.93,2.58-1.86,3.91-2.74.28-.18.69-.16,1.03-.24h0ZM95.17,278.25c-1.73.43-3.09,1.54-4.42,2.6-2.49,2-4.86,4.16-7.28,6.25-.67.57-1.17,1.28-1.42,2.12-.09.31.04.68.07,1.2.53-.4.93-.68,1.3-.98,1.89-1.57,9.58-8.96,11.71-11.23l.11-.12-.08.17h0ZM111.43,235.97l-.03-.19.06.12c1.15,1.58,2.28,3.17,3.45,4.73.44.58.96,1.11,1.45,1.65.17.19.79.15.99-.07.27-.29.35-.63.21-1-.1-.22-.2-.45-.34-.64-.37-.48-.83-.91-1.15-1.42-.9-1.38-2.18-2.29-3.58-3.06-.29-.16-.7-.09-1.05-.13h0ZM107.74,224.77l-.08-.23.15.17c.11.35.13.74.31,1.04,1.23,2.11,2.44,4.22,3.73,6.29.45.71,1.05,1.34,1.66,1.94.22.22.66.24.99.34.03.1.03.22.08.3.03.04.22.05.22.03.06-.23-.06-.32-.35-.28-.06-.35-.04-.76-.23-1.03-1.38-2.13-2.8-4.25-4.23-6.35-.41-.6-.84-1.19-1.33-1.72-.22-.24-.6-.34-.91-.5h0ZM300.16,115.53c-.38-.28-.79-.53-1.12-.85-.25-.24-.4-.58-.59-.88-.16-.25-.37-.29-.62-.1-.08.07-.19.16-.2.26-.05.46-.12.93-.09,1.39,0,.19.2.5.37.54.78.2,1.64.55,2.19-.43l.21-.08-.14.15h0ZM179.88,232.18c-.61,0-1.22-.04-1.81.03-.76.09-1.35.52-1.61,1.26-.06.17.08.43.19.63.03.06.22.11.31.07,1.09-.48,2.2-.93,2.84-2.05.73-.17.83-.66.63-1.28-.03-.09-.17-.16-.25-.23-.06.07-.17.15-.18.23-.06.45-.08.9-.12,1.34h0ZM324.65,59.03c.45-.4.91-.77,1.31-1.2.21-.22.3-.54.58-1.05-1.08.64-1.75,1.25-1.82,2.31-.5-.02-.77.21-.78.71-.34.09-.8.09-1.01.32-.83.91-1.59,1.88-2.34,2.85-.98,1.26-1.81,2.66-2.89,3.83-2.68,2.92-4.87,6.21-7.15,9.42-2.07,2.92-4.3,5.71-6.7,8.36-1.64,1.83-3.34,3.62-4.71,5.68-.19.29-.53.52-.84.69-.19.11-.6.16-.7.05-.21-.26-.39-.63-.37-.94.02-.34.23-.7.46-.98,1.26-1.52,2.51-3.04,3.83-4.51,2.47-2.76,4.92-5.52,7.06-8.55,2.92-4.13,5.94-8.18,9.13-12.1,1-1.24,1.93-2.56,2.86-3.86.19-.29.24-.69.36-1.03.41-.24.89-.41,1.21-.74,1.11-1.13,2.16-2.32,3.22-3.5.2-.22.18-.52-.06-.61-.18-.07-.5-.05-.65.07-1.17.89-2.22,1.92-3,3.17-.31.5-.45,1.11-.66,1.67-.48.37-1.02.68-1.44,1.1-.94.98-1.89,1.97-2.71,3.04-2.19,2.84-4.41,5.64-7.07,8.07-3.16,4.11-7,7.65-10.03,11.88-.29.4-.63.76-.97,1.11-2.26,2.29-4.53,4.56-6.76,6.85-.43.44-.77.95-1.15,1.44-.21.29-.15.81.13,1,.2.13.48.34.64.28.99-.39,1.89-.41,2.79.29.23.18.72.2,1.04.11,1.32-.36,2.57-.83,3.43-2.03.64-.9,1.46-1.68,2.18-2.51,4.08-4.64,7.92-9.47,11.63-14.4,2.74-3.65,5.28-7.45,8.33-10.88.97-1.1,1.77-2.38,2.59-3.6.19-.29.21-.7.3-1.05.47-.04.68-.32.73-.77h0ZM134.57,313.83c.41.6.84,1.19,1.22,1.8.05.07,0,.25-.07.33-.18.21-.39.16-.6-.09-.53-.62-.55-1.35-.48-2.1l-.18-.04.12.1h0ZM324.63,44.95c.3.17.59.36.91.49.31.12.47-.01.39-.28-.02-.06-.22-.07-.33-.08-.34-.03-.7-.04-1.05-.06-.41-.22-.8-.57-1.23-.63-.82-.12-1.67-.06-2.5-.08-.41-.23-.81-.55-1.27-.67-4.31-1.06-8.67-1.91-13.05-2.61-.97-.16-1.96-.24-2.94-.36-1.47-.18-2.94-.34-4.4-.54-3.9-.55-7.8-1.16-11.67-1.86-4.02-.72-7.99-1.54-11.93-2.55-1.43-.37-2.88-.66-4.33-.95-.86-.17-1.45.31-1.49,1.17-.06,1.06.46,1.61,1.5,1.61.25,0,.49-.02.75-.04,1.38-.17,2.69.06,3.92.74,1,.54,2.1.66,3.21.8,2.58.32,5.12.73,7.69,1.07,2.45.32,4.89.66,7.34.88,3.32.3,6.6.92,9.94.94.72,0,1.44.28,2.17.42,4.85.91,9.7,1.83,14.65,1.87.59.42,1.27.56,1.98.6.58.03,1.16.08,1.75.12h0ZM335.78,40.49c-.64.39-1.09.94-1.37,1.62-.05.16.12.41.19.62.18-.09.42-.13.53-.27.46-.58.69-1.25.58-2.01l.16-.04-.09.09h0ZM74.35,199.4c-.84-.5-1.38-1.2-1.43-2.21-.1-.04-.19-.08-.3-.12.08.06.15.13.23.19,1.06.37,1.41,1.19,1.43,2.22.12.08.24.17.36.25-.06-.02-.14-.02-.17-.06-.06-.07-.08-.17-.13-.26h0ZM266.84,159.44c-.04-.47-.1-.94-.11-1.42,0-.1.1-.21.15-.31.14.13.37.25.39.39.06.5-.16.92-.51,1.28-.25.99-.5,1.98-.75,2.96.04,1.35.05,2.7.1,4.05.11,2.52.9,4.81,2.39,6.87.61.83,1.3,1.43,2.23,1.85,1.58.72,3.2,1.26,4.94,1.42.34.03.67.25.64.74-.04.52-.2.96-.68,1.19-.22.1-.47.13-.72.12-1.12-.06-2.19-.38-3.15-.95-3.76-2.25-5.42-3.14-6.43-8.78-.16-.84-.4-1.68-.51-2.53-.17-1.37.06-2.67.91-3.8.06-.08.23-.08.34-.12.06-.58.14-1.16.18-1.73.05-.48.22-.89.59-1.21h0ZM297.97,134.13c-.43.3-.66.72-.64,1.22,0,.16.24.31.37.47.05-.11.15-.21.16-.32.03-.48.03-.96.04-1.43.15-.14.32-.27.45-.43.04-.04-.04-.17-.06-.26-.1.25-.2.51-.3.76h0ZM101.05,215.08c-.33-.48-.75-.91-.66-1.56-.53.03-.75-.26-.75-.75-.3-.18-.62-.35-.91-.56-.45-.32-.79-1.21-1.43-.62-.54.5.09,1.13.34,1.64.79,1.56,1.97,2.82,3.13,4.11,1.74,1.94,3.22,4.04,4.07,6.54.11.17.23.34.34.53.02.05-.06.14-.09.21-.06-.27-.12-.54-.18-.81-.58.05-.86-.4-1.15-.77-2.43-3.11-4.84-6.24-7.26-9.36-.15-.19-.34-.38-.57-.47-.18-.07-.49-.09-.63.02-.16.13-.28.42-.26.63.03.36.11.75.3,1.04.83,1.23,1.62,2.5,2.58,3.61,2.2,2.53,3.97,5.33,5.65,8.22,1.73,2.99,3.58,5.91,5.38,8.86.32.53.68,1.03,1.03,1.54,1.85,2.61,3.71,5.21,5.58,7.85-.43.83-.81,1.58-1.18,2.31-.35-.08-.63-.06-.75-.19-.79-.95-1.59-1.89-2.28-2.92-1.91-2.87-3.94-5.67-5.59-8.72-.29-.54-.63-1.06-.98-1.58-1.88-2.89-3.94-5.68-5.4-8.84-.35-.78-.85-1.51-1.36-2.2-2.95-3.95-5.74-8.04-9.02-11.73-.23-.27-.58-.43-.9-.62-.08-.04-.27.01-.35.08-.19.14-.46.31-.48.49-.06.79.35,1.42.85,1.98,3.14,3.5,5.68,7.46,8.57,11.15.6.77,1.09,1.64,1.52,2.53,1.29,2.69,2.93,5.15,4.57,7.61,1.09,1.64,2.21,3.26,2.73,5.2.28.22.62.4.82.67.66.89,1.3,1.78,1.89,2.71,1.52,2.37,2.93,4.81,4.84,6.9.15.17.28.43.28.64,0,.2-.12.5-.28.59-.17.1-.5.09-.67-.03-.29-.2-.56-.48-.74-.78-2.01-3.22-4-6.45-5.97-9.69-.16-.28-.07-.71-.11-1.07-.22-.08-.52-.1-.65-.26-.57-.65-1.09-1.33-1.61-2.02-1.4-1.88-2.67-3.86-4.19-5.64-2.02-2.36-3.71-4.92-5.18-7.64-1-1.85-2.04-3.66-3.71-5.02-1.9-2.58-3.86-5.11-5.68-7.76-.69-1.01-1.27-2.09-2.18-2.95-.45-.41-.93-.95-1.05-1.49-.26-1.29-.86-2.18-2.03-2.85-.89-.51-1.26-1.49-1.2-2.56.02-.48.1-.97.14-1.46.31.07.61.06.75.2.34.35.63.75.89,1.16.39.62.75,1.28,1.12,1.91.24.4.93.77,1.22.67.42-.14.58-1.05.24-1.66-.54-.97-1.06-1.95-1.68-2.87-.62-.91-1.36-1.75-2.03-2.64-2.76-3.62-5.59-7.21-8.25-10.91-1.66-2.3-3.05-4.78-4.57-7.17-2.12-3.33-4.16-6.71-6.64-9.8-.61-.76-1.14-1.62-2.09-2.04.07.48.04,1.02.25,1.43.45.88.94,1.74,1.55,2.5,2.75,3.49,4.84,7.41,7.25,11.12.42.66.54,1.36.59,2.1.92.27,1.29.97,1.38,1.85,0,.18-.17.44-.35.56-.26.18-.82-.07-.85-.37-.06-.7-.07-1.41-.1-2.11-.43-.24-.84-.55-1.3-.7-.64-.21-1.02-.64-1.31-1.21-2.19-4.29-4.67-8.41-7.2-12.51-.65-1.05-1.47-1.99-2.18-3-.57-.8-1.28-1.53-1.39-2.58-.09-.06-.27-.15-.26-.17.07-.19.15-.11.2.24.76.17,1.07.88,1.57,1.35.43.4.81.87,1.48.85.12-.68-.27-1.17-.61-1.68-2.12-3.19-4.24-6.37-6.34-9.57q-1.59-2.41-2.33-5.72c.09-.29.3-.35.56-.13.27.24.56.5.76.79.98,1.42,1.94,2.86,3.41,3.85,2.05,2.47,4.14,4.91,6.12,7.43,1.67,2.13,3.22,4.36,4.83,6.55.95,1.29,1.91,2.58,2.84,3.89,1.63,2.32,3.25,4.65,4.88,6.97.42.61.89,1.2,1.22,1.85.49,1.01,1.17,1.86,1.87,2.74.68.86,1.14,1.89,1.7,2.84.39.65.87,1.21,1.61,1.44.19.06.49-.04.65-.18.16-.14.26-.42.26-.64,0-.23-.11-.47-.22-.68-1.54-2.96-3.01-5.94-4.65-8.84-.76-1.37-.91-2.79-.99-4.26-.15-.17-.31-.32-.44-.5-.04-.04.06-.17.1-.26.37.17.27.52.28.82.22.1.51.13.64.3,2.12,2.86,4.18,5.76,6.05,8.7-.26.56-.46,1-.73,1.56.74,2.13,1.85,4.14,3.32,5.97,1.47,1.83,2.93,3.64,4.35,5.51,1.04,1.37,1.96,2.83,2.98,4.22.29.38.68.92,1.06.95,1.46.11,2.08,1.13,2.81,2.14,2,2.81,4.03,5.59,6.05,8.38.5.69,1.05,1.38.99,2.32.48.01.72.29.75.75.74.26.58.93.67,1.48l.23.09-.17-.07h0ZM268.25,220.27c-.22.02-.43.03-.63.07-.09.02-.17.12-.25.18.17.07.4.23.52.18.14-.07.19-.33.3-.5.1,0,.22.01.3-.03.06-.03.07-.22.06-.22-.19-.09-.3.02-.3.32h0ZM259.3,223.88c.58-.06,1.22,0,1.5-.7.11-.04.23-.08.34-.12.09-.04.18-.09.26-.13-.09.03-.19.04-.26.09-.1.07-.18.16-.28.24-.59.05-1.18.09-1.55.66l-.1.11.08-.15h0ZM107.81,229.16c.22.49.42.99.63,1.49l.21.11-.15-.17c-.21-.5-.41-1-.62-1.51-.09-.02-.18-.03-.27-.05.06.04.13.08.19.13h0ZM251.16,230.64c.59-.07,1.21-.08,1.46-.79.2-.05.4-.1.6-.16-.03-.06-.06-.12-.08-.17-.15.14-.3.28-.46.41-.57.11-1.32-.12-1.47.77-.3-.07-.6-.14-.74.25,0,0,.19.13.22.1.17-.12.31-.27.46-.42h0ZM234.84,232.88c-.16.13-.32.27-.5.39-.04.03-.15-.06-.23-.08.27-.08.53-.15.8-.23.29-.66.91-.64,1.49-.75.08-.21.12-.51.28-.63.59-.44,1.19-.87,1.84-1.2,3.04-1.55,6.11-3.08,9.18-4.6,1.42-.71,2.88-1.34,4.3-2.06.68-.35,1.37-.5,2.11-.46.31-.77.97-.7,1.6-.68.06-.21.06-.5.2-.63.72-.71,1.64-.95,2.64-.94.15-.15.28-.32.45-.45.04-.03.17.05.25.07-.25.1-.51.2-.76.31-.11.18-.18.45-.35.52-.82.38-1.66.7-2.48,1.05-.54.23-1.07.45-1.61.68-.92,1.06-2.28,1.41-3.45,2.05-.98.53-1.98.99-2.93,1.56-3.59,2.19-7.46,3.8-11.35,5.34-.49.25-.98.49-1.49.74h0ZM101.07,245.46c-.52-.36-.78-.85-.68-1.49-.95-.39-1.21-1.29-1.55-2.12-.41-.46-.67-.97-.61-1.61l-.22-.03.16.1c.54.41.57,1.02.61,1.61.99.36,1.38,1.15,1.55,2.12.83.23.69.89.68,1.49.28.26.57.52.85.78.72.57,1.38,1.17,1.46,2.18.18.15.41.26.52.45.15.28,0,.49-.3.48-.06,0-.17-.19-.17-.29-.02-.23,0-.47.02-.7-.2-.09-.46-.14-.59-.29-.46-.54-.79-1.17-.87-1.89-.29-.26-.57-.52-.84-.78h0ZM107.06,255.08l-.06.06c-.07-.58-.05-1.19-.73-1.47-.02-.21-.02-.43-.06-.64-.08-.29-.25-.37-.4-.22-.06.06-.11.19-.1.27.05.36.23.58.63.53-.06.63-.03,1.22.73,1.46h0ZM156.13,281.99c-.29-.06-.58-.14-.73.23,0,.01.18.12.21.11.16-.12.29-.27.45-.41.37-.15.67-.36.72-.8,1.33-.13,2.08-.84,2.19-2.19l.15-.08-.1.12c-.97.49-1.93,1-2.18,2.21-.49.05-.78.28-.7.82h0ZM242.79,289.79c.37-.85,1.91-1.99,2.41-1.05.12.24-1.2,1.79-3.59,3.55-.12.17-.38.3-.51.46-.85.8-2.07,2.01-2.64,2.81-1.3,1.81-2.95,3.26-4.79,4.49-.08.06-.29.04-.35-.03-.13-.17-.35-.45-.29-.57.8-1.66,1.7-3.23,3.13-4.45,1.31-1.11,2.54-2.3,3.84-3.41.09-.09,2.56-1.68,2.8-1.81h0ZM295.74,133.42l-.05-.06c-.03.23-.05.47-.1.7-.03.11-.15.3-.17.29-.27-.1-.38-.33-.22-.57.11-.17.35-.24.54-.36h0ZM49.82,161.54c.06.08.09.17.16.24.04.03.11.02.17.03-.13-.07-.26-.13-.39-.19.03-.31.13-.65-.29-.77-.02,0-.13.21-.1.25.13.17.3.31.46.45h0ZM283.75,162.21c.2-.15.75-.11.33-.6-.08.22-.16.45-.26.67-.16.15-.33.29-.47.45-.03.04.09.26.1.26.43-.13.3-.48.3-.78h0ZM54.33,168.21l-.15-.08.21.09c.06.57-.1,1.22.55,1.59.61,2.26,1.89,4.15,3.35,5.94.02.03.2,0,.25-.07.07-.07.17-.23.15-.3-.74-2.06-1.7-4-3.24-5.59-.07-.08-.23-.09-.34-.13-.26-.48-.52-.96-.78-1.44h0ZM214.73,183.81c.62.02,1.19-.08,1.5-.71.43-.17.86-.32,1.27-.54.12-.07.14-.33.2-.5-.2.04-.44.03-.61.13-.39.21-.9.36-.81.98-.68-.11-1.23-.02-1.49.72-.29.06-.64-.06-.77.34.1.03.23.11.27.08.17-.14.29-.32.44-.48h0ZM199.83,188.23c-.08.13-.17.26-.26.39.02-.07,0-.17.05-.2.08-.06.18-.08.29-.13.32-.63.86-.77,1.5-.7.07-.21.07-.52.22-.63,1.41-1.04,2.9-1.94,4.63-2.36.12-.03.23,0,.34.01.12-.21.18-.48.35-.61,1.57-1.2,3.14-2.39,4.74-3.54,3.71-2.68,7.69-4.88,11.89-6.67.43-.18.93-.25,1.41-.28.2-.01.54.19.58.35.09.33.12.76-.03,1.03-.16.3-.52.51-.84.68-1.65.84-3.32,1.63-4.95,2.48-3.93,2.05-7.85,4.13-11.79,6.17-.41.21-.94.21-1.4.31-.12.21-.18.49-.36.6-1.25.76-2.49,1.51-3.77,2.21-.3.16-.71.12-1.06.17-.28.72-.89.73-1.53.7h0ZM187.34,196.58c-.03-.51.28-.72.7-.84.49-.89,1.27-1.33,2.25-1.46.39-.98,1.19-1.37,2.16-1.5.33-.69.96-.65,1.56-.67-.02-.5.29-.72.71-.84.28-.69.91-.6,1.48-.67.04-.1.07-.2.11-.3-.07.07-.12.15-.19.22-.35.53-.87.69-1.48.68-.24.27-.48.55-.73.82-.44.4-.94.64-1.54.68-.44.89-1.21,1.32-2.15,1.5-.53.84-1.24,1.38-2.26,1.46-.24.28-.48.56-.72.83-.43.43-.95.66-1.56.65-.38,1.04-1.21,1.41-2.24,1.48-.29,1.14-1.14,1.46-2.19,1.47,0,.48-.29.7-.71.82-1.27,1.53-2.89,2.66-4.45,3.85-2.07,1.57-4.14,3.14-6.23,4.68-6.67,4.91-13.36,9.8-20.02,14.72-4.18,3.09-8.32,6.22-12.47,9.34-1.68,1.26-3.34,2.54-5.03,3.79-4.25,3.18-8.58,6.29-12.51,9.89-.12.1-.4.02-.61.02,0-.23-.03-.45,0-.67.02-.1.15-.2.23-.29,1.11-1.15,2.23-2.31,3.35-3.45.69-.71,1.35-1.46,2.11-2.08,2.77-2.28,5.57-4.52,8.36-6.76,1.45-1.15,2.93-2.27,4.4-3.4,1.75-1.36,3.46-2.79,5.28-4.06,7.9-5.53,15.75-11.13,23.62-16.71,3.62-2.57,7.11-5.36,10.99-7.56.65-.36,1.26-.78,1.93-1.1.32-.14.72-.11,1.08-.14-.05-.52.32-.69.72-.82.55-.76,1.24-1.31,2.19-1.47.57-.76,1.26-1.34,2.24-1.48.35-.64.95-.67,1.58-.64h0ZM253.32,219.4l-.06.2.13-.13c.02-.27.04-.55.06-.82-.33-.16-.65-.37-.99-.48-.79-.26-1.45.34-1.32,1.19.04.24.16.46.23.7.13.5,0,.75-.33.79-.47.06-.69-.28-.8-.6-.22-.69-.48-1.41-.51-2.13-.06-1.98-.48-3.91-1.02-5.79-.48-1.68-.56-3.39-.69-5.1-.06-.78.32-1.41.94-1.89l-.08.08c-.04-.24,0-.53-.12-.72-.34-.51-.87-.92-1.07-1.47-.35-.92-.57-1.9-.69-2.87-.16-1.23-.47-2.41-.85-3.59-.48-1.54-.71-3.1-.82-4.72-.12-1.71.05-3.47-.57-5.14-.18-.48.12-.94.67-1.16.68-.28,1.38-.53,2.09-.73.18-.05.48.11.62.27.4.49.67,1.04.51,1.78-.41.15-.86.27-1.28.48-.62.29-.86.85-.93,1.49-.08.77.56,1.49,1.33,1.43.47-.04.93-.21,1.51-.34.38,1.55.75,2.98,1.09,4.42.35,1.57.66,3.15.98,4.72.13.61.39,1.21.38,1.81-.04,2.62.75,5.13,1.09,7.7.17,1.35.4,2.68.34,4.06-.04.61.06,1.23.17,1.83.3,1.35.21,2.71.06,4.06.14.25.29.49-.06.7h0ZM263.77,133.38l.13-.19-.13.16-.13.11.13-.08h0ZM154.62,229.08l-.22-.09.14.16c.1.06.19.11.28.17-.11.18-.18.1-.2-.24h0ZM265.25,128.19l.13-.19-.13.15c-.28.23-.55.47-.82.7-.26.24-.51.48-.77.71-.04,1-.7,1.64-1.34,2.29-.27.24-.54.48-.81.72-.06.45-.24.75-.75.72.05.68-.39,1.14-.76,1.63-1.94,2.57-3.91,5.1-5.8,7.71-1.37,1.9-2.54,3.96-3.93,5.85-3.08,4.19-6.26,8.3-9.37,12.46-.81,1.09-1.63,2.19-2.27,3.38-.6,1.1-1.34,2.06-2.21,2.95-1.21,1.23-2.37,2.53-3.57,3.78-.79.83-1.71,1.42-2.9,1.47-.21,0-.51-.09-.65-.25-.12-.14-.17-.47-.1-.65.2-.45.42-.91.72-1.29,1.14-1.46,2.18-3.04,3.51-4.31,2.7-2.58,4.81-5.64,7.08-8.57.38-.49.67-1.05,1.1-1.49,2.15-2.25,3.79-4.88,5.52-7.44,1.11-1.65,2.36-3.16,3.76-4.57,1.13-1.14,2.18-2.36,3.21-3.59.2-.24.17-.69.22-1.05,0-.1-.08-.26-.17-.31-.2-.09-.42-.16-.64-.18-.1-.01-.23.1-.31.19-3.1,3.03-6.09,6.15-8.46,9.83-1.34,2.07-2.91,4-4.38,5.98-.97,1.29-1.93,2.57-2.94,3.83-.93,1.16-1.87,2.31-2.85,3.42-1.88,2.13-3.78,4.24-5.69,6.36-.25.29-.72.35-.98.13-.33-.27-.38-.63-.29-1,.06-.23.19-.45.33-.66.27-.41.55-.83.85-1.22,2.84-3.59,5.69-7.18,8.53-10.76,1.15-1.45,2.41-2.84,3.43-4.38,1.38-2.09,3.03-3.92,4.82-5.62,1.54-1.46,2.87-3.06,4.16-4.72,1.06-1.37,2.17-2.7,3.34-3.98,2.51-2.73,5.01-5.48,7.26-8.43,1.05-1.37,2.25-2.63,3.41-3.91,2.75-3.02,5.12-6.37,8.03-9.25.7-.69,1.25-1.53,1.83-2.33,1.25-1.69,2.44-3.43,3.69-5.11.44-.6.92-1.18,1.48-1.66,2.24-1.98,4.12-4.27,5.98-6.59.22-.28.55-.47.82-.71.81.59.89,1.47,1.1,2.28.16.63.11,1.26-.42,1.7-2.13,1.8-3.33,4.29-4.85,6.53-.4.58-.57,1.36-.71,2.07-.23,1.08-.81,1.81-1.83,2.13-.75.23-1.28.71-1.79,1.25-3.24,3.4-6.71,6.6-9.22,10.64-.2.3-.5.54-.74.78-.52-.1-.99-.19-1.54-.29-.46.4-.97.76-1.39,1.2-1.84,1.84-3.65,3.7-5.46,5.56-.53.53-.91,1.16-1.15,1.88-.16.52-.05,1.12.31,1.32.44.23.69-.1.96-.33.65-.54,1.06-1.39,1.99-1.59.05-.46.26-.73.75-.72.05-.49.29-.77.82-.71-.11-1.09.66-1.67,1.34-2.3.25-.24.51-.47.76-.71.26-.24.51-.49.76-.73h0ZM270.44,127.44c-.32.14-.38.24-.17.25.05,0,.1-.19.14-.29l.13-.1-.1.15h0ZM144.17,240.27c.42-.1.64-.38.7-.8l.19-.07-.12.14c-.35.15-.68.34-.71.79-.11,0-.24,0-.34.04-.06.03-.07.15-.1.23.12-.12.25-.23.38-.34h0ZM351.41,21.97c-.25.25-.5.49-.75.74-.26.23-.52.47-.78.71-.39.45-.66.94-.57,1.56-.53-.05-.79.21-.81.73-.51-.05-.73.24-.78.7-.46.02-.65.34-.77.72l-.13.08.05-.16c.49.03.74-.23.79-.71.44-.03.68-.29.77-.7.27-.25.53-.49.8-.74.44-.43.57-.96.59-1.54.25-.24.51-.48.77-.72.26-.24.51-.48.77-.72l.13-.1-.09.14h0ZM357.44,19.07c-.44.03-.71.26-.77.71-.52-.06-.76.18-.78.68-.52-.04-.7.27-.74.73-1.45.85-2.44,2.08-3.07,3.62-.45.03-.67.3-.77.71-1.28.75-1.98,1.99-2.71,3.2-.11.18-.05.46-.07.69-.53-.06-.79.18-.8.71-.49-.11-.73.17-.89.58-.77.6-1.68,1.09-2.29,1.82-1.64,2.01-3.17,4.1-4.7,6.19-.2.27-.19.7-.28,1.05-.45.04-.65.36-.8.73-.47.38-.58.93-.65,1.49l-.17.1.13-.12c.46-.41.68-.93.62-1.55.53.07.79-.19.81-.7.32-.16.73-.23.93-.48,2.08-2.41,4.13-4.85,6.16-7.3.23-.27.34-.64.51-.96.4-.17.59-.46.57-.9.45-.04.67-.32.79-.72.9-.89,1.81-1.75,2.68-2.67.21-.23.26-.62.39-.94.4-.11.64-.38.67-.81,1.39-.78,2.21-2.05,2.9-3.43.05-.09,0-.23,0-.35.52.04.7-.28.75-.73.43-.04.65-.31.77-.69.25-.24.51-.47.77-.71.03-.06.05-.12.09-.18-.01.08-.02.17-.02.25h0ZM356.6,16l.13-.14-.17.11-.09.13.12-.11h0ZM361.86,10.89c-.45.03-.62.34-.77.7-.41.07-.67.31-.72.74-.47.03-.72.28-.74.75-.47.01-.7.29-.74.75-.08.06-.14.12-.22.17.05-.09.09-.17.14-.25.38-.12.66-.33.75-.74.38-.11.65-.33.74-.75.38-.11.64-.34.73-.74.27-.23.55-.46.82-.69l.06-.14-.05.2h0ZM241.47,163.81c-.25.25-.5.51-.75.77-.35.44-.69.89-.7,1.49-1.02.38-1.52,1.11-1.48,2.21-.11,0-.23-.02-.33.01-.06.03-.1.23-.08.24.2.11.33,0,.35-.32,1.32-.5,1.43-.65,1.49-2.2.6-.34.51-.98.69-1.51.24-.26.49-.51.75-.76.46-.03.75-.24.8-.73,1.12-.08,1.69-.96,2.28-1.72,2.95-3.8,5.99-7.55,8.61-11.61,1.81-2.81,3.69-5.57,5.53-8.35.88-1.34,1.76-2.68,2.1-4.29.28-.23.56-.47.83-.7l.13-.16-.13.19c-.25.24-.51.49-.76.74-2.79,2.96-5.22,6.18-7.22,9.74-.77,1.39-1.69,2.71-2.65,3.99-1.98,2.66-3.86,5.4-6.03,7.91-.8.92-1.5,1.95-2.17,2.98-.25.39-.31.9-.46,1.36-.46.03-.67.34-.78.75h0ZM110.73,265.5c-.1.11-.18.22-.27.33.03-.06.04-.14.08-.16.07-.05.17-.06.25-.09.06-.42.34-.64.7-.78,1.47-1.49,2.71-3.12,3.67-5,.61-1.18,1.53-2.19,2.54-3.59.16-1.05.27-2.54,1.09-3.82.27-.4.58-.78.88-1.15.07-.09.24-.18.33-.15.2.08.4.2.57.34.08.07.15.21.16.33.12.98.19,1.95.34,2.92.14.95.36,1.88.53,2.75-2.93,2.27-5.72,4.47-8.53,6.65-.48.38-.98.74-1.66.66.02.48-.25.71-.69.78h0ZM106.25,269.17c.36-.02.45-.1.25-.2,0,0-.12.18-.18.28-.25.27-.5.54-.75.82-.96.13-1.7.62-2.23,1.42-.42.1-.73.3-.74.78-.42.17-.89.26-1.24.52-.63.49-1.19,1.08-1.78,1.63l-.08.15.08-.2c.99-.11,1.78-.63,2.47-1.27.24-.21.33-.59.49-.89.51,0,.8-.23.71-.78,1.11.09,1.73-.57,2.23-1.43.38-.16.68-.39.76-.82h0ZM254.83,276.6l-.1.22.09-.17.19-.14-.18.09h0ZM101.11,285.58c.39-.1.69-.3.69-.76,1.39-.2,2.4-.9,2.97-2.21,1.07.04,1.66-.68,2.24-1.42l.15-.18-.08.25c-1.02.05-1.86.37-2.25,1.42-1.32.3-2.39.93-2.97,2.22-.42.08-.69.3-.69.76l-.22.08.15-.14h0ZM248.17,286.33l.15-.18-.08.25c-.28,0-.67-.09-.35.42.09-.17.19-.33.28-.49h0ZM144.92,290.01c.23-.26.46-.53.7-.79.49-.2.99-.41,1.49-.62.27-.27.53-.54.79-.81.37-.13.62-.37.68-.79,1.03-.02,1.74-.56,2.26-1.41.63-.06,1.15-.37,1.59-.81.07-.07.11-.18.17-.27-.21-.07-.48-.25-.63-.18-.53.27-1.07.59-1.07,1.32-1.05,0-1.67.66-2.24,1.42-.33.16-.63.37-.69.78-.26.27-.52.55-.79.82-.54.09-1.09.16-1.49.62-.24.26-.47.52-.72.77l-.15.09.1-.14h0ZM98.77,323.59l.43-.2c-.14,0-.28,0-.42-.02,0,.08,0,.15,0,.21h0ZM69.96,317.36c2.73-2.03,5.45-4.07,8.15-6.13,3.43-2.62,6.77-5.37,10.15-8.07,1.45-1.15,2.86-2.37,4.75-2.78-.26.87-.9,1.46-1.55,2.02-1.04.89-2.09,1.73-3.1,2.64-.25.23-.36.6-.54.91,1.15.79,2.25,1.55,3.45,2.38,1.33-.49,2.34-1.61,3.49-2.53,1.18-.95,1.18-1.23.4-2.81-.23-.44-.5-.88-.59-1.35-.17-.98-.99-.95-1.65-1.18.09-.34.09-.77.29-1.02.57-.66,1.18-1.26,1.84-1.81.84-.72,1.72-1.41,2.62-2.05,3.11-2.23,6.02-4.68,8.5-7.61.8-.94,1.75-1.74,2.87-2.29.91-.43,2.1-.06,2.55.84.16.33.36.66.45,1.01.49,2.21,1.54,4.13,3.02,5.83.57.67.93,1.4,1.12,2.29.14.7.5,1.38.82,2.03.51,1.02.24,1.93-.33,2.78-.69,1.01-1.45,1.98-2.18,2.96l-.14.13.12-.16c1.26-.25,2.19-1.07,3.22-1.76,1.01-.69,1.97-1.49,3.21-1.75.18-.04.43.16.64.27,0,0-.07.22-.13.32-.06.11-.11.24-.2.3-2.87,1.9-5.56,4.05-8.71,5.52-1.32.61-2.49,1.57-3.68,2.43-.69.5-1.29,1.14-1.96,1.69-1.17.98-2.46,1.6-4.06,1.35-.23-.03-.48.08-.8.14-1.75,1.26-3.39,2.74-4.99,4.28-.75.72-1.26,1.59-1.08,2.62.33,1.81-.54,3.09-1.67,4.28-.41.43-.83.84-1.26,1.26l-7.11-1.55-11.09-5.24-4.82-.17Z"/>
        <path class="cls-1" d="M123.37,298.97c-.04.08-.07.15-.1.23-.2-.09-.16-.17.12-.22l-.02-.02Z"/>
        <path class="cls-1" d="M88.07,201.21c.11.03.24.03.34.1.92.62,1.78,1.31,2.21,2.37.07.18,0,.51-.13.66-.13.16-.4.22-.62.29-.1.03-.24,0-.35-.04-1.09-.44-1.8-1.25-2.17-2.34-.07-.19.02-.49.15-.66.12-.17.38-.26.58-.38Z"/>
        <path class="cls-1" d="M57.32,166.8c-.51-.04-.79-.32-.84-.83.53.03.74.37.84.83Z"/>
        <path class="cls-1" d="M180.01,290.28c-.09.07-.17.17-.28.2-.1.02-.29.02-.33-.05-.37-.46-.78-.91-1.02-1.44-.11-.23.14-.63.23-.96.2.11.46.17.59.34.42.56.87,1.12.8,1.9Z"/>
        <path class="cls-1" d="M188.97,237.12c-.2.13-.48.5-.75.49-1.27-.03-2.05-1.01-1.78-2.12.14-.58,1.01-.98,1.41-.59.42.41.78.89,1.09,1.39.11.17.02.46.02.83Z"/>
        <path class="cls-1" d="M191.72,241.72c1.22.09,1.97,1.45,1.38,2.39-.14.24-.63.48-.88.41-1-.25-1.56-1.33-1.19-2.24.11-.27.5-.42.69-.57Z"/>
        <path class="cls-1" d="M185.93,227.43c.73.11,1.26.81,1.17,1.53-.05.4-.62.87-1.03.85-.69-.04-1.24-.79-1.13-1.54.07-.47.58-.91.99-.85Z"/>
        <path class="cls-1" d="M250.12,213.28c.17-.52.31-.98.49-1.41.18-.41.94-.54,1.26-.23.96.92.99,1.83.1,2.84-.08.08-.19.14-.29.21-.23.18-.84.13-.98-.12-.22-.41-.39-.85-.58-1.29Z"/>
        <path class="cls-1" d="M248.86,205.41c.47-.03.95-.1,1.41-.07.57.04,1.07.59,1.15,1.19.06.42-.27.98-.67,1.14-.46.17-1.04.01-1.29-.29-.52-.6-.39-1.35-.53-2.04l-.08.08Z"/>
        <path class="cls-1" d="M248.61,199.44c-.63.11-1.2-.33-1.29-.97-.07-.6.47-1.26,1.03-1.26.54,0,1.15.64,1.15,1.2,0,.43-.45.97-.89,1.03Z"/>
        <path class="cls-1" d="M154.99,251.29c-.04.45-.49.85-.97.86-.74.01-1.39-.67-1.27-1.36.09-.46.52-.85.97-.87.69-.04,1.33.65,1.27,1.37Z"/>
        <path class="cls-1" d="M157.93,258.19c-.15.14-.35.42-.63.6-.34.22-.73.08-.97-.2-.21-.26-.41-.62-.41-.94,0-.31.2-.76.45-.9.26-.14.75-.08,1.02.08.4.24.68.66.55,1.36Z"/>
      </g>
      <g>
        <path class="cls-1" d="M387.94,313.85l3.73-.63v-.14c0-4.02-3.96-3.36-6.89-4-4.13-.9-17.03,4.7-21.46,6.24-5.73,2-15.09,5.01-20.91,2.4-7.39-3.42-18.66-9.39-26.71-5.12-3.99,2.12-11.67,6.94-16.08,6.96-3.78.01-8.56-2.95-11.79-4.8-6.58-3.76-17.79-2.05-24.46.84-6.05,2.63-14.67,6.32-20.57,1.49-1.66-1.35-2.97-2.93-4.8-4.1-2.53-1.62-5.39-2.04-8.35-1.95-2.92.09-7.38-.17-10.1.61-1.21.35-2.35.98-3.44,1.58-2.24,1.21-4.47,2.41-6.73,3.55-10.9,5.5-20.56-.08-30.27-5.12-4.29-2.23-15.44,1.43-18.88,4.46-7.15,6.29-22.75,5.44-30.26.17-3.42-2.41-14.79-3.15-18.25-.66-3.94,2.83-8.62,3.72-12.93,5.72-4.22,1.96-10.62,1.68-14.06-1.69-2.44-2.38-3.75-2.38-6.69-3.65-.31-.14-.63-.29-.93-.48-10.1-6.37-24.15,9.2-34.66,6.58-1.6-.4-3.4-.23-5.06-.49-2.78-.45-5.12-1.71-7.29-3.47-2.21-1.77-3.4-1.35-5.61-2.48-4.48-2.3-9.52-2.65-14.37-3.71-1.74-.37-4.85-.35-6.58.06-4.61,1.1-4.96,5.96.47,4.65,15.1-3.63,26,10.86,37.08,9.59.23-.03.45-.04.68-.05,1.65-.05,3.28.26,4.93.17,2.77-.14,5.39-1.09,7.85-2.33,9.22-4.61,18.8-8.97,27.72-1.07,5.1,4.52,11.03,5.5,17.31,2.82,3.39-1.45,10.95-3.86,13.49-6.12,3.33-2.98,11.96-.85,15.22,1.53,3.5,2.56,11.65,3.83,15.9,3.13,1.28-.21,2.42-.17,3.71-.09,5.86.38,11.94-3.69,16.71-6.7,6.87-4.33,16.2-1.36,22.15,3.22,3.22,2.47,10.47,3.06,14.42,2.62,9.99-1.11,14.44-8.62,25.93-8.16,7.07.28,8.79,1.76,13.95,6.25,3.24,2.82,6.44,1.73,10.32,1.68,2.84-.04,6.44-1.46,9.07-2.52,2.4-.97,7.94-3.64,10.28-3.68,3.09-.05,9.54-.54,12.26.47,1.06.4,2.05,1.04,3.02,1.62,1.94,1.15,3.9,2.23,5.91,3.22,10.27,5.11,17.51-3.87,26.54-7.01,9.06-3.15,22.28,11.39,33.77,7.58,4.83-1.45,9.79-2.39,14.64-3.8,2.37-.69,4.32-1.88,6.42-3.12,5.11-2.99,8.93-3.24,14.65-2.09h.03Z"/>
        <path class="cls-1" d="M364.02,324.14l-.47.17c-.45.16-.68.63-.56,1.08l.15.55c.13.48.61.76,1.09.63l.33-.08c.39-.11.66-.46.66-.87v-.64c0-.3-.13-.56-.38-.74-.25-.17-.54-.21-.82-.11h0ZM358.49,326.01c-3.46,1.02-7.17,1.79-10.61,1.67-.44-.01-.82.29-.9.72l-.17.8c-.05.27,0,.53.18.74.17.22.41.33.69.34,3.78.06,7.69-1.42,11.34-2.39.24-.06.43-.2.55-.42.12-.22.15-.44.08-.68l-.04-.14c-.06-.24-.2-.43-.43-.55-.21-.12-.45-.15-.69-.07h0ZM342.86,326.73c-9.6-3.31-16.86-9.72-27.32-4.83-.42.2-.62.67-.47,1.1l.34.96c.08.24.24.42.47.52.23.11.47.11.71.01,9.51-3.88,16.53,2.01,25.55,4.75.25.08.49.05.72-.09.23-.14.37-.34.43-.59l.16-.82c.09-.44-.16-.88-.58-1.03h0ZM310.66,324.21c-3.51,1.56-7.2,3.12-10.33,3.1-6.14-.04-11.35-3.22-17.16-4.74-.26-.07-.51-.03-.73.12-.22.15-.35.36-.38.63l-.08.63c-.05.45.21.86.65.98,12.03,3.35,15.95,8.11,29.12,1.87.41-.2.6-.67.46-1.1l-.33-.96c-.09-.25-.25-.43-.49-.53-.24-.11-.48-.1-.73,0h0ZM277.76,321.54c-.52-.06-1.03-.12-1.55-.15-.25-.02-.47.06-.66.22-.2.17-.3.38-.31.63l-.03.69c0,.25.06.47.23.65.18.18.39.28.63.29.47.01.94.04,1.41.09.47.04.9-.3.97-.78l.07-.62c.04-.24-.03-.47-.17-.66-.15-.2-.35-.31-.6-.34h0ZM270.61,321.52c-9.19,1.45-19.99,11.01-28.33,4.06-10.61-8.84-21.37-6.42-32.6-.75-4.8,2.42-10.34,4.48-14.36,3.53-6.18-1.46-10.99-6.1-17.63-7.09-15-2.23-28.12,12.53-43.34,6.75-3.95-1.5-5.26-3.99-8.82-5.01-.27-.08-.54-.04-.77.13-.22.17-.35.4-.37.69l-.06,1.31c-.02.42.24.78.64.9,1.44.42,2.87,1.11,4.28,2.14,20.74,15.58,37.37-14.31,58.47-.44.02.01.03.02.05.04,12,9.18,27.68-5.84,39.7-5.78h.04c7.3.3,9.21,1.84,14.58,6.51,6.76,5.89,20.69-2.66,28.78-4.24.41-.08.71-.42.73-.84l.05-.98c0-.28-.09-.52-.3-.71-.2-.19-.46-.26-.74-.22h0ZM119.8,322.68c-12.23,1.57-25.5,15.25-35.47,5.54-2.36-2.3-4.75-3.62-7.16-4.26-.27-.07-.54-.02-.76.15-.23.17-.35.41-.36.69l-.02.46c0,.41.25.77.64.88,2.21.67,4.42,1.9,6.65,3.87,11.75,10.42,24.54-3.53,36.62-4.46.45-.03.8-.4.83-.85l.05-1.08c0-.27-.08-.51-.29-.7-.2-.19-.45-.26-.73-.23h0ZM71.34,323.58c-11.57,1.1-19.17,8.89-31.83,6.66-.24-.04-.46,0-.67.15-.21.14-.33.34-.37.58l-.11.63c-.09.48.24.95.72,1.04,13.57,2.49,20.13-6.51,32.28-6.78.43,0,.79-.31.86-.74l.08-.49c.05-.29-.03-.55-.23-.76-.19-.21-.46-.31-.73-.28h0ZM34.41,328.98c-1.33-.46-2.7-1.09-4.33-2.08-.25-.15-.53-.17-.8-.07-.27.11-.45.32-.53.6l-.24.87c-.11.42.09.86.48,1.04,1.46.69,3.07,1.33,4.75,1.89.26.08.51.06.74-.08.23-.14.38-.35.42-.61l.1-.56c.07-.44-.17-.86-.59-1h0ZM24.96,324.69c-.41-.17-.81-.37-1.22-.56-.28-.14-.6-.12-.87.05-.26.17-.41.44-.41.76v.68c0,.36.18.66.51.81l1.09.52c.25.11.52.11.76,0,.25-.12.42-.32.49-.58l.17-.62c.11-.44-.12-.89-.53-1.06Z"/>
        <path class="cls-1" d="M351.51,335.42c-.58.07-1.15.13-1.73.16-.39.03-.71.28-.81.65l-.24.85c-.08.3-.02.6.19.83.2.23.48.34.79.3.72-.09,1.43-.24,2.14-.43.39-.11.66-.46.66-.86v-.61c0-.26-.1-.49-.3-.67-.2-.18-.45-.25-.7-.22h0ZM344.54,335.25c-1.52-.33-3.05-.86-4.59-1.49-.24-.1-.49-.1-.73.02-.24.12-.41.32-.47.57l-.23.86c-.12.45.11.9.55,1.07,1.62.61,3.24,1.15,4.86,1.52.46.11.93-.17,1.06-.63l.23-.8c.07-.25.04-.49-.09-.71-.13-.22-.33-.36-.58-.41h0ZM335.03,331.5c-4.11-1.95-8.26-3.82-12.54-3.71-.27,0-.5.12-.67.32-.18.2-.24.45-.2.72l.2,1.23c.07.43.42.74.86.76,3.54.14,7.39,1.72,11.32,3.39.25.11.5.1.75-.02.24-.12.41-.31.47-.57l.29-1.07c.11-.42-.1-.85-.48-1.04h0ZM316.89,329.79c-12.05,4.99-15.63,10.62-29.04,2.96-6.53-3.73-13.95-3.17-21.08-.74l.11.32c.14.46.61.72,1.08.6,9.03-2.35,14.92-.66,24.77,4.24,9.23,4.59,16.76-2.17,24.94-5.4.44-.17.66-.65.53-1.09l-.09-.32c-.09-.25-.24-.44-.47-.55-.24-.11-.5-.12-.74-.02h0ZM263.37,333.19l-2.88,1.01.05.18c.07.25.23.44.46.56.23.12.48.13.72.03.4-.15.79-.3,1.17-.44.46-.17.69-.66.55-1.12l-.07-.22h0ZM257.07,335.29c-6.01,1.74-11.65,2.26-16.38-1.68-11.51-9.58-20.56-5.86-32.07-.05-17.75,8.95-31.48-15.65-47.78-1.42-.06.05-.12.09-.19.12-3.9,1.95-5.52,2.81-8.37,3.27-.42.07-.73.42-.75.85l-.02.35c0,.29.1.55.33.74.23.18.52.24.8.17,4.12-1.13,8.06-2.81,11.75-5.13,12.69-8.01,23.55,7.19,37.01,5.69,10.22-1.14,12.19-8.66,24.5-8.17,7.32.29,9.23,1.84,14.6,6.51,3.58,3.11,10.78,1.93,16.09.31.46-.14.74-.64.6-1.11l-.12-.44h0ZM147.11,336.88c-.85.09-1.76.24-2.55.22-.4-.01-.75.23-.87.61l-.11.28c-.1.3-.05.6.16.85.19.24.48.36.79.33.94-.1,1.87-.23,2.79-.38.38-.06.66-.34.73-.71l.03-.12c.06-.29-.02-.56-.21-.78-.2-.22-.46-.32-.75-.29h0ZM139.54,335.88c-9.81-3.03-18.31-7.59-26.86-3.57-4.65,2.17-10.92,6.06-17.26,6.82-.41.05-.72.36-.78.77l-.11.75c-.04.29.06.56.26.76.21.21.49.29.78.24,8.38-1.44,16.01-8.79,25.07-8.47,6.3.22,11.81,4.61,17.96,5.85.45.09.88-.16,1.03-.59l.48-1.41c.07-.24.06-.47-.06-.7-.11-.22-.29-.38-.53-.45h0ZM90.26,339.07c-2.28-.37-4.31-1.26-5.93-2.83-9.74-9.49-21.73-2.2-33.68,1.18-.45.12-.71.56-.64,1.01l.06.35c.05.26.19.47.41.61.23.14.47.17.73.1,11.34-3.39,22.27-10.18,32.11-1.47,2.17,1.92,4.33,3.02,6.49,3.52.25.06.49.01.71-.14.22-.15.34-.36.38-.62l.11-.72c.06-.48-.27-.92-.75-1h0ZM45.5,338.58c-1.26.2-2.51.31-3.75.33-.47,0-.86.37-.88.83l-.04.42c-.02.26.06.49.24.68.17.19.4.29.66.28,1.37,0,2.75-.14,4.13-.36.24-.04.44-.16.58-.36.14-.2.2-.43.15-.67l-.07-.41c-.08-.48-.54-.81-1.02-.74h0ZM36.63,338.33c-.29-.08-.57-.16-.86-.24-.28-.09-.56-.04-.79.14-.24.17-.37.43-.37.72v.33c0,.39.24.73.63.85.3.1.61.2.92.28.27.07.53.03.75-.13.23-.16.36-.39.38-.67l.03-.34c.03-.44-.25-.83-.68-.93Z"/>
      </g>
    </g>
  </g>
</svg>