<?xml version="1.0" encoding="UTF-8"?>
<svg id="Layer_2" data-name="Layer 2" xmlns="http://www.w3.org/2000/svg" viewBox="0 0 407.14 267.8">
  <defs>
    <style>
      .cls-1 {
        fill: #6d442f;
        fill-rule: evenodd;
      }
    </style>
  </defs>
  <g id="_Layer_" data-name="&amp;lt;Layer&amp;gt;">
    <g>
      <g>
        <path class="cls-1" d="M68.15,157.11l-.17.29.29.02-.11-.31h0ZM223.59,103.5c-.09.02-.23.01-.26.07-.06.1-.13.28-.08.35.19.29.39.26.47-.09.02-.1-.08-.22-.13-.33h0ZM238.25,70.15l-.1-.29-.09.29h.19ZM263.09,183.61c.18-.32.14-.5-.12-.47-.05,0-.08.23-.07.34,0,.05.13.09.2.13h0ZM232.2,188.51l-.23-.02.07.35.16-.33h0ZM249.71,168.18c-.12.05-.31.06-.35.15-.12.22-.21.48-.24.73,0,.11.12.29.22.34.29.11.84-.34.84-.75,0-.16-.31-.31-.46-.47h0ZM100.48,157.05c-.12.06-.24.12-.35.18.06.11.11.26.2.32.23.14.47.23.7.35.31.16.59.1.62-.21.02-.17-.22-.44-.42-.55-.21-.11-.5-.07-.76-.1h0ZM231.34,156.8c.32-.12.64-.15.75-.33.1-.14.05-.53-.08-.68-.27-.26-.62-.49-.98-.61-.18-.06-.55.11-.66.29-.1.15-.06.54.06.68.26.28.63.46.91.64h0ZM217.76,142.44c-.09-.24-.12-.6-.3-.69-.16-.09-.55.02-.71.18-.31.29-.08.87.37.87.22,0,.43-.23.64-.36h0ZM243.33,179.04c-.21-.16-.31-.28-.41-.29-.12-.02-.31.01-.37.1-.25.31-.5.63-.66.99-.08.18.02.46.05.69.23-.06.56-.03.66-.17.3-.41.5-.89.74-1.32h0ZM220.01,148.57c-.25.15-.46.21-.46.28-.04.53.62,1.18,1.35,1.3.08.02.23-.14.29-.25.05-.12.07-.34,0-.39-.39-.34-.81-.66-1.17-.93h0ZM251.61,208.36c.03-.24.11-.48.06-.7-.05-.27-.7.1-.89.55-.05.13-.14.27-.11.39.06.24.17.48.25.72.11-.07.26-.12.33-.22.14-.23.24-.48.36-.74h0ZM240.15,177.24c-.11-.24-.15-.6-.33-.68-.16-.07-.51.1-.67.27-.16.17-.23.46-.29.71,0,.1.07.31.16.32.24.05.53.13.7.03.2-.13.29-.43.43-.65h0ZM249.29,176.29c-.11-.11-.18-.25-.29-.29-.11-.05-.32-.04-.39.04-.36.38-.73.76-1.01,1.2-.09.15,0,.55.15.69.14.13.56.18.69.07.48-.45.86-.99.86-1.71h0ZM239.75,157.87c-.39-.88-1.13-1.48-2.12-1.71-.09-.02-.23.09-.33.18-.07.08-.17.23-.13.3.4.93,1.05,1.58,2.09,1.7.11.01.26-.08.34-.16.07-.08.09-.21.14-.32h0ZM245.38,175.3c.82-.13.88-.96,1.31-1.46.23-.28.13-.54-.2-.64-.1-.03-.25.1-.36.18-.52.44-1,.93-1.06,1.66,0,.08.2.17.31.26h0ZM231.1,147.83c-.02-.11,0-.26-.07-.34-.47-.48-.95-.97-1.47-1.39-.12-.09-.48.09-.71.18-.02,0,0,.24.05.33.46.68.96,1.33,1.87,1.41.11.01.22-.13.33-.2h0ZM254.39,194.23c.13-.04.29-.04.4-.11.6-.45.8-1.09.65-1.8-.03-.16-.41-.41-.53-.36-.86.34-1.11,1.01-.78,1.98.04.11.18.19.26.29h0ZM242.62,172.81c.13-.06.3-.09.37-.19.4-.56.81-1.11,1.14-1.72.1-.17-.06-.49-.11-.74-.12.02-.29.01-.34.09-.48.65-.95,1.32-1.4,2-.05.08,0,.27.07.37.06.08.18.12.27.19h0ZM244.16,47.02c.35-.87,1.39-1.51.79-2.67-.4.86-1.33,1.53-.79,2.67h0ZM234.75,183.87c.11,0,.27.02.33-.04.54-.61,1.08-1.21,1.55-1.86.09-.13-.04-.56-.21-.69-.11-.09-.57,0-.66.15-.44.68-.82,1.39-1.2,2.1-.04.06.12.23.19.34h0ZM228.74,150.49c.02-.12.07-.26.03-.35-.38-.81-1.08-1.3-1.87-1.62-.19-.08-.6.07-.72.25-.12.14-.08.57.06.72.59.62,1.25,1.15,2.17,1.22.1,0,.23-.15.34-.23h0ZM255.66,185.67c-.1-.33-.15-.75-.36-1.07-.22-.33-.58-.62-1.04-.45s-.67.88-.39,1.39c.13.24.3.47.52.61.22.14.55.26.76.19.2-.06.31-.39.51-.67h0ZM227.22,195.95c.14,0,.35.03.39-.04.44-.55.86-1.09,1.21-1.69.1-.17-.09-.51-.16-.77-.11.05-.24.06-.34.14-.64.56-1.27,1.14-1.37,2.05,0,.1.17.21.27.32h0ZM223.44,201.93c.11,0,.25.04.34,0,.88-.56,1.38-1.39,1.58-2.4,0-.09-.17-.24-.28-.31-.11-.05-.28-.08-.38-.04-.97.5-1.35,1.38-1.47,2.4,0,.12.14.24.21.35h0ZM253.76,12.98c-.66-.19-1.27.3-1.38,1.18-.02.23.14.57.33.71.17.12.54.14.75.05.57-.24.82-.75.76-1.34-.02-.21-.29-.39-.46-.59h0ZM72.71,156.16c.1.12.24.33.28.31,1.14-.54,1.98-1.41,2.63-2.48,0-.02-.21-.27-.28-.25-1.32.33-1.96,1.4-2.63,2.43h0ZM251.38,179.5c-.59.26-.97.91-.92,1.61.05.55.67,1.21,1.03.99.31-.19.61-.49.76-.8.24-.52.08-1.04-.19-1.53-.17-.29-.35-.4-.68-.27h0ZM252.63,188.48c-.29-.1-.77-.41-.96-.29-.75.49-1.12,1.24-.97,2.16.02.12.1.31.2.34.24.06.58.17.74.06.68-.53,1.16-1.19.98-2.27h0ZM248.44,215.65c.21-.17.46-.32.63-.53.16-.22.25-.5.32-.76.15-.61-.04-1.08-.61-1.41-.19-.11-.57-.07-.75.06-.47.33-.75.83-.64,1.45.11.59.53.95,1.06,1.2h0ZM212.71,152.2c-.2-.7-.61-1.09-1.17-1.22-.57-.13-1.09.04-1.48.54-.29.39-.09.9.57,1.34.22.16.47.31.74.37.26.05.64.07.78-.08.28-.27.41-.67.57-.94h0ZM219.43,152.7c0-.3.03-.46-.04-.57-.55-.87-1.32-1.42-2.37-1.52-.1,0-.25.12-.33.22-.06.1-.12.26-.08.37.29,1.01.94,1.72,1.94,1.98.26.06.63-.34.88-.5h0ZM224.64,151.36c-.13.11-.31.19-.33.3-.03.26-.07.59.05.76.62.84,1.56,1.22,2.48,1.58.19.07.59-.11.72-.29.12-.16.1-.58-.03-.74-.77-.89-1.75-1.44-2.9-1.61h0ZM247.73,197.03c.14-.02.31,0,.4-.06.79-.62,1.31-1.41,1.49-2.41.04-.24-.07-.52-.15-.79-.1-.34-.37-.46-.67-.27-1.09.72-1.74,1.73-1.65,3.08,0,.16.37.3.57.44h0ZM221.27,144.29c-.13.08-.29.13-.33.23-.12.23-.28.54-.21.73.38.92,1.02,1.62,1.99,1.92.19.06.55-.12.71-.28.17-.17.35-.52.27-.72-.4-1.14-1.36-1.61-2.44-1.88h0ZM242.58,205.97c-.17-.18-.4-.54-.73-.75-.17-.11-.57-.03-.76.1-.64.4-1.02,1.05-1.09,1.75-.03.33.36.74.64,1.03.29.31.84.23,1.14-.09.5-.52.9-1.08.79-2.05h0ZM256.45,7.5c.12-.32.3-.7.43-1.1.03-.08-.1-.3-.2-.33-.24-.07-.6-.19-.74-.08-1.15.92-1.74,2.14-1.74,3.61,0,.16.35.42.59.46.23.04.55-.06.73-.22.71-.58.73-1.46.93-2.34h0ZM216.67,212.73c-.11-.06-.22-.17-.33-.18-.13,0-.32.04-.39.14-.98,1.2-1.81,2.49-2.4,3.93-.06.13-.07.29-.03.42.03.12.12.28.23.33.1.06.33.05.39-.02,1.11-1.27,2.01-2.68,2.63-4.25.03-.1-.08-.25-.11-.37h0ZM232.39,196.61c-.23-.23-.47-.58-.8-.75-.17-.1-.58-.02-.75.13-.75.69-1.14,1.57-1.15,2.59,0,.3.65.89.87.77,1.05-.57,1.71-1.4,1.83-2.75h0ZM218.75,209.65c.13,0,.32.06.4,0,1.07-.9,1.87-1.99,2.2-3.38.05-.23-.1-.51-.19-.76-.03-.06-.23-.15-.29-.12-1.34.86-2.09,2.13-2.53,3.62-.05.16.25.42.4.65h0ZM89.54,151.14c1.97,1.19,3.76,1.49,5.52,1.89.24.06.54-.07.8-.15.12-.05.24-.17.29-.29.13-.33.03-.58-.28-.63-1.92-.3-3.78-1.04-6.34-.81h0ZM246.11,200.09c-.17-.24-.28-.57-.48-.65-.21-.07-.63,0-.75.15-.59.79-1.17,1.61-1.62,2.48-.09.17.34.71.63.96.14.12.6.1.76-.04.89-.75,1.49-1.69,1.45-2.9h0ZM226.24,205.59c.36-.04.7.02.88-.11.92-.71,1.48-1.69,1.77-2.78.06-.27-.31-.72-.57-.97-.14-.12-.59-.09-.76.05-.9.71-1.54,1.63-1.75,2.77-.05.32.29.71.44,1.04h0ZM233.22,192.8c.17.23.3.46.49.64.28.26.86.12,1.09-.23.3-.46.61-.92.87-1.41.48-.86.45-1.47-.03-1.9-.51-.46-1.36-.05-1.93.96-.21.36-.38.75-.49,1.15-.07.24,0,.53,0,.78h0ZM244.85,184.53c.24-.07.58-.07.68-.22.44-.71.88-1.44,1.16-2.21.09-.25-.28-.73-.54-.99-.14-.12-.62-.11-.75.03-.47.5-.92,1.04-1.27,1.62-.31.53.14,1.53.73,1.78h0ZM236.85,186.36c.05.18.04.35.11.45.16.22.33.49.56.56.22.06.6,0,.77-.16.81-.81,1.49-1.72,1.68-2.89.05-.21-.2-.48-.36-.69-.06-.07-.3-.07-.41-.02-1.28.51-2.07,1.43-2.35,2.75h0ZM235.75,199.99c-.19-.24-.41-.6-.73-.83-.17-.12-.55-.13-.77-.04-.8.39-1.18,1.15-1.49,1.93-.16.41.19,1.05.69,1.4.45.31.84.09,1.12-.18.61-.59,1.1-1.27,1.17-2.28h0ZM208.07,153.82c-1.65,1.73-1.72,2.3-.62,3.5.29.3.65.55.98.8.32.24.8.07,1.07-.37.3-.5.55-1.01.17-1.58-.47-.7-.96-1.4-1.61-2.35h0ZM247.6,206.63c.25-.07.58-.06.77-.22.67-.56.99-1.33,1.1-2.19.09-.61-.17-1.07-.63-1.46-.36-.3-1.02-.12-1.4.48-.37.58-.7,1.21-.96,1.85-.22.53.46,1.43,1.12,1.54h0ZM244.58,212.3c.14,0,.31.08.41.02,1.11-.58,1.79-2.15,1.13-3.17-.62-.92-1.76-.92-2.36.07-.14.23-.28.48-.38.74-.31.86.27,1.96,1.21,2.34h0ZM106.54,158.91c-.26.21-.45.27-.47.38-.06.24-.15.63-.04.73,1.25.96,2.66,1.58,4.25,1.75.37.05.92-.39.87-.75-.04-.24-.15-.56-.34-.68-1.36-.8-2.9-1.03-4.27-1.42h0ZM237.36,205.69c.27-.05.63-.03.77-.19.45-.52.87-1.08,1.15-1.69.28-.59-.06-1.26-.74-1.79-.4-.3-.82-.23-1.14.02-.67.53-1.14,1.21-1.23,2.11-.05.6.57,1.43,1.18,1.54h0ZM246.87,191.08c.05-.31-.41-1.03-.9-1.19-.45-.15-.82.01-1.09.39-.4.58-.83,1.15-1.12,1.79-.15.34-.18.85-.05,1.21.12.36.45.7.77.91.44.3.81-.03,1.09-.35.63-.76,1.2-1.58,1.3-2.75h0ZM250.28,185.5c-.22-.41-.35-.81-.61-1.12-.43-.52-1.08-.51-1.44-.05-.61.78-1.21,1.6-1.01,2.66.08.35.45.67.74.95.27.26.87.13,1.09-.23.42-.71.8-1.44,1.23-2.2h0ZM79.78,156.02c-1.58,1.57-3.16,3.18-4.78,4.74-.11.1-.58,0-.72-.15-.12-.16-.14-.61,0-.74,1.63-1.54,3.09-3.32,5.22-4.25.02,0,.15.2.29.4h0ZM242.3,227.18c.38-.58.67-1.22.84-1.91.06-.3-.22-.85-.52-1.05-.29-.2-.91-.3-1.16-.12-.83.6-1.34,1.42-1.63,2.34l-4.85-1.47-4.44,2.12c.45-.74.8-1.53,1.1-2.35.05-.13.04-.28.05-.42-.11-.26-.16-.58-.34-.76-.91-.89-1.84-1.76-2.8-2.6-1.82-1.6-2.29-1.53-3.58.51-.62.96-1.17,1.95-1.72,2.94-.36.65-.14,1.52.45,1.86,1.28.75,2.56,1.5,3.85,2.24l-2.3,1.04c-.89-.52-1.79-1.03-2.7-1.53-.56-.32-1.09-.12-1.59.22-.23.15-.48.26-.75.35-.33.11-.58-.05-.63-.4-.12-.83.02-1.81-.38-2.47-.49-.82-1.41-1.38-2.18-2.01-.44-.36-.93-.66-1.41-.97-.81-.53-1.51-.4-2.22.47-.45.54-.77,1.17-1.08,1.66.11.3.13.46.22.57,2.09,2.53,4.45,4.76,7.07,6.68l-2.23,1.01c-.67-.52-1.32-1.08-1.96-1.65-1.26-1.14-2.68-2.12-4.04-3.14-.4-.3-1.2-.15-1.55.28-.45.55-.8,1.17-1.29,1.68-.55.58-1.23.68-1.91.17-.12-.09-.24-.21-.36-.21-.25,0-.55.03-.75.16-.33.22-.41.88-.22,1.17.15.23.26.51.47.69.91.83,1.84,1.63,2.78,2.43l-3.78.21c-.86-.57-1.46-.81-2-.49l-2.94-1.21c1.16-1.96,2.35-3.91,3.71-5.75,1.01-1.38,1.77-2.93,2.64-4.41.66-1.11,1.24-2.26,1.95-3.33,2.59-3.95,5.05-7.96,7.29-12.12.27-.51.56-1.02.91-1.45,2.29-2.77,4.16-5.8,5.9-8.93.28-.5.6-.98.94-1.44,4.66-5.99,8.56-12.47,12.64-18.85,2.24-3.5,4.65-6.87,6.99-10.29.65-.94,1.35-1.85,1.99-2.8,1.08-1.58.9-2.71-.64-4.07-.23-.21-1-.15-1.16.12-2.39,4.24-5.7,7.84-8.06,12.12-1.79,3.23-4.2,6.11-6.26,9.2-2.55,3.8-5.02,7.65-7.52,11.47-.24.36-.41.78-.69,1.08-2.11,2.18-3.38,4.94-5.16,7.32-2.22,3-3.95,6.29-6.06,9.36-2.42,3.53-4.51,7.28-7,10.77-2.38,3.31-4.51,6.8-6.63,10.28l-2.86-1.18c1.71-2.87,3.58-5.64,5.43-8.43,1.66-2.51,3.42-4.94,5.06-7.44,1.65-2.51,3.22-5.06,4.83-7.6,2.35-3.74,4.75-7.47,7.5-10.95.35-.45.72-.9,1.02-1.38,1.6-2.54,3.18-5.08,4.76-7.63.28-.46.12-1.09-.38-1.51-.34-.27-.69-.51-1.05-.74-.49-.29-1.24-.16-1.57.26-1.02,1.37-2.03,2.75-3.06,4.13-4.52,6.08-9.3,11.97-13.35,18.38-3.29,5.2-7.17,9.97-10.61,15.06l-3.98,5.9-2.22-.79c1.67-2.43,3.32-4.87,4.97-7.3.15-.22.19-.52.23-.8,0-.1-.11-.25-.22-.33-.08-.07-.25-.11-.34-.07-1.08.52-1.36,1.79-2.3,2.46-.45.33-1.18.56-1.57.36-.39-.2-.59-1.05-.36-1.55.38-.75.81-1.5,1.14-2.27.07-.17-.11-.57-.3-.7-.17-.13-.6-.19-.76-.07-.46.32-.88.72-1.22,1.16-.59.79-1.12,1.65-1.72,2.44-.12.16-.51.17-.78.17-.42,0-.79-.44-.76-.86.04-.42,0-.89.19-1.23.59-1.13,1.29-2.19,1.89-3.32.08-.14-.17-.55-.36-.69-.17-.13-.61-.2-.73-.08-.52.47-1.07.97-1.41,1.57-1.08,1.85-2.19,3.67-3.58,5.32-.35.42-.8.8-1.26,1.13-.4.3-.8.11-1.15-.17-.4-.32-.34-.75-.2-1.15.11-.26.22-.56.42-.74,1.86-1.65,2.88-3.88,4.1-5.97.63-1.07.47-1.84-.4-2.66-.31-.3-.66-.56-.99-.83-.48-.39-1.09-.31-1.46.19-2.28,3.11-4.55,6.22-6.79,9.35-.23.31-.21.79-.31,1.2-.11.01-.23,0-.31.06-.05.04-.04.16-.05.24.1-.12.2-.25.3-.37.15.02.29.07.43.06,1.29-.15,2.14.27,2.61,1.61.67,1.91,1.93,3.37,3.62,4.36l-1.65.21-16.37,8.8-2.59-.25c1.9-3.11,3.82-6.21,6.06-9.12,2.35-3.05,4.53-6.23,6.87-9.3,4.25-5.55,8.4-11.2,11.29-17.65.34-.78.7-1.57,1.18-2.28,3.95-5.95,7.55-12.13,12.07-17.69,2.33-2.88,4.23-6.1,6.32-9.17.26-.39.04-1.19-.4-1.54-.94-.76-2.05-.8-2.66.05-1.74,2.44-3.58,4.83-5.1,7.4-3.16,5.29-6.77,10.26-10.22,15.33-5.38,7.92-10.68,15.88-16.02,23.82-1.6,2.38-3.19,4.75-4.79,7.12-2.4,3.55-4.61,7.22-6.78,10.92-.36.62-.75,1.22-1.18,1.78l-3.45-.34-.61-.23c3.04-3.45,5.28-7.48,7.93-11.21,2.14-3.01,4.28-6.05,6.25-9.18,2.82-4.49,5.85-8.8,8.77-13.21.47-.71.96-1.42,1.49-2.1,3.45-4.39,6.47-9.07,9.5-13.75,1.01-1.56,2.1-3.06,3.11-4.62,1.15-1.8,2.26-3.63,3.41-5.46.52-.84,1.03-1.7,1.6-2.52,3.07-4.3,6-8.71,9.35-12.81,1.54-1.88,2.92-3.89,4.38-5.83.95-1.25,1.95-2.46,2.88-3.73.92-1.27,2-2.48,2.6-3.9,1.31-3.08,3.25-5.71,5.24-8.32.42-.54.69-1.21.94-1.87.06-.17-.16-.55-.35-.7-.18-.15-.53-.21-.77-.17-.26.05-.55.23-.71.43-.98,1.22-2.03,2.42-2.89,3.72-3.08,4.67-6.55,9.01-10.31,13.15-1.62,1.8-3.27,3.6-4.54,5.69-.14.23-.39.41-.63.56-.38.25-.83.22-1.17-.05-.2-.16-.35-.45-.4-.7-.05-.26-.04-.59.1-.82.41-.74.81-1.52,1.37-2.15,2.42-2.81,4.9-5.57,7.38-8.35.58-.64,1.09-1.35,1.78-1.86,2.02-1.5,3.24-3.51,4.22-5.78.8-1.83,1.83-3.54,2.71-5.33.08-.17-.12-.57-.29-.73-.17-.15-.62-.27-.75-.17-2.5,2.16-4.91,4.49-6.37,7.43-1.56,3.12-3.57,5.85-5.81,8.44-1.79,2.06-3.34,4.27-4.88,6.51-2.01,2.94-4.1,5.85-6.19,8.74-.41.57-.98,1.03-1.48,1.53-.29.28-.91.24-1.14-.06-.29-.36-.35-.8-.09-1.17,1.41-1.97,2.84-3.94,4.29-5.87,1.03-1.37,2.08-2.7,2.89-4.24.73-1.38,1.68-2.66,2.63-3.91,1.37-1.82,2.84-3.58,4.26-5.37,2.15-2.69,3.87-5.63,5.34-8.73.06-.11,0-.28,0-.42.55,0,.81-.35.97-.82.97-.53,1.55-1.36,1.86-2.41.8-.38,1.34-1,1.64-1.83.12-.31.02-.55-.31-.63-.12-.04-.32-.04-.42.03-.66.56-1.1,1.26-1.22,2.14-.97.67-1.6,1.52-1.47,2.77-.54.01-.8.37-.97.82-2.02,1.6-3.62,3.61-5.17,5.66-1.03,1.36-2.11,2.7-3.15,4.06-3.31,4.3-6.76,8.5-9.65,13.11-1.22,1.93-2.52,3.81-3.82,5.69-2.19,3.16-4.56,6.22-6.35,9.66-3.54,4.67-6.21,9.92-9.65,14.67-2.18,3-4.19,6.11-6.28,9.17-.16.24-.33.47-.53.68-2.88,3.02-4.81,6.73-7.29,10.05-.76,1.02-1.45,2.13-2.32,3.05-1.2,1.26-2.18,2.61-3.11,4.08-2.36,3.74-4.78,7.44-7.5,10.95-1.03,1.32-1.78,2.84-2.68,4.26l-3.49-.75c.34-.66.68-1.31,1.03-1.97,2.08-3.92,4.5-7.62,7.19-11.15.27-.34.49-.7.74-1.06,1.74-2.64,1.91-3.37-1.26-5.46-.83-.55-1.71-1.02-2.55-1.57-4.42-2.9-8.89-5.73-13.22-8.76-5.74-4.02-11.71-7.69-17.63-11.43-.48-.3-1.03-.52-1.47-.87-5.13-4.18-11.05-7.1-16.64-10.55-3.28-2.02-6.55-4.11-9.59-6.47-3.29-2.54-6.89-4.61-10.3-6.95-2.24-1.54-4.6-2.89-6.9-4.34-1.07-.67-2.15-.76-3.21-.03-1.77,1.21-3.54,2.36-5.52,3.27-1.39.64-2.6,1.74-3.82,2.74-4.54,3.72-9.31,7.1-14.2,10.34-.6.39-1.16.82-1.74,1.25-2.77,2.02-5.56,4.01-8.46,5.85-2.4,1.54-4.83,3.01-6.91,5.03-1.32,1.27-2.98,2.21-4.56,3.18-1.71,1.04-3.42,2.07-4.94,3.39-1.64,1.44-3.62,2.19-5.75,2.7-.6-1.25-.43-2.37.18-3.37.74-1.22,1.64-2.34,2.44-3.52.31-.47.57-.98.83-1.49.04-.07-.06-.22-.09-.33-1.07-.44-1.86.53-2.85.57-1.05.05-1.98-.15-2.78-.85-.39-.33-.52-1.19-.18-1.56.46-.52.92-1.08,1.47-1.52,1.68-1.34,3.4-2.62,5.08-3.95,1.01-.8,2.07-1.55,2.94-2.49,2.45-2.64,5.37-4.69,8.21-6.85,2.85-2.17,5.74-4.26,8.48-6.55,3.95-3.31,8.13-6.3,12.45-9.11,2.89-1.88,5.44-4.18,7.83-6.64.38-.39.37-1.18,0-1.57-1.68-1.75-3.52-3.32-5.58-4.65-1.92-1.23-3.77-2.58-5.64-3.9-1.05-.75-2.06-1.55-3.12-2.27-2.36-1.62-4.67-3.27-6.9-5.06-3.01-2.42-6.35-4.39-9.67-6.34-1.97-1.16-3.96-2.28-5.91-3.49-.45-.28-.79-.78-1.15-1.21-.31-.39.04-1.31.49-1.44.85-.26,1.72-.29,2.52.04,1.33.53,2.63,1.12,3.87,1.81,3.26,1.79,6.72,3.17,10.08,4.73,2.73,1.27,5.55,2.24,8.36,3.27.51.18,1.07.28,1.53-.2-.16-.77-.82-1.14-1.31-1.64-.4-.4-.78-.82-1.14-1.26-.41-.51,0-1.52.65-1.73.86-.26,1.71-.23,2.52.13.65.29,1.23.71,1.87,1.04,1.93.95,3.82,1.95,5.78,2.81,1.7.74,3.42,1.43,5.39,1.01.89-.19,1.64.42,2.25,1.05,2.19,2.29,4.87,3.96,7.47,5.73.71.48,1.46.88,2.22,1.28,1.08.57,2.17.53,3.28-.02,3.59-1.77,7.22-3.41,10.68-5.45,8.99-5.29,17.94-10.64,27.11-15.62,7.29-3.97,14.41-8.17,21.41-12.64,1.92-1.22,3.9-2.41,5.99-3.31,2.79-1.2,5.33-2.76,7.75-4.54,4.17-3.04,8.75-5.43,12.97-8.37.75-.52,1.63-.55,2.46-.17.9.42,1.79.87,2.6,1.44.8.56.89,1.93.29,2.71-.17.23-.3.51-.53.67-2.57,1.81-4.57,4.31-7.27,5.97-1.09.68-2.06,1.54-3.09,2.3-.7.51-1.35,1.1-2.11,1.48-3.1,1.53-5.83,3.61-8.59,5.63-1.38,1.01-2.79,1.98-4.31,2.79-1.64.86-3.13,2-4.69,3-.84.53-1.65,1.16-2.55,1.56-2.26,1-4.18,2.46-6.02,4.06-1.73,1.51-3.57,2.83-5.56,4-1.84,1.09-3.62,2.32-5.26,3.69-1.76,1.49-3.66,2.71-5.6,3.92-1.69,1.06-3.34,2.2-4.91,3.45-2.69,2.15-5.58,3.99-8.52,5.74-1.48.87-2.94,1.78-4.39,2.69-.19.12-.28.44-.42.67,1.03.28,1.95-.12,2.87-.46,4.02-1.49,8.15-2.69,11.99-4.65.63-.33,1.3-.58,1.99-.8,5.04-1.62,9.89-3.74,14.57-6.21,4.82-2.55,9.98-4.27,14.94-6.46,2.22-.98,4.47-1.92,6.66-2.95,5.82-2.75,11.59-5.58,17.41-8.31,3.74-1.76,7.53-3.44,11.04-5.66,2.78-1.76,5.7-3.28,8.61-4.82,4.18-2.19,8.15-4.75,12.22-7.13,3.7-2.16,7.44-4.25,11.14-6.4,1.74-1.01,3.46-2.02,5.1-3.15,6.82-4.71,13.61-9.47,20.4-14.22.81-.58,1.67-1.13,2.37-1.83,1.61-1.64,3.28-3.18,5.25-4.38.9-.55,1.42-1.39,1.74-2.37,2.22-6.94,5.55-13.48,7.47-20.54.48-1.78,1.27-3.49,1.95-5.22.4-1.07.93-2.1,1.21-3.2.96-3.75,2.53-7.28,4-10.85.72-1.71,1.38-3.45,1.98-5.2.45-1.33.87-2.62.57-4.16-.29-1.55,1.86-2.03,2.16-3.51.21-.98.65-1.9.88-2.86.7-2.84,2.2-5.27,3.73-7.68.3-.47.71-.92,1.18-1.21.46-.29,1.09-.56,1.59-.49,1.12.17,2.22.51,3.29.89.83.29,1.49,1.63,1.28,2.5-.58,2.35-1.18,4.69-1.78,7.12.25.57.55,1.21.85,1.91-.28.29-.53.65-.86.89-.48.35-.95.73-.98,1.32-.1,1.32-.69,2.46-1.18,3.65-.39.92-.67,1.89-1,2.83-1.42,4.04-2.5,8.19-4.18,12.15-.77,1.83-1.07,3.84-1.63,5.77-.52,1.78-.91,3.63-1.71,5.29-1.5,3.12-2.37,6.43-3.38,9.7-1.16,3.68-2.1,7.42-3.1,11.15-.44,1.64-.53,3.43-1.22,4.94-.65,1.42-1.38,2.81-1.95,4.27-1.48,3.72-2.98,7.42-3.91,11.33-.6,2.49-1.51,4.91-2.27,7.36-.08.26-.03.56-.05.84.49,1.13,1.59,1.63,2.57,2.14,3.27,1.73,5.58,4.39,7.68,7.33,1.36,1.9,2.28,4.01,2.73,6.25.71,3.49,1.16,7.03.71,10.64-.29,2.27-.2,4.58-.46,6.84-.37,3.23.46,6.24,1.55,9.2,1.09,2.94,2.29,5.86,3.51,8.75.38.91.92,1.77,1.54,2.55,1.16,1.47,2.05,3.07,2.84,4.77.78,1.67,1.7,3.3,2.72,4.86,3.33,5.1,5.36,10.67,6.63,16.59,1,4.6,1.62,9.29,3.13,13.79.27.79.3,1.69.31,2.53.02,6.74-.63,13.43-1.9,20.04-.24,1.25-.77,2.46-1.28,3.63-1.99,4.58-3.72,9.28-6.09,13.69-.82,1.5-1.7,2.98-2.56,4.46-.29.49-.64.95-.91,1.44l-.44.8-3.19-1.37-1.41-.93c.26-.57.5-1.15.73-1.73.96-2.53,2.02-5.03,2.89-7.6.64-1.93,1.53-3.67,2.86-5.21.37-.43.72-.9,1.09-1.33.87-1,1.39-2.15,1.55-3.47.09-.85.22-1.7.33-2.55.19-1.43.51-2.8,1.46-3.97.75-.93.93-2.11.78-3.26-.43-3.3-.03-6.54.49-9.8.26-1.54.15-3.13.13-4.71,0-.37-.22-.92-.52-1.09-.85-.48-1.16-1.18-1.29-2.08-.09-.71-.39-1.41-.39-2.11.03-3.38-1.42-6.38-2.37-9.51-.16-.51-.66-.91-.99-1.36-.66-3.02-2.35-5.83-1.89-9.09-.39-.74-.74-1.53-1.21-2.22-.35-.52-.99-.44-1.57-.44s-1.11-.2-1.52-.65c-.87-.94-1.73-1.89-2.62-2.81-.8-.83-1.52-1.69-1.91-2.8-.44-1.24-1.25-2.19-2.25-3.06-1.28-1.12-2.46-2.37-3.62-3.62-.82-.88-1.05-1.99-.9-3.18.06-.45.43-.89.78-.79.26.06.67.19.71.34.39,1.98,1.92,3.08,3.24,4.35.46.44.98.54,1.02.24.02-.26.07-.58-.04-.78-1.33-2.53-2.77-4.98-4.5-7.26-.51-.67-.97-1.43-1.19-2.24-.55-2.07-1.04-4.15-1.39-6.26-.25-1.53-.31-3.11.07-4.66.17-.69.29-1.4.31-2.11.11-3.32.76-6.5,2.28-9.48.48-.97.35-1.89.02-2.89-.93-2.78-2.72-4.99-4.63-7.11-1.04-1.16-2.22-2.2-3.09-3.52-.56-.85-1.3-1.55-2.3-1.82-1.67-.42-2.66-1.59-3.46-2.99-.34-.61-.63-1.25-.85-1.68-1.15-.63-2.17-.48-3.15-.53-.35-.81-1.13-.69-1.8-.85-.46-.44-.9-.9-1.6-.93-.06-.25-.09-.51-.2-.74-.04-.08-.23-.17-.33-.14-.11.03-.23.17-.25.29-.07.51.22.72.7.69.35.81,1.14.59,1.77.75.31.87,1.06.84,1.78.86.21.36.44.72.61,1.1.36.79-.1,1.54-.88,1.44-.7-.09-1.39-.25-2.08-.36-.11-.02-.35.1-.35.17-.02.23-.06.62.08.7,1.07.69,2.17,1.33,3.29,1.98,2.34,1.37,4.53,2.93,6.33,5,.75.87,1.35,1.79,1.7,2.91,1.16,3.71,1.55,7.52,1.54,11.38,0,.7-.15,1.41-.26,2.11-.13.85-.38,1.69-.4,2.53-.04,2.54-.75,4.76-2.69,6.5-.21.19-.4.43-.51.69-.94,2.33-2.66,4.01-4.5,5.61-.21.18-.38.42-.57.63-.27.29-.24.91.08,1.15,4.17,2.99,8.14,6.23,12.05,9.57.97.83,1.98,1.62,2.9,2.51,3.93,3.74,7.45,7.83,10.7,12.19,1.72,2.29,3.34,4.6,4.45,7.25.38.92.9,1.78,1.76,2.37.24,2.13.57,4.24.98,6.35.78,4.08,1.12,8.21,1.04,12.36-.02.99-.17,1.99-.33,2.97-.18,1.13-.5,2.24-.62,3.37-.15,1.44-.51,2.81-1.02,4.15-.7,1.87-1.54,3.7-1.58,5.75,0,.29-.06.59-.19.83-1.81,2.96-2.34,6.43-3.77,9.55-1.71,3.75-3.46,7.48-5.4,11.12l-1.39-.93-2.69-.81h0ZM252.24,196.77c-.25.05-.59.01-.75.16-.48.49-.93,1.03-1.32,1.6-.43.6-.33,1.18.23,1.89.38.48,1.11.59,1.4.17.41-.55.82-1.11,1.14-1.72.29-.52.17-1.09-.1-1.59-.11-.22-.4-.35-.61-.51h0ZM215.06,154.02c-.52.17-1,.48-1.17,1.05-.09.38-.13.9.06,1.2.29.46.74.88,1.22,1.14.32.16.86.12,1.19-.04.68-.33,1.04-1,1.05-1.72,0-.68-1.44-1.62-2.34-1.62h0ZM32.74,134.2c-.14.14-.29.21-.32.32-.05.12-.03.31.05.4,1.17,1.42,2.71,2.38,4.21,3.38.16.1.55.05.7-.09.17-.17.3-.52.26-.75-.07-.38-.21-.85-.49-1.08-1.29-1.08-2.84-1.69-4.4-2.19h0ZM243.57,187c0,.38.09.7-.02.93-.37.74-.76,1.48-1.23,2.16-.22.33-.61.56-1.08.36-.53-.23-.9-.82-.87-1.31.04-1.05.68-1.81,1.28-2.56.25-.33.66-.59,1.08-.34.33.19.59.52.84.76h0ZM125.11,163.92c-1.24.1-1.74.75-2.04,1.57-.07.22-.02.59.13.75,1.15,1.33,2.83,1.29,3.94-.07.57-.7.45-1.43-.29-1.71-.65-.24-1.32-.42-1.74-.55h0ZM229.69,208.86c-.63-.14-1.25-1.17-.95-1.62.61-.92,1.23-1.85,1.95-2.68.17-.21.84-.21,1.11-.04.29.18.61.71.54,1.03-.22,1.27-.99,2.28-1.89,3.16-.16.15-.51.11-.76.17h0ZM239.9,193.08c-.23-.22-.48-.58-.83-.76-.37-.18-.8-.11-1.12.26-.85.97-1.5,2.05-1.65,3.34-.03.32.37.72.63,1.03.22.26.93.18,1.12-.11.62-.93,1.26-1.86,1.82-2.83.12-.2.02-.53.02-.93h0ZM247.06,219.61c-.05-.27-.08-.55-.17-.81-.17-.53-.71-1.04-1.19-.97-.38.05-.82.25-1.06.53-.61.75-1.11,1.58-1.17,2.61-.02.31.42.85.76.88,1.74.15,2.85-.72,2.82-2.23h0ZM241.97,195.75c.76,0,1.61,1.21,1.25,1.86-.48.87-1.03,1.7-1.61,2.49-.27.36-.75.36-1.16.15-.57-.29-.99-.91-.9-1.32.29-1.29.91-2.37,2.01-3.15.1-.07.27-.03.41-.04h0ZM118.66,164.65c.92,0,1.73-.63,1.68-1.05-.04-.33-.34-.8-.62-.9-1.32-.42-2.69-.74-4.03-1.07-.4-.1-1.14.35-1.28.87-.07.24-.1.69.03.79,1.41,1,3.04,1.33,4.23,1.37h0ZM239.69,221.63c-.06-.12-.13-.25-.2-.38-.67-1.17-2-1.3-2.77-.23-.41.58-.78,1.19-1.11,1.82-.32.57-.1,1.1.28,1.56.19.21.41.4.63.59.55.49,1.17.51,1.5.02.54-.83,1.05-1.68,1.53-2.55.13-.23.11-.55.15-.83h0ZM243.45,215.31c.08-.64-.96-1.72-1.63-1.65-.26.02-.58.11-.75.29-.75.84-1.37,1.76-1.67,2.88-.2.79.75,2.09,1.62,2.11.25,0,.61-.11.73-.29.59-.95,1.13-1.94,1.67-2.92.06-.11.03-.27.04-.41h0ZM100.23,152.65c-.32.05-.59.06-.87.12-.13.03-.35.12-.35.18,0,.27-.02.66.13.77,1.49,1.12,3.21,1.71,5.01,2.12.25.06.57,0,.82-.07.59-.16.97-.59,1.16-1.13.07-.21-.06-.69-.2-.74-1.85-.68-3.77-1.15-5.71-1.26h0ZM110.66,154.65c-1.37-.21-2.08.3-2.36,1.24-.22.75.06,1.38.86,1.65,1.06.37,2.12.72,3.21.97,1.06.24,2.41-1.17,2.34-2.4,0-.21-.27-.54-.46-.59-1.35-.36-2.71-.67-3.58-.86h0ZM133.06,170.68c1.2-1.03,2.09-2.1,2.76-3.35.1-.18.04-.64-.1-.72-1.39-.77-2.92-1.02-4.49-1-.25.01-.55.17-.75.36-.73.7-1.24,1.62-1.22,2.59.03,1.01,1.12,1.17,1.85,1.51.63.28,1.32.42,1.95.6h0ZM170.48,175.04c-.09-.25-.13-.6-.3-.73-.46-.33-.96-.6-1.48-.82-.52-.21-1.26.03-1.52.47-.99,1.72-1.99,3.45-2.96,5.18-.23.41.06,1.13.58,1.45.5.3,1.25.26,1.57-.13,1.27-1.54,2.53-3.08,3.78-4.65.16-.2.21-.51.32-.77h0ZM209.83,166.65c.23-.14.58-.22.67-.43.59-1.31,1.44-2.4,2.6-3.26.21-.16.38-.41.55-.63.17-.23.31-.47.46-.71.76-1.27.45-2.01-.89-2.73-.93-.49-1.74-.2-1.87.8-.11.87-.2,1.69-1.02,2.18-1.04.6-1.58,1.57-2.01,2.64-.28.73.7,2.15,1.51,2.14h0ZM123.67,157.45c-.07-.11-.13-.29-.23-.31-1.36-.29-2.72-.61-4.1-.8-.37-.06-.82.18-1.18.39-.75.42-1.28,1.09-1.68,1.85-.18.33-.08,1.01.23,1.1,1.47.45,2.93.92,4.42,1.28.32.07.9-.2,1.09-.49.55-.81.97-1.72,1.41-2.59.06-.12.02-.28.03-.42h0ZM124.89,161.31c1.07,1.02,2.29,1.26,3.56,1.35.26.01.6-.04.8-.2,1.19-.97,2.44-1.92,2.69-3.6-.93-1.51-2.5-.94-3.82-1.17-.14-.02-.29,0-.43,0-1.11.05-1.84.62-2.21,1.65-.24.66-.41,1.33-.58,1.98h0ZM132.59,163.37c.35.16.72.38,1.13.49,4.58,1.3,4.18.83,5.87-3.01.05-.12.08-.29.04-.41-.07-.25-.16-.64-.34-.7-.93-.32-1.87-.61-2.83-.8-.36-.07-.91.08-1.17.34-1.1,1.08-2.3,2.1-2.78,3.65-.04.11.05.26.08.45h0ZM176.96,165.49c-.18-.21-.31-.52-.53-.61-.82-.32-1.65-.4-2.43.12-1.8,1.17-3.05,2.89-4.46,4.45-.22.25,0,.88.36,1.02.27.11.54.17.8.28,2.19.93,2.43,1.01,3.9-.93.84-1.12,1.57-2.33,2.3-3.53.12-.2.04-.53.06-.8h0ZM224.64,210.15v.78c0,.35.68.78.95.58.45-.33.84-.8,1.34-1.02.29-.13.86,0,1.12.21.28.23.56.8.45,1.08-.35.91-.83,1.79-1.36,2.61-.66,1.03-1.5,1.13-2.5.35-.78-.61-1.56-1.23-2.31-1.87-.92-.79-.99-1.44-.28-2.6.45-.71.91-1.43,1.43-2.09.14-.17.49-.23.75-.26.35-.04.65.4.61.92-.02.29-.06.56-.1.84-.02.13-.05.27-.1.48h0ZM234.82,207.03c-.13.03-.31.03-.38.11-.38.4-.82.79-1.1,1.25-1.4,2.21-1.63,2.52.38,4.28.95.84,1.79,1.82,2.69,2.72.27.27.91.2,1.15-.06.89-.95,1.59-2.01,1.9-3.28.13-.58.04-1.32-.46-1.54-1.63-.73-2.49-2.27-3.79-3.34-.1-.09-.27-.1-.4-.14h0ZM232.99,221.76c1.55-.75,1.98-1.81,2.49-2.81.28-.54.12-1.08-.16-1.6-.77-1.43-2.2-2.18-3.3-3.27-.91-.9-1.78-.75-2.45.3-.38.59-.74,1.21-1.07,1.83-.42.8-.27,1.67.47,2.3,1.29,1.1,2.63,2.14,4.02,3.26h0ZM168.71,163.95c-1.34-.24-2.71-.51-4.09-.71-.92-.14-1.68.28-2.16,1.04-.58.95-1.1,1.95-1.56,2.97-.75,1.65-.33,2.32,1.5,2.44,3.31.21,3.5.32,4.92-2.66.36-.76.94-1.4,1.37-2.13.11-.2.02-.53.02-.95h0ZM141.89,174.05c1.07-.84,1.89-1.4,2.6-2.07.51-.47.91-1.08,1.32-1.65.38-.53.21-1.25-.34-1.4-1.78-.51-3.55-1-5.34-1.43-.34-.08-.89.1-1.16.35-1.14,1.08-1.9,2.42-2.37,3.98,1.57,1.26,3.39,1.61,5.29,2.21h0ZM164.12,172.7c-1.36-.31-2.73-.65-4.11-.93-.6-.12-1.15.13-1.51.61-.9,1.26-1.79,2.55-2.64,3.85-.23.34-.32.79-.37,1.2-.02.24.08.63.26.75,1.41.9,2.92,1.02,4.45.3,1.05-.48,1.88-1.29,2.54-2.22.72-1.04,1.5-2.08,1.37-3.56h0ZM155.03,170.92c-1.73-.36-3.38-.75-5.04-1.04-.56-.1-1.14.13-1.47.65-.86,1.29-1.67,2.6-2.51,3.91-.27.41,0,1.2.54,1.38,1.33.46,2.67.89,4.02,1.29.23.07.54-.06.96-.12.48-.73,1-1.56,1.58-2.36.57-.8,1.23-1.55,1.76-2.38.2-.29.1-.77.15-1.32h0ZM146.79,166.91c.41-.27.88-.42,1.08-.73.65-1.09,1.23-2.22,1.78-3.35.4-.8.12-1.39-.75-1.56-1.66-.33-3.32-.67-5-.9-.91-.12-1.65.39-2.04,1.21-.43.88-.73,1.82-1.05,2.75-.18.52.17,1.2.65,1.4,1.71.74,3.55.82,5.33,1.17h0ZM154.93,162.06c-.37,0-.66,0-.94,0-.6,0-1.14.2-1.46.69-3,4.71-3.05,4.65,2.5,6.06.28.06.56.08.84.09.91.05,1.67-.21,2.09-1.1.47-1.02.99-2.02,1.42-3.06.46-1.11-.03-1.96-1.19-2.18-1.12-.2-2.24-.34-3.26-.5h0ZM234.37,69.06c.05-.97.08-1.25.06-1.52,0-.12-.12-.26-.23-.32-.3-.17-.56-.09-.75.19-.15.23-.47.5-.44.69.35,1.92-.54,3.59-1.01,5.34-.72,2.6-1.52,5.17-2.17,7.79-.65,2.62-1.28,5.23-2.33,7.73-.1.26-.16.55-.19.82-.04.28-.05.57-.02.85.02.12.15.34.22.34.22-.02.57-.06.63-.21,2.77-5.93,4.44-12.27,6.79-18.35.33-.84.12-1.63-.37-2.42-.27-.43-.23-1.05-.2-.92h0ZM220.39,223.58c-.31-.19-.73-.35-1.03-.63-.83-.79-1.61-1.62-2.4-2.44-.58-.6-.74-1.32-.38-1.95.64-1.1,1.3-2.21,2.01-3.28.7-1.06,1.45-1.16,2.52-.42.35.25.69.51,1.03.77,2.96,2.19,3.1,1.89.87,5.36-.53.83-1.14,1.61-1.79,2.38-.13.17-.51.14-.84.22h0ZM226.7,178.09c.34-.23.62-.34.75-.55,1.86-2.69,3.72-5.38,5.53-8.09,1.67-2.48,3.26-5,4.88-7.5.14-.23.19-.52.23-.79.03-.11-.04-.3-.13-.35-.23-.14-.57-.37-.73-.3-.36.17-.68.49-.96.8-.55.61-1.18.79-1.89.36-.88-.54-1.61-.31-2.26.39-.38.41-.79.83-1.08,1.31-1.11,1.83-2.37,3.54-3.76,5.16-.53.63-.93,1.43-1.24,2.22-.31.78-.39,1.65-.64,2.47-.28.92-1.18,1.61-1.15,2.89.75.62,1.61,1.33,2.44,2h0ZM253.1,19.57c-.05.3-.1.88-.33,1.39-.14.36-.5.79-.84.87-1.13.24-1.71.97-2.01,1.98-.9,3.13-2.19,6.15-2.56,9.45-.28,2.58-1.5,4.91-2.57,7.21-2.79,5.93-5.11,12.05-7.58,18.11-.47,1.19-1.09,2.31-1.67,3.44-.04.06-.3.1-.38.04-.21-.14-.55-.36-.53-.51.21-1.71.77-3.33,1.53-4.85,1.26-2.58,2.21-5.26,2.83-8.04.69-3.08,1.87-5.98,3.23-8.79.82-1.67,1.48-3.39,2.03-5.15.57-1.77,1.23-3.49,1.91-5.2,1.26-3.17,2.92-6.18,3.68-9.54.15-.66.65-1.24,1.03-1.83.23-.36,1.11-.53,1.57-.29.37.2.66.51.63,1,0,.14,0,.29,0,.7h0ZM225.41,180.28c-3.85-2.03-7.04-5.16-10.97-7.24-.98-.52-1.82-1.35-2.71-2.06-2.69-2.13-5.52-4.04-8.56-5.63-.75-.39-1.6-.58-2.41-.8-.6-.16-1.34.4-1.65,1.1-.21.52-.13,1.27.27,1.58.78.62,1.58,1.21,2.4,1.77,5.63,3.87,11.63,7.19,16.97,11.51.43.35.94.75,1.47.83,1.31.22,1.85,1.2,2.51,2.12.23.34.86.29,1.08-.06.59-.94,1.5-1.72,1.6-3.13h0ZM230.89,117.51c-.11-1.7-.16-2.99-.3-4.27-.18-1.55-.43-3.1-1.37-4.43-.23-.32-.94-.37-1.1-.05-.2.38-.46.73-.57,1.13-.43,1.51-.66,3.09-1.23,4.55-1.13,2.95-1.98,5.97-2.75,9.02-.52,2.08-1.14,4.13-2.17,6.03-.84,1.53-1.04,3.25-1.31,4.94-.05.33.54.86.86.77,1.5-.45,2.99-.95,4.18-2.05,2.25-2.1,3.78-4.71,4.65-7.6.83-2.71,1.45-5.55,1.1-8.04h0ZM221.64,174.81c-.82-.48-1.34-.71-1.77-1.04-1.24-.95-2.49-1.87-3.97-2.48-.89-.38-1.68-1.04-2.47-1.64-.9-.67-1.04-1.39-.46-2.18,1.33-1.85,2.81-3.59,3.91-5.59.19-.36.58-.66.94-.84.75-.36.99-.92,1.05-1.69.08-1.26.66-2.18,1.95-2.47,1.14-.26,1.25-.97.97-1.92-.05-.12,0-.28.04-.41.06-.36.67-.82.94-.72,1.2.48,2.36,1,3.22,2.01.24.27.14.92-.26,1.1-.37.17-.77.26-1.18.36-.47.11-.82.46-.76.87.2,1.57-.54,2.73-1.46,3.86-1.35,1.65-2.7,3.31-4.01,5-.34.44-.63.97-.75,1.5-.08.35.11.83.3,1.16.28.44,1.1.49,1.53.14.44-.36.88-.73,1.19-1.18,1.21-1.76,2.37-3.56,3.54-5.35.55-.84,1.14-1.62,2.09-2.09.68-.33,1.06-.92,1.14-1.69.03-.29.05-.58.13-.84.43-1.44,1.3-1.76,2.55-.94.85.56,1.04,1.33.52,2.17-.3.48-.61.97-.93,1.44-1.82,2.55-3.65,5.09-5.46,7.65-.65.93-1.32,1.87-1.8,2.9-.35.75-.41,1.63-.71,2.89h0ZM208.97,176.99c-.33-.35-.66-.82-1.11-1.14-1.04-.74-2.17-1.38-3.22-2.1-1.77-1.21-2.42-1.45-4.36.66-.67.74-1.21,1.59-1.8,2.38-1.1,1.5-2.14,3.03-3.31,4.47-2.25,2.77-4.3,5.69-6.24,8.68-.22.32-.31.73-.46,1.12,1.16.68,1.95,1.74,3.27,1.99,2.25-2.83,4.45-5.64,6.68-8.42.34-.43.81-.77,1.28-1.05.15-.09.5.11.74.23.09.05.19.25.17.34-.1.41-.16.86-.39,1.19-1.95,2.81-3.96,5.58-5.89,8.41-.2.29-.15.8-.1,1.19.06.46.87.38,1.43-.2.6-.6,1.21-1.2,1.74-1.87,2.32-2.89,4.62-5.8,6.92-8.69.8-1,1.54-2.06,2.44-2.96,1.15-1.16,1.85-2.51,2.22-4.23h0ZM64.8,155.45c.29-.13.6-.19.79-.37,1.21-1.2,2.42-2.41,3.56-3.67.26-.29.37-.79.38-1.19.03-1.01-.12-1.96-.98-2.7-2.72-2.32-5.63-4.35-8.7-6.16-1.35-.8-2.74-1.54-4.04-2.4-1.56-1.02-3.1-2-4.97-2.38-.67-.13-1.35-.51-1.9-.92-2.22-1.66-4.89-2.19-7.31-3.16-.75.65-.5,1.38-.5,2.07,0,.96.44,1.61,1.31,1.99,1.04.46,2.07.93,3.09,1.43.47.22.52,1.16.07,1.47-.44.29-.92.52-1.55.88.5.45.87.9,1.34,1.17,1.71,1.01,3.47,1.96,5.21,2.94.48.27.98.54,1.41.9.18.14.29.53.22.76-.05.2-.38.45-.59.45-.41.01-.86-.05-1.24-.22-1.14-.57-2.25-1.22-3.39-1.79-.19-.09-.49.05-.74.07.1.24.14.55.33.71.86.73,1.78,1.42,2.67,2.12.71.58,1.55.73,2.41.66.85-.06,1.7-.17,2.52-.38,2.2-.56,4.22-.05,6.19.9,1.64.79,2.71,1.98,3.21,3.76.3,1.04.37,2.21,1.23,3.04h0ZM86.72,153.82c2.6,1.08,5.38,2.19,8.13,3.38,4.71,2.04,9.41,4.13,14.12,6.18.65.29,1.31.57,1.98.8,5.83,1.96,11.45,4.39,17.17,6.63.53.21,1.07.4,1.58.66,5.12,2.59,10.62,4.15,16.02,5.98.81.27,1.6.59,2.41.87,1.89.65,3.77,1.29,5.66,1.91,2.99.97,5.94,2.06,8.79,3.37.76.35.94,1.04.5,1.76-.16.24-.3.48-.46.72-1.69,2.65-3.71,5.06-5.66,7.52-2.79,3.52-2.22,3.12-6.32,1.31-3.25-1.43-6.3-3.33-9.36-5.17-2.93-1.77-5.74-3.73-8.62-5.6-.95-.62-1.9-1.26-2.9-1.81-7.42-4-14.49-8.58-21.62-13.05-3.86-2.42-7.93-4.54-11.53-7.37-2.8-1.16-5.07-3.17-7.67-4.66-1.12-.64-2.2-1.33-2.98-2.39-.16-.2-.28-.58-.19-.75.09-.17.48-.17.96-.3h0ZM227.78,71.86c-.17,2.18-.85,4.2-1.54,6.2-.98,2.84-2.07,5.62-3.11,8.44-.56,1.49-.75,1.61-2.57,1.53-.57-.02-1.15-.14-1.7-.05-.54.1-1.16.28-1.55.63-2.24,2-3.35,4.57-3.62,7.51-.12,1.38.41,2.5,1.64,3.23.71.41.91,1.09.68,1.84-.51,1.64-.95,3.31-1.6,4.88-2.23,5.28-3.48,10.86-5.13,16.31-.26.87-.63,1.61-1.38,2.08-1.23.79-2.17,1.82-2.92,3.08-2.25,3.83-5.09,7.24-7.86,10.69-2.78,3.45-5.47,6.95-7.99,10.6-2.43,3.52-4.94,7-7.42,10.48-.41.58-.83,1.2-1.37,1.64-.41.34-1.06.69-1.53.61-1.88-.3-3.68-.1-5.53.17-.98.15-1.99,0-2.99-.07-2.27-.17-4.54-.44-6.83-.58-5.27-.35-10.48-1.24-15.68-2.12-4.35-.75-8.69-1.65-13.03-2.46-1.26-.24-2.53-.38-3.8-.57-2.67-.39-5.26-1.27-8-1.15-2.75-.84-5.63-.74-8.42-1.32-2.52-.52-5.03-1.14-7.56-1.49-5.37-.74-10.55-2.5-15.97-2.99-1.82-.17-3.64-.6-5.34-1.43-.1-.05-.17-.23-.19-.36-.02-.11.05-.29.13-.33,2.07-.95,4.11-1.95,6.21-2.8,4.76-1.94,9.56-3.76,14.31-5.73,2.76-1.15,5.45-2.49,8.17-3.74,2.33-1.08,4.65-2.17,6.99-3.22.92-.41,1.87-.73,2.81-1.08,4.83-1.78,9.43-4.05,14.03-6.36,4.96-2.5,10.06-4.75,15.09-7.14,2.96-1.41,5.93-2.81,8.83-4.35,2.52-1.33,4.93-2.88,7.41-4.28,2.48-1.4,5.01-2.73,7.51-4.1.63-.34,1.24-.69,1.84-1.11,4.78-3.38,9.95-6.14,15.07-8.98.87-.48,1.78-.89,2.64-1.38,1.62-.91,3.34-1.7,4.78-2.84,1.91-1.51,3.98-2.77,5.97-4.14,1.77-1.22,3.45-2.53,5.13-3.85,2.92-2.28,6.05-4.31,9.13-6.38,1.78-1.19,3.62-2.28,5.45-3.39.19-.12.48-.08.82-.13h0ZM206.84,185.14c-.25.12-.58.17-.74.37-2.61,3.39-5.22,6.78-7.8,10.21-.3.41-.74.85-.47,1.5.14.36.62.11,1.31-.65.86-.95,1.72-1.9,2.61-2.83.29-.29.67-.54,1.06-.69.22-.09.58-.03.78.12.2.13.44.51.37.68-.25.8-.56,1.6-.94,2.34-.6,1.13-1.29,2.2-1.89,3.33-.08.16.11.58.29.73.7.61,1.81.67,2.36.17.43-.38.86-.76,1.19-1.21,3.09-4.11,6.17-8.22,9.2-12.37.75-1.03,1.3-2.21,1.89-3.34.42-.79.17-1.7-.56-2.3-.45-.36-.9-.7-1.37-1.03-1.7-1.21-2.89-1.64-4.11.65-.88,1.63-2.52,2.71-3.31,4.43l.1-.11h0ZM242.8,137.98l.11.11-.18-.06c.05-.57.17-1.14.13-1.7-.34-4.43-.1-8.83.55-13.21.19-1.26.2-2.56.23-3.83.02-.41-.16-.81-.24-1.22-.67.14-1.1.5-1.19,1.11-.16.98-.14,2.01-.41,2.95-.63,2.09-.55,4.22-.62,6.36-.09,2.87.62,5.64.93,8.46.05.37.45.69.69,1.04h0ZM111.54,116.56c-1.21-.01-2.14.72-3.12,1.24-3.74,1.99-7.45,4.06-11.16,6.13-1.61.89-3.17,1.86-4.72,2.84-.31.2-.48.63-.72.96-.73-.13-1.39.01-2.05.34-3.43,1.71-6.68,3.68-9.61,6.15-.81.69-.56,1.5.07,2.22.28-.05.58-.03.84-.14,1.67-.75,3.33-1.55,5.01-2.28,1.24-.55,2.13-1.3,2.27-2.77.06-.74.72-1.19,1.25-1.66.71-.64,1.78-.9,2.16-1.93.4-.08.86-.08,1.23-.26,3.21-1.5,6.42-3.03,9.61-4.6.89-.43,1.72-.98,2.56-1.53,1.89-1.25,3.79-2.49,5.66-3.79.31-.21.45-.66.67-.99.76.09,1.46.06,1.76-.82.54-.15,1.11-.21,1.6-.45,7.23-3.62,14.17-7.71,20.78-12.36.32-.23.51-.63.76-.95,1.22.09,2.21-.5,3.14-1.12,2.58-1.72,5.11-3.53,7.66-5.31.11-.07.18-.22.23-.34.05-.11.07-.27.03-.35-.05-.1-.25-.21-.32-.17-1.87,1-3.8,1.88-5.55,3.06-1.84,1.25-3.69,2.56-5.13,4.31-.28.01-.6-.05-.84.06-2.45,1.14-4.89,2.28-7.31,3.47-.89.44-1.77.94-2.52,1.56-1.89,1.53-3.96,2.76-6.11,3.88-2.02,1.05-3.94,2.26-5.7,3.73-.31.24-.46.67-.68,1.01-.76-.07-1.41.08-1.73.86h0ZM236.85,101.98l.06-.06c.13.4.13.98.4,1.16,1.86,1.22,2.84,3.16,4.12,4.86.27.36.4,1.02,1.1.89.02-.3.12-.6.04-.84-.6-1.46-1.5-2.75-2.58-3.91-.87-.93-1.78-1.86-3.13-2.12h0ZM68.58,143.19c-.11-.53-.23-1.06-.31-1.6-.07-.35-.26-.53-.58-.4-.23.09-.5.26-.58.47-.07.2-.02.59.13.69.43.31.93.52,1.4.77.33.43.58.95.99,1.28,1.04.83,1.9.68,2.9-.39.33-.37.29-.8.06-1.14-.22-.33-.57-.55-.82-.77-1.14.39-2.18.75-3.21,1.09h0ZM204.25,159.47c-.82.34-1.31.99-1.6,1.78-.08.23-.09.63.05.77.38.37.83.69,1.3.93.45.23.92.71,1.57.08-.78-1.07-1.69-2.14-1.39-3.64.24.02.51.1.73.02.13-.05.17-.34.24-.54-.22-.03-.53-.17-.64-.07-.16.14-.18.45-.26.68h0ZM217.85,127.59c1.25-.7,1.26-1.92,1.33-3.11,0-.05-.23-.15-.34-.14-.13,0-.29.06-.37.14-.75.96-.46,2.1-.55,3.18-.59.51-.74,1.2-.69,1.92,0,.19.28.35.42.53.06-.13.16-.26.17-.39.03-.71.03-1.42.04-2.12h0ZM239.38,59.84c.91-.42.85-1.4,1.24-2.12.04-.05-.08-.26-.17-.29-.1-.03-.27.03-.35.11-.72.65-.65,1.52-.63,2.37-.07.08-.14.17-.2.25.05-.11.08-.22.12-.33h0ZM241.86,52.03c.23-.12.56-.18.67-.37.29-.47.47-1.01.7-1.51.16-.33.11-.58-.22-.66-.06-.02-.19.18-.29.28-.66.65-.67,1.5-.78,2.34q-.75,1.53-.15,2.62c.02-1.03.05-1.86.06-2.69h0ZM261.79,175.63c.24.21-.16.72.37.78-.15-.23-.3-.47-.45-.7-.05-.43-.07-.86-.14-1.27-.02-.14-.12-.37-.17-.37-.31.04-.42.27-.35.62.08.45.27.81.74.94h0ZM257.49,222.2c-.17.16-.37.3-.54.47-.04.05.04.2.07.3.13-.28.26-.57.39-.85.18-.19.38-.37.53-.57.04-.05-.07-.2-.12-.31-.11.32-.22.64-.34.96h0ZM179.35,206.7c-.22.13-.44.24-.63.4-.04.03.06.32.09.32.57-.02.46-.44.46-.81.07-.08.15-.16.22-.24-.06.11-.09.21-.14.32h0ZM141.47,206.76c0-.14.04-.28,0-.39-.03-.08-.17-.1-.26-.16.12.16.24.31.36.46.47.52,1.07.76,1.76.8.35.77,1.02.86,1.74.83.13.21.24.43.4.61.04.04.33-.06.33-.09,0-.56-.45-.43-.78-.45-.33-.8-.99-.91-1.74-.83-.3-.96-1.07-.81-1.79-.79h0ZM181.92,202.29c.28-.54.56-1.08.82-1.61l.12-.14-.09.2c-.7.32-.59,1.05-.81,1.62l-.16.1.11-.17h0ZM145.01,195.52c.65.08,1.31.12,1.64.83l.17.1-.09-.17c-.65-.09-1.34-.09-1.65-.85-.7-.05-1.42-.06-1.79-.83-1.11-.2-2-.72-2.55-1.74-1.17-.12-2.12-.53-2.47-1.78-.76.11-1.42-.08-1.89-.73-.98-.39-2.06-.63-2.51-1.77-.75.1-1.4-.14-2.03-.53-1.08-.68-2.14-1.42-3.26-2-.46-.23-1.1-.19-1.65-.17-.23,0-.55.26-.64.47-.09.22,0,.57.11.8.12.23.34.46.58.59,1.24.7,2.49,1.38,3.74,2.06,2.64,1.4,5.28,2.78,7.67,4.59,1.48,1.11,3.11,2.05,4.76,2.87,2.55,1.28,4.8,3.05,7.23,4.52.48.29.52.99.06,1.47-.18.19-.58.44-.71.37-4.63-2.8-9.81-4.56-14.23-7.74-.8-.58-1.75-.96-2.64-1.39-2.06-1-3.94-2.28-5.74-3.67-2.93-2.26-5.92-4.45-9.37-5.91-.26-.11-.52-.22-.78-.33-.35-.14-.96.12-1.06.46-.13.45,0,.87.36,1.13.68.51,1.38,1.03,2.13,1.4,3.09,1.54,5.72,3.73,8.45,5.77.44.33.89.72.85,1.38.55.09,1.16.05,1.64.29,3.41,1.77,6.79,3.57,10.21,5.32,2.64,1.36,5.03,3.21,7.52,4.86.09.05.11.38.08.39-.24.1-.54.29-.72.21-1.04-.45-2.05-.98-3.07-1.47-.77-.36-1.52-.81-2.33-1.04-.49-.14-1.13-.05-1.62.15-.63.25-.48.93-.49,1.49.03.07.07.14.11.21.22-.16.19-.22-.08-.21-.63-.36-1.24-.79-1.19-1.61.06-.97-.35-1.67-1.08-2.2-1.15-.81-2.3-1.67-3.56-2.32-2.06-1.05-3.84-2.42-5.33-4.18-.53-.21-1.08-.36-1.57-.65-4.04-2.4-8.09-4.82-12.11-7.25-5-3.03-9.99-6.08-15-9.1-.73-.44-1.52-.78-2.29-1.14-3.5-1.65-6.79-3.58-9.91-5.89-3.2-2.38-6.57-4.53-9.84-6.81-.17-.11-.23-.49-.2-.73.04-.34.72-.7,1-.58.13.05.27.09.39.15,1.49.84,3.1,1.54,4.45,2.56,2.65,2.01,5.74,3.1,8.73,4.43.17.07.58-.13.7-.32.12-.18.09-.56-.03-.76-.21-.36-.49-.72-.82-.95-.72-.47-1.46-.92-2.24-1.26-1.84-.79-3.5-1.92-5.14-3.05-1.29-.89-2.62-1.72-3.92-2.58-.58-.39-.46-1.44.25-1.75,1.05-.46,2.1-.91,3.17-1.26.36-.12.87-.04,1.23.14.63.32,1.21.75,1.78,1.16,2.45,1.73,4.9,3.46,7.58,4.82.76.39,1.5.85,2.19,1.34,4.31,3.04,8.87,5.71,13.38,8.45.73.45,1.46.91,2.23,1.29,3.35,1.62,6.5,3.57,9.56,5.66,1.06.72,2.2,1.33,3.36,1.9,3.09,1.5,5.86,3.52,8.64,5.52.2.14.28.46.4.71,1.17.12,2.11.57,2.48,1.79.78-.14,1.42.09,1.89.72,1,.34,1.99.71,2.47,1.77,1.12.19,2.17.49,2.57,1.74.77-.09,1.44.02,1.78.83h0ZM186.25,194.68c-.87.33-.89,1.04-.8,1.79-.52,0-.68.37-.76.8-.06.28-.07.56-.11.84l-.23.07.16-.14c.28-.55.56-1.1.85-1.64.62-.44.83-1.05.81-1.79.21-.12.5-.2.64-.39.21-.27.06-.54-.25-.64-.05-.02-.22.18-.24.3-.05.26-.05.53-.07.8h0ZM84.93,172.38l-.12-.18.15.15c.46.52,1.02.8,1.73.74.29.33.58.64.86.97.57.25,1.15.5,1.71.75.27.33.55.67.82,1,.45.57,1.05.81,1.78.77.27.89.95.95,1.71.86.23.33.4.76.72.98,1.28.89,2.58,1.77,3.94,2.57,4.19,2.47,8.15,5.28,12.13,8.05,1.52,1.05,3.1,2.05,4.72,2.94,3.12,1.73,6.27,3.4,9.08,5.66,1,.8,2.13,1.43,3.21,2.12,2.65,1.69,5.3,3.38,7.95,5.06.29.19.56.22.74-.08.06-.08,0-.3-.07-.4-1.71-1.92-3.54-3.7-5.84-4.94-.62-.34-1.21-.75-1.78-1.18-4.12-3.09-8.5-5.8-12.93-8.38-5.67-3.31-11.32-6.64-16.9-10.11-1.09-.69-2.21-1.31-3.37-1.87-.48-.24-1.09-.24-1.65-.34-.32-.8-1.01-.85-1.71-.87-.35-.86-1.05-.86-1.8-.75.03-.57-.38-.79-.81-.99-.57-.24-1.15-.5-1.72-.75-.28-.32-.56-.65-.85-.97-.33-.73-1.05-.67-1.68-.78h0ZM236.77,73.55c.12-.21.79-.19.3-.67-.06.25-.14.49-.2.75-.2.17-.42.33-.59.52-.04.05.1.33.11.32.51-.15.34-.57.38-.92h0ZM216.17,123.26c.65-.35.83-.98.87-1.65.63-.03,1.06-.45,1.31-.93.58-1.13,1.03-2.31,1.58-3.45.36-.75.66-1.61,1.24-2.17.84-.79,1.16-1.41.48-2.5-.7-1.13-.19-2.47-.29-3.73.16-.22.32-.44.49-.66-.08-.03-.16-.05-.24-.08-.05.28-.12.55-.18.82-.32.46-.65.91-.95,1.37-.26.4-.6.61-1.06.57-.33-.03-.58-.57-.48-1.01.37-1.66.77-3.32,1.12-4.99.11-.55.16-1.13.15-1.69,0-.19-.3-.54-.43-.52-.24.03-.58.22-.66.42-2.59,6.33-4.79,12.79-6.6,19.38-.18.68-.27,1.39-.33,2.09-.02.17.19.38.34.64,1.21-1.16,1.66-2.66,2.17-4.13.47-1.34.93-2.69,1.49-3.99.22-.5.67-.89,1.04-1.31.2-.23.94-.25,1.16,0,.18.19.39.48.36.7-.07.55-.27,1.09-.44,1.62-.36,1.21-1.27,2.25-1.19,3.61-.68.35-.65,1.08-.89,1.66-.05.11-.09.21-.14.3-.03.09-.06.19-.1.28.06-.22.12-.43.18-.66h0ZM211.13,221.29c-.12.03-.25.04-.34.09-.06.03-.06.16-.08.24.12-.13.23-.27.34-.4.12-.05.24-.07.33-.14.05-.04.04-.15.05-.23-.09.15-.19.3-.29.44h0ZM22.19,182.57c.32-.29.64-.57.96-.86.77.1,1.36-.33,1.93-.73,2.1-1.46,4.13-3.02,6.3-4.37,5.55-3.48,10.77-7.39,16.07-11.21,1.38-1,2.7-2.09,4.05-3.13,1.03-.79,1.92-1.68,2.47-2.88.84,0,1.6-.16,2.15-.86.07-.09.13-.22.18-.32-.21-.12-.46-.34-.65-.3-.88.15-1.36.75-1.6,1.57-2.73.62-4.85,2.35-7.03,3.95-1.14.84-2.29,1.69-3.48,2.48-1.65,1.11-3.37,2.13-5.01,3.27-2.7,1.86-5.37,3.78-8.06,5.65-.45.32-.98.56-1.51.73-.17.06-.55-.15-.67-.34-.13-.21-.18-.58-.08-.79.18-.36.46-.73.79-.97,2.77-2,5.57-3.96,8.34-5.96.63-.46.88-1.06.53-1.86-.34-.75-.05-1.42.55-1.89.67-.52,1.41-.95,2.14-1.39.54-.33,1.11-.33,1.58.08.84.73,1.58.44,2.29-.11.91-.7,1.8-1.41,2.64-2.18.4-.37.86-.84.97-1.34.31-1.37,1.21-2.25,2.21-3.06,1.86-1.53,3.53-3.27,5.62-4.51-.16-.19-.23-.35-.32-.38-.27-.06-.59-.16-.82-.07-.93.34-1.81.83-2.76,1.12-1.97.59-3.56,1.75-5.13,3.01-1.88,1.52-3.85,2.94-5.79,4.39-4.67,3.51-9.59,6.69-13.93,10.64-.31.29-.68.53-1.01.79-2.61,1.99-5.28,3.91-7.81,5.98-2.41,1.99-4.69,4.16-7.02,6.25-.32.29-.19.73.27.98,1.32.74,1.23.78,1.03,1.89-.37,1.92-1.65,3.28-2.7,4.79-.22.3-.09.54.53.68,3.51-2.6,7.41-4.94,10.95-7.84.28-.3.56-.6.84-.91h0ZM82.34,170.68c-.3-.32-.58-.63-.87-.95-.7-.8-1.38-1.65-2.59-1.63-.03-.11-.03-.24-.07-.34-.03-.06-.15-.07-.22-.11.12.12.24.24.37.37.55,1.04,1.44,1.54,2.6,1.62.06.51.39.8.86.95.08.06.16.14.25.21-.12-.04-.23-.08-.33-.12h0ZM95.24,132.07l.11-.21-.18.12-.12.17.19-.09h0ZM97.82,130.35l-.19.08.11-.16c.29-.33.57-.65.87-.97.71.05,1.38-.04,1.8-.73.48-.24.99-.44,1.44-.73.14-.08.13-.39.18-.59-.24.04-.53.03-.72.15-.42.31-.96.57-.83,1.25-.75-.14-1.35.12-1.79.74-.29.32-.58.64-.87.96h0ZM249.66,154.38c-.06-.09-.13-.18-.19-.27.09.06.18.13.28.19.12.48.38.81.95.75.22,1.41.24,1.43,1.64,1.67l.05.24-.06-.16c-.57-.56-1.14-1.1-1.72-1.66-.2-.38-.45-.73-.94-.76h0ZM233.34,153.52c-.03-.14-.02-.29-.07-.4-.04-.07-.19-.08-.28-.12.15.15.29.29.44.44l.07.15-.16-.06h0ZM89.25,136.35l-.17.06.08-.14c.45-.17.78-.44.86-.95l.18-.05-.1.14c-.42.2-.75.46-.86.95Z"/>
        <path class="cls-1" d="M183.49,176.22c-.04.39,0,.69-.09.93-.23.51-.5,1.03-.84,1.48-1.33,1.82-2.68,3.64-4.06,5.42-.34.43-.8.82-1.28,1.04-.29.14-.87.04-1.11-.18-.25-.23-.31-.73-.33-1.11,0-.26.15-.56.32-.77,1.64-2.12,3.28-4.25,4.97-6.33.33-.41.88-.74,1.38-.89.29-.08.71.27,1.04.41Z"/>
        <path class="cls-1" d="M178.41,176.35c-.22-.12-.51-.18-.64-.37-.14-.21-.25-.58-.16-.77.76-1.81,1.74-3.49,3.25-4.79.46-.39,1.13-.47,1.51-.16.39.33.5,1.08.16,1.51-1.12,1.43-2.23,2.86-3.38,4.25-.16.19-.49.22-.74.32Z"/>
        <path class="cls-1" d="M191.03,165.94c0,.14.06.28.02.4-.46,1.56-1.5,2.61-2.94,3.3-.45.21-1.17-.25-1.2-.79-.02-.28-.07-.57.02-.81.45-1.21,1.22-2.18,2.41-2.71.33-.14.81-.08,1.19.02.21.06.34.39.51.59Z"/>
        <path class="cls-1" d="M101.71,175c.38.07.84.04,1.16.24,2.17,1.32,4.32,2.69,6.47,4.05.11.07.19.2.27.31.08.12.14.25.21.36.2.27.13.88-.2,1.15-.21.16-.5.3-.74.28-1.19-.11-2.02-.97-3-1.5-1.5-.81-2.93-1.72-4.05-3.04-.25-.29-.43-.71-.5-1.1-.04-.19.21-.45.38-.75Z"/>
        <path class="cls-1" d="M237.98,131.33c-.25,2.58-.04,4.67,1.04,6.63.19.35.31.84.23,1.21-.1.35-.45.69-.77.92-.17.12-.56.08-.78,0-1-.43-1.5-1.27-1.7-2.3-.25-1.25-.49-2.5-.75-3.74-.02-.1-.2-.19-.33-.22-.08-.02-.27.05-.29.1-.15.98-.29,1.96-.44,2.93-.05.35-.62.78-.95.71-.26-.05-.53-.17-.75-.33-.48-.38-.74-.97-.62-1.52.21-1.1.53-2.2.94-3.26.19-.48.68-.94,1.37-.74.84.24,1.35-.1,1.6-.91.24-.82.45-1.64.75-2.44.06-.18.41-.3.66-.39.31-.12.57.04.61.39.09,1.14.15,2.26.19,2.99Z"/>
        <path class="cls-1" d="M23.19,181.77c-.3.29-.59.58-.89.86-.29.3-.57.6-.86.9-.26-.11-.51-.21-.77-.33-.52-.24-.96-.62-.82-1.25.11-.6.64-.89,1.18-1.04.93-.28,1.6.18,2.17.86Z"/>
        <path class="cls-1" d="M48.19,137.01c.4.07.74.03.95.17,1.54,1.01,3.05,2.05,4.55,3.12.17.12.24.55.17.77-.07.2-.39.35-.62.47-.12.06-.29.07-.41.05-1.85-.35-3.52-1.1-4.94-2.36-.21-.18-.38-.44-.47-.69-.09-.25-.18-.63-.05-.8.21-.32.59-.52.82-.72Z"/>
        <path class="cls-1" d="M177.84,225.78c-.04-.52.4-1.07.94-1.16.57-.11,1.11.23,1.21.76.12.61-.51,1.49-1.08,1.5-.37,0-1.04-.68-1.08-1.1Z"/>
        <path class="cls-1" d="M206.74,185.25c.54-.12,1.08-.27,1.62-.34.75-.11,1.32.52,1.2,1.28-.13.91-.68,1.47-1.55,1.75-.43.13-1.31-.31-1.3-.73,0-.69.08-1.38.12-2.07l-.1.11Z"/>
      </g>
      <g>
        <path class="cls-1" d="M403.28,226.86l3.85-.71v-.15c0-4.55-4.11-3.81-7.12-4.53-4.29-1.01-17.66,5.32-22.24,7.07-5.94,2.26-15.65,5.67-21.69,2.72-7.66-3.87-19.34-10.64-27.68-5.79-4.14,2.4-12.11,7.85-16.67,7.87-3.91.01-8.87-3.34-12.22-5.43-6.82-4.25-18.45-2.33-25.36.96-6.26,2.98-15.2,7.15-21.32,1.68-1.71-1.53-3.08-3.32-4.98-4.65-2.62-1.83-5.59-2.31-8.65-2.21-3.02.1-7.65-.21-10.47.69-1.25.4-2.44,1.12-3.57,1.79-2.32,1.36-4.63,2.73-6.98,4.03-11.29,6.22-21.31-.09-31.37-5.8-4.45-2.53-16,1.62-19.58,5.05-7.41,7.13-23.58,6.16-31.36.19-3.54-2.73-15.33-3.57-18.91-.75-4.08,3.21-8.94,4.2-13.42,6.48-4.37,2.22-10.98,1.9-14.56-1.91-2.53-2.7-3.89-2.7-6.94-4.13-.32-.16-.65-.34-.96-.54-10.46-7.21-25.03,10.41-35.93,7.45-1.66-.45-3.52-.26-5.23-.56-2.89-.51-5.3-1.93-7.56-3.92-2.29-2-3.52-1.53-5.81-2.81-4.66-2.6-9.87-2.99-14.9-4.2-1.79-.42-5.03-.39-6.82.07-4.78,1.24-5.14,6.75.49,5.27,15.66-4.12,26.96,12.3,38.44,10.85.23-.03.47-.04.7-.05,1.7-.05,3.39.29,5.1.2,2.87-.16,5.59-1.24,8.14-2.63,9.56-5.22,19.49-10.16,28.73-1.22,5.29,5.12,11.44,6.22,17.94,3.19,3.51-1.64,11.35-4.37,13.97-6.94,3.46-3.37,12.41-.96,15.79,1.73,3.63,2.9,12.08,4.34,16.49,3.55,1.32-.25,2.51-.2,3.84-.11,6.08.43,12.38-4.18,17.31-7.59,7.12-4.9,16.78-1.54,22.97,3.65,3.33,2.8,10.85,3.46,14.94,2.97,10.36-1.26,14.97-9.76,26.87-9.24,7.33.32,9.11,1.99,14.46,7.08,3.37,3.19,6.67,1.96,10.69,1.9,2.94-.04,6.68-1.66,9.4-2.86,2.48-1.09,8.23-4.13,10.67-4.16,3.18-.06,9.88-.61,12.7.52,1.1.45,2.12,1.18,3.12,1.84,2.01,1.3,4.04,2.52,6.13,3.64,10.65,5.78,18.15-4.38,27.51-7.93,9.38-3.56,23.09,12.9,34.99,8.58,5.01-1.65,10.16-2.71,15.17-4.3,2.45-.79,4.48-2.14,6.67-3.53,5.29-3.4,9.25-3.67,15.18-2.37h.03Z"/>
        <path class="cls-1" d="M378.47,238.52l-.48.19c-.46.19-.71.72-.59,1.22l.16.62c.14.53.65.85,1.13.71l.34-.1c.42-.12.7-.52.7-.98v-.72c0-.35-.14-.64-.4-.84-.25-.2-.56-.24-.86-.12h0ZM372.75,240.64c-3.58,1.16-7.42,2.02-10.99,1.9-.46-.02-.85.32-.94.81l-.17.9c-.06.3,0,.59.19.84.18.24.42.37.71.38,3.91.07,7.96-1.6,11.74-2.7.25-.07.45-.23.57-.47.13-.24.17-.5.09-.77l-.04-.17c-.06-.27-.22-.48-.45-.62-.23-.14-.46-.17-.72-.09h0ZM356.54,241.45c-9.94-3.75-17.47-11.01-28.32-5.47-.43.22-.64.75-.48,1.24l.34,1.09c.08.27.25.47.49.6.24.12.49.12.73.01,9.86-4.4,17.14,2.28,26.48,5.39.26.08.51.05.75-.11.23-.15.38-.37.44-.66l.18-.93c.09-.51-.17-1-.61-1.17h0ZM323.18,238.6c-3.64,1.77-7.48,3.53-10.71,3.51-6.36-.05-11.77-3.65-17.79-5.38-.27-.08-.52-.03-.75.14-.22.17-.36.41-.4.72l-.08.72c-.06.51.23.97.67,1.1,12.47,3.79,16.53,9.18,30.17,2.12.43-.23.64-.75.48-1.25l-.33-1.08c-.1-.28-.26-.48-.51-.61-.24-.12-.51-.12-.74,0h0ZM289.08,235.58c-.54-.07-1.07-.13-1.61-.18-.26-.02-.49.06-.69.25-.19.19-.29.43-.3.71l-.04.78c0,.29.06.53.24.74.18.21.4.31.66.32.49.01.97.05,1.46.1.49.05.94-.35,1-.88l.07-.71c.04-.28-.03-.52-.18-.75-.16-.22-.36-.34-.61-.38h0ZM281.67,235.56c-9.54,1.63-20.72,12.47-29.38,4.59-10.99-10-22.14-7.27-33.79-.86-4.96,2.74-10.72,5.07-14.88,4-6.4-1.66-11.39-6.92-18.27-8.04-15.55-2.53-29.15,14.19-44.93,7.65-4.09-1.7-5.45-4.52-9.13-5.68-.28-.09-.56-.04-.8.16-.23.19-.37.46-.38.77l-.06,1.48c-.02.48.25.89.67,1.03,1.5.47,2.97,1.25,4.43,2.42,21.51,17.65,38.73-16.21,60.61-.5.02.01.03.03.05.04,12.44,10.39,28.7-6.61,41.16-6.55,0,0,.02,0,.03,0,7.58.33,9.55,2.08,15.11,7.37,7.01,6.66,21.46-3.02,29.85-4.8.43-.09.74-.47.75-.95l.05-1.1c0-.31-.1-.59-.31-.8-.21-.21-.48-.29-.76-.24h0ZM125.35,236.86c-12.69,1.79-26.45,17.26-36.76,6.27-2.46-2.61-4.94-4.11-7.43-4.83-.28-.09-.56-.03-.79.17-.24.19-.37.46-.38.79v.52c-.03.46.24.86.65,1,2.29.75,4.57,2.15,6.89,4.38,12.19,11.8,25.45-4,37.96-5.05.46-.05.84-.45.86-.97l.05-1.22c.02-.31-.08-.59-.29-.8-.22-.21-.47-.3-.75-.26h0ZM75.12,237.89c-11.99,1.24-19.87,10.07-32.99,7.54-.25-.05-.48,0-.69.17-.22.16-.34.38-.39.66l-.11.71c-.1.55.24,1.08.74,1.17,14.06,2.82,20.86-7.37,33.45-7.68.45,0,.82-.35.89-.85l.09-.56c.05-.31-.04-.62-.24-.86-.21-.23-.46-.34-.76-.32h0ZM36.85,244c-1.38-.52-2.82-1.24-4.5-2.35-.26-.17-.55-.2-.83-.07-.28.12-.48.36-.56.68l-.24.99c-.12.47.1.97.5,1.18,1.51.78,3.17,1.5,4.92,2.14.27.1.53.06.77-.1.24-.15.39-.39.44-.69l.1-.63c.08-.5-.17-.97-.6-1.14h0ZM27.05,239.15c-.43-.2-.85-.42-1.27-.63-.29-.16-.61-.14-.89.05-.28.19-.42.5-.42.86v.77c0,.41.19.75.53.92l1.14.58c.25.13.53.13.78,0,.26-.13.44-.36.51-.65l.17-.71c.12-.49-.11-1-.55-1.2Z"/>
        <path class="cls-1" d="M365.52,251.29c-.6.08-1.2.15-1.79.19-.4.02-.73.31-.84.74l-.25.97c-.08.34-.02.67.2.94.2.27.5.39.81.34.75-.11,1.48-.28,2.22-.49.41-.12.69-.51.69-.98v-.7c0-.3-.11-.56-.32-.75-.2-.21-.46-.29-.73-.25h0ZM358.29,251.1c-1.58-.37-3.16-.98-4.75-1.69-.26-.11-.52-.11-.77.03-.25.13-.42.36-.48.65l-.23.97c-.13.51.12,1.03.57,1.21,1.68.69,3.37,1.3,5.04,1.72.48.12.97-.2,1.11-.72l.23-.91c.06-.28.03-.55-.1-.8-.14-.25-.34-.4-.6-.47h0ZM348.44,246.85c-4.25-2.2-8.56-4.33-13-4.2-.28,0-.51.13-.69.37-.17.23-.24.51-.19.81l.19,1.4c.07.48.44.84.88.86,3.67.16,7.67,1.95,11.75,3.84.26.12.53.11.77-.02.25-.13.42-.36.5-.66l.29-1.21c.12-.47-.08-.97-.49-1.18h0ZM329.63,244.92c-12.49,5.65-16.2,12.04-30.1,3.35-6.76-4.22-14.46-3.59-21.86-.83l.11.36c.15.51.64.81,1.11.68,9.36-2.67,15.46-.75,25.68,4.8,9.56,5.2,17.37-2.46,25.85-6.11.45-.19.69-.73.55-1.24l-.1-.36c-.07-.28-.24-.5-.49-.63-.24-.12-.5-.13-.75-.02h0ZM274.16,248.78l-2.99,1.14.05.21c.08.28.24.5.48.62.24.13.5.14.75.04.41-.17.82-.34,1.22-.5.46-.19.71-.75.57-1.26l-.07-.25h0ZM267.62,251.15c-6.23,1.97-12.07,2.56-16.98-1.91-11.92-10.86-21.31-6.63-33.24-.06-18.39,10.14-32.62-17.72-49.53-1.61-.05.06-.12.11-.2.15-4.03,2.2-5.72,3.18-8.67,3.7-.45.07-.76.47-.78.96l-.02.4c-.02.34.11.63.35.84.24.21.53.28.83.18,4.27-1.28,8.35-3.17,12.18-5.81,13.14-9.06,24.42,8.14,38.36,6.44,10.59-1.29,12.63-9.81,25.39-9.25,7.59.33,9.56,2.08,15.14,7.38,3.71,3.52,11.17,2.18,16.68.35.48-.17.76-.73.62-1.26l-.14-.5h0ZM153.65,252.95c-.86.1-1.81.27-2.64.24-.42-.01-.78.26-.91.69l-.1.31c-.1.34-.05.69.16.96.21.28.5.42.83.38.97-.11,1.93-.26,2.89-.43.39-.06.68-.38.76-.8l.03-.14c.06-.33-.02-.64-.22-.89-.2-.24-.48-.36-.79-.32h0ZM145.81,251.82c-10.17-3.43-18.98-8.61-27.83-4.04-4.82,2.46-11.33,6.87-17.9,7.72-.42.06-.75.41-.81.87l-.1.84c-.04.33.06.64.28.87.22.23.5.33.8.27,8.69-1.62,16.6-9.95,25.99-9.6,6.52.25,12.24,5.22,18.61,6.62.46.1.91-.18,1.06-.67l.5-1.6c.08-.27.06-.53-.06-.79-.11-.26-.3-.43-.55-.51h0ZM94.72,255.43c-2.35-.42-4.47-1.42-6.13-3.2-10.1-10.75-22.54-2.49-34.92,1.34-.46.14-.74.63-.67,1.15l.06.4c.05.3.19.53.43.69.23.16.49.2.76.11,11.74-3.83,23.07-11.53,33.26-1.67,2.24,2.18,4.48,3.42,6.73,3.99.27.07.52.02.75-.15.22-.17.35-.41.39-.7l.11-.82c.06-.54-.27-1.05-.77-1.14h0ZM48.35,254.89c-1.31.21-2.61.35-3.91.37-.47,0-.87.41-.91.94l-.04.48c-.02.29.07.55.25.76.18.22.42.33.68.33,1.43,0,2.85-.16,4.26-.41.26-.05.47-.19.62-.42.15-.23.2-.48.16-.75l-.06-.47c-.09-.55-.56-.92-1.06-.83h0ZM39.15,254.59c-.31-.08-.61-.17-.89-.27-.3-.11-.59-.05-.83.15-.25.2-.38.48-.38.82v.36c0,.45.25.83.64.97.32.12.63.22.96.31.28.08.55.03.78-.15.23-.18.37-.44.39-.76l.03-.38c.04-.5-.26-.94-.69-1.06Z"/>
        <path class="cls-1" d="M348.53,255.63c-.61-.28-1.23-.56-1.86-.82-.47-.2-1,.05-1.2.57l-.3.81c-.18.5.03,1.07.47,1.3l2.13,1.08c.29.15.61.13.88-.06.28-.19.44-.5.44-.86v-1.08c0-.41-.22-.77-.57-.94h0ZM341.24,252.88c-6.65-1.7-11.74.37-16.68,2.68-.42.2-.64.69-.53,1.18l.08.37c.07.31.25.55.51.68.27.13.56.13.82-.02,4.63-2.6,9.48-4.6,15.16-2.59.46.17.97-.09,1.15-.58l.12-.35c.11-.28.1-.57-.03-.84-.14-.28-.34-.45-.62-.52h0ZM319.1,258.14c-2.56,1.4-4.42,3.55-6.92,3.5-12.12-.22-16.67-13.66-37.74-5.07-.02,0-.04,0-.05.02-6.95,3.3-16.39,7.97-23.02,1.94-7.32-6.66-16.98-9.38-25.71-5.07-.27.13-.46.37-.52.69-.06.32,0,.62.18.87l.18.25c.25.35.67.48,1.05.32,9.43-3.79,17.35.8,25.48,6.02.05.04.08.07.13.11,4.57,4.24,14.06.92,18.9-1.21,14.38-6.34,20.7-5.07,33.52,1.88,5.79,3.15,10.75,1.18,15.68-1.59.44-.25.62-.81.44-1.29l-.33-.83c-.09-.27-.28-.46-.53-.56-.25-.1-.5-.09-.74.05h0ZM220.45,255.83c-5.77,5.16-11.48,7.11-17.6,4.74-11.49-4.44-20.76-13-33.06-4.81-8.72,5.71-19.17,7.78-25.78,6.18-8.19-1.98-12.45-8.26-20.57-6.52-.49.11-.82.63-.74,1.18l.11.66c.1.53.55.9,1.04.83,3.72-.55,7.47.14,11.28,3.18,10.1,8.06,27.45,1.99,36.42-4.19,13.14-9.07,24.42,8.14,38.36,6.44,5.34-.66,8.45-3.14,11.88-5.37.41-.27.57-.82.37-1.29l-.28-.67c-.12-.29-.34-.49-.63-.57-.29-.07-.58,0-.81.21h0ZM117.93,257.32c-10.44,4.5-21.01,12.87-29.34,4-5.77-6.14-11.56-6.53-17.5-4.85-.48.13-.78.66-.68,1.19l.03.15c.1.54.58.9,1.08.79,5.43-1.08,10.87-.23,16.01,4.74,10.47,10.14,20.68.35,31.11-3.78.43-.17.68-.64.6-1.13l-.06-.34c-.05-.31-.2-.55-.46-.71-.26-.16-.53-.17-.8-.06h0ZM66.68,258.03c-3.32,1.37-6.7,3.1-10.16,4.59l.39.96c.11.26.28.45.53.54.25.1.49.08.72-.04,2.66-1.43,5.37-2.82,8.11-3.89.44-.17.69-.66.59-1.16l-.19-1h0ZM52.24,264.15c-.42.12-.85.22-1.26.3-.45.09-.76.51-.76,1v.29c0,.3.11.57.33.77.21.2.46.28.74.23.52-.08,1.02-.2,1.53-.34.27-.07.48-.26.6-.53.13-.28.13-.58.02-.86l-.11-.29c-.19-.46-.63-.69-1.08-.58Z"/>
      </g>
    </g>
  </g>
</svg>