<?xml version="1.0" encoding="UTF-8"?>
<svg id="Layer_2" data-name="Layer 2" xmlns="http://www.w3.org/2000/svg" viewBox="0 0 391.4 197.46">
  <defs>
    <style>
      .cls-1 {
        fill: #6d442f;
        fill-rule: evenodd;
      }
    </style>
  </defs>
  <g id="_Layer_" data-name="&amp;lt;Layer&amp;gt;">
    <g>
      <path class="cls-1" d="M267.92,138.96l.17.02-.06-.28-.11.26h0ZM264.02,118.79c.18.09.34.2.54.25.05.02.16-.13.24-.21-.18-.1-.36-.21-.56-.27-.05-.01-.15.14-.23.22h0ZM262.76,115.61c-.08-.22-.17-.43-.25-.64-.09.08-.27.17-.25.23.04.22.14.42.21.63.09-.07.19-.15.29-.22h0ZM262.38,98.76l.17.03-.07-.28-.1.25h0ZM115.39,76.9c.15-.29.1-.52-.18-.67-.09-.04-.27,0-.37.07-.45.3-.51.91-.11.9.23,0,.44-.19.66-.3h0ZM265.92,143.02c-.1-.23-.12-.55-.29-.65-.14-.08-.48.05-.64.2-.18.16-.32.44-.33.67,0,.23.1.55.28.67.12.08.47-.06.63-.21.17-.17.23-.44.34-.67h0ZM104.73,66.64c-.24.04-.48.07-.71.13-.11.03-.29.15-.28.19.06.23.12.55.28.63.31.15.68.21,1.03.21s.77-.58.62-.77c-.14-.16-.36-.26-.57-.36-.1-.05-.24-.02-.36-.02h0ZM267.23,124.04c-.02-.77-.42-1.38-.89-1.96-.05-.06-.25-.06-.35-.01-.12.05-.25.16-.26.26-.1.82.37,1.39.92,1.9.08.07.25.11.35.08.09-.03.16-.17.23-.27h0ZM244.25,95.86c.11-.22.34-.47.32-.67-.17-.92-.57-1.73-1.4-2.24-.09-.06-.25-.1-.33-.06-.09.06-.21.21-.2.31.05.94.44,1.76.95,2.52.1.13.45.09.67.13h0ZM239.8,108.52c-.09.1-.19.19-.23.31-.04.12-.04.27,0,.37.56,1.4,1.72,2.23,2.93,2.98.05.02.2-.14.3-.22-.88-1.1-1.76-2.21-2.65-3.31-.07-.08-.23-.09-.35-.13h0ZM263.28,146.63c-.08-.1-.14-.26-.24-.29-.21-.06-.56-.16-.66-.06-.81.81-1.58,1.67-1.76,2.87-.02.09.09.23.18.31.07.06.22.13.28.09,1.06-.56,1.72-1.48,2.19-2.54.05-.11,0-.25,0-.38h0ZM256.31,155.52c.11,0,.24.03.31-.03.99-.65,1.68-1.55,2.19-2.62.05-.11.03-.26,0-.38-.03-.12-.09-.25-.18-.32-.07-.05-.23-.08-.29-.03-1.07.78-1.64,1.92-2.18,3.08-.03.06.1.2.16.3h0ZM243.84,126.92c-1.36.75-2.52,1.71-3.43,2.93-.06.09-.09.26-.06.37.12.33.33.39.58.19,1.21-.94,2.1-2.15,2.9-3.48h0ZM275.05,22.87c-.26-.31-.38-.56-.58-.65-.19-.09-.51-.09-.7,0-.62.29-.88.88-1.07,1.5-.12.39,0,.74.33,1.01.37.3,1.06.21,1.3-.24.29-.54.51-1.12.73-1.62h0ZM238.78,169.15c-.09.4-.13.76-.11,1.11l-2.71.7c-.17-.04-.34,0-.43.11l-1.65.43-1.68.21,1.29-1.5c4.72-5.45,9.22-11.1,13.45-16.93,3.24-4.45,6.41-8.95,9.65-13.41.94-1.28,1.81-2.54,1.74-4.25-.03-.69.52-1.16,1.19-1.41.36-.13.74-.26,1.07-.46.63-.4.95-1.41.63-2.11-.28-.58-.65-1.13-.99-1.68-.2-.32-.78-.37-1.04-.13-.28.28-.59.53-.84.82-1.68,2.01-3.31,4.08-5.04,6.04-3.29,3.76-6.24,7.77-9.11,11.85-3.46,4.94-7.1,9.73-11.05,14.31-1.78,2.09-3.55,4.2-5.37,6.26-.97,1.11-1.97,2.2-2.79,3.44l-1.36.16-1.02-.4c1.82-2.12,3.65-4.24,5.47-6.37,5.37-6.27,10.68-12.59,15.28-19.48,2.99-4.47,6.32-8.69,9.93-12.69,1.76-1.95,3.33-4.06,4.95-6.12,1.21-1.55,2.38-3.12,3.56-4.7.32-.44.45-.94.26-1.47-.04-.12-.13-.24-.23-.3-.1-.05-.27-.05-.33.01-.4.33-.85.63-1.13,1.04-1.63,2.4-3.64,4.46-5.75,6.44-3.73,3.5-7.1,7.35-10.11,11.5-1.84,2.55-3.93,4.9-6,7.27-4.74,5.42-9.67,10.68-13.56,16.82-1.53,2.42-3.51,4.57-5.31,6.83h0s-1.92-.75-1.92-.75c3-3.74,5.91-7.56,8.65-11.51.21-.29.19-.74.28-1.11.52.03.69-.31.8-.74.29-.27.58-.52.86-.8.5-.44.72-.98.63-1.65.45-.06.7-.32.83-.74.29-.26.58-.53.87-.79.68-.71,1.38-1.39,2.01-2.14.2-.24.19-.67.29-1.03.56.08.8-.21.82-.74.24-.09.56-.11.72-.27,3.73-3.99,7.26-8.14,10.27-12.71.06-.1.05-.25.06-.38,1.5-.97,2.63-2.22,3.09-3.99.34-.17.75-.27,1-.52,1.89-1.79,3.77-3.59,5.62-5.42,2.04-2.02,3.74-4.33,5.35-6.69.14-.2.24-.48.23-.72,0-.21-.17-.45-.31-.63-.06-.06-.29-.09-.37-.03-.39.31-.81.62-1.14,1-3.34,3.98-6.68,7.97-10,11.98-.21.27-.21.72-.33,1.09-1.63.97-2.29,1.76-3.21,3.87-1,.18-1.5.99-2.05,1.7-2.8,3.58-5.58,7.18-8.54,10.65-.23.27-.27.71-.39,1.06-.53.03-.72.35-.76.83-1.28.69-2.04,1.74-2.29,3.17-.49.04-.73.37-.87.79-.28.24-.56.49-.83.74-.61.39-.74.97-.63,1.64-.49.04-.75.35-.87.8-.49,0-.75.25-.8.73-1.23.34-1.87,1.38-2.61,2.27-1.09,1.31-2.11,2.68-3.16,4.02l-4.53,5.75-.96-.39-3.19-2.51c.96-1.31,1.88-2.65,2.86-3.96.78-1.05,1.61-2.06,2.45-3.06.51-.6,1.1-1.12,1.59-1.74,3.8-4.85,7.58-9.72,11.38-14.57,1.14-1.44,2.35-2.81,3.5-4.24.23-.28.41-.7.4-1.05,0-.34-.24-.72-.49-.98-.26-.3-.71-.43-1.05-.17-.52.39-1.05.8-1.46,1.29-1.15,1.43-2.21,2.93-3.35,4.37-3.99,5.03-8.02,10.04-11.99,15.09-1.62,2.06-3.11,4.21-4.66,6.32-.24.31-.44.65-.68.97l-.27.34-.76-.6-6.74,5.05c-.05-.21-.15-.41-.31-.57-.35-.38-.71-.76-1.1-1.1-1.66-1.48-3.11-3.14-4.46-4.9-.31-.41-.64-.82-.97-1.22-.21-.27-.83-.34-1.06-.13-2.07,1.81-3.98,3.74-5.23,6.26,1.24,2.32,3.56,3.48,5.21,5.29l.09.09-5.07,1.48-11.04-1.63-2.84-2.13c.32-.33.66-.65.99-.98,1.6-1.56,2.99-3.29,4.17-5.02.15-.73-.17-1.15-.48-1.56-2.1-2.68-3.88-5.61-6.23-8.1-1.07-1.14-1.89-2.51-2.86-3.73-4.18-5.23-8.12-10.62-12.08-16.01-1.55-2.11-3.17-4.18-4.87-6.18-4.58-5.4-9.23-10.74-13.83-16.12-1.45-1.7-2.83-3.44-4.24-5.17-3.16-3.87-6.74-7.34-10.16-10.97-2.52-2.66-5.08-5.3-7.63-7.93-.27-.28-.59-.53-.94-.69-.14-.06-.59.13-.6.25-.18,1.29-.17,2.63-.48,3.89-.38,1.6.2,3.14,0,4.7-.17,1.56-.47,3.12,0,4.68.04.12.08.26.05.39-.7,3.82.96,7.52.55,11.32,0,.13,0,.27.02.4.56,2.56.98,5.12.83,7.77-.06.87.37,1.79.69,2.64.64,1.74.87,3.56,1.14,5.37.04.24.02.54-.08.76-.09.19-.34.4-.54.41-.2.02-.55-.12-.63-.29-.23-.46-.37-.97-.5-1.47-.34-1.26-.59-2.55-1.01-3.79-.64-1.88-1.01-3.78-.97-5.78.02-.77-.17-1.55-.28-2.34-.13-1.03-.33-2.06-.41-3.1-.15-1.96-.05-3.91-.79-5.81-.28-.69-.13-1.55-.17-2.34-.19-3.8.03-7.6.05-11.4,0-2.75-.04-5.51-.07-8.26,0-.52-.12-1.04-.16-1.52-.34-.06-.65-.22-.8-.12-2.61,1.49-5.21,3.02-7.81,4.54-3.98,3.67-9.09,5.68-13.33,8.99-1.01.79-2.31,1.22-3.47,1.82-2.56,1.32-5.15,2.55-7.45,4.34-1.44,1.13-3.07,2.03-4.7,2.86-2.94,1.5-5.59,3.4-8.33,5.19-.34.21-.59.52-.85.73-.43,1.8-.14,3.51.13,5.17.3,1.95.4,3.9.51,5.86.07,1.57.16,3.13.4,4.7.24,1.53.04,3.13.16,4.69.11,1.56.39,3.12.56,4.68.06.51.05,1.05.02,1.57-.15,1.97.07,3.92.43,5.86.09.5.1,1.04.05,1.55-.02.21-.25.52-.44.57-.19.06-.51-.1-.69-.24-.19-.16-.35-.4-.43-.64-.59-1.89-.94-3.8-.91-5.8.04-2.36,0-4.71-.66-7.02-.17-.62-.12-1.3-.17-1.95-.3-4.31-.55-8.62-.94-12.93-.11-1.29-.58-2.54-.91-3.8-.07-.3-.7-.66-.94-.54-1.72.91-3.63,1.47-5.15,2.76-.81.69-1.7,1.22-2.71,1.55-1.18.39-2.5-.29-2.78-1.49-.12-.51-.18-1.03-.2-1.55-.04-.83.24-1.55.94-2.05,1.73-1.18,3.43-2.41,5.22-3.52,4.12-2.58,8.02-5.46,11.76-8.55,1.53-1.26,3.12-2.38,4.88-3.29,3.26-1.7,6.32-3.71,9.35-5.79,1.84-1.26,3.76-2.41,5.73-3.45,2.55-1.34,5.1-2.67,7.25-4.66,1.34-1.25,3.12-1.93,4.37-3.31.28-1.16-.38-2.31.15-3.48.41-.92.09-1.76-.87-2.32-1.36-.8-2.66-1.66-4.08-2.56-.45.11-.95.26-1.45.35-.61.11-1.2-.11-1.25-.62-.12-1.34-.83-2.14-2.01-2.63-.24-.1-.45-.29-.68-.4-2.85-1.34-5.55-2.88-7.81-5.18-1.07-1.1-2.59-1.78-3.93-2.58-1.59-.94-3.04-2.03-4.37-3.32-1.13-1.09-2.37-2.07-3.58-3.07-.3-.25-.67-.57-1-.57-1.55,0-2.32-.93-2.97-2.16-.16-.34-.5-.61-.81-.84-1.69-1.23-3.39-2.47-5.13-3.63-.53-.35-1.23-.43-1.83-.69-.51-.23-.85-.67-.82-1.22.05-1.04.13-2.09.31-3.12.09-.49.44-.94.72-1.38.26-.42.98-.66,1.38-.45,1.04.55,2.08,1.11,3.09,1.72,1.35.81,2.57,1.92,4.02,2.43,1.57.55,3.33.59,5.02.8,1.43.17,2.87.26,4.31.37.65.05,1.34-.03,1.96.13,2.87.71,5.74.35,8.61.06.78-.08,1.57-.19,2.35-.17,3.29.12,6.54-.28,9.82-.38,3.41-.11,6.78-.57,10.19-.86.78-.06,1.57-.21,2.34-.14,3.69.33,7.31-.26,10.94-.79.78-.11,1.56-.17,2.34-.2,3.02-.11,6.03-.17,9.04-.29,1.18-.05,2.36-.18,3.52-.33,4.81-.63,9.62-1.22,14.42-1.94,4.28-.64,8.56-1.18,12.87-1.65,1.46-.16,2.79-.64,3.95-1.6,1.42-1.17,2.85-2.31,4.29-3.44,1.6-1.25,2.7-1.46,4.31.58.47.61.8,1.33,1.16,1.95,1.1.47,2.14.21,3.18.08,9.25-1.09,18.43-2.61,27.51-4.63,7.16-1.59,14.26-3.42,21.39-5.14.77-.18,1.53-.4,2.29-.58,6.75-1.62,13.5-3.24,20.25-4.87,4.1-.37,7.81-2.14,11.74-3.14,1.02-.25,1.96-.73,2.91-1.19.46-.23.97-.54,1.21-.94,1.76-2.91,3.91-5.61,4.94-8.89.79-2.52,2.07-4.82,3.06-7.24.15-.36.33-.71.52-1.06.44-.76,1.46-1.17,2.4-.96.51.11,1.01.24,1.53.39,3.21.92,3.63,3.53,2.87,6.26-.78,2.77-1.73,5.49-2.6,8.23-.04.13-.09.25-.1.38-.5,4.81-1.64,9.59-.83,14.46.1.64.32,1.27.52,1.89.23.69.9.97,1.56.64.35-.17.72-.33,1.03-.57.89-.68,1.92-.77,2.98-.79.89-.02,1.51.27,1.62.79.2.92-.24,1.98-1.02,2.33-1.07.48-2.16.92-3,1.29-.58.62-.53,1.14-.57,1.66-.16,2.35-.34,4.7-.56,7.05-.23,2.35-.33,4.66.15,7.03.62,3.1.36,6.28-.06,9.4-.61,4.41-1.2,8.83-2.05,13.2-1.01,5.28-2.46,10.46-5.08,15.23-1.01,1.84-1.99,3.7-2.87,5.6-1.01,2.15-2.27,4.14-3.78,5.96-.5.61-1,1.2-1.49,1.82q-1.89,2.34-.67,4.86c2.72,5.67,5.13,11.47,6.96,17.5,1.02,3.3,1.16,6.68.93,10.1-.05.79-.22,1.57-.18,2.35.07,2.02-.48,3.89-1.28,5.7-.96,2.16-1.94,4.3-3.44,6.15-.41.51-.75,1.07-1.1,1.63-1.46,2.35-3.24,4.44-5.14,6.45-1.17,1.23-2.37,2.46-3.39,3.81-2.29,3.04-5.06,5.68-7.22,8.8-.15.22-.34.41-.54.58-.21.17-.4.34-.6.52l-.12-.06-2.73-2.54c1.11-1.14,2.06-2.37,2.4-4.06.2-.92.92-1.58,1.64-2.17,3.07-2.47,5.86-5.24,8.52-8.13,3.06-3.32,5.37-7.12,6.89-11.35.65-1.81,1.21-3.71,1.23-5.8-.3.13-.59.17-.62.28-.77,2.54-2.1,4.78-3.52,6.99-1.77,2.76-3.39,5.61-5.57,8.08-.17.19-.32.42-.47.62-.85,1.1-.92,2.79-2.52,3.32-1,1.03-1.99,2.08-3.02,3.09-1.97,1.92-3.91,3.86-5.46,6.16-.35.51-.71,1-1.08,1.49l-1.39-1.3-4.86,2.92c.18-.48.18-.99,0-1.54-.49-1.46-.98-2.93-1.55-4.66-1.45,1.02-2.06,2.11-2.11,3.48-.06,1.38.04,2.72.81,3.89l-2.06.54-.87-.85h0ZM268.47,128.67c-.09,1.02,0,2.03.45,2.98.05.12.14.22.2.33.17.34.76.58.96.38.16-.17.39-.45.35-.63-.24-1.11-.54-2.21-.87-3.29-.05-.15-.42-.3-.63-.27-.17.03-.3.31-.45.5h0ZM256.96,111.01c-2.71,1.58-4.05,2.96-5.54,5.19-.08.12.1.42.16.64.24-.08.53-.08.67-.24,1.58-1.85,3.14-3.73,4.71-5.6h0ZM262.95,135.24c-.24.06-.53.05-.69.2-.63.55-.89,1.29-.73,2.1.21,1.01.59,1.97,1.26,2.79.29.35,1.11.29,1.3-.17.15-.34.37-.77.29-1.08-.31-1.24-.74-2.46-1.14-3.67-.02-.09-.21-.12-.31-.17h0ZM155.39,118.79c.76,0,1.2-.47,1.58-1.02.43-.61.45-1.32-.02-1.79-.63-.66-1.29-1.28-1.96-1.9-.36-.34-1.08-.05-1.26.45-.52,1.35-.42,2.56.77,3.54.3.25.6.49.89.72h0ZM263.02,129.59c.11.02.28.1.34.05.98-.72,1.74-1.62,1.79-2.88.03-.83-.44-1.5-1.12-1.95-.17-.12-.54-.1-.73,0-.34.18-.64.45-.89.74-.75.86-1,1.82-.34,2.86.22.33.4.67.62.98.06.1.21.14.32.21h0ZM235.71,88.12c3-3.99,3.02-4.05,2.59-8.07-.04-.37-.13-.74-.19-1.1-.68.03-.93.46-1.02.99-.44,2.54-.86,5.07-1.37,8.18h0ZM239.93,95.47c-.02-.23,0-.36-.04-.49-.08-.23-.14-.56-.31-.68-.17-.11-.55-.11-.74,0-1,.62-1.86,1.41-2.48,2.43-.11.19-.16.58-.04.73.64.8,1.34,1.58,2.05,2.33.06.06.55-.12.59-.26.35-1.38.66-2.78.96-4.08h0ZM235.18,125.11c.29-.21.63-.4.91-.67,1.67-1.65,3.34-3.31,4.97-4.99.3-.31.18-.72-.08-1.05-.29-.36-.76-.5-1.02-.29-1.98,1.53-3.73,3.28-5.03,5.43-.2.31-.21.74-.26,1.12-.02.1.08.25.17.34.06.06.19.07.34.12h0ZM244.79,107.86c.23-.11.51-.17.67-.33,1.76-1.73,3.5-3.47,5.23-5.23.16-.17.22-.45.29-.69.03-.11.02-.31-.05-.36-.19-.14-.48-.35-.63-.29-.46.21-.95.45-1.27.82-1.57,1.73-3.09,3.5-4.61,5.27-.08.08-.09.25-.09.37,0,.12.07.24.14.31.07.07.2.09.31.13h0ZM246.66,164.55c.22-.08.5-.12.65-.26.61-.58.9-1.34.69-2.14-.32-1.26-.77-2.5-1.18-3.74-.11-.33-.72-.42-.97-.14-.35.38-.73.76-1,1.19-.28.44-.5.94.08,1.36.58.42.7,1.04.84,1.7.13.62.34,1.24.55,1.86.03.08.22.11.34.17h0ZM267.93,134.37c-.48-.95-1.17-2.3-1.9-3.63-.05-.08-.47-.06-.64.04-.58.38-.86.99-.8,1.65.13,1.42.58,2.76,1.46,3.91.11.15.46.26.64.21.66-.19,1.41-1.22,1.24-2.18h0ZM253.99,104.02c-.04-.12-.06-.26-.12-.37-.22-.45-.92-.62-1.28-.32-2.29,1.91-4.19,4.19-6.01,6.54-.06.08-.06.25-.04.37.03.11.1.23.2.29.08.06.26.1.31.05,2.41-1.94,4.75-3.93,6.86-6.19.07-.08.05-.25.08-.37h0ZM259.3,146.54c-.36-.39-.75-.63-.85-.95-.49-1.64-.4-3.29.15-4.91.07-.22.29-.44.5-.56.18-.11.57-.18.67-.07.43.45.87.92,1.16,1.47.61,1.08.68,2.21-.12,3.25-.46.59-.98,1.14-1.51,1.78h0ZM192.06,147.09c.12.84.18,1.49.33,2.11.04.18.33.33.53.45.09.05.27.02.35-.04,1.18-.86,2-2.02,2.6-3.33.09-.21.05-.52-.02-.76-.24-.77-.66-1.39-1.45-1.72-.5-.2-1.35.31-1.75,1.24-.31.69-.43,1.46-.59,2.04h0ZM205.61,121.41c.43-.06.71-.04.93-.15,1.05-.56,1.92-1.32,2.47-2.4.09-.18.04-.53-.07-.72-.69-1.19-1.96-1.47-2.96-.64-.79.66-1.55,1.38-2.27,2.13-.12.11-.09.59.04.68.63.43,1.32.79,1.87,1.1h0ZM155.06,127.27c.8.8,1.4,1.48,2.08,2.05.42.35.97.27,1.47.02.75-.36,1.18-1.02,1.52-1.72.14-.3.15-.81-.02-1.07-.72-1.06-1.57-2.03-2.82-2.47-1.04.81-1.53,1.85-2.23,3.18h0ZM248.34,98.65c-.26-.16-.55-.41-.88-.51-.19-.06-.54.08-.69.25-1.53,1.57-3.21,2.94-4.94,4.28-.18.15-.31.41-.42.64-.17.4-.02.74.23,1.06.27.38.73.54,1,.36,2.12-1.49,4.06-3.16,5.6-5.25.13-.17.07-.48.11-.83h0ZM253.02,148.56c.51-1.19,1.17-2.13,2-2.97.21-.22.87-.11,1.02.2.45.93.92,1.85,1.29,2.82.12.33.05.8-.08,1.14-.46,1.08-1.11,2.06-2.02,2.83-.09.08-.58-.06-.63-.18-.28-.73-.42-1.5-.71-2.22-.22-.58-.59-1.11-.87-1.61h0ZM230.48,117.25c.12,0,.29.04.37-.03,1.75-1.34,3.47-2.71,4.85-4.44.54-.65.45-1.45.22-2.22-.15-.49-.93-.75-1.25-.4-1.57,1.72-3.14,3.43-4.67,5.17-.38.42-.25.99-.05,1.47.08.18.35.3.53.45h0ZM249.56,113.68c.25-.03.58.04.72-.1,2.16-2.03,4.3-4.08,6.42-6.14.24-.23.15-.72-.15-1.03-.4-.41-1.03-.54-1.37-.22-1.97,1.86-3.93,3.73-5.87,5.63-.24.24-.29.69-.41,1.04-.09.29.31.78.65.82h0ZM231.23,109.4c-.05-.25-.05-.53-.18-.74-.32-.55-.7-1.09-1.09-1.6-.32-.42-1.07-.38-1.29.09-.84,1.75-1.65,3.51-2.45,5.28-.1.23-.13.51-.1.76.03.24.1.55.27.68.15.12.56.15.68.03,1.31-1.25,2.6-2.52,3.87-3.8.17-.17.21-.46.3-.7h0ZM222.5,111.78c-.11,0-.3-.02-.34.04-.79,1.2-1.66,2.3-2.93,3.06-.23.14-.23.69-.33,1.06-.02.11,0,.27.05.39.47,1.07.9,2.17,1.44,3.2.14.24.75.49.97.39,1.19-.61,2.03-1.59,2.58-2.8.04-.08-.27-.44-.42-.45-.7-.02-1.29-.14-1.62-.84-.31-.67-.13-1.28.22-1.86.2-.34.5-.61.69-.94.12-.21.21-.5.16-.73-.05-.2-.3-.36-.46-.53h0ZM176.42,133.45s.03-.17.03-.3c-.04-.91-.67-1.36-1.37-1.72-.55-.28-1.16.01-1.58.72-.6,1.01-1.21,2-1.74,3.04-.15.31-.21.81-.05,1.1.83,1.64,1.89,2.22,3.21.74.92-1.05,1.33-2.19,1.5-3.58h0ZM251.51,151.15c-.28.08-.6.08-.73.24-2.25,2.79-2.36,2.48-1.51,5.5.24.86.33,1.76.49,2.66,1.61-.55,1.87-.89,3.3-4.11-.5-1.39-1.03-2.84-1.55-4.29h0ZM246.4,90.45c.58,1.03.59,1.09.95,1.07.36-.02.82-.03,1.08-.24,2.05-1.66,3.09-3.8,2.92-6.46-.05-.9-.18-1.8-.27-2.71-.04-.35-.2-.47-.63-.29-1.31,2.8-2.68,5.71-4.04,8.63h0ZM238.98,115.11c-.18-.85-1.02-1.26-1.55-.87-2.12,1.57-3.99,3.38-5.38,5.64-.08.11-.12.23-.18.35-.28.55-.08,1.19.54,1.72.37.33.93.22,1.3-.4.92-1.47,2.18-2.62,3.39-3.82.57-.54,1.13-1.09,1.61-1.71.22-.27.22-.71.27-.92h0ZM207.56,134.17c0-.09.04-.23,0-.35-.4-.96-.83-1.9-1.67-2.58-.17-.13-.55-.23-.71-.13-1.34.82-2.37,1.97-3.27,3.24-.12.18-.13.52-.05.74.13.36.33.7.58,1,1.59,2.01,1.88,2.03,3.53.28.45-.47.88-.96,1.28-1.46.16-.19.22-.46.33-.74h0ZM213.67,120.52c.48,1.33.99,2.79,1.53,4.25.16.45.95.58,1.33.22.94-.89,2.01-1.66,2.58-3.06-.66-1.17-1.36-2.41-2.06-3.64-.26-.45-1-.6-1.36-.29-.79.68-1.62,1.32-2.02,2.53h0ZM165.92,129.92c.88,1.12,1.58,2.05,2.3,2.95.41.5,1.28.53,1.75.11.8-.69,1.5-1.46,1.62-2.56.04-.5.05-1.1-.19-1.5-.67-1.13-1.66-1.96-2.9-2.44-.19-.07-.58.03-.68.18-.61.98-1.18,1.99-1.9,3.26h0ZM234.14,99.7c-1.09,1.06-2.21,2.13-3,3.4.07.37.08.63.17.88,1.57,4.16,2.01,3.64,4.38.91.34-.4.69-.79.97-1.24.28-.46.31-1.02.02-1.49-.63-.98-1.2-2.03-2.54-2.47h0ZM215.42,112.69c-.08-.23-.11-.58-.27-.67-.91-.5-1.83-.97-2.78-1.38-.51-.22-1.09-.09-1.45.32-.94,1.09-1.83,2.21-2.72,3.33-.19.24-.03.84.28,1.04.66.42,1.32.85,2.01,1.21.5.27,1.06.2,1.46-.18,1.14-1.08,2.24-2.19,3.34-3.3.08-.08.08-.25.13-.37h0ZM142.95,81.56c-.4-.05-.97.48-1.03.97-.14,1,.08,1.7.8,1.99,1.91.78,3.84,1.53,5.79,2.24.55.2.98-.18,1.34-.58,1.02-1.1.97-1.93-.28-2.4-2.06-.78-4.15-1.46-6.23-2.18-.12-.04-.26-.03-.39-.04h0ZM244.81,122.48c-.08.2-.14.65-.39.87-2.04,1.79-4.11,3.55-6.18,5.31-.52.44-1.26.29-1.63-.37-.17-.29-.27-.86-.12-1.04,1.29-1.44,2.6-2.87,3.99-4.22.73-.72,1.58-1.33,2.42-1.94.74-.52,1.86.21,1.91,1.39h0ZM202.29,139.3c-.19-.27-.44-.72-.75-1.1-.92-1.11-2.21-1.08-3.12-.35-.61.48-1.18,1.03-1.73,1.58-1.16,1.15-1.22,1.79-.25,3.04.4.51.87.96,1.36,1.38.15.12.55.12.7,0,1.52-1.05,2.72-2.4,3.73-3.94.07-.09.03-.25.07-.61h0ZM281.7,8.54c-.08-.24-.17-.49-.24-.74-.08-.3-.28-.43-.59-.34-.12.03-.27.11-.32.22-1.58,3.3-3.16,6.61-4.7,9.92-.17.35-.27.75-.29,1.13,0,.22.13.53.3.67.16.14.5.22.69.14.88-.34,1.53-.98,2.01-1.79,1.54-2.64,2.39-5.52,3.19-8.42.06-.24-.02-.52-.04-.78h0ZM256.15,40.76c.24.09.52.32.69.24,1.33-.53,2.64-1.1,3.95-1.69.73-.33,1.37-.84,1.73-1.55,1.24-2.45,2.42-4.92,3.62-7.39.04-.08-.07-.34-.09-.34-.22.03-.5.02-.63.16-.76.89-1.44,1.86-2.24,2.72-1.53,1.62-3.11,3.18-4.66,4.78-.9.93-1.99,1.72-2.37,3.06h0ZM266.5,40.25c.23-.07.58-.07.69-.23.6-.86,1.23-1.71,1.68-2.64,1.08-2.23,2.09-4.5,3.12-6.76.28-.62.38-1.24.2-1.9-.11-.45-.93-.76-1.28-.47-.2.17-.48.29-.59.49-1.59,2.86-3.28,5.66-4.37,8.76-.13.36-.25.74-.35,1.11-.11.44.48,1.49.91,1.64h0ZM211.46,122.94c-.12.05-.24.08-.34.16-1.3,1.1-2.28,2.47-3.1,3.93-.23.42-.32,1-.27,1.49.14,1.3.63,2.5,1.35,3.58.1.14.55.19.7.08,1.62-1.12,2.76-2.7,3.88-4.26.19-.25.15-.79.02-1.11-.48-1.19-1.03-2.36-1.6-3.51-.09-.18-.43-.24-.65-.36h0ZM199.41,110.13c.25.31.43.7.74.88.78.46,1.64.78,2.42,1.24,1.58.92,2.77.46,4.22-.75.39-.32.64-.8.94-1.23.58-.84.46-1.51-.35-1.9-.82-.39-1.66-.74-2.49-1.1-3.05-1.32-3.38-1.57-5.06,1.76-.16.34-.28.71-.42,1.1h0ZM165.18,90.64c-.08-.26-.07-.6-.23-.73-.49-.4-1.01-.85-1.6-1.04-2.83-.93-5.68-1.8-8.52-2.68-.24-.07-.51-.1-.76-.14-.57-.09-1.37.6-1.65,1.41-.23.6.04,1.36.66,1.64,3.06,1.38,6.14,2.76,9.23,4.09.3.13.82.06,1.1-.12.88-.58,1.45-1.44,1.78-2.43h0ZM281.15,33.67c-2.37.89-4.47,1.96-6.8,2.36-.21.04-.47-.15-.67-.29-.08-.05-.08-.26-.04-.38.36-1.28,1.05-2.4,1.81-3.46.7-.97,1.32-2,1.59-3.15.63-2.73,2.23-5,3.29-7.41.49-.14.75-.04.72.26-.21,2.1-.16,4.17.06,6.27.18,1.81.04,3.65.04,5.78h0ZM237.88,134.07c-.1-.32-.11-.65-.27-.78-1.89-1.45-3.2-3.41-4.59-5.29-.93-1.26-1.89-2.49-2.93-3.66-1.41-1.56-2.75-3.13-3.09-5.31-.02-.09-.53-.25-.63-.17-.57.52-1.13,1.07-1.62,1.67-.34.42-.37.97-.17,1.48.44,1.11,1.03,2.11,2.12,2.71.6.34.99.84,1.14,1.5.41,1.91,1.65,3.27,3.17,4.3,1.74,1.18,3.3,2.53,4.78,4.02.17.18.41.35.65.41.23.06.55.03.74-.11.29-.21.5-.54.71-.79h0ZM176.72,99.4c.23-.11.54-.16.68-.34.74-.93,1.28-1.96,1.31-3.19,0-.23-.12-.52-.3-.69-.27-.27-.6-.48-.95-.65-2.72-1.32-5.68-1.93-8.54-2.85-.5-.16-1.06.02-1.41.46-.47.61-.91,1.26-1.32,1.91-.23.35.02,1.22.34,1.43.22.14.43.31.67.41,3.05,1.17,6.08,2.33,9.13,3.48.12.04.26.02.39.02h0ZM191.53,108.6c-.3.18-.59.27-.71.46-.26.45-.46.94-.63,1.43-.35.98-.09,1.84.69,2.47,2.56,2.05,5.3,3.84,8.31,5.2.51.23,1.04.23,1.5-.04,1.02-.6,2-1.26,2.71-2.24.2-.29.13-.83-.2-1.03-1.25-.72-2.49-1.45-3.76-2.13-1.03-.57-2.11-1.05-3.14-1.62-1.25-.7-2.48-1.47-3.73-2.17-.31-.18-.71-.23-1.02-.33h0ZM210.7,146.62c-1.41.76-2.41,1.78-3.21,2.97-.17.24-.15.79.02,1.07,1.05,1.79,2.16,3.55,3.27,5.3.28.43.67.79,1.03,1.16.35.36,1.09.37,1.43.05,1.63-1.52,2.89-3.33,4.08-5.23-1.6-2.65-4.14-3.94-6.61-5.31h0ZM225.41,129.52c-.23.11-.54.15-.69.33-1.31,1.61-2.6,3.24-3.89,4.87-.52.65-.53,1.45.03,2.15.97,1.21,2.09,2.32,2.99,3.59,1.39,1.96,1.99,1.44,3.16-.09.87-1.13,1.73-2.28,2.52-3.47,1.39-2.1,1.78-2.83-.6-4.41-1.06-.7-1.89-1.77-2.83-2.65-.18-.16-.46-.22-.68-.32h0ZM183.02,162.12c.33-.1.66-.09.8-.26,3.73-4.23,3.3-3.66.95-7.62-.46-.79-.98-1.55-1.57-2.25-.75-.9-1.45-1.86-2.71-2.38-.52.23-1.11.47-1.7.75-1.05.49-1.52,1.35-1.6,2.49-.09,1.35.18,2.57.98,3.7,1.43,2.04,3.08,3.88,4.84,5.57h0ZM117.73,65.98c-.33,1.08.55,1.74.71,2.61.2,1.03.49,2.03.75,3.04.11.4.9.63,1.35.38,5.04-2.76,9.97-5.72,15.23-8.09.12-.05.2-.17.27-.27.06-.1.12-.23.16-.35.06-.26-.09-.52-.41-.47-5.68.89-11.36,1.81-17.03,2.73-.37.06-.71.29-1.02.41h0ZM182.42,96.83c-.31.14-.59.18-.77.35-.77.74-1.22,1.67-1.38,2.73-.1.61.22,1.43.74,1.69,1.75.88,3.5,1.77,5.27,2.59,2.94,1.38,6.01,2.53,8.83,4.22.11.06.23.11.35.16.47.22,1.05.1,1.44-.27.68-.64,1.15-1.4,1.45-2.29.21-.65.05-1.42-.5-1.72-2.27-1.29-4.47-2.71-6.9-3.68-2.18-.87-4.36-1.75-6.41-2.91-.68-.38-1.44-.59-2.11-.87h0ZM179.96,135.15c-.69.27-.92.71-1.04,1.24-.31,1.31-.87,2.43-1.97,3.29-.69.54-.66,1.32-.17,2.1.57.92,1.24,1.67,2.36,1.91.82.17,1.46.71,1.7,1.49.51,1.69,1.71,2.91,2.77,4.23,1.39,1.72,2.81,3.42,4.24,5.12.08.09.21.14.33.2.27.16.47.08.69-.16.57-.64.74-1.4.58-2.19-.25-1.15-.53-2.29-.91-3.41-.54-1.62-.94-3.26-.74-4.99.08-.69-.14-1.31-.58-1.82-2.22-2.58-4.83-4.74-7.25-7.01h0ZM61.72,113.62c1.53-.48,6.06-2.6,7.44-3.48,4.54-2.86,8.86-6.05,13.22-9.17,3.2-2.29,6.33-4.65,9.82-6.48.81-.42,1.62-.93,2.25-1.56,1.99-1.97,4.43-3.23,6.8-4.61,1.7-.98,3.4-1.96,5.05-3.04.86-.57,1.58-1.34,2.35-2.04.07-.07.11-.29.05-.36-.14-.18-.3-.39-.51-.45-.53-.17-1.06-.07-1.49.25-2.19,1.65-4.76,2.75-6.79,4.65-.86.79-1.89,1.4-2.92,1.98-2.5,1.42-5.04,2.76-7.56,4.16-.68.38-1.41.75-1.97,1.27-1.47,1.36-3.22,2.25-4.9,3.26-1.9,1.15-3.84,2.24-5.76,3.39-1.12.67-2.19,1.39-3.17,2.3-1.93,1.78-4.05,3.3-6.23,4.77-1.95,1.31-3.76,2.84-5.62,4.29-.18.14-.26.41-.35.63-.02.04.17.17.28.25h0ZM138.97,85.96c.39.35.73.72,1.13,1.02.72.55,1.47,1.09,2.24,1.58.55.35,1.14.66,1.74.89,3.53,1.38,6.91,3.15,10.51,4.36.75.24,1.46.57,2.16.93,2.58,1.3,5.11,2.65,7.75,3.79,1.2.52,2.36,1.16,3.43,1.89,3.38,2.28,6.95,4.19,10.66,5.86,2.28,1.02,4.49,2.13,6.5,3.62.31.23.67.48,1.03.52.34.04.84-.09,1.02-.34.4-.5.68-1.1.92-1.7.27-.64-.03-1.41-.65-1.63-3.08-1.12-5.92-2.78-9.04-3.78-.48-.16-.98-.37-1.39-.68-1.81-1.38-3.92-2.08-6.05-2.7-2.16-.63-4.2-1.49-6.13-2.6-2.61-1.5-5.32-2.82-8.12-3.92-1.22-.48-2.41-1.03-3.55-1.68-2.96-1.7-6.16-2.86-9.32-4.14-1.44-.58-3.07-.65-4.41-1.55-.05-.03-.21.12-.43.26h0ZM177.81,146.06c-2.05-2.32-3.96-4.47-5.87-6.6-2.44-2.72-4.89-5.44-7.36-8.14-.53-.58-1.1-1.11-1.66-1.66-.22-.21-.9-.17-1.08.04-.75.9-1.4,1.87-1.81,3.03.15.35.23.75.45,1.05,4.17,5.86,8.69,11.46,13.22,17.04.14.18.45.24.79.4.42-.8.79-1.63,1.28-2.39.57-.87,1.23-1.68,2.04-2.77h0ZM187.78,164.9c.21-.12.48-.18.63-.36,1.72-1.98,3.41-3.98,5.12-5.97,2.47-2.88,5.09-5.66,7.39-8.67,2.16-2.81,4.44-5.5,6.95-8,2.05-2.03,3.88-4.26,5.65-6.55,2.49-3.22,5.44-6.03,8.34-8.87.27-.27.52-.57.68-.92.09-.19.06-.6-.07-.72-.26-.23-.64-.38-.98-.43-.22-.03-.51.17-.69.35-1.26,1.15-2.62,2.21-3.73,3.5-5.46,6.38-11.57,12.14-17.29,18.27-2.52,2.69-4.93,5.45-7.06,8.44-.46.64-.88,1.3-1.26,1.99-1.32,2.42-2.6,4.84-3.89,7.27-.06.11-.06.27-.03.39.04.11.15.2.23.3h0ZM240.9,75.8c.09.46.12.72.2.97.02.08.14.18.23.18.12,0,.32-.04.35-.12,1.6-2.99,3.16-6.01,4.76-8.99,1.06-1.95,2.3-3.8,3.26-5.8,2.29-4.71,4.78-9.3,7.33-13.85.26-.45.44-.95.57-1.44.03-.12-.26-.47-.41-.48-.37-.01-.78.05-1.14.18-4.23,1.74-8.45,3.5-12.67,5.26-1.5.62-1.46.62-.97,2.57.18.75.27,1.55.21,2.31-.21,2.35-.49,4.68-.78,7.01-.21,1.81-.49,3.62-.72,5.43-.08.64-.19,1.32-.09,1.95.27,1.69.3,3.36-.14,4.82h0ZM267.17,22.97c-4.71,1.3-9.59,2.27-14.49,3.07-.13.02-.25.09-.38.12-5.79,1.64-11.71,2.79-17.55,4.26-1.9.48-3.79,1.04-5.7,1.47-7.8,1.73-15.57,3.54-23.39,5.23-5.4,1.16-10.86,1.78-16.29,2.59-2.84.42-5.71.68-8.56,1.08-.9.12-1.88.26-2.63.71-1.68,1-3.37,2.06-4.82,3.37-1.08.98-2.21,1.83-3.44,2.55-1.25.73-2.6,1.32-3.72,2.21-2.67,2.12-5.46,4.05-8.38,5.83-.33.2-.61.49-.89.77-.18.17-.34.39-.49.61-.06.1-.13.34-.08.36.18.12.43.3.6.26,4.73-1.04,9.47-2.06,14.17-3.24,5.08-1.28,10.16-2.53,15.18-4.02,5.9-1.75,11.86-3.3,17.96-4.25,1.79-.28,3.55-.89,5.31-1.39,2.01-.58,4-1.22,6.02-1.81,4.26-1.26,8.6-2.3,12.75-3.95,2.93-1.16,5.91-2.12,8.98-2.87,3.7-.89,7.29-2.12,10.73-3.79,1.06-.51,2.18-.89,3.32-1.19,2.55-.66,5-1.62,7.35-2.76,2.83-1.37,5.66-2.73,8.59-3.87.12-.05.21-.17.32-.23.35-.2.63-.87.37-.94-.24-.07-.48-.11-.83-.18h0ZM165.39,42.95c-1.3.09-2.61.09-3.9.27-6.09.87-12.17,1.87-18.27,2.68-4.02.52-8.09.91-12.14,1.14-2.87.16-5.75.24-8.62.49-6,.51-12.03.76-18,1.67-.25.04-.52.07-.78.07-3.4.01-6.81-.2-10.16.63-4.45.05-8.9.08-13.35.14-1.31.01-2.62.09-3.92.15-.06,0-.15.17-.18.28-.03.11-.06.3,0,.37.35.38.69.8,1.11,1.08,1.54,1.01,3.08,2,4.64,2.96,3.25,1.99,6.42,4.08,9.75,5.91,2.3,1.26,4.66,2.38,6.65,4.13.61.52,1.37.77,2.15.16,1.21-.93,2.61-1.18,4.09-1.12,2.37.1,4.72-.1,7.05-.46,1.29-.2,2.59-.26,3.91-.17,2.1.14,4.19.05,6.26-.44.63-.15,1.29-.24,1.94-.31,3.26-.3,6.49-.87,9.71-1.47,1.02-.19,2.08-.3,3.11-.28,3.44.08,6.42-.99,9.05-3.18,3.42-2.87,7.19-5.25,10.93-7.66,2.76-1.78,5.48-3.59,8.21-5.41.33-.21.62-.5.83-.82.1-.14-.03-.43-.05-.79h0ZM257.7,67.6c-.12-.66.31-1.2.6-1.76,1.15-2.21,2.36-4.38,3.5-6.6,2.1-4.08,4.25-8.13,6.21-12.27.9-1.89,2.17-3.24,4-4.13.59-.28,1.18-.6,1.78-.81,2.85-1.03,5.52-2.42,8.13-3.93.56-.33,1.11-.71,1.83-.46.07.23.22.46.22.7.02,2.22.1,4.45-.03,6.67-.17,2.76-.25,5.48.17,8.23.43,2.75.07,5.51-.28,8.23-.56,4.28-1.29,8.55-1.95,12.81-.75,4.84-2.49,9.37-4.61,13.74-1.2,2.47-2.58,4.86-3.95,7.25-1.24,2.17-2.73,4.16-4.58,5.86-.52.48-1.26.37-1.66-.25-.06-.11-.14-.22-.19-.34-1.56-2.89-2.82-5.92-3.69-9.09-.63-2.31-.56-4.71,0-7.02.38-1.55.46-3.1.64-4.66.34-2.76-.46-5.2-2.12-7.35-1.27-1.66-2.67-3.21-4.05-4.84h0ZM130.12,75.44c.45-.4.8-.77,1.22-1.07,2.65-1.91,5.3-3.84,8.01-5.68,2.92-2,5.84-4,8.84-5.83,2.13-1.29,4.44-2.22,6.9-2.76,5.49-1.23,10.96-2.54,16.46-3.8,6.26-1.44,12.41-3.23,18.56-5.07,3.89-1.16,7.84-2.04,11.84-2.75,3.1-.56,6.2-1.08,9.13-2.28,2.68-1.1,5.5-1.69,8.28-2.42,4.19-1.1,8.29-2.45,12.31-4.02,1.72-.67,3.46-1.19,5.23-1.68,4.29-1.2,8.61-2.27,12.62-4.3,1.03-.53,2.19-.85,3.33-1.13,3.46-.81,6.75-2.03,9.78-3.88.17-.1.47.03.71.08.02,0,.04.27-.02.35-1.47,1.66-2.93,3.34-4.44,4.97-1.07,1.15-2.24,2.21-3.33,3.33-1.67,1.69-3.39,3.27-5.68,4.11-.6.22-1.13.66-1.64,1.07-1.32,1.07-2.7,2.09-3.89,3.3-1.5,1.55-3.25,2.61-5.22,3.4-1.09.44-2.19.88-3.23,1.43-.44.22-.76.68-1.09,1.08-.3.35-.08,1.18.31,1.38.23.11.47.35.7.33,2.1-.2,2.61,1.26,3.1,2.82.45,1.41.61,2.84.36,4.27-.37,2.06-.83,4.1-1.32,6.14-.28,1.15-.84,2.2-1.66,3.08-.66.72-.81,1.58-.89,2.53-.29,3.39-.56,6.79-1,10.16-.47,3.64-1.37,7.2-2.57,10.67-1.66,4.82-1.68,4.81-5.24,8.54-1.54,1.61-3,3.3-4.53,4.91-1.09,1.14-2.22,2.23-3.38,3.29-.62.58-1.39.73-2.18.37-3.93-1.78-7.99-3.26-11.81-5.29-.92-.49-1.91-.85-2.87-1.25-2.42-1.03-4.81-2.1-7.03-3.52-.66-.42-1.36-.79-2.06-1.12-3.68-1.71-7.39-3.39-11.05-5.12-3.33-1.57-6.8-2.76-10.3-3.84-1.51-.47-2.94-1.04-4.37-1.7-4.05-1.85-8.34-3.12-12.53-4.61-1.23-.44-2.49-.81-3.7-1.29-5.59-2.26-11.31-4.15-17.19-5.51-.89-.2-1.77-.49-2.62-.82-.31-.12-.52-.5-.87-.85h0ZM273.17,126.25c-.59-.13-.89-.6-1.02-1.09-.61-2.32-1.99-4.25-3.17-6.29-.58-1.02-1.18-2.02-1.59-3.14-1.78-4.86-4.7-9.04-7.82-13.11-.38-.51-.94-.89-1.43-1.32-.2-.17-.51-.23-.66-.42-1.73-2.36-4.35-3.69-6.46-5.6-.53-.47-.58-1.16-.09-1.73.78-.89,1.57-1.77,2.35-2.65,1.39-1.57,1.85-3.36,1.52-5.46-.3-1.94-.35-3.91-.55-5.86-.12-1.28.4-2.3,1.24-3.19.45-.48.91-.94,1.39-1.38.8-.73,1.76-.63,2.37.23.89,1.25,1.29,2.54.63,4.05-.47,1.07-.83,2.2-1.2,3.32-.46,1.38-.69,2.79-.58,4.26.06.92.12,1.84.07,2.75-.32,5.57.35,5.17,1.72,9.55.44,1.37,1.02,2.7,1.56,4.03.19.48.38,1.07.77,1.34,1.67,1.21,2.45,3.07,3.5,4.7,1.98,3.07,4.16,6.06,5.47,9.52.7,1.83,1.29,3.71,1.83,5.59.17.61.06,1.29.08,1.94.21.31.53.6.58.93.16,1.01.25,2.04.3,3.06.02.22-.19.43-.29.65-.14-.16-.34-.29-.41-.46-.09-.23-.06-.51-.07-.76-.02-1.15-.04-2.31-.05-3.46h0ZM153.4,109.89c-.05-.11-.1-.22-.15-.33.08.08.16.17.23.25,1.49,1.46,2.93,2.98,4.48,4.37.57.5,1.41.65,2.09,1.03.77.44.48,1.47,1.04,2.05.26.29.55.56.84.81,3.7,3.12,7.36,6.29,11.14,9.32,1.61,1.3,3.29,2.62,5.49,2.87.69.08,1.11.63,1.5,1.17.45.63.8,1.36,1.34,1.9,1.93,1.95,3.91,3.86,5.89,5.77.37.35.84.62,1.26.93.41.29,1.11.28,1.46-.05.46-.46.93-.92,1.34-1.43.75-.93.67-1.45-.31-2.3-.98-.85-1.94-1.76-2.96-2.58-2.75-2.2-5.54-4.37-8.32-6.55-3.03-1.32-5.51-3.47-8.11-5.44-.42-.32-.85-.63-1.3-.89-1.49-.85-2.78-1.94-4.08-3.04-3.4-2.89-7.03-5.45-11-7.51-.59-.31-1.18-.55-1.87-.37h0ZM149.6,94.03c-.2-.04-.27-.47-.59-.22.24.05.45.1.67.14.07.11.13.25.24.31,4.37,2.62,8.76,5.2,13.09,7.87,5.01,3.09,9.85,6.43,14.88,9.49,3.8,2.3,7.52,4.76,11.27,7.14,3.82,2.42,6.79,4,10.72,5.67.6.25,1.23.47,1.85.63.73.19,1.26-.17,1.7-.7.28-.31.34-.86.08-1.06-.5-.41-.97-.92-1.54-1.16-3.17-1.32-5.93-3.33-8.8-5.14-.88-.56-1.73-1.2-2.65-1.69-5.06-2.72-9.83-5.99-15.14-8.28-1.08-.46-2.14-.99-3.18-1.55-1.27-.68-2.59-1.3-3.71-2.19-1.87-1.49-4-2.49-6.15-3.42-1.7-.72-3.31-1.55-4.85-2.56-2.42-1.58-5.01-2.82-7.91-3.29h0ZM129.08,78.35c-.06-.07-.13-.14-.2-.21.1.05.18.09.27.13,2.59,2.26,5.82,3.2,8.83,4.37.25-.11.37-.15.49-.21.11-.06.22-.12.32-.22.71-.69.59-1.49-.28-1.78-3.06-1.03-6.22-1.68-9.43-2.08h0ZM128.34,88.53l.06-.06c1.07,1.77,2.69,2.72,4.67,3.12.02.11.02.23.07.32.04.05.14.06.21.08-.11-.11-.24-.22-.35-.33-1.26-1.48-2.79-2.57-4.66-3.14h0ZM88.13,62.59c.02.46.35.63.69.81.31.17.5.12.57-.22.02-.11-.04-.3-.11-.34-.34-.14-.7-.25-1.04-.37-.7-1.29-1.82-1.96-3.22-2.27-.14-.39-.24-.44-.28-.17,0,.02.22.07.34.1.53,1.41,1.67,2.08,3.04,2.45h0ZM94.46,65.71c-.18-.38-.29-.42-.29-.12,0,.01.22.03.34.06-.11.8.47,1.02,1.03,1.26.09.03.31-.04.31-.06,0-.21.02-.53-.09-.6-.4-.23-.86-.35-1.3-.53h0ZM130.73,69.74c-.63.03-1.28.01-1.65.69-2.18.74-4.18,1.87-6.16,3.03-.09.06-.13.22-.19.33.21.09.5.32.62.25,1.79-.98,3.56-2,5.32-3.04.18-.11.24-.42.36-.64.55-.23,1.09-.46,1.64-.69l.15-.23-.09.3h0ZM170.02,43.61c.4-.09.45-.18.19-.29-.05.12-.09.24-.12.35l-.26.14.19-.21h0ZM125.98,93.18c.02.5.27.78.78.82.13.35.16.8.41,1.04,2.11,2.27,4.13,4.63,6.44,6.72.95.86,1.81,1.85,2.59,2.87,2.19,2.88,4.52,5.65,7.03,8.26,3.16,3.96,6.39,7.85,9.84,11.72.47-.45.89-.77,1.21-1.16,1.03-1.27.99-1.82-.14-3.01-1.52-1.61-3.05-3.21-4.6-4.8-.81-.84-1.65-1.65-2.47-2.47-1.36-.08-2.68.36-3.91-.2.18-.88.36-1.77.55-2.67-.11-.23-.17-.49-.32-.69-3.21-3.95-6.72-7.6-10.45-11.06-1.52-1.41-3.21-2.65-4.83-3.96-.41-.33-.85-.6-1.41-.55.01-.54-.33-.73-.8-.8-.25-.28-.49-.56-.75-.83-.27-.25-.54-.51-.81-.76-.13-.42-.46-.62-.84-.75-.27-.26-.54-.52-.81-.79,0-.1-.02-.21-.05-.29-.03-.06-.12-.07-.18-.11.11.11.21.23.31.34.27.26.54.52.81.77.19.35.38.71.84.76.05.48.29.78.81.76,0,.52.25.78.75.83h0ZM135.41,97.89c.26.29.52.58.78.87,1.61,1.76,3.21,3.52,4.8,5.24,1.09.08,2.1.16,3.1.23.02.4.12.81.03,1.17-.34,1.43,0,2.58,1.33,3.31.72.39,1.15,1.02,1.67,1.6.96,1.06,1.98,2.05,2.99,3.06.2.21.83.12,1.07-.11.96-.93,1.06-1.89.18-2.71-2.17-2.05-4.38-4.06-6.6-6.06-.17-.15-.48-.13-.74-.18-.1-.23-.15-.52-.3-.68-2.03-1.96-4.38-3.45-6.85-4.77-.2-.11-.49-.03-.75-.04,0-.53-.37-.72-.79-.86l-.16-.24.23.16h0ZM161.34,110.54c.22.35.33.4.29.12,0-.03-.24-.03-.35-.05.05-.53-.26-.75-.73-.84-.67-1.1-1.77-1.66-2.85-2.24-.29-.16-.71-.07-1.08-.11-.46-1.02-1.37-1.39-2.38-1.57-.7-1.31-1.99-1.94-3.18-2.62-.97-.55-1.82-1.45-3.1-1.32-.45-1.07-1.3-1.5-2.4-1.56-.08-.24-.1-.56-.27-.68-1.46-1.08-2.93-2.12-4.44-3.16-.18-.13-.49-.1-.74-.13-.45-1.01-1.36-1.36-2.33-1.59-.16-.14-.32-.3-.49-.42-.03-.02-.23.11-.23.11.17.38.47.3.78.23.2,1.31,1.13,1.62,2.26,1.67.18.33.29.76.57.97,1.25.93,2.53,1.82,3.84,2.67.31.2.75.19,1.12.27.53.92,1.25,1.56,2.38,1.58.04.12.04.29.12.36,1.65,1.42,3.43,2.64,5.42,3.51.23.1.5.04.75.05.39,1.12,1.26,1.54,2.38,1.58,1.09,1.32,2.06,1.89,3.94,2.33-.04.52.29.73.72.84h0ZM166.84,114.47c.28.28.55.57.83.85.47.38.97.71,1.61.7.19.69.79,1.03,1.3,1.4,1.91,1.38,3.95,2.61,5.76,4.11,1.75,1.44,3.69,2.48,5.69,3.46.32.15.48.11.59-.34-.45-.37-.9-.85-1.43-1.2-3.29-2.15-6.63-4.23-9.79-6.57-.62-.46-1.32-.87-2.17-.8-.29-.82-1.02-.63-1.63-.7-.11-.44-.37-.74-.82-.85.04-.53-.25-.75-.73-.82-.26-.28-.51-.56-.77-.84-.21,0-.28-.48-.58-.18.22.03.44.07.67.11.04.47.26.78.75.85,0,.48.29.71.72.82h0ZM177.13,118.34c.04.08.06.16.1.24-.06-.05-.12-.11-.18-.17-.25-.27-.5-.54-.74-.81-.34-.57-.68-1.12-.98-1.69-.25-.46-.03-1.13.43-1.34.39-.18.84-.12,1.09.17,1.26,1.51,2.57,2.96,4.37,3.87.46.23.36.93-.17,1.29-.3.21-.67.35-1.17.61,2.62,1.92,4.89,4.09,7.53,5.8,2.97,1.92,5.95,3.79,8.95,5.7.66-.22,1.05-.66.89-1.52-.52-.3-1.06-.67-1.66-.94-2.26-1.09-4.16-2.72-6.19-4.15-.54-.39-.94-.93-1.02-1.62-.02-.21.14-.5.31-.65.17-.17.5-.35.68-.29.48.17.95.42,1.36.73,1.57,1.17,3.1,2.41,4.67,3.59,1.2.88,2.55,1.05,3.99.63-.09-.64-.61-.9-1.04-1.13-2.79-1.44-5.34-3.28-8.16-4.67-1.88-.92-3.75-1.91-5.45-3.13-3.08-2.21-6.35-4.15-9.58-6.13-3.35-2.05-6.7-4.1-10.03-6.19-3.66-2.29-7.28-4.63-10.93-6.92-3.1-1.94-6.2-3.9-9.37-5.74-2.02-1.19-4.16-2.2-6.28-3.21-.78-.37-1.51-.06-2.02.77,1.1,1.14,2.56,1.78,3.87,2.61,1.33.84,2.77,1.54,3.97,2.54,3.73,3.14,8.02,5.44,12.11,8.01,3.44,2.17,6.71,4.54,9.9,7.05,2.69,2.11,5.61,3.84,8.48,5.67.46.29.97.35,1.5.21.06.44.35.68.75.81h0ZM248.76,119.13c-.27-.27-.53-.53-.79-.81-.27-.25-.54-.5-.8-.75-.11-.05-.2-.1-.31-.14.08.07.16.14.23.22.27.25.54.5.81.75.26.27.52.54.78.81.11.1.22.21.33.31-.05-.04-.12-.06-.14-.11-.05-.09-.07-.19-.11-.28h0ZM160.57,119.94c.28.27.56.54.83.82-.63,1.08-1.87.72-2.91,1.21.97,1.43,2,2.73,3.65,3.34.68.25,1.02.73,1.36,1.3.16.29.24.73.93.56.31-.73.66-1.55,1.02-2.37.25-.56.07-1.08-.32-1.42-.98-.86-2.01-1.65-3.04-2.43-.19-.14-.5-.09-.75-.13-.29-.27-.58-.53-.86-.8-.06-.08-.13-.16-.19-.24.08.06.17.11.27.17h0ZM206.31,147.69c-.48,0-.72.29-.83.72-.36.04-.45.12-.24.21,0,0,.11-.18.17-.29.3-.24.59-.47.87-.71l.06-.14-.02.21h0ZM212.55,140.55c-.43.06-.68.34-.84.72-.43.09-.68.36-.76.79-.28.26-.56.51-.82.76-.75.63-1.56,1.2-1.93,2.17q1.2-.34,1.85-2.24c.54.04.83-.18.83-.75.54.01.76-.28.76-.79.44-.06.69-.33.83-.73.29-.27.57-.55.86-.81l.13-.11-.06.18c-.44.11-.7.42-.86.82h0ZM217.33,135.06c-.53-.02-.77.27-.81.76-.53-.02-.76.28-.8.76l-.27.15.19-.23c.43-.08.7-.34.81-.76.26-.25.53-.51.8-.76.28-.28.56-.55.83-.81.36-.38.73-.75,1.07-1.14.22-.24.21-.55-.05-.59-.17-.03-.44.18-.57.35-.33.41-.47.91-.38,1.45-.56-.02-.84.25-.82.81Z"/>
      <g>
        <path class="cls-1" d="M283.82,169.39c-5.33,4.34-10.67,5.32-17.41,6.73-6.21,1.3-11.17-2.04-16.89-7.49-9.93,6.33-10.82,5.45-24.72,5.46-4.47,0-7.64-.09-12.04-4.46-2.38-2.38-2.17-2.35-4.48.07-5.07,5.34-17.31,6.62-25.3,6.47-9.99-.2-11.18-7.93-14.22-5.15-7.24,6.6-30.45,7.15-38.31.28-2.87-2.51-7.86,5.99-13.64,6.29-8.8.45-7.96-.51-17.86-3.26-5.08-1.41-7.6-2.97-12.32-6.38-.39.09-.74.04-.85.21-3.22,5.03-14.79,8.74-21.29,8.22-5.18-.41-15.83-2.12-20.95-6.61-.75-.66-1.53-1.25-2.19-1.77-2.29.6-7.43,7.49-14.98,9.5-6.08,1.63-7.45,2.15-14.56.54-3.66-.83-10.24-6.65-11.33-8.44-1.3-2.14-.21-4.26,5.75,1.34,10.67,10.05,29.98.18,32.33-7.92,1.02-3.55,4.99,4.02,10.46,6.32,4.4,1.85,13.52,4.41,17.52,3.45,5.66-1.36,14.69-2.73,17.17-8.79,1.74-4.26,4.17,1.42,7.49,3.57,5.57,3.62,11.26,3.5,16.89,4.97,15.75,4.1,20.28-12.86,23.63-6.41,2.82,5.43,10.49,5.32,14.4,5.72,7.81.8,18.28-.75,22.56-7.04,2.65-3.89,4.29,4.02,10.03,7.11,5.29,2.87,20.66-1.07,24.22-3.54,3.94-2.74,6.59-10.63,8.85-6.44,1.97,3.62,3.02,5.4,6.51,7.73,3.17,2.12,14.42.96,17.28.4,8.82-1.72,10.61-6.09,13.91-8.27,1.92-1.27,3.21,2.36,3.32,4.01.32,5.05,9.33,7.67,12.18,7.15,6.04-1.1,13.79-1.96,17.11-7.54,2.81-4.71,4.82,3.26,7.52,5.21,8.21,5.94,20.33,4.37,25.07-1.59,6.67-8.39,4.33-5.3,9.77.58,8.46,9.13,29.02,2.25,32.09-4.68,1.02-2.3,3.03-3.95,4.46.63,1.37,4.38,5.88,5.49,8.96,6.06,6.28,1.15,16.31-2.3,17.85-7.67,1.79-6.22,6.41,1.26,1.2,4.74-7.82,5.24-10.16,8.1-21.33,5.95-10.68-2.05-6.25-9.15-11.89-3.05-3.25,3.52-23.63,8.09-28.84,4.14-8.53-6.46-6.01-8.54-12.54-2.15-3.33,3.26-10.77,4.32-15.78,4.05-8.07-.45-10.27-4.5-14.79-8.27Z"/>
        <path class="cls-1" d="M252.7,178.31c12.25,11.4,22.67,9.32,33.44.67.23-.19.55-.16.81.06,4.3,3.57,7.67,6.33,11.45,7.76.24.09.46.04.63-.13s.24-.42.18-.71l-.08-.51c-.06-.38-.32-.69-.63-.78-2.19-.64-4.33-1.64-6.27-3.04-3.19-2.3-4.31-9.13-6.61-5.27-3.43,5.76-11.17,6.62-17.43,7.77-3.35.61-12.9-2.38-13.26-8.19-.42-6.71-5.35,0-6.9,1.25-2.57,2.06-5.57,3.29-8.74,3.96-.35.08-.56.46-.47.9l.26,1.27c.06.25.17.45.36.59.18.15.38.21.58.16,3.6-.88,6.73-2.59,11.88-5.87.24-.16.55-.11.8.12h0ZM235.23,181.82c-20.15,2.66-21.53-9.11-23.87-10.09-1.18-.5-4.6,5.68-7.25,7.53-3.94,2.74-17.18,6.69-22.64,3.73-6.14-3.32-7.15-10.31-9.25-7.22-2.53,3.72-11.23,7.08-19.81,7.75-.37.03-.62.39-.55.84l.13,1.08c.06.46.43.84.81.84,1.3.02,2.44-.03,3.34-.14,13.74-1.57,14.66-7.29,17.03-6.45,2.71.96,5.03,6.41,12.9,6.56,7.8.15,17.09-2.07,22.09-7.33,1.36-1.43,2.56-2.26,3.36-2.12,2.4.45,5.34,8.18,15.44,8.17,3.68,0,6.49-.04,8.87-.26.19-.02.34-.12.45-.29.1-.18.14-.39.08-.62l-.25-1.22c-.05-.23-.16-.43-.32-.58-.18-.15-.35-.21-.55-.18h0ZM303,187.83c1.07.09,2.2.08,3.41-.03.2-.02.35-.12.45-.31.1-.18.13-.4.07-.64l-.15-.61c-.11-.44-.46-.75-.83-.73-1.05.05-2.13.04-3.2-.05-.21-.02-.39.06-.51.23-.13.17-.17.4-.13.64l.11.69c.07.43.4.77.76.8h0ZM310.6,187.11c2.93-.67,5.63-1.75,7.2-3.29,6.87-6.72,3.92-2.81,13.13,1.6,3.38,1.61,7.05,2.11,10.58,1.94.38-.02.63-.4.57-.86l-.08-.58c-.04-.23-.14-.43-.31-.59-.16-.16-.35-.24-.54-.23-5.45.31-10.81-.94-14.23-4.63-5.07-5.47-3.2-7.41-8.74-.44-1.85,2.32-4.79,4.02-8.2,4.88-.35.09-.55.5-.44.94l.14.56c.06.24.17.43.35.57.18.14.37.19.57.14h0ZM345.75,186.82c3.33-.66,6.36-1.81,8.64-3.02.29-.15.42-.53.3-.92l-.14-.5c-.07-.26-.22-.46-.43-.59-.21-.12-.43-.14-.61-.04-2.43,1.26-5.31,2.25-8.3,2.83-.34.07-.55.43-.48.85l.08.58c.04.25.16.46.35.62.17.16.38.23.58.18h0ZM358.1,181.32c4.5-3.37,4.37-.21,8.84,1.82.26.12.53.06.71-.15.17-.21.22-.52.12-.83-.87-2.64-3.39-2.42-4.58-6.23-1.43-4.61-4.37,1.7-6.17,3.55-.19.19-.25.5-.16.82l.12.44c.09.28.25.5.48.61.23.12.46.11.64-.03h0ZM371.58,184.39c.38.05.75.1,1.12.15.2.02.38-.04.51-.2.13-.16.18-.36.17-.6v-.14c-.06-.43-.35-.8-.71-.87-.35-.07-.72-.14-1.09-.22-.21-.05-.4,0-.55.16-.15.16-.21.37-.18.62l.02.23c.04.44.35.82.72.88h0ZM148.25,183.63c-6.24-.21-11.84-2.13-14.23-6.73-1.38-2.67-5.99,2.76-7.25,3.7-7.88,5.82-23.68,3.97-32.88-1.99-2.04-1.32-5.27-6.97-6.59-3.73-1.4,3.41-4.03,5.68-7.32,7.08-.34.15-.48.62-.3,1.06l.13.31c.09.24.25.42.46.51.22.1.41.09.58-.03,2.54-1.66,7.77-7.04,8.92-6.21,9.04,6.55,26.17,13.44,34.9,7.22,1.92-1.37,6.21-6.24,9.01-3.8,3.33,2.92,9.47,4.43,14.79,5,.2.02.38-.06.51-.22.13-.16.18-.38.15-.62l-.1-.7c-.06-.45-.41-.83-.79-.84h0ZM76.12,183.16c-4.44.97-9.53.82-14.22.06-.36-.06-.66.21-.7.63l-.03.34c-.02.23.04.46.18.66.14.21.31.34.52.37,5.1,1,10.33,1.12,14.89.05.21-.05.34-.18.43-.4.08-.22.07-.45-.03-.69l-.17-.45c-.17-.41-.53-.64-.87-.57h0ZM57.67,182.34c-2.15-.54-4.12-1.19-5.79-1.89-5.53-2.32-9.02-8.94-9.69-6.64-.52,1.8-1.67,3.46-3.14,4.93-.24.24-.28.65-.1,1.01l.04.06c.11.23.29.4.5.47.21.07.41.04.57-.1,1.43-1.23,2.67-2.24,3.81-2.66.21-.08.42-.03.63.13,3.52,2.76,8.11,5.02,13.04,6.5.2.05.37.03.52-.09.15-.12.24-.29.26-.51v-.17c.03-.23-.03-.45-.16-.65-.13-.21-.3-.33-.49-.38h0ZM35.84,181.37c-1.1.76-2.25,1.43-3.36,2-.32.17-.44.61-.28,1.04l.11.28c.1.24.24.41.45.51.21.11.4.11.58,0,1.25-.69,2.39-1.48,3.43-2.28.29-.22.35-.67.15-1.06l-.04-.08c-.11-.22-.27-.38-.47-.46-.2-.08-.39-.06-.56.05h0ZM28.75,184.96c-.62.2-1.25.4-1.92.57-.35.09-.54.5-.44.94l.07.24c.05.23.17.42.36.57.19.14.37.18.57.13.68-.17,1.36-.34,2.02-.55.18-.05.32-.2.39-.4.07-.21.06-.43-.03-.66l-.1-.27c-.17-.43-.59-.68-.93-.56Z"/>
        <path class="cls-1" d="M252.59,188.24c11.31,10.46,23.45,8.64,33.45.67.24-.18.55-.16.81.06,2.36,1.98,4.32,3.85,6.43,5.29.2.14.4.17.6.1.19-.08.32-.24.38-.47l.05-.21c.09-.37-.07-.79-.38-1.02-2.93-2.18-6.65-9.31-8.4-6.37-3.42,5.75-11.17,6.62-17.43,7.77-3.34.6-12.89-2.39-13.25-8.2-.42-6.7-5.35,0-6.91,1.24-2.68,2.16-5.72,3.38-9.23,4.07-23.57,4.6-22.73-8.27-25.2-9.3-1.19-.5-4.6,5.68-7.27,7.53-2.94,2.06-12.38,4.68-19.22,4.62-.37,0-.64.34-.6.79l.06.7c.03.24.12.46.28.63.17.17.35.26.55.26,7.72-.11,18.09-3.09,22.9-8.14,5.43-5.71,4.16,6.27,17.63,6.27,12.64-.01,14.08-.09,23.99-6.4.24-.16.55-.11.79.12h0ZM182.97,193.51c-3.67-1.46-9.47-9.82-10.84-7.8-4.83,7.08-32.08,12.91-38.2,1.12-1.38-2.67-5.99,2.76-7.26,3.7-6.22,4.59-17.4,4.41-26.35,1.19-.21-.08-.39-.06-.55.06-.16.12-.25.29-.27.53v.08c-.04.41.2.83.55.98,8.58,3.73,18.54,5.64,24.54,1.37,1.92-1.37,6.2-6.23,9-3.8,5.27,4.6,17.05,4.88,22.02,4.32,13.74-1.57,15.31-7.49,17.68-6.65,2.26.8,4.34,5.55,9.53,7.2.22.07.43.03.58-.13.17-.15.23-.37.22-.63l-.06-.71c-.04-.38-.27-.71-.59-.84h0ZM96.75,190.2c-2.41-1.18-8.47-8.04-9.55-5.4-3.39,8.28-15.1,10.41-25.35,8.79-.23-.04-.42.04-.56.23-.14.19-.18.42-.12.69l.09.39c.08.41.39.73.73.76,10.71,1.05,22.33-2.21,25.95-7.86.93-1.47,5.55,1.92,7.8,3.41.22.15.45.17.65.06.2-.11.32-.31.34-.58l.04-.48h0ZM57.46,192.64c-.43-.12-.86-.25-1.27-.38-.2-.06-.38-.03-.54.09-.16.12-.24.31-.26.54l-.04.68c-.03.44.26.89.65,1,.5.13,1,.26,1.5.38.23.05.44-.03.59-.21.15-.18.19-.43.13-.7l-.14-.66c-.08-.36-.32-.65-.63-.73h0ZM52.06,190.6c-.69-.35-1.35-.7-1.96-1.09-.2-.13-.42-.15-.61-.06-.19.09-.31.27-.34.51l-.13.81c-.06.39.12.81.46,1.01.69.43,1.41.81,2.18,1.17.21.1.41.09.59-.03.17-.12.28-.31.29-.57l.05-.82c.03-.4-.19-.79-.52-.95h0ZM46.26,186.44c-.66-.62-1.26-1.22-1.78-1.73-.29-.28-.67-.3-.92-.06-.24.25-.27.69-.07,1.05.51.93,1.12,1.8,1.8,2.6.2.23.46.33.7.27.25-.06.41-.26.46-.56l.12-.67c.05-.32-.07-.67-.31-.9h0ZM297.62,196.44c5.86,1.85,15.39,1.31,19.26-2.48,6.4-6.26,4.71-5.35,11.48.12.19.16.42.21.62.15.21-.07.35-.23.41-.48l.09-.38c.1-.39-.08-.84-.42-1.05-5.96-4.02-4.61-10.4-10.98-2.36-3.86,4.86-12.49,6.95-20.2,4.48-.36-.12-.69.09-.78.48l-.09.38c-.05.23-.02.47.11.7.12.22.29.38.5.45h0ZM332.79,196.43c2.55.47,6.08.31,9.7-.21l-.18-.57c-.13-.41-.47-.69-.81-.66-2.93.21-5.86-.02-8.48-.83-.35-.11-.68.09-.76.47l-.15.62c-.06.25-.02.51.12.75.14.23.34.39.56.43h0ZM345.23,195.76c1.71-.33,3.38-.72,4.94-1.15l-.12-.45c-.06-.24-.19-.44-.39-.57-.18-.14-.38-.17-.57-.12-1.13.38-2.31.69-3.51.94-.19.04-.33.17-.42.36-.09.2-.1.42-.02.65l.1.33h0ZM352.81,193.79c.84-.29,1.61-.58,2.29-.88.28-.12.42-.43.37-.8l-.02-.18c-.05-.29-.19-.54-.42-.7-.22-.16-.46-.18-.68-.06-.46.27-.96.52-1.46.77-.29.15-.42.52-.32.92l.24.93Z"/>
      </g>
    </g>
  </g>
</svg>