<?xml version="1.0" encoding="UTF-8"?>
<svg id="Layer_2" data-name="Layer 2" xmlns="http://www.w3.org/2000/svg" viewBox="0 0 23.36 29.93">
  <defs>
    <style>
      .cls-1 {
        fill: #633b0d;
      }
    </style>
  </defs>
  <g id="Layer_1-2" data-name="Layer 1">
    <g>
      <path class="cls-1" d="M9.33,28.85c-1.05-.17-2.28.13-2.97.99-.04.05,0,.11.05.08.01,0,.03-.01.04-.02.01,0,.02-.03.01-.04.07.06.99-.18,1.17-.2.57-.08,1.13-.16,1.65-.41.14-.07.28-.35.05-.39Z"/>
      <path class="cls-1" d="M20.32,26.42c-.96.03-1.91.02-2.87-.07,1.64.42,3.35.29,5.03.26.02-.1-.03-.18-.17-.17-.65.07-1.3.07-1.95.06.02-.04.01-.08-.04-.08Z"/>
      <path class="cls-1" d="M6.95,28.76c-.44-.32-.91-.63-1.43-.78-.28-.08-.55-.11-.82-.09-.26.12-.52.23-.7.17-.02,0-.06.03-.04.05.17.17.38.11.62.1.22,0,.43,0,.64.02-.03.08.02.16.13.09.03-.02.06-.04.09-.06.21.04.43.1.64.19.23.1.48.27.74.37.04-.02.09-.04.13-.06Z"/>
      <path class="cls-1" d="M22.36,12.49c.54-.61.87-1.44.76-2.19-.03-.21-.08-.41-.16-.59.31-.52.44-1.14.39-1.74-.05-.63-.35-1.21-.79-1.65-.19-.32-.52-.56-1-.7-.03-.01-.06-.02-.1-.03.03-.12.04-.24.05-.35.04-.82-.32-1.66-.92-2.21-.5-.45-1.34-.35-2-.18,0-.06.02-.11.02-.17.11-1.47-1.13-1.9-2.29-1.62h0c-.27,0-.53.06-.79.13-.02,0-.04,0-.06.02-.03-.18-.08-.36-.16-.53C15.03.08,14.1-.05,13.55.02c-.05,0-.09.02-.14.02-.05,0-.09,0-.13,0-.47,0-.77.22-.98.53-.13.13-.25.28-.35.47-.03.05-.05.11-.07.18-.11-.08-.23-.15-.41-.17-.38-.04-.7.01-1.04.16-.25-.23-.6-.38-.94-.49-.9-.31-1.82-.16-2.65.26-.43.21-.87.64-1.09,1.1-.25-.07-.5-.08-.78-.07-.92.04-1.79.45-2.46,1.07-.75.68-1.27,2.14-.87,3.15.05.15.12.29.19.43-.18.09-.42.22-.48.26-.26.18-.47.4-.65.66-.38.56-.61,1.17-.68,1.85-.13,1.15.4,2.22,1.48,2.56-.17.28-.29.56-.35.83-.28.8-.17,1.65.33,2.39.62.92,1.89,1.32,2.95,1.08.05.26.15.52.32.79.71,1.1,2.09,1.38,3.13.79.36.37.83.61,1.4.64.12,0,.24,0,.36-.02.23.22.47.46.52.71.11.58-.03,1.27-.02,1.86.02,1.28.45,2.41.21,3.72-.09.48.09.5-.32,1.02-.15.19-.32.37-.47.56-.22.26-.28.54-.73.5-.26-.02-.5,0-.76.02-.72.07-1.39.32-2,.69-.22,0-.44,0-.66.04-.14.02-.3.09-.48.18.16,0,.32.03.47.07.62.16,1.16.5,1.67.88.03.02.04.07,0,.09-.04.02-.08.04-.12.06.08.02.15.04.23.04.51.02.99-.1,1.46-.24,0,0,.02.01.04.01.69.14,1.47-.25,2.03-.63.55-.37.97-.89,1.23-1.5.06-.13-.12-.13-.17-.04-.29.5-.68.84-1.13,1.1.07-.06.13-.12.18-.18.75-.91.47-1.8.41-2.9,0-.06-.08,0-.09.03-.14.82-.27,1.94-1.06,2.4-.67.38-1.45.61-2.07,1.06-.01,0-.02.02-.03.03-.06-.01-.12-.02-.18-.04-.42-.09-.8-.28-1.2-.38.29-.12.59-.21.91-.28.37-.07.76-.09,1.14-.04.18.03.35.05.53-.03.43-.22.69-.65,1.02-1,.4-.44.67-.79.72-1.4.05-.6.14-1.18.11-1.79-.03-.69-.29-1.32-.35-2.01-.04-.43-.03-.86-.05-1.3.03.06.05.12.07.19.23.63.29,1.31.51,1.94.01.03.06,0,.06-.03-.1-.89.07-1.84-.17-2.7-.1-.37-.23-.89-.58-1.08.05-.03.1-.06.14-.1-.02.24.18.4.34.59.28.33.46.72.77,1.04.02.02.07-.02.05-.05-.26-.34-.27-.83-.4-1.23-.05-.16-.11-.31-.17-.46-.03-.08.02-.13-.03-.21-.04-.05-.08-.08-.14-.08.08-.1.15-.21.22-.33-.04.12-.03.25.01.37.05.15.12.27.22.39.05.06.11.11.17.17.07.08.11.17.19.23,0,0,.02,0,.02-.02-.04-.11,0-.09,0-.17-.02-.09-.03-.17-.05-.26-.02-.11,0-.21-.02-.32,0-.02,0-.04,0-.06.33.19.71.31,1.06.3.07,0,.13,0,.2-.02-.08.41-.03.86-.03,1.28,0,.68-.05,1.38.03,2.05,0,0,0,0,0,0,0,.07.11.04.14-.03.19-.62.31-1.27.45-1.91.06-.28.15-.58.22-.88,0,.05,0,.1,0,.16,0,.1.14.01.15-.05.03-.26.08-.5.18-.75.06-.17.17-.34.09-.51,0,0,0,0,0,0,.07-.06.13-.11.19-.17.16.24.36.44.58.58-.18.33-.42.61-.46,1.04-.06.63.12,1.32.25,1.92.3,1.31.09,2.65.22,3.98.05.59-.08,1.15.24,1.68.18.29.85.45,1.15.51.17.04.36.06.54.08-.34.12-.68.28-.99.46,0,0-.02-.02-.03-.02-.73-.53-.99-1.25-1.12-2.11-.13-.88-.4-1.93-.29-2.82,0-.06-.07-.03-.08,0-.22.67-.3,1.48-.3,2.26-.1-.88-.25-1.75-.34-2.63,0-.04-.07,0-.07.03-.06.87-.06,1.74-.07,2.62,0,.63-.22,1.44.07,2.02.06.11.22.02.26-.05.1-.19.16-.39.19-.58.07.56.24,1,.61,1.3-.4.03-.84.11-1.24.24-.28-.16-.53-.35-.57-.71,0-.05-.08,0-.08.03-.01.28.01.55.18.78.02.03.04.05.06.07-.21.1-.41.21-.57.35-.08-.31-.09-.66,0-.95.01-.04-.04-.04-.06,0-.16.28-.4,1.08-.33,1.63-.07,0-.13,0-.2.01.02-.13-.02-.28,0-.43.04-.33.14-.63.14-.96,0-.05-.06,0-.07.01-.17.37-.43.68-.6,1.04-.06.13-.09.26-.1.4-.24.04-.47.1-.66.22-.03.02-.03.07,0,.07.51-.09,1.22.27,1.73.38.61.13,1.04.28,1.56-.14.06-.05.14-.15.09-.24-.23-.42-.75-.46-1.23-.42-.07-.12-.14-.24-.2-.37-.01-.04-.03-.08-.04-.12.26-.13.53-.2.8-.25.13.08.29.13.45.14.09,0,.19-.09.2-.18,1.62.04,3.33.96,4.83.12.1-.06.22-.26.04-.3-.82-.17-1.66-.27-2.5-.34.79-.2,1.54-.28,2.43-.14,1.11.17,2.32.03,3.36-.4.05-.02.1-.07.13-.12-.99.02-1.98.07-2.97.03-.52-.02-1.04-.07-1.56-.18-.35-.07-.72-.15-1.05-.28-.55-.1-1.2-.35-1.29-.91-.09-.55-.13-1.14-.16-1.7-.07-1.11.13-2.23.1-3.34-.01-.52-.18-1.06-.28-1.57-.07-.35-.01-.69.03-1.03.11.04.22.07.33.08.87.03,1.65-.42,2.14-1.13.04-.06.08-.12.12-.19.8.13,1.63-.02,2.38-.36.76-.34,1.62-1.15,1.49-2.07-.04-.3-.16-.56-.33-.78.37-.2.7-.46.96-.79ZM21.91,12.14c-.13.17-.27.31-.44.42-.15.13-.32.28-.49.41.31.25.2.84,0,1.39-.03.1-.07.2-.13.3-.14.3-.3.56-.4.7-.21.28-.54.42-.86.53-.4.13-.84.24-1.26.18-.18-.02-.38-.06-.57-.13-.32.57-.84,1.05-1.42,1.24-.66.22-1.55.01-2.04-.51-.13.18-.29.35-.47.48-.18-.04-.44.11-.54.26-.49.14-1,0-1.41-.28h0s0-.01,0-.01c0-.04-.02-.08-.04-.11-.05-.05-.1-.06-.16-.05-.04-.04-.08-.08-.11-.12-.05-.06-.11-.13-.16-.2-.44.72-1.14,1.27-1.94,1.31-.65.03-1.21-.28-1.59-.77-.63.34-1.35.51-1.99.24-.54-.23-.99-.73-1.11-1.31-.07-.33-.04-.66.03-.99-.14.05-.29.09-.44.11-.76.11-1.62-.1-2.09-.75-.44-.61-.47-1.43-.24-2.15.14.28.39.51.73.62.05.02.11,0,.16-.01-.35-.31-.52-.76-.54-1.24,0,0,0,0,0,0-.12-.23-.11-.56-.04-.8.04-.14.18-.25.25-.38.01-.02-.01-.04-.03-.02-.18.18-.34.27-.49.49-.13.19-.18.49-.18.71,0,.06,0,.12.01.18-.42-.36-.75-.86-.96-1.39-.12-.22-.19-.46-.22-.72-.01-.06-.02-.12-.03-.18-.13-.86.19-1.67.85-2.24.19-.16.54-.43.92-.6-.07-.19-.13-.37-.18-.54-.24-.83-.11-1.64.41-2.33.56-.74,1.59-1.32,2.49-1.5.19-.04.74-.05,1.16.05.31-.49.77-.89,1.34-1.08.82-.28,2.03-.13,2.71.51.27-.2.59-.33.88-.33.22,0,.41.05.59.13.32-.46.74-.87,1.3-.98.62-.13,1.31.01,1.73.52.16.19.27.39.33.6.48-.24,1-.36,1.53-.3.67.08,1.29.53,1.4,1.22.04.23.03.45-.02.67.04-.02.08-.03.11-.04.68-.21,1.51.17,1.96.67.46.51.76,1.21.86,1.93.91.13,1.78.97,1.87,1.85.06.65-.08,1.19-.5,1.68-.03.04-.07.08-.11.13.25.33.4.74.4,1.15,0,.58-.35.98-.73,1.38-.01,0-.03.03-.04.04Z"/>
      <path class="cls-1" d="M4.87,13.58c-.13-.18-.3-.34-.42-.53-.15-.24-.36-.74-.13-1,.02-.03,0-.07-.03-.04-.28.21-.27.64-.25.96.02.37.28.83.68.83.08,0,.23-.12.16-.21Z"/>
      <path class="cls-1" d="M8.3,14.36c-.32-.32-.74-.49-1.07-.81-.38-.38-.53-.95-.45-1.47,0-.05-.05-.02-.06,0-.35.95.09,2.86,1.44,2.55.1-.02.23-.18.13-.27Z"/>
      <path class="cls-1" d="M7.57,15.42c-.52.03-.96.13-1.36-.3-.02-.02-.06.02-.05.04.24.56.82.79,1.38.51.07-.04.2-.27.03-.26Z"/>
      <path class="cls-1" d="M20.06,8.27s-.07.02-.05.05c.4.77-.07,1.46-.23,2.22-.04.21.24.19.33.08.57-.71.58-1.67-.05-2.34Z"/>
      <path class="cls-1" d="M19.29,11.49c-.01-.09-.12,0-.13.04-.09.42-.28.78-.56,1.1-.18.2-.39.45-.6.62-.08.06-.14.29.04.25.37-.09.68-.4.92-.69.32-.39.42-.82.34-1.32Z"/>
      <path class="cls-1" d="M19.63,13.29c-.09.42-.26.7-.54,1.02-.23.26-.58.42-.83.66-.05.04-.1.17-.03.21.42.29.96-.21,1.19-.54.27-.39.33-.78.31-1.22-.04-.03-.08-.07-.11-.13Z"/>
      <path class="cls-1" d="M15.83,13.7s-.06,0-.06.03c0,.34-.73.4-.95.43-.4.06-.74.12-1.05.4-.07.06-.12.2-.07.29.3.58,1.29.1,1.68-.13.24-.15.66-.71.46-1.02Z"/>
      <path class="cls-1" d="M11.31,14.89c-.17.04-.33.12-.49.18-.13.04-.34-.09-.48-.11-.04,0-.07.06-.04.08.19.12.28.29.52.29.21,0,.41-.12.54-.27.05-.06.06-.19-.05-.16Z"/>
      <path class="cls-1" d="M10.84,15.82c-.21.14-.51.21-.75.16-.04-.01-.09.06-.05.09.32.18.79.28.97-.14.05-.12-.08-.16-.17-.11Z"/>
      <path class="cls-1" d="M15.7,10.02c-.32.5-1.01.84-1.56,1.02-.19.06-1.22.54-.75.9.52.39,1.17-.16,1.55-.51.38-.35.72-.88.85-1.38.02-.07-.06-.07-.09-.02Z"/>
      <path class="cls-1" d="M12.81,12.99s-.04-.07-.09-.08c-.17-.02-.37.03-.54.06-.31.04-.61-.04-.88-.2-.02-.01-.05.03-.03.05.27.26.51.45.88.54.22.05.73-.04.65-.37Z"/>
      <path class="cls-1" d="M9.2,12.23c-.19-.1-.39-.17-.59-.26-.22-.1-.39-.26-.51-.47-.02-.04-.07,0-.06.04.05.25.16.48.31.68.18.24.39.33.68.34.14,0,.34-.24.16-.33Z"/>
      <path class="cls-1" d="M18.04,6.74c-.02-.05-.09.01-.09.05.02.24.03.47,0,.71-.02.21-.16.43-.13.65,0,.06.08.09.13.06.52-.3.26-1.04.08-1.47Z"/>
      <path class="cls-1" d="M16.58,5.69c-.04-.07-.09-.12-.13-.19-.04-.08-.07-.17-.11-.24-.02-.04-.08.02-.07.05.03.1.04.21.07.31.02.08.05.2.14.2.06,0,.13-.07.1-.13Z"/>
      <path class="cls-1" d="M18.6,4.68s-.12.05-.08.08c.18.19.33.39.42.63.08.22.07.46.14.68.03.1.19,0,.2-.07.14-.55-.24-1.03-.67-1.33Z"/>
      <path class="cls-1" d="M20.71,5.89c.09,0,.19,0,.28.01,0-.05,0-.1,0-.15-.01-.09-.04-.17-.07-.25-.05-.14-.28.03-.25.15.02.08.03.16.04.24Z"/>
    </g>
  </g>
</svg>