<?xml version="1.0" encoding="UTF-8"?>
<svg id="Layer_2" data-name="Layer 2" xmlns="http://www.w3.org/2000/svg" viewBox="0 0 30.27 63.78">
  <defs>
    <style>
      .cls-1 {
        fill: #6f410f;
      }
    </style>
  </defs>
  <g id="Layer_1-2" data-name="Layer 1">
    <g>
      <path class="cls-1" d="M28.65,42.69c.32.13.63.21.93.16.11-.02.25-.07.29-.18.38-1.15-.74-2.89-1.3-3.84-.14-.24-.29-.5-.46-.77.41.21.82.32,1.21.22.12-.03.18-.16.21-.27.24-1.1-.92-2.56-1.48-3.39-.44-.64-.89-1.26-1.35-1.88.45.18.91.24,1.36.08.12-.04.22-.18.23-.31.12-1.8-1.62-3.99-2.5-5.44-.48-.79-1.02-1.73-1.65-2.59,1.42.74,3.13,1.13,2.18-1-.65-1.45-1.62-2.88-2.74-4.18.06.01.12.03.19.04.2.02.47-.05.48-.31.04-1.25-1.5-2.69-2.19-3.62-.26-.35-.54-.69-.83-1.03.42.18.85.32,1.28.4.76.14.96-.63.64-1.17-.79-1.34-1.75-2.58-2.74-3.77-.03-.05-.07-.09-.11-.13.22.09.45.15.68.14.16,0,.28-.12.3-.28.13-.9-1-1.99-1.55-2.6-.26-.29-.53-.58-.8-.88.43.27.88.45,1.28.35.16-.04.21-.24.19-.38-.12-1.18-1.58-2.2-2.24-3.09-.79-1.06-1.83-2.14-2.92-2.94,0,0,0,0,0-.01-.21.04-.43.17-.63.31-.1.08-.2.17-.29.25-.15.14-.29.29-.39.4-.55.6-1.05,1.23-1.59,1.84-.6.68-1.2,1.37-1.7,2.12-.12.18-.83,1.24-.59,1.5.39.09.84-.08,1.27-.35-.27.29-.54.58-.8.88-.55.61-1.68,1.7-1.55,2.6.02.16.14.28.31.28.22.01.45-.05.67-.14-.03.04-.07.09-.11.13-.99,1.19-1.96,2.43-2.74,3.77-.32.54-.12,1.31.64,1.17.43-.08.86-.22,1.28-.4-.29.34-.56.68-.82,1.03-.69.93-2.23,2.37-2.19,3.62.01.26.27.33.48.31.06,0,.13-.02.19-.04-1.12,1.3-2.1,2.73-2.74,4.18-.95,2.13.76,1.74,2.18,1-.63.87-1.17,1.81-1.65,2.59-.88,1.45-2.62,3.64-2.5,5.44,0,.13.11.27.23.31.44.16.91.1,1.35-.08-.46.62-.91,1.24-1.35,1.88-.56.84-1.72,2.3-1.48,3.39.02.11.08.24.2.27.39.1.81,0,1.22-.22-.17.28-.32.54-.46.77-.57.95-1.68,2.69-1.3,3.84.04.12.18.17.29.18.3.05.62-.03.93-.16-1.12,1.28-2.19,3.18-1.28,4.15.11.12.32.09.45.03.16-.07.31-.15.45-.24-.51.96-.9,2.06-.29,2.63.57.53,1.46-.03,2.21-.69-.36.78-.58,1.58.12,1.56.9-.02,1.77-.44,2.58-.98-.04.24-.03.48.07.69.59,1.17,2.74.26,4.2-.62-.08.15-.14.31-.16.49-.01.08.02.19.11.21.62.16,1.36.05,2.1-.19-.09.42.19.77.57.9,0,.07,0,.15.01.22,0,.26.03.52.07.78.01.09.02.18.03.28,0,.06,0,.13,0,.19-.14,1.55-.09,3.16-.16,4.68-.08,1.87-.39,3.73-1.2,5.41-.06.08-.11.16-.17.24-.08.12-.18.24-.26.36-.7.08-1.39.25-2.08.59,0,0,0,.02,0,.02,1.71-.41,3.64-.07,5.38-.13.86-.03,1.7-.13,2.56-.06.94.08,1.55.74,2.53.52.05,0,.09-.11.01-.1-.78.06-1.42-.3-2.12-.53.66-.08,1.3-.28,1.93-.51,1.2-.44,2.4-.54,3.66-.76.01,0,.02-.02.01-.03-.26-.24-.81-.12-1.13-.12-.32,0-.64-.04-.96-.04-.57-.57-1.02-1.22-1.39-1.93,0-.08-.02-.17-.11-.22-.55-1.12-.91-2.35-1.21-3.52-.13-.53-.23-1.07-.31-1.62,0,0,0,0,0,0-.02-.11-.04-.21-.05-.32,0-.07-.02-.13-.03-.2-.06-.47-.08-.96-.11-1.43-.04-.55-.18-1.14-.24-1.71.3.22.59.36.79.38.94.1,1.66-.36,1.9-1.03,0-.04.01-.08.02-.12.01-.17.01-.36,0-.54,0-.04.02-.06.04-.09,0,0,0-.03,0-.05.02.01.05.02.07.04.03,0,.06.02.08.05,1.45.83,3.44,1.61,4,.49.11-.21.12-.44.07-.69.81.54,1.69.96,2.58.98.7.02.48-.78.12-1.56.75.66,1.63,1.23,2.21.69.62-.57.22-1.67-.29-2.63.14.09.29.17.45.24.14.06.34.09.45-.03.92-.97-.16-2.87-1.28-4.15ZM17.53,55.99c.02.07.04.15.06.22-.04,0-.09.02-.14.05-.5.28-.91.63-1.33,1.01-.15.13-.29.27-.43.41-.13.11-.26.22-.38.33,0,0,0,0,0,0,.04-.04.08-.07.13-.09,0,0-.01,0-.02,0-.07.07-.14.14-.2.23-.01,0-.01.03-.01.04,0,.01-.01.01-.02.02-.04.03-.05.09,0,.08.35-.03.83-.43,1.13-.6.13-.08.27-.15.41-.22-.06.05-.12.11-.18.15-.15.13-.3.26-.46.39-.09.07-.18.12-.28.19-.02,0-.01.04.01.02.02,0,.05-.02.07-.04-.15.13-.29.27-.42.42-.03.03,0,.07.03.05.43-.25.87-.48,1.3-.71.18-.09.37-.18.55-.27-.21.18-.41.38-.56.49-.48.36-.92.75-1.35,1.16-.04.04-.02.09.03.07.05-.03.11-.05.17-.08-.06.05-.11.1-.17.14-.01,0,0,.03,0,.01.12-.08.25-.17.37-.25.42-.22.83-.48,1.24-.71.03-.01.06-.03.1-.05h0c-.29.22-.58.45-.85.69-.16.15-.33.3-.49.45-.09.08-.1.16-.1.2,0,0-.02-.02-.03,0-.02,0-.04.02-.06.03-.05.04-.02.11.04.08.6-.38,1.25-.69,1.85-1.07-.13.13-.24.25-.34.38,0,0,0-.02,0-.01-.03.01-.03.02-.05.05,0,.01,0,.04.02.04.12,0,.24-.05.36-.11-.31.22-.63.43-.94.65-.45.32-1.06.74-1.3,1.26-.02.05.03.08.06.06.56-.23,1.09-.55,1.62-.85.17-.09.34-.19.52-.29-.42.33-.85.68-1.21,1.08-.01,0,0,.03,0,.02.07,0,.14-.03.2-.07,0,.03.02.05.05.03.19-.13.38-.27.57-.41.22-.14.43-.28.64-.41.26-.17.8-.4,1.06-.71,0,.02.02.03.03.05-.38.28-.78.53-1.15.83-.19.15-.37.31-.53.48-.1.09-.19.2-.28.3-.04.05,0,.08.02.09-.02,0-.04.02-.06.03-.04.02-.07.11,0,.09.45-.1.86-.42,1.27-.63.19-.09.41-.19.62-.29-.15.11-.29.24-.42.32-.43.3-.81.76-1.26,1.01h0c-.11.06-.2.25-.03.29h.02s-.03.02-.04.03c-.02.02,0,.05.02.03.04-.02.07-.05.11-.08.12-.02.21-.11.33-.17.27-.13.53-.32.78-.49.4-.26.95-.45,1.25-.84.03.04.05.06.08.09-.24.11-.44.31-.62.48-.23.22-.48.43-.7.66-.14.12-.27.23-.41.35-.04.03-.02.08.03.05.07-.05.15-.11.23-.16.01,0,.03,0,.04-.02.04-.02.07-.05.1-.07.1-.04.25-.1.28-.12.16-.08.32-.16.47-.25.3-.18.63-.36.88-.59.06.06.12.12.18.18-.2.08-.38.24-.57.36-.33.24-.64.51-.98.75-.03.02-.03.08.02.06.3-.15.61-.32.87-.51.01-.01.02-.02.03-.02-.01.01-.03.03-.04.05h0s-.04.11.03.09c.19-.04.36-.13.54-.17.19-.06.34-.13.46-.27.07.05.14.11.22.17-.1,0-.21.02-.32.04,0-.01,0-.03-.03-.03s-.05.03-.06.06c-.51.12-.99.4-1.46.62-.63.31-1.3.49-1.98.61-.01,0-.02,0-.03,0-.93-.13-1.88,0-2.81-.09-.84-.08-1.66-.15-2.46-.1,1.12-1.54,1.58-3.55,1.79-5.4.2-1.81.5-3.88.24-5.78,0-.31,0-.62,0-.93.6-.05,1.22-.25,1.73-.57.13-.08.27-.17.42-.26-.29.27-.57.56-.85.79-.02.03-.02.08.02.05.29-.17.59-.32.88-.5.16-.1.33-.18.5-.27-.67.47-1.3,1.02-1.98,1.47-.03.02-.02.07.01.05.85-.4,1.74-.87,2.51-1.42,0,0,0,.01,0,.01,0,0,0,0,0,0-.62.48-1.11,1.06-1.65,1.62-.06.05-.12.11-.18.16-.15.15-.29.29-.45.43-.06.07-.12.14-.17.21-.1.05-.12.09-.09.1-.02.01-.03.02-.05.03-.02.01-.04.06,0,.07.1.04.15,0,.25-.06.36-.23.71-.48,1.07-.73,0,0,.01,0,.01-.01-.08.09-.17.17-.25.26-.03.02,0,.06.03.04.29-.19.55-.43.83-.64.25-.2.51-.4.74-.64h0c-.28.33-.61.58-.94.85-.33.28-.62.59-.96.87-.03.03-.02.08.02.05.21-.12.42-.26.62-.39-.43.42-.84.85-1.24,1.29,0,0,0,.02,0,.02.53-.45,1.06-.89,1.59-1.34.29-.25.64-.49.94-.77,0,.03,0,.06,0,.09-.2.17-.38.38-.53.56-.04.05-.09.1-.13.15-.02.02-.04.04-.06.05-.37.35-.77.71-1.08,1.11-.02.02,0,.04.03.02.39-.24.76-.5,1.14-.77.07-.04.14-.09.21-.13-.04.04-.08.09-.12.13-.14.14-.28.29-.42.43-.33.32-.65.65-.94,1-.02.02,0,.06.03.04.43-.25.85-.56,1.26-.86.07-.05.14-.09.22-.14-.15.13-.29.28-.43.43-.06.05-.12.11-.18.15-.23.21-.46.42-.67.64-.01.01-.03.03-.04.05,0,0-.01,0-.02.01,0,0-.01,0-.01.02-.24.26-.45.58-.72.79-.02.02-.02.05,0,.04.48-.18.92-.72,1.33-1.03.13-.1.27-.2.4-.3-.2.19-.41.39-.61.59-.27.23-.56.46-.8.73-.05.06-.08.1-.1.13-.05.04-.02.13.04.08.48-.36.97-.71,1.46-1.07.3-.22.66-.43.92-.73,0,.02,0,.05,0,.06-.44.29-.81.69-1.17,1.06-.3.31-.54.67-.82.99-.04.05,0,.09.04.07,0,0,0,0,0,.01.36-.19.7-.49,1.04-.71.1-.06.19-.12.29-.19-.23.24-.46.49-.69.72-.09.08-.57.61-.76.83-.05.04-.1.09-.16.13-.03.02-.01.05.02.04.02-.01.03-.02.05-.03h0s.02,0,.03,0c.4-.31.85-.57,1.29-.85-.36.37-.71.85-1.14,1.12-.03.02-.04.08,0,.08.08-.02.17-.05.25-.08-.03.03-.05.06-.08.09-.02.03.02.05.04.03.06-.08.14-.15.22-.22.21-.13.4-.3.59-.43.13-.09.26-.17.37-.25.01,0,.03-.02.04-.02.3-.2.61-.39.9-.59,0,0,0,.02.01.03-.01,0-.02,0-.03,0-.39.24-.74.53-1.09.82-.21.17-.41.36-.6.55-.05.05-.1.11-.16.18-.1.08-.19.16-.21.23-.03.03-.07.05-.1.07-.02,0-.06.08-.01.08.11,0,.23-.07.32-.13.31-.21.63-.42.94-.63.29-.2.59-.38.86-.59.06-.05.13-.09.19-.15ZM29.62,46.3c-.21.08-.49-.09-.67-.18-.26-.13-.52-.29-.76-.45.38.56.74,1.12.97,1.76.22.63.3,1.58-.59,1.53-.87-.05-1.71-.95-2.32-1.5-.17-.15-.33-.31-.49-.48.44.77.99,1.59.89,2.49,0,.05-.04.09-.1.09-.5,0-.94-.23-1.36-.48-.52-.31-1.02-.63-1.56-.92-.23-.12-.46-.24-.68-.36.07.07.14.15.21.22.24.26.59.55.69.9.2.7-.69.7-1.14.62-.44-.08-.88-.21-1.31-.37-.36-.06-.71-.17-1.04-.34-.21-.1-.43-.19-.65-.3.02.12.04.25.04.37.04.49.06,1.23-.37,1.58-.54.44-1.27.12-1.71-.31-.37-.37-.91-.86-1.18-1.4-.03.03-.05.06-.08.09-.05.03-.11.06-.18.12-.49.35-1,.64-1.56.82-.47.25-1.02.47-1.5.24-.61-.29-.34-.99.03-1.59-.2.17-.42.33-.6.54-.44.27-.9.52-1.37.65-.47.13-.95-.03-.69-.6.13-.28.34-.6.59-.87-.28.14-.56.27-.84.4-.86.39-1.79.79-2.73.96-.45.08-1.34.08-1.14-.62.1-.35.45-.65.69-.9.07-.08.14-.15.21-.22-.23.12-.46.25-.68.36-.54.29-1.04.61-1.56.92-.42.25-.86.49-1.36.48-.06,0-.09-.04-.1-.09-.1-.9.46-1.72.89-2.49-.16.16-.31.32-.49.48-.6.55-1.44,1.45-2.32,1.5-.89.05-.81-.91-.59-1.53.23-.64.59-1.2.97-1.76-.25.16-.5.32-.76.45-.18.09-.46.25-.67.18-.62-.22.4-1.84.55-2.15.42-.88.87-1.77,1.43-2.58-.18.12-.36.23-.54.34-.35.22-1.51.84-1.42-.07.04-.41.31-.76.48-1.12.3-.65.64-1.28,1.02-1.88.22-.36.44-.7.67-1.04-.07.39.03.73.47.91.73.31,1.9-.51,2.68-1.23-.13.32-.15.62.12.74.8.32,1.76-.44,2.44-1.07-.14.43-.19.92.29,1.1.46.19,1.06-.1,1.57-.44.09-.08.18-.16.27-.25.05-.05.11-.09.17-.14.15-.13.29-.29.43-.43,0,0,0,0,0,0-.17.11-.34.22-.5.32-.39.27-.96.72-1.46.71-.83,0-.62-.88-.35-1.47-.36.27-.72.54-1.1.78-.31.19-.84.62-1.24.58-.29-.02-.44-.24-.35-.53.06-.21.13-.44.22-.66-.12.09-.25.17-.37.26-.35.3-.78.59-1.2.78-.27.17-.55.3-.85.37-1.11.28-.48-1.38-.18-2.09-.22.22-.52.59-.76.99-.49.31-1,.58-1.51.69-.98.2-.02-1.26.16-1.56.71-1.18,1.43-2.36,2.25-3.47,0,.07,0,.14.03.21.01.06.04.12.1.13.55.13,1.1-.09,1.56-.39.11-.07.24-.14.36-.23-.08.12-.09.19-.14.37-.01.05-.02.1.02.14.46.45,1.33.18,1.86-.02.49-.19.97-.41,1.43-.66.16-.09.38-.27.58-.4-.21.42-.38,1,.15,1.03.66.05,1.39-.46,1.92-.92.19,1.05,1.37.63,2.21.06.08-.07.16-.15.24-.23.12-.12.29-.25.41-.4,0,0,0,0,0,0-.19.1-.38.21-.58.3-.42.21-.88.53-1.36.58-.58.04-.75-.4-.62-.82-.19.12-.38.24-.57.35-.34.21-.82.58-1.24.62-.65.06-.42-.57-.1-1.05,0,0,0,0-.01-.01-.43.26-.91.47-1.32.68-.7.35-1.57.87-2.37.82-.5-.03-.27-.64.02-1.1-.01,0-.02.01-.04.02-.2.17-2.08.96-2.01.69.16-.64.58-1.18.88-1.76.02-.03-.02-.06-.05-.03-.3.37-.89.89-1.18,1.42-.31.12-1.07.36-1.28-.02-.19-.37.14-.94.27-1.27.63-1.59,1.44-3.09,2.29-4.58.41-.71.8-1.46,1.3-2.11.18-.23.37-.46.54-.7-.25.1-.5.2-.73.31-.45.22-1.6.99-2.02.43-.22-.29.2-.81.32-1.04.36-.65.75-1.28,1.19-1.89.53-.75,1.1-1.45,1.69-2.14.06-.09.12-.17.18-.26.03-.01.04-.02.07-.04-.06.21-.05.43.1.65.4.59,1.56-.19,2.08-.59,0,.04,0,.08,0,.12.04.26.42.3.61.33.99.14,2.14-.56,2.8-1.24-.19.09-.39.17-.59.25-.6.23-1.21.56-1.86.66-.32.05-.5-.02-.58-.15-.08-.04-.1-.1-.04-.21,0-.07.03-.14.07-.22-.22.12-.44.24-.67.35-.33.15-.86.47-1.23.36-.55-.17-.41-.64-.15-1.07-.11.11-.22.23-.31.35-.61.28-1.65.7-1.6.2.03-.36.34-.64.53-.93.39-.6.8-1.2,1.22-1.78.46-.63.93-1.24,1.4-1.86-.03.18-.01.35.07.51.35.71,1.76-.31,2.18-.66,0,.02-.02.05-.02.08-.04.26-.04.6.3.67.92.19,1.8-.33,2.32-1.05.01-.02.02-.04.02-.06-.1.06-.2.12-.31.17-.47.25-.99.56-1.51.66-.34.07-.63-.13-.6-.49,0-.12.05-.23.11-.35-.35.25-.72.47-1.12.63-.25.1-.8.32-.97-.04-.2-.41.07-.92.39-1.3-.21.16-.44.38-.61.65-.64.28-1.42.78-2.1.64-.05-.01-.08-.08-.07-.12.25-.93.94-1.71,1.48-2.48.48-.68,1.01-1.33,1.44-2.03.03.05.07.09.12.13.4.28,1.06-.05,1.45-.19.37-.14.75-.35,1.07-.61-.14.36-.13.7.36.77.61.08,1.35-.44,1.79-.87-.18.08-.36.16-.54.24-.26.1-.87.43-1.16.22-.29-.21-.26-.51-.12-.82-.39.19-.79.37-1.21.56-.37.16-1.03.53-1.41.25-.17-.12-.19-.31-.12-.52,0,0,0,0,0,0-.07.12-.15.25-.21.38-.39.18-.79.34-1.19.34-.06,0-.12-.06-.09-.12.32-.87,1.08-1.54,1.65-2.25.6-.75,1.2-1.49,1.76-2.26-.1.05-.19.09-.29.14-.49.25-.94.55-1.48.69-.1.03-.15-.09-.09-.16.2-.25.4-.49.62-.73.73-1,1.54-1.94,2.3-2.91.06-.06.12-.12.18-.17.16-.15.34-.33.52-.46.24-.16.52-.2.81-.12.04.01.17.08.25.14.03.03.05.07.07.11.02.03.05.05.08.06.03.04.05.07.08.11.61.53,1.11,1.21,1.6,1.84.37.48.69,1.03,1.1,1.49.31.35.64.67.86,1.09.03.06-.02.17-.11.14-.5-.18-.95-.48-1.41-.74-.22-.13-.43-.26-.64-.4.54.74,1.11,1.44,1.68,2.16.57.71,1.33,1.39,1.65,2.25.02.06-.04.12-.09.12-.52,0-1.04-.26-1.52-.5.46.96,1.17,1.77,1.78,2.65.54.77,1.23,1.55,1.48,2.48.01.04-.02.11-.07.12-.59.12-1.26-.23-1.83-.52,0-.21-.08-.43-.19-.63-.15-.13-.3-.27-.45-.41,0,0-.01,0-.02.01.09.22.17.43.25.66.06.18.15.5-.12.58-.38.1-.91-.43-1.19-.6-.18-.13-.36-.24-.54-.35,0-.01-.02-.02-.03-.02.26.3.53.57.82.84.22.21.65.59.99.53.19-.04.32-.12.39-.25.5.64.99,1.29,1.46,1.94.42.58.83,1.18,1.22,1.78.19.29.5.57.53.93.05.58-1.33-.06-1.84-.31.01-.3-.11-.67-.27-.89,0,0-.02-.02-.03-.03,0,.1.01.2.02.3.02.25.06.66-.19.83-.33.23-.72.01-1.04-.16-.48-.26-.93-.59-1.38-.91.02.09.04.19.06.28.03.2.16.6,0,.75-.17.15-.64-.24-.75-.32-.23-.17-.46-.45-.71-.63.25.56.93,1.35,1.53,1.35.54,0,.38-.53.19-.98.54.53,1.1.98,1.96.99.42,0,.58-.26.6-.58.15.17.3.34.44.52.03.01.06.03.09.05.06.09.12.17.18.26.59.69,1.15,1.4,1.68,2.14.43.61.83,1.24,1.19,1.89.13.23.54.76.33,1.04-.42.56-1.58-.21-2.02-.43-.17-.08-.35-.16-.53-.23.04-.4-.06-.86-.19-1.19.05.49.03,1.01-.14,1.41-.37.91-1.41-.17-1.95-.86-.1-.08-.19-.16-.27-.26h0s.01.04.01.04c.08.34.19.77.05,1.1-.11.29-.46.22-.68.11-.29-.14-.53-.36-.75-.6.12.24.24.46.43.67.19.2.62.56.93.42.42-.19.4-.65.28-1.08.12.19.24.39.38.54.23.25.8.71,1.18.63.41-.08.61-.39.68-.77.12.15.24.31.36.46.5.66.89,1.4,1.3,2.11.85,1.48,1.66,2.99,2.29,4.58.13.33.47.9.27,1.27-.21.4-1.04.11-1.32,0-.13-.05-.25-.1-.38-.16,1.07,1.33,1.96,2.78,2.84,4.25.18.3,1.15,1.76.17,1.56-.65-.14-1.29-.53-1.88-.93.46.67.92,1.35,1.34,2.05.37.61.72,1.23,1.02,1.88.16.36.43.71.48,1.12.1.91-1.07.29-1.42.07-.18-.11-.36-.22-.54-.34.56.81,1.01,1.7,1.43,2.58.15.3,1.17,1.93.55,2.15Z"/>
      <path class="cls-1" d="M15.68,23.04c-.16.17-.34.32-.51.48-1.26,1.1-1.15-.3-1.1-.67.02-.09-.09-.08-.13-.04-.34.37-.81.58-1.24.81-.19.09-.38.17-.57.25-1.24.52-.78-.32-.6-.75.04-.09-.06-.13-.12-.08-.46.35-.94.68-1.48.9-.36.15-1.43.64-1.14-.43.1-.37.31-.71.51-1.03.01-.03-.01-.04-.03-.02-.44.49-.87,1-.98,1.66-.12.69.77.62,1.16.51.7-.2,1.32-.75,1.84-1.23-.1.09-.28.31-.38.6-.03.12,0,.3.12.36.58.29,1.29-.05,1.79-.37.31-.2.68-.41.93-.7.35-.4.03-.08-.03.22-.09.41.43.77.8.69.65-.14,1.11-.48,1.38-1.08.07-.16-.13-.17-.22-.09Z"/>
      <path class="cls-1" d="M20.36,41.25c-.04.45-.21.89-.7.99-.52.11-1.17-.1-1.58-.49-.03.4-.1.81-.36,1.05-.66.62-1.25-.59-1.57-1.18-.17.26-.36.52-.56.76-.16.18-.34.48-.61.44-.31-.05-.22-.61-.06-1.03-.07.05-.15.1-.21.15-.5.36-1.04.72-1.64.93-.28.09-.79.23-.97-.11-.18-.34-.05-.71.16-1.04-.85.53-1.75.98-2.74,1.15-.74.12-.75-.37-.54-.83-.19.22-.38.46-.48.7-.01.1-.01.2,0,.31.07.39.78.27,1.03.23.84-.16,1.88-.69,2.56-1.36-.36.48-.67,1.06-.19,1.29.79.38,1.92-.26,2.63-.89-.1.37-.08.77.31.87.55.15,1-.52,1.27-1.03.25.57.74,1.42,1.4,1.11.45-.21.65-.62.71-1.07.47.4,1.15.68,1.68.38.49-.28.72-.8.48-1.32Z"/>
      <path class="cls-1" d="M24.02,37.5c-.25-.12-.58-.32-.73-.59,0,0-.01,0-.01.01.02.33.04.66-.14.99-.25.44-.8.47-1.21.3-.35-.14-.92-.57-1.19-1.03-.06.3-.17.57-.38.72-.33.25-.73.05-1.05-.25.23.39.53.73,1.04.63.39-.08.48-.52.49-.92.2.32.34.68.65.96.37.32.86.41,1.33.33.61-.11.78-.59.77-1.09.3.29.67.46,1,.05t0,0c-.19,0-.38-.02-.56-.11Z"/>
      <path class="cls-1" d="M22.07,32.61c-.27-.02-.56-.14-.83-.3-.09-.04-.17-.1-.25-.15-.15-.11-.29-.22-.41-.32-.14-.12-.35-.28-.51-.46.03.36.02.73-.08,1.03-.27.82-1.29-.59-1.6-1.03,0,0,0,0,0,0,.16.37.89,1.76,1.48,1.53.41-.16.48-.58.45-.99.47.57,1.12,1.13,1.85.98.5-.1.7-.39.72-.76-.15.29-.42.5-.83.46Z"/>
    </g>
  </g>
</svg>