<?xml version="1.0" encoding="UTF-8"?>
<svg id="Layer_2" data-name="Layer 2" xmlns="http://www.w3.org/2000/svg" viewBox="0 0 97.76 61.25">
  <defs>
    <style>
      .cls-1 {
        fill: #633b0d;
      }
    </style>
  </defs>
  <g id="Layer_1-2" data-name="Layer 1">
    <g>
      <g>
        <path class="cls-1" d="M91.07,53.1c-.18-1.22-.37-2.43-.58-3.65-.19-1.12-.3-2.24-.55-3.35-.29-1.28-.6-2.56-.94-3.83-.6-2.31-1.23-4.62-2.16-6.82-.48-1.13-.94-2.26-1.48-3.37-.25-.51-.53-.97-.88-1.41-.3-.38-.78-.73-1.04-1.16-.28-2.2-.66-4.33-1.38-6.43-.33-.97-.67-1.88-1.18-2.77-.55-.97-1.38-1.78-2.09-2.63-2.99-3.56-5.91-7.22-9.3-10.41-1.69-1.59-3.37-3.17-5.14-4.68C62.94,1.36,61.35-.05,59.36,0c-1.74.05-3.36.45-5,1-.98.34-1.95.7-2.93,1.02-.88.29-1.8.52-2.64.89-1.44.63-2.78,1.2-3.75,2.49-.44.59-.83,1.21-1.23,1.82-.3.41-.58.83-.82,1.27-.02.04-.04.07-.07.11-.07.1-.13.18-.21.26-.56-.07-1.16,0-1.73,0-.66,0-1.33,0-1.99.01-1.25.01-2.48.05-3.72.17-.05-.1-.11-.2-.17-.3-.53-.85-1.17-1.66-1.79-2.44-1.17-1.47-2.6-2.67-4.57-2.7-.83,0-1.55.52-2.17,1-.82.65-1.61,1.37-2.37,2.1-1.57,1.52-2.98,3.25-4.34,4.96-1.43,1.79-2.83,3.6-4.25,5.4-1.28,1.62-2.85,3.17-3.75,5.05-.93,1.94-1.29,4.06-1.72,6.16-.35,1.67-.75,3.3-.88,4.99-.02.14-.03.28-.04.42,0,.01,0,.03,0,.04,0,.02,0,.04,0,.05-1.34,2.13-2.36,4.41-2.6,6.99-.05.57-.05,1.14-.03,1.71-.1.34-.12.68.02.98h0s0,.04,0,.06c-.32.54-.63,1.09-.93,1.64-.93,1.71-1.47,3.57-2,5.43-.25.88-.51,1.74-.69,2.64-.1.53-.16,1.06-.21,1.59-.01.16-.02.34-.02.5-.47.22-.92.49-1.43.47-.03,0-.06.05-.03.06.43.11.87.01,1.3-.09.81-.18,1.54.09,2.34.26.65.13,1.47-.25,2.11-.35.25-.04.5-.06.76-.07,3.57.04,8.27.06,12.52.07-.39.19-.76.4-1.16.58-.02,0-.05.07,0,.07.53,0,1.07-.32,1.6-.41.97-.18,1.64.16,2.52.47.76.27,1.21.02,1.9-.31.92-.45,2.09-.24,3.07-.17.05,0,.1-.09.04-.1-.24-.04-.48-.08-.72-.12,1.81,0,3.08,0,3.44,0,1.33,0,2.66,0,4,0,.17.05.35.11.52.16,1,.27,1.97.43,3,.19.37-.08.72-.22,1.08-.35h3.7c.16.02.33.01.5,0h1.84c-.12.06-.24.11-.37.15-.02,0-.05.06,0,.06.03,0,.05,0,.08-.01.86-.34,1.77-.66,2.68-.46.64.14,1.27.38,1.93.42.67.05,1.4-.06,2.05-.25.59-.17,1.17-.41,1.78-.5.56-.09,1.1-.04,1.66.08.32.07.63.15.94.27.27.1.54.25.82.32.25.06.51.08.76.07.18-.03.35-.07.52-.12h1.67c5.15,0,10.3,0,15.45,0,3.92,0,7.84.02,11.76-.05.43.07.88.03,1.32.05.75.02,1.51-.03,2.25.02.11,0,.21-.08.26-.18.03-.03.05-.07.05-.11.07-.75-.12-1.57-.22-2.31ZM62.5,2.24c.51.45,1,.94,1.46,1.44-.12-.09-.24-.18-.35-.27-.42-.45-.84-.89-1.27-1.32.05.05.11.1.16.15ZM48.87,3.51c1.13-.47,2.34-.77,3.5-1.14.97-.32,1.92-.65,2.87-.94.26.1.5.13.87.16,1.39.12,2.33.74,3.38,1.62,1.06.9,2.08,1.83,3.11,2.75,1.22,1.25,2.43,2.52,3.61,3.81,1.79,1.96,3.48,4.07,5.31,6.04.07.18.14.35.22.53.31.74.68,1.48.81,2.28.24,1.47.31,3,.34,4.49.03,1.54.33,3.07.44,4.61-.33-1.36-.73-2.71-1.12-4.03-.33-1.11-.65-2.23-.99-3.33-.36-1.18-.95-2.42-1.12-3.64,0-.07-.1,0-.1.04.02,1.18.4,2.42.6,3.59.15.87.31,1.73.49,2.59-.78-2.04-1.29-4.22-1.93-6.29-.01-.04-.08,0-.07.04.56,2.37.94,4.85,1.79,7.14.25.67.49,1.35.73,2.02-.26-.44-.55-.87-.87-1.26-.13-.15-.27-.31-.42-.46.06-.05.1-.12.09-.18-.17-1.34-.93-2.47-1.39-3.71-.56-1.5-1.3-2.91-1.9-4.38,0-.02-.05,0-.04.03.4,1.34.98,2.62,1.39,3.95.4,1.28.8,2.65,1.4,3.86-.54-.5-1.15-.95-1.77-1.3-.21-.12-.42-.23-.63-.35.07-.03.14-.12.13-.19-.47-2.37-1.52-4.59-2.26-6.88-.01-.04-.08,0-.08.04.34,1.28.78,2.53,1.15,3.8.31,1.03.45,2.16.9,3.14-.34-.18-.68-.34-1.03-.48-.06-.02-.13-.05-.19-.08.02-.04.03-.09.03-.13-.09-1.5-.59-2.93-1-4.36-.41-1.44-.95-2.84-1.47-4.25-1.17-3.15-2.68-6.11-4.3-9.04-.03-.05-.1.02-.08.06,1.32,3.02,2.41,6.16,3.43,9.29.51,1.57,1.04,3.13,1.51,4.72.19.64.38,1.28.59,1.91-.02-.04-.04-.09-.06-.13-.47-1.09-.97-2.16-1.49-3.23-.99-2.02-1.86-4.11-3.02-6.05-.78-1.31-1.53-2.78-2.58-3.92-.26-.26-.53-.5-.81-.75-.04-.03-.08-.06-.12-.1-1.58-1.18-3.55-1.01-5.39-1.34-.87-.16-1.75-.23-2.63-.12-.56.07-1.12.13-1.65.28.6-.29,1.25-.5,1.83-.74ZM73.27,31.41c-.05.02-.11.04-.16.06,0-.02-.01-.04-.02-.07-.05-.17-.11-.34-.17-.52.12.18.24.36.36.53ZM71.83,32.01c-1.37.64-2.63,1.44-3.82,2.37-.01-.81-.14-1.61-.32-2.41-.24-1.13-.41-2.27-.6-3.41-.28-1.67-.65-3.34-1.02-5,.05.05.11.09.17.14.85.75,1.61,1.63,2.23,2.58,1.21,1.86,2.25,3.83,3.37,5.74ZM68.75,23.49c.54.42,1.05.89,1.49,1.41-.47-.48-.97-.96-1.49-1.41ZM63.3,42.4c-.12.31-.21.64-.29.97.07-.44.14-.88.23-1.32.02.12.04.23.05.34ZM55.75,14.05c-.22.38-.45.75-.64,1.14-.09.17-.15.36-.22.54-.08-.15-.15-.3-.23-.44.52-1.02,1.08-2.05,1.47-3.11.03-.07-.06-.05-.09,0-.46.99-1.08,1.88-1.52,2.87-.6-1.08-1.25-2.13-1.96-3.13-.5-.7-1.1-1.34-1.69-1.96-.22-.23-.47-.43-.71-.64l-.15-.17c.08-.12.14-.25.19-.39.14-.41.41-.75.62-1.12.05-.08-.05-.1-.1-.04-.19.28-.4.54-.6.82-.12.17-.18.37-.28.55-.1-.12-.2-.23-.3-.35.47-.8,1.03-1.61,1.32-2.47.01-.04-.03-.04-.04-.01-.39.75-1.08,1.43-1.49,2.2-.05-.06-.1-.13-.15-.19-.01-.08-.03-.16-.05-.23-.09-.37-.31-.72-.5-1.04-.45-.75-.93-1.5-1.48-2.2.45-.09.92-.1,1.41-.13.95-.06,1.83.05,2.77.23,1.69.32,3.32.25,4.75,1.15.11.19.21.37.31.53.45.73.71,1.59.95,2.4.51,1.74.76,3.49.97,5.28.21,1.76.45,3.52.72,5.27.12.79.07,1.61.18,2.41.05.37.09.75.12,1.12-.14-.16-.27-.32-.41-.48-.33-.41-1-.93-1.56-.93-.06,0-.12,0-.18.01-.29-1.47-.97-2.98-1.59-4.33-.18-.38-.36-.75-.54-1.12.1-.22.16-.45.24-.67.15-.44.41-.86.63-1.27.08-.15-.11-.2-.18-.07ZM53.3,26.25c-.03.11-.04.23-.06.34-.91,1.22-1.77,2.43-2.46,3.76.26-.58.54-1.15.85-1.7.46-.83,1.01-1.6,1.6-2.34.03.01.07-.03.07-.05ZM47.46,37.75c-.11-.02-.23-.04-.35-.04.01-.07.02-.13,0-.19-.04-.13-.11-.25-.15-.37-.04-.16.42-.15.49-.15.33,0,.53-.13.57-.48.04-.42.68-.42.49.07-.02.05-.02.13-.01.19.02.14.06.22.16.29-.02.33-.01.69.03,1.03-.37-.2-.81-.33-1.22-.34ZM48.51,38.71c-.82-.02-1.63-.01-2.45-.02,0-.18.08-.29.29-.32.02,0,.04-.01.06-.02.34-.03.67-.09,1.02-.04.22.03.41.1.6.15.07.03.13.05.17.07.09.04.17.09.25.15.02.01.04.03.05.05ZM48.59,35.87c-.33-.16-.72.08-.85.37-.05.1-.08.19-.11.29-.04,0-.08,0-.12,0-.25.01-.45.08-.65.21-.12.08-.28.29-.25.45.02.11.19.37.21.53-.2.02-.4.07-.58.17-.49-.08-.95-.32-1.44-.43-.62-.15-1.34.25-1.92.42-.96.29-1.66-.49-2.59-.44-.44.02-.74.27-1.03.53-.92,0-1.73.39-2.63-.07-.62-.31-.97-.48-1.66-.2-.22.09-.43.19-.63.26-.01,0-.03-.01-.06-.01-.71.06-.83-.4-1.38-.62-.23-.09-.12-.19-.09-.42.03-.25-.16-.51-.35-.65-.14-.11-.63-.03-.71-.14-.09-.14-.2-.38-.4-.39-.47-.03-.77.7-1.18.62,0-.05,0-.1,0-.14.08-.19.12-.42.05-.58.04-.32.08-.64.13-.92,0-.04.01-.07.02-.11.49-1.52,1.38-2.96,2.59-3.94.86-.7,1.78-1.33,2.7-1.94.28-.19.58-.35.88-.48.07-.03.14-.05.21-.08,0,0,.01-.01.02-.02.02,0,.03-.02.05-.03.1-.04.2-.07.31-.11.19-.04.38-.03.58-.01.04,0,.07,0,.1-.01.03,0,.05.01.06.03.04,0,.09.01.13.02.02,0,.03.01.05.03.6.03,1.21.03,1.81.03,1.35,0,2.71.02,4.07.02,1.36,0,2.72,0,4.08-.02,1.11-.01,2.28.03,3.39-.09-.87,1.41-1.46,3.02-1.97,4.58-.36,1.09-.62,2.24-.66,3.39-.04-.04-.09-.07-.15-.1ZM39.17,18.75c.37.07.77-.18,1.14-.19.26-.01.49.11.73.19-1.69.02-3.37.08-5.06.14-.08-.18-.17-.37-.25-.55.35-.11.75.25,1.07.29.31.04.51.05.8-.1.54-.28.91-.25,1.45-.04.17.06.4.06.6.04-.15.09-.3.16-.46.17-.03,0-.05.05-.01.06ZM43.89,18.57c.09-.09.2-.15.3-.18.08,0,.17,0,.25,0,.01,0,.03-.01.04-.02.5.03,1.06.37,1.54.2.08-.03.14-.1.2-.16.59-.59.64-.13,1.04.01.06.02.11.04.16.05-.14.08-.31.08-.54-.09-.02-.01-.04.01-.04.03.06.12.13.2.22.25-.12.01-.24.03-.35.06-1.63-.09-3.31.02-4.92.03h-.01c.23-.04.48-.07.68-.19.54-.33,1-.21,1.51-.17-.04.05-.08.1-.12.17-.02.03.01.05.04.02ZM47.34,19.05c.2.07.36.14.38.15.23.15.44.26.68.31.13.09.26.18.36.29.55.59,1.12,1.14,1.63,1.77.58.71.92,1.55,1.26,2.39.2.49.51,1.06.67,1.64,0,0,0,0-.01,0-.28-.01-.5.28-.67.51-.01,0-.03,0-.05,0-.05,0-.09,0-.14,0-.1.02-.19.05-.28.1-.17.1-.28.25-.34.42-.05.12-.04.23.01.31-.08,0-.17,0-.26.02-.28.05-.57.26-.83.38-.54.25-1.22.17-1.71-.15-.4-.27-.74-.59-1.27-.41-.59.19-1.11.53-1.67.79-.34,0-.69,0-1.03,0-.59,0-1.19-.01-1.79-.02.05,0,.1-.02.14-.03.05,0,.11-.12.03-.12-.68-.02-1.13-.13-1.73-.43-.29-.15-.7.07-.95.19-.61.31-1.16-.26-1.76-.17-.18.03-.31.14-.43.28,0-.66,0-1.32.06-1.97.1-.99.12-1.94-.19-2.9-.38-1.18-.93-2.33-1.45-3.46,0,0,0-.02-.01-.03,1.89.07,3.77.14,5.67.15,1.87,0,3.8.14,5.67-.03ZM48.74,19.23s0,0,0,0c-.29-.29-.57-.45-1.01-.54-.04,0-.07-.01-.11-.02.2-.08.39-.25.48-.43.14-.26.47-.44.7-.16.08.1.17.09.31.07.16-.05.32-.06.49-.02.39.19.4.41.02.66-.24.06-.48,0-.71.07-.09.03-.16.09-.17.19-.01.06,0,.12.02.18ZM51.34,27.08s0,0,0-.01c-.14-.06-.22-.1-.21-.29,0-.09.13-.15.21-.16.17-.01.3.06.46-.05.18-.12.24-.29.33-.47.14-.29.28.11.29.16,0,.05.02.08.04.11,0,.02,0,.03,0,.05-.21.28-.42.57-.62.86-.17-.08-.33-.16-.49-.22ZM51.69,27.51c-.05.07-.1.14-.14.21-.51-.07-1.04-.09-1.56-.09.42-.22.76-.52,1.3-.3.15.06.28.13.41.19ZM47.9,27.61c-.76-.02-1.53-.02-2.3-.02.12-.05.25-.11.36-.16.57-.25,1.1-.52,1.67-.03.09.08.18.15.27.21ZM41.46,27.56c-.72-.01-1.44-.01-2.17,0,.18-.02.35-.07.52-.16.64-.34.99-.08,1.57.14.02,0,.05.02.07.02ZM39.01,27.57c-.48.02-.95.04-1.42.08,0-.07,0-.15,0-.22.5-.27.8.08,1.29.13.04,0,.09,0,.13,0ZM49.06,36.54c.01-.4.04-.79.08-1.19.02-.08.03-.16.05-.24.06-.33.15-.65.23-.97-.08.44-.14.88-.18,1.33-.05.59-.13,1.2-.17,1.81-.01-.25-.02-.49-.01-.74ZM43.38,8.25c.2-.27.4-.54.59-.82.2-.28.4-.57.6-.86.36-.46.75-.9,1.18-1.28.28-.24.57-.4.88-.51.77,1.24,1.45,2.6,2.33,3.78-.53.13-1.06.74-1.41,1.06-.35.33-.7.68-1.02,1.04-.05.05-.22.32-.4.54-.4-.66-.91-1.26-1.51-1.74-.33-.26-.73-.37-1.13-.46,0,0-.2-.01-.41-.01,0-.04-.03-.07-.08-.09.13-.22.25-.44.38-.66ZM34.99,14.38c.17-1.13.3-2.26.52-3.39.1-.51.1-.93,0-1.35.6.7.98,1.51,1.34,2.37.52,1.23.95,2.6,1.14,3.92,0,.02.03,0,.03-.01-.13-1.37-.52-2.73-1.02-4.01-.36-.91-.81-2.04-1.62-2.65-.01-.03-.03-.06-.04-.1.86.09,1.72.12,2.58.14,1.74,1.61,2.55,4.02,2.97,6.31,0,.02.04,0,.03-.01-.18-1.28-.47-2.62-.97-3.81-.36-.87-.85-1.88-1.62-2.47.04,0,.07,0,.11,0,.34,0,.67,0,1.01,0,.36,0,.71.01,1.07.01.51.52,1.08.89,1.51,1.51.43.61.8,1.28,1.08,1.96.57,1.39.98,2.9,1.07,4.41,0,.01.02,0,.02,0-.06-1.54-.45-3.05-.97-4.49-.45-1.25-1.22-2.63-2.37-3.38.09,0,.17,0,.26,0,.47-.01.94-.06,1.41-.02.07,0,.14.01.2.03,0,0,.01-.02.01-.02.02.01.04.02.06.03,0,0,.01,0,.02,0,.03,0,.07,0,.1.01.36.27.75.52,1.07.83.54.51.94,1.15,1.27,1.81.66,1.3.98,2.67,1.16,4.11.02.12.19,0,.18-.08-.08-1.19-.24-2.32-.62-3.42.89,1.47,1.47,3.14,1.7,4.83-.03.12-.05.24-.07.36-.02.12-.01.23-.04.35-.01.04-.03.08-.04.12-.28-.08-.5-.31-.81-.36-.41-.07-.62.43-1,.44-.47,0-1.12-.36-1.58-.11-.37-.08-.79-.21-1.1-.14-.26.06-.42.14-.65.27-.3.16-.8.06-1.1-.02-.32-.08-.54-.25-.89-.19-.21.04-.41.15-.59.26-.19,0-.37,0-.55-.02-.29-.03-.49-.22-.76-.25-.4-.05-.91.28-1.27.16-.43-.15-.71-.49-1.22-.39-.18.04-.3.12-.38.23-.28-.61-.6-1.22-1-1.74.09-.67.25-1.34.35-2.01ZM6.98,41.46s0-.02,0-.03c1.16-2.08,2.74-3.65,4.62-5.11.02-.01.02-.05-.01-.04-1.71.96-3.47,2.22-4.41,3.96.14-.69.33-1.37.55-2.03.67-1.99,1.79-3.81,2.99-5.52.3-.43.61-.85.92-1.27,2.07-1.17,4.01-2.56,6.13-3.66,1.1-.57,2.81-1.08,4.11-1.86.11.29.25.57.4.84-.08.06-.16.12-.24.17-1.26.95-2.46,1.96-3.74,2.88-.04.03-.02.1.04.07,1.04-.64,2.01-1.38,3.04-2.04.37-.24.74-.5,1.11-.75.23.38.48.76.74,1.17-.41.02-.81.27-1.11.53-.69.62-1.39,1.25-2.05,1.91-1.43,1.44-2.57,3.03-3.66,4.72-.57.88-1.05,1.81-1.52,2.74-.2.4-.43.79-.55,1.22-.07.25-.15.5-.23.75-.01.04-.09.33-.12.48-.48-.21-.98-.41-1.49-.48-.82-.12-1.63-.32-2.45-.46-.45-.08-.93.21-1.17.58-.52.81-1.16,1.54-1.68,2.36-.06.09-.12.19-.18.28.31-1.56,1.24-2.98,2.38-4.07.02-.03,0-.07-.03-.04-.8.67-1.43,1.46-2.01,2.31-.12.18-.27.41-.41.64,0-.08.02-.16.03-.24ZM8.58,55.24c-.3-.02-.59-.04-.89-.05-.56-.03-1.11.05-1.66.09-.24,0-.48.01-.71.02-.57-.04-1.1-.32-1.68-.26-.08,0-.17.03-.25.04.43-1.17.77-2.38,1.28-3.52.66-1.47,1.41-2.63,2.43-3.88.02-.02,0-.06-.03-.04-1.56,1.27-2.96,3.09-3.63,5.09.2-.71.43-1.42.69-2.12.1-.27.2-.54.29-.81.27-.51.56-1.01.85-1.5.45-.75,1.07-1.6,1.85-2.02.92-.5,1.82.01,2.46.68,1.21,1.26,2.22,2.59,3.17,4.07.17.27.33.54.47.83.32,1.11.37,2.27.66,3.38-1.77,0-3.53,0-5.3.01ZM21.54,55.22c-1.35,0-2.69,0-4.04,0h0c-.03-.15-.05-.3-.06-.45,0-.07,0-.14-.02-.2-.03-.34-.06-.68-.12-1.01-.07-.39-.14-.78-.22-1.18-.1-.67-.2-1.34-.3-2-.18-1.28-.43-2.45-.86-3.61.01-.06.02-.12.03-.18,0-.07-.08-.02-.09.02,0,0,0,0,0,0-.14-.35-.29-.7-.46-1.05-.7-1.42-1.82-2.6-2.97-3.66-.6-.55-1.28-1.09-1.97-1.54-.13-.09-.27-.16-.41-.23.34.05.71.18.91.23.7.17,1.43.27,2.09.58.67.31,1.35.6,2.02.92.69.33,1.33.79,2.04,1.08.48.2.86.48,1.17.81.2.41.37.83.57,1.25.3.64.46,1.42.64,2.1.17.63.38,1.26.55,1.89.35,1.25.73,2.48,1.15,3.71.22.63.4,1.27.65,1.89.05.13.1.36.17.53-.16,0-.31.03-.48.06ZM25.97,48.39c-.14,1.17-.33,2.33-.4,3.5,0,.1,0,.2-.01.3-.16.37-.11.89-.13,1.27-.01.23-.02.45-.02.67,0,.01-.02.03-.03.04-.04.06-.02.13.02.15,0,.3.02.6.06.9-.9,0-1.8,0-2.7,0-.11-.66-.3-1.3-.44-1.95-.21-.97-.43-1.93-.71-2.89-.52-1.75-1.07-3.49-1.67-5.21-.23-.68-.56-1.33-1-1.88.69-.96,1.19-2.14,2.1-2.93.05-.04.03-.13-.04-.08-.45.31-.83.72-1.15,1.17-.38.52-.8,1.05-1.09,1.64-.42-.47-.93-.85-1.55-1.09.31-.44.55-.94.88-1.37.35-.44.74-.85,1.03-1.34.01-.02,0-.05-.03-.03-.48.38-.91.89-1.33,1.34-.3.33-.74.8-.88,1.27-.29-.12-.58-.24-.87-.37.78-1.34,1.47-2.72,2.41-3.95.09-.12-.03-.25-.13-.12-.48.6-.93,1.23-1.34,1.88-.41.66-.91,1.35-1.21,2.08-.16-.07-.31-.14-.47-.21.01-.01.03-.03.04-.05.96-1.13,1.39-2.67,2.12-3.94.47-.83,1.05-1.59,1.63-2.34.25-.33.75-.7.8-1.12,0-.02-.02-.02-.03,0-.26.52-1.03,1.02-1.43,1.43-.55.56-1.02,1.19-1.47,1.83-.8,1.12-1.79,2.63-2.06,4.02-.03-.01-.07-.03-.1-.04-.25-.11-.51-.23-.77-.34.35-.7.62-1.44,1.02-2.13.48-.83.98-1.66,1.5-2.47.69-1.07,1.42-2.1,2.22-3.08.05.1.16.16.31.09.2-.1.43-.25.67-.41.42,1.88,3.22,6.88,3.53,7.53.85,1.72,1.84,3.64,2.99,5.37-.09.96-.17,1.93-.29,2.89ZM28.5,25.23c.22-.33.42-.67.62-.97.64-.94,1.24-1.92,1.63-2.99.02-.07-.06-.09-.1-.04-.7.91-1.49,1.74-2.29,2.55-.14.15-.33.33-.53.54-.77-.99-1.64-1.88-2.65-2.66-.4-.31-.82-.6-1.24-.88-.74-.39-1.51-.64-2.26-.44-.17.05-.33.1-.49.17-1.12.9-2.26,1.78-3.25,2.83-.94.99-1.85,2.03-2.96,2.82-.98,1.18-1.92,2.39-2.86,3.6-.59.76-1.17,1.53-1.73,2.32.4-.72.76-1.45,1.17-2.17.7-1.24,1.45-2.42,2.28-3.57.02-.03-.02-.06-.04-.03-1.13,1.35-2.24,2.82-3.14,4.38.03-.07.06-.14.09-.21.46-1.08.87-2.2,1.41-3.25,1.08-2.08,2.83-3.93,4.71-5.31.05-.04.03-.11-.04-.07-2.02,1.21-3.87,2.89-5.18,4.85-.68,1.03-1.06,2.26-1.44,3.42-.1.31-.21.62-.32.93,0-.04.02-.08.03-.12.16-.63.34-1.25.5-1.88.54-2.22.91-4.53,1.92-6.59.99-2.02,2.67-3.69,4.03-5.46,1.4-1.81,2.79-3.63,4.21-5.42.46-.58.93-1.15,1.41-1.72.03.04.07.06.14.06.04,0,.07-.01.1-.01-.02.03-.04.06-.07.08-1.01,1.24-2.51,2.9-2.86,4.5-.02.1.11.05.13,0,.02-.03.03-.05.05-.07.04-.05-.02-.09-.07-.06.61-.42,1.06-1.24,1.55-1.81.51-.59,1.08-1.13,1.67-1.65-.96,1.32-1.63,2.88-2.27,4.37-.32.74-.66,1.47-1,2.2,3.35-2.61,6.73-5.27,10.62-6.95.02.13.03.26.04.4.05.77-.05,1.74.18,2.54-.03.69-.02,1.39.05,2.03,0,.07.03.12.05.16-.8.22-1.59.53-2.32.87-.68.31-1.33.7-1.95,1.13-.63.61-1.18,1.26-1.73,1.93.75-.69,1.64-1.25,2.51-1.77,1.05-.63,2.2-1.06,3.37-1.41.67-.2,1.44-.38,2.15-.32.05.33.09.65.15.97.16,1.04.39,2.06.61,3.09.25,1.16.42,2.57.8,3.82-.98,1.88-1.85,3.8-2.75,5.71-.1-.17-.2-.33-.3-.5.58-1.27,1.16-2.53,1.73-3.81.09-.21-.2-.21-.29-.06-.38.68-.79,1.33-1.21,1.98-.22.34-.48.71-.7,1.1-.08-.14-.16-.29-.24-.44.46-.91.9-1.83,1.27-2.77.02-.05-.05-.05-.07-.02-.27.52-.59,1-.88,1.51-.17.29-.37.58-.54.88-.23-.42-.46-.83-.71-1.25-.21-.35-.44-.7-.67-1.04ZM29.28,35.75s0-.08.03-.1c.21-.13.38-.11.49.13.05.12.07.25.09.37.05.28.25.39.49.42.1-.03.2-.07.28-.14.3-.25.56-.28.74.07.18.34,1.31-.19.85.82-.02.05-.01.14.02.19-.29.07-.54.2-.8.3-.16.02-.32.04-.48.03-.29-.02-.52-.14-.75-.27-.32-.6-.64-1.2-.95-1.81ZM30.39,37.98s0,0,.01,0c.05.04.12.07.19.09.29.16.6.15,1.01.02.13-.04.26-.09.39-.14.28-.1.58-.17.84.04.1.08.16.18.28.23.28.12.5.15.8.12.37-.03.72-.3,1.04-.46.7-.35,1.13-.04,1.69.3.59.36,1.44.3,2.14.14-.05.03-.09.06-.14.09,0,0-.03.04,0,.04.13.03.21-.02.34-.06.52-.16.86-.42,1.43-.24.73.23,1.36.39,2.12.21.36-.09.7-.28,1.03-.42.66-.28,1.14-.27,1.81-.04.19.07.38.12.57.16-.02.02-.05.04-.07.06-.1.09-.32.36-.34.56-1.65-.02-3.29-.03-4.94-.03-1.63,0-3.27.01-4.9.02-1.6,0-3.37-.16-4.94.18-.12-.29-.25-.59-.39-.87ZM38.15,55.57c-.9.19-1.79.12-2.64-.23-.42-.17-.82-.43-1.26-.53-.31-.07-.62-.05-.92,0-.29.11-.57.28-.88.37,0,0-.02,0-.02.02h-.25c.02-.33.03-.65.01-.98,0-.04,0-.09-.01-.13,0-.05.01-.1.02-.15.14-.1.31-.12.49-.06.22.06.35.16.49.34.13.16.35.41.6.34.29-.09.56-.23.83-.36.7-.35,1.06.41,1.46.76.49.43,1.06.21,1.56-.04.62-.31,1.19-.36,1.87-.17.23.06.45.14.68.2-.67.22-1.34.46-2.03.61ZM42.6,54.98c-.25-.05-.5-.11-.75-.15-.39-.07-.77-.07-1.14-.03-.02,0-.04.01-.06.02-.87-.26-1.7-.55-2.61-.28-.67.2-1.26.71-1.92.12-.36-.33-.5-.74-1-.88-.32-.09-.82.17-1.1.26-.36.11-.61-.5-.98-.52-.27-.02-.61.03-.84.2,0-.3-.03-.6-.03-.85,0-.5-.01-.99-.03-1.49,0-.69-.01-1.39-.05-2.08-.03-.87-.08-1.73-.14-2.6-.06-1.1-.04-2.21-.09-3.31-.08-1.49-.45-2.94-1-4.32,1.38.31,2.97.15,4.37.15,1.73,0,3.45.01,5.18.02,1.73,0,3.47,0,5.2-.03,1-.01,2.02,0,3.03-.03,3.57,2.52,5.22,6.7,5.85,10.89,0,.04.06,0,.06-.03-.16-2.31-.9-4.69-1.93-6.76-.79-1.58-1.93-3.59-3.74-4.11.55-.02,1.09-.05,1.63-.1,1.26.67,2.29,1.51,3.15,2.68.85,1.16,1.44,2.5,2.02,3.8.5,1.14.89,2.33,1.18,3.55.03.27.09.53.17.79.22,1.1.37,2.22.46,3.33-.02,0-.05.01-.07.02,0,0,0,0-.01,0-.11,0-.22.02-.36.08-.17.08-.28.29-.39.43-.34.44-1.1-.21-1.38-.39-.49-.33-1-.32-1.54-.14-1.01.34-1.74,1.58-2.93,1.16-.61-.22-1.19-.61-1.86-.49-.47.08-.6.37-1.17.36-.42,0-.79-.26-1.2-.31-.68-.08-1.18.14-1.77.45-.71.37-1.44.55-2.22.59ZM58.74,54.66c-.02.16-.09.28-.18.38,0,.01-.02.02-.03.03,0,0,0,0-.01,0h0c-.19.17-.46.25-.72.27-.36.03-.71-.04-1.02-.2-.36-.1-.71-.25-1.05-.4-1.08-.46-2.25-.19-3.32.14-.61.19-1.23.28-1.84.29h-.28c-.71-.01-1.43-.13-2.13-.33-.62-.17-1.13.05-1.62.33h-1.17c-.43.04-.86.05-1.29.03-.12,0-.24-.02-.36-.03h-.15c.19-.01.38-.03.57-.07.69-.14,1.2-.72,1.9-.86.72-.15,1.47.47,2.19.2.54-.2.93-.42,1.54-.12.35.17.77.25,1.14.34.43.11,1.08-.07,1.43-.32.49-.34.92-.72,1.57-.69.38.02.73.27,1.05.45.46.25.95.37,1.45.2.13-.04.23-.11.33-.19.36-.4.78-.69,1.35-.49.38.13.72.6.66,1.01ZM61.45,44.78c-.01.86-.03,1.72-.04,2.58-.17-1.05-.43-2.1-.66-3.08-.5-2.08-1.1-4.1-1.77-6.13-.02-.05-.11.01-.1.06.51,2.08,1.02,4.17,1.39,6.29.18,1.04.38,2.07.53,3.12.05.33.08.66.12,1-.46-1.85-1.12-3.67-1.75-5.46-.02-.06-.12.01-.11.06.49,1.94.93,3.88,1.36,5.84.23,1.06.36,2.14.5,3.22.12.97.12,1.97.33,2.92h-1.75c.09-.06.17-.12.25-.19.11-.09.11-.29-.07-.23-.15.05-.29.1-.44.15.26-.34.32-.79.03-1.2-.29-.41-.72-.6-1.22-.6-.06,0-.13,0-.2.01-.04-1.04-.14-2.08-.31-3.11.05-.06.09-.12.09-.18.05-1.03.38-2.43.15-3.41-.29-1.18-.94-2.28-1.45-3.38-.46-.98-1.13-1.8-1.68-2.72-.09-.15-.15-.25-.25-.08.21-.4.4-.8.59-1.21.96-1.99,1.61-4.02,1.18-6.16-.27-1.33-.91-2.66-1.41-3.92-.35-.87-.59-1.97-1.13-2.77.03-.04.06-.09.08-.13.04-.06-.04-.07-.07-.03-.02.03-.05.06-.07.09-.03-.05-.07-.09-.11-.13.3-.37.61-.73.91-1.09.44-.53.89-1.05,1.31-1.6.23-.3.44-.62.73-.87.19-.15.38-.22.57-.24.1.27.25.52.39.77.1.17.19.33.29.49.16.43.35.85.53,1.27.43.98.81,1.97,1.17,2.98.77,2.1,1.18,4.26,1.57,6.45.19,1.02.28,2.08.29,3.12-.36-.95-.79-1.88-1.14-2.76-.91-2.28-2.08-4.43-3.45-6.47-.02-.03-.08.02-.06.05,1.1,1.95,2.04,4.01,2.87,6.09.41,1.02.78,2.06,1.15,3.1.29.82.5,1.68.76,2.52.01.25.02.5.03.75,0,.31,0,.61.02.92-.64-2.5-1.87-4.87-2.87-7.24-.04-.09-.17.03-.14.11.56,1.58,1.2,3.14,1.78,4.72.55,1.5.92,3.01,1.29,4.55,0,.39,0,.78,0,1.16ZM62.12,55.19h-.29c.08-1.15.08-2.31.09-3.46.05-.52.11-1.04.17-1.56,0-.02,0-.04,0-.06.08-.64.17-1.28.26-1.93-.08.84-.13,1.68-.19,2.52-.08,1.15-.21,2.34-.1,3.49.01.15.21.01.22-.07.33-2.08.55-4.23.67-6.33.06-1.03.17-2.06.28-3.08.05-.53.09-1.12.17-1.69.08.36.18.71.29,1.05.02.12.04.25.05.37.23,1.39.6,2.75.96,4.11.33,1.26.58,2.53,1.01,3.77.22.65.45,1.29.63,1.96.07.27.13.55.36.72.06.05.14.05.21.03.01.06.03.12.05.18-1.62,0-3.25,0-4.88,0ZM75.62,44.58c-1.13.98-2.2,2.03-3.21,3.13-.89.97-1.62,1.94-2,3.21-.42,1.4-.48,2.86-.75,4.28-.67,0-1.34,0-2,0,0,0,0-.01.01-.02.65-1.03.48-2.61.56-3.78.12-1.75.04-3.49.04-5.24,0-.11-.15-.05-.16.03-.15,1.31-.35,2.61-.53,3.92,0-.05,0-.09,0-.14-.06-.82-.19-1.64-.32-2.46,0-1.75.24-3.5.1-5.24,0-.03-.05,0-.05.02-.12.85-.36,1.68-.53,2.52,0,0,0,.01,0,.02h0c-.06.3-.11.6-.15.91-.13,1.15-.21,2.31-.24,3.48,0,.49,0,.99,0,1.48-.14-.58-.29-1.17-.44-1.75.38-1.29.32-2.82.45-4.15.14-1.41.39-2.8.51-4.2.01-.12-.14-.05-.15.03-.25,1.44-.67,2.83-.89,4.28-.1.68-.29,1.46-.39,2.24-.09-.35-.19-.7-.28-1.05-.22-.8-.44-1.61-.64-2.42.95-1.82,1.18-3.92,1.87-5.84.02-.04-.04-.04-.06-.01-.82,1.57-1.42,3.31-2,5.02-.13-.61-.24-1.22-.31-1.83-.1-.87.2-1.71.65-2.49.7-.95,1.59-1.77,2.49-2.57,1.68-1.49,3.5-2.7,5.57-3.58.34-.14.66-.25.99-.32.05.07.11.14.16.21-1.92,1.69-3.6,3.74-4.75,5.98-.12.23-.08.44.06.53-.1.23.17.34.33.21.2-.16.38-.35.57-.53.53-.35,1.06-.7,1.6-1.06.39-.19.78-.37,1.18-.55,0,.04.02.08.03.13-.01.03,0,.06.02.07.58,2.11,1.62,4.28,2.87,6.24.08.29.16.58.25.89-.15.14-.3.28-.46.41ZM81.56,40.08c-.05-.12-.1-.23-.15-.33-.17-.38-.35-.76-.54-1.13.17.18.34.37.5.57.09.18.18.36.26.55.11.25.23.49.36.73-.14-.13-.28-.26-.42-.38ZM89.41,55.29c-1.48-.04-2.96-.07-4.44-.08.02-.05.03-.1.04-.15.06-.43-.04-.92-.09-1.35-.08-.71-.17-1.42-.28-2.12-.08-.54-.15-1.09-.22-1.64-.02-.41-.04-.81-.07-1.22-.12-1.76-.44-3.52-.69-5.27-.01-.49-.02-.99-.05-1.48-.02-.29-.06-.58-.09-.87.1-.48.21-.95.28-1.44.15-1.07.18-2.15.17-3.23-.02-2.08-.2-4.14-.44-6.2.32.59.81,1.13,1.07,1.69.53,1.13,1.01,2.26,1.46,3.42.93,2.34,1.66,4.74,2.3,7.17.63,2.38,1.13,4.73,1.53,7.16.18,1.12.43,2.23.59,3.35.08.57.19,1.14.28,1.71.02.15,0,.3.01.44-.45-.03-.94.04-1.39.09Z"/>
        <path class="cls-1" d="M18.83,57.5c-.44-.03-.92-.07-1.37-.04-.73.06-1.29.42-2.05.23-.55-.14-1.07-.18-1.63-.12-.58.07-1.02.39-1.54.62-.02,0-.04.06,0,.05.63-.13,1.17-.34,1.83-.14.51.16.98.29,1.53.25.45-.03.84-.32,1.22-.53.59-.33,1.34-.21,1.99-.25.04,0,.08-.07.03-.08Z"/>
        <path class="cls-1" d="M16.02,57.31c-.86-.05-1.74-.29-2.59-.21-.72.06-1.4.39-1.93.87-.02.02,0,.05.02.03.7-.39,1.46-.62,2.27-.58.76.04,1.42.22,2.2.06.07-.02.15-.16.04-.17Z"/>
        <path class="cls-1" d="M11.01,58c-.49.01-.95,0-1.43-.1-.42-.1-.76-.35-1.2-.4-.33-.03-.68.07-1.02.22-.45-.09-.88-.24-1.32-.42-.71-.3-1.38-.87-2.14-.99-.72-.11-1.4.03-2.07.29-.29.11-.57.31-.83.49-.23.16-.7.66-.95.67-.03,0-.07.06-.02.07.43.06.87-.39,1.25-.55.85-.36,1.83-.32,2.66.07.79.37,1.4.9,2.27,1.09.66.15,1.36,0,1.96-.26.05-.03.11-.1.14-.17.18.03.37.08.56.14.7.22,1.41.13,2.12,0,.06-.01.12-.15.04-.15Z"/>
        <path class="cls-1" d="M14.88,58.64c-.7.14-1.24.19-1.95.01-.5-.13-.93-.33-1.46-.36-.95-.05-1.75.42-2.59.77-.03.01-.04.07,0,.07.02,0,.03,0,.05,0,.02,0,.05-.05.01-.06.39.06.84-.15,1.23-.24.63-.13,1.36-.05,1.95.19,1.08.43,1.72.2,2.75-.25.06-.03.09-.15,0-.13Z"/>
        <g>
          <path class="cls-1" d="M31.69,58.06c-.64-.18-1.32-.24-1.98-.16-.93.12-1.67.45-2.61.13-.61-.21-1.14-.4-1.79-.3-.72.11-1.38.45-1.93.91-.01,0-.01.03,0,.02.64-.34,1.29-.48,2.02-.44.63.04,1.16.5,1.78.57.72.08,1.33-.22,2-.44.82-.26,1.6-.19,2.44-.18.05,0,.13-.1.06-.12Z"/>
          <path class="cls-1" d="M34.09,58.67c-.72.19-1.27.56-2.06.52-.79-.04-1.59-.18-2.34-.41-1.37-.41-2.67.26-3.83.91-.03.02-.04.08,0,.06.79-.28,1.6-.52,2.44-.54.57-.01,1.13.09,1.69.16-1.15.24-2.28.59-3.43.82-1.56.3-3.15.21-4.7-.16-1.06-.26-2.07-.75-3.19-.67-.63.05-1.24.21-1.84.4-.48.15-.81.52-1.27.69-.03,0-.04.07,0,.06.43-.08.81-.38,1.24-.49.63-.17,1.36-.25,2.01-.21.69.04,1.34.34,1.98.59.64.26,1.31.46,1.98.61,2.5.59,5.36,0,7.57-1.28.09-.05.18-.21.18-.31.63.04,1.27.04,1.89-.05.62-.09,1.1-.43,1.67-.64.03-.01.05-.08,0-.07Z"/>
          <path class="cls-1" d="M38.55,57.98c-.72-.37-1.41-.46-2.21-.34-.64.09-1.13.44-1.8.27-.48-.12-.98-.21-1.46-.34-.83-.21-1.42-.45-2.29-.36-.33.03-1.11.05-1.29.42-.02.03.02.05.04.03.15-.19.73-.13.93-.15.45-.02.93.02,1.36.14.72.2,1.34.4,2.09.47.75.06,1.18.09,1.91-.14.91-.29,1.77-.2,2.66.1.05.02.12-.07.06-.1Z"/>
        </g>
        <g>
          <path class="cls-1" d="M59.77,57.09c-.55-.04-1.14-.09-1.69-.04-.9.07-1.6.52-2.53.28-.68-.17-1.32-.23-2.02-.14-.72.09-1.26.48-1.9.76-.03.01-.05.08,0,.07.78-.16,1.45-.42,2.26-.17.64.2,1.21.36,1.88.32.55-.04,1.04-.4,1.51-.66.73-.4,1.65-.26,2.45-.31.05,0,.1-.09.04-.1Z"/>
          <path class="cls-1" d="M56.3,56.85c-1.06-.06-2.14-.35-3.2-.26-.89.07-1.73.49-2.39,1.08-.02.02,0,.06.02.04.87-.48,1.8-.77,2.8-.71.95.05,1.76.27,2.71.07.09-.02.19-.2.05-.21Z"/>
          <path class="cls-1" d="M50.1,57.71c-.6.01-1.17,0-1.76-.13-.52-.12-.94-.44-1.48-.5-.81-.08-1.7.49-2.34.92-.04.03-.02.09.03.06.04-.03.04-.03.06-.08.17-.01,1.09-.27.98-.24.65-.18,1.22-.07,1.85.13.87.27,1.74.16,2.61.01.08-.01.16-.18.04-.18Z"/>
          <path class="cls-1" d="M54.89,58.49c-.87.18-1.53.24-2.41.02-.62-.16-1.15-.41-1.8-.44-1.17-.06-2.16.51-3.2.95-.04.01-.06.09,0,.08.02,0,.04,0,.06,0,.03,0,.06-.06.02-.07.48.07,1.04-.19,1.52-.29.78-.16,1.68-.06,2.41.23,1.34.53,2.13.24,3.4-.31.07-.03.11-.19,0-.16Z"/>
        </g>
        <g>
          <path class="cls-1" d="M93.29,56.69c-.72.19-1.27.56-2.06.52-.79-.04-1.59-.18-2.34-.41-1.37-.41-2.68.26-3.83.91-.03.02-.04.08,0,.06.79-.28,1.6-.52,2.44-.54.71-.02,1.42.16,2.13.2.66.04,1.33.05,1.99-.04.62-.09,1.1-.43,1.67-.64.03,0,.04-.08,0-.07Z"/>
          <path class="cls-1" d="M97.74,55.99c-.72-.37-1.41-.46-2.21-.35-.64.1-1.13.44-1.8.27-.48-.12-.98-.21-1.46-.34-.48-.12-.88-.25-1.29-.32-.02-1.21-.34-2.45-.56-3.61-.25-1.31-.59-2.61-1-3.87-.44-1.34-.92-2.67-1.42-4-.25-.65-.53-1.29-.76-1.95-.28-.75-.81-1.46-1.04-2.22-.02-.07-.12,0-.11.05.08.6.38,1.17.55,1.76.19.67.38,1.34.56,2.02.39,1.39.72,2.79,1.12,4.18.39,1.37.73,2.74,1.01,4.13.22,1.1.34,2.36.71,3.46-.02,0-.03,0-.05,0-.34.03-1.11.05-1.3.42-.02.03.02.05.04.02.14-.19.73-.13.93-.14.16,0,.32,0,.49,0,.06.15.12.29.18.43-.47-.08-.95-.1-1.42-.03-.93.12-1.67.45-2.61.13-.61-.21-1.13-.4-1.79-.3-.72.11-1.38.45-1.93.91-.01,0-.01.03,0,.02.64-.34,1.3-.48,2.02-.44.63.04,1.16.51,1.79.57.72.08,1.33-.23,2-.44.81-.26,1.6-.19,2.44-.18.05,0,.13-.1.06-.12-.05-.01-.11-.03-.16-.04.13-.08.25-.23.26-.36v-.03s.02,0,.04,0c.72.2,1.34.41,2.09.47.75.06,1.18.09,1.91-.14.91-.29,1.76-.2,2.66.11.05.02.12-.07.06-.1Z"/>
        </g>
        <path class="cls-1" d="M34.96,47.27c-.3-1.76-.7-3.55-1.45-5.19-.01-.02-.05,0-.04.03,1.38,3.56,1.42,7.46,1.74,11.22,0,.09.13.01.13-.04.15-2-.05-4.04-.38-6.02Z"/>
        <path class="cls-1" d="M35.02,40.8s-.07,0-.06.04c1.21,2.65,1.7,5.48,2.14,8.33.01.1.16.01.15-.07-.34-2.87-.9-5.72-2.24-8.3Z"/>
        <path class="cls-1" d="M40.71,43.9c-.47-1.53-1.12-3.13-2.29-4.26,0,0-.03.01-.02.02,1.04,1.32,1.64,3.07,2.11,4.66.46,1.54.78,3.12,1.05,4.7.01.08.12,0,.11-.05-.16-1.72-.47-3.41-.97-5.07Z"/>
        <path class="cls-1" d="M45.18,44.51c-.24-.82-.5-1.64-.84-2.42-.34-.76-.88-1.43-1.38-2.09,0-.01-.03,0-.02.02,1.91,3,2.65,6.55,3.22,10.02.01.1.16,0,.15-.07-.24-1.86-.61-3.66-1.12-5.47Z"/>
        <path class="cls-1" d="M47.8,41.59s-.1.02-.08.06c1.85,3.14,2.3,6.73,2.66,10.28,0,.06.09,0,.09-.04-.05-3.54-.8-7.26-2.67-10.3Z"/>
        <path class="cls-1" d="M38.93,28.22c-3.33.47-6.38,3.35-7.27,6.55-.01.03.03.02.04,0,1.01-3.12,4.06-5.77,7.23-6.54,0,0,0-.02,0-.01Z"/>
        <path class="cls-1" d="M37.71,29.58c-2.57,1.61-4.52,4.64-4.53,7.74,0,.09.11.04.12-.02.29-1.57.62-3.05,1.42-4.45.74-1.3,1.78-2.39,3-3.24.02-.01,0-.04-.01-.03Z"/>
        <path class="cls-1" d="M42.28,28.11c-2.53,1.07-4.15,2.9-4.72,5.62,0,.03.04.02.05,0,.68-2.58,2.31-4.41,4.67-5.58.02,0,.02-.04,0-.03Z"/>
        <path class="cls-1" d="M43.99,29.49c-2.46,1.59-3.92,4.45-3.22,7.38.02.08.12,0,.12-.05-.03-1.38,0-2.7.52-3.99.54-1.33,1.46-2.45,2.59-3.32,0,0,0-.01,0,0Z"/>
        <path class="cls-1" d="M48.8,28.44c-2.61,1.49-3.88,4.91-3.49,7.8.01.08.13.01.13-.04.08-1.4.21-2.68.63-4.03.44-1.42,1.52-2.86,2.74-3.71,0,0,0-.02,0-.02Z"/>
        <path class="cls-1" d="M47.04,31.8c-.57.97-.91,1.91-1,3.04-.07.88-.18,1.97.14,2.81.02.06.1-.01.09-.05-.19-2.02-.12-3.95.79-5.79.01-.02-.02-.03-.03-.01Z"/>
        <path class="cls-1" d="M39.02,22.73c-.3-1.31-.87-2.37-1.91-3.23,0,0-.03,0-.02.02,1.78,1.75,2.21,4.56,2.09,6.97,0,.11.13.04.14-.03.23-1.22-.04-2.54-.31-3.73Z"/>
        <path class="cls-1" d="M41.75,22.5c-.4-1.29-1.29-2.34-2.4-3.09-.02-.01-.05.02-.03.03,2.06,1.84,2.38,4.36,2.92,6.92.02.11.16.02.17-.06.1-1.29-.29-2.58-.66-3.81Z"/>
        <path class="cls-1" d="M43.8,22.19s-.05,0-.04.03c.34.82.63,1.69.75,2.56.12.84.06,1.69.1,2.53,0,.11.15,0,.17-.05.36-1.73-.17-3.55-.98-5.07Z"/>
        <path class="cls-1" d="M46.59,22.36c-.36-1.11-1.05-2.49-2.14-3.04,0,0-.02.01-.01.02.44.35.72.95,1.01,1.42.34.56.59,1.19.78,1.81.37,1.23.59,2.56.73,3.83.01.09.15.01.15-.05.1-1.34-.11-2.72-.52-4Z"/>
        <path class="cls-1" d="M48.14,20.37s-.03.01-.02.02c1.4,1.25,1.87,3.47,2.33,5.19.02.07.11,0,.11-.05-.13-1.75-.95-4.09-2.42-5.17Z"/>
        <path class="cls-1" d="M42.51,14.02c-.39-1.15-.83-2.36-1.58-3.32,0,0-.03,0-.02.02,1.37,1.88,1.87,4.47,2.2,6.73,0,.06.1.01.1-.03,0-1.17-.33-2.29-.7-3.39Z"/>
        <path class="cls-1" d="M39.05,12.74s-.05,0-.04.03c.62,1.55.81,3.13,1,4.77,0,.06.08,0,.08-.04-.07-1.62-.42-3.26-1.04-4.77Z"/>
        <path class="cls-1" d="M36.24,13.89s-.08,0-.07.03c.24,1.04.16,2.1.3,3.14.01.07.1,0,.1-.04-.03-1.04-.06-2.12-.33-3.13Z"/>
        <path class="cls-1" d="M49.33,16.23c-.11-.02-.23,0-.33.08-.02,0-.04,0-.05.01-.26.1-.33.53-.06.66.29.14.66-.11.7-.4.02-.18-.09-.31-.26-.35Z"/>
        <path class="cls-1" d="M49.75,15.32c-.08,0-.14.07-.19.14-.04.05-.05.14,0,.19.02.02.04.02.06.02,0,0,.01,0,.02,0,.09.01.18-.07.22-.14.06-.11.03-.24-.11-.22Z"/>
        <path class="cls-1" d="M51.07,17.02c-.03-.2-.23-.24-.39-.17-.16.07-.34.28-.3.47.03.15.15.23.3.2.21-.04.42-.28.39-.5Z"/>
        <path class="cls-1" d="M35.93,26.58s0-.04-.02-.06c0-.03,0-.06-.02-.09-.03-.08-.13-.15-.21-.17-.35-.11-.67.16-.79.47-.07.2-.04.43.17.52.13.06.32.03.44-.04.22-.12.47-.36.42-.64Z"/>
        <path class="cls-1" d="M36.25,25.46h0c-.02-.13-.13-.19-.24-.17-.16.03-.28.18-.31.33,0,0,0,0,0,.01-.02.15.1.25.24.22.17-.03.34-.22.31-.4Z"/>
        <path class="cls-1" d="M36.55,26.83c-.27,0-.54.54-.2.54.27,0,.53-.54.2-.54Z"/>
        <path class="cls-1" d="M48.32,34.41c-.17-.15-.42-.06-.58.05-.19.14-.37.43-.25.67.05.1.15.16.26.16.11,0,.21-.03.31-.09.15-.06.27-.21.33-.35.06-.14.05-.33-.06-.44Z"/>
        <path class="cls-1" d="M46.92,35.96c-.08,0-.15.06-.17.13-.02.06,0,.15.08.15s.15-.06.17-.13c.02-.06,0-.14-.08-.14Z"/>
        <path class="cls-1" d="M33.11,34.97c-.02-.07-.12-.11-.18-.12-.13,0-.25.06-.33.15-.08.09-.14.22-.13.34.01.12.1.17.21.19.07.01.13,0,.2-.04.12-.05.26-.21.27-.35,0-.07,0-.12-.03-.19Z"/>
        <path class="cls-1" d="M59.61,51.53c-.15-.02-.33.06-.43.18,0,0,0,0,0,0-.08.04-.15.11-.19.18-.18.3.04.75.41.72.25-.02.48-.21.54-.45.06-.25-.03-.6-.33-.64Z"/>
        <path class="cls-1" d="M60.06,53.17h-.02c-.09.02-.17.11-.18.2,0,.09.06.15.14.13,0,0,0,0,.01,0,.09-.02.17-.1.18-.2.01-.09-.05-.14-.14-.13Z"/>
        <path class="cls-1" d="M37.49,53.14c-.16-.18-.48-.15-.66-.05-.24.13-.43.41-.33.67,0,0,0,.02,0,.03.05.42.61.29.82.11.21-.19.38-.51.16-.76Z"/>
        <path class="cls-1" d="M34.15,52.44c-.11-.07-.24-.02-.33.07-.07.05-.11.13-.11.21,0,.14.09.21.23.2.09,0,.18-.09.23-.16.06-.09.09-.25-.01-.32Z"/>
        <path class="cls-1" d="M33.18,51.73s-.02-.04-.03-.06c0,0,0-.01,0-.02,0,0,0,0,0,0-.04-.04-.11-.07-.16-.05-.12.03-.24.14-.25.27,0,.05,0,.08.01.12.04.09.16.09.24.06.11-.05.23-.18.21-.31Z"/>
        <path class="cls-1" d="M39.14,53.9h0s-.09.02-.12.04c-.13.09-.18.33.02.36.13.02.24-.14.23-.25,0-.08-.05-.14-.13-.14Z"/>
        <path class="cls-1" d="M60.95,54.06c-.05-.09-.13-.09-.22-.08-.14.01-.29.22-.25.36,0,0,0,.02,0,.02-.03.14.07.25.21.21.16-.04.28-.19.28-.35,0,0,0,.01,0,.01.01-.06.01-.12-.02-.18Z"/>
        <path class="cls-1" d="M73.82,56.91c-.92.29-1.83.61-2.8.66-1.09.07-2.23-.19-3.29-.41-.88-.18-1.78-.21-2.66-.06-.95.15-2.11.68-3.07.49-.04,0-.08.07-.04.08.71.22,1.52.02,2.25-.04,1.33-.11,2.46,0,3.76.29.98.22,1.92.33,2.92.16,1.02-.17,1.98-.65,2.93-1.04.06-.02.09-.16,0-.13Z"/>
        <path class="cls-1" d="M91.01,58.74c-1.42.07-2.82-.63-4.15-1.11,0-.02,0-.05-.02-.05-.75-.27-1.52-.48-2.31-.54-.96-.07-1.82.28-2.77.32-.51.02-1-.24-1.49-.34-.51-.11-1.03-.15-1.55-.21-.25-.03-.49-.04-.73-.04-.1-.02-.2-.04-.29-.06-.03,0-.07.04-.06.07-.52.03-1.03.14-1.56.37.02,0,.04-.06,0-.05,0,0-.02,0-.03,0-.02,0-.04.03-.03.05,0,.02.01.04.02.07,0,0,.02.01.02.01.32.04.61-.02.92,0,.51.02.99.19,1.48.28.91.17,1.92.49,2.85.44.92-.05,1.71-.69,2.64-.71.54-.01,1.04.07,1.54.17-.38.01-.76.08-1.12.17-.36.09-.71.23-1.05.37-.17.07-.33.14-.49.22,0,0-.5.33-.4.21,0,0,0-.02,0-.01-.03.02-.05.04-.08.06-.01.01-.03.05,0,.05.8-.23,1.57-.48,2.42-.51.85-.03,1.57.38,2.33.7,1.25.54,2.58.88,3.88.34.08-.03.19-.26.03-.25Z"/>
        <path class="cls-1" d="M81.7,58.06c-1.13.24-2.25.53-3.41.53-1.06,0-2.01-.5-3.03-.73-1.73-.39-3.41.25-4.83,1.2-.04.02-.03.1.02.08,1.85-.9,3.66-1.01,5.61-.33,1.85.65,3.82,0,5.62-.57.08-.03.15-.21.02-.18Z"/>
        <path class="cls-1" d="M48.12,59.79c-.88-.47-1.9-.2-2.8.08-1.41.44-2.56.11-3.9-.39-1.11-.42-2.22-.69-3.41-.58-1.34.13-2.22,1.07-3.45,1.46-.05.01-.08.11-.01.1,1.19-.27,2.06-1.08,3.34-1.07,1.23.02,2.39.64,3.51,1.06,1,.38,2.08.62,3.13.31,1.15-.33,2.24-.99,3.48-.75.1.02.22-.16.11-.22Z"/>
        <path class="cls-1" d="M45.12,59.07c-.71.04-1.42-.21-2.09-.37-.35-.09-.7-.14-1.06-.15-.46-.01-.89.24-1.35.23-.02,0-.04.04-.02.04.48.09.93,0,1.41.16.42.15.79.43,1.21.6.66.26,1.34.22,1.91-.21.07-.05.18-.31,0-.3Z"/>
        <path class="cls-1" d="M68,59.18c-.47-.07-.7-.16-1.17-.02-.55.16-1.08.26-1.65.33-1.28.14-2.47.05-3.73-.19-1.18-.22-2.02-.71-3.25-.45-.9.19-1.88.57-2.52,1.24-.03.03-.03.1.03.08.03,0,.05-.01.08-.02.02,0,.06-.06.02-.07.11.03,1.14-.49,1.37-.55.52-.13,1.08-.16,1.62-.12.54.04,1.05.28,1.54.49.51.21,1.03.32,1.57.44,1.11.24,2.11.14,3.2-.17.44-.12.88-.28,1.3-.45.22-.08.43-.26.65-.37.27-.14.62-.06.91-.06.05,0,.12-.11.04-.12Z"/>
        <path class="cls-1" d="M43.92,56.64c-.5.07-.99.17-1.49.26-.72.13-1.39-.03-2.08-.21-.51-.13-1-.29-1.52-.36-.44-.06-1.13.35-1.49.2-.02,0-.05.03-.03.04.25.19.52.13.82.07.63-.13,1.53.48,2.08.73,1.3.58,2.5.29,3.72-.35.15-.08.28-.42,0-.38Z"/>
        <path class="cls-1" d="M15,56.14c-.62.18-1.19.37-1.85.28-.72-.09-1.42-.3-2.14-.42-.65-.1-1.31-.03-1.94.12-.6.15-1.06.58-1.6.82-.02,0-.03.05,0,.05.6-.07,1.12-.44,1.76-.47.85-.05,1.7.21,2.52.41,1.21.3,2.25.03,3.29-.62.07-.04.1-.22-.03-.19Z"/>
      </g>
      <path class="cls-1" d="M25.06,26.08c-.33.08-.57.3-.83.51-.33.26-.69.49-1.02.75-.06.04-.1.22.03.19.33-.09.64-.31.93-.49.33-.21.71-.4.97-.7.08-.08.09-.29-.08-.25Z"/>
      <path class="cls-1" d="M63.45,49.74c.02-.11-.14-.06-.16.01-.44,1.58-.89,3.42-.7,5.07.02.17.23.07.28-.02.33-.57.21-1.42.21-2.07,0-.98.18-2.03.37-3Z"/>
    </g>
  </g>
</svg>