<?xml version="1.0" encoding="UTF-8"?>
<svg id="Layer_2" data-name="Layer 2" xmlns="http://www.w3.org/2000/svg" viewBox="0 0 61.52 179.45">
  <g id="Layer_1-2" data-name="Layer 1">
    <g>
      <g>
        <path d="M23.34,141.55c-.13-.18-.29-.4-.42-.57-.01-.3,0-.46.09-.6.15-.25.18-.44,0-.75-.06-.09-.11-.18-.1-.3.02-.3-.11-.42-.21-.61v-.71c-.07-.14-.15-.27-.22-.4.07-.17.19-.12.27-.2.24-.24.45-.57.57-1.01.04-.15.02-.35.14-.46.13,0,.27,0,.41,0,.03,0,.05-.08.09-.15v-1.12c-.05-.1-.12-.23-.19-.38.13-.25.27-.5.4-.75-.07-.2-.18-.15-.28-.18-.1-.03-.15-.25-.14-.42.02-.2.12-.29.18-.43.06-.14.06-.39,0-.5-.1-.16-.2-.34-.3-.51h-.63c-.11-.19-.21-.36-.31-.54.1-.17.2-.35.32-.55.12,0,.26.02.4-.01.04,0,.07-.14.1-.19-.06-.15-.15-.29-.17-.45-.02-.18-.02-.35-.13-.46h-.2c-.1-.18-.2-.35-.3-.53,0-.12,0-.24-.01-.37.07-.13.14-.26.21-.4v-.35c-.07-.14-.14-.27-.22-.41v-.68c-.19-.34-.36-.65-.52-.95h-.21c-.08-.13-.16-.25-.24-.38h-.55c-.29-.51-.54-.94-.82-1.41v-.62c-.04-.07-.06-.12-.09-.15-.07-.09-.1-.18-.07-.26.04-.12.1-.14.18-.12.1.02.21,0,.34,0,.03-.16.06-.32.09-.46-.11-.28-.22-.5-.37-.65-.04,0-.08-.02-.11,0-.11.11-.23.24-.34.37-.11,0-.21,0-.35,0-.21-.35-.44-.73-.66-1.11h-.41c-.08-.13-.16-.25-.24-.38h-.58c-.21-.34-.4-.62-.56-.88.01-.54.01-.54.3-.58.07.11.15.23.23.36h.22c.08-.16.18-.34.3-.56v-.71c-.05-.1-.12-.23-.19-.37,0-.11,0-.23-.01-.36-.14-.26-.28-.52-.42-.77,0-.13,0-.25-.01-.37-.12-.22-.26-.42-.37-.66-.04-.08-.05-.23-.04-.33.01-.1.07-.19.11-.27h.21c.16.25.28.55.44.7h.38c.15-.22.26-.37.34-.49v-1.15c-.11-.18-.19-.39-.31-.52-.08-.09-.23.06-.28-.14-.05-.19.1-.25.16-.43v-.68c.07-.14.14-.28.21-.42,0-.11,0-.23.01-.35-.14-.25-.28-.51-.42-.77.14-.31.33-.12.51-.18.07.12.15.24.23.36.14,0,.16.02.31.15,0,.39.02.8.03,1.17.07.13.17.22.17.3,0,.41.16.65.31.89.02.02.05.04.07.02.03-.03.07-.08.07-.13,0-.74,0-1.47,0-2.22-.37-.65-.75-1.3-1.12-1.95-.02-.04-.06-.05-.09-.08-.07-.02-.14-.02-.2-.06-.08-.05-.1-.17-.08-.31-.1,0-.2.02-.3,0-.04-.01-.11-.15-.1-.2.02-.12.09-.17.15-.15.06.02.12.03.18.07.07.05.09.16.07.29h.34c.03-.15.07-.31.09-.44-.03-.09-.03-.15-.06-.19l-.9-1.57c-.07,0-.14-.01-.21-.02l-.22-.36c-.08.12-.15.24-.23.36-.08,0-.14-.02-.21-.03-.1-.17-.2-.35-.3-.52v-.73c-.07-.14-.14-.27-.2-.38,0-.39,0-.76,0-1.12,0-.04.05-.09.08-.15h.86c.08.13.18.3.28.47.06.11.06.35,0,.5-.04.1-.1.18-.15.26.07.27.19.45.33.6.32,0,.64,0,.96,0,.06,0,.11-.11.17-.17.02-.17-.04-.38.08-.5.02,0,.06,0,.07.02.23.39.45.78.69,1.19-.06.12-.12.25-.2.41,0,.33,0,.69,0,1.06,0,.05.04.1.06.14.02.02.06.04.07.02l.6-1.04h.94c.08.2.21.5.31.75.29-.08.55.17.78-.22-.11-.15-.21-.3-.36-.5-.01,0-.08-.02-.19-.05-.12-.21-.27-.47-.42-.72-.16-.07-.35.12-.51-.14-.02-.28-.04-.57-.05-.83-.06-.11-.11-.2-.17-.3v-1.08c-.15-.27-.29-.53-.43-.79.01-.17-.04-.37.11-.52h.42c.05.08.13.2.21.33.06,0,.13.01.21.02.07.12.14.25.22.36.02.03.07,0,.1,0,0-.25,0-.49,0-.74,0-.14,0-.25.08-.31.05-.04.1.03.15.15.02.05.05.09.09.16.19,0,.4,0,.61,0,.08,0,.15-.26.14-.43-.01-.12-.05-.2-.1-.3-.17-.37-.17-.38,0-.75.02-.05.05-.08.07-.13.05-.13.04-.38-.02-.5-.05-.1-.22-.15-.29-.07-.08.11-.15.23-.2.31h-.43c-.3-.48-.31-.48-.6-.01-.23.13-.48-.09-.71.13-.17.42.09.97-.15,1.37-.07,0-.14.01-.23.02-.08.16-.17.34-.29.58-.04.31-.07.4-.21.68-.06.28.05.6-.07.87-.03.03-.06.08-.09.08-.42,0-.84,0-1.2,0-.15-.23-.26-.39-.35-.54v-1.11c-.08-.15-.14-.28-.22-.42v-1.06c-.08-.16-.15-.3-.2-.41-.02-.52.03-1.01-.02-1.41-.08-.21-.17-.35-.19-.51-.02-.18-.03-.35-.13-.45-.07,0-.13-.01-.13-.01-.28-.49-.53-.91-.78-1.36.08-.04.18-.09.27-.13.16.26.31.51.45.75.08-.12.15-.22.21-.32.12.19.22.35.32.51v.75q.24.27.51-.17c.07,0,.14-.02.24-.03.07-.15.16-.34.27-.57-.04-.07-.09-.2-.15-.33.05-.21.16-.36.26-.5.07-.1.19-.08.28-.15.06-.05.1-.17.17-.28.07.11.14.21.21.32.04.07.06.17.1.25-.05.09-.1.18-.15.27-.05.41-.06.82,0,1.24.05.09.11.16.15.26.12.32.41.14.52.52.01.04.06.06.09.07.11.02.2-.02.27-.19v-.36c-.07-.14-.14-.27-.22-.41v-1.87c-.09-.05-.19-.1-.33-.17-.04-.06-.11-.18-.2-.31h-.2c-.08-.13-.16-.25-.24-.38h-.2c-.1-.18-.2-.35-.3-.53.25-.42.5-.84.77-1.31h.36c.13.1.12.28.13.46.01.25.21.32.21.58,0,.06,0,.12,0,.13.26.45.51.88.77,1.33.04-.06.11-.17.19-.29h.2c.07.12.15.24.22.36h.16c.28-.46.54-.88.8-1.32-.03-.17-.05-.34-.08-.51h-.44c-.08-.13-.16-.25-.24-.38h-.41c-.08-.13-.16-.25-.24-.38h-.2c-.08-.13-.16-.25-.23-.36-.08-.01-.15-.02-.22-.04l-.3-.52-.22-.39c-.1-.17-.19-.38-.3-.51-.16-.19-.04-.6-.24-.76h-.41c-.18-.31-.35-.62-.53-.92-.02-.03,0-.12,0-.18-.1,0-.2.03-.29,0-.09-.04-.16-.16-.19-.36-.07-.02-.1-.06-.12-.1-.01-.03-.03-.09-.03-.11.04-.14.08-.15.13-.07.05.08.08.17.05.29,0,.02-.06.02-.04,0,.14,0,.24-.03.33.01.09.04.16.16.14.36h.43c.08-.19.2-.5.26-.65.19-.12.29-.17.37-.22v-1.18c-.09-.14-.2-.31-.32-.51h-.38c-.08-.13-.16-.24-.25-.37-.14.24-.29.48-.43.71h-.64c-.11-.18-.21-.36-.31-.54v-.35c-.07-.14-.14-.27-.21-.4-.01-.17.04-.38-.1-.52-.08,0-.18-.02-.28-.02-.19,0-.25.1-.25.41,0,.18-.03.38,0,.5.05.19.2.26.17.43-.04.22-.18.11-.28.14-.04-.1-.09-.19-.11-.29-.1-.52-.13-.61-.46-.81-.11-.07-.16-.21-.24-.31-.11-.13-.28,0-.36-.28v-.33c-.07-.14-.14-.28-.21-.4,0-.13-.01-.29.02-.36.16-.33.33-.64.47-.9.12.01.19.02.26.02l.82,1.43.21.02c.2-.13.05-.59.23-.74h.21c.18.15.03.6.23.74l.21-.02s.06-.08.07-.13c.02-.11.01-.24.03-.35,0-.05.03-.1.05-.14.05-.08.1-.17.15-.27v-.35c.22-.4.44-.79.64-1.16-.03-.32.07-.66-.11-.89h-.16c-.35-.6-.67-1.16-.99-1.72,0-.47,0-.96,0-1.45,0-.04.05-.09.07-.13.07,0,.14-.02.2-.02.17.11.08.45.17.59.14.23.19.47.18.8,0,.4.03.43.32.47.08.13.16.24.22.34.23.02.44.03.65.06.03,0,.05.08.08.13v.74c-.06.12-.14.25-.21.38v.36c.07.14.14.27.23.43,0,.6,0,1.21,0,1.82,0,.04.05.09.07.13.03,0,.07.03.1.03.13,0,.23-.11.24-.25,0-.31,0-.61,0-.92,0-.1.06-.2.1-.3h.21c.08-.12.15-.24.23-.36.08.12.16.24.24.38.09-.05.19-.1.31-.17-.15-.26-.27-.47-.39-.68-.09-.18-.18-.36-.27-.54.03-.28-.07-.45-.18-.61-.02-.45-.17-.75-.38-.98-.23-.07-.49.18-.7-.16,0-.12,0-.24-.01-.37.07-.13.14-.26.21-.4v-1.09c.07-.14.14-.27.21-.4-.01-.5-.01-.5-.3-.53-.15.24-.3.49-.45.74-.1-.02-.21.06-.3-.18v-.72c-.22-.38-.44-.76-.65-1.13,0-.15,0-.27-.01-.35-.18-.33-.35-.64-.51-.94-.12,0-.23-.01-.33,0-.08.01-.14-.02-.21-.26-.11-.15.17-.62-.11-.81-.07.11-.15.21-.22.31-.14-.25-.27-.46-.39-.68-.07-.01-.14-.02-.22-.03-.07-.11-.15-.23-.23-.36h-.41c-.08-.13-.16-.25-.24-.38h-.41c-.08-.13-.16-.25-.23-.36-.08-.01-.15-.02-.15-.02-.22-.33-.4-.61-.62-.93.15-.08.24-.13.32-.17.05.05.08.08.1.12.05.09.1.17.15.26.18-.4.18-.41-.07-.87.02-.32-.16-.69.1-.93.05.09.09.19.15.26.13.15.26.11.36-.1v-1.1c.07-.14.14-.27.21-.39,0-.59,0-.59.1-.9.15.25.3.49.45.74h.2c.08.13.16.25.25.39l.28-.15v-.79c-.06-.11-.13-.25-.2-.38v-.35c-.07-.13-.14-.26-.21-.39.22-.35.47-.11.72-.18.07-.11.14-.23.17-.26.21-.21.4.04.55-.21.07-.42.06-.83-.02-1.39-.29-.51-.64-1.11-1.01-1.75,0-.12,0-.3.1-.42.09-.11.13-.27.11-.51-.14-.37-.35-.69-.55-.97-.08-.02-.15-.04-.15-.04-.15-.2-.26-.35-.36-.5.12-.21.22-.38.32-.56h.22c.09-.17.18-.35.31-.61,0-.27,0-.63,0-.99,0-.09.08-.17.13-.27h.39c.09-.13.16-.23.23-.33.21.37.41.72.62,1.08.27,0,.55,0,.84,0,.07,0,.15-.33.12-.45-.01-.06-.02-.11-.04-.16-.12-.22-.25-.43-.39-.68,0-.15,0-.34,0-.52q0-.31.25-.41s.06-.03-.02,0c.27-.39.46-.66.61-.88.01-.22.02-.34.03-.44.1-.19.2-.37.29-.54.3,0,.3-.01.3-.14,0-.19-.11-.26-.18-.41v-.72c.11-.2.2-.46.37-.57.16-.05.36.15.48-.21v-.36c-.09-.18-.23-.29-.21-.59.01-.21-.12-.28-.17-.43-.06-.2-.09-.42-.13-.62h-.31c.06-.63-.25-.88-.45-1.29v-.36c-.07-.18-.16-.22-.27-.2-.19.05-.34-.05-.48-.43-.15.49-.1.94-.08,1.39.17.17.2.46.22.76l.38.65c0,.06.01.12.02.17v.37c0,.23-.05.39-.14.4-.07,0-.16.02-.2-.05-.18-.28-.35-.59-.5-.86-.01-.18,0-.32-.03-.4-.08-.19-.19-.36-.27-.5-.12-.05-.24.06-.31-.18-.02-.27-.04-.56-.06-.82-.06-.11-.11-.2-.17-.3v-1.08c-.15-.27-.29-.53-.43-.78v-.36c.13-.27.32-.44.37-.71-.1-.22-.18-.42-.25-.57-.11-.01-.18-.02-.21-.02-.2-.32-.38-.61-.56-.88.19-.33.36-.64.53-.94.14,0,.29,0,.43,0,.03,0,.05-.08.08-.13-.07-.27-.19-.45-.33-.6-.22-.14-.28.32-.44.37h-.53s-.06-.05-.09-.07l-.15-.26c-.07-.01-.13-.03-.21-.04-.07.11-.15.23-.24.37h-.29s-.08.03-.1,0c-.05-.07-.11-.16-.12-.26-.04-.34.08-.48.21-.48.32.01.64,0,.95,0,.08-.13.16-.25.22-.36h.84c.09.14.17.25.26.39.09-.06.19-.11.27-.16v-.43c.17-.29.35-.58.54-.9.05,0,.12-.01.18-.02.2.13.05.59.23.74.07,0,.14,0,.24,0,.04.2.08.41.12.63.38.65.75,1.3,1.13,1.95.02.03.07,0,.1,0v-.55c-.35-.61-.7-1.21-1.05-1.83v-1.07c-.27-.58-.61-1.02-.84-1.54v-.75c.07-.12.12-.2.17-.29,0-.1-.02-.21-.1-.23-.14-.03-.28,0-.4,0-.11-.2-.21-.37-.31-.55.07-.13.14-.26.2-.39v-.36c-.28-.48-.55-.96-.83-1.45.22-.4.51-.08.71-.22.13-.21.24-.37.33-.52v-.39c-.13-.31-.43-.1-.51-.53-.07,0-.14-.02-.22-.03-.14-.24-.3-.49-.44-.73h-.59c-.22.21-.31.58-.51.73-.21-.02-.42.05-.62-.06l-.15-.26c-.37-.15-.76.06-1.13-.1-.1-.19-.2-.37-.29-.54v-.73c-.11-.17-.2-.32-.21-.6,0-.15-.11-.29-.19-.5-.05-.7.03-1.49-.04-2.22-.07-.12-.12-.21-.18-.31.14-.26.28-.51.41-.76v-.36c-.14-.28-.32-.49-.43-.85.03-.13.06-.29.1-.43h.47c.04.2.08.42.12.63.12.22.25.43.37.65.02.17-.03.37.08.5.02.02.05.05.08.06.16.04.35-.1.49.19.13.27.39.17.51.52.05.15.15.26.22.39.17-.3.35-.61.54-.94-.1-.15-.21-.3-.36-.52.03.01,0,0-.03-.02-.25-.09-.24-.09-.25-.41,0-.23.05-.49-.11-.7-.08,0-.18,0-.29,0-.18,0-.23-.09-.24-.43,0-.18-.01-.36-.01-.4-.2-.41-.36-.73-.49-1-.12-.02-.19-.03-.26-.04l-.3-.52c.02-.17-.05-.38.11-.53.2-.01.44-.03.7-.05.27-.48.54-.96.81-1.44.16.06.35-.13.49.16,0,.06,0,.12.01.17v.37c0,.37.12.49.35.36.03-.02.05-.08.08-.13,0-.48,0-.97,0-1.46,0-.05.04-.09.07-.15.27-.11.55,0,.82-.06.06-.01.11-.12.16-.19-.01-.17.04-.37-.13-.54h-.68c-.25,0-.49.01-.74-.01-.05,0-.1-.14-.15-.22,0-.23.02-.47.02-.72,0-.05.05-.09.08-.15h.83c.08-.13.16-.25.24-.38.13,0,.27,0,.41,0,.03,0,.06-.07.08-.12.03-.08,0-.21-.08-.24-.3-.13-.31-.12-.31-.5v-.18c-.01-.35-.06-.43-.24-.43-.24,0-.49,0-.71,0-.1.14-.17.24-.21.31-.12-.18-.23-.33-.33-.47.09-.17.15-.3.22-.42q0-2,.09-2.35c.07,0,.14-.01.21-.02.07.12.15.24.23.37h.31v-.92c-.17-.3-.35-.6-.53-.92h-.21c-.07.12-.15.24-.22.36h-.21c-.1-.18-.2-.35-.3-.53-.02-.49-.02-.49.24-.58.03-.01.06-.03.03-.02.15-.22.26-.38.34-.5v-.55l-5.25,2.14.2.2c.1-.03.2-.06.3-.08.48.13.96.27,1.53.42.17.17.43.43.69.68.09.09.07.29-.02.33-.11.06-.27-.05-.39-.05-.19,0-.25.11-.14.35.08.09.17.17.24.25.05.14.1.28.14.41.41.11.8.22,1.19.33.05.04.09.08.13.11l.27.26c.26.25.35.25.49.03-.03-.15-.05-.28-.07-.4.12-.1.22-.18.31-.25.15.04.25.07.34.09l.42-.28c.48.31.79.79,1.23,1.11.54.15,1.07.29,1.63.44.04.19.09.37.13.58-.11-.02-.23-.05-.37-.07.03.13.06.26.1.4-.05.08-.21.09-.1.29.3.18.55.18.84.28l.78.77c.3.09.59.17.86.25.15.15.27.27.43.3.14.02.29.08.44.12l.15-.15.59.16c.02.08.09.19.06.23-.08.11-.19.2-.27.28-.29-.08-.54-.15-.78-.21-.03.01-.07.02-.1.04-.15.14,0,.48.25.56.25.08.48.19.73.43.51.13,1.04.27,1.57.4.13.32-.14.32-.23.5-.31-.09-.65-.19-.99-.27-.38-.09-.79-.26-1.12-.28-.23.15,0,.47.09.78.11-.04.21-.07.38-.13.1.04.3.11.55.2.16.14.4.31.66.32.16.16.34.32.5.5.05.06.04.15.06.22-.14-.03-.28-.05-.4-.07-.09.17-.36.17-.21.48.09.09.18.18.26.25.15.05.3.09.45.14.26.26.52.52.82.8.1-.03.2-.06.35-.11.07.02.22.05.37.09.05-.04.09-.09.14-.14.15.04.29.07.43.1.05-.05.09-.11.14-.16q-.1-.38.08-.34c.09.08.18.17.27.25.14.04.29.09.43.13.05.14.09.29.14.43.34.22.25.47.37.64.22.22.39.39.53.52.17.09.29.03.43.21.05.18.09.37.14.53-.05.07-.09.13-.13.18.05.2.1.39.15.57.1.09.18.18.27.27.29.16.28-.21.63.02.07.1.17.24.26.35-.03.06-.05.09-.06.12-.12.19-.08.29.16.34.26.06.45.36.71.4.28.04.58.15.88.23.05.01.1.02.14.03.1.1.18.18.27.27,0,.08.04.2,0,.24-.07.08-.1.17-.02.32.19.18.36.36.5.49.38.11.72.21,1.05.31.06-.06.11-.11.15-.15.2.06.4.11.59.16.09.08.18.16.28.25.14.04.28.08.43.13.04.01.09.08.17.09.07-.04.11-.02.16,0,.03.01.09.04.1.06.07.12.05.16-.04.14-.09-.02-.18-.06-.24-.17-.01-.02.03-.05.03-.03-.11.11-.18.18-.26.25.04.14.14.34.09.41-.16.24-.18.23.17.6.14.04.28.09.43.14.08.27.17.54.25.81.15.06.28.1.41.15.05.22.09.41.33.59.29.15.57.18.87.27.09.08.17.17.26.26.08.27.16.55.23.79.25.16.26,0,.38-.07.16.05.36.12.59.2.19.19.43.32.67.34.09.08.18.16.28.25.08.28.17.56.25.83.28.27.54.53.83.82.1-.03.2-.06.31-.09-.08-.3-.15-.58-.22-.86.05-.05.1-.1.17-.16.18.12.36.24.55.36l.73.2c.09.09.18.17.26.26.05.15.09.29.13.43.1.09.19.17.26.24.15.05.3.1.45.15.17.17.35.34.48.48.18.07.33.12.47.17.26.3.51.56.84.58.03,0,.1.06.13.1.21.21.37.27.48.14.07-.08.14-.15.2-.2.24.06.43.11.62.16.05.15.09.29.13.41.28.28.54.54.8.78.4.11.8.22,1.19.32l.27.23c.56.2.61.2.92.06.49.14,1.03.29,1.56.44.06-.05.11-.09.16-.13.15.03.29.06.44.09.1-.1.2-.19.29-.28.07.02.12.03.17.05.3.11.4-.17.74,0,.03.02.08,0,.1-.03.09-.15.31-.03.49,0,.05-.04.11-.08.17-.13.13.03.28.07.42.1.05-.05.1-.09.15-.15.73.2,1.47.4,2.2.6.04.01.09.05-.16-.09.43.28.57.36.7.44.07-.07.12-.11.16-.16.15.04.29.07.44.11.1-.1.2-.19.29-.29.28.12.47.11.6-.03.53.15,1.07.3,1.61.45.05-.05.1-.1.15-.14.15.04.29.07.46.11.01-.29.38,0,.6-.08.06-.06.16-.16.25-.24.12.03.22.06.32.09.18-.06.31-.16.34-.35l-.08-.29.04-.09c.11-.21.11-.23-.13-.47-.13-.13-.26-.25-.37-.36-.02-.42-.37-.68-.7-.94-.1-.03-.2-.05-.3-.08-.25-.17-.44-.41-.66-.62-.27-.24-.49-.54-.8-.72-.1-.03-.2-.05-.31-.09-.16-.16-.34-.33-.51-.5-.15-.05-.3-.09-.45-.14-.17-.17-.35-.34-.53-.53-.38-.1-.77-.21-1.16-.31-.02,0-.06-.06-.1-.1-.04-.18-.08-.37-.35-.57-.11-.04-.26-.09-.42-.14-.15-.15-.33-.32-.52-.51-.04-.12-.08-.27-.13-.41-.26-.26-.52-.52-.79-.77-.15-.05-.29-.09-.42-.13-.37-.36-.72-.71-1.05-1.03-.06-.16-.1-.31-.16-.46-1.94-1.91-3.88-3.82-5.79-5.7-.08-.16-.03-.28-.19-.42l-.73-.2c-.09-.08-.18-.16-.28-.25-.04-.14-.09-.28-.13-.43l-.52-.51c-.05-.15-.09-.29-.13-.41-1.16-1.14-2.31-2.27-3.45-3.39-.3-.1-.58-.12-.9-.3-.16-.16-.32-.33-.46-.47-.04-.14-.07-.24-.1-.36-.25-.24-.51-.5-.8-.79-.1-.03-.25-.08-.4-.13-.08-.07-.17-.15-.26-.24-.09-.28-.17-.56-.26-.83-.16-.05-.3-.1-.4-.14-.48-.47-.91-.9-1.33-1.31-.03-.12-.06-.22-.1-.35-.34-.38-.73-.76-1.11-1.09-.14-.04-.23-.06-.38-.1-.23-.23-.49-.48-.75-.74l-.93-.91c-.26-.25-.49-.55-.8-.72-.1-.03-.2-.06-.31-.08-.17-.17-.34-.34-.52-.51-.15-.05-.3-.09-.45-.14-.35-.34-.7-.69-1.05-1.03-.15-.05-.3-.09-.42-.13-.19-.19-.37-.36-.52-.51-.06-.17-.11-.31-.15-.43-.46-.45-.89-.88-1.3-1.28-.16-.55-.19-.59-.6-.72-.17-.06-.29-.15-.4-.26-.3-.08-.59-.15-.81-.2-.26-.26-.44-.43-.61-.6-.15-.05-.3-.09-.42-.13-.34-.21-.26-.46-.43-.67l-.29-.08c-.44-.31-.76-.79-1.21-1.08-.1-.03-.2-.05-.31-.09l-2.56-2.52C14.67-1.07,7.61-1.07,3.26,3.21,1.1,5.34,0,8.17,0,10.96v.09c.07.14.14.28.22.43v4.39c.07.14.15.27.22.41v1.09c.07.14.14.27.22.41v1.8c.08.16.15.3.2.41,0,.64,0,1.25,0,1.77.1.21.16.35.21.46,0,.4.04.79-.2,1.02.07.13.13.26.2.4v.33c.07.14.15.27.22.41v2.56c.07.14.14.28.22.42v3.31c.16.19.23.45.21.78,0,.11.02.23.03.35.05.09.1.17.16.27.06.47.01.95.02,1.44,0,.43,0,.86,0,1.29.01.48-.05.97.03,1.42.06.11.11.19.17.3-.06.13-.13.25-.2.39v1.46s.04.08.06.13c.05.09.1.18.14.26v.37c-.05.09-.1.18-.15.27-.02.04-.04.09-.06.14.02.46.02.46.19.51.21.06.23.09.23.44,0,.18-.01.35-.02.51-.27.51-.27.54,0,1.06v.75c-.13.23-.27.5-.41.75v.35c.08.15.15.28.22.42v.71c.13.23.26.45.41.72-.14.24-.28.49-.42.73v.73c-.07.13-.14.26-.2.39.07.14.14.27.21.42v.71c.28.3.21.72.17,1.14-.05.09-.1.17-.15.27.03.08.05.19.1.25.1.13.09.31.09.51-.07.13-.14.26-.21.39.08.31.34.05.42.39q0,.58-.09.88c-.08-.11-.15-.22-.22-.33-.02.03-.05.06-.07.1-.02.04-.04.1-.04.15v.55c.01.42-.04.85.03,1.26.05.09.1.18.18.31,0,.81,0,1.66,0,2.51,0,.05-.03.1-.05.15l-.15.26c0,.12,0,.24-.02.42.09.13.2.28.33.47.04-.06.11-.16.19-.27.02.02.06.02.07.06.08.25.07.55.22.77.11.16.06.44-.08.61-.2,0-.41,0-.63,0-.03,0-.05.08-.1.17.14.24.28.49.42.74v.37s.37.65.37.65c.05.09.03.17-.05.26-.16.08-.35-.12-.5.13-.07.35-.03.72-.03,1.08,0,.42-.04.85.06,1.4.22.38.49.85.75,1.31-.15.14-.15.14-.26.14-.1,0-.2.04-.29.05-.07.42-.07.42.05.68.16.37.16.42,0,.76-.02.04-.05.09-.09.15v1.48c.05.1.12.23.19.38,0,.11,0,.23,0,.35.08.34.34.08.42.39v.74q-.24.27-.51-.16c-.14.22-.14.22-.09,1.68.05.09.1.17.15.27.09.64-.04,1.32.06,1.96.12.16.21.34.18.61.16.26.31.5.43.7v3.42c.07.14.14.28.22.42v1.8c.08.16.15.3.22.45-.05.36.02.73-.04,1.08l-.15.26c-.01.05-.03.11-.03.16v1.47c0,.11-.03.23-.05.37-.19.32-.39.66-.59.99v.75c.1.18.2.35.32.55.27,0,.55,0,.83,0,.03,0,.05.07.08.11.08.35.03.71.04,1.07.01.42-.03.85.03,1.27.03.05.05.1.08.13.08.09.1.18.06.26-.02.04-.05.1-.08.11-.14.01-.28,0-.4,0-.1-.15-.17-.26-.26-.39-.16.1-.35-.11-.49.21v2.57c.14.26.28.52.43.78-.09.37.16.48.17.69-.1.22-.19.41-.27.56-.31.02-.32.03-.34.53-.06.12-.13.26-.21.4v.35c.06.17.16.16.26.21.09.04.17.19.28.33h.38c.08.13.15.26.23.37.07.1.1.18.08.26-.04.13-.1.17-.18.13-.08-.04-.16,0-.17.14,0,.07.05.17.09.26.02.05.05.09.07.13,0,.06.02.11.02.17,0,.23-.05.39-.14.4-.07,0-.16.01-.2-.05-.21-.33-.4-.69-.6-1.04-.03.03-.06.06-.07.1-.02.04-.04.1-.04.15,0,.12,0,.25,0,.37.02.48-.04.97.03,1.44.06.1.11.19.16.28.08.53-.04,1.08.07,1.59.06.1.11.19.17.29v.71c.07.14.14.27.22.41v.72c.07.14.14.27.21.39v1.46c-.08.15-.15.29-.22.43v1.07c-.21.37-.41.72-.62,1.07v1.08c-.07.14-.15.27-.22.41v.36c.07.13.14.27.21.4,0,.13,0,.25-.01.36-.07.14-.14.28-.22.43.03.16.06.32.09.48h.24c.07-.12.15-.24.22-.36h.24c.03.15.06.32.09.46.15.26.3.51.41.71v1.6l-.3.52c-.28.04-.33-.02-.34-.4,0-.12.01-.25,0-.37-.02-.11-.06-.2-.1-.3h-.22c-.09.16-.18.34-.3.56v2.52c-.07.14-.14.28-.21.42,0,.11,0,.23-.01.36.07.13.14.26.21.39v1.46c-.07.14-.14.27-.22.41v4.77c-.13.23-.26.45-.38.67-.03.29-.06.59-.24.77v.76c.05.1.12.23.19.38-.06.12-.13.25-.2.39v.35c-.07.14-.14.27-.2.38v.72c.08.16.15.3.19.38v.72c-.08.18-.15.32-.2.42-.02.41.03.78-.05,1.16-.12.11-.19.31-.16.61.06.11.13.25.2.4v1.46c-.07.13-.14.26-.21.4v2.56c-.07.14-.14.28-.22.42v1.06c-.08.16-.15.3-.2.41,0,.58,0,1.14,0,1.69,0,.05-.02.11-.03.16-.26.49-.26.52.02,1.04v3.32c-.05.1-.12.24-.2.38v1.09c.07.13.14.26.21.4v1.36c.11.4.32.53.39.88l-.15.26c.07.34.26.51.39.79v.39c-.09.15-.2.31-.33.52-.07.06-.23-.08-.28.23l.6,1.04c0,.06.02.12.02.17-.02.21.04.37.15.4.1.03.21.01.28.2v.36c-.07.13-.14.26-.21.39v.36c.2.35.4.7.6,1.05,0,.05.02.11.03.16q.05.41.33.47l.3.52-.21.4c0,.12,0,.24,0,.35.07.14.14.28.21.42v3.88c.2.43.36.75.51,1.06h.66c.11.29.26.39.44.4.13.22.25.44.39.68.15-.24.29-.48.44-.72h.21c.28.48.55.96.83,1.44.04.07.25.03.28-.07.03-.1.05-.22.05-.33,0-.3-.26-.4-.22-.77,0-.08-.06-.2-.11-.28-.1-.17-.2-.35-.3-.52.14-.23.14-.23.5-.16.14.2.25.36.35.49v.7c.19.36.35.68.52.99.12-.2.22-.38.32-.56v-.73c-.06-.12-.13-.26-.2-.39l.3-.52c.07,0,.14-.02.21-.03.07-.11.15-.24.23-.37h.64c.09-.17.2-.33.28-.53.03-.08.02-.23.03-.35-.1-.24-.21-.47-.37-.6-.28-.04-.56.06-.83-.05-.1-.18-.19-.35-.28-.52.04-.06.06-.14.09-.14.28,0,.56,0,.86,0,.06.09.13.22.21.34h.2c.08.13.15.25.23.37.07,0,.14-.01.21-.02.1-.17.2-.35.3-.53v-.35c.06-.07.1-.17.16-.19.06-.02.15,0,.19.06.11.15.2.34.29.51v.72c.03.06.06.1.08.15.03.09.06.17.09.25-.05.09-.12.17-.15.27-.1.29,0,.6.2.6.1,0,.21,0,.3,0,.11-.2.21-.37.31-.54,0-.27,0-.3.09-.54.22-.01.46-.03.67-.04.08-.13.12-.24.18-.3.13-.14.3-.04.34.19.02.11,0,.3.03.34.21.25.19.61.19.98,0,.19.08.29.21.29h.95s.06-.08.07-.14c0-.03,0-.1-.02-.13-.05-.09-.1-.18-.16-.29,0-.21,0-.46,0-.7,0-.07.08-.12.11-.16.11.17.22.33.31.48v.44l.28.16c.09-.14.17-.26.25-.38.07.11.15.23.22.36h.2c.08.12.15.24.23.35.11-.19.21-.36.31-.54v-.36c-.07-.13-.14-.27-.21-.39,0-.18-.03-.38.11-.52h1.67c.08-.13.16-.25.25-.39.16.31.33.62.49.93-.03.04-.07.16-.12.17-.13.04-.27.04-.41.07-.03,0-.05.08-.08.13v.37c.1.17.2.34.31.53h.42c.14.25.29.51.44.77l.07.13c.08.15.01.55-.11.59-.1.03-.21-.01-.28.18,0,.12,0,.24-.01.37-.07.13-.14.26-.21.39.1.17.2.35.32.55.4,0,.83,0,1.25,0,.03,0,.05-.06.1-.11.02-.27.04-.56.06-.85.13-.22.26-.43.37-.66.04-.08.02-.23.03-.37-.06-.12-.13-.26-.2-.4,0-.11,0-.23-.01-.35l-.21-.39c.07-.13.14-.27.21-.39,0-.14.01-.25.02-.37.05-.09.1-.18.15-.26.05-.08.03-.17-.06-.26h-.42q-.15-.39.01-.75h.62q.21-.34.31-.18v.35c.22.4.44.79.59,1.06.07.31.1.47.13.62h.44c.08.13.15.25.22.36h.43c.11-.18.21-.36.31-.54v-.35c-.18-.31-.35-.61-.54-.94-.07-.04-.19.07-.25-.12-.03-.09-.04-.22-.04-.33,0-.18.01-.36.03-.53,0-.05.05-.09.07-.13.1-.03.24.09.28-.14.03-.18-.1-.26-.16-.39,0-.12-.01-.24-.02-.38-.14-.25-.28-.51-.43-.78v-1.08c-.08-.15-.14-.28-.21-.4.02-.5.02-.51.31-.52.15.24.3.48.45.73.13-.41.13-.42.04-1.01l-.29-.13-.37-.65c-.07-.01-.14-.03-.22-.04-.07-.11-.14-.23-.22-.35-.16-.28-.17-.39,0-.75.07-.16.09-.3.1-.48,0-.08.08-.15.12-.23.05.09.1.18.15.26.07.11.23.12.29.03.13-.22.25-.43.38-.66.04.07.11.13.12.21.02.24,0,.48,0,.68.25.43.47.82.7,1.21.02.04.06.05.11.1.08-.05.17-.11.25-.16v-1.34c-.11-.13-.28-.34-.37-.44-.07-.34-.1-.5-.13-.65h-.46c-.09-.17-.18-.35-.28-.55.03-.3.2-.15.31-.23.12-.21.25-.43.39-.68.07.1.14.2.24.34.07,0,.18,0,.28,0,.16,0,.16,0,.24-.43.02-.11.06-.22.1-.29.07-.11.1-.18.07-.27-.11-.15-.2-.32-.16-.64.05-.11.12-.24.21-.41-.1-.14-.21-.29-.36-.49,0,0-.07-.02-.14-.04-.21-.23-.35-.58-.54-.86.02-.37.19-.19.3-.26.09-.41.38-.23.52-.53v-.81c-.08-.12-.19-.27-.29-.44-.12-.21-.23-.45-.35-.67.03-.28-.08-.44-.18-.61,0-.47-.18-.74-.38-.98-.07-.01-.13-.03-.1-.02-.25-.35-.43-.61-.59-.84.07-.31.19-.22.3-.24.07.12.15.24.23.37h.74v-.66ZM19.36,142.47s-.03-.09-.03-.11c.04-.14.08-.15.13-.07.05.08.08.17.05.29,0,.02-.06.02-.09,0,.29.24.23.34.22.33-.05-.04-.1-.09-.12-.17-.04-.15,0-.23.09-.16.04.04.07.14.1.22-.31-.24-.33-.29-.35-.33ZM9.36,19.04c-.17-.01-.22-.1-.23-.4v-.34h-.32c-.1-.17-.19-.35-.29-.52.06-.3.19-.22.32-.18.09.25.3.34.3.7.03,0,.07-.02.09,0,.11.18.22.38.33.57.02.03,0,.11,0,.16.19.24.14.34.13.33-.05-.04-.1-.09-.12-.17-.04-.15,0-.23.09-.16.04.04.07.14.1.22-.25-.22-.32-.22-.39-.22ZM13.48,48.91c-.1-.17-.2-.35-.3-.52-.03-.55,0-.6.32-.55.12.12.08.31.09.47.05.23.24.29.21.6.19.13.19.13.4.6-.21.21-.23.22-.4-.08v-.52h-.32ZM14.53,50.75c.15-.24.29-.49.44-.73.17.32.11.66.05,1,0,.04-.05.09-.08.1-.07.02-.14.02-.2.03-.07.07-.1.17-.09.3v.36c0,.37-.06.43-.33.39-.1-.17-.2-.34-.3-.52v-.33c-.06-.23-.24-.29-.22-.6h-.31l-.22-.37h-.21s-.29-.51-.29-.51c-.05-.24-.05-.46.1-.6l.2.02c.26.46.53.92.83,1.46h.63ZM16.87,54.06s.06-.07.07-.12c0-.03,0-.1,0-.12-.12-.21-.25-.43-.37-.65v-.36c.04-.07.09-.2.14-.2.2-.02.42-.09.56.3.26.03.43.31.56.66v.18c0,.06,0,.15-.02.16-.26.2-.12.82-.37,1.02-.06.05-.1.15-.15.22l-.37-.65c-.1-.04-.19-.07-.28-.13-.08-.05-.1-.17-.07-.31-.12-.02-.14-.06-.16-.1-.01-.03-.03-.09-.03-.11.04-.14.08-.15.13-.07.05.08.08.17.05.29,0,.02-.06.02-.09,0,.2,0,.3.01.41,0ZM17.41,145.35c.06-.12.13-.25.2-.38l-.6-1.04c-.04-.29-.06-.58,0-.87.15-.23.34-.04.49-.12.08-.13.16-.25.23-.36.08.01.15.03.21.04l.37.65c.22.09.28.14.46.42.08,0,.19,0,.29,0,.14,0,.23.09.24.24.01.18,0,.36-.1.48-.03.03-.05.09-.08.13.06.36.25.51.38.79v1.1c.17.29.34.6.52.89.04.06.13.03.21.05.07-.11.15-.23.23-.35.06,0,.13-.01.22-.02.23.43.47.88.71,1.32-.05.09-.12.22-.19.36v.72c-.1.18-.2.35-.31.54h-.85c-.14-.23-.29-.48-.43-.72h-.21c-.03.05-.07.09-.08.14-.01.36-.02.72-.03,1.09,0,.08-.08.14-.12.21-.2-.35-.4-.69-.61-1.06h-.42c-.1-.17-.21-.32-.29-.51-.04-.08-.05-.23-.04-.33.01-.1.07-.19.1-.27.08.12.15.24.22.36.08-.01.14-.02.21-.03.1-.17.2-.35.3-.52v-.36c-.07-.27-.25-.13-.35-.27-.08-.1-.14-.24-.24-.31-.33-.2-.33-.23-.46-.81-.01-.05-.02-.11-.03-.16-.04-.13-.19-.18-.13-.39.03-.1.1-.18.15-.28l-.19-.38ZM11.97,93.12c-.05-.09-.1-.17-.16-.28-.26-.12-.54,0-.82-.06-.06-.01-.11-.12-.17-.18v-.73c.05-.14.1-.18.15-.11.08.11.12.3.25.29.04,0,.07,0,.12,0,.07-.11.15-.23.23-.36h.19c.11-.11.11-.28.13-.46.02-.16.11-.29.2-.52.03-.13,0-.38,0-.61,0-.15-.07-.23-.23-.26l-.1-.02c-.11-.26-.25-.4-.42-.39-.11-.18-.21-.35-.31-.5v-.75c.13-.31.32-.13.51-.19.21.36.44.73.66,1.1.08-.12.15-.24.22-.35.27-.03.27-.04.3-.33.05-.48.15-.53.42-.22v.37c.35.6.7,1.2,1.05,1.81v1.83c.07.14.14.27.21.42,0,.11,0,.23.01.36.07.13.14.26.21.39-.13.31-.32.12-.49.21-.25-.34-.44-.77-.68-1.13h-1.06c-.15.23-.26.53-.45.7ZM12.94,73.99c.08,0,.14,0,.18-.13.03-.08,0-.17-.08-.26-.03-.04-.05-.08-.07-.13.01-.32-.15-.69.09-.94.1.17.2.35.3.52v.35c.07.13.14.27.22.4v.72c.07.13.14.27.21.39,0,.13,0,.25,0,.36-.07.14-.14.27-.2.39,0,.14-.01.26-.02.37l-.3.52h-.26c-.11.23-.24.51-.35.75-.31-.03-.31-.04-.34-.33-.04-.35-.04-.35-.25-.41-.03,0-.06-.03-.08-.04-.11-.18-.21-.35-.31-.51v-1.11c-.07-.13-.14-.26-.21-.39v-1.87c.08-.05.18-.11.27-.17.27.47.64.77.61,1.51.24,0,.42-.01.59,0ZM12.22,67.74c.09.42.38.23.51.53v.4c-.09.14-.19.3-.32.5-.13.03-.31.05-.38.4-.19,0-.37,0-.54,0q-.19,0-.24-.43c0-.06-.02-.11-.01-.08-.12-.24-.21-.42-.3-.6-.08.09-.1.2-.12.31-.05.45-.06.45-.34.4-.17-.24-.03-.58-.14-1-.12-.29-.39-.58-.56-1.03.03-.05.06-.13.08-.13.56,0,1.13,0,1.7,0,.14.23.29.48.44.72.08,0,.15.01.21.02ZM16.13,102.56c-.2.4-.46.11-.7.19-.23-.26-.4-.62-.58-.98.04-.29-.06-.46-.19-.64-.03-.51-.03-1.04,0-1.49.08-.21.17-.34.19-.5.02-.18.03-.34.12-.44h.42c.18.23.07.56.11.89.05.11.12.24.2.4v1.13c.14.2.3.43.43.61v.83ZM12.52,13.65c-.01.15-.11.22-.24.22h-.31c-.07,0-.13-.02-.2-.03-.05-.09-.1-.18-.15-.25-.02-.02-.05-.02-.07-.03l-.37.64c-.1.06-.19.09-.28-.03-.06-.08-.08-.18-.06-.32,0-.06,0-.12,0-.18,0-.12,0-.24,0-.35-.07-.14-.14-.27-.21-.41v-.69c-.07-.15-.13-.27-.19-.39.15-.29.34-.1.51-.17.07.12.15.24.23.37h.62s.05.08.08.11l.67,1.16c0,.12.02.24,0,.35ZM15.91,76.75c-.07.14-.17.31-.26.48-.03,0-.07.03-.08.01-.13-.22-.25-.43-.37-.64-.07-.01-.14-.02-.22-.04-.07-.11-.15-.23-.23-.36h-.22c-.08-.17-.17-.35-.3-.6-.05-.27.02-.63-.02-.95.09-.3.21-.49.35-.63.03.04.07.09.07.13,0,.37.01.72.02,1.09,0,.14.08.19.13.16.12-.22.25-.43.39-.68.12,0,.26-.02.39,0,.04,0,.08.13.12.2q-.19.35-.01.65c.07.13.15.26.23.41v.75ZM19.21,151.44l.3.52c0,.12.01.23.02.44.16.23.35.49.61.87.12,0,.36.02.58.04q.08.25.08.54s-.05.12-.07.12c-.2.03-.41.05-.65.08-.05.07-.13.18-.21.31-.22.05-.46.1-.69-.04-.02-.05-.06-.09-.06-.14,0-.12,0-.24,0-.34.07-.14.14-.27.19-.38v-.74c-.11-.19-.21-.36-.31-.54-.13,0-.27.02-.41,0-.08-.02-.11-.14-.09-.23.01-.05.05-.12.07-.12.14-.01.28,0,.42,0l.22-.36ZM11.18,22.3s-.1-.02-.15-.14c-.02-.05-.05-.09-.07-.13l-.22-.39c-.07,0-.14,0-.2-.02-.1-.04-.11-.18-.02-.36h.42s.06-.07.08-.12c.09-.35,0-.71.05-1.04-.04-.12-.07-.22-.12-.31-.15-.32-.16-.38.01-.73h.42c.1.18.2.35.31.53v.74c-.06.11-.13.24-.2.39v.71l-.22.4c-.01.16.04.37-.07.49ZM11.76,13.79c-.09-.34-.19-.67-.28-1,.48.14.95.27,1.47.42.03.02.12.1.22.2.05.17.11.36.16.53.02.2-.15.23-.22.34-.32.06-.75-.21-1.06-.21-.13-.12-.21-.21-.29-.29ZM17.84,93.26c.02.16.12.29.19.47v.77c-.15.23-.34.5-.54.81-.07-.1-.16-.26-.25-.41-.02-.12-.04-.24-.04-.35v-1.47c0-.05.02-.11.03-.17.14-.28.34,0,.47-.14.12.14.11.32.14.5ZM19.58,141.49h-.39c-.06.11-.11.2-.16.28-.09.11-.22.14-.28,0-.12-.27-.29-.27-.44-.38-.02-.02-.03-.08-.05-.13.24-.15.13-.66.3-.89h1.08c.07.15.16.34.26.54-.05.23-.18.39-.33.58ZM19.18,17.71c.06-.06.11-.11.16-.15.21.04.44.2.48.39.05.25.26.46.39.68.03.04.02.09.03.13-.15.14-.29.29-.44.44-.42-.18-.7-.57-1-.88-.06-.21-.12-.39-.18-.57.06-.05.1-.1.17-.16.13.04.27.09.4.13ZM9.12,12.94s0,.11.01.16c.03.35.19.52.34.35.06-.06.09-.19.15-.25.13-.14.26-.1.35.12v.38c-.28.35-.61.04-.9.21-.09-.13-.17-.24-.26-.37q-.31-.11-.34-.62c-.1-.17-.19-.35-.3-.51-.06-.1-.1-.18-.08-.26.04-.13.1-.15.18-.13.1.02.21,0,.32,0,.17.3.34.6.52.91ZM20.49,144.79c-.07-.12-.15-.24-.22-.37h-.41q-.17-.35-.02-.74h.62c.07-.12.15-.24.23-.37h.2c.09.1.12.25.12.44,0,.2.12.27.17.42.08.23.05.44-.07.62-.21,0-.41,0-.63,0ZM11.24,12.51c-.19-.04-.36-.1-.46-.08-.11.02-.14.15-.36.05l-.41-.41,2.72-1.11v.3q0,.31-.25.4s-.07-.02-.09-.05c-.12-.21-.24-.41-.36-.65l-1.52.62c.34.08.71.18,1.11.29.02.41-.32.42-.38.64ZM12.53,95.58c0,.12,0,.24-.01.4-.08.05-.18.1-.38.22-.06.14-.19.42-.3.65h-.27c-.1-.17-.2-.35-.3-.54.06-.12.12-.25.2-.4,0-.15,0-.33,0-.51,0-.35.18-.52.35-.34.06.06.1.17.17.29.23.07.43-.12.54.23ZM17.52,151.8c.08,0,.14.01.2.02.18.31.36.6.53.9-.06.07-.12.17-.17.18-.17.02-.35,0-.53,0-.16-.08-.22-.5-.44-.37-.14-.18-.27-.36-.36-.68.03-.13.06-.29.1-.43h.44c.08.13.15.25.23.37ZM19.43,137.78c-.07.12-.15.24-.23.37h-.84s-.06-.08-.07-.13c-.02-.09,0-.18.09-.24.03-.02.07,0,.1,0,.17-.03.17-.04.2-.5.1-.24.21-.47.36-.61.04,0,.08-.02.11,0,.25.21.4.61.58.93-.08.23-.19.16-.29.17ZM21.77,133h.2c.17.23.06.74.3.89,0,.12.01.24.02.37.06.12.13.25.2.38-.05.17-.14.19-.25.2-.11,0-.16.22-.24.3-.13.13-.26.09-.35-.14v-.35c.07-.14.14-.27.21-.4,0-.13,0-.25-.01-.37-.14-.27-.31-.47-.42-.84.03-.13.06-.29.1-.45.09.15.17.27.24.4ZM25.25,24.26q-.39-.17-.52-.53c.05-.05.09-.1.13-.15-.03-.14-.06-.28-.09-.39.11-.11.21-.21.3-.3.21.06.41.11.6.16.16.28-.2.28,0,.59.16.16.34.33.5.49.08.15.06.2-.04.17l-.73-.2-.15.15ZM13.51,11.82c.17.04.36.08.55.15.08.03.2.13.27.21.06.08.08.18.12.27-.05.05-.1.1-.15.15-.1-.03-.2-.05-.3-.08-.05-.01-.09,0-.15-.01-.14.14-.29.28-.42.42-.19,0-.31-.16-.52-.36-.03-.13-.06-.31-.1-.5-.02-.1.09-.21.22-.18.09.02.19.05.29.08.06-.04.11-.08.19-.13ZM12.32,82.66c.09-.17.18-.33.27-.49.13-.05.15.18.23.24.12.09.27.03.36.26.06.15.14.27.19.36v.73c-.08.24-.19.17-.29.18-.19-.14-.05-.59-.23-.74h-.21c-.1-.17-.2-.35-.31-.54ZM38.4,33.5c-.19-.19-.37-.36-.53-.53-.07-.16-.02-.24.05-.32.07-.08-.03-.25-.05-.38,0-.02.03-.04.06-.04.04,0,.11.02.14.05l1.29,1.27s.04.09.08.2c-.39-.1-.72-.18-1.03-.25ZM14.75,81.36h.2c.18.26.35.52.36.97,0,.04.04.09.07.12.07.09.1.17.07.25-.04.12-.1.14-.18.12-.1-.02-.2,0-.32,0-.08-.16-.18-.34-.32-.6.03-.32-.06-.64.11-.87ZM14.32,83.57c-.09-.16-.18-.34-.29-.55-.05-.29-.02-.65-.02-1,0-.1.06-.19.09-.29.19.25.34.52.36.97,0,.09.1.16.13.26.03.09.05.22.03.33-.01.1-.07.19-.1.28-.07,0-.14,0-.22,0ZM28.81,24.64q-.04-.17.35-.07c.09-.09.19-.19.31-.31.17.06.37.13.59.21.13.19.16.38.16.58-.1-.03-.21-.08-.29-.07-.11.01-.18.1-.3.09-.17,0-.37-.07-.51-.09-.15-.16-.24-.24-.32-.33ZM16.96,89.26c0,.15,0,.33.01.5,0,.42-.02.44-.32.45-.1-.17-.19-.34-.3-.53,0-.15,0-.33-.01-.5,0-.42.02-.44.32-.45.1.17.19.34.3.53ZM20.49,129.33c.12.13.2.34.32.55-.1.07-.18.13-.26.19-.07-.09-.14-.14-.18-.22-.15-.26-.3-.51-.42-.73.04-.55.05-.61.32-.52.18.06.06.56.23.75ZM13.45,10.11c-.22-.18-.44-.36-.59-.59-.1-.2.05-.21.1-.29.15.01.27.11.4.24.14.14.28.12.41.17.03.01.08.06.09.08.06.18.12.37.18.56-.22-.06-.41-.11-.6-.16ZM27.96,22.36c.37.35.37.35-.03.37-.04,0-.08.01-.1.04-.11.13-.26.1-.48-.12-.15-.16-.29-.14-.43-.19-.09-.03-.16-.12-.14-.22.02-.07.09-.1.14-.15l1.03.28ZM12.31,17.4v-.4q.22-.26.42.01v1.07c-.2.29-.2.28-.42.03.07-.13.14-.25.22-.4-.08-.11-.15-.23-.22-.32ZM16.06,14.21c.03.08.1.19.08.22-.13.16-.28.29-.43.44-.38-.17-.39-.17-.52-.53l.29-.29c.19.05.38.1.58.16ZM14.65,55.73s-.05.1-.08.12c-.05.04-.09-.03-.15-.15-.13-.28-.32-.47-.42-.85.03-.13.07-.28.11-.45.19.34.37.64.54.94v.37ZM32.28,26.79c.17-.06.42.11.6.11.11.11.19.19.27.27.08.22.02.34-.16.32-.17-.01-.36-.08-.55-.13-.06-.2-.11-.39-.16-.58ZM15.98,40.36c-.13-.25-.03-.56-.07-.84.04-.13.1-.2.14-.14.17.29.33.57.5.86-.2.2-.2.21-.57.11ZM31.46,27.27l-.52-.51q-.04-.34.3-.3l.52.51q.04.34-.3.3ZM38.07,34.09c-.21.07-.48-.11-.68-.1-.16-.16-.37-.3-.3-.47.34.09.67.18,1.03.28-.02.11-.04.22-.05.3ZM16.23,82.09c-.14-.26-.14-.34,0-.74.14.25.28.51.43.75.06.1.09.17.06.25-.04.11-.1.15-.18.11-.03-.01-.07,0-.1,0-.07-.12-.14-.25-.21-.37ZM16.94,57.14s.03.1.05.19c-.03.12-.06.28-.11.53-.19-.36-.34-.66-.5-.96-.01-.02-.01-.09,0-.12.03-.13.09-.16.17-.13.03.01.07,0,.14,0,.07.14.16.32.25.49ZM21.25,127.69c.03-.34.18-.2.29-.23.07.13.15.25.22.38.14.26.14.34,0,.73l-.5-.87ZM17.62,141.65c0-.18,0-.36,0-.54,0-.14,0-.24.07-.31.05-.06.09,0,.15.11.07.13.15.24.21.34v.4q-.21.26-.42,0ZM11.47,24.03l-.22.36c-.15.25-.21.24-.42-.02v-.47c.27-.05.47-.22.64.13ZM14.43,39.52c0-.2,0-.38,0-.55,0-.14,0-.24.07-.31.05-.06.09,0,.15.11.07.13.15.24.21.34v.4c-.14.27-.28.24-.42.01ZM10.09,157.7q-.14-.36,0-.74h.21c.15.36.15.36,0,.74h-.21ZM14.78,89.17c.11.13.2.31.29.47-.11.23-.24.28-.36.14-.11-.13-.2-.31-.29-.47.11-.23.24-.28.36-.14ZM20.28,130.78c.09.02.22-.09.27.13.04.18-.09.25-.14.37-.02.05-.05.09-.07.13l-.07.1c-.14-.37-.14-.38.02-.73ZM13.16,15.92c-.01.16.05.39-.07.47-.1.07-.14-.16-.21-.25-.03-.03-.05-.08-.07-.12-.02-.04-.04-.08-.06-.12.21-.24.22-.25.42.03ZM13.39,51.69c-.07.12-.16.22-.22.35-.06.11-.1.16-.15.12-.07-.07-.09-.17-.07-.31,0-.06,0-.12,0-.18.14-.27.28-.27.44.02ZM15.53,50.62c-.02-.08,0-.17.08-.24h.41s.06.08.07.13c.02.08,0,.17-.08.24h-.41s-.06-.08-.07-.13ZM8.71,75.99c-.02.21.06.48-.14.52l-.29-.5c.14-.27.28-.24.43-.02ZM14.68,49.14c.03-.35.18-.2.29-.23.15.25.13.49,0,.75-.1-.18-.2-.34-.29-.51ZM15.49,104.76c.01-.16-.05-.39.07-.47.1-.07.14.16.21.25.03.03.05.08.07.12.02.04.04.08.06.12-.22.24-.22.25-.42-.03ZM16.24,122.28c.07.13.13.27.21.38.07.1.09.17.06.25-.04.11-.1.15-.18.12-.03-.01-.07,0-.1,0-.15-.37-.15-.37,0-.75ZM3.87,107.06s-.01-.09,0-.12c.05-.19.28-.19.35,0,.01.03,0,.08,0,.12-.05.19-.28.2-.35,0ZM16.1,91.81c.04.13-.05.24-.18.24-.03,0-.07.02-.1,0-.03-.02-.06-.07-.07-.12-.03-.08,0-.17.08-.24.03-.02.07,0,.1,0,.08-.04.14,0,.17.13ZM11.96,46.26c-.11-.12-.1-.53,0-.61.02-.01.05-.01.07,0,.03.03.06.08.07.13,0,.12,0,.24,0,.35,0,.05-.05.08-.07.13-.02,0-.05,0-.07-.01ZM35.21,33.76c.28.07.46.24.53.52-.29-.07-.46-.24-.53-.52ZM31.53,26.16c-.09-.29.01-.38.3-.3.09.29,0,.38-.3.3ZM17.4,116.57c-.04.13-.09.17-.14.12-.03-.03-.07-.1-.07-.12.04-.13.09-.17.14-.13.02.04.07.11.07.12ZM15.92,120.64c.04-.13.09-.17.14-.12.03.03.07.1.07.12-.04.13-.09.17-.14.13-.02-.04-.07-.11-.07-.12ZM4.15,92.06s.05.07.07.12c.03.08,0,.17-.07.24,0,0-.05-.08-.07-.12-.02-.08,0-.17.07-.24ZM13.66,65.44s-.07-.1-.07-.12c.04-.13.09-.17.14-.12.03.03.05.08.07.12-.05.12-.1.17-.14.12ZM8.78,63.6s-.07-.1-.07-.12c.04-.13.09-.17.14-.12.03.03.05.08.07.12-.05.12-.1.17-.14.12ZM10.51,60.7c-.07-.07-.1-.16-.07-.24.02-.05.06-.13.07-.12.07.07.1.16.07.24-.02.04-.06.12-.07.12ZM13.48,20.14s-.05-.07-.07-.12c-.03-.08,0-.17.07-.24,0,0,.05.08.07.12.02.08,0,.17-.07.24ZM12.95,55.36s.04-.09.07-.12c.04-.05.1,0,.14.12,0,.01-.04.08-.07.12-.05.04-.1,0-.14-.13ZM10.2,19.59s.04-.09.07-.12c.04-.05.1,0,.14.12,0,.01-.04.08-.07.12-.05.04-.1,0-.14-.13ZM21.91,20.33s.12.02.13.04c.06.12.06.19,0,.18-.04,0-.09-.02-.14-.04-.05-.12-.05-.19.01-.18ZM15.39,48.53s-.05-.07-.07-.12c-.03-.08,0-.17.07-.24,0,0,.05.08.07.12.02.08,0,.17-.07.24ZM23.55,24.35c-.1,0-.19-.04-.22-.12-.02-.05-.05-.13-.04-.13.1,0,.18.04.22.12.01.05.05.13.04.13ZM27.71,26.62s.12.02.13.04c.06.12.06.19,0,.18-.04,0-.09-.02-.14-.04-.05-.12-.05-.19.01-.18ZM9.13,99.62s-.04.09-.07.12c-.04.05-.1,0-.14-.12,0-.01.04-.08.07-.12.05-.04.1,0,.14.13ZM9.35,45.03s.04-.09.07-.12c.04-.05.1,0,.14.12,0,.01-.04.08-.07.12-.05.04-.1,0-.14-.13ZM16.03,99.44s.05.07.07.12c.03.08,0,.17-.07.24,0,0-.05-.08-.07-.12-.02-.08,0-.17.07-.24Z"/>
        <path d="M20.07,174.67h.62c.09.14.17.25.22.34h.62c.13-.2.24-.37.33-.52v-.38c.14-.27.32-.49.43-.85-.03-.13-.06-.29-.1-.44h-.24l-.3-.52-.02-.17c-.03-.37-.06-.41-.25-.41-.1,0-.21.02-.28.02-.13.2-.23.37-.33.53,0,.39,0,.75,0,1.12,0,.04-.05.09-.1.17-.22-.36-.42-.76-.66-1.11h-.61c-.09-.14-.17-.25-.24-.36-.17.06-.37-.13-.5.18v.71c.25.44.5.87.76,1.32h.4c.08.13.15.25.23.38ZM21.43,173.74c-.14.26-.28.26-.43,0,.14-.26.28-.26.43,0Z"/>
        <path d="M22.6,113.45h.43c.12.13.08.33.11.49.03.16.12.28.2.44v1.46c-.07.32-.33.07-.42.38,0,.12,0,.24,0,.36.07.14.14.27.21.4-.01.52-.02.52-.29.53-.07,0-.14,0-.27,0-.1-.23-.23-.53-.32-.74h-.53c-.03-.15-.06-.31-.09-.44.12-.35.29-.57.43-.84-.07-.13-.14-.26-.2-.39v-.3c.26-.48.51-.92.73-1.34Z"/>
        <path d="M19.74,176.37v1.42c.07.14.14.27.21.39,0,.13,0,.25.01.37.13.3.32.11.49.17.14.15.26.33.33.6-.03.04-.05.12-.08.12-.35,0-.7,0-1.09,0-.14-.27-.3-.59-.5-.98-.04-.36,0-.84-.01-1.36-.05-.11-.11-.24-.2-.42v-.7c.07-.21.18-.41.31-.53.18.31.35.61.53.92Z"/>
        <path d="M18.21,165.27c-.1.28-.24.59-.51.59-.07,0-.14.19-.2.28-.07-.12-.12-.2-.18-.32-.07.1-.13.22-.21.3-.12.13-.33.03-.33-.18,0-.27-.06-.45-.17-.61-.09-.13-.02-.34-.07-.49-.05-.15-.15-.26-.18-.41-.04-.16,0-.35.1-.47h1.04c.24.43.48.86.72,1.3Z"/>
        <path d="M18.33,65.5c.27.45.52.87.77,1.29-.14.32-.33.13-.55.2-.1-.26-.22-.56-.34-.87-.16.29-.26.46-.36.63,0,.12-.01.24-.02.38.14.25.28.52.43.78,0,.17.03.37-.08.49-.02-.01-.06-.02-.07-.05-.25-.44-.5-.87-.76-1.32-.14-.08-.31-.09-.43-.36-.07-.17-.28,0-.34-.27v-.36q.1-.16.31.18h.43c.18-.12.04-.58.21-.73h.82Z"/>
        <path d="M17.4,33.05h-.54c-.08-.16-.18-.34-.29-.55.05-.1.1-.22.18-.38v-1.08c-.05-.09-.11-.23-.2-.41,0-.12,0-.3,0-.47,0-.32.06-.42.23-.43h.1s.2.02.2.02c.02.04.07.08.07.13,0,.18.02.35.03.53,0,.11.02.24.05.33.07.18.19.08.28.13.02.04.07.08.07.13.01.24.02.47.03.81-.14.19-.3.41-.45.6.07.29.25.36.22.65Z"/>
        <path d="M17.83,45.59v1.64c-.05.07-.1.18-.16.19-.17.02-.35,0-.55,0-.06.09-.14.19-.23.32q-.39.06-.54-.15v-.36c.1-.18.2-.35.31-.55.13,0,.26.02.4-.01.04,0,.07-.14.11-.21-.25-.46-.25-.46-.08-.88h.74Z"/>
        <path d="M16.13,26.23v.36l.22.39v.35c.07.14.14.27.21.4,0,.13,0,.25-.01.37-.14.27-.32.13-.48.14-.04,0-.13-.14-.13-.22-.01-.36,0-.72,0-1.05-.19-.33-.36-.63-.53-.93h-.21c-.1-.17-.19-.34-.29-.52.04-.07.07-.2.11-.21.14-.03.27-.01.4-.01.12.28.26.43.44.41l.3.52Z"/>
        <path d="M21.17,178.35c-.29-.5-.53-.93-.79-1.37.08-.32-.17-.44-.18-.62.1-.23.19-.42.26-.59.2.33.38.63.55.92v.38c.1.18.2.35.3.53.07,0,.14.01.27.03.06.12.15.31.23.49.01.02,0,.09-.01.13-.02.05-.05.1-.08.11-.21,0-.42,0-.57,0Z"/>
        <path d="M17.94,45.59c-.28-.48-.45-.78-.64-1.11-.18,0-.39,0-.59,0-.03,0-.06-.05-.11-.1-.01-.13-.02-.3-.03-.44.15-.32.33-.14.51-.2.07.1.15.22.24.36h.58c.22.24.36.58.54.86.02.02.01.08.01.11-.1.18-.19.36-.28.52h-.22Z"/>
        <path d="M14.7,162.42c.13.21.21.33.28.44.08,0,.17-.03.21.03.25.42.5.83.73,1.22v.46c-.09.05-.18.11-.25.16-.2-.2-.32-.5-.48-.74-.07,0-.14-.01-.21-.02-.07-.11-.15-.23-.23-.37-.06,0-.13.03-.19,0-.08-.04-.12-.18-.08-.23.18-.21.18-.59.23-.95Z"/>
        <path d="M19.85,76.22c-.07,0-.14-.01-.23-.02-.23-.43-.47-.87-.7-1.31.02-.03.06-.13.12-.15.06-.02.15-.01.19.05.13.2.25.42.38.64.07.01.13.02.24.04.2.35.42.73.63,1.1.09,0,.15.01.22.02l.3.52c-.08.25-.24.3-.33.13-.13-.24-.3-.23-.44-.38-.14-.16-.25-.42-.38-.63Z"/>
        <path d="M22.49,110.7c-.01.14.05.35-.07.47-.04.04-.1-.01-.15-.14-.02-.05-.05-.13-.07-.12-.29.03-.41-.34-.57-.69v-.62c-.08-.19-.19-.33-.19-.47,0-.28-.1-.43-.19-.6-.03-.06.01-.17.08-.23h.42c.23.36,0,.82.12,1.21.15.46.42.77.62,1.21Z"/>
        <path d="M12.74,172.25l.21.39v1.09q-.21.27-.42,0v-1.46c-.07-.13-.14-.26-.21-.39v-.72q.21-.26.42,0v1.09Z"/>
        <path d="M21.13,120.83h.41c.17.25.06.58.11.97.12.17.28.4.41.58,0,.22,0,.34,0,.46-.05.14-.1.18-.15.11-.3-.52-.6-1.04-.89-1.55-.04-.07-.04-.24-.02-.34.02-.1.08-.16.12-.23Z"/>
        <path d="M6.16,171.89c-.08-.13-.15-.25-.23-.38h-.41c-.03-.05-.06-.09-.08-.14-.07-.23-.01-.56.12-.57.16-.01.26-.13.35-.32.03,0,.06-.02.08,0,.17.31.37.56.5.93q-.04.47-.31.48Z"/>
        <path d="M9.76,165.41c-.09.23-.23.29-.34.14-.19-.25-.35-.56-.5-.81v-.42c.07-.17.17-.24.26-.18.12.08.21.28.33.34.1.05.19.05.25.21v.71Z"/>
        <path d="M22.92,96.3v.37c-.1.17-.2.35-.31.54-.1-.16-.19-.31-.29-.47-.07-.36-.03-.73-.03-1.09,0-.09.07-.18.11-.27l.52.91Z"/>
        <path d="M23.66,177.98h-.43c-.06-.12-.12-.25-.18-.36-.12-.03-.24.07-.3-.13-.07-.23-.06-.46.07-.61.05-.05.13,0,.2,0l.22.37h.41c.15.36.15.36,0,.74Z"/>
        <path d="M23.34,142.21h.32c.1.17.2.33.29.52.04.08.02.23.03.35-.1.24-.22.45-.37.63-.09-.06-.18-.13-.27-.18v-1.33Z"/>
        <path d="M19.31,119.55c.05-.07.1-.17.15-.2.1-.04.19,0,.27.16.07.14.14.26.22.38v.4c-.06.1-.14.22-.21.34-.15.25-.21.25-.42-.01v-1.07Z"/>
        <path d="M23.44,125.98c-.07,0-.14,0-.21,0-.07-.12-.14-.25-.21-.37-.14-.26-.14-.35,0-.73h.43c.08.16.16.34.27.54-.03.24-.19.36-.28.56Z"/>
        <path d="M20.26,86.52c.07.08.11.18.07.24-.09.17-.19.31-.18.59,0,.08-.07.18-.11.27h-.21c-.07-.13-.14-.26-.22-.38-.09-.13-.12-.29-.09-.47.01-.1.07-.18.11-.26h.62Z"/>
        <path d="M6.47,166.88c-.07-.11-.14-.22-.21-.33v-.38c.14-.26.28-.27.42,0v.39c.07.1.15.22.21.32,0,.21,0,.39,0,.57,0,.14,0,.24-.07.31-.05.05-.09,0-.15-.11-.07-.13-.15-.24-.21-.34v-.43Z"/>
        <path d="M21.21,92.63c.14-.34.33-.15.46-.22.19.11.27.39.39.57v.35c-.09.22-.23.28-.34.13-.19-.25-.35-.56-.51-.84Z"/>
        <path d="M22.4,118.97c.06.12.13.26.18.38h.23c.12.17.14.39.07.62-.07.2-.18.1-.29.13-.06-.12-.13-.26-.18-.38h-.23c-.12-.17-.14-.39-.07-.62.07-.2.18-.1.29-.13Z"/>
        <path d="M23.77,167.84c0,.06,0,.12,0,.18.02.14,0,.24-.07.31-.09.1-.2.11-.28.01-.11-.14-.2-.33-.29-.5,0-.23,0-.47,0-.7,0-.07.08-.12.12-.18.17.3.34.59.51.88Z"/>
        <path d="M15.6,170.6c-.1-.17-.19-.34-.3-.53.06-.12.11-.24.19-.39.07-.27-.1-.68.13-.92h.21q.16.43-.08.87c-.1.3.08.72-.14.97Z"/>
        <path d="M13.05,166.55h.22c.06.12.13.25.18.37h.23c.16.24.15.49,0,.74h-.22c-.06-.12-.13-.25-.18-.37h-.23c-.16-.24-.15-.49,0-.74Z"/>
        <path d="M21.43,102.75h.32c.1.17.2.35.3.52.04.56,0,.61-.31.55-.1-.17-.2-.35-.3-.51v-.56Z"/>
        <path d="M19.4,114.18h.24c.06.12.13.25.2.37.14.26.14.35,0,.75-.07-.13-.14-.27-.2-.38-.12,0-.22-.01-.32,0-.08.02-.14,0-.18-.12-.03-.08,0-.15.06-.25.08-.12.14-.26.2-.37Z"/>
        <path d="M10.19,172.61c.07.13.14.26.2.38h.23c.06.12.13.26.21.37.07.1.09.17.06.25-.04.11-.1.13-.18.12-.1-.02-.2,0-.33,0-.08-.15-.18-.31-.26-.5-.03-.08-.04-.22-.03-.32.01-.1.06-.19.11-.3Z"/>
        <path d="M19.31,67.53c0,.36,0,.71,0,1.07,0,.07-.08.13-.12.19-.1-.17-.2-.34-.3-.51v-.45c.07-.11.17-.26.28-.41.04-.06.1-.01.14.12Z"/>
        <path d="M20.91,80.99h.21c.2.28.1.64.08.97-.07.21-.19.11-.28.13-.1-.11-.12-.27-.11-.46,0-.23-.03-.48.11-.65Z"/>
        <path d="M16.56,173.7c0,.23,0,.41,0,.58,0,.14,0,.24-.07.31-.05.05-.09,0-.15-.11-.07-.13-.15-.24-.21-.34,0-.23,0-.41,0-.58,0-.14,0-.24.07-.31.05-.05.09,0,.15.11.07.13.15.24.21.34Z"/>
        <path d="M17.72,63.29c.15.25.15.49,0,.74h-.23c-.05-.11-.12-.24-.19-.37-.14-.27-.14-.35,0-.75.07.13.14.27.2.38h.22Z"/>
        <path d="M14.43,171.14v-.36c.22-.25.27-.25.42,0,.07.12.15.24.21.33,0,.17,0,.29,0,.4,0,.05-.04.1-.07.12-.05.04-.09-.02-.15-.13-.04-.08-.1-.13-.16-.18-.03-.02-.07.02-.1,0-.06-.05-.1-.13-.15-.19Z"/>
        <path d="M13.79,170.58c0,.18,0,.36,0,.54,0,.14,0,.24-.07.31-.05.06-.09.02-.15-.1-.07-.14-.15-.25-.21-.36v-.39q.21-.26.42,0Z"/>
        <path d="M18.19,70.1c.15-.09.24-.15.31-.19.18.14.27.39.39.59-.01.16.04.36-.07.47-.05.04-.09-.01-.14-.13-.04-.09-.09-.17-.14-.25-.1-.15-.2-.3-.34-.5Z"/>
        <path d="M16.55,172.26c.01-.17-.04-.37.07-.48.13-.13.28-.12.35.12.05.19.02.46,0,.7,0,.07-.08.12-.12.17-.1-.17-.2-.34-.3-.51Z"/>
        <path d="M18.04,168.95c.16-.34.37-.16.56-.13.12.12.06.32.08.48-.05.07-.1.18-.16.2-.1.04-.19,0-.27-.16-.07-.14-.14-.26-.22-.38Z"/>
        <path d="M21.32,119.34h-.21c-.15-.39-.15-.39.02-.73.1,0,.21.02.31,0,.08-.02.14,0,.18.13.02.08-.01.16-.08.25-.08.11-.15.24-.21.35Z"/>
        <path d="M23.87,119.34c.15.25.14.49,0,.74h-.23c-.06-.11-.13-.26-.2-.37-.07-.1-.09-.17-.06-.26.04-.11.1-.13.18-.11.1.02.21,0,.31,0Z"/>
        <path d="M22.49,112.15c.02-.19-.06-.46.14-.5l.29.5c-.02.19.06.46-.14.5l-.29-.5Z"/>
        <path d="M13.69,175.77h-.21c-.15-.36-.15-.36,0-.74h.21q.14.36,0,.74Z"/>
        <path d="M24.19,163.97h.21c.15.36.15.36,0,.74h-.21c-.15-.36-.15-.36,0-.74Z"/>
        <path d="M23.83,152.71c.12-.08.2-.14.27-.19.2.1.26.41.44.58-.12.08-.2.14-.27.19-.2-.1-.27-.41-.44-.58Z"/>
        <path d="M15.6,67.35c-.15-.24-.14-.49,0-.76.08.14.14.28.22.39.07.1.09.17.06.25-.04.11-.1.15-.18.12-.03-.01-.07,0-.1,0Z"/>
        <path d="M13.9,163.96c.1.18.2.34.29.51-.03.35-.18.2-.29.23-.15-.25-.13-.49,0-.75Z"/>
        <path d="M18.36,177.98c-.15-.24-.15-.48,0-.76.07.13.13.27.2.39.06.1.09.17.07.25-.04.12-.1.15-.18.12-.03-.01-.07,0-.1,0Z"/>
        <path d="M18.14,99.06c.15.24.15.48,0,.76-.07-.13-.13-.27-.2-.39-.06-.1-.09-.17-.07-.25.04-.12.1-.15.18-.12.03.01.07,0,.1,0Z"/>
        <path d="M20.9,90.58c.14.16.1.41.11.64,0,.19-.01.35-.11.46-.14-.16-.1-.41-.11-.64,0-.19.01-.35.11-.46Z"/>
        <path d="M7.33,171.51c-.16-.35-.16-.35-.01-.73.07.12.14.24.21.35.07.09.1.17.07.25-.04.13-.09.16-.17.13-.03-.01-.07,0-.1,0Z"/>
        <path d="M17.42,71.57c-.16.29-.3.29-.44.02.01-.16-.04-.36.07-.48.05-.05.09,0,.15.11.07.13.15.23.22.35Z"/>
        <path d="M10.89,171.64s0,.09,0,.12c-.07.18-.3.18-.35,0,0-.03,0-.09,0-.12.02-.05.05-.11.07-.11.07-.02.14-.02.2,0,.03,0,.05.08.07.12Z"/>
        <path d="M13.38,168.39c-.13,0-.22-.12-.18-.24.04-.13.1-.16.17-.13.03.01.07-.02.1,0,.08.06.1.16.08.24-.02.05-.04.1-.07.12-.03.02-.07,0-.1,0Z"/>
        <path d="M23.98,118.42c.14-.26.28-.26.43,0-.14.26-.28.26-.43,0Z"/>
        <path d="M23.98,117.14c.02.14,0,.24-.07.3-.07.06-.14-.09-.14-.32,0-.06,0-.13,0-.18.01-.05.04-.1.07-.13.05-.04.1,0,.14.14.01.05,0,.12,0,.18Z"/>
        <path d="M21.22,116.76c0,.23-.07.38-.14.32-.07-.06-.09-.17-.07-.3,0-.06,0-.13,0-.18.04-.13.09-.18.14-.14.03.03.06.07.07.13.01.05,0,.12,0,.18Z"/>
        <path d="M20.9,113.08c-.15-.25-.15-.49,0-.74.15.25.15.49,0,.74Z"/>
        <path d="M16.73,67.96c-.05.19-.28.2-.35,0-.01-.03-.01-.09,0-.12.05-.19.28-.19.35,0,.01.03,0,.08,0,.12Z"/>
        <path d="M3.51,163.23c.15.25.15.49,0,.74-.15-.25-.15-.49,0-.74Z"/>
        <path d="M23.98,155.85c0,.23-.07.38-.14.32-.07-.06-.09-.17-.07-.3,0-.06,0-.13,0-.18.04-.13.09-.18.14-.14.03.03.06.07.07.13.01.05,0,.12,0,.18Z"/>
        <path d="M24.19,150.69c.15.25.15.49,0,.74-.15-.25-.15-.49,0-.74Z"/>
        <path d="M9.6,167.65c.02.14,0,.24-.07.3-.07.06-.14-.09-.14-.32,0-.06,0-.13,0-.18s.04-.1.07-.13c.05-.04.1,0,.14.14.01.05,0,.12,0,.18Z"/>
        <path d="M11.94,167.83c.14-.26.28-.26.43,0-.14.26-.28.26-.43,0Z"/>
        <path d="M4.35,168.75c.14-.26.28-.26.43,0-.14.26-.28.26-.43,0Z"/>
        <path d="M17.47,168.33s-.07-.11-.07-.12c.04-.13.09-.17.14-.12.03.03.07.1.07.12-.04.13-.09.17-.14.13Z"/>
        <path d="M6.01,176.93s-.06.12-.07.12c-.07-.07-.1-.16-.07-.24.02-.05.06-.13.07-.12.07.07.1.16.07.24Z"/>
        <path d="M19.81,89.78s-.07-.1-.07-.12c.04-.13.09-.17.14-.12.03.03.07.1.07.12-.04.13-.09.17-.14.13Z"/>
        <path d="M12.98,174.91c-.02-.08,0-.17.07-.24,0,0,.05.07.07.12.03.08,0,.17-.07.24,0,0-.05-.08-.07-.12Z"/>
        <path d="M17.01,86.4c-.02-.08,0-.17.07-.24,0,0,.05.07.07.12.03.08,0,.17-.07.24,0,0-.05-.08-.07-.12Z"/>
        <path d="M24.54,173.25s.07.11.07.12c-.04.13-.09.17-.14.12-.03-.03-.07-.1-.07-.12.04-.13.09-.17.14-.13Z"/>
        <path d="M15.26,14.83s-.05.11-.06.11c-.05-.04-.1-.09-.12-.17-.04-.15,0-.23.09-.15.04.04.07.14.1.22Z"/>
        <path d="M13.34,164.83c.02.08,0,.17-.07.24,0,0-.05-.07-.07-.12-.03-.08,0-.17.07-.24,0,0,.05.08.07.12Z"/>
        <path d="M19.08,44.34s-.05.11-.06.11c-.05-.04-.1-.09-.12-.17-.04-.15,0-.23.09-.16.04.04.07.14.1.22Z"/>
        <path d="M17.59,33.27s-.05.11-.06.11c-.05-.04-.1-.09-.12-.17-.04-.15,0-.23.09-.16.04.04.07.14.1.22Z"/>
        <path d="M18.11,71.83s.1,0,.14.13c0,.01-.04.09-.07.12-.04.05-.1,0-.14-.12,0-.01.04-.08.07-.12Z"/>
        <path d="M18.56,145.15c.1.18.2.34.29.51-.03.35-.18.2-.29.23-.15-.25-.13-.49,0-.75Z"/>
        <path d="M12.95,90.94c0,.23-.07.38-.14.32-.07-.06-.09-.17-.07-.3,0-.06-.01-.13,0-.18.04-.13.09-.18.14-.14.03.03.06.07.07.13.01.05,0,.12,0,.18Z"/>
      </g>
      <g>
        <path d="M7.72,83.61c.11-.04.25-.09.36-.13.07.05.09.09.07.17-.04.14-.02.19.15.15.05-.01.1-.03.12,0,.04.07.15.02.24,0,.05.05.09.09.14.14.07-.02.14-.03.21-.05,0,.07-.09.13-.12.19-.09.19-.15.37-.14.53,0,.05.05.08.01.17-.08.07-.16.16-.24.24-.01.02-.01.05-.02.08.07.07.14.14.22.22.05,0,.11-.02.19-.04-.03.13-.06.26-.09.38.08,0,.14-.08.2-.13.07-.05.14-.04.17,0,.03.05-.01.12-.02.19,0,.06.04.11.1.1.09-.02.18-.05.28-.07.13-.13.25-.25.37-.37.1-.03.2-.05.29-.07-.02.09-.05.18-.08.29-.07.07-.16.15-.23.23-.02.03-.02.07-.02.1.07,0,.15-.03.19-.01.05.02.08.05.17.02.04-.04.08-.08.12-.12.1-.02.19-.05.28-.07.03.02.05.04.08.07-.01.06-.03.13-.05.2.02.02.05.05.07.07.07-.02.14-.03.21-.05.05.05.1.1.14.13.18-.04.34-.08.5-.12.05-.05.09-.09.13-.12.08-.02.15-.04.22-.07.12-.12.25-.24.32-.32.28-.07.51-.13.77-.2.03.03.08.08.12.12.04,0,.06-.01.08-.02.06-.02.1-.02.1,0,0,.05-.03.09-.08.13-.07.06-.13.12-.2.2.01.05.03.1.04.14.12,0,.23-.03.35-.09.02-.02.05-.04.06-.06.05-.09.08-.18.13-.27.06-.06.13-.12.21-.2.19-.05.4-.11.62-.17.08-.08.16-.16.24-.24.08-.02.15-.04.22-.07.12-.12.25-.24.34-.34.19-.06.36-.11.51-.15.1.11.1.11-.06.29-.07.02-.13.04-.21.06-.04.04-.08.08-.13.13-.02.08-.04.17-.06.28.04.04.08.08.14.14.05,0,.11-.02.19-.04.02.02.05.04.08.06.13-.03.27-.06.4-.09.03.02.06.04.08.07.12-.03.24-.07.35-.09.04,0,.07.02.09.05.01.03,0,.08,0,.12-.04.04-.08.08-.12.12-.14.04-.28.05-.4.12-.1.1-.18.18-.22.22-.05.13-.08.22-.1.3.09.09.16.16.23.23.1-.03.19-.04.29-.08.06-.03.12-.15.19-.13.07.01,0,.11,0,.18.04.04.09.09.14.13-.01.07-.03.14-.04.21.02.02.04.05.06.08.13-.03.27-.06.4-.09-.02.14-.17.22-.26.33-.07.02-.14.04-.21.06-.09.08-.1.09-.21.15-.08-.07-.17-.15-.25-.22-.07.02-.14.05-.16.04-.08-.08-.22-.04-.36,0-.01,0-.04.02-.05.04-.01.02-.03.06-.02.07.14.15.29.29.44.44.35-.09.7-.18,1.05-.27.02,0,.04-.02.07-.04.04-.04.08-.08.13-.1.06-.04.09-.03.11.02.06-.06.11-.12.18-.17.03-.02.1-.04.1-.02.02.03-.02.08-.06.12-.04.03-.08.07-.12.09-.05.03-.08.02-.1-.02-.06.06-.13.12-.2.2.01.05.02.1.03.14.03,0,.05.01.07,0,.28-.07.56-.14.84-.21.04-.04.08-.08.13-.12.07-.02.14-.04.2-.06.02-.07.04-.14.06-.2.05-.04.09-.08.13-.12.09-.02.19-.05.28-.07.05.05.1.1.15.14.07-.02.14-.03.2-.04.08.08.15.15.22.22,0,0-.01.04-.02.08-.16.16-.32.32-.51.5-.07.02-.16.05-.26.07-.06.01-.11-.03-.1-.1,0-.04.02-.09.04-.14-.1-.01-.2.02-.32.08-.19.19-.38.37-.56.56-.03.03-.04.09-.06.13.02.04.1.05.05.14-.01.01-.03.03-.05.04-.21.06-.42.11-.65.17.01-.06.02-.12.04-.2-.07-.06-.14-.14-.21-.21,0,0-.04,0-.06,0-.02,0-.04.03-.05.04-.05.19-.1.37-.15.56-.17.16-.33.33-.55.55-.09,0-.22.02-.33.03-.15.18-.36.28-.42.49.09-.03.19-.06.31-.11,0,0,.05-.04.12-.1.11-.03.25-.06.39-.1.11-.08.18-.23.33-.27.07.04.13.09.2.13.06-.02.11-.03.16-.04.07.07.14.14.22.21.14-.03.28-.06.42-.1.03.04.1.05.04.16-.07.07-.15.15-.25.24-.05.02-.12.04-.19.06-.04.03-.08.07-.13.12-.07.02-.14.03-.21.06-.02,0-.04.04-.06.06.05.05.09.1.15.14.03.02.05.05.02.11-.02.03-.06.05-.12.06-.02,0-.05.01-.09.02-.11.11-.24.23-.36.35-.05.05-.04.14,0,.16.03.02.07,0,.12,0,.18-.03.18-.02.15.15,0,.02-.02.05-.02.07,0,.05.05.1.11.09.05,0,.16-.1.18-.15.03-.07.04-.14.06-.18.1-.1.18-.18.25-.25.27-.08.28-.09.36-.35.11-.16.3-.26.39-.44.02-.18-.25-.14-.19-.36.04-.04.08-.08.13-.14.01-.08.03-.17.05-.28-.04-.09-.04-.12-.01-.26-.02-.09-.15-.09-.13-.21.01-.02.02-.05.04-.07.25-.25.5-.49.71-.7.13-.04.23-.07.32-.1.08.08.15.15.22.22.07-.02.14-.03.21-.04.07.07.15.14.21.21.08-.01.15-.03.2-.04.11.09.18.22.29.27.09,0,.17-.03.21-.01.05.02.09.05.17.01.04-.04.08-.08.08-.07.27-.07.5-.13.74-.19-.04.06-.09.12-.13.18-.15.04-.28.08-.42.12-.02.07-.04.13-.06.19-.11.03-.2.06-.29.08-.05-.05-.1-.1-.15-.15q-.2.09-.27.33s-.08.08-.14.15c-.01.07-.03.16-.04.27.04,0,.09-.01.16-.02.01.07-.02.16-.05.25-.02.06-.1.13-.14.19-.03.04-.03.09-.04.15-.06.02-.13.04-.19.06-.04,0-.07,0-.11,0,.01-.05.03-.1.04-.14-.05-.11-.13-.2-.25-.24-.05.01-.1.03-.14.03-.14,0-.27.21-.41.2-.01,0-.05.02-.07.04-.07.06-.12.12-.12.19.02.02.05.05.07.07.07-.02.14-.03.21-.05.12.12.24.24.38.37.07-.05.13-.09.23-.16.03-.01.1-.03.18-.05.04-.04.08-.08.12-.12.07-.02.14-.04.22-.06.04-.04.08-.08.12-.12.1-.02.19-.05.28-.07-.06.23-.13.46-.2.71-.06.05-.14.14-.21.21-.1.06-.13.02-.17-.01-.06-.04-.18.06-.24,0-.01-.01-.02-.02-.03-.03-.25.06-.48.12-.72.19-.01.03-.03.1-.05.17-.04.04-.08.08-.12.12-.07.02-.14.04-.2.06-.04.04-.08.08-.1.1-.07.26-.14.49-.21.73.05.02.1.03.15.05.1-.1.18-.18.26-.26.07-.02.14-.04.22-.06.08-.08.16-.16.24-.24.07-.02.14-.04.22-.06.04-.04.08-.08.12-.11.08-.02.15-.04.21-.06.05-.04.09-.08.13-.12.09-.02.19-.05.28-.07.07-.02.14-.04.21-.05.09-.02.19-.03.28-.07.13-.06.15.1.29.01.08-.08.16-.16.24-.24.17-.04.33-.09.49-.12.02,0,.03.02.04.03.06-.06.11-.12.17-.16.06-.04.13-.06.18-.04.05-.04.07-.04.09-.05.01,0,.04,0,.04,0,0,.05-.02.08-.06.09-.05.02-.08.01-.09-.03,0,0,.03-.04.03-.03-.08.08-.14.15-.2.19-.06.04-.13.06-.15,0-.06.06-.13.12-.25.25,0,.08-.02.21-.02.28-.09.14-.13.2-.18.26.08.08.15.15.24.23.08-.02.18-.05.29-.09.06-.06.14-.14.22-.22.07-.02.14-.05.22-.07.04-.13.08-.26.11-.39.13-.13.26-.25.38-.37.1-.03.19-.05.29-.07.02.02.05.05.07.07.07-.02.14-.03.21-.05.04.03.05.1.16.04.05-.05.11-.1.17-.16.11-.11.13-.16.06-.23-.04-.04-.06-.09-.1-.09-.07,0-.17.07-.19.01-.02-.07.08-.13.14-.19.04,0,.09-.01.12,0,.16.04.2.04.43-.11.08-.05.14-.05.21-.08.09-.04.17-.16.27-.15.02.02.04.04.07.07.07-.02.14-.03.2-.04.02.03.07.05.06.08-.03.16-.07.32-.1.45-.08.07-.12.11-.16.15-.26.07-.52.13-.77.2-.04.04-.08.08-.13.12-.09.14.09.15.01.28-.04.04-.08.08-.12.12-.14.07-.14-.1-.28-.01-.04.04-.08.08-.12.12,0,.02-.02.05-.02.07.01.03.04.05.06.08,0,.01,0,.04,0,.06-.01.05-.02.09-.04.14.02.02.05.05.07.07-.05.21-.1.41-.15.6.09.04.09.17.24.11.04-.04.08-.08.1-.09.33-.08.63-.16.93-.24.1.09.19.19.29.29,0,0-.01.04-.02.07-.04.04-.08.08-.11.12-.12.08-.14-.04-.22-.02-.13.03-.21.02-.27-.05-.08-.08-.1-.07-.28.09-.07.02-.14.04-.2.06-.14.13-.27.25-.4.37-.02.01-.05.01-.07.02-.05-.05-.1-.09-.15-.15.01-.06.03-.13.04-.2-.02-.02-.05-.05-.07-.07-.07.02-.14.03-.22.05-.12-.12-.24-.24-.37-.36,0,0-.05.01-.07.02-.02.02-.04.03-.06.05-.08.08-.12.16-.09.19.06.06.13.12.18.18.02.02,0,.08,0,.12-.04.04-.08.08-.12.12-.02.07-.04.14-.06.2-.07.02-.14.04-.22.07-.04.06-.09.13-.15.21.14-.03.25-.07.36-.09.09-.02.18-.04.27-.05.04.07.13.05.23.02.1.08.25.05.42-.03.15-.12.25-.32.45-.38.03.02.05.04.08.07-.02.07-.03.13-.05.2.07.07.15.14.22.22-.02.07-.03.14-.05.2.11.09.11.09.29-.07.04-.13.08-.27.12-.41.06-.05.11-.14.21-.14.04.04.09.09.14.14.2-.05.41-.1.61-.15.03.03.06.05.08.06.17-.04.34-.08.49-.11.07-.07.14-.13.2-.19.04-.05.09-.08.18-.07.1-.04.03.22.23.1.02-.06.04-.13.07-.19.13-.03.25-.06.37-.09.04-.04.08-.07.13-.12.06-.02.13-.04.21-.06.08-.08.16-.16.24-.24.07-.02.14-.04.22-.06.08-.08.16-.16.24-.24.08-.02.15-.04.21-.06.05-.04.09-.08.1-.09.2-.06.36-.11.55-.18-.07.1-.12.16-.15.22-.04.02-.06.03-.08.03-.05.01-.09.02-.14.04-.02.18-.02.18.22.13.05.07.23.05.13.24-.05.01-.09.02-.14.04-.11.05-.17.13-.19.23.07.07.15.15.22.22-.02.07-.03.14-.05.2.12.11.12.12.12.23-.14.04-.27.08-.41.11-.04.04-.08.08-.12.12-.08.02-.14.04-.23.07-.04.06-.09.13-.14.19.06.06.11.1.16.16.06-.01.13-.03.2-.04.02.02.05.05.07.07.07-.01.13-.03.2-.04-.06.2-.26.3-.39.45-.02.06-.04.13-.05.15-.08.16-.25.23-.28.36.04.12.13.2.29.27.28-.07.6-.15.94-.24.03.02.06.06.03.14-.03.07-.02.13.04.16.16,0,.34-.07.52-.13.05-.04.1-.08.1-.08.13-.05.22-.08.32-.11-.03.11-.05.2-.08.3-.04.04-.08.08-.13.13-.02.08-.04.17-.06.3.05.05.13.12.19.2.02.02-.01.08-.02.13-.08.08-.16.16-.23.23-.03.08-.05.14-.07.2-.2.05-.39.1-.58.15-.16.16-.33.32-.49.49-.04.04-.02.15.02.16.02,0,.04,0,.05.01.12-.03.23-.06.37-.09.03.03.07.07.1.1q.06.06-.07.23s-.03.04,0-.01c-.08.23-.14.39-.18.53.04.05.06.08.07.1-.02.1-.04.19-.07.28-.18.18-.18.18-.15.2.04.03.12-.01.19-.02.05.04.09.09.15.14-.02.1-.02.21-.1.33-.09.1-.24.18-.24.32.03.02.05.04.08.07.09-.01.19-.07.24,0,.03.05.13-.01.18-.01.07,0,.14.03.2.05.06-.06.1-.1.18-.18.09.16.33.03.52,0,.02.02.05.05.07.07.07,0,.14-.05.2-.12.1-.12.21-.19.37-.2-.01-.18-.13-.24-.23-.32-.13.06-.21.03-.28-.02-.12.03-.24.06-.35.09-.01,0-.03-.01-.04-.02-.03-.02-.05-.05-.07-.07-.05-.04-.05-.11,0-.16.04-.04.09-.09.13-.1.16-.05.33-.09.47-.12.04.03.06.07.1.06.09-.01.19-.04.26-.06.08-.06.13-.15.22-.15.06.04.13.09.2.13.06-.02.11-.03.16-.04.07.07.14.14.22.21.14-.03.28-.06.41-.09.03.03.05.05.07.07-.02.13-.1.27-.08.36.1-.01.19-.03.26-.03.07-.06.11-.1.13-.11.18-.05.35-.1.51-.15-.04.17-.09.34-.13.5-.09.08-.17.16-.25.25-.02.02-.01.05-.02.07.09.02.2-.02.31-.07.16-.1.1-.22.19-.33.11-.1.21-.21.31-.31.02-.02.04-.03.07-.04.05-.01.09-.02.14-.04.04-.04.08-.07.13-.12.02-.06.04-.13.07-.21.05-.05.11-.11.17-.17.02-.02.04-.05.06-.06.04-.01.1-.03.12-.02.09.04.05.14-.03.22-.19.18-.38.37-.56.55-.02.07-.04.14-.06.2-.17.17-.34.33-.5.49-.08.03-.15.05-.23.07-.04.07-.09.13-.13.19.03.03.06.06.09.08-.05.16-.09.32-.14.49-.03.03-.07.07-.11.11-.14.09-.15-.09-.28-.01-.04.04-.08.08-.14.14-.06-.02-.13-.03-.2-.05-.35.09-.7.18-1.06.27-.02,0-.04.04-.06.06.04.04.07.07.11.11.33-.08.66-.17.99-.25.07.07.14.14.21.21.28-.04.56-.15.8-.18.06.06.11.11.15.15-.02.06-.03.11-.04.15.01.02.05.03.1-.01.09-.07.17-.16.24-.23.11-.03.2-.05.29-.07-.01.07-.03.13-.04.2.03.03.05.05.07.07.26-.07.52-.13.78-.2-.05.21-.29.32-.38.46-.04.12-.07.21-.09.3.03.03.06.05.08.08.14-.01.27-.23.41-.2.04-.04.08-.08.13-.12.13-.04.27-.08.41-.11.13-.13.25-.25.35-.35.09-.17.07-.29.15-.44.13-.12.24-.25.38-.35.05-.01.09-.02.14-.04.25-.19.44-.45.69-.63.1-.02.19-.04.28-.06.05.05.1.1.15.14.1-.03.18-.06.24,0,.03.03.12,0,.21-.01.17.11.28.31.47.42.07-.02.11-.03.17-.04-.03.13-.06.26-.09.39.03.03.05.05.07.07.14-.03.29-.09.43-.08,0,.04.02.09.03.14-.1.1-.18.18-.28.27-.06-.02-.13-.03-.2-.05-.12.03-.23.06-.35.09-.05-.02-.05-.09-.15-.05-.02.01-.04.02-.06.04-.11.09-.18.22-.33.24-.13.02-.27.2-.41.2-.06,0-.14.03-.21.05-.04.16-.08.32-.13.5.09-.03.18-.06.31-.1-.02.01,0,0,.02-.02.16-.13.16-.12.23-.07.05.04.07.13.21.07.05-.05.11-.11.17-.17.11-.11.15-.11.23-.05.04.03.08.06.09.07.2-.04.36-.07.49-.09.08-.07.12-.1.16-.14.09-.02.19-.05.28-.07.02.04.1.05.04.17-.12.12-.25.26-.4.42-.06.25-.13.5-.19.76-.1.08-.18.23-.32.25-.01,0-.03-.02-.04-.03-.03-.02-.05-.05-.07-.07-.08-.07-.17-.03-.27.13-.01.02-.01.05-.02.07.1.1.2.19.29.29,0,0,0,.04-.01.07-.14.18-.32.32-.48.49-.03.03-.04.09-.06.13.04.03.05.09.18.03.12-.11.26-.26.4-.4.15-.14.29-.29.44-.43.03-.03.09-.03.13-.04.04.05.09.1.13.15,0,.01-.01.04-.02.07-.16.16-.33.32-.49.48-.02.07-.04.14-.07.22-.08.07-.16.16-.24.24-.02.02-.02.05-.02.07,0,.03.04.04.09,0,.21-.15.21-.15.28-.08.01.01.02.02.04.04.08.06.12.05.23-.05.14-.14.29-.28.42-.41.03-.08.05-.15.06-.19.11-.04.2-.07.29-.1-.02.08-.03.15-.04.21q.4.39.41.52s-.08.08-.12.13c-.07.02-.14.04-.21.06-.06.06-.12.12-.19.18.06.06.12.12.18.18.16-.04.33-.08.5-.13.04-.04.08-.08.12-.12.02-.07.04-.13.06-.2.04-.04.08-.08.12-.12.1-.02.19-.05.28-.07.11.08.11.08-.03.25-.02.02-.03.04-.02.02-.04.13-.08.22-.1.3.06.06.11.11.17.16.06-.04.13-.09.19-.13.23-.06.46-.12.73-.18.05.05.12.12.19.19.03.03-.04.14-.1.19-.07.06-.14.05-.21.08-.1.05-.17.13-.18.23.02.03.04.05.06.07-.01.07-.02.13-.04.19.2-.05.38-.1.57-.15.01,0,.03.01.04.03.03.02.05.05.07.07.08.07.12.05.27-.12.03-.08.05-.14.07-.2.09-.09.18-.16.24-.23.07-.02.12-.03.16-.04.11-.09.21-.18.32-.27.18.04.22.22.37.28.26-.07.52-.13.78-.2-.03.09-.06.18-.09.29-.05.02-.12.04-.19.06-.02.06-.04.13-.06.2-.05.06-.14.11-.14.19.11.02.26-.05.39-.07.07.07.15.14.22.22.14-.03.28-.06.41-.09.04.04.07.08.16.05.07-.03.14-.04.21-.05.04-.04.09-.08.13-.12.09-.02.19-.05.28-.07-.01.04,0,.08-.03.11-.07.08-.16.16-.23.23-.14.04-.26.07-.38.1-.02.02-.05.03-.06.05-.12.12-.14.27-.02.24.12-.03.21-.03.29.04.25-.07.51-.14.76-.21-.02.14-.17.22-.27.34-.15.04-.31.07-.47.12-.19.05-.36.07-.55.15-.17.15-.14.27-.17.41.07-.05.14-.1.25-.18.05,0,.14-.02.25-.04.05.04.13.07.28,0,.04.04.1.09.14.14.01.02-.02.07-.03.1-.07.02-.14.05-.2.07-.09.12-.25.19-.25.33.03.03.05.05.07.07.07-.02.14-.03.21-.05.07.07.15.14.23.22.07-.05.13-.09.23-.16.04-.01.11-.03.18-.05.04-.04.08-.08.12-.12.07-.02.14-.04.21-.06.04-.04.08-.08.12-.13q.05-.19.14-.21s.05.04.08.07c.07-.01.13-.03.2-.04-.02.07-.03.13-.04.2.13.03,0,.19.03.25.06.06.11.11.15.14.07,0,.16-.06.18,0-.03.09-.05.18-.07.26-.05.05-.09.1-.12.13-.03.1-.05.19-.08.28.03.03.05.05.08.07.11.01.22-.19.35-.16.01.04.03.08.05.13-.03.04-.05.06-.07.08-.12.14-.13.18,0,.14.13-.04.15.08.28.03.14-.05.28-.08.42-.11.02,0,.05-.01.07-.02.03.03.05.05.08.07-.02.04-.03.1-.07.13-.06.07-.11.13-.1.19.05.05.1.1.14.14.18-.04.34-.08.5-.11.05-.05.09-.09.13-.13.1-.02.19-.05.28-.07.03.02.05.04.08.07.06-.01.14-.03.2-.04.02,0,.03.02.07,0,.05-.04.07-.04.09-.05.01,0,.04,0,.04,0,0,.05-.02.08-.06.09-.05.02-.08.01-.09-.03,0,0,.03-.04.03-.03-.09.09-.15.15-.21.21-.02.07-.02.15-.06.2-.16.18-.16.17-.07.28.06-.01.13-.03.2-.04-.03.13-.06.26-.09.38.07-.01.13-.02.19-.03-.03.11-.07.2.01.24.12,0,.27-.06.41-.09.02.02.05.05.07.07-.03.13-.06.26-.09.38.1.02.15-.07.23-.14.07-.01.17-.03.27-.05.05.05.15.06.27,0,.03.02.05.04.08.07-.03.13-.06.27-.09.39.08.08.15.15.23.23.06-.04.13-.09.2-.13.04-.15.08-.28.12-.42.04-.04.08-.08.14-.14.07.02.13.03.2.05.12-.03.23-.06.35-.09.02.02.05.05.07.07-.02.07-.03.14-.05.2.03.02.06.04.08.06.07-.01.14-.03.21-.04.05.05.1.09.13.13.08-.01.15-.02.22-.03.06.1.13.17.3.09.02,0,.04,0,.05.02.05.06.13.05.23-.06.06-.06.12-.12.17-.17.11-.03.21-.05.3-.08-.02.07-.03.14-.04.19.08.08.15.15.22.22.19-.05.38-.1.57-.15.03.02.06.04.08.06.26-.04.28-.06.49-.22.23-.06.49-.12.74-.18.04-.04.09-.08.12-.11.07-.02.14-.04.22-.07.08-.08.16-.16.24-.23.03,0,.06-.02.08-.02.14-.02.27-.21.41-.2.01,0,.05-.03.06-.04.09-.11.18-.1.27-.13.04-.04.08-.08.13-.12.07-.02.14-.04.21-.06.04-.04.08-.08.12-.12.35-.09.7-.18,1.05-.27.02,0,.04,0-.06,0,.16.03.22.05.26.06.06-.05.1-.1.14-.13.07-.02.14-.04.21-.06.08-.08.16-.16.25-.24.12,0,.23-.07.34-.18.26-.06.51-.13.77-.19.04-.04.08-.08.12-.12.07-.02.14-.04.23-.07.09-.17.21-.11.36-.21.05-.05.13-.13.21-.2.06-.02.11-.03.15-.04.11-.08.22-.17.29-.29.01-.05.02-.09.04-.14.02-.02.03-.04.05-.06.12-.15.12-.16.06-.22-.03-.04-.07-.07-.1-.1.11-.23-.02-.27-.13-.33-.05.01-.09.02-.14.04-.09-.03-.13-.11-.19-.16-.08-.06-.12-.17-.24-.18-.05.01-.1.02-.15.04-.05-.05-.09-.09-.14-.14-.07.02-.14.03-.21.05-.05-.05-.1-.09-.15-.15-.18.05-.37.1-.56.14-.01,0-.02-.02-.03-.03.03-.09.06-.18-.03-.22-.05,0-.12.02-.2.04-.04-.04-.09-.09-.15-.14.01-.06.03-.13.04-.19-.07-.07-.15-.14-.22-.22-.07.02-.14.03-.2.04-.1-.1-.2-.2-.29-.29.02-.08.03-.14.04-.21-.54-.53-1.08-1.06-1.61-1.59,0-.07.06-.15.01-.18-.12.03-.23.06-.35.09-.03-.02-.05-.04-.08-.07.01-.06.03-.13.05-.2-.05-.05-.1-.1-.14-.14.02-.07.03-.14.04-.2-.32-.32-.64-.63-.96-.94-.14.03-.29.09-.42.08-.04-.05-.08-.1-.12-.14.02-.07.03-.11.05-.17-.07-.07-.14-.14-.22-.22-.05,0-.11.02-.19.04-.02-.02-.05-.04-.08-.06.03-.13.06-.26.09-.39-.07.01-.14.03-.19.04-.13-.13-.25-.25-.37-.37.02-.06.03-.1.04-.17-.08-.12-.19-.22-.31-.3-.07.02-.11.03-.18.05-.06-.06-.14-.14-.21-.21-.09-.08-.17-.17-.26-.25-.08-.07-.12-.17-.24-.18-.05.01-.1.02-.15.04-.05-.05-.1-.09-.14-.14-.07.02-.14.03-.21.05-.1-.1-.2-.19-.29-.29-.07.02-.14.03-.2.04-.05-.05-.1-.1-.15-.14.01-.08.03-.14.04-.2-.13-.13-.25-.24-.36-.36.06-.26.06-.27-.13-.24-.08.01-.12,0-.15-.04-.15.04-.29.08-.39.11-.07-.07-.12-.12-.17-.17-.07.02-.14.03-.2.04-.13-.02-.01-.18-.05-.26-.05.01-.09.02-.14.04-.16-.05-.2-.23-.37-.27-.05.01-.09.02-.15.04-.24-.24-.49-.48-.73-.72-.07.01-.14.03-.21.04-.29-.29-.59-.58-.88-.87-.07.02-.14.03-.21.05-.07-.07-.15-.14-.22-.21-.07.02-.14.03-.21.05-.12-.12-.24-.24-.36-.35-.08.01-.15.03-.2.04-.13-.12-.25-.25-.36-.35-.1.01-.16.02-.22.03-.08-.08-.18-.13-.08-.32-.06.01-.13.02-.2.04-.02-.02-.04-.04-.07-.07-.07.02-.14.03-.21.05-.17-.17-.34-.34-.51-.5-.07.02-.14.03-.21.04-.22-.22-.44-.43-.66-.65-.14.06-.23.05-.28-.03-.02-.03-.06-.04-.09-.05-.05.01-.09.02-.15.04-.13-.06-.2-.18-.3-.27-.09-.08-.17-.17-.26-.25-.1-.09-.17-.22-.3-.26-.06.01-.1.03-.16.04.01-.06.02-.12.04-.19-.09-.09-.19-.19-.29-.29-.02,0-.04,0-.06.01-.05.01-.09.02-.14.03-.03-.03-.05-.05-.07-.07.01-.05.03-.1.04-.14,0-.02,0-.04,0-.06-.1-.08-.1-.08-.22.01-.14.11-.15.11-.22.05-.04-.03-.06-.08-.09-.11.06-.26.05-.26-.22-.2-.04-.04-.09-.09-.15-.15.03-.12.06-.26.09-.39-.03-.03-.05-.05-.07-.07-.07.02-.14.03-.21.04-.05-.05-.1-.1-.14-.14-.13.03-.24.06-.39.1.03-.13.07-.26.1-.39-.05-.05-.1-.1-.15-.14.01-.07.03-.13.04-.2-.07.01-.14.03-.21.04-.05-.05-.1-.09-.14-.14-.22.1-.27-.02-.33-.13.01-.05.02-.09.04-.14-.04,0-.07,0-.11,0-.09.03-.11-.01-.15-.05.01-.06.03-.13.04-.2-.11-.01-.21.19-.33.17q-.12-.12-.12-.23c.07-.02.13-.04.2-.06,0-.02.02-.04.02-.06,0-.02,0-.04,0-.05-.03-.04-.07-.08-.11-.11-.09-.08-.15-.19-.27-.23-.05.01-.1.02-.17.04-.16-.16-.33-.33-.5-.5,0,0,0-.04,0-.06.01-.05.02-.09.04-.14-.02-.03-.04-.05-.07-.09-.08.03-.17.06-.29.1-.01.04-.04.1-.06.16-.01,0-.04.03-.05.03-.1,0-.15-.07-.28-.02-.1.03-.12-.05-.08-.17.12-.12.25-.24.37-.37.02-.02.01-.05.03-.09-.13.03-.27.07-.4.1l-.07-.07c-.12.03-.23.06-.35.09-.05.01-.05-.02-.02-.08.08-.11.23-.18.27-.32-.03-.11-.12-.16-.2-.23-.09-.08-.15-.19-.32-.24-.2.05-.46.12-.71.18.06-.12.06-.11.13-.18.06-.06.11-.12.16-.18-.04-.12-.04-.12-.16-.11-.17.02-.18.01-.15-.15,0-.02.01-.05.02-.08-.09-.09-.19-.19-.3-.29-.05,0-.12.02-.19.04-.02-.02-.05-.04-.08-.06-.11-.02-.22.18-.33.17-.05-.05-.1-.1-.15-.15q.09-.2.34-.27c.04-.12.04-.13-.28-.39-.05.01-.09.02-.14.04-.18-.07-.24-.28-.43-.35-.1.04-.19.06-.23-.02-.14.04-.28.08-.39.11-.24-.24-.47-.46-.68-.67-.07.02-.14.03-.21.05-.12-.12-.24-.24-.36-.35-.08.01-.15.03-.22.04-.04-.1-.16-.13-.19-.24.01-.05.02-.09.04-.14,0-.02,0-.04-.01-.05-.1-.1-.2-.19-.29-.29-.02-.02-.03-.06-.05-.1.05-.17.1-.36.15-.54-.05-.05-.1-.1-.15-.15-.1.02-.19.05-.3.08-.16.16-.32.32-.49.48-.02.02-.05.02-.07.03-.12-.02-.16-.12-.24-.19-.09-.07-.15-.18-.27-.23-.02,0-.05,0-.07.02-.06.03-.1.02-.09-.02,0-.02,0-.05.03-.07.08-.08.16-.16.23-.23.09-.03.15-.05.23-.07.07-.11.23-.18.25-.33-.17-.17-.34-.34-.52-.51-.13.03-.27.06-.41.09-.02-.12-.19,0-.24-.04.02-.1.03-.19.04-.27.18-.19.18-.19.09-.3.01-.06.03-.13.04-.2-.02-.02-.05-.05-.07-.07-.07,0-.13.06-.2.11-.06.05-.14.06-.23.1-.06.06-.14.14-.22.22-.07.02-.14.04-.21.06-.06.02-.1.03-.1,0,0-.05.03-.09.08-.13.06-.04.09-.09.08-.13,0-.02-.07,0-.1,0-.02,0-.05.01-.07.02-.01,0-.03-.01-.04-.02-.05-.05-.05-.11,0-.16.04-.04.09-.09.13-.1.19-.06.38-.1.56-.15,0-.02.02-.04.02-.06,0-.02,0-.04,0-.05-.02-.03-.05-.05-.07-.07-.11-.09-.17-.21-.3-.27-.05.01-.1.03-.15.04-.15-.06-.19-.24-.36-.27-.06.01-.1.03-.16.04-.05-.05-.09-.09-.14-.14-.07.02-.14.03-.21.05-.05-.05-.1-.09-.14-.14-.07.02-.14.03-.2.04-.1-.1-.2-.2-.29-.29.02-.07.03-.14.04-.21-.07-.07-.15-.14-.21-.21.05-.2.1-.38.15-.57-.07-.07-.14-.14-.22-.21.02-.07.03-.14.05-.21-.02-.02-.05-.05-.07-.07-.07.02-.14.03-.2.05-.02-.03-.05-.05-.06-.08.01-.07.03-.14.04-.21-.05-.01-.1-.03-.15-.04-.05.05-.1.09-.14.14-.02.07-.04.13-.06.2-.04.04-.08.08-.14.14-.05-.01-.1-.03-.14-.04-.14.04-.28.07-.38.1-.12-.12-.22-.22-.32-.32.02-.09.05-.18.07-.28.16-.17.2-.19.28-.12.03.02.04.06.08.07.03.01.08,0,.12,0,.04-.04.08-.08.13-.13.02-.08.04-.17.06-.28-.16-.16-.33-.33-.5-.5.01-.07.03-.14.04-.21-.02-.02-.04-.05-.07-.08-.07.01-.13.03-.2.05-.1-.1-.2-.19-.29-.29.02-.07.03-.14.05-.21-.32-.31-.64-.63-.96-.94.03-.12.06-.24.09-.35-.04-.07-.09-.15-.01-.29-.05-.05-.09-.09-.15-.15-.05,0-.12.02-.19.04.01-.06.03-.13.04-.19-.02-.02-.05-.05-.07-.07.02-.07.03-.14.04-.19-.05-.05-.1-.1-.15-.14-.08.01-.15.03-.19.03-.06-.06-.11-.11-.14-.14.01-.08.02-.15.03-.2-.07-.09-.18-.13-.2-.26.05-.09.05-.17-.03-.21-.06.01-.12.03-.2.04-.09-.09-.19-.19-.29-.29.01-.06.03-.13.04-.2-.17-.17-.34-.34-.51-.5.02-.07.03-.14.05-.21-.07-.07-.15-.14-.21-.21.01-.08.03-.14.04-.2-.12-.11-.23-.22-.34-.33-.01-.01-.01-.03-.02-.05.06-.25.05-.25-.22-.19-.22-.21-.44-.43-.67-.65.01-.05.02-.12.04-.19-.07-.07-.14-.14-.22-.21-.06.01-.13.03-.2.04-.1-.1-.2-.19-.27-.27-.14-.02-.3.08-.41.05.01-.05.02-.09.04-.14-.11-.02-.26.05-.39.07-.02-.02-.05-.05-.08-.08.03-.08.05-.18.09-.3.03-.05.15-.12.12-.21-.19.05-.37.1-.56.14-.01,0-.04-.01-.04-.02-.03-.05-.1-.05-.17,0-.07.05-.12.12-.2.12-.02-.02-.05-.05-.07-.07.01-.07.03-.13.04-.2-.03-.03-.05-.05-.07-.07-.19.05-.38.1-.57.14-.02,0-.03,0-.05-.02q-.11-.05-.29.1c-.09.02-.19.05-.28.07.01-.07.03-.13.04-.2-.03-.02-.05-.04-.08-.06-.07.01-.14.03-.21.04-.27-.27-.54-.53-.78-.76-.21.04-.37.06-.51.09-.14.14-.27.26-.39.38-.12,0-.23.07-.34.18-.12.03-.24.06-.37.09-.04.13-.08.27-.11.4-.04.04-.08.08-.12.12-.26.07-.52.13-.78.2-.04,0-.16.14-.15.18,0,.04.01.07.04.09.06.06.23-.07.28.03.01.02.08,0,.12,0,.09-.02.19-.05.28-.07-.04.13-.04.13-.26.32-.13.04-.22.08-.3.11-.06-.06-.11-.11-.14-.14-.18.04-.34.07-.5.11-.03.11-.05.2-.08.3.05.05.1.09.15.14.06-.01.13-.03.2-.04-.02.09-.05.18-.07.28-.04.04-.08.08-.12.13-.02.06-.04.13-.06.2-.12.12-.25.24-.38.37-.02.09-.05.18-.06.27,0,.04.04.06.05.08.11-.01.22-.03.34-.09.17-.16.32-.34.5-.47.09-.02.18-.04.27-.06,0,.03,0,.06-.02.08-.16.16-.33.33-.51.5-.05.02-.12.04-.19.06-.04.04-.08.08-.12.12-.07.02-.14.04-.21.06-.04.05-.08.09-.12.13-.02.09-.05.18-.07.28.02.02.05.05.07.07-.02.05-.03.09-.06.13-.03.04-.09.09-.13.1-.09.03-.18.05-.28.07-.05-.05-.1-.1-.14-.14-.03,0-.06.02-.08.02-.04,0-.07,0-.1,0,.01-.05.03-.1.04-.14,0-.12-.12-.12-.24,0-.06.06-.12.12-.18.17-.03.1-.05.2-.08.29.05.06.05.06.06.16-.13.13-.27.27-.39.4-.02.07-.02.12-.04.16-.05.1-.17.18-.24.16-.03-.01-.05-.06-.08-.05-.18.07-.24,0-.31-.08-.04-.04-.11,0-.18.07-.19.19-.38.37-.56.56-.01.01-.02.05-.02.07,0,.01.02.02.03.02.05,0,.09-.02.16-.04.04.04.1.08.14.14.01.02-.02.07-.03.1-.1.03-.19.06-.28.09-.03-.03-.06-.05-.09-.09-.06.04-.13.09-.19.13-.03.08-.05.15-.07.22-.06.02-.13.04-.2.06-.04.04-.08.08-.12.12-.07.02-.14.04-.2.06-.03.1-.05.19-.07.28.02.02.05.05.07.07.07-.02.14-.03.2-.05.03.04.09.06.04.16-.32.32-.65.64-.99.97-.02.07-.04.14-.07.22-.16.03-.32.07-.48.1,0-.02,0-.07.04-.1.07-.09.15-.17.23-.25.02-.02.01-.05.02-.07-.02-.02-.05-.05-.07-.07-.09.02-.19.05-.29.08-.07.07-.16.15-.25.25-.14.03-.27.07-.41.11-.02,0-.05.01-.07.02-.08.02-.12-.1-.05-.18.05-.06.13-.12.13-.2-.02-.03-.04-.05-.07-.08.01-.06.03-.13.05-.2-.09.02-.19.05-.3.08-.24.23-.49.48-.74.73-.02.02-.02.04-.03.08.04.06.09.13.14.2-.03.12-.07.24-.09.35,0,.04.03.06.06.09.06-.01.13-.03.2-.04.02.02.05.04.08.06.07-.01.13-.03.2-.04-.02.07-.03.13-.04.2.02.03.04.06.07.08-.01.05-.03.09-.04.14-.01.04.02.05.09.02.08-.08.17-.16.25-.24q.17-.01.14.15c-.12.12-.25.24-.37.36q-.06.19-.15.22s-.05-.05-.07-.07c-.21.05-.42.1-.56.13-.1-.02-.15-.03-.2-.05-.1.1-.18.18-.26.26-.07.02-.14.04-.2.06-.09.09-.17.17-.25.25-.03.1-.05.19-.07.29.02.02.05.05.07.07.16-.04.33-.08.51-.13.05-.03.1-.12.17-.12.04,0,.07.02.09.04.04.03.06.08.09.12,0,.01-.01.04-.02.07-.05.06-.16.12-.14.19.02.05.11,0,.17-.01.03.02.05.04.09.06.13-.03.27-.06.41-.09.07.07.15.14.22.21.07-.02.14-.03.2-.04.09.11.09.11-.08.28-.13.04-.27.08-.41.12,0,.16,0,.16.18.22.07-.05.13-.09.2-.14.12-.03.23-.06.35-.09.04-.04.09-.07.14-.12.06-.02.13-.04.2-.06.15-.04.18-.02.15.15-.01.07,0,.11.04.16.01.02-.01.07-.02.11-.05.01-.09.02-.14.04-.06.02-.16.11-.18.16-.03.12-.06.23-.09.35-.04.01-.09.04-.11.03-.06-.04-.1-.09-.14-.13-.23.06-.44.11-.66.17-.02,0-.04.02-.08.04-.03.05-.08.12-.12.18.08.08.16.15.27.26.09-.04.24-.1.31-.13.11.03.16.04.21.05.1-.1.18-.18.27-.27.09-.02.18-.04.28-.06.04.08-.09.15-.14.23-.03.11-.06.23-.09.36-.06.02-.12.04-.21.07-.04.04-.1.1-.17.16-.09.09-.09.09-.05.22,0,.03.01.07,0,.12-.02.06-.02.09.02.09.09-.03.18-.06.22.03-.01.05-.02.12-.04.2.09-.03.18-.06.31-.11,0,0,.05-.04.09-.08.17-.08.32-.09.49-.14.06.08-.08.15-.12.22.03.13-.18.27-.2.4.05.05.1.09.16.16.07-.02.16-.06.26-.08.11-.03.23-.05.34-.07.04.07.13.04.23.02.1.09.26.04.42-.03.04-.04.09-.07.07-.06.22-.07.38-.13.52-.18.02.1-.07.15-.13.22-.07.02-.14.04-.21.06-.14.14-.29.29-.44.43.04.04.07.07.13.13ZM9.88,81.11s.04,0,.04,0c0,.05-.02.08-.06.09-.05.02-.08.01-.09-.03,0,0,.03-.04.05-.05-.22.12-.2.07-.2.06.04-.02.08-.04.11-.04.06,0,.05.05-.02.08-.03.02-.07.01-.1.01.23-.13.25-.14.27-.14ZM40.51,99.61c.1-.1.15-.11.21-.05.02.02.05.04.07.07.06-.06.12-.12.19-.19.09-.02.18-.05.28-.07.03.09-.07.15-.15.22-.1,0-.24.11-.32.04-.02.02-.04.05-.05.05-.1.03-.21.06-.31.08-.02,0-.02-.02-.03-.03-.16.07-.15.01-.14,0,.04-.02.08-.04.11-.04.06,0,.05.05-.02.08-.03.02-.07.01-.1.01.19-.1.23-.14.27-.18ZM32.1,96.12c.09-.02.18-.05.28-.07.13.09.12.12-.08.29-.09.04-.11-.01-.15-.04-.08-.01-.2.08-.25,0-.14.09-.14.08-.35.11.08-.16.09-.18.25-.21.03.03.07.07.1.1.06-.06.12-.12.19-.19ZM31.11,96.37c-.04.13-.08.27-.11.4-.16.03-.2-.07-.23-.17,0-.01.01-.05.03-.06.03-.04.08-.08.11-.12.03-.05.02-.09,0-.11-.03-.02-.05-.05-.07-.07-.07-.08-.05-.12.12-.27.09-.02.19-.05.28-.07.02.02.05.05.07.06.08.01.2-.08.25,0,.06-.06.12-.12.18-.18.07-.02.14-.04.21-.06.04-.04.08-.08.12-.12.09-.02.18-.05.27-.07.08.02.12.06.06.18-.04.04-.08.08-.12.11-.25.06-.49.13-.78.2-.08.08-.23.22-.37.37ZM29.06,97.08s-.02.05-.02.07c0,.01.02.02.03.02.12-.03.23-.06.35-.09.03.02.05.04.08.06-.02.04-.02.1-.05.13-.12.12-.23.26-.39.26-.16.15-.31.19-.47.2-.01-.01-.03-.02-.04-.04,0-.01-.03-.03-.02-.04.11-.19-.09-.23.01-.42.02-.04.03-.09.04-.13.12-.03.23-.06.35-.09.06-.05.13-.1.19-.14.06-.04.09-.02.11.02.08-.07.1-.07.12-.07.01,0,.04,0,.04,0,0,.05-.02.08-.06.09-.05.02-.08.01-.09-.03,0,0,.03-.04.05-.05-.12.12-.18.17-.24.24ZM10.46,79.42c-.01.06-.03.13-.04.19.19-.05.37-.1.56-.14.08.03.15.08.17.18-.04.13-.19.2-.26.31-.02.07-.04.14-.06.21-.05.04-.09.08-.13.12-.12.03-.23.06-.35.09-.15.11-.19.13-.35.18-.05.05-.11.11-.17.17-.08.08-.15.11-.19.09-.04-.03-.07-.07-.04-.15,0-.02.01-.05.02-.07-.1-.04-.25.05-.38.07-.07-.07-.14-.14-.22-.22-.16.04-.32.08-.48.13-.04.01-.08.07-.13.11-.02.06-.04.13-.07.2-.04.04-.07.08-.12.13-.22.05-.45.1-.69.15,0-.05.02-.11.04-.18-.05-.05-.1-.1-.14-.14.02-.09.05-.19.07-.29.16-.16.33-.32.5-.5.13-.04.27-.07.4-.11.05-.04.09-.08.12-.12,0-.03.03-.06.02-.07-.06-.08-.14-.15-.2-.23-.01-.02.02-.07.03-.11.19-.05.37-.1.57-.15.08-.07.16-.16.25-.24.09-.02.19-.06.27-.07.04,0,.07.02.09.04.01.03,0,.08,0,.11-.07.02-.14.04-.2.06-.04.05-.08.09-.12.13-.02.09-.05.18-.07.28.02.02.05.05.07.07.1.01.17-.12.26-.15.07-.03.13-.03.21-.08.24-.15.24-.15.43-.11.02,0,.03.01.05.01.05,0,.15-.07.16,0,0,.04-.02.09-.04.14.06-.01.13-.02.19-.04ZM24.13,86.54s.09-.02.15-.04c.18-.13.32-.31.49-.46.04-.03.09-.04.13-.06.05.05.1.1.15.14,0,.06-.02.09-.07.11-.07.02-.13.01-.2.09-.02.02-.04.04-.07.07-.02.06-.04.13-.06.21-.03.03-.08.07-.11.11-.04.08-.01.12.01.17.02.04,0,.12-.01.22,0,.04.07.08.12.12.03.03.09,0,.19-.08.02-.02.04-.04.06-.05.11-.01.23-.06.33-.17.1-.03.19-.05.28-.08.05.05.1.1.15.15-.02.14-.17.21-.26.33-.2.05-.4.11-.61.16-.02.07-.04.14-.06.2-.16.17-.15.17-.11.24.07.12.02.19-.2.29-.02-.02-.05-.05-.07-.07-.33.09-.65.17-.98.26-.12-.12-.24-.24-.37-.36-.07.01-.14.03-.21.04-.02-.02-.05-.04-.08-.06-.07.01-.13.03-.2.05.01-.14.17-.21.25-.33.21-.07.42-.11.63-.17.21-.2.42-.41.62-.61.04-.13.05-.26.12-.4ZM27.39,90.87s-.08.08-.08.13c0,.03.04.03.1,0,.02,0,.05-.01.07-.02.06.07.23.05.13.24-.09.02-.19.05-.28.07-.02-.02-.05-.05-.07-.07-.07.02-.14.03-.21.05-.05-.05-.1-.1-.14-.14-.07.02-.14.03-.2.05-.02-.03-.05-.05-.07-.08.01-.07.03-.14.04-.19-.02-.03-.04-.06-.06-.09.02-.09.05-.18.07-.28.04-.04.08-.08.15-.15.02-.11.04-.24.06-.35.19-.18.19-.17.27-.13.09.05.09.05.23-.06.02-.02.04-.03.06-.04.1-.03.19-.05.28-.08.08.07.15.15.22.22.07-.02.14-.03.2-.05.12.12.25.24.38.37-.04.06-.08.12-.13.19-.25.07-.53.22-.67.06-.14.14-.24.25-.35.34ZM29.07,91.68c-.14-.03-.27.18-.41.2-.02-.02-.05-.05-.08-.08.03-.08.05-.17.09-.29.07-.08.17-.19.15-.3.11-.11.22-.21.32-.31q.11-.11.23-.05s.03.01.02,0c.12-.02.21-.04.29-.05.03-.07.02-.1,0-.13-.06-.12-.06-.12.12-.27.15-.05.13.1.28.11.13-.01.35-.11.54-.12,0,.03,0,.06-.02.07-.33.33-.66.66-1.01.99-.13.04-.27.07-.4.11-.05.04-.09.08-.13.12ZM19.79,87.1c.04-.19.25-.29.37-.45.18-.08.36-.11.54-.14.04.08.13.05.24.02.12.08.22.19.3.29,0,.09-.03.17-.01.21.02.05.05.08.02.16-.08.08-.17.16-.25.24-.15.06-.16-.07-.24-.11-.05,0-.12.02-.2.04-.07-.06-.14-.14-.23-.22-.12.04-.26.09-.38.13-.07-.07-.12-.12-.17-.16ZM39.72,102.51s.02-.11.1-.19c.06-.06.12-.12.19-.18.04-.04.08-.07.13-.11.05-.01.09-.02.14-.04.01,0,.03-.02.05-.04.03-.11.06-.23.09-.34.05-.07.1-.13.17-.16.05-.02.08,0,.1.03,0,.02.02.03.04.04.03.02.05.04.07.06.07-.01.14-.03.21-.04.05.05.1.09.14.14.07-.01.13-.02.19-.03-.03.15-.18.22-.27.33-.07.02-.14.04-.21.06-.12.12-.24.24-.37.36-.02,0-.05.02-.07.02-.21.05-.42.11-.62.16-.03-.02-.06-.03-.08-.06ZM25.09,92.05c.02-.07.04-.16.06-.25.02-.02.03-.05.04-.05.12-.03.23-.06.35-.09.04-.04.08-.07.13-.12.06-.02.13-.04.21-.06.03-.03.08-.07.13-.13.08-.02.17-.03.3-.06.08.02.11.14.2.17,0,.11-.02.22-.08.33-.02,0-.06.02-.07.02-.08-.07-.15-.14-.23-.2-.03-.02-.08,0-.11.04-.03.11-.06.23-.1.36-.07.07-.15.15-.23.23-.03.02-.07.02-.11.03q.04-.18-.12-.14c-.07.02-.14.04-.22.06-.04-.04-.09-.09-.15-.15ZM8.18,79.26c-.09.02-.19.05-.28.07-.03-.02-.05-.04-.1-.07-.14.05-.3.1-.53.18-.07.07-.22.2-.35.33q-.1,0-.15-.06s0-.05.02-.07c.11-.13.23-.25.37-.4.01-.04.04-.11.06-.18.12-.14.25-.29.42-.39.02,0,.05-.02.06,0,.03.02.05.05.06.07-.01.07-.03.13-.04.19.05.05.1.1.15.15.1-.03.19-.05.29-.07.08-.08.16-.16.24-.24.05-.04.09-.04.1,0,0,.02,0,.05-.02.07-.08.08-.16.16-.25.24-.02.07-.04.13-.06.2ZM38.78,100.03s.06-.05.12-.06c.02,0,.05-.01.07-.02.07-.02.14-.04.21-.05.04-.04.08-.08.13-.11.07-.05.1-.03.09.06-.08.08-.16.16-.25.24,0,.02-.02.05-.02.07.02.12.14.14.18.23.05,0,.09,0,.13,0,.15-.02.17-.01.14.15-.08.08-.17.16-.25.24-.1.02-.19.05-.29.07-.05-.04-.09-.09-.15-.15.01-.05.03-.12.04-.19-.04-.04-.09-.09-.14-.14.02-.07.03-.14.05-.2-.02-.04-.1-.05-.05-.14ZM40.62,103.65c.04-.16.08-.32.13-.48.23-.05.45-.11.7-.17,0,0,.04.03.07.05-.02.08-.04.17-.06.25-.05.11-.15.17-.22.25-.2.12-.36.09-.53.17-.04-.03-.06-.06-.08-.08ZM20.64,89.92s-.13.01-.21.02c-.04-.04-.09-.08-.15-.15.04-.13.1-.3.16-.48.06-.02.15-.04.23-.07.03.02.07.02.1.04.1.09.2.19.3.29.01.01.01.03.02.05-.03.14-.2.2-.25.3-.1.04-.13,0-.18-.02ZM9.95,81.44c.07-.07.15-.15.23-.23.01-.06.02-.1.04-.15.03-.07.1-.16.16-.16.12-.02.23-.11.34-.18.02-.01.04,0,.06,0-.11.17.05.21,0,.35-.2.2-.41.4-.64.63-.07.01-.16.03-.26.05-.02-.07.03-.18.08-.3ZM43.65,103.8c.05-.05.09-.09.13-.13.11-.04.19,0,.15.09-.04.13.02.18.03.27,0,.02-.01.04-.02.07-.12.12-.24.24-.37.36-.19.02-.23-.12-.31-.22.02-.1.04-.19.06-.27.05-.05.09-.09.14-.14.06-.01.12-.02.18-.03ZM41.87,100.68s-.03-.02-.04-.03c-.09-.05-.22,0-.27.13-.02.05-.02.09-.04.14-.05.1-.13.17-.23.18-.02-.02-.05-.05-.08-.07.1-.23.35-.36.49-.56.08-.03.15-.05.23-.08q.21-.16.33-.08c.09-.02.19-.04.28-.07.06-.02.1-.02.1,0,0,.05-.03.09-.08.13-.07.06-.12.12-.19.18-.16.04-.32.08-.49.12ZM8.76,81.31c.07-.02.13-.04.21-.06.08-.08.16-.16.24-.24.17-.03.17-.03.16.14-.12.12-.24.24-.37.36-.02.07-.04.13-.06.2-.04.04-.08.08-.12.12-.07.03-.12.02-.16-.02-.04-.04-.12.02-.18.02-.09,0-.12-.06-.08-.16.12-.12.25-.24.37-.36ZM40.69,103.08c-.1.03-.17.04-.23.08-.07.04-.12.12-.21.12-.05-.05-.11-.11-.17-.17q-.06-.06.07-.23s.05-.04.06-.04c.28-.07.56-.14.88-.23-.11.22-.3.32-.39.46ZM23.31,86.38s-.04-.05-.07-.09c.04-.06.08-.12.18-.26,0-.06.03-.2.05-.3.08-.08.12-.12.16-.16.09-.02.19-.05.29-.07-.01.06-.02.12-.04.2.03.03.07.07.1.1.07.07,0,.21-.14.27-.05.02-.09.03-.16.04-.15.12-.23.27-.37.27ZM9.11,78.21s-.09.08-.12.11c-.17.05-.33.09-.5.13.02-.05.03-.1.07-.14.1-.11.21-.21.31-.31.11-.08.23-.03.33-.18.12-.04.23-.09.35-.08,0,.04.02.09.03.14-.1.1-.18.18-.26.26-.07.02-.14.04-.21.06ZM10.78,82.08c.02-.07.04-.13.06-.2.17-.16.33-.33.5-.49.02-.01.05-.02.07-.02.03,0,.03.04,0,.1-.01.02-.04.04-.06.06-.1.11-.1.11-.02.21-.01.11-.03.21-.09.33-.02.02-.04.05-.06.06-.19.11-.36.11-.53.15,0-.09.08-.14.14-.21ZM10.36,84.38s-.08.08-.12.12c-.15.06-.18-.11-.35,0-.03-.02-.05-.04-.08-.06-.06.01-.13.03-.2.04,0-.06.05-.12.11-.18.07-.07.05-.13.08-.2.05-.1.13-.17.23-.17.03.02.05.05.07.07-.02.07-.03.14-.04.2.03.02.06.04.08.06.13-.03.28-.09.42-.08,0,.04.02.09.03.15-.08.02-.15.04-.22.06ZM45.17,105.78q-.17.01-.14-.15s.08-.08.12-.12c.02-.07.04-.14.06-.19.09-.09.18-.17.25-.25.1-.03.2-.05.29-.07.01.11-.19.21-.17.33.04.04.09.09.14.14,0,.06-.02.1-.07.11-.12.03-.23.06-.35.09-.04.04-.08.08-.12.12ZM42.15,102.07c.08-.02.18-.05.27-.07.04,0,.07.02.09.05.01.03,0,.08,0,.12-.04.04-.08.08-.12.12-.05.01-.1.02-.14.04-.02,0-.05.02-.08.03-.12.11-.24.24-.35.35-.1.05-.13,0-.19-.06.02-.07.05-.16.09-.25.02-.05.11-.14.17-.16.05-.02.09-.02.14-.04.04-.04.08-.07.14-.12ZM26.02,88.8c-.02.08-.04.17-.06.25-.07.08-.12.05-.18.09-.09.05-.16.15-.27.16-.06,0-.13.03-.18.04-.06-.06-.11-.1-.15-.14,0-.09.08-.15.14-.21.14-.09.15.09.28.01.04-.04.08-.08.12-.12.09-.02.19-.05.29-.07ZM49.88,107.33c-.05-.05-.1-.1-.15-.15,0-.07.06-.13.12-.19.06-.07.05-.13.08-.2,0-.01.03-.03.04-.04.02,0,.05-.02.06-.01.12.12.24.23.36.35,0,0,0,.04-.01.09-.19.05-.35.1-.5.14ZM24.85,90.47s-.08.08-.12.12c-.16.05-.31.1-.41.02,0,0-.04,0-.07.02-.06.02-.09.02-.09,0,0-.05.03-.08.08-.13.06-.06.12-.12.19-.19.08-.02.17-.04.31-.07.05.08.16.09.11.24ZM24.66,89.79c.08-.02.17-.04.28-.06.09.03.14.12.21.19.02.02,0,.07,0,.11-.16.06-.31.1-.41.02-.02-.02-.09.03-.13.03-.04,0-.07-.02-.09-.05-.01-.03,0-.08,0-.11.04-.04.08-.08.13-.13ZM47.04,105.02q.03-.08.22-.14c.08-.08.16-.16.26-.26.08-.01.17-.03.27-.05.02.07-.02.17-.07.28-.05.01-.1.01-.14.04-.07.04-.13.11-.19.14-.09.04-.19.06-.26.09-.04-.05-.06-.07-.08-.1ZM21.96,90.2s-.07-.06-.11-.09c-.08-.08-.08-.1.1-.27.09-.02.18-.05.28-.07.03.03.07.06.11.09.08.08.08.1-.1.27-.09.02-.18.05-.28.07ZM11.85,84.36c-.09.04-.19.05-.3.08.04-.07.08-.13.12-.19.06-.03.11-.05.15-.06.14-.04.28-.07.4-.1.09.13.09.15-.08.29-.12.09-.15-.07-.28-.02ZM42.6,101.13c-.07-.04-.14-.08-.16-.17,0-.08.09-.13.14-.19.08-.03.12-.02.16.02.04.04.12,0,.18-.02.01,0,.03.01.03.02-.02.09-.04.17-.06.26-.11.03-.2.05-.29.07ZM47.22,103.98c.11.09.11.09-.12.21-.02.01-.05.03-.06.05-.1.1-.17.13-.23.06-.04-.05-.12,0-.19.01-.04,0-.05-.03-.01-.09.03-.04.08-.08.12-.12.16-.04.33-.08.49-.12ZM39.09,101.65s.06.06.08.08c-.08.18-.08.18-.25.24-.07-.07-.14-.14-.22-.21.06-.17.06-.17.24-.25-.02.07-.03.13-.05.2.07-.02.14-.04.19-.06ZM42.89,102.7s0,.08-.02.1c-.12.12-.24.24-.36.36-.17.01-.17.01-.14-.15.08-.08.16-.16.24-.24.09-.02.18-.05.28-.07ZM30.04,95.46s0-.05.02-.07c.02-.03.06-.05.12-.06.13-.02.28-.09.42-.08,0,.04.02.09.03.15-.18.05-.35.09-.51.13-.02-.02-.05-.05-.07-.07ZM48.37,105.26c.11-.08.21-.05.3-.1.03.03.05.05.08.08-.02.1-.08.18-.18.22-.09.04-.18.05-.27.08.03-.1.05-.19.07-.28ZM32.33,99.27c.13-.03.13.09.21.13,0,.05-.02.1-.05.11-.16.04-.31.08-.47.12q.08-.16.32-.36ZM47.78,105.76s-.1-.09-.14-.14q.07-.18.25-.25l.14.14q-.07.18-.25.25ZM49.53,107.75c-.14.1-.24.07-.35.13-.04-.05-.12-.07-.04-.18.17-.04.32-.08.49-.13-.04.07-.08.13-.11.18ZM23.82,91.19c.14-.03.15-.01.15.15-.13.03-.27.06-.4.1-.06.02-.09.02-.09-.02,0-.05.03-.09.08-.13.02-.02.04-.04.06-.06.07-.02.13-.04.2-.05ZM28.4,96.52s-.04,0-.07,0c0-.04-.02-.09-.04-.17.18-.04.33-.07.49-.1.01,0,.02.01.03.02,0,.05-.02.09-.08.12-.02.02-.04.04-.08.08-.07.01-.16.03-.25.05ZM11.73,85.12c.05.08-.07.15-.13.21-.07.02-.14.04-.2.05-.13.03-.15.01-.14-.15.16-.04.31-.08.47-.12ZM11.08,80.26s.07.08.11.1c.03.02.05.05.02.1-.02.04-.05.05-.11.06-.07.01-.14.04-.19.06-.03-.03-.06-.06-.08-.08q.07-.17.25-.25ZM38.26,99.86c.02-.07.04-.13.06-.2.04-.14.07-.17.25-.24.02.02.05.05.09.09-.15.17-.23.31-.41.35ZM33.41,98.53s.07.08.11.11c.03.02.05.05.02.1-.02.04-.05.05-.11.06-.07.01-.14.04-.19.06-.03-.03-.06-.06-.08-.08.03-.14.12-.21.25-.25ZM12.32,72.73q.16-.01.15.14s-.08.08-.12.12q-.16.02-.15-.14s.08-.08.12-.12ZM23.26,88.95c-.09.04-.18.05-.27.08.02-.11.08-.19.18-.24.09-.04.18-.05.27-.08-.02.11-.08.19-.18.23ZM11.69,83.95c-.06.05-.12.15-.19.13-.06-.01,0-.1.01-.16,0-.02.01-.04.02-.07,0-.02.01-.04.02-.06.16,0,.16,0,.14.15ZM38.89,102.44s-.11-.05-.05-.14c.05-.07.12-.05.18-.08.02,0,.05-.01.07-.02.02,0,.04,0,.06,0-.08.17-.08.17-.25.24ZM31.59,95.52c.02-.07.05-.13.06-.2.01-.06.03-.09.06-.11.05-.03.09-.02.1.02,0,.02.02.02.03.04-.03.13-.11.21-.26.25ZM30.54,96.98s.03.04,0,.09c-.08.08-.16.16-.24.24-.02,0-.05.02-.07.02-.03,0-.03-.04,0-.09.08-.08.16-.16.24-.24.02,0,.05-.02.07-.02ZM29.49,88.02c-.03-.05-.13-.06-.02-.18.09-.02.18-.05.27-.07-.03.13-.12.21-.25.25ZM31.34,96.77c.05.08-.07.15-.13.22-.14.04-.18-.02-.15-.15.1-.02.19-.05.28-.07ZM19.72,86.29s.11.05.05.14c-.05.07-.12.05-.18.08-.02,0-.05.01-.07.02-.02,0-.04,0-.06,0,.08-.17.08-.17.25-.24ZM15.77,83.28c-.07.02-.13.03-.2.05-.06.02-.09.02-.09-.01,0-.05.03-.09.08-.13.02-.02.04-.04.06-.06.16-.01.16-.01.15.15ZM26.13,79.08s.03,0,.03.02c.01.06-.13.2-.2.2-.01,0-.02-.01-.03-.02,0-.07.13-.2.21-.21ZM21.96,89.2s-.02-.08.06-.15c.02-.02.04-.05.06-.06.02-.01.05-.02.07-.02.03,0,.03.04,0,.09-.01.02-.04.04-.06.06-.04.05-.08.08-.13.08ZM33.53,95.76c.09-.04.17.04.12.12,0,.01-.03.03-.04.04-.02,0-.05.02-.06.01-.03-.02-.05-.04-.07-.07,0-.01,0-.04.02-.07.01-.01.03-.03.04-.04ZM48.03,108.35c.14-.04.19,0,.15.15-.14.04-.19,0-.15-.15ZM48.13,105.12c.03-.13.11-.22.25-.25-.03.13-.11.22-.25.25ZM16.23,85.08s.02-.09.06-.1c.02-.01.06-.02.06-.02,0,.05-.02.09-.06.1-.02,0-.06.02-.06.02ZM16.29,83.42s-.02.09-.06.1c-.02.01-.06.02-.06.02,0-.05.02-.09.06-.1.02,0,.06-.02.06-.02ZM28.97,82.2s-.04.02-.06.02c-.03,0-.04-.03,0-.09,0,0,.04-.01.06-.02.03,0,.03.03,0,.09ZM28.68,92.97s.06-.02.06-.02c0,.05-.02.09-.06.1-.02.01-.04.01-.07.02,0-.05.02-.09.06-.11ZM31.93,90.5s.06-.02.06-.02c0,.05-.02.09-.06.1-.02,0-.04.01-.07.02,0-.05.02-.09.06-.11ZM31.49,92.08c.06-.03.09-.03.09,0,0,.02,0,.06-.02.06-.06.03-.09.02-.09,0,0-.02.01-.06.02-.06ZM37.86,101.79s.04-.02.06-.02c.03,0,.04.03,0,.09,0,0-.04.01-.06.02-.03,0-.03-.03,0-.09ZM31.12,94.55s0,.04-.02.06c-.02.04-.06.06-.11.06,0,0,.01-.04.02-.06.02-.04.06-.06.11-.06ZM39.91,99.99s0,.04-.02.06c-.02.04-.06.06-.11.06,0,0,0-.04.02-.06.02-.04.06-.06.11-.06ZM44.42,104.51s.06-.02.06-.02c0,.05-.02.09-.06.1-.02.01-.04.01-.07.02,0-.05.02-.09.06-.11ZM31.04,97.31s.04-.02.06-.02c.03,0,.04.03,0,.09,0,0-.04.01-.06.02-.03,0-.03-.03,0-.09ZM44.2,106.3c-.06.03-.09.03-.09,0,0-.02,0-.06.02-.06.06-.03.09-.02.09,0,0,.02-.01.06-.02.06ZM45.87,106.43s.06-.02.06-.02c0,.05-.02.09-.06.1-.02.01-.04.01-.07.02,0-.05.02-.09.06-.11ZM24.51,83.61s0-.04.02-.06c.02-.04.06-.06.11-.06,0,0,0,.04-.02.06-.02.04-.06.06-.11.06ZM35.31,94.49s0,.04-.02.06c-.02.04-.06.06-.11.06,0,0,.01-.04.02-.06.02-.04.06-.06.11-.06ZM20.47,87.65s-.04.02-.06.02c-.03,0-.04-.03,0-.09,0,0,.04-.01.06-.02.03,0,.03.03,0,.09Z"/>
        <path d="M3.02,75.18c-.12.12-.25.24-.36.36-.08.02-.15.05-.2.06-.14.14-.26.26-.36.36-.04.12-.07.21-.09.3.03.03.05.05.08.08-.03.14-.09.28-.09.42.04,0,.1.02.14.03.06-.05.1-.1.14-.14.09-.02.19-.05.28-.07.01,0,.03.01.04.02.09.05.12.05.23-.06.06-.06.12-.12.16-.16.03-.11.06-.21.09-.3-.08-.08-.15-.15-.22-.22,0,0,.01-.04.02-.09.2-.06.4-.1.61-.16.12-.12.25-.24.36-.36.08-.02.15-.05.21-.07.09-.11.24-.19.26-.33-.05-.05-.1-.09-.14-.14-.24.06-.47.12-.71.18-.07.07-.16.15-.24.23-.07.02-.14.04-.21.06ZM2.4,76.16c.03-.13.11-.22.25-.25-.03.13-.11.22-.25.25Z"/>
        <path d="M13.78,88.71c-.09.09-.18.17-.25.25-.09.04-.11-.02-.16-.03-.05-.01-.13.02-.21.03-.09-.09-.19-.19-.29-.29-.02-.11.18-.21.17-.32-.02-.02-.05-.05-.07-.07-.07.02-.14.03-.2.05-.1-.11-.1-.11.06-.27.04-.04.08-.08.16-.16.11-.01.24-.03.34-.04.13-.13.22-.21.31-.31.05.01.1.02.14.03,0,.14-.06.28-.09.42.07-.01.13-.03.2-.04.03.03.05.05.06.06-.06.25-.11.48-.17.69Z"/>
        <path d="M2.87,74.66c-.09-.09-.19-.19-.28-.28-.07.02-.14.03-.2.05-.03-.02-.05-.05-.08-.07-.14.02-.21.17-.32.25-.11.05-.22.08-.31.07,0-.02,0-.05.02-.07.2-.2.41-.41.64-.63.13-.03.29-.06.49-.1.09.05.16.17.28.26.05,0,.12-.02.2-.03.04.04.09.08.14.14,0,.08-.03.19-.08.28-.17.04-.33.08-.5.13Z"/>
        <path d="M6,75.95c0-.12.02-.25.18-.41.04-.04.04-.12.06-.17.06-.02.11-.03.17-.04.02-.06.03-.12.06-.18.04-.09.19-.2.23-.16.06.05.12.05.22.02.08-.02.08.05.14.05.06,0,.14-.04.19-.02.05.01.07.07.04.15-.2.2-.41.4-.61.6-.23.05-.45.11-.69.16Z"/>
        <path d="M25.91,95.68c-.25.07-.48.13-.71.19.02-.14.17-.22.28-.36.11,0,.24-.02.38-.03.04-.15.06-.24.09-.34-.02-.03-.04-.05-.06-.09-.13.03-.27.06-.41.09-.03-.04-.09-.05-.05-.15.02-.01.04-.03.05-.03.24-.06.47-.12.72-.18.1-.06.2-.16.33-.18.08-.01.16-.16.26-.15.02.02.05.05.07.07q-.03.09-.22.14c-.08.08-.16.16-.25.25-.08.13.09.13.02.27-.17.16-.33.33-.48.48Z"/>
        <path d="M32.95,101.53c.1-.1.21-.2.32-.31.08-.02.17-.04.28-.06,0,.05-.02.1-.03.18.06.06.14.13.22.21.05,0,.11-.02.2-.04.02.02.06.06.09.09.06.06.05.12-.05.22-.02.02-.04.04-.06.06-.04.04-.08.08-.12.11-.02,0-.06.02-.07.02-.04-.03-.08-.06-.12-.09-.03-.02-.06-.04-.09-.04-.07,0-.13.09-.19.14-.02,0-.05.02-.07.02-.06-.04-.11-.08-.18-.14.04-.12.1-.25.14-.38-.1-.02-.22.08-.26,0Z"/>
        <path d="M30.19,99.31c-.11-.11-.22-.22-.33-.32.02-.04.02-.1.06-.13.1-.11.2-.21.32-.32.02-.05.04-.12.07-.2q.22-.24.35-.29s.05.05.07.07c-.02.1-.05.19-.08.29-.07.07-.16.15-.24.24-.02.02-.01.07-.02.1.24-.06.24-.06.22.13-.14.14-.29.29-.43.43Z"/>
        <path d="M35.07,102.13s-.05-.05-.07-.07c-.07.02-.14.03-.21.05-.02-.02-.05-.05-.07-.07-.07.02-.14.03-.2.04-.02-.03-.04-.05-.07-.08.03-.13.16-.21.26-.31.03-.03.1-.05.12-.03.08.06.15.14.21.2.18-.04.34-.08.5-.13.04-.04.08-.08.13-.12.09-.02.18-.05.28-.07,0,.03,0,.08-.02.11-.07.08-.16.16-.24.24-.12.01-.24.06-.34.18-.09.02-.19.05-.28.07Z"/>
        <path d="M1.63,75.1c.27-.07.5-.13.74-.19.02.11.19-.01.23.02-.01.11-.03.19-.04.27-.19.05-.35.1-.51.14-.03-.03-.05-.05-.08-.07-.1.02-.19.05-.28.07-.04.04-.08.08-.17.15-.06,0-.15.03-.24.04-.01,0-.02-.02-.02-.03,0-.02,0-.05.03-.07.12-.12.25-.25.33-.33Z"/>
        <path d="M30.13,99.37c.26-.07.42-.11.6-.16.11-.11.23-.23.35-.34.02-.02.04-.02.09-.04.03.02.07.05.11.07-.02.15-.17.22-.26.33-.06.02-.13.04-.21.07-.11.11-.23.23-.34.34-.18.08-.33.1-.49.14-.01,0-.02,0-.03-.01.02-.09.04-.18.06-.27.07-.07.13-.13.13-.13Z"/>
        <path d="M8.65,74.48c-.12.04-.19.06-.25.07-.05.04-.09.1-.13.12-.23.07-.46.13-.68.19-.04-.04-.06-.06-.09-.09.04-.06.08-.12.12-.18.16-.08.29-.09.43-.13.04-.04.08-.08.13-.12.06-.02.13-.04.21-.06.03-.03.07-.08.12-.11.06-.04.11-.03.1,0-.06.14,0,.22.05.32Z"/>
        <path d="M22.86,94.45s.08-.08.14-.13c.22-.05.45-.1.68-.15,0,.02-.01.06-.04.1-.03.04-.09.09-.12.1-.12.04-.23.06-.35.09-.04.04-.08.07-.15.13-.19.05-.4.1-.59.15-.05.05-.09.09-.14.13-.09.02-.19.05-.28.07,0-.1.08-.2.17-.22.12-.03.23-.13.34-.18.12-.05.23-.06.35-.09Z"/>
        <path d="M14.4,89.19s-.1-.04-.05-.13c.02-.03.06-.05.12-.06.02,0,.05,0,.07-.02.16-.17.31-.17.47-.19.04.04.09.09.13.12.09,0,.18-.04.21-.02.06.05.14.03.23,0,.03,0,.03.04,0,.09-.09.08-.17.17-.25.24-.21.06-.17-.16-.31-.17-.18,0-.4.09-.61.12Z"/>
        <path d="M7.84,71.4c-.07.02-.14.03-.2.05-.07-.07-.15-.14-.22-.21q.07-.18.25-.25c.1.1.19.19.29.29.07-.02.13-.03.2-.05.05.05.1.09.14.14q-.07.17-.25.25c-.07-.07-.15-.14-.22-.21Z"/>
        <path d="M13.17,86.41c-.09.08-.17.16-.24.24-.15.05-.15-.08-.26-.13-.1.04-.24.08-.36.12-.04-.04-.07-.07-.09-.09,0-.06.03-.1.07-.11.28-.07.56-.15.84-.21.04,0,.07.02.08.06,0,.03-.02.08-.02.11Z"/>
        <path d="M11.8,67.64c.07-.02.14-.04.21-.06.08-.08.17-.16.24-.24.03,0,.06-.02.08-.02.09,0,.12.1.04.18-.09.09-.13.18-.14.27-.02.02-.03.04-.05.04-.16.04-.33.1-.48.1q-.07-.12.09-.28Z"/>
        <path d="M10.96,71.01c0-.1.08-.19.18-.23.16-.06.32-.09.46-.13.04.04.06.06.08.08,0,.07-.05.15-.12.19-.09.05-.18.07-.26.12-.07.05-.12.1-.19.11-.05-.05-.09-.09-.14-.14Z"/>
        <path d="M17.03,92.28s-.05-.05-.07-.07c.02-.09.05-.18.08-.29.09-.02.18-.05.26-.07.11.03.16.12.24.2.02.02,0,.08,0,.11-.16.04-.33.08-.49.13Z"/>
        <path d="M.23,76.62c.08-.08.16-.16.26-.25.06-.01.12-.02.18-.03.08-.06.13-.15.21-.15.09,0,.13.06.08.16-.02.04-.08.08-.12.12-.07.02-.14.04-.21.06-.08.08-.16.16-.24.24q-.16.02-.15-.14Z"/>
        <path d="M7.58,83.48c-.06.06-.12.12-.19.19-.09.02-.19.05-.28.06-.04,0-.06-.03-.09-.05,0-.1.04-.21.09-.34.07-.04.13-.08.19-.12.09.09.18.18.27.26Z"/>
        <path d="M14.5,85.6s-.02.09-.05.13c-.05.07-.12.11-.19.12-.07.01-.14.03-.2.05-.02-.02-.05-.05-.08-.08.02-.06.04-.12.06-.19.04-.14.07-.17.25-.24.07.07.14.14.22.21Z"/>
        <path d="M10.77,86.74s.08-.08.12-.12c.06-.02.13-.03.2-.05.14-.03.15-.01.14.15-.08.08-.16.16-.26.25-.08.01-.16.03-.27.05-.03-.06.04-.18.05-.28Z"/>
        <path d="M20.56,92.66c-.06.03-.1.03-.09,0,.02-.09.05-.17-.01-.22-.02-.01,0-.08,0-.11.04-.04.08-.08.12-.12.07-.02.14-.03.21-.05.08-.03.13-.01.15.04.01.03,0,.08-.01.12-.12.12-.24.24-.37.36Z"/>
        <path d="M12.61,68.81c.06-.02.13-.04.19-.06.03.03.05.05.08.08-.03.13-.11.22-.25.25-.02-.02-.05-.05-.08-.08-.06.02-.13.04-.19.06-.04-.04-.07-.08-.12-.11-.03-.02-.05-.05-.02-.1.02-.04.05-.05.11-.06.07-.01.14-.04.19-.06.03.03.06.06.09.08Z"/>
        <path d="M18.77,92.01c-.02.15-.16.22-.23.31-.13.09-.23.08-.35.12-.02-.02-.05-.05-.07-.07.01-.1.08-.19.18-.23.16-.06.32-.09.47-.13Z"/>
        <path d="M12.79,87.51c-.06.01-.13.02-.18.03-.05.05-.09.09-.13.13-.11.04-.16,0-.16-.08,0-.08.09-.13.15-.2.06-.01.13-.02.18-.03.05-.05.09-.09.13-.13.11-.04.16,0,.16.08,0,.08-.09.13-.15.2Z"/>
        <path d="M2.2,78.68s-.02-.03-.04-.03c-.04-.02-.05-.05-.02-.1.03-.07.09-.14.16-.16.09-.04.18-.05.27-.07.05.05.1.09.14.14.01.02-.02.07-.04.11-.16.04-.32.08-.48.12Z"/>
        <path d="M6.48,73.39c.09-.02.18-.05.29-.07,0,.06-.02.11-.03.19,0,.1.2.08.11.25-.04.04-.08.08-.12.12q-.18,0-.13-.22c0-.12-.19-.1-.11-.27Z"/>
        <path d="M8.79,72.7s-.08.08-.13.13c-.06.01-.12.02-.18.03-.05.05-.09.09-.13.13-.14.04-.19,0-.15-.14.04-.04.08-.08.13-.13.06-.01.12-.02.18-.03.05-.05.09-.09.13-.13.14-.04.19,0,.15.14Z"/>
        <path d="M16.61,90.14c-.06.06-.12.12-.19.19-.09.02-.18.05-.28.07-.13-.09-.13-.12.08-.29.1-.02.19-.05.28-.07.04.04.07.07.11.11Z"/>
        <path d="M15.53,86.71c-.05.05-.09.09-.14.14-.06.01-.13.03-.2.05-.14.03-.15.01-.14-.15.07-.01.13-.03.19-.04.07-.07.13-.13.19-.19.04-.05.08-.08.13-.08.03,0,.03.03.01.09-.02.07-.03.13-.04.19Z"/>
        <path d="M9.27,69.84c-.07.01-.13.03-.19.04-.05.05-.09.09-.14.13-.06.01-.13.02-.2.05-.06.02-.09.02-.09-.01,0-.05.03-.08.08-.13.06-.05.12-.12.2-.19.08-.02.17-.04.26-.05.04,0,.07.02.08.04.01.03,0,.07,0,.12Z"/>
        <path d="M24.92,95.85c-.07-.07-.15-.14-.21-.21-.01-.01.02-.07.03-.11.09-.02.18-.05.28-.07.02.02.05.05.09.09-.02.06-.05.15-.08.24-.01.04-.05.06-.11.06Z"/>
        <path d="M21.28,94.12s-.08.08-.12.12c-.18.06-.18-.07-.24-.15,0-.08.09-.13.14-.19.08-.03.13-.02.16.02.04.05.12.08.06.19Z"/>
        <path d="M5.29,73.33s-.08-.09-.12-.11c-.03-.02-.05-.05-.02-.1.02-.04.05-.05.11-.06.07-.01.14-.04.19-.06.05.04.08.09.12.11.03.02.05.05.02.1-.02.04-.05.05-.11.06-.07.01-.14.04-.19.06Z"/>
        <path d="M26.71,95.76c-.14.04-.19,0-.15-.15.04-.04.08-.08.14-.14.05-.01.12-.02.19-.04.14-.03.15-.02.15.15-.07.01-.13.03-.19.04-.05.05-.09.09-.13.13Z"/>
        <path d="M7.06,72.6s.05.05.07.07c-.08.18-.11.21-.25.25-.07.02-.14.04-.19.06-.03-.03-.06-.05-.08-.08,0-.01,0-.04.02-.07.02-.03.06-.05.11-.06.04,0,.09-.03.13-.06.02-.01.04-.05.06-.06.04-.02.09-.04.13-.05Z"/>
        <path d="M7.55,72.34s-.07-.08-.11-.1c-.03-.02-.05-.05-.02-.1.02-.04.05-.06.11-.07.07-.01.14-.04.2-.05.03.03.05.05.08.08q-.07.17-.25.25Z"/>
        <path d="M25.07,94.69c-.07.1-.11.17-.14.22-.13.08-.24.08-.35.11-.02-.04-.1-.05-.05-.14.02-.03.06-.05.11-.06.04,0,.09-.02.13-.03.09-.03.18-.06.3-.1Z"/>
        <path d="M5.58,73.61s.1.05.06.14c-.05.1-.14.19-.23.18-.07,0-.1-.08-.14-.14-.01-.02.02-.07.04-.11.09-.02.19-.05.28-.07Z"/>
        <path d="M5.37,75.13c-.03.16-.19.25-.3.35-.1.05-.1-.03-.14-.05.02-.05.02-.09.05-.13.05-.07.12-.11.19-.12.07-.01.14-.03.2-.05Z"/>
        <path d="M13.36,86.81s.09-.08.12-.12c.16,0,.17,0,.14.15-.06.06-.13.12-.18.18-.04.05-.08.08-.13.08-.03,0-.03-.04,0-.09.02-.07.04-.13.06-.19Z"/>
        <path d="M11.85,88.29c-.14.04-.18-.02-.15-.14.05-.05.09-.09.14-.14.06-.01.13-.02.19-.05.06-.02.09-.02.09.02,0,.05-.03.08-.08.13-.06.06-.12.12-.18.18Z"/>
        <path d="M14.11,88.91s.13.05.02.18c-.09.02-.18.05-.27.07-.03-.05-.13-.05-.02-.18.09-.02.18-.05.27-.07Z"/>
        <path d="M6.57,71.26s.08-.08.12-.12q.16-.02.15.14s-.08.08-.12.12q-.16.01-.15-.14Z"/>
        <path d="M2.73,79.69s-.08.08-.12.12q-.16.02-.15-.14s.08-.08.12-.12q.16-.02.15.14Z"/>
        <path d="M5.19,81.7c-.05.08-.09.15-.12.19-.14.1-.24.07-.38.14.05-.08.09-.15.12-.19.14-.1.24-.07.38-.14Z"/>
        <path d="M27.15,93.73c.14-.04.18.02.15.15-.07.02-.14.03-.21.05-.06.02-.09.02-.09-.01,0-.05.03-.09.08-.13.02-.02.04-.04.06-.06Z"/>
        <path d="M8.81,73.71c-.1.02-.19.05-.28.07-.05-.08.07-.15.13-.22.14-.04.18.02.15.15Z"/>
        <path d="M3.37,73.54c.14-.04.19,0,.15.16-.07.01-.13.02-.2.04-.06.02-.09.02-.09-.01,0-.05.03-.09.08-.13.02-.02.04-.04.06-.06Z"/>
        <path d="M19.3,88.96c-.14.04-.19,0-.15-.16.07-.01.13-.02.2-.04.06-.02.09-.02.09.01,0,.05-.03.09-.08.13-.02.02-.04.04-.06.06Z"/>
        <path d="M19.36,92.23c-.11.05-.14-.02-.19-.06-.04-.03-.06-.08-.03-.15.11-.05.14.02.19.06.04.03.06.08.03.15Z"/>
        <path d="M11.18,68.4c.16-.02.16-.02.15.14-.07.02-.13.03-.2.06-.06.02-.09.02-.09,0,0-.05.02-.09.08-.13.02-.02.04-.04.06-.06Z"/>
        <path d="M25.23,93.95c.04-.15.12-.23.26-.26.02.04.1.05.06.13-.02.04-.05.05-.11.06-.06.01-.13.04-.2.06Z"/>
        <path d="M9.05,70.44s-.02-.02-.02-.03c0-.08.14-.21.21-.2.01,0,.02.01.02.03,0,.02,0,.05-.02.06-.04.04-.08.08-.12.12-.02.01-.04.01-.07.02Z"/>
        <path d="M8.23,72.53c.08-.08.15-.1.16-.06,0,.05-.02.09-.08.13-.02.02-.04.05-.06.06-.06.03-.09.03-.09,0,0-.02,0-.05.02-.07.01-.02.04-.04.06-.06Z"/>
        <path d="M11.97,88.54c-.03.13-.11.22-.25.25.03-.13.11-.22.25-.25Z"/>
        <path d="M12.23,88.79s-.05-.05-.02-.1c.03-.05.1-.06.15-.02.01.01.03.02.03.04s0,.04-.02.07c-.02.04-.06.06-.11.05-.02,0-.02-.02-.04-.03Z"/>
        <path d="M13.93,87.26s-.04-.11.02-.14c.06-.03.09-.02.1.02,0,.02.03.02.03.04,0,.05-.02.09-.05.11-.02.01-.05.02-.07.02-.02,0-.03-.02-.04-.03Z"/>
        <path d="M14.86,87.8c.14-.04.19,0,.15.15-.14.04-.19,0-.15-.15Z"/>
        <path d="M26.36,94.26c0-.07.13-.2.21-.21.01,0,.03,0,.03.02.01.06-.13.2-.2.2-.01,0-.02-.01-.03-.02Z"/>
        <path d="M15.1,67.81c-.14.04-.19,0-.15-.15.14-.04.19,0,.15.15Z"/>
        <path d="M4.48,81.16s-.04-.11.02-.14c.06-.03.09-.02.1.02,0,.02.03.02.03.04,0,.05-.02.09-.05.11-.02.01-.05.02-.07.02-.02,0-.02-.02-.04-.03Z"/>
        <path d="M5.39,82.3c-.14.04-.19,0-.15-.15.14-.04.19,0,.15.15Z"/>
        <path d="M10.61,70.48s-.05-.05-.02-.1c.03-.05.1-.06.15-.02.01.01.03.02.03.04,0,.02,0,.04-.02.07-.02.04-.06.06-.11.05-.02,0-.02-.02-.04-.03Z"/>
        <path d="M9.19,71.8c-.03.13-.11.22-.25.25.03-.13.11-.22.25-.25Z"/>
        <path d="M13.49,67.21c-.03.13-.11.22-.25.25.03-.13.11-.22.25-.25Z"/>
        <path d="M5.82,74.92s.06-.02.06-.02c0,.05-.02.09-.06.1-.02.01-.06.02-.06.02,0-.05.02-.09.06-.1Z"/>
        <path d="M10.87,66.57s.01-.06.02-.06c.06-.03.09-.03.09,0,0,.02,0,.06-.02.06-.06.03-.09.03-.09,0Z"/>
        <path d="M20.17,91.75s.06-.02.06-.02c0,.05-.02.09-.06.1-.02.01-.06.02-.06.02,0-.05.02-.09.06-.1Z"/>
        <path d="M7.16,71.02s.03.03,0,.09c0,0-.04.02-.06.02-.03,0-.04-.03,0-.09,0,0,.04-.01.06-.02Z"/>
        <path d="M22.5,90.8s.03.03,0,.09c0,0-.04.02-.06.02-.03,0-.03-.03,0-.09,0,0,.04-.01.06-.02Z"/>
        <path d="M.66,78.07s-.06.02-.06.02c0-.05.02-.09.06-.1.02-.01.06-.02.06-.02,0,.05-.02.09-.06.1Z"/>
        <path d="M37.87,103.87s0-.05.01-.06c.04-.02.08-.04.11-.04.06,0,.05.05-.02.08-.03.02-.07.01-.1.01Z"/>
        <path d="M8.97,73.21s-.03-.03,0-.09c0,0,.04-.02.06-.02.03,0,.04.03,0,.09,0,0-.04.01-.06.02Z"/>
        <path d="M29.7,100.28s0-.05.01-.06c.04-.02.08-.04.11-.04.06,0,.05.05-.02.08-.03.02-.07.01-.1.01Z"/>
        <path d="M32.8,101.6s0-.05.01-.06c.04-.02.08-.04.11-.04.06,0,.05.05-.02.08-.03.02-.07.01-.1.01Z"/>
        <path d="M24.77,94.3s-.06.06-.11.06c0,0,0-.04.02-.06.02-.04.06-.06.11-.06,0,0,0,.04-.02.06Z"/>
        <path d="M9.82,80.12c-.1.02-.19.05-.28.07-.05-.08.07-.15.13-.22.14-.04.18.02.15.15Z"/>
        <path d="M23.99,87.54s-.04-.11.02-.14c.06-.03.09-.02.1.02,0,.02.03.02.03.04,0,.05-.02.09-.05.11-.02.01-.05.02-.07.02-.02,0-.02-.02-.04-.03Z"/>
      </g>
    </g>
  </g>
</svg>