<?xml version="1.0" encoding="UTF-8"?>
<svg id="Layer_2" data-name="Layer 2" xmlns="http://www.w3.org/2000/svg" viewBox="0 0 29.3 171.88">
  <g id="Layer_1-2" data-name="Layer 1">
    <g>
      <path d="M27.89,143.05c-.14-.13-.32-.3-.45-.43-.01-.23,0-.35.1-.46.16-.19.2-.34,0-.57-.06-.07-.11-.14-.1-.23.03-.23-.12-.32-.22-.46,0-.17,0-.36,0-.54-.08-.1-.16-.21-.23-.31.07-.13.2-.09.29-.15.26-.18.48-.43.61-.77.04-.11.03-.26.14-.35.14,0,.29,0,.44,0,.03,0,.05-.06.09-.11,0-.26,0-.53,0-.85-.05-.07-.12-.17-.2-.29.14-.19.29-.38.43-.57-.08-.15-.2-.11-.3-.14-.11-.02-.16-.19-.15-.32.02-.16.13-.22.19-.33.06-.11.06-.3,0-.38-.1-.13-.21-.26-.32-.38-.24,0-.46,0-.68,0-.12-.14-.23-.28-.33-.41.11-.13.21-.26.34-.42.13,0,.28.01.43,0,.04,0,.08-.11.11-.15-.07-.12-.16-.22-.19-.34-.03-.13-.03-.27-.14-.35-.07,0-.14,0-.21,0-.11-.14-.22-.27-.33-.4,0-.09,0-.18-.01-.28.07-.1.15-.2.23-.3,0-.09,0-.18,0-.27-.08-.1-.16-.2-.24-.31,0-.18,0-.37,0-.52-.2-.26-.38-.49-.56-.72-.09,0-.16,0-.23,0-.09-.1-.17-.19-.26-.29-.23,0-.45,0-.59,0-.32-.39-.58-.71-.88-1.07,0-.12,0-.31,0-.47-.04-.05-.06-.09-.09-.11-.08-.07-.11-.13-.08-.2.04-.09.11-.11.2-.09.11.01.23,0,.36,0,.03-.12.07-.24.1-.35-.12-.21-.24-.38-.4-.49-.04,0-.09-.02-.11,0-.12.09-.24.18-.36.28-.11,0-.23,0-.37,0-.23-.27-.47-.55-.72-.84-.15,0-.3,0-.44,0-.09-.1-.17-.19-.26-.29-.23,0-.45,0-.62,0-.23-.25-.43-.47-.61-.67.01-.41.01-.41.32-.44.08.09.16.18.25.28.07,0,.14,0,.24,0,.09-.12.19-.26.32-.43,0-.14,0-.32,0-.54-.05-.07-.12-.17-.2-.28,0-.08,0-.17-.01-.27-.15-.19-.31-.39-.46-.59,0-.1,0-.19-.01-.28-.13-.16-.28-.32-.4-.5-.04-.06-.05-.17-.04-.25.01-.08.08-.14.11-.21.08,0,.15,0,.22,0,.17.19.3.42.47.53.18,0,.33,0,.41,0,.16-.16.28-.28.37-.37,0-.33,0-.61,0-.88-.11-.14-.21-.29-.33-.4-.08-.07-.25.05-.3-.11-.05-.15.1-.19.17-.33,0-.15,0-.33,0-.51.08-.11.15-.21.23-.32,0-.08,0-.17.01-.27-.15-.19-.3-.39-.45-.58.15-.23.36-.09.54-.14.08.09.16.18.25.27.15,0,.18.01.33.12,0,.29.02.61.03.89.08.1.18.16.18.23,0,.31.17.49.33.67.02.02.06.03.08.01.03-.02.08-.06.08-.1,0-.56,0-1.12,0-1.68-.4-.49-.81-.99-1.21-1.48-.02-.03-.06-.04-.09-.06-.07-.01-.15-.01-.21-.04-.08-.04-.11-.13-.08-.24-.11,0-.21.02-.32,0-.05-.01-.12-.11-.11-.15.02-.09.09-.13.16-.12.07.01.13.02.19.06.07.04.09.12.07.22.11,0,.23,0,.37,0,.03-.11.07-.23.1-.33-.03-.07-.04-.12-.06-.15-.32-.4-.65-.79-.97-1.19-.07,0-.15,0-.23-.01-.08-.09-.16-.18-.24-.27-.08.09-.16.19-.24.28-.08,0-.16-.01-.23-.02-.11-.13-.22-.26-.32-.4,0-.18,0-.37,0-.55-.08-.1-.16-.2-.22-.29,0-.3,0-.58,0-.85,0-.03.05-.07.09-.11.29,0,.59,0,.93,0,.08.1.19.22.3.35.07.08.07.26,0,.38-.04.08-.11.13-.16.2.08.2.21.34.36.45.34,0,.69,0,1.03,0,.06,0,.12-.09.18-.13.02-.13-.05-.29.08-.38.02,0,.06,0,.08.02.24.29.49.59.74.91-.06.09-.13.19-.21.31,0,.25,0,.53,0,.81,0,.04.04.08.07.1.02.02.07.03.08.01.22-.26.43-.53.65-.79.3,0,.6,0,1.01,0,.09.15.22.38.34.57.31-.06.59.13.84-.17-.12-.12-.23-.23-.38-.38-.01,0-.08-.01-.21-.03-.13-.16-.29-.35-.45-.55-.18-.05-.38.09-.55-.11-.02-.21-.04-.43-.06-.63-.07-.08-.12-.15-.19-.23,0-.26,0-.54,0-.82-.16-.2-.31-.4-.47-.6.01-.13-.04-.28.11-.39.12,0,.27,0,.45,0,.06.06.14.15.23.25.06,0,.14.01.22.02.08.09.15.19.24.28.02.02.07,0,.11,0,0-.19,0-.37,0-.56,0-.11,0-.19.08-.24.05-.03.11.02.16.11.02.04.05.07.1.12.2,0,.43,0,.65,0,.08,0,.16-.2.15-.32-.01-.09-.05-.15-.11-.23-.19-.28-.18-.29,0-.57.02-.04.06-.06.08-.1.05-.1.04-.29-.02-.38-.05-.08-.24-.11-.31-.05-.09.08-.16.18-.22.24-.18,0-.33,0-.46,0-.32-.36-.34-.36-.65,0-.25.1-.52-.07-.76.1-.18.32.09.74-.16,1.04-.07,0-.15,0-.25.01-.08.12-.18.26-.31.44-.04.24-.07.31-.23.52-.07.21.06.46-.08.66-.03.02-.06.06-.09.06-.45,0-.9,0-1.29,0-.16-.17-.28-.3-.38-.41,0-.3,0-.58,0-.85-.08-.11-.16-.21-.24-.32,0-.28,0-.55,0-.8-.09-.12-.16-.23-.22-.31-.02-.4.03-.77-.02-1.07-.09-.16-.18-.26-.2-.38-.02-.14-.03-.26-.14-.34-.07,0-.15,0-.14,0-.31-.37-.57-.69-.84-1.03.09-.03.19-.07.29-.1.17.2.33.39.49.57.08-.09.16-.17.23-.24.12.14.24.27.34.39,0,.2,0,.39,0,.57q.26.2.55-.13c.07,0,.15-.01.26-.02.08-.11.17-.26.28-.43-.04-.06-.1-.15-.17-.25.05-.16.17-.27.28-.38.08-.07.21-.06.3-.11.06-.04.11-.13.18-.21.08.08.16.16.23.25.04.05.07.13.1.19-.06.07-.11.14-.16.2-.05.31-.07.63.01.94.05.07.12.12.16.2.13.24.44.11.56.39.01.03.06.05.09.05.12.02.22-.02.29-.14,0-.09,0-.19,0-.27-.08-.11-.16-.21-.23-.31,0-.46,0-.93,0-1.43-.1-.04-.2-.07-.35-.13-.04-.05-.12-.14-.21-.24-.07,0-.14,0-.22,0-.08-.1-.17-.19-.25-.29-.07,0-.14,0-.22,0-.11-.14-.22-.27-.33-.4.27-.32.54-.64.83-1,.1,0,.25,0,.38,0,.14.07.13.21.15.35.01.19.22.24.23.44,0,.05,0,.09,0,.1.28.34.55.67.83,1.01.04-.04.12-.13.2-.22.07,0,.14,0,.22,0,.08.09.16.18.24.27.08,0,.15,0,.18,0,.3-.35.58-.67.86-1-.03-.13-.06-.26-.09-.38-.18,0-.33,0-.47,0-.09-.1-.17-.19-.26-.29-.14,0-.29,0-.44,0-.09-.1-.17-.19-.25-.29-.07,0-.15,0-.21,0-.09-.1-.17-.19-.25-.27-.09,0-.16-.02-.23-.03-.11-.13-.22-.26-.32-.4-.08-.1-.16-.2-.24-.3-.11-.13-.2-.29-.33-.39-.18-.14-.04-.46-.25-.58-.14,0-.29,0-.44,0-.19-.24-.38-.46-.57-.7-.02-.02,0-.09,0-.14-.1,0-.21.02-.31,0-.1-.03-.17-.12-.2-.28-.08-.01-.11-.05-.13-.08-.02-.02-.04-.07-.03-.09.04-.1.09-.11.14-.06.06.06.09.13.06.22,0,.01-.07.01-.05,0,.15,0,.26-.02.36,0,.1.03.17.12.15.27.11,0,.23,0,.46,0,.08-.15.21-.38.27-.49.21-.09.31-.13.4-.17,0-.31,0-.59,0-.9-.1-.11-.21-.23-.35-.39-.11,0-.26,0-.41,0-.09-.1-.17-.19-.26-.28-.15.18-.31.37-.46.54-.24,0-.46,0-.68,0-.11-.14-.22-.27-.33-.41,0-.09,0-.18,0-.27-.08-.11-.16-.21-.23-.31-.01-.13.04-.29-.11-.39-.09,0-.2-.02-.31-.02-.2,0-.27.08-.27.31,0,.14-.03.29,0,.38.06.14.22.19.18.33-.04.17-.19.09-.3.11-.04-.07-.09-.14-.11-.22-.11-.4-.14-.46-.5-.61-.12-.05-.18-.16-.26-.23-.11-.1-.3,0-.39-.22,0-.08,0-.17,0-.25-.08-.11-.16-.21-.23-.31,0-.1-.02-.22.02-.28.17-.25.35-.48.5-.69.13,0,.21.01.28.02.3.36.59.73.89,1.09.07,0,.15.01.22.02.22-.1.06-.45.25-.56.07,0,.15,0,.23,0,.19.11.04.46.25.56.07,0,.15,0,.22-.01.03-.03.07-.06.08-.1.02-.09.01-.18.03-.27,0-.04.03-.08.06-.11.05-.07.11-.13.16-.2,0-.09,0-.18,0-.27.24-.3.47-.6.69-.88-.04-.25.08-.5-.12-.68-.07,0-.15,0-.18,0-.37-.46-.72-.88-1.06-1.3,0-.36,0-.73,0-1.1,0-.03.05-.07.08-.1.07,0,.15-.01.21-.02.18.09.09.34.18.45.15.18.2.36.2.61,0,.3.03.33.34.35.09.1.17.19.23.25.25.01.48.02.7.04.03,0,.05.06.09.1,0,.18,0,.36,0,.56-.07.09-.15.19-.22.29,0,.09,0,.19,0,.27.08.11.16.21.24.32,0,.45,0,.92,0,1.38,0,.03.05.07.08.1.04,0,.07.02.11.02.14,0,.25-.08.25-.19,0-.23,0-.47,0-.7,0-.08.07-.15.1-.23.07,0,.15,0,.22,0,.08-.09.16-.18.24-.27.08.09.17.18.26.29.1-.04.2-.08.33-.13-.16-.19-.29-.35-.42-.51-.1-.13-.2-.27-.3-.41.03-.21-.08-.34-.19-.46-.02-.34-.19-.57-.41-.75-.25-.05-.53.14-.76-.12,0-.09,0-.18-.01-.28.07-.1.15-.2.23-.3,0-.28,0-.56,0-.83.08-.1.15-.21.23-.3-.01-.38-.02-.38-.33-.41-.16.18-.32.37-.48.56-.11-.01-.23.05-.32-.14,0-.15,0-.33,0-.55-.23-.29-.47-.58-.7-.86,0-.12-.01-.21-.01-.27-.2-.25-.38-.49-.55-.71-.13,0-.25,0-.36,0-.09,0-.15-.01-.23-.2-.12-.11.18-.47-.12-.62-.08.08-.16.16-.23.23-.15-.19-.29-.35-.42-.52-.07,0-.15-.02-.23-.03-.08-.08-.16-.18-.25-.27-.14,0-.29,0-.44,0-.09-.1-.17-.19-.25-.29-.15,0-.3,0-.44,0-.09-.1-.17-.19-.25-.27-.09,0-.16-.02-.17-.02-.24-.25-.43-.46-.67-.71.16-.06.26-.1.34-.13.05.04.08.06.11.09.06.06.11.13.16.2.19-.31.19-.31-.08-.66.02-.24-.17-.53.1-.71.05.07.1.15.16.2.14.12.28.08.39-.08,0-.28,0-.56,0-.84.08-.1.15-.2.23-.3,0-.45,0-.45.1-.68.16.19.32.37.48.56.07,0,.15,0,.21,0,.09.1.17.19.27.3.1-.04.2-.07.3-.11,0-.22,0-.4,0-.6-.07-.09-.14-.19-.22-.29,0-.09,0-.18,0-.27-.08-.1-.15-.2-.22-.3.23-.27.51-.08.78-.14.07-.08.16-.17.18-.2.23-.16.43.03.59-.16.07-.32.07-.63-.02-1.06-.32-.39-.69-.85-1.08-1.33,0-.09,0-.23.11-.32.1-.09.14-.21.12-.39-.15-.28-.37-.52-.6-.74-.09-.02-.16-.03-.16-.03-.16-.16-.28-.27-.39-.38.13-.16.24-.29.35-.43.07,0,.15,0,.24,0,.09-.13.19-.27.33-.46,0-.2,0-.48,0-.75,0-.07.09-.13.14-.2.14,0,.29,0,.42,0,.09-.1.17-.17.25-.25.23.28.45.55.67.82.29,0,.6,0,.9,0,.07,0,.16-.25.13-.35-.02-.04-.03-.08-.04-.12-.13-.16-.27-.33-.42-.51,0-.12,0-.26,0-.39q0-.24.27-.31s.07-.02-.02,0c.29-.3.49-.5.65-.67.01-.17.02-.26.03-.33.11-.15.22-.28.31-.41.32,0,.32,0,.32-.1-.01-.14-.12-.2-.19-.31,0-.17,0-.36,0-.55.11-.16.21-.35.39-.44.18-.04.39.11.51-.16,0-.09,0-.18-.01-.27-.09-.14-.24-.22-.22-.45.01-.16-.13-.21-.18-.33-.06-.15-.1-.32-.14-.47-.1,0-.18,0-.34,0,.07-.48-.27-.67-.49-.98,0-.09,0-.18,0-.27-.07-.13-.17-.17-.29-.15-.2.04-.37-.04-.52-.33-.16.37-.11.72-.08,1.06.18.13.22.35.24.58.14.17.27.33.4.5,0,.04.02.09.02.13,0,.09,0,.19,0,.28,0,.18-.06.3-.15.31-.07,0-.17.01-.21-.04-.2-.22-.38-.45-.54-.65-.01-.13,0-.25-.03-.31-.09-.15-.21-.27-.29-.38-.13-.04-.26.05-.34-.13-.02-.2-.04-.42-.06-.62-.07-.08-.12-.15-.19-.23,0-.27,0-.54,0-.82-.16-.2-.31-.4-.46-.6,0-.1,0-.19,0-.28.14-.21.34-.34.4-.54-.11-.17-.2-.32-.27-.43-.12,0-.19-.02-.22-.02-.22-.24-.41-.46-.6-.67.2-.25.39-.49.57-.72.16,0,.31,0,.46,0,.03,0,.05-.06.08-.1-.07-.21-.21-.34-.35-.45-.24-.1-.3.24-.48.28-.19,0-.38,0-.57,0-.03,0-.06-.03-.1-.05-.05-.07-.11-.13-.16-.2-.07-.01-.14-.02-.23-.03-.08.08-.16.17-.26.28-.09,0-.2,0-.32,0-.04,0-.09.02-.11,0-.05-.06-.12-.12-.13-.2-.04-.26.08-.37.22-.36.34.01.68,0,1.02,0,.08-.1.17-.19.24-.27.32,0,.62,0,.9,0,.1.1.18.19.27.3.1-.04.2-.08.29-.12,0-.12,0-.22,0-.32.19-.22.38-.44.58-.68.05,0,.12,0,.2-.02.22.1.06.45.25.56.08,0,.15,0,.26,0,.04.15.09.32.13.48.4.5.81.99,1.21,1.48.02.02.07,0,.11,0,0-.14,0-.28,0-.42-.38-.46-.75-.92-1.14-1.39,0-.27,0-.55,0-.81-.29-.44-.66-.77-.9-1.17,0-.23,0-.41,0-.57.07-.09.13-.15.18-.22,0-.07-.02-.16-.11-.17-.15-.02-.3,0-.43,0-.12-.15-.23-.28-.34-.41.07-.1.15-.2.22-.3,0-.1,0-.19,0-.28-.3-.37-.6-.73-.9-1.1.23-.31.55-.06.77-.17.14-.16.26-.29.36-.4,0-.12,0-.21,0-.3-.14-.23-.46-.08-.55-.4-.07,0-.15-.01-.23-.02-.16-.18-.32-.37-.47-.55-.24,0-.46,0-.64,0-.23.16-.33.44-.54.56-.22-.02-.45.04-.67-.04-.05-.07-.11-.13-.16-.2-.4-.11-.82.05-1.21-.08-.11-.15-.21-.28-.32-.41,0-.19,0-.38,0-.56-.12-.13-.22-.24-.23-.46,0-.11-.12-.22-.21-.38-.05-.53.03-1.13-.04-1.69-.08-.09-.13-.16-.19-.24.15-.2.3-.39.44-.58,0-.1,0-.19,0-.28-.15-.21-.34-.37-.47-.65.03-.1.07-.22.1-.33.18,0,.33,0,.51,0,.04.15.09.32.13.48.13.16.27.33.4.49.03.13-.04.28.09.38.03.01.06.04.09.05.18.03.37-.07.52.14.14.21.42.13.55.39.06.12.16.2.24.3.19-.23.37-.46.58-.71-.11-.11-.22-.23-.38-.39.03.01,0,0-.04-.01-.27-.06-.26-.07-.27-.31,0-.17.06-.38-.12-.53-.09,0-.2,0-.31,0-.2,0-.24-.07-.25-.33,0-.14-.01-.27-.01-.3-.22-.31-.39-.56-.53-.76-.13-.01-.2-.02-.28-.03-.11-.13-.22-.26-.32-.4.02-.13-.05-.29.12-.4.21-.01.47-.02.75-.04.29-.37.58-.73.87-1.1.17.04.37-.1.52.12,0,.05.01.09.02.13,0,.09,0,.19,0,.28,0,.28.13.37.37.27.03-.01.05-.06.08-.1,0-.37,0-.74,0-1.11,0-.03.05-.07.08-.11.29-.09.59,0,.88-.04.06,0,.11-.09.17-.15-.01-.13.04-.28-.14-.41-.21,0-.47,0-.74,0-.27,0-.53.01-.8,0-.05,0-.11-.1-.16-.17,0-.18,0-.36.02-.55,0-.04.05-.07.09-.11.29,0,.59,0,.89,0,.09-.1.17-.19.26-.29.14,0,.29,0,.44,0,.03,0,.06-.05.08-.09.03-.06,0-.16-.08-.18-.33-.1-.33-.09-.33-.38,0-.05,0-.09,0-.14-.01-.26-.06-.33-.25-.33-.26,0-.53,0-.76,0-.1.11-.18.19-.23.24-.13-.13-.25-.25-.36-.36.09-.13.17-.23.23-.32q0-1.52.1-1.78c.07,0,.15-.01.23-.02.08.09.16.18.24.28.11,0,.22,0,.34,0,0-.23,0-.47,0-.7-.19-.23-.38-.46-.57-.69-.07,0-.14,0-.22,0-.08.09-.16.18-.24.27-.08,0-.15,0-.23,0-.11-.14-.22-.27-.33-.4-.03-.37-.02-.37.26-.44.03,0,.07-.03.04-.01.16-.17.27-.29.37-.38,0-.23,0-.41,0-.63-.1-.04-.2-.08-.3-.11-.26-.32-.53-.65-.84-1.04,0-.18,0-.46,0-.74,0-.1.17-.19.27-.17.12.03.17.17.26.23.14.1.28.07.38-.11,0-.09,0-.18,0-.26.07-.1.14-.2.21-.29-.23-.28-.44-.54-.66-.8,0-.04-.01-.09-.02-.13,0-.09,0-.19,0-.28,0-.28-.07-.32-.36-.27-.1.1-.18.18-.26.26-.17-.01-.31-.02-.43-.03-.08-.1-.14-.17-.19-.23-.18-.02-.36-.05-.54-.07-.13-.42,0-.84-.08-1.24-.3-.36-.59-.73-.9-1.1.11-.12.22-.25.35-.39.06.07.14.15.23.24.07-.08.15-.17.24-.27.1-.02.23.06.3-.1-.08-.25-.28-.39-.42-.59,0-.28,0-.55,0-.83-.16-.2-.31-.4-.46-.59,0-.16,0-.29-.1-.39-.09-.09-.16-.2-.24-.29-.08,0-.15,0-.23,0-.11-.13-.22-.26-.32-.4.04-.05.08-.15.13-.16.15-.02.3,0,.42,0,.16.2.3.36.43.53.03.01.07.03.1.03.22,0,.37-.26.24-.44-.13-.18-.22-.35-.23-.62-.29-.34-.59-.69-.89-1.04.15-.24.35-.1.56-.15.17.21.35.45.55.66.22.25.39.56.64.74.29.04.37-.25.53-.47-.12-.04-.22-.07-.39-.13-.05-.07-.14-.21-.27-.4-.01-.16-.06-.38-.26-.52,0-.17-.01-.35,0-.53,0-.06.08-.1.12-.15.09.09.17.18.25.25.19-.04.4.1.53-.15,0-.1,0-.19,0-.27-.08-.11-.16-.21-.23-.31,0-.28,0-.55,0-.86-.1-.04-.2-.07-.35-.13-.04-.05-.13-.14-.21-.24-.07,0-.14,0-.22,0-.08-.1-.17-.19-.25-.28-.08,0-.15,0-.23.01q-.22.26-.32.14c0-.09,0-.18-.01-.28-.07-.1-.15-.2-.22-.3.08-.1.15-.2.22-.3-.09-.3.17-.39.21-.54,0-.23,0-.42,0-.56-.06-.14-.2-.17-.17-.34.11-.12.21-.25.31-.36.09-.01.17-.02.23-.03.11-.14.22-.26.33-.39,0-.1,0-.19,0-.29-.09-.24-.38-.04-.47-.34.02-.09.05-.22.07-.33.07-.01.1-.02.14-.03.24-.04.28-.11.14-.27-.16-.17-.06-.44-.23-.59-.18-.17-.33-.39-.49-.59-.03-.03-.06-.06-.08-.09,0-.1,0-.2,0-.29.06-.05.12-.13.18-.13.12,0,.21-.04.27-.16,0-.2,0-.38,0-.53-.2-.26-.38-.49-.56-.72-.09,0-.16,0-.23,0-.11-.14-.22-.27-.33-.4,0-.09,0-.18-.01-.28-.07-.09-.15-.19-.23-.3-.02-.03,0-.09-.05-.14-.08-.01-.11-.05-.13-.08-.02-.02-.04-.07-.03-.09.04-.1.09-.11.14-.06.06.06.09.13.06.22,0,.01-.07.01-.05,0,.16,0,.28,0,.39,0,.08-.1.16-.26.24-.27.31-.05.31-.03.33-.41-.07-.09-.15-.2-.22-.3.14-.19.29-.38.43-.57-.07-.11-.14-.2-.2-.3.13-.14.25-.27.21-.49-.11-.23-.3-.4-.45-.6,0-.09,0-.18,0-.28.15-.19.3-.38.43-.55-.07-.22-.2-.13-.34-.16-.08-.11-.18-.25-.3-.42,0-.2-.07-.4-.24-.54,0-.09-.01-.18-.02-.29.15-.19.3-.39.45-.58,0-.29,0-.57,0-.88-.1-.04-.2-.08-.3-.12-.17.2-.33.39-.49.58-.08,0-.15,0-.25,0-.04-.16-.09-.32-.14-.48-.13-.16-.27-.33-.4-.49,0-.09,0-.19,0-.28.08-.1.15-.2.23-.3,0-.1,0-.19-.01-.27-.08-.11-.15-.21-.23-.32,0-.18,0-.37,0-.51-.09-.13-.16-.24-.23-.34.03-.29.04-.57-.19-.75-.02-.02-.03-.08-.03-.12,0-.23-.07-.34-.26-.33-.11,0-.22,0-.31,0-.13-.16-.24-.29-.35-.42.08-.1.15-.21.22-.29,0-.3,0-.58,0-.84-.22-.27-.44-.54-.65-.8,0-.09-.02-.18-.03-.27-.27-.41-.31-.43-.65-.52-.26-.33-.56-.7-.85-1.06-.08,0-.15,0-.22-.01-.09-.1-.17-.19-.26-.28-.15,0-.3,0-.43,0-.04-.05-.07-.08-.09-.11-.14-.22-.44-.12-.55-.39-.01-.03-.07-.04-.1-.03-.18.03-.26-.15-.37-.26-.07,0-.15-.01-.23-.02-.08-.09-.16-.18-.25-.28-.07,0-.15,0-.23,0-.4-.49-.8-.99-1.21-1.49-.02-.03-.03-.08.05.13-.12-.38-.16-.5-.19-.61-.1,0-.18,0-.25,0-.08-.1-.17-.19-.25-.29-.15,0-.3,0-.45,0-.12-.21-.28-.31-.48-.3-.29-.36-.59-.73-.88-1.09-.08,0-.15,0-.22,0-.09-.1-.17-.19-.27-.3-.23.15-.29-.19-.52-.28-.1,0-.24,0-.38,0-.07-.08-.12-.15-.18-.22-.18-.06-.36-.07-.53,0-.05.07-.11.13-.16.2-.03,0-.07.02-.1.03-.24.05-.26.07-.26.32,0,.14,0,.27,0,.39C-.08,1.24,0,1.56.04,1.88c.05.07.11.13.16.2.06.22.01.45.03.68.02.27-.04.55.05.81.06.07.11.14.17.21,0,.17,0,.36,0,.54.08.11.16.21.24.31,0,.18,0,.37,0,.57.21.26.43.52.64.78.01.02,0,.06,0,.1-.11.12-.22.24-.18.49.06.08.13.18.21.3,0,.16,0,.35,0,.55-.07.09-.14.19-.22.29,0,.27,0,.55,0,.83.08.1.16.2.22.29,0,.39,0,.76,0,1.11-.08.12-.16.22-.23.33,0,2.05,0,4.1.01,6.13-.06.13-.19.17-.18.33.14.17.27.33.4.5,0,.09,0,.18.01.28-.07.1-.15.2-.23.3,0,.18,0,.37,0,.55-.08.1-.15.2-.22.29,0,1.23,0,2.44,0,3.65.15.22.35.37.46.64,0,.17-.01.35-.02.5-.08.1-.13.16-.2.25,0,.26,0,.54,0,.85.05.07.13.18.2.28,0,.08,0,.17.01.27-.15.19-.3.39-.44.58.08.11.15.22.2.29,0,.5,0,.97,0,1.41-.07.08-.12.15-.19.24-.03.39-.03.79,0,1.17.08.09.13.16.21.25,0,.24,0,.52,0,.8,0,.33,0,.65,0,.98,0,.27-.05.55.05.81.06.07.11.14.17.21,0,.18,0,.36,0,.55.08.1.16.21.24.31,0,.37,0,.74,0,1.11.08.11.16.21.22.29,0,.2,0,.39,0,.55-.08.12-.16.22-.22.31,0,.48,0,.95,0,1.37-.3.38-.3.42-.1.71.08.12.1.23.1.35.17.2.33.39.46.54,0,.28,0,.46,0,.64.08.11.16.21.22.29.1.29-.16.38-.19.59.05.07.11.13.16.2.1.4-.03.82.08,1.22.05.07.11.13.17.21,0,.92,0,1.85,0,2.78.08.11.15.21.24.32,0,1.1,0,2.22,0,3.34.08.11.16.21.24.31,0,.28,0,.56,0,.83.08.11.16.21.24.32,0,.46,0,.93,0,1.37.09.12.16.22.22.31,0,.49,0,.95,0,1.35.1.16.17.26.23.35,0,.31.05.6-.22.78.07.1.14.2.22.3,0,.08,0,.17,0,.25.08.11.16.21.24.31,0,.65,0,1.3,0,1.95.08.11.16.21.24.32,0,.84,0,1.68,0,2.51.18.15.25.34.22.59,0,.08.02.18.03.26.05.07.11.13.17.21.06.36.02.73.03,1.09,0,.33,0,.65,0,.98.01.37-.05.74.03,1.08.07.08.12.15.18.23-.07.1-.14.19-.21.3,0,.36,0,.73,0,1.11.02.03.04.06.07.1.05.07.1.13.15.2,0,.1,0,.19,0,.28-.06.07-.11.13-.16.2-.02.03-.04.07-.06.11.02.35.02.35.21.39.23.05.24.07.25.34,0,.13-.01.27-.02.38-.29.39-.29.41,0,.81,0,.17,0,.35,0,.57-.14.18-.29.38-.44.57,0,.1,0,.19,0,.27.08.11.16.21.24.32,0,.18,0,.37,0,.54.14.18.28.34.45.55-.15.18-.3.37-.45.56,0,.18,0,.37,0,.55-.08.1-.15.2-.22.3.08.11.15.21.23.32,0,.18,0,.37,0,.54.3.23.23.55.18.87-.05.07-.11.13-.16.2.03.06.06.15.11.19.11.1.09.24.1.39-.07.1-.15.2-.22.3.09.24.37.04.45.3q0,.44-.1.67c-.08-.09-.16-.17-.24-.25-.02.02-.05.04-.07.07-.02.03-.04.08-.04.12,0,.14,0,.28,0,.42.01.32-.04.65.04.96.06.07.11.13.19.24,0,.61,0,1.26,0,1.91,0,.04-.03.08-.05.11-.05.07-.11.13-.16.2,0,.09,0,.18-.02.32.1.1.22.21.36.35.05-.05.12-.12.2-.2.02.01.06.02.07.04.09.19.08.42.24.59.12.12.07.33-.08.47-.22,0-.45,0-.67,0-.03,0-.05.06-.11.13.15.19.3.37.46.56,0,.09,0,.19,0,.28.13.16.27.33.4.5.05.07.03.13-.05.2-.18.06-.38-.09-.54.1-.07.27-.04.55-.03.82,0,.32-.04.64.07,1.07.24.29.53.64.81,1-.16.11-.16.1-.28.11-.11,0-.21.03-.31.04-.07.32-.07.32.05.51.17.28.17.32,0,.58-.02.04-.05.07-.09.11,0,.35,0,.72,0,1.13.05.08.13.18.21.29,0,.08,0,.17.01.27.08.26.37.06.46.3,0,.19,0,.38,0,.56q-.26.21-.55-.12c-.15.17-.15.17-.1,1.28.05.07.11.13.17.2.1.49-.04,1,.07,1.49.13.12.23.26.19.46.17.19.33.38.46.53,0,.93,0,1.77,0,2.6.08.11.16.21.24.32,0,.46,0,.93,0,1.37.09.12.16.23.24.34-.05.27.02.55-.05.82-.05.07-.11.13-.16.2-.01.04-.03.08-.03.12,0,.37,0,.75,0,1.12,0,.09-.03.17-.05.28-.2.24-.42.5-.63.75,0,.2,0,.39,0,.57.11.14.22.27.34.42.29,0,.59,0,.89,0,.03,0,.06.05.09.08.09.26.03.54.05.81.02.32-.03.65.03.96.03.03.05.07.08.1.08.07.11.14.07.2-.02.03-.06.08-.08.08-.15,0-.3,0-.43,0-.1-.11-.19-.2-.28-.3-.17.08-.38-.08-.53.16,0,.65,0,1.3,0,1.96.15.2.31.4.46.59-.09.28.17.37.19.53-.11.17-.21.31-.29.43-.34.02-.34.02-.36.4-.07.09-.14.2-.22.3,0,.08,0,.17,0,.27.07.13.17.12.28.16.1.03.18.15.3.25.11,0,.26,0,.41,0,.09.1.17.19.25.28.07.07.11.14.09.2-.04.1-.11.13-.19.1-.09-.03-.17,0-.19.1,0,.06.06.13.09.2.02.04.05.07.08.1,0,.04.02.09.02.13,0,.18-.06.3-.15.31-.07,0-.17.01-.21-.04-.22-.25-.44-.52-.65-.79-.03.03-.06.05-.08.08-.02.03-.04.08-.04.12,0,.09,0,.19,0,.28.02.37-.04.74.03,1.09.06.08.12.14.17.21.09.4-.04.82.07,1.21.06.08.12.14.18.22,0,.17,0,.36,0,.54.08.11.16.21.24.31,0,.18,0,.37,0,.55.08.1.16.2.22.29,0,.39,0,.76,0,1.11-.08.12-.16.22-.23.33,0,.28,0,.55,0,.81-.23.28-.44.54-.66.82,0,.27,0,.55,0,.82-.08.11-.16.21-.23.31,0,.09,0,.18,0,.27.08.1.15.2.23.3,0,.1,0,.19-.01.27-.08.11-.15.21-.23.33.03.12.07.25.1.36.1,0,.18,0,.25,0,.08-.09.16-.18.24-.27.08,0,.15,0,.25,0,.03.12.07.24.1.35.16.2.32.39.44.54,0,.47,0,.84,0,1.22-.11.13-.21.27-.32.4-.3.03-.35-.01-.36-.31,0-.09.01-.19,0-.28-.02-.08-.07-.15-.11-.23-.07,0-.15,0-.24,0-.09.12-.2.26-.32.42,0,.61,0,1.26,0,1.91-.08.11-.15.21-.23.32,0,.08,0,.17-.01.27.07.1.15.2.23.3,0,.37,0,.75,0,1.11-.08.11-.15.21-.23.31,0,1.21,0,2.43,0,3.63-.14.17-.28.34-.41.51-.03.22-.06.45-.25.59,0,.17,0,.36,0,.57.05.08.13.18.21.28-.07.09-.14.19-.22.3,0,.09,0,.18,0,.27-.08.11-.16.21-.22.29,0,.21,0,.39,0,.55.09.12.16.22.21.29,0,.23,0,.41,0,.55-.09.14-.16.24-.21.32-.02.31.04.59-.05.88-.13.08-.2.23-.17.46.06.09.14.19.22.3,0,.36,0,.73,0,1.11-.07.1-.15.2-.22.3,0,.65,0,1.3,0,1.95-.08.11-.16.21-.23.32,0,.28,0,.55,0,.81-.09.12-.16.23-.22.32,0,.44,0,.86,0,1.28,0,.04-.02.08-.03.12-.28.37-.28.39.02.79,0,.82,0,1.66,0,2.53-.06.08-.13.18-.21.29,0,.26,0,.54,0,.83.07.1.15.2.23.3,0,.37,0,.74,0,1.04.12.31.35.4.42.67-.05.07-.11.13-.16.2.08.26.28.39.42.6,0,.09,0,.18,0,.3-.1.11-.21.24-.36.4-.07.04-.25-.06-.3.17.21.26.43.53.65.79,0,.04.02.09.02.13-.02.16.04.28.16.31.11.03.22,0,.3.15,0,.09,0,.18,0,.27-.07.1-.15.2-.22.3,0,.1,0,.19,0,.28.22.27.44.53.65.8.01.04.02.08.03.12q.05.31.36.35c.11.13.22.26.32.4-.08.1-.15.2-.22.3,0,.09,0,.19.01.27.08.11.15.21.23.32,0,1.02,0,2.05,0,2.95.22.32.39.57.55.8.26,0,.49,0,.71,0,.12.22.28.3.47.31.14.17.27.33.42.51.16-.18.31-.37.47-.55.08,0,.15,0,.23,0,.3.37.6.73.89,1.09.04.05.27.02.31-.05.03-.07.06-.17.05-.25,0-.23-.28-.31-.23-.59,0-.06-.07-.15-.12-.21-.1-.14-.21-.27-.32-.4.15-.17.15-.18.53-.12.16.15.27.27.38.37,0,.23,0,.41,0,.53.2.28.38.51.56.75.12-.15.23-.29.34-.42,0-.18,0-.36,0-.56-.07-.09-.14-.19-.22-.3.11-.13.21-.26.32-.4.07,0,.15-.01.23-.02.08-.09.16-.18.24-.28.22,0,.45,0,.69,0,.1-.13.22-.25.3-.4.04-.06.02-.17.03-.27-.11-.18-.22-.36-.39-.46-.3-.03-.6.05-.9-.04-.1-.14-.2-.26-.3-.39.04-.05.07-.11.09-.11.3,0,.6,0,.93,0,.06.07.14.16.23.26.07,0,.15,0,.22,0,.08.1.17.19.25.28.08,0,.15-.01.23-.02.11-.13.21-.26.32-.4,0-.09,0-.18,0-.27.06-.05.11-.13.18-.15.06-.02.16,0,.21.05.12.11.21.26.32.39,0,.2,0,.38,0,.55.04.05.07.07.09.11.04.06.07.13.1.19-.06.07-.12.13-.16.21-.11.22,0,.46.21.46.11,0,.22,0,.32,0,.12-.15.23-.28.34-.41,0-.21,0-.22.09-.41.24-.01.5-.02.72-.04.08-.1.13-.18.19-.23.14-.1.32-.03.36.14.02.08,0,.23.03.26.23.19.21.47.21.74,0,.14.09.22.23.22.34,0,.68,0,1.02,0,.03,0,.06-.06.08-.1,0-.02,0-.07-.02-.1-.05-.07-.11-.13-.18-.22,0-.16-.01-.35,0-.53,0-.05.09-.09.12-.12.12.13.23.25.34.36,0,.12,0,.21,0,.33.1.04.2.08.3.12.1-.1.18-.2.26-.29.08.09.16.18.24.27.07,0,.15,0,.21,0,.09.09.16.18.24.27.11-.14.22-.27.33-.41,0-.09,0-.18,0-.28-.08-.1-.15-.2-.23-.3,0-.14-.03-.29.11-.39.58,0,1.19,0,1.79,0,.09-.1.17-.19.27-.3.17.23.35.47.53.71-.03.03-.07.12-.13.13-.14.03-.29.03-.44.05-.03,0-.05.06-.08.1,0,.09,0,.19,0,.28.11.13.21.26.33.41.14,0,.29,0,.45,0,.16.19.31.39.47.58.03.03.05.06.08.1.08.11.01.42-.12.45-.11.03-.23-.01-.3.13,0,.09,0,.18-.01.28-.07.1-.15.2-.22.3.11.13.21.26.34.42.43,0,.89,0,1.34,0,.03,0,.06-.05.1-.09.02-.2.04-.43.06-.64.14-.17.28-.32.4-.5.04-.06.02-.17.03-.28-.07-.09-.14-.2-.22-.3,0-.08,0-.17-.01-.27-.07-.1-.15-.2-.22-.3.08-.1.15-.2.22-.3,0-.1.01-.19.02-.28.05-.07.11-.13.16-.2.05-.06.03-.13-.06-.2-.15,0-.3,0-.45,0q-.17-.29.01-.57c.22,0,.45,0,.67,0q.23-.26.33-.14c0,.09,0,.18,0,.27.24.3.47.6.64.81.07.24.11.36.14.47.18,0,.33,0,.48,0,.08.1.17.19.24.27.16,0,.31,0,.46,0,.11-.14.22-.27.33-.41,0-.09,0-.18,0-.26-.19-.23-.38-.46-.59-.72-.07-.03-.2.05-.27-.09-.04-.07-.05-.17-.05-.25,0-.13.01-.27.03-.4,0-.04.05-.07.08-.1.11-.02.26.07.3-.1.04-.14-.11-.2-.17-.29,0-.09-.01-.18-.02-.29-.15-.19-.3-.39-.46-.59,0-.27,0-.55,0-.82-.08-.11-.16-.21-.23-.31.02-.38.02-.39.33-.4.16.18.32.37.48.55.14-.31.13-.32.04-.77-.1-.03-.21-.07-.31-.1-.13-.16-.27-.33-.4-.49-.07,0-.15-.02-.23-.03-.07-.08-.16-.17-.23-.27-.17-.22-.18-.3,0-.57.08-.12.1-.23.11-.37,0-.06.08-.12.12-.17.05.07.1.14.16.2.08.08.25.09.31.02.14-.16.27-.33.41-.5.04.05.12.1.13.16.02.18,0,.36,0,.52.27.33.51.62.75.92.02.03.06.04.12.08.08-.04.18-.08.27-.12,0-.31,0-.59,0-1.02-.12-.1-.31-.26-.4-.33-.07-.26-.11-.38-.14-.5-.18,0-.33,0-.49,0-.1-.13-.2-.27-.31-.41.04-.23.22-.11.33-.18.13-.16.27-.33.42-.52.08.08.15.15.26.26.08,0,.19,0,.3,0,.17,0,.17,0,.26-.33.02-.08.06-.17.11-.22.07-.08.1-.14.07-.21-.11-.11-.22-.24-.18-.49.06-.08.13-.18.22-.31-.11-.11-.23-.22-.38-.38,0,0-.08-.01-.15-.03-.22-.17-.38-.44-.58-.66.02-.28.21-.15.32-.2.1-.31.41-.18.55-.4,0-.18,0-.36,0-.62-.08-.09-.2-.2-.31-.34-.13-.16-.25-.34-.37-.51.03-.22-.08-.34-.19-.46,0-.36-.2-.56-.42-.74-.07-.01-.14-.02-.11-.02-.26-.26-.46-.47-.64-.64.08-.24.21-.17.32-.19.08.09.16.19.25.28.26,0,.53,0,.79,0,0-.14,0-.28,0-.5ZM23.61,143.76s-.04-.07-.03-.09c.04-.1.09-.11.14-.06.06.06.09.13.06.22,0,.01-.07.01-.1,0,.31.18.25.26.24.25-.05-.03-.11-.07-.13-.13-.05-.12,0-.18.1-.12.05.03.08.1.1.16-.33-.18-.36-.22-.38-.25ZM12.66,49.91c-.18,0-.24-.08-.24-.3,0-.09,0-.17,0-.26-.11,0-.23,0-.34,0-.1-.13-.21-.26-.32-.4.06-.23.21-.17.34-.14.1.19.32.26.32.53.03,0,.08-.02.1,0,.12.14.24.28.36.44.02.02,0,.08,0,.12.21.18.15.25.14.25-.05-.03-.11-.07-.13-.13-.05-.12,0-.18.1-.12.05.03.08.1.1.16-.27-.17-.34-.17-.41-.17ZM17.14,72.62c-.1-.13-.21-.26-.32-.4-.03-.42,0-.45.34-.42.12.09.09.24.09.36.06.17.26.22.23.45.21.1.2.1.43.46-.22.16-.24.16-.43-.06,0-.13,0-.26,0-.39-.11,0-.23,0-.34,0ZM18.27,74.02c.16-.18.31-.37.47-.56.18.24.12.5.05.76,0,.03-.05.07-.08.07-.07.02-.15.02-.22.02-.07.06-.1.13-.1.23,0,.09,0,.18,0,.28,0,.28-.06.32-.36.3-.11-.13-.21-.26-.32-.39,0-.09,0-.18,0-.25-.06-.18-.26-.22-.23-.45-.11,0-.22,0-.33,0-.08-.09-.16-.19-.24-.28-.07,0-.15,0-.22,0-.11-.13-.21-.26-.32-.39-.05-.18-.05-.35.11-.45.07,0,.14,0,.22.01.28.35.57.69.9,1.11.15,0,.41,0,.68,0ZM20.8,76.53s.06-.06.08-.09c.01-.02,0-.08,0-.09-.13-.17-.27-.33-.4-.49,0-.09,0-.18-.01-.27.05-.05.11-.15.16-.15.22-.02.46-.07.6.23.28.02.46.23.61.5,0,.05,0,.09,0,.14,0,.04,0,.11-.02.12-.27.15-.13.62-.4.78-.06.04-.11.11-.16.17-.13-.16-.27-.33-.4-.49-.1-.03-.21-.05-.31-.1-.08-.04-.11-.13-.08-.24-.13-.02-.16-.05-.18-.08-.02-.02-.04-.07-.03-.09.04-.1.09-.11.14-.06.06.06.09.13.06.22,0,.01-.07.01-.1,0,.21,0,.33,0,.44,0ZM21.52,145.95c.07-.09.14-.19.21-.29-.21-.26-.43-.53-.65-.79-.05-.22-.06-.44,0-.66.16-.18.36-.03.53-.09.09-.1.17-.19.25-.27.08.01.16.02.23.03.13.16.27.33.4.49.24.07.3.11.49.32.09,0,.2,0,.31,0,.15,0,.24.07.26.19.01.14,0,.27-.1.37-.03.03-.05.06-.08.1.06.27.27.39.41.6,0,.26,0,.54,0,.84.18.22.36.46.56.67.04.05.14.03.23.04.08-.08.16-.17.25-.27.07,0,.14,0,.23-.02.25.33.51.67.77,1-.05.07-.12.17-.2.27,0,.18,0,.37,0,.55-.11.14-.22.27-.33.41-.29,0-.59,0-.92,0-.15-.17-.31-.36-.47-.55-.08,0-.16,0-.23,0-.03.04-.08.07-.08.1-.01.27-.01.55-.03.83,0,.06-.08.11-.13.16-.22-.26-.43-.53-.66-.8-.14,0-.29,0-.45,0-.11-.13-.22-.24-.32-.39-.04-.06-.05-.17-.04-.25.01-.08.07-.14.11-.21.08.09.16.18.24.27.08,0,.16-.01.23-.02.11-.13.21-.26.32-.4,0-.09,0-.18,0-.27-.08-.21-.27-.1-.38-.2-.09-.08-.15-.18-.26-.23-.36-.15-.36-.17-.5-.61-.01-.04-.02-.08-.03-.12-.04-.1-.2-.13-.14-.29.03-.08.1-.13.17-.21-.07-.1-.14-.19-.21-.29ZM15.59,106.24c-.05-.07-.11-.13-.17-.21-.28-.09-.58,0-.88-.04-.06,0-.12-.09-.18-.14,0-.19,0-.37,0-.56.05-.1.11-.13.16-.08.08.08.13.23.27.22.04,0,.08,0,.13,0,.08-.08.16-.18.25-.28.06,0,.14,0,.2,0,.12-.08.12-.21.14-.35.02-.12.11-.22.21-.4.03-.1,0-.29,0-.47,0-.12-.08-.17-.25-.2-.04,0-.07-.01-.11-.02-.11-.2-.27-.31-.45-.29-.12-.14-.23-.26-.33-.38,0-.2,0-.39,0-.57.14-.24.35-.1.55-.15.23.27.47.56.71.84.08-.09.17-.19.24-.27.29-.02.29-.03.33-.25.05-.36.16-.4.45-.17,0,.09,0,.18,0,.28.38.45.75.91,1.13,1.37,0,.47,0,.93,0,1.39.08.11.15.21.23.32,0,.08,0,.17.01.27.07.1.15.2.23.3-.14.24-.35.09-.53.16-.26-.26-.48-.58-.73-.86-.38,0-.76,0-1.14,0-.16.17-.28.41-.48.53ZM16.6,91.69c.09,0,.15,0,.19-.1.03-.06,0-.13-.08-.2-.03-.03-.05-.06-.08-.1.01-.24-.16-.53.1-.72.11.13.21.26.32.4,0,.09,0,.18,0,.27.08.1.16.2.23.3,0,.18,0,.37,0,.55.08.1.15.2.23.3,0,.1,0,.19,0,.27-.08.11-.15.21-.22.3,0,.11-.01.2-.02.28-.11.13-.21.26-.32.39-.07,0-.15,0-.28,0-.12.17-.26.39-.37.57-.34-.02-.34-.03-.37-.25-.04-.26-.04-.26-.27-.31-.03,0-.07-.02-.09-.03-.12-.14-.23-.26-.33-.39,0-.29,0-.57,0-.84-.08-.1-.15-.2-.23-.3,0-.47,0-.93,0-1.43.09-.04.19-.09.29-.13.29.35.69.58.66,1.15.26,0,.45-.01.64,0ZM15.81,86.94c.1.32.41.17.55.4,0,.09,0,.18,0,.3-.1.1-.21.23-.35.38-.14.02-.33.04-.41.3-.21,0-.39,0-.58,0q-.2,0-.25-.33s-.02-.08-.01-.06c-.13-.18-.22-.32-.32-.45-.09.07-.11.15-.13.24-.06.34-.06.34-.36.3-.18-.18-.03-.44-.16-.76-.13-.22-.42-.44-.6-.78.03-.04.06-.1.09-.1.6,0,1.21,0,1.83,0,.15.17.31.36.47.55.08,0,.16.01.23.02ZM20.08,113.41c-.21.3-.49.09-.75.15-.24-.2-.43-.47-.62-.74.04-.22-.07-.35-.2-.49-.03-.38-.03-.79,0-1.13.09-.16.18-.26.2-.38.02-.14.03-.26.13-.34.15,0,.3,0,.45,0,.19.18.08.43.12.67.06.08.13.18.21.31,0,.25,0,.52,0,.86.15.15.33.32.47.46,0,.26,0,.44,0,.63ZM16.06,45.8c-.02.11-.11.17-.26.17-.11,0-.22,0-.34,0-.07,0-.14-.02-.22-.02-.05-.07-.1-.13-.16-.19-.02-.02-.05-.02-.08-.02-.13.16-.26.33-.4.49-.1.04-.21.07-.31-.03-.06-.06-.08-.14-.07-.24,0-.04,0-.09,0-.14,0-.09,0-.18-.01-.26-.08-.1-.15-.2-.23-.31,0-.19,0-.37,0-.53-.08-.11-.14-.21-.21-.3.16-.22.36-.08.54-.13.08.09.16.18.24.28.22,0,.44,0,.66,0,.03.03.06.06.09.09.24.29.48.58.72.88,0,.09.02.18.01.27ZM19.8,93.78c-.08.11-.18.24-.28.37-.03,0-.07.03-.08.01-.14-.16-.27-.33-.4-.49-.07,0-.15-.02-.23-.03-.07-.08-.16-.17-.25-.27-.06,0-.14,0-.23,0-.09-.13-.19-.27-.32-.45-.06-.2.02-.48-.03-.72.1-.23.22-.37.38-.48.03.03.08.07.08.1.01.28,0,.55.02.83,0,.1.08.14.14.12.13-.16.27-.33.42-.52.13,0,.27-.01.42,0,.05,0,.09.1.13.16q-.2.26-.01.5c.08.1.16.2.25.31,0,.17,0,.35,0,.57ZM23.46,150.58c.11.13.21.26.32.39,0,.09.01.18.02.33.17.17.37.37.65.66.13,0,.39.02.62.03q.09.19.08.41s-.05.09-.08.09c-.22.03-.44.04-.7.06-.05.05-.13.14-.23.23-.24.04-.49.08-.74-.03-.02-.04-.06-.07-.06-.11,0-.09,0-.18,0-.26.08-.11.15-.21.21-.29,0-.21,0-.39,0-.56-.12-.14-.22-.27-.33-.41-.14,0-.29.02-.44,0-.08-.01-.12-.11-.09-.17.01-.04.05-.09.08-.09.15,0,.3,0,.45,0,.08-.09.16-.18.24-.27ZM14.63,52.38s-.1-.01-.16-.11c-.02-.04-.05-.07-.08-.1-.08-.1-.16-.2-.24-.29-.07,0-.15,0-.22-.02-.11-.03-.12-.14-.02-.28.15,0,.3,0,.45,0,.03-.03.07-.06.08-.09.1-.26,0-.54.05-.79-.05-.09-.08-.17-.13-.24-.16-.24-.17-.29.01-.56.15,0,.3,0,.45,0,.11.13.22.27.33.41,0,.17,0,.35,0,.56-.06.08-.13.18-.22.29,0,.17,0,.35,0,.54-.08.1-.15.2-.23.3-.01.13.05.28-.08.37ZM16.28,41.91c-.19.23-.37.46-.55.68-.26-.32-.51-.65-.8-1,0-.03,0-.12-.02-.23.09-.12.19-.25.29-.37.14-.12.29-.04.43-.07.3.14.41.51.65.67,0,.13,0,.22,0,.31ZM21.89,106.34c.03.12.12.22.21.36,0,.14,0,.33,0,.58-.16.17-.36.38-.58.62-.07-.08-.17-.2-.27-.31-.02-.09-.04-.18-.05-.27,0-.37,0-.75,0-1.12,0-.04.02-.08.03-.13.15-.21.36,0,.51-.11.13.11.12.25.15.38ZM23.85,143.01c-.13,0-.28,0-.42,0-.07.08-.11.16-.17.21-.1.09-.24.11-.3,0-.13-.2-.31-.21-.47-.29-.02-.01-.04-.06-.05-.1.26-.12.14-.5.32-.68.37,0,.75,0,1.16,0,.08.11.18.26.28.41-.05.18-.19.3-.35.44ZM13.65,35.88c-.09,0-.17,0-.24,0-.13-.14-.18-.34-.06-.46.15-.17.16-.38.23-.58.01-.04.05-.06.08-.08.22,0,.44,0,.67,0,.18.32.09.67.08,1-.11.14-.21.28-.31.4-.08,0-.16,0-.25,0-.06-.09-.13-.19-.2-.28ZM12.4,45.27s0,.08.01.12c.03.27.21.4.37.27.06-.05.1-.15.16-.19.14-.1.28-.07.38.09,0,.09,0,.19,0,.29-.3.27-.65.03-.96.16-.1-.1-.18-.18-.28-.28q-.34-.08-.37-.47c-.11-.13-.21-.27-.32-.39-.07-.08-.11-.14-.09-.2.04-.1.1-.11.19-.1.11.02.23,0,.34,0,.18.23.37.46.56.69ZM24.83,145.52c-.08-.09-.16-.18-.24-.28-.14,0-.29,0-.44,0q-.18-.26-.02-.56c.22,0,.44,0,.67,0,.08-.09.16-.18.24-.28.07,0,.14,0,.22,0,.1.07.13.19.13.33,0,.15.13.21.18.32.09.17.06.34-.07.47-.22,0-.45,0-.67,0ZM15.68,42.88c.12.12.19.24.29.28.1.04.22,0,.31.16,0,.2,0,.43,0,.66q0,.24-.27.31s-.08-.01-.1-.04c-.32-.39-.64-.79-1.01-1.24.3-.23.57-.05.78-.14ZM16.19,108.11c0,.09,0,.18-.01.31-.09.04-.19.08-.4.16-.07.1-.21.32-.32.49-.14,0-.21,0-.29,0-.11-.13-.21-.26-.33-.41.07-.09.13-.19.21-.31,0-.11,0-.25,0-.39,0-.26.19-.4.37-.26.06.05.11.13.18.22.25.05.46-.09.58.17ZM21.64,150.85c.08,0,.15,0,.22.01.2.23.39.46.58.69-.07.05-.12.13-.19.14-.19.02-.38,0-.57,0-.17-.06-.24-.38-.47-.28-.15-.14-.29-.27-.39-.51.03-.1.07-.22.1-.33.18,0,.33,0,.47,0,.08.1.17.19.24.28ZM23.67,140.2c-.08.09-.16.18-.24.28-.3,0-.6,0-.91,0-.03,0-.06-.06-.08-.09-.03-.07.01-.14.09-.18.03-.02.08,0,.11,0,.19-.03.19-.03.21-.38.11-.18.22-.36.39-.46.04,0,.08-.02.11,0,.27.16.43.46.62.71-.08.17-.2.12-.32.13ZM26.18,136.55c.07,0,.15,0,.22,0,.19.17.06.56.32.67,0,.09.01.18.02.28.07.09.14.19.22.29-.06.13-.15.15-.27.15-.12,0-.17.17-.26.23-.14.1-.28.07-.37-.1,0-.1,0-.19,0-.27.08-.11.15-.21.22-.3,0-.1-.01-.19-.02-.28-.15-.2-.34-.36-.46-.63.03-.1.07-.22.11-.35.1.11.18.21.26.3ZM14.09,29.15q.17.3-.01.56c-.07,0-.15,0-.22.01-.09.1-.17.19-.23.26-.17,0-.32,0-.46,0-.12-.14-.22-.28-.33-.41.09-.24.37-.04.46-.31,0-.17,0-.36,0-.53.06-.12.11-.14.16-.07.13.16.27.33.4.49.08,0,.15,0,.23,0ZM13.44,42.05c-.09-.11-.21-.23-.3-.37-.04-.06-.05-.17-.04-.25.01-.08.08-.14.11-.21.08,0,.15,0,.22,0,.06.07.11.14.17.2.03.03.06.05.1.09.21,0,.44,0,.64,0,.14.1.11.25.12.47-.08.08-.2.2-.31.32-.06.07-.23.06-.31-.02-.06-.06-.11-.13-.16-.2-.07,0-.15-.02-.24-.03ZM15.95,98.29c.1-.13.19-.25.29-.38.14-.04.16.14.25.19.13.07.29.02.39.2.06.11.15.2.2.27,0,.22,0,.4,0,.55-.09.18-.21.13-.31.14-.21-.1-.05-.45-.25-.56-.08,0-.15,0-.23,0-.11-.13-.21-.26-.34-.41ZM11.21,17.23c0,.2,0,.39,0,.57-.07.12-.17.14-.28.15-.12,0-.17.15-.25.23-.01.01-.06,0-.08-.01-.03-.02-.07-.06-.07-.1,0-.45,0-.91,0-1.36,0-.03.04-.07.09-.15.22.26.41.47.59.68ZM18.56,97.3c.07,0,.14,0,.22,0,.19.2.38.39.39.74,0,.03.05.07.08.1.08.07.1.13.08.19-.04.09-.1.11-.19.09-.11-.01-.22,0-.35,0-.09-.12-.19-.25-.34-.46.03-.25-.06-.49.12-.66ZM18.1,98.98c-.09-.12-.19-.26-.31-.42-.06-.22-.02-.49-.02-.76,0-.07.06-.15.1-.22.2.19.37.4.39.73,0,.07.11.12.15.2.03.07.05.17.04.25-.01.08-.07.14-.11.22-.07,0-.15,0-.24,0ZM11.68,27.06q-.1.11-.33-.15c-.14,0-.29,0-.47,0-.08-.13-.18-.27-.29-.42.05-.17.18-.29.32-.4.05.07.1.16.16.19.09.05.22.04.3.11.13.09.23.23.31.32,0,.17,0,.26-.01.35ZM20.95,103.3c0,.12.02.25.02.38,0,.32-.02.34-.34.34-.1-.13-.21-.26-.33-.4,0-.12-.02-.25-.02-.38,0-.32.02-.34.34-.34.1.13.21.26.33.4ZM24.8,133.76c.12.1.22.26.35.41-.1.05-.2.1-.28.14-.08-.07-.15-.11-.2-.17-.16-.19-.32-.39-.46-.56.04-.42.05-.47.34-.4.2.05.06.42.24.57ZM12.15,43c.03.21.05.43,0,.63-.08.16-.2.08-.3.1-.1-.08-.12-.2-.13-.34,0-.15-.12-.21-.18-.31-.01-.02-.02-.07,0-.09.09-.13.19-.26.29-.4.12.15.23.28.33.41ZM10.56,28.74c-.01-.39,0-.39.31-.18.03.02.07.03.1.03.18,0,.28.08.27.32,0,.16.11.22.18.33.04.06.02.15-.07.19-.07.03-.15,0-.23,0-.19-.23-.38-.46-.56-.69ZM15.84,48.66c0-.12,0-.21,0-.3q.23-.2.45,0c0,.27,0,.54,0,.82-.21.22-.21.22-.45.02.07-.1.15-.19.23-.3-.08-.09-.17-.17-.24-.25ZM13.33,39.42c.04-.06.07-.16.11-.16.22-.02.44,0,.66,0q.16.29-.01.56c-.15,0-.3,0-.45,0-.1-.13-.21-.26-.32-.39ZM18.41,77.8s-.05.08-.08.09c-.05.03-.1-.02-.16-.11-.14-.21-.34-.36-.46-.64.03-.1.07-.21.11-.34.21.26.4.49.58.72,0,.09,0,.19,0,.28ZM10.68,24.07c-.18-.06-.24-.28-.37-.38,0-.12,0-.21,0-.29.11-.16.24-.19.37-.09.12.1.21.24.32.36-.11.14-.22.27-.32.4ZM19.82,66.11c-.14-.19-.03-.43-.07-.64.05-.1.11-.15.15-.1.18.21.36.43.54.66-.21.16-.21.16-.62.09ZM11.68,24.25c0,.18,0,.37,0,.55q-.23.2-.46,0c0-.18,0-.37,0-.55q.23-.2.46,0ZM11.92,17.08c.22.07.29.31.43.41,0,.17.05.36-.13.42-.19-.23-.37-.45-.57-.69.1-.05.19-.1.27-.13ZM20.15,97.85c-.15-.2-.15-.26,0-.56.15.19.3.39.46.57.07.08.1.13.06.19-.05.08-.11.11-.19.09-.03,0-.07,0-.11,0-.08-.09-.16-.19-.23-.28ZM20.87,78.87s.03.07.05.14c-.03.09-.06.21-.12.4-.2-.27-.37-.5-.54-.73-.01-.02-.01-.07,0-.09.04-.1.1-.12.18-.1.03.01.07,0,.15,0,.08.11.18.24.27.37ZM25.62,132.52c.03-.26.19-.16.31-.18.08.1.16.19.23.29.15.19.15.26,0,.56-.18-.22-.36-.44-.54-.66ZM21.73,143.14c0-.14,0-.27,0-.41,0-.1,0-.18.07-.24.05-.04.1,0,.16.08.07.1.16.18.23.26,0,.12,0,.21,0,.31q-.23.2-.46,0ZM14.94,53.7c-.08.09-.16.18-.24.27-.16.19-.22.19-.45-.01,0-.09,0-.18,0-.36.29-.04.5-.17.69.1ZM18.15,65.47c0-.15,0-.29,0-.42,0-.1,0-.18.07-.24.05-.04.1,0,.16.08.07.1.16.18.23.26,0,.12,0,.21,0,.31-.15.2-.3.18-.46,0ZM13.67,155.36q-.16-.27,0-.56c.07,0,.15,0,.22,0,.17.27.17.27,0,.56-.07,0-.15,0-.22,0ZM18.61,103.23c.12.1.21.24.32.36-.12.18-.25.21-.38.1-.12-.1-.21-.24-.32-.36.12-.18.25-.21.38-.1ZM24.58,134.86c.1.02.24-.07.29.1.04.14-.1.19-.15.28-.02.04-.05.07-.08.1-.02.03-.05.05-.08.07-.15-.28-.15-.29.02-.55ZM16.75,47.53c-.01.12.05.3-.08.36-.11.05-.15-.12-.23-.19-.03-.03-.05-.06-.08-.09-.02-.03-.04-.06-.06-.09.23-.19.23-.19.45.02ZM17.04,74.74c-.08.09-.17.17-.24.27-.06.09-.11.12-.16.09-.07-.05-.09-.13-.08-.23,0-.04,0-.09,0-.14.15-.2.3-.2.47.01ZM19.35,73.92c-.03-.06,0-.13.09-.18.15,0,.3,0,.44,0,.03.03.06.06.08.1.03.06,0,.13-.09.18-.15,0-.3,0-.44,0-.03-.03-.06-.06-.08-.1ZM12.05,93.22c-.02.16.07.36-.14.4-.1-.13-.21-.26-.31-.38.15-.2.3-.18.46-.01ZM18.43,72.79c.03-.26.19-.16.31-.18.17.19.14.37,0,.57-.11-.13-.21-.26-.32-.39ZM19.39,115.09c.01-.12-.05-.3.08-.36.11-.05.15.12.23.19.03.03.05.06.08.09.02.03.04.06.06.09-.23.19-.23.19-.45-.02ZM20.23,128.41c.08.1.15.2.23.29.07.08.1.13.07.19-.04.09-.11.11-.19.09-.03,0-.07,0-.11,0-.16-.28-.16-.28,0-.57ZM6.9,116.86s-.01-.07,0-.09c.05-.14.3-.15.38,0,.01.02,0,.06,0,.09-.05.14-.3.15-.38,0ZM20.02,105.24c.04.1-.05.18-.19.18-.04,0-.08.01-.11,0-.03-.02-.06-.06-.08-.09-.03-.06,0-.13.08-.18.03-.02.07,0,.11,0,.08-.03.15,0,.19.1ZM15.5,70.6c-.11-.09-.11-.4,0-.46.02-.01.06,0,.08,0,.03.02.07.06.07.1.01.09.01.18,0,.27,0,.04-.05.06-.07.1-.03,0-.06,0-.08,0ZM13.84,18.77c-.16-.19-.16-.37,0-.56.16.19.16.37,0,.56ZM10.77,24.81c-.15.2-.3.2-.46,0,.15-.2.3-.2.46,0ZM21.46,124.07c-.04.1-.1.13-.15.09-.03-.02-.08-.08-.07-.09.04-.1.1-.13.15-.1.03.03.08.08.07.09ZM19.88,127.16c.04-.1.1-.13.15-.09.03.02.08.08.07.09-.04.1-.1.13-.15.1-.03-.03-.08-.08-.07-.09ZM7.18,105.45s.05.05.07.09c.03.06,0,.13-.08.18,0,0-.05-.06-.07-.09-.03-.06,0-.13.08-.18ZM17.36,85.19s-.08-.08-.07-.09c.04-.1.1-.13.15-.09.03.02.05.06.08.09-.05.09-.1.13-.15.09ZM12.11,83.79s-.08-.08-.07-.09c.04-.1.1-.13.15-.1.03.02.05.06.08.09-.05.09-.1.13-.15.09ZM13.97,81.59c-.08-.05-.11-.12-.08-.18.02-.04.06-.1.07-.09.08.05.1.12.08.18-.03.03-.06.09-.07.09ZM17.09,50.74s-.05-.05-.07-.09c-.03-.06,0-.13.08-.18,0,0,.05.06.07.09.03.06,0,.13-.08.18ZM16.58,77.52s.04-.07.07-.09c.05-.04.1,0,.15.09,0,.01-.05.06-.07.09-.05.03-.1,0-.15-.1ZM13.56,50.32s.04-.07.07-.09c.05-.04.1,0,.15.09,0,.01-.05.06-.07.09-.05.03-.1,0-.15-.1ZM13.6,33.03s-.08-.08-.07-.09c.04-.1.1-.13.15-.09.03.02.05.06.08.09-.05.09-.1.13-.15.09ZM19.19,72.33s-.05-.05-.07-.09c-.03-.06,0-.13.08-.18,0,0,.05.06.07.09.03.06,0,.13-.08.18ZM15.45,29.99c.08.05.11.12.08.18-.02.04-.06.1-.07.09-.08-.05-.1-.12-.08-.18.03-.03.06-.09.07-.09ZM14.04,26.58s-.08-.08-.07-.09c.04-.1.1-.13.15-.09.03.02.05.06.08.09-.05.09-.1.13-.15.09ZM12.54,111.19s-.04.07-.07.09c-.05.04-.1,0-.15-.09,0-.01.05-.06.07-.09.05-.03.1,0,.15.1ZM12.69,69.68s.04-.07.07-.09c.05-.04.1,0,.15.09,0,.01-.05.06-.07.09-.05.03-.1,0-.15-.1ZM19.96,111.04s.05.05.07.09c.03.06,0,.13-.08.18,0,0-.05-.06-.07-.09-.03-.06,0-.13.08-.18Z"/>
      <path d="M24.43,168.25c.23,0,.45,0,.66,0,.1.1.18.19.24.26.25,0,.48,0,.66,0,.14-.16.25-.28.36-.4,0-.11,0-.2,0-.29.15-.21.34-.37.46-.65-.03-.1-.07-.22-.1-.33-.1,0-.18,0-.25,0-.11-.13-.21-.26-.32-.4,0-.04-.01-.09-.02-.13-.04-.28-.06-.32-.27-.31-.11,0-.22.01-.3.02-.14.15-.25.28-.36.4,0,.29,0,.57,0,.85,0,.03-.05.07-.1.13-.24-.27-.46-.58-.71-.85-.22,0-.45,0-.66,0-.1-.1-.18-.19-.26-.28-.19.05-.39-.1-.54.14,0,.18,0,.37,0,.54.27.33.54.66.82,1,.13,0,.29,0,.43,0,.08.1.17.19.25.29ZM25.89,167.53c-.15.2-.3.2-.46,0,.15-.2.3-.2.46,0Z"/>
      <path d="M27.04,121.69c.17,0,.32,0,.46,0,.12.1.09.25.12.37.03.12.13.21.22.33,0,.35,0,.72,0,1.11-.08.24-.36.05-.45.29,0,.09,0,.19,0,.27.08.1.16.2.23.3-.01.4-.02.4-.31.41-.08,0-.15,0-.29,0-.11-.18-.24-.4-.34-.56-.24,0-.39,0-.57,0-.03-.11-.07-.23-.1-.34.13-.27.31-.43.46-.64-.07-.1-.15-.2-.22-.3,0-.1,0-.19,0-.22.28-.37.54-.7.79-1.02Z"/>
      <path d="M24.07,169.54c0,.35,0,.72,0,1.08.08.1.15.2.23.3,0,.1,0,.19.01.28.14.23.35.08.52.13.15.12.28.25.35.45-.03.03-.05.09-.08.1-.37,0-.75,0-1.17,0-.15-.2-.32-.44-.54-.75-.04-.27,0-.64-.02-1.03-.05-.08-.12-.18-.21-.32,0-.14,0-.32,0-.53.07-.16.19-.31.33-.4.19.23.38.46.57.7Z"/>
      <path d="M22.41,161.1c-.11.22-.25.45-.55.45-.07,0-.15.14-.22.22-.07-.09-.13-.15-.2-.24-.07.08-.14.17-.22.23-.13.1-.35.02-.36-.14,0-.2-.06-.34-.18-.46-.09-.1-.03-.26-.08-.37-.06-.11-.16-.2-.2-.31-.04-.12,0-.27.11-.36.37,0,.74,0,1.12,0,.25.32.51.65.78.99Z"/>
      <path d="M22.38,85.23c.29.34.56.66.83.98-.15.24-.36.1-.59.16-.11-.2-.24-.43-.37-.66-.18.22-.28.35-.39.48,0,.09-.01.18-.02.29.15.19.3.39.46.59-.01.13.04.28-.09.37-.03-.01-.06-.01-.08-.04-.27-.33-.54-.66-.82-1-.15-.06-.33-.07-.46-.27-.08-.13-.3,0-.37-.21,0-.09,0-.19,0-.27q.11-.12.33.14c.14,0,.29,0,.46,0,.2-.09.04-.44.23-.55.3,0,.61,0,.88,0Z"/>
      <path d="M21.34,60.55c-.19,0-.37,0-.58,0-.09-.12-.19-.26-.31-.42.05-.08.11-.17.19-.29,0-.24,0-.51,0-.82-.05-.07-.12-.17-.22-.31,0-.09,0-.23,0-.36,0-.25.06-.32.25-.33.04,0,.07,0,.11,0,.07,0,.15,0,.22.01.03.03.07.06.08.1.02.13.02.27.03.4,0,.08.02.18.05.25.07.13.2.06.3.1.02.03.07.06.07.1.02.18.02.36.04.61-.15.14-.32.31-.48.46.08.22.27.27.24.5Z"/>
      <path d="M21.81,70.08c0,.42,0,.83,0,1.25-.06.05-.11.14-.17.14-.19.02-.38,0-.59,0-.07.07-.15.15-.24.24q-.42.04-.58-.11c0-.1,0-.19,0-.27.11-.14.22-.27.34-.42.13,0,.28.01.43,0,.04,0,.08-.11.11-.16-.27-.35-.27-.35-.08-.67.26,0,.53,0,.79,0Z"/>
      <path d="M19.96,55.36c0,.09,0,.18,0,.28.08.1.15.2.23.3,0,.09,0,.18,0,.26.08.11.16.21.23.3,0,.1,0,.19-.01.28-.15.21-.35.1-.52.11-.05,0-.14-.1-.14-.17-.02-.27,0-.55,0-.8-.2-.25-.39-.48-.57-.7-.08,0-.15,0-.23,0-.1-.13-.21-.26-.32-.4.04-.05.07-.15.12-.16.15-.02.29,0,.43,0,.13.21.28.32.48.31.11.13.21.26.32.39Z"/>
      <path d="M25.61,171.04c-.31-.38-.58-.71-.85-1.04.08-.24-.18-.33-.2-.47.11-.18.2-.32.28-.45.22.25.41.48.6.7,0,.11,0,.2,0,.29.11.14.22.27.33.4.07,0,.15.01.3.02.06.09.16.23.25.38.01.02,0,.07-.01.1-.02.03-.05.08-.08.08-.23,0-.45,0-.61,0Z"/>
      <path d="M21.93,70.08c-.3-.36-.49-.59-.69-.84-.2,0-.42,0-.64,0-.03,0-.06-.04-.12-.08-.01-.1-.03-.23-.04-.33.16-.25.36-.1.54-.15.08.08.16.17.26.27.2,0,.42,0,.63,0,.24.18.39.44.58.66.02.02.01.06.02.08-.11.14-.21.27-.3.4-.12,0-.24,0-.23,0Z"/>
      <path d="M18.63,158.94c.14.16.22.25.3.34.08,0,.18-.02.22.02.28.31.54.63.79.92,0,.14,0,.23,0,.35-.09.04-.19.08-.27.12-.22-.15-.35-.38-.51-.56-.07,0-.15-.01-.23-.02-.08-.09-.16-.18-.25-.28-.06,0-.14.02-.21,0-.09-.03-.13-.14-.09-.17.19-.16.2-.45.25-.72Z"/>
      <path d="M24.04,93.37c-.07,0-.15,0-.24-.01-.25-.32-.5-.66-.76-.99.02-.02.07-.1.13-.12.06-.02.16,0,.21.04.14.15.27.32.4.49.07,0,.14.02.25.03.22.27.46.56.68.83.09,0,.17.01.24.01.11.13.21.26.32.39-.09.19-.26.23-.36.1-.14-.18-.33-.18-.47-.29-.16-.12-.27-.32-.41-.48Z"/>
      <path d="M26.93,119.59c-.01.11.05.26-.08.35-.05.03-.1-.01-.16-.1-.02-.04-.05-.1-.08-.09-.31.02-.44-.26-.61-.53,0-.16,0-.34,0-.48-.09-.14-.2-.25-.21-.36,0-.21-.1-.32-.2-.46-.04-.05.01-.13.08-.17.16,0,.31,0,.45,0,.25.27,0,.63.13.92.16.35.45.58.67.92Z"/>
      <path d="M16.54,166.42c.08.1.15.2.23.3,0,.28,0,.55,0,.83q-.23.21-.46,0c0-.37,0-.74,0-1.11-.07-.1-.15-.19-.23-.29,0-.18,0-.37,0-.55q.23-.19.46,0c0,.28,0,.55,0,.83Z"/>
      <path d="M25.48,127.3c.16,0,.3,0,.44,0,.19.19.07.44.12.74l.44.44c0,.16,0,.26,0,.35-.05.1-.11.14-.16.08-.32-.39-.64-.78-.96-1.18-.04-.05-.04-.18-.02-.26.02-.07.09-.12.13-.18Z"/>
      <path d="M9.46,166.16c-.08-.1-.17-.19-.25-.29-.15,0-.3,0-.44,0-.03-.04-.07-.07-.09-.11-.08-.18-.02-.43.13-.43.17,0,.28-.1.37-.24.03,0,.07-.01.08,0,.18.23.4.43.53.71q-.05.36-.34.36Z"/>
      <path d="M13.33,161.22c-.1.17-.25.22-.37.1-.2-.19-.38-.43-.54-.62,0-.14,0-.23,0-.32.07-.13.18-.18.28-.13.13.06.23.21.35.26.1.04.21.04.27.16,0,.18,0,.36,0,.54Z"/>
      <path d="M27.36,108.64c0,.09,0,.19,0,.28-.11.13-.21.26-.33.41-.1-.12-.21-.24-.31-.36-.08-.28-.04-.55-.04-.83,0-.07.07-.14.11-.2.19.23.38.46.57.69Z"/>
      <path d="M28.29,170.76c-.15,0-.3,0-.47,0-.06-.09-.13-.19-.19-.27-.13-.02-.26.05-.33-.1-.08-.18-.06-.35.08-.46.05-.04.14,0,.22,0,.08.09.16.19.24.28.15,0,.3,0,.44,0,.17.27.17.27,0,.56Z"/>
      <path d="M27.89,143.55c.11,0,.23,0,.35,0,.1.13.22.25.31.4.04.06.02.17.03.27-.1.19-.23.34-.4.48-.1-.05-.2-.1-.29-.14,0-.36,0-.68,0-1.01Z"/>
      <path d="M23.52,126.33c.05-.05.1-.13.16-.15.11-.03.21,0,.29.12.07.1.16.19.23.29,0,.09,0,.18,0,.3-.07.08-.15.17-.23.26-.16.19-.22.19-.45-.01,0-.27,0-.54,0-.82Z"/>
      <path d="M27.97,131.21c-.07,0-.15,0-.23,0-.07-.09-.15-.19-.23-.28-.15-.2-.15-.27,0-.56.15,0,.29,0,.46,0,.08.12.18.26.29.41-.03.18-.2.27-.3.43Z"/>
      <path d="M24.49,101.21c.08.06.12.13.08.18-.1.13-.21.24-.19.45,0,.06-.07.14-.11.21-.07,0-.15,0-.22,0-.08-.1-.15-.2-.24-.29-.1-.1-.13-.22-.1-.35.01-.07.08-.13.12-.2h.66Z"/>
      <path d="M9.79,162.35c-.07-.08-.16-.17-.23-.25,0-.11,0-.2,0-.29.15-.2.3-.2.46,0,0,.09,0,.18,0,.29.07.08.16.17.23.25,0,.16,0,.3,0,.43,0,.1,0,.18-.07.24-.05.04-.1,0-.16-.08-.07-.1-.16-.18-.23-.26,0-.13,0-.22,0-.33Z"/>
      <path d="M25.52,105.85c.15-.26.35-.11.5-.17.2.08.29.29.42.43,0,.09,0,.18,0,.27-.1.17-.25.22-.37.1-.2-.19-.37-.42-.55-.63Z"/>
      <path d="M26.84,125.88c.07.09.14.2.2.29.1,0,.17,0,.24,0,.13.13.15.29.07.47-.07.15-.2.07-.32.1-.07-.09-.14-.2-.2-.29-.1,0-.17,0-.24,0-.13-.13-.15-.29-.07-.47.07-.15.2-.08.32-.1Z"/>
      <path d="M28.39,163.04s0,.09,0,.13c.02.1,0,.18-.07.23-.1.08-.21.09-.3.01-.12-.1-.21-.25-.32-.38,0-.18-.01-.36,0-.53,0-.05.09-.09.13-.14.18.23.37.45.55.67Z"/>
      <path d="M19.61,165.16c-.1-.13-.21-.26-.33-.4.06-.09.12-.18.2-.3.08-.2-.11-.52.13-.7.08,0,.15,0,.22,0q.17.32-.08.66c-.11.23.08.55-.14.74Z"/>
      <path d="M16.87,162.08c.07,0,.15,0,.24,0,.06.09.14.19.2.28.1,0,.17,0,.24,0,.17.19.17.37,0,.56-.07,0-.15,0-.24,0-.06-.09-.14-.19-.2-.28-.1,0-.17,0-.24,0-.17-.19-.17-.37,0-.56Z"/>
      <path d="M25.78,113.55c.11,0,.23,0,.34,0,.1.13.21.26.32.4.04.42,0,.46-.34.42-.11-.13-.22-.26-.32-.39,0-.14,0-.28,0-.42Z"/>
      <path d="M23.61,122.25c.1,0,.17,0,.26,0,.07.09.15.19.22.28.15.2.15.27,0,.57-.07-.1-.15-.2-.21-.29-.13,0-.24-.01-.35,0-.08.01-.15,0-.19-.09-.03-.06,0-.12.07-.19.08-.09.15-.2.21-.28Z"/>
      <path d="M13.8,166.7c.07.1.15.2.21.29.09,0,.16,0,.25,0,.07.09.14.19.22.28.07.08.1.13.07.19-.04.09-.11.1-.19.09-.11-.01-.22,0-.36,0-.09-.11-.2-.24-.28-.38-.04-.06-.05-.17-.04-.25.01-.08.07-.14.11-.23Z"/>
      <path d="M23.44,86.77c0,.27,0,.54,0,.81,0,.05-.08.1-.13.14-.11-.13-.21-.26-.32-.39,0-.09,0-.18,0-.34.08-.08.18-.2.3-.31.05-.05.1-.01.16.09Z"/>
      <path d="M25.18,97c.07,0,.15,0,.22,0,.22.22.1.49.09.74-.07.16-.2.08-.3.1-.1-.09-.13-.21-.12-.35,0-.18-.04-.37.12-.49Z"/>
      <path d="M20.64,167.52c0,.17,0,.31,0,.44,0,.1,0,.18-.07.23-.05.04-.1,0-.16-.09-.07-.1-.16-.18-.23-.25,0-.17,0-.31,0-.44,0-.1,0-.18.07-.23.05-.04.1,0,.16.09.07.1.16.18.23.25Z"/>
      <path d="M21.72,83.55c.16.19.16.37,0,.56-.07,0-.15,0-.25,0-.06-.08-.13-.18-.21-.28-.15-.2-.16-.26,0-.57.08.1.15.2.21.29.09,0,.16,0,.24,0Z"/>
      <path d="M18.36,165.57c0-.09,0-.18,0-.27.24-.19.29-.19.46,0,.08.09.16.18.23.25,0,.13,0,.22,0,.31,0,.04-.04.07-.08.09-.05.03-.1-.02-.16-.1-.05-.06-.11-.1-.17-.13-.03-.02-.08.01-.11,0-.06-.04-.11-.1-.17-.15Z"/>
      <path d="M17.67,165.15c0,.14,0,.27,0,.41,0,.1,0,.18-.07.24-.05.05-.1.01-.16-.08-.07-.1-.16-.19-.23-.27,0-.11,0-.2,0-.29q.23-.2.46,0Z"/>
      <path d="M22.24,88.72c.16-.07.25-.11.33-.15.2.1.29.3.42.45-.01.12.05.27-.08.36-.05.03-.1,0-.15-.1-.04-.07-.1-.13-.15-.19-.11-.11-.22-.22-.36-.38Z"/>
      <path d="M20.64,166.42c.01-.13-.05-.28.07-.37.14-.1.3-.09.37.09.05.15.02.35,0,.53,0,.05-.09.09-.13.13-.11-.13-.21-.26-.32-.39Z"/>
      <path d="M22.23,163.9c.18-.26.4-.12.6-.1.13.09.07.24.09.36-.06.06-.11.13-.17.15-.11.03-.21,0-.29-.12-.07-.1-.15-.19-.23-.29Z"/>
      <path d="M25.68,126.16c-.08,0-.16,0-.23,0-.16-.3-.16-.3.02-.56.11,0,.22.01.33,0,.09-.01.15,0,.19.1.02.06-.01.12-.08.19-.08.09-.16.18-.23.27Z"/>
      <path d="M28.43,126.16c.17.19.15.37,0,.56-.08,0-.16,0-.25,0-.07-.09-.14-.19-.22-.28-.07-.08-.1-.13-.06-.2.05-.08.11-.1.19-.09.11.01.22,0,.33,0Z"/>
      <path d="M26.93,120.7c.02-.14-.07-.35.15-.38.1.13.21.25.31.38-.02.14.07.35-.15.38-.1-.13-.21-.25-.31-.38Z"/>
      <path d="M17.57,169.09c-.07,0-.15,0-.22,0-.17-.27-.17-.27,0-.56.07,0,.15,0,.22,0q.16.27,0,.56Z"/>
      <path d="M28.84,160.1c.07,0,.15,0,.22,0,.17.27.17.27,0,.56-.07,0-.15,0-.22,0-.17-.27-.17-.27,0-.56Z"/>
      <path d="M28.44,151.54c.13-.06.22-.11.29-.15.22.08.29.31.47.44-.13.06-.22.11-.29.15-.22-.08-.29-.31-.47-.44Z"/>
      <path d="M19.45,86.63c-.16-.18-.15-.37,0-.58.08.11.15.21.23.3.07.08.1.13.07.19-.04.09-.11.11-.19.09-.03,0-.07,0-.11,0Z"/>
      <path d="M17.77,160.11c.11.13.21.26.32.39-.03.26-.19.16-.31.18-.17-.19-.15-.37,0-.57Z"/>
      <path d="M22.59,170.77c-.17-.18-.17-.37,0-.58.07.1.14.21.22.29.07.08.1.13.07.19-.04.09-.1.12-.19.09-.03-.01-.07,0-.11,0Z"/>
      <path d="M22.23,110.75c.17.18.17.37,0,.58-.07-.1-.14-.21-.22-.29-.07-.08-.1-.13-.07-.19.04-.09.1-.12.19-.09.03.01.07,0,.11,0Z"/>
      <path d="M25.19,104.3c.15.12.11.31.12.49,0,.14-.02.26-.11.35-.15-.12-.11-.31-.12-.49,0-.14.02-.27.11-.35Z"/>
      <path d="M10.72,165.87c-.17-.26-.17-.27-.02-.56.08.09.15.19.23.27.07.07.1.13.08.19-.04.1-.1.12-.19.1-.03-.01-.07,0-.11,0Z"/>
      <path d="M21.41,89.84c-.17.22-.32.22-.47.01.01-.12-.04-.27.07-.37.05-.04.09,0,.16.09.07.1.16.18.24.27Z"/>
      <path d="M14.55,165.96s0,.07,0,.09c-.08.14-.33.14-.38,0,0-.03,0-.07,0-.09.02-.04.05-.08.08-.09.07-.01.15-.01.22,0,.03,0,.05.06.08.09Z"/>
      <path d="M17.22,163.48c-.14,0-.23-.09-.2-.18.04-.1.1-.12.19-.1.03.01.08-.01.11,0,.08.05.11.12.09.18-.02.04-.05.08-.08.09s-.07,0-.11,0Z"/>
      <path d="M28.54,125.46c.15-.2.3-.2.46,0-.15.2-.3.2-.46,0Z"/>
      <path d="M28.54,124.48c.03.1,0,.18-.08.23-.08.05-.15-.07-.15-.24,0-.05-.01-.1,0-.13.01-.04.05-.07.08-.1.05-.03.11,0,.15.1.01.04,0,.09,0,.13Z"/>
      <path d="M25.57,124.2c0,.17-.07.29-.15.24-.08-.05-.1-.13-.08-.23,0-.04-.01-.1,0-.13.04-.1.1-.14.15-.11.03.02.06.06.08.1.01.04,0,.09,0,.13Z"/>
      <path d="M25.22,121.4c-.16-.19-.16-.37,0-.56.16.19.16.37,0,.56Z"/>
      <path d="M20.67,87.1c-.05.14-.3.15-.38,0-.01-.02-.01-.07,0-.09.05-.14.3-.15.37,0,.01.02,0,.06,0,.09Z"/>
      <path d="M6.6,159.58c.16.19.16.37,0,.56-.16-.19-.16-.37,0-.56Z"/>
      <path d="M28.6,153.92c0,.17-.07.29-.15.24-.08-.05-.1-.13-.08-.23,0-.04-.01-.1,0-.13.04-.1.1-.14.15-.11.03.02.06.06.08.1s0,.09,0,.13Z"/>
      <path d="M28.81,150c.16.19.16.37,0,.56-.16-.19-.16-.37,0-.56Z"/>
      <path d="M13.16,162.93c.03.1,0,.18-.08.23-.08.05-.15-.07-.15-.24,0-.05-.01-.1,0-.13.01-.04.04-.07.08-.1.05-.03.11,0,.15.1.01.04,0,.09,0,.13Z"/>
      <path d="M15.67,163.06c.15-.2.3-.2.46,0-.15.2-.3.2-.46,0Z"/>
      <path d="M7.51,163.78c.15-.2.3-.2.46,0-.15.2-.3.2-.46,0Z"/>
      <path d="M21.62,163.43s-.08-.08-.07-.09c.04-.1.1-.13.15-.09.03.02.08.08.07.09-.04.1-.1.13-.15.1Z"/>
      <path d="M9.31,169.99s-.06.09-.07.09c-.08-.05-.11-.12-.08-.18.02-.04.06-.1.07-.09.08.05.1.12.08.18Z"/>
      <path d="M24.01,103.69s-.08-.08-.07-.09c.04-.1.1-.13.15-.09.03.02.08.08.07.09-.04.1-.1.13-.15.1Z"/>
      <path d="M16.81,168.44c-.03-.06,0-.13.08-.18,0,0,.05.05.07.09.03.06,0,.13-.08.18,0,0-.05-.06-.07-.09Z"/>
      <path d="M21,101.12c-.03-.06,0-.13.08-.18,0,0,.05.05.07.09.03.06,0,.13-.08.18,0,0-.05-.06-.07-.09Z"/>
      <path d="M29.23,167.16s.08.08.07.09c-.04.1-.1.13-.15.09-.03-.02-.08-.08-.07-.09.04-.1.1-.13.15-.1Z"/>
      <path d="M19,46.7s-.06.09-.07.08c-.05-.03-.11-.07-.13-.13-.05-.12,0-.18.1-.12.05.03.08.1.1.16Z"/>
      <path d="M17.17,160.77c.03.06,0,.13-.08.18,0,0-.05-.05-.07-.09-.03-.06,0-.13.08-.18,0,0,.05.06.07.09Z"/>
      <path d="M23.15,69.13s-.06.09-.07.08c-.05-.03-.11-.07-.13-.13-.05-.12,0-.18.1-.12.05.03.08.1.1.16Z"/>
      <path d="M21.54,60.72s-.06.09-.07.08c-.05-.03-.11-.07-.13-.13-.05-.12,0-.18.1-.12.05.03.08.1.1.16Z"/>
      <path d="M22.16,90.04c.05-.03.1,0,.15.1,0,.01-.04.07-.07.09-.05.04-.1,0-.15-.09,0-.01.05-.06.07-.09Z"/>
      <path d="M22.76,145.8c.11.13.21.26.32.39-.03.26-.19.16-.31.18-.17-.19-.15-.37,0-.57Z"/>
      <path d="M16.64,104.58c0,.17-.07.29-.15.24-.08-.05-.1-.13-.08-.23,0-.04-.01-.1,0-.13.04-.1.1-.14.15-.11.03.02.06.06.08.1.01.04,0,.09,0,.13Z"/>
    </g>
  </g>
</svg>