<?xml version="1.0" encoding="UTF-8"?>
<svg id="Layer_2" data-name="Layer 2" xmlns="http://www.w3.org/2000/svg" viewBox="0 0 116.47 172.08">
  <g id="Layer_1-2" data-name="Layer 1">
    <g>
      <g>
        <path d="M45.67,96.66c-.16-.04-.36-.09-.51-.13-.15-.16-.21-.25-.23-.37-.03-.2-.1-.32-.35-.41-.08-.03-.14-.05-.19-.12-.12-.17-.26-.18-.4-.24-.11-.13-.22-.26-.33-.39-.11-.04-.21-.09-.31-.13-.04-.12.05-.15.06-.22.03-.23,0-.5-.14-.79-.04-.1-.15-.2-.14-.31.07-.05.16-.11.23-.18.01-.01,0-.07-.02-.12-.16-.19-.33-.38-.52-.61-.07-.03-.17-.08-.28-.12-.04-.19-.08-.39-.11-.58-.13-.08-.17,0-.25.02-.07.03-.2-.07-.27-.17-.08-.12-.07-.21-.1-.31-.03-.1-.15-.24-.23-.27-.13-.05-.27-.1-.41-.15-.13.09-.25.18-.36.27-.15-.06-.29-.11-.43-.16-.02-.14-.05-.27-.07-.44.07-.05.16-.1.22-.17.02-.02-.02-.11-.03-.15-.11-.06-.22-.09-.31-.17-.1-.09-.18-.18-.29-.2l-.11.08c-.14-.05-.28-.11-.42-.16-.06-.06-.12-.13-.18-.2-.02-.1-.04-.2-.06-.31l-.16-.19-.31-.13c-.11-.13-.22-.27-.32-.37-.26-.11-.51-.2-.74-.3-.05.03-.09.06-.12.09-.11-.04-.21-.07-.31-.1-.12.09-.24.18-.31.23-.4-.15-.75-.28-1.13-.43-.08-.09-.19-.22-.29-.34-.05-.02-.09-.04-.12-.05-.08-.02-.14-.05-.16-.11-.03-.08,0-.12.05-.15.07-.03.12-.09.2-.14-.06-.1-.11-.2-.16-.29-.19-.11-.36-.18-.52-.19-.02.02-.06.02-.06.05,0,.12-.02.23-.03.34-.06.05-.12.09-.2.15-.28-.1-.59-.21-.9-.33-.08.06-.16.12-.24.17-.11-.04-.21-.07-.31-.1-.12.09-.24.18-.33.25-.28-.09-.52-.17-.73-.24-.24-.3-.24-.3-.09-.44.09.03.19.06.3.1.03-.03.08-.06.13-.09-.03-.12-.05-.26-.09-.43-.08-.1-.2-.23-.33-.39-.07-.03-.17-.08-.28-.12-.05-.06-.11-.12-.17-.19l-.6-.24c-.06-.07-.12-.13-.18-.2-.17-.07-.34-.12-.52-.2-.06-.03-.13-.1-.17-.17-.04-.06-.04-.13-.06-.19l.12-.09c.21.07.42.18.58.2.1-.07.17-.13.22-.16-.01-.18-.02-.31-.03-.41-.2-.24-.37-.44-.53-.63-.15-.06-.29-.13-.42-.15-.08-.02-.1.13-.23.04-.12-.09-.06-.18-.11-.3-.09-.11-.2-.24-.31-.37-.02-.11-.05-.21-.07-.32-.05-.06-.1-.13-.16-.2l-.6-.24c-.06-.23.14-.21.21-.31.1.03.2.07.3.1.09-.06.1-.06.25-.05.18.21.38.43.56.63.1.04.2.05.24.09.19.22.39.29.59.35.02,0,.05,0,.05-.02,0-.03,0-.08-.02-.1l-1.02-1.21-1.55-.59s-.06,0-.09,0c-.05.02-.09.05-.14.05-.07,0-.14-.05-.19-.14-.06.04-.11.1-.17.12-.03.01-.13-.03-.15-.07-.05-.07-.03-.13.02-.15.04-.02.09-.04.14-.04.06,0,.13.05.17.13.06-.05.12-.09.2-.14-.05-.09-.1-.2-.15-.28-.06-.04-.09-.07-.12-.08l-1.24-.47-.13.08-.3-.1c.01.1.03.2.04.29-.05.03-.09.05-.14.08l-.42-.16-.34-.4c-.11-.04-.21-.09-.29-.12-.18-.21-.35-.41-.52-.61-.02-.02-.01-.07-.02-.12.15-.11.32-.23.5-.37.1.04.24.09.37.14.09.03.2.16.23.27.02.07.02.14.04.21.16.12.32.17.47.18.18-.14.37-.27.55-.41.03-.03.01-.11.02-.17-.07-.1-.2-.19-.19-.31.02,0,.03-.03.05-.02.31.12.62.24.95.36.02.09.05.19.07.31.15.18.32.38.49.58.02.03.07.04.1.05.02,0,.05,0,.05-.02l-.14-.83c.16-.12.32-.24.54-.4.14.07.35.18.53.28.13-.17.39-.14.35-.45-.13-.04-.26-.07-.44-.12,0,0-.05.02-.13.06-.17-.06-.37-.14-.57-.22-.13.03-.15.22-.36.14-.14-.14-.28-.29-.42-.43-.09-.03-.16-.06-.24-.09-.16-.19-.33-.39-.5-.59l-.62-.25c-.07-.1-.19-.19-.18-.33.07-.05.14-.11.24-.18.07.02.17.05.27.09.04-.02.08-.05.13-.08.1.03.2.08.3.1.03,0,.04-.03.06-.04-.11-.13-.22-.26-.34-.4-.07-.08-.12-.14-.1-.2,0-.04.07-.03.15.02.03.02.07.03.13.05.11-.08.23-.17.35-.26.04-.03-.03-.21-.12-.29-.06-.06-.12-.09-.2-.12-.27-.13-.27-.13-.35-.41-.01-.04,0-.07-.02-.1-.03-.09-.15-.22-.24-.26-.07-.03-.2.01-.2.08.01.1.02.19.03.26-.1.07-.18.13-.25.18-.39-.13-.4-.13-.35.25-.07.17-.32.16-.35.37.09.3.5.49.55.81-.04.03-.07.07-.13.11.03.12.06.26.1.44.12.19.15.25.19.47.09.18.31.31.36.5,0,.03,0,.07-.01.08-.24.18-.48.36-.69.51-.19-.06-.33-.11-.45-.15-.18-.22-.35-.42-.51-.61-.11-.05-.21-.09-.32-.14-.17-.2-.34-.4-.49-.58-.12-.06-.22-.1-.31-.14-.25-.28-.45-.56-.66-.76-.15-.08-.26-.12-.34-.2-.1-.09-.18-.18-.28-.19-.04.03-.08.05-.08.05-.39-.15-.73-.28-1.08-.41.03-.06.06-.12.09-.19.22.08.41.15.61.21,0-.1-.02-.19-.02-.26.15.05.29.1.42.14.12.14.24.28.35.41q.26.04.22-.31s.07-.07.13-.12c-.03-.11-.07-.25-.11-.42-.05-.03-.15-.07-.24-.11-.07-.14-.08-.26-.08-.38,0-.08.08-.12.09-.2.01-.05-.02-.13-.03-.22.09.03.18.05.27.09.06.02.12.06.17.1.01.07.02.14.03.21.16.25.35.48.58.67.07.03.14.04.21.08.22.12.3-.1.54.06.02.02.06.01.08,0,.07-.03.11-.1.07-.22-.06-.07-.11-.13-.16-.19-.11-.05-.21-.09-.32-.13-.28-.33-.57-.67-.87-1.02-.08.01-.15.03-.27.05-.05-.02-.15-.05-.26-.09l-.12.09c-.1-.04-.2-.07-.31-.11l-.12.08c-.14-.05-.28-.11-.42-.16-.05-.34-.1-.67-.16-1.04.05-.04.14-.1.21-.15.12,0,.2.1.29.19.12.13.26.08.39.23.03.03.06.07.06.07.36.14.7.27,1.06.4,0-.05-.02-.14-.03-.24.04-.03.08-.06.12-.09.1.03.2.07.29.1.04-.03.08-.06.09-.07-.05-.37-.1-.71-.15-1.06-.1-.08-.19-.16-.28-.24-.09.07-.17.13-.25.19-.11-.04-.21-.07-.31-.11-.08.06-.16.12-.24.17l-.31-.11s-.08.06-.11.08c-.11-.04-.21-.07-.3-.1-.05.03-.1.05-.14.07l-.41-.16-.31-.12c-.14-.05-.28-.13-.41-.15-.18-.03-.3-.31-.49-.32-.07.05-.16.11-.23.17-.25-.09-.49-.19-.73-.28-.02-.01-.06-.06-.08-.1-.06.04-.1.1-.17.12-.07.02-.17-.02-.27-.12-.05.02-.08,0-.11,0-.02-.01-.06-.03-.07-.05-.04-.09-.02-.12.04-.1.07.02.12.06.16.13,0,.01-.03.04-.02.02.08-.06.13-.12.2-.14.07-.02.17.02.25.14.06-.05.12-.09.25-.18-.05-.14-.12-.35-.15-.46.06-.15.09-.21.11-.28-.19-.22-.36-.42-.54-.64-.12-.04-.26-.09-.42-.14-.06.04-.14.1-.22.16-.11-.03-.21-.06-.31-.1.03.19.05.39.08.57-.13.09-.25.18-.37.27-.15-.06-.28-.11-.43-.16l-.16-.19c-.11-.04-.21-.09-.31-.13-.09-.09-.15-.22-.3-.24-.05.03-.12.07-.17.11-.11.08-.1.16.05.33.08.1.16.22.23.27.12.08.23.05.3.16.08.14-.05.14-.1.19-.07-.04-.14-.07-.2-.11-.3-.24-.36-.28-.64-.24-.09.01-.19-.04-.28-.06-.12-.03-.16.12-.34,0-.05-.06-.1-.12-.15-.18-.11-.05-.21-.09-.31-.13-.06-.08-.14-.15-.16-.21-.05-.23-.1-.48-.15-.69.08-.05.12-.07.16-.1l1.14.43.13-.07c.06-.15-.24-.34-.21-.5l.12-.09c.17,0,.3.32.47.31l.11-.1s0-.07-.02-.1c-.06-.09-.09-.12-.15-.2-.02-.03-.03-.07-.04-.1-.01-.07-.02-.14-.04-.21l-.16-.19c-.06-.31-.11-.62-.17-.91-.17-.16-.26-.39-.47-.44-.04.03-.08.06-.09.07-.48-.18-.92-.35-1.36-.52-.22-.26-.44-.53-.67-.79-.02-.02-.01-.07-.02-.1.04-.03.07-.07.1-.1.15-.01.26.21.37.25.19.07.33.18.48.36.18.22.22.22.4.12.11.03.2.07.28.09.14-.09.27-.17.4-.24.02,0,.07.02.11.04.11.13.22.26.34.4.02.09.04.2.06.3.06.07.11.13.16.19.11.05.21.09.33.14.28.33.56.66.84.99.02.02.07.03.1.04.02,0,.05-.01.07-.03.08-.05.09-.16.02-.24-.14-.17-.27-.33-.42-.5-.04-.06-.06-.13-.08-.21l.12-.09c-.01-.1-.02-.2-.03-.29.1.03.2.07.32.1.03-.07.06-.13.1-.22-.2-.08-.37-.14-.54-.2-.14-.06-.27-.12-.41-.18-.11-.17-.25-.21-.38-.26-.22-.24-.45-.34-.68-.38-.16.06-.2.31-.48.21-.06-.06-.12-.13-.18-.2-.02-.1-.04-.2-.06-.31l-.51-.6c-.02-.11-.04-.21-.06-.31-.24-.27-.24-.27-.42-.16.03.19.06.39.08.59-.07.03-.1.12-.26.03-.09-.11-.2-.24-.33-.39-.3-.11-.6-.23-.9-.34-.07-.08-.13-.14-.17-.19-.26-.1-.5-.2-.73-.3-.07.05-.14.09-.19.14-.04.04-.09.05-.24-.05-.13-.03-.19-.41-.44-.4,0,.09.01.18.02.26-.2-.07-.37-.14-.54-.21-.04.02-.09.05-.14.07-.09-.03-.19-.06-.3-.1-.08.06-.16.12-.24.17l-.31-.11c-.08.06-.16.12-.24.17-.11-.04-.21-.07-.3-.1-.05.03-.1.05-.1.05l-.25-.08-.13,1.81.12-.52c.12.03.19.06.26.07,0,.05,0,.08-.01.11l-.06.2c.31-.11.31-.11.43-.46.18-.14.29-.41.55-.4-.02.07-.05.14-.06.2-.01.14.08.18.24.13.2-.18.39-.36.59-.53.11-.03.22-.06.32-.09q.31-.29.53-.39l-.17.58s.07.07.1.1c-.03.1-.05.2-.08.31l.22.07c.15-.14.28-.26.43-.39.03-.08.06-.18.1-.29l.19-.17c.04-.1.07-.2.1-.29.3-.06.3.18.46.27.09-.02.2-.04.23-.04.22,0,.18.22.39.17.26-.17.48-.37.74-.68.12-.39.27-.86.42-1.34.06-.06.16-.15.28-.16.11-.01.21-.07.33-.19.13-.25.19-.51.24-.74-.03-.05-.06-.09-.06-.09.03-.17.06-.3.08-.42.17-.04.32-.08.47-.11.03.03.07.07.11.11.14-.04.28-.08.49-.14.14-.13.33-.3.53-.48.05-.04.13-.04.21-.06.07.06.14.13.2.19.11-.02.2-.03.29-.05-.09.29-.17.55-.26.83.14.13.28.27.43.41.04.03.25-.08.3-.16.03-.04.04-.06.07-.09.05-.17.1-.33.16-.52.08-.08.18-.16.28-.25q.17-.15.35-.07s.05.02-.01,0c.34-.06.59-.1.78-.13.13-.1.19-.16.25-.2.16-.04.3-.08.44-.12.16.14.16.14.22.08.1-.1.08-.18.13-.28.12-.11.25-.23.39-.35.16-.05.35-.13.49-.1.11.06.11.25.36.13l.19-.18c.05-.13.04-.25.21-.39.12-.09.09-.19.15-.29.08-.12.18-.25.27-.37-.05-.05-.08-.08-.16-.15.37-.28.35-.55.46-.85l.19-.17c.06-.12.04-.19-.03-.23-.12-.07-.15-.19-.02-.45-.34.17-.56.41-.78.64,0,.16-.14.32-.29.48l-.16.5s-.06.07-.08.09l-.2.18c-.12.11-.24.17-.29.13-.04-.03-.09-.07-.07-.12.06-.23.14-.46.2-.67.09-.09.18-.15.2-.21.06-.14.09-.27.13-.38-.03-.08-.16-.09-.07-.24.13-.14.28-.29.41-.43.03-.09.05-.15.07-.23.19-.17.38-.35.58-.53.07-.2.14-.4.2-.59.07-.06.13-.12.19-.18.21-.07.4-.06.57-.16.07-.16.13-.29.18-.4-.05-.06-.08-.1-.09-.11.07-.25.13-.48.19-.7.27-.07.53-.13.78-.2.07.07.14.14.22.21.01.01.07-.01.11-.02.11-.16.14-.31.15-.45-.04-.17-.31.02-.42-.04l-.27-.26s0-.05-.01-.08l.06-.2s-.05-.08-.09-.13c-.09.02-.2.04-.32.06-.04-.04-.1-.09-.15-.14-.02-.02-.06-.03-.05-.05.01-.06.03-.13.08-.19.16-.19.3-.2.36-.13l.48.47c.11-.02.21-.05.3-.07.15.14.29.28.43.41-.03.11-.05.2-.08.31.08.02.15.04.23.06.09-.08.15-.14.23-.21.24-.05.49-.11.76-.17.03.02.07.05.1.08.03.16-.29.31-.28.47.04.03.07.07.12.12-.09.12-.18.24-.27.36-.16.5-.31,1-.47,1.5,0,.02.03.04.05.05l.3-.27c.15-.47.29-.93.44-1.41.19-.17.39-.35.57-.52.17-.41.23-.79.4-1.16.16-.15.29-.26.4-.36.1-.02.17-.04.24-.06.06-.04.1-.11.07-.16-.05-.08-.14-.14-.2-.2.05-.15.09-.29.13-.42.11-.03.21-.06.31-.09.07-.06.13-.12.19-.18.12-.37.23-.74.35-1.11.33-.09.31.21.48.24.18-.04.32-.06.45-.09.08-.07.15-.13.21-.19.1-.21-.16-.26.02-.51-.03-.04-.06-.08-.1-.12.05-.19.11-.38.16-.57-.11-.11-.22-.21-.3-.29-.23,0-.47.13-.65.1-.1-.11-.24-.18-.29-.33l.06-.2c-.11-.26-.42-.34-.52-.6.05-.14.09-.27.14-.41.14-.12.26-.24.39-.35.03-.14.07-.26.22-.4.08-.07.1-.19.17-.34.35-.36.81-.7,1.17-1.1.03-.09.05-.16.07-.24.21-.06.42-.11.62-.17.07-.06.13-.12.19-.18.08-.2.1-.39.23-.63.09-.05.19-.11.28-.16.08.08.16.15.24.23-.09.12-.18.24-.27.37l-.16.5c-.08.09-.22.16-.23.28,0,.02,0,.05.01.07.06.1.23.12.15.33-.08.2.11.27-.02.5-.06.1-.07.2-.1.3.25-.06.5-.12.78-.19.03-.12.05-.25.09-.42,0,.02,0,0,0-.02-.08-.16-.08-.16.09-.32.12-.12.29-.21.32-.39-.04-.04-.09-.09-.15-.14-.09-.09-.07-.16.11-.33.09-.09.19-.18.21-.2.12-.3.21-.53.28-.73-.05-.07-.08-.11-.11-.15l.12-.4c.1-.07.18-.2.34-.2.11.09.24.2.38.32l1.19-.3c.05.11.25.11.17.31-.03.03-.06.07-.09.09l-.2.18c-.2.18-.2.29-.01.34.02,0,.07-.02.11-.03.26-.23.52-.47.78-.71.02-.02.07-.02.12-.04.2.08.28.27.45.38.03.02.12,0,.18-.01.09-.09.22-.16.22-.32-.1-.1-.23-.22-.35-.34-.13-.12-.26-.24-.37-.37-.02-.03.02-.11.04-.18.13-.11.25-.22.4-.34.03-.02.07-.02.12-.03.14.13.28.27.43.41.11-.02.21-.04.33-.07.07.06.13.14.21.2.01.01.07,0,.1-.02.06-.03.11-.1.09-.16-.09-.21-.09-.21.11-.39l.1-.09c.18-.17.2-.24.11-.33-.13-.12-.25-.24-.36-.35-.12.02-.22.04-.28.05.03-.15.06-.27.08-.39.13-.04.24-.07.34-.1q1.07-.97,1.3-1.09s.08.06.12.09c-.03.09-.05.19-.08.29l.16.15.49-.45c.07-.23.14-.47.22-.7-.03-.03-.07-.07-.11-.1l-.31.06-.11-.1c.04-.14.08-.27.13-.4.25-.25.25-.25.43-.16.02.01.05.01.03,0,.19-.03.33-.06.44-.08.16-.15.29-.26.44-.4l-.06-.21c.1-.33.21-.66.33-1.05.13-.12.32-.29.52-.47.07-.06.22-.04.25.02.04.07-.04.19-.04.27,0,.13.08.17.26.1.07-.06.13-.11.19-.16.11-.03.21-.06.3-.09.09-.28.17-.55.26-.81.03-.03.06-.07.09-.09l.2-.18c.19-.18.19-.24.02-.34-.11.02-.21.03-.3.05-.07-.08-.13-.16-.19-.21.03-.1.05-.17.07-.23l-.21-.29c.23-.33.6-.54.84-.83.11-.37.23-.73.35-1.11.14-.03.28-.06.44-.09-.02.07-.04.16-.06.25.09-.02.2-.04.3-.06.06.03.07.14.22.07.14-.2.14-.38.22-.57l.58-.53c.07-.2.13-.4.2-.59.11-.1.21-.18.23-.29.02-.1.06-.2.09-.3l-.11-.11.13-.4c.06-.01.15-.06.17-.04.08.05.15.13.2.19-.06.2-.11.37-.17.53,0,.02.01.05.03.07.1.1.36,0,.42-.17.06-.17.14-.32.33-.5.1-.35.21-.71.31-1.07.24-.09.24.1.37.16-.07.21-.14.44-.21.67-.07.26-.21.54-.22.77.11.16.35,0,.59-.06-.03-.08-.05-.15-.09-.26.03-.07.08-.2.15-.38.11-.11.24-.27.25-.45.12-.11.24-.23.38-.34.04-.03.11-.03.16-.04-.02.1-.04.19-.06.27.12.06.12.25.36.15.07-.06.13-.12.19-.17.04-.11.07-.2.11-.31.2-.18.39-.35.61-.55-.02-.07-.05-.14-.08-.24.01-.05.04-.15.07-.25l-.1-.1c.03-.1.06-.2.08-.29l-.12-.1q-.28.06-.25-.06l.19-.18.1-.29.32-.09c.17-.23.35-.17.48-.25.17-.15.29-.27.39-.36.07-.12.03-.2.16-.3.14-.03.28-.06.4-.09.05.04.09.06.13.09.15-.03.29-.07.43-.1.07-.07.14-.12.2-.18.12-.19-.15-.2.02-.43.08-.05.18-.12.27-.18.04.02.06.03.09.04.14.08.21.06.25-.11.04-.18.28-.31.31-.48.03-.19.12-.4.18-.6,0-.03.02-.07.03-.09.07-.07.14-.12.2-.18.06,0,.15-.03.18,0,.06.05.13.07.24.02.14-.13.27-.24.37-.34.09-.26.17-.49.24-.72-.04-.04-.08-.07-.11-.11.04-.14.08-.27.13-.4.06-.06.12-.12.19-.19.03-.09.07-.2.1-.29.01-.03.06-.06.07-.11-.03-.05-.02-.08,0-.11,0-.02.03-.06.05-.07.09-.05.12-.03.11.03-.02.06-.05.12-.13.17-.01,0-.04-.02-.02-.02.08.08.13.13.18.18.11-.02.26-.09.31-.06.18.11.17.12.45-.11.03-.09.07-.19.11-.29.2-.06.41-.11.61-.17.04-.1.08-.19.12-.28.16-.03.31-.06.45-.22.11-.2.14-.39.21-.59.06-.06.13-.12.2-.18.2-.05.41-.11.59-.15.12-.17,0-.18-.05-.26.04-.11.09-.24.15-.4.14-.13.25-.29.26-.45.06-.06.12-.12.19-.19.21-.06.42-.11.62-.17.21-.19.4-.36.62-.56-.02-.07-.04-.14-.06-.21-.23.05-.44.1-.64.15-.04-.04-.07-.07-.12-.12.09-.12.18-.24.27-.37l.16-.5.19-.18c.11-.03.22-.06.32-.09.07-.07.13-.13.18-.18.04-.11.08-.2.12-.31.13-.12.26-.23.36-.33.05-.13.09-.22.13-.32.22-.17.42-.35.44-.57,0-.02.04-.06.07-.09.16-.14.21-.25.11-.33-.06-.05-.11-.1-.15-.14.05-.16.09-.29.13-.42.11-.03.22-.06.31-.09.21-.19.41-.37.59-.54.09-.28.17-.54.25-.81l.18-.18c.16-.38.15-.41.06-.63.11-.33.23-.7.35-1.07-.03-.04-.07-.07-.09-.11.03-.1.05-.2.08-.3-.07-.07-.14-.14-.21-.2.02-.05.03-.09.04-.12.08-.2-.13-.27.01-.5.01-.02,0-.06-.02-.07-.11-.06-.02-.21.01-.34-.03-.04-.06-.08-.1-.12.03-.09.05-.19.08-.29-.03-.03-.07-.07-.11-.1l.47-1.5s.04-.06-.07.11c.21-.3.28-.39.34-.48-.05-.05-.08-.08-.12-.11l.08-.3-.21-.2c.09-.19.09-.32-.01-.41l.35-1.1s-.07-.07-.11-.1c.03-.1.05-.2.09-.31-.22-.01,0-.26-.05-.41-.05-.04-.12-.11-.18-.17.03-.09.05-.15.07-.22-.04-.12-.12-.21-.26-.24l-.22.05-.07-.03c-.15-.08-.17-.08-.35.09-.1.09-.19.17-.27.25-.31,0-.51.25-.71.47-.02.07-.04.13-.06.2-.13.17-.31.3-.47.45-.18.18-.41.33-.55.54-.02.07-.04.14-.07.21-.12.11-.25.23-.38.35l-.11.31c-.13.11-.26.23-.4.36-.08.26-.16.53-.25.79,0,.02-.04.04-.07.07-.14.02-.28.05-.43.23-.03.08-.07.17-.11.29-.12.1-.25.22-.39.35-.09.03-.2.05-.31.09l-.58.53c-.04.1-.07.2-.1.29-.27.25-.54.49-.78.71-.12.04-.23.07-.34.1-1.44,1.31-2.89,2.62-4.31,3.91-.12.05-.21.02-.31.13l-.16.5c-.06.06-.12.12-.19.19-.1.03-.21.06-.32.09l-.39.35c-.11.03-.22.06-.31.09-.87.79-1.72,1.56-2.57,2.33-.08.21-.09.39-.23.61-.12.1-.25.22-.36.31-.11.03-.18.04-.27.07-.18.17-.38.34-.6.54-.03.07-.06.17-.1.27-.05.05-.12.11-.18.18-.21.06-.42.11-.62.17-.04.11-.08.21-.11.28-.35.32-.68.62-.99.9-.09.02-.16.04-.26.06-.29.23-.57.49-.83.75-.03.09-.05.16-.08.26-.17.16-.37.33-.56.51-.23.21-.46.42-.69.63-.19.18-.41.33-.55.54-.02.07-.04.14-.07.21-.13.11-.26.23-.38.35l-.11.3c-.26.24-.52.47-.78.71-.04.1-.07.2-.1.29-.14.13-.27.25-.39.35-.12.04-.23.07-.32.1-.34.31-.67.6-.97.88-.41.11-.44.13-.55.41-.04.11-.11.2-.2.27-.06.2-.12.4-.16.55-.2.18-.33.3-.45.41-.04.1-.07.2-.1.29-.16.23-.34.17-.51.29l-.06.2c-.23.3-.6.51-.82.82-.02.07-.04.13-.07.21-.65.59-1.3,1.18-1.96,1.77-.04.11-.08.2-.12.31-.78.71-1.57,1.42-2.35,2.13-.04.1-.07.2-.11.31-.2.18-.39.36-.58.53-.04.11-.07.2-.11.31-.33.3-.65.59-.96.87-.05.12-.08.22-.12.3-.34.31-.67.61-.95.86-.06.15-.1.25-.14.33-.22.19-.4.41-.65.4-.04.1-.07.19-.11.29-.05.05-.12.11-.18.16-.04.11-.07.2-.11.31-.46.41-.92.83-1.37,1.24-.04.11-.07.21-.11.31l-1.77,1.6c-.02.17-.12.33-.31.48-.06.05-.11.12-.17.18-.02.07-.04.13-.07.21-.22.26-.5.47-.76.71-.23.21-.45.41-.69.63-.25.24-.54.45-.75.71-.03.08-.05.15-.07.23-.1.03-.2.06-.31.09-.25.23-.51.47-.78.71-.01.03-.02.06-.04.09-.02.07-.05.13-.07.2-.07.06-.13.12-.2.18-.08.02-.15.04-.22.05-.04.02-.07.03-.11.04-.24.23-.23.23-.17.34.07.13.07.15-.12.33-.1.08-.2.17-.28.24-.41.11-.43.13-.57.52-.12.11-.25.23-.4.36-.19.05-.41.11-.61.16-.07.06-.13.12-.19.17-.04.11-.08.21-.11.31-.13.12-.26.23-.38.34-.06.18-.11.35-.17.55-.2.05-.4.1-.61.15l-.39.35c-.11.03-.21.06-.31.09-.04.1-.07.2-.11.31-.13.12-.26.23-.38.35-.02.28-.28.46-.52.64-.07.02-.14.04-.22.05-.03.06-.08.12-.08.17-.02.11-.12.2-.23.29-.1.03-.21.06-.32.09-.12.19.15.2,0,.4q-.31.28-.52.38l.07-.27s-.06,0-.09.01c-.03.01-.07.03-.1.06l-.3.27c-.22.21-.47.39-.66.63-.02.07-.04.14-.07.24-.43.39-.89.81-1.35,1.22-.03.02-.07.03-.1.05l-.22.05c-.07.06-.13.11-.23.19-.02.11-.05.24-.08.39.06,0,.15-.02.24-.04,0,.02.02.04,0,.06-.09.16-.26.3-.3.48-.03.13-.2.24-.37.26-.11-.1-.21-.2-.32-.3-.01-.01-.07.01-.14.03l-.18.57-.2.18-.16.5c-.02.07-.08.1-.16.1-.13-.04-.12-.23-.33-.18-.22.14-.4.33-.59.51-.22.21-.47.39-.72.71-.09.29-.2.65-.32,1.01-.15,0-.15,0-.21-.06-.05-.05-.12-.08-.17-.12-.26.17-.26.17-.34.35-.11.26-.14.28-.41.37-.03,0-.07.02-.12.03-.25.23-.51.46-.79.72-.03.07-.06.17-.1.28-.06.05-.12.11-.18.17-.14.2.13.21,0,.4-.13.12-.27.24-.4.36q-.27.01-.18-.33c-.16.03-.19.04-.66.49l-.27.26c-2.19,2.1-2.26,5.4-.29,7.6.07.08.16.18.27.3.07.03.14.05.21.08.35.31.59.74.94,1.05.14.04.28.09.38.26.21.07.41.14.57.2.57.67,1.08,1.27,1.58,1.87.11.05.21.09.32.13.28.33.57.67.83.98.12.05.22.1.33.15.14.22.35.39.48.61l.03.21s.03.07.06.1l.68.81c.05.06.09.13.15.22.04.26.08.53.12.79.12.15.24.28.35.41.14.05.28.11.44.17.15-.11.32-.23.48-.35.02-.01.06.01.1.02.21.15.35.38.52.57.2.22.38.48.6.68.04.01.07.03.1.04.09.02.14.05.16.12,0,.03.02.08,0,.09-.08.07-.16.12-.23.17-.12-.04-.22-.07-.33-.11-.05.12-.25.09-.19.32.39.47.79.93,1.19,1.41l.61.25c.12.24.31.2.42.31.04.17.08.31.11.42-.17.15-.17.15.05.43.02.09.04.2.06.31.05.06.11.13.16.19.11.07.17.02.25,0,.07-.02.19.03.32.06.06-.04.14-.1.22-.16.11.04.2.07.31.1.08.02.14.05.17.11.04.09.02.13-.04.15-.06.01-.09.07-.04.15.03.04.11.07.17.1.03.02.07.03.1.04.03.03.06.06.09.09.11.13.15.24.1.28-.03.03-.08.07-.14.06-.28-.11-.55-.21-.83-.31,0,.03,0,.06,0,.09,0,.03.03.07.05.1.06.07.11.13.17.2.23.26.43.55.68.77.08.03.15.06.22.08.29.25.48.61.77.84.08.03.15.06.23.09.11.13.22.26.33.39l.32.13c.11.13.22.26.33.39.11.04.21.09.3.12.23.28.46.54.68.8.03.12.05.22.07.33.17.2.34.4.5.58.05.29.09.57.14.85.16.19.33.39.5.59l.06.32.16.19c.1.04.21.09.31.13.06.07.11.14.16.2.02.11.05.21.07.33.09.07.19.15.27.22.05-.04.09-.07.14-.1l-.04-.29s.08-.06.14-.1c.09.07.18.15.26.21.21.08.41.15.56.21.29.34.51.61.74.87l.07.41c-.14.14-.19.13-.38-.08-.06-.07-.11-.14-.17-.2-.06-.05-.13-.08-.2-.12-.04.03-.08.06-.13.1.03.13.05.26.09.43.37.44.77.91,1.16,1.37.02.11.05.21.07.32.05.06.1.13.16.2.1.04.2.08.3.13.23.27.45.54.68.8l.06.32c.74.87,1.48,1.74,2.21,2.61.03.18.06.35.09.53.12.17.24.35.22.52.11.13.22.26.35.41.08.03.18.08.28.12.02.09.04.19.06.3.05.06.11.13.16.19.02.11.04.21.06.3.13.15.24.28.34.4.12.05.22.1.29.13.14.16.25.29.33.39.04.13.06.24.08.31.18.23.38.41.51.66-.02.11.03.25.19.4.09.04.19.08.3.13.22.26.44.52.67.8.02.1.04.2.06.31.4.47.79.94,1.19,1.4.02.11.04.21.07.32.17.2.34.4.49.58.03.12.05.22.07.31.27.32.53.62.78.92.03.03.04.07.06.1.08.38.09.39.49.56.5.59,1.01,1.19,1.54,1.82.02.08.04.18.06.29.16.19.33.39.5.6.1.04.2.08.31.13.22.27.45.53.63.75.25.17.43.15.63.32l.03.21c.2.16.39.17.59.26.05.06.11.13.18.21.01.12.03.25.05.43-.01.06-.17.05-.06.24l.83.31s.07.06.09.09c.09.12.19.18.27.16.07-.02.12-.08.25-.01.05.06.11.13.17.2.02.1.04.2.06.3.06.07.12.14.17.2.28.11.56.21.83.32.03.03.07.06.09.08q.22.2.41.11l.41.16.06.3c.06.07.12.13.17.19.11.05.21.09.32.14.62.74,1.25,1.47,1.8,2.12.32.15.56.26.78.36.14-.1.26-.19.38-.28.2.11.33.1.44.03.17.07.35.13.54.2-.03-.19-.06-.39-.08-.58l.12-.09c.38.15.76.29,1.14.43.06.02.16-.09.13-.16-.03-.07-.07-.14-.12-.2-.14-.16-.33-.11-.48-.33-.03-.05-.13-.08-.19-.11-.13-.05-.28-.11-.41-.16-.02-.19-.03-.19.21-.3.18.05.31.09.43.12.14.16.25.29.32.38.28.12.52.22.76.32-.03-.16-.05-.3-.07-.44-.11-.13-.22-.26-.34-.4-.09-.04-.2-.08-.3-.13l-.07-.41s.07-.07.11-.11c-.01-.09-.02-.19-.04-.3.12-.09.24-.18.37-.27-.02-.13-.04-.27-.08-.41-.02-.06-.1-.13-.15-.2-.17-.08-.34-.17-.49-.17-.18.1-.3.27-.5.33-.14-.06-.27-.11-.4-.16,0-.05-.03-.1-.02-.12.16-.12.32-.24.5-.37.08.03.18.06.28.1l.12-.09c.1.04.21.07.3.11l.11-.1c-.02-.14-.05-.28-.07-.42l-.16-.19c0-.06-.02-.14,0-.18.02-.04.08-.06.14-.05.13.04.27.1.41.15.12.14.23.27.34.4.05.02.08.03.12.05.06.04.11.07.17.1.01.07.01.14.04.21.08.2.28.33.39.25.06-.04.12-.09.17-.13-.03-.16-.05-.29-.07-.43-.12-.15-.13-.16-.2-.33.12-.1.25-.21.37-.31-.02-.1-.04-.18-.04-.24.01-.13.15-.15.28-.04.06.05.13.17.17.18.24.05.39.25.56.45.09.1.18.12.26.07l.54-.41s0-.07-.02-.1c0-.02-.04-.05-.07-.06-.06-.03-.14-.05-.23-.09-.1-.12-.22-.25-.32-.38-.03-.04-.01-.1-.01-.14.14.05.28.09.4.13.07.09.13.15.2.24l.23-.03c-.01-.11-.02-.21-.03-.31.09.03.19.06.29.1l.11-.08c.1.03.2.06.29.1-.02-.15-.05-.28-.07-.42l-.17-.2-.3-.13c-.08-.1-.19-.2-.18-.33.31-.23.64-.47.96-.71-.01-.1-.02-.2-.04-.32.23.1.47.2.71.3,0,.03.03.11.01.14-.06.08-.14.14-.21.21-.01.01,0,.07.01.1l.17.2c.14.05.27.1.43.16.07-.05.15-.11.24-.18.2.08.4.15.61.23l.1.04c.11.05.26.29.21.37-.04.06-.13.08-.08.21.05.06.1.13.16.21.02.1.04.2.06.3.14.05.27.1.44.17.23-.17.47-.35.72-.53.02-.01,0-.06,0-.1-.11-.16-.24-.32-.36-.49-.03-.17-.05-.34-.09-.52-.01-.06-.09-.13-.15-.21-.09-.04-.2-.09-.3-.13-.05-.06-.11-.12-.17-.19l-.3-.12c-.02-.1-.04-.2-.06-.3-.06-.08-.11-.14-.16-.21l-.03-.21c-.01-.07-.07-.11-.16-.12l-.24.18q-.27-.15-.34-.41l.36-.27q-.04-.28.09-.23l.16.19c.31.12.62.24.83.33.18.14.28.22.36.28.09-.07.18-.13.26-.19.1.04.21.07.3.1.09-.06.17-.12.24-.18-.02-.14-.05-.28-.07-.42-.05-.06-.11-.13-.16-.19-.24-.09-.48-.18-.75-.29-.05,0-.08.12-.2.04-.06-.04-.13-.1-.18-.16-.08-.1-.16-.2-.23-.3-.02-.03-.01-.07-.02-.1.05-.06.18-.05.1-.19-.06-.11-.18-.1-.27-.15-.06-.06-.12-.12-.19-.2-.19-.08-.4-.16-.61-.25-.17-.2-.34-.4-.5-.59-.11-.05-.21-.09-.31-.13-.22-.28-.22-.29-.07-.42.2.07.39.14.59.21-.11-.28-.12-.28-.45-.57l-.23.05-.52-.2s-.09.04-.15.07c-.09-.03-.19-.07-.29-.1-.22-.09-.28-.14-.35-.41-.03-.11-.09-.2-.16-.31-.03-.05-.03-.12-.04-.17.07.03.13.05.21.08.09.03.19-.04.18-.1-.03-.17-.06-.34-.09-.52.06.02.13.03.17.07.12.12.23.26.32.37.34.13.65.25.96.36.03.01.06,0,.11,0,.02-.06.05-.13.07-.2-.19-.22-.36-.42-.62-.73-.12-.02-.32-.06-.42-.08-.19-.16-.29-.23-.38-.3-.09.07-.18.13-.26.2-.13-.06-.27-.11-.42-.18-.12-.18.05-.17.07-.26-.03-.17-.06-.34-.09-.53.09.02.17.05.3.09.04-.03.1-.07.16-.12.09-.07.09-.07-.06-.34-.04-.07-.07-.14-.08-.2-.01-.09-.03-.14-.09-.18-.13-.04-.27-.09-.39-.28-.02-.08-.04-.18-.07-.31-.12-.03-.26-.07-.43-.12,0,0-.05.02-.1.04-.23-.04-.47-.16-.71-.24-.16-.21.02-.19.05-.27-.14-.26.11-.29.05-.51-.11-.13-.22-.26-.37-.44-.1-.03-.23-.07-.37-.12-.18-.08-.34-.15-.51-.22-.11-.17-.25-.21-.38-.26-.22-.25-.45-.33-.67-.37-.05.02-.09.04-.07.03-.3-.09-.53-.15-.73-.21-.1-.2,0-.2.06-.26.1.03.2.07.3.11l.43-.31c-.09-.1-.17-.2-.31-.36ZM43.8,98.86s-.06-.03-.07-.05c-.04-.09-.02-.12.04-.1.07.02.12.06.16.13,0,.01-.03.03-.05.04.28,0,.29.09.28.09-.05,0-.1,0-.15-.04-.1-.07-.11-.13-.02-.12.04,0,.1.04.16.08-.29,0-.32-.01-.35-.03ZM33.71,37.25c-.08-.09-.06-.16.1-.3l.18-.17-.16-.16c.04-.13.09-.26.13-.4.19-.12.22-.01.26.07-.09.16-.03.31-.22.49.02.02.05.03.04.05-.05.15-.09.3-.14.44,0,.02-.06.05-.08.08-.03.21-.11.23-.11.22,0-.04,0-.1.03-.14.06-.1.12-.11.13-.03,0,.04-.04.1-.07.15-.01-.23-.05-.26-.08-.3ZM19.82,53.77c.04-.13.09-.26.13-.4.28-.28.32-.29.45-.11,0,.11-.13.19-.21.27-.1.14-.03.26-.21.39.03.15.03.16-.12.49-.22,0-.23,0-.16-.24l.28-.25-.16-.16ZM19.37,55.19l.62-.14c-.09.24-.3.37-.51.51-.03.02-.07.02-.09,0-.05-.02-.08-.06-.12-.09-.07,0-.14.04-.21.1l-.19.18c-.2.18-.26.18-.38.03.04-.13.08-.26.12-.4.06-.06.13-.11.18-.16.09-.14.03-.26.21-.4l-.16-.15.08-.29-.11-.1.12-.39c.1-.14.22-.24.37-.24l.09.11c-.11.35-.22.71-.35,1.12.07.07.2.19.32.31ZM18.8,57.95s.07,0,.1-.02c.02-.01.06-.05.06-.06.05-.16.11-.33.16-.5l.19-.18c.06,0,.16-.05.19-.02.12.09.26.17.12.42.12.14.05.36-.07.6-.03.03-.06.06-.1.09-.03.03-.08.07-.1.07-.24-.03-.5.34-.74.32-.06,0-.13.02-.19.03l.16-.5c-.03-.07-.06-.13-.08-.2-.01-.06.04-.13.13-.19-.05-.07-.04-.1-.03-.13,0-.02.03-.06.05-.07.09-.05.12-.03.11.03-.02.06-.05.12-.13.17-.01,0-.04-.02-.05-.04.1.1.15.16.21.2ZM44.01,101.26c-.02-.09-.04-.19-.06-.29l-.83-.31c-.16-.14-.3-.29-.4-.48-.02-.19.18-.16.22-.28-.01-.11-.02-.2-.03-.3.05-.03.1-.05.14-.07l.52.2c.17-.04.23-.04.46.04.05-.04.11-.08.17-.12.08-.06.17-.05.25.03.09.09.17.2.17.3,0,.03.01.07.02.11.2.17.38.17.59.27.16.19.33.39.51.6.23.09.47.19.71.26.05.02.09-.04.14-.06,0-.09-.02-.19-.03-.29.03-.03.07-.06.12-.1.33.14.68.28,1.02.42.01.07.04.17.06.28l.33.39c.02.14.05.28.07.42-.16.12-.32.23-.49.36-.18-.07-.39-.14-.58-.21-.04.03-.08.06-.12.09,0,.04,0,.08.02.11.16.21.31.39.48.61.03.04.02.11.03.17-.28-.1-.55-.21-.84-.32-.07.05-.15.11-.24.18-.13-.05-.27-.09-.4-.15-.06-.03-.13-.1-.18-.17-.04-.06-.05-.13-.07-.19.1.03.2.07.3.1.04-.04.07-.07.11-.11l-.07-.41-.17-.2c-.17-.12-.21.03-.33,0-.09-.02-.19-.07-.28-.06-.28.03-.3.02-.64-.25-.03-.03-.05-.04-.09-.07-.09-.06-.19-.02-.26-.16-.03-.07-.03-.14-.04-.22l-.29-.13ZM16.7,75.03c-.07-.03-.14-.05-.22-.08-.21.05-.32.23-.5.32-.04.02-.12-.02-.18-.03l-.34-.4c-.03-.1-.02-.14.04-.12.1.03.21.11.28.05.02-.02.04-.03.07-.05-.01-.09-.02-.19-.03-.3l.11-.08c.01-.11-.06-.2-.13-.31-.06-.09-.07-.2-.13-.37-.04-.09-.17-.21-.28-.34-.07-.08-.15-.09-.25-.04l-.07.03c-.18-.1-.33-.11-.42-.03-.15-.05-.28-.1-.41-.14-.12-.15-.24-.28-.35-.41-.07-.23.13-.21.21-.32.29.1.59.21.89.32-.01-.1-.02-.2-.03-.29.14-.13.14-.13.02-.31-.19-.28-.16-.35.14-.3.06.07.11.13.17.2.48.18.96.36,1.44.54l.85,1c.11.05.21.09.31.14.05.06.11.12.17.19.1.04.2.08.3.12.07.22-.13.2-.19.32-.3-.08-.61-.23-.91-.33l-.61.45c.02.19.1.4.06.57ZM8.41,64.17c.05-.03.08-.06.04-.15-.02-.06-.08-.09-.16-.11-.03,0-.07-.03-.1-.04-.14-.18-.4-.32-.38-.55.14.05.27.1.42.16l.16.19.31.13.34.4c.1.04.21.08.3.12.06.07.11.14.16.2.02.11.04.21.06.3.06.08.11.15.16.21l.07.41s-.08.06-.15.11c.04.17.1.38.14.56-.2.12-.2.11-.35-.04-.18-.17-.18-.17-.33-.12-.02,0-.05.01-.06.02-.15-.05-.28-.1-.41-.15-.18-.21-.34-.41-.51-.6-.1-.04-.2-.08-.3-.12-.29-.34-.57-.67-.87-1.02.02-.07.05-.14.08-.21.37.14.72.15,1.05.56.14-.1.24-.18.34-.25ZM9.1,62.3c-.18.25.07.3-.02.51-.06.05-.12.11-.21.19-.12.02-.26.05-.43.08-.08-.05-.19-.13-.41,0-.1-.09-.19-.18-.28-.27q-.09-.09.11-.33s.05-.06.04-.05c.07-.17.12-.31.17-.43-.09,0-.16.04-.23.09-.27.19-.27.19-.39.03.04-.2.29-.3.46-.55.09-.2.11-.47.26-.78.04-.01.1-.04.11-.03.29.28.58.55.88.83-.05.18-.11.37-.16.56.04.04.07.08.1.12ZM23.47,78.42c.07.3-.21.26-.31.4-.25-.04-.52-.17-.79-.29-.11-.18-.25-.22-.41-.27-.25-.26-.5-.56-.69-.81-.05-.15-.06-.26-.12-.36-.07-.11-.14-.2-.13-.29l.24-.18c.21.05.3.28.47.44.08.04.18.08.3.14.15.18.32.38.53.62.17.05.37.1.53.15.16.19.27.32.38.45ZM38.21,36.19c-.09.07-.17.05-.24-.01l-.16-.15s-.06-.08-.09-.11c.02-.07.04-.13.06-.2,0-.02-.01-.03-.02-.05l-.53.13c-.08-.02-.14-.05-.13-.16.01-.07.06-.13.14-.19.03-.02.07-.06.1-.09.06-.06.12-.12.18-.17.04-.1.07-.2.11-.3.13-.12.26-.23.37-.34.04-.11.08-.2.11-.29.23-.07.23.12.35.17-.03.09-.05.19-.08.29l.32.3s-.01.07-.02.09l-.28.89c-.06.06-.12.13-.18.18ZM11.39,64.42c.02.11.05.24.07.37-.01.02-.02.05-.04.04-.17-.07-.34-.13-.51-.19-.04.02-.09.05-.14.07-.09-.03-.19-.06-.3-.1-.03.02-.07.05-.13.09-.13-.06-.26-.12-.45-.2-.15-.12-.28-.36-.45-.51-.09-.2-.11-.36-.09-.5.04.01.08.02.1.04.17.2.33.38.52.59.07.07.13.07.15.03-.03-.17-.06-.34-.09-.54.07-.05.14-.12.23-.16.03-.01.11.04.16.06q.05.27.29.36c.1.04.21.08.32.12.1.12.21.25.35.41ZM47.87,103.82l.41.16c.06.06.11.12.21.23.2.06.43.12.75.21.07-.05.22-.14.35-.23q.16.1.29.26s.03.09.01.1c-.11.1-.21.2-.34.32,0,.06.01.15.02.26-.1.12-.22.25-.42.27-.03-.02-.07-.02-.1-.05-.06-.06-.11-.13-.16-.19-.02-.11-.04-.21-.06-.29-.13-.15-.24-.28-.34-.4-.15-.06-.28-.11-.43-.16-.08.06-.15.13-.24.17-.05.02-.13-.03-.16-.09-.02-.03-.03-.09-.02-.1.07-.07.16-.12.24-.18l-.04-.29ZM32.89,39.73s-.04-.06,0-.14c.02-.03.02-.07.03-.1l.09-.3s-.07-.07-.09-.11c-.03-.07.04-.14.18-.19l.21.2s.07,0,.1-.02c.23-.12.38-.34.58-.48.04-.08.08-.15.11-.21.09-.23.13-.26.4-.35l.21.2c-.04.14-.08.27-.13.41-.12.11-.25.23-.4.36-.09.02-.19.06-.31.09-.12.11-.25.23-.38.34l-.32.09c-.1.07-.18.2-.3.2ZM41.06,33.81c-.25.06-.5.12-.75.18.11-.32.21-.65.33-1.01.02-.02.08-.08.15-.15.13-.03.27-.07.4-.11.15,0,.17.11.25.16.04.22-.17.51-.17.73-.09.09-.16.14-.22.2ZM20.15,72.62c.09.08.2.11.33.17.09.1.2.24.36.42.02.19.04.42.06.67-.09-.03-.21-.07-.33-.11-.07-.06-.13-.11-.19-.17l-.68-.81s-.04-.07-.06-.11c-.05-.21.19-.14.21-.28.13.03.21.13.31.21ZM43.48,98.23c-.07.05-.15.11-.22.16.01.08.03.16.03.22,0,.1-.06.17-.16.12-.19-.1-.29-.03-.43-.02-.02,0-.06-.03-.09-.05.07-.19-.23-.42-.24-.62.2-.15.4-.3.62-.46.11.05.25.11.4.18.08.15.08.29.08.45ZM44.06,28.76s-.08-.08-.11-.11c.03-.15.15-.3.3-.32.19-.03.34-.17.51-.26.03-.02.06-.01.1-.02l.32.31c-.14.29-.43.47-.67.68-.15.04-.3.08-.43.11-.04-.04-.08-.07-.12-.12.03-.09.07-.18.1-.27ZM36.85,34.17s-.05.06-.08.09c-.17.18-.18.35-.01.34.06,0,.15-.05.21-.05.14,0,.18.08.12.23-.07.06-.13.12-.2.18-.33.03-.33-.28-.57-.34.02-.11.04-.2.07-.31q-.1-.21.15-.47c.04-.13.08-.26.12-.4.02-.08.04-.14.1-.16.09-.04.13-.02.16.02.04.06.1.11.16.16-.07.23-.15.46-.22.7ZM45.53,99.65c-.1-.03-.2-.07-.3-.11l-.24.17c-.26-.12-.26-.12-.35-.4l.36-.27c-.01-.1-.03-.19-.04-.3.04-.03.07-.06.12-.09.1.01.18.08.27.19.09.11.19.1.29.16.15.09.24.22.25.36l-.36.27ZM40.1,34.15c-.03.13-.08.24-.06.31.02.07.11.1.03.24-.14.13-.31.28-.47.42q-.17.15-.34.07s-.03-.04-.02-.07c.12-.4.25-.8.39-1.25.3,0,.31.23.47.27ZM18.16,76.14c.05.07.11.13.18.22-.03.06-.05.13-.12.28.03.1.08.31.13.48-.07.05-.12.08-.16.12-.14-.05-.27-.11-.42-.16-.02-.09-.04-.19-.07-.3-.07-.08-.15-.18-.24-.28-.16-.19-.14-.36.05-.33.06.01.14.05.23.09.17-.06.19-.25.42-.1ZM47.06,104.74s.09-.05.12-.08c.25.09.49.18.73.27,0,.06.01.14-.02.17-.09.09-.2.15-.3.23-.13.03-.36-.18-.42-.01-.16-.04-.32-.08-.52-.22-.04-.08-.1-.18-.14-.28.09-.07.18-.13.25-.19.1.04.2.07.3.11ZM41.67,96.27c.01.1.03.2.04.3l-.49.35s-.07-.01-.1-.04c-.05-.04-.08-.1-.06-.17,0-.02.04-.03.06-.05.08-.09.08-.1-.12-.36-.05-.17-.1-.34-.07-.49.02-.02.03-.04.06-.04.24,0,.51.16.76.26.06.16-.04.17-.09.22ZM40.8,92.66l.12-.09c.21.05.38.38.58.36.06.06.11.12.18.2.09.04.19.08.29.12.05.11,0,.17-.05.21-.06.05.01.19,0,.27-.02.12-.11.16-.26.07-.06-.07-.11-.13-.16-.19-.02-.11-.04-.21-.06-.31-.06-.07-.12-.13-.18-.19-.2-.09-.4-.12-.63-.28-.04-.08-.1-.18-.15-.29.12.04.22.08.32.12ZM49.01,24.67q-.13.26-.4.35s-.08-.06-.11-.09c-.11.02-.21.04-.29.06-.08-.08-.15-.15-.22-.21.05-.15.09-.28.13-.41.21-.11.21.14.44,0,.12-.11.25-.23.37-.34.11-.05.15-.04.13.03l-.16.5.11.1ZM39.61,32.6c.03-.11.06-.24.12-.38.02-.06.1-.14.16-.18.06-.04.14-.06.2-.08l.11.1c-.02.07-.04.14-.06.2,0,.03,0,.06-.01.1.1.1.21.2.31.29,0,.13-.12.21-.27.35-.1.02-.23.04-.37.06-.08.01-.15-.06-.13-.15.01-.06.04-.13.06-.2-.03-.04-.06-.08-.1-.13ZM12.06,69.17c-.03-.13-.05-.26-.08-.38.05-.08.17.04.25.04.11,0,.17-.1.33-.01.1.06.2.09.27.12.13.16.24.29.34.4.06.16-.03.17-.08.22-.18,0-.3-.3-.47-.31l-.12.09c-.14-.05-.27-.1-.43-.16ZM56.05,15.76c-.14.13-.27.25-.4.36-.12.05-.18.01-.24-.03-.06-.05-.19.02-.28.03-.02,0-.03-.02-.03-.04,0-.03.01-.07.04-.09l.96-.87s.07-.03.15-.05c-.08.27-.14.49-.2.7ZM12.86,67.43l.12-.09c.22.07.44.13.66.38.02.02.07.03.1.04.08.02.13.05.16.11.03.08,0,.12-.04.14-.07.03-.12.08-.19.13-.12-.05-.26-.11-.46-.19-.13-.19-.33-.33-.34-.52ZM13.64,68.82c-.12-.05-.26-.11-.42-.18-.17-.14-.31-.35-.47-.54-.04-.05-.05-.13-.08-.2.22.06.44.14.66.37.04.05.13.04.2.08.06.04.13.1.17.16.04.06.05.13.07.2-.04.03-.08.06-.13.09ZM49.34,22.24q-.13.03-.05-.24c-.07-.07-.14-.13-.22-.22.05-.12.1-.25.16-.4.14-.09.29-.1.43-.11-.02.07-.06.14-.06.2,0,.08.07.13.07.21,0,.12-.05.25-.08.35-.12.1-.19.16-.25.22ZM17.79,70.8c.07.08.16.18.24.27.2.23.2.25.03.38-.13-.05-.27-.1-.42-.16-.07-.08-.16-.18-.24-.27-.2-.23-.2-.25-.03-.38.13.05.27.1.42.16ZM38.37,91.2c.13.02.27.1.44.16-.02.08-.04.15-.06.21-.08-.02-.14-.02-.21-.04-.21-.08-.41-.15-.58-.22-.23-.32-.26-.36-.06-.42.13-.04.29.28.48.31ZM38.33,32.62c-.13.15-.28.3-.45.4-.15.07-.15-.04-.22-.07.01-.1.08-.18.18-.27.1-.09.09-.19.13-.28,0-.02.04-.06.06-.06.14-.04.28-.08.42-.12-.05.15-.09.28-.13.41ZM47.62,22.8c.27-.25.27-.25.28.03,0,.03,0,.05.03.07.09.08.08.18-.1.32-.12.1-.1.19-.15.29-.03.06-.09.11-.17.09-.05-.01-.08-.06-.11-.1l.22-.7ZM36.09,37.91c.09-.08.15-.14.21-.19.25-.02.25-.02.21.21l-.58.52c-.25.04-.25.04-.23-.19.1-.03.21-.05.32-.09.02-.09.04-.19.06-.26ZM41.42,30.87c.06-.02.15-.07.17-.05.12.09.22.2.32.3-.13.26-.13.26-.4.35l-.21-.2c.04-.13.08-.26.12-.4ZM16.77,57.66s-.08.03-.11.02c-.04,0-.03-.06,0-.14.08-.2.09-.39.24-.62.08-.05.18-.1.29-.16-.08.26-.15.49-.23.72l-.2.18ZM50.97,19.88c-.04-.12.09-.29.09-.41.08-.07.14-.13.2-.19.16-.05.25-.01.24.12-.01.12-.07.25-.1.37-.15.04-.29.07-.43.11ZM25.68,50.86c.07-.19.29-.29.42-.44.09-.04.16-.04.14,0-.07.23-.14.44-.21.67-.21,0-.21,0-.35-.23ZM51.32,20.45l-.39.35q-.25.03-.22-.21l.39-.35q.25-.03.22.21ZM56.49,15.99c.05.15-.08.33-.08.46-.12.11-.23.25-.36.2.07-.24.14-.46.22-.7.08.01.16.03.22.04ZM14.05,67.2c-.2-.08-.24-.13-.34-.41.2.08.39.15.59.23.08.03.13.05.15.11.03.08.01.12-.05.14-.02,0-.04.03-.06.04-.1-.04-.2-.08-.3-.11ZM17.19,59.47s-.04.06-.07.12c-.08.05-.18.11-.34.2.1-.27.18-.49.26-.71,0-.02.04-.05.06-.06.09-.05.13-.03.16.02,0,.02.03.03.07.07-.04.1-.09.23-.13.36ZM38.05,89.98c-.14-.2,0-.19.06-.25.1.04.2.08.3.11.2.08.24.13.34.4l-.69-.26ZM42.42,99.15c-.08-.1-.16-.18-.25-.29-.07-.07-.11-.13-.11-.2,0-.05.05-.04.13,0,.1.04.2.07.28.1.08.09.13.15.19.22q0,.23-.25.18ZM32.11,40.71l-.31.06c-.21.05-.24.02-.21-.22.06-.06.13-.12.25-.23.17.1.36.12.26.38ZM25.34,49.69c.11-.1.19-.17.3-.27.07-.07.13-.11.2-.12.06,0,.05.04.02.12-.04.1-.05.19-.07.27-.09.08-.15.14-.22.2-.22.06-.27-.02-.22-.2ZM45.51,111.12q-.25-.14-.34-.4l.12-.09q.26.13.34.4l-.12.09ZM16.49,71.68c.12.02.26.09.39.13.05.17,0,.25-.14.23-.12-.02-.26-.09-.39-.13-.05-.17,0-.25.14-.23ZM38.92,92.08c.07-.03.09-.14.22-.04.11.08.06.17.09.26.01.03.01.07.02.1v.08c-.25-.14-.25-.14-.32-.4ZM37.32,37.61c-.09.07-.18.21-.29.19-.09-.02.01-.15.02-.23,0-.03.02-.06.03-.1l.04-.09c.24-.01.24-.01.2.22ZM18.28,55.08c-.1.02-.2.03-.3.06-.09.03-.14.03-.14-.02,0-.07.05-.13.13-.18.03-.02.06-.06.1-.09.21-.06.29,0,.21.22ZM19.95,55.62c.03-.05.09-.08.17-.08l.21.2s-.01.07-.03.1c-.03.05-.09.08-.17.08l-.21-.2s.01-.07.03-.1ZM6.89,67.06c.09.12.26.23.16.34l-.4-.15c-.04-.21.05-.25.24-.19ZM20.31,54.48c.2-.16.2-.01.27.03-.05.2-.2.31-.4.36.04-.14.08-.26.12-.39ZM24.12,79.9c-.07-.1-.21-.19-.17-.29.03-.08.16.03.24.05.03,0,.07.02.1.04l.09.04c-.01.22,0,.23-.25.16ZM32.66,89.15c.1.04.2.09.3.12.08.03.13.05.15.11.03.08.01.12-.05.14-.02,0-.04.03-.06.04-.25-.14-.25-.14-.34-.41ZM18.48,86.09s-.05-.04-.06-.07c-.06-.12.07-.22.2-.15.02.01.04.04.06.07.06.12-.07.23-.2.15ZM18.47,72.57c.08.05.08.15,0,.21-.02.01-.03.04-.06.04s-.07-.02-.1-.04c-.05-.03-.08-.1-.06-.16,0-.02.04-.03.06-.05.03-.06.08-.06.16,0ZM20.46,51.74c.01-.11.23-.31.33-.29.02,0,.03.02.03.04,0,.03-.01.07-.03.09-.06.06-.12.12-.19.17-.03.02-.07.02-.1.03-.01-.01-.03-.02-.03-.04ZM56.21,17.95c.05-.19.19-.31.4-.36-.05.19-.19.31-.4.36ZM50.5,20.39c-.21.06-.29-.01-.22-.21.21-.06.29.01.22.21ZM30.69,85.54c.04.09.03.13-.02.13-.03,0-.09-.03-.09-.04-.04-.09-.03-.13.02-.13.03.01.09.03.09.04ZM31.72,88.39c-.04-.09-.03-.13.02-.13.03,0,.09.03.09.04.04.09.03.13-.02.13-.03-.01-.09-.03-.09-.04ZM11.7,77.78s.06.02.09.04c.05.03.08.09.07.16,0,0-.06-.02-.09-.03-.05-.03-.08-.09-.07-.16ZM11.07,61.89s.02-.09.03-.09c.09-.04.14-.04.14,0,0,.03-.02.06-.03.09-.09.04-.14.03-.14-.01ZM9.56,58.59s.02-.09.03-.09c.09-.04.14-.04.14,0,0,.03-.02.06-.03.09-.09.04-.14.03-.14-.01ZM11.99,58.04c0-.07.04-.13.09-.15.03-.01.1-.03.1-.02,0,.07-.03.12-.09.15-.03,0-.1.03-.1.02ZM35.22,39.81s.01-.06.03-.09c.03-.05.09-.08.16-.08,0,0-.02.06-.03.09-.03.05-.09.08-.17.08ZM16.1,56.65s.07-.02.1-.02c.05,0,.05.05,0,.13,0,0-.06.02-.1.02-.05,0-.05-.05,0-.13ZM33.84,37.93s.07-.02.1-.02c.05,0,.05.05,0,.13,0,0-.06.02-.1.03-.05,0-.05-.05,0-.13ZM46.05,26.92s.02-.09.03-.09c.09-.04.14-.04.14,0,0,.03-.02.06-.03.09-.09.04-.14.04-.14-.01ZM21,54.53s.01-.06.03-.09c.03-.05.09-.08.16-.08,0,0-.02.06-.03.09-.03.05-.09.08-.17.08ZM49.07,25.84c0,.07-.04.13-.09.15-.03.01-.1.03-.1.02,0-.07.03-.12.09-.15.03,0,.1-.03.1-.02ZM50.8,23.02s.02-.09.03-.09c.09-.04.14-.04.14,0,0,.03-.02.06-.03.09-.09.04-.14.03-.14-.01ZM18.07,79.79s.02.06.02.09c0,.05-.05.04-.14,0,0,0-.01-.06-.02-.09,0-.04.05-.04.14.01ZM19.78,49.86s.07-.02.1-.02c.05,0,.05.05,0,.13,0,0-.06.02-.1.02-.05,0-.05-.05,0-.13ZM21.96,76.76s.06.02.09.04c.05.03.08.09.07.16,0,0-.06-.02-.09-.03-.05-.03-.08-.09-.07-.16Z"/>
        <path d="M59.12,116.15c.12-.09.24-.18.35-.26.11.04.21.07.28.09.14-.1.26-.19.35-.26-.02-.17-.03-.3-.05-.43-.07-.08-.12-.15-.18-.21-.05-.21-.04-.4-.14-.65-.08-.06-.17-.13-.26-.2-.05.04-.09.07-.14.1l-.41-.16-.09-.09c-.19-.19-.23-.2-.33-.12-.06.05-.11.1-.15.13.02.16.04.3.05.43.18.21.35.41.52.61.02.02.01.07.02.13-.29-.1-.6-.24-.9-.33-.12.09-.24.18-.35.26-.11-.04-.21-.07-.3-.1-.07.11-.27.09-.2.31.11.13.22.26.33.39.35.13.69.26,1.05.4.07-.05.15-.11.23-.17l.31.11ZM59.47,115.06c.04.21-.04.27-.24.18-.04-.21.04-.27.24-.18Z"/>
        <path d="M32.23,81.63c.09-.07.17-.13.25-.18.13.02.2.15.29.22.09.07.2.1.32.15.21.25.44.52.67.8.11.21-.16.18-.07.39.06.07.11.13.17.2.11.04.21.09.3.13.24.29.23.29.08.41-.04.03-.08.06-.16.11-.17-.09-.37-.19-.52-.27-.13.1-.21.15-.3.22-.09-.07-.18-.14-.26-.2-.1-.24-.09-.44-.14-.64-.1-.04-.2-.09-.3-.13-.06-.07-.11-.14-.14-.16-.07-.38-.14-.72-.2-1.05Z"/>
        <path d="M59.71,117.22c.21.25.44.52.66.78.11.04.21.08.3.12.06.07.12.13.18.2.21.11.24-.08.36-.11.15.03.3.07.46.19,0,.04.03.09.01.1-.2.15-.4.3-.63.47-.2-.09-.44-.19-.74-.33-.19-.18-.38-.46-.64-.74-.08-.04-.18-.08-.31-.14-.09-.1-.2-.23-.33-.38-.06-.14-.08-.3-.07-.42.24.09.48.18.73.28Z"/>
        <path d="M53.69,111.81c.07.2.14.42-.02.54-.04.03,0,.16.01.24-.09-.04-.16-.06-.25-.1,0,.08.03.17.02.25,0,.12-.18.15-.28.04-.13-.15-.24-.22-.38-.26-.11-.03-.17-.18-.27-.23-.1-.06-.21-.08-.3-.15-.1-.07-.16-.19-.16-.3.2-.14.4-.29.6-.44.33.13.67.27,1.02.41Z"/>
        <path d="M13.42,64.21c-.1.35-.2.68-.3,1.01-.24.09-.24-.1-.39-.17.09-.18.19-.38.29-.59-.24.06-.38.09-.53.13-.07.05-.13.11-.21.17-.06.19-.13.39-.2.59-.1.08-.18.2-.31.2,0-.02-.02-.04-.01-.06.1-.33.21-.67.32-1.02-.03-.11-.11-.2-.03-.39.05-.12-.14-.14-.03-.3.07-.06.13-.12.19-.17q.14-.03.06.24c.07.07.14.13.22.21.16.03.33-.26.5-.25.14.14.29.28.42.4Z"/>
        <path d="M30.32,48.01c-.09-.09-.18-.17-.28-.26.04-.12.09-.25.15-.41.08-.03.17-.06.29-.1.17-.15.36-.33.58-.53.03-.07.06-.17.12-.3.06-.06.16-.14.25-.23.17-.16.26-.18.35-.09l.05.05.09.11s0,.07-.03.1c-.1.1-.17.17-.27.27-.06.06-.12.12-.15.18-.06.12.05.13.07.2,0,.03,0,.07-.03.1-.13.13-.24.24-.41.41-.17.02-.37.05-.55.07-.12.18-.06.3-.24.43Z"/>
        <path d="M23.83,54.3l-.88.8c-.06,0-.15.04-.18.01-.1-.07-.18-.17-.29-.27-.08.01-.18.03-.29.04q-.23-.16-.2-.34c.07-.06.13-.12.19-.17.15-.04.29-.07.45-.11.06.06.13.14.21.19.02.02.11-.03.17-.05.12-.35.12-.35.43-.47l.38.36Z"/>
        <path d="M33.32,44.07l-.19.18-.1.3c-.06.06-.13.12-.19.17-.04.11-.07.2-.11.3-.07.06-.14.12-.21.17-.22.07-.23-.1-.32-.17-.02-.02,0-.13.05-.17.2-.18.38-.35.56-.51.08-.25.15-.48.23-.71l-.11-.11c.04-.13.08-.26.13-.4.06-.02.14-.06.17-.05.08.05.15.13.21.19-.09.19-.1.33,0,.41l-.12.4Z"/>
        <path d="M61.45,117.69c-.4-.15-.74-.28-1.09-.41-.1-.21-.3-.17-.39-.26-.05-.17-.09-.31-.12-.43.27.1.51.18.74.27.07.08.12.14.18.21.14.05.28.11.42.16.04-.03.09-.05.17-.1.09.04.23.11.36.17.02,0,.04.05.05.07,0,.03.02.08,0,.09-.12.09-.24.18-.32.24Z"/>
        <path d="M23.88,54.35c.11-.37.18-.6.26-.85-.09-.09-.2-.19-.3-.29-.01-.01,0-.05,0-.11.07-.07.15-.16.22-.23.25-.08.24.1.36.15-.02.09-.04.18-.07.29.09.09.2.19.3.29-.02.22-.12.46-.19.68,0,.02-.04.05-.05.06-.15.04-.29.08-.42.12-.06-.06-.11-.11-.11-.11Z"/>
        <path d="M50.35,111.74c.17.06.27.09.36.12.05-.03.08-.09.13-.07.34.12.68.24.99.35.08.1.14.16.21.25-.02.07-.05.14-.07.19-.21-.02-.42-.14-.62-.2-.04.02-.08.05-.13.08-.09-.03-.19-.07-.3-.1-.03.02-.06.07-.11.08-.07.01-.15-.05-.15-.09,0-.19-.17-.4-.31-.62Z"/>
        <path d="M13.42,62.45s-.08.05-.14.09c-.33-.14-.67-.28-1.01-.42,0-.02-.02-.1,0-.13.02-.04.08-.07.14-.05.17.05.34.12.51.19.04-.02.09-.04.15-.08.28.11.58.22.87.33.05-.03.1-.06.14-.08l.41.16c.07.17,0,.27-.13.21-.19-.08-.28,0-.43-.02-.16-.03-.34-.12-.51-.19Z"/>
        <path d="M30.9,80.17c.06.08.19.17.17.29,0,.04-.06.03-.15-.01-.03-.02-.09-.05-.1-.04-.15.14-.39-.01-.65-.14-.1-.12-.21-.24-.29-.34-.13-.07-.26-.1-.33-.18-.13-.15-.25-.19-.39-.25-.05-.02-.07-.1-.06-.16.08-.06.16-.12.24-.18.3.1.38.45.63.61.3.19.6.24.92.4Z"/>
        <path d="M53.77,117.95l.3.12.5.59q0,.24-.24.18c-.22-.26-.45-.53-.67-.8l-.3-.12-.33-.39q0-.23.24-.18l.5.59Z"/>
        <path d="M34.81,86.28c.08-.06.16-.12.24-.18.22.06.31.29.52.48.14.04.34.1.51.14.1.12.16.18.21.25.03.1.02.14-.04.12-.41-.16-.83-.32-1.23-.47-.05-.02-.13-.11-.17-.18-.03-.06-.03-.12-.04-.18Z"/>
        <path d="M49.81,120.54l-.31-.11-.24.18s-.08-.02-.11-.04c-.15-.1-.27-.3-.19-.36.09-.07.09-.18.05-.32.02-.01.03-.04.04-.03.24.1.47.15.72.3q.19.28.04.4Z"/>
        <path d="M48.89,115.47c.05.16,0,.25-.13.22-.22-.06-.46-.16-.67-.23-.09-.1-.14-.17-.19-.23-.04-.12-.01-.2.07-.21.1,0,.25.06.35.05.08-.01.13-.05.25,0l.33.39Z"/>
        <path d="M24.48,72.12l.17.2c.02.14.05.27.07.43l-.38-.13c-.21-.17-.36-.38-.52-.58-.04-.05-.04-.13-.06-.19l.72.28Z"/>
        <path d="M62.72,116.43c-.08.06-.16.12-.25.18-.09-.04-.19-.08-.27-.12-.08.03-.1.14-.23.06-.15-.09-.25-.23-.24-.36,0-.05.07-.06.11-.09l.3.11.24-.18q.26.13.34.4Z"/>
        <path d="M45.98,97.02l.19-.14c.13.05.27.09.41.16.06.03.12.12.18.18.06.17.08.34.08.5-.08,0-.16,0-.24.01-.22-.26-.42-.49-.61-.72Z"/>
        <path d="M33.16,86.36c0-.06-.03-.14,0-.17.04-.06.12-.08.23-.03.1.05.2.08.3.12.06.07.11.13.18.22.01.08.02.18.04.28.03.2,0,.22-.25.17l-.5-.59Z"/>
        <path d="M38.52,88.12l-.12.09c-.1-.04-.2-.08-.29-.12-.2-.08-.24-.13-.33-.4.08-.06.16-.12.25-.18.12.05.25.11.41.18.1.14.06.27.1.43Z"/>
        <path d="M18.42,67.91c.08.01.15.05.16.1.03.13.03.25.17.4.04.04.04.13.06.19l-.12.09c-.1-.04-.2-.08-.3-.11-.11-.03-.2-.11-.27-.22-.04-.06-.04-.13-.06-.19l.36-.26Z"/>
        <path d="M47.68,117.67c-.09-.03-.19-.06-.27-.09-.07-.08-.12-.15-.18-.21-.04-.2.04-.27.25-.18.06.07.11.13.18.21.09.03.19.06.27.09.1.12.18.22.26.31.07.07.11.13.1.2,0,.05-.05.04-.14,0-.1-.04-.2-.07-.28-.1-.08-.09-.13-.15-.2-.23Z"/>
        <path d="M21.8,70.84c-.08-.24.12-.22.16-.32.16-.02.33.1.49.14l.16.19c.05.16,0,.25-.14.22-.22-.06-.46-.16-.68-.24Z"/>
        <path d="M34.68,84.73c.09.04.19.09.28.13.05-.04.09-.07.13-.1.15.04.26.15.32.31.05.14-.06.13-.11.19-.09-.04-.19-.09-.28-.13-.05.04-.09.07-.13.1-.15-.04-.26-.15-.32-.31-.05-.14.06-.13.11-.19Z"/>
        <path d="M58.08,110.85s.05.07.08.1c.07.07.11.13.1.2,0,.09-.06.15-.15.12-.13-.03-.26-.1-.4-.15-.11-.13-.22-.25-.32-.39-.03-.04-.01-.1-.01-.15.24.09.47.18.7.27Z"/>
        <path d="M54.66,115.83c-.13-.05-.27-.1-.42-.16-.02-.09-.04-.18-.07-.29-.08-.18-.37-.33-.35-.56l.12-.09q.29.17.36.51c.08.21.38.36.37.59Z"/>
        <path d="M51.32,114.69s.08-.06.13-.1c.09.04.19.08.28.12.05-.04.09-.07.13-.1.2.07.32.2.34.4-.04.03-.08.06-.13.1-.09-.04-.19-.08-.28-.12-.05.04-.09.07-.13.1-.2-.07-.32-.2-.34-.4Z"/>
        <path d="M26.61,76.27l.18-.14c.14.05.27.11.41.16.28.29.29.33.07.43-.14-.05-.28-.1-.41-.15l-.26-.3Z"/>
        <path d="M30.73,83.38c.05-.04.09-.07.14-.1.09.04.19.08.29.12.2.08.24.13.34.41-.1-.04-.2-.09-.29-.13-.07.05-.13.09-.18.14-.04.04-.08.06-.16,0-.06-.03-.07-.08-.08-.17,0-.1-.04-.2-.06-.28Z"/>
        <path d="M52.47,119.22c.1.04.2.09.29.12.05-.03.09-.06.13-.1.09.04.19.08.29.11.08.03.13.05.15.11.03.08,0,.11-.05.14-.07.03-.12.08-.19.14-.12-.05-.25-.09-.38-.16-.06-.03-.13-.1-.17-.16-.04-.06-.05-.13-.08-.21Z"/>
        <path d="M12.84,65.68c-.19.17-.38.34-.57.52-.04.03-.11.02-.16.03l.12-.39c.06-.05.12-.11.24-.22.09-.02.23-.04.36-.06.05,0,.06.04.01.13Z"/>
        <path d="M16.23,64.61l.12-.09c.25.07.35.31.5.5.06.15-.06.14-.1.19-.11-.02-.2-.1-.28-.2-.1-.13-.24-.25-.24-.4Z"/>
        <path d="M56.64,117.12c.1.12.18.23.27.32.07.07.11.13.1.2,0,.05-.05.04-.14,0-.1-.04-.2-.07-.28-.09-.11-.12-.18-.23-.27-.32-.07-.07-.11-.13-.1-.2,0-.05.05-.04.14,0,.1.04.2.07.28.09Z"/>
        <path d="M14.3,62.84c-.05.19-.19.31-.39.36-.04-.03-.07-.07-.12-.11.03-.08.06-.17.1-.27.07-.2.11-.24.41-.36-.04.1-.07.2-.1.28.04.04.08.07.11.11Z"/>
        <path d="M54.24,116.62l-.16-.19c.01-.23.04-.25.24-.18.1.03.2.07.28.09.08.09.14.15.19.22.02.03.02.07.02.1,0,.04-.06.03-.14,0-.06-.02-.12-.03-.17-.03-.03,0-.03.04-.06.04-.06,0-.12-.03-.18-.04Z"/>
        <path d="M53.61,116.59c.08.1.16.18.25.29.07.07.11.13.11.2,0,.05-.04.05-.13,0-.1-.05-.2-.07-.29-.1-.07-.08-.12-.15-.18-.21q0-.23.24-.18Z"/>
        <path d="M10.89,66.38c.13.03.2.04.26.06.02.16-.07.32-.12.48-.09.07-.17.2-.29.19-.05,0-.04-.05,0-.13.03-.06.05-.13.06-.19.03-.12.06-.24.09-.41Z"/>
        <path d="M55.98,116.33c-.07-.1-.2-.18-.18-.29.01-.13.11-.19.26-.08.12.09.23.25.33.38.03.04,0,.1,0,.15-.14-.05-.27-.1-.41-.15Z"/>
        <path d="M55.3,113.89c-.06-.25.14-.24.26-.31.12.01.18.15.27.23,0,.06.02.14,0,.18-.04.06-.12.08-.23.02-.1-.05-.2-.08-.3-.12Z"/>
        <path d="M34.22,85.39s-.08.06-.12.09c-.26-.15-.27-.15-.33-.41.06-.04.13-.08.18-.13.04-.04.08-.06.16,0,.05.03.07.09.07.17.01.1.03.19.04.28Z"/>
        <path d="M35.7,84.3c.2.07.31.21.35.4-.05.03-.09.06-.13.1-.09-.04-.19-.09-.29-.12-.09-.03-.13-.05-.15-.12-.03-.08,0-.11.05-.14.07-.03.12-.08.18-.13Z"/>
        <path d="M31.57,80.96c-.07-.11-.25-.22-.15-.33l.4.15c.07.11.25.22.15.33l-.4-.15Z"/>
        <path d="M55.95,119.46l-.12.09q-.26-.13-.34-.4l.12-.09q.25.14.34.4Z"/>
        <path d="M56.54,108.55l.12-.09q.26.13.34.4l-.12.09q-.26-.13-.34-.4Z"/>
        <path d="M51.12,102.55c.03-.09.05-.16.07-.22.16-.03.34.11.52.13-.03.09-.05.16-.07.22-.16.03-.34-.11-.52-.13Z"/>
        <path d="M11.04,63.77c.05-.19.19-.3.41-.37-.04.1-.08.2-.1.3-.02.08-.04.13-.1.15-.08.03-.13.02-.15-.03,0-.02-.03-.03-.05-.05Z"/>
        <path d="M50.6,112.92c.14.05.27.1.41.15.15.2,0,.19-.06.25-.2-.07-.31-.21-.35-.41Z"/>
        <path d="M59.66,118.69c-.2-.06-.31-.2-.35-.42.1.04.2.09.3.13.08.03.13.05.16.11.03.08.01.13-.05.14-.02,0-.04.03-.06.04Z"/>
        <path d="M23.01,75.66c.2.07.31.2.35.42-.1-.04-.2-.09-.3-.13-.08-.03-.13-.05-.16-.11-.03-.08-.01-.13.05-.14.02,0,.04-.03.06-.04Z"/>
        <path d="M20.67,69.85c.15.03.25.18.36.3.09.1.15.2.15.3-.15-.03-.25-.18-.36-.3-.09-.1-.15-.2-.15-.3Z"/>
        <path d="M50.31,119.84c-.25-.12-.25-.12-.35-.39.1.03.19.07.29.1.08.02.14.05.16.11.04.08.02.13-.04.14-.02,0-.04.03-.06.04Z"/>
        <path d="M9.71,66.71c-.23.06-.31,0-.23-.21.09-.07.17-.19.29-.2.05,0,.04.04.01.13-.04.1-.05.19-.07.28Z"/>
        <path d="M52.43,118.4s.05.05.05.07c.04.13-.09.23-.2.14-.02-.02-.05-.05-.05-.07-.01-.03-.02-.08-.01-.09.03-.04.07-.07.12-.09.02,0,.06.02.1.03Z"/>
        <path d="M52.35,115.56c-.08.05-.18.03-.22-.06-.04-.09-.02-.13.04-.14.03,0,.03-.04.06-.04.07,0,.13.04.16.1.01.03.02.07.02.1,0,.02-.04.03-.06.05Z"/>
        <path d="M35.33,83.76c-.04-.2.04-.27.24-.18.04.2-.04.27-.24.18Z"/>
        <path d="M34.74,83.05c.08.06.11.13.1.2-.01.07-.12.01-.23-.11-.03-.03-.06-.06-.08-.1-.02-.03-.02-.07-.02-.1,0-.04.06-.04.14.02.03.02.06.06.08.1Z"/>
        <path d="M32.97,84.02c.11.13.14.24.07.23-.07,0-.13-.05-.18-.13-.02-.03-.06-.07-.08-.1-.04-.09-.03-.14.01-.13.03,0,.07.02.1.04.03.02.06.06.08.1Z"/>
        <path d="M31.08,82.14c-.2-.07-.32-.2-.34-.4.2.07.32.2.34.4Z"/>
        <path d="M11.29,64.62c-.13.07-.25-.04-.18-.17.01-.02.04-.05.06-.06.12-.07.25.04.18.17-.01.02-.04.04-.06.06Z"/>
        <path d="M44.28,116.94c.2.07.32.2.34.4-.2-.07-.32-.2-.34-.4Z"/>
        <path d="M52.66,104.21c.11.13.14.24.07.23-.07,0-.13-.05-.18-.13-.02-.03-.06-.07-.08-.1-.04-.09-.03-.14.01-.13.03,0,.07.02.1.04s.06.06.08.1Z"/>
        <path d="M50.39,101.3c.2.07.32.2.34.4-.2-.07-.32-.2-.34-.4Z"/>
        <path d="M49.84,116.76c.08.06.11.13.1.2-.01.07-.12.01-.23-.11-.03-.03-.06-.06-.08-.1-.02-.03-.02-.07-.02-.1,0-.04.06-.04.14.02.03.02.06.06.08.1Z"/>
        <path d="M51.27,115.87c-.04-.21.04-.27.24-.18.04.21-.04.27-.24.18Z"/>
        <path d="M47.32,119.6c-.04-.2.04-.27.24-.18.04.2-.04.27-.24.18Z"/>
        <path d="M54.69,113.79s-.09-.03-.09-.04c-.04-.09-.03-.13.02-.13.03,0,.09.03.09.04.04.09.03.13-.02.13Z"/>
        <path d="M52.06,123.36s.02.09.01.09c-.08,0-.13-.05-.15-.1-.01-.03-.02-.09-.02-.09.08,0,.13.05.15.1Z"/>
        <path d="M19.67,69.88s-.09-.03-.09-.04c-.04-.09-.03-.13.02-.13.03,0,.09.03.09.04.04.09.03.13-.02.13Z"/>
        <path d="M55.14,119.29c-.05-.03-.08-.09-.07-.16,0,0,.06.02.09.04.05.03.08.09.07.16,0,0-.06-.02-.09-.03Z"/>
        <path d="M16.5,69.22c-.05-.03-.08-.09-.07-.16,0,0,.06.02.09.04.05.03.08.09.07.16,0,0-.06-.02-.09-.03Z"/>
        <path d="M61.04,113.47s.09.03.09.04c.04.09.03.13-.02.13-.03,0-.09-.03-.09-.04-.04-.09-.03-.13.02-.13Z"/>
        <path d="M38.97,38.11s-.09.03-.09.02c0-.04,0-.1.03-.14.06-.1.12-.11.13-.03,0,.04-.04.1-.07.15Z"/>
        <path d="M50.68,113.63c.05.03.08.09.07.16,0,0-.06-.02-.09-.04-.05-.03-.08-.09-.07-.16,0,0,.06.02.09.03Z"/>
        <path d="M25.14,54.31s-.09.03-.09.02c0-.04,0-.1.03-.14.06-.1.12-.11.13-.03,0,.04-.04.1-.07.15Z"/>
        <path d="M30.3,48.21s-.09.03-.09.02c0-.04,0-.1.03-.14.06-.1.12-.11.13-.03,0,.04-.04.1-.07.15Z"/>
        <path d="M10.38,60.79s0-.02.01-.02l-.45,6.41h0s0,0,0,0h0s0,0,0,0h0s0,0,0,0l.45-6.42s.06,0,.12.04c0,0,.02.06.02.09,0,.05-.05.04-.14,0,0,0-.01-.06-.02-.09Z"/>
        <path d="M44.58,100.66c.14.05.27.1.41.15.15.2,0,.19-.06.25-.2-.07-.31-.21-.35-.41Z"/>
        <path d="M16.26,73.43c.11.13.14.24.07.23-.07,0-.13-.05-.18-.13-.02-.03-.06-.07-.08-.1-.04-.09-.03-.14.01-.13.03,0,.07.02.1.04.03.02.06.06.08.1Z"/>
      </g>
      <g>
        <path d="M69.2,145.89l.41.33c.11-.03.21-.06.31-.1.05.06.16.06.05.26-.2.05-.43.11-.74.18.02,0-.02-.01-.07-.04-.23.04-.46.1-.69.35-.14.04-.27.08-.39.24-.17.07-.34.13-.52.2-.14.05-.27.08-.37.11-.16.18-.28.31-.39.43-.06.22.18.25.03.51.02.08.21.07.04.27-.24.07-.49.19-.72.22-.05-.02-.1-.04-.1-.04-.18.04-.31.07-.44.1-.03.13-.06.23-.08.31-.13.19-.27.23-.4.27-.06.04-.08.09-.1.18,0,.06-.04.13-.08.2-.16.26-.16.26-.08.34.06.05.12.09.16.12.12-.03.21-.05.3-.08-.04.19-.08.36-.11.53.02.09.19.09.06.26-.15.06-.29.11-.42.16-.09-.07-.17-.13-.26-.2-.09.07-.19.14-.39.29-.1.02-.3.05-.42.07-.27.3-.45.49-.65.71.02.07.04.14.06.2.05,0,.08,0,.11,0,.32-.11.63-.21.98-.33.1-.11.21-.24.33-.36.04-.04.11-.04.17-.06-.04.17-.07.34-.11.52-.01.07.08.13.18.11.07-.02.14-.05.21-.07-.01.06,0,.13-.05.17-.08.1-.14.19-.18.3-.08.27-.14.32-.37.4-.1.03-.2.06-.29.09-.05-.03-.1-.05-.14-.07l-.53.18-.22-.06c-.34.28-.34.28-.47.55.2-.06.4-.13.6-.19.15.13.15.14-.08.41-.1.04-.2.08-.31.12-.17.19-.35.38-.52.57-.21.08-.42.15-.62.22-.07.07-.13.13-.2.19-.09.04-.21.03-.27.14-.08.14.05.14.09.2,0,.03,0,.07-.02.1-.07.1-.15.2-.24.29-.05.06-.12.12-.19.16-.13.07-.15-.04-.2-.05-.27.09-.51.18-.76.26-.05.06-.11.12-.17.18-.03.14-.06.28-.09.42.08.06.15.12.24.19.09-.03.19-.06.3-.09.08.06.16.12.25.2.09-.06.19-.13.37-.27.22-.08.53-.19.84-.3l.17-.19q.13-.04.08.24l.35.28q-.08.27-.36.4l-.23-.19c-.09.01-.14.05-.16.11l-.04.2c-.05.07-.11.13-.17.21-.02.09-.05.2-.07.3l-.3.11c-.06.07-.12.13-.18.18-.11.04-.21.08-.31.12-.06.08-.14.15-.16.21-.05.17-.08.34-.11.52-.13.16-.26.32-.38.47,0,.05-.02.09,0,.1.23.19.47.38.7.56.16-.06.3-.1.44-.15.02-.1.05-.2.07-.3.06-.07.12-.14.17-.2.05-.13-.03-.15-.07-.22-.05-.08.11-.32.22-.36l.1-.04c.21-.07.41-.14.62-.21.09.07.16.13.24.19.15-.05.29-.1.43-.15l.18-.2s.03-.08.02-.1c-.06-.08-.14-.14-.2-.22-.02-.03.01-.11.02-.14.24-.09.49-.18.72-.27-.02.12-.03.21-.05.32.31.25.63.5.93.74,0,.13-.11.22-.19.32l-.31.11-.18.19c-.03.14-.06.27-.09.42.1-.03.19-.06.3-.09l.11.09c.1-.03.2-.06.3-.09-.02.1-.03.2-.05.31l.23.04c.08-.09.14-.15.21-.23.13-.04.26-.07.41-.11,0,.03.01.1-.02.13-.11.13-.23.26-.33.37-.09.03-.17.06-.23.08-.02,0-.06.04-.07.06-.02.03-.03.09-.02.1l.53.43c.07.06.17.04.26-.06.18-.19.34-.4.58-.43.04,0,.12-.12.18-.17.13-.1.28-.08.28.05,0,.06-.03.14-.05.24.11.1.24.22.35.32-.07.17-.08.18-.21.33-.03.14-.06.27-.09.43.05.04.11.09.17.13.11.09.32-.03.4-.23.03-.07.03-.14.05-.21.06-.03.11-.06.17-.09.04-.02.07-.02.12-.04.11-.12.23-.25.35-.38.14-.05.28-.11.41-.14.06-.01.11.01.14.05.02.04,0,.11,0,.18l-.17.19c-.03.14-.06.28-.09.41l.11.11c.1-.03.2-.06.31-.09l.11.09c.11-.03.21-.06.29-.09.17.14.32.26.48.39.01.01-.01.07-.02.11-.13.05-.26.1-.41.15-.21-.06-.32-.24-.49-.34-.15,0-.32.08-.5.16-.05.07-.13.14-.15.2-.05.14-.07.28-.1.4.13.1.24.19.36.29-.02.1-.03.2-.05.3.04.04.07.07.11.11l-.08.41c-.1.04-.21.08-.3.12-.12.13-.24.26-.35.39-.03.14-.06.28-.09.44.24-.09.49-.19.77-.3.08-.09.2-.21.34-.37.12-.03.25-.06.43-.1.23.12.23.12.2.3-.14.05-.28.1-.42.14-.07.02-.16.06-.2.1-.16.21-.34.16-.49.31-.05.06-.1.13-.13.2-.03.07.07.18.13.16.39-.13.77-.26,1.16-.39l.12.09c-.03.19-.07.38-.11.58.19-.07.37-.13.54-.19.11.07.24.09.44-.02.11.09.23.18.37.29.23-.1.48-.2.8-.33.57-.63,1.23-1.34,1.88-2.06.11-.04.21-.08.32-.13.05-.06.11-.12.18-.18l.07-.3.42-.14q.19.09.41-.1s.06-.05.1-.07c.28-.1.56-.19.85-.29.06-.06.11-.12.18-.19.02-.1.05-.2.07-.3.06-.07.12-.13.17-.19.13-.07.18,0,.25.02.08.03.18-.03.28-.15.02-.03.06-.06.09-.08l.84-.29c.12-.19-.04-.19-.05-.25.03-.17.05-.31.07-.43.08-.08.13-.15.19-.21.2-.09.39-.09.6-.24l.04-.21c.21-.16.39-.13.65-.29.19-.21.43-.47.66-.72.11-.04.21-.08.31-.12.18-.2.36-.39.53-.58.03-.11.06-.21.08-.29.55-.6,1.09-1.19,1.61-1.76.41-.15.42-.17.51-.54.02-.03.04-.07.06-.1.27-.29.54-.59.82-.9.02-.09.05-.19.09-.31.16-.18.34-.37.51-.56.03-.11.05-.21.08-.32.41-.45.83-.9,1.24-1.36.03-.1.05-.21.07-.3.24-.26.48-.52.71-.77.11-.04.22-.09.31-.12.16-.15.22-.28.21-.39.14-.24.35-.41.53-.64.02-.08.05-.18.1-.31.09-.1.21-.22.35-.38.07-.03.17-.07.29-.12.1-.11.22-.24.35-.38.02-.08.05-.19.07-.29.05-.06.11-.12.17-.18.03-.1.05-.2.07-.3.11-.04.21-.08.29-.11.14-.15.25-.28.37-.4-.01-.18.11-.34.24-.51.04-.17.07-.34.11-.52.77-.84,1.54-1.68,2.31-2.53l.08-.31c.23-.26.47-.52.71-.77.1-.04.21-.08.31-.11.06-.07.12-.14.17-.19.03-.11.06-.21.08-.32.41-.45.83-.91,1.22-1.33.04-.17.07-.3.1-.43-.05-.04-.09-.07-.13-.1-.07.04-.14.07-.2.12-.07.05-.12.13-.18.19-.19.2-.24.21-.38.06l.08-.41c.24-.26.48-.52.77-.85.16-.05.36-.12.57-.19.08-.06.18-.13.27-.2.05.04.09.07.13.11l-.05.29s.08.06.13.11c.09-.07.19-.14.28-.21.03-.12.06-.22.09-.33.05-.06.11-.12.17-.19.1-.04.2-.08.31-.12l.17-.19.08-.31c.18-.19.35-.39.53-.57.06-.28.12-.56.18-.84.17-.18.34-.37.52-.57.03-.11.06-.21.09-.32.23-.25.46-.51.71-.78.09-.03.2-.07.3-.11.12-.13.23-.26.35-.38l.32-.12c.12-.13.23-.26.35-.38.08-.03.15-.05.23-.08.3-.22.51-.57.81-.81.07-.02.14-.05.22-.08.26-.22.47-.5.71-.75.06-.07.11-.13.18-.2.02-.03.04-.07.05-.1,0-.03,0-.06,0-.09-.28.09-.55.18-.84.28-.05.02-.1-.03-.13-.06-.05-.05,0-.16.11-.28.02-.02.06-.06.09-.08.03-.01.07-.02.1-.04.06-.03.14-.06.17-.1.06-.08.03-.14-.03-.15-.07-.01-.08-.06-.04-.15.03-.05.09-.08.17-.1.1-.03.2-.06.31-.09.08.06.16.12.21.17.13-.02.25-.07.32-.05.08.02.13.07.25,0,.06-.07.12-.13.17-.19.03-.11.05-.21.08-.3.23-.28.23-.28.07-.43.03-.11.08-.25.12-.42.11-.1.3-.06.43-.29l.61-.22c.42-.46.83-.91,1.25-1.36.08-.23-.13-.2-.17-.33-.11.03-.21.06-.34.09-.07-.05-.15-.11-.22-.18-.01-.01,0-.06,0-.09.02-.06.07-.1.16-.11.03,0,.07-.02.11-.04.23-.2.42-.44.63-.66.18-.18.33-.4.54-.55.03,0,.08-.03.1-.02.16.12.32.25.47.37.16-.05.3-.1.44-.15.12-.13.23-.26.36-.4.05-.26.1-.53.15-.79.06-.09.1-.16.16-.22l.71-.78s.04-.07.06-.1l.04-.21c.14-.22.35-.38.5-.59.11-.05.22-.09.34-.14.28-.31.58-.63.87-.95.11-.04.21-.08.32-.12.53-.58,1.06-1.16,1.66-1.81.16-.05.37-.11.58-.18.11-.16.25-.21.39-.24.37-.3.62-.71.99-1.01.08-.03.15-.05.22-.07.11-.11.2-.21.28-.29,2.06-2.13,2.12-5.43.02-7.61l-.26-.26c-.45-.47-.48-.48-.64-.51q.08.35-.19.32c-.13-.12-.25-.25-.38-.37-.12-.2.15-.19.02-.4-.06-.06-.12-.12-.17-.18-.03-.11-.07-.21-.09-.28-.27-.27-.52-.51-.76-.75-.05-.01-.09-.03-.12-.03-.26-.09-.29-.12-.39-.38-.07-.18-.07-.18-.32-.36-.06.03-.12.07-.18.11-.06.05-.06.05-.21.05-.1-.36-.2-.72-.28-1.02-.23-.33-.48-.52-.69-.73-.18-.18-.36-.38-.57-.53-.21-.05-.2.13-.33.17-.09,0-.14-.04-.16-.11l-.14-.51-.19-.19-.16-.57c-.07-.02-.13-.05-.14-.04-.11.1-.23.2-.34.29-.17-.02-.33-.14-.36-.27-.04-.18-.2-.33-.28-.49-.01-.02,0-.04,0-.06.09.02.18.03.24.05-.03-.15-.05-.28-.06-.39-.1-.09-.16-.14-.22-.2l-.21-.06s-.08-.03-.1-.05c-.44-.43-.88-.86-1.3-1.27-.03-.1-.05-.17-.07-.24-.18-.24-.42-.43-.63-.65l-.29-.28s-.07-.05-.1-.06c-.03-.01-.06-.01-.09-.02l.05.27q-.2-.11-.5-.4c-.13-.21.14-.2.02-.4-.11-.03-.21-.07-.31-.1-.1-.1-.2-.18-.21-.3,0-.05-.05-.12-.08-.17-.08-.02-.15-.04-.22-.06-.24-.19-.49-.37-.5-.65-.12-.12-.24-.24-.37-.36-.03-.11-.07-.21-.1-.31-.1-.03-.2-.06-.31-.1l-.37-.37c-.2-.06-.4-.11-.6-.17-.06-.21-.1-.38-.15-.56-.12-.11-.24-.23-.36-.36-.03-.11-.07-.21-.1-.32-.05-.05-.12-.11-.18-.18-.21-.06-.42-.13-.61-.19-.14-.14-.27-.26-.38-.38-.12-.4-.14-.41-.54-.54-.08-.07-.18-.16-.27-.25-.18-.18-.19-.2-.11-.33.07-.11.07-.11-.16-.35-.03-.01-.06-.03-.1-.04-.07-.02-.14-.04-.22-.06-.06-.06-.12-.12-.19-.18-.02-.06-.04-.13-.06-.2-.01-.03-.02-.07-.03-.09-.26-.25-.51-.5-.75-.73-.11-.04-.21-.07-.31-.11-.02-.08-.04-.15-.06-.23-.2-.26-.48-.48-.72-.73-.23-.22-.44-.43-.66-.65-.24-.25-.52-.47-.73-.74-.02-.08-.04-.14-.06-.21-.05-.06-.1-.14-.16-.19-.19-.16-.28-.32-.29-.49l-1.7-1.66c-.03-.11-.07-.21-.1-.31-.44-.43-.88-.86-1.32-1.29-.03-.1-.06-.2-.1-.31-.06-.06-.12-.12-.17-.17-.04-.11-.07-.2-.1-.3-.25,0-.43-.22-.64-.42-.03-.08-.07-.18-.12-.33-.27-.27-.58-.57-.91-.89-.03-.09-.06-.18-.1-.3-.3-.29-.61-.6-.93-.91-.03-.11-.06-.21-.1-.31-.18-.18-.37-.36-.56-.55-.03-.1-.06-.2-.09-.31-.76-.74-1.52-1.48-2.27-2.21-.04-.11-.07-.21-.1-.32-.63-.62-1.26-1.23-1.88-1.84-.02-.08-.04-.15-.06-.22-.21-.31-.57-.54-.79-.84l-.06-.2c-.16-.12-.34-.07-.49-.31-.03-.08-.06-.18-.09-.29-.12-.12-.25-.24-.43-.42-.04-.15-.09-.35-.14-.56-.08-.08-.15-.16-.19-.28-.1-.28-.12-.3-.53-.43-.29-.28-.6-.59-.93-.91-.09-.03-.2-.07-.32-.11-.11-.11-.23-.23-.37-.37-.03-.08-.06-.18-.09-.29-.25-.24-.5-.49-.75-.73l-.09-.31c-.12-.12-.25-.24-.37-.36-.02-.07-.04-.14-.06-.21-.13-.21-.34-.37-.52-.56-.22-.22-.44-.43-.66-.65-.19-.18-.37-.37-.54-.53-.03-.1-.04-.17-.07-.26-.24-.27-.52-.54-.8-.78-.09-.03-.17-.05-.26-.07-.3-.29-.62-.6-.96-.93-.02-.07-.06-.17-.09-.28-.2-.06-.41-.13-.61-.19-.06-.07-.12-.13-.18-.18-.04-.11-.07-.21-.09-.28-.21-.21-.4-.39-.58-.56-.09-.03-.16-.05-.27-.08-.1-.09-.23-.21-.35-.32-.13-.22-.14-.41-.21-.62-.82-.8-1.64-1.6-2.47-2.41-.09-.03-.2-.06-.31-.1l-.37-.36c-.11-.03-.22-.07-.32-.1-.07-.07-.12-.13-.18-.19l-.14-.51c-.1-.11-.19-.08-.31-.14-1.37-1.34-2.76-2.7-4.15-4.06-.11-.04-.22-.07-.34-.11-.24-.23-.49-.48-.75-.74-.03-.09-.06-.19-.09-.29l-.56-.55c-.11-.03-.22-.07-.31-.1-.14-.13-.26-.26-.37-.37-.04-.12-.07-.22-.1-.29-.15-.18-.29-.22-.42-.25-.03-.03-.06-.05-.07-.07-.07-.27-.14-.54-.21-.8-.14-.13-.26-.26-.38-.37l-.1-.31c-.12-.12-.25-.24-.37-.36-.02-.08-.04-.14-.06-.22-.13-.21-.35-.37-.53-.56-.15-.16-.33-.29-.45-.46-.02-.07-.04-.14-.06-.21-.19-.23-.38-.48-.69-.5-.08-.08-.17-.17-.26-.26-.18-.17-.19-.17-.35-.1l-.07.03-.22-.06c-.14.02-.22.11-.27.23.02.07.04.14.06.22-.07.06-.14.12-.19.17-.05.15.15.41-.07.41.03.12.05.21.07.32-.03.03-.07.06-.11.1l.31,1.11c-.1.09-.12.22-.03.41l-.22.2.07.3s-.07.06-.12.11c.06.09.12.19.32.49-.1-.18-.07-.14-.06-.11l.41,1.51s-.08.07-.11.1c.02.1.05.2.07.29-.04.04-.07.08-.1.11.03.13.11.28,0,.34-.02.01-.04.04-.03.07.13.24-.08.3,0,.5,0,.03.02.07.03.12-.07.06-.14.13-.21.19.02.1.04.2.06.3-.03.03-.06.07-.1.1.1.37.21.74.31,1.08-.1.21-.11.24.03.63l.17.19c.07.27.15.54.22.82.18.18.37.36.57.56.09.03.2.06.31.1.03.13.07.26.11.43-.04.04-.09.09-.15.13-.1.08-.06.19.09.33.03.03.07.07.07.09.01.22.2.4.42.58.04.1.07.2.12.33.1.1.22.22.35.34.04.11.07.21.11.31.05.05.11.12.18.18.1.03.21.06.32.1l.19.18.14.51c.09.13.18.26.26.38-.05.04-.09.08-.13.11-.21-.05-.41-.11-.64-.17-.02.07-.05.14-.07.21.21.21.4.39.6.58.2.06.41.13.62.19.07.07.13.13.19.2.01.16.11.33.24.46.05.16.1.29.14.41-.05.08-.17.08-.06.26.18.05.39.11.59.17.07.06.13.13.19.18.07.2.08.39.19.6.13.17.27.2.44.23.03.09.07.18.11.29.2.06.4.12.6.19.03.1.06.2.09.29.27.24.26.23.44.13.05-.03.2.04.3.07.05-.05.11-.1.19-.17.02,0-.01.03-.02.02-.08-.05-.11-.1-.12-.17-.01-.06.02-.08.11-.03.02,0,.04.05.04.07.01.03.02.06,0,.11,0,.05.06.09.07.12.03.09.06.2.09.3.07.07.13.13.19.19.04.13.07.27.11.41-.04.03-.07.06-.12.1.07.23.14.47.22.73.1.1.22.22.36.35.11.06.18.04.24-.01.03-.02.12,0,.18,0,.06.06.13.12.2.19,0,.03.01.06.02.09.05.2.13.41.16.6.02.18.25.31.29.49.03.16.1.19.25.11.02-.01.05-.02.09-.04.09.06.19.13.26.18.16.24-.11.23,0,.43.06.06.12.12.19.19.14.04.28.07.43.11.04-.02.08-.05.13-.08.12.03.26.07.4.1.13.1.08.18.15.3.1.09.22.22.38.37.12.08.31.03.47.26l.32.1.09.29.18.19q.03.12-.25.05l-.12.09c.02.1.05.19.07.3l-.11.1c.02.1.05.2.06.25-.04.1-.06.17-.09.24.21.2.4.39.59.57.03.1.06.21.1.31.06.05.12.12.18.18.23.11.24-.08.36-.14-.01-.08-.03-.18-.05-.28.05.01.12,0,.16.04.13.11.25.24.36.35,0,.18.12.35.23.46.06.18.11.31.14.38-.05.12-.07.18-.1.26.23.07.47.23.58.08,0-.23-.13-.51-.19-.77-.06-.24-.12-.46-.18-.68.14-.06.14-.24.38-.15.09.36.18.73.27,1.08.18.18.25.34.31.51.06.18.3.28.41.18.02-.02.02-.04.03-.07-.05-.17-.09-.34-.15-.54.06-.05.12-.13.21-.18.03-.02.11.03.17.04l.11.4-.11.1c.03.1.07.2.08.3.02.11.11.2.22.3.06.19.11.39.17.59l.56.55c.07.2.06.37.2.58.15.07.16-.03.22-.06.1.02.2.05.3.07-.02-.09-.03-.18-.05-.26.16.04.29.07.43.1.1.38.2.75.3,1.12.23.3.59.52.81.86l-.22.29c.02.07.04.13.06.24-.05.06-.12.13-.19.21-.09-.02-.19-.03-.3-.06-.17.1-.17.15.01.34l.19.19s.05.06.08.09c.07.27.15.54.22.82.1.03.2.07.3.1.06.05.12.11.18.17.17.08.26.04.26-.09,0-.08-.07-.2-.03-.27.03-.06.18-.07.25,0,.19.18.38.37.5.49.11.39.2.73.29,1.06l-.07.21c.15.14.27.27.43.42.11.02.25.05.44.09-.02,0,0,0,.03,0,.18-.08.19-.08.43.18.04.13.07.27.11.41l-.11.1-.3-.07s-.08.07-.11.1c.06.24.13.48.19.71l.48.46.17-.15c-.02-.1-.05-.2-.07-.29.04-.03.08-.06.12-.09q.23.13,1.26,1.14c.1.03.2.07.33.11.02.12.04.25.07.4-.06-.01-.15-.03-.27-.05-.11.1-.24.22-.37.33-.09.08-.08.15.1.33l.09.09c.19.19.19.19.09.4-.03.06.02.13.08.16.03.02.08.03.1.02.08-.06.15-.13.22-.19.12.03.22.05.33.08.15-.13.3-.27.44-.39.05.01.09.01.12.04.14.12.26.24.38.35.01.07.06.16.03.18-.12.13-.26.24-.39.36-.13.12-.26.23-.36.32,0,.16.13.24.21.33.06,0,.15.04.18.02.17-.11.27-.29.47-.36.05.02.09.02.12.04.25.25.51.49.76.74.04.01.09.03.11.03.19-.04.19-.15,0-.34l-.19-.19s-.05-.06-.08-.09c-.08-.21.12-.2.18-.31l1.18.34c.15-.11.28-.22.4-.31.16,0,.24.14.33.21l.11.4s-.06.07-.11.14c.07.2.15.44.26.74.02.02.11.11.2.21.17.18.19.24.1.33-.05.05-.11.1-.15.14.02.18.19.29.3.4.16.17.16.17.08.33-.01.02-.02.05,0,.02.03.18.06.31.08.43.27.08.52.15.77.22-.03-.1-.03-.2-.09-.3-.12-.23.07-.31,0-.5-.07-.21.09-.23.16-.33.01-.02.01-.05.01-.07,0-.12-.14-.2-.22-.29l-.14-.5c-.09-.13-.18-.25-.26-.38.09-.08.16-.15.25-.22.09.06.19.12.27.17.13.24.14.43.21.63.06.06.12.12.19.18.2.06.41.13.61.19.02.08.04.15.07.24.34.4.79.76,1.13,1.14.06.15.08.27.15.34.14.15.18.27.2.4.12.12.25.24.38.37.04.13.08.27.12.41-.11.26-.42.33-.54.59l.06.2c-.05.15-.2.21-.3.32-.18.02-.42-.12-.65-.13-.09.08-.2.18-.32.28.05.19.1.39.14.57-.04.04-.07.08-.1.12.17.25-.09.29,0,.51.06.06.12.12.2.2.13.03.26.06.44.11.18-.03.17-.33.49-.23.1.38.2.75.3,1.12.06.06.12.12.19.18.1.03.2.07.31.1.04.13.07.27.11.42-.07.06-.15.12-.21.19-.03.05,0,.12.06.16.07.02.14.04.24.07.11.1.23.22.39.38.15.37.2.75.35,1.17.18.18.37.36.55.54.13.48.26.95.38,1.42l.29.28s.06-.03.05-.05c-.14-.51-.27-1.01-.41-1.52-.09-.13-.18-.25-.26-.37.05-.05.09-.08.13-.11.02-.16-.3-.32-.26-.48.04-.03.08-.06.11-.08.26.07.51.13.75.19.07.07.14.13.22.21.07-.02.15-.03.23-.05-.02-.11-.04-.21-.06-.32.14-.13.29-.26.45-.4.09.02.19.05.3.08l.5-.45c.07-.06.2-.05.36.14.04.05.06.13.07.19,0,.02-.03.03-.05.05-.06.05-.11.1-.16.14-.12-.03-.23-.05-.32-.07-.03.05-.06.08-.09.12l.05.2s0,.06-.01.08l-.28.25c-.11.05-.38-.15-.42.03,0,.14.03.29.14.46.04.01.09.04.11.03.08-.06.15-.13.23-.2.25.07.5.14.77.22.05.22.1.45.16.71-.01.02-.05.05-.1.11.04.11.1.25.16.41.17.11.36.1.57.18.06.06.12.12.19.18.06.19.12.39.18.6.19.19.38.37.56.55.02.08.04.15.06.23.13.14.27.3.39.44.08.15-.04.15-.08.24.03.11.06.25.11.38.02.06.11.12.19.22.06.21.13.44.18.67.01.05-.04.09-.08.12-.06.04-.17-.02-.29-.14l-.19-.19s-.05-.06-.08-.09l-.14-.51c-.14-.16-.27-.32-.27-.49-.22-.24-.42-.49-.76-.66.12.26.09.38-.03.44-.07.04-.1.11-.04.23l.18.18c.1.3.06.57.42.86-.08.07-.11.1-.17.15.08.12.18.25.25.37.05.1.02.2.13.3.16.14.15.26.2.4l.18.19c.24.12.25-.07.36-.12.15-.02.33.06.49.12.13.13.26.25.37.36.04.1.02.19.12.29.06.07.06.07.23-.07.14.04.28.09.43.13.05.04.12.1.24.21.19.04.43.09.77.16-.06.02-.04.01-.01,0q.18-.07.34.09c.09.09.19.18.27.26.05.19.1.36.14.53.02.03.04.06.06.1.05.08.26.21.3.17.15-.13.3-.27.44-.4-.08-.28-.15-.55-.23-.84.09.02.18.04.29.06.06-.06.14-.12.21-.18.08.03.16.03.21.07.2.19.38.36.51.5.2.07.35.11.48.16.05-.04.08-.07.12-.11.15.04.29.08.46.13.02.13.04.25.07.42,0,0-.03.04-.06.09.04.24.09.5.21.75.11.13.21.19.32.2.12.02.21.1.27.17.13.49.26.96.37,1.36.25.32.46.53.71.71.21.06.18-.16.4-.15.03,0,.13.03.22.05.17-.08.18-.33.47-.25.03.1.06.19.09.3l.18.18c.03.1.06.2.09.29.14.13.26.26.41.4l.22-.06c-.03-.11-.05-.21-.07-.31.03-.03.07-.06.11-.09l-.14-.58q.21.11.51.41c.1.03.21.06.32.1.19.18.38.37.57.55.16.06.25.02.24-.12,0-.06-.03-.13-.05-.2.26,0,.36.27.53.42.1.35.11.35.41.47l-.05-.2s0-.06,0-.11c.06-.02.14-.04.26-.07l.1.52-.05-1.81-.26.07s-.05-.03-.1-.06c-.09.03-.19.06-.3.09-.07-.06-.15-.12-.23-.18l-.32.1c-.08-.06-.16-.12-.23-.18-.11.03-.21.06-.3.09-.05-.03-.09-.05-.14-.08-.17.06-.35.12-.55.19,0-.08.02-.17.03-.26-.25-.02-.32.35-.45.38-.16.09-.21.08-.25.04-.05-.06-.12-.1-.18-.15-.23.09-.48.17-.74.27-.04.04-.1.1-.18.18-.3.1-.61.21-.91.31-.13.15-.25.27-.35.38-.16.09-.19,0-.25-.03.04-.2.07-.4.11-.59-.18-.11-.18-.11-.43.15-.02.1-.05.2-.07.3l-.53.58c-.02.1-.05.21-.07.3-.06.07-.13.13-.19.19-.28.09-.31-.16-.47-.23-.23.03-.46.12-.69.35-.14.04-.27.08-.39.24-.14.05-.27.11-.41.16-.17.06-.34.12-.54.19.04.09.06.16.09.23.12-.03.22-.06.32-.09-.01.09-.03.19-.05.29l.12.09c-.03.07-.04.15-.09.2-.15.17-.3.33-.44.49-.07.08-.06.18.01.24.02.01.05.02.07.03.03-.01.08-.01.1-.04.3-.32.59-.65.88-.96.12-.04.22-.08.33-.13.05-.06.11-.12.17-.19.02-.1.05-.2.07-.3.13-.14.24-.27.36-.39.04-.01.09-.05.11-.04.13.08.25.16.39.26.08-.02.18-.05.28-.08.18.11.21.11.4-.11.16-.18.3-.28.49-.34.12-.04.23-.26.38-.24.03.03.07.07.1.1,0,.03,0,.08-.02.1-.24.26-.47.52-.7.77-.45.15-.9.31-1.38.47-.01-.01-.05-.04-.09-.07-.21.04-.31.27-.49.42-.07.29-.13.59-.2.9l-.17.19c-.02.07-.03.14-.04.21,0,.03-.02.07-.04.1-.06.08-.09.11-.16.2-.02.03-.02.07-.02.1l.11.1c.17.02.31-.29.48-.29l.12.09c.03.16-.28.34-.23.49l.13.08,1.15-.39s.08.05.16.1c-.05.21-.12.46-.18.69-.02.06-.1.13-.16.2-.1.04-.2.08-.31.12-.05.06-.11.12-.16.18-.18.12-.21-.03-.34,0-.09.02-.19.07-.29.05-.28-.04-.34,0-.65.22-.06.05-.13.07-.2.11-.04-.06-.17-.06-.09-.2.07-.11.18-.08.3-.15.07-.05.16-.16.24-.26.15-.17.17-.24.06-.33-.06-.05-.12-.08-.17-.11-.15.01-.22.14-.31.23-.1.04-.21.08-.32.12l-.17.19c-.14.05-.28.1-.43.15-.11-.09-.23-.18-.36-.28.03-.18.07-.38.1-.57-.11.03-.21.06-.32.09-.08-.06-.15-.12-.21-.17-.17.05-.31.09-.43.13-.2.21-.37.41-.57.62.02.07.05.14.1.28-.04.11-.12.32-.17.46.12.1.18.14.24.19.08-.12.18-.15.25-.13.07.02.11.08.19.14,0,.02-.03,0-.02-.02.04-.07.1-.11.17-.13.06-.02.08,0,.04.1,0,.02-.05.04-.07.05-.03.01-.06.03-.11,0-.11.1-.21.13-.28.11-.07-.02-.11-.08-.16-.12-.03.03-.06.09-.09.09-.24.08-.49.17-.74.25-.08-.06-.15-.12-.23-.18-.18,0-.32.27-.5.3-.13.02-.28.09-.42.14l-.31.11-.42.14s-.09-.05-.14-.08c-.09.03-.19.06-.3.09-.03-.03-.07-.06-.11-.09l-.32.1c-.08-.06-.16-.12-.23-.18-.11.03-.21.06-.32.09-.08-.06-.16-.12-.25-.2-.1.08-.19.15-.29.23-.06.35-.12.68-.19,1.05.01,0,.05.04.09.07.1-.03.2-.06.3-.09.04.03.08.06.11.09-.01.1-.03.19-.04.24.36-.12.71-.24,1.07-.36,0,0,.03-.04.06-.07.13-.14.27-.09.4-.22.09-.09.18-.19.3-.18.07.05.15.12.2.16-.07.37-.14.7-.2,1.04-.14.05-.28.09-.42.14l-.11-.09c-.11.03-.21.06-.32.1l-.11-.09c-.11.03-.21.06-.26.08-.11-.02-.19-.04-.27-.06-.32.35-.61.67-.91.99-.11.04-.21.08-.32.12-.05.06-.11.12-.17.19-.05.12-.01.18.06.22.02.01.06.02.08,0,.24-.15.31.07.54-.04.07-.04.14-.05.21-.07.24-.19.43-.41.6-.65.01-.07.03-.14.04-.21.06-.03.12-.07.18-.09.09-.03.18-.05.27-.08-.02.09-.05.17-.04.22.01.08.09.12.09.2,0,.12-.02.24-.09.38-.1.04-.19.08-.24.11-.05.17-.09.31-.13.42.05.05.09.09.12.12q-.06.35.21.32c.12-.13.24-.26.36-.4.13-.04.27-.08.42-.13,0,.08-.02.17-.03.26.2-.06.4-.12.62-.19.03.06.06.13.09.19-.36.12-.7.24-1.1.37,0,0-.04-.03-.08-.05-.11,0-.19.09-.29.18-.09.08-.2.11-.35.18-.22.19-.43.47-.69.74-.09.04-.19.08-.31.13-.16.17-.34.37-.51.56-.11.04-.21.08-.33.13-.17.19-.35.38-.54.59-.13.04-.27.07-.46.13-.2-.16-.44-.35-.67-.54-.02-.01,0-.05,0-.08.06-.19.28-.32.38-.49.05-.21.08-.27.21-.46.05-.18.09-.31.12-.43-.05-.05-.09-.08-.12-.11.06-.31.47-.49.58-.79-.02-.22-.27-.21-.33-.38.06-.37.05-.38-.34-.26-.07-.05-.14-.11-.24-.19,0-.06.02-.15.04-.26,0-.07-.12-.12-.19-.09-.09.04-.22.16-.25.26-.01.04-.01.07-.02.1-.09.27-.09.28-.37.4-.08.03-.14.06-.2.12-.09.08-.17.25-.13.29.12.09.23.19.34.27.06-.02.1-.03.13-.05.09-.04.15-.05.15-.01.01.07-.03.13-.11.2-.13.14-.24.26-.36.39.02.02.03.05.06.04.1-.02.2-.06.3-.09.05.03.09.06.13.08.11-.03.21-.06.28-.08.09.07.17.14.23.19.01.14-.11.22-.19.32l-.63.23c-.18.2-.36.39-.52.57-.08.03-.15.05-.24.08-.14.13-.29.28-.43.42-.22.07-.23-.12-.35-.15-.21.07-.41.14-.58.2-.08-.04-.12-.06-.13-.06-.18.04-.31.08-.44.11-.06.3.21.29.33.46.18-.09.39-.19.54-.26.21.17.37.29.52.42l-.17.82s.03.03.05.02c.03,0,.08-.02.1-.04.18-.19.36-.39.51-.56.03-.12.06-.21.09-.31.33-.11.64-.22.96-.33.02,0,.03.01.05.02,0,.12-.13.2-.2.3,0,.06-.02.14.01.17.17.15.35.29.53.43.15-.01.31-.06.48-.17.01-.07.02-.14.04-.21.04-.11.15-.23.24-.26.13-.04.27-.09.38-.13.17.14.33.26.48.38-.01.05,0,.09-.03.12-.18.2-.35.39-.54.6-.09.03-.19.07-.3.11l-.35.39-.42.14s-.09-.05-.13-.08c.02-.09.03-.19.05-.29l-.3.09-.13-.08-1.26.43s-.07.04-.12.08c-.05.08-.11.18-.16.27.07.06.13.1.19.15.05-.08.11-.13.18-.13.05,0,.09.02.14.04.05.02.06.08.01.15-.02.03-.13.07-.16.06-.07-.03-.11-.08-.17-.13-.05.09-.12.14-.19.13-.05,0-.09-.04-.14-.06-.03,0-.06,0-.09,0l-1.57.53-1.07,1.18s-.02.07-.02.1c0,.02.03.03.05.02.2-.06.4-.12.6-.33.04-.05.14-.05.24-.09.18-.19.39-.41.58-.61.14,0,.16,0,.24.05.11-.03.21-.06.3-.09.07.11.26.09.2.32l-.61.22c-.06.07-.12.14-.16.19-.03.11-.06.21-.09.32-.12.13-.23.25-.33.36-.05.12,0,.22-.12.3-.13.09-.14-.06-.22-.05-.13.02-.28.09-.43.14-.17.19-.35.38-.56.61-.01.1-.03.23-.05.41.04.03.12.09.21.17.16-.01.38-.12.59-.18l.12.09c-.02.06-.03.13-.07.19-.04.06-.12.14-.18.16-.18.07-.35.12-.53.18-.06.06-.12.12-.19.19l-.61.22c-.07.07-.13.13-.18.18-.11.04-.21.09-.29.11-.14.15-.26.28-.34.38-.04.17-.08.31-.11.43.05.04.09.07.12.1.11-.03.21-.06.31-.09.14.15.14.15-.11.44-.22.06-.46.14-.74.22-.09-.07-.21-.16-.32-.26-.11.03-.21.06-.32.09-.07-.06-.15-.12-.23-.18-.31.1-.62.2-.91.29-.08-.06-.13-.11-.19-.15,0-.11,0-.23-.01-.34,0-.03-.04-.03-.06-.05-.16,0-.33.07-.52.18-.05.09-.11.19-.17.28.07.06.12.11.19.15.05.03.08.07.04.15-.02.06-.08.09-.17.11-.03,0-.07.02-.12.04-.11.12-.22.24-.3.33-.39.13-.73.25-1.14.39-.07-.06-.19-.15-.31-.24-.11.03-.21.06-.32.09-.03-.03-.07-.06-.12-.09-.24.09-.48.18-.75.27-.09.1-.21.23-.33.36l-.32.12-.17.19c-.03.1-.05.21-.07.3-.07.07-.13.13-.19.19-.14.05-.28.1-.42.14l-.11-.09c-.11.01-.2.1-.3.19-.09.07-.2.1-.31.16-.01.04-.06.13-.04.15.06.08.15.13.22.18-.03.16-.06.3-.09.43-.14.05-.28.1-.43.15-.11-.09-.23-.18-.35-.28-.14.05-.28.09-.41.14-.09.03-.2.16-.24.26-.04.1-.02.19-.11.3-.08.1-.21.19-.28.16-.07-.03-.11-.1-.25-.03-.05.19-.09.39-.14.58-.11.04-.21.09-.29.12-.2.22-.38.41-.54.59-.01.05-.04.1-.02.12.07.07.15.13.23.18,0,.11-.1.21-.15.31-.14.29-.19.56-.17.79,0,.08.1.11.05.22-.1.04-.21.08-.32.12-.12.13-.24.26-.35.38-.14.06-.28.06-.41.23-.05.07-.12.09-.2.12-.25.08-.33.2-.36.4-.02.11-.09.2-.24.36-.15.03-.35.08-.51.12-.14.16-.23.25-.32.35ZM70.94,147.81c.05-.03.12-.07.16-.07.09,0,.07.06-.03.12-.05.03-.1.03-.15.03,0,0,0-.08.28-.08-.02,0-.06-.03-.05-.04.04-.07.1-.11.17-.13.06-.02.08,0,.04.1,0,.02-.05.04-.07.05-.03.01-.06.03-.35.02ZM83.74,86.87c-.03-.05-.06-.12-.06-.15,0-.08.07-.06.13.04.03.05.02.1.02.14,0,0-.08-.02-.1-.23-.03-.03-.07-.06-.08-.08-.04-.14-.08-.29-.12-.44,0-.02.03-.03.05-.05-.19-.18-.12-.33-.2-.5.05-.08.08-.18.26-.06.04.14.08.27.11.4l-.17.15.18.17c.15.15.17.22.08.31-.03.03-.07.06-.09.29ZM96.88,103.72l.27.26c.06.23.05.24-.17.23-.13-.34-.13-.34-.1-.49-.17-.14-.1-.26-.19-.4-.08-.08-.2-.17-.2-.28.14-.18.18-.17.45.13.04.14.08.27.11.4l-.17.15ZM97.78,104.7c-.11-.42-.21-.77-.31-1.13l.1-.1c.15,0,.26.11.36.25l.11.39-.11.1.07.29-.16.15c.17.14.11.26.19.4.05.05.11.11.17.17.04.14.07.27.11.4-.13.15-.18.14-.38-.04l-.19-.18c-.06-.06-.13-.1-.2-.11-.04.03-.08.06-.12.08-.02,0-.07,0-.09-.01-.21-.14-.41-.28-.49-.53l.61.16c.13-.12.26-.23.33-.3ZM98.13,107.58s-.04.05-.05.04c-.08-.05-.11-.1-.12-.17-.01-.06.02-.08.11-.03.02,0,.04.05.04.07.01.03.02.06-.03.13.09.06.14.13.12.19-.02.07-.05.13-.08.2l.14.5c-.06-.01-.14-.04-.19-.04-.24.01-.49-.36-.72-.34-.02,0-.06-.05-.1-.07-.03-.03-.06-.06-.09-.09-.11-.24-.17-.46-.04-.6-.13-.26.02-.33.14-.42.03-.02.12.02.18.03l.18.19c.05.17.09.34.14.5,0,.02.04.06.06.07.03.02.09.04.1.03.06-.04.11-.1.22-.19ZM70.7,150.3c-.02.08-.01.15-.05.22-.07.14-.17.09-.26.15-.04.03-.06.05-.1.07-.35.25-.37.26-.65.22-.09-.01-.19.04-.29.05-.12.02-.16-.13-.33-.02l-.17.19-.09.41s.07.07.11.11c.1-.03.2-.06.3-.09-.02.06-.03.13-.07.19-.04.06-.12.13-.18.16-.14.06-.27.09-.41.14-.08-.07-.16-.13-.23-.18-.29.1-.57.19-.85.29.01-.06,0-.12.04-.17.18-.21.34-.39.51-.59.02-.03.02-.07.02-.11-.04-.03-.08-.06-.12-.09-.2.06-.4.13-.59.19-.17-.13-.32-.26-.48-.38.03-.15.06-.28.09-.42l.35-.38c.03-.1.05-.2.07-.27.35-.13.7-.26,1.04-.38.04.04.08.08.11.11-.02.1-.03.2-.04.29.05.03.09.08.14.07.24-.07.48-.16.72-.24.19-.21.37-.4.53-.58.21-.09.39-.09.6-.25,0-.04.02-.07.02-.1,0-.11.08-.21.18-.3.08-.08.17-.08.25-.02.06.05.12.09.16.13.23-.07.29-.07.46-.02l.52-.18s.09.05.14.08c-.01.09-.03.19-.04.29.05.11.24.09.21.28-.1.18-.25.33-.41.46l-.84.29c-.03.1-.05.2-.08.29l-.29.12ZM99.41,124.36l-.59-.47c-.31.09-.62.23-.93.3-.05-.12-.25-.11-.17-.33.1-.04.21-.08.31-.11.07-.07.13-.13.18-.18.11-.04.21-.08.32-.13l.89-.97c.49-.16.98-.33,1.46-.49.06-.07.12-.13.18-.2.3-.04.33.03.13.31-.13.17-.13.17,0,.31-.01.09-.03.19-.05.29.3-.1.61-.2.9-.29.07.12.27.1.19.33-.12.13-.23.26-.36.4-.13.04-.27.08-.41.13-.09-.08-.24-.07-.42.02l-.07-.03c-.1-.05-.18-.05-.25.04-.11.13-.25.24-.3.33-.06.16-.08.27-.14.36-.07.1-.15.2-.15.3l.11.08c-.02.11-.03.21-.05.29.03.02.05.04.07.05.07.06.18-.02.28-.05.06-.01.07.03.03.12l-.36.39c-.06,0-.14.04-.18.02-.18-.09-.28-.28-.49-.33-.08.03-.15.05-.22.08-.02-.17.06-.38.09-.57ZM108.38,114.61c.35-.4.7-.4,1.07-.53.02.07.05.15.07.21-.31.34-.61.67-.91.99-.1.04-.2.07-.31.11-.18.19-.35.38-.54.59-.13.04-.27.09-.42.13-.01,0-.04-.01-.06-.02-.15-.06-.15-.06-.34.11-.16.14-.16.15-.35.02.05-.17.11-.38.17-.55-.07-.06-.11-.09-.15-.12l.08-.41c.05-.06.11-.13.17-.21.02-.09.05-.19.08-.3.05-.06.11-.12.17-.19.1-.04.2-.07.31-.11l.35-.38.31-.11.17-.19c.14-.05.28-.1.42-.14.01.24-.26.37-.4.54-.03.01-.07.03-.1.03-.08.02-.14.05-.17.1-.04.08,0,.12.04.15.11.07.2.15.33.26ZM107.53,112.35c-.05-.19-.1-.39-.14-.57.31-.27.61-.54.91-.8.01-.01.07.02.11.03.14.31.15.58.23.78.16.26.4.37.44.57-.12.16-.12.16-.38-.04-.07-.05-.13-.09-.22-.1.04.13.09.26.15.44-.01-.02.01.02.04.05q.2.24.1.33c-.09.08-.18.16-.29.26-.22-.14-.32-.07-.41-.02-.17-.04-.31-.07-.43-.1-.08-.08-.15-.14-.2-.2-.08-.21.17-.26,0-.51.03-.04.07-.07.1-.11ZM92.83,127.64c.16-.04.36-.09.54-.13.22-.24.39-.43.55-.6.12-.05.22-.09.31-.13.17-.15.28-.38.49-.42l.23.19c0,.09-.07.19-.15.29-.07.09-.08.2-.14.35-.2.25-.46.53-.72.79-.16.04-.3.08-.42.26-.27.11-.55.23-.8.26-.09-.15-.38-.11-.3-.41.12-.13.24-.26.4-.44ZM79.2,85.18l-.24-.9s-.01-.06-.02-.1l.33-.29c-.02-.1-.05-.2-.07-.29.12-.05.12-.23.35-.16.03.09.06.18.1.29.11.11.23.23.36.35.03.1.06.2.1.3.05.06.11.12.17.18.03.03.06.06.09.09.08.06.12.12.13.19.01.1-.05.13-.13.15l-.53-.15s-.03.03-.02.05c.02.07.03.13.05.2-.03.04-.06.08-.09.11l-.17.15c-.07.06-.16.07-.24,0-.06-.05-.12-.12-.18-.18ZM105.42,114.1c.12-.04.22-.08.33-.11q.25-.08.31-.35c.06-.02.14-.07.17-.05.09.05.16.12.22.17-.04.2-.08.37-.11.54.02.04.08.04.15-.03.19-.2.36-.38.54-.57.02-.02.07-.03.1-.04.01.14-.02.29-.11.49-.18.15-.32.38-.47.49-.19.08-.33.13-.46.18-.05-.04-.09-.07-.12-.1-.11.03-.21.06-.3.09-.05-.03-.09-.05-.14-.08-.17.06-.34.12-.52.18-.02,0-.02-.03-.04-.04.03-.13.06-.26.09-.37.14-.15.26-.28.36-.4ZM66.99,152.9c.08.06.16.12.23.19.01.01,0,.06-.02.1-.03.06-.11.11-.16.08-.09-.04-.16-.12-.23-.18-.15.05-.28.1-.43.15-.11.12-.22.25-.36.39-.02.08-.05.18-.07.29-.05.06-.1.13-.16.19-.02.02-.07.03-.1.05-.2-.03-.31-.16-.4-.29.01-.1.02-.2.03-.26-.12-.12-.22-.23-.33-.33-.01-.01.01-.06.02-.1q.14-.15.3-.25c.13.09.27.19.34.24.33-.08.56-.14.76-.19.1-.1.16-.16.22-.22l.42-.14-.05.29ZM84.26,88.87l-.32-.1c-.13-.12-.25-.24-.37-.36-.11-.04-.22-.07-.31-.1-.14-.14-.26-.26-.38-.37-.04-.14-.08-.28-.11-.41l.22-.2c.27.1.3.13.38.36.02.06.06.13.1.21.19.14.34.37.56.5.03.02.07.02.1.03l.22-.2c.14.05.21.13.18.19-.02.04-.06.07-.1.11l.08.3s.01.07.03.1c.04.09.04.14,0,.14-.12,0-.2-.13-.29-.21ZM76.41,82.68c0-.21-.19-.51-.14-.73.09-.04.11-.16.26-.15.13.04.27.08.39.12.07.08.13.14.15.16.1.36.2.69.29,1.02-.24-.07-.49-.14-.74-.21-.06-.06-.12-.12-.21-.21ZM96.29,122.19c0,.13.25.08.2.29-.02.04-.04.08-.07.11l-.71.78c-.06.06-.12.11-.19.17-.12.04-.25.08-.34.1.03-.25.06-.48.09-.67.16-.18.28-.31.37-.41.13-.06.25-.09.34-.16.1-.08.18-.18.32-.2ZM71.74,146.72c.15-.06.29-.12.41-.17.21.17.41.33.6.48-.02.2-.32.42-.26.61-.03.02-.07.05-.09.04-.14,0-.24-.08-.43,0-.09.04-.16-.03-.15-.13,0-.06.03-.13.04-.22-.07-.06-.15-.12-.22-.17,0-.16.01-.31.1-.45ZM73.92,78.01s-.08.07-.13.11c-.13-.04-.27-.08-.42-.13-.23-.21-.51-.4-.64-.7l.33-.3s.07,0,.1.02c.17.1.31.24.5.28.14.03.25.18.28.33-.04.03-.07.06-.12.11.03.09.06.19.09.27ZM80.62,82.69c.06-.05.12-.09.17-.15.03-.05.08-.07.16-.02.05.03.07.09.09.17.04.14.07.27.11.4q.25.27.14.47c.02.11.03.2.05.31-.24.05-.25.36-.58.32-.07-.07-.13-.13-.19-.19-.06-.16-.02-.23.13-.23.06,0,.15.05.21.05.17.01.17-.15,0-.34-.03-.03-.05-.06-.08-.09-.07-.24-.13-.47-.19-.7ZM69.19,148.24c.02-.15.11-.27.26-.36.1-.05.2-.04.3-.15.09-.1.18-.17.28-.18.04.03.08.06.11.09-.02.1-.03.2-.05.3l.35.28c-.1.27-.1.27-.37.38l-.23-.18c-.1.03-.21.06-.3.1l-.35-.28ZM78.05,83.01c.12.46.23.86.34,1.26,0,.03-.01.05-.02.07q-.18.07-.34-.08c-.16-.15-.31-.31-.45-.44-.07-.15.02-.17.04-.24.02-.07-.03-.18-.05-.32.17-.04.18-.27.48-.25ZM98.24,126.1c.1-.03.17-.07.23-.08.18-.02.2.15.03.33-.09.1-.18.19-.25.27-.03.11-.06.21-.08.3-.15.05-.29.1-.43.15-.04-.03-.08-.06-.15-.12.05-.17.12-.37.15-.48-.06-.15-.08-.22-.11-.28.08-.09.13-.15.19-.22.24-.14.25.05.41.12ZM68.11,153.46c.08.06.16.12.25.2-.05.09-.11.19-.15.27-.2.13-.37.17-.53.2-.06-.17-.3.03-.42,0-.1-.08-.2-.15-.29-.24-.03-.03,0-.11-.01-.17.24-.08.49-.16.74-.24.03.02.08.05.12.08.1-.03.2-.06.3-.09ZM73.45,145.06c.26-.09.53-.24.77-.24.03,0,.04.03.06.05.02.14-.03.31-.09.48-.21.25-.21.26-.13.35.02.02.05.02.06.05.02.07,0,.13-.06.16-.03.02-.09.04-.1.03l-.47-.37c.02-.1.04-.2.05-.29-.05-.05-.15-.07-.08-.22ZM74.87,141.6c-.06.11-.12.2-.16.29-.24.15-.44.17-.64.26-.06.06-.12.12-.19.19-.02.1-.05.2-.08.3-.05.06-.11.12-.17.19-.16.08-.25.04-.26-.08,0-.08.07-.21.01-.27-.06-.05-.09-.1-.04-.22.1-.04.2-.08.3-.11.07-.07.13-.13.19-.19.21.03.39-.29.6-.34l.11.09c.1-.03.21-.06.33-.1ZM69.15,73.38l-.14-.5c-.02-.07.02-.08.13-.03.12.12.24.24.36.35.23.14.23-.11.44,0,.04.13.07.27.11.42-.07.06-.14.13-.23.2-.08-.02-.18-.04-.29-.07-.04.03-.07.06-.11.09q-.27-.1-.39-.37l.11-.1ZM78.02,81.85c.02.07.04.14.05.2.01.09-.06.16-.14.15-.14-.03-.28-.06-.37-.07-.14-.15-.26-.23-.26-.36.1-.09.21-.19.32-.28,0-.04,0-.07,0-.1-.02-.07-.04-.13-.05-.21l.11-.1c.06.03.14.04.2.09.06.05.13.13.15.19.05.13.07.26.1.38-.04.05-.07.09-.1.12ZM103.76,119.38l-.12-.09c-.17,0-.31.3-.48.29-.05-.05-.14-.07-.07-.23.1-.11.21-.23.35-.39.07-.03.18-.06.28-.11.16-.08.22.02.33.02.07,0,.2-.11.25-.03-.03.12-.06.25-.09.38-.16.05-.3.1-.44.15ZM62.19,63.62c.08.03.13.04.15.06l.92.9s.03.07.03.1c0,.02-.01.04-.03.04-.1-.02-.22-.09-.28-.04-.06.04-.12.08-.24.03-.12-.12-.24-.24-.38-.37-.05-.22-.11-.44-.17-.71ZM103.11,117.97c-.21.08-.34.13-.47.18-.07-.05-.12-.11-.18-.14-.05-.03-.07-.06-.04-.14.03-.06.08-.09.16-.1.03,0,.08-.01.1-.04.23-.24.45-.3.67-.35l.11.09c-.01.2-.22.32-.36.51ZM102.51,118.72c.03-.07.04-.14.08-.19.04-.06.11-.12.18-.16.07-.04.15-.03.2-.08.23-.23.45-.3.67-.35-.03.07-.04.14-.09.19-.17.19-.32.39-.49.52-.16.06-.3.11-.43.16-.05-.04-.08-.07-.12-.1ZM68.57,70.81c-.02-.09-.06-.23-.06-.35,0-.08.07-.13.08-.2,0-.05-.03-.13-.05-.2.14,0,.29.03.43.12.05.15.1.29.15.41-.09.08-.16.14-.23.21q.06.27-.06.24c-.06-.06-.13-.12-.24-.22ZM98.83,120.52c.16.14.16.15-.04.38-.08.09-.17.18-.25.26-.15.05-.29.1-.42.14-.16-.14-.16-.15.04-.38.08-.09.17-.18.25-.26.15-.05.29-.1.42-.14ZM77.52,140.03c.19.07.17.11-.08.42-.18.06-.38.13-.59.2-.06.02-.13.02-.21.04-.02-.06-.03-.13-.05-.21.17-.06.31-.13.44-.15.19-.03.36-.34.49-.3ZM79.29,81.37c.14.05.28.09.41.13.02,0,.05.04.06.06.04.1.02.19.12.29.1.09.16.18.17.28-.06.03-.07.13-.22.06-.17-.11-.3-.26-.43-.41-.04-.13-.07-.26-.11-.41ZM70.69,72.36s-.06.09-.12.1c-.07.01-.14-.04-.16-.1-.04-.1-.02-.19-.13-.3-.17-.15-.18-.25-.08-.33.02-.01.03-.04.03-.07.02-.27.02-.28.28-.02l.19.71ZM81.47,87.42c.12.03.22.07.32.1.01.23.01.23-.24.18l-.55-.54c-.03-.23-.03-.23.22-.21.06.06.12.12.21.2.01.08.03.17.05.27ZM76.49,80.34l-.22.2c-.27-.1-.27-.1-.39-.37.11-.1.21-.2.33-.29.02-.02.11.04.17.06.04.14.07.27.11.4ZM99.76,107.37c-.06-.24-.13-.47-.2-.73.11.07.2.12.29.17.14.24.14.42.21.63.03.08.04.14,0,.14-.03,0-.07-.02-.1-.03l-.19-.19ZM66.84,68.5c-.03-.13-.08-.26-.09-.38,0-.13.08-.17.24-.11.06.06.12.11.2.19,0,.12.12.3.08.41-.14-.04-.28-.08-.43-.12ZM90.95,100.67c-.06-.23-.12-.44-.18-.67-.01-.05.05-.04.14,0,.12.16.34.26.4.45-.15.23-.15.22-.36.21ZM67.12,68.98l.37.36q.03.24-.23.2l-.37-.36q-.03-.24.23-.2ZM62.14,64.51c.07.25.13.47.19.71-.13.04-.23-.11-.35-.22,0-.13-.12-.32-.07-.46.06,0,.14-.02.22-.03ZM101.98,117.29s-.03-.04-.06-.04c-.06-.02-.07-.06-.04-.14.02-.06.07-.08.16-.11.21-.07.4-.14.6-.21-.11.28-.15.32-.36.39-.1.03-.2.07-.3.1ZM99.34,108.99s.06-.04.07-.07c.02-.05.07-.06.16-.02.02.01.06.04.06.06.07.22.14.45.23.72-.16-.1-.25-.16-.33-.21-.03-.06-.06-.09-.07-.12-.04-.13-.08-.26-.12-.36ZM76.69,139.36c.11-.27.15-.31.35-.39.1-.03.2-.07.3-.1.05.06.2.06.05.25l-.7.24ZM72.43,147.95c.06-.06.12-.13.19-.21.08-.02.18-.05.28-.09.09-.04.13-.04.13,0,0,.07-.04.13-.11.2-.1.1-.17.19-.26.28q-.24.04-.24-.19ZM85.56,89.73c.12.12.18.18.24.24.02.23,0,.26-.22.21l-.3-.07c-.08-.26.11-.27.28-.37ZM91.47,99.49c-.06-.06-.12-.12-.21-.2-.02-.08-.03-.17-.06-.27-.03-.09-.03-.13.02-.12.07,0,.13.05.2.12.1.1.18.18.28.28.04.18-.02.26-.23.2ZM68.98,159.89c.1-.27.1-.27.36-.39l.12.09q-.1.26-.36.39l-.12-.09ZM99.8,121.81c-.13.04-.27.1-.39.12-.14.02-.19-.06-.13-.23.13-.04.27-.1.39-.12.14-.02.19.06.13.23ZM76.11,141.58v-.08s.02-.06.03-.1c.03-.09,0-.18.1-.26.13-.09.15.02.21.05-.08.26-.08.26-.34.39ZM80.41,86.6l.03.09s.02.07.03.1c0,.08.11.21.02.23-.11.02-.19-.13-.28-.2-.04-.23-.03-.23.21-.21ZM98.76,104.72s.06.06.09.09c.08.06.12.12.12.19,0,.05-.05.04-.14.01-.1-.03-.2-.05-.3-.07-.06-.22.01-.29.22-.22ZM96.87,105.5l-.22.2c-.08,0-.14-.03-.17-.08-.02-.03-.02-.07-.03-.1l.22-.2c.08,0,.14.03.17.08.02.03.02.07.03.1ZM109.67,117.5l-.41.14c-.09-.11.09-.22.18-.34.19-.05.28,0,.23.2ZM96.64,104.65c-.2-.07-.34-.18-.38-.38.07-.04.08-.18.28-.02.04.13.07.26.11.4ZM91.47,129.36l.09-.04s.07-.03.1-.03c.08-.02.21-.12.24-.04.03.1-.11.19-.19.28-.25.06-.25.06-.25-.17ZM82.45,138.88s-.03-.04-.06-.04c-.06-.02-.07-.06-.04-.14.02-.06.07-.08.16-.11.1-.03.2-.07.3-.11-.1.27-.1.27-.36.4ZM96.91,135.75s.04-.05.06-.06c.13-.07.26.04.19.16-.01.02-.04.05-.06.06-.13.07-.26-.04-.19-.16ZM97.81,122.41s.05.02.05.05c.01.07-.02.13-.07.16-.03.02-.07.03-.1.03s-.04-.03-.06-.04c-.07-.06-.07-.16.02-.21.08-.05.14-.05.16.01ZM96.46,101.56s-.08,0-.1-.03c-.07-.05-.13-.12-.18-.18-.02-.03-.03-.07-.03-.1,0-.02.01-.04.03-.04.1-.01.31.19.32.3,0,.02-.02.03-.03.04ZM61.74,66.14c.21.05.33.18.38.37-.21-.05-.33-.18-.38-.37ZM67.95,68.95c.06.2-.01.27-.23.2-.06-.2.01-.27.23-.2ZM85.03,134.91s.06.04.02.13c0,0-.06.03-.09.03-.05,0-.06-.04-.02-.13,0,0,.06-.02.1-.03ZM83.69,137.79s-.06-.04-.02-.13c0,0,.06-.03.09-.03.05,0,.06.04.02.13,0,0-.06.02-.1.03ZM104.13,128s-.09.04-.09.03c0-.07.02-.13.08-.16.03-.02.09-.04.09-.03,0,.07-.02.13-.08.16ZM105.34,111.99s-.02-.07-.02-.09c0-.05.05-.05.14,0,0,0,.02.06.02.09,0,.05-.05.05-.14,0ZM106.98,108.75s-.02-.07-.02-.09c0-.05.05-.05.14,0,0,0,.02.06.02.09,0,.05-.05.05-.14,0ZM104.61,108.08c-.05-.03-.09-.08-.08-.15,0,0,.06.01.1.03.05.03.09.08.08.15,0,0-.06-.02-.1-.03ZM82.05,89s-.03-.09-.02-.09c.08,0,.14.03.16.09.02.03.03.09.02.09-.08,0-.13-.03-.16-.09ZM100.65,106.7s-.09-.02-.1-.03c-.04-.08-.04-.13,0-.13.03,0,.09.02.1.03.04.08.04.13,0,.13ZM83.67,87.38s-.09-.02-.1-.03c-.04-.08-.04-.13,0-.13.03,0,.09.02.1.03.04.08.04.13,0,.13ZM71.78,75.84s-.02-.07-.02-.09c0-.05.05-.05.14,0,0,0,.02.06.02.09,0,.05-.05.05-.14,0ZM95.68,104.2s-.03-.09-.02-.09c.08,0,.14.03.16.09.02.03.03.09.02.09-.08,0-.13-.03-.16-.09ZM69.04,74.67c.05.03.09.08.08.16,0,0-.06-.01-.1-.03-.05-.03-.09-.08-.08-.15,0,0,.06.02.1.03ZM67.18,71.77s-.02-.07-.02-.09c0-.05.05-.05.14,0,0,0,.02.06.02.09,0,.05-.05.05-.14,0ZM97.9,129.63s-.01.09-.02.09c-.09.05-.14.05-.14,0,0-.03,0-.09.02-.09.09-.05.13-.05.14,0ZM97.24,99.79s-.09-.02-.1-.03c-.04-.08-.04-.13,0-.13.03,0,.09.02.1.03.04.08.04.13,0,.13ZM93.92,126.63s-.09.04-.09.03c0-.07.02-.13.08-.16.03-.02.09-.04.09-.03,0,.07-.02.13-.08.16Z"/>
        <path d="M55.61,164.45c.08.06.16.12.22.18.36-.12.71-.24,1.06-.36.11-.12.23-.25.35-.38.07-.23-.12-.21-.19-.32-.09.03-.19.05-.31.09-.11-.09-.23-.18-.34-.27-.3.08-.61.21-.91.3.01-.07,0-.11.03-.13.18-.2.35-.39.54-.6.02-.13.04-.26.07-.43-.04-.03-.09-.08-.14-.13-.11-.09-.14-.07-.34.11l-.09.08-.42.14s-.08-.06-.13-.1c-.09.06-.18.13-.27.19-.11.24-.11.43-.17.64-.06.06-.11.13-.19.2-.02.13-.04.26-.07.43.1.08.21.17.34.27.07-.02.17-.05.29-.08.11.09.23.18.34.27l.31-.1ZM55.23,163.63c-.21.08-.29.01-.24-.19.21-.08.29-.01.24.19Z"/>
        <path d="M83.54,130.98c-.09-.07-.17-.13-.24-.19-.13.02-.2.14-.3.21-.09.07-.21.09-.32.14-.22.24-.46.5-.7.77-.11.2.15.18.05.39-.06.06-.12.13-.17.19-.11.04-.21.08-.31.11-.25.28-.24.29-.1.41.04.03.08.06.15.12.17-.08.38-.18.54-.25.13.1.2.16.3.23.09-.07.19-.14.27-.19.1-.24.11-.43.16-.64.1-.04.2-.08.3-.12.06-.07.12-.13.14-.16.09-.37.16-.72.24-1.04Z"/>
        <path d="M54.66,165.59c-.22.24-.46.5-.69.75-.11.04-.21.08-.31.11-.07.07-.12.13-.18.19-.22.1-.23-.08-.35-.13-.15.02-.3.06-.47.17,0,.04-.03.09-.02.1.19.16.39.31.61.49.21-.08.45-.18.75-.3.19-.17.4-.45.67-.72.08-.03.18-.08.31-.13.09-.1.21-.23.34-.37.06-.14.1-.3.08-.42-.25.08-.49.17-.74.25Z"/>
        <path d="M60.89,160.39c-.08.2-.15.42,0,.54.04.03-.01.16-.02.24.09-.03.16-.06.25-.09-.01.08-.03.17-.03.25,0,.12.17.16.27.05.13-.14.25-.21.39-.25.11-.03.18-.17.28-.22.1-.06.21-.07.3-.14.1-.07.17-.18.17-.29-.19-.15-.38-.31-.58-.46-.34.12-.68.24-1.03.37Z"/>
        <path d="M103.03,114.22c.09.35.17.68.26,1.01.24.09.24-.09.39-.16-.08-.18-.17-.39-.27-.6.23.07.38.11.52.15.06.06.13.11.2.18.06.19.12.39.18.59.09.08.17.2.3.21,0-.02.02-.04.01-.06-.09-.34-.18-.67-.28-1.03.03-.11.12-.19.04-.38-.05-.12.14-.13.04-.3-.06-.06-.13-.12-.19-.18q-.14-.03-.07.24c-.07.06-.15.13-.23.2-.16.03-.32-.27-.49-.26-.15.13-.3.27-.43.39Z"/>
        <path d="M86.79,97.44c.09-.08.18-.16.29-.26-.04-.12-.08-.26-.13-.41-.08-.03-.17-.06-.29-.11-.16-.16-.35-.34-.56-.55-.02-.07-.06-.17-.1-.3-.06-.06-.15-.15-.24-.24-.17-.16-.25-.19-.34-.1l-.05.05-.1.11s0,.07.03.1c.1.1.17.18.26.28.05.06.11.13.14.19.06.12-.06.13-.08.2,0,.03,0,.07.03.1.12.13.23.25.4.42.17.03.37.06.55.09.12.18.05.3.22.43Z"/>
        <path d="M93.03,103.96l.85.83c.06,0,.15.04.18.02.11-.07.19-.16.3-.26.08.01.17.03.28.05q.23-.15.21-.33c-.06-.06-.13-.12-.18-.18-.15-.04-.29-.08-.45-.13-.07.06-.13.13-.22.18-.02.01-.11-.04-.17-.06-.1-.35-.11-.35-.41-.48l-.39.35Z"/>
        <path d="M83.95,93.41l.19.18.09.3c.06.06.12.12.18.17.03.11.06.21.09.3.07.06.13.12.2.18.21.07.24-.09.33-.16.03-.02,0-.13-.04-.17-.19-.19-.37-.37-.54-.53-.07-.25-.13-.49-.2-.72l.11-.1c-.04-.13-.07-.26-.11-.4-.05-.02-.14-.07-.17-.05-.09.05-.15.12-.22.19.08.2.08.34-.02.41l.11.4Z"/>
        <path d="M52.91,166.01c.4-.14.75-.25,1.1-.38.11-.2.3-.16.4-.25.06-.17.1-.31.14-.43-.27.09-.52.16-.75.24-.07.08-.13.14-.18.2-.14.05-.28.1-.42.14-.04-.03-.08-.05-.17-.11-.09.04-.23.1-.37.16-.02,0-.05.05-.05.07-.01.03-.02.08,0,.09.12.09.23.19.31.25Z"/>
        <path d="M92.97,104.01c-.1-.37-.16-.6-.23-.86.1-.09.2-.18.31-.28.01-.01,0-.05,0-.1-.06-.07-.14-.16-.21-.24-.24-.09-.25.09-.37.14.02.09.04.18.06.29-.1.09-.21.18-.31.28,0,.22.11.46.16.69,0,.02.04.05.05.06.15.05.29.09.42.13.06-.05.11-.1.11-.1Z"/>
        <path d="M64.24,160.44c-.18.05-.28.08-.37.11-.05-.03-.08-.09-.13-.08-.35.11-.68.22-1,.32-.09.1-.15.16-.22.24.02.07.04.14.06.2.21-.01.42-.12.62-.18.04.03.08.05.13.08.09-.03.19-.06.31-.09.03.03.06.07.11.08.06.01.16-.04.16-.08,0-.19.18-.39.33-.6Z"/>
        <path d="M103.11,112.46s.08.05.14.09c.33-.12.68-.25,1.03-.38,0-.02.03-.1,0-.13-.02-.04-.08-.07-.13-.06-.17.04-.35.11-.52.17-.04-.02-.09-.05-.15-.08-.28.1-.59.2-.89.3-.05-.03-.09-.06-.13-.09l-.42.14c-.07.17,0,.27.12.22.19-.07.28.01.43,0,.16-.02.34-.11.52-.17Z"/>
        <path d="M84.93,129.57c-.06.08-.19.16-.19.28,0,.04.06.04.15,0,.03-.02.09-.04.1-.03.15.14.4,0,.65-.12.1-.11.22-.24.3-.33.14-.06.26-.09.33-.17.14-.15.26-.18.4-.24.05-.02.07-.09.07-.16-.08-.06-.16-.13-.23-.19-.3.09-.4.43-.65.59-.31.18-.61.22-.93.37Z"/>
        <path d="M60.57,166.52l-.31.11-.53.58q-.01.24.24.19c.23-.26.47-.51.71-.77l.31-.11.35-.38q0-.23-.24-.19l-.53.58Z"/>
        <path d="M80.78,135.54c-.08-.06-.16-.13-.23-.18-.22.06-.32.28-.54.47-.15.04-.35.09-.51.13-.1.11-.16.18-.22.24-.04.09-.03.14.03.12.42-.14.84-.29,1.25-.43.05-.02.14-.11.18-.17.04-.06.03-.12.04-.18Z"/>
        <path d="M64.42,169.25l.31-.1.23.18s.08-.02.11-.04c.15-.09.28-.29.21-.36-.08-.08-.08-.18-.04-.32-.02-.01-.03-.04-.04-.03-.24.09-.48.13-.73.27q-.2.27-.06.39Z"/>
        <path d="M65.55,164.22c-.06.16,0,.25.13.23.23-.05.47-.14.67-.21.09-.1.15-.16.2-.22.04-.12.02-.2-.06-.21-.1,0-.25.06-.35.04-.08-.02-.13-.06-.25,0l-.34.38Z"/>
        <path d="M91.67,121.74l-.18.2c-.03.14-.06.27-.09.43l.39-.12c.21-.16.37-.37.54-.56.04-.05.05-.13.07-.19l-.73.25Z"/>
        <path d="M51.69,164.7c.08.06.15.12.24.19.09-.04.19-.08.28-.11.08.04.1.14.23.07.15-.09.26-.22.25-.35,0-.05-.07-.06-.11-.1l-.3.1-.23-.18q-.26.12-.36.39Z"/>
        <path d="M69.2,145.89l-.18-.14c-.14.05-.27.08-.42.15-.06.03-.12.11-.18.17-.06.17-.09.33-.1.5.08,0,.16.01.24.02.23-.25.43-.48.64-.7Z"/>
        <path d="M82.42,135.67c0-.06.03-.13.01-.17-.04-.07-.11-.08-.23-.03-.1.04-.2.07-.31.11-.06.06-.12.13-.19.21-.01.08-.03.18-.05.28-.04.2,0,.22.24.18l.52-.57Z"/>
        <path d="M77,137.24l.12.09c.1-.03.2-.07.3-.11.2-.07.25-.13.35-.39-.08-.06-.15-.12-.24-.19-.12.05-.25.11-.41.17-.1.14-.07.27-.11.42Z"/>
        <path d="M97.89,117.74c-.08,0-.15.04-.16.1-.03.13-.04.25-.19.4-.04.04-.05.13-.07.19l.12.09c.1-.03.21-.08.31-.1.11-.03.21-.1.28-.21.04-.06.04-.13.06-.19l-.35-.27Z"/>
        <path d="M66.67,166.46c.09-.03.19-.05.28-.08.07-.08.13-.14.19-.2.05-.2-.03-.27-.24-.19-.06.06-.12.13-.19.2-.09.02-.19.05-.27.08-.1.11-.18.21-.28.3-.07.07-.11.13-.11.19,0,.05.05.04.14,0,.1-.04.2-.06.28-.09.08-.09.14-.15.21-.23Z"/>
        <path d="M94.4,120.56c.08-.24-.11-.22-.15-.32-.16-.03-.34.09-.5.13l-.17.19c-.06.16,0,.25.13.22.22-.05.46-.14.69-.21Z"/>
        <path d="M80.98,133.99c-.09.04-.2.08-.28.12-.05-.04-.09-.07-.13-.1-.15.04-.27.14-.33.3-.06.13.05.13.1.2.09-.04.2-.08.28-.12.05.04.09.07.13.1.15-.04.27-.14.33-.3.06-.13-.05-.13-.1-.2Z"/>
        <path d="M56.55,159.28s-.05.07-.09.09c-.08.06-.11.13-.11.19,0,.09.06.15.15.13.13-.02.27-.09.41-.13.11-.12.23-.24.34-.38.03-.04.01-.1.02-.15-.24.08-.48.16-.71.24Z"/>
        <path d="M59.77,164.37c.14-.05.27-.09.43-.15.03-.09.05-.18.09-.29.09-.17.39-.32.38-.54l-.11-.09q-.29.16-.38.49c-.09.2-.39.35-.4.58Z"/>
        <path d="M63.16,163.36s-.08-.06-.13-.1c-.09.04-.19.08-.28.11-.05-.04-.09-.07-.13-.1-.21.06-.32.19-.36.39.04.03.08.06.13.1.09-.04.19-.08.28-.11.05.04.09.07.13.1.21-.06.32-.19.36-.39Z"/>
        <path d="M89.37,125.82l-.18-.14c-.14.05-.28.1-.42.15-.29.28-.3.32-.09.43.14-.05.28-.09.42-.14l.27-.29Z"/>
        <path d="M84.97,132.78c-.05-.04-.09-.07-.13-.11-.09.03-.19.07-.29.11-.21.08-.25.12-.36.4.1-.04.21-.08.3-.12.07.05.13.09.18.15.04.04.08.06.16.01.06-.03.08-.08.09-.16.01-.09.05-.2.07-.28Z"/>
        <path d="M61.82,167.85c-.1.04-.2.08-.3.11-.05-.04-.08-.07-.13-.1-.09.03-.2.08-.29.1-.09.02-.13.05-.16.11-.03.08,0,.11.04.14.07.03.12.09.19.14.12-.04.25-.08.39-.15.06-.03.13-.1.18-.16.04-.06.05-.13.08-.2Z"/>
        <path d="M103.55,115.71c.18.18.36.35.55.53.04.03.11.03.16.04l-.11-.4c-.06-.06-.12-.12-.23-.22-.09-.02-.22-.05-.36-.08-.05-.01-.06.04-.02.13Z"/>
        <path d="M100.21,114.52l-.11-.09c-.25.06-.36.3-.52.48-.06.14.05.14.09.2.11-.02.2-.09.29-.19.11-.13.25-.24.25-.39Z"/>
        <path d="M57.74,165.59c-.11.12-.19.22-.28.31-.07.07-.11.13-.11.19,0,.05.05.04.14,0,.1-.04.2-.06.28-.08.11-.12.19-.22.28-.31.07-.07.11-.13.11-.19,0-.05-.05-.04-.14,0-.1.04-.2.06-.28.08Z"/>
        <path d="M102.21,112.82c.05.2.17.32.38.37.04-.03.07-.06.12-.11-.03-.08-.06-.18-.09-.28-.06-.2-.1-.24-.39-.38.03.1.06.2.09.29-.04.04-.08.07-.12.1Z"/>
        <path d="M60.16,165.18l.17-.19c0-.23-.03-.25-.24-.19-.1.03-.2.06-.28.08-.08.09-.14.15-.19.22-.02.03-.02.07-.02.1,0,.04.06.03.14,0,.06-.02.12-.02.18-.02.03,0,.03.04.06.04.06,0,.12-.02.18-.03Z"/>
        <path d="M60.79,165.17c-.09.09-.17.18-.26.28-.07.07-.11.13-.11.2,0,.05.04.05.13.01.1-.04.2-.07.29-.09.07-.08.13-.14.19-.21q0-.23-.24-.19Z"/>
        <path d="M105.48,116.48c-.13.02-.2.04-.26.05-.03.16.06.33.1.48.09.08.16.2.28.2.05,0,.04-.05.01-.13-.02-.07-.04-.13-.05-.19-.02-.12-.05-.24-.08-.41Z"/>
        <path d="M58.43,164.83c.07-.09.2-.18.2-.29,0-.13-.1-.19-.25-.09-.12.08-.23.24-.34.37-.03.04-.01.1-.02.15.14-.05.28-.09.41-.14Z"/>
        <path d="M59.21,162.41c.07-.25-.13-.25-.25-.32-.12,0-.19.14-.28.22,0,.06-.03.14,0,.18.04.07.11.08.23.03.1-.04.2-.07.31-.11Z"/>
        <path d="M81.4,134.66s.08.06.12.09c.27-.14.27-.14.34-.4-.06-.05-.12-.08-.17-.14-.04-.04-.08-.06-.16,0-.05.03-.07.09-.08.17-.02.1-.03.19-.05.28Z"/>
        <path d="M79.97,133.53c-.21.06-.32.2-.36.39.04.04.08.07.13.1.09-.03.19-.08.29-.11.09-.02.13-.05.16-.11.03-.08,0-.11-.04-.14-.07-.04-.12-.09-.18-.14Z"/>
        <path d="M84.23,130.33c.08-.11.26-.22.17-.33l-.41.14c-.08.11-.26.22-.17.33l.41-.14Z"/>
        <path d="M58.34,167.96l.12.09q.26-.12.36-.39l-.12-.09q-.26.13-.36.39Z"/>
        <path d="M58.19,157.04l-.12-.09q-.26.12-.36.39l.12.09q.26-.12.36-.39Z"/>
        <path d="M63.84,151.23c-.03-.1-.04-.17-.06-.22-.16-.04-.35.1-.53.11.03.1.04.17.06.22.16.04.35-.1.53-.11Z"/>
        <path d="M105.43,113.86c-.04-.19-.18-.31-.39-.38.03.11.07.21.09.3.02.08.04.13.1.16.08.04.13.03.15-.02.01-.02.03-.03.05-.05Z"/>
        <path d="M63.94,161.61c-.14.05-.28.09-.41.14-.15.19,0,.19.05.25.21-.06.31-.2.36-.39Z"/>
        <path d="M54.66,167.06c.2-.06.32-.19.36-.41-.1.04-.2.09-.3.12-.08.02-.14.05-.16.11-.04.08-.02.12.04.14.02,0,.04.03.06.04Z"/>
        <path d="M93,125.33c-.2.06-.32.19-.36.41.1-.04.2-.09.3-.12.08-.02.14-.05.16-.11.04-.08.02-.12-.04-.14-.02,0-.04-.03-.06-.04Z"/>
        <path d="M95.56,119.61c-.16.02-.25.17-.37.29-.09.1-.16.19-.16.29.16-.02.25-.17.37-.29.09-.1.16-.19.16-.29Z"/>
        <path d="M63.95,168.53c.26-.11.26-.12.36-.38-.1.03-.19.06-.29.09-.08.02-.14.05-.16.1-.04.08-.03.13.03.14.02,0,.04.03.06.04Z"/>
        <path d="M106.64,116.85c.23.07.31,0,.24-.2-.09-.08-.16-.2-.28-.21-.05,0-.05.04-.02.13.03.1.04.19.06.28Z"/>
        <path d="M61.9,167.02s-.05.05-.06.07c-.05.13.08.23.2.15.02-.01.05-.05.06-.07.01-.03.03-.08.01-.09-.03-.04-.07-.07-.11-.09-.02,0-.07.02-.1.03Z"/>
        <path d="M62.08,164.19c.07.06.18.04.22-.05.04-.08.03-.13-.04-.15-.02,0-.03-.04-.06-.04-.07,0-.13.04-.16.09-.02.03-.03.07-.02.1,0,.02.04.03.05.05Z"/>
        <path d="M80.36,133c.05-.2-.03-.27-.24-.19-.05.2.03.27.24.19Z"/>
        <path d="M80.98,132.32c-.08.06-.12.13-.11.19.01.07.12.02.23-.11.03-.03.07-.06.08-.09s.02-.07.02-.1c0-.04-.06-.04-.14.01-.03.02-.06.06-.09.09Z"/>
        <path d="M82.71,133.34c-.11.12-.15.23-.08.23.07,0,.13-.05.19-.13.02-.03.07-.06.08-.09.04-.09.04-.14,0-.13-.03,0-.07.01-.1.03-.03.02-.06.06-.09.09Z"/>
        <path d="M84.67,131.53c.2-.06.32-.19.36-.39-.2.06-.32.19-.36.39Z"/>
        <path d="M105.14,114.71c.12.07.25-.03.19-.16,0-.02-.04-.05-.06-.06-.12-.07-.25.03-.19.16,0,.02.04.04.06.07Z"/>
        <path d="M70.1,165.84c-.2.06-.32.19-.36.39.2-.06.32-.19.36-.39Z"/>
        <path d="M62.23,152.83c-.11.12-.15.23-.08.23.07,0,.13-.05.19-.13.02-.03.07-.06.08-.09.04-.09.04-.14,0-.13-.03,0-.07.01-.1.03-.03.02-.06.06-.09.09Z"/>
        <path d="M64.62,150c-.2.06-.32.19-.36.39.2-.06.32-.19.36-.39Z"/>
        <path d="M64.55,165.48c-.08.06-.12.13-.11.19.01.07.12.02.23-.11.03-.03.07-.06.08-.09.02-.03.02-.07.02-.1,0-.04-.06-.04-.14.01-.03.02-.06.06-.09.09Z"/>
        <path d="M63.16,164.54c.05-.2-.03-.27-.24-.19-.05.2.03.27.24.19Z"/>
        <path d="M66.95,168.4c.05-.2-.03-.27-.24-.19-.05.2.03.27.24.19Z"/>
        <path d="M59.82,162.34s.09-.02.1-.03c.04-.09.03-.13-.02-.13-.03,0-.09.02-.09.03-.04.09-.03.13.02.13Z"/>
        <path d="M62.07,171.99s-.03.09-.02.09c.08,0,.13-.04.16-.09.01-.03.03-.09.02-.09-.08,0-.13.04-.16.09Z"/>
        <path d="M96.56,119.67s.09-.02.1-.03c.04-.09.03-.13-.02-.13-.03,0-.09.02-.09.03-.04.09-.03.13.02.13Z"/>
        <path d="M59.15,167.82c.05-.03.08-.09.08-.16,0,0-.06.01-.09.03-.05.03-.08.09-.08.16,0,0,.06-.02.09-.03Z"/>
        <path d="M99.76,119.12c.05-.03.08-.09.08-.16,0,0-.06.01-.09.03-.05.03-.08.09-.08.16,0,0,.06-.02.09-.03Z"/>
        <path d="M53.49,161.8s-.09.02-.1.03c-.04.09-.03.13.02.13.03,0,.09-.02.09-.03.04-.09.03-.13-.02-.13Z"/>
        <path d="M78.53,87.25s.09.03.09.02c0-.04,0-.1-.02-.14-.06-.1-.12-.12-.13-.04,0,.04.03.1.06.15Z"/>
        <path d="M63.83,162.32c-.05.03-.08.09-.08.16,0,0,.06-.01.09-.03.05-.03.08-.09.08-.16,0,0-.06.02-.09.03Z"/>
        <path d="M91.72,103.92s.09.03.09.02c0-.04,0-.1-.02-.14-.06-.1-.12-.12-.13-.04,0,.04.03.1.06.15Z"/>
        <path d="M86.8,97.64s.09.03.09.02c0-.04,0-.1-.02-.14-.06-.1-.12-.12-.13-.04,0,.04.03.1.06.15Z"/>
        <path d="M106.2,110.91s0-.02-.01-.02l.19,6.43h0s0,0,0,0h0s0,0,0,0h0s0,0,0,0l-.2-6.43s-.06,0-.12.03c0,0-.02.06-.02.09,0,.05.05.05.14,0,0,0,.01-.06.02-.09Z"/>
        <path d="M70.44,149.57c-.14.05-.28.09-.41.14-.15.2,0,.19.05.25.21-.06.31-.2.36-.39Z"/>
        <path d="M99.83,123.34c-.11.12-.15.23-.07.23.07,0,.13-.05.19-.13.02-.03.07-.06.08-.09.04-.09.04-.14,0-.13-.03,0-.07.01-.1.03-.03.02-.06.06-.09.09Z"/>
      </g>
    </g>
  </g>
</svg>