<?xml version="1.0" encoding="UTF-8"?>
<svg id="Layer_2" data-name="Layer 2" xmlns="http://www.w3.org/2000/svg" viewBox="0 0 64.29 181.18">
  <g id="Layer_1-2" data-name="Layer 1">
    <g>
      <g>
        <path d="M20.87,138.32c-.11-.2-.26-.45-.37-.64-.01-.34,0-.52.07-.68.13-.28.15-.5-.01-.85-.05-.11-.09-.2-.09-.34.02-.34-.1-.47-.19-.68,0-.26,0-.53-.01-.81-.07-.15-.13-.3-.19-.45.05-.19.16-.14.22-.23.2-.27.37-.65.47-1.15.03-.17.01-.39.11-.53.11,0,.23,0,.35-.01.02,0,.04-.09.07-.17,0-.38-.01-.79-.02-1.26-.04-.11-.1-.26-.17-.42.11-.28.22-.57.33-.85-.06-.22-.16-.17-.24-.2-.09-.03-.13-.28-.12-.48.01-.23.09-.33.14-.49.05-.16.04-.44,0-.56-.08-.18-.17-.38-.26-.57-.19,0-.36,0-.53,0-.1-.21-.18-.41-.27-.6.08-.2.16-.39.26-.63.1,0,.22.02.34-.02.03,0,.06-.16.08-.22-.06-.17-.13-.32-.16-.5-.02-.2-.03-.39-.12-.52-.05,0-.11,0-.17,0-.09-.2-.18-.4-.27-.59,0-.14-.01-.27-.02-.42.06-.14.11-.3.17-.45v-.4s-.2-.46-.2-.46c0-.27,0-.55-.01-.77-.16-.38-.31-.73-.46-1.07-.07,0-.13,0-.18,0-.07-.15-.14-.28-.21-.43-.18,0-.36,0-.46,0-.26-.57-.48-1.05-.72-1.59,0-.18,0-.45-.01-.7-.03-.07-.05-.13-.08-.17-.06-.1-.09-.2-.07-.29.03-.14.08-.16.15-.14.09.02.18,0,.29,0,.02-.18.05-.36.07-.52-.1-.32-.2-.56-.33-.73-.03,0-.07-.02-.09,0-.09.14-.19.28-.28.42-.09,0-.18,0-.29,0-.18-.39-.38-.82-.58-1.25-.12,0-.24,0-.35,0-.07-.15-.14-.28-.21-.43-.18,0-.36,0-.49,0-.19-.38-.35-.7-.49-.99,0-.61,0-.61.25-.65.06.13.13.26.2.41.05,0,.11,0,.19,0,.07-.18.15-.39.24-.64,0-.21,0-.48-.01-.8-.04-.11-.1-.26-.17-.42,0-.12-.01-.25-.02-.4-.12-.29-.25-.58-.37-.87,0-.15-.01-.29-.02-.42-.11-.24-.23-.48-.33-.74-.03-.09-.05-.26-.04-.38,0-.11.06-.21.09-.31.06,0,.12,0,.18,0,.14.28.25.62.38.79.14,0,.26,0,.32,0,.12-.25.21-.42.28-.56,0-.49-.01-.9-.02-1.3-.09-.21-.17-.43-.27-.58-.07-.1-.19.07-.24-.16-.04-.22.08-.29.13-.49,0-.22,0-.49-.01-.76.06-.16.11-.32.17-.48,0-.12,0-.25,0-.4-.12-.29-.25-.58-.37-.86.12-.35.28-.14.43-.21.06.13.13.26.2.41.12,0,.14.02.26.17.01.44.03.9.04,1.32.07.15.15.24.15.34.01.46.14.73.28,1,.01.03.05.04.06.02.02-.03.06-.09.06-.14-.01-.83-.03-1.66-.04-2.5l-.99-2.18s-.05-.06-.08-.09c-.06-.02-.12-.02-.17-.06-.07-.06-.09-.19-.07-.35-.08,0-.17.03-.25,0-.04-.02-.1-.17-.09-.23.01-.14.07-.19.13-.18.05.02.11.03.15.08.06.06.08.18.06.33.09,0,.18,0,.29,0,.02-.17.05-.35.07-.49-.02-.1-.03-.17-.05-.22l-.79-1.76-.18-.02-.2-.4c-.06.14-.12.28-.18.41-.06,0-.12-.02-.18-.03l-.27-.59v-.82c-.08-.15-.14-.3-.19-.43,0-.44-.01-.85-.02-1.27,0-.05.04-.1.07-.17.23,0,.47,0,.73-.01.07.15.16.34.24.52.05.12.06.39.01.56-.03.11-.08.2-.12.3.07.3.17.51.29.67.27,0,.54,0,.81-.02.05,0,.09-.13.14-.2.01-.19-.04-.43.06-.57.02,0,.05,0,.06.02.2.44.4.88.61,1.34-.05.14-.1.28-.16.47,0,.37.01.78.02,1.2,0,.05.03.11.05.15.02.03.05.04.06.02l.49-1.19c.24,0,.48,0,.79-.01.07.23.19.56.28.84.24-.1.47.18.66-.25-.09-.17-.19-.34-.31-.56-.01,0-.07-.02-.16-.05-.11-.24-.24-.52-.37-.81-.14-.08-.3.14-.43-.16-.02-.31-.04-.64-.06-.94-.06-.12-.1-.22-.15-.34,0-.39-.01-.8-.02-1.22l-.38-.89c0-.2-.04-.42.08-.59.1,0,.21,0,.36,0,.05.09.12.22.19.36.05,0,.11.01.18.02.06.13.13.26.2.41.02.03.06,0,.09,0,0-.28-.01-.54-.02-.83,0-.16,0-.29.06-.35.04-.04.08.03.13.16.02.04.04.1.08.18.16,0,.34,0,.52,0,.07,0,.12-.3.11-.48-.01-.14-.05-.22-.09-.34-.15-.42-.15-.42-.02-.85.02-.04.04-.11.06-.15.04-.15.02-.43-.03-.56-.04-.11-.19-.17-.24-.07-.07.14-.13.27-.17.35-.15,0-.26,0-.36,0-.26-.53-.27-.53-.51,0-.19.15-.41-.1-.6.16-.14.47.09,1.1-.1,1.54-.06,0-.12.01-.2.02-.06.18-.14.39-.23.65-.03.35-.05.46-.17.78-.05.32.05.68-.05.98-.02.03-.05.09-.07.09-.36,0-.71.01-1.02.02-.13-.26-.22-.44-.31-.61,0-.45-.01-.86-.02-1.26-.07-.16-.13-.31-.19-.47,0-.41-.01-.82-.02-1.19-.07-.18-.13-.34-.18-.46-.03-.59,0-1.14-.04-1.59-.07-.24-.15-.39-.17-.57-.02-.2-.03-.39-.12-.5-.06,0-.11-.01-.11-.01-.25-.55-.46-1.03-.69-1.52.07-.05.15-.1.22-.15.14.3.27.57.4.84.06-.13.12-.25.18-.36.1.21.19.4.28.57,0,.3,0,.58.01.85q.21.3.43-.19c.06-.01.12-.02.21-.04.06-.17.13-.39.21-.64-.03-.08-.08-.22-.14-.37.04-.24.13-.41.21-.56.06-.11.16-.09.23-.17.05-.06.08-.19.13-.31.06.12.13.25.18.36.03.08.06.19.09.28-.04.11-.08.2-.12.3-.04.47-.04.93.03,1.4.04.1.1.18.13.29.11.36.35.16.45.58.01.04.05.07.07.08.09.03.17-.03.22-.22,0-.14,0-.28,0-.4-.07-.16-.13-.31-.19-.46-.01-.69-.02-1.38-.04-2.12-.08-.05-.16-.11-.28-.19-.03-.07-.1-.2-.17-.35-.05,0-.11,0-.17,0-.07-.14-.14-.28-.21-.43h-.17c-.09-.2-.18-.39-.27-.59.2-.48.41-.96.63-1.49.08,0,.2,0,.3,0,.11.11.11.31.12.52.02.28.18.35.19.66,0,.07,0,.14,0,.15.23.51.45.99.68,1.49.03-.07.09-.19.16-.33.05,0,.11,0,.17,0,.07.13.13.27.2.4.06,0,.12,0,.14,0,.23-.53.44-1.01.65-1.5-.03-.2-.05-.38-.08-.57-.14,0-.26,0-.37,0-.07-.14-.14-.28-.21-.43-.11,0-.23,0-.35,0-.07-.14-.14-.28-.21-.42-.06,0-.11,0-.17,0-.07-.15-.14-.28-.2-.4-.07-.01-.13-.03-.18-.04l-.26-.58-.2-.44c-.09-.19-.17-.43-.27-.58-.14-.21-.05-.68-.21-.86-.11,0-.23,0-.34,0-.16-.35-.31-.7-.46-1.03-.02-.04,0-.13,0-.2-.08,0-.17.04-.24,0-.08-.04-.14-.18-.16-.41-.06-.02-.08-.07-.1-.11-.01-.03-.03-.1-.02-.13.03-.15.07-.17.11-.08.05.09.07.19.05.32,0,.02-.05.02-.04,0,.12,0,.21-.04.28,0,.08.04.14.18.12.4.09,0,.18,0,.36,0,.06-.22.16-.56.21-.73.16-.13.24-.2.31-.26,0-.46-.01-.87-.02-1.33-.08-.16-.17-.35-.28-.57-.09,0-.2,0-.32,0-.07-.14-.14-.27-.22-.42-.12.27-.24.55-.35.81-.19,0-.37,0-.54,0-.09-.21-.18-.4-.27-.6v-.4c-.07-.16-.13-.31-.2-.45-.01-.2.02-.42-.1-.58-.07,0-.16-.02-.24-.02-.16,0-.21.11-.2.47,0,.2-.01.43.01.56.05.21.18.29.15.49-.03.25-.15.13-.23.16-.03-.11-.08-.21-.1-.33-.1-.59-.12-.68-.41-.91-.09-.07-.14-.23-.21-.35-.09-.15-.24,0-.31-.32,0-.12,0-.25,0-.38-.07-.16-.13-.31-.19-.45,0-.15-.02-.33.01-.41.13-.34.27-.72.38-1.03.1.01.16.02.22.02l.73,1.61.18.02c.17-.15.03-.66.18-.84h.18c.15.16.04.68.21.83l.18-.02s.05-.09.06-.15c0-.16,0-.25.01-.4,0-.06.02-.12.04-.16.04-.1.08-.2.12-.31,0-.13,0-.27,0-.4.18-.45.36-.9.52-1.32-.04-.37.05-.75-.11-1-.06,0-.12,0-.14,0-.31-.68-.59-1.31-.87-1.92,0-.54-.02-1.09-.02-1.64,0-.05.04-.1.06-.15.06-.01.12-.02.17-.03.15.12.08.51.15.67.12.26.17.53.17.9,0,.45.03.48.28.52.07.14.14.27.19.38.2.02.38.03.55.06.02,0,.04.09.07.15,0,.27,0,.54.01.83-.05.14-.11.29-.17.44,0,.14,0,.28,0,.4.07.16.13.31.2.48.01.68.02,1.36.04,2.05,0,.05.04.1.06.15.03.01.06.03.08.03.11,0,.2-.12.19-.28,0-.35,0-.68-.01-1.04,0-.12.05-.22.08-.34h.17c.06-.14.13-.28.18-.41.07.14.14.27.21.43.08-.06.16-.12.26-.2-.13-.29-.24-.53-.34-.76-.08-.21-.16-.4-.24-.61.02-.32-.07-.5-.16-.69-.03-.51-.16-.85-.34-1.11-.2-.07-.41.21-.6-.18,0-.14-.01-.27-.02-.42.06-.15.11-.3.17-.45,0-.41-.01-.83-.02-1.23.06-.16.12-.31.17-.45-.02-.56-.02-.57-.27-.6-.12.27-.24.56-.37.84-.08-.02-.18.07-.25-.2,0-.23,0-.5-.01-.81-.19-.42-.38-.85-.57-1.27,0-.17-.01-.31-.02-.4-.16-.37-.31-.72-.45-1.06-.1,0-.19-.01-.28,0-.07.01-.12-.02-.19-.29-.1-.17.13-.7-.1-.92-.06.12-.12.24-.18.35-.12-.28-.23-.52-.34-.76-.06-.01-.12-.02-.18-.03-.06-.12-.13-.26-.2-.41-.11,0-.23,0-.35,0l-.21-.43c-.12,0-.24,0-.35,0-.07-.15-.14-.28-.2-.41-.07-.01-.13-.03-.13-.03-.19-.37-.35-.68-.54-1.05.12-.09.2-.15.27-.2.04.06.07.09.09.13.05.1.09.19.13.29.14-.46.15-.46-.08-.98.01-.36-.15-.78.07-1.06.04.1.08.22.13.29.12.17.22.12.3-.12,0-.42-.01-.83-.02-1.24.06-.15.12-.3.17-.45-.01-.67-.01-.67.06-1.02l.39.83c.06,0,.12,0,.17,0,.07.15.14.28.22.44l.23-.17c0-.32,0-.59-.01-.9-.05-.13-.12-.28-.18-.43,0-.13,0-.27,0-.4-.06-.15-.12-.3-.18-.44.18-.4.4-.13.61-.21.06-.12.12-.26.14-.3.17-.24.34.04.46-.25.05-.47.04-.94-.04-1.57-.26-.57-.56-1.25-.89-1.96,0-.14,0-.34.08-.48.07-.13.11-.31.08-.58-.13-.42-.31-.77-.49-1.09-.07-.02-.13-.04-.13-.04-.13-.23-.22-.4-.32-.56.1-.24.18-.44.26-.64.06,0,.11,0,.19,0,.07-.19.15-.4.25-.69,0-.3,0-.7-.01-1.12,0-.1.07-.19.11-.3.11,0,.23,0,.33,0,.07-.14.13-.26.19-.38.19.42.36.81.55,1.21.23,0,.47,0,.71-.01.06,0,.12-.37.09-.52-.01-.07-.02-.12-.03-.18-.11-.24-.22-.49-.34-.76,0-.17,0-.38,0-.58q0-.36.21-.46s.05-.04-.01.01c.22-.44.37-.75.5-1,0-.25.01-.39.02-.49.08-.22.16-.42.24-.61.26-.01.26-.02.25-.16-.01-.21-.1-.29-.16-.46,0-.25,0-.53-.01-.82.09-.23.16-.53.3-.65.14-.06.31.16.4-.24v-.41c-.09-.2-.21-.33-.2-.67,0-.24-.11-.31-.15-.49-.05-.22-.08-.47-.12-.7-.08,0-.14,0-.26,0,.04-.71-.23-1-.41-1.45,0-.13,0-.27,0-.4-.06-.2-.14-.25-.23-.22-.16.05-.29-.05-.42-.48-.12.56-.07,1.07-.04,1.57.14.19.18.51.2.85l.33.73c0,.07.01.14.02.19v.42c.01.26-.03.45-.11.46-.06.01-.13.02-.17-.05-.16-.35-.31-.67-.44-.97-.01-.2,0-.37-.03-.46-.07-.22-.17-.4-.24-.57-.1-.06-.2.07-.27-.19-.02-.3-.04-.63-.06-.93-.06-.12-.1-.22-.15-.34,0-.4-.01-.81-.02-1.23-.13-.3-.26-.59-.38-.88,0-.15,0-.28,0-.41.1-.31.26-.5.3-.81-.09-.25-.16-.47-.22-.64-.09-.01-.15-.02-.18-.02-.18-.36-.33-.68-.49-.99.15-.38.29-.73.43-1.07.12,0,.24,0,.36-.01.02,0,.04-.09.06-.14-.06-.31-.17-.5-.29-.67-.19-.15-.23.36-.37.42h-.45s-.05-.04-.08-.07l-.13-.29c-.06-.01-.11-.03-.18-.05-.06.12-.12.26-.2.42-.07,0-.16,0-.25,0-.03,0-.07.03-.09,0-.04-.08-.09-.18-.11-.29-.04-.39.06-.55.17-.54.27.01.54,0,.8,0,.06-.15.13-.29.18-.41.25,0,.49,0,.71-.01.08.15.15.28.22.44l.23-.19c0-.18,0-.32,0-.48.14-.33.29-.66.44-1.02.04,0,.1-.02.16-.02.17.14.06.66.21.83.06,0,.12,0,.2,0,.04.23.08.47.12.71.33.73.66,1.46.99,2.19.02.03.06,0,.09,0v-.62c-.32-.68-.63-1.36-.94-2.05,0-.4-.01-.81-.02-1.21-.24-.65-.54-1.14-.74-1.73,0-.35-.01-.61-.01-.85.05-.13.1-.23.14-.33,0-.11-.02-.24-.09-.25-.12-.03-.24,0-.34,0-.1-.22-.19-.42-.28-.61.06-.15.11-.3.17-.44,0-.14,0-.28,0-.41-.24-.54-.49-1.08-.73-1.62.18-.46.43-.1.6-.26.11-.24.19-.43.27-.59,0-.17,0-.31,0-.44-.12-.35-.36-.11-.45-.59-.06,0-.12-.02-.18-.03-.13-.27-.26-.55-.39-.82-.19,0-.36,0-.5,0-.18.24-.25.66-.42.83-.18-.02-.35.06-.53-.06l-.13-.29c-.32-.16-.64.08-.96-.1-.09-.21-.17-.41-.26-.61,0-.29,0-.56-.01-.82-.1-.19-.18-.36-.19-.68,0-.17-.1-.32-.17-.56-.05-.79,0-1.68-.07-2.51-.06-.14-.11-.24-.16-.35.11-.29.23-.59.33-.87,0-.15,0-.28,0-.41-.11-.27-.24-.49-.34-.82l-.83.33.12.07c.08.13.19.28.28.41-.1.09-.19.17-.29.27l-.5-.4,1.76-.7v.09s.34.73.34.73c.02.19-.02.42.08.57.02.02.05.06.07.07.14.04.29-.11.41.21.12.3.34.18.44.58.05.17.13.3.19.44.14-.34.28-.69.44-1.06-.09-.16-.18-.34-.31-.58.02.02,0,0-.03-.02-.21-.09-.21-.09-.22-.46,0-.19.01-.39-.03-.58l-4.18,1.65c.06.04.13.08.2.1.05-.05.11-.1.18-.16.12-.1.21-.05.49.23.14.14.28.29.32.32.45.23.8.4,1.09.55.09-.05.14-.08.19-.11l.59.26c.12.15.32.28.35.5-.11.13-.25.27-.39.44.21.55.42,1.1.63,1.66-.14.04-.11.31-.42.15-.05-.05-.1-.1-.15-.14l-.29-.3c-.3-.31-.45-.34-.49-.1,0,.03.03.1.05.15.38.4.76.81,1.14,1.21.04.04.04.1.07.17-.08.24-.34.32-.47.51-.03.04.03.16.05.25.14.14.27.33.5.37.12-.11.27-.25.42-.39.15-.14.3-.29.47-.41.03-.02.17.06.27.1.18.2.36.4.55.61.04.04.04.1.06.17-.17.15-.34.31-.52.47.05.15.1.29.15.45-.08.07-.17.15-.25.24-.02.02.02.09.04.14.05.09.16.17.24.16.29-.06.29-.07.58.24l.14.15c.28.28.37.32.49.22.15-.14.3-.28.44-.4-.05-.17-.09-.3-.11-.38.22.08.4.14.58.2.08.19.14.34.2.47q1.56,1.65,1.78,1.99l-.12.14c-.14-.06-.28-.12-.43-.18l-.19.18.72.76c.34.15.69.3,1.04.46.04-.04.08-.08.13-.12-.05-.14-.1-.28-.14-.42l.13-.12c.2.09.4.18.6.26.4.39.4.39.3.61-.01.03-.01.06,0,.04.08.27.14.46.18.61.24.25.43.45.65.69l.29-.03c.48.21.98.43,1.55.69.19.2.47.5.76.8.1.11.1.3.02.33-.1.04-.27-.09-.39-.12-.18-.03-.24.07-.1.32.09.1.18.2.26.29.06.15.12.29.18.43.42.18.81.36,1.21.53.05.05.1.09.14.14l.29.3c.29.3.37.31.49.11-.04-.15-.08-.29-.11-.41.11-.08.2-.14.27-.2.15.07.25.11.35.15l.39-.2c.51.39.87.92,1.32,1.31.54.24,1.09.48,1.65.73.06.19.12.39.2.6-.11-.04-.24-.09-.37-.14.04.13.09.27.14.41-.04.07-.19.06-.07.27.31.23.56.27.86.42l.85.9c.3.14.59.27.88.4.16.17.29.32.46.37.14.05.3.13.44.19l.13-.12.59.26c.03.08.1.21.08.24-.06.1-.16.16-.23.23-.3-.13-.54-.24-.79-.35-.03,0-.07,0-.09.02-.13.12.05.47.31.6.26.12.49.27.77.55.52.22,1.05.44,1.59.67.16.34-.1.3-.17.46-.32-.14-.65-.28-1-.44-.38-.16-.8-.4-1.13-.47-.21.11.04.47.18.79.11-.02.2-.03.36-.06.1.05.3.16.56.29.18.17.42.38.69.44.17.18.37.38.54.58.05.06.06.16.08.22-.14-.05-.28-.1-.4-.14-.07.15-.34.1-.16.44.1.11.19.21.28.3.16.08.3.15.46.22.29.3.57.6.89.94.1-.01.19-.03.33-.05.07.03.22.09.37.15l.13-.11c.15.06.29.12.43.18l.12-.13q-.13-.39.04-.32l.29.3.43.2.18.45c.36.28.3.51.43.7.24.26.43.45.58.61.18.12.29.08.45.28.07.19.13.38.19.55-.04.06-.08.11-.1.15.07.21.14.41.21.6.1.11.2.21.29.31.3.21.26-.16.62.13.08.11.2.27.29.4-.02.05-.04.08-.05.1-.09.17-.05.27.19.36.26.1.49.44.74.52.28.09.59.25.89.38.05.02.1.04.14.06.11.11.2.21.3.31.01.08.06.2.03.24-.06.07-.08.15,0,.31.2.21.39.42.54.58.38.18.73.34,1.07.49.05-.05.09-.09.14-.12.2.09.4.18.6.26.1.1.19.19.3.3.14.07.3.14.43.2.04.02.09.1.17.12.06-.03.11,0,.15.02.03.02.09.05.1.08.08.14.06.17-.03.14-.09-.04-.18-.09-.26-.21-.01-.02.03-.05.03-.02-.1.09-.16.15-.23.2.05.15.17.36.13.42-.13.21-.15.2.23.62.14.07.29.14.43.21.11.28.23.57.34.85.16.08.29.15.42.22.04.13.08.25.15.38.01.02.04.03.06.02h.03c.1-.05.2-.1.31-.18.25-.26.38-.51.58-.77.11-.07.23-.15.36-.22.3-.05.61-.1.88-.15.25-.22.09-.24.07-.35.11-.14.25-.32.41-.52.26-.16.48-.37.58-.58.11-.08.23-.15.36-.24.31-.06.63-.11.93-.17.37-.23.73-.45,1.12-.7,0-.1.02-.19.02-.29-.33.05-.64.09-.95.14-.03-.05-.06-.1-.11-.17.18-.15.37-.31.56-.47l.46-.66c.12-.07.24-.15.35-.22.16-.03.33-.06.48-.09.12-.08.24-.16.34-.22.11-.14.21-.27.31-.41.23-.15.47-.29.65-.41.13-.16.24-.29.34-.42.39-.21.74-.43.88-.72.01-.03.09-.08.15-.12.29-.17.41-.31.31-.43-.06-.07-.1-.14-.13-.2.15-.21.27-.39.39-.56.17-.03.33-.06.46-.09.38-.24.73-.46,1.08-.67.26-.36.5-.71.75-1.06l.33-.23c.4-.5.41-.54.39-.84.31-.44.66-.92,1-1.4-.03-.05-.05-.11-.08-.15.09-.13.17-.26.25-.39-.06-.1-.13-.19-.18-.28.05-.06.08-.11.11-.15.22-.27-.04-.38.27-.68.03-.03.02-.08,0-.09-.12-.09.08-.29.18-.45-.02-.05-.05-.11-.07-.17.08-.12.16-.25.25-.38-.03-.05-.06-.1-.1-.15l1.39-1.97s.08-.08-.15.14c.43-.38.57-.5.7-.61-.04-.07-.07-.12-.1-.16l.26-.39-.19-.29c.22-.24.28-.43.19-.56.34-.48.68-.96,1.02-1.44-.03-.05-.07-.1-.09-.15.09-.13.17-.26.27-.41-.29-.03.12-.35.14-.56-.04-.06-.1-.16-.16-.25.08-.11.14-.2.2-.29,0-.17-.05-.29-.23-.34l-.32.05-.08-.05c-.17-.12-.19-.12-.52.08-.17.11-.35.22-.5.31-.43-.01-.82.29-1.2.57-.06.09-.12.18-.19.27-.26.21-.57.37-.86.56-.34.23-.72.41-1.02.68-.07.09-.13.18-.2.28-.22.14-.46.28-.69.43l-.3.4c-.23.14-.47.29-.72.45-.24.34-.49.69-.73,1.04-.02.02-.08.05-.13.08-.2.02-.4.05-.7.27-.08.1-.18.23-.29.38-.21.13-.44.28-.7.44-.14.03-.3.06-.47.09-.35.22-.71.44-1.06.66-.1.13-.2.26-.28.38-.5.31-.97.6-1.42.88-.18.04-.35.07-.52.11-2.62,1.63-5.24,3.26-7.82,4.86-.2.06-.3,0-.49.14l-.46.66c-.11.08-.23.15-.35.23-.15.03-.32.06-.48.09l-.7.44h-.01s13.33,1.7,13.33,1.7l-.17-.42c-1.27-1.34-2.51-2.66-3.75-3.97-.31-.15-.58-.22-.92-.45-.17-.19-.35-.39-.5-.55-.06-.15-.09-.25-.14-.37-.27-.28-.55-.58-.87-.92-.11-.05-.25-.12-.41-.2-.08-.09-.18-.18-.28-.29-.11-.29-.23-.58-.34-.87-.16-.08-.31-.15-.41-.21-.52-.55-.99-1.05-1.45-1.53-.05-.13-.08-.23-.13-.36-.38-.44-.8-.88-1.21-1.28-.14-.06-.24-.1-.38-.17-.25-.27-.54-.57-.82-.87-.34-.36-.67-.71-1.01-1.07-.28-.29-.54-.63-.86-.85-.11-.05-.2-.09-.31-.14-.18-.19-.37-.39-.56-.6l-.45-.21c-.38-.4-.76-.81-1.14-1.21-.15-.07-.3-.14-.43-.2-.21-.22-.4-.42-.57-.6-.07-.18-.14-.33-.19-.46-.5-.53-.97-1.03-1.41-1.5-.22-.57-.25-.61-.67-.82-.17-.08-.3-.2-.42-.33-.3-.13-.59-.25-.82-.34-.29-.3-.48-.5-.66-.7-.16-.07-.3-.14-.43-.2-.36-.27-.3-.5-.5-.74l-.3-.13c-.47-.38-.83-.91-1.3-1.29-.1-.04-.2-.09-.32-.14-.94-1-1.9-2.01-2.86-3.02-.16-.08-.3-.15-.47-.23-1.14-1.2-2.29-2.42-3.44-3.64-.15-.07-.3-.14-.45-.21-.28-.3-.57-.61-.85-.9-.16-.07-.3-.15-.46-.22-.48-.51-.96-1.01-1.41-1.49-.18-.09-.32-.16-.45-.23-.5-.53-.98-1.03-1.39-1.47-.22-.12-.37-.2-.49-.26-.31-.34-.65-.63-.67-.96-.14-.07-.28-.14-.44-.22-.08-.08-.17-.18-.26-.28-.16-.07-.3-.14-.46-.22l-1.43-1.51C11.33-.7,6.05-.89,2.67,2.2.87,3.84-.03,6.11,0,8.35v.83c.08.16.14.31.21.47l.06,3.73c.14.22.2.5.19.88,0,.13.02.26.03.39.04.1.09.2.14.31.06.53.03,1.08.05,1.62,0,.49.02.97.03,1.46.02.54-.02,1.1.05,1.61.05.12.1.22.15.33-.05.14-.1.29-.16.45,0,.53.02,1.08.03,1.65.02.04.04.09.06.14.04.1.09.2.12.29,0,.14,0,.28,0,.41-.04.1-.08.21-.12.3-.02.06-.03.11-.05.16.02.52.03.52.17.57.18.07.19.1.2.5,0,.2,0,.4,0,.57-.22.58-.22.61.03,1.2,0,.25,0,.53.01.84-.1.27-.22.57-.33.86,0,.14,0,.28,0,.4.07.16.13.31.19.47,0,.27,0,.55.01.8.12.26.23.51.36.81-.11.27-.23.55-.34.83v.82c-.04.15-.1.3-.15.44.06.16.12.31.19.47,0,.27,0,.54.01.8.24.33.19.81.16,1.29-.04.1-.08.2-.12.3.03.09.05.22.09.28.09.15.08.35.08.57-.05.14-.11.29-.17.45.08.35.29.06.36.44q0,.66-.06,1l-.19-.37s-.04.06-.06.11c-.02.05-.03.12-.03.17v.62c.03.48,0,.96.06,1.43.05.1.09.2.16.35.01.91.03,1.88.05,2.84,0,.06-.02.11-.04.17l-.12.3c0,.14,0,.27,0,.47.08.14.17.32.29.52.04-.07.09-.18.15-.3.02.02.05.03.06.06.07.28.07.62.2.87.1.18.06.49-.05.69-.17,0-.35,0-.53.02-.02,0-.04.09-.08.19l.37.83v.42s.34.73.34.73c.04.1.03.2-.04.29-.14.09-.3-.13-.42.15-.05.4-.02.81,0,1.22,0,.48-.02.96.08,1.58.19.42.43.95.66,1.47-.12.16-.12.16-.22.17-.08,0-.17.04-.24.06-.05.48-.05.47.05.76.14.41.14.47.01.86-.02.05-.04.1-.07.17,0,.53.02,1.08.03,1.68.04.11.11.26.17.42,0,.12,0,.26.01.39.07.38.29.09.37.44,0,.28,0,.56.01.83q-.2.31-.44-.17c-.11.25-.12.25-.05,1.9.04.1.09.19.14.3.09.72,0,1.49.09,2.22.1.18.19.38.16.68.14.29.27.56.38.78.02,1.38.04,2.63.06,3.86.07.16.13.31.19.47.01.69.02,1.38.03,2.03.07.18.13.33.19.5-.03.41.03.82-.02,1.22l-.12.3c0,.06-.02.12-.02.18l.02,1.67c0,.13-.02.26-.03.42-.16.36-.32.75-.48,1.12,0,.3,0,.58.01.85.09.2.18.39.28.62.23,0,.47,0,.7,0,.02,0,.05.07.07.12.08.39.04.81.06,1.21.02.48,0,.96.05,1.43.02.05.04.11.07.15.07.1.09.2.06.29-.02.05-.04.12-.07.12-.12.01-.24,0-.34.01-.08-.16-.15-.3-.23-.44-.13.11-.3-.12-.41.24.02.96.03,1.93.05,2.91.12.29.25.58.38.87-.07.42.14.54.16.78-.08.25-.16.47-.21.64-.27.03-.27.03-.27.6-.05.14-.11.29-.17.45,0,.12,0,.26,0,.4.05.19.14.18.23.23.08.04.14.22.24.37.09,0,.2,0,.32,0,.07.14.14.27.21.41.06.11.09.2.07.29-.03.15-.08.19-.15.15-.07-.05-.13,0-.14.16,0,.08.05.2.08.29.02.06.04.1.07.15,0,.07.01.14.02.19,0,.26-.04.45-.11.46-.06,0-.13.02-.17-.05-.18-.4-.35-.78-.53-1.16-.02.04-.05.07-.06.11-.02.05-.03.11-.03.17,0,.14,0,.27,0,.42.02.55-.01,1.1.05,1.62.05.11.1.21.14.31.08.59-.01,1.22.09,1.79.05.12.1.21.15.32,0,.26,0,.53.01.81l.19.46c0,.27,0,.54.01.81.06.15.13.3.18.43,0,.57.02,1.13.03,1.65-.06.17-.12.33-.18.49,0,.41.01.82.02,1.21-.17.42-.34.81-.5,1.22,0,.4.01.81.02,1.23l-.18.46c0,.13,0,.27,0,.4.06.15.13.3.19.44,0,.15,0,.28,0,.4-.06.16-.11.32-.18.49.03.18.06.36.09.54.08,0,.14,0,.2,0l.18-.41c.06,0,.12,0,.2,0,.03.17.06.36.08.51.13.29.26.58.36.79.01.7.02,1.25.03,1.81l-.24.59c-.24.05-.28-.01-.29-.45,0-.14,0-.28-.01-.41-.02-.12-.06-.22-.09-.34-.06,0-.12,0-.19,0-.07.18-.15.39-.24.63.02.91.03,1.88.05,2.84-.06.16-.11.32-.17.48,0,.12,0,.26,0,.4.06.14.12.29.19.44,0,.55.02,1.11.03,1.65l-.18.47c.03,1.8.06,3.6.09,5.39-.11.26-.21.51-.31.76-.02.33-.04.67-.18.87,0,.26,0,.53.01.85.04.11.11.26.17.42-.05.14-.11.29-.17.44,0,.13,0,.27,0,.39-.06.16-.12.31-.16.44,0,.31,0,.58.01.82.07.18.13.33.17.43,0,.34.01.61.01.82-.07.21-.12.36-.16.48,0,.46.04.88-.02,1.31-.1.12-.15.35-.12.69.05.13.11.28.18.44,0,.53.02,1.08.03,1.65-.05.14-.11.29-.17.45.02.97.03,1.94.05,2.89-.06.16-.12.31-.18.47,0,.41.01.82.02,1.2-.06.18-.12.34-.16.47.01.66.02,1.28.03,1.91,0,.06-.01.12-.02.18-.21.55-.21.59.04,1.17.02,1.22.04,2.47.06,3.76-.04.12-.1.27-.16.44,0,.39.01.81.02,1.23.06.14.12.29.19.45,0,.55.02,1.1.03,1.54.1.45.28.6.35.99l-.12.3c.07.39.23.58.35.88,0,.13,0,.27,0,.44-.08.17-.16.35-.27.6-.06.06-.2-.09-.23.26l.53,1.17c0,.06.02.13.02.19-.01.24.04.41.13.45.09.04.18,0,.24.22,0,.13,0,.26,0,.41-.06.15-.11.3-.17.44,0,.15,0,.28,0,.41.18.4.36.79.53,1.18,0,.06.02.13.03.18q.05.46.29.52l.26.58-.17.45c0,.14.01.28.01.4.06.16.12.31.19.47.03,1.52.05,3.04.07,4.38.18.48.32.85.45,1.19.21,0,.39,0,.56,0,.1.33.23.44.38.45.11.25.22.49.34.76.12-.27.24-.55.36-.82.06,0,.12,0,.18,0,.24.54.49,1.08.73,1.61.04.08.22.03.24-.08.02-.11.04-.25.04-.37-.01-.34-.23-.45-.2-.87,0-.09-.06-.22-.1-.32-.09-.19-.17-.39-.26-.59.12-.26.12-.27.42-.19.13.23.22.4.31.55,0,.33.01.61.01.79.17.41.31.76.46,1.11.09-.23.18-.43.26-.63,0-.27,0-.54-.01-.83-.06-.14-.12-.29-.18-.44l.24-.59c.06-.01.12-.02.18-.03.06-.13.12-.27.19-.42.17,0,.35,0,.54,0,.08-.19.16-.38.23-.6.03-.09.01-.26.02-.39-.09-.27-.18-.53-.32-.67-.24-.04-.48.08-.71-.04-.09-.2-.17-.39-.25-.58.03-.07.05-.16.07-.16.24,0,.48-.01.73-.02.05.1.12.24.19.39h.17c.07.14.14.28.2.41.06,0,.12-.02.18-.03.08-.2.16-.4.25-.6,0-.13,0-.27,0-.4.05-.08.09-.2.13-.22.05-.03.12,0,.16.07.09.17.17.38.26.57,0,.29,0,.56.01.82.03.07.06.11.07.17.03.1.06.19.08.28-.04.11-.09.19-.12.31-.08.33.01.68.18.68.09,0,.18,0,.25,0,.09-.22.17-.42.26-.62,0-.31,0-.33.06-.61.19-.02.39-.04.57-.06.06-.15.1-.27.14-.34.11-.16.25-.05.29.21.02.13,0,.34.03.39.18.28.17.69.18,1.1,0,.21.08.33.19.32l.81-.02s.05-.09.06-.14c0-.03,0-.11-.02-.14-.04-.09-.09-.2-.15-.33,0-.24-.02-.52,0-.79,0-.08.07-.14.09-.19.1.19.19.37.28.54,0,.18,0,.31,0,.49l.24.17c.07-.16.14-.29.2-.43.06.13.13.26.2.4.06,0,.12,0,.17,0,.07.14.13.27.2.39.09-.21.17-.41.25-.61v-.41c-.07-.15-.13-.3-.19-.44,0-.21-.03-.43.08-.59.46,0,.94-.02,1.41-.02.07-.15.13-.28.21-.44.14.34.29.69.43,1.04-.02.05-.06.18-.1.2-.11.05-.23.05-.35.08-.02,0-.04.09-.06.14,0,.14,0,.28,0,.42.09.19.18.38.27.6.11,0,.23,0,.36,0,.13.28.26.57.39.86l.07.15c.07.16.02.62-.08.67-.08.04-.18-.01-.23.2,0,.13,0,.27,0,.42-.05.14-.11.29-.17.44.09.19.17.39.28.62.34,0,.7-.01,1.06-.02.02,0,.05-.07.08-.13.01-.3.02-.63.03-.96.1-.25.21-.49.3-.75.03-.09.01-.26.02-.41-.06-.14-.12-.29-.18-.45,0-.12,0-.26-.02-.4l-.18-.44c.06-.15.11-.3.17-.44,0-.15,0-.29,0-.42l.12-.3c.04-.1.02-.2-.05-.3h-.36q-.14-.43,0-.84h.53q.17-.4.26-.22c0,.13,0,.26,0,.4.19.44.39.88.52,1.19.06.35.09.53.12.7.14,0,.26,0,.38,0,.07.14.14.28.2.4.13,0,.25,0,.36,0,.09-.21.17-.41.25-.61,0-.13,0-.27,0-.39-.15-.34-.31-.68-.48-1.06-.06-.04-.16.08-.22-.13-.03-.1-.04-.25-.04-.38,0-.2,0-.4.02-.6,0-.06.04-.1.06-.15.08-.03.2.1.24-.16.03-.2-.09-.29-.14-.44,0-.13-.01-.27-.02-.43-.12-.28-.25-.57-.38-.88,0-.41-.01-.82-.02-1.22-.07-.16-.13-.31-.19-.45,0-.57,0-.57.25-.59.13.27.26.54.39.82.1-.46.1-.47.01-1.15l-.25-.14-.33-.73c-.06-.01-.12-.03-.19-.04-.06-.12-.13-.26-.19-.39-.14-.32-.15-.44-.02-.85.06-.18.07-.34.08-.55,0-.09.06-.17.09-.26.04.1.09.19.13.29.06.12.2.13.24.03.1-.25.2-.49.31-.75.04.08.1.15.1.24.02.27.01.54.02.77.22.48.42.92.61,1.36.02.04.05.06.09.11.06-.06.14-.12.21-.19,0-.46-.01-.88-.03-1.51-.09-.14-.25-.38-.32-.49-.06-.38-.09-.56-.12-.74-.14,0-.26,0-.39,0-.08-.19-.16-.39-.25-.61.02-.34.17-.17.26-.27.1-.24.2-.49.32-.77.06.11.12.23.21.38.06,0,.15,0,.24,0,.13,0,.13,0,.19-.49.02-.12.04-.25.08-.33.05-.12.08-.2.05-.31-.09-.17-.18-.36-.15-.72.04-.12.1-.27.17-.47-.09-.16-.18-.33-.31-.55,0,0-.06-.02-.12-.04-.18-.25-.31-.65-.47-.97,0-.42.16-.22.25-.3.07-.46.32-.27.43-.6,0-.26,0-.54-.02-.91-.07-.13-.16-.3-.25-.5-.11-.26-.2-.5-.31-.75.02-.32-.07-.5-.16-.68-.01-.53-.17-.83-.34-1.1-.06-.01-.11-.03-.09-.02-.21-.39-.38-.69-.52-.95.06-.35.16-.25.25-.28.07.14.13.27.2.42h.63c0-.22,0-.43-.01-.76ZM17.51,139.42s-.03-.1-.02-.13c.03-.15.07-.17.11-.08.05.09.07.19.05.32,0,.02-.05.02-.08,0,.25.27.2.38.19.37-.04-.05-.09-.1-.11-.19-.04-.17,0-.26.07-.18.04.04.06.15.09.24-.27-.27-.29-.32-.31-.36ZM15.09,13.16c.11-.09.22-.04.45.2l.27.28.2-.18c.19.09.39.18.59.27.2.28.05.29-.06.33-.25-.16-.45-.11-.74-.41-.02.02-.03.06-.06.05-.22-.1-.44-.19-.65-.29-.03-.02-.08-.09-.13-.13-.3-.09-.35-.2-.34-.2.06,0,.14.02.21.07.15.1.18.19.07.18-.06,0-.15-.07-.23-.12.33.04.37,0,.41-.03ZM10.76,33.8c-.09-.19-.17-.39-.26-.59-.03-.63-.01-.67.26-.62.1.13.08.35.08.53.05.26.21.32.19.67.16.14.16.14.35.67-.17.24-.19.25-.34-.09v-.58s-.28,0-.28,0ZM11.69,35.87l.36-.83c.15.36.1.75.06,1.13,0,.05-.04.1-.06.11-.06.02-.11.02-.17.03-.06.08-.08.19-.07.34v.41c0,.42-.03.48-.27.45-.09-.19-.17-.38-.26-.58,0-.13,0-.26,0-.37-.05-.26-.21-.33-.19-.67h-.26s-.2-.41-.2-.41h-.18s-.26-.57-.26-.57c-.05-.27-.05-.51.07-.68l.17.02c.23.51.46,1.03.73,1.64.12,0,.33,0,.53,0ZM13.74,39.58s.05-.08.06-.14c0-.03,0-.11,0-.14-.11-.24-.22-.49-.33-.73l-.02-.41c.04-.08.08-.22.12-.23.17-.03.36-.11.48.33.22.03.37.34.49.74,0,.07,0,.13,0,.21,0,.06,0,.17-.01.19-.21.23-.09.92-.29,1.16-.05.06-.08.17-.12.25l-.33-.73c-.08-.05-.17-.08-.24-.14-.07-.06-.09-.19-.07-.35-.1-.02-.12-.07-.14-.11-.01-.03-.03-.1-.02-.13.03-.15.07-.17.11-.08.05.09.07.19.05.32,0,.02-.05.02-.08,0,.17,0,.26,0,.35,0ZM15.91,142.7c.05-.14.11-.29.16-.44l-.53-1.17c-.04-.33-.06-.65,0-.98.12-.27.28-.05.41-.15.07-.15.13-.28.19-.41.07.01.12.03.18.04l.33.73c.19.1.24.16.39.47.07,0,.16,0,.25,0,.12,0,.19.1.21.27.01.2,0,.41-.07.55-.02.04-.04.1-.06.15.05.4.23.57.34.89,0,.39.01.8.02,1.25.15.32.3.65.46,1,.04.07.11.04.18.05.06-.12.12-.26.19-.4.05,0,.11-.02.18-.03.2.48.42.98.63,1.48-.04.1-.09.25-.15.41v.82c-.07.2-.15.4-.24.61-.23,0-.47,0-.72.01-.12-.26-.25-.54-.38-.81-.06,0-.12,0-.18,0-.02.06-.06.1-.06.16,0,.41,0,.8,0,1.23,0,.09-.06.16-.1.24-.18-.39-.35-.78-.54-1.19-.11,0-.23,0-.35,0-.09-.19-.18-.36-.26-.57-.03-.09-.05-.26-.04-.37,0-.11.05-.21.08-.31.07.14.13.27.2.4.06-.01.12-.02.18-.03l.25-.6v-.4c-.07-.3-.22-.15-.31-.3-.07-.11-.12-.27-.21-.34-.28-.22-.29-.25-.4-.9-.01-.06-.02-.11-.03-.18-.04-.15-.16-.2-.12-.44.02-.12.08-.2.13-.32l-.17-.43ZM10.32,83.77c-.04-.1-.09-.19-.14-.31-.23-.13-.46,0-.69-.05-.05-.01-.1-.13-.14-.2v-.83c.03-.16.07-.2.11-.12.07.12.11.33.22.33.03,0,.06,0,.1,0,.06-.13.12-.26.19-.41.05,0,.11,0,.16,0,.09-.13.09-.32.11-.52.01-.18.09-.33.16-.59.02-.15,0-.42,0-.69,0-.17-.07-.25-.2-.29l-.09-.02c-.09-.29-.22-.45-.36-.43-.1-.2-.19-.39-.27-.56,0-.3,0-.58-.01-.85.11-.36.27-.15.43-.22.19.4.38.82.58,1.24.06-.14.13-.28.18-.4.23-.04.23-.04.25-.38.03-.54.12-.6.35-.26,0,.14,0,.27,0,.42.31.67.62,1.35.93,2.03.01.69.02,1.38.03,2.07.06.16.12.31.19.47,0,.12.01.26.02.4.06.14.12.29.18.44-.1.35-.27.14-.41.24-.21-.39-.39-.86-.59-1.27h-.9c-.12.27-.21.62-.37.81ZM10.78,62.15c.07,0,.12,0,.15-.15.02-.09,0-.19-.07-.29-.02-.04-.04-.1-.07-.14,0-.36-.14-.78.06-1.06.09.19.17.39.26.59,0,.13,0,.26,0,.4l.19.45c0,.27,0,.55.01.82.06.15.13.3.19.44,0,.15,0,.28,0,.4-.06.16-.11.31-.16.44,0,.16,0,.29,0,.42l-.24.59c-.06,0-.12,0-.22,0-.09.26-.19.58-.28.85-.27-.03-.27-.04-.3-.37-.04-.39-.04-.39-.22-.46-.03-.01-.05-.03-.07-.04-.1-.2-.18-.39-.27-.57,0-.43-.01-.84-.02-1.25-.06-.15-.13-.3-.19-.44-.01-.7-.02-1.39-.04-2.12.07-.06.15-.13.23-.2.24.52.55.86.55,1.7.21,0,.35-.02.5,0ZM10.05,55.09c.08.47.33.25.45.59,0,.13,0,.26,0,.45-.07.16-.16.34-.26.57-.11.03-.26.06-.32.46-.16,0-.31,0-.46,0q-.16,0-.21-.49c0-.06-.02-.12-.01-.09-.1-.27-.18-.47-.26-.67-.07.11-.08.22-.09.36-.04.51-.04.51-.28.45-.15-.27-.04-.65-.14-1.12-.11-.33-.34-.65-.49-1.16.02-.06.04-.15.07-.15.48,0,.95-.02,1.44-.03.12.26.25.54.38.81.06,0,.12.01.18.02ZM14.02,94.37c-.16.45-.39.13-.59.23-.2-.29-.35-.69-.51-1.1.03-.33-.06-.52-.17-.72-.03-.57-.04-1.17-.03-1.68.07-.24.14-.39.15-.57.02-.2.02-.39.1-.5.12,0,.24,0,.35,0,.16.26.07.64.11,1,.05.12.11.27.18.45,0,.37.01.78.02,1.28.12.22.26.48.38.68,0,.39.01.66.02.94ZM17.34,19.41c-.11-.13-.11-.24-.02-.32l.2-.18s.1-.06.15-.09c.1.04.19.08.29.13.03.01.05-.01.07-.02l-.27-.74c.02-.1.05-.18.2-.13.1.03.19.11.29.23.04.05.09.1.14.15.09.1.19.19.28.28.15.07.3.14.45.22.19.2.38.4.54.57.16.08.3.15.43.22.13.33-.13.28-.18.42-.14-.06-.28-.12-.43-.18l-.38.35s-.1-.03-.14-.05l-1.32-.58c-.09-.1-.2-.19-.28-.29ZM13.35,65.22c-.06.16-.14.35-.21.55-.02,0-.06.04-.07.02-.11-.24-.22-.48-.33-.72-.06-.01-.12-.02-.18-.04-.06-.12-.13-.25-.2-.4-.05,0-.11,0-.18,0-.07-.19-.15-.39-.26-.67-.05-.3,0-.71-.04-1.07.07-.34.17-.56.29-.72.02.05.06.1.06.15.01.41.02.81.04,1.23,0,.15.07.21.11.18.1-.25.2-.49.32-.78.1,0,.22-.02.33,0,.04,0,.07.15.11.23q-.15.39,0,.74c.07.15.13.29.21.46,0,.25,0,.52.01.85ZM17.55,149.55l.26.58c0,.13.01.27.03.5.14.25.3.55.53.97.1,0,.3.02.49.03q.07.28.08.6s-.04.14-.06.14c-.17.04-.35.06-.55.1-.04.08-.1.21-.17.35-.19.06-.39.12-.59-.03-.02-.05-.05-.1-.05-.16,0-.14,0-.27,0-.39.06-.16.11-.31.16-.43,0-.31,0-.58-.01-.83-.09-.21-.18-.4-.27-.6-.11,0-.23.03-.35,0-.07-.02-.1-.16-.08-.26.01-.06.04-.14.06-.14.12-.02.24-.01.35-.01l.18-.41ZM11.41,11.49c0-.06.07-.04.2.03.05.03.1.04.15.07l.44.19s.09-.08.15-.1c.09-.03.21.09.3.29l-.26.24c.02.05.02.1.05.14.21.34.56.59.78.89.12.07.21.13.32.19.34.18.4.23.57.61l-.26.24c-.2-.09-.4-.18-.61-.27-.18-.19-.37-.39-.58-.61-.05-.12-.11-.27-.18-.43-.18-.19-.36-.39-.56-.59l-.18-.45c-.12-.14-.32-.28-.34-.45ZM21.21,23.76c-.13-.35-.26-.69-.38-1.04.48.22.96.43,1.49.67.03.03.12.12.24.24.07.18.15.38.22.56.04.2-.13.2-.18.3-.31,0-.76-.34-1.07-.39-.14-.15-.23-.24-.32-.34ZM15.29,83.85c.02.18.1.32.17.53,0,.21,0,.49.01.87-.12.26-.28.57-.44.92-.06-.12-.14-.29-.22-.45-.02-.14-.04-.27-.04-.39l-.03-1.67c0-.06.01-.12.02-.2.12-.31.28,0,.4-.17.1.16.1.37.13.56ZM17.68,138.31c-.1,0-.22,0-.33,0-.05.12-.09.23-.13.31-.07.13-.18.16-.24.01-.1-.3-.25-.3-.38-.43-.02-.02-.03-.09-.05-.14.2-.18.1-.75.24-1.01.29,0,.59,0,.92-.01.06.17.14.38.23.61-.04.26-.15.45-.27.66ZM28.93,28.95c.05-.05.1-.09.14-.13.22.08.45.27.51.47.08.26.3.5.46.75.03.05.03.09.04.13l-.39.36c-.44-.25-.75-.68-1.08-1.05-.08-.22-.16-.41-.23-.6.05-.04.09-.08.15-.13.13.06.27.14.41.2ZM20.01,18.06s-.09-.08-.14-.13c-.29-.27-.53-.33-.49-.1.01.09.09.21.1.29.02.19-.08.23-.31.1-.1-.1-.19-.2-.29-.31-.1-.45.34-.38.39-.68.16.06.3.1.45.16q.28-.09.69.32c.19.08.38.17.59.26.12.05.2.09.25.17.08.13.06.18,0,.21-.08.04-.13.11-.2.18-.34-.15-.68-.3-1.03-.46ZM18.51,142.02c-.06-.13-.13-.27-.2-.41h-.35c-.15-.38-.15-.39-.03-.83.17,0,.35,0,.53,0,.06-.13.12-.27.19-.42.05,0,.11,0,.17,0,.08.11.11.28.11.49,0,.22.11.31.15.47.07.26.05.5-.04.7-.18,0-.35,0-.53,0ZM20.57,22.4c-.19-.07-.36-.16-.46-.16-.1,0-.12.12-.34-.01-.21-.22-.45-.47-.68-.72q-.25-.26-.16-.48s.06-.03.1-.01c.59.26,1.18.52,1.86.81.06.41-.27.36-.31.57ZM10.83,86.54c0,.14,0,.27,0,.46-.07.06-.15.12-.31.25-.05.16-.16.48-.24.74-.11,0-.17,0-.23,0-.09-.19-.17-.39-.27-.6.05-.14.1-.28.16-.46,0-.17,0-.37,0-.58,0-.39.14-.59.29-.38.05.07.09.19.15.32.2.07.36-.15.46.25ZM16.12,149.98c.06,0,.12.01.17.02.16.35.31.68.47,1.01-.05.07-.09.19-.14.2-.15.03-.3.01-.45.02-.14-.09-.2-.57-.38-.41-.12-.2-.24-.4-.32-.76.02-.15.05-.32.07-.49.14,0,.26,0,.37,0,.07.14.13.28.2.41ZM17.48,134.12c-.06.14-.12.28-.18.42h-.71s-.05-.08-.06-.13c-.02-.1,0-.2.07-.27.02-.03.06,0,.09,0,.15-.04.15-.05.16-.57.08-.27.17-.53.3-.69.03,0,.07-.02.09,0,.22.23.35.68.51,1.05-.06.26-.16.18-.25.2ZM19.37,128.68c.06,0,.12,0,.17,0,.15.26.06.83.27,1,0,.13.01.27.02.42.06.14.12.28.18.43-.04.19-.12.22-.21.23-.1,0-.13.25-.2.34-.11.14-.22.11-.3-.15,0-.14,0-.28,0-.4.06-.16.12-.31.17-.45,0-.15-.01-.28-.02-.42-.12-.3-.27-.53-.37-.94.02-.15.05-.32.08-.51.08.17.15.31.21.45ZM35.6,36.51q-.4-.23-.57-.62s.08-.09.11-.13c-.05-.15-.09-.29-.13-.4.1-.09.19-.17.26-.24.22.09.41.18.61.27.19.31-.17.24.06.58.18.19.37.39.55.58.09.16.08.21-.02.16l-.74-.33-.13.12ZM22.72,22.12c.17.07.36.14.56.25.09.04.21.16.28.26.07.09.1.19.15.29l-.13.12c-.1-.05-.2-.09-.3-.13-.05-.02-.09-.02-.15-.04-.12.11-.25.23-.37.34-.19-.04-.32-.22-.55-.45-.04-.13-.09-.32-.15-.51-.03-.1.07-.19.2-.14.09.03.2.08.3.13.05-.03.1-.06.17-.1ZM10.42,71.95c.07-.19.15-.38.22-.56.11-.06.13.21.2.27.1.1.23.03.31.29.05.16.12.3.16.41,0,.32,0,.59.01.82-.06.27-.16.19-.24.21-.17-.15-.05-.66-.21-.83h-.18c-.09-.19-.17-.38-.27-.6ZM46.5,45.43c-.26.16-.49.31-.72.45-.19.05-.25,0-.31-.07-.06-.07-.26,0-.4.02-.02,0-.03-.03-.02-.06.02-.04.05-.1.1-.12l1.74-1.08s.1-.03.23-.06c-.24.35-.43.65-.62.93ZM12.45,70.45h.17c.15.29.31.58.33,1.09,0,.05.04.1.06.14.06.1.09.19.06.29-.03.14-.08.16-.15.14-.09-.02-.17,0-.27,0-.07-.18-.16-.38-.28-.68.02-.37-.06-.73.08-.98ZM12.13,72.95c-.08-.18-.16-.38-.26-.62-.05-.33-.03-.73-.03-1.13,0-.11.05-.22.07-.33.16.28.3.58.33,1.09,0,.1.09.18.12.29.03.11.04.25.03.37,0,.12-.05.21-.08.32-.06,0-.12,0-.19,0ZM39.14,37.51q-.06-.18.34-.01c.08-.08.17-.15.27-.25.18.09.38.19.6.31.15.21.2.41.22.6-.1-.04-.22-.12-.29-.12-.11,0-.17.07-.29.04-.17-.04-.37-.13-.51-.18-.17-.18-.26-.28-.35-.39ZM14.48,79.34c0,.17.01.37.02.56,0,.48,0,.5-.26.51-.09-.19-.17-.38-.27-.59,0-.17-.01-.37-.02-.56,0-.48,0-.5.26-.51.09.19.17.38.27.59ZM18.22,124.56c.1.15.18.38.28.61-.08.08-.15.15-.22.21-.06-.1-.12-.16-.16-.25-.13-.29-.26-.57-.37-.82.03-.62.03-.69.26-.6.16.07.06.63.21.84ZM22.48,20.4c-.24-.22-.47-.44-.64-.69-.12-.22.03-.2.07-.27.14.04.28.15.42.31.15.16.28.17.43.24.03.02.09.07.1.1.08.19.16.39.24.58-.23-.1-.42-.18-.61-.27ZM38.06,35.1c.41.41.4.41,0,.36-.04,0-.07,0-.09.02-.1.11-.24.06-.48-.2-.16-.18-.3-.18-.44-.26-.09-.05-.17-.15-.16-.24,0-.07.08-.09.12-.13l1.04.46ZM14.53,16.18c.13.13.22.23.31.33.07.33.07.34-.27.23l-.84-.89c-.1-.35-.1-.35.24-.26.06.14.11.29.18.45.14.05.27.1.39.14ZM25.48,24.93c.04.08.12.21.1.24-.11.13-.25.24-.38.36-.4-.24-.4-.24-.57-.62l.26-.23c.19.09.39.17.59.26ZM11.88,41.5s-.04.11-.06.14c-.04.04-.08-.03-.13-.16-.12-.31-.28-.53-.37-.95.02-.14.05-.31.08-.5.17.38.32.72.48,1.06v.42ZM42.78,40.25c.16-.03.43.18.6.22.12.13.21.22.3.32.1.23.06.34-.13.29-.17-.04-.37-.15-.55-.22-.08-.21-.15-.4-.22-.6ZM12.73,24.11c-.12-.28-.04-.64-.07-.95.03-.14.08-.22.11-.15.15.33.29.64.44.97-.16.23-.16.24-.48.13ZM42.02,40.58l-.57-.6q-.08-.34.26-.24l.57.6q.08.34-.26.24ZM46.98,45.78c0,.2-.28.43-.34.61-.22.13-.44.32-.59.24.22-.31.42-.6.65-.92.11.03.21.05.28.07ZM13.72,71.25c-.12-.29-.13-.39,0-.84.13.28.25.55.38.84.06.12.08.19.06.28-.03.13-.08.17-.15.13-.03-.01-.06,0-.09,0-.06-.14-.13-.28-.19-.42ZM13.85,43.06s.02.11.05.21c-.02.14-.04.31-.08.6-.17-.4-.3-.74-.44-1.07-.01-.03-.01-.1,0-.14.03-.14.08-.18.14-.15.03.02.06,0,.12,0,.06.16.14.36.22.55ZM18.83,122.7c.02-.39.15-.23.24-.27.06.14.13.28.19.42.12.29.12.39.01.82l-.44-.98ZM16.01,138.52c0-.2,0-.39-.01-.61,0-.16,0-.27.05-.35.04-.06.08-.01.13.12.06.15.13.27.19.38,0,.18,0,.32,0,.45q-.18.29-.36,0ZM9.87,10.22l-.14-.42c-.1-.29-.06-.32.27-.23.09.1.19.2.37.39-.12.2-.12.45-.5.26ZM11.4,23.19c0-.22,0-.41-.01-.63,0-.15,0-.27.05-.35.04-.06.08-.01.13.12.06.15.13.27.19.38,0,.18,0,.32,0,.46-.12.3-.24.27-.36.02ZM9.94,156.74q-.13-.41-.02-.83h.18c.14.4.14.4.02.83h-.18ZM12.63,79.27c.1.14.17.35.26.52-.09.26-.2.32-.3.16-.1-.14-.17-.35-.26-.52.09-.26.2-.32.3-.16ZM18.06,126.19c.08.03.19-.1.23.14.04.21-.07.28-.11.42-.02.05-.04.1-.06.14l-.06.11c-.13-.42-.13-.42,0-.82ZM15.17,17.89c-.12-.14-.34-.3-.32-.43.01-.11.21.05.33.08.04.01.09.04.14.06.05.03.09.05.13.07.06.32.06.33-.28.21ZM10.74,36.95c-.06.13-.13.25-.18.4-.05.13-.08.19-.12.13-.06-.08-.08-.19-.06-.34,0-.06,0-.13,0-.2.11-.31.23-.31.37.01ZM12.53,35.71c-.02-.09,0-.19.06-.27h.35s.05.08.06.14c.02.09,0,.19-.06.27h-.35s-.05-.08-.06-.14ZM7.23,64.47c-.01.23.06.54-.1.59l-.26-.57c.11-.3.23-.27.36-.03ZM11.78,34.05c.02-.39.15-.23.24-.27.13.28.12.55.02.84-.09-.2-.17-.39-.26-.57ZM13.52,96.87c0-.19-.05-.44.05-.53.09-.08.12.18.19.28.02.04.04.09.06.14.02.05.03.09.05.14-.18.28-.18.28-.35-.03ZM14.48,116.65c.06.15.12.3.19.43.06.11.08.19.06.29-.03.13-.08.17-.15.13-.03-.01-.06,0-.09,0-.13-.41-.13-.41-.01-.85ZM3.71,99.62s-.01-.1,0-.14c.04-.21.23-.22.3-.01.01.03,0,.09,0,.14-.04.21-.23.23-.3.01ZM13.79,82.24c.03.14-.04.27-.15.28-.03,0-.06.02-.09,0-.02-.02-.05-.08-.06-.14-.02-.09,0-.2.06-.27.02-.03.06,0,.09,0,.07-.05.12,0,.15.14ZM9.42,30.83c-.09-.14-.1-.59,0-.69.02-.02.04-.01.06,0,.02.03.05.09.06.14.01.13.01.27,0,.4,0,.05-.04.1-.06.14-.02,0-.05.01-.06-.01ZM46.4,47.68c.21.09.38.22.49.41l-.77-.1c.07-.02.14-.04.22-.05-.04.06-.09.12-.14.17l.59.07c-.18-.12-.31-.29-.38-.51ZM41.98,39.49c-.12-.3-.03-.38.26-.24.12.3.03.38-.26.24ZM15.36,110.19c-.03.15-.08.2-.11.14-.02-.03-.06-.12-.06-.13.03-.15.07-.19.11-.14.02.05.06.12.06.13ZM14.18,114.8c.03-.15.08-.2.11-.14.02.03.06.12.06.13-.03.15-.07.19-.11.14-.02-.05-.06-.12-.06-.13ZM3.66,82.68s.04.08.06.13c.03.09,0,.19-.06.27,0,0-.04-.08-.06-.13-.02-.09,0-.19.06-.27ZM11.23,52.48s-.06-.12-.06-.13c.03-.15.08-.2.11-.14.02.03.04.09.06.14-.04.14-.08.19-.12.14ZM7.05,50.46s-.06-.12-.06-.13c.03-.15.08-.2.11-.14.02.03.04.09.06.14-.04.14-.08.19-.12.14ZM8.47,47.17c-.06-.08-.09-.18-.07-.27.01-.05.05-.14.06-.13.06.08.08.18.07.27-.02.05-.05.14-.06.13ZM11.67,14.58s.09.03.13.06c.08.05.13.14.14.24,0,.01-.09-.04-.13-.06-.08-.05-.13-.14-.14-.24ZM10.44,41.1s.03-.1.06-.13c.04-.06.08,0,.12.14,0,.02-.04.09-.05.14-.04.05-.08,0-.12-.14ZM14.14,13.18s.04.09.05.14c.01.07-.06.06-.18-.03-.01,0-.03-.09-.05-.14,0-.06.06-.06.18.03ZM31.89,32.03s.13.04.13.06c.08.13.08.2.01.18-.04,0-.09-.04-.14-.06-.07-.13-.07-.19,0-.18ZM12.37,33.35s-.04-.08-.06-.13c-.02-.09,0-.19.06-.27,0,0,.04.08.06.13.02.09,0,.19-.06.27ZM33.94,36.31c-.1-.02-.19-.08-.23-.16-.03-.05-.06-.14-.05-.14.1.02.18.08.23.16.02.05.06.14.05.14ZM38.26,39.29s.13.04.13.06c.08.13.08.2.01.18-.04,0-.09-.04-.14-.06-.07-.13-.07-.19,0-.18ZM8.03,91.15s-.03.1-.06.13c-.04.06-.08,0-.12-.14,0-.02.04-.09.05-.14.04-.05.08,0,.12.14ZM7.19,29.48s.03-.1.06-.13c.04-.06.08,0,.12.14,0,.02-.04.09-.05.14-.04.05-.08,0-.12-.14ZM13.87,90.85s.04.08.06.13c.03.09,0,.19-.06.27,0,0-.04-.08-.06-.13-.02-.09,0-.19.06-.27Z"/>
        <path d="M18.72,175.78c.18,0,.36,0,.52,0,.08.15.15.28.19.38.2,0,.38,0,.52,0,.11-.23.19-.42.27-.59,0-.16,0-.3,0-.43.12-.31.26-.55.35-.96-.03-.15-.06-.33-.09-.49-.08,0-.14,0-.2,0l-.26-.59-.02-.19c-.04-.42-.06-.47-.22-.46-.09,0-.17.02-.23.03-.1.23-.19.42-.27.6,0,.44.01.85.02,1.27,0,.05-.04.1-.08.19-.2-.4-.37-.86-.58-1.25-.17,0-.35,0-.52,0-.08-.15-.15-.28-.21-.41-.15.07-.31-.14-.42.21,0,.27,0,.54.01.81.22.49.44.98.67,1.48.11,0,.22,0,.34,0l.21.43ZM19.85,174.71c-.12.3-.24.3-.36,0,.12-.3.24-.3.36,0Z"/>
        <path d="M19.71,106.59c.14,0,.25,0,.36,0,.1.14.07.37.11.55.03.18.11.31.18.49,0,.52.02,1.07.03,1.64-.06.36-.28.08-.35.43,0,.14,0,.28,0,.41.06.15.13.3.19.44,0,.59,0,.59-.24.61-.06,0-.12,0-.23,0-.09-.26-.2-.59-.28-.83-.19,0-.31,0-.45,0-.03-.17-.06-.35-.09-.5.09-.4.24-.65.35-.95-.06-.15-.12-.3-.18-.44,0-.14,0-.28,0-.33.22-.55.41-1.05.6-1.53Z"/>
        <path d="M18.47,177.71c0,.52.02,1.07.03,1.6.06.15.13.3.19.44,0,.15.01.28.02.42.12.33.28.12.41.18.12.17.22.37.29.67-.02.05-.04.14-.06.14-.29,0-.59.01-.92.02-.12-.3-.26-.66-.44-1.1-.04-.4-.01-.95-.04-1.54-.05-.12-.1-.27-.17-.47,0-.21,0-.48-.01-.79.05-.24.15-.46.25-.6.16.34.31.68.46,1.03Z"/>
        <path d="M16.96,165.19c-.08.32-.19.67-.42.68-.06,0-.11.21-.17.32-.06-.13-.1-.23-.16-.35-.06.11-.11.25-.17.34-.1.15-.28.03-.28-.2,0-.3-.06-.5-.15-.69-.08-.14-.03-.39-.07-.55-.05-.17-.13-.29-.16-.46-.03-.18,0-.4.08-.53.29,0,.58,0,.88-.01.21.48.42.96.64,1.46Z"/>
        <path d="M15.19,52.49c.24.5.46.98.68,1.45-.11.36-.28.15-.46.24-.09-.29-.2-.63-.31-.98-.13.33-.22.52-.3.72,0,.13,0,.27,0,.42.12.28.25.58.38.88,0,.2.04.42-.06.56-.02-.02-.05-.02-.06-.05-.22-.49-.44-.97-.67-1.48-.12-.09-.26-.1-.37-.4-.07-.19-.23,0-.3-.3,0-.14,0-.28,0-.41q.08-.18.27.2c.11,0,.23,0,.36,0,.15-.14.02-.65.17-.82.24,0,.48,0,.69-.01Z"/>
        <path d="M13.79,15.84c-.15,0-.29,0-.46,0-.07-.18-.16-.38-.25-.62.04-.11.08-.25.14-.43,0-.36-.01-.76-.02-1.23-.04-.11-.1-.26-.18-.46,0-.14,0-.34,0-.53,0-.36.04-.48.19-.49h.09s.17.02.17.02c.02.05.06.09.06.14.01.21.02.39.03.59,0,.13.02.27.05.37.06.2.16.09.24.14.02.04.06.09.06.14.01.28.03.54.04.91-.11.21-.25.46-.37.69.06.33.22.4.2.74Z"/>
        <path d="M14.39,30l.03,1.86c-.04.08-.08.21-.13.22-.15.03-.3.01-.47.02-.05.1-.12.22-.19.36q-.33.07-.46-.16c0-.14,0-.28,0-.4.08-.2.16-.4.26-.62.11,0,.22.02.34-.02.03,0,.06-.16.09-.24-.22-.51-.22-.52-.08-.99h.62Z"/>
        <path d="M5.26,11.05l7.33-2.9h0s0,.01,0,.01h0s0,.04,0,.04v.05s0,.1,0,.1v.2s.19.44.19.44c0,.14,0,.27,0,.39.07.16.13.31.19.45,0,.15,0,.28,0,.42-.11.31-.27.15-.41.17-.04,0-.11-.15-.12-.25,0-.42-.02-.81-.02-1.19l-.37-.83-6.39,2.53.21.09.13-.12c.19.09.39.17.59.26.03.08.11.2.09.23-.06.1-.16.16-.24.24-.29-.17-.49-.21-.59-.09l-.59-.26Z"/>
        <path d="M19.71,179.92c-.25-.56-.47-1.04-.69-1.54.06-.36-.15-.49-.17-.7.08-.26.15-.48.21-.67.18.37.33.71.49,1.03,0,.16,0,.3,0,.43.09.2.18.4.27.59.06,0,.12.01.23.03.05.13.13.35.21.56,0,.03,0,.11,0,.14-.02.05-.04.12-.06.12-.18,0-.36,0-.48.01Z"/>
        <path d="M14.48,29.99c-.25-.54-.4-.87-.57-1.24-.16,0-.33,0-.5,0-.02,0-.05-.06-.1-.12-.01-.15-.03-.34-.04-.49.12-.37.28-.16.43-.23.06.12.13.25.21.4.16,0,.33,0,.49,0,.19.27.32.65.47.97.01.03.01.09.01.12-.08.21-.16.41-.23.59-.1,0-.18,0-.18,0Z"/>
        <path d="M13.93,162.01c.12.24.18.37.24.5.07,0,.14-.04.18.03.22.48.44.94.64,1.37,0,.2,0,.34,0,.52-.07.06-.15.13-.21.18-.18-.22-.28-.56-.42-.83-.06,0-.12-.01-.18-.02-.06-.13-.13-.26-.2-.41-.05,0-.11.03-.16,0-.07-.05-.11-.21-.08-.26.15-.24.14-.66.18-1.07Z"/>
        <path d="M16.68,64.57c-.06,0-.12-.01-.19-.02-.2-.48-.41-.98-.62-1.47.02-.03.05-.15.1-.18.05-.03.13-.01.16.06.12.22.22.48.33.72.06.01.11.03.2.04.18.39.37.82.56,1.23.07,0,.13.01.19.02l.26.58c-.07.28-.2.34-.28.15-.11-.27-.26-.26-.38-.43-.13-.18-.22-.47-.33-.71Z"/>
        <path d="M19.57,103.49c0,.16.05.39-.05.53-.04.05-.08-.02-.13-.15-.02-.05-.04-.14-.06-.14-.24.04-.35-.38-.49-.78,0-.24,0-.51-.01-.71-.07-.21-.17-.37-.17-.53,0-.32-.09-.48-.17-.68-.03-.07,0-.19.06-.26.12,0,.24,0,.36,0,.2.4.02.93.12,1.36.14.52.37.86.55,1.36Z"/>
        <path d="M12.45,173.15l.19.44.02,1.23q-.17.31-.36,0c0-.55-.02-1.09-.03-1.65-.06-.14-.12-.29-.19-.43v-.82q.16-.29.35,0l.02,1.23Z"/>
        <path d="M18.61,114.95c.12,0,.24,0,.35,0,.15.28.07.65.11,1.1.1.19.24.44.36.65,0,.24,0,.38,0,.52-.04.15-.09.21-.12.12-.26-.59-.53-1.17-.78-1.74-.03-.08-.04-.27-.02-.38.01-.11.07-.19.1-.26Z"/>
        <path d="M6.87,172.83l-.21-.43c-.12,0-.24,0-.35,0-.03-.06-.06-.1-.07-.16-.06-.26-.02-.63.09-.65.14-.01.22-.15.29-.36.02,0,.05-.02.06,0,.15.35.32.63.44,1.04q-.03.54-.26.55Z"/>
        <path d="M9.8,165.46c-.07.26-.19.33-.29.16-.16-.28-.31-.63-.44-.91,0-.21,0-.35,0-.47.05-.19.14-.27.22-.2.1.09.18.32.28.38.08.06.16.05.22.24v.8Z"/>
        <path d="M19.66,87.21v.42c-.07.2-.16.39-.25.62-.08-.18-.17-.35-.25-.52-.07-.41-.04-.82-.05-1.23,0-.1.06-.2.09-.3l.46,1.02Z"/>
        <path d="M21.82,179.47c-.12,0-.23,0-.37,0-.05-.13-.11-.28-.16-.41-.1-.03-.2.08-.26-.14-.07-.26-.06-.52.05-.69.04-.06.11-.01.17-.01l.2.41h.35c.14.4.14.4.02.83Z"/>
        <path d="M20.88,139.07c.09,0,.18,0,.27,0,.08.19.18.37.26.59.03.09.02.26.03.4-.08.28-.18.51-.3.72-.08-.07-.16-.14-.23-.2,0-.53-.02-1.01-.02-1.5Z"/>
        <path d="M17.04,113.53c.04-.08.08-.2.12-.22.08-.05.17,0,.23.18.06.16.13.29.19.43,0,.13,0,.27,0,.45-.05.11-.11.25-.17.39-.12.28-.17.28-.36-.01l-.02-1.21Z"/>
        <path d="M20.66,120.74c-.06,0-.12,0-.18,0-.06-.14-.12-.28-.19-.42-.12-.29-.13-.4,0-.83.12,0,.23,0,.37,0,.07.18.15.38.24.61-.02.27-.15.4-.23.64Z"/>
        <path d="M17.22,76.2c.06.09.1.2.07.27-.07.19-.16.36-.14.67,0,.1-.05.2-.08.31h-.17c-.06-.14-.12-.29-.19-.42-.08-.14-.1-.33-.09-.53,0-.11.06-.2.09-.3h.52Z"/>
        <path d="M7.04,167.17c-.06-.12-.13-.25-.19-.37,0-.17,0-.3,0-.43.12-.3.24-.3.36,0,0,.14,0,.27,0,.44.06.12.13.25.19.36,0,.24,0,.43.01.64,0,.16,0,.27-.05.35-.04.06-.08,0-.13-.12-.06-.15-.13-.27-.19-.38,0-.19,0-.32,0-.49Z"/>
        <path d="M18.14,83.09c.11-.38.27-.17.39-.26.16.12.23.44.34.64v.4c-.07.25-.18.32-.28.16-.16-.28-.3-.62-.45-.94Z"/>
        <path d="M19.65,112.83c.05.14.11.29.16.42.08,0,.14,0,.19,0,.11.2.13.43.07.69-.05.23-.15.11-.25.15-.05-.14-.11-.29-.16-.42-.08,0-.14,0-.19,0-.11-.2-.13-.44-.07-.69.05-.23.15-.11.25-.15Z"/>
        <path d="M21.72,168.01c0,.07,0,.14,0,.2.02.15,0,.27-.05.35-.08.11-.16.13-.23.02-.09-.15-.17-.37-.26-.56,0-.26-.02-.53,0-.79,0-.08.07-.14.1-.21.15.33.3.66.45.99Z"/>
        <path d="M14.85,171.25c-.09-.19-.17-.38-.27-.59.05-.13.09-.27.15-.44.06-.3-.1-.77.09-1.04h.17q.14.48-.05.98c-.08.34.08.81-.1,1.1Z"/>
        <path d="M12.61,166.7c.06,0,.12,0,.19,0,.05.13.11.28.16.41.08,0,.13,0,.19,0,.14.27.14.55.02.83-.06,0-.12,0-.19,0-.05-.13-.11-.28-.16-.41-.08,0-.13,0-.19,0-.14-.27-.14-.55-.02-.83Z"/>
        <path d="M18.52,94.52h.27c.09.19.17.38.26.58.04.63.02.69-.26.62-.09-.2-.18-.39-.27-.58,0-.21,0-.42-.01-.63Z"/>
        <path d="M17.01,107.46c.08,0,.13,0,.2,0,.06.13.12.28.18.42.13.29.13.39,0,.85-.06-.15-.12-.3-.17-.43-.1,0-.19-.01-.27,0-.07.02-.12,0-.15-.13-.03-.09,0-.17.05-.29.06-.13.11-.29.16-.42Z"/>
        <path d="M10.3,173.59c.06.15.12.3.18.43.07,0,.13,0,.2,0,.06.13.11.29.18.41.06.11.08.19.06.29-.03.13-.08.15-.15.14-.09-.02-.17,0-.28,0-.07-.17-.16-.35-.23-.56-.03-.09-.04-.25-.03-.37,0-.11.05-.21.08-.34Z"/>
        <path d="M16.06,54.76c0,.4.01.8.02,1.21,0,.08-.06.14-.1.21l-.26-.58c0-.13,0-.26,0-.5.06-.12.14-.29.23-.47.04-.07.08-.02.12.13Z"/>
        <path d="M17.66,69.95h.17c.18.32.09.72.08,1.1-.05.24-.16.12-.23.16-.08-.13-.11-.31-.1-.52,0-.26-.04-.55.08-.73Z"/>
        <path d="M15.72,174.74c0,.26,0,.44.01.66.01.16,0,.27-.05.35-.04.06-.08,0-.13-.13-.06-.15-.13-.27-.18-.38,0-.26,0-.44-.01-.66-.01-.16,0-.27.05-.35.04-.06.08,0,.13.13.06.15.13.27.18.38Z"/>
        <path d="M14.63,49.99c.13.28.14.55.01.83-.06,0-.12,0-.2,0-.05-.12-.11-.26-.17-.41-.13-.3-.13-.39,0-.85.06.15.12.3.18.43.07,0,.13,0,.19,0Z"/>
        <path d="M13.87,171.87v-.4c.18-.29.22-.29.35,0,.07.13.13.27.19.37,0,.19,0,.31,0,.46,0,.05-.03.11-.06.14-.04.05-.08-.02-.13-.14-.04-.09-.09-.15-.14-.2-.02-.02-.06.02-.08,0-.05-.06-.09-.14-.14-.22Z"/>
        <path d="M13.32,171.25c0,.2,0,.39.01.61,0,.15,0,.27-.05.35-.04.07-.08.02-.13-.11-.06-.15-.13-.28-.19-.4,0-.17,0-.3,0-.44q.17-.3.36,0Z"/>
        <path d="M15.16,57.68c.12-.11.2-.17.26-.22.16.15.24.44.34.66,0,.18.04.41-.05.54-.04.05-.08-.01-.12-.14-.04-.1-.08-.19-.13-.28-.09-.16-.18-.33-.3-.56Z"/>
        <path d="M15.69,173.11c0-.19-.04-.42.05-.55.11-.15.24-.14.3.14.05.22.02.52.02.79,0,.07-.07.13-.1.2-.09-.2-.17-.39-.26-.58Z"/>
        <path d="M16.89,169.34c.13-.38.31-.18.47-.16.11.13.06.36.08.54-.04.08-.08.2-.13.23-.08.05-.17,0-.23-.18-.06-.15-.13-.29-.19-.43Z"/>
        <path d="M18.74,113.26c-.07,0-.12,0-.18,0-.13-.44-.13-.44,0-.83.09,0,.18.02.26,0,.07-.02.12,0,.15.15.02.09,0,.18-.06.29-.06.14-.12.28-.17.4Z"/>
        <path d="M20.9,113.23c.13.28.13.56.02.83-.07,0-.13,0-.2,0-.05-.13-.11-.29-.18-.42-.06-.11-.08-.19-.06-.29.04-.12.08-.15.15-.13.09.02.17,0,.26,0Z"/>
        <path d="M19.59,105.12c.01-.21-.06-.52.11-.57l.25.56c-.01.21.06.52-.11.57l-.25-.56Z"/>
        <path d="M13.33,177.11h-.18c-.14-.4-.14-.4-.02-.83h.18q.13.4.02.83Z"/>
        <path d="M22.01,163.63h.18c.14.4.14.4.02.83h-.18c-.14-.4-.14-.4-.02-.83Z"/>
        <path d="M21.49,150.92c.1-.09.17-.16.23-.22.17.11.23.46.38.65-.1.09-.17.16-.23.22-.17-.11-.23-.46-.38-.65Z"/>
        <path d="M12.91,54.61c-.13-.27-.12-.55-.01-.86.07.16.12.31.19.44.06.11.08.19.06.29-.03.13-.08.17-.15.13-.03-.01-.06,0-.09,0Z"/>
        <path d="M13.28,163.76c.09.2.17.39.26.57-.02.39-.15.23-.24.27-.13-.28-.12-.55-.02-.84Z"/>
        <path d="M17.33,179.54c-.14-.27-.14-.54,0-.86.06.15.11.31.18.43.06.11.08.19.06.29-.03.13-.08.17-.15.14-.03-.01-.06,0-.09,0Z"/>
        <path d="M15.66,90.4c.14.27.14.54,0,.86-.06-.15-.11-.3-.18-.43-.06-.11-.08-.19-.06-.29.03-.13.08-.17.15-.14.03.01.06,0,.09,0Z"/>
        <path d="M17.84,80.78c.12.18.09.46.1.72,0,.21,0,.39-.08.52-.12-.18-.09-.46-.1-.72,0-.21,0-.39.08-.52Z"/>
        <path d="M7.86,172.39c-.14-.39-.14-.39-.03-.83.06.13.12.26.19.4.06.11.09.19.07.28-.03.14-.08.18-.14.15-.03-.02-.06,0-.09,0Z"/>
        <path d="M14.53,59.35c-.13.32-.25.33-.37.02,0-.19-.04-.41.05-.54.04-.06.07,0,.13.13.06.15.13.26.2.39Z"/>
        <path d="M10.88,172.49s0,.11,0,.14c-.06.21-.25.2-.3,0,0-.04,0-.1,0-.14.01-.05.04-.12.06-.13.06-.02.12-.02.17,0,.02,0,.04.09.06.13Z"/>
        <path d="M12.92,168.78c-.11,0-.19-.13-.16-.27.03-.14.08-.19.15-.15.03.02.06-.02.09,0,.07.07.09.18.07.27-.01.06-.03.12-.06.14-.02.02-.06,0-.09,0Z"/>
        <path d="M20.97,112.19c.12-.3.24-.3.36,0-.12.3-.24.3-.36,0Z"/>
        <path d="M20.95,110.74c.02.15,0,.27-.06.34-.06.07-.12-.1-.12-.35,0-.07-.01-.14,0-.2,0-.06.03-.11.06-.14.04-.05.08,0,.12.15.01.05,0,.13,0,.2Z"/>
        <path d="M18.6,110.34c0,.26-.05.43-.11.36-.06-.07-.08-.19-.07-.34,0-.06-.01-.14,0-.2.03-.15.07-.21.11-.16.02.03.05.08.06.14.01.06,0,.13,0,.2Z"/>
        <path d="M18.26,106.19c-.13-.28-.14-.55-.01-.83.13.28.14.55.01.83Z"/>
        <path d="M13.88,55.28c-.04.21-.23.23-.3.01-.01-.03-.01-.1,0-.14.04-.21.23-.22.3-.01.01.03,0,.09,0,.14Z"/>
        <path d="M4.46,163.08c.13.28.14.55.01.84-.13-.28-.14-.55-.01-.84Z"/>
        <path d="M21.67,154.47c0,.26-.05.43-.11.36-.06-.07-.08-.19-.07-.34,0-.06-.01-.14,0-.2.03-.15.07-.21.11-.16.03.03.05.08.06.14.01.06,0,.13,0,.2Z"/>
        <path d="M21.76,148.64c.13.28.14.55.01.84-.13-.28-.14-.55-.01-.84Z"/>
        <path d="M9.71,168c.02.15,0,.27-.06.34-.06.07-.12-.1-.12-.35,0-.07-.01-.14,0-.2,0-.06.03-.11.06-.14.04-.05.08,0,.12.15.01.05,0,.13,0,.2Z"/>
        <path d="M11.69,168.17c.12-.3.24-.3.36,0-.12.3-.24.3-.36,0Z"/>
        <path d="M5.28,169.31c.12-.3.24-.3.36,0-.12.3-.24.3-.36,0Z"/>
        <path d="M16.39,168.66s-.06-.12-.06-.13c.03-.15.08-.2.11-.14.02.03.06.12.06.13-.03.15-.07.19-.11.14Z"/>
        <path d="M6.84,178.52s-.05.14-.06.13c-.06-.08-.09-.18-.07-.27.01-.05.05-.14.06-.13.06.08.08.18.07.27Z"/>
        <path d="M16.9,79.89s-.06-.12-.06-.13c.03-.15.08-.2.11-.14.02.03.06.12.06.13-.03.15-.07.19-.11.14Z"/>
        <path d="M12.71,176.15c-.02-.09,0-.19.06-.27,0,0,.04.08.06.13.02.09,0,.19-.06.27,0,0-.04-.08-.06-.13Z"/>
        <path d="M14.47,76.11c-.02-.09,0-.19.06-.27,0,0,.04.08.06.13.03.09,0,.19-.06.27,0,0-.04-.08-.06-.13Z"/>
        <path d="M22.48,174.11s.06.12.06.13c-.03.15-.08.2-.11.14-.02-.03-.06-.12-.06-.13.03-.15.07-.19.11-.14Z"/>
        <path d="M14.72,19.98s-.06-.12-.05-.12c.06,0,.14.02.21.07.15.1.18.19.07.18-.06,0-.15-.07-.23-.12Z"/>
        <path d="M12.82,164.75c.02.09,0,.19-.06.27,0,0-.04-.08-.06-.13-.03-.09,0-.19.06-.27,0,0,.04.08.06.13Z"/>
        <path d="M15.42,28.56s-.04.13-.05.12c-.04-.05-.09-.1-.11-.19-.04-.17,0-.26.07-.18.04.04.06.15.09.24Z"/>
        <path d="M13.96,16.09s-.04.13-.05.12c-.04-.05-.09-.1-.11-.19-.04-.17,0-.26.07-.18.04.04.06.15.09.24Z"/>
        <path d="M15.12,59.64s.08,0,.12.14c0,.02-.03.1-.06.13-.04.06-.08,0-.12-.14,0-.02.04-.09.05-.14Z"/>
        <path d="M16.88,142.45c.09.2.17.39.26.57-.02.39-.15.23-.24.27-.13-.28-.12-.55-.02-.84Z"/>
        <path d="M11.1,81.3c0,.26-.05.43-.11.36-.06-.07-.08-.19-.07-.34,0-.06-.01-.14,0-.2.03-.15.07-.21.11-.16.02.03.05.08.06.14.01.06,0,.13,0,.2Z"/>
      </g>
      <g>
        <path d="M10.23,56.48c.11-.02.25-.04.36-.06.08.07.11.12.1.2-.02.14.02.2.19.19.05,0,.1,0,.12.03.06.09.16.05.26.05l.18.18h.21c0,.07-.07.12-.09.18-.06.18-.08.36-.04.53.02.06.07.1.05.18-.06.06-.13.13-.21.2-.01.01,0,.04,0,.08.09.09.18.18.28.28.05,0,.12,0,.19,0v.39c.07.02.11-.05.17-.09.06-.04.14-.01.18.04.04.06.01.13.02.19,0,.07.07.13.12.13l.28-.02c.11-.11.22-.21.32-.31.1,0,.2,0,.29-.01,0,.09-.01.19-.02.29-.06.06-.14.12-.2.2-.02.02,0,.07,0,.1.07,0,.15,0,.2.03.06.03.1.08.18.05l.1-.1h.29s.1.07.1.07v.2s.08.09.08.09h.21c.06.06.12.12.17.17.18,0,.34,0,.5-.01.04-.04.08-.07.11-.1.08,0,.14-.01.22-.02.11-.1.21-.2.28-.27.28-.01.51-.03.77-.04.04.04.1.1.16.16.04,0,.06,0,.08,0,.06-.01.1,0,.1.03.01.05-.02.08-.06.12-.06.05-.11.1-.17.16.02.06.05.11.07.16.13.02.24.02.35-.02.02-.02.05-.03.05-.05l.08-.26c.05-.05.11-.1.18-.17.19-.01.4-.03.62-.04l.21-.2c.08,0,.14-.01.22-.02.11-.1.21-.2.29-.28.19-.02.36-.04.51-.05.13.14.13.14,0,.29-.06,0-.13.01-.21.02-.03.03-.07.06-.11.11,0,.08,0,.17,0,.29.05.05.11.11.18.18.05,0,.12,0,.19,0,.03.02.06.05.1.08h.41s.1.08.1.08c.12,0,.24-.02.35-.01.04,0,.08.03.1.07.02.03.01.08.01.12l-.11.1c-.14.01-.28,0-.4.04-.08.08-.15.15-.19.18-.02.13-.04.22-.05.29.11.11.2.2.29.29.1,0,.2,0,.29-.02.06-.01.1-.13.18-.1.07.03.01.11.03.19.05.05.11.11.17.17v.21s.05.06.08.1h.41c0,.14-.14.18-.21.28-.07,0-.14.01-.21.02-.07.07-.09.08-.19.11-.1-.09-.21-.19-.31-.28-.07,0-.14.03-.16,0-.11-.1-.24-.09-.38-.07-.01,0-.04.02-.04.03,0,.02-.02.06,0,.07l.56.56,1.06-.06s.04-.01.06-.02c.04-.03.07-.06.11-.08.05-.03.09,0,.12.04.05-.05.1-.1.15-.14.03-.02.09-.02.1,0,.02.04,0,.09-.04.11-.03.03-.07.05-.11.07-.05.02-.09,0-.11-.04-.05.05-.11.1-.17.17.02.05.04.11.06.16.04.01.06.02.08.02l.85-.04.11-.1.2-.02.02-.2s.08-.07.11-.1h.28s.18.17.18.17c.07,0,.14,0,.2,0,.1.1.19.19.28.29.01.01,0,.04,0,.08-.14.13-.28.27-.44.42-.07,0-.17.01-.26.02-.06,0-.12-.06-.13-.12,0-.04,0-.09,0-.14-.1-.03-.21-.02-.32.01l-.48.47s-.03.08-.04.13c.03.05.12.07.09.16-.01,0-.03.03-.04.03-.21.01-.42.02-.65.03,0-.06,0-.12,0-.2-.08-.08-.17-.17-.27-.27-.01-.01-.04,0-.07,0-.01,0-.04.02-.04.03l-.04.56c-.14.14-.28.27-.47.46-.09-.01-.23-.02-.35-.04-.12.16-.32.22-.34.43.09-.01.18-.03.31-.05,0,0,.04-.03.11-.08.11,0,.25-.01.39-.02.1-.06.15-.2.29-.21.08.06.16.13.24.18.06,0,.11,0,.16,0,.09.09.18.18.27.27h.42s.11.06.08.17c-.06.06-.13.12-.21.2-.05,0-.12.01-.19.02-.03.03-.07.06-.11.09-.06,0-.13.01-.21.02-.02,0-.04.03-.05.05.06.06.12.13.19.18.04.03.06.06.04.12-.01.03-.06.04-.11.04-.02,0-.05,0-.09,0-.1.09-.2.19-.31.3-.04.04-.01.14.04.17.04.02.08.03.13.03.18,0,.18.01.19.19,0,.02,0,.05,0,.07,0,.06.08.11.14.12.05,0,.15-.07.16-.12,0-.07.02-.13.02-.18.09-.08.16-.15.22-.21.27-.02.28-.03.31-.29.08-.15.27-.21.33-.38-.02-.19-.29-.2-.27-.42.03-.04.07-.07.11-.12v-.29c-.06-.1-.07-.14-.06-.28-.04-.1-.18-.13-.18-.25,0-.02,0-.05.02-.06.21-.2.42-.41.61-.59.13-.01.23-.03.32-.04.1.1.19.19.28.28.07,0,.14,0,.22,0,.09.09.18.18.27.27.08,0,.15,0,.21,0,.14.12.24.27.36.35.1.01.17,0,.22.04.06.04.1.07.18.05.04-.03.07-.06.07-.06.27-.01.5-.03.74-.04-.03.05-.07.11-.1.16-.15.01-.28.02-.42.03-.01.07-.02.13-.03.18-.11,0-.2.02-.29.03-.07-.07-.13-.13-.19-.19q-.19.05-.22.29s-.07.07-.12.13c0,.07,0,.16,0,.27.04,0,.1,0,.16,0,.03.08.01.17,0,.25-.01.06-.08.11-.1.17-.02.04,0,.09-.01.15-.06,0-.13.01-.19.02-.04,0-.08-.01-.11-.02v-.14c-.07-.13-.17-.24-.3-.31-.05,0-.1.01-.14,0-.14-.02-.24.16-.39.12-.02,0-.04.01-.06.03-.06.05-.1.1-.09.18l.09.09h.21c.15.15.31.31.47.47.06-.03.12-.07.21-.12.03,0,.1,0,.18-.02l.1-.1.21-.02.1-.1c.1,0,.19,0,.29-.01-.02.23-.04.46-.06.71-.05.05-.12.11-.18.17-.09.04-.13,0-.18-.05-.07-.06-.18.02-.25-.05-.02-.02-.03-.03-.03-.03-.25.01-.48.03-.72.04,0,.03-.01.1-.02.17-.03.03-.07.06-.1.1l-.2.02s-.07.07-.08.08c-.03.25-.05.49-.07.72l.17.09c.08-.08.15-.15.22-.22l.22-.02.21-.2.21-.02.1-.1c.08,0,.14-.01.21-.02.04-.04.08-.07.12-.1h.28s.21-.03.21-.03c.09,0,.19,0,.28-.02.13-.03.17.13.31.08.07-.06.14-.13.21-.2.17,0,.34-.02.5-.02.02,0,.03.03.05.04.05-.05.09-.1.15-.14.06-.03.12-.04.19,0,.04-.03.06-.03.08-.03.02,0,.04,0,.04.02.01.05,0,.08-.05.08-.05,0-.08,0-.1-.05,0,0,.03-.03.02-.02-.07.07-.12.13-.17.16-.06.03-.12.04-.16-.02-.05.05-.11.1-.22.21,0,.09.03.22.03.29-.07.12-.1.18-.13.24.1.1.19.2.3.3.08,0,.18-.02.29-.03.05-.05.12-.12.19-.18.07,0,.14-.02.22-.03.01-.13.03-.26.04-.39.11-.11.22-.21.32-.31h.29s.09.07.09.07h.21s.08.11.18.08c.04-.04.1-.09.15-.13.1-.09.1-.15.02-.22-.05-.05-.08-.11-.13-.12-.07-.02-.17.03-.19-.03-.04-.08.06-.12.11-.17.04,0,.09,0,.13.02.18.08.22.09.44-.02.07-.04.13-.03.2-.04.09-.02.14-.14.25-.1l.08.08c.07,0,.14,0,.21,0,.03.04.08.07.08.1,0,.15,0,.32,0,.46-.07.06-.1.09-.14.12l-.78.04-.11.09c-.07.13.12.17.07.3l-.11.1c-.13.05-.17-.14-.3-.07l-.1.11s-.01.05,0,.07c.04.06.04.05.08.1.01.02.01.04,0,.06,0,.04,0,.09,0,.14l.09.09c-.01.21-.02.41-.03.61.1.07.13.2.28.17.03-.03.07-.07.08-.08.33-.02.63-.03.93-.05.12.12.24.24.36.37.01.01,0,.04,0,.07l-.09.1c-.11.06-.16-.07-.23-.07-.13,0-.21-.03-.29-.11-.1-.1-.12-.09-.28.04-.07,0-.14.02-.19.02-.12.11-.23.2-.34.3-.01.01-.05,0-.07,0-.06-.06-.12-.12-.19-.19,0-.06,0-.13,0-.2l-.09-.09c-.07,0-.14,0-.22,0-.15-.15-.3-.3-.46-.46-.01-.01-.05,0-.07,0l-.06.04c-.07.06-.09.14-.06.18.08.08.16.15.23.23.02.03.02.08.03.12l-.1.1c0,.07-.02.14-.02.2-.07,0-.14.01-.22.02-.03.06-.07.12-.11.19.14,0,.26-.01.37-.02.09,0,.18,0,.27,0,.06.09.15.08.24.07.12.1.28.11.44.06.13-.1.2-.28.4-.3l.1.09v.2s.27.28.27.28c0,.07,0,.14,0,.2.13.12.13.12.29-.01.01-.13.03-.27.04-.41.05-.04.09-.12.2-.1.05.05.11.11.18.18.2-.01.41-.02.61-.03.04.04.07.06.09.08.18,0,.34,0,.5-.01.06-.06.11-.11.17-.16.04-.04.07-.06.17-.04.09-.02.07.24.26.15l.03-.18c.13,0,.25-.01.37-.02.04-.03.07-.06.12-.1.06,0,.13-.01.21-.02l.21-.2.21-.02.21-.2c.08,0,.14-.01.21-.02.04-.04.08-.07.08-.07.19-.02.36-.04.55-.07-.05.09-.09.15-.12.2-.04,0-.06.01-.08.02h-.14c.01.2.01.2.26.19.07.09.25.1.19.28-.05,0-.1,0-.14,0-.11.03-.16.1-.16.2l.28.28v.2c.14.15.14.15.17.27l-.41.03-.1.1c-.07,0-.14.01-.22.02l-.1.17c.07.07.13.13.2.2.06,0,.13,0,.2,0l.09.09h.2c-.02.19-.21.26-.32.39,0,.06-.02.13-.02.15-.05.16-.21.18-.22.32.07.14.18.24.36.34.28-.01.6-.03.95-.05.03.03.08.08.06.16-.02.07,0,.13.07.18.17.03.35,0,.52-.02.05-.03.09-.06.09-.06.13-.02.22-.04.31-.05,0,.11-.01.2-.02.3-.03.03-.07.07-.11.11,0,.09,0,.18,0,.31.07.07.16.16.25.25.02.02,0,.08,0,.13-.07.06-.14.13-.2.19-.01.07-.02.14-.03.19-.2.01-.39.02-.59.03-.14.13-.28.27-.42.41-.04.03,0,.16.05.17.02,0,.04.02.06.02.12,0,.24-.01.37-.02.04.04.08.08.13.13q.08.08-.03.23s-.02.04,0-.01c-.04.23-.06.39-.09.52.05.06.08.1.1.12,0,.1,0,.19-.01.28-.15.15-.15.15-.11.18.05.04.12.01.19.02.06.06.12.12.18.18,0,.1.02.21-.04.32-.07.09-.22.14-.19.28l.1.09c.09,0,.19-.04.25.05.05.06.13.01.19.03.08.02.15.06.22.09.05-.05.08-.08.16-.15.13.19.35.1.55.11l.09.09c.08.01.14-.02.19-.08.08-.1.19-.15.35-.13-.05-.2-.19-.29-.31-.39-.13.04-.22-.02-.3-.08l-.35.02s-.04-.03-.05-.04l-.09-.09c-.06-.06-.07-.12-.03-.17.03-.03.07-.08.11-.08.17-.01.33-.02.47-.03.05.04.08.08.12.09.09,0,.19,0,.26,0,.07-.05.11-.13.2-.11.08.06.16.12.23.18.06,0,.11,0,.16,0,.09.09.18.18.27.27.14,0,.28,0,.41-.01l.09.09c0,.13-.05.27,0,.36.11,0,.2.02.27.02.06-.05.09-.08.11-.09.18-.02.35-.03.5-.05-.01.18-.02.34-.03.5l-.21.21s0,.04,0,.07c.1.04.21.02.32,0,.15-.07.06-.22.13-.31l.27-.26s.04-.02.06-.03h.14s.08-.07.12-.1c0-.06.02-.13.03-.21.04-.04.1-.09.15-.14.02-.02.04-.05.05-.05.04,0,.1-.01.13,0,.11.07.08.16.01.22l-.48.46c0,.07-.01.14-.02.2-.15.14-.29.28-.43.41-.08,0-.15.02-.23.03l-.1.17s.07.07.11.11c-.02.16-.03.32-.05.49-.02.02-.06.06-.09.09-.13.06-.17-.12-.3-.07-.04.03-.07.07-.12.12-.07-.03-.15-.07-.22-.1l-1.06.06s-.04.03-.05.05l.14.14c.33-.02.66-.03.99-.05l.27.27c.28.01.56-.04.81-.02.08.08.14.14.19.19,0,.06,0,.11-.01.15.02.03.06.04.11,0,.08-.06.14-.13.21-.19.11,0,.2-.01.3-.02v.2s.09.09.09.09c.26-.01.52-.03.79-.04,1.44.09,2.89.17,4.35.26h0s.02,0,.02,0h.03s.06.05.06.05c.04.03.06.06.09.1.05.07.09.15.16.19.12.03.21.05.29.06.04-.03.08-.06.11-.09.03-.14-.16-.25-.08-.4-.03-.04-.06-.08-.09-.12v-.4c-.09-.12-.18-.23-.25-.32-.16-.07-.3-.04-.43-.11-.09-.12-.2-.22-.26-.35v-.14c-.12-.24-.35-.4-.46-.64,0-.1.02-.19.02-.28.07-.06.14-.11.2-.16,0-.1,0-.18.08-.25.04-.03.03-.12.05-.21.18-.18.43-.31.61-.51,0-.07,0-.11,0-.17l.4.05.1-.08c.02-.14,0-.28.05-.42.05-.01.11-.03.16-.04.07.09.14.17.21.26l-.12.21-.02.35c-.04.05-.12.06-.11.16,0,.02,0,.04.02.06.06.1.18.17.16.31-.02.13.13.25.08.39-.02.06,0,.14-.01.21.16.03.32.06.5.09,0-.09,0-.18-.01-.31,0,.02,0,0-.01-.02-.08-.15-.08-.15,0-.23.06-.05.16-.08.15-.21-.04-.04-.08-.1-.13-.16-.08-.1-.07-.14.02-.22.05-.04.1-.08.11-.09.03-.2.05-.36.06-.49-.05-.07-.07-.11-.1-.15v-.28c.07-.03.1-.11.21-.06.09.11.2.23.32.37l.76.12c.05.1.19.16.17.3-.02.02-.03.04-.04.05l-.1.08c-.1.09-.09.17.05.27.02.01.05,0,.07.01.14-.11.27-.21.41-.32.01,0,.04,0,.07,0,.15.12.24.3.38.43.03.03.08.03.12.04.04-.04.12-.06.09-.19-.09-.11-.19-.24-.3-.37l-.33-.4s0-.08,0-.13c.07-.05.12-.08.21-.15.01,0,.05,0,.08.01.12.15.24.3.37.45.07.02.14.03.22.05.06.07.12.15.18.22.01.01.04.02.07.02.04,0,.06-.04.03-.1-.1-.19-.1-.19,0-.28l.05-.04c.09-.08.1-.13.02-.22-.11-.13-.22-.27-.31-.38-.08-.02-.14-.04-.18-.05,0-.11-.01-.2-.01-.28.08,0,.15.02.21.02q.56-.44.7-.47l.1.11v.2s.14.17.14.17l.26-.2c0-.16.02-.32.02-.49l-.09-.11-.2-.04-.09-.11v-.28c.14-.12.14-.12.28,0,.02.01.04.03.02.01.13.03.22.06.29.07.08-.07.15-.12.23-.18l-.08-.18c.01-.23.02-.46.04-.73.07-.05.17-.13.27-.21.04-.03.14.03.17.09.04.07,0,.14.02.2.02.1.09.16.2.16.03-.02.07-.05.1-.07.07,0,.13.01.19.02,0-.19.02-.38.03-.57.01-.02.03-.04.04-.05l.1-.08c.1-.08.09-.13-.04-.26-.07-.02-.14-.04-.2-.06-.06-.09-.12-.16-.17-.22,0-.07,0-.12,0-.16l-.19-.29c.1-.19.31-.24.43-.4.01-.25.02-.51.04-.77.09.02.18.04.28.06,0,.05,0,.11,0,.18.06.01.13.03.2.04.05.05.07.13.16.12.06-.12.03-.26.05-.39l.31-.24c.01-.14.02-.27.03-.4.06-.04.11-.08.1-.16,0-.07,0-.14,0-.21l-.09-.12v-.28c.05,0,.1,0,.13.02.07.07.12.15.17.21,0,.14-.01.25-.02.37.01.02.02.04.03.06.09.11.25.11.26,0,.01-.12.04-.21.14-.29,0-.24.01-.5.02-.75.15,0,.18.15.29.24,0,.15-.01.3-.02.47,0,.18-.04.36-.01.54.11.16.25.11.39.13-.03-.07-.06-.13-.11-.24,0-.05.02-.14.04-.25.06-.05.11-.14.09-.28.06-.05.13-.11.2-.15.02-.01.07.01.1.02,0,.07,0,.14,0,.2.1.09.13.23.27.23.04-.03.07-.06.1-.08l.02-.21c.1-.08.2-.16.32-.25-.03-.06-.06-.12-.1-.22,0-.04,0-.1,0-.18l-.09-.11v-.21s-.09-.11-.09-.11q-.19-.04-.18-.12l.1-.09.02-.2.2.03c.07-.13.21-.03.29-.05.09-.07.15-.12.21-.16.03-.07-.02-.15.06-.19.09.02.18.04.26.05.04.04.08.08.11.11.1.02.19.04.28.05l.11-.08c.05-.12-.14-.2-.06-.34.04-.02.1-.04.15-.06.03.03.05.04.07.06.11.11.16.11.16,0,0-.13.14-.16.12-.29-.01-.14,0-.28.02-.42v-.07s.11-.08.11-.08c.04.02.1.02.12.05.05.06.1.1.17.09.07-.06.14-.11.2-.15.01-.18.03-.34.04-.49-.04-.04-.07-.08-.1-.12v-.28s.11-.09.11-.09c0-.06.01-.14.02-.2,0-.02.03-.03.03-.07-.03-.04-.03-.07-.02-.09,0-.01.01-.04.02-.04.06,0,.08.01.08.06,0,.05-.01.08-.06.09,0,0-.03-.03-.02-.02.07.08.11.14.16.2.07.01.16,0,.2.05.14.14.14.15.29.05,0-.06.01-.13.02-.2.13.02.26.04.39.05.01-.07.02-.13.03-.19.11.02.2.05.27-.04.04-.12.02-.27.04-.4l.1-.08c.13.02.26.04.38.06.05-.1-.03-.14-.08-.22,0-.07.02-.16.03-.27.07-.06.12-.15.1-.28.03-.03.06-.06.1-.09.13.02.27.04.4.06.11-.08.21-.17.33-.26l-.08-.19c-.15-.03-.28-.05-.42-.08-.03-.04-.06-.08-.1-.13l.12-.21.02-.35.1-.08.21.03s.07-.06.09-.09l.02-.21c.07-.05.13-.11.19-.15.01-.08.02-.15.03-.21.12-.07.23-.15.2-.31,0-.02.02-.04.03-.05.09-.06.1-.13.01-.23-.05-.06-.09-.11-.13-.15,0-.11,0-.21.01-.3.07,0,.14.02.2.03.11-.09.21-.17.31-.25,0-.19.02-.38.03-.56l.09-.09c.04-.26.03-.28-.08-.48.01-.23.03-.48.05-.74-.03-.04-.06-.08-.08-.11v-.21c-.06-.08-.13-.15-.18-.22,0-.03,0-.06,0-.08.02-.14-.14-.25-.08-.39,0-.01-.01-.05-.03-.06-.09-.08-.05-.17-.05-.26-.03-.04-.06-.08-.09-.12,0-.06,0-.13,0-.2-.03-.04-.06-.07-.09-.11l.05-1.04s.01-.04-.03.06c.09-.17.12-.22.15-.27-.04-.05-.07-.09-.1-.13v-.21s-.18-.23-.18-.23c.03-.12,0-.23-.09-.33l.04-.76-.09-.11c0-.07,0-.14,0-.22-.15-.07-.05-.21-.11-.34-.04-.05-.1-.12-.16-.19,0-.06,0-.11,0-.15-.05-.11-.12-.2-.22-.27l-.14-.02-.05-.04c-.12-.11-.13-.11-.23-.04-.05.04-.1.08-.14.11-.21-.09-.31.04-.4.16v.14c-.07.09-.17.14-.25.21-.09.09-.22.14-.28.26,0,.05,0,.1,0,.15l-.2.16-.02.21c-.07.05-.13.11-.21.16l-.02.55s-.02.02-.04.03c-.09-.02-.18-.04-.25.05,0,.05-.01.12-.02.19-.06.05-.13.1-.2.16-.06,0-.13-.02-.2-.03l-.31.24c0,.07-.01.14-.02.2-.14.11-.28.22-.41.32-.08,0-.15-.02-.22-.02-.76.6-1.52,1.19-2.26,1.78-.08,0-.14-.05-.19,0l-.02.35-.1.09-.21-.03-.2.16c-.07,0-.14-.02-.2-.03-.45.36-.9.71-1.35,1.06-.02.14,0,.28-.05.41-.07.05-.13.09-.19.13-.07-.01-.12-.02-.17-.03-.1.08-.2.16-.31.25,0,.05-.01.11-.02.19-.03.03-.06.05-.09.08l-.4-.06c0,.07-.02.14-.02.19-.19.15-.36.28-.52.41-.06-.01-.11-.02-.17-.03-.16.1-.31.21-.43.34,0,.06,0,.11,0,.18-.09.07-.19.15-.29.23-.12.1-.23.18-.36.29-.1.08-.22.13-.28.26v.15s-.21.16-.21.16l-.02.21-.41.32c0,.07-.01.14-.02.2-.08.06-.14.11-.2.16-.08,0-.15-.01-.21-.02-.18.14-.35.27-.51.4-.26-.04-.28-.03-.3.16,0,.08-.04.12-.09.15,0,.14,0,.28,0,.39-.1.08-.17.13-.24.19,0,.07-.01.14-.02.2-.07.13-.21.03-.3.08v.14c-.11.17-.32.22-.42.4,0,.05,0,.09,0,.15-.34.27-.68.54-1.03.81,0,.07-.01.14-.02.21-.41.32-.82.65-1.23.97l-.02.21-.31.24-.02.21c-.17.14-.34.27-.51.4-.01.08-.02.14-.03.2-.18.14-.35.27-.5.39-.02.1-.03.16-.04.22-.12.09-.2.2-.38.12,0,.06-.02.13-.02.2-.03.02-.06.05-.09.07l-.02.21-.72.57-.02.21-.93.73c.02.13-.02.22-.13.29-.03.02-.06.06-.09.09,0,.05,0,.09,0,.15-.11.14-.26.22-.39.33-.13.1-.23.18-.36.29-.03.02-.05.04-.08.06l8.74.52c-.09-.1-.18-.21-.3-.28-.06,0-.11,0-.16,0,0-.06,0-.13,0-.2-.12-.12-.24-.24-.37-.37h-.06s-.14,0-.14,0l-.09-.09v-.14s0-.04,0-.06c-.13-.11-.13-.11-.23-.03-.12.09-.14.09-.23,0-.04-.04-.08-.09-.12-.14,0-.26,0-.27-.27-.26-.06-.06-.12-.12-.19-.19,0-.12.01-.26.02-.39-.03-.03-.06-.06-.09-.09-.07,0-.14,0-.22,0-.06-.06-.12-.12-.18-.18-.13,0-.25.01-.39.02l.03-.39-.18-.18c0-.07,0-.13,0-.2h-.21s-.18-.18-.18-.18c-.21.06-.29-.08-.37-.21v-.14s-.07-.02-.1-.02c-.09.02-.12-.04-.17-.08,0-.06,0-.13,0-.2-.12-.04-.19.15-.31.11q-.15-.15-.18-.27l.2-.02s.01-.04.01-.06c0-.02,0-.04-.02-.06-.05-.05-.09-.09-.14-.14-.11-.1-.2-.23-.33-.3-.05,0-.1,0-.17,0-.2-.2-.42-.42-.63-.64-.01-.01-.01-.04-.01-.06v-.14s-.05-.07-.09-.11c-.08.01-.17.03-.28.04,0,.04-.02.1-.03.16-.01,0-.03.02-.05.02-.1-.02-.17-.11-.31-.09-.1.01-.14-.08-.12-.19l.32-.31s0-.04,0-.09l-.4.02-.09-.09-.35.02s-.06-.03-.04-.09c.06-.1.21-.14.22-.28-.06-.12-.16-.2-.26-.29-.11-.11-.19-.23-.38-.33-.21.01-.46.02-.71.04.04-.11.04-.11.1-.16.05-.05.09-.11.13-.15-.07-.14-.07-.14-.19-.15-.17-.01-.19-.03-.19-.19,0-.02,0-.05,0-.08-.12-.12-.24-.24-.37-.37-.05,0-.12,0-.19,0l-.09-.08c-.12-.05-.19.14-.31.11l-.19-.19q.05-.19.3-.21c.01-.12.02-.13-.38-.47h-.15c-.21-.11-.31-.34-.53-.46-.1.02-.19.02-.24-.07-.14.01-.28.02-.39.03-.31-.31-.59-.59-.86-.86h-.22c-.15-.15-.31-.31-.45-.45-.08,0-.15,0-.22,0-.07-.11-.19-.17-.25-.29v-.14s0-.04-.01-.06l-.37-.37s-.04-.07-.07-.12c.02-.17.03-.36.05-.54-.07-.07-.13-.13-.19-.19-.1,0-.19,0-.3.02-.14.13-.28.27-.42.4-.01.01-.04,0-.07.01-.13-.05-.19-.17-.29-.25-.11-.1-.2-.23-.33-.31-.02,0-.05,0-.07,0-.06.01-.1,0-.1-.04,0-.02,0-.05.01-.07.07-.07.14-.14.2-.19.08,0,.15-.02.23-.03.06-.1.21-.14.2-.29l-.65-.65h-.41c-.05-.13-.2-.04-.26-.08,0-.11,0-.2,0-.27.15-.16.15-.16.04-.3,0-.06,0-.13,0-.2-.03-.03-.06-.06-.09-.09-.07-.01-.12.04-.18.08-.06.03-.13.03-.23.05-.05.05-.12.12-.19.18-.07,0-.14.01-.21.02-.06,0-.1,0-.11-.03-.01-.05,0-.09.06-.12.05-.03.08-.08.05-.12-.01-.02-.07-.02-.11-.02-.02,0-.05,0-.07,0l-.05-.04c-.06-.06-.07-.12-.03-.17.03-.03.08-.08.11-.08.19-.01.38-.02.57-.03,0-.02.01-.04.01-.06,0-.02,0-.04-.02-.06-.03-.03-.06-.06-.09-.09-.13-.11-.23-.26-.37-.35-.05,0-.1,0-.15,0-.17-.09-.25-.29-.43-.37-.06,0-.1,0-.16,0l-.18-.18h-.21s-.18-.18-.18-.18c-.07,0-.14,0-.2,0-.13-.13-.25-.25-.37-.37,0-.08,0-.14,0-.22-.09-.09-.18-.18-.27-.27.01-.2.03-.38.04-.57l-.27-.27v-.21s-.08-.09-.08-.09h-.21s-.06-.06-.08-.09c0-.07,0-.14,0-.22l-.17-.07s-.08.08-.12.12l-.02.2s-.07.07-.12.12c-.05-.02-.11-.05-.16-.07-.14,0-.28.02-.39.02-.16-.16-.28-.28-.4-.4l.02-.28c.13-.15.17-.15.27-.06.03.03.06.07.09.09.03.02.08.02.13.03.03-.03.07-.07.11-.11,0-.08,0-.18.01-.29-.2-.2-.42-.42-.63-.64v-.21s-.05-.06-.08-.09h-.21s-.37-.37-.37-.37v-.21s-1.19-1.21-1.19-1.21c0-.12.02-.24.03-.35-.06-.09-.12-.18-.07-.31-.06-.06-.12-.12-.19-.19-.05,0-.12,0-.19,0,0-.06,0-.13,0-.2l-.09-.09c0-.07,0-.14,0-.2-.07-.07-.13-.13-.18-.18-.08,0-.15,0-.19,0-.07-.07-.13-.14-.18-.18,0-.09,0-.15,0-.2-.09-.11-.21-.18-.27-.32.03-.09.02-.17-.07-.23-.06,0-.13,0-.2,0-.12-.12-.24-.24-.37-.37,0-.06,0-.13,0-.2l-.65-.65v-.21c-.09-.09-.18-.18-.26-.27,0-.08,0-.15,0-.2-.15-.15-.29-.29-.42-.43-.01-.01-.02-.04-.03-.05,0-.25,0-.26-.27-.25-.27-.27-.55-.55-.84-.84,0-.05,0-.12,0-.19-.09-.09-.18-.18-.27-.28-.07,0-.13,0-.21,0-.12-.12-.25-.25-.34-.34-.16-.05-.3.02-.42-.03v-.14c-.11-.05-.25,0-.39,0-.03-.03-.06-.06-.1-.1,0-.08.02-.17.04-.29.02-.05.14-.09.08-.19l-.56.03s-.04-.02-.05-.04c-.04-.06-.11-.07-.18-.03-.06.04-.11.1-.19.09l-.09-.09v-.2s-.09-.09-.09-.09l-.57.03s-.04-.02-.06-.03q-.13-.08-.29.05h-.28s0-.19,0-.19l-.09-.08h-.21c-.34-.34-.68-.68-.98-.98-.21,0-.37-.01-.52-.02-.12.12-.23.22-.33.32-.13-.02-.23.03-.32.11-.12,0-.24.01-.37.02l-.04.39-.11.1-.78.04s-.14.12-.13.16c0,.04.03.08.06.11.08.07.23-.02.3.09.02.02.08.02.13.02.09,0,.19,0,.28-.01-.01.13-.01.13-.21.28-.12.02-.22.03-.3.05-.07-.07-.14-.14-.18-.18-.19,0-.35,0-.51,0,0,.11-.01.2-.02.3l.18.18c.06,0,.13,0,.2,0l-.02.28s-.06.07-.1.11c0,.06-.02.13-.02.2-.1.1-.21.2-.32.31,0,.09-.02.18-.01.27,0,.04.05.07.08.1.11,0,.22.02.34-.03.15-.13.27-.29.43-.39.09,0,.18,0,.27,0,0,.03,0,.07,0,.08-.14.14-.28.27-.44.42-.05,0-.12.01-.19.02l-.1.1-.21.02-.1.11-.02.28.09.09s0,.09-.03.13c-.02.03-.07.07-.11.08-.09.01-.18.01-.28.01-.06-.07-.13-.13-.18-.18-.03,0-.06,0-.08,0-.04,0-.07-.01-.11-.02,0-.05.02-.1,0-.14-.02-.13-.15-.15-.25-.06-.05.05-.11.1-.15.15,0,.11-.01.2-.02.29.07.07.07.08.09.18-.11.11-.23.23-.33.34,0,.07,0,.12-.01.16-.03.1-.14.15-.22.12-.04-.02-.07-.08-.1-.07-.17.04-.25-.06-.34-.15-.05-.05-.12-.03-.18.03l-.48.47s0,.05,0,.07c0,.01.02.02.04.02.04,0,.09,0,.16,0,.05.05.12.11.17.18.02.02,0,.07-.01.09-.1.01-.19.02-.28.03-.04-.04-.07-.07-.11-.11l-.18.09c-.01.08-.02.15-.03.22-.06,0-.13.01-.2.02l-.1.1c-.07,0-.14.01-.2.02,0,.1-.01.19-.02.29l.09.09h.21s.11.08.08.18c-.27.26-.56.54-.84.81,0,.07-.02.14-.03.22h-.48s0-.07.02-.1l.19-.22s0-.05,0-.07l-.09-.09c-.09,0-.19.01-.29.02-.06.06-.13.13-.21.21l-.42.02h-.07c-.08,0-.14-.13-.09-.2.04-.06.11-.1.1-.18l-.09-.1v-.2c-.09,0-.18,0-.29.02-.2.2-.42.4-.63.61-.01.01-.01.04-.02.08.06.08.12.16.18.24,0,.12-.02.23-.02.35,0,.04.05.07.08.11.06,0,.13,0,.2,0,.03.03.06.05.09.08h.2c0,.07,0,.13,0,.2.03.04.06.07.09.1v.14s.02.06.09.04l.21-.2q.17.02.18.19l-.32.3q-.02.19-.11.2l-.09-.09c-.21,0-.42.01-.57.02-.11-.05-.17-.07-.22-.09-.08.08-.15.15-.22.22-.07,0-.14.01-.2.02-.08.07-.15.14-.22.21l-.02.29.09.09c.17,0,.33-.02.51-.03.04-.02.08-.11.16-.09.04,0,.08.03.11.06.04.04.08.1.12.15,0,.02,0,.05,0,.07-.04.06-.14.09-.11.17.03.06.12.02.18.02.03.03.07.05.11.09.13,0,.27,0,.41-.01l.27.27c.07,0,.14,0,.21,0,.12.14.12.14-.02.28l-.41.03c.04.17.04.17.24.28l.18-.11.35-.02s.07-.06.12-.1c.06,0,.13-.01.2-.02.15,0,.18.02.19.19,0,.07.03.12.07.17.02.02,0,.08,0,.11-.05,0-.09,0-.14,0-.06,0-.15.08-.15.13l-.03.35s-.09.02-.11,0c-.07-.05-.12-.12-.17-.17-.23.01-.44.02-.66.03-.02,0-.04.01-.08.03-.03.05-.06.11-.09.16.1.1.2.2.34.34.09-.02.23-.05.3-.07.12.05.17.08.23.1.08-.08.15-.15.23-.22.09,0,.18,0,.28,0,.06.09-.07.14-.1.21,0,.11-.02.23-.03.36-.06,0-.12.02-.21.03-.04.04-.09.09-.14.14-.08.08-.08.08-.01.23.02.04.03.08.02.12,0,.06,0,.09.04.1.09-.01.18-.02.24.08,0,.05,0,.12,0,.21.09-.01.18-.03.3-.05,0,0,.04-.03.08-.06.16-.04.32-.03.49-.04.08.1-.05.14-.08.21.06.15-.13.24-.13.38.06.06.12.12.2.2.07,0,.17-.02.26-.03.12,0,.23,0,.34,0,.06.09.15.08.24.07.12.12.28.1.44.06.04-.03.08-.06.06-.05.21-.03.37-.06.51-.08.04.11-.04.15-.09.21l-.21.02-.37.36s.09.09.17.17ZM12,54.3s.04,0,.04.02c.01.05,0,.08-.05.08-.05,0-.08,0-.1-.05,0,0,.03-.03.05-.04-.21.08-.2.02-.2.02.03-.01.08-.03.1-.02.06.02.06.06,0,.08-.03.01-.07,0-.1,0,.22-.09.24-.09.26-.09ZM46.92,72.9c-.07-.09-.07-.14.01-.21l.1-.08-.14-.17.02-.28c.11-.03.15.06.19.13-.03.1.04.24-.07.32.01.02.04.04.04.05,0,.11-.01.21-.01.31,0,.02-.03.02-.04.04.02.16-.04.14-.04.14,0-.03-.02-.08,0-.1.02-.06.07-.05.08.01,0,.03,0,.07-.02.1-.05-.19-.08-.22-.11-.26ZM38.54,75.07h.28c.15.11.15.14-.02.28-.09.03-.12-.04-.16-.08-.08-.03-.2.05-.26-.05-.13.06-.13.06-.35.04.05-.15.06-.17.22-.17l.13.13.16-.16ZM37.54,75.12l-.04.4c-.17,0-.22-.11-.28-.23,0-.01,0-.05.01-.06l.1-.11c.02-.05,0-.09-.03-.12-.03-.03-.06-.06-.09-.09-.09-.1-.08-.13.07-.26h.28s.06.04.08.07c.09.03.2-.04.26.05l.16-.15.21-.02.1-.1h.28c.08.02.14.08.1.19l-.11.09c-.25.01-.5.02-.79.04-.07.07-.19.19-.32.31ZM35.53,75.42s-.01.05,0,.07c0,.01.02.03.04.03l.35-.02.1.09s0,.1-.03.12c-.1.1-.19.23-.36.2-.14.12-.29.13-.45.11-.02-.02-.02-.02-.05-.05-.01-.02-.04-.04-.03-.05.08-.17-.14-.27-.07-.44.02-.04.01-.09.02-.13l.35-.02c.06-.04.12-.08.18-.11.05-.03.09,0,.12.04.07-.05.09-.05.11-.05.02,0,.04,0,.04.02.01.05,0,.08-.05.08-.05,0-.08,0-.1-.05,0,0,.03-.03.05-.04-.1.1-.15.15-.21.2ZM12.26,52.63v.19s.56-.03.56-.03c.09.05.17.12.21.22-.02.13-.16.17-.22.27,0,.07-.02.14-.03.2-.04.03-.08.06-.12.09l-.35.02c-.13.08-.18.1-.34.12-.04.04-.09.09-.15.14-.07.07-.14.09-.18.05-.05-.04-.09-.09-.07-.17,0-.02,0-.05,0-.07-.12-.06-.26,0-.39-.01-.09-.09-.18-.18-.28-.28-.16,0-.32.02-.49.03-.04,0-.07.06-.12.09,0,.06-.02.13-.03.2-.03.03-.06.07-.1.11-.23,0-.46,0-.69.01,0-.05,0-.11,0-.18l-.18-.18c0-.09.01-.19.02-.29.14-.13.28-.27.43-.41.13,0,.27-.02.4-.03.04-.04.07-.07.11-.1,0-.03.01-.06,0-.07-.09-.1-.15-.17-.26-.29-.02-.02,0-.07,0-.11.19,0,.38-.02.57-.03.07-.06.14-.13.21-.2.09,0,.19-.02.28-.01.04,0,.08.03.1.07.02.03.01.08.02.12l-.2.02s-.07.08-.1.11l-.02.28.09.09c.11.03.16-.09.25-.1.07-.01.13,0,.2-.04.22-.11.22-.1.44-.02.02,0,.03.01.06.02.05.01.14-.05.16.03.01.04,0,.09,0,.15h.19ZM28.17,63.17s.09,0,.15,0c.16-.1.28-.26.43-.38.03-.03.09-.02.13-.03l.18.19c0,.06,0,.09-.05.1-.07.01-.14-.01-.2.05-.02.02-.04.03-.06.06,0,.06-.02.13-.03.2l-.1.09c-.03.08.01.13.05.18.03.05.02.13.03.23.02.05.09.1.15.16.04.04.09.02.18-.05l.06-.04c.12.01.23-.02.31-.11.1,0,.19-.02.28-.02.07.07.13.13.19.19.01.14-.13.19-.21.3-.2.01-.4.03-.61.04,0,.07-.02.14-.02.2-.13.14-.13.14-.07.23.09.15.06.21-.16.26l-.09-.09-.99.06-.46-.46h-.21s-.06-.06-.1-.09h-.2c-.01-.14.13-.18.2-.29.21-.03.42-.02.63-.04l.53-.51c.02-.13,0-.26.05-.39ZM32.49,68.48s-.07.07-.06.12c0,.03.04.04.1.03.02,0,.05,0,.07,0,.07.09.25.1.19.28h-.28s-.09-.07-.09-.07h-.21s-.18-.18-.18-.18h-.21s-.06-.06-.08-.09c0-.07,0-.14,0-.2-.03-.04-.06-.07-.08-.1l.02-.28s.07-.07.13-.13c0-.11,0-.25-.01-.36.17-.14.17-.14.26-.08.11.07.11.07.23-.02.02-.01.04-.02.05-.03.1,0,.19-.01.28-.02.1.1.19.19.28.28h.2c.16.15.31.31.47.47-.03.06-.06.11-.09.18-.25.02-.51.12-.69-.08-.12.12-.21.2-.3.29ZM34.44,69.7c-.15-.06-.25.13-.39.12-.03-.03-.06-.06-.1-.1.01-.08.02-.17.04-.28.06-.07.14-.16.09-.29.1-.09.19-.18.27-.26q.09-.09.23,0s.04.02.03.01c.12,0,.21,0,.3,0,.02-.06,0-.1-.02-.14-.09-.14-.08-.14.07-.26.15-.02.16.13.32.18.13.01.34-.05.54-.01,0,.03,0,.06,0,.07-.28.27-.57.55-.86.83-.13,0-.27.02-.4.03l-.11.1ZM23.69,62.81c0-.2.2-.25.3-.39.18-.05.36-.04.54-.03.05.09.15.08.26.07.14.11.28.25.38.37.01.09,0,.17.03.22.03.06.07.1.05.17l-.21.2c-.15.03-.18-.11-.28-.17-.05,0-.12,0-.2,0-.08-.08-.17-.17-.29-.29-.12.02-.26.04-.37.06-.09-.09-.15-.15-.21-.21ZM49.83,73.43s-.11,0-.17-.08l-.14-.17-.08-.12s0-.09,0-.14c0-.01-.02-.03-.02-.05l-.34-.06c-.06-.04-.11-.09-.12-.16,0-.05.02-.08.06-.1.02,0,.03-.03.05-.04l.09-.08.02-.2c.07-.05.14-.11.19-.15,0-.07.02-.13.03-.19.15.02.18.16.27.24,0,.07,0,.13,0,.2l.27.34v.07s-.03.62-.03.62c-.03.03-.06.06-.09.08ZM30.3,69.22c0-.07,0-.16.01-.25.01-.02.02-.04.04-.04l.35-.02s.07-.06.12-.1c.06,0,.13-.01.21-.02.03-.03.06-.06.11-.11.08,0,.18,0,.3,0,.09.04.15.17.25.23.03.12.02.22-.02.33-.02,0-.06.01-.07,0-.1-.09-.16-.15-.28-.27-.04-.03-.09,0-.11.02,0,.11-.02.23-.03.36-.06.06-.12.13-.2.19-.02.02-.07,0-.11,0q0-.18-.16-.17c-.07,0-.14,0-.22.01-.06-.06-.12-.12-.19-.19ZM9.82,51.97h-.28s-.06-.04-.12-.09c-.14.02-.3.04-.53.08-.06.06-.19.17-.3.27q-.11-.02-.17-.1s0-.05,0-.07c.1-.11.2-.21.31-.34,0-.04.02-.11.03-.18.1-.12.21-.25.36-.33.02,0,.05,0,.06,0,.03.03.06.06.08.09,0,.07,0,.14,0,.19.07.07.13.13.19.19.1,0,.19,0,.29-.01.07-.06.13-.14.21-.2.04-.03.09-.02.1.02,0,.02,0,.05,0,.07l-.21.21-.02.2ZM46.81,74.61s-.04-.06-.03-.11c0-.02,0-.05,0-.07v-.21s-.05-.08-.07-.12c-.04-.06,0-.1.09-.09l.18.23s.05.02.07.01c.14-.03.2-.16.31-.2.01-.05.03-.09.04-.13.02-.15.04-.17.21-.16l.18.23c0,.09,0,.19-.01.29-.06.05-.13.1-.21.16-.06,0-.12-.01-.2-.02-.06.05-.13.1-.2.16l-.21-.03c-.05.03-.08.11-.17.07ZM51.36,72.41l-.48-.08c.01-.22.03-.45.04-.69,0,0,.04-.04.08-.07l.26.04c.1.04.14.14.2.2.07.19-.02.36.02.52-.05.04-.08.07-.12.09ZM25.17,65.99c-.05-.03-.13-.02-.22-.02-.05-.05-.11-.11-.19-.19.02-.13.04-.29.07-.47.06,0,.15-.01.23-.02.04.02.08.04.11.07l.37.37s.02.04.03.06c0,.14-.17.16-.2.27-.1.02-.14-.03-.19-.06ZM12.14,54.66c.06-.06.13-.13.2-.19,0-.06,0-.1.01-.15.02-.07.08-.14.14-.14.13.01.22-.07.32-.12.02,0,.04,0,.06,0-.08.16.1.23.07.37-.17.17-.35.34-.55.53-.07,0-.17,0-.27,0-.03-.08,0-.19.02-.3ZM52.52,69.34s-.07-.08-.1-.12c0-.11.05-.19.15-.16.12.03.21-.03.31-.05.02,0,.04.01.06.02l.28.34c-.04.19-.21.24-.34.33-.1-.01-.19-.03-.28-.04-.03-.04-.07-.08-.1-.13,0-.06.02-.12.02-.18ZM48.53,71.43l-.04.04c-.09.09-.06.22.05.26.04.02.09,0,.14.03.1.04.14.12.12.22l-.11.08c-.22-.07-.28-.32-.46-.44,0-.08,0-.15-.01-.22q-.11-.19.02-.32c0-.09,0-.18.01-.28,0-.06,0-.09.04-.1.05,0,.08.02.12.07.04.06.09.11.14.17l-.03.48ZM10.85,54.27l.21-.02.21-.2c.17,0,.17,0,.19.18l-.32.3c0,.07-.01.13-.02.2-.03.03-.07.06-.1.1-.07.02-.12,0-.17-.05-.05-.05-.13-.01-.19-.02-.1-.02-.14-.09-.12-.19l.32-.31ZM50.76,72.39c0,.09-.01.17.01.23.02.06.09.11.07.2-.07.06-.16.13-.25.19q-.09.07-.22-.05s-.03-.04-.03-.06c.01-.28.03-.55.04-.87.21.09.25.27.37.35ZM27.27,62.82s-.06-.06-.1-.11c.03-.05.06-.11.14-.24,0-.07,0-.2-.01-.31.07-.06.1-.1.14-.13.09,0,.19,0,.29-.01v.2s.08.08.13.13c.09.09.04.22-.09.25-.05.01-.09,0-.16,0-.13.1-.19.24-.33.21ZM10.59,51.05s-.08.07-.11.09c-.17.01-.33.02-.5.03.01-.05.02-.1.04-.13l.26-.26c.1-.06.24.02.31-.12.11-.02.23-.04.35,0,.02.05.04.1.06.16-.08.08-.15.15-.22.22-.07,0-.14.01-.21.02ZM13.15,55.52l.02-.2.43-.41s.05-.01.07,0c.03.01.04.05.01.1,0,.02-.04.03-.05.05-.08.09-.08.09.03.22.01.11.01.22-.03.33-.02.02-.03.04-.05.05-.18.07-.35.04-.53.05-.02-.09.06-.13.11-.19ZM13.18,57.87l-.1.1c-.15.03-.22-.16-.37-.08-.03-.03-.06-.05-.1-.09-.06,0-.13,0-.2,0-.02-.07.02-.12.08-.17.06-.06.02-.13.05-.19.03-.1.11-.15.21-.13.03.03.06.06.09.09,0,.07,0,.14,0,.2l.1.09c.14,0,.28-.03.42,0,.02.05.04.1.06.16-.08,0-.15.01-.22.02ZM55.18,67.61q-.04.17-.21.16l-.09-.11c-.07-.02-.14-.03-.19-.04-.07-.09-.13-.16-.19-.23,0-.1,0-.19.01-.29.13-.02.17.18.31.14l.2-.15c.07,0,.1.02.09.06l-.02.35.09.11ZM50.14,71.02c0-.08,0-.17.01-.26,0-.04.04-.08.08-.09.03-.02.08,0,.12,0l.09.11v.14s0,.04,0,.08c.09.11.18.22.26.32.02.1-.05.13-.12.19-.06-.02-.15-.04-.25-.06-.05-.01-.12-.1-.12-.16,0-.05,0-.09,0-.14-.03-.04-.05-.08-.09-.13ZM30.63,65.98v.25c-.06.07-.13.03-.19.05-.08.03-.14.13-.25.11-.07,0-.14,0-.18,0-.07-.07-.13-.13-.18-.18-.02-.1.06-.14.1-.19.13-.06.17.12.3.08l.11-.1c.09,0,.19,0,.29-.01ZM58.42,62.7c-.08.06-.14.11-.21.16-.07,0-.12-.04-.17-.1-.05-.06-.13-.04-.19-.06-.01,0-.02-.03-.03-.04,0-.02,0-.05,0-.06l.5-.4s.04,0,.09,0c0,.19,0,.35,0,.5ZM29.72,67.49l-.1.1c-.15.02-.31.04-.43-.07-.01-.01-.04,0-.07,0-.06.01-.09,0-.1-.03-.01-.05.01-.08.06-.12.06-.04.1-.1.16-.16.08,0,.17,0,.31,0,.07.1.19.13.16.27ZM29.38,66.73c.08,0,.18,0,.28,0,.1.05.17.15.26.24.02.02.02.08.02.12-.16.03-.3.04-.43-.07-.03-.02-.09.01-.13,0-.04,0-.08-.03-.1-.07-.02-.03-.01-.08-.02-.12.03-.03.07-.07.11-.11ZM54.97,65.79q-.08-.02-.08-.21c-.06-.07-.12-.15-.19-.24.01-.08.02-.17.04-.27.08-.03.18,0,.28.05,0,.05-.02.1,0,.14.02.06.07.12.08.18.02.09,0,.18.01.25-.06.04-.1.07-.13.09ZM26.62,66.58s-.09-.08-.13-.12c-.11-.11-.1-.12.05-.27.09,0,.18,0,.29-.01.04.04.09.08.13.12.11.11.1.12-.05.27-.09,0-.18,0-.29.01ZM14.74,58.17c-.09.02-.19.01-.3.02.03-.06.06-.12.08-.17.06-.01.1-.03.15-.03.14,0,.28-.01.4-.02.12.16.13.18-.03.29-.11.07-.17-.11-.3-.08ZM49.26,70.64c-.07.08-.14.15-.24.18-.09,0-.11-.08-.16-.12-.01-.08.02-.12.07-.16.05-.04.03-.12.04-.18,0-.01.02-.03.03-.03l.27.03c0,.11,0,.2-.01.28ZM53.89,65.71c.14-.12.14-.12.19.1,0,.02.02.04.03.06.08.09.08.16,0,.23-.06.04-.04.12-.05.19,0,.04-.05.06-.1.02-.04-.02-.06-.07-.1-.11l.02-.49ZM48.69,74.15s.08-.06.11-.09c.17.06.17.06.18.23l-.3.24c-.17-.04-.17-.05-.19-.22.07,0,.13.02.21.03,0-.07,0-.13,0-.19ZM51.08,70.2s.09,0,.11.01l.28.33c-.04.17-.04.17-.21.16l-.18-.22v-.27ZM36.23,73.92s0-.05,0-.07c.01-.03.06-.04.11-.04.14,0,.28-.03.43,0,.02.05.04.1.06.16-.18,0-.35.02-.51.03l-.09-.09ZM55.66,64.42c-.05-.11,0-.2-.01-.3.04-.03.08-.06.11-.08.1,0,.17.07.19.16.01.09,0,.18,0,.26-.1-.02-.19-.03-.28-.05ZM39.43,78.45c.13,0,.16.13.25.18.01.05,0,.1-.04.1-.16,0-.31.02-.47.03.05-.15.05-.15.26-.31ZM56.01,64.97l-.2.16q-.17-.06-.19-.23l.2-.16q.17.06.19.23ZM58.76,63.01c.06.13,0,.23.03.34-.07.05-.11.13-.21.05,0-.16.02-.32.02-.49.06.04.12.07.16.1ZM28.79,68.03c.14,0,.16.02.18.19-.14,0-.27.01-.41.02-.06,0-.09,0-.09-.03,0-.05.01-.08.06-.11.02-.01.03-.03.05-.05h.2ZM34.72,74.68s-.04-.01-.07-.02c-.02-.04-.04-.1-.08-.19.18,0,.34,0,.49,0,.01,0,.03.02.03.03.01.05,0,.09-.05.12-.02.01-.03.03-.07.07-.07,0-.16,0-.25,0ZM14.77,58.96c.07.1-.04.14-.09.2h-.2c-.14.01-.16,0-.18-.18l.47-.02ZM13.09,53.66s.09.09.14.13c.04.03.06.06.04.11-.01.04-.04.05-.1.04-.07,0-.14.01-.19.02-.04-.04-.07-.07-.1-.1q.04-.17.22-.21ZM46.45,75.16l-.2-.04c-.14-.03-.16-.06-.18-.23.03-.03.07-.05.13-.1.13.13.27.21.25.38ZM40.42,77.91s.09.1.14.14c.04.03.06.06.04.11-.01.04-.04.05-.1.04-.07,0-.14.01-.19.02-.04-.04-.07-.07-.1-.1,0-.14.08-.2.21-.21ZM12.86,45.94q.16.02.19.18l-.1.1q-.17-.02-.19-.18l.1-.1ZM27.74,65.54c-.09.02-.18.02-.27.03,0-.11.05-.18.15-.21.09-.02.18-.02.27-.03,0,.11-.05.18-.15.21ZM14.49,57.7c-.05.04-.09.13-.17.1-.07-.03-.02-.11-.02-.16,0-.02,0-.04,0-.07v-.06c.18.03.18.03.19.19ZM49.48,74.28c-.05.03-.09.11-.16.06-.07-.04-.02-.11-.02-.17,0-.02,0-.04,0-.07v-.06c.17.06.17.06.19.23ZM37.89,74.32c0-.07.02-.13.02-.2,0-.06,0-.09.04-.1.05-.02.09,0,.11.04.01.02.03.03.04.05,0,.13-.07.2-.22.21ZM37.07,75.64s.04.05.02.1l-.21.2s-.05,0-.07,0c-.03,0-.04-.05-.02-.1l.21-.2s.05,0,.07,0ZM34.13,65.91c-.04-.06-.15-.09-.06-.2h.27c0,.12-.08.18-.21.2ZM37.88,75.6c.07.1-.04.14-.09.2-.14.01-.19-.06-.19-.19.1,0,.19,0,.28-.01ZM23.46,61.94s.12.07.08.15c-.04.07-.11.03-.17.04-.02,0-.05,0-.07,0h-.06c.05-.17.05-.17.22-.2ZM18.67,57.88c-.07,0-.14,0-.2,0-.06,0-.09,0-.1-.03,0-.05.01-.09.06-.12.02-.01.03-.03.05-.05.17.02.17.02.19.19ZM28.76,55.7s.03.02.03.03c.02.07-.09.18-.17.17-.01,0-.02-.02-.03-.03-.02-.07.09-.19.18-.17ZM26.41,65.51c-.05-.01-.04-.09.03-.15.02-.02.03-.04.05-.05.02,0,.05,0,.07,0,.03,0,.04.05.02.1,0,.02-.03.03-.05.05-.03.05-.07.07-.12.05ZM39.98,75c.08-.02.18.08.15.16,0,.01-.02.03-.04.03-.02,0-.05,0-.07,0-.03-.02-.06-.06-.09-.09,0-.01,0-.04,0-.07.01-.01.03-.03.04-.03ZM58.92,64.48c0-.14.07-.19.21-.16,0,.14-.07.19-.21.16ZM55.43,64.67c-.14-.02-.2-.1-.19-.23.14.02.2.1.19.23ZM19.52,59.89c-.01-.05,0-.09.04-.1.02,0,.06,0,.06,0,.01.05,0,.09-.04.1-.02,0-.06,0-.06,0ZM19.24,58.14c.01.05,0,.09-.04.1-.02,0-.06,0-.06,0-.01-.05,0-.09.04-.1.02,0,.06,0,.06,0ZM32.39,59.63s-.04,0-.06,0c-.03,0-.04-.04-.02-.09,0,0,.04,0,.06,0,.03,0,.04.04.02.1ZM34.29,70.98s.06,0,.06,0c.01.05,0,.09-.04.1-.02,0-.04,0-.07,0,0-.05,0-.09.04-.1ZM37.22,69.07s.06,0,.06,0c.01.05,0,.09-.04.1-.02,0-.04,0-.07,0,0-.05,0-.09.04-.1ZM37.07,70.65c.06-.02.09,0,.1.03,0,.02,0,.06,0,.06-.06.02-.09,0-.1-.03,0-.02,0-.06,0-.06ZM48.43,75.38s0-.04,0-.06c0-.03.05-.04.1-.01,0,0,0,.04,0,.06-.01.03-.05.04-.1.01ZM37.18,73.19s0,.04,0,.06c-.01.03-.05.05-.1.04,0,0,0-.04,0-.06.01-.03.05-.05.1-.04ZM47.14,73.48s.04,0,.06.01c.03.01.04.05.03.1,0,0-.04,0-.06,0-.03-.02-.04-.05-.03-.1ZM53.55,68.49s0-.06,0-.06c.05,0,.09.01.1.05,0,.02,0,.04,0,.07-.06,0-.09-.01-.1-.05ZM37.67,76.1s.04,0,.06,0c.03,0,.04.04.02.1,0,0-.04,0-.06,0-.03,0-.04-.04-.02-.1ZM55.43,68.55c.01.06,0,.09-.03.09-.02,0-.06-.01-.06-.01-.01-.06,0-.09.03-.09.02,0,.06.01.06.01ZM56.12,66.84s0-.06,0-.06c.05,0,.09.01.1.05,0,.02,0,.04,0,.07-.06,0-.09-.01-.1-.05ZM27.97,60.14s0-.04,0-.06c.01-.03.05-.05.1-.04,0,0,0,.04,0,.06-.01.03-.05.05-.1.04ZM41.61,74.04s0,.04,0,.06c-.01.03-.05.05-.1.04,0,0,0-.04,0-.06.01-.03.05-.05.1-.04ZM24.53,63.55s-.04,0-.06,0c-.03,0-.04-.04-.02-.1,0,0,.04,0,.06,0,.03,0,.04.04.02.1Z"/>
        <path d="M3.54,46.52c-.11.1-.21.2-.31.3-.08,0-.15.02-.2.02-.12.12-.23.22-.31.3-.01.12-.03.21-.04.29.04.04.07.07.1.1,0,.14-.04.28,0,.43.05.02.11.04.16.06.05-.05.08-.08.12-.11h.28s.05.02.05.02c.11.08.13.08.23-.02.05-.05.1-.1.13-.14.01-.11.02-.2.04-.29-.1-.1-.18-.19-.28-.28-.01-.01,0-.04,0-.09.2-.02.41-.01.61-.04.1-.1.21-.2.31-.3.08,0,.15-.02.21-.02.07-.1.22-.15.21-.29l-.18-.18c-.24.01-.47.02-.71.04-.06.06-.13.13-.2.2l-.21.02ZM3.08,47.41c0-.14.08-.2.21-.21,0,.14-.08.2-.21.21Z"/>
        <path d="M17.68,63.21c-.08.08-.15.15-.22.21-.09.02-.12-.04-.18-.07-.06-.02-.13,0-.21-.01-.12-.12-.24-.24-.37-.37-.04-.12.15-.18.12-.3l-.09-.09c-.07,0-.14,0-.21,0-.13-.14-.12-.14.01-.28.04-.03.07-.07.14-.13.11.01.25.02.35.03.11-.11.18-.18.27-.26.05.02.11.05.16.07.03.15,0,.29,0,.42h.2s.06.06.07.07c-.01.25-.02.48-.03.7Z"/>
        <path d="M3.28,45.92c-.12-.12-.24-.24-.36-.36-.07,0-.14,0-.2,0l-.1-.09c-.14,0-.19.13-.29.19-.11.03-.21.04-.32,0,0-.02,0-.06,0-.07.18-.17.35-.34.55-.53.14,0,.3,0,.5,0,.11.07.21.21.35.34.05,0,.12,0,.2,0,.05.05.11.11.18.18.02.09.01.19-.02.28-.17,0-.33.02-.5.03Z"/>
        <path d="M6.85,47.98c-.02-.12-.03-.26.11-.4.03-.03.02-.11.03-.17.06,0,.11,0,.17,0,0-.06.01-.12.03-.18.03-.09.16-.17.21-.11.07.07.14.08.24.07.08,0,.1.07.16.09.06.01.14,0,.2.02.06.02.09.09.07.17l-.52.51c-.23,0-.46.01-.69.02Z"/>
        <path d="M31.91,73.24c-.25.02-.48.03-.71.05,0-.15.13-.19.23-.32.12.02.25.03.39.05.01-.15.02-.24.02-.34-.03-.03-.05-.07-.09-.1-.13,0-.27,0-.41.01-.04-.05-.11-.08-.08-.17.02,0,.03-.02.05-.02.24-.01.47-.02.72-.04.09-.05.18-.13.31-.12.08,0,.14-.13.24-.1l.09.09q-.01.09-.2.1c-.07.07-.14.13-.22.21-.06.12.13.16.07.29-.14.14-.29.28-.41.4Z"/>
        <path d="M46.55,80.37c-.08-.09-.15-.19-.24-.29,0-.08.02-.17.03-.28.05,0,.11,0,.18.01.09-.07.19-.15.3-.24,0-.05.01-.11.03-.2.03-.03.08-.07.13-.1.09-.07.14-.06.22.03l.05.06.08.11s0,.05,0,.07c-.06.06-.08.08-.14.13-.03.03-.06.06-.07.1-.02.08.06.12.09.18,0,.02,0,.05,0,.07-.08.07-.13.12-.21.2-.11-.03-.25-.07-.37-.11-.05.1.01.22-.09.27Z"/>
        <path d="M37.18,78.03l-.41-.42s0-.1.03-.13c.08-.09.17-.17.28-.27,0-.05.02-.12.04-.19q.18-.2.31-.23l.09.09c0,.1-.01.19-.02.29-.06.06-.14.12-.2.2-.02.02,0,.07,0,.11.24,0,.24,0,.26.19l-.37.36Z"/>
        <path d="M47.9,78.17l-.1.08-.02.2-.1.08c0,.07-.01.14-.02.2l-.11.07c-.14-.01-.18-.15-.25-.23-.02-.02-.02-.1,0-.12.09-.09.2-.16.29-.24,0-.17.02-.33.03-.49l-.09-.12.02-.28s.09,0,.11.01c.07.07.12.15.18.22-.03.13,0,.23.08.33v.28Z"/>
        <path d="M2.06,46.12c.27-.01.5-.03.74-.04.04.12.19.03.25.07,0,.11.01.2.02.28-.19.01-.35.03-.51.04-.04-.04-.07-.07-.1-.1h-.29s-.07.08-.15.14c-.06,0-.15,0-.24-.01-.01,0-.02-.02-.03-.04,0-.02,0-.05.01-.07.11-.1.21-.21.28-.28Z"/>
        <path d="M37.12,78.08c.26-.01.42-.02.6-.03.09-.09.2-.19.3-.29.01-.01.04-.01.08-.03.04.03.09.06.13.09,0,.15-.13.2-.21.3-.06,0-.13.02-.21.03-.09.09-.2.19-.29.28-.17.05-.33.03-.49.04-.01,0-.03-.02-.03-.02,0-.09,0-.18.01-.27.06-.06.11-.1.11-.1Z"/>
        <path d="M9.34,46.99c-.12.01-.19.02-.25.02-.04.04-.08.09-.11.09-.24.02-.46.03-.68.05-.05-.05-.08-.08-.12-.12.03-.06.06-.11.09-.16.15-.05.29-.03.43-.05.04-.03.07-.06.11-.1.06,0,.13-.01.21-.02.03-.03.06-.07.1-.09.05-.03.11-.01.1.02-.04.14.05.24.12.35Z"/>
        <path d="M28.44,71.28s.07-.06.12-.11c.22,0,.45,0,.68-.01,0,.02,0,.06-.02.1-.02.04-.07.08-.11.08-.12.02-.23.02-.35.02-.04.03-.07.06-.13.1-.19,0-.4.02-.6.03-.05.04-.08.07-.12.1h-.28c-.02-.09.05-.18.13-.18.13,0,.21-.09.32-.12.11-.03.23-.02.35-.02Z"/>
        <path d="M18.42,63.85s-.11-.07-.08-.15c.01-.03.05-.04.11-.04.02,0,.06,0,.07,0,.14-.15.29-.11.46-.1.05.05.11.11.16.16.09,0,.18,0,.22.03.07.07.16.06.25.06.03,0,.04.05.02.1-.07.07-.14.14-.21.2-.21.02-.21-.21-.37-.25-.19-.04-.41.01-.62,0Z"/>
        <path d="M7.85,43.55h-.21s-.27-.27-.27-.27c.04-.17.04-.17.21-.21l.37.37h.2s.18.18.18.18q-.04.17-.21.21l-.27-.27Z"/>
        <path d="M16.56,60.63c-.07.07-.14.14-.21.2-.15.02-.18-.12-.3-.19-.1.02-.24.04-.35.05-.05-.05-.08-.09-.12-.12,0-.06,0-.1.05-.1.28-.01.57-.03.84-.04.04,0,.08.04.1.08.02.03,0,.08,0,.12Z"/>
        <path d="M11.27,40.44l.21-.02.21-.2s.06,0,.08,0c.09.02.15.14.08.2-.08.08-.1.16-.1.25-.01.01-.03.04-.04.04-.16,0-.33.04-.48,0q-.1-.14.04-.27Z"/>
        <path d="M11.08,43.83c-.01-.1.04-.18.14-.2.16-.03.32-.03.46-.04.05.05.08.08.11.11,0,.08-.03.14-.09.17-.08.04-.18.03-.25.07-.06.03-.11.08-.18.07l-.18-.18Z"/>
        <path d="M21.83,67.7l-.09-.09c0-.09.01-.18.02-.29l.26-.02c.13.06.2.17.29.26.02.02.01.08.01.12l-.49.03Z"/>
        <path d="M.89,47.43c.07-.07.14-.13.22-.21.06,0,.13,0,.18,0,.07-.05.1-.13.19-.11.1.02.15.09.12.19-.01.04-.07.07-.1.1l-.21.02-.21.2q-.17-.02-.19-.18Z"/>
        <path d="M10.06,56.31l-.16.16c-.09,0-.19.02-.28,0-.04,0-.07-.05-.1-.08-.01-.11,0-.22.03-.34.06-.03.12-.06.18-.08.12.12.23.23.33.33Z"/>
        <path d="M17.8,60.07s0,.09-.03.12c-.04.06-.1.09-.18.09-.07,0-.14,0-.21,0-.03-.03-.06-.06-.1-.1,0-.06.01-.12.02-.19.01-.14.04-.16.22-.2l.27.27Z"/>
        <path d="M14.09,60.46l.11-.1h.2c.14-.01.16.01.18.18-.07.07-.14.13-.22.21-.08,0-.17,0-.27,0-.05-.07,0-.18,0-.28Z"/>
        <path d="M25.64,68.87c-.06.02-.1,0-.1-.02,0-.09.02-.17-.06-.24-.02-.02-.01-.08-.01-.12l.1-.1c.07,0,.14,0,.21-.01.08-.01.13.02.16.07.02.03,0,.08,0,.12l-.31.3Z"/>
        <path d="M12.37,41.86c.06,0,.13-.01.19-.02.04.04.07.07.1.1,0,.14-.08.21-.22.2-.03-.03-.06-.06-.1-.1-.06,0-.13.01-.19.02-.05-.05-.09-.1-.14-.14-.04-.03-.06-.06-.04-.11.01-.04.04-.04.1-.04.07,0,.14-.01.19-.02.04.04.07.07.11.11Z"/>
        <path d="M23.62,67.79c.01.15-.13.2-.18.28-.12.06-.23.03-.34.05l-.09-.09c0-.1.05-.18.14-.2.16-.03.32-.03.47-.04Z"/>
        <path d="M16.39,61.72c-.06,0-.13,0-.19,0-.05.04-.08.08-.11.11-.11.02-.17-.03-.19-.12-.02-.08.07-.11.12-.18.06,0,.13,0,.19,0,.05-.04.08-.08.11-.11.11-.02.17.03.19.12.02.08-.07.11-.12.18Z"/>
        <path d="M3.39,50.04s-.03-.03-.05-.04c-.04-.03-.06-.06-.04-.11.02-.07.07-.12.14-.14.09-.02.18-.01.27-.02.06.06.12.11.17.18.01.02,0,.07-.02.11l-.48.02Z"/>
        <path d="M6.82,45.37c.09,0,.18,0,.29-.01,0,.06,0,.12,0,.19.03.1.22.12.17.29l-.1.1q-.19-.03-.18-.26c-.03-.12-.22-.14-.18-.31Z"/>
        <path d="M9.13,45.15s-.07.07-.11.11c-.06,0-.13,0-.19,0-.04.04-.08.08-.11.11-.14.01-.2-.05-.19-.18.04-.03.07-.07.11-.11.06,0,.13,0,.19,0,.04-.04.08-.08.11-.11.14-.01.2.05.19.18Z"/>
        <path d="M20.96,65.35l-.16.16h-.28c-.16-.11-.16-.14.02-.28l.28-.02.14.14Z"/>
        <path d="M19.11,61.47s-.08.08-.12.12c-.06,0-.13,0-.2,0-.14,0-.16-.02-.18-.19.07,0,.14,0,.2,0,.06-.06.12-.1.16-.16.04-.04.07-.07.12-.06.04,0,.04.04.03.1,0,.07,0,.13,0,.19Z"/>
        <path d="M9.05,42.22c-.07,0-.14,0-.2,0l-.12.11c-.06,0-.13,0-.2,0-.06,0-.09,0-.1-.03,0-.05.02-.08.06-.12.06-.04.1-.1.17-.16.08,0,.17,0,.26,0,.04,0,.08.03.1.07.02.03.01.08.02.13Z"/>
        <path d="M30.9,73.21c-.09-.09-.16-.16-.27-.27-.02-.02,0-.07.01-.11h.28s.06.04.11.1c0,.06-.02.15-.04.24,0,.04-.04.05-.1.04Z"/>
        <path d="M26.71,70.59l-.1.1c-.17.03-.21-.12-.28-.21-.02-.09.07-.12.11-.17.08-.02.13.01.17.06.05.06.14.11.11.22Z"/>
        <path d="M5.56,45.05c-.06-.06-.1-.11-.15-.15-.04-.03-.06-.06-.04-.11.01-.04.04-.04.1-.04.07,0,.14-.01.19-.02.06.06.1.11.15.15.04.03.06.06.04.11-.01.04-.04.04-.1.04-.07,0-.14.01-.19.02Z"/>
        <path d="M32.77,73.51c-.14.01-.2-.05-.19-.19.03-.03.07-.07.12-.11.05,0,.12,0,.19,0,.14,0,.16.02.19.19-.07,0-.14,0-.2,0-.04.04-.08.07-.11.11Z"/>
        <path d="M7.28,44.66l.09.09c-.05.17-.07.2-.21.21-.07,0-.14.01-.19.02-.04-.04-.08-.07-.1-.1,0-.01,0-.04,0-.07.01-.03.05-.04.11-.04.04,0,.09-.02.13-.03.02,0,.03-.04.05-.05.04-.01.08-.02.13-.03Z"/>
        <path d="M7.74,44.49s-.09-.09-.14-.13c-.04-.03-.06-.06-.05-.11.01-.04.04-.05.1-.05.07,0,.14,0,.2-.01.04.04.07.07.1.1-.04.17-.04.17-.21.21Z"/>
        <path d="M30.82,72.01c-.05.1-.08.15-.11.2-.13.05-.24.03-.35.04-.03-.05-.11-.07-.08-.16.01-.03.05-.04.1-.04.04,0,.09,0,.13,0,.09-.01.18-.02.3-.04Z"/>
        <path d="M5.92,45.41s.12.07.09.16c-.03.1-.11.17-.21.14-.07-.03-.13-.11-.18-.17-.01-.02.01-.07.02-.1h.28Z"/>
        <path d="M6.01,46.97c0,.16-.15.22-.25.3-.09.03-.11-.05-.16-.08,0-.04,0-.09.03-.13.04-.06.1-.09.18-.09.07,0,.14,0,.21,0Z"/>
        <path d="M16.84,61.1s.07-.07.11-.1c.17.03.17.03.17.19-.05.05-.11.1-.15.15-.04.04-.07.07-.12.05-.03,0-.03-.05-.03-.1,0-.07.01-.13.02-.19Z"/>
        <path d="M15.55,62.34c-.14.01-.19-.06-.19-.18.04-.04.07-.07.12-.11.06,0,.13,0,.2,0,.06,0,.09,0,.09.04,0,.05-.02.08-.06.12-.06.04-.11.1-.16.15Z"/>
        <path d="M18.06,63.49c.04.06.15.08.06.19h-.27s-.15-.07-.06-.18h.27Z"/>
        <path d="M6.49,43.13l.1-.1c.17.02.17.02.19.18l-.1.1q-.16-.02-.19-.18Z"/>
        <path d="M4.15,51.23l-.1.1c-.17-.02-.17-.02-.19-.18l.1-.1q.17.02.19.18Z"/>
        <path d="M7.17,53.9c-.04.08-.07.14-.09.18-.13.07-.24.02-.37.07.04-.08.07-.14.09-.18.13-.07.24-.02.37-.07Z"/>
        <path d="M32.83,71.45c.14-.01.19.06.19.19-.07,0-.14,0-.21,0-.06,0-.09,0-.1-.03,0-.05.01-.09.06-.12.02-.01.03-.03.05-.05Z"/>
        <path d="M9.36,46.21c-.1,0-.19,0-.28.01-.07-.1.04-.14.09-.2.14-.01.19.06.19.19Z"/>
        <path d="M3.57,44.85c.14-.01.2.05.19.2-.07,0-.13,0-.2,0-.06,0-.09,0-.1-.03,0-.05.01-.09.06-.12.02-.01.03-.03.05-.05Z"/>
        <path d="M23.55,64.68c-.14.01-.2-.05-.19-.2.07,0,.13,0,.2,0,.06,0,.09,0,.1.03,0,.05-.01.09-.06.12-.02.01-.03.03-.05.05Z"/>
        <path d="M24.29,68.16c-.11.03-.15-.05-.22-.11-.05-.04-.08-.09-.06-.17.11-.03.15.06.22.11.05.04.08.1.06.17Z"/>
        <path d="M10.77,41.11c.17.01.17.01.19.18-.07,0-.13.01-.2.02-.06,0-.09,0-.1-.03-.01-.05,0-.09.06-.12.02-.01.03-.03.05-.05Z"/>
        <path d="M30.84,71.27c0-.15.08-.22.22-.22.03.05.11.07.09.16-.01.04-.05.04-.1.04-.07,0-.13.01-.2.02Z"/>
        <path d="M8.94,42.81s-.03-.02-.03-.03c-.01-.08.11-.19.18-.17.01,0,.03.02.03.03,0,.02,0,.05,0,.06-.03.04-.06.07-.1.1-.02.01-.04,0-.07,0Z"/>
        <path d="M8.5,44.84c.07-.06.14-.08.15-.03.01.05,0,.09-.06.12-.02.01-.03.04-.05.05-.05.02-.09.01-.1-.02,0-.02,0-.05,0-.07,0-.02.03-.03.05-.05Z"/>
        <path d="M15.73,62.63c0,.14-.08.2-.22.21,0-.14.08-.2.22-.21Z"/>
        <path d="M16.05,62.95s-.06-.06-.04-.11c.02-.05.09-.05.15.01.02.01.04.03.04.05,0,.02,0,.05,0,.07-.01.03-.05.05-.1.03-.02,0-.03-.03-.05-.04Z"/>
        <path d="M17.54,61.71c-.06-.06-.06-.13,0-.15.05-.02.09,0,.11.04.01.02.04.03.04.05.01.05,0,.09-.03.1-.02,0-.05,0-.07,0-.02,0-.03-.03-.05-.04Z"/>
        <path d="M18.63,62.48c.14-.01.2.05.19.19-.14.01-.2-.05-.19-.19Z"/>
        <path d="M32.1,71.85c-.02-.07.09-.19.18-.17.01,0,.03.02.03.03.02.07-.09.18-.17.17-.01,0-.02-.02-.03-.03Z"/>
        <path d="M14.79,41.34c-.14.01-.2-.05-.19-.19.14-.01.2.05.19.19Z"/>
        <path d="M6.3,53.17c-.06-.06-.06-.13,0-.15.05-.02.09,0,.11.04.01.02.04.03.04.05.01.05,0,.09-.03.1-.02,0-.05,0-.07,0-.02,0-.03-.03-.05-.04Z"/>
        <path d="M7.49,54.58c-.14.01-.2-.05-.19-.19.14-.01.2.05.19.19Z"/>
        <path d="M10.6,43.19s-.06-.06-.04-.11c.02-.05.09-.05.15.01.01.01.04.03.04.05,0,.02,0,.05,0,.07-.01.03-.05.05-.1.03-.02,0-.03-.03-.05-.04Z"/>
        <path d="M9.37,44.28c0,.14-.08.2-.21.21,0-.14.08-.2.21-.21Z"/>
        <path d="M12.98,40.35c0,.14-.08.2-.22.21,0-.14.08-.2.22-.21Z"/>
        <path d="M6.45,46.85s.06,0,.06,0c.01.05,0,.09-.04.1-.02,0-.06,0-.06,0-.01-.05,0-.09.04-.1Z"/>
        <path d="M10.08,39.1s0-.06,0-.06c.06-.02.09,0,.1.03,0,.02,0,.06,0,.06-.06.02-.09,0-.1-.02Z"/>
        <path d="M25.05,67.83s.06,0,.06,0c.01.05,0,.09-.04.1-.02,0-.06,0-.06,0-.01-.05,0-.09.04-.1Z"/>
        <path d="M7.06,43s.04.04.02.1c0,0-.04,0-.06,0-.03,0-.04-.04-.02-.09,0,0,.04,0,.06,0Z"/>
        <path d="M27.31,67.32s.04.04.02.1c0,0-.04,0-.06,0-.03,0-.04-.04-.02-.09,0,0,.04,0,.06,0Z"/>
        <path d="M1.63,49.05s-.06,0-.06,0c-.01-.05,0-.09.04-.1.02,0,.06,0,.06,0,.01.05,0,.09-.04.1Z"/>
        <path d="M50.71,75.18h-.06s-.02-.09,0-.11c.02-.06.07-.05.08.01,0,.03,0,.07-.02.1Z"/>
        <path d="M9.42,45.72s-.04-.04-.02-.1c0,0,.04,0,.06,0,.03,0,.04.04.02.09,0,0-.04,0-.06,0Z"/>
        <path d="M36.86,78.95v-.06s.08-.03.11-.02c.06.02.06.06,0,.08-.03.01-.07,0-.1,0Z"/>
        <path d="M46.57,80.52h-.06s-.02-.09,0-.11c.02-.06.07-.05.08.01,0,.03,0,.07-.02.1Z"/>
        <path d="M30.43,71.54s-.05.05-.1.04c0,0,0-.04,0-.06.01-.03.05-.05.1-.04,0,0,0,.04,0,.06Z"/>
        <path d="M11.73,53.24c-.1,0-.19,0-.28.01-.07-.1.04-.14.09-.2.14-.01.19.06.19.19Z"/>
        <path d="M28.22,64.2c-.06-.06-.06-.13,0-.15.05-.02.09,0,.11.04,0,.02.04.03.04.05.01.05,0,.09-.03.1-.02,0-.05,0-.07,0-.02,0-.03-.03-.05-.04Z"/>
      </g>
    </g>
  </g>
</svg>