<?xml version="1.0" encoding="UTF-8"?>
<svg id="Layer_2" data-name="Layer 2" xmlns="http://www.w3.org/2000/svg" viewBox="0 0 437.7 369.8">
  <defs>
    <style>
      .cls-1 {
        fill: #e9e8f7;
      }

      .cls-2 {
        fill: #120b3a;
      }

      .cls-3 {
        fill: #433e6d;
      }
    </style>
  </defs>
  <g id="_Ñëîé_1" data-name="Ñëîé 1">
    <g>
      <g>
        <path class="cls-3" d="M60.75,354.39c13.97.96,27.77,4.15,41.73,5.48,21.8,2.07,43.65,3.61,65.51,4.99,17.88,1.13,35.95.52,53.66,2.81,27.41,3.54,54.29,3.06,80.93-4.42,12.61-3.54,24.93-8.51,37.75-10.84,24.71-4.49,47.12-14.17,67.69-27.97,24.37-16.34,34.31-42.43,27.68-71.25-1.52-6.61-3.98-14.22-8.59-18.7-21.84-21.21-32.19-49.49-43.89-75.82-13.06-29.4-15.4-62.47-11.39-95.14,1.57-12.78.16-15.43-11.63-21.79.04.07.08.14.11.21-11.02-10.01-23.6-13.71-38.67-12.59-10.74.8-21.75-1.56-32.59-2.9-10.01-1.24-19.97-2.96-29.94-4.52-11.63-1.83-23.63-2.47-34.81-5.81-30.56-9.12-61.38-14.83-93.42-13.16-7.39.38-14.89-.8-22.31-1.56-18.03-1.85-36.08-3.47-52.59,6.26-4.76,2.8-10.36,6.34-12.54,10.97-7.83,16.61-15.38,33.3-17.62,52.1-2.48,20.87-6.21,41.66-10.69,62.2-6.48,29.67-12.29,59.34-12.78,89.85-.18,11.42-.28,22.9-1.61,34.22-1.97,16.88.23,33.09,3.86,49.58,4.34,19.73,32.71,46.2,56.15,47.81Z"/>
        <path class="cls-2" d="M360.2,41.73c11.79,6.36,13.2,9.01,11.63,21.79-4.01,32.67-1.67,65.74,11.39,95.14,11.7,26.33,22.05,54.61,43.89,75.82,4.62,4.48,7.07,12.09,8.59,18.7,6.62,28.83-3.31,54.91-27.68,71.25-20.57,13.79-42.98,23.48-67.69,27.97-12.82,2.33-25.14,7.3-37.75,10.84-26.64,7.48-53.52,7.96-80.93,4.42-17.71-2.29-35.78-1.68-53.66-2.81-21.85-1.38-43.71-2.92-65.51-4.99-13.96-1.33-27.76-4.52-41.73-5.48-23.45-1.61-51.82-28.08-56.15-47.81-3.62-16.48-5.83-32.7-3.86-49.58,1.32-11.32,1.42-22.8,1.61-34.22.49-30.5,6.31-60.17,12.78-89.85,4.48-20.54,8.2-41.33,10.69-62.2,2.24-18.8,9.8-35.49,17.62-52.1,2.18-4.63,7.78-8.16,12.54-10.97C72.49-2.07,90.54-.45,108.57,1.4c7.42.76,14.92,1.94,22.31,1.56,32.04-1.67,62.87,4.04,93.42,13.16,11.19,3.34,23.18,3.98,34.81,5.81,9.97,1.56,19.93,3.29,29.94,4.52,10.84,1.34,21.85,3.69,32.59,2.9,15.08-1.12,27.67,2.58,38.7,12.62.07,3.8-.5,7.73.37,11.3.56,2.27,3.26,4.02,5,6.01-.09-2.43.38-5.06-.4-7.24-1.28-3.58-3.36-6.88-5.11-10.3ZM18.58,157.09c-.87.96-2.25,1.8-2.49,2.9-.33,1.51.2,3.21.36,4.83.59-1.33,1.36-2.62,1.71-4.01.31-1.25.16-2.61.19-3.95.56-1.56,1.12-3.12,1.68-4.68l-1.5-.18c.01,1.7.03,3.4.04,5.1ZM371.93,309.53c4.55-4.05,9.31-7.9,13.62-12.19,14.93-14.88,15.14-32.43,8.71-50.99-.52-1.51-1.95-2.71-2.96-4.06-.66,1.53-1.51,3-1.94,4.59-2.71,10.02-5.26,20.08-8,30.09-2.99,10.91-6.13,21.78-9.22,32.66l-.2-.1ZM369.25,328.01c2.9-1.83,6.11-3.31,8.66-5.54,11.52-10.08,22.77-20.46,34.26-30.57,17.62-15.49,19.21-39.69,4.73-58.69-9.54-12.51-18.72-25.51-26.32-39.25-14.98-27.1-21.12-57.57-30.59-86.74-1.8-5.55-.35-12.13-.58-18.23-.34-9.08-.07-18.28-1.54-27.18-.89-5.42-3.57-11.35-7.33-15.2-2.65-2.72-8.48-2.33-12.89-3.32.83,2.6,1.63,5.21,2.49,7.79,7.72,23.15,19.85,45.5,13.74,71.26-3.58,15.13,2.68,27.25,10.68,39.21,10.24,15.32,20.24,30.66,24.28,49.28,2.39,11.01,6.88,21.63,11.16,32.14,10.86,26.67,7.17,43.87-13.49,64.37-6.35,6.3-11.42,13.9-17.08,20.89-.58.42-1.16.84-1.74,1.26.52-.49,1.04-.99,1.56-1.48ZM298.5,344.13c34.78,1.19,55.13-16.9,66.38-43.11,8.63-20.11,17.84-40.78,18.41-64.07.33-13.24-2.84-23.26-10.02-34.08-9.6-14.47-19.5-29.86-24-46.3-4.49-16.37-11.41-31.11-18.43-46.13-3.35-7.16-8.13-14.06-9.57-21.59-1.67-8.71-2.34-18.56.07-26.89,3.58-12.33,2.45-16.21-10.76-17.8-3.48-.42-7.02-.55-10.53-.57-29.47-.14-58.94.03-87.8-7.5-4.63-1.21-9.59-1.18-14.41-1.59-26.24-2.26-52.47-4.77-78.75-6.53-7.26-.49-15.69-.65-21.82,2.48-15.16,7.74-29.42,17.29-43.74,26.56-2.67,1.73-5.13,5.36-5.7,8.48-3.53,19.39-8.92,38.65-5.76,58.7,4.7,29.79-.5,58.54-8.3,87.22-2.97,10.91-3.85,22.41-5.25,33.7-2.04,16.52-3.67,33.09-5.52,49.63-.53,4.78-1.62,9.53-1.72,14.32-.13,6.24,2.88,10.64,8.83,13.35,27.32,12.47,55.31,20.25,85.61,13.15,33.17-7.77,66.25-5.03,99.57-.34,28.67,4.04,57.61,6.23,83.2,8.9ZM190.39,358.09c21.4-1.42,38.04-2.48,54.68-3.68,1.95-.14,3.85-1.08,5.77-1.65-2.07-.59-4.11-1.44-6.22-1.72-10.44-1.36-21.05-1.86-31.32-3.98-25.37-5.24-50.66-4.27-76.01-.56-2.86.42-5.63,1.49-8.44,2.27,2.87,1.51,5.63,4.05,8.62,4.38,19.14,2.06,38.33,3.63,52.92,4.95ZM255.87,38.38c.04-.24.09-.48.13-.73,1.31,0,2.66.2,3.93-.04,2.29-.43,4.54-1.12,6.81-1.71-2.22-1.16-4.32-2.78-6.68-3.39-9.31-2.43-18.62-5.04-28.08-6.66-20.26-3.46-40.63-6.29-60.94-9.51-6.01-.96-9.34,2.27-13.89,5.58-3.1,2.25-10.42-1.63-15.92-2.17-1.64-.16-3.48,1.72-5.23,2.66,1.88.72,3.71,1.91,5.64,2.08,20.83,1.81,41.75,2.89,62.5,5.34,17.33,2.04,34.48,5.64,51.72,8.55ZM349.24,106.73c.58-.26,1.16-.52,1.74-.79-3.63-12.45-7.03-24.98-11.01-37.32-1.51-4.68-4.38-8.93-6.63-13.37-2.62,5.01-6.65,9.81-7.48,15.1-.98,6.24-.21,13.23,1.67,19.33,2.29,7.46,6.32,14.43,9.98,21.4,2.67,5.09,5.98,9.85,9,14.76.91-6.37,1.83-12.74,2.74-19.11ZM114.29,8.69c-23.54,5.33-44.64,13.18-62.1,28.89-1.44,1.29-2.09,3.46-3.1,5.22,1.92-.46,4.04-.53,5.72-1.43,19.32-10.31,38.5-20.86,60.74-23.87,4.31-.58,8.4-2.8,12.59-4.27-4.82-1.58-9.64-3.16-13.85-4.55ZM8.89,217.21c.21.03.41.06.62.09,0,6.1-.08,12.2.04,18.3.04,2.04.6,4.07.93,6.11,1.3-1.5,2.88-2.83,3.87-4.52,11-18.71,4.99-38.09,2.1-57.33-.17-1.12-1.19-2.11-1.81-3.16-.57,1.4-1.49,2.77-1.66,4.22-1.44,12.09-2.74,24.19-4.09,36.29ZM36.69,158.09c-.86-8.76-1.37-14.84-2.12-20.9-.13-1.02-1.28-1.91-1.96-2.85-.6.57-1.59,1.06-1.74,1.72-3.95,18.66-10.7,37.09-5.01,56.58.3,1.04,1.4,1.84,2.13,2.75,1-1.25,2.65-2.38,2.9-3.77,2.21-11.98,4.17-24.01,5.78-33.53ZM424.38,295.41c-1.79-.34-3.56-1.2-4.13-.7-10.12,8.93-20.13,17.98-30.02,27.17-.97.91-.95,2.89-1.39,4.37,1.57-.53,3.46-.66,4.66-1.64,9.36-7.69,18.63-15.48,27.79-23.4,1.22-1.05,1.65-3.02,3.09-5.79ZM84.15,6.09c-15.98.08-32.8,9.9-36.58,20.67-.42,1.19-.47,2.51-.69,3.78,1.42-.4,3-.54,4.25-1.25,10.95-6.14,21.85-12.37,32.74-18.61,1.44-.82,2.78-1.81,4.16-2.72-1.65-.8-3.3-1.59-3.89-1.88ZM359.09,164.54c-.5,1.13-1.49,2.38-1.2,2.9,5.92,10.61,11.98,21.15,18.09,31.65.28.48,1.43.46,2.17.67.11-1.22.75-2.72.26-3.6-5.5-9.87-11.17-19.66-16.85-29.44-.4-.7-1.26-1.13-2.48-2.18ZM7.44,276.32c.71,1.71,1.42,3.41,2.13,5.12.77-1.48,2.03-2.9,2.21-4.45.65-5.61.94-11.27,1.37-16.91-1.86,5.28-3.71,10.55-5.71,16.24ZM76.03,344.71c-1.07.15-2.67.38-4.26.6,1.46.58,2.89,1.51,4.39,1.68,4.1.44,8.23.55,12.35.79-3.96-.98-7.92-1.95-12.48-3.07ZM260.8,361.92c2.29-.27,4.4-.51,6.51-.76-1.81-.27-3.62-.77-5.43-.75-1.99.02-3.97.52-5.96.81,1.67.24,3.34.48,4.87.7ZM30.57,110.09c-.4-.96-.82-1.96-1.23-2.96-.98,2.25-2.17,4.44-2.84,6.78-.27.94.59,2.21.93,3.33,1-2.29,2.01-4.57,3.14-7.15ZM150.35,8.26c-1.34.56-2.79,1.18-4.25,1.79,1.13.42,2.29,1.23,3.39,1.16,1.57-.1,3.1-.85,4.64-1.32-1.12-.48-2.24-.96-3.78-1.63ZM21.99,140.55c.2-.34.39-.68.59-1.03-.38,0-.75,0-1.13-.01.18.35.36.69.54,1.04ZM24.92,128.73l-.56.16.3.75.26-.91ZM35.79,78.56c-.17-.37-.34-.74-.51-1.11-.25.31-.66.61-.7.95-.04.34.3.72.47,1.09.25-.31.49-.62.74-.92ZM135.07,340.27h1.16c-.35-.32-.7-.64-1.05-.96-.04.3-.07.61-.11.96Z"/>
      </g>
      <path class="cls-1" d="M198.99,97.41c1.96.3,3.16,2.37,4.21,3.89,4.11,5.92,8.07,11.71,12.83,17.09,6.27,7.09,12.89,13.86,19.59,20.55,6.42,6.42,13.35,12.53,18.35,20.18,3.28,5.02,2.41,9.98-3.05,12.49-8.38,3.86-13.03,11.39-19.27,17.35-6.61,6.31-13.02,12.81-19.47,19.28-2.4,2.41-1.61,4.26.76,6.44,3.48,3.21,6.96,6.43,10.4,9.68,5.18,4.9,10.38,9.79,15.56,14.69,6,5.69,12,11.41,17.88,17.22,2.94,2.9,1.79,7.73-.54,10.62-2.54,3.14-6.2,3.9-9.65,1.72-4.36-2.76-8.19-6.89-12.02-10.34-7.2-6.5-13.81-13.61-20.33-20.78-3.23-3.55-6.35-7.23-9.71-10.66-1.88-1.92-5.12-5.3-8.09-3.62-.67.38-1.22.93-1.76,1.48-5.37,5.43-10.74,10.87-16.17,16.24-6.66,6.58-13.59,12.91-20.07,19.67-2.48,2.59-4.65,5.46-6.85,8.29-1.97,2.53-3.78,5.6-6.8,7-2.74,1.27-6.82,1.29-9.08-.95-4.6-4.56-4.59-9.59-.35-13.77,14.52-14.31,28.53-29.15,43.48-43.02,1.92-1.78,3.8-3.6,5.7-5.4.52-.49,1.04-.99,1.38-1.61.47-.86.41-1.98-.06-2.83-.42-.76-1.06-1.36-1.69-1.96-3.9-3.68-7.77-7.39-11.63-11.11-5.55-5.37-11.11-10.73-16.61-16.15-5.18-5.11-10.22-10.38-14.98-15.87-2.98-3.43-2.06-7.17,1.11-11.58,11.11-15.49,26.71-26.42,40.25-39.56,2.91-2.82,5.75-5.72,8.52-8.68,1.99-2.14,4.73-6.52,8.18-5.99ZM236.02,163.1c.04-.93-.37-1.87-1.22-2.83-4.31-4.88-8.48-9.89-12.82-14.75-7.45-8.31-15.04-16.49-22.75-24.55-1.06-1.11-2.79-1.74-4.23-1.07-.8.37-1.46.99-2.1,1.61-6.72,6.43-13.46,12.84-20.08,19.39-4.79,4.73-9.53,9.52-14.02,14.53-1.38,1.54-2.48,3.74-1.12,5.65.51.72,1.22,1.27,1.91,1.81,6.31,5.01,11.88,10.92,17.62,16.55,6.07,5.95,12.13,11.91,18.2,17.86.4.39.81.79,1.3,1.05,1.07.56,2.33.08,3.21-.62,12.34-9.75,23.73-20.88,34.78-32.06.84-.85,1.27-1.71,1.31-2.57Z"/>
    </g>
  </g>
</svg>