<?xml version="1.0" encoding="UTF-8"?>
<svg id="Layer_2" data-name="Layer 2" xmlns="http://www.w3.org/2000/svg" viewBox="0 0 338.62 392.96">
  <defs>
    <style>
      .cls-1 {
        fill: #e9e8f7;
      }

      .cls-2 {
        fill: #120b3a;
      }

      .cls-3 {
        fill: #433e6d;
      }
    </style>
  </defs>
  <g id="_Ñëîé_1" data-name="Ñëîé 1">
    <g>
      <g>
        <path class="cls-3" d="M48.92,382.56c11.66,1.56,23.12,4.7,34.79,6.04,13.56,1.56,27.38,3.55,40.85,2.48,26.43-2.1,52.58-6.97,79.23-1.44,10.94,2.27,22.34,2.28,33.53,3.32.05-.64.09-1.28.14-1.92,4.42,0,8.86-.29,13.26.05,15.07,1.17,26.49-5.52,36.27-16.17,6.97-7.59,15.1-14.33,20.97-22.68,12.93-18.39,27.08-36.35,29.23-60.16,3.07-34,1.58-67.52-8.1-100.52-4.4-15.01-8.46-30.21-11.31-45.57-4.91-26.55-8.25-53.4-13.22-79.94-3.63-19.36-17.07-31.82-34.21-39.39-16.6-7.33-34.11-12.6-51.21-18.82C195.49-.76,170.67-.49,146.27.46c-15.96.62-31.75,6.06-47.59,9.43-11.06,2.35-22.2,4.45-33.09,7.41-16.61,4.52-27.88,14.6-34.84,31.03C14.73,86.14,8.88,125.45,7.67,166.22c-1.38,46.63-5.43,93.18-7.54,139.81-.55,12.12.55,24.64,3.13,36.49,4.75,21.85,23.45,37.07,45.66,40.03Z"/>
        <path class="cls-2" d="M237.33,392.96c-11.19-1.04-22.59-1.05-33.53-3.32-26.65-5.53-52.81-.66-79.23,1.44-13.48,1.07-27.3-.92-40.85-2.48-11.67-1.34-23.13-4.48-34.79-6.04-22.2-2.96-40.9-18.18-45.66-40.03-2.58-11.85-3.68-24.38-3.13-36.49,2.11-46.62,6.16-93.17,7.54-139.81,1.2-40.77,7.05-80.08,23.06-117.89,6.96-16.43,18.23-26.51,34.84-31.03,10.9-2.97,22.03-5.06,33.09-7.41,15.84-3.37,31.63-8.81,47.59-9.43,24.4-.95,49.22-1.22,72.88,7.37,17.1,6.21,34.6,11.49,51.21,18.82,17.14,7.57,30.58,20.03,34.21,39.39,4.97,26.54,8.31,53.39,13.22,79.94,2.84,15.36,6.91,30.56,11.31,45.57,9.67,33,11.17,66.52,8.1,100.52-2.15,23.81-16.29,41.78-29.23,60.16-5.87,8.34-14,15.08-20.97,22.68-9.78,10.65-21.2,17.35-36.27,16.18-4.39-.34-8.84-.05-13.26-.05-.05.64-.09,1.28-.14,1.92ZM310.5,335.47s.27.24.25.23c-1.2.99-2.4,1.99-3.6,2.98-11.54,14.18-27.71,19.48-44.65,23.3-3.82.86-7.62,1.99-11.5,2.42-24.74,2.74-48.6,11.03-74.1,9.61-17.49-.98-35.2.97-52.75,2.36-15.02,1.19-29.17-.14-42.79-7.41-4.84-2.58-11.22-3.76-16.7-3.3-8.72.74-17.27,3.39-25.92,5.24-2.02-.97-4.05-1.94-6.08-2.89l-.38-.25.58.26c2.04.88,4.08,1.77,6.12,2.65,25.33,4.91,50.65,9.85,75.99,14.69,1.39.26,2.92-.24,4.39-.42,32.22-4.13,64.13-6.69,96.79-.6,15.71,2.93,34.15,1.53,49.04-4.06,18.83-7.08,32.11-23.52,41.69-41.84,1.2-.99,2.4-1.98,3.6-2.96ZM233.43,31.08c.96,1.13,1.92,2.27,2.88,3.4,5.96,4.19,12.11,8.14,17.83,12.64,7.95,6.25,16.25,12.27,23.18,19.55,12.17,12.78,16.34,29.89,22.64,45.79.66,1.68,1.95,3.11,2.94,4.66.39-1.78,1.46-3.73,1.06-5.32-4.48-18.06-9.05-36.1-13.89-54.06-2.34-8.67-8.42-14.06-16.67-17.36-4.09-1.63-8.02-3.72-11.91-5.82q-12.25-6.64-22.53.05c-.71.46-1.93.12-2.9.14-.95-1.15-1.91-2.3-2.86-3.44-.31-.23-.63-.46-.94-.69.39.15.78.31,1.17.47ZM44.86,87.79c.62-2.34,1.24-4.68,1.87-7.02,5.27-6.76,10.5-13.55,15.81-20.27,6.92-8.77,13.81-17.55,20.87-26.2,3.71-4.55,7.75-8.82,11.65-13.22-5.74,2.41-11.85,4.24-17.11,7.44-3.54,2.16-6.62,5.87-8.65,9.58-7.73,14.15-14.95,28.58-22.33,42.94-.61,2.21-1.22,4.42-1.84,6.63l-.73.08s.45.06.45.06ZM277.63,350.42c-.45.06-.96.02-1.34.22-.25.14-.31.63-.45.97.52-.49,1.04-.97,1.56-1.45l.23.26ZM34.78,103.85c1.33-1.4,2.65-2.81,3.95-4.24.12-.77.24-1.54.36-2.31-.02.86-.05,1.72-.07,2.58-1.45,1.4-2.89,2.8-4.31,4.24.03-.09.05-.18.08-.28ZM29.76,120.3c-.52,1.07-1.03,2.14-1.55,3.21.59-1.15,1.18-2.3,1.74-3.43v-.42s-.19.64-.19.64ZM21.29,150.02c-.88,2.4-1.78,4.79-2.6,7.21-.04.12.6.47.92.72.45-2.25.91-4.5,1.34-6.76.09-.45.07-.92.09-1.4.53-1.59,1.06-3.19,1.59-4.78-.41-.03-.81-.07-1.22-.1-.04,1.7-.08,3.41-.12,5.11ZM185.88,367.25c33.23-.89,68.31-15.7,95.06-27.74,12.02-5.41,24.05-12.45,29.3-25.64,5.81-14.58,10.98-29.49,15.22-44.6,2.07-7.36,3.19-15.85,1.7-23.22-10.83-53.47-24.02-106.39-44.03-157.25-5.72-14.55-14.25-28.72-29.55-35.34-13.6-5.88-23.64-15.4-33.73-25.58-4.13-4.17-10.12-7.89-15.78-8.88-14-2.44-28.4-2.53-42.46-4.77-20.48-3.26-39.2-1.97-54.12,14.77-2.88,3.23-6.98,5.37-10.47,8.07-30.22,23.46-48.03,55.54-60.46,90.57-15.31,43.14-15.53,88.7-19.01,133.74-1.32,17.14,5.11,28.52,16.67,40.05,12.72,12.69,24.35,26.89,34.14,41.93,5.66,8.7,10.34,12.7,20.84,11.2,20.66-2.94,41.12-.99,61.31,4.7,11.61,3.27,23.56,5.36,35.36,7.98ZM48.12,361.48c.68-.1,2.64-.27,4.55-.66,13.19-2.69,15.15-5.36,7.41-15.8-11.59-15.61-24.8-30.03-37.53-44.78-1.36-1.57-4.07-1.98-6.15-2.93-.38,2.27-1.39,4.63-1.05,6.78,2.05,13.01,3.83,26.11,6.81,38.92,2.95,12.65,11.8,18.66,25.96,18.46ZM21.79,111.38c1.85-2.75,3.07-4.19,3.89-5.82,11-21.83,21.95-43.68,32.89-65.54,2.67-5.34,5.26-10.73,7.89-16.09-5.88,3.24-11.99,6.13-17.53,9.87-2.69,1.82-5.19,4.92-6.24,7.97-7.32,21.2-14.26,42.54-21.22,63.87-.4,1.23.12,2.77.31,5.75ZM112.72,358.82c-6.75.33-10.68.23-14.49.83-2.14.34-4.1,1.86-6.14,2.85,1.65,1.59,3.03,3.75,5,4.68,13.67,6.45,27.53,3.49,41.33.31.7-.16,1.21-1.11,1.81-1.7-1.02-.9-1.94-2.39-3.09-2.62-9.03-1.75-18.1-3.26-24.42-4.37Z"/>
      </g>
      <path class="cls-1" d="M165.71,111.98c3.99-.58,7.47,3.09,9.96,5.72,5.3,5.61,9.75,11.95,14.7,17.86,5.08,6.06,10.41,11.89,15.43,18,6.4,7.8,12.2,16.1,18.22,24.18,1.11,1.49,2.22,2.97,3.34,4.45,2.78,3.65,5.74,7.17,8.77,10.63,2.72,3.11,1.9,6.9-.48,9.92-5.47,6.94-12.55,12.39-18.01,19.38-6.23,7.98-12.34,16.04-18.4,24.15-6.7,8.97-13.03,18.11-19.4,27.31-2.44,3.53-5.76,8.92-10.39,9.69-3.71.61-6.77-1.92-9.12-5.45-10.16-15.27-20.39-30.52-31.11-45.4-4.32-5.99-8.84-11.82-13.45-17.59-4.29-5.37-8.31-10.63-13.1-15.56-2.49-2.57-3.33-5.36-2.32-8.81,1.25-4.26,3.86-8.07,6.88-11.28,8.46-8.98,16.44-18.42,24.43-27.84,8.13-9.59,16.33-19.27,23.99-29.34,2.37-3.12,5.13-7.73,8.69-9.61.44-.23.89-.37,1.35-.44ZM218.05,199.18c.07-1.4-.28-2.79-1.22-4.09-4.69-6.45-8.72-13.33-13.44-19.75-5.36-7.29-11.52-13.99-16.96-21.24-5.45-7.25-10.88-14.52-16.36-21.75-1.42-1.88-3.33-2.37-4.91-.34-10.35,13.31-20.9,26.45-31.43,39.62-5.01,6.27-9.97,12.57-14.95,18.85-1.43,1.81-1.39,2.97.42,5,6.85,7.71,13.59,15.56,19.76,23.81,9.21,12.31,17.88,25.02,26.86,37.5,2.87,4,4.09,3.82,7.14-.03,7.87-9.94,15.8-19.84,23.82-29.66,5.29-6.48,11.05-12.45,16.52-18.75,2.11-2.44,4.6-5.83,4.76-9.17Z"/>
    </g>
  </g>
</svg>