<?xml version="1.0" encoding="UTF-8"?>
<svg id="Layer_2" data-name="Layer 2" xmlns="http://www.w3.org/2000/svg" viewBox="0 0 339.48 421.39">
  <defs>
    <style>
      .cls-1 {
        fill: #e9e8f7;
      }

      .cls-2 {
        fill: #120b3a;
      }

      .cls-3 {
        fill: #433e6d;
      }
    </style>
  </defs>
  <g id="_Ñëîé_1" data-name="Ñëîé 1">
    <g>
      <g>
        <path class="cls-3" d="M307.85,370.61c8.19-16.1,17.17-31.83,24.73-48.23,3.59-7.78,6.19-16.65,6.57-25.15.85-18.94-.24-37.96-.03-56.94.23-20.07-2.62-39.39-8.65-58.7-7.1-22.73-12.26-46.1-17.64-69.33-3.93-16.99-2.88-35.55-17.13-49-1.69-1.59-1.71-4.9-2.64-7.36-9.59-25.27-20.83-33.07-47.92-33.11-7.66-.01-14.25-.98-20.36-7.14-3.88-3.9-10.95-5.68-16.82-6.32-12.72-1.38-25.63-.95-38.38-2.14-15.75-1.47-31.54-3.13-47.07-6.01-13.24-2.45-25.37-1.28-37.2,5.07-10.44,5.6-21.14,10.72-31.61,16.29-2.62,1.4-5.48,3.25-7.01,5.66-16.86,26.56-30.15,53.86-22.37,87.11,1.91,8.15.57,17.69-1.59,26-2.75,10.6-7.37,20.81-12.04,30.79C4.22,185.92-.7,200.03.08,215.45c1.19,23.38,2.19,46.79,4.4,70.08,2.9,30.41,10.8,59.38,24.34,87.18,14.07,28.88,37.17,43.18,67.51,46.41,20.94,2.23,42.19,1.61,63.3,2.27-.02-.94-.04-1.88-.06-2.82,37.27,2.75,73.2-3.05,108.18-15.59,17.25-6.19,31.53-15.55,40.09-32.37Z"/>
        <path class="cls-2" d="M159.64,421.39c-21.11-.66-42.36-.04-63.3-2.27-30.33-3.23-53.44-17.53-67.51-46.41-13.54-27.8-21.44-56.76-24.34-87.18-2.22-23.29-3.22-46.71-4.4-70.08-.78-15.42,4.14-29.53,10.61-43.35,4.67-9.98,9.29-20.19,12.04-30.78,2.15-8.31,3.49-17.85,1.59-26-7.78-33.25,5.52-60.55,22.37-87.11,1.53-2.41,4.39-4.26,7.01-5.66,10.46-5.57,21.16-10.69,31.61-16.29C97.14-.09,109.26-1.26,122.51,1.19c15.53,2.87,31.32,4.54,47.07,6.01,12.75,1.19,25.66.75,38.38,2.14,5.87.64,12.95,2.42,16.82,6.32,6.12,6.16,12.7,7.13,20.36,7.14,27.09.04,38.33,7.85,47.92,33.11.93,2.46.95,5.76,2.64,7.35,14.25,13.45,13.2,32.01,17.13,49,5.37,23.23,10.54,46.6,17.64,69.33,6.03,19.3,8.88,38.63,8.65,58.7-.21,18.98.88,38,.03,56.94-.38,8.5-2.98,17.37-6.57,25.15-7.56,16.39-16.53,32.12-24.73,48.23-8.56,16.83-22.84,26.19-40.09,32.37-34.99,12.55-70.92,18.34-108.18,15.59.02.94.04,1.88.06,2.82ZM278.03,72.75c1.02.92,2.03,1.83,3.05,2.75,2.59,4.38,5.17,8.76,7.76,13.14.39-.36,1.16-1,1.13-1.04-2.98-4-6.03-7.96-9.07-11.92-1.05-.9-2.1-1.79-3.15-2.69l-.38-.51s.65.27.66.27ZM212.18,16.83c-.31-.21-.6-.45-.93-.6-.21-.09-.49-.03-.74-.03.63.14,1.27.27,1.9.41,1.34.8,2.69,1.6,4.03,2.41.21-.36.43-.72.64-1.08-1.63-.37-3.25-.75-4.9-1.1ZM52.2,43.43c2.84-4.08,5.68-8.16,8.53-12.24-.36-.19-1.03-.56-1.03-.55-2.45,4.32-4.85,8.66-7.25,13,0,0-.25-.21-.25-.21ZM285.81,122.4c3.7-17.5-2.03-32.3-12.82-45.7-2.21-2.75-4.08-5.78-6.16-8.64-13.48-18.49-29.68-32.46-53.73-35.21-10.04-1.15-19.85-4.34-29.73-6.77-25.9-6.37-52.11-9.76-78.83-9-16.66.48-30.3,5.35-37.12,22.33-2.79,6.95-6.51,13.56-10.18,20.11-4.88,8.7-5.15,17.39-2.01,26.79,5.72,17.14,7.19,34.83,1.89,52.21-7.87,25.82-14.42,51.8-16.84,78.79-.94,10.49-3.56,20.83-5.47,31.24-2.62,14.3-5.53,28.55-7.83,42.91-1.01,6.33-2.51,13.34-.82,19.18,4.86,16.87,10.58,33.57,17.24,49.81,4.39,10.71,14.26,16.43,24.88,20.59,16.44,6.44,33.15,12.37,49.06,19.95,10.86,5.17,21.56,7.49,33.28,6.03,5.26-.66,10.5-1.49,15.77-2.05,14.05-1.49,28.48-1.38,42.07-4.7,14.46-3.54,27.97-10.73,42.17-15.54,25.7-8.72,39.03-27.93,45.32-52.85,6.59-26.1,13.14-52.15,14.23-79.39.94-23.42-2.7-45.64-10.58-67.53-7.29-20.23-18.21-39.77-13.78-62.57ZM6.58,229.28c1.3,15.81,2.46,31.64,4.04,47.43.3,3.03,2.28,5.9,3.48,8.84,1.13-2.82,2.83-5.55,3.31-8.47,4.79-29.05,9.94-58.07,13.71-87.26,1.39-10.77-.56-21.98-1.14-32.98-.06-1.11-1.21-2.17-1.85-3.25-.8.81-1.91,1.48-2.34,2.45-10.36,23.33-23.34,46.01-19.21,73.24ZM32.39,115.34c2.67,15.7,4.8,28.66,7.18,41.58.24,1.32,1.98,2.37,3.02,3.55.73-1.06,1.75-2.02,2.13-3.19,8.02-24.79,12.03-49.67,1.27-74.77-.66-1.55-1.74-2.93-2.62-4.39-1.15,1.22-2.99,2.27-3.33,3.68-2.86,11.84-5.45,23.74-7.65,33.54ZM321.63,216.39c-1.13.23-2.26.45-3.39.68,2.78,12.32,5.48,24.66,8.46,36.93.32,1.33,2.32,2.25,3.54,3.37.52-1.12,1.46-2.22,1.51-3.37.49-11.47,2.66-23.24.8-34.34-3.34-19.96-9.01-39.54-13.96-59.22-.93-3.69-3-7.09-4.54-10.62-.04,3.85-.53,7.76-.03,11.54,2.39,18.36,5.05,36.69,7.61,55.03ZM319.74,296.65c-.64-.28-1.29-.57-1.93-.85-.59-1.97-1.17-3.94-1.76-5.91-1.1,1.6-2.76,3.05-3.23,4.81-3.36,12.8-6.18,25.75-9.73,38.49-6.37,22.87-17.09,42.66-39.83,53.42-2.39,1.13-4.68,2.51-6.92,3.93-1.01.64-1.77,1.66-2.64,2.5,1.25.11,2.64.64,3.72.27,17.36-6.03,35.47-12.78,42.61-30.97,8.32-21.21,13.28-43.73,19.7-65.69ZM308.91,173.29c-3.96-19.78-8-40.05-12.14-60.29-.29-1.41-1.38-2.65-2.11-3.96-.26,1.27-.47,2.55-.79,3.8-5.71,22.06-.08,42.69,8.06,62.96.74,1.85,2.57,3.27,3.89,4.88.89-2.12,1.77-4.24,3.09-7.38ZM109.27,408.41c-.26.08,1.23-.38,2.71-.85-.82-.87-1.48-2.12-2.49-2.55-17.02-7.22-34.08-14.36-51.16-21.42-1.02-.42-2.39.01-3.59.05.2,1.23.08,2.62.64,3.66,5.83,10.79,14.83,17.41,26.98,19.03,8.28,1.11,16.67,1.32,26.92,2.08ZM285.99,54.76c-.77-1.93-1.09-2.75-1.43-3.56-7.04-16.92-21.9-25.03-40.62-22.09-1.67.26-3.27.97-4.9,1.47,1.51,1.18,2.84,2.9,4.55,3.45,9.66,3.13,19.04,5.89,24.68,16.01,1.91,3.43,8.16,4.65,12.64,6.31,1.3.48,3.32-.99,5.08-1.59ZM330.68,286.91c-1.4-5.7-2.79-12.05-4.61-18.28-.4-1.37-2.28-2.31-3.48-3.45-.57,1.44-1.87,3.03-1.61,4.3,3.66,18,2.23,35.84-1.24,53.67-.15.79.64,1.76.99,2.65.59-.61,1.55-1.13,1.71-1.84,2.72-11.96,5.34-23.95,8.22-37.04ZM32.43,80.08c.81-2.38,1.64-4.68,2.28-7.04.04-.15-1.41-.7-2.16-1.07-.82,2.34-1.67,4.68-2.39,7.05-.03.09,1.14.54,2.27,1.06ZM303.78,87.37c-2.38-2.84-3.61-4.31-4.84-5.78-.43.63-1.35,1.44-1.2,1.86.67,1.86,1.58,3.65,2.64,5.31.1.15,1.86-.76,3.4-1.4ZM285.71,65.23c-.83.67-1.37,1.12-1.91,1.56.86.93,1.7,1.88,2.65,2.72.06.06,1.47-1.13,1.4-1.26-.59-1.06-1.39-2.02-2.14-3.02ZM108.13,7.53c-.66-.18-1.31-.39-1.98-.49-.11-.02-.29.52-.44.79.65.17,1.3.38,1.97.46.12.01.3-.5.45-.77Z"/>
      </g>
      <path class="cls-1" d="M130.8,130.6c1.88.34,3.55,1.31,4.48,3,4.68,8.52,8.6,17.65,13.39,26.19,5.06,9.02,10.1,18.06,15.14,27.1,1.34,2.4,2.68,4.8,4.02,7.21,1.38,2.48,2.08,3.62,4.2.06,10.44-17.58,21.88-34.54,32.34-52.11,2.02-3.4,4.02-6.82,5.97-10.26,1.58-2.78,3.75-3.57,6.71-2.21,5.7,2.61,4.31,9,1.94,13.44-3.67,6.87-7.3,13.77-11.29,20.47-9.16,15.39-18.56,30.64-27.88,45.93-1.45,2.38-1.68,4.41-.21,7.14,3.84,7.1,7.25,14.43,10.95,21.61,3.28,6.37,7.17,12.63,10.5,19.06,3.34,6.46,5.72,13.37,9.21,19.75,1.13,2.08,2.76,3.55,4.22,5.39,3.1,3.91,1.47,8.57-.75,12.46-1.35,2.37-3.9,5.03-6.89,3.94-3.41-1.25-5.31-4.98-6.82-8.03-6.89-13.93-13.45-28.03-20.35-41.96-3.14-6.33-6.71-12.45-10.09-18.66-.91-1.68-1.62-2.46-3.12-.24-8.27,12.21-16.68,24.33-25.04,36.49-3.56,5.18-7.01,10.4-10.55,15.58-1.49,2.18-3.47,4.78-6.09,5.59-2.77.86-5.98-.26-8.17-1.99-3.3-2.62-3.41-7.36-.71-11.03,12.36-16.76,25.1-33.36,36.78-50.61,2.04-3.02,4.12-6.02,6.06-9.11,2.02-3.21.87-5.22-.88-8.28-9.94-17.39-19.76-34.68-28.06-52.93-2.1-4.62-4.57-9.05-6.98-13.52-.71-1.32-1.38-2.74-1.34-4.24.11-4.46,5.73-5.88,9.31-5.22Z"/>
    </g>
  </g>
</svg>