<?xml version="1.0" encoding="UTF-8"?>
<svg id="Layer_2" data-name="Layer 2" xmlns="http://www.w3.org/2000/svg" viewBox="0 0 77.49 172.43">
  <g id="Layer_1-2" data-name="Layer 1">
    <g>
      <path d="M24.84,119.87c-.14-.24-.33-.56-.47-.79-.01-.42,0-.64.1-.83.17-.34.2-.62,0-1.04-.06-.13-.12-.25-.11-.41.03-.41-.13-.58-.23-.84,0-.32,0-.65,0-.99-.08-.19-.16-.37-.24-.56.07-.23.21-.17.29-.27.26-.33.49-.79.63-1.4.04-.2.03-.48.15-.64.14,0,.3,0,.45,0,.03,0,.05-.11.1-.2,0-.47,0-.97,0-1.55-.05-.13-.13-.32-.21-.52.15-.34.3-.7.44-1.04-.08-.28-.2-.21-.31-.25-.11-.04-.17-.34-.15-.59.02-.28.13-.4.19-.59.07-.2.06-.54,0-.69-.11-.23-.22-.47-.33-.7-.24,0-.47,0-.69,0-.12-.26-.23-.5-.34-.74.11-.24.22-.48.35-.77.13,0,.29.02.44-.02.05-.01.08-.19.11-.27-.07-.21-.17-.4-.19-.62-.03-.24-.03-.48-.15-.64-.07,0-.15,0-.22,0-.11-.25-.23-.49-.34-.73,0-.17-.01-.33-.02-.51.07-.18.15-.36.23-.55,0-.16,0-.33,0-.49-.08-.19-.16-.37-.24-.56,0-.34,0-.67,0-.94-.21-.47-.4-.9-.58-1.32-.09,0-.17,0-.23,0-.09-.18-.18-.35-.27-.53-.23,0-.46,0-.6,0-.33-.7-.6-1.3-.91-1.96,0-.22,0-.56,0-.86-.04-.09-.07-.16-.1-.21-.08-.13-.11-.25-.08-.36.04-.17.11-.19.2-.17.11.03.23,0,.37,0,.03-.22.07-.44.1-.64-.12-.39-.25-.7-.42-.9-.04,0-.09-.03-.12,0-.13.17-.25.34-.37.51-.12,0-.23,0-.38,0-.23-.49-.48-1.01-.74-1.54-.15,0-.31,0-.45,0-.09-.18-.18-.35-.27-.53-.23,0-.46,0-.64,0-.24-.46-.44-.86-.62-1.22.01-.75.01-.75.33-.8.08.16.17.32.26.5.07,0,.14,0,.24,0,.09-.22.2-.47.32-.78,0-.25,0-.59,0-.99-.05-.13-.13-.32-.21-.52,0-.15,0-.31-.02-.5-.16-.35-.32-.72-.47-1.07,0-.19-.01-.35-.02-.52-.14-.3-.29-.59-.41-.91-.04-.11-.05-.32-.04-.46.01-.14.08-.26.12-.38.08,0,.16,0,.23,0,.18.34.31.77.49.98.18,0,.33,0,.42,0,.17-.3.28-.52.38-.68,0-.6,0-1.11,0-1.6-.12-.26-.22-.54-.34-.72-.08-.12-.25.09-.31-.2-.05-.27.11-.35.17-.6,0-.27,0-.6,0-.94.08-.2.15-.39.23-.59,0-.15,0-.31.01-.49-.15-.35-.31-.71-.47-1.07.16-.43.37-.16.56-.25.08.16.17.33.26.5.16.01.18.02.34.21.01.54.02,1.11.03,1.62.08.18.18.3.19.42,0,.57.17.89.34,1.23.02.03.06.05.08.03.03-.04.08-.11.08-.18,0-1.02,0-2.04,0-3.07-.42-.9-.83-1.79-1.25-2.7-.02-.05-.06-.07-.1-.11-.07-.02-.15-.03-.22-.08-.09-.07-.11-.23-.09-.43-.11,0-.22.03-.33-.01-.05-.02-.12-.21-.12-.28.02-.17.09-.24.17-.21.07.02.14.04.2.1.08.07.1.23.07.41.12,0,.23,0,.38,0,.03-.2.07-.42.1-.6-.03-.13-.04-.21-.06-.27l-1-2.17c-.08,0-.15-.02-.23-.03-.08-.16-.17-.33-.25-.5-.08.17-.17.34-.25.5-.08-.01-.16-.02-.24-.04-.11-.24-.22-.48-.34-.73,0-.34,0-.68,0-1.01-.08-.19-.16-.37-.23-.53,0-.54,0-1.05,0-1.56,0-.06.05-.12.09-.21.3,0,.61,0,.95,0,.09.18.2.42.31.65.07.15.07.48,0,.69-.04.14-.11.24-.16.37.08.37.21.63.37.83.35,0,.7.01,1.05-.01.06,0,.12-.16.18-.24.02-.24-.05-.52.08-.69.03,0,.06,0,.08.03.25.54.5,1.08.77,1.65-.07.17-.13.35-.22.57,0,.45,0,.96,0,1.47,0,.07.04.14.07.19.02.03.07.05.08.03.22-.48.44-.96.66-1.45.31,0,.62,0,1.04,0,.09.28.23.69.35,1.04.32-.12.6.23.86-.3-.12-.21-.24-.42-.39-.7-.01,0-.09-.03-.21-.06-.13-.29-.3-.65-.46-1-.18-.1-.39.17-.56-.2-.02-.38-.04-.79-.06-1.15-.07-.15-.13-.27-.19-.42,0-.48,0-.98,0-1.5-.16-.37-.32-.73-.48-1.1.01-.24-.04-.52.11-.72.13,0,.28,0,.46,0,.06.11.15.28.24.45.07,0,.14.02.23.03.08.16.16.35.25.5.02.04.08,0,.11,0,0-.34,0-.68,0-1.02,0-.2,0-.35.08-.43.05-.05.11.04.17.2.02.07.05.12.1.23.21,0,.44,0,.67,0,.09,0,.17-.37.15-.59-.01-.17-.06-.28-.11-.42-.19-.51-.19-.52,0-1.05.02-.07.06-.11.08-.18.05-.18.04-.52-.02-.69-.05-.14-.25-.21-.32-.09-.09.15-.17.33-.22.43-.19,0-.34,0-.48,0-.33-.66-.35-.66-.66-.01-.26.18-.54-.12-.78.18-.19.58.1,1.35-.16,1.89-.08,0-.15.02-.26.03-.09.22-.19.48-.31.8-.04.43-.07.56-.23.95-.07.39.06.84-.08,1.2-.03.04-.06.11-.1.11-.46,0-.93,0-1.33,0-.17-.32-.28-.54-.39-.75,0-.55,0-1.06,0-1.54-.08-.2-.16-.39-.24-.58,0-.51,0-1.01,0-1.47-.09-.23-.16-.41-.22-.57-.02-.72.03-1.4-.03-1.95-.09-.3-.19-.48-.21-.7-.02-.25-.03-.48-.15-.62-.07,0-.14-.02-.14-.02-.32-.68-.59-1.27-.87-1.88.09-.06.2-.12.3-.18.18.37.34.7.51,1.03.09-.16.17-.31.23-.44.13.26.24.49.35.71,0,.37,0,.71,0,1.04q.27.37.57-.23c.08-.01.15-.02.27-.04.08-.21.17-.47.29-.79-.04-.1-.1-.27-.17-.45.05-.3.17-.5.29-.69.08-.13.21-.11.31-.21.07-.07.11-.23.18-.38.08.15.16.29.23.45.04.1.07.23.11.35-.06.13-.11.25-.17.37-.05.57-.07,1.14.01,1.71.06.12.12.22.16.36.14.44.45.2.57.71.01.05.06.09.1.1.12.03.23-.03.29-.26,0-.17,0-.34,0-.49-.08-.2-.16-.38-.24-.57,0-.85,0-1.69,0-2.6-.1-.07-.21-.13-.36-.23-.04-.08-.13-.25-.22-.43-.07,0-.15,0-.22,0-.09-.17-.17-.35-.26-.53h-.22c-.12-.25-.23-.49-.34-.73.27-.59.55-1.17.85-1.81.1,0,.26,0,.39,0,.14.14.14.38.15.64.02.34.23.44.23.81,0,.09,0,.17,0,.18.29.63.57,1.22.85,1.84.04-.08.12-.24.21-.41.07,0,.14,0,.22,0,.08.16.17.33.25.5.08,0,.16,0,.18,0,.31-.64.59-1.23.88-1.83-.03-.24-.06-.47-.09-.7-.18,0-.33,0-.49,0-.09-.18-.17-.34-.27-.53-.15,0-.3,0-.45,0-.09-.18-.17-.35-.26-.52-.07,0-.15,0-.22,0-.09-.18-.18-.35-.26-.5-.09-.02-.16-.03-.24-.05l-.33-.72-.25-.54c-.11-.24-.21-.53-.34-.71-.18-.26-.05-.84-.26-1.05-.14,0-.3,0-.45,0-.2-.43-.39-.86-.58-1.28-.02-.04,0-.16,0-.25-.11,0-.22.04-.32-.01-.1-.05-.18-.22-.21-.5-.08-.03-.11-.08-.13-.14-.02-.04-.04-.12-.03-.16.04-.19.09-.2.15-.1.06.11.09.23.06.4,0,.03-.07.02-.05,0,.16,0,.27-.04.37.01.1.05.18.22.15.5.12,0,.23,0,.47,0,.08-.27.21-.69.28-.9.21-.16.31-.24.41-.31,0-.56,0-1.07,0-1.63-.1-.2-.22-.43-.36-.71-.11,0-.27,0-.42,0-.09-.18-.18-.34-.27-.52-.16.33-.32.67-.47.98-.24,0-.48,0-.7,0-.12-.25-.23-.49-.34-.74,0-.16,0-.33,0-.49-.08-.19-.16-.38-.24-.56-.01-.24.04-.52-.12-.72-.09,0-.2-.03-.31-.03-.21,0-.27.14-.27.57,0,.25-.03.53,0,.69.06.26.22.35.19.6-.04.31-.2.16-.31.19-.04-.13-.1-.26-.12-.4-.11-.72-.15-.84-.51-1.12-.12-.09-.18-.29-.27-.43-.12-.18-.31,0-.4-.39,0-.14,0-.31,0-.46-.08-.2-.16-.38-.23-.56,0-.19-.02-.4.02-.51.17-.46.36-.88.51-1.25.14.02.21.02.29.03l.92,1.98.23.03c.22-.18.06-.81.25-1.02h.23c.2.2.04.84.26,1.02l.23-.03c.03-.06.07-.11.08-.18,0-.17.02-.32.03-.49,0-.07.03-.14.06-.2.05-.12.11-.24.17-.37,0-.16,0-.33,0-.49.24-.55.48-1.09.71-1.61-.04-.45.08-.91-.13-1.23-.08,0-.15,0-.18,0-.39-.83-.74-1.61-1.1-2.38,0-.66,0-1.33,0-2.01,0-.06.05-.12.08-.18.08-.01.15-.02.22-.03.19.16.1.62.19.82.15.32.21.66.2,1.11,0,.55.04.59.35.65.09.17.18.34.24.46.26.03.49.04.72.08.03,0,.06.11.09.18,0,.33,0,.66,0,1.02-.07.17-.15.35-.23.53,0,.17,0,.34,0,.49.08.19.16.38.25.59,0,.83,0,1.67.01,2.52,0,.06.05.12.08.18.04.01.07.04.11.04.14,0,.26-.15.26-.35,0-.43,0-.85,0-1.28,0-.14.07-.27.11-.42h.23c.09-.17.17-.34.25-.49.09.17.17.33.27.53.1-.07.2-.14.34-.24-.16-.35-.3-.65-.43-.94-.1-.25-.2-.5-.3-.75.03-.39-.08-.62-.2-.84-.03-.63-.19-1.04-.43-1.36-.26-.09-.54.25-.78-.23,0-.17,0-.33-.01-.51.08-.18.15-.36.23-.55,0-.5,0-1.01,0-1.51.08-.19.16-.37.23-.55-.02-.69-.02-.69-.34-.74-.16.33-.33.68-.49,1.03-.11-.02-.24.08-.33-.25,0-.28,0-.61,0-.99-.24-.52-.49-1.05-.72-1.56,0-.21-.01-.38-.02-.49-.2-.46-.39-.89-.57-1.3-.13,0-.25-.02-.37,0-.09.02-.15-.03-.24-.36-.12-.21.18-.86-.12-1.13-.08.15-.16.29-.24.43-.16-.34-.3-.64-.43-.94-.08-.01-.15-.03-.24-.05-.08-.15-.16-.32-.26-.5-.15,0-.3,0-.45,0-.09-.18-.17-.35-.26-.52-.15,0-.31,0-.45,0-.09-.18-.18-.35-.26-.5-.09-.02-.16-.03-.17-.03-.24-.46-.45-.84-.69-1.29.16-.11.26-.18.35-.24.05.08.08.11.11.17.06.12.11.24.17.36.19-.56.2-.56-.09-1.2.02-.44-.18-.96.11-1.3.06.12.1.27.17.36.15.21.28.15.4-.14,0-.51,0-1.02,0-1.53.08-.19.16-.37.23-.55,0-.82,0-.82.1-1.24.17.34.33.68.5,1.02.07,0,.15,0,.22,0,.09.18.18.35.28.54l.31-.2c0-.39,0-.73,0-1.1-.07-.16-.15-.34-.23-.53,0-.16,0-.33,0-.49-.08-.19-.15-.36-.23-.54.24-.49.52-.15.8-.25.07-.15.16-.31.18-.36.23-.29.44.06.6-.29.07-.58.06-1.15-.02-1.93-.33-.71-.71-1.54-1.12-2.42,0-.17,0-.41.11-.59.1-.16.15-.38.12-.71-.03-.09-.06-.18-.1-.28l-8.05,3.08c.41.19.81.32,1.18.43.09-.04.16-.07.16-.07.33.09.57.16.81.23.13.29.23.54.34.79-.05.05-.11.1-.17.16.11.23.23.48.4.82.28.26.66.62,1.04.98.09.09.11.22.18.36-.1.1-.21.2-.31.28.06.19.12.34.17.49-.56-.21-1.08-.41-1.63-.62-.21.2-.43.4-.66.6-.05.05.23.44.39.53.07.05.13.09.19.13.33.12.65.25,1.02.39.16.15.35.33.54.51q.33.31.23.58s-.02.08,0-.02c.2.57.34.98.45,1.3.23.23.34.35.44.45.12.26.23.51.34.74-.23.22-.23.23-.09.35.21.18.36.18.57.27.24.22.49.46.76.71.13.28.33.6.32.83-.08.17-.44.12-.15.55l.39.35c.26.12.49.13.79.44.21.21.39.19.58.31.25.15.51.35.76.52.08-.07.13-.12.24-.22.61.67,1.13.69,1.71.94.13.12.25.24.37.35.24.13.36.1.42,0,.1-.18.32-.19.83.08-.4-.59-.91-1-1.4-1.42-.31-.05-.64-.3-.97-.58l-.98-.37c-.06-.05-.13-.11-.19-.16l-.39-.36c-.24-.23-.37-.43-.31-.5.04-.06.11-.13.21-.09.44.15.9.33,1.3.49.19.17.34.32.45.38.27.13.53.22.74.3.15-.04.12-.23.43-.05.29.25.62.52.91.77.17.06.3.11.45.17.37.34.75.7,1.14,1.07.4.16.78.31,1.16.46.14.13.26.25.38.36.19.36.22.67.46.97.31.15.58.28.8.38.1-.06.16-.11.19-.12.5.17.94.32,1.37.47.2.46.39.89.57,1.31-.11.1-.23.2-.33.31-.02.02.05.12.07.18.34.22.62.3.89.36.32-.02-.12-.51-.04-.68l.42-.38s.09,0,.14,0l.39.15c.07-.04.13-.07.21-.11-.06-.16-.12-.33-.2-.54.07-.06.15-.14.23-.21.03-.03.04-.08.09-.07.11.04.26.08.37.17.39.31.45.53.34.62-.26.21-.5.45-.75.68.07.18.14.36.2.51-.23.21-.45.41-.66.61-.21-.07-.4-.13-.61-.2-.01.12-.03.24-.04.36.17.16.3.28.45.42.17.41.34.83.52,1.28-.03.04-.08.1-.12.15-.29.02-.66-.54-.96-.56-.06.05-.11.1-.19.17-.24-.17-.5-.35-.76-.53-.98-.37-1.96-.74-2.94-1.11-.05-.02-.06.05-.09.07l.58.54c.91.35,1.82.69,2.75,1.04.37.35.76.71,1.13,1.05.82.38,1.55.56,2.28.92.32.3.57.54.79.74.07.16.12.28.17.41.09.1.24.19.32.15.14-.07.23-.19.32-.28.3.11.56.21.82.31.08.18.17.36.25.53.13.13.26.25.38.36.73.28,1.44.55,2.18.83.25.55-.32.45-.33.73.12.3.21.54.29.75.16.15.29.27.41.38.43.21.44-.21.96.15.06-.04.12-.08.2-.13.37.13.75.27,1.11.4.17-.16.34-.31.47-.43-.05-.37-.36-.79-.37-1.08.19-.13.28-.35.55-.39l.39.15c.45-.12.53-.61.99-.71.28.11.54.22.8.32.27.25.52.49.77.72.26.08.5.17.8.44.16.14.39.21.68.35.77.65,1.54,1.49,2.37,2.16.19.07.32.12.47.18.16.35.32.71.48,1.05.14.13.26.25.38.36.4.17.76.25,1.24.53.12.15.25.33.38.5-.13.12-.24.22-.37.34-.24-.17-.5-.35-.76-.53-.33-.12-.65-.25-.97-.37-.2-.15-.37-.39-.6-.44-.04,0-.1-.01-.13,0-.17.08-.17.34-.58.16-.39-.17-.48.12-.95-.14-.2-.11-.39-.16-.58-.23.18.42.36.85.56,1.31.23.07.48.15.82.25-.04,0,0,0,.04,0,.28-.09.28-.09.63.22.25.22.48.53.82.61.06-.06.15-.13.23-.21.15-.13.28-.07.64.26.19.17.38.34.43.38.59.26,1.06.46,1.44.63.12-.07.18-.11.24-.14l.79.3c.17.18.43.34.47.6-.14.16-.31.35-.5.55.29.67.59,1.33.88,2.01-.18.06-.13.38-.54.2-.07-.06-.13-.11-.2-.16l-.39-.36c-.4-.36-.61-.4-.64-.1,0,.04.05.12.08.19.51.48,1.02.96,1.54,1.44.05.04.06.12.1.2-.09.3-.42.4-.59.65-.03.05.05.2.08.3.19.16.36.39.67.44.15-.14.35-.32.54-.49.19-.18.37-.37.59-.52.04-.03.22.07.35.11.24.24.49.48.74.72.05.05.06.12.09.2-.21.2-.43.4-.65.6.07.18.14.36.21.55-.1.09-.22.19-.32.3-.02.02.02.11.06.17.06.11.21.21.31.18.38-.09.37-.1.76.27l.19.18c.37.33.5.38.64.26.19-.18.38-.35.55-.51-.07-.21-.12-.36-.16-.46.28.08.53.16.76.23.11.23.2.41.28.57q2.1,1.97,2.4,2.38c-.05.06-.09.11-.15.17-.18-.06-.37-.13-.57-.2l-.25.23.97.91c.45.17.91.34,1.38.52.05-.05.11-.1.16-.15-.07-.17-.14-.34-.2-.51.06-.05.11-.1.16-.15.27.1.53.2.79.3.53.46.53.47.42.74-.01.03-.01.08,0,.04.11.32.2.56.26.74.32.3.57.54.87.82.13-.02.25-.03.38-.05l.76.29-.17-3.44-.4,1.24c-.23.25-.57.65-.92,1.04-.12.14-.38.17-.43.08-.06-.11.08-.34.08-.49.01-.23-.13-.27-.44-.07-.12.13-.23.25-.34.36-.19.1-.36.2-.53.29-.17.53-.33,1.03-.49,1.53-.05.07-.1.13-.15.19l-.35.39c-.34.39-.35.49-.06.6.19-.08.37-.14.52-.2.12.11.22.22.31.3-.06.19-.1.32-.14.44l.34.43c-.42.67-1.06,1.18-1.49,1.8-.22.69-.44,1.38-.67,2.09-.24.11-.48.21-.76.33.03-.13.07-.3.12-.47-.16.07-.34.15-.52.23-.1-.04-.11-.22-.37-.04-.25.41-.26.72-.41,1.09-.34.39-.69.78-1.04,1.17-.13.38-.26.76-.38,1.11-.2.22-.36.4-.41.61-.04.17-.12.37-.18.56l.18.14-.24.75c-.1.05-.25.16-.3.14-.14-.06-.24-.17-.34-.24.12-.38.22-.69.32-1-.01-.04-.02-.09-.04-.11-.17-.14-.61.13-.73.47-.12.33-.27.63-.59,1.01-.2.65-.4,1.33-.6,2.01-.42.25-.41-.07-.63-.13.13-.4.26-.82.4-1.27.14-.48.39-1.02.42-1.43-.18-.24-.61.13-1.01.34.04.13.08.24.14.43-.05.13-.16.39-.29.72-.19.24-.42.57-.45.89-.21.24-.43.5-.67.75-.07.08-.19.09-.28.13.04-.18.08-.35.12-.5-.21-.06-.19-.39-.61-.11-.12.14-.24.27-.34.38-.07.2-.14.39-.21.59-.35.39-.69.78-1.08,1.22.04.11.07.23.12.39-.03.09-.08.27-.13.47.05.04.11.09.17.13-.05.19-.11.37-.16.55l.2.12q.49-.23.43,0c-.11.13-.22.26-.34.4-.06.18-.13.37-.19.55-.19.1-.37.19-.56.29-.3.47-.62.44-.84.63-.29.33-.52.59-.7.79-.12.24-.06.36-.29.58-.24.11-.48.22-.69.32-.09-.04-.16-.07-.22-.1-.26.12-.51.24-.75.35-.13.14-.24.27-.36.4-.22.39.25.28-.06.77-.14.12-.31.28-.47.42-.07-.02-.11-.03-.15-.04-.24-.08-.36-.01-.44.29-.09.33-.49.65-.56.97-.07.35-.23.75-.35,1.12-.02.06-.04.12-.05.17-.13.14-.24.28-.36.41-.11.03-.25.11-.31.08-.1-.06-.22-.07-.41.06-.25.28-.48.54-.66.75-.17.49-.32.93-.46,1.36.07.05.13.1.19.14-.08.26-.16.51-.24.76-.11.13-.22.26-.34.41-.06.18-.11.36-.19.55-.02.05-.11.13-.13.23.05.07.03.13,0,.18-.02.04-.06.12-.08.14-.16.12-.21.1-.18,0,.03-.12.09-.23.23-.34.02-.02.07.02.04.03-.13-.1-.22-.17-.31-.24-.19.09-.45.26-.53.23-.3-.12-.28-.15-.78.38-.06.18-.13.36-.2.55-.35.18-.71.36-1.05.54-.08.2-.15.37-.22.54-.29.12-.53.22-.78.57-.21.4-.26.74-.4,1.12-.11.13-.23.26-.35.39-.35.18-.71.35-1.03.51-.21.35,0,.31.06.44-.08.21-.17.47-.29.76-.25.28-.44.61-.48.9-.11.13-.22.26-.34.41-.36.18-.73.37-1.09.55-.36.41-.71.8-1.1,1.24.03.11.06.23.09.35.39-.18.76-.35,1.12-.52.06.05.12.09.2.15-.16.25-.33.5-.49.76l-.3.94c-.12.13-.23.26-.34.39-.19.1-.38.19-.56.29-.12.14-.23.27-.33.39-.07.2-.14.39-.22.59-.23.26-.46.51-.64.72-.1.24-.17.43-.25.62-.4.39-.74.78-.79,1.17,0,.04-.08.13-.13.19-.29.31-.37.52-.2.62.1.06.18.13.25.18-.09.3-.17.55-.25.8-.19.1-.38.2-.54.28-.37.42-.72.81-1.06,1.19-.17.52-.33,1.02-.48,1.52l-.32.39c-.29.74-.29.79-.13,1.13-.21.63-.43,1.32-.66,2.01.06.05.11.1.16.15-.05.19-.1.37-.15.56.12.09.24.18.34.26-.03.09-.05.16-.07.22-.16.39.2.43-.05.89-.02.04,0,.1.03.11.19.06.02.36-.04.59.05.05.1.11.16.17-.05.17-.1.35-.15.54.06.04.12.09.18.14-.3.94-.6,1.88-.9,2.82-.02.06-.07.13.13-.22-.38.6-.5.8-.61.97.08.06.14.11.2.15-.05.19-.11.37-.16.56.12.09.24.18.35.27-.17.37-.17.6,0,.72-.22.68-.44,1.38-.67,2.07.06.05.12.09.18.14-.05.19-.11.37-.17.58.37-.07,0,.45.06.7.08.06.19.15.3.23-.05.16-.09.29-.13.41.06.2.19.32.43.31l.38-.18.12.02c.26.07.28.06.61-.3.17-.19.34-.38.49-.55.54-.15.89-.64,1.25-1.12.04-.13.08-.25.12-.38.23-.35.56-.65.83-.98.33-.39.72-.75.98-1.17.04-.13.08-.26.13-.4.22-.25.45-.5.68-.76.07-.2.14-.39.21-.58.22-.25.46-.51.71-.8.15-.49.31-.99.47-1.49.01-.03.08-.09.13-.15.23-.1.48-.21.75-.58.05-.14.12-.33.21-.55.2-.23.44-.49.69-.78.16-.08.35-.18.54-.28.34-.39.69-.78,1.04-1.17.07-.19.13-.38.19-.54.49-.55.95-1.07,1.39-1.57.21-.11.4-.21.6-.32,2.57-2.89,5.13-5.78,7.66-8.63.22-.15.36-.12.55-.35l.3-.94c.11-.13.22-.26.34-.41.18-.09.37-.19.56-.29.23-.26.46-.52.69-.77.19-.1.38-.19.54-.28,1.54-1.73,3.05-3.44,4.56-5.14.15-.4.18-.73.44-1.17.22-.23.45-.48.63-.69.19-.09.31-.15.47-.23.32-.37.67-.75,1.06-1.2.05-.13.12-.32.19-.52.1-.12.21-.25.33-.39.36-.18.73-.37,1.08-.55.08-.21.15-.4.2-.53.63-.71,1.21-1.36,1.76-1.99.16-.08.28-.14.45-.22.51-.52,1.02-1.1,1.47-1.65.06-.18.1-.3.15-.48.31-.34.65-.73,1-1.12l1.22-1.38c.33-.39.73-.74.97-1.17.04-.13.08-.26.13-.4.22-.25.45-.51.68-.77.07-.2.13-.38.2-.58.46-.52.93-1.05,1.39-1.56.07-.2.14-.38.19-.54.26-.29.49-.55.69-.78.22-.12.4-.22.57-.31.61-.68,1.18-1.33,1.72-1.93.71-.36.76-.4.96-.94.08-.22.21-.39.36-.56.11-.38.22-.75.31-1.03.35-.39.58-.65.8-.9.07-.2.14-.39.19-.54.29-.47.6-.45.89-.72l.12-.38c.42-.62,1.06-1.14,1.46-1.77.04-.13.08-.25.13-.4l2.49-2.8c4.03-4.55,3.59-11.16-.76-15.26l-1.09-1.02c-.21-.09-.4-.17-.62-.26-1.53-1.43-3.08-2.88-4.63-4.33-.2-.08-.4-.16-.6-.24-.38-.36-.77-.72-1.15-1.07-.21-.09-.4-.17-.61-.25-.64-.6-1.29-1.2-1.9-1.77-.23-.1-.43-.19-.59-.26-.68-.63-1.32-1.23-1.87-1.74-.3-.14-.49-.23-.65-.3-.42-.4-.87-.75-.92-1.16-.19-.08-.37-.16-.58-.25-.11-.1-.23-.22-.35-.33-.21-.08-.4-.17-.61-.25-.9-.84-1.8-1.69-2.69-2.52-.21-.09-.4-.17-.61-.25l-3.48-3.26c-.33-.07-.65-.27-.99-.62-.11-.12-.26-.22-.39-.32-.13-.05-.26-.1-.41-.16-.54-.42-1.02-.93-1.53-1.4l-1.36-1.27c-.52-.47-.99-.99-1.52-1.38-.16-.06-.29-.11-.45-.17-.08-.17-.17-.34-.26-.53-.49-.46-1.01-.95-1.53-1.44-.05-.02-.12-.05-.19-.08-.13-.05-.26-.1-.38-.15-.13-.13-.26-.25-.39-.36-.06-.13-.11-.25-.16-.37-.03-.06-.07-.12-.1-.18-.5-.44-.5-.44-.69-.36-.23.09-.27.07-.65-.27-.18-.18-.36-.36-.52-.51-.32-.7-.35-.73-1.13-1.04-.24-.22-.49-.46-.79-.73-.15-.32-.31-.69-.47-1.04-.13-.13-.26-.25-.37-.35-.21-.09-.41-.17-.62-.26-.25-.24-.51-.48-.74-.7-.35-.13-.68-.26-1.08-.41-.15-.34-.29-.68-.44-1.03l-.76-.72c-.09-.18-.17-.36-.25-.53-.2-.09-.4-.17-.61-.26-.25-.24-.51-.47-.75-.7-.53-.1-.93-.56-1.33-1-.05-.12-.1-.24-.16-.37-.11-.06-.25-.15-.34-.18-.22-.06-.4-.25-.6-.44-.08-.17-.16-.35-.25-.54-.39-.25-.33.19-.74-.08q-.61-.58-.86-.94c.18.06.35.11.53.17-.01-.04-.02-.09-.05-.15-.03-.06-.08-.13-.13-.18l-.58-.55c-.45-.41-.87-.86-1.35-1.22-.14-.05-.27-.1-.47-.18-.85-.8-1.75-1.64-2.65-2.48-.05-.05-.08-.12-.12-.18l-.16-.36c-.12-.12-.24-.24-.43-.42-.21-.06-.45-.13-.75-.22.03.09.08.24.13.4-.03,0-.07.02-.11,0-.32-.19-.64-.49-.99-.6-.26-.08-.51-.38-.59-.66.16-.15.33-.29.49-.46.02-.02-.05-.12-.1-.24-.37-.14-.74-.28-1.11-.42l-.39-.36-.89-.34L10.89.48C7.35-.86,3.31.71,1.86,3.98c-.73,1.65-.66,3.44.04,4.96l.04.08c.05.12.04.24-.05.36-.18.11-.39-.16-.55.18-.07.49-.03,1-.03,1.5,0,.58-.04,1.18.07,1.95.24.52.54,1.17.84,1.81-.16.2-.16.19-.29.2-.11.01-.22.05-.32.07-.07.58-.07.58.05.94.18.51.18.58,0,1.05-.03.06-.05.12-.09.21,0,.65,0,1.32,0,2.06.06.14.13.32.21.52,0,.15,0,.32.01.48.09.47.38.11.47.55,0,.35,0,.69,0,1.02q-.27.38-.57-.22c-.15.31-.16.31-.1,2.33.06.12.11.24.17.37.1.89-.03,1.83.08,2.72.13.23.24.47.2.84.17.35.34.7.47.96,0,1.7.01,3.23.02,4.74.08.2.16.38.24.58,0,.85,0,1.69,0,2.49.09.22.16.41.24.62-.05.5.03,1.01-.04,1.5l-.17.36c-.01.07-.03.15-.03.22v2.04c0,.16-.02.31-.04.52-.21.45-.43.92-.65,1.37,0,.37,0,.71,0,1.04.11.25.23.49.35.76.3,0,.61,0,.92,0,.03,0,.06.09.09.15.09.48.04.99.05,1.49.02.59-.03,1.18.04,1.76.03.06.05.13.09.18.09.13.11.25.07.36-.02.06-.06.14-.09.15-.15.02-.31,0-.44,0-.11-.2-.19-.36-.29-.55-.17.14-.39-.15-.54.29,0,1.18,0,2.37.01,3.57.16.36.32.72.47,1.08-.1.51.17.67.19.96-.11.31-.21.57-.29.78-.35.03-.35.04-.37.74-.07.17-.15.36-.23.55,0,.15,0,.32,0,.49.07.23.18.23.29.29.1.05.18.27.31.46.11,0,.26,0,.42,0,.09.18.17.34.26.51.08.13.12.25.09.36-.04.18-.11.23-.2.18-.09-.06-.17,0-.19.19,0,.1.06.24.1.36.02.07.05.12.08.18,0,.08.01.16.02.24,0,.32-.06.55-.16.56-.07.01-.17.02-.22-.07-.23-.46-.45-.95-.67-1.43-.03.05-.06.08-.08.14-.02.06-.04.14-.04.21v.51c.02.67-.04,1.35.04,1.99.06.14.12.26.18.38.09.73-.04,1.5.08,2.2.07.14.12.26.19.4,0,.32,0,.65,0,.99.08.19.16.38.24.57,0,.33,0,.67,0,1,.08.19.16.37.23.54,0,.7,0,1.38,0,2.03-.08.21-.16.4-.24.6,0,.51,0,1.01,0,1.48-.23.51-.45.99-.68,1.49,0,.49,0,1,0,1.5-.08.19-.16.38-.24.57,0,.16,0,.33,0,.49.08.19.16.37.24.55,0,.18,0,.35-.01.49-.08.2-.15.39-.24.6.04.22.07.45.11.66.1,0,.18,0,.26,0,.08-.16.16-.33.24-.5.08,0,.16,0,.26,0,.03.21.07.44.1.63.17.36.33.71.46.98,0,.86,0,1.54,0,2.22l-.33.72c-.31.05-.36-.02-.37-.56,0-.17.01-.35,0-.51-.02-.15-.07-.28-.11-.42-.08,0-.15,0-.25,0-.1.23-.2.47-.33.77,0,1.12,0,2.3.01,3.49-.08.2-.15.39-.23.58,0,.15,0,.31-.01.49.08.18.16.36.24.55,0,.68,0,1.36,0,2.03-.08.19-.16.38-.24.57,0,2.21.01,4.42.02,6.61-.14.32-.28.62-.42.92-.03.41-.06.82-.26,1.07,0,.32,0,.65,0,1.05.06.14.13.32.21.52-.07.17-.15.35-.22.54,0,.16,0,.33,0,.48-.08.19-.16.38-.22.53,0,.38,0,.71,0,1,.09.22.16.41.21.53,0,.41,0,.74,0,1-.09.25-.16.44-.21.59-.02.57.04,1.07-.05,1.61-.13.15-.21.42-.17.84.06.16.14.34.23.55,0,.65,0,1.33,0,2.02-.07.17-.15.36-.23.55,0,1.19,0,2.38.01,3.55-.08.2-.16.38-.24.58,0,.51,0,1.01,0,1.47-.09.22-.16.41-.22.58,0,.81,0,1.58,0,2.34,0,.08-.02.15-.03.23-.28.68-.28.72.03,1.44,0,1.5,0,3.03.02,4.61-.06.14-.13.33-.22.53,0,.48,0,.99,0,1.51.07.17.15.36.23.55,0,.67,0,1.35,0,1.89.12.56.36.74.44,1.22l-.17.37c.08.48.29.71.43,1.09,0,.16,0,.33,0,.54-.1.2-.21.43-.36.73-.07.08-.26-.11-.31.32l.67,1.44c0,.08.02.16.02.24-.02.29.04.51.16.56.11.05.23.01.31.27,0,.16,0,.32,0,.5-.07.18-.15.36-.23.54,0,.18,0,.35,0,.5.23.49.45.97.67,1.45.01.08.02.16.03.23q.06.56.37.64l.33.72-.23.55c0,.17,0,.34.01.49.08.2.16.38.24.58,0,1.87.01,3.74.02,5.38.23.59.4,1.05.57,1.47.27,0,.5,0,.73,0,.12.4.29.54.49.56.14.3.28.6.43.94.16-.34.32-.67.48-1,.08,0,.16,0,.23,0,.31.67.61,1.33.92,1.99.05.1.28.04.31-.1.03-.14.06-.31.05-.46,0-.42-.29-.56-.24-1.07,0-.11-.07-.28-.12-.39-.11-.24-.22-.48-.33-.72.16-.32.16-.33.55-.22.16.28.28.49.39.68,0,.41,0,.75,0,.97.21.5.39.94.57,1.37.13-.28.24-.52.35-.77,0-.33,0-.66,0-1.01-.07-.17-.15-.35-.23-.54l.33-.72c.08-.01.15-.02.24-.04.08-.16.16-.33.25-.51.23,0,.46,0,.71,0,.1-.23.22-.46.31-.73.04-.11.02-.32.03-.48-.12-.33-.23-.66-.41-.83-.31-.05-.62.09-.92-.07-.11-.25-.21-.48-.31-.71.04-.09.07-.2.09-.2.31-.01.62,0,.95-.01.06.13.15.3.24.48h.22c.09.18.17.35.25.51.08-.01.16-.02.24-.03.11-.24.22-.48.33-.73,0-.16,0-.33,0-.49.06-.1.11-.24.18-.27.07-.03.16,0,.21.09.12.21.22.47.33.71,0,.36,0,.69,0,1,.04.08.07.14.09.2.04.12.07.24.1.35-.06.13-.13.23-.17.37-.11.41,0,.84.22.84.12,0,.23,0,.33,0,.12-.27.23-.51.34-.76,0-.38,0-.41.1-.75.25-.02.51-.04.74-.06.08-.18.13-.33.19-.42.14-.19.33-.05.37.26.02.15,0,.42.03.47.24.35.21.85.21,1.36,0,.26.09.4.24.4l1.05-.02s.06-.1.08-.18c0-.04,0-.13-.02-.17-.05-.12-.11-.24-.18-.4,0-.3-.01-.63,0-.96,0-.1.09-.17.12-.23.12.23.24.46.35.66,0,.22,0,.38,0,.61l.31.22c.1-.19.18-.36.27-.53.08.16.16.32.25.49.07,0,.15,0,.22,0,.09.17.17.33.25.48.12-.26.23-.5.34-.74v-.5c-.08-.18-.16-.37-.24-.55,0-.25-.03-.53.11-.72.6,0,1.22,0,1.84,0,.09-.18.17-.34.28-.54.18.42.36.86.55,1.29-.03.06-.08.22-.13.24-.15.06-.3.05-.45.09-.03,0-.06.11-.08.17,0,.17,0,.34,0,.52.11.24.22.48.35.74.14,0,.29,0,.47,0,.16.35.33.7.49,1.06l.08.18c.09.2.02.76-.12.82-.11.05-.23-.02-.31.24,0,.16,0,.33-.01.51-.07.17-.15.36-.23.54.11.24.22.48.35.76.45,0,.91,0,1.38,0,.03,0,.06-.09.11-.16.02-.37.04-.78.06-1.17.14-.31.28-.59.41-.92.04-.11.02-.32.03-.51-.07-.17-.15-.36-.23-.56,0-.15,0-.32-.01-.49l-.23-.54c.08-.18.15-.37.23-.54,0-.19.01-.35.02-.52.05-.12.11-.24.16-.36.05-.12.03-.24-.07-.36h-.46q-.17-.53,0-1.04c.23,0,.46,0,.69,0q.23-.48.34-.26c0,.16,0,.32,0,.49.25.55.49,1.09.66,1.47.07.43.11.65.15.86.18,0,.34,0,.49,0,.09.18.17.35.25.5.17,0,.32,0,.47,0,.12-.25.23-.5.34-.75,0-.16,0-.33,0-.48-.2-.42-.39-.84-.6-1.31-.07-.05-.21.09-.28-.16-.04-.13-.05-.31-.05-.46,0-.25.01-.49.03-.73,0-.07.05-.12.08-.18.11-.04.26.12.31-.19.04-.25-.11-.36-.17-.54,0-.16-.01-.33-.02-.53-.15-.34-.31-.71-.47-1.08,0-.5,0-1.01,0-1.49-.08-.2-.16-.39-.23-.56.02-.7.02-.7.34-.73.16.33.33.67.5,1.01.14-.56.14-.58.04-1.41l-.32-.18-.42-.9c-.07-.02-.15-.04-.24-.06-.07-.15-.16-.32-.24-.48-.18-.39-.19-.54,0-1.04.08-.22.1-.42.11-.67,0-.11.08-.21.13-.32.06.12.11.25.17.36.08.15.26.16.32.04.14-.3.27-.6.41-.91.05.1.13.19.13.29.02.33,0,.66,0,.94.28.6.53,1.13.78,1.68.02.05.06.07.12.14.08-.07.18-.15.28-.23,0-.57,0-1.08,0-1.86-.12-.18-.32-.47-.41-.61-.07-.47-.11-.69-.14-.9-.18,0-.34,0-.51,0-.1-.24-.2-.49-.32-.76.04-.42.22-.21.34-.32.14-.3.27-.6.43-.94.08.14.16.28.27.48.08,0,.19,0,.31,0,.17,0,.17,0,.26-.6.02-.15.06-.3.11-.41.07-.15.11-.25.07-.38-.12-.21-.23-.45-.18-.89.06-.15.13-.33.23-.57-.11-.2-.23-.4-.39-.68,0,0-.08-.02-.16-.05-.23-.32-.39-.8-.6-1.2.02-.51.21-.27.33-.36.1-.57.42-.33.57-.73,0-.33,0-.66,0-1.12-.08-.16-.21-.37-.32-.61-.13-.32-.26-.62-.39-.93.03-.39-.09-.62-.2-.84,0-.65-.21-1.02-.43-1.36-.07-.02-.15-.04-.12-.03-.27-.48-.48-.85-.66-1.17.08-.43.21-.3.33-.34.08.17.17.34.25.51.27,0,.54,0,.82,0,0-.26,0-.51,0-.92ZM20.45,121.17s-.04-.12-.03-.16c.04-.19.09-.2.15-.1.06.11.09.23.06.4,0,.03-.07.02-.1,0,.32.33.25.47.25.46-.05-.06-.11-.13-.14-.23-.05-.21,0-.32.1-.22.05.05.08.19.11.3-.34-.33-.37-.39-.39-.45ZM57.11,49.45c.14-.11.28-.06.59.23l.36.34.25-.23c.26.1.52.2.78.3.27.34.08.35-.06.41-.33-.18-.59-.12-.97-.48-.02.02-.03.08-.08.06-.28-.1-.57-.21-.86-.33-.04-.02-.11-.1-.17-.16-.4-.09-.46-.23-.45-.23.08,0,.18.02.27.08.2.12.24.23.09.22-.07,0-.2-.08-.3-.14.43.04.48-.01.54-.06ZM22.42,22.99c.26.1.52.2.78.3.61.53.63.59.33.77-.22-.03-.4-.25-.57-.4-.28-.19-.5-.11-.79-.43-.28.01-.28,0-.94-.31-.06-.36-.05-.38.4-.2l.54.51.25-.23ZM19.65,21.93c.14.34.28.69.42,1.04-.47-.2-.78-.57-1.09-.95-.04-.05-.05-.12-.04-.15.03-.07.08-.12.13-.17-.02-.12-.1-.24-.24-.36l-.38-.36c-.38-.37-.41-.46-.15-.63.26.1.52.2.78.3.12.11.25.23.35.32.29.18.5.11.8.43l.24-.22.56.2.16-.15.77.29c.29.2.52.42.55.66l-.18.13c-.69-.26-1.38-.53-2.19-.84-.11.1-.3.28-.5.45ZM14.32,20.35s.03.11.07.17c.02.04.1.1.14.12.32.12.65.25.98.37l.39.35c.03.11.13.26.09.31-.14.17-.24.39-.76.1-.23.16-.66,0-1.14-.25l-.19-.18c-.06-.06-.16-.15-.16-.18,0-.38-.76-.89-.79-1.28,0-.09-.07-.22-.11-.33l.97.37c.12-.03.23-.07.36-.08.11,0,.26.1.38.25.12-.07.18-.04.24-.02.04.02.12.06.14.09.11.16.09.2-.03.17-.12-.04-.24-.11-.34-.24-.02-.02.03-.06.07-.06-.16.14-.25.21-.32.3ZM18.31,125.17c.07-.17.14-.35.22-.53l-.67-1.44c-.05-.4-.07-.8,0-1.2.16-.32.37-.06.54-.17.09-.18.18-.35.25-.5.09.02.16.03.24.05l.42.9c.24.12.31.2.51.58.09,0,.21,0,.32,0,.16,0,.25.12.26.34.01.25,0,.5-.1.67-.03.05-.06.12-.09.18.06.49.28.7.42,1.1,0,.48,0,.99,0,1.53.19.41.37.84.58,1.23.05.09.14.05.23.07.08-.15.16-.32.25-.49.07,0,.14-.02.24-.03.26.6.53,1.21.79,1.83-.05.13-.13.31-.21.5,0,.33,0,.67,0,1-.11.25-.22.49-.34.74-.3,0-.61,0-.94,0-.15-.32-.32-.66-.48-.99-.08,0-.16,0-.23,0-.03.07-.08.13-.08.19,0,.5-.02,1-.03,1.5,0,.11-.09.2-.13.3-.22-.48-.44-.96-.68-1.46-.14,0-.29,0-.46,0-.11-.23-.23-.45-.33-.7-.04-.11-.06-.31-.04-.46.01-.14.07-.26.11-.38.08.17.17.34.25.5.08-.01.16-.03.24-.04.11-.24.22-.48.33-.73,0-.16,0-.33,0-.5-.08-.37-.27-.19-.39-.37-.09-.14-.15-.34-.27-.43-.37-.28-.37-.31-.51-1.12-.01-.08-.02-.14-.04-.22-.05-.19-.21-.24-.15-.54.03-.14.1-.24.17-.39l-.21-.53ZM12.06,52.77c-.06-.12-.11-.24-.18-.38-.29-.17-.6,0-.9-.08-.06-.02-.12-.16-.18-.25v-1.02c.05-.19.11-.24.16-.15.09.15.14.41.27.4.04,0,.08,0,.13,0,.08-.15.16-.32.25-.5.06,0,.14,0,.21,0,.12-.15.12-.39.15-.63.02-.22.12-.4.22-.72.03-.18,0-.52,0-.85,0-.21-.08-.31-.25-.36l-.11-.03c-.12-.36-.28-.56-.47-.54-.12-.25-.23-.48-.34-.69,0-.37,0-.71,0-1.04.15-.44.36-.18.56-.27.24.49.48,1.01.73,1.53.09-.17.17-.34.25-.49.3-.04.3-.05.33-.46.05-.66.16-.73.46-.31,0,.17,0,.33,0,.51.39.83.78,1.66,1.17,2.5,0,.85,0,1.69,0,2.54.08.19.16.38.24.58,0,.15,0,.31.01.5.08.17.15.36.23.54-.14.43-.35.17-.54.29-.27-.48-.49-1.06-.75-1.57h-1.17c-.17.32-.29.74-.49.97ZM13.05,26.25c.09.01.16,0,.2-.18.03-.12,0-.23-.08-.36-.03-.05-.06-.12-.08-.18.01-.44-.17-.96.1-1.31.11.24.22.48.33.72,0,.16,0,.33,0,.49.08.19.16.37.24.55,0,.34,0,.67,0,1,.08.19.16.37.24.54,0,.18,0,.34,0,.49-.08.19-.15.38-.22.54,0,.19-.01.36-.02.52l-.33.72c-.08,0-.15,0-.29,0-.12.32-.26.71-.38,1.03-.35-.04-.35-.05-.38-.46-.04-.48-.04-.48-.27-.57-.04-.01-.07-.04-.09-.05-.12-.25-.23-.48-.34-.71,0-.53,0-1.03,0-1.53-.08-.18-.16-.37-.23-.54,0-.86,0-1.7,0-2.6.09-.08.19-.16.3-.24.3.64.71,1.06.69,2.09.27,0,.46-.02.66,0ZM12.22,17.58c.1.58.42.32.57.73,0,.16,0,.32,0,.55-.1.19-.21.42-.36.69-.15.04-.34.07-.42.56-.21,0-.4,0-.6,0q-.21,0-.26-.6c0-.08-.02-.15-.01-.12-.13-.33-.23-.58-.33-.82-.09.13-.11.27-.13.44-.06.62-.06.63-.37.55-.19-.33-.04-.8-.16-1.38-.14-.4-.44-.8-.62-1.43.03-.07.06-.19.09-.19.62,0,1.24,0,1.88-.01.15.32.32.66.48,1,.08.01.16.02.24.03ZM16.7,65.84c-.22.56-.51.16-.77.27-.25-.36-.45-.85-.64-1.36.04-.4-.07-.63-.21-.89-.03-.7-.04-1.44-.01-2.06.09-.29.19-.48.21-.7.02-.25.03-.48.13-.62.16,0,.31,0,.46,0,.2.32.08.78.12,1.23.06.15.13.33.22.56,0,.45,0,.95,0,1.57.16.27.34.59.48.84,0,.47,0,.81,0,1.15ZM60.29,57.03c-.15-.16-.15-.3-.04-.4.08-.08.16-.15.25-.22.06-.04.13-.08.19-.11.13.05.25.09.39.14.04.01.06-.01.09-.02l-.39-.9c.02-.13.06-.22.26-.17.13.03.25.13.39.27.06.06.13.12.19.18.13.11.25.23.37.33.2.08.39.17.59.25.26.24.51.47.73.68.21.09.39.17.57.25.19.4-.16.34-.22.53-.18-.06-.37-.13-.57-.2-.16.15-.32.3-.49.45-.06-.02-.13-.04-.18-.06l-1.74-.66c-.13-.11-.27-.22-.38-.34ZM16.34,30.06c-.08.19-.19.43-.29.67-.03,0-.07.05-.09.02-.14-.3-.28-.6-.42-.89-.07-.02-.15-.03-.24-.05-.08-.15-.16-.31-.26-.5-.06,0-.14,0-.24,0-.09-.23-.19-.49-.33-.83-.06-.37.02-.88-.03-1.32.1-.41.23-.68.39-.88.03.06.08.12.08.18,0,.51.02,1,.02,1.51,0,.19.09.26.15.22.14-.3.27-.6.43-.95.13,0,.28-.02.43.01.05.01.09.18.14.28q-.21.48-.01.91c.08.18.17.36.26.56,0,.31,0,.64,0,1.04ZM20.32,133.6l.33.71c0,.16.01.33.02.61.18.31.38.68.68,1.2.14.01.4.03.64.05q.09.35.09.74c-.03.06-.05.17-.08.17-.23.05-.45.07-.72.11-.05.1-.14.25-.23.42-.25.07-.51.14-.76-.05-.02-.06-.06-.12-.07-.19,0-.16,0-.33,0-.48.08-.19.15-.38.21-.52,0-.38,0-.71,0-1.02-.12-.26-.23-.49-.34-.75-.15,0-.3.03-.45-.01-.09-.03-.12-.2-.1-.32.02-.07.05-.17.08-.17.15-.02.31,0,.46,0l.24-.5ZM52.24,47.55c-.01-.08.09-.05.26.03.07.03.13.05.19.08l.58.22c.06-.04.11-.1.19-.12.12-.04.28.1.4.34l-.33.3c.02.06.03.12.07.18.29.41.75.71,1.06,1.06.16.09.3.17.42.22.45.2.53.27.76.73-.11.1-.22.2-.33.3-.27-.1-.53-.2-.8-.31-.24-.22-.49-.46-.78-.73-.07-.15-.15-.33-.25-.52-.24-.22-.49-.46-.75-.7l-.25-.55c-.16-.17-.43-.33-.46-.53ZM62.43,60.18c.44-.21.87-.42,1.3-.63-.2.61-.4,1.22-.63,1.9-.03.04-.14.17-.27.33-.22.11-.47.24-.69.35-.26.08-.28-.12-.43-.17-.06-.37.32-.97.33-1.34.17-.19.28-.32.39-.44ZM18.54,52.95c.03.22.13.4.22.65,0,.26,0,.6,0,1.07-.17.31-.37.7-.6,1.13-.07-.15-.18-.36-.28-.56-.02-.17-.05-.33-.05-.48v-2.04c0-.07.01-.15.03-.24.16-.38.37,0,.52-.2.13.2.12.45.15.69ZM20.69,119.81c-.14,0-.29,0-.43,0-.07.15-.12.28-.18.38-.1.16-.24.19-.31.01-.13-.37-.32-.38-.49-.53-.03-.02-.04-.11-.06-.17.26-.21.14-.91.33-1.24.38,0,.77,0,1.19,0,.08.21.18.47.29.75-.05.32-.2.55-.36.8ZM56.96,70.26c.07.06.13.1.19.14-.07.27-.28.58-.53.69-.33.14-.6.44-.9.67-.05.04-.11.05-.17.07-.18-.13-.35-.27-.53-.41.25-.56.77-1.01,1.19-1.46.27-.14.51-.26.75-.38.07.05.13.1.2.15-.06.16-.13.35-.2.52ZM63.71,55.29c-.05-.04-.12-.1-.18-.15-.39-.33-.7-.38-.64-.1.02.11.13.25.14.36.04.23-.1.28-.4.13-.13-.12-.26-.24-.4-.37-.15-.55.43-.48.48-.85.21.06.39.12.59.18q.36-.12.92.36c.26.1.51.19.77.29.16.05.27.1.34.2.11.15.08.22,0,.26-.1.05-.17.15-.26.22-.45-.17-.9-.35-1.36-.52ZM21.7,124.38c-.08-.16-.16-.33-.25-.51-.15,0-.3,0-.45,0-.18-.48-.18-.48-.02-1.02.23,0,.46,0,.69,0,.08-.16.16-.33.25-.51.07,0,.14,0,.22,0,.1.13.13.34.13.61s.13.38.19.58c.09.31.06.61-.07.85-.23,0-.46,0-.69,0ZM64.1,59.18c.03-.12.06-.23.09-.33l.08,1.61c-.11-.04-.2-.06-.26-.06-.13.01-.16.16-.45,0-.28-.26-.6-.56-.92-.86q-.33-.31-.23-.58s.07-.04.13-.02c.77.29,1.53.58,2.39.91l-.02-.46-.02.05c-.52.14-.51-.27-.8-.27ZM12.69,56.18c0,.17,0,.33,0,.56-.09.07-.19.14-.41.3-.07.19-.21.58-.33.9-.14,0-.22,0-.3,0-.11-.24-.22-.48-.34-.74.07-.17.14-.35.22-.56,0-.21,0-.46,0-.71,0-.48.2-.72.38-.47.06.09.11.23.19.4.26.09.47-.17.6.32ZM18.46,134.1c.08,0,.16.02.22.02.2.43.4.84.59,1.25-.07.09-.13.24-.19.25-.19.03-.39.01-.58.01-.18-.11-.25-.7-.49-.51-.15-.25-.3-.5-.4-.94.03-.18.07-.4.11-.6.18,0,.34,0,.49,0,.09.18.17.35.25.51ZM20.5,114.67c-.08.17-.16.34-.25.51-.31,0-.62,0-.93,0-.03,0-.07-.1-.08-.17-.03-.12,0-.25.1-.33.03-.03.08,0,.12,0,.19-.05.19-.05.22-.69.11-.33.23-.65.4-.84.04,0,.08-.03.12,0,.28.28.44.84.64,1.29-.08.31-.21.22-.32.24ZM23.06,108.03c.08,0,.15,0,.22,0,.19.32.07,1.02.33,1.23,0,.16.01.33.02.52.07.17.15.35.22.53-.06.23-.16.27-.27.28-.12,0-.17.3-.27.42-.14.18-.28.13-.38-.19,0-.18,0-.34,0-.49.08-.2.16-.38.23-.55,0-.18-.01-.35-.02-.51-.15-.37-.35-.65-.47-1.16.03-.18.07-.4.11-.63.1.21.18.38.27.55ZM48.19,79.46q.24-.52.71-.78c.06.04.13.08.19.11.19-.08.37-.16.51-.22.14.1.25.19.36.28-.09.27-.17.52-.25.77-.37.28-.35-.16-.76.16-.21.24-.44.5-.66.75-.2.13-.26.13-.22,0l.3-.94-.18-.14ZM64.85,61.71c-.07.22-.12.45-.23.71-.04.11-.18.28-.29.38-.11.1-.24.15-.35.22-.06-.05-.12-.09-.18-.14.04-.13.08-.26.12-.38.02-.06.02-.11.03-.18-.17-.13-.35-.26-.51-.39.02-.23.23-.42.49-.73.17-.07.41-.16.65-.26.13-.05.26.05.22.21-.03.12-.08.25-.12.37.05.06.1.11.16.18ZM12.4,38.27c.1-.23.2-.46.29-.69.14-.07.17.25.25.34.13.12.3.03.4.36.06.2.15.37.21.5,0,.4,0,.73,0,1.01-.09.33-.21.23-.32.25-.22-.19-.06-.81-.25-1.02h-.23c-.11-.24-.22-.48-.35-.75ZM35.54,97.98c.26-.29.48-.54.71-.8.21-.13.31-.1.41-.04.1.06.32-.11.49-.17.03-.01.05.03.04.06,0,.05-.03.13-.07.18l-1.7,1.92s-.12.07-.26.16c.15-.5.27-.92.39-1.32ZM15.08,36.46c.07,0,.15,0,.23,0,.19.36.39.71.4,1.35,0,.06.05.13.08.17.08.12.11.24.08.35-.04.17-.11.19-.19.17-.11-.03-.23,0-.36,0-.09-.22-.2-.46-.35-.83.03-.45-.07-.89.12-1.21ZM14.61,39.53c-.1-.23-.2-.47-.32-.76-.06-.41-.02-.9-.02-1.38,0-.13.07-.26.1-.4.21.34.38.72.41,1.34,0,.13.12.22.15.36.03.13.05.31.04.45-.01.14-.07.26-.11.39-.08,0-.15,0-.24,0ZM47.49,83.86q.22-.1.07.4c.11.09.23.18.37.29-.09.23-.19.48-.3.77-.25.21-.5.3-.75.36.04-.13.12-.28.11-.37,0-.13-.12-.19-.1-.34.02-.21.11-.47.15-.64.21-.23.33-.35.45-.48ZM17.56,47.41c0,.21.01.45.02.69,0,.59-.02.61-.35.63-.11-.23-.22-.47-.34-.73,0-.21-.01-.45-.02-.69,0-.59.02-.61.35-.63.11.23.22.47.34.73ZM21.63,102.95c.13.18.23.47.36.75-.11.1-.2.18-.28.26-.08-.12-.15-.19-.2-.3-.17-.36-.33-.71-.47-1.02.04-.76.05-.85.35-.73.2.09.07.77.25,1.03ZM67.06,61.14l.05-.07.22-.29c.67-.88.49-2.09-.37-2.78-.3-.24-.58-.49-.8-.77-.17-.26.03-.24.08-.33.19.04.37.18.56.36.2.19.38.19.56.28.01,0,.04.02.06.04,1.11.91,1.29,2.44.45,3.54l-.26.34s-.06.07-.08.08c-.24.12-.48.25-.72.38.09-.29.17-.53.25-.77ZM50.47,82.17c-.47.55-.47.55-.47.07,0-.05-.01-.09-.04-.11-.16-.1-.12-.28.18-.61.21-.22.19-.38.27-.57.05-.12.17-.22.29-.23.09,0,.13.08.19.13l-.42,1.32ZM56.5,53.19c.17.16.3.28.42.39.1.41.1.41-.35.29l-1.13-1.06c-.15-.42-.14-.42.3-.33.08.17.16.35.25.55.18.06.36.11.51.16ZM61.64,65.47c-.1.06-.26.18-.29.16-.2-.11-.36-.26-.54-.39.24-.51.24-.51.71-.78l.35.27c-.08.24-.16.49-.24.74ZM14.31,17.11c-.03-.06-.07-.13-.07-.18,0-.07.11-.04.27.04.39.18.75.24,1.22.53.11.15.24.32.39.51-.51-.19-.96-.37-1.42-.54l-.39-.36ZM44.53,88.67c.07.19-.17.54-.18.76-.15.16-.26.29-.36.41-.29.16-.44.12-.41-.1.03-.21.13-.46.2-.7.27-.13.51-.24.75-.36ZM29.45,33.22c.37.15.62.53.94.78.1.16.13.27.03.23-.44-.17-.87-.33-1.3-.49-.06-.34-.06-.35.33-.52ZM43.96,87.81l.69-.77q.44-.15.36.28l-.69.77q-.44.15-.36-.28ZM34.8,97.76c-.08-.24.17-.61.17-.84.22-.24.41-.53.63-.5-.14.44-.27.86-.42,1.32-.14.01-.28.02-.38.03ZM16.72,37.47c-.16-.36-.16-.48,0-1.03.16.35.31.68.48,1.04.07.14.1.23.07.35-.05.15-.11.2-.19.16-.04-.02-.07,0-.11,0-.08-.17-.16-.35-.24-.52ZM11.03,17.37c-.06-.02-.12-.08-.24-.15-.11-.14-.25-.31-.47-.6.52.22.96.4,1.4.58.03.01.1.08.13.12.11.15.1.23,0,.25-.04,0-.06.05-.11.1-.21-.09-.46-.19-.71-.3ZM22.47,100.67c.03-.47.2-.28.32-.32.08.17.16.35.24.52.16.35.15.48,0,1.01l-.56-1.21ZM18.52,120.04c0-.25,0-.5,0-.74-.01-.19,0-.33.07-.43.05-.08.1-.01.16.15.07.18.17.34.24.47,0,.23,0,.39,0,.56q-.23.36-.47,0ZM50.18,46.05l-.2-.51c-.14-.35-.09-.39.35-.29.13.12.25.23.49.46-.15.24-.14.55-.64.34ZM31.55,32.93c.21.19.39.38.59.54.15.13.25.24.27.36.02.09-.06.07-.23,0-.19-.08-.37-.13-.53-.18-.17-.16-.3-.28-.43-.4-.17-.37-.03-.44.32-.32ZM10.28,142.31q-.16-.5,0-1.02h.23c.17.5.17.5,0,1.02h-.23ZM15.15,47.29c.12.17.22.43.33.65-.12.32-.26.38-.39.19-.12-.17-.22-.43-.33-.65.12-.32.26-.38.39-.19ZM21.41,104.95c.1.03.25-.12.3.18.04.25-.1.34-.16.52-.02.07-.05.12-.08.17l-.08.14c-.16-.52-.16-.52.02-1.01ZM57.4,55.26c-.16-.17-.45-.35-.44-.52.01-.14.28.06.43.09.06.01.12.04.19.07.06.03.12.05.18.08.09.4.09.4-.36.27ZM19.55,20.18c-.06-.17-.11-.33-.19-.51-.07-.15-.1-.23,0-.22.13.02.25.1.38.25.05.06.12.12.19.18.18.36.06.46-.36.3ZM19,22.78c.11.06.17.17.19.3l-.32.3c-.06-.02-.13-.04-.19-.08-.11-.06-.17-.17-.19-.3l.32-.3c.06.02.13.04.19.08ZM8.38,29.04c-.02.29.07.66-.15.72l-.32-.7c.15-.37.31-.33.47-.03ZM21.23,23.62c.34.36.07.33.02.44-.38-.13-.62-.39-.79-.73.27.1.52.2.77.29ZM16.01,68.9c.01-.23-.06-.54.08-.65.12-.09.16.22.24.35.03.05.06.11.08.17.02.06.04.12.06.17-.24.34-.24.34-.46-.04ZM16.91,93.19c.08.18.15.37.23.53.07.14.1.23.07.35-.05.16-.11.21-.19.16-.04-.02-.07,0-.11,0-.16-.51-.16-.51,0-1.04ZM3.18,72.12s-.02-.12,0-.17c.05-.26.31-.27.39-.01.01.04,0,.11,0,.17-.05.26-.31.27-.39.01ZM16.61,50.95c.04.17-.05.33-.2.34-.04,0-.08.02-.11,0-.03-.03-.06-.1-.08-.17-.03-.11,0-.24.09-.33.03-.03.07,0,.11,0,.09-.06.15,0,.19.17ZM26.4,24.51c.21.05.63.45.64.6,0,.03-.03.05-.07.04-.05-.01-.13-.03-.19-.08-.13-.11-.26-.23-.37-.35-.05-.05-.05-.12-.08-.17.02-.01.03-.05.07-.04ZM35.4,94.21c-.1.36-.34.63-.7.79.1-.36.34-.63.7-.79ZM45.38,87.58c.37-.19.49-.1.36.28-.37.19-.49.1-.36-.28ZM18.16,85.27c-.04.18-.1.24-.15.17-.03-.04-.08-.14-.08-.16.04-.18.1-.23.15-.18.03.06.08.15.07.17ZM16.55,90.91c.04-.18.1-.24.15-.17.03.04.08.14.08.16-.04.18-.1.23-.15.18-.03-.06-.08-.15-.07-.17ZM3.42,51.33s.06.1.08.16c.03.11,0,.23-.08.33,0,.01-.05-.1-.08-.16-.03-.11,0-.23.08-.33ZM13.8,14.39s-.08-.14-.08-.16c.04-.18.1-.24.15-.17.03.04.05.11.08.17-.05.17-.11.24-.15.17ZM8.4,11.85s-.08-.14-.08-.16c.04-.18.1-.24.15-.17.03.04.05.11.08.17-.05.17-.11.24-.15.17ZM12.32,9.23c.13.02.25.09.31.18.04.06.09.17.07.16-.13-.02-.24-.09-.31-.18-.02-.06-.08-.17-.07-.16ZM52.71,51.33s.11.03.18.07c.1.06.18.16.19.29,0,.01-.11-.04-.18-.07-.1-.06-.18-.16-.19-.29ZM16.04,16.26s.06.11.07.16c.02.08-.07.07-.24-.02-.02-.01-.05-.11-.07-.17,0-.07.07-.07.24.03ZM55.87,49.51s.06.11.07.16c.02.08-.07.07-.24-.02-.02-.01-.05-.11-.07-.17,0-.07.07-.07.24.03ZM53.43,74.3c0,.05-.04.16-.05.17-.16.11-.24.13-.24.04,0-.05.04-.12.05-.18.16-.1.24-.12.23-.04ZM21.31,24.73s.11.03.18.07c.1.06.18.16.19.29,0,.01-.11-.04-.18-.07-.1-.06-.18-.16-.19-.29ZM48.16,77.44c0-.12.07-.24.17-.3.06-.04.17-.1.17-.08,0,.12-.07.23-.17.3-.06.03-.17.09-.17.08ZM45,83.1c0,.05-.04.16-.05.17-.16.11-.24.13-.24.04,0-.05.04-.12.05-.18.16-.1.24-.12.23-.04ZM8.95,61.79s-.04.12-.07.16c-.05.07-.11,0-.15-.17,0-.02.05-.11.07-.17.05-.06.11,0,.15.18ZM29.74,23.83s.06.11.07.16c.02.08-.07.07-.24-.02-.02-.01-.05-.11-.07-.17,0-.07.07-.07.24.03ZM16.57,61.52s.06.1.08.16c.03.11,0,.23-.08.33,0,.01-.05-.1-.08-.16-.03-.11,0-.23.08-.33Z"/>
      <path d="M21.38,165.81c.23,0,.46,0,.68,0,.1.19.18.35.25.47.26,0,.49,0,.68,0,.14-.28.26-.51.37-.73,0-.2,0-.37,0-.53.16-.38.35-.67.48-1.18-.03-.18-.07-.4-.11-.61-.1,0-.18,0-.26,0l-.33-.72-.02-.24c-.04-.52-.07-.57-.28-.57-.11,0-.23.02-.3.03-.14.28-.25.51-.36.73,0,.54,0,1.05,0,1.55,0,.06-.05.12-.1.24-.25-.49-.47-1.06-.73-1.54-.23,0-.46,0-.68,0-.1-.19-.18-.35-.26-.5-.19.08-.41-.18-.56.26,0,.33,0,.67,0,.99.28.6.56,1.2.84,1.83.14,0,.29,0,.44,0,.09.18.17.35.26.53ZM22.88,164.52c-.16.37-.31.37-.47,0,.16-.37.31-.37.47,0Z"/>
      <path d="M23.89,80.93c.18,0,.33,0,.47,0,.13.18.09.46.13.68.04.22.14.39.22.61,0,.64,0,1.31,0,2.02-.08.45-.37.09-.46.53,0,.17,0,.34,0,.5.08.19.16.37.24.55-.01.73-.02.73-.32.74-.08,0-.16,0-.3,0-.11-.33-.25-.73-.35-1.03-.25,0-.4,0-.58,0-.04-.21-.07-.43-.1-.61.13-.49.32-.79.47-1.16-.08-.18-.15-.36-.23-.54,0-.18,0-.34,0-.41.29-.67.55-1.28.81-1.86Z"/>
      <path d="M21.02,168.17c0,.64,0,1.31,0,1.97.08.19.16.37.23.54,0,.18,0,.35.01.51.15.41.36.15.54.23.15.21.29.46.37.82-.03.06-.05.17-.08.17-.38,0-.77,0-1.2.01-.15-.37-.33-.81-.55-1.36-.04-.49,0-1.16-.02-1.88-.06-.15-.13-.33-.22-.58,0-.26,0-.59,0-.98.08-.29.2-.57.34-.74.2.43.39.84.59,1.27Z"/>
      <path d="M19.28,152.79c-.11.4-.26.82-.56.83-.08,0-.15.26-.22.39-.07-.16-.13-.28-.2-.44-.07.14-.14.3-.23.42-.13.18-.36.04-.37-.25,0-.37-.07-.62-.19-.85-.1-.18-.03-.47-.08-.68-.06-.21-.17-.36-.2-.57-.04-.23,0-.49.11-.65.38,0,.76,0,1.15,0,.26.59.53,1.19.8,1.8Z"/>
      <path d="M18.96,14.46c.3.62.58,1.2.86,1.79-.15.44-.36.18-.6.28-.11-.36-.25-.78-.38-1.2-.18.4-.29.64-.4.88,0,.16-.01.33-.02.52.15.35.31.72.47,1.08-.01.24.04.52-.09.68-.03-.02-.06-.02-.08-.06-.28-.6-.56-1.2-.85-1.83-.15-.12-.34-.13-.48-.5-.08-.23-.3,0-.38-.38,0-.17,0-.34,0-.5q.11-.22.34.25c.15,0,.3,0,.47,0,.2-.17.04-.8.23-1.01.31,0,.62,0,.9,0Z"/>
      <path d="M36.03,41.44c.14-.13.27-.25.42-.39.24.1.5.21.8.33.07.13.15.29.26.5.34.31.71.67,1.14,1.07.14.06.33.14.59.26.13.12.31.29.5.47.34.32.4.46.27.59l-.08.07-.18.13c-.06-.02-.14-.03-.19-.08-.2-.17-.38-.33-.58-.5-.12-.1-.26-.22-.38-.29-.24-.13-.23.06-.36.07-.06-.02-.13-.03-.19-.07-.26-.23-.51-.45-.88-.77-.09-.28-.19-.62-.29-.91-.36-.24-.57-.17-.86-.48Z"/>
      <path d="M22.5,29.39l-1.73-1.62c-.03-.1-.11-.25-.08-.3.11-.15.27-.26.42-.41-.04-.13-.1-.29-.16-.48q.24-.33.58-.24c.13.12.26.24.38.35.11.25.21.49.33.76-.1.09-.23.17-.3.3-.02.04.09.19.14.29.68.27.69.28.99.81l-.58.53Z"/>
      <path d="M44.22,47.24l-.38-.36-.58-.23c-.13-.12-.25-.24-.36-.34-.21-.09-.4-.16-.58-.24-.13-.13-.26-.25-.38-.38-.18-.37.12-.36.23-.49.03-.04.25.04.34.12.38.36.76.71,1.11,1.03.49.19.94.36,1.39.53l.17-.15c.25.1.51.2.78.3.05.09.15.25.13.28-.08.12-.2.21-.3.3-.39-.19-.65-.24-.77-.08l-.78-.29Z"/>
      <path d="M22.61,170.91c-.32-.69-.59-1.29-.88-1.9.08-.45-.19-.6-.2-.86.11-.32.2-.58.28-.82.22.46.42.87.62,1.27,0,.2,0,.36,0,.53.11.25.23.49.34.73.08,0,.15.02.3.04.06.17.16.43.26.68.01.03,0,.13-.01.17-.02.06-.06.15-.09.15-.23.01-.46,0-.62,0Z"/>
      <path d="M22.41,29.47c.72.27,1.17.44,1.67.63.14-.13.31-.28.47-.42.02-.02.1,0,.2.02.15.12.33.28.49.41.23.42-.12.37-.19.56-.17-.05-.35-.11-.56-.18-.15.13-.31.28-.46.42-.42-.08-.9-.31-1.33-.46-.04-.01-.1-.07-.12-.09-.12-.25-.23-.49-.33-.72.09-.08.17-.16.17-.16Z"/>
      <path d="M15.39,148.84c.15.29.23.46.31.61.08.01.19-.04.23.04.28.59.56,1.16.81,1.69,0,.25,0,.42,0,.64-.09.07-.19.15-.28.22-.23-.28-.36-.69-.53-1.02-.07,0-.15-.02-.23-.03-.08-.16-.16-.32-.26-.51-.06,0-.14.04-.21,0-.09-.06-.13-.26-.09-.31.2-.29.2-.81.25-1.31Z"/>
      <path d="M20.69,29.31c-.08,0-.15-.02-.25-.03-.25-.59-.52-1.2-.78-1.81.02-.04.07-.18.13-.21.07-.03.16-.02.21.07.15.27.28.59.42.89.07.02.15.03.26.06.22.48.47,1.01.7,1.52.09.01.17.02.25.03l.33.72c-.09.35-.27.41-.37.19-.14-.33-.34-.32-.49-.53-.16-.22-.28-.58-.42-.88Z"/>
      <path d="M23.76,77.12c-.01.2.05.48-.08.65-.05.06-.11-.02-.16-.19-.02-.07-.06-.17-.08-.17-.32.04-.46-.47-.63-.96,0-.29,0-.62,0-.87-.09-.26-.21-.46-.21-.65,0-.39-.11-.59-.21-.84-.04-.09.01-.23.09-.32.16,0,.31,0,.46,0,.26.5.01,1.14.14,1.68.17.64.47,1.06.69,1.67Z"/>
      <path d="M13.27,162.48l.24.54v1.51q-.23.38-.46,0c0-.67,0-1.34,0-2.02-.08-.17-.16-.35-.24-.54,0-.33,0-.67,0-1q.23-.36.47,0v1.51Z"/>
      <path d="M22.31,91.17c.16,0,.31,0,.46,0,.19.35.07.8.13,1.35.13.23.31.55.46.81,0,.3,0,.47,0,.64-.05.19-.11.25-.16.15-.33-.72-.66-1.44-.99-2.15-.04-.09-.04-.33-.02-.47.02-.13.09-.23.13-.32Z"/>
      <path d="M6,161.99c-.09-.18-.17-.35-.26-.53-.15,0-.31,0-.46,0-.03-.07-.07-.12-.09-.2-.08-.32-.02-.78.13-.79.18-.02.29-.18.38-.44.03,0,.07-.03.08,0,.18.43.41.78.55,1.29q-.05.66-.35.66Z"/>
      <path d="M9.95,153.01c-.1.32-.25.4-.38.19-.21-.35-.39-.78-.56-1.12,0-.26,0-.42,0-.58.07-.23.19-.33.29-.24.13.11.23.39.36.48.11.07.21.07.28.3v.98Z"/>
      <path d="M24.17,57.14v.51c-.11.24-.22.48-.34.75-.11-.22-.21-.44-.32-.65-.08-.5-.04-1.01-.04-1.51,0-.12.08-.25.12-.37l.58,1.26Z"/>
      <path d="M25.36,170.39c-.15,0-.3,0-.48,0-.06-.16-.14-.35-.2-.5-.13-.04-.26.1-.34-.18-.08-.32-.07-.64.08-.84.05-.08.15-.01.22-.01l.25.51h.46c.17.5.17.5,0,1.02Z"/>
      <path d="M24.84,120.79c.12,0,.23,0,.36,0,.11.23.23.46.32.73.04.11.02.32.03.49-.11.34-.24.62-.41.88-.1-.09-.2-.18-.29-.25,0-.65,0-1.24,0-1.84Z"/>
      <path d="M20.29,89.39c.05-.1.1-.24.17-.27.11-.06.22,0,.3.22.07.19.16.35.24.53,0,.17,0,.33,0,.55-.07.14-.15.31-.23.47-.17.34-.23.34-.47-.02v-1.49Z"/>
      <path d="M24.88,98.3c-.08,0-.15,0-.23,0-.08-.17-.16-.35-.23-.52-.16-.36-.16-.49,0-1.01.15,0,.3,0,.48,0,.09.22.18.47.3.75-.03.33-.2.49-.31.78Z"/>
      <path d="M21.19,43.6c.08.11.12.24.08.34-.1.24-.21.44-.2.82,0,.12-.07.25-.12.38h-.23c-.08-.17-.16-.37-.24-.52-.1-.18-.13-.41-.11-.65.01-.14.08-.24.12-.36h.68Z"/>
      <path d="M6.33,155.05c-.08-.15-.16-.31-.24-.45,0-.2,0-.37,0-.53.16-.36.31-.37.47,0,0,.17,0,.33,0,.53.08.14.16.31.24.45,0,.29,0,.54,0,.79.01.19,0,.33-.07.43-.05.08-.1,0-.16-.15-.07-.18-.17-.34-.23-.47,0-.23,0-.39,0-.6Z"/>
      <path d="M22.27,52.07c.15-.47.36-.21.51-.31.21.15.3.54.44.79v.49c-.1.31-.25.39-.38.19-.21-.34-.38-.77-.57-1.16Z"/>
      <path d="M23.7,88.58c.07.17.14.36.2.52.1,0,.18,0,.25,0,.13.24.16.54.08.85-.07.28-.2.14-.32.18-.07-.17-.14-.36-.2-.52-.1,0-.18,0-.25,0-.13-.24-.16-.54-.08-.85.07-.28.2-.14.32-.18Z"/>
      <path d="M25.43,156.33c0,.08,0,.17,0,.25.02.19,0,.33-.07.43-.1.14-.22.16-.3.02-.12-.19-.22-.45-.33-.69,0-.32-.01-.65,0-.98,0-.09.09-.17.13-.25.19.41.38.82.57,1.22Z"/>
      <path d="M16.42,160.18c-.11-.23-.22-.47-.34-.73.06-.16.13-.33.2-.54.08-.37-.12-.95.14-1.28h.23q.17.59-.08,1.2c-.11.42.09,1-.15,1.35Z"/>
      <path d="M13.59,154.57c.08,0,.15,0,.25,0,.07.16.14.35.2.51.1,0,.17,0,.25,0,.17.34.17.68,0,1.02-.08,0-.15,0-.25,0-.07-.16-.14-.35-.2-.51-.1,0-.17,0-.25,0-.17-.34-.17-.68,0-1.02Z"/>
      <path d="M22.56,66.09c.12,0,.23,0,.35,0,.11.24.22.48.33.72.04.77.01.84-.35.76-.11-.24-.23-.48-.33-.71,0-.26,0-.52,0-.77Z"/>
      <path d="M20.36,81.95c.1,0,.17,0,.26,0,.07.16.15.34.23.52.16.36.16.49,0,1.04-.08-.19-.15-.37-.22-.53-.13,0-.24-.02-.35,0-.09.02-.15,0-.2-.17-.03-.12,0-.21.07-.35.08-.16.15-.36.22-.51Z"/>
      <path d="M10.46,162.99c.08.18.15.37.22.53.09,0,.17,0,.25,0,.07.16.14.35.23.51.07.14.1.23.07.35-.05.16-.11.18-.2.16-.11-.03-.23,0-.36,0-.09-.21-.2-.43-.29-.69-.04-.11-.05-.31-.04-.45.01-.14.07-.26.11-.41Z"/>
      <path d="M20.05,17.27c0,.49,0,.98,0,1.48,0,.09-.09.17-.13.26-.11-.24-.22-.47-.33-.71,0-.16,0-.32,0-.62.08-.15.19-.36.3-.57.05-.08.11-.02.16.16Z"/>
      <path d="M21.87,35.93h.23c.22.39.11.89.09,1.35-.08.3-.2.15-.31.19-.11-.16-.13-.38-.13-.64,0-.32-.04-.67.12-.9Z"/>
      <path d="M17.49,164.48c0,.31,0,.56,0,.81.01.19,0,.33-.08.43-.05.07-.1,0-.16-.16-.07-.18-.17-.33-.23-.46,0-.31,0-.56,0-.81-.01-.19,0-.33.08-.43.05-.07.1,0,.16.16.07.18.17.33.23.46Z"/>
      <path d="M18.28,11.4c.17.34.17.68,0,1.02-.08,0-.15,0-.26,0-.06-.15-.14-.33-.21-.51-.16-.37-.16-.48,0-1.04.08.19.15.37.22.53.09,0,.17,0,.24,0Z"/>
      <path d="M15.14,160.93v-.49c.25-.35.3-.35.47,0,.08.16.17.33.24.46,0,.23,0,.4,0,.56,0,.07-.05.13-.08.17-.05.06-.1-.03-.16-.18-.05-.11-.12-.18-.18-.24-.03-.03-.08.02-.11-.01-.06-.07-.12-.18-.17-.27Z"/>
      <path d="M14.43,160.16c0,.25,0,.5,0,.74,0,.19,0,.33-.07.43-.05.08-.1.02-.16-.14-.07-.19-.16-.34-.24-.49,0-.21,0-.37,0-.54q.23-.36.47,0Z"/>
      <path d="M18.83,20.84c.16-.13.26-.21.34-.27.2.19.3.54.43.82-.01.23.05.5-.08.66-.05.06-.1-.01-.16-.17-.05-.13-.1-.24-.16-.35-.11-.2-.22-.41-.38-.69Z"/>
      <path d="M17.48,162.48c.01-.23-.05-.51.07-.67.14-.18.31-.17.38.17.05.27.02.64,0,.97,0,.09-.09.16-.14.24-.11-.24-.22-.48-.33-.71Z"/>
      <path d="M19.11,157.88c.18-.47.41-.22.61-.19.14.16.07.44.09.66-.06.1-.11.25-.17.28-.11.06-.21-.01-.3-.23-.07-.19-.16-.35-.24-.53Z"/>
      <path d="M22.51,89.09c-.09,0-.16,0-.23,0-.16-.54-.16-.54.02-1.01.11,0,.23.02.34,0,.09-.02.15,0,.19.18.03.11-.01.22-.08.35-.09.16-.16.33-.23.49Z"/>
      <path d="M25.33,89.09c.17.34.15.68.01,1.02-.09,0-.16,0-.26,0-.07-.16-.14-.35-.23-.51-.08-.14-.1-.24-.07-.36.05-.15.11-.18.2-.16.11.03.23,0,.34,0Z"/>
      <path d="M23.77,79.12c.02-.26-.07-.64.15-.69l.32.7c-.02.26.07.64-.15.69l-.32-.7Z"/>
      <path d="M14.34,167.35h-.23c-.17-.5-.17-.5,0-1.02h.23q.16.5,0,1.02Z"/>
      <path d="M25.88,150.96h.23c.17.5.17.5,0,1.02h-.23c-.17-.5-.17-.5,0-1.02Z"/>
      <path d="M25.43,135.35c.13-.11.22-.2.3-.26.22.14.29.57.49.8-.13.11-.22.2-.3.26-.22-.14-.29-.57-.49-.8Z"/>
      <path d="M15.95,17.03c-.17-.34-.15-.68,0-1.05.08.19.16.38.24.54.07.14.1.23.07.35-.05.16-.11.21-.19.16-.04-.02-.07,0-.11,0Z"/>
      <path d="M14.51,150.98c.11.24.22.48.33.71-.03.48-.2.28-.32.32-.17-.34-.15-.68,0-1.03Z"/>
      <path d="M19.5,170.4c-.17-.33-.17-.67,0-1.05.07.18.14.38.22.54.07.14.1.24.07.35-.04.16-.11.21-.19.17-.04-.02-.07,0-.11,0Z"/>
      <path d="M18.91,60.99c.17.33.17.67,0,1.05-.07-.18-.14-.38-.22-.54-.07-.14-.1-.24-.07-.35.04-.16.11-.21.19-.17.04.02.07,0,.11,0Z"/>
      <path d="M21.91,49.23c.15.22.11.57.12.89,0,.26-.01.48-.12.64-.15-.22-.11-.57-.12-.89,0-.26.01-.48.12-.64Z"/>
      <path d="M7.3,161.47c-.18-.48-.17-.48-.02-1.01.08.16.15.34.24.49.07.13.11.24.08.35-.04.18-.1.23-.19.18-.04-.02-.07,0-.11,0Z"/>
      <path d="M17.98,22.87c-.17.4-.33.4-.48.02.01-.23-.05-.5.07-.67.05-.07.1,0,.16.16.07.18.16.33.25.49Z"/>
      <path d="M11.23,161.64c0,.06,0,.13,0,.17-.08.26-.33.25-.39-.01,0-.05,0-.13,0-.17.02-.07.05-.15.08-.16.07-.02.15-.02.23,0,.03,0,.05.11.08.17Z"/>
      <path d="M13.96,157.13c-.15,0-.24-.16-.2-.34.04-.18.1-.23.19-.18.04.02.08-.02.11,0,.08.09.12.22.09.33-.02.07-.05.14-.08.17s-.07,0-.11,0Z"/>
      <path d="M25.44,87.81c.16-.37.31-.37.47,0-.16.37-.31.37-.47,0Z"/>
      <path d="M25.43,86.03c.03.19,0,.33-.08.42-.08.09-.15-.12-.16-.44,0-.08-.01-.17,0-.24.01-.07.05-.14.08-.17.05-.06.11,0,.15.19.01.07,0,.16,0,.24Z"/>
      <path d="M22.39,85.51c0,.32-.07.53-.15.44-.08-.09-.1-.23-.08-.42,0-.08-.01-.18,0-.24.04-.18.1-.25.15-.19.03.04.07.1.08.17s0,.16,0,.24Z"/>
      <path d="M22.02,80.41c-.17-.34-.17-.68,0-1.02.17.34.17.68,0,1.02Z"/>
      <path d="M17.21,17.87c-.05.26-.31.27-.39.01-.01-.04-.02-.12,0-.17.05-.26.31-.27.39-.01.01.04,0,.11,0,.17Z"/>
      <path d="M3.04,150c.17.34.17.68,0,1.02-.17-.34-.17-.68,0-1.02Z"/>
      <path d="M25.61,139.7c0,.32-.07.53-.15.44-.08-.09-.1-.23-.08-.42,0-.08-.01-.18,0-.24.04-.18.1-.25.15-.19.03.04.06.1.08.17.01.07,0,.16,0,.24Z"/>
      <path d="M25.82,132.55c.17.34.17.68,0,1.02-.17-.34-.17-.68,0-1.02Z"/>
      <path d="M9.79,156.11c.03.19,0,.33-.08.42-.08.09-.15-.12-.16-.44,0-.08-.01-.17,0-.24.01-.07.05-.14.08-.17.05-.06.11,0,.15.19.02.07,0,.16,0,.24Z"/>
      <path d="M12.37,156.35c.16-.37.31-.37.47,0-.16.37-.31.37-.47,0Z"/>
      <path d="M3.99,157.65c.16-.37.31-.37.47,0-.16.37-.31.37-.47,0Z"/>
      <path d="M18.48,157.03c-.03-.06-.08-.15-.07-.17.04-.18.1-.24.15-.17.03.04.08.14.08.16-.04.18-.1.23-.15.18Z"/>
      <path d="M5.86,168.98c-.03.06-.07.17-.08.16-.08-.1-.11-.22-.08-.33.02-.07.06-.17.07-.16.08.1.11.22.08.33Z"/>
      <path d="M20.7,48.12c-.03-.06-.08-.15-.07-.17.04-.18.1-.24.15-.17.03.04.08.14.08.16-.04.18-.1.23-.15.18Z"/>
      <path d="M13.55,166.16c-.03-.11,0-.23.08-.33,0-.01.06.1.07.16.03.11,0,.23-.08.33,0,.01-.05-.1-.08-.16Z"/>
      <path d="M17.6,43.44c-.03-.11,0-.23.08-.33,0-.01.06.1.08.16.03.11,0,.23-.08.33,0,.01-.05-.1-.08-.16Z"/>
      <path d="M26.31,163.82c.03.06.08.15.07.17-.04.18-.1.24-.15.17-.03-.04-.08-.14-.08-.16.04-.18.1-.23.15-.18Z"/>
      <path d="M56.9,57.84s-.08-.15-.06-.15c.08,0,.18.02.27.07.2.12.24.23.09.22-.07,0-.2-.08-.3-.14Z"/>
      <path d="M13.9,152.18c.03.11,0,.23-.08.33,0,.01-.06-.1-.08-.16-.03-.11,0-.23.08-.33,0-.01.05.1.08.16Z"/>
      <path d="M22.84,31.52s-.08-.15-.06-.15c.08,0,.18.02.27.08.2.12.24.23.09.22-.07,0-.2-.08-.3-.14Z"/>
      <path d="M35.65,41.35s-.08-.15-.06-.15c.08,0,.18.02.27.07.2.12.24.23.09.22-.07,0-.2-.08-.3-.14Z"/>
      <path d="M18.75,23.24c.05-.06.11,0,.15.18,0,.02-.04.12-.07.16-.05.07-.11,0-.15-.17,0-.02.05-.11.07-.17Z"/>
      <path d="M19.58,124.89c.11.24.22.48.33.71-.03.48-.2.28-.32.32-.17-.34-.15-.68,0-1.03Z"/>
      <path d="M13.13,49.75c0,.32-.07.53-.15.44-.08-.09-.1-.23-.08-.42,0-.08-.01-.18,0-.24.04-.18.1-.25.15-.19.03.04.07.1.08.17.01.07,0,.16,0,.24Z"/>
    </g>
  </g>
</svg>