<?xml version="1.0" encoding="UTF-8"?>
<svg id="Layer_2" data-name="Layer 2" xmlns="http://www.w3.org/2000/svg" viewBox="0 0 350.23 63.12">
  <defs>
    <style>
      .cls-1 {
        fill: #753d22;
        fill-rule: evenodd;
      }
    </style>
  </defs>
  <g id="Layer_2-2" data-name="Layer 2">
    <g>
      <path class="cls-1" d="M81.26,9.91c-.02-.13.06-.17.15-.18.02.13-.06.15-.15.18h0ZM320.17,59.8c-.13.19-.19.13-.14.04l.14-.04ZM64.64,50.53c-.13-.04-.09-.09-.04-.13l.04.13ZM278.73,13.36c-.19-.09-.14-.14-.05-.11l.05.11ZM15.57,20.41c.08.04.17.08.26.12-.2.11-.29.09-.38.06.03-.05.08-.12.12-.18h0ZM110.34,51.2c.08-.04.16-.09.26-.12.01.15-.07.2-.15.22l-.1-.11ZM331.03,59.64c-.28.05-.27,0-.12-.04l.12.04ZM284.79,55.88c-.12-.02-.08-.07-.04-.13l.04.13ZM62.62,49.49c-.22-.09-.16-.17-.07-.14l.07.14ZM275.27,59.71c-.1.04-.18.08-.27.1-.04-.15.02-.24.09-.24.05,0,.12.1.18.15h0ZM288.75,49.31c-.12.09-.19.05-.18-.07l.18.07ZM279.71,48.87c.03.09.08.17.09.25-.14.05-.23,0-.23-.06,0-.06.09-.13.14-.2h0ZM124.11,5.56c-.3.05-.29,0-.13-.04l.13.04ZM316.86,33.82c-.22.2-.31.18-.36.05.13-.15.23-.16.33-.16l.03.11ZM278.63,10.7c.04.09.12.19.12.28,0,.09-.09.18-.13.26-.03-.09-.11-.18-.11-.27s.08-.18.13-.27h0ZM67.75,51.11c-.05.09-.11.17-.16.26-.06-.08-.16-.16-.17-.26-.03-.19.14-.38.23-.27.06.06.08.17.11.27h0ZM62.62,51.68c-.05.08-.1.17-.15.25-.05-.09-.13-.19-.13-.28,0-.08.09-.17.14-.26.05.1.09.19.13.29h0ZM285.07,8.04c-.15.02-.3.05-.44.05.1-.33.25-.33.4-.22l.04.17ZM297.7,50.87c-.17,0-.25-.13-.22-.35.21-.19.44,0,.41.16-.01.07-.13.13-.2.19h0ZM136.17,48.77c-.15.08-.24.06-.33.04.15-.09.24-.06.33-.04h0ZM302.08,52.98c-.13-.02-.2-.1-.17-.23.2-.04.31.01.36.09.06.09-.04.15-.18.14h0ZM342.36,22.17c-.03.09-.03.19-.08.26-.09.13-.22.21-.38.1-.1-.31,0-.43.17-.45.09-.01.19.05.28.08h0ZM332.99,20.74c-.29.09-.33,0-.39-.04.22-.04.31,0,.39.04h0ZM341.72,20.48c.01-.09.05-.18.1-.26.17.05.21.14.21.24,0,.13-.09.18-.21.12l-.1-.09ZM69.26,49.96c-.16-.28-.1-.48.03-.5.23.2.2.34.09.46l-.12.04ZM63.61,58.14c-.08.05-.14-.02-.14-.09,0-.06.06-.14.08-.21l.05.3ZM43.89,14.77c-.06.08-.12.16-.19.23-.2-.14-.15-.26-.09-.28.08-.03.19.03.28.06h0ZM11.07,57.05c.03.1.09.21.07.3-.01.12-.13.16-.25.12-.14-.05-.18-.15-.08-.26.07-.06.17-.11.26-.16h0ZM62.59,57.73c-.11.06-.19,0-.19-.08s.08-.14.12-.21l.07.29ZM65.99,52.28c-.04-.07-.1-.14-.12-.21.14-.08.21-.04.28,0-.05.07-.11.14-.17.2h0ZM69.16,9.58c.09.04.23.06.24.12.02.07,0,.21-.08.27-.1.1-.3-.04-.31-.19,0-.08.09-.14.15-.21h0ZM65.03,58.2c-.06.08-.11.15-.17.22-.07-.08-.15-.14-.21-.22-.02-.25.03-.35.06-.44.09.04.21.06.25.14.05.07.04.2.06.3h0ZM181.19,2.14c-.04.08-.07.2-.13.26-.1.08-.35-.09-.34-.22,0-.09.07-.2.14-.26.13-.09.3.04.33.23h0ZM175.93,2.1c.05.04.17.11.29.19-.16.05-.29.1-.45.14-.24-.07-.31-.15-.38-.21.09-.04.19-.09.29-.12.04-.01.1,0,.24,0h0ZM179.77,2.3c-.06.08-.1.19-.18.24-.16.11-.31.03-.4-.12-.04-.06-.04-.24-.02-.25.14-.06.3-.1.44-.1.05,0,.1.15.16.22h0ZM64.69,55.73c0,.1.02.21-.01.3-.02.08-.11.13-.17.2-.13-.23-.18-.34-.15-.43.03-.12.12-.24.19-.35.05.09.09.18.13.28h0ZM258.34,12.02c.09.06.2.11.28.18-.03.17-.14.24-.23.22-.19-.05-.3-.29-.2-.36l.15-.04ZM78.39,10.46c.31-.07.46-.13.62-.13.09,0,.17.08.27.12-.1.05-.19.12-.29.12-.15,0-.3-.05-.61-.11h0ZM69.42,11.14c-.03.09-.05.23-.12.27-.13.1-.34,0-.38-.15-.02-.09.04-.22.12-.28.17-.1.32-.02.38.15h0ZM69.3,15.41c.1.04.23.06.28.13.03.06,0,.22-.06.28-.14.11-.35.03-.35-.13,0-.1.09-.18.13-.27h0ZM343.78,20.32c-.11-.02-.22-.03-.31-.05.14-.21.25-.23.36-.22.1.01.27.07.27.1-.02.2-.2.14-.32.18h0ZM72.99,28.62c.07.39.11.54.12.69,0,.05-.08.11-.12.16-.05-.3-.03-.45,0-.85h0ZM278.36,34.79c-.23-.19-.23-.61-.09-.74.25.2.24.6.09.74h0ZM134.04,49.17c-.04.09-.06.23-.13.27-.06.03-.18-.05-.27-.08.04-.1.06-.23.13-.26.06-.04.18.04.28.08h0ZM64.52,48.4c-.14-.25-.15-.48.01-.71.17.24.12.47-.01.71h0ZM66.09,49.6c-.02.15-.03.26-.06.36-.15.07-.24.03-.26-.04-.03-.09-.04-.21-.02-.31.02-.09.08-.19.12-.29.07.11.16.2.21.28h0ZM69.29,58.14c-.26-.15-.34-.3-.23-.46.05-.08.18-.17.24-.15.16.06.2.23.16.39-.02.08-.11.15-.17.23h0ZM286.05,56.31c.14.09.26.13.3.21.05.08.06.23.02.3-.04.08-.18.14-.26.13-.07-.02-.17-.14-.17-.23,0-.12.07-.26.12-.41h0ZM284.77,61.37c-.08-.21-.16-.34-.17-.47,0-.14.25-.22.38-.11.07.06.16.2.13.25-.06.11-.18.19-.34.33h0ZM202.62,48.16c-.04.08-.07.21-.13.23-.25.09-.49,0-.56-.17-.03-.11.08-.33.22-.37.21-.06.4.06.47.31h0ZM278.09,49.52c.19.02.3.19.3.5,0,.07-.09.14-.15.21-.2-.22-.28-.37-.32-.52-.01-.05.11-.13.17-.19h0ZM50.77,11.27c-.18.32-.37.39-.59.37-.14-.16-.16-.27-.12-.33.14-.16.32-.28.54-.25.07,0,.12.14.17.21h0ZM289.37,47.26c-.33,0-.54-.08-.74-.17-.14-.08-.14-.18-.03-.24.35.07.53.18.72.29l.05.12ZM66.63,6.08c.2.02.36.03.52.07.08.02.15.1.22.16-.09.05-.17.11-.27.14-.26,0-.38,0-.48-.03-.1-.03-.19-.09-.29-.13.11-.07.21-.15.3-.21h0ZM70.53,44.15c-.06.13-.07.25-.14.31-.05.04-.22.02-.26-.04-.09-.12-.16-.27-.19-.42-.01-.06.09-.16.17-.22.25.13.34.25.42.37h0ZM282.66,8.42c-.12-.06-.2-.11-.28-.15.21-.22.35-.31.5-.36.05,0,.15.1.21.17-.15.22-.29.28-.42.33h0ZM324.41,60.29c-.08.06-.15.15-.24.17-.15.01-.32-.02-.48-.04-.11-.17-.08-.32-.03-.33.21-.05.42-.07.64-.07.04,0,.07.17.11.27h0ZM20.33,21.28c-.34-.08-.51-.28-.43-.34.07-.06.19-.07.29-.1.22.1.31.18.32.26,0,.06-.12.12-.18.18h0ZM28.66,20.48c-.1-.02-.22-.02-.3-.07-.04-.04-.05-.19,0-.23.07-.07.17-.12.27-.15.17-.04.34.07.35.22.01.22-.17.2-.31.24h0ZM70.96,17.25c.25.28.16.61.14.92-.14.09-.25.06-.26,0-.08-.32-.11-.64.12-.92h0ZM335.25,20.61c.04.12.01.22-.12.26-.15.03-.31.06-.45.04-.07-.01-.19-.12-.19-.2-.03-.18.12-.28.27-.33.24-.09.41-.01.5.23h0ZM278.78,18.23c-.05.13-.09.28-.17.4-.03.05-.21.06-.26.02-.06-.05-.13-.2-.1-.26.07-.13.19-.23.3-.33.02-.01.13.1.23.18h0ZM278.48,32.28c-.01.11,0,.22-.05.32-.04.08-.13.18-.2.17-.08,0-.19-.09-.23-.17-.12-.27-.06-.52.16-.71.29.19.3.29.31.39h0ZM304.28,14.62c-.22-.12-.43-.2-.61-.33-.05-.04-.02-.19,0-.28.33.03.53.12.72.23.16.1.26.36.17.38-.1.01-.2,0-.28,0h0ZM260.71,13.14c-.33.26-.73.07-.8-.24-.01-.07.08-.21.15-.23.21-.05.42,0,.57.18.06.07.06.19.08.29h0ZM253.38,11.08c-.38.13-.64.06-.89-.03-.05-.02-.08-.13-.12-.2.46-.06.78-.05,1,.23h0ZM69.22,8.54c-.22-.09-.32-.27-.28-.53.02-.17.22-.35.34-.29.08.04.19.12.2.21.03.16.02.32-.02.47-.02.06-.16.09-.25.14h0ZM65.86,55.9c-.22-.24-.37-.46-.35-.75,0-.06.12-.14.2-.18.31.33.3.59.15.93h0ZM42.53,55.65c.14.07.28.1.32.18.04.06,0,.22-.06.27-.23.18-.5.23-.78.1.17-.37.37-.47.53-.55h0ZM33.09,19.81c-.07-.12-.19-.25-.22-.39-.02-.22.29-.48.42-.38.11.09.19.25.23.39.03.08-.04.22-.11.28-.07.06-.19.06-.33.1h0ZM23.54,59.01c.1.03.21.05.31.09.13.05.17.15.12.28-.07.16-.19.3-.37.26-.15-.03-.3-.12-.43-.22-.03-.03,0-.21.07-.28.07-.07.19-.1.3-.14h0ZM284.93,50.76c.24.36.24.57.22.78-.52-.3-.51-.66-.22-.78h0ZM283.82,50.29c-.05.09-.09.19-.12.29-.13-.07-.3-.12-.38-.23-.13-.18-.13-.41.01-.59.03-.05.19-.06.26-.02.21.12.23.33.23.55h0ZM285.11,53.51c-.05.11-.11.26-.19.41-.21.01-.31-.06-.32-.13-.03-.16-.03-.33,0-.49.01-.08.14-.18.2-.17.09,0,.18.1.25.18.03.04.03.1.06.2h0ZM288.74,53.57c-.06.08-.11.21-.17.22-.48.07-.76-.23-.61-.65.04-.13.14-.16.26-.12.28.09.46.26.52.55h0ZM286.91,61.26c-.08.08-.16.22-.27.29-.12.08-.33-.08-.34-.25,0-.15.04-.31.11-.43.08-.14.34-.1.39.04.04.1.07.2.11.35h0ZM286.61,59.57c-.3-.06-.42-.24-.38-.49.01-.18.11-.3.28-.32.25-.03.5.31.38.57-.05.12-.21.18-.29.25h0ZM272.37,16.67c-.24-.08-.3-.19-.29-.51,0-.18.09-.29.25-.34.41.16.43.68.18.85h-.14ZM286.41,55.04c-.37-.11-.53-.35-.44-.73.03-.09.11-.2.19-.23.08-.01.22.04.27.1.24.29.22.58-.02.85h0ZM313.27,58.53c-.1.07-.21.22-.33.23-.14,0-.29-.12-.42-.21-.13-.09-.14-.35-.02-.43.08-.05.21-.09.3-.07.22.05.4.17.47.48h0ZM173.4,2.64c-.11-.03-.27-.05-.43-.1-.06-.2-.02-.35.04-.36.21-.05.43-.07.65-.04.06,0,.15.17.15.25,0,.08-.12.15-.2.21-.04.02-.11.01-.22.04h0ZM274.27,16.97c-.21.02-.43-.15-.46-.36-.03-.24.13-.43.36-.43.26,0,.46.15.46.34.01.23-.15.43-.36.45h0ZM41.49,16.13c-.04-.09-.14-.21-.11-.28.14-.33.41-.48.77-.43.13.02.17.15.12.27-.12.27-.34.42-.62.47l-.15-.03ZM278.18,24.52c-.08-.06-.21-.13-.22-.2-.04-.33.34-.69.62-.6.19.47-.06.8-.39.8h0ZM281.43,48.16c.31.18.46.33.58.51.03.06-.05.19-.08.28-.42-.08-.62-.25-.65-.55,0-.08.1-.16.15-.23h0ZM285.11,49.29c-.23-.38-.24-.68-.01-.94.36.33.36.62.17.9l-.15.04ZM293.63,49.69c-.34-.01-.64-.12-.82-.45.49-.28.79-.16.95.17.02.06-.09.19-.14.28h0ZM288.52,51.79c-.08-.06-.22-.11-.23-.18-.04-.2-.03-.42-.02-.63.19-.11.31-.11.37-.07.24.21.26.47.15.74-.03.07-.17.1-.26.14h0ZM283.47,52.06c.21.12.29.23.28.53,0,.16-.03.32-.21.39-.38-.27-.41-.72-.22-.92h.14ZM321.68,19.46c.07.12.02.2-.1.27-.27.15-.54.14-.8.02-.09-.04-.17-.16-.17-.26-.01-.09.03-.23.1-.28.32-.25.77-.12.96.25h0ZM249.15,54.93c-.22-.04-.41-.14-.51-.37-.11-.26-.15-.53.04-.77.05-.06.19-.1.28-.08.33.08.36.36.39.63.03.23-.03.42-.2.58h0ZM286.94,52.5c-.09.26-.17.43-.21.42-.15-.04-.33-.09-.42-.21-.18-.24-.16-.52-.04-.79.06-.12.16-.15.28-.1.3.13.39.37.38.68h0ZM225.08,50.83c.36,0,.48-.02.58.01.09.02.16.08.24.13-.08.07-.14.17-.23.22-.26.1-.54.13-.81.03-.1-.2-.07-.35-.02-.36.15-.05.33-.04.25-.03h0ZM216.12,49.67c-.54-.12-.68-.4-.54-.77.03-.07.19-.16.26-.13.3.1.43.34.44.64,0,.09-.11.18-.16.27h0ZM284.14,47.99c-.06.11-.1.26-.2.38-.05.06-.19.1-.27.08-.19-.06-.31-.3-.28-.52.03-.22.21-.44.39-.42.1,0,.2.08.25.15.06.07.06.2.1.34h0ZM175.99,46.04c.16.03.36.07.57.12.13.02.19.11.13.24-.38.35-.8.32-1.07.05-.04-.04-.03-.21.03-.28.06-.06.18-.07.34-.13h0ZM39.62,56.92c-.11.01-.23.03-.32.07-.14.07-.26.05-.25-.08,0-.08.12-.2.21-.23.32-.1.65-.19.98-.25.11.14.1.28.03.3-.21.08-.43.12-.64.19h0ZM71.66,56.93c-.16.26-.36.43-.71.59-.14.06-.38-.04-.38-.17,0-.1.02-.22.08-.29.23-.25.52-.37.87-.34l.15.21ZM286.55,46.45c-.21-.07-.48-.13-.72-.23-.07-.04-.14-.19-.12-.27,0-.07.12-.18.21-.19.34-.07.64.06.88.29.06.06.12.22.08.27-.05.06-.17.08-.33.14h0ZM281.62,44.75c.11.07.27.12.38.23.19.15.21.42.09.58-.12.14-.41.17-.6.06-.25-.14-.33-.43-.17-.7.04-.07.17-.1.3-.17h0ZM289.78,61.46c-.21-.28-.23-.6-.17-.93.13-.25.22-.27.34-.19.23.19.31.45.27.73-.04.23-.19.37-.43.39h0ZM311.05,57.9c-.06.08-.11.22-.17.22-.38.06-.62-.16-.79-.46.07-.23.17-.33.24-.32.35.03.62.2.72.57h0ZM265.84,56.55c.02.19-.12.35-.28.35-.28,0-.51-.27-.45-.57,0-.09.11-.19.19-.23.26-.11.51.11.54.45h0ZM277.51,42.18c0-.61-.03-1.11-.03-1.6,0-.1-.07-.31.21-.23,0,.49,0,.99,0,1.48,0,.09-.08.17-.17.35h0ZM22.33,20.8c.14.03.31.01.46.07.07.02.12.14.15.23-.34.34-.65.38-.97.2-.06-.21-.04-.33.03-.38.08-.07.2-.08.33-.12h0ZM18.45,20.75c-.24.34-.69.34-.96.11-.05-.04-.07-.23-.01-.29.22-.24.63-.22.9.03l.07.14ZM91.14,53.81c-.24-.06-.31-.13-.37-.19.22-.22.36-.31.51-.37.38-.13.69-.09.77.08.08.15-.25.4-.58.44-.11.01-.22.02-.33.03h0ZM280.53,23.1c-.04.16-.1.43-.18.67-.02.04-.23.07-.27.03-.43-.39-.41-.95.01-1.27.24,0,.34.05.37.13.04.09.04.21.07.43h0ZM278.84,15.52c-.04.26-.08.59-.16.9-.01.08-.16.16-.25.17-.06,0-.18-.12-.2-.19-.08-.34.01-.65.16-.96.08-.2.27-.37.31-.29.05.09.07.2.14.38h0ZM286.74,7.96c.46-.15.88-.16,1.29.06.12.25.07.34-.05.38-.33.12-.65.06-.95-.08-.12-.05-.18-.23-.29-.37h0ZM150.26,4.43c-.18-.02-.24-.02-.29-.04-.1-.05-.2-.11-.29-.16.08-.13.12-.33.24-.39.31-.14.65-.2.97-.02.12.22.1.38.04.4-.25.1-.52.16-.67.21h0ZM33.99,58c-.03.09-.05.22-.12.26-.32.23-.69.29-1.09.2-.12-.2-.11-.32-.05-.38.07-.08.18-.13.28-.15.33-.06.65-.06.97.07h0ZM273.71,59.25c.04.19-.12.42-.33.47-.39.09-.76-.28-.65-.68.35-.37.9-.16.99.21h0ZM329.08,60.1c-.38.35-.72.33-1.04.21-.09-.03-.17-.17-.19-.27,0-.09.06-.24.14-.28.39-.18.76-.07,1.09.2v.14ZM308.1,56c.28.19.53.32.72.51.17.15.2.39.11.62-.06.16-.25.26-.38.18-.3-.18-.55-.41-.57-.78-.02-.14.06-.3.12-.53h0ZM288.83,61.08c0,.31-.18.55-.44.6-.24.05-.51-.24-.5-.51.01-.27.26-.51.53-.51.21,0,.4.2.41.42h0ZM63.16,45.87c-.1-.04-.25-.07-.28-.14-.06-.14-.12-.33-.08-.46.06-.22.3-.31.51-.37.15-.04.32.08.36.26.08.36-.14.65-.51.71h0ZM178.64,46.12c.16.03.38.07.6.11.14.02.21.12.14.24-.04.08-.14.17-.23.18-.27,0-.55-.02-.82-.07-.07-.01-.12-.17-.16-.27.19-.14.3-.16.46-.2h0ZM67.62,47.99c.21.38.21.75.08,1.14-.57-.26-.57-.64-.35-.99.04-.08.18-.1.28-.15h0ZM27.05,20.53c-.14.51-.71.65-.98.41-.12-.11-.11-.32,0-.44.22-.21.48-.28.77-.21.08.02.13.16.2.24h0ZM182.75,1.81c.23,0,.34-.01.44.01.1.03.23.1.25.17.02.08-.03.22-.1.29-.32.31-.69.33-1.07.13-.08-.04-.14-.15-.19-.24-.08-.12.08-.29.28-.32.16-.02.33-.03.38-.04h0ZM201.95,3.1c-.19-.05-.51-.11-.81-.22-.07-.02-.12-.18-.11-.26,0-.09.1-.22.18-.23.38-.09.77-.04,1.11.19.08.04.14.19.13.27,0,.08-.12.15-.2.21-.04.04-.1.03-.29.05h0ZM146.62,4.52c.22-.29.58-.29.89-.36.27-.06.55-.05.83-.05.07,0,.14.12.19.2-.67.41-1.03.42-1.9.21h0ZM55.81,9.95c-.11-.11-.19-.17-.24-.25.34-.44.71-.56,1.11-.62.08,0,.24.07.27.14.03.07-.02.26-.09.29-.35.17-.71.31-1.05.44h0ZM318.93,18.71c.38,0,.6.15.59.42-.02.36-.2.58-.45.57-.39-.01-.63-.26-.59-.64.01-.22.18-.35.46-.36h0ZM58.82,47.24c.04.1.11.2.1.29-.05.44-.36.64-.74.74-.08.03-.21-.05-.29-.11-.13-.09-.12-.31,0-.42.23-.22.47-.44.8-.52l.14.02ZM222.57,50.42c.2.09.45.19.69.32.12.06.14.18.07.3-.45.28-.76.19-1.04-.04-.13-.09-.19-.38-.1-.44.09-.06.2-.08.38-.14h0ZM306.03,54.89c.36.03.62.22.8.52.06.09.05.22.06.33.01.24-.22.43-.43.35-.46-.15-.72-.53-.68-1.04,0-.07.16-.12.25-.17h0ZM251.28,55.41c-.06.06-.15.2-.28.27-.08.04-.22,0-.31-.05-.32-.19-.43-.49-.39-.86.02-.17.19-.31.34-.27.46.11.67.37.63.9h0ZM88.23,54.09c.16,0,.38-.03.6-.03.09.16.05.3-.02.32-.42.11-.85.21-1.28.29-.08,0-.2-.08-.27-.14-.08-.07.11-.32.27-.34.22-.03.44-.06.71-.1h0ZM25.75,59.73c-.11-.02-.24,0-.31-.07-.11-.09-.22-.23-.26-.36-.02-.07.08-.2.16-.25.23-.16.5-.21.75-.04.08.05.19.18.17.25-.02.14-.1.29-.2.39-.07.06-.2.05-.31.07h0ZM30.65,20.17c-.07,0-.12-.02-.18-.03-.14-.02-.2-.1-.16-.22.43-.41.88-.44,1.31-.52.05,0,.17.14.19.22.02.09,0,.24-.07.29-.31.28-.73.21-1.09.25h0ZM304.62,54.93c-.38-.24-.78-.42-1.04-.82-.05-.09-.05-.22-.03-.32,0-.14.22-.22.38-.12.24.14.5.27.69.47.2.21.25.49,0,.79h0ZM241.05,9.05c.31-.5.77-.51,1.27-.42.16.04.26.36.16.58-.05.15-.17.29-.35.26-.37-.05-.76-.09-1.08-.42h0ZM236.35,52.72c.05.33-.2.53-.42.44-.15-.06-.31-.14-.42-.25-.31-.31-.31-.73-.03-.85.2-.09.55.04.73.29.09.13.12.31.14.37h0ZM73.72,56.36c-.11.01-.22.06-.33.08-.08,0-.19-.06-.28-.1.05-.09.09-.22.17-.27.38-.22.78-.42,1.17-.62.11-.05.23,0,.28.12.03.1.04.22,0,.31-.04.1-.14.2-.23.23-.26.1-.53.17-.79.26h0ZM288.56,55.45c-.11.29-.19.45-.32.52-.17.1-.46-.08-.52-.29-.05-.16-.06-.33-.05-.49.01-.21.27-.42.48-.36.13.05.27.17.36.3.06.07.04.21.05.32h0ZM94.66,52.66c-.05.09-.08.21-.16.26-.27.17-.55.33-.84.47-.07.03-.21-.04-.29-.09-.12-.08-.12-.32-.03-.44.29-.4.69-.49,1.15-.44.06.02.11.16.17.24h0ZM282.1,51c-.05.11-.08.21-.14.3-.67-.11-1.01-.45-1.12-.99-.02-.09.06-.2.12-.29.64.14,1.01.46,1.15.99h0ZM326.15,60.67c-.15-.03-.2-.03-.25-.05-.16-.06-.33-.16-.3-.34.02-.14.14-.32.26-.37.19-.06.43-.05.64-.04.08,0,.18.13.21.21.02.09,0,.24-.07.29-.16.13-.36.22-.48.3h0ZM267.55,57.17c-.01.23,0,.35-.04.45-.04.09-.11.21-.19.22-.09.03-.23-.01-.31-.08-.34-.29-.4-.67-.21-1.05.04-.09.16-.16.27-.17.09,0,.22.06.27.13.11.19.18.4.21.5h0ZM234.34,52.19c0,.22-.17.48-.37.48-.15,0-.35-.06-.44-.16-.14-.17-.21-.4-.3-.6-.08-.2.13-.44.36-.44.45,0,.74.28.74.71h0ZM258.04,55.62c-.03.12-.03.3-.13.41-.22.25-.63.32-.89.13-.12-.08-.23-.27-.23-.41,0-.13.1-.32.22-.39.24-.16.52-.14.78-.02.09.04.14.16.24.28h0ZM218.41,50.24c-.01.21-.27.36-.48.29-.35-.12-.5-.41-.59-.73-.03-.1,0-.21.03-.31.03-.11.3-.18.44-.12.41.15.62.46.6.88h0ZM340.2,20.96c-.14-.02-.33,0-.45-.08-.12-.07-.21-.23-.26-.36-.02-.07.07-.2.14-.27.28-.21.62-.23.89-.05.15.1.17.26.17.42-.01.2-.15.26-.31.31-.05.02-.11.02-.18.03h0ZM337.38,20.29c.26.04.48.05.69.11.07.02.14.15.14.23,0,.09-.07.22-.14.25-.47.23-.95.1-1.42-.04-.12-.03-.15-.14-.09-.26.34-.19.6-.25.82-.3h0ZM200.08,47.71c.14,0,.32,0,.48.05.09.03.23.11.24.19.02.15.02.37-.07.47-.25.29-.61.29-.93.17-.12-.04-.23-.24-.27-.38-.04-.16.04-.34.21-.41.09-.04.21-.06.34-.09h0ZM68.86,47.3v-.39c.03-.36.31-.48.52-.38.22.11.33.3.31.53-.04.29-.14.53-.36.7-.08.06-.2.06-.3.07-.13-.26-.15-.42-.17-.53h0ZM280.33,45.36c-.04.34-.32.6-.71.56-.14,0-.33-.13-.39-.25-.06-.12-.05-.37.03-.47.13-.16.34-.27.55-.34.26-.1.54.2.51.5h0ZM82.38,54.82c-.25-.13-.74.01-1.13-.3-.07-.23-.04-.36.03-.39.43-.18.89-.16,1.32,0,.11.04.2.24.25.38.06.14-.16.34-.47.32h0ZM283.62,44.99c.3.06.58.08.84.19.13.05.22.24.3.39.07.12-.09.38-.22.4-.33.06-.67.02-.99-.09-.18-.07-.37-.39-.27-.56.07-.13.21-.21.34-.33h0ZM276.23,33.7c.25,1.69.24,2.09-.07,3.85-.02-1.38-.22-2.55.07-3.85h0ZM280.1,12.56c-.07-.07-.18-.14-.2-.22-.13-.58.19-.94.64-1.22.11-.07.23-.04.28.09.25.59.06,1.06-.55,1.34l-.17.02ZM12.81,57.52c-.39-.03-.6-.33-.47-.58.17-.32.63-.53.98-.44.32.4.21.87-.09.96-.16.04-.33.05-.42.06h0ZM234.47,7.9c-.45-.09-.94-.08-1.4-.33-.09-.05-.2-.12-.24-.21-.04-.08-.01-.2.01-.3.73-.07,1.29.13,1.8.46,0,.22-.07.27-.18.38h0ZM278.77,29.43c-.04.16-.11.42-.2.68-.06.16-.3.26-.41.16-.08-.06-.19-.15-.19-.24,0-.28,0-.56.06-.81.03-.14.18-.26.29-.38.29-.05.36,0,.39.14.01.11.03.21.07.44h0ZM171.53,46.08c-.26.51-.91.57-1.18.25-.15-.18-.19-.43-.08-.61.12-.19.36-.31.56-.24.2.08.41.17.58.3.08.05.09.19.13.3h0ZM102.66,7.4c.78-.35,1.57-.51,2.39-.37.08,0,.14.14.19.23.06.13,0,.21-.13.25-.81.23-1.64.05-2.46-.11h0ZM53.85,10.05s.13-.02.24,0c.14.02.2.1.16.21-.55.45-1.07.62-1.64.64-.1,0-.21-.07-.29-.13-.08-.06.03-.37.14-.43.39-.25.84-.26,1.39-.29h0ZM284.23,58.82c.01-.15.02-.26.03-.38.03-.32.31-.46.59-.29.49.3.59.82.26,1.25-.12.15-.29.18-.44.13-.14-.05-.29-.16-.36-.28-.08-.14-.07-.32-.09-.44h0ZM280.7,16.82c.02.43-.11.77-.52.95-.17.08-.34.05-.45-.09-.06-.07-.12-.21-.1-.3.06-.34.21-.63.49-.85.14-.1.37-.13.46-.01.06.09.09.19.13.29h0ZM144.47,4.99c-.23-.02-.35-.01-.46-.05-.16-.05-.32-.11-.34-.31-.03-.24.12-.46.34-.49.4-.05.78-.04,1.13.21.06.05.06.19.08.29-.33.23-.59.3-.75.34h0ZM142.16,4.07c.1.03.3.1.5.2.13.06.2.32.13.43-.06.09-.13.19-.22.22-.32.1-.66.11-.96-.08-.11-.08-.19-.26-.21-.4-.03-.21.15-.28.31-.33.11-.03.22-.03.45-.05h0ZM195.79,47.73c0,.17,0,.22,0,.28-.09.25-.15.33-.23.39-.1.06-.36-.06-.44-.17-.22-.35-.25-.72-.23-1.13.02-.17.18-.35.32-.3.14.05.33.13.39.25.11.24.15.52.19.68h0ZM76.87,55.08c0,.38-.24.62-.64.58-.15-.02-.32-.11-.43-.22-.15-.17-.16-.48-.02-.62.15-.14.34-.28.53-.37.2-.09.46.07.51.3.02.11.03.23.04.34h0ZM286.24,49.71c.02-.21.03-.32.04-.43.02-.16.24-.26.37-.18.57.37.73.78.56,1.42-.03.13-.3.27-.41.2-.17-.13-.37-.27-.46-.45-.1-.19-.09-.42-.11-.55h0ZM255.02,56.49c-.1-.03-.25-.06-.41-.12-.15-.05-.28-.35-.26-.56,0-.21.22-.44.41-.42.26.02.53.07.8.13.17.04.31.34.3.54-.02.2-.22.38-.44.41-.11,0-.22,0-.39.01h0ZM30.29,59.41c-.1-.07-.25-.14-.34-.26-.12-.16-.04-.54.09-.61.3-.14.6-.27.95-.24.2.02.36.31.28.52-.17.41-.52.52-.98.6h0ZM68.12,58.07c0,.42-.21.57-.47.69-.22.09-.45.04-.6-.1-.16-.17-.21-.39-.19-.61.02-.2.2-.38.44-.41.16-.01.32,0,.48.02.19.03.34.27.34.41h0ZM252.72,55.18c.53.06.75.38.63.94-.04.2-.28.34-.5.28-.38-.1-.54-.36-.61-.71-.06-.3.17-.53.47-.51h0ZM59.22,7.32c-.05.25-.07.53-.15.78-.05.15-.18.27-.3.38-.08.07-.19.11-.29.15-.21.09-.47-.09-.46-.32.01-.59.31-.99.93-1.19.05-.02.15.11.26.19h0ZM260.1,56.2c-.16-.04-.43-.06-.69-.17-.12-.05-.24-.25-.24-.38,0-.12.14-.33.25-.36.43-.09.89-.13,1.28.16.1.08.12.28.15.43.02.13-.19.33-.31.33-.11,0-.22,0-.45,0h0ZM268.41,57.7c.03-.1.05-.21.12-.29.06-.08.18-.16.27-.16.3.01.64.33.71.62.06.28.06.55-.14.78-.12.12-.46.09-.62-.05-.27-.26-.36-.56-.34-.91h0ZM116.39,6.11c.88-.11,1.76-.21,2.64-.3.16-.02.32.03.52.06q-.95.54-3.16.25h0ZM61.67,46.14c-.03.06-.08.23-.19.33-.34.28-.73.48-1.18.56-.08.01-.22-.06-.27-.13-.05-.08-.04-.22-.01-.32.02-.1.09-.22.17-.26.39-.21.78-.38,1.18-.57.13-.06.33.13.3.39h0ZM238.71,53.36c-.06.09-.12.28-.24.33-.39.14-.78.05-1.08-.25-.1-.1-.11-.3-.12-.46-.01-.2.14-.31.31-.33.22-.02.44-.02.66.02.26.05.45.33.47.69h0ZM220.43,51.04c-.19-.03-.35-.04-.52-.07-.34-.11-.49-.33-.5-.56-.01-.18.23-.4.44-.39.39.01.76.08,1.1.3.08.06.2.19.18.25-.04.14-.13.3-.25.38-.13.08-.31.07-.45.1h0ZM278.85,26.43c-.04.22-.06.55-.15.86-.04.13-.21.23-.34.32-.12.08-.39-.04-.41-.16-.16-.64-.03-1.19.48-1.63.23.03.33.09.36.17.04.09.03.21.06.43h0ZM271.78,58.77c.04.47-.15.69-.37.67-.22-.03-.45-.04-.67-.11-.39-.12-.57-.56-.41-.96.07-.16.21-.28.4-.24.22.04.44.1.64.19.29.13.4.39.4.45h0ZM280.86,14.21c-.02.22-.02.44-.07.65-.07.29-.29.45-.55.54-.14.05-.38-.08-.39-.21,0-.33-.03-.66.01-.98.03-.29.24-.47.49-.61.14-.08.38,0,.4.12.03.16.07.32.1.48h0ZM269.62,15.77c.01-.12.01-.29.07-.45.03-.09.12-.19.21-.21.29-.11.74.06.9.3.18.26.19.72,0,.94-.07.08-.19.14-.29.16-.52.11-.89-.18-.9-.73h0ZM69.75,13.4c-.01.23-.02.39-.04.56-.01.19-.13.3-.29.37-.13.06-.31-.07-.37-.24-.15-.37-.18-.77-.13-1.16,0-.1.05-.22.12-.3.07-.08.19-.16.27-.16.09,0,.24.1.27.18.09.26.12.53.17.75h0ZM278.68,20.13c.14.66.14,1.26.03,1.86-.03.14-.16.28-.27.39-.07.06-.21.1-.3.07-.08-.02-.21-.15-.2-.21.08-.59.18-1.2.31-1.79.02-.12.24-.19.43-.32h0ZM40.3,16.87c.01.25-.1.45-.3.56-.29.15-.61.23-.92.34-.12.05-.3-.11-.36-.28-.1-.3-.02-.61.21-.73.3-.15.6-.28.91-.4.19-.08.43.11.45.35v.17ZM27.98,58.54c.19,0,.3,0,.41,0,.28.03.47.24.52.55.02.18-.13.46-.34.5-.25.05-.54.1-.8.08-.24-.01-.35-.24-.43-.45-.06-.2.06-.47.25-.55.15-.06.31-.11.39-.13h0ZM84.89,55.05c-.11-.02-.38-.05-.64-.13-.17-.05-.23-.25-.2-.41.03-.13.16-.33.27-.35.26-.05.55-.04.82-.03.33.02.67.04.8.44.08.25-.32.46-1.05.47h0ZM173.48,45.71c.2.03.43.02.62.1.12.05.27.23.27.36.01.13-.11.34-.22.38-.47.14-.96.19-1.43-.04-.17-.09-.2-.25-.21-.42,0-.19.14-.3.3-.33.21-.04.43-.04.68-.05h0ZM296.32,50.24c-.02.11-.02.22-.04.33-.03.13-.26.28-.39.23-.26-.1-.53-.18-.76-.33-.19-.11-.27-.33-.29-.57,0-.22.14-.45.34-.51.6-.16,1.11.23,1.14.85h0ZM49.54,52.21c.43-.4.91-.54,1.42-.56.09,0,.2.06.3.11.11.06.13.31.05.45-.22.43-.6.65-1.05.73-.13.03-.33-.07-.43-.18-.14-.16-.2-.38-.3-.55h0ZM10.62,20.04c1.01-.13,2.02-.09,3.02.06.13.02.17.11.11.25-.28.19-.5.28-.71.3-.85.06-1.64-.25-2.42-.61h0ZM9.19,20.96c.1.03.37.1.62.2.08.03.19.17.18.25-.05.43-.14.86-.24,1.28,0,.04-.21.1-.26.07-.18-.13-.39-.26-.48-.44-.16-.29-.24-.62-.35-.95-.08-.22.12-.44.53-.42h0ZM263.43,13.73c.02.56-.29.79-.73.59-.31-.13-.6-.29-.88-.46-.17-.09-.23-.46-.1-.6.11-.11.27-.22.42-.22.4-.03.77.13,1.1.34.11.08.16.27.2.36h0ZM197.76,48.69c-.23-.04-.45-.05-.66-.12-.31-.11-.34-.41-.4-.67-.04-.16-.07-.33.09-.46.65-.08,1.11.08,1.51.4.15.12.15.29.1.45-.03.1-.1.21-.18.25-.14.07-.3.1-.46.15h0ZM15.5,56.57c-.03.21-.05.48-.1.75-.03.18-.33.32-.54.27-.21-.05-.4-.26-.43-.45-.07-.41.04-.76.25-1.09.06-.08.16-.16.25-.2.09-.04.22-.07.31-.04.08.02.19.12.21.2.04.15.03.33.04.55h0ZM60.59,7.14c-.14-.11-.28-.19-.39-.3-.07-.08-.09-.2-.11-.3.55-.49,1.1-.72,1.72-.77.09,0,.22.07.27.14.05.08.08.23.03.3-.37.52-.95.71-1.52.94h0ZM66.3,44.32c.06.68-.66,1.07-1.33.91-.29-.31-.33-.69-.19-.87.29-.36.67-.53,1.12-.55.09,0,.21.08.26.17.08.13.11.3.13.35h0ZM68.02,43.33c.15.03.43.08.69.14.17.05.3.43.22.58-.29.53-.81.78-1.39.63-.25-.06-.33-.29-.37-.51-.09-.51.12-.8.56-.82.06,0,.11,0,.29-.02h0ZM283.22,10.38c-.04.22-.05.44-.11.65-.09.3-.67.55-.98.4-.22-.1-.25-.34-.24-.57.01-.66.24-.99.9-1.22.07-.03.24.05.27.11.08.2.12.42.17.63h0ZM188.37,1.39c.23,0,.36-.04.45.01.14.07.31.2.33.33.05.21.01.44-.03.66-.04.23-.25.4-.46.4-.28,0-.56-.02-.83-.05-.22-.02-.37-.27-.34-.51.08-.61.24-.78.83-.85h.05ZM4.64,20c.23-.03.38-.08.52-.07.35.04.64.24.85.5.32.4.68.73,1.26.63.1,0,.25.18.34.32.06.08.06.21.05.32,0,.11-.28.2-.41.15-.98-.42-1.89-.92-2.61-1.85h0ZM262.54,55.45c.69.12,1.02.17,1.36.23.18.03.33.3.29.55-.03.23-.21.42-.44.41-.44-.03-.89-.06-1.34-.12-.25-.03-.45-.35-.45-.63,0-.27.28-.46.6-.42.11.02.22.04-.02,0h0ZM280.72,19.86c-.04.33-.03.67-.04.99-.01.25-.19.38-.39.49-.15.08-.39.02-.41-.11-.15-.71-.17-1.42.02-2.12.03-.14.21-.25.33-.35.12-.09.4,0,.41.13.02.32.05.64.08.97h0ZM267.33,15.36v-.39c.02-.52.28-.71.77-.56.32.1.51.3.51.6,0,.33-.05.67-.1,1-.01.07-.15.16-.24.18-.4.09-.87-.2-.9-.54-.02-.17-.02-.34-.02-.28h0ZM10.84,21.34c.46.16.8.21,1.07.38.34.22.09.61.12.92.02.33.06.66.06.99,0,.06-.15.12-.24.17-.3-.18-.47-.33-.56-.51-.26-.56-.41-1.13-.44-1.95h0ZM79.14,54.05c.26.02.45,0,.59.06.13.06.28.2.31.34.03.13-.04.37-.15.43-.48.27-1.01.42-1.57.42-.23,0-.48-.24-.53-.54-.03-.18.14-.48.32-.52.37-.08.75-.14,1.03-.19h0ZM228.46,51.38v-.24c.61-.03,1.21-.11,1.82-.09.5,0,1,.1,1.49.17.36.05.65.44.53.7-.07.14-.34.22-.59.17-.66-.13-1.31-.24-1.97-.38-.43-.09-.85-.21-1.28-.32h0ZM139.17,4.07c.4.03.68.04.96.07.25.02.44.35.37.64-.06.23-.19.4-.42.46-.5.12-.99.09-1.49,0-.19-.02-.38-.25-.38-.47,0-.17,0-.34.06-.49.03-.09.14-.21.22-.22.27-.02.55,0,.7,0h0ZM229.16,6.68c-.16-.03-.39-.03-.6-.09-.15-.05-.3-.14-.42-.26-.06-.07-.08-.22-.05-.31.02-.1.09-.22.17-.25.15-.07.33-.11.48-.08.95.17,1.84.5,2.72.9.08.03.13.18.15.27.04.15-.14.3-.32.28-.28-.05-.58-.06-.8-.2-.4-.28-.79-.43-1.33-.25h0ZM66.87,8.45c-.21-.02-.43-.04-.64-.09-.1-.02-.21-.1-.27-.18-.18-.24-.2-.51-.14-.79.03-.15.3-.28.55-.26.39.03.77.07,1.16.12.21.03.43.39.4.66-.02.21-.22.46-.38.48-.22.02-.44.04-.67.06h0ZM110.84,6.42c-.21.16-.32.31-.46.34-.98.19-1.97.36-2.95.52-.27.04-.55.03-.81.03-.14-.19-.14-.31-.1-.39.06-.08.17-.16.26-.19.54-.1,1.09-.2,1.64-.26.76-.09,1.53-.17,2.41-.05h0ZM266.27,14.54c-.01.1-.02.22-.04.32-.05.39-.34.59-.71.47-.37-.11-.76-.23-1.08-.44-.3-.2-.3-.57-.21-.91.08-.27.29-.39.66-.33.28.04.55.09.82.16.38.09.55.32.55.73h0ZM185.51,1.49c.23.01.4.03.56.04.34.03.54.32.53.72-.01.24-.2.46-.38.49-.5.09-1,.05-1.5-.06-.23-.05-.42-.36-.4-.66,0-.21.21-.43.41-.45.28-.04.56-.06.78-.08h0ZM283.51,58.27c-.01.15-.03.42-.08.69-.02.09-.12.18-.21.23-.35.2-1.01.07-1-.47.01-.6.06-1.21.11-1.81.02-.21.32-.3.51-.18.39.26.68.57.68,1.07v.46h0ZM312.71,18.35c.22,0,.46-.04.66.02,1.09.28,2.19.41,3.31.3.16-.01.32.07.49.1.12.03.24.27.16.42-.07.14-.18.34-.29.35-.38.05-.79.11-1.15.02-.93-.22-1.84-.49-2.75-.77-.17-.05-.41-.13-.44-.44h0ZM14.23,23.71c-.02.36-.03.63-.05.91-.01.09-.1.18-.18.25-.07.08-.32-.02-.42-.16-.4-.56-.59-1.19-.62-1.86-.01-.33.09-.66.3-.93.06-.08.18-.11.28-.14.19-.04.32.08.41.22.08.14.14.3.17.46.06.44.09.89.13,1.25h0ZM280.86,54.8c.14,0,.27-.04.33.01.29.22.44.55.42.88-.06,1-.16,2-.28,2.99-.01.1-.26.24-.38.23-.13-.01-.29-.17-.34-.3-.06-.14-.05-.33-.05-.5,0-1.12.19-2.22.31-3.32h0ZM198.63,1.71c.23.03.45.03.67.04.47.03.81.34.78.7-.04.35-.28.63-.64.66-.5.04-.99.06-1.49.06-.1,0-.22-.06-.3-.13-.23-.21-.27-.47-.23-.77.04-.3.26-.52.54-.54.22-.01.44-.02.67-.03h0ZM44.69,55.18c-.14,0-.2.02-.25,0-.16-.14-.18-.28-.13-.31,1.23-.98,2.69-1.54,4.11-2.15.04-.02.21.11.23.19.11.39-.03.72-.32.84-.1.04-.2.09-.31.12-.76.2-1.5.41-2.15.87-.35.25-.83.31-1.17.43h0ZM340.83,23.12c-.04.26-.03.57-.16.8-.21.39-.53.71-.98.88-.19.07-.53-.08-.53-.27-.02-.62-.04-1.24-.03-1.85,0-.24.17-.43.42-.47.26-.05.54-.07.82-.08.19,0,.31.15.35.31.05.22.07.44.11.69h0ZM56.83,48.84c-.06.12-.1.29-.21.4-.2.19-.43.35-.67.48-1.06.61-2.13,1.2-3.19,1.78-.25-.03-.38-.07-.43-.15-.05-.07-.05-.22,0-.29.1-.13.23-.23.37-.33.47-.29.98-.53,1.41-.87.7-.56,1.52-.91,2.26-1.39.07-.04.23,0,.3.05.08.06.1.19.16.32h0ZM35.09,19.55c-.43.02-.69-.27-.64-.46.05-.2.13-.48.28-.56.83-.44,1.68-.82,2.53-1.23.25-.11.56.13.56.43,0,.43-.15.76-.52.98-.67.39-1.38.67-2.15.85-.1.02-.22,0-.07,0h0ZM16.27,23.92c0,.68,0,1.25,0,1.81,0,.09-.09.26-.15.27-.16,0-.34,0-.47-.09-.13-.08-.25-.25-.29-.4-.25-1.04-.35-2.1-.34-3.18,0-.33.43-.59.74-.45.21.09.42.21.43.47.04.56.06,1.12.08,1.56h0ZM23.09,55.17c0-.54-.01-1.27,0-1.99,0-.22.07-.46.17-.64.07-.11.28-.15.43-.16.16-.02.31.17.3.33-.01.22,0,.47-.06.67-.14.44-.1.87-.03,1.32.13,1,.2,2.01.06,3.02-.03.16-.31.3-.54.29-.21-.01-.3-.16-.36-.31-.05-.15-.07-.33-.06-.49.01-.62.05-1.23.09-2.04h0ZM17.41,58.61c1.18.08,2.37.13,3.55.19.11,0,.23.02.34.06.1.04.22.07.3.14.07.07.16.2.15.27-.02.07-.17.17-.26.16-.96-.08-1.92-.12-2.86-.28-.85-.14-1.68-.14-2.53-.06-.95.09-1.91.13-2.87.16-.21,0-.44-.07-.65-.14-.17-.06-.23-.23-.23-.41,0-.16.16-.32.33-.3.62.05,1.23.13,1.85.15.96.04,1.92.03,2.88.05h0ZM332.49,24.86c-.02-.39-.06-.95-.08-1.51,0-.34.03-.67.05-1.01,0-.15.23-.37.33-.3.13.08.27.19.34.33.08.14.09.32.1.49.09,1.52.18,3.02.27,4.54,0,.1-.02.22-.07.32-.08.15-.17.29-.29.4-.06.07-.19.09-.29.11-.11,0-.32-.22-.33-.35,0-.16-.02-.33-.02-.49,0-.79,0-1.57,0-2.52h0ZM280.41,27.53c.03.12.03.22.03.34.07,1.34-.12,2.67-.23,4,0,.09-.14.25-.18.24-.14-.06-.3-.14-.4-.25-.07-.07-.07-.21-.07-.32,0-.9-.11-1.81.05-2.67.19-.95.01-1.89.12-2.82.03-.28.08-.55.13-.82.03-.15.06-.31.26-.36.13-.04.28.11.28.32v2.35h0ZM277.6,58.28s-.07.1-.12.12c-.52.26-.93.05-.95-.48,0-.22-.03-.46.03-.67.34-1.54.44-3.12.59-4.68.02-.16.09-.32.14-.47.5.17.5.41.49.63-.05,1.85-.11,3.71-.17,5.55h0ZM125.42,49.32c1.87-.47,3.79-.41,5.7-.45.33,0,.68.05,1,.14.13.04.27.23.29.37.04.14-.01.37-.12.46-.15.15-.37.28-.57.31-.9.13-1.8.13-2.67-.2-1.07-.41-2.18-.59-3.32-.55-.1,0-.19-.05-.31-.07h0ZM336.83,25.92c-.11-.17-.27-.31-.27-.45-.06-.95-.08-1.89-.11-2.84.11-.25.17-.36.26-.4.36-.18.75-.2,1.13-.03.14.06.29.23.32.35.08.62.11,1.22.15,1.83.05.65-.26,1.06-.84,1.29-.19.08-.4.15-.62.24h0ZM251.02,10.88c-.14.04-.31.12-.45.1-.67-.09-1.33-.18-1.98-.32-1.58-.36-3.15-.75-4.74-1.09-.11-.03-.23-.24-.26-.39-.05-.22-.03-.46.16-.61.08-.06.21-.1.3-.08.49.11.98.23,1.46.36,1.4.4,2.74,1.01,4.18,1.26.47.08.9.37,1.35.57.02,0,0,.1-.01.2h0ZM71.29,24.35c.06.15.14.25.14.35.06,2.59.24,5.19.04,7.78-.03.39-.04.79-.03,1.18,0,1.58,0,3.16.03,4.74,0,.51.05,1.02.13,1.52.12.78.18,1.56.08,2.35-.17.05-.3,0-.33-.08-.19-.48-.13-1-.14-1.51-.01-2.99.05-5.97-.04-8.96-.03-.96-.04-1.91-.05-2.87,0-.74-.02-1.47-.03-2.2,0-.62,0-1.24.02-1.87,0-.13.12-.27.19-.44h0ZM18.69,24.65c-.03.87-.06,1.54-.1,2.22,0,.21-.28.32-.52.24-.35-.12-.58-.37-.67-.71-.19-.76-.41-1.51-.21-2.32.09-.37,0-.78,0-1.18,0-.17,0-.34.05-.49.02-.1.12-.2.22-.23.52-.2,1.1.13,1.14.65.05.67.06,1.35.09,1.83h0ZM331.3,55.73c-.08.79-.07,1.57-.08,2.35,0,.27-.42.54-.75.52-.16-.02-.42-.3-.42-.47-.02-1.29-.03-2.57-.04-3.86,0-.45.1-.88.36-1.26.08-.1.32-.16.45-.09.26.13.46.33.47.64,0,.72,0,1.45,0,2.18h0ZM298.16,12.58c-.76-.23-1.44-.62-2.07-1.1-.1-.08-.12-.29-.12-.44,0-.04.2-.13.29-.11.94.16,1.92.24,2.8.56,1.1.41,2.12,1.04,3.16,1.58.09.05.19.16.2.25.02.15,0,.33-.07.47-.03.08-.19.15-.27.14-.79-.09-1.53-.38-2.25-.69-.13-.06-.23-.23-.33-.36-.06-.09-.05-.22-.09-.32-.22-.56-.38-.62-.84-.29-.14.09-.26.2-.42.31h0ZM335.68,24.43c0,.6.01,1.1,0,1.6-.03.63-.41,1.01-.98,1.2-.12.05-.24.01-.27-.11-.09-.32-.19-.65-.21-.96-.07-1.18-.11-2.35-.16-3.52,0-.25.24-.52.52-.57.59-.11.98.17,1.03.78.04.56.06,1.12.09,1.58h0ZM326.96,55.85c-.03.66-.07,1.44-.11,2.21,0,.11-.04.22-.08.33-.08.28-.78.51-1.02.31-.08-.07-.16-.19-.16-.29,0-.34,0-.67.07-.99.18-.84.23-1.66.22-2.5,0-.73,0-1.46,0-2.18,0-.23.04-.45.06-.67.02-.17.32-.34.53-.31.44.06.79.45.66.81-.37,1.03-.31,2.08-.18,3.27h0ZM275.58,58.32c-.17,0-.35.02-.47-.06-.11-.09-.23-.29-.21-.43.02-.5.12-1,.15-1.51.06-1.8.35-3.58.57-5.37.08-.62.16-1.23.23-1.84.54.4.58.86.55,1.31-.09,1.4-.05,2.81-.29,4.21-.2,1.21-.35,2.44-.53,3.69h0ZM209.92,47.51c1.35-.05,2.68.18,4.01.44.11.02.22.07.3.15.09.12.15.27.19.42.03.14-.18.32-.33.31-1.05-.14-2.12-.23-3.16-.44-1.29-.26-2.56-.3-3.85-.13-1.17.14-2.34.11-3.52.04-.08-.18-.06-.33.01-.36.2-.08.41-.15.63-.16,1.74-.09,3.47-.17,5.21-.24.16,0,.34-.02.51-.03h0ZM19.54,24.62c0-.39-.02-.79-.03-1.18,0-.17.01-.33.02-.5.01-.27.26-.5.56-.51.61-.03.86.17.92.71.02.17.04.34.05.51.05,1.07.12,2.13.16,3.19.02.38,0,.78-.06,1.17-.02.11-.24.27-.37.27-.35,0-.67-.15-.8-.5-.1-.26-.19-.53-.22-.8-.09-.78-.15-1.56-.22-2.35h0ZM278.58,53.01c.35-.15.56.07.81.2.51.25.76.65.71,1.22-.12,1.34-.25,2.68-.38,4.03,0,.09-.11.19-.2.24-.29.19-.91-.04-1-.36-.04-.16-.11-.33-.1-.49.01-1.41.05-2.8.08-4.21,0-.22.06-.43.09-.63h0ZM73.09,30.25c.09,1.01.05,1.62.06,2.24.02,1.12.03,2.24.09,3.36.07,1.41.17,2.81.26,4.21.03.56.08,1.12.11,1.68.09,1.52.18,3.03.25,4.54,0,.16-.04.33-.06.5-.09-.07-.21-.12-.23-.2-.12-.43-.28-.87-.32-1.31-.13-1.4-.23-2.8-.31-4.21-.19-3.37-.06-6.74-.04-10.11,0-.11.05-.21.19-.73h0ZM242.06,52.63c1.62.1,3.23.3,4.85.5.11.01.22.06.32.09.32.1.47.45.37.83-.04.15-.24.28-.37.25-.17-.03-.34-.07-.5-.12-1.86-.53-3.74-.72-5.65-.33-.32.07-.67.05-1,.06-.31,0-.52-.27-.45-.55.11-.52.3-.73.75-.74.57-.01,1.12,0,1.68.02h0ZM329.25,55.19c.02.89.02,1.79.01,2.68-.01.21-.07.43-.14.64-.02.08-.15.15-.25.18-.61.15-1.17-.26-1.09-.89.07-.51.06-.99-.02-1.5-.08-.55-.09-1.11-.12-1.67-.02-.28,0-.59.2-.78.38-.37.34-.78.24-1.23-.02-.13.09-.34.2-.41.35-.23.98-.1.97.47-.02.84,0,1.67,0,2.51h0ZM280.2,38.39c.04,1.46.05,2.92.04,4.36,0,.22-.08.43-.14.64-.06.18-.38.27-.58.19-.18-.08-.26-.23-.27-.38-.03-1.74-.05-3.47-.09-5.21-.03-1.41.23-2.79.32-4.18.13-.32.23-.43.43-.44.15,0,.29.14.29.32,0,1.57,0,3.13,0,4.7h0ZM28.14,28.18c0,.73,0,1.23-.01,1.73,0,.08-.13.19-.21.21-.09.02-.22-.01-.3-.08-.29-.21-.36-.54-.42-.88-.33-1.82-.67-3.64-1-5.46-.06-.33-.07-.67-.1-1.01-.02-.28.14-.46.49-.58.52-.19.81-.05.83.45.03,1.13.26,2.22.41,3.34.11.83.22,1.66.32,2.28h0ZM192.46,1.34c1.12-.12,2.23-.05,3.33.19.42.1.63.35.67.85.06.6-.03.87-.68.84-.39-.02-.79-.06-1.18-.09-.7-.06-.69-.06-.86-.93-.02-.1-.08-.19-.13-.29-.07-.12-.38-.14-.44-.03-.14.23-.26.48-.39.72-.11.21-.29.33-.53.32-.61-.04-1.23-.07-1.84-.15-.12-.02-.23-.21-.31-.35-.05-.09-.03-.22-.03-.33.03-.49.28-.74.71-.75.56,0,1.12,0,1.68-.01h0ZM74.5,52.02c0,.34,0,.69.05,1.02.12.77-.21,1.29-.87,1.64-.1.05-.19.12-.29.18-.3.16-.6.04-.63-.26-.03-.45-.04-.91-.11-1.36-.08-.56-.13-1.12.02-1.67.08-.34.03-.67-.03-1.01-.02-.15.03-.33.11-.47.21-.33.45-.64.67-.96.16-.22.61-.19.71.07.11.25.22.52.25.79.07.67.08,1.35.12,2.02h0ZM22.02,25.75c0-.92,0-1.58,0-2.26,0-.22,0-.46.07-.66.04-.13.22-.26.36-.29.5-.12.84.07.87.51.11,1.4.35,2.79.32,4.2-.01.51-.01,1-.03,1.51-.01.29-.34.48-.61.38-.46-.15-.82-.42-.86-.94-.06-.9-.1-1.79-.13-2.45h0ZM24.23,23.04c.08,1.12.17,2.13.22,3.13.05.84.05,1.69.08,2.53.02.74.3,1.15,1.29,1.2.19,0,.44-.23.47-.42,0-.11.04-.22.02-.33-.37-2.04-.65-4.1-1.2-6.11-.05-.16-.09-.33-.17-.47-.05-.08-.2-.19-.26-.16-.14.04-.3.14-.37.26-.08.13-.06.32-.07.38h0ZM126.66,5.72c-.61-.05-1.08.05-1.49-.23.29-.25.57-.28.85-.27.85.04,1.67,0,2.5-.26.85-.26,1.76-.36,2.66-.44,1.18-.11,2.34-.27,3.5-.49.55-.11,1.12-.12,1.68-.15.16,0,.33.06.5.11.26.08.45.49.39.86-.04.21-.23.4-.46.41-1.07.03-2.14.12-3.21.07-1.3-.06-2.59-.03-3.88.1-1.07.1-2.12.21-3.03.29h0ZM321.58,54.81c-.04-1.4-.14-2.8-.24-4.2-.01-.22-.02-.44-.02-.67,0-.12.25-.32.36-.28.42.2.83.43.91.93.14.83.34,1.67.17,2.5-.28,1.34-.23,2.67-.21,4.02,0,.55-.08,1.1-.16,1.66,0,.08-.14.16-.23.2-.17.06-.34-.01-.43-.16-.08-.14-.14-.31-.14-.46-.01-1.18,0-2.36,0-3.53h0ZM155.65,48.44c-.51-.01-1.01-.01-1.52-.04-.05,0-.1-.15-.12-.24,1.62.21,3.03-.09,4.43-.56.32-.11.64-.24.97-.28,1.41-.16,2.73-.64,4.11-.93,1.48-.32,2.97-.64,4.45-.95.28-.05.56-.04.84,0,.25.03.39.22.47.44.09.27-.1.63-.36.65-.45.03-.9.04-1.35.05-.73,0-1.47,0-2.2.02-1.13.05-2.23.25-3.29.68-2.04.85-4.21,1.2-6.43,1.17h0ZM30.2,28.4c0,.61,0,1.23,0,1.84,0,.08-.14.18-.23.2-.09.02-.25-.02-.29-.09-.14-.24-.3-.48-.36-.75-.53-2.3-.9-4.63-1.09-6.98-.01-.17,0-.33.02-.5.02-.27.41-.53.76-.52.18,0,.4.23.43.45.12,1,.17,2.02.38,3.01.23,1.1.32,2.21.39,3.33h0ZM95.93,52.32c.06-.09.09-.22.16-.26.14-.09.31-.13.47-.17,2.48-.55,5-.67,7.53-.47,1.41.12,2.8.19,4.19-.11.16-.03.34-.04.5,0,.09.02.19.13.22.22.03.09.02.25-.04.3-.16.14-.34.31-.54.35-.44.1-.89.12-1.33.22-1.5.35-2.99.31-4.5,0-.55-.11-1.11-.17-1.66-.2-1.24-.06-2.47.03-3.68.28-.37.07-.75.26-1.14.1-.08-.03-.11-.17-.16-.26h0ZM323.65,51c.33.09.66.15.97.27.28.1.45.33.47.63.12,1.91.12,3.81-.29,5.69-.06.32-.18.64-.29.95-.08.23-.3.31-.52.39-.29.09-.64-.09-.64-.36-.02-1.12-.04-2.24-.05-3.36,0-.28-.03-.56.03-.84.24-.93.2-1.88.17-2.84,0-.16.08-.32.14-.54h0ZM181.08,46.67c.12-.27.32-.34.54-.38,1-.18,2.01-.23,3.03-.09,1.3.18,2.59.1,3.87.04.51-.02,1.02-.07,1.52-.04,1.18.05,2.37.13,3.54.21.2.01.43.24.45.45.01.28,0,.56-.03.84,0,.08-.17.18-.25.17-.27-.05-.55-.1-.8-.21-.91-.39-1.85-.5-2.81-.47-1.01.02-2.03-.01-3.04-.02-1.29-.01-2.58-.04-3.88-.04-.75,0-1.45-.18-2.13-.45h0ZM328.49,26.11c.11,1.23.12,2.46.11,3.7,0,.38-.25.6-.57.76-.35.18-.7.03-.79-.33-.28-1.04-.25-2.12-.38-3.17-.2-1.59.07-3.14.17-4.7.16-.27.28-.43.42-.45.21-.04.45,0,.66.05.23.05.43.27.44.46,0,.38,0,.78,0,1.17-.01.84-.04,1.69-.06,2.52h0ZM329.74,29.58c-.05-.17-.13-.32-.15-.49-.09-.95-.14-1.89-.25-2.84-.14-1.18-.03-2.35.19-3.5.03-.16.07-.33.15-.48.04-.09.14-.19.23-.21.43-.1.87-.17,1.32-.04.09.03.18.12.23.22.05.09.08.21.09.31.04,1.79.07,3.58.1,5.37,0,.16-.03.34-.09.49-.08.2-.17.43-.31.58-.41.4-.88.68-1.51.59h0ZM17.52,54.79c.03.21.08.43.11.64.03.22.03.45.07.66.01.15.22.29.38.25.19-.04.3-.15.3-.34.02-.39.01-.79.04-1.18.07-.75.54-1.15,1.52-1.28.13.66.02,1.34.05,2.01.02.34.03.67.07,1,.01.08.15.16.24.21.14.08.35.01.43-.14.04-.1.14-.21.13-.3-.13-.95.09-1.89.16-2.84,0-.11.03-.22.05-.33.03-.24.27-.42.62-.47.21-.04.36.12.44.41.4,1.52.24,3.02-.11,4.5-.05.21-.26.39-.48.39-1.52.03-3.04-.07-4.53-.35-.54-.1-.7-.27-.67-.77.02-.4.04-.79.12-1.17.1-.54.42-.9,1.08-.92h0ZM168.13,1.96c.34.03.68.03,1.01.05.73.03,1.47.03,2.17.3-.91.38-1.85.5-2.8.6-.55.07-1.12.11-1.67.17-1.29.15-2.56.36-3.85.44-1.79.12-3.59.24-5.39.31-1,.03-2.02.25-3.01-.16-.13-.06-.32.02-.47.07-.1.03-.18.13-.28.19-.41.22-.85.3-1.3.2-.1-.03-.26-.12-.26-.18,0-.15.04-.35.15-.44.16-.13.38-.22.6-.28,1.25-.38,2.52-.61,3.82-.61,2.77-.01,5.51-.27,8.26-.49,1.01-.08,2.02-.12,3.04-.17h0ZM343.62,55.68c-.11.38-.38.47-.67.49-.21.01-.45-.04-.65-.13-.36-.17-.63-.11-.9.18-.1.11-.25.25-.4.28-.65.11-1.31.37-1.98.06-.23-.1-.46-.03-.63.13-.44.44-.99.5-1.56.46-.15,0-.3-.11-.44-.2-.56-.34-.59-.33-.89.19-.09.15-.13.33-.24.44-.11.1-.31.2-.43.17-.13-.04-.26-.21-.32-.35-.09-.26-.1-.55-.22-.81-.05-.11-.26-.18-.42-.21-.12-.04-.35.18-.34.31,0,.38.05.78.04,1.17,0,.13-.17.26-.29.36-.08.07-.2.08-.32.1-.54.09-.88-.17-.93-.7-.09-1.12-.02-2.25.12-3.37.03-.21.18-.39.29-.62.32.12.58.23.83.32.96.35,1.91.71,2.87,1.05,1.63.58,3.31.74,5,.48.86-.13,1.66,0,2.47.21h0ZM217.34,4.32c1.61.02,2.91.04,4.2.05.51,0,1,.05,1.5.2.98.28,1.98.48,3,.53.22,0,.45.06.67.12.25.05.43.4.37.67-.05.23-.26.45-.46.43-.33-.04-.67-.06-.99-.14-.73-.17-1.45-.28-2.19-.24-1.07.06-2.14.02-3.21-.08-1.02-.11-2.02-.23-3.04-.33-1.29-.13-2.57-.35-3.85-.57-1.33-.24-2.67-.54-4.03-.51-1.26.03-2.43-.53-3.69-.51-.38,0-.78-.16-1.15-.27-.21-.06-.42-.17-.63-.25-.09-.35,0-.47.06-.47.17,0,.34.06.49.11.76.24,1.49.56,2.26.69.66.12,1.35,0,2.03.02,1.24.05,2.5,0,3.72.2,1.73.27,3.5.03,4.92.36h0ZM30.22,22.59c.13.93.29,2.1.47,3.27.13.84.31,1.66.43,2.5.08.55.06,1.13.1,1.68.06,1.04.25,1.25,1.29,1.44.25-.07.36-.14.38-.23.03-.16.03-.33,0-.5-.18-1.34-.39-2.68-.54-4.02-.1-1-.11-2.01-.17-3.02.2-.12.35-.12.39-.06.11.19.23.4.26.61.09.56.13,1.12.19,1.68.19,1.75.47,3.47.94,5.16.1.32.23.64.4.93.11.2.32.3.56.31.14,0,.23-.03.26-.15.03-.1.08-.22.07-.32-.05-.51-.09-1.02-.21-1.51-.51-2.04-.76-4.11-1.14-6.16-.04-.21,0-.45.03-.67.02-.14.12-.18.24-.13.25.25.38.44.42.65.36,1.88.67,3.77,1.07,5.65.2.93.54,1.84.84,2.75.09.27.32.45.61.54.21.06.5-.09.49-.3-.02-.45-.05-.9-.1-1.34-.07-.73-.13-1.46-.22-2.19-.15-1.29-.34-2.56-.49-3.85,0-.06.13-.15.22-.2.12-.06.21-.01.29.11.14.24.22.33.24.44.16.83.34,1.66.45,2.49.15,1.07.23,2.13.38,3.19.07.44.22.87.37,1.3.18.48.86.62,1.29.27.2-.15.25-.38.21-.61-.13-.89-.28-1.78-.46-2.66-.13-.6-.35-1.19-.47-1.81-.37-1.94-.71-3.88-1.06-5.82-.05-.33-.07-.68-.13-1.01-.2-.95-.18-1.29-1.4-.82-1.14.44-2.34.76-3.6.79-.73.01-1.45.16-2.18.27-.52.07-.71.29-.71.76v.59h0ZM73.62,17.09c-.04,1.62.06,3.14.16,4.66.1,1.46.09,2.93.12,4.4.02.9.05,1.8.08,2.71.02.84.03,1.68.05,2.53.03,1.12.05,2.24.09,3.37.03.96.07,1.92.11,2.88.03.96.06,1.91.21,2.87.12.78.13,1.58.15,2.37.06,2.04.21,4.05.54,6.07.17,1.05.14,2.14.19,3.21,0,.33-.04.69.17.98.09.12.24.25.38.29.24.07.65-.18.69-.38.02-.11.08-.22.06-.32-.09-1.13-.09-2.25-.33-3.37-.24-1.1-.36-2.23-.44-3.36-.1-1.35-.35-2.69-.47-4.04-.11-1.18-.12-2.36-.16-3.55,0-.16.06-.33.1-.48.04-.14.12-.2.26-.15.1.04.24.08.26.15.07.21.14.43.13.65-.02.45,0,.9.12,1.34.05.16.09.33.1.5.01,1.3.25,2.58.4,3.87.14,1.23.21,2.47.32,3.71.01.17,0,.35.05.51.36,1.15.43,2.32.42,3.51,0,.26.14.54.27.79.07.13.24.27.38.3.58.12,1.11-.06,1.63-.3.08-.04.16-.18.17-.28.02-.45.05-.9.03-1.34-.05-1.08-.13-2.15-.2-3.21-.01-.17.01-.35-.03-.51-.36-1.27-.31-2.58-.53-3.85-.16-.95-.19-1.92-.22-2.86-.03-1.25-.09-2.48-.24-3.72-.18-1.52-.25-3.04-.31-4.56-.06-1.92-.08-3.83-.12-5.75-.01-.9-.11-1.8-.19-2.7-.21-2.48-.56-4.94-.49-7.43.03-1.37-.24-2.7-.31-4.04-.01-.25-.25-.44-.45-.4-.33.07-.66.13-.99.21-.53.14-.8.41-.81.92-.03,1.02-.08,2.03-.04,3.04.04,1.13.18,2.25.23,3.37.07,1.42.09,2.82.12,4.23.03,1.02.1,2.03.2,3.03.2,1.97.27,3.95.39,5.93.01.22-.02.45-.19.61-.06.05-.22.06-.3.01-.09-.04-.17-.15-.2-.25-.24-.65-.31-1.32-.36-1.99-.1-1.36-.19-2.7-.28-4.06-.09-1.35-.19-2.7-.25-4.05-.06-1.23-.08-2.48-.12-3.73,0-.11,0-.22,0-.34-.09-.96-.21-1.9-.26-2.87-.05-.89-.02-1.79-.05-2.7,0-.06-.13-.12-.22-.16-.14.27-.18.45-.18.61,0,.34.03.67.05,1.01.03.73.07,1.46.1,2.1h0ZM300.38,50.2c.03-.32.07-.65.09-.98.01-.68.02-1.36.04-2.03,0-.17,0-.36.08-.5.08-.12.25-.19.39-.25.02-.01.17.14.18.23.04.39.05.79.07,1.18.02.74.02,1.47.06,2.2.06.95.49,1.38,1.5,1.48.31.03.55.12.69.38.2.36.45.65.82.84.08.04.21,0,.31,0,.18-.86.13-1.59.04-2.32-.02-.15.05-.32.1-.47.21-.1.38-.08.4-.03.09.26.17.53.21.8.1.79.17,1.57.26,2.36.05.46.39.66.78.8.14.04.37-.08.39-.21.15-1.01.2-2.01.17-3.04-.04-1.47-.04-2.93-.05-4.4,0-.22.07-.43.12-.65.2-.09.35-.07.39-.01.09.2.19.43.19.64.04,1.01.06,2.03.08,3.05.02,1.29.04,2.59.05,3.89,0,.46.04.9.23,1.33.14.33.37.56.71.67.14.04.26,0,.27-.13.03-.33.04-.67.03-1-.01-.73-.05-1.46-.04-2.19,0-.34.11-.66.36-.92.09-.09.18-.14.3-.07.08.06.21.15.2.23,0,.34-.03.67-.07,1.01-.12,1.25.16,2.47.34,3.7.22.23.35.34.5.39.19.05.31-.11.37-.27.1-.31.01-.69.31-.93.06-.05.23-.04.3,0,.08.05.14.18.16.29.04.28.05.56.07.84.03.38.26.62.6.75.11.04.22.08.32.12.29.14.54.11.74-.15.07-.09.17-.15.26-.22.18-.12.5-.05.58.13.07.16.13.32.16.48.06.32.27.5.55.57.54.14,1.1.32,1.65.32.6,0,1.04.43,1.61.46.57.05,1.13.15,1.68.22.55.07.85-.17.86-.74.02-1.41.07-2.82.01-4.23-.08-1.63-.25-3.26-.39-4.89,0-.1-.08-.21-.15-.29-.11-.13-.26-.24-.44-.17-.09.04-.22.11-.24.2-.08.26-.16.54-.16.81.02.84.1,1.69.1,2.54,0,1.01-.05,2.02-.09,3.03,0,.14-.09.22-.23.19-.1-.02-.25-.03-.29-.1-.1-.12-.2-.29-.21-.45-.05-.44-.09-.89-.05-1.34.09-1.24.1-2.47.08-3.72,0-.62.08-1.23.1-1.85,0-.23-.08-.45-.29-.59-.33-.22-.66-.42-1.01-.61-.04-.03-.22.07-.25.14-.06.15-.08.33-.08.49-.01,1.02-.01,2.03-.03,3.05,0,.23-.03.45-.08.66-.02.08-.14.16-.23.17-.09,0-.24-.06-.27-.13-.1-.2-.19-.42-.2-.63,0-.78.03-1.58.03-2.37,0-.67-.02-1.35-.05-2.03-.02-.41-.22-.77-.52-1.04-.17-.16-.38-.25-.66-.13-.16.68-.12,1.41-.13,2.14-.01.34-.06.67-.13,1-.01.08-.15.15-.24.19-.13.05-.36-.11-.38-.25-.03-.28-.08-.56-.08-.84.01-.85.05-1.69.08-2.54.01-.52-.12-1.01-.48-1.4-.06-.08-.2-.14-.3-.12-.06,0-.15.14-.16.23-.05.73-.12,1.46-.13,2.19,0,.56.1,1.12.12,1.67,0,.07-.12.15-.21.21-.23-.13-.34-.21-.38-.3-.07-.21-.14-.44-.16-.66-.07-.79-.18-1.57-.1-2.36.05-.45.03-.9,0-1.35-.03-.68-.37-1.17-.95-1.51-.13-.08-.37.04-.4.18-.14,1.01-.14,2.03,0,3.04.22,1.52.2,3.04.19,4.56,0,.21-.12.34-.28.32-.18-.03-.33-.15-.36-.3-.07-.45-.13-.89-.13-1.35,0-1.12,0-2.24-.22-3.36-.25-1.22-.18-2.48-.08-3.72.01-.16,0-.33-.03-.49-.44.68-.58,1.37-.38,2.12.1.37.12.78.12,1.17,0,.85,0,1.69-.04,2.53-.04.89-.12,1.79-.19,2.67-.21.11-.35.11-.4.04-.27-.38-.38-.84-.32-1.28.12-.8.01-1.57-.02-2.37-.06-1.12-.05-2.25-.05-3.38,0-.79.05-1.58-.12-2.36-.1-.5.23-1,0-1.5-.34.13-.42.29-.43.45-.04.72-.06,1.45-.11,2.19,0,.07-.15.17-.21.17-.1-.01-.23-.08-.27-.17-.08-.2-.17-.43-.17-.64-.03-.62-.01-1.24-.01-1.86,0-.84.08-1.69-.06-2.53-.04-.31.29-.66.62-.69.28-.03.57,0,.84-.04.21-.04.48-.08.62-.22.41-.42.8-.61,1.29-.12.54.16,1,.01,1.41-.33.19-.16.24-.38.25-.61.04-1.57.08-3.15.12-4.73,0-.16.01-.35.09-.49.07-.14.2-.26.34-.34.11-.07.4.23.43.42.01.11.04.23.04.33,0,1.01.12,2.02-.1,3.04-.09.43-.03.9-.02,1.35,0,.29.32.48.6.38.28-.1.53-.25.6-.53.12-.43.22-.88.23-1.33.03-.84-.02-1.69-.04-2.54-.01-.57-.05-1.12-.03-1.69.01-.79.06-1.57.1-2.36,0-.17.05-.33.08-.5.02-.14.25-.28.38-.22.09.04.23.11.25.19.05.21.09.44.08.66-.03,2.14-.06,4.28,0,6.43,0,.17,0,.33.01.5.03.65.29.98,1.14.8.23-.05.39-.23.44-.46.04-.22.09-.45.09-.67,0-.51,0-1.02-.07-1.52-.21-1.64-.01-3.27.05-4.9.02-.41.09-.79.3-1.13.09-.15.21-.25.41-.23.16,0,.29.17.28.34-.52,2.68-.34,5.22-.1,7.75,0,.11.02.23.04.34.03.21.24.43.44.46.17.03.34.05.5.05.87.04,1.1-.09,1.09-1.04-.02-1.24-.02-2.48-.03-3.73,0-.28-.01-.56.14-.81.05-.09.34-.22.44-.15.08.06.21.15.21.23-.04,1.18.19,2.36.08,3.54-.04.39,0,.79.03,1.18.01.29.32.49.62.42.27-.06.54-.15.8-.24.3-.09.47-.3.51-.6.02-.17.01-.34.05-.5.08-.35.31-.61.52-.57.26.05.34.27.41.49.04.16.05.35.15.47.09.12.27.23.41.24.28.01.57-.02.83-.1.55-.15.75-.41.73-.97-.06-1.18-.1-2.37-.22-3.55-.13-1.41-.16-2.81.04-4.21.04-.28.04-.57.03-.85,0-.4-.63-.78-1.03-.63-.1.04-.2.13-.23.22-.08.21-.16.43-.16.65,0,.51.05,1.01.09,1.52.04.56.14,1.12-.03,1.67-.02.08-.14.15-.23.2-.15.07-.36-.05-.4-.2-.21-.66-.2-1.34-.24-2.01-.03-.57-.02-1.13-.04-1.7-.02-.42-.38-.71-.81-.68-.11,0-.22.04-.33.06-1.04.13-1.95-.12-2.83.13-.09.03-.21-.04-.32-.09-.74-.35-1.53-.4-2.32-.37-.51.02-1.02.03-1.51-.14-1.34-.44-2.75-.66-4.03-1.29-.41-.19-.62-.06-.67.42-.1.84-.18,1.68-.26,2.52-.13,1.29-.11,2.58-.31,3.87-.08.54.05,1.12.08,1.69.03.51.06,1.01.06,1.53,0,.15-.05.33-.13.47-.04.08-.16.15-.26.16-.08,0-.18-.08-.25-.14-.14-1.45-.23-2.75-.3-4.04-.01-.28-.04-.58.04-.84.23-.77.19-1.56.25-2.35.07-.84.16-1.68.23-2.52.03-.34.04-.68.04-1.02,0-.23-.11-.45-.31-.57-.23-.15-.49-.29-.75-.4-.46-.2-.78,0-.79.49-.02.51-.03,1.01-.02,1.52.02,1.31-.12,2.59-.36,3.87-.02.1-.07.21-.1.31-.04.12-.32.27-.42.21-.08-.05-.16-.14-.21-.23-.04-.1-.05-.23-.04-.33.04-.56.03-1.14.15-1.68.3-1.39.2-2.81.2-4.21,0-.73-.46-1.11-1.14-1.24-.3.4-.22.87-.3,1.29-.06.33-.09.67-.17.99-.02.09-.15.19-.23.19-.09,0-.23-.08-.28-.16-.08-.14-.14-.31-.15-.47-.06-.51.03-1.01.13-1.51.1-.43-.1-.78-.48-.99-.34-.2-.71-.37-1.07-.52-.27-.12-.54.06-.59.38-.05.28-.09.55-.14.82-.22.1-.36.09-.42.01-.1-.13-.19-.29-.2-.44-.06-1.18-.35-1.3-1.4-1.56-.38-.1-.75-.24-1.13-.33-.29-.07-.53.13-.57.46-.01.11,0,.23-.01.34-.04.39-.13.53-.31.48-.27-.06-.33-.28-.41-.48-.05-.16-.14-.32-.14-.48-.02-.71-.38-1.14-1.04-1.37-.48-.16-.93-.41-1.4-.61-.25-.11-.58.1-.59.4-.03.51-.03,1.02-.05,1.52-.01.22-.03.45-.09.66-.02.08-.15.16-.25.18-.09,0-.25-.05-.28-.12-.1-.19-.2-.41-.2-.63,0-.5.05-1.01.07-1.52.01-.33,0-.67,0-.96-.93-.71-.96-.73-1.83-.79-.21.42-.15.88-.15,1.33,0,.96-.04,1.91-.17,2.87-.13.94-.09,1.91-.11,2.87-.01.73,0,1.47-.02,2.2,0,.15-.09.32-.19.45-.04.06-.23.07-.3.02-.2-.13-.24-.38-.25-.6-.1-1.97-.03-3.95.07-5.91.04-.85.07-1.7.07-2.54,0-.34-.07-.67-.14-1-.04-.16-.14-.34-.26-.43-.54-.42-1.2-.62-1.86-.77-.08-.01-.24.07-.27.14-.1.27-.2.53-.22.81-.06.79-.07,1.58-.12,2.36-.01.16-.11.31-.18.46-.27.12-.37.08-.41-.03-.06-.22-.14-.44-.14-.65,0-.96.03-1.92.05-2.88,0-.41-.14-.57-.59-.69-.1-.03-.21-.06-.32-.08-.12-.02-.23-.03-.34-.04-.17,0-.48.21-.52.38-.05.22-.12.44-.12.66,0,.85-.02,1.7.04,2.54.07,1.02.01,2.02-.16,3.03-.02.08-.17.21-.22.19-.15-.05-.35-.13-.39-.25-.1-.26-.13-.55-.13-.83-.02-1.47-.02-2.93-.03-4.4,0-.29.01-.57-.05-.84-.03-.12-.21-.28-.35-.32-.46-.14-.79.06-.92.47-.13.44-.23.87-.14,1.33.12.68.13,1.35-.01,2.02-.02.1-.03.23-.01.33.13,1.19-.06,2.37-.12,3.55-.11,2.31-.33,4.61-.61,6.9-.17,1.39-.25,2.8-.33,4.21-.07,1.24-.08,2.48-.13,3.72,0,.17-.1.31-.17.46-.25.07-.37.05-.43-.01-.08-.08-.14-.2-.14-.29-.01-1.02-.05-2.04,0-3.05.09-2.03.2-4.05.47-6.07.19-1.39.35-2.79.39-4.2.02-.62.09-1.24.17-1.85.19-1.46.12-2.93.06-4.39-.01-.29-.33-.49-.6-.36-.19.1-.44.21-.52.39-.27.63-.43,1.31-.04,1.95.23.39.35.7-.07,1.01-.29.23-.36.55-.38.9-.04.79.29,1.35.08,2.01-.16.52-.08,1.12-.09,1.68,0,.62,0,1.24-.01,1.87,0,.17,0,.34-.04.51-.38,1.84-.27,3.7-.28,5.56-.02,3.27-.09,6.55-.1,9.81,0,1.69.07,3.38.11,5.08,0,.15.1.33.2.45.06.07.21.09.31.09.1-.01.23-.07.28-.15.08-.14.14-.32.13-.47-.04-.79-.04-1.58-.15-2.36-.17-1.18-.21-2.35-.21-3.54,0-.62-.05-1.24-.05-1.87,0-.15.1-.32.19-.45.04-.05.24-.05.29,0,.1.12.23.27.24.42.07.85.11,1.69.15,2.54.03.5-.03,1.02.07,1.51.25,1.34.36,2.68.33,4.04,0,.34.27.65.62.7.22.02.45.02.67,0,.09-.01.16-.13.23-.21-.08-2.02.25-3.87.09-5.74-.02-.28-.02-.57.04-.84.22-.9.1-1.78-.04-2.68-.16-1.06-.33-2.12-.13-3.2.07-.39.04-.79.02-1.19-.03-.62-.15-1.23-.14-1.85.01-.62.18-1.23.2-1.85.05-1.7.08-3.38.08-5.08,0-.63.09-1.23.27-1.82.03-.07.18-.14.27-.14.09.01.23.08.27.16.09.14.16.3.17.47.05,1.18-.01,2.37-.17,3.54-.03.28-.12.56-.1.83.1,1.92-.2,3.83-.08,5.76.03.45.11.92,0,1.35-.23.9-.07,1.79.06,2.68.14.9.23,1.79.07,2.69-.08.44-.03.9,0,1.35.05.79.04,1.57,0,2.36-.07,1.12-.16,2.25.17,3.36.14.46.75.91,1.3.92.08,0,.22-.12.24-.21.05-.21.07-.44.06-.65-.05-1.42-.1-2.83-.16-4.23,0-.29,0-.58.21-.79.06-.07.18-.08.29-.09.18.2.24.3.26.42.06.5.12,1,.14,1.51.04.85.04,1.69.06,2.54.01.34.04.67.05,1.02,0,.85.46,1.35,1.25,1.6.2.06.49-.1.52-.3.02-.17.06-.33.05-.5-.03-.67-.09-1.35-.09-2.03,0-.38.09-.77.17-1.16.02-.09.12-.19.21-.24.09-.05.23-.06.32-.03.09.03.21.14.21.21,0,.45,0,.9-.04,1.36-.08.96.01,1.91.11,2.87.07.32.33.55.38.48.06-.08.14-.16.16-.25.02-.28,0-.56.02-.85.02-.16.05-.33.12-.48.03-.08.17-.12.26-.15.13-.04.23.02.25.17.05.45.13.89.13,1.33,0,.89.46,1.36,1.26,1.59.21.07.48,0,.56-.2.07-.16.08-.33.14-.49.1-.24.39-.43.5-.33.12.11.18.25.25.39-.04.76.36.95.82,1.08.11.03.24.08.33.05.14-.06.35-.16.37-.29.08-.38.1-.78.12-1.17.05-1.18.08-2.37.15-3.55.03-.45.12-.89.2-1.33.03-.16.25-.27.38-.22.19.06.24.21.26.38.01.11.01.22.01.34,0,.23-.02.45-.04.68-.06,1.29-.13,2.58-.18,3.88-.02.44.03.9.1,1.34.02.15.14.31.25.43.06.06.19.09.3.11.12.03.21-.05.22-.19.02-.5.06-1.01.07-1.51.02-1.13.03-2.26.07-3.39,0-.14.13-.3.24-.42.04-.04.25-.01.28.04.08.14.14.31.14.46.01,1.3.01,2.59.02,3.9,0,.33-.01.67,0,1.01.04.72.46,1.15,1.29,1.31.05,0,.11-.02.22-.05h0ZM149.62,46.97c.1-.13.23-.32.38-.47.27-.26.48-.28.7.04.27.38.57.52,1.01.44.33-.05.66-.11,1-.15.39-.05.78-.03,1.17.09,1.29.37,2.56.27,3.81-.16.64-.23,1.3-.41,1.97-.5.89-.11,1.76-.34,2.63-.55,1.04-.26,2.07-.51,3.12-.73.44-.09.9-.11,1.34-.12.73-.04,1.45-.11,2.11-.31.17-.37.3-.67.44-.96.11-.19.47-.16.57.03.08.15.13.31.19.46.16.44.27.51.74.52.35,0,.53-.15.55-.48.03-.38.06-.78.12-1.17.01-.06.17-.15.25-.15.09,0,.22.05.27.13.24.36.13.76.19,1.15.05.47.29.72.75.76.29.02.57,0,.85-.01.19-.01.44-.29.43-.45-.01-.34-.04-.68-.05-1.02-.01-.17,0-.33.02-.5.02-.18.13-.3.31-.34.15-.04.32.08.35.27.1.56.18,1.11.31,1.66.03.15.14.32.27.41.35.23.75.26,1.13.1.09-.03.18-.15.2-.25.04-.22.05-.45.06-.67.07-1.41.12-2.82.19-4.22.01-.17.09-.32.16-.48.32.06.39.16.39.27.03,1.19.05,2.37.08,3.55,0,.45,0,.9.03,1.36.02.33.34.61.68.64.45.06.92.07,1.32-.13.43-.22.73-.14,1.07.16.22.2.52.2.8.16,1.74-.23,3.48-.2,5.22-.02.95.1,1.92.25,2.85-.12.89.04,1.8.09,2.7.15.28.02.56.1.84.1.49,0,.89-.15,1-.71.16-.21.26-.28.36-.27.09,0,.22.1.25.18.08.15.08.33.12.49.07.27.25.46.42.46.18,0,.37-.25.37-.48-.01-.67-.04-1.35-.03-2.03,0-.56-.09-1.13.17-1.66.34.32.41.65.44.98.08.95.16,1.92.23,2.87.04.51.28.85.74,1.05.11.04.2.1.31.15.55.25.93.05.92-.52,0-.79-.06-1.58-.06-2.37,0-.21.11-.43.18-.64.33.15.4.31.42.47.1.9.19,1.79.29,2.69.04.35.32.56.72.58.5.04.9-.07,1.05-.62.26-.36.47-.36.63-.13.13.19.24.38.4.63.86.11,1.75.15,2.65.15.57,0,1.13,0,1.69,0,.67-.02,1.37.02,2.02-.09,1.64-.27,3.27-.05,4.89.16.29.04.56.1.81.14.44-.16.24-.62.45-.86.07-.07.19-.11.29-.15.12-.04.22.02.25.15.05.22.11.44.13.66.04.54.38.86.84.94.62.11,1.16.4,1.72.63.74.29,1.48.56,2.22.81.79.27,1.65.35,2.49.46,1.74.22,3.48.4,5.21.59.17.02.34.03.51.01,1.12-.14,2.24-.19,3.37-.11.21.01.43-.2.44-.42v-2.54c0-.28-.05-.57.13-.81.09.05.21.09.25.17.26.58.38,1.18.37,1.81,0,.56.07,1.13.12,1.69.02.24.32.42.65.44.25.02.44-.1.51-.32.04-.1.04-.21.08-.32.03-.11.04-.23.1-.32.06-.08.17-.15.26-.16.08,0,.2.06.25.14.06.09.1.22.1.32-.02.86.56,1.17,1.27,1.36q1.94.5,4.18.5c2.19,0,3.84.17,6.39.59.22.04.45.02.67.02.19,0,.42-.22.47-.43.09-.31.01-.69.26-.95.06-.07.2-.06.29-.07.18.18.25.29.26.39.03.28.01.56.04.84.04.36.36.57.73.52.38-.16.59-.15.75.07.14.18.25.37.41.53.17.18.4.19.63.12.22-.36.17-.76.17-1.15,0-1.36.28-2.68.36-4.04,0-.06.15-.17.21-.16.09.02.21.11.23.2.06.22.11.44.1.66,0,.45-.06.9-.06,1.35-.03,1.07-.06,2.14-.07,3.21,0,.35.23.59.63.7.22.06.52-.09.53-.28.01-.51.02-1.01.01-1.52,0-.62-.08-1.24.1-1.85.05-.15.12-.19.24-.12.36.43.38.82.4,1.22.03.79.07,1.57.12,2.37.03.33.37.56.75.54.39-.03.69-.26.72-.57.04-.39.1-.79.09-1.18-.08-1.52.04-3.05-.2-4.56-.12-.83-.02-1.69-.02-2.53.16-.27.28-.37.42-.44.03-.01.19.14.21.23.13.78.3,1.54.21,2.35-.07.55.05,1.12.12,1.68.14,1.23.06,2.47.09,3.72,0,.23,0,.45.03.67.01.1.1.21.18.27.25.19.91.19,1.12-.02.1-.11.21-.29.19-.44-.03-.62-.1-1.24-.18-1.85-.19-1.41-.23-2.81-.14-4.21.19-.11.34-.08.36-.02.29.64.32,1.32.33,1.99.03,1.37.23,2.7.45,4.04.05.29.3.57.55.57,1.36.03,2.69.32,4.02.54.45.03.74-.21.76-.47.02-.28.04-.56.04-.85-.06-2.03.21-4.05.29-6.08,0-.16.07-.32.12-.48.03-.13.14-.18.27-.11.08.04.21.13.21.21.03.33.06.67.05,1-.05.9-.13,1.8-.18,2.7-.06,1.18-.04,2.37.13,3.55.03.21.15.42.23.62.23.06.38.02.4-.04.07-.21.11-.43.12-.66.04-.79.04-1.58.09-2.37.01-.16.12-.3.2-.45.33.19.38.36.39.53.02,1.02.03,2.03.05,3.04.01.39.23.62.63.67.08,0,.23-.07.25-.13.07-.21.13-.43.13-.65.02-1.8.05-3.61.04-5.42,0-1.52-.04-3.04.13-4.56.07-.62.03-1.23-.07-1.86-.06-.44-.06-.89-.02-1.33.02-.2.2-.39.33-.56.02-.04.19.03.28.07.16,1.71.34,3.29.14,4.86-.1.72-.08,1.46-.04,2.19.1,2.03.12,4.06.01,6.09-.03.45.03.9.1,1.34.06.35.32.59.66.71.14.05.4-.05.41-.18.03-.5.07-1,.08-1.51.03-.84,0-1.69.06-2.53.15-2.03.19-4.05.16-6.08,0-.62-.06-1.24.17-1.84.05-.13.13-.2.26-.13.09.05.19.11.23.19.05.09.07.21.07.33.01,2.31.08,4.62-.13,6.93-.06.62-.05,1.24-.06,1.86,0,1.06,0,2.14,0,3.21,0,.46.68.92,1.11.74.13-.06.28-.22.31-.37.07-.33.1-.67.11-1,0-3.05.19-6.09.11-9.14,0-.17-.01-.34,0-.51.33-2.92.2-5.86.27-8.79,0-.33.01-.68.08-1,.03-.15.16-.29.28-.38.04-.04.21,0,.27.05.07.07.11.2.11.31-.07,3.72,0,7.45-.24,11.16.08,2.93-.19,5.86-.18,8.79,0,.28.04.56.07.85.06.39.66.71,1.07.57.1-.04.19-.12.25-.21.07-.15.14-.31.16-.48.27-2.74.56-5.49.8-8.24.14-1.51.2-3.04.32-4.55.17-2.14.01-4.29,0-6.43,0-1.58-.09-3.16-.14-4.74,0-.17-.02-.34,0-.51.3-2.86.12-5.75.49-8.61.21-1.57.12-3.16.02-4.73,0-.17-.1-.32-.17-.48-.34.34-.41.67-.44,1.01-.07.84-.01,1.69-.25,2.5-.01.07-.17.1-.27.13-.15-.31-.21-.53-.21-.75,0-.9.04-1.8.03-2.71,0-.22-.08-.43-.15-.64-.38.11-.47.27-.48.43-.11,1.06-.2,2.13-.31,3.19-.02.22-.06.46-.17.64-.07.12-.27.18-.41.2-.06,0-.18-.13-.19-.23-.04-.17-.04-.34-.03-.5.06-.97.12-1.92.17-2.88.02-.34.03-.69-.16-.98-.08-.13-.25-.25-.39-.26-.14,0-.33.12-.39.24-.1.19-.14.43-.14.64,0,1.58-.2,3.15-.5,4.7-.07.39-.1.79-.08,1.18.08,1.3-.09,2.6-.04,3.89.01.11-.03.22-.06.33-.04.14-.13.19-.23.14-.38-.68-.47-1.28-.43-1.91.03-.85.04-1.69.03-2.54,0-.96.19-1.9.36-2.84.21-1.23.21-2.47.19-3.71,0-.19-.22-.42-.43-.46-.22-.04-.45-.06-.67-.06-.23,0-.45.19-.49.39-.11,1.97-.52,3.74-.44,5.55.08,1.82-.28,3.6-.28,5.4,0,.16-.04.34-.06.5-.06.36-.29.59-.52.52-.19-.04-.34-.29-.33-.53,0-.34,0-.68.04-1.02.36-2.51.38-5.05.53-7.58.05-.9.05-1.8.22-2.69.08-.42-.17-.76-.61-.88-.21-.05-.45-.06-.67-.05-.09,0-.21.11-.25.19-.08.15-.12.32-.14.48-.13,1.18-.24,2.36-.4,3.53-.12.9-.08,1.8-.05,2.7,0,.09-.1.19-.17.27-.08.08-.36-.04-.42-.18-.06-.15-.16-.31-.17-.47-.01-.62-.02-1.24.03-1.86.09-1.13.23-2.24.33-3.37.03-.39.03-.79,0-1.17-.03-.43-.26-.75-.69-.89-.21-.08-.42-.15-.64-.22-.23-.07-.48.09-.5.32-.03.62-.05,1.24-.1,1.85,0,.1-.08.19-.14.28-.38-.21-.49-.42-.52-.63-.08-.56-.15-1.12-.19-1.68-.04-.52-.31-.83-.79-.98-.11-.03-.21-.06-.32-.11-.15-.04-.38.09-.39.23-.02.23-.01.45-.03.67-.02.17-.25.34-.36.28-.14-.07-.32-.18-.36-.3-.09-.27-.12-.56-.14-.84-.04-.46-.34-.68-.73-.84-.22-.09-.4,0-.52.25-.1.32-.17.48-.37.44-.1-.02-.21-.11-.26-.2-.08-.14-.12-.31-.17-.47-.05-.16-.09-.33-.14-.49-.09-.23-.43-.32-.71-.2-.1.05-.18.14-.28.16-.1.03-.25,0-.31-.07-.12-.12-.21-.27-.26-.42-.12-.36-.38-.56-.7-.69-.26-.1-.53-.19-.79-.31-.25-.11-.41.02-.6.15-.11.07-.38.09-.44.01-.45-.53-1.04-.63-1.67-.7-1.01-.1-2.02-.23-3.03-.34-1.24-.14-2.46-.32-3.65-.74-.53-.19-1.1-.28-1.66-.33-.85-.08-1.68-.09-2.51-.36-.21-.07-.45-.03-.67-.04-.29,0-.55.2-.61.48-.06.33-.1.67-.17,1-.02.1-.1.19-.16.28-.24.05-.38.03-.42-.04-.28-.4-.13-.87-.18-1.31-.03-.32-.21-.53-.48-.64-.21-.08-.43-.12-.65-.17-.13-.02-.38.14-.39.26-.05.44-.08.89-.14,1.33-.06.45-.13.89-.22,1.33-.01.09-.17.23-.21.21-.14-.04-.32-.13-.37-.25-.09-.2-.12-.44-.12-.65.03-.68.08-1.35.12-2.03.03-.39-.17-.61-.59-.68-.22-.04-.45-.06-.67-.08-.29-.02-.52.18-.6.47-.25.88-.28,1.78-.23,2.68.02.33.01.67-.02,1,0,.09-.13.17-.22.22-.11.07-.38-.07-.42-.19-.06-.16-.13-.32-.14-.48-.05-.96-.09-1.92.06-2.87.03-.17.05-.33.07-.5.02-.21-.14-.5-.33-.55-.38-.11-.76-.21-1.14-.3-.29-.06-.56.16-.58.47-.05.62-.06,1.23-.12,1.85-.02.13-.18.27-.31.35-.05.04-.24-.01-.27-.07-.08-.14-.13-.31-.14-.47-.02-.67,0-1.35-.02-2.03,0-.25-.16-.41-.39-.5-.11-.05-.22-.07-.32-.11-.36-.13-.63-.06-.87.27-.3.4-.52.38-.71-.05-.21-.47-.53-.72-1.02-.78-1.45-.2-2.91-.4-4.37-.59-.22-.03-.45-.03-.68-.01-1.07.05-2.13.08-3.2-.14-.22-.04-.43.08-.52.33-.04.11-.08.21-.13.31-.14.22-.4.35-.56.23-.12-.09-.21-.23-.27-.38-.05-.1,0-.22-.01-.33-.03-.2-.16-.3-.35-.3-.21,0-.44,0-.64.1-.2.07-.36.26-.54.38-.22.15-.44.11-.57-.12-.15-.24-.21-.55-.52-.63-.38-.1-.78-.18-1.16-.04-.13.05-.22.23-.31.37-.08.14-.12.3-.21.45-.07.12-.38.12-.44,0-.11-.25-.21-.51-.32-.77-.15-.35-.42-.49-.82-.44-.23.03-.43.15-.52.37-.14.36-.26.74-.41,1.09-.03.07-.2.1-.29.08-.1-.01-.21-.1-.25-.2-.06-.15-.11-.32-.1-.48,0-.28.08-.55.1-.83.01-.19-.14-.3-.3-.36-.16-.05-.33-.08-.5-.1-.47-.05-.62.05-.74.47-.06.22-.11.43-.2.64-.04.09-.19.19-.26.16-.14-.04-.32-.12-.38-.25-.1-.2-.1-.43-.14-.65-.08-.43-.23-.59-.65-.62-.23-.02-.45-.02-.68-.04-.39-.04-.64.12-.74.52-.03.1-.12.19-.18.27-.08.1-.4.06-.45-.06-.1-.21-.16-.43-.28-.62-.08-.13-.22-.25-.35-.35-.21-.16-.66.04-.66.29,0,.22.04.45.05.68,0,.17-.16.38-.29.34-.16-.02-.34-.08-.44-.19-.37-.39-.32-.95-.53-1.4-.03-.08-.19-.15-.28-.14-.09,0-.18.1-.24.16-.07.27-.08.39-.11.49-.06.19-.34.41-.49.4-.15,0-.46-.25-.49-.42-.03-.17-.04-.34-.06-.5-.03-.16-.06-.31-.08-.44-.41-.22-.82-.19-1.2-.19-1.24,0-2.48-.03-3.72.14-.33.04-.68.07-1,0-.95-.19-1.9-.2-2.86-.27-.62-.05-1.23-.12-1.85-.19-.12,0-.23-.04-.34-.04-.44.04-.88.15-1.31.14-.39,0-.78-.13-1.17-.19-.11,0-.23,0-.33.06-.3.13-.59.39-.89.39-.31,0-.59-.31-.91-.4-.32-.08-.67-.09-1.01-.09-.45,0-.74.21-.82.69-.03.17-.15.3-.34.27-.17-.02-.31-.13-.35-.31-.26-.65-.45-.77-.94-.75-.32,0-.56.17-.61.46-.04.28-.05.56-.11.83-.01.07-.15.18-.23.17-.09,0-.23-.09-.25-.17-.12-.31-.21-.64-.32-.96-.04-.12-.14-.16-.26-.1-.11.45-.11.78-.1,1.11.01.28.05.56.04.85,0,.08-.12.19-.2.21-.09.02-.23-.04-.3-.11-.24-.27-.22-.62-.29-.95-.09-.38-.04-.8-.32-1.12-.06-.07-.2-.12-.29-.11-.09.01-.22.12-.22.19.04.73.1,1.46.16,2.18.05.62.12,1.23.17,1.85.02.34-.11.55-.26.49-.26-.09-.33-.31-.36-.52-.16-.95-.28-1.9-.43-2.84-.05-.33-.13-.67-.21-1-.05-.19-.23-.36-.3-.3-.09.07-.14.17-.19.26-.06.1-.08.21-.13.3-.08.15-.34.19-.42.07-.12-.19-.21-.4-.34-.59-.06-.09-.16-.17-.26-.2-.39-.11-.78-.12-1.17,0-.43.58-.92.31-1.48.21-.66-.13-1.35-.06-2.03-.07-.71-.01-.76.03-.96.83-.03.11-.07.22-.1.32-.07.2-.41.27-.57.13-.23-.2-.35-.43-.4-.72-.02-.17-.05-.33-.25-.39-.15-.04-.43.08-.58.29-.12.18-.21.38-.34.57-.14.23-.36.23-.54,0-.15-.17-.26-.37-.43-.53-.05-.05-.26-.04-.3.01-.19.26-.34.57-.54.85-.05.08-.18.14-.28.15-.2.03-.3-.12-.36-.29-.03-.11-.04-.22-.08-.32-.04-.1-.08-.21-.14-.3-.09-.17-.44-.17-.61-.07-.32.2-.35.56-.53.84-.12.21-.38.22-.54,0-.07-.09-.12-.19-.17-.3-.15-.3-.4-.38-.71-.36-.27.02-.56.04-.83.11-.62.15-1.23.14-1.84,0-.73-.17-1.46-.14-2.19-.05-.73.08-1.45.13-2.18.19-.62.04-1.24-.05-1.83.24-.18.1-.44.04-.66.04-.28.01-.57-.02-.84.04-.94.2-1.89.26-2.85.29-.57.02-.77.25-.75.88.03.62.09,1.23.12,1.85.01.23.01.46.02.68,0,.19-.14.34-.3.31-.17-.04-.33-.12-.36-.3-.1-.5-.21-1-.28-1.5-.06-.39-.08-.79-.11-1.18-.02-.23-.23-.43-.44-.43-.45,0-.9,0-1.35.03-.35.02-.63.32-.61.68.08,1.12.17,2.25.25,3.38.03.38.09.78.11,1.18,0,.16-.03.34-.05.5-.02.13-.26.34-.36.28-.09-.04-.22-.11-.24-.2-.22-.76-.28-1.54-.32-2.34-.04-.9-.11-1.8-.18-2.7-.03-.3-.27-.53-.55-.57-.22-.02-.45-.03-.68-.03-.42,0-.65.22-.64.6.03.73.1,1.46.12,2.2,0,.16-.06.32-.12.47-.39-.1-.51-.24-.54-.39-.08-.5-.12-1-.17-1.51-.04-.34-.04-.68-.13-1-.03-.12-.23-.26-.37-.3-.38-.09-.68.07-.83.39-.07.14-.11.31-.18.46-.07.13-.34.17-.44.05-.15-.16-.29-.34-.49-.58-.67-.13-1.4-.12-2.12-.13-1.35,0-2.71.04-4.06.03-.59,0-1.12.07-1.55.5-.13.14-.31.09-.47.02-.65-.26-.64-.26-.74.26-.05.28-.1.55-.16.83-.03.13-.3.32-.39.25-.13-.09-.3-.21-.32-.35-.06-.38-.06-.78-.08-1.19-.15-.16-.36-.19-.59-.15-.29.05-.52.19-.64.48-.18.42-.26.86-.17,1.32.05.33.11.67.14,1,0,.06-.14.18-.22.19-.09,0-.24-.04-.28-.12-.28-.5-.46-1.03-.48-1.61-.01-.28-.04-.56-.1-.83-.02-.07-.16-.13-.26-.17-.12-.05-.23,0-.26.13-.05.21-.12.43-.11.64.03.85.09,1.69.13,2.54,0,.17-.02.34-.07.49-.03.08-.15.16-.23.17-.1,0-.24-.06-.28-.14-.1-.19-.18-.4-.21-.62-.1-.9-.18-1.8-.28-2.7-.02-.24-.2-.41-.43-.44-.29-.05-.58-.03-.77.21-.13.18-.17.41-.27.61-.07.14-.35.18-.44.06-.17-.22-.3-.47-.48-.67-.05-.07-.22-.09-.3-.06-.15.06-.29.16-.42.25-.19.13-.37.25-.61.14-.94-.39-1.89-.21-2.83-.11-.5.05-.99.19-1.5.23-.5.04-.82.25-1.09.66-.2.31-.42.29-.68.02-.08-.08-.11-.2-.19-.28-.53-.47-1.28-.23-1.43.45-.07.34-.07.69-.32.94-.07.07-.2.12-.29.11-.1-.01-.22-.09-.26-.18-.07-.14-.07-.32-.11-.48-.04-.21-.06-.44-.14-.65-.03-.08-.17-.11-.27-.16-.14-.05-.23,0-.27.14-.2.54-.14,1.11-.13,1.67,0,.39.02.79,0,1.18,0,.16-.08.31-.27.37-.13.04-.33-.07-.37-.25-.04-.16-.08-.32-.11-.49-.1-.73-.19-1.46-.3-2.18,0-.08-.12-.16-.21-.2-.12-.06-.22.01-.27.14-.07.21-.17.42-.21.64-.17,1.11-.32,2.23-.22,3.36.03.33-.03.67-.08,1,0,.07-.16.15-.25.15s-.19-.08-.28-.14c-.26-1.2-.45-2.25-.25-3.33.09-.49.05-1,.06-1.51,0-.15-.19-.34-.34-.31-.15.04-.33.08-.44.19-.11.11-.14.3-.19.45-.05.22-.08.44-.12.65-.23.09-.38.1-.43.04-.17-.23-.28-.49-.44-.72-.1-.15-.24-.25-.43-.2-.21.06-.43.15-.47.41-.04.28-.06.55-.11.82-.04.14-.17.17-.28.06-.12-.11-.22-.24-.32-.38-.1-.13-.17-.29-.27-.42-.17-.2-.65-.14-.74.08-.14.37-.25.74-.39,1.1-.04.1-.19.24-.23.23-.14-.08-.3-.19-.38-.32-.08-.14-.08-.32-.11-.5-.03-.16-.03-.34-.1-.49-.03-.08-.16-.16-.25-.18-.1,0-.25.03-.29.09-.18.33-.33.69-.53,1.02-.02.05-.22.05-.29,0-.26-.17-.25-.47-.32-.74-.08-.3-.31-.51-.58-.51-1.31,0-2.6.02-3.89.03-.3,0-.54.13-.75.32-.18.16-.39.19-.62.11-.69-.22-1.35,0-1.97.24-.19.08-.29.32-.47.46-.12.1-.28.18-.45.04-.38-.34-.82-.32-1.28-.22-.78.17-1,.38-.9,1.12.02.23,0,.45-.16.64-.23.07-.35.06-.42,0-.26-.27-.23-.62-.3-.95-.06-.3-.3-.48-.62-.47-.28,0-.56.03-.83.08-.24.04-.38.22-.48.44-.04.1-.03.22-.07.33-.12.43-.32.65-.49.58-.25-.1-.25-.33-.31-.54-.12-.51-.22-.62-.61-.65-.29-.02-.57-.02-.84-.01-.22,0-.43.19-.44.43-.02.62-.02,1.24-.04,1.86,0,.33,0,.67-.04,1,0,.07-.13.19-.21.19-.1,0-.23-.06-.29-.14-.08-.14-.15-.3-.16-.46-.03-.56-.03-1.13-.07-1.69-.03-.33-.08-.67-.18-1-.04-.13-.2-.32-.34-.35-.52-.12-.99.09-1.43.34-.08.04-.16.19-.16.28,0,.79,0,1.57.04,2.37.09,1.91.2,3.83.3,5.75,0,.11-.03.23-.08.32-.05.09-.13.2-.22.22-.07.02-.21-.06-.24-.13-.24-.46-.25-.98-.28-1.49-.11-2.2-.47-4.38-.48-6.59,0-.1-.04-.23-.1-.31-.06-.08-.21-.18-.27-.16-.45.2-.9.42-1.33.62-.18.61-.14,1.18-.06,1.73.24,1.57.16,3.16.32,4.73.16,1.57.17,3.15.27,4.73.12,1.86.25,3.72.37,5.58.03.33.08.67-.1.99-.36,0-.45-.09-.48-.18-.1-.39-.22-.77-.25-1.16-.17-2.25-.27-4.51-.48-6.76-.17-1.8-.1-3.6-.39-5.39-.12-.72-.09-1.46-.14-2.2-.03-.5-.1-1.01-.15-1.52-.01-.12-.27-.31-.38-.29-.32.09-.65.18-.96.29-.29.1-.45.34-.47.63-.02.4,0,.79,0,1.18.01.91.03,1.81.05,2.71,0,.73,0,1.46.17,2.19.08.32.09.67.11,1,.18,2.32.35,4.62.52,6.93,0,.17.04.34.03.51-.09,2.71.18,5.42.14,8.12,0,.56.08,1.13.18,1.68.11.62.16,1.23.16,1.86,0,2.2.21,4.39.53,6.58.22,1.56.3,3.15.43,4.73.05.62.06,1.23.1,1.86.08,1.2.19,1.29,1.46,1.28.22,0,.44-.06.71-.11-.03-1.39-.08-2.73-.1-4.08,0-.21.07-.43.12-.64.39.12.53.26.54.41.09.79.16,1.58.21,2.36.03.5,0,1.01.03,1.52.01.36.28.62.66.63.34.02.68.03,1.01.02.37,0,.6-.29.54-.69-.23-1.46-.23-2.92-.21-4.39,0-.22.05-.44.09-.66.19-.08.32-.05.38.02.09.14.19.3.2.46.04.51.07,1.02.07,1.52.02,1.08.14,2.14.32,3.2.05.29.3.53.56.55.39.02.79.03,1.19.02.34-.01.59-.34.54-.71-.04-.34-.12-.67-.17-1-.11-.83-.25-1.67-.31-2.52-.04-.62.09-1.23.5-1.74.04-.05.22-.05.29,0,.08.05.15.18.17.28.07.44.19.89.18,1.33-.01,1.09.38,2.12.54,3.17.04.26.38.47.65.42,1.2-.31,1.26-.38,1.28-1.38,0-.34,0-.68.02-1.02.01-.17.1-.31.29-.35.14-.03.35.09.39.24.03.1.08.21.09.32.13,1.31.14,1.53,1.73,1.12,2.24-.58,4.52-.91,6.84-.98.84-.03,1.69.03,2.53.09,2.28.17,2.27.18,4.38-.1.52-.07.6-.16.74-.74.05-.22.09-.44.14-.66.07-.29.26-.48.41-.42.25.11.27.34.31.56.03.22.05.45.09.67.03.19.31.33.54.29.25-.04.44-.22.44-.42-.04-.62-.1-1.24-.11-1.86-.04-.96-.06-1.92-.06-2.88,0-.16.06-.33.13-.47.04-.07.18-.07.31-.12.17.78.18,1.58.2,2.36.01.86.17,1.69.34,2.52.11.5.55.74,1.04.59.22-.07.42-.29.41-.48,0-.39-.03-.79-.06-1.18-.1-1.58-.22-3.15-.31-4.73-.01-.21.07-.44.14-.64.03-.07.18-.09.33-.17.11,1.09.22,2.15.35,3.21.12,1.06.27,2.13.41,3.19.04.35.34.52.77.46.5-.08.69-.29.66-.78-.03-.51-.06-1.02-.07-1.52,0-.16.06-.33.14-.47.05-.08.17-.15.26-.16.09,0,.23.06.26.13.07.14.09.32.12.48.1.5.19,1,.3,1.49.05.24.43.44.68.37.17-.04.34-.08.48-.16.23-.14.45-.31.69-.48.17.06.34.09.48.17.32.18.65.26.98.17.83-.24,1.67-.2,2.52-.18.34,0,.68.03,1.01-.04,1.56-.36,3.14-.16,4.72-.26.63-.04,1.24-.02,1.85-.16.43-.1.9-.08,1.34-.09.39,0,.79.01,1.15-.19.27-.15.54-.05.83.03.14.05.33.03.49.01.24-.04.53-.37.5-.6-.02-.34-.06-.67-.1-1-.13-1.18-.2-2.36-.09-3.54.02-.15.12-.19.2-.14.18,1.19.59,2.21.59,3.29,0,.49.17.99.27,1.49.09.36.69.55.99.31.08-.07.18-.18.18-.27,0-.39,0-.79-.06-1.18-.23-1.4-.2-2.81-.2-4.22,0-.16.1-.31.16-.51.1.11.21.18.23.27.16,1,.4,1.99.37,3.03-.01.86.2,1.67.41,2.5.05.21.32.36.52.31.33-.08.66-.15.97-.27.13-.05.28-.23.29-.37.03-.32,0-.67-.02-1-.06-1.24-.13-2.48-.17-3.72,0-.07.12-.21.19-.21.09,0,.22.08.26.16.1.2.2.42.22.63.05.44.05.9.1,1.35.09.85.21,1.68.33,2.52.04.29.32.46.62.42.51-.06.86-.41.83-.88-.03-.56-.11-1.13-.14-1.69-.01-.15.06-.33.14-.46.04-.07.19-.1.29-.12.21.24.29.38.32.54.1.5.18,1,.23,1.51.08.7.37.89,1.19.8.24-.02.43-.12.49-.38.05-.22.08-.44.16-.66.03-.08.14-.15.24-.2.13-.08.32.01.42.18.28.98.84,1.21,1.61,1.09.4-.06.76,0,1.14.18.65.3,1.32.14,2.1.1h0ZM63.38,8.77c-.22-.02-.45.12-.64-.06-.12-.11-.22-.26-.28-.4-.08-.15-.09-.33-.14-.49-.04-.1-.11-.18-.19-.29-.15.05-.32.07-.46.15-.3.16-.61.32-.86.52-.86.72-1.91,1.18-2.73,2.01-.04.55-.06,1.11-.1,1.67-.01.17-.04.36-.13.48-.09.12-.26.18-.42.22-.04.01-.16-.15-.18-.24-.05-.39-.07-.79-.1-1.18-.03-.3-.28-.5-.58-.46-.22.04-.45.08-.66.15-.33.14-.54.41-.54.78,0,.4.04.79.05,1.19,0,.22-.02.44-.05.67-.02.23-.29.45-.46.36-.14-.07-.28-.2-.33-.34-.07-.14-.09-.33-.08-.49.03-1.48-.18-1.5-1.58-1.06-.11.03-.22.06-.33.1-.3.1-.44.31-.45.62,0,.17-.01.34-.04.51-.07.31-.43.44-.64.24-.16-.16-.3-.35-.45-.51-.2-.2-.54-.26-.77-.11-.23.16-.44.34-.66.51-.13.11-.25.21-.45.18-.8-.11-1.42.24-1.9.84-.2.24-.45.29-.74.31-.22,0-.46.05-.65.13-.36.18-.62.46-.72.88-.1.43.05.91-.23,1.31-.08.12-.34.22-.43.14-.08-.07-.18-.14-.25-.23-.08-.08-.11-.21-.2-.28-.07-.06-.19-.12-.28-.11-.09.03-.16.14-.23.22-.13,1.67-.08,3.2.07,4.71.12,1.18.27,2.36.41,3.53,0,.11,0,.23-.04.33-.04.1-.14.17-.22.23-.12.08-.21.04-.29-.08-.21-.29-.31-.6-.35-.95-.19-1.85-.4-3.7-.57-5.56-.05-.5.02-1.01.03-1.51,0-.11-.31-.25-.42-.2-.32.15-.64.36-.68.7-.1,1.29-.36,2.57-.16,3.87.11.72.29,1.44.4,2.17.04.26-.01.55-.04.83-.2.12-.32.11-.41.06-.09-.06-.17-.16-.2-.27-.12-.44-.27-.87-.32-1.32-.13-1.28-.44-2.56-.36-3.87.01-.21-.07-.43-.11-.64-.54-.14-.92.12-1.28.37-.12.09-.19.29-.2.44-.02.22.03.45.07.67.06.45.18.9.19,1.34.02,1.08.28,2.13.47,3.18.43,2.22.96,4.42,1.53,6.6.07.27.13.54.21.81.05.17.24.25.41.21.21-.03.28-.2.28-.36.02-.39.02-.79-.04-1.18-.14-.89-.35-1.77-.5-2.66-.06-.33-.03-.67-.03-1.01,0-.13.23-.33.36-.28.15.06.29.15.4.27.07.08.09.21.09.32-.01,1.43.57,2.75.75,4.15.02.2.33.35.54.29.21-.07.43-.13.63-.22.22-.1.36-.3.33-.53-.07-.56-.19-1.12-.27-1.68-.07-.44-.2-.88-.04-1.33.2-.13.32-.12.41-.06.09.05.18.15.22.24.14.43.27.86.39,1.3.06.21.08.44.14.66.17.55.76.9,1.34.8.67-.1,1.33-.24,2-.31.33-.04.67.03,1,.08.24.03.5.34.55.59.12.66-.07,1.23-.49,1.72-.33.38-.71.72-1.05,1.09-.26.28-.51.58-.77.89.42,1.15.4,2.32.31,3.5-.19.12-.32.11-.38.05-.22-.27-.3-.62-.32-.95-.04-.57-.07-1.13-.11-1.69-.01-.23-.31-.35-.52-.2-.22.17-.44.34-.66.52-.28.23-.38.53-.38.89.03.96.05,1.92.08,2.88,0,.11,0,.23-.03.33-.04.09-.13.21-.21.21-.09,0-.23-.08-.27-.16-.08-.2-.15-.43-.18-.64-.08-.56-.12-1.13-.18-1.69-.04-.35-.17-.55-.32-.52-.16.03-.33.08-.46.16-.52.34-.74.84-.71,1.44.01.33.08.67.1,1.01.05.67.1,1.35.13,2.03,0,.16-.07.32-.11.48-.03.12-.13.18-.26.13-.1-.04-.23-.09-.25-.16-.08-.33-.17-.66-.19-.99-.05-.78-.17-1.55-.32-2.32-.17.02-.29,0-.38.04-.76.41-1.13,1.07-1.2,1.91-.03.38,0,.79-.03,1.18-.04.33-.13.66-.22.98-.07.24-.37.41-.51.29-.11-.1-.22-.25-.24-.39-.03-.22.03-.45.01-.67-.03-.31.17-.73-.27-.86-.3-.08-.47.24-.66.44-.52.56-.79,1.21-.76,1.99,0,.45-.06.9-.13,1.34,0,.08-.14.14-.23.19-.12.07-.36-.08-.37-.23-.04-.45-.08-.9-.12-1.35-.02-.22-.3-.37-.5-.28-.42.17-.77.45-1.09.76-1.24,1.23-2.7,2.18-4.09,3.25-1.01.78-2.08,1.52-3.26,2.06-.15.07-.3.15-.44.25-.89.59-1.75,1.21-2.78,1.37-.47,1.11-.67,2.14-.56,3.24.08.83.12,1.68.17,2.53.02.21.23.43.45.45.28.03.58.08.77-.19.09-.13.15-.32.14-.47-.04-.56-.13-1.12-.17-1.68-.01-.22.06-.44.13-.65.03-.07.17-.16.26-.16.09-.02.23.04.28.11.1.13.17.29.2.46.06.44.11.89.13,1.35.06,1,.28,1.04,1.16.94.32-.04.51-.25.5-.56-.01-.67-.04-1.35-.07-2.04,0-.22-.02-.45-.02-.67,0-.27.2-.49.38-.44.17.05.28.17.3.36.05.62.1,1.24.17,1.85.03.29.08.56.14.84.04.19.29.38.5.39.23,0,.45,0,.67-.03.29-.03.55-.27.57-.53.08-.9.14-1.79.21-2.7.06-.9.12-1.8.18-2.7.07-.3.33-.45.43-.38.08.06.21.18.2.24-.19,1.18-.14,2.36-.15,3.55,0,.39-.01.79.03,1.18.08.86.3,1.01,1.04.99.17,0,.34,0,.51-.01.27-.02.55-.29.57-.54,0-.46.01-.9-.01-1.35-.09-1.02-.07-2.03.08-3.04.03-.21.15-.41.24-.62.36.12.42.23.42.34,0,.39.02.79-.03,1.18-.16,1.13.04,2.24.21,3.36.04.29.33.47.63.38.33-.08.65-.2.97-.3.2-.06.34-.29.34-.53,0-.11.02-.23,0-.34-.12-.9-.07-1.8-.03-2.71.03-.79-.01-1.58-.01-2.37,0-.34.02-.67.04-1.01.02-.22.24-.41.45-.43.25,0,.55.27.57.53.01.11.02.23.02.34-.05,1.29-.11,2.59-.16,3.88,0,.17,0,.34.01.51.15,1.49.12,1.71,1.73,1.22.16-.05.32-.12.46-.19.05-.02.08-.08.18-.18,0-.33-.02-.71,0-1.1.01-.16.09-.33.18-.46.05-.07.19-.07.3-.09.25.31.33.58.42.84.12.37.48.51.81.29,1.42-.91,3-1.5,4.47-2.33.49-.28,1-.52,1.5-.77.4-.2.79-.45,1.21-.57,1.59-.47,2.95-1.34,4.31-2.22.89-.58,1.84-1.08,2.76-1.63.53-.32,1.05-.65,1.59-.96.3-.18.56-.37.71-.69.2-.41.49-.59.96-.45.09.03.23,0,.32-.04.5-.25.98-.52,1.42-.76.24-.57.16-1.07.13-1.57-.06-.96-.14-1.92-.2-2.88-.03-.57-.06-1.12-.06-1.69,0-.16.03-.35.12-.48.08-.12.25-.21.4-.24.15-.04.34.17.35.31.06,1.57.12,3.15.19,4.73.02.28.08.56.17.82.05.13.22.25.36.3.19.07.5-.12.55-.3.04-.16.12-.32.12-.48-.01-1.12.06-2.26-.18-3.38-.06-.27-.1-.56-.08-.84.09-1.41-.04-2.82-.02-4.22.02-.96-.06-1.91-.21-2.87-.11-.66-.11-1.34-.13-2.02,0-.17.05-.33.12-.48.04-.08.16-.16.26-.18.09-.02.25.02.28.08.12.25.28.52.29.78.02,1.13.19,2.25.34,3.37.1.73.04,1.47.01,2.2-.06,2.26.1,4.51.2,6.77,0,.21.14.42.22.63.43.22,1.19-.17,1.24-.47.03-1.35.14-2.53-.1-3.71-.07-.33-.11-.67-.09-1.01.08-1.07-.04-2.14-.11-3.21-.05-.84-.07-1.69-.05-2.53.04-1.69.06-3.39-.14-5.07-.08-.67-.12-1.35-.14-2.03-.03-.85-.08-1.69-.22-2.53-.12-.67-.18-1.35.09-2,.14-.38.03-.78,0-1.18-.1-1.34-.18-2.7-.26-4.05-.01-.1.04-.22.11-.31.05-.08.16-.15.25-.16.1-.01.22.04.3.11.08.07.15.18.17.28.14,1,.34,2,.33,3.03-.01,1.97.01,3.95.14,5.92.1,1.8.21,3.6.24,5.41,0,.45.03.9.02,1.35-.06,1.81-.05,3.61.14,5.41.17,1.62.14,3.27.2,4.91,0,.28.03.56.05.84.03.28.28.56.54.58.28.02.56.01.84,0,.2,0,.42-.27.42-.46,0-.17.02-.34,0-.51-.35-1.85-.22-3.71-.26-5.57-.03-1.91,0-3.84-.13-5.75-.25-3.1-.15-6.21-.31-9.3,0-.16.06-.33.13-.47.04-.08.17-.15.26-.16.09,0,.23.05.3.12.08.07.13.2.13.3.03,1.12.34,2.25.12,3.38-.05.27-.06.56,0,.84.19,1.07.09,2.14.16,3.21.07,1.01.06,2.03.08,3.04.05,2.2.08,4.4.12,6.6,0,.11.05.23.03.34-.18,1.31.23,2.58.27,3.87,0,.15.11.32.21.45.06.07.19.13.29.12.09-.01.22-.12.22-.18.02-.96-.06-1.92.03-2.87.16-1.63-.23-3.27-.05-4.89.08-.67-.03-1.36-.06-2.04-.13-3.32-.09-6.65-.17-9.98-.01-.85-.23-1.68-.3-2.52-.07-.84.14-1.69,0-2.53-.04-.22-.25-.4-.47-.38-1.11.19-1.29.06-1.24-.85.03-.38-.07-.63-.4-.86-.23-.15-.24-.4-.06-.57.3-.28.51-.59.45-1.03-.02-.28-.03-.56-.07-.84-.02-.2-.24-.44-.44-.48-.39-.06-.77-.12-1.16-.19-.14-.02-.2-.13-.13-.26.05-.09.11-.22.19-.24.27-.05.55-.07.84-.11.33-.04.48-.15.5-.34.02-.24-.16-.43-.53-.54-.16-.05-.32-.08-.48-.14-.11-.05-.14-.19-.04-.28.17-.13.36-.23.56-.32.41-.18.47-.25.4-.42-.13-.25-.37-.23-.57-.27-.11-.02-.22,0-.34-.02-.49-.05-.86.11-1.13.53-.14.2-.44.2-.57,0-.21-.33-.46-.48-.83-.46-.38.01-.65-.19-.89-.44.47.04.88-.11,1.28-.3.17-.09.29-.33.26-.57-.01-.11-.04-.22-.08-.32-.1-.33-.28-.47-.6-.48-.66-.04-.94.21-.92.87,0,.28.06.56.09.84h0ZM69.44,52.84c.11,0,.23,0,.33.02.39.06.57.21.6.47.03.28.05.56.07.83.04.38.08.78.12,1.17.03.25.2.46.39.49.31.04.77-.22.79-.47.03-.33.06-.66.04-.99-.04-.89-.1-1.78-.15-2.66-.02-.23-.32-.33-.51-.17-.55.45-1.1.9-1.66,1.36-.88.34-1.62.94-2.43,1.42-.16.1-.28.37-.29.56-.03.44.02.89.03,1.34.01.18.27.38.48.39.23.01.5-.16.51-.33.03-.34.02-.67.07-1,.02-.16.11-.31.21-.44.05-.08.18-.15.27-.13.09,0,.21.09.27.17.08.13.13.31.17.46.15.8.18.89.35.77.34-.24.21-.59.23-.9.05-.79.07-1.56.1-2.33h0ZM293.35,10.27c.32.04.63.06.95.11.08.02.16.13.23.2-.52.21-.91.08-1.16-.34-.16-.04-.18-.08-.07-.11l.05.14ZM238.8,8.61c.16,0,.32-.01.49-.01.16,0,.21.07.13.18-.3-.05-.44-.12-.59-.19l-.03.03ZM289.95,8.86c-.09-.02-.19-.04-.29-.07-.03-.1.07-.17.12-.14.08.04.1.16.14.24.12.04.25.07.37.1-.19,0-.26-.08-.34-.13h0ZM281.17,52.42c.17.06.29.18.32.38-.18-.05-.3-.18-.32-.38h0ZM275.24,14.87c-.29.14-.5.07-.72,0-2.17-.65-4.38-1.14-6.52-1.87-.26-.09-.55-.13-.82-.18-1.56-.28-3.06-.81-4.61-1.12-1.55-.3-3.05-.82-4.64-.98-.61-.06-1.2-.29-1.8-.47-.81-.24-1.63-.46-2.48-.56-.61-.07-1.21-.24-1.82-.38-.66-.14-1.29-.38-1.99-.4-.49,0-.98-.22-1.46-.41-1.33-.51-2.7-.83-4.08-1.16-.59-.14-1.23-.15-1.84-.19-1.08-.05-2.14-.05-3.21-.12-1.58-.1-3.12-.43-4.64-.92-1.83-.59-3.69-1.07-5.55-1.57-1.59-.43-3.19-.76-4.82-.96-.78-.1-1.55-.33-2.32-.44-1.86-.28-3.72-.35-5.58-.15-.67.07-1.35.14-2.01-.06-.21-.07-.45-.07-.67-.08-1.42-.03-2.8-.27-4.18-.62-.54-.14-1.12-.15-1.68-.15-1.54,0-3.05-.2-4.52-.58-.72-.19-1.44-.33-2.15-.53-1.26-.35-2.55-.46-3.85-.48-.67,0-1.35-.02-2.03-.1-2.09-.26-4.17-.22-6.26-.14-1.24.05-2.48.1-3.71.15-.4.01-.81-.01-1.18.06-1.24.27-2.47.1-3.7-.15-2.13-.44-4.26-.41-6.4-.12-.45.06-.9.12-1.34.12-1.02.01-2.02.16-3.02.37-.83.18-1.67.27-2.51.21-2.55-.19-5.08.11-7.6.23-1.52.07-3.02.32-4.54.48-.61.06-1.23.09-1.85.11-.51,0-1.02-.03-1.53-.06-1.53-.1-3.04.03-4.5.5-.16.06-.34.07-.5.12-1.5.56-3.07.68-4.65.66-.96-.01-1.92.01-2.88.01-.28,0-.57-.01-.85-.07-1.97-.39-3.93-.14-5.89,0-1.79.13-3.59.34-5.38.54-.67.08-1.34.22-1.99.35-2.04.42-4.09.77-6.18.79-1.76.03-3.49.23-5.23.38-1.68.14-3.38.19-5.07.19-.45,0-.91-.04-1.35.05-1.12.23-2.25.2-3.37.24-1.41.06-5.56.58-7.04.84-1.88.34-3.72.86-5.58,1.29-1.27.3-2.54.47-3.85.43-.45-.02-.9-.02-1.36-.04-3.38-.13-2.75-.15-6.65.82-2.02.5-4.02,1.07-6.03,1.61-.21.05-.44.05-.67.03-.09,0-.22-.11-.24-.19-.07-.27-.13-.55-.14-.82-.02-.74-.03-1.47-.02-2.2,0-.64-.17-1.23-.42-1.8-.14-.32-.39-.55-.75-.62-.55-.13-1.09-.28-1.64-.4-.5-.11-.99-.22-1.5-.28-1.63-.18-3.27-.1-4.91-.04-.61.02-1.23.18-1.8.41-1.15.46-2.29.95-3.28,1.71-.91.69-1.92,1.14-3.01,1.44-1.86.51-3.59,1.28-5.24,2.26-1.4.83-2.84,1.58-4.27,2.37-.95.51-1.94.88-2.94,1.25-2.26.84-4.55,1.62-6.62,2.91-1.05.65-2.21,1.11-3.45,1.29-.16.03-.34.04-.5.1-1.69.65-3.48.89-5.26,1.13-.56.07-1.12.12-1.68.12-1.3,0-2.6,0-3.89-.1-1.07-.07-2.14-.23-3.18-.45-.85-.17-1.68-.19-2.52-.07-.44.06-.89.11-1.35.14-.79.05-1.57,0-2.36-.19-1.64-.4-3.32-.65-5-.87-.89-.12-1.79-.28-2.67-.48-.43-.09-.87-.27-1.26-.5-.71-.41-1.51-.36-2.27-.48-.19-.03-.44.25-.42.45,0,.17,0,.36.08.5.34.58.72,1.15,1.09,1.71.88.66,1.48,1.57,2.16,2.4,1.08,1.32,2.45,2.18,3.97,2.85.83.37,1.65.75,2.46,1.17.65.34,1.29.71,1.91,1.1,1.16.73,2.36,1.35,3.65,1.81.91.32,1.79.7,2.7,1.03.64.23,1.29.43,1.94.63.59.2,1.18.39,1.64.86.1.11.31.2.44.18.76-.15,1.45.18,2.17.3.73.12,1.43.32,2.15.5.43.11.87.25,1.3.37.55.15,1.08.33,1.63.46,1,.25,4.68,1.69,5.52,2.18.24.14.47.31.71.46.78.52,1.63.81,2.55.85.39.02.79.03,1.17-.05,1.44-.3,2.86-.61,4.28-.95.66-.15,1.29-.38,1.93-.58-.3.95-.97,1.46-1.59,2.02-.88.78-1.8,1.51-2.74,2.23-.48.38-1,.74-1.53,1.03-.75.39-1.44.88-2.08,1.42-.38.32-.74.68-1.08,1.05-.34.37-.67.75-.99,1.14-1.03,1.28-2.32,2.27-3.65,3.21-.32.23-.66.43-.95.7-1.95,1.69-4.23,2.73-6.71,3.37-2.25.58-4.38,1.44-6.36,2.63-2.43,1.45-5.09,2.32-7.83,3.02-.76.19-1.53.36-2.31.47-.9.12-1.79.18-2.68-.14-.31-.1-.67-.08-.99-.06-.33.02-.59.46-.48.76.05.16.11.33.2.46.59.77,1.29,1.44,2.17,1.87,1.28.62,2.59,1.12,4.01,1.34.73.12,1.46.17,2.19.07.89-.12,1.79-.22,2.66-.42,1.29-.31,2.58-.37,3.86-.1,1.18.23,2.36.28,3.53.37.74.05,1.46.11,2.19.21.94.12,1.91.06,2.87.03.73-.02,1.46-.13,2.19-.17.96-.05,1.89-.22,2.8-.54,1.17-.4,2.32-.84,3.55-1.04.61-.1,1.21-.22,1.83-.32,1-.18,1.99-.35,2.95-.71,1.54-.55,3.12-.94,4.74-1.18.83-.13,1.68-.26,2.46-.55,1.75-.63,3.42-1.43,4.96-2.46.36-.25.68-.58,1-.9.71-.72,1.53-1.31,2.43-1.78.74-.38,1.46-.84,2.19-1.24.14-.08.32-.14.47-.13s.32.11.42.22c.1.12.15.31.16.47.09,1.13.18,2.25.24,3.38.02.34-.02.68-.08,1.01-.17,1.03.03,2.03.17,3.03.04.29.22.55.47.69.9.48,1.79.97,2.72,1.37.52.22,1.1.24,1.67.2.73-.06,1.46-.08,2.2-.1,1.3-.06,2.57-.31,3.79-.76.79-.28,1.58-.58,2.37-.87.37-.14.78-.23,1.1-.43,1.15-.78,2.49-.99,3.79-1.31.65-.16,1.32-.3,1.99-.42.67-.12,1.32-.08,1.99.14,1.42.45,2.86.68,4.34.31.27-.06.56-.08.84-.08.8,0,1.57-.18,2.32-.39,1.57-.45,3.11-.97,4.64-1.52,1.28-.46,2.58-.84,3.91-1.03,1.5-.21,3.03-.21,4.55-.26.39-.01.77.13,1.17.18.78.09,1.57.19,2.35.23.62.04,1.23-.03,1.82-.28.31-.13.65-.21.98-.26.78-.14,1.52-.41,2.23-.75.87-.41,1.77-.65,2.75-.73,1.29-.12,2.57-.31,3.8-.76.79-.29,1.63-.4,2.49-.43,1.07-.02,2.13-.07,3.2-.22.95-.13,1.92-.08,2.86.1,1.17.22,2.34.42,3.51.63.22.04.44.11.66.14,1.75.28,2.13.29,3.8-.36,1.44-.55,2.92-.82,4.46-.81,1.92.02,3.82-.17,5.73-.35.27-.03.56-.05.83-.13.98-.3,2-.24,3-.36.6-.06,1.24.06,1.85.19.89.19,1.79.25,2.69.27,2.09.04,4.18-.07,6.24-.38,1.1-.16,2.21-.37,3.27-.77,2.34-.88,2.36-.85,4.94-.86,1.18,0,2.36-.05,3.55-.05.56,0,1.12.08,1.68.11,1.47.07,2.94.14,4.4.33,1.85.24,3.72.26,5.57.04.61-.07,1.24-.07,1.86,0,.84.12,1.67.12,2.52.08,2.15-.09,4.28.05,6.39.51.44.09.87.23,1.31.36,2.03.59,4.06.89,6.18.66,1.96-.22,3.93-.4,5.9-.42,1.18,0,2.38-.08,3.55.04,1.39.14,2.82.31,4.12.9,1.76.81,3.59,1.39,5.52,1.6.44.05.87.23,1.29.38.39.12.77.23,1.17.16,1.41-.24,2.82.08,4.22.12,1.64.04,3.24.33,4.8.9,1.18.42,2.39.69,3.64.8.73.07,1.45.24,2.18.35.56.08,1.12.13,1.68.2.34.04.69.03,1,.12.77.25,1.55.25,2.34.19.23-.02.45-.04.68-.02.74.03,1.46.02,2.19-.16.67-.16,1.33-.08,1.97.26.34.19.73.32,1.11.4.63.13,1.16.43,1.68.78,1.07.7,2.89,1.26,4.17,1.33.28.02.57-.02.84.04,1.35.3,2.69.15,4.04.04,1.01-.09,2.03-.08,3.04-.17.81-.08,1.58.04,2.33.3,1.28.44,2.55.91,3.83,1.38,1.01.37,2.01.77,3.02,1.13.32.12.66.18.99.21,1.79.18,3.59.4,5.4.27,1.01-.08,2.02.13,3,.46,1.07.37,2.17.65,3.27.88.5.11.99.21,1.5.25.28.03.56.06.84.13,1.92.49,3.81.34,5.69-.15.21-.06.41-.17.59-.3.13-.09.26-.24.31-.39.24-.73.31-1.44-.29-2.05-.34-.35-.45-.78-.46-1.24-.07-1.8-.14-3.61-.17-5.41-.02-.85,0-1.69.22-2.52.06-.26.26-.4.48-.3.56.26,1.13.53,1.69.8.21.1.39.23.59.33.74.42,1.48.77,2.38.8.66.02,1.33.23,1.98.44.43.13.83.37,1.21.61.33.21.64.47.95.71,1.07.85,2.19,1.62,3.37,2.3.63.38,1.27.77,1.84,1.22,1.01.79,2.14,1.28,3.36,1.6,1.03.27,2.09.48,3.13.72.5.11,1,.21,1.48.35.76.22,1.54.3,2.32.4,1.33.17,2.68.18,3.99.61,1.07.35,2.22.44,3.33.63.28.05.57.05.84.03,1.74-.16,3.48-.33,5.21-.52.39-.04.78-.15,1.15-.26.7-.19,1.39-.42,2.11-.6.7-.19,1.41-.37,2.16-.36.75.01,1.45-.18,2.14-.43,1.06-.38,2.12-.73,3.18-1.11,1.28-.46,2.63-.62,3.98-.7,1.45-.08,2.93-.14,4.38.23.34.09.67.05,1-.08.2-.07.41-.31.37-.49-.04-.15-.11-.32-.23-.43-.17-.14-.37-.26-.58-.34-1.18-.44-2.28-1.02-3.37-1.62-.76-.42-1.55-.65-2.39-.83-1.28-.26-2.55-.46-3.86-.41-.17,0-.34,0-.5-.01-1.12-.17-2.24-.33-3.35-.54-.44-.08-.88-.22-1.28-.41-1.13-.54-2.3-1-3.3-1.75-.47-.34-1.01-.52-1.57-.61-.56-.08-1.13-.12-1.68-.2-.56-.07-1.12-.18-1.68-.24-2.24-.27-4.01-1.42-5.59-2.97-1.57-1.56-3.11-3.15-4.87-4.5-.18-.14-.34-.3-.54-.43-1.84-1.2-3.25-2.8-4.45-4.63-.28-.43-.58-.84-.88-1.26-.12-.17-.02-.46.19-.57.34-.19.69-.37,1.1-.37.51,0,1.02-.03,1.52,0,1.79.08,3.47-.31,5.08-1.03.77-.35,1.57-.61,2.42-.71,1.9-.22,3.74-.77,5.59-1.24,1.42-.35,2.77-.92,4.14-1.43.46-.18.9-.46,1.32-.74,1.45-1,3.07-1.62,4.76-2.06.54-.14,1.07-.36,1.6-.55.75-.27,1.42-.64,1.95-1.26.25-.29.58-.54.9-.76.37-.24.83-.36,1.16-.63.35-.27.63-.63,1.03-.85.65-.35,1.16-.87,1.62-1.45.52-.65,1.05-1.31,1.56-1.97.17-.23.34-.47.42-.73.2-.66.55-1.23.91-1.79.14-.22.06-.5-.18-.76-.17-.17-.37-.3-.6-.23-.58.2-1.14.47-1.64.83-.34.23-.71.32-1.12.3-.39,0-.79,0-1.19.03-.96.08-1.91.05-2.86-.14-.62-.13-1.22-.11-1.85,0-1.32.27-2.65.49-3.99.69-.55.09-1.12.13-1.68.11-1.47-.05-2.93-.11-4.4.08-.33.03-.68.03-1.01-.03-1.45-.25-2.9-.51-4.29-1.01-.37-.13-.74-.29-1.11-.41-.86-.28-1.74-.51-2.66-.5-.9,0-1.8-.03-2.71-.04-1.13,0-2.25-.12-3.37-.33-.56-.1-1.09-.24-1.59-.55-.23-.14-.52-.19-.79-.25-.22-.05-.47-.04-.66-.14-1.49-.8-3.09-1.42-4.39-2.57-.72-.64-1.5-1.2-2.25-1.8-.59-.47-1.25-.78-1.98-.95-1.44-.33-2.86-.67-4.23-1.24-.25-.1-.54-.18-.82-.19-1.55-.08-2.98-.64-4.38-1.25-.78-.34-1.52-.76-2.28-1.13-.83-.4-1.64-.76-2.53-.98-.73-.19-1.43-.25-2.17-.15-1.53.22-2.94.7-4.27,1.48-.33.2-.71.34-1.06.51-1,.51-2.01,1.05-2.58,2.07-.54.97-1.14,1.94-1.14,3.12,0,.68-.22,1.32-.36,1.92Z"/>
      <path class="cls-1" d="M273.43,31.1c-.01-.56.14-1.06-.08-1.55-.06-.13-.13-.17-.27-.12-.34,1.14-.35,1.98-.35,2.8,0,.1.08.21.14.29.23.05.32.02.41-.02.11-.59.13-1.04.15-1.41Z"/>
      <path class="cls-1" d="M136.5,37.5c0-.08-.01-.42-.1-.73-.03-.12-.24-.29-.36-.29-.13,0-.28.16-.38.29-.06.08-.1.22-.08.31.09.55.2,1.09.33,1.64.01.07.16.12.26.16.14.05.32-.11.32-.29,0-.28,0-.56,0-1.09Z"/>
      <path class="cls-1" d="M86.18,44.75c-.04-.63-.06-.95-.09-1.29,0-.1-.07-.22-.14-.29-.07-.07-.19-.12-.28-.11-.09.01-.22.1-.24.17-.19.65-.15,1.31.05,1.95.03.1.12.2.21.25.08.05.21.09.29.06.09-.03.19-.14.2-.22.03-.28.01-.55.01-.53Z"/>
      <path class="cls-1" d="M269.73,35.36c.04-.68.08-.96.07-1.23,0-.07-.13-.19-.22-.2-.08-.02-.23.04-.27.11-.35.62-.34,1.27-.15,1.92.19.19.29.23.4.25.14-.5.17-.88.17-.86Z"/>
      <path class="cls-1" d="M82,33.18c.1.19.19.39.32.57.05.06.21.1.3.09.1-.02.22-.09.26-.17.21-.45.1-.88-.19-1.26-.05-.06-.2-.11-.29-.09-.09.02-.23.09-.26.18-.07.21-.09.44-.13.68Z"/>
      <path class="cls-1" d="M87.23,16.92c.09-.06.21-.09.26-.17.15-.24.14-.52.03-.79-.06-.13-.18-.27-.3-.35-.13-.08-.41.17-.44.37-.05.34.03.64.31.87.04.03.09.04.14.06Z"/>
      <path class="cls-1" d="M115.82,44.51c.32-.12.47-.46.35-.8-.05-.12-.3-.23-.42-.15-.3.17-.39.51-.19.84.03.06.17.08.26.11Z"/>
      <path class="cls-1" d="M180.42,10.71c-.13-.17-.21-.29-.32-.38-.03-.03-.2.05-.23.12-.08.15-.05.34.11.4.1.04.25-.06.45-.14Z"/>
      <path class="cls-1" d="M297.09,37.7c.08.53.05.92.34,1.23.22.04.37,0,.4-.06.13-.44.21-1.62.11-1.92-.02-.08-.15-.14-.24-.2-.12-.06-.39.03-.42.15-.08.31-.14.62-.19.8Z"/>
      <path class="cls-1" d="M287.94,35.17c-.04-.16-.09-.43-.17-.69-.07-.23-.35-.38-.51-.29-.22.12-.37.32-.32.52.08.32.19.63.3.93.06.19.28.28.39.19.08-.06.17-.14.21-.22.05-.1.05-.21.08-.43Z"/>
      <path class="cls-1" d="M45.33,20.24c-.09-.67-.16-1.28-.27-1.87-.02-.16-.16-.32-.35-.29-.14.02-.29.12-.41.22-.08.06-.15.2-.14.29.11.66.24,1.32.36,1.97.2.18.3.26.39.26.09,0,.21-.08.26-.16.08-.14.11-.3.15-.4Z"/>
      <path class="cls-1" d="M40.81,46.64c0-.34.01-.67-.01-1,0-.07-.14-.17-.23-.2-.09-.03-.22,0-.32.04-.09.05-.19.14-.21.24-.18.72-.27,1.44.02,2.15.03.08.16.13.25.18.13.06.36-.09.37-.23.04-.39.06-.78.09-1.17h.05Z"/>
    </g>
  </g>
</svg>