<?xml version="1.0" encoding="UTF-8"?>
<svg id="Layer_2" data-name="Layer 2" xmlns="http://www.w3.org/2000/svg" viewBox="0 0 182.39 291.49">
  <defs>
    <style>
      .cls-1 {
        fill: #284268;
      }
    </style>
  </defs>
  <g id="Layer_1-2" data-name="Layer 1">
    <g>
      <path class="cls-1" d="M0,288.41c.02,1.69,1.39,3.05,3.08,3.08h65.1c1.72.02,3.14-1.35,3.17-3.08.02-1.72-1.35-3.14-3.08-3.17-.03,0-.06,0-.09,0H3.08c-1.72.02-3.1,1.44-3.08,3.17Z"/>
      <path class="cls-1" d="M12.3,279.05h48.55c-1.57-12.21-11.96-21.36-24.27-21.38-12.31.02-22.7,9.17-24.27,21.38Z"/>
      <rect class="cls-1" x="107.08" y="121.48" width="12.2" height="12.2" transform="translate(-57.06 117.4) rotate(-45)"/>
      <path class="cls-1" d="M36.57,0c-5.87,0-10.99,4-12.42,9.7h24.85C47.57,4,42.45,0,36.57,0Z"/>
      <rect class="cls-1" x="69.83" y="53.74" width="89.4" height="7.51"/>
      <path class="cls-1" d="M69.83,74.42c.24-.03.49-.04.74-.04h87.93c.25,0,.49.01.74.04v-6.96h-89.41v6.96Z"/>
      <path class="cls-1" d="M42.83,15.9h-12.52v236.21c4.13-.86,8.39-.86,12.52,0V47.54h135.87c2.03,0,3.69-1.39,3.69-3.1s-1.66-3.1-3.69-3.1H42.83V15.9Z"/>
      <path class="cls-1" d="M159.24,81.32c0-.41-.33-.74-.74-.74h-87.93c-.41,0-.74.33-.74.74v103.99l9.53-10.13c.71-.75,1.7-1.18,2.73-1.19,1.03-.01,2.03.41,2.74,1.16l12.53,13.01,12.93-12.93c1.47-1.47,3.86-1.47,5.33,0l13.22,13.22,13.99-13.08c1.45-1.35,3.69-1.35,5.15,0l11.26,10.48v-104.52ZM146.46,129.77s0,0,0,0l-31.1,31.1c-1.21,1.21-3.17,1.21-4.39,0,0,0,0,0,0,0l-31.1-31.1c-1.21-1.21-1.21-3.17,0-4.39,0,0,0,0,0,0l31.1-31.1c1.21-1.21,3.17-1.21,4.39,0,0,0,0,0,0,0l31.1,31.1c1.21,1.21,1.21,3.17,0,4.39Z"/>
      <path class="cls-1" d="M86.46,127.57l26.71,26.71,26.71-26.71-26.71-26.71-26.71,26.71ZM115.37,112.37l13.01,13.01c1.21,1.21,1.21,3.17,0,4.39,0,0,0,0,0,0l-13.01,13.01c-1.21,1.21-3.17,1.21-4.39,0l-13.01-13.01c-1.21-1.21-1.21-3.17,0-4.39,0,0,0,0,0,0l13.01-13.01c1.21-1.21,3.17-1.21,4.39,0,0,0,0,0,0,0Z"/>
    </g>
  </g>
</svg>