<?xml version="1.0" encoding="UTF-8"?>
<svg id="Layer_2" data-name="Layer 2" xmlns="http://www.w3.org/2000/svg" viewBox="0 0 40.58 26.88">
  <defs>
    <style>
      .cls-1 {
        fill: #753d22;
        fill-rule: evenodd;
      }
    </style>
  </defs>
  <g id="Layer_2-2" data-name="Layer 2">
    <g>
      <path class="cls-1" d="M36.78,25.61c.03-.06.08-.12.08-.17,0-.04-.09-.06-.13-.1-.03.05-.08.11-.07.17,0,.04.08.07.13.1h0ZM33.33,25.82s-.05-.06-.08-.06c-.05.02-.11.05-.17.06.02.03.05.07.07.07.05-.01.11-.04.17-.07h0ZM34.7,23.09l-.04.09h.06s-.02-.09-.02-.09h0ZM23.77,1.46s-.03-.06-.04-.06c-.07,0-.14,0-.21,0-.02,0-.03.04-.04.07.07.02.13.04.2.04.03,0,.06-.03.09-.04h0ZM23.03,25.29c-.02-.05-.05-.11-.07-.16-.06.07-.13.14-.19.22,0,.01.04.06.06.07.09.06.18,0,.2-.13h0ZM39.8,18.81c0-.07,0-.15-.03-.2-.03-.05-.1-.08-.15-.12-.03.05-.09.11-.09.16,0,.06.03.13.08.19.03.04.1.05.15.06,0,0,.02-.06.03-.09h0ZM18.59,18.39s-.01-.08-.03-.1c-.19-.17-.39-.34-.59-.49-.07-.06-.15-.03-.18.04-.01.03-.01.07,0,.11.11.38.41.48.75.51.02,0,.04-.05.06-.07h0ZM35.77,25.5s0-.08-.01-.11c-.05-.1-.09-.2-.16-.28-.05-.06-.21,0-.29.1-.08.12-.16.25-.24.38-.06.09-.13.21-.03.28.08.06.21.07.32.06.26-.02.4-.18.41-.44h0ZM31.73,25.95c.13,0,.21-.01.28-.01.13-.01.23-.2.2-.34-.03-.17-.15-.27-.3-.29-.24-.04-.44.04-.59.23-.07.09-.06.26.04.29.14.06.28.1.37.13h0ZM19.4,24.88c0-.08.01-.16-.02-.22-.04-.1-.1-.19-.18-.25-.1-.08-.32-.02-.41.08-.19.2-.28.44-.23.72.02.13.1.2.21.23.33.08.54-.04.59-.33.01-.07.02-.14.03-.22h0ZM39.82,11.85c-.14.53-.41.81-.44,1.2-.02.19.01.38.05.56.07.29.12.59.39.83.24-.82.05-1.61,0-2.59h0ZM17.36,25.43c.18,0,.34-.09.36-.2.07-.39.14-.8.2-1.21.01-.09-.08-.12-.17-.1-.25.04-.4.21-.5.41-.13.26-.21.55-.31.83-.03.09.08.22.19.24.07.02.14.02.22.03h0ZM21.49,25.45h.12c.27-.01.39-.11.45-.4.02-.11.03-.22.04-.33.01-.19-.16-.36-.34-.36-.33,0-.57.13-.75.41-.1.17-.12.4-.03.53.1.14.25.15.4.16h.11ZM23.9,24.58c-.06-.08-.13-.16-.17-.24-.14-.25-.33-.41-.63-.43-.11,0-.24.02-.34-.01-.21-.08-.41-.2-.63-.25-.21-.05-.44-.04-.65-.07-.02-.11-.05-.18-.04-.25.03-.15.09-.29.11-.44.12-1.1.45-2.16.66-3.24.06-.29.15-.59.23-.88.04-.13.21-.21.37-.19.23.03.45.11.58.33.13.23.28.47.34.71.12.48.23.96.23,1.46,0,.42.07.83.14,1.25.07.48.08.99.09,1.48,0,.27-.09.53-.28.77h0ZM30.99,21.94c.2.09.42.17.62.28.05.04.14.13.12.17-.03.1-.09.22-.17.26-.14.06-.3.05-.45.08-.21.04-.37.19-.36.37.02.53.04,1.06.24,1.57.14-.04.26-.07.37-.09.42-.09.83-.08,1.21.17.12.08.3.11.44.08.41-.09.75-.01,1.04.3.02.02.08.02.11,0,.03-.01.07-.06.07-.09-.06-.33-.12-.67-.19-1.01-.06-.33-.15-.67-.2-1-.08-.54-.16-1.07-.17-1.6-.02-.45-.18-.81-.45-1.15-.26-.34-.54-.64-.92-.84-.38-.2-.7-.47-.99-.77-.11-.1-.23-.19-.36-.3-.58.25-1.21.28-1.75.57.05.66.16.87.76,1.48.33,0,.67,0,1.01,0,.19,0,.38.02.57.07.1.02.2.1.3.17.1.06.14.33.06.42-.09.11-.2.22-.31.31-.21.16-.47.27-.57.56h0ZM12.29,13.27c-.07.01-.15.03-.22.05-.38.1-.49.21-.49.52,0,.42,0,.84,0,1.26,0,.15-.03.31-.05.45-.16,0-.19-.12-.18-.21.04-.46-.17-.81-.47-1.12-.1-.11-.3-.14-.42-.08-.14.08-.24.21-.23.37,0,.23.04.45.06.68.05.53.11,1.07.16,1.6.01.19,0,.38,0,.57,0,.28-.1.52-.3.72-.21.22-.41.45-.61.69-.15.2-.18.42-.05.65.05.09.1.19.17.32-.27.67-.66,1.29-1.05,1.89-.22.36-.55.63-.92.85-.23.13-.47.25-.69.4-.1.06-.2.17-.2.26-.01.42-.32.48-.61.58-.38.12-.76.12-1.14.06-1-.15-1.93-.47-2.76-1.07-.6-.43-1.03-1.02-1.39-1.66-.05-.1-.1-.21-.11-.32-.12-1.16.16-2.2,1.01-3.04.11-.1.25-.18.37-.27.18-.11.47-.17.54-.09.14.2.17.43.12.65-.02.11-.08.22-.16.3-.82.89-.83,1.92-.51,3,.07.25.23.49.41.68.69.77,1.58,1.19,2.61,1.29.28.03.53-.04.77-.18.61-.34,1.08-.85,1.59-1.31.1-.1.17-.26.24-.39.16-.34.32-.7.47-1.04.26-.61.4-1.23.39-1.89-.02-.77.03-1.53.03-2.3,0-.49,0-.99-.19-1.47-.07-.17-.09-.37-.11-.56-.08-.58-.29-1.11-.5-1.64-.19-.49-.4-1-.54-1.51-.13-.48-.24-.96-.43-1.42-.21-.51-.2-1.04-.11-1.58.14-.82.48-1.53,1.03-2.14.3-.34.59-.69.88-1.05.35-.45.81-.82,1.34-1.06.42-.19.86-.35,1.3-.43.56-.11.83-.02.65.65-.04.14-.08.29-.01.45.05.11.3.23.38.14.08-.08.16-.16.23-.25.52-.64,1.24-1.02,1.96-1.36.85-.4,1.73-.24,2.54.19.3.15.6.35.83.59.78.81,1.42,1.7,1.68,2.83.28,1.19.5,2.39.71,3.59.15.84.27,1.66.27,2.51,0,.26.07.53.1.79.1.81.02,1.6-.28,2.35-.01.04-.06.04-.1.06-.03.33.04.67-.23.94,0,.36-.15.66-.36.93-.08.12-.29.17-.41.1-.12-.09-.25-.18-.36-.27-.44-.36-.87-.73-1.32-1.07-.21-.17-.43-.31-.67-.42-.74-.33-1.36-.81-1.99-1.29-.08-.05-.1-.19-.15-.29-.03,0-.07-.02-.1-.02.03-.09.06-.07.09.04.15-.03.31-.04.44-.09.06-.02.11-.11.12-.17.01-.06-.01-.15-.06-.2-.08-.09-.17-.17-.27-.22-.57-.26-1-.68-1.31-1.2-.07-.7-.14-1.39-.21-2.07,0-.11-.15-.23-.23-.21-.07.02-.15.04-.2.09-.07.09-.14.18-.18.29-.09.2-.17.42-.26.62-.15-.01-.26-.04-.37-.03-.22.01-.44.28-.4.47.02.11.05.22.08.33.11.41.21.81.32,1.21.26.24.36.58.51.88.03.07.07.14.07.21,0,.73.15,1.46,0,2.18-.18.93-.71,1.58-1.64,1.89-.05.02-.13-.04-.2-.08-.02-.01-.02-.07-.01-.1.18-.34.34-.69.54-1,.5-.76.68-1.61.72-2.5.02-.49,0-1,0-1.49h0ZM7.89,4.56l.03-.04-.05.02c-.08.07-.16.15-.23.22v.06s.02-.03.02-.03c.08-.08.16-.15.23-.23h0ZM37.57,24.8c.03.27.07.52.32.7.28.2.14.7-.23.82-.32.11-.66.22-.99.26-.87.12-1.75.24-2.62.29-.65.03-1.3-.05-1.95-.1-.53-.04-1.06-.18-1.6-.14-.17,0-.28-.12-.33-.27-.05-.14-.1-.31-.08-.45.18-1.23-.08-2.44-.16-3.66-.01-.2-.12-.36-.21-.52-.34-.56-.65-1.13-.99-1.69-.22-.35-.26-.81-.61-1.08-.41-.01-.83-.03-1.25-.03-.61,0-1.22.04-1.83-.06-.08,0-.15,0-.23,0-.22,0-.38.18-.33.37.08.34.19.67.23,1.01.09.65.2,1.29.13,1.95-.02.19-.01.38.01.57.13.9-.06,1.76-.27,2.62-.14.58-.53.93-1.13.99-.22.02-.46,0-.68-.04-.38-.04-.76-.15-1.14-.14-.92.04-1.84,0-2.75,0-.85.01-1.69.04-2.53.04-.03,0-.08-.02-.11-.02-.18-.02-.37-.23-.33-.4.11-.48.17-1,.38-1.44.35-.75.38-1.55.53-2.34.09-.45.16-.9.18-1.37.03-.64.02-1.29,0-1.95,0-.3-.07-.61-.12-.91-.1-.5-.32-.93-.78-1.22-.71-.45-1.41-.91-2.12-1.38-.14-.09-.31,0-.32.18-.01.27,0,.54-.04.8-.12.99-.51,1.83-1.3,2.48-.4.34-.85.5-1.35.59-.29.05-.47.23-.57.5-.04.11-.11.21-.14.32-.36,1.42-1.27,2.51-2.21,3.57-.57.62-1.34.89-2.17.94-1.13.06-2.22-.08-3.22-.66-1.21-.43-1.85-1.44-2.48-2.45-.08-.13-.13-.29-.15-.43-.17-1.27.1-2.44.84-3.48.3-.42.69-.72,1.16-.93.25-.11.5-.21.75-.3.24-.09.49.01.56.24.13.4.25.81.35,1.21.06.26.09.53.11.79.02.28-.14.5-.48.53-.38.03-.55.25-.63.56-.23.83.03,1.52.67,2.06.41.34.91.57,1.44.69.35.07.69.03.99-.19.37-.27.73-.55,1.03-.91.31-.36.54-.74.63-1.21.08-.4.22-.81.3-1.22.05-.3.06-.61.05-.91-.04-.69-.14-1.37-.1-2.06,0-.04,0-.08,0-.11-.17-.83-.31-1.66-.52-2.47-.23-.85-.53-1.69-.8-2.51-.06-.18-.12-.37-.22-.53-.3-.44-.35-.92-.28-1.43.03-.22.04-.46.01-.69-.14-1.24.29-2.33.93-3.36.61-.99,1.46-1.65,2.58-1.99.7-.21,1.4-.41,2.13-.45.27-.01.53-.05.8-.08.7-.04,1.35-.17,1.95-.58.5-.33,1.07-.4,1.66-.26.44.1.91.13,1.23.48.19-.2.3-.38.51-.37.6.01,1.12-.21,1.64-.48.65-.34,1.32-.6,2.05-.71.26-.04.52-.13.78-.21.52-.16,1.04-.24,1.58-.08.21.07.45.04.68.04.62,0,1.22.12,1.78.38.46.2.94.33,1.44.32.38-.02.76.08,1.13.19.56.16,1.12.26,1.71.2.08,0,.15,0,.23,0,.93.13,1.83-.02,2.73-.24.42-.09.84-.09,1.25-.04.43.04.85.1,1.25.17.22.04.44.12.66.21.49.22.93.52,1.35.86.43.35.75.77.95,1.28.01.03.03.07.05.1.48.94.72,1.93.68,2.99,0,.26.05.54.12.79.2.66.31,1.34.38,2.03.09.8.21,1.6.32,2.39.16,1.14.19,2.29-.02,3.43-.07.38-.1.76-.19,1.13-.11.47-.12.89.06,1.36.1.23.05.53.14.78.25.7,0,1.28-.38,1.83-.1.15-.38.16-.51.03-.42-.42-.68-.93-.81-1.5-.1-.41-.09-.87.17-1.22.57-.76.54-1.57.28-2.41-.02-.07-.04-.14-.07-.21-.01-.04-.04-.07-.08-.13-.09.07-.21.12-.24.2-.16.47-.34.94-.43,1.43-.21,1.16-.42,2.32-.27,3.53.12.98.19,1.99.13,2.98-.04.57-.04,1.16.15,1.71.01.03,0,.07,0,.11,0,.12-.21.29-.33.24-.17-.06-.35-.14-.52-.22-.03-.61-.07-1.22-.09-1.82,0-.24-.08-.45-.21-.65-.14-.21-.17-.43,0-.63.29-.36.31-.77.25-1.2-.03-.23-.11-.45-.14-.67-.04-.25-.05-.5-.08-.77-.12.54-.09,1.06,0,1.59.01.08-.09.2-.17.27-.09.09-.31-.03-.36-.18-.06-.22-.13-.44-.14-.66-.08-1.66.21-3.27.81-4.82.09-.22.24-.38.45-.48.13-.07.25-.21.3-.33.32-.9.69-1.79.52-2.78-.02-.14.03-.3.04-.45.05-.13.15-.27.15-.41.02-.56.02-1.12.01-1.69,0-.11-.03-.23-.07-.32-.02-.05-.11-.08-.17-.1-.01,0-.07.06-.07.08.11.82.19,1.64.16,2.47-.07.09-.17.17-.21.27-.2.54-.43,1.06-.54,1.64-.06.33-.14.68-.38.94-.05.05-.13.06-.2.06-.09.01-.21-.13-.2-.23,0-.07,0-.15.03-.23.16-.62.29-1.27.51-1.88.18-.52.28-1.03.26-1.57-.03-.42-.01-.85-.06-1.27-.05-.38.13-.65.39-.9-.03-.11-.05-.22-.09-.33-.13-.36-.23-.71-.19-1.11.06-.62-.13-1.22-.37-1.79-.06-.13-.19-.24-.29-.35-.05-.05-.14-.06-.21-.07-.09-.02-.14.09-.13.26.01.15.03.3.01.45,0,.05-.09.12-.15.14-.06.01-.18,0-.2-.06-.36-.59-.73-1.16-1.22-1.65-.09-.09-.03-.22.04-.31.08-.1.21-.13.3-.07.2.11.37.26.56.39.09.07.24,0,.27-.11.07-.23.05-.46-.12-.64-.31-.34-.64-.66-1.08-.84h.02c-.1-.04-.2-.13-.3-.14-.68-.11-1.37-.15-2.05-.02-1.35.25-2.72.42-4.09.42-.21,0-.44-.04-.62.12.06.06.1.14.15.16.64.11,1.29.12,1.9.38.1.04.23,0,.34.01.49.02.88.22,1.22.54.04.03.06.06.08.09.01.07.05.16.02.2-.05.05-.15.09-.21.06-.46-.18-.94-.3-1.44-.22-.14.02-.31-.03-.45-.08-.43-.16-.88-.27-1.34-.29-.35-.02-.66-.15-.96-.34-.22-.14-.46-.28-.7-.38-.28-.13-.56-.25-.88-.24-.77.04-1.51-.2-2.28-.12-.14.02-.3-.02-.45-.05-.46-.11-.9-.11-1.34.09-.06.03-.21-.07-.27-.14-.1-.1-.02-.21.06-.31.09-.11.2-.21.31-.33-.09-.02-.17-.05-.24-.05-.34.01-.64.17-1,.28.12.06.19.09.26.12.04.01.08.02.11.04.05.05.11.1.14.17.04.07-.04.24-.14.28-.56.25-1.18.32-1.78.42-.19.04-.37.07-.55.11-.09.03-.17.2-.14.29.19.46.41.91.77,1.26.16.15.26.39.59.4.15-.09.34-.2.53-.33.03-.01.03-.07.04-.1l-.03.03c.24.02.45-.07.65-.18.25-.13.52-.12.78-.05l-.03-.02c-.07.18-.15.35-.33.46-.2.12-.4.23-.59.35-.87.55-.77.48-.6,1.48.03.19.08.38.14.56.32.88.34,1.79.4,2.71.08,1.18.08,2.37.24,3.54.18,1.3.04,2.6-.17,3.88-.03.18-.14.36-.24.52-.21.31-.45.62-.66.94-.14.22-.25.47-.38.71-.08.13-.26.23-.39.2-.15-.03-.3-.07-.44-.1-.38-.07-.75-.15-1.12-.21-.05,0-.14.07-.17.12-.02.06-.02.16,0,.22.05.09.13.19.22.26.3.24.65.39,1.03.48.05.01.13.13.11.17-.03.1-.1.2-.17.27-.05.05-.14.06-.21.06-.19-.02-.38-.04-.57-.07-.06-.03-.12-.06-.19-.09-.1-.06-.14-.02-.11.07,0,.02.07.02.11.02.07,0,.15,0,.22-.01.07.22.32.2.44.34.04.05.06.14.04.21-.01.06-.08.11-.14.15-.03.02-.08.02-.12.03-1.03.08-.86,0-1.06.96-.03.15-.04.3-.06.46-.02.21.1.32.36.29.19-.02.38-.05.55.06.35.25.72.42,1.15.48.38.06.61.3.68.69,0,.03.04.06.06.09.05-.05.12-.1.14-.16.27-.67.52-1.36.65-2.08.07-.38.12-.76.24-1.12.23-.7.26-1.43.38-2.15.12-.71.29-1.42.44-2.13.03-.15.02-.3.06-.45.1-.45.23-.89.49-1.28.06-.09.18-.14.3-.08.06.03.13.08.16.13.03.1.07.23.05.34-.03.3-.1.6-.15.91.18-.04.35-.08.54-.12.09.11.19.23.28.34.28.36.24.41-.04.8-.1.14-.36.17-.34.42.13.17.33.18.5.22.26.07.52.12.79.14,1.49.1,2.99.09,4.48-.05.15-.01.29-.07.45-.1.16-.04.24-.18.2-.33-.1-.41-.21-.82-.28-1.23-.05-.34-.06-.68-.04-1.03,0-.13.13-.27.22-.38.04-.04.14-.05.21-.04.06.02.15.11.14.15-.05.74.21,1.43.32,2.15,0,.04,0,.09.03.11.04.04.1.06.15.07.01,0,.05-.06.05-.09.01-.46-.25-.87-.24-1.34.03-1.11,0-2.22-.01-3.33,0-.58.15-1.13.34-1.68.07-.21.22-.4.37-.57.15-.17.35-.3.53-.44.05-.03.16-.04.21,0,.05.03.12.12.1.18-.05.26-.1.52-.19.77-.26.73-.43,1.48-.51,2.23-.19,1.99-.07,2.34.95,4.02.06.09.11.2.19.29.16.17.29.38.49.48.45.25.79.59,1.1.99.14.18.33.31.56.38.1.03.22.09.29.17.07.08.1.2.12.3,0,.06-.04.14-.07.22-.1.25-.05.45.18.59.06.04.14.06.2.11.21.15.24.28.08.47-.13.15-.25.29-.19.51.2.7.3,1.42.22,2.15-.01.17.1.28.23.37.27.16.54.28.87.2.43-.1.75.08,1.02.37.03.03.06.05.1.07Z"/>
      <path class="cls-1" d="M20.78,4.31c-.23,0-.46,0-.69-.02-.23-.03-.35-.33-.21-.53.07-.09.12-.2.21-.28.51-.42,1.07-.76,1.71-.9.09-.02.22.04.32.09.1.04.12.24.03.29-.23.12-.47.26-.71.38-.29.14-.5.35-.56.68-.02.11-.09.21-.14.31l.03-.03Z"/>
      <path class="cls-1" d="M35.49,2c0,.08.02.15.02.23,0,.23-.11.4-.28.44-.26.05-.52.13-.79.12-.48,0-.9.13-1.28.42-.06.04-.14.07-.2.11-.1.05-.26,0-.29-.11-.03-.07-.06-.16-.03-.21.27-.44.63-.77,1.17-.82.31-.03.62-.03.92-.02.28,0,.53-.05.78-.15h-.02Z"/>
      <path class="cls-1" d="M27.85,17.47c.02-.38.07-.76.29-1.09.06-.09.17-.15.26-.21.07-.05.27.05.27.14,0,.04.02.07.01.12-.04.41-.17.81-.34,1.2-.05.11-.14.18-.27.18-.12,0-.25-.17-.23-.33Z"/>
      <path class="cls-1" d="M22.19,4.11c-.05-.1-.12-.2-.14-.3-.06-.19.1-.41.28-.41.33.02.67.04,1,.08.05,0,.11.11.12.16,0,.06-.03.16-.08.19-.16.09-.34.18-.52.21-.22.04-.45.03-.67.04l.03.02Z"/>
      <path class="cls-1" d="M27.42,16.6c-.11.31-.23.63-.45.88-.06.06-.2.08-.3.08-.04,0-.11-.11-.12-.17-.07-.47.14-.87.53-1.01.06-.02.16,0,.21.03.06.03.09.12.13.19Z"/>
      <path class="cls-1" d="M26.5,3.51c.34.01.61.1.78.38.03.05.02.14,0,.21-.04.05-.11.11-.17.12-.27.04-.51-.05-.73-.19-.11-.08-.12-.2-.08-.3.04-.09.13-.16.2-.22Z"/>
      <path class="cls-1" d="M26.82,5.49c-.12-.03-.23-.06-.34-.09-.13-.04-.18-.31-.07-.39.09-.06.2-.15.29-.14.19,0,.38.05.56.1.12.03.19.17.13.27-.03.06-.08.14-.14.16-.14.05-.29.07-.43.1Z"/>
      <path class="cls-1" d="M24.79,17.34c-.05-.04-.13-.06-.18-.12-.08-.09-.06-.21.03-.29.15-.15.31-.31.49-.43.08-.05.21-.03.32-.03.08,0,.18.18.15.26-.13.33-.35.55-.7.63-.03,0-.07,0-.11,0Z"/>
      <path class="cls-1" d="M34.91,4.19c-.04.18-.23.34-.4.36-.14.01-.3-.15-.29-.29.04-.3.36-.45.58-.27.06.04.07.13.1.2Z"/>
      <path class="cls-1" d="M30.91,4.64c-.04.22-.28.38-.41.3-.08-.05-.16-.17-.16-.26,0-.18.26-.34.39-.26.08.05.12.16.17.22Z"/>
      <path class="cls-1" d="M28.5,4.2c.03.07.11.16.12.25,0,.13-.21.28-.32.21-.08-.04-.14-.16-.16-.25-.02-.12.2-.26.35-.21Z"/>
      <path class="cls-1" d="M20.33,15.82c-.12.1-.17.23-.19.38-.01.18-.03.36-.04.55-.11.04-.21.09-.32.12-.21.06-.43-.08-.41-.27.13-.86-.14-1.66-.33-2.48-.31-1.35-.5-2.71-.49-4.1,0-.65,0-1.3-.07-1.95-.1-.96-.39-1.87-1.12-2.58-.48-.47-1.06-.75-1.71-.87-.51-.1-.99-.02-1.45.22-.38.2-.57.5-.58.92,0,.23.03.45.02.68,0,.05-.09.13-.14.14-.06.03-.15.01-.21-.02-.18-.1-.28-.27-.33-.46-.14-.6.06-1.13.41-1.61.06-.09.16-.16.26-.21.27-.14.54-.29.83-.41.47-.19.96-.23,1.46-.04.32.12.67.19.96.36.9.49,1.59,1.19,1.96,2.17.27.72.42,1.45.4,2.24-.04,1.72.08,3.44.49,5.13.17.7.41,1.39.61,2.09Z"/>
      <path class="cls-1" d="M10.61,8.4c-.04.22-.12.44-.34.53-.09.03-.22.03-.32,0-.26-.1-.43-.29-.47-.57-.01-.11.12-.3.24-.34.32-.12.61-.06.8.17.05.05.06.13.09.21Z"/>
    </g>
  </g>
</svg>