<?xml version="1.0" encoding="UTF-8"?>
<svg id="Layer_2" data-name="Layer 2" xmlns="http://www.w3.org/2000/svg" viewBox="0 0 37.53 28.68">
  <defs>
    <style>
      .cls-1 {
        fill: #753d22;
        fill-rule: evenodd;
      }
    </style>
  </defs>
  <g id="Layer_2-2" data-name="Layer 2">
    <g>
      <path class="cls-1" d="M1.24,16.46l-.05-.07.06-.02v.09h-.01ZM1.42,15.77l.03-.11.04.11h-.07ZM1.64,13.24s-.01-.06,0-.1c0-.02.04-.03.06-.05.01.03.04.05.04.08,0,.04-.01.06-.02.1-.02-.01-.04-.02-.06-.03h0ZM7.12,5.9c-.1,0-.11-.04,0-.07.02,0,.06.01.08.03-.02.02-.04.03-.07.04h0ZM30.93,2.5s.07,0,.07.02c.03.06.04.13.05.2,0,.01-.06.05-.08.05-.03,0-.07-.04-.07-.07,0-.06.02-.13.03-.19h0ZM10.84,6.13c.07.03.14.04.19.09.05.06.03.16-.06.17-.06.01-.15-.04-.19-.08-.06-.07-.02-.14.06-.18h0ZM27.4,4.54c.05,0,.1,0,.11.02.02.11.05.22.04.32,0,.1-.08.14-.17.11-.05-.03-.12-.11-.11-.16.02-.1.08-.19.12-.29h0ZM10.2,19.67s.03-.08.06-.09c.02,0,.07,0,.09.02.08.08.17.15.11.29,0,0-.07.03-.09.02-.12-.03-.18-.12-.17-.24h0ZM23.31,26.12c-.13-.17-.1-.35-.09-.54,0-.03.04-.06.06-.09.03.02.06.04.07.06.05.19.05.38-.04.56h0ZM30.75,4.03c-.06-.21.14-.44.31-.41.12.02.2.1.22.23.01.17-.1.31-.27.3-.1-.02-.19-.08-.26-.12h0ZM29.59,6.16c.19.03.38.05.45.27.01.04-.06.16-.1.17-.2.03-.36-.08-.45-.25-.01-.03,0-.08.01-.11.02-.03.06-.05.09-.07h0ZM28.53,13.36c.49.45.49.44.62.84.02.05-.03.16-.07.19-.04.03-.17.01-.19-.02-.1-.2-.21-.39-.3-.59-.05-.13-.14-.27-.07-.42h0ZM10.48,26.6c.03.08.08.14.09.21.02.07.03.15,0,.21-.04.1-.1.2-.19.24-.11.07-.3-.02-.37-.14-.1-.17-.03-.39.15-.46.1-.04.21-.05.31-.07h0ZM21.63,26.17c.18.15.32.29.47.39.12.08.29.11.42.18.04.03.08.13.06.19-.01.06-.1.12-.15.13-.25.06-.45-.05-.63-.2-.21-.16-.22-.39-.17-.69h0ZM30.87,14.38c-.07,0-.1,0-.14-.02-.23-.11-.35-.3-.39-.54,0-.04.09-.11.15-.12.28-.04.54.04.74.25.05.05.08.14.08.21,0,.05-.07.13-.13.16-.1.04-.22.05-.31.06h0ZM30.51,5.66c-.06-.01-.16-.04-.27-.09-.15-.06-.19-.23-.1-.37.18-.3.36-.39.66-.31.07.02.15.08.18.13.07.14.05.31-.04.43-.09.13-.2.23-.43.21h0ZM9.23,17.8c-.01-.15.07-.31.19-.37.1-.06.27.02.37.16.14.22.28.45.4.68.02.05.01.15-.02.18-.05.05-.14.06-.21.05-.48-.08-.7-.3-.74-.7h0ZM6.49,26.92c.04-.06.08-.2.17-.23.36-.12.78,0,.87.47.03.17-.07.35-.21.33-.19-.01-.38-.04-.56-.08-.19-.05-.27-.21-.27-.49h0ZM11.51,18.49c-.02-.09-.03-.29-.1-.46-.27-.69-.67-1.3-1.25-1.77-.04-.04-.16-.02-.2.02-.04.04-.07.14-.05.2.05.14.1.29.18.42.36.63.73,1.27,1.11,1.9.03.05.14.09.2.07.04,0,.08-.1.11-.16.01-.04,0-.08.01-.22h0ZM4.6,7.38l-.06-.03h.08c-.03.21.05.38.16.54.1.15.19.32.26.5.04.1,0,.22-.11.29-.1.07-.2.1-.31.05-.07-.04-.16-.07-.19-.13-.29-.49-.69-.91-.83-1.48.07,0,.14,0,.22,0,.04,0,.1,0,.1-.02.02-.1-.03-.13-.12-.08-.06.04-.12.09-.18.13-.19.24-.4.47-.58.71-.09.12-.14.28-.22.43.1.39.2.8.05,1.23-.05.15.07.36.09.55.02.16-.03.32-.21.36-.26.06-.37.21-.4.48-.08.79.07,1.52.46,2.21.29.5.59,1,.88,1.49.09.15.08.3-.06.41-.19.15-.19.31-.08.5.24.44.49.87.72,1.31.11.19,0,.39-.28.53-.03.01-.07.01-.11.02l-.03-.04.04.03c.04.14.05.3.11.44.12.28.28.55.41.83.12.26.08.33-.22.57-.03.02-.07.04-.1.05v-.04s.01.03.01.03c.17.3.35.6.51.9.07.13.2.29.18.41-.07.45.22.71.47,1.01.17.21.34.43.49.65.12.17.16.34.06.54-.06.1-.06.21-.09.3.19.4.56.68.6,1.18-.09.13-.19.29-.3.48.03.38.35.65.44,1,.26.2.53.14.79.1.04-.06.11-.12.12-.19.14-.64.29-1.28.39-1.93.06-.42.05-.84.04-1.27,0-.3-.08-.61-.11-.92-.06-.5-.09-1-.39-1.43-.06-.1-.07-.22-.1-.33-.03-.14.05-.27.24-.33.07-.03.14-.03.25-.04.05-.09.11-.18.15-.28.17-.51.31-1.04.51-1.54.19-.46.44-.9.69-1.33.21-.37.45-.72.7-1.07.03-.05.13-.07.21-.07.14,0,.19.1.22.22.04.15.06.3.08.43.38.25.73.48,1.08.71-.01.25.14.44.24.64.12.24.25.47.37.72.16.33.19.67.06,1.01-.04.1-.05.21-.07.3.27.18.53.19.8.11.1.07.18.15.29.18.96.21,1.92.18,2.87-.02.28-.06.42-.32.37-.62-.09-.63-.41-1.16-.71-1.7-.12-.19-.27-.38-.4-.57-.07-.11-.05-.22.03-.32.08-.12.29-.1.4.04.13.14.27.28.37.44.38.67.76,1.34.93,2.11.03.1.09.21.14.32.13-.01.24-.01.35-.04.3-.08.4-.28.31-.51-.19-.51-.45-.98-.77-1.43-.21-.31-.4-.65-.6-.99-.05-.08.04-.27.14-.28.07,0,.15,0,.21.03.32.17.51.47.67.78.35.64.68,1.3,1.02,1.94.02.05.13.1.18.09.05-.02.1-.11.11-.17.01-.08,0-.16-.03-.23-.41-.87-.8-1.75-1.4-2.53-.09-.12-.14-.28-.18-.42-.01-.05.03-.15.08-.19.05-.04.15-.05.21-.02.29.14.47.4.62.67.38.71.74,1.44,1.11,2.16.09.17.16.36.27.5.06.07.21.09.31.08.12,0,.21-.14.21-.23-.02-.12-.03-.23-.06-.34-.26-.69-.55-1.36-.99-1.96-.07-.09-.14-.19-.19-.29-.02-.05-.01-.15.02-.21.04-.05.15-.11.19-.09.45.21.97.21,1.37.56.04.04.14,0,.21,0v.09s-.02-.07-.02-.07c-.08-.58-.17-1.15-.25-1.72-.03-.26-.04-.54-.05-.8,0-.18.12-.33.25-.32.19.02.28.14.32.29.06.22.12.46.13.69.06,1.25.47,2.42.93,3.57.27.67.55,1.35.78,2.04.19.55.43,1.08.74,1.57.2.3.31.63.38.97.25,1.17.5,2.34.49,3.55,0,.19.03.38.05.57.03.21.28.36.54.32.15-.02.32-.16.32-.29-.03-.46-.05-.92-.1-1.38-.01-.19-.07-.38-.1-.57-.05-.46-.04-.92.12-1.37.19-.49.18-.98-.11-1.45-.22-.35-.2-.73-.07-1.11.18-.56.24-1.13.24-1.71.02-.85.03-1.7.05-2.55,0-.2-.05-.41.01-.58.16-.43,0-.82-.05-1.24,0-.05.08-.12.13-.16.02-.02.09,0,.11.02.09.07.2.14.25.23.16.25.31.53.46.8.05.1.12.2.19.29.02.02.08.04.1.03.05-.03.14-.09.13-.13,0-.15,0-.31-.06-.45-.21-.45-.44-.9-.65-1.36-.03-.05,0-.14.03-.21.03-.08.23-.08.3,0,.08.08.19.15.24.24.17.3.33.61.49.92.08.14.16.26.25.38,0,.02.07.04.09.03.07-.03.18-.07.19-.12.02-.15.04-.33-.01-.45-.19-.38-.41-.74-.62-1.11-.07-.13-.13-.28-.17-.41-.01-.06.03-.16.09-.19.05-.03.16-.04.21,0,.13.08.27.17.35.3.21.33.38.67.57,1,.05.08.18.13.28.18.03.02.08,0,.11-.02.03-.01.07-.07.06-.08-.1-.25-.21-.5-.33-.73-.12-.24-.23-.47-.16-.77.04-.16-.1-.36-.13-.54-.02-.14-.02-.31.02-.45.03-.09.15-.16.25-.2.05-.02.16.02.21.07.08.08.17.17.2.28.12.36.37.57.73.66.26.07.52.17.78.22,1.25.23,2.47.61,3.76.61.2,0,.39.07.51.24.18.28.47.4.76.5.29.1.58.2.89.26.18.03.38,0,.57-.01.27-.04.42-.28.3-.5-.13-.24-.25-.48-.41-.7-.83-1.12-1.46-2.36-2.18-3.56-.47-.8-1.02-1.55-1.65-2.23-.35-.38-.79-.46-1.26-.21-.13.07-.25.17-.37.27-.25.19-.5.37-.75.55-.13.1-.29.12-.43.02-.14-.09-.25-.23-.2-.38.13-.35-.06-.49-.31-.63-.1-.05-.21-.08-.36-.13-.3.2-.62.43-.93.64-.16.11-.32.22-.48.32-.11.07-.22.03-.32-.05-.11-.1-.16-.31-.08-.42.13-.19.29-.36.42-.55.11-.14.02-.4-.17-.47-.07-.03-.16-.06-.22-.04-.28.13-.54.29-.81.43-.18.09-.43-.02-.47-.2-.04-.15-.05-.31-.09-.46-.13-.41-.46-.58-.92-.48-.05.01-.12.12-.11.17.04.19.11.36.16.55.04.17-.03.37-.14.39-.13.02-.23-.04-.29-.14-.17-.35-.5-.6-.58-1-.03-.13-.23-.19-.39-.14-.07.02-.15.08-.16.14-.02.11.01.22,0,.34,0,.12,0,.24-.07.33-.05.08-.17.15-.27.19-.05.02-.15-.04-.19-.1-.12-.18-.22-.37-.37-.62-.04.28-.04.47-.09.65-.03.1-.12.19-.21.26-.09.08-.26.03-.3-.07-.08-.25-.14-.52-.25-.76-.09-.2-.28-.25-.49-.23-.12.02-.23.14-.19.24.16.39.33.78.47,1.18.07.18.06.38-.1.54-.04.05-.13.07-.2.08-.02.01-.07-.03-.09-.06-.04-.06-.08-.13-.1-.21-.04-.11-.04-.23-.08-.34-.14-.31-.3-.62-.47-.93-.28-.48-.48-.55-1.05-.42-.1.02-.19.18-.16.27.15.44.3.88.44,1.32.04.14.08.3-.04.44-.04.04-.15.07-.19.04-.1-.06-.18-.15-.23-.25-.19-.38-.34-.78-.54-1.15-.09-.17-.26-.28-.4-.41-.08-.07-.31-.06-.32,0-.01.06-.02.15,0,.2.35.56.72,1.1,1.05,1.67.23.39.45.81.39,1.31,0,.04-.09.09-.15.12-.03.01-.08,0-.11-.02-.05-.06-.11-.11-.14-.18-.05-.1-.08-.22-.13-.32-.43-1-1.08-1.87-1.8-2.67-.03-.04-.07-.06-.1-.06-.11,0-.23,0-.33.04-.1.03-.09.16,0,.29.74.95,1.34,1.98,1.8,3.1.02.03.02.07.02.11-.02.07-.02.16-.07.2-.04.03-.16.02-.2-.03-.11-.11-.2-.23-.28-.36-.29-.5-.57-1-.86-1.51-.14-.23-.28-.46-.44-.69-.68-.99-.83-1.05-2-.96-.08.01-.15.03-.23.04-.11,0-.2.16-.15.25.42.74.84,1.49,1.27,2.21.38.63.65,1.32.85,2.03.06.2.04.37-.21.45-.13.04-.11.17-.09.29.03.15.07.3.08.45,0,.05-.07.15-.12.17-.05.02-.15-.02-.2-.06-.05-.05-.1-.12-.12-.19-.28-.76-.65-1.48-1.09-2.18-.25-.38-.48-.78-.7-1.19-.31-.58-.67-1.13-1.17-1.58-.14-.13-.21-.32-.35-.46-.11-.11-.27-.12-.4.03.75,1.12,1.46,2.28,2.04,3.5.06.14.08.3.1.45,0,.03-.02.07-.04.1-.05.09-.12.11-.2.06-.1-.06-.18-.14-.29-.2-.17-.08-.41.03-.53-.16-.11-.15-.18-.34-.27-.51-.59-1.09-1.31-2.1-2.21-2.97-.19-.19-.4-.37-.7-.35-.02-.04-.04-.09-.07-.12,0,.01,0,.04.01.05.02.03.05.04.08.05.43.59.87,1.18,1.27,1.78.25.38.49.79.7,1.2.1.2.12.44.16.67.03.19-.09.36-.21.34-.13-.01-.21-.09-.24-.21-.17-.69-.53-1.28-.94-1.84-.27-.37-.54-.75-.83-1.11-.22-.27-.44-.53-.8-.64-.12-.19-.23-.4-.38-.56-.1-.1-.26-.11-.4.06.23.19.47.38.7.57.12.2.23.4.37.57.34.43.59.89.79,1.39.05.13.07.3.07.44,0,.06-.06.16-.11.19-.05.03-.16,0-.19-.04-.13-.19-.25-.38-.34-.59-.23-.49-.53-.93-.91-1.31-.11-.11-.23-.19-.34-.27-.16.11-.08.2-.06.31.02.14.04.29.04.44,0,.11-.12.22-.23.21-.07,0-.17-.02-.21-.06-.12-.19-.23-.4-.35-.59-.09-.12-.21-.23-.37-.24-.03-.39-.3-.69-.47-1.01-.65,0-.93.07-1.41.33-.13.08-.17.3-.05.39.33.26.65.51.98.76.12.24.25.47.38.7.11.2.06.4-.13.48-.13.06-.37,0-.4-.11-.15-.52-.56-.8-.96-1.1h0ZM4.6,21.78c.26.1.41.33.56.55.01.02,0,.1,0,.1-.07,0-.15.04-.21,0-.25-.15-.39-.36-.34-.66-.12,0-.14-.03-.08-.07.02.03.04.06.07.09h0ZM3.65,19.96c.07.02.15.03.2.08.04.04.07.15.04.19-.05.06-.12.02-.16-.07-.03-.08-.06-.14-.08-.22l-.02-.04.02.06h0ZM3.43,16.65c-.16-.11-.18-.28-.21-.45l-.08-.04.06.06c.15.11.17.28.21.46l.04.02-.03-.04h0ZM19.92,16.65c-.19-.09-.19-.28-.23-.44l-.04-.05.04.05c.18.09.21.27.22.46.25.09.24.29.21.49.07.02.16.03.2.07.21.23.3.52.34.81,0,.03-.02.1-.03.1-.06,0-.15-.01-.16-.04-.12-.32-.21-.64-.32-.96-.14-.14-.2-.3-.21-.5h0ZM3.66,18.52c-.2-.11-.21-.3-.2-.5-.28.03-.37-.16-.42-.39,0-.03.02-.07.05-.09.01,0,.07.02.08.04.09.16.17.31.26.47.12.14.21.29.2.49.03,0,.07,0,.09.02.01,0,.02.04.03.06-.03-.04-.06-.07-.1-.1h0ZM13.19,6.66c-.08-.08-.16-.15-.24-.23-.1-.03-.21-.05-.29-.1-.04-.01-.02-.11-.04-.17.06,0,.16-.03.19,0,.06.08.08.19.12.28.08.08.16.16.23.23.09.08.17.16.26.24.07.15.14.3.21.46.21.1.24.29.21.5.07.02.16.02.19.07.12.19.21.39.31.59.19.11.21.29.22.48.21.1.21.29.21.47.02.02.05.04.08.06-.02-.03-.04-.05-.05-.09-.18-.11-.21-.28-.21-.47-.23-.09-.25-.26-.22-.47-.07-.02-.16-.03-.19-.07-.11-.19-.2-.39-.3-.59-.18-.12-.21-.3-.21-.49-.21-.09-.19-.29-.21-.46-.14-.02-.21-.12-.26-.24h0ZM2.74,15.5s.05.07.08.11c0-.02,0-.05-.02-.06-.03-.01-.05-.02-.08-.03l.02-.02h0ZM8.43,24.76c.23.35.41.64.28,1.02-.07.2-.06.38.1.53.28.23.32.5.19.82-.17.46.35.91.66.93.46.03.92.03,1.38.04.21,0,.46-.29.42-.48-.22-.91-.17-1.84-.18-2.76,0-.23-.01-.47.03-.7.14-.81.08-1.62,0-2.43-.04-.54-.07-1.08-.09-1.62-.01-.15.15-.27.32-.23.61.12,1.22.22,1.82.38.65.18,1.3.15,1.95.05.84-.12,1.67-.3,2.5-.53.44-.12.9-.19,1.36-.29.31-.05.53.1.68.34.09.13.17.28.21.42.29,1.09.47,2.19.62,3.3,0,.04.02.09,0,.12-.23.55.06,1.05.12,1.58.05.43.04.86.05,1.28,0,.35.04.69.2,1.02.07.14.18.25.34.27.38.04.77.07,1.15.1.45.02.75-.15.86-.61.01-.07.07-.11.11-.18.2.25.43.43.78.43.46,0,.93.03,1.39.05.17,0,.36-.24.34-.41,0-.04,0-.08-.01-.12-.29-.81-.31-1.67-.45-2.5-.08-.43-.1-.86.1-1.25.3-.6.21-1.2,0-1.8-.05-.14-.13-.28-.17-.43-.04-.14-.03-.3-.04-.45,0-.04.02-.07.02-.11.15-.84.3-1.68.26-2.53-.01-.37.13-.69.38-.94.55-.54,1.1-1.07,1.83-1.39.25-.11.49-.2.77-.21.34-.02.69-.07,1.03-.11.46-.07.91-.13,1.37-.21.69-.12,1.38-.21,2.06-.37.4-.1.76-.06,1.14.04.52.15,1.04.31,1.55.47.48-.05.89-.27,1.29-.49.36-.2.47-.54.26-.88-.29-.46-.57-.92-.89-1.36-.59-.81-1.13-1.65-1.62-2.54-.52-.96-1.11-1.86-1.86-2.65-.18-.2-.4-.4-.48-.65-.15-.43-.45-.58-.86-.63-.05-.38.1-.7.17-1.03.2-.85.17-1.69-.11-2.51-.28-.84-.81-1.48-1.53-1.98-.03-.02-.07-.02-.11-.04-.11-.06-.34.06-.34.19-.01.39.05.77.19,1.13.44,1.19-.25,3.13-1.2,3.76-.03.02-.06.05-.1.05-.08.01-.16.03-.22,0-.06-.03-.13-.1-.13-.15-.01-.39,0-.77,0-1.16,0-.66-.06-1.32-.25-1.95-.25-.83-.7-1.54-1.27-2.18-.08-.08-.19-.13-.29-.2-.12-.07-.37.04-.36.17.02.27,0,.55.07.8.16.63.35,1.27.53,1.89.03.11.06.23.04.34-.09.49-.19.99-.3,1.47-.06.23-.3.33-.56.26-.52-.14-1.05-.28-1.57-.43-.22-.07-.45-.08-.68-.08-2.02.02-4.01.25-6.01.39-.7.06-1.38.19-2.07.29-.34.05-.69.12-1.04.13-1.62.09-3.24.11-4.86-.03-.77-.06-1.54-.18-2.3-.32-.43-.07-.84-.06-1.25.07-.52.17-1.03.31-1.55.49-.52.17-.96.46-1.31.9-.24.31-.5.59-.76.88-.33.39-.58.83-.73,1.31-.21.69-.43,1.39-.46,2.14-.02.3-.1.61-.18.9-.15.56-.26,1.13-.32,1.71-.09.8-.22,1.6-.35,2.4-.13.84-.26,1.68-.3,2.54-.02.49-.13.99-.2,1.49-.02.13.09.31.24.35.15.04.3.06.45.09.12,0,.35-.12.37-.23.1-.41.21-.82.26-1.24.05-.47.15-.92.31-1.36.06-.18.17-.34.3-.59.1.21.19.34.22.48.1.37.2.75.27,1.12.22,1.4.76,2.68,1.44,3.89.44.77.87,1.54,1.2,2.37.21.54.39,1.08.45,1.67.05.5.15,1,.24,1.49.03.21.19.32.38.39.11.04.23.06.34.07.51,0,.98.15,1.44.38.15.08.3.06.43-.05.16-.13.19-.29.12-.52-.08-.25-.2-.5-.25-.77-.16-.83-.17-1.66.2-2.52Z"/>
      <path class="cls-1" d="M8.87,11.6s.05.1.09.16c.12.22.19.28.32.23.13-.05.17-.14.19-.26.04-.23.04-.47-.08-.68-.08-.12-.2-.22-.32-.3-.07-.05-.09-.04-.41.16-.41-.17-.81-.36-1.23-.53-.05-.02-.15.03-.2.08-.04.04-.08.14-.05.19.16.35.28.7.22,1.09-.02.12.2.3.32.28.03,0,.08,0,.11-.02.35-.13.69-.27,1.04-.41Z"/>
      <path class="cls-1" d="M11.31,16.45c.17,0,.3.08.37.21.29.49.57.98.84,1.47.19.34.11.74.18,1.11.11-.02.23-.02.32-.08.14-.08.18-.23.19-.39.02-.34-.04-.68-.21-.98-.18-.33-.36-.66-.55-.98-.12-.2-.23-.39-.23-.63l.03.03c-.22-.19-.43-.4-.66-.58-.08-.06-.2-.09-.3-.11-.1-.02-.23.09-.2.2.07.25.14.49.22.73Z"/>
      <path class="cls-1" d="M24.94,9.72c-.38.03-.76.06-1.13.11-.06,0-.15.09-.15.14,0,.1.02.25.08.31.23.22.56.18.84.35.21.13.37.23.43.47,0,.04.04.06.06.1.06.07.25.04.31-.03.19-.21.21-.49.27-.75.08-.3.12-.61.04-.92-.03-.11-.08-.21-.21-.25-.14-.04-.28,0-.38.16-.07.1-.11.2-.17.31Z"/>
      <path class="cls-1" d="M12.23,16.18c.55.38.94.9,1.25,1.47.2.37.4.75.29,1.19-.01.06.06.14.09.21.06.12.31.16.4.05.07-.09.13-.19.16-.29.03-.11.03-.23,0-.34-.31-1.09-.82-2.06-1.86-2.64-.08-.04-.2.02-.26.16-.03.07-.03.15-.04.23l-.03-.03Z"/>
      <path class="cls-1" d="M15.64,18.74c-.07-.34-.09-.69-.21-1-.22-.57-.55-1.09-.96-1.56-.09-.1-.25-.18-.38-.21-.1-.03-.23,0-.32.06-.11.07-.07.2,0,.29.14.23.29.45.47.65.53.55.8,1.2.79,1.97,0,.07.05.14.09.21.01.02.06.05.09.05.07,0,.18,0,.21-.03.09-.12.14-.26.22-.41Z"/>
      <path class="cls-1" d="M15.02,6.5c-.16-.02-.27.14-.24.23.09.21.16.43.29.62.54.83,1.09,1.67,1.63,2.49.03.05.13.06.2.06.1,0,.21-.15.18-.24-.05-.14-.07-.3-.15-.43-.55-.87-1.11-1.74-1.68-2.6-.06-.08-.19-.11-.23-.13Z"/>
      <path class="cls-1" d="M26.63,10.66c.01-.38.03-.76.04-1.14,0-.12,0-.24-.05-.34-.05-.09-.14-.16-.24-.21-.11-.06-.34.07-.37.19-.02.07-.05.15-.05.22-.03.72-.07,1.45-.09,2.17,0,.06.08.14.13.15.06.02.16,0,.19-.04.09-.12.18-.25.22-.39.07-.22.06-.46.23-.63l-.02.03Z"/>
      <path class="cls-1" d="M26.65,10.63c-.01.3-.03.6-.03.91,0,.05.08.14.14.14.06.02.14-.03.2-.07.03,0,.06-.04.08-.08.33-.61.46-1.28.58-1.95.02-.11-.01-.24-.08-.33-.05-.08-.18-.16-.27-.16s-.24.1-.26.18c-.08.33-.13.67-.19,1-.02.15-.05.3-.19.39l.02-.03Z"/>
      <path class="cls-1" d="M6.69,6.92c-.27-.21-.53-.43-.81-.62-.06-.04-.21-.01-.3.02-.11.06-.12.2-.08.31.09.25.2.49.3.73.21.17.42.33.62.5.06.05.28-.06.28-.14,0-.27,0-.53-.01-.8Z"/>
      <path class="cls-1" d="M31.84,8.31s-.18.09-.26.23c-.17.34-.04.76.29,1.02.13.1.44,0,.5-.15.1-.3.13-.6-.02-.89-.07-.14-.22-.22-.5-.21Z"/>
      <path class="cls-1" d="M6.74,11.78c.06-.05.12-.08.17-.13.02-.01.03-.07.03-.11.04-.46-.16-.81-.55-1.04-.05-.04-.16-.02-.21.01-.05.04-.12.14-.1.18.14.35.3.7.47,1.03.02.04.13.04.2.06Z"/>
      <path class="cls-1" d="M4.75,10.73s-.01.08,0,.1c.12.27.25.54.38.8.03.05.12.06.2.08.09.02.21-.09.22-.21,0-.11.03-.22,0-.33-.08-.32-.29-.52-.62-.56-.06,0-.12.07-.18.1Z"/>
      <path class="cls-1" d="M3.27,8.56c.04.21.28.43.49.41.1,0,.2-.1.27-.18.1-.1.04-.23-.04-.31-.1-.1-.24-.19-.37-.25-.16-.08-.38.15-.35.33Z"/>
    </g>
  </g>
</svg>