<?xml version="1.0" encoding="UTF-8"?>
<svg id="Layer_2" data-name="Layer 2" xmlns="http://www.w3.org/2000/svg" viewBox="0 0 36.38 29.83">
  <defs>
    <style>
      .cls-1 {
        fill: #753d22;
        fill-rule: evenodd;
      }
    </style>
  </defs>
  <g id="Layer_2-2" data-name="Layer 2">
    <path class="cls-1" d="M30.17,15.79l.07-.1-.07-.02v.12h0ZM17.05,13.1s0-.09-.02-.09c-.04,0-.09,0-.13,0,0,.03,0,.08.02.09.04.01.08,0,.12,0h0ZM16.37,16.15s-.05.09-.05.13c0,.02.05.04.09.06.01-.04.04-.08.04-.12,0-.02-.05-.04-.08-.06h0ZM27.24,19.91s-.01-.11-.04-.15c-.25-.3-.43-.34-.64-.11-.05.05-.08.21-.04.25.17.16.62.16.72.01h0ZM27.3,10.52c-.1.11-.22.21-.29.34-.03.06.03.23.1.28.04.04.23-.02.26-.08.06-.13.06-.29.07-.45,0-.02-.07-.04-.13-.08h0ZM32.8,8.82c.03-.11.06-.17.05-.2-.28-.68-.8-1.12-1.46-1.4-.07-.03-.19.05-.28.1-.03.01-.07.1-.05.13.1.31.19.61.32.9.12.26.36.39.64.43.26.02.53.03.78.04h0ZM34.5,16.03c.19-.14.26-.34.26-.56,0-.24-.14-.42-.33-.53-.46-.29-.93-.58-1.42-.84-.19-.1-.42-.13-.63-.02.01.05,0,.12.03.14.59.57,1.19,1.14,1.8,1.7.07.06.19.08.3.12h0ZM34.48,11.19c-.15-.65-.39-1.07-.68-1.46-.06-.07-.2-.15-.28-.13-.31.07-.62.18-.92.29-.18.06-.23.22-.23.38-.01.32.14.56.41.62.36.08.74.15,1.11.22.15.03.31.05.6.07h0ZM24.29,7.87s-.1-.06-.14-.05c-.31.09-.63.19-.93.3-.19.07-.34.37-.3.55.2.8.37,1.61.8,2.33.13.22.25.47.55.55.17.04.15-.35-.05-.75-.17-.34-.36-.69-.52-1.04-.12-.27-.1-.55.04-.79.19-.33.42-.64.62-.96.01-.02-.05-.09-.08-.13h0ZM28.35,19.68c.5.17.63.2.8.08,1.52-1.05,1.54-.73,1.38-2.62-.01-.16-.06-.31-.1-.47-.3,0-.39.21-.42.43-.1.87-.55,1.53-1.22,2.08-.17.14-.29.32-.44.49h0ZM34.87,12.55c.27.44.42.85.3,1.31-.02.07-.19.18-.23.16-.78-.4-1.55-.83-2.31-1.26-.07-.04-.11-.22-.08-.29.07-.14.18-.31.31-.36.2-.06.45-.07.65-.02.48.13.94.31,1.36.46h0ZM22.98,12.64s-.01.12,0,.13c.16.14.33.28.5.43.42.36.9.67,1.23,1.09.4.52.67,1.14.98,1.74.26.51.29,1.06.14,1.61-.1.37-.25.73-.36,1.09-.01.04.03.12.07.13.05.01.12-.01.16-.05.53-.38.7-.97.94-1.52.19-.44.16-.86-.01-1.29-.28-.67-.69-1.28-1.23-1.76-.41-.37-.86-.67-1.08-1.21-.05-.13-.24-.23-.39-.29-.31-.1-.62-.24-.96-.12h0ZM31.86,18.86c-.04-.08-.09-.13-.1-.18-.17-1.2-.34-2.39-.5-3.59,0-.04.17-.16.23-.15.79.3,1.41.85,1.87,1.54.26.39.21.89.01,1.27-.32.59-.83,1.02-1.52,1.11h0ZM22.35,20.58c-.56-.05-.63,0-.85.52-.1.25-.21.5-.36.73-.41.65-.86,1.29-1.27,1.95-.32.52-.29.96.15,1.35.63.54,1.29,1.04,1.95,1.55.1.08.21.06.29-.05.02-.04,0-.11-.02-.16-.18-.34-.34-.7-.55-1.02-.34-.51-.45-.98-.08-1.53.32-.46.53-.98.59-1.54.05-.52.28-.95.6-1.35.15-.18,0-.38-.28-.43-.05,0-.11-.02-.17-.03h0ZM24.67,1.38c-.41-.03-.75-.05-1.07-.05-.22,0-.44.03-.66.06-.23.02-.35.27-.24.49.48.95,1.12,1.79,1.82,2.57.8.89,1.83,1.21,3.01.77.48-.18.72-.56.58-1.06-.35-1.24-1.11-2.15-2.36-2.58-.36-.13-.76-.14-1.07-.19h0ZM26.18,9.26c-.22.2-.34.37-.32.62.04.71.09,1.43.13,2.14,0,.05-.05.14-.06.14-.08-.01-.21-.04-.22-.09-.29-.83-.56-1.68-.84-2.49-.01-.39.21-.65.43-.89.29-.34.61-.64.89-.99.24-.29.43-.63.74-1.09.26-.21.79-.19,1.25-.33.52-.17.81-.02,1.09.48.19.34.35.69.52,1.05.27.54.47,1.13.82,1.62.63.87.65,1.86.64,2.86,0,.2-.14.41-.27.58-.1.12-.25.22-.41.27-.82.3-1.62.25-2.39-.18-.08-.04-.13-.18-.13-.27,0-.16.01-.33.08-.48.3-.77.61-1.53,1.23-2.13.16-.14.24-.37.32-.57.03-.08-.01-.23-.08-.29-.3-.26-.63-.5-1.05-.31-.78.35-1.59.42-2.38.36h0ZM20.27,10.81c-.14-.71-.51-1.27-.7-1.9-.33-1.13-.94-2.13-1.53-3.13-.36-.61-.85-1.06-1.53-1.17-.58-.09-1.04-.37-1.47-.71-.4-.32-.8-.29-1.25-.12-.73.27-1.46.52-2.2.76-.41.13-.76,0-1.06-.29-.56-.54-1.11-1.09-1.67-1.62-.37-.35-.81-.61-1.3-.72-.7-.17-1.42-.29-2.14-.22-.2.02-.42.08-.33.43,1.21.12,2.32.63,3.47,1.07.62.22.97.7,1.38,1.15.06.06.1.21.08.31-.05.22-.15.42-.23.62-.39.97-1.07,1.67-2.05,2.07-.31.12-.6.29-.92.38-.3.08-.62.09-.93.14,1.11.27,2.2.21,3.29-.07.65-.18,1.26-.42,1.83-.77.44-.27.81-.61.94-1.12.13-.56.42-.86,1-.93.33-.03.64-.17.96-.27.71-.23,1.32-.04,1.8.51.52.58.99,1.2,1.35,1.89.5.98,1.02,1.96,1.56,2.94.16.29.35.57.57.81.09.1.3.15.44.15.21-.01.42-.1.66-.16h0ZM3.9,15.02c.13-.09.2-.17.29-.19,1.2-.25,2.32-.05,3.3.71.83.64,1.66,1.28,2.39,2.05.44.46.7.99.77,1.62.05.43.09.88.17,1.31.11.54.58.86,1.11.78.11-.02.22-.04.32-.06,1.59-.49,3.18-.98,4.54-2,.22-.17.45-.33.69-.47.07-.04.23,0,.29.06.05.05.06.24.02.28-1.11.73-2.05,1.68-2.99,2.61-.63.62-1.34,1.13-2.23,1.38-.12-.18-.26-.29-.31-.44-.18-.57-.64-.74-1.14-.8-.33-.04-.66,0-.99.03-.55.05-1.1.1-1.65.2-.97.19-1.88-.02-2.76-.39-1.02-.44-1.97-1.01-2.8-1.75-.06-.05-.05-.19-.06-.29,0-.01.1-.06.14-.05.7.17,1.39.36,2.1.51.95.2,1.88.06,2.74-.4.19-.1.36-.26.48-.43.08-.12.14-.36.07-.45-.36-.56-.7-1.15-1.17-1.6-.8-.76-1.63-1.52-2.69-1.92-.2-.09-.4-.18-.62-.28h0ZM27.8,26.52c0-.11.05-.23.02-.31-.11-.26-.21-.52-.37-.74-.8-1.09-.9-1.04-.59-2.75.05-.27.07-.55.08-.82,0-.11-.03-.21-.05-.32-.04-.2-.21-.24-.36-.27-.24-.04-.45.1-.54.29-.39.82-.5,1.68-.4,2.57.29.42.56.84.85,1.24.35.5.78.92,1.4,1.1.05.15.1.18.1.07,0-.02-.09-.03-.13-.04h0ZM26.88,13.98s-.08-.03-.12-.04c.04-.1.07-.07.08.07.46-.09.87.09,1.27.26.43.18.68.54.82.97.25.77.14,1.54-.22,2.23-.2.38-.57.65-.99.8-.05.01-.11.01-.15-.02-.03-.02-.07-.1-.05-.14.06-.26.12-.53.22-.79.22-.62.13-1.18-.18-1.74-.19-.33-.4-.66-.59-.99-.11-.2-.16-.4-.08-.63h0ZM24,18.7c.13-.21.26-.42.39-.63.04-.33.1-.66.12-.98,0-.07-.1-.2-.19-.22-.09-.01-.24,0-.3.07-.29.33-.56.67-.85,1.01-.43.51-.99.73-1.63.6-.59-.12-1.18-.31-1.75-.51-.41-.15-.8-.37-1.24-.45-.22-.04-.36-.25-.37-.49,0-.32-.04-.67.03-.98.13-.53.05-.98-.27-1.29-.09-.41.09-.64.22-.88.21-.38.46-.75.72-1.11.1-.13.23-.23.36-.34.23-.18.49-.25.78-.14.26.1.53.19.76.33.86.5,1.72,1.01,2.56,1.54.27.18.5.44.69.71.25.36.46.75.64,1.16.3.65.21,1.28-.16,1.88-.02.04-.1.05-.15.06-.04.26-.02.56-.37.65l-.05.07.06-.06h0ZM29.38,4.56c.83.56,1.59,1.1,2.39,1.6,1.15.72,2.03,1.72,2.88,2.74.11.13.21.27.28.41.52,1.1,1.04,2.2,1.32,3.41.33,1.5,0,2.87-.71,4.16-.33.57-.74,1.11-1.16,1.62-.91,1.11-2.09,1.79-3.51,2.07-.87.16-1.73.38-2.58.66-.24.53-.18,1.1-.28,1.64-.05.27-.11.56-.07.82.05.32.14.66.3.94.6,1,1.24,1.98,1.85,2.96.18.28.34.57.46.88.04.12-.01.32-.1.45-.11.17-.43.22-.6.13-.05-.02-.1-.03-.15-.07-1.53-1-3.06-2.01-4.4-3.27-.16-.15-.33-.3-.48-.46-.27-.3-.45-.64-.4-1.06.1-.89.21-1.76.3-2.64,0-.07-.09-.21-.17-.22-.09-.02-.2.04-.3.08-.05.02-.09.07-.12.12-.72.86-1.13,1.89-1.42,2.96-.05.19-.01.46.09.63.27.42.46.89.68,1.33.2.39.49.73.77,1.07.25.3.55.55.83.82.27.29.46.62.58,1,.06.19.02.35-.14.43-.13.07-.31.06-.47.07-.05,0-.1-.03-.15-.06-.83-.45-1.65-.91-2.39-1.5-.96-.76-1.92-1.51-2.87-2.27-.35-.27-.67-.58-.99-.88-.42-.41-.46-.83-.14-1.35.59-.95,1.19-1.88,1.77-2.82.18-.29.03-.67-.29-.84-.46-.27-.94-.35-1.42-.06-.38.22-.76.45-1.1.73-.34.29-.63.62-.94.95-1.2,1.27-2.64,2.19-4.18,2.96-.17.09-.45-.02-.61-.16-.3-.29-.4-.66-.54-1.02-.19-.47-.4-.57-.91-.51-.66.08-1.32.16-1.98.25-.62.09-1.22.02-1.81-.17-2.15-.7-4.05-1.8-5.53-3.55-.29-.34-.52-.71-.75-1.1-.16-.27-.39-.61-.1-.9.26-.27.63-.06.95-.03.1,0,.23.05.31.12.92.81,2.13.87,3.22,1.25.57.21,1.19.23,1.8.09.22-.06.38-.32.28-.51-.32-.6-.74-1.1-1.3-1.49-.75-.5-1.54-.88-2.42-1.06-.55-.11-1.09-.21-1.63-.34-.23-.06-.38-.23-.43-.46-.06-.26.1-.56.38-.66.63-.22,1.25-.51,1.89-.59.93-.11,1.88-.06,2.83-.06.16,0,.32.06.47.13,1.73.71,3.19,1.79,4.4,3.21.41.48.61,1.05.77,1.65.09.32.1.66.21.97.04.11.28.27.38.24,1.38-.39,2.78-.8,3.89-1.77.16-.14.19-.45.03-.58-.29-.25-.61-.49-.87-.77-.19-.2-.32-.45-.43-.7-.19-.43.01-.94.43-1.12.3-.12.62-.23.93-.37.08-.03.13-.17.23-.3-.25-.26-.54-.53-.76-.83-.19-.27-.34-.57-.45-.88-.21-.62.25-1.16.87-1.04.17.02.32.09.49.11.46.06.97.55,1.35.02.3-.42-.14-.82-.32-1.21-.55-1.15-1.23-2.23-1.94-3.29-.21-.31-.47-.61-.71-.91-.28-.35-.67-.38-1.06-.33-.29.03-.54.12-.73.36-.07.08-.15.16-.21.25-1.07,1.53-2.68,2.11-4.41,2.4-.87.14-1.77.13-2.66.12-1.46-.03-2.69-.63-3.67-1.71-.18-.2-.27-.48-.38-.73-.09-.2.23-.59.46-.59.16,0,.33,0,.48.04.91.25,1.83.46,2.78.5,1.01.04,1.83-.36,2.52-1.06.07-.08.13-.19.18-.28.23-.36.13-.8-.23-1.01-1.79-1.03-3.67-1.54-5.74-1.11-.16.04-.33.06-.49.06-.23,0-.43-.09-.56-.28-.09-.14-.01-.48.12-.62.57-.62,1.29-1.03,2.08-1.32,1.35-.5,2.72-.48,4.1-.21.27.05.52.17.77.29.87.41,1.62.98,2.23,1.71.43.51.93.55,1.5.35.53-.19,1.04-.39,1.56-.56.32-.11.65-.16.93-.23.51.05.85.35,1.23.56.34.18.67.43,1.04.51.89.2,1.44.79,1.92,1.49.15.23.3.46.42.71.43.9.86,1.8,1.26,2.71.27.61.47,1.24.83,1.82.08.13.12.31.12.47,0,.39.28.43.55.46.1.01.21-.04.31-.06.03-.09.11-.21.09-.29-.24-.91-.5-1.82-.73-2.73-.1-.35.07-.68.42-.78.9-.27,1.8-.56,2.66-.95-.04-.11-.04-.23-.11-.29-.66-.51-1.24-1.1-1.68-1.82-.35-.57-.79-1.08-1.17-1.61-.45-.65-.92-1.26-1.67-1.57-.18-.08-.3-.31-.43-.49-.11-.16.08-.52.26-.52.38.02.79-.04,1.14.08.55.19,1.09.19,1.64.19.66,0,1.33.05,1.99.06,1.44.04,2.51.82,3.48,1.75.52.5.84,1.16,1.05,1.87.07.21.11.43.15.61Z"/>
  </g>
</svg>