<?xml version="1.0" encoding="UTF-8"?>
<svg id="Layer_2" data-name="Layer 2" xmlns="http://www.w3.org/2000/svg" viewBox="0 0 30.06 18.53">
  <defs>
    <style>
      .cls-1 {
        fill: #753d22;
        fill-rule: evenodd;
      }
    </style>
  </defs>
  <g id="Layer_2-2" data-name="Layer 2">
    <g>
      <path class="cls-1" d="M12.31,15.88s.01.07.03.08c.06.01.13.04.19.02.1-.03.2-.08.19-.21,0-.05-.06-.14-.1-.14-.15,0-.25.11-.32.25h0ZM6.61,4.4c-.19.04-.31.16-.33.29-.01.18,0,.35.11.5.03.03.13.04.18.02.19-.11.29-.31.38-.5.04-.09,0-.21-.09-.24-.09-.03-.19-.04-.24-.05h0ZM9.05,10.27c-.03-.28-.03-.56-.09-.82-.06-.3-.29-.45-.56-.5-.08-.03-.23.07-.23.15,0,.17,0,.34.03.51.13.92.25,1.84.16,2.8-.02.17,0,.34,0,.52,0,.15.07.25.13.21.09-.05.18-.12.22-.2.2-.34.31-.71.36-1.11.08-.53.06-1.04-.03-1.56h0ZM2.63,16.37c.08.15.21.16.34.19.52.11,1.04.21,1.57.31.53.1,1.06.14,1.6.05.06-.02.12-.07.23-.14-.4-.55-.89-.97-1.4-1.39-.07-.06-.19-.07-.29-.04-.17.03-.34.07-.49.15-.53.29-1.04.58-1.56.88h0ZM4.98,13.29c.05-.24.04-.43.01-.62-.13-.82-.08-1.66.03-2.5.06-.45.11-.9.16-1.36,0-.04-.06-.13-.11-.14-.34-.06-.67.03-.98.18-.09.04-.17.15-.2.24-.04.13-.06.28-.05.41.05.55.09,1.1.18,1.65.13.79.42,1.38.97,2.13h0ZM27.83,17.15c.01-.12-.04-.18-.16-.18-.36-.02-.36-.02-.41-.29-.02-.13-.04-.27-.06-.41-.03-.33-.25-.48-.54-.5-.48-.04-.95.02-1.33.43-.11.11-.22.17-.36.15-.49-.05-.85.22-1.2.55-.02.03-.03.08-.03.09.04.05.08.13.13.14.36.05.73.1,1.1.12.77.05,1.55.13,2.3.29.07.02.14.02.2.03.16.02.3-.11.34-.33,0-.04.01-.07.01-.11h0ZM3.97,5.72c-.07-.04-.17-.09-.23-.15-.05-.04-.08-.12-.08-.17.08-.46.32-.8.69-1.05.22-.14.47-.13.7-.07.27.06.51.18.54.51.04.39.26.7.39,1.05.11.27.37.38.65.4.1,0,.21-.02.3-.07.35-.2.65-.47.76-.87.17-.56.53-.73,1.02-.72.34,0,.68-.01,1.02.03.49.06.75.39.8.9.04.46-.05.92-.22,1.35-.21.53-.55.93-1.05,1.18-.36.19-.72.24-1.07.04-.5-.29-1.06-.39-1.64-.43-.34-.01-.68.02-1.02.08-.34.06-.67.17-1.04.15-.19-.1-.39-.22-.6-.33-.26-.13-.34-.39-.4-.66,0-.04.07-.12.11-.14.06-.02.14,0,.2-.02.19-.04.32-.22.29-.38-.03-.21-.08-.41-.12-.62h0ZM19.77,16.72c-.38.14-.76.12-1.1-.01-.85-.32-1.73-.53-2.6-.78-.16-.05-.3-.13-.46-.19-.24-.1-.34-.06-.52.16-.24.29-.33.33-.6.24-.23-.08-.45-.15-.67-.22-.29-.1-.38-.27-.28-.63.04-.14.08-.28,0-.4-.2-.26-.24-.56-.19-.89.07-.52,0-1.05.24-1.57.02-.03.01-.07.01-.1,0-.03.01-.08,0-.1-.29-.27-.05-.69-.22-.98-.04-.08-.15-.14-.24-.14-.08,0-.21.08-.25.16-.25.48-.39,1-.41,1.53-.02.67-.05,1.34.09,1.99,0,.06-.03.14-.05.2-.14.19-.36.22-.54.31-.42.2-.84.38-1.21.67-.26.2-.52.19-.74-.03-.02-.02-.06-.02-.13-.03-.1.04-.24.08-.35.16-.39.29-.7.23-.98-.1-.1-.11-.25-.08-.36.04-.05.05-.08.12-.13.18-.04.06-.1.1-.16.17-.51-.08-.94-.33-1.35-.6-.3-.19-.48-.46-.52-.83-.03-.42-.06-.83-.25-1.21-.07-.14-.05-.34-.08-.51-.04-.38-.07-.76-.12-1.14-.08-.63,0-1.26.14-1.88.13-.52.38-1.01.35-1.55,0-.05.09-.13.14-.15.41-.12.81-.13,1.13.1.1.59.18,1.14.27,1.68.21,1.13.15,2.29.08,3.46-.02.29-.13.55-.34.78-.1.1-.19.22-.26.34-.08.1-.02.3.09.35.12.05.25.12.38.12.09.01.24-.03.26-.1.25-.49.61-.89.95-1.31.56-.7.85-1.51.87-2.38.02-.78-.02-1.54-.03-2.31,0-.17-.02-.34-.03-.53.12-.11.22-.21.33-.31,1-.9,1.3-2.03,1.24-3.28-.03-.54-.63-1.25-1.25-1.27-.14,0-.27-.02-.41-.02-1.12,0-2.25-.04-3.36-.14-.13-.01-.27,0-.41,0-.32,0-.43-.12-.46-.41-.02-.25,0-.49.11-.73.33-.75.88-1.22,1.64-1.43.1-.03.21-.06.3-.06.28,0,.54.03.81-.02.27-.05.53-.18.79-.25.13-.04.28-.04.41-.04.47.01.95.05,1.43.06.41,0,.71.18.92.51.09.13.18.29.29.41.09.09.21.15.33.24.14-.15.26-.28.39-.39.04-.04.14-.04.19-.02.05.03.08.11.08.17,0,.23-.22.37-.29.56-.05.15.01.43.15.44.59.08.85.45.98,1.01.07.33.23.64.36.96.28.67.48,1.35.57,2.08.05.49.08.97,0,1.47-.02.17-.01.35-.01.52,0,.12.21.24.3.18.03-.01.07-.04.09-.05q.63-.43.65-1.2c0-.07.02-.14.04-.21.03,0,.07,0,.1-.02.3-.1.4-.19.38-.41-.06-.55-.13-1.1-.19-1.66-.02-.24-.03-.48-.06-.78.14.06.25.09.3.15.25.36.43.76.49,1.23.03.17.03.34.06.52.02.15.16.3.25.26.14-.06.22-.18.24-.32.02-.18.02-.36.03-.53,0-.13,0-.27,0-.41.22.05.32.19.37.35.07.2.09.4.14.6.08.34.2.65.59.73.18.04.24.23.26.4.06.48.11.97.17,1.45.02.14.04.27.07.41.02.11.19.27.28.25.1-.03.2-.08.28-.14.1-.1.16-.29.26-.33.38-.14.43-.44.47-.77.07-.64-.02-1.25-.25-1.83-.01-.04.04-.14.08-.16.05-.02.15,0,.19.03.07.07.13.16.16.25.05.2.08.41.12.61.01.07.05.13.1.17.04.04.12.07.17.06.06-.01.15-.06.16-.11.06-.16.1-.34.12-.51.03-.15.05-.3.19-.36.13-.05.46.12.5.25.05.16.09.33.14.49.04.14.19.25.29.22.16-.04.23-.17.26-.32.02-.06.03-.13.05-.2.03-.1.16-.12.25-.06.14.1.23.23.25.42,0,.13.02.27.05.4.03.12.25.17.34.09.08-.08.14-.16.2-.25.08-.11.18-.12.27-.08.08.04.15.12.21.2.03.05.04.13.03.2-.02.24-.06.48-.09.74-.01.15.02.28.14.36.06.05.26-.07.34-.2.08-.12.14-.24.22-.37.05-.06.11-.06.18,0,.11.08.19.19.2.34,0,.21-.01.42-.02.63.07.19.22.25.37.32.33.17.51.52.77.77.03.04.13.03.19,0,.05-.01.12-.08.14-.13.03-.1.04-.21.03-.31-.04-.35-.17-.66-.32-.97-.21-.43-.33-.89-.33-1.4,0-.05.05-.13.1-.17.05-.03.12-.02.19-.02.03,0,.07.02.09.04.34.17.49.44.41.85-.04.21-.08.41-.11.62-.02.13.17.21.29.14.07-.03.11-.09.17-.13.06-.04.12-.06.19-.1-.01-.09-.05-.18.04-.25.01.03.05.05.04.07-.03.06-.07.12-.1.17.02.28.03.56.05.84,0,.06.08.16.12.15.1,0,.24-.04.27-.11.12-.26.19-.54.29-.81,0-.02.06-.05.07-.05.06.03.14.05.17.1.15.32.15.66.06,1.02-.07.27-.13.55-.18.83,0,.05.05.11.1.16.05.05.24,0,.28-.04.04-.05.1-.1.14-.16.06-.13.09-.28.15-.4.06-.12.07-.27.21-.34.02.03.06.05.06.08-.02.5-.04.99-.09,1.48-.01.17-.12.34-.15.51-.02.09,0,.21.04.29.1.15.16.28.1.48-.08.23-.1.48-.12.72-.04.36-.14.72-.35,1.01-.24.33-.39.68-.56,1.03-.05.1-.21.11-.26.02-.05-.09-.09-.19-.13-.28-.1-.19-.25-.3-.46-.35-.4-.08-.8-.11-1.22,0-1.02.25-.82.16-1.58-.33-.57-.37-.57-1.39-.1-1.87.17-.18.35-.36.54-.54.47-.45,1.02-.61,1.63-.54.35.04.63.21.96.29.08.02.19-.04.27-.09.1-.07.1-.3.02-.38-.05-.05-.08-.11-.14-.14-.34-.21-.76-.28-1.07-.53-.09-.08-.26-.08-.39-.05-.68.12-1.36.29-1.99.63-1.06.56-1.56,1.45-1.53,2.62.01.42.04.84.06,1.26,0,.19-.13.32-.34.31-.47-.02-.95-.05-1.42-.07-.42-.03-.78-.2-1.16-.33-.29-.1-.55-.22-.88-.19-.35.03-.65-.13-.99-.28-.05-.1-.1-.22-.17-.33-.54-.91-.54-1.89-.14-2.92.04-.11.01-.21-.05-.29-.09-.11-.35-.14-.47-.03-.15.14-.28.32-.41.48-.06-.03-.11-.06-.16-.09-.18-.07-.39.02-.39.19,0,.21,0,.43.04.63.04.23.13.46.2.69.1.29.15.6.14.92,0,.18-.19.33-.35.28-.23-.07-.44-.17-.67-.22-.12-.03-.27-.02-.4,0-.18.02-.35.19-.34.35,0,.14.06.27.19.33.09.05.19.08.28.1.53.12,1,.36,1.51.54.46.17.99.18,1.48.27.16.03.34.07.47.16.41.27.88.45,1.27.76l.05.03-.04-.05h0ZM2.57,15.46c-.08.07-.15.13-.23.19-.02.02-.07.03-.09.02-.07-.05-.04-.08.06-.1.1-.02.19-.05.28-.09.06-.14.17-.2.3-.24.15-.04.31-.09.46-.13.08-.06.16-.12.23-.18.03-.01.08-.03.1-.02.05.05.03.08-.08.1-.1,0-.19.05-.28.09-.19.28-.48.3-.76.36h0ZM18.96,5.76c.32-.05.56-.07.8-.11.62-.12,1.23-.11,1.84-.05.23.02.47.08.71.04.71-.14,1.35.05,1.99.26.57.19,1.14.38,1.7.59.78.3,1.51.71,2.12,1.28.22.2.43.42.67.6.62.46.95,1.12,1.1,1.88.07.37.12.75.15,1.13.01.17-.02.35-.05.53-.08.46-.14.91-.14,1.37,0,.32-.07.63-.09.95-.04.42-.14.83.08,1.23.14.24.06.54-.06.81-.14.34-.32.65-.56.93-.28.3-.45.64-.55,1.03-.07.27-.19.34-.47.29-.56-.1-1.13-.2-1.68-.31-.4-.08-.8-.13-1.2-.14-.85-.04-1.69-.15-2.53-.23-.23-.03-.37-.33-.27-.57.05-.13.14-.25.21-.38.11-.19.02-.34-.19-.34-.3,0-.59-.11-.91.01.01.22.03.42.03.62,0,.11-.17.31-.25.32-.31.05-.61.13-.91.12-.88-.01-1.76-.05-2.64-.11-.31-.02-.61-.09-.91-.13-.8-.12-1.57-.37-2.39-.4-.23,0-.46-.08-.68-.15-.39-.14-.79-.14-1.2-.1-1.07.11-2.13.21-3.19.33-.23.02-.47.12-.7.2-.31.11-.6.15-.9.05-.16-.05-.32-.1-.49-.12-.14-.03-.27.01-.37.13-.25.3-.58.4-.93.4-1.23-.01-2.45-.03-3.68-.01-.66,0-1.28-.1-1.91-.23-.1-.03-.19-.07-.29-.11-.13-.05-.25-.27-.21-.43.07-.27.16-.54.23-.79.65-.75,1.48-1.15,2.32-1.53.52-.23,1.02-.45,1.5-.73.01-.1.05-.18.03-.23-.1-.33-.21-.65-.32-.98-.14-.42-.33-.81-.43-1.26-.2-1.03-.28-2.06-.04-3.14-.09-.15-.19-.29-.26-.43-.26-.53-.41-1.08-.24-1.71.07-.24.08-.49.12-.73.15-.83.6-1.45,1.32-1.87.09-.06.18-.11.32-.19.05-.17.12-.37.17-.58.11-.46.34-.87.6-1.26.41-.6.96-.95,1.64-1.1.34-.07.69-.02,1.02-.09.33-.07.66-.22,1-.27.76-.08,1.51-.05,2.24.04.36.04.68.29,1.04.33.32.04.68-.09,1.02-.1.34-.02.67.35.69.74.01.21-.02.43-.05.63-.02.19.02.35.14.47.34.33.58.72.78,1.17.09.21.28.33.49.29.82-.13,1.43.3,2.05.68.22.13.41.34.6.53.32.3.63.6.97.92Z"/>
      <path class="cls-1" d="M7.05,1.83c.1,0,.17,0,.23.02.14,0,.24.26.17.41-.1.2-.26.32-.45.43-.25.14-.55-.04-.58-.33,0-.13.07-.31.17-.35.16-.07.32-.12.45-.17Z"/>
      <path class="cls-1" d="M9.18,2.23c.04.33-.07.57-.28.61-.18.04-.34-.08-.46-.31,0-.03-.02-.06-.03-.09-.1-.27,0-.54.22-.62.23-.09.47.05.53.31,0,.04.01.07.02.1Z"/>
      <path class="cls-1" d="M8.42,6.65c.1.01.21,0,.3.04.04.02.1.09.1.14,0,.06-.02.15-.06.19-.16.17-.35.21-.56.19-.11-.01-.18-.08-.21-.19-.02-.08.04-.21.13-.25.1-.04.19-.08.29-.12Z"/>
      <path class="cls-1" d="M9.86,6.26c-.12,0-.25-.12-.25-.25s.13-.26.27-.28c.13-.01.25.1.25.24,0,.13-.13.27-.27.28Z"/>
      <path class="cls-1" d="M9.25,5.78c-.05.05-.1.14-.19.18-.16.07-.25.02-.32-.13,0-.03-.03-.09-.01-.1.08-.07.16-.17.24-.19.09-.02.19.06.27.1.02,0,0,.06.01.14Z"/>
      <path class="cls-1" d="M4.82,4.82c0,.06,0,.14-.02.2-.06.14-.2.24-.3.22-.14-.05-.2-.17-.16-.31.04-.18.24-.32.37-.26.05.02.08.09.11.14Z"/>
    </g>
  </g>
</svg>