<?xml version="1.0" encoding="UTF-8"?>
<svg id="Layer_2" data-name="Layer 2" xmlns="http://www.w3.org/2000/svg" viewBox="0 0 30.67 28.29">
  <defs>
    <style>
      .cls-1 {
        fill: #753d22;
        fill-rule: evenodd;
      }
    </style>
  </defs>
  <g id="Layer_2-2" data-name="Layer 2">
    <g>
      <path class="cls-1" d="M18.88,20.49s.03-.08.01-.11c0-.03-.07-.06-.08-.05-.09.04-.09.12-.02.19,0,.01.05-.01.09-.02h0ZM27.79,14.71s-.05.06-.05.1c-.01.03.01.07.02.11.02-.03.05-.06.06-.1,0-.03-.02-.07-.03-.11h0ZM7.61,25.8c.11-.04.14-.12.07-.22-.05-.05-.13-.12-.2-.13-.05,0-.15.1-.15.16,0,.14.13.22.28.19h0ZM8.59,24.36c.13-.67.23-1.14.31-1.62,0-.05-.09-.11-.13-.15-.01,0-.09.05-.1.08-.08.15-.19.3-.22.47-.06.35-.06.71.14,1.23h0ZM20.77,16.17c-.13.13-.25.19-.29.29-.13.44-.14.87,0,1.31.01.03.06.06.1.07.11.03.19,0,.19-.13,0-.49,0-.98,0-1.54h0ZM18.68,26.93c.09-.02.35-.05.61-.13.07-.02.14-.11.18-.19.09-.17,0-.5-.16-.61-.16-.1-.34-.11-.52-.02-.25.12-.42.32-.54.57-.07.16.06.37.43.37h0ZM13.08,26.14c.25-.01.48-.01.69-.04.06,0,.14-.11.16-.17.01-.07-.02-.19-.08-.23-.34-.25-.73-.34-1.14-.26-.12.03-.25.11-.34.2-.05.05-.09.16-.08.23s.09.17.15.19c.21.05.43.06.62.09h0ZM8.4,19.73c-.19.29-.38.57-.57.87-.16.25-.11.5.14.7.15.12.38.11.46-.03.29-.45.54-.92.74-1.38-.24-.28-.5-.22-.77-.16h0ZM7.19,19.74c-.47-.09-.96-.19-1.44-.29-.35-.08-.54-.31-.6-.65-.11-.62-.21-1.23-.32-1.93-.33.51-.4,1-.42,1.49-.02.48.02.98.08,1.47.01.17.16.31.25.48.16-.05.3-.08.4-.15.45-.33.91-.32,1.4-.1.12.05.25.08.38.08.2-.02.29-.15.27-.39h0ZM13.34,10.53c-.13,0-.17,0-.22,0-.18,0-.4.17-.36.31.17.49.03.98.04,1.46,0,.19.18.34.35.3.65-.16,1.29-.37,1.86-.73.14-.09.31-.25.32-.4.04-.27-.22-.33-.43-.42-.54-.21-1.06-.5-1.57-.53h0ZM25.17,22.73c-.15-.23-.28-.46-.43-.68-.13-.18-.28-.34-.43-.51-.12-.14-.28-.14-.45,0-.1.08-.19.21-.31.24-.11.03-.25-.01-.36-.06-.07-.03-.13-.12-.16-.2-.12-.34-.22-.68-.35-1.01-.02-.06-.13-.12-.2-.12-.07,0-.16.06-.21.12-.08.1-.14.22-.2.34-.11.22-.07.43.07.63.05.07.11.14.17.2.55.52,1.09,1.04,1.65,1.55.1.09.21.16.33.23.19.13.45.1.58-.1.11-.19.19-.39.31-.62h0ZM2.39,10.17s0,.04-.01.06c-.3-.06-.61-.12-.92-.18-.12-.02-.25.12-.27.24-.05.24.04.45.16.64.59.89,1.43,1.34,2.49,1.44.25.02.44-.12.44-.37.01-.31.02-.63.03-.95,0-.32-.12-.47-.46-.56-.49-.12-.97-.21-1.45-.32h0ZM19.04,21.87c.38.78.71,1.46,1.05,2.14.08.18.3.18.43.03.34-.39.43-.89.56-1.37.1-.35.11-.67-.11-1.02-.18-.3-.24-.68-.31-1.02-.06-.31-.07-.62-.1-.91-.26-.07-.38.05-.47.21-.34.62-.68,1.26-1.04,1.94h0ZM8.28,18.65h-.46c-.41,0-.8-.06-1.03-.46-.52-.26-.57-.75-.59-1.24,0-.27.18-.53.44-.61.77-.22,1.5-.12,2.2.24.12.05.22.17.27.29.14.38.26.75.38,1.13.05.16-.16.51-.33.54-.35.05-.71.09-.86.12h0ZM11.48,6.38c-.09-.29-.15-.46-.21-.62-.2-.54-.24-.57-.89-.55-.17,0-.31-.18-.24-.36.04-.13.08-.26.15-.38.33-.58.64-1.19,1.01-1.74.37-.55,1.14-.5,1.64-.9.1-.09.23-.12.32-.17.3-.07.44.15.63.25.17.09.36.12.5-.03.26-.32.59-.37.97-.32.61.09,1.15.32,1.55.75.71.77,1.62.92,2.59.93.22,0,.44-.04.67-.06q.48-.04.76.49c.14.29.34.38.66.34.32-.04.49-.23.47-.53,0-.23-.04-.46,0-.67.07-.38.61-.58.82-.29.25.33.51.47.91.42.22-.03.44,0,.67,0-.01.12,0,.21-.03.28-.27.59-.27.65.25.93.16.09.34.14.47.25.1.07.18.21.19.33.03.25.13.41.34.55.34.22.67.46,1.01.66.42.24.69.59.87,1,.21.45.39.91.57,1.37.03.07.04.18.03.26-.06.29.01.53.19.76.27.36.53.72.67,1.16.03.11.17.2.29.26.52.27.52.26.44.76-.02.12-.2.21-.29.13-.37-.32-.76-.64-1.11-.97-.23-.22-.33-.54-.41-.84-.18-.63-.55-1.13-1.01-1.58-.07-.06-.15-.12-.23-.15-.07-.03-.21-.05-.25-.01-.09.08-.17.21-.18.32,0,.12.05.28.14.37.56.62.9,1.34,1.07,2.15.03.13.08.27.15.38.07.1.17.23.28.27.81.28,1.2.89,1.4,1.68.1.39.23.77.33,1.16.02.07-.04.16-.08.23,0,.02-.09,0-.12-.01-.24-.12-.45-.29-.7-.38-.2-.08-.44-.07-.68-.1-.33-.31-.48-.74-.71-1.12-.11-.19-.28-.26-.45-.19-.21.08-.38.34-.29.54.24.51.23,1.05.3,1.59.02.13.04.27.03.41-.1,1.62-.12,3.24-.34,4.85-.01.05-.01.1-.03.13-.08.1-.14.22-.25.29-.11.1-.37.02-.48-.11-.15-.17-.27-.37-.27-.6,0-.41,0-.81.04-1.21.12-1.21.28-2.42.38-3.63.04-.44,0-.9-.05-1.34,0-.09-.18-.18-.29-.23-.04-.01-.15.08-.21.14-.06.06-.12.15-.12.23-.03.22-.05.45-.06.68-.01,1.17-.2,2.33-.34,3.49-.02.22-.19.36-.47.41-.13.03-.31-.07-.31-.18,0-.45.01-.9,0-1.34,0-.73,0-1.45-.04-2.17-.02-.35-.14-.71-.25-1.04-.03-.09-.21-.2-.31-.19-.11,0-.23.13-.31.23-.05.05-.08.17-.06.25.21.71.12,1.42.04,2.14-.09.71-.12,1.43-.17,2.08-.13.35-.42.44-.59.63-.18.2-.36.4-.54.6-.09-.08-.17-.12-.18-.19-.19-.89-.25-1.79-.23-2.69.02-.58.02-1.18.02-1.76,0-.31-.02-.62-.04-.94-.01-.19-.19-.38-.34-.35-.19.03-.34.13-.39.32-.09.29-.16.59-.23.89-.25-.03-.26-.27-.39-.38-.06-.05-.17-.13-.22-.11-.11.05-.25.13-.29.24-.14.34-.08.71-.01,1.06.13.67.15,1.34.1,2.02-.01.24-.17.37-.58.47-.08-1.22-.2-2.43.11-3.64.02-.08,0-.18,0-.26-.01-.15-.12-.23-.24-.3-.15-.07-.27,0-.35.1-.08.1-.16.22-.19.34-.16.57-.22,1.15-.21,1.74,0,.27-.05.29-.39.2-.2-.06-.37-.01-.48.14-.12.18-.2.39-.3.59-.08.15-.18.3-.28.47-.08-.11-.15-.16-.16-.22,0-.45,0-.9-.02-1.36,0-.17-.05-.36-.08-.53-.03-.16-.27-.33-.4-.27-.1.06-.21.16-.26.27-.05.12-.05.27-.04.4.11.98-.02,1.98.22,2.96.03.13.02.28-.03.4-.2.49-.35,1.02-.78,1.39-.03.03-.08.03-.13.03-.15-.25-.06-.52,0-.78.24-1.1.33-2.22.38-3.35.01-.23.01-.46-.03-.67-.02-.11-.16-.23-.27-.25-.1-.02-.23.08-.33.16-.06.05-.1.15-.11.23-.02.17-.05.36-.04.54.08,1.45-.2,2.87-.46,4.28-.06.36-.05.7.07,1.06.2.59.03,1.15-.33,1.65-.03.04-.15.02-.23.03-.02-.04-.04-.08-.04-.13-.02-.45,0-.9-.05-1.34-.05-.45-.17-.88-.23-1.33-.1-.62-.14-1.24-.06-1.88.05-.4-.09-.56-.52-.6-.22-.02-.33-.1-.4-.27-.06-.17-.06-.37-.15-.52-.05-.09-.22-.18-.33-.16-.11.01-.23.13-.29.24-.06.11-.06.26-.07.39,0,.26-.11.44-.38.46-.31.04-.48.2-.55.51-.02.08-.06.16-.11.24-.01.02-.1.03-.13.01-.07-.04-.17-.12-.16-.14.26-.57.53-1.14.82-1.7.08-.17.25-.22.43-.28.46-.16.56-.31.41-.67-.12-.31-.17-.6-.08-.92.01-.04.02-.09.04-.13.38-1.46.43-1.46,2.12-1.82.71.04,1.31-.29,1.9-.61.43-.23.68-.59.71-1.08.02-.27.03-.54.01-.81-.01-.18-.11-.35-.3-.41-.34-.11-.7-.19-1.04-.31-.38-.14-.75-.31-1.11-.47-.17-.07-.24-.32-.16-.45.17-.27.34-.53.52-.8.56-.86.76-1.82.76-2.83,0-.31-.05-.63-.14-.93-.25-.73-.61-1.4-1.1-2.01-.2-.25-.45-.43-.78-.49-.19-.04-.49.15-.49.36,0,.18,0,.36.05.54.09.39.22.77.3,1.17.1.45.03.9-.13,1.33-.17.45-.47.77-1,.76h-.47ZM6.83,6.96c.16.08.31.2.48.24.1.02.3-.01.35-.09.2-.3.35-.63.53-.94.16-.28.41-.29.64-.02.03.03.05.07.08.11q.5.57,1.23.2c.08-.04.18-.05.29-.07.03.11.09.24.1.36.01.32.03.62.28.87.19.18.12.42.17.64.03.17.25.33.4.3.34-.09.68-.18,1.06-.28.16-.36.32-.74.5-1.1.19-.35.45-.68.63-1.04.19-.35.32-.73.49-1.14.09.09.22.17.25.27.16.77.11,1.53-.26,2.23-.28.52-.61,1-.95,1.48-.24.33-.58.54-.96.72-.39.18-.61.55-.52,1,.12.55.05,1.08-.06,1.61-.21.97-.45,1.93-.66,2.9-.1.44-.29.85-.54,1.23-.04.05-.13.09-.21.16-.08-.12-.18-.21-.24-.32-.16-.35-.42-.56-.78-.69-.65-.23-1.31-.33-1.99-.28-.32.02-.63.05-.94.06-.66.03-.74-.21-.6-.71.07-.28.04-.53-.03-.79-.09-.29-.02-.53.23-.71.1-.08.21-.2.23-.32.02-.11-.05-.3-.14-.33-.16-.08-.35-.06-.54-.08-.24-.38-.14-.78-.05-1.17.01-.06.13-.12.2-.14.25-.06.38-.21.36-.48,0-.13,0-.27,0-.41,0-.49-.1-.76-.73-.64-.17.03-.36.04-.53.02-.13-.02-.32-.09-.35-.17-.15-.37-.47-.5-.76-.71-.37-.27-.56-.73-.63-1.17-.09-.57-.14-1.17-.11-1.75.05-.73.31-1.4.9-1.89.04-.04.2,0,.22.04.08.16.14.33.19.49.12.53.23,1.06.35,1.58.21.95.77,1.72,1.38,2.45.45.53,1.13.65,1.85.34.09-.04.16-.2.19-.32.01-.04-.1-.13-.17-.17-.07-.04-.17-.04-.26-.07-.09-.02-.18-.04-.26-.06-.05-.07-.15-.14-.15-.21.02-.36-.24-.68-.13-1.04-.05-.02-.1-.04-.16-.05.02,0,.06-.02.06,0,.03.02.05.05.08.08h0ZM28.18,6.18c-.1-.1-.2-.19-.31-.29-.1-.66-.53-1.09-1.02-1.49-.1-.08-.26-.04-.33.09-.07.12-.09.27.04.34.35.21.6.51.88.77.13.11.31.18.46.26.1.09.2.19.31.29.05.19.02.43.26.53-.07.61.42,1.1.3,1.71-.02.08.04.18.09.24.27.36.47.77.83,1.08.02-.11.07-.21.05-.29-.14-1-.52-1.9-1.17-2.67-.02-.03-.08-.03-.13-.04,0-.22-.03-.42-.26-.53h0ZM14.18.29c.5.14.94.26,1.38.38.5.13.98.09,1.42-.22.22-.15.46-.28.7-.4C17.8,0,17.94,0,18.07,0c.16,0,.37.2.37.34-.01.26-.04.53-.08.79-.04.22-.12.43-.17.64-.03.13.15.37.28.42.36.12.71.09,1.07,0,.35-.09.69-.21,1.02-.35.76-.34,1.56-.39,2.38-.44,1.19-.08,2.21.4,3.16,1.01.88.55,1.64,1.3,2.24,2.13.66.9,1.2,1.9,1.74,2.89.37.67.48,1.45.54,2.21.08.89.1,1.8-.14,2.69-.13.48-.11.97-.02,1.47.09.53.11,1.08.15,1.61.01.23-.09.43-.24.61-.11.13-.34.21-.48.12-.19-.11-.37-.25-.57-.36-.06-.03-.15,0-.23.02-.03,0-.05.08-.05.12.04.36.06.72.13,1.07.08.35.21.69.29,1.04.07.28-.02.54-.16.77-.13.21-.32.31-.56.31-.26,0-.41.14-.44.4-.03.22-.07.5-.28.59-.52.21-.56.64-.62,1.1-.03.32-.08.62-.16.93-.09.36-.31.47-.7.44-.12,0-.25,0-.4-.02-.38.78-.74,1.55-1.11,2.31-.03.71-.05,1.43-.09,2.15-.02.29-.16.51-.4.67-.25.18-.5.37-.8.6-.44-.06-.92-.12-1.41-.18-.34-.05-.57-.23-.73-.53-.16-.32-.18-.61.01-.9.07-.12.14-.24.24-.32.51-.43.71-1.02.88-1.64.1-.34.18-.69.27-1.04-.16-.44-.52-.69-.9-.91-.24.16-.33.35-.41.57-.23.7-.57,1.33-1.11,1.84-.26.25-.26.56-.2.88.05.26.17.52.21.78.02.17-.03.36-.09.52-.05.12-.16.26-.26.29-1.12.34-2.21.31-3.23-.36-.03-.03-.08-.06-.08-.1-.02-.12-.09-.29-.03-.37.38-.55.79-1.09,1.2-1.62.14-.19.36-.24.59-.3.47-.13.56-.32.4-.77-.09-.25-.2-.5-.3-.75-.16-.38-.37-.72-.74-.94-.23-.14-.36-.37-.43-.65-.08-.35-.2-.69-.31-1.1-.03-.18.17-.33.25-.54.05-.11.1-.25.1-.38-.03-.45-.08-.89-.12-1.34,0-.02-.05-.05-.09-.06-.04,0-.11,0-.13.03-.09.15-.19.3-.27.45-.48.96-.89,1.97-1.62,2.8-.11.12-.17.31-.22.48-.17.56-.33,1.11-.5,1.67-.1.31-.05.59.09.9.3.62.29,1.31.21,1.98-.01.15-.22.36-.36.35-.94-.01-1.89-.03-2.83-.06-.09,0-.17-.05-.25-.08-.34-.12-.57-.48-.53-.85.09-.69.48-1.15,1.08-1.45.16-.08.36-.08.51-.18.1-.05.21-.21.21-.31-.04-.49-.04-.99-.41-1.4-.14-.15-.16-.42-.26-.61-.05-.12-.17-.21-.32-.21-.37-.01-.56-.25-.68-.56-.06-.17-.12-.34-.19-.5-.05-.13-.24-.15-.33-.05-.26.29-.37.62-.32,1,.04.32.05.64-.12.92-.42.69-.49,1.43-.42,2.21.07.05.14.1.21.15.17.1.26.25.21.44-.06.22-.14.43-.23.64-.07.17-.32.18-.55.03-.04-.02-.08-.04-.14-.07,0,.17.01.33,0,.49-.02.19-.21.36-.37.32-.57-.14-1.16-.11-1.74-.17-.56-.06-.96-.44-1.07-1.04-.03-.12.01-.27.07-.39.16-.34.42-.57.78-.71.16-.07.33-.13.49-.19.19-.42.15-.83.06-1.21-.14-.57-.34-1.12-.53-1.68-.12-.34-.78-.69-1.11-.59-.12.03-.25.09-.36.17-.24.2-.46.42-.7.63-.17.16-.45.13-.59-.06-.08-.11-.18-.22-.22-.34-.36-1.07-.61-2.15-.38-3.31.21-1.01.4-2.03.78-3,.12-.31.15-.61.12-.93-.04-.35-.19-.6-.54-.7-.21-.06-.45-.18-.65-.15-.61.08-1.05-.2-1.48-.53-.11-.08-.22-.17-.33-.23-.85-.49-1.21-1.31-1.46-2.19-.08-.25-.03-.54,0-.8.06-.45.44-.67.89-.56.39.09.78.19,1.18.27.07.01.16-.06.26-.1-.14-.37-.3-.74-.44-1.11-.13-.34-.19-.69-.23-1.05-.16-1.2.3-2.21.88-3.19.2-.35.49-.64.85-.86.39-.24.76-.49,1.14-.72.07-.04.17-.02.25-.01.11,0,.2.14.19.31,0,.22,0,.45-.04.67-.15.95-.02,1.88.32,2.79.09-.04.17-.06.22-.11.3-.32.64-.29.99-.15.21.09.4.21.63.32.09-.1.19-.19.25-.29.32-.54.63-1.09.96-1.63.5-.83,1.2-1.45,1.96-2.02.07-.05.14-.12.22-.16.76-.37,1.53-.76,2.31-1.11.45-.2.93-.32,1.34-.45Z"/>
      <path class="cls-1" d="M7.38,12.08c-.02.09-.03.17-.05.25-.03.14-.27.26-.42.21-.6-.17-.83-.9-.44-1.36.19-.21.53-.2.67.02.19.3.23.42.24.87Z"/>
      <path class="cls-1" d="M10.27,11.77c.02.33-.13.53-.37.67-.23.13-.55,0-.64-.24-.07-.21-.08-.43.02-.63.15-.37.58-.42.83-.1.08.1.12.22.17.3Z"/>
    </g>
  </g>
</svg>