<?xml version="1.0" encoding="UTF-8"?>
<svg id="Layer_2" data-name="Layer 2" xmlns="http://www.w3.org/2000/svg" viewBox="0 0 36.27 38.69">
  <defs>
    <style>
      .cls-1 {
        fill: #5c2f1c;
        fill-rule: evenodd;
      }
    </style>
  </defs>
  <g id="_Layer_" data-name="&amp;lt;Layer&amp;gt;">
    <path class="cls-1" d="M20.09,2.37c-.39.14-.78.29-1.19.42-1,.32-1.68,1-2.16,1.9-.21.39-.25.81-.16,1.23.06.28.18.54.3.79.51,1,1.37,1.38,2.44,1.31,1.05-.08,1.89-.58,2.49-1.42.25-.33.36-.75.3-1.19-.1-.72-.45-1.34-.75-1.97-.26-.54-.72-.86-1.28-1.06h0ZM17.99,28.25c-.06-2.75-.06-5.49-.42-8.22-.06-.42-.22-.83-.34-1.24-.13-.41-.6-.7-1.01-.65-.58.06-1.15.14-1.73.19-.89.1-1.66.45-2.29,1.1-.2.2-.45.36-.69.51-.54.33-1.12.29-1.64,0-1.76-.98-1.89-3.18-.6-4.41.4-.39,1.14-.55,1.59-.3.51.28,1,.58,1.52.82.25.12.57.24.83.19,1.14-.19,2.26-.44,3.39-.69.29-.07.45-.31.58-.59.32-.67.42-1.38.45-2.1.02-.44-.12-.87-.45-1.17-.31-.29-.7-.51-1.04-.77-.45-.36-.92-.7-1.33-1.1-1.11-1.08-1.53-2.42-1.36-3.95.09-.73.28-1.43.71-2.03.76-1.05,1.55-2.09,2.36-3.1.17-.21.48-.33.75-.41,1.12-.35,2.27-.42,3.42-.24.29.04.58.08.84.19.92.41,1.89.73,2.72,1.33.86.62,1.41,1.43,1.48,2.52.03.73-.06,1.45-.33,2.13-.37.94-.79,1.86-1.41,2.67-.45.57-.91,1.13-1.33,1.72-.16.22-.29.52-.32.79-.1,1.15-.22,2.3-.05,3.45.05.31.58.73.94.73.61.01,1.15-.14,1.54-.61.37-.44.7-.92,1.09-1.36.52-.6,1.74-.67,2.38-.17.59.47.94,1.07,1.04,1.82.18,1.37-.68,2.75-1.76,3.18-.56.21-1.12.31-1.68.07-.41-.17-.8-.34-1.19-.54-.84-.43-1.68-.33-2.47.11-.24.13-.49.38-.55.63-.58,2.14-.85,4.15-.86,5.97-.02,1.89.03,3.75.49,5.6.3,1.25.37,2.57.56,3.85.06.45.86.85,1.37.78,1.03-.14,1.95-.58,2.85-1.03,1.56-.78,2.94-1.83,4.1-3.14.19-.21.36-.47.45-.73.08-.25.11-.57.05-.83-.07-.27-.25-.53-.44-.73-1.35-1.51-1.18-3.11-.44-4.84.84-1.96,2.2-3.36,4.11-4.25.13-.06.26-.1.4-.15.64-.26,1.61.28,1.65.96.11,2.16.37,4.32.33,6.49-.03,1.38-.55,2.59-1.65,3.39-1.18.86-2.19,1.85-3.12,2.97-.28.33-.59.63-.9.94-1.24,1.25-2.7,2.16-4.39,2.67-1.66.5-3.3,1.04-4.96,1.54-.41.12-.85.19-1.27.21-2.02.1-4.04.19-6.06.26-1.77.06-3.44-.35-4.99-1.19-1.28-.69-2.46-1.53-3.51-2.53-.63-.6-1.19-1.25-1.57-2.05-.25-.52-.52-1.04-.84-1.52-.23-.37-.6-.62-1.04-.7-.96-.2-1.45-.86-1.69-1.75-.08-.28-.18-.56-.21-.84-.05-.28-.1-.58-.04-.86.21-1.13.41-2.27.74-3.38.2-.68.6-1.31.93-1.95.22-.43,1.18-.59,1.51-.26.83.8,1.67,1.6,2.48,2.43.61.64.96,1.42,1.15,2.29.1.44.08.87-.05,1.28-.13.41-.29.82-.52,1.18-.58.96-.45,1.94-.1,2.91.3.82.8,1.55,1.46,2.13,1.11.96,2.37,1.64,3.81,1.97.71.16,1.42.22,2.14.36.88.18,1.72,0,2.56-.23.28-.09.54-.19.82-.27.32-.1.77-.64.79-.96.09-2.16.17-4.33.25-6.49Z"/>
  </g>
</svg>