<?xml version="1.0" encoding="UTF-8"?>
<svg id="Layer_2" data-name="Layer 2" xmlns="http://www.w3.org/2000/svg" viewBox="0 0 266.48 390.74">
  <defs>
    <style>
      .cls-1 {
        fill: #6d442f;
        fill-rule: evenodd;
      }
    </style>
  </defs>
  <g id="_Layer_" data-name="&amp;lt;Layer&amp;gt;">
    <g>
      <path class="cls-1" d="M266.43,299.98c-.7-3.85-.6-7.74-.68-11.62-.09-3.41-1.04-6.74-1.08-10.16,0-.3-.17-.6-.23-.9-.65-2.88-1.37-5.73-1.49-8.7-.04-.91-.34-1.83-.63-2.71-.99-2.94-2.03-5.87-3.08-8.79-.15-.42-.43-.81-.71-1.19-.78-1.04-2.44-1.08-3.24-.1-.2.24-.45.46-.58.73-.4.84-.86,1.67-1.1,2.57-.63,2.43-1.69,4.66-2.85,6.87-.42.82-.75,1.71-1.12,2.56-1.28,2.99-2.69,5.94-3.75,9.02-.31.9-.86,1.7-1.67,2.17-1.52.88-2.63,2.15-3.76,3.44-.82.93-1.71,1.82-2.68,2.59-2.66,2.13-4.93,4.73-7.89,6.51-.79.47-1.41,1.22-2.09,1.85-.58.52-1.09,1.13-1.73,1.56-3.08,2.09-5.81,4.69-9.24,6.26-.56.26-1.08.64-1.55,1.04-2.28,1.89-4.8,3.43-7.33,4.95-.4.24-.77.52-1.15.79-.9.67-.95,2.17-.09,2.85,1.09.87,2.26,1.66,3.28,2.6.79.73,1.45,1.62,2.08,2.49.75,1.02.59,2.15-.3,2.92-.24.2-.46.42-.72.61-2.21,1.7-4.34,3.54-6.89,4.73-6.69,4.45-14.27,6.76-21.88,8.96-.74.21-1.54.21-2.3.32-2.45.34-4.94.58-7.37,1.08-3.49.71-6.99,1.43-10.33,2.73-1.62.63-3.32.77-5.03.82-.44.01-.9-.16-1.35-.3-.72-.22-1.24-1.18-1.01-1.87.28-.88.61-1.73.94-2.63-1.09-2.53-1.18-5.14-1.13-7.8.07-3.4.42-6.83-.57-10.19-.21-.72-.09-1.55-.09-2.32-.07-8.24-.14-16.47-.22-24.71-.04-3.57-.13-7.14-.17-10.71-.02-2.33.21-4.68-.02-6.98-.25-2.5.26-4.95.09-7.43-.13-1.85,0-3.73.09-5.59.26-5.28.02-10.56-.07-15.84,0-.46-.02-.95-.14-1.39-.62-2.29-.52-4.62-.57-6.95-.05-2.17-.14-4.35-.18-6.52-.07-4.2-.21-8.39-.13-12.58.05-2.78.11-5.59.75-8.34.21-.88.31-1.91.07-2.77-.61-2.3-.44-4.62-.52-6.94-.07-2.17,0-4.39-.42-6.51-.43-2.15-.72-4.28-.68-6.46.02-2.18-.7-4.27-.64-6.48.11-4.51.03-9.01.03-13.52,0-1.24.14-2.46.35-3.7.48-2.92.48-5.9.05-8.82-.27-1.86-.4-3.7-.4-5.56,0-2.8-.11-5.59-.26-8.38-.19-3.25-.11-6.52-.11-9.78,0-.43.27-.86.39-1.18.23-.16.35-.29.48-.32,4.1-.82,8.2-1.66,12.31-2.44,1.53-.29,3.14-.23,4.6-.68,2.4-.74,4.88-.9,7.31-1.34,5.04-.9,10.16-1.41,15.16-2.43,4.87-.99,9.81-1.57,14.65-2.7,1.58-.37,3.04-.22,4.59.09.97-.5,1.9-1.11,2.9-1.45,1.02-.34,2.14-.4,3.21-.58,1.22-.22,2.43-.44,3.66-.64,2.13-.36,4.27-.71,6.42-1.07.58-.1,1.46-1.04,1.54-1.61.06-.46.13-.92.15-1.38.16-3.13-.39-6.19-.9-9.25-.17-.98-.86-1.64-1.86-1.88-.9-.21-1.81-.41-2.74-.51-1.85-.22-3.7-.31-5.52-.81-.88-.24-1.84-.23-2.78-.28-3.73-.18-7.36-1.16-11.09-1.24-.61-.01-1.21-.27-1.82-.36-.93-.14-1.85-.26-2.78-.31-5.13-.29-10.22-.82-15.28-1.62-.61-.1-1.23-.14-1.85-.16-3.73-.15-7.44-.42-11.15-.85-3.7-.43-7.37-1.05-11.06-1.54-2.63-.35-5.24-.55-7.88-.38-.78.05-1.56.14-2.33.08-.59-.05-1.16-.32-1.65-.46-.62-1.94-1.01-3.69-.68-5.61.2-1.19-.34-2.5-.14-3.7.54-3.26.45-6.49-.03-9.74-.18-1.13.18-2.15.67-3.14.73-1.43,1.82-2.55,3.24-3.25,2.29-1.14,4.02-2.86,5.47-4.93.98-1.4,2.08-2.71,3.1-4.09.45-.62.93-1.26,1.24-1.96,1.82-4.12,3.59-8.27,3.75-12.88.04-1.1.25-2.15.56-3.2.35-1.19.65-2.4.86-3.62.57-3.26.78-6.48-1.03-9.5-.4-.66-.68-1.4-.93-2.13-.65-1.96-1.78-3.63-3.18-5.11-3.63-3.88-7.64-7.28-12.34-9.82-2.59-1.4-5.18-2.81-7.77-4.23-2.75-1.5-5.67-2.62-8.74-3.16-3.21-.56-6.5-.52-9.76-.03-2.3.35-4.52,1.06-6.5,2.39-1.16.78-2.38,1.47-3.52,2.26-.77.52-1.55,1.07-2.16,1.76-3.23,3.6-6.12,7.41-8.07,11.9-1.45,3.34-2.25,6.77-2.19,10.4.02,1.55.1,3.1.14,4.66.04,2.8.22,5.57,1.27,8.23.39.99.55,2.1.64,3.18.15,1.58.62,3.04,1.27,4.46.52,1.13,1.09,2.23,1.66,3.34.72,1.39,1.65,2.62,2.96,3.54,1.52,1.07,3.01,2.19,4.52,3.28.87.64,1.86,1.18,2.61,1.95,1.82,1.9,3.54,3.9,5.26,5.82,1,3.2,1.29,6.43,1.21,9.7-.02.93-.01,1.87-.05,2.8-.12,2.64-.14,5.28.06,7.92.04.6-.09,1.22-.15,1.82-.48.26-.86.57-1.29.68-1.5.36-3.05.59-4.55.98-3.6.95-7.23,1.83-10.76,2.98-5.34,1.73-10.97,1.47-16.47,2.43-1.53.26-3.04.69-4.59.83-3.25.28-6.09,1.53-9.31,1.98-3.07.44-6.13.99-9.19,1.46-2.15.33-4.8.8-6.96,1.03-3.86.41-7.39,1.43-11.21,1.81-.73.41-1.39.84-2.09,1.16-.7.32-1.46.49-2.18.77-.98.39-1.44,1.17-1.46,2.18,0,.93-.07,1.9.18,2.77,1.54,5.28-1.92,7.06,2.19,12.52.68.9,1.65,1.4,2.82,1.41,5.27,0,13.89-.17,19.13-.99.61-.1,1.24-.1,1.86-.07,2.63.14,5.26.05,7.89.54,1.82.33,3.71.34,5.57.32,4.36-.02,8.7-.15,13.01.71.61.12,1.23.17,1.85.18,2.64.04,5.28.06,7.92.08,4.04.02,8.08.02,12.12.08.92.02,1.84.26,2.75.44.6.12,1.14.77,1.16,1.3.01.31.03.62.03.93-.03,4.82-.2,9.64-.07,14.45.23,9.48.22,18.96,0,28.43-.09,3.73-.03,7.45-.56,11.17-.21,1.52-.21,3.13.02,4.64.32,2.01.29,4.02.32,6.03.06,4.35.19,8.7.19,13.05,0,3.42-.04,6.83-.42,10.24-.22,1.99-.27,4.04-.05,6.03.21,1.86.28,3.71.28,5.57-.04,8.08.07,16.15-.32,24.23-.4,8.38-.52,16.78-.48,25.17.03,4.99-.47,9.92-.85,14.87-.08,1.09-.15,2.18-.36,3.24-.74,3.98-.63,8.05-1.35,12.02-.09.45-.07.93-.05,1.4.32,6.99-.38,13.98-.1,20.97.04,1.24-.02,2.49-.06,3.73-.03.95-.65,1.74-1.64,2.01-.75.2-1.51.37-2.27.39-4.21.12-8.34-.75-12.52-1.04-.31-.02-.6-.15-.9-.22-4.83-1.12-9.68-2.16-14.48-3.39-4.66-1.19-9.31-2.46-13.54-4.89-.8-.46-1.68-.8-2.54-1.16-3.02-1.27-5.82-2.95-8.6-4.65-2.26-1.39-4.27-3.09-5.74-5.37-1.18-1.83-2.57-3.51-4.05-5.11-.94-1.02-1.91-2.06-2.43-3.58-.03-.45-.07-1.07-.12-1.69-.18-2.39.42-4.62,1.52-6.73.36-.69.82-1.33,1.15-2.03.34-.73.39-1.54.04-2.26-.33-.68-.74-1.38-1.26-1.92-.53-.54-1.32-.83-1.85-1.37-2.84-2.87-5.81-5.63-8.35-8.78-1.57-1.94-3.27-3.74-4.91-5.6-1.95-2.22-3.88-4.45-5.8-6.69-.9-1.06-1.76-2.17-2.64-3.25-2.28-2.75-4.43-5.6-6.87-8.22-.63-.68-1.15-1.46-1.68-2.23-1.7-2.42-3.59-4.69-5.72-6.73-.92-.87-1.66-1.8-2.07-3.04-.31-.9-1.01-1.54-1.9-1.96-.48-.23-1.34-.1-1.72.32-.21.23-.48.45-.57.72-.86,2.64-2.04,5.21-2.08,8.07,0,.46.01.97-.17,1.38-.72,1.62-.63,3.32-.66,5.02-.04,2.17-.14,4.34-.63,6.49-.24,1.05-.39,2.15-.4,3.23-.03,4.19.01,8.39.03,12.58,0,.31.02.63.09.92.76,3.21.84,6.46.61,9.74-.11,1.4.11,2.75.52,4.13.56,1.93,1.05,3.93,1.18,5.92.16,2.51.76,4.91,1.27,7.33.33,1.52.75,3,.82,4.56.07,1.43.57,2.73,1.58,3.98.54.32,1.21.7,1.85,1.13,1.73,1.17,3.63,1.66,5.7,1.77,2.01.11,4.02.41,6.03.61.78.08,1.55.15,2.38.84,1.39,2.13,2.92,4.46,4.45,6.8,1.37,2.09,2.97,3.97,4.89,5.59,1.54,1.29,3.02,2.68,4.47,4.08,3.25,3.12,6.55,6.18,10.12,8.94,5.04,3.9,10.19,7.64,15.39,11.31,1.65,1.17,3.36,2.22,5.35,2.8,1.02.3,2.07.75,2.94,1.36,1.42,1.01,3.01,1.59,4.62,2.16,1.17.41,2.32.88,3.46,1.37,1,.42,1.96.96,2.98,1.32,3.07,1.08,6.18,2.08,9.26,3.13,4.26,1.44,8.55,2.84,12.79,4.36,3.21,1.15,6.35,2.5,9.57,3.66,2.19.79,4.35,1.65,6.39,2.79.95.53,1.95.97,2.96,1.37,3.78,1.49,7.32,3.35,10.32,6.17.43.4,1.07.57,1.47.77,1.61-.68,3.04-1.26,4.45-1.9.69-.32,1.4-.68,2-1.15,3.17-2.54,6.83-4.29,10.35-6.24,2.84-1.57,5.92-2.72,8.88-4.06,1.84-.83,3.72-1.6,5.51-2.52,5.25-2.71,10.64-5.12,16.1-7.35,3.45-1.42,6.79-3.05,10.1-4.75,4.43-2.27,8.89-4.45,13.37-6.62,1.4-.68,2.94-1.05,4.28-1.81,1.48-.83,2.77-2.01,4.22-2.89,4.38-2.66,8.8-5.26,13.2-7.88,1.23-.72,2.54-1.13,4.01-1.01,1.56.13,3.1-.02,4.62-.36.9-.2,1.84-.3,2.76-.36,1.56-.11,3.07-.35,4.6-.66,3.34-.69,6.7-1.37,10.16-1.17.46.03.92-.04,1.4-.04,1.53,0,2.68-.72,3.51-1.94,1.07-1.54,1.9-3.2,2.4-5.02.42-1.49.75-3.05,1.43-4.42.83-1.7,1.26-3.5,1.81-5.27,1.09-3.41,1.46-6.97,2.22-10.46.53-2.43.95-4.86.89-7.37-.02-1.07.33-2.14.48-3.22.09-.77.29-1.57.16-2.3ZM241.17,295.27c1.54-2.15,2.95-4.34,4.11-6.7,1.03-2.09,2.41-3.94,3.8-5.79.04-.06.26-.05.31,0,.09.1.19.29.16.4-.24.73-.5,1.45-.72,2.05-1.75,3.58-3.42,7.05-5.73,10.16-.56.74-1.18,1.48-1.53,2.32-.91,2.25-2.75,3.69-4.39,5.3-.13.13-.54,0-.81-.07-.03,0-.07-.27-.03-.38.11-.29.21-.59.39-.83,1.56-2.1,2.93-4.35,4.44-6.48ZM235.67,293.52c.32-.16.72-.19,1.1-.27.23-.33.24-.52.42-.51-.02.09,0,.22-.05.26-.45.64-.5,1.05-.68,1.39-.1.2-.46.34-.72.37-.29.04-.51-.21-.46-.52.05-.27.18-.62.38-.73ZM234.43,305.85c-.39,1.16-1.17,2.01-2.25,2.59-.11.05-.36.02-.37,0-.05-.27-.2-.66-.08-.81.57-.7,1.19-1.37,1.85-1.99.24-.23.59-.1.84.21ZM231.29,296.71c.19-.16.57-.29.78-.21.77.28,1.18.92,1.37,1.7.1.45-.54,1.28-1.04,1.28-.27,0-.55-.19-.8-.34-.12-.07-.19-.23-.24-.37-.18-.42-.35-.85-.5-1.25.15-.3.23-.63.44-.81ZM227.72,300.3c.16-.29.4-.38.76-.26.61.22.9.76,1.2,1.26.66,1.11.5,1.54-.89,2.44-.59-.24-1.03-.63-1.17-1.26-.17-.73-.28-1.48.09-2.19ZM226.55,313.63c.08-.03.14-.06.21-.09.06-.16.09-.36.25-.36-.02.1,0,.23-.07.28-.2.16-.31.13-.31.26-.09.03-.42.31-.09-.09ZM222.31,304.25c.27-.76,1.03-1.06,1.86-1.33.31.22.74.41,1.01.73.39.46.68,1.02.98,1.55.58,1.04.27,1.67-1.26,2.4-.54-.44-1.16-.88-1.68-1.41-.53-.52-1.22-1.08-.9-1.94ZM218.79,306.52c.18-.17.54-.16.9-.25,1.09.97,2.25,1.96,3.35,2.99.15.14.15.63.02.8-.36.48-.8.91-1.25,1.3-.43.36-1.31.16-1.62-.31-.17-.25-.4-.48-.52-.76-.4-.98-.79-1.97-1.12-2.98-.07-.23.06-.62.24-.8ZM222.48,322.29c-.08.27-.31.54-.54.73-.7.58-1.44,1.13-2.12,1.66-1.1-.64-1.34-1.19-.9-1.75.7-.87,1.51-1.55,2.61-1.76.24-.05.62.12.79.31.17.18.23.56.16.81ZM215.77,308.82c.12-.18.37-.02.45.34.04.23.03.48.04.72.86.47.87,1.16.93,1.83.32.35.55.46.64.64.1.18-.01.47-.02.72-.09-.02-.22-.02-.26-.08-.09-.11-.15-.25-.17-.38-.03-.22-.05-.45-.06-.67-.93-.52-.98-1.19-.97-1.9-.29-.25-.56-.33-.64-.49-.1-.18-.05-.53.06-.72ZM212.99,326.63c.68-.88,1.55-1.43,2.66-1.53.12-.01.32.1.36.21.12.25.28.61.19.79-.66,1.18-1.88,1.67-3.02,1.26-.12-.04-.18-.2-.27-.3.03-.15,0-.34.09-.44ZM200.22,334.26c.6-1.29,1.57-2.16,2.98-2.45.17-.04.42.29.63.45-.08.27-.09.6-.25.82-.64.88-1.67,1.22-2.58,1.73-.18.09-.54-.09-.8-.19-.03-.01-.03-.25.02-.36ZM195.11,336.65c.08-.03.27.09.34.18.06.1.09.32.03.39-.67.84-1.54,1.36-2.65,1.38-.11,0-.23-.18-.35-.27.63-.94,1.62-1.34,2.63-1.69ZM187.78,336.79c.21-.14.45-.23.69-.3.04-.02.14.14.21.22-.2.18-.4.37-.62.53-.05.04-.26-.02-.29-.09-.04-.1-.05-.32.01-.36ZM188.47,339.92c.13.01.23.18.35.28-.07.26-.07.61-.24.77-.77.75-1.69,1.24-2.78,1.33-.13,0-.3-.08-.39-.17-.08-.08-.18-.26-.15-.34.5-1.33,1.61-1.98,3.21-1.87ZM180.54,339.1c.61-.96,1.21-1.16,2.35-.79.1.04.23.2.24.31.01.14-.04.34-.15.43-.8.7-1.02.76-2.1.72-.11-.09-.27-.17-.35-.29-.06-.09-.06-.28,0-.37ZM178.47,343.91c.8-1.13,2.01-1.36,3.29-1.28.21.02.43.33.58.55.06.09.01.35-.07.44-.9.9-1.93,1.54-3.23,1.61-.26-.15-.64-.25-.72-.46-.09-.24,0-.64.16-.86ZM176.17,340.67c.28-.17.36-.27.44-.37-.03.09-.03.21-.09.25-.34.29-.41.38-.48.47.04-.12.08-.24.14-.36ZM172,340.26c.59,1.08.27,2.01-.45,2.84-.16.19-.53.29-.78.27-.24-.02-.45-.25-.7-.4.36-1.1.59-2.29,1.93-2.71ZM169.02,346.69c.58-.33,1.19-.31,1.79-.08.52.2,1.02.42,1.53.64.68-.75,1.13-1.49,1.62-2.19.33-.46,1.15-.31,1.54.25.52.76.32,1.52-.43,1.81-.84.32-1.67.19-2.51.09-1.11,1.18-2.35,1.64-3.74,1.75-.25.02-.53-.24-.79-.36-.08-.86.26-1.49,1-1.91ZM166.45,342.09c.14.46.41.89.35,1.26-.22,1.32-1.06,2.17-2.32,2.59-.21.07-.55-.13-.8-.25-.09-.05-.2-.27-.17-.38.37-1.56,1.11-2.81,2.94-3.23ZM160.7,343.72c.58,1.27.55,1.39-.83,2.33-.54-1.5-.53-1.52.83-2.33ZM158.12,349.56c.34,0,.53-.06.64,0,1.01.59,1.94.76,2.88-.21.41-.42,1.03-.64,1.58-.9.55-.26,1.38-.04,1.67.39.41.58.11,1.72-.54,1.98-1.72.66-3.45,1.33-5.2,1.92-.74.25-1.53.25-2.16-.38-.19-1.21.62-1.96,1.12-2.8ZM156.28,344.12c.09.12.27.25.26.35-.05.43-.08.88-.26,1.26-.08.19-.5.34-.74.3-.34-.06-.46-.39-.37-.71.21-.73.72-1.26,1.1-1.2ZM148.87,60.26s-.24-.05-.28-.12c-.04-.1-.05-.32,0-.36.2-.13.44-.21.68-.27.04-.01.13.15.2.23-.2.17-.38.37-.6.52ZM150.64,53.77c-.22.57-.59,1.04-1.14,1.33-.13.06-.3,0-.46,0-.16-.18-.47-.39-.46-.56.06-.84.64-1.3,1.38-1.59.11-.05.3-.04.42.03.32.17.4.45.26.79ZM153.92,50.63c-.47.16-.89.03-1.26-.23-.4-.29-.5-.78-.42-1.21.19-1.04.53-2.04,1.34-2.77.68-.19,1.25,0,1.51.61.28.68.4,1.43.56,2.02-.4.87-.97,1.32-1.72,1.58ZM156.2,42.93c-.27.25-1.05.11-1.16-.25-.13-.43-.22-.87-.29-1.16.07-.46.11-.76.18-1.07.08-.42.59-.81.99-.79.54.03,1.22.72,1.17,1.22-.08.77-.27,1.5-.89,2.04ZM157.29,34.87c.01.15,0,.3,0,.69-.02.37-.5.88-1.09.93-.64.06-1.17-.26-1.38-.85-.06-.14-.13-.28-.16-.42-.15-.82.21-1.56.86-1.84.74-.32,1.65.44,1.77,1.48ZM150.48,20.55c.25-.05.67-.12.76,0,1.25,1.74,1.38,2.12,1.98,5.11.85,1.03,1.87,1.98,2.39,3.32.35.91-.32,1.95-1.31,1.86-.28-.02-.55-.22-.81-.37-.11-.07-.24-.22-.27-.35-.65-2.71-1.85-5.23-2.78-7.84-.15-.42-.15-.9-.18-1.35,0-.13.13-.35.23-.37ZM111.79,52.58c-.02-.1-.05-.2-.07-.31-.4-.36-.61-.81-.65-1.34-.07-.06-.07-.15-.15-.2-.5-.2-.72-.47-.83-.86-.68-.56-.86-1.06-.93-1.62-.04-.4-.03-.8-.04-1.2-.21-.2-.38-.21-.44-.3-2.49-3.3-3.77-7.07-4.3-11.13-.26-1.99-.74-3.97-.19-6,.13-.44.09-.93.05-1.39-.24-3.23.9-6.1,2.23-8.92.61-1.28,1.35-2.45,2.66-3.14.59-.31.9-.86,1.11-1.45.63-1.79,1.96-2.66,3.77-3.08,1.97-.46,3.82-1.27,5.55-2.35,2.26-1.41,4.83-2.1,7.14-3,1.09.18,2.01.32,2.88.45.73-.42,1.39-.8,2.15-1.24,2.3.5,4.19,1.74,5.65,3.65.48.63,1.05,1.14,1.83,1.36,1.68.47,3.16,1.3,4.35,2.6.75.82,1.71,1.31,2.67,1.83.83.45,1.51,1.09,1.87,1.91,0,.37.12.76-.02.95-.95,1.26-.95,2.47-.33,3.92,2.2,5.15,3.8,10.5,4.85,16.32-.57,2.74-.68,5.88-2.14,8.72-1.26,1.19-1.01,3.27-2.38,4.33-1-.16-1.24-1.59-2.4-1.11-.66.8-.51,1.75-.5,2.67,0,.63-.13,1.21-.44,1.77-.44.77-1.27.89-1.86.18-.28-.35-.55-.72-.79-1.04-.55.07-1.09.11-1.21.63-.17.74-.15,1.53-.29,2.29-.07.44-.24.89-.48,1.26-.15.21-.52.38-.79.38s-.68-.17-.77-.38c-.35-.84-.58-1.73-.9-2.58-.13-.31-.46-.38-.81-.27-.14.05-.29.11-.36.22-.17.25-.37.52-.4.81-.13.92-.18,1.85-.24,2.69-.27.3-.44.56-.68.74-.48.38-1.4.04-1.43-.54-.05-.61.03-1.23.02-1.84-.01-.63-.7-1.28-1.22-1.07-1.39.56-2.71.5-4.08-.03-.57-.22-1.18-.43-1.79-.49-1.73-.18-3.33-.71-4.82-1.59-.35-.21-1.1.08-1.19.44-.07.28-.13.64-.01.88.2.41.47.83.83,1.09.48.36,1.06.65,1.64.84.73.24,1.49.35,2.19.51q.33,1.2-.65,1.86c-2.37-.48-4.25-1.74-5.87-3.49-.63-.68-1.34-1.3-2-1.96-2.32-2.34-4.27-4.92-5.34-8.09-.2-.58-.43-1.16-1.14-1.53-.3.25-.77.47-.92.83-.22.53-.24,1.15-.34,1.73.59.49.77,1.01.84,1.58.04.38.03.77.03,1.16.58.31.79.59.92.94.17.17.22.26.23.37.39.37.54.85.65,1.34.06.07.09.15.18.21.06.14.14.27.21.39-.13-.08-.16-.25-.31-.3ZM141.74,67.19c-2.54,2.7-3.37,5.84-2.49,9.43.53,2.13.73,4.27.32,6.46-.4.26-.77.51-1.1.74-.68-.27-1.18-.67-1.23-1.33-.36-4.02-.58-8.04.98-11.91.11-.27.11-.59.15-.89-.6-.9-1.21-1.08-1.71-.52-.11.11-.25.19-.34.32-.56.75-1.1,1.55-1.19,2.49-.24,2.47-.46,4.93-.58,7.4-.04.91.27,1.83.35,2.76.06.76.01,1.53.01,2.31-.4.79-1.21.85-1.94,1.09-1.04.34-2.12.47-3.21.28-.6-.11-1.2-.29-1.79-.47-.88-.27-1.87-.11-2.64-.77-.26-.58-.47-1.15,0-1.72.74-.15,1.36.75,2.26.02.59-.97-.04-2.21.03-3.42.07-1.39.04-2.79.09-4.18.03-1.16-.03-2.35.39-3.66.72.9,1.26,1.6,1.84,2.29.07.09.31.14.4.09.26-.12.67-.29.69-.47.29-2.29.39-4.6.48-6.9.01-.19-.36-.4-.61-.67-1.59.83-3.25,1.57-4.7,2.7-.54-.69-.39-1.47-.21-2.22.07-.25.34-.62.56-.66,1.13-.21,1.37-1.08,1.72-1.96.22-.6.78-.98,1.44-1,.43-.02,1-.02,1.29.23.7.58,1.23,1.38,1.95,1.96.45.37,1.09.61,1.66.71,1.24.2,2.48.01,3.62-.55,1.25-.61,2.46-1.29,3.64-1.9,1.25.53,1.6,1.2,1.16,2.03-.15.27-.26.57-.43.82-.26.38-.55.75-.86,1.09ZM142.23,88.6c-.66,0-1.09.02-1.51,0-.35-.03-.55-.26-.52-.6.01-.11.18-.26.29-.27.13-.01.26.11.39.18.38.19.76.39,1.36.7ZM129.42,58.59c.35-.07.61.04.8.34.24.41.03.83-.48.99-.35.11-.63.03-.79-.3-.21-.44.02-.91.47-1.04ZM134.49,62.85c-.13-.36,0-.61.38-.69.15-.03.31,0,.46,0,.11.07.24.15.37.22-.17.23-.32.49-.52.69-.09.09-.3.15-.42.11-.11-.04-.23-.2-.27-.33ZM116.46,57.22c-1.9-.54-2.92-1.77-3.59-3.37-.03-.08-.01-.17,0-.27-.15-.21-.31-.24-.39-.36.11.07.2.18.38.19,1.29,1.2,2.57,2.24,3.47,3.64.07.02.14.06.22.07.06.22.19.37.31.52-.13-.14-.27-.28-.41-.43ZM118.49,59.2c-.44-.37-.76-.68-1.07-.99-.13-.14-.27-.29-.41-.43.15.13.32.24.5.34.32.31.62.62.94.93,1.77.95,3.39,1.99,5.35,2.25.3.04.52.63.85,1.04-1.09.34-2.08.64-3.12.96-1.57-.97-2.73-2.23-3.03-4.11ZM110.51,118.75c-7.34.3-15.2-.41-22.98-.75-11.39-.5-22.47.28-33.87.42-1.19-.2-2.38-.41-3.57-.61-.47-.08-.79-.41-1-.8l.94.03c3.17.11,6.31-.09,9.45-.46,3.55-.42,7.16-.36,10.73-.2,4.02.18,8-.06,11.99-.43,4.62-.43,9.22-.45,13.86.43,2.68.51,5.48.5,8.2.32,6.1-.42,7.75-.46,13.84.26,1.46.17,2.98.28,4.4,0,3.77-.71,7.52-.84,11.33-.45,1.74.18,3.35-.27,4.8-1.33.15-.12.23-.39.3-.61.1-.39-.12-.85-.62-.9-5.7-.62-11.38-.67-16.99.66-2.71-.62-5.39-1.49-8.15-.58-.58.19-1.27.21-1.87.05-2.95-.83-5.85-.24-8.8-.15-4.62.14-9.27-.1-13.91-.24-3.8-.11-7.59-.33-11.38.01-1.66.15-3.37-.03-5.05-.05-3.38-.05-6.74-.18-10.08.53-1.82.39-3.77.24-5.66.19-2.54-.07-5.06-.15-7.59-.23v-3.36c0-.74.51-1.36,1.23-1.5.75-.15,1.53-.24,2.34-.31.63.09,1.26.13,1.9.25,2.68.51,5.48.5,8.2.32,6.1-.42,7.75-.46,13.84.26,1.45.17,2.98.28,4.4.01,3.76-.71,7.52-.85,11.33-.46,1.74.18,3.35-.27,4.8-1.33.15-.11.23-.39.29-.61.11-.39-.11-.85-.62-.9-5.7-.62-11.38-.67-16.99.65-2.72-.62-5.39-1.48-8.15-.58-.58.19-1.29.21-1.87.05,6.11-1.06,12.24-2.08,18.52-3.28,1.59.09,3.17.11,4.75.05,10.76-.37,21.5-.69,32.26-.71,2.75,0,5.49-.24,8.12-1.3.57-.23,1.06-.72,1.56-1.09-.15-.54-.27-.97-.48-1.67-2.39-.44-4.93-.48-7.39.15-2.94.75-5.87.82-8.82.88-2.96.06-5.9,0-8.85.08-.22,0-.43.01-.65.02,3.71-.62,7.4-1.22,11.12-1.95,2.38-.1,10.42-.87,12.8-.97,5,.24,25.51,1.32,30.21,1.64,2.19.29,4.38.43,6.58.56-.25.05-.5.06-.76.13-.59.17-1.29.14-1.87-.05-2.75-.9-5.43-.03-8.15.58-5.6-1.32-11.28-1.28-16.97-.66-.52.05-.74.51-.62.9.05.22.14.49.3.61,1.44,1.07,3.05,1.51,4.79,1.33,3.81-.39,7.58-.25,11.35.46,1.42.27,2.94.16,4.4-.01,6.08-.72,7.72-.68,13.84-.26,2.71.19,5.5.19,8.19-.32,4.64-.87,9.24-.86,13.86-.43,3.99.37,7.97.61,12,.43.37-.02.74,0,1.11-.02,1.1.08,2.21.14,3.31.25,1.56.39,3.11.78,4.67,1.17.04.21.09.41.13.62-5.06.03-10.11.05-15.18.1-2.95.03-5.9.2-8.85.25-2.95.06-5.88.09-8.82-.55-2.46-.54-5-.4-7.39.13-.21.7-.34,1.13-.49,1.68.5.34,1,.81,1.57,1.02,2.63.96,5.38,1.09,8.13.99,10.34-.36,20.69-.45,31.03-.48-.21.25-.45.47-.79.54-3.94.82-7.87,1.64-11.81,2.46-2.39.08-4.78.24-7.16.83-1.83.45-3.78.39-5.67.41-7.6.08-15.19.08-22.78.16-2.96.03-5.9.2-8.85.25-2.96.06-5.89.09-8.82-.55-2.47-.54-5-.4-7.4.14-.2.7-.32,1.13-.48,1.68.51.34.99.81,1.56,1.02,2.64.96,5.39,1.09,8.14.99,7.96-.28,15.92-.38,23.88-.43-4.09.64-8.2,1.28-12.29,1.92-2.6.2-5.2.41-7.8.61-.09.04-.16.07-.24.09-.6.14-1.2.24-1.47.3-.38,0-.69-.06-.96-.17-2.18.17-11.02,1.51-13.2,1.69-12.94.44-19.23-.28-32.17.16ZM144.74,308.88c-.07-.44.03-.99.51-1.17.39-.14.89-.18,1.29-.07.55.16,1,.97.88,1.44-.19.73-.43,1.45-.63,2.12.42.66.96,1.24,1.2,1.92.48,1.38-.52,2.48-1.92,2.23-.58-.1-1.15-.65-1.23-1.19-.04-.3-.14-.62-.09-.9.14-.74.34-1.46.52-2.22-.18-.7-.42-1.42-.53-2.17ZM143.69,151.9c.11-.08.3-.12.42-.09.11.03.2.2.24.32.22.58.18,1.14-.31,1.74-.28-.29-.66-.54-.81-.88-.18-.42.11-.82.45-1.1ZM143.07,148.96c.42-1.82.15-3.68.41-5.5.08-.53.03-1.14.59-1.5.44.88.36,1.82.39,2.74.05,1.69.05,3.39-.08,5.11-.38-.03-.7.03-.86-.1-.22-.17-.5-.54-.44-.75ZM144.85,304c.15-.27.43-.33.73-.17.29.16.38.43.27.76-.22.14-.43.38-.66.39-.37,0-.57-.59-.34-.98ZM144.76,300.58c-.02-.11.06-.26.11-.39.1.01.27,0,.31.05.06.11.11.29.06.4-.2.47-.39.45-.48-.06ZM145.4,243.4c-.11-.01-.2-.12-.3-.19.11-.04.24-.12.35-.11.11.01.21.12.3.18-.11.04-.23.12-.35.11ZM145.3,239.59c-.21.02-.58-.23-.65-.44-.19-.6-.13-1.21.35-1.7,1.01.49,1.29.93.98,1.65-.11.23-.43.48-.68.5ZM144.08,234.2c0-.49.23-.86.64-1.11.12-.07.27-.06.42-.09.6.07,1.04.86.77,1.39-.22.41-.53.74-1,.8-.34.05-.82-.54-.83-.99ZM144.96,215.34c-.82-.16-1.32-.61-1.15-1.5.04-.24.28-.54.5-.61.22-.07.61.04.78.21.62.64.48,1.3-.13,1.9ZM145.4,219.31c-.16.25-.27.56-.49.74-.27.24-.93-.11-1.05-.54-.14-.47-.06-.9.26-1.29.28-.34.97-.22,1.11.21.09.28.12.58.17.88ZM144.64,195.7c-.48-.19-.79-.75-.5-.95.2-.14.55-.18.81-.13.35.07.46.36.36.72-.13.34-.35.48-.66.36ZM145.62,199.38c.09.21-.13.34-.5.28-.09,0-.16-.16-.24-.25.13-.05.25-.15.38-.16.13,0,.35.04.37.12ZM144.34,206.84c.45-.14.87.29.82.8-.09.34-.29.49-.62.42-.48-.1-.74-.57-.54-.96.06-.11.21-.21.34-.25ZM144.96,203.92c-.18-.17-.3-.54-.25-.78.07-.34.4-.48.68-.32.2.11.33.37.48.57-.06.44-.63.8-.91.53ZM145.18,191.08c-.44.38-1.38.14-1.48-.39-.09-.44-.15-.89-.2-1.25.06-.38.11-.68.17-.97.11-.51,1.03-.79,1.49-.46,1.06.75,1.06,2.17.02,3.07ZM144.01,183.62c.14-.32.4-.44.74-.33.45.15.68.58.57,1-.11.37-.71.64-1.04.47-.35-.17-.47-.68-.26-1.15ZM144.87,180.13c-.22.06-.57-.08-.79-.24-.39-.29-.45-.76-.29-1.19.08-.25.28-.57.51-.64.22-.06.62.08.76.27.24.33.33.76.46,1.1-.27.31-.42.64-.64.71ZM145.03,173.17c-.25,0-.57.03-.72-.11-.18-.16-.35-.53-.3-.75.09-.32.5-.44.77-.24.2.15.31.46.39.72.03.11-.08.38-.14.38ZM145.1,170.12c-.01.08-.22.22-.29.2-.43-.17-.84-.41-.93-.88-.05-.25.04-.54.14-.8.03-.09.23-.12.36-.18.35-.05.66.07.72.4.07.41.03.84,0,1.26ZM144.69,165.86c-.15.01-.31.08-.42.03-.61-.33-.66-.9-.54-1.49.08-.39.34-.5.62-.32.56.34.82.83.65,1.47-.03.12-.21.21-.32.31ZM144,158.51c-.48-.43-.58-.98-.41-1.58.04-.13.22-.32.27-.3.21.07.5.18.56.35.19.58.16.59-.42,1.53ZM143.67,223.11c.09-.52,1.02-.81,1.46-.47,1.29,1.01,1.06,2.87-.46,3.62-.38.19-.94-.08-1.01-.51-.06-.44-.13-.88-.19-1.33.06-.44.11-.88.2-1.31ZM145.03,228.36c.55.1,1,.79.92,1.61-.24.17-.56.56-.95.64-.61.14-1.21-.5-1.17-1.11.05-.63.67-1.23,1.2-1.14ZM144.63,272.69c.02-.13.19-.23.28-.35.5,2.59.52,2.96.19,7.06-.5.18-.85-.08-.99-.48-.15-.41-.23-.9-.18-1.33.2-1.63.44-3.27.7-4.9ZM144.16,283.09c.13-.22.46-.33.72-.49.14.23.31.45.42.69.05.13.04.3.05.45-.02.3-.04.61-.09.9-.03.14-.16.38-.21.38-.26-.04-.6-.07-.75-.24-.43-.5-.45-1.13-.14-1.69ZM144.49,288.63c.01-.14.35-.29.56-.39.02-.01.25.23.25.35.04,1.06.07,2.14.04,3.2-.01.27-.26.52-.4.79-.17-.25-.45-.5-.46-.75-.04-1.06-.03-2.13,0-3.19ZM144.72,295.62c.05-.08.21-.11.32-.16.1.11.23.2.29.32.17.4.14.81-.14,1.16-.06.09-.22.17-.31.15-.4-.09-.5-.91-.15-1.47ZM146.07,317c1.76.2,2.17.62,2.08,2.1-.03.62-.5,1.08-1.13,1.11-.67.03-1.26-.28-1.43-.79-.28-.89-.35-1.74.47-2.43ZM146.84,322.4c.82-.08,1.1.12,1.66,1.15-.47.46-1.06.57-1.7.54-.53-.02-.96-.41-.88-.81.09-.49.44-.83.93-.87ZM146.84,326.08c.95-.03,1.61.17,2.06.88.29.46.07,1.35-.39,1.53-.89.34-1.8.07-2.31-.75-.14-.22-.21-.61-.11-.81.19-.36.54-.62.74-.84ZM147.55,330.5c1.01-.07,1.7.35,2,1.32-.2.63-.63.99-1.27,1.05-.64.07-1.13-.29-1.49-.77-.15-.2-.18-.56-.15-.83.04-.45.45-.74.92-.77ZM148.19,334.61c.82.03,1.57.57,1.66,1.23,0,.14-.05.3-.09.44-.19.22-.34.52-.57.63-.72.33-1.46.34-2.1-.2-.2-.17-.36-.5-.36-.75-.01-.8.64-1.37,1.44-1.34ZM138.47,157.9c-.11-.42-.17-.95-.03-1.36.35-1.1.07-2.1-.24-3.13-.19-.59-.13-1.25.43-1.67.68-.51,1.63-.26,2.36.59.1.11.13.28.18.4.05.86-.66,1.36-.94,2.09.22.39.42.81.68,1.18.49.67.7,1.47.37,2.16-.52,1.09-.14,2.07.04,3.1-.5.84-.8,1.66-.03,2.53.18.2.2.57.24.86.11.72-.61,1.59-1.31,1.59-.48,0-1.24-.62-1.33-1.09-.06-.45-.18-.9-.15-1.35.14-1.98.31-3.95-.28-5.9ZM141.02,136.98c-.26.66-.87.84-1.46.96-.24.05-.61-.1-.79-.3-.17-.17-.16-.51-.23-.78.84-.31,1.68-.59,2.48.11ZM139.21,132.61c.13-.18.42-.25.64-.38.17.18.43.33.47.54.09.39-.42.71-.84.55-.33-.12-.46-.42-.27-.7ZM140.78,139.48c.37.19.49.89.21,1.17-.48.48-1.07.53-1.7.41-.71-.14-1.01-.59-.99-1.3.74-.84,1.59-.75,2.48-.29ZM140.47,145.48c-.45.35-1.22.21-1.64-.18-.39-.37-.61-1.22-.35-1.64.14-.23.43-.43.69-.5,1.07-.26,1.68.3,2.06,1.34-.23.31-.44.72-.77.98ZM140.69,148.5c.09.32-.03.56-.31.77-.57.42-1.13.4-1.7.06-.31-.19-.42-.45-.34-.8.16-.67.57-.93,1.37-.88.53.03.81.36.99.84ZM141.32,168.53c-.05.12-.07.26-.15.36-.33.41-.79.36-1.23.31-.48-.05-.81-.29-.94-.78-.1-.42.2-.87.66-.99.68-.17,1.14.23,1.55.66.09.09.07.28.11.43ZM139.5,171.12c.43-.1.93-.09,1.36.02.21.06.34.44.51.68.06.34-.05.65-.39.76-.42.13-.87.23-1.32.23-.42,0-.82-.62-.66-1.01.11-.26.29-.63.5-.68ZM141.03,180.13c-.11.08-.29.03-.45.05-.12-.06-.27-.08-.35-.17-.47-.55-.47-1.52.06-2.06.16-.17.62-.27.79-.17.73.44.67,1.81-.05,2.36ZM141.38,184.16c-.06.45-.61.84-.92.6-.19-.15-.33-.49-.33-.74.01-.48.6-.87.88-.6.19.17.24.5.36.75ZM140.09,188.64c.09-.5.55-.6,1.02-.52.59.77.49,1.66.32,2.53-.08.47-.55.6-1.02.53-.62-.77-.48-1.67-.33-2.53ZM141.46,212.96c.24.57.24,1.17.02,1.77-.15.4-.82.85-1.04.64-.21-.19-.46-.45-.47-.7-.02-.59.03-1.19.14-1.78.06-.34.37-.47.69-.43.23.16.57.27.66.48ZM135.46,130.56c-.12.09-.22.21-.35.25-.42.15-.85.18-1.22-.13-.07-.06-.14-.22-.1-.31.14-.42.9-.49,1.56-.1.07.04.09.19.12.29ZM123.1,261.41c.37.34.64.69.67,1.14.2,3.12,0,6.19-1.08,9.16-.03.1-.19.15-.29.23-.43-.53-.41-1.17-.37-1.78.18-2.9.09-5.84,1.04-8.65-.24-.36-.47-.52-.6-.73-.14-.26-.2-.59-.21-.9-.2-5.43-.13-10.86.05-16.4.37.21.7.28.77.46.24.57.52,1.16.56,1.76.24,3.4.45,6.8-.28,10.2-.38,1.75-.25,3.61-.33,5.43.02.02.04.05.07.08ZM123.67,235.66c-.68-1.16-.6-2.25-.56-3.26.11-3.1-.51-6.15-.58-9.24,0-.15-.07-.31-.07-.46-.03-1.85-.23-3.73-.03-5.56.19-1.72.05-3.37-.04-5.07-.11-1.85.01-3.71.11-5.56.02-.51.54-.66,1.02-.65.11.28.31.57.32.86.1,7.12.25,14.25.25,21.37,0,2.46,0,4.94-.41,7.58ZM123.99,161.59c.04,1.06-.02,2.11-.44,3.19-.5-.79-.41-1.58-.45-2.33-.28-5.54-.22-11.08.19-16.72.61.49.44,1.06.45,1.54.1,3.39.36,6.78.15,10.17-.08,1.38.05,2.77.11,4.16ZM122.98,168.49c.05-.25.38-.44.7-.78.09.71.22,1.31.22,1.91.04,5.59.02,11.18.09,16.77.03,3.57.19,7.14-.01,10.71-.05.92-.13,1.85-.19,2.77-.14.03-.26.07-.4.1-.07-.45-.23-.91-.21-1.36.08-3.57-.52-7.1-.75-10.65-.16-2.65.04-5.27.08-7.91.05-2.62-.3-5.27-.14-7.9.09-1.23.36-2.45.6-3.67ZM119.47,310.2c.02-1.55.09-3.1.14-4.65.04-2.17-.05-4.34.5-6.47.07-.29.09-.61.09-.92.06-4.5.95-8.93,1.2-13.41.09-1.68.23-3.36,1.05-4.98.17.27.38.46.4.66.3,3.72.08,7.43-.05,11.14-.02.61-.2,1.22-.26,1.83-.14,1.23-.32,2.46-.36,3.69-.11,3.25-.16,6.51-.21,9.76-.03,2.48-.04,4.96-.05,7.44-.02,2.17-.09,4.32-.44,6.48-.27,1.67-.29,3.39-.35,5.09-.05,2.18-.24,4.33-.87,6.42-.06.24-.4.39-.6.59-.39-.53-.43-1.14-.42-1.76.08-6.97.16-13.94.24-20.91ZM115.96,341.82c.86-.04,1.75-.24,2.55.32-.78.57-1.6.96-2.56.82-.21-.03-.45-.37-.54-.61-.09-.29.17-.51.55-.53ZM56.51,323.51c.4.17.83.32,1.22.55,3.31,1.99,6.83,3.58,10.31,5.24,3.06,1.46,6.1,2.96,9.4,3.89,1.46.41,2.85,1.07,4.26,1.65.07.03.11.17.15.29,1.47.17,2.63.12,3.75.34,2.71.55,5.41,1.24,8.1,1.93.58.15,1.11.52,1.75.83-.3.19-.5.45-.65.42-2.86-.64-5.82-.73-8.62-1.62-1.4-.45-2.82-.84-4-1.76-.09,0-.18,0-.27,0-2.19-.17-4.2-.71-6.23-1.37-3.82-1.23-7.47-2.89-11.21-4.34-3.04-1.17-5.81-2.87-8.11-5.23-.28-.29-.19-.58.16-.78ZM42.37,294.12c.22-.06.55.2.8.36.05.04.02.27,0,.4-.04.15-.09.3-.18.42-.81,1.16-1.77,2.18-3.02,2.85-.22.12-.63.11-.84-.02-.22-.14-.33-.49-.54-.85,1.06-1.26,1.98-2.72,3.78-3.15ZM38.25,290.13c1.25-.78,2.04-.32,2.55,1.57-1.11,1.15-2.25,2.37-3.42,3.58-.09.1-.28.1-.44.16-.81-.23-1.16-.88-1.42-1.61-.26-.75-.07-1.72.46-2.12.74-.55,1.49-1.09,2.27-1.58ZM37.29,287.21c-.18.34-.31.83-.63,1.13-.56.53-1.22.95-1.85,1.4-.52.38-1.13.64-1.7.32-.85-.46-1.36-1.24-1.4-2.25-.02-.51.23-.94.61-1.19.88-.6,1.82-1.13,2.84-1.75,1.32.61,1.85,1.32,2.14,2.35ZM32.52,280.98c.39.45.7.96,1.03,1.41-.53,1.7-2.18,1.68-3.23,2.48-1.72-.02-2.27-1.34-2.85-2.58-.09-.2.06-.59.21-.84.15-.25.39-.5.65-.62.54-.26,1.11-.5,1.69-.63.96-.23,1.83.03,2.49.78ZM26.46,275.36c.81-.01,1.45.45,1.81,1.22.05.12.05.28.07.42-.23.89-1.54,1.96-2.36,1.92-.15,0-.3-.05-.43-.11-.14-.07-.28-.15-.37-.27-.24-.38-.53-.76-.67-1.18-.09-.26-.04-.62.07-.88.37-.77,1.1-1.1,1.87-1.11ZM23.14,271.21c.76-.08,1.6.72,1.43,1.36-.15.57-.75,1.01-1.36.98-.56-.02-1.18-.61-1.21-1.15-.04-.51.56-1.13,1.14-1.19ZM20.03,266.95c.13.21.27.42.36.65.03.08.02.18.01.27.4.11.61.2.69.5.02.09-.17.22-.25.33-.11-.22-.21-.44-.33-.66-.28-.35-.46-.52-.6-.72-.04-.07.07-.24.12-.37ZM11.85,262.09c.09.11.16.18.23.24.05.1.08.21.15.31.06.06.13.11.19.17-.06-.05-.14-.08-.18-.14-.09-.1-.17-.17-.25-.24-.03-.1-.06-.2-.11-.29-.06-.06-.14-.12-.2-.18.06.04.15.08.18.14ZM51.92,346.42c-.08.11-.23.21-.36.23-.15.02-.31-.02-.44-.09-2.1-1.13-5.38-3.62-6.91-5.31-.18-.19-.19-.57-.2-.86,0-.1.21-.21.32-.31.3,0,.64-.09.87.02.4.2.78.49,1.1.81,1.65,1.63,3.61,2.87,5.41,4.31.2.16.26.51.34.78.03.12-.04.3-.13.41ZM56.33,349.62c-.13-.04-.28-.05-.39-.13-.57-.37-.76-.72-.5-.91.1-.08.26-.13.39-.11.57.08.8.31.79.83,0,.11-.19.22-.28.32ZM68.04,357.17c-2.29-.43-4.23-1.68-6.18-2.85-.91-.54-1.63-1.37-2.4-2.1-.27-.26-.21-.59.06-.76.12-.08.29-.1.42-.09.15,0,.29.07.42.14.14.07.26.16.38.26,2.2,1.68,4.49,3.21,6.98,4.43.25.12.4.46.59.69-.09.1-.2.3-.27.28ZM78.9,362.93c-.43-.05-.95-.11-1.27-.36-.43-.33-.75-.81-1.1-1.24-1.88-.34-3.39-.87-4.77-1.74-.38-.24-.6-.91-.34-1.17.21-.2.45-.41.73-.48.27-.09.62-.09.88,0,.72.25,1.39.56,2.03.83.43.88.82,1.65,1.2,2.42,1.14.27,1.81-.55,2.82-.41.21.25.59.54.75.92.24.6-.32,1.32-.93,1.24ZM72.11,354.65c-.05-.41.07-.83.14-1.28,1.49.38,2.69,1.05,3.81,1.75,0,.37.11.74-.03.91-.15.19-.56.33-.79.26-.88-.25-1.76-.57-2.6-.94-.24-.11-.5-.44-.53-.7ZM80.12,358.68c-.34-.2-.54-.69-.74-1.08-.18-.36.31-1,.69-.97.15.01.32-.05.45,0,1.62.53,3.14,1.24,4.39,2.42.2.18.22.55.33.83-.27.12-.57.36-.82.32-1.5-.26-2.97-.74-4.3-1.51ZM89.71,366.93c-1.64-.22-3.2-.77-4.64-1.59-.08-.05-.11-.2-.16-.32-.7-.12-1.26-.1-1.79-.22-.83-.17-1.13-.89-.8-1.71.15-.36.86-.54,1.13-.3.66.59,1.09,1.3,1.31,2.14,1.77.01,3.39-.3,4.98.31.44.17.46.13,1.23,1.31-.43.14-.87.44-1.25.38ZM88.27,361.14c-.07-.33.03-.62.38-.73,1.06-.32,1.84.32,1.74,1.41-.05.54-.52.84-.94.63-.57-.28-1.02-.66-1.18-1.31ZM93.29,362.64c-.06-.79.67-1.55,1.39-1.43.31.05.62.06.9.16.87.28,1.76.55,2.61.9.95.38,1.33,1.2,1.42,2.17.05.42-.39,1.04-.72.98-.6-.12-1.19-.26-1.1-.24-1.44-.24-2.2-.34-2.95-.5-.86-.19-1.48-1.04-1.56-2.04ZM99.75,370.47c-2.01-.11-3.84-.75-5.48-1.92-.12-.08-.2-.23-.26-.36-.07-.13-.12-.27-.16-.41-.09-.33.04-.57.4-.69.14-.05.31-.1.44-.07,1.63.31,3.26.61,4.88.97.64.14,1.01.62,1.43,2.29-.12-.52-.73.23-1.25.2ZM108.34,373.06c-.18.18-.56.26-.84.25-1.44-.06-2.69-.7-3.89-1.4-.76-.44-.85-1.81-.16-2.45.21-.19.52-.27.8-.4,1.97.32,3.49,1.23,4.18,3.21.08.24.07.64-.08.79ZM116.01,376.02c-1.34-.37-2.65-.82-3.77-1.18-1.07-1.08-1.61-2.17-1.86-3.41.25-.19.47-.51.69-.51,1.14-.01,2.08.57,2.95,1.23,1.23.95,2.28,2.09,2.88,3.59-.33.11-.65.34-.89.27ZM117.78,370.24c-.08.1-.24.18-.37.21-.15.04-.34.06-.45,0-1.35-.79-2.19-1.91-2.22-3.51-.98.06-1.83.07-2.53.84-.86.97-1.94.87-2.76,0-.31-.33-.61-.7-.87-1.09-.34-.5-.63-1.03-.87-1.44-.87-.18-1.27.15-1.71.67-.84,1-1.9,1.1-2.8.31-.45-.39-.8-.93-1.08-1.46-.41-.74.17-1.71.96-1.67,1.07.05,2.18,0,3.23.21,2.73.54,5.45,1.2,7.78,2.85.22.15.36.43.52.66,1.61.64,2.55,1.73,3.26,3.06.04.08,0,.27-.07.35ZM123.25,378.79c-.71-.23-1.42-.55-1.99-1.02-1.04-.87-1.9-1.92-2.45-3.19-.05-.11-.03-.3.03-.42.14-.31.41-.37.76-.21.41.19.87.3,1.22.58,1.4,1.14,2.75,2.33,3.79,4.06-.56.1-1.01.32-1.36.2ZM126.91,380.24c-.05-.07-.05-.17-.06-.26-.41-.44-.32-.38-.2-.16.46.21.6.31.55.52-.09-.02-.25-.02-.29-.09ZM133.9,384.73c-.72-2.26-.61-3.62-.64-4.95,0-.27.18-.55.27-.83.09,0,.21-.03.24,0,.09.11.19.26.2.39,0,1.48.29,2.96-.07,5.38ZM137.89,326.84c-.19-8.39,0-16.77.17-25.15.02-1.24-.02-2.49-.11-3.72-.01-.18-.39-.49-.58-.47-.25.02-.58.25-.7.49-.23.39-.43.85-.46,1.29-.13,1.39-.21,2.79-.24,4.18-.04,1.71,0,3.42-.02,5.13-.04,3.88-.15,7.77-.12,11.65.02,3.42-.1,6.83.25,10.25.23,2.15.19,4.35.13,6.52-.02,1.1-.05,2.13.33,3.19.26.71.3,1.52.31,2.29.08,4.81.19,9.63.16,14.44,0,1.24-.02,2.47.09,3.71.1,1.23.14,2.48.1,3.72-.09,3.1-.35,6.19.03,9.3.14,1.06-.05,2.17-.16,3.24-.03.26-.33.49-.55.81-.18-.47-.45-.89-.47-1.31-.07-1.71-.09-3.42-.09-5.13-.01-3.1.1-6.2-.5-9.29-.23-1.21-.12-2.48-.14-3.72-.06-3.73-.19-7.43-.73-11.15-1.14-7.85-1.36-15.78-1.12-23.71.04-1.55.31-3.09.42-4.63.06-.77.02-1.54.01-2.31-.01-.33-.57-.88-.94-.94-.36-.06-.96.33-1.05.7-.07.29-.24.59-.24.88-.05,2.64-.37,5.26-.25,7.91.12,2.79,0,5.59,0,8.38,0,2.18.16,4.34.49,6.5.29,1.84.14,3.75.51,5.56.94,4.45.79,8.96.94,13.45.03.93-.02,1.88.15,2.79.83,4.78.5,9.6.51,14.4,0,.14-.11.29-.22.57-.36-.24-.88-.39-.99-.69-.25-.72-.4-1.51-.41-2.27-.09-3.1,0-6.21-.63-9.28-.19-.9-.08-1.86-.11-2.79-.07-3.11-.27-6.2-.64-9.3-.36-2.92-.42-5.89-.52-8.84-.09-3.12-.6-6.18-1.02-9.26-.03-.23-.35-.44-.57-.61-.29-.21-.94.3-.98.74-.02.31-.09.62-.09.92,0,.63-.03,1.26.06,1.86.65,4.32.59,8.68.84,13.02.11,1.86.18,3.71.46,5.56.31,2.14.31,4.33.4,6.51.06,2.02-.04,4.04.48,6.02.11.45.18.93.13,1.39-.17,1.55.03,3.08.15,4.61.12,1.55.19,3.1.22,4.65,0,.44-.17.89-.26,1.32-.77.03-1.19-.41-1.49-.93-1.49-2.53-2.97-5.06-4.46-7.59-.05-.08-.21-.09-.35-.12-.03.56.06,1.16-.56,1.51-.81-.23-1.26-.88-1.68-1.52-.84-1.3-1.63-2.64-2.45-3.96-.83-1.36-1.9-2.43-3.52-2.85-.6-.15-1.18-.43-1.69-.76-2.54-1.61-5.41-2.31-8.28-2.92-3.03-.65-6.01-1.56-9.13-1.74-.45-.03-.92-.17-1.37-.28-2.25-.57-4.52-1.06-6.75-1.75-2.51-.78-5.09-1.42-7.38-2.8-.4-.24-.81-.49-1.24-.63-2.67-.83-5.27-1.83-7.81-3.01-.87-.41-1.68.08-2.08,1.17-.1.29-.15.61-.27.89-.23.51-1.07.89-1.55.74-2.12-.64-4-1.68-5.6-3.22-1.67-1.61-3.35-3.22-4.9-4.72-3.82-1.46-5.13-2.25-9.75-6.55-.3-.65-.63-1.34-1.03-2.21-1.82-1.2-3.45-2.84-4.99-4.59-.24-.27-.9-.3-1.29,0-.2.16-.39.49-.4.75,0,1.02.95,1.56,1.33,2.38.37.77.34,1.48-.23,2.16-.29,0-.66.12-.88-.02-1.46-.91-2.65-2.11-3.5-3.63-.06-.11-.02-.27-.03-.41.42-.41,1.08-.6,1.16-1.33.03-.36-.07-.64-.38-.74-.29-.1-.6-.19-.9-.18-.6.02-1.21.1-1.76.16-1.83-1.23-2.91-2.93-3.91-4.69-.76-1.35-1.41-2.76-2.07-4.17-2.9-6.18-5.87-12.33-9.09-18.35-1.77-3.3-3.19-6.72-4.35-10.28-.81-2.51-1.83-4.95-2.82-7.39-.22-.54-.7-1.01-1.14-1.43-.16-.16-.62-.17-.84-.04-.21.12-.42.52-.39.76.14.75.38,1.48.62,2.35-.23.47-.48,1.03-.76,1.57-.38.73-.45,1.49-.19,2.25.53,1.46.83,2.96,1.11,4.49.55,2.9,1.57,5.69,3.03,8.27,1.77,3.12,3.01,6.46,4.56,9.69.19.41.22.88.33,1.28-.47.63-1.05.71-1.68.57-1.96-.43-3.91-.86-6-1.32-.22-.27-.66-.58-.78-.98-.76-2.69-1.94-5.23-2.58-7.96-.39-1.68-.72-3.34-.7-5.05,0-1.87-.09-3.72-.56-5.54-.19-.74-.2-1.54-.27-2.31-.34-3.71-.66-7.41-1-11.12-.11-1.08-.19-2.17-.4-3.23-.62-3.08-.6-6.18-.49-9.29.03-1.08.17-2.17.4-3.23.61-2.74,1.14-5.47,1.35-8.27.06-.94.33-1.83.98-2.57.36-.41.79-.35,1.27-.15.74.97,1.26,2.08,1.47,3.33.03.27-.03.57-.05.86.13.07.17.16.22.24.07.05.15.11.21.16-.28-.22-.36-.28-.44-.34-.41.04-.86.09-1.22.29-.21.12-.34.51-.36.79-.02.29.05.64.22.87,1.44,2.04,2.46,4.3,3.47,6.56.05.11.26.16.4.25,1.18-.95.2-2.35.74-3.53.29.37.61.67.82,1.03,1.08,1.89,2.27,3.72,3.17,5.7,2.24,4.97,5.04,9.62,8,14.18,2.7,4.17,5.62,8.2,8.61,12.17.46.62.99,1.21,1.36,1.89,1.14,2.05,2.54,3.9,4.06,5.67.39.45.63.97.6,1.58.68.11,1.16.29,1.53.71.54.62,1.05,1.26,1.24,2.08.15.09.17.17.19.25.09.09.17.17.26.26-.08-.04-.2-.06-.23-.13-.77-.37-1.26-.53-1.63-.95-.56-.62-1.11-1.23-1.24-2.09-1.05-.28-1.76-.84-2.39-1.48-1.4-1.45-2.71-2.97-4.12-4.41-1.42-1.45-2.75-2.94-3.63-4.79-.75-1.56-1.86-2.85-3.3-3.83-.21-.14-.6-.07-.87,0-.36.09-.61.86-.44,1.19.15.27.25.57.42.83,3.03,4.52,6.42,8.74,10.3,12.57,4.76,4.68,9.23,9.64,14.23,14.07,1.74,1.54,3.3,3.28,4.95,4.92,1.89,1.87,4.04,3.37,6.5,4.42,2.42,1.03,4.69,2.39,7.25,3.13.63.18,1.36.52,1.67,1.26.48.14.7.14.91.21.18.05.33.22.48.34-.11.06-.23.15-.35.16-.13.01-.3,0-.39-.08-.16-.15-.28-.33-.41-.5-1.31-.06-2.27-.38-3.23-.79-.4-.16-.9-.16-1.35-.11-.25.03-.59.29-.68.52-.09.23-.04.66.12.85.29.35.67.66,1.07.85,3.65,1.78,5.84,2.41,10.8,3.13.68-.47,1.42-1,2.35-1.64.61.05,1.41-.02,2.12.21,1.32.43,2.69.82,3.83,1.73.34.65.67,1.33,1.07,2.1,1.57.46,3.19.99,4.83,1.4.36.09.81-.22,1.31-.36-.16-.7-.3-1.29-.43-1.9.11-.06.24-.2.37-.2,2.63.06,5.23.45,7.78,1.14.11.04.16.49.16.75.01.09-.22.26-.35.26-.46.03-.93.03-1.38-.02-.46-.05-.9-.19-1.36-.29-.35-.07-.67.03-.78.36-.08.25.03.57.06.87,2.44,1.31,4.98,1.6,7.58.59,1.85.55,3.58,1.16,5.53.88,1.67-.24,3.41,0,5.13-.07,1.22-.05,2.44-.3,3.66-.39.24-.02.63.26.72.5.21.57.38,1.19.39,1.79.05,2.84.76,5.52,1.79,8.14,1.64,4.19,3.26,8.39,4.91,12.58.28.72.64,1.4,1.32,2.13.09-.56.29-1,.19-1.35-.61-1.92-1.35-3.8-1.96-5.72-.93-2.96-2.09-5.83-2.82-8.86-.65-2.71-1.45-5.4-1.38-8.23.02-.95-.18-1.85-.58-2.71-.13-.26-.23-.64-.13-.88.72-1.81.35-3.68.4-5.48.4-.73.78-1.41,1.26-2.29,0-1.8-.02-3.82,0-5.83.05-4.35.39-8.69.63-13.03.17-2.8.21-5.59.3-8.38.01-.32.04-.63.01-.93-.22-1.88.73-3.64.44-5.55-.27-1.84-.35-3.71-.44-5.57-.11-2.01-.21-4.02.44-6.01.29-.86.24-1.84.25-2.77.04-2.95.07-5.9.04-8.86-.03-3.58-.04-7.15.63-10.68.28-1.53.28-3.09.04-4.64-.52-3.24-.58-6.46.03-9.72.34-1.81.26-3.72.29-5.58.04-3.26.04-6.52.57-9.76.2-1.22.19-2.48.2-3.72.01-2.64-.03-5.29-.05-7.93-.86-2.45.3-4.92-.05-7.38-.1-.77-.11-1.55-.19-2.32-.41-4.5-.39-8.97.09-13.49.45-4.32.43-8.69-.01-13.03-.07-.77-.21-1.51-.04-2.29.41-1.85.21-3.72-.01-5.57-.27-2.17-.3-4.33-.3-6.51-.01-4.51-.06-9.01-.09-13.52-.01-1.56-.09-3.12-.55-4.62-.65-2.15-.5-4.32-.24-6.48.2-1.68.56-3.35.86-5.14.43.14.81.31,1.21.38.42.08,1.04-.42,1.01-.75-.11-.93-.25-1.85-.34-2.77-.29-3.41-.5-6.82-.03-10.24.13-.94.43-1.83,1.27-2.38.19-.12.63-.05.81.1.21.17.35.53.36.82.08,2.95.14,5.9.18,8.85,0,.46-.11.93-.23,1.38-.8,2.91-.65,5.84-.29,8.78.2,1.54.36,3.09.55,4.68-.23,1.65-1.24,3.15-1.15,4.92.07,1.4.03,2.8.16,4.18.05.59.4,1.15.64,1.71.15.33.97.51,1.23.27.21-.2.5-.48.49-.71-.06-1.24-.26-2.46-.33-3.7-.14-2.8-.11-2.8,1.38-5.76-.47-2.55-.93-5.13-1.15-7.73-.22-2.46-.19-4.96-.25-7.44-.01-.31.02-.62.07-.93.31-1.83.64-3.66.97-5.48.39-.54.92-.81,1.56-.91.92-.13,1.6.34,1.65,1.15.11,1.7.15,3.4-.63,4.77.53,1.1,1,1.92.37,2.88-.28.41-.22.88.03,1.31.74,1.26.25,2.39-.37,3.52.2,1.34,1.05,2.64.27,4.05.04,1.07.72,2.12.3,3.2-.43,1.13.04,2.12.2,3.17.12.76.02,1.56.15,2.32.21,1.28-.82,2.4-.51,3.62.36,1.38.48,2.74.42,4.15-.06,1.24-.08,2.49-.08,3.73.01.77.05,1.56.17,2.32.13.82.61,1.4,1.51,1.66.37-.12.82-.23,1.24-.43.87-.42,1.47.01,2.01.61.26.29.26.66,0,.75-.58.2-1.19.29-1.78.44-1.32.33-1.96,1.03-2,2.2-.07,2.02-.13,4.04.5,6,.08.28-.02.61-.05,1.03-.76.61-1.58,1.28-2.32,1.87.03,1.65,1.12,1.34,2,1.37.11.09.24.15.31.26.48.9.06,2.37-.79,2.79-.41.2-.84.39-1.22.63-.31.19-.27,1.11.05,1.21,1.25.4,2.14,1.15,2.67,2.37.18.43.96.41,1.17.02.29-.54.55-1.1.8-1.62.59-.07.92.22,1.05.68.19.64.08,1.33-.5,1.66-.65.37-1.45.47-2.15.77-.23.1-.4.43-.5.69-.15.35.23.94.67,1.06.45.11.92.14,1.37.27.27.07.5.25.77.39-1.05.42-2.16.27-3.23.32-.78.04-1.55-.02-2.33-.02-.53,0-.86.27-1,.75-.11.38.24,1.01.62,1.1,1.81.42,3.6.96,5.48.53.14-.03.31.06.45.07.42.03.43.12.12,1.13-.73.35-1.52.27-2.28.26-2.96,0-3.03.91-2.75,3.49.04.31.11.61.16.91.14.75.84,1.28,1.7,1.24.77-.03,1.53-.37,2.3-.04.27.12.61.26.76.48.13.2.15.61.01.81-.27.43-.8.42-1.25.43-1.8.02-2.6.85-2.6,2.56s-.04,3.39.35,5.09c.34,1.49.27,3.08.32,4.63.05,1.86,0,3.73.05,5.59,0,.44.21.88.36,1.32.12.34.4.47.75.31.25-.11.6-.28.65-.49.16-.59.24-1.21.25-1.82.04-2.64.02-5.28.07-7.93,0-.61.17-1.21.29-1.81.02-.11.19-.21.32-.25.36-.12.63,0,.74.36.09.29.21.59.22.89.04,2.49.18,4.98.05,7.46-.27,5.44.18,10.87.31,16.3.07,3.09.47,6.18,1.23,9.2.55,2.13.4,4.32.41,6.68-.28.54-.63,1.23-1.01,1.9-.61,1.11-.91,2.28-.87,3.57.21,5.13.13,10.25,0,15.38-.09,3.11.03,6.22.06,9.32.06,5.28.15,10.56.18,15.85.01.93.01,1.83.35,2.74.2.54.2,1.26.04,1.82-.28.95-.2,1.81.02,2.74.22.9.29,1.86-.09,2.75-.32.77-.28,1.45.03,2.22.24.55.26,1.2.29,1.81.02.47-.2.92-.63,1.16-.8.43-1.63.81-2.69,1.33.64.26,1.02.47,1.41.56.45.1.94.03,1.37.17.24.08.42.42.56.68.19.37-.04,1.04-.36,1.24-.26.16-.52.35-.8.44-.58.18-1.18.29-1.86.45.62.55,1.26.34,1.83.48.44.11.89.27,1.27.5.82.51.8,1.85,0,2.29-.41.22-.87.34-1.22.62-.17.13-.1.53-.16.87.42.14.86.27,1.29.41.75.26,1.05.65,1.04,1.31-.02.66-.44,1.35-.92,1.48-1.39.37-2.75.4-4.01-.43-.14-.09-.23-.21-.38-.34-.39-1.82-.31-3.69-.36-5.55ZM141.24,207.06c-.17.67-.67.94-1.28,1.08-.53.12-1.06-.3-1.28-.99-.09-.29.04-.54.37-.69.58-.26,1.19-.26,1.76-.04.2.08.29.42.44.64ZM139.13,334.55c1.19-.55,2.39-.59,3.61-.12.41.16.85,1,.84,1.55,0,.57-.5,1.3-1.01,1.42-.59.15-1.2.24-1.72.34-.56-.11-1.01-.17-1.46-.28-.53-.13-1.03-.78-1.09-1.36-.05-.5.4-1.34.84-1.55ZM138.53,340.19c.2-.66.64-1.09,1.29-1.16,1.22-.15,2.46-.28,3.8.28.46.63,1.01,1.36,1.52,2.06.52.22.98.14,1.24-.27.34-.51.56-1.09.88-1.73.46.05.94-.02,1.31.14,1.29.57,2.2,1.62,2.98,2.78.06.1.03.32-.03.44-.06.12-.24.3-.35.28-3.84-.57-7.68-.51-11.55-.01-1.13-.63-.97-1.78-1.1-2.8ZM139.74,345.49c.69-.32,1.41-.65,2.16-.81.75-.16,1.54-.1,2.32-.13,2.37-.01,4.62.47,6.78,1.42.23.1.38.45.48.72.09.27-.11.52-.48.61-.29.07-.61.11-.92.11-.78.01-1.55-.01-2.33,0-2.17,0-4.35-.02-6.45.66-.29.09-.62.06-.93.09-.55.05-1.23-.5-1.31-1.08-.09-.77.11-1.33.68-1.58ZM142.52,353.7c-.44.07-.9.09-1.2.12-.47-.05-.78-.06-1.07-.13-.39-.1-.54-.32-.4-.53.07-.12.21-.23.35-.28.75-.26,1.51-.27,2.26-.03.18.06.3.36.4.58,0,.04-.2.26-.34.28ZM143.02,356.35c.09.34,0,.63-.3.75-.4.16-.83.25-1.12.33-.44-.06-.74-.09-1.03-.15-.34-.07-.74-.84-.56-1.08.17-.21.41-.45.65-.51.74-.19,1.47-.15,2.13.32.1.08.19.21.23.33ZM141.71,373.11c-.66-.14-1.02-.57-1.25-1.32.44-.05.86-.16,1.25-.1.23.04.44.34.62.56.07.1.08.31.04.45-.1.34-.34.48-.66.42ZM142.6,361.11c-.71.38-1.46.37-2.21.02-.33-.16-.59-.74-.52-1.19.07-.49.35-.87.8-1.02.83-.26,1.92.24,2.37,1.04.06.12.04.29.05.43-.16.25-.26.59-.49.71ZM144.69,377.84c-.15-.06-.29-.09-.4-.17-.07-.06-.13-.24-.09-.31.32-.69.84-1.18,1.55-1.47.07-.02.24.09.31.18.06.11.11.28.08.4-.21.76-.66,1.26-1.45,1.38ZM145.85,369c-.14-.26-.39-.53-.37-.79.01-.25.29-.49.46-.74.11.11.24.21.32.34.06.14.05.3.09.45-.16.25-.33.49-.5.73ZM146.64,364.59l.18-.23.12.26-.3-.03ZM146.52,361.69c-.19.07-.58-.07-.71-.25-.39-.51-.3-1.04.17-1.49.64.09,1.04.44.99,1.11-.01.23-.24.56-.45.63ZM145.94,353.32c.14-.3.41-.41.72-.29.11.05.18.22.26.33-.16.31-.41.41-.72.25-.13-.06-.3-.25-.27-.29ZM148.56,371.01c-.11-.27-.24-.54-.32-.82-.03-.14,0-.31.04-.45.56-1.76,1.22-3.49,2.25-5.03.19-.27.55-.21.81.05-.18,2.13-.75,4.15-2.04,5.93-.15.19-.5.23-.75.33ZM152.68,373.15c-.64.91-1.65,1.29-2.66,1.62-.11.03-.25-.06-.38-.1-.02-.28-.17-.64-.05-.82.81-1.15,1.92-1.91,3.32-2.17.09-.02.33.23.31.29-.15.41-.28.83-.54,1.17ZM155.35,366.75c-.44.81-1.2,1.34-2.08,1.66-.14.05-.33.05-.46,0-.32-.16-.42-.42-.32-.74.36-1.32.74-2.65,1.61-3.74.26-.32.74-.59,1.15-.65.37-.05.78.24,1.14.36.02,1.24-.52,2.18-1.03,3.1ZM157.67,370.38c-.14.02-.29-.03-.41-.11-.27-.18-.22-.42.09-.7.48-.42.99-.74,1.63-.79.36-.02.56.14.62.45-.51.61-1.14,1.03-1.94,1.14ZM162.06,362.81c-.33.66-.65,1.34-1.11,1.92-.24.31-.74.42-1.13.62-.16-.31-.39-.56-.4-.82-.04-.93.32-1.74.9-2.47.42-.53,1.08-.75,1.53-.47.32.19.44.77.21,1.21ZM168.46,361.62c-.68.68-1.48,1.12-2.44,1.15-.25,0-.53-.23-.75-.41-.07-.06-.05-.31-.01-.45.45-1.35,1.14-2.53,2.51-3.15.58-.27,1.18-.29,1.64.31-.01.96-.52,1.74-.95,2.55ZM176.67,362.6c-.04.13-.19.25-.33.31-.68.33-1.37.71-2.08.94-.7.22-1.37.66-2.15.5-.24-.22-.31-.53-.04-.78,1.14-1.08,2.51-1.72,4-2.12.35-.09.67,0,.76.33.07.24-.06.56-.16.81ZM177.58,357.5c-1.28,1.33-2.86,2.19-4.67,2.6-.13.03-.3-.03-.42-.09-.13-.07-.22-.19-.4-.35.18-.54.33-1.13.57-1.68.45-1.01,1.18-1.77,2.22-2.16.84-.32,1.7-.58,2.64-.89.22.53.52.93.52,1.32,0,.42-.17.95-.45,1.25ZM180.85,361.04c-.14.02-.29,0-.44-.02-.09-.1-.25-.19-.29-.31-.32-1.06.59-2.15,1.66-2.02.45.06.79.56.64.96-.29.72-.76,1.26-1.57,1.39ZM183.4,354.05c-.14.62-.44,1.14-1.03,1.4-.25.11-.6.13-.85.03-.32-.12-.36-.45-.27-.78.17-.61.53-1.09,1.06-1.39.22-.12.58-.13.82-.04.33.12.39.45.27.78ZM191.54,355.21c-.14.25-.42.46-.7.6-1.49.81-3.01,1.61-4.54,2.37-.23.12-.58.01-.87.01-.11-.1-.27-.2-.29-.32-.02-.13.04-.32.13-.44.31-.35.59-.73.96-1,1.38-1.01,2.94-1.73,4.54-2.3.21-.08.64.08.79.27.13.17.09.59-.02.81ZM197.06,351.74c-.17.14-.27.12-.26.25-.23.17-.3.28-.32.28-.21-.07-.11-.15.15-.22.34-.36.34-.55.49-.54-.02.08,0,.2-.06.24ZM204.22,348.14c-.29.32-.43.55-.63.69-.29.21-.6.13-.78-.13-.03-.05.02-.22.09-.27.11-.09.27-.16.41-.17.25-.02.52-.01.78,0,.06-.38.15-.59.45-.66.09-.02.32.2.29.24-.1.27-.35.34-.62.3ZM211.72,343.46c-.36,1.05-1.03,1.51-1.86,1.74-.18.06-.45-.2-.68-.33.54-.93,1.29-1.43,2.39-1.28.2-.27.26-.41.27-.41.27.06.2.16-.11.27ZM216.88,340.4l-.22-.15.25-.05-.03.2ZM218.47,343.35c-.14.12-.18.2-.23.27-.36.18-.51.37-.68.51-.1.07-.33.08-.41.02-.29-.25-.2-.43.24-.48.22-.02.43-.02.65-.03.18-.14.27-.18.35-.23.05-.09.12-.17.17-.26-.02.07-.03.18-.09.22ZM260.96,299.24c-.11,2.01.01,4.04-.57,6.02-.21.72-.07,1.54-.13,2.31-.15,2.32-.15,4.66-.72,6.94-.23.9-.26,1.85-.26,2.78,0,4.79-1.79,9.08-3.68,13.35-.33.74-.96,1.27-1.77,1.38-1.41.18-2.66.77-3.95,1.33-1.26.56-2.59,1.04-3.93,1.39-2.7.71-5.42,1.33-8.14,1.94-.23.05-.66-.14-.77-.34-.11-.22-.07-.65.06-.88.33-.52.73-1.01,1.15-1.46,2.01-2.16,4-4.34,6.06-6.44,1.29-1.33,2.7-2.56,4.25-4.01.4-1.06.9-2.35,1.31-3.44-.04-1.07-.44-1.71-1.06-2.22-.76-.61-2-.61-2.56.07-1.18,1.44-2.3,2.92-3.44,4.4-3.32,4.33-7.08,8.24-11.36,11.63-.49.38-1.04.67-1.52.99-.33-.25-.62-.4-.8-.64-.77-1.03-1.66-1.31-2.81-.61-.24.15-.57.2-.86.23-.11.01-.25-.16-.33-.23,1.45-1.36,2.89-2.76,4.39-4.09.8-.72,1.71-1.32,2.57-1.99,1.22-.95,2.48-1.86,3.63-2.89.41-.38.57-1.07.73-1.65.05-.21-.16-.6-.37-.76-.21-.17-.57-.24-.84-.19-.28.05-.61.22-.8.44-.99,1.22-2.25,2.1-3.49,3.05-1.85,1.41-3.59,2.96-5.39,4.45-3.84,3.16-7.67,6.33-11.89,8.98-1.18.74-2.4,1.42-3.63,2.15-.65-.15-1.24-.38-1.83-.39-.42,0-.9.21-1.24.48-.35.28-.64.71-.79,1.13-.61,1.74-1.85,2.82-3.45,3.48-.37,0-.7.07-.98-.01-.82-.22-1.53-.07-2.16.49-.23.21-.46.41-.66.65-.9,1.06-2.05,1.32-3.37,1.13-.29-.04-.61.09-1.09.18-1.78,2.05-4.26,3.26-6.89,4.22-.1.03-.28-.07-.39-.17-.09-.09-.17-.25-.16-.37.04-.66.39-1.21.9-1.57.75-.53,1.58-.97,2.39-1.42.68-.38,1.44-.63,2.05-1.08.33-.24.6-.77.6-1.18,0-.36-.41-.72-.58-1-.32-.03-.5-.11-.62-.05-1.4.68-2.81,1.32-4.17,2.07-1.9,1.05-3.79,2.14-5.92,2.72-.3.08-.61.18-.85.36-1.79,1.34-3.95,1.77-6.04,2.49-.85-.18-1.75-.36-2.53-.52-1.26.68-1.54,2.1-2.71,2.71-1.13.57-2.3.94-3.5,1.24-.44.11-.87.33-1.26.56-2.59,1.53-5.55,1.82-8.23,2.73-1-.79-.38-1.87-.81-2.69-.19-.36-.79-.73-1.13-.56-.13.07-.3.11-.4.21-.84.99-1.82,1.67-3.12,1.21-.58.62-.99,1.07-1.41,1.53-1.15-1.33.32-2.27.51-3.51-.11-.35-.24-.79-.35-1.23-.29-1.21-.2-1.38,1.13-2.13.13-.07.34-.07.42-.17.18-.22.35-.47.4-.73.07-.34-.45-.95-.82-1-.76-.11-1.54-.19-2.3-.31-1.22-.18-2.44-.37-4.01-.61-1.22.66-2.86,1.05-4.6.7-.23-.05-.57-.34-.56-.52,0-.26.25-.52.44-.75.08-.11.25-.18.4-.2,3.1-.29,6.2-.22,9.29.02.16.01.31.03.46.08.74.25,1.45.54,2.2.74.73.19,1.56-.24,2.22.32.28.83-.15,1.49-.44,2.19-.25.61-.22,1.22.21,1.75.62.78,1.43,1.21,2.43,1.03.61-.11,1.19-.37,1.78-.56,2.06-.67,4.13-1.34,6.19-2.01.6-.19,1.21-.33,1.77-.58,3.84-1.69,7.87-2.87,11.74-4.47,3.73-1.53,7.32-3.4,10.99-5.08,2.53-1.16,4.83-2.83,7.68-3.27.42-.07.83-.39,1.22-.65.64-.43,1.23-.95,1.88-1.36,2.09-1.34,2.12-1.34,5.19-1.56.12-.11.27-.19.34-.32.86-1.93,2.32-3.22,4.23-4.08,2.54-1.15,5.1-2.25,7.58-3.54,2.89-1.51,5.62-3.28,7.56-5.55.62-1.09,0-1.77-.09-2.51-.15-1.18.17-2.15,1.13-2.87.87-.65,1.72-1.36,2.63-1.93,1.21-.76,2.25-1.62,2.97-2.89.38-.66.98-1.19,1.5-1.76,3.03-3.33,6.07-6.64,9.09-9.98.5-.57.93-1.25,1.31-1.92.67-1.22,1.46-2.37,2.37-3.45.58-.71,1.02-1.55,1.46-2.36.45-.81.78-1.7,1.27-2.49,1.9-3.06,3.28-6.33,4.21-9.81.35-1.34.86-2.68,1.54-3.88,1.03-1.8,1.55-3.71,1.84-5.82-.14-.5-.36-1.09-.46-1.69-.16-.81.13-1.53.66-2.14.09-.11.28-.27.38-.23.23.08.5.2.65.39.19.24.32.54.4.84,1.34,4.63,2.4,9.33,3,14.09.41,3.22.29,6.52.34,9.78.04,2.48.04,4.97-.11,7.45Z"/>
      <path class="cls-1" d="M134.39,247.53c-.02-.43-.27-.86-.47-1.44-.39.42-.78.7-.96,1.07-.64,1.29-.6,2.71-.62,4.11-.05,3.1-.07,6.21-.21,9.31-.14,3.25.39,6.51-.2,9.75-.05.3.06.61.06.93.1,5.43.24,10.85.29,16.28.04,5.27-.02,10.54,0,15.81,0,.18.4.54.54.51.25-.05.54-.31.64-.56.57-1.31.64-2.72.67-4.11.11-4.19.24-8.38.21-12.56-.05-11.33-.13-22.65.14-33.98.04-1.7-.02-3.41-.09-5.12Z"/>
      <path class="cls-1" d="M113.26,358.22c-2.21-1.11-4.42-2.23-6.69-3.18-1.7-.71-3.5-1.15-5.35-1.5-3.49-.67-7.03-.99-10.55-1.53-1.7-.26-3.31-.63-4.9-1.3-1.41-.6-2.86-1.15-4.33-1.62-.36-.11-.83.2-1.26.32.12.38.2.66.29.96,1.67.76,3.34,1.58,5.04,2.27,1.43.58,2.85,1.19,4.43,1.34,3.69.34,7.36.93,11,1.64,4.45.86,8.66,2.28,12.21,5.27.23.19.54.29.81.43.28-.08.58-.13.85-.24.11-.05.18-.23.26-.35-.11-1.19-.8-2.01-1.82-2.52Z"/>
      <path class="cls-1" d="M36.66,324.55c-.83-1.49-1.56-2.99-2.07-4.62-.45-1.46-1.14-2.88-2.28-3.96-.3-.29-.82-.51-1.22-.49-.37.02-.72.42-1.01.61,0,.29-.04.47.01.6,1.82,4.43,4.4,8.45,6.75,12.61.15.25.45.42.7.57.11.06.34.05.42-.02.22-.18.5-.4.56-.65.07-.27,0-.61-.12-.88-.56-1.27-1.06-2.57-1.74-3.77Z"/>
      <path class="cls-1" d="M139.46,246.43c.09-.09.17-.27.17-.4,0-2.93,0-5.85-.06-8.77,0-.65-.48-1.1-1.1-1.34-.63.21-1.13.65-1.14,1.3-.05,2.77-.06,5.54-.02,8.31.01.41.35.86.63,1.19.15.18.55.27.8.22.27-.05.5-.3.73-.51Z"/>
      <path class="cls-1" d="M116.88,347.68c-1.35-.81-2.79-1.34-4.38-1.38-1.09-.03-2.17-.08-3.25-.12-1.4-.05-2.79.03-4.17.18-.2.02-.48.38-.52.61-.04.25.09.61.28.8.19.21.52.38.79.4,1.86.11,3.73.13,5.58.28,1.85.15,3.68.45,5.54.63.15.01.37-.38.5-.62.05-.11-.01-.31-.07-.45-.06-.13-.17-.27-.29-.34Z"/>
      <path class="cls-1" d="M66.23,347.16c-2.27-2.06-4.77-3.84-7.38-5.45-.57-.35-1.15-.13-1.55.43.06.67.46,1.13.97,1.5,2.49,1.78,4.99,3.56,7.51,5.3.15.11.62-.04.78-.21.17-.17.21-.55.15-.8-.06-.28-.26-.56-.48-.77Z"/>
      <path class="cls-1" d="M118.88,353.95c-.14-.74-.4-1.46-.64-2.17-.03-.11-.24-.18-.37-.26-.15.24-.4.47-.43.72-.32,2.34-.01,4.62.98,6.76.83,1.8,1.84,3.52,2.79,5.27.05.11.23.16.35.23.08-.13.25-.29.23-.39-.33-1.18-.56-2.4-1.04-3.52-.92-2.14-1.44-4.37-1.86-6.64Z"/>
      <path class="cls-1" d="M112.06,354.02c.28.11.58.27.87.27.23,0,.61-.17.67-.35.08-.24-.06-.57-.16-.84-.04-.13-.18-.25-.29-.34-2.33-1.61-4.97-2.32-7.75-2.51-.81-.06-1.43.44-1.59,1.33.23.17.46.48.72.5,2.61.25,5.07,1.07,7.53,1.95Z"/>
      <path class="cls-1" d="M16.97,277.15c-.31-.52-1.19-.38-1.54.18-.25.42-.38.89-.15,1.29,1.17,1.97,2.49,3.84,4.09,5.49.11.1.26.15.41.18.13.03.29.03.38-.02.13-.07.2-.23.28-.33,0-.32.11-.68-.01-.91-1.14-1.98-2.29-3.94-3.47-5.89Z"/>
      <path class="cls-1" d="M124.74,346.8c-.24.09-.58.33-.6.54-.32,2.53.23,4.93,1.21,7.24.15.36.67.56,1.04.84.15-.36.41-.66.37-.91-.4-2.44-.85-4.87-1.29-7.29-.07-.37-.38-.56-.73-.41Z"/>
      <path class="cls-1" d="M23.65,303.77c-.61,1.14-.62,1.21-.41,1.64.48.98,1.09,1.83,2.35,2.18.11-.41.36-.86.26-1.19-.36-1.16-.72-2.38-2.2-2.62Z"/>
      <path class="cls-1" d="M123.41,370.51c-.06.08-.04.3.03.4.13.18.29.34.46.5,0-.22-.02-.44-.05-.65-.04-.45-.22-.54-.44-.24Z"/>
      <path class="cls-1" d="M248.34,307.6c-.58.91-1.22,1.94-1.9,2.96-.68,1.02-1.4,2.02-2.1,3.03-.09.12-.18.29-.16.43.05.28.13.58.27.83.16.27.49.31.79.09,2.07-1.45,3.29-3.62,4.63-5.68.18-.29,0-.91-.16-1.31-.2-.47-.71-.49-1.37-.36Z"/>
      <path class="cls-1" d="M255.56,307.59c-.27.09-.69.11-.8.29-.75,1.32-1.43,2.67-2.13,4.02-.06.12-.07.31-.03.44.07.28.14.63.34.79.15.12.63.07.75-.07.91-1.21,1.78-2.45,2.65-3.69.09-.12.06-.3.1-.44.18-.5-.34-1.28-.88-1.33Z"/>
      <path class="cls-1" d="M254.85,302.15c.79-.72,1.17-2.23.96-3.38-.06-.31-.64-.81-1-.86-.36-.04-1.01.39-1.08.71-.25,1.22-.39,2.43.24,3.55.32,0,.72.12.87-.02Z"/>
      <path class="cls-1" d="M113.69,39.54c.31.51.61,1.15.58,1.71-.07,1.13-.03,2.12.88,2.96.28.27.36.83.39,1.26.06.99.44,1.82,1.08,2.51,1.28,1.37,2.71,2.55,4.41,3.38.56.28,1.19.32,1.79.03.55-.27,1.09-.54,1.6-.77.38.11.68.16.97.28,2.84,1.19,5.78.87,8.7.48.75-.1,1.47-.48,2.16-.83.82-.42,1.56-1.02,2.39-1.42.82-.4,1.86-.23,3.3-1.72,1.43-1.87,3.51-4.56,5.58-7.27.17-.24.21-.57.35-.94-.39-.56-.81-1.16-1.28-1.85-.04-.89.42-1.74.57-2.64.16-.91.25-1.84.29-2.76.07-1.41-.08-2.78-.76-4.07-.36-.69-.59-1.44-.97-2.11-.6-1.07-1.28-2.1-1.92-3.12.13-.79.24-1.53.38-2.4-.65-.97-1.18-2.16-2.05-2.98-1.57-1.49-3.32-2.76-5.01-4.12-.32-.25-.95.11-1.05.56-.11.49,0,.92.25,1.31.78,1.22,2.19,1.72,3.12,2.74.24.27.25.76.34,1.17.28.27.39.34.51.4-.09-.01-.2,0-.24-.05-1.54-.34-2.58-.91-3.57-1.71-.34-.66-.67-1.35-1.06-2.02-.47-.83-1.22-1.42-2.05-1.84-1.4-.7-2.93-.99-4.5-.8-1.22.15-2.46.28-3.67.54-2.88.62-5.62,1.51-8.11,3.26-2.34,1.64-4.28,3.55-5.86,5.7-1.18,2.59-1.26,5.22-1.27,7.86-.01,2.57.8,4.87,2.15,7.01.49.79,1.16,1.47,1.63,2.27ZM121.11,17.28c.4.08.44.26.11.43-.09.05-.26.02-.38-.03-.05-.03-.05-.18-.09-.28.13-.04.25-.14.36-.12ZM122.2,30.49c.06-1.29.78-2.32,1.61-3.26,1.52-1.68,3.34-2.71,5.66-2.72.15,0,.28-.1.55-.19.25-.23.61-.53.93-.86,1.17-1.23,2.56-1.65,4.22-1.24.75.18,1.51.32,2.26.47,1.43.27,2.55,1.02,3.5,2.11,2.42,2.78,3.13,5.97,2.3,9.51-.72,3.05-2.04,5.83-3.82,8.39-.35.5-.8.95-1.27,1.33-.97.77-1.96,1.52-3,2.18-2.35,1.51-4.84,1.92-7.52.88-1.04-.4-1.96-.95-2.67-1.78-1.73-2.02-3.05-4.27-3.66-6.89-.24-1.05-.42-2.12-.72-3.57.7-1.47,1.55-2.76,1.62-4.38ZM118.59,46.26c-.06-.07-.14-.13-.21-.2-.09-.08-.17-.16-.25-.24.11.05.23.1.34.15.04.1.09.19.13.29ZM117.88,19.42c.14.5.43.98.31,1.28-.65,1.56-1.57,2.97-2.83,4.13-.43.39-1.21.39-1.64-.09-.18-.2-.39-.6-.31-.78.92-1.99,2.15-3.69,4.47-4.53ZM113.02,28.25c.05-.1.26-.23.33-.19.25.11.63.25.68.45.21.8-.13,1.45-.73,1.97-.14-.03-.3-.02-.36-.1-.5-.72-.36-1.44.07-2.12Z"/>
    </g>
  </g>
</svg>