<?xml version="1.0" encoding="UTF-8"?>
<svg id="Layer_2" data-name="Layer 2" xmlns="http://www.w3.org/2000/svg" viewBox="0 0 309.32 115.11">
  <defs>
    <style>
      .cls-1 {
        fill: #6d442f;
        fill-rule: evenodd;
      }
    </style>
  </defs>
  <g id="_Layer_" data-name="&amp;lt;Layer&amp;gt;">
    <path class="cls-1" d="M75.44,27.57c.69-1.21.69-2.37.72-3.52,0-.15-.04-.29-.05-.43-.02-.38-.76-.93-1.04-.76-.26.15-.61.36-.64.56-.22,1.88-1.49,2.88-3.63,3.13-1.58.18-2.99.67-4.32,1.37-1.32.69-2.62,1.41-3.95,2.07-1.04.52-2.06,1.17-3.2,1.4-1.89.35-3.53,1.18-5.33,1.66-4.85,1.29-8.98,3.63-12.98,6.19-3.15,2.01-6.06,4.3-9.45,6.06-1.68.86-2.89,2.05-3.9,3.41-.09.12-.16.26-.24.39-.28.39-.17,1.12.2,1.15.31.04.76.09.94-.05,3.93-2.88,8.51-4.96,12.83-7.35,3.74-2.06,7.85-3.65,11.8-5.41,2.59-1.16,5.28-2.17,7.8-3.44,2.67-1.35,5.38-2.54,8.31-3.48,2.21-.72,4.45-1.59,6.12-2.95h0ZM178.19,14.61c1.65.77,3.27,1.08,5.05.55.67-.2,1.36-.1,2.03.1.49.14.97.36,1.47.4,2.93.25,5.84.66,8.62,1.44,2.97.82,6.06,1.12,9.07,1.74,4.19.87,8.37,1.73,12.65,2.29,3.23.43,6.48.88,9.53,2.02.93.34,1.99.44,3,.65,1.16.24,1.89,1.3,3.22,1.23.96-.97.66-1.9-.21-2.73-1.17-1.12-2.69-1.8-4.41-2.15-1.84-.37-3.72-.65-5.52-1.12-2.48-.65-4.99-1.1-7.54-1.49-3.22-.49-6.37-1.24-9.56-1.88-3.39-1.46-7.15-2.13-10.65-3.35-.64-.22-1.27-.54-1.93-.62-2.77-.28-5.34-1.14-8-1.77-2.01-.48-4.08-.51-6.16-.28-.35.04-1.08.54-1.12.8-.2,1.44-.47,2.89.46,4.17h0ZM283.17,49.98c-2.35-1.12-4.26-2.77-6.05-4.54-.66-.66-1.42-1.25-2.21-1.82-2.36-1.69-4.72-3.38-7.15-5-3.1-2.06-6.23-4.11-9.45-6.03-1.67-1-3.58-1.74-5.39-2.55-.27-.13-.67-.07-1-.1-1.34,2.3-1.53,2.82-1.49,4.46.02,1.07.47,2.02,1.66,2.53,3.41,1.44,6.41,3.4,9.44,5.3,3.59,2.25,7.4,4.25,10.72,6.79.76.59,1.59,1.13,2.48,1.58,2.8,1.41,5.63,2.8,8.49,4.13.89.42,1.89.73,2.89.92,1.01.21,2.06.12,2.92-.5.12-.08.14-.26.2-.38.14-.29.02-.56-.4-.65-.49-.09-1.01-.09-1.52-.11-1.53-.06-2.6-.64-3.11-1.89-.28-.68-.64-1.34-1.03-2.15h0ZM242.23,54.46c.16-.24.44-.48.47-.73.56-4.04,1.26-8.05,1.99-12.05.78-4.31,1.44-8.63,1.38-12.99-.03-2.32-.04-4.65-.8-6.91-.47-1.36-1.53-2.09-3.39-2.26-1.16-.1-2.14.41-2.41,1.26-.18.56-.4,1.13-.44,1.7-.09,1.46-.29,2.89-.88,4.28-.22.54-.34,1.13-.34,1.71,0,1.62-.59,3.13-1.18,4.66-.99,2.52-1.27,5.1-1.01,7.73.23,2.31.26,4.63-.26,6.94-.29,1.26-.27,2.54.1,4.08,2.14.62,3.84,2.19,6.26,2.66.15.03.33-.05.51-.07h0ZM302.68,52.18c-.16-.29-.21-.44-.32-.54-1.1-1.11-2.67-1.23-4.21-1.35-.42-.03-1.01.29-1.32.6-1.01,1.01-1.72,2.18-1.93,3.5-.37,2.28-1.15,4.51-.85,6.88.17,1.43-.08,2.9-.24,4.34-.12,1-.63,2-.56,2.99.09,1.14.26,2.29.25,3.46-.01,1.44.06,2.88-.28,4.32-.27,1.13-.32,2.3-.41,3.46-.14,1.59-.4,3.16-.71,4.74-.5,2.56-.59,5.19-.12,7.78,2.1,2.35,4.3,4.6,6.09,7.08.09.12.23.26.38.29.31.05.64.09.96.07.1,0,.24-.21.25-.33.2-2.46.49-4.91.52-7.37.02-1.31-.05-2.6.34-3.88.18-.55.26-1.14.28-1.72.06-1.45-.05-2.9.12-4.35.17-1.42.82-2.79.52-4.26.88-3.6.52-7.2-.01-10.81-.24-1.57-.03-3.18.03-4.77.01-.58.39-1.2.22-1.71-.69-2.08.36-4.01.6-6,.11-.86.28-1.71.41-2.42h0ZM286.19,85.92c-.91.03-1.42-.37-1.87-.8-2.24-2.19-4.79-4.17-6.94-6.42-.97-1.02-2.07-1.91-3.38-2.65-1.28-.74-2.43-1.62-3.55-2.52-1.62-1.31-3.18-2.66-4.7-4.04-1.99-1.82-3.97-3.62-6.59-4.83-.6-.28-1.1-.7-1.62-1.09-2.3-1.75-4.7-3.37-7.54-4.54-1.49-.61-2.24-1.8-2.03-3.25.41-2.87.16-5.78.98-8.63.35-1.25.15-2.61.27-3.9.03-.41.23-.83.38-1.24.12-.3.98-.69,1.28-.59.48.16,1,.26,1.43.48,1.77.9,3.57,1.78,5.25,2.78,5.06,3.01,10.04,6.12,15.1,9.15,3.37,2.02,6.89,3.85,10.62,5.39,1.39.59,2.77,1.18,4.12,1.83.97.45,1.48,1.19,1.5,2.14.02.72.03,1.44-.04,2.17-.3,3.03-.5,6.06-.57,9.11-.05,2.44-.63,4.9-1.23,7.29-.34,1.38-.08,2.88-.85,4.16h0ZM232.24,27.4c.43,1.83.19,3.23-.21,4.65-1.08,3.81-1.7,7.66-1.39,11.59.09,1.14-.09,2.31-.18,3.47-.02.29-.16.55-.24.84-.14.48-1.07.94-1.64.81-.5-.12-1.02-.19-1.49-.36-2.06-.74-4.21-1.25-6.38-1.71-5.84-1.26-11.58-2.8-17.32-4.32-2.47-.65-4.96-1.13-7.52-1.49-2.54-.35-5.04-.92-7.66-.78-.33,0-.7,0-1.03-.07-2.69-.58-5.45-.64-8.2-.77-.86-.03-1.69-.76-1.61-1.42.2-1.44,0-2.9.63-4.3.9-1.96.87-3.96.24-5.96-.27-.86-.42-1.7-.11-2.56.35-1,.27-2,0-3-.26-.92.2-1.69,1-2.58.58-.19,1.37-.46,2.2-.75,1.17.18,2.34.41,3.53.54,1.02.11,2.06.06,3.1.1.68.03,1.4,0,2.05.14,4.32.98,8.85,1.13,13.1,2.42,1.77.53,3.65.8,5.55.98,4.98.44,9.81,1.5,14.52,2.92,1.29.39,2.54.91,3.71,1.51,1.62.85,3.24.81,5.34.14h0ZM158.48,39.18c.53-.92,1.11-1.54,1.23-2.21.55-3.01,1.24-6.01,1.09-9.08-.18-3.62-.09-7.25.18-10.87.04-.57-.03-1.15-.07-1.72-.03-.5-.78-1-1.44-1.06-.88-.07-1.72,0-2.54.27-.81.27-1.62.47-2.51.35-2.09-.3-4.15.08-6.16.45-5.9,1.07-11.85,1.96-17.88,2.34-.51.04-1.05.06-1.53.18-3.3.9-6.76,1.18-10.14,1.78-3.88.69-7.75,1.36-11.71,1.75-3.25.3-6.51.69-9.61,1.68-.97.31-1.94.64-2.47,1.48-.83,3.16-.1,6.35-.22,9.53,0,.27.09.58.22.84.61,1.24.56,2.54.52,3.85-.03,1.02.02,2.03.07,3.04.09,2.03.27,4.05.04,6.08-.21,1.72,0,3.47.38,5.25.43.19.95.64,1.28.55,1.47-.39,2.98-.62,4.41-1.21,2.94-1.22,6-2.21,9.02-3.3.79-.29,1.61-.52,2.38-.84,3.73-1.55,7.65-2.65,11.66-3.56,6-1.33,12.19-1.97,18.15-3.47.33-.08.68-.13,1.02-.14,3.3-.09,6.48-.85,9.73-1.18,1.54-.17,3.04-.49,4.92-.79h0ZM28.5,84.9c-.06-.44-.23-.88-.13-1.25.24-1,.46-1.95.25-3-.55-2.7-.29-5.5-1.34-8.16-.21-.53-.14-1.14-.13-1.71.08-4.64.33-9.28-.09-13.9-.06-.76.33-1.45,1.05-1.91,1.91-1.23,3.63-2.65,5.73-3.72,3.24-1.63,6.38-3.45,9.46-5.31,2.53-1.54,5.3-2.7,8.06-3.9,1.68-.72,3.41-1.38,5.14-2.06,1.4-.55,2.82-1.09,4.23-1.62.63-.23,1.34-.37,1.89-.71,3.09-1.89,6.83-2.76,9.99-4.55.85-.48,1.83-.79,2.79-1.2.47.24.9.45,1.34.67,1.09,2.69.98,5.46.96,8.21-.01,3.61.03,7.23-.62,10.83-.25,1.43-.27,2.88-.29,4.33-.02,1.16.8,1.86,2.08,2.2.16.05.33.06.5.09q1.38-.93,2.6-3.37c0-2.26-.01-4.71,0-7.18,0-.87.02-1.74.18-2.6.38-2.02.29-4.05.16-6.08-.13-1.88-.27-3.76-.41-5.64-.04-.43.02-.9-.16-1.3-1.18-2.67-.55-5.45-.72-8.19-.1-1.61.09-3.14.9-4.66.86-1.59,1.09-3.34,1.07-5.1-.02-.86.07-1.71.2-2.57.04-.24.39-.44.64-.64.12-.08.3-.15.45-.17,1.72-.13,3.44-.28,5.15-.37.83-.05,1.69.76,1.55,1.44-.43,2.01-.62,4.03-.64,6.06,0,.58-.04,1.17-.2,1.73-.82,2.85-.63,5.75-.64,8.66,0,.72,0,1.46.17,2.16.87,3.44.66,6.92.73,10.4.05,2.18-.09,4.37.24,6.51.34,2.21-.18,4.32-.46,6.46-.12.97-.77,1.89-1.11,2.66-1.73,1.19-3.65,1.48-5.43,1.98-5.6,1.59-10.82,3.75-15.75,6.46-1.01.55-2,1.1-3.15,1.46-1.11.36-2.08,1.01-3.12,1.52-2.08,1.02-3.99,2.27-6.33,2.93-1.12.32-2.14.94-3.1,1.54-1.39.88-2.86,1.62-4.44,2.21-4.92,1.85-9.29,4.43-13.49,7.24-1.77,1.17-3.61,2.2-5.75,3.12h0ZM227.28,53.5c1.1,1.07,2.1,2.05,2.96,2.88.43.13.59.18.75.22,1.34.29,2.79-.23,4.08.35,1.83.81,3.63,1.66,5.45,2.5,1.8,1.87,4.49,2.67,6.9,3.72,2.79,1.21,5.17,2.85,7.6,4.45,1.63,1.07,3.21,2.19,4.79,3.32.66.46,1.4.9,1.89,1.47,2.27,2.63,5.34,4.53,8.21,6.61,1.31.96,2.64,1.87,3.69,3.03.52.57,1.11,1.12,1.75,1.6,3.62,2.71,6.74,5.8,9.81,8.94,1.09,1.12,2.3,2.17,3.51,3.2,1.58,1.37,2.87,2.89,3.88,4.59.54.9,1.12,1.82,1.84,2.61,1.42,1.55,2.01,3.34,2.42,5.19.02.13-.04.28-.06.41-.51.46-1.17.64-1.87.61-2.42-.11-4.84-.18-7.24-.38-2.4-.2-4.79-.53-7.37-.82-1.73-1.46-3.54-2.99-5.25-4.63-1.03-.98-2.05-1.98-3.21-2.83-3.66-2.68-6.86-5.73-10.24-8.65-1.81-1.55-3.82-2.92-5.79-4.34-1.18-.85-2.41-1.65-3.65-2.42-.83-.52-1.68-1.05-2.61-1.4-1.75-.65-3.3-1.57-4.95-2.35-4.35-2.06-8.54-4.4-13.11-6.15-1.1-.42-2.12-.95-3.31-1.21-.82-.18-1.61-.53-2.36-.87-5.04-2.29-10.3-4.08-15.83-5.35-2.83-.64-5.6-1.47-8.4-2.2-.66-.17-1.35-.27-2-.46-4.11-1.27-8.36-1.71-12.72-1.53-1.56.06-3.09.06-4.6-.39-.79-.23-1.69-.24-2.55-.27-2.94-.1-5.88-.14-8.81-.24-1.9-.07-3.79-.23-5.69-.34-.69-.04-1.43-.24-2.05-.09-2.29.57-4.45-.06-6.64-.39-.85-.12-1.68-.38-2.53-.5-.84-.1-1.74-.25-2.56-.13-1.89.28-3.75.37-5.65.05-.82-.15-1.75-.12-2.57.03-2.05.37-4.13.42-6.19.42-4.19-.02-8.25.61-12.27,1.51-4.68,1.05-9.5,1.56-14.14,2.72-.66.17-1.36.24-2.05.24-3.37-.02-6.46.91-9.47,2.03-2.54.93-5.1,1.78-7.72,2.54-2.79.79-5.45,1.81-7.92,3.18-2,1.12-4.04,2.22-6.35,2.9-.64.19-1.2.57-1.79.87-4.92,2.42-9.82,4.86-14.77,7.25-1.5.74-2.9,1.55-4.23,2.49-5.28,3.74-10.56,7.5-15.59,11.48-.62.5-1.33.93-2.05,1.32-1.32.72-2.48,1.57-3.39,2.65-.86,1-2.09,1.4-3.5,1.65-2.36.42-4.7.91-7.15.87-3.81-.06-7.59.11-11.34.75-1.18.2-2.4.22-3.6.25-.23,0-.5-.29-.7-.5-.08-.08-.05-.32.04-.42,1.58-1.53,3-3.22,4.8-4.53,2.24-1.61,4.09-3.53,6.31-5.14,2.09-1.51,4.01-3.2,6.13-4.69,1.85-1.29,3.88-2.42,5.83-3.61,1.54-.94,3.16-1.8,4.6-2.82,2.26-1.6,4.76-2.89,7.32-4.09,3.46-1.63,7.02-3.11,10.27-5.06,1.66-1,3.57-1.75,5.52-2.35,1.45-.44,2.87-1,4.27-1.57.76-.3,1.56-.65,2.18-1.13,1.41-1.1,3.06-1.88,4.72-2.66,2.7-1.29,5.4-2.58,8.12-3.83,1.37-.64,2.81-1.09,4.36-1.36,1.52-.27,3.15-.45,4.47-1.06,2.89-1.35,5.92-2.33,9.09-3.07.49-.11.99-.29,1.41-.54,2.71-1.59,5.75-2.57,8.82-3.55,2.91-.92,5.77-1.94,8.77-2.64.5-.12,1.04-.18,1.49-.39,4.49-1.95,9.45-2.74,14.22-4,2.29-.61,4.69-.96,7.13-1.03.85-.03,1.74-.1,2.54-.31,3.46-.92,6.94-1.7,10.59-1.81,2.41-.89,5.11-.56,7.59-1.28,1.6-.47,3.38-.58,5.1-.67,1.71-.11,3.43.22,5.17.05.65-.06,1.38.15,2.02.35,2.31.72,4.69.84,7.13.84,2.92,0,5.88.08,8.79.36,4.11.39,8.26.75,12.16,2.02,2.9.94,5.93,1.53,8.93,2.18,6.36,1.4,12.54,3.2,18.45,5.37h0ZM158.84,9.7c-3.49.07-6.42.2-9.36.17-2.93-.03-5.85-.22-8.79-.33-1.9-.05-3.8-.09-5.69.17-4.08.55-8.26.59-12.26,1.6-2.63-.1-5.03.92-7.6,1.19-2.38.26-4.7.89-7.1,1.2-2.55.33-5.07.88-7.61,1.28-1.55.25-2.98.75-4.28,1.47-.74.41-1.09,1.08-1.09,1.86.01.42.54.88,1.01.79,5.4-1,10.9-1.4,16.4-1.76,3.19-.73,6.53-.55,9.76-1.04,3.06-.46,6.14-.83,9.21-1.27.68-.09,1.39-.18,1.98-.46,1.86-.85,3.88-1.17,5.93-1.48,4.75-.76,9.48-1.6,14.23-2.33,2.21-.34,4.46-.41,6.71-.4,1.14,0,1.95-.55,2.48-1.35.52-.75.86-1.59,1.44-2.3.37-.45,1.01-.77,1.59-1.08.71-.36,1.77-.2,2.35.38.42.43.7.98.94,1.33-.08.34-.08.5-.15.63-1.59,2.45-2.23,5.13-2.89,7.85-.88,3.59-.99,7.18-.87,10.81.06,1.88.14,3.75-.06,5.65-.18,1.71.1,3.46.19,5.2.01.3.7.78,1.09.8,1.71.11,3.43.23,5.21-.09.26-.34.62-.67.78-1.07.83-1.94.98-3.97,1.01-6.01.03-3.62-.02-7.25-.03-10.88,0-2.32-.16-4.62-.64-6.93-.36-1.7-.21-3.47-.33-5.21-.04-.72-.15-1.45-.34-2.14-.17-.59-.68-1.08-1.36-1.23-1.84-.36-3.72-.62-5.58-.92-.84-.15-1.71-.27-2.5-.52-.65-.22-1.06-.71-1.14-1.34-.06-.46.51-1.22,1.01-1.43,1.12-.47,2.35-.65,3.52-.41,2.86.63,5.74,1,8.68,1.15.17,0,.36.05.5.11.58.3,1.27.53,1.68.94.27.27.21.82.17,1.24-.09.83.35,1.4,1.15,1.77,1.07.49,2.21.84,3.45.88,3.66.14,7.17.89,10.67,1.72.33.07.7.07,1.01.18,3.46,1.34,7.27,1.81,10.78,3.05,3.51,1.23,7.21,2,10.91,2.74,2.18.43,4.39.8,6.53,1.35,3.34.85,6.73,1.25,10.12,1.33,1.35-.51,2.61-.97,3.72-1.39,2.06.15,3.94.4,5.83.37,2.67-.04,5.13.46,7.44,1.47.7.52,1.13,1.13,1.36,1.85.36,1.12.71,2.24,1.01,3.37.32,1.2,1.12,2.1,2.24,2.84.14.09.26.2.42.27,3.36,1.53,6.08,3.8,9.13,5.7,3.05,1.9,6.12,3.82,8.93,5.95,3.71,2.82,8.02,5.05,11.41,8.19.12.11.27.18.4.29.96.8,1.96.99,3.27.45,1.05-.43,2.14-.06,2.7.68.45.59.81,1.24,1.19,1.83,1.4-.16,1.14-1.37,1.97-1.84.72-.41,1.36-.89,2.28-1.01,4.81.72,9.03,1.59,12.57,2.65.3.28.67.58,1,.91.56.59.87,1.26.78,2.02-.13,1-.26,2.01-.5,3-.27,1.13-.63,2.26-.96,3.39-.67,2.25-.99,4.51-.81,6.86.27,3.62.14,7.24-.31,10.87-.25,1.99-.06,4.06.16,6.07.19,1.75.3,3.46-.22,5.18-.51,1.69-.31,3.48-1.11,5.13-.25.51-.15,1.15-.17,1.72-.08,2.76-.08,5.52-.23,8.27-.11,2.05.19,4.06.57,6.07.1.56.42,1.08.56,1.47.99.65,1.82,1.16,2.6,1.72.44.31.44,1.26.06,1.6-.37.31-.73.62-1.13.9-1.2.86-2.69,1.22-4.04,1.71-.98-.58-1.82-1.08-2.57-1.53h-3.08c-1.07.45-2,.83-2.86,1.19-.43,0-.78.04-1.11,0-.68-.07-1.37-.17-2.04-.3-3.88-.77-7.77-1.41-11.79-1.26-.68.03-1.39-.09-2.04-.26-1.38-.35-2.73-.3-4.1-.06-.9.16-1.71-.06-2.68-.6-1.36-1.77-2.52-3.9-4.45-5.6-1.29-2.98-4.01-5-6.73-7.03-2.45-1.83-4.61-3.93-7.32-5.53-.27-.17-.54-.37-.73-.61-2.06-2.62-5.2-4.18-8.24-5.83-3.19-1.72-6.22-3.65-9.39-5.41-4.47-2.49-9.09-4.75-14.06-6.46-2.42-.83-4.98-1.29-7.51-1.56-4.46-.49-8.89-1.04-13.3-1.76-.5-.09-1.05-.08-1.53-.22-7.08-2-14.52-2.54-21.74-3.95-.67-.13-1.37-.21-2.06-.23-6.05-.09-12.04-.94-18.09-.94-3.82,0-7.54-.67-11.28-1.19-1.37-.19-2.72-.31-4.1-.34-3.46-.07-6.9.08-10.27.84-.67.15-1.35.27-2.04.33-3.43.36-6.82.84-10.04,1.97-3.61.38-7.07,1.37-10.65,1.81-2.43.3-4.69.9-6.94,1.66-2.56.88-5.13,1.73-7.75,2.46-1.66.46-3.3.95-4.74,1.73-4.21,2.3-8.87,3.9-13.17,6.06-2.37,1.18-4.75,2.38-7.33,3.24-.64.2-1.24.52-1.8.84-2.41,1.42-4.86,2.78-7.17,4.3-3.54,2.32-6.99,4.74-10.43,7.17-4.12,2.91-7.76,6.19-10.22,10.28-.23.39-.55.74-.8,1.06-1.15.79-2.55.99-3.8,1.46-1.27.46-2.64.59-4.05.61-6.22.06-12.44.21-18.66.09-1.72-.04-3.46.08-5.18.09-1.38,0-2.76-.02-4.14-.09-1.27-.05-1.98-1.11-1.69-2.22.22-.88.69-1.64,1.27-2.36,1.14-1.45,2.32-2.89,3.55-4.39.01-1.38-.45-2.77.29-4.2,1.13-2.19.88-4.55.77-6.88-.03-.58-.38-1.2-.23-1.71.65-2.19.12-4.32-.22-6.47-.4-2.61-.23-5.22.24-7.81.57-3.18.47-6.36-.07-9.52-.79-4.62-1.02-9.25-.32-13.89.32-2.15.88-4.27,1.39-6.4.2-.86,1.57-1.59,2.81-1.61.74,0,1.82.75,1.86,1.29.02.3.08.59.03.87-.53,2.88-1.18,5.72-1.57,8.6-.39,2.88-.64,5.78.29,8.64.18.56.34,1.14.34,1.71.01,3.04.06,6.09-.07,9.14-.11,2.46-.17,4.93-.06,7.4.13,3.03.12,6.08.18,9.14.03,1.15.13,2.31.16,3.47.03,1.01,0,2.01,0,2.99.41.09.84.3.99.21,1.21-.8,2.48-1.59,3.53-2.53,2.96-2.65,6.08-5.16,9.38-7.5.52-.36,1.11-.71,1.28-1.28,0-.17.07-.37-.01-.41-2.7-1.78-2.24-4.47-2.64-6.83-.44-2.57-.15-5.23-.82-7.8-.1-.42,0-.86.07-1.29.65-4.06.26-8.12.09-12.18-.09-2.17-.43-4.32-.58-6.5-.12-1.59-.07-3.18.38-4.76.4-1.4.65-2.85.38-4.32-.09-.49-.79-1.09-1.42-1.07-2.41.07-4.83.04-7.2.54-1.66.35-3.36.59-4.92.86-.47-.15-.82-.22-1.1-.37-1.86-1.01-1.55-2.21-.2-3.16.65-.47,1.44-.79,2.26-1.24,2.36-.1,4.75-.29,7.17-.18,1.41.06,2.72-.17,4.06-.55,1.46-.41,3-.62,4.53-.84.88-.14,2.15.81,2.12,1.58-.06,1.45-.26,2.89-.31,4.33-.02.46.59.93,1.08.73,1.01-.41,1.94-1.11,2.89-1.72,3.4-2.24,6.77-4.51,10.18-6.72.95-.63,1.96-1.21,3.04-1.67,2.46-1.05,4.96-2.04,7.45-3.03,1.57-.63,3.15-1.19,4.71-1.83,1.72-.71,3.33-1.52,4.37-2.97.83-1.15,2.21-1.86,3.56-2.48,1.97-.9,4.02-1.68,6.05-2.47,1.57-.62,3.19-1.13,4.72-1.8.57-.26,1.09-.77,1.36-1.26.58-1.03.97-2.15,1.37-3.06-.71-1.85-1.81-3.36-2.23-4.9.41-1.14,1.25-1.59,2.34-1.72.68-.08,1.38-.14,2.07-.11,3.33.12,6.53-.42,9.69-1.23.82-.21,1.67-.4,2.51-.47.66-.05,1.34.09,1.97.15,1.16,1.12,1.8,2.24,1.53,3.65-.08.41-.11.85-.11,1.28,0,.47.85,1.21,1.34,1.17,1.38-.13,2.76-.19,4.11-.42,3.39-.55,6.74-1.28,10.19-1.55.51-.04,1.01-.19,1.5-.32,4.99-1.2,10.08-2.04,15.17-2.77,3.56-.52,7.22-.52,10.84-.66,2.57-.09,5.15-.03,7.72.17,1.71.13,3.45-.05,5.17-.08,2.8-.88,5.45.02,8.11.54.4.08.85.58.95.94.1.36-.09.92-.4,1.16-.63.47-1.44.77-2.15,1.13Z"/>
  </g>
</svg>