<?xml version="1.0" encoding="UTF-8"?>
<svg id="Layer_2" data-name="Layer 2" xmlns="http://www.w3.org/2000/svg" viewBox="0 0 291.49 247.85">
  <defs>
    <style>
      .cls-1 {
        fill: #284268;
      }
    </style>
  </defs>
  <g id="Layer_1-2" data-name="Layer 1">
    <g>
      <path class="cls-1" d="M188.69,116.89v-56.65c0-2.27,1.85-4.12,4.12-4.12h7.97c2.27,0,4.12,1.85,4.12,4.12v4.54h2.93v-4.54c0-2.27,1.85-4.12,4.12-4.12h2.13v-14.04H71.8v14.04h4.88c2.27,0,4.12,1.85,4.12,4.12v5.47h3.53v-5.47c0-2.27,1.85-4.12,4.12-4.12h7.69c2.27,0,4.12,1.85,4.12,4.12v56.65h7.27v-56.2c0-2.27,1.85-4.12,4.12-4.12h7.97c2.27,0,4.12,1.85,4.12,4.12v4.54h2.93v-4.54c0-2.27,1.85-4.12,4.12-4.12h8.15c2.27,0,4.12,1.85,4.12,4.12v5.1h3.25v-5.1c0-2.27,1.85-4.12,4.12-4.12h7.41c2.27,0,4.12,1.85,4.12,4.12v5.47h3.53v-5.47c0-2.27,1.85-4.12,4.12-4.12h7.69c2.27,0,4.12,1.85,4.12,4.12v56.2h7.27Z"/>
      <path class="cls-1" d="M71.8,35.88h142.3V0h-15.14v15.7c0,2.95-2.39,5.33-5.34,5.34h-16.87c-2.95,0-5.33-2.39-5.34-5.34V0h-14.54v14.89c0,2.95-2.39,5.33-5.34,5.34h-16.26c-2.95,0-5.33-2.39-5.34-5.34V0h-16.16v13.67c0,2.95-2.39,5.33-5.34,5.34h-15.55c-2.95,0-5.33-2.39-5.34-5.34V0h-15.75v35.88Z"/>
      <path class="cls-1" d="M186.82,158.64l1.47-2.91-7.9-4.57-1.53,3.03-.07.14,6.21,3.16c.64.33,1.25.72,1.82,1.16Z"/>
      <path class="cls-1" d="M256.39,62.33h-3.53v5.47c0,2.27-1.85,4.12-4.12,4.12h-7.69c-2.27,0-4.12-1.85-4.12-4.12v-5.47h-3.25v5.1c0,2.27-1.85,4.12-4.12,4.12h-7.41c-2.27,0-4.12-1.85-4.12-4.12v-5.1h-3.99v4.55c0,2.27-1.85,4.12-4.12,4.12h-7.09c-2.27,0-4.12-1.85-4.12-4.12v-4.54h-3.81v12.98h61.49v-12.98Z"/>
      <path class="cls-1" d="M113.73,62.78v12.98h61.49v-12.98h-3.53v5.47c0,2.27-1.85,4.12-4.12,4.12h-7.69c-2.27,0-4.12-1.85-4.12-4.12v-5.47h-3.25v5.1c0,2.27-1.85,4.12-4.12,4.12h-7.42c-2.27,0-4.12-1.85-4.12-4.12v-5.1h-3.99v4.54c0,2.27-1.85,4.12-4.12,4.12h-7.09c-2.27,0-4.12-1.85-4.12-4.12v-4.54h-3.81Z"/>
      <polygon class="cls-1" points="152.28 232.74 158.62 232.74 158.61 227.21 152.27 227.2 152.28 232.74"/>
      <path class="cls-1" d="M32.57,62.33v12.98h61.49v-12.98h-3.53v5.47c0,2.27-1.85,4.12-4.12,4.12h-7.69c-2.27,0-4.12-1.85-4.12-4.12v-5.47h-3.25v5.1c0,2.27-1.85,4.12-4.12,4.12h-7.41c-2.27,0-4.12-1.85-4.12-4.12v-5.1h-3.99v4.54c0,2.27-1.85,4.12-4.12,4.12h-7.09c-2.27,0-4.12-1.85-4.12-4.12v-4.54h-3.81Z"/>
      <path class="cls-1" d="M165.35,178.51h19.6v-11c0-1.91-1.06-3.65-2.76-4.51l-16.83-8.57v24.08Z"/>
      <polygon class="cls-1" points="139.49 184.71 126.52 184.71 126.52 220.92 139.49 220.96 139.49 184.71"/>
      <polygon class="cls-1" points="159.15 184.71 145.7 184.71 145.7 220.98 159.15 221.01 159.15 184.71"/>
      <path class="cls-1" d="M142.43,126.22c4.56,0,8.09.93,10.26,2.56h110.67l-6.51-47.27h-61.96v35.55c0,3.33-2.71,6.04-6.04,6.04h-7.59c-3.33,0-6.04-2.71-6.04-6.04v-35.09h-61.49v35.14c0,3.31-2.69,5.99-6,6h-7.68c-3.31,0-5.99-2.69-6-6v-35.59h-61.88l-6.26,47.27h106.25c2.17-1.63,5.71-2.56,10.26-2.56ZM244.11,114h6.69c1.71,0,3.1,1.39,3.1,3.1s-1.39,3.1-3.1,3.1h-6.69c-1.71,0-3.1-1.39-3.1-3.1s1.39-3.1,3.1-3.1ZM206.84,90.5h10.3c1.71,0,3.1,1.39,3.1,3.1s-1.39,3.1-3.1,3.1h-10.3c-1.71,0-3.1-1.39-3.1-3.1s1.39-3.1,3.1-3.1ZM150.2,90.5h10.3c1.71,0,3.1,1.39,3.1,3.1s-1.39,3.1-3.1,3.1h-10.3c-1.71,0-3.1-1.39-3.1-3.1s1.39-3.1,3.1-3.1ZM47.92,104.84h-10.3c-1.71,0-3.1-1.39-3.1-3.1s1.39-3.1,3.1-3.1h10.3c1.71,0,3.1,1.39,3.1,3.1s-1.39,3.1-3.1,3.1ZM123.36,109.69c0-1.71,1.39-3.1,3.1-3.1h10.31c1.71,0,3.1,1.39,3.1,3.1s-1.39,3.1-3.1,3.1h-10.31c-1.71,0-3.1-1.39-3.1-3.1Z"/>
      <polygon class="cls-1" points="164.82 232.75 171.31 232.75 171.3 227.25 164.82 227.23 164.82 232.75"/>
      <path class="cls-1" d="M196.93,221.07v-8.85c-.06-.01-.12-.02-.19-.02h-5.59v8.89h5.59c.06,0,.12,0,.19-.02Z"/>
      <path class="cls-1" d="M196.93,190.89v-8.85c-.06-.01-.12-.02-.19-.02h-5.59v8.89h5.59c.06,0,.12,0,.19-.02Z"/>
      <path class="cls-1" d="M191.15,206h5.59c.06,0,.12,0,.19-.02v-8.85c-.06-.01-.12-.02-.19-.02h-5.59v8.89Z"/>
      <path class="cls-1" d="M191.13,166.93l.02,8.89h5.59c.06,0,.12,0,.19-.02v-8.85c-.06-.01-.12-.02-.19-.02h-5.61Z"/>
      <path class="cls-1" d="M191.58,150.46c2.74,1.63,3.74,5.1,2.3,7.93l-1.18,2.34h4.03c3.52,0,6.39,2.58,6.39,5.75v9.79c0,.93-.25,1.85-.72,2.65.47.8.72,1.72.72,2.65v9.79c0,.93-.25,1.85-.72,2.65.47.8.72,1.72.72,2.65v9.79c0,.93-.25,1.85-.72,2.65.25.43.44.9.56,1.39h71.65l-8.31-60.28h-75.17l.43.25ZM244.21,178.58h10.92c1.71,0,3.1,1.39,3.1,3.1s-1.39,3.1-3.1,3.1h-10.92c-1.71,0-3.1-1.39-3.1-3.1s1.39-3.1,3.1-3.1ZM215.49,199.31h12.78c1.71,0,3.1,1.39,3.1,3.1s-1.39,3.1-3.1,3.1h-12.78c-1.71,0-3.1-1.39-3.1-3.1s1.39-3.1,3.1-3.1Z"/>
      <path class="cls-1" d="M164.92,135.45c.79.46,1.47,1.1,1.96,1.87.93.03,1.84.29,2.65.76l8.63,4.99c.44.26.85.57,1.21.94h86.09l-1.24-9.03h-100.11l.82.47Z"/>
      <polygon class="cls-1" points="190.06 232.76 199.46 232.76 199.46 227.33 190.05 227.3 190.06 232.76"/>
      <polygon class="cls-1" points="184.95 184.71 165.35 184.71 165.35 221.03 184.95 221.08 184.95 184.71"/>
      <polygon class="cls-1" points="177.51 232.75 183.85 232.75 183.85 227.28 177.5 227.27 177.51 232.75"/>
      <polygon class="cls-1" points="165.12 147.35 173.27 151.5 173.32 151.4 174.85 148.32 167.02 143.78 165.12 147.35"/>
      <polygon class="cls-1" points="127.08 232.73 133.54 232.73 133.53 227.15 127.07 227.13 127.08 232.73"/>
      <polygon class="cls-1" points="85.29 232.71 95.78 232.72 95.77 227.05 85.29 227.03 85.29 232.71"/>
      <polygon class="cls-1" points="101.98 232.72 108.32 232.72 108.32 227.08 101.98 227.06 101.98 232.72"/>
      <rect class="cls-1" x="88.95" y="181.76" width="5.09" height="8.89"/>
      <polygon class="cls-1" points="96.74 155.83 98.67 159.67 106.66 155.28 104.64 151.26 96.74 155.83"/>
      <path class="cls-1" d="M100.24,168.77v9.74h20.08v-23.5l-17.41,9.3c-1.65.88-2.68,2.6-2.67,4.47Z"/>
      <polygon class="cls-1" points="118.01 143.9 110.18 148.43 112.14 152.35 120.16 148.07 118.01 143.9"/>
      <path class="cls-1" d="M88.95,166.67v8.89h5.09v-6.78c0-.71.07-1.41.2-2.11h-5.29Z"/>
      <polygon class="cls-1" points="114.52 232.73 120.88 232.73 120.87 227.11 114.52 227.09 114.52 232.73"/>
      <rect class="cls-1" x="15.89" y="238.96" width="261.2" height="8.89"/>
      <path class="cls-1" d="M79.09,223.92c0-1.71,1.39-3.1,3.1-3.1h.56v-4.13H0v16.07h79.09v-8.83Z"/>
      <rect class="cls-1" x="88.95" y="196.84" width="5.09" height="8.89"/>
      <path class="cls-1" d="M203.13,221.19c1.47.27,2.53,1.55,2.53,3.04v8.52h85.83v-16.07h-88.36v4.5Z"/>
      <rect class="cls-1" x="88.95" y="211.93" width="5.09" height="8.89"/>
      <path class="cls-1" d="M83.45,208.83c-.46-.81-.7-1.72-.7-2.65v-9.79c0-.93.24-1.84.7-2.65-.46-.81-.7-1.72-.7-2.65v-9.79c0-.93.24-1.84.7-2.65-.46-.81-.7-1.72-.7-2.65v-9.79c0-3.17,2.78-5.75,6.2-5.75h3.18l-.98-1.94c-1.45-2.84-.45-6.32,2.29-7.95l.63-.37H23.08l-7.99,60.28h67.75c.11-.58.31-1.14.6-1.65ZM25.98,172.28c0-1.71,1.39-3.1,3.1-3.1h6.69c1.71,0,3.1,1.39,3.1,3.1s-1.39,3.1-3.1,3.1h-6.69c-1.71,0-3.1-1.39-3.1-3.1ZM45.2,203.88h-12.79c-1.71,0-3.1-1.39-3.1-3.1s1.39-3.1,3.1-3.1h12.79c1.71,0,3.1,1.39,3.1,3.1s-1.39,3.1-3.1,3.1Z"/>
      <polygon class="cls-1" points="100.24 220.85 120.32 220.91 120.32 184.71 100.24 184.71 100.24 220.85"/>
      <polygon class="cls-1" points="139.74 232.74 146.08 232.74 146.07 227.18 139.73 227.16 139.74 232.74"/>
      <path class="cls-1" d="M136.77,133.28l2.37,4.8c2.19-.78,4.56-.86,6.8-.24l2.25-4.53c-1.85-.65-3.8-.95-5.76-.89-1.92-.05-3.84.24-5.66.85Z"/>
      <polygon class="cls-1" points="123.47 140.78 125.65 145.14 133.61 140.89 131.31 136.24 123.47 140.78"/>
      <polygon class="cls-1" points="145.7 176.08 145.7 178.51 159.15 178.51 159.15 151.27 145.7 144.42 145.7 176.08"/>
      <path class="cls-1" d="M106.87,143.18l8.63-4.99c.81-.47,1.72-.73,2.65-.76.5-.77,1.17-1.41,1.96-1.87l1.01-.58H25.1l-1.2,9.03h81.87c.33-.32.7-.59,1.09-.83Z"/>
      <polygon class="cls-1" points="126.52 178.51 139.49 178.51 139.49 176.08 139.49 144.77 126.52 151.7 126.52 178.51"/>
      <polygon class="cls-1" points="161.55 140.67 153.71 136.13 151.57 140.45 159.57 144.53 161.55 140.67"/>
    </g>
  </g>
</svg>