<?xml version="1.0" encoding="UTF-8"?>
<svg id="Layer_2" data-name="Layer 2" xmlns="http://www.w3.org/2000/svg" viewBox="0 0 507.49 458.45">
  <defs>
    <style>
      .cls-1 {
        fill: #6d442f;
        fill-rule: evenodd;
      }
    </style>
  </defs>
  <g id="_Layer_" data-name="&amp;lt;Layer&amp;gt;">
    <g>
      <path class="cls-1" d="M504.51,287.62c-1.24-1.82-1.84-3.93-2.98-5.77-.46-.73-.9-1.51-1.13-2.34-.3-1-.8-1.85-1.35-2.7-1.98-3.04-3.95-6.08-5.93-9.12-.31-.49-.64-.98-1.02-1.41-2.8-3.13-5.43-6.43-8.87-8.92-.82-.6-1.51-1.36-2.29-2.02-.33-.28-.68-.54-1.06-.76-.67-.37-1.38-.38-2.07-.02-1.05.57-1.83,1.42-2.48,2.4-.64.99-1.34,1.94-2.41,2.46-2.01,1-3.51,2.54-4.92,4.22-.84,1-1.75,1.93-2.66,2.87-2.3,2.43-4.41,5.01-6.36,7.73-1.35,1.88-2.78,3.71-4.23,5.52-.81,1.02-1.8,1.91-2.56,2.97-1.45,2.01-3.17,3.76-4.76,5.65-1.24,1.48-2.74,2.58-4.41,3.5-.63.35-1.31.62-1.94.98-.38.2-.71.51-1.03.78-.78.68-.79,1.95-.06,2.74.74.77,1.66,1.27,2.7,1.18,1.91-.17,3.76.28,5.64.3.74,0,1.4.31,2.04.69.54.33.89.83.84,1.42-.12,1.44-.5,2.87-.52,4.3-.06,5.07-.38,10.15.22,15.22.07.56.06,1.15,0,1.72-.3,2.74-.65,5.48-.96,8.21-.09.88-.14,1.73-.16,2.61-.04,1.31-.05,2.61-.06,3.92-.05,5.96-.96,11.86-.89,17.82,0,1.01-.06,2.04-.23,3.04-.66,4.02-.63,8.09-.83,12.14-.15,2.9-.07,5.8-.29,8.68-.41,5.37-.46,10.72-.31,16.09.09,3.48.31,6.97.18,10.44-.13,3.05-.32,6.08-.33,9.14,0,2.18.02,4.35-.14,6.52-.15,2.17-.5,4.32-.76,6.48-.06.43-.16.88-.11,1.3.06.55.23,1.12.38,1.67.1.41.25.8.36,1.17-.54.44-1.11.53-1.69.53-4.36.03-8.71.07-13.07.06-4.63,0-9.27-.37-13.87.65-.15.03-.29.04-.43.04-2.76.12-5.51.33-8.26.33-3.19,0-6.38-.12-9.57-.27-4.65-.21-9.3-.18-13.92.39-2.88.35-5.77.5-8.67.51-2.89,0-5.8-.1-8.7.08-2.16.13-4.34,0-6.52-.06-.38-.02-.74-.38-1.12-.59-.11-2.23-.28-4.38-.05-6.56.29-2.89.42-5.78.6-8.67.04-.72.05-1.47-.09-2.17-.56-3.01-.57-6.06-.53-9.11.05-3.48-.12-6.96-.13-10.44,0-4.06.13-8.12.06-12.18-.1-5.52.04-11.03.22-16.55.05-1.45.06-2.9-.04-4.35-.17-2.47,0-4.93.2-7.38.18-2.03.36-4.06.44-6.08.12-2.75.15-5.5.22-8.36.3-.18.64-.53,1.01-.58.86-.11,1.72-.1,2.59-.09,2.03.04,4.06.12,6.09.16.73,0,1.44-.16,1.98-.73,1.28-3.25,1.73-4.59,1.99-7.07.23-2.21.61-2.74,2.93-2.81.73-.02,1.46-.06,2.18-.07.85,0,1.72.76,1.77,1.6.1,2.03.26,4.07-.1,6.08-.2,1.07.06,2.02.4,2.97.4,1.12,1.65,1.82,2.81,1.55.84-.2,1.65-.63,2.49-.7,3.45-.3,6.9-1.03,10.36-.08.42.11.87.08,1.3.12,2.05.16,2.74-.34,2.89-2.26.12-1.3.1-2.61.13-3.91.05-1.45.03-2.9.12-4.34.05-.79.57-1.3,1.35-1.48,1.44.22,2.88.42,4.31.65,1.05.17,1.8,1.07,1.76,2.15-.04.72-.06,1.46-.23,2.16-.34,1.59-.24,3.17.02,4.76.27,1.63,2.02,2.7,3.61,2.22.98-.29,2-.53,2.87-1.01,1.32-.74,2.75-.91,4.17-1.14,1.13-.19,2.3-.39,3.45-.35,4.03.1,3.4-.88,3.79-3.72.14-1,.07-2.03.09-3.03,0-1.02-.03-2.05.06-3.05.06-.61.51-1.05,1.1-1.23.54-.16,1.12-.27,1.7-.27,1.09,0,2,.84,2.02,1.87.06,2.89.48,5.8-.48,8.57.29.63.46,1.21.79,1.67.33.44.8.81,1.26,1.15.22.16.53.18.81.28.14,0,.29.02.42-.03,2.93-.94,5.89-1.53,8.96-.72.13.03.29-.02.42,0,.79,0,1.8-.75,1.91-1.52.09-.57.09-1.15.07-1.73,0-.77-.59-1.35-1.32-1.48-1.45-.25-2.89-.2-4.32.03-1.04.17-2.03,0-2.98-.43-.57-.25-.96-.69-.96-1.31-.03-1.89-.03-3.77.02-5.65.02-1.02-.02-2.03-.29-3.01-.36-1.27-1.63-2.29-2.9-2.19-.87.06-1.73.18-2.58.34-1.89.4-3.74.33-5.59-.26-.4-.13-.84-.14-1.23-.19-1.47.54-2,1.69-2.06,3.08-.02.71.08,1.46.27,2.15.45,1.71.45,3.44.35,5.18-.04.63-.7,1.41-1.33,1.58-.28.08-.54.2-.83.23-2,.24-4,.45-6.03.67-.24-.49-.58-.85-.6-1.24-.06-1.14.04-2.31-.02-3.47-.04-1.01-.14-2.02-.3-3.02-.18-1.02-1.1-1.74-2.15-1.84-1.59-.14-3.19.18-4.76-.35-.81-.28-1.71-.32-2.53-.63-1.08-.39-2.1-.94-3.06-1.39-.81.19-1.5.36-2.29.54-.94-1.2-1.29-2.6-1.24-4.07.06-1.86-.11-3.77.65-5.58.16-.39.2-.86.17-1.27-.08-1.31-.16-2.62-.36-3.9-.29-1.86-.97-3.69-1.02-5.55-.06-2.06-.55-4-.88-5.99-.29-1.71-.35-3.45-.82-5.15-.26-.92.16-2.01.04-3-.36-3.03-.36-6.07-.35-9.12,0-2.6.08-5.24-.77-7.77-.09-3.76-1.05-7.46-.72-11.27.17-1.86,0-3.76-.04-5.65-.02-1.45-.05-2.9-.02-4.35.03-1.58.36-3.15-.06-4.73-.07-.26,0-.59.09-.86.49-1.42.5-2.83.14-4.29-.14-.55-.2-1.14-.19-1.72.03-3.31.08-6.63.14-9.95.02-1.59.06-3.16-.06-4.76-.15-2.02-.04-4.03.24-6.06.44-3.16,1.15-6.27,1.45-9.44.16-1.87.31-3.74.48-5.61.07-.73.25-1.43.94-2.18,1.48-.66,3.19-1.43,4.78-2.15.46-1.09.84-2.01,1.22-2.95.49-1.2.26-2.27-.55-3.23-.47-.56-.87-1.2-1.42-1.65-1.48-1.22-2.56-2.79-3.6-4.34-2.45-3.62-5.33-6.87-8.31-10.05-1.28-1.36-2.77-2.59-3.55-4.37-.17-.39-.49-.74-.82-1-2.32-1.81-3.93-4.26-5.76-6.49-.67-.81-1.16-1.67-1.5-2.62-.69-1.91-1.24-3.84-1.23-5.92.02-1.74-.16-3.47-.19-5.22-.05-2.6-.22-5.22.4-7.87,1.73-2.04,4-3.27,6.5-4.12,1.79-.6,3.63-.98,5.52-1.12,1-.07,2.04-.11,2.92-.89.36-1.15.74-2.36.83-3.57-.5-.75-1.24-.95-1.92-1.11-1.83-.45-3.59-1.1-5.27-1.93-.65-.32-1.35-.56-2.03-.78-1.81-.57-3.52-1.3-5.12-2.36-.95-.64-2.06-1.05-3.15-1.44-.54-.2-1.14,0-1.62.39-.84.69-1.23,1.59-1.24,2.67-.05,3.34-.12,6.67-.1,10.01,0,1.45.24,2.89.34,4.33.09,1.15.35,2.34.17,3.46-.53,3.47-.19,6.96-.34,10.43-.05,1,.2,2.01.35,3.01.11.71.42,1.4.19,2.47-1.93,3.04-4.31,6.14-6.79,9.16-1.65,2.01-3.44,3.93-5.02,6-3.72,4.85-7.84,9.32-12.45,13.32-.88.75-1.63,1.65-2.37,2.54-.59.71-.45,2.15.18,2.84,1.02,1.1,2.18,1.9,3.8,1.74.87-.09,1.74-.1,2.61-.09.58,0,1.13.18,1.62.85.25,2.27.61,4.7.25,7.17-.15,1-.2,2.02-.25,3.03-.08,1.59-.29,3.16-.43,4.74-.16,1.72-.03,3.48-.04,5.22,0,.43-.05.86-.09,1.29-.03.39-.51.87-.86.84-1-.09-2.01-.24-3.02-.27-1-.03-2,.07-3,.05-.24,0-.57-.25-.68-.47-.25-.52-.35-1.1-.58-1.63-.28-.63-1.09-1.04-1.81-.91-.59.1-1.17.38-1.33.97-.23.83-.28,1.7-.41,2.56-.08.51-.69,1.12-1.16,1.12-1.74,0-3.48.03-5.22,0-2.03-.05-4.06-.13-6.08-.27-.35-.03-.72-.4-1-.7-.17-.19-.17-.54-.27-.81-.15-.41-.28-.82-.47-1.2-.53-1.01-2.31-.99-2.98-.07-.59.81-.39,2.05-1.43,2.6-.28.07-.55.21-.83.21-7.11.03-14.21,0-21.31.08-2.46.02-4.94-.03-7.37.57-.55.14-1.19.24-1.71.09-1.45-.4-2.84-.13-4.29.03-1.71.18-3.47.07-5.22.11-2.89.06-5.8.14-8.7.21-.57.01-1.15-.02-1.94-.58-.3-.42-.42-1.4-1.24-1.83-.23-.11-.61-.15-.8-.03-.35.21-.69.53-.89.88-.43.75-.71,1.61-1.6,1.95-.29.06-.58.17-.86.18-4.5.12-9,.3-13.5.32-2.76,0-5.5.08-8.25.32-1.88.15-3.77.28-5.65.37-1.73.08-3.51.33-5.21.08-1.83-.27-3.42.57-5.15.61-.58.01-1.16.06-1.73.12-1,.1-2.06.1-3.02.37-1.57.43-3.15.41-4.75.49-5.06.27-10.16.02-15.22.61-.41.05-.85-.1-1.27-.19-.7-.14-1.4-.3-2.14-.47-1.43.88-2.94,1.23-4.6,1.16-1.45-.06-2.89.04-4.31.39-.7.17-1.45.16-2.17.18-2.32.04-4.65-.03-6.95.12-3.9.23-7.82.06-11.67.98-2.66.64-5.46.68-8.1,1.47-.52.15-1.15-.36-1.28-.93-.27-1.14-.3-2.29-.18-3.46.13-1.15.32-2.3.37-3.46.17-3.48.23-6.95.42-10.43.08-1.44.37-2.88.6-4.31.14-.89.65-1.6,1.26-2.24.93-.97,2.03-1.63,3.37-1.83,1.01-.15,2.02-.34,2.72-1.29.46-1.04.46-2.21.48-3.37,0-.74-.29-1.41-.77-1.98-.18-.22-.37-.46-.59-.63-2.92-2.18-5.13-5.12-7.95-7.42-2.23-1.82-4.12-4.07-6.09-6.19-.68-.73-1.41-1.56-1.71-2.47-.45-1.31-1.27-2.26-2.16-3.22-1.56-1.72-2.79-3.68-3.99-5.47.07-.49.1-.77.18-1.05.1-.42.29-.82.37-1.24.13-.64-.54-1.5-1.21-1.55-.85-.05-1.7-.05-2.39-.07-.87-.56-.71-1.4-1.01-2.03-.38-.78-1.05-1.42-1.18-2.86.78-1.29.58-3.18.53-5.06-.04-1.16,0-2.33.06-3.48.15-2.75.22-5.5-.32-8.24-.2-.99.45-1.61,1.33-1.98.29-.02.59-.12.85-.05,1.76.48,3.45.27,5.13-.32,1.23-.43,2.49-.78,3.72-1.17,2.38-.76,4.58-1.85,6.41-3.57,1.41-1.32,2.99-2.27,4.88-2.74.25-.07.43-.36.76-.64.11-.88.28-1.88.31-2.87.03-.39-.23-.8-.36-1.2-1.54-.62-3.04-1.12-4.67-1.12s-3.15-.42-4.67-.94c-1.5-.53-3.02-1-4.54-1.5-1.64-.53-3.22-1.23-5.04-1.12-.96.05-1.96-.42-2.93-.73-.68-.23-1.31-.61-1.98-.87-.89-.33-2.14.37-2.43,1.32-.25.84-.33,1.66-.24,2.56.14,1.58.06,3.17.06,4.76-.78,1.19-.46,2.52-.46,3.81,0,1.3.12,2.65-.16,3.9-.45,2.06-.18,4.08.3,5.99,1.12,4.33.61,8.64.26,12.98-.05.74-.47,1.49-1.16,1.75-2.18.79-3.5,2.41-4.8,4.21-1.44,1.99-3.19,3.75-4.26,6.01-.24.51-.75.89-1.09,1.35-1.95,2.7-4.34,5.07-6.03,7.97-.67,1.15-1.67,2.04-2.71,2.8-2.01,1.47-3.71,3.24-5.36,5.08-1.16,1.29-2.16,2.74-3.38,3.96-2.01,1.98-3.14,4.51-4.55,6.87-.26.42-.07,1.16.33,1.61.7.79,1.51,1.37,2.61,1.37,1,0,2.02-.09,3.04-.09,1.08,0,2,.71,2.17,1.75.15.85.22,1.72.27,2.59.08,1.01-.02,2.06.19,3.03.43,1.86.57,3.72.66,5.61.03.57.11,1.19.36,1.68.61,1.21.72,2.47.71,3.8-.02,2.61.03,5.22.12,7.83.04,1.59.32,3.19.3,4.78,0,1.59-.32,3.17-.36,4.76-.04,1.59.22,3.19.14,4.78-.19,3.95.33,7.83.94,11.69.27,1.73.48,3.43.47,5.18-.07,4.05-.03,8.12.53,12.16.16,1.14.32,2.37.07,3.47-.35,1.62-.12,3.13.17,4.7.3,1.71.51,3.46.65,5.19.29,3.47.54,6.95.28,10.44-.37,4.94.04,9.86.25,14.79.02.57.14,1.15.28,1.71.29,1.15.35,2.3-.08,3.42-.53,1.39-.55,2.83-.5,4.3.06,1.3.12,2.61.12,3.92,0,.72-.07,1.45-.17,2.16-.13,1.01-1.08,1.84-2.11,1.84-2.32-.02-4.65-.1-6.96-.11-1.45,0-2.9-.02-4.34.11-1.26.12-2.14.83-2.52,2.24.5,1.39,1.04,2.89,1.59,4.39.59,1.63.91,3.34,1.1,5.07.03.27-.55.85-.86.89-.15.02-.28.11-.42.1-2.3-.23-4.6-.51-6.92-.04-.99.19-2.01-.2-2.92-.66-.22-.1-.43-.43-.47-.67-.05-.42-.04-.89.1-1.28.61-1.84.49-3.72.29-5.61-.11-1.02-1-1.8-2.09-1.79-.44,0-.87,0-1.3.03-1.74.13-3.47.27-5.2.4-1.31.08-5.92-.23-6.92-.46-.88-.21-1.54-1-1.53-1.87,0-.43,0-.87.04-1.3.24-3.19.49-6.36.75-9.54.07-.88.18-1.74.31-2.6.19-1.13.43-2.25.65-3.37.43-.29.75-.61,1.14-.74,1.65-.52,3.32-.97,4.99-1.49.24-.07.45-.33.68-.5.25-1.12.5-2.24.79-3.46-.71-.88-1.69-1.67-2.1-2.69-.76-1.87-2.25-2.97-3.65-4.23-2.17-1.95-4.54-3.59-7.16-4.88-1.84-.91-3.51-2.03-4.93-3.52-3.01-3.15-6.31-6-9.6-8.83-1.33-1.14-2.59-2.32-3.42-3.91-.33-.62-.87-1.24-1.47-1.56-1.26-.68-1.81-1.83-2.47-2.96-.46-.83-1.16-1.27-2.25-1.29-1.32.63-3.02.61-4.44,1.73-1.45,2.55-3.42,4.88-5.25,7.31-2.71,3.59-5.54,7.08-8.34,10.59-2.09,2.61-4.18,5.2-6,8.01-1.68,2.57-3.76,4.79-6.49,6.32-1.03.57-1.84,1.39-2.53,2.35-.6.85-.53,2.03.24,2.79,1.51,1.5,3.2,2.49,5.46,1.83.26-.08.57-.06.88-.1,1.01.41,2.3.29,2.99,1.47-.17,1.72-.4,3.45-.48,5.17-.09,1.88-.03,3.77-.03,5.66,0,.43.03.87,0,1.31-.05.71-.02,1.47-.24,2.14-.41,1.28-.4,2.56-.4,3.88.01,1.59-.06,3.19-.1,4.78-.1,4.21-.31,8.42-.29,12.62.03,4.93-.14,9.85-.5,14.78-.25,3.48-.6,6.94-.36,10.44.06.72.04,1.45-.04,2.18-.47,4.03-.29,8.08-.49,12.11-.24,4.78-.17,9.59-.21,14.38,0,1.16-.01,2.31.1,3.48.27,2.75.22,5.49.08,8.26-.14,2.75,0,5.51.01,8.26,0,.58-.11,1.16-.12,1.74-.06,1.59-.1,3.19-.13,4.77-.02.8-.54,1.36-1.36,1.36-1.45,0-2.93.15-4.35-.09-2.6-.44-5.2-.42-7.81-.42-.72,0-1.47-.02-2.16.15-2.25.54-4.55.85-6.75,1.83-.22.29-.51.63-.74.99-.34.52-.44,1.12-.11,1.63.32.5.9.76,1.51.71.71-.07,1.46-.16,2.12-.41,2.08-.77,4.2-1.03,6.42-.84,1.01.1,2.03.08,2.89.12.93.43,1.71.81,2.44,1.15,6.16-.77,12.26,0,18.23-.31,1-.56,1.88-1.06,2.82-1.59.55,0,1.12,0,1.71,0,3.92.02,7.83.23,11.75-.02,2.17-.13,4.38.06,6.51-.26,2.38-.37,4.6.42,6.9.44.71,0,1.44.11,2.14.26,1.45.3,2.91.35,4.33,0,1.44-.36,2.88-.35,4.33-.38,2.17-.04,4.36,0,6.53-.02,1.02-.02,2,.08,2.98.46,1.51.6,3.12.62,4.72.53,1.74-.1,3.48-.18,5.21-.35,2.31-.22,4.65.03,6.94-.47,1.73.52,3.45.04,5.18-.07.44-.02.87-.03,1.3,0,2.02.17,4.04.3,6.05.54,2.61.31,5.2.29,7.78-.28.84-.18,1.71-.3,2.58-.31,2.47-.04,4.94,0,7.41.03.87,0,1.74.04,2.59.19,4.05.73,8.1.31,12.15.18,2.14-.61,4.32-.44,6.49-.45,2.32-.02,4.65-.11,6.97-.13.41,0,.81.18,1.23.29.65,1.24.63,2.51.46,3.74-.65.53-1.38.53-2.12.54-2.03,0-4.08-.19-6.08.05-3.32.41-6.64.54-9.96.57-3.92.04-7.84.06-11.75.1-1.16.02-2.34.03-3.48.2-5.61.86-11.26.96-16.9,1.29-3.62.2-7.25.11-10.88.13-5.23.03-10.45.13-15.67.04-11.47-.22-22.94-.21-34.4.04-3.77.08-7.54-.15-11.3.08-1.88.1-3.77.06-5.66.06-3.19,0-6.38,0-9.57-.03-1.48-.03-2.89.29-4.21.92-.38.18-.71.49-1.02.78-.61.56-.31,1.92.47,2.19.4.16.83.31,1.25.3.71,0,1.47,0,2.14-.24,1.14-.4,2.25-.53,3.41-.18,1,.3,2,.28,3.02.15.71-.08,1.44.04,2.15-.07,1.16-.17,2.32.13,3.44,0,1.32-.17,2.57-.3,3.87.1.99.3,2.03.29,3.01-.03,1.55-.49,3.14-.46,4.74-.46,5.96,0,11.9.06,17.85-.06,5.95-.12,11.89-.1,17.83.14,1.16.04,2.32.03,3.48.02,4.65-.05,9.29-.12,13.93-.14,5.23-.02,10.45,0,15.67,0,.88,0,1.75,0,2.61-.12,3.3-.46,6.61-.93,9.97-.92.28,0,.56-.1.84-.18,2.15-.57,4.33-.49,6.47-.2,1.05.14,2-.06,3.01-.06,1.15,0,2.29.23,3.45.35.28.03.58,0,.87-.06,4.44-.76,8.96-.65,13.44-.79,2.32-.07,4.63-.27,6.94-.35,2.3-.09,4.62.35,6.92.56.29.03.58,0,.88,0,3.34,0,6.67-.03,10.01-.05.58,0,1.17.04,1.73-.06,2.86-.53,5.79-.55,8.64-.96,3.61-.5,7.23-.65,10.85-.78,5.64-.21,11.29-.39,16.94-.63,2.02-.08,4.04-.29,6.06-.47,1.59-.16,3.16-.45,4.75-.51,1.6-.06,3.18-.16,4.76-.44.7-.12,1.44-.07,2.16-.06.58.02,1.18.28,1.72.16,2.33-.49,4.61-.27,6.89.3.54.14,1.15.09,1.72.07,2.62-.11,5.25-.06,7.83-.41,4.2-.57,8.41-.18,12.61-.32.42,0,.87.06,1.28.17,1.71.46,3.47.45,5.19.52,2.9.09,5.81.07,8.71.09,2.61.03,5.22.04,7.83.06,2.76.04,5.5-.06,8.21.6.84.2,1.73.07,2.61.08,5.51.05,11.03.14,16.55.11,3.9-.02,7.84.29,11.69-.73.27-.07.57-.07.86-.07,3.78-.05,7.53-.31,11.29-.73,1.71-.18,3.46.35,5.19-.05.26-.06.58.05.85.14,1.69.58,3.48.38,5.15.72,1.92.4,3.71.18,5.56-.15.42-.08.87,0,1.31,0,1.01-.02,2.03,0,3.03-.1,1.58-.17,3.16-.5,4.75-.57,1.72-.08,3.47.14,5.21.08,2.46-.07,4.91.16,7.35.37,2.48.22,4.92.24,7.38.18,1.46-.03,2.9-.06,4.36-.08,3.48-.07,6.98.03,10.43-.29,3.77-.35,7.54-.26,11.31-.49,2.3-.14,4.63-.23,6.95-.38,1.72-.11,3.43-.65,5.16.04.37.14.88.06,1.28-.06,1.57-.46,3.17-.3,4.77-.38,1.45-.07,2.91,0,4.35-.13,4.51-.43,8.97.04,13.46.37,3.01.8,6.04.59,9.06.02,1.15-.22,2.3-.27,3.45,0,.7.17,1.4.29,2.22.44.79-1.06,2.6-.65,3-2.28.09-1-1.26-1.6-.8-2.77.41-.07.84-.19,1.26-.19,5.09-.08,10.12.53,15.17,1.03.15.02.29.04.42.08,1.29.43,2.55.4,3.85.03.68-.19,1.45-.23,2.16-.17,2.47.23,4.93.06,7.39-.12,1.3-.09,2.62,0,3.91-.17,1.48-.18,2.84.5,4.32.47.87-.51,1.74-1.01,2.6-1.54.4-.24.43-1.12.17-1.59-.38-.67-.99-1.05-1.66-1.34-.97-.4-1.97-.46-3-.32-1.29.18-2.59.36-3.9.18-.67-.1-1.36-.76-1.35-1.47.05-2.75-.37-5.52.1-8.25.36-2.04.23-4.04.13-6.07-.14-2.89-.62-5.77.02-8.67.09-.42.06-.89-.03-1.3-.28-1.45-.06-2.9-.04-4.34.02-1.16.06-2.32.04-3.48-.05-3.34-.11-6.67-.19-10.01-.02-.72,0-1.48-.23-2.15-.37-1.13-.31-2.29-.41-3.44-.18-2.17-.17-4.34-.57-6.5-.21-1.12-.25-2.34-.06-3.46.3-1.89.23-3.76.29-5.64.09-3.2.05-6.38.32-9.57.18-2.16.15-4.34.59-6.49.11-.55.12-1.15.13-1.73.07-2.61.14-5.21.17-7.82.04-2.62.2-5.21.58-7.81.29-2.01.44-4.03,1.1-5.96.4-3.89,1.19-7.74,1.06-11.68-.03-.72-.12-1.5.09-2.17.48-1.55.41-3.15.67-4.72.45-2.7.64-5.49,2.09-7.94.38-.64.45-1.36.52-2.09.04-.36.27-.71.42-1.05.81.22,1.5.44,2.21.58.88.18,1.84-.55,1.72-1.46-.18-1.32.1-2.58.26-3.86-.98-1.95-1.77-4.02-2.98-5.8ZM384.89,178.66c.07.19.14.38.21.57.04,0,.06.02.11,0,0,.03,0,.06,0,.09.26.06.58.08.71.24,2.25,2.83,4.68,5.48,7.08,8.18.38.43.69.93,1,1.41,1.03,1.57,2.07,3.13,3.08,4.72.69,1.1.44,1.97-.96,2.29-.54-.61-1.12-1.25-1.63-1.83-1.12-.2-2.12-.36-2.95-.51-1.11-.66-1.45-1.68-1.68-2.62-.58-2.42-1.6-4.6-2.88-6.73-.74-1.22-1.22-2.61-1.74-3.95-.13-.34-.04-.78-.03-1.19-.02,0-.05,0-.06-.01,0-.03-.03-.06-.04-.08-.23.02-.41-.07-.46-.33,0-.06.17-.16.25-.24ZM379.27,179.18c.03-.09.18-.19.29-.19.13,0,.29.05.4.13.12.08.25.19.3.32.78,2.18,1.96,4.16,3.17,6.12,1.39,2.24,2.15,4.7,2.7,7.25.11.46-.45,1.25-.89,1.26-.58.01-1.15,0-1.72,0v-.03c-.43,0-.87.02-1.3,0-1.74-.1-2.45-.76-3.03-2.53-.69-2.08-.64-4.25-.72-6.38-.08-2,.34-3.99.82-5.95ZM376.86,132.23c.14,0,.29-.06.42-.04,2.15.37,4.18,1.11,6.14,2.03.42.19.55.61.44,1.17-1.21.26-2.46.55-3.72.8-1.12.23-2,1.18-3.35,1.01-.64-1.28-.55-2.75-.78-4.15-.05-.32.52-.85.86-.83ZM372.19,182.29c.29-1.42.56-2.84.79-4.27.16-1.02.43-2.01,1-2.85.91-1.35,1.47-2.82,1.83-4.38.03-.12.16-.27.28-.32.23-.09.49-.13.73-.13.07,0,.23.24.2.34-.13.55-.32,1.1-.46,1.64-.9,3.52-1.17,7.14-1.63,10.73-.19,1.56.02,3.18.11,4.76.04.73.26,1.43.34,2.15.36,3.02-.28,3.55-3.42,2.98-.62-.12-.9-.67-1.15-1.2.17-3.19.76-6.33,1.38-9.46ZM362.75,190.72c2.01-3.65,3.74-7.44,5.38-11.27.15-.34.61-.55.95-.83.12.33.32.6.29.83-.56,3.83-1.28,7.63-2.07,11.42-.1.56-.39,1.07-.66,1.79-1.36.56-2.49.52-3.62.32-.19-.04-.48-.39-.49-.59,0-.56-.05-1.22.21-1.68ZM368.7,197.01c.42-.04.88-.03,1.29.09,1.56.44,3.17.44,4.76.44,4.37,0,8.64.96,12.98,1.17.87.04,1.71.32,2.38,1.04-.39.74-.77,1.5-1.09,2.1-.06,1.11.98,1.17,1.38,2.05.03.32.16.9.14,1.46-.11,2.75-.11,5.5-.69,8.21-.21.99-.23,2.01-.29,3.02-.09,1.88-.09,3.77-.23,5.65-.07,1.16-.3,2.3.06,3.45.08.27.08.58.06.86-.49,4.79.17,9.57.08,14.35-.09,4.64-.08,9.27-.21,13.91-.05,1.62.22,3.18.41,4.77.13,1.14.51,2.29.51,3.42,0,4.8.8,9.53.88,14.32.06,3.19.15,6.38.37,9.56.18,2.74.52,5.49.92,8.2.2,1.3.39,2.57.42,3.88.02.72,0,1.48.2,2.16.91,3.11.63,6.34.97,9.5.17,1.57.03,3.19-.11,4.78-.24,2.64-.06,5.2.7,7.74.13.42.18.85.32,1.47-.2,1.54-.46,3.25-.65,4.98-.13,1.12.39,1.98,1.27,2.6.46.33,1.03.5,1.55.76,1.01.5,1.4,1.44,1,2.52-.09.23-.35.53-.58.57-1.6.33-3.22.2-4.75-.21-1.42-.4-2.84-.53-4.28-.61-.77-.05-1.31-.63-1.39-1.41-.27-2.74-.54-5.48-.83-8.2-.09-.92-.96-1.69-1.77-1.56-2.28.38-4.55.78-7.18,1.24-1.21-.23-2.34-.48-3.48-.65-1.46-.24-2.53.34-3.19,1.6.5,3.72.5,4.2-.27,7.8-.08.41-.28.85-.55,1.15-.28.29-.75.64-1.07.59-1.59-.2-3.15-.49-4.7-.82-.7-.16-1.35-.51-2.1-.79-.15-.56-.39-1.12-.41-1.67-.06-1,0-2.03,0-3.04,0-2.61-.02-5.22.03-7.83.05-2.76.16-5.5.24-8.26,0-.28.04-.58.12-.85.96-3.4.98-6.87.62-10.33-.25-2.49.03-4.9.49-7.26.92-.69,1.72-1.29,2.36-1.77.66-.96.51-1.85.59-2.71.12-1.3-.41-2.23-1.53-2.87-.38-.22-.75-.43-1.31-.76-1.12-2.31-2.93-4.42-4.15-6.86.24-.47.43-.86.62-1.24.12-.26.23-.53.4-.94-.09-1.44,0-3.08-.31-4.62-.76-3.6-.42-7.22-.37-10.83.02-.72.17-1.48,0-2.15-.55-2.04-.22-4.07.09-6.05.28-1.75.35-3.43.12-5.15-.4-3.06.12-6.05.61-9.04.11-.71.35-1.41.42-2.13.07-.71.18-1.48-.02-2.15-.48-1.57-.29-3.17-.37-4.76-.18-3.17.08-6.38-.74-9.51.32-1.76-.4-3.43-.38-5.17.02-1.59-.08-3.19-.17-4.77-.05-.72-.21-1.42-.38-2.51.11-.33.36-1,.56-1.68.6-2.1.98-4.24.82-6.44-.04-.57-.03-1.16-.02-1.74,0-.51.58-1.18,1.06-1.23,2.59-.27,5.18-.55,7.78-.79ZM353.87,193.89c-.14,0-.27-.09-.41-.14-.07-.23-.31-.58-.22-.7,1.77-2.47,3.71-4.8,6.28-6.49.2-.13.53-.1.8-.09.3,0,.39.65.14,1.15-.2.39-.43.76-.63,1.14q-.98,1.95-.96,4.65c-.42.25-.54.38-.66.38-1.45.05-2.88.08-4.33.1ZM344.48,273.43c-1.11-1.3-1.95-2.81-2.62-4.41-.05-.1.03-.27.08-.39.16-.29.42-.34.73-.17.13.07.25.16.34.26.88.97,1.72,1.95,2.59,2.91,1.26,1.39,2.58,2.74,3.8,4.18,2.52,2.95,5.29,5.72,7.05,9.26.43.89,1.44,1.47,1.33,2.62-.11.11-.2.23-.32.3-.68.45-1.42.49-1.96-.11-1.26-1.38-2.52-2.77-3.59-4.33-2.37-3.45-4.7-6.93-7.43-10.13ZM349.96,288.48c-1.12.38-2.3.43-3.4.19-2.09-.47-4.34.32-6.32-.88-.73-.81-.73-1.87-.82-2.84-.35-3.6-.81-7.17-1.86-10.65-.12-.41-.22-.85-.22-1.28-.02-1.6-.41-3.12-.76-4.67-.09-.41,0-.85,0-1.79.91,1.12,1.13,1.96,1.37,2.78.88,3.13,2.59,5.83,4.86,8.07,1.78,1.75,3.09,3.78,4.46,5.81.97,1.43,1.83,2.93,2.7,4.42.12.2,0,.54,0,.83ZM346.12,229.54c.12-.41.39-.78.61-1.21,1.45-.59,2.9-1.21,4.39-1.77.54-.2,1.12-.26,1.7-.3.42-.03.86.07,1.36.13.22.34.55.66.64,1.05.25.98.45,1.97.57,2.98.26,2.3.46,4.61.66,6.93.05.57.05,1.16,0,1.72-.28,2.45-.55,4.9-.91,7.34-.14.88-.18,1.72.03,2.58.36,1.48.02,2.87-.61,4.2-.11.24-.39.51-.62.55-1.57.28-3.13.5-4.7.02-.14-.04-.25-.16-.38-.24-.58-1.01-.86-2.13-1.05-3.28-.51-3-1.02-6-1.5-9-.14-.87-.18-1.73-.22-2.61-.1-2.46-.19-4.93-.24-7.39-.02-.56.13-1.15.29-1.7ZM348.7,258.1c1.45.3,2.84.37,4.26-.06.43-.13.45-.06,1.49.71.42,1.37.41,2.83.38,4.25-.05,2.16-.23,4.32-.5,6.47-.13.96-.18,2.02-.86,2.86-.28-.02-.65.07-.81-.07-1.41-1.22-2.88-2.41-4.15-3.76-2.77-2.94-5.51-5.89-8.51-8.58-.1-.09-.21-.21-.26-.34-.1-.24-.29-.53-.22-.75.08-.23.37-.54.6-.56,2.86-.35,5.72-.76,8.57-.16ZM328.87,228.15c0-.29.59-.82.89-.85,3.76-.35,7.49-.23,11.2.53.7.15,1.26.76,1.32,1.51.06,1.01.14,2.02.13,3.03-.05,5.66.51,11.24,1.74,16.76.22.99.4,1.98.56,2.98.18,1.02-.65,1.94-1.77,1.97-1.16.04-2.31,0-3.63,0-.84.13-1.83.29-2.83.46-.74.11-1.35-.22-1.72-.97-.2-.4-.33-.8-.53-1.2-.59-1.19-1.27-2.27-2.84-2.26-.2,0-.51-.35-.57-.6-.16-.53-.27-1.12-.28-1.69-.06-2.47-.45-4.88-1.16-7.24-.67-2.24-.91-4.51-.69-6.85.18-1.86.13-3.74.18-5.61ZM328.69,271.53c.71-3.23,1.38-6.46,2.75-9.5.05-.1.2-.22.3-.23.33-.01.55.17.66.48.05.14.11.27.12.41.06.42.11.86.12,1.29.12,5.64,1.26,11.15,2.43,16.64.6,2.83.65,2.82.23,6.31-.24.26-.39.56-.63.67-.84.41-1.68-.18-2.54-.04-.85.15-1.71.21-2.55.31-.33.03-.84-.48-.88-.82,0-.15-.07-.29-.07-.42-.06-3.9-.07-7.79-.2-11.68-.04-1.16,0-2.3.25-3.43ZM313.95,229.06c0-.42.09-.86.25-1.25.08-.23.38-.39.59-.56.12-.09.28-.17.41-.16,2.04.05,4.05-.18,6.05-.52.55-.1,1.15,0,1.73.03.52.02,1.23.53,1.29.98.25,1.72.59,3.43.66,5.15.11,2.92.63,5.72,1.28,8.57.89,3.93,1.8,7.91,1.33,11.97-.41,1.01-1,1.8-1.88,2.33-.28-.25-.53-.4-.65-.61-.41-.72-1.08-.98-1.82-.92-1,.06-2.03.18-3,.41-3.57.82-3.87-.3-4.36-2.99-.2-1.14-.29-2.3-.54-3.43-.42-1.83-.53-3.72-.89-5.56-.84-4.47-.55-8.94-.44-13.42ZM321.42,272.41c-1.15,2.32-2.47,4.58-3.63,6.9-1.16,2.34-2.38,4.63-3.59,6.94-.57,1.1-1.42,1.83-2.72,1.85-1.01.02-2.02-.02-3.03-.06-.49-.02-.93-.89-.66-1.36.77-1.38,1.53-2.78,2.39-4.12.94-1.46,1.96-2.85,2.96-4.27.33-.48.63-1,1.05-1.38,2.81-2.54,4.79-5.79,7.32-8.58,1.06-1.17,1.83-2.6,2.7-3.93.33-.48.64-.96,1.22-1.19.11.24.3.48.31.72,0,.27-.1.57-.23.82-1.41,2.53-2.78,5.07-4.08,7.66ZM325.11,283.7c0,1.46-.28,2.86-1.26,4.24-1.69.66-3.48.22-5.36.16-.03-2.36,1.82-3.15,2.76-4.64.55-1.36,1.23-2.79,1.29-4.43.04-.89.6-1.6,1.1-2.31.27-.38.67-.44,1.12-.31.08.27.25.53.26.8.05,2.17.08,4.32.1,6.49ZM292.38,231.25c-.05-1.01-.11-2.02-.16-3.02,0-.35.45-.86.79-.94.14-.03.28-.15.41-.14,2.63.12,5.15-.68,7.78-.63,3.47.07,3.47-.04,8.11.93.24.84.54,1.52.63,2.22.14,1.15.18,2.31.2,3.48.04,2.03-.03,4.07.63,6.04.08.27.11.57.12.86.06,3.51.99,6.88,1.67,10.28.17.85.24,1.72.29,2.58.07,1.2-.63,1.94-1.84,1.88-2.46-.12-4.9.22-7.37.18-2.45-.06-4.91.3-7.37.5-.76.06-1.43-.12-2.04-.57-.13-.25-.34-.5-.36-.77-.27-4.19-1.24-8.32-1.19-12.55,0-.58-.1-1.16-.22-1.72-.47-2.3-.63-4.59-.05-6.9.13-.53,0-1.14-.02-1.71ZM272.99,229.07c0-.51.58-1.09,1.14-1.13,1-.1,2.04-.33,3.02-.21,1.9.22,3.76,0,5.63-.25.72-.09,1.45-.14,2.17-.17,2.73-.08,3.33.45,3.54,3.16.29,3.76.68,7.5.88,11.27.13,2.74.69,5.46,1.08,8.19.15,1,.38,1.99.5,3.01.26,2.3-.15,2.89-2.27,3.41-.7.16-1.42.3-2.14.38-2.16.25-4.31.48-6.49.68-1.17.11-2.31-.08-3.34-.88-.1-.37-.29-.77-.32-1.2-.28-2.88-.79-5.73-1.28-8.6-.12-.71-.24-1.43-.29-2.16-.12-2.31-.45-4.61-.88-6.9-.38-1.99-.69-4-.94-6.01-.11-.86-.04-1.74-.02-2.6ZM252.93,230.45c0-1.35.68-1.93,2.25-1.99,3.9-.17,7.81-.32,11.73-.48,1.12-.04,1.92.55,2.18,1.69.36,1.55.71,3.11.97,4.68.33,2.01.53,4.03.87,6.04.42,2.56.91,5.13,1.38,7.69.15.86.42,1.71.45,2.55.07,1.9.23,3.76.71,5.61.16.64-.42,1.51-1.07,1.7-.56.16-1.12.33-1.7.41-.86.09-1.73.09-2.6.16-2.75.2-5.5.18-8.22.73-.84.17-1.73.16-2.6.16-.95,0-1.7-.44-2.07-1.34-.32-.8-.66-1.63-.77-2.47-.77-6.19-1.74-12.35-1.52-18.62,0-2.17,0-4.34,0-6.51ZM221.21,230.89c1.36-.26,2.78-.61,4.2-.77,1.43-.16,2.88-.14,4.32-.15.47,0,.84.34.99.73.47,1.22.88,2.45.94,3.78.06,1.3.22,2.6.27,3.9.17,4.64.71,9.23,1.45,13.81.35,2.14.18,4.35.76,6.46.11.41.21.84.42,1.19.12.2.47.33.73.35.75.05,1.55-.55,1.57-1.17.03-1,.14-2.05-.03-3.02-.37-2.16-.49-4.31-.6-6.49-.08-1.59-.35-3.15-.53-4.74-.14-1.29-.38-2.59-.41-3.88-.06-3.47-.05-6.95-.05-10.42,0-.45.63-1.16,1.08-1.23.43-.06.86-.18,1.28-.2,3.19-.1,6.37-.19,9.56-.26.42-.01.85.13,1.28.2.27.05.77.64.78.94.05.58.11,1.15.1,1.73-.03,2.9-.05,5.79.52,8.67.14.7.16,1.43.15,2.16-.03,3.93.71,7.78,1.08,11.67.13,1.43.56,2.83.84,4.26.16.8-.26,1.57-.92,1.71-4.11.81-8.21,1.68-12.34,2.42-1.56.29-3.16.3-4.76.41-1.73.1-3.46.14-5.18.45-2,.37-4.04.22-6.06-.05-.51-.06-1.15-.68-1.17-1.13-.04-2.03-.06-4.05.31-6.06.1-.56.29-1.16.21-1.71-.75-4.73-.51-9.54-1.21-14.27-.35-2.42-.35-4.91-.49-7.36-.04-.75.21-1.43.89-1.92ZM204.5,231.13c3.33-.13,6.66-.25,9.98-.31.76-.01,1.34.52,1.67,1.21.26.52.54,1.06.62,1.62.41,3.01,1.19,5.97,1.12,9.04-.03,1.15.02,2.34.25,3.47.75,3.58.56,7.21.72,10.82.03.72-.03,1.46-.17,2.16-.26,1.26-.61,2.51-.97,3.93-3.38.66-6.43.51-9.46.63-.63.02-1.38-.65-1.54-1.33-.23-.99-.55-1.96-.65-2.97-.28-3.02-1.09-5.99-1.09-9.04,0-.43-.04-.88-.14-1.3-.92-3.98-.87-8.06-1.16-12.09-.1-1.44-.3-2.87-.44-4.31-.06-.68.58-1.49,1.26-1.52ZM188.71,232.99c.4-.19.64-.4.9-.42,2.74-.24,5.48-.45,8.22-.65.62-.04,1.06.35,1.51.95.76,4.42,1.76,8.95,2.01,13.58.04.73.23,1.44.35,2.15.13.71.38,1.42.37,2.13-.05,4.09.91,8.04,1.65,12.02.17.93-.38,1.59-1.45,1.73-1.42.2-2.85.4-4.36.61-1.35-.29-2.61-.93-3.62-2.06-.96-1.08-2.02-2.07-3.12-3.2-.36-1.77-.89-3.55-1.15-5.42-.75-5.6-1.2-11.22-1.51-16.85.65-1.52-.29-3.13.19-4.58ZM195.34,280.32c.31.81.65,1.64,1.13,2.34,1.56,2.28,2.79,4.76,4.69,6.81.47.5.69,1.24,1,1.89.14.3-.26,1.02-.56,1.03-2.31.06-4.61.14-6.92.19-.29,0-.88-.53-.9-.81-.07-.45-.12-.88-.16-1.3-.22-3.49-.95-6.89-1.45-10.32-.36-2.43-.78-4.86-1.16-7.29-.08-.56-.2-1.15.21-1.78.3.24.76.41.87.73,1.11,2.82,2.14,5.68,3.24,8.52ZM189.68,292.34c.16.83-.31,1.51-1,1.61-1.86.31-3.74.34-5.61.02-.61-.1-1-.53-1.25-1.09.4-3.45.88-6.88,1.87-10.22.42-4.04,1.66-7.91,2.28-11.92.09-.57.41-1.06,1.07-1.14.83,5.86,1.66,11.73,2.52,17.58.13.88.29,1.73.05,2.59-.27.88-.06,1.71.09,2.57ZM166.01,292.23c-.16.1-.28.23-.41.25-1.74.17-3.45-.15-5.13-.48-.48-.1-.65-.5-.76-1.16,1.35-2.35,2.72-4.86,4.66-7.04,2.12-2.37,4.11-4.85,6.15-7.28.09-.11.19-.21.29-.31,1.23-1.24,2.53-2.39,3.65-3.71,1.02-1.19,1.83-2.58,2.77-3.85.23-.31.64-.5.94-.74.28.26.36.53.18.82-1,1.59-1.95,3.21-3.03,4.74-1.94,2.73-3.42,5.69-4.8,8.71-.66,1.45-1.35,2.86-2.52,4-1.02,1.02-1.75,2.28-2.38,3.74.12.71.26,1.53.39,2.31ZM161.25,270.52c-.04-.67.63-1.39,1.34-1.48.41-.06.87-.16,1.27-.07,1.81.4,3.6.85,5.41,1.28.37.09.58.78.35,1.08-.89,1.13-1.78,2.26-2.67,3.38-.27.33-.57.65-.87.96-1.47,1.56-2.94,3.11-4.36,4.61-.62,0-1-.35-.9-.76.69-2.97.65-5.98.43-8.99ZM170.19,289.22c1.12-2.19,2.24-4.38,3.36-6.57.27-.52.48-1.06.79-1.54,1.59-2.42,3.22-4.8,4.83-7.21.79-1.21,1.54-2.45,2.37-3.64.22-.34.62-.58.95-.88.12.31.33.59.29.82-.56,2.98-1.11,5.96-1.9,8.9-1.01,3.78-1.65,7.63-2.18,11.51-.09.7-.33,1.4-.6,2.06-.33.81-1.33,1.4-2.09,1.3-1.29-.18-2.57-.41-3.86-.57-1.13-.14-2.31,0-3.87-.47.75-1.46,1.34-2.58,1.91-3.71ZM161.73,235.91c2.27-.9,4.71-1.76,7.25-2.36.28-.07.57-.06.86-.1.74-.1,1.51.58,1.39,1.27-.63,3.74-.62,7.5-.4,11.27.1,1.6.06,3.19.1,4.79.05,2.75-.22,5.49.4,8.23.29,1.25.05,2.6.18,3.9.13,1.32.94,2.06,2.34,2.09,1.02-.83,1.02-2,.91-3.14-.28-2.75-.7-5.48-.88-8.22-.19-2.89-.54-5.78-.19-8.68.28-2.29.4-4.62.75-6.9.22-1.42.73-2.78,1.18-4.42,1.58-.62,2.91-1.02,4.43-.76.97.18,2.01-.09,3.02-.12.69-.02,1.51.62,1.58,1.24.44,3.45,1.14,6.88,1.18,10.37.03,1.46.16,2.88.42,4.31.41,2.12.53,4.31.8,6.63-.97.95-2.35,1.43-3.5,2.27-2.49,1.79-4.75,3.78-6.62,6.23-.97,1.26-2,2.49-3.58,3.31-1.68-.02-3.3-.76-4.95-1.18-2.1-.52-4.09-1.45-6.32-1.41-.29,0-.77-.58-.8-.93-.09-1.15-.21-2.31-.24-3.47-.02-1.15.16-2.32-.36-3.42,0-2.58-.76-5.2.41-7.73.17-.37.2-.86.17-1.28-.19-3.04.28-6.08-.03-9.14-.09-.86-.16-1.74.49-2.66ZM155.78,191.09c.25-.03.62-.1.73.03,1.2,1.42,2.58,2.63,4.08,3.72.43.32.71.84,1.03,1.24-.54.95-1.33,1.18-2.2,1.29-.92.11-1.79-.3-2.09-1.11-.58-1.6-1.12-3.22-1.66-4.84-.04-.1.05-.33.11-.34ZM146.85,180.64c.41-.2.83-.28,1.13.11.81,1.02,1.57,2.08,1.85,3.39.73,3.24,1.78,6.38,2.96,9.49.3.8.47,1.66.68,2.5.1.41-.48,1.24-.89,1.34-1.57.38-3.14.37-4.69,0-.25-.05-.51-.32-.62-.55-.24-.51-.54-1.07-.55-1.61-.06-4.76-.05-9.52-.06-14.29,0-.13.13-.26.18-.38ZM142.53,134.22c.1-.71.29-1.42.6-2.07.15-.33.61-.69.95-.73,2.29-.23,4.6-.29,6.78.72,2.36,1.09,4.84,1.83,7.34,2.5.4.1.77.35,1.15.53-.93,2.23-3.21,2.85-4.78,4.27-2.84,1.43-5.83,2.42-9.02,2.92-1.16-.21-1.94-1.09-2.99-1.85-.56-2.02-.33-4.16-.03-6.29ZM138.8,183.2c1.22-2.78,1.49-5.86,2.83-8.59.05-.1.21-.17.33-.19.34-.06.57.08.66.4.06.27.16.56.18.83.17,2.44.32,4.89.45,7.02-.13,3.35-.06,6.37.29,9.39.17,1.42.06,2.87.04,4.32-.02,1.18-.7,1.93-1.81,1.99-.73.05-1.44.08-2.17.08-1.05,0-1.72-.55-1.74-1.48-.04-1.59.01-3.18-.07-4.76-.15-3.07.68-6.01,1-9.01ZM135.1,178.75c.14-.22.4-.37.61-.56.12.22.39.43.38.63-.09,1.15-.22,2.3-.38,3.44-.17,1.14-.42,2.27-.58,3.4-.42,3.01-.73,6.01-.28,9.04.1.71.06,1.44.04,2.17-.02,1.38-.77,2.17-2.08,2.25-2.32.14-4.61-.11-6.92-.28-.56-.04-.89-.75-.65-1.33.1-.27.18-.56.31-.81,1.76-3.48,3.38-7.04,5.36-10.39,1.46-2.48,2.64-5.13,4.19-7.57ZM119.12,204.88c-.2.05-.3-.13-.24-.44.02-.08.14-.13.22-.19.04.11.1.21.14.32-.03.11-.05.3-.12.32ZM118.82,199.36c-.86-.05-1.73-.12-2.58-.27-.42-.07-.79-.33-1.16-.54-.49-.26-.79-1.02-.59-1.47.46-1.06.93-2.11,1.78-2.95,1.86-1.81,3.65-3.7,5.55-5.47,1.49-1.38,2.86-2.84,4.07-4.47.77-1.03,1.44-2.18,2.59-2.86.51.2.59.62.4.98-.7,1.42-1.41,2.86-2.23,4.21-2.25,3.72-3.99,7.68-5.76,11.64-.4.91-1.14,1.25-2.08,1.2ZM120.13,249.34c.11-.71.06-1.45.06-2.18.06-5.66.13-11.32.15-16.98.01-1.74-.09-3.48-.14-5.22-.1-3.19.03-6.38.71-9.52.14-.71.29-1.44.26-2.15-.08-2.95.59-5.75,1.42-8.6.31-.22.64-.6,1.02-.68.85-.17,1.72-.26,2.58-.26,1.75,0,3.48-.15,5.2-.44,2.4-.39,2.41-.36,5.14.23,1.21-.43,2.34-1.17,3.71-1.01,3.01-.58,6.08-.57,9.11-.76,2.03-.12,4.06-.09,6.08-.36,1.31-.18,2.61-.17,3.81.39,1.93-.18,3.56-1.32,5.46-1.41.12,0,.25.15.37.23-.93,1.01-2.14,1.55-5.75,2.53-.17.23-.42.43-.49.68-.43,1.54-.89,3.07-.92,4.68-.06,3.63-.12,7.26-.17,10.89-.06,4.2-.05,8.41-.28,12.61-.02.29-.11.59-.06.86.48,2.92-.17,5.78-.33,8.68-.07,1.15-.18,2.31-.2,3.47-.03,2.47.04,4.94-.03,7.4-.09,3.92-.08,7.84.02,11.75.1,4.2,0,8.42,0,12.63,0,.71,0,1.46-.15,2.17-.55,2.71-.8,5.44-.48,7.71-.27,1.57-1,2.31-1.61,3.1-1.18,1.5-2.1,3.13-2.79,4.9-.44,1.12-.06,2.42.99,3.05.87.51,1.79.89,2.67,1.31.57,1.31.29,2.64.27,3.92-.02,1.88-.22,3.74.21,5.61.23.98.21,2.02.21,3.03,0,1.32.05,2.58.37,3.88.39,1.54.42,3.17.04,4.74-.59,2.45-.47,4.89-.05,7.33.23,1.29.35,2.6.12,3.9-.54,3.16-.48,6.35-.63,9.53-.03.93-.62,1.6-1.56,1.74-2.31.36-4.63.35-6.95.19-.53-.03-1.09-.61-1.11-1.14-.02-.88-.04-1.74-.03-2.6.02-1.75.08-3.49.08-5.23,0-1.34-.76-2.13-2.18-2.16-2.46-.04-4.91-.37-7.39-.16-1.29.11-2.61-.07-3.91-.04-1.56.05-2.38,1.19-2.25,2.62.07.86.3,1.71.5,2.54.27,1.15.31,2.29.21,3.47-.08,1.12-.67,1.93-1.73,2.22-.7.19-1.41.31-2.03.45-1.65-.43-3.19-.82-4.72-1.28-1.42-.41-1.95-1.71-1.26-3.11.37-.77.88-1.49,1.36-2.3.13-1.37-.15-2.82.31-4.24.55-1.69.6-3.47.44-5.18-.18-2.05,0-4.07-.04-6.08-.04-1.89-.05-3.79-.28-5.66-.41-3.47-.53-6.93-.48-10.42,0-1.3.12-2.62.32-3.9.27-1.75.27-3.45-.05-5.19-.27-1.42-.38-2.88-.46-4.32-.06-1.16-.07-2.32-.41-3.45-.07-.27-.17-.6-.11-.85.77-3.19-.58-6.32-.23-9.5.04-.28-.03-.58-.06-.87-.6-4.75-.53-9.53-.64-14.32-.05-2.3-.14-4.6-.8-6.89-.55-1.91-.79-3.96-.46-6.01ZM62.68,292.1c1.01.97,2.13,1.91,3.09,2.99,1.87,2.08,4.11,3.69,6.61,4.86,3.08,1.43,5.54,3.67,8.06,5.83.17.15.24.55.18.77-.06.22-.35.49-.57.52-.56.08-1.14.08-1.71.03-.28,0-.54-.19-.8-.32q-3.59-1.65-7.32-2.1c-2.76-3.95-5.52-7.67-7.92-11.63-.19-.31-.27-.77.38-.94ZM55.18,289.36c.14,0,.31.02.4.09.38.42.82.83,1.1,1.33,2.23,3.88,4.77,7.56,7.37,11.21.75,1.05,1.4,2.18,2.06,3.23-.16.33-.22.73-.41.79-2.05.73-4.2.95-6.31,1.42-.65.15-1.5-.38-1.73-1.02-.28-.82-.57-1.63-.74-2.48-.27-1.26-.49-2.55-.63-3.84-.4-3.44-1.24-6.8-1.65-10.24-.04-.3.24-.49.54-.48ZM47.61,299.23c.25-1.55.55-3.14.51-4.7-.08-2.64.52-5.13,1.18-7.6.34-.02.59-.03.9-.05.34,1.67.65,3.36,1.01,5.03.33,1.54.79,3.07,1.09,4.62.37,1.98.63,3.98.95,5.96.23,1.43.47,2.84.7,4.26.08.48-.42,1.19-.91,1.31-.13.03-.26.11-.4.12-1.28.19-2.56.37-4.11.6-1.49-4.56-1.55-5.69-.92-9.56ZM43,293.46c.35-1.1.61-2.23,1.02-3.3.12-.31.61-.45.94-.66.37.62.34,1.22.2,1.77-.51,2.12-.57,4.28-.68,6.44-.06,1.44-.22,2.89-.43,4.31-.42,2.8-.44,2.8,0,5.97-1.24.53-2.52.3-3.8.23-.55-.01-1.04-.57-1.11-1.12-.15-1.18.13-2.26.51-3.37,1.17-3.41,2.26-6.85,3.37-10.27ZM26.61,307.9c.13-.44.15-.89.37-1.21,1.35-1.85,2.51-3.83,4.17-5.48,1-1,1.75-2.28,2.65-3.4.8-1.01,1.77-1.89,2.48-2.97.89-1.34,1.96-2.45,3.26-3.38.26.02.47.22.36.54-.99,3.31-1.95,6.59-3.64,9.65-1.11,1.99-1.82,4.21-1.87,6.55,0,.12-.15.23-.43.65-2.58.24-4.99.13-7.35-.98ZM75.86,432.58c-3.78.17-7.55.28-11.32.11-.86-.04-1.73-.16-2.58-.33-1-.21-2.02-.36-3.01-.11-1.17.29-2.3.11-3.46-.05-.71-.09-1.47-.14-2.16,0-3.58.7-7.22.35-10.84.6-.14,0-.29,0-.43-.06-3.6-.91-7.2-.45-10.8-.06-.86.1-1.72.28-2.55-.18-.71-.86-.57-1.93-.6-2.9-.09-2.61-.05-5.23-.04-7.84,0-2.32.19-4.65-.24-6.95-.06-.29-.1-.58-.06-.87.42-2.48-.14-4.9-.36-7.36-.16-1.87-.23-3.76-.23-5.64,0-2.76.05-5.51.1-8.27.02-1.01-.02-2.05.19-3.03.53-2.58.55-5.2.5-7.81-.06-3.33.31-6.66,0-9.99-.09-.99.11-2.01.19-3.22.5.28.85.46,1.17.64.04-.18.17-.47.11-.69-.69-2.88-.69-5.73.06-8.58.03-.14.11-.29.08-.42-.43-2.01.2-4.06-.12-6.02-.35-2.18-.29-4.34-.41-6.5-.02-.59-.08-1.19.05-1.73.79-3.44.45-6.94.73-10.41.11-1.3.1-2.61.19-3.91.1-1.3.22-2.61.41-3.89.19-1.35-.48-2.56-.46-3.87.02-1.31.02-2.62.1-3.92.04-.72.29-1.41.83-2.02.61-.24,1.27-.49,1.83-.69.91-.73.25-1.79,1.1-2.76-.1.07.12-.18.37-.25,3.08-.98,6.28-.99,9.46-1.07,1.31-.03,2.62-.02,3.93.06,2.18.13,4.35.02,6.08-.6,1,0,1.45.37,1.93.69,1.68,1.12,1.77,1.13,3.38-.09.58-.44,1.17-.82,1.89-1.01,3.95-1.02,7.92-1.78,12.02-1.64.96.03,1.94.98,1.91,2-.01,1.45.02,2.92-.23,4.33-.48,2.89-.49,5.78-.55,8.68-.04,1.88-.15,3.77-.24,5.65-.02.29-.16.58-.11.86.53,3.49-.36,6.94-.26,10.42.1,3.63-.2,7.28.12,10.89.47,5.21.39,10.42.64,15.64.12,2.61.11,5.23.18,7.84.14,5.36.67,10.7.6,16.09-.04,3.17.3,6.36.64,9.52.22,2.03.3,4.06.28,6.08-.05,4.07,0,8.11.48,12.16.33,2.86.11,5.77-.26,8.64-.14,1.05.01,2,.45,2.95.16.35-.26.87-.67.89ZM163.21,332.91c-.23.82-.25,1.72-.26,2.59-.02,2.31-.11,4.65.08,6.95.23,2.77.08,5.5,0,8.26-.04,1.31-.05,2.61-.05,3.91,0,3.2-.1,6.38-.41,9.56-.21,2.17-.29,4.34-.25,6.52.08,4.36-.2,8.7-.5,13.04-.18,2.88-.66,5.74-1.04,8.62-.19,1.45-.29,2.88-.03,4.32.33,1.72.33,3.46.3,5.2-.05,2.18.08,4.35.08,6.53,0,1.74.08,3.5-.16,5.21-.49,3.48-.4,6.95-.43,10.43-.03,2.18,0,4.35-.04,6.52,0,.41-.21.82-.31,1.21-1.37.78-2.84.84-4.27.81-7.4-.17-14.79.41-22.18.26-3.33-.06-6.67-.02-10.01-.02-.43,0-.87-.07-1.3-.03-2.02.18-4.03.39-6.05.59-2.1-.78-4.3-.42-6.44-.54-2.03-.09-4.07-.1-6.1-.06-3.77.07-7.52-.03-11.28.48-2.56.34-5.19.42-7.78-.29-.96-.26-2.01-.18-3.02-.32-.4-.06-.77-.29-1.11-.41-.24-.84.1-1.51.21-2.22.2-1.3.24-2.59-.12-3.88-.22-.84-.51-1.7-.51-2.54,0-2.33-.65-4.58-.73-6.91-.16-4.5-.14-8.98,0-13.48.09-2.58-.03-5.22-.58-7.78-.28-1.28-.42-2.56-.42-3.87-.03-4.35.05-8.7-.45-13.04.56-2.61-.22-5.18-.21-7.77.01-2.46-.11-4.93-.12-7.39-.04-4.19-.04-8.4-.06-12.6,0-1.31.01-2.63-.13-3.92-.32-3.04-.11-6.05.19-9,.29-.25.5-.55.75-.58.56-.09,1.14-.07,1.72-.06,1.73.06,3.48.05,5.21-.24,1.29-.22,2.59-.26,3.89-.05.27.05.5.25.76.39.43.85-.08,1.67-.13,2.51-.06,1.3-.29,2.59-.34,3.89-.06,1.83.78,3.04,2.64,3.45,4.01-.83,8.08-.59,12.13-.57,1.58,0,3.17.06,4.71.6.94.32,1.66-.22,2.16-1.04.04-.29.18-.58.13-.85-.24-1.27-.53-2.55-.82-3.82-.47-2.11-.97-4.21-1.41-6.33-.04-.2.24-.48.4-.77,1.65-.4,3.35-.76,5.1-.66.43.02.86.09,1.29.16.4.06,1.04.86,1.03,1.27-.06,2.32-.14,4.64-.2,6.96-.01.58,0,1.16,0,1.74-.02,1.46.66,2.48,2.13,3.14.28-.04.72-.05,1.1-.18,1.27-.44,2.55-.53,3.86-.37,1,.13,2.04.23,3.01.48,2.32.58,4.59.53,6.91-.48.81-1.13.9-2.64,1.4-3.97.49-1.35.63-2.8.39-4.29-.17-1.08.64-1.91,1.8-1.99,1.01-.07,2.02-.06,3.04-.03.61.03,1.33.83,1.4,1.47.21,1.74.1,3.47-.23,5.18-.31,1.65.1,3.17.69,4.66.46,1.15,2.12,1.89,3.28,1.48.14-.06.3-.07.41-.14,1.87-1.3,3.98-1.64,6.2-1.69,1.14-.03,2.3-.24,3.39-.36.99.48,1.89.91,2.74,1.33,1.4-.33,2.07-1.2,2.14-2.49.08-1.73-.16-3.49.87-5.15-.67-2.27-.75-4.13-.72-6.04.06-5.06.03-10.14,0-15.21-.05-5.8-.16-11.6-.22-17.4-.02-.72,0-1.45.48-2.06.28,0,.6-.06.81.06.22.14.46.43.49.68.26,2.3.58,4.6.67,6.91.1,2.61.34,5.19.79,7.78.61,3.43.62,6.93.45,10.4-.13,2.46-.16,4.93-.81,7.35ZM209.85,439.19c-1.9-.15-3.73.35-5.61.38-1.74.02-3.49.04-5.22.06-2.47.04-4.93.11-7.37.62-.7.15-1.43.15-2.16.2-2.74.2-5.49.21-8.22.67-1.55.27-3.17.07-4.77.1-2.9.04-5.8.1-8.7.12-.56,0-1.14-.1-1.71-.2-.64-.11-1.25-1-1.13-1.65.13-.71.29-1.42.55-2.08.21-.57.69-.91,1.32-.98.43-.05.87-.13,1.3-.07,2.61.35,5.22.14,7.82.11,1.45,0,2.93-.06,4.32-.39,2.45-.59,4.89-.56,7.33-.22,2.15.29,4.36.18,6.47,1,1.54-.19,2.68-.34,3.83-.5.86-.11,1.71-.21,2.56-.38,3.11-.65,3.92-.7,7.82-.41,1.02.77,1.59,1.9,2.2,3-.26.26-.47.63-.65.62ZM211.64,356.7c-.06,2.45-.36,4.89-.57,7.35-.25,2.75-.36,5.49-.31,8.25.1,5.8-.03,11.61-.06,17.41,0,.58-.07,1.15-.14,1.73-.21,2.16-.43,4.32-.64,6.48-.04.43,0,.88-.07,1.31-.83,4.74-.72,9.53-.74,14.31-.02,4.94.15,9.87.23,14.8,0,.58,0,1.16-.02,1.73-.04.97-.73,1.67-1.63,1.68-.72,0-1.46-.07-2.17-.02-2.18.17-4.34.31-6.5.6-1.88.24-3.73.2-5.62,0-4.61-.52-9.24-.86-13.85.03-.57.11-1.16.14-1.73.14-2.61-.03-5.21-.1-7.81-.1-1,0-2.01.18-3.01.2-.75.03-1.43-.2-2.09-1-.98-3.61-1.12-7.51-.65-11.41.42-3.48.53-6.93.43-10.42-.05-1.6-.02-3.18,0-4.78.03-2.04.05-4.07-.31-6.08-.39-2.17-.26-4.32.06-6.49.41-2.73.78-5.46,1.14-8.19.09-.72.09-1.45.14-2.18.15-2.46.13-4.92.54-7.37.17-1,.09-2.03.07-3.04-.06-5.08.03-10.15.37-15.22.08-1.29.12-2.61.08-3.91-.05-2.19,0-4.33.4-6.5.37-2,.25-4.06-.14-6.06-.41-2.03-.4-4.02.06-6.05.25-1.12.25-2.3.36-3.46.15-1.58.39-3.16.42-4.75.05-1.44-.29-2.9-.16-4.33.17-1.76-.02-3.48-.16-5.2-.05-.73-.09-1.47-.34-2.14-1.1-2.98-.89-6.05-.41-9.04.39-2.44.62-4.88.7-7.34,0-.11.14-.22.22-.34.24-.12.48-.34.74-.36,1.59-.16,3.17-.04,4.75.34.98.24,1.99.38,3,.46,2.3.18,4.63.15,6.93.54,1.26.22,2.65.27,3.88-.03,1.71-.4,3.47-.26,5.16-.65,2.99-.68,6.03-.88,9.08-.99.43-.02.9-.23,1.28-.12,2.48.72,4.89.06,7.33-.2.14,0,.29.04.43.06.18.21.52.41.52.61,0,.87.14,1.83-.18,2.58-.79,1.85-.6,3.72-.23,5.55.29,1.45.27,2.88.32,4.32.18,4.77,0,9.57.77,14.32.16.99.17,2.04.06,3.03-.5,3.89-.34,7.8-.54,11.7-.17,3.31-.04,6.64.42,9.97.38,2.71.27,5.5.19,8.25ZM211.69,291.69c-.29.03-.57.07-.87.09-1.13.07-2.26.15-3.38.21-.25-.26-.52-.44-.62-.69-.75-1.73-1.55-3.41-3.06-4.66-1.62-2.54-3.65-4.82-4.84-7.65-.9-2.13-1.98-4.18-2.93-6.28-.3-.65-.45-1.35-.59-2.06-.03-.18.23-.44.41-.62.06-.06.3-.04.41.04,1.41,1.01,2.7,2.17,3.66,3.62,1.36,2.07,3.07,3.79,4.97,5.38,2.24,1.85,4.1,4.04,5.27,6.78.67,1.59,1.57,3.08,2.36,4.63.25.49-.19,1.13-.79,1.21ZM232.93,437.91c-4.33.03-8.64.31-12.94.76-1.86.19-3.74.14-5.62.16-.18,0-.52-.29-.54-.47-.02-.23.19-.51.33-.74.06-.11.21-.2.34-.25.27-.09.55-.18.84-.21,2.14-.2,4.31.03,6.43-.48,1,.22,1.99.02,3-.13,2.88-.4,5.76-.2,8.63.15.54.06,1.09.31,1.25,1.11-.58.04-1.14.11-1.71.11ZM243.91,420.36c-.45,2.56-.95,5.11-1.47,7.79.18.86.45,1.84.55,2.84.05.53-.1,1.15-.34,1.65-.17.34-.6.6-.96.79-.23.13-.57.15-.84.11-1.72-.2-3.45-.39-5.15-.65-1.03-.16-1.37-.45-2.78-1.88-.07-.29-.21-.55-.21-.84-.03-3.03-.05-6.06-.04-9.09,0-.57.11-1.13.16-1.49.43-.93,1.07-1.25,1.78-1.44,1.25-.32,2.52-.65,3.8-.86,1.28-.2,2.58-.28,3.87-.35.81-.05,1.6.8,1.65,1.7.02.58.07,1.17-.02,1.72ZM241.78,398.12c.84.49,1.11.99,1.15,1.59.15,2.02.24,4.05.38,6.08.12,1.73.29,3.46.4,5.19.05.8-.7,1.73-1.48,1.95-.41.12-.83.29-1.25.32-2.02.19-4.04.37-6.06.51-.42.03-.86-.12-1.28-.19-.32-.06-.8-.61-.8-.92,0-.43-.08-.89,0-1.29.63-3.26,1.28-6.53,1.68-9.84.14-1.15.43-2.28,1.25-3.25,2.07-1.19,4.19-.12,6.01-.15ZM236.01,390.54c.06-1.15.27-2.29.27-3.43,0-1.49.56-2.81,1.11-4.14.31-.73,1.51-1.05,2.24-.62.25.14.53.25.74.44.83.78,1.64,1.59,2.66,2.6-.06,1.26-.09,2.27-.19,3.26-.14,1.41-.33,2.82-.49,4.11-.94.76-1.76-.06-2.58.18-.82.23-1.69.3-2.54.4-.47.06-1.08-.55-1.12-1.09-.05-.58-.11-1.14-.08-1.71ZM243.69,376.69c-2.12,1.06-2.29,1.05-3.49-.27.71-1.76,1.7-3.33,3.34-4.42.09-.06.32-.07.42,0,.19.16.52.39.5.54-.22,1.42-.51,2.84-.76,4.15ZM256.96,427.31c.11.54-.02,1.15-.15,1.72-.27,1.26-.61,2.52-.89,3.66-.47.57-.96.89-1.57.89-2.03.02-4.05.02-6.11.02-1.28-.57-1.49-1.72-1.25-2.89.29-1.42.83-2.77,1.31-4.3-.22-.71-.55-1.52-.67-2.36-.11-.71.06-1.45.08-2.17,0-.73.03-1.46-.02-2.18-.29-4.34-.46-4.11,4.15-4.22,1.31-.04,2.61-.1,3.91-.06.37,0,.74.36,1.12.58.24,1.78.18,3.51.1,5.25-.09,2.02-.41,4.02,0,6.05ZM257.63,403.91c-.32,2.15-.38,4.3-.43,6.47,0,.27-.14.55-.25.91-.32.16-.68.45-1.08.49-2.29.23-4.59.4-6.89.58-.66.05-1.47-.61-1.5-1.27-.09-1.44-.15-2.88-.57-4.28-.2-.67-.17-1.43-.22-2.14-.13-1.72-.25-3.44-.39-5.34.22-.75.84-1.26,1.83-1.25.72,0,1.44.04,2.16.07,1.87.09,3.72.22,5.61.05,1.09-.11,1.83.35,1.86,1.83.03,1.29.06,2.61-.12,3.88ZM258.55,386.59c-.15,2.01-.3,4.02-.5,6.03-.05.57-.25,1.12-.34,1.56-.66.6-1.35,1.03-2.06.86-2.28-.54-4.59-.36-6.88-.41-.57,0-1.16-.07-1.71-.24-.38-.12-.68-.46-1.04-.73-.11-2.49-.35-4.92.3-7.35.06-.29.11-.57.12-.86.24-4.39.41-3.91,4.62-4.49,2.3-.32,4.61-.16,6.71-.22.74.41,1,.93.99,1.52-.04,1.45-.11,2.89-.21,4.32ZM259.57,372.16c-.02.72-.04,1.46-.16,2.17-.12.86-.32,1.7-.92,2.37-2.68.49-5.7.56-10.44.22-.13-.34-.29-.71-.42-1.1-.05-.12-.02-.29,0-.42.48-2.42.9-4.84.89-7.32,0-.95.57-1.66,1.35-2.11,3.39-1.95,6.91-3.66,10.51-5.18.54-.23,1.12-.17,1.59.48-.18.62-.37,1.32-.63,1.99-1.07,2.87-1.69,5.84-1.79,8.91ZM270.92,434.22c-.14,0-.29.06-.43.04-2.82-.66-5.72-.68-8.6-.85-.29-.42-.67-.72-.75-1.1-.21-.99-.41-1.99-.41-3,0-4.19.07-8.4.12-12.58,0-.29.1-.57.15-.86.07-.44.84-1.07,1.27-1,1.43.21,2.87.38,4.28.66,1.28.26,2.54.49,3.85.54.37.02.72.42,1.12.68-.22,4.2-.4,8.4-.67,12.57-.09,1.36.09,2.56.88,3.7.3.45-.25,1.2-.81,1.18ZM271.68,410.15c-.05,1.12-.9,1.98-1.96,1.9-2.3-.19-4.61-.47-6.91-.73-.28-.03-.56-.18-.81-.31-.52-.29-.96-.74-.99-1.34-.07-1.45-.17-2.9-.07-4.34.15-2.02.45-4.03.75-6.03.06-.4.39-.75.62-1.17,2.92-.18,5.82-.13,8.71-.03.51.02,1.08.65,1.06,1.18-.13,3.62-.24,7.25-.39,10.87ZM273.28,388.79c-.15,1-.26,2-.37,3.01-.28,2.42-.64,2.78-2.89,2.77-2.02,0-4.05-.02-6.07-.05-.42,0-.85-.1-1.28-.16-.46-.07-1.04-.7-1.07-1.21-.16-2.31-.07-4.61.37-6.89.19-.99.31-2,.36-3,.07-1.75.42-2.37,2.24-2.43,1.3-.04,2.6-.12,3.89-.18v.07c1.3,0,2.6,0,3.89,0,.5,0,1.07.61,1.12,1.14.17,2.3.12,4.61-.19,6.9ZM273.63,375.21c-.03.58-.18,1.13-.85,1.68-.81.06-1.81.19-2.8.22-1.74.06-3.49.06-5.23.07-.42,0-.86-.11-1.28-.17-.52-.07-1.08-.74-1-1.24.4-2.14.53-4.3,1.27-6.38.95-2.72,1.84-5.48,2.48-8.31.05-.2.42-.44.66-.47,2.76-.32,5.18.32,6.98,2.59.38.47.67,1.04.54,1.61-.78,3.42-.65,6.91-.77,10.39ZM284.4,431.77c-.06.43-.18.85-.28,1.26-.1.41-.88.99-1.32,1.01-.29.03-.58.11-.86.06-1.59-.35-3.14-.21-4.71.14-.41.08-.88.05-1.28-.07-.38-.1-.72-.38-1.36-.75.72-1.49,1.04-2.68,1.01-4.05-.06-3.16-.35-6.33,0-9.5.12-1.13-.11-2.3-.16-3.45-.03-.55.62-1.09,1.15-1,.14.02.3,0,.42.06,1.95.9,3.9.81,5.9.21.27-.08.74.35,1.02.63.19.18.24.53.27.8.09.87.17,1.72.18,2.59.03,1.29-.14,2.6.19,3.88.07.27.14.59.06.85-.65,2.42.07,4.9-.26,7.32ZM284.68,406.99c-.1,1.01-.17,2-.08,3,.05.47.02.47-.93,1.39-1.95.37-3.95.68-5.98.32-.29-.06-.56-.13-.85-.18-.47-.09-1.1-.73-1.12-1.21-.04-1.29-.26-2.63-.02-3.88.33-1.61.16-3.14,0-4.72-.05-.56.05-1.14.12-1.71.07-.46.77-1.15,1.16-1.15,2.46-.05,4.91-.14,7.56.23.26.52.51.76.51,1-.09,2.31-.14,4.62-.36,6.91ZM285.76,393.81c-2.63,1.47-5.01,1.66-7.47,1.14-.41-.09-.82-.28-1.21-.46-.42-.19-.61-.58-.66-1.02-.04-.28-.09-.59-.03-.86.71-2.96.52-6,.76-9.01.05-.57.11-1.14.27-1.69.07-.23.37-.4.58-.57.11-.09.26-.16.39-.18,1.89-.32,3.72-.06,5.49.62.37.14.7.53.9.88.28.5.49,1.05.61,1.6.67,3.12.52,6.27.38,9.53ZM277.72,376.7c-.08-1.47.28-5.2.71-7.38.41.11.91.1,1.18.34.76.7,1.16,1.66,1.48,2.62.35,1.1.62,2.23.92,3.35.07.28-.3,1-.58,1.09-1.25.44-2.5.58-3.72,0ZM300.8,438.35c3-.35,5.56-.67,8.11-.92.73-.07,1.45.13,1.64,1.03-3.24.53-6.01.52-9.75-.11ZM312.13,338.29c.5,2.73.77,5.45.19,8.2.28,2.76-.29,5.48-.52,8.21-.16,2.18-.17,4.32-.11,6.49.17,5.07.27,10.17.3,15.24,0,1.59-.1,3.21-.41,4.76-.41,2.01-.51,4.03-.64,6.06-.14,2.31-.33,4.62-.51,6.93.54,2.12.52,4.31.67,6.48.06.88.05,1.76.26,2.59.52,2.02.47,4.04.18,6.06-.57,4.04-.69,8.09-.46,12.17.22,3.78-.18,7.51-.89,11.23-.04.25-.32.45-.54.74-2.65.53-5.35.91-8.11.89-3.2,0-6.39.18-9.58-.1-.57-.05-1.14-.15-1.71-.28-.74-.17-1.64-1.14-1.55-1.9.22-1.89-.17-3.74-.14-5.61.03-1.31.03-2.62,0-3.93-.04-2.31-.09-4.63.76-6.87.37-.96.32-2.02-.25-2.95-.59-.9-.68-1.91-.6-2.92.18-2.45.21-4.91.5-7.38.42-3.6.68-7.24.73-10.86.05-3.18-.29-6.36-.48-9.75-.42-.87-.96-1.89-1.47-2.94-1.28-2.6-2.61-5.16-3.35-8-.41-1.58-1.33-2.85-2.33-4.12-1.61-2.06-3.22-4.11-5.09-5.95-.62-.61-1.25-1.22-1.9-1.78-1.24-1.07-2.66-1.76-4.29-2.02-2.85-.46-5.69-1.18-9.03-.81-2.24,1.12-5.04,1.86-7.7,3.05-3.76,1.68-7.13,3.86-10.24,6.5-.44.38-.8.88-1.3,1.15-2.4,1.38-3.6,3.6-4.78,6-1.35,2.75-2.62,5.51-3.72,8.34-1.42,3.68-2.23,7.5-2.26,11.47,0,.73.05,1.46.03,2.18-.06,2.02-.11,4.02-.66,6.03-.61,2.22-.76,4.57-1.17,6.85-.23,1.28-.58,2.54-.82,3.82-.77,4.17-.81,8.38-.86,12.57-.03,2.32.08,4.64.1,6.95,0,.6-.23,1.12-.88,1.56-3.62.23-7.38.34-11.15.12-.6-.04-1.09-.36-1.51-.77-.96-.98-1.49-2.13-1.43-3.52.05-1.01.12-2.03.12-3.04-.02-1.01.06-2.08-.23-3.02-.88-2.86-.65-5.75-.53-8.65.28-6.52.65-13.04.96-19.56.2-4.19.66-8.38.58-12.59-.05-2.9-.08-5.8-.03-8.71.05-2.31.09-4.66.44-6.94.31-2.17.41-4.32.45-6.5.04-2.18.03-4.35,0-6.54-.03-1.73,0-3.47-.35-5.2-.25-1.26-.22-2.6-.15-3.9.05-.68.47-1.33.68-1.89.42-.17.7-.37.96-.35,1.93.13,3.73-.42,5.54-.99,1.37-.42,2.67-1.05,4.18-1.08.57,0,1.06-.53,1.17-1.13.53-3,1.12-5.98,1.26-9.04.03-.57.05-1.18.24-1.71.13-.35.54-.62.86-.89.09-.08.27-.14.4-.14,2.9-.04,5.81-.07,8.71-.08.42,0,.85.16,1.27.27.61.16,1.25.96,1.32,1.58.11,1.17-.08,2.3-.26,3.46-.3,2.01-.52,4.03-.71,6.05-.17,1.94,1.94,3.37,3.34,3.3.43-.02.89,0,1.3-.12,3.32-.97,6.6-.44,9.88.2.29.06.58.06.87.07.41.04,1.31-.53,1.37-.93.29-1.99,1.06-3.91.95-5.96-.05-1.01-.05-2.03-.16-3.04-.09-.85-.29-1.69-.42-2.39.29-.32.44-.66.68-.73.97-.29,1.95-.63,2.94-.71,3.37-.27,3.89.17,4.6,3.68.24,1.14.13,2.32-.17,3.46-.37,1.4-.76,2.79-1.18,4.31.26.44.48.98.84,1.41.67.85,1.62,1.27,2.69,1.09,2.02-.35,4.05-.3,6.08-.33,2.77-.03,5.5-.02,8.21.77,1.08.31,2.28.51,3.32,0,.95-.8.49-2.01,1.07-2.74-.34-1.25-.65-2.37-.93-3.5-.14-.55-.24-1.12-.27-1.71-.12-2.32,1.08-3,2.76-3.13.42-.04.87-.05,1.3-.04,1.21,0,1.86.7,1.79,1.91-.03.43-.15.87-.13,1.3.07,2.5-.35,4.9-1.33,6.96.07,2.13,1.11,3.16,3.17,3.56,3.52-.88,7.27-2.06,11.4-2.02.8.29,1.75.63,2.59.93.75-.14,1.16-.52,1.39-1.07.4-.98.29-2,.17-3.01-.08-.61-.95-1.3-1.61-1.2-3.16.45-6.37.33-9.55.59-.42.04-.88,0-1.27-.13-.24-.07-.54-.37-.57-.6-.09-.56-.14-1.16-.05-1.71.42-2.46.15-4.93.05-7.39-.05-1.28-1.32-2.52-2.61-2.47-2.88.11-5.81-.18-8.64.73-.41.13-.83.25-1.24.41-.96.36-1.67,1.33-1.66,2.33.02,1.89.08,3.77.11,5.66,0,.42-.04.88-.16,1.28-.08.25-.33.49-.57.62-.23.14-.54.19-.83.19-3.05,0-6.03-.65-8.82-.86-.36-.5-.61-.71-.66-.97-.22-1.12-.5-2.24-.53-3.41-.11-3.04-.57-5.54-1.17-7.26-.38-1.11-1.24-1.59-2.3-1.71-.71-.08-1.44.04-2.17.07-1.3.06-2.61.18-3.91.14-1.15-.04-2.3-.26-3.44-.4-3.26.62-3.6,1.61-3.42,4.45.13,1.87.3,3.76.44,5.63.05.58.11,1.15.11,1.73,0,.83-.82,1.68-1.64,1.74-1.89.18-3.77.04-5.64-.15-.29-.03-.58-.1-.87-.15-.26-.05-.76-.68-.76-.97,0-2.61,0-5.22-.02-7.82,0-.73,0-1.46-.05-2.18-.07-1.18-1.05-2.29-2.17-2.38-1.45-.13-2.89-.19-4.34-.24-1.16-.03-2.33.06-3.48.02-1.88-.09-3.76-.1-5.61-.59-.97-.25-2.01-.3-3.01-.34-1.79-.08-2.83,1.14-2.22,2.77.47,1.25.75,2.49.65,3.81-.05.58-.08,1.17-.22,1.72-.44,1.68-.94,3.35-1.37,4.85-1.39,1.54-3,2.03-4.82,1.92-1.85-.11-2.41-.58-3-2.56-.2-.67-.16-1.43-.16-2.16,0-3.77.04-7.54,0-11.31,0-1.01-.11-2.03-.31-3.01-.2-1.02-.25-2-.06-3.02.14-.71.32-1.46.21-2.15-.53-3.48.27-6.94.1-10.41-.04-.86.71-1.7,1.54-1.88.56-.12,1.14-.24,1.71-.25,1.02-.01,2.04.09,3.05.1.7.02,1.4-.54,1.57-1.27.22-.98.41-1.96.65-3.12-.24-.39-.47-.94-.85-1.35-1.7-1.79-3.25-3.71-5.16-5.29-1.24-1.03-2.12-2.31-2.84-3.79-1.94-3.95-4.7-7.32-7.85-10.35-1.57-1.52-3.21-2.96-4.4-4.8-.23-.36-.39-.79-.44-1.21-.03-.23.17-.62.36-.71.51-.24,1.09-.52,1.62-.49,1,.04,1.99.28,3.16.46,1.51-1,3.36-1.2,5.28-1.2,4.35,0,8.7-.06,13.05-.13,1.59-.03,3.18-.18,4.78-.28,2.17-.13,4.34-.3,6.51-.4,2.19-.1,4.33-.4,6.41-1.12.68-.24,1.39-.44,2.1-.54,2.59-.36,5.18-.64,7.76-1,1.58-.22,3.17-.3,4.74-.66,1.39-.33,2.88-.36,4.32-.34,2.47,0,4.93-.04,7.36-.59.56-.13,1.16-.1,1.72-.23,1.47-.32,2.89-.06,4.43.45.66-.36,1.41-.77,2.28-1.24,1.9-.11,3.87-.54,5.93-.26.83.11,1.72-.13,2.59-.22,1.29-.15,2.58-.34,3.89-.41,1.02-.05,1.97-.32,2.95-.53,2.97-.68,5.97-1.28,9.03-1.14,3.91.18,7.83-.06,11.73.47,1.71.24,3.48.03,5.22.05.73,0,1.45.09,2.01.61,0,.29.1.62-.02.85-.81,1.54-1.72,3.01-2.83,4.37-2.92,3.6-5.83,7.23-8.7,10.86-.82,1.02-1.61,2.06-2.3,3.17-1.45,2.36-3.3,4.4-4.79,6.37-.98.95-2.07.93-3,1.33-1.56.69-1.95,2.3-.8,3.57.48.53,1.07.98,1.69,1.32.88.5,1.84.86,2.76,1.29.78.37,1.36,1.09,2.43,1.2.24-.18.65-.38.89-.69,1.14-1.5,2.58-1.7,4.24-1.06.66.25,1.09.74.88,1.27-.64,1.69-.62,3.47-.41,5.16.39,3.33.19,6.67.49,10,.1,1.16.12,2.34.42,3.44.53,2.02.57,4.05.27,6.06-.4,2.6-.37,5.21-.51,7.82-.13,2.31-.13,4.64-.28,6.95-.12,1.76.02,3.5.32,5.21ZM342.73,437.56c-.27.09-.57.23-.82.17-.7-.15-1.38-.38-2.41-.67-1.32.54-2.54.85-3.88.88-2.75.05-5.51.04-8.22.42-3.61.51-7.22.48-10.82.41-1-.02-2.04.13-3.02-.29.18-.17.34-.41.54-.46,2.4-.55,4.85-.75,7.32-.77,3.9-.05,7.78-.15,11.68-.59,3.15-.37,6.34-.3,9.51-.02.32.03.46.29.38.64-.02.12-.15.24-.26.29ZM345.82,437.7c-.08-.02-.15-.18-.22-.28.13-.06.25-.12.37-.18.12.05.34.06.36.14.07.25-.13.39-.51.32ZM355.83,437.83c-1.39.08-2.78.12-4.18.12-.18,0-.36-.26-.55-.41.26-.12.5-.3.75-.35,1.25-.17,2.5-.31,3.75-.41.18-.02.52.25.55.43.04.18-.19.61-.32.62ZM358.61,296.67c-.42,1.12-.57,2.26-.43,3.42.49,4.35.03,8.69-.1,13.04-.03.73,0,1.48-.19,2.17-.83,3.16-.42,6.34-.16,9.51.07.88.21,1.72,0,2.59-.44,1.86-.3,3.76-.36,5.63-.05,1.74.02,3.48-.02,5.22-.04,1.16.06,2.3.34,3.44.66,2.56.39,5.19.31,7.79-.96,4.14-.7,8.36-.89,12.56-.06,1.3.04,2.6.06,3.91.02,1.45.07,2.9.02,4.35-.15,3.76-.58,7.51-.15,11.27.03.29.05.59,0,.88-.66,3.46-.26,6.95-.39,10.43-.07,2.03,0,4.04.34,6.07.24,1.41.18,2.89.18,4.34.02,3.48-.02,6.95-.02,10.43,0,2.46.06,4.93.06,7.39,0,.73-.02,1.46-.15,2.17-.44,2.43-.59,4.89-.74,7.36-.11,1.76-.58,2.23-2.44,2.28-2.76.06-5.51.05-8.27.05-3.18,0-6.36-.3-9.55.03-1.59.15-3.23-.19-4.78.07-4.9.84-9.85.38-14.76.65-.29,0-.56-.1-.86-.16-.32-.06-.82-.57-.83-.89-.02-.87-.11-1.75.03-2.59.17-1.01.16-2,.13-3.01-.09-2.75-.35-5.49-.36-8.25,0-3.65.56-7.22.97-10.81.18-1.61.26-3.23-.19-4.76-.71-2.4-.77-4.86-1.22-7.28-.26-1.41-.29-2.9-.16-4.33.25-2.59.71-5.16,1.06-7.74.16-1.15.38-2.3.38-3.45,0-5.65.07-11.31-.17-16.97-.17-3.92.1-7.83.6-11.71.21-1.74.33-3.46.28-5.2-.04-1.31.04-2.61,0-3.92-.04-1.01-.08-2.04-.26-3.02-.48-2.88-.64-5.74-.41-8.66.2-2.6.15-5.21.22-7.83.02-.71.05-1.45.16-2.16.67-4.47.83-8.93-.04-13.4-.21-1.13-.23-2.31.08-3.46.84-3.02.66-6.03-.08-9.03-.1-.42-.09-.86-.12-1.29-.05-.48.54-1.17,1.03-1.25.42-.05.86-.14,1.29-.15,2.02-.03,4.06-.09,6.08-.04,1.47.05,2.9.05,4.31-.38.27-.09.56-.1.86-.14,3.42-.47,4.16-.39,7.72.86.76-.19,1.59-.41,2.55-.66,2.61.42,5.34.65,8.11.55,1.29-.05,2.63.11,3.88.41,1.89.47,3.7.48,5.56-.14.52-.18,1.14-.08,1.71,0,.22.03.4.34.7.62-.3,1.04-.54,2.17-.95,3.24ZM481.53,282.48c.37-2.57.27-5.19.38-7.79.07-2-.17-4.02.39-5.99.17.04.34.02.43.11.2.18.45.4.53.65,1.8,5.95,4.06,11.76,5.43,17.85.23.98.65,1.92.91,2.89.14.54.11,1.12.16,1.66-1.15.89-2.42,1.18-3.69,1.37-1.08.15-2.05-.22-2.64-1.17-.53-.85-1.15-1.75-1.31-2.71-.38-2.26-.92-4.48-.59-6.87ZM476.47,272.98c.31-.8.77-1.54,1.18-2.29.06-.11.25-.13.45-.23.09.42.26.8.24,1.19-.1,3.31-.16,6.63-.39,9.93-.09,1.59-.08,3.14.1,4.74.2,1.71.25,3.44.34,5.16.04.56-.41,1.06-.97,1.24-1.7.55-3.4.57-5.13.25-1.22-.23-1.96-1.22-1.84-2.5.07-.72.15-1.45.38-2.12,1.16-3.4,2.09-6.88,3.68-10.13.82-1.68,1.27-3.51,1.95-5.25ZM467.01,276.17c.65-1.13,1.39-2.2,2.08-3.31.7-1.11,1.49-2.11,2.57-2.89.93-.67,1.71-1.53,2.56-2.3.07-.06.27-.06.35,0,.12.07.27.22.27.32-.02.29-.06.59-.18.85-1.55,3.43-3.11,6.84-4.34,10.41-.89,2.58-1.88,5.14-2.48,7.83-.22,1-.57,1.95-.77,2.94-.41,2.15-1.55,3.24-3.86,3.23-1.42,0-2.83.53-4.26.71-.33.05-.7-.37-1.42-.77,1.08-2,1.95-3.66,2.88-5.29,2.18-3.92,4.38-7.83,6.59-11.72ZM451.01,294.16c-.43.03-.87-.05-1.29-.1-.37-.02-.75-.71-.56-.98.08-.12.13-.26.22-.37,3.97-4.63,7.62-9.5,11.5-14.21.26-.31.5-.62.91-.71,0-.04.02-.06,0-.11.04,0,.05-.02.08-.02,0-.25,0-.5.05-.73.09-.37.31-.48.52-.3.08.07.15.23.14.35-.05.43-.27.69-.71.68,0,.03,0,.06,0,.09-.03.01-.05.04-.08.04.1.72-.16,1.35-.53,1.94-1.56,2.44-3.12,4.89-4.7,7.33-.48.72-.98,1.44-1.47,2.16-.57.85-.98,1.75-1.19,2.77-.31,1.53-1.46,2.07-2.89,2.17ZM458.62,436.54c-2.26.64-4.59.82-6.89.4-4.74-.87-9.52-.65-14.3-.7-3.61-.05-7.25.03-10.86.07-1.16.02-2.33.03-3.48.18-5.03.65-10.09.79-15.16.84-.14,0-.29-.02-.43,0-4.9.8-9.84.13-14.75.56-5.36.46-10.71.03-16.06-.19-1.31-.05-2.61,0-3.9,0-1.3,0-2.56-.45-3.87-.22-.4.07-.54-.21-.6-.88,2.87-.48,5.76-.19,8.65-.17,3.2.04,6.37-.13,9.53-.53,4.9-.63,9.81-.67,14.73-.37,1,.06,2,.26,3,.44,1.87.35,3.75.44,5.61-.04,1.84-.49,3.71-.56,5.6-.61,1.72-.06,3.47.02,5.18-.4.69-.18,1.44-.12,2.17-.11,1.44.02,2.9.21,4.33.08,6.36-.54,12.74-.09,19.1-.39,2.45-.12,4.89-.02,7.34.47,1.97.4,4.01.46,6.32.71-.59.41-.89.74-1.26.84ZM495.17,311.91c-.43,2.12-.67,4.26-.5,6.47.17,2.01.05,4.05-.28,6.07-.21,1.28-.25,2.59-.37,3.9-.06.72-.02,1.46-.18,2.16-.31,1.42-.54,2.84-.61,4.3-.22,4.77-.98,9.51-.97,14.31,0,1.59-.03,3.19-.05,4.78-.04,1.89-.06,3.77-.46,5.62-.18.85-.18,1.74-.18,2.6-.05,4.93-.07,9.86-.09,14.79,0,1.45-.02,2.9.42,4.31.16.54.19,1.14.21,1.72.22,6.67.56,13.33.31,20-.16,4.34-.4,8.68-.28,13.04.02.58-.05,1.15-.12,1.72-.27,2.01-.56,4.02-.85,6.02.27.86.53,1.69.84,2.7-.09.53-.21,1.24-.33,1.94-.14.71-.28,1.42-.41,2.09-2.03,1.29-4.59,2.21-6.48,2.17-2.45-.06-4.89,0-7.37-.44-3.27-.57-6.64-.47-9.97-.36-3.92.12-7.82.03-11.71-.55-1.71-.25-3.47-.26-5.2-.41-.38-.04-.76-.17-1.12-.26,0-.88.61-1.38.91-2.02.24-.52.58-1.09.55-1.61-.14-2.61.65-5.14.54-7.77-.09-2.16-.04-4.29-.52-6.45-.59-2.69-.63-5.47.16-8.18.08-.28.2-.58.15-.85-.48-2.47.38-4.9.28-7.35-.1-2.31-.18-4.64-.3-6.95-.05-.87-.25-1.72-.32-2.58-.07-.72-.2-1.48-.03-2.16.29-1.17.04-2.3.05-3.44,0-1.15.18-2.26-.05-3.43-.16-.81-.02-1.75.19-2.56.37-1.44.32-2.88.32-4.32-.02-1.71-.69-3.34-.15-5.14.5-1.63.3-3.43.67-5.15.59-2.7.42-5.49.5-8.23.05-1.89,0-3.77.27-5.64.09-.71.02-1.44,0-2.16,0-.43-.2-.91-.07-1.29.74-2.08.45-4.31.96-6.42.44-1.85.57-3.72.6-5.6.04-1.87.45-3.73.11-5.62-.2-1.14-.12-2.32.17-3.47.71-2.84.76-5.74.54-8.63-.18-2.34-.04-4.64.29-6.94.26-1.86.4-3.74.62-5.61.05-.42.19-.85.35-1.24.11-.26.33-.47.54-.75,2.5-1.12,5.31-1.14,7.95-1.87.14-.04.29-.03.42-.02,1.13.07,2.18.59,3.41.19,1.07-.35,2.29-.23,3.44-.29,1.16-.06,2.32-.08,3.48-.13,2.04-.09,4.05.06,5.92.87,3.07-.6,6.09-.89,9.14-.78,1.33.05,2.59.32,3.82.78.88.34,1.42,1.06,1.43,2,.02,4.05.2,8.11-.61,12.14ZM500.33,292.39c-.42.05-.85.17-1.27.18-1.31.04-2.58-.14-3.97-.52-1-1.11-1.44-2.18-1.71-3.3-.55-2.39-1.38-4.68-2.2-7-.57-1.62-.79-3.36-1.41-4.96-.77-2.04-1.09-4.17-1.63-6.24-.03-.1.1-.28.21-.36.08-.06.26-.05.35,0,1.12.53,1.81,1.5,2.27,2.53,1.07,2.39,2.59,4.48,3.97,6.67,1.69,2.68,3.13,5.5,4.34,8.44.5,1.2,1.08,2.36,1.61,3.53.12.29-.26,1-.56,1.04Z"/>
      <path class="cls-1" d="M223.56,105.22c.57-.13,1.11-.36,1.67-.51,1.29-.36,2.57-.33,3.85.07.48.15.85.82.7,1.36-.16.56-.46,1.1-.47,1.67-.1,3.77-.52,7.51-.84,11.27-.49,5.64-.45,11.3-.22,16.96.22,5.37.21,10.73.05,16.11-.12,4.07.08,8.11.61,12.16.29,2.3.51,4.62.49,6.94-.04,7.4-.18,14.8-.3,22.2-.04,2.61,0,5.23-.47,7.81-.11.57-.07,1.16-.09,1.74-.09,2.46-.16,4.93-.25,7.4-.05,1.3-.14,2.6-.14,3.91-.02,2.61,0,5.23.03,7.84,0,.43.08.86.13,1.29.07.51.61,1.15,1.13,1.16.41.02.91-.06,1.2-.31.42-.35.81-.84,1.01-1.35.36-.93.56-1.93.84-2.91-.44-1.43-.61-2.87-.19-4.31.47-1.57.3-3.18.18-4.76-.35-4.35-.38-4.35.1-9.03.07-.72-.05-1.46.04-2.17.25-2.29-.1-4.66.73-6.74-.21-1.44-.6-2.73-.56-4.01.06-2.75-.29-5.51.07-8.26.24-1.86.32-3.75.41-5.63.06-1.3.11-2.63-.05-3.91-.3-2.45-.76-4.87-.74-7.35-.58-1.83-.42-3.73-.46-5.61-.04-1.88-.19-3.77-.23-5.65,0-.86.02-1.78.29-2.57.69-1.99.65-3.99.32-6.01-.58-3.74-.76-7.51-.55-11.28.13-2.33.2-4.63.04-6.96-.18-2.61-.13-5.22.64-7.77.17-.55.23-1.14.26-1.72.2-3.47,1.16-6.87,1.11-10.38,0-.68.73-1.27,1.48-1.3.15,0,.29,0,.44,0,2.91.05,5.78-.28,8.65-.79,1.84-.33,3.75-.38,5.63-.44,2.03-.07,4.05.16,6.06-.39.67-.19,1.44-.05,2.17-.03,1.15.03,2.3.09,3.5.13.86.42,1.76.88,2.62,1.32.52-.16.99-.21,1.32-.44,1.12-.79,2.35-1.07,3.68-1.14,3.62-.22,7.24-.39,10.65,0,1.18-.36,2.14-.66,3.12-.96.86.35,1.7.6,2.45,1,.88.48,2.02.4,2.93,1.45.42.94.96,2.12,1.45,3.19,0,.44.05.74,0,1.01-.58,3.17-.76,6.34-.11,9.51.09.43.04.87.05,1.31.06,1.74.17,3.47.17,5.22,0,3.04.28,6.08-.52,9.09-.24.94-.12,2.03.02,3.02.12.89.06,1.71-.07,2.58-.17,1.14-.28,2.32-.22,3.47.23,4.21-.71,8.37-.54,12.57-.46,3.48-.24,6.95.06,10.43.09,1.01.19,2.02.2,3.04.1,6.24.18,12.48.27,18.72.04,2.18.05,4.36.5,6.5.18.87.06,1.72-.03,2.59-.45,4.92-.6,9.84.14,14.76.25,1.74.32,3.46.09,5.21-.12.86-.22,1.73-.21,2.6,0,.57.14,1.16.36,1.69.29.7.9,1.1,1.7,1.15.72.04,1.5-.44,1.75-1.05,1.05-2.63,1.37-5.31.47-8.07-.18-.55-.29-1.12-.45-1.68-.56-1.98-.85-3.97-.28-6.01.41-1.41-.39-2.86.13-4.31.17-.48-.12-1.12-.18-1.7-.08-.72-.2-1.44-.22-2.16-.08-2.47-.15-4.93-.18-7.4-.06-4.06-.17-8.12.08-12.19.07-1.15-.06-2.31-.13-3.47-.08-1.88-.29-3.75-.44-5.62-.29-3.49-.24-6.95-.18-10.44.06-3.48.05-6.95.52-10.42.47-3.45.32-6.94.28-10.41-.04-2.18-.1-4.33.47-6.49.36-1.38.34-2.88.33-4.33-.02-4.05-.03-8.1-.11-12.15-.04-2.16.26-4.33.46-6.5.05-.6.44-1.12,1-1.34,1.21-.47,2.45-.84,3.78-1.3.5-1.15,1.02-2.34,1.64-3.75-1.07-2.51-1.64-4.94-3.25-6.89-.27-.33-.48-.75-.6-1.16-.89-3.1-2.83-5.71-4.1-8.63-.64-1.45-1.44-2.8-1.72-4.41-.17-.97-.76-1.87-1.2-2.78-.31-.65-.82-1.24-1-1.92-.46-1.71-1.37-3.19-2.17-4.73-.66-1.29-1.32-2.59-1.84-3.94-.95-2.44-2.07-4.78-3.5-6.98-1.03-1.58-1.87-3.25-2.49-5.05-.52-1.51-1.26-2.91-2.22-4.22-1.46-1.99-2.74-4.12-3.27-6.57-.34-1.57-.93-3.04-1.53-4.46.17-1.51.34-2.95.45-4.39.05-.74-.17-1.44-.8-1.93-.27-.05-.54-.14-.84-.17-.28-.03-.57.03-.86,0-.91-.12-1.62-.79-1.71-1.69-.34-3.77-.23-7.53-.12-11.11,1.44-3.15,3.84-4.47,6.98-4.71,1.01-.08,2-.35,3.01-.43,3.27-.29,6.16-1.63,8.87-3.35,1.71-1.09,3.47-2.07,5.35-2.86.24-.1.42-.37.57-.51.23-1.06.75-1.97.55-2.99-.44-.68-1.12-.96-1.84-1.02-2.33-.18-4.59-.6-6.79-1.45-.67-.26-1.41-.35-2.12-.46-4.01-.61-7.99-1.38-11.97-2.39-1.61.5-3.48.52-4.5,2.49.18,2.19-.13,4.46-.65,6.74-.41,1.82-.9,3.67-1,5.52-.14,2.6-.33,5.21-.11,7.83.21,2.6,0,5.2-.17,7.54-.52,1.2-1.59,1.72-1.74,2.79-.13.9-.57,1.62-1.06,2.35-2.03,3.01-3.81,6.17-6.03,9.06-.7.91-1.21,1.97-1.81,2.97-1.7,2.87-3.3,5.81-5.16,8.57-2.36,3.49-4.4,7.16-6.49,10.81-1.09,1.89-2.07,3.85-3.31,5.62-1.51,2.14-2.84,4.38-4.01,6.72-1.74,3.5-3.71,6.88-6.23,9.91-2.16,2.59-3.76,5.51-4.89,8.67-.5,1.4-1.12,2.66-2.23,3.65-.45.4-.58,1-.52,1.61.17,1.57,1.6,2.68,3.05,2.37ZM270.4,5.65c.67-.54,1.24-.53,1.83-.55,2.47-.09,4.85.63,7.29.79,1.47.09,2.81.51,4.12,1.14.12.06.22.18.33.27.11.42.25.92-.18,1.16-1.51.83-3.04,1.62-4.59,2.37-.38.18-.83.21-1.25.27-1.57.25-3.15.41-4.69.75-1.51.34-3,.86-4.48,1.3-.15-.27-.39-.52-.38-.76.19-2.47.89-4.78,2-6.74ZM283.1,74.43c.05.07.06.16.08.24.05,0,.06.03.13.03,0,.04,0,.08,0,.12.41.09.69.36.86.73.97,2.09,1.97,4.17,2.88,6.29.86,1.99,1.78,3.95,2.6,5.93.82,2,1.7,3.97,2.64,5.91.18.38.41.79.44,1.21.16,1.65.98,2.99,1.8,4.35.22.36.38.79.42,1.2.03.24-.18.54-.34.77-.26.34-.81.27-1.07-.12-.31-.49-.59-.98-.98-1.62-1.11-.37-2.33-.74-3.54-1.21-.54-.21-.99-.67-1.1-1.26-.58-3.11-1.54-6.13-2.23-9.21-.07-.28-.18-.56-.18-.85-.06-1.88-.41-3.71-.97-5.51-.52-1.65-.49-3.42-1.17-5.04-.18-.45-.07-1.03-.06-1.57-.03,0-.05-.03-.08-.04,0-.04-.03-.07-.04-.11-.22-.03-.34-.12-.31-.32.08.02.19.02.23.07ZM277.58,70.95c1.34,1.47,1.91,3.12,2.34,4.8,1.05,4.06,2.09,8.13,2.58,12.31.21,1.87.85,3.67,1.24,5.51.18.84.29,1.71.35,2.57.02.25-.16.54-.32.76-.44.59-1.96.61-2.33.01-.29-.49-.58-1.02-.69-1.57-.16-.7-.16-1.43-.18-2.15-.14-3.93-.82-7.78-1.81-11.57-.37-1.42-.63-2.83-.68-4.27-.05-1.74-.14-3.47-.67-5.15-.11-.32.1-.73.18-1.25ZM265.85,76.29c-.05-5.37.96-10.67.94-16.04,0-.44,0-.88.09-1.3.57-2.41.54-4.88.66-7.34.04-.71.19-1.43.29-2.14.05-.33.05-.33,1.12-.56.18.52.43,1.03.57,1.58,1.44,5.31,2.74,10.65,3.72,16.06.5,2.7.88,5.43,1.12,8.16.32,3.32.81,6.6,1.62,9.83.04.14.1.28.1.43.17,3.62,1.04,7.16,1.1,10.79,0,.43-.08.86-.11,1.29,0,.3-.49.93-.76.98-2.43.39-4.85.79-7.29,1.15-.42.06-.85-.05-1.29-.09-.51-.04-1.1-.64-1.08-1.17.09-2.18-.1-4.32-.66-6.44-.21-.83-.24-1.73-.24-2.59,0-4.2.11-8.4.07-12.6ZM262.72,61.36c.89-.15,1.05-.09,1,.32-.42,3.46-.56,6.93-.71,10.41-.03.73-.06,1.45-.16,2.17-.62,4.77-.61,9.56-.5,14.34.06,2.76.11,5.52.15,8.27,0,.57-.1,1.15-.17,1.78-.38.21-.73.48-1.12.58-.41.11-.87.1-1.3.08-4.68-.31-4.5.47-4.46-4.56.04-4.23.54-8.4,1.56-12.48.75-2.95,1.32-5.96,2.3-8.84,1.37-3.98,2.48-8.02,3.4-12.06ZM261.43,53.04s0-.07,0-.11c.05,0,.06-.06.09-.06.03-.21.04-.43.08-.63.02-.12.17-.33.18-.33.27.11.33.33.24.62-.08.25-.28.32-.51.33,0,.05,0,.09-.02.14-.03,0-.04.03-.06.03.05.25.13.51.08.76-.47,2.56-.87,5.14-1.73,7.61-.58,1.64-1.1,3.3-1.62,4.96-.48,1.52-.93,3.05-1.39,4.58-.33,1.11-.76,2.2-1,3.34-.54,2.55-1.26,5.06-1.97,7.57-1.22,4.35-1.65,8.82-1.98,13.31-.07.87-.11,1.74-.18,2.6-.07.8-.66,1.4-1.36,1.45-.29.03-.58.04-.87.03-1.47-.04-2.9.1-4.31.54-1.28.4-2.58.37-3.88.36-.75-.01-1.27-.66-1.3-1.45-.02-.88.16-1.72.39-2.56.79-2.97,2.03-5.77,3.6-8.38,2.48-4.12,4.19-8.59,6.17-12.94,2.4-5.29,4.82-10.55,7.74-15.57,1.02-1.75,1.85-3.61,2.77-5.42.19-.37.43-.68.86-.78ZM228.84,95.69c.21-.68.57-1.33.97-1.92.88-1.33,1.8-2.63,2.76-3.9,1.13-1.51,1.94-3.2,2.83-4.86,1.65-3.04,3.22-6.17,5.35-8.92,2.42-3.12,4.24-6.57,5.96-10.08,1.02-2.08,2.06-4.13,3.6-5.92.85-.96,1.42-2.18,2.11-3.28s1.39-2.2,2.07-3.32c.45-.74.95-1.47,1.27-2.27.89-2.17,2.34-3.99,3.72-5.85.15-.2.44-.3.66-.45.08.11.25.26.23.35-.36,1.39-.81,2.76-1.48,4.04-2.44,4.61-4.58,9.38-7.38,13.8-2.03,3.19-3.43,6.7-4.82,10.19-1.87,4.74-3.9,9.35-6.82,13.54-.91,1.32-1.6,2.75-2.07,4.29-.54,1.8-1.06,3.64-1.84,5.33-.56,1.2-.12,2.6-.9,3.7-1.19-.06-2.33-.22-3.46-.18-1,.03-1.98.3-2.98.39-.2.02-.45-.3-.65-.49-.09-.09-.16-.29-.12-.41.31-1.27.6-2.54,1-3.78Z"/>
      <path class="cls-1" d="M353.92,448.28c-2.15.95-4.63.87-7.08.92-3.35.07-6.68.04-10.01.18-3.48.15-6.96,0-10.42.42-.29.04-.59.05-.87-.02-3.7-.82-7.52-.4-11.24-1.14-6.52-.39-13.05-.36-19.55.21-2.89.24-5.78.41-8.67.6-5.63.35-11.27.66-16.92.55-4.34-.1-8.69.09-13.04-.3-2.01-.18-4.07-.26-6.07-.03-3.9.45-7.82.48-11.73.57-2.18.05-4.37,0-6.52.29-1.73.23-3.46.29-5.2.4-6.51.38-13.04.1-19.54.79-.43.05-.88,0-1.31,0-1.88.06-3.77.09-5.65.22-2.88.21-5.79.09-8.64.74-.42.09-.87.05-1.31.06-3.91.13-7.81.22-11.71.69-1.29.16-2.6.13-3.91.16-4.2.06-8.41.11-12.61.19-2.31.05-4.66,0-6.95.26-2.31.29-4.63.3-6.95.37-3.03.07-6.08.04-9.14.11-2.46.06-4.92.27-7.37.27-3.92,0-7.84-.12-11.75-.16-1-.02-2.05-.05-3.01.19-1.4.33-2.75.88-4.11,1.4-.21.07-.31.42-.45.64.19.62.63,1.01,1.22,1.12.7.15,1.42.19,2.16.21,2.02.06,4.06,0,6.08.13,2.6.18,5.22.14,7.8.02,7.96-.36,15.95-.3,23.9-.79,4.19-.27,8.41-.2,12.62-.3,4.63-.13,9.27-.05,13.9-.44,2.88-.25,5.79-.39,8.68-.54,2.02-.11,4.06-.03,6.05-.53.69-.18,1.45-.16,2.17-.18,3.62-.07,7.25-.16,10.87-.2,3.03-.04,6.07-.41,9.11-.2,3.43-.71,6.94-.34,10.4-.71.88-.09,1.74-.14,2.61-.2,1.45-.11,2.88-.27,4.32-.33,5.5-.27,11.01-.55,16.52-.73,3.18-.11,6.38-.17,9.56.06,2.61.18,5.21.36,7.82.36,4.06,0,8.13.12,12.17-.23,5.49-.48,11.03-.28,16.47-1.19.29-.05.58-.03.88-.03,2.89-.06,5.8-.19,8.69-.19,2.18,0,4.34.13,6.52.28,2.17.16,4.32.41,6.49.63,1.59.15,3.23.06,4.74.47,1.74.46,3.43.39,5.17.38,4.35-.06,8.66-.82,13.02-.78,3.88.04,7.78-.33,11.55.3.87-.51,1.62-.94,2.36-1.39.36-.22.5-1.17.31-1.62-.42-1-1.14-1.64-2.42-1.93Z"/>
      <path class="cls-1" d="M264.71,131.93c-.31-1.41-.55-2.84-.67-4.27-.12-1.47-.53-2.84-1-4.2-.14-.39-.41-.8-.72-1.06-1.28-1.09-2.73-1.64-4.42-1.05-.82.28-1.56.7-2.19,1.34-1.45,1.47-2.53,3.16-3.1,5.14-.52,1.81-1.11,3.61-1.39,5.46-.27,1.7-.22,3.45-.2,5.18,0,.74.51,1.33,1.2,1.7,2.12.44,4.24.69,6.42.26.67-.14,1.43.04,2.15.13.56.07,1.12.26,1.69.35.88.14,1.83-.47,2.02-1.27.6-2.55.82-5.11.23-7.71Z"/>
      <path class="cls-1" d="M251.69,175.73c-.06,1.14-.34,2.28-.46,3.42-.1,1-.2,2.01-.15,3.01.08,1.46,1.78,2.74,3.1,2.23,2.09-.81,4.16-.99,6.37-.69,2.66.35,2.64-.52,2.66-2.65,0-.74-.09-1.43-.39-2.1-.37-.82-.47-1.69-.37-2.55.32-2.88.08-5.76.16-8.64,0-.86-.04-1.74-.17-2.59-.14-.88-.59-1.62-1.78-2.31-1.29-.09-2.59-.2-3.88-.27-1.04-.06-1.99.26-2.9.77-.83.47-1.34,1.13-1.33,2.07.03,1.59.37,3.19-.1,4.74-.54,1.83-.64,3.69-.76,5.57ZM256.57,172.26c.67,2.3.67,3.78.32,5.96-.03.13-.11.29-.22.35-.22.13-.48.23-.74.27-.06.01-.24-.21-.25-.32-.12-2.15.72-4.15.88-6.26Z"/>
      <path class="cls-1" d="M253.29,216.49c.27.1.54.24.8.29,2.55.46,5.11.93,7.67,1.33.35.05.76-.3,1.15-.47.7-2.1.99-4.24,1.12-6.39.11-1.87.17-3.74.29-5.62.07-1.3,0-2.59-.33-3.86-.39-1.44-1.7-2.37-3.25-2.12-.74.11-1.41.16-2.12-.07-1.12-.35-2.3-.27-3.43-.1-.7.1-1.36.43-2.01.75-.54.27-.75.82-.73,1.44.43.72.87,1.45,1.24,2.07-.38,1.1-.8,2.02-.99,2.99-.28,1.4-.41,2.84-.55,4.28-.12,1.15-.2,2.29-.27,3.44-.04.73.72,1.78,1.39,2.05ZM257.26,204.69c0-.44.3-.78.71-.96.72-.3,1.42-.25,2,.27.18.16.24.48.31.74.03.12-.04.29-.1.4-1.17,1.69-1.71,3.61-2.23,5.55-.1.41-.26.82-.49,1.17-.14.19-.49.24-.74.31-.06.01-.2-.17-.22-.28-.08-.41-.12-.83-.14-.94.08-2.32.92-4.22.89-6.25Z"/>
      <path class="cls-1" d="M378.12,448.27c-1.03-.6-2.12-.83-3.28-.35-1.19.5-2.39.97-3.57,1.46-.27.11-.49.3-.74.45-.41.26-.65,1-.47,1.51.18.51.81,1.02,1.27,1,.57-.03,1.13-.08,1.71-.12v-.12c.86,0,1.71.06,2.57,0,1.16-.09,2.18-.62,3.12-1.3.39-.29.4-.75.34-1.17-.06-.61-.44-1.06-.95-1.36Z"/>
      <path class="cls-1" d="M268.67,288.44c-2.44-.23-4.9-.22-7.36-.3-.58-.02-1.51.71-1.57,1.31-.12,1.45-.45,2.78-1.24,4.05-.37.57-.46,1.37-.51,2.07-.09,1.44-.06,2.89-.09,4.33-.05,2.3-.13,4.62-.15,6.92-.02,2.07,1.28,3.53,3.37,3.86,1.44.23,2.85.31,4.23-.37.95-.47,1.95-.39,2.96-.09.41.12.84.16,1.26.24.38-.26.81-.44,1.07-.77.25-.31.45-.77.47-1.18.1-2.61.7-5.13,1.3-7.66.59-2.53.64-5.13.57-7.74,0-.14-.04-.28-.06-.43-.31-2.26-1.94-4.02-4.26-4.25ZM262.69,292.92s.19.17.29.26c-.09.27-.17.51-.27.76-.09-.1-.21-.18-.27-.3-.13-.29-.05-.56.25-.71ZM261.47,304.62c0-.12.14-.27.24-.35.07-.06.25-.08.33-.04.74.45,1.34,1.05,1.66,1.89-1.56.37-2.28-.12-2.23-1.5Z"/>
      <path class="cls-1" d="M247.55,294.31c-.05-.59.03-1.18-.07-1.73-.35-1.97-1.31-3.56-3.26-4.28-2.04-.76-4.19-1.09-6.38-1.1-1.18,0-2.38.91-2.39,2.06-.02,1.5-.41,2.86-1.02,4.18-1.95,4.06-1.91,8.4-1.82,12.75.02.81.82,1.64,1.64,1.79,2,.36,4.03.4,6.05.41,1.01,0,2.02,0,2.99.4,1.23.5,2.24-.03,3.13-.79.81-1.76,1.36-3.63,1.14-5.48-.31-2.75.18-5.47,0-8.2ZM242.94,302.67c-.1.36-.55.61-.81.87-.76-.12-1-.61-1.11-1.19-.03-.14.02-.29.05-.42.53-1.9.04-3.7-.5-5.49-.37-1.24-.79-2.44-1.15-3.69-.21-.71.43-1.35,1.23-1.28,1.08.08,1.96.54,2.41,1.53.34.77.65,1.62.72,2.46.17,2.45-.15,4.86-.85,7.21Z"/>
      <path class="cls-1" d="M294.64,291.8c-1.58-.18-3.17-.21-4.77-.25-.73-.02-1.42.24-2.04.65-.47.32-.94.66-1.4,1.01-.73.53-1.24,1.23-1.37,2.14-.37,2.56-1.18,5.08-1.03,7.72,0,.87,0,1.73,0,2.61,0,1.18.33,2.28.9,3.31.33.61,1.11,1.1,1.77,1.01.43-.05.9-.04,1.27-.22,1.47-.75,3.01-.91,4.64-.8,1,.06,2.02.03,3.02-.04.59-.06,1.11-.42,1.35-.98.6-1.31,1.13-2.63,1.21-4.12.17-3.36-.37-6.64-1.11-9.88-.27-1.23-1.23-2.01-2.46-2.17ZM291.28,304.68c-.2,0-.4-.3-.6-.48.21-.16.43-.45.62-.42.37.04.71.27,1.33.53-.63.18-.99.37-1.35.37Z"/>
      <path class="cls-1" d="M188.15,307.33c-.71-.53-1.47-.89-2.4-.89-1.99,0-2.92.55-3.59,2.45-.44,1.24-.96,2.42-1.81,3.44-.98,1.15-1.34,2.54-1.48,4.01-.15,1.45-.16,2.92-.47,4.32-.57,2.57.41,4.54,2.18,6.23.86.83,1.94,1.29,3.14,1.29.72,0,1.47,0,2.16-.21,1.12-.34,2.23-.56,3.39-.72.61-.08,1.06-.55,1.15-1.14.44-2.85,1.56-5.61,1.29-8.57-.07-1.59-.1-3.18-.27-4.77-.16-1.59-1.95-4.44-3.29-5.45ZM186.95,314.81c-.73-.52-1.23-1.16-1.15-2.12.02-.12.11-.27.2-.35.06-.07.23-.1.29-.06.95.62,1.08,1.14.66,2.53Z"/>
      <path class="cls-1" d="M341.67,324.03c-.14-1.78-.15-3.37-.42-4.94-.46-2.73-1.5-5.27-2.79-7.72-.74-1.39-1.89-2.14-3.39-2.45-1.08-.22-2.05.03-2.72.91-.88,1.14-1.62,2.41-2.53,3.53-1.2,1.5-1.94,3.21-2.54,5.01-.9,2.69-.38,5.16,1.23,7.4.83,1.17,1.84,2.22,2.84,3.28.28.29.75.39,1.14.58.53-.3,1.04-.57,1.55-.87.79-.46,1.65-.53,2.52-.31.56.15,1.09.41,1.63.57,1.12.35,2.28.41,3.45.32.77-.07,1.59-.86,1.73-1.71.09-.59.07-1.17-.28-1.67-.49-.71-1.01-1.39-1.42-1.95Z"/>
      <path class="cls-1" d="M46.96,327.91c-.37-.81-1-1.47-1.97-1.53-1.3-.09-2.56-.28-3.83-.65-1.25-.37-2.56-.35-3.79.29.36.42.7.86,1.07,1.31-.24,1.02-.55,1.99-.69,2.98-.16,1.14-.15,2.31-.24,3.47-.04.58-.14,1.15-.19,1.72-.06.57-.2,1.15-.12,1.71.39,2.61.15,5.19-.21,7.75.12.29.19.58.34.82,1.07,1.65,2.58,2.06,4.08,1.16,1.4-.84,2.89-1.31,4.55-1.13.28.03.58-.05.86-.08.99-.12,1.88-1.01,1.97-2.01.25-2.6.3-5.22.08-7.82-.23-2.75-.75-5.46-1.91-7.98ZM44.17,340.9s-.19-.18-.24-.3c-.03-.12-.03-.28.02-.4.05-.11.18-.18.28-.28.08.1.17.21.25.31.07.31-.03.55-.32.66Z"/>
      <path class="cls-1" d="M65.31,333.64c-.18-1.27-.49-2.55-.92-3.76-.43-1.25-1.23-2.26-2.57-2.73-.67-.25-1.29-.64-1.98-.99-1.83.42-2.99,1.49-3.42,3.39-.47,2.11-1.2,4.15-1.39,6.32-.17,2-.44,4-.65,6-.07.72-.19,1.47-.08,2.16.2,1.17.67,2.22,2.12,2.46,1.27-.53,2.59-1.08,3.93-1.64.75.16,1.43.34,2.14.46.55.08,1.13.11,1.7.11.63,0,1.54-.62,1.69-1.18.42-1.68.87-3.41.36-5.1-.55-1.82-.67-3.67-.94-5.51Z"/>
      <path class="cls-1" d="M29.21,372.58c-.04.07.02.22.04.33.05-.03.12-.07.17-.09,0-.38-.1-.47-.21-.24Z"/>
      <path class="cls-1" d="M468.86,323.88c.19-2.32-.3-4.58-.71-6.85-.27-1.5-.96-2.73-2.02-3.75-1.56-1.52-3.24-1.62-4.65.61-.15.25-.31.49-.44.74-.98,2.11-2.02,4.17-2.9,6.31-.54,1.33-.9,2.75-1.24,4.15-.52,2.21-.32,4.31,1.14,6.19.53.68.93,1.46,1.47,2.15.25.33.65.54.92.77,1.23.04,1.5-1.48,2.65-1.4,1.76.06,3.18,1.36,4.76,1.4,1.11-.33,1.71-.84,1.83-1.85.07-.71.24-1.42.36-2.07q-1.06-2.87-1.15-5.5c0-.29-.05-.59-.02-.88ZM460.82,326.82c-.1.03-.28.11-.29.08-.07-.1-.14-.25-.13-.37.02-.12.13-.22.19-.34.1.07.25.13.28.22.03.12-.03.27-.05.41Z"/>
      <path class="cls-1" d="M486.91,318.56c.44-1.55.21-3.14-.19-4.69-.63-2.3-2.03-3.27-4.42-3.29-1.41,0-2.49.56-3.39,1.6-1.46,1.66-2.27,3.68-2.99,5.69-.68,1.89-1.44,3.81-.84,6.24,0,.39-.02,1.1,0,1.82.03.76.34,1.4.84,1.94.29.32.65.58.94.9,1.09,1.15,2.45,1.52,3.95,1.12,1.41-.37,2.82-.49,4.27-.53,1.35-.04,2.07-.83,2.07-2.25,0-1.29.02-2.62-.24-3.86-.34-1.59-.45-3.1,0-4.69ZM481.97,317.47c-.12.07-.35.13-.41.08-.18-.18-.44-.42-.43-.62,0-.8.47-1.31,1.25-1.5.6,1.14.54,1.48-.42,2.04Z"/>
      <path class="cls-1" d="M132.86,235.17c1.87.16,3.75.32,5.59-.23,1.23-.38,2.45-.8,3.58-1.19.96-.93.95-2.16,1.37-3.23.64-1.53.64-3.12.23-4.67-.61-2.38-1.11-4.77-1.4-7.21-.16-1.3-.87-2.1-2.18-2.31-.29.06-.61.05-.84.19-1.39.82-2.83,1.29-4.49,1.27-.97-.02-2,.32-2.62,1.23-1.64,4.28-1.67,8.77-1.95,13.21-.05.76.35,1.38.88,1.91.53.51,1.09.98,1.84,1.04ZM138.37,224.77c.29.27.73.47.88.81.34.79.35,1.67.2,2.53-.18,1.03-.72,1.86-1.7,2.3-.59.27-1.08.1-1.39-.5q.92-3.63,2.01-5.13Z"/>
      <path class="cls-1" d="M140.57,260.11c0-1.02.23-1.98.42-2.98.18-1.02.05-2-.4-2.96-.65-1.43-2.4-2-3.59-1.08-1.14.89-2.26,1.81-3.3,2.79-1.29,1.23-2.11,2.67-2.06,4.58.06,1.87-.14,3.75-.23,5.62h.12v3.89c0,.29-.04.58-.05.87,0,.43-.02.87,0,1.3.05,1.64,1.13,2.74,2.71,2.74,2.2,0,4.28-.54,6.32-1.29.74-.27,1.14-.93,1.3-1.63.42-1.98.72-3.95-.12-5.94-.8-1.87-1.11-3.86-1.12-5.92ZM135.94,270.1c-.12.03-.25-.03-.39-.05-.08-.12-.24-.24-.24-.35.13-1.84.27-3.68.43-5.51,0-.08.22-.22.34-.22.13-.02.36.05.39.14.42,1.2.86,2.4,1.21,3.61.35,1.21-.27,2-1.75,2.38Z"/>
      <path class="cls-1" d="M375.28,264.01c-1.28.17-2.54.48-3.8.78-1.6.4-2.41,1.49-2.12,3.23.33,2.02.23,4.01.03,5.79,0,1.8-.05,3.39.02,4.96.04.93.64,1.58,1.42,2.06.78.47,1.66.59,2.48.25,1.46-.61,2.87-1.33,4.28-2.06.5-.27.93-.68,1.38-1.04,1.18-.98,1.73-2.26,1.68-3.8-.02-.42,0-.87-.05-1.29-.26-1.56-.52-3.12-.81-4.67-.1-.56-.28-1.12-.47-1.66-.57-1.71-2.19-2.79-4.03-2.55ZM376.14,273.48c-.13,1.04-.68,1.83-1.83,2.03-.49-.4-.53-.94-.43-1.48.24-1.24.65-2.43,1.22-3.6,1,.83,1.19,1.93,1.05,3.06Z"/>
      <path class="cls-1" d="M370.09,227.65c1,.14,2.02.23,3.01.13,1.14-.12,2.26-.47,3.41-.72,1.53-1.23,2.16-2.59,2.36-4.01.29-2,.15-4.05-.21-6.04-.21-1.19-.92-2.13-1.95-2.78-1.26-.79-2.65-1.08-4.15-.95-1.92.17-2.54.62-3.08,2.42-.29.96-.65,1.91-.99,2.86-.74,2.07-.96,4.22-.84,6.41.06,1.28,1.1,2.5,2.42,2.68ZM373.11,219.19c.13-.18.46-.33.68-.3.21.03.52.26.57.47.16.53.2,1.09.31,1.75-.16.46-.28,1-.52,1.49-.17.36-.5.65-.96.65-.33,0-.75-.47-.81-.86-.18-1.16.08-2.23.72-3.2Z"/>
    </g>
  </g>
</svg>