<?xml version="1.0" encoding="UTF-8"?>
<svg id="Layer_2" data-name="Layer 2" xmlns="http://www.w3.org/2000/svg" viewBox="0 0 291.49 181.05">
  <defs>
    <style>
      .cls-1 {
        fill: #284268;
      }
    </style>
  </defs>
  <g id="Layer_1-2" data-name="Layer 1">
    <g>
      <rect class="cls-1" x="147.64" y="107.14" width="11.87" height="39.78"/>
      <rect class="cls-1" x="129.66" y="107.14" width="11.78" height="39.78"/>
      <path class="cls-1" d="M143.95,63.32c-.34,0-1.36,0-2.52,1.99-2.66,4.6-2.65,13.97,0,18.57,1.15,1.98,2.17,1.99,2.52,1.99,1.24,0,2.34-.93,3.25-2.77,2.25-5.45,2.25-11.57,0-17.01-.91-1.84-2.01-2.77-3.25-2.77Z"/>
      <path class="cls-1" d="M159.51,51.15h-29.85v49.78h29.85v-49.78ZM143.95,92.09h0c-5.32,0-10.7-5.4-10.7-17.48-.07-3.85.67-7.67,2.19-11.21,1.9-4.05,4.92-6.28,8.5-6.28s6.81,2.21,8.81,6.22c1.61,3.53,2.41,7.38,2.33,11.27,0,10.29-4.58,17.48-11.14,17.48Z"/>
      <rect class="cls-1" x="73.89" y="92.21" width="16.51" height="54.7"/>
      <path class="cls-1" d="M123.46,146.92v-54.7h-26.85v54.7h26.85ZM103.74,109.56h11.78c1.71,0,3.1,1.39,3.1,3.1s-1.39,3.1-3.1,3.1h-11.78c-1.71,0-3.1-1.39-3.1-3.1s1.39-3.1,3.1-3.1Z"/>
      <path class="cls-1" d="M73.89,86.01h49.57v-21.52h-49.57v21.52ZM105.62,72.2h5.79c1.71,0,3.1,1.39,3.1,3.1s-1.39,3.1-3.1,3.1h-5.79c-1.71,0-3.1-1.39-3.1-3.1s1.39-3.1,3.1-3.1ZM84.75,72.2h5.79c1.71,0,3.1,1.39,3.1,3.1s-1.39,3.1-3.1,3.1h-5.79c-1.71,0-3.1-1.39-3.1-3.1s1.39-3.1,3.1-3.1Z"/>
      <path class="cls-1" d="M189.48,92.21h-23.77v54.7h23.77v-54.7ZM183.18,115.76h-11.78c-1.71,0-3.1-1.39-3.1-3.1s1.39-3.1,3.1-3.1h11.78c1.71,0,3.1,1.39,3.1,3.1s-1.39,3.1-3.1,3.1Z"/>
      <rect class="cls-1" x="247.93" y="49.62" width="36.93" height="15.45"/>
      <path class="cls-1" d="M249.14,43.42h34.22l-1.27-3.12c-1.36-3.35-1.04-7.15.86-10.23h-33.71c.12.22.24.42.36.63,1.49,2.78,1.77,6.05.77,9.04l-1.24,3.68Z"/>
      <path class="cls-1" d="M271.97,13.74c-.78.42-1.03,1.9-1.09,2.37-.2,1.55-1.52,2.7-3.08,2.7h-3.43c-1.62,0-2.97-1.25-3.09-2.86-.03-.78-.37-1.52-.96-2.05-.58.6-.94,1.39-.99,2.22-.21,1.54-1.52,2.69-3.07,2.69h-3.4c-1.64,0-3-1.28-3.1-2.91-.08-1.29-.67-2.05-.93-2.16-.78.42-1.03,1.9-1.09,2.37-.2,1.55-1.52,2.7-3.08,2.7h-.04v5.07l42.77-.02v-5.05c-1.57-.05-2.86-1.28-2.98-2.86-.02-.78-.37-1.52-.96-2.05-.58.6-.94,1.39-.99,2.22-.21,1.54-1.52,2.69-3.07,2.69h-3.4c-1.64,0-3-1.28-3.1-2.91-.08-1.29-.67-2.04-.93-2.16Z"/>
      <path class="cls-1" d="M241.73,136.23v-44.02h-23.33v54.7h16.17c-.15-.62-.23-1.25-.23-1.89v-.74c0-4.19,3.21-7.69,7.39-8.05Z"/>
      <path class="cls-1" d="M164.83,43.86v-.19c-.15-5.79-4.91-10.39-10.7-10.36h-19.18c-5.8-.03-10.56,4.6-10.7,10.4v.15c-.01.38.08.76.27,1.1h40.04c.19-.33.28-.71.27-1.1Z"/>
      <rect class="cls-1" x="195.68" y="92.21" width="16.51" height="54.7"/>
      <path class="cls-1" d="M212.2,64.49h-46.49v21.52h46.49v-21.52ZM181.42,77.7h-5.8c-1.71,0-3.1-1.39-3.1-3.1s1.39-3.1,3.1-3.1h5.8c1.71,0,3.1,1.39,3.1,3.1s-1.39,3.1-3.1,3.1ZM202.28,77.7h-5.79c-1.71,0-3.1-1.39-3.1-3.1s1.39-3.1,3.1-3.1h5.79c1.71,0,3.1,1.39,3.1,3.1s-1.39,3.1-3.1,3.1Z"/>
      <path class="cls-1" d="M56.93,146.92h10.76v-54.7h-17.92v44.02c4.18.36,7.39,3.86,7.39,8.05v.74c0,.64-.08,1.27-.23,1.89Z"/>
      <path class="cls-1" d="M247.93,81.99v54.21h36.17v-54.21h-36.17ZM262.44,127.94c0,1.71-1.39,3.1-3.1,3.1s-3.1-1.39-3.1-3.1v-38.34c0-1.71,1.39-3.1,3.1-3.1s3.1,1.39,3.1,3.1v38.34ZM276.81,127.56c0,1.71-1.39,3.1-3.1,3.1s-3.1-1.39-3.1-3.1v-38.34c0-1.71,1.39-3.1,3.1-3.1s3.1,1.39,3.1,3.1v38.34Z"/>
      <rect class="cls-1" x="240.54" y="142.4" width="50.96" height="4.52" rx="1.89" ry="1.89"/>
      <rect class="cls-1" x="8.15" y="153.12" width="276.71" height="10.86"/>
      <path class="cls-1" d="M43.56,136.2v-54.06H7.39v54.06h36.17ZM30.07,89.21c0-1.71,1.39-3.1,3.1-3.1s3.1,1.39,3.1,3.1v38.34c0,1.71-1.39,3.1-3.1,3.1s-3.1-1.39-3.1-3.1v-38.34ZM15.7,89.59c0-1.71,1.39-3.1,3.1-3.1s3.1,1.39,3.1,3.1v38.34c0,1.71-1.39,3.1-3.1,3.1s-3.1-1.39-3.1-3.1v-38.34Z"/>
      <rect class="cls-1" y="71.42" width="50.96" height="4.52" rx="1.89" ry="1.89"/>
      <rect class="cls-1" y="142.4" width="50.96" height="4.52" rx="1.89" ry="1.89"/>
      <path class="cls-1" d="M8.61,43.56h34.22l-1.27-3.12c-1.36-3.35-1.04-7.15.86-10.23H8.72c.12.22.24.42.36.63,1.49,2.78,1.77,6.05.77,9.04l-1.24,3.68Z"/>
      <rect class="cls-1" x="7.39" y="49.77" width="36.93" height="15.45"/>
      <rect class="cls-1" x="240.54" y="71.28" width="50.96" height="4.52" rx="1.89" ry="1.89"/>
      <path class="cls-1" d="M46.86,18.95c-1.58-.05-2.87-1.28-2.99-2.86-.02-.78-.37-1.52-.96-2.05-.58.6-.94,1.39-.99,2.22-.21,1.54-1.52,2.69-3.07,2.69h-3.4c-1.64,0-3-1.28-3.1-2.91-.08-1.29-.67-2.04-.93-2.16-.78.42-1.03,1.9-1.09,2.37-.2,1.55-1.52,2.7-3.08,2.7h-3.42c-1.62,0-2.97-1.25-3.09-2.86-.02-.78-.37-1.52-.96-2.05-.58.6-.94,1.39-.99,2.22-.21,1.54-1.52,2.69-3.07,2.69h-3.4c-1.64,0-3-1.28-3.1-2.91-.08-1.29-.67-2.04-.93-2.16-.78.42-1.03,1.9-1.09,2.37-.2,1.55-1.52,2.7-3.08,2.7h-.04v5.07l42.77-.02v-5.05Z"/>
      <rect class="cls-1" x="19.09" y="170.19" width="254.07" height="10.86"/>
      <path class="cls-1" d="M132.4,21.61c0,1.71,1.39,3.1,3.1,3.1h19.7c1.71,0,3.1-1.39,3.1-3.1s-1.39-3.1-3.1-3.1h-19.7c-1.71,0-3.1,1.39-3.1,3.1Z"/>
      <path class="cls-1" d="M136.37,12.35c0,1.71,1.39,3.1,3.1,3.1h11.76c1.71,0,3.1-1.39,3.1-3.1s-1.39-3.1-3.1-3.1h-11.76c-1.71,0-3.1,1.39-3.1,3.1Z"/>
      <path class="cls-1" d="M147.14,6.2c1.71,0,3.1-1.39,3.1-3.1s-1.39-3.1-3.1-3.1h-3.59c-1.71,0-3.1,1.39-3.1,3.1s1.39,3.1,3.1,3.1h3.59Z"/>
    </g>
  </g>
</svg>