<?xml version="1.0" encoding="UTF-8"?>
<svg id="Layer_2" data-name="Layer 2" xmlns="http://www.w3.org/2000/svg" viewBox="0 0 82.94 73.11">
  <defs>
    <style>
      .cls-1 {
        fill: #5c2f1c;
        fill-rule: evenodd;
      }
    </style>
  </defs>
  <g id="_Layer_" data-name="&amp;lt;Layer&amp;gt;">
    <g>
      <path class="cls-1" d="M10.47,6.93c-.31-.71-.39-1.37-.24-2.05.02-.09.11-.16.17-.23.06.09.17.18.18.27.09.67.08,1.34-.11,2.01h0ZM19.5,6.29c.02-.23,0-.47.02-.7.01-.28.17-.53.21-.5.18.15.21.39.2.63-.02.47-.02.93-.04,1.4,0,.11-.08.31-.11.31-.14,0-.24-.18-.27-.45-.02-.23,0-.47,0-.7h0ZM14.41,20.92c.02-.25.02-.58.08-.92.04-.19.17-.35.27-.53.08.21.19.4.24.61.13.55.12,1.11,0,1.67-.02.11-.1.23-.19.28-.12.07-.26-.08-.33-.35-.04-.21-.04-.45-.08-.76h0ZM12.3,6.73c0-1.06-.01-1.42,0-1.77,0-.12.08-.23.13-.34.16.08.24.25.24.53,0,.72.02,1.43,0,2.15,0,.11-.08.23-.12.34-.14-.08-.22-.25-.24-.53-.02-.35-.03-.71-.02-.37h0ZM10.08,10.35c.68-.02,1.07-.18,1.02-.36-.11-.37-.36-.59-.72-.68-.11-.03-.23-.05-.34-.07-.12-.02-.25,0-.36-.04-.46-.17-.79-.48-.87-.98-.19-1.16-.02-2.37-.27-3.52-.06-.28-.24-.38-.52-.37-.48.02-.64.18-.49.6.19.56.28,1.14.33,1.73.08.94.02,1.9.29,2.81.08.23.2.42.43.53.21.1.41.25.63.28.35.06.7.05.89.06h0ZM13.86,5.19c-.07-.59-.11-1.18-.12-1.78,0-.52.29-.89.73-1.16.64-.38,1.32-.59,2.05-.52.47.05.94.09,1.41.16.26.04.41.23.47.48.02.12.06.22.07.34.03.27-.03.5-.2.57-.07.03-.2-.09-.3-.15-.51-.31-.66-.29-.75.13-.23,1.17-.41,2.35-.87,3.46-.04.08-.17.12-.27.18-.04-.11-.13-.21-.14-.32-.06-.59-.1-1.18-.13-1.77-.03-.47-.02-.96-.08-1.42-.03-.21-.17-.41-.31-.58-.11-.13-.72.33-.81.62-.1.34-.22.69-.25,1.04-.08.71-.06,1.43-.16,2.14-.06.43-.21.43-.29,0-.02-.12-.04-.23-.04-.35v-1.07h0ZM35.04,32.88c-.03-1.19-.1-2.38-.09-3.57.01-1.91.12-3.82-.45-5.65-.04-.95-.06-1.9-.11-2.85-.02-.35-.1-.7-.15-1.05-.06-.37-.83-.64-1.17-.41-.31.2-.6.44-.63.82-.08.83-.12,1.66-.18,2.49-.04.51-.64,1.14-1.17,1.25-.7.16-1.41.21-2.12.21-.84-.02-1.58-.68-1.65-1.52-.02-.35-.06-.71-.02-1.06.06-.6.18-1.19.26-1.77.02-.1-.06-.22-.1-.33-.14-.36-.76-.7-1.17-.63-.47.08-.96.48-1.05.87-.03.12-.08.23-.1.35-.05.47-.1.95-.13,1.43-.03.47-.02.95-.05,1.42-.04.66-.78,1.33-1.48,1.33-.95,0-1.9-.04-2.85-.07-.12,0-.23-.06-.34-.08-.37-.06-.86-.62-.9-.98-.1-.71-.04-1.42-.04-2.14,0-.48-.02-.96-.1-1.42-.04-.2-.24-.39-.4-.54-.07-.06-.23-.05-.34-.05-.71.02-1.18.43-1.25,1-.1.72-.02,1.43,0,2.14,0,.47-.03.94-.05,1.42-.02.37-.53.89-.92,1.03-.59.21-1.18.19-1.77.16-.71-.03-1.41-.59-1.52-1.24-.08-.47-.14-.94-.19-1.41-.06-.58.02-1.18-.16-1.76-.09-.28-.23-.37-.53-.24-.2.08-.41.24-.41.51-.02,2.15-.02,4.29-.01,6.43,0,.35,0,.72.09,1.06.33,1.27.3,2.58.31,3.89.04,2.62.11,5.24.18,7.85.02.59.04,1.18.23,1.75.12.37.68.79,1.07.74.59-.08,1.18-.22,1.77-.24.34-.02.7.1,1.02.23.45.19.78.55.8,1.06.02.95-.02,1.9.02,2.85,0,.19.2.43.37.55.39.27.86.34,1.35.35.3,0,1.03-.41,1.07-.83.06-.48.14-.95.26-1.41.17-.7.38-1.39.61-2.07.12-.35.45-.57.78-.71.33-.15.67-.25,1.03-.33,1.18-.25,2.36-.28,3.55-.16.36.04.67.18.96.39.41.3.59.72.53,1.23-.06.47-.22.93-.29,1.4-.1.62.33,1.09,1,1.18.59.08,1.18.08,1.78,0,.58-.08,1.13-.64,1.17-1.2.03-.35.06-.71.06-1.07,0-1.34.26-1.8,1.91-2.05.35-.06.69-.16,1.04-.24.3-.06.61-.47.62-.79.03-2.5.06-5,.1-7.5h-.05ZM40.14,71.08c-4.65.15-9.3.25-13.95.37-.95.02-1.9,0-2.84-.18-.46-.1-.94-.1-1.42-.11-1.19-.02-2.38,0-3.57-.05-.71-.02-1.43-.06-2.12-.21-.82-.17-1.63-.29-2.47-.3-.84-.01-1.65-.18-2.47-.32-1.64-.27-3.28-.49-4.92-.7-.59-.08-1.19-.06-1.78-.11-.23-.02-.46-.08-.69-.12-.39-.06-.64-.33-.77-.65-.13-.32-.21-.68-.21-1.03-.03-1.54-.03-3.1-.03-4.65,0-1.07-.05-2.14-.31-3.19-.23-.93-.25-1.88-.29-2.83-.14-3.1-.13-6.2-.1-9.3,0-.71,0-1.43.18-2.14.06-.24.18-.45.4-.59.21-.13.4-.28.62-.35.34-.1.7-.17,1.06-.21.64-.08,1.21.39,1.16.98-.04.59-.1,1.19-.17,1.78-.06.49.07.94.24,1.37.16.38.42.57.82.52.71-.09,1.41-.19,2.12-.06.58.11,1.18.1,1.77.13.37.02.99-.48,1.11-.83.37-1.15.49-2.35.74-3.52.08-.37.38-.6.75-.68.35-.08.7-.11,1.05-.15.12,0,.23.04.35.06.32.04.61.4.68.69.19.82-.1,1.66.03,2.5.11.68.64,1.4,1.32,1.47,1.41.14,2.83.25,4.27.2.23,0,.47-.1.68-.2.47-.23.72-.68.75-1.15.08-1.07.07-2.15.29-3.21.08-.38.34-.64.64-.84.42-.27.89-.36,1.38-.31.78.06,1.3.72,1.15,1.46-.04.23-.1.47-.19.69-.24.62-.07,1.17.22,1.7.23.44.58.75,1.1.73,1.67-.06,3.33-.09,4.99.08.22.02.49-.06.69-.17.19-.11.43-.31.48-.52.12-.46.16-.94.2-1.42.06-.59,0-1.19.19-1.77.08-.24.45-.56.84-.6.25-.03.5.02.64.22.46.66,1.03,1.24,1.19,2.11.08.45.39.84.6,1.27.11.21.3.35.56.37,1.3.14,2.61.04,3.92-.02.56-.02,1.25-.52,1.38-1.02.22-.81.43-1.62.66-2.44.12-.44.55-.8,1.05-.85.47-.05.95-.07,1.42-.09.12,0,.26,0,.35.06.18.12.35.28.52.43.06.71.1,1.41.18,2.12.08.73.72,1.4,1.34,1.42,1.31.03,2.62.06,3.93.08.35,0,.72-.04,1.07-.11.23-.04.49-.13.65-.28.35-.33.61-.74.68-1.24.08-.61-.1-1.18-.18-1.77-.09-.6.29-1.22.86-1.42.7-.25,1.4-.3,2.1-.1.49.14.84.47.93.95.11.58.08,1.19.16,1.77.04.35.18.68.31,1.01.15.41.74.74,1.13.65,1.29-.32,2.59-.46,3.91-.47.47,0,.95-.08,1.43-.13.41-.04.92-.54.96-.95.04-.59.07-1.19.12-1.78.03-.35.04-.73.14-1.06.07-.2.28-.44.48-.51.92-.31,1.88-.41,2.79-.06.33.12.59.38.65.76.06.35.1.7.14,1.05.06.47.09.95.16,1.42.08.47.25.9.47,1.32.21.39.76.69,1.19.57,1.28-.37,2.57-.6,3.88-.68.51-.03.88-.41,1.09-.86.15-.33.26-.68.31-1.03.12-.71.18-1.42.27-2.13.03-.27.47-.62.76-.68.49-.11.95-.05,1.4.06.92.23,1.24.6,1.24,1.43,0,1.19-.03,2.38-.38,3.55-.17.57-.22,1.18-.27,1.77-.08.96-.12,1.91-.15,2.87-.03.95-.09,1.91-.3,2.85-.24,1.06-.29,2.14-.26,3.21.06,1.67-.07,3.34-.18,5.01-.03.48-.02.97-.15,1.42-.45,1.52-.49,3.07-.47,4.62,0,.23-.09.47-.12.7-.05.28-.42.68-.72.75-.23.06-.47.15-.7.15-1.91.06-3.81.06-5.67.72-.33.12-.71.1-1.07.13-3.1.27-6.2.34-9.3.39-1.78.03-3.57.11-5.35-.16-.69-.1-1.42-.07-2.14-.02-4.29.24-8.59.38-12.88.35-.24,0-.48.02-.72.03h0ZM74.91,43.79c-.64.33-1.27.72-1.99.81-.21.02-.47-.08-.63-.22-.16-.15-.29-.39-.32-.61-.06-.59-.06-1.19-.1-1.77-.02-.36-.05-.71-.09-1.07-.04-.34-.57-.9-.91-.98-1.15-.27-2.31-.46-3.53-.25-.82.14-1.66.06-2.48.33-.41.14-.86.6-.88,1.05-.03.47-.03.95-.08,1.42-.03.36-.11.71-.17,1.06-.06.3-.42.64-.74.72-.82.21-1.64.29-2.48.14-.34-.06-.65-.37-.71-.68-.06-.36-.02-.71.02-1.07.05-.35.09-.71.1-1.06.02-.51-.62-1.19-1.09-1.21-1.91-.09-3.81-.14-5.69.37-.22.06-.46.2-.61.38-.15.17-.25.43-.28.66-.06.47-.06.95-.09,1.42-.03.36-.04.71-.09,1.07-.02.1-.11.23-.2.29-.19.14-.39.3-.61.34-.71.12-1.42.16-2.12.02-.45-.08-.82-.53-.77-1.01.06-.6.14-1.19.18-1.78.02-.37-.11-.69-.3-1-.14-.25-.62-.52-.88-.49-.12.02-.24,0-.36.02-.81.2-1.62.45-2.44.62-.7.15-1.42-.03-2.14.11-.39.08-.65.29-.83.62-.12.21-.19.44-.27.67-.23.68-.45,1.37-.66,2.05-.43.52-.98.71-1.6.68-.47-.02-.95-.46-.96-.86,0-.35-.02-.71,0-1.07,0-.48.02-.96.03-1.43,0-.36-.04-.74-.27-1.01-.62-.77-.7-1.72-.89-2.65-.18-.82-.22-1.64-.03-2.48.23-1.07.23-2.15.02-3.2-.17-.83-.15-1.66-.03-2.49.1-.72.08-1.42-.06-2.13-.17-.81-.24-1.65-.43-2.45-.25-1.04-.37-2.09-.42-3.17-.06-1.2,0-2.38.36-3.55.16-.53-.47-1.23-.94-1.3-.47-.07-.94-.14-1.41-.19-.71-.07-1.42-.14-2.12-.18-.35-.02-.95.49-.99.92-.06.83-.16,1.67-.25,2.5-.03.23-.11.47-.17.69-.08.28-.26.37-.53.41-.27.05-.43,0-.53-.29-.12-.34-.14-.68-.12-1.04.04-.72.17-1.43.03-2.14-.04-.21-.18-.44-.34-.59-.16-.16-.38-.29-.6-.34-1.15-.3-2.34-.33-3.54-.23-.52.04-1.13.56-1.29,1.12-.1.34-.22.69-.28,1.04-.1.71-.17,1.43-.25,2.14-.06.44-.55.82-1.04.79-.12,0-.24-.03-.35-.07-.39-.16-.59-.46-.56-.78.08-.97.35-1.88.8-2.75.29-.56.31-1.16.19-1.75-.12-.58-.3-1.15-.41-1.73-.27-1.39-.44-2.81-.38-4.25.08-1.91.14-3.82.21-5.73.06-1.43.17-2.87-.02-4.28-.04-.28-.43-.74-.67-.72-1.19.11-2.36-.09-3.55-.19-.59-.05-1.19,0-1.78.09-.72.1-1.4.31-2.04.69-.83.49-1.68.97-2.54,1.42-.31.16-.68.25-1.03.32-.72.14-1.41.04-2.1-.2-.89-.32-1.61-.96-2.55-1.2-.47-.12-.97.25-.97.78,0,.12-.05.24-.05.35,0,.24.02.47.04.71.05.71.12,1.42.17,2.13.09,1.19.09,2.38-.18,3.57-.08.35-.08.71-.03,1.07.06.38.23.72.53.86.84.42,1.72.77,2.59,1.13.43.19.9.26,1.39.23.96-.05,1.91-.08,2.87-.16.74-.06,1.38-.39,1.95-.88.37-.32.7-.68,1.05-1.02.36-.34.81-.52,1.27-.68.35-.13.71-.13,1.05-.02.68.2,1.34.45,1.94.83.41.27.73.64.82,1.1.33,1.63.45,3.28.43,4.95,0,.24-.18.46-.38.58-.2.13-.42.27-.65.31-.83.16-1.65.28-2.48.39-.49.07-.94.22-1.36.46-.34.19-.63.18-.96-.02-.41-.26-.87-.36-1.36-.31-.59.06-1.19.15-1.77.23-.54.08-1.07.7-1.11,1.28-.02.23-.06.47-.06.71.09,3.22.18,6.44.29,9.65.02.47.14.94.18,1.41.07.59.14,1.18.17,1.77.08,1.42-.49,2.85-.08,4.27.04,1.43.1,2.86.12,4.29,0,.35.02.76-.14,1.05-.48.9-.54,1.83-.51,2.8,0,.35-.05.71-.08,1.07-.04.46-.42.88-.91.98-.23.04-.47.06-.71.05-.48-.02-.88-.43-.91-.9-.05-.95-.09-1.9-.16-2.85-.02-.23-.15-.45-.23-.66-.08-.2-.67-.55-.88-.53-.24.03-.5,0-.7.1-1.34.6-2.75.86-4.19,1.01-.39.04-.6.38-.76.7-.1.21-.14.45-.21.68-.19.71-.25,1.42-.07,2.13.06.23.11.46.17.69.18.7.15,1.42,0,2.13-.15.71-.25,1.43-.08,2.13.24,1.06.2,2.11.08,3.19-.33,3.1-.5,6.2-.19,9.3.1.95.05,1.91-.02,2.86-.09,1.23.23,2.36.7,3.45.04.1.14.19.2.28.29.4.67.69,1.16.72,1.19.04,2.38.02,3.57.05,1.31.02,2.61.08,3.89.36.81.18,1.66.19,2.48.26,1.07.09,2.06.51,3.15.5.95,0,1.91.08,2.85.21,1.54.2,3.08.23,4.63.24,4.54.02,9.07-.14,13.6-.29,2.26-.08,4.52-.12,6.79.02,2.49.15,5.01.07,7.51-.11,2.63-.18,5.25-.24,7.87-.19,3.46.07,6.91,0,10.37-.33.6-.06,1.19-.1,1.79-.12.96-.03,1.91-.13,2.84-.4,1.05-.3,2.12-.4,3.2-.37,1.07.03,2.14-.1,3.2.17.4.1.99-.29,1.17-.69.21-.45.35-.9.28-1.38-.03-.23-.08-.47-.14-.7-.15-.58-.16-1.17,0-1.76.27-.93.54-1.85.82-2.77.18-.59.25-1.19.12-1.77-.42-1.99-.34-4.02-.39-6.04-.05-2.03,0-4.05.32-6.08.13-.83.21-1.67.22-2.5.02-1.91.12-3.81.54-5.71.16-.73-.15-1.4-.55-2-.21-.31-.5-.51-.87-.54-1.31-.13-2.61.01-3.92.15-.48.05-.92.26-1.34.52-.31.19-.59.47-.66.83-.14.7-.2,1.42-.33,2.12-.04.22-.21.42-.32.64Z"/>
      <path class="cls-1" d="M74.98,54.25c-.06-.25-.11-.6-.21-.94-.11-.41-.64-.73-1.09-.71-.72.02-1.4.19-2.04.54-.91.5-1.41,1.43-1.22,2.38.18.92.39,1.83.58,2.74.05.25.2.41.41.55.4.25.84.39,1.32.39.35,0,.72-.14.92-.45.26-.4.49-.83.66-1.27.37-.93.6-2.07.66-3.22Z"/>
      <path class="cls-1" d="M43.9,53.73c-.85-.02-1.56.47-1.75.97-.25.68-.45,1.38-.44,2.1,0,.36.06.72.27,1.01.33.49.67.96,1.03,1.41.25.33,1.03.32,1.31.07.75-.68,1.26-1.48,1.49-2.44.14-.58.16-1.19.22-1.78.04-.42-.36-1.03-.72-1.1-.57-.11-1.16-.2-1.42-.25Z"/>
      <path class="cls-1" d="M60.11,53.28s-.05-.6-.12-1.18c-.06-.56-.72-.89-1.31-.66-.11.05-.22.1-.32.14-.12.04-.22.1-.33.13-.78.23-1.12.84-1.34,1.54-.07.22-.12.46-.14.69-.04.59-.07,1.18-.09,1.77-.02.57.51,1.14,1.07,1.15.47,0,.94,0,1.4-.02.36-.02.97-.54,1.03-.88.04-.23.12-.46.14-.69.02-.47,0-.94,0-1.97Z"/>
      <path class="cls-1" d="M24.37,56.81c.05.45.09.8.14,1.15.01.11.07.22.12.33.26.54.64.96,1.29,1.03.52.06,1.13-.37,1.4-.91.05-.11.11-.22.15-.33.44-1.14.56-2.3.33-3.47-.02-.12-.06-.22-.1-.33-.14-.34-.8-.68-1.17-.57-.46.14-.9.31-1.27.62-.38.31-.64.71-.72,1.19-.07.46-.11.93-.15,1.31Z"/>
      <path class="cls-1" d="M15.21,56.32c0-.84-.07-1.3-.29-1.73-.1-.2-.69-.52-.9-.45-.58.18-1.14.38-1.72.56-.63.19-.98.65-1.24,1.22-.21.45-.3.92-.29,1.4,0,.49.18.92.62,1.18.3.18.62.33.93.5.21.12.45.14.69.04.45-.18.9-.33,1.34-.52.49-.21.72-.62.77-1.13.05-.47.08-.95.08-1.07Z"/>
      <path class="cls-1" d="M30.1,30.31c-.05-.41-.08-.64-.1-.87-.08-.68-.86-1.11-1.57-.88-.85.28-1.4.84-1.64,1.71-.31,1.11-.14,2.07.7,2.85.4.37,1.15.33,1.59-.08.36-.33.63-.72.74-1.18.14-.56.2-1.15.27-1.54Z"/>
      <path class="cls-1" d="M18.68,33.33c.05.53.2.94.65,1.19.21.12.43.15.66.09.87-.24,1.46-.91,1.48-1.76.02-.46.03-.94-.04-1.38-.08-.47-.36-.83-.79-1.07-.36-.19-1.04-.03-1.24.31-.58,1-.74,1.62-.72,2.63Z"/>
    </g>
  </g>
</svg>