<?xml version="1.0" encoding="UTF-8"?>
<svg id="Layer_2" data-name="Layer 2" xmlns="http://www.w3.org/2000/svg" viewBox="0 0 244.99 291.49">
  <defs>
    <style>
      .cls-1 {
        fill: #284268;
      }
    </style>
  </defs>
  <g id="Layer_1-2" data-name="Layer 1">
    <g>
      <path class="cls-1" d="M59.7,242.24v.25c0,2.65,2.01,5.32,5.06,9.38.65.86,1.36,1.8,2.09,2.81h112.12c.74-1.01,1.44-1.95,2.09-2.81,3.05-4.05,5.06-6.73,5.06-9.38v-.25c-.03-3.05-2.51-5.5-5.56-5.48h-115.3c-3.05-.02-5.53,2.43-5.56,5.48Z"/>
      <rect class="cls-1" x="53.38" y="260.88" width="139.06" height="30.61" rx="4.34" ry="4.34"/>
      <path class="cls-1" d="M171.37,23.43c.25-.18.5-.35.74-.52.41-.5.63-1.13.62-1.78v-.16c0-1.36-.89-2.81-2.6-5.46-.24-.37-.48-.75-.74-1.15h-93.48c-.25.4-.5.78-.74,1.15-1.71,2.65-2.6,4.09-2.6,5.46v.16c0,1.34.85,2.34,1.62,2.34h96.92c.09,0,.17-.02.26-.04Z"/>
      <polygon class="cls-1" points="67.34 .03 75.47 8.16 170.32 8.16 178.48 0 67.34 .03"/>
      <path class="cls-1" d="M154.05,43.71c2.57-5.18,5.94-9.92,10-14.04h-83.1c4.05,4.12,7.42,8.86,9.99,14.04h63.11Z"/>
      <path class="cls-1" d="M75.82,92.37l-5.01,138.2h105.78l-6.53-138.2h-94.24ZM89.32,182.62c-.04,1.68-1.42,3.02-3.1,3.02h-.08c-1.71-.04-3.07-1.46-3.02-3.18h0l1.25-50.76c.04-1.71,1.47-3.07,3.18-3.02,1.71.04,3.07,1.46,3.02,3.18l-1.25,50.76ZM90.85,120.17c-.04,1.68-1.42,3.03-3.1,3.03h-.07c-1.71-.04-3.07-1.46-3.03-3.17h0s.09-3.85.09-3.85c.04-1.71,1.46-3.07,3.17-3.03,1.71.04,3.07,1.46,3.03,3.17l-.09,3.85Z"/>
      <path class="cls-1" d="M202.8,19.54c-9.51.01-18.8,2.85-26.69,8.15-.49.44-1.03.83-1.62,1.13-6.8,4.96-12.19,11.6-15.65,19.27-.5,1.11-1.61,1.83-2.83,1.83h-67.04c-1.22,0-2.33-.72-2.83-1.83-7.78-17.32-24.97-28.49-43.96-28.55C18.93,19.54,0,38.57,0,61.96c0,20.72,16.76,37.57,37.35,37.57,10,0,19.47-4.49,25.8-12.24.59-.72,1.47-1.13,2.39-1.13h113.89c.93,0,1.81.41,2.39,1.13,6.33,7.74,15.8,12.23,25.8,12.24,20.6,0,37.35-16.85,37.35-37.57,0-23.4-18.93-42.43-42.19-42.43ZM208.52,84.73c-10.36-.04-18.74-8.45-18.73-18.82,0-8.63,6.97-15.64,15.61-15.67,7.25.02,13.11,5.91,13.11,13.16,0,1.71-1.39,3.1-3.1,3.1s-3.1-1.39-3.1-3.1c.01-3.83-3.08-6.94-6.9-6.96-5.21.02-9.42,4.26-9.4,9.47-.01,6.94,5.59,12.58,12.53,12.61,9.1-.04,16.46-7.44,16.44-16.54.02-11.81-9.52-21.4-21.32-21.45-15.19.06-27.46,12.41-27.43,27.59,0,1.71-1.39,3.1-3.1,3.1h-101.21c-1.71,0-3.1-1.39-3.1-3.1.03-15.19-12.24-27.53-27.43-27.59-11.81.05-21.35,9.65-21.32,21.45-.02,9.1,7.34,16.5,16.44,16.54,6.94-.03,12.54-5.68,12.53-12.61.01-5.21-4.19-9.45-9.4-9.47-3.83.02-6.91,3.13-6.9,6.96,0,1.71-1.39,3.1-3.1,3.1s-3.1-1.39-3.1-3.1c0-7.25,5.86-13.14,13.11-13.16,8.63.03,15.61,7.04,15.61,15.67.01,10.36-8.37,18.78-18.73,18.82-12.53-.04-22.66-10.22-22.64-22.74-.02-15.23,12.29-27.6,27.52-27.66,17.41.06,31.92,13.35,33.49,30.69h95.29c1.57-17.34,16.08-30.64,33.49-30.69,15.23.05,27.54,12.42,27.53,27.66.01,12.53-10.11,22.7-22.64,22.74Z"/>
    </g>
  </g>
</svg>