<?xml version="1.0" encoding="UTF-8"?>
<svg id="Layer_2" data-name="Layer 2" xmlns="http://www.w3.org/2000/svg" viewBox="0 0 206.36 291.49">
  <defs>
    <style>
      .cls-1 {
        fill: #284268;
      }
    </style>
  </defs>
  <g id="Layer_1-2" data-name="Layer 1">
    <g>
      <rect class="cls-1" x="59.34" y="77.11" width="85.06" height="16.48"/>
      <rect class="cls-1" x="134.63" y="221.87" width="6.31" height="34.88"/>
      <path class="cls-1" d="M56.48,17.42c5.14,5.68,7.98,13.08,7.96,20.75,0,3.41-.52,6.8-1.54,10.06h80.55c-1.02-3.26-1.54-6.65-1.54-10.06-.07-7.65,2.72-15.05,7.81-20.75H56.48ZM76.86,37.13c0,1.71-1.39,3.1-3.1,3.1s-3.1-1.39-3.1-3.1v-9.28c0-1.71,1.39-3.1,3.1-3.1s3.1,1.39,3.1,3.1v9.28ZM88.72,37.13c0,1.71-1.39,3.1-3.1,3.1s-3.1-1.39-3.1-3.1v-9.28c0-1.71,1.39-3.1,3.1-3.1s3.1,1.39,3.1,3.1v9.28ZM100.59,37.13c0,1.71-1.39,3.1-3.1,3.1s-3.1-1.39-3.1-3.1v-9.28c0-1.71,1.39-3.1,3.1-3.1s3.1,1.39,3.1,3.1v9.28ZM112.45,37.13c0,1.71-1.39,3.1-3.1,3.1s-3.1-1.39-3.1-3.1v-9.28c0-1.71,1.39-3.1,3.1-3.1s3.1,1.39,3.1,3.1v9.28ZM124.31,37.13c0,1.71-1.39,3.1-3.1,3.1s-3.1-1.39-3.1-3.1v-9.28c0-1.71,1.39-3.1,3.1-3.1s3.1,1.39,3.1,3.1v9.28ZM136.17,37.13c0,1.71-1.39,3.1-3.1,3.1s-3.1-1.39-3.1-3.1v-9.28c0-1.71,1.39-3.1,3.1-3.1s3.1,1.39,3.1,3.1v9.28Z"/>
      <path class="cls-1" d="M62.07,201.61h79.59c1.57,0,2.54-.63,2.74-.94v-100.89H59.34v100.89c.19.3,1.16.94,2.74.94Z"/>
      <rect class="cls-1" x="63.68" y="207.81" width="77.26" height="7.86"/>
      <rect class="cls-1" x="63.68" y="54.43" width="77.26" height="5.14"/>
      <path class="cls-1" d="M49.47,284.2c0,4.03,3.26,7.29,7.29,7.29h90.06c4.03,0,7.29-3.26,7.29-7.29s-3.26-7.29-7.29-7.29H56.76c-4.03,0-7.29,3.26-7.29,7.29Z"/>
      <rect class="cls-1" x="63.68" y="65.77" width="77.26" height="5.14"/>
      <rect class="cls-1" x="75.31" y="221.87" width="5.66" height="34.88"/>
      <rect class="cls-1" x="51.72" y="262.96" width="100.93" height="7.75" rx="2.3" ry="2.3"/>
      <rect class="cls-1" x="63.68" y="221.87" width="5.43" height="34.88"/>
      <rect class="cls-1" x="122.76" y="221.87" width="5.66" height="34.88"/>
      <rect class="cls-1" x="87.18" y="221.87" width="5.66" height="34.88"/>
      <path class="cls-1" d="M206.36,34.88c-.02-19.25-15.62-34.85-34.88-34.88H34.88C15.62.02.02,15.62,0,34.88c.02,16.98,13.78,30.75,30.77,30.77,15.17-.02,27.46-12.31,27.48-27.47.02-8.37-4.2-16.18-11.22-20.75h-12.15c-9.64.01-17.45,7.82-17.46,17.46,0,7.37,5.98,13.34,13.35,13.35,5.55,0,10.05-4.51,10.06-10.06,0-4.1-3.33-7.42-7.43-7.43-2.94,0-5.32,2.38-5.32,5.32,0,1.71-1.39,3.1-3.1,3.1s-3.1-1.39-3.1-3.1c0-6.36,5.16-11.52,11.52-11.52,7.52,0,13.62,6.11,13.63,13.63-.01,8.98-7.28,16.25-16.26,16.26-10.79-.01-19.54-8.76-19.55-19.55.02-13.06,10.6-23.65,23.66-23.66h136.61c13.06.02,23.65,10.6,23.66,23.66-.01,10.79-8.76,19.54-19.55,19.55-8.98,0-16.25-7.28-16.26-16.26,0-7.52,6.1-13.62,13.63-13.63,6.36,0,11.51,5.16,11.52,11.52,0,1.71-1.39,3.1-3.1,3.1s-3.1-1.39-3.1-3.1c0-2.94-2.38-5.32-5.32-5.32-4.1,0-7.42,3.33-7.43,7.43,0,5.55,4.51,10.05,10.06,10.06,7.37,0,13.34-5.98,13.35-13.35-.01-9.64-7.82-17.45-17.46-17.46h-12.19c-7.11,4.44-11.18,11.95-11.18,20.75.02,15.17,12.31,27.46,27.47,27.47,16.98-.02,30.75-13.78,30.77-30.77Z"/>
      <rect class="cls-1" x="110.9" y="221.87" width="5.66" height="34.88"/>
      <rect class="cls-1" x="99.04" y="221.87" width="5.66" height="34.88"/>
    </g>
  </g>
</svg>