<?xml version="1.0" encoding="UTF-8"?>
<svg id="Layer_2" data-name="Layer 2" xmlns="http://www.w3.org/2000/svg" viewBox="0 0 114.03 291.49">
  <defs>
    <style>
      .cls-1 {
        fill: #284268;
      }
    </style>
  </defs>
  <g id="Layer_1-2" data-name="Layer 1">
    <g>
      <rect class="cls-1" x="19.65" y="57.24" width="74.43" height="8.14"/>
      <rect class="cls-1" x="11.81" y="25.41" width="90.69" height="9.68"/>
      <path class="cls-1" d="M113.73,285.29c0-2.97-1.85-5.83-4.64-10.17-.56-.87-1.18-1.83-1.82-2.84H6.46c-.64,1.02-1.25,1.97-1.82,2.84-2.8,4.34-4.64,7.2-4.64,10.17v.26c0,3.22,2.17,5.94,4.73,5.94h104.27c2.57,0,4.73-2.72,4.73-5.94v-.26Z"/>
      <rect class="cls-1" x="15.47" y="41.3" width="83.17" height="9.75"/>
      <rect class="cls-1" x="3.9" y="71.59" width="105.94" height="14.83" rx="2.3" ry="2.3"/>
      <rect class="cls-1" x="3.9" y="216.36" width="105.94" height="14.83" rx="2.3" ry="2.3"/>
      <rect class="cls-1" x="17.05" y="237.39" width="79.42" height="10.31"/>
      <path class="cls-1" d="M114.03,5.94c0-3.22-2.17-5.94-4.73-5.94H5.03C2.46,0,.29,2.72.29,5.94v.26c0,2.97,1.85,5.83,4.64,10.17.56.87,1.18,1.83,1.82,2.84h100.81c.64-1.02,1.25-1.97,1.82-2.84,2.8-4.34,4.64-7.2,4.64-10.17v-.26Z"/>
      <rect class="cls-1" x="11.52" y="253.9" width="90.69" height="12.18"/>
      <path class="cls-1" d="M95.33,210.16v-117.54H18.4v117.54h76.93ZM76.48,102.32c0-1.71,1.39-3.1,3.1-3.1s3.1,1.39,3.1,3.1v97.28c0,1.71-1.39,3.1-3.1,3.1s-3.1-1.39-3.1-3.1v-97.28ZM54.71,102.32c0-1.71,1.39-3.1,3.1-3.1s3.1,1.39,3.1,3.1v97.28c0,1.71-1.39,3.1-3.1,3.1s-3.1-1.39-3.1-3.1v-97.28ZM31.04,103.18c0-1.71,1.39-3.1,3.1-3.1s3.1,1.39,3.1,3.1v97.28c0,1.71-1.39,3.1-3.1,3.1s-3.1-1.39-3.1-3.1v-97.28Z"/>
    </g>
  </g>
</svg>