<?xml version="1.0" encoding="UTF-8"?>
<svg id="Layer_2" data-name="Layer 2" xmlns="http://www.w3.org/2000/svg" viewBox="0 0 217.74 291.49">
  <defs>
    <style>
      .cls-1 {
        fill: #284268;
      }
    </style>
  </defs>
  <g id="Layer_1-2" data-name="Layer 1">
    <g>
      <path class="cls-1" d="M76.2,193.34c0,3.6,2.92,6.51,6.51,6.51s6.51-2.92,6.51-6.51-2.92-6.51-6.51-6.51-6.51,2.92-6.51,6.51Z"/>
      <path class="cls-1" d="M121.61,11.45C121.38,5.73,117.84.15,110.13,0c-7.71-.14-11.47,5.28-11.91,10.98l11.34,18.33,12.05-17.86Z"/>
      <path class="cls-1" d="M91.96,184.64v-93.71c-13.47,15.88-26.56,37.88-26.56,63.42v114.82h26.56v-67.12c-4.81,5.12-12.85,5.37-17.97.56-5.12-4.81-5.37-12.85-.57-17.97,4.81-5.12,12.85-5.37,17.97-.57.19.18.38.37.57.57Z"/>
      <path class="cls-1" d="M148.61,66.64c24.58,28.35,37.58,58.98,37.58,88.59v3.49h21.12v-3.49c0-75.35-67.49-128.16-81.78-138.49l-11.81,17.52c12.77,9.5,24.47,20.36,34.9,32.39Z"/>
      <path class="cls-1" d="M31.88,154.35c0-30.72,13.15-61.57,38.03-89.2,10.52-11.7,22.37-22.12,35.31-31.06l-11.12-17.97C79.5,25.89,10.76,76.04,10.76,154.35v4.37h21.12v-4.37Z"/>
      <path class="cls-1" d="M108.83,73.79c-3.23,2.85-6.88,6.29-10.67,10.25v185.12h21.3V84.45c-3.77-4.09-7.41-7.67-10.64-10.66Z"/>
      <path class="cls-1" d="M179.99,187.28h-.86c-5.63,0-10.2-4.57-10.21-10.21v-8.15c0-5.63,4.57-10.2,10.21-10.21h.86v-3.49c0-35.49-19.61-65.55-36.06-84.52-10.31-11.87-21.9-22.58-34.54-31.93-12.83,8.8-24.57,19.09-34.98,30.65-16.57,18.44-36.32,48.14-36.32,84.92v4.37h.53c5.63,0,10.2,4.57,10.21,10.21v8.15c0,5.63-4.57,10.2-10.21,10.21h-.53v81.85l21.12.03v-114.82c0-17.18,5.39-34.42,16.01-51.24,7.58-12,17.6-23.51,29.79-34.21,2.24-1.97,5.61-1.93,7.8.1,8.4,7.76,20.41,20.19,29.91,35.36,10.73,17.14,16.18,34.25,16.18,50.86v113.94l21.12-.03v-81.85Z"/>
      <path class="cls-1" d="M125.66,91.53v177.63h27.01v-113.94c0-24.76-13.34-47.2-27.01-63.69Z"/>
      <rect class="cls-1" x="186.19" y="187.28" width="21.12" height="81.85"/>
      <path class="cls-1" d="M217.74,287.49v-8.15c0-2.21-1.8-4-4.01-4l-35.1.03c-2,.25-3.51,1.95-3.51,3.97v8.15c0,2.21,1.79,4.01,4.01,4.01h34.61c2.21,0,4-1.79,4.01-4.01Z"/>
      <rect class="cls-1" x="175.12" y="164.92" width="42.62" height="16.16" rx="4.01" ry="4.01"/>
      <path class="cls-1" d="M4.01,291.49h34.61c2.21,0,4-1.79,4-4.01v-8.15c0-2.02-1.51-3.72-3.51-3.97l-35.1-.03c-2.21,0-4,1.79-4.01,4.01v8.15c0,2.21,1.79,4,4.01,4.01Z"/>
      <path class="cls-1" d="M168.92,287.49v-8.15c0-1.36.27-2.71.81-3.97H48.01c.53,1.26.81,2.61.81,3.97v8.15c0,1.38-.28,2.74-.82,4.01h121.74c-.54-1.27-.82-2.63-.82-4.01Z"/>
      <rect class="cls-1" x="10.76" y="187.28" width="21.12" height="81.85"/>
      <rect class="cls-1" y="164.92" width="42.62" height="16.16" rx="4.01" ry="4.01"/>
    </g>
  </g>
</svg>