<?xml version="1.0" encoding="UTF-8"?>
<svg id="Layer_2" data-name="Layer 2" xmlns="http://www.w3.org/2000/svg" viewBox="0 0 156.97 142.75">
  <defs>
    <style>
      .cls-1 {
        fill: #6d442f;
        fill-rule: evenodd;
      }
    </style>
  </defs>
  <g id="_Layer_" data-name="&amp;lt;Layer&amp;gt;">
    <g>
      <path class="cls-1" d="M51.02,88v-.04c-2.18,0-4.36-.09-6.52,0-3.06.16-5.98,1-8.8,2.19-.86.36-1.33,1.15-1.38,2.07-.11,1.73-.16,3.47-.2,5.21,0,.43.08.87.18,1.28.18.77.66,1.31,1.39,1.55.68.21,1.4.46,2.1.46,2.62,0,5.21.24,7.83.2,2.19-.03,4.33-.17,6.48-.59,1.56-.3,3.15-.44,4.75-.4,2.9.08,5.8.04,8.7.12,3.48.09,6.93,0,10.39-.6,3.73-.64,7.49-.8,11.21.29.68.2,1.43.2,2.15.23,3.04.14,6.08.21,9.13,0,2-.14,3.99-.56,6.03-.19.83.15,1.75-.02,2.58-.23,1.6-.4,3.16-.4,4.73.03,1.44.38,2.88.3,4.31.08,1.15-.18,2.28-.4,3.43-.61.61-.11,1.32-.88,1.41-1.5.38-2.45.29-4.9.06-7.37-.05-.48-.66-1.12-1.16-1.15-1.59-.11-3.18-.27-4.76-.28-2.9,0-5.81.18-8.66-.58-.27-.07-.58-.1-.85-.06-2.17.3-4.34-.15-6.51,0-1.01.07-2.03.06-3.03.18-2.16.28-4.31.68-6.46.9-1.43.16-2.9.21-4.33.09-1.15-.1-2.27-.24-3.45-.14-1.13.08-2.28-.23-3.43-.31-.57-.04-1.16.05-1.74.06-1.45.05-2.9.12-4.35.1-3.77-.04-7.51-.68-11.29-.52-.28,0-.58-.06-.85-.15-1.41-.5-2.87-.34-4.31-.35h-4.78ZM112.99,104.3s-.46-.05-.88-.16c-2.72-.77-5.48-.74-8.19-.2-1.73.34-3.44.46-5.18.46-2.46.02-4.93.03-7.39.05-2.18,0-4.34-.12-6.5-.53-3.03-.57-6.07-.53-9.07.21-1.85.45-3.73.58-5.61.57-2.47-.03-4.94-.11-7.4-.29-3.92-.27-7.82-.15-11.71.49-1.28.2-2.59.37-3.9.35-3.47-.02-6.96.07-10.41-.57-.41-.06-.84.04-1.27.06-.66.8-1.29,1.58-1.85,2.25-1.32.2-2.46.43-3.61.53-1.15.09-2.36.28-3.46.04-2.1-.47-4.02.22-6,.53-.59.09-1.23.97-1.25,1.62-.13,3.64.46,7.22.99,10.8.09.65.9,1.32,1.53,1.33,4.5.09,8.99.09,13.48-.22.43-.03.88,0,1.3-.12,2.11-.6,4.3-.65,6.44-.99,3.9-.6,7.78-.71,11.66.15.42.09.88.14,1.3.09,2.59-.3,5.19-.53,7.75-1.01,2.87-.54,5.73-.82,8.65-.74,2.03.06,4.06.06,6.09.08,1.31,0,2.59-.13,3.88-.39,2.27-.45,4.58-.72,6.88-1.01.41-.06.86.13,1.28.16.42.03.9.15,1.26,0,1.12-.45,2.27-.39,3.43-.42,2.75-.08,5.5,0,8.24-.42.56-.09,1.18-.06,1.71.1,1.13.34,2.28.37,3.44.38,2.17.03,4.35-.02,6.52.14,2.47.18,4.94.05,7.38-.25,2.59-.3,5.14-.89,7.75-1.04.73-.04,1.63-.99,1.75-1.75.46-2.86.91-5.72,1.35-8.58.05-.28.02-.58.03-.87.02-.43-.61-1.2-1-1.29-1.3-.29-2.64.07-3.9-.13-2.91-.49-5.77-.4-8.66.06-.42.06-.87,0-1.3.03-1.73.15-3.45.31-5.58.51h0ZM110.02,84.25c.65-1.09.68-1.83.71-2.54.11-2.16.18-4.32.03-6.51-.25-3.75-.51-7.55.02-11.28.5-3.6.52-7.22.83-10.82.07-.86.13-1.74.03-2.6-.3-2.75-.24-5.51-.21-8.26.03-2.77-.41-5.48-1.2-8.14-.33-1.12-.59-2.21-.71-3.37-.29-2.75-.98-5.42-1.89-8.01-.81-2.31-1.94-4.53-3-6.74-.5-1.04-1.12-2.04-1.76-3-.88-1.34-2.04-2.4-3.29-3.42-1.74-1.43-3.84-2-5.81-2.89-1.21-.54-2.48-.77-3.79-.88-3.17-.25-6.34-.55-9.5-.92-1.02-.13-2-.11-3.01.04-2.73.37-5.39,1.14-8.15,1.31-.7.04-1.39.37-2.07.62-3.42,1.27-6.52,3.11-9.33,5.43-1.11,2.36-2.54,4.55-3.35,7.05-.13.41-.44.74-.66,1.12-.77,1.38-1.53,2.78-2.07,3.75-.49,2.76-.82,5.05-1.31,7.31-.48,2.24-.43,4.62-1.68,6.68-.21.34-.18.84-.23,1.27-.18,1.44-.43,2.87-.5,4.31-.14,2.75-.18,5.49-.27,8.24-.03.73-.03,1.46-.14,2.17-.32,2.01-.73,3.99-1.01,6-.41,3.01-.71,6.06-.11,9.07.23,1.15.37,2.27.34,3.44-.05,2.31.05,4.62.93,6.83.31.79.32,1.71.54,2.54.11.39.41.73.58,1.02.38.09.66.2.95.21,4.34.11,8.69.24,13.04.29,1.45.02,2.89-.07,4.3.38.54.18,1.14.16,1.72.2,2.16.18,4.33.22,6.51.16,3.18-.08,6.4-.29,9.52.42,2.04.46,3.99.43,6.01.04,2.13-.42,4.29-.71,6.45-.93.99-.09,2.01.15,3.01.2.44.02.88,0,1.3-.08,1.74-.37,3.45-.21,5.18.07.98.16,2,.14,3.07.2h0ZM78.44,0c2.96.47,5.96.99,8.97,1.4,1.29.18,2.6.1,3.91.15,1.17.03,2.3.2,3.39.66,1.47.62,2.94,1.26,4.46,1.72,1.58.49,2.87,1.38,4.03,2.49,2.23,2.11,4.04,4.55,5.71,7.11.16.25.29.51.41.77,1.06,2.54,2.14,5.07,3.14,7.63.59,1.49.92,3.06.85,4.68-.07,1.47.19,2.86.69,4.26,1.19,3.32,1.32,6.82,1.64,10.29.59,6.36.36,12.75.26,19.13,0,.71-.21,1.43-.34,2.14-.23,1.27-.47,2.56-.74,3.83-.15.72-.18,1.41-.08,2.15.3,2.15.43,4.32.55,6.49.17,2.74.45,5.48.69,8.21.02.26.23.5.35.74,3.06.52,3.06.51,5.53.07.57-.09,1.14-.18,1.71-.21.76-.04,1.78.84,1.84,1.58.27,3.33.52,6.65.79,9.97.03.43.06.89.23,1.28.17.36.47.77.81.93,1.84.88,3.76,1.53,5.83,1.56.87.02,1.74.05,2.6.08.58.03,1.16.07,1.73.16,1.13.17,2.11,1.42,1.92,2.52-.62,3.57-1.23,7.14-2.05,10.66-.13.55-.16,1.14-.2,1.71-.03.45.62,1.18,1.05,1.25.15.02.28.11.42.11,3.77.06,7.54.11,11.12.16,1.12-.49,2.04-.89,2.86-1.25.42.04.72.03.98.11,1.12.32,2.15.85,3.02,1.65.5.47.62,1.53.12,1.96-.76.65-1.57,1.25-2.3,1.83-1.71.17-3.3.11-4.88-.15-.57-.09-1.14-.19-1.71-.3-1.44-.29-2.85.38-4.33.05-1.26-.3-2.59-.26-3.89-.34-.43-.03-.89-.03-1.29.08-.54.16-1.11.37-1.55.71-.58.42-1.01,1.04-1.58,1.47-.33.24-.8.29-1.21.41-.14.04-.3.06-.43.04-2.16-.58-4.33-.1-6.49-.12-2.04,0-4.04.21-6.05.56-2.74.49-5.49.41-7.88-.32-2.19.23-4.06.51-5.93.62-2.48.15-4.88.64-7.26,1.29-.56.16-1.13.42-1.69.41-2.47-.04-4.9.34-7.36.47-4.04.21-8.09.4-12.14.61-.58.04-1.16.14-1.72.29-1.57.41-3.16.43-4.75.43-4.36-.02-8.7,0-13.06-.03-7.4-.05-14.8-.06-22.2.21-3.76-.31-7.53-.05-11.3-.04-1.16,0-2.33-.06-3.48.06-1,.09-1.99.39-2.92.58-4.55-1.07-8.99-.65-13.38.48-.94.24-1.77.91-2.56,1.34-1.13-.3-2.01-.8-2.74-1.52-.56-.56-.68-1.27-.47-2.01.2-.75.71-1.24,1.43-1.51.27-.09.56-.17.84-.18,3.48-.17,6.9-.9,10.4-.8.58.02,1.15-.1,1.73-.15.76-.07,1.34-.79,1.13-1.53-1.23-4.4-.89-8.91-.91-13.39,0-.71.22-1.44.44-2.12.4-1.24,1.68-2.19,2.96-2.19,2.75-.02,5.5,0,8.27,0,1.28-.79,2-2.07,2.99-3.34.02-.6.05-1.31.07-2.03.06-3.04.08-6.09.2-9.14.05-1.27.95-2.08,2.02-2.63.5-.26,1.09-.36,1.67-.47,2.84-.56,5.61-1.47,8.52-1.67.14-.02.27-.1.41-.15.41-.1,1.04-.91.98-1.32-.27-2-.46-4.03-.88-6.01-.28-1.29-.47-2.57-.46-3.87.02-5.37.07-10.74.14-16.11,0-.57.15-1.14.29-1.71.68-2.83,1.11-5.7,1.22-8.6.06-1.6.36-3.16.65-4.74,1.03-5.55,1.95-11.12,2.97-16.68.4-2.15,1.42-4.1,2.36-6.06.81-1.71,1.68-3.37,2.6-5.01.92-1.65,1.92-3.25,2.91-4.85.15-.25.35-.46.55-.68,1.15-1.32,5.86-4.55,7.52-5.07,3.87-1.23,7.8-2.21,11.86-2.6,1.15-.11,2.27-.45,3.45-.69Z"/>
      <path class="cls-1" d="M66.29,128.04c.47,0,.63-.03.77,0,2.87.76,5.75.26,8.64.1,2.03-.12,4.06-.06,6.08-.07,7.1-.09,14.21-.18,21.3-.27,1.16-.02,2.32-.07,3.48-.05,1.75.05,3.47-.04,5.2-.32,1.71-.28,3.44-.45,5.19-.36,1.89.1,3.72-.5,5.62-.38,1.74.1,3.47.05,5.21.09,1.01.02,2.03.05,3.03.17.92.11,1.56.69,1.99,1.52.27.51.19,1.31-.24,1.57-.74.43-1.48.89-2.27,1.23-.68.3-1.42.14-2.14,0-.7-.15-1.43-.41-2.12-.35-2.61.26-5.21-.46-7.8-.08-1.29.19-2.51.41-3.86.23-1.24-.16-2.56.33-3.85.38-3.04.11-6.08.12-9.12.17-.29,0-.58-.05-.87-.03-2,.15-3.97.99-5.99.2-1.88-.04-3.76-.19-5.63-.12-3.76.15-7.53-.1-11.28.33-1.86.22-3.77.21-5.65.16-2.6-.08-5.21-.04-7.81-.06-3.17-.02-6.34.46-9.51.73-1.02.08-2.02.26-3.03.29-3.47.08-6.95.05-10.42.17-2.45.09-4.89.34-7.35.18-.86-.05-1.73.14-2.59.22-1.15.11-2.3.27-3.46.34-1.87.14-3.76.14-5.6.62-.69.17-1.44.14-2.16.17-.72.03-1.43-.48-1.65-1.17-.31-.91,0-1.81.72-2.29.87-.56,1.8-.99,2.84-.95,3.48.13,6.91-.65,10.4-.62,3.47.03,6.95-.13,10.42-.24,3.33-.11,6.66.05,9.97-.55,1.13-.2,2.33,0,3.47-.14,2.74-.31,5.51-.14,8.22-.69.71-.15,1.45-.1,1.84-.13Z"/>
      <path class="cls-1" d="M85.46,137.56c.86,0,1.73-.06,2.58.03.38.05.77.35,1.1.62.48.39.67.95.49,1.54-.17.55-.55,1-1.12,1.23-.26.1-.56.22-.83.18-2.36-.29-4.58.36-6.8.99-1.68.48-3.38.65-5.12.6-.83-.03-1.74-.78-1.87-1.52-.17-1.01.47-2.22,1.3-2.49.14-.05.27-.13.41-.15,3.29-.37,6.54-1.08,9.86-1.02Z"/>
      <path class="cls-1" d="M146.86,124.49c.52.27,1.05.47,1.5.8.62.47.79,1.18.66,1.93-.13.78-.68,1.33-1.4,1.48-2.24.46-4.5.88-6.77,1.18-.67.1-1.4-.17-2.1-.3-.34-.06-.79-.72-.69-.99.1-.26.22-.54.41-.72.31-.29.68-.53,1.05-.72.52-.26,1.06-.44,1.6-.64,1.89-.66,3.77-1.33,5.74-2.02Z"/>
      <path class="cls-1" d="M61.06,45.54s0,.69.08,1.39c.17,1.48,1.05,2.05,2.33,1.55.66-.26,1.35-.5,1.96-.85.48-.29.92-.68,1.27-1.12,1.24-1.55,1.6-3.32,1.12-5.24-.14-.59-.53-1.08-1.12-1.19-.83-.17-1.69-.28-2.53-.27-2.07.03-2.68.65-2.89,2.85-.07.71-.11,1.43-.22,2.87h0ZM58.25,53.86c-.91-1.47-2.41-2.03-2.15-3.73.32-.53.69-1.12,1.12-1.83-.14-1.06-.33-2.18-.43-3.32-.09-1.14-.08-2.3-.1-3.39-.51-.46-.97-.82-1.36-1.24-.6-.66-.48-1.89.21-2.3,3.18-1.87,6.47-3.14,10.3-2.5,1.47.24,2.79.7,4.03,1.48,1.76,1.11,2.57,2.72,2.53,4.75-.04,2.04-.77,3.96-1.13,5.95-.59.82-1.12,1.68-1.77,2.44-.65.77-1.42,1.42-2.13,2.13-.22.22.01,1,.33,1.12.4.16.79.37,1.2.46,3.02.71,5.63,2.23,8.09,4.06.22.17.36.45.55.71.27,1.12-.07,2.22-.24,3.33-.81.89-2.83,1.1-3.57.37-.1-.09-.25-.17-.32-.29-.13-.25-.28-.53-.32-.8-.21-1.31-1.07-2.03-2.22-2.42-1.5-.54-3.02-.99-4.54-1.47-.82-.26-1.55-.78-2.47-.76-.32,0-.94.37-.97.7-.18,2.3-.54,4.59-1.15,6.83-.23.83-.5,1.65-.72,2.35-.56.5-1.1.69-1.7.66-.88-.03-1.75-.85-1.7-1.65.03-.58.09-1.15.21-1.71.7-3.29.7-6.6.41-9.92Z"/>
      <path class="cls-1" d="M94.59,50.96c1.01-.23,1.98-.43,2.93-.69.55-.15,1.08-.38,1.61-.62,1.26-.57,2.03-1.51,2.37-2.89.57-2.32.51-4.57-.35-6.79-.1-.27-.25-.53-.45-.73-.19-.19-.5-.42-.73-.41-1.13.13-2.33.15-3.37.56-2.19.87-3.55,3.13-3.08,5.13.39,1.7.54,3.41.56,5.14,0,.4.3.77.51,1.28h0ZM102.71,52.74c-1.87.66-3.61,1.71-5.59,2.25-.8.21-1.53.76-2.27,1.21-.44.27-.68,1.09-.5,1.56.11.27.21.54.38.77,1.06,1.51.74,3.02-.02,4.5-.18.37-.55.66-.87.93-.53.44-1.52.31-1.98-.18-.61-.65-1.06-1.4-1.18-2.27-.37-2.87-.93-5.71-.9-8.62.02-1.15,0-2.3-.57-3.37-.19-.37-.24-.83-.27-1.26-.1-2.01-.17-4.04-.25-6.06-.03-.89.22-1.67.7-2.43,2.63-4.1,6.53-5.47,11.17-5.25.43.02.86.06,1.3.11,1.41.16,2.5.88,3,2.18.94,2.42,1.7,4.91,1.32,7.59-.04.29-.03.59-.13.86-.74,2.03-1.48,4.06-2.28,6.06-.21.52-.67.92-1.07,1.44Z"/>
      <path class="cls-1" d="M84.91,16.31c.65-.45,1.12-.78,1.59-1.1.12-.08.26-.14.39-.19.94,0,1.81.64,1.94,1.4.31,1.87.37,3.73-.02,5.61-.19.92-1.7,1.51-2.47.95-.34-.26-.63-.59-.95-.88-.21-.18-.43-.36-.69-.58-.38-.09-.8-.22-1.22-.29-.28-.06-.57-.04-.87-.06-1.16.46-1.39,1.41-1.18,2.48.14.7.45,1.36.7,2.04.2.53.41,1.06.56,1.44-.38,1.11-1.02,1.62-2,1.64-1.32.02-2.59-.21-3.78-.8-.83-.41-1.38-1.36-.97-2.13.63-1.2.98-2.42.82-3.75-.04-.39-.33-.75-.51-1.12-.5-.04-.93-.1-1.35-.1-.72,0-1.44.05-2.13.07-.54.36-1.01.7-1.51.99-.9.53-2.24-.04-2.42-1-.3-1.59-.21-3.16.18-4.72.19-.77,1.42-1.63,1.99-1.25,1.43.95,3.08.59,4.6.94.47.1,1.04-.57,1.01-1.19-.02-.57-.12-1.14-.16-1.52-.33-.79-.92-.9-1.43-1.17-.83-.44-1.14-1.04-.99-1.71.17-.8.75-1.19,1.46-1.44.14-.04.28-.09.42-.11,2.02-.3,4.05-.14,6.06,0,.58.05,1,.54,1.28,1.08.24.46.15,1.22-.21,1.62-.19.21-.39.42-.61.6-.23.17-.53.26-.74.43-.5.41-.6.96-.51,1.57.23,1.47.8,2.06,2.19,2.24.14.02.29.02.43.02.29,0,.58,0,1.11,0Z"/>
      <path class="cls-1" d="M84.99,36.56c-.18,1.37-.42,2.47-.35,3.63.19,3.03.14,6.07-.37,9.07-.26,1.59.08,3.18.33,4.72.32,2.04.13,4.04-.06,6.04-.06.69-.38,1.4-.76,2-.28.46-.79.82-1.27,1.12-.92.57-2.2,0-2.38-1.01-.07-.42-.21-.87-.16-1.28.52-4.47.1-8.93,0-13.4-.07-3.03-.03-6.07-.02-9.1,0-.42.09-.85.15-1.28.13-.8.94-1.48,1.86-1.54,1.01-.07,1.2-.02,3.03,1.04Z"/>
    </g>
  </g>
</svg>