<?xml version="1.0" encoding="UTF-8"?>
<svg id="Layer_2" data-name="Layer 2" xmlns="http://www.w3.org/2000/svg" viewBox="0 0 106.37 628.56">
  <defs>
    <style>
      .cls-1 {
        fill: #613b27;
        fill-rule: evenodd;
      }
    </style>
  </defs>
  <g id="_Layer_" data-name="&amp;lt;Layer&amp;gt;">
    <g>
      <path class="cls-1" d="M103.43,604.9c-.65-.5-1.4-.82-2.16-1.07-1.77-.63-2.61-1.89-2.65-3.71-.25-10.57-.6-21.2-1.56-31.76-.14-1.57-.17-3.21-.14-4.84.12-5.47-.35-10.88-1.02-16.29-.4-3.21-.52-6.48-.4-9.75.12-3.52.15-7.11-.2-10.57-.72-7.04-.87-14.09-1.24-21.13-.03-.82,0-1.63-.1-2.45-.97-6.48-.8-12.95-.46-19.5.12-2.45-.07-4.91-.16-7.36-.05-1.58-.29-3.21-.27-4.85.14-10.88.34-21.76.47-32.64.02-2.14.12-4.34-.17-6.48-1.09-8.37-1.05-16.8-.96-25.22.09-8.42.32-16.85.3-25.28-.03-3.77-.66-7.54-.66-11.32-.06-9.81.07-19.62.1-29.37,0-2.77.06-5.47-.1-8.18-.52-8.93-.95-17.92-.71-26.86.03-2.2-.26-4.34-.42-6.48-.21-2.77-.51-5.47-.59-8.17-.3-10.06-.56-20.13-.79-30.13-.09-3.84-.17-7.61-.64-11.44-.32-2.64-.72-5.41.11-8.05.42-1.38-.1-2.71-.31-4.03-.87-5.16-1.25-10.25-.64-15.16,1.95-2.83,4.36-4.65,7.07-6.04,1.98-1.07,3.97-2.01,5.95-3.02.98-.44,2.02-.88,2.95-1.51,1.48-.88,2.42-2.33,2.31-4.03-.18-3.02-.59-5.97-.97-8.93-.09-.82-1.43-2.14-2.29-2.2-1.96-.13-3.9-.37-5.84-.31-3.06.06-6.12.57-9.41.06-.39-.51-1.04-1.13-1.21-1.82-.2-.76.26-1.7.08-2.45-.86-3.46-1.25-6.98-1.02-10.5.24-3.77-.79-7.61.46-11.32-.58-2.14.1-4.34-.16-6.48-.16-1.26-.98-2.52-1.61-3.96,3.8-1.2,7.89-.69,11.21-2.58,2.03-2.14,3.17-4.46,3.16-7.36-.03-2.45.17-4.91.27-7.42-.87-1.63-1.77-3.33-2.7-5.03-.15-5.98-.66-11.95.95-17.86.22-.76.14-1.57.18-2.39.11-2.58-1.68-4.91-4.2-5.35-1.64-.25-3.29-.38-4.92-.44-3.85,0-7.71.06-11.55.12-1.05,0-2.22-1.13-2.28-2.01-.01-.25-.14-.57-.14-.82.05-6.23.1-12.46.24-18.74.02-.69.52-1.38.83-2.2,3.42-.13,7.6-.93,10.88-1.06,1.59-.13,2.19-1.02,2.22-2.53.11-3.97-1.25-5.29-3.97-8.31-2.01-2.2-4.86-5.69-6.39-8.27-3.61-6.23-22.17-21.06-22.24-21.31-.6-2.39-.35-12.8,0-15.13.95-6.55-.47-11.19-.16-18.01.17-4.09.85-8.4.08-12.43-.07-.44-.59-1.07-.98-1.13-.74-.12-1.59,0-2.29.25-.43.19-.86.76-.99,1.26-2.97,9.93-.33,17.07-1.15,27.36-.36,4.59-1.65,9.63-1.43,14.29.14,2.96-.69,5.77-3.24,7.28-1.95,1.79-7.59,6.73-8.58,7.74-1.82,3.08-4.43,4.72-7.53,6.42-3.39,1.82-5.23,5.65-8.52,7.48-3.98,2.26-6.44,5.85-9.34,9.06-.73.82-.57,2.01.02,3.08.8,1.45,1.86,2.64,3.72,3.33,2.21-.31,4.62.38,7.06.12,1.94-.19,4.48.7,4.76,2.64.14,1.07.26,2.14.27,3.27.11,5.16.1,10.31.28,15.47.14,4.65-.74,5.03-5.19,5.09-1.66,0-3.31-.13-4.94-.38-2.5-.38-4.95-.13-7.39.38-1.67.31-3.09,1.07-3.79,2.83-.41,6.98.69,14.03.04,20.69-.48.88-.65,1.45-1.01,1.82-3.04,3.15-3.27,6.73-1.86,10.63.19.5.37,1,.57,1.51,1.01,2.7,2.88,4.59,5.59,5.72,1.26.5,2.77.44,3.99,2.14.16.5.62,1.51.74,2.58.26,2.2.38,4.34.48,6.54.23,4.84.09,9.75,1.03,14.59.44,2.39.07,4.91-.09,7.3-.14,2.39-1.16,3.59-3.41,4.03-1.9.38-3.84.57-5.78.88-1.11.12-2.24.19-3.29.5-1.67.56-3.02,1.7-3.22,3.46C.1,202.06,0,204.83,0,207.53c.02,2.89,1.03,5.16,4.03,6.54,2.76,1.32,5.25,3.21,7.79,4.84.67.44,1.15,1.13,1.5,1.51.22.57.41.82.4,1.07-.23,17.11-.48,34.28-.71,51.38-.03,2.2,0,4.34.21,6.54.58,5.72.41,11.38-.86,17.04-.48,2.14-.6,4.28-.04,6.48,1.25,4.78,1.32,9.62,1.12,14.59-.19,4.59-.16,9.18.9,13.77.36,1.57.44,3.27.45,4.84.09,6.29.23,12.52.09,18.81-.37,13.58.4,27.17.44,40.75,0,1.13,0,2.21.17,3.27,1.07,5.91.89,11.89.9,17.86.02,5.22-.03,10.38.18,15.54.17,4.34.29,8.68-.14,13.02-.35,3.77-.41,7.61.07,11.38.64,5.16.52,10.32-1.03,15.35-.82,2.7-1.06,5.47-.19,8.05,1.16,3.52.85,6.98.54,10.51-.23,2.7-.65,5.47-.64,8.17.04,7.61-.65,15.23-.09,22.83.14,1.89-.15,3.78-.13,5.66.04,3.02-.12,6.04.31,8.99.6,4.09.71,8.05.05,12.14-.34,2.14-.38,4.4,0,6.48.99,5.15.82,10.25-.4,15.41,1.34,3.96,1.47,7.99,1.33,12.07-.09,2.45-.13,4.97.32,7.36.91,4.9-.18,9.68-.5,14.52-.07.88-1.24,1.89-2.3,2.01-1.6.25-3.25.25-4.84.57-1.07.19-2.06.88-2.43,1.95-1.36,4.22-2.07,8.49-1.53,12.89.22,1.7,1.24,2.95,2.77,3.78.72.31,1.51.69,2.29.82,2.43.25,4.88.63,7.29.5,5.45-.31,10.87-.06,16.31.13,4.35.13,8.71.19,13.03.13,8.15-.13,16.32-.44,24.47-.63,2.98-.07,5.96,0,8.93-.5,2.13-.32,4.35-.19,6.5-.13,1.91.06,3.79.32,5.69.38,1.94,0,3.76.32,5.42,1.45.64.44,1.47.63,2.26.82,2.24.38,4.67-.63,4.56-3.27-.18-4.4.23-8.68,1.15-12.96.24-1.07.21-2.2.14-3.27-.14-1.7-.93-3.15-2.33-4.09ZM83.35,123.95c.2-.76.57-1.51.87-2.26.46-1.13,2.7-1.39,3.51-.38.48.63,1.09,1.39,1.14,2.14.38,4.84.63,9.69.91,14.59.03.56-1,1.57-1.59,1.63-2.48.26-4.91.57-7.36-.19-.22-.06-.4-.31-.55-.5.57-5.1,1.79-10.07,3.07-15.03ZM74.41,120.05c1.4-.57,3.12.38,3.17,1.64.06,1.07.13,2.14.08,3.2-.21,4.84-1.31,9.56-.85,14.47.03.19-.89.69-1.31.63-.76-.13-1.7-.38-2.14-.94-1.06-1.26-1.61-2.89-1.6-4.53.03-2.96.31-5.91.25-8.87-.03-1.57.68-3.14,1.02-4.59.54-.38.92-.88,1.39-1.01ZM59.77,57.28c2.79,2.2,5,4.84,6.54,7.99.43.89.57,1.89.83,2.85.2.14.22.22.21.3,1.69,1.14,2.98,2.53,3.09,4.67.65.37,1.15.46,1.44.8,1.02,1.12,1.83,2.38,1.89,3.99.22.2.25.28.26.38.44.14.67.35.54.66-.16-.06-.42-.06-.46-.25-.06-.11-.06-.27-.07-.41-.09-.03-.12-.07-.23-.09,0-.1-.03-.19-.03-.29-2.18-.77-3.06-2.35-3.13-4.56-.6-.32-1.06-.4-1.32-.62-1.2-1.19-2.03-2.57-1.97-4.27-.66-.42-1.17-.42-1.45-.69-2.69-2.64-4.91-5.6-6.62-8.93-.16-.32.28-.94.48-1.51ZM27.82,79.29c-.95-.13-1.24-.82-1.16-1.82,4.09-4.97,9.4-8.87,14.33-13.08,1.6-1.39,3.67-2.27,5.59-3.27.37-.19,1.13-.13,1.46.19.33.25.59.94.51,1.38-.1.76-.52,1.45-.81,2.2-.92.13-1.73.19-2.52.31-.88.06-1.42.69-1.9,1.32-.49.76-.22,1.7.52,2.14.67.31.86.38,3.09.13,1.17.63,1.87,2.08,3.44,2.01,1.1-.44,1.59-1.32,1.84-2.45.19-.75.4-1.51.66-2.26.05-.13.35-.19.54-.25,1.17,1.26,1.51,2.83,1.78,4.46.42,2.45,1.17,4.78,2.7,6.73.25.32,1.06.51,1.39.32.37-.19.74-.88.69-1.26-.27-2.2-.75-4.27-.99-6.48-.07-.69.29-1.51.5-2.45.83.5,1.69.76,2.15,1.39,2.14,2.83,4.16,5.72,6.23,8.62.65.88,1.3,1.89.61,2.96-.49.75-1.45.5-2.25.5-1.36-.13-2.78-.5-4.06-.25-3.07.63-5.95,0-9.17-.76-.86-.69-1.86-1.64-2.97-2.39-.38-.25-1.11-.38-1.52-.19-1.24.51-2.39,1.26-3.6,1.95-2.46-.19-4.89-.5-7.32-.44-2.45.07-4.87.63-7.31.88-.81.06-1.65,0-2.46-.13ZM47.33,112.19c-1.82-2.33-2.71-4.84-2.49-7.61.35-4.53.77-9.12,1.19-13.65.05-.5.29-1.07.47-1.76.59-.31,1.26-.94,1.97-.94,1.88-.13,3.78.06,5.68.19,1.45.06,2.65,1.26,2.51,2.64-.43,3.53.69,6.92.91,10.44.2,3.21.98,6.41,1.33,9.62.08.63-.61,1.32-1.02,2.07-2.03-.31-3.9-.63-5.79-.82-1.59-.13-3.21-.13-4.75-.19ZM52.03,138.35c-.64.5-1.18,1.26-1.88,1.38-1.32.32-2.72.32-4.08.32-1.3-.07-2.6-1.45-2.63-2.71-.13-5.41.26-10.75,1.63-16.04.93-1.51,2.34-2.14,4.1-2.14.65,0,1.8.76,1.84,1.32.11,1.89.2,3.77.29,5.66.22,3.77.45,7.55.72,12.2ZM58.4,120.68c1.54-1.26,3.17-1.26,4.84-1.07,1.38.13,2.72,1.38,2.87,2.52.06.57.2,1.07.2,1.64.01,4.59.45,9.18,1.5,13.71.31,1.38-.88,2.51-2.44,2.58h-2.46c-5.16-.07-6.35-.88-6.57-6.04-.19-4.65.79-9.12,2.06-13.33ZM66.21,112.69c-1.59.25-3.11-.5-3.27-1.7-.91-6.73-2.03-13.39-1.48-20.25.06-.69.45-1.64,1.01-2.08.83-.69,1.96-.82,3.1-.5.9.25,1.92,1.38,1.95,2.39.05,2.39.05,4.84.07,7.3-.2,4.03-.56,8.11.87,12.07.45,1.32-.65,2.52-2.25,2.77ZM39.25,131.68c.19,2.08.07,4.28.07,6.41,0,.63-.93,1.45-1.62,1.57-3.06.57-5.97.19-8.9-1.38-.18-.63-.6-1.38-.59-2.14.03-4.84.66-9.62,1.8-14.59,2.41-1.57,4.72-1.07,6.79-1.63.76-.19,2.28,1.32,2.06,2.14-.76,3.27.11,6.41.38,9.62ZM39.16,113.19c-1.59.25-3.19.38-4.6.57-.42-.38-.72-.5-.79-.75-.2-.44-.43-1.01-.36-1.51,1.07-6.92.93-13.96,1.62-20.82.42-1.26,1.29-1.89,2.38-2.14,1.27-.31,2.98.88,3.09,2.01.06.5.13,1.07.14,1.57.14,6.23.28,12.45.42,18.68.02.88-.98,2.2-1.9,2.39ZM12.89,122.38c.3-1.07,1.26-1.89,2.35-1.89.82-.07,1.65-.19,2.47-.07,1.36.07,2.71.32,4.13.5.46.76,1,1.38,1.24,2.08.25.76.23,1.63.27,2.45.18,4.03.33,8.05.51,12.01-.62.31-1.08.76-1.56.76-2.75.06-5.49.06-8.24,0-.98,0-2.09-1.13-2.12-2.14-.13-4.59-.3-9.18.94-13.71ZM14.47,151.31c-.52.07-1.09,0-1.65,0-1.06-.06-2.43-1.64-2.47-2.9-.03-.82.95-2.45,1.62-2.64,1.05-.32,2.13-.75,3.2-.75,4.69.12,9.43.06,14.06.75,7.16,1.07,14.3,1.19,21.5.95,3.01-.13,6.07,0,9.09-.07,2.56-.06,4.91.69,7.69,1.76,3.03-1,5.7-1.51,8.52-1.51,4.14,0,8.29-.19,12.42-.25,1.34,0,2.63,1.26,2.75,2.58.08.88-.23,1.7-.96,2.08-1.93,1.07-4.01,1.76-6.35,1.26-6.28-1.32-12.65-1.19-18.98-1-6.92.25-13.83.13-20.74,0-2.22-.06-4.44-.25-6.63-.63-7.72-1.32-15.41-1.19-23.07.38ZM79.15,160.37c-.46.13-.93.31-1.38.25-.59-.06-.85-.5-.7-1.07.05-.19.31-.44.52-.44.21-.06.53,0,.68.19.33.31.59.69.87,1.07ZM66.97,172.5c1.05-.69,1.98-.25,2.01.5.05,2.64.35,5.34.52,7.99.08,1.32-.57,2.64-.87,3.96.68,2.33,2.67,4.21,2.06,6.54,1.41,1.26,2.45,2.14,3.5,3.02-.95,1.45-2.51,2.01-3.95,2.58-1.68.69-3.25.38-4.54-1.63,0-7.49-.16-15.35,1.27-22.96ZM63.48,159.23c1.12-.94,1.12-1.01,2.05-1.01,1.71,0,3.57-.69,5.19,1.01-2.51,1.13-4.85.75-7.24,0ZM73.68,182.12c-.06-.25-.08-.5-.09-.75,0-.25.03-.5.09-.82.15-.63,1.5-1.13,1.95-.57.48.57.75,1.32.96,1.64.04,1.38-.48,1.95-1.36,2.01-.83.06-1.33-.44-1.55-1.51ZM75.52,172.31c.38.25.53.82.8,1.2-.16.69-.99,1.01-1.86.75-.61-.25-.77-.69-.59-1.26.26-.88.89-1.26,1.65-.69ZM74.47,165.58c.24-.38.99-.63,1.4-.5.32.13.47.82.67,1.26-.09.63-.39.94-.93.94-.76-.06-1.54-1.13-1.14-1.7ZM59.15,176.4c-1.41-3.77-.83-7.48-.14-11.2.09-.63,1.08-1.13,1.78-1.45.34-.12,1.06.32,1.43.63.34.38.42.95.66,1.45-.81,1.07-1.6,2.14-2.41,3.14,2.37,4.65,2.84,5.28,2.42,8.43-.75,5.35-.3,10.82-.74,16.16-.09,1.07-.46,2.08-.69,3.02-1.12.06-1.91-.06-2.31-.94-.11-.19-.21-.5-.22-.75-.16-5.41-1.02-10.82.43-16.16.18-.69.07-1.64-.21-2.33ZM34.64,170.36c1.45-2.89,1.98-6.04,2.46-9.62,1.17,1.45.65,2.64.73,3.71.08,1.07.06,2.2.14,3.27.12,1.32.32,2.71.51,4.47,1.19,1.39,2.06,2.39,2.9,3.4.17.57.43,1.13.43,1.63.02,1.89-.13,3.78,0,5.66.07,1.07.68,2.07,1.7,2.7,1.44.76,2.75,1.82,4.46,1.82,1.38-.19,1.69-1.32,2.29-2.2.43-.69,1.09-1.2,1.7-1.7.79-.69,2.54-.13,2.74.82.74,3.21.74,6.48.43,9.68-.07.94-1.29,1.95-2.35,1.89-6.12-.13-12.27-.13-18.39-.44-3.32-.19-6.59-1.01-9.56-1.51-1.7-1.45-1.75-3.14-1.71-4.78.11-6.23.29-12.45.47-18.68.03-1.07.08-2.2.41-3.21.2-.57.93-1,1.49-1.57.55.95.95,1.64,1.42,2.27.13.19.51.31.77.25.21,0,.53-.19.6-.44.27-.75.54-1.51.63-2.26.28-2.39.54-4.84,1.61-6.98.94-.25,1.78-.31,2.05.69.2.75.33,1.57.28,2.39-.09,2.14-.4,4.28-.39,6.48,0,1.07.7,2.01,2.18,2.26ZM41.62,165.58c.07-1.19,1.16-2.2,2.05-1.95.88.19,1.22.88,1.23,1.76-.66,1.13-1.37,2.2-2.39,3.08-.96-.82-.94-1.89-.88-2.89ZM52.26,164.01c.09-.13.18-.25.28-.38.04.19.09.32.14.44-.15,0-.3,0-.43-.06ZM8.94,206.78c-1.62-.69-1.95-2.83-.46-3.96.84-.69,1.86-1.32,2.9-1.45,5.26-.88,10.61-.75,15.86-.07,5,.63,9.99.88,15,1.07,5.29.25,10.58.13,15.82,1.26,2.16.5,4.45.38,6.68.44,5.02,0,10.02.25,14.99.88,1.17.12,2.19-.19,3.26-.31,3.32-.44,6.67-.69,9.98-1.01.55-.06,1.1.06,1.67.13,1.91.13,2.79,1.76,2.16,4.66-5.34,1.51-10.28,1.82-15.35,1.01-1.65-.32-3.33-.44-5-.38-6.99,0-13.96-.63-20.95-.06-3.59.25-7.26-.25-10.88-.25-8.11,0-16.22,0-24.3.25-4.04.13-7.76-.63-11.38-2.2ZM83.97,544.27c-.87,1.57-2.18,2.39-4.02,2.01-.25-.06-.51-.19-.76-.25-2.89-1-5.77-1.13-8.74-.13-.75.19-1.6.13-2.42.19-.88,0-1.05-.12-2.24-2.01.34-.69.6-1.45,1.06-2.14.64-.88,1.55-1.44,2.71-1.57,1.9-.25,3.81-.31,5.62.44,2.35.88,4.67,1,7.14.32,1.13-.26,2.04.44,2.33,1.69-.23.44-.41,1-.67,1.45ZM84.36,560.75c.06.18-.02.56-.19.69-.4.32-.87.5-1.31.82-.81,0-1.82-.82-1.62-1.38.31-.88,1.12-.76,1.85-.76.26,0,.52.06.75.19.19.06.47.26.51.44ZM79.74,570.43c-.33.31-.93.38-1.41.5-.38-.25-1.06-.44-1.14-.76-.34-1.63.67-3.14,2.32-3.52.43-.06,1.08.19,1.37.51.25.31.39,1,.2,1.38-.29.69-.77,1.38-1.33,1.89ZM79.89,584.96c.87-.18,1.25.13,1.58,1.14.08.25.04.5.04.75-.44.19-.86.51-1.32.57-.86.19-1.51-.25-1.6-.94-.09-.82.4-1.32,1.31-1.51ZM21.96,557.23c1.18,1.82,1.07,3.52,1.08,5.09,0,6.73-.08,13.52-.18,20.25,0,.63-.44,1.19-.77,2.08-.28-.82-.6-1.32-.61-1.82-.11-7.87-.2-15.73-.24-23.53,0-.5.33-1.01.72-2.08ZM20.95,549.3c-.22,0-.57-.13-.64-.32-.7-1.57-.38-3.08-.18-4.84,1.78,1.19,1.39,2.89,1.77,4.34.16.5-.37.88-.95.82ZM22.27,439.11c-.27-4.34-.2-8.68-.26-13.02-.12-10.06-.22-20.12-.35-30.19-.03-3.52-.38-7.04-.62-10.57-.51-7.55-1.25-15.16.38-22.77.33-1.57.12-3.21.16-4.85.07-3.02.13-5.98.2-8.99.07-2.45,1.55-3.96,3.77-4.9.52-.25,1.02-.57,1.57-.69,4.98-.82,9.89-2.45,15.06-1.89,4.21.51,8.47-.25,12.7.63,1.3.25,2.78-.19,4.18-.37,1.41-.19,2.83-.26,4.15.37,2.38,1.07,4.9,1.13,7.46,1.07,3.67-.06,7.35,0,11.04.06,1.36,0,2.76,1.13,2.89,2.52.14,1.32,0,2.7,0,4.15-.73.31-1.46.94-2.19.94-4.3,0-8.4,1.01-12.51,2.01-.22.06-.38.38-.71.76.8.25,1.5.63,2.22.63,3.1.19,6.21.19,9.31.37,1.1.06,2.2.44,3.23.82.47.19.96.63,1.13,1.13.09.19-.47.82-.87,1-3.77,1.32-7.79,1.2-11.68,1.77-.78.12-1.51.63-2.2,1.06-.17.07-.14.51-.12.76.01.26.08.57.24.63.49.26,1.03.51,1.55.51,3.95.06,7.9,0,11.85.06.7,0,1.4.69,2.19,1.13-.02,1.95.04,3.84-.09,5.72-.03.44-.55,1.13-.97,1.26-1.9.44-3.84,1.01-5.78,1.13-3.37.12-6.74,0-10.35-.07-.61.32-1.06,1.01-.83,1.83.11.38.83.76,1.3.82,5.02.57,10.05,1.07,15.07,1.64.94.06,1.85,1.26,1.78,2.39-.07,1.38-.27,2.71-.37,3.84-.83,1.19-1.84,1.57-3.02,1.57-2.26.06-4.52.06-6.77.13-.52.06-1.09.31-1.49.69-.36.32-.72.88-.69,1.39,0,.38.54,1.01.91,1.07,2.52.25,5.04.38,7.54.63,1.39.12,2.74.56,3.5,1.88-.33,1.26-1.44,1.83-2.51,1.7-3.68-.32-7.33.13-10.97.38-.84,0-1.68.13-2.48.38-.43.19-.97.63-1.04,1.01-.05.44.4.94.71,1.57,1.59-.12,3.24-.25,4.9-.37,3.73-.32,7.3.43,10.76,1.51.66.19,1.32,1.07,1.46,1.76.14.63-.41,1.45-.59,2.08-3.41,1.26-6.71,1.76-10.11,1.76-.54,0-1.16.07-1.63.32-.42.25-.95.69-.96,1.07-.04.44.38,1.13.78,1.26,1.01.38,2.12.63,3.22.69,2.78.25,5.58.38,8.2.56,1.94,2.45,1.98,2.89-.04,5.85-2.71.88-5.52.44-8.32.44-2.8-.07-5.62-.13-8.43-.07-.53,0-1.08.19-1.59.38-.66.25-.84.63-.86,1.19-.03.63.14,1.13.8,1.32.79.19,1.61.32,2.41.38,3.93.19,7.85.25,11.76.51,1.08.06,2.16.5,3.19.88,1.26.51,1.34,1.51.75,2.96-.92.12-1.99.44-3.08.44-3.35.19-6.71.25-10.08.32-2.54.06-5.08.13-7.47,1.07-.69.26-1.16,1.01-1.94,1.7,1.04.32,1.81.82,2.57.82,5.61,0,11.19-.12,16.8-.12,1.1,0,2.23.25,3.3.5.47.13.85.63,1.22,1.01.17.19.26.5.25.75.27,7.61.62,15.22-.2,22.83-.12,1.01-1.16,2.14-2.13,2.21-1.67.12-3.32.25-4.99.32-4.45.25-8.92.12-13.31,1.26-1.32.32-2.75.25-4.15.25-3.9,0-7.8,0-11.69-.06-5.85-.19-11.68-.44-17.54-.19-2.48.06-4.98-.31-7.48-.51-.51-.06-1.66-1.13-1.72-1.63-.46-3.53-1.09-6.98-1.31-10.51ZM32.34,226.91c-.71-.38-1.55-.56-2.36-.69-2.22-.44-4.44-.76-6.63-1.2-.43-.06-.82-.69-1.09-1.07-.35-.57,0-1.76.62-2.2.45-.31.95-.69,1.46-.75.8-.06,1.68-.06,2.47.13,2.8.5,5.55.63,8.32-.25,1.04-.32,2.19-.38,3.32-.38,5.61-.13,11.23-.25,16.85-.19,2.53,0,5.1,0,7.54.57,4.42.94,8.88,1.32,13.38,1.51.37,0,.97.63,1,1.01.04.63-.52.82-1.15.82-5.62.19-11.22.44-16.83.57-1.95,0-3.93-.32-5.87-.63-2.24-.44-4.46-.44-6.71-.19-1.23.06-2,.82-2.44,1.89.43,1.07,1.14,2.01,2.34,2.07,4.22.19,8.45.57,12.64.31,5.92-.37,11.77-.25,17.59,1.07.78.19,1.67.06,2.44.25.47.13.84.69,1.15,1.13.44.63-.09,1.89-.77,1.95-3.94.32-7.86.57-11.78-.12-4.74-.82-9.54-.69-14.31-.82-.79-.06-1.58.38-2.34.56-.06.88-.25,1.89.8,2.08,1.93.31,3.87.69,5.82.63,7.07-.06,14.03,1.26,21.04,1.7,1.19.07,2.06.94,2.22,2.08.13,1-.74,2.45-1.59,2.52-1.69.06-3.35.12-5.04.12-3.93,0-7.86-.25-11.75.57-.21,0-.56.38-.52.44.16.5.27,1.2.65,1.45.7.38,1.55.63,2.34.63,4.23.25,8.45.37,12.68.63,1.13.06,2.15.5,2.99,1.32.72.69.58,2.58-.29,2.89-.76.25-1.52.69-2.32.76-3.09.25-6.18.44-9.27.56-3.63.19-7.32-.06-10.85.76-.08.69-.33,1.32-.12,1.7.22.37.91.69,1.37.69,3.95-.06,7.87-.26,11.81-.38,3.14-.13,6.2.31,9.09,1.26,1.26,1.07,1.36,2.45,1.23,3.84-.1,1.07-1.16,2.2-2.09,2.14-1.96,0-3.95-.06-5.91-.13-2.28-.13-4.45.06-6.56,1.13-2.52,1.26-5.33,1.63-8.18,1.7-1.12,0-2.29.06-3.33.38-5.68,1.7-11.66,1.89-17.43,3.15-3.07.69-6.18-.13-9.26-.38-1.66-.12-3.26-.75-4.57-1.13-.56-.69-1.02-1.13-1.19-1.57-.27-.82-.46-1.63-.51-2.39-.45-10.06-.77-20.07.06-30.25.75-.31,1.47-.76,2.24-.88,2.46-.57,5.07.13,7.49-.76.62-.25.96-.69.81-1.32-.12-.44-.31-1.07-.67-1.26ZM24.71,212.94c1.19-.88,2.48-.56,3.78-.31-1.11.69-1.11.75-3.78.31ZM43.33,212.69c.99-.5,1.96-.69,2.89.19-1,.5-1.97.69-2.89-.19ZM61.82,213.13c2.66-.82,3.1-.82,5.22-.57,1.68.19,3.28.57,4.61,2.01-3.52,1.07-6.47-.75-9.83-1.44ZM80.85,317.35c-.43.19-1.15.13-1.52-.13-.37-.25-.7-.88-.64-1.32.22-1.38,1-2.52,2.09-3.4.37-.32,1.03-.32,1.55-.5.89.88.98,1.88.64,2.96-.34,1.07-1.03,2.01-2.12,2.39ZM82.46,333.45c-.02.13-.03.25-.04.38-.15-.06-.31-.13-.45-.25.17,0,.33-.06.49-.13ZM55.3,305.46c2.62-6.86,5.3-13.65,7.92-20.32,1.84-1.26,2.91-1.45,4.06-1.38,1.78.13,2.66,1.38,1.82,2.64-.29.44-.72.82-.99,1.32-.42.63-1.14,1.38-1.1,2.08.18,2.58-.88,4.66-2.22,6.79-.69,1.13-1.14,2.45-1.44,3.77-.92,4.21-2.77,8.18-4.39,12.07-2.76-.13-3.04-2.26-4.17-4.15.12-.76.12-1.89.5-2.83ZM53.66,285.08c2.5-7.36,3.52-8.93,8.52-13.39,1.77,1.07,2.28,1.95,1.83,3.08-1.83,4.53-3.63,9.06-5.51,13.52-.25.63-1.04,1.07-1.58,1.57-1.71-1.38-2.87-2.83-3.26-4.78ZM72.31,279.36c-.85,1.32-3.7,1.57-5.22.31-.36-.25-.38-.95-.6-1.57.62-1.32,1.17-2.89,1.98-4.28.86-1.44,2.34-2.14,4.1-2.33.95-.06,2.32,1.13,2.21,1.95-.27,2.2-1.32,4.09-2.47,5.92ZM74.98,284.89c.22-.13.69-.19.69-.19.16.44.29.94.4,1.45-.42.25-.82.5-1.26.69-.16.06-.52-.06-.68-.25-.34-.38-.25-.82.22-1.26.19-.19.4-.38.63-.44ZM68.98,316.4c-.1-2.08.86-3.96,2.27-5.66,1.13-1.39,3.31-1.2,4.92.37-.15,1.95-1.19,3.59-2.22,5.16-.41.57-1.26,1.07-2.01,1.32-1.13.31-2.17-.06-2.96-1.19ZM69.42,326.78c-.65.94-1.77,1.2-2.95,1.13-.76-.07-1.68-.82-1.72-1.45-.11-1.7.63-3.14,1.73-4.34.33-.38.94-.57,1.46-.76.86-.25.87-.19,3,.94.27,1.7-.62,3.15-1.52,4.47ZM72.91,294.01c-.4,1-.98,1.38-1.73,1.19-.26-.38-.73-.76-.73-1.13.04-.44.35-1,.73-1.26.32-.25.99-.38,1.36-.19.55.25.61.82.37,1.39ZM62.43,312.82c1.43-3.2,2.75-6.48,3.97-9.81.27-.69.73-1.45,1.3-2.01.31-.38.99-.56,1.47-.5.42.06.78.57,1.14.82-.14,3.02-2.28,4.91-4.16,6.98.34,2.77-.12,5.28-1.31,7.86-1.82,4.03-3.26,8.11-4.76,12.26-.45,1.19-.62,2.58-.74,3.9-.06.5.27,1.13.65,1.45.35.25.99.25,1.51.31.24,0,.53-.19.74-.38,2.53-2.2,5.22-3.02,8.56-1.57.84.31,2.14-.31,3.24-.5.9-.12,1.81.38,2.04,1.07.22.63-.51,1.7-1.29,1.76-5.12.06-10.07,1.39-15.14,1.76-1.1.13-2.23-.06-3.34-.13-.6-.06-1.55-1.2-1.49-1.76.07-.76.02-1.64.26-2.39,2.03-6.48,4.56-12.83,7.37-19.12ZM76.05,327.09c-.5.25-1.05.13-1.2-.57-.48-2.01.23-3.52,2.26-4.4.32.38.85.69.9,1.07.22,1.64-.4,3.02-1.96,3.9ZM74.53,305.52c-.71-.25-1.24-1.26-.92-2.01.42-.94.98-1.83,1.7-3.14,2.09,0,3.47-.07,4.84,0,.79,0,1.52.94,1.36,1.63-.72,3.08-3.96,4.72-6.99,3.52ZM78.26,279.48c-.21.13-.57.19-.73.13-.53-.37-.71-.88-.41-1.44.82-1.32,1.54-2.77,3.08-3.52.19-.13.5-.13.66-.06.23.13.36.38.54.63-.23,1.95-1.45,3.27-3.14,4.27ZM81.33,293.51c.27.31.19,1.01.05,1.45-.2.82-.96,1.07-1.96.75-.52-.13-1.04-.38-1.49-.63-.58-.38-.72-.88-.34-1.32.49-.56,1.13-1.07,1.83-1.7.73.5,1.45.88,1.91,1.45ZM81.13,286.78c-.14,0-.25-.31-.38-.5.2-.06.41-.19.61-.31.22.13.58.13.63.25.12.38-.22.63-.86.56ZM34.83,273.32c-.27,1.01-.45,1.82-.74,2.58-3.55,9.06-7.12,18.18-10.74,27.24-.09.25-.44.38-.82.63-.2-.82-.56-1.51-.55-2.26,0-2.39.07-4.84.29-7.3.09-1.01.59-2.08,1.06-3.02,1.89-3.96,3.84-7.86,5.81-11.7,1.09-2.2,2.31-4.34,3.55-6.67.7.19,1.39.31,2.14.5ZM22.56,274.39c.33-1.01,1.21-1.7,2.43-1.89.79-.06,1.86.63,1.71,1.26-.79,3.21-1.21,3.97-4.13,7.61-.94-2.33-.78-4.72,0-6.98ZM23.85,310.68c3.59-9.18,7.2-18.3,10.68-27.49,1.38-3.65,3.73-6.73,6.14-9.68,1.43-1.82,3.51-2.71,5.92-2.71.51,0,1.02.38,1.52.57-.11.5-.07,1.07-.32,1.51-4.84,7.99-8.33,16.6-12.52,24.91-4.58,9.06-7.9,18.62-11,28.24-.57,1.76-.79,3.71-.94,5.6-.05.69.45,1.57.92,2.2.22.25.97.25,1.48.25.18.06.43-.25.58-.44.17-.19.42-.44.4-.69-.34-3.9.91-7.48,2.13-11.13,3.54-10.63,8.14-20.82,13.43-30.75,2.56-4.84,5.1-9.69,8.33-14.15.46-.65,1.06-1.1,1.91-1.1.15-1.81.11-3.31.22-4.81.02-.51.35-1.07.75-1.32.38-.31,1.04-.37,1.53-.25.63.06.93.56.84,1.13-.38,2.09-1.16,3.92-3.18,5-.21,1.28-.1,2.35-.46,3.3-1.08,2.77-2.37,5.47-3.5,7.99-1.52,1.26-2.79,2.26-4.29,3.52-.19.88-.66,1.95-.56,2.96.39,4.21-.83,8.05-2.42,11.88-2.74,6.54-5.48,13.08-8.25,19.69-.63,1.51-1.37,2.96-2,4.47-.19.5-.3,1.07-.16,1.57.12.44.54,1.01.96,1.13.42.13,1.28-.06,1.46-.38.84-1.38,1.58-2.83,2.2-4.34,1.47-3.52,2.83-7.11,4.31-10.63.4-1,1.01-1.89,1.55-2.89,1.73,1.38.56,3.2,1.37,4.59.7,1.13,1.49,2.26,2.37,3.58-.72,2.52-1.59,5.03-2.18,7.67-.14.63.46,1.51.95,2.07.4.5,1.06.38,1.43-.06,1.28-1.57,1.46-3.52,2.11-5.28.82-2.33,1.71-4.59,2.71-6.79.56-1.32,3-1.88,4.51-1.19.4.25.6.88.81,1.32.1.19.08.56,0,.82-1.77,4.84-3.55,9.69-5.18,14.15-1.35,1.45-2.69,1.82-4.14,1.82-1.98-.06-3.97-.19-5.95-.19-2.26-.06-4.49.06-6.72.69-3.01.82-6.13.94-9.26.82-1.69-.13-3.12-1.45-3.3-3.15-.05-.57-.21-1.13-.13-1.64.66-4.02.13-8.05.59-12.14.39-3.52,1.01-6.98,2.34-10.25ZM66.53,527.1c.17-2.08.93-4.03,2.26-5.72.23-.25.9-.25,1.36-.31.18,0,.34.38.56.63-.18,2.39-1.01,4.46-3.05,5.98-.15.13-.52.19-.68.07-.21-.13-.46-.38-.44-.63ZM66.85,531.69c-.24,1.57-.58,3.14-2.19,4.03-1.23-1.57-.59-3.01.4-4.4.19-.25.9-.25,1.37-.19.17,0,.46.38.43.57ZM74.57,530.37c.81,0,1.62.19,2.43.32.94.19,1.72,1.38,1.71,2.45-.03,2.2-1.4,3.71-3.47,3.84h-2.3c-.43-.07-1.5-.26-2.56-.44-.55-.12-1.13-1.32-.97-2.01.69-3.02,2.18-4.21,5.15-4.15ZM71.38,514.52c-.07-1.38.67-2.51,1.78-3.34.36-.25,1.04-.31,1.46-.12.6.19.75.75.5,1.26-.46.94-.87,1.88-1.47,2.77-.23.32-.93.32-1.41.5-.32-.38-.84-.69-.87-1.07ZM74.18,497.91c-.73.82-1.56,1.51-2.25,2.14.18,1.07.31,1.89.49,3.02-1.8,4.22-3.77,8.68-5.59,13.21-1.84,4.59-3.52,9.18-5.34,13.9.12,1.95.74,4.15-1.48,6.04-4.54,1.01-4.58,1.01-8.36-.25-.02-.5-.19-1.06-.03-1.57.32-1.06.71-2.08,1.22-3.02,5.38-10.12,9.91-20.69,14.79-31.07.82-1.7,1.62-3.46,2.5-5.16.84-1.57,2.28-2.39,4.05-2.45.75,0,1.56.25,2.27.63.5.18.38,1.44-.16,2.13-.66.88-1.36,1.7-2.11,2.45ZM58.31,543.77c-1.81.88-3.03,2.33-3.75,4.15-.67,1.76-1.06,3.71-2.67,4.96-4.72.94-5,.94-8.64-.44-.08-2.27,1.32-4.09,2.23-6.04,3.52-7.42,3.33-6.48,11.36-6.1,1.59.06,2.95,1.45,4.71.82.09-.07.68.75.72,1.19.1,1.83-.86,2.58-2.47,2.14-.51-.19-.99-.44-1.49-.69ZM58.79,551.44c-.2,1.07-.7,1.57-1.59,1.32-.22,0-.57-.44-.53-.5.18-.5.45-1.01.76-1.45.13-.19.44-.32.66-.38.5,0,.73.38.69,1ZM55.17,559.17c-.02.13-.29.26-.46.38-.12-.19-.35-.38-.33-.5.02-.19.3-.25.48-.38.11.12.34.31.32.5ZM30.49,561.25c-.43-.13-.94-.76-.95-1.13-.05-1.07-.06-2.26.32-3.21,1.46-3.77,3.08-7.54,4.67-11.25,2.89-6.73,5.81-13.46,8.74-20.19.21-.5.55-.94.8-1.38.54-1.01,1.65-1.7,2.7-1.39,1.56.5,3.04,1.2,4.77.63.56-.18,1.25,1.14.95,1.76-2.02,4.15-3.38,8.68-6.67,12.07-.79.82-1.03,1.89-1.29,2.96-1.13,4.46-3.22,8.55-5.75,12.2-1.82.5-3.36.88-5.13,1.38.48.88.7,1.63,1.2,2.14,1.05,1.13,1.44,2.26.55,3.59-1.16,1.76-3.17,2.58-4.91,1.82ZM31.08,567.22c.07.76-.59,1.64-.96,1.38-.31-.25-.52-.82-.47-1.26.02-.26.59-.44.91-.63.18.12.5.31.52.5ZM38.9,564.77c1.86-.06,3.75-.5,5.63.07.58.19,1.2,1.38.8,1.95-.86,1.38-1.78,2.71-2.47,3.71-2.52,1.01-4.68.57-6.81.38-.65-.06-1.45-1.19-1.32-1.83.6-2.58,2.04-4.15,4.17-4.28ZM39.87,560.75c-.21-2.39.6-3.77,2.03-3.9,2.18-.19,4.33-.25,6.32.82.41.19.81.75.85,1.19.04.44-.36.94-.64,1.38-.14.19-.43.38-.67.44-2.64.69-5.28.88-7.88.07ZM60.18,490.31c1.13-2.2,2.23-4.4,3.12-6.16,2.4-1.64,4.56-1.39,6.74-1.01.64.13,1.29,1.39,1,1.95-1.84,3.9-3.64,7.86-5.24,11.88-1.49,3.71-3.37,7.36-5.15,11.01-.13.32-.85.38-1.31.44-.09,0-.39-.44-.35-.69.41-2.07.71-4.21,1.35-6.28,1.18-3.71,1.36-7.42-.16-11.13ZM83.9,476.72c.56.19.55,1.63.02,2.08-1.43,1.19-3.78,1.13-4.96-.25-.25-.25-.24-1.13,0-1.39.47-.63,1.2-.94,1.87-1.44,1.08.31,2.09.63,3.06,1.01ZM83.45,469.74c.14-.38.63-.69.96-1.07.78-.12,1.39.38,1.75,1.26.25.63.09,1.19-.56,1.32-1.32.31-2.48-.5-2.15-1.51ZM79.36,463.13c-1.37.38-2.68.38-3.81-.69-.06-2.02,1.12-3.53,2.44-4.91.55-.57,1.43-.88,2.27-.57.48.13,1.11.38,1.31.82.97,1.82-.25,4.72-2.21,5.35ZM76.82,467.1c.93.25,1.47,1.89.78,2.64-.52.56-1.12,1.13-1.82,1.44-.71.32-1.58.32-2.16.44-.78-.12-1.31-.19-1.85-.25-.77-.12-1.33-1.13-1.03-1.76,1.12-2.51,3.1-3.33,6.07-2.51ZM72.48,479.05c-1.83.69-3.74.88-5.46-.38.15-2.14.91-3.33,2.43-3.58,1.66-.32,3.28-.44,4.66.75.54,1.58-.26,2.71-1.63,3.21ZM70.59,461.62c-.47.63-1.16,1.26-1.87,1.45-2.12.56-4.29.56-6.29-.19-.32-2.39,1.24-3.59,2.63-4.84,1.08-.94,2.45-1,3.84-.88,1.42.13,2.28.63,2.53,1.57.33,1.13-.18,2.08-.84,2.89ZM77.68,502.01c.61-.51,1.6,0,1.73.82.22,1.32-.88,2.64-2.21,2.77-.34-.32-.9-.63-.97-1.01-.24-1.13.56-1.89,1.45-2.58ZM74.87,488.54c-.41-.18-.93-.88-.86-1.26.48-3.14,3.09-4.65,6.04-3.52.38.19.58.82.86,1.25,0,.26.07.57-.02.76-.89,2.39-3.64,3.71-6.02,2.77ZM82.66,493.2c.64-.25,1.11-.06,1.38.57.18,1.76-.58,2.95-2.4,3.71-.23.06-.59.06-.82-.06-.58-.26-.79-.69-.66-1.26.33-1.38,1.1-2.45,2.51-2.95ZM84.68,503.14c.65-.57,1.46-.38,2.15.06.52.32.69.82.46,1.38-.3.76-.94,1.26-1.77,1.19-.73-.12-1.43-.44-2.35-.69.57-.76.94-1.51,1.5-1.95ZM30.25,458.04c.15-.25.42-.38,1.01-.88,1.18-.19,2.79-.57,4.32-.82,1.15.82,1.17,1.89.76,2.89-1.95,5.09-3.95,10.13-5.87,15.22-.93,2.51-1.34,5.22-2.93,7.48-.11.19-.41.32-.62.25-.26,0-.59-.12-.73-.31-.31-.44-.67-.88-.75-1.38-.19-1.32-.21-2.7-.33-4.03-.59-6.8,1.54-12.83,5.13-18.43ZM25.41,502.38c.12-2.39.52-4.85.94-7.24.24-1.32.67-2.58,1.16-3.84,2.71-7.11,5.48-14.21,8.24-21.26.67-1.82,1.21-3.65,2.06-5.35,1.26-2.39,2.74-4.71,4.04-6.85,1.68-1.07,3.17-1.57,4.59-.07.28,1.76-.81,3.08-1.39,4.59-3.39,8.62-6.75,17.23-10.19,25.79-2.53,6.29-5.18,12.52-7.83,18.74-.16.44-.85.63-1.32.88-.92-1.7-.38-3.59-.3-5.41ZM27.6,513.95c5.55-13.65,11.07-27.3,16.74-40.88,1.16-2.77,2.75-5.35,4.18-7.99,1.32-2.39,2.71-4.72,4.19-7.36,1.58-.94,3.44-.82,5.21.19.38.26.44.94.74,1.57-1.65,3.59-3.37,7.36-5.06,11.07-5.38,11.95-10.69,23.96-16.06,35.91-3.22,7.24-5.55,14.78-8.13,22.27-.52,1.51-.91,3.14-2.45,4.09-.26-.44-.67-.82-.74-1.25-.2-1.39-.07-2.77-.4-4.09-1.14-4.72,0-9.12,1.78-13.52ZM28.81,539.74c5.06-14.91,10.08-29.87,16.85-44.21,3.99-8.37,7.74-16.86,11.63-25.22.46-1.01,1.03-1.95,1.69-2.83.3-.38.92-.69,1.41-.69,1.93-.25,3.9-.38,5.64.63.37.19.46.82.61,1.32.07.18-.05.5-.14.75-.88,2.27-3.46,3.71-3.16,6.48-1.06,2.2-2.13,4.4-3.17,6.61-1.04,2.26-2.05,4.46-2.94,6.41-2.25,3.02-5.36,4.34-8.1,6.1-1.72,1.95-2.28,4.34-2.54,6.79-.14,1.38-.35,2.7-.23,4.09.36,4.21-1.01,7.99-2.71,11.76-4.5,9.88-8.85,19.88-13.27,29.82-.42.94-.62,2.07-1.7,2.71-.3-.32-.83-.57-.87-.88-.47-3.27-.05-6.48,1-9.62ZM29.62,593.33c.17-.32.92-.44,1.37-.38.44.06.85.44,1.27.69.03.25.13.57.06.82-.45,1.76-1.23,3.33-2.55,4.65-.17.19-.46.25-.7.32-.48.06-.86-.32-.87-.88-.04-1.89.56-3.58,1.42-5.22ZM29.92,588.48c-.44-.76-1.07-1.38-1.08-2.02-.05-.94,1.19-2.01,2.07-2.01,1.29-.07,2.59,0,3.86.19.35,0,.68.63.9,1.01.28.57.03,1.07-.49,1.38-.22.13-.41.38-.63.44-1.5.31-3,.63-4.63,1ZM31.75,580.37c-.22,0-.51-.19-.64-.38-.31-.44-.52-.88-.86-1.51.44-.82.86-1.83,1.44-2.71.28-.37.81-.75,1.28-.88,2.13-.56,4.23-.5,6.25.44.63.32,1,1.32.66,2.08-.22.44-.4,1-.74,1.39-.52.63-1.14,1.13-1.71,1.63-1.96,0-3.81,0-5.69-.06ZM37.9,592.7c.81-1.19,2.04-1.57,3.45-1.38.94.19,1.92,1.51,1.66,2.33-.49,1.51-.94,3.02-2.12,4.15-1.25,1.26-2.97,1.32-4.78,0-.19-1.95.76-3.58,1.79-5.09ZM41.26,586.78c-.43-.44-.14-1.63.45-1.95.99-.51,1.92-.51,2.9,0,.55.32.74.69.49,1.26-.8,1.44-2.78,1.82-3.84.69ZM45.11,580.5c-.79-.06-1.21-1.76-.86-2.71.48-1.38,1.41-2.2,2.86-2.45.71-.19,1.58.51,1.73,1.26.31,1.51-.38,2.65-1.46,3.46-.56.44-1.51.5-2.26.44ZM48.74,570.93c-.3-.37-.72-.88-.63-1.26.43-1.89,1.42-3.52,3.11-4.59.18-.13.59-.13.75,0,.36.32.63.69.96,1.07-.36,1.57-.7,3.21-1.98,4.34-.37.32-.94.44-1.44.57-.24.06-.66.06-.78-.13ZM54.73,575.46c1.66,0,3.19.31,4.26,1.64-.61,3.01-1.26,3.71-3.38,3.83-1.12.07-2.15-.12-3.01-.88-.58-2.14-.05-3.71,2.13-4.59ZM56.37,571c-1.25-1.89-.6-3.65.79-5.1,1.8-1.89,3.9-1.19,5.84-.63.59,2.39-.69,3.9-1.41,5.6-1.71,1.7-3.46,1-5.22.13ZM59.83,560.37c.46-.63.78-1.51,1.38-1.76,1.21-.56,2.57-.63,3.71.38.15.13.18.38.24.63.17.63-.07,1.07-.67,1.32-1.75.57-1.76.63-4.65-.57ZM62.77,551.12c.81-1.57,2.03-2.26,3.85-2.14,1.85.13,2.83,1.64,2.16,3.27-.66,1.57-1.81,2.45-3.61,2.52-2.23.06-3.38-1.7-2.4-3.65ZM71.41,565.52c.87-.12,2.19,1.13,2.09,2.02-.32,2.45-1.97,3.96-4.23,3.84-1.09,0-1.94-1.13-1.7-2.14.54-2.01,1.78-3.27,3.84-3.71ZM73.33,561.31c-.23-.06-.56-.38-.52-.5.13-.38.33-.94.65-1.07,1.04-.38,1.06-.31,2.77.82-.8.88-1.8,1.13-2.91.75ZM75.64,554.45c-.89-.5-1.74-1.07-2.8-1.76.5-.75.78-1.7,1.29-1.89,1.21-.38,2.55-.5,3.85-.56,1.1-.07,2.12.82,2.17,1.76.08,1.64-1.44,3.08-3.01,2.83-.51-.06-1.06-.13-1.5-.38ZM81.95,523.51c-1.13,2.39-2.84,3.83-5.66,3.77-1.1-.06-2.12-.12-3.17-1,.4-1.13.77-2.45,1.3-3.65.89-2.14,2.59-3.08,5.23-2.95,2.31.06,3.28,1.76,2.29,3.84ZM81.31,515.97c-.23-.06-1.03-.13-1.8-.25-.7-.13-1.24-1.19-1.01-1.89,1.39-4.28,3.94-5.35,7.94-3.27.93.44,1.28,1.76.75,2.7-.82,1.51-1.98,2.51-3.73,2.71-.53.07-1.06,0-2.16,0ZM45.78,615.27c-1.96.25-3.74.82-4.66,2.7-.99,2.01-2.69,2.52-4.7,2.45-2.15,0-4.31,0-6.46-.13-4.58-.19-9.17-.5-13.75.13-.76.07-1.59-.19-2.38-.32-.99-.18-2.06-1.26-2.04-2.26,0-1.01.11-2.14.43-3.15.44-1.38,1.74-2.2,3.06-2.14,1.33.07,2.7.07,4.01.38,2.12.44,4.18,1.01,6.95,1.7,6.23-1.13,13.17-1.45,20.33-.69-.36.63-.54,1.26-.79,1.32ZM45.8,596.03c.27-1.63.96-3.02,2.25-4.03.57-.44,1.42-.63,2.18-.76,1.03-.12,2.15.88,2.13,1.82,0,1.64-.46,3.09-1.54,4.34-.74.88-1.7,1.19-2.47,1.19-1.75,0-2.77-1.19-2.54-2.58ZM51.22,619.62c-1.19-1.32-.84-2.89-.51-4.47.09-.31.71-.63,1.13-.88.67-.25,1.58.38,1.74,1.13.38,2.02-.21,3.08-2.36,4.22ZM54.19,587.04c-1.25.56-2.5.69-3.72,0-.47-.25-.6-.82-.2-1.26,1.19-1.39,2.62-1.58,4.12-.57.2.12.27.38.39.57.21.63,0,1-.59,1.26ZM61.35,617.85c-.42,1.19-1.32,1.95-2.19,1.63-.41-.12-.8-.57-1-1.01-.4-.82.23-1.38.66-2.01.13-.26.33-.45.54-.51.48-.13,1.08-.32,1.44-.13.35.19.46.82.68,1.26-.04.25-.03.5-.12.75ZM60.44,597.98c-1.11.88-2.48.82-3.81.44-.49-.19-1.29-1.51-1.1-2.02.47-1.19.92-2.45,1.58-3.59.96-1.57,2.87-2.14,4.96-1.44.4.13.67.69,1.04,1.13-.2,2.14-.9,4.09-2.66,5.47ZM64.03,587.22c-.76.13-1.56,0-2.35-.06-.24-.06-.61-.32-.61-.5-.02-.44-.05-1.07.23-1.38.95-.94,2.83-.88,3.58.13.14.13.07.44.09.76-.31.38-.57.94-.95,1.07ZM63.84,578.8c.23-1.07.76-1.95,1.83-2.33,1.3-.5,2.54-.44,3.67.32.11,1.13-.33,2.02-.99,2.83-.69.94-1.65,1.19-2.74,1.19s-1.99-1.01-1.77-2.01ZM67.75,592.32c.3-.38.89-.51,1.37-.76,1.26-.19,2.73,1.32,2.29,2.52-.46,1.26-1.05,2.45-1.7,3.59-.48.88-1.91,1.01-2.85.31-.39-.31-.83-.82-.83-1.26.02-1.64.69-3.15,1.72-4.4ZM68.97,619.86c-.83,0-1.6-.12-2.18-.82-.65-.88-.66-1.95.03-3.02.59-.94,1.36-1.63,2.53-1.76,1.19-.19,2.12.44,2.35,1.64.04.25.08.5.14.82.01,1.95-1.04,3.08-2.87,3.14ZM72.19,587.1c-.41.12-1.08-.06-1.29-.44-.18-.25,0-.94.26-1.26.31-.32.99-.5,1.34-.38.33.13.45.76.67,1.19-.33.32-.61.82-.99.88ZM74.07,576.97c.91-1.01,1.8-.63,2.65.13.13,1.76-.43,3.08-2.44,3.27-1.18-1.07-1.25-2.21-.22-3.4ZM75.35,597.67c-.39-.26-.86-.88-.79-1.26.16-1.07.54-2.08.95-3.02.35-.82,1.78-1.19,2.86-.75.36.18.56.75.84,1.19-.36,1.57-.68,3.14-2.38,3.9-.41.19-1.1.19-1.47-.06ZM78.79,619.68c-1,0-2.11-1-2.15-2.01-.09-2.33,1.11-3.84,3.7-4.66,1.34-.37,2.71.69,2.78,2.14.13,3.02-1.25,4.47-4.33,4.53ZM84.12,597.1c-.19.12-.54,0-.79-.06-.62-.19-.92-.63-.7-1.14.3-.75.67-1.44,1.09-2.14.32-.57.92-.76,1.44-.44.36.25.53.82.76,1.26-.24,1.07-.88,1.88-1.8,2.52ZM81.66,580.62c-.93-.19-1.38-1.7-.81-2.51.62-.94,1.38-1.51,2.51-1.58,1.51-.06,2.44.63,2.78,2.08-.86,2.14-2.55,2.39-4.49,2.01ZM86.1,553.64c-.27.38-.85.44-1.28.63-.52-.32-.66-.75-.38-1.26.26-.56.74-.82,1.26-.56.55.19.77.76.4,1.2ZM83.68,536.6c-.74-.07-1.41-1.26-1.08-1.83,1.21-2.14,2.42-4.28,4.48-7.86.03,3.4.2,5.29.05,7.17-.17,1.95-1.32,2.71-3.44,2.52ZM89.04,618.36c-.48-.07-1.03,0-1.42-.2-.89-.5-.54-1.38-.38-2.14.06-.25.15-.57.32-.69.36-.37.75-.82,1.21-.94.17-.06.73.57.8.94.2,1.07.22,2.14-.53,3.03ZM94.99,617.79c-.55.26-.98,0-1.17-.57-.17-.56.03-.94.54-1.19.58-.19.98,0,1.16.57.15.51-.01,1.01-.53,1.19Z"/>
      <path class="cls-1" d="M48.89,416.65c.55,0,1.14.07,1.66-.06,2.39-.82,4.79-1.51,7.1-2.45,1.04-.44,1.53-1.57,1.71-2.64.03-.31.08-.56.04-.82-.89-4.65-.21-9.18,1.31-13.71-.49-2.08-.77-3.4-1.11-4.72-.13-.5-.37-1-.55-1.5-.59-1.39-2.76-2.27-4.27-1.83-2.42.82-4.67,1.83-6.22,3.96-.78,1.13-1.76,2.07-2.81,3.27-.26,5.34-.53,10.76-.76,16.1-.02.57.16,1.07.23,1.64.22,1.38,2.11,2.83,3.66,2.76Z"/>
      <path class="cls-1" d="M60.2,442.45c-.24.06-.6.25-.68.44-.15.44-.22.94-.2,1.44.02.19.35.5.57.5.78.06,1.6.13,2.39.06,6.36-.75,12.69-1.13,18.97.44,1.53.38,2.59-.37,3.72-2.26-.63-1.39-1.76-2.08-3.24-2.14-7.21-.13-14.4.25-21.53,1.51Z"/>
      <path class="cls-1" d="M59.44,433.64c.49.19.99.63,1.47.63,6.71.19,13.39.31,20.11.31.72,0,1.46-.63,2.1-.94.22-1.45-.32-2.2-1.55-2.58-.53-.12-1.09-.19-1.64-.19-5.61.07-11.2.13-16.79.26-.57,0-1.1.12-1.66.25-1.22.25-1.88,1.01-2.05,2.27Z"/>
    </g>
  </g>
</svg>