<?xml version="1.0" encoding="UTF-8"?>
<svg id="Layer_2" data-name="Layer 2" xmlns="http://www.w3.org/2000/svg" viewBox="0 0 173.24 410.11">
  <defs>
    <style>
      .cls-1 {
        fill: #613b27;
        fill-rule: evenodd;
      }
    </style>
  </defs>
  <g id="_Layer_" data-name="&amp;lt;Layer&amp;gt;">
    <g>
      <path class="cls-1" d="M159.84,393.04c-.06-.43-.14-.95-.42-1.22-.47-.47-1.06-.83-1.66-1.12-1.67-.82-3.49-.89-5.3-.9-5.21-.03-10.41-.04-15.61-.08-1.15,0-2.33-1.08-2.18-2.11.57-3.84-.02-7.67,0-11.5.02-6.81-.94-13.54-2.05-20.22-.67-4.03-1.31-8.03-1.41-12.11-.02-1.13-.04-2.28-.28-3.38-1.03-4.69-.85-9.44-.81-14.19.04-4.3.07-8.62-.29-12.89-.28-3.15-.93-6.24-.17-9.41.2-.86.13-1.82-.03-2.7-.29-1.59-.16-3.12.09-4.7.21-1.33.28-2.74.07-4.05-.63-3.85-.16-7.67.11-11.48.3-4.07.43-8.12-.41-12.17-.32-1.53-.5-3.21-.2-4.71.46-2.28.04-4.5.07-6.75.02-1.13-.27-2.3-.06-3.38.49-2.49.27-4.93,0-7.41-.22-2.02-.27-4.07-.24-6.1.12-8.4-1.47-16.66-1.93-25.01,0-.23-.03-.46-.09-.67-1.15-4.21-1.03-8.52-.92-12.82.16-6.78.34-13.57-.09-20.36-.19-3.15-.22-6.33-.3-9.49-.04-1.71.74-3.06,2.05-4.09.7-.56,1.49-1.02,2.26-1.49,3.67-2.23,7.34-4.44,11-6.66.28-.67.82-1.33.75-1.9-.24-1.83.05-3.58.28-5.38.22-1.77.08-3.6-.02-5.41-.08-1.45-1.59-2.93-3.12-3.16-.89-.13-1.79-.29-2.69-.24-2.49.12-5.01.1-7.44.56-5.39,1.03-10.82.63-16.23.86-.19,0-.39-.22-.95-.56.73-1.43,1.29-3.04,1.3-4.79.03-8.82-.4-17.63-.81-26.44-.11-2.26-.32-4.5.13-6.72.46-2.29.11-4.5-.46-6.6,1.36-7.73,2.14-9.8,6.38-16.77,0-2.12.03-4.59,0-7.07-.04-2.53.78-4.91,1.16-7.36.07-.44.08-.9.03-1.35-.09-.92-.41-1.76-1.23-2.29-.37-.24-.82-.37-1.21-.59-1.62-.91-1.93-1.53-1.64-3.22.11-.67.11-1.38.35-2,1.09-2.81.92-5.78,1.15-8.7.09-1.18-.41-2.21-1.23-3.06-.46-.48-1-.9-1.59-1.42-2.83-.38-5.71-.77-8.45-1.13-1.26.45-2.29,1.03-2.53,2.25-.84,4.21-1.78,8.41-1.18,12.77.12.88.03,1.79,0,2.7-.02.65-1.06,1.66-1.78,1.85-1.13.3-2.23.21-3.33-.14-.83-.26-1.69-1.24-1.56-1.97.45-2.46.16-4.92.2-7.39.07-5.88-.5-11.73-.43-17.6,0-.67,0-1.36.12-2.01.12-.69.57-1.24,1.25-1.45.64-.2,1.31-.31,1.98-.39,2.18-.28,3.05-1.82,3.37-3.64.57-3.07-.01-5.82-1.91-8.3-.55-.72-1.06-1.47-1.6-2.19-3.1-4.17-6.22-8.33-9.31-12.52-1.75-2.38-3.68-4.58-5.94-6.49-.78-.66-2.24-.76-3.2-.31-2.11.98-3.72,2.54-5.15,4.33-2.83,3.53-5.79,6.96-8.45,10.62-1.96,2.71-4.22,5.35-4.55,9.16.46,1.09,1,2.33,1.52,3.57.59,1.43-.01,3.23,1.55,4.58.61.28,1.41.69,2.24,1.05.84.36,1.63.75,2.07,1.65.22,12.34.86,10.34-.81,21.6-.24,1.6-.14,3.15.33,4.69.27.86.43,1.75.62,2.57-1.2,1.01-2.32.99-2.65.05-1.12-3.24-1.69-6.57-1.59-10,.03-1.13.12-2.25.14-3.38.01-1.08-.84-2.28-1.88-2.56-2.61-.71-5.22-1.46-7.87-2.03-1.07-.24-2.24-.12-3.37-.08-1.22.04-2.62,1.32-2.86,2.54-.08.44-.2.89-.22,1.33-.14,2.49-.2,4.97.56,7.4.53,1.75.63,3.57.35,5.38-.14.92-.66,1.65-1.63,1.96-.85.27-1.69.56-2.47.83-1.06,1.88-2.06,3.63-3.03,5.34-.55,4,.62,7.7,1.29,11.6-.09,1.2-1.07,2.39-.47,4.33,2.01,2.39,3.56,5.66,5.41,8.76,1,1.66,1.38,3.31.89,5.17-.35,1.31-.74,2.58-.37,3.99,1.07,4.01.8,8.07.31,12.13-.11.89-.51,1.84-.33,2.66.75,3.36.3,6.77.52,10.15.22,3.6.17,7.23.14,10.84,0,.58-.52,1.16-.86,1.87-4.34-.07-8.68.54-12.89-.36-3.27-.7-6.28.15-9.37.63-1.15.18-1.9,1.19-2.32,2.28-.24.62-.38,1.31-.44,1.97-.27,3.16-.52,6.32.12,9.58.7,1.55,1.45,3.18,2.25,4.89,2.93,2.41,5.89,4.85,8.86,7.28,1.11.91,1.66,2.11,2,3.76-1.14,5.07-1.36,10.46-1.11,15.91.14,3.38.13,6.81-.32,10.16-.47,3.61-.82,7.21-.75,10.82.07,5.19-.18,10.37.11,15.57.34,6.08,0,12.2.16,18.3.23,8.39-.41,16.74-.7,25.1-.04,1.35-.27,2.7-.4,4.04-.55,5.63-1.45,11.24-1.57,16.88-.33,14.7-.51,29.4-.28,44.11.09,5.19-.13,10.41-.62,15.58-.27,2.92-.65,5.83-.71,8.77-.13,6.34-.37,12.67-.27,19,.07,4.58-.56,9.01-1.69,13.41-.14.61-.66,1.12-1.09,1.81-2.03.06-4.06.1-6.08.21-1.35.07-2.69.22-4.03.35-.52.05-1.14.85-1.23,1.45-.13.8.63,2.03,1.26,2.16.22.04.43.19.65.19,2.04.07,4.08.01,6.1.18,3.42.27,6.77.19,9.9-1.04,2.35.65,4.51,1.02,6.81,1.03,7.91.02,15.8.98,23.73-.02,1.1-.14,2.25.06,3.39.1,2.72.1,5.42,0,8.1-.57,2.01-.42,4.03-.52,6.07-.49,3.17.06,6.34.04,9.5,0,6.55-.08,13.13.17,19.62-1.1,1.54-.3,3.15-.33,4.74-.39.89-.04,1.9-.12,2.68.23,2.59,1.15,5.31.88,8,.94.89.02,1.78.06,2.77.1.62.71,1.24,1.35,1.78,2.05.5.64,1.13.59,1.8.51,1.36-.81,1.75-2.69,3.43-3.15,5.3-.46,14.49-.43,20.94.03.22.02.44-.14.66-.17.41-.05,1.37-.99,1.3-1.42ZM135.54,150.5c.05-.18.34-.47.42-.44.31.11.8.31.82.52.12,1.24.43,2.55-.74,3.54-1.03-1.09-.84-2.36-.5-3.62ZM128.4,150.36c.47-.7,1.78-.45,2.26.29.66,1.03.53,2.14.61,3.45-.1.46-.09,1.22-.44,1.73-.32.47-1,.8-1.59.93-.29.06-.84-.39-1.04-.75-1.08-1.91-1.05-3.82.2-5.66ZM119.33,152.61c.21-1.34,1.68-2.59,3.52-1.94.38.13.86.44.97.77.52,1.67.73,3.38.12,5.09-.07.19-.28.32-.48.54-.6.03-1.27.15-1.91.08-1.54-.18-2.47-1.19-2.44-2.58,0-.66.12-1.31.22-1.96ZM121.46,192.65c-.01.17-.25.32-.37.49-.09-.2-.25-.39-.24-.58.02-.4.13-.8.2-1.21.11.02.33.03.33.07.06.41.11.83.09,1.24ZM118.69,164.63c.11-.09.26-.12.41-.16,0-.09.05-.13.05-.24.13-.04.26-.09.39-.14.09-.11.18-.22.27-.33-.06.1-.09.24-.17.3-.18.14-.26.24-.34.34-.24.48-.39.72-.71.7.03-.16,0-.39.09-.45ZM119,228.29c.59,2.39,1.39,4.76.59,7.31-.25.82-.08,1.8,0,2.7.15,1.57.59,3.15.52,4.71-.29,7.01.47,14,.31,21.01-.02.88-.24,1.76-.41,2.64-.09.5-.46.74-.98.82-.64.1-1.48-.26-1.64-.81-.24-.86-.58-1.72-.61-2.59-.08-2.26-.17-4.48-.82-6.7-.44-1.48-.31-3.13-.48-4.7-.18-1.56.17-3.17-.53-4.66-.07-.16-.27-.39-.39-.38-.2.01-.52.15-.57.32-.81,2.12-1.1,4.29-.75,6.57.46,3.13.72,6.28,1.57,9.36.17.6,0,1.34-.19,1.98-.11.39-.51.71-.82,1.02-.14.14-.4.21-.6.24-.67.1-1.34.2-2.02.25-6.31.43-12.64.63-18.95,1.18-3.37.3-6.78.02-10.17-.05-7.91-.15-15.82.22-23.74.46-2.48.08-4.97.17-7.46.2-2.1.03-3.19-1.29-2.97-3.54.07-.67.28-1.34.33-2.01.19-3.16.36-6.32.5-9.47,0-.18-.23-.4-.39-.54-.26-.23-.74-.08-.84.48-.38,2.2-.29,4.42-1.17,6.62-.82,2.05-.84,4.4-1.3,6.61-.07.33-.58.59-.93.83-.12.08-.4.03-.52-.07-.17-.14-.31-.37-.34-.57-.54-4.52-.23-9.02.29-13.52,1.59-4.18.97-8.46.77-12.66-1.31-.56-1.83.32-2.05,1.02-.34,1.05-.55,2.22-.45,3.3.26,2.72.24,5.42-.14,8.12-.09.65-.52,1.08-1.12,1.31-.05.27-.09.34-.15.41-.05.95-.09,1.93-.15,3.15-.95-1.37-.59-2.29.15-3.15,0-.11,0-.23.01-.33.08-.69-.03-1.3,0-1.9.5-7.68.04-15.37.2-23.05.01-.67.07-1.36.25-2,.11-.39.52-.71.88-1.18,3.2-.71,6.52-1.16,9.94-1.18,6.79-.04,13.57-.26,20.35-.47,1.58-.05,3.14-.36,4.71-.53,3.83-.43,7.63-.69,11.45.25,2.65.65,5.39.63,8.11.45,6.11-.39,12.2.07,18.3.35.67.03,1.36.1,2,.3,1.12.33,2.14.91,2.44,2.12ZM119.85,273.31c-.06.16-.09.34-.2.46-.4.43-1.44.3-1.57-.24-.08-.35-.06-.8.08-1.13.23-.52,1.01-.33,1.45.34.11.17.16.38.24.56ZM115.65,321.05c-.13,1.55.02,3.12-.07,4.68-.02.36-.51.69-.9,1.17-1.9.11-3.92.27-5.95.33-2.71.07-5.38.33-8.07.79-4.7.79-9.52.77-14.18.03-6.54-1.05-13.07-.68-19.59-.79-4.52-.07-9.04-.1-13.55-.2-.89-.02-1.79-.2-2.67-.41-.9-.22-1.66-.76-2.01-1.64-.67-1.69-1.13-3.41-.82-5.28.95-5.59,1.1-11.2.69-16.86-.24-3.37-.05-6.77.13-10.15.21-3.86.11-7.66-.65-11.46-.13-.65-.08-1.33-.12-2.08.62-.31,1.19-.78,1.8-.85,1.11-.13,2.25,0,3.37-.01,5.64-.08,11.29-.17,16.93-.26,5.34-1.17,10.78-.73,16.2-.99,3.83-.18,7.67-.05,11.51-.05,1.82,0,3.61,0,5.38-.51,1.99-.58,4-.38,6.03-.04,5.56.9,6.58-.23,6.07,6.91-.18,2.48-.1,4.96-.17,7.45-.1,3.17-.26,6.33.99,9.35.08.2.15.44.14.66-.02,4.95,1.04,9.88.29,14.85-.27,1.78-.62,3.56-.78,5.36ZM115.83,333.56c-.45.44-1.15,1.1-1.61,1.02-4.89-.9-9.92-.4-14.77-1.64-1.28-.33-2.69-.2-4.04-.22-11.04-.13-22.09-.23-33.13-.38-1.35-.01-2.74-.04-4.03-.37-2.83-.72-5.87-.08-8.67-1.35,1.45-1.13,3.07-.79,4.6-.81,5.63-.06,11.27,0,16.9-.06,2.24-.03,4.5-.4,6.74-.35,2.02.04,4.02.56,6.04.68,7.21.42,14.42.57,21.62-.06,2.47-.22,4.95-.47,7.42-.02,1.14.21,2.12.7,2.81,1.68.4.54.56,1.44.12,1.87ZM48.88,274.07c-.2-.7.29-1.39.92-1.55.44-.11.86-.35,1.28-.36,5.64-.19,11.24-.91,16.85-1.4,5.15-.45,10.39-.12,15.56.18,3.84.23,7.64.62,11.45-.22.87-.19,1.8-.19,2.7-.21,2.04-.05,4.06-.07,6.09-.07,3.16,0,6.31,0,9.37,0,.44.48.79.77,1.03,1.13.4.57.05,1.62-.49,1.69-.21.03-.44.23-.63.2-2.93-.41-5.81-.26-8.73.37-1.97.42-4.03.4-6.06.46-3.39.11-6.78.1-10.16.2-3.38.1-6.74.31-10.12.65-5.15.53-10.37.51-15.56.62-3.15.06-6.32-.04-9.48-.15-1.11-.04-2.22-.27-3.3-.55-.31-.08-.63-.61-.73-.99ZM44.37,273.73c-.14.14-.29.28-.42.43-.14-.14-.33-.28-.4-.45-.04-.11.13-.28.22-.47.2.17.4.33.6.49ZM39.79,317.24c-.29,1.42-.08,2.61.25,3.92.22.84.1,1.76.09,2.65-.02.68-.91,1.46-1.35,1.18-.31-.2-.6-.55-.72-.9-.14-.41-.12-.89-.1-1.34.07-1.79-.02-3.63.31-5.38.99-5.35.68-10.73.71-16.11.03-6.29-.48-12.58.03-18.86.06-.65.29-1.3.48-1.93.07-.17.3-.43.4-.41.41.08.9.15,1.17.42.3.28.5.77.53,1.19.13,2.24.19,4.48.27,6.72-.1,0-.2,0-.3,0,0,1.34.03,2.69,0,4.03-.04,1.34.04,2.73-.26,4.01-.86,3.54-1.04,7.1-.86,10.72.18,3.38.05,6.76-.64,10.07ZM39.51,335.82c.25,1.96-.45,3.87-.53,5.83-.02.38-.39.74-.6,1.11q-.72-2.19-.24-7.55c.73-.41,1.29.02,1.37.61ZM38.37,330.9l.06-.38.31.23-.37.15ZM39.5,266.69c0-.35.26-.71.41-1.06.16.36.44.72.44,1.08,0,.35-.27.7-.42,1.04-.15-.35-.43-.7-.43-1.06ZM43.17,209.37c.13,2.47.13,4.94.12,7.41,0,.39-.33.8-.58,1.16-.31.46-1.51.36-1.71-.11-.17-.41-.44-.8-.49-1.22-.11-1.12-.2-2.25-.15-3.37.27-6.52.23-13.05.88-19.56.25-2.43.34-4.92.39-7.37.07-3.85.86-7.59,1.47-11.36.04-.22.61-.35.99-.55.82,2.02.54,4.12.07,6-.89,3.56-.79,7.15-.97,10.74-.32,6.08-.33,12.16-.02,18.24ZM42.62,222.26l-.42-.05.27-.39.16.44ZM83.09,174.2c3.1-.54,6.26-.75,9.35-1.1.32.41.77.72.83,1.09.27,1.78.4,3.57.68,5.35.15.91.71,1.63,1.69,2.11.4-.47,1.05-.92,1.19-1.48.26-1.08.23-2.23.33-3.36.08-.89.17-1.79.28-2.68.1-.8.99-1.41,2.02-1.43.95-.02,1.91.69,1.92,1.47.07,3.62.13,7.23.2,10.84.03,2.05.2,4.08,1.02,5.98.22.52.82.87,1.28,1.34.3-.56.66-.94.7-1.34.1-1.12.15-2.26.06-3.37-.33-4.32.08-8.58.88-12.81.16-.9.32-1.87,1.26-2.21,1.31-.47,2.66-.58,3.9.77-.64,2.26-.96,4.68-.77,7.18.16,2.02-.06,4.06-.09,6.09-.03,2.26-.28,4.55,0,6.78.66,5.14.86,10.32,1.19,15.48.12,1.8.26,3.6.27,5.4,0,1.97-.95,2.91-2.9,2.9-10.85-.04-21.69-.12-32.54-.13-3.84,0-7.68.17-11.53.23-3.61.07-7.22.11-10.84.14-.44,0-.87-.19-1.31-.29-.27-.34-.74-.66-.79-1.03-.16-1.34-.21-2.7-.23-4.05-.03-2.26,0-4.52,0-6.78,0-1.78-.61-2.78-1.49-2.49-1.37.45-1.28,1.69-1.33,2.74-.12,2.48-.09,4.97-.17,7.46-.03.89-.11,1.8-.32,2.67-.16.67-.7.99-1.64.68-.09-1.03-.25-2.14-.26-3.26-.09-4.97-.19-9.95-.17-14.91,0-3.16.18-6.29,1.07-9.39.55-1.91.51-4.02.51-6.04,0-2.5.06-4.97.6-7.41.2-.89.62-1.69,1.35-2.11,2.35.2,4.59.4,6.83.59,1.35.11,2.72.11,4.04.35,7.64,1.37,15.26,1.37,22.91.04ZM61.01,163.38c-.02-.31.44-.86.77-.93,1.28-.27,2.59-.39,3.58-.52,1.22.11,2.1.19,2.98.28,1.04.1,1.76.93,1.36,1.79-.58,1.25-.69,2.55-.91,3.86-.2,1.15-1.06,1.76-2.39,1.8-.66.02-1.34.03-1.99-.04-1.48-.15-2.53-1.01-2.92-2.36-.36-1.24-.41-2.58-.47-3.88ZM72.55,163.77c1.38-1.2,2.85-.98,4.36-.37,1.75,1.87.36,3.76.11,5.61-.78.65-1.63.75-2.54.58-.71-.13-1.29-.5-1.4-1.19-.25-1.54-.36-3.09-.53-4.64ZM81.41,167.75c-.02-.65-.03-1.32.04-1.96.14-1.14.57-2.12,1.74-2.57.88-.34,1.48-.2,2.96.78.31,1.13.02,2.17-.42,3.2-.37.87-1.08,1.36-1.88,1.76-1.12.57-2.39-.06-2.44-1.22ZM89.84,166.55c.28-1.04.67-2.06,1.13-3.04.16-.35.59-.59.94-.85.16-.12.4-.18.61-.2.2-.02.44-.01.61.08.37.21.71.49,1.05.73.35,1.32.27,2.56-.46,3.76-.64,1.03-2.41,1.41-3.43.6-.28-.23-.54-.79-.46-1.1ZM98.19,165.04c.27-.56.73-1.04,1.12-1.57.87.88.49,1.64-.05,2.32-.19.25-.64.29-.98.43-.04-.4-.24-.87-.09-1.18ZM108.44,161.8c.57.01,1.19,1.04.91,1.5-.58.94-1.12,1.92-1.85,2.74-1.03,1.16-2.26,1.09-4.12-.05-.16-.9-.13-1.76.37-2.57.48-.8,1.1-1.44,2.05-1.55.88-.1,1.77-.09,2.65-.07ZM106.68,113.03c-.22-.26-.48-.6-.49-.91-.06-1.28-.03-2.56-.03-4.02,1.17,1.09,1.72,2.19,1.63,3.58-.04.63-.85,1.65-1.11,1.35ZM110.1,220.88c.13.51-.07.96-.54,1.11-.61.2-1.28.33-1.93.37-3.6.17-7.21.41-10.8.41-6.07,0-12.16,0-18.51-1.32-2.95.88-6.32.94-9.71,1.09-4.72.21-9.46.17-14.14,1.03-.85.16-1.79-.05-2.65-.26-.36-.08-.66-.57-.92-.92-.3-.4.3-1.39.9-1.5,1.1-.2,2.2-.52,3.3-.5,4.96.07,9.91-.06,14.85-.58,1.11-.12,2.25-.1,3.37-.04,11.03.6,22.08.35,33.11.23,1.11-.01,2.25-.19,3.29.42.17.1.34.28.38.45ZM47.56,222.18c-.32-.04-.66-.08-.98-.12.11-.11.21-.29.35-.32.16-.04.37.02.52.11.07.04.07.21.1.33ZM114.26,221.08c.05-.18.13-.4.27-.5.85-.66,2.14-.48,2.85.42.11.14.05.42.06.64-.29.82-1.06,1.12-2.1.82-.76-.22-1.25-.82-1.09-1.37ZM116.59,173.8c.13.17.15.43.17.65.3,3.36-.16,6.76.57,10.09-.85,2.85.01,5.81-.5,8.7-.2,1.11-.15,2.25-.27,3.37-.26,2.49-.22,4.93.59,7.35.28.83.56,1.86.32,2.63-.8,2.52-.03,4.89.31,7.32.06.44-.03.89-.02,1.34,0,.67-.43,1.29-1.1,1.51-.74.24-2.1-.27-2.31-.93-.27-.85-.59-1.71-.64-2.59-.1-2.02-.03-4.04-.03-7.48-.13-1.73-.44-4.87-.6-8.01-.14-2.7-.14-5.4-.15-8.1-.02-3.38,0-6.76,0-10.14-.01-2.05.29-4.04,1.06-5.94.18-.45,1.33-.95,1.73-.67.35.24.63.58.88.92ZM114.12,150.88c.61.14,1.22.75,1.24,1.34.02.65.04,1.33-.08,1.96-.38,1.85-2.65,2.57-4.15,1.35-.57-.47-.76-1.13-.59-1.79.22-.84.59-1.64.82-2.25,1-.68,1.85-.82,2.76-.62ZM112.13,77.77c-.31.19-.67-.04-.67-.59,0-.58.21-1.17.51-2.57.26,1.44.41,2.04.48,2.66.02.16-.16.4-.32.5ZM106.25,52.26c.25-1.01,1.35-1.88,2.46-1.95,1.59-.09,1.94,0,3.73,1,.12,5.54-.15,6.98-2.33,12.29-.44.06-.87.16-1.31.17-.73.01-1.4-.37-1.64-.96-1.4-3.41-1.77-6.93-.91-10.54ZM106.12,70.16c.14-.56.74-1.07,1.26-1.45.31-.22.91-.28,1.24-.12.33.16.73.77.65,1.04-.84,2.58-.86,5.26-1.12,7.91-.03.32-.47.66-.8.86-.42.26-1.38-.4-1.52-.97-.11-.44-.25-.86-.32-1.3-.06-.44-.06-.89-.12-1.74.19-1.16.34-2.72.73-4.23ZM107.54,85.03c.28.57.66.97.59,1.26-.35,1.27-.89,2.48-1.25,3.75-.3,1.05-.44,2.14-.63,3.13-.62.11-1.12.35-1.39.2-.3-.17-.59-.74-.53-1.08.39-2.68,1.49-5.04,3.21-7.27ZM104.95,132.12c.26,1.09.44,2.22.5,3.34.08,1.35.02,2.7.02,4.06h.26c0,1.34.04,2.69-.02,4.04-.03.4-.28.85-.54,1.17-.67.82-2.89.93-3.76.22-.17-.14-.3-.34-.39-.55-.17-.41-.41-.83-.42-1.25-.1-3.6-.15-7.21-.2-10.81,0-.45.09-.9.17-1.34.13-.68.45-1.25,1.15-1.5.76-.28,2.01.12,2.38.79.32.59.7,1.18.86,1.82ZM100.56,101.12c-.09-.18-.11-.51,0-.66.23-.31.53-.66.86-.79.49-.17.88.1,1.07.55.66,1.5.36,3.11.4,4.66.05,1.79-.06,3.59-.19,5.37-.02.31-.5.63-.84.84-.49.32-1.39-.36-1.43-.97-.02-.45-.14-.91-.07-1.34.18-1.11.42-2.2.66-3.3.18-.87.41-1.73.6-2.55-.42-.68-.79-1.23-1.1-1.82ZM103.69,85.08c.13.05.26.4.2.56-.64,2.15-1.87,3.96-3.09,6.14-1.1-2.28-.68-4,.22-5.62.31-.55.92-1,1.49-1.31.28-.15.8.08,1.18.23ZM69.1,19.37c.2-.4.33-.84.58-1.2,1.93-2.75,3.83-5.54,5.87-8.2,1.08-1.41,2.42-2.63,3.67-3.9.56-.57,1.93-.6,2.49-.1.67.59,1.4,1.14,1.95,1.84,2.76,3.53,5.46,7.1,7.58,9.85,1.22,2.01,1.93,3.15,2.6,4.3.07.12,0,.4-.1.52-.14.15-.39.31-.58.29-.88-.1-1.79-.13-2.63-.39-3.04-.96-6.14-1.26-9.3-1.01-3.8.3-7.6.07-11.38-.39-.52-.06-1-1.11-.75-1.61ZM90.85,49.92c-.2,4.26-.39,8.52-.6,12.77,0,.1-.26.27-.38.27-.22,0-.53-.06-.63-.21-.26-.36-.56-.77-.59-1.18-.49-6.95-1.31-13.89-.69-20.87.1-1.11.3-2.22.48-3.32.1-.62,1.15-1.53,1.39-1.26.25.29.57.63.58.97.13,3.14.2,6.29.27,9.44.03,1.12,0,2.25,0,3.37.06,0,.12,0,.17,0ZM82.31,30.85c-4-.02-8.06-.51-11.8-2.21-.4-.18-.79-.49-.99-.84-.19-.33-.17-.82-.14-1.24,0-.14.27-.34.46-.4.63-.18,1.29-.42,1.93-.43,4.04-.04,8.07-.07,12.1,0,1.33.02,2.68.24,3.98.53,1.96.43,3.9,1.01,5.87,1.54-.1.32-.14.75-.36,1-.28.32-.71.63-1.12.69-3.31.52-6.62,1.37-9.94,1.36ZM81.71,37.14c.47-.51.73-.93,1.09-1.12.36-.18.89-.27,1.25-.13.34.13.77.57.8.91.09.89.07,1.8-.05,2.68-.68,4.49-.87,8.93-.08,13.46.49,2.86.26,5.85.3,8.77,0,.41-.29.82-.66,1.79-3.11.52-5.99.96-9.04.09-1.31-2.1-2.19-4.32-2.11-6.9.16-4.74.29-9.48.32-14.21.02-2.07.61-4,1.02-5.98.1-.5,1.05-1.06,1.61-.96.69.13,1.2.51,1.52,1.16.7,1.48.69,3.07.73,4.64.14,4.96.21,9.92.37,14.89.02.88.22,1.78.5,2.62.11.33.64.69,1.01.74.34.04.87-.24,1.07-.54.36-.55.63-1.21.75-1.86.13-.65.13-1.36.01-2.01-1.11-6.06-.45-12.14-.41-18.03ZM55.79,50.75c.65.2,1.28.45,1.91.68,1.61.6,2.59,1.68,2.77,3.47.33,3.35.72,6.69,1.08,10.04.06.53-.66,1.29-1.3,1.34-1.12.09-2.24.21-3.36.18-.88-.02-1.76-.24-2.49-.36-.38-.55-.79-.9-.85-1.29-.66-4.01-.8-8.06-.73-12.11.02-1.33,1.62-2.35,2.95-1.95ZM50.46,73.22c.24-1.51,1.06-2.48,2.82-2.21.89.14,1.76.52,2.64.58,2.48.17,4.96.26,7.43-.32,1.75-.41,3.59-.5,5.34-.95,3.75-.96,7.52-1.59,11.4-1.5,1.57.03,3.14-.39,4.71-.39,1.64,0,3.14.87,3.15,2.8,0,1.58.02,3.17.14,4.74.05.64.36,1.31.71,1.85.2.31.75.56,1.12.54.32-.02.84-.46.86-.75.16-2.02.17-4.05.32-6.07.07-1.06,1.16-1.92,2.31-2.04.53-.06.87.12,1.13.58.69,1.26.29,2.65.47,3.97.15,1.14.36,2.25,1.1,3.15.24.29.75.55,1.08.5.38-.06.98-.43,1.03-.74.18-1.09.13-2.22.24-3.34.09-.89.24-1.78.39-2.67.14-.83,1.04-1.54,1.94-1.59.9-.04,1.73.73,1.77,1.66.07,2.26.14,4.52.2,6.78.02,1.08-.98,2.07-2.18,2.15-.9.06-1.81.08-2.71.12-.91.03-1.85-.11-2.71.11-3.81.96-7.6.72-11.43.11-1.55-.25-3.16-.24-4.74-.25-4.3-.03-8.6-.03-12.89,0-2.94.01-5.88.1-8.82.13-2.04.02-4.07-.02-6.38-.69-.38-.76-.74-1.16-.74-1.55.02-1.57.04-3.17.29-4.71ZM96.77,105.05c-.52-.49-.94-1.04-1.5-1.4-.7-.46-2.05.18-2.21.92-.05.22-.24.43-.21.64.16,2.47.32,4.95.54,7.42.21,2.35,1.07,4.37,3.07,5.8.34.25.54.71.94,1.28.08,3.63.32,7.47.21,11.29-.08,2.74-.04,5.39.68,8.06.54,2.03-.05,4-1.13,6.07-2.51.67-4.44.88-6.54.63-4.04-.49-8.13-.47-12.18-.8-4.73-.38-9.45-1.02-14.18-1.31-1.98-.12-3.17-1.63-5.04-2.17-.67.4-1.43.85-2.2,1.27-.67.36-1.61.07-1.64-.51-.15-2.69-.79-5.34-.95-8.01-.28-4.96-.27-9.95-.35-14.92-.02-1.35-.18-2.78.16-4.06.72-2.67.92-5.25.43-8.01-.28-1.49.26-3.13.48-4.7.18-1.27.86-1.86,1.65-1.6,1.12.36,1.11,1.32,1.13,2.17.06,2.04-.02,4.07.02,6.11.04,2.26.13,4.52.26,6.78.04.64.37,1.27.56,1.9h1.37c.82-.93,1-2.04.98-3.19-.05-2.49-.19-4.98-.22-7.46,0-1.81.08-3.62.17-5.42.05-1.04,1.18-2.14,2.24-2.2,2.48-.14,4.97-.25,7.45-.34,1.24-.05,1.53.27,1.97,2.02.06.22.04.49.16.65.26.34.54.82.88.88.36.06.96-.18,1.15-.48.47-.75.77-1.61,1.17-2.51.3-.14.7-.5,1.09-.49,2.03.01,4.05.13,6.08-.2.87-.14,1.8.02,2.7.08,1.71.1,2.07,1.2,1.65,2.17-.09.21-.23.39-.35.58-.99,1.69-.8,3.49-.36,5.27.22.9.85,1.58,1.84,2.03.46-.33.98-.7,1.62-1.17,0-1.33.06-2.69-.02-4.03-.06-1.07-.29-2.14-.43-3.16.56-.26.95-.58,1.37-.62,2.48-.27,4.89.25,7.31.39-.04,1.93-.59,3.29-1.82,4.35ZM97.09,111.9c-.01.1-.22.19-.35.28-.11-.16-.33-.34-.31-.48.05-.36.2-.71.31-1.07.11.06.3.11.31.18.04.36.07.73.04,1.09ZM66.95,88.14c-.17-1.56,1.15-2.98,2.8-3.01,1.32-.03,2.67-.13,3.73.85.15.21.39.39.39.56.02,2.21,0,4.4,0,6.53-2.22,2.02-3.08,2.04-5.78.18-.65-1.62-.98-3.35-1.16-5.11ZM77.15,87.24c.21-1.68,1.33-2.58,3.31-2.54.22,0,.44.08.66.12.66.12,1.29.75,1.32,1.32.11,2.45-.05,4.89-.25,7.23-.76.5-1.26,1-1.88,1.2-1.05.34-2.48-.46-2.78-1.34-.63-1.97-.65-3.96-.4-5.98ZM85.49,91.56c-.02-1.1.02-2.2.1-3.3.15-2.05,1.32-2.82,3.74-2.56.55.06,1.36.77,1.36,1.22,0,.88,0,1.75,0,1.98-.14,1.97-.23,3.29-.35,4.6-.07.77-1.19,1.44-2.01,1.24-1.69-.42-2.81-1.63-2.84-3.17ZM97.25,92.33c.14.64.43,1.25.85,2.41-1.21.18-1.85.4-2.48.33-.63-.07-1.33-.34-1.58-1.04-.94-2.64-.79-5.22.7-7.64.21-.35.66-.56,1.03-.8.39-.25,1.59.38,1.57.81-.08,1.31-.19,2.62-.23,3.94,0,.66,0,1.34.14,1.99ZM49,86.48c-.21-.76.56-1.85,1.39-1.92.22-.02.46-.16.66-.11,3.32.68,6.65.65,9.98-.03.42-.09.89.05,1.34.08.75.05,1.93,1.09,1.75,1.76-.59,2.07.13,4,.38,6,.07.6-.2,1.25-.41,2.42-3.7-.01-6.79.57-10,.47-1.95-2.83-4.16-5.35-5.09-8.66ZM29.94,147.77c.38-.45,1.16-.79,1.77-.8,1.57-.03,3.17-.02,4.7.28,1.57.31,3.11.47,4.69.5,3.84.1,7.68.28,11.51.44,1.81.07,3.62.26,5.42.22,3.86-.07,7.66.34,11.48.81,10.09,1.24,20.23,1.91,30.41,1.58,2.03-.07,4.06-.28,6,.21,1.19.69,1.33,1.81,1.37,2.95.03.92-.64,1.94-1.36,2.11-1.32.31-2.63.63-3.97.87-.66.12-1.35.1-2.03.12-10.61.32-21.22.74-31.85.2-4.73-.25-9.48-.09-14.19-.8-1.1-.17-2.3-.21-3.37.03-2.28.5-4.53.3-6.72-.21-4.83-1.13-9.82-1.53-14.8-3.04-1.05-2.47-.25-4.06.94-5.48ZM35.19,162.52c-.43-.47-.69-1.1-1.02-1.64,1.05-.99,2.22-.72,3.21-.39,2.6.88,5.28,1.15,7.96,1.33,1.57.11,3.16.02,4.74.02,1.81,0,3.61,0,5.42.04,2.29.05,2.78,1.05,2.5,2.98-.09.67-.13,1.35-.21,2.02-.03.21-.16.4-.32.79-.45.23-1.03.76-1.61.76-1.57,0-3.14-.14-4.7-.39-2.44-.4-4.85-.93-7.9-1.53-1.23-.45-1.87-2.34-3.52-3.78-.72.14-1.22.11-1.58.33-1.18.72-2.15.38-2.97-.53ZM37.25,354.2c-.55-1.35-.28-2.66.51-3.85.12-.16.36-.29.56-.33.12-.02.37.12.41.23.53,1.54.54,3.09.01,4.63-.75.33-1.25-.08-1.49-.69ZM41.58,390.85c-.8-.05-1.68-.87-1.67-1.58,0-.48.66-1.21,1.2-1.36.8-.22,1.78.43,1.87,1.23.11.95-.56,1.76-1.39,1.71ZM45.18,345.14c-.46,2.18-.5,4.5-.36,6.74.3,4.77-.27,9.48-.68,14.2-.2,2.24-.3,4.39.02,6.66.5,3.58.07,7.22-1.35,10.61-.19.45-1.14.82-1.71.79-.56-.03-1.26-.5-1.6-.99-.35-.51-.49-1.28-.46-1.92.07-2.03.26-4.05.48-7.07-.25-5.15.99-11.14,1.74-17.18.34-2.7.65-5.4,0-8.08-.44-1.8-.38-3.59-.09-5.38.38-2.45.73-4.91,1.21-7.34.18-.92.93-1.55,1.91-1.6.37-.02.85.25,1.08.55.26.33.4.83.38,1.26-.07,2.92.06,5.84-.56,8.76ZM44.07,329.14c.5-.13.88.07,1.13.51.16.52,0,.88-.52,1.03-.51.15-.87-.04-1.07-.51-.23-.53-.08-.89.47-1.03ZM45.47,324.99c-.08.52-.5.77-1.03.61-.39-.12-.96-.3-1.06-.58-1.36-3.9-1.66-7.92-.93-11.97.49-2.68.8-5.33.48-8.05-.07-.66-.03-1.35.04-2.02.7-7.63.65-15.27.36-22.92,0-.32.39-.66.59-.99.36.23.91.4,1.02.71.36,1.05.62,2.15.81,3.24.39,2.21.7,4.43,1.15,7.36-1.38,5.01-1.52,10.15-.39,15.27.5,2.25.65,4.41.06,6.65-.88,3.3-.67,6.7-.82,10.07-.03.88-.15,1.76-.29,2.64ZM46.33,382.55c.83-4.05.04-8.1-.12-12.14-.1-2.95-.2-5.86.27-8.77.66-4.03.79-8.08.81-12.16.02-3.61.16-7.23.4-10.84.09-1.31.62-2.59.99-4.02.98-.18,1.85-.49,2.71-.48,6.1.07,12.19.2,18.29.33,1.13.02,2.3-.1,3.39.12,5.6,1.14,11.24.84,16.87.57,2.74-.13,5.47-.14,8.1.42,4.89,1.06,9.84,1.25,14.79,1.66.44.04.89.15,1.32.22.66.1,1.72,1.23,1.77,1.88.03.23.09.45.07.67-.18,1.79-.57,3.6-.49,5.37.08,1.55.82,3.04,1.07,4.59.21,1.33.13,2.71.19,4.06.07,1.58-.02,3.18.25,4.72.44,2.48.53,4.91-.03,7.39-.2.85-.2,1.82-.02,2.68.87,3.84.58,7.61-.33,11.39-.2.85-.23,1.75-.35,2.66-.75.27-1.39.73-1.98.67-5.41-.56-10.78-.37-16.2.29-4.02.49-8.12.43-12.18.39-7.01-.08-13.99-.1-20.96.87-3.11.44-6.31.29-9.47.37-.99.03-2.24-1.14-2.28-2.15-.1-2.25-.13-4.51-.2-6.76-.02-.91-.09-1.8-.88-2.64-.45.33-1.17.6-1.39,1.09-.36.79-.49,1.73-.54,2.61-.13,2.03-.14,4.06-.24,6.08-.02.7-.59,1.27-1.21,1.39-.82.15-1.98-.54-2.17-1.24-.11-.43-.34-.9-.27-1.3ZM58.21,391.63c-1.05.56-2.17.69-3.28.52-2.45-.37-4.89-.85-7.33-1.3-.2-.04-.4-.21-.59-.32-.41-.25-.56-.65-.4-1.16.06-.19.18-.41.34-.5.39-.22.79-.5,1.21-.52,1.58-.06,3.16-.03,4.73-.03,1.58-.05,3.16-.06,4.74-.04.72,0,1.26.39,1.52,1.06.31.79-.22,1.9-.96,2.29ZM70.02,390.92c-.22.02-.44.12-.65.11-1.76-.04-3.51-.1-5.12-.15-.43-.49-.73-.79-.99-1.14-.13-.17-.16-.41-.26-.69.36-.48.74-1,1.1-1.49,2.02-.47,3.96-.86,5.95-.47.68.13,1.12.62,1.32,1.29.36,1.19-.3,2.42-1.36,2.52ZM122.38,388.88c-6.82-.77-13.47.75-20.17,1.4-3.61.35-7.2.54-10.78.12-7.84-.93-7.83-.99-14.72-.01-.91-.31-1.49-.95-1.85-1.82-.32-.75.31-2.04,1.07-2.15.66-.1,1.36-.31,1.99-.18,4.23.83,8.53.5,12.8.76,1.12.07,2.28.06,3.37-.17,4.68-1.01,9.42-.73,14.15-.76,3.16-.02,6.31.04,9.46.04,1.84,0,3.59.3,5.19,1.22.29.69.12,1.61-.51,1.54ZM123.39,375.66c-.22,2.28.49,4.46.9,6.67.17.89-.87,1.56-1.87,1.23-1.54-.5-2.72-1.96-2.74-3.47,0-.67-.03-1.37.13-2.01.82-3.36.82-6.73.1-10.08-.34-1.59-.37-3.11,0-4.69.21-.87.34-1.81.24-2.68-.48-4.7-.13-9.49-1.55-14.08-.68-2.23-.37-4.49.08-6.7.12-.63.52-1.26.94-1.76.58-.68,1.31-1.23,2.02-1.89-.42-.68-.75-1.25-1.12-1.79-.25-.37-.56-.69-.84-1.03.03-1.3,1.38-1.72,1.8-2.73.15-.37.15-.91-.02-1.27-.16-.38-.55-.7-.92-.96-1.4-1-2.02-2.4-2.12-4.06-.07-1.12-.18-2.28,0-3.38,1.32-8.59.76-17.12-.78-25.61-.33-1.81-.36-3.55-.21-5.36.2-2.25.13-4.52.3-6.77.1-1.33.42-2.65.72-3.96.1-.43.59-.56,1.11-.39.18.06.4.2.48.36.2.39.45.82.45,1.24.01,2.48,0,4.97-.07,7.45-.07,2.28.07,4.48,1.09,6.61.57,1.2.79,2.58,1.08,3.91.48,2.23.68,4.45-.13,6.68-.63,1.75-.63,3.58-.02,5.33.92,2.63.96,5.3.63,8.03-.13,1.12-.28,2.28-.11,3.38.73,4.73.04,9.48.38,14.2.15,2.02.5,4.03.8,6.39-1.18,3.42-1.02,7.24-.59,11.08.28,2.47.54,4.94.82,7.47-.48,1.71-.96,3.45-1.46,5.22.26,3.13.77,6.26.46,9.44ZM124.18,243.34c-.85.04-.62-.67-.59-1.02.07-1.25-.45-2.55.35-3.84.72,1.64.55,3.23.25,4.86ZM130.75,357.68c.06-.03.29.29.44.45.14.5,0,.91-.43,1.16-.05.03-.33-.29-.42-.48-.23-.5-.08-.91.41-1.13ZM130.93,377.97c-.94-2.42-.94-3.38.01-6.47.18.77.43,1.39.43,2.01,0,1.49.24,3.02-.44,4.46Z"/>
      <path class="cls-1" d="M149.49,399.49c-1.3-.31-2.66-.44-4-.43-14.02.13-28.04-.36-42.06.37-2.93.16-5.87.02-8.82.03-2.71,0-5.43.03-8.14.04-2.94.01-5.93-.32-8.8.14-2.99.47-5.84-.3-8.76-.2-2.48.09-5-.18-7.46.13-6.75.86-13.53.84-20.31.82-6.56-.02-13.11-.03-19.67,0-1.58,0-3.15.17-4.72.33-.41.04-.88.29-1.18.58-.29.28-.57.75-.54,1.12.02.31.42.71.74.86.39.18.88.18,1.32.18,8.6-.02,17.2.06,25.79-.1,5.87-.11,11.75,0,17.6-.81,3.34-.47,6.78-.5,10.12.32,1.58.39,3.14.28,4.71.1,3.14-.36,6.28-.72,9.44-.06,1.08.23,2.28.17,3.37-.06,2.69-.56,5.4-.39,8.11-.45,3.62-.1,7.24-.14,10.84-.39,2.27-.16,4.5-.2,6.77-.1,6.77.31,13.56.48,20.33.16,4.33-.21,8.59,0,12.84.71.65.11,1.32.1,1.98.13.65.01,1.62-1.17,1.61-2.15-.3-.36-.63-1.16-1.13-1.28Z"/>
      <path class="cls-1" d="M78.07,407.36c-4.06-.05-8.13-.04-12.19-.04,0-.09,0-.18,0-.28-4.51.15-9.02.29-13.54.47-.61.02-1.25,1.01-.91,1.53.22.34.52.65.83.91.15.13.42.16.63.16,7.91-.06,15.81-.13,23.73-.21.43,0,.88-.17,1.31-.31.2-.07.42-.21.53-.39.24-.36.6-.79.55-1.14-.04-.29-.6-.71-.94-.71Z"/>
      <path class="cls-1" d="M1.74,391.72c-.58.16-1.09.75-1.49,1.26-.66.83.08,2.62,1.08,2.63,1.32.01,2.64-.1,3.49-.14,1.81-.15,3.15-.21,4.47-.42.34-.05.67-.49.89-.83.28-.43-.17-1.42-.67-1.7-2.48-1.4-5.11-1.52-7.78-.8Z"/>
      <path class="cls-1" d="M173.06,393c-.91-1.43-2.3-1.95-4.47-1.92-.34.13-1.18.35-1.94.74-.33.17-.65.67-.69,1.04-.03.32.27.91.54,1,1.45.5,2.94.91,4.43,1.29.4.1.9.03,1.29-.13.37-.15.79-.45.93-.79.14-.35.11-.91-.1-1.22Z"/>
      <path class="cls-1" d="M159.59,403.55c-.26.26-.37.82-.31,1.19.07.36.4.77.72.97.35.21.84.21,1.58.37.78-.16,1.86-.32,2.9-.64.32-.1.65-.6.72-.98.08-.36-.05-.94-.31-1.15-1.71-1.46-3.7-1.36-5.29.24Z"/>
      <path class="cls-1" d="M87.92,304.14c-.05-1.27-1.27-2.45-2.64-2.64-5.04-.68-6.32.07-9.27,3.85-.97,1.24-1.43,2.81-1.58,4.4-.2,2.24-.36,4.49-.42,6.74-.04,1.1.17,2.22.3,3.33.08.69,1.34,1.72,2,1.52,3.18-.95,6.22-.32,9.27.61,1.13.34,2.36-.62,2.36-1.71v-3.39c-.23-2.01-.53-3.35-.5-4.68.03-1.56.4-3.11.51-4.67.08-1.12.03-2.25-.03-3.37Z"/>
      <path class="cls-1" d="M77.45,365.39c.22.02.45.06.67.06,3.15-.02,6.28-.02,9.22,1.42.61.3,1.98-.85,1.91-1.52-.07-.66-.06-1.35-.28-1.97-.8-2.21-.8-4.4.01-6.6.95-2.57.56-5.34,1.14-7.97.13-.58-.21-1.34-.52-1.91-.74-1.42-1.77-2.6-3.63-3.28-1.03.28-2.28.7-3.57.97-1.3.27-2.71,0-3.89.92-.13.16-.33.32-.4.52-.49,1.25-.85,2.55-1.43,3.75-1.94,3.96-2.3,8.18-2.16,12.49.05,1.7,1.26,2.99,2.91,3.11Z"/>
      <path class="cls-1" d="M86.77,251.12c.13-2.02.2-4.05.23-6.07.02-1.34.02-2.71-.18-4.03-.08-.55-.7-1.02-1.06-1.51-2.38.35-4.6.66-6.81,1.04-.42.07-.8.37-1.21.56-1.09.93-1.58,2.18-1.78,3.54-.17,1.11-.22,2.24-.26,3.37-.13,3.38,0,6.76-.91,10.08-.3,1.12.1,2.24.72,3.22.62.99,1.51,1.64,3.12,1.96,1.93-.92,4.39-1.1,6.87-1,.22.01.44-.09.66-.11,1.94-.24,3.18-2.22,2.25-3.92-1.24-2.25-1.81-4.58-1.64-7.14Z"/>
      <path class="cls-1" d="M111.54,239.17c.11.31.64.52,1.02.66.45.17.91-.1.92-.65.06-1.99.03-3.98.03-6.05-.56.13-1.1.08-1.23.3-1.11,1.78-1.44,3.72-.73,5.74Z"/>
      <path class="cls-1" d="M43.54,236.94c-.02.39.26.79.4,1.18.2-.38.54-.76.55-1.14.02-.38-.28-.78-.44-1.17-.19.37-.5.74-.52,1.13Z"/>
      <path class="cls-1" d="M79.4,213.12c2.04-.03,4.07-.05,6.09-.18.65-.04,1.3-.39,1.89-.7.83-.42,1.54-1.06,1.69-2,.77-4.95.74-9.91-.07-14.85-.17-1.09-.76-2.11-1.26-3.38-2.83-.83-5.04-.55-7.23.05-1.39.38-2.33,1.35-2.84,2.69-.25.63-.47,1.3-.48,1.96-.04,4.74-.03,9.48,0,14.22,0,1.04,1.22,2.2,2.22,2.19Z"/>
      <path class="cls-1" d="M51.79,176.77c-.37-.25-1.58.3-1.7.72-.75,2.56-1.51,5.11-1.31,7.79.09.47.18.9.25,1.34.1.56,1.14,1.37,1.46,1.11.31-.26.7-.57.79-.92.54-2.38,1.04-4.76,1.47-7.16.11-.63.04-1.34-.12-1.97-.1-.36-.5-.69-.83-.92Z"/>
      <path class="cls-1" d="M57.55,175.77c-.53.39-1.29.66-1.53,1.18-.99,2.09-1.07,4.3-.36,6.5.24.74,1,.73,1.88.67.85-2.26.83-4.69.69-7.12-.02-.39-.41-.76-.68-1.23Z"/>
      <path class="cls-1" d="M72.74,119.33c0-1.85.11-3-.03-4.1-.12-.87-.56-1.69-.87-2.53-.26-.7-.86-1.08-1.5-1.24-.86-.22-1.76-.32-2.66-.34-1.76-.05-3.66,1.28-4.14,2.88-.92,3.05-1.35,6.15-.71,9.32.04.22.12.43.17.65.37,1.42,1.16,2.52,2.69,2.62,1.87.11,3.52.61,4.96,1.83.32.27.81.35,1.22.51.49.19,1.29-.16,1.78-.7.67-.73.92-1.68.62-2.5-.9-2.31-2.21-4.5-1.51-6.4Z"/>
      <path class="cls-1" d="M91.86,114.85c.1-1.16-.33-2.21-1.5-3.34-1.85.03-4.09-.85-6.25.88-1.03,2.85-1.78,5.89-2.23,9.02-.2,1.38.13,2.7.58,3.97.32.89,1.12,1.72,1.96,1.65,1.84-.16,3.56.52,5.35.51,1.25,0,2.57-1.44,2.34-2.78-.27-1.54-.67-3.06-.99-4.49.26-1.87.58-3.64.73-5.43Z"/>
      <path class="cls-1" d="M57.69,126.44c-1.22,1.73-1.45,3.6-.66,5.54.13.31.62.51.99.66.46.2.91,0,1.05-.5.3-1.03.51-2.08.68-2.8.11-.99.27-1.64.22-2.28-.03-.38-.35-.77-.62-1.09-.34-.39-1.29-.09-1.67.46Z"/>
      <path class="cls-1" d="M82.56,107.45c.2-.87.21-1.78.33-3.05-.06-.52-.13-1.41-.27-2.28-.02-.18-.28-.45-.44-.46-.4-.03-.87-.05-1.19.13-.36.2-.68.58-.86.97-.68,1.52-.48,3.06,0,4.59.15.48,1.21,1.19,1.58.97.33-.2.77-.53.84-.86Z"/>
    </g>
  </g>
</svg>