<?xml version="1.0" encoding="UTF-8"?>
<svg id="Layer_2" data-name="Layer 2" xmlns="http://www.w3.org/2000/svg" viewBox="0 0 221.05 503.73">
  <defs>
    <style>
      .cls-1 {
        fill: #613b27;
        fill-rule: evenodd;
      }
    </style>
  </defs>
  <g id="_Layer_" data-name="&amp;lt;Layer&amp;gt;">
    <g>
      <path class="cls-1" d="M220.75,490.03c-.48-1.2-.88-2.47-1.55-3.56-1.91-3.14-3.17-6.53-4.02-10.1-2.7-2.93-4.61-6.32-6.48-9.73-1.25-2.28-2.57-4.51-4.44-6.37-1.5-1.49-2.45-3.31-3.14-5.33-.68-1.95-1.42-3.93-2.49-5.68-1.64-2.67-2.9-5.49-4.09-8.37-.79-1.92-1.59-3.91-2.85-5.52-2.26-2.89-3.99-6.06-5.87-9.18-2.27-3.78-4.75-7.45-7.05-11.21-1.35-2.21-2.57-4.52-3.81-6.81-.64-1.18.12-2.91,1.32-3.07,1.8-.26,3.63-.33,5.4-.72,1.5-.32,3-.81,4.36-1.51.85-.45,1.42-1.41,2-2.02-.54-2.82-1.01-5.36-1.52-7.88-.2-1.01-.52-2.01-.76-3.02-.99-4.17-3.07-5.9-7.97-5.47-1.29.1-2.58.32-3.85.47-.77.09-1.56.27-2.31.21-3.88-.32-7.75-.69-11.63-1.07-.22-.02-.42-.27-1.3-.85-.08-1.36-.2-2.64-.23-3.94-.13-5.17.43-10.39-.84-15.5.52-4.4.29-8.76-.89-13.04.46-5.21,0-10.36-.85-15.49-.13-.77-.06-1.56-.05-2.34.02-2.32-.28-4.73.19-6.98.52-2.47-1.07-4.53-.78-6.88.09-.76,0-1.55,0-2.33,0-17.9-.03-35.81,0-53.7,0-2.34.13-4.68.43-6.99.96-7.49.77-14.96.2-22.49-.45-5.92-1-11.84-.02-17.82.58-3.53.68-7.25-.04-10.85-.41-2.08-.31-4.09-.15-6.17.18-2.32.33-4.69.04-6.97-.76-5.94-.93-11.89-.99-17.85-.07-6.48-.34-12.97-.61-19.45-.1-2.3-1.26-4.61-.23-6.89,1.1-2.48-1.39-4.42-.87-6.75.17-.75.4-1.49.56-2.1,4.51-5.02,9.85-8.53,16.06-10.75.4-.15.62-.79.99-1.3-.15-.66-.17-1.48-.51-2.13-1.36-2.66-1.73-5.37-1.06-8.3.36-1.51-1.13-2.88-2.87-2.92-1.55-.04-3.12.13-4.66-.05-4.92-.58-9.84-.42-14.77-.28-2.85.08-5.7.09-8.56.06-2.05-.03-3.61-.46-4.25-3.59-.27-1.27-.71-2.5-1.06-3.69-.02-3.95-.06-7.84-.06-11.73,0-3.11.19-6.18.91-9.26.75-3.2.98-6.52,1.43-9.82,1.21-.65,2.53-.24,3.8-.3,1.56-.08,3.11-.09,4.66-.23,2.02-.18,3.51-2.67,2.89-4.69-.16-.5-.24-1.03-.48-1.48-1.69-3.29-3.92-6.11-7.07-8.16-2.17-1.41-4.51-2.62-6.23-5-1.19-5.33-2.4-10.89-3.7-16.44-.29-1.24-.63-2.6-1.37-3.59-1.85-2.5-3.93-4.84-5.96-7.2-.5-.59-1.11-1.12-1.76-1.54-1.51-.97-3.07-1.87-4.6-2.78-.16-.89-.42-1.64-.42-2.39,0-3.37.12-6.74.1-10.12-.02-2.33-.1-4.67-.37-6.98-.11-.98-.7-1.93-1.17-2.84-.36-.71-1-1.14-1.84-1.25-.72-.09-2.24.71-2.51,1.5-.31.96-.69,2-.63,2.98.35,6.24-.21,12.41-.95,18.88-.79.74-1.65,1.72-2.68,2.46-3.05,2.2-5.06,5.18-6.41,8.61-1.89,4.82-3.73,9.67-3.74,14.98-.01,2.38-.52,4.63-2.11,6.98-1.58,1.1-3.56,2.35-5.39,3.78-1.83,1.43-3.59,2.95-5.24,4.58-1.21,1.18-1.32,2.75-.78,4.34.17.49.4.96.59,1.44.67,1.58,1.82,2.51,3.57,2.52,2.06.03,4.13,0,6.19.01.56,0,1.48.97,1.49,1.59.01,1.55.15,3.12-.11,4.62-.27,1.51-.95,2.93-1.5,4.57,2.31,7.22,2.87,14.61.79,22.08-.28.97-.02,2.08-.22,3.08-.13.7-.61,1.32-.92,1.95-3.25-.44-6.33-.59-9.45-.04-1.77.32-3.61.35-5.42.38-2.86.03-5.7.22-8.44,1.13-1.51.5-3.03.62-4.6.49-1.56-.13-3.12-.29-4.66-.24-1.32.05-2.55.59-3.37,1.67-.78,1.02-1.45,2.12-2.12,3.13-.1,2.74-.13,5.32-.28,7.9-.11,2,.76,3.53,2.13,4.82.94.88,2.03,1.61,3.05,2.42,2.44,1.94,5.04,3.67,7.42,6.02.02,2.51.02,5.08.04,7.66.11,11.41.4,22.82-.83,34.19-.11,1.03-.06,2.08-.07,3.11-.16,11.42-.31,22.82-.47,34.24-.05,3.37.17,6.78-.26,10.11-.93,7.25-.76,14.47.07,21.72.35,3.07.51,6.28.04,9.31-.92,5.93-1.12,11.84-1.04,17.83.06,3.89-.11,7.79-.14,11.67-.03,3.64.36,7.32-.1,10.89-.5,3.92.31,7.73.26,11.6-.07,6.22-.03,12.46.41,18.66.92,12.98.33,25.94.31,38.91,0,4.17-.19,8.32-2.19,11.71.24,1.96.46,3.5.61,5.05.1,1.04-.79,2.02-1.86,2.08-1.29.08-2.58.18-3.88.19-4.15.04-8.3.07-12.45.06-2.37,0-4.61.48-6.88,1.12-3.15.9-4.59,3.17-5.35,6.07-.2.73-.16,1.54-.14,2.31.07,2.64-.37,5.11-1.82,7.42-.52.83-.66,1.97-.71,2.99-.05,1,.06,2.08.41,3.02.47,1.27,1.58,2.01,3.12,2.35.56-.13,1.4-.17,2.04-.53,2.61-1.51,5.44-1.52,8.31-1.34,1.46.08,2.24,1.32,1.62,2.73-1.25,2.84-2.23,5.85-3.84,8.46-5.42,8.81-10.12,18.03-15.16,27.07-1.14,2.03-2.08,4.25-3.58,5.98-2.42,2.78-4.05,5.98-5.67,9.21-3.83,7.67-8.26,14.95-14.05,21.32-.52.58-.99,1.2-1.39,1.85-.72,1.15-.88,2.42-.51,3.73.21.75.46,1.49.78,2.19.84,1.78,2.49,2.76,4.39,2.63,1.28-.09,2.61-.54,3.83-.33,2.61.46,5.11.38,7.69-.23,3.57-.83,7.2-.85,10.77.36.97.33,2.03.42,3.05.54,1.98.24,24.45.16,26.45-.25,3.34-.67,6.69-.7,10.07-.75,6.22-.09,12.45-.34,18.68-.4,3.89-.04,7.79.09,11.67.2,2.61.08,5.13.67,7.37,1.59.93.94,1.04,1.96,1.08,3,.06,1.25-.15,2.58,1.12,3.77,1.97-1.92,1.57-4.89,2.95-6.91,1.02-1.04,2.24-1.42,3.56-1.47,3.89-.2,7.83-.02,11.65-.63,4.91-.79,9.82-.82,14.74-.6,3.61.16,7.23-.05,10.86.49,3.05.46,6.18.19,9.29-.29,3.31-.52,6.73-.73,10.07-.6,4.17.16,8.29-.02,12.44-.31,4.91-.36,9.83-.62,14.74-.93,6.62,1.11,13.51-.24,19.98,2.34.39.15,1.02-.13,1.47-.34,1.95-.91,2.63-2.55,1.86-4.45ZM193.65,456.66c.47.13.87.54,1.28.86.2.15.4.35.52.57,1.82,3.43,3.63,6.85,5.43,10.29.27.52-.56,1.58-1.25,1.62-2.59.14-5.17.38-8.34-.34-.32-1.08-.54-1.79-.75-2.53-.29-.99-.56-2-.86-2.99-.23-.74-.54-1.46-.71-2.23-.23-1.01-.38-2.04-.53-3.06-.1-.69-.15-1.4-.22-2.02,1.92-1.11,3.7-.68,5.44-.17ZM176.1,425.72c.15-.11.58-.08.71.05,2.19,2.23,4.1,4.67,5.29,7.57.18.45.03,1.02.03,1.53-.76.84-1.74.99-2.8.86-1.44-.15-2.61-1.01-2.87-2.22-.48-2.28-.93-4.56-1.28-6.85-.05-.28.55-.7.93-.95ZM164.02,390.76c2.58.03,5.18.2,7.75.49,1.78.2,3.54.67,5.3,1.08,1.5.33,1.98,1.51,2.15,2.85.26,2.09-.24,3.38-2.85,3.64-2.6.27-5.18.26-7.57-1.01-1.43-.77-2.96-.9-4.52-.85-2.33.08-4.73-.13-6.97.34-5.62,1.17-11.31,1.26-16.99,1.37-8.8.14-17.59.07-26.38-.56-1.04-.07-2.1.03-3.09-.2-5.36-1.33-10.84-.46-16.24-.9-2-.17-4.1.45-6.11.85-2.3.47-4.65.86-6.93.33-2.09-.5-4.02-.48-6.07,0-.49.13-1.38-.61-1.8-1.16-.56-.74-.21-2.4.52-2.82.87-.51,1.8-1.08,2.77-1.23,2.03-.33,4.11-.41,6.18-.56,4.89-.38,9.83-.15,14.68-1.13.75-.15,1.55-.03,3.19-.03.16.03,1.19.18,2.22.28,1.28.12,2.58.31,3.86.23,3.58-.23,7.14-1.35,10.76-.3,4.37-.42,8.75-.75,13.1-1.32,1.81-.22,3.53-.36,5.36-.08,1.75.26,3.63-.23,5.35.08,1.85.33,3.54.14,5.34-.21,1.49-.3,3.12-.37,4.62-.1,4.1.73,8.22.84,12.37.89ZM71.74,328.6c-.48,2.24-.29,4.59-.04,6.91.07.67-.57,1.28-1.49.88-.86-5.9-1.22-11.82-.79-17.78.13-1.79.02-3.61,0-5.42-.01-1.29-.18-2.59-.11-3.88.45-8.24.38-16.51.17-24.76-.03-1.18-.16-2.47.93-3.54.25.81.57,1.51.68,2.25.29,2.04.45,4.1.72,6.15.21,1.55.46,3.1-.06,4.6-1.22,3.56-.74,7.19-.2,10.73.83,5.41,1.12,10.78.36,16.2-.36,2.53.4,5.07-.17,7.66ZM71.71,344.44c-.15,1.65,0,3.41-1.29,4.77-.61-1.9-.15-3.71.14-5.61.47.34,1.17.62,1.15.84ZM71.49,203.28c-.81,2.56-.69,5.13-.11,7.68.59,2.55.79,5.14.58,7.71-.4,4.93-.1,9.84.01,14.75.11,4.65.23,9.3-.65,13.93-.38,2-.16,4.12-.2,6.19-.07,4.91-.11,9.83-.21,14.75-.01,1.01.08,2.09-.81,3.28-.34-.54-.56-.76-.6-.99-.13-.77-.32-1.55-.27-2.31.4-6.73-.71-13.46-.1-20.16.52-5.69-.28-11.42.94-17.11-1.01-3.73-1.32-7.57-.86-11.48.14-1.27.28-2.6.16-3.88-.63-6.2-.02-12.42-.14-18.62-.03-1.3-.18-2.68.22-3.86,1.14-3.3.68-6.65.8-10,.23-6.19.01-12.41.67-19.16,2.77,6.05,3.09,11.88,2.15,17.66-.8,4.9-1,9.77-.97,14.68.01,2.34.12,4.68-.6,6.93ZM71.32,155.23c.59,1.19.45,2.36-.22,4.08-.33-1.81-.63-3,.22-4.08ZM72.35,150.83c.02-.19.19-.37.29-.55.07.22.19.44.17.64-.02.2-.2.37-.31.56-.06-.21-.18-.44-.15-.65ZM73.3,265.23c.21-1.54.38-3.1.38-4.65.02-11.41,1-22.8.56-34.22-.23-5.96-.19-11.92-.38-17.88-.13-3.64.06-7.26.65-10.84.13-.77.37-1.53.39-2.3.2-8.55.91-17.1.29-25.66-.43-5.97-.07-11.93-.05-17.89,0-2.88,1.03-5.59,1.98-8.28.41-1.15,1.66-2.01,3.04-1.99,7.26.12,14.51.26,21.76.41.51.01,1.01.21,1.77.38-.48.62-.79,1.46-1.32,1.63-2.27.7-4.63.2-6.96.2-2.82,0-5.69-.54-8.45.45-.23.08-.56.4-.53.52.11.39.28.88.58,1.07.41.26.97.36,1.46.4,1.04.06,2.08.06,3.12.07,3.88.04,7.74-.08,11.63.55,2.51.4,5.17-.03,7.74-.29,6.22-.62,12.43-.37,18.65-.04.66.04,1.32.71,1.92,1.18.53.42.58,1.72.06,2.09-.83.59-1.67,1.35-2.6,1.53-1.77.34-3.6.37-5.41.44-4.67.18-9.33.3-14,.47-2.34.08-4.62.5-6.77,1.44-.19.08-.42.52-.36.64.21.38.53.96.85.99,4.42.33,8.81-.11,13.16-.73,4.13-.6,8.26-.67,12.41-.67,1.88,0,3.17,1.52,3.25,3.65.04,1.08-.21,1.67-1.78,3.48-3.69.44-7.57.28-11.45.35-2.6.04-5.19.08-7.77.27-.68.06-1.33.66-1.95,1.09-.16.11-.2.49-.17.73.02.17.23.41.4.47.49.15.99.31,1.49.32,7.27.08,14.53.17,21.8.2,1.02,0,2.04-.34,3.06-.45,1.71-.2,2.72.87,2.78,2.84.03,1.31-.02,2.59-1.44,3.64-4.33.79-8.93,1.53-13.59,1.67-4.18.12-8.23.9-12.3,1.72-.25.05-.42.66-.53,1.02-.02.08.4.42.61.4,3.88-.16,7.76-.34,11.63-.57,2.32-.13,4.63-.4,6.96-.49,2.06-.08,3.08,1.97,1.97,3.89-.25.43-.69.76-1.06,1.14-1.97.82-4.08.39-6.13.56-3.09.26-6.22-.2-9.27.62-.58.15-.77.59-.55,1.21.08.21.23.52.41.57.72.21,1.53.62,2.18.46,3.58-.93,7.22-.57,10.84-.47.74.02,1.48.4,2.12.59,1.17,1.32,1.44,2.81,1.62,4.59-5.01,2.43-10.66,1.08-15.81,2.18-.31.97-.16,1.91.69,1.91,5.19-.05,10.37-.27,15.55-.38,1.02-.03,2.05.15,2.82.21,1.43,1.08,1.7,2.24,1.07,3.58-.22.46-.52.88-.79,1.33-.47.19-.93.54-1.4.56-3.63.08-7.26.06-10.89.15-2.33.06-4.66.24-6.97.46-.32.03-.82.66-.81.99.02.42.4,1.09.76,1.19.99.27,2.03.41,3.04.42,4.15.05,8.31,0,12.45.06,1.03,0,2.07.15,3.06.42.41.11.86.66,1,1.09.5,1.53.4,3.11-.4,4.5-.34.6-1.11,1.26-1.75,1.34-3.09.33-6.2.44-9.29.66-1.79.14-3.59.28-5.38.49-.64.07-.92.62-.65,1.17.2.4.62.95.96.96,3.63.12,7.26.13,10.88.19,1.04,0,2.07,0,3.1.09,1.18.09,2.42,1.36,2.45,2.64.03,1.01,0,2.09-.31,3.04-.21.66-.86,1.29-1.48,1.65-.64.38-1.46.52-2.23.59-2.59.24-5.12.82-7.58,1.64-.47.16-.91.49-1.28.8-.15.14-.23.51-.15.68.19.43.44,1.08.76,1.14.73.13,1.55.1,2.26-.11,2.26-.7,4.56-.93,6.91-.79,1,.06,1.86,1.01,1.81,2.1-.06,1.41-.66,2.41-1.93,3.09-1.6.86-3.7.19-5.06,1.64-.08.82.07,1.66.93,1.8,1.77.29,3.56.4,5.4.58.35.79.88,1.47.92,2.17.15,2.33.1,4.65.16,6.98.05,1.8-.15,3.7.32,5.41.99,3.58.68,7.15.68,10.62-3.17,2.79-4.19,3-6.94,1.43.42-3.27.23-6.6-.82-9.85-.64-1.98-3.96-4.14-6.22-3.97-.48.03-1,.29-1.39.6-1.47,1.16-2.43,2.71-2.83,4.52-.9,4.04-1.76,8.09-1.7,12.3.04,3.1.07,6.23-.97,8.95.35,1.75.72,3.25.94,4.77.13.92-.97,2.19-1.77,2.26-1.04.09-2.06.25-3.09.25-5.71,0-11.41-.08-17.12-.06-1.54,0-3.07.25-4.6.42-.22.03-.61.39-.58.45.17.37.4.97.66,1,5.15.51,10.28,1.31,15.47,1.31,8.3-.02,16.6-.02,24.9-.02h3.91c.45.81.98,1.42,1.12,2.1.24,1.11-.61,2.31-1.46,2.4-1.03.09-2.07.2-3.1.24-6.49.16-12.97.33-19.46.44-4.41.07-8.8.02-13.19.68-2.54.39-5.18.09-7.78.14-2.59.06-5.18.17-7.77.3-.51.02-1.01.2-1.52.3-.61.13-1.39,1.39-1.04,1.82.29.36.85.85,1.21.79,7.72-1.18,15.5-.78,23.27-.91,9.59-.16,19.2-.33,28.79-.4,2.84-.02,5.69.23,8.54.45,1.55.12,2.58,1.58,2.58,3.36,0,1.13-.68,2.2-1.5,2.49-2.22.74-4.5,1.11-6.86,1.14-8.04.12-16.07.38-24.12.43-7.52.05-15.05-.1-22.57-.16-1.06-.01-2.06.11-2.89.85.34.34.64.9,1.02.96,3.31.6,6.6,1.2,10.01,1.26,12.19.19,24.38.36,36.57.02,2.07-.07,4.11-.45,6.18-.52.71-.03,1.46.39,2.14.71.62.3.92,1.44.57,2.03-.24.41-.62.97-.99,1.02-1.78.26-3.59.49-5.39.49-4.94,0-9.83.62-14.73,1.1-.48.04-.95.34-1.39.58-.16.08-.34.41-.3.56.13.46.25,1.01.57,1.3.35.31.93.49,1.41.5,3.37.04,6.74,0,10.11.07.73.02,1.46.4,2.25.63-.39.45-.63.99-1.02,1.13-1.67.62-3.38,1.12-5.07,1.71-.17.06-.31.44-.32.67,0,.19.21.41.38.55,1.09.91,2.47.57,3.71.81,2.12.43,2.98,1.48,3.05,3.83.03.78.04,1.56-.05,2.33-.06.49-.31.96-.54,1.64-.56.23-1.22.67-1.94.78-1.53.21-3.1.2-4.64.41-.31.05-.75.7-.74,1.07,0,.43.34,1.06.72,1.23.66.34,1.46.54,2.21.56,2.85.05,5.7,0,8.55.03,1.03.01,2.06.1,3.1.17.58.04,1.32,1.03,1.3,1.7-.03.74-.62,1.65-1.24,1.77-1.26.25-2.52.53-3.8.66-1.79.21-3.6.28-5.4.44-.72.06-1.42,1.2-1.05,1.72.29.39.62.8,1.04,1.02.44.23,1,.3,1.52.31,1.81.03,3.63-.03,5.44.02.77.02,1.64.04,2.26.4.59.35,1.02,1.09,1.33,1.76.22.49-.66,1.74-1.15,1.8-1.79.2-3.58.42-5.37.58-2.84.26-5.71.23-8.45,1.19-.76.27-1.21.74-1.2,1.59.84.7,1.85.87,2.9.86,3.37-.03,6.75-.1,10.12-.09.74,0,1.54.2,2.21.51.39.17.71.71.87,1.16.25.69-.33,1.74-.92,1.88-.74.18-1.49.45-2.24.49-2.59.13-5.18.16-7.78.29-3.88.18-7.75.26-11.62.81-2.78.41-5.68.07-8.53.04-.66,0-.7.08-.72,1.76,2.24.81,4.57.7,6.9.73,7,.04,14.01.04,21,.08.77,0,1.54.2,2.3.34.75.13,1.55,1.65,1.34,2.53-.2.87-.8,1.43-1.56,1.45-6.7.29-13.34,1.89-20.1.71-.99-.17-2.05.07-3.08.08-4.92.09-9.85.16-14.77.21-.5,0-1.03-.14-1.49-.35-.69-.33-1.52-.64-1.65-1.51-.64-4.11-.9-8.22.21-12.31.27-.99.56-1.98.74-3,.46-2.49-.87-4.12-3.3-4.07-2.58.06-5.15.16-7.75.24-1.34.56-1.85,1.8-2.07,3.05-.39,2.3-.6,4.61-.83,6.94-.31,3.08-.23,6.24-1.65,9.33-1.59.44-3.3.91-4.99,1.41-.17.04-.33.33-.39.55-.13.6.08,1.07.62,1.25.73.24,1.48.45,2.23.56,3.34.47,6.68.91,10.78,1.46,1.97-.67,4.7-1.3,7.61-1.19,5.18.2,10.38,0,15.56.2,5.43.19,10.85.64,16.27,1.04.45.03.86.51,1.27.77,0,.52.12,1.06-.02,1.52-.21.72-.59,1.39-.93,2.13-.78.18-1.52.48-2.27.51-2.59.09-5.19.19-7.78.1-10.38-.38-20.74-.23-31.12.02-2.33.05-4.64.08-6.97.51-5.16.95-5.17.86-11.4-1.39-.2-.63-.66-1.37-.64-2.08.12-3.62.33-7.24.56-10.86.13-2.05.49-4.11.51-6.17.13-10.64.35-21.28.16-31.91-.12-6.74-.28-13.48.05-20.22.12-2.31-.14-4.68-.54-6.97-1.1-6.18-1.29-12.36-.42-18.57ZM136.54,154.65c1.53,1.56,2.18,3.34,1.23,5.43-.18.4-.71.82-1.12.87-.39.05-.91-.3-1.25-.62-1.04-.99-.91-2.3-.74-3.54.15-1.06.79-1.81,1.88-2.14ZM136.05,148.76c.08-.35.59-.61.92-.91.42.21,1.1.35,1.19.66.11.36-.2.99-.52,1.28-.28.27-1.03.45-1.21.28-.3-.28-.47-.92-.38-1.32ZM144.83,195.54c-.34-.63-.07-1.66.59-2.04.37-.23.99-.31,1.38-.15.41.15.94.64.99,1.03.45,3.84.68,7.67.16,11.52-.08.6-.47.88-1.07.97-.86.13-1.58-.2-1.96-.81-.59-.95-.7-2-.39-2.97.47-1.45,1.18-2.83,1.99-4.73-.64-1.05-1.21-1.92-1.69-2.81ZM146.12,168.71c-.8-1.03-.99-2.04.07-3.03.84,1.04,1.06,2.05-.07,3.03ZM146.81,176.5c0,.39-.4.79-.64,1.17-.2-.39-.57-.79-.57-1.17s.37-.79.58-1.18c.22.39.63.79.62,1.18ZM145.74,184.41c.1-.14.33-.2.51-.29.86.77.79,1.74.57,2.71-.05.2-.3.41-.52.51-.1.05-.39-.11-.47-.25-.6-.88-.72-1.78-.08-2.68ZM146.9,376.61c-.47-.65-.47-1.34-.06-2.02.35-.58,1.25-.84,1.99-.5.43.2.81.54,1.14.87.16.15.19.46.33.86-.45.43-.88,1.01-1.45,1.39-.54.35-1.52,0-1.96-.6ZM148.7,382.45c-.45.1-.96.32-1.35.18-.79-.26-.76-.76.05-.95.41-.09.89.15,1.33.29.04,0,.02.47-.03.48ZM148.68,367.26c.45.2.97.33,1.31.63.41.37-.48,1.19-1.34,1.08-.47-.06-.97-.31-1.33-.61-.41-.33.46-1.06,1.36-1.1ZM148.61,361.89c-.73.16-1.47.19-2.04-.5-.88-1.09-.48-2.66.86-2.92.68-.13,1.48,0,2.15.23.35.13.53.75.79,1.15-.03,1.11-.55,1.76-1.77,2.04ZM146.56,232.16c.53-.41,1.42.27,1.54,1.07-.2.42-.3.98-.64,1.23-.55.41-1.5-.24-1.49-1.06,0-.43.25-.99.59-1.24ZM145.91,225.12c-.04-.75.96-1.36,1.52-.92.33.25.44.79.65,1.21-.1.8-1.02,1.42-1.56.98-.33-.27-.59-.82-.62-1.26ZM148.23,282.99c.11.14.13.42.07.6-.04.14-.24.24-.38.35-.09-.18-.26-.37-.25-.54.03-.63.26-.79.55-.42ZM147.15,302.89c-.34-.25-.62-.82-.62-1.25,0-.67,1.02-1.23,1.66-1.03.5.32.67.75.55,1.31-.19.85-.99,1.41-1.59.97ZM148.66,309.08c0,.15-.34.45-.4.43-.59-.29-.58-.61,0-.9.14.15.39.32.39.47ZM147.07,325.95c1.39-.56,2.89.55,2.91,2.12-.27.34-.51.9-.85.97-1.16.21-2.24-.59-2.65-1.89-.17-.54.06-1,.59-1.21ZM149.94,352.89c-1.11.75-2.59.5-3.28-.56-.23-.35-.26-1.03-.07-1.38.75-1.34,3.01-1.32,3.8-.03.11.2.09.47.14.7-.19.43-.26,1.04-.59,1.27ZM149.43,344.68c-.7.39-1.44.43-2.07-.04-.37-.27-.73-.74-.8-1.19-.12-.79.97-1.75,2.19-1.88.4.33,1.06.7,1.43,1.25.4.57-.07,1.47-.76,1.86ZM149.44,336.98c-.62.46-1.46.13-2.12-.33-.77-.54-1.04-1.19-.77-1.97.27-.81.86-1.22,1.69-1.29,1.22-.13,2.11.58,2.1,2.02-.19.35-.37,1.19-.9,1.58ZM149.7,319.53c-.16.38-.71.6-1.07.91-.21-.07-.48-.05-.63-.2-1.7-1.5-1.97-3.06-.73-4.52.29-.35.82-.72,1.2-.67.39.03.89.47,1.1.86.61,1.16.63,2.42.14,3.62ZM148.77,293.66c-.18.44-.44.86-.67,1.27-.31-.29-.77-.54-.9-.9-.15-.44-.15-1.02,0-1.46.13-.37.58-.62.88-.93.23.43.47.85.69,1.26,0,.27.08.54,0,.76ZM147.79,218.28c-.07.18-.38.27-.59.38-.53.26-1.01.14-1.38-.34-.83-1.04-1.33-2.25-1.24-3.57.06-.73.38-1.46.71-2.13.34-.69,1.41-1.01,2-.62.39.26.85.65.97,1.06.22.73.2,1.53.33,2.67-.2.64-.46,1.62-.8,2.56ZM144.39,265.2c.03.91-.96,2.2-1.76,2.26-3.85.33-7.7.67-11.56.92-.4.03-.92-.45-1.26-.82-1.24-1.26-.83-3.37.73-3.86.98-.31,1.98-.62,2.99-.79,2.54-.42,5.09-.75,7.65-1.11,1.66-.24,2.89.79,3.15,2.62.04.26.04.51.06.78ZM142.45,276.96c-.5.11-1.02.18-1.52.16-1.89-.05-2.74-.86-3.04-2.77q-.15-1.01,1.13-2.81c1.4.25,2.89.51,4.11.72.92,1.16,1.06,2.15.83,3.2-.18.82-.72,1.32-1.51,1.49ZM143.64,283c.28,1.09-.74,2.34-2.09,2.55-1.16.2-2.25-.93-2.26-2.31,0-.93.9-1.66,2.05-1.66,1.22,0,2.06.53,2.3,1.43ZM134.01,276.75c-.4.5-1.29.77-1.97.82-.75.07-1.51-.4-1.8-1.17-.36-.94-.57-1.93-.91-3.1,1.5-1.4,2.65-1.89,3.97-1.66.43.08,1.02.45,1.17.82.57,1.48.55,3.03-.46,4.3ZM136.48,187.3c-.16-.2-.47-.41-.46-.6.05-.75.18-1.48.33-2.2.03-.13.32-.2.67-.41.09.81.28,1.54.22,2.25-.02.33-.5.64-.77.96ZM142.94,257.67c-.88.56-1.89.66-2.8.07-.35-.23-.7-.76-.72-1.17-.05-1.28,1.14-2.2,2.49-2.06,1.01.11,1.82.99,1.82,2.01-.26.39-.43.92-.79,1.15ZM142.82,248.17c.65.86.79,1.65.32,1.94-.42.26-.9.49-1.38.53-1.43.14-2.71-.66-3-1.74-.67-2.48-.98-4.97-.53-7.52.16-.92,1.81-1.9,3.02-1.74,1.18.15,2.42,1.66,2.16,2.69-.12.48-.25.98-.5,1.41-.48.86-1.04,1.68-1.59,2.55.58.73,1.05,1.3,1.49,1.89ZM138.02,233.74c-.17-1.22.86-2.58,2.02-2.65,1.16-.08,2.39,1.14,2.35,2.34-.04,1.23-1.13,2.23-2.44,2.25-.9,0-1.78-.86-1.92-1.93ZM139.73,227.07c-1.37-.12-2.02-1.2-1.84-2.8.13-1.12,1.29-1.78,2.18-1.82,1.26-.06,2.4,1.2,2.32,2.51-.07,1.36-1.18,2.23-2.66,2.11ZM138.91,214.56c.14-.49.34-1.22.6-1.92.06-.15.35-.3.53-.31.25-.01.62,0,.73.17.99,1.33,1.29,2.81.42,4.29-.2.35-.87.64-1.26.57-.36-.06-.75-.6-.9-1.01-.16-.46-.09-1.01-.13-1.78ZM140.85,206.49c-.19.19-1.05.08-1.22-.15-.8-1.15-.58-2.36.12-3.49.09-.15.34-.27.54-.32.59-.16,1.01.07,1.19.66.13.47.23.94.4,1.62-.28.49-.56,1.18-1.03,1.67ZM140.97,194.31c-.03-.18.12-.39.18-.58.13.02.36,0,.4.08.07.18.15.44.07.6-.28.68-.55.65-.65-.1ZM141.28,187.09c-.52-.6-.56-1.32-.4-2.03.05-.21.24-.4.36-.59.14.04.4.08.41.13.06.68.1,1.37.07,2.05,0,.15-.28.29-.44.44ZM137.26,178.45c-1.29-.67-1.2-1.63-.83-2.62.28-.76.87-1.37,1.71-1.31.99.08,2,.33,2.94.67.2.07.14.85.2,1.31-1.37.66-2.73,1.32-4.02,1.95ZM139.99,314.58c1.47.13,2.62.94,2.82,2.14.13.76.18,1.53.14,2.3-.09,1.84-1.07,2.74-2.95,2.78-.5,0-1-.2-1.64-.33-.27-.61-.84-1.31-.82-1.98.03-1.28.38-2.54.62-3.8.13-.6,1.1-1.16,1.83-1.1ZM138.97,309.23c-.16-.49.11-.85.76-.94.49-.07,1.03-.15,1.48-.02.39.11.83.46.99.81.27.57-.67,1.36-1.48,1.3-.46-.18-.93-.32-1.36-.55-.18-.11-.32-.37-.39-.59ZM139.25,376.92c-.92-.64-.88-1.83.08-2.43.91-.58,1.85-.73,2.74-.06.34.25.46.8.68,1.23-.16,1.41-2.21,2.14-3.5,1.26ZM142.12,382.11c-.23,1.09-.99,1.59-2.05,1.76-.76.13-1.51-.49-1.39-1.31.07-.4.41-.94.75-1.05.96-.33,1.92-.24,2.69.6ZM139.57,362.67c-1.14-.17-1.99-1.06-1.97-2.04.03-1.45,1.22-2.6,2.43-2.33.99.21,1.98,1.21,2.05,2.05.11,1.22-1.29,2.5-2.51,2.32ZM141.74,368.44c-.63.91-1.54,1.19-2.59,1.08-.19-.02-.49-.33-.5-.51,0-.43,0-1.07.25-1.24.9-.59,1.9-.53,2.8.09.1.07.03.38.04.57ZM114.79,378.12c-2.09,0-3.63.02-5.18,0-5.68-.05-11.35-.06-16.97.9-3.33.56-6.68.33-10.04.16-.25,0-.47-.18-.72-.23-.46-.1-1.24-1.13-1.32-1.77-.08-.64.6-1.7,1.18-1.77,1.53-.17,3.06-.34,4.59-.48,2.3-.22,4.61-.5,6.92-.6,2.83-.11,5.68-.29,8.49-.05,7.54.62,10.42.58,18.48.02,3.84-.27,7.71,0,11.56.04.24,0,.54.13.7.31.34.34.83.73.86,1.15.04.38-.32,1.07-.66,1.19-.94.35-1.96.63-2.97.67-5.16.2-10.31.33-14.93.46ZM124.98,383.05c-.18.42-.5.94-.88,1.06-.71.23-1.54.39-2.27.27-2.59-.42-5.2-.32-7.68.2-5.86,1.25-11.8.73-17.7,1.15-2.83.2-5.67.21-8.5.22-.99,0-1.99-.27-3.22-.43.46-.92.77-1.55,1.04-2.08,4.49-.58,8.82-1.16,13.16-1.69,1.02-.12,2.06-.15,3.09-.16,6.96-.07,13.92-.13,20.88-.16.49-.01.99.23,1.46.4.61.2.89.66.63,1.21ZM132.04,381.36c.93-.11,1.55.57,1.35,1.36-.21.9-.77,1.38-1.58,1.31-1.17-.11-1.82-.74-1.87-2.09.68-.2,1.37-.49,2.1-.57ZM74.62,367.29c.52-.03,1.03-.15,1.55-.11,4.13.21,8.19,0,12.32-.65,4.04-.65,8.24-.45,12.37-.48,8.79-.05,17.57-.04,26.36,0,1.53.01,3.08.3,4.6.52,1,.14,1.57,1.41,1.41,3.27-.92.18-1.91.55-2.9.55-11.37,0-22.74.66-34.11.1-4.64-.22-9.29,0-13.91.7-2.53.38-5.13.37-7.7.5-.74.04-1.71-1.26-1.74-2.24-.03-1.05.83-2.09,1.74-2.16ZM75.78,378.96c-.86.14-1.92-.71-2.16-1.72-.21-.91.77-1.94,1.81-1.92.74,0,1.45.56,1.68,1.29.32.99-.37,2.19-1.34,2.35ZM76.92,385.22c.2.59-.83,1.53-1.49,1.4-.23-.41-.62-.82-.63-1.23,0-.74.8-1.04,1.67-.66.18.08.38.31.44.49ZM125.8,55.1c-1.67-1.71-.87-3.1-1.4-5.19,1.69,2.01,1.3,3.36,1.4,5.19ZM92.17,66.5c-.39,0-1.03-.39-1.11-.7-.09-.41.13-1.07.45-1.37.75-.69,1.59-1.32,2.49-1.78.9-.46,1.93-.7,3.18-1.13,1.6-2.41,2.55-4.46,2.9-6.85.68-4.6,1.94-9.09,2.39-13.75.36-3.69,1.99-6.94,4.96-9.37,1.43-1.16,3.46-1.23,5.09-.33,4.51,2.49,6.71,6.45,6.99,11.42.19,3.34-.08,6.7-.61,10.07-.3-2.98-.54-5.96-.91-8.93-.19-1.57-.83-2.98-1.98-4.13-.5-.5-1.44-.75-2.13-.49-.96.36-1.76,1.59-1.53,2.41.7,2.49,1.53,4.96,2.07,7.5.32,1.49.21,3.08.25,4.62.02.86-1.07,1.95-2.01,2.08-.77.11-1.54.23-2.31.24-1.04.03-2.08-.14-3.11-.05-1.38.12-2.38.86-2.92,2.38.4.51.74,1.46,1.32,1.63,2.22.68,4.5,1.11,7.04,1.71,4.43-2.11,9.43-1.16,14.31-1.29.98-.03,2.09.33,2.95.84,2.23,1.32,4.34,2.81,6.27,4.08.31,1.24-.14,1.82-.89,2.07-1.29.43-2.6.3-3.7-.52-1.04-.76-1.93-1.72-2.91-2.57-1.01-.87-2.17-1.39-3.58-1.44-.97.77-1.98,1.56-2.97,2.34-2-.24-3.95-1.56-5.98-.24-3.85.4-7.71.93-11.57,1.18-4.14.27-8.29.31-12.44.39ZM126.68,94.68c-.1.21-.32.42-.52.52-.64.3-1.02.06-1.06-.64-.03-.5-.04-1.01,0-1.5.02-.22.2-.44.32-.66,1.53,1.14,1.65,1.32,1.26,2.27ZM126.8,110.31c.15.51-.2.86-.74.96-.57.1-.97-.16-.97-.78,0-.7.16-1.4.28-2.09,0-.02.33.03.64.04.26.58.6,1.21.79,1.87ZM119.64,95.18c-.4-.21-.98-.5-1.06-.86-.47-1.96-.84-3.95-1.17-5.94-.07-.47.16-.99.27-1.47.12-.54,1.25-1.4,1.72-1.17.63.32,1.47.79,1.63,1.35.34,1.19.3,2.49.4,3.6-.07,1.16-.14,2.18-.21,3.17-.05.69-1.06,1.57-1.57,1.32ZM121.19,108.71c0,.23-.08.62-.21.66-.41.13-.62-.24-.51-.91.03-.16.28-.28.43-.42.1.22.27.44.29.66ZM120.81,79.85c-1.06-.08-1.92-.43-2.26-1.56-.29-1-.23-1.95.34-2.86.32-.5.73-.76,1.28-.54.42.17.95.43,1.14.79.67,1.37.55,1.96-.49,4.17ZM110,85.11c1.44-.15,1.71-.02,3.2,1.62,0,2.29.05,4.6.02,6.93-.01,1.4-.97,2.44-2.36,2.56-.76.07-1.54.06-2.31,0-1.04-.08-2.06-1.01-2.14-1.92-.15-1.79-.31-3.6-.34-5.4-.04-2.38,1.17-3.48,3.92-3.78ZM107.46,77.32c-.17-1.58.52-2.63,1.79-2.8,1.75-.23,2.94.43,3.49,2.14-.24,1.92-1.54,2.42-3.2,2.41-1.13,0-1.96-.72-2.07-1.75ZM100.14,88.55c.19-.59.61-.93,1.14-.72.39.15.92.53.98.88.21,1.26.25,2.54.35,3.85-.06.75-.01,1.54-.21,2.27-.1.39-.56.73-.94.99-.54.37-1.43-.38-1.54-1.19-.3-2.04-.41-4.08.22-6.08ZM99.55,79.74c-1.22-1.53-1.02-2.56.82-4.38,2.14,1.33,2.48,2.14,1.65,4.08-.4.94-1.82,1.12-2.47.31ZM100.08,110.26c.29-1.04.98-1.69,1.93-2.11.89,1.6.91,2.33-.07,3.12-.31.24-.91.32-1.32.22-.59-.13-.71-.63-.54-1.22ZM60.17,120.04c0-.25.06-.59.22-.72.39-.31.86-.74,1.3-.73,3.66,0,7.21-.49,10.69-1.69,1.19-.4,2.56-.32,3.85-.33,2.07-.01,4.16.27,6.22.07,3.66-.34,7.18-.15,10.75.92,2.2.66,4.63.78,6.94.73,5.92-.12,11.93.61,17.99-1.18,3.1.39,6.36,1.39,9.78,1.13,1.26-.1,2.62.07,3.84.44,3.33.99,6.76.97,10.04.54,3.61-.48,7.21-.05,10.78-.58,2.86-.42,5.64,0,8.23,1.59-.88.92-1.9.72-2.82.83-3.34.4-6.68.79-10.03,1.15-3.87.41-7.73.71-11.57-.5-1.2-.38-2.57-.33-3.85-.31-4.16.07-8.28-.24-12.39-.96-2.82-.49-5.65-.79-8.47,0-.24.07-.53.15-.76.08-3.12-.91-6.12-.09-9.16.47-2.8.52-5.64.74-8.46,1.09-1.79.22-3.59.43-5.38.66-2.05.28-4.08.58-6.65.95-3.77-.99-8.19-1.07-12.6-1.19-2.87-.07-5.67-.42-8.22-1.88-.15-.09-.25-.4-.25-.6ZM63.64,129.48c-.15-.2-.31-.61-.22-.71.28-.32.7-.79,1.01-.75,3.07.32,6.25-.34,9.18,1.06,3.62.01,7.25.13,10.87.02,2.84-.09,5.68-.06,8.44-1.09,1.4-.53,3.06-.39,4.59-.57,1.54-.2,3.11-.29,4.59-.68,3.07-.81,6.15-.96,9.23-.3,1.56.33,3.01.35,4.58.01,2.8-.59,5.69-.47,8.49.11,2.82.59,5.65.81,8.51.79.78-.01,1.58-.1,2.33.04,6.41,1.24,12.85.62,19.29.46.23,0,.46.24.71.37-.73,2.49-3.34,3.04-4.37,4.44-1.98.96-3.56.7-5.1.72-5.96.06-11.93.12-17.89.15-3.64.01-7.24-.03-10.78-1.18-1.45-.47-3.08-.37-4.62-.53-1.54-.16-3.13-.16-4.62-.53-2.61-.66-5.09-.54-7.63.33-1.2.41-2.53.58-3.82.63-3.11.13-6.19.49-9.27.77-5.15.47-10.34.35-15.51.48-3.39.09-5.97-1.43-8-4.04ZM39.89,405.56c-.59-.4-1.21-.84-1.8-1.24-.91-2.31-.64-4.62-.42-6.92.13-1.36,1.64-2.93,2.99-3.18.75-.14,1.52-.33,2.28-.34,3.85-.1,7.71-.2,11.57-.22,3.35,0,6.67.04,9.98-.63,1.21-.26,2.54,0,3.81.1.82.07,1.78,1.29,1.87,2.19.16,1.53-.4,2.99-1.32,3.35-.71.27-1.42.65-2.17.73-2.04.27-4.08.52-6.14.6-4.95.18-9.62,1.5-14.02,3.63-2.11,1.03-4.24,1.76-6.65,1.92ZM92.18,488.87c-2.06.14-4.13.2-6.2.2-5.91.04-11.8.26-17.7.83-5.39.52-10.83.48-16.26.6-4.9.11-9.82.07-14.72.16-3.63.07-7.29.1-10.8-.8-3.36-.88-6.6-1.01-9.93-.17-1.77.45-3.56.53-5.33-.22-.56-.24-.95-.63-.75-1.19.14-.38.59-.86.96-.91,3.32-.41,6.66-.84,10-1.06,2.05-.14,4.13-.03,6.19.13,1.53.14,3.04.81,4.56.79,5.42-.07,10.85-.11,16.25-.56,5.42-.46,10.81-.48,16.24-.05,5.4.43,10.81.83,16.26.51,3.59-.2,7.22.1,10.83.24.46.02.9.42,1.36.66-.32.3-.63.84-.96.86ZM131.13,435.97c-1.03-2.1-2.03-4.46-2.49-7.04-.33-1.87-1.61-3.22-3.4-3.99-.72-.32-1.41-.74-2.16-.87-4.07-.75-8.15-1.45-12.23-2.06-1.57-.23-3.09.21-4.49.97-.91.48-1.83.97-2.71,1.49-2.44,1.45-4.85,2.94-7.34,4.45-2.19,2.67-3.11,5.85-3,9.34.23,7.5-.37,15.04,1.28,22.48.39,1.74.27,3.61.21,5.42-.03.7-.56,1.38-.93,2.21-3.77.74-7.53,1.49-11.4,2.24.97,1.45,2.29.96,3.4,1.03,1.55.11,3.11.05,4.67.1,1.26.03,2.6-.14,3.64.85.23.48.59.92.65,1.38.24,2.32.39,4.65-.09,6.97-.11.49-1.11,1.47-1.65,1.47-3.87.06-7.74.13-11.62.12-.42,0-.95-.45-1.25-.81-.61-.82-1.06-1.76-1.69-2.57-.46-.6-1.67-.72-2.07-.23-.8.99-1.54,2.02-2.33,3.02-.67.84-1.57,1.37-2.63,1.51-2.58.33-5.16.2-7.75-.11-6.46-.78-12.93-.66-19.39-.03-2.05.2-4.13.2-6.19.2-1.16,0-1.83-.82-2.21-1.66-.27-2.96,2.16-4.76,2.64-7.29.06-.3-.45-.77-.79-1.07-.15-.13-.54-.15-.74-.05-.45.21-.95.45-1.24.83-1.08,1.45-2.06,2.98-3.14,4.43-.91,1.23-1.92,2.41-2.72,3.41-3.05,1.26-5.95.42-8.77.67-1.78.16-3.62-.11-5.42-.23-.65-.04-1.31-1.21-1.02-1.78,1.83-3.71,3.55-7.46,4.8-11.43.62-1.95,1.58-3.88,3.16-5.29,2.8-2.51,4.35-5.75,5.47-9.24.89-2.75,2.46-5.08,4.29-7.43,2.38-.11,4.68-.26,6.98-.31,2.59-.05,5.19,0,7.78-.06,2.3-.06,4.64.36,6.84-.43.22-1.67-.52-3.07-.07-4.72.84-3.02,2.25-5.74,3.49-8.55.14-.31-.23-1.07-.58-1.29-.31-.19-.95-.02-1.36.19-.45.22-.89.58-1.15,1.01-1.85,3.08-4.04,6.01-4.77,9.67-.2.99-1.33,1.55-2.41,1.47-3.1-.27-6.2-.53-9.3-.77-1.61-.13-2.53-1.28-1.88-2.5,2.32-4.34,4.67-8.65,7.05-12.95,1.1-1.96,2.94-2.88,5.1-3.11,1.8-.2,3.62-.22,5.43-.29,2.33-.08,4.67-.12,7-.2.24,0,.47-.2.71-.3.33-.78.26-1.59-.63-1.72-2.81-.42-5.64-.68-8.47-1.01-1.36-.16-2.44-1.16-2.65-2.44-.26-1.57.67-3.31,1.98-3.84,2.47-1,5.08-.89,7.66-.86,2.57.02,5.12.61,7.7.23.21-.03.46-.28.56-.5.27-.59.1-1.07-.43-1.26-.72-.28-1.46-.51-2.21-.7-1.52-.34-3.03-.65-4.56-.97-1.51-.3-3.12.08-4.61-.69.21-.37.33-.9.65-1.07,2.89-1.54,5.94-1.61,9.04-.73.74.21,1.46.52,2.12.75,1.57-.4,3.04-.8,4.63-1.2.48.74,1.09,1.31,1.24,1.98.28,1.26.19,2.58.45,3.83.2,1.02.82,1.88,1.98,2.44.47-.48,1.22-.92,1.44-1.55.42-1.2.51-2.52.8-3.77.19-.86,1.43-1.86,2.23-1.9.78-.03,1.55-.11,2.32-.05,4.65.38,9.3.67,13.93,1.38,3.32.51,6.73.5,10.09.6,2.6.08,5.17.18,7.74.66,2.03.38,4.13.57,6.19.56,8.08-.04,16.02,1.21,23.98,2.42,1.53.22,3.08.51,4.63.57,4.2.17,8.19,1.18,12.11,2.61,1.69.63,3.43,1.13,5.11,1.81.38.15.58.79.8,1.21.03.06-.27.4-.46.43-2.02.39-4.08.66-6.08,1.12-.96.23-2.02.56-2.44,1.85.69.19,1.38.51,2.07.54,2.07.1,4.15,0,6.22.14.99.07,1.95.5,3.05.8.65,2.65,1.28,5.15,1.87,7.67.22.99-.68,1.99-1.77,2.03-3.63.15-7.25.3-10.88.49-.69.04-1.36.32-2.17.51.58.37.98.78,1.44.88,4.34.8,8.68,1.55,13.12,1.55,4.95,0,9.81.8,14.49,1.65,1.39.68,2.18,1.72,2.72,2.9,1.06,2.33,3.06,4.24,3.23,6.98-.42.34-.76.83-1.19.92-3.3.68-6.64.94-10.02,1.06-11.67.42-23.32.02-34.98-.43-3.87-.14-7.74-.25-11.66-.74-2.92-4.78-2.4-10.02-2.62-15.39ZM133.25,457.12c-.07-.52.86-1.16,1.37-1.81,5.72-.4,11.41-.24,17.09-.03,1.29.05,2.59.24,3.85.09,3.88-.46,7.71-.2,11.6.21,3.58.39,7.23.07,10.85.11,1.29,0,2.58.12,3.86.27.48.05.93.36,1.59.63.6,2.06,1.26,4.25,1.88,6.46.63,2.19,2.38,4.01,2.23,6.71-.95.17-1.95.51-2.95.49-7.5-.11-15-.34-22.5-.44-2.84-.04-5.52-1.24-8.46-.71-2.53.45-5.15.45-7.72.55-3.1.13-6.21.2-9.31.22-.73.01-1.47-.33-2.12-.48-.93-1.75-1.37-3.5-1.39-5.35-.01-2.31.4-4.61.13-6.96ZM160.1,487.99c-1,.22-2.04.43-3.06.43-6.46,0-12.93-.07-19.39-.17-1.06,0-1.98-.52-2.57-1.43-.49-2.82-1.04-5.62-1.47-8.41-.2-1.26-.21-2.56-.27-3.85-.03-.8,1.31-2.18,2.01-2.05,3.6.69,7.22.61,10.84.49,2.32-.08,4.64-.23,6.94-.51,2.33-.28,4.63-.39,6.95-.01.93.15,1.95,1.17,1.98,2.07.13,3.09.27,6.2.39,9.29.03.77,0,1.54.01,2.2-.52,1.1-1.33,1.72-2.37,1.95ZM207.92,481.74q-3.89,1.19-6.54,3.95c-8.32.66-16.8,1.4-25.31,2-2.05.14-4.13-.11-6.19-.27-1.62-.12-3.06-1.47-3.14-2.94-.1-1.81-.11-3.61-.14-5.42-.03-1.76-1.32-3.38-.67-5.22.22-.16.41-.35.64-.47.23-.12.48-.19.73-.2.51-.05,1.04-.13,1.54-.1,11.61.85,23.29.42,34.98,1.99,2.28,1.7,3.51,3.36,4.34,5.29.16.37-.14.94-.23,1.4Z"/>
      <path class="cls-1" d="M82.79,186.92c.02.76.22,1.52.36,2.27.14.78,1.4,1.9,2.23,1.92.76,0,1.57.06,2.28-.14,1.72-.51,3.33-1.32,5.17-1.52,2.3-.26,3.24-1.83,2.81-3.74-.57-2.58-.59-5.1-.25-7.68.24-1.79.38-3.59.44-5.4.04-1.28-.09-2.58-.23-3.85-.23-2.18-1.99-3.73-4.24-3.64-1.27.04-2.57.22-3.8.55-4.13,1.08-4.66,1.76-4.69,5.76-.03,2.32.01,4.64.02,6.97-.14,2.84-.14,5.68-.09,8.51Z"/>
      <path class="cls-1" d="M65.17,466.94c-.4-.1-.68-.71-1.12-1.19-.32-3.53,1.81-6.75,2.09-10.33-1.21-.75-2.04-.73-2.59.01-1.86,2.54-3,5.38-3.54,8.47-.17.92.56,2.08-.7,2.73-2.3.31-4.63.43-6.87.95-5.1,1.19-10.19,1.52-15.4.88-3.87-.48-7.73.04-11.58.32-.6.05-1.32,1.04-1.29,1.69.04.77.67,1.38,1.46,1.45.77.07,1.54.26,2.3.21,2.06-.15,4.24-.04,6.14-.69,2.32-.79,4.64.33,6.88-.56,2.24-.89,4.6-.33,6.91-.33,1.81-.01,3.63-.07,5.42-.26,4.13-.49,8.26-.3,12.39.07,2.8.26,5.61.45,8.39.22.41-.39.56-1.08.09-1.32-2.83-1.38-5.96-1.6-8.97-2.32Z"/>
      <path class="cls-1" d="M154.8,449.37c.4-.13.87-.59.96-1,.21-.98.22-2,.27-2.48-.12-1.54-.13-2.57-.31-3.56-.09-.43-.48-.85-.81-1.19-.34-.36-1.76-.07-2.06.47-.48.87-1.12,1.78-1.2,2.71-.13,1.8.44,3.52,1.77,4.83.27.29.97.36,1.37.23Z"/>
      <path class="cls-1" d="M144.39,427.75c.7-2.62.95-5.28-.31-7.94-.25-.53-1.53-.89-1.98-.48-.54.5-1.2,1-1.45,1.65-.9,2.29-.05,5.02,2.05,6.74.3.24.95.03,1.68.03Z"/>
      <path class="cls-1" d="M68.28,447.88c.4-.04.79-.2,1.18-.32-.16-.14-.33-.43-.48-.41-.41.04-.79.2-1.18.33.16.14.33.41.48.4Z"/>
      <path class="cls-1" d="M59.77,446.24c-.17-.14-.32-.41-.52-.44-.64-.11-.93.14-.71.55.07.14.4.15.6.22.21-.1.42-.22.62-.33Z"/>
    </g>
  </g>
</svg>