<?xml version="1.0" encoding="UTF-8"?>
<svg id="Layer_2" data-name="Layer 2" xmlns="http://www.w3.org/2000/svg" viewBox="0 0 120.48 438.48">
  <defs>
    <style>
      .cls-1 {
        fill: #613b27;
        fill-rule: evenodd;
      }
    </style>
  </defs>
  <g id="_Layer_" data-name="&amp;lt;Layer&amp;gt;">
    <g>
      <path class="cls-1" d="M118.42,417.43c-.41-.36-.87-.63-1.63-1.16-2.65-.32-5.62-.63-8.6-.99-.62-.09-1.6-1.03-1.67-1.56-.11-.85-.2-1.66-.26-2.47-.27-4.39-.14-8.83-1.64-13-.26-.81-.25-1.66-.33-2.47-.48-5.79-1-11.48-1.48-17.26-.14-1.39-.03-2.78-.36-4.08-.98-3.77-.86-7.62-1.32-11.43-.78-6.32-1.36-12.55-1.4-18.92-.03-1.12-.23-2.19-.42-3.27-.76-4.35-.93-8.69-.94-13.13-.02-5.51-.12-10.98-1.22-16.36-.75-3.77-.7-7.62-.64-11.52.04-2.2-.02-4.4-.23-6.59-.46-5.2-.89-10.4-.9-15.6-.01-1.92-.07-3.85-.49-5.74-.75-3.5-.91-7.08-1.06-10.63-.08-1.92.05-3.94-.36-5.78-1-4.57-1.06-9.24-.88-13.9.33-8.34-.99-16.46-2.13-24.57-1.15-8.2-2.18-16.36-2.14-24.61.04-4.93.41-9.87-.88-14.75-.33-1.26-.06-2.73-.15-4.08-.14-2.24-.18-4.39-.56-6.59-1.2-6.81-1-13.68-.52-20.53.1-1.3.83-2.56,1.24-3.81,2.04-.58,3.87-1.03,5.67-1.62,1.67-.58,2.83-2.11,2.8-3.72-.07-2.69-.1-5.47-.31-8.2-.24-3.36-2.04-5.16-5.67-5.69-.26-.05-.55,0-.81-.05-3.18-.49-4.32-1.66-4.5-4.71-.1-1.66-.04-3.32-.04-4.93,0-1.66,0-3.32-.05-4.98-.05-1.17-1.35-2.69-2.46-2.91-.8-.18-1.61-.22-2.41-.22-1.12-.05-2.13-.27-2.89-1.62-.09-1.93-.15-4.08-.29-6.28-.08-1.34-.24-2.74-.47-4.08-.7-3.77-1.45-7.53-2.29-11.84,2.38-3.94,1.93-8.65,1.83-13.32-.02-1.07-.02-2.2-.07-3.32-.08-2.11.51-3.72,2.91-4.17.76-.18,1.55-.63,2.15-1.12.59-.54,1.09-1.21,1.49-1.93.59-1.07-.27-3.14-1.38-3.4-1.04-.23-2.11-.45-3.17-.49-2.37-.09-4.16-.94-5.1-3.27-.41-.99-.96-1.97-1.47-2.91-1.58-2.91-3.31-7.67-6.25-9.42-2.28-1.84-4.23-2.2-5.74-4.35.33-.99-.59-1.57-.59-2.56,0-4.66.04-8.03-.64-12.6-.63-4.13,0-7.93.13-12.06.05-1.66.17-3.5.03-5.16-.11-1.3-1.21-2.15-2.29-1.35-.62.45-1.42,1.07-1.55,1.75-.97,5.11-.02,10.18-.02,15.47-.01,5.33-.99,12.37-1.26,16.9-5.39.85-8.74,4.71-10.02,7.22-1.38,2.56-2.65,5.2-3.47,8.03-.28.94-1.06,1.75-1.54,2.47-1.6.22-2.93.36-4.19.67-1.31.31-2.36,1.08-3.12,2.24-.49.67-.09,2.33.59,3.01,1.1,1.07,2.45,1.34,3.77,1.75,1.09.36,1.99.99,2.54,2.2.09,5.34,1.01,10.89.26,16.32-.79,1.7-1.57,3.37-2.09,4.53.35,2.78.76,4.97.87,7.22.15,3.01.06,6.01.07,9.06,0,.58-.01,1.08-.09,1.61-.18,1.12-.62,2.06-1.6,2.6-.7.36-1.51.5-2.24.76-2.58.99-4.39,2.74-5.63,5.2-1.22,2.38-1.97,4.89-2.26,7.67-.23,2.11.25,4.53-1.52,6.64-1.79.67-3.97,1.52-6.54,2.51-2.03,3.09-2.96,7.08-4.35,10.76.78,1.75,1.44,3.27,2.19,4.8.52,1.07,1.42,1.7,2.62,1.88,1.72-.49,3.18-1.61,5.19-1.52,1.39.04,2.86,1.08,2.85,2.37,0,1.93.14,3.9-.13,5.79-.55,4.03-1.15,8.07-.22,12.33.22.99-.1,2.11-.22,3.18-.2,1.66-.52,3.23-.62,4.89-.21,3.23-.35,6.54-.49,9.86-.23,4.62-.46,9.28-.64,13.99-.18,4.89.13,9.91-.92,14.75-.29,1.26-.23,2.65-.19,4.04.15,3.63.55,7.22.51,10.76-.05,3.59-.69,7.13-.77,10.63-.27,11.88-.46,23.67-.59,35.51-.03,2.46.39,4.97.44,7.44.08,4.71.46,9.46-.07,14.03-.55,4.57-1.03,9.15-.89,13.86.05,1.66-.1,3.32-.24,4.98-.92,10.85-1.86,21.75-2.76,32.64-.44,5.16-.97,10.27-1.14,15.51-.37,11.25-.52,22.51-.85,33.85-.07,2.42-.52,4.79-.73,7.3-.13,1.3-.38,2.69-.08,4.04.75,3.46-.2,6.59-.85,9.73-.21,1.03-1.1,1.75-2.3,1.75-2.45-.04-4.91-.27-7.35-.27-1.43,0-2.41.86-3.05,2.02-.23.45-.45.99-.47,1.52-.24,5.42-.68,10.89-.08,16.41.16,1.48,1.08,2.64,2.7,3.27,4.97.04,9.98-.81,15.18-.72,4.23-1.17,8.66-.18,13.02-.18,4.64.05,9.23-.63,13.92.05,5.71.72,11.44,1.21,17.18.89,2.51.67,4.87-.58,7.33-.58,7.11-.09,14.2-.99,21.31-.4,2.7.22,5.48,0,8.21-.36,5.97-.63,11.91-1.61,17.86-1.17,1.87-1.7,2.43-3.85,2.96-5.96-.92-2.51.06-4.89.43-7.31.35-2.06-.39-3.77-1.98-5.07ZM95.28,405.41c-1.24,1.03-2.51,2.11-4.17,2.24-.31,0-.66-.49-.98-.76,1.19-1.7,2.96-2.29,4.76-2.78.58.31.86.99.39,1.3ZM75.78,371.29c1.37-1.26,2.44-2.87,3.67-4.4.87.09,1.68.09,2.46.23.65.13.79.63.51,1.3-.12.23-.23.54-.42.67-3.21,2.51-6.43,5.07-9.71,7.44-.33.27-1.11.36-1.38.14-.29-.23-.2-.94-.28-1.43,1.71-1.3,3.56-2.51,5.16-3.95ZM69.25,371.16c-2.6-.09-2.98-1.79-2.89-4.13,2.52-.85,5.08-1.08,7.74-.09-.97,2.33-3.04,3.14-4.85,4.22ZM72.56,382.14c.15-.49.57-.94.95-1.3.84-.67,1.69-1.35,2.62-1.84,2.32-1.34,4.45-3.04,7.77-3.31-.72.72-1.41,1.52-2.19,2.15-2.52,2.06-5.04,4.17-7.61,6.1-.26.18-1.11,0-1.37-.31-.27-.31-.3-1.03-.17-1.48ZM73.84,389.81c2.58-3.14,5.47-6.1,9.25-7.85.22-.09.52,0,.84,0,1,1.17,1.05,2.56.19,3.72-2.36,3.05-5.41,5.38-8.87,7.04-.29.09-1.19-.27-1.29-.63-.24-.72-.47-1.84-.11-2.28ZM75.13,398.69c2.17-2.83,4.77-5.25,7.92-6.91.58-.31,1.06-.13,1.36.4.11.23.12.54.23,1.03-.27.54-.45,1.48-1,1.88-2.3,1.93-4.69,3.72-7.08,5.51-.54.36-1.14.14-1.35-.45-.17-.49-.3-1.21-.07-1.48ZM75.72,416.17c2.26-3.14,5.48-4.93,9.02-6.28.16-.04.47.18.64.31.16.18.28.41.31.63.04.27.04.63-.12.81-1.43,1.61-2.88,3.14-4.31,4.75-1.76,1.88-3.67,1.88-5.7.63.06-.31.02-.63.16-.85ZM84.67,404.7c-2.22,1.93-4.53,3.81-6.81,5.69-.19.13-.52.13-.79.18-.38-.31-.99-.54-1.09-.89-.46-1.62-.3-3.37.99-4.53,1.99-1.75,4.21-3.32,6.35-4.93.62-.49,1.61-.36,2.18.23.66.58.61,1.43.33,2.2-.27.72-.61,1.57-1.18,2.06ZM85.77,358.96c-1.13,2.33-2.52,3.54-4.64,3.59-2.17.09-4.48.49-6.51-.05-3.79-.94-7.56.23-11.36-.53-3.43-.67-7.04-.54-10.59-.72-3.81-.31-7.62-.49-11.44-.85-2.17-.23-4.35-.59-6.5-1.03-1.36-.27-2.41-1.61-2.34-3.09.46-10.41-.41-20.94.72-31.3.13-1.08.13-2.15.27-3.23.57-4.44,1.85-5.25,6.5-5.16.27.04.56.04.81.09,9.95,2.33,20.02,1.97,30.05,2.2,2.72.04,5.44,0,8.16.18,1.41.04,2.63.81,3.12,2.2.56,1.57.93,3.14,1.32,4.75.24,1.03.05,2.2.98,3.01,1.83-1.66.47-4.17,1.57-6.01.15.04.42,0,.44.09.94,3.09,1.85,6.23,1.89,9.55.04,6.95,1.25,13.67,2.38,20.45.46,2.69.78,5.38.48,8.2-.09.94-1.47,1.66-2.51,1.3-1.46-.45-1.95-1.75-2.8-3.63ZM47.27,394.11c.91.72,1.26,2.02.85,2.78-1.42,2.91-2.5,4.08-5.76,6.19-.21-.13-.53-.27-.61-.49-.37-1.03-.67-2.11-.96-3.01.53-1.16.96-2.06,1.4-3-.23-.18-.57-.41-.67-.36-1.98,1.3-3.95,2.6-5.87,3.99-.29.24-.33.8-.46,1.24.17.09.11.16.05.23.58.56,1.27,1.07,1.66,1.72,1.02,1.75.83,3.27-.44,4.49-.58.54-1.27.94-1.95,1.3-.76.49-1.83.4-2.17-.22-.27-.49-.54-1.03-.5-1.48.03-.81.17-1.7.59-2.33.83-1.26,1.85-2.3,2.81-3.47-.79-.29-1.55-.27-2.25-.48-.43-.18-1.01-.72-1.08-1.12-.38-2.2-.45-4.39.52-6.36,6.05-5.29,12.01-9.6,14.72-10.54.19-.05.46.13.72.27,1.77,3.77.07,6.77-2.03,9.68.54.31,1.01.67,1.44.99ZM47.39,405.23c-.62,1.62-1.75,2.65-3.24,3.23-.55.22-1.06-.09-1.37-.67.66-1.43,1.9-2.33,3.29-3.09.54-.27,1.03-.05,1.32.54ZM34.92,413.13c.44-.33.61-.83.94-.99.3-.14.96.05,1.25.31.26.23-.1.76-.74.76-.4.08-.82,0-1.24-.06-.09.54-.18.84-.61.96-.12.05-.34-.18-.51-.36.31-.12.63-.26.93-.43-.02-.07,0-.12-.02-.2ZM26.73,242.25c-.69-1.88-.79-3.72-.5-5.65.34-2.15.29-4.35.4-6.5.74-.89,1.74-.99,2.86-.76,1.11.31,2.12,1.35,2.23,2.29.14,1.07.35,2.24.32,3.27-.17,6.86-.39,13.72-.6,20.53-.09,2.19-1.08,3.5-3.31,3.67-.3.05-.58.81-.71,1.3-.23.85.05,1.12,1.34,1.65.51.23,1.07.31,1.54.59.93.49,1.46,1.79,1.22,2.87-.23,1.08-.8,1.88-1.9,2.24-.59-.58-1.21-1.12-1.88-1.7-.54.76-1.09,1.57-1.65,2.38q-.95-5.96-.2-18.61c.53-1.08,1.09-2.28,1.72-3.68-.25-1.16-.39-2.55-.87-3.9ZM31.36,186.34c-.7-.28-1.46-.36-2.17-.4-.25-.53-.72-1.12-.61-1.43.51-1.53,1.13-2.96,1.84-4.4.74-1.43,1.97-2.42,3.61-2.78,1.02.85,1.15,1.88.75,2.87-.39,1.03-.99,1.88-1.59,2.73-.69.98-1.59,1.89-1.79,3.21.83.3,1.58.38,2.32.47,2.19,3.81-.58,6.05-1.86,8.75.38,1.25.76,2.6,1.21,4.08-.69.67-1.34,1.43-2.15,2.11-.34.27-1.01.31-1.43.18-.4-.13-.96-.76-.97-1.12-.04-2.96.05-5.96.1-8.92.96-1.82,1.91-3.59,2.88-5.32-.05,0-.09,0-.13-.01ZM32.34,146.12c-.12-1.71.82-3,2.48-3.54.33-.09,1.06.27,1.32.58.29.4.43,1.08.33,1.57-1.25,5.25-.9,10.72-.77,16.14.01.54.29,1.12.17,1.62-.21.72-.5,1.61-1.06,2.02-.54.36-1.47.18-2.21.18-1.04-3.86-1.61-7.17-1.09-8.88.93-3.14,1.06-6.32.84-9.68ZM58.4,166.97c.67-2.51,1.01-3.27,1.07-4.08.2-2.69.34-5.47.45-8.2.1-2.69.03-5.47.19-8.2.07-1.12.78-2.02,1.85-2.56,1.36-.67,2.57-.54,3.71.9-.17,1.17-.41,2.46-.59,3.85-.05.54-.02,1.08.03,1.62.44,3.81.91,7.58,1.38,11.57.48-.4.96-.63.98-.9.19-2.15.29-4.35.44-6.55.17-2.74.29-5.47.52-8.21.11-1.21,1.31-2.24,2.78-2.56.64-.17,1.26-.04,1.37.54.5,2.69,1.1,5.34,1.25,8.03.23,3.81.46,7.67,1.32,11.44.24,1.03.13,2.15.17,3-1.23,2.06-3.05,2.47-5.21,2.78-.97-.58-2.08-1.26-3.22-1.93-.83.58-1.68,1.21-2.51,1.88-.86-.09-1.73.04-2.44-.27-2.07-.8-4.15-.8-6.34-.67-3.8.18-5.63-1.7-5.63-5.33,0-3.05.13-6.05.2-9.06.03-1.39.16-2.78.05-4.12-.07-.76-.47-1.53-.75-2.34-1.04.81-1.17,1.8-1.2,2.83-.08,4.13-.08,8.25-.16,12.38,0,1.08-.05,2.15-.27,3.23-.08.4-.72.9-1.09.94-2.45-.13-4.78-.67-6.87-2.2-.22-.13-.33-.49-.56-.76.17-3.23.39-6.41.52-9.73.1-3,.08-6.01.17-9.01.05-1.3,1.34-2.47,2.65-2.51,5.69,0,8.95.36,15.07,1.88-.31,7.17-.12,13.9.67,22.33ZM75.07,173.97c-.02.13-.05.27-.07.4-.12-.09-.25-.18-.36-.27.14-.05.29-.09.43-.13ZM71.48,188.63c1.13,2.74,1.11,2.83-1.55,5.11-1.65-2.24-1.21-3.72,1.55-5.11ZM69.31,175.54c.15-.63.62-.94,1.16-.63.34.18.53.67.75,1.03-.15.85-.94,1.66-1.46,1.52-.51-.13-.69-.94-.45-1.93ZM71.62,197.37c.24-.09.67-.13.77-.05.31.4.73.9.64,1.26-.2.76-.66,1.48-1.07,2.15-.35.58-.93.76-1.43.36-.36-.27-.52-.81-.79-1.21.24-1.12.79-2.01,1.88-2.51ZM71.2,206.74c.87-.09,1.67.09,1.98.94.46,1.35.47,2.74-.53,3.81-.32.4-.91.72-1.36.67-.35,0-.91-.49-1-.9-.39-1.57-.42-3.23.92-4.53ZM72.67,216.83c-.02.18-.03.36-.05.54-.15-.09-.31-.18-.47-.31.17-.04.34-.14.52-.22ZM72.56,223.47c.24-.27.87-.36,1.25-.23.49.14.62.72.22,1.17-.31.36-.81.49-1.23.72-.16-.14-.46-.27-.46-.4.01-.45-.02-1.03.23-1.26ZM60.15,224.1c-2.12,1.97-4.64,2.2-7.31,1.84-1.26-.18-1.69-.76-2.1-2.78-.05-.23-.11-.42-.16-.64-.09,0-.18.02-.27.01-.63-.15-1.43-.25-2.07,0-.72.27-1.29.9-1.87,1.39-1.78,1.66-3.75,1.61-6.08.4.23-.67.27-1.61.75-1.93,2.93-2.24,5.94-4.3,8.93-6.41.79-.53,2-.27,2.81.67.33.36.43.94.72,1.66-.99,1.3-2.04,2.73-3.09,4.08,1.44.16,2.54-.45,3.5-1.21,2.08-1.66,4.06-3.5,6.12-5.24,1.62-1.39,3.23-2.83,4.94-4.13.26-.18.92.09,1.45.18.93,2.69.83,5.25-.94,7.62-.22.31-.29.75-.36,1.18-1.08.1-1.75.6-1.72,1.78.89-.11,1.44-.59,1.69-1.38.73.13,1.48.26,2.36.53.18.67.52,1.39.56,2.06.04,1.21-.75,2.2-1.77,2.2-.99.05-2-.13-2.82-.22-.73-1.3.17-2.15.21-3.14-1.41-.13-2.51.63-3.47,1.48ZM64.87,198.85c-1.98-1.12-2.36-2.24-1.12-3.4.28-.23.86-.23,1.3-.18.12,0,.32.4.34.67.07.45.13.99.04,1.48-.09.49-.36.99-.56,1.43ZM66.49,204.32c.17.13.14.45.27,1.07-.22.45-.44,1.26-.91,1.84-.22.27-.91.23-1.39.23-.17,0-.41-.4-.42-.67-.05-.81-.12-1.66.06-2.38.08-.36.75-.81,1.15-.85.42,0,.89.45,1.25.76ZM61.73,192.04c-.2-.09-.48-.14-.62-.27-.13-.18-.28-.49-.24-.67.25-1.53,1.42-2.11,2.7-2.56.2-.05.52.05.72.18.14.09.29.45.23.58-.84,1.66-1.21,2.02-2.78,2.74ZM41.16,170.56c.48-.04,1.07,0,1.52.27.34.22.81.85.73,1.08-.54,1.52-1.86,2.42-3.18,3.23-.2.09-.51,0-.78-.04-.18-.09-.46-.22-.54-.4-.8-1.61.36-3.77,2.25-4.12ZM39.08,181.05c.83-.98,1.84-1.88,2.82-2.73.59-.54,1.28-.94,1.98-1.39,2.67-1.62,5.36-3.32,7.98-4.98.73.45,1.05,1.03.68,1.53-1.15,1.43-2.32,2.91-3.66,4.17-2.52,2.42-5.11,4.71-7.76,6.91-.51.4-1.41.36-2.1.54-.88-1.57-.81-2.92.06-4.04ZM38.49,192.58c4.4-4.98,8.93-9.69,14.74-13.23,2.72-1.7,5.03-3.99,7.58-6.01.48-.4,1.06-.18,1.37.31.12.22.17.45.16.72-.01.27-.04.58-.21.76-1.41,1.7-2.7,3.54-4.36,4.89-5.3,4.17-10.46,8.39-15.4,12.78-.98.89-2.17,1.34-3.51,1.34-.17-.36-.36-.58-.41-.81-.06-.27-.11-.58.04-.76ZM38.87,200.11c1.33-1.3,2.73-2.47,4.16-3.59,3.92-3.19,7.84-6.28,11.61-9.69,2.96-2.73,6.32-5.02,9.51-7.53.16-.09.46-.05.69-.05.13.45.5,1.12.32,1.44-.66,1.16-1.36,2.46-2.34,3.27-5.39,4.58-10.27,9.6-15.1,14.53-1.49,1.48-2.97,3-4.58,4.35-1.39,1.21-2.71,2.55-4.85,2.87-.29-.63-.82-1.35-.84-2.02-.03-1.39.44-2.74,1.44-3.59ZM39.2,210.06c1.26-2.11,2.95-3.38,5.17-4.03.1,0,.33.4.5.58-1.03,1.57-2.5,2.6-4.15,3.32-.37.23-.86.14-1.31.14-.05.68-.22,1.12-.8,1.21-.14.04-.59-.36-.57-.49.17-.58.61-.73,1.15-.59-.01-.05.02-.08,0-.13ZM37.91,216.97c3.94-3.09,7.57-6.55,10.99-10.31.52-.58,1.88-.72,2.17-.18.39.67.58,1.48.79,2.29.06.18-.04.49-.15.76-.22.5-.45.94-.76,1.39-3.12,4.21-7.28,6.99-12.06,8.74-.59.22-1.46-.27-2.4-.54.56-.85.85-1.66,1.42-2.15ZM36.77,228.58c.77-.09,1.83-.27,2.88-.18,3.52.27,7.05.49,10.55.9,1.58.23,3.09.94,5,1.53,1.44-.31,3.25-1.17,5.04-1.12,2.42,0,4.82.59,7.2,1.03.87.18,1.88,1.39,1.96,2.38.23,3.27.4,6.59.7,9.86.11,1.12.81,1.97,2.2,2.24.23-.67.7-1.44.66-2.11-.16-2.51-.53-4.93-.75-7.35-.1-1.08-.1-2.24.07-3.32.05-.4.72-1.08,1.02-1.03,1.86.27,3.64-.18,5.47-.36,1.49-.13,3.16,1.53,3.34,3.05.03.23.11.5.11.76.1,8.25.23,16.5.3,24.8,0,.72-.4,1.48-.61,2.2-1.27.4-2.25.04-3.13-.63-2.1.36-4.08.76-6.29.14-2.01-.58-4.29-.27-6.45-.36-2.17-.05-4.34-.13-6.49-.18-2.18-.09-4.35-.23-6.52-.4-2.17-.09-4.34-.23-6.49-.45-2.97-.36-5.95-.72-8.9-1.17-1.99-.4-3.3-2.24-3.26-4.39.01-.81-.04-1.61.1-2.42,1.14-6.23,1.05-12.51.44-18.88-.16-1.75.29-3.23,1.83-4.53ZM83.22,281.26c-.33-.13-.81-.31-.95-.63-.41-1.03-.17-1.97.79-2.69.84.81.92,1.79.64,2.82-.05.23-.4.54-.47.49ZM83.52,288.66c-.04.23-.28.63-.34.58-.47-.09-.6-.49-.38-1.08.06-.09.35-.09.53-.18.06.23.2.49.18.67ZM81.47,270.23c-.6-.13-.8-.76-.49-1.3.2-.36.69-.76.94-.72.61.09.77.67.55,1.3-.34.27-.73.8-1,.72ZM82.53,202.12c-.16-.63-.44-1.3-.47-2.01,0-.58.41-.94.8-.81.21.09.36.4.42.63.3,1.12.05,2.15-.76,2.2ZM82.03,193.74c-.76-.4-1.19-1.08-.99-1.93.09-.4.55-.85.93-1.17.62-.49,1.17.22,1.17,1.53-.02,1.25-.5,1.92-1.12,1.57ZM81.38,182.17c-.35.23-.56-.09-.45-.72.04-.18.26-.31.41-.49.09.18.16.4.25.63-.06.23-.07.54-.21.58ZM81.11,175.36c-.5.22-.92-.05-1.09-.67-.05-.18.05-.54.17-.58.6-.31.99-.09,1.14.54-.08.27-.09.67-.22.72ZM80.36,218.98c-.49,1.3-1.97,2.29-3.12,2.06-.17-.18-.45-.36-.5-.63-.41-1.75.8-3.32,2.45-3.27.67.05,1.4,1.21,1.17,1.84ZM80.22,166.66c-1.92-4.79-2.98-9.77-2.91-15.02.03-1.61-.46-3.18-.57-4.84-.02-.36.46-.99.85-1.12.59-.27,1.04.14,1.19.72.07.27.23.54.23.81.12,5.16.32,10.31,1.24,15.43.23,1.3-.01,2.73-.02,4.03ZM77.51,185.94c0,.85-1.04,1.79-1.51,1.44-.2-.13-.35-.4-.39-.67-.17-1.12.17-1.7.92-1.7.59.09.97.36.97.94ZM77.73,195.45c-.2.36-.82.36-1.27.58-.22-.36-.61-.76-.59-1.16.02-.81,1.06-1.3,1.56-.76.28.32.47,1.03.3,1.35ZM77.39,202.03c1.77,1.17,2.33,2.74,1.38,4.75-.59,1.21-1.46,2.15-3.01,1.52-.64-1.25-.43-2.64-.33-3.95.1-1.12.88-1.88,1.96-2.33ZM53.82,309.01c-1.72,1.26-3.3,2.6-4.94,3.95-2.75.67-5.38-.31-7.86-.4-.68-1.12-.21-1.75.3-2.2.68-.67,1.56-1.21,1.63-2.35-.89-.19-1.67-.28-2.31-.03-1.45.54-2.81,1.44-4.24,2.06-.51.23-1.02-.13-1.29-.72-.11-.27-.15-.58-.07-.8.18-.49.33-1.08.7-1.39,1.4-1.16,2.84-2.29,4.36-3.36,1.75-1.21,3.38-2.51,4.6-4.3.91-1.39,2.25-2.24,3.76-2.87.66-.27,1.79.05,2.15.63.45.81.63,1.62.13,2.29-.63.85-1.34,1.66-2.12,2.38-1.78,1.57-3.64,3.09-5.39,4.71-.28.27-.33.78-.43,1.21.89.12,1.72.19,2.24-.22,2.77-2.02,5.59-4.13,8.12-6.46,2.58-2.38,5.27-4.53,8.61-5.88,2.87-5.65,8.1-8.7,12.73-12.46,1.04-.85,2.08-1.79,3.79-1.61,1.31,2.24,1.54,4.44-.4,6.54-1.66,1.84-3.47,3.41-5.19,5.16-1.26,1.26-2.77,2.31-3.51,3.98-.88.22-1.47.8-1.73,1.7-.87.19-1.45.69-1.65,1.6-.96.16-1.58.66-1.68,1.67-.97.1-1.53.62-1.64,1.63-2.18.29-3.99,1.12-4.96,3.22-.92.28-1.61.76-1.74,1.81.94-.16,1.59-.69,1.79-1.67,1.09.08,2.05-.29,2.82-1.02.75-.72,1.44-1.49,2.15-2.25.84-.23,1.45-.73,1.68-1.63.91-.16,1.48-.68,1.64-1.61.95-.16,1.55-.69,1.68-1.66.87-.12,1.4-.62,1.57-1.46,1.43.09,2.49-.69,3.5-1.61,1.82-1.57,3.25-3.72,5.63-4.57.37-.18,1.11.13,1.39.45.27.36.18.99.14,1.52-.02.22-.23.49-.4.67-.56.59-1.09,1.21-1.72,1.75-7,5.65-14,11.26-20.53,17.44-.39.36-.95.72-1.43.67-.69-.05-1.36-.45-2.08-.72.9-1.62,1.67-2.96,2.45-4.35-.76.18-1.67.18-2.25.58ZM36.77,286.86c1.48-1.52,2.95-3.05,4.62-4.35,4.19-3.23,8.45-6.41,12.74-9.69.58-.39,1.44-.45,2.17-.61.12-1.08.21-2.18.13-3.24-.04-.45-.35-1.07-.74-1.34-.38-.23-1.12-.31-1.48-.09-.92.54-1.72,1.21-2.54,1.93-4.69,3.9-9.35,7.8-14.06,11.66-.39.27-.99.27-1.48.49-1.01-.94-.87-2.06-.34-2.96,1.23-2.06,3.09-3.5,5.08-4.89,3.92-2.65,7.76-5.47,10.61-9.19,1.09-.18,1.88-.49,2.64-.4,5.89.67,11.78,1.21,17.65,1.79,1.18.09,1.93.81,2.09,2.11-.94,1.9-2.14,3.61-4.43,4.13-.07.17-.11.26-.2.27-.17.73-.64,1.12-1.32,1.3-.03.11-.11.18-.13.31-.14.07-.29.09-.43.14-.1.13-.2.25-.3.4.06-.13.07-.31.17-.36.21-.15.29-.26.37-.36.13-.02.2-.1.32-.13.19-.7.57-1.19,1.32-1.3.02-.09.1-.12.11-.23-.01-.52-.1-1-.22-1.48-.68-2.47-2.13-3.23-4.05-2.01-1.37.85-2.65,1.88-4.05,2.69-1.41.85-2.99,1.15-4.63.72-.36.49-.55.96-.92,1.26q-2.94,2.64-4.63,6.9c-4.31,2.96-8.22,6.91-11.77,11.21-.66.79-1.02,1.66-1.03,2.71.17.07.17.15.16.23.77.06,1.41-.2,1.97-.7,2.13-1.97,4.24-3.94,6.41-5.87.79-.67,1.76-1.21,2.65-1.7.61-.45,1.64.27,1.63,1.12-.02.8-.11,1.61-.3,2.38-.13.49-.45,1.03-.82,1.35-4.14,3.72-8.29,7.35-12.49,10.94-.29.27-1.04.18-1.47,0-.61-.27-.78-.89-.46-1.39.82-1.39,1.77-2.6,2.49-4.03.31-.56.31-1.34.4-2.08-.2-.07-.16-.14-.16-.23-.92.12-1.84.21-2.78.25-.97-3.09-.5-5.6,1.52-7.62ZM35.39,269.87c1.13-2.06,3.95-5.25,5.65-6.19,1.19-.63,2.52-.41,3.65.58-.01.27.06.63-.06.81-1.71,2.6-5.23,6.1-7.57,7.53-.52.31-1.72-.45-1.74-1.17-.02-.53-.13-1.16.07-1.57ZM76.64,273.1c.28-.18.96.18,1.44.27.02.27.13.54.06.76-.17.49-.31,1.12-.69,1.43-3.62,3.14-7.27,6.37-10.98,9.42-.27.27-1.01.14-1.44-.04-.52-.23-.64-.81-.42-1.39.18-.5.33-1.08.69-1.44.93-.99,1.85-1.97,2.92-2.78,2.76-2.15,5.58-4.22,8.44-6.23ZM66.43,308.84c3.86-3.36,7.64-6.82,12.02-9.51.53-.36,1.06-.18,1.38.4.08.14-.07.54-.23.67-1.95,1.88-3.89,3.77-5.89,5.52-3.38,3.14-3.4,3.09-5.01,7.98-1.42,1.03-3.04,1.08-4.62.72-.61-.13-1.06-.99-1.78-1.7,1.46-1.43,2.72-2.87,4.12-4.08ZM79.44,305.88c.62.31.92.76.64,1.26-1.29,2.51-3.38,4.3-5.33,6.19-.53.45-1.5.31-1.98-.63,1.4-3.1,3.56-5.42,6.67-6.82ZM32.21,170.11c.27-.05.57.58.84.94-.34.4-.62.85-1.02,1.17-.5.4-1.1.36-1.26-.18-.15-.41-.13-1.08.1-1.39.27-.31.88-.59,1.34-.54ZM30.03,206.21c1.2-.31,1.99.31,2.78,1.61-.04,1.88.02,4.08-.13,6.19-.09,1.03-.38,2.15-.89,2.96-.94,1.57-.75,3-.05,4.62.2.45.02,1.07,0,1.66-.8,1.12-2.1,1.26-3.56,1.26-.18-.76-.56-1.57-.56-2.33.06-4.35.2-8.66.31-13,0-.23.07-.5.15-.76.34-.99.77-1.93,1.93-2.2ZM31.46,277.54c-.52.85-1.27,1.52-1.96,2.24-.14.14-.48.05-.73.09-.56-.05-.98-.36-1.09-.99-.2-1.12-.3-2.2.26-3.14.68-1.21,2.47-1.88,3.17-1.25.57.54.86,2.15.34,3.05ZM27.25,282.96c1.27-.72,2.54.09,3.82.31,1.86,3.1-1.01,5.07-1.28,7.89,2.36,4.3,2.09,8.88,1.25,13.45-.26,1.3-1.23,2.38-2.43,2.96-.36.18-.98-.09-1.49-.14-.78-10.99-.74-17.48.14-24.48ZM36.51,363.63c.27,0,.56.09.79.18.24.14.49.31.64.54.1.14.13.45.04.63-1.32,1.97-3.24,3.27-5.09,4.66-.16.13-.52,0-.82-.05-.28-.31-.87-.76-.84-1.12.22-2.33,2.81-4.62,5.28-4.84ZM31.7,375.15c.9-.9,1.79-1.84,2.78-2.74.79-.67,1.64-1.35,2.61-1.7,3.98-1.57,7.38-4.13,11.21-5.96.2-.13.55,0,.79.09.25.09.44.32.66.45-.19.49-.26,1.12-.59,1.43-1.83,1.53-3.67,3.1-5.63,4.44-3.28,2.24-6.62,4.35-10,6.46-.32.18-1.02-.05-1.45-.27-.68-.36-.87-1.66-.38-2.2ZM48.39,377.93c-4.73,3.45-9.7,6.54-14.6,9.64-.2.18-.52.05-.79.09-1.52-1.43-.91-2.96-.28-4.71,5.42-4.66,11.58-8.79,18.51-11.7.2-.07.45-.05.67-.04.1-.14.14-.2.22-.21.1-.81.61-1.2,1.36-1.33,0-.11.08-.15.08-.27.52-.64.73-1.39,1.17-1.97,1.18-1.44,2.63-1.66,4.24-.49-.91,1.39-2.56,1.57-3.85,2.33-.36.2-.86.16-1.32.14-.17.19-.22.25-.32.26-.07.82-.5,1.28-1.36,1.33.04,3.23-1.63,5.38-3.73,6.93ZM84.7,310.9c.22-.05.6.09.71.22.27.41.41.94.6,1.39-.16.23-.25.49-.46.63-.56.31-1.02.18-1.25-.31-.38-.89-.18-1.84.4-1.92ZM91.94,379.72c-.88,1.03-1.89,1.93-3.18,2.33-.98-.27-1.65-.94-1.39-1.75.92-3.1,1.69-3.81,4.76-5.02,1.21,1.52,1.06,3.05-.18,4.44ZM92.72,386.9c-.81,1.79-2.36,2.92-3.99,3.9-.48-.18-1.13-.22-1.38-.58-.26-.36-.31-1.08-.11-1.48.83-1.84,2.26-3.05,4.26-3.36.37-.05.86.4,1.22.72.13.13.11.58,0,.81ZM88.54,367.93c.76.04,1.84.72,1.67,1.12-.18.49-.45,1.03-.85,1.26-.61.4-1.36.58-2.01.85-.23-.31-.44-.45-.54-.67-.6-1.43.2-2.6,1.73-2.55ZM86.92,415.32c.93-1.03,2.08-1.75,3.45-1.97.21-.04.53.05.71.18.18.14.37.45.32.58-.51,1.3-1.11,2.55-2.52,3.05-.48.18-1.05.09-1.57.13-.2-.18-.57-.31-.58-.54-.02-.49-.06-1.12.2-1.44ZM94.61,397.57c-1.52,2.02-3.25,3.63-5.94,3.59-1.24-2.24-1.15-3.9.4-4.89,1.33-.9,2.77-1.61,4.09-2.42,1.92,1.16,2.39,2.47,1.44,3.72ZM90.9,306.46c.23,2.15.49,4.35.57,6.55.29,9.32,1.85,18.61,1.59,27.93,0,.81-.18,1.62-.29,2.51-.97-.27-.76-1.08-.8-1.66-.33-4.08-.35-8.16-1.23-12.24-.85-3.99-.79-8.16-1.32-12.24-.65-4.93-.53-9.91-.6-14.84,0-.45.4-.9.6-1.39.33.45.79.81.88,1.3.29,1.3.47,2.69.61,4.08ZM88.91,293.73c-.48.18-.91-.13-1.01-.67-.02-.13.31-.49.45-.49.4,0,.79.13,1.24.27-.23.31-.39.76-.67.9ZM89.11,273.23c-.06.85-.13,2.2-.26,3.54-.03.18-.42.54-.52.54-.38-.18-.99-.45-.99-.63-.07-2.96-.04-5.92,0-8.83,0-.22.26-.5.48-.63.32-.27.8,0,.9.67.2,1.57.24,3.23.39,5.33ZM86.07,224.32c-.01,3.01.19,5.92.75,8.92.64,3.46.65,7.04.73,10.58.11,6.05-.01,12.02,1.01,17.98.09.5-.28,1.03-.51,1.75-.59-.54-1.53-.99-1.6-1.52-.4-2.69-.65-5.43-.76-8.12-.15-3.81.21-7.62-.64-11.43-.33-1.57-.06-3.32-.09-4.89-.08-4.39-.2-8.74-.24-13.14,0-.76.31-1.57.62-2.91.36,1.3.74,2.02.73,2.78ZM75.34,115.1c.23-.9,1.06-1.08,1.9-1.08,1.08,4.08,1.15,5.25.39,8.65-.16.63-.67.89-1.3.58-.42-.22-1.04-.49-1.16-.85-.7-2.47-.42-4.89.18-7.31ZM68.25,75.19c.18,1.53-.75,3.23-1.77,3.37-1.51.18-2.61-.63-3.43-1.75-.82-1.12-.81-2.56-.8-3.9.03-1.21.41-2.15,1.31-2.91,2.2-.31,3.59.67,4.22,2.78.23.81.38,1.62.47,2.42ZM66.28,62.95c.37.27.56.81.81,1.21.15.85-.6,1.48-1.45,1.17-.25-.09-.56-.14-.65-.31-.25-.4-.54-.9-.51-1.35.02-.63,1.26-1.12,1.8-.72ZM51,44.97c2.13.09,4.27.18,6.49.22,2.38,1.12,4.66,2.55,6.29,4.76.4.58.4,1.52.44,2.33.04.63-.99,1.48-1.66,1.52-1.07.13-2.16.27-3.22.4-3.49.31-6.99.45-10.48.54-1.4.05-2.46-1.21-2.35-2.74.25-3.18,1.43-5.74,4.48-7.04ZM56.5,70.62c.5.04,1.03.31,1.39.67,1.04.94,1.27,4.26.31,5.25-1.13,1.17-2.5,1.88-4.2,1.75-.22,0-.47-.13-.64-.31-.2-.18-.39-.45-.42-.67-.12-.76-.21-1.57-.24-2.38-.03-1.08.02-2.15.02-2.82,1.13-1.57,2.45-1.66,3.77-1.48ZM54.12,62.73c1.25-.4,2.52-.4,3.73.27.52.31.81.76.59,1.3-.17.45-.49.99-.85,1.08-1.52.45-3.04.58-4.3-.72-.05-.81-.02-1.66.83-1.93ZM46.14,62.46c1.52-.54,2.62.05,2.93,1.48-.21.36-.38,1.03-.68,1.12-1.06.18-1.98-.31-2.57-1.3-.35-.63-.22-1.08.31-1.3ZM44.69,72.1c.27-.85,1.34-1.44,2.52-1.25,1.21.22,2.18,1.03,2.22,2.02.06,1.57-.03,3.14-.04,4.44-.94,1.12-1.88,1.3-3,1.08-.93-.18-1.47-.85-1.71-1.57-.52-1.52-.51-3.18,0-4.71ZM44.48,92.23c.13-.67.81-1.26,1.21-1.84,4.73-.58,9.3-.31,13.84.76,2.35.54,4.77.76,7.14,1.25.44.09.8.63,1.15,1.03.16.18.24.5.24.76.09,3.01.56,6.01,1.2,8.92.15.63-.91,1.79-1.51,1.66-2.12-.58-4.16-.81-6.3.13-1.27.58-2.66.27-3.94-.31-1.7-.76-3.42-1.66-5.13-2.51-2.99.18-4.92,1.61-7.43.45-1.4-3.32-1.13-6.81-.47-10.31ZM33.08,117.47c.06-1.08.23-2.15.43-3.18.25-1.39,1.44-2.33,2.84-2.28,2.14-.04,4.28,0,6.93-.04,1.3.63,3.02,1.43,4.76,2.29,1.17-.59,2.34-1.26,3.71-1.93.53.49,1.37.85,1.62,1.48.5,1.25.53,2.69,1.03,3.9.26.72,1.12,1.08,1.67,1.62,1.73-1.21,1.08-3.09,1.61-4.62.37-1.08,1.21-1.79,2.25-2.2,1.58-.58,3.57.4,3.95,1.89.32,1.34.46,2.64.84,3.99.48,1.75,1.11,3.43,1.68,5.17,1.07-.55,1.58-1.36,1.72-2.35.37-2.42-.48-4.8.4-7.22.23-.58.65-.9,1.14-.67.46.22.97.45,1.23.85.27.4.36.99.36,1.52-.02,2.15-.11,4.26-.18,6.37-.02.27-.16.54-.31.99-.46.4-.94,1.16-1.62,1.48-.95.39-1.99.34-2.48-.9-.07.06-.11.13-.18.19-.03-.09-.06-.17-.08-.26-2.08.13-4.18.34-6.25.26-7.01-.5-13.97-.85-20.97-.13-4.82.36-6.37-.54-6.1-6.19ZM22.86,135.5c-.85-.09-1.45-.67-1.78-1.48-.34-.9.22-2.64.98-2.82,1.79-.36,3.59-.99,5.42-1.08,7.46-.31,14.93-1.03,23.32.04,4.88-.36,10.48.27,16.09,1.17,3.19.49,6.45.27,9.65-.31,3.49-.72,6.96-.81,10.46-.49.96.09,1.92,1.25,1.92,2.24-.02,1.08-.95,2.24-1.89,2.42-.53.09-1.07.31-1.59.31-4.04-.09-8.08-.13-12.1-.45-2.71-.22-5.33-.13-8.02.58-4.76,1.21-9.61,1.3-14.43.31-1.63-.31-3.15-.49-4.79-.31-1.83.27-3.75.09-5.62-.09-4.58-.45-9.13-.94-13.6.18-1.21.31-2.66-.09-4-.23ZM21.1,351.7c-.03-2.2-.03-4.49.43-6.55,1.58-6.64,1.32-13.54,1.75-20.4.14-2.42.13-4.93.2-7.49,2.13,1.08.77,3.05,1.81,4.31.2,0,.53.18.58.09.99-1.48,1.93-3.05,2.9-4.53.89,0,1.73.36,1.85,1.21.15,1.08.07,2.2-.12,3.27-1.27,6.68-1.47,13.54-1.24,20.45.18,4.98.14,9.87-.55,14.08-1.08,1.93-2.69,1.48-3.76,1.97-.3.49-.72.94-.79,1.44-.21,1.61-.07,3.32-.51,4.84-.91,3.14-1.46,6.28-1.06,9.69.15,1.34-.19,2.73-.95,3.86-.82.27-1.92,0-1.83-.85.98-8.34,1.42-16.86,1.28-25.38ZM26.5,412c.2.63-.48,1.39-1.39,1.57-.64.14-1.19-.18-1.25-.76-.38-3.5-.32-7.04,0-10.54.04-.49.36-1.03.72-1.35.36-.27.9-.63,1.37-.63.33,0,.85.63.96,1.03.44,1.61.39,3.23-.39,4.71-.38.67-.8,1.35-1.34,2.29.58,1.61,1,2.64,1.32,3.67ZM26.15,393.26c-.11.18-.49.18-.72.18-.61-.09-.94-.49-.72-1.08.39-.94.88-1.79,1.39-2.69.06-.04.54-.09.68,0,.33.31.59.72,1.05,1.3-.52.72-1.08,1.52-1.68,2.29ZM26.62,383.53c-.14.14-.5.14-.65.05-.2-.18-.41-.45-.46-.68-.1-.53-.1-1.12-.15-1.66.08-.54.16-1.03.28-1.57.16-.67.61-1.03,1.15-.76.44.22.95.67,1.06,1.12.4,1.48-.12,2.6-1.23,3.5ZM26.15,373.22c-.07-.18.03-.49.13-.67.05-.09.26-.09.39-.13.05.23.19.54.16.67-.13.76-.44.81-.68.14ZM19.67,385.64c.05-.89.79-1.12,1.66-.89,1.19,3.99-.46,7.26-1.47,11.12-.28-.85-.51-1.21-.5-1.52.07-2.92.13-5.83.32-8.7ZM19.77,406.44c.12.18.12.54.07.76-.05.18-.28.27-.43.45-.11-.27-.3-.54-.28-.76.04-.85.31-.99.65-.45ZM111.3,426.22c-.28.36-.56.9-.97,1.08-1.53.63-3.08,1.62-4.64,1.66-6.27.31-12.45,2.2-18.79,1.21-1.83-.27-3.88.49-5.67.18-2.77-.59-5.35-.23-8.06.22-2.97.45-6.01.41-9.01.63-2.72.13-5.46.31-8.19.31-1.64,0-3.27-.13-4.91-.31-6-.63-12.01-1.21-18-.54-1.08.09-2.19.04-3.29,0-7.12-.23-14.13.04-21.11.54-1.28.04-2.75-1.53-2.59-2.83.13-1.39.3-2.69.74-3.9.23-.67.98-1.39,1.65-1.52,2.9-.4,5.83-.63,8.77-.99,4.42,1.34,8.6-.13,12.9-.13,3.3-.13,6.5.13,9.78.85,2.93.63,5.95,1.03,8.95,1.17,6.56.45,13.13.58,19.7.67,2.76,0,5.45.36,8.31,1.48,4.26-1.26,8.04-1.84,11.9-1.34,1.93.27,3.86.22,5.7-.41,5.2-1.66,10.28-1.12,15.34.31,1.11.31,1.85,1.08,1.48,1.66Z"/>
      <path class="cls-1" d="M84.48,337.53c-.88,4.75-.94,5.2-.08,8.61.19.72.85,1.21,1.96.76.03-2.28.11-4.75.03-7.13-.05-1.12-.66-2.01-1.91-2.24Z"/>
      <path class="cls-1" d="M73.89,251.62c.53-.09,1.03-.31,1.55-.45,1.12.49,1.29,2.51,3.09,2.06q.87-3.67-1.41-5.42c-1.29.49-2.57.89-3.75,1.48-.32.13-.46.94-.45,1.39,0,.67.46,1.03.97.94Z"/>
      <path class="cls-1" d="M77.43,241.58c.19-.8.46-1.61.49-2.42.03-.76-.06-1.57-.26-2.38-.14-.49-.53-.9-.86-1.3-.17-.22-.59-.45-.69-.36-.33.27-.89.67-.85.94.22,1.61.51,3.18.93,4.75.08.31.74.45,1.23.76Z"/>
      <path class="cls-1" d="M24.49,354.57c.04.23.29.36.53.72.28-.85.66-1.57.78-2.33.26-1.84.36-3.72.66-5.56.77-5.06.73-5.56-1.35-12.01-.81,1.16-.73,2.55-.73,3.81,0,5.11-.63,10.18.11,15.38Z"/>
      <path class="cls-1" d="M25.69,330c.49-.9.98-1.79,1.36-2.74.24-.58-.63-1.66-1.35-1.75-.54-.13-.92.18-1.08.76-.33,1.34-.41,2.64.33,3.94.26-.04.64-.09.74-.22Z"/>
    </g>
  </g>
</svg>