<?xml version="1.0" encoding="UTF-8"?>
<svg id="Layer_2" data-name="Layer 2" xmlns="http://www.w3.org/2000/svg" viewBox="0 0 303.9 296.41">
  <defs>
    <style>
      .cls-1 {
        fill: #284268;
      }
    </style>
  </defs>
  <g id="Layer_1-2" data-name="Layer 1">
    <g>
      <rect class="cls-1" x="216.93" y="183.91" width="19.33" height="31.85"/>
      <path class="cls-1" d="M149.81,56.02c0-3.17-2.31-4.29-4.29-4.29s-4.29,1.12-4.29,4.29v4.74h8.59v-4.74Z"/>
      <path class="cls-1" d="M149.81,93c0-3.17-2.31-4.29-4.29-4.29s-4.29,1.12-4.29,4.29v4.74h8.59v-4.74Z"/>
      <path class="cls-1" d="M120.89,71.94h49.69l-3.28-30.7h-43.24l-3.16,30.7ZM135.02,56.02c0-6.89,5.28-10.5,10.5-10.5s10.5,3.61,10.5,10.5v7.84c0,1.71-1.39,3.1-3.1,3.1h-14.79c-1.71,0-3.1-1.39-3.1-3.1v-7.84Z"/>
      <path class="cls-1" d="M117.08,108.92h57.45l-3.29-30.77h-50.99l-3.17,30.77ZM135.02,93c0-6.89,5.28-10.5,10.5-10.5s10.5,3.61,10.5,10.5v7.84c0,1.71-1.39,3.1-3.1,3.1h-14.79c-1.71,0-3.1-1.39-3.1-3.1v-7.84Z"/>
      <polygon class="cls-1" points="125.24 35.04 165.78 35.04 145.51 0 125.24 35.04"/>
      <rect class="cls-1" x="54.77" y="183.91" width="19.33" height="31.85"/>
      <path class="cls-1" d="M132.68,188.88v26.88h25.66v-26.88c0-7.09-5.74-12.83-12.83-12.83s-12.83,5.74-12.83,12.83Z"/>
      <path class="cls-1" d="M149.81,129.97c0-3.17-2.31-4.29-4.29-4.29s-4.29,1.12-4.29,4.29v4.74h8.59v-4.74Z"/>
      <path class="cls-1" d="M210.73,215.76v-62.49H80.3v62.49h46.18v-26.88c0-10.51,8.52-19.03,19.03-19.03s19.03,8.52,19.03,19.03v26.88h46.18Z"/>
      <path class="cls-1" d="M41.82,239.38c9.72.56,14.86,6.42,19.43,11.64,4.5,5.13,8.38,9.57,16.27,9.57s11.78-4.43,16.27-9.57c4.79-5.48,10.23-11.68,20.94-11.68s16.14,6.21,20.94,11.68c4.49,5.13,8.38,9.57,16.27,9.57s11.78-4.43,16.27-9.57c4.79-5.48,10.23-11.68,20.94-11.68s16.14,6.21,20.94,11.68c4.5,5.13,8.38,9.57,16.28,9.57s11.78-4.43,16.27-9.57c2.53-2.89,5.24-5.98,8.8-8.25l-13.75-20.81H53.34l-11.51,17.42Z"/>
      <path class="cls-1" d="M113.16,147.07h65.45l-3.42-31.95h-58.75l-3.29,31.95ZM135.02,129.97c0-6.89,5.28-10.5,10.5-10.5s10.5,3.61,10.5,10.5v7.84c0,1.71-1.39,3.1-3.1,3.1h-14.79c-1.71,0-3.1-1.39-3.1-3.1v-7.84Z"/>
      <path class="cls-1" d="M300.79,268.03c-7.9,0-11.78-4.43-16.27-9.57-4.8-5.48-10.23-11.68-20.94-11.68s-16.14,6.21-20.94,11.68c-4.49,5.13-8.38,9.57-16.27,9.57s-11.78-4.43-16.27-9.57c-4.79-5.48-10.23-11.68-20.94-11.68s-16.14,6.21-20.94,11.68c-4.5,5.13-8.38,9.57-16.27,9.57s-11.78-4.43-16.27-9.57c-4.8-5.48-10.23-11.68-20.94-11.68s-16.14,6.21-20.94,11.68c-4.49,5.13-8.38,9.57-16.27,9.57s-11.78-4.43-16.27-9.57c-4.8-5.48-10.23-11.68-20.94-11.68s-16.14,6.21-20.94,11.68c-4.49,5.13-8.38,9.57-16.27,9.57-1.71,0-3.1,1.39-3.1,3.1s1.39,3.1,3.1,3.1c10.71,0,16.14-6.21,20.94-11.68,4.49-5.13,8.38-9.57,16.27-9.57s11.78,4.43,16.27,9.57c4.8,5.48,10.23,11.68,20.94,11.68s16.14-6.21,20.94-11.68c4.49-5.13,8.37-9.57,16.27-9.57s11.78,4.43,16.27,9.57c4.8,5.48,10.23,11.68,20.94,11.68s16.14-6.21,20.94-11.68c4.49-5.13,8.38-9.57,16.27-9.57s11.78,4.43,16.27,9.57c4.8,5.48,10.23,11.68,20.94,11.68s16.14-6.21,20.94-11.68c4.5-5.13,8.38-9.57,16.27-9.57s11.78,4.43,16.27,9.57c4.8,5.48,10.23,11.68,20.94,11.68,1.71,0,3.1-1.39,3.1-3.1s-1.39-3.1-3.1-3.1Z"/>
      <path class="cls-1" d="M300.79,290.21c-7.9,0-11.78-4.43-16.27-9.57-4.8-5.48-10.23-11.68-20.94-11.68s-16.14,6.21-20.94,11.68c-4.49,5.13-8.38,9.57-16.27,9.57s-11.78-4.43-16.27-9.57c-4.79-5.48-10.23-11.68-20.94-11.68s-16.14,6.21-20.94,11.68c-4.49,5.13-8.38,9.57-16.27,9.57s-11.78-4.43-16.27-9.57c-4.8-5.48-10.23-11.68-20.94-11.68s-16.14,6.21-20.94,11.68c-4.49,5.13-8.38,9.57-16.27,9.57s-11.78-4.43-16.27-9.57c-4.8-5.48-10.23-11.68-20.94-11.68s-16.14,6.21-20.94,11.68c-4.49,5.13-8.38,9.57-16.27,9.57-1.71,0-3.1,1.39-3.1,3.1s1.39,3.1,3.1,3.1c10.71,0,16.14-6.21,20.94-11.68,4.49-5.13,8.38-9.57,16.27-9.57s11.78,4.43,16.27,9.57c4.8,5.48,10.23,11.68,20.94,11.68s16.14-6.21,20.94-11.68c4.49-5.13,8.37-9.57,16.27-9.57s11.78,4.43,16.27,9.57c4.8,5.48,10.23,11.68,20.94,11.68s16.14-6.21,20.94-11.68c4.49-5.13,8.38-9.57,16.27-9.57s11.78,4.43,16.27,9.57c4.8,5.48,10.23,11.68,20.94,11.68s16.14-6.21,20.94-11.68c4.5-5.13,8.38-9.57,16.27-9.57s11.78,4.43,16.27,9.57c4.8,5.48,10.23,11.68,20.94,11.68,1.71,0,3.1-1.39,3.1-3.1s-1.39-3.1-3.1-3.1Z"/>
    </g>
  </g>
</svg>