<?xml version="1.0" encoding="UTF-8"?>
<svg id="Layer_2" data-name="Layer 2" xmlns="http://www.w3.org/2000/svg" viewBox="0 0 153.27 503.66">
  <defs>
    <style>
      .cls-1 {
        fill: #613b27;
        fill-rule: evenodd;
      }
    </style>
  </defs>
  <g id="_Layer_" data-name="&amp;lt;Layer&amp;gt;">
    <g>
      <path class="cls-1" d="M152.49,493.92c-.14-2.35-.05-4.76.03-7.11.09-3.12-1.08-5.68-3.51-7.78-.39-.31-.79-.66-1.24-.92-1.98-1.33-2.91-3.17-2.89-5.42.07-3.17-.46-6.35-1.13-9.42-.28-1.27-.46-2.66-.47-3.94-.14-5.22-.2-10.49-.25-15.76-.11-9.16.69-18.32.14-27.58-.15-2.65.38-5.22,1.04-7.73.14-.46.46-.92.7-1.33,1.22-.92,2.43-1.85,3.63-2.77,1.1-4.09,2.16-8.13,3.19-12.12.12-.51.01-1.02.01-1.48-3.82-5.89-5.72-8.35-12.56-8.3-.24.05-.5-.1-.75-.2-1.08-.3-1.81-1.07-2.33-2.04-.26-.46-.47-.98-.56-1.49-.81-5.16-1.58-10.44-2.43-15.65-.63-3.84-1.3-7.78-2-11.61-.29-1.59-.77-3.12-.99-4.65-.75-5.48-1.79-10.9-1.79-16.48-.03-2.09-.47-4.14-.72-6.23-.68-5.99-1.93-11.93-2.13-18.01-.07-2.1-.41-4.14-.69-6.25-1.17-8.13-2.04-16.16-2.56-24.3-.25-3.68-.51-7.32-1.12-10.94-.86-4.97-1.45-9.87-1.81-14.83-.63-8.14-1.27-16.27-1.39-24.36-.17-8.69-1.83-17.19-2.24-25.78-.05-1.07-.46-2.04-.67-3.07-.2-1.02-.52-2.09-.51-3.12.19-7.41-2.05-14.53-1.99-21.88.01-1.54-.72-3.07-1.04-4.66-.81-4.04-2.41-8.08-2.36-12.28-1.24-3.27-.84-6.75-1.38-10.12-1.04-6.14-1.93-12.38-2.84-18.62-.11-.72.06-1.49.11-2.3,3.04-5.12,6.06-10.24,9.1-15.4-.56-3.17-1.01-6.29-1.64-9.36-.59-2.97-3.07-4.96-6.13-5.12-1.29-.05-2.57.05-3.9.05-1.01-.05-2.06-.1-3.1-.15-1.13-.05-2.37-1.43-2.46-2.66-.03-.51-.15-1.07-.11-1.59.52-4.91.3-9.92.27-14.84-.02-.82,0-1.58.11-2.4.26-1.89.93-3.53,2.69-4.45,2.05-.31,4.09-.62,5.88-.82,2.13-1.59,4.03-2.96,5.9-4.3.87-.66,1.1-2.3.61-3.68-.46-1.33-1.49-1.94-2.97-1.79-.75.1-1.5.15-2.15.2-2.14-2.15-4.15-4.2-6.2-6.19-2.62-2.66-5.16-5.27-6.92-8.49-1.92-3.54-4.34-6.5-7.3-9.16-1.75-1.53-3.36-3.22-5.01-4.91-1.47-1.49-2.73-3.12-3.7-5.73.11-5.63.12-11.92,1.03-18.11.35-2.35-.17-3.27-2.38-4.29-1.14-.57-2.85.31-3.02,1.54-.17,1.27-.32,2.61-.33,3.89-.01,6.24,0,12.53.01,18.46-2.19,4.3-4.84,7.67-8.86,9.98-1.1.61-2.13,1.49-2.95,2.51-5.04,5.98-11.43,10.49-16.86,15.5-1.85.61-3.31,1.07-4.74,1.48-.81,1.18-1.59,2.21-2.27,3.33-.83,1.33-1.61,2.66-2.36,3.99-.67,1.18.42,3.53,1.79,3.79,1.01.26,2.03.41,3.05.46,3.37.05,6.76,0,10.11.1.78,0,2.09,1.18,2.24,1.95.12.51.29,1.02.32,1.48.4,6.55-.03,13.04-.51,19.54-.13,1.95-.46,4.14-1.85,5.93-1.61.82-3.46.77-5.23,1.13-2.28.36-4.61.61-6.9.97-1.27.26-2.55.56-3.72,1.03-1.01.36-1.73,1.17-1.73,2.35-.03,3.89.02,7.77.04,11.66,0,.51.13,1.02.19,1.53.11.92.95,1.89,1.98,2.2.49.1,1.04.05,1.52.15,2.64.62,4.46,2.41,4.35,4.81-.17,3.38.46,6.7,1.01,9.62-.89,4.71-2.14,9-2.36,13.4-.27,5.73-.79,11.36-1.8,16.99-.19,1.03-.29,2.05-.32,3.07-.15,6.24-1.18,12.38-2.47,18.46-.47,2.26-.73,4.6-.69,6.96.21,12.17-.99,24.35-1.68,36.53-.39,6.45-1.19,12.84-1.47,19.34-.43,9.06-1.75,18.06-1.67,27.16.01.78.01,1.59-.17,2.36-1.35,5.27-1.12,10.8-1.48,16.16-.37,6.25-.82,12.44-1.26,18.63-.06.77-.09,1.59-.29,2.31-.88,3.58-.93,7.21-1.14,10.84-.12,2.31-.18,4.6-.49,6.91-.91,6.65-1.13,13.45-1.19,20.2-.03,2.05-.14,4.1-.38,6.2-.47,3.78-1.06,7.67-1.63,11.71-.55,1.12-1.19,2.51-1.78,3.68.63,1.43,1.14,2.71,1.64,3.84-.43,2.41-.84,4.6-1.23,6.7-2.84,2.51-6.22,1.17-9.33,1.78-.57.31-1.26.66-1.94,1.03-2.33,1.17-3.21,3.21-3.14,5.72.07,3.58.41,7.21.66,10.85.06,1.07.39,2.05,1.18,2.91,1.07.61,2.18,1.28,3.25,1.84.11.37.25.57.26.82.38,4.1,2.25,8.19.73,12.38-.16.41.03.97.12,1.43.77,3.64.57,7.27.65,10.9.07,4.92.37,9.88.55,14.74,1.21,3.83,1.01,7.72,1.01,11.61,0,6.24-.72,12.38-1.69,18.47-.07.52-.49.92-.75,1.39-1.66,1.02-3.5.31-5.3.31-2.45-.1-4,1.07-4.6,3.17-1.56,5.52-1.71,11.2-1.71,16.88.03,1.08.29,2.15.67,3.07.63,1.54,1.76,2.82,3.48,2.97,3.1.26,6.26.87,9.23-.36.44-.2,1.02-.2,1.53-.15,7.33.2,14.47-1.49,21.84-.87,2.85.25,5.73.16,8.61.2,2.34,0,4.69.05,7.04,0,2.08-.04,4.17-.2,6.25-.15,3.66.12,7.29,0,10.91-.51,1.54-.15,3.16-.56,4.66-.15,4.95,1.13,9.89-.36,14.82.98,5.96-.41,11.91-.27,17.95.56,4.42.56,8.88.36,13.33.41,4.95.05,9.9.05,14.82-.56,3.62-.47,7.25-.31,10.91.61,3.11.77,5.6-.36,7.2-2.92-.31-2.31-.69-4.35-.78-6.45ZM125.71,382.03c.35.1.66.66.81,1.07.2.57-.12,1.03-.69,1.24-1.53.56-3.07.4-4.56-.1-1.01-1.59-1.04-2.26-.17-2.41,1.54-.41,3.1-.36,4.61.2ZM120.85,375.58c.49-.09.99-.15,1.46-.05.41.1.82.42,1.13.78.37.41-.59,1.38-1.38,1.43-.45-.2-.99-.26-1.32-.51-.29-.31-.39-.87-.47-1.28-.02-.11.37-.32.58-.37ZM119.41,370.82c-.26-.41-.49-.86-.66-1.38-.34-1.07-.35-2.1.53-2.82,1.06-.92,2.38-.97,3.56-.31.55.26.79,1.18,1.15,1.78-.14.88-.15,1.7-.39,2.41-.22.72-.67,1.34-1.55,1.48-1.13.16-2.13-.2-2.65-1.18ZM123.53,360.81c-1.01.86-2.31.92-3.59,1.07-.98-.51-1.85-1.13-1.99-2.31-.15-1.22-.13-2.5-.09-3.83.05-.92,1.28-1.74,2.28-1.48,1.23.31,2.44.82,3.36,1.13,1.54,2.15.97,3.73.03,5.43ZM123.38,345.91c.14,1.03.23,2.05.25,3.07,0,.88-1.01,1.8-1.98,2.05-2.24.4-4.22-.72-4.81-2.77-.2-.77-.28-1.53-.33-2.3-.06-1.03.79-2,1.77-2.1.49-.1.99-.15,1.51-.15.5.05,1.02.1,1.52.2.95.15,1.94,1.07,2.06,1.99ZM121.98,335.58c.2.77.29,1.58.22,2.35-.08.78-.51,1.39-1.29,1.74-1.23.51-2.45.61-3.77.2-1.41-1.13-1.35-2.71-1.33-4.29,0-1.03.21-2.05,1.26-2.66.71,0,1.49,0,2.25.1,1.39.26,2.32,1.12,2.67,2.56ZM119.52,328.11c-.92-.2-1.96-.2-2.87-.66-.63-.32-1.27-.98-1.52-1.59-.64-1.68-.89-3.53.35-5.06,2.01-.4,3.45.67,4.52,2.14.95,1.39.69,2.97-.49,5.17ZM109.92,355.17c.11-.72.48-1.33,1.25-1.63.78-.21,2.28.51,2.59,1.27.09.2.21.51.27.72.51,1.79.55,3.53.11,5.28-.14.51-1.01,1.22-1.64,1.27-1.05.05-2.19-.61-2.33-1.59-.22-1.23-.34-2.5-.43-3.33.08-.97.11-1.48.19-1.99ZM109.72,348.11c-.06-.51-.12-.97-.19-1.73.17-.52.4-1.19.68-1.85.24-.56,1.5-.46,1.9,0,1.07,1.38,1.02,2.92.66,4.4-.09.36-.63.72-1.06.87-.61.27-1.66-.36-1.82-.92-.07-.25-.14-.51-.17-.76ZM111.47,366.68c.17-.31.77-.41,1.19-.56.53-.26.92.1,1.25.61.7,1.17.84,2.36.49,3.53-.12.46-.43.97-.8,1.18-.37.15-.93,0-1.46-.05-1.26-1.38-1.54-3.01-.67-4.7ZM113.64,375.43c.54.15.76.57.66,1.08-.13.81-.86,1.22-1.49.76-.35-.2-.66-.71-.73-1.12-.13-.52.79-.98,1.57-.73ZM114.48,381.37c.84.15,1.27.66,1.21,1.48-.08.93-.57,1.44-1.36,1.39-1.17-.1-1.97-.78-2.03-1.75-.05-.86,1-1.43,2.18-1.12ZM119.49,314.24c.59,1.02.64,2.09-.05,2.87-.57.56-1.27.77-2.08.41-.71-.26-1.43-.51-2.1-.82-1.12-2.31-1.1-2.31.24-3.99,1.63-.32,3.02-.05,3.99,1.53ZM116.99,308.71c-1.29.22-2.44-.76-2.62-2.04-.17-1.22.84-2.25,2.3-2.25,1.11,0,2.01.62,2.15,1.65.21,1.38-.55,2.51-1.82,2.65ZM117.16,294.19c.97,1.89,1.24,3.94,1.21,5.98-.64,1.02-1.53,1.24-2.64.92-1.04-.2-2.01-.72-2.3-1.84-.43-1.43-.59-2.97-.77-4.5-.09-.87,1.09-1.95,1.97-1.95,1.09,0,2.04.46,2.53,1.39ZM115.09,288.61c-.97.46-1.84.36-2.67-.41-.57-.51-.46-1.38.24-1.84,1.26-.72,2.27-.42,2.84,1.07.09.15.08.4.11.66-.17.15-.32.41-.52.51ZM115.52,278.07c.13,1.59-.46,2.51-1.76,2.76-1.29.2-2.41-.71-2.56-2.05-.18-1.53.49-2.65,1.73-2.8,1.45-.06,2.49.71,2.59,2.09ZM113.6,267.53c.31,1.03.3,2.05-.59,2.77-.17.15-.41.31-.65.36-.21.05-.49.05-.69,0-1.58-.72-2.31-3.07-1.38-4.6.2-.36.83-.41,1.26-.56,1.13.26,1.75,1.07,2.05,2.04ZM112.33,260.74c-.11.2-.32.36-.49.51-1.48.31-2.38-.41-2.93-1.75.08-.25.08-.51.22-.71,1.06-1.33,2.25-1.69,3.05-.82.69.66.73,1.58.15,2.77ZM84.42,137.65c2.55-.06,5.09-.16,7.63-.06,1.93.06,2.62,1.02,2.72,3.68-.19.15-.35.41-.58.46-3.27.97-6.5.31-9.71-.51-.4-.11-.72-.72-.98-1.12-.53-.82.07-2.45.92-2.45ZM83.2,133.75c-.42-.76-.89-1.38-1.19-2.1-.26-.61.46-1.78,1.01-1.84,3.08-.46,6.18-.46,9.09,0,1.11.77,1.46,1.69,1.49,2.82,0,.92-.6,1.38-1.37,1.94-2.9-.15-6,.31-9.03-.82ZM93.05,125.93c-5.46.2-11.1.97-16.85.15-3.32-.51-6.73-.15-10.07-1.02-1.19-.31-2.56.1-3.83.15-2.58.15-5.18.36-7.77.36-1.34,0-2.42-.87-3.22-1.94-1.12-1.54-1.75-3.28-1.58-5.17.11-1.22.46-2.5.67-3.63,1.13-.46,1.82.05,1.9.82.15,1.54.05,3.07.05,4.91.49,1.38,1.53,2.3,3.37,2.3,2.7.06,5.02-1.13,7.27-2.15,2.88-.15,5.67,1.69,8.6-.1-.31-.66-.45-1.54-.97-1.89-1.32-.82-2.79-1.38-4.2-2.1-1.32-.61-2.03-2.05-1.71-3.12.4-1.38,1.15-2.51,2.53-2.66,1.52-.15,3.08.05,4.63.31.39.05.93.67.98,1.08.12,1.28.07,2.55.05,3.84,0,3.07.81,3.68,3.33,4.6.49.16,1.01.26,1.54.41,2.55-.25,5.07-.56,7.34-2.04,1.76-1.13,3.45-.62,4.94.87.55.56,1.18.97,1.7,1.44,1.9.4,3.68.81,5.42,1.27.8.21.94.82.69,2.56-.7-.51-1.41-.98-2.12-1.43-.89.71-1.68,1.38-2.71,2.2ZM57.73,114.36c.06-.82.78-1.74,1.1-1.43.32.31.45.87.65,1.28-.02.26.05.56-.06.76-.22.41-.53.82-.8,1.23-.28-.36-.6-.67-.81-1.08-.12-.2-.09-.51-.07-.76ZM78.51,114.47c.01-.15.26-.31.4-.46.12.15.35.36.33.51-.01.15-.27.3-.43.41-.09-.1-.32-.3-.31-.46ZM84.55,115.08c.06-1.07.07-1.53.11-2.05,1.1-.82,2.38-.76,3.68-.66,1.19.15,2.04,1.02,1.85,1.94-.14.92-1.33,1.84-2.23,1.79-.26,0-.52-.1-.77-.15-.73-.26-1.47-.51-2.64-.87ZM95.62,114.26c.06-.41.51-.66.79-.97.19.15.41.31.51.51.09.25.03.51.03.71-.2.2-.33.46-.53.51-.49.1-.89-.2-.79-.76ZM99.46,132.01c1.05,5.88,2.11,11.72,3.09,17.55.06.35-.31.97-.63,1.28-.4.41-1.38-.36-1.55-1.18-1.13-5.63-1.99-11.26-2.46-16.88-.07-.87.77-1.13,1.55-.77ZM102.95,158.06c-.13.2-.25.51-.43.56-.52.15-.9-.82-.55-1.59.06-.05.38-.25.5-.2.57.2.72.66.48,1.23ZM103.3,164.5c.64-.1,1.03.15,1.13.82.09.52.2.93.29,1.43-.13.51-.2,1.02-.43,1.44-.25.46-1.18-.2-1.51-1.13-.15-.51-.26-.97-.3-1.48-.05-.57.26-.92.81-1.08ZM100.62,190.49c.18.05.44,0,.52.1.5.61.61,1.32.23,2.04-.11.26-.38.51-.57.51-.44,0-.81-1.18-.59-2.1.06-.2.27-.35.41-.56ZM101.57,197.91c.23,0,.63,0,.67.1.27.71.53,1.38.59,2.04.05.35-.32.72-.5,1.13-.35-.31-.83-.57-1.06-.98-.73-1.17-.59-2.09.29-2.29ZM104.2,208.14c.15,1.02.26,2.04.28,3.01,0,.31-.37.67-.57.98-.15-.16-.38-.37-.5-.57-.12-.2-.13-.46-.19-.72-.25-.97-.5-1.99-.74-2.97,1.01-.46,1.63-.41,1.72.26ZM104.07,218.47c.14-.1.4-.1.61-.15,1.12.2,1.6,2.05.81,3.02-.11.1-.41.15-.57.1-1.3-.56-1.76-2.11-.86-2.97ZM105.91,227.99c.06-.05.47.15.59.36.35.61.64,1.27.92,1.84-.22.37-.31.72-.45.72-.41.1-1.12.15-1.22-.05-.34-.62-.54-1.34-.61-2-.01-.3.46-.66.78-.86ZM107.04,236.28c2.73,1.8,3.11,3.43,1.48,6.45-.59-.46-1.52-.77-1.73-1.34-.56-1.68-1.19-3.48.25-5.11ZM109.2,247.94c.4-.1,1.09.1,1.32.41,1.06,1.49,1.44,3.23,1.49,5.02,0,.41-.41.97-.8,1.07-.37.2-.96.1-1.38-.1-.45-.2-.77-.61-1.36-1.23-.08-1.28-.23-2.82-.21-4.25,0-.36.57-.82.95-.92ZM111.81,229.62c.13.41.27.82.41,1.19-.13.2-.26.35-.39.56-.15-.42-.35-.87-.41-1.28-.03-.15.25-.26.39-.46ZM111.04,222.66c-.03.2-.43.56-.47.56-.35-.2-.83-.46-.94-.77-.23-.77-.27-1.48-.38-2.14.25-.62.38-1.13.7-1.44.34-.36,1.11.46,1.17,1.44.05.77,0,1.58-.08,2.35ZM110.29,212.29c-.19.51-.66.66-1.25.46-.2-.05-.44-.2-.53-.37-.75-1.73-.97-3.37.05-5.01,2.08,1.33,2.53,2.51,1.73,4.92ZM108.99,198.67c.18.46.29.97.43,1.48-.15.46-.18,1.08-.47,1.39-.27.26-1.01.41-1.32.15-1.25-.78-1.4-2.15-.51-3.33.51-.61,1.61-.46,1.87.31ZM106.44,182.92c1.12,2.86,1.53,5.93,1.55,8.95.01.41-.37.87-.67,1.22-.31.42-1.55-.46-1.72-1.22-.09-.46-.21-.97-.14-1.48.11-.73.39-1.39.57-2.1-.49-1.48-1.08-2.92-1.39-4.4-.13-.56.38-1.32.63-2.1.49.46,1.02.78,1.18,1.13ZM105.91,175.45c-.29.36-.53.92-.89,1.02-.38.05-1.13-.26-1.26-.51-.25-.66-.32-1.48-.27-2.2.02-.61.52-.82.99-.66,1.18.46,1.59,1.17,1.42,2.36ZM85.15,44.43c.17-.46.75-.41,1.24-.05.43.31.86.62,1.21.98,3.44,3.84,6.53,7.98,10.21,11.66.23.25.03.87.03,1.38-1.97.92-3.98.66-6.01.31-.4-.36-.93-.56-1.12-.97-.92-1.89-1.93-3.74-2.53-5.73-.67-2.2-1.81-4.25-3.05-6.19-.21-.36-.17-.97.01-1.38ZM89.61,83.15c.39.31.86.72.95,1.13.66,3.28.65,6.55-.43,9.67-1.38.1-2.25-.31-2.52-1.48-.69-2.81-.69-5.53.12-8.34.14-.52,1.55-1.23,1.88-.98ZM88.16,72.98c.12-1.28.53-2.46.81-3.68.47-.05,1.2-.26,1.25-.1.87,1.89.84,3.89.25,5.83-.08.2-.34.56-.45.56-.45-.1-1.09-.26-1.25-.56-.35-.61-.66-1.38-.59-2.05ZM68.79,47.55c.13-1.43,1.43-2,2.27-2.86.7-.72,1.38-1.54,2.02-2.25-.14-1.12-.28-2.04-.42-3.02.4-.41,1.15-.51,1.32,0,.46,1.48.66,2.97,1.01,4.45.46,1.94,1.63,3.22,3.56,3.68.99.25,1.97.57,2.76.77,2.04,2.1,3.08,4.45,4.14,6.8.55,1.33-.46,2.51-2.05,2.35-.76-.05-1.46-.41-2.13-.61-.77-1.43-1.49-2.81-2.25-4.3-.83.26-1.65.26-2.18.66-.6.46-.97,1.23-1.4,1.84-.73,1.13-1.68,1.89-3.08,2.05-1.43.15-2.39-.3-4.03-1.74-.06-.26-.23-.51-.15-.71.59-1.43,1.22-2.82,1.85-4.2-.43-1.02-.85-1.94-1.25-2.92ZM82.62,76.25c-.39.66-.99,1.12-1.85,1.12-.99-.05-1.99-.97-2.13-1.89-.04-.31-.15-.51-.17-.76-.07-.82-.11-1.59-.15-2.87.13-.82.29-2.05.51-3.32.14-.77,1.45-1.64,2.39-1.59.98.05,2.1.92,2.26,1.74.5,2.66.46,5.21-.86,7.57ZM83.51,92.87c-.13.72-.67,1.33-1.49,1.54-.59.15-1.74-.2-2.02-.72-.37-.66-.86-1.33-1.02-2.05-.26-1.23-.31-2.51-.41-3.58.14-.97.23-1.69.34-2.46.12-.71,1.33-1.58,2.33-1.48.46.05,1.12.3,1.26.66,1.12,2.56,1.52,5.32,1.01,8.08ZM74.59,74.61c-.33.92-.46,1.64-.86,2.25-.68,1.07-3.24,1.28-4.11.41-.18-.15-.4-.36-.44-.66-.65-2.71-.52-5.52.4-8.14.24-.66.94-1.17,1.47-1.69.4-.36,1.75.16,1.98.57,1.29,2.3.52,5.01,1.57,7.27ZM67.74,86.74c.26-1.89,1.32-2.55,3.25-2.55.75-.05,1.53.05,2.3.15.65.05,1.46.92,1.53,1.54.17,1.28.29,2.51.44,3.99-.11.87-.23,1.89-.35,2.91-.09.62-.9,1.49-1.53,1.54-1.27,0-2.55,0-3.82-.1-.98-.1-2.04-1.28-2.04-2.05.01-1.84-.05-3.63.21-5.42ZM52.69,53.23c.93-.99,1.92-2.01,3.44-2.17.26-1.05.72-1.5,1.57-1.56.33-.58.42-1.09.74-1.38,1.71-1.59,3.46-3.07,5.23-4.5.49-.46.99-.41,1.32.15.11.15.15.46.05.61-1.85,2.05-3.91,3.94-6.56,5.02-.16.08-.38,0-.59-.03-.33,1.26-.43,1.36-1.55,1.53-.12,1.42-.7,2.4-1.89,2.89-.65.31-1.36.31-1.75-.56ZM60.93,78.86c-.9.2-2.33-.46-2.47-1.33-.57-3.38-.75-6.7.47-9.97.49-1.28,1.95-2.36,2.9-2,1.03.41,1.71,1.23,1.84,2.3.22,1.54.28,3.12.35,4.14-.11,1.54-.09,2.61-.23,3.63-.2,1.74-1.23,2.71-2.87,3.22ZM63.29,92.92c-.17.11-.33.26-.53.46-.8.76-1.72.97-2.78.56-1.03-.41-1.81-1.18-1.89-2.25-.13-1.53-.03-3.02.11-4.56.03-.46.53-.82.79-1.22.26-.11.51-.15.75-.15,2.4-.16,3.65.66,3.9,2.56.2,1.54.31,3.07-.35,4.6ZM60.26,54.86c.2-1.74,1.33-2.55,2.88-3.17.98,1.18.84,2.36-.15,3.22-.8.77-1.83.72-2.73-.05ZM39.99,106.02c.12-1.02.56-1.94.93-3.01,2.04-.56,3.97-1.38,5.98-1.69,4.1-.51,8.23-.76,12.34-1.13.26-.05.53-.1.78-.05,4.87,1.08,9.83.41,14.71.87,5.95.56,11.9.1,17.85.05,2.3,0,4.59-.67,6.89-.87,1.28-.1,2.58.05,3.85.1.44,0,1.38,1.13,1.39,1.74,0,.77-.11,1.54-.79,2.1-.88.67-1.91.92-2.91.72-1.49-.36-2.93-.97-4.63-1.54-6.28,2.15-12.92,2.05-19.63,1.13-4.64-.67-9.29-.57-13.9.26-1.77.41-3.59.41-5.38.61-4.58.66-9.29.77-13.52,3.02-.43.2-1.02.1-1.52.15-1.13.15-2.6-1.23-2.43-2.46ZM36.73,300.22c-.95-2.46-.17-5.11.38-7.67.26-1.22.15-2.56.2-3.78.15-5.47-.05-10.95,1.39-16.32.33-1.24.35-2.51.4-3.84.26-7.52,1.43-14.94,2.56-22.41.27-1.74.48-3.58.66-5.38.17-1.48.07-3.12.41-4.65,1.39-5.78,1.38-11.82,1.21-17.8-.09-3.12.03-6.29.57-9.31.73-4.14.87-8.24,1.15-12.38.35-5.43.81-10.91,1.13-16.33.06-1.02-.29-2.05-.5-3.07-.05-.15-.31-.31-.52-.41-.59-.25-1.19-.2-1.32.36-.87,3.23-1.78,6.45-1.9,9.83-.16,4.45-.25,8.85-.29,13.2-.04,3.68-.15,7.31-1.18,10.84-.43,1.44-.38,3.07-.4,4.6-.01,2.36.08,4.66.15,7.01.15,4.71-.01,9.37-.96,13.92-.43,2.1-.66,4.14-.73,6.24-.12,2.87-.82,5.57-2.24,8.49-.19-.87-.49-1.48-.4-1.99.78-4.41,1.35-8.76,1.12-13.16-.03-.56.01-1.07.09-1.58,1.82-12.85,1.72-25.89,1.58-38.84-.03-2.09.15-4.14.32-6.24.2-2.35.57-4.6.75-6.9.15-1.9.57-3.63,1.19-5.33,1.39-3.58,2.33-7.36,2.67-11.3.21-2.82.81-5.63,1.11-8.45.29-2.86.4-5.68.58-8.54.72.05,1.19.05,1.67.05,1.48.05,2.23-.36,2.3-1.33.11-1.58.31-3.12.31-4.65-.01-4.5.81-8.8,1.7-13.2,3.34-1.84,6.99-1.84,10.58-1.94,2.31-.05,4.69-.36,6.71,1.18.14.26.4.56.34.77-.57,2-1.09,3.99-1.85,5.89-.24.56-1.07,1.18-1.75,1.28-1.5.36-3.11.26-4.6.62-.53.1-.89,1.02-1.3,1.63,1.94,1.79,4.93.21,6.78,3.12.07,1.48.13,3.58.29,5.62.11,1.28.26,2.56.52,3.84.23,1.12.97,1.99,1.96,2.3,4.03,1.23,8.09,2.16,12.23-.15.3-1.18.69-2.4.92-3.69.22-1.27.29-2.56.45-3.94.74-.36,1.37-.97,2.05-1.02,2.59-.1,5.18-.15,7.77-.1,2.8.1,4.51,2.97,3.42,5.68-.15.51-.58.97-1.01,1.07-.97.36-1.97.56-2.98.72-1.78.31-3.66.05-5.29,1.07,2.65,1.59,5.61.87,8.35,1.38.43.36.94.61,1.2,1.02.81,1.33.21,2.91-1.07,3.07-.51.1-1.01.26-1.54.2-4.19-.15-8.24.82-12.35,1.33-.44.05-.83.46-1.54,1.02,1.27.15,2.28.46,3.27.46,3.12.05,6.25,0,9.37.05,1.29.05,2.59.2,3.87.46.75.15,1.41.72,1.55,1.53.18,1.02.29,2.05.24,3.07-.03.41-.53,1.07-.9,1.12-1.27.2-2.56.41-3.83.31-3.71-.36-7.24.26-10.71,1.49-.21.05-.33.36-.52.61.34.2.68.62,1.01.67,4.42.15,8.85.2,13.26.46,1.75.05,3.5,1.53,2.85,4.6-.09.46-.52.97-.92,1.12-.7.26-1.48.31-2.25.31-2.85.21-5.72.15-8.57.52-1.23.1-2.41.76-3.57,1.22-.19.1-.26.46-.4.72,2.56.76,5.16.41,7.76.51,2.33.05,4.67.25,7,.4.72.05,1.67,1.49,1.65,2.41,0,.77-.63,1.8-1.16,1.84-1.78.16-3.57.37-5.38.47-2.32.15-4.66.2-6.97.51-.57.1-1.05.92-1.63,1.48,2.19.97,4.3.56,6.35.76,1.29.1,2.59.2,3.89.36.48.05,1.26,1.13,1.29,1.74.06,1.13-.63,2.46-1.37,2.56-2.31.2-4.64.36-6.93.72-.52.1-.88,1.07-1.49,1.73,1.05.31,1.78.51,2.54.61,1.82.15,3.63.2,5.44.36,1.23.05,2.16,1.28,2.24,2.82.09,1.85-.85,3.02-2.61,3.12-3.88.31-7.74.61-12.46.92-1.13-.1-2.11-1.94-3.72-2.81-.95-.52-1.92-.67-3.01-.47-2.45.52-4.14,1.9-5.35,4.05-1.38,2.55-1.89,5.42-2.28,8.23-.45,3.07-.43,6.18-.57,9.25-.05,1.19,1.06,2.56,2.17,3.07,2.73,1.12,5.57,1.38,8.45.92,1.85-.36,3.4-1.28,4.3-2.97.86-1.59,1.58-3.27,2.39-4.91.73-.26,1.42-.72,2.13-.77,3.63-.26,7.27-.41,10.9-.61.78-.05,2.08.97,2.33,1.84.3.98.52,2-.22,2.91-.29.36-.78.72-1.24.77-1.52.36-3.04.61-4.57.83-2.56.36-5.15.51-7.73.86-.6.05-.83.51-.83,1.12,0,.51.21.97.81,1.07.75.15,1.61.31,2.31.1,3.06-.81,6.19-.61,9.31-.66,2.37,0,3.74,1.59,3.77,4.04,0,.73-.63,1.74-1.19,1.85-2.8.51-5.61,1.02-8.37,1.64-.99.2-1.93.66-2.82,1.18-.26.15-.31.77-.32,1.23-.02.1.4.4.61.4,1.05,0,2.09-.05,3.1-.15,1.53-.25,3.04-.71,4.56-.81,4.66-.51,6.22,1.02,5.95,5.77-.06,1.24-1.04,2.41-2.34,2.77-1.51.36-3.02.56-4.49,1.02-.27.05-.34.87-.39,1.33,0,.15.37.46.57.46.74.1,1.52.05,2.26,0,.76-.05,1.55-.2,2.32-.26,1.49,0,3.18,1.22,3.53,2.71.23.93.27,2,.31,3.07.03.81-.47,1.39-1.15,1.85-2.19,1.43-5.12.81-7.24,2.45-.16.15-.22.52-.2.77.03.2.21.46.4.56,1.31.67,2.5-.2,3.75-.26,1.04,0,2.08.05,3.11.05.51.05,1.45,1.02,1.58,1.64.15.66-.26,1.74-.82,2-1.43.61-2.89,1.07-4.26,1.73-.37.2-.51.82-.75,1.24,1.83,1.48,4.11.15,6.01,1.27,1.43,1.43,1.64,3.17.9,5.01-.41.26-.78.76-1.23.76-3.06.51-6.15.93-9.21,1.39-.73.05-1.41.46-2.22.72.57.4.98.86,1.41.92,2.33.2,4.67.15,7.02.31,1.04.05,2.07.1,3.11.26,1.12.1,2.42,1.39,2.7,2.61.55,2.36-.69,4.4-2.93,4.5-4.43.2-8.8.67-13.09,1.69-.47.1-.86.46-1.47.82.77.36,1.44.92,2.07.87,2.87.1,5.72-.15,8.59-.06,2.06.06,4.18-.25,6.11.82.39.27.7.83.74,1.29.06.46-.11,1.12-.43,1.38-.63.36-1.4.66-2.15.77-2.84.26-5.7.31-8.57.41-1.04.11-2.02.4-2.78,1.18-.17.2-.37.61-.31.66.27.36.71.86.99.86,3.86-.51,7.74-.76,11.65-.51,1.12.05,2.08.61,2.51,1.58.96,2.2,1.38,4.51.61,6.5-.44.46-.59.77-.79.82-2.27.41-4.56.83-6.85,1.23-1.53.31-3.07.51-4.56.87-.57.1-.92.61-.68,1.17.15.36.77.72,1.17.72,1.3,0,2.6-.15,3.88-.2,2.59-.2,5.17-.61,7.88,0,.43.62.85,1.19,1.34,1.9-.49.61-.92,1.33-1.46,2-1.27.04-2.56.1-3.86.14-3.63.07-7.27.17-10.87.78-2.78.51-5.66.51-8.51.77-.53,0-.93.46-.75,1.02.09.36.69.87,1.06.82,6-.1,11.97-.36,17.95-.46,1.55-.05,3.12.2,4.66.36.25,0,.48.2.74.32.75.2,1.38,1.53,1.29,2.6-.07.66-.83,1.54-1.4,1.69-4.12.31-8.24.77-12.4,1.02-3.36.31-6.71.46-9.98.61-.37,1.02-.19,1.85.73,1.9,1.27,0,2.54-.47,3.83-.47,5.72.05,11.45.16,17.2.26,1.28.05,2.35,1.18,2.42,2.66.06,1.03-.03,2-.07,3.07-.03.56-.98,1.64-1.45,1.7-.25.05-.51.14-.77.14-6.21.52-12.43.98-18.63,1.54-4.92.41-9.84.72-14.74,1.22-.72.1-1.38.61-2.04.98-.2.1-.31.41-.35.66-.02.15.17.46.3.46.75.15,1.58.51,2.29.35,3.83-.76,7.74-.66,11.63-.97,5.68-.41,11.37-.97,17.11-1.03,1.56,0,3.14.06,4.69.15,1.56.1,2.91,1.49,3.04,3.12.13,1.64.09,3.22.03,4.76-.03,1.23-1.56,1.95-2.98,1.39-.7-.26-1.38-.71-2.1-1.02-1.08.71-2.11,1.43-3.24,2.19-.69.1-1.46.26-2.22.31-9.61.25-19.23,1.18-28.89.42-.5-.06-1.07,0-1.53.14-.35.16-.58.62-.86.93.18.1.37.51.58.51,3.65.26,7.28.56,10.94.66,6.76.15,13.55.56,20.3-.15,1.46-.1,2.53.66,3.01,2.05.89,2.7.66,3.22-1.89,5.11-.21.15-.38.3-.56.46,0,1.02.93.92,1.47,1.23.95.57,1.73,1.28,1.84,2.41.14,1.33.15,2.61.14,3.94,0,.87-1.28,2.1-2.03,2-.52,0-1.04-.05-1.55-.1-3.12-.2-6.27-.57-9.39-.61-5.72.04-11.44.26-17.17.4-4.95.1-9.88,0-14.83-1.03-3.59-.61-7.27-.92-10.91-1.13-1.29-.15-2.67-.31-3.86.05-3.2.82-6.19,0-9.29-.92-2.11-3.07-.95-5.84.4-8.71-.27-2.19-2.52-4.24-.61-7.05.19-.11.83-.52,1.51-.87.67-.31,1.39-.56,2.04-.82.09-.87.05-1.68-.7-2.14-.65-.42-1.51-.67-2.09-1.19-.57-.46-1.1-1.12-1.29-1.84-.27-.98-.32-2.1-.29-3.12.14-3.84.37-7.67,0-11.56-.25-2.41-.2-4.7.99-6.91.3-.51.06-1.54-.2-2.2-.47-1.17-.64-2.5-.89-3.78-.47-2.6,1.7-4.81.64-7.57ZM99.39,212.08c-.69.86-1.01,1.22-1.47,1.78-4.2.36-8.59.66-12.95.86-.41.05-1.04-.4-1.25-.76-1-1.89-1.31-3.99-.73-6.04.12-.46.57-.86.92-1.17.17-.15.46-.26.69-.31,3.34-.31,6.68-.82,10.02-1.07,2.95-.2,3.71.56,4.23,3.33.19,1.02.34,2.09.53,3.38ZM98.73,377.12c-.23.1-.51.15-.77.15-8.59.05-17.2-.05-25.72-1.07-7.27-.88-14.51-1.29-21.78-1.9-1.05-.1-2.09-.15-3.13-.26-3.14-.2-6.22-.15-9.09,1.27-.59.31-1.72-.31-1.94-.81-.37-.92.07-2.45.79-2.82.46-.15.92-.46,1.41-.46,5.45-.26,10.96-.1,16.35.83,3.39.66,6.7.92,10.07,1.02,9.89.46,19.78.92,29.67,1.43,1.76.1,3.63-.2,5.29.92-.03.83-.34,1.44-1.15,1.7ZM98.79,383.93c-.14.46-.52.97-.93,1.12-.69.31-1.47.41-2.22.41-3.66-.1-7.3-.2-10.95-.41-5.73-.31-11.46-.61-17.13.15-1.01.15-2.11.26-3.1.05-2.62-.51-5.18-.26-7.77,0-1.8.15-3.63.05-5.44-.1-4.4-.51-8.82-1.17-13.2-1.73-.39-.05-.72-.62-1.09-.98.43-.2.83-.66,1.29-.71.73-.15,1.53.05,2.32-.05,1.54-.05,3.1-.15,4.6-.41,1.71-.41,1.84-2.36,2.97-3.38.2-.15.43-.26.97-.56,2,.05,4.34.1,6.67.15,12.49.72,24.99,1.43,37.48,2.04,1.05.12,2.09.27,3.11.42,1.96.26,3.08,2.04,2.44,3.99ZM74.65,370.67c-3.13-.26-6.24-.36-9.37-.46-7.53-.1-15.05-.25-22.54-1.63-1-.15-2.07.2-3.08.05-.98-.16-1.93-.62-2.7-.93-.82-1.89-.79-3.32.8-4.65,7.48-1.22,15.28-1.17,22.99.1,7.3,1.29,14.48,1.29,21.74.82,6.71-.46,13.46-.66,20.22-.05,2.96.36,4.08,1.64,4.11,4.76,0,.51-.13,1.02-.23,1.53-.11.61-.97,1.38-1.57,1.43-1.03.1-2.05.26-3.1.15-9.09-.26-18.19-.51-27.27-1.12ZM106.29,376.41c-.12.36-.5.72-.86.86-.71.26-1.61-.56-1.44-1.27.09-.31.6-.51.91-.83.98-.05,1.65.52,1.39,1.24ZM105.64,380.55c1.21-.05,2.31,1.13,2.19,2.35-.06.93-1.07,1.59-2.16,1.49-1.06-.1-1.96-1.07-1.87-2,.09-.97.96-1.84,1.84-1.84ZM32.11,320.29c.08.05.22.15.22.26-.01.15-.06.35-.11.56-.07-.15-.21-.2-.2-.26,0-.2.07-.4.09-.56ZM32.15,329.75c1.38,1.85.58,3.68.56,5.48-1.07.36-1.75-.1-1.84-.82-.23-1.69-.15-3.38,1.28-4.65ZM30.21,343.72c.17-.72,1.12-1.02,1.73-.66.51.36.66.82.57,1.32-.2,1.02-.66,1.8-1.79,2.05-.78-.78-.72-1.8-.5-2.71ZM29.15,352.15c.11-.61.94-1.02,1.4-1.53,1.12.66,1.83,1.33,2.03,2.4.32,1.79.39,3.58-.49,5.28-.35.66-.53,1.38-.79,2.04.51,1.28,1.13,2.51,1.43,3.73.29,1.24.07,2.51-.81,3.53-.31.35-.75.61-1.19.86-.93.52-2.41-.14-2.44-1.07-.15-5.16,0-10.24.86-15.25ZM27.15,373.85c.15-1.12,1.49-1.95,2.85-1.89,1.35.1,2.61,1.53,2.25,2.55-.6,1.69-2.4,4.65-3.78,6.14-.09.1-.63-.05-.71-.2-1.21-2.15-.95-4.4-.61-6.6ZM14.48,391.75c.07-.56,1.02-1.28,1.62-1.33.26,0,.52-.15.76-.1,5.19.67,10.43.62,15.59.27,11.66-.83,23.4.2,35.09.26,6.36.05,12.76.17,19.11.36,6.38.17,12.77.4,19.15.56,2.35,0,4.68-.26,6.99-.3,3.64-.05,7.28-.1,10.91-.1.78,0,1.67,0,2.33.35,3.78,1.99,7.6,1.38,11.43.77.25-.1.53,0,.79.05.4.31,1.01.51,1.16.92.67,1.84.72,3.58-.75,5.42-6.67.87-13.46,2.25-20.58,1.53-2.82-.26-5.72,0-8.56.26-5.96.61-11.89.81-17.87-.61-2.3-.51-4.64-.51-6.99-.31-2.07.15-4.18.51-6.21.15-4.2-.66-8.29-.26-12.45-.15-4.66.15-9.36.26-14.04-.1-7.81-.46-15.63-.46-23.44-.77-4.15-.15-8.32-.66-12.46-1.03-.92-.05-1.9-1.18-1.89-2.25,0-1.24.14-2.51.3-3.84ZM16.79,497.14c-2.58-.1-5.15-.2-7.73-.31-1.2-.05-2.47-1.43-2.56-2.56-.25-3.38.46-6.59,1.91-9.51.05-.1.33-.1.51-.15.98,1.63.49,3.53.97,5.22.33,1.22.75,2.56,1.42,3.58.31.51,1.32.72,2.03.77.24.1.69-.61.81-1.02.33-1.17-.15-2.61.7-3.63.26-.31.81-.56,1.26-.61.44,0,.98.2,1.33.51.38.36.69.87.84,1.33.52,1.54.95,2.97,1.4,4.36-.45,1.58-1.47,2.04-2.88,2.04ZM29.4,495.3c-1.26.1-2.56.05-3.83-.1-1.98-.31-3.34-2.46-3.02-4.77.12-.81.69-1.32,1.42-1.53.72-.2,1.5-.26,2.27-.31,1.1,0,1.96.56,2.56,1.48.29.46.55.97.74,1.44.38.92.7,1.94,1.04,2.86-.46.37-.8.87-1.18.93ZM38.91,494.17c-.19.93-1.71,1.39-2.53.88-1.19-.72-1.89-1.8-2.47-2.97-.69-1.44-.35-2.66.86-3.23,1.5-.72,3.28-.05,3.82,1.58.33.98.43,1.95.55,2.51-.13.72-.18.97-.23,1.23ZM48.73,492.99c-.14.87-.67,1.43-1.46,1.59-.73.16-1.53.2-2.3.2-.93-.04-1.96-1.13-2.19-2.05-.71-2.81.57-4.45,3.57-4.45,1.53-.05,2.34.77,2.48,2.45.02.26.03.46.05.72-.05.51-.07,1.02-.15,1.53ZM56.13,495.2c-1.79-.26-2.64-1.34-2.76-3.23-.13-2.2.81-3.43,2.91-3.48.77,0,1.55.15,2.3.26.23.1.41.36,1.19.92.23,1.64.44,3.17.64,4.65-1.18,1.44-2.76,1.18-4.28.88ZM72.24,493.46c-.17.82-.79,1.29-1.5,1.44-.97.26-2,.26-3.01.31-2.07.05-3.13-.73-3.33-2.36-.29-2.56.69-4.35,2.69-4.6,1.22-.15,2.51-.1,3.78-.05.63,0,1.44.92,1.53,1.58.08.46.11.97.19,1.69-.09.56-.2,1.33-.35,1.99ZM86.4,492.54c-.09.71-.44,1.43-.63,2.04-2.16,1.69-4.48,1.28-6.81.77-.83-.25-1.92-1.49-1.9-2.36.01-1.02.04-2.1.37-2.97.23-.66.9-1.33,1.53-1.53,2.24-.56,4.55-.71,6.77.51.23.1.41.31.69.51,0,.97.09,2.1-.03,3.02ZM87.12,422.5c-1.57.05-3.21.15-4.69-.26-4.11-1.12-8.29-.46-12.42-1.38-2.59-.51-5.32,1.78-5.41,4.35-.19,4.65-.37,9.36.33,14.07.57,3.58.78,7.32.59,10.94-.19,3.28-.45,6.71-.43,10.08-.01,3.38.25,6.7.39,10.13.11,2.87-.2,5.72-1.27,8.33-.5,1.29-1.52,2.16-2.91,2.21-2.33.1-4.7-.05-7.05.05-2.85.1-5.69.61-8.54.51-2.59-.1-5.18-1.12-7.76-1.27-4.44-.47-8.89-.67-13.23.41-.98.26-2.05.31-3.19-.26-.98-1.19.46-2.25.2-3.53-1.18-5.12-.83-10.28-1.15-15.45-.05-.83-.07-1.59-.23-2.36-1.65-8.29-.71-16.63-.92-24.92-.01-.92.58-1.84.84-2.6,2.93-1.29,5.69-1.7,8.62-1.03.89.2,1.88,1.49,1.7,2.36-.25,1.27-.59,2.5-.83,3.53-.93.97-1.93,1.18-2.99,1.23-1.29.05-2.61.15-3.84.51-.63.15-1.07.87-1.58,1.39.83,1.07,1.81,1.32,2.87,1.38,2.42,0,4.6.66,6.54,2.31.74.66,1.95.92,2.94.97,2.59.05,5.2,0,7.81,0,.89,0,2.07-.97,2.22-1.79.15-.77.41-1.53.38-2.25-.12-3.74.13-7.32,1.12-10.85.48-1.68.31-3.58.28-5.37-.05-2.04-2.07-3.99-4.19-4.1-2.9-.15-5.71.41-8.4,1.24-.66.2-1.24.97-1.57,1.63-.56,1.07-.92,2.36-1.36,3.53-3.2.86-6.27.61-9.37-.1-.37-.05-.76-.61-.93-1.12-.17-.46-.11-1.02-.09-1.54.03-1.07.59-1.89,1.54-2.77,2.36-.2,4.92-.46,7.48-.72.12,0,.33-.31.29-.46-.04-.25-.14-.56-.32-.71-2.07-1.43-4.49-1.32-6.8-1.73-1.76-.36-2.72-2.82-1.73-4.46.26-.4.73-.61,1.21-1.07,2.76-.1,5.61-.26,8.46-.41.32,0,.59-.51.83-.86.03-.05-.28-.46-.49-.56-2.74-.93-5.66-1.34-8.2-2.77-.42-1.02.23-1.59.89-1.59,9.4-.06,18.79-.15,28.19.72,2.61.26,5.2.56,7.79.15,1.51-.36,3.13,0,4.7-.05,2.08-.05,4.18.05,6.22-.26,4.17-.62,8.31-.4,12.48.26,1.05.15,2.11.67,3.11.56,5.23-.72,10.39.77,15.61.92,4.95.15,9.91.35,14.88.61,1.55,0,3.11.31,4.68.46.23.05.44.31.66.47-.37.2-.73.61-1.14.72-.73.15-1.53.31-2.31.26-3.45-.2-6.62,1.27-10.02,1.12-3.39-.1-6.78-.51-10.17-.61-.75-.1-1.51.2-2.27.36.12.51.07,1.18.35,1.33.63.46,1.39.87,2.13.98,5.21.82,10.43.87,15.61.31,1.79-.26,3.62-.41,5.44-.36,4.93-.05,9.92.2,14.81-.56.97-.15,2.13.61,2.59,1.48.75,1.43-.2,3.58-1.7,3.68-2.61.05-5.2.2-7.8.2-4.2-.1-8.32,0-12.44.77-2.25.46-4.66.2-6.99.31-.75.1-1.49.2-2.42.26.47.51.75.98,1.06.98,5.74.41,11.47.92,17.21.82,3.39-.1,6.79.31,10.16.51.73.1,1.48.56,2.13.97.73.41.93,1.23.92,2.05,0,.72-.63,1.64-1.27,1.69-2.56.4-5.12.4-7.74.1-3.11-.46-6.27-.51-9.41-.61-3.48,0-5.7,2.25-5.68,5.89,0,1.33.35,2.55.29,3.89-.06.97-.5,1.94-.72,2.71-4.82,2.51-9.67,2.56-14.72,1.49-1.56-1.08-1.64-2.51-.92-4.04.43-.26.83-.56,1.29-.67,2.82-.36,5.7-.31,8.58,0,.77.16,1.55.06,2.33.11.63,0,1.52-.98,1.42-1.54-.09-.51-1.16-1.43-1.72-1.48-.52,0-1.06-.1-1.54,0-3.11.46-6.22.26-9.19-.05-1.21-.66-1.55-1.69-1.64-2.71-.09-1.02-.2-2.15-.46-3.12-.2-.72-.6-1.53-1.01-2.09-.45-.67-1.05-1.24-1.74-2-1.7.1-3.48.26-5.27.2ZM134.22,437.13c-.51.1-1.01.15-1.52.2-.76,0-1.54-.1-2.82-.15-.01,0-.52-.05-1.04-.1-.72-.1-1.48-.86-1.44-1.53.05-1.03.12-2.1.35-3.12.27-1.07,1.19-1.74,2.23-1.74,1.54.05,3.07.31,4.59.61,1.21.2,1.9,1.59,1.76,3.12-.13,1.59-.93,2.61-2.12,2.71ZM134.48,448.03c-2.68,0-5.68,1.12-8.75-.92.14-1.19.15-2.2.4-3.12.32-1.39,1.24-2.2,2.51-2.66,1.73-.61,3.51-.56,5.31-.1.82.26,1.86,1.38,1.98,2.31.2,1.64.08,3.12-1.46,4.5ZM118.45,448.54c-6.65,1.23-13.5-.92-19.53.97-2.2-1.78-2.08-3.84-2.58-5.57-.18-.56.58-1.59,1.2-1.59,4.41.21,8.79-.26,13.48-.05,1.32,1.59,2.17,2.56,2.85,3.37,1.5,1.29,4.09.2,4.58,2.87ZM100.57,493.97c-.03.66-.88,1.44-1.58,1.39-2.08-.1-4.17-.15-6.26-.3-.84,0-1.84-1.29-1.78-2.25.05-.82.14-1.59.32-2.31.32-1.43,1.31-2.29,2.65-2.44,1.78-.2,3.62-.1,5.58-.15,1.38,2.44,1.15,4.29,1.06,6.08ZM118.26,495.1c-.24.61-1.06,1.17-1.73,1.27-2.54.46-5.13.31-7.73-.31-2.26-.51-3.42-1.85-3.66-4.55-.07-.72-.09-1.54.08-2.31.09-.41.47-.97.87-1.12,1.22-.41,2.47-.78,3.74-.87,1.53-.11,3.11.09,6.27.26-.32,0,.97.1,2.19.46.37.1.83.76.87,1.17.27,2.09-.14,4.14-.91,5.99ZM110.75,478.16q2.12-.61,4.87,0c-1.01.2-1.67.41-2.35.46-.75-.05-1.52-.25-2.52-.46ZM131.78,494.74c-2.07,1.68-4.58,1.89-7.24,1.58-.97-.1-1.95-1.43-1.64-2.31.57-1.68,1.2-3.33,1.77-4.91,2.56-1.63,5.04-1.38,7.54-.2.38.2.58.82.95,1.38-.41,1.44-.87,2.86-1.38,4.46ZM107.91,474.02c-.79-.05-1.56.05-2.35.1-1.62.2-2.93.82-3.58,2.46-.19.46-.61.82-.9,1.18-.83-.05-1.62-.36-1.8-1.23-.2-.98-.26-2.05-.2-3.07.03-.46.47-.87.79-1.24.16-.15.44-.2.69-.26,10.39-.86,20.83-.56,31.28.2,1.03.1,2.12.26,3.05.67.61.31,1.08,1.12,1.41,1.78.32.61-.54,1.85-1.06,1.7-9.06-2.31-18.21-2.05-27.35-2.31ZM136.06,480.52c-.35.2-.73-.05-.73-.66,0-.37.34-.73.53-1.08.17.15.37.31.47.51.09.2.11.46.06.67-.05.21-.17.47-.33.57ZM136.59,467.06c-.15.72-.67,1.28-1.01,1.85-.95.05-1.73.1-2.51.05-8.61-.67-17.23-.98-25.83-.47-2.84.21-5.7-.15-9.35-.31-.65-3.53-1.58-6.54-1.6-9.72,0-1.02.11-2.1.31-3.12.27-1.32,1.12-2.31,2.41-2.77.95-.35,1.98-.61,2.99-.61,9.14.05,18.25-.36,27.36-.61,1.04-.05,2.11.05,3.15.1,3.77.15,4.36,1.73,3.97,5.16-.06.46-.49.97-.9,1.17-1.66.78-3.46.88-5.32.93-5.48-.15-10.97-.15-16.44-.2-3.94-.05-7.8.41-11.61,1.17-.25,0-.46.2-.69.31-.55.2-.84.66-.63,1.24.15.41.52.82.87,1.12.15.1.52.1.75.1,3.83-.92,7.73-.81,11.65-.76,3.9.1,7.83.1,11.74,0,2.9-.1,5.7.41,8.54.81.93.1,1.84,1.07,2.02,2.19.13.83.27,1.65.14,2.36ZM141.4,495.61c-.96.05-1.92.2-2.9.15-1.04,0-1.92-1.13-1.7-2.1.23-.92.38-2.09.94-2.82,1.21-1.63,2.92-2.6,5.09-2.55.35-.05.72.56,1.01.77-.79,2.1-1.56,4.19-2.43,6.55Z"/>
      <path class="cls-1" d="M69.75,311.22c2.32.15,4.64.15,7.02.26,2.34-.97,4.03-1.53,5.65-2.3,1.17-.47,2.21-2.1,1.7-3.07-1.01-2-.89-4.04-1.13-6.15-.45-3.63-.84-7.21-1.45-10.84-.41-2.4-2.02-4.19-4.16-5.47-1.72-1.03-4.38-.71-5.72.66-.35.41-.75.77-1.01,1.12-1.09,1.75-1.87,3.58-2.39,5.63-1.36,5.32-1.04,10.79-1.68,16.16-.03.26.09.56.12.82.14,1.44,1.62,3.12,3.05,3.17Z"/>
      <path class="cls-1" d="M51.27,357.53c2.59-.05,5.2-.15,7.76-.52,3.64-.3,7.25-.51,10.89.57.72.1,1.54.15,2.28,0,.41,0,.83-.51,1.11-.87.35-.52-.39-1.59-1.08-1.74-.77-.2-1.55-.41-2.3-.41-3.39-.1-6.76-.05-10.16-.05-1.57-.05-3.13.05-4.65.26-2.25.41-4.44,1.17-6.76,1.68.92,1.13,1.96,1.19,2.91,1.08Z"/>
      <path class="cls-1" d="M39.99,463.89c.56.05.86-.46.75-1.07-.03-.26-.06-.56-.21-.71-.89-.46-1.8-1.19-2.75-1.39-4.09-.87-8.22-.92-12.32-.72-.46.05-1.03.36-1.26.72-.22.37-.05.98-.03,1.54.73.76,1.73,1.07,2.76,1.02,4.35-.15,8.71-.05,13.06.61Z"/>
      <path class="cls-1" d="M90.81,411.7c-2.02-.2-4.07-.46-6.1-.67-.51-.2-1.09-.36-1.52-.2-2.64,1.07-5.57.82-8.28,1.53-.29.1-.64.98-.5,1.23.21.31.86.77,1.26.66,2.3-.2,4.56-.66,6.83-.77,2.32-.1,4.66.05,6.99.1.51,0,1.03,0,1.52-.15.52-.1.64-.57.33-1.13-.12-.31-.33-.61-.53-.61Z"/>
      <path class="cls-1" d="M26.84,454.58c.25.05.52.15.75.15,3.59-.61,7.22-.31,10.81-.36.8.05,1.81-.61,1.66-1.03-.31-.81-1.03-1.22-1.77-1.32-2.04-.46-4.09-.82-5.33-1.12-2.91-.26-4.98-.2-6.82.87-.35.15-.59.72-.72,1.12-.18.56.81,1.65,1.42,1.7Z"/>
      <path class="cls-1" d="M39.41,468.44c-.24-.1-.49-.2-.75-.2-2.56-.51-5.13-.97-7.65-1.43-.39.46-.73.82-1.01,1.18-.12.26-.2.56-.15.77.15.92,1.27,1.9,2.21,1.95,2.85.15,5.7.36,8.53.41.21.05.41-.26.63-.41-.08-1.18-.79-1.84-1.81-2.25Z"/>
      <path class="cls-1" d="M34.73,474.63c-2.54-.66-5.07-.72-7.56-.1-.64.1-1.13.82-1.64,1.28.32,1.59,1.42,2.36,2.75,2.25,2.49-.2,5.05-.26,7.35-1.18.23-.1.31-.92.15-1.28-.18-.41-.64-.92-1.06-.97Z"/>
      <path class="cls-1" d="M61.27,411.4c-.69.15-1.34.61-1.99.87-.16.1-.2.51-.17.77,0,.14.21.46.35.51,3.36.66,6.71.87,10.07.51.63,0,1.15-.72,2.93-2.1-4.62.66-7.83-.87-11.19-.56Z"/>
    </g>
  </g>
</svg>