<?xml version="1.0" encoding="UTF-8"?>
<svg id="Layer_2" data-name="Layer 2" xmlns="http://www.w3.org/2000/svg" viewBox="0 0 139.05 545.36">
  <defs>
    <style>
      .cls-1 {
        fill: #613b27;
        fill-rule: evenodd;
      }
    </style>
  </defs>
  <g id="_Layer_" data-name="&amp;lt;Layer&amp;gt;">
    <g>
      <path class="cls-1" d="M138.92,539.12c-1.11-4.26-2.26-8.49-3.48-12.72-.3-1.03-.9-1.98-1.34-2.93-.91-.36-1.64-.75-2.42-.95-5.61-1.47-10.88-3.87-16.01-6.58-1.31-.7-2.01-1.84-1.99-3.35.68-1.44,1.35-2.88,2.09-4.45-1.03-3.71-1.22-7.5-1.17-11.32.08-5.98-.88-11.98-.31-17.96.07-.79,0-1.65-.19-2.44-.79-3.25-.56-6.51-.6-9.78-.08-6.53-.19-13.05-.21-19.58-.02-5.98.12-11.96.1-17.94-.02-3.26.04-6.56-.43-9.78-.32-2.19-.08-4.36-.46-6.48-.4-2.25-.14-4.31.27-6.44.15-.78.13-1.63.03-2.44-1.04-8.44-.89-16.87-.83-25.3.02-4.07-.06-8.18-.54-12.24-.68-5.72-1.08-11.41-1.04-17.13.01-2.17.01-4.39-.42-6.51-.66-3.27-.72-6.53-.72-9.78-.01-7.89.18-15.77.21-23.66,0-3.26.26-6.61-.42-9.78-1.33-6.25-1.17-12.5-1.37-18.74-.15-4.63-.06-9.24-.89-13.86-.29-1.59-.15-3.26-.17-4.89-.1-5.71-.21-11.43-.27-17.15-.08-7.62-.33-15.26-.12-22.87.39-14.13.44-28.26-.13-42.43-.02-.54-.13-1.09-.12-1.63.06-3.26,1.34-5.74,4.47-6.94,1.25-.49,2.61-.72,3.77-1.34,2.25-1.18,3.65-3.04,3.77-5.75.13-3.3-.13-6.53-1.58-9.63-.58-1.24-1.08-2.53-1.61-3.78.01-1.42-.05-2.79.04-4.14.13-1.89.39-3.77.56-5.66.32-3.39-.62-4.91-3.87-6.46-1.76-.84-3.54-1.5-5.45-1.82-3.51-.6-7.01-1.3-10.51-1.94-1.11-.2-2.1-.6-2.88-1.52-1.11-2.55-1.6-5.21-1.58-7.98.02-2.99-.07-5.99-.15-8.98-.09-2.99.03-5.97.24-7.99.84-2.87,3.5-2.85,4-5.02,0-.69,0-1.5.01-2.33,2.45-.28,4.9-.38,7.25-.88,1.6-.33,2.85-1.38,3.12-3.24.25-1.73.08-3.22-1.65-4.24-.71-.42-1.47-.86-2-1.46-1.09-1.25-1.95-2.72-3.1-3.89-1.15-1.17-2.73-1.94-3.8-3.17-3.66-4.2-7.05-8.59-8.15-14.22-.21-1.07-.49-2.14-.82-3.19-1.51-4.75-3.53-9.27-6.47-13.37-1.67-2.34-3.84-3.98-6.51-4.96-1.8-.65-3.61-1.29-5.22-1.85-.37-.75-.78-1.24-.81-1.73-.06-1.07-.17-2.25.18-3.21,1.23-3.36,1.23-6.86,1.19-10.41-.05-4.9-.08-9.8.21-14.67.17-3.02-.17-5.99-.47-8.96-.11-1.08-.74-2.05-1.63-2.8-.57-.48-1.7-.7-2.27-.27-.4.31-.98.72-1.01,1.13-.13,1.88-.08,3.78-.1,5.67-.03,4.35.43,8.79-.19,13.03-.9,6.18-1.4,12.36-1.46,18.62,0,1.06-.37,2.08-.5,2.75-.69.67-.99,1.19-1.46,1.4-4.53,2.04-7.55,5.85-10.88,9.28-1.66,1.71-2.92,3.78-3.77,6.1-1.2,3.27-2.6,6.46-3.81,9.74-.94,2.53-2.15,4.88-3.51,7.2-1.81,3.1-4.18,5.5-7.41,7.06-1.45.69-2.9,1.39-4.29,2.18-1.69.95-2.75,2.48-3.52,4.23-.9,2.03.44,4.68,2.61,5.24,1.63.42,3.23.35,4.84.09,2.02-.33,3.71.42,5.05,1.96.7,1.34.55,2.68.49,4.04-.27,6.24-.46,12.49-.79,18.72-.13,2.43-.51,4.85-.9,7.24-.12.73-.66,1.38-1.02,2.08-.89.17-1.65.44-2.44.47-5.13.17-10.33-.41-15.33,1.09-1.23.37-2.7,0-4.06.03-.53,0-1.07.09-1.59.2-.85.18-1.48.77-1.65,1.54-.3,1.3-.47,2.65-.5,4-.09,4.07-.07,8.15-.1,12.23-1.09,1.52-2.17,3.02-3.32,4.61-.01,1.9.01,3.8-.05,5.7-.06,1.88-1.27,3.58-.68,5.58,1.01,2.72,2.91,3.87,5.76,3.43,1.59-.25,3.2-.44,4.8-.59.88-.08,2.27,1.09,2.42,1.94.15.81.35,1.61.39,2.42.12,3,.19,5.99.28,8.99.14,4.9-.09,9.79.94,14.68.33,1.55-.04,3.23-.14,4.85-.25,4.33-.69,8.65-.74,12.99-.07,5.96.88,11.96.13,17.91.67,4.6.02,9.2.64,13.83.51,3.78.62,7.63.61,11.43-.03,7.62-.09,15.19.95,22.83.7,5.12.42,10.34.5,15.51.09,5.44,0,10.87.72,16.32.46,3.51.25,7.07.3,10.61.06,3.54-.09,7.08.15,10.61.33,4.92.28,9.8.14,14.69-.07,2.44-.3,4.95.17,7.34,1.33,6.81,1.04,13.58.82,20.36-.08,2.44,0,4.89.05,7.34.1,4.35.43,8.72.33,13.06-.15,6.25-.53,12.48,0,18.76.13,1.61-.14,3.24-.2,4.88-.25,5.96-.83,11.9-.28,17.92.63,6.82.28,13.6-.06,20.39-.22,4.33-.17,8.69-.04,13.05.14,4.64.29,9.28-.22,13.85-.68,6.22-.67,12.47-.29,18.74.28,4.66-.06,9.25-.54,13.83-.1,1.03-.65,1.98-.96,2.9-4.62,2.03-9.02,3.96-13.43,5.89-2.8,1.22-5,3.03-6.07,5.83.29,2.48,1.94,4.14,3.03,6.02,1.25,2.15,1,4.9,3.29,6.92,1.36.12,2.97.27,4.57.42,1.89.17,3.9-.01,5.66.59,4.86,1.68,9.71,1.28,14.58,1.1,2.44-.08,4.88-.19,7.32-.21,2.99-.03,5.98.04,8.97.06,4.06.02,8.12-.59,12.2.32.78.17,1.67.17,2.43-.04,5-1.34,10.1-1.65,15.31-1.11.79.08,1.6-.24,2.41-.29,6.76-.42,13.46-1.4,20.3-1.11,4.62.2,9.25.21,13.87.35,1.9.06,3.83.39,5.7.27,2.15-.14,4.25-.64,6.48-1,2.03.58,4.12,1.29,6.25,1.74,1.31.27,2.69.2,4.04.19,1.17-.01,2.58-1.53,2.6-2.69.02-.81.1-1.66-.1-2.43ZM105.98,506.17c.08.24.01.52.01.74-.19.23-.32.56-.51.6-.43.08-.79-.32-.71-.93.05-.38.46-.7.71-1.05.17.21.42.39.5.63ZM106.84,142.65c.18-.44.67-.73,1.01-1.1.14.16.41.33.41.49.09,2.93.12,5.86-.47,8.72-.13.6-.71.87-1.31.62-.44-.19-.94-.55-1.13-.96-.22-.46-.18-1.06-.18-1.6,0-2.22.85-4.2,1.67-6.17ZM95.81,140c.25-.87,2.37-1.41,3.54-.98.49.18,1.2,1.34,1.22,1.96,0,.27.07.53.09.8.01.26,0,.53,0,1.45-.16,1.21-.39,3.06-.65,4.9-.12.86-1.26,1.74-2.31,1.83-1.39.11-2.65-.79-2.95-2.21-.16-.78-.43-1.63-.29-2.37.34-1.82.84-3.6,1.35-5.37ZM81.97,128.57c-.26.24-.43.5-.67.58-1.42.49-3.11-.07-3.36-1.14-.55-2.37-1.34-4.71-1.22-7.14.46-.3.85-.73,1.32-.84,1.09-.25,2.41.51,2.58,1.4.25,1.33.41,2.68.66,4.01.2,1.05.46,2.1.7,3.13ZM80.29,113.15c-.36.55-1.31,1.08-1.92.99-.63-.09-1.56-.9-1.67-1.5-.3-1.55-.22-3.15-.29-4.55.6-.51.94-.97,1.39-1.14,1.4-.52,2.87.3,3.12,1.6.33,1.64.25,3.25-.62,4.61ZM80.48,73.01c.53.34.7.8.42,1.34-.11.21-.36.33-.55.49-.16-.47-.36-.93-.43-1.4-.02-.12.37-.29.56-.43ZM76.42,83.66c.34-.89,1.13-.78,1.91-.51.99,1.81,1.97,3.63,2.41,5.67-2.88.93-4.95-.29-4.83-2.9.04-.76.24-1.54.51-2.25ZM75.8,144.81c.16-1.61.19-3.24.33-4.84.25-2.87,1.99-3.98,5.13-3.32.26.06.53.15.76.3.72.43,1.31.95,1.51,1.83.38,1.65-.02,3.21-.19,4.81-.12,1.09.54,2.04,1.44,2.81,1,.85,2.62.94,3.07,2.51-1.79.79-3.69.47-5.52.38-4.05-.19-8.1-.69-12.15-.33-1.03.09-2.13-.32-3.19-.55-.89-.19-1.94-1.45-2.1-2.34-.42-2.17-.33-4.31.01-6.44.21-1.32,1.27-2.25,2.79-2.38.94-.08,2.46.86,2.55,1.66.18,1.61.24,3.23.43,4.84.09.79.16,1.69.59,2.31.42.61,1.28,1.24,1.94,1.27.66.03,1.4-.6,1.95-1.1.36-.32.58-.92.64-1.42ZM66.88,121.63c-.07-.52.09-1.07.15-1.6.12-1.21,1.55-2.22,2.97-2.11,1.16.09,2.22.93,2.42,1.9.06.27.18.53.21.79.34,2.43.67,4.86,1.06,7.75q-2.67,1.11-4.99.3c-.29-.46-.74-.89-.85-1.37-.4-1.87-.71-3.77-.98-5.66ZM71.76,64.01c2.57,3.15,3.04,5.71,2.92,8.39-.01.22-.31.62-.43.6-.4-.07-1.01-.19-1.16-.48-1.27-2.45-1.46-5.02-1.33-8.5ZM72.15,106.75c.42.97.43,2.11.6,3.16-.17.83-.27,1.62-.49,2.38-.31,1.07-2.13,1.86-3.35,1.51-.85-.25-2.04-1.64-2.04-2.4,0-1.92.29-3.81,1.4-5.35.37-.51,1.42-.86,2.08-.74.67.12,1.52.81,1.8,1.44ZM39.88,85.06c1.19-1.41,2.41-2.79,3.58-4.13,1.01,0,1.82,0,2.61,0,2.24,0,3.16-.57,3.7-2.27.81-2.56,1.6-5.12,2.41-7.67,1.06-3.34,2.47-6.51,4.53-9.35.62-.85,1.02-1.86,1.49-2.81.11-.23.04-.54.07-1-.64-.65-1.37-1.39-2.11-2.13.72-1.89,2.24-2.96,3.99-3.71,3.97-1.7,7.27-.37,9.52,3.79.2.38.08.93.07,1.43.68.26,1.08.48,1.14.98.06.46.03,1-.18,1.38-.15.28-.54-.08-.63-.79-.06-.46-.1-.91-.16-1.37-.66-.24-1.16-.28-1.65-.31-1.15-.06-1.14-.03-2.57,1.39-.42,1.69.64,3.17.9,4.77.21,1.35.7,2.67.87,4.01.21,1.61.28,3.25.25,4.86,0,.41-.55,1.03-.96,1.13-1.04.24-2.14.23-3.21.33-.8.08-1.72-.02-2.37.34-2.34,1.28-4.8,2.25-7.36,3.03-.24.07-.43.31-.62.49-.58.55-1.1,1.13-1.11,2.03,0,.84.95,2.28,1.79,2.55.78.24,1.59.6,2.37.59,3.52-.02,7.07.45,10.53-.47.98-.26,2.16-.05,3.22.16.39.08.95.74.99,1.16.11,1.06.06,2.16-.1,3.2-.13.83-.78,1.33-1.62,1.52-.26.06-.53.17-.79.16-6.25-.32-12.51-.62-18.76-1.03-1.05-.06-2.16-.42-3.13-.9-1.37-.67-2.6-.5-3.92-.07-1,.33-2.08.5-2.94-.5.05-.26.02-.6.17-.78ZM48.57,119.56c.13-.52,1.21-1.2,1.92-1.09.79.14,1.72.39,1.94,1.22.49,1.8.77,3.64.96,4.59.17,1.68.37,2.48.3,3.25-.04.47-.41.95-.75,1.33-.45.51-1.77.66-2.19.24-.74-.76-1.7-1.54-2-2.47-.75-2.32-.77-4.73-.18-7.08ZM48.85,106.09c.28-1.11,1.86-1.52,3.18-.8.23.12.39.36.8.74,0,1.38.03,2.94-.06,4.49-.03.47-.4.92-.63,1.37-.31.6-1.45,1.01-2.02.65-.44-.29-1-.61-1.17-1.03-.69-1.8-.55-3.63-.1-5.43ZM49.63,138.05c.08-.79,1.82-1.71,2.55-1.33,2.17,1.12,4.64,1.68,6.41,3.54.84,2.11,1.09,4.25.45,6.36-.14.44-.7.73-1.22,1.24-.95-.04-2.03-.05-3.11-.15-4.18-.42-5.24-1.5-5.39-5.66-.05-1.34.15-2.68.3-4ZM58.37,128.19c-1.28-2.45-1.62-5.1-1.57-7.8.04-2.02,3.01-3.54,4.85-2.35.6.39,1.17,1.24,1.29,1.93.46,2.63.73,5.28,1.1,8.19-1.26,1.67-2.46,2.06-3.84,1.49-.7-.29-1.51-.82-1.83-1.46ZM57.07,110.81c-.02-1.33.06-2.65.26-3.95.21-1.36,1.58-2.32,2.84-2.18,1.35.14,2.55,1.28,2.67,2.6.07.79.08,1.6.1,2.28-.07.65-.11,1.18-.18,1.7-.17,1.16-1.53,2.1-2.95,2.05-1.26-.04-2.72-1.28-2.74-2.5ZM43.85,126.35c-.57,1.26-1.5,2.19-3.11,1.95-.15-.23-.38-.44-.43-.69-.62-3.23-.52-6.43.25-9.57.13-.5.75-.66,1.33-.39.48.22.99.56,1.28.99,1.71,2.48,1.86,5.1.68,7.7ZM44.11,144.43c.04.34-.53.82-.93,1.08-.52.34-1.08.17-1.44-.33-.32-.45-.7-.89-.86-1.39-.62-1.87-.67-3.78-.03-5.59.24-.67.86-1.22,1.87-.86.84,2.27,1.12,4.69,1.39,7.1ZM41.26,108.73c.17-1.25.24-2.33.49-3.37.1-.42.52-.8.87-1.08.35-.28,1.59.89,1.69,1.55.31,1.91.29,3.77-.39,5.56-.09.24-.25.54-.47.63-.43.2-.92.33-1.4.36-.13.01-.42-.4-.46-.64-.15-1.05-.25-2.12-.34-3.01ZM25.03,137.24c.47-1.02,1.25-1.76,2.44-1.76,1.34,0,2.69.07,4.01.27.44.07,1.05.59,1.18,1.02.83,2.66,1.05,5.37.06,7.95-.25.65-1,1.34-1.67,1.5-1.81.45-3.72.7-5.59.04-.45-.16-.78-.71-1.21-1.13-.4-2.69-.37-5.37.78-7.9ZM12.65,139.11c.23-1.93,1.92-2.87,4.18-2.38.45.09.86.55,1.24.89.18.17.32.46.35.7.15,1.33.26,2.66.37,3.92,0,.87.02,1.68-.02,2.47-.05,1.11-.4,2.19-1.44,2.58-1.26.47-2.67.39-3.77-.59-.56-.5-1.13-1.34-1.16-2.03-.08-1.85.03-3.72.24-5.56ZM19.47,159.97c-2.12.15-4.21.83-6.41.69-.53-.03-1.06-.23-1.59-.34-.52-.11-1.31-1.32-1.27-1.98.1-1.45.69-2.67,2.03-3.19,1.23-.48,2.58-.81,3.91-.9,5.94-.44,11.9-.73,17.85-1.15,7.33-.51,14.62-.05,21.96,1.05,5.66.85,11.41,1.03,17.11,1.37,4.08.24,8.16.27,12.25.34,5.46.1,10.86.63,16.23,1.96,2.37.59,4.85.59,7.29.9.83.11,1.55.54,1.88,1.35.35.86-.12,1.58-.54,2.26-.74,1.18-1.83,1.9-3.41,2.34-1.36-.39-2.91-1.01-4.51-1.25-1.61-.24-3.27.07-4.88-.13-5.44-.7-10.84-.83-16.2.02-9.78-.2-19.56.02-29.32-1.92-7.3-1.46-14.64-1.42-21.94-.56-1.34.15-2.71.49-4.03.32-2.15-.26-4.33-1.33-6.39-1.18ZM71.06,498.83c-8.13.1-16.26.36-24.41.24-1.87-.03-3.72.58-5.6.71-1.61.12-3.24.01-4.86-.04-.91-.03-1.89-1.23-1.99-2.31-.1-1.21.45-2.39,1.29-2.71.5-.19.98-.47,1.49-.53,1.07-.13,2.15-.17,3.24-.2,6.22-.17,12.47-.17,18.69-.33,6.49-.17,13.04.35,19.56.57,6.52.12,13.05.4,19.57.76.76.04,1.59.43,2.24.87.33.21.39.92.46,1.42.02.14-.31.39-.52.47-.49.18-1,.39-1.53.41-9.2.37-18.42.53-27.64.66ZM95.86,509.43c-.84.47-1.46,1.01-2.2,1.18-1.82.44-3.35-.65-3.51-2.36-.05-.53-.11-1.08-.08-1.61.07-1.34.1-2.83,1.48-3.43,1.5-.65,3.11-.66,4.43.73.81,1.92-.09,3.66-.12,5.48ZM84.35,510.39c-.53.1-1.06.23-1.59.23-4.07.05-8.13.09-12.2.07-5.42-.04-10.82-.27-16.24-1.09-3.76-.58-7.59-.7-11.38-.83-.99-.03-2,.6-2.96,1.02-.57.25-.91,1.43-.71,2.13.23.82,1.04,1.52,1.78,1.36,4.55-1,9.09-.67,13.69.3,2.68.57,5.41.52,8.12.21,2.73-.3,5.38.32,7.95,1.39.61.26.71.78.34,1.36-.13.21-.26.48-.46.56-.49.2-1.01.41-1.53.4-7.06-.18-14.12-.09-21.15-1.41-1.32-.25-2.69-.13-4.04-.16-2.43-.05-4.86-.06-7.3-.13-.9-.04-2.1-1.27-2.31-2.13-.51-2.17-.43-4.32-.13-6.47.16-1.14.85-1.88,1.85-2.42,1.44-.79,2.98-1.18,4.62-1.29,6.74-.47,13.5-.79,20.29-.8,1.9,0,3.79-.06,5.67-.23,6.21-.57,12.44.02,18.81.08,1.57,2.71.94,4.53.53,6.33-.18.77-.78,1.37-1.65,1.54ZM84.82,514.42c-.12.39-.11.92-.36,1.08-1.8,1.19-3.86,1.41-6,1.06-.45-.07-.85-.48-1.48-.86.54-.53.97-1.35,1.55-1.45,2.04-.38,4.13-.49,6.28.17ZM33.99,488.99c-.71-1.35-.69-2.6.83-3.62,3.09,0,6.35.27,9.59.66,7.08.84,14.11.92,21.09-.33,1.85-.33,3.78-.47,5.67-.38,6.25.28,12.5.65,18.75,1.08,1.44.1,2.52.98,2.82,2.57-.35,1.07-1.02,1.89-2.22,1.95-1.61.1-3.24.13-4.87.07-8.43-.29-16.86-.59-25.29-.92-3.81-.16-7.58-.16-11.37.16-4.03.35-8.14.11-12.22.12-1.13,0-2.2-.26-2.78-1.36ZM97.03,478c.07-.89.76-1.35,1.52-1.55.82-.21,1.45.33,1.93.98.15.19.19.48.33.87-.37.84-.7,1.83-1.25,2.68-.19.29-.92.42-1.33.3-.43-.13-.99-.58-1.09-.97-.2-.74-.17-1.55-.11-2.31ZM100.06,489.78c-.4.2-.98.14-1.46.08-.92-.12-1.47-.8-1.32-1.52.17-.83.72-1.31,1.54-1.33,1.24-.03,2.14.72,2.06,1.7-.26.37-.45.89-.81,1.06ZM99.24,471.73c-1.15.02-2.18-.9-2.13-1.91.06-1.19.87-2.24,1.76-2.26.95-.02,2.01.99,2.11,2.03.11,1.15-.68,2.13-1.75,2.14ZM97.2,460.23c.17-1.02,1.34-2.08,2.17-1.72.65.28,1.11,1.03,1.49,1.39.09,1.34-.86,2.54-1.75,2.54-.91,0-2.06-1.32-1.91-2.2ZM100.32,453.74c-1.76.62-3.65.91-5.48,1.37-2.11.54-2.46,1.22-1.92,3.5.12.53.32,1.04.42,1.58.17.99-.75,2.33-1.67,2.38-1.62.1-3.24.13-4.86.19-2.71.09-5.42.13-8.12.31-.36.02-.73.65-.94,1.07-.3.58.56,1.79,1.24,1.83,2.71.18,5.43.33,8.14.5,1.63.1,3.26.21,4.88.38,1.62.18,2.35,2.09,1.46,3.74-.13.22-.36.39-.7.74-3.31.62-6.87-.05-10.38.11-4.33.19-8.69.08-13.03.16-5.16.09-10.31-.55-15.44-1.15-3.8-.45-7.59-.83-11.38-.56-.93.08-1.1.97-1.08,2.07.96.26,1.98.72,3,.79,11.97.73,23.94,1.39,35.91,2.08,3.53.2,7.06.4,10.59.65.89.06,1.95,1.29,2.12,2.3.37,2.21-.88,3.97-2.88,3.89-4.63-.18-9.26-.4-13.88-.66-3.27-.17-6.51-.18-9.71.55-7.99,1.8-16.11,1.7-24.3.55-2.43-.34-4.88-.43-7.43-.64-.43-.65-1.25-1.35-1.25-2,.05-7.87-.73-15.78.47-23.59.61-4,.77-8.15-.09-12.2-.63-3-.64-5.98-.79-8.96-.33-6.53-.27-13.04-1.08-19.57-.6-4.87-.34-9.8-.39-14.7-.04-3.81.06-7.61.07-11.42.03-6.8.03-13.6.04-20.4,0-.27-.01-.54-.04-.82-1.37-11.69-.5-23.38-1.53-35.08-.72-8.15-1.2-16.32-1.2-24.48,0-.81-.02-1.66-.24-2.44-1.55-5.38-1.14-10.84-1.35-16.27-.13-3.54-.15-7.08-.17-10.62-.01-2.18-.09-4.33-.57-6.5-.36-1.58-.33-3.25-.39-4.88-.37-10.62-.79-21.24-.47-31.85.1-3.25,0-6.49-.42-9.78-.69-5.41-.7-10.87-.5-16.39.87-.99,1.72-1.97,2.57-2.94.1-.53.3-1.05.29-1.57-.17-6.81.19-13.56,1.25-20.24.1-.61.62-.89,1.24-.79.16.03.39.3.41.47.13,1.08.21,2.16.32,3.24.19,1.9.32,3.8.6,5.69.18,1.21,1.05,1.83,2.25,1.92.66-.92.69-1.98.67-3.08-.07-4.36-.16-8.72-.14-13.06,0-1.33.33-2.64.48-3.68,1.34-1.16,2.61-1.67,4-1.21,2.41.79,4.7,1.08,7.21.49,1.77-.42,3.77-.1,5.66.09,1.9.18,3.78.63,5.67.92,4.08.63,8.19.96,12.2.29,4.8-.81,9.13.51,13.84,2.71.66-.18,1.67-.49,2.7-.73.96-.22,1.88.07,2.08.77.12.44-.11.97-.22,1.71-1.01.02-2.07.1-3.14.04-7.89-.44-15.78-.95-23.67-1.33-2.99-.14-5.98-.06-8.96.04-.77.03-1.51.49-2.25.78-.55.21-.93,1.51-.49,2.11.3.41.8.68,1.24,1.04,1.85-.15,3.73-.39,5.62-.43,1.9-.04,3.81.08,5.72.19,7.07.4,14.15.79,21.22,1.24,1.9.12,3.83.32,5.55,1.36.22.13.53.5.48.62-.15.39-.37.93-.7,1.03-1.02.31-2.15.32-3.15.68-.99.35-2.09.78-2.75,1.53-1.08,1.22-2.3,2.17-3.6,3.1-1.29.93-2.42,2.07-3.77,3.25-1.5.07-3.11.13-4.72.22-1.93.1-3.76.57-5.35,1.61-.29.19-.32.85-.34,1.3,0,.16.39.45.62.5,1.06.21,2.14.43,3.21.49,2.17.12,4.35.12,6.52.23,1.2.06,2.39,1.36,2.62,2.81.08.53.08,1.09.03,1.62-.13,1.32-1.48,2.71-2.61,2.61-2.44-.23-4.87-.56-7.31-.79-1.11-.1-2.18.22-3,.94-.33.3-.61.9-.55,1.33.06.46.46,1.07.86,1.27.71.35,1.54.56,2.33.62,2.72.19,5.43.29,7.84,1.24,1.58.89,1.63,2.37,2.14,3.61.96,2.36,2.17,3.11,4.34,2.87,2.47-.27,4.75-.88,6.48-2.8.69-.77,1.61-1.34,2.19-1.81,2.34-.12,3.51.92,3.79,2.79.16,1.04-.01,2.15-.22,3.18-.09.44-.6.95-1.03,1.09-1.01.31-2.09.62-3.14.55-4.07-.27-8.14-.72-12.21-1.05-3.26-.27-6.52-.51-9.78-.67-.79-.04-1.58.26-2.37.42-.73.14-1.42,1.08-1.29,1.72.13.61,1.13,1.61,1.68,1.69.81.12,1.61.3,2.42.34,7.61.46,15.23.87,22.84,1.34.79.05,1.58.34,2.36.52.59.14,1.26,1.21,1.03,2.01-.2.69-.75,1.27-1.1,1.83-7.46-1.45-10.74-1.78-17.24-1.61-.78.02-1.54.39-2.29.62-.47.15-.59,1.77-.22,2.17.8.84,1.78,1.44,2.88,1.36,4.09-.29,8.12.73,12.19.99.96.06,2.05.12,2.91,1.29-1.4.3-2.68.56-3.97.84-1.32.28-2.66.5-3.95.86-.76.21-1.5.58-2.12,1.04-.38.28-.7.89-.68,1.35.02.36.61,1.01.94,1.02,3.53.15,7.06.16,10.59.28,1.09.04,2.17.3,3.01,1.15.16.16.17.47.26.71.25.65.09,1.17-.54,1.28-1.31.22-2.63.48-3.95.49-2.17.02-4.36-.26-6.52-.17-1.58.07-3.23.33-4.15,1.9.4,1.16,1.25,1.8,2.37,2.09,1.05.27,2.16.37,3.17.76.76.29,1.28.96,1.38,1.89.12,1.15-.01,2.26-1.01,2.85-.88.54-1.93.89-2.96,1.12-2.6.55-5.39-.03-7.92.97-.17.06-.29.49-.25.73.03.21.33.59.46.58,4.85-.58,9.71.34,14.56.61,1.6.09,3.2.72,4.79,1.12.26.07.5.23.75.35,1.13.54,1.56,1.55,1.64,2.66.1,1.39-.06,2.76-1.42,3.5-.7.38-1.46.77-2.24.87-4.82.59-9.44,2.27-14.41,2.02-.81-.04-1.63.09-2.42.24-2.1.39-4.18.84-6.45,1.3.4.45.63.92.9.96,2.73.42,5.41.29,8.1-.18,5.36-.94,10.79-.83,16.23.14.24.04.45.27.71.43,1.31,1.75,1.03,3.53.27,5.31-1.17.5-1.88.13-2.57-1.03-.82-1.38-1.82-1.42-2.25-.11-.88,2.7-2.89,3.68-5.42,4.1-.8.14-1.61.19-2.42.27-4.31.4-8.51,1.43-12.87,1.53-1.05.03-2.09.49-3.08.89-.34.14-.49.72-.73,1.09.23.14.46.33.71.42.25.09.54.14.8.11,2.68-.31,5.34-.72,8.03-.95,2.43-.2,4.85-.29,7.24-.85,1.81-.43,3.74-.48,5.51.13,2.81,4.92,2.94,5.93,1.24,9.18-4.93.99-10.07,1.16-15.23,1.25-1.88.03-3.84-.26-5.57.68-.44.24-.79.72-1.05,1.16-.25.43.78,1.76,1.34,1.85.27.04.53.21.79.2.81-.03,1.62-.15,2.43-.17,4.34-.07,8.68-.17,13.03-.14,1.32.02,2.65.41,4.15.66.34,1.18.79,2.19.89,3.24.22,2.19-1.05,3.73-3.09,3.93-4.85.47-9.71.85-14.54,1.4-3.22.37-6.4.95-9.6,1.45-.62.1-1.35,1.54-.96,1.91.38.36.93.86,1.34.82,4.84-.39,9.66-.93,14.5-1.31,2.96-.23,5.95-.32,8.92-.39,1.39-.03,2.44,1.11,2.59,2.66.07.81.12,1.64.07,2.45-.07,1.15-.59,2.11-1.68,2.5-1.5.53-3.2.54-4.45,1.71-.69.65-.6,1.36-.11,2.18,1.26.96,2.55.02,3.84.08,1.23.05,2.34.59,2.67,1.56.44,1.3.79,2.62,1.14,3.94.15.56-.58,1.71-1.19,1.89-.77.22-1.58.32-2.35.55-.92.27-1.38,1.13-1.06,1.81.38.81.96,1.28,1.84,1.36,1.36.11,2.72.16,4.06.36.38.06.7.52,1.07.81-2.48,1.63-5.88.85-8.12,2.95.15,1.29.99,2.05,2.16,2.02,2.4-.07,4.73-1.23,7.19-.1.24.11.57.31.61.5.09.5.23,1.33.01,1.45-1.67.89-2.74,2.35-4.02,3.65-1.24,1.25-3.15,1.83-4.68,2.83-.22.14-.05.97.06,1.46.05.22.36.47.59.55.52.17,1.06.24,1.6.34,2.83.5,3.13.84,3.16,3.62,0,.55,0,1.1-.04,1.63-.05.53-.17,1.06-.26,1.59-.5,1.75-2.47,1.98-3.37,3.26-.24.34-.05.99-.05,1.52,1.64.89,3.32,1.81,5.28,2.87.98-.35,2.18-.84,3.43-1.21.59-.18,1.07.17,1.33.7.86,1.79.2,3.67-1.39,3.84-2.68.3-5.38.58-8.07.77-.5.04-1.03-.27-1.78-.5-1.08-1.69-2.17-3.59-3.46-5.35-1.03-1.39-2.58-2.06-4.31-2.12-1.45-.06-2.59.44-3.35,1.74-.96,1.64-1.59,3.39-1.69,5.33-.14,2.7-.28,5.42-.46,8.12-.06.91-1.17,2.03-2.08,2.18-1.85.3-3.72.5-5.54.91-.77.18-1.1.95-.81,1.82,2.04,1.16,4.29.38,6.39.94.49.13.93.53,1.36.85.21.16.32.44.6.84-.01,1.98-.02,4.14-.04,6.36-.8.36-1.49.88-2.23.97-1.87.23-3.78.21-5.65.43-.36.04-.74.62-.93,1.04-.27.58.65,1.72,1.37,1.75,1.34.06,2.72.22,4.03.05,6.2-.83,12.47-.35,18.72-.35.26,0,.52.2.78.26.73.13,1.49,1.06,1.44,1.78-.06.87-.43,1.58-1.16,1.94-.69.35-1.49.62-2.27.67-1.89.15-3.79.17-5.7.2-2.44.03-4.86.18-7.28.57-2.65.42-5.4.33-8.1.55-.79.06-1.59.29-2.28.63-.4.2-.78.8-.79,1.25,0,.33.58.93.95.99,3,.49,5.95.16,8.93-.12,3.23-.3,6.48-.51,9.74-.5,2.15,0,4.34-.36,6.34.35,1.72.92,2.45,2.4,3.18,4.1-.63.33-1.25.88-1.94.96-2.95.36-5.92.64-8.89.84-3.51.24-7,.61-10.27,1.85-.31.12-.56.93-.45,1.35.1.39.66.73,1.08,1,.2.13.55.13.8.07,4.48-1.2,9.12-1.04,13.74-1.06,1.07-.01,2.15.27,3.22.46,1.04.18,1.83,1.19,1.93,2.36.12,1.55-.68,3.05-1.74,3.27-.53.11-1.04.31-1.57.33-1.36.04-2.72-.03-4.08,0-3.8.09-7.6.18-11.4.33-1.26.04-1.86.85-1.94,2.06,1.12.99,2.5,1.03,3.85,1.05,4.08.05,8.16.05,12.24.11.81,0,1.61.21,2.42.31.53.06,1.74,1.06,1.79,1.57.13,1.36.29,2.71.29,4.06,0,1.36-1.17,2.55-2.59,2.56-4.1.01-8.04.96-12.09,1.31-.5.05-1.06.28-1.44.61-.37.32-.75.85-.74,1.3,0,.35.6.99.94,1.02,1.61.09,3.27.2,4.84-.07,2.68-.45,5.36-.7,8.09-.56,1.26.06,2.67,1.49,2.47,2.8-.36,2.44-.01,4.81.34,7.26.46,3.22.24,6.51.5,9.77.04.56,1.02,1.09,1.5,1.58,1.49-.41,2.75-.81,4.05-1.09.86-.19,2.31,1.16,2.11,2.09-.15.71-.63,1.67-1.21,1.88ZM29.48,485.34c.07,1.61.1,3.26-.69,4.73-.43.79-1.13.89-1.95.71-.73-1.26-.6-2.63-.59-3.97.05-6.49.3-12.99.16-19.49-.28-13.28.43-26.51-.14-39.8-.2-4.86.24-9.72.47-14.59.03-.71.46-1.38.74-2.16.25.37.52.58.55.83.58,4.57,1.34,9.13,1.32,13.75-.03,7.05.39,14.09,1.23,21.13.26,2.15.31,4.37,0,6.47-.45,2.94-.53,5.89-.57,8.87-.12,7.85-.84,15.65-.51,23.53ZM29.22,497.88c.02,5.09-.02,10.18-.07,15.26,0,.19-.25.37-.39.56-1.78-1.22-2.22-3.11-2.31-4.97-.18-4.02-.15-8.06-.13-12.09,0-.36.57-.95.88-.95.45,0,.99.39,1.33.76.34.38.68.96.68,1.42ZM24.46,309.2c1.82,1.17,1.86,2.82,2.15,4.37-1.2,2.32-.12,4.69.06,7.05.12,1.59-.04,3.18-.09,5.39-.88-1.09-1.7-1.65-1.77-2.27-.6-4.79-.18-9.58-.35-14.54ZM26.09,333.09c.03-.15.23-.26.36-.4.72,1.55.65,3.2.72,4.81.21,4.86.06,9.73.91,14.59.12.69-.32,1.02-.76.8-.23-.12-.47-.33-.6-.55-.27-.47-.63-.97-.68-1.47-.49-5.94-1.01-11.9.05-17.78ZM27.46,357.12c.41.65.8.99.8,1.33.09,13.06.79,26.12.11,39.14-.05,1.01.02,2.07-.85,2.8-.15-.24-.42-.48-.42-.71-.17-6.8-.63-13.61-.36-20.37.3-7.28-.56-14.66.72-22.19ZM37.15,168.71c.06-.41.41-.87.77-1.09.52-.33,1-.07,1.27.52-.13.43-.13,1.02-.42,1.28-.57.5-1.71-.02-1.61-.71ZM45.26,169.06c-.05-.63.13-1.06.77-1.21.51-.12,1.03-.29,1.55-.26,1.08.06,2.17.14,3.22.4,6.11,1.52,12.3,1.93,18.5,2.11.77.02,1.55.38,2.61.66-.66.68-1.09,1.56-1.7,1.68-3.19.63-6.45.36-9.66-.18-4.54-.76-9.09-1.45-13.67-1.78-.26-.02-.52-.13-.77-.23-.61-.24-.81-.65-.86-1.2ZM77.26,170.59c1.03-.24,2.01-.1,2.74.86-.79.82-1.77.82-2.8.51-.22-.07-.44-.29-.58-.49-.23-.34,0-.73.64-.88ZM86.23,172.13c-.16-.56.1-.96.75-1.09.93-.18,1.62.27,1.68,1.05-.24.44-.37,1.02-.74,1.27-.48.33-1.45-.44-1.69-1.24ZM92.98,197.11c-1.1.4-2.15.14-2.92-.69-.52-.57-.86-1.37-1.12-2.12-.37-1.06.42-2.07,1.6-2.13.53-.03,1.06-.04,1.6-.06,1.17.07,2.24.86,2.44,1.76.31,1.39-.37,2.79-1.6,3.23ZM93.3,207.56c-.11.62-1.26,1.25-1.88.94-.43-.22-1.01-.57-1.13-.96-.56-1.86-.64-3.7.69-5.25.52-.02,1.04-.03,1.56-.04,1.5,1.64,1.07,3.48.76,5.31ZM96.92,249.02c.7.55.88,1.31.84,2.14-.05.92-.68,1.41-1.44,1.62-2.13.6-4-.52-4.31-2.75.3-.44.58-1.34,1.16-1.61,1.24-.56,2.59-.33,3.75.59ZM98.29,347.06c1.08,2.11,1.4,4.03.07,6.13-1.24-2.25-1.22-4.15-.07-6.13ZM96.45,324.31c-.84-1.59-.5-3.09.1-4.57.43.12.99.13,1.26.41.34.35.62.93.63,1.4.02,1.38-.34,2.57-1.99,2.76ZM98.46,312.13c-.21.37-.82.71-1.25.69-.39-.02-.97-.49-1.1-.87-.43-1.27-.69-2.59-.99-3.79.36-.57.55-1.08.92-1.41.76-.68,2.38-.14,2.64.76.45,1.59.6,3.18-.21,4.63ZM97.56,301.09c-.14.16-.53.18-.76.11-.2-.07-.38-.35-.47-.57-.62-1.6-.66-3.14.37-4.55,2.34,1.38,2.64,3.08.87,5ZM97.29,286.52c-.03.11-.38.16-.57.13-.24-.03-.56-.1-.68-.27-.99-1.41-1.17-2.91-.25-4.33.22-.33.82-.43,1.27-.56.07-.03.36.32.4.53.16.75.27,1.52.41,2.35-.18.69-.34,1.43-.58,2.15ZM88.46,379.81c0-.5.13-1.01.28-1.49.21-.65,1.15-1.07,1.97-.79.45.16.92.53,1.2.92.3.42.51.99.53,1.49.07,1.32,0,2.64,0,4-.77,1.53-2.23,2.05-3.85,2.14-.67.03-1.37-.3-2.19-.49.85-1.26,1.56-2.33,2.3-3.41-.09-.79-.23-1.58-.24-2.37ZM91.08,373.63c-1.44.32-3.09-.52-3.32-1.57-.45-2.14.61-3.9,2.48-4.24,2.65-.47,5.3-.39,7.98.06,1.52.25,2.41,1.88,2.02,3.8-.23,1.1-1.24,1.89-2.25,1.7-.52-.1-1.03-.34-1.55-.49-.52-.14-1.05-.25-1.55-.37-1.28.38-2.53.82-3.82,1.11ZM97.35,390.43c.25-.76,1.3-.98,1.98-.34.38.35.58.88.87,1.34-.16.49-.17,1.12-.5,1.42-.32.3-1.01.45-1.44.33-.98-.3-1.32-1.49-.92-2.74ZM98,378.07c.49.26,1.17.37,1.38.74,1.06,1.83.86,3.61-.39,5.18-.2.24-.83.13-1.29.18-.75-2.13-.93-4.18.3-6.1ZM99.99,398.77c1.33.17,2.13,1.4,1.9,2.93-.19,1.27-1.38,1.93-2.98,1.66-1.12-.2-2.02-1.12-2.04-2.1-.03-1.67,1.29-2.72,3.12-2.5ZM96.88,434.16c-.04-1.04.02-2.18.43-3.09.26-.59,1.23-1.16,1.89-1.14.65.02,1.51.65,1.91,1.26.42.63.4,1.55.53,2.14-.2,1.3-.61,2.2-1.77,2.59-1.39.46-2.94-.36-2.99-1.76ZM99.93,444.93c-1.07.15-2.1-.51-2.47-1.56-.41-1.16.62-2.32,2.53-2.54.42.3,1.28.6,1.58,1.17.63,1.22-.33,2.76-1.64,2.94ZM101.07,424.58c-.41.6-1.35.91-2.14.54-.48-.22-.88-.63-1.31-.96-.52-1.32-.62-2.63-.17-3.95.33-.98,1.31-1.71,2.45-1.59.47.05,1.11.33,1.35.72,1.18,1.81.98,3.57-.18,5.24ZM101.02,413.2c-1.39.46-2.55.1-3.5-1.14,0-.49-.1-1.04.03-1.52.47-1.72,2.11-2.46,3.64-1.54.6.36,1.14,1.14,1.35,1.83.29.93-.55,2.04-1.52,2.36ZM28.36,522.62c8.6.41,17.85.84,27.09,1.28,4.63.22,9.25.45,13.88.63,1.63.07,3.28.12,4.89-.03,5.38-.5,10.75-1.13,16.14-1.61,5.97-.53,11.93-.35,17.8,1.75.76-.2,1.56-.34,2.29-.63,3.66-1.46,6.87-.72,9.69,2.16-.03.88-.31,1.72-1.18,1.79-2.97.22-5.94.46-8.92.38-5.72-.15-11.43-.53-17.15-.77-2.18-.09-4.39-.31-6.52-.06-5.71.68-11.37.12-17.08-.66-3.23-.44-6.56-.69-9.76-.4-4.34.38-8.67.39-13.02.26-5.72-.16-11.41-.28-17.11.2-2.93.24-5.94.41-9.05-.02,1.3-1.9,1.28-1.94,8-4.26ZM126.84,535.42c-7.56.38-15.11.8-22.61,1.69-.54.06-1.08.09-1.62.1-7.86.06-15.64,1.06-23.52.93-2.98-.06-5.94.3-8.9.5-4.58.3-9.22.02-13.83-.06-5.16-.08-10.32-.24-15.48-.3-1.62-.02-3.24.19-4.86.27-1.62.09-3.24.29-4.86.22-5.97-.3-11.93-.75-17.9-.75-.51,0-1.03-.34-1.65-.56-.38-.63-.93-1.29-1.18-2.04-.14-.41.19-.99.4-1.45.1-.2.38-.39.62-.45,1.03-.3,2.06-.65,3.12-.79,6.95-.91,13.86-1.89,20.95-1.96,7.32-.08,14.65-.04,21.97-.06,4.89,0,9.77,0,14.67.61,1.89.23,3.8.24,5.7.31,13.86.53,27.71,1.03,41.57,1.56,2.17.09,4.35.17,6.51.4.76.08,1.48.6,2.3.95-.54.35-.94.85-1.38.87Z"/>
      <path class="cls-1" d="M39.65,244.68c-1.32-1.88-4.1-2.2-5.74-.83-2.59,2.17-3.87,5.01-4.05,8.37-.09,1.6-.04,3.26.22,4.86.62,3.79.64,7.56.35,11.33-.04.53.02,1.08.04,1.62.06,1.55,1.72,2.94,3.4,2.91,2.72-.06,5.34-.47,7.59-1.66,1.05-1.17,1.33-2.48,1.45-3.82.21-2.41.47-4.82.47-7.24,0-2.42-.31-4.85-.43-7.28-.15-3.1-1.54-5.75-3.3-8.25Z"/>
    </g>
  </g>
</svg>