<?xml version="1.0" encoding="UTF-8"?>
<svg id="Layer_2" data-name="Layer 2" xmlns="http://www.w3.org/2000/svg" viewBox="0 0 198.69 192.32">
  <defs>
    <style>
      .cls-1 {
        fill: #6d442f;
        fill-rule: evenodd;
      }
    </style>
  </defs>
  <g id="_Layer_" data-name="&amp;lt;Layer&amp;gt;">
    <g>
      <path class="cls-1" d="M78.45,136.81l-.14.28.24.02-.1-.3h0ZM107.45,141.15c.03-.12.01-.27-.03-.38-.05-.12-.17-.21-.25-.32-.12.22-.33.44-.34.67,0,.32.22.46.43.35.1-.06.17-.2.2-.32h0ZM102.16,137.75c.74-.32,1.04-.85.88-1.61-.02-.11-.18-.27-.29-.28-.47-.03-1,.46-1.09,1.06-.04.24.1.51.2.75.02.06.19.06.3.08h0ZM84.59,159.68c-1.42,1.85-1.63,3.73-1.98,5.56-.02.1.12.33.21.34.24.03.5,0,.74-.06.12-.03.29-.18.31-.29.28-1.69,1.06-3.32.71-5.55h0ZM119.93,158.2c-.09-.61-.11-1.05-.24-1.45-.08-.22-.33-.43-.56-.55-.3-.15-.6-.02-.72.31-.34.95-.66,1.9-.95,2.87-.08.27-.01.57-.01.86,0,.32.66.8.97.63.37-.2.84-.42.99-.76.29-.64.39-1.37.53-1.91h0ZM112.2,158.56c.1-.47,0-.05-.08.37-.03.14-.08.32-.02.42.11.18.28.36.47.48.05.03.29-.1.35-.21.21-.37.5-.74.56-1.15.31-2.01,1-3.9,1.74-5.78.15-.39.17-.84.21-1.26.01-.12-.1-.26-.19-.37-.16-.21-.49-.22-.66.08-1.13,2.03-1.57,4.31-2.38,7.41h0ZM71.63,151.12c.29-.33.63-.61.84-.97,1.32-2.21,2.62-4.45,3.91-6.68.14-.24.26-.5.33-.77.08-.29-.08-.51-.41-.57-.13-.03-.32-.03-.42.03-.23.15-.49.33-.63.56-1.59,2.54-2.99,5.19-3.86,8.08-.02.07.14.21.24.34h0ZM100.71,157.8c.12-1.28.25-2.56.36-3.85,0-.1-.22-.32-.25-.31-.24.12-.61.24-.66.43-.64,2.52-1.25,5.05-1.81,7.59-.15.69-.14,1.44-.15,2.16,0,.28.12.56.2.83.1.32.34.52.66.44.24-.07.58-.24.64-.42.62-2.24,1.06-4.51,1.02-6.86h0ZM87.61,133.03c.3-.17.83-.29.95-.57.5-1.18.8-2.43,1.3-3.6.96-2.25,1.4-4.65,2.05-6.98.15-.52.03-1.12-.03-1.69-.04-.34-.3-.49-.57-.43-.14.02-.3.04-.39.13-.19.2-.41.42-.49.68-1.21,3.66-2.41,7.32-3.59,10.99-.08.25-.04.59.07.83.11.22.39.37.7.64h0ZM71.32,166.61c.68.8,1.52.69,2.33.34.35-.16.68-.54.85-.91,1.54-3.42,2.52-7.01,3.21-10.56-.29-1.25-.55-2.36-.82-3.47-.02-.07-.17-.1-.26-.16-.23.17-.52.29-.68.51-.85,1.18-1.32,2.53-1.7,3.92-.94,3.45-1.95,6.88-2.93,10.32h0ZM110.54,144.95c1.37,1.08,1.7,2.35,1.1,3.89-1.77,4.58-3.21,9.28-4.52,14.02-.08.28-.18.54-.28.82-.26.77-1.03,1.34-1.58,1.15-.6-.22-.9-.7-1.02-1.29-.16-.87-.18-1.76.13-2.58,1.4-3.64,2.12-7.51,3.98-10.99.67-1.25.82-2.77,1.29-4.13.12-.35.57-.59.87-.89h0ZM137.64,163.16c-1.23.29-2.63.63-4.03.97-.98.24-2.01.36-2.93.74-.91.38-1.71,1.03-2.61,1.58h-2.57c.35.95,1.16,1.13,1.81,1.06,3.02-.33,6.04-.43,9.07-.39.86.01,1.74-.07,2.59-.23,4.14-.75,8.33-.77,12.51-.84,3.03-.05,6.06.24,9.09.22,2.46,0,4.9-.06,7.37.68.19-.46.35-.8.56-1.28-2.69-.38-5.23-.88-7.83-.94-3.47-.06-6.93-.1-10.39-.21-1.29-.04-2.59-.23-3.88-.36-.86-.1-1.72-.21-2.58-.31-1.86-.21-3.72-.42-6.17-.7h0ZM88.83,164.95c-.53-1.32-.16-2.55.27-3.65,0-.29.04-.45,0-.57-.22-.69-.46-1.36-.76-2.24.11-1.69.27-3.53.75-5.37,1.04-4.05,2.19-8.07,3.51-12.05,1-3.01,1.95-6.05,3.16-8.98.27-.66.62-1.3,1-1.91.13-.22.45-.34.71-.44.23-.09.85.52.88.83.03.28.12.58.06.85-.55,2.24-1.12,4.48-1.71,6.71-.48,1.81-1,3.61-1.51,5.42-.12.42-.17.86-.34,1.25-1.35,2.91-1.83,6.07-2.75,9.1-.89,2.89-1.61,5.84-2.14,8.83-.14.82-.33,1.68-1.12,2.22h0ZM74.39,71.58c-1.6,1.33-2.68,2.89-3.69,4.44-1.25,1.92-2.24,4.02-3.25,6.08-.56,1.14-1.08,2.33-1.13,3.63.15.08.28.21.41.21,2.3-.01,4.62.12,6.9-.09,2.44-.24,4.87-.47,7.36-.22.18-.45.47-.84.47-1.22,0-1.15,0-2.32-.21-3.45-.47-2.56-.63-5.15-.83-7.74-.09-1.27-.65-1.79-1.91-1.86-1.29-.07-2.59-.25-4.12.22h0ZM94.04,86.62c1.13-.21,1.98-.36,2.83-.54.6-.12,1.08-.64,1.07-1.19,0-1.45.01-2.89-.08-4.33-.16-2.46-.38-4.91-.61-7.36-.03-.26-.24-.5-.42-.85-.48-.12-1.03-.29-1.59-.4-.56-.11-1.14-.13-1.7-.21-2.42-.36-4.93-.01-7.3-.9-.51-.19-1.26.33-1.29.85-.09,1.58-.23,3.17-.18,4.75.07,2.16.28,4.33.46,6.49.05.57.16,1.14.3,1.7.22.92.99,1.58,1.88,1.48,2.19-.25,4.33-.05,6.62.5h0ZM123.91,86.45c-.02-.37.11-.87-.08-1.17-2.25-3.71-4.55-7.37-6.85-11.04-.14-.23-.41-.39-.65-.55-.11-.07-.28-.04-.42-.05-.1.24-.27.49-.27.74-.05,2.02-.05,4.04-.1,6.07,0,.42-.1.85-.18,1.27-.12.6-1.18,1.15-1.75.91-1.43-.6-2.47-1.57-2.53-3.19-.06-1.59.08-3.18.12-4.76.01-.47-.55-1.15-1.03-1.25-1.55-.33-3.11-.66-4.7-.99-1.2.24-2.52.17-3.65.95-.1.47-.26.88-.25,1.3.04,2.88.07,5.77.18,8.66.04,1.01.3,2,1.07,2.77,1.23.5,2.48.64,3.81.52,1.43-.13,2.89-.29,4.3-.11,3.45.46,6.92.28,10.38.38.86.02,1.74.06,2.61-.44h0ZM77.79,127.52c-.47-.47-1.01-.68-1.6-.59-3.76.56-7.53-.05-11.29.08-4.29-.84-8.62-1.09-12.98-1.02-1.89-.66-3.73-.16-5.56.28-1.27.31-2.52.7-3.77,1.06-1.03.3-1.81.97-2.25,1.92-.79,1.72-1.91,3.24-2.89,4.84-.67,1.11-1.27,2.27-1.88,3.42-.24.44.3,1.36.77,1.32,2.59-.26,5.17-.52,7.73-.78.56-.32.86-.8.86-1.42,0-1.3-.07-2.6-.06-3.9,0-.61.36-1.08.8-1.48.68-.62,1.86-.41,2.21.42.17.4.34.8.45,1.21.38,1.4.72,2.8,1.12,4.19.23.81,1.2,1.41,2.06,1.23,2.27-.49,4.57-.77,6.88-1,1.09-.11,1.83-1.02,1.76-2.1-.04-.72-.25-1.44-.17-2.14.08-.74.6-1.3,1.34-1.56.61-.21,1.5.14,1.88.76.22.36.49.75.56,1.16.15.85.15,1.73.28,2.59.06.4.3.78.42,1.07.93.58,1.76.49,2.6.1.71-.89,1.39-1.82,2.15-2.67.38-.42.92-.69,1.4-1.01.23-.16.98,0,1.21.23.44.41.71.89.84,1.48.08.36.33.68.53,1.06,1.28-1.38,2.74-3.89,4.56-7.92.11-.24.01-.57.01-.81h0ZM112.4,68.37c.11-.37.32-.66.25-.88-.19-.54-.41-1.1-.76-1.54-2.13-2.56-3.79-5.44-5.67-8.17-1.55-2.26-2.93-4.64-4.44-6.93-1.82-2.77-3.7-5.52-5.56-8.28-.16-.24-.34-.46-.52-.68-1-1.21-1.75-1.09-2.5-.16-1.81,2.25-3.51,4.59-5.34,6.82-1.21,1.47-2.14,3.08-3,4.75-1.98,3.86-4.09,7.64-6.38,11.32-.15.23-.22.53-.34.79-.13.31.16.97.51,1.07.41.12.84.31,1.24.28,1-.08,2-.25,2.99-.41,1.44-.24,2.9-.41,4.29.08,1.56.54,3.11.56,4.71.41,1.44-.14,2.92-.19,4.31.22,3.1.91,6.26,1.01,9.44.99.88,0,1.71.09,2.56.33,1.42.4,2.84.32,4.21-.01h0ZM138.14,145.71c2.77-.32,5.5-.65,8.1.75.96-.36,1.87-.82,2.84-1.05.83-.2,1.73-.1,2.59-.2,2.15-.23,4.28-.73,6.7-.47.39.32,1.07.68,1.48,1.24,1.47,1.96,3.02,3.88,3.66,6.33.14.54.47,1.05.78,1.52.96,1.44,1.97,2.86,2.94,4.3.34.5.42,1.07.24,1.75-.32.11-.72.38-1.11.37-3.33-.03-6.65-.12-9.98-.19-1.3-.03-2.61-.12-3.91-.1-2.17.01-4.31-.08-6.48-.44-2.42-.41-4.89-.61-7.34-.68-2.02-.06-4.02.34-5.96.92-.97.29-1.93.62-2.91.86-.58.14-1.14-.07-1.7-.46-.71-.98-1.52-2-2.23-3.08-.71-1.09-1.34-2.23-2.16-3.62-1.33-.86-2.83-1.99-3.5-3.89-.5-1.42-1.84-2.2-2.72-3.34-.15-.19-.13-.53-.15-.81-.03-.35.47-.77.87-.81.29-.03.58-.11.86-.09,1.73.09,3.49.05,5.19.35,2.29.4,4.58.7,6.9.57,1.53-.09,2.84.33,3.98,1.35.19.18.53.18.81.26.74-.44,1.48-.88,2.21-1.32h0ZM101.86,126.41c1.35-.3,2.61-.6,3.86-.86.57-.12,1.2-.05,1.72-.27,2.47-1.07,5.09-.87,7.68-1.1,3.73-.33,7.54.05,11.18-1.18,1.44-.03,2.89-.13,4.34-.08,1.29.05,2.53.43,3.87.25,1.11-.14,2.28.25,3.43.38,1.44.17,2.86.32,4.32.13,1.48-.21,2.87.21,4.26,1.14.24.35.62.8.9,1.3,2.35,4.15,4.69,8.32,6.96,12.35-.17,1.01-.79,1.39-1.5,1.55-1.27.29-2.56.47-3.74.69-.71-.17-1.17-.53-1.3-1.13-.19-.86-.43-1.68-.92-2.42-.33-.51-.8-.83-1.4-.94-.54.24-1.02.57-1.16,1.18-.13.56-.14,1.15-.24,1.72-.21,1.16-.9,1.74-2.09,1.77-.72.02-1.45,0-2.17-.03-.88-.04-1.62-.65-1.84-1.59-.3-1.27-.47-2.56-.77-3.82-.27-1.1-.98-1.73-2.12-1.8-.76.3-1.26.8-1.31,1.6-.09,1.45-.11,2.89-.16,4.34-.03.79-.54,1.38-1.3,1.49-.43.06-.87.11-1.3.09-1.25-.05-2.08-.73-2.25-2.19-.08-.71.03-1.44.07-2.16.03-.43.17-.87.13-1.29-.05-.42-.22-.83-.4-1.23-.28-.61-1.33-.81-1.9-.43-.9.59-1.44,1.44-1.7,2.44-.22.83-.27,1.71-.43,2.56-.17.87-.93,1.4-1.93,1.41-.29,0-.58-.02-.87-.04-1.33-.12-1.92-.56-2.14-1.74-.24-1.28-.42-2.57-.61-3.86-.21-1.42-.92-2.4-2.33-2.8-1.34.44-1.54,1.63-1.88,2.8.17,1.08.39,2.21.52,3.36.14,1.22-.38,1.84-1.66,2.09-.28.06-.57.07-.87.07-.13,0-.27-.07-.43-.12-.66-.32-1.09-.92-1.53-1.48-2.15-2.73-4.3-5.45-6.68-7.99-.78-.83-1.29-1.91-1.88-2.9-.2-.35-.27-.77-.44-1.28h0ZM70.91,142.52c-.02-.5-.23-1.05-.65-.97-2.44.48-4.91-.33-7.35.27-.51.12-1.15-.08-1.67-.29-.85-.34-1.7-.35-2.56-.24-2.44.32-4.89.6-7.32,1.02-1.74.31-3.48.39-5.19.17-1.9-.25-3.74-.15-5.61.12-2.01.28-4.04.35-6.08.3-1.09-.03-1.94.51-2.63,1.31-.29.32-.56.67-.79,1.03-1.75,2.64-4,4.97-4.96,8.1-.17.54-.57,1.01-.88,1.5-1.2,1.81-2.42,3.61-3.6,5.44-.62.98-1.17,1.99-1.73,3-.15.26.13,1.01.38,1.17,1.25.8,2.7,1.01,4.1,1.39,3.06-.08,6.03.77,9.06.96,4.92.31,9.85.51,14.78.43,3.33-.06,6.66-.11,10,.02,3.99.17,4.06.1,4.36-3.94.05-.72.06-1.44.08-2.08,1.43-3.13,2.48-6.29,3.68-9.39,1.27-3.28,3.19-6.18,4.6-9.31h0ZM122.17,91.48c.86.44,1.63.84,2.31,1.19,1.49.23,1.61-1.63,2.96-1.7,1.99,3.14,4.11,6.26,5.76,9.65,1.27,2.61,2.64,5.15,4.14,7.63,1.57,2.6,3.08,5.23,4.8,7.74.41.59.68,1.27.97,1.82-.22.74-.65,1.06-1.27,1.16-1.88.3-3.78.32-5.62-.11-1.43-.33-2.87-.34-4.31-.47-1.46-.13-2.9-.02-4.33.23-2.14.37-4.27.79-6.41,1.14-.71.12-1.44.14-2.16.14-1.45,0-2.9-.07-4.35-.06-2.18.02-4.34.15-6.44.81-1.24.39-2.54.64-3.82.85-.55.09-1.21.06-1.69-.18-1.13-.56-2.21-.51-3.37-.21-.77.2-1.52-.16-1.82-.85-.64-1.49-1.68-2.69-2.52-4.03-1.38-2.2-2.46-4.59-3.65-6.91-.2-.38-.33-.8-.53-1.18-.62-1.15-2.42-1.44-3.39-.5-.51.5-1.04,1.06-1.31,1.7-.81,1.85-1.46,3.77-2.24,5.64-1.06,2.53-2.09,5.08-3.45,7.19-.72.53-1.3.48-1.88.51-4.92.27-9.85-.08-14.77.07-1.29.04-2.61-.13-3.89-.36-1.86-.34-3.73-.45-5.61-.61-2.75-.24-5.47-.48-8.21,0-.24.04-.54-.14-.78-.28-.23-.13-.21-.8,0-1.19.29-.5.58-1.01.87-1.5.52-.87,1.06-1.73,1.57-2.61.36-.62.77-1.24,1.01-1.91.54-1.52,1.37-2.85,2.21-4.21,1.06-1.71,1.86-3.59,2.77-5.39,1.77-3.51,3.96-6.75,6.1-10.02.47-.72,1.12-1.32,1.69-2,1.08-.41,2.21-.73,3.21-1.27,1.45-.79,2.95-1.19,4.57-1.15,1.89.04,3.75-.09,5.62-.47,1.27-.26,2.55-.14,3.86.15,2.68.57,5.39,1.03,8.16.6,2.75-.42,5.49.04,8.22.26.29.02.58.21.85.17,1.52-.27,2.83.13,4.08,1.01.77.53,1.64.46,2.43-.11.23-.17.49-.39.75-.42,2.29-.29,4.56-1.13,6.87-.7,3.3.61,6.64.53,9.96.64.72.02,1.45.05,2.08.08h0ZM98.11,148.05c0-.25-.05-.51,0-.76.04-.17.21-.31.32-.47.06.1.16.19.17.3.02.12.01.28-.06.36-.16.18-.36.33-.54.49-.06.67.06,1.44-.23,1.98-.57,1.06-.5,2.42-1.51,3.26.02,2.16-.18,4.27-.77,6.37-.54,1.92-.83,3.92-1.24,5.87-.02.1-.21.26-.27.24-.26-.08-.58-.17-.72-.36-.45-.62-.4-1.38-.21-2.06.86-3.17,1.75-6.35,2.67-9.51.06-.2.42-.31.64-.47-.18-1.74.29-3.35,1.05-4.88.1-.19.44-.25.68-.37h0ZM68.35,159.22c.01.71.15,1.42-.19,2.09-.03.07-.19.15-.22.13-.11-.08-.25-.19-.27-.3-.09-.75.13-1.38.77-1.83-.2-1.02-.19-2,.58-2.82.09-.1.25-.2.37-.19.27,0,.47.24.38.56-.2.68-.44,1.36-.74,2-.09.19-.45.26-.69.37h0ZM97.18,36.69c.64,1.03,1.12,1.93,1.71,2.74.68.94,1.47,1.78,1.88,2.91.19.53.6.99.97,1.43,2.29,2.64,4.14,5.6,5.97,8.55,1.99,3.21,4.08,6.34,6.41,9.31,1.25,1.59,2.35,3.31,3.34,5.09.99,1.77,2.03,3.52,3.22,5.16,2.56,3.54,4.65,7.36,6.88,11.09.74,1.24,1.39,2.54,2.27,3.7.26.34.51.71.68,1.11,1.56,3.46,3.96,6.4,5.83,9.68,1.36,2.39,2.94,4.66,3.91,7.27.35.94.91,1.82,1.46,2.67,2.78,4.26,5.17,8.73,7.45,13.27.45.9,1.08,1.72,1.58,2.6.79,1.38,1.69,2.73,2.27,4.2,1.08,2.72,2.62,5.18,4.04,7.7,1.65,2.89,3.36,5.75,5.58,8.29,1.22,1.41,2.26,3.02,2.79,4.87.2.69.57,1.33.83,1.93.39.07.68.21.94.15.56-.12,1.12-.41,1.62.04.42.38.83.81,1.11,1.3.29.49.38,1.1.62,1.62,1.28,2.75,2.28,5.66,4.57,7.81.29,1.17.56,2.29.86,3.5.81.74,1.66,1.52,2.39,2.18.48.09.76.19,1.04.18.87-.04,1.75-.23,2.6-.15,3.23.25,6.39-.38,9.46-1.15,2.58-.64,4.55.12,6.46,1.56.32.24.53.68.7,1.07.1.24.02.56.02.83-1.15,1.29-2.58,1.85-4.28,1.69-2.46-.23-4.92-.27-7.35.37-.69.18-1.44.12-2.17.18-1.64.15-3.18-.17-4.65-.87-.39-.19-.78-.36-1.13-.52-.33.11-.69.12-.83.3-1.12,1.4-2.48,1.89-4.23,1.37-.68-.21-1.43-.2-2.15-.29-.14-.02-.29,0-.43,0-1.76.12-3.46-.43-5.19-.47-1.73-.03-3.46.38-5.19.43-1.89.06-3.77-.04-5.66-.13-4.64-.21-9.28.15-13.91.24-2.61.05-5.22.13-7.83.25-2.02.08-4.06-.1-6.06.47-.54.15-1.15.09-1.73.09-4.79-.04-9.57-.03-14.36.2-3.91.19-7.83,0-11.75,0-2.32,0-4.64.11-6.96.03-3.33-.1-6.68.05-9.96-.73-.56-.14-1.15-.2-1.72-.18-3.48.14-6.96-.31-10.42.33-.55.1-1.15,0-1.72-.06-1.31-.16-2.58-.09-3.88.24-2.14.55-4.35.4-6.48-.05-3.61-.76-7.22-.48-10.83-.19-.58.04-1.17.28-1.72.19-2.02-.31-4.02-.63-6.03,0-.13.04-.3,0-.43-.03-2.14-.58-4.33-.28-6.5-.38-1.88-.1-3.77-.06-5.65-.23-1.76-.15-3.52-.1-5.19.33-2.3.6-4.6.6-6.91.45-3.35-.23-6.66-.06-9.95.65-.84.18-1.74.27-2.59.19-1.22-.11-2.16-.74-2.64-1.96-.3-.77-.2-1.4.43-2,.79-.2,1.67-.31,2.45-.64,1.11-.47,2.24-.53,3.41-.54,1.3-.02,2.61,0,3.91-.14.85-.09,1.67-.42,2.36-.6.96-1.1.37-2.42,1.23-3.92.2-.24.76-.9,1.3-1.59.53-.68,1.19-1.33,1.53-2.1,1.14-2.53,2.81-4.73,4.23-7.08,1.35-2.23,2.54-4.57,4.02-6.72,3.88-5.62,7.18-11.59,10.76-17.39.98-1.59,1.7-3.35,2.81-5.57.17-.19.79-.81,1.33-1.49.45-.57.98-1.15,1.17-1.81.5-1.71,1.51-3.15,2.42-4.61,2.14-3.46,3.82-7.17,5.85-10.68,1.74-3.01,3.1-6.24,5.25-9,3.45-6.2,7.53-12.04,10.57-18.49,2.85-4.37,5.02-9.18,8.6-13.06.8-.86,1.36-1.86,1.92-2.88,1.18-2.16,2.45-4.28,3.7-6.4,1.17-2,2.34-4,3.54-5.98,1.96-3.23,4.05-6.36,6.48-9.27.64-.77,1.33-1.55,1.5-2.74-.11-.29-.18-.74-.41-1.08-2.63-3.82-5.29-7.63-7.95-11.42-.5-.71-.99-1.46-1.62-2.04-1.94-1.77-3.58-3.78-5.1-5.93-.42-.59-1-1.06-1.94-.93-.25.19-.62.43-.93.72-3.1,2.84-6.2,5.7-9.3,8.53-.32.3-.68.56-1.04.78-.93.55-2.51.36-3.02-.77-.18-.38-.28-.81-.44-1.29.24-.5.39-1.1.77-1.51,1.28-1.38,2.55-2.79,3.99-4,3.32-2.81,6.73-5.5,9.74-8.65.2-.21.47-.35.7-.52.66-.46,1.36-.48,2.04-.11.51.28.96.63,1.34.88,2.86,6.65,2.22,5.01,6.37,10.47,3.22,3.21,5.49,7.1,7.95,10.85.31.48.7.92,1.06,1.37.23.28.98.32,1.18.04.43-.58.93-1.13,1.23-1.77,1.45-3.18,3.32-6.12,5.25-9.02.48-.73,1-1.44,1.37-2.22.63-1.34,1.49-2.48,2.58-3.47,1.19-1.09,2.02-2.42,2.88-3.78,1.7-2.72,2.74-5.76,4.32-8.52.36-.63.67-1.29,1.09-1.87,1.19-1.63,3.32-1.49,4.28.27.28.5.47,1.05.73,1.64,1.47,1.12,2.97,2.27,4.65,3.55.7,1.56,1.99,2.92,3.39,4.21,1.27,1.18,2.53,2.39,3.78,3.6.52.5,1.04,1.02,1.18,1.91-.23.86-.47,1.84-.74,2.81-.14.52-.89.85-1.41.65-.4-.16-.84-.27-1.19-.5-.73-.47-1.38-1.08-2.14-1.5-2.16-1.22-3.43-3.06-4.02-5.43-.07-.28-.23-.53-.38-.86-.25-.26-.51-.63-.85-.89-1.37-1.06-2.77-2.09-4.16-3.14-.47-.35-1.21-.2-1.5.3-.15.25-.33.48-.45.74-.19.39-.32.81-.51,1.21-1.67,3.39-3.66,6.57-6.02,9.55-3.34,4.22-6.13,8.8-8.46,13.66-.56,1.17-1.22,2.29-2.01,3.77Z"/>
      <path class="cls-1" d="M122.61,175.04c.91-.66,1.48-1.12,2.09-1.49.53-.33,1.14-.34,1.63.03.8.61,1.57,1.28,2.32,1.96.58.54.64,1.42.13,1.94-.61.62-1.26,1.18-1.97,1.84-3.03-.14-6.07-.03-9.09-.36-1.02-.11-2-.11-3.02.08-2.15.41-4.29.37-6.48-.07-2.27-.46-4.58-.41-6.91.01-3.56.64-7.14,1.3-10.79,1.34-.58,0-1.17.03-1.73.15-1.59.32-3.15.3-4.75.06-1.13-.17-2.33-.19-3.47-.02-2.02.29-4.04.35-6.07.44-1.73.07-3.43.17-5.15.68-1.66.49-3.44.28-5.17-.12-1.27-.29-2.56-.49-3.84-.76-2.01-.42-4.02-.4-6.05-.04-1.28.22-2.59.3-3.89.42-1.59.15-3.18.22-4.76.45-1.74.26-3.45.38-5.18-.1-2.13-.6-4.34-.22-6.5-.42-2.03-.19-4.03.1-6.04.54-2.26.5-4.58.74-6.89,1.01-.85.09-1.74.04-2.59-.09-3.32-.49-3.31-.51-6-.14-.9-.32-1.51-.88-1.52-1.89-.01-.89.93-1.81,1.98-2.04,1.73-.37,3.47-.31,5.2-.09,1.74.23,3.47.31,5.2.02.72-.12,1.45-.16,2.14-.36,1.4-.43,2.84-.55,4.29-.64.72-.05,1.45-.12,2.15-.29,2.16-.54,4.35-.38,6.49-.06,3.77.55,7.52.58,11.27.09,3.04-.39,6.08-.41,9.12-.48,1.44-.03,2.9.21,4.32.47,2.32.44,4.64.43,6.93-.01,1.87-.37,3.74-.44,5.62-.49,2.17-.06,4.36.14,6.51-.28.28-.06.59-.09.86-.05,2.76.38,5.48.14,8.23-.22,2.73-.35,5.49-.43,8.2-.96,3.01-.6,6.07-.38,9.12-.33,4.64.07,9.28.15,14.04.23Z"/>
      <path class="cls-1" d="M162.27,182.71c-1.64.14-2.93.09-4.2-.28-2.37-.71-4.79-1.1-7.27-1.08-1.91.01-3.71-.56-5.53-1.02-1.82-.46-3.61-.96-5.52-.95-1.4,0-2.14-1.64-1.42-2.91.46-.8,1.15-1.31,2.08-1.37,1.16-.08,2.33-.12,3.44.29,3.04,1.1,6.19,1.37,9.38,1.49.86.03,1.73.18,2.57.38,1.7.39,3.39.67,5.14.3.88-.18,1.7.19,2.44.7,1.51,1.04,1.28,2.38.31,3.27-.42.38-.88.74-1.42,1.2Z"/>
      <path class="cls-1" d="M100.97,192.32c-2.5-.18-4.95.06-7.37-.58-.96-.26-2.01-.27-3.02-.22-4.04.17-8.1-.05-12.12.59-1.03.16-2.01-.05-2.93-.55-.62-.35-.92-1.21-.6-1.86.47-.97,1.15-1.68,2.28-1.78,1-.09,2.02-.25,3.01-.17,2.46.2,4.89.27,7.33-.32.96-.23,2.1-.32,3.01-.02,2,.65,4.03.07,6.01.43.73.13,1.42-.11,2.11-.38.53-.22,1.09-.38,1.66-.47,1.01-.18,2.35.54,2.85,1.59.17.35.19.87.06,1.24-.33,1-1.1,1.67-2.29,2.52Z"/>
    </g>
  </g>
</svg>