<?xml version="1.0" encoding="UTF-8"?>
<svg id="Layer_2" data-name="Layer 2" xmlns="http://www.w3.org/2000/svg" viewBox="0 0 261.4 321.55">
  <defs>
    <style>
      .cls-1 {
        fill: #6d442f;
        fill-rule: evenodd;
      }
    </style>
  </defs>
  <g id="_Layer_" data-name="&amp;lt;Layer&amp;gt;">
    <g>
      <path class="cls-1" d="M154.48,158.97c-.09.1-.27.21-.27.31,0,1.08.59,1.83,1.45,2.4.1.07.3.07.41.02.3-.14.4-.41.32-.7-.26-.86-.84-1.45-1.56-1.94-.09-.06-.23-.06-.35-.09h0ZM170.35,118.31c-.04-.13-.04-.3-.13-.38-.79-.62-1.57-1.24-2.4-1.8-.12-.07-.53.11-.68.29-.45.52-.41,1.25.02,1.54.84.55,1.72,1.02,2.77.99.12,0,.25-.14.33-.24.06-.11.06-.27.09-.4h0ZM192.13,214.92c1.8-.5,2.26-1.44,1.26-2.61-.36-.42-.81-.8-1.23-1.18-.07-.06-.3-.04-.38.03-.2.17-.51.38-.51.58-.05,1.14.25,2.21.87,3.18h0ZM125.3,270.91c.02.15.05.29.07.42.08.58.65,1.03,1.21.88.82-.2,1.65-.44,2.44-.73.59-.21.83-1.36.45-1.84-.7-.87-2.08-1.25-3.07-.83-.56.23-.93.65-1.02,1.25-.05.28-.05.56-.08.84h0ZM211.09,218.15c-.84.5-1.32,1.15-1.37,2.09-.04.61.33,1.07.66,1.53.25.34.56.64.89,1,.4-.06.88,0,1.19-.21.46-.3.84-.76,1.18-1.2.13-.19.21-.59.1-.77-.61-1.12-1.3-2.18-2.66-2.43h0ZM95.45,107.67c-.12,0-.26-.08-.34-.04-.23.14-.6.29-.65.49-.21.83-.29,1.69-.45,2.54-.18.99-.43,1.96-.56,2.97-.07.55.04,1.13.43,1.61.24.29.86.53,1.15.3.21-.17.52-.4.52-.6.06-2.3.07-4.58.08-6.88,0-.13-.12-.26-.18-.4h0ZM146.87,113.7c-1.2.32-2.27,1-3.21,1.84-.27.24-.39.76-.41,1.15-.03.61.37,1.05.89,1.33.25.13.55.18.83.21,2.91.2,3.28-.5,2.88-3.17-.09-.56-.29-1.1-.98-1.36h0ZM109.19,114.4c1.25-2.27,1.36-4.77,2.11-7.08.16-.5-.44-1.11-1.02-1.12-1.15,0-2.04.68-2.18,1.68-.27,1.88-.19,3.74.25,5.59.08.34.53.6.84.93h0ZM130.14,297.2c.2-.27.44-.45.46-.65.09-1,.18-2,.17-3.01-.01-1.87-.14-3.73.24-5.59-.45-2-.14-3.98.06-5.97.01-.11-.19-.33-.24-.32-.23.07-.64.19-.65.34-.29,2.13-.38,4.31-.81,6.41-.35,1.72-.27,3.43-.36,5.14-.07,1.34.39,2.5,1.13,3.65h0ZM134.28,106.83c.32-.37.55-.56.69-.79.68-1.15,1.64-1.96,2.93-2.34.41-.12.82-.27,1.2-.46.38-.19.72-.47.78-.94.03-.25-.58-.49-1.02-.43-2.57.35-4.98,1.18-7.34,2.2-.23.11-.4.4-.58.61-.53.65-.17,1.9.6,2.17.83.29,1.67.29,2.74,0h0ZM204.27,215.81c1.3-.06,1.85-.9,2.17-1.9.12-.37.08-.88-.1-1.22-.63-1.15-1.5-2.13-2.6-2.85-.33-.23-.78-.29-1.29-.45-.53.71-1.07,1.37-1.55,2.09-.15.2-.15.52-.24.93.91,1.39,2.15,2.54,3.61,3.39h0ZM124.12,277.66c-.08.11-.22.21-.24.35-.37,2.7-.89,5.38-.96,8.12-.04,1.87-.1,3.74-.09,5.61.02,1.59.13,3.16.23,4.74.02.28.12.6.3.79.16.18.47.24.73.29.08.02.25-.15.28-.26.11-.4.27-.82.24-1.23-.34-4.46-.32-8.92-.11-13.39.06-1.44.01-2.89-.02-4.32,0-.25-.23-.48-.35-.72h0ZM115.35,110.02c-.38.35-.69.51-.79.76-.39.92-.72,1.88-1.04,2.83-.16.49.24,1.22.79,1.36,2.37.62,4.69,1.41,7.15,1.59.27.02.55-.11.83-.17.02-.11.11-.27.07-.33-.96-1.35-2.59-2.74-7.01-6.02h0ZM104.08,115.4c.16-.22.46-.46.45-.69-.07-2.16-.2-4.31-.31-6.46-.03-.52-.62-1.01-1.18-1.07-1.14-.1-2.08.46-2.4,1.42-.13.42-.3.82-.35,1.24-.13,1.14-.22,2.3-.29,3.46-.05.74.42,1.44,1.15,1.59.96.22,1.88.77,2.93.51h0ZM157.21,150.24c-.6.66-.7,1.57-1.03,2.36-.1.25-.06.57-.09.88.59,1.68,1.8,2.92,3.04,4.14.29.29.72.42,1.07.62,1.31-.48,2.3-1.33,3.47-2.08-.06-.38.02-.91-.21-1.16-1.28-1.37-2.62-2.7-3.99-4-.41-.39-.94-.67-1.46-.91-.2-.09-.52.09-.79.16h0ZM155.46,105.77c-1.27.48-1.98,1.6-2.89,2.53-.85,2.48-1.27,5.01-.86,7.62.22.2.41.51.64.56.56.11,1.14.15,1.71.12,1.06-.06,1.7-.67,1.68-1.59-.02-1.15-.02-2.3-.12-3.46-.1-1.13-.33-2.25-.47-3.21.3-.96,1.06-1.68.3-2.58h0ZM118.09,70.96c-.82.4-1.29,1.12-1.77,1.83-.6.87-.57,1.66.12,2.31,1.67,1.59,3.34,3.14,4.97,4.67.37-.05.75.04.9-.12,1.56-1.55,1.73-2.96.53-4.57-.69-.92-1.41-1.82-2.19-2.66-.69-.74-1.5-1.34-2.57-1.46h0ZM167.89,172.59c-.12-.25-.18-.58-.37-.75-2.22-2.02-4.47-4-6.72-5.99-.25-.23-.85-.16-1.19.12-1.09.86-1.18,1.46-.36,2.51.35.45.66.95,1.07,1.34,1.65,1.59,3.14,3.31,4.18,5.38.06.11.19.23.32.27.26.05.66.18.78.05.78-.81,1.51-1.67,2.25-2.54.07-.08.03-.26.04-.4h0ZM220,207.5c-.21.08-.37.12-.47.21-1.74,1.54-3.32,3.23-4.63,5.14-.22.33-.26.78-.43,1.32.99.77,1.31,2.27,3.02,2.35.89-.85,1.87-1.7,2.76-2.65.98-1.03,2.65-1.22,3.48-2.89-1.44-.98-2.19-2.65-3.73-3.49h0ZM116.29,297.57c.44,0,.95,0,1.03-.52.15-.99.31-2.01.23-3.01-.36-5.06,0-10.11.03-15.17,0-1.88.05-3.77.5-5.61.1-.42.1-.87.07-1.3-.01-.22-.2-.42-.3-.65-.23.16-.6.28-.66.49-.62,2.36-1.32,4.69-1.29,7.2.07,4.62.27,9.25-.1,13.87-.06.72.03,1.45.15,2.16.14.85-.18,1.75.33,2.54h0ZM85.74,145.6c-2.52,1.98-5.11,4.01-7.69,6.04-.1.09-.14.25-.25.44.59,1.72,2.19,1.99,3.67,2.6.8-.74,1.5-1.45,2.28-2.06.9-.71,1.88-1.33,2.81-2,.34-.25.63-.58.94-.88.46-.46.63-1.34.29-2-.32-.63-.71-1.24-1.15-1.8-.14-.18-.51-.19-.9-.33h0ZM97.01,136.74c-.73-.1-1.3.04-1.73.45-1.67,1.59-3.31,3.22-4.97,4.84-.09.1-.19.24-.23.37-.07.28-.2.6-.12.83.39,1.08.73,2.22,2.01,2.62.27-.1.59-.12.8-.29,2.23-1.84,4.46-3.69,6.63-5.58.25-.22.23-.75.34-1.12-1-.77-1.92-1.47-2.74-2.11h0ZM214.1,201.38c-.89-1.15-1.93-2.31-3.16-3.31-.09-.07-.28-.05-.43-.05-.12.05-.29.06-.36.17-1.47,1.76-2.5,3.83-3.9,5.65-.25.32-.35.77-.5,1.12q1.38,2.07,3.33,3.19c.81-.08,1.26-.7,1.6-1.29.92-1.63,2.04-3.09,3.26-4.5.15-.17.09-.54.15-.98h0ZM174.89,166.65c-1.23,1.23-2.3,2.37-3.96,2.89-1.61-1.54-3.18-3.03-4.73-4.54-.41-.4-.8-.84-1.16-1.29-.18-.21-.32-.5-.38-.76-.06-.27-.09-.62.03-.83.74-1.23,1.55-2.42,2.74-3.2.37.16.68.22.86.41,2.05,2.05,4.08,4.11,6.09,6.19.18.18.24.51.51,1.14h0ZM181.57,102.1c-.53-.54-1.01-1.08-1.56-1.54-.75-.62-1.8-.66-2.39-.07-2.48,2.45-5.26,4.53-8.08,6.56-.79.58-1.37,1.45-2,2.15.55,1.29,1.34,2.03,2.83,2.07.59-.41,1.4-.81,1.99-1.42,1.64-1.67,3.55-2.97,5.47-4.26,1.07-.73,2.14-1.48,3.15-2.3.29-.23.36-.72.57-1.19h0ZM181.49,80.57c-1.64,1.12-2.95,2.62-4.45,4.21.54,1.05.76,2.16.69,3.31-.1,1.64.41,3.12,1.25,4.49.29.05.64.22.8.11,2.16-1.48,3.85-3.45,5.51-5.44.37-.44.36-1.57-.02-2.04-.54-.67-1.09-1.36-1.69-1.97-.7-.74-.74-1.89-1.62-2.5-.11-.08-.26-.09-.48-.18h0ZM86.62,138.52c-1.17-.53-2.03-1.48-2.98-2.36-.94-.87-2-1.6-3.01-2.4-.19-.48.02-.85.39-1.05,2.5-1.42,5.07-2.68,7.82-3.56,1.21.06,2.12.77,3.03,1.47,1.35,1.03,1.43,2.03.25,3.22-1.31,1.32-2.64,2.63-3.95,3.95-.42.42-.9.68-1.55.73h0ZM189.13,89.68c1.77.91,3.09,1.79,4.37,2.74.23.17.39.41.59.63.34.35.24,1.26-.18,1.57-.47.34-.95.66-1.43.98-1.83,1.18-3.65,2.36-5.49,3.51-.61.39-1.27.67-1.86.99-1.72-.44-2.34-1.74-2.94-3.03,1.08-1.84,2.25-3.25,5.36-6.28.39-.4.93-.64,1.59-1.1h0ZM198.2,204.99c.14-.64-.15-1.14-.54-1.58-2.33-2.56-4.71-5.09-6.87-7.81-.7-.89-1.65-1.59-2.5-2.38-.32-.3-.92-.3-1.17-.02-.76.86-1.54,1.71-2.24,2.62-.7.91-.28,1.66,1.09,2.06.27.07.54.19.98.37.22.36.49.86.81,1.32.41.59.77,1.27,1.3,1.71,1.93,1.53,3.69,3.24,5.4,5.01.29.29.71.47,1.05.68,1.34-.14,2.04-1.04,2.69-1.97h0ZM94.82,62.4c-1.9-2.3-4.02-4.25-5.95-6.37-.38-.42-.82-.8-1.25-1.19-.11-.09-.24-.17-.38-.19-.26-.06-.63-.18-.8-.06-1.37,1.01-2.68,2.11-3.56,3.63-.06.11,0,.29,0,.44,4.49,5.09,6.51,7.11,8.23,8.2,2.15-.71,2.83-2.63,3.72-4.45h0ZM74.32,155.22c-.45.13-.94.14-1.25.39-3.12,2.58-6.23,5.19-9.32,7.8-.33.29-.58.65-.86.98-.42.51-.36,1.42.23,1.96.51.5,1.12.88,1.75,1.36.72-.27,1.41-.46,2.05-.76,1.58-.77,2.93-1.88,4.26-2.99,1.9-1.58,3.76-3.19,5.62-4.79.77-.65.8-1.68.06-2.23-.82-.6-1.68-1.14-2.53-1.71h0ZM107.46,84.07c1.5-2.09,3.01-4.19,4.55-6.33.47.11.96.07,1.24.29,1.45,1.18,2.88,2.4,4.28,3.64.53.47.95,1.06,1.3,1.46.19,1.02-.29,1.59-.75,2.11-1.24,1.4-2.67,2.62-3.83,4.1-.41.53-1.47.54-1.96.08-1.56-1.49-3.11-3-4.63-4.53-.17-.17-.14-.54-.21-.83h0ZM180.76,193.01c1.33-.56,2.21-1.68,2.89-2.93.15-.29,0-.92-.23-1.2-1.22-1.42-2.53-2.76-3.78-4.17-1.82-2.06-3.59-4.15-5.42-6.19-.47-.54-1.06-1-1.67-1.36-.32-.18-.93-.24-1.21-.06-.93.65-1.93,1.29-2.21,2.69,1.77,2.15,3.78,4.2,5.78,6.26.7.72,1.47,1.37,2.19,2.06.81.77,1.23,1.92,1.86,2.89.46.72.81,1.55,1.79,1.99h0ZM162.84,105.32c-1.6-.66-2.47-1.75-3.13-3.01.08-.22.11-.37.19-.49.15-.24.29-.52.49-.71,1.29-1.16,2.59-2.32,3.91-3.47,1.96-1.7,3.94-3.37,5.97-5.12,1.5,1.05,2.65,2.35,3.76,3.67.16.2.15.54.27.97-3.06,3.5-7.09,5.76-11.46,8.15h0ZM58.54,168.52c-.51.34-1.11.72-1.68,1.15-1.26.96-2.45,2.03-3.75,2.92-2.74,1.89-5.33,3.96-7.9,6.05-.22.17-.4.41-.61.62-.42.42-.36,1.62.12,1.96,1.05.76,2.12,1.48,3.59,1.54.55-.34,1.24-.63,1.76-1.11,3.47-3.26,6.9-6.56,10.34-9.86.2-.18.29-.49.47-.82-.34-1.1-1-1.97-2.35-2.45h0ZM90.22,100.68c.38.11.74.29,1.13.33,1.58.17,3.19-.1,4.71.53,2.45.1,4.9.27,7.36.27.68.02,1.37-.4,2.01-.69.2-.09.28-.43.45-.7-.69-.9-1.49-1.75-2.08-2.74-1.3-2.15-3.07-3.81-5.07-5.25-.62-.16-1.16,0-1.56.47-2.14,2.54-4.49,4.89-6.81,7.27-.09.09-.07.28-.14.51h0ZM105.65,57.69c-.25.13-.55.22-.75.42-1.02,1.01-2.04,2.06-3.04,3.11-.5.53-.44,1.45.12,1.95,3.15,2.78,6.33,5.51,9.83,7.96.35-.3.82-.51.96-.84.39-.94.78-1.85,1.38-2.69.23-.32.26-.78.39-1.22-1.15-2.1-3.09-3.49-4.58-5.24-1.03-1.21-2.31-2.19-3.5-3.24-.18-.17-.53-.14-.81-.21h0ZM214.66,231.19c-.94-.28-1.49-.9-1.85-1.91.22-.41.4-1,.79-1.39,2.98-2.95,5.53-6.27,8.21-9.47.93-1.12,1.98-2.07,3.37-2.63.65-.25,1.18-.8,1.75-1.2.82.2,1.17.78,1.32,1.54.15.73.11,1.46-.31,2.07-.41.59-.88,1.14-1.4,1.64-1.67,1.61-3.11,3.41-4.31,5.39-1.15,1.88-2.77,3.3-4.48,4.64-.9.7-1.93,1.24-3.1,1.31h0ZM162.32,90.15c.8.35,1.6.7,1.92,1.95-.23.17-.57.42-.93.67-1.94,1.29-3.76,2.72-5.32,4.45-.2.22-.43.41-.62.62-.89.98-2.31,1.21-3.16,2.26-.83,1-1.69,1.98-2.58,2.94-.5.52-1.06.99-1.65,1.42-1.77,1.28-3.44,2.65-4.9,4.28-.67.75-1.46,1.43-2.54,1.54-.95-.27-1.43-.93-1.57-1.86.21-.56.59-.97,1.07-1.32,1.29-.93,2.56-1.93,3.38-3.34.65-1.12,1.63-1.59,2.84-1.75.57-.07,1.14-.18,1.53-.25.83-.48,1.15-1.12,1.41-1.81.31-.8.62-1.61.86-2.25q3.89-3.41,10.26-7.56h0ZM31.94,196.56c.47-.07.98,0,1.25-.22,1.68-1.36,3.35-2.76,4.96-4.2,1.61-1.46,3.15-2.99,4.7-4.5.2-.19.28-.5.41-.76-.09-.26-.11-.6-.29-.77-.74-.68-1.51-1.34-2.3-1.96-.59-.47-1.43-.51-2.02-.09-3.07,2.18-6.1,4.39-9.17,6.56-.23.17-.42.41-.57.64-.15.24-.23.53-.38.88.7,1.75,2.3,2.86,3.41,4.42h0ZM89.27,50.64c.93-1.51,2.13-2.91,3.46-4.23.35-.34,1.27-.4,1.61-.09,2.24,2.03,4.49,4.05,6.7,6.1.74.67.88,1.96.36,2.79-.38.61-.76,1.24-1.26,1.74-.7.71-1.51,1.33-2.3,2.01-.45-.11-.95-.08-1.24-.32-2.63-2.24-5-4.76-7.17-7.45-.08-.1-.08-.27-.17-.55h0ZM61.61,282.08c-.35,1.3-.67,2.41-.94,3.53-.56,2.38-1.22,4.76-1.41,7.2-.1,1.3-.15,2.59-.51,3.85-.07.25,0,.58.11.83.1.27.25.56.47.72,1.08.78,3.22.23,3.71-1,.25-.65.44-1.38.45-2.08.02-1.15.04-2.34-.22-3.46-.53-2.29-.49-4.58-.51-6.9,0-1.87.2-3.78-.06-5.62-.27-1.89-.17-3.74-.21-5.61,0-.57.05-1.2-.15-1.72-.74-1.94-.6-3.98-.88-5.98-.02-.14-.11-.28-.21-.38-.09-.07-.23-.11-.35-.11-.12,0-.32.03-.36.11-.68,1.18-.75,2.51-.7,3.79.11,2.61-.09,5.19-.36,7.78-.08.71-.06,1.45-.06,2.17,0,.94.42,1.64,1.27,2.1.24.13.42.37.92.79h0ZM214.67,46.04c.65-.41,1.04-.6,1.37-.87,5.95-4.65,11.23-10.03,16.72-15.19.51-.96,1.49-1.3,2.32-1.87.57-.4.99-1.03,1.43-1.59.3-.41.06-1.2-.4-1.53-1.2-.88-2.66-.88-3.56.04-1.21,1.23-2.63,2.35-3.54,3.77-1.52,2.37-3.47,4.25-5.62,5.98-3.04,2.46-6.1,4.91-9.14,7.37-.45.36-.91.73-1.3,1.15-.17.17-.19.5-.27.76.16.23.3.5.5.69.41.4.87.76,1.51,1.3h0ZM63.55,8.73c-.39-.59-.82-1.35-1.36-2-.61-.75-1.98-.89-2.77-.32-.56.43-1.19.89-1.54,1.49-1.03,1.77-2.39,3.25-3.75,4.74-1.55,1.71-3.05,3.47-4.61,5.16-1.18,1.29-2.16,2.71-2.96,4.24-.21.39-.17.84.15,1.21.29.31.57.66.9.91.57.44,1.53.39,2-.07.41-.41.78-.84,1.17-1.27,1.26-1.38,2.38-2.93,3.79-4.15,3.08-2.64,5.39-6.02,8.55-8.56.1-.08.2-.22.24-.35.08-.28.11-.55.19-1.02h0ZM62.24,38.74c-.4-.25-.83-.41-1.12-.71-2.68-2.65-5.34-5.3-7.98-7.99-1.2-1.24-1.24-2.52-.13-3.88.72-.88,1.53-1.71,2.25-2.51.41.12.76.11.95.29,3.19,2.94,6.36,5.9,9.52,8.88.66.63.75,1.68.22,2.38-1.03,1.4-2.07,2.78-3.72,3.55h0ZM68.03,142.49c.63-1.01,1.64-1.62,2.65-2.13,1.93-.98,3.72-2.17,5.44-3.46.09-.06.27-.04.41-.05.14.03.32,0,.41.07,1.8,1.64,3.59,3.29,5.38,4.95.09.09.11.26.17.4-.1.26-.14.58-.32.76-2.1,2.19-4.5,4.01-7.03,5.68-.5.34-1.11.39-1.64.07-2.26-1.35-4.08-3.14-5.38-5.46-.12-.22-.06-.55-.08-.84h0ZM209.57,81.36c-1.15-1.67-2.29-3.32-3.78-4.69-.17-.15-.54-.09-.82-.13-.26.13-.55.21-.76.39-3.09,2.61-6.17,5.21-9.24,7.84-.59.5-.65,1.3-.24,1.95.84,1.35,1.86,2.54,3.17,3.49.37.27,1.3.34,1.66.09.7-.51,1.46-.96,2.06-1.57,2.27-2.23,4.69-4.28,7.17-6.27.32-.24.49-.68.78-1.11h0ZM126.79,118.25c.44,1.72,1.14,2.82,1.86,3.9.52.78,1.32,1.11,2.23,1.13,1.47.05,2.89-.28,4.19-.92.62-.3,1.24-.8,1.64-1.37,1.72-2.49,2.33-5.24,1.61-8.22-.2-.81-1.14-1.42-2-1.3-.29.04-.61.04-.84.17-1.13.68-2.25.13-3.51.05-1.29.66-2.65,1.44-3.89,2.29-.23.83-.4,1.53-.61,2.21-.21.68-.44,1.36-.67,2.07h0ZM106.07,78.76c.94-1.28,1.84-2.42,2.62-3.61.19-.29.08-.83,0-1.24-.05-.26-.25-.53-.45-.71-2.68-2.4-5.37-4.79-8.07-7.16-.18-.16-.51-.15-.76-.22-.8.19-1.17.82-1.48,1.47q-1.28,2.75-2.99,4.58c1.21,1.76,4.02,4.87,6.64,7.3.41.38.92.65,1.42,1,.98-.45,1.89-.87,3.07-1.41h0ZM212.06,53.24c-3.08,1.65-2.59,1.84-9.54,8.29.11.23.16.55.35.68.22.15.54.19.82.18.88-.04,1.75-.02,2.47.55.79.63.63,1.52.62,2.39,0,.42.14.85.23,1.27.03.14.1.27.14.41.23.82,1.04,1.13,1.63.65,2.57-2.09,5.14-4.18,7.7-6.28.33-.28.62-.62.84-.98.14-.22.13-.53.19-.81-.13-.26-.2-.56-.37-.77-1.47-1.77-2.96-3.53-4.45-5.28-.09-.1-.25-.13-.62-.3h0ZM58.83,20.36c.08-.92.55-1.68,1.23-2.2,1.56-1.2,2.75-2.93,4.76-3.62.37.34.83.56.96.92,1.28,3.6,3.58,6.51,6.13,9.26.49.53.99,1.04,1.07,2-.72,1.41-1.77,2.75-3.16,3.82-.2.15-.52.15-.78.22-3.1-2.4-7.91-7.3-10.21-10.4h0ZM186.68,186.1c-.41-.3-.92-.58-1.31-.99-1.5-1.57-2.97-3.15-4.43-4.76-1.56-1.7-2.97-3.54-4.82-4.97-.33-.25-.54-.66-.8-1-.23-.3-.24-1-.03-1.23,1-1.06,2.08-2,3.51-2.44.26-.07.56,0,.99,0,2.76,1.86,5.38,4.15,8.09,6.31,1.12.89,2.2,1.85,3.3,2.79.4.33.45,1.16.09,1.57-1.36,1.49-2.72,2.99-4.09,4.46-.09.1-.26.14-.5.27h0ZM191.85,81.28c-.4-1.62-.76-3.15-1.14-4.67-.21-.81-1.32-1.22-2.12-.76-.61.35-1.17.77-1.82,1.22-.31-.35-.58-.65-.91-1,.41-.5.71-1,1.14-1.36,3.15-2.74,6.31-5.47,9.48-8.18.1-.08.27-.08.41-.09.13-.02.27,0,.42.03.83.41,1.03,1.34,1.59,1.98.66.76,1.36,1.48,2.05,2.22.59.62,1.28,1.16,1.5,2.21-.99,1.5-2.48,2.66-3.89,3.86-1.75,1.48-3.62,2.85-5.47,4.22-.29.22-.75.2-1.23.32h0ZM89.43,42.23c-.61-.65-.99-1.07-1.39-1.49-3.26-3.49-7.11-6.38-10.28-9.98-.09-.1-.24-.15-.35-.24-.37-.29-1.3-.16-1.56.28-2.67,4.44-2.64,4.47.27,7.46.9.93,1.57,2.1,2.53,2.97,1.19,1.08,2.25,2.24,3.26,3.48.64.77,1.37,1.49,2.11,2.18.29.27.72.39,1.18.62,1.78-1.36,3.11-3,4.23-5.25h0ZM69.95,37.75c-.35.3-.88.6-1.17,1.05-.85,1.34-1.61,2.73-2.4,4.09.29.43.49.81.77,1.12,2.99,3.34,6.47,6.17,9.62,9.34.4.42.9.72,1.37,1.06.48.35,1.24.38,1.6,0,.9-.93,1.78-1.87,2.65-2.83.33-.37.27-1.26-.07-1.62-1.2-1.24-2.42-2.46-3.62-3.71-2.3-2.39-4.59-4.78-6.89-7.18-.5-.52-.97-1.08-1.85-1.34h0ZM220.62,63.49c.76.06,1.4.16,1.71.67,1.04,1.71,3.38,2.21,4.07,4.17-.21.39-.29.71-.5.88-1.36,1.06-2.71,2.12-4.01,3.25-1.96,1.69-4.12,3.13-6.21,4.66-.49.36-1.08.36-1.83.16-1.21-.97-2.56-2.04-3.91-3.12-.75-.6-.76-1.52.01-2.22,2.25-2.03,4.48-4.07,6.78-6.03,1.2-1.02,2.6-1.76,3.88-2.41h0ZM29.99,173.99c.62-.04,1.18.13,1.57.6,1.31,1.54,2.58,3.11,3.86,4.67.29.37.2,1.25-.18,1.62-1.04,1-2,2.13-3.17,2.94-2.14,1.47-4.41,2.76-6.64,4.11-.23.14-.55.12-.87.19-1.3-.29-2.11-1.42-3.21-2.1-.61-.37-1.12-.91-1.65-1.39-.4-.37-.44-1.18-.12-1.58.09-.11.15-.27.25-.35,3.32-2.77,6.21-6.03,9.76-8.55.12-.07.26-.11.39-.17h0ZM205.9,193.55c-1.29,1.97-2.55,3.89-3.8,5.82-.33.51-.78.81-1.53.92-1.62-1.03-3.06-2.48-4.27-4.05-1.49-1.96-3.16-3.71-4.99-5.35-.42-.37-.68-.9-1.04-1.4.29-.57.47-1.12.81-1.57.87-1.14,1.78-2.26,2.72-3.35.83-.97,1.65-.97,2.59-.13,2.9,2.58,5.81,5.14,8.71,7.73.44.38.84.78.81,1.37h0ZM53.84,155.59c.44-.65.68-1.2,1.09-1.58,2.73-2.57,5.38-5.24,8.29-7.52.36.07.74.04.87.2.74.9,1.57,1.68,2.57,2.29,1.36.83,2.68,1.71,3.6,3.01-.08.33-.06.7-.23.86-2.76,2.54-5.54,5.07-8.32,7.59-.53.49-1.09.95-1.64,1.41-.25.2-1.01.22-1.23.05-2-1.68-3.8-3.53-5-6.31h0ZM100.55,88.38c.5-1.04,1.23-1.52,1.98-1.95.21-.12.57-.06.83.02.26.08.51.27.71.47,1.53,1.53,3.06,3.08,4.58,4.63,1.62,1.66,3.19,3.36,5.12,4.68.94.65,1.71,1.55,2.54,2.36,1.34,1.32,2.67,2.66,4,3.98,1.54,1.55,3.2,2.94,4.99,4.19.75.52,1.18,1.26.93,2.25-.88.93-1.88,1.7-2.78,2.44-1.47-.52-2.44-1.37-3.33-2.33-.88-.96-1.8-1.89-2.62-2.9-.8-1.01-1.48-2.13-2.39-3.44-.49-.29-1.24-.72-1.98-1.15-2.2-1.24-3.99-2.93-5.21-5.12-1.09-1.96-2.58-3.48-4.27-4.84-1.14-.92-2.25-1.83-3.09-3.29h0ZM209.4,46.38c.45.42.53.99.6,1.56.07.6-.07,1.16-.44,1.63-.27.33-.6.63-.92.91-5.83,5.42-11.77,10.71-17.84,15.86-.44.38-.83.84-1.31,1.15-3.31,2.14-5.98,5-8.68,7.83-2.99,3.15-5.98,6.3-9.35,9.05-1,.83-1.87,1.81-2.86,2.65-.7.61-1.55.69-2.44.41-.41-.14-.6-.73-.29-1.06,2.98-3.15,6.01-6.25,9.28-9.11,1.09-.96,2.18-1.9,3.07-3.06.44-.57.94-1.1,1.48-1.57,3.37-2.96,6.67-6,10.19-8.79,2.6-2.07,5.14-4.2,7.65-6.38.77-.65,1.53-1.31,2.3-1.97,1.75-1.51,3.52-2.97,4.93-4.86,1.12-1.49,2.5-2.78,3.81-4.13.15-.16.53-.09.81-.14h0ZM243.98,52.68c-.24-.48-.36-.93-.63-1.24-.76-.88-1.57-1.71-2.38-2.55-.52-.53-1.12-.9-1.93-.86-3.09,1.27-3.12,1.25-5.13,3.12-2.33,2.18-4.56,4.47-7.08,6.44-.12.08-.21.19-.31.29-.88.85-1.02,1.85-.29,2.7,1.23,1.43,2.5,2.81,3.76,4.21.3.34,1.24.31,1.63,0,.22-.19.47-.34.67-.55,2.46-2.68,5.13-5.12,7.95-7.41.45-.36.87-.77,1.25-1.21.84-.97,1.67-1.96,2.49-2.95h0ZM230.43,38.52c.64,0,1.18.25,1.57.66,1.29,1.37,2.56,2.76,3.77,4.19.22.27.12.8.17,1.28-2.32,1.56-4.27,3.48-6.28,5.35-2.01,1.87-4.16,3.6-6.26,5.37-.21.17-.53.2-.95.35-.38-.28-.93-.53-1.27-.95-1.1-1.34-2.15-2.7-3.86-3.37-.65-.26-.71-1.41-.17-1.85,2.12-1.72,3.86-3.95,6.46-5.06,1.41-1.25,2.81-2.48,4.21-3.74.85-.77,1.51-1.76,2.6-2.22h0ZM239.22,31.42c.49.42.95.76,1.35,1.16,1.41,1.43,2.84,2.87,4.21,4.34.78.85,1.53,1.73,2.2,2.66,1.94,2.69,4.04,5.25,6.41,7.59.91.91,1.92,1.77,2.35,3.04,0,1.12-.7,1.87-1.29,2.67-.74.99-1.52,1.1-2.64.54-1.46-.71-2.67-1.75-3.65-2.99-1.35-1.71-2.93-3.17-4.44-4.72-1.31-1.35-2.57-2.74-3.79-4.16-1.41-1.64-2.76-3.32-4.12-4.99-.27-.33-.48-.73-.62-1.13-.09-.24-.11-.63.03-.82,1-1.43,2.3-2.5,4.01-3.21h0ZM50.03,158.61c.39,1.15.71,2.08,1.04,3.07.78.45,1.56.82,2.26,1.32.58.41,1.06.95,1.56,1.47.29.3.33.92.08,1.18-.49.53-.94,1.11-1.49,1.55-1.13.91-2.31,1.74-3.47,2.61-2.55,1.9-5.1,3.79-7.35,6.05-.4.39-.94.64-1.35.9-.39-.07-.77-.02-.94-.18-1.83-1.83-3.64-3.7-5.44-5.56-.32-.33-.24-1.28.12-1.59,1.3-1.13,2.61-2.28,3.95-3.37,3.13-2.56,6.28-5.11,9.83-7.08.24-.14.54-.17,1.19-.36h0ZM20.54,190.77q.46,3.81,3.81,4.38c.28.05.54.19.98.36.47.53,1.06,1.15,1.6,1.83,2.48,3.04,1.8,3.71-1.55,6.04-.31.22-.86.26-1.26.18-.7-.13-1.41-.32-2.03-.65-.64-.34-1.18-.84-1.72-1.33-3.54-3.21-7.08-6.43-10.61-9.66-.76-.68-1.33-1.52-1.81-2.35.15-.77.27-1.45.4-2.11-.3-.13-.55-.34-.8-.33-.77.03-1.43-.14-1.91-.78-.35-.46-.77-.9-.99-1.42-.15-.34-.15-.96.07-1.2.85-.98,1.61-2.05,2.76-2.76.91-.56,1.64-.6,2.35.06.53.5,1.06,1,1.56,1.52,2.28,2.45,4.66,4.77,7.42,6.67.59.41,1.08.96,1.73,1.54h0ZM119.07,121.53c-.31-.41-.48-.9-.79-1.02-2.02-.8-4.1-1.32-6.32-1.2-1.57.08-3.16-.07-4.7.51-.5.19-1.15.13-1.71.06-.86-.09-1.71-.15-2.58-.07-.84.07-1.7-.07-2.23-.1-1.27.47-1.97,1.3-3.04,1.42-.76.08-1.33.54-1.77,1.12-.53.68-1.02,1.4-1.5,2.11-.35.53-.26,1.48.13,2.05.92,1.31,2.11,2.35,3.31,3.39.54.46,1.15.95,1.45,1.56.97,1.95,2.72,3.24,3.95,5.13,1.13-.87,2.16-1.64,3.17-2.44,4.66-3.68,8.27-8.41,12.62-12.52h0ZM142.05,123.93c1.13,1.02,2.17,2.03,3.26,2.97,1.99,1.71,3.84,3.54,5.43,5.62,2.04,2.65,4.35,5.06,6.88,7.25,2.64,2.29,5.06,4.78,7.38,7.38,3.09,3.48,6.33,6.79,9.8,9.88.87.78,1.68,1.6,2.87,2.75.2.1.86.4,1.49.76,2.78,1.6,5.37,3.46,7.5,5.89,2.97,3.38,6.17,6.55,9.24,9.83.29.3.53.67.78,1-.11.29-.14.61-.33.77-.18.16-.56.27-.78.19-.54-.19-1.09-.43-1.53-.79-1.58-1.27-3.1-2.62-4.67-3.91-1.46-1.19-2.95-2.34-4.44-3.5-.33-.28-.74-.48-1.03-.8-3.08-3.48-6.86-6.24-10.12-9.56-4.37-4.44-9-8.63-13.57-12.88-2.97-2.77-6.04-5.43-9.02-8.19-3.31-3.06-6.19-6.52-8.85-10.15-.5-.69-.86-1.5-1.22-2.29-.26-.54-.2-1.14.02-1.7.18-.46.57-.56.92-.53h0ZM172,149.39c.11-.63.19-.78.15-.89-.17-.39-.37-.76-.56-1.16-1.49-3.07-2.12-6.33-1.53-9.69.36-2.09.2-4-.52-5.94-.25-.68-.39-1.4-.64-2.07-.62-1.62-1.27-3.23-1.93-4.82-.23-.54-.66-.94-1.33-1.12-.33.15-.71.32-1.11.49-.4.15-.81.27-1.15.39-.66-.17-1.16-.46-1.32-1.09-.13-.55-.18-1.13-.29-1.7-.16-.77-.76-1.38-1.42-1.44-2.16-.18-4.28-.12-6.43.49-1.79.51-3.5,1.35-5.41,1.46-.34.03-.64.51-.95.77.59,1.27,1.46,2.23,2.43,3.11,2.04,1.84,3.93,3.82,5.49,6.11.72,1.06,1.71,1.95,2.62,2.87,3.37,3.38,6.79,6.72,10.14,10.1,1.21,1.23,2.32,2.55,3.75,4.13h0ZM37.55,26.41c.37-.47.76-1.07,1.26-1.58.85-.87,1.83-.88,2.67-.06,1.04,1.01,2.04,2.05,3.08,3.06.62.61,1.21,1.29,1.92,1.77,2.66,1.81,4.82,4.13,7.02,6.44,1.3,1.37,2.74,2.58,4.08,3.9,1.24,1.22,2.43,2.48,3.64,3.72.61.62,1.19,1.26,1.83,1.84,3.64,3.31,7.3,6.6,10.93,9.91.96.88,1.94,1.74,2.5,2.97.31.67.85,1.16,1.46,1.58,3.14,2.11,5.79,4.77,8.16,7.71.73.9,1.49,1.77,2.24,2.66,1.2,1.45,2.39,2.9,3.62,4.33.65.76,1.35,1.5,2.06,2.21,1.94,1.96,3.9,3.88,5.84,5.83.49.49.32,1.48-.29,1.88-1.25.82-3.05.77-4.01-.2-.91-.93-1.78-1.91-2.59-2.92-.72-.9-1.31-1.91-2.01-2.84-1.49-1.96-3.12-3.76-5.13-5.26-3.37-2.51-6.37-5.46-9.21-8.55-1.57-2.88-4.25-4.7-6.64-6.75-3.54-3.01-6.86-6.21-9.86-9.76-.66-.78-1.38-1.49-2.3-1.95-2.91-1.41-5.13-3.75-7.63-5.71-.56-.44-1.04-1.03-1.42-1.63-1.26-1.98-2.93-3.56-4.69-5.1-1.85-1.61-3.6-3.35-5.35-5.07-.4-.4-.7-.93-.98-1.43-.14-.23-.13-.54-.22-1h0ZM26.36,208.52c.26-.34.46-.77.79-1.01,2.59-1.87,4.77-4.22,7.23-6.23,3.93-3.21,7.26-7.08,11.22-10.25,3.58-3.81,7.85-6.88,11.53-10.57,1.74-1.74,3.58-3.38,5.4-5.05.42-.38.94-.65,1.39-.96.92.15,1.76.28,2.55.41,1.81-1.49,2.1-1.9,3.55-5.04,1.34-1.11,2.81-2.28,4.25-3.5,1.44-1.22,2.83-2.48,4.24-3.72.66-.56,1.24-1.27,1.99-1.66,1.45-.75,2.6-1.82,3.73-2.95,1.95-1.94,4.04-3.71,6.26-5.37,2.54-1.9,4.89-4.08,7.32-6.13,3.22-2.7,6.38-5.48,9.69-8.07,3.9-3.04,7.41-6.49,10.91-9.96,1.54-1.53,3.21-2.93,4.85-4.35.15-.14.54-.02.96-.02.3.36.69.77,1.03,1.24,1.34,1.84,1.46,2.15-.23,4.03-3.67,4.12-7.8,7.77-11.71,11.64-1.03,1.02-2.1,1.98-3.04,3.09-.84.98-1.89,1.78-2.88,2.64-.77.66-1.62,1.23-2.34,1.94-2.06,2.05-4.39,3.76-6.64,5.59-2.37,1.91-4.69,3.88-7.02,5.83-.56.45-1.12.92-1.71,1.36-5.29,3.83-10.15,8.18-15.25,12.23-1.13.9-2.22,1.86-3.25,2.88-1.66,1.64-3.42,3.12-5.28,4.52-1.15.87-2.22,1.88-3.21,2.93-2.3,2.43-4.94,4.47-7.56,6.53-3.32,2.58-6.38,5.46-9.49,8.27-3.66,3.31-7.32,6.59-10.97,9.9-1.18,1.07-2.3,2.21-3.49,3.27-.86.77-1.44.67-2.36.05-1.22-.85-2.18-1.9-2.46-3.47h0ZM115.64,263.26c-1.64.41-2.56,1.22-2.98,2.61-.38,1.24-.99,2.43-1.2,3.7-.43,2.57-.76,5.16-.96,7.75-.15,2.03-.14,4.06-.59,6.06-.29,1.31-.08,2.6.03,3.9.21,2.46.41,4.91.56,7.38.04.57-.07,1.15-.16,1.73-.12.83-.95,1.53-1.84,1.55-1.88.02-3.77.02-5.65.07-4.62.13-4.85.09-9.48-.69-3.45-.59-6.94-.52-10.41-.18-1.86.17-3.71.82-5.58.06-.12-.05-.31-.05-.43,0-1.43.63-2.83,0-4.25-.05-1.39-.03-2.46-.73-3.52-1.3-.18-.36-.38-.61-.41-.88-.21-1.71-.41-3.45-.58-5.16-.07-.73-.02-1.46-.12-2.18-.12-.86-.41-1.7-.51-2.56-.11-.99-.08-2-.12-3.01-.04-.86-.1-1.72-.15-2.59-.05-.88-.15-1.74-.14-2.61.04-4.5.11-9,.16-13.49.01-.88.11-1.73.38-2.57.73-2.21,1.19-4.46,1.16-6.83,0-.69.27-1.41.51-2.08.2-.55.66-1,1.27-1.06,3.03-.3,6.06-.59,9.09-.86,1.01-.1,2.04-.04,3.03-.24,4.75-.98,9.54-.67,14.32-.62,2.18.04,4.33.15,6.43-.66.67-.25,1.42-.41,2.13-.41,2.78,0,5.47-.66,8.18-1.08,1.71-.27,3.45-.43,5.18-.61.58-.06,1.19.06,1.73-.09,2.7-.82,5.48-.43,8.22-.65,1.59-.13,3.19,0,4.73-.57.53-.19,1.14-.18,1.72-.18,2.76-.05,5.52-.05,8.27-.09,2.18-.03,4.37.05,6.53-.18,3.79-.38,7.53.15,11.29.4,1.01.06,2.03.04,3.01.24,1.03.19,2.01.25,3.01-.02.13-.03.28-.04.43-.03,3.9.52,7.82.53,11.73.29.27-.02.59.08.82.23.23.14.48.39.56.64.12.41.2.87.14,1.27-.38,2.89-.36,5.79-.13,8.7.1,1.14.04,2.31.08,3.48.02.72-.04,1.48.14,2.17.84,3.12.72,6.32.83,9.5.06,1.6,0,3.19.31,4.78.32,1.59.27,3.14-.23,4.73-.43,1.36-.63,2.82-.89,4.24-.11.57-.17,1.15-.16,1.73.01.59.2,1.13.86,1.34.76.23,1.26.74,1.33,1.54.11,1.29.17,2.6.22,3.9.02.43-.59,1.16-1.04,1.3-1.42.41-2.86.65-4.23-.07-1.78-.94-3.61-.9-5.51-.54-.71.14-1.42.32-2.13.42-1.72.23-3.46.46-5.19.05-2.73-.65-5.52-.55-8.23-.21-3.03.38-6.07.43-9.1.69-2.6.21-5.2.49-7.79.81-.7.09-1.38.44-2.07.62-.56.14-1.13.21-1.71.29-.42.06-1.29-.57-1.34-.94-.05-.42-.13-.86-.13-1.29-.03-2.47-.05-4.93-.04-7.4,0-2.76.21-5.52.04-8.26-.19-3.33-.62-6.65-1.06-9.95-.15-1.14-.62-2.24-1.02-3.32-.32-.86-1-1.45-1.91-1.62-1.28-.25-2.58-.44-3.86.03-1.39.5-2.86.47-4.31.53-2.21.06-4.34-.22-6.31-1.31-.24-.14-.55-.17-.99-.29h0ZM81.56,173.17c2.76-2.23,5.58-4.51,8.39-6.79,3.15-2.56,6.29-5.15,9.44-7.72,1.8-1.46,3.6-2.92,5.42-4.37,3.17-2.54,6.26-5.16,9.01-8.18,2.44-2.68,5.01-5.23,7.93-7.41,1.49-1.12,2.87-2.42,3.96-4,.57-.83,1.29-1.62,2.11-2.18,1.71-1.13,3.1-2.6,4.41-3.84,1.18-.53,2.19.05,3.2-.26.92-.29,1.66.29,2.28.95.1.1.21.2.29.32,3.49,5.07,7.93,9.23,12.57,13.19.88.76,1.77,1.5,2.62,2.29.3.29.49.69.71,1.01q-1.77,4.04-4.26,6.45c-.53.51-1.05,1-1.56,1.52-.85.86-1.31,1.89-1.4,3.29,1.66,3.36,4.35,6.26,6.08,9.34.04,1.2-.39,1.81-.87,2.33-.68.75-1.47,1.39-2.2,2.1-.41.41-.8.84-1.15,1.29-.89,1.14-.45,2.61.96,3.19.56.23,1.19.25,1.64-.18,1.24-1.21,2.43-2.47,3.75-3.83.28.05.8-.04,1.07.18,2.44,2.07,4.54,4.47,6.39,7.09.56.78.65,1.58.33,2.46-.1.27-.18.55-.22.84-.07.43.56,1.23,1,1.26,1.01.06,2.01.11,2.98.16,1.29.8,2.38,1.74,3.38,2.81.89.95,1.84,1.85,2.73,2.81.98,1.05,1.95,2.08,2.7,3.37.78,1.36,1.95,2.48,2.88,3.62-.14,1.31-1.28,1.71-1.79,2.56-.23.39-.37.77-.25,1.22.13.49.88.99,1.34.87.42-.1.84-.21,1.23-.39.65-.3,1.18-.86,2.16-.9,1.86,1.05,3.31,2.67,3.49,4.99.41,4.92,1.76,9.71,2.08,14.63.96,4.08,1.37,8.3,3.02,12.22.44,1.05.69,2.2,1.01,3.31.38,1.28.32,2.58.1,3.87-.17.98-1.26,1.78-2.25,1.59-1-.18-1.97-.44-3.05-.69-2.44.78-5.04.81-7.65.73-2.46-.07-4.93-.12-7.4-.26-1.29-.07-2.58-.31-3.87-.47-4.16.82-8.32.96-12.51.23-.29-.05-.61-.18-.86-.1-2.02.64-4.04-.11-6.05,0-2.02.13-4.04.33-6.06.51-.44.05-.87.14-1.3.12-3.64-.15-7.23.27-10.78,1.12-.41.1-.91.23-1.28.1-1.76-.61-3.45,0-5.16.2-1,.12-2.02.21-3.04.18-5.12-.11-10.11.8-15.03,2.08-1.56.41-3.11.67-4.72.7-3.48.04-6.96.08-10.44.12-1.45,0-2.9-.09-4.32.37-.41.13-.85.15-1.29.16-4.78.05-9.55.44-14.31.87-.58.05-1.17.09-1.74.03-1.59-.2-3.17-.26-4.77-.18-.41.02-.85-.17-1.26-.29-.74-.21-1.23-1-1.02-1.67.53-1.66,1.06-3.31,1.91-4.84.35-.64.7-1.27,1.06-1.9.95-1.65,1.56-3.37,1.99-5.25.54-2.39,1.52-4.67,2.42-6.96,1.33-3.39,2.29-6.88,2.89-10.45.43-2.57.95-5.13,1.44-7.69.88-4.55,2.24-9,3.22-13.52.74-3.4,1.52-6.79,2.3-10.17.49-2.13,1.34-4.13,2.19-6.14.51-1.2,1.04-2.39,1.78-4.07h0ZM131.5,62.68c.11-.37.28-.51.49-.41-.05.09-.09.23-.17.27-.12.05-.28.03-.42.04-.09.41-.08.88-.28,1.23-.57,1-1.35,1.85-2.24,2.64-.63.56-1.13,1.31-1.56,2.04-.19.32-.12.84-.09,1.25.02.36.76.7,1.03.51,2.01-1.43,3.85-3.05,5.6-4.79.72-.71,1.38-1.48,2.1-2.19.86-.85,1.86-.83,2.63.1,3.15,3.8,6.71,7.23,9.65,11.2.69.94,1.47,1.77,2.47,2.41.6.4,1.22.83,1.65,1.39,1.88,2.39,3.69,4.82,5.52,7.25.17.23.26.51.39.78.22.42.03,1.29-.37,1.58-3.28,2.38-6.52,4.8-9.52,7.53-.64.59-1.29,1.17-1.88,1.71-.86.5-1.74.48-2.6.39-2.91-.31-5.78-.23-8.57.56-.77-.21-1.46-.43-2.17-.57-1.04-.19-1.88-.72-2.65-1.41-.43-.38-.88-.76-1.34-1.11-.5-.39-1.53-.3-2.03.12-.53.45-.85,1.43-.59,1.96.45.88.94,1.76,1.41,2.63q-.78,1.12-2.28,1.68c-2.6-1.99-6.86-5.71-8.13-7.14-.18-.19-.22-.52-.36-.89,1.4-2.27,2.75-4.66,5.11-6.25.95.57,1.78,1.14,2.67,1.58.9.44,2.2-.42,2.21-1.43,0-.56-.07-1.16-.27-1.69-.3-.8-.74-1.57-1.07-2.23-.04-.91.33-1.53.8-2.08,1.02-1.23,2.1-2.41,2.82-3.84.42-.85.2-2.16-.51-2.81-.21-.19-.43-.4-.65-.57q-2.44-1.95-4.21-4.92c.22-.33.39-.78.71-1.03,2.26-1.78,3.98-4.23,6.72-5.44h0ZM211.57,192.53c.49.07.82.31.86.84.58,0,.95.23.9.88.28,0,.6-.09.83,0,.39.18.81.4,1.06.72,1.59,2.1,3.76,3.58,5.68,5.33,2.67,2.43,5.53,4.64,8.41,6.81.8.61,1.54,1.3,2.26,2,.31.29.55.68.72,1.07.11.25.15.59.06.84-.15.46-.57.55-1.18.52-2.19-1.7-4.36-3.59-6.42-5.62-1.55-1.52-3.16-2.98-4.87-4.32-2.39-1.87-4.46-4.11-6.23-6.6-.16-.22-.17-.54-.25-.82-.49-.11-.74-.45-.87-.91-.42-.14-.72-.4-.85-.83-.49-.11-.86-.34-.88-.9-.27-.07-.6-.08-.8-.24-2.58-2.08-5.2-4.13-7.71-6.29-1.2-1.03-2.23-2.26-3.26-3.46-.23-.28-.21-.81-.21-1.22,0-.41.67-.83.92-.6,1.85,1.6,3.76,3.13,5.52,4.84,1.64,1.6,3.12,3.39,4.65,5.13.47.53.91,1.12.81,1.92.6.02.85.35.85.92h0ZM131.05,304.62c-.93-.58-1.74-1.11-2.57-1.61-.77-.46-1.64-.64-2.51-.42-1.27.31-2.55.49-3.86.55-.98.04-1.94.46-2.89.71-1.74-.3-3.44-.62-5.16-.88-.71-.11-1.47-.25-2.16-.14-2.9.49-5.8-.02-8.69.17-3.21.2-6.35-.42-9.47-1.07-2.87-.62-5.78-.58-8.66-.24-1.42.17-2.85.42-4.17,1.14-1.54.84-3.07.7-4.44-.5-.21-.18-.51-.27-.84-.43-2.61.43-5.47-.38-7.95,1.33-.66.43-.6,1.22-.82,1.89-.29.84-.81,1.52-1.56,2.02-.42.28-1.36.05-1.52-.4-.42-1.23-.82-2.47-1.26-3.69-.22-.63-1.36-.71-1.87-.25-.89.81-1.22,1.95-1.86,2.92-.88,1.31-2.79,1.27-3.6-.14-.35-.61-.59-1.3-.9-2.03-.4-.08-.81-.27-1.21-.24-1.02.07-2.01.24-3.02.37-.92.12-1.72-.2-2.46-.69-.72-.46-.91-1.53-.48-2.32.45-.81,1.14-1.29,2.25-1.67.47.07,1.18.18,1.89.23.89.09,1.73-.05,2.56-.35.76-.26,1.29-.75,1.4-1.5.18-1.29.28-2.59.35-3.89.11-2.03.24-4.07.2-6.08-.04-2.05.39-4.04.51-6.06.15-2.89.22-5.8.27-8.7.04-1.89,0-3.78,0-5.66,0-.59.02-1.16.05-1.74.08-1.59,1.03-2.23,2.09-2.39.57-.08,1.13-.12,1.77-.17.15-.42.38-.81.39-1.21.05-1.31.06-2.61.02-3.91-.06-1.76.03-3.48.82-5.09.06-.12.03-.29.05-.42.07-.48-.53-1.21-1.04-1.2-.72,0-1.44.09-2.16.08-.86,0-1.74-.03-2.59-.15-1.12-.16-2.11-1.37-2.08-2.45.01-.58.02-1.17.16-1.73,1.02-4.08,2.04-8.15,3.63-12.07.87-2.14,1.57-4.37,2.16-6.6.33-1.27.65-2.54,1.19-3.72.92-2,1.44-4.1,2.06-6.19,1.32-4.44,2.66-8.88,3.98-13.32,1.07-3.6,2.43-7.14,3.1-10.85.18-.99.52-1.95.83-2.92.92-2.91,1.37-5.92,1.9-8.92.04-.22-.18-.49-.28-.74-.27.06-.62.06-.81.21-3.11,2.61-6.28,5.15-9.13,8.07-.71.72-1.45,1.43-2.28,2.01-3.79,2.7-7.34,5.68-10.62,8.99-.92.92-1.91,1.79-2.91,2.62-4.23,3.56-8.1,7.48-11.79,11.58-1.25,1.39-2.49,2.81-3.73,4.22-.33.37-1.17.48-1.61.18-.59-.41-1.3-.75-1.71-1.31-1.11-1.55-2.48-2.83-3.88-4.09-1.19-1.08-2.17-2.32-2.86-3.8-1.05-2.28-2.68-4.15-4.47-5.84-3.47-3.31-6.93-6.62-10.56-9.74-2.45-2.09-4.3-4.7-6.01-7.61-.07-.87-.18-1.87-.24-2.88-.06-.93.35-1.69.92-2.38.09-.11.18-.23.29-.32,2.45-2.05,4.9-4.08,7.67-5.69.71-.42,1.43-.21,2.05.2.48.31.9.72,1.3,1.14.79.85,1.52,1.76,2.32,2.59.28.3.71.44,1.03.63,2.54-1.48,9.17-6.79,11.53-9.26.18-.19.21-.51.36-.9-.94-1.83-2.51-3.48-2.74-5.74.16-.24.27-.54.47-.71.84-.75,2.13-.77,2.73-.04.82,1.01,1.56,2.08,2.34,3.12.33.42,1.11.54,1.57.22.12-.07.26-.14.37-.22,1.27-.98,2.59-1.9,3.77-2.96,2.92-2.62,5.97-5.07,9.17-7.35.35-.25.66-.57,1.02-.88-.14-.47-.16-.96-.41-1.24-.38-.4-.94-.65-1.41-.97-.47-.32-.93-.65-1.44-1.01-.12-1.05-.27-2.05-.34-3.05-.05-.64.34-1.08.86-1.39.54-.31,1.14-.3,1.64.04.6.39,1.18.84,1.69,1.35.82.82,1.57,1.71,2.38,2.54.56.57,1.24.57,1.96.06.24-.17.49-.32.71-.51,2.86-2.46,5.72-4.92,8.55-7.4.53-.47.97-1.06,1.27-1.39.36-1.37-.48-2.19-.62-3.19-.09-.66.39-1.41,1.11-1.66.74-.25,1.45-.18,2.09.19.5.29.92.69,1.37,1.04,2.13-1.15,6.09-4.13,7.92-5.94.16-.93-.44-1.63-.72-2.44-.24-.68-.47-1.36-.64-2.06-.15-.67.33-1.53.92-1.81.88-.39,2.01-.23,2.39.38.54.86,1.02,1.73,1.48,2.52.44,0,.78.1.98-.02,1.72-1.07,3.45-2.14,5.11-3.3,1.93-1.36,3.98-2.37,6.34-2.68.69-.09,1.1-1,.89-1.71-.09-.27-.18-.55-.29-.81-1.3-2.91-1.17-5.93-.62-8.96.27-1.43.56-2.85.86-4.35-.4-.2-.74-.46-1.12-.55-.41-.11-.94.07-1.29-.11-1.96-1.06-3.89-.88-5.84,0-.13.06-.29.04-.43.05-.28-.06-.58-.1-.83-.22-2.07-1.01-2.38-1.84-1.31-3.73,1.08-1.9,2.29-3.65,4.02-5.09,1.89-1.58,3.57-3.39,5.37-5.09.42-.39.88-.78,1.39-1.01,1.68-.76,2.61-2.23,3.65-3.5-.11-.41-.09-.76-.26-.95-2.36-2.75-4.75-5.48-7.11-8.23-1.23-1.43-2.62-2.7-4.04-3.95-2.51-2.2-5.01-4.42-7.43-6.72-1.05-.99-1.89-2.19-2.85-3.27-.96-1.08-1.86-2.23-2.93-3.2-2.46-2.25-5.02-4.39-7.51-6.61-.86-.77-1.71-1.58-2.46-2.46-1.34-1.56-2.9-2.81-4.58-3.98-2.01-1.41-3.92-2.99-5.83-4.55-.78-.64-1.47-1.39-2.13-2.17-2.18-2.54-4.48-4.95-7.16-6.98-.57-.44-1.13-.92-1.61-1.46-2.16-2.36-4.65-4.36-7-6.31-.51-.75-.58-1.44-.4-2.18.15-.59.46-1.11.96-1.39,1.13-.64,2.32-1.2,3.4-1.74.91-.86,1.73-1.68,2.61-2.43.77-.66,1.62-1.18,2.62-1.5.82-.26,1.64-.59,2.37-1.04,2.71-1.71,5.16-3.78,7.35-6.08,1.89-1.98,3.42-4.31,5.1-6.5.18-.23.34-.48.47-.73.59-1.07,1.52-1.75,2.6-2.21,1.32-.57,2.68-1.06,4.11-1.63,1.52.53,2.75,1.53,3.39,3.06.73,1.71,1.96,2.79,3.56,3.66,1.41.76,1.87,2.61,1.24,4.19-.16.41-.43.77-.6,1.16-.18.39-.29.81-.42,1.17.44,1.31,1.09,2.44,1.89,3.48,1.44,1.83,2.92,3.6,4.4,5.38.36.43,1.22.49,1.57.13.51-.51,1-1.04,1.5-1.57.8-.85,1.71-1.57,2.75-2.11.99-.52,1.95-.46,2.89.14,1.4.89,1.38,2.77-.06,3.56-.38.2-.8.34-1.2.48-.4.15-.82.26-1.4.44-.66.97-1.38,2.04-2.03,3.01-.12.78.25,1.23.63,1.65.29.32.59.65.94.91,2.81,2.09,5.16,4.67,7.52,7.22,1.18,1.28,2.42,2.5,3.63,3.74.78.16,1.48.3,2.19.43,1.65.33,1.9.5,2.09,2.21.12,1.1.54,1.97,1.42,2.56,2.78,1.87,5.11,4.28,7.8,6.37.35.1.77.24,1.18.32.78.16,1.27.66,1.68,1.27.08.12.15.26.17.41.36,2.16,1.74,3.71,3.36,4.91,1.88,1.41,3.39,3.17,5.14,4.67.33.28.7.49,1.06.74,1.34.08,2.49-.8,3.75-.6.29-.19.56-.32.78-.51,1.77-1.5,3.51-3.04,5.31-4.51,1.69-1.37,3.33-2.76,4.56-4.62.95-1.45,2.55-1.54,4.21-.54.37.22.73.45,1.1.69.83-.35,1.62-.7,2.43-1.01,1.05-.41,1.98-.06,2.55,1,.98,1.78,1.92,3.59,2.87,5.37,1.9,3.59,3.78,7.19,5.72,10.76,1.19,2.17,2.48,4.24,4.48,5.82,1.01.8,1.85,1.84,2.64,2.88,1.16,1.51,2.64,2.68,3.98,4.01.35.36,1.18.31,1.6-.04.22-.18.48-.34.68-.55,3.41-3.36,6.83-6.71,10.21-10.09,1.75-1.75,3.5-3.48,5.43-5.02,2.04-1.62,3.91-3.47,5.88-5.16,1.54-1.33,3.14-2.58,4.71-3.86,2.01-1.67,4.03-3.32,6.04-4.99.33-.28.63-.6.9-.94,2.82-3.52,6.2-6.52,9.37-9.71.91-.92,2.02-1.65,3.06-2.43,3.35-2.55,6.71-5.07,10.03-7.65.91-.71,1.72-1.56,2.49-2.41,1.17-1.29,2.37-2.57,3.4-3.96,1.89-2.62,4.38-4.64,6.63-6.88.7-.71,2.12-.8,2.82-.18,1.31,1.14,2.73,2.17,3.77,3.59.59.82,1.33,1.54,1.92,2.35.42.58.86,1.2,1.08,1.87.63,1.99,1.82,3.63,3.2,5.12,3.95,4.25,7.54,8.82,11.27,13.26,1.03,1.23,1.97,2.51,3.25,3.5.32.25.54.67.73,1.06.13.25.12.56.18.85-.8,3.14-2.43,5.85-4.48,8.35-.18.22-.37.44-.56.66-.91,1.04-2.47,1.28-3.54.51-.82-.6-1.59-1.27-2.42-1.84-.47-.33-1.01-.57-1.56-.76-.2-.07-.62.07-.73.26-.44.73-.8,1.51-1.3,2.47-1.56.94-3.42,1.79-4.85,3.29-.58.6-1.44.98-2.23,1.33-2.06.88-3.57,2.43-5.05,4.04-.16.18-.13.54-.19.83.45.73.9,1.47,1.34,2.21.07.12.07.28.12.49-.14.34-.25.77-.47,1.13-.6.98-1.71,1.21-2.6.54-.35-.26-.73-.51-.99-.84-1.41-1.81-2.38-1.16-3.65-.11-2.9,2.39-5.72,4.88-8.44,7.21-.14.49-.29.77-.29,1.03.04,2.14-.12,2.31-1.67,3.02-1.24.57-2.54.5-4.09.66-.79.49-1.85.99-2.74,1.71-3.15,2.55-6.44,4.97-9.14,8.23-2.73,1.41-5.42,3.14-7.75,5.33-3.62,3.38-7.66,6.21-11.52,9.27-2.16,1.71-4.38,3.35-6.29,5.35-.4.42-.76.87-1.13,1.3-.31,1.94.18,3.8.18,5.68,1.19,5.68,1.74,11.44,2.43,17.19.45,3.76,1.28,7.43,3.21,10.77.15.24.19.54.36,1.04-.07.93-.17,2.08-.24,3.24-.07,1.19.19,2.32.73,3.37.26.51.6,1,1,1.41.39.42.89.75,1.35,1.1,4.17,3.17,7.96,6.74,11.33,10.77,1.57,1.89,3.21,3.75,5.35,5.06.48.29.92.72,1.3,1.14,2.14,2.37,4.41,4.61,6.98,6.51.23.17.49.36.61.6,1.03,2,2.81,3.31,4.34,4.85,2.23,2.28,4.55,4.48,6.81,6.73,1.13,1.12,2.34,2.16,3.69,3.03,2.07,1.35,4.03,2.86,5.76,4.63,1.33,1.36,2.78,2.54,4.56,3.29.53.22,1,.59,1.47.92,1.56,1.11,1.85,2.32,1.15,4.18-.77,2.06-1.94,3.88-3.01,5.77-.36.62-.91,1.13-1.43,1.63-1.9,1.81-3.42,3.93-5.04,5.97-1.78,2.27-3.38,4.7-5.57,6.66-.97.87-1.73,1.96-2.62,2.9-1.44,1.53-3.2,2.47-5.28,2.83-.91.16-1.74,0-2.39-.68-1.39-1.47-2.77-2.96-4.14-4.46-.69-.77-1.2-1.63-1.48-2.79.19-.56.42-1.24.63-1.93.2-.66-.13-1.07-1.26-1.47-.87.88-1.78,1.81-2.71,2.7-.55.53-1.22.74-1.97.78-.64.05-1.12-.24-1.49-.71-.29-.38-.2-1.19.13-1.63.62-.8,1.26-1.59,1.86-2.41.34-.46.63-.96.88-1.36-.09-.41-.05-.76-.22-.95-1.28-1.37-2.59-2.74-3.91-4.08-.4-.41-.86-.75-1.35-1.15-1.25.48-2.46.93-3.65,1.43-.26.1-.46.34-.68.51-.37.68-.35,1.41-.24,2.13.4,2.58.81,5.15,1.23,7.73.09.57.32,1.13.31,1.71,0,3.24.91,6.3,1.64,9.39.27,1.15.35,2.29.18,3.45-.29,2.01-1.49,3.13-3.51,3.13-1.14,0-2.28-.19-3.53-.3-.19.33-.64.76-.56,1.02,1.12,3.21.33,6.31-.49,9.39-.27,1-.49,1.96-.5,2.99-.03,2.76-.09,5.51-.13,8.27-.02.73.13,1.49-.05,2.18-.63,2.3-.11,4.61-.06,6.91.05,2.17.05,4.35.66,6.47.25.86.21,1.72.07,2.59-.12.71-.25,1.43-.29,1.68.32,2.32.56,4.18.82,6.05.13.88.96,1.48,1.83,1.56,1.75.15,3.41-.62,5.19-.34,1.57.23,3.18.18,4.78.23,1.45.06,2.9.07,4.35.14,1.75.07,3.46.04,5.17-.47,1.43-.43,2.32.16,3.03,1.72.12.26.13.56.18.86-.43,1.49-1.99,1.5-3.09,2.35-2.08-.05-4.16-.77-6.34-.83-2.02-.05-4.05-.17-6.09-.12-2.17.05-4.35-.06-6.26.27-1.2.64-1.68,1.51-2.03,2.49-.17.48.26,1.23.83,1.27.86.06,1.73.13,2.6.11.56,0,1.12-.17,1.76-.27.42.46.85.85,1.15,1.31.73,1.12.23,2.34-1.07,2.69-.41.11-.84.22-1.27.24-.73.03-1.45,0-2.17-.03-2.47-.09-4.92-.11-7.29.81-.86.33-1.71.02-2.37-.67-.2-.68-.39-1.37-.64-2.18-2.55-.83-5.27-1.42-7.72-3.13-.2-.34-.45-.87-.8-1.32-.15-.21-.47-.33-.74-.39-.27-.07-.59-.05-.86,0-2.57.58-5.17.67-7.79.58-2.67-.09-2.67-.03-5.48,1.01-3.04-.95-3.04-.97-5.93-.82-4.07.2-8.06.94-12.06,2.24-.76-.11-1.61-.3-2.48-.33-1.19-.05-2.3.24-3.19,1.12-.25.24-.18,1,.13,1.13.39.18.78.41,1.19.5.56.13,1.15.18,1.73.19,5.22.12,10.44.36,15.66.07,1.74-.09,3.46-.38,5.19-.51,2.6-.2,5.2-.37,7.8-.51.42-.03.85.15,1.25.29.95.35,1.44,1.75.91,2.54-.58.83-1.18,1.65-2.23,2.22-1-.22-2.1-.56-3.2-.7-1-.13-2.03-.09-3.05-.04-1.15.06-2.3.26-3.45.35-.86.06-1.74.08-2.6.06-2.47-.07-4.93-.29-7.35.41-1.15.33-2.24-.45-3.43-.18-1.12.26-2.3.28-3.45.38-.29.03-.59,0-.87-.08-1.95-.63-4-.61-5.98-1.02-.88-.18-1.69-.2-2.56-.02-.85.19-1.72.31-2.59.31-4.64,0-9.27.34-13.93.13-2.89-.13-5.79.05-8.69.09-2.41.78-4.83.74-7.29.2-.27-.06-.58.04-.86.05-1.3.07-2.6.17-3.91.21-2.61.07-5.22.07-7.83.2-2.59.13-5.19.41-7.78.59-2.02.15-4.05.28-6.08.38-1.3.07-2.6.08-3.89-.2-.27-.4-.51-.75-.73-1.07.35-1.74,1.49-2.53,3.11-2.53,4.35,0,8.68-.57,13.03-.65,4.06-.07,8.08-.77,12.14-.85,1.74-.03,3.48-.03,5.22-.04,4.07-.03,8.13-.04,12.19-.07,3.63-.03,7.25-.09,10.88-.09,2.92,0,5.78-.41,8.76-.88Z"/>
      <path class="cls-1" d="M123.06,316.33c1.81.36,3.5.7,5.35,1.06.84-.17,1.81-.41,2.8-.55.41-.06.86.03,1.27.13,1.02.25,1.49,1.51.94,2.42-.39.64-.9,1.13-1.59,1.38-2.21.8-4.52,1.12-6.76.33-1.72-.61-3.38-.56-5.09-.3-.85.12-1.68.39-2.53.49-.61.06-1.1-.25-1.42-.78-.33-.57-.19-1.13.1-1.63.53-.91,1.35-1.51,2.38-1.73,1.4-.29,2.83-.51,4.55-.8Z"/>
      <path class="cls-1" d="M97.51,38.51c.31.05.48.22.5.53.02.41-.48.77-.84.58-.29-.15-.39-.41-.28-.73.1-.3.33-.42.62-.38Z"/>
      <path class="cls-1" d="M128.71,171.35c-.09-.11-.21-.32-.29-.31-.43.05-.88.45-.9.81,0,.06.22.24.3.22.27-.06.53-.17.76-.32.09-.05.08-.26.12-.4h0ZM131.07,171.25c.63.54,1.28,1.1,2,1.71,0,.54.05,1.1-.01,1.65-.08.78-.53,1.35-1.29,1.58-.55.16-1.17.41-1.69.28-2.99-.74-6.02-.54-9.05-.5-.43,0-.89,0-1.28-.14-.53-.19-1.06-.45-1.49-.81-.72-.59-.8-1.54-.27-2.33.32-.47.69-.92,1.14-1.5.01-1.18.03-2.47.04-3.76,0-1.73.05-3.47.74-5.11.11-.26.15-.56.2-.85.5-2.99,1.2-5.93,2.43-8.6-.15-.88-.3-1.58-.38-2.29-.18-1.64.41-2.71,1.94-3.49.38-.2.81-.29,1.29-.44,2.33.75,4.78.7,7.22.7,1.03,0,2,.21,2.79.99.64,1.08.29,2.27.27,3.38-.03,1.14-.18,2.33-.57,3.4-1.11,3.01-1.64,6.11-1.63,9.32.01,2.25-.6,4.27-2.1,5.99-.17.19-.19.52-.3.84Z"/>
      <path class="cls-1" d="M119.64,219.88c1.48.42,1.51.43,2.09.12.24-.12.53-.31.63-.54.32-.68.41-1.41,0-2.08-.11-.17-.48-.19-.76-.31-.65.93-1.3,1.87-1.97,2.82h0ZM132.13,201.55c.07,1.71.1,3.54-.27,5.42-.63,3.26-.91,6.59-1.31,9.89-.07.57,0,1.15,0,1.73.39.65.79,1.25,1.11,1.9.43.84.32,1.71-.17,2.48-.21.33-.6.7-.97.77-.84.16-1.72.2-2.58.2-1.44,0-2.89-.11-4.34-.14-1.75-.03-3.46.17-5.13.78-.67.25-1.41.35-2,.49-1.18-.23-1.97-.78-2.3-1.85,0-1.15,1.18-1.63,1.49-2.74-.06-.3-.07-.75-.24-1.13-.44-.99-.44-1.96-.11-2.96.18-.55.26-1.13.49-1.67,1.5-3.54,1.87-7.26,1.75-11.06-.03-1,.01-2.02.07-3.03.09-1.3,1.48-2.39,2.76-2.19.14.02.29.03.43.06,1.13.19,2.15,1.08,3.34.72.95-.28,1.82-.84,2.72-1.26.12-.05.29,0,.43.02.24.15.52.26.72.45.4.42.75.89,1.15,1.37.79.76,2.33.29,2.95,1.75Z"/>
      <path class="cls-1" d="M71.44,278.73c.21-1.82,1.35-2.79,3.01-3.3.46-.13,1.17.45,1.19.98.05.92-.54,1.9-1.3,1.99-1,.13-2.01.16-3.01.22l.12.11Z"/>
      <path class="cls-1" d="M71.32,278.62c-.02.57-.06,1.13-.64,1.46-.31.18-.58.09-.72-.23-.05-.11-.01-.29.05-.42.3-.59.88-.62,1.44-.7l-.12-.11Z"/>
    </g>
  </g>
</svg>