<?xml version="1.0" encoding="UTF-8"?>
<svg id="Layer_2" data-name="Layer 2" xmlns="http://www.w3.org/2000/svg" viewBox="0 0 329.14 452.3">
  <defs>
    <style>
      .cls-1 {
        fill: #3d2011;
      }
    </style>
  </defs>
  <g id="_Ñëîé_1" data-name="Ñëîé 1">
    <g>
      <path class="cls-1" d="M304.92,340.12c1.96,1.15,3.71,1.92,5.15,3.07,4.04,3.23,8.39,5.68,13.52,6.81,2.58.57,2.52.87,5.55,4.45-2.01,6.63-8.42,11.12-9.74,18.63,3.1,3.16,6.25,6.36,9.51,9.68-3.57,9.46-10.19,15.23-18.52,18.66-.37,1.02-.66,1.51-.71,2.02-.67,8.09-2.27,9.98-9.81,11.08-2.39.35-4.84.24-7.26.42-2.92.22-5.82.53-9.23.85-.26,2.72-.38,5.06-.73,7.36-.62,4.14-4.21,7.04-8.07,5.65-5.12-1.84-9.48-.51-14,1.47-4.45,1.96-8.95,3.71-14.19,1.73-.92-1.29-1.99-2.77-3.09-4.3-8.48,2.19-15.2,7.11-22,11.88-3.3,2.32-6.54,4.74-9.93,6.92-3.38,2.17-7.02,2.48-10.79.83-1.97-.86-3.96-1.71-6.02-2.3-3.41-.97-6.56-.54-8.24,3.02-1.66,3.52-4.58,4.23-7.99,4.22-6.19-.02-12.39-.17-18.58,0-6.44.17-11.69-1.61-14.79-7.71-.23-.45-.78-.73-1.63-1.49-3.64-1.36-7.93-.98-12.18-.25-3.18.54-6.28,1.52-9.45,2.12-2.1.39-4.26.66-6.38.6-3.01-.08-4.96-2.42-4.62-5.39.15-1.31.73-2.57,1.07-3.86.33-1.28.61-2.58.94-3.99-2.72-1.44-5.79-2.29-7.66-4.28-1.88-2-2.56-5.12-3.88-7.98-4.51-1.13-9.03-.36-13.48.45-5.7,1.03-11.32.15-16.82-.76-7.74-1.28-8.88-4.53-4.77-11.14,1-1.6,2.16-3.12,2.94-4.82,2.41-5.24.57-9.39-4.78-11.54-2.72-1.09-5.31-2.49-7.98-3.73-1.21-.56-2.4-1.34-3.67-1.56-6.08-1.04-12.16-2.16-18.29-2.76-3.77-.37-6.31-2.02-7-5.5-1.13-5.67-4.99-7.22-9.94-7.56-2.15-.15-4.32-.07-6.45-.31-2.8-.32-4.33-2.48-3.56-5.17.66-2.28,1.72-4.44,2.48-6.36-.69-2.68-2.78-2.8-4.52-3.36-3.06-1-5.22-2.62-5.32-6.22-.11-4,.53-7.94,4.4-9.66,6.41-2.84,12.4-6.38,18.56-9.66,3.71-1.98,8.02-2.84,12.49-4.35.2-2.13.69-4.22.53-6.26-.96-12.08-.38-24.11.44-36.18.49-7.21.31-14.49.12-21.73-.07-2.54.39-4.55,1.63-6.82,3.21-5.89,5.78-12.12,8.91-18.05,5.4-10.22,9.51-21,13.84-31.67.69-1.69.98-3.61,1.08-5.45.36-6.43.55-12.88.8-19.15,6.05-6.22,7.57-6.61,14.66-2.76,2.8,1.52,5.25,2.03,8.38,1.02,3.14-1.01,6.4-.42,9.24,1.71.71,2.47-.34,4.38-2.49,5.19-3.64,1.36-6.52,3.64-9.29,6.23-2.33,2.18-5.07,2.64-8.25,1.85-2.55-.64-5.27-.66-8.25-.99-1.54,5.38-2.26,10.45-.38,15.25,3.83,9.75,8.17,19.3,12.32,28.92.2.47.62.84,1.28,1.72,3.27-.75,6.79-1.55,10.48-2.39.8,1.56,1.28,2.79,2.02,3.83.39.56,1.24,1.15,1.85,1.12,1.46-.08,1.39-1.22,1.18-2.35-.19-1.01-.25-2.04-.36-2.94,5.89-3.47,6.07-3.52,14.37-4.24.17-1.4.41-2.92.52-4.44.09-1.32.02-2.66.02-3.82-.78-.82-1.22-1.61-1.89-1.94-4.23-2.08-5.72-5.23-4.68-9.91,1.15-5.2.2-10.78,2.92-16.43,4.81-1.16,9.96-2.4,15.06-3.63,2.9.07,2.26,5.43,6.43,3.83v-4.79c1.12-2.2,5.35-4.23,11.93-5.95,2.1-6.29,1.77-13.02,1.72-19.67-.05-7.23-.52-14.46-.84-21.68-.07-1.61.27-3.57-.51-4.75-3.18-4.86-.23-10.01-1.05-14.94-.16-.95.49-2.07.9-3.06.64-1.53,3.13-2.41,4.04-1.22,4.57,5.94,11.71,7.33,17.88,10.45,4.08,2.07,8.2,4.1,12.09,6.48,3.31,2.02,6.54,2.42,9.94.71,4.8-2.41,9.66-4.75,14.23-7.55,4.42-2.71,9.17-4.46,14.04-6.03.43-.14,1.01.18,1.93.37,1.68,3.54,1.47,7.56,1.76,11.19-.52.77-.72,1.37-1.13,1.62-4.78,2.87-6.07,6.99-5.19,12.38.6,3.68.33,7.51.44,11.27.03,1.08-.15,2.19.07,3.23,2.25,10.34,1.45,20.91,2.48,31.34.05.52.33,1.01.54,1.63,1.58,1.74,5.12.25,6,3.11.69,2.24.83,4.66,1.28,7.4,1.32.23,2.86.54,4.41.76,2.21.3,4.04,1.15,5.57,2.89.79.9,2.05,1.48,3.2,1.95,5.2,2.12,6.76,4.95,6.53,10.45-.21,4.99-2.23,8.81-6.1,11.69-2.14,1.59-4.61,2.74-6.71,4.38-.85.66-1.1,2.08-1.71,3.33,4.16.9,7.77,1.69,11.69,2.54v8.78c3.82-.91,7.21-2.29,11.05-.35.17,2.04.37,4.36.64,7.48,1.39-.96,2.82-1.4,3.22-2.3,2.6-5.89,4.94-11.9,7.44-17.83,3.44-8.17,6.22-16.64,11.19-24.1,5-7.51,5.49-16.12,5.96-24.71.16-2.91.03-5.83.03-8.05,3.18-4.04,6.34-6.28,10.87-5.28,1.28.28,2.81.58,3.66,1.44,3.51,3.53,7.55,3.65,11.98,2.47.99-.26,2.07-.18,3.5-.28,0,3.1.2,5.95-.06,8.76-.24,2.65-3.06,5.1-6.13,5.6-3.48.57-6.95.73-10.3-.85-1.7-.8-3.47-1.51-5.28-1.99-2.1-.55-4.71.79-5.23,2.81-.73,2.83-.73,5.34,1.02,8.29,5.91,9.9,11.32,20.1,16.72,30.3,1.24,2.34,1.55,5.15,2.47,7.67,1.72,4.73,1.78,9.97,5.28,14.21,1.3,1.57,1.62,4.84,1.01,6.94-2.15,7.44-1.46,15.01-1.2,22.44.37,10.51-.32,20.96-.32,31.44v22.17ZM178.55,205.85c.24-.07.51-.1.72-.22.16-.09.24-.3.36-.46-.3.28-.6.56-.89.85-.35.36-.82.67-.99,1.09-.07.19.47.62.74.94.11-.23.32-.47.3-.7-.02-.51-.16-1.01-.25-1.51ZM288.97,243.12c.16.66.32,1.32.14.59.42.64.06.09-.3-.45-.08-2.27.58-4.71-1.52-6.5-.52-2.19-1.05-4.38-1.57-6.57.35-1.54.95-3.08.95-4.62,0-.85-1.02-1.7-2.11-3.36-.06,3.48-.69,5.9,1.29,7.85-.09,1.23-.24,2.47-.24,3.7,0,1.29.4,2.43,1.8,2.89-.07,2.3-.29,4.63,1.55,6.47ZM146.64,277.63c-2.2,2.17-3.76,4.6-3.23,7.89-1.97.84-2.38,2.67-3.04,4.45-2.31,6.3-4.72,12.57-7.13,18.84-2.69,6.99-5.41,13.96-7.97,20.54,2.42,6.11,7.86,7.86,12.15,10.9,1.99,1.41,4.13,2.51,6.99,1.61.97-8.5.32-17.06-.04-25.62-.01-.25-.23-.48-.31-.74-.79-2.37-2.16-1.15-3.96-.3,1.87-5.83,2.9-11.42,3.57-17.15.51-4.38.61-8.48-.43-12.68.58-.41,1.51-.72,1.67-1.26.65-2.18,1.07-4.43,1.57-6.66.21-.15.45-.28.61-.46.11-.13.13-.35.18-.52-.21.38-.43.77-.64,1.15ZM147.98,374.11c.63.06,1.27.13,1.9.19-.26,3.23-2.21,6.19-2.06,9.63h2.05c-.37,1.44-.65,2.91-1.12,4.31-.54,1.61-.47,2.95,1.13,3.89-1.56,5.01-2.84,10.06-2.31,15.54.89-.26,1.62-.48,2.35-.7l-.17-.17c-.23,3.8-3.36,7.08-2.32,11.13,1.05.14,1.82.25,2.59.36l-.15-.14c.28,1.05.73,2.36,2.02,1.76,4.32-2,9.13-3.05,12.72-5.95,2.35-17.97,1.84-60.09-.84-72.86-5.8.7-9.09,3.89-10.15,9.58,5.31,2,5.38,2,5.66,6.41.15,2.37.03,4.75.03,6.41-3.05,2.92-5.53,5.29-8.01,7.67.09-1.25-.4-2.21-1.72-2.08-.64.06-1.66.79-1.72,1.32-.15,1.24.16,2.55.29,3.83-.11.39-.22.78-.33,1.17.06-.43.12-.87.17-1.3ZM180.43,194.84c.59-.01,1.18-.03,1.78-.04-.18,2.13-.72,4.31-.46,6.38.71,5.5-1.44,9.92-4.64,14.05-.76.98-1.54,1.94-2.43,3.05,2.63,1.12,4.68,1.13,6.75.15,7.02-3.33,14.03-6.69,21.08-9.94,4.18-1.92,5.84-5.01,5.75-9.61-.31-16.41-.43-32.83-2.3-49.17-.18-1.54-.74-3.04-1.23-4.95-9.6.08-16.56,6.37-24.67,8.66-1.68,3.72-1.37,7.31-1.3,10.72.04,1.95,1.53,3.86,2.37,5.79v-.11c-.7,2.34-3.3,4.25-1.67,7.3,1.01-.48,1.91-.9,2.81-1.32l-.15-.15c.02,1.57.05,3.14.07,4.71-4.25,3.4-4.41,4.2-1.59,8.07-.02,2.18-.03,4.36-.05,6.53-.9.32-2.29.4-2.58,1.01-.52,1.09-.37,2.5-.56,4.32,2.62-1.5,3.66-3.05,3.02-5.45ZM226.91,218.09c1.96.78,3.89,1.72,5.92,2.21.53.13,1.53-1.08,2.02-1.85.12-.19-.78-1.47-1.37-1.62-2.42-.59-4.7-.02-6.73,1.45-.68-2.19-1.36-4.37-2.05-6.6h-6.53c2.48,2.4,4.24,4.12,6.01,5.83-2.86.17-5.37-1.23-7.11-3-5.57-5.69-10.99-4.99-16.95-.8-1.55,1.09-3.11,1.86-3.53,3.85l.14-.11c-6.45-.91-10.54,2.84-14.19,7.32-1.49,1.83-2.69,3.89-4.13,5.99-5.46-.29-10.54-.55-15.62-.82-1.9-.1-3.8-.21-4.53,2.23,1.72,1.58,3.39,3.12,4.94,4.54,5.33-1.86,10.39-4.61,14.91.65,1.15,1.77-1.74,3.7.95,5.67,2.75-1.17,5.84-2.49,9.59-4.09-1.32-3.76.54-6.42,3.86-7.57,3.96-1.37,8.06-2.65,12.93-2.34v6.08c2.39.3,3.43-.06,3.64-2.37.54-5.91,1.06-6.32,6.42-7.14,2.61-.4,5.21-.78,7.59-1.13,1.07-2.57,2.55-4.7.88-7.15.96.27,1.93.54,2.92.77ZM216.51,361.94l-.12-.15c1.01.39,2.01.79,3.02,1.18.09.96.19,1.93.37,3.85,1.95-2.47,3.31-4.19,4.67-5.91-.6,2.99-1.2,5.99-1.92,9.55,2.26-1.65,3.94-2.88,5.97-4.36.38-2.06.57-4.61-.65-7.33-1.46.97-2.51,1.66-3.57,2.37-1.62-3.17,2.8-5.51,1.07-8.94-1.09,0-2.31-.08-3.5.05-.33.04-.6.71-.89,1.1-.69-.28-1.38-.55-2.08-.83l-.07.13c-3.13.86-3.46,3.8-4.98,5.89,1.1,1.38,1.89,2.39,2.69,3.39ZM88.91,357.66c-2.07,4.12-.91,8.39-.42,12.59.07.65,1.23,1.17,2.58,2.37.38-4.38.67-7.78.97-11.23-1.13-1.25-2.2-2.42-3.27-3.6-1.87-1.47-3.66-3.05-5.63-4.38-.93-.63-2.19-.78-3.4-1.17-1.14,7.87-.93,8.63,3.68,13.28.19.19.86-.1,1.46-.2.2-2.24.4-4.51.58-6.56,1.49-.48,2.49-.8,3.46-1.1ZM238.84,397.03l.14.15c-1.58-3.79-4.13-5.91-8.49-5.39-.02,4.33-.27,4.54,1.61,6.73,1.68,1.97-1.9,4.7,1.6,6.27,1.49-.43,3.26-.94,5.03-1.44-2.39,2.3-4.78,4.59-7.77,7.46,2.06.85,3.38,1.81,4.72,1.84,1.5.04,3.02-.76,4.53-1.2l-.13-.16c-.86,1.49-1.73,2.97-2.58,4.44,1.76,1.99,2.96,4.69,6.3,3.59-.04.53-.27,1.14-.09,1.56.26.6.78,1.16,1.32,1.54.15.11,1.15-.59,1.12-.67-.25-.63-.55-1.3-1.03-1.76-.34-.33-.98-.35-1.49-.5,2.34-2.49,4.67-4.97,6.94-7.38,3.21.75,4.4,2.8,4.99,5.73.55,2.75-.31,6.06,2.77,8.18,3.82.23,6.99-1.5,10.24-3.79-4.42-4.02-8.29-8.22-12.84-11.46-3.67-2.61-7.12-5.47-10.75-8.09-.79-.57-2.03-.53-3.06-.77.66-2.68-1.06-3.87-3.06-4.88ZM226.36,260.52c2.58.34,5.2,1.24,7.65-.5,3.02,4.99,5.08,5.43,9.87,2.16-1.01,2.67-.45,5.03,1.38,7.15-2.39-.82-4.78-1.64-7.38-2.53-.83,2.06-1.03,3.74.49,5.28,1.92,1.96,4,3.42,6.9,1.97.06,1.9.12,3.81.18,5.71-1.5-1.08-2.92-2.29-4.51-3.21-4.47-2.56-8.56-6.05-14.33-6.61-.55,3.28.58,5.75,2.01,7.91.53.81,2.33.78,3.55,1.13l-.16-.16c2.8,2.51,5.67,4.95,8.39,7.54,1.73,1.66,3.65,2.1,5.9,1.63-.23.72-.89,1.76-.63,2.11,1.49,2,2.92,4.2,5.91,5.13,1.9-10.64-.37-20.71.19-30.03-3.16-1.1-5.6-1.95-8.06-2.77.36-1.7.72-3.39,1.14-5.37-3.5.15-6.72.19-9.91.54-.38.04-.59,1.72-.87,2.65-1.42-2.11-1.53-4.39-1.08-6.82.33-1.75.42-3.54.64-5.51-1.61-.49-2.83-1.01-4.09-1.19-.97-.13-2,.18-3.32.34-.68,4.66-.55,9.07.27,13.5-.21,1.54-.42,3.08-.7,5.14,3.23.32,4.92,3.89,8.95,3.22.15-1.36.3-2.77.42-3.91-3.27-1.67-6.03-3.09-8.79-4.5ZM193.48,257.85c.55,2.91,1.55,5.62,3.55,8.37,3.11-.34,6.38.38,8.96-2.52-.64-2.33-1.26-4.58-1.76-6.41-4.01.26-7.45.48-10.88.69,1.55-1.37,3.09-2.74,4.61-4.08-.37-1.22-.86-2.21-.93-3.24-.05-.67.34-1.77.84-2,1.22-.57,1.79.35,2.18,1.46.41,1.18,1.02,2.3,1.7,3.77,3.27-1.26,6.63-.71,9.68-3.09-.79-2-1.51-3.84-2.27-5.77-9.18.09-16.96,3.37-25.41,6.48,1.7,2.86,1.64,6,4.37,7.87,1.85-.53,3.61-1.03,5.38-1.53ZM224.09,393.81c2.22-5.21-2.02-8.28-3.99-12.1-2.36.66-5.16-.12-6.55,3.25-.5,1.21-3.32,2.87-5.37.6q2.7-7.98,5.31-9.94c-1.3-2.83-2.76-5.57-3.79-8.46-.42-1.19.1-2.72.2-4.1-4.08,8.66-5.63,17.49-2.69,27.34,2.5-.85,4.49-1.51,6.46-2.21,1.76-.63,3.47-1.51,5.28-1.9.7-.15,1.62.75,3.24,1.57-4.13,2.14-7.37,3.82-11.22,5.81,1.57,1.72,2.74,3.01,3.84,4.21,2.32-.96,4.28-1.77,6.23-2.58-1,1.43-2,2.86-3.32,4.76,2.04.77,3.51,1.82,4.89,1.71,1.4-.11,2.71-1.35,4.01-2.06-.64-2.34.03-4.82-2.52-5.91ZM245.48,372.64c-1.3.91-2.6,1.81-4.13,2.89.42.91.83,1.81,1.48,3.22,3.44-1.2,6.65-2.32,9.93-3.47.84-4.86,1.7-9.33,2.33-13.83.16-1.12-.42-2.34-.65-3.49-2.52.28-4.24.7-4.36,3.25-.17,3.44-.47,6.88-.74,10.52-1.51.39-2.78.73-4.04,1.06.95-4.71,3.7-9.37.32-14.18q4.88-3.96,2.59-10.42c-4.04.9-8.17,1.65-12.21,3.56-.12,2.51-.36,4.91-.29,7.29.04,1.28.4,2.65.97,3.8,1.51,3.09,3.21,6.09,4.95,9.34,1.24.15,2.55.3,3.85.46ZM197.17,294.65q1.67-7.36-.16-11.58c-.33,4.79-.37,8.1.18,11.43-2.44-2.47-3.25-5.44-2.65-8.82.33-1.85.75-3.68.97-5.54.11-.94.48-2.23-1.69-2.47-1.59,6.33-3.21,12.72-4.74,18.82,7.31,11.06,11.03,15.3,15.87,18.05,2.41-4.92,2.75-10.3,3.58-15.55.18-1.17-.19-2.08-1.88-2.18-.74,2.36-1.51,4.79-2.28,7.25-.62-.26-1.01-.34-1.02-.45-.14-1.31-.31-2.62-.31-3.93-.01-3.2.12-6.41.06-9.61-.02-1.02-.36-2.13-1.82-2.05-1.37,2.21-2.74,4.42-4.12,6.63ZM104.44,254.57c.98,2,1.96,4.01,2.91,5.95.92-.34,1.63-.38,1.83-.72,1.38-2.36.37-4.45-.73-6.64h-4.07c-.19-2.03-.96-3.54-3.23-3.89-.45-.07-.84-.5-1.55-.96,2.57-1.52,4.59-2.72,6.39-3.79.11-1.7.19-2.95.3-4.64,1.13,1.28,1.88,2.13,3.16,3.58.5-2.33.86-4.01,1.28-5.98-3.8-.83-7.11-1.27-10.23.37-.75,2.18-1.08,4.38-2.19,6.07-2.33,3.56-6.46,3.4-9.11-.1-.62-.82-1.2-1.67-2.04-2.84-1.97,1.12-3.72,2.12-5.9,3.36,1.24,3.07,2.3,5.71,3.41,8.47,1.66,0,2.97,0,4.25.01-1.2.89-2.4,1.79-3.64,2.72q3.14,2.99,7.74-1c-1.63-.6-2.96-1.09-4.3-1.59,1.79-.83,3.58-1.66,5.61-2.6.44,2.71.77,4.78,1.1,6.82-2.89,1.15-5.58,2.22-8.11,3.22-.37,4.38-.35,4.37,1.92,7.82,1.41-.3,3.07-.36,4.46-1.01,1.85-.87,1.68-2.46.63-4l-.16.12c3.43-.38,7.43,1.68,10.27-2.79,0-1.7,0-3.84,0-5.97ZM291.75,235.88s0-.09,0-.14c.7,5.23,1.75,10.38,2.97,15.52.55,2.34-1.7,4.41-3.78,3.3-1.23-.66-1.9-.91-3.28-.67-.94.16-2.13-1.15-3.62-2.06,0,7.2-.09,13.64.07,20.08.03,1.39-.64,3.3,2.01,4.46,5.28-3.25,10.89-6.71,16.23-10.01.59-3.19.3-5.7-1.05-8.24-1.37-2.58-2.32-5.4-3.26-8.18-1.12-3.3-1.96-6.7-3.08-10-.57-1.68-.8-3.78-3.22-4.06ZM57.3,239.72l.14.15c.12-3.26,1.18-6.63-.86-10.1-11.28,17.88-12.46,20.24-14.84,29.4,3.94,4.67,11.96,11.24,18.69,15.19.87-4.66.12-9.16.12-13.6,0-4.82-.35-9.63-.49-14.45-.13-4.34,1.27-8.7.18-13.28-1.08,2.44-2.02,4.55-2.94,6.68ZM159.23,318.02c2.71-2.35,2.28-5.47,1.41-8.22-1.49-4.72-1.5-9.49-1.55-14.31-.01-1.01.51-2.54-1.66-2.93v14.22c-1.29-2.12-1.67-4.49-2.74-6.48-.97-1.81,1.59-5.17-2.42-5.58-4.35,20.23-5.18,40-1.86,47.44,2.19-.96,4.44-1.79,6.55-2.91,11.63-6.17,9.37-3.72,6.42-15.71-.59-2.42-1.69-4.46-3.99-5.67l-.17.14ZM232.48,340.24c-3.04,3.41-.45,6.28.55,9.81,3.16-.98,5.85-1.81,8.53-2.64.3-3.02,2.22-5.47-.16-8.34-2.91.43-6.01.89-9.11,1.34,2.02-2.35,4.86-3.05,7.65-4.02,3.21-1.13,6.78-1.55,9.32-3.75.76-4.55-1.35-8.7-.39-12.88,1.12-.13,1.91-.22,2.71-.32.11,3.7.23,7.4.34,10.93,1.67.46,2.84.77,5.19,1.41-4.41,2.21-7.71,3.87-10.87,5.45-.81,4.37-.77,4.37.36,8.12,3.69-.7,6.89-2.53,9.71-3.97,3.44-7.23,4.01-14.47,4.28-21.74.04-1.14-.64-2.3-.99-3.44-2.99,1.18-5.44,2.14-7.9,3.11-4.71-1.8-5.85-1.71-6.96,1.57-.91,2.66-2.12,4.92-4.3,6.61-1.71,1.32-2.06,2.96-1.75,4.98.14.91.38,2.15-1.21,2.53-2.56-.8-1.52-3.69-2.87-5.27-1.49-1.75-2.75-3.7-4.4-5.97-2.57.53-5.84.22-8.1,2.34-.54,4.62,3.36,8.27,1.03,13.25-1.37-1.99-2.35-3.42-3.3-4.79q-7.39,3.22-13.37,2.67c-2.29-5.24-2.35-5.25-7.91-1.98-.04.53-.24,1.1-.1,1.57.98,3.29.28,5.75-3.18,7-1.6.58-1.94,1.93-1.25,3.16.4.71,1.74,1.39,2.55,1.28,2.33-.32,4.6-1.04,6.9-1.61.35-1.92.8-3.47.88-5.03.07-1.43-.27-2.89-.46-4.58h2.77c1.01,4.64.76,8.67-3.35,12.18-3.26,2.79-2.05,6.43,2.44,8.54,2.84-2.67,5.73-5.42,8.66-8.13,2.04-1.89,4.4-2.9,7.28-2.7,2.27.16,4.56.03,6.82.03.09-4.64-4.26-2.42-5.94-4.27,3.14-1.7,6.32-2.93,9.9-2.46ZM273.08,222.92c-2.54.52-3.08,2.78-3.88,4.69-2.9,6.92-5.77,13.86-8.5,20.85-1.55,3.95-2.82,8.02-4.11,11.73,6.02,6.48,13.14,11.19,22.15,14.82,1.86-5.2,1.99-11.67.48-30.83-.11-1.41.37-3.32-2.08-4.01-2.62,3.15-.92,8.59-5.64,11.16-.71-5.53.92-10.71.86-16-.98.23-1.66.4-2.73.65,1.13-4.52,2.23-8.87,3.29-13.25.03-.37.07-.74.1-1.11.02.43.04.87.05,1.3ZM67.41,293.46c-.6,1.09-2.24,2.19.02,3.27-1.81,5.42-.78,11.09-1.41,16.6-.43,3.77.42,6.86,3.08,9.49l-.15-.13c-1.83,3.29,4.3,7.47-1.13,10.44-.15.08.47,1.38.56,2.13.12,1.01.08,2.04.15,3.09-.04.22-.13.43-.12.65,0,.16.15.31.23.46-.09-.43-.18-.86-.27-1.29,2.34,2.13,2.2,4.6,1.24,7.37-2.01,5.88-3.1,11.89-1.51,18.27.96-.12,1.82-.02,2.46-.35,1.41-.72,2.71-1.66,3.83-2.36.6-4.6,1.23-8.83,1.67-13.09.22-2.13.18-4.29.12-6.43-.38-13.15-.81-26.3-1.16-39.45-.03-1.25.42-2.51.72-4.19,3.49.28,6.6.53,10.24.82,0-2.68.09-5.05-.03-7.41-.12-2.41-.49-4.8-.65-7.21-.16-2.41-.18-4.83-.31-7.25-.12-2.28.23-4.66-.9-7.17-5.81,2.69-11.36,4.64-15.61,8.89-.71,2.96-1.42,5.82-2.09,8.7-.51,2.18-.4,4.27,1,6.15ZM150.15,212.96c-.76-.06-1.63-.39-2.26-.13-1.91.79-3.66,2.28-5.61,2.59-1.95.32-4.07-.45-6.61-.82,2.36-2.18,4.27-3.95,6.19-5.71.5.1,1.06.39,1.5.26.55-.17.99-.67,1.48-1.03-.48-.11-.96-.23-1.44-.34.43-.66,1.39-1.69,1.22-1.92-2.47-3.46-2-7.5-2.46-11.36-.64-5.41-2.13-6.28-7.52-4.58-.73.23-1.36.79-2.23,1.31-.49,3.5.29,7.81-5.03,9.28-1.63-.66-3.85-1.12-5.54-2.34-3.13-2.26-5.9-1.69-9.02,0,.82,2.17,1.96,4.05,2.16,6.03.2,2-1.4,4.17.64,6,4.68-2.28,4.69-2.44,10.32-2.34,3.37.06,6.35-.61,9.2-2.39.91-.57,2.24-.47,3.38-.68.09.29.19.59.28.88-2.55,1.41-5.11,2.82-7.39,4.07-.9,2.78-1.87,5.26-2.45,7.84-.24,1.07.36,2.33.59,3.59q6.76-2.45,12.8-1.38c2.47,2.59.66,5.45.1,7.83,2.82,2.72,6.84-2.54,8.84,2.35-2.73,1.11-5.4,2.2-7.9,3.21q-5.37-3.91-4.08-10.49c-3.65-1.79-5.57,2.76-8.86,2.51-2.51-1.44-5.27-2.6-6.66-5.77.56-1.39,1.36-2.83,1.66-4.36.17-.89-.2-2.52-.8-2.8-1.04-.49-2.71-.64-3.65-.12-1.57.88-2.76,2.41-4.13,3.67-4.95-2.54-8.09-5.7-6.57-11.55.06-.24-.97-.76-1.89-1.45-.37,2.9-.53,5.26-.99,7.57-.81,4.12,1.12,6.52,4.53,8.45,9.83,5.55,19.57,11.25,29.33,16.93,3.76,2.18,7.16,4.74,8.79,8.91-.63,1.67-1.25,3.13-1.74,4.63-.53,1.62.55,3.67-1.19,5.06-4.29-2.8-.8-6.43-1.27-9.88-1.38-.89-2.85-1.84-4.16-2.68-2.42,1.96-1.67,5.38-5.11,7.06.54-3.84.96-6.89,1.41-10.11-2.92-1.48-5.52-2.79-8.52-4.31-.52,2.76-.96,5.07-1.46,7.67,4.9,5.3,8.76,11.57,15.09,15.53,1.12.7,2.24,1.45,3.19,2.35.71.67-.37,2.55,1.51,2.71q3.37-7.14,3.47-14.82c0-.81-.19-1.66.02-2.41,2.46-8.91,1.44-18.22,3.16-27.21.1-.5.46-.95.7-1.42.95-.28,1.9-.56,3.62-1.07-1.26-1.27-1.99-2.63-2.99-2.86-1.07-.25-2.54.32-3.55.97-.81.52-1.2,1.69-1.78,2.57l.1-.02c-.19-1.2-.39-2.4-.6-3.62.32-.72.74-1.42.91-2.17.07-.31-.41-.74-.65-1.12-.28.38-.83.79-.79,1.15.07.77.45,1.5.7,2.25ZM151.25,202.91c.57.53,1.15,1.07,1.72,1.6,4.72,5.21,10.4,8.87,16.82,11.17,3.36-3.47,4.04-7.21,3.87-11.4-.15-3.73.27-7.48.5-11.22.36-6.14,1.11-12.28,1.06-18.42-.05-6.63.8-13.33-.59-19.87-4.32-4.16-10.14-5.1-14.91-8-1.76-1.07-3.59.27-5.25,1.13l.19.14q-.68-3.18-4.66-3.77c-1.07-1.95-2.25-3.67-5.33-2.24.19,2.43.38,4.93.69,8.99,2.17-3.18,3.47-5.09,4.78-7-.78,2.53-1.43,5.11-2.38,7.57-1.24,3.22-2.44,6.2-1.33,9.93.77,2.59.71,5.79-.06,8.4-.96,3.23-.52,6.07-.28,9.25.22,2.93-1.2,6.15-.94,9.36.09,1.06-.02,2.38.55,3.1,1.97,2.48,1.91,5.4,2.35,8.26.27,1.75,1.38,2.84,3.21,3.04ZM43.04,335.56c-.19-.71-.37-1.43-.56-2.14-.44.2-1,.3-1.28.63-.23.28-.14.83-.19,1.26.74.02,1.48.04,2.23.05-.52,1.51-1.22,2.99-1.52,4.55-.3,1.53-.82,3.52-.15,4.63,1.72,2.82.13,5.7.45,8.17,6.11,5.72,12.81,9.23,20.72,11.07,1.41-5.07-.83-9.41-.41-13.32-2-2.25-3.54-3.99-5.09-5.73,1.05-.19,1.6.18,2.16.53.82.5,1.51,1.69,2.65.59,2.14-6.62-1.94-13.15,0-19.34-1.63-2.56-3.06-4.8-4.5-7.05.37-1.13,1.36-2.26-.03-3.37-.3-2.29,1.47-3,3.14-3.98.1-10.07,1.37-20.19,1.41-30.02-7.91-4.52-12.52-12.51-21.4-15.46-.16,1.98-.65,3.61-.34,5.08,1.17,5.54,1.51,11.01,0,16.55-.18.67.97,1.71,1.51,2.58l-.1-.17c-2.15,3.64-2.14,7.63-2.08,11.68.04,2.54.6,4.74,2.51,6.49l-.05-.12c-1.95,2.25-3.34,4.58-1.21,7.82,2.26-1.66,4.12-3.15,6.12-4.43.72-.47,1.77-.43,4.18-.95-3.18,4.42-5.46,7.59-7.66,10.66.34.66.5,1.16.8,1.55,1.61,2.06,3.28,5.56,2.81,6.5-1.06,2.1-1.57,4.63-4.1,5.68ZM271.49,372.35c1.2.38,2.4.77,3.87,1.24.66-2.09,1.2-3.8,1.64-5.19-2.3-3.05-5.18-4.95-6.77-8.75,2.04,1.31,3.35,2.15,5.29,3.39.7-5.89.9-11.11-.14-16.63-2.12,1.45-3.44,2.78-1.82,5.26.66,1.01,1.35,2.28-.53,3.37-.64-.87-1.35-1.66-1.87-2.56-2.03-3.48.84-8.18-2.78-11.29.33-2.28.66-4.57.98-6.83,1.05-.08,1.99-.14,3.4-.24-1.31-2.77-2.47-5.14-3.52-7.54-.14-.32.27-.88.58-1.8.85.93,1.53,1.69,2.22,2.43.84.9,1.37,2.39,3.98,1.36-2.41-4.25,1.43-9.49-2.8-13.47,1.63-2.51,3.9-4.82,1.85-7.47-1.96-2.52-2.56-4.68-1.57-7.83.54-1.72-.6-3.96-1.06-6.36,1.82.45,2.95.72,4.68,1.14.14-2.61.31-4.97.37-7.35.06-2.39.01-4.77.01-7-10.21-7.35-17.93-11.67-21.96-12.35v44.47c2.48.12,4.84.23,7.55.35.5,1.15,1.43,2.31,1.46,3.5.16,6.2-.21,12.35-1.79,18.41-.81,3.11-1.48,6.28-1.88,9.46-.95,7.73-1.66,15.49-2.57,23.23-.25,2.12-.94,4.19-1.28,6.31-.49,3,.53,5.28,3.46,6.53,1.19.51,2.35,1.09,3.59,1.67.54-1.41.96-2.5,1.33-3.46,1.66,1.47,3.18,2.81,4.71,4.16.57-.12,1.14-.23,1.71-.35-2.02-3.07-1.66-6.07-1.15-9.08.28-.24.55-.48.83-.72ZM282.94,354.15l-.05-.14c-1.75,3.51-2.85,7.01.09,10.49,1.25-.89,2.48-1.76,4.74-3.37-.85,2.61-.97,4.36-1.86,5.49-2.16,2.71-1.88,6.04-2.83,9.05-.62,1.95.26,3.02,2.23,3.62,2.45-1.92,5.13-3.74,7.47-5.92,3.16-2.95,5.4-6.2,5.94-10.98,1.29-11.52,2.12-23.01,2.09-34.6-.02-8.31.51-16.62.68-24.94.18-9.12.25-18.25.29-27.37,0-.93-.46-1.86-.89-3.45-5.32,3.27-10.51,5.59-14.29,9.71-3.29,3.6-5.56,8.19-5.04,13.2.29,2.85-.43,5.26-.97,7.84-.43,2.09-.96,4.23-.92,6.34.02.95,1.32,1.87,2.53,3.45-2.83,2.94-1.59,7.1-1.89,11.06-.16,2.1-.4,4.2-.67,6.29-.52,4-.99,7.98,1.56,11.57l.05-.16c-2.26,4.67-1.94,9,1.72,12.83ZM227.01,311l-.17-.15c-6.42,5.4-13.9,8.77-21.65,11.62-3.98-1.87-6.02-5.41-8.5-8.53-3.96-4.98-7.12-10.7-12.7-14.18-6.81,1.9-13.45,3.76-20.08,5.6.23-1.93.63-3.65,2.93-4.25,2.78-.73,5.5-1.67,7.64-2.33,1.74-2.41-2.06-4.51,1.06-6.38,1.28,1.51,2.59,3.05,3.82,4.51,4.99-.89,7.14-3.55,7.91-8.14.7-4.17,2.31-8.19,3.57-12.26.77-2.47,1.98-4.85,1.49-7.67q-4.36,1.44-4.22,7.88c-7.45,3.09-8.49,5.12-4.8,10.33-6.09,2.04-12,4.09-19,5.2,3.57-3.01,3.02-5.65.57-8.24-3.25.7-4.01,1.26-3.33,3.09,1.24,3.36,1.11,6.79,1.25,10.26.11,2.64.79,5.25,1.21,7.87.48,3.73.8,7.48,1.48,11.18,1.2,6.53,2.97,12.89,6.45,17.97,3.62-.28,6.53-.66,9.46-.69,2.31-.02,4.1,1.06,4.84,3.48.29.96.83,1.84,1.31,2.88,2.5-.16,4.58-.29,6.93-.44v-7.81c4.49-1.43,8.67-4.09,13.68-2.17.85,1.5,1.62,2.85,2.34,4.1,3.9.62,6.4-1.08,8.46-4.06-.29-1-.75-2.01-.86-3.04-.28-2.74,1.21-4.89,3.75-5.24,3.9-.53,7.84-.88,11.58-1.28.51.47.99.77,1.27,1.2.43.67.61,1.53,1.1,2.13,1.34,1.62,3.85,1.34,4.65-.49.31-.71.67-1.56.57-2.28-.55-3.85,1.91-5.22,4.92-6.14,1.24-.38,2.53-.6,4.01-.93.5-2.31.98-4.37,1.38-6.45.66-3.39-.11-6.21-2.68-8.78-5.31-5.32-10.77-10.41-17.41-14.05-.38-.21-.98-.03-1.5-.03-1.05,1.32,0,2.5.2,3.75.21,1.28.69,2.95.12,3.85-3.51,5.5-1.43,12.14-3.84,17.83-.11.26.52.83.8,1.25ZM117.73,428.03l-.19-.19c.46,3.95-1.73,7.22-2.79,10.78-.48,1.63.94,3.37,2.64,3.17,1.58-.19,3.17-.52,4.69-1.01,6.51-2.07,13.16-2.31,19.92-1.96,3.21.16,5.94.9,7.3,3.96,1.78,3.99,5.09,5.52,9.03,5.59,7.75.14,15.5-.06,22.86-.12.79-.85,1.21-1.21,1.51-1.65,1.29-1.95,1.68-4.57,4.45-5.39,2.66-.79,5.27-.91,7.92-.1,1.79.54,3.8.74,5.33,1.71,4.4,2.77,8.23,1.71,11.78-1.35,7.79-6.69,16.43-12,25.73-16.32.58-.27.87-1.14,1.43-1.91-6.15-5.05-12.12-10-18.15-14.86-.78-.62-1.9-.82-2.86-1.21l.14.05c-3.94-3.95-8.12-7.6-12.81-10.69-12.11,4.14-24.88,5.46-36.05,12-.14,1.21-.42,2.27-.34,3.3.23,3.07-1.08,5.05-3.8,6.43-5.74,2.89-11.26,6.13-17.34,8.44-5.19,1.97-9.4.79-13.73-1.66-1.17-.66-2.42-1.32-3.3-2.29-2.55-2.81-5.66-3.72-9.32-3.29-.14.02-.36-.72-.54-1.11.93-.37,1.85-.74,3.3-1.33-5.21-5.17-6.24-11.34-5.82-17.97.19-2.95.18-5.91.23-8.86.09-6.18.15-12.35.24-18.53.14-9.39-.21-18.83.62-28.17.59-6.59-.91-12.18-4.27-17.55-.38-.61-1.22-.93-2.03-1.52-1.83,1.12-3.6,2.22-5.13,3.16-.43,2.64-.79,4.83-1.15,7.02-1.63-4.11-1.19-8.62-4.68-11.86-.59-.55-.5-2.03-.42-3.05.1-1.33.8-2.65.68-3.93-.07-.76-1.16-1.91-1.9-2.01-.81-.11-1.92.63-2.57,1.32-.47.49-.49,1.49-.57,2.28-.24,2.39-.33,4.8-.65,7.18-.07.56-.78,1.03-1.89,2.42-.46-3.55-.79-6.09-1.12-8.61-3.07-1.84-3.1-1.79-6.64-1.98-.68,4.86.38,8.95,4.51,12.06,2.15,1.61,4.05,3.54,6.16,5.2,5.47,4.32,11,8.56,16.48,12.87.27.21.22.82.31,1.25-1.25.26-2.45.51-3.91.81,0,2.92-.84,5.98.18,8.18,1.94,4.19,1.22,8.41,1.6,12.62.21,2.37.72,4.71,1.01,7.07.05.38-.35.82-.55,1.23-1.21-.22-2.42-.44-3.6-.65-1.5,6.76-.02,12.05,5.24,16.13,1.03.8,2.05,1.92,2.47,3.1.36,1.02-.13,2.35-.33,4.36-1.98-1.28-3.61-1.84-4.49-2.98-6.2-8.05-14.87-13.12-22.8-19.06-2.02-1.52-4.73-2.12-7.12-3.14l.06.04c-.57-3.91-2.37-7.04-6.09-9.44-1.89.61-3.86,1.51-5.93,1.85-1.99.33-4.07.07-5.91.07-1.11.95,1.05,3.02-1.42,3.11-8.82-5.02-17.62-10.03-26.51-15.1.65-8.4-.29-16.62-.88-24.69-1-.28-1.55-.61-2.01-.53-9.98,1.9-18.59,6.9-27.05,12.19-2.95,1.85-3.2,4.68-2.06,8.11,2.12.88,4.38,1.7,6.53,2.73,2.6,1.24,3.44,3.19,2.6,5.98-.6,1.99-1.44,3.9-2.49,6.66,6.75.22,12.94.73,18.14,5.16.17.8.44,1.84.61,2.88.49,3.02,2.17,4.82,5.22,5.33,1.06.18,2.12.37,3.18.58,9.78,1.95,19.14,5.31,28.5,8.63,5.5,1.95,7.34,5.47,6.74,11.28-.37,3.63-2.16,6.58-4.23,9.45-1.05,1.46-2.62,2.82-1.55,5.4.7.27,1.64.91,2.61.97,6.67.35,13.31,1.8,20.05.29,2.87-.64,5.88-.71,8.83-.87,4.28-.24,6.02.78,6.52,5.23.51,4.45,3.08,5.95,6.79,6.65,1.58.3,3.2.43,4.8.63ZM304.15,399.87c3.24-1.61,6.02-3.21,8.96-4.4,5.65-2.26,8.85-6.63,11.42-12.11-3.42-3.22-6.68-6.3-9.73-9.17.63-2.39,1.1-4.16,1.55-5.84-1.26-.99-2.25-1.76-3.32-2.6,7.55-1.93,8.49-2.83,11.26-10.52q-3.36-2.82-10.68-4.07c-1.64-1.53-3.13-3.09-4.81-4.43-1.28-1.01-2.78-1.76-4.52-.09-.71,5.64-1.81,11.48-2.07,17.36-.21,4.78-2.45,8.13-5.64,11.16-4.48,4.26-9.08,8.4-13.59,12.64-3.57,3.36-7.65,3.79-11.88,1.8-6.56-3.08-12.99-6.42-19.85-9.84-2.21,1.1-4.53,2.25-6.65,3.31,1.01,4.55,2.06,8.46,2.69,12.43.52,3.25,2.12,5.54,4.95,6.9,3.74,1.8,6.48,4.76,9.37,7.57,1.35,1.31,2.71,2.63,4.14,3.85,1.51,1.28,3.12,2.44,5,3.89,1.54-3.77,2.84-6.97,4.1-10.07-.86-1.15-1.59-2.12-3.22-4.29,3.18.91,5.33.94,6.59,2.01,1.98,1.67,3.36,4.04,5.09,6.23,5.97.23,11.85-.32,17.69-1.14,4.8-.67,5.44-2.04,3.87-7.23-.23-.75-.34-1.54-.73-3.35ZM124.28,337.42c-.45,4.21-.91,7.38-1.11,10.58-.16,2.67,0,5.37-.01,8.05,0,2.14-.07,4.27-.08,6.41-.06,11.55-.13,23.09-.15,34.64,0,1.32.28,2.65.49,3.96.12.76.78,1.78.5,2.19-2.57,3.7,0,6.24,2.14,8.47,3.15,3.27,6.62,6.28,10.24,9.03,1.55,1.18,3.64,2.41,5.91,1.16q.97-7.48-1.06-10.2c-.72.81-1.44,1.62-2.77,3.13-.39-2.73-.51-4.5-.92-6.21-.42-1.75-1.13-3.43-1.67-5.02,2.7-1.65,4.44,2.02,6.95.53-.53-.91-.85-1.66-1.34-2.27-3.52-4.4-1.61-9.08-.76-13.71,4.36-1.36,2.11-3.84.91-5.97-1.43-2.55-3.06-4.98-4.5-7.3,1.64-4.95,3.9.19,6.33-.98.08-7.43.18-15.15.21-22.88,0-1.68-.61-3.17-2.19-4.05-5.37-3-10.74-6-17.13-9.56ZM130.68,300.29c-2.39,1.57-4.79,3.21-7.26,4.73-1.11.68-2.35,1.55-3.56,1.61-8.25.38-16-.5-20.42-9.01-1.88-3.61-2.21-7.5-3.2-12.04,2.01,1.01,3.3,1.66,4.61,2.32,1.83-4.44-.03-8.53-.73-12.32,3.55-4.93,9.29-6.88,12.84-11.69-7.76,0-18.07,4.42-24.23,10.38.22,3.14.44,6.6.72,10.06.6,7.44,1.41,14.88.39,22.34-.54,3.95-.62,3.94,4.29,5.89.45-.27,1-.47,1.35-.84,2.93-3.07,6.22-2.84,9.5-.83,3.34,2.06,2.37,4.67.96,7.62-.98,2.04,1.42,4.31,3.65,3.79.77-.18,1.47-.63,2.23-.87,3.93-1.27,4.71-.99,7.35,2.47.71.93,1.44,1.84,2.6,3.34,1.03-2.49,1.81-4.16,2.41-5.89.61-1.77.96-3.64,1.59-5.4.63-1.76,1.45-3.46,2.22-5.18.77-1.71,1.66-3.37,2.36-5.11.65-1.63,2.23-3.21.34-5.37ZM156.77,238.83c.19,2.17.63,4.21.45,6.19-.12,1.31-.95,2.67.29,3.69,1.2.99,2.6,2.23,4.01,2.36,2.35.22,4.84-.08,7.15-.65,10.42-2.56,20.73-5.62,31.22-7.88,8.68-1.87,17.06-4.62,25.56-7.06,5.03-1.44,8.07-4.8,10.25-9.32q-4.69-2.29-8.54-2.44c-.25.93-.69,1.91-.75,2.92-.16,2.78-2.02,4.31-4.05,5.66-1.25.83-2.99.78-3.46-.66-1.21-3.72-3.48-3.35-6.36-2.24v7.25c-3.53.91-6.48,3.26-10.2,1.55-.69-2.03-1.32-3.9-1.92-5.65-3.47-.06-5.77,1.16-8.28,3.52,1.49,5.11-1.98,6.77-6.44,7.69-2.09.43-4.12,1.16-6.2,1.69-3.4.87-4.67,0-5.38-3.7-.24-1.26-.43-2.53-.62-3.64-3.03-.88-5.12.44-7.31,1.41-4.72,2.08-4.73,2.05-9.41-.68ZM69.03,236.64c-1.6,1.32-2.93,1.93-3.43,2.95-.68,1.39-.97,3.09-.98,4.65-.04,9.12.03,18.24.15,27.36,0,.67.67,1.32,1.12,2.17,6.73-1.14,10.8-6.91,17.21-8.66-1.13-5.99-2.52-11.41-4.95-16.53-.57-1.19-1.17-3.03-2.1-3.28-3.99-1.08-4.9-4.58-7.04-8.67ZM195.25,395.6c1.75-.53,2.79-.77,3.76-1.17,1.2-.5,2.34-1.13,3.88-1.9-.51-3.89-1.29-7.55-1.39-11.24-.1-3.46.62-6.93.8-10.4.19-3.61,2.94-6.83,2.01-10.88-3.41-.18-6.27-.19-8.63,1.42-.24.9-.57,1.44-.48,1.91.34,1.76.82,3.5,1.3,5.42-2.64,1.07-5.3,2.14-8.12,3.28.18,1.68.14,3.03.5,4.27.39,1.35,1.16,2.58,1.77,3.86-4.12,1.9-8.3,2.15-11.77,4.73.26,1.98.49,3.72.73,5.48,5.14.41,8.8-3.7,13.87-3.07-.69,1.25-1.25,2.26-1.87,3.4,1.13,1.51,2.23,2.99,3.64,4.88ZM135.29,270.13c-.88,1.28-1.64,1.88-1.61,2.43.11,2.23-1.01,4.08-1.5,6.09-1.01,4.12-4.87,5.59-6.87,8.68-.14.22-.81.1-1.3.14-.71-1.71-1.42-3.44-2.12-5.13-2.38.09-4.35.59-4.74,3.31,0,.05-2.49,1.37-2.94,1.43.21,4.76.25,9.53,2.27,13.46,6.83,2.38,11.09-3.53,17.09-4.15,2.14-4.75,4.22-9.38,6.07-13.49-1.46-4.27-2.73-8-4.36-12.79ZM198.18,271.52c4.84,7.49,7.22,16.15,15.06,21.98,3.24-1.9,7.54-2.48,10.9-5.18-3.05-7.57-8.1-13.37-13.09-19.32-4.47-.48-8.44.95-12.87,2.51ZM177,142.4c-11.83-5.97-22.98-11.61-34.76-17.55.18,3.17.34,5.96.5,8.68,3.61,2.17,6.68,4.39,10.05,5.97,7.02,3.29,14.2,6.25,21.33,9.29.35.15.93-.22,1.74-.45.31-1.64.65-3.43,1.13-5.94ZM128.71,257.19c-7.73,5.97-15.09,11.67-23.08,17.85,3.13,2.1,5.7,3.81,8.41,5.63,6.45-4.57,12.53-8.84,18.56-13.17.84-.61,1.54-1.45,2.19-2.28.31-.39.36-.99.6-1.74-1.31-2.55-3.4-4.47-6.68-6.29ZM180.64,149.12c3.48-1.42,5.96-2.4,8.42-3.42,3.71-1.54,7.29-3.69,11.15-4.49,4.77-.99,8.34-3.32,11.77-6.86-.33-1.98-.66-4-1.09-6.59-4.1,1.25-7.39,2.84-10.57,4.8-3.19,1.97-6.44,3.85-9.75,5.6-3.29,1.73-6.69,3.25-9.94,4.81v6.15ZM224.36,293.6c-8,1.66-13.43,4.57-13.37,13.03.01,1.81-.96,3.61-1.21,5.45-.16,1.14.18,2.34.35,3.97,3.94-1.3,7.22-2.41,9.76-4.91,1.3-1.28,2.7-2.77,3.24-4.43,1.33-4.03,1.93-8.24,1.23-13.11ZM181.24,351.3c3.47-1.07,6.21-1.91,9.25-2.85-.24-1.61-.42-2.86-.61-4.12-2.58-.48-4.82-.9-6.94-1.29-.17-2.23-.3-3.99-.43-5.73-5.11-1.01-8.75,1.62-13.09,2.41-.01,4.86-1.5,9.27.49,13.56,4.6-.49,4.59-.54,7.64-2.59-.26-2.07-.59-4.19-.78-6.32-.09-1.03-.09-2.22,1.52-2.15.9,2.78,1.79,5.55,2.94,9.09ZM161.28,281.17c4.47-1.05,8.07-1.89,11.86-2.78-.5-2.43-.97-4.67-1.48-7.12,1.46-.78,2.59-1.4,3.74-1.99q3.02-1.52.92-5.55c-2.7.6-5.5,1.22-7.76,1.72-1.75,1.79.16,4.23-2.13,5.41-1.08-1.33-2.06-2.54-3.17-3.92-1.45.16-2.95.33-4.78.54.94,4.6,1.79,8.71,2.81,13.68ZM280.92,188.98c3.8,1.18,7.11,2.07,10.33,3.23,3.66,1.31,7.21,1.5,11.07.03.2-1.71.38-3.18.59-4.98-2.89-.17-5.39.13-7.59-.55-2.5-.78-4.74-2.43-7.09-3.7-.24-.13-.47-.27-.71-.37-2.47-1.05-4.87-.32-6.05,2.26-.6,1.3-.42,2.95-.56,4.09ZM95.45,364.14c-1.03,4.84-1.12,8.44-.46,12.16,3.07,2.33,6.02,4.61,9.03,6.8.34.24,1,.03,1.52.03q.86-9.85-5.97-15.8c-.99-.86-2.06-1.61-4.11-3.2ZM79.01,190.99c2.59-2.48,4.56-4.32,5.87-7.08q-6.25-.32-9.68-2.18c-5.29-2.87-7.44-1.95-9.1,4.01-.19.69.13,1.52.23,2.4,3.87,2.51,8.5.57,12.69,2.86ZM162.05,218.05c-1.59,1.33-2.95,2.21-3.97,3.39-1.28,1.48-.29,4.16,1.61,4.32,5.51.46,11.04.83,16.57,1.01,1.41.05,2.32-1.09,1.75-3.24-4.95-1.7-10.17-3.49-15.97-5.48ZM79.06,302.14c0,4.65.02,8.9,0,13.15-.03,3.3,1.82,4.74,5.09,5.14.75-5.27,1.51-10.5,2.2-15.74.05-.42-.41-.9-.8-1.7-1.86-.25-3.92-.52-6.48-.86ZM220.85,251.85c-4.46,1.46-8.62,1.38-12.19,4.47-.14,1.83-.34,3.94-.41,6.05-.01.42.49.87.77,1.33,2.24.09,4.56.77,6.78-.18-.41-2.02-.72-3.49-1.28-6.24,2.62,2.14,4.28,3.5,6.2,5.07,2.23-3.53,1.34-6.55.13-10.5ZM111.02,301.06c.17-.27.44-.5.43-.72-.26-5.28-.34-10.59-.97-15.83-.21-1.76-1.91-3.17-4.2-2.33-1.73,7.6-1.78,11.31-.58,15.73.79,2.93,2.53,3.86,5.32,3.15ZM100.54,351.35c-2.06-1.76-3.98-3.86-6.78-4.87-3.24,9.82-1.93,12.96,6.78,16.19v-11.31ZM158.9,263.73c4.12-.11,7.88-.98,12.03-2.45-.32-2.15-.62-4.11-.95-6.3h-11.66c-.54,3-.84,5.78.58,8.75ZM185.54,359.59c-.85-2.55-1.42-4.23-2.13-6.36-4.84,1.45-9.12,2.74-13.78,4.14.26,2.11.46,3.77.67,5.53,5.44-.04,9.97-1.4,15.24-3.31ZM188.04,391.28c-5.7,2.13-11.13,4.15-16.55,6.22-.46.18-.98.61-1.14,1.05-.25.66-.21,1.43-.3,2.18,7.54.55,14.05-2.41,21.39-4.6-1.31-1.86-2.33-3.32-3.41-4.85ZM184.57,372.21c-4.09,1.35-7.36,2.38-10.59,3.51-4.07,1.43-4.11,1.63-2.44,7.65,4.51-1.4,9.03-2.78,13.51-4.24.39-.13.6-.78.95-1.27-.37-1.45-.75-2.97-1.43-5.65ZM125.16,231.26c-3.58-1.16-6.18-4.47-10.3-5.12-.47,5.94-.6,6.29.54,7.31,2.76,2.45,5.5,4.99,9.76,6.31v-8.5ZM104.14,354.99c-1.19,4.21-.72,7.62-.06,10.97.68,3.48,2.14,4.52,6.9,5.14-.5-3.77-.92-7.4-1.48-11.02-.41-2.63-2.33-3.86-5.35-5.1ZM88.92,353.11c1.1-3.44.97-6.53.89-9.59-.06-2.03-1.38-3.4-2.92-4.45-.7-.48-1.71-.51-2.87-.81,0,3.71-.11,6.84.03,9.97.13,2.78,2.1,3.89,4.87,4.89ZM197.81,350.41c-3.51-.14-6.21,1.08-8.88,2.13-.73.29-1.46,1.74-1.4,2.6.1,1.42.83,2.79,1.28,4.13,1.37-.07,2.17,0,2.93-.17,2.32-.49,4.62-1.06,7.25-1.67-.13-1.23-.19-2.24-.37-3.22-.22-1.24-.53-2.47-.82-3.8ZM192.19,367.52c-.35-2.36-.6-4.04-.89-5.93-2.58.55-4.65,1-6.73,1.43-.52.11-1.06.11-1.58.23-4.51,1.02-5.02,2.16-3.27,7.53,3.83-1,7.67-2,12.46-3.25ZM141.98,276.91c1.32-2.86,2.65-5.72,3.7-7.99-1.09-2.92-1.89-5.18-2.77-7.4-.83-2.09-.88-2.07-5.33-2.48,2.42,2.51,3.29,5.05,2.67,8.19-.6,3.09-.38,6.28,1.73,9.67ZM120.15,249.63c2.34,1.2,4.11,2.45,6.06,2.95.94.24,2.45-.73,3.33-1.54,1.14-1.06.76-2.56-.31-3.48-1.79-1.52-3.72-2.88-5.71-4.13-.54-.34-1.47-.05-2.54-.05-.25,1.91-.49,3.7-.83,6.25ZM238.87,379.59c-1.32-3.92-2.27-6.94-3.37-9.91-.44-1.2-1.09-2.48-2.9-1.42,0,3.67-.03,7.38.04,11.09,0,.39.61.76,1.25,1.52,1.24-.32,2.69-.7,4.97-1.29ZM180.79,252.19c-3.07-.92-5.01.27-7,2.41.16,1.85.34,3.89.56,6.43,3.04-.68,5.58-1.26,8.5-1.91-.8-2.68-1.46-4.91-2.06-6.93ZM87.71,335.38c.19-8.35-1.11-10-8.58-11.72-.31,5.92,4.47,7.78,8.58,11.72ZM192.63,265.47c-.25-2.43-.99-4.13-3.35-4.01-2.1.1-4.21.44-6.25.95-1.34.33-2.32,1.32-1.87,2.95.43,1.59,1.72,1.98,3.1,1.76,2.82-.46,5.61-1.09,8.37-1.64ZM220.28,242.11c-7.68.95-7.78,1.09-5.43,8.07.94,0,1.98.14,2.96-.04.99-.18,1.92-.66,2.71-.96,1.03-2.63,1.1-4.89-.24-7.08ZM107.5,352.07q.52-8.45-5.76-11.45c-.33,1-.76,1.94-.93,2.92-.22,1.25-.23,2.54-.33,3.8,1.79,1.59,3.33,3.01,4.95,4.34.34.28.98.2,2.06.39ZM184.22,270.06c-2.67.59-5.04.94-7.25,1.73-.63.23-1.17,1.75-1.11,2.62.07.89.88,2.42,1.45,2.46,2.02.14,4.34.3,6.06-.55,2.09-1.03,2.29-3.34.85-6.26ZM123.95,255.79q-4.79-2.52-10-2.71c-.49,3.55,1.72,5.67,3.88,8.45,2.26-2.12,4.13-3.87,6.12-5.74ZM90.97,338.67c2.11,1.89,3.18,4.53,6.09,5.05q1.76-6.22-3.71-10.39c-.27-.2-.89.06-1.63.14-.21,1.46-.44,2.98-.76,5.2ZM171.17,394.66c1.81-.75,3.6-1.48,5.7-2.35-.67-2.35-1.21-4.27-1.75-6.16-5.84,1.31-6.25,2.19-3.95,8.51ZM168.94,282.56c.83,2,1.03,3.78,1.81,4.09,2.02.8,4.35.59,6-1.01,1.14-1.11,1.56-2.75.17-4.71-2.14.44-4.43.9-7.97,1.63ZM278.13,424.8c1.19-4.6,1.02-7.94-1.31-11.35-2.32,2.96-3.02,5.84-2.87,9.07,1.33.73,2.42,1.32,4.19,2.28ZM215.58,267.53c2.53,2.7,3.46,5.52,6.91,6.78-.17-3.71-.57-6.69-2.35-9.81-1.41.94-2.63,1.75-4.56,3.04ZM252.48,355.38c4.58-3.54,3.9-6.6,2.9-10.54-1.33.92-2.72,1.39-2.8,2.02-.27,2.31-.11,4.67-.11,8.52ZM175.24,365.36c-2.21.68-3.89.68-4.53,1.49-1.35,1.69-1.56,3.8.31,5.97,1.29-.22,2.76-.47,4.52-.77-.09-2.07-.17-3.82-.3-6.69ZM242.28,390.72c-1.09-3-1.87-5.13-2.63-7.22-2.55.39-4.7.5-5.66,3.04,1.77,2.35,3.83,4.14,8.28,4.18ZM250.2,418.19c-.36,3.85-.75,6.4-.73,8.94,0,.66,1.27,1.78,1.99,1.81.64.03,1.85-1.12,1.91-1.83.23-2.86-.99-5.34-3.17-8.92ZM116.43,239.54c-2.85,2.53-2.95,4.1-.44,8.4,1.44-2.95,1.66-5.54.44-8.4ZM227.91,382.37c.19-3,.34-5.57.56-9.01-4.25,5.4-4.26,5.75-.56,9.01ZM216.04,208.74c-.12-2.35-.14-4.38-.42-6.38-.04-.31-1.38-.81-1.91-.62-1.91.69-1.41,2.56-1.56,4.02-.19,1.87.74,2.9,3.88,2.98ZM151.56,348.01c-1.39-1.17-2.78-.74-3.14.68-.5,1.95-.34,4.07-.58,8.04,2.61-3.74,3.84-5.91,3.72-8.71ZM275.29,387.03c.78-1.37,1.47-2.11,1.61-2.95.2-1.18-.65-2.03-1.79-1.66-.77.25-1.77,1.19-1.81,1.88-.04.69.98,1.44,1.98,2.73ZM107.24,246.29c-.8,1.64-1.64,2.57-1.48,3.26.18.74,1.3,1.25,2.02,1.87.48-.76,1.32-1.52,1.33-2.29,0-.7-.88-1.42-1.86-2.84ZM228.05,405.87c-.33-.73-.49-1.6-1.01-2.03-.27-.22-1.19.35-1.81.57.42.63.76,1.34,1.3,1.83.19.18.88-.2,1.53-.37ZM130.71,274.36c-2.67,1.68-1.77,3.11-.44,4.59.13-1.35.26-2.7.44-4.59ZM154.13,357.73c-.39.99-.8,1.79-.98,2.64-.08.39.2,1.08.53,1.29.71.44,1.96-1.37,1.76-2.7-.05-.33-.6-.58-1.31-1.22ZM126.75,279.22c-.12-.47-.25-.94-.37-1.41-.45.13-.9.26-1.36.4.27.63.54,1.26.81,1.88.31-.29.61-.58.92-.87ZM211.65,380.08c-.13.93-.26,1.62-.29,2.31,0,.18.3.38.46.57.25-.59.59-1.17.71-1.79.04-.23-.44-.57-.88-1.08ZM148.59,358.56c-.26.32-.52.65-.78.97.19.15.53.43.55.41.29-.29.53-.63.79-.95-.18-.14-.37-.28-.55-.43ZM80.94,334.32c-.3.38-.81.75-.84,1.16-.03.42.4.88.62,1.33.29-.38.78-.75.81-1.16.03-.42-.38-.88-.6-1.33ZM41.43,329.13c.24-.35.48-.7.72-1.05-.25-.05-.61-.23-.72-.13-.29.27-.47.66-.7,1.01.23.06.47.11.7.17ZM281.54,218.03c.19-.1.55-.22.54-.29-.07-.49-.22-.97-.34-1.46-.18.1-.53.22-.52.3.06.49.2.97.32,1.45ZM68.37,233.42l-.52-.04.22.66.3-.62ZM147.59,295.22l-.4-.07.13.55.27-.48ZM41.26,322.36c-.11-.18-.18-.45-.34-.52-.11-.05-.34.17-.52.27.19.28.39.55.58.83.09-.19.18-.39.27-.58ZM215.37,371.08l-.26-.52-.22.52h.48Z"/>
      <path class="cls-1" d="M147.39,119.12c.14-2.4,2.15-1.88,3.09-3.17.81-2-.54-3.99-1.3-5.81-3.35-7.95-3.66-16.19-3.06-24.59.3-4.14,1.65-7.74,4.26-11.08,2.46-3.15,4.16-6.9,6.53-10.13,6.31-8.59,14.84-12.01,25.36-10.23,5.58.95,14.33,7.42,16.91,12.51,2.43,4.78,4.87,9.57,6.96,14.49,1.14,2.67,1.72,5.52,1.83,8.58.31,8.18-.29,16.11-3.82,23.64-.56,1.18-.67,2.58-1.07,4.21,1.39,1.18,2.77,2.36,4.92,4.21-2.85-.43-4.84-.72-7.43-1.11-6.49,6.64-15.5,7.41-24.31,7.47-6.11.04-12.1-2.31-17.58-5.28-1.87-1.01-3.36-2.9-5.31-3.57-1.79-.61-3.96-.13-5.99-.13ZM182.93,120.07c-2.52,3.33-6.71.31-9.8,2.44,7.52,1.87,11.77,1.42,15.28-1.5-1.63-1.93-4.12,1.79-5.64-.86.14-.66.27-1.33.41-1.99,1.68.48,3.07.43,3.92-1.49.64-1.46,1.48-2.86,2.41-4.15.39-.54,1.43-1.19,1.87-1.02,4.08,1.58,5.75-3.43,9.31-3.36.65.01,1.65-1.42,1.94-2.35.79-2.53,1.67-5.14,1.81-7.75.19-3.66-.25-7.35-.45-11.66-1.46,3.52-2.4,6.58-3.92,9.32-4.39,7.91-10,9.07-17.13,3.73-1.67-1.25-3.18-2.72-4.97-4.27-.88,1.76-1.47,3.27-2.34,4.6-2.93,4.45-5.85,5.39-10.99,4.22-6.17-1.4-9.54-5.56-11.68-11.09-.48-1.25-.75-2.59-1.32-3.79-.48-1.03.19-2.71-2.46-3.33.18,6.09.15,11.86,1.84,17.5.44,1.47,1.36,2.8,2.06,4.2.1.45.21.9.31,1.35.23-.2.46-.39.69-.58-.39-.21-.77-.42-1.16-.63.31-1.24.62-2.47,1.19-4.73,1.65,3.92,2.92,6.96,4.4,10.48.9-1.29,1.41-2.02,2.37-3.4.64,2.31,1.05,3.76,1.49,5.25-.37.64-.78,1.26-1.1,1.93-.08.17.11.46.18.7.31-.16.87-.3.89-.49.07-.77-.03-1.55-.06-2.33,1.38.03,2.76.06,4.12.12.13.48.27.96.4,1.44-.17-.44-.33-.88-.5-1.32.13-.63.26-1.25.81-3.95,1.34,2.92,1.99,4.35,2.93,6.41.82-2.52,1.21-3.71,1.76-5.38,1.61,2.06,2.97,3.79,4.5,5.75.64-1.66,1.09-2.79,1.77-4.55.85,2.23,1.28,3.98,2.19,5.44.42.67,1.78.74,2.68,1.1ZM180.43,78.97c0,3.07.22,5.17-.05,7.22-.48,3.62.9,6.29,3.68,8.38,1.29.97,2.59,1.96,4.01,2.68,2.67,1.35,5.35.86,7.3-1.39,1.03-1.19,1.96-2.6,2.52-4.06,3.37-8.85-.08-16.79-3.52-24.69-.31-.7-.96-1.34-1.6-1.79-3.08-2.15-6.05-4.52-9.37-6.24-4.22-2.18-8.87-2.43-13.26-.48-11,4.88-14.75,12.88-15.41,24.31-.27,4.67,1.64,8.99,4.02,12.92,1.98,3.26,5.28,4.51,9,4.35,3.51-.15,5.06-2.65,6.07-5.62.69-2.03,1.41-4.05,1.99-6.11.66-2.32,1.04-4.73,1.82-7.01.26-.77,1.36-1.25,2.79-2.47Z"/>
      <path class="cls-1" d="M204.94,55.74c-.95.35-1.9.7-3.41,1.25-.28-5.49,2.21-9.76,3.29-14.31,1.1-4.64,2.65-9.18,4.27-14.69-7.7,4.73-9.32,13.67-16.27,18.55-1.27-2.16-2.3-3.91-3.55-6.03-1.52,2.94-2.94,5.69-4.63,8.98-3.91-3.79-3.56-8.26-4.08-12.27-.54-4.2-.36-8.49-.54-14.33-1.27,2.11-2.01,2.87-2.2,3.74-1.37,6.3-2.53,12.66-4.02,18.94-.31,1.3-1.72,2.34-2.82,3.73-4.37-3.44-6.14-8.01-8.54-12.12-2.08.37-1.5,1.98-1.53,3.12-.09,3.75-.03,7.5-.03,11.8-1.56.4-3.26.84-5.07,1.31-.42,1.1-.87,2.3-1.42,3.73-6.33-.03-10.53-4.8-16.49-7.55,1.09,6.7,8.14,8.39,9.77,14.08-5.54,1.85-9.98-1.77-15.73-2.62,2.98,4.94,7.41,6.74,11.5,9.2-1.3,2.96-3.63,3.35-6.01,3.54-2.13.18-4.27.21-6.32.31-.67,1.4-.13,2.06.98,2.57,2.42,1.12,4.8,2.31,7.15,3.46-.1,3.77-4.78,2.5-5.3,5.97,2.5.29,4.99.58,7.62.88-4.4,2.84-5.46,2.89-16.91.83.73-.97,1.16-1.95,1.91-2.44,2.2-1.42,4.52-2.65,7.23-4.19-4.42-3.79-8.97-5.93-13.74-7.45-.03-2.32,1.58-2.07,2.77-2.05,4.49.09,8.95-.12,14.24-.24-2.1-4.49-6.12-5.68-8.25-8.64-2.18-3.03-4.44-6.01-6.56-8.88,1.4-1.97,2.49-1.15,3.67-.5,4.46,2.41,8.96,4.76,13.5,7.15,1.42-2.16-.4-2.67-.95-3.62-.67-1.16-1.48-2.24-2.19-3.39-.85-1.37-1.68-2.75-2.47-4.15-.66-1.17-1.32-2.35-1.82-3.59-.49-1.19-.79-2.46-1.11-3.49,1.17-1.5,2.14-.94,3-.28,2.76,2.13,5.38,4.47,8.25,6.43,2.4,1.64,5.07,2.87,7.76,4.35.83-1.62,1.4-2.74,2.12-4.17,1.64.12,3.42.26,5.46.41,1.45-5.26.21-10.34.44-15.34.22-4.79-.29-9.6-.47-14.33,1.47-.62,2.18.1,2.59,1.17,1.94,5.01,3.89,10.03,5.73,15.08,1.02,2.79,1.99,5.57,4.74,7.91,2.01-4.87,2.68-9.89,3.98-14.69,1.26-4.66,2.12-9.43,2.95-14.19.86-4.89,1.47-9.82,2.18-14.69.79.08,1.08.06,1.32.15.21.08.54.28.55.44.75,13.37,1.47,26.75,2.18,39.95,2.19.71,2.84-.49,3.44-1.7.95-1.93,1.8-3.91,2.78-5.81,1.09-2.1,2.28-4.14,3.29-5.97,1.95.07,2.49.95,2.3,2.12-.57,3.41-1.28,6.8-2.17,11.44,1.71-1.17,2.6-1.51,3.09-2.16,7.74-10.28,15.96-20.25,21.4-32.09.47-1.02,1.68-1.7,2.6-2.59,1.72,2.16.32,3.44-.34,4.79-6.73,13.86-10.71,28.69-15.11,43.36-.37,1.24-.13,2.66-.18,4l.16-.17Z"/>
      <path class="cls-1" d="M204.79,55.91c6.93-3.3,13.28-7.73,20.08-10.94,1.64,1.85.93,3.01.08,4.08-1.99,2.54-4.08,5-6.02,7.58-.63.83-.99,1.9-1.29,2.91-.13.42.21.97.41,1.75,3.91-.31,6.6-3.13,9.86-4.76,2.88-1.44,4.98-5.21,9.35-3.55-.65,5.01-4.82,7.12-7.57,10.21-2.82,3.16-6.79,5.23-9.4,9.45,5.72-.11,10.98-2.52,17.32-1.08-3.14,4.3-7.3,4.44-10.29,6.48-2.72,1.86-6.51,2.13-8.95,5.88,3.66,1.24,6.86.73,9.96.93,3.22.21,6.46.28,9.67.62,3.1.33,6.17.91,9.71,1.45-.74,1.24-.99,2.28-1.52,2.45-10.51,3.39-21.27,5.6-32.32,6.17-.43.02-.91-.96-1.98-2.17,7.77-.53,14.82-.97,23.17-4.29-7.76-1.99-14.18.38-20.01-2.83-.29-1.15-.6-2.41-.99-3.99,3.21-2.02,6.33-3.97,9.93-6.24-2.64.42-4.7.79-6.77,1.03-.44.05-.93-.42-1.45-.68.02-3.69,1.51-6.58,4.65-8.61,2.21-1.43,4.21-3.06,5.23-5.71-4.42.14-7.44,5.67-12.95,2.74,1.33-3.66,2.59-7.16,3.87-10.7-1.26-1.63-2.39-.19-3.41.29-2.42,1.13-4.66,2.7-7.16,3.59-.98.35-1.63-1.01-1.06-2.23,0,0-.16.17-.16.17Z"/>
      <path class="cls-1" d="M151.25,202.91c.12-5.52,1.17-7.07,5.43-8.09,1.96-.47,3.7.82,3.9,2.9.32,3.4-1.01,5.39-4.45,6.38-1.01.29-2.1.28-3.15.4-.57-.53-1.15-1.07-1.72-1.6Z"/>
      <path class="cls-1" d="M82.97,400.57c3.71.37,5.49.66,7.28.7,1.54.04,3.1-.2,4.64.19-3.46,2.43-6.92,2.97-11.92-.89Z"/>
      <path class="cls-1" d="M154.4,436.5c3.26.04,5.67-.84,8.27,1.21q-4.7.83-8.27-1.21Z"/>
      <path class="cls-1" d="M115.76,343c-.59-3.24-1.67-6.52,1.23-10.34.59,4.24.89,7.41-1.23,10.34Z"/>
      <path class="cls-1" d="M47.21,371.74c-1.25.14-2.52.17-3.74.43-2.32.49-4.6.96-6.87-.43.41-.59.66-1.24.91-1.25,2.84-.04,5.68-.02,8.51.1.38.02.73.73,1.1,1.12l.09.02Z"/>
      <path class="cls-1" d="M34.62,363.29c-.98,1.09-1.93.16-2.78-.15-.84-.31-1.55-1.01-3.11-2.09q3.83.42,5.88,2.24Z"/>
      <path class="cls-1" d="M192.72,426.66h7.24c-3,1.77-4.91,1.64-7.24,0Z"/>
      <path class="cls-1" d="M117.73,428.03c-.34-.95-.69-1.9-1.12-3.09,2.36.26,4.61.51,6.87.76l-.15-.12c.07,1.32-.69,1.81-1.89,1.9-1.31.1-2.61.22-3.91.34,0,0,.2.2.2.2Z"/>
      <path class="cls-1" d="M114.83,382.79c.59.3.97.38,1.01.54.28,1.18.49,2.37.68,3.56,0,.04-.44.27-.62.22-1.66-.47-1.52-1.86-1.52-3.15,0-.24.17-.47.45-1.17Z"/>
      <path class="cls-1" d="M82.65,375.41c-1.72-.89-4.26,1.24-5.56-1.57,2.65-2.17,3.87.67,5.61,1.6.01.01-.05-.03-.05-.03Z"/>
      <path class="cls-1" d="M84.27,388.68c-1.5.1-2.99.19-4.49.29-.02-.38-.04-.76-.07-1.15,1.57-.08,3.13-.17,4.7-.25-.05.37-.09.74-.14,1.11Z"/>
      <path class="cls-1" d="M101.2,393.64c-1.54,2.49-3.81,1.53-6.03.73,2.06-.18,4.13-.37,6.19-.55l-.16-.18Z"/>
      <path class="cls-1" d="M105.05,409.68h-7.02c2.93-1.89,4.63-1.69,7.02,0Z"/>
      <path class="cls-1" d="M193.51,413.07c-2.74-.27-3.74-.26-4.66-.52-.38-.11-.59-.81-.88-1.23.41-.2.93-.67,1.22-.56.95.37,1.82.94,4.32,2.32Z"/>
      <path class="cls-1" d="M27.03,342.32c2.09.99,3.2,1.51,4.46,2.11-1.87,1.18-3.11.86-4.46-2.11Z"/>
      <path class="cls-1" d="M218.32,407.17c-1.74.35-3.47.69-5.71,1.14,2.02-2.59,4.04-.75,5.84-1.09.02,0-.13-.04-.13-.04Z"/>
      <path class="cls-1" d="M181.78,418.29c-.66-.21-1.32-.39-1.95-.63-.07-.03,0-.41,0-.63l2.18.26c-.06.24-.12.48-.24,1Z"/>
      <path class="cls-1" d="M175.22,426.74c-.4.14-.84.44-1.2.36-.35-.08-.61-.54-.91-.83.36-.15.79-.5,1.08-.41.4.12.69.57,1.03.88Z"/>
      <path class="cls-1" d="M20.62,354.77c-.37-.28-.83-.63-1.28-.98.48-.11.97-.35,1.42-.3.46.05.88.39,1.32.6-.42.19-.84.39-1.46.68Z"/>
      <path class="cls-1" d="M214.19,430.45c-.74.25-1.18.54-1.6.5-.26-.03-.48-.53-.71-.83.43-.13.86-.36,1.28-.34.31.02.61.38,1.03.67Z"/>
      <path class="cls-1" d="M101.36,393.82c.02-.5-.16-1.22.1-1.45.45-.41,1.17-.67,1.79-.7.28-.01.91.91.83,1.02-.36.52-.85,1.06-1.42,1.28-.38.15-.96-.21-1.45-.34l.16.18Z"/>
      <path class="cls-1" d="M167.13,431.59c1.88-.26,2.54-.38,3.21-.42.19-.01.4.22.6.35-.22.26-.45.76-.66.75-.66-.03-1.31-.25-3.15-.67Z"/>
      <path class="cls-1" d="M22.25,346.09c-.43.19-.84.43-1.28.53-.17.04-.41-.24-.62-.37.25-.3.54-.87.76-.85.4.04.77.44,1.15.68Z"/>
      <path class="cls-1" d="M128.59,433.35c-.1.15-.21.44-.29.43-.41-.05-.82-.17-1.23-.27.1-.15.21-.42.3-.41.41.04.82.16,1.22.25Z"/>
      <path class="cls-1" d="M110.46,412.42c-.46.13-.91.31-1.38.35-.16.02-.35-.31-.53-.47.19-.15.42-.45.56-.42.47.11.9.35,1.35.54Z"/>
      <path class="cls-1" d="M209.66,416.92c.06.17.12.33.18.5-.22.06-.44.16-.65.14-.07,0-.12-.32-.17-.49.22-.05.43-.1.65-.15Z"/>
      <path class="cls-1" d="M123.48,425.71c.42-.12.83-.23,1.25-.35-.45.09-.91.18-1.38.25-.02-.01.13.1.13.1Z"/>
      <path class="cls-1" d="M47.13,371.72h1.95c-.61,0-1.22,0-1.85.02-.01,0-.1-.02-.1-.02Z"/>
      <path class="cls-1" d="M62.52,378.38c-.05.15-.1.42-.16.42-.18,0-.36-.1-.53-.15.05-.15.1-.42.16-.42.18,0,.36.1.53.16Z"/>
      <path class="cls-1" d="M71.57,380.12c.07-.16.15-.32.22-.48.14.23.27.46.41.69-.21-.07-.42-.14-.63-.21Z"/>
      <path class="cls-1" d="M263.91,401.02c1.14-.19,2.27-.39,3.41-.58.05.33.1.65.15.98-1.14.16-2.28.31-3.42.47-.05-.29-.1-.58-.14-.87Z"/>
      <path class="cls-1" d="M293.01,396.39c-1.75.66-3.44,1.32-5.07-.7,2.17-1.14,3.64-.57,5.07.7Z"/>
      <path class="cls-1" d="M259.19,391.78c-1.91,3.16-4.55,2.17-7.25.74,2.47-.21,4.94-.42,7.41-.63l-.16-.11Z"/>
      <path class="cls-1" d="M310.78,381.66c-1.43.81-2.4,1.36-3.38,1.91-.25-.68-.9-1.59-.67-2,.9-1.58,2.15-.85,4.05.08Z"/>
      <path class="cls-1" d="M302.97,390.14c-1.09.09-2.19.17-3.28.26-.03-.32-.07-.65-.1-.97,1.09-.14,2.18-.27,3.27-.41.04.37.08.74.11,1.11Z"/>
      <path class="cls-1" d="M308.18,357.61c-.24-.03-.48-.06-.72-.08.28-.16.55-.38.85-.44.16-.03.38.23.57.35-.23.06-.47.12-.7.17Z"/>
      <path class="cls-1" d="M302.4,379.11c-.22.41-.36,1.03-.7,1.17-.34.14-.87-.19-1.32-.32.24-.43.37-1.05.74-1.24.28-.15.85.24,1.28.39Z"/>
      <path class="cls-1" d="M259.35,391.89c.39-.11.77-.22.9-.26-.17.03-.6.1-1.05.16-.01-.01.15.1.15.1Z"/>
      <path class="cls-1" d="M181.18,318.04c-1.21-2.36-3.37-1.88-5.39-1.82l.15.16c2.85-3.93,6.49-4.43,11.64-2.6-2.67,1.78-4.61,3.07-6.55,4.37l.15-.11Z"/>
      <path class="cls-1" d="M232.56,308.28c-.5-.89-.99-1.79-1.5-2.71,1.74-.81,3.27-2,5.15-.69-.22,2.34-1.99,2.82-3.8,3.25,0,0,.15.14.15.14Z"/>
      <path class="cls-1" d="M186.59,327.14c-1.21,2.7-2.75,4.97-7.02,5.28,1.81-3.59,4.56-4.26,7.19-5.1l-.17-.18Z"/>
      <path class="cls-1" d="M241.06,295.04c-1.57,2.34-2.36,3.53-3.68,5.5-.51-2.22-.81-3.49-1.17-5.05,1.09-.1,2.11-.19,4.85-.44Z"/>
      <path class="cls-1" d="M186.76,327.32c1.53-1.38,3.06-2.76,5.06-4.58-.47,3.72-.46,3.73-5.22,4.41,0,0,.16.17.16.17Z"/>
      <path class="cls-1" d="M227.01,311c1.85-.91,3.69-1.82,5.55-2.73,0,0-.15-.14-.14-.14-1.62,1.39-2.91,3.43-5.57,2.72-.01-.01.16.14.16.14Z"/>
      <path class="cls-1" d="M177.02,309.65c-.62.42-1.21.86-1.86,1.23-.18.1-.49-.02-.74-.04.16-.33.27-.9.48-.94.74-.13,1.51-.08,2.27-.1l-.15-.15Z"/>
      <polygon class="cls-1" points="231.93 302.38 232.6 302.18 232.49 302.73 231.93 302.38"/>
      <path class="cls-1" d="M177.17,309.8c.3-.28.6-.55.75-.69-.18.11-.54.32-.9.54,0,0,.15.15.15.15Z"/>
      <path class="cls-1" d="M175.79,316.22c-.32.32-.63.66-.99.94-.07.05-.34-.15-.51-.24.55-.18,1.09-.36,1.64-.54,0,0-.14-.16-.14-.16Z"/>
      <path class="cls-1" d="M181.03,318.15c-.17-.11-.32-.27-.5-.31-.1-.02-.25.17-.37.26.34-.02.68-.04,1.02-.06,0,0-.14.11-.14.11Z"/>
      <path class="cls-1" d="M295.49,300.46c-3.2.93-5.97,1.73-9.13,2.65-.31-1.34-.95-2.43-.7-3.26,1.35-4.56.2-9.85,3.94-13.83,3.21-.9,5.38.66,6.01,3.59.71,3.33,1.66,6.83-.12,10.85ZM291.71,291.95c-.4.03-.81.06-1.21.09.06,1.41.12,2.82.19,4.23.34,0,.68,0,1.02-.01v-4.31Z"/>
      <path class="cls-1" d="M285.67,345.18c.05-.73.04-1.47.2-2.18.05-.2.6-.28.92-.42,0,.24.11.55,0,.71-.39.6-.86,1.15-1.3,1.72l.17.16Z"/>
      <path class="cls-1" d="M284.36,319.92c-.35.39-.7.78-1.05,1.16.36-.33.71-.66,1.07-.99l-.02-.17Z"/>
      <path class="cls-1" d="M284.4,349.04c-.51,1.64-1.03,3.28-1.53,4.94.02.03.07.17.08.19-.44-1.93-.01-3.61,1.55-4.95-.01-.02-.1-.18-.1-.18Z"/>
      <path class="cls-1" d="M283.65,306.84c-.08.22-.17.43-.25.65-.22-.28-.43-.57-.65-.85.17-.13.34-.25.51-.38.13.2.26.39.39.59Z"/>
      <path class="cls-1" d="M286.91,312.94c-.09.23-.19.47-.28.7-.21-.31-.44-.62-.61-.96-.02-.03.34-.26.52-.39.12.21.25.43.38.65Z"/>
      <path class="cls-1" d="M284.38,320.09c.01-.45.03-.89.04-1.34-.04.16-.11.32-.12.49-.01.21.01.43.04.67.02.02.04.19.04.19Z"/>
      <path class="cls-1" d="M281.17,341.48c.09.45.18.9.27,1.35-.08-.49-.17-.98-.24-1.49.01-.02-.04.14-.04.14Z"/>
      <path class="cls-1" d="M285.5,345.02c-.38,1.33-.76,2.65-1.12,4,.02.02.1.18.11.2-.02-1.46-.64-3.1,1.18-4.04,0,0-.17-.16-.17-.16Z"/>
      <path class="cls-1" d="M258.69,301.41c.98-4.21,1.71-7.84,2.7-11.4.57-2.03,1.51-4.02,4.42-4.24,3.48,4.45,3.65,9.53,2.89,14.72q-4.35,1.61-10.01.93ZM264.07,294.91c-.24.36-.53.7-.68,1.09-.05.14.22.41.35.62.38-.24.76-.48,1.14-.72-.27-.33-.53-.66-.8-1Z"/>
      <path class="cls-1" d="M271.52,317.27c-.48-.09-.95-.18-1.43-.28.05-.22.1-.43.14-.65.37.36.75.72,1.12,1.08l.17-.16Z"/>
      <path class="cls-1" d="M271.36,317.42c.26.38.57.74.78,1.15.08.16-.04.43-.06.65-.3-.2-.81-.36-.85-.6-.06-.42.17-.88.29-1.34.01-.01-.15.15-.15.15Z"/>
      <path class="cls-1" d="M270.66,373.07c-.35-.62-.74-1.23-1.03-1.89-.07-.15.2-.64.26-.63.37.06.87.11,1.06.37.29.39.37.94.54,1.43-.28.24-.55.48-.83.72Z"/>
      <path class="cls-1" d="M44.98,301.64c-1.77-4.94-.06-8.88,1.64-12.72.76-1.72,2.44-2.8,4.51-2.84,1.79-.04,4.12,1.65,4.6,3.83.69,3.1,1.19,6.28,1.31,9.44.03.8-1.65,2.31-2.63,2.39-3.11.25-6.26-.03-9.43-.1ZM52.88,297.93c-.14-2.76-.1-4.55-.39-6.29-.09-.57-.97-1.34-1.57-1.42-.61-.08-1.71.4-1.93.92-.67,1.56-1.02,3.25-1.56,5.1,1.78.56,2.99.93,5.44,1.7Z"/>
      <path class="cls-1" d="M49.13,308.71c-1.15-1.78.05-2.76.58-3.82.18-.36.82-.49,1.24-.73.14.46.54,1.05.38,1.34-.6,1.07-1.38,2.04-2.21,3.2Z"/>
      <path class="cls-1" d="M58.4,352.21c-1.49,1.23-2.29.39-3-.37-.22-.23-.07-.85.01-1.27.02-.09.54-.23.68-.14.77.53,1.5,1.13,2.32,1.77Z"/>
      <path class="cls-1" d="M55.6,322.39c-.12.21-.23.43-.35.64-.32-.34-.65-.67-.92-1.05-.04-.05.25-.33.39-.51.29.3.58.61.88.92Z"/>
      <path class="cls-1" d="M41.81,290.85c.02-.46.04-.92.06-1.38.02.18.07.37.04.55-.04.22-.15.42-.21.65.01.01.11.18.11.18Z"/>
      <path class="cls-1" d="M42.15,308.86c-.05-.63-.1-1.26-.16-1.89.1.12.3.25.29.36-.04.46-.15.91-.21,1.39.02.02.07.14.07.14Z"/>
      <path class="cls-1" d="M57.66,316.03c0,1.16,0,2.32,0,3.48-1.71-1.16-1.16-2.32,0-3.48Z"/>
      <polygon class="cls-1" points="59.85 338.97 60.25 338.97 60.07 339.45 59.85 338.97"/>
      <path class="cls-1" d="M183.67,191.79c0-2.22-.02-4.45-.03-6.67,1.98.2,2.77-1.06,3.5-2.63,1.48-3.18,3.36-6.11,6.12-8.36,1.52-1.24,3.89-.81,4.89.83,1.82,2.97,2.05,5.33.98,11.18-4.1.94-8.12,3.27-12.6,1.46-1.1,1.61-1.98,2.89-2.87,4.18ZM193.57,177.68c-.92,1.66-1.81,3.26-2.7,4.87,2.17,1.27,3.59.73,4.51-.69,1.06-1.64.1-2.88-1.81-4.17Z"/>
      <path class="cls-1" d="M185.03,168.47c.52-2.87,1.14-5.73,1.52-8.62.38-2.88,2.04-4.86,4.15-6.57,1.82-1.47,4.31-1.01,5.38,1.2,1.03,2.13,1.91,4.4,2.35,6.71.59,3.11-.85,5.22-3.99,5.88-3.09.65-6.29.83-9.43,1.22l.02.17ZM192.14,156.85c-2.25,1.41-2.1,3.52-1.57,5.6.13.5,1.18,1.08,1.79,1.06.64-.02,1.65-.6,1.81-1.14.62-2.17.17-4.13-2.03-5.53Z"/>
      <path class="cls-1" d="M192.77,193.54c3.43,2.25,5.02,4.81,5.38,8.26-1.97,3.16-5.36,3.02-8.77,4.32-.37-1.56-1.02-2.77-.84-3.84.49-3.05,1.8-5.46,4.23-8.73Z"/>
      <path class="cls-1" d="M182.03,185.26c0-1.67,0-3.34,0-5.01.59.09,1.17.18,1.76.27l-.17-.16c.06,1.63.12,3.26.18,4.89-.59,0-1.18,0-1.77,0Z"/>
      <path class="cls-1" d="M181.14,169.93c-.15-1.13-.29-2.27-.44-3.4.23-.01.46-.02.69-.04-.1,1.09-.19,2.18-.27,3.29.01.03.02.14.02.14Z"/>
      <polygon class="cls-1" points="184.3 157.98 184.57 157.42 184.76 158.02 184.3 157.98"/>
      <path class="cls-1" d="M185.01,168.3c-.53,1.16-1.05,2.32-1.57,3.49,0,.01.14.17.14.17.49-1.15.98-2.3,1.46-3.47-.01-.02-.03-.19-.03-.19Z"/>
      <path class="cls-1" d="M182.28,175.79c.44-1.27.88-2.54,1.31-3.82,0,0-.14-.17-.15-.18-.44,1.27-.88,2.56-1.32,3.84,0,0,.16.16.16.16Z"/>
      <path class="cls-1" d="M183.8,180.53c.15-.42.31-.84.46-1.26-.21.36-.42.73-.63,1.09l.17.16Z"/>
      <path class="cls-1" d="M182.04,194.99c.24-1.33,0-2.91,1.78-3.46-.17,1.37-.12,2.85-1.78,3.46Z"/>
      <path class="cls-1" d="M149.3,190.76c-.09-.72-.04-1.53-.31-2.22q-2.11-5.39-.03-9.57c1.42-2.85,2.84-5.71,4.29-8.63,1.93,1.39.14,5.09,3.85,5.22,1.72.06,2.35,1.99,2.6,3.62.4,2.62.72,5.25,1.05,7.71q-5.05,4.69-11.44,3.87ZM155.59,179.63c-2.02-.08-2.55,1.09-2.52,2.51.03,1.47-.59,3.25,1.31,4.11,1.12.51,1.93-1.01,1.8-3.65-.05-1.02-.39-2.02-.59-2.97Z"/>
      <path class="cls-1" d="M154.46,147.89c.12.24.2.51.37.71,1.55,1.75,4.9,1.27,5.48,4.1.58,2.83.96,5.74,1.05,8.62.03,1.17-.66,3.05-1.54,3.44-2.58,1.14-5.38,1.85-8.17,2.36-.7.13-1.65-1.13-2.15-1.5.33-4.11.34-7.83,1.03-11.42.46-2.44.83-5.41,4.12-6.17,0,0-.19-.14-.19-.14ZM157.06,155.45c-.57-.02-1.15-.05-1.72-.07-.42,1.47-.97,2.91-1.22,4.41-.17,1.02.07,2.26,1.51,2.09.59-.07,1.51-.88,1.56-1.41.15-1.66-.06-3.35-.12-5.02Z"/>
      <path class="cls-1" d="M150.47,216.48c-.84.11-1.67.23-2.51.34,0-.12-.01-.25-.02-.37.87,0,1.74,0,2.62,0,0,0-.09.03-.09.03Z"/>
      <path class="cls-1" d="M138.71,365.76c-3.37.84-5.76,3.6-8.28,1.57-2.63-2.12-.34-4.94.16-7.41.31-1.55.74-3.19,1.6-4.47.62-.93,2.07-1.89,3.07-1.81,1.04.09,2.12,1.29,2.92,2.23.45.53.49,1.51.51,2.29.06,2.36.02,4.73.02,7.61ZM134.86,360.88c-.11-.43-.22-.86-.33-1.29-.15.17-.42.32-.44.5-.05.44.02.89.04,1.33.24-.18.48-.36.72-.54Z"/>
      <path class="cls-1" d="M134.47,407.97c.11.21.31.42.3.63,0,.19-.24.37-.37.55-.11-.21-.31-.42-.3-.62,0-.19.24-.37.37-.56Z"/>
      <path class="cls-1" d="M150.01,418.29c.16-1.47.33-2.94.59-5.33,1.14,2.68.79,4.09-.74,5.19,0,0,.15.14.15.14Z"/>
      <path class="cls-1" d="M151.31,389.03c0-1.69,0-3.37-.01-5.06h2.33c-.25,1.99-.19,4.01-2.32,5.06Z"/>
      <path class="cls-1" d="M155.3,391.33c-.94.87-1.87,1.75-2.97,2.77-.31-.75-.57-1.4-.84-2.06,0,0-.19.2-.19.2,1.32-.28,2.64-.55,3.97-.83l.03-.08Z"/>
      <path class="cls-1" d="M149.7,374.46c.58-1.15,1.17-2.31,1.75-3.46-.58,1.15-1.17,2.31-1.75,3.46Z"/>
      <path class="cls-1" d="M151.46,380.86c.02-.5,0-1,.09-1.49.04-.2.33-.36.51-.53.17.42.59.97.46,1.23-.17.34-.79.45-1.22.66l.16.12Z"/>
      <path class="cls-1" d="M151.48,384.14c-.6,0-1.2,0-1.8,0,.12-1.35-.03-2.85,1.78-3.28l-.16-.12c.06,1.13.12,2.27.18,3.4Z"/>
      <path class="cls-1" d="M155.27,391.41c-.03-.62-.07-1.24-.1-1.85,0,0,.02,0,.03,0,.03.58.06,1.16.1,1.75,0,.02-.03.1-.03.1Z"/>
      <path class="cls-1" d="M149.68,392.23c.23-1.34.14-2.84,1.78-3.45-.05,1.15-.11,2.31-.16,3.46,0,0,.19-.2.19-.2-.6.06-1.21.13-1.81.19Z"/>
      <path class="cls-1" d="M149.92,406.98c.12-.5.25-1,.37-1.5-.18.44-.36.88-.54,1.33,0,0,.17.18.17.18Z"/>
      <path class="cls-1" d="M67.26,296.85c0-1.15,0-2.3.01-3.45,1.3,1.15,1.71,2.31-.01,3.45Z"/>
      <polygon class="cls-1" points="68.33 305.26 67.8 305.25 68.08 304.62 68.33 305.26"/>
      <path class="cls-1" d="M70.61,319.38c.15-.3.31-.59.46-.89-.04.14-.03.33-.12.43-.13.14-.33.22-.5.33l.16.14Z"/>
      <path class="cls-1" d="M70.45,319.24c.17,1.44.01,2.74-1.5,3.44,0,0,.15.13.16.13-.2-1.45-.47-2.93,1.51-3.44,0,0-.16-.14-.16-.14Z"/>
      <path class="cls-1" d="M204.02,214.23c.3,1.87.51,2.49.46,3.1-.02.29-.53.54-.81.81-.11-.2-.35-.42-.32-.6.09-.69.27-1.36.68-3.3Z"/>
      <path class="cls-1" d="M196.6,217.57c2.43.66,2.05,2.32,1.53,4.5-1.97-1.36-2.01-2.88-1.38-4.61l-.14.11Z"/>
      <path class="cls-1" d="M194.03,224.94c-.11-.43-.2-.63-.18-.83,0-.06.31-.1.48-.14-.08.26-.16.53-.3.98Z"/>
      <polygon class="cls-1" points="276.46 253.71 276.87 253.86 276.62 254.35 276.46 253.71"/>
      <path class="cls-1" d="M266.19,249.89v3.53q-1.15-1.84.15-3.4l-.15-.13Z"/>
      <path class="cls-1" d="M266.34,250.01v-3.77c1.66,2.11,1.64,3.09-.15,3.64,0,0,.15.13.15.13Z"/>
      <path class="cls-1" d="M135.06,311.25c.01,1,.07,2.01-.02,3-.01.14-.73.25-1.13.3-.05,0-.3-.5-.22-.64.48-.85,1.02-1.67,1.54-2.5l-.18-.17Z"/>
      <path class="cls-1" d="M135.24,311.42c.19-.48.38-.96.57-1.44.95,1.13-.18,1.03-.75,1.27,0,0,.18.17.18.17Z"/>
      <path class="cls-1" d="M139.82,320.76c-.2.4-.4.8-.6,1.19-.16-.18-.47-.42-.44-.54.12-.42.37-.81.58-1.21.15.19.3.37.46.56Z"/>
      <path class="cls-1" d="M153.48,317.04v-12.45c.53,4.15,2.05,8.3,0,12.45Z"/>
      <path class="cls-1" d="M159.39,317.88c-.41-.53-.91-1.01-1.17-1.6-.09-.2.45-.67.71-1.01.13.2.38.4.38.61.02.71-.05,1.42-.09,2.14,0,0,.16-.14.16-.14Z"/>
      <path class="cls-1" d="M55.89,248.03c.05-2.8-.31-5.69,1.56-8.15,0,0-.15-.16-.16-.17-.13,2.79,1.17,5.86-1.55,8.18l.15.15Z"/>
      <path class="cls-1" d="M55.74,247.89v6.24c-1.58-3.42-1.19-4.8.16-6.09,0,0-.16-.15-.16-.15Z"/>
      <path class="cls-1" d="M48.7,257.32c.07.18.22.37.19.54-.02.16-.22.29-.34.43.05-.32.1-.65.15-.97Z"/>
      <path class="cls-1" d="M67.92,240.03c1.02,4.31,1.7,7.08,2.3,9.86.1.47-.17,1.02-.26,1.53q-2.17-3.58-2.04-11.39Z"/>
      <path class="cls-1" d="M104.57,252.98c0,.61,0,1.22,0,1.84-.45-.21-.89-.42-1.34-.64.45-.4.89-.8,1.34-1.2Z"/>
      <path class="cls-1" d="M94.33,263.2c-.11-.51-.22-1.02-.33-1.53.07.54.14,1.08.19,1.64-.02.01.14-.11.14-.11Z"/>
      <path class="cls-1" d="M119.16,292.76c.48-2.29.61-2.9.74-3.51.08.22.25.45.22.65-.08.42-.26.82-.96,2.86Z"/>
      <path class="cls-1" d="M240.2,411.45c.32-.33.63-.68.99-.97.06-.05.35.19.53.29-.55.18-1.1.35-1.65.52,0,0,.13.15.13.15Z"/>
      <path class="cls-1" d="M238.58,403.52c1.16-.58,2.31-1.16,3.47-1.74-1.15.58-2.31,1.16-3.47,1.74Z"/>
      <path class="cls-1" d="M224.28,393.69c-1.16.59-2.32,1.18-3.48,1.77.63-1.63,2.09-1.63,3.48-1.77Z"/>
      <path class="cls-1" d="M245.92,280.47c3.58,2.15,3.64,2.28,2.11,5.11-.37.68-.88,1.28-1.32,1.92-.26-2.34-.52-4.69-.79-7.03Z"/>
      <path class="cls-1" d="M232.16,278.98l.56-1.24c.17.22.33.45.5.67-.4.14-.81.27-1.22.41,0,0,.16.16.16.16Z"/>
      <path class="cls-1" d="M245.1,274.23c0-1.69.01-3.38.02-5.07,3.59,2.53,2.58,3.11-.02,5.07Z"/>
      <path class="cls-1" d="M238.84,397.03c-.36.32-.7.66-1.09.93-.09.06-.35-.14-.54-.22.59-.19,1.17-.37,1.76-.56,0,0-.14-.15-.14-.15Z"/>
      <path class="cls-1" d="M220.87,353.23c1.75,1.14,2.57,2.75,1.63,4.68-.9,1.85-2.16,3.52-3.27,5.27.55-3.32,1.09-6.63,1.64-9.95Z"/>
      <path class="cls-1" d="M218.87,352.53c0,.37,0,.75.01,1.12.06-.14.19-.29.18-.41-.03-.19-.16-.36-.25-.56,0-.02.06-.14.06-.14Z"/>
      <path class="cls-1" d="M216.51,361.94c-.04-.45-.08-.9-.12-1.35.06.17.18.35.17.52-.01.22-.13.44-.18.67.01.01.14.16.14.16Z"/>
      <path class="cls-1" d="M180.41,188.53c.59-1.16,1.17-2.31,1.76-3.47-.59,1.16-1.17,2.31-1.76,3.47Z"/>
    </g>
  </g>
</svg>