<?xml version="1.0" encoding="UTF-8"?>
<svg id="Layer_2" data-name="Layer 2" xmlns="http://www.w3.org/2000/svg" viewBox="0 0 256.18 263.1">
  <defs>
    <style>
      .cls-1 {
        fill: #3d2011;
      }
    </style>
  </defs>
  <g id="_Ñëîé_1" data-name="Ñëîé 1">
    <g>
      <path class="cls-1" d="M114.82,148.46c-2.12,8.55-9.15,12.93-15.52,17.61-5.44,4.01-11.57,7.06-17.34,10.63-4.75,2.93-9.72,5.15-15.05,6.97-11.71,4.02-19.91,12.28-24.29,23.8-5.29,13.92-12.28,26.84-20.9,38.94-1.42,2-2.31,4.36-3.62,6.45-2.11,3.37-4.36,6.65-6.72,10.24-1.89-.54-3.87-.49-4.6-1.42-1.65-2.1-3.47-4.58-3.84-7.1-1.71-11.83-4.18-23.66-2.25-35.73-1.53-9.21,1.85-18.34.31-27.61-.76-4.6.3-9.19,3.27-13.16,2.94-3.92,5.69-7.99,8.51-12.01,4.27-6.1,10.8-9.38,17.16-12.26,9.97-4.51,18.26-11.46,27.42-17.1.79-.48,1.48-1.13,2.27-1.6,7.31-4.35,13.02-10.22,17.04-17.73.72-1.35,1.67-2.57,2.46-3.78-.7-3.75-1.39-7.38-2.05-11.01-.77-4.27-1.83-8.32-4.56-11.94-1.83-2.42-2.95-5.41-4.19-8.23-.61-1.38-.96-2.94-1.11-4.45-.34-3.6,2.01-6.05,5.51-5.71,1.5.14,2.99.67,4.44,1.15,4.69,1.55,9.31,3.07,14.4,3.1,2.64.02,5.35,1.28,7.89,2.32,4.05,1.66,8.18,2.95,12.54,2.92,5.52-.03,10.33-1.82,13.3-6.91,1.86-3.18,3.66-6.39,5.46-9.61.6-1.07.88-2.39,1.66-3.29,6.75-7.75,8.76-17.51,11.53-26.94,1.94-6.62,5.25-12.37,9.53-17.76,4.61-5.8,10.38-9.52,17.41-11.5,1.48-.42,3.03-.66,4.46-1.2,14.89-5.58,30.14-4.93,45.67-3.73,9.31.72,18.15,3.37,27.31,4.47,2.95.36,6.19.63,7.83,4.5-4.19,3.49-8.93,5.52-13.74,7.39-6.61,2.57-13.24,5.09-19.85,7.64-1.15.44-2.26,1.22-3.43,1.32-4.2.36-7.78,1.86-10.58,5.07-7.43,2.08-9.84,8.34-12.9,14.51-5.74,11.59-11.34,23.43-18.68,34-7.7,11.1-17.37,20.84-26.19,31.17-.77.9-1.65,1.69-2.33,2.38.31,1.01.32,1.91.67,2.07,5.93,2.69,8.52,7.81,9.94,13.7,1.09,4.52,2.39,8.91,5.46,12.94,2.13.15,4.27.14,6.34.49,3.03.51,6.13.96,8.97,2.04,3.7,1.41,6.17,4.08,5.75,8.5-.39,4.07.04,7.86,2.12,11.62,1.82,3.29.45,6.61-3,8.46-2.67,1.43-6.21,1.76-8.24,3.73-5.38,5.22-12.47,6.09-18.92,9.28-4-4.89-7.62-9.45-9.4-15.09-.97-3.07-2.32-5.82-4.98-7.58-8.98-5.92-18.08-11.62-28.48-14.84-1.63-2.35-3.81-2.13-6.12-1.33-.76-3.62-3.59-5.37-6.33-7.33-2.19-1.57-4.33-3.38-5.97-5.49-1.27-1.63-.57-3.44,1.57-4.29,3.33.07,3.48,5.12,7.25,4.55,4.23-.63,2.73,5,5.95,5.57.57.1,1.09.5,1.63.77l-.2-.17c2.7,1.73,5.13,4.06,9.2,4.4-.46-2.72-.83-4.91-1.28-7.6,1.93,1.34,3.27,2.27,4.61,3.2-.51,1.47-1.29,3,.92,3.82.58,2.42,1.2.49,1.81.02,2.63.73,1.58,5.73,5.63,4.84.4-1.35.8-2.72,1.41-4.8,1.43,3.1,2.62,5.21,3.38,7.46,1.08,3.17,3.75,2.23,5.93,2.77.64.16.91,1.52,1.48,2.24,1.9,2.38,3.52,5.16,5.88,6.95,2.46,1.86,3.69,3.94,4.05,6.82.34,2.76,1.25,5.21,4.71,7.35-.25-2.95-.44-5.06-.61-7.08,1.74.29,2.91.48,4.05.69.02.55.07,1.08.11,1.6-.07-.49-.14-.98-.21-1.46-.65-1.76-2.04-3.46-.64-6.39,1.95,2.99,3.29,5.35,4.94,7.47,1.02,1.3,2.52,1.67,3.9-.2-.68-3.49-3.87-5.31-5.78-8.01-1.05-1.48-2.32-2.98-.62-5.11,1.37.15,2.87.31,4.44.49.37-1.43.74-2.87,1.09-4.23,2.08-.85,4.02-1.64,6.46-2.65-1.92-2.42-3.52-4.43-5.13-6.46-2.9-.16-5.65-.31-7.99-.44-4.43-2.96-6.53-6.88-7.91-11.47-1.04-3.47-2.05-6.97-4.89-9.77-7.43-7.34-14.59-14.95-21.97-22.56.42-.71.86-1.46,1.32-2.26,5.92.5,7.99,6.32,12.72,9.29,1.53-5.26-4.12-7-4.14-11.43.54-.58,1.2-1.85,2.19-2.2.96-.35,2.28.18,3.39.5.11.03-.04,1.45-.31,2.13-1.39,3.47.74,5.71,2.61,8.52,5.83-2.77,8.27-8.36,12.07-12.59.46-.51.15-1.72.22-2.95-1.87-.43-3.79-.54-5.35-1.35-1.05-.55-1.6-2.08-2.5-3.36,2.53-1.19,4.56-1.88,6.28-3.04,1.84-1.24,3.47-2.61,5.91-1.38-1.68,1.5-4.81,1.78-4.19,5.07-.55.21-1.09.42-1.64.64.49-.28.98-.55,1.48-.83,1.79-.41,3.7-.56,5.32-1.32,1.56-.73,2.88-2.03,4.18-3.21,1.32-1.2,1.09-2.63.43-4.17-1.09-2.57,2.48-.86,2.41-3.28-1.1-2.26-6.42-2.72-4.72-8.05,2.92,1.74,5.67,3.37,8.97,5.33,5.84-8.31,9.43-18.19,14.83-27.04,1.22-2,1.71-4.46,2.53-6.71-.65-2.67-5.1-2.23-4.42-5.78,1.88.19,3.37.33,4.85.48,0,0-.21,0-.21,0q4.33-1.75,2.58-5.98c1.78.18,3.56.36,6.69.67-1.92-2.12-3.26-3.15-3.98-4.5-.84-1.6-1.15-3.48-1.88-5.86,4.33.8,8.34,1.54,13.28,2.46-1.64-2.22-2.63-3.54-4.28-5.77,3.41.68,5.77,1.19,8.15,1.58.4.07.89-.42,1.34-.65-.53-1.34-1.05-2.64-1.86-4.69,2.38.17,3.87.26,5.35.38,1.15.09,2.37.52,3.42.25,4.02-1,7.99-2.21,12.78-3.58-2.69-.76-4.7-1.67-6.77-1.84-8.3-.69-16.61-1.51-24.93-1.63-12.15-.17-23.84,2.61-35.14,6.99-4.68,1.82-8.4,4.87-11.75,8.73-6.32,7.28-9.17,16.09-11.45,25.03-1.56,6.13-4.09,11.54-7.53,16.73-2.38,3.59-4.34,7.47-6.52,11.2-1.09,1.86-2.12,3.77-3.4,5.5-4.23,5.69-4.26,5.66-3.12,12.92-3.73-.46-7.31-.9-10.89-1.34-1.43-4.14-5.39-1.82-7.96-3.08-2.73-1.34-5.57-2.46-7.97-3.51-2.36,1.41-3.31,4.52-5.86,3.07-1.35-.77-1.96-2.85-2.56-3.81-3.9-1.42-7.31-2.69-10.74-3.89-1.43-.5-2.91-.91-4.4-1.18-.39-.07-.9.57-1.74,1.16.7,1.55,1.44,3.18,2.18,4.82h6.05c-1.4,1.76-2.5,3.16-3.31,4.18.15,5.4,5.25,6.1,7.64,9.23-.19,1.62-.11,3.23-.59,4.65-1.21,3.59-1.67,6.41-.73,6.55,2.71.4,2.64,2.31,3.37,4.16.94,2.36,1.23,4.51,1.07,7.07-.12,2.02,1.38,4.14,2.18,6.28-5.69,1.01-6.06-5.37-9.74-6.01-4.06,4.25-7.62,8.54-11.74,12.2-11.08,9.86-23.08,18.44-36.5,24.91-10.31,4.97-18.53,12.13-23.84,22.42-2.16,4.18-3.66,8.39-2.93,13.28.4,2.7-.03,5.53-.1,8.3-.31,11.42-.66,22.84-.89,34.26-.03,1.71.52,3.42.78,5.03,2.61.11,3.44-1.18,3.47-2.79.07-2.89,2.52-3.15,4.22-4.24-.5.73-1.04,1.43-1.44,2.2-.24.46-.23,1.04-.34,1.57.47.09,1.07.39,1.37.21.42-.26.88-.89.87-1.34-.02-.85-.38-1.68-.59-2.52v-3.94c2.62.65,4.67,1.15,6.59,1.62.37-1.01.67-1.8,1.66-4.48.3,3.22.23,4.61.62,5.86.21.67,1.1,1.37,1.82,1.59,1.03.31,2.16-1.35,1.8-2.6-.33-1.17-.71-2.34-1.24-3.43-.8-1.65-1.84-3.2-2.59-4.87-1.19-2.65-.76-4.68,1.74-6.46,1.36-.97,3.21-1.27,4.81-1.86,1.02,2.11,1.9,3.94,2.81,5.84,4.27-2.72,3.22-5.86,1.87-9.05l-.18.17c1.38-.18,3.2.11,4.01-.66.93-.89,1.4-2.77,1.26-4.14-.14-1.38-1.27-2.65-1.96-3.97l-.05.15c1.71-.45,3.23-.62,4.52-2.52,3.58-5.27,6.91-10.76,12.31-14.63,2.94-2.11,3.71-5.33,2.4-9.04-.53-1.51-.03-3.39.03-6.48,2.78,3.84,4.7,6.48,6.83,9.42,5.13-3.57.5-9.15,3.11-12.17,5.85-.53,4.77,6.18,8.54,7.95,4.97-3.31-1.05-7.31,1.01-10.98,1.48,1.66,2.64,2.96,3.99,4.47,1.66-4.31-2.63-7.12-1.98-10.9,2.46.49,4.8.96,7.33,1.46.65,1.32,1.26,2.71,2.01,4.02.74,1.28,1.7,3.14,3.33,1.8.77-.63.69-2.82.37-4.15-.35-1.43-1.59-2.63-2.17-4.04-.43-1.03-.9-2.42,1.42-2.84,1.84,2.49,3.79,5.12,5.69,7.67,3.13-.2,3.46-2.21,3.29-4.56l-.16.14c1.73-.22,3.47-.44,5.79-.73-1.02-2.93-1.91-5.39-2.68-7.88-.1-.32.46-.84.86-1.5,1.46,1.64,2.86,3.22,4.31,4.84,1.84-1.92-.47-4.95,2.66-5.7,1.7,1.82,3.93,1.36,6.03,1.41ZM173.6,158.92c.59,4.49,1.74,8.43,3.32,9.24,1.51.78,3.43.91,5.18.98.49.02,1.04-1.14,1.96-2.24-3.52-2.69-6.79-5.19-10.46-7.99ZM9.76,255.9c3.29-2.79,3.68-6.12,1.75-10.51-3.69,3.36-2.19,7-1.75,10.51ZM28.99,225.85c-.72-.67-1.5-1.4-2.28-2.12-.11.25-.37.61-.29.73.59.84,1.25,1.63,1.88,2.43.15-.24.31-.47.69-1.05ZM223.95,15.97c-.1-.18-.22-.51-.3-.5-.47.05-.93.18-1.4.29.1.17.23.51.31.5.47-.05.93-.18,1.39-.28ZM81.94,163.34l.3.71.25-.73-.54.02Z"/>
      <path class="cls-1" d="M192.54,29.24c1.66,1.2,1.5,2.85,1.16,4.56,0,0,.21,0,.21,0-.46-1.52-.91-3.04-1.37-4.56Z"/>
      <path class="cls-1" d="M184.65,43.26c-2.87-1.63-5.74-3.25-8.64-4.89,1.49-2.05,2.91-.33,4.47-.32.57-1.16,1.17-2.4,2-4.1,1.56,1.15,2.94,2.18,4.43,3.28-.47,1.85-.9,3.53-1.33,5.21-.31.27-.62.54-.93.82Z"/>
      <path class="cls-1" d="M32.93,211.84q-3.77-3.21-4.54-8.59c1.39-.94,2.28-.02,2.77,1.03,1.13,2.42,2.37,4.88,1.6,7.73,0,0,.18-.17.18-.17Z"/>
      <path class="cls-1" d="M196.5,28c-1.31.2-2.63.39-3.94.59-2.44-2.23-4.87-4.46-7.78-7.12,5.04.12,5.89.63,11.72,6.53Z"/>
      <path class="cls-1" d="M176,64.01c-3.05-1.78-4.55-2.66-6.42-3.76,4.19-1.55,4.21-1.56,6.42,3.76Z"/>
      <path class="cls-1" d="M175.53,54.8c2.74-1.4,4.08.14,5.61,2.09-2.66,1.23-4.26.4-5.61-2.09Z"/>
      <path class="cls-1" d="M112.68,141.06c.27-1.67.54-3.35.82-5.1q1.29,3.59-1.02,4.92s.2.17.2.17Z"/>
      <path class="cls-1" d="M26.09,196.16c-2.06.59-2.24-1.09-3.23-2.28,2.63-.57,2.34,1.5,3.11,2.47l.13-.19Z"/>
      <path class="cls-1" d="M184.94,46.3q-.72,3.15-4.21.64c1.69-.16,3.06-.3,4.44-.43,0,0-.23-.21-.23-.21Z"/>
      <path class="cls-1" d="M10.32,220.02c-.17.22-.35.44-.52.66-.12-.27-.35-.54-.33-.79.02-.24.31-.45.49-.67.12.27.24.53.36.8Z"/>
      <path class="cls-1" d="M23.01,208.67c-.34.27-.73.63-.78.59-.57-.5-1.11-1.03-1.6-1.61-.05-.06.29-.46.45-.7.63.57,1.27,1.13,1.92,1.72Z"/>
      <path class="cls-1" d="M36.05,203.24c-.39-2.13-.77-4.26-1.16-6.39l-.19.14c1.79.29,2.09,1.61,1.97,3.07-.09,1.1-.41,2.19-.65,3.31-.01.02.03-.12.03-.12Z"/>
      <path class="cls-1" d="M185.58,42.44c.93.92,1.86,1.84,3.32,3.28-1.86.27-2.91.42-3.96.57,0,0,.23.21.23.21-.17-1.08-.34-2.17-.52-3.25.31-.27.62-.54.93-.82Z"/>
      <path class="cls-1" d="M41.42,177.82c-.07.23-.14.46-.2.69-.47-.16-.97-.26-1.37-.52-.08-.05.2-.68.31-1.04.42.29.84.58,1.27.87Z"/>
      <path class="cls-1" d="M130.87,96.96c-.19.07-.38.14-.57.21.12-.32.24-.65.36-.97.07.25.14.51.21.76Z"/>
      <polygon class="cls-1" points="97.3 126.25 96.88 126.26 97.07 125.7 97.3 126.25"/>
      <path class="cls-1" d="M127.82,144.94c-.69,0-1.38,0-2.07-.01-.31-1.29-.62-2.58-.94-3.88,2.62.05,3.1,1.74,3,3.89Z"/>
      <path class="cls-1" d="M98.02,157.88c-.51-.58-1.1-1.11-1.46-1.76-.1-.18.49-.75.77-1.14.15.2.41.39.43.6.08.81.07,1.62.1,2.44,0,0,.16-.14.16-.14Z"/>
      <path class="cls-1" d="M44.96,185.63c.17.07.47.11.49.21.03.2-.08.42-.14.64-.18-.06-.5-.11-.51-.19-.02-.21.1-.43.16-.65Z"/>
      <path class="cls-1" d="M34.89,196.85c-.36-.4-.72-.8-1.08-1.2,1.58-.41,1.07.57.89,1.34,0,0,.19-.14.19-.14Z"/>
      <path class="cls-1" d="M25.96,196.35c.2.44.4.88.6,1.32-.17-.49-.33-.99-.49-1.5.01-.02-.12.17-.12.17Z"/>
    </g>
  </g>
</svg>