<?xml version="1.0" encoding="UTF-8"?>
<svg id="Layer_2" data-name="Layer 2" xmlns="http://www.w3.org/2000/svg" viewBox="0 0 304.97 111.58">
  <defs>
    <style>
      .cls-1 {
        fill: #3d2011;
      }
    </style>
  </defs>
  <g id="_Ñëîé_1" data-name="Ñëîé 1">
    <g>
      <path class="cls-1" d="M241.52,70.82c3.3-.43,4.79-.63,6.45-.84.96.79,2,1.58,2.96,2.46,2.19,1.99,4.59,2.38,7.26,1.09.95-.46,1.94-.82,2.88-1.29,2.03-1.03,4.01-1.09,6.01.07.68.39,1.46.61,2.14,1,4.92,2.85,9.83,3.47,14.86.22,1.86-1.2,3.88-1.15,6.06-.67,4.09.91,8.26,1.47,12.38,2.26.95.18,2.18.14,2.46,1.95-4.57,1.47-9.25.91-13.63-.31-4.06-1.12-7.57-1.49-11.19,1.05-2.55,1.78-5.49,1.56-8.32.44-2.92-1.15-5.81-2.36-8.84-3.6-5.71,2.03-11.56,5.13-16.21-1.26-1.61.42-2.67.55-3.6.96-3.11,1.36-6.1,3.78-9.26,3.98-3.28.22-6.04,1.2-8.99,2.2-6.26,2.13-12.76,2.43-19.32,2.23-6.53-.19-13.06-.91-19.57.71-3.55.88-7.26,1.18-10.9,1.69-5.65.78-10.91-1.12-16.15-2.66-2.6-.76-5-1.14-7.69-.77-3.37.47-6.82.39-10.21.78-7.02.81-13.51-1.49-20.07-3.31-1.2-.33-2.4-1.13-3.31-2.02-6.09-5.91-13.79-6.93-21.72-7.27-2.62-.11-5.27.16-7.87-.1-6.49-.65-10.72-4.52-12.42-10.52-1.71-6.04-2.55-12.31-5.23-18.1-.47-1.01-.18-2.66.32-3.76.95-2.14,1.86-4.66,3.57-6.03,6.66-5.36,12.77-11.54,22-12.93,6.69-1.01,13.37-2.44,20.1-2.42,7.8.02,15.13-1.79,22.19-4.53,7.27-2.82,14.48-4.43,22.26-2.93,1.76.34,3.65-.11,5.48-.06,2.6.07,5.19.3,7.79.42,6.02.28,12.04.76,18.06.7,2.99-.03,5.82-.05,8.21,1.86,5.76,4.6,12.63,6.44,19.66,7.11,5.26.5,9.17,2.98,11.94,6.75,4.23,5.76,9.68,10.32,14.12,15.82,1.47,1.82,3.19,3.69,3.9,5.83,1.33,4.02,1.69,8.11-1.15,11.98-2.44,3.34-4.42,7.02-7.4,11.83ZM207.01,45.57c.28.25.55.5.83.75-1.94,3.25-4.87,4.53-8.58,4.47-4.98-.08-9.97-.07-14.95,0-1.38.02-2.76.38-4.92.7,3,2.89,5.96,2.67,8.75,2.73,2.88.07,5.78-.44,8.65-.28,10.4.59,17.8-5.46,25.15-11.39,3.19-2.57,2.87-6.29-.53-8.63-2.53-1.74-5.57-2.78-8.41-4.07-3.32-1.51-6.92-2.58-9.93-4.55-2.28-1.5-4.37-2.64-7.12-2.85-2.06-.16-4.07-.96-6.13-1.26-2.84-.41-5.69-.74-8.55-.89-2.09-.11-4.26.5-6.28.13-5.1-.93-9.87.03-14.7,1.51-3.5,1.07-7.15,1.65-10.71,2.55-1.74.44-3.42,1.1-4.96,1.61-.75,8.56.4,11.01,7.2,12.83,3.71,1,6.67,2.96,9.72,4.96,5.95,3.9,12.39,5.42,19.46,4.14,1.28-.23,2.77-.66,3.87-.23,4.7,1.84,9.33.08,13.98.14,3.08.04,5.62-.95,8.15-2.37ZM95.74,32.16c-.12,4.05,1.85,7.75,4.93,10.66,4.41,4.17,9.33,7.84,15.4,9.17,4.05.89,7.16,3,10.26,5.51,3.25,2.63,6.54,5.35,10.21,7.28,4.14,2.18,8.61,3.83,13.57,1.9,3.22-1.25,6.63-1.32,10.08-.54,3.06.69,6.2,1.07,9.31,1.54,7.01,1.07,13.96,2.05,21.13.76,4.34-.78,9.01-1.1,13.32-.38,6.52,1.09,12.51-.5,18.6-1.96,4.88-1.17,8.7-3.62,9.54-9.2.23-1.51,1.13-2.91,1.66-4.22-.78-4.66-1.9-8.91-5.94-11.13-5.39,3.81-10.45,7.52-15.66,10.99-1.92,1.28-4.14,2.52-6.36,2.84-8.53,1.23-17.09,3.21-25.73.48-.97-.31-2.09-.1-3.13-.24-5.99-.8-11.97-1.61-17.95-2.48-4-.58-7.66-1.9-10.35-5.12-1.6-1.92-3.71-3.09-6.12-3.21-3.46-.18-5.86-1.97-8.14-4.27-1.67-1.67-3.44-3.26-5.31-4.71-3.23-2.5-5.25-5.61-6.6-9.52-3.33-9.7-4.97-8.07-12.54-4.54-.47.22-.92.52-1.34.83-4.17,3.09-8.34,6.19-12.86,9.55ZM202.99,18.43c4.17,6.34,4.13,6.49,9.2,7.75,3.36.84,6.41,2.07,9.38,3.9,5.81,3.6,9.48,9.05,12.83,14.62,3.29,5.47,1.2,16.05-3.39,20.41-.56.54-1.2,1.05-1.89,1.4-6.19,3.12-12.97,4.06-19.68,5.25-.5.09-1.07,0-1.56-.17-5.96-2.02-11.96-.78-17.97-.35-4.44.32-8.96.77-13.33.23-5.45-.67-10.84-1.72-16.32-2.31-3.47-.38-6.7-.68-10.05.41-5.67,1.84-11,.58-15.79-2.58-3.49-2.3-6.67-5.07-9.87-7.77-2.02-1.7-3.88-3.56-6.7-3.85-5.47-.55-9.65-3.83-14.17-6.51-7.58-4.49-10.18-11.48-10.94-19.76,3.91-3.35,10.65-2.22,12.65-8.54-6.55-.4-11.65,2.07-16.95,5.17-5.65,3.3-7.01,9.62-2.98,14.56,1.82,2.22,4,4.18,6.19,6.05,2.39,2.04,4.93,3.79,6,7.07.42,1.29,1.97,2.37,3.23,3.19,3.74,2.42,7.5,4.64,9.77,8.82,1.61,2.96,4.71,4.34,8.01,4.2,4.15-.18,7.56,1.14,11.08,3.23,7.13,4.23,14.9,6.32,23.33,5.79,2.29-.15,4.75.25,6.93.98,7.93,2.69,15.93,3.09,24.08,1.41,1.55-.32,3.09-.76,4.65-.87,4.71-.33,9.61-1.42,14.1-.54,5.39,1.06,10.4.11,15.58-.37,5.9-.54,11.05-3.24,16.33-5.52,1.58-.68,3.04-2.17,4.03-3.64,2.78-4.13,5.14-8.53,7.94-12.65,2.63-3.86,2.14-7.49-.43-10.92-2.04-2.72-4.36-5.26-6.8-7.64-3.01-2.93-5.81-5.92-8.18-9.49-2.26-3.4-5.36-6.5-9.79-7.38-5.87-1.17-11.75-2.3-18.54-3.62ZM165.36,50.26c-4.66-3.27-8.58-7.57-14.2-8.59-6.83-1.25-9.54-6.54-10.02-13.23-.25-3.51,1.13-5.34,4.69-6.11,2.81-.61,5.81-.62,8.48-1.56,8.03-2.83,16.2-4.15,24.7-3.44,1.3.11,2.62-.04,3.93-.08,3.42-.1,6.78-.08,10.04,1.35.98.43,2.31.07,4.35.07-1.09-1.61-1.47-2.82-2.23-3.16-2.36-1.05-4.81-2.18-7.32-2.51-4.12-.54-8.39,0-12.46-.75-8.57-1.56-17.18-1.07-25.77-1.08-2.28,0-4.58.94-6.83,1.61-5.26,1.57-10.51,3.2-15.73,4.89-1.42.46-2.75,1.22-4.42,1.97.7,1.79,1.24,3.22,1.83,4.63,3.86,9.19,10.28,15.58,20.15,17.98,2.73.66,4.62,2.31,6.5,4.17,4,3.95,8.89,4.93,14.3,3.84ZM79.61,30.42c-7.31,6.42-7.8,8.33-5.19,15.67.96,2.7,1.53,5.53,2.39,8.26.63,1.99,1.31,3.99,2.21,5.88,2.41,5.06,6.59,7.29,12.1,7.07,2.62-.11,5.24-.68,7.84-.62,2.56.06,5.11.66,8.46,1.14-.96-1.66-1.35-2.95-2.21-3.69-1.79-1.53-3.89-2.67-5.73-4.14-1.41-1.12-3.18-2.27-3.8-3.8-1.67-4.14-4.86-6.85-8.08-9.47-4.95-4.03-8.05-8.88-7.99-16.3ZM129.93,78.43c.22-.09.44-.17.67-.26-.15-.21-.26-.51-.47-.62-2.73-1.45-5.44-2.95-8.24-4.26-.49-.23-1.35.33-2.12.55q2.4,2.87,10.16,4.58ZM169.71,51.23c.35.33.52.59.62.56.5-.12.98-.3,1.47-.47-.62-.03-1.24-.06-2.09-.1Z"/>
      <path class="cls-1" d="M167.34,90.5c.65,1.71,1.16,3.45,1.97,5.04,1.38,2.73,3.56,3.95,6.44,3.21,2.49-.64,4.87-1.79,7.2-2.91,1.39-.67,2.6-1.71,4.15-2.77,1.41.55,2.95.92,4.24,1.7,3.91,2.36,7.97,2.74,12.03.82,3.11-1.46,5.93-1.6,8.97.09,3.25,1.8,5.96.81,8.39-1.89,3.49-3.88,7.78-6.21,13.19-5.79,1.01.08,2,.48,2.91.71.89,8.5,1.67,8.97,9.69,6.03,1.72-.63,3.42-1.34,5.28-2.08,2.93,1.4,5.87,3.11,9.02,4.22,2.86,1.01,5.95,1.37,9.63,2.16-7.58,2.27-13.84.34-19.57-2.95-3.39.78-6.41,1.78-9.51,2.13-4.58.52-5.65-.42-7.31-5.08-.26-.72-.6-1.4-.97-2.26-3.88-.06-7.29.83-9.93,3.83-.35.39-.74.75-1.09,1.14-3.15,3.48-6.79,4.74-11.29,2.66-2.46-1.14-5.11-1.43-7.65-.33-5.28,2.28-10.26,1.37-15.17-1.09-.45-.22-1.01-.21-1.84-.37-1.61.9-3.41,1.98-5.27,2.91-1.39.7-2.83,1.43-4.33,1.76-4.96,1.09-7.17.07-9.81-4.34-.65-1.08-1.08-2.29-1.46-3.1-4.41-1.87-6.19,2.7-9.31,3.21-1.24-1.99.23-2.73,1.19-3.36,3.02-1.99,5.98-4.36,10.23-3.3Z"/>
      <path class="cls-1" d="M44.99,102.87c.97-2.42,2.85-3.65,5.34-4.05.49.2,1.09.26,1.42.6,5.19,5.3,6.57,5.6,12.88,2.48,2.31-1.14,4.56-2.42,7.19-3.82.99,1.29,1.85,2.21,2.48,3.28,1.74,2.96,4.42,3.72,7.45,2.92,2.25-.59,4.36-1.75,6.51-2.68,1.63-.71,3.24-1.47,5.28-2.41,1.34,1.94,2.48,3.61,3.63,5.28,2.26,3.26,6.12,4.3,9.58,2.23,2.01-1.2,3.82-2.8,5.51-4.43,2.35-2.27,5.02-3.64,8.76-3.91.6,1.63,1.2,3.28,1.9,5.2,4.95,2.17,9.53.02,14.41-1.97,3.02,3.88,6.94,2.39,10.45,1.38q2.86,2.11,4.23,5.16c-1.34-.39-2.24-.63-3.13-.93-1.2-.4-2.68-1.5-3.53-1.14-3.61,1.56-6.61.2-9.41-1.55-1.78.66-3.24,1.24-4.72,1.76-6.97,2.41-8.48,1.89-13.43-4.91-1.67,1.08-3.39,2.13-5.05,3.28-2.37,1.64-4.54,3.61-7.05,4.98-3.71,2.01-6.44,1.41-9.15-1.66-1.37-1.56-2.52-3.31-3.99-5.26-1.5.48-2.99.81-4.36,1.41-1.68.73-3.23,1.75-4.89,2.53-3.78,1.78-7.16,1.06-10.1-1.83-.92-.91-1.71-1.96-2.79-3.21-1.64.77-3.3,1.47-4.88,2.3-8.27,4.32-9.07,4.25-16.11-1.62-1.46.16-3,.32-4.54.48l.1.12Z"/>
      <path class="cls-1" d="M35.62,41.32c-2.9.53-5.19,1.15-7.51,1.32-3.94.28-7.28-.79-8.84-4.96-.25-.68-.85-1.23-1.44-2.05-3.02.96-5.95,1.98-8.93,2.83-2.9.83-5.68,2.35-8.9,1.86,5.55-5.21,13.17-5.2,19.85-8.66.63,1.07,1.2,1.83,1.58,2.68,2.11,4.71,2.94,5.53,7.52,4.96,3.26-.4,6.42-1.64,9.83-2.56.27.67.65,1.32.79,2.01,1.19,5.79,1.24,5.89,7.14,5.41,3.34-.27,6.67-.76,10.08-.72-4.64,3.16-9.82,4.29-15.28,4.06-1.14-.05-2.46-.99-3.29-1.89-1.03-1.11-1.63-2.62-2.61-4.28Z"/>
      <path class="cls-1" d="M33.92,85.48c.78-1,1.38-2.28,2.38-2.96,3.9-2.65,7.9-5.15,11.92-7.6,1.33-.81,2.81-1.4,4.29-1.91.7-.24,1.55-.04,2.38-.04.36.27.9.49,1.16.9,3.7,5.74,3.92,5.85,10,4.29.51-.13.99-.37,1.49-.5q7.08-1.82,11.76,4.48c1.85,0,4.09.52,5.95-.11,3.99-1.33,7.67-.58,11.75.74-.99,1.9-2.66,2.43-4.36,1.99-2.36-.61-4.51-.64-6.93-.07-7.39,1.74-7.45,1.61-12.36-4.85-2.71-.87-5.24.28-7.58,1.24-5.02,2.06-8.65.79-11.43-3.68-.27-.43-.7-.76-1.23-1.31-4.42-.06-7.47,3.14-10.96,5.28-2.66,1.63-4.95,3.92-8.33,4.04l.07.09Z"/>
      <path class="cls-1" d="M248.38,30.48c-2.65-.98-4.23,3.19-7.71,1.2,2.16-1.52,3.91-2.96,5.85-4.05,2.73-1.54,4.04-.93,6.06,2.31.41.65.89,1.25,1.39,1.84.16.19.44.27,1.12.65,3.63-.86,7.64-1.8,11.63-2.74,2.84,1.55,4.77,4.58,8.36,4.11,2.97-.39,5.94-.71,9.83-1.18-6.48,4.82-12.04,5.6-17.03,2.28-2.22-1.48-4.17-1.9-6.55-1.17-.75.23-1.48.52-2.24.71-6.6,1.72-6.81,1.64-10.71-3.97Z"/>
      <path class="cls-1" d="M107.75,4.61c1.17-.91,2.33-1.82,3.93-3.07,1.01,1.32,1.82,2.26,2.49,3.29.98,1.52,2.48,1.86,4.09,1.85,2.96-.01,5.68-.85,8.13-2.54,1.94-1.33,3.91-2.6,6.26-4.15,5.18,4.4,11.4,4.41,18.37,3.54-2.73,4.01-6.31,3.21-9.48,3.45-3.55.27-6.6-1.25-9.46-3.51-2.23,1.31-4.19,2.58-6.25,3.65-1.84.96-3.73,1.95-5.71,2.5-2.92.8-5.76.52-7.84-2.13-1.01-1.29-2.19-2.23-3.93-2.22-.2-.22-.41-.44-.61-.67Z"/>
      <path class="cls-1" d="M108.36,5.28c-.51.58-.92,1.29-1.54,1.71-5.62,3.76-7.4,3.72-13.76-.49-2.77,1.46-5.81,3.06-9.63,5.07,2.56-5.54,7.12-6.61,10.86-8.53.8.33,1.49.39,1.7.75,2.02,3.39,4.99,3.26,8.17,2.27,1.23-.38,2.4-.95,3.6-1.44.2.22.41.44.61.67Z"/>
      <path class="cls-1" d="M44.89,102.75c-2.9,4.12-7.11,6.51-11.33,8.83-1.23-1.11-.82-1.84.16-2.54,2.32-1.66,4.53-3.51,6.97-4.98,1.23-.74,2.85-.82,4.3-1.2,0,0-.1-.12-.1-.12Z"/>
      <path class="cls-1" d="M33.85,85.4c-1.13,2.94-3.49,3.1-7.11,3.2,2.42-2.87,4.58-3.5,7.18-3.11l-.07-.09Z"/>
      <path class="cls-1" d="M207.01,45.57c.19-.49.38-.98.58-1.46,1.62-4.02,1.32-6.15-1.88-7.98-5.25-3-10.72-5.49-16.96-5.79-3.12-.15-6.37-.39-9.29-1.39-5.73-1.96-11.27-1.9-16.9.08-.3.4-.8.76-.88,1.2-1.33,6.77,1.25,9.97,7.96,9.83,1.3-.03,2.62-.65,3.88-.52,1.76.18,3.85.35,5.13,1.36,3.48,2.73,7.42,2.18,11.28,2.19,1.95,0,3.49-1.55,3.13-2.71-.46-1.49-1.7-1.87-3.06-1.96-4.43-.28-8.88-.42-13.3-.84-1.03-.1-1.98-1.06-4.31-2.39,9.15-1.48,16.42.71,23.58,1.17,1.38,2.98,1.02,5.5-.8,7.04-1.68,1.43-4.1,2.4-6.31,2.7-5.11.69-9.89-.59-13.54-3.72-2.85.26-5.2.76-7.51.64-6.48-.33-9.85-4.5-9.06-11.02.22-1.79.76-3.53,1.11-5.12,10.65-2.95,11.39-2.95,20.17-1.02,2.04.45,4.13.88,6.21.94,5.89.18,11.28,1.98,16.64,4.29,4.33,1.87,7.58,4.52,9.22,8.94-.43,2.86-1.7,5.02-4.25,6.31-.28-.25-.55-.5-.83-.75Z"/>
    </g>
  </g>
</svg>