<?xml version="1.0" encoding="UTF-8"?>
<svg id="Layer_2" data-name="Layer 2" xmlns="http://www.w3.org/2000/svg" viewBox="0 0 374.26 298.1">
  <defs>
    <style>
      .cls-1 {
        fill: #3d2011;
      }
    </style>
  </defs>
  <g id="_Ñëîé_1" data-name="Ñëîé 1">
    <g>
      <path class="cls-1" d="M246.21,285.8c-.82-1.37-1.64-2.73-2.47-4.1,3.27-.21,5.81-1.45,6.96-4.78.49-1.42-.81-3.16-2.32-2.98-3.93.47-4.84,2.13-4.42,7.97-2.48-5.88-2.21-7.43,1.75-10.01,3.16-2.06,5.78-1,6.8,2.87.38,1.46.43,3,.59,4.27,3.46,3.03,6.58.63,9.74-.05l.04-.09q-3.1,3.81-9.7,6.85c.65,2.2,2.55,2.92,4.28,2.38,6.21-1.92,12.35-4.49,16.98-9.04,7.38-7.25,8.58-20.84-2.25-28.07-4.05-2.7-8.35-5.33-13.7-4.59-1.19.17-2.72.31-3.63-.26-5.41-3.36-10-.95-14.65,1.68-.49.28-1.18.2-2.39.39-1.07-.86-2.5-1.92-3.84-3.1-3.65-3.21-6.82-3.83-10.56-.88-2.43,1.92-4.62,2.79-7.53,2.11l.12.15c-.8-1.65-2.04-3.23-2.3-4.96-.4-2.68-1.2-4.91-3.95-5.57-3.3-.8-6.76-1.23-9.71,1.08-1.9,1.49-3.59,3.26-5.66,5.18-3.3-4.77-7.98-4.03-12.67-3.71-2.27,1.86-4.62,3.78-6.96,5.7,0,0,.2.18.2.18.71-1.68,1.43-3.36,2.12-5.04,1.54-3.75-.5-8.69-4.28-9.51-1.62-.35-4.6-.07-5.05.85-1.19,2.47-3.05,2.55-5.15,2.98-3.61.74-6.26,3.22-7.15,6.51-1.49,5.51-4.26,10.92-2.7,16.97.3,1.17.21,2.44.29,3.67-.01,0,.12-.13.12-.13-2.45-.57-2.02-2.68-2.35-4.38-.68-3.5,1.66-7.93-1.82-10.4-2.58-1.83-6.19-2.3-9.4-3.16-4.14-1.1-8.31-2.13-12.52-2.91-2.08-.39-4.37-.58-6.39-.11-3.73.88-7.15,1.05-10.62-.99-.84-.5-2.36.14-3.56.26l.19.19c.17-1.18.33-2.37.51-3.63-1.99-1.55-3.85-3.18-5.88-4.55-5.1-3.45-10.19-6.84-16.54-7.84-2.99-.47-5.82-2-9.17-3.22-2.57-7.73-9.14-11.7-16.03-15.35-2.45-1.3-4.79-2.8-7.19-4.2-9.93-5.78-20.77-9.37-31.62-12.91-4.98-1.63-9.98-3.23-14.88-5.07-1.96-.73-3.69-2.07-5.9-3.34,2.14-3.34,5.3-4.75,8.16-6.15,5.36-2.62,9.82-6.17,14.15-10.23,18.23-17.09,36.76-33.87,55.09-50.86,16.04-14.87,32.01-29.81,47.86-44.88,2.15-2.05,3.51-4.97,5.06-7.59,1.56-2.64,2.36-6.03,4.5-7.97,2.34-2.12,2.3-4.66,3.03-7.05.71-.2,1.34-.61,1.87-.5,6.97,1.41,12.43-.9,17.39-5.92,6.28-6.36,13.09-12.2,19.04-17.68.8-6.72,1.4-12.53,2.29-18.29.13-.82,1.68-2,2.54-1.98.92.03,2.36,1.12,2.62,2.03.95,3.25,1.59,6.6,2.16,9.94.47,2.72.67,5.48,1,8.3,4.27,2.66,8.54,3.06,13.36,2.44,7-.91,14.11-1.76,21.15.27,1.45.42,3.09.49,4.6.31,7.62-.91,15.32-1.53,22.88-4.41.68-3.58,1.35-7.06,2.02-10.57,3.12-.24,4.46,1.35,5.72,3.17.19,4.25.38,8.55.52,11.68,6.04,6.36,11.45,11.85,16.61,17.57,2.01,2.23,4.25,3.39,7.16,3.68,4.61.47,9.21,1.01,13.79,1.68.74.11,1.97,1.09,1.92,1.57-.1,1.02-.64,2.41-1.44,2.86-2.62,1.49-5.44,2.63-8.16,3.89,3.24,7.97,6.72,11.74,23.21,25.41.59-.33,1.29-.71,1.97-1.12.75-.46,1.48-.96,2.2-1.43,3.56,1.56,4,4.65,4.21,7.74.46,6.77.76,13.55,1.22,20.31.14,2.1.57,4.17.9,6.5,7.68-.7,13.71-3.46,18.83-9.01,6.04-6.54,11.73-13.53,19.59-18.23,1.7-1.02,2.55-3.41,3.92-5.06,1.32-1.59,2.81-3.03,4.33-4.65,4.06,2.01,6.39,5.07,6.69,8.78.67,8.35.69,16.76-7.93,21.86,1.99-5.48,3.35-11.11,3.79-16.93.18-2.43-.14-4.72-2.88-6.24-4.75,7.59-13.71,10.7-17.73,18.47,3.29,6.2,3.77,6.51,8.96,5.76,2.7-.39,5.39-.85,8.09-1.28.5,2.41-.09,4.28-2.63,5.11-1.42.47-2.87.86-4.13,1.23-.92,3.41-2.08,6.31-2.45,9.31-.92,7.56-5.44,11.31-12.47,12.78-1.19.25-2.34.72-3.6,1.12-2.92,3.53-2.26,8.98-6.66,11.81-3.6,2.31-6.77,5.29-10.5,8.27-1.81,5.09.04,10.38.53,16.13,9.24,1.5,18.33-.05,27.22,2.73,1.12,2.82,2.31,5.6,3.34,8.44,1.07,2.96,1.17,5.9.38,9.06-.96,3.86-1.44,7.85-1.91,11.81-.64,5.44-2.3,10.16-7.39,13.12-2.91,1.7-5.66,3.67-8.44,5.59-5.49,3.79-11.37,7.14-15.4,14.54-.61-3.21-.94-4.9-1.35-7.07-2.63-.68-5.12-.15-7.63,1.48.48.82.76,1.83,1.42,2.33,5.8,4.4,5.94,10.42,4.84,16.74-1.06,6.07-5.2,9.37-10.51,11.91-6.72,3.22-13.37,4.42-20.47,1.5-1.4-.58-2.96-.76-4.45-1.15.11-1.65.23-3.28.34-4.91,1.39.59,2.82,1.11,4.18,1.78,7.52,3.67,14.8,3.21,21.87-1.19,4.79-2.98,5.61-7.79,5.89-12.84.25-4.5-1.78-7.62-5.75-9.66-1.02-.53-1.82-1.49-2.47-2.04-.27-4.41,1.67-8.34.05-12.16-5.56-3.96-10.36-1.25-14.5,1.92-6.08,4.66-12.34,6.46-19.67,3.84-.24-.09-.59.13-1.45.34-1.25,5.55-3.92,11.12-2.26,17.54,2.03,1.36,4.08,2.67,6.07,4.08,2.22,1.58,4.39,3.24,6.48,4.79,5.7-1.72,6.24-5.9,6.07-10.37-.11-2.78-2.39-4.62-5.07-3.97-2.63.64-5.14,1.73-7.7,2.62-1.15-1.49-1.23-3.02.34-3.98,1.26-.78,2.83-1.15,4.31-1.45,8.39-1.71,13.17,3.45,10.95,11.64-1.12,4.13-4.12,6.7-7.17,9.28-.19,1.55-.38,3.1-.58,4.64,1.01,5.78-1.32,10.82-3.73,15.77-.78,1.6-1.95,3.21-3.35,4.28-5.38,4.13-11.56,6.81-17.96,8.9-2.72.89-5.49.26-7.87-1.41-1.72-1.21-3.34-2.56-5.02-3.86-.02-.01.19.13.19.13ZM284.52,179.52c.45.47.91.93,1.36,1.4.17-.21.34-.42.51-.63-.68-.19-1.36-.39-2.03-.58.3-.49.83-.97.83-1.46,0-.57-.46-1.14-.73-1.72-.38.34-1.14.81-1.08,1.01.22.71.73,1.33,1.14,1.97ZM237.94,142.31c2.34-.48,1.66-2.96,2.8-4.21,1.12-1.23,2.36-2.34,4.32-4.27-2.59-.22-3.99-.34-5.78-.49-.64,3.32-2.16,6-1.13,9.13-.41.35-.82.7-1.23,1.05.35.16.71.32,1.06.48-.01-.56-.02-1.12-.04-1.68ZM223.23,238.89c3.65.41,7.41.41,10.92,1.35,3.68.99,7.26,1.33,10.96.8,3.08-.44,5.99-.49,9,.94,3.46,1.65,7.2.93,11.36.02-.19-2.18-.37-4.1-.54-6.04-12.91.5-25.2.93-37.48,1.52-1.38.07-2.72,1.04-4.08,1.59-2.15-.11-4.66-1.46-5.85,1.68-.07.2.14.69.34.77,2.78,1.17,4.15-.58,5.35-2.64ZM166.76,132.25c1.74-2.13,3.49-4.25,5.28-6.43-.85-.45-1.36-.93-1.87-.94-.53,0-1.15.35-1.59.71-2.14,1.76-1.38,4.36-1.84,6.61-.8.04-2.13.38-2.31.06-.74-1.3-1.27-2.76-1.59-4.23-.29-1.3,1.13-3-.88-3.9q-2.41.66-6.79,10.91h-4.33c.93-4.02,5-7.28,2.83-12.51-1.33.06-2.77.06-4.19.23-.74.09-1.16,1.34-2.27.3-3.2-3.02-7.43-2.5-11.35-3.05-4.47-.62-7.6,1.18-10.32,4.66-7.94,10.14-11.47,21.84-11.45,34.43,0,6.04,1.22,12.33,3.16,18.07,3.45,10.23,11.36,16.6,21.07,20.77,2.15.92,4.31,2.71,6.96,1.3,1.57.75,3.43.73,4.33,2.9,1.13,2.76,3.95,4.1,6.62,4.51,6.27.95,12.45,3.36,18.99,1.71-1.69-3.33-5.23-5.53-6.42-9.57,6.68-.05,7.8,8.08,13.82,8.46.2-1.8.36-3.12.52-4.57,3.42,1.49,3.81,6.91,8.64,5.9q-1.06-5.52-.07-9.18c3.95,1.19.7,6.44,3.9,7.46,2.88.92,3.68,4.97,7.57,4.21,2.78-.54,5.96,1.24,8.76-1.24-3.82-12.37-6.34-24.69-5.69-37.47.25-4.9.38-9.8.8-14.69.13-1.46.84-2.98,1.64-4.26,3.74-6,7.62-11.91,11.4-17.88.73-1.15,1.27-2.42,2.16-4.14-5.3-.99-9.78-2.2-14.34-2.55-2.81-.21-6.35-.96-8.13,2.66l.26-.06c-.39-1.44-.6-3.3-2.4-3.4-1.68-.1-3.62.12-5.05.91-1.73.97-3.05,2.68-4.55,4.09.28-1.97.56-3.93.93-6.49-4.73-.24-8.92-.46-13.03-.67-1.01,2.24-1.75,3.86-2.79,6.15,3,.67,5.46,1.21,9.52,2.11-3.93,1.77-3.06,7.37-8.81,6-.28,1.47-.58,2.92-.84,4.38-.25,1.38-.46,2.77-.67,4.04,3.03,1.61,5.31.9,7.42-.5,1.65-1.1,2.22-2.79,2.15-4.78-.16-4.86,3.18-7.65,6.36-10.51-.57,1.74-1.14,3.47-1.84,5.58.93,2.21,1.93,4.78,3.07,7.28,1.66,3.65.38,6.63-2.13,9.21-.8.82-2.2,1.02-3.21,1.69-1.47.97-1.89,2.24-.77,3.54,2.9.4,5.73.36,8.22,1.26,2.35.85,5.26,1.84,5.32,5.88-3.79-.12-6.43,1.19-7.72,5.01-.63,1.85-2.67,3.22-3.8,4.48-2.34.41-4.49-1.74-6.41.91,1.01,1.07,1.81,1.95,2.66,2.79,5.13,5.06,5.72,11.04,1.49,17.24-.5.73-1.86.88-3.02,1.39-.73-3.5-1.32-6.34-1.95-9.37-2.78.16-5.02.74-7.01.27-2.01-.48-3.78-2.02-6.5-3.58.87,4.36,1.15,7.58-.66,10.79-.65,1.16.46,3.31.79,5.17-1.61,0-3.34-.18-5.01.05-1.68.24-3.31.88-5.01,1.37-1.96-3.36-3.67-6.23-5.28-9.16-.22-.4.15-1.12.29-1.96,2.12,1.03,4.17,2.02,6.32,3.07.64-1.42,1-2.24,1.46-3.27-1.32-1.65-2.53-3.39-3.98-4.91-1.4-1.47-.36-4.61-3.35-4.92-.56.32-1.34.49-1.54.93-2,4.34-5.52,4.47-9.26,3.14-1.96-.7-3.63-2.2-5.43-3.34.17-1.49.34-2.99.5-4.37,2.86-.92,5.7-1.31,7.93-2.68,2.46-1.52,2.73-4.49,2.85-7.47-6.96-.4-11.65-3.29-13.5-11.04,3.66.4,6.62.99,9.57.95,1.58-.02,3.15-1.09,4.86-1.74-.69-1.07-.92-1.7-1.36-2.09-3.81-3.29-4.56-7.07-2.14-11.54.73-1.34,1.08-2.88,1.68-4.3,1.22-2.91,3.54-4.12,6.58-4.15-.5,4.12-1.01,8.23-1.51,12.31,4.14,2.22,7.9,2.35,12.07,2.19.21-3.29.38-5.97.56-8.82,2.66-1.66,5.19-3.24,7.78-4.86-.03-2.24-.7-3.65-3.17-3.44ZM277.38,123.62c2.12-3.38-.51-6.98,1.11-10.27-7.11-1.79-13.65-2.9-21.51-1.42,1.56,3.25.29,6.15-.37,9.17-.22,1.01.3,2.94,1.01,3.26,3.02,1.35,6.19,2.93,9.4,3.15,3.85.26,8.09-.03,10.55-4.09l-.19.19ZM145.15,79.16c1.29,2.06,2.56,4.13,3.89,6.16.25.38.77.57,1.16.85.68-.86,1.32-1.66,2.42-3.04,1.24,2.63,2.11,4.48,3.11,6.58.75-1.55,1.36-2.81,2-4.14,1.01.35,1.87.65,2.72.96-1.05,2.24-.37,4.15,1.17,5.84,1.12,1.23,1.17,1.19,7.64-.52-1.68-4.19-6.06-3.5-9-5.17-.72-1.99-1.36-4.02-2.19-5.96-2.12-5-1.05-9.97,1.93-13.78,3.46-4.42,7.16-8.65,10.33-13.31.12-.18.57-.13.88-.19.16,1.45.31,2.9.52,4.87,1.69,0,3.19.23,4.58-.06,1.84-.38,2.85-2.32,2.44-4.19-.43-1.97-2.05-2.14-3.54-1.88-1.45.26-2.83.98-4.23,1.51-.82-.78-1.64-1.57-2.19-2.09-3.93.56-4.69,6.87-9.64,4.04-.45-.26-2.2,1.02-2.82,1.94-4.55,6.78-9.07,13.59-11,21.71-2.92,6.15-2.81,7.36,1.78,11.07-.73-4.22-1.34-7.71-1.95-11.2ZM144.67,178.91c3.88-.21,7.76-.43,11.65-.64q.18,7.26,5.25,13.49c.24-4.63-1.09-9.76,4.77-11.7,1.76,2.27,3.41,4.39,5.01,6.45,2.2-.12,4.04-.07,5.84-.36,1.58-.26,3.36,2.18,5.04-.8-2.22-1.88-4.51-3.8-6.8-5.73-.39-2.05-.78-4.05-1.24-6.45-1.6,1.17-2.85,2.03-4.05,2.95-3.09,2.36-6.34,2.21-9.49.36-3.09-1.81-4.55-5.75-3.37-9.69,1.01-3.4,2.61-6.63,4.03-10.15-.69-.86-1.26-2.15-2.24-2.67-1.58-.85-3.42-1.26-5.18-1.75-1.47-.41-2.97-.77-4.48-.96-1.5-.19-1.86-3.33-4.39-1.61,1.72,3.26,4.18,4.47,7.59,4.39.99-.03,2,.84,3.93,1.71-5.43,3.9-10.8,5.79-16.76,8.65,3.25,0,5.38-.12,7.49.03,2.32.16,4.12,1.15,4.35,3.79-2.27,3.65-4.52,7.27-6.74,10.92-1.17,1.58-4.06,1.33-4.5,3.95q3.99.29,4.29-4.16ZM273.24,53.25l.19.16c-.09-.6-.08-1.25-.3-1.8-.41-1.04-.77-2.65-1.5-2.88-.84-.26-2.69.44-3.03,1.2-1.7,3.74-5.13,7.07-3.06,11.9.38.87-.23,2.38-.77,3.38-.87,1.59-2.07,3-3.47,4.96.94,2.41,2.34,4.87,2.78,7.49.49,2.89.11,5.94.11,8.84,1.06.16,1.69.13,2.2.36.79.35,1.58.77,2.22,1.34q4.97,4.38,9.61,5.23c.05-.29.19-.6.13-.86-.29-1.19-.54-2.4-.98-3.54-3.02-7.95-3.15-16.12-2.06-24.44.54-4.12,2.02-7.68,4.8-10.73.91-1.01,1.76-2.08,2.88-3.41-4.59-1.78-6.4,2.89-9.75,2.79ZM191.87,59.08l-.39-.33c-.15-1.13-.3-2.27-.58-4.37-1.92,2.86-3.35,4.99-5.05,7.53-1.99-2.99,1.92-5.83-1.06-8.13-6.03,1.76-3.31,6.96-4.19,10.69-7.3,6.26-8.41,9.07-6.78,17.18,2.72,1.22,5.43,2.44,7.76,3.49,1.18,3.82.31,7.61,3.88,10.37.43-2.84.82-5.41,1.51-9.91.67,3.82.88,5.8,1.42,7.69.27.92,1.17,1.66,2.2,3.04.86-2.46,1.42-4.07,2.28-6.57,1.03,3.81,1.87,6.72,2.6,9.66.34,1.36.8,2.26,2.96,1.23-3.63-7.02-3.63-14.64-3.04-22.29.24-3.07.81-6.11,1.24-9.17.34-2.36-1.21-7.73-2.99-9.75-.32-.37-1.17-.27-1.78-.38ZM236.13,49.51l.17.15c-.03-.61,0-1.24-.09-1.84-.49-3.1-2.31-4.32-4.82-3.34-2.74,1.06-4.6,3.09-5.91,5.58-3.65,6.95-5.62,14.37-4.74,22.23.83,7.5,4,13.91,9.97,18.89,3.11-1.72,5.75-3.18,7.58-4.19.91-4.4,1.64-7.92,2.25-10.87-2.06-5.86-9.64-6.43-10.52-13.22,4.32-.39,8.22-.74,12.37-1.11,2.32-3.32,4.72-6.5,6.83-9.87,1.52-2.44,3.77-.2,5.43-1.17.51-1.37,1.94-2.52.87-4.32-3.23-.72-6.6-2.03-8,2.91-.26.92-1.45,1.83-2.43,2.25-1.9.81-3.95,1.26-5.87,1.85-1.21-1.53-2.15-2.72-3.09-3.91ZM74.77,166.63c2.98-.07,5.95-.14,9.2-.21.54-1.99.97-3.58,1.43-5.28-1.45-.09-2.34-.15-3.23-.21l.14.18c-1.42-1.61-2.76-3.3-4.28-4.82-1.87-1.86-.91-3.24.53-4.64,1.07,1.16,2.15,2.32,3.22,3.48.53-1.31.42-2.41-.1-2.66-.96-.47-2.17-.45-3.27-.63v-5.44c3.03,1.31,5.12,4.36,9.01,3,.29-1.28.61-2.68.9-3.98-2.5-1.91-4.63-3.54-6.72-5.14,1.66-2.61,1.64-6.35,5.83-5.7.11.02.3-.48.46-.75-.66-1.27-1.31-2.55-1.93-3.75,1.38-1,2.3-1.68,3.02-2.2.33-3.15-3.5-4.78-2.2-7.81,2.39-1.1,2.98,3.8,6.05.99-.5-1.97-1.08-4.24-1.61-6.3.95-1.96,4.21-1.49,3.67-4.72-.26-1.56,1.21-3.34,1.58-5.09.28-1.35.06-2.8.06-5.51-4.53,4.53-8.03,8.31-11.83,11.77-9.8,8.93-19.8,17.66-29.59,26.61-2.88,2.63-5.91,5.35-5.79,9.46-2.08,1.82-5.64-.08-6.45,4,4.79,7.98,10.45,15.68,20.06,19.01,5.2,1.81,10.71,2.79,16.13,3.89,2.74.56,3.14-.18,3.27-4.6-2.47-1.04-4.93-2.07-7.39-3.1l-.15.16ZM287.72,155.17c4.01-4.11,7.35-8.12,11.29-11.41,5.37-4.49,7.81-9.92,8.2-16.85.67-12,1.88-23.96,2.79-35.95.09-1.17.05-2.78-.64-3.52-2.49-2.65-3.54-6.47-7.31-8.15-2.15-.96-4-2.83-5.68-4.58-3.84-4.01-7.44-8.26-11.27-12.28-.88-.92-2.29-1.34-3.54-2.03-5.73,18.35,2.13,33.05,10.36,47.79,1.83,1.17,5.07.51,5.58,3.65-1.2,2.61-2.35,5.12-3.52,7.63-1.24,2.67-3.26,4.9-6.13,5.14-5.51.47-8.57,4.28-12.47,7.82.42,2.03.35,4.39,1.38,6.08,3.33,5.52,7.07,10.8,10.97,16.65ZM127,72.63c-2.46,1.75-4.35,2.83-5.92,4.27-3.87,3.53-7.78,7.05-11.33,10.88-6.38,6.87-6.28,6.97-8.33,15.85-1.11,4.8-2.23,9.6-3.34,14.4-1.87,8.08-4.11,16.09-5.47,24.25-1.17,6.99-1.99,14.02-3.93,20.88-.58,2.05-.84,4.29-.73,6.41.11,2.18-2.24,4.22-.59,6.99,1.08-1,1.91-1.49,2.34-2.21,5.87-9.77,10.06-20.4,16.06-30.15,5.31-8.63,9.12-18.17,13.71-27.25,3.61-7.15,7.37-14.22,11.12-21.3,1.04-1.96,1.82-3.88,1.16-6.16-1.52-5.26-2.98-10.54-4.75-16.84ZM226.1,103.14c1.57-6.84-1.89-11.18-4.77-15.4-4.39-6.42-6.1-13.28-5.4-20.89,1.02-11.18,4.66-20.84,14.91-27.02,5.21-3.14,9.25-8.05,11.98-13.45-.93-.09-1.85-.38-2.67-.21-6.96,1.47-13.86,1.82-21.03,1.16-7.31-.67-14.76.17-22.14.36-.3,0-.67.06-.87.25-.2.18-.22.54-.52,1.38,5.89,8.8,10.54,18.92,20.55,25.5-1.03,1.48-1.66,2.93-2.75,3.78-1.17.9-2.76,1.29-4.21,1.8-5.96,2.11-8.84,6.22-8.68,12.63.09,3.37-.38,6.76-.49,10.14-.06,2.14-.27,4.36.21,6.4,1.84,7.78,4.78,15.11,9.47,21.98,1.67-3,3.13-5.61,4.69-8.4h11.74ZM258.29,218.4c.9-4.99,1.6-8.82,2.39-13.18-2.34-.38-4.3-.7-5.98-.97-.54.8-.81,1.02-.84,1.28-.12.91-.16,1.82-.23,2.74-.61,8.03-.93,8.12-8.69,10.76-14.53,4.93-29.68,5.69-44.71,6.06-8.09.2-16.66.87-24.58-2.57-.8-.35-1.85-.35-2.74-.22-5.17.72-10.29,1.87-15.59.95-1.64-.29-3.1,2.1-2.8,4.02.29,1.87,1.69,2.74,3.27,2.44,2.68-.51,5.3-1.43,7.91-2.29,8.6-2.81,10.35-2.19,15.1,5.42.31.5.71.96.95,1.27,4.05.73,7.93,1.57,11.86,2.08,1.49.19,3.05-.43,2.31-2.61-3.64-1.92-7.75,1.83-11.59-.84,5.05-2.73,5.06-2.69,10.46-3.05,19.99-1.32,39.98-2.66,59.97-4.01,5.52-.38,11.05-.4,16.4-2.43,1.79-.68,4.29-.21,6.25.39,5.41,1.67,9.52-.17,13.92-4.6-1.85-.16-2.89-.22-3.92-.33-3.57-.38-5.19-1.89-4.85-5.12.18-1.74.96-3.5,1.82-5.06.84-1.52,2.13-2.8,3.14-4.08-.64-.91-.9-1.7-1.36-1.84-1.43-.44-3.03-1.09-4.39-.82-4.92.98-10.22.3-16.42,3.38,3.47.27,5.29.32,7.09.58,1.7.24,3.38.7,5.66,1.19-1.58,4.16-.04,8.52-3.47,11.49h-16.34ZM80.59,180.47c-2.74-.73-5.05-1.65-7.43-1.92-4.97-.56-9.83-1.14-13.61-4.94-.62-.62-1.56-1.06-2.43-1.27-5.14-1.28-8.4-4.98-11.53-8.85-2.3-2.85-4.52-5.77-7.02-8.98-8.29,7.11-16.21,13.91-24.12,20.73-.2.17-.28.54-.3.82-.03.29.08.58.18,1.15,12.08,1.99,24.25,3.99,36.41,6.01,7.91,1.32,15.79,2.83,23.73,3.97,4.8.69,4.95.33,6.11-6.71ZM231.56,124.88c-3.65.61-7.06,1.19-10.73,1.81,2.74.85,6,.18,7.35,4.12-.79,1.49-1.66,3.43-2.79,5.2-3.33,5.18-7.15,10.08-10.06,15.48-3.68,6.84-5.87,14.2-4.87,22.19.34,2.75.03,5.58.47,8.31.8,4.95.78,10.16,3.83,15.27,3.95-10.18,8.04-19.47,10.28-29.44.74-3.3,2.09-6.46,2.95-9.74,2.03-7.75,4.01-15.51,5.86-23.3.79-3.33,1.31-6.77-2.29-9.89ZM111.9,141.84c-6.95,8.91-10.14,17.19-13.95,25.13-1.18,2.46-2.46,4.88-3.9,7.2-2.86,4.61-5.81,9.16-8.09,14.1,6.85,3.3,23.47,4.48,32.3,2.27-8.47-14.61-10.7-30.19-6.36-48.7ZM131.69,115.86c9.07.94,16.09,1.46,23.05,2.45,6.89.98,13.67,2.81,21.22,2.24.14-7.03,1.86-13.67-1.74-20.62-5.47-.08-10.98-.1-16.49-.26-4.19-.12-7.66,1.55-11.28,3.47-5.32,2.83-8.8,7.48-14.76,12.72ZM168.19,219.54c-.62-5.24-3.92-6.8-8.46-6.52-2.13.13-4.26.57-6.36,1-6.41,1.31-12.87,1.23-19.33.66-6.43-.57-12.86-1.13-19.26-1.94-2.36-.3-5.4-.61-6.77-2.14-1.94-2.16-3.81-2.59-6.36-2.64-4.62-.09-9.25-.28-13.84-.73-4.31-.42-8.47-.08-12.66,1.24-.18,4.26,2.17,6.39,5.88,6.96,6.68,1.02,13.39,1.85,20.12,2.55,4.53.47,9.08,1.48,13.57-.94,1.41-.76,3.64-.28,5.43.03,3.03.52,6.07,1.14,8.98,2.11,5.07,1.69,10.26,2.19,15.5,1.66,7.04-.71,14.05-1.37,21.13-.62.79.08,1.64-.45,2.46-.69ZM281.25,188.12c-1.25-2.68-2.52-5.09-3.52-7.6-3.85-9.72-7.64-19.45-11.39-29.21-1.02-2.66-1.89-5.32-5.45-5.83.34,7.74.73,15.44,1,23.14.26,7.57-.46,15.23,1.77,23.32,5.86-1.92,11.91-.3,17.6-3.83ZM247.25,211.96c-.15-.67-.31-1.34-.46-2.02-4.19-.6-8.44-1.97-12.54-1.61-5.11.45-10.1,2.33-15.31,3.63-.64,1.17-1.36,2.48-2.11,3.85-4.18,1.47-8.51,1.14-12.76.64-5.18-.61-10.29-1.8-15.47-2.45-5.06-.63-10.26-1.69-15.38,1.93,1.25.95,2.09,2.1,3.13,2.3,3.89.77,7.86,1.81,11.77,1.71,12.27-.32,24.55-.8,36.77-1.85,6.38-.55,12.66-2.33,18.94-3.77,1.26-.29,2.29-1.55,3.43-2.37ZM330.37,129.23c2.8.21,5.3.8,7.67.47,3.3-.46,6.68-1.21,9.71-2.56,3.7-1.65,6.37-9.59,4.47-12.94-1.94-3.41-4.42-6.5-6.66-9.73-7.99,5.7-19.67,17.3-19.85,20.45,1.3,1.2,3.06,2.82,4.67,4.3ZM310.73,216.12c6.11.32,11.02.56,15.92.83,1.28.07,2.4.39,2.03,2.59-1.94.18-4.02.39-6.11.58-2.44.22-4.95.16-7.31.72-2.13.5-2.85,2.1-1.34,4.4,6.52,1.31,12.47.25,17.73-4.46,2.62-2.34,5.69-4.17,8.76-6.38-4.2-2.67-4.24-2.67-4.26-4.73-.07-5.65-.21-9.37,7.88-9.49.92-.01,1.88,0,2.76-.23,1.45-.39,1.9-1.3.68-2.95-6.19.43-12.57.87-19.97,1.39,2.64,1.76,4.49,2.99,6.47,4.32-.66,3.3-1.24,6.24-1.87,9.41-2.21.77-4.19,1.55-6.23,2.14-.86.25-1.83.2-2.75.14-3.16-.2-5.14-1.96-5.45-5.14-.29-2.95-.28-5.93-.43-9.42-1.64.41-2.69.68-3.77.95,1.88,5.43.66,10.05-2.74,15.33ZM29.15,183.84c1.92,3.03,4.4,3.97,7.09,4.66,2.95.75,6.04,1.5,8.64,3,6.85,3.95,14.17,5.79,21.98,6.04,3.68.12,3.68.15,8.73,4.28-3.2-.46-5.54-.9-7.9-1.1-1.41-.12-2.24.63-1.69,2.74,3.68.28,7.54.58,11.24.87,3.01-4.01,3.32-7.6.32-11.57-16-2.95-32.2-5.93-48.41-8.91ZM211.53,125.55c-3.51-7.24-7.11-12.36-12.69-16-3.62-2.35-7.05-4.98-12.53-4.55.6,5.82-.46,11.54.97,17.59,7.75,1.62,15.24,2.79,24.26,2.96ZM315.24,149.65c4.76.7,8.59-.21,11.59-3.31,2.64-2.72,7.18-4.12,6.9-9.47-1.82-1.43-3.77-2.86-5.61-4.43-2.01-1.71-3.93-3.54-5.93-5.36-5.14,4.31-9.48,8.59-13.4,14.09,2.32,3.05,4.5,5.91,6.46,8.47ZM113.05,230.27c-1.63-3.17-2.86-5.58-4.04-7.89-3.86-.07-7.43-2.84-11.32.76,4.95,3.54,9.72,6.8,14.3,10.31,2.11,1.62,4.23,2.16,6.83,2.11,7.09-.15,14.18-.05,20.92-.05q4.13,4.8,11.66,4.62c.86-1.98,1.79-4.09,2.64-6.04-.95-.8-1.4-1.52-1.89-1.55-12.86-.79-25.73-1.51-39.1-2.28ZM249.15,144.01c-3.18,9.05-9.4,38.4-9.8,45.46,3.27-.41,6.46-.81,10.03-1.25.67-14.55.14-28.59-.23-44.21ZM134.11,84.07c3.99-1.63,4.53-4.04,5.52-6.27,1.1-2.49,2.72-4.75,4.07-7.14,1.21-2.14,2.6-4.22,3.45-6.5.94-2.51,1.38-5.21,2.03-7.83.52-2.07,3.29-3.4,2.35-6.99-6.7,6.18-12.74,11.76-19.24,17.75.57,5.32,1.15,10.76,1.82,16.98ZM175.75,169.57c2.99,1.3,5.47,2.38,8,3.49,2.92-2.03,4.2-4.41,4-8.27-2.48.68-4.35,1.18-6.04,1.64-.49-.62-.74-.84-.86-1.11-1.43-3.08-2.83-6.17-1.74-9.69.91-2.93,4.05-2.38,5.97-3.75.24-.17.49-.38.64-.63.78-1.31,1.64-2.65-.41-3.64q-4.31,4.4-14.33,6.27c-3.95-3.26-.58-8.08-2.17-11.91-3.65,1.48-3.71,1.48-3.71,2.26-.02,3.93,0,7.87,0,11.91q9.15,5.07,10.66,13.43ZM307.94,192.46c-.4,3.24,1.76,3.39,4.04,3.29,12.25-.55,24.49-1.13,36.55-1.69,1.38-1.59,2.56-2.97,1.08-4.86-27.47-.38-31.68-.83-41.67,3.26ZM254.3,131.01c-.28,4.56-.78,9.12-.8,13.68-.08,13.83,0,27.66.09,41.49.01,1.82.31,3.66.68,5.44.17.82.81,1.55,1.23,2.29,1.12-1.06,1.79-1.39,1.94-1.89.34-1.15.58-2.38.61-3.58.27-12.76-1.6-52.62-3.73-57.44ZM251.3,121.02c-3.58-1.08-6.29-1.61-8.74-2.73-1.59-.73-3.1-2.18-1.86-4.43,7.92,5.61,9.29,5.33,11.35-2.47-4.88-2.76-10.12-1.64-15.16-1.6-2.39,6.42-2.39,8.62-.32,12.57,2.1,3.99,5.28,6.02,9.81,5.25,1.43-.24,3.19-.81,4-1.85.8-1.02.6-2.83.91-4.73ZM212.71,231.83c2.32,1.59,3.38,2.8,4.65,3.07,1.77.37,3.71.23,5.53-.02,11.06-1.49,22.18-1,33.29-1.09,3.63-.03,7.35.31,10.73-1.35-.23-3.28-.46-4.04-1.38-4.02-3.38.04-6.77.08-10.15.31-3.69.26-7.35.86-11.04,1.07-5.55.31-11.11.29-16.66.61-4.54.27-9.05.85-14.98,1.42ZM280.59,107.23c-4.88-7.89-11.58-11.83-19.2-14.59-3.24,3.02-3.55,6.44-2.43,10.24.79,2.67,2.53,4.26,5.29,4.32,5.45.11,10.9.03,16.35.03ZM248.81,104.46c.62-4.82.65-8.7-.3-12.82-4.7-.6-8.7.64-12.45,2.67-2.24,1.21-3.64,3.18-3.76,5.91-.13,2.79,1.4,4.96,4.12,4.97,3.92.01,7.9.39,12.39-.73ZM163.33,45.79c4.2,1.6,8.21,2.26,12.68,1.23,1.47-6.18,1.23-12.2.56-18.22-.04-.35-.93-.6-1.65-1.03-6.21,4.28-9.74,10.33-11.59,18.02ZM203.43,51.55c-3.98-7.43-7.15-14.03-12.26-19.42-.67-.71-1.76-1.02-2.93-1.66-.67,10.65-.45,12.81,2.04,19.22,3.83.54,8,1.13,13.15,1.86ZM216.63,107.92c-1.42,4.75-1.16,8.71,2.62,11.84,2.78,2.31,6.24,2.26,11.2-.11-2.1-1.85-4.12-3.5-5.94-5.33-.44-.44-.24-1.51-.37-2.56,2.19,1.14,3.95,2.07,6.3,3.3.55-2.2.94-3.77,1.43-5.74-5.37-.49-10.11-.93-15.23-1.39ZM305.05,144.21c-4.47,2.88-7.65,7-10.68,11.16-.71.97-.55,3.06-.02,4.32.67,1.62,2.44,1.59,4,.97,1.71-.68,3.59-1.16,5.06-2.19,2.83-1.98,5-4.75,5.51-8.17.38-2.52-1.14-4.59-3.86-6.09ZM174.42,63.67c-1.06-.59-1.31-.84-1.58-.86-4.4-.41-6.53,3.11-8.79,5.71-1.67,1.92-2.71,4.91-2.85,7.48-.14,2.56.39,5.63,3.06,7.24,1.14.68,2.64.77,4.3,1.21.11-7.8.7-14.78,5.87-20.78ZM114.65,226.64c6.61.26,12.14,1.05,17.54.53,5.21-.51,10.61,2.04,17.33-1.26-5.93,0-10.24.54-14.34-.14-4.5-.75-8.78-2.72-13.2-3.97-2.25-.64-4.63-.85-7.33-1.33v6.17ZM247.31,61.49c-.25,1.98-.49,3.96-.8,6.4h-8.16c3.72,3.11,6.02,5.03,8.34,6.97,1.41-.92,2.9-1.91,4.22-2.77,2.26.93,4.17,1.72,6.87,2.84-.54-3.27-.95-5.76-1.42-8.58-3.91.45-6.73-.89-9.06-4.86ZM256.57,198.58c-.04.77-.12,1.09-.06,1.38.06.25.28.69.42.68,8.81-.44,17.62-.93,27.08-1.44-.26-1.76-.49-3.35-.8-5.51-9.32,1.71-18.03,3.31-26.63,4.89ZM235.28,202.64c2.64,1.71,5.8,1.28,8.79,1.53,2.19.19,5.19,1.94,6.28-1.45.8-2.47-1.9-3.51-3.31-4.96-.84-.86-1.86-1.59-2.89-2.22-2.03-1.25-4.13-1.1-5.96.34-2.1,1.65-4.8,3.17-2.9,6.77ZM307.93,163.3c-5.54-.79-8.98,2.56-13.59,4.59,1.26,2.24,2.24,3.99,3.23,5.74,3.77-.31,7.05-.57,10.36-.84v-9.48ZM261.45,46.37c-3.26,3.35-2.86,8.7-7.67,10.35-.48.17-.75,2.39-.34,3.33.38.87,1.82,1.86,2.73,1.8,2.8-.18,5.29-.84,6.08-4.4.58-2.6,2.15-4.97,3.44-7.81-1.54-1.19-2.89-2.24-4.25-3.28ZM167.44,162.63c-4.34-.13-7.17,2.48-7.13,6.6.02,2.18,1.78,4.03,4.05,4.24,3.91.37,6.78-2.39,7.05-6.77.15-2.32-1.48-3.99-3.97-4.07ZM313.32,178.33c-3.88,0-7.21-.04-10.55.04-.5.01-.98.57-2.03,1.22,1.06,2.3,2.16,4.67,3.38,7.3,2.84-.2,5.18-.37,7.53-.54.6-2.87,1.08-5.2,1.67-8.02ZM277.78,147.64c-1.01,1.74-1.58,2.27-1.55,2.75.16,2.28,1.99,3.51,3.23,5.18,1.1,1.47.4,4.66,1.63,5.58,2.24,1.68,2.73,3.62,2.98,6,.06.58.3,1.29.71,1.65.83.72,1.9,1.8,2.76,1.7,1.5-.17,1.53-1.68,1.02-2.86-2.88-6.64-6.56-12.84-10.79-20ZM94.06,202.45c2.6-6.19,2.23-7.12-2.92-7.68-2.12-.23-4.28-.23-6.41-.18-.5.01-1,.62-1.91,1.23.29,1.77.6,3.74.96,5.96,3.79.25,7.11.47,10.28.67ZM287.39,213.56c6.04.19,14.69-.76,17.59-2.33,1.33-.72,2.16-2.35,4.29-4.79-7.99.81-14.04,2.85-20.21,4.17-.67.14-1.03,1.76-1.67,2.95ZM313.07,128.91c3.23-3.36,2.36-6.53,2.46-9.35.4-11.12.35-11.13-2.45-16.22-.84,8.63-2.09,16.49-.01,25.56ZM313.47,156.52c-.63,4.25-1.41,8.67.3,13.1.61,1.57,1.67,2.73,3.37,1.89.88-.43,1.91-1.78,1.86-2.65-.25-3.9-.65-7.82-1.46-11.63-.38-1.8-2.22-1.58-4.07-.71ZM113.52,202.69c4.09.72,7.9,1.39,12.29,2.16v-6.41c-4.09-1.46-7.86-2.02-12.02-.87-.1,1.77-.17,3.23-.28,5.12ZM305.82,200.82c-2.61-4.13-3.78-8.16-6.49-11.43-.4-.48-1.77-.66-2.36-.35-.64.34-1.14,1.37-1.26,2.17-.12.84-.04,2.14.5,2.57,2.72,2.22,2.65,5.76,4.02,8.85,1.73-.56,3.09-1,5.6-1.82ZM238.44,39.6c4.34.96,7.22,1.37,10.01.39q.64-5.8-1.04-9.63c-3.59,1.96-5.51,5.39-8.97,9.24ZM134.14,209.89c2.83,3.36,6.42,2.1,9.64,2.24,1.99.09,4.38.9,5.73-1.88-4.99-5.37-10.08-1.24-15.37-.36ZM332.95,184.11c5.48.74,9.05-.4,12.88-1.78-2.68-3.55-3-3.89-4.07-3.85-3.48.13-6.38,1.24-8.81,5.62ZM329.82,204.21q-7.28-1.61-7.3,5.5,6.11,1.23,7.3-5.5ZM266.78,42.56c-2.28-4.36-4.87-6.98-8.74-10.2-.2,3.82-.34,6.43-.5,9.49,3.01.23,5.65.44,9.23.71ZM99.15,197.55c.47,1.43.56,3.4,1.59,4.47,1.42,1.47,5.05,1.02,6.69-.49.55-.5.78-1.71.63-2.5-.14-.77-.82-1.77-1.5-2.04-2.28-.87-4.66-1.33-7.41.56ZM282.75,113.24c-.04,5.54.46,6.66,2.76,6.88,2.37.23,4.21-1.13,4.5-3.32.33-2.54-1.18-3.36-7.26-3.56ZM263.24,214.51c3.86.18,6.74,1.55,9.63-.38.38-2.61.21-4.66-2.77-4.85-1.79-.11-3.6.17-5.5.28-.39,1.41-.7,2.56-1.36,4.95ZM315.75,184.9c3.8-.25,6.79-.45,9.87-.66-.28-3.34-2.24-4.88-4.85-4.99-2.84-.12-4.34,1.89-5.02,5.65ZM264.19,133.91c.72,1.99,1.39,3.83,2.02,5.57,2.16-.67,3.84-1.19,5.52-1.72q-1.42-4.34-7.54-3.85ZM230.03,202.63c-.1-2.83-1.37-4.29-2.63-3.85-2.17.76-2.33,2.62-2.25,4.49.07,1.56,1.38,2.23,2.52,1.7,1.13-.52,1.88-1.83,2.36-2.34ZM128.07,109.47c3.32-1.74,6.91-3.73,5.16-9.63-2.1,3.92-3.63,6.77-5.16,9.63ZM180.84,91.57c-.1-2.04-.92-2.96-2.6-2.71-1.54.23-2.91.78-2.69,2.81.19,1.8,1.39,2.54,2.95,2.83,1.49.28,2.43-.96,2.34-2.93ZM181.06,37.89c.54,4.37-.97,7.38,2.07,10.63.84-3.71.57-6.24-2.07-10.63ZM251.73,84.6c.55-.2,1.1-.4,1.66-.61.12-1.46.55-2.99.24-4.34-.19-.82-1.64-1.97-2.37-1.87-.78.11-2.08,1.71-1.91,2.33.43,1.6,1.55,3.01,2.39,4.49ZM348.93,205.63c-2.13-.83-3.07-1.46-4.04-1.52-1.8-.1-3.21,1.3-2.61,2.59.38.81,1.75,1.77,2.5,1.64,1.12-.19,2.08-1.28,4.15-2.71ZM232.74,160.73h7.05c-3.26-3.92-4.9-3.96-7.05,0ZM326.57,114.99c-3.26-.49-4.98.32-6.13,2.3-.21.36.05,1.23.39,1.58.3.31,1.24.5,1.5.27,1.28-1.09,2.43-2.34,4.24-4.16ZM234.27,181.55c-3.94,4-3.9,4.01-1.29,6.32,1.57-1.8,2.38-3.71,1.29-6.32ZM138.76,89.77c-1,4.11.26,6.19,2.09,8.7,1-3.4.09-5.7-2.09-8.7ZM219.98,206.31c1.65-3.32,2.84-5.34,2.18-8.03q-3.45,2.22-2.18,8.03ZM181.76,113.52c-.18.02-.37.03-.55.05v5.84c.77-.76,1.08-1.57,1.06-2.37-.04-1.18-.32-2.35-.5-3.52ZM254.24,95.81c-.11,0-.22,0-.33.01v4.06c.11,0,.22,0,.33-.01v-4.06ZM244.65,82.9c-.68.59-1.24,1.09-1.81,1.58.56.52,1.36,1.57,1.64,1.45.88-.38,1.56-1.21,2.32-1.87-.67-.36-1.35-.73-2.15-1.16ZM232.2,169.65c.91-1.1,1.78-1.67,1.85-2.33.14-1.4-.9-2.16-2.2-1.87-.71.16-1.87,1.3-1.76,1.57.36.88,1.2,1.57,2.11,2.63ZM293.48,196.13c-.75-.69-1.57-1.44-2.4-2.2-.4.71-1.14,1.42-1.14,2.12,0,1.42,1.01,2.13,2.43,1.78.37-.09.58-.85,1.11-1.7ZM225.29,192.29c-.56-1.07-.83-1.57-1.09-2.07-.75.73-1.56,1.41-2.18,2.24-.12.16.73,1.32.78,1.29.88-.42,1.7-.96,2.49-1.45ZM228.87,183.64c-.72-.78-1.22-1.32-1.71-1.86-.56.52-1.49.99-1.58,1.59-.09.58.69,1.29,1.08,1.94.64-.48,1.28-.97,2.21-1.67ZM291.36,173.64c-.73.46-1.63.88-1.58,1.03.29,1.02.78,1.97,1.2,2.95.51-.25,1.48-.6,1.45-.72-.25-1.09-.67-2.13-1.07-3.26ZM232.23,175.04c-1.15-.88-1.81-1.37-2.46-1.87-.55.96-1.16,1.91-1.6,2.92-.06.13.93,1,1.13.9.92-.45,1.73-1.12,2.93-1.95ZM280.3,173.12c.93-.45,1.68-.57,1.82-.93.46-1.23-1.02-3.44-2.15-3.25-.36.06-.95.85-.87,1.17.25,1.03.77,1.99,1.2,3.01ZM242.65,141.36c-.2.81-.4,1.61-.61,2.42.43.1.86.21,1.29.31.11-.82.24-1.65.31-2.47,0-.04-.49-.13-.99-.25ZM288.21,184.57c-.56.5-1.15,1.03-1.74,1.57.63.44,1.26.87,1.89,1.31.42-.62.9-1.22,1.21-1.9.04-.09-.77-.56-1.36-.98ZM293.65,185.04c.26-.03.52-.06.79-.08-.09-.26-.18-.74-.26-.74-.39.02-.78.16-1.16.25.21.19.42.38.63.57ZM181.67,103.44c-.18.04-.5.04-.52.11-.11.53-.17,1.08-.24,1.62.33-.04.65-.08.98-.12-.07-.54-.15-1.08-.23-1.61ZM149.75,94.91c-.26-.47-.43-1.11-.83-1.36-.24-.15-.85.31-1.3.49.19.46.31,1.25.6,1.32.45.11,1.01-.28,1.52-.46ZM260.54,83.79c-.32-.71-.54-1.2-.77-1.68-.46.48-1.1.9-1.33,1.47-.13.35.38.94.61,1.43.51-.42,1.02-.84,1.49-1.22ZM229.97,191.06c-.53,1.18-.89,1.82-1.05,2.52-.02.1.91.62,1.38.59.44-.02.85-.51,1.28-.8-.43-.62-.86-1.23-1.6-2.31ZM241.53,152.49c-.25-.46-.5-.92-.75-1.38-.28.46-.77.92-.79,1.39-.01.45.46.91.73,1.37.27-.46.54-.92.8-1.38ZM274.01,142.74c-.17.8-.47,1.51-.4,2.18.03.27.86.46,1.32.69.25-.63.66-1.26.67-1.9,0-.26-.85-.54-1.59-.97ZM236.04,174.89c-.42.27-1.07.45-1.2.82-.15.42.16,1,.27,1.52.45-.28,1.11-.46,1.27-.86.16-.38-.21-.98-.34-1.48ZM133.98,202.98c-.47-.31-.92-.85-1.4-.87-.43-.02-.88.53-1.32.83.45.32.9.89,1.36.9.45.01.91-.55,1.37-.86ZM275.59,162.68c.38.37.76.74,1.13,1.11.17-.24.51-.54.46-.71-.16-.51-.48-.98-.74-1.46-.28.35-.57.71-.85,1.06ZM268.55,146.69l.5.02-.23-.57-.26.55ZM235.77,151.9l-.62-.09.22.74.4-.64ZM273.15,154c-.2-.47-.42-.97-.64-1.47-.21.2-.62.45-.59.6.12.53.4,1.01.62,1.52.2-.21.4-.42.61-.64ZM144.43,96.55l.31-.5-.48-.07.17.56ZM313.36,98.62c.04.21.02.53.15.62.19.14.49.12.75.18-.07-.35-.13-.7-.2-1.05-.23.08-.47.17-.7.25Z"/>
      <path class="cls-1" d="M217.28,281.09c2.59-2.13,5.17-4.25,7.82-6.43.17,1.98-.23,4.15.61,5.6,1.18,2.02,3.07,3.88,5.09,5.07,1.75,1.03,4.11,1.39,6.2,1.38,3.06,0,6.12-.6,9.19-.93.02.01-.19-.14-.17-.12-9.38,5.3-14.44,5.04-22.36-2.12-2.1-1.9-4.17-2.22-6.53-2.64l.14.19Z"/>
      <path class="cls-1" d="M37.49,234.99c.95-1.1,1.73-2.49,2.91-3.2.95-.57,2.39-.4,3.61-.4,8.01-.02,9.6.41,11.06,7.8.1.5.73.89,1.11,1.33,3.62,1.82,4.71-3.81,8.07-2.75l-.15-.18c-1.26,2.48-2.82,4.67-5.41,5.98-2.03,1.02-3.97,1.38-6.27-.12-.16-2.26-.11-4.65-.54-6.96-.36-1.9-1.7-3.36-3.85-3.14-3.59.37-7.15.98-10.73,1.49l.19.16Z"/>
      <path class="cls-1" d="M213.84,285.24c-2.78,4.94-8.08,3.64-12.31,4.7-3.27.82-6.74-.21-9.65-2.17-2.03-1.37-3.91-2.95-5.86-4.44l.17.16c-.24-.87-.47-1.74-.72-2.65,2.14-1.05,3.57.21,4.57,1.59,3.61,4.94,8.65,5.26,14.01,4.56,3.32-.43,6.62-1.05,9.94-1.58l-.16-.17Z"/>
      <path class="cls-1" d="M95.25,272.27c-2.91-.86-4.72-2.95-5.26-5.76-.67-3.52-2.71-6.95-1.25-10.7,1.2-3.09,2.28-6.26,4.58-8.73,1.91.9,1.1,2.04.59,2.97-3.92,7.09-3.68,13.95.96,20.64.3.43.16,1.17.22,1.77l.16-.18Z"/>
      <path class="cls-1" d="M95.09,272.45c.3-.03.66-.19.9-.09,7.33,3.11,14.91,4.56,23.07,4.07-1.04.42-2.04,1.04-3.11,1.23-6.18,1.11-12.14-.18-17.93-2.14-1.16-.39-1.85-2.13-2.76-3.25,0,0-.16.18-.16.18Z"/>
      <path class="cls-1" d="M87.38,236.83c-3.36,2.67-7.01,2.91-10.84,1.24-3.79-1.65-7.55-3.37-11.32-5.05,0,0,.17.16.17.16,1.55-2.43,3.59-2,5.57-.79,5.11,3.12,10.46,5.22,16.59,4.61l-.17-.17Z"/>
      <path class="cls-1" d="M245.9,257.79c1.94-3.41,5.16-4.28,8.53-3.36,4.01,1.1,8.11,2.58,9.05,8.05-1.51-1.26-2.65-2.42-3.99-3.28-3.39-2.19-6.9-3.88-11.06-1.82-.76.37-1.8.17-2.71.23l.18.18Z"/>
      <path class="cls-1" d="M151.12,283.34c7.79,1.21,10.88,6.52,12.7,14.76-3.91-2.72-4.17-6.36-6.25-8.66-1.98-2.19-4.2-4.17-6.31-6.24l-.15.14Z"/>
      <path class="cls-1" d="M199.46,265.27c-.47,4.49-.94,8.97-1.43,13.68-1.95-.05-1.97-2.12-2.14-3.61-.44-3.87-.62-7.79,3.76-9.89-.01-.01-.2-.19-.2-.19Z"/>
      <path class="cls-1" d="M158.27,277.93c5.03,3.29,9.83,7,15.83,8.57-6.22.81-11.45-.88-15.27-5.98-.48-.64-.35-1.75-.5-2.64l-.06.05Z"/>
      <path class="cls-1" d="M186.03,283.33c-1.42,7.28-7.19,7.79-13.48,9.08,1.2-4.54,4.85-2.95,6.87-4.29,2.28-1.51,4.52-3.08,6.78-4.63l-.17-.16Z"/>
      <path class="cls-1" d="M158.33,277.88c-4.54-4.87-6.99-10.36-5.16-17.16,0,0-.12.13-.11.12,1.48,4.57,2.49,9.31,4.99,13.55.53.91.18,2.34.23,3.53,0,0,.06-.05.06-.05Z"/>
      <path class="cls-1" d="M135.99,257.56c2.11-.4,3.62.41,4.34,2.4,1.16,3.2,1.5,6.49.57,11.79-.75-2.63-1.34-3.56-1.19-4.34.82-4.11-1.8-6.9-3.57-10.03l-.15.19Z"/>
      <path class="cls-1" d="M181.75,262.76v7.91c-.16,0-.32,0-.49,0v-7.91c.16,0,.32,0,.49,0Z"/>
      <path class="cls-1" d="M115.54,268.39q-3.75-2.35-.63-7.97c.24,3.02.43,5.4.63,7.97Z"/>
      <path class="cls-1" d="M215.9,246.36c-2.61,1.26-5.22,2.53-8.49,4.11,1.83-5.4,5.47-4.02,8.62-3.96,0,0-.12-.15-.12-.15Z"/>
      <path class="cls-1" d="M120.51,265.08c2.91.34,4.14.24,5.12.68.58.26.75,1.39,1.11,2.13-.63.04-1.37.31-1.87.07-1.01-.47-1.88-1.21-4.36-2.89Z"/>
      <path class="cls-1" d="M95.37,296.35c2.45.16,4.89.32,7.78.52q-4.31.98-7.62-.7l-.16.18Z"/>
      <path class="cls-1" d="M95.53,296.17c-3.39.82-4.93-.93-5.11-4.47,1.65,1.55,3.29,3.11,4.94,4.65,0,0,.17-.19.17-.19Z"/>
      <path class="cls-1" d="M170,261.87c.21,2.24.42,4.47.73,7.72-1.95-3.12-3.5-5.24-.66-7.56l-.06-.16Z"/>
      <path class="cls-1" d="M200.72,260.84c.88-1.87,1.77-3.73,3.49-7.37.03,4.66-.79,6.55-3.65,7.18l.16.19Z"/>
      <path class="cls-1" d="M170.06,262.03c-.15-3.34-1.67-6.89,1.44-9.76,0,0-.2-.19-.2-.19-.44,3.25-.89,6.5-1.32,9.77.02.02.08.18.08.18Z"/>
      <path class="cls-1" d="M212.09,266.66c.18-2.25,1.34-3.67,3.72-4.51-.49,2.51-1.51,4.06-3.89,4.36,0,0,.16.15.16.15Z"/>
      <path class="cls-1" d="M262.85,278.98v-6.16c.15,0,.29,0,.44.01-.13,2.01-.26,4.01-.39,6.04,0,.02-.04.11-.04.11Z"/>
      <path class="cls-1" d="M151.27,283.2h-6.53c2.24-1.26,4.37-1.22,6.38.15,0,0,.15-.15.15-.15Z"/>
      <path class="cls-1" d="M106.52,239.03c-1.82,1.28-3.64,2.56-5.46,3.83l.18.19c.79-2.74,2.57-4.07,5.46-3.84,0,0-.18-.19-.18-.19Z"/>
      <path class="cls-1" d="M133.21,285.88c.51-2.04,1.62-3.02,4.43-1.88-1.83.75-3.22,1.32-4.6,1.88h.18Z"/>
      <path class="cls-1" d="M237.73,260.96c-.74.98-1.48,1.97-2.67,3.56-.2-3.12,1.46-3.09,2.84-3.39l-.17-.17Z"/>
      <path class="cls-1" d="M217.13,280.91c.31,2.51-.4,4.25-3.29,4.33l.16.17c1.1-1.43,2.2-2.85,3.28-4.29-.01-.02-.15-.2-.15-.2Z"/>
      <path class="cls-1" d="M210.28,270.7c-.38,1.83.71,4.28-2.14,5.07l.18.15c-.05-2,.37-3.8,2.14-5.03l-.18-.18Z"/>
      <path class="cls-1" d="M184.17,251.87c-.07,1.1-.14,2.2-.24,3.85-1.79-2.03-1.25-2.99.4-3.69l-.16-.16Z"/>
      <path class="cls-1" d="M123.83,254.51c1.19-2.74,1.7-2.79,4.27-.4l.18-.15c-1.53.14-3.07.29-4.6.43l.16.12Z"/>
      <path class="cls-1" d="M184.33,252.02c.46-1.14.92-2.28,1.79-4.44.93,3.3-.3,3.94-1.95,4.28l.16.16Z"/>
      <path class="cls-1" d="M87.55,236.99c.5-.33.97-.71,1.5-.99.24-.13.59-.07.89-.1-.24.28-.44.71-.74.79-.57.15-1.2.1-1.81.13,0,0,.16.16.16.16Z"/>
      <path class="cls-1" d="M64.25,237.76c-.5-1.74-.41-3.34,1.14-4.58,0,0-.17-.16-.17-.17-.39,1.5-.77,3.01-1.14,4.54.02.02.17.2.17.2Z"/>
      <path class="cls-1" d="M37.3,234.82c-.13.69-.27,1.37-.4,2.06-.13-.19-.42-.48-.38-.56.28-.47.65-.89.98-1.33,0,0-.2-.17-.2-.17Z"/>
      <path class="cls-1" d="M101.07,242.86c-.44.35-.85.75-1.32,1.04-.2.12-.54.01-.81,0,.21-.36.36-.96.64-1.03.51-.12,1.1.08,1.67.16,0,0-.17-.18-.17-.18Z"/>
      <path class="cls-1" d="M173.03,247.96c.14-1.46.11-3.01,1.94-3.55,0,0-.2-.18-.2-.18.36,1.71.06,3.08-1.91,3.56l.16.17Z"/>
      <path class="cls-1" d="M172.86,247.79c-.52,1.43-1.05,2.85-1.57,4.29,0,0,.2.19.2.2.52-1.43,1.03-2.86,1.54-4.3,0,0-.17-.18-.17-.18Z"/>
      <path class="cls-1" d="M123.67,254.39c-.67,0-1.34,0-.33,0-.93-.16-.24-.04.47.1.02.02-.14-.1-.14-.1Z"/>
      <path class="cls-1" d="M128.1,254.11c1.46.29,3.46-.65,3.99,1.76,0,0,.15-.18.15-.18-1.31-.58-2.63-1.16-3.95-1.73-.01,0-.19.15-.19.15Z"/>
      <path class="cls-1" d="M225.81,256.13c.23-.02.46-.03.69-.05-.25-.25-.49-.5-.74-.76-.05.23-.1.46-.14.68l.2.12Z"/>
      <path class="cls-1" d="M136.15,257.37c-1.73.42-3.11.04-3.91-1.69,0,0-.15.18-.15.19,1.76-.49,3.31-.52,3.91,1.69l.15-.19Z"/>
      <path class="cls-1" d="M225.61,256.01c-.63.14-1.26.27-1.89.41.16-.14.31-.39.47-.4.53-.02,1.05.05,1.6.1.02.01-.18-.11-.18-.11Z"/>
      <path class="cls-1" d="M245.72,257.6c-1.05.79-2.11,1.58-3.19,2.34-.03-.02.15.08.15.08.04-2.22,1.44-2.5,3.22-2.24,0,0-.17-.18-.17-.18Z"/>
      <path class="cls-1" d="M237.9,261.13c1.25-1.71,2.99-1.43,4.75-1.12.02.02-.15-.08-.12-.06-1.58.36-3.18.69-4.79,1.02,0,0,.16.17.16.17Z"/>
      <path class="cls-1" d="M200.56,260.65c-.38,1.53-.75,3.06-1.12,4.61.01.01.2.19.21.21-.8-1.8,0-3.24,1.08-4.62-.01-.01-.17-.2-.17-.2Z"/>
      <path class="cls-1" d="M210.46,270.88c.54-1.41,1.09-2.81,1.63-4.22,0,0-.16-.15-.16-.15-.55,1.39-1.1,2.78-1.65,4.18,0,0,.18.19.18.19Z"/>
      <path class="cls-1" d="M139.24,276.13c-.21.07-.57.25-.61.2-.17-.22-.23-.51-.34-.77.38-.1.75-.2,1.13-.3-.06.29-.12.58-.18.87Z"/>
      <path class="cls-1" d="M172.59,278.39c-.17-.48-.33-.95-.5-1.43.11.52.21,1.04.32,1.56l.18-.13Z"/>
      <path class="cls-1" d="M208.15,275.77c-.19.7-.37,1.4-.56,2.1-.13-.22-.42-.55-.36-.65.32-.47.73-.88,1.1-1.31,0,0-.18-.15-.18-.15Z"/>
      <path class="cls-1" d="M172.41,278.52c.58-.07,1.16-.16,1.74-.2.03,0,.08.41.12.62-.54-.2-1.09-.4-1.65-.58-.02.02-.2.15-.2.15Z"/>
      <path class="cls-1" d="M133.04,285.88h-1.46v-.02c.53,0,1.06,0,1.61,0,.02,0-.15.01-.15.01Z"/>
      <polygon class="cls-1" points="125.15 287.87 125.69 288.19 125.07 288.36 125.15 287.87"/>
      <polygon class="cls-1" points="110.58 295.57 109.8 295.77 109.9 295.19 110.58 295.57"/>
      <path class="cls-1" d="M198.57,133.15c.49-.57.99-1.14,1.48-1.7,0,0-.26.06-.27.06,1.08.23,2.17.46,3.24.69-.15,2.85-2.05,3.75-3.95,4.63l.12.18c-.21-1.29-.41-2.57-.62-3.86Z"/>
      <path class="cls-1" d="M141.44,194.09c-5.03-.33-6.57-4.6-9.37-7.94.8-1.13,1.48-2.08,2.15-3.02.59,4.85,4.46,7.54,7.22,10.96Z"/>
      <path class="cls-1" d="M199.06,136.82c-1.15,1.54-2.3,3.08-3.37,4.51-2.86-1.18-2.69-2.95-1.71-4.49.92-1.44,2.38-2.54,3.6-3.78.54,1.31,1.07,2.62,1.61,3.93l-.12-.18Z"/>
      <path class="cls-1" d="M204.31,203.69c-1.28.09-2.21.38-2.96.14-.73-.24-1.41-.95-1.85-1.62-.16-.24.42-1.39.73-1.42.82-.08,1.84,0,2.49.43.64.43.92,1.38,1.58,2.47Z"/>
      <path class="cls-1" d="M135.98,129.35c-.57-.22-1.34-.29-1.68-.7-.71-.88-1.2-1.94-1.78-2.93.96-.53,1.89-1.12,2.89-1.56,1.7-.75,2.11.42,2.38,1.72l.18-.27c-1.9.68-1.83,2.38-2.07,3.94l.07-.19Z"/>
      <path class="cls-1" d="M137.8,125.87c.96-.52,1.92-1.04,3.05-1.66.5,2.87-1.05,4.1-2.95,5.11l.1.21c0-1.31-.02-2.62-.02-3.93l-.18.27Z"/>
      <path class="cls-1" d="M128.24,130.84c.33-.46.66-.92.98-1.37.16.34.32.69.48,1.03-.53.06-1.06.11-1.6.17l.13.18Z"/>
      <path class="cls-1" d="M137.9,129.33c-.63,1.24-1.27.67-1.91.02,0,0-.07.19-.07.19.7,0,1.39,0,2.09,0l-.1-.21Z"/>
      <polygon class="cls-1" points="144.64 130.76 144.3 131.51 144 130.73 144.64 130.76"/>
      <path class="cls-1" d="M128.11,130.67c.03.55.06,1.1.1,1.65.02-.48.05-.96.05-1.46-.02-.02-.15-.19-.15-.19Z"/>
      <path class="cls-1" d="M78.51,160.99c-2.66-.08-4.08-1.58-5.69-5.26,3.3,1.75,5.13,2.79,5.68,5.28l.02-.02Z"/>
      <path class="cls-1" d="M74.92,166.47c-2.87.16-4.68-.94-4.8-4.05l-.12-.14c1.59,1.45,3.18,2.9,4.77,4.35,0,0,.15-.16.15-.16Z"/>
      <path class="cls-1" d="M70.12,162.42c-.4-.03-.8-.06-1.21-.09.15.11.31.34.44.32.23-.04.42-.23.64-.36,0,0,.13.13.13.13Z"/>
      <path class="cls-1" d="M82.17,160.92c-1.71,2.09-1.93,2.09-3.66.06l-.02.02c1.27.03,2.54.06,3.81.09,0,0-.14-.18-.14-.18Z"/>
      <path class="cls-1" d="M236.13,49.51c-.48,2.29-.95,4.59-1.41,6.81-2.57-.15-2.19-1.63-1.68-2.5.88-1.51,2.16-2.78,3.27-4.16,0,0-.17-.15-.17-.15Z"/>
      <path class="cls-1" d="M189.79,62.61c-.06,1.31-.13,2.62-.28,5.8-2.03-3.61-2.38-5.04.43-5.67l-.15-.13Z"/>
      <path class="cls-1" d="M189.95,62.73c-.53-1.72.06-3.02,1.53-3.97,0,0,.39.33.39.33-.23,1.45-.08,3.12-2.07,3.52l.15.13Z"/>
      <path class="cls-1" d="M273.24,53.25c.64,2.41-.79,3.9-2.38,5.31q.03-2.72,2.57-5.16l-.19-.16Z"/>
      <path class="cls-1" d="M345.92,116.73c-.83,3.9-3.69,6.11-6.84,8.01-2.38,1.43-3.15,1.11-6.55-2.14q5.93-.67,13.57-5.7l-.18-.17Z"/>
      <path class="cls-1" d="M346.1,116.91c-.07-.54-.27-1.11-.17-1.61.06-.28.63-.44.97-.66,0,.27.12.6,0,.8-.28.46-.66.86-1,1.3,0,0,.19.18.19.18Z"/>
      <path class="cls-1" d="M317.27,141.11c2.87-.31,5.39-.57,8.31-.89q-4.91,3.74-8.31.89Z"/>
      <path class="cls-1" d="M277.57,123.42c-2.06.09-4.12.19-7.4.33,3.41-3.03,5.34-2.03,7.2-.13.01-.01.2-.2.2-.2Z"/>
      <path class="cls-1" d="M354.81,102.36c2.51-.78,4.98-1.55,7.78-2.42-2.66,4.8-5.59,5.62-7.78,2.42Z"/>
    </g>
  </g>
</svg>