<?xml version="1.0" encoding="UTF-8"?>
<svg id="Layer_2" data-name="Layer 2" xmlns="http://www.w3.org/2000/svg" viewBox="0 0 230.28 161.93">
  <defs>
    <style>
      .cls-1 {
        fill: #3d2011;
      }
    </style>
  </defs>
  <g id="_Ñëîé_1" data-name="Ñëîé 1">
    <g>
      <path class="cls-1" d="M81.53,64.82c-2.94-3.6-5.43-7.33-3.61-12.33l-.16.13c.26-.14.55-.24.79-.41,2.04-1.54,3.74-4.83,6.64-3.29,2.97,1.58,6.1,3.71,6.43,7.81.16,2.06.43,4.1.62,5.94,1.42,1.6,2.19-.19,3.2-.24,1.09-.05,2.18-.01,3.76-.01-.37-2.01-.23-4.82-1.05-5.14-3.2-1.24-2.98-4.17-4.06-6.45-2.06-4.39-.51-7.99,2.49-11.26,1.38-1.51,3.08-1.27,4.23.76.4.71.36,1.67.6,2.99-.96-.06-1.72.04-2.39-.17-1.87-.58-2.92.22-3.05,1.97-.32,4.32.92,5.8,6.31,7.91.07,3.7-1.86,7.52.72,11.61,1.35-.82,2.64-1.61,4.01-2.44.77,2.11-1.32,5.83,3.25,5.6.03.41.07.81.1,1.21-.13-.15-.38-.33-.36-.45.04-.22.25-.4.39-.59,1.32-1.96,1.29-5.46,5.35-4.61-.08,4.11,1.08,8.14-1.37,11.94-.41.64.45,2.2.9,3.26.19.45.98,1.05,1.29.95.76-.24,1.77-.72,2.01-1.35.5-1.3.56-2.78.88-4.65,2.17.2,4.1.37,6.91.63-.98,1.57-1.36,2.64-2.11,3.3-1.32,1.17-2.98,1.97-4.29,3.16-2.37,2.16-3.46,4.41-1.36,7.72,1,1.57.52,4.07.72,6.34,3.59-1.48,4.83-4.29,6.31-6.82,1.37-2.34,3.17-2.32,5.55-1.23-.73,4.48-3.6,7.86-6.98,11.43,2.04.78,3.31,1.26,5.18,1.98-.85,1.51-1.65,2.95-2.94,5.24.71.45,1.64,1.03,2.57,1.61-1.51.94-3.06,1.91-6.04,3.76,7.14.78,12-.95,17.19-2.62-.38-11.57.88-22.91-6.17-33.44-1.71,1.22-3.45,2.46-5.63,4.02-1.04-5.51,3.01-6.81,6.03-8.59-.8-6.97-1.05-7.17-8.78-7.13q-3.27-9.24-.27-15.59c-3.1-9.18-11.17-11.82-19.24-13.92-6.69-1.74-13.6-1.48-20.13,1.25-4.38,1.83-8.68,3.85-12.9,6.01-4.37,2.24-7.62,5.57-9.14,10.87,1.49.66,2.98,1.32,4.44,1.96,1.1,2.69-1.92,2.46-2.93,4.39.2,1.14.48,2.77.75,4.32-2.59,2.28-4.17-1.44-6.29-1.12-.48.57-1.07.96-1.15,1.42-1.16,7.32-2.44,14.64-3.27,22-.32,2.87.44,5.87.67,8.81.12,1.57-.22,2.94-2.5,3.46-1.95-1.79-2.59-4.29-2.3-6.91,1.26-11.18,1.44-22.57,5.32-33.3,3.75-10.36,9.22-19.3,20.59-22.92,1.68-.53,3.17-1.64,4.81-2.32,8.72-3.65,17.57-5.46,26.83-1.88,2.21.85,4.55,1.35,6.81,2.09,4.65,1.53,8.43,4.14,11.17,8.36,3.23,4.98,6.19,9.97,8.38,15.61,5.65,14.58,8.74,29.54,9.17,45.12.03,1.12.51,2.23.71,3.04,2.32,1.59,3.63-.08,5.15-.79,1.57-.73,3.15-1.41,4.99-2.23,1.28,2.09,2.46,3.77,3.4,5.57,1.62,3.08,4.3,4.16,7.44,3.61,3.15-.55,6.21-1.69,9.88-2.73,2.92,1.5,5.51,6.04,10.66,3.25-1.11-1.72-2.18-3.38-3.87-6,2.19.56,3.46.88,4.72,1.2.2-.44.67-1,.53-1.29-.36-.79-.84-1.94-1.5-2.13-5.77-1.6-5.96-7.54-8.75-11.38-1.52-2.1-1.74-5.59,1.39-7.67,3.31,1.97-1.12,5.43,2.61,7.41,2.65-.31,4.21-2.9,6.31-4.5-3.44-11.15-3.04-12.65,5.56-20.69-.7-1.1-1.29-2.41-2.23-3.4-.99-1.05-2.49-1.63-3.42-2.72-1.56-1.8-.99-5.41.93-6.31,2.86-1.33,5.83-1.36,8.46.48.69.48.7,1.98.98,3.03.35,1.34.64,2.7,1.02,4.35,1.14-1.21,1.91-2.01,3.03-3.19-.47,3.15,4.11,6.06-.61,8.69.97,4.5,3.8,7.93,6.49,11.47,1.89,2.49,4.46,3.87,7.31,4.8,2.52.82,5.25-.79,5.21-3.28-.11-6.53,0-13.11-.84-19.56-1.28-9.93-11.7-15.42-21.58-13.52-10.7,2.05-24.57,14.03-24.81,27.11-.15,8.59-1.31,17.17-2.09,25.74-.24,2.64-.7,5.26-1.04,7.79-2.53.61-2.81-1.12-2.75-2.45.47-10.08.95-20.17,1.69-30.24,1.03-14.08,9.06-23.57,20.94-29.98,3.54-1.91,7.88-2.89,11.93-3.15,11.19-.73,20.64,7.47,21.96,19.01.87,7.63.96,15.35,1.4,23.02-9.05,5.86-11.21,5.4-24.29-5.2-7.1,11.7-8.33,18.25-5.01,27.68,2.16-.83,4.31-1.66,6.36-2.45.68.24,1.4.27,1.73.64,4.55,5.07,10.15,6.97,16.85,5.8.86-.15,1.78.01,2.67.03l-.14-.16c-.49,2.55-2.63,3.1-4.62,3.45-3.19.56-6.49,1.22-9.59-.5-2.59-1.44-5.15-2.95-7.86-4.52-4.36.22-7.36,3.42-10.94,5.37-4.51,2.46-8.95,3.03-13.39-.13-.72-.51-1.5-.94-2.51-1.57-2.68.64-5.51,1.36-8.36,2-4.61,1.03-8.13-.66-10.71-4.49-.96-1.43-1.88-2.88-3.06-4.7-2.65,1.45-4.96,2.66-7.23,3.95-5.19,2.95-10.63,5.26-16.52,6.38-4.49.85-8.84,1.1-12.56-2.45-1.03-.98-2.56-1.44-4.14-2.28-1.27.5-2.63.99-3.96,1.56-5.61,2.41-6.16,2.29-10.62-2.46-.4-.43-.86-.8-1.74-1.6-1.77.78-3.84,1.75-5.95,2.61-3.68,1.51-6.95,1.4-9.22-2.49-.26-.45-.94-.65-1.8-1.22-2.42,1.11-5.03,2.41-7.73,3.52-3.48,1.43-6.81,1.33-10.22-.68-4.59-2.71-9.4-5.04-14.21-7.58-6.27,2.94-12.34,6.89-18.98,2.21-5.27,2.44-8.32,9.41-15.9,6.31,1.3-2.87,3.86-1.84,5.41-2.77,1.77-1.06,3.54-2.21,5.03-3.62,1.44-1.37,2.53-3.11,3.66-4.55-2.86-4.27-7.82-3.42-10.93-5.85-1.17-2.64,1.48-5.26-.62-7.87-1.23-1.52.02-3.36,1.18-4.81,1.45-1.83.46-3.34-.82-4.67-1.05-1.09-3.27-.7-3.75.63-.39,1.1-.75,2.24-.87,3.39-.21,1.96-.23,3.95-.35,6.24-1.53-.52-2.6-.89-3.67-1.26.62-3.16,1.08-6.36,1.91-9.47.77-2.89,3.17-3.91,6.21-3.28,1.86.39,3.03,3,5.62,1.65.51-4.91-2.84-7.99-5.11-11.51-1.59.44-2.93.81-4.74,1.31-.24-3.47-.46-6.61-.66-9.73.87.21,2.01.12,2.54.65,2.75,2.77,5.35,5.69,8,8.56.5-.47,1.12-.78,1.26-1.24.69-2.29-.34-5.28,3.04-6.48.53-.19.66-2.14.57-3.24-.05-.67-.87-1.28-1.32-1.89-1.63.87-1.73,3.55-4.43,2.72,0-1.05-.32-2.3.07-3.25.88-2.13,2.11-4.12,3.2-6.16,3.26-1.1,4.83,2.68,7.89,2.98,2.49-3.3.52-6.9,1.09-10.17.78.33,1.57.65,2.7,1.12.9-4.02,1.77-7.91,2.63-11.8,1.46.64,1.79,3.37,5.13,1.88-1-5.95.86-11.18,7.34-13.35.3-6.15-3.24-7.99-7.85-9.09-.38.99-.84,1.56-.75,2.04,1.04,5.82-.35,11.1-3.33,16.1-.41.69-.27,1.7-.39,2.56-2.62,2.86-5.25,5.72-7.88,8.58-1.99.94-2.42,2.57-2.78,4.66-.29,1.65-3.72,1.25-3.62,3.86,0,.28,0,.56,0,.83-1.93.27-3.86.53-6.19.86-2.16,2.99-4.48,6.19-6.79,9.4-3.03,6.36-4.95,13.03-5.38,20.07-.22,3.72-.56,7.54,2.14,10.71-.08,7.3,3.74,13.47,6.51,20.65-1.7.12-2.95.58-3.78.17-.97-.47-1.81-1.57-2.3-2.59C-2.81,82.61-3.06,62.96,11.31,44.46c1.25-1.61,2.61-3.33,4.3-4.39,5.9-3.69,10.07-9.15,14.83-13.99,1.23-1.25,2.12-2.84,3.13-4.3,3.94-5.7,4.42-11.47.37-17.35-.62-.9-1.15-1.87-1.69-2.76.72-.7,1.08-1.32,1.56-1.45.83-.22,1.75-.25,2.61-.17,15.53,1.39,22.52,13.4,16.21,27.89-2.67,6.13-7.11,10.91-12.23,15.03-4.43,3.57-8.28,7.55-11.12,12.54-3.81,6.69-5.08,13.71-4.1,21.38,1.11,8.66,4.31,16.53,8.1,24.58,5.64,1.81,9.95-1.74,14.51-4.26,4.77,2.59,9.46,5.06,14.07,7.67,3.64,2.06,7.33,2.04,11.14.72,1.78-.62,3.26-1.64,3.2-3.72-.05-1.8-.49-3.51-2.49-4.31-1.33-.53-2.58-1.25-4.4-2.15,1.14-2.66,2.25-4.94,3.07-7.33.35-1.02.11-2.25.14-3.38,1.26-.55,2.66-.92,3.72-1.73.53-.41.7-1.67.58-2.48-.29-2.01-2.38-3.47-5.03-3.42.32,2.64.63,5.24.94,7.84-2.67-1.87-5.36-3.72-6.81-7.08,2.35-3.56,2.98-8.23,7.08-10.89.76-.49.62-2.36,1.08-4.39,2.3,3.16,4.16,5.7,6.33,8.67,1.15-1.12,1.94-1.89,2.74-2.66l.1-.11c1.83-.54,3.04-1.67,3.45-3.58,1.04.2,2.07.4,3.73.72-.16-3.56-.3-6.44-.42-9.17-1.93-1.01-3.29-1.73-5.4-2.84.2,2.67.32,4.4.45,6.13-.92-1.26-1.83-2.51-3.1-4.26-1.53,3.53-.7,6.56-.62,9.54l.19-.2ZM196.06,59.08l-.17,2.67c.35-.07.71-.14,1.06-.21-.34-.77-.68-1.54-1.03-2.32-.38-1.09-.58-2.32-1.23-3.22-.26-.36-1.56-.17-2.28.07-.38.13-.8.95-.74,1.39.07.48.61,1.16,1.06,1.27,1.08.26,2.23.23,3.33.34ZM113.44,104.32c1.53-4.46.31-8.58.24-12.69-.13-6.92-3.07-12.6-7.63-17.57-.99-1.07-2.03-2.37-3.32-2.84-6.77-2.47-16.44-1.81-20.14,7.62-1.08,2.75-2.01,5.64-2.48,8.54-.89,5.58-1.67,11.21,3.76,15.43,1.21.95,1.65,2.89,2.75,4.94,4.09-2.08,7.69-3.91,11.5-5.84,2.08,2.73,2.99,6.37,7.57,6.74,2.31-1.29,5.11-2.86,7.74-4.34ZM48.25,27.17c1.92-3.41.84-5.55-1.24-7.49q-3.07,3.07,1.24,7.49ZM130.83,56.43c-.52-1.29-.79-2.11-1.17-2.89-.53-1.1-1.47-2.15-2.56-1.16-.63.57-.85,2.26-.48,3.09.61,1.37,2.01,1.97,4.21.96ZM194.85,70.58c-3.91,2.22-3.82,2.84.67,6.24-.24-2.25-.45-4.13-.67-6.24ZM189.46,100.18c.64-3.65-.43-5.75-3.69-7.38-1.52,3.91,1.32,5.17,3.69,7.38ZM37.86,38.9c.26-.1.65-.14.75-.33.49-.89.9-1.83,1.34-2.74-.68-.18-1.37-.36-2.05-.54-.19,1.01-.4,2.02-.54,3.04-.02.17.32.38.49.57ZM19.15,83.45c-.22.11-.45.22-.67.33.26.4.52.8.77,1.19.3-.21.6-.42.91-.63-.34-.3-.67-.59-1.01-.89ZM121.95,104.81c-.5-.15-1.07-.51-1.48-.38-.38.12-.59.77-.88,1.19.49.15,1.05.52,1.43.39.4-.14.63-.77.93-1.2ZM45.18,30.75c-.14-.2-.27-.4-.41-.61-.16.18-.5.45-.46.52.15.29.41.51.64.75.08-.22.15-.45.23-.67ZM192.59,82.21l.03-.55-.63.26.6.29ZM190.04,90.11c-.21-.46-.41-.91-.62-1.37-.2.18-.57.35-.57.53,0,.48.14.96.23,1.43.32-.2.64-.4.96-.6Z"/>
      <path class="cls-1" d="M76.14,148.57c.76,1.67,1.46,2.92,1.91,4.26,1.36,4.04,4.5,5.57,8.29,5.12,4.35-.51,8.73-1.42,12.89-2.79,4.5-1.48,8.87-2.96,15.34-2.43-2.19,1.32-2.96,2-3.86,2.29-4.48,1.45-8.98,2.83-13.49,4.18-2.82.85-5.64,1.77-8.52,2.35-5.39,1.1-9.97-.11-12.91-5.23-.29-.51-.63-1-1.01-1.44-.17-.2-.51-.25-1.37-.65-1.99,1.54-4.18,3.39-6.53,4.98-1.51,1.02-3.37,1.32-5.02.23-1.56-1.03-4.03-1.59-3.05-4.44q7.18,1.27,13.35-4.47c.63-.59,1.39-1.06,2.11-1.54.23-.15.57-.14,1.86-.43Z"/>
      <path class="cls-1" d="M107.46,136.68c-4.48,4.39-8.77,4.09-13.04,2.37-4.29-1.72-6.93-5.39-9.43-9.87-1.99,1.13-3.64,2.23-5.42,3.04-2.69,1.22-5.4,2.46-8.23,3.26-2.04.58-4.36.15-5.65-1.73-1.61-2.35-2.11-4.94.65-7.27,3.35.42.53,4.56,3.99,5.67,6.14,1.17,9.84-5.82,16.33-7.16.81,1.07,1.96,2.06,2.46,3.31,2.57,6.47,7.41,8.92,14.09,8.39,1.08-.09,2.17-.01,4.25-.01Z"/>
      <path class="cls-1" d="M160.15,130.85c-7.98,7.76-10.54,7.49-20.49-1.66-3.52-.36-5.88,2.21-8.62,3.77-2.68,1.52-5.41,2.35-8.44,1.76-2.42-.47-4.36-1.58-4.67-4.33,1-1.58,2.1-.73,3.01-.14,3.46,2.24,6.75,1.48,9.96-.46,3.74-2.27,7.43-4.63,11.52-7.2,2.17,3.69,2.45,8.43,6.87,9.87,3.74,1.22,7.32-.23,10.86-1.61Z"/>
      <path class="cls-1" d="M32.35,123.73c4.84,8.42,5.66,8.72,16.15,6.26-3.51,5.99-8.89,6.36-17.55,1.2-9.23,6.94-11.93,7.4-18.06,2.58,3.87-1.64,8.13,1.61,11.21-1.25,2.76-2.56,5.18-5.48,8.25-8.78Z"/>
      <path class="cls-1" d="M222.73,125.48c-3.63,2.3-5.92,3.96-8.4,5.3-8.49,4.57-10.21,4.21-16.52-3.2-4.77-.34-8.22,5.94-13.72,3.3.34-.64.46-1.33.83-1.5,4.5-2.05,9.04-4.03,13.98-6.2,1.25,1.49,2.51,2.68,3.38,4.1,1.89,3.08,4.54,3.63,7.63,2.46,2.46-.93,4.83-2.13,7.18-3.32,1.3-.66,2.51-1.34,5.63-.93Z"/>
      <path class="cls-1" d="M213.33,69.51c-.77.05-1.54.33-1.83.08-3.15-2.85-3.56-6.36-2.17-10.18.16-.42.91-.95,1.31-.9.74.1,1.94.48,2.04.95.74,3.31,1.88,6.65.64,10.05Z"/>
      <path class="cls-1" d="M182.73,64.7c-.52,1.62-1.23,3.21-1.5,4.87-.21,1.33.11,2.74.24,4.93-1.58-.87-3.02-1.16-3.29-1.88-1.4-3.86.28-6.62,4.54-7.92Z"/>
      <path class="cls-1" d="M111.38,56.82c-1.37-1.69-1.05-3.29.22-4.81,1.83-2.2,3.99-2.18,6.46-.83-1.37,1.08-2.78,2.01-3.94,3.18-.87.88-.5,3.09-2.74,2.47Z"/>
      <path class="cls-1" d="M104.87,48.6c-.58-1.41-1.33-2.33-1.11-2.88.89-2.31,2.67-3.99,5.1-4.47.76-.15,1.79.99,2.69,1.55-.49.56-1.02,1.64-1.46,1.61-2.79-.22-2.85,2.66-5.21,4.2Z"/>
      <path class="cls-1" d="M63.56,97.26c-.95-1.24-1.95-2.45-2.79-3.76-.13-.2.41-1.09.82-1.29.41-.19,1.34-.1,1.53.2.75,1.15,1.29,2.43,1.91,3.66-.49.39-.98.79-1.47,1.18Z"/>
      <path class="cls-1" d="M135.87,97.72c-.08.28-.08.71-.25.8-.95.51-1.95.94-2.93,1.4-.22-.7-.45-1.41-.67-2.11,1.05-.19,2.09-.42,3.15-.55.21-.03.47.3.71.46Z"/>
      <path class="cls-1" d="M77.92,52.5c-3.36-1.71-2.38-4-1.12-6.79,2.13,2.41.93,4.73.96,6.92,0,0,.16-.13.16-.13Z"/>
      <path class="cls-1" d="M227.89,107.89c.11-.51.06-1.29.37-1.47.57-.34,1.34-.33,2.03-.46-.32.6-.52,1.34-1,1.76-.29.26-1,.04-1.53.03,0,0,.13.14.13.14Z"/>
      <path class="cls-1" d="M83.17,68.58c-1.94-.65-1.46-2.35-1.64-3.76l-.19.2c.64,1.15,1.28,2.3,1.92,3.45l-.1.11Z"/>
      <path class="cls-1" d="M128.66,83.95c-.44.12-.67.19-.9.25-.05-.21-.1-.41-.15-.62.29.1.59.2,1.05.36Z"/>
      <path class="cls-1" d="M223.98,109.44c1.3-.52,2.6-1.04,3.91-1.55,0,0-.13-.14-.13-.14-.8,1.79-2.28,1.86-3.92,1.55,0,0,.14.15.14.15Z"/>
      <path class="cls-1" d="M86.86,65.11c-2.29-1.31-1.28-3.75-1.92-5.62.64,1.87,1.28,3.75,1.92,5.62Z"/>
    </g>
  </g>
</svg>