<?xml version="1.0" encoding="UTF-8"?>
<svg id="Layer_2" data-name="Layer 2" xmlns="http://www.w3.org/2000/svg" viewBox="0 0 375.98 159.13">
  <defs>
    <style>
      .cls-1 {
        fill: #3d2011;
      }
    </style>
  </defs>
  <g id="_Ñëîé_1" data-name="Ñëîé 1">
    <g>
      <path class="cls-1" d="M223.77,89.29c7.82.5,15.11,1.1,22.52.13,10.41-1.36,20.86-2.42,31-5.33,10.29-2.96,19.52-.57,27.92,5.65,4.47,3.31,8.73,6.88,13.2,10.19,5.94,4.4,12.01,8.62,17.97,12.99,2.73,2,5.59,3.91,7.95,6.3,9.97,10.12,19.79,20.38,29.62,30.63,3.17,3.31,2.63,6.12-1.45,7.73-4.05,1.59-7.75,2.61-12.17-.25-3.49-2.25-7.79-3.29-11.43-5.73-2.29-1.53-4.75-2.6-6.54-4.89-.84-1.07-2.68-2.22-3.84-2.02-4.52.78-6.63-2.66-9.8-5.25-1.28.5-2.61,1.1-3.99,1.52-1.14.35-2.35.5-3.46.73-.93-.71-1.89-1.11-2.33-1.83-2.58-4.23-6.56-5.6-11.08-4.94-2.54.38-3.92-.37-5.59-2.02-1.22-1.19-3.09-1.98-4.8-2.35-1.89-.4-3.57-.75-4.61-2.57-1.44-2.52-3.37-2.98-6.22-2.1-3.2.99-4.92-1.82-6.88-4.08-2.42.51-4.76,1.01-7.5,1.59-1.45-1.1-2.95-2.91-4.81-3.45-2.29-.66-5-.74-7.32-.18-4.14,1-7.77,1.47-11.02-2.18-.81-.91-2.87-.95-4.36-.98-3.7-.05-7.4.06-11.09.28-1.17.07-2.32.65-3.44,1.11q-7.58,3.1-13.94-2.93c-3.45,1.06-7.22,2.27-11.02,3.38-2.96.87-5.95,1.64-8.94,2.41-1.48.38-3.29.23-4.44,1.04-5.74,4.08-12.55,5.05-19.04,6.94-3.57,1.04-6.93,2.31-9.9,4.77-2.59,2.15-5.95,3.4-8.51,5.59-4.34,3.71-9.11,4.74-15.03,3.63-1.04-1.86-2.2-3.95-3.46-6.2-2,.59-4.05,1.2-6.52,1.94-1.63-1.38-3.46-2.85-5.18-4.43-.83-.77-2.05-1.77-2.06-2.67-.02-3.01-1.58-4.4-4.17-5.35-1.1-.4-2.04-1.35-2.93-2.18-1.36-1.26-.87-3.92.8-4.71,7.8-3.65,15.54-7.42,23.42-10.87,4.47-1.95,6.89-4.75,6.61-9.87-.13-2.41.65-4.87,1.03-7.38-4.38-5.24-8.18-10.74-5.79-18.58-5.24-1.73-10.77-2.9-10.73-9.95-2.08-.44-3.86-.72-5.58-1.22-1.15-.33-2.86-.7-3.22-1.53-2.24-5.2-6.99-5.38-11.69-5.98-3.12-3.21-4.71-7.94-9.77-9.36-1.57-.44-2.48-3.21-4-5.33-6.17.72-12.11-.17-15.41-6.8-5.2-.76-10.68-.21-14.49-5.04-.86-1.09-3.38-1.27-5.12-1.21-4.37.16-8.6.42-12.33-2.67-.99-.82-2.89-.83-4.34-.73-1.83.12-3.61.78-5.43,1.13-6.14,1.2-6.32,1.12-11.29-4.35-1.54.11-3.37.12-5.15.4-3.35.53-5.97-.08-7.83-3.34-.61-1.08-2.48-2.06-3.75-2.04-5.99.1-8.9-3.44-11.01-9.03,1.14-.62,2.3-1.71,3.57-1.86C24.11,1.2,44.69-.93,65.4.42c12.59.82,25.27,1.28,37.5,5.09,3.51,1.09,7.25,1.89,10.91,1.98,10.47.27,17.95,6.05,24.67,13.04,4.47,4.65,8.38,9.83,11.41,15.64,2.56,4.92,5.18,9.88,8.35,14.41,4.06,5.8,8.63,11.25,13.12,16.74,2.33,2.85,4.96,5.47,7.74,8.51,1.85-.98,3.77-1.87,5.56-2.98,8.49-5.26,17.95-6.4,27.62-6.35,6.71.04,9.67,2.44,10.78,9.05.7,4.18.48,8.51.72,13.72ZM352.14,135.44c.15,1.37.3,2.75.5,4.67,1.92-2.45,1.74-3.79-.73-4.46-.89-1.56-1.11-3.66-3.32-4.18-2.36-2.81-4.34-6.09-7.16-8.34-12.29-9.82-24.7-19.51-37.32-28.89-8.63-6.41-18.09-8.13-28.91-5.23-14.31,3.84-29,6.17-43.95,5.71-3.35-.1-6.71-.93-9.55,2.07-.7.74-3,.5-4.31.01-4.94-1.83-9.97-2.98-15.21-3.54-1.75-.19-3.58-1.06-5.01-2.11-.99-.73-1.35-2.3-2.41-4.29,5.55.64,9.32,4.38,14.62,3.09.74-.82,1.7-2.01,2.81-3.06,1.13-1.08,2.39-2.02,3.87-.45-.17.6-.3,1.16-.48,1.7-.1.29-.33.54-.4.83-.5,1.99.23,3.89,1.33,3.51.97-.34,2.24-1.24,2.46-2.12,1.32-5.18,1.28-10.36-.49-15.49-.69-2-2.17-3.3-3.98-3.44-8.04-.61-16.23-.96-23.54,3.07-7.8,4.3-15.66,8.57-22.5,14.4.29.81.58,1.61.87,2.42-.26,1.08-.15,2.63-.84,3.14-2.69,2.03-5.74,3.6-8.45,5.61-3.27,2.43-8.33,3.12-8.65,8.64-.04.61-1.29,1.21-2.05,1.72-2.58,1.7-5.21,2.87-8.48,3.2-6.72.67-12.97,4.51-17.15,9.77,2.87.49,5.48.94,8.34,1.43-2.86,3.44-.75,5.48,1.43,8.21,2.22-1.33,4.29-2.51,6.31-3.78,1.53-.96,3.01-2.01,4.51-3.02,1.28.65,2.56,1.3,3.84,1.95-1.06,1.48-2.4,2.84-3.11,4.47-.61,1.38-2.88,2.44-1.22,4.86,5.58-3.01,10.72-6.1,11.52-13.13,3.72-.81,4.08,3.2,6.73,4.71,4.13-2.25,8.53-4.43,12.71-6.98,4.31-2.63,10.1-2.01,13.6-6.32,7.93-2.6,12.58-8.41,15.69-15.82.46-1.1,1.67-1.89,3.03-3.36q.07,8.18-3.99,16.21c3.32-1.93,5.88-3.89,9.43-1.97,1.11.6,3.64-1.45,6.24-2.61.87,1.63,1.61,2.99,2.18,4.06,3.08-2.35,5.48-4.19,7.88-6.03,3.8,1.13,4.48-4.01,7.76-3.84.45.02.87.61,1.49,1.08-.58,1.34-1.18,2.72-1.97,4.56,2.06-.82,3.89-1.54,5.76-2.29.51,1.93.89,3.37,1.28,4.85.83-.34,1.43-.47,1.9-.8,1.27-.88,2.47-1.85,3.68-2.74.08.75.16,1.5.24,2.25.13-.18.41-.42.36-.54-.19-.54-.47-1.04-.71-1.55q1.75-2.38,5.59-.77l-.18-.19q-2.98,5,1.03,10.32c1.48-1.91,2.88-3.72,4.36-5.63,1.43.85,2.44,1.46,3.71,2.22,1.65-1,3.42-2.08,5.48-3.32.33,2.03.59,3.67.82,5.06,4.03,1.74,5.42-2.09,8.01-3.15.44,1.61.82,3.01,1.23,4.54,1.32-.16,2.5-.31,3.69-.46,1.31,1.1.34,3.86,3.4,4.07.62-.63,1.48-1.44,2.28-2.31.75-.81,1.45-1.68,2.57-2.99.56,2.3.92,3.82,1.64,6.79,2.69-4.45,5.81-5.53,9.03-4.94,1.42,1.04-1.17,4.36,2.8,3.27,2.99-.82,2.42,3.11,4.18,3.61,1.94-.64,3.88-2.03,5.31-1.62,4.94,1.42,10.43.68,14.96,3.68l.09-.11c-1.07,1.98-.49,3.96,1.33,4.56,2.75.91,2.4,4.15,3.86,4.82,4.08.5,7.31.9,10.3,1.27,1.07-.91,2-1.69,2.92-2.46v5.39c2-1.36,3.56-2.42,5.13-3.48ZM29.22,7.69c-.99-.57-1.96-1.6-2.96-1.63-3.92-.13-7.87-.14-11.78.2-1.95.17-4.29.05-5.91,2.77,5.83,1.05,11.38.82,16.95.29-1.72,1.6-3.45,3.2-6.49,6.02,4.22-1.61,6.71-3.32,9.22-3.36,5.8-.09,10.74-2.52,15.88-4.54.84,2.93,4.21,2.71,5.82,5.05,2.29-1.07,4.39-2.22,6.63-3.03,1.43-.52,3.34-.55,3.83,1.28.34,1.29.21,3.22-.56,4.17-1.3,1.59-3.34,2.55-4.94,3.93-.51.44-.62,1.35-1.39,3.2,3.74-1.39,6.46-2.4,9.19-3.42-.09,1.02-.17,2.05-.29,3.5,3.32-.95,6.04-1.9,7.86-5.07-3.1-.93-5.18,1.73-7.78,1.78,3-2.95,6-5.91,9.36-9.22.53.94.75,1.83,1.31,2.21.91.61,2.11.78,3.07,1.34,1.19.7,2.3,5.38,1.95,5.86-2.4.73-4.36,1.32-6.27,1.9.32,2.27.58,4.18.78,5.6,6.95,4.47,11.15-1.39,16.12-3.51.85,2.01,1.31,2.39,2.92,2.67l-.19-.08c1.28,2.84-3.91,4.1-1.36,8.28,3.94-3.31,8.4-4.87,13.38-3.79l-.19-.2c-.24,1.72-3.65,1.63-2.17,4.75,3.33-.39,6.82-.81,10.69-1.26v5.63h6.62c.74,3.73,1.43,7.16,2.04,10.23h12.27c1.77-.35,3.3-4.16,7.05-4.76-.59,2.88-1.07,5.15.93,7.02q-6.21,1.67-8.75,5.27c1.12,2.18,2.44,4.23,3.23,6.47.68,1.95,1.82,3.2,3.66,3.77,2.61.81,5.28,1.41,7.9,2.19.45.14.78.71,1.32,1.23-1.19,2.33-2.41,4.71-3.6,7.02,1.39,2.12,2.53,3.87,3.6,5.5,1.53-.31,2.69-.54,3.86-.77l-.19-.18c.47.66.9,1.82,1.44,1.88,1.09.12,2.25-.36,4.38-.79-.83,2.47-1.16,4.17-1.93,5.64-1.43,2.7-3.45,5.14-4.59,7.94-.86,2.12.49,3.41,2.92,3.02,2.17-6.93,2.4-7.36,8.3-12.53,2.32-2.03,4.81-3.85,7.2-5.79,1.34-1.09,2.63-2.25,4.03-3.45-4.75-6.06-9.24-11.51-13.41-17.19-3.26-4.44-6.46-9-9.09-13.83-3.69-6.78-7.61-13.34-12.46-19.37-7.06-8.78-15.7-14.55-27.16-15.83-4.57-.51-9.06-1.72-13.59-2.55-5.14-.94-10.26-2.25-15.44-2.62-9.52-.67-19.09-.97-28.63-.98-3.27,0-6.53,1.35-9.8,2.08-.89-2.64-3.14-2.71-5.2-2.34-3.24.58-6.4,1.57-9.59,2.39ZM41.44,11.88c-1.99,1.27-3.99,2.55-7.61,4.86,4.77-.3,6.91-1.52,7.61-4.86ZM112.19,46.21c-.37.55-1.01,1.23-.9,1.39.47.68,1.17,1.2,1.78,1.78.49-.63.99-1.26,1.48-1.89-.79-.42-1.57-.85-2.35-1.27ZM364.53,148.46c-.1-.52-.04-1.27-.35-1.49-.38-.27-1.07-.11-1.63-.13.15.49.16,1.14.48,1.41.33.27.98.16,1.5.22ZM328.91,134.64c-.17-.46-.31-.95-.55-1.37-.03-.06-.69.05-.77.22-.19.4-.21.89-.3,1.34.54-.06,1.08-.12,1.62-.19ZM227.5,113.56c-.42-.7-.67-1.1-.92-1.51-.55.56-1.16,1.09-1.61,1.72-.08.11.71,1.04.78,1,.63-.33,1.19-.8,1.75-1.21ZM321.6,128.22c-.2.06-.39.13-.59.19.16.35.32.69.48,1.04.14-.19.39-.37.4-.57.02-.21-.19-.44-.3-.66Z"/>
      <path class="cls-1" d="M168.45,88.9c.7.37,1.41.74,2.11,1.11-.41.44-.82.87-1.23,1.31-.29-.81-.58-1.61-.87-2.42Z"/>
      <path class="cls-1" d="M147.68,124.62c-1.16.61-2.32,1.23-3.48,1.84-1.02-.48-2.32-1.61-3-1.32-1.85.81-3.45,2.22-5.43,3.59,3.71-6.62,7.28-9.26,15.37-11.45,1.27,2.79-1.27,4.38-2.02,6.47-.46.31-.94.6-1.44.86Z"/>
      <path class="cls-1" d="M209.8,81.31c-.78.55-1.81,1.7-3.06,2.06-1.63.46-3.19-1.67-2.85-3.69.27-1.58,1.08-2.85,2.89-2.91,1.57-.05,3.21,2.09,3.02,4.54Z"/>
      <path class="cls-1" d="M147.68,124.62c.49-.26.97-.55,1.44-.86q4.14-1.81,6.39.8c-1.31.5-2.67.91-3.92,1.53-1.29.64-2.47,1.48-3.71,2.24-.07-1.24-.13-2.48-.2-3.72Z"/>
      <path class="cls-1" d="M337.28,131.83c.72-1.53,1.45-3.05,2.17-4.58.39.17.77.35,1.16.52-.63,1.52-1.26,3.04-1.9,4.57-.48-.17-.95-.34-1.43-.51Z"/>
      <path class="cls-1" d="M334.25,127c-.2-.5-.52-.99-.53-1.49,0-.2.69-.41,1.06-.61.1.26.34.58.27.78-.19.47-.53.89-.81,1.33Z"/>
      <path class="cls-1" d="M254.2,106.49c.11-.72.21-1.44.32-2.16.13.18.41.43.36.52-.25.5-.58.95-.87,1.44.01.01.19.2.19.2Z"/>
      <path class="cls-1" d="M328.5,125.45c0-.44-.01-.89-.02-1.33-.06.17-.18.34-.16.5.03.24.17.46.27.71,0,.01-.09.13-.09.13Z"/>
      <path class="cls-1" d="M140.94,65.21c-1.19-1.69-2.18-3.11-3.28-4.69,3.39-1.38,6.72-2.73,10.05-4.08,1.9,1.49,2.25,5.41,6.5,4.24-1.12,1.28-2.23,2.56-3.03,3.47-2.5.94-1.43-3.97-4.39-1.83-1.69,1.22-3.78,1.89-5.85,2.88Z"/>
      <path class="cls-1" d="M151.72,77.93c-2.87-2.56-2.84-2.6-.09-4.56.5-.36,1.04-.66,1.57-.98l-.2-.17c-.5,1.98-1,3.97-1.5,5.95l.23-.23Z"/>
      <path class="cls-1" d="M134.31,37.87c-.11,1.33.05,2.25-.31,2.88-.35.62-1.23.94-1.88,1.39-.05-.78-.37-1.69-.09-2.32.3-.66,1.18-1.06,2.27-1.95Z"/>
      <path class="cls-1" d="M125.32,25.71c.05-.55,0-1.15.18-1.65.16-.44.54-1.01.93-1.1.42-.09,1.21.18,1.35.51.17.38-.03,1.28-.35,1.45-.67.37-1.52.41-2.3.59l.18.19Z"/>
      <path class="cls-1" d="M152.03,82.19c-.1-1.42-.2-2.84-.31-4.26,0,0-.23.23-.23.23,1.4.09,2.8.18,4.2.27l-.2-.18c-1.22,1.25-2.45,2.5-3.67,3.76,0,0,.2.19.2.19Z"/>
      <path class="cls-1" d="M155.7,78.42c.08-.84.07-1.7.31-2.49.06-.19.93-.14,1.43-.2-.01.28.09.66-.06.81-.59.6-1.25,1.14-1.89,1.7,0,0,.2.18.2.18Z"/>
      <path class="cls-1" d="M153.2,72.38c.42-.38.81-.79,1.25-1.13.21-.16.52-.17.79-.25-.18.37-.27.94-.55,1.06-.5.2-1.11.13-1.69.16-.01,0,.19.17.19.17Z"/>
      <path class="cls-1" d="M103.57,30.1c.45-.73.82-1.52,1.39-2.13.16-.17.92.24,1.41.38-.11.28-.16.75-.34.82-.86.3-1.77.49-2.65.72,0,0,.19.21.19.21Z"/>
      <path class="cls-1" d="M114.51,20.53q1.9,3.03-1.41,3.96l.19.08c-.33-1.57-.99-3.26,1.32-3.94l-.11-.09Z"/>
      <path class="cls-1" d="M114.62,20.62c.08-.52.15-1.03.23-1.55.33.24.67.49,1,.73-.45.24-.89.48-1.34.73l.11.09Z"/>
      <path class="cls-1" d="M91.74,25.69c.45-.05.89-.1,1.1-.12-.26.01-.75.04-1.27.05-.02-.01.17.07.17.07Z"/>
      <path class="cls-1" d="M113.1,24.49c-.38.15-.76.29-1.39.53.69-.21,1.12-.34,1.57-.46.02,0-.18-.07-.18-.07Z"/>
      <path class="cls-1" d="M125.13,25.53c.12.58.38,1.18.3,1.73-.05.31-.68.52-1.05.77-.03-.28-.18-.63-.06-.83.28-.52.68-.97,1.02-1.47-.02-.01-.2-.2-.2-.2Z"/>
      <path class="cls-1" d="M128.39,34.16c.32.33.92.7.87.95-.08.43-.57.78-.89,1.16-.2-.22-.58-.47-.55-.64.09-.5.36-.96.57-1.47Z"/>
      <path class="cls-1" d="M25.36,9.5c1.32-.67,2.64-1.33,3.95-2-1.32.67-2.64,1.33-3.95,2Z"/>
    </g>
  </g>
</svg>