<?xml version="1.0" encoding="UTF-8"?>
<svg id="Layer_2" data-name="Layer 2" xmlns="http://www.w3.org/2000/svg" viewBox="0 0 329.91 413.16">
  <defs>
    <style>
      .cls-1 {
        fill: #6d442f;
        fill-rule: evenodd;
      }
    </style>
  </defs>
  <g id="_Layer_" data-name="&amp;lt;Layer&amp;gt;">
    <g>
      <path class="cls-1" d="M327.14,251.49c-.89.3-1.59.83-2.12,1.64-.83,1.27-1.3,2.76-2.52,3.87-3.03,1.34-5.6,3.49-8.08,5.74-2.37,2.14-4.61,4.42-7,6.55-3.06,2.73-6.52,4.97-9.52,7.79-.66.62-1.46,1.1-2.21,1.61-4.67,3.13-9.56,5.92-13.78,9.71-1.25,1.11-2.55,2.15-3.74,3.34-1.72,1.72-3.44,3.45-5.22,5.11-1.69,1.58-2.96,3.48-4.11,5.45-.52.9-.9,1.96-1.03,2.99-.27,2.11-.46,4.25.42,6.3.25.59.2,1.19-.02,1.79-1.79,2.45-3.76,4.75-6.25,6.56-.86.63-1.55,1.46-2.38,2.12-2.14,1.71-4.23,3.49-6.49,5.02-2.64,1.79-5.45,3.32-8.17,5.01-1.03.64-2.01,1.36-2.99,2.08-1.47,1.08-2.92,2.21-4.63,2.9-2.13.86-4.07,2.04-5.99,3.29-.89.58-1.82,1.09-2.74,1.64-1.46.86-3.02,1.35-4.73,1.52-3.65.37-7.16,1.29-10.51,2.86-2.06.97-4.18,1.86-6.33,2.58-4.91,1.63-9.79,3.29-14.5,5.45-1.39.63-2.84,1.08-4.41,1.03-1.42-.04-2.67.47-3.85,1.24-1.14.75-2.32,1.44-3.49,2.14-.46.28-1.33-.13-1.5-.61-.31-.89-.25-1.8-.23-2.71.09-3.65.21-7.3.26-10.95.02-1.82-.15-3.65-.15-5.47,0-6.69.06-13.39.06-20.08,0-1.21-.02-2.45-.25-3.64-.89-4.7-.69-9.37-.11-14.09.37-3,.77-6.04-.07-9.06-.2-.72-.16-1.51-.16-2.26-.07-8.52-.14-17.04-.17-25.56,0-2.59.05-5.18.23-7.75.07-1.07.18-2.09-.13-3.14-.27-.9-.2-1.84.13-2.7.61-1.61.54-3.29.56-4.96.03-5.33.1-10.65.08-15.97-.02-4.71.03-9.45-.29-14.15-.21-3.05-.13-6.05-.01-9.08.12-3.34.22-6.69.27-10.03.03-1.97-.02-3.93-.42-5.9-.39-1.93-.49-3.95-.1-5.9.47-2.29.29-4.55-.04-6.8-.4-2.72-.46-5.45-.46-8.19,0-2.58.04-5.14-.46-7.72-.29-1.45-.22-3.06.07-4.53.44-2.26.53-4.53.64-6.8.03-.61.07-1.22.13-1.82.06-.62.94-1.4,1.6-1.41,5.32-.08,10.64-.16,15.96-.2,1.83-.02,3.68-.14,5.47.1,3.2.44,6.37-.16,9.55,0,3.48-.6,6.98-.25,10.47-.11.76.03,1.53.05,2.27.2,3.27.67,6.56,1.21,9.85,1.76.45.07.88.22,1.32.36.92.31,1.5.94,1.89,1.84.44,1,.58,2.05.57,3.11,0,4.86-.02,9.73-.03,14.49-.39.48-.62.89-.95,1.18-1.67,1.45-2.57,3.38-3.26,5.41-.44,1.29-.77,2.62-1.02,3.97-.45,2.5,0,4.85,1.48,6.95.7.99,1.44,1.96,2.13,2.97,1.14,1.69,2.67,2.86,4.52,3.71,1.41.64,2.86,1.01,4.38,1.2.6-.12,1.18-.29,1.78-.37,3.38-.45,5.89-2.26,7.97-4.86,1.85-2.32,2.8-5.04,3.68-7.79.18-.56.2-1.22.13-1.81-.31-2.57-.7-5.13-2.11-7.39-.4-.64-.7-1.34-.91-1.76-.36-2.15-.11-3.98.45-5.71.78-2.35.93-4.76.98-7.18.1-4.26.41-8.52.06-12.77-.09-1.06-.13-2.14-.02-3.19.18-1.72-.24-3.31-.75-4.92-.78-2.5-2.09-4.72-3.46-6.91-.76-1.22-1.9-1.96-3.24-2.4-.57-.19-1.18-.32-1.78-.37-2.73-.22-5.47-.23-8.18-.7-.58-.1-1.22-.02-1.81.07-4.22.63-8.49.79-12.74.8-8.37.02-16.74-.11-25.11-.18-7.3-.06-14.6-.13-21.91-.2-.45,0-.91-.09-1.36-.14-.26-.03-.88-.67-.9-.95-.05-.6-.16-1.2-.14-1.8.06-2.28.23-4.56.23-6.85,0-5.93-.07-11.87-.09-17.8-.01-2.13,0-4.26,0-6.39,0-.76,0-1.53.54-2.06,2.2-1.22,4.26-2.54,6.47-3.53,2.14-.96,3.94-2.26,5.51-3.96.41-.45.8-.95,1.29-1.29,1.94-1.31,3.33-3.13,4.58-5.03s2.93-3.5,3.89-5.62c.55-1.24,1.34-2.38,2.03-3.56,1.77-3.02,3.59-6.01,3.98-9.62.07-.59.37-1.15.6-1.71,1.4-3.34,1.29-6.89,1.03-10.34-.25-3.31-.92-6.62-1.72-9.86-.76-3.08-1.57-6.17-2.87-9.12-1.24-2.82-3.11-5.21-4.76-7.76-1.67-2.57-3.72-4.81-5.98-6.87-1.01-.92-2.15-1.7-3.16-2.63-3.17-2.95-6.86-5.03-10.85-6.62-3.11-1.23-6.23-2.46-9.66-2.49-.75,0-1.49-.25-2.24-.37-.9-.15-1.79-.41-2.7-.42-2.74-.04-5.47,0-8.21.06-.75.02-1.51.18-2.23.41-2.91.92-5.75,2.02-8.27,3.77-1.63,1.14-3.35,2.1-5.17,2.89-1.68.73-3.17,1.78-4.58,2.97-5.85,4.94-10.82,10.69-15.14,16.97-1.54,2.24-2.64,4.79-3.9,7.22-.27.54-.49,1.13-.57,1.73-.35,2.71-1.09,5.37-1.04,8.13.04,2.44-.11,4.88.09,7.3.22,2.72.57,5.45,1.17,8.11.74,3.29,2.36,6.24,4.22,9.05,1.52,2.29,2.92,4.61,3.83,7.23.5,1.44,1.29,2.75,2.36,3.87,2,2.09,3.99,4.19,5.99,6.27,1.38,1.44,2.9,2.7,4.83,3.36,1.33.46,2.41,1.28,3.41,2.23.55.52,1.15,1,1.82,1.58.9.32,1.92.63,2.9,1.03.4.16.73.48,1.16.77.13,1.98.26,3.94.37,5.72.58.94,1.05,1.71,1.44,2.34.07,3.98.16,7.77.19,11.57,0,1.52-.12,3.02-.5,4.52-.66,2.64-1.02,5.32-.99,7.95-.5.6-1.07.73-1.7.76-3.19.1-6.41,0-9.57.4-3.32.41-6.7.3-9.95,1.23-.43.12-.91.1-1.36.11-5.02.04-10.04.08-15.06.09-2.43,0-4.86-.14-7.3-.09-3.5.07-6.99.26-10.49.37-.6.02-1.2-.11-1.89-.19-1.08-.77-2.17-1.6-3.31-2.34-2.97-1.91-6.08-3.28-9.75-3.44-4.42-.2-8.02,1.33-11.15,4.26-1.12,1.05-1.93,2.35-2.41,3.83-.24.72-.4,1.47-.68,2.18-1.11,2.81-.74,5.7-.37,8.56.11.88.52,1.77.99,2.54,1.11,1.82,2.45,3.49,4.16,4.81,1.82,1.4,3.75,2.47,6.12,2.86,1.84.3,3.63.43,5.43.16,2.26-.33,4.52-.7,6.73-1.23,1.87-.45,3.61-.4,5.4.58,1.27-.3,2.14-.59,3.04-.71.9-.12,1.82-.07,2.73-.09,3.8-.11,7.6-.3,11.4-.32,3.04,0,6.05-.43,9.09-.45,8.52-.06,17.04-.24,25.56-.33.9-.01,1.82.16,2.68.41.35.1.69.59.85.97.16.4.21.91.13,1.33-.52,2.57-.49,5.17-.2,7.73.48,4.24.54,8.49.71,12.75.1,2.43-.02,4.86.59,7.26.22.87.21,1.81.21,2.73,0,3.04-.02,6.08-.08,9.13-.02,1.06-.06,2.14-.27,3.18-.76,3.76-.56,7.57-.52,11.37.02,1.83.04,3.65.05,5.47.02,4.71-.22,9.43.47,14.13.15,1.04.05,2.13-.07,3.18-.43,3.79-.57,7.58-.32,11.39.06,1.06.1,2.14,0,3.19-.36,3.64-.32,7.29-.28,10.95.01,1.22.1,2.48-.16,3.64-.7,3.01-.59,6.04-.63,9.08-.03,1.67.05,3.37-.22,5.01-.35,2.12.26,4.27-.39,6.35-.08.27-.05.63.05.9.63,1.76.29,3.64.67,5.41.68,3.15.61,6.35.8,9.53.42,7.15.07,14.31-.04,21.45-.05,3.34.05,6.7-.52,10.02-.15.87.06,1.81.14,2.72.16,1.81.41,3.62.52,5.44.32,5.18-.07,10.34-.27,15.5-.09,2.26-.59,4.52-.95,6.76-.06.42-.37.78-.56,1.14-.83.18-1.57.32-2.3.5-.73.18-1.44.4-2.07.57-.88-.27-1.58-.56-2.32-.72-5.37-1.18-10.5-3.14-15.5-5.32-5.57-2.44-11.25-4.66-16.56-7.65-.4-.23-.82-.41-1.24-.59-2.37-1.03-4.79-1.96-7.09-3.12-3.94-1.98-7.96-3.8-11.63-6.29-5.43-3.67-10.55-7.73-15.58-11.91-.46-.38-.82-.88-1.1-1.19-.17-2-.42-3.8-.46-5.6-.05-2.46-.64-4.82-1.22-7.18-.62-2.48-.84-5.08-2.46-7.25-.52-.69-.57-1.72-.89-2.57-.27-.7-.52-1.47-.98-2.04-1.16-1.43-2.09-2.98-3.01-4.56-.62-1.08-1.51-1.9-2.61-2.49-.53-.29-1.04-.62-1.59-.88-1.95-.9-3.73-2.04-5.28-3.55-.42-.41-.96-.83-1.51-.94-1.72-.38-3.06-1.32-4.24-2.55-.75-.78-1.56-1.47-2.59-1.83-1.9-.66-3.51-1.81-5.15-2.9-2.8-1.85-5.51-3.82-8.37-5.54-3.91-2.36-7.72-4.86-11.44-7.5-1.74-1.23-3.42-2.54-5.34-3.49-1.25-.62-2.21-1.6-3.06-2.69-.84-1.08-1.67-2.17-2.54-3.23-.53-.64-1.94-.64-2.49-.05-1.91,2.05-2.6,4.42-1.87,7.15.24.88.63,1.73.74,2.62.24,1.98.63,3.9,1.4,5.74.23.55.32,1.17.45,1.76.8,3.55,1.35,7.17,2.67,10.6.16.42.17.89.29,1.34.83,3.08,1.7,6.15,2.48,9.24.44,1.76.89,3.52,1.19,5.33.68,4.04,1.51,8.07,2.47,12.05.97,3.99,2.09,7.95,3.87,11.67,1.3,2.74,2.81,5.38,3.82,8.27.71,2.04,2.12,3.73,3.98,4.87,2.47,1.51,5.05,2.83,7.87,3.58,2.05.54,4.12,1.01,6.19,1.52,3.39.83,6.84,1.44,10.25,2.17,3.71.81,7.4,1.67,11.24,2.43,2.49,2.36,5.02,4.77,7.56,7.17,1.1,1.05,2.15,2.16,3.33,3.12,5.77,4.71,11.58,9.38,17.38,14.05.47.38.98.74,1.51,1.02,2.16,1.16,4.07,2.69,5.98,4.18,4.1,3.18,8.59,5.74,12.95,8.52,3.59,2.28,7.32,4.36,11.16,6.19.55.26,1.05.61,1.58.9,3.44,1.94,6.86,3.91,10.32,5.83,1.06.59,2.19,1.07,3.3,1.55,1.54.66,3.08,1.31,4.65,1.89,5.3,1.96,10.19,4.73,15.12,7.45,2.79,1.54,5.68,2.92,8.56,4.3,1.31.63,2.69.62,3.88-.32.99-.79,2.13-1.08,3.32-1.4,3.71-.98,7.17-2.58,10.27-4.81,2.12-1.53,4.35-2.76,6.7-3.86,2.89-1.35,5.85-2.62,8.58-4.25,3.4-2.03,6.94-3.79,10.36-5.78,1.05-.61,2.13-1.18,3.13-1.88,4.74-3.32,9.95-5.88,14.72-9.14,3.52-1.5,6.53-3.88,9.85-5.74,1.99-1.11,3.92-2.34,5.78-3.65,5.85-4.11,11.77-8.11,17.45-12.45,8.1-6.19,16.07-12.54,23.4-19.64.2-.19.54-.25.82-.37,2.76.62,2.8.69,5.16-.54,2.62-1.36,5.44-1.95,8.28-2.4,2.58-.41,5.05-1.15,7.4-2.21,4.16-1.87,8.26-3.86,11.97-6.55,2.35-1.01,3.78-2.98,5.23-4.95,1.38-1.86,2.05-4.06,3.07-6.1,1.44-2.88,2.47-5.91,3.07-9.04.62-3.27,1.34-6.55,1.32-9.92-.01-1.98-.04-3.98.25-5.92.65-4.21,1.08-8.44,1.7-12.65.58-3.93.74-7.86.78-11.82.04-3.95.04-7.91.73-11.82.14-.73.09-1.51.05-2.27-.06-1.13-1.63-2.13-2.73-1.76ZM80.93,147.55c-.81.39-1.6.91-2.46,1.08-4.8.97-8.98-.49-12.54-3.66-2.2-1.96-2.76-4.63-2.29-7.47.22-1.32.73-2.6,1.16-3.88.08-.23.43-.41.7-.49.08-.03.4.35.41.55.02.45-.06.9-.14,1.35-.57,3.62.71,6.49,3.4,8.88,1.04.92,2.14,1.68,3.46,2.1,1.29.41,2.62.71,3.84,1.05,1.77.07,2.85-.79,4.1-.51.34.08.52.31.5.61-.01.14-.03.36-.11.4ZM83.15,138.36c-1.13,1.68-1.17,3.37-.2,5.13.21.39-.34.95-.76.79-1.31-.48-2.58-.66-3.97-.15-.66.24-1.5.15-2.23.02-1.04-.18-2.05-.54-3.06-.83-1.28-.88-2.38-1.91-3.32-3.12-1.47-1.91-1.38-4.38.2-6.26.39-.47,1.23-.45,1.57.04.43.63.83,1.29.73,2.1-.09.75-.23,1.49-.32,2.1.26.89.61,1.54,1.3,1.97.94.59,1.98.89,3.04.7,1.6-.29,2.66-1.36,3.26-2.85.18-.44-.55-1.39-1.01-1.27-.87.23-1.71.55-2.71.88-.76-.14-.54-1.15-1.04-1.65-.42-.43-.73-.96-1.15-1.53v-3.91c-.52-.72-.96-1.33-1.47-2.03.49-.1.9-.25,1.3-.25,1.08,0,2.11.24,3.14.88.08.34.26.76.27,1.19.03.82.38,1.46,1.01,1.94.6.46,1.25.85,1.88,1.27q1.82,1.23,3.63,3.95c-.02.29.06.66-.08.88ZM311.45,272.08c.17-.12.45-.08.68-.08.03,0,.06.23.08.36-.05.12-.08.27-.17.36-.34.36-1.18.35-1.07.02.09-.25.26-.51.48-.66ZM304.98,277.73c.54-.52,1.07-1.08,1.71-1.46.52-.32,1.16-.26,1.66.23-.63,1.66-1.28,2.13-2.94,2.13-.13,0-.27-.1-.4-.17-.27-.16-.31-.45-.03-.73ZM300.99,281.81c.69-.35,1.44-.47,2.16,0,0,.89-.67,1.26-1.28,1.67-.81.54-1.68.56-2.59.37.12-1.19.93-1.64,1.72-2.05ZM292.14,287.88c.35-.27.71-.63,1.11-.71,1.62-.3,3.26-.51,4.89-.73.1-.02.28.14.33.26.05.12.02.32-.05.44-.48.83-1.26,1.29-2.18,1.44-.74.13-1.5.1-2.63.17-.22-.03-.81-.09-1.4-.19-.09-.01-.22-.17-.22-.27,0-.14.05-.34.15-.42ZM286.62,291.78c.9-.02,1.95-.04,2.99-.09.9-.04,1.8-.15,2.69-.16.18,0,.4.29.53.49.04.07-.06.31-.16.4-.34.28-.68.68-1.08.76-1.9.41-3.78.98-5.76.83-.29-.02-.57-.15-.86-.23-.14-1.14.81-1.43,1.65-2ZM280.29,296.9c.21-.2.46-.45.72-.49,2.07-.3,4.14-.42,6.22-.17.14.02.27.13.4.19-.04.67-.36,1.16-1.04,1.18-1.94.07-3.88.09-5.82.12-.14,0-.29-.07-.41-.16-.09-.06-.18-.17-.18-.27,0-.14.03-.34.12-.42ZM275.58,301.97c.07-.13.19-.27.31-.31,1.99-.59,3.98-1.19,6-1.7.34-.09.78.19,1.15.3-.01.25.03.44-.04.55-.81,1.1-1.94,1.8-3.09,2.48-.12.07-.28.11-.42.13-1.34.11-2.67.09-3.87-.63-.09-.05-.1-.27-.11-.41,0-.13,0-.28.07-.39ZM179.52,365.93c1.49-.42,2.89-1.36,4.61-1.51,1.48-.14,2.9-.9,4.38-1.21,1.95-.41,3.78-1.11,5.62-1.81,2.41-.91,4.85-1.76,7.3-2.56,2.61-.85,5.13-1.9,7.47-3.34,1.3-.8,2.63-1.47,4.11-1.9,1.3-.38,2.63-.86,3.77-1.58,3.99-2.56,8.58-3.82,12.75-6.01,3.22-1.7,6.49-3.29,9.59-5.21,2.84-1.76,5.76-3.39,8.65-5.05,3.85-2.21,7.39-4.75,10.49-7.93,2.35-2.4,4.89-4.55,7.99-5.98.81-.38,1.64-.88,2.24-1.53,2.31-2.46,5.09-4.32,7.75-6.34,1.33-1.01,2.67-2.02,4.04-2.96.32-.22.78-.22,1.2-.3.18-.57.48-.78.88-.88.25-.42.38-.56.57-.49-.04.09-.05.23-.13.27-.07.04-.17.04-.26.05-.24.61-.49.86-.93.93-.29.51-.37.97-.65,1.24-1.72,1.72-3.49,3.38-5.24,5.06-.22.21-.43.44-.66.63-3.3,2.68-6.56,5.42-9.94,7.99-1.57,1.2-3.17,2.36-4.62,3.69-1.46,1.35-3.04,2.5-4.81,3.43-1.49.77-2.84,1.74-4.11,2.85-.91.8-1.9,1.52-2.93,2.17-2.7,1.69-5.5,3.23-7.99,5.25-.12.09-.25.18-.38.25-4.52,2.17-8.86,4.7-13.52,6.54-7.5,2.97-14.69,6.55-21.54,10.81-1.28.8-2.66,1.45-4,2.16-.13.07-.3.08-.43.15-1.99,1.11-3.91,2.35-5.97,3.3-1.92.89-4.07,1.29-5.95,2.24-2.87,1.46-5.99,2.18-8.96,3.28-.96.36-2.1.4-3.14.34-2.43-.13-4.84-.07-7.14.36-.34-.27-.68-.4-.79-.64-.52-1.14-.54-2.33-.27-3.55.59-.03.51.47.63.79.29.71.83,1.09,1.31.92.86-.3,1.75-.55,2.55-.96.32-.17.5-.71.61-1.11.03-.11-.37-.45-.62-.52-.58-.16-1.23-.13-1.78-.35-.37-.15-.62-.59-.9-.88.35-.65.82-1,1.43-1.16,1.05-.27,2.11-.21,3.16.02,1.48.32,2.96.66,4.58,1.03ZM173.11,375.09c-.03.11-.21.23-.34.27-1.3.41-1.31.43-2.99-.23.28-.8.9-1.18,1.71-1.21.59-.03,1.24-.13,1.67.39.13.15.02.53-.05.78ZM173.71,288.88c-.12-.08-.28-.12-.4-.21-1.19-.88-1.42-1.96-.62-3.07.17-.24.42-.42.64-.63.38-.36.4-.81.17-1.21-.22-.38-.63-.66-.87-1.03-.63-.96-.59-1.99-.22-3.03.17-.47.94-.92,1.47-.84.55.08,1.17.62,1.25,1.13.07.44.17.89.17,1.34.02,1.51.01,3.02.01,4.53.02,1.65.05,3.31.01,4.97-.01.59-.14,1.19-.25,1.78-.19.97-.86,1.6-1.44,1.37-.57-.22-.88-.96-.76-1.9.08-.61.36-1.08.85-1.51.92-.79.86-1.07,0-1.68ZM173.23,199.95c.02-.13.18-.35.23-.34.24.05.56.11.69.29.15.2.14.53.2.8-.02.15.02.32-.06.42-.15.2-.33.42-.56.51-.27.11-.55-.09-.58-.43-.03-.41.02-.84.08-1.26ZM173.22,193.77c0-.37.15-.45.33-.22.06.08.07.24.04.34-.02.08-.14.12-.22.18-.06-.1-.15-.21-.15-.31ZM169.7,357.68c1.55-.44,3-.17,4.32.74.3.2.43.48.27.79-.13.24-.34.56-.56.6-1.48.27-2.97.47-4.3.67-.75-.41-1.07-.86-.91-1.56.15-.64.58-1.07,1.18-1.24ZM168.93,352.93c.96-.78,2.03-1.23,3.28-.98.21.04.45.37.5.61.05.25-.02.63-.19.8-.95.97-2.22,1.38-3.4,1.89-.71-.86-.77-1.84-.19-2.31ZM174.37,301.7c-.25.14-.41-.02-.37-.41.01-.11.18-.2.27-.29.08.11.16.22.24.32-.05.13-.06.31-.15.37ZM174.38,304.88l-.25-.04.18-.25.07.3ZM174.28,306.44c.82,1.34.59,2.58-.08,3.92-.63-1.37-.9-2.62.08-3.92ZM169.31,362.22c.36-.23.85-.27,1.29-.34,1.37-.23,2.7.1,4.07.21-.08.22-.09.44-.18.48-1.79.82-3.68,1.25-5.63,1.38-.3.02-.51-.42-.36-.72.19-.37.45-.78.8-.99ZM174.46,315.81c-.31-.09-.44-.35-.36-.69.02-.11.16-.21.25-.31.2.19.4.37.61.56-.04.12-.03.29-.11.36-.09.08-.27.12-.39.08ZM175.16,319.6c.1.33.26.62.25.9-.07,1.95.07,3.91,0,6.2-.36-.47-.58-.63-.58-.78-.07-1.96-.12-3.93-.13-5.89,0-.14.29-.27.46-.42ZM175.31,233.16c-.04.4-.38.81-.68,1.12-.17.18-.56.25-.82.19-.25-.05-.57-.28-.65-.5-.56-1.67-.19-3.25.57-4.69q-.99-2.58-.17-5.22c-.21-.72-.5-1.42-.61-2.16-.06-.4.16-.85.29-1.27.04-.1.23-.24.33-.22.27.05.71.09.76.25.38,1.14.88,2.28.97,3.45.24,3.01.34,6.04.01,9.05ZM174.12,258.13c-.53-.68-.49-1.4-.18-2.14.04-.1.21-.16.31-.24.09.12.23.24.25.37.14.71.39,1.45-.38,2ZM174.36,263.19c-.02.08-.17.19-.26.19-.13,0-.3-.06-.37-.16-.15-.22-.38-.5-.35-.73.07-.56.18-1.15.86-1.38.37.67.28,1.38.12,2.08ZM174.3,250.49c-.26.2-.52.19-.75-.06-.09-.1-.22-.26-.2-.37.38-2.22-.76-4.45,0-6.67.05-.13.16-.29.28-.34.23-.09.49-.11.73-.16q.43,2.93-.06,7.6ZM173.19,266.35c.08-.39.75-.93.94-.75.19.18.39.41.45.65.09.42.07.87.11,1.37-.03.37-.02.82-.14,1.22-.06.2-.37.37-.59.46-.32.12-.56-.06-.68-.39-.32-.85-.26-1.71-.07-2.57ZM174.36,240.48c-.06.1-.22.19-.34.19-.14,0-.34-.06-.41-.16-.76-1.08-.84-2.22-.23-3.39.17-.33.84-.54,1.17-.31.23.16.38.42.57.64,0,1.07-.17,2.1-.76,3.02ZM173.95,138.62c.15-.19.47-.34.72-.34.47,0,.75.48.6.9-.16.3-.39.42-.7.35-.43-.09-.84-.64-.62-.91ZM173.73,205.01c.33.04.51.23.56.55.07.46-.5.94-.84.67-.19-.16-.31-.51-.31-.77,0-.34.27-.49.59-.46ZM173.17,209.84c.19-.41.79-.49,1.11-.14.19.21.25.52.43.89-.12.32-.23.75-.44,1.11-.21.34-.92.19-1.1-.18-.29-.58-.27-1.11,0-1.69ZM173.02,215.4c.07-.21.42-.31.64-.46.33-.06.61.06.7.4.11.42.2.86.18,1.29-.03.69-.69,1.33-1.1,1.14-.44-.21-.58-.63-.6-1.05-.01-.44.03-.9.16-1.31ZM172.87,272.5c.08-.2.44-.41.68-.41.26,0,.6.17.77.38.51.63.43,1.42.47,2.4-.02.22-.02.69-.14,1.11-.08.24-.36.47-.59.6-.29.17-1.04-.22-1.14-.52-.4-1.18-.47-2.37-.04-3.55ZM173.5,296.45c.14,0,.3-.03.43.03.58.25.86.72.77,1.35-.03.25-.19.53-.38.7-.28.25-.86.07-1.1-.26-.47-.62-.31-1.57.29-1.82ZM173.49,342.35c.04.38-.27,1.05-.56,1.12-1.14.28-2.29.53-2.64.62-1.33.09-1.88-.52-1.92-1.14-.05-.81.4-1.58,1.03-1.79,1.01-.34,2.02-.45,3.05-.13.51.16.96.71,1.03,1.32ZM172.92,338.76c-1.04.72-2.17,1.02-3.38.87-.68-.01-1.18-.42-1.31-1.03-.16-.78.2-1.76.74-1.96,1.16-.43,2.34-.5,3.52-.07.13.05.24.18.36.26.64.43.68,1.51.08,1.92ZM168.52,346.74c.07-.47.75-1.05,1.3-1.11,1.09-.13,2.09.06,3,.74.99.74.9,2.55-.24,3.07-.96.43-1.98.74-2.98,1.08-.34.12-1.04-.31-1.08-.63-.07-.6-.14-1.2-.2-1.76.07-.5.13-.94.2-1.39ZM178.4,139.48c-.44,0-.79-.38-.74-.86.03-.37.25-.73.36-1.04.27,0,.46-.06.55,0,.52.38.63.93.44,1.49-.06.19-.4.39-.62.4ZM179.35,142.56c-.31.14-.58.04-.69-.29-.02-.07.16-.21.25-.31.31-.09.57,0,.7.29.02.05-.15.25-.27.3ZM182.55,139.51c-.14-.16-.48-.43-.6-.77-.2-.56.15-1.25.59-1.43.29-.12.96.13,1.13.41.29.48.22,1.06-.15,1.56-.2.27-.43.38-.97.23ZM183.71,142.27c-.1-.06-.21-.12-.32-.18.12-.04.27-.12.37-.09.45.14.43.24-.06.27ZM188.31,141.42s-.07-.14-.11-.22c.14-.02.28-.05.41-.08.04.08.07.15.11.23-.14.03-.27.07-.41.07ZM188.8,139.4c-.77.16-1.43-.03-1.97-.62-.36-.4-.1-1.34.42-1.45.88-.19,1.74-.3,2.48.39-.05,1.14-.29,1.55-.94,1.69ZM197.23,138.5c-1.28.45-2.62.65-3.98.47-.27-.04-.51-.28-.86-.49.12-.38.13-.94.4-1.14,1.27-.96,2.73-1.2,4.28-.84.14.03.29.12.38.23.18.22.51.53.46.72-.11.39-.35.94-.67,1.05ZM254.55,178.05c.13.44.19.89.27,1.27-.26,3.25-2.2,5.68-3.74,8.41-.52.4-1.13.85-1.73,1.31-1.29.98-2.78,1.28-4.32,1.01-3.33-.59-6.02-2.09-7.21-5.5-.35-.99-.6-2.03-.88-2.98.39-1.75.95-3.31,1.89-4.72.13-.2.4-.29.63-.42-.08-1.12.32-2.08,1.07-2.85,1.93-1.96,4.22-2.94,7.01-2.23.73.19,1.46.42,2.25.66.21.11.5.22.74.39,3.73,2.67,2.8,1.59,4.02,5.65ZM243.67,159.65c-.41-.82-.55-1.71-.47-2.62.03-.36.26-.7.43-1.15.2.4.41.64.47.92.6,3.07.72,6.22,1.58,9.24.1.34-.32.9-.71,1.01-.15.04-.29.1-.43.11-.6.04-1.2.09-1.82-.41.18-.5.29-1.09.59-1.57,1.1-1.8,1.31-3.62.36-5.54ZM184.18,133.25c.76-.04,1.53.03,2.27-.07.6-.08,1.16-.37,1.37-1.04-.55-.88-1.74-.34-2.45-1.2,3.86-.28,7.63-.35,11.41-.26,1.67.04,3.35.07,5.01,0,2.74-.11,5.47.05,8.2,0,5.01-.11,10.02.32,15.03-.05,3.33-.25,6.67-.23,10.01-.47,3.62-.25,7.24.48,10.85.98.73.11,1.42.5,2.27.81.26.45.66.93.83,1.48.37,1.2.97,2.2,1.83,3.11.4.41.61,1.02.87,1.56.04.08-.07.28-.17.35-.1.07-.35.09-.41.03-.86-1.04-1.66-2.13-2.54-3.15-.79-.91-1.6-1.85-2.78-2.3-.26-.1-.62-.17-.86-.07-.22.09-.45.41-.47.65-.03.25.11.62.3.79,2.31,2.05,3.62,4.86,5.46,7.26.44.58.58,1.39.91,2.24-.78,4.25-.62,8.66-.69,13.06-.02,1.21.38,2.42.05,3.63-.04.14-.12.27-.22.39-.06.07-.17.09-.25.13-.44-.52-.35-1.15-.27-1.74.28-2.15-.21-4.23-.55-6.31-.05-.28-.27-.54-.42-.8-.27-.47-1.24-.64-1.59-.26-.3.33-.51.74-.81,1.08-.52.58-1.16.94-1.99.94-.82-1.01-.38-2.35-.92-3.45-.53-1.08-.97-2.22-1.45-3.35-1.02-.72-2.01-1.41-2.99-2.11-1.38-.99-2.91-1.51-4.59-1.85-2.52-.5-5.11-.68-7.57-1.49-.12-.04-.21-.2-.29-.32-.16-.27-.01-.48.42-.48.76,0,1.55-.08,2.26.12,2.68.75,5.42.54,8.14.57.15,0,.34-.02.43-.11.19-.19.39-.42.5-.66.15-.33.03-.65-.3-.75-.57-.18-1.14-.39-1.72-.45-5.75-.52-11.51-.82-17.28-.94-.3,0-.6-.08-1.18-.17-.78-.5-1.41-.91-1.97-1.26-.41.09-.74.08-.97.23-1.03.69-2.14,1.15-3.4,1.17-1.05.01-2.11,0-3.15,0-.36-.4-.65-.74-.95-1.07-.3-.33-.97-.48-1.22-.32-.13.08-.3.14-.38.25-1.17,1.61-2.76,1.68-4.49,1.24-.51-.13-.93-.78-.9-1.41.02-.39.44-1.02.72-1.06.3-.05.6-.14.89-.16.76-.05,1.53,0,2.28-.1,1.35-.17,2.69-.5,4.04-.6,1.36-.1,2.73.03,4.1-.03.4-.02.79-.34,1.22-.54-.28-.26-.46-.52-.71-.62-.27-.11-.6-.11-.9-.1-2.73.08-5.46.19-8.2.25-1.37.03-2.71.11-4.06.43-1.03.25-2.1.38-3.16.4-3.95.05-7.9.08-11.85.04-1.2-.01-2.4-.28-3.61-.4-.44-.05-.93-.09-1.32.05-1.38.5-2.68.07-4.08-.3-.76.41-1.54.88-2.37,1.26-.21.09-.57-.03-.81-.15-.36-.19-.31-.86,0-1.2.43-.46.94-.77,1.57-.81,3.34-.18,6.67-.35,10.01-.5ZM176.37,77.66c-.32-.11-.62-.83-.45-1.15.2-.38.47-.74.77-1.05.3-.31.93-.22,1.16.15.15.24.22.54.33.81,0,.66-.35,1.2-.95,1.32-.27.06-.59.01-.85-.08ZM178.13,81.11c-.15-.05-.35-.06-.37-.13-.08-.26-.24-.66-.12-.78.38-.41.86-.74,1.31-1.07.08-.05.29.01.39.08.09.07.17.24.15.33-.2.75-.64,1.29-1.36,1.56ZM186.27,78.89c-.69.93-1.34,1.9-2.41,2.47-.9,1.54-2.26,2.08-3.7,2.47-.17.05-.47-.24-.65-.43-.07-.07-.03-.31.04-.43.45-.86,1.16-1.42,2.09-1.55.68-.09,1.4.02,2.1.07.1-.53.06-.93.04-1.33-.06-1.01.47-1.71,1.25-2.24.34-.23.7-.53,1.17-.27.29.17.34.89.09,1.23ZM181.76,73.52c-.2.57-.59,1.03-1.16,1.22-.21.07-.59-.08-.77-.26-.18-.18-.33-.54-.28-.77.15-.6.6-.97,1.18-1.18.37-.13.95.18,1.04.64,0,.06.04.22,0,.35ZM182.96,75.45c.12-.06.31-.1.4-.05.31.18.41.51.2.79-.36.46-.76.9-1.22,1.26-.26.21-.58.03-.76-.29.29-.7.65-1.36,1.37-1.71ZM183.87,69.44c.1-.4.39-.6.77-.69.25-.36.32-.54.47-.49-.03.09-.03.23-.09.27-.42.58-.44.94-.51,1.29-.02.11-.2.29-.26.27-.33-.09-.46-.33-.38-.64ZM188.16,71.36c-.45.93-1.03,1.76-2.09,2.31-.24-.3-.75-.64-.72-.92.16-1.18.71-2.21,1.71-2.91.19-.13.6-.14.8-.02.21.11.37.44.41.7.05.27,0,.59-.12.84ZM190.78,67.3c-.39.42-1.1.5-1.63.07-.21-.17-.41-.54-.37-.77.22-1.22.8-2.26,1.74-3.09.42-.36,1.06-.43,1.69-.1.13.07.22.21.33.31,0,.15.05.31.02.45-.3,1.2-.93,2.22-1.77,3.12ZM194.55,60.05c-.56.49-1.06.26-1.5-.22,0-1.12.57-1.97,1.33-2.68.17-.16.6-.2.81-.1.21.1.4.44.42.7.09.95-.37,1.7-1.06,2.3ZM196.08,54.03c-.62-.06-1.15-.67-.99-1.23.26-1,.28-2.08.98-2.93.68-.01,1.08.39,1.28.96.32.88.19,1.76-.17,2.61-.14.34-.65.63-1.1.59ZM197.87,63.81c-.05.08-.18.11-.29.16-.31.32-.4.44-.49.55.02-.1.02-.24.09-.29.42-.52.42-.77.46-1.02.02-.14.11-.28.17-.42.65.3.28.68.06,1.02ZM200.6,50.76c.74.09,1.08.61,1.06,1.24-.02.92-.32,1.8-.95,2.5-.13.14-.52.09-.78.06-.1-.01-.27-.26-.24-.36.31-1.15.1-2.44.9-3.44ZM199.6,58.26c.53,1.1-.2,1.81-.78,2.57-.38-1.06-.26-1.95.78-2.57ZM170.88,6.44c1.21.03,2.18-.03,3,.68.1.09.19.24.19.38.02.28-.2.5-.52.43-.85-.16-1.66-.44-2.31-1.05-.08-.07-.1-.2-.13-.32-.46-.15-.69-.18-.91-.23-.09-.02-.17-.1-.25-.15.43-.23.69,0,.93.28ZM158.59,4.28c-.59.36-1.14.37-1.69-.07.59-.35,1.15-.41,1.69.07ZM141.75,10.12c.36-.2.49-.36.66-.49.09-.08.31-.11.39-.05.31.23.22.37-.23.4-.2.02-.4.06-.6.1-.29.21-.43.31-.58.41.12-.13.24-.25.36-.37ZM132.62,17.46c.02-.15,0-.33.07-.43,1.26-1.83,2.91-3.29,4.69-4.6.48-.36,1.05-.45,1.64-.39.38-.84,1.04-.84,1.69-.85.23-.22.35-.35.47-.47-.11.13-.22.26-.26.47-.63.5-1.13.86-1.83.8-.12.33-.11.68-.27.83-1.74,1.56-3.51,3.1-5.3,4.6-.18.15-.56.09-.85.12.04.31-.23.63-.38.51-.58-.5.03-.47.32-.56ZM119,52.27c.05.83-.04,1.68-.09,2.51.26.42.42.54.55.7.06.09.09.3.02.39-.2.32-.34.24-.39-.2-.02-.21-.05-.41-.08-.61-.36-.59-.7-.89-.76-1.23-1.08-6.73-.3-13.19,2.86-19.29.21-.4.45-.79.75-1.12.16-.18.45-.24.7-.35.13-.69.15-1.24.24-1.78.06-.37.31-.63.62-.84,0-.09.02-.17.03-.26.19-.98.22-1.8.61-2.56.4-.81.83-1.62,1.14-2.46.98-2.65,2.67-4.7,5.06-6.18.31.18.44.46.26.76-.83,1.44-1.61,2.91-2.54,4.28-1.41,2.04-2.92,4-4.4,6,0,.08-.02.17-.02.25-.07.03-.06.13-.13.17-.05.51-.08,1.01-.15,1.51-.05.41-.24.76-.63.96-.09.57-.04,1.01-.19,1.38-.41.96-.92,1.87-1.34,2.71.14,1.18.32,2.21.35,3.25.02.58-.02,1.37-.37,1.7-1.22,1.15-1.48,2.53-1.44,4.08.01.44-.09.9-.23,1.32-.51,1.6-.54,3.23-.43,4.89ZM144.12,81.49c-.1.2-.48.41-.71.39-.89-.09-1.78-.37-2.67-.41-1.97-.08-3.43-1.03-4.62-2.52-.54-.68-1.36-1.15-1.61-2.07-.5-.1-.99-.06-1.34-.27-1.17-.69-2.29-1.47-3.58-2.32-.91-1.2-1.94-2.51-2.92-3.85-.53-.73-1.01-1.52-1.45-2.31-1.31-2.4-2.33-4.94-3.18-7.53-.66-2.01-1.1-4.08-1.04-6.25.07-2.73-.06-5.46-.09-8.19-.02-1.43.34-2.7,1.56-3.61.11-.08.15-.26.22-.38.72-4.82.77-4.95,3.46-8.75-.2-.68-.42-1.38-.62-2.05q1.21-2.69,4.98-6.84c.53.25,1.07.5,1.57.72.89-.66.83-1.67,1.18-2.47.99-2.31,2.39-4.21,4.76-5.26.42-.18.82-.4,1.21-.62.81-.46,1.48-1.07,1.78-1.98.46-1.43,1.52-2.17,2.83-2.74,2.08-.9,4.32-1.38,6.32-2.49.37-.2.89-.13,1.34-.2.59-.09,1.27-.06,1.75-.34,1.71-1,3.5-.87,5.3-.5,2.08.42,4.16.84,6.2,1.4,1.92.52,3.95.05,5.84.79,1.69.66,3.45,1.16,5.27,1.37.6.07,1.18.31,1.78.38,2.79.35,5.16,1.71,7.52,3.1.51.3,1.02.7,1.36,1.18,1.16,1.62,2.65,2.9,4.13,4.21.68.59,1.22,1.34,1.79,2.05.38.48.48,1.05.43,1.65.65.21.95.64,1.25,1.07.21.3.14.48-.25.54-.13.02-.31-.02-.4-.1-.41-.38-.51-.88-.51-1.41-.67-.1-1.24-.14-1.8-.05-.19.03-.48.43-.46.63.05.44.21.89.43,1.28.68,1.18,1.42,2.33,2.12,3.5.63,1.04,1.2,2.1,1.41,3.33.27,1.59,1.13,2.72,2.56,3.54.87.5.93,1.51.4,2.43-.23.39-.54.72-.79,1.11-.4.63-.47,1.26.05,1.62,1.16.8,1.42,1.85,1.28,3.17-.14,1.38-.93,2.18-2.19,2.78-.27-.27-.76-.53-.84-.88-.32-1.48-.51-2.99-.79-4.48-.08-.43-.29-.87-.55-1.22-.14-.19-.52-.31-.78-.29-.25.02-.55.21-.7.42-.16.22-.26.56-.24.84.06.9.15,1.81.29,2.7.14.9.4,1.78.54,2.68.68,4.24-.3,8.12-2.56,11.72-.96,1.53-1.88,3.09-2.84,4.62-.07.11-.25.16-.38.23-.09-.25-.34-.58-.25-.74,1.29-2.42,1.97-5.08,3.05-7.57.54-1.24.78-2.6,1.14-3.87-1.06-3.57-.91-7.28-2.23-11.13-.21-.37-.88-.61-1.7-.53-.22-.19-.51-.34-.63-.58-.7-1.34-1.35-2.71-2.02-4.07-.67-1.36-1.3-2.74-2.04-4.06-.9-1.61-2.08-2.94-3.74-3.87-1.04-.58-1.93-1.45-2.87-2.21-2.13-1.72-4.32-3.33-6.99-4.15-.22-.07-.37-.34-.55-.55-1.96-.1-3.91-.2-5.86-.31-.45-.02-.91-.06-1.36-.11-.48-.04-1.06-.83-.97-1.35.1-.59.19-1.2.38-1.76.24-.71.6-1.39.88-2.08.16-.38-.33-.93-.78-.84-.42.09-.96.19-1.2.49-.64.83-1.16,1.75-1.95,3-.38.26-1.17.73-1.86,1.3-.58.48-1.02,1.12-1.58,1.63-.58.53-1.29.82-2.09.75-.21-.02-.39-.27-.64-.45.6-.5,1.17-.97,1.72-1.44.16-.28.1-.56-.25-.72-.55-.25-1.12-.48-1.7-.65-1.05-.31-2.09-.22-3.12.19-1.84.75-3.51,1.79-4.79,2.71-1.39,1.38-1.47,3.05-2.63,4.16-1.05,1.01-2.42,1.22-3.78,1.99-.27.31-.73.72-1.06,1.22-.76,1.18-2.46,1.35-2.95,2.76-.46,1.32-1.26,2.41-2.02,3.55-.33.49-.67,1.07-.75,1.64-.19,1.31-1.22,2.07-1.81,3.1-.17,1.26.97,2.2.76,3.5-.36,2.25.47,4.52-.02,6.78-.03.14-.17.25-.28.41-.58.04-1.2-.01-1.77.15-.39.11-.74.48-1.03.81-.21.23.03.99.34,1.2.62.43,1.24.86,1.89,1.25.7.42,1.06,1.08,1.34,1.78.35.88.42,1.77-.09,2.63-.31.52-.66,1.02-.97,1.53-.17.28.02,1.06.31,1.24.51.32,1.04.62,1.45.86,1.42,1.73,1.54,3.71,1.62,5.34,1.51,1.93,2.81,3.61,4.35,5.56,1.05.47,2.42,1.09,3.77,1.69.07.34.2.63.18.91-.04.66-.76,1.15-1.23.9-1.9-1.01-3.47-2.43-4.97-3.94-.14-.14-.61-.13-.8,0-.2.14-.32.5-.35.77-.02.28.03.63.18.87.32.51.75.95,1.08,1.46.23.35.36.77.54,1.15.36.06.7.01.9.16,2.01,1.44,4.26,2.23,6.66,2.68.76.14,1.46.44,1.96,1.04.16.19.26.59.16.78ZM147.74,23.11c-.61,1.08-1.64,1.67-2.74,2.12-.16.07-.57-.21-.69-.42-.11-.2-.08-.6.06-.79.59-.9,1.5-1.41,2.44-1.87.12-.06.29,0,.42,0,.14.07.34.09.38.19.09.25.25.6.14.79ZM139.8,30.11c-.11.23-.23.45-.35.67-.44-.36-.27-.68.09-.96,0,0,.17.19.25.28ZM136.08,35.43c-.61-.15-1.01-.64-1.2-1.22-.18-.57.41-1.52,1.12-1.77.22-.08.67.02.78.19.24.36.33.82.5,1.28-.14.42-.21.88-.44,1.24-.12.19-.53.35-.76.3ZM136.82,69.07c-.12.09-.24.25-.36.24-.62-.02-.83-.23-.83-.84,0-.11.18-.23.27-.34.14.07.3.11.39.23.2.22.36.47.54.72ZM131.7,41.38c.08-1.06.21-2.11.32-3.16q.05-.41,1.14-1.3c.9.14,1.28.75,1.3,1.58.03,1.07-.21,2.11-.68,3.08-.25.51-.36,1.18-1.16,1.16-.5-.01-.96-.67-.91-1.35ZM131.98,46.89c.09,1.03.02,2.06-.85,2.95,0-1.14,0-2.19.01-3.24,0-.08.15-.15.23-.23.22.17.59.33.61.52ZM144.32,78.11c-.28-.11-.56-.23-.83-.38-.42-.23-.7-.57-.65-1.08.05-.54.74-1.12,1.25-1.08.73.06,1.37.8,1.35,1.56-.02.72-.57,1.2-1.13.98ZM142.34,60.24c-.63-.91-.21-1.87-.51-3.03-.32-.36-.76-.98-1.31-1.48-1.4-1.27-2.18-2.93-2.81-4.62-.65-1.75-.54-3.62,0-5.37.54-1.73,1.37-3.36,1.54-5.21.05-.55.44-1.13.81-1.59,1.25-1.53,2.67-2.91,4.37-3.94,1.94-1.18,3.91-2.32,5.87-3.47,1.19-.7,2.48-1.03,3.81-1.41,2.42-.69,4.83-.61,7.22-.28,3.44.48,6.86,1.18,10.12,2.49,3.43,1.38,6.48,3.29,9.06,5.95.86.89,1.61,1.87,1.94,3.04,1.08,3.82,1.68,7.7,1.34,11.69-.12,1.39-.61,2.69-1.18,3.9-1.05,2.18-2.29,4.28-3.52,6.37-.7,1.18-1.67,2.15-2.85,2.89-.34.21-.99.05-1.18-.34-.79-1.63-1.58-3.26-2.35-4.86-1.69-.91-3.28-1.78-4.89-2.61-1.09-.56-2.27-.83-3.51-.88-3.2-.12-6.37.11-9.44,1.08-.87.27-1.7.66-2.58.87-1.71.41-3.07,1.26-3.95,2.81-.08.13-.17.25-.28.36-.36.4-1.2.57-1.68.35-1.52-.7-2.94-1.56-4.03-2.71ZM170.35,115.28q.59,1.85.28,3.12c-.92-.82-.28-1.63-.28-3.12ZM170.15,99.95c0-.42.11-.84.2-1.39q.38,1.15.03,2.2c-.08-.27-.23-.54-.23-.81ZM170.95,123.05c-.09.25-.13.55-.3.75-.18.22-.5-.29-.41-.86.04-.24.26-.44.39-.66.11.26.22.51.32.77ZM170.59,166.96c.11.27.21.55.32.82-.1.27-.14.59-.31.8-.17.2-.52-.37-.43-.95.04-.24.27-.45.42-.68ZM170.61,160.48c.27.56.33,1.1-.11,1.61-.19-.56-.33-1.1.11-1.61ZM170.63,149.29c-.45-.97-.41-1.98.09-2.93.1-.19.47-.25.72-.36.1.27.26.53.28.81.06.88-.09,1.74-.25,2.58-.38-.04-.78.01-.84-.1ZM169.67,106.37c-.38-.49-.38-.98,0-1.47.4.49.37.98,0,1.47ZM168.76,67.91c-.06-.05-.17-.1-.17-.15,0-.13.04-.37.07-.37.21-.01.25.18.1.52ZM167.33,104.42c.14,1.04.24,2.12-.17,3.16-.38.27-.74.53-1.08.77-.87-.24-1.28-.77-1.35-1.64-.11-1.43.3-2.69,1.18-3.8-1.69-1.59-1.62-3.5-1.09-5.49.11-.44.49-.76.97-.87.54-.12,1.24.29,1.48.81.63,1.43,1.02,2.91.38,4.41-.38.88-.44,1.72-.32,2.65ZM164.26,63.01c.18.23.42.44.55.69.2.4.45.82.48,1.25.2,2.53,1.86,4.77,1.48,7.52-.3.21-.62.55-1.01.68-.59.2-1.29-.26-1.43-.77-.42-1.47-.44-2.96-.13-4.45.09-.44.19-.88.27-1.25q-.8-2.45-.21-3.67ZM167.26,83.27c-.06.42-.87.96-1.39.91-.42-.04-1.01-.45-1.04-.74-.07-.9-.17-1.79-.19-2.69-.02-1.5,0-3,.01-4.5,0-.85.6-1.32,1.49-1.18.71.12,1,.59.78,1.29-.04.14-.16.26-.21.4-.11.27-.2.56-.33.91,1.01,1.72,1.13,3.63.87,5.61ZM166.79,89.54c-.63.21-1.34.04-1.65-.4-.56-.79-.46-2.27.19-2.96.31-.33,1.28-.3,1.7.03.65.51.86,1.21.86,2.08-.03.42-.57,1.06-1.1,1.24ZM167.72,94.03c-.28.65-1.04,1.17-1.76,1.02-.37-.08-.85-.44-.94-.77-.16-.54-.08-1.16-.03-1.74.05-.56.62-.99,1.46-1.01.22.1.68.19.96.47.57.57.64,1.29.31,2.03ZM167.81,65.53c-.11-.07-.25-.21-.23-.31.02-.23.13-.47.2-.7.08.04.23.07.24.13.04.24.06.48.04.72,0,.07-.21.19-.25.17ZM152.34,66.17c-.11.19-.29.33-.44.49-.29.35-.37.46-.45.56.02-.09.02-.23.09-.27.36-.5.33-.71.37-.91.04-.2.19-.37.3-.55.24.16.32.41.14.68ZM149,359.21c.11.71.2,1.45-.43,2.02-.53-.67-.49-1.4-.3-2.15.03-.13.17-.24.26-.36.16.16.44.31.47.49ZM148.54,343.5c.01-.12.11-.24.18-.35.03.13.11.27.09.4-.01.12-.12.24-.18.36-.03-.13-.1-.27-.09-.41ZM148.64,303.58c-.34-3.85-.71-7.76-1.02-11.68-.11-1.51-.12-3.03.19-4.54.53-2.55.21-5.14.29-7.72.02-.59-.24-1.18-.31-1.78-.08-.75-.27-1.54-.12-2.25.53-2.55.45-5.13.5-7.71.02-.75-.08-1.52.38-2.2.11.25.29.5.3.75.41,9.7.26,32.08-.22,37.13ZM98.37,145.98c-2.23.01-4.46.01-6.68,0-.12,0-.24-.16-.37-.25,3.25-.48,3.4-.48,7.59-.06-.22.13-.38.31-.54.31ZM114.67,146.03c-.12.06-.27.03-.41.04-.35-.12-.47-.3-.31-.52.07-.1.26-.21.34-.18.25.09.47.25.7.37-.1.1-.19.23-.32.28ZM118.69,145.85c1.15-.72,1.16-.73,2.62-.03-1.07.75-1.07.76-2.62.03ZM127.89,146.63c-.55.14-1.13.21-1.7.16-.47-.04-.67-.46-.61-.95.65-.42,1.37-.47,2.1-.3.24.05.61.27.61.41,0,.24-.21.63-.41.68ZM128.42,142.71c-.57.58-1.29.73-2.05.54-.23-.06-.48-.31-.59-.53-.15-.32.04-.57.38-.7.72-.27,1.44-.35,2.15-.01.1.05.16.19.23.28-.04.14-.04.33-.13.42ZM133.87,146.03c-.78.38-1.59.33-2.42-.07.16-.23.23-.41.34-.44.68-.2,1.37-.37,2-.53.46.4.54.82.08,1.04ZM140.45,145.9c-.99.53-1.99.56-2.95-.14.05-.28,0-.68.17-.82.77-.64,2.07-.54,2.87.21.11.11.05.67-.09.75ZM132.12,139.84c-1.06-.05-2.13-.06-3.19,0-2.42.12-4.84.41-7.27.42-2.43,0-4.86-.31-7.28-.37-2.74-.06-5.48-.07-8.21.02-3.21.1-6.38,0-9.52-.69-.59-.13-1.21-.11-1.82-.09-.28.01-.56.19-.84.3-.38.14-.72.76-.55,1.09.13.25.34.56.58.63.72.21,1.47.38,2.21.45,3.94.38,7.9.33,11.85.25,2.59-.05,5.17-.19,7.71.45.76.19,1.5,0,2.26-.11,1.49-.23,3-.47,4.51-.11.09.02.2.19.2.29,0,.14-.05.3-.14.42-.29.41-.74.53-1.19.53-2.13,0-4.26-.04-6.39-.03-3.19.02-6.38.08-9.58.09-2.28,0-4.56-.03-6.84-.06-1.67-.02-3.35,0-5.02-.09-.56-.03-1.11-.37-1.74-.59-.26-2.19-.52-4.28-.73-6.38-.02-.23.25-.54.47-.71.23-.17.55-.29.84-.3,1.52-.03,3.05.06,4.56-.05,1.51-.11,2.99-.49,4.49-.62,1.66-.15,3.34-.23,5.01-.2,5.8.09,11.53-.57,17.24-1.37,1.37-.19,2.68-.16,4.05.23,1.78.5,3.63.28,5.43-.08,3.62-.74,7.26-.5,10.9-.36,1.22.05,2.39.44,3.41,1.13.13.08.02.5.02.79-1.31.54-2.68.49-4.04.46-2.89-.05-5.78-.15-8.67-.2-.9-.02-1.82-.02-2.64.48-.3.19-.45.42-.27.76.12.24.3.59.51.64.58.13,1.19.18,1.79.18,4.11.06,8.21.1,12.32.17.42,0,.83.2,1.24.3-.1.76-.49,1.22-1.15,1.3-4.82.56-9.64,1.25-14.52,1.02ZM144.66,145.62c-.27.24-.54.16-.66-.17-.04-.12-.04-.36.02-.4.22-.14.48-.24.73-.29.1-.02.23.13.35.21-.15.22-.26.48-.45.65ZM145.08,142.38c-.27,0-.54-.16-.82-.26.26-.11.52-.3.79-.3.27,0,.54.17.81.26-.26.11-.52.29-.77.3ZM63.6,324.75c1.62,1.37,3.15,2.86,4.8,4.21,2.93,2.42,5.74,4.98,8.97,7.02,1.8,1.14,3.55,2.35,5.35,3.49,2.7,1.69,5.28,3.6,8.34,4.66.43.15.84.36,1.23.59,5.51,3.24,11.47,5.59,17.06,8.67.93.51,1.94.86,2.91,1.27,2.24.95,4.53,1.76,6.7,2.88,1.21.62,2.54,1,3.82,1.47,3.71,1.36,7.43,2.69,11.13,4.07.84.31,1.63.8,2.4,1.26.33.19.39.5.21.66-.09.09-.28.16-.41.13-1.64-.29-3.3-.52-4.91-.92-4.27-1.08-8.51-2.27-12.49-4.23-.68-.33-1.38-.7-2.11-.86-3.65-.78-6.72-2.78-9.91-4.54-.4-.22-.73-.6-1.15-.73-2.81-.87-5.05-2.76-7.55-4.19-4.22-2.41-8.45-4.8-12.72-7.12-4.55-2.47-8.85-5.34-13.11-8.27-2.75-1.9-5.57-3.71-8-6.04-.54-.52-1.18-.97-1.83-1.35-2.42-1.37-4.33-3.31-6.22-5.3-2.72-2.87-5.31-5.86-8.3-8.46-.75-.66-1.65-1.28-1.86-2.39-.28-.22-.45-.32-.62-.43.56-.37.5,0,.51.3.71.06,1.2.32,1.65.69,2.22,1.85,4.44,3.71,6.65,5.56,3.16,2.64,6.32,5.25,9.45,7.91ZM57.99,314.78c-.05-.23.02-.57.16-.75.48-.57.75-.54,1.79-.02-.23.57-.65.9-1.24,1.06-.34.09-.63.05-.71-.3ZM61.65,316.64c.19.15.25.5.36.75-.11.41-.53.57-1.04.37-.35-.13-.45-.38-.32-.73.16-.44.64-.66,1-.39ZM60.76,310.5c.05.13.07.3.03.44-.03.11-.14.25-.25.29-.27.1-.56.24-.85.23-1.58-.03-2.89.63-4.3,1.67-1.57-.88-2.85-1.61-3.55-3.01.2-.27.32-.65.54-.73,2.81-1.02,5.54-.93,8.1.75.12.07.22.22.27.35ZM58.77,305.49c.09.05.2.28.15.35-.15.24-.33.57-.56.64-.56.17-1.17.27-1.76.3-2.11.1-4.21.16-6.22.97-.58.23-1.25.09-1.71-.31-.89-.78-1.97-1.42-2.34-2.75.38-.2.73-.47,1.13-.59,1.6-.51,3.26-.63,4.92-.43,1.49.19,2.99.37,4.46.72.69.17,1.3.71,1.93,1.1ZM54.83,298.98c1.27.16,2.17.96,2.67,2.17.14.33-.27,1.05-.59,1.04-.15,0-.3.02-.59.03-.75-.12-1.63-.31-2.52-.4-2.7-.26-5.39-.4-8.03.45-.55.17-1.18.16-1.77.12-.22-.01-.52-.32-.58-.54-.07-.23.08-.55.18-.81.05-.12.19-.23.32-.3,3.44-1.82,7.12-2.23,10.92-1.76ZM43.76,308.27c-.56.48-.53.06-.57-.27-.61-.17-.85-.44-.89-.92-.59-.2-.81-.48-.91-.88-.41-.27-.54-.41-.45-.6.1.05.24.08.27.15.04.08.03.18.03.27.63.19.87.45.92.91.62.18.88.45.92.92.31.23.5.32.69.41ZM49.95,295.91c.59-.03,1.21.05,1.7.5-.22.13-.43.38-.66.39-2.94.11-5.62.98-8.11,2.51-1.14.7-1.9.43-2.54-.75-.14-.25-.18-.57-.26-.85.05-.12.07-.32.16-.35.83-.34,1.65-.82,2.51-.92,2.39-.27,4.8-.39,7.2-.52ZM45.48,291.74c.72.12,1.42.51,2.04.91.29.19.36.7.62,1.25-1.83.17-3.49.25-5.12.51-1.63.26-3.23.72-4.83,1.09-1.37-.49-2.32-1.42-3.05-2.6-.18-.3.1-1.04.44-1.11,3.29-.68,6.6-.6,9.9-.06ZM38.25,302.37c.04.05-.14.34-.18.33-.26-.07-.55-.13-.76-.29-1.22-.9-2.12-2.1-2.98-3.32-.2-.28-.19-.71-.23-1.1-.14-.18-.25-.19-.29-.27.1.02.15.1.27.09,1.78,1.27,3.09,2.8,4.16,4.55ZM40.94,288.4c.07.04.05.29.02.44-.02.12-.09.25-.18.33-.11.1-.26.22-.39.22-2.28.05-4.54.28-6.73.97-.13.04-.32.02-.44-.05-.24-.14-.52-.28-.67-.51-.19-.29-.09-.62.18-.8.37-.25.75-.55,1.17-.67,1.76-.49,3.58-.61,5.56-.71.43.22.97.47,1.48.77ZM33.24,297.16c-.08-.04-.09-.16-.18-.18.09.03.16.08.18.18ZM36.03,285.41c-.19.19-.34.46-.56.54-1.27.43-2.57.78-3.83,1.22-1.01.35-1.71-.12-2.4-.74-.57-.51-.37-1.54.36-1.82.28-.11.54-.26.83-.32,1.02-.21,2.04-.38,2.96-.55,1.1.38,2.18.55,2.64,1.68ZM32.26,296.14c-.64-.19-.88-.47-.94-.94-2.5-1.66-3.44-2.59-4.41-4.43-.15-.29,0-.57.39-.82,1.3,1.22,2.7,2.38,3.67,3.93.21.32.19.78.25,1.19.62.13.82.45.88.9.11.09.15.11.15.16ZM29.49,280.77c.59.06,1,.51,1.11,1.2-.96.93-2.14,1.44-3.6,1.64-.36-.4-.78-.81-1.11-1.27-.25-.35-.38-.77-.56-1.17.25-.2.45-.48.65-.48,1.17-.02,2.35-.02,3.51.09ZM21.94,276.83c.14-.21.49-.4.73-.38,1.03.09,2.07.21,2.93.86.21.16.38.51.37.76,0,.18-.31.43-.53.51-.42.13-.87.16-1.11.2-1.16.05-1.94-.29-2.41-1.16-.11-.21-.11-.6.02-.78ZM19.03,272.75c.29.29.58.57.87.86-.11.07-.23.21-.34.2-.48-.01-.79-.27-.81-.76,0-.09.17-.2.27-.29ZM8.95,268.15s.29-.01.39.06c1.24.89,2.21,2.05,3.06,3.28,2.48,3.61,5.24,6.99,8.2,10.21.16.18.14.51.36,1.41-2.37-2.3-4.11-4.16-5.7-6.18-1.77-2.24-3.76-4.32-5.63-6.49-.39-.45-.7-.97-.94-1.5-.08-.19.14-.54.26-.79ZM20.82,322.13c-.58-1.42-.92-2.42-1.38-3.37-2.22-4.54-3.31-9.44-4.52-14.3-.07-.29-.05-.6-.03-.91.01-.13.12-.27.2-.4.21.11.49.18.61.35.25.37.49.78.63,1.21.66,2.01,1.38,4.02,1.89,6.08.37,1.49.9,2.89,1.44,4.31.7,1.85,1.13,3.78,1.36,5.74.03.29-.08.59-.19,1.27ZM50.89,340.3c-.02.09-.26.18-.38.17-6.13-1.03-12.11-2.68-18.02-4.54-1.87-.59-3.69-1.34-5.37-2.42-1.58-1.02-2.8-2.27-3.46-4.07-.41-1.13-.99-2.21-1.36-3.36-.17-.5-.09-1.08-.09-1.64-.12-.12-.16-.2-.2-.27-.14-.05-.34-.03-.33-.22.08.02.2,0,.25.06.17.18.14.31.28.28.85.46,1.43,1.13,1.98,1.81,2.08,2.54,4.8,4.11,7.87,5.13,1.44.48,2.84,1.02,4.19,1.73,1.07.56,2.19,1.07,3.34,1.41,2.04.6,4.01,1.35,5.78,2.35.7-.2,1.28-.37,1.99-.57,1.16,1.1,2.37,2.22,3.54,3.38.13.13.04.52-.02.77ZM59.36,341.52c-.05-.07,0-.25.06-.31.09-.08.23-.13.36-.13.13,0,.27.04.39.1.12.07.23.16.32.26.18.22.33.45.49.67-.79.32-1.13.2-1.61-.6ZM67.92,348.52c-.09.08-.29.15-.38.1-1.19-.61-2.21-1.43-3.02-2.49-.28-.36-.31-.82.21-1.23.81.57,1.7,1.1,2.45,1.77.41.36.6.98.86,1.5.04.08-.04.27-.13.34ZM72.47,352.15c-.05-.09-.05-.22-.06-.33-.38-.04-.58-.12-.65-.41-.02-.07.19-.29.25-.27.27.09.33.32.29.59.43.11.58.24.47.5,0,.02-.26-.02-.3-.08ZM80.84,357.71c-.25.11-.61.3-.77.2-1.26-.78-2.62-1.44-3.55-2.65-.27-.36-.47-.77.14-1.24.95.48,2.01.98,3.02,1.54.69.38,1.03,1.04,1.22,1.78.03.12,0,.34-.07.37ZM85.54,361.34c-.78-.19-1.36-.63-1.68-1.38-.06-.12-.09-.32-.03-.41.19-.29.52-.4.81-.22.38.22.78.47,1.05.81.31.38.27.84-.15,1.2ZM87.14,365.72c-.09-.12-.15-.17-.21-.23-.04-.08-.08-.16-.12-.23-.08-.05-.16-.11-.24-.16.32.21.38.25.46.3.03.09.06.18.1.26.07.06.14.13.21.19-.07-.04-.15-.07-.19-.13ZM89.2,363.23l.14-.22.06.26-.2-.04ZM91.05,368.79c-.25-.15-.51-.3-.72-.51-.32-.3-.25-.57.14-.68.13-.04.36,0,.43.09.18.23.29.5.43.76-.1.11-.26.34-.28.33ZM112.64,382.9c-.41-.13-.71-.06-.92-.16-2.15-1.04-4.16-2.33-6.06-3.77-.19-.14-.25-.45-.35-.71-.57-.1-1.02-.07-1.33-.25-3.26-1.9-6.38-4.02-9.26-6.47-.15-.12-.15-.56-.05-.79.11-.27.45-.28.78-.14,1.42.59,2.68,1.37,3.52,2.72.32.5.76.92,1.18,1.41.64-.17,1.22-.33,1.99-.54.35.26.94.53,1.25.99.66.96,1.19,2,1.76,3.01.96-.19,1.76-.45,2.57-.71,2.06.74,3.54,2.13,4.51,4.08.18.36.2.8.27,1.2.25.2.38.25.37.27-.07.22-.16.13-.23-.13ZM93,366.07c.14-.11.26-.29.36-.28,1.22.16,2.17.81,2.99,1.69.05.05.03.25-.03.29-.1.08-.28.17-.37.14-1.11-.42-2.19-.86-2.95-1.83ZM99.18,366.5c.04-.14.06-.3.15-.39.08-.08.25-.14.36-.11.73.22,1.43.52,1.93,1.13.16.2.3.54.25.76-.08.33-.42.4-.77.31-.77-.19-1.34-.68-1.81-1.28-.08-.11-.07-.28-.1-.43ZM104.81,369.65c.26-.09.6-.33.78-.25.93.43,1.83.95,2.73,1.45.36.2.5.91.29,1.15-.23.24-.45.27-.76.05-.11-.09-.26-.15-.94-.54-.32-.24-1.13-.86-1.94-1.49-.09-.07-.1-.25-.15-.37ZM112.3,373.06c.11-.08.28-.18.4-.16,1.67.31,3.13,1.09,4.37,2.23.18.17.19.53.28.8-.12.09-.24.24-.36.26-.3.04-.62.1-.9,0-1.47-.47-2.74-1.26-3.78-2.41-.26-.29-.25-.56-.01-.73ZM117.8,386.2c-.55-.23-1.08-.5-1.6-.78-1.55-.84-1.98-2.12-1.44-3.82,1.47.17,2.53.85,3.11,2.18.3.67.5,1.39.73,2.04-.23.37-.5.51-.8.38ZM120.51,381.64c-.05-.32.18-.47.53-.29.2.1.34.3.5.47.5.23.64.35.59.53-.11-.03-.27-.04-.32-.11-.04-.08-.04-.18-.04-.27-.45-.16-.66-.16-.87-.18-.14-.02-.37-.08-.38-.15ZM120.5,376.7c1.12-.09,1.98.4,2.66,1.17,0,.34.07.66-.02.92-.25.71-.8,1-1.34.76-.4-.18-.81-.37-1.17-.62-.75-.52-.77-1.16-.14-2.22ZM138.55,396.79c-.03.07-.27.13-.36.09-2.19-.98-4.36-2.03-6.58-2.95-1.69-.7-3.16-1.72-4.63-2.75-.36-.25-.6-.61-.62-1.08-1.56.22-2.67-.47-3.75-1.23-.88-.63-1.52-1.45-1.7-2.55-.07-.43-.03-.86.5-1.06.39.17.81.33,1.22.52,1.11.53,2.01,1.27,2.53,2.43.29.65.7,1.24,1.06,1.86.64-.21,1.14-.46,1.65-.71,3.16.97,3.71,1.33,6.59,4.35.29.06.6.21.87.15,1.86-.41,2.82.61,3.46,2.13.08.21-.11.55-.22.8ZM130.39,383.42c-1.44-.77-2.64-1.37-3.79-2.05-.36-.21-.67-.6-.89-.96-.13-.21-.16-.61-.05-.82.11-.2.48-.4.71-.38,1.52.15,2.8.89,4.01,1.78.39.28.46,1.06,0,2.42ZM130.53,387.2c-1.59-.8-2.94-1.14-3.86-2.2-.23-.27-.11-.59.22-.82,1.31.3,2.45.99,3.47,1.86.15.13.09.5.17,1.16ZM136.8,385.42c-.24.42-.83.62-1.15.45-1.08-.59-2.06-1.3-2.55-2.47-.1-.23-.05-.63.1-.83.15-.21.5-.39.76-.39,1.1.03,2.05.52,2.85,1.2.28.24.32.77.42,1.05-.19.44-.28.72-.42.98ZM136.85,389.97c.03.13-.01.29-.07.41-.15.32-.41.46-.74.32-1.36-.56-1.36-.57-2.08-2.02.23-.15.47-.43.71-.43,1.14-.04,1.91.59,2.18,1.72ZM139.42,391.1c.03-.21.34-.55.5-.54,1.26.11,2.12.8,2.6,1.96.13.32,0,.58-.31.76-1.02-.16-1.89-.61-2.56-1.41-.17-.2-.28-.53-.23-.78ZM144.13,398.86c-.15.17-.51.23-.77.21-.28-.02-.56-.17-.8-.32-.65-.41-1.09-.97-1.2-1.75.51-.47,1.11-.46,1.62-.14.48.31.88.77,1.23,1.23.12.16.08.6-.07.76ZM146.82,395.49c-.97-.1-1.52-.92-1.25-1.87.05-.18.45-.41.66-.39.86.08,1.5,1.04,1.33,1.9-.25.13-.51.38-.74.36ZM148.52,400.82c-.31-.13-.41-.39-.27-.69.05-.11.2-.18.3-.27.09.24.22.47.27.72,0,.06-.24.26-.3.24ZM152.13,402.46c-.4.05-.89-.43-.83-.82.02-.1.2-.18.31-.27.54-.02.84.26.78.79-.01.11-.16.3-.25.31ZM170.26,392.17c-.05-.09.02-.26.08-.37.03-.06.16-.07.24-.09.03.12.11.25.09.36-.08.41-.25.45-.41.11ZM174.28,404.57c-.52.23-1.09.41-1.65.51-.16.02-.49-.28-.58-.49-.23-.56-.25-1.19.09-1.69.32-.47.78-.85,1.22-1.23.46-.39,1.02-.54,1.71-.42.12.37.34.76.38,1.18.09.95-.25,1.74-1.18,2.14ZM174,395.58c.57-.13,1.23.45,1.12.99-.1.79-.53,1.34-1.24,1.67-.43.2-.84.14-1.24-.1-.31-.19-.41-.79-.24-1.19.3-.73.82-1.2,1.6-1.37ZM173.38,392.32c-.06-.33.5-.82.79-.7.08.03.09.24.12.36-.05.32-.24.5-.56.5-.12,0-.34-.08-.35-.16ZM177.85,396.76c-.74-.89-.68-1.77,0-2.66.85.89.55,1.77,0,2.66ZM179.79,389.41c-.04.14-.2.23-.28.35-.16.25-.94.48-1.23.31-.24-.15-.56-.34-.63-.57-.48-1.86-.07-2.93,1.47-3.85.38-.23.83-.35,1.62-.67-.13,1.86-.57,3.14-.96,4.43ZM182.49,400.1c-.52.7-1.31.95-1.95.7-.13-.05-.27-.18-.32-.31-.25-.66.07-1.46.76-1.93.25-.17.51-.34.79-.42.26-.08.61-.14.79-.02.21.14.27.49.43.83-.15.36-.25.81-.5,1.16ZM183.43,394.24c-.51.59-1.19.88-1.97.93-.54-.97-.57-1.59.02-1.94.5-.31,1.06-.55,1.64-.72.14-.05.5.26.59.48.22.45.02.91-.28,1.26ZM192.28,395.24c-.46.38-.97.74-1.52.98-1.38.62-2.78,1.2-4.19,1.73-.18.07-.63-.14-.72-.32-.09-.18.06-.67.23-.74.54-.23,1.14-.33,1.98-.54.46-.66.77-1.18,1.16-1.64.62-.74,1.45-1.04,2.41-1.02.47.01.95.33.95.75,0,.27-.1.64-.29.8ZM186.86,391.37c.21.04.06.3.06.3l-.06-.3ZM192.29,390.65c-.87.27-1.59.49-2.29.7-.2-.24-.46-.42-.53-.66-.09-.27-.07-.6.02-.88.58-1.9,1.95-2.95,3.83-3.38.21-.05.49.25.86.44-.44,1.22-.73,2.53-1.89,3.77ZM197.84,392c-.57.74-1.29,1.29-2.24,1.41-.18.02-.43-.28-.59-.48-.07-.09-.06-.34.02-.44.59-.73,1.27-1.33,2.26-1.32.23,0,.45.26.68.4-.05.14-.05.32-.14.43ZM199.08,386.66c-.39.87-1.16,1.37-2.1,1.58-.61.14-1.22-.42-1.14-1.02.22-1.8,1.19-3.06,2.71-3.96.44-.26,1.12-.31,1.22-.03.1.27.11.56.17.85-.28.86-.49,1.76-.86,2.58ZM200.73,390.45c-.04-.12-.12-.25-.11-.37.01-.11.12-.21.19-.31.04.12.12.24.11.35-.02.12-.12.22-.19.33ZM203.83,381.11c-.02.25-.03.5-.08.75-.09.41-.29.75-.73.86-.09.43-.07.69-.1.94-.05.39-.22.58-.43.48-.1-.05-.18-.22-.2-.34-.02-.14-.01-.34.07-.43.16-.18.38-.32.57-.48.12-.84.14-1.51.9-1.79.09-.18.16-.21.23-.25.05-.09.11-.17.16-.26-.33.46-.35.49-.39.5ZM207.31,387.07c-.7.98-1.63,1.67-2.85,1.88-.61-.39-.65-.91-.38-1.5.12-.26.26-.56.48-.72.82-.6,1.67-1.16,2.49-1.71.78.7.72,1.4.25,2.05ZM207.55,381.42c-.2.17-.53.2-.8.29-.32-.09-.52-.3-.44-.6.3-1.17.83-2.24,1.61-3.17.17-.2.52-.36.77-.33.16.02.4.45.37.65-.2,1.19-.55,2.34-1.51,3.16ZM216.85,381.08c-1.64,1.58-3.58,2.69-5.72,3.44-.11.04-.28-.03-.4-.09-.31-.16-.36-.43-.34-.77.04-.66.38-1.13.85-1.51,1.42-1.16,3.1-1.81,4.79-2.45.13-.04.32-.04.43.03.23.16.42.37.63.56-.08.27-.07.63-.24.8ZM213.14,378.39c-.39.21-.83.32-1.24.49-.15-.31-.42-.61-.36-.81.2-.72.5-1.42.8-2.11.51-1.13,1.27-2.07,2.3-2.76,1.38-.93,2.77-1.86,4.15-2.79.19.27.5.54.45.67-.59,1.55-1.23,3.09-1.98,4.94-1.5.87-2.8,1.64-4.12,2.38ZM225.69,375.5c0-.18-.04-.3-.06-.44-.1.24-.19.5-.36.68-1.45,1.53-3.21,2.62-5.13,3.45-.21.09-.56-.06-.81-.18-.29-.14-.33-.45-.15-.76.14-.26.26-.55.45-.76.4-.44.8-.91,1.28-1.23,1.24-.81,2.52-1.54,3.79-2.3.31-.19.79.11.93,1.1.1-.22.06-.39.06.44ZM221.68,372.76c-.14-.54-.41-.99-.32-1.33,1.02-3.53,3.27-5.96,6.78-7.45.12.53.36.95.29,1.32-.26,1.32-.62,2.62-.96,4.01-1.61,1.55-3.59,2.52-5.79,3.44ZM232.8,370.2c-.13.26-.24.58-.45.73-1.2.83-2.43,1.64-3.66,2.43-.09.06-.27-.01-.4-.02-.09-.1-.23-.2-.25-.31-.03-.13.01-.3.08-.43.92-1.6,2.36-2.58,4.04-3.24.11-.04.28.02.39.08.32.17.41.44.25.76ZM230.61,367.1c-.31.1-.57-.06-.74-.37.7-3.03,2.05-5.63,5.1-7.52.18.49.3.63.26.74-.51,1.73-1.05,3.46-1.53,5.02-.99,1.01-1.93,1.74-3.1,2.13ZM242.33,364.71c-2,1.62-4.12,3.07-6.48,4.13-.11.05-.27-.01-.41-.02-.11-.1-.33-.23-.31-.31.08-.43.1-.97.37-1.25,1.92-1.95,4.17-3.49,6.44-5.01.18-.12.62-.1.79.04.19.16.29.52.3.8.01.63-.2,1.21-.69,1.61ZM243.44,358.21c-1.82,1.61-3.75,3.09-5.96,4.14-.09.04-.27-.02-.36-.09-.1-.09-.21-.26-.21-.38,0-.3,0-.63.11-.89.54-1.26,1.13-2.49,1.7-3.74.46-.99,1.15-1.79,2.06-2.39.89-.58,1.81-1.12,2.74-1.62.23-.13.58-.05.87-.06.53,2.23.25,3.98-.95,5.04ZM249.55,360.23c-1.15.71-2.28,1.48-3.44,2.16-.19.11-.61.05-.79-.1-.19-.16-.34-.53-.29-.77.12-.58.2-1.29.58-1.65,2.51-2.36,4.86-4.92,7.84-6.73.2.33.36.54.47.78.05.13.06.31.01.44-1.59,4.16-.6,3.53-4.39,5.87ZM247.43,354.99c-.17-.27-.42-.47-.43-.69-.05-1.4.66-2.59,1.15-3.84.16-.4.49-.77.83-1.05,1.76-1.4,3.55-2.76,5.34-4.12.47-.35,1.1-.43,1.16-.19.1.42.18.87.14,1.3-.09.91-.4,1.82-1.04,2.45-2.24,2.19-4.38,4.51-7.15,6.13ZM258.74,353.23c-.81,1.05-1.86,1.9-3.1,2.48-.09.04-.27,0-.36-.06-.11-.09-.23-.25-.23-.37.03-.59,0-1.2.17-1.76.26-.85.66-1.65,1.06-2.6,1.32-1.01,2.18-2.07,3.48-2.54.3-.1.54.05.67.39.05.13.06.29.05.43-.13,1.53-.84,2.85-1.74,4.03ZM258.86,345.92c-.1.08-.35.1-.43.03-.19-.17-.48-.41-.46-.61.09-1.03.26-2.05.39-3,1.39-1.52,2.91-2.69,4.3-4.03.32.43.61.64.62.85.04,1.88-.59,3.5-2.02,4.77-.78.69-1.59,1.34-2.4,2ZM267.34,346.29c-.52.72-1.24,1.31-1.91,1.93-1.1,1.02-2.14,2.11-3.36,2.91-.74-.46-.64-1.06-.6-1.63.02-.29.11-.6.24-.86.63-1.2,1.29-2.39,2.02-3.73,1.25-.86,2.29-2.2,3.89-2.81.34-.13.61.05.72.4.43,1.46-.19,2.68-.99,3.79ZM266.47,339.56c-.18.12-.52,0-1.15-.04.31-1.41.53-2.43.79-3.62.77-.75,1.62-1.59,2.49-2.41.26-.25.56-.23.74-.03.09.11.17.27.17.41.07,2.47-1.03,4.33-3.03,5.69ZM271.58,342.33c-.12.07-.3.04-.45.06-.2-.19-.54-.36-.57-.56-.24-1.8.35-3.29,1.84-4.37.12-.09.28-.13.41-.2.32-.16,1.08.19,1.1.53.02.45.11.91.02,1.34-.28,1.42-1.11,2.47-2.35,3.19ZM273.63,333.44c-.21.38-.61.7-1.11.63-.24-.04-.65-.32-.63-.45.11-.89.22-1.8.51-2.63.32-.91,1.13-1.37,2.06-1.65.08.09.25.19.24.29-.09,1.35-.41,2.64-1.08,3.82ZM281.64,330.87c-.08.28-.07.63-.24.84-1.34,1.59-2.71,3.16-4.1,4.71-.18.2-.51.27-.78.39-.54-.43-.51-1-.31-1.56.1-.28.23-.57.43-.77,1.16-1.16,2.32-2.31,3.54-3.4.3-.27.81-.29,1.23-.43.02-.32.19-.53.5-.56.53-.05.39.36-.28.79ZM303.36,328.86c-.25.04-.51.03-.76.03-.28.31-.39.61-.59.7-2.24.93-4.47,1.86-6.75,2.69-.99.36-2.07.5-3.14.3-.26-.05-.49-.23-.87-.43,2.46-1.01,4.74-2.18,7.37-2.37.73-.05,1.42-.51,2.15-.67.55-.13,1.12-.11,1.69-.14.29-.29.4-.55.59-.63.2-.09.56-.02.76.11.15.09-.06.35-.44.41ZM322.11,298.04c-.45,3.16-.81,6.33-1.48,9.45-.6,2.81-1.45,5.59-2.82,8.16-.11.19-.4.29-.63.41-.13.72-.1,1.3-.27,1.81-.85,2.45-2.34,4.47-4.47,5.98-.06.04-.26-.02-.32-.1-.07-.09-.13-.27-.09-.38.1-.27.22-.56.41-.78,1.34-1.61,2.48-3.36,3.57-5.14.29-.47.52-.99,1.08-1.23.34-1.78.61-3.39.79-5,.18-1.67.41-3.31.86-4.93.28-1,.2-2.11.2-3.17,0-1.23.18-2.41.57-3.58,1.1-3.32,1.85-6.73,2.33-10.2.1-.76.29-1.51,1.09-1.91.11.23.37.48.33.67-.72,3.28-.68,6.65-1.14,9.96ZM323.38,272.32c-.19,2.26-.67,4.5-1.08,6.74-.27,1.5-.64,2.97-.97,4.45-.07.3-.09.61-.19.89-.61,1.88-1.33,3.72-1.83,5.63-.49,1.91-.55,3.91-1.24,5.78-1.15,3.16-1.75,6.43-1.8,9.81-.02,1.05-.26,2.11-.44,3.16-.16.89-.54,1.78-.54,2.67,0,2.08-.78,3.87-1.82,5.56-1.75,2.85-3.73,5.55-6,7.59-2.7,1.08-5.1,2.03-7.87,3.13-2.04-.01-4.44.27-6.76,1.11-.55.2-1.2.19-1.8.17-.21,0-.42-.31-.63-.48.33-1.09,1.23-1.72,2.01-2.42,1.59-1.43,2.96-3.05,4.31-4.7.47-.59.96-1.19,1.31-1.86.92-1.76,1.84-3.49,3.31-4.88.43-.4.68-1,.94-1.55.4-.86.47-1.77.12-2.66-.45-1.11-.95-2.2-1.41-3.26-1.16-.64-1.68.28-2.36.83-.23.18-.47.05-.62-.31-.05-.14-.11-.32-.06-.44.11-.28.22-.6.43-.79.9-.81,1.84-1.57,2.57-2.19.93-.2,1.43.19,1.99.4.63.24,1.09-.02,1.39-.75.11-.28.18-.57.3-.95.56-.36,1.18-.76,1.82-1.18.23-1.29.45-2.59.67-3.88-.38-.16-.53-.28-.47-.54.09.03.23.03.28.1.05.09.07.2.1.3.36.24.63.32.88.45.59.31,1.05.08,1.48-.6.37-.58.29-1.21-.17-1.63-.11-.1-.27-.14-.39-.24-.23-.19-.45-.4-.73-.65,0-.54.05-1.15-.02-1.74-.03-.24-.26-.59-.47-.65-.25-.07-.62.05-.83.22-.48.37-.93.78-1.33,1.24-1.62,1.82-3.2,3.67-4.46,5.76-.88,1.45-1.95,2.71-3.17,3.87-.66.63-1.32,1.26-1.93,1.94-2.76,3.04-5.76,5.84-8.87,8.53-1.14.99-2.2,2.09-3.25,3.19-.31.32-.51.76-.66,1.18-.08.24-.01.57.09.82.15.33.92.41,1.23.17.6-.47,1.21-.92,1.77-1.42,2.83-2.54,5.64-5.09,8.48-7.62.19-.17.54-.17.81-.25.08.28.26.57.22.84-.29,1.79-1.2,3.09-2.99,3.67-.43.14-.85.31-1.36.5-.53,1.02-1,2.15-1.66,3.13-.67,1-1.55,1.87-2.3,2.75-.35.05-.66.19-.93.12-1.63-.38-2.04-.25-2.5.94-.17.43-.3.86-.44,1.29-.13.43-.25.87-.44,1.53-.83.82-1.75,1.84-2.78,2.72-.92.78-1.63,1.82-2.82,2.25-.1-.09-.25-.16-.27-.26-.23-1.22.02-2.4.29-3.55.57-1.03,1.75-1.22,2.52-1.94.47-.44.64-.99.54-1.63-.13-.75-1.12-1.3-1.73-.93-.51.31-1.05.61-1.5,1.01-1.14,1-2.22,2.08-3.35,3.09-.79.71-1.61,1.38-2.44,2.05-.59.48-1.27.85-1.8,1.38-1.72,1.73-3.48,3.39-5.53,4.74-2.68,2.94-6.08,5.02-9.13,7.52-4.23,3.46-8.44,6.96-13.18,9.76-1.69,1-3.24,2.26-4.84,3.42-1.35.97-2.63,2.04-4.3,2.51-.54.15-1.05.63-1.41,1.1-1.33,1.75-3.23,2.76-5.06,3.82-.75.43-1.74.43-2.64.63-1.02,1.1-1.91,2.37-3.09,3.28-1.42,1.09-2.74,2.4-4.43,3.12-.59-.33-1.12-.62-1.64-.92-.28.09-.63.11-.81.29-.3.33-.58.73-.7,1.14-.63,2.27-2.41,3.41-4.29,4.45-.52.28-1.17.33-1.69.61-.52.28-.95.73-1.36,1.06-.4-.06-.7-.06-.97-.14-.49-.14-.93-.01-1.26.3-.32.31-.58.7-.81,1.08-.91,1.49-2.3,2.4-3.82,3.14-.41.21-.87.19-1.18-.27-.27-.41-.63-.68-1.13-.44-.25.12-.53.34-.64.58-.25.55-.34,1.17-.61,1.71-.67,1.37-1.76,2.03-3.35,1.83-.37-.46-.75-.91-1.21-1.47-.33.2-.84.34-.99.65-.34.67-.45,1.44-.73,2.13-.09.23-.41.38-.62.56-.03.37-.12.52-.35.47,0,0-.01-.23.05-.27.07-.06.18-.07.27-.09-.14-.32-.29-.56-.5-.71-.64-.5-1.62-.3-1.91.39-.35.84-.64,1.7-.99,2.55-.44,1.08-1.22,1.68-2.43,1.67-.11-.27-.34-.56-.31-.81.11-.75.42-1.47.46-2.22.04-.71-.16-1.43-.27-2.25,3.75-1.46,7.15-3.49,10.78-5.06,3.35-1.44,6.59-3.18,9.36-5.61,1.97-1.73,4.12-3.1,6.6-3.97.54-.2,1.02-.64,1.46-1.04.19-.18.3-.58.24-.82-.05-.23-.38-.52-.61-.54-.59-.05-1.26-.13-1.78.09-1.25.54-2.47,1.19-3.62,1.9-1.42.88-2.79,1.85-4.15,2.83-2.84,2.05-5.74,3.98-9.05,5.23-.28.11-.56.22-.84.35-2.63,1.19-5.13,2.64-7.82,3.72-2.54,1.01-5.03,2.13-8.01,3.41-1.18,0-2.85-.01-4.51.03-1,.02-1.75.55-2.11,1.48-.61,1.55-1.13,3.13-1.77,4.92.19,1.27.29,2.76.16,4.29-.21,2.57-.15,5.17-.22,7.75-.03.9-.15,1.8-.21,2.53-.87,1.21-2.13,1.51-3.09,2.24-.34.26-.99.17-1.24-.14-.19-.23-.45-.54-.41-.79.35-2.55.76-5.09,1.19-7.91-.59-1.81-.66-3.91-.69-6.05-.04-2.87-.04-5.78-.64-8.63-.25-1.18-.25-2.42-.22-3.63.13-4.57.02-9.12-.81-13.64-.25-1.33-.15-2.73-.15-4.1.01-12.93.05-25.87.07-38.8,0-3.5,0-6.99,0-10.49,0-2.59.16-5.16.35-7.75.26-3.48.23-6.99.29-10.49.03-2.13-.04-4.26,0-6.39.07-3.5.13-6.99-.53-10.46-.28-1.48-.25-3.03-.28-4.55-.09-4.56-.14-9.13-.21-13.69,0-.76.09-1.55-.07-2.27-.82-3.61-.59-7.26-.64-10.91-.02-1.52.03-3.04,0-4.56-.03-1.22,0-2.45-.23-3.64-.38-1.96-.43-3.93-.45-5.9-.03-3.05-.1-6.09-.16-9.13-.02-.76-.06-1.52-.09-2.28-.17-3.18-.7-6.32-.3-9.54.38-3.01.35-6.08.58-9.11.08-1.06.15-2.12.06-3.18-.35-3.97.28-7.9.59-11.83.02-.3.05-.63.2-.88.55-.97.64-1.92.33-3.03-.18-.67.17-1.48.2-2.23,0-.16-.34-.37-.56-.49-.09-.05-.3.06-.41.16-.22.2-.47.4-.6.66-.6,1.23-1.17,2.47-1.78,3.77,0,2.81.08,5.69-.02,8.57-.07,1.99.41,3.94.4,5.9,0,1.96-.55,3.91-.61,5.88-.12,3.95-.11,7.91-.07,11.87.02,1.51.25,3.03.39,4.55.11,1.21.31,2.41.35,3.62.13,3.19.03,6.37.17,9.56.24,5.62.09,11.25.13,16.88,0,1.67.05,3.32.47,4.98.29,1.16.33,2.41.35,3.62.05,2.74.04,5.48.04,8.22,0,3.35.11,6.68.6,10.01.3,2.1.33,4.25.33,6.38,0,5.32-.07,10.65-.12,15.97-.03,2.28,0,4.56-.5,6.82-.17.73-.15,1.51-.14,2.27.01,4.87.05,9.73.07,14.6,0,2.44-.04,4.87-.04,7.3,0,2.74.02,5.48.03,8.22,0,.91.07,1.83,0,2.73-.5,7.3.32,14.61-.03,21.91-.03.75.05,1.53.23,2.26.68,2.84.8,5.72.68,8.62-.12,2.59-.01,5.13.43,7.71.43,2.53.29,5.16.38,7.74.04,1.22-.11,2.46.11,3.64.53,2.78-.13,5.42-.68,8.09-.09.43-.37.81-.58,1.25-.26-.15-.57-.22-.65-.39-.53-1.11-.8-2.3-.76-3.53.03-1.22.06-2.44.1-3.65.04-1.38.01-2.76-.5-4.05-.41-1.02-.45-2.07-.55-3.13-.21-2.26-.08-4.56-.86-6.76-.2-.55-.11-1.2-.15-1.81-.05-.76.07-1.58-.18-2.26-.84-2.35-.75-4.78-.78-7.21,0-.41-.27-.81-.46-1.33-.46.29-.87.47-1.17.76-.19.2-.31.55-.32.84-.13,2.73-.26,5.48.32,8.18.26,1.19.54,2.37.57,3.59,0,.45.04.92.14,1.36.28,1.18.79,2.28.86,3.53.27,4.39.63,8.79.92,13.18.02.26-.23.54-.4.93-.15-.51-.39-.93-.36-1.34.08-1.23.03-2.39-.48-3.56-.41-.96-.44-2.08-.78-3.07-.11-.35-.64-.56-.93-.79-.77.23-.84.96-1.29,1.33-.14.12-.52-.04-.86-.09-.45-1.73-.91-3.49-1.36-5.19-.31-.2-.57-.52-.81-.5-2.35.21-4.39-1-6.61-1.41-.68-.13-1.29-.76-1.86-1.25-.49-.41-.56-1.04-.55-1.66.01-.65.65-1.26,1.16-1.04,1.68.7,3.34,1.44,5.02,2.14.84.35,1.68.7,2.54,1.01.62.23,1.53-.21,1.92-.88.19-.32.01-1.06-.28-1.22-.13-.07-.23-.23-.36-.26-3.44-.74-6.47-2.61-9.84-3.57-.72-.21-1.42-.56-2.07-.94-1.06-.63-2.16-1.02-3.38-1.26-2.86-.57-5.45-1.9-8-3.25-2.29-1.21-4.59-2.37-7.08-3.13-1.01-.31-1.97-.81-2.91-1.29-2.3-1.18-4.5-2.51-6.97-3.38-1.26-.44-2.41-1.31-3.46-2.17-1.19-.98-2.36-1.85-3.87-2.3-.68-.2-1.24-.84-1.81-1.33-.22-.19-.39-.49-.47-.76-.08-.27-.06-.59-.01-.88.05-.3.84-.71,1.12-.63.29.08.61.12.88.24,1.65.79,3.32,1.52,4.91,2.42,3.71,2.09,7.48,4.03,11.38,5.77,5.83,2.6,11.72,5.07,17.45,7.88.95.46,1.97.79,2.98,1.08.61.18,1.18-.12,1.64-.57.51-.5.38-1.78-.25-1.95-2.05-.56-3.89-1.75-6.05-1.98-.95-.11-1.72-.57-2.46-1.12-.49-.36-.98-.84-1.54-.96-3.02-.66-5.43-2.66-8.3-3.68-2.85-1.02-5.6-2.35-8.41-3.5-1.98-.81-3.88-1.73-5.63-2.98-1.86-1.32-3.88-2.38-5.99-3.28-2.53-1.07-4.94-2.35-6.98-4.25-.79-.74-1.74-1.17-2.77-1.54-2.16-.77-4.13-1.91-5.92-3.37-1.29-1.05-2.67-1.99-4.16-2.79-1.2-.64-2.28-1.5-3.38-2.32-.97-.72-1.86-1.56-2.85-2.28-4.57-3.29-8.86-6.94-13.24-10.47-1.42-1.14-2.71-2.44-4.09-3.63-2.3-1.99-4.57-4.01-6.93-5.94-2.24-1.83-4.13-4.01-6.36-5.86-2.09-1.74-3.84-3.89-5.7-5.91-.73-.79-1.49-1.49-2.37-2.11-3.01-2.1-5.67-4.57-7.88-7.54-1.44-1.95-3.01-3.82-4.58-5.68-1.88-2.23-3.18-4.81-4.65-7.3-.23-.38-.5-.77-1-.86-.11-.02-.27,0-.36.07-.12.08-.27.22-.28.35-.04.3-.07.63.02.89.68,1.87,1.58,3.62,2.83,5.18,2.26,2.86,4.55,5.71,6.73,8.64,1.46,1.97,3.14,3.66,5.03,5.24,2.21,1.84,4.28,3.88,6.27,5.98,2.72,2.87,5.48,5.69,8.52,8.23.7.58,1.28,1.3,1.95,1.92.68.61,1.33,1.28,2.12,1.72,2.02,1.15,3.63,2.76,5.26,4.35,1.09,1.07,2.18,2.11,3.44,2.99.87.61,1.67,1.33,2.48,2.01,2.22,1.85,4.39,3.77,6.68,5.53,3.14,2.4,6.03,5.11,9.39,7.23.64.4,1.21.92,1.78,1.43,1.02.92,2.2,1.6,3.39,2.28,4.22,2.43,8.4,4.93,12.57,7.43.76.45,1.63.86,1.89,1.85-.15.26-.22.63-.44.77-1.29.78-1.52,1.78-.79,3.07.06.11.08.36,0,.43-.2.19-.52.5-.69.45-1.31-.42-2.5-1.1-3.37-2.17-.36-.45-.57-1.07-.71-1.65-.21-.88-.27-1.78-.44-2.67-.07-.36-.36-.51-.7-.43-.27.06-.62.11-.79.3-.29.33-.48.76-.7,1.13-.51.02-1-.07-1.17-.54-.45-1.29-.79-2.62-1.29-3.89-.13-.33-.69-.48-1-.68-.9.45-.78,1.34-1.15,1.97-.2.33-.87.37-1.17.03-.3-.34-.66-.67-.79-1.08-.23-.72-.28-1.49-.43-2.23-.15-.73-.7-1.43-1.04-1.37-.48.09-.67.5-.95.83-.67.79-1.17.82-1.96.39-1.81-.99-3.2-2.3-3.67-4.41-.09-.43-.34-.82-.49-1.15-.61-.24-.87.07-1.19.4-.29.3-.69.5-1.05.74-.43-.33-.81-.59-1.15-.88-.59-.52-.92-1.17-1.02-1.97-.11-1.04.21-2.14-.44-3.1-.45-.08-.92-.18-1.23.25-.27.36-.47.77-.7,1.15-1.4.05-2.23-.89-3.09-1.72-.57-.56-.74-1.3-.76-2.08-.02-.6-.02-1.22-.57-1.66-.85-.14-1.32.68-2.06.83-1.45-.43-2.35-1.33-2.41-2.92-.02-.45.05-.95-.11-1.35-.14-.38-.54-.65-.84-1-.63.55-1.19,1.03-1.77,1.54-1.39-.5-2.21-1.58-2.96-2.7-.24-.35-.29-.86-.35-1.3-.07-.6-.05-1.21-.11-1.82-.07-.68-.73-1.02-1.31-.67-.37.23-.72.51-1.07.76-.8-.23-1.26-.87-1.65-1.51-.64-1.02-1.14-2.14-1.79-3.16-.22-.35-.7-.56-1.09-.77-.32-.18-1.05.07-1.19.39-.23.52-.43,1.07-.66,1.68-.66-.31-1.2-.57-1.67-.79-.47-.79-.38-1.55-.39-2.31,0-.75-.06-1.51-.15-2.25-.04-.36-.34-.54-.65-.45-.27.08-.63.17-.75.38-.3.51-.49,1.09-.73,1.65-.28-.05-.61,0-.78-.14-.82-.71-1.4-1.6-1.57-2.7-.09-.59-.19-1.18-.24-1.5-.48-.87-1.18-.81-1.68-1.11-.35-.21-.75-.65-.78-1.02-.12-1.46-.89-2.14-2.28-2.41-1.01-.19-1.39-1.06-1.71-1.95-.07-.19-.46-.31-.73-.38-.35-.1-.6.07-.72.4-.1.28-.25.56-.3.85-.34,1.81-.32,3.63.15,5.42.07.28.3.51.52.88.53-.02,1.13-.05,1.91-.1.83,1.07,1.74,2.27,2.67,3.45.94,1.2,1.87,2.4,2.85,3.56.98,1.16,2.03,2.26,3.04,3.4,1,1.11,1.98,2.24,3.12,3.54-.67.05-1.15.22-1.52.08-1.13-.42-2.25-.92-3.33-1.47-1.63-.84-3.24-1.65-5.05-2.07-2.46-.58-4.34-2.12-6.12-3.82-.66-.63-1.2-1.37-1.8-2.06-.72-.82-1.19-1.78-1.42-2.83-.64-2.98-1.4-5.91-2.67-8.69-1.27-5.84-3.54-11.3-6.13-16.65-.86-1.77-1.23-3.74-2.23-5.48-.36-.63-.42-1.45-.53-2.2-.13-.9-.13-1.82-.24-2.72-.12-.92-.43-1.78-1.2-2.39-.76-.6-1.13-1.43-1.31-2.34-.43-2.23-.82-4.46-1.21-6.69-.02-.11.12-.31.23-.38.12-.07.31-.07.44-.02.27.1.56.21.78.4,1.05.89,1.96,1.9,2.72,3.06,1.83,2.82,4.1,5.26,6.47,7.64,1.71,1.72,3.22,3.64,4.75,5.53.96,1.18,1.77,2.48,2.66,3.71.44.61.87,1.25,1.39,1.81,2.06,2.23,4.15,4.44,6.24,6.64,2.93,3.09,5.87,6.17,8.81,9.24.53.55,1.09,1.06,1.66,1.57,1.82,1.62,3.49,3.37,5.15,5.16,3.41,3.68,6.84,7.39,10.81,10.47,3.59,2.79,6.93,5.94,11.05,8.04,1.35.68,2.58,1.62,3.81,2.5,2.24,1.59,4.56,3,7.05,4.18,1.09.51,2.09,1.24,3.04,2,1.44,1.16,3.01,2.04,4.7,2.77.97.42,1.96.87,2.8,1.49,3.43,2.54,7.16,4.6,10.84,6.73.53.3,1.05.65,1.63.83,2.93.9,5.59,2.39,8.29,3.78.67.34,1.37.66,2.09.91,2.3.81,4.5,1.85,6.68,2.92,1.51.74,3.05,1.33,4.68,1.77,2.49.66,4.89,1.63,7.44,2.13,1.16.22,2.23.95,3.34,1.43.98.43,1.98.84,3.06.8.42-.02.83-.24,1.18-.36.48-1.63-1.21-2.01-1.59-3.11.14-.25.22-.65.42-.73.55-.22,1.15-.35,1.74-.45,2.24-.39,4.49-.73,6.39-2.13.53.28,1.05.61,1.61.81.2.07.61-.12.74-.31.25-.36.4-.81.52-1.24.16-.57,0-1.22.48-1.74.52-.2.66.34.98.56.52.34,1.42.02,1.49-.49.06-.45.15-.9.14-1.35,0-.91-.14-1.82-.09-2.73.18-3.58.2-3.58-.49-7,.58-2.47.55-5.2.55-7.94,0-4.26.09-8.52.18-12.78.02-1.06.18-2.12.3-3.17.37-3.33.68-6.66.64-10.01-.05-3.8.09-7.6-.26-11.4-.13-1.35-.02-2.74-.06-4.1-.03-.75-.04-1.54-.26-2.25-.4-1.35-.36-2.7-.35-4.07.02-2.74-.03-5.48-.05-8.21,0-1.67-.05-3.35,0-5.02.14-4.26.02-8.52-.46-12.76-.26-2.28-.32-4.55-.39-6.83-.11-3.19-.05-6.39-.72-9.54-.16-.73-.14-1.51-.15-2.27-.06-5.63-.13-11.26-.14-16.89,0-1.53,0-3.03-.41-4.52-.66-2.39-.61-4.84-.18-7.24.28-1.5.42-3.01.58-4.52.13-1.2.3-2.41.53-3.6.42-2.26.51-4.53.47-6.81,0-.23-.32-.45-.49-.68-.24.17-.6.29-.69.52-.28.7-.56,1.42-.66,2.16-.14,1.05-.12,2.12-.17,3.19-.06,1.22-.11,2.43-.18,3.65-.02.3-.04.61-.09.9-.35,1.93-.72,3.85-1.14,6.1-.16-.77-.31-1.21-.32-1.65-.07-2.28-.25-4.57-.13-6.84.27-4.86.25-9.73.81-14.57.35-3.03.44-6.06-.36-9.07-.43-1.63-.35-3.36,0-4.99.58-2.74.36-5.44.07-8.16-.08-.76-.31-1.55-.17-2.26.43-2.13.06-4.24.02-6.36-.05-2.43-.06-4.86.27-7.29.33-2.41.37-4.85.5-7.28.04-.76.03-1.54-.12-2.27-.15-.72-.51-1.41-.78-2.11.95-2.08,1.84-4.18,2.87-6.19.32-.62,1.06-1.03,1.5-1.43.62-1.95-.85-3.27-1.15-4.89-.31-1.63-.92-3.21-1.41-4.87-.29-2.14.6-4.47-.59-6.61h-1.99c-.04-.64-.14-1.25-.09-1.84.12-1.21.39-2.41.46-3.61.07-1.05-.34-2.07-.2-3.17.28-2.12-.55-4.19-.29-6.34.23-1.95.7-3.89.26-5.9-.16-.71.12-1.5.14-2.26.1-2.43.2-4.86.26-7.29.01-.45-.03-.92-.17-1.35-.66-2.09-.59-4.25-.32-6.34.34-2.57.42-5.15.5-7.72.09-2.9.59-5.74,1.3-8.56.52-.19.72.25.9.58.37.66.72,1.34.96,2.06.3.87.42,1.81.05,2.68-.5,1.15-.57,2.32-.62,3.55-.15,3.34-.3,6.68-.6,10.01-.32,3.48-.25,6.99-.39,10.49-.05,1.36-.22,2.73-.34,4.09-.04.45-.21.92-.14,1.36.4,2.43-.09,4.85-.1,7.27-.01,2.44-.06,4.87-.07,7.3,0,.29.09.62.26.85.16.21.45.34.72.44.3.11.6-.05.72-.38.15-.42.34-.87.32-1.3-.16-3.21.24-6.37.5-9.55.32-3.78.34-7.6.35-11.4,0-2.89.09-5.76.41-8.65.38-3.47.4-6.98.56-10.48.15-3.34.87-6.62.85-9.81.93-.44,1.74.3,2.46-.59.44-1.14-.12-2.58.43-3.9.73.1.41.78.61,1.15.14.27.17.61.36.82.17.2.49.4.74.4.22,0,.57-.22.65-.43.26-.69-.04-1.52.51-2.2.12.21.31.39.32.59.13,2.28.21,4.56.34,6.84.06,1.06.11,2.14.36,3.16.28,1.12-.16,2.08-.42,3.21.61,1.47,1.15,3.05.5,4.8-.7.47-1.44.97-2.08,1.4-.62,1.45-.6,2.8-.29,4.15.15.64.61,1.02,1.26,1.17,1.07-.52,0-2.04,1.15-2.55.42.74.36,1.51.3,2.26-.37,4.38.38,8.81-.54,13.43.97,1.59.69,3.56.5,5.54-.08.84.36,1.45,1.29,1.56.55-.21,1.1-.52,1.68-.61.39-.06.97.05,1.24.3.8.77,1.14,1.8.93,2.9-.08.38-.46.87-.82.99-.85.3-1.77.38-2.65.6-.91.22-1.5.99-1.58,1.97-.05.61.14,1.32-.12,1.8-1.26,2.31-.68,4.73-.63,7.13,0,.29.64.85.95.85,1.21,0,2.41,0,3.64,0,.58.5,1.15.98,1.71,1.47.3,0,.61.05.88-.01.34-.09.55,0,.61.38.02.14.02.36-.06.44-.44.41-.85.92-1.38,1.14-1.41.59-2.91.85-4.41,1.1-.4.07-.75.45-1.14.7-.1,1.1-.14,2.17-.31,3.21-.18,1.03-.48,2.05-.72,3.04.22.59.44,1.16.67,1.78-.21,1.15-.42,2.34-.63,3.5-.49.63-.96,1.21-1.46,1.85.65.39,1.26.75,2.01,1.2.29,1.41.2,2.91.06,4.42-.31.54-.62,1.06-.92,1.58,1.11,1.87,1.15,1.97,1.22,3.24.14,2.58.04,5.16.57,7.72.34,1.62-.35,2.93-1.83,3.8.35.15.63.27.9.4.58.27.97.68,1.06,1.35.14,1.09.09,2.11-.75,2.97-.17.18-.16.54-.24.81.82.54,1.29,1.28,1.25,2.28-.02.61-.14,1.21-.14,1.82,0,.59,0,1.22.18,1.78.29.88.57,1.75.44,2.67-.21,1.51-.41,3.02-1.29,4.34.48,1.26.89,2.53.85,3.94-.05,1.78-.93,3.57-.07,5.36,0,1.67,0,3.35,0,5.02,0,1.83-.01,3.65,0,5.48.02,2.43.2,4.86.04,7.28-.11,1.71.61,3.31.36,4.97-.22,1.5-.64,2.98-.33,4.52-.47,2.87-.03,5.76-.17,8.64-.13,2.89-.06,5.78-.08,8.67-.03,2.89-.11,5.78-.08,8.67.03,3.35.16,6.69.25,10.03,0,.3-.01.62.05.91.89,4.05.73,8.17.79,12.27,0,.61.07,1.21.12,1.82.05.53.65,1.33,1.11,1.26.38-.06.7-.46.99-.67-.08-1.94-.16-3.76-.22-5.57-.06-1.82-.08-3.65-.14-5.47-.05-1.37-.19-2.71-.42-4.07-.54-3.16-.33-6.35-.18-9.34.73-.97,1.58-1.2,2.5-1.24-.52-.96-1.61-.73-2.32-1.38-.1-.34-.32-.77-.33-1.2-.05-3.49-.07-6.98-.07-10.46,0-1.06,0-2.14.24-3.17.2-.91.22-1.73.04-2.66-.35-1.78-.26-1.8.55-4.45-.1-1.17-.82-2.3-.27-3.54.39-.87.23-1.78.25-2.69.03-1.35.21-2.7.34-4.34,0,.01,0-.32-.16-.56-.74-1.13-.67-2.29-.26-3.49.31-.88,1.1-1.38,2.16-1.25.43.05.83.32,1.31.52.25.87.5,1.73.74,2.58-.36.6-.67,1.11-.99,1.64.03.26,0,.55.1.81.17.42.42.81.62,1.22.59,1.24.42,2.35-.58,3.31-.1.1-.14.25-.24.43.26.34.54.69.81,1.05.8,1.08.77,1.65-.16,2.78-.18.23-.36.46-.54.69.12.27.18.61.38.81,1.15,1.15,1.15,2.39.35,3.71-.23.38-.5.75-.79,1.2.31.81.7,1.63.95,2.48.55,1.81.47,2.15-.66,4.29.11.9,1.07,1.35,1.14,2.34.09,1.26-.12,2.4-.68,3.52.42,1.44,1.04,2.87.22,4.6-.62.32-1.4.73-2.19,1.14.55.9,1.66.72,2.2,1.45.08.13.23.25.23.38.02.9,0,1.79,0,2.64-.47.51-.88.95-1.29,1.4.09.26.14.56.29.77.36.48.91.86,1.13,1.38.57,1.39.11,2.62-1.17,3.52-.36.26-.74.49-1.26.82.53.22.93.36,1.31.53,1.01.46,1.35,1.19.98,2.18-.09.27-.27.6-.5.72-.67.34-1.41.54-2.08.88-.43.22-.5.68-.35,1.25.82.19,1.68.39,2.49.58.63.68.55,1.44.48,2.2-.08.82-.55,1.38-1.17,1.87-.34.28-.66.61-.96.89.06.34,0,.77.16.88,1.7,1.19,1.54,2.8,1.05,4.48-.12.42-.4.79-.68,1.32.24.47.54.98.76,1.53.42,1.02.5,2.07.06,3.1-.18.41-.5.77-.99.84-.3.04-.59.08-.9.08-2.13-.02-2.61.27-2.68,2.03-.07,1.69-.3,3.32-.92,4.85.97,4.26,1,8.45.22,12.69-.33,1.77.1,3.61.18,5.42,0,.13.14.25.2.39.27.56,1.1.77,1.52.36.11-.11.27-.18.33-.31.71-1.45,1.87-1.88,3.39-1.53,1.06,1.56,1.07,2.17.05,4.7.44.69.96,1.41,1.35,2.19.32.63-.25,1.76-.87,1.84-1.2.16-2.41.25-3.61.43-.44.06-.87.24-1.27.45-.26.13-.45.39-.71.63,1.24,1,2.23-.6,3.38-.32.43.12.89.21,1.31.37,1.91.73,2.06,1.02,1.81,3.51-.46.46-1.04.61-1.65.63-1.37.04-2.74,0-4.1.11-.57.05-1.11.41-1.65.67-.09.05-.13.26-.16.41-.06.27.11.53.5.53,1.97.04,3.94.03,5.92.07.44,0,.88.18,1.43.29,1.17,1.85.55,3.4-.92,4.91.22.33.39.81.72,1.01.7.43,1.08,1.03,1.3,1.79.31,1.08.31,2.12-.63,2.92-1.02.87-2.2.97-3.42.54-.25-.09-.51-.37-.61-.63-.43-1.18-.4-2.4.07-3.55.21-.52.75-.9,1.17-1.38-.45-.58-1-1.12-1.34-1.78-.34-.66-.43-1.45-.7-2.15-.09-.25-.39-.45-.62-.61-.22-.15-.8.41-.89.82-.03.15-.12.29-.13.44-.09,1.21-.15,2.41-.5,3.59-.21.69-.03,1.5-.02,2.25.05,4.25.52,8.5-.1,12.75-.06.43-.05.94.12,1.34.56,1.33.46,2.64.27,4.03-.25,1.81-.07,3.63.18,5.45.17,1.2.36,2.44.22,3.63-.46,3.95.23,7.88.11,11.83-.07,2.33.73,4.47,1.58,6.59.14.34.81.73,1.13.57,2.53-1.21,5.04-.48,7.58-.05.15.03.47-.34.54-.57.08-.26,0-.6-.1-.87-.18-.49-.07-.89.3-1.19.35-.28.73-.55,1.14-.72.98-.4,1.97-.8,2.99-1.1,2.62-.77,5.2-1.63,7.66-2.88,1.34-.68,2.85-1.04,4.28-1.55.86-.3,1.84-.46,2.54-.98,2.48-1.85,5.46-2.62,8.16-3.98.68-.34,1.38-.66,2.02-1.05,2.46-1.51,4.8-3.25,7.37-4.52,2.85-1.41,5.54-3.2,8.48-4.37,3.68-1.46,7.22-3.18,10.82-4.8,4.18-1.87,8.06-4.25,11.92-6.66.39-.24.79-.48,1.13-.78,1.4-1.23,3.2-1.72,4.76-2.64,1.44-.85,2.23-2.48,3.73-3.32,2.12-1.19,4.19-2.47,6.69-3.94,1.42-2.02,3.7-3.75,6.28-5.12.82-.43,1.52-1,2.11-1.71,2.09-2.46,4.44-4.6,7.34-5.66.6-.82,1.04-1.44,1.49-2.04,1.11-1.47,2.35-2.79,4-3.68.53-.28,1.02-.66,1.51-1.02,1.12-.83,1.32-2.44,2.58-3.13,1.23-.68,2.12-1.65,3.02-2.71,2.16-2.55,4.46-4.97,6.7-7.45.51-.56,1.02-1.13,1.48-1.74,3.43-4.46,7.32-8.52,11.23-12.9.58-2.03,1.8-3.91,3.62-5.4,3.61-4.31,7.29-8.57,9.83-13.65.26-.51.45-1.12,1.14-1.24.07.14.2.27.2.4-.03,2.42.05,4.86-.16,7.27ZM151.14,242.24c.61,2.25.44,4.52.43,6.8,0,1.97.11,3.95.18,5.92.06,1.52.15,3.04.21,4.55.04,1.06.05,2.12.11,3.19.27,4.39.57,8.79.83,13.19.05.76.02,1.51,0,2.28-.08,3.64-.52,7.28.24,10.91-.09,1.82-.18,3.64-.28,5.46-.1,1.82-.17,3.63.3,5.44.23.87.28,1.8.3,2.71.11,6.99.45,13.97.02,20.97-.11,1.82-.14,3.63-.52,5.43-.28,1.32-.23,2.72-.24,4.09-.07,7.29-.26,14.58-.2,21.87,0,.74.09,1.55-.45,2.17-.12.14-.45.11-.82.2-.07-3.54-.47-7.02.2-10.5.11-.59.19-1.24.05-1.8-.43-1.81-.27-3.64-.28-5.45-.02-2.73-.03-5.47-.04-8.21-.01-2.89-.1-5.77.32-8.65.15-1.04.08-2.12.04-3.18-.05-1.21-.19-2.41.03-3.63.13-.73.11-1.54-.05-2.27-.54-2.56-.4-5.14-.44-7.73-.03-2.12-.07-4.25-.07-6.38,0-4.41.02-8.82,0-13.22,0-1.82-.07-3.65-.1-5.47-.04-2.89-.05-5.78-.09-8.66-.02-2.13.2-4.3-.14-6.37-.63-3.93-.47-7.89-.61-11.83-.19-5.17-.27-10.33-.25-15.5,0-3.64.27-7.28.43-10.91,0-.12.13-.24.31-.54.38,2.42.57,4.67.52,6.95-.05,1.98-.08,3.95-.09,5.93,0,.76-.05,1.55.14,2.27ZM165.89,119.28c-.25-.17-.62-.29-.7-.52-.15-.4-.22-.88-.15-1.3.21-1.28.98-2.13,1.57-1.88.79.34,1.04,1.04,1.2,1.79.24,1.07-.67,1.98-1.92,1.92ZM167.49,122.53c-.07.29-.08.79-.3,1.15-.32.54-.89.75-1.54.67-.36-.04-.91-.42-.98-.78-.08-.44-.16-.89-.12-1.33.08-.77.81-1.36,1.54-1.32.79.05,1.38.66,1.4,1.6ZM169.62,201.77c-.25.89-1.54,1.63-2.56,1.42-.22-.04-.48-.34-.57-.58-.16-.42-.28-.88-.26-1.32.1-2.12.17-4.22-.16-6.33-.08-.53.05-1.21.76-1.49.64.74.18,1.66.41,2.46.2.72.37,1.46.52,2.08.37.26.61.46.87.61,1.14.64,1.42,1.65.99,3.16ZM169.53,206.54c-.37.48-.88.74-1.71.8-.23-.12-.69-.23-.96-.53-.4-.43-.35-1.25.03-1.63.3-.31.68-.56,1.07-.75.59-.3,1.2-.09,1.54.44.35.53.36,1.24.03,1.66ZM165.62,138.22c.75-.25,1.46-.19,2.46.48.23.8.44,1.51.62,2.23.26,1.05-.21,1.63-1.39,1.72-.44.04-.93.09-1.32-.05-.38-.14-.85-.46-.98-.81-.31-.84-.45-1.73-.23-2.63.12-.46.39-.78.84-.93ZM164.97,135.69c-.21-1.45.6-2.53,1.5-3.54.16-.18.54-.18.82-.24.34-.06.63.07.72.39.36,1.18.27,2.34-.23,3.45-.1.22-.45.38-.71.44-.75.18-1.48.1-2.11-.5ZM164.99,145.72c.08-.5.67-1.02,1.25-1.09.77-.09,1.56.44,1.66,1.15.12.88.2,1.76.29,2.57-.04.52-.02.98-.12,1.41-.06.27-.23.55-.44.73-.74.65-2.35.12-2.57-.79-.31-1.32-.26-2.64-.07-3.97ZM166.01,152.25c.59-.32,1.14-.13,1.64.26.11.09.22.2.38.35.39,1.41.42,2.9.08,4.37-.09.41-.43.75-.92.88-.59.16-1.4-.1-1.51-.57-.27-1.16-.61-2.32-.76-3.49-.1-.78.38-1.43,1.09-1.81ZM166.85,183.35c-.52-1.31-.46-2.68-.45-4.04,0-.44.16-.87.29-1.53.41.39.82.61.93.93.52,1.46.51,2.97,0,4.43-.05.14-.5.14-.78.2ZM166.81,190.64c-.93-1.3-.72-2.5.05-3.79.68,1.31.78,2.51-.05,3.79ZM166.76,173.29c.05-.07.19-.06.29-.08.09.11.25.22.26.34.04.56.07,1.13.02,1.69-.02.16-.34.3-.54.41-.03.02-.24-.19-.27-.31-.13-.7-.3-1.43.25-2.04ZM165.77,160.59c.06-.27.25-.55.46-.73.2-.17.49-.29.75-.32.36-.02.9.57.9.88,0,.15.09.31.05.43-.42,1.26-.23,2.67-.99,3.99-.36-.26-.87-.43-.97-.73-.36-1.14-.5-2.34-.2-3.53ZM165.77,168.56c0-.29.03-.63.18-.85.22-.34.57-.6.86-.9.73.62.62,1.36.59,2.07-.05,1.21-.49,1.9-1,1.6-.81-.46-.63-1.23-.62-1.93ZM169.78,298.66c-.54.25-1.13.41-1.7.59-.1.03-.28-.04-.37-.12-.34-.31-.36-1.54-.06-2.18.22-.47.92-.84,1.51-.81.66.03,1.16.42,1.32,1.04.15.61-.09,1.22-.7,1.5ZM170.31,301.45c0,.25-.18.62-.38.72-.38.2-.85.36-1.25.31-.39-.06-.9-.33-1.04-.66-.12-.27.19-.74.3-1.13.72.07,1.32.08,1.89.2.2.05.48.36.49.55ZM167.7,304.02c.61-.89,1.98-.96,2.79-.16.13.14.05.54,0,.8-.02.12-.18.27-.31.31-.71.25-1.43.47-2.05.67-.73-.51-.82-1.08-.43-1.63ZM169.68,294.17c-.43.04-.86,0-1.3-.04-.49-.05-.79-.39-.9-.81-.11-.42-.13-.87-.11-1.3.03-.66.46-1.16.97-1.31.62-.19,1.2-.04,1.64.35.55.5.87,1.17.8,1.88,0,.64-.47,1.18-1.09,1.24ZM168.58,285.34c.5-.29,1.29.02,1.4.56.07.29.09.58.16.97-.05.33,0,.83-.21,1.18-.2.33-.62.61-1,.72-.4.12-.88.03-1.13-.42-.63-1.1-.29-2.38.79-3Z"/>
      <path class="cls-1" d="M154.99,165.58c.06-.6.08-1.2.07-1.8-.02-1.35-.06-2.69-.09-4.18-.26-.17-.61-.41-.92-.61-.89.36-1.24,1.02-1.19,1.82.16,2.73-.02,5.44-.12,8.16-.02.45-.05.91-.02,1.36.24,3.17.17,6.34-.09,9.51-.04.59.08,1.2.23,1.78.16.64.61.98,1.38.91.11-.38.27-.8.34-1.23.07-.44.03-.9.1-1.35.07-.45.21-.88.32-1.32.11-.44.22-.87.36-1.39-.75-3.83-.72-7.74-.36-11.67Z"/>
      <path class="cls-1" d="M157.38,75.34c-.79,2.78-1.21,5.61-.79,8.5.3,2.11.24,4.2.02,6.31-.14,1.34-.07,2.71,0,4.06.04.63.49,1.07,1.26,1.16.14-.39.42-.8.42-1.21.07-3.62.11-7.25.1-10.87,0-1.82-.11-3.61.56-5.37.26-.68.28-1.49.28-2.23,0-.42-.28-.83-.41-1.2-.76-.07-1.24.18-1.43.85Z"/>
      <path class="cls-1" d="M227.26,355.7c-2.26,1.44-4.51,2.92-6.76,4.39-.24.16-.43.41-.61.65-.28.38-.39.83-.19,1.25.21.44.67.52,1.09.5,2.05-1.28,4.07-2.54,6.09-3.81.38-.24.83-.41,1.12-.73.28-.31.53-.76.56-1.17.03-.39-.24-.81-.37-1.19-.38.03-.73-.04-.95.1Z"/>
      <path class="cls-1" d="M316.2,280.24c-1.29,1.24-2.55,2.47-3.25,4.18-.27.65-.05,1.08,1.07,1.62.4-.37.87-.72,1.23-1.17.85-1.03,1.64-2.1,2.44-3.16.09-.11.08-.28.14-.42.12-.31-.11-1.02-.41-1.19-.34-.2-.94-.14-1.23.14Z"/>
      <path class="cls-1" d="M20.86,305.77c.78,1.48,1.78,2.78,3.2,3.72.12.08.29.18.42.15.28-.06.61-.12.8-.31.18-.18.38-.59.29-.78-.7-1.52-1.65-2.86-2.98-3.89-.21-.16-.57-.14-.85-.2-.25.16-.56.27-.71.5-.15.22-.27.62-.17.81Z"/>
      <path class="cls-1" d="M173.41,380.11c-1.96-.21-3.91-.18-5.86.13-.14.02-.26.14-.4.19-.37.13-.68.58-.62,1.08.04.27.2.58.41.76.2.17.53.21.8.31.26-.15.57-.25.78-.45.95-.94,2.09-1.14,3.35-.91.58.1,1.16.29,1.75.33.18.01.53-.31.56-.52.02-.23-.2-.51-.36-.74-.07-.1-.25-.18-.39-.19Z"/>
      <path class="cls-1" d="M34.82,326.85c.27.16.55.01.83-.4-.36-.57-.69-1.24-1.13-1.82-.62-.83-1.31-1.61-2-2.39-.19-.22-.48-.34-.72-.51-.28-.2-.96-.15-1.22.1-.27.26-.27.88-.03,1.2,1.17,1.56,2.61,2.82,4.28,3.81Z"/>
      <path class="cls-1" d="M20.46,300.36c.22-.11.31-.45.46-.69-.34-1.68-.89-2.62-2.42-4.12-.09-.09-.34-.15-.42-.09-.2.16-.52.4-.5.58.17,1.67.83,3.14,2.06,4.3.16.15.6.14.82.03Z"/>
      <path class="cls-1" d="M165.3,279.12c.56-.16,1.13-.32,1.48-.86-.83-.56-1.26-.61-1.78-.08-.13.14-.05.51-.01.77.01.07.23.19.31.16Z"/>
      <path class="cls-1" d="M165.95,312.1c-.06-.1-.11-.27-.19-.28-.24-.03-.49,0-.73.03-.05,0-.12.21-.09.27.05.11.2.26.27.25.25-.05.49-.17.73-.26Z"/>
      <path class="cls-1" d="M172.27,21.54c2.94,1.25,5.66,2.87,7.88,5.19,1.56,1.63,2.97,3.41,4.48,5.1.4.44.88.82,1.39,1.12.17.1.54-.12.79-.24.08-.04.14-.27.1-.36-1.63-3.49-4.34-6.13-6.98-8.81-.31-.32-.72-.55-1.11-.78-1.55-.94-3.07-1.93-4.67-2.78-1.89-1-3.92-1.56-6.08-1.56-.74,0-1.35.35-1.38.86-.03.5.18.82.61,1.08.34.21.64.49.95.75,1.36-.1,2.74-.12,4.01.42Z"/>
      <path class="cls-1" d="M239.16,181.33c.24,1.52.89,2.91,1.67,4.22.55.92,1.38,1.62,2.48,1.9.44.11.9.19,1.32.35,1.39.51,2.69.22,3.97-.37.6-.27.91-.77,1.14-1.44-.21-.32-.46-.68-.68-1.01-1.13.15-2.18.35-3.23.4-1.75.1-3.26-1.16-3.58-2.87-.37-1.99-.37-3.93.69-5.75.3-.51.48-1.09.7-1.6-.68-.79-1.35-.77-2.1-.35-.76.43-1.13,1.33-1.99,1.62-.12,1.04-.27,2.07-.36,3.11-.06.6-.11,1.22-.02,1.8Z"/>
      <path class="cls-1" d="M247.39,178.47c-.32-.51-.55-1.06-.85-1.58-.26-.45-1.17-.46-1.6-.02-.43.45-.79.99-.59,1.61.65,1.94,1.74,3.5,4.31,4.21.93-.63,2.1-.62,2.76-1.58.14-.21.13-.53.12-.8,0-.11-.2-.29-.31-.3-.89-.09-1.78-.13-2.85-.21-.29-.39-.67-.84-.98-1.34Z"/>
    </g>
  </g>
</svg>