<?xml version="1.0" encoding="UTF-8"?>
<svg id="Layer_2" data-name="Layer 2" xmlns="http://www.w3.org/2000/svg" viewBox="0 0 297.49 393.04">
  <defs>
    <style>
      .cls-1 {
        fill: #6d442f;
        fill-rule: evenodd;
      }
    </style>
  </defs>
  <g id="_Layer_" data-name="&amp;lt;Layer&amp;gt;">
    <g>
      <path class="cls-1" d="M297.14,287.48c-.68-4.63-.89-9.31-1.49-13.95-.19-1.45-.37-2.87-.75-4.28-.62-2.33-1.14-4.7-1.59-7.07-.61-3.17-1.22-6.33-2.1-9.43-.13-.47-.3-.93-.36-1.41-.42-3.22-1.51-6.26-2.46-9.34-1.19-3.87-2.72-7.57-4.32-11.27-1.23-2.84-2.94-5.38-4.5-8.01-.4-.67-1.06-1.22-1.66-1.75-1.09-.96-2.26-1.18-3.56-.12-1.26,2.5-2.73,5-3.6,7.8-.38,1.22-1,2.38-1.58,3.53-3.25,6.32-6.88,12.43-10.49,18.54-2.96,5.01-6.48,9.64-9.79,14.42-2.67,3.86-5.52,7.55-8.85,10.86-.21.21-.26.58-.38.88.41,1.54.81,3.08,1.2,4.55,4.82,4.51,8.67,9.69,12.62,14.53.31,1.34.3,2.45-.19,3.49-2.28,2.55-4.53,5.08-6.81,7.59-.54.59-1.18,1.1-1.78,1.64-1.08.97-2.2,1.9-3.25,2.9-1.76,1.67-3.63,3.2-5.6,4.62-2.09,1.51-4.02,3.23-6.03,4.86-3.01,2.44-6.09,4.81-9.38,6.84-3.43,2.12-6.91,4.15-10.6,5.82-3.69,1.66-7.38,3.21-11.41,3.85-.95.15-1.89.47-2.77.86-1.64.72-3.36,1.12-5.08,1.56-1.09.28-2.19.55-3.29.81-2.66.65-5.32,1.29-7.99,1.93-1.58.38-3.17.63-4.79.52-.65-.05-1.27-.19-1.75-.89.03-.36-.01-.84.11-1.29.64-2.39.65-4.83.23-7.2-.42-2.41-.55-4.8-.62-7.23-.03-1.13.02-2.28-.21-3.38-.61-2.87-.52-5.78-.56-8.68-.04-2.42-.11-4.84-.24-7.26-.35-6.94-.77-13.86-1.1-20.8-.19-4.02-.44-8.05-.14-12.08.07-.96.11-1.96-.06-2.9-.71-3.83-.83-7.69-.69-11.58.05-1.29-.08-2.58-.08-3.87.01-3.73-.68-7.4-.88-11.1-.12-2.1-.22-4.2-.5-6.27-.2-1.45-.27-2.88-.31-4.33-.11-4.36-.19-8.72-.53-13.07-.16-2.09-.36-4.17-.39-6.27-.05-2.74-.14-5.49-.25-8.23-.07-1.77-.11-3.56-.38-5.31-.29-1.92-.32-3.85-.38-5.79-.1-3.07-.09-6.16-.5-9.18-.33-2.41-.47-4.81-.58-7.23-.16-3.55-.08-7.11-.66-10.63-.16-.94-.06-1.93-.02-2.9.18-4.18.64-8.34.82-12.52.09-1.96.45-3.84,1.2-5.66,1.64-1.45,3.68-2.08,5.67-2.63,4.82-1.32,9.69-2.45,14.46-3.97,6.98-1.28,13.82-3.19,20.76-4.69,1.58-.34,3.14-.74,4.68-1.2,3.4-1.02,6.76-2.2,10.37-2.2.31,0,.63-.12.95-.18,3.01-.59,6.01-1.17,9.02-1.78,4.11-.83,8.2-1.73,12.27-2.74,1.43-.36,2.76-.85,3.95-1.75.64-.48,1.37-.85,2.06-1.28,1.61-1,2.53-2.45,2.78-4.32.02-.16.06-.32.08-.48.18-1.6.41-3.2.52-4.8.17-2.45-1.38-4.35-3.85-4.74-.95-.15-1.93-.14-2.89-.15-4.52-.05-9.05-.05-13.57-.13-1.93-.04-3.89.8-5.79.5-1.76-.29-3.52-.45-5.3-.48-8.56-.14-16.97-.64-25.53-.45-4.99.11-10.01-.09-14.98.78-.95.17-2.08-.48-3.05-.45-3.07.09-6.13.17-9.2.24-1.77.04-3.55.03-5.32.02-.62,0-1.31-.59-1.34-1.17-.2-3.54-.87-7.04-.84-10.6.02-2.58-.08-5.17-.19-7.75-.07-1.61-.5-3.22-.37-4.8.14-1.78.11-3.54.15-5.31.08-3.55.18-7.1.3-10.65,0-.3.2-.6.34-.99.34-.2.72-.52,1.16-.66,1.71-.56,3.28-1.33,4.67-2.49.61-.51,1.36-.86,2.05-1.29,2.78-1.73,5.1-3.95,7.06-6.55,1.16-1.55,2.24-3.16,3.39-4.72,2.03-2.77,3.51-5.79,4.33-9.12.43-1.72.98-3.44,1.11-5.19.24-3.05.36-6.14.24-9.2-.23-5.78-1.92-11.1-5.68-15.64-.82-.99-1.59-2.03-2.41-3.08-.75-.53-1.59-1.02-2.33-1.64-3.39-2.86-7.34-4.67-11.41-6.26-3.32-1.29-6.72-2.21-10.3-2.48-1.6-.12-3.19-.38-4.79-.66-2.69-.48-5.44-.84-8.12.25-.44.18-.95.22-1.42.27-2.64.25-4.97,1.33-7.24,2.59-5.74,3.19-10.69,7.24-14.02,13.02-.32.56-.76,1.05-1.09,1.59-3.1,5.05-4.92,10.55-5.24,16.44-.3,5.51.46,10.96,2.09,16.25.33,1.08.8,2.12,1.31,3.11,2.3,4.39,5.6,7.82,9.79,10.48,2.67,1.7,5.32,3.03,8.59,2.49.53-.09,1.34.62,1.41,1.11.04.32.14.63.15.95.18,4.52.4,9.03.1,13.56-.33,5.16-.47,10.32-.22,15.5.2,4.03.24,8.07.34,12.11.02.86-.26,1.57-1.28,2.15-4.11.11-8.46.21-12.82.34-4.19.13-8.4.02-12.57.59-1.11.15-2.26.11-3.39.13-5,.09-10.01.26-15.01.23-5.17-.03-10.3.57-15.47.6-6.94.05-13.88.63-20.82.3-.64-.03-1.29.02-1.93.09-.67.08-1.23.44-1.63.95-.81,1.02-1.38,2.18-1.61,3.47-.29,1.59-.59,3.17-.84,4.77-.16.95-.28,1.92-.32,2.88-.09,2.31.96,3.66,3.19,4.18,2.04.48,4.09.93,6.13,1.39.47.1.99.34,1.4.23,1.34-.36,2.54.18,3.8.38,2.39.4,4.73,1,7.12,1.37,4.3.67,8.6,1.35,12.8,2.53,1.7.48,3.46.81,5.22,1.03,3.24.4,6.32,1.25,9.04,2.84,3.21-.14,6.27-.02,9.24.86,3.56,1.06,7.15,1.97,10.83,2.56,1.11.18,2.27.33,3.3.76,1.82.78,3.75.9,5.66,1.22,1.59.27,3.19.5,4.77.81.65.12,1.19.48,1.47,1.15-.08,2.07-.14,4.16-.25,6.25-.1,1.77-.25,3.54-.4,5.31-.12,1.45-.35,2.89-.42,4.33-.22,5-.48,10-.45,15.01.01,2.24-.47,4.49-.56,6.74-.2,5.33-.33,10.65-.41,15.98-.06,4.04-.04,8.07,0,12.11.02,3.55.03,7.1.82,10.6.24,1.09.31,2.26.23,3.37-.25,3.54.17,7.11-.45,10.64-.08.47-.02.97,0,1.45.14,2.74.28,5.48.42,8.22.16,3.06.18,6.15.56,9.18.25,1.95.29,3.84.09,5.77-.17,1.61-.25,3.22-.21,4.83.05,1.93.41,3.85.38,5.78-.03,2.09-.45,4.17-.53,6.26-.15,4.04-.29,8.07-.22,12.11.07,4.2-.55,8.36-.26,12.57.19,2.72.31,5.48-.34,8.2-.11.46-.05.97-.06,1.45-.11,5.33-.24,10.65-.31,15.98-.05,3.87-.29,7.72-.95,11.52-.29.19-.54.47-.82.51-.8.1-1.61.15-2.41.13-5.32-.13-10.65-.1-15.94-.84-3.58.15-7.08-.46-10.53-1.31-2.34-.58-4.74-1.09-6.97-1.99-4.64-1.86-9.19-3.95-13.76-5.96-1.78-.79-3.38-1.86-4.9-3.09-2.64-2.13-5.24-4.3-7.98-6.3-2.33-1.71-4.41-3.77-6.57-5.71-.59-.54-1.1-1.18-1.59-1.82-1.86-2.44-3.67-4.92-5.55-7.34-2.7-3.46-4.9-7.2-6.53-11.28-.47-1.19-1.19-2.29-1.18-3.71.89-2.2,2.28-4.18,3.58-6.23,2.93-4.63,6.08-9.14,8.49-14.09.27-.57.66-1.11.53-1.97-.48-.83-.99-1.84-1.62-2.77-.46-.65-1.13-1.15-1.62-1.79-.68-.9-1.37-1.81-1.91-2.79-1.88-3.38-4.35-6.41-5.92-9.98-.38-.86-1.14-1.56-1.67-2.37-.79-1.21-1.63-2.41-2.28-3.7-2.84-5.64-5.17-11.46-6.55-17.64-.5-2.2-.82-4.47-1.81-6.51-1.22-2.52-1.92-5.12-2.19-7.88-.08-.79-.32-1.58-.57-2.34-.42-1.26-2.21-1.74-3.2-.86-.48.42-.95.89-1.28,1.43-2.32,3.87-4.79,7.66-6.52,11.86-.43,1.04-.94,2.06-1.54,3.02-2.58,4.12-4.25,8.69-6.39,13.03-.28.57-.5,1.19-.73,1.79-1.84,4.99-3.79,9.95-5.49,14.99-1.86,5.5-3.68,11.03-3.71,16.95,0,.16-.01.32-.03.48-.45,3.84-.87,7.69-1.34,11.53-.28,2.29.02,4.51.64,6.71.22.8.69,1.47,1.31,2,.61.52,1.25,1.03,1.96,1.4,2.43,1.27,4.9,2.46,7.33,3.73,2.37,1.23,4.8,1.82,7.46,1.14.14-.03.31.07.48.11,1.03.7,1.26,1.88,1.45,2.95.47,2.57,1.51,4.94,2.44,7.33.82,2.1,1.68,4.21,2.73,6.2,2.32,4.42,3.92,9.23,7.19,13.13.51.61.75,1.43,1.2,2.1,1.19,1.72,2.25,3.58,3.68,5.09,4.33,4.57,8.58,9.21,13.53,13.15,2.78,2.21,5.5,4.5,8.18,6.82,1.71,1.49,3.39,2.99,5.48,3.93.75.34,1.32.9,1.67,1.67.35.76.94,1.3,1.65,1.71,1.54.89,3.08,1.77,4.61,2.66,6.6,3.83,13.67,6.53,20.96,8.72.46.14.93.3,1.4.37,2.39.34,4.71,1.12,7.16,1.16,2.62.03,5.01,1.23,7.57,1.53.96.11,1.94.09,2.9.16,1.94.15,3.88.22,5.79.51,3.36.5,6.73.74,10.13.85,3.94.12,7.67.91,10.85,3.45.63.5,1.34.91,2.01,1.36,1.37.94,2.33,2.03,2.67,3.82.34,1.82,3.32,2.77,4.77,1.65,1.13-.88,2.5-1.56,3.14-2.95.79-1.71,2.17-2.76,3.73-3.66,2.96-1.7,6.15-2.84,9.39-3.81,1.7-.51,3.45-.76,5.22-1.02,2.87-.42,5.69-1.06,8.61-1.1.47,0,.93-.24,1.4-.34.79-.16,1.58-.41,2.38-.41,1.64-.02,3.19-.43,4.77-.77,4.26-.91,8.45-2.09,12.63-3.33,7.47-2.21,14.57-5.24,21.12-9.49.54-.35,1.12-.64,1.67-.98,4.58-2.73,9.1-5.54,12.96-9.28.58-.56,1.25-1.02,1.86-1.55,1.58-1.37,3.21-2.7,4.73-4.15,2.81-2.68,5.63-5.33,8.28-8.16,2.76-2.94,5.32-6.07,7.95-9.13.95-1.1,1.84-2.24,2.76-3.37.72-.88,1.51-1.7,2.14-2.63,3.52-5.23,6.79-10.6,9.17-16.47.66-1.64,1.41-3.25,2.22-5.08,1.22-.55,2.07-1.03,2.98-1.33,2.14-.7,4.32-1.29,6.48-1.94,1.54-.47,3.12-.86,4.61-1.46,1.79-.72,3.49-1.61,5.5-1.73,1.21-.07,2.31-1.52,2.39-2.72.18-2.75.16-5.51-.24-8.22ZM275,231.74c.64-.61,1.26-.64,1.66-.11.08.11.07.29.1.44-.23.18-.43.45-.68.51-.46.09-.94.03-1.24-.41-.05-.08.05-.33.16-.43ZM258.89,258.39c.28.07.67.05.81.22,1.95,2.37,4.24,4.37,6.65,6.23,1.32,1.02,1.34,2.92.14,4.23-.39.42-1.36.53-1.78.2-.37-.3-.79-.56-1.09-.93-1.02-1.23-2.01-2.49-3-3.75-.98-1.26-1.96-2.51-3.34-3.36.09-1.2.63-2.14,1.59-2.84ZM256.35,263.32c2.54,3.23,5.27,6.35,8.41,9.07.2.17.32.57.26.83-.1.52-.54.72-1.11.73-2.7-1.41-4.93-3.41-6.69-5.96-.72-1.04-1.5-2.03-2.21-3.01-.09-1,.35-1.52,1.33-1.67ZM263.65,288.77c-.05.12-.1.23-.15.35-.09.1-.19.2-.29.3.06-.13.13-.26.19-.39.08-.09.16-.17.24-.26ZM253.14,267.34c.37.18.74.24.88.45,2.07,3.16,4.79,5.64,7.9,7.73.4.27.79.57,1.1.93.34.39.3.91.13,1.37-.1.3-.29.58-.5.81-.21.23-.5.4-.74.59-.68.08-1.29-.09-1.78-.57-2.41-2.38-4.87-4.72-6.69-7.62-.34-.54-.76-1.04-1.4-1.89.45-.74.78-1.28,1.1-1.81ZM260.96,294.38c-.03.09-.02.22-.08.27-.18.14-.23.21-.27.28-.08.02-.16.06-.24.08-.09.11-.16.21-.25.32.03-.1.04-.23.1-.27.36-.26.44-.3.52-.34.07-.11.14-.22.22-.34ZM250.5,272.83c.11-.07.32-.05.45.01.27.13.58.27.78.49,1.66,1.74,3.27,3.52,4.95,5.22,1.12,1.13,2.35,2.16,3.49,3.27.18.18.14.59.19.89-.24.18-.46.44-.73.51-.28.08-.69.07-.91-.08-3.57-2.52-6.56-5.56-8.55-9.5-.16-.31,0-.64.32-.82ZM254.12,282.52c-.12-.07-.24-.14-.36-.21-.33-.32-.65-.65-.98-.97-.1-.1-.21-.2-.31-.31.13.07.27.14.4.22.32.32.65.65.97.97.09.1.18.2.27.29ZM250.18,283.8c-.1-.2.11-.56.19-.92,1.05.95,2.03,1.92,3.09,2.8,1.1.92,2.28,1.74,3.4,2.62.79.62.54,1.49-.69,2.15-2.11-2.09-4.58-3.89-5.99-6.66ZM231.45,324.84c.96-2.03,2.68-3.17,4.29-4.42.13-.1.27-.18.42-.25,5.09-2.65,9.01-6.7,12.86-10.83,1.65-1.76,2.98-3.82,5-5.22.08-.06.29-.02.37.05.1.09.22.27.2.38-.06.31-.11.68-.31.89-2.45,2.57-4.77,5.24-6.72,8.23-.26.4-.6.77-.97,1.08-2.59,2.18-4.95,4.63-7.93,6.31-2.1,1.18-4.18,2.43-6.28,3.62-.22.13-.51.11-.78.14-.16.21-.25.3-.34.39.06-.12.12-.24.18-.36ZM202.65,341.84c-1.07.46-1.07.45-1.84-.04q1.06-.5,1.84.04ZM195.22,342.91c.06-.11.26-.15.41-.19.34-.11.63,0,.78.34.06.12-.03.31-.05.47-.09.12-.16.27-.28.36-.44.34-1.24.25-1.21-.14.02-.29.19-.58.35-.84ZM188.35,345.31c.29-.59.8-.88,1.45-.8.22.02.62.29.6.41-.03.25-.22.59-.44.7-.38.19-.83.25-1.26.32-.11.02-.24-.16-.34-.24,0-.13-.04-.29,0-.39ZM183.56,346.5l.12.33-.31-.04.19-.29ZM178.45,347.4c.09,0,.21.18.31.27-.27.08-.53.19-.79.22-.09,0-.21-.18-.32-.27.27-.08.53-.19.8-.22ZM171.22,57.14c-.08.04-.3-.12-.37-.24-.05-.08-.02-.29.05-.38,1.03-1.22,2.05-2.44,3.12-3.62.18-.2.56-.35.84-.32.27.02.52.28.87.5-1.06,1.86-2.55,3.22-4.51,4.06ZM177.05,20.21c.05.08.07.17.09.27.23.18.38.21.45.3,1.08,1.31,1.65,2.8,1.52,4.51.94.94.85,1.96.95,2.92.1.16.14.25.13.34,1.44,2.12,1.64,2.92,1.41,5.87-1.13-1.81-1.57-3.77-1.41-5.87-.56-.5-.81-.84-.86-1.29-.07-.57-.07-1.16-.1-1.74-.24-.25-.38-.26-.44-.33-1.04-1.34-1.77-2.78-1.53-4.54-.36-.18-.5-.29-.45-.51.09.03.22.03.26.09ZM123.85,56.41c-1.36-.38-1.51-.53-1.75-1.76-.25-.21-.37-.28-.48-.35.14.03.29.07.43.1.02.11.03.15.05.25.54.54,1.07,1.08,1.61,1.62.09.02.14.03.25.05.08.12.16.24.25.36-.12-.09-.23-.18-.35-.27ZM135.17,58.83c-.04.12-.26.28-.37.26-.78-.18-1.57-.34-2.31-.61-5.01-1.83-4.99-1.86-8.3-5.47-1.56-1.71-2.6-3.64-3.16-5.9-1.33-5.4-1.37-5.39-.95-11.47.09-1.29.12-2.59.33-3.86.66-3.85,1.78-7.53,4.32-10.64.13-.15-.02-.61-.15-.87-.15-.31-.5-.36-.82-.15-.54.34-1.17.64-1.55,1.12-.88,1.14-1.63,2.39-2.46,3.58-.15.21-.43.32-.66.47-.14.77-.17,1.36-.25,1.93-.07.43-.3.79-.7,1-.18,1.74-.26,3.28-.34,4.82-.78.05-.6-.48-.58-.74.04-1.11.12-2.22.27-3.32.03-.21.33-.38.55-.56.12-.79.12-1.39.2-1.97.06-.44.32-.79.76-.97.13-.79.04-1.46.3-1.93,2.59-4.61,5.54-8.96,9.75-12.29.87-.69,1.78-1.35,2.76-1.88.47-.25,1.06-.28,1.62-.37.35-.61.63-.83.99-.97.17-.18.26-.23.36-.22.85-.81,1.92-1.24,3.01-1.61.3-.1.72.13,1.22.23-1.4.94-2.75,1.4-4.23,1.38-.06.05-.14.08-.19.14-.23.51-.5.73-.88.86-.93,1.29-2.09,1.85-2.94,2.73-.79.82-1.52,1.7-1.93,2.76-.16.42-.15.95-.08,1.4.06.38.43.53.72.36.41-.25.81-.51,1.15-.84,1.04-1.02,2-2.12,3.07-3.09,1.2-1.08,2.47-2.08,4.18-2.3.62-.08,1.24-.38,1.81-.66,3.11-1.52,6.38-2.17,9.83-2.05,1.12.04,2.25-.16,3.38-.17,2.77-.04,5.42.72,8.09,1.31.78.17,1.55.5,2.24.9,3.53,2.05,6.57,4.65,8.84,8.08,1.34,2.02,2.48,4.13,3.12,6.51.37,1.4,1.08,2.7,1.56,4.07,1.44,4.1,2.06,7.3,2.55,13.01.28.32.75.76,1.08,1.29.24.38.47.92.39,1.33-.32,1.58-.69,3.16-1.56,4.55-.25.4-.6.73-.92,1.11-1.69.15-3.01-1.17-4.84-.65.23-.89.28-1.37.47-1.79.94-2.05,1.99-4.05,2.72-6.19.3-.86,1.07-1.54,1.66-2.35-.28-.99-.59-1.9-.79-2.83-.21-.95-.27-1.92-.49-2.86-.2-.85-.79-1.34-1.7-1.47-.3-.04-.58-.26-1.02-.46-.27-.8-.66-1.69-.87-2.62-.69-3.03-2.67-5.1-5.05-6.86-.36-.27-.89-.37-1.36-.43-.62-.09-1.25-.06-1.66-.08-.86-.53-.8-1.23-.98-1.83-.33-1.16-1.05-2.08-2.17-2.45-1.98-.66-3.93-1.49-6.06-1.58-.63-.03-1.37,0-1.86.31-1.73,1.09-3.64,1.09-5.49,1.31-.7-1.48-1.83-1.86-3.24-1.82-1.25.03-1.47.18-1.87,1.61-.09.29-.28.56-.47.93-1.12.45-2.32.9-3.5,1.41-.74.32-1.45.71-2.16,1.09-2.44,1.32-4.61,2.97-6.25,5.25-1.23,1.7-2.48,3.39-3.77,5.15-.6.58-1.49.12-2.41.49-2.07,1.34-2.97,3.55-3.23,6.03-.19,1.76-.11,3.55-.17,5.32-.07,1.83.34,3.51,1.41,5.03,1.2,1.71,1.99,3.67,3.51,5.2,1.96,1.97,3.97,3.79,6.68,4.66.77.25,1.51.62,1.93,1.36.12.21-.04.59-.13.87ZM174.52,38.62c-.11-.61.15-1.15.45-1.07.27.07.59.26.72.5.13.22.04.57.05.86-.26.14-.54.4-.77.37-.18-.03-.41-.4-.45-.65ZM134.84,54.15c-1.01.06-1.89-.44-2.64-.95-3.1-2.11-5.65-4.76-7.1-8.27-1.06-2.57-1.39-5.25-.57-8,.32-1.07.5-2.19.84-3.25.12-.39.52-.68.8-1.03.31.33.34.62.21.96-1.04,2.81-.97,5.65-.09,8.48.09.31.23.61.28.92.76,4.45,3.42,7.48,7.17,9.73.54.32,1.05.69,1.62,1.07-.26.18-.39.33-.52.34ZM135.48,49.17c-1.93-1.01-3.21-2.65-4.17-4.55-.21-.42-.37-.91-.4-1.38-.14-2.25-.32-4.5-.32-6.75,0-3.42,1.52-6.22,3.9-8.56,2.45-2.42,5.42-4.04,8.63-5.22,1.51-.55,3.08-.92,4.61-1.42,3.94-1.28,7.57-.63,11.1,1.47,2.72,1.62,4.88,3.64,6.13,6.6.31.74.75,1.43,1.16,2.12,1.38,2.34,1.53,4.89,1.28,7.49-.06.63-.27,1.26-.53,1.84-1.12,2.55-2.94,4.6-4.81,6.61-.41.43-1.12.58-1.64.83-.35-.27-.71-.41-.84-.66-.84-1.66-2.26-2.62-3.8-3.55-2.85-1.74-5.9-2.52-9.2-2.35-1.29.07-2.58.16-3.86.27-.82.08-1.54.44-2.33,1.12-1.13,1.88-2.09,4.1-3.45,6.12-.55,0-1.09.16-1.45-.03ZM155.54,52.21c.58.99.38,2.05.28,3.09.38.62.76.9.82,1.24.34,1.84.59,3.7.82,5.56.04.38-.23.58-.5.51-.14-.04-.33-.12-.38-.24-.19-.42-.44-.86-.46-1.3-.11-1.81-.15-3.63-.21-5.45-.99-1.85-1.02-2.15-.37-3.41ZM156.89,87.43c.25-6.11.23-12.23.33-18.39.66-.09.47.47.47.72.03,4.35-.05,8.71.06,13.06.14,5.15.18,10.31.72,15.45.2,1.91.11,3.86.09,5.79,0,.73-.47,1.14-1.22,1.18-.11-.3-.3-.6-.31-.9-.15-5.64-.37-11.28-.14-16.92ZM154.48,80.94c-.15-.21-.39-.4-.41-.61-.08-.63-.1-1.28-.09-1.92,0-3.05-.02-6.09-.55-9.11-.16-.91.06-1.9,1.01-2.51.12.26.3.49.33.75.15,1.43.36,2.88.35,4.32-.02,2.73-.18,5.45-.3,8.17-.01.3-.2.59-.32.91ZM154.39,102.14c-.09-.29-.24-.59-.25-.89,0-1.41-.15-2.82.12-4.32.68,2.54.68,2.71.12,5.21ZM151.46,71.59c.54,2.71.42,5.45.28,8.47-.75.36-1.17.56-1.6.77-.63.29-1.06.82-1.13,1.46-.08.79-.05,1.61.1,2.39.08.42.46.75,1.01.89,1.64.44,1.71.56,1.72,1.78.02,4.03.05,8.06.04,12.09,0,2.1-.02,4.2-.12,6.29-.02.42-.35.88-.64,1.22-.25.29-.6.23-.81-.03-.1-.12-.23-.25-.25-.4-.7-3.5-1.17-6.98-.26-10.53.27-1.07.23-2.23.3-3.35.03-.52-.32-.94-.78-1.03-.56-.12-.95.17-1.24.55-.29.38-.61.83-.63,1.27-.17,3.54-.61,7.07-.43,10.62.06,1.12.21,2.26-.46,3.48-.46.19-1.03.48-1.63.66-.62.18-1.37-.37-1.44-.95-.05-.32-.12-.63-.13-.95-.03-1.29-.03-2.58-.07-3.87-.22-7.73.17-15.47-.04-23.21-.09-3.38.09-6.76-.59-10.12-.22-1.08-.14-2.28.08-3.37.4-1.92.37-3.84.44-5.78.1-2.74.26-5.48,1.68-8.26.44-.31,1.11-.75,1.75-1.21.3-.22.59-1.11.4-1.3-.2-.22-.47-.48-.74-.52-.77-.12-1.57-.13-2.7-.21,1.55-.86,2.79-1.55,4.11-2.28.35.31.87.55.99.92.31.94.67,1.79,1.53,2.38.96.65,1.65,1.55,2,2.66.97,3.06,2.05,6.11,1.6,9.43-.55.81-1.09,1.6-1.65,2.44-.19.92-.38,1.86-.58,2.81-.34,1.6-.41,3.19-.09,4.8ZM141.08,98.54c0,.47-.06.95-.16,2.33-.78-2.05-.55-3.5-.54-4.93,0-2.08,0-4.17-.03-6.25-.02-.8-.09-1.61-.23-2.39-.83-4.46-.58-8.94-.34-13.42,0-.11.14-.28.23-.3.36-.07.63.11.74.47.1.3.22.62.21.92-.14,4.01.35,8,.23,12.01-.11,3.85-.08,7.7-.12,11.55ZM140.8,105.33c-.42-.56-.4-1.11.02-1.65.36.56.41,1.11-.02,1.65ZM109.65,118.1c15.01-.09,29.19-1,43.43-.2,30.68,1.73,55.84-2.54,93.58-2.1.05.16.03.29.07.45-2.17-.05-4.96.2-7.91.27-6.24.14-13.11-.43-15.82-.11-18.3,2.13-35.75,1.92-51.02,3.23l-30.69.08c-9.79.6-41.41,1.62-49.74-.09-3.32-.68-9.42-.95-15.98-1.04,3.85-.13,6.75-.15,6.75-.15,9.26-.15,18.08-.31,27.34-.34ZM63.13,127.88h.27c-.09.01-.18.02-.27,0ZM95.52,134.98c2.59-.02,5.4.13,8.28.78.95.21,3.36-.61,5.54-.7,2.18-.09,4.16.71,4.24-2.26.07-2.49-2.28-.99-3.37-.59-.09.04-.18.05-.28.05l-15.05-.6s-10.73.3-10.73.3c-6.44-1.31-13.18-2.67-19.93-4.03l31.42.91c.07,0,22.3-.36,22.3-.36.15,0,.27.01.41.05,1.62.42,5.09,1.95,4.99-.54-.13-2.96-3.04-2.19-6.26-2.32-3.23-.12-6.78-.99-8.19-.79-9.42,1.33-18.41.38-26.27,1.01-.08,0-.16,0-.24,0l-15.67-1.23c-2.6.07-7.49.04-12.43-.24-.07-.44-.06-.92-.01-1.42,3.4-1.23,32.05-.9,35.13-.17,9.68,2.28,10.09-.43,19.99,1.15l88.08-2.49,43.41-2.25c1.43.09,3.94.5,6.1.58-.05.39-.1.78-.19,1.17-.53.19-1.07.46-1.45.6-.09.03-.18.05-.28.04l-15.05-.59s-28.08.77-28.08.77c-.57.02-1.03.71-1.03,1.56,0,.59.11.96.31,1.25.21.29.46.43.75.41,3.34-.22,6.65-.21,8.3-.1.11,0,10.72-1.07,10.72-1.07,4.22.54,8.72.19,13.45.62-1.52.35-3.04.69-4.51,1-7.74,1.69-15.24,4.14-22.87,5.81-10.27,2.95-21.2,4.92-31.57,7.89-27.61,4.63-52.31,1.39-79.93-4.18ZM138.63,180.37c.6,1.91.47,3.8.15,5.74-.23,1.42-.26,2.88-.37,4.33,1.09,2.56-.06,5.06-.27,7.57-.11,1.26-.62,2.48-.97,3.71-.02.09-.2.14-.36.24-.18-4.69-.5-9.36.26-14.01.12-.78.03-1.6-.04-2.39-.18-2.24-.48-4.47.05-6.73.17-.74-.07-1.59-.13-2.38-.15-1.92-.39-3.85-.44-5.78-.07-2.41-.02-4.83.02-7.25.01-.97.03-1.95.22-2.89.42-2.08.61-4.14-.06-6.21-.1-.3-.05-.64-.07-.96-.1-1.37.63-2.05,2.39-2.22.65,1.02.58,2.19.48,3.28-.27,3.06.03,6.11.05,9.16.02,4.33.18,8.71-.89,12.98-.32,1.27-.43,2.57-.03,3.82ZM132.18,350.17c.58-.17,1.18-.45,1.78-.47.4-.01.93.28,1.18.6.27.34.33.87.38,1.33.06.62.09,1.26-.43,1.76-.99.26-1.76-.5-2.51-.48-1.01-.89-.94-1.74-.4-2.73ZM127.05,351.17c.18-.47.66-.81,1.07-.76.79.08,1.41,1.05,1.12,1.76-.25.6-1.04.91-1.56.61-.62-.36-.86-.99-.63-1.6ZM119.93,351c.09-.13.21-.23.29-.31.97-.41,1.92-.36,2.81-.05.37.13.65.64.87,1.02.18.31-.23,1.04-.52,1.18-.89.44-1.81.39-2.75.25-1.04-.16-1.35-1.07-.7-2.09ZM115.41,350.89c.22-.37.9-.5,1.14-.15.24.35.36.78.45.98-.03.76-.28,1.05-.8,1.16-.42.09-.85-.23-1-.71-.16-.47-.03-.88.21-1.28ZM109.07,350.27c.29-.32.66-.58.91-.79,1.3.01,2.16.85,2.23,2.02.03.52-.38,1-.77.92-.76-.16-1.48-.4-2.09-.92-.33-.28-.54-.94-.28-1.24ZM98.56,344.96c.48.33.75.28.98.34.19.05.35.27.52.43-.27.05-.57.21-.78.13-.21-.08-.34-.34-.5-.55-.28-.27-.38-.36-.47-.43.09.03.21.03.25.09ZM86.48,340.92c1.25.13,2.45.43,3.48,1.19.21.16.23.55.38.93-1.59.56-3.1.36-4.53-.45-.2-.11-.31-.51-.31-.77,0-.36.69-.93.98-.9ZM44.44,278.44c-.35,1.25-.74,2.24-1.89,2.74-.1,1.13-.45,1.9-1.25,2.46-.07.05-.26.02-.33-.04-.09-.09-.2-.27-.18-.38.16-.95.65-1.62,1.62-1.86.2-1.4.87-2.21,1.88-2.8.14-.23.18-.29.26-.32-.03.07-.09.12-.11.2ZM40.33,278.92c-.22-.05-.16-.4.15-.66.29-.24.59-.45.89-.67-.09.36-.16.73-.32,1.05-.1.18-.5.33-.71.28ZM42.32,276.6c.2-.28.3-.39.41-.49-.08.13-.17.24-.22.4-.08,0-.12.06-.19.09ZM43.09,275.77c.1-.1.2-.2.31-.3.08-.08.16-.16.24-.24-.05.11-.1.22-.15.32-.17.04-.27.14-.39.21ZM45.42,277.49c-.09.01-.13.08-.21.1.22-.3.33-.4.43-.51-.08.13-.17.25-.23.41ZM48.75,273.07c.02,1.23-.02,1.28-2.28,3.23-.21.23-.32.33-.44.42.11-.1.21-.21.32-.31.19-.52.23-.95.42-1.27.48-.79,1.18-1.4,1.98-2.07ZM44.99,262.54c.17.4.23.84.34,1.27,1.29.47,1.81,1.31,1.75,2.66-2.75,2.83-4.59,6.49-7.53,9.26-.1.1-.31.09-.47.13-.67-.86-.65-1.83-.06-2.65.85-1.17,1.85-2.23,2.78-3.34s1.85-2.23,2.75-3.36c.61-.76.74-1.69.84-2.61-1.41-.12-2.48.39-3.24,1.52-1.06,1.59-1.88,3.36-3.44,4.57-.12.09-.38.18-.44.13-.2-.19-.41-.43-.46-.68-.05-.29-.03-.68.12-.93,1.55-2.44,3.39-4.63,5.78-6.31.29-.21,1.1-.05,1.27.33ZM41.9,258.15c.44.22.51,1.22.12,1.7-1.18,1.45-2.26,3-4.02,4.32-.24-1.44-.6-2.5-.21-3.65.67-1.06,1.69-1.77,2.78-2.4.45-.26.89-.18,1.32.04ZM39.14,253.51c.46.29.66,1.25.35,1.69-1.17,1.68-2.66,3.03-4.22,4.23-.4-.23-.76-.32-.9-.55-.13-.22-.13-.62-.02-.86.78-1.76,2.06-3.13,3.49-4.39.29-.25.99-.32,1.31-.13ZM35.15,248.98c.35-.4.9-.56,1.27-.36.61.32.93,1.06.75,1.58-.33.92-.87,1.7-1.61,2.32-.22.18-.57.19-.87.28-.52.02-1.09-.83-.98-1.39.19-.99.79-1.72,1.44-2.43ZM39.48,333.17c-1.03-1.2-1.81-2.63-2.62-4.01-.2-.34-.14-.84-.16-1.29,1.3.31,2.08,1.35,2.81,2.3,1.36,1.75,2.54,3.63,3.76,5.47.14.21.11.54.13.82-1.74-.57-2.82-2-3.92-3.3ZM43.5,336.6c.56.02.89.29.89.89-.55-.05-.83-.36-.89-.89ZM68.09,358.4c-.1.09-.29.17-.4.14-.79-.23-1.4-.68-1.65-1.51-.03-.12.04-.31.12-.41.07-.08.23-.1.35-.15.72.35,1.37.79,1.67,1.58.04.1-.02.28-.1.36ZM74.59,363.33c-.95-.17-1.71-.74-2.3-1.48-.14-.18-.18-.63-.06-.77.16-.2.56-.35.81-.29.95.21,1.69.76,2.15,1.64.07.13.04.31.06.47-.22.16-.47.48-.65.44ZM82.3,367.1c-.12.07-.32.13-.44.08-1.03-.41-2.05-.83-3.07-1.27-.14-.06-.26-.19-.37-.29-.3-.28-.35-.54-.13-.74.11-.1.27-.19.41-.2,1.52-.09,2.81.38,3.76,1.63.09.12.09.3.14.45-.1.11-.18.26-.3.34ZM86.58,368.84c-.16-.27-.43-.54-.43-.81,0-.27.25-.54.39-.82.15.27.41.54.42.81.01.27-.24.54-.38.82ZM95.88,371.39c-2.15.24-3.99-.45-5.45-2.04-.16-.18-.1-.59-.08-.88,0-.12.19-.23.3-.34.14-.04.3-.15.42-.12,1.51.39,3.06.73,4.39,1.61.35.23.59.68.81,1.07.16.3-.01.67-.38.71ZM105.37,373.25c-.46.08-.94.02-2.11.02-.08,0-.87-.02-1.64-.16-.44-.08-.86-.35-1.27-.56-.35-.17-.59-.86-.45-1.23.15-.42.65-.72,1.11-.6,1.51.41,3.01.82,4.49,1.3.22.07.43.47.44.73,0,.16-.34.45-.56.5ZM110.18,374c-.09-.02-.14-.19-.2-.28.11-.07.23-.13.35-.19.12.05.33.08.35.16.07.27-.13.41-.49.32ZM114.5,374.98c-.29-.34-.32-.97,0-1.24.22-.18.55-.34.81-.32,1.65.14,2.01.48,2.37,2.18-1.5.66-2.26.52-3.19-.62ZM123.01,376.78c-.49.15-.93-.05-1.24-.4-.16-.18-.31-.64-.23-.71.2-.18.56-.35.81-.29.39.09.75.37,1.03.52.1.5-.02.77-.36.88ZM133.1,377.18c-.15-.04-.34-.02-.44-.11-.22-.18-.52-.39-.55-.62-.03-.23.17-.62.38-.72.23-.12.59-.02.88.03.13.03.28.16.34.29.11.25.3.63.19.77-.15.2-.52.25-.8.35ZM176.25,373.86c-.22.04-.53-.2-.75-.37-.09-.07-.09-.31-.07-.45.22-1.02.92-1.57,1.86-1.85.13-.04.36-.04.41.03.16.25.25.53.37.81-.21,1.01-.82,1.65-1.83,1.83ZM184.76,370.96c-.66,1.4-1.84,2.08-3.31,2.26-.21.03-.46-.29-.73-.47.63-1.51,1.57-2.68,3.26-3.07.5-.11.93.3.84.82-.03.15,0,.33-.06.46ZM188.44,371.19c-.21.08-.54-.14-.82-.22,0-.13-.07-.29-.02-.38.33-.51.65-1.02,1.05-1.47.13-.14.62-.18.74-.06.18.18.26.56.21.82-.14.62-.57,1.09-1.16,1.31ZM195.04,368.03c-.29.38-.75.57-1.25.42-.14-.04-.33-.19-.34-.3-.07-.52.57-1.07,1.24-1.12.13.06.36.11.37.19.04.27.11.63-.02.81ZM199.98,366.15c-.13-.02-.31-.14-.36-.27-.23-.64.47-1.56,1.21-1.62.18.21.47.39.51.62.14.83-.49,1.39-1.36,1.27ZM208.19,367.08c-1.04.76-2.21,1.23-3.5,1.33-.22.02-.46-.25-.73-.41,1.07-1.03,2.4-1.55,3.73-2.04.21-.08.68.13.78.33.09.18-.09.65-.29.79ZM208.93,362.04c-.88.97-1.92,1.63-3.25,1.63-.18-.09-.33-.15-.44-.25-.24-.21-.27-.51-.05-.83.78-1.12,1.83-1.76,3.22-1.66.2.02.4.4.55.64.07.11.06.37-.02.46ZM215.31,364.1c-.62.74-1.43,1.26-2.39,1.38-.4.05-.83-.2-1.27-.31.48-1.47,1.51-2.09,2.84-2.27.25-.03.64.17.79.38.14.19.16.65.03.82ZM212.72,359.92c.22-.82.74-1.4,1.57-1.59.29-.07.48.22.51.58-.08.82-.58,1.33-1.51,1.51-.13.03-.31-.05-.42-.14-.09-.08-.18-.26-.15-.36ZM221.5,356.88c-.7.61-1.52,1.08-2.3,1.58-.32.21-1.04-.13-1.13-.52-.19-.79-.22-1.56.46-2.16.82-.73,1.69-1.39,2.77-1.69.14-.04.31.02.46.04.19.21.51.41.55.64.11.83-.21,1.58-.81,2.1ZM290.57,287.83c-1.43.24-2.88.32-4.3.56-.66.11-1.12.58-1.35,1.23.12.68.43,1.23,1.18,1.31.95.11,1.91.15,3.01.24-.93,1.7-2.54.93-3.73,1.21-.8,1.29-.76,1.92.16,2.4.43.22.89.35,1.36.53-.18.22-.32.54-.55.64-2.49,1.13-5.06,2.04-7.75,2.6-.54.11-1.39-.49-1.38-1.04.03-2.25.09-4.5.15-6.75,0-.32.14-.64.12-.95-.02-.67-.31-1.22-.92-1.57-.68-.39-1.74-.29-2.24.24-.33.35-.7.69-.93,1.11-.6,1.14-1.14,2.31-1.37,3.6-.25,1.43-.66,2.84-.8,4.27-.19,1.84-.77,3.42-2.06,4.77-.43.44-.7,1.07-.94,1.66-1.04,2.53-2.03,5.08-3.08,7.61-.37.89-.87,1.72-1.33,2.57-1.91,3.55-4.09,6.93-6.38,10.24-.18.27-.33.6-.58.76-1.56,1-2.5,2.4-3.05,4.16-.17.55-.8,1-1.3,1.38-.64.48-1.37.84-2.17,1.32-.78,2.16-1.52,4.5-3.99,5.77-.99-.05-2.07-.11-3.15-.16.05,1.08.11,2.16.19,3.51-.53,1.26-.54,1.26-1.92,2.21-.17,0-.34.05-.49,0-2.49-.81-2.57-.76-2.85,1.9-.23,2.17-1.32,3.15-3.44,3.1-.16,0-.32-.09-.47-.09-.32,0-.64.04-1.08.07-.2.34-.45.73-.66,1.14-.21.42-.36.86-.53,1.28-.87.16-1.64.3-2.55.47-1.16,1.1-1.72,3.11-4.01,3.28-.54-.01-.92-.55-1.24-1.09-.14-.23-.18-.71-.03-.88.52-.61,1.09-1.21,1.73-1.66,1.45-1.02,2.97-1.94,4.44-2.93.39-.26.74-.62,1.04-.99.3-.39.36-.86.24-1.36-.17-.69-.97-1.07-1.49-.69-1.81,1.34-3.6,2.71-5.43,4.03-2.49,1.78-5.04,3.48-7.82,4.82-1.15.55-2.18,1.38-3.3,2.01-1.13.62-2.27,1.29-3.49,1.67-3.57,1.1-6.68,3.23-10.2,4.43-.9.31-1.67.97-2.55,1.37-.72.32-1.52.69-2.28.69-1.19,0-2.23.2-3.16.94-.95.75-2.04.86-3.21.76-.63-.05-1.4-.17-1.9.1-2.6,1.42-5.69,1.08-8.32,2.36-1.37.67-2.82.57-4.25.08-.45-.16-.9-.32-1.27-.44-.78.05-1.29.42-1.79.85-.36.31-.77.58-1.09.81-.84.08-1.31-.24-1.39-1.01-.13-1.13.42-2.16,1.3-2.28,4.16-.54,8.12-2.06,12.33-2.38,1.91-.15,3.77-.82,5.66-1.26.94-.22,1.86-.5,2.82-.64,1.81-.27,3.36-1.1,4.79-2.17.36-.27.59-.75.81-1.17.26-.49-.45-1.41-.99-1.35-.31.03-.66-.03-.94.08-1.8.71-3.57,1.48-5.38,2.19-1.35.53-2.69,1.16-4.09,1.43-3.96.77-7.94,1.4-11.93,2.03-1.42.23-2.84.48-4.32.37-.73-.06-1.54.39-2.23.76-.58.31-1.02.94-.75,1.61.53,1.34.29,2.51-.48,3.64-.82,1.2-1.67,2.38-2.43,3.61-.52.85-1.21,1.5-1.95,2.13-.49.42-.95.88-1.03,1.57-.12,1.02-.67,1.79-1.4,2.46-.6.54-1.15,1.15-1.82,1.6-2.53,1.72-5.09,3.39-7.67,5.1-.51-.25-1-.37-1.31-.67-2-1.87-3.96-3.79-5.83-5.59-.87-1.91-1.67-3.67-2.37-5.23-2.32-1.99-4.72-1.22-6.78-.6-.98-.64-1.65-1.07-2.3-1.49-1.25-.18-2.09.82-3.1,1.01-1.57.2-2.21-1.36-3.57-1.65-.7.12-1.48.25-2.39.4-.69-.52-1.45-1.09-2.34-1.75-.54.12-1.15.27-1.77.39-1.86.35-3.52.03-4.8-1.49-.09-.11-.28-.15-.43-.22-.46.11-.93.24-1.4.31-.36.06-.61-.16-.67-.51-.06-.38.09-.69.43-.75,2.09-.4,4.16-.09,6.24.17.32.04.62.2.94.24,6.24.72,12.45,1.87,18.78,1.37.87-.07,1.53-.44,1.69-1.39-.18-.26-.32-.54-.54-.77-.49-.5-.69-1.06-.41-1.74.3-.74-.11-1.28-.59-1.68-.88-.75-1.95-1.13-3.1-1.25-2.4-.25-4.8-.58-7.22-.74-2.91-.18-5.78-.57-8.61-1.25-.46-.11-.97-.09-1.44-.01-.27.04-.61.3-.69.53-.08.25.04.64.2.88.17.24.48.43.77.53,3.68,1.3,7.55,1.66,11.4,2,1.95.18,3.84.49,5.69,1.09.26.09.45.4.73.66-.49.16-.94.43-1.39.42-4.68-.09-9.37.05-13.97-1-.78-.18-1.6-.22-2.4-.28-4.37-.33-8.6-1.26-12.74-2.7-2.43-.84-4.86-1.71-7.39-2.27-1.25-.28-2.42-.87-3.64-1.3-.76-.27-1.52-.54-2.29-.76-.9-.27-1.87.16-2,.82-.1.56.3,1.21.95,1.5.74.32,1.46.7,2.23.92,2.33.67,4.69,1.21,7,1.91,2.78.84,5.52,1.77,8.27,2.7.44.15.83.46,1.24.69.09,1.56-1.05,1.84-2.33,2.24-1.97-.57-4.27-.63-6.26-1.81-.22-.5-.42-.94-.59-1.38-.57-1.38-1.03-1.57-2.07-.82-.39.28-.74.61-1.13.88-.12.09-.3.11-.65.21-3.05-1.51-6.51-2.26-9.71-2.95-1.28-.84-.45-2.41-1.76-3.13-.74.41-1.56.87-2.38,1.32-.31-.04-.67.02-.92-.12-1.28-.72-2.43-1.57-2.95-3.06-.22-.61-.67-1.09-1.36-1.35-.74.17-1.5.34-2.15.49-2.15-.3-2.01-2.44-3.17-3.62-.88-.1-1.82-.21-2.81-.32-3.49-2.55-6.89-5.26-10.13-8.16-.95-.86-1.78-1.85-2.71-2.72-.17-.16-.62-.13-.89-.05-.41.13-.85.82-.75,1.12.14.45.29.92.5,1.34.55,1.13,1.86,1.69,2.24,2.95,1.37.1,2.13.71,2.46,1.89.03.12-.05.31-.14.41-.09.09-.29.19-.4.16-1.15-.36-1.78-1.11-1.78-2.33-.76-.14-1.29-.37-1.79-.7-3.89-2.55-7.17-5.73-9.8-9.57-.08-.11-.07-.3-.09-.45.29-.1.6-.19.88-.31.79-.34,1.04-.87.75-1.46-.72-1.43-1.44-2.85-2.16-4.27-1.25-2.48-3.25-4.31-5.29-6.1-.11-.1-.3-.11-.43-.19-.52-.28-1.39.12-1.48.77-.08.59-.05,1.2-.06,1.81-.28-.11-.62-.16-.77-.36-.96-1.29-1.99-2.55-2.77-3.95-1.82-3.23-3.43-6.57-4.66-10.08-.21-.59-.21-1.26-.27-1.89-.01-.14.13-.42.18-.41.25.02.63.04.73.21.41.68.66,1.46,1.11,2.1.23.34.75.47,1.15.69.21-.36.5-.62.5-.89.06-3.27-.61-6.4-2.11-9.31-.14-.28-.42-.48-.63-.72-.27-.3-1.05-.47-1.32-.19-.31.32-.75.79-.71,1.14.18,1.42.52,2.82.79,4.23.02.12-.1.3-.2.42-.06.07-.25.1-.33.05-.86-.54-1.32-1.43-1.7-2.29-.84-1.92-1.52-3.92-1.51-6.06.01-2.59-.06-5.15-.72-7.67-.2-.76-.13-1.6-.16-2.41-.04-1.13-.07-2.25-.09-3.2-.88-1.56-1.64-2.96-2.47-4.32-.36-.58-1.01-.78-1.69-.74-.76.04-1.55.77-1.67,1.49-.36,2.26-.09,4.5.31,6.72.23,1.27.51,2.53.65,3.8.05.4-.32.85-.5,1.24-1.42.06-2.6-.54-3.84-.86-1.61-.42-2.99-1.13-3.44-3-.12-.51-.81-1-1.36-1.27-.7-.36-1.53-.48-2.28-.77-.6-.23-1.13-.58-1.15-1.36-.01-.62.42-.98,1.34-.99.79,0,1.61.25,2.38-.44-.15-.38-.18-.98-.49-1.2-.9-.67-1.91-1.18-2.86-1.78-.1-.06-.13-.29-.13-.43,0-.34.22-.58.56-.53.63.08,1.25.28,1.88.32.26.01.6-.22.8-.43.25-.27.04-1.07-.28-1.29-.39-.28-.78-.58-1.2-.8-.57-.29-1.17-.51-1.66-.72-1.09-1.4-1.39-2.69.1-4.1,1.29-.06,2.73-.11,4.16-.24.22-.02.54-.37.59-.6.04-.27-.09-.66-.29-.87-.7-.74-1.67-.92-2.64-.99-.64-.05-1.29.06-1.78-.68.3-2.29,1.02-4.58,1.69-6.84.48-.58,1.08-.69,1.75-.7.8-.01,1.61.04,2.34-.43.3-.2.49-1.03.22-1.26-.24-.2-.45-.46-.73-.59-.72-.34-1.47-.62-2.31-.97-.04-.44-.2-.92-.1-1.34.27-1.09.58-2.19,1-3.23.41-1.04.98-2.02,1.45-2.96.96-.42,1.81-.8,2.65-1.16-.09-.44-.05-.86-.24-1.04-1.28-1.24-1.34-2.47-.07-3.78.28,0,.59-.05.88,0,1.12.24,1.83-.35,1.17-1.77-.34-.73-.7-1.45-1.11-2.27,1.76-3.6,3.01-7.42,5.13-10.87,1.85-3.02,3.49-6.17,5.24-9.25.4-.69.82-1.38,1.31-2.01.13-.16.64-.22.82-.1.2.14.41.63.32.81-.52.99-1.13,1.92-1.73,2.92.2.42.4.83.61,1.27.69-.17,1.31-.33,1.92-.48.48.31.57.84.33,1.22-.71,1.07-1.53,2.07-2.29,3.11-.18.25-.36.55-.4.86-.03.28.07.61.22.88.15.28.5.32.82.1.53-.36,1-.83,1.56-1.13.33-.18.74-.22,1.13-.3.26-.36.28-.48.31-.48.26-.03.19.08-.07.25-1.4,1.7-2.6,3.14-3.7,4.64-.25.34-.26.91-.22,1.37.03.37.37.52.69.44,1.19-.31,1.73-1.39,2.56-2.13.48-.42.87-.98,1.58-1.02.14,0,.3.04.41.12.12.09.26.25.25.37-.03.31-.05.68-.22.91-1.14,1.56-2.34,3.09-3.47,4.66-.27.37-.38.85-.52,1.3-.03.11.06.35.16.41.27.14.71.38.84.28,1.01-.79,1.95-1.67,2.94-2.49.36-.3.77-.52,1.19-.73.1-.05.31.02.43.11.11.08.25.25.24.37-.11,1-.6,1.83-1.22,2.59-1.12,1.38-2.26,2.74-3.39,4.11-.2.25-.4.5-.6.76-.36.46-.42.98-.15,1.29.28.34.95.38,1.29.04,1.03-1.02,2.03-2.07,3.06-3.08.46-.44.96-.85,1.46-1.24.11-.09.38-.12.46-.05.21.19.49.45.5.69.02.46-.02,1-.24,1.39-1.1,1.98-2.26,3.9-3.98,5.45-.57.52-.96,1.29-1.29,2.01-.4.89-.59,1.85.04,2.76.47.68.7,1.42.79,2.25.16,1.45.48,2.87.59,4.31.27,3.44,1.37,6.61,2.82,9.7.41.87.68,1.81.99,2.65-.03,1.31-.77,2.61.42,3.74.33.31.52.83.63,1.29.72,2.98,1.4,5.96,2.07,8.95.07.3.06.66-.03.95-.08.25-.3.54-.53.67-.34.17-.65,0-.78-.37-1.3-3.81-2.54-7.64-3.32-11.61-.62-3.15-1.71-6.21-2.49-9.33-1.4-5.63-3.03-11.2-4.13-16.91-.64-3.34-1.09-6.69-.86-10.1.04-.65.02-1.28-.28-1.88-.17-.35-.41-.54-.75-.43-.29.09-.7.18-.8.4-.39.88-.69,1.8-1.04,2.76.15,1.08.36,2.19.45,3.3.14,1.61-.03,3.27.34,4.82.82,3.45,1.27,6.97,2.29,10.38,1.56,5.25,2.87,10.57,4.36,15.84.75,2.63.99,5.38,1.98,7.97.93,2.4,1.63,4.89,2.47,7.33.31.91.71,1.8,1.11,2.67,1.56,3.37,3.17,6.71,4.68,10.1.73,1.65,1.77,3.08,2.75,4.55,1.61,2.42,3.17,4.87,4.78,7.28,3.41,5.12,7.32,9.85,12.4,13.46.78.56,1.67.98,2.51,1.44.35.19,1.07-.15,1.13-.57.05-.29.06-.71-.1-.9-1.75-1.89-3.57-3.7-5.67-5.23-.91-.66-1.84-1.36-2.53-2.22-1.92-2.39-3.74-4.86-5.52-7.35-.33-.46-.36-1.13-.5-1.72-.45-.41-.86-.61-1.09-.94-1.47-2.03-2.93-4.08-4.31-6.17-1.11-1.67-2.16-3.39-2.36-5.47-.71-.64-.85-1.28-.93-1.94-.14-.16-.14-.23-.14-.31-.97-.94-1.55-2.08-1.7-3.43-.01-.11.15-.25.24-.39,1.18,1.02,1.45,2.37,1.46,3.82.93.64.97,1.33.96,2.04.24.22.39.21.46.27.35.31.77.59.96.99,1.63,3.27,3.74,6.23,5.73,9.28.42.64.7,1.3.62,2.08.39.23.71.25.89.43,1.04,1.02,2.04,2.07,3.03,3.13,1.32,1.42,2.69,2.79,4.28,3.92.52.37,1.05.76,1.5,1.22,4.1,4.15,9.01,7.34,13.37,11.18,2.17,1.91,4.75,3.34,7.46,4.45.9.36,1.81.71,2.64,1.2.34.2.47.76.76,1.29-.58.14-1.06.41-1.45.32-1.4-.34-2.78-.82-4.06-1.21-2.28-2-4.45-3.91-6.64-5.82-.51-.45-1.3-.33-1.69.27-.15.24-.18.57-.2.87-.01.14.1.31.19.43,1.47,1.96,3.41,3.43,5.22,5.02.82.72,1.95,1.13,3.01,1.51,3.64,1.3,7.25,2.67,11.14,3.16,1.9.24,3.75.94,5.61,1.43,1.87.5,3.74.99,5.74,1.52.55.61,1.19,1.31,1.88,2.07.56-.45,1-.87,1.49-1.21.73-.5,1.53-.38,2.32-.12.37.12.78.79.7,1.16-.09.47-.26.93-.37,1.4-.07.3-.08.61-.14,1.01.31.27.62.76,1.02.86,2.17.58,4.31,1.33,6.59,1.47.97.06,1.94.14,2.88.36,1.44.33,2.86.35,4.32.27,2.1-.14,4.21-.21,6.19.76.77-.38,1.48-.72,2.19-1.06.32-.03.65-.14.95-.09,1.91.26,3.81.55,5.83.86.17.32.47.71.6,1.15,1.44,4.96,2.84,9.92,4.27,14.88.49,1.73,1.22,3.33,2.67,4.96,1.09.61,2.49,1.39,3.75,2.09.34-.06.51-.05.65-.11.68-.34,1.14-1.07.93-1.48-.91-1.74-1.32-3.63-1.75-5.51-.07-.32-.92-.79-1.19-.63-.25.15-.54.39-.62.65-.14.45-.13.94-.21,1.42-.05.31-.14.62-.23.93-.27-.13-.68-.19-.8-.41-.37-.7-.7-1.44-.95-2.2-2.54-7.84-4.59-15.78-5.32-24.03-.04-.44-.37-.86-.58-1.3-.69.17-1.3.35-1.93.48-.72.14-1.43-.34-1.42-.93.01-2.25.01-4.51.04-6.77,0-.48.05-.97.17-1.43.16-.62.4-1.22.64-1.92.37-.2.77-.44,1.19-.65.78-.4,1.27-1.07,1.33-1.89.17-2.74.3-5.48.36-8.23.07-2.58.01-5.17.07-7.75.06-2.91.13-5.8.69-8.68.39-2.05.47-4.17.68-6.26.05-.47.12-.97.05-1.44-.77-5.14-.29-10.32-.44-15.48-.11-3.71-.09-7.42-.19-11.14-.03-1.12-.17-2.25-.41-3.35-.07-.35-.62-.61-1.05-1-.21.6-.47,1.04-.5,1.49-.06.97,0,1.93.03,2.9.09,3.55.19,7.1.26,10.65,0,.48-.03.97-.12,1.44-.4,2.1-.28,4.19.16,6.25.21.97.16,1.89.03,2.87-.18,1.43-.16,2.9-.19,4.35-.06,2.1-.07,4.2-.15,6.29-.02.42-.28.84-.53,1.57-.19-.76-.4-1.21-.4-1.66,0-3.71-.05-7.43.1-11.14.2-5.17-.28-10.33-.25-15.49,0-.8-.18-1.6-.25-2.4-.2-2.09-.4-4.2,0-6.27.37-1.93.33-3.85.36-5.79.06-4.84.14-9.69.17-14.53.01-1.53.75-2.39,2.21-2.73.86.91.07,2.16.62,3.12.14.24.44.5.68.53.27.02.57-.21.84-.37.12-.07.23-.23.28-.37.1-.3.23-.62.23-.93-.02-3.07-.09-6.13-.1-9.2,0-1.64-.82-2.73-2.2-3.46-.81-1.16-.27-2.55-.76-4.02-.38-.4-.93-.97-1.52-1.6-.1-.41-.3-.88-.32-1.35-.11-2.74-.21-5.48-.24-8.22-.01-.96.07-1.95.29-2.88.81-3.49.96-7.03,1-10.58.02-1.41-.11-2.85.34-4.42.16.5.34.8.35,1.11.06,1.93.11,3.87.1,5.81-.04,4.69-.13,9.37-.18,14.05,0,.96-.08,1.94.39,2.84.18.34.43.44.77.43.34-.01.67-.12.74-.47.12-.62.2-1.26.21-1.9.09-7.91.17-15.82.25-23.73,0-.49,0-.98.08-1.45,1.22-6.72.79-13.52.96-20.28.05-1.93-.15-3.88.53-5.76.15-3.55.37-7.09.44-10.64.05-3.06-.24-6.13.06-9.19.05-.48.05-1.01.25-1.41.18-.35.62-.57,1.08-.94.14.65.36,1.12.32,1.57-.35,3.69.07,7.44-.82,11.09-.04.16-.05.32-.05.48.07,4.83-.13,9.69.96,14.45.03.14.2.24.31.36.18-.17.5-.32.52-.5.11-1.77.25-3.54.24-5.31-.02-6.46.61-12.89.9-19.34.01-.32.11-.63.17-.95.1-.62.97-.95,1.49-.55.25.19.44.45.69.72.49,1.7.32,3.48.35,5.25.05,3.23.04,6.46.12,9.69.02.96.19,1.93.43,2.86.11.42.48,1.01.84,1.1,1.13.29,1.42,1.11,1.76,2.04.57,1.57.53,3.18.45,4.79-.09,1.93-.23,3.84.21,5.77.21.93.14,1.93.11,2.89-.27,7.59-.04,15.17.28,22.76.08,1.93.39,3.83.95,5.69.11.36.45.49.78.34.27-.12.58-.28.73-.5.17-.25.26-.61.24-.91-.09-1.77-.23-3.54-.36-5.31-.19-2.57-.51-5.14-.56-7.72-.08-4.52.01-9.04.03-13.56,0-.97.12-1.95,0-2.9-.33-2.58-.17-5.16-.16-7.74,0-1.94-.25-3.84-.5-5.77-.58-4.46-1.55-8.92-.98-13.47.08-.67.27-1.26,1.06-1.56.27.32.73.63.84,1.02.21.77.27,1.58.31,2.38.23,4.99.25,10,1,14.97.21,1.43.24,2.9.21,4.35-.11,4.53.14,9.02.74,13.52.27,2.07.27,4.19.17,6.28-.12,2.42-.07,4.83.02,7.26.18,5,.26,10.01.34,15.01.02,1.29.01,2.57.25,3.85.2,1.1.23,2.24.28,3.37.14,3.55.25,7.1.38,10.65.03.81-.05,1.65.16,2.41.72,2.72.41,5.46.36,8.2-.02,1.11-.36,2.22-.53,3.33-.2,1.28-.38,2.55-.12,3.85.21,1.02,1.29,1.4,2.18.69.11-.09.17-.26.3-.46-.08-1.06-.23-2.18-.22-3.3,0-1.13.18-2.25.28-3.37.04-.32.12-.64.1-.96-.31-4.19.33-8.39-.05-12.56-.3-3.22-.35-6.45-.46-9.67-.19-5.16-.27-10.33-.41-15.49-.02-.97-.03-1.94-.17-2.89-.47-3.21-.5-6.43-.47-9.67.03-2.9,0-5.81-.09-8.71-.03-1.28-.16-2.59-.44-3.84-.35-1.59-.47-3.19-.49-4.81-.03-3.06-.06-6.13-.26-9.2-.14-2.09-.2-4.17-.53-6.26-.37-2.39-.45-4.81.02-7.21.02-.09.2-.22.3-.22.14,0,.37.05.43.17.24.4.57.82.62,1.26.53,4.65,1.4,9.25,1.52,13.95.06,2.4.48,4.82.93,7.2.41,2.08.52,4.15.54,6.26.02,3.39.04,6.78.09,10.17.03,1.61.27,3.2.57,4.8.71,3.8,1.29,7.62,1.31,11.52.03,5.65.38,11.29.21,16.95-.1,3.21-.03,6.45.43,9.67.2,1.43.17,2.9.19,4.35.11,5.65.2,11.3.3,16.95.05,2.74.18,5.47.56,8.2.28,2.07.15,4.19.19,6.29.02,1.45,0,2.9,0,4.15-.13,1.08-.83,1.57-1.29,2.22-.66.94-1.08,2.01-1.01,3.17.38,6.28.42,12.58.66,18.87.09,2.09-.14,4.2.38,6.27.11.46.15.98.05,1.44-.61,2.87-.33,5.79-.49,8.69-.01.15-.13.29-.2.43-.2.25-.49.15-.52-.3-.17-2.26-.83-4.44-1.1-6.67-.27-2.24-.24-4.52-.8-6.73-.12-.46-.16-.96-.16-1.44.02-5.81-.61-11.61-.23-17.43.44-6.61.27-13.24.22-19.85,0-.44-.32-.88-.48-1.29-1,.12-1.65.68-1.67,1.55-.06,3.21-.7,6.4-.24,9.64.15,1.09.04,2.27-.2,3.36-.32,1.44-.29,2.87-.39,4.32-.4,5.81.07,11.62.07,17.43,0,.64-.06,1.33.13,1.92.7,2.19.66,4.46.78,6.71.04.8.03,1.63.2,2.41.74,3.48,1,7.02,1.49,10.53.2,1.49.88,2.37,2.34,2.67.14.03.26.15.4.22.13.29.34.57.38.87.28,2.4.62,4.8.75,7.21.14,2.58.15,5.15.68,7.7.26,1.24.31,2.6.08,3.84-.8,4.44-1.64,8.88-3.34,13.1-.97,2.4-2.06,4.72-3.61,6.81-1.25,1.68-2.48,3.38-3.72,5.07-.6.82-.38,1.37.91,2.17,1.38-.24,2.37-.98,2.89-2.29.54-1.37,1.33-2.56,2.3-3.67.62-.72,1.08-1.59,1.56-2.42,2.82-4.98,4.45-10.37,5.27-15.99.3-2.06.18-4.19.18-6.28,0-1.45-.11-2.9-.15-4.35,0-.13.15-.32.27-.38.22-.11.48.08.52.47.14,1.1-.09,2.26.63,3.27.48.68.57,1.56.36,2.34-.74,2.83-.71,5.75-1.01,8.63-.07.64-.27,1.26-.37,1.89-.1.71.84,1.66,1.51,1.54.95-.17,1.93-.27,2.85-.56,3.07-.99,6.15-1.89,9.37-2.31.4-.05.79-.52,1.07-.88.15-.2.14-.63.04-.88-.11-.25-.42-.53-.68-.58-.46-.08-.96-.05-1.43.03-2.69.52-5.37,1.07-8.06,1.58-.68.13-1.25-.13-1.65-1.01.08-.43.21-1.06.3-1.69.11-.8.17-1.6.28-2.41.08-.64.18-1.28.32-1.9.15-.66.5-1.17,1.25-1.27.44.52.44,1.13.42,1.79-.05.96-.03,1.92.01,2.88.02.52,1.07.97,1.54.7.14-.08.34-.1.43-.21,1.44-1.71,3.24-1.95,5.07-1.27,2.07-.52,3.94-.99,5.72-1.44.98-.54,1.34-1.5,1.98-2.22.27-.16.52-.37.82-.48,2.42-.89,4.89-1.63,7.42-2.16,1.74-.37,3.46-.77,5.18-1.25,4.52-1.24,8.94-2.73,13.12-4.9,2-1.04,4.15-1.79,6.18-2.77,1.16-.56,2.29-1.26,2.62-2.66.06-.25-.07-.64-.25-.83-.2-.2-.55-.26-.85-.33-.14-.03-.33.02-.46.09-.43.22-.85.45-1.25.72-4.23,2.71-8.82,4.68-13.5,6.45-.33.13-.59-.05-.71-.41-.13-.37-.01-.64.31-.84.28-.16.53-.38.82-.5,3.43-1.44,6.71-3.17,9.86-5.13.42-.26.82-.52,1.26-.73,1.58-.78,3.16-1.55,4.81-2.35.56.29,1.13.57,1.83.93,2.09-.61,4.09-1.67,5.82-3.11,2.25-1.88,4.68-3.41,7.29-4.72,5.77-2.9,10.18-7.33,13.74-12.63.9-1.35,1.78-2.69,2.94-3.84,1.39-1.39,2.28-3.12,3.31-4.76,1.29-2.05,2.56-4.11,3.82-6.17.42-.69.9-1.36,1.17-2.11.55-1.54,1.32-2.93,2.23-4.28.44-.67.78-1.42,1.07-2.17,2.02-5.27,4.09-10.52,5.99-15.84,1.31-3.65,2.11-7.44,2.53-11.32.33-3.03.91-6.05,1.35-9.08.12-.85-.12-1.82-.87-2.1-2.17-.8-3.32-2.45-4.25-4.39-.07-.14-.19-.26-.28-.39-.22-.31-.94-.47-1.31-.28-.41.2-.76.77-.67,1.17.11.46.17.96.39,1.37.68,1.29,1.59,2.42,2.67,3.42.35.32.66.71.9,1.12.43.75.5,1.51-.29,2.14-1.07,0-1.7-.78-2.3-1.46-.74-.84-1.28-1.84-1.98-2.71-.15-.18-.63-.23-.89-.14-.25.09-.47.41-.57.68-.11.29-.12.65-.05.95.11.46.26.95.52,1.34.72,1.07,1.5,2.09,2.24,3.12-.28,1.15-.57,2.25-2.06,2.22-1.22-.9-1.75-2.3-2.51-3.52-.68-1.09-1.67-1.25-2.78-1.13-.03.75.02,1.34.25,1.85.89,1.91,2.13,3.57,3.7,4.99.58.52,1.27.99,1.45,1.83.03.14.02.32-.04.45-.17.35-.5.49-.81.25-.88-.67-1.81-1.33-2.56-2.13-.76-.81-1.36-1.78-1.98-2.71-.52-.78-1.64-1.06-1.75-2.16.34-.88.83-1.65,1.6-2.2,1.85-3.24,3.4-6.4,5.31-9.32,1.77-2.72,3.37-5.49,4.55-8.5.21-.54.24-.53,1.38-1.11.51.39,1.02.78,1.54,1.19,1.1.1,2.19.21,3.13.3.25.27.38.37.46.5.08.14.15.3.16.45.21,3.69,1.65,6.84,4.1,9.57.21.23.33.55.5.81.41.99-.32,1.87-.27,2.95.24.28.49.81.88.95,1.2.44,1.77,1.36,2.11,2.47.38,1.24.57,2.51.45,3.76-.29,1.07-1.26,1.48-1.91,2.17-.54.59-.51,1.06.3,2.16.4-.05.87-.06,1.31-.18,1.65-.44,1.91-.31,2.34,1.34.16.62.29,1.25.42,1.88.03.16,0,.32,0,.66-.38.35-.81.82-1.32,1.19-.92.64-1.9,1.19-2.81,1.84-.21.15-.3.55-.35.86-.1.54.79,1.35,1.25,1.14,1.01-.47,2.01-.97,3.02-1.45.34-.16,1.1.21,1.21.56.09.31.27.6.31.9.08.79.11,1.59.14,2.23-.63,1.07-1.62,1.3-2.44,1.78-.69.4-1.4.78-2.04,1.25-.19.14-.22.57-.22.87,0,.47.46.93.92.93.47,0,.97.02,1.4-.14.89-.34,1.74-.8,2.67-1.24.92,1.26.65,2.49.4,3.71-.21.24-.37.57-.63.7-1.42.75-2.87,1.44-4.3,2.17-.36.18-.61.92-.34,1.27.27.36.66.67,1.07.86.24.11.63,0,.92-.09,1.06-.36,2.11-.77,3.13-1.14.81.15.98.76,1.08,1.41.02.16.03.32.04.48.14,1.45-.59,2.28-1.74,2.47ZM134.91,327.65q.59,1.72.13,4.25-.61-1.75-.13-4.25ZM137.74,244.29c-.01-.06.14-.16.21-.24.06.13.14.26.15.39,0,.14-.06.27-.1.41-.09-.18-.2-.37-.26-.56ZM272.65,255.51l.25.03-.15.24-.09-.27Z"/>
      <path class="cls-1" d="M142.14,347.49c0-.32-.13-.63-.16-.95-.16-1.6-.44-3.2-.45-4.8-.05-4.82-.02-9.65.03-14.48.01-.95.28-1.9.41-2.85.16-1.11.34-2.23.41-3.34.04-.62-.12-1.25-.23-1.87-.02-.1-.2-.23-.31-.23-.15,0-.37.06-.43.17-1.55,2.72-2.25,5.65-2.19,8.77.05,2.41,0,4.83.07,7.24.12,4.49-.32,9.02.79,13.45.08.31.1.64.07.96-.31,3.27,1.04,6.33,1.16,9.55.06,1.41.73,2.78,1.82,3.85.31.3.68.35,1.27-.06.22-.16.29-.54.45-.86-.39-.85-.79-1.72-1.32-2.9-.36-4-1.27-7.77-1.39-11.64Z"/>
      <path class="cls-1" d="M157.82,368.68c.36-.52.81-1.03.97-1.62,1-3.54,1.97-7.1,2.88-10.67.23-.93.33-1.92.29-2.87-.12-2.9.09-5.76.57-8.63.13-.78.12-1.6.12-1.67,0-1.21,0-1.69,0-2.17,0-.16-.05-.32-.11-.47-.18-.44-.37-.85-.9-1.02-.53-.17-1.24.28-1.41.94-.13.46-.31.93-.32,1.4-.13,3.37-.2,6.73-.33,10.09-.04,1.12,0,2.28-.32,3.33-1.09,3.68-1.69,7.51-3.25,11.06-.18.42-.3.96-.22,1.4.08.42.41.84.73,1.16.25.25,1.07.05,1.31-.28Z"/>
      <path class="cls-1" d="M257.12,316.27c-.39.27-.83.51-1.13.86-2.95,3.43-5.31,7.28-7.85,11-.16.24-.22.63-.16.92.06.25.35.45.54.67.31-.06.68-.05.92-.21.52-.36,1.09-.74,1.45-1.25,2.28-3.33,4.7-6.53,7.52-9.42.46-.47.37-1.2.23-1.85-.13-.56-1.06-1.02-1.51-.71Z"/>
      <path class="cls-1" d="M153.28,243.06c.87-.74,1.18-1.18,1.13-1.85-.13-1.75.06-3.49.06-5.22,0-1.9-.1-3.8.1-5.7.08-.74-.45-1.11-1.17-1.22-.91.8-1.11,1.95-1.2,3.03-.28,3.17-.34,6.36-.04,9.54.06.66.48,1.15,1.12,1.42Z"/>
      <path class="cls-1" d="M76.42,352.13c-.49-.37-1.14-.57-1.75-.72-.24-.06-.61.15-.83.34-.5.44-.5,1.26-.05,1.72,1.67,1.75,3.62,3.16,5.72,4.35.38.22.92.16,1.5.24.3-.29.7-.55.91-.91.11-.19-.02-.7-.2-.85-1.74-1.42-3.49-2.83-5.29-4.17Z"/>
      <path class="cls-1" d="M154.7,258.34c.12-1.42.19-2.84.24-4.26,0-.3-.03-.69-.21-.9-.28-.33-.67-.64-1.08-.79-.2-.08-.58.16-.79.36-.22.21-.4.51-.48.8-.46,1.55-.46,3.12-.06,4.68.16.64.59,1.1,1.18,1.41.63-.22,1.15-.59,1.21-1.3Z"/>
      <path class="cls-1" d="M206.95,352.38c-1.39.38-2.67.97-3.69,1.99-.3.31-.56.81-.56,1.23-.02.7.5,1.09,1.4,1.27.53-.25,1.24-.57,1.93-.93.55-.29,1.1-.62,1.61-.98.25-.18.52-.45.57-.72.08-.43.07-.92-.05-1.34-.1-.37-.87-.62-1.2-.53Z"/>
      <path class="cls-1" d="M122.66,357.89c-.24.06-.45.41-.59.67-.18.34.25,1.08.62,1.13.95.13,1.9.23,2.55.31,1.11,0,1.92.04,2.71-.01.3-.02.59-.21.88-.35.34-.17.5-.46.39-.79-.1-.28-.22-.69-.43-.77-2.02-.74-4.08-.67-6.14-.19Z"/>
      <path class="cls-1" d="M240.89,335.73c-.93.68-1.6,1.55-2.08,2.6-.32.73-.14,1.11,1.02,1.77,1.07-.86,2.15-1.74,3.24-2.61-.03-.47-.06-.93-.08-1.37-.94-.67-1.58-.77-2.1-.38Z"/>
      <path class="cls-1" d="M274.11,239.1c-.14-.18-.57-.15-.86-.22-.58.11-1.08.89-.93,1.44.34,1.29,1.06,2.31,2.21,3.01.13.08.29.1.44.16.42.18,1.22-.02,1.28-.35.06-.29.11-.65-.02-.87-.67-1.09-1.37-2.15-2.12-3.18Z"/>
      <path class="cls-1" d="M10.83,268.02c-.72-.2-1.76.62-1.7,1.29.05.52.71,1.2,1.28,1.28.32.04.64.04,1.13.07.29-.09.75-.21,1.19-.37.39-.14.48-.94.2-1.24-.57-.63-1.34-.84-2.11-1.04Z"/>
      <path class="cls-1" d="M12.27,258.06c-.65.11-.87.38-.76.93.13.67.4.9.93.75.63-.17.86-.45.8-.97-.06-.54-.41-.8-.96-.71Z"/>
      <path class="cls-1" d="M66.36,346.45c-.42-.07-.86.29-.98.81-.08.34.04.62.38.79.48.24,1.01.17,1.32-.18.09-.09.15-.25.15-.38,0-.45-.45-.97-.87-1.04Z"/>
      <path class="cls-1" d="M17.94,241.1c-.2.18-.49.32-.59.55-.23.49.17.97.72.85.26-.05.57-.25.7-.47.21-.34-.34-.92-.84-.94Z"/>
      <path class="cls-1" d="M130.46,21.22c.29.07.63.05.9-.05.28-.11.54-.33.75-.56,1.09-1.16,2.19-2.31,3.22-3.52,1.06-1.26,2.6-1.77,3.88-2.69.1-.07.11-.27.16-.4-.12-.27-.18-.62-.39-.79-.22-.18-.59-.28-.87-.25-1.28.17-2.46.65-3.48,1.43-1.78,1.36-3.36,2.93-4.59,4.81-.17.25-.21.59-.3.89-.08.28.35,1.04.71,1.13Z"/>
      <path class="cls-1" d="M169.77,20.31c1-.49,1.33-.82,1.24-1.2-.38-1.46-1.22-2.57-2.53-3.29-.23-.13-.61-.07-.91-.02-.36.07-.57.82-.42,1.23.53,1.38,1.4,2.47,2.62,3.28Z"/>
      <path class="cls-1" d="M151.6,58.06c-.67.02-1.22.25-1.48.92-.17.45-.27.89-.09,1.38.18.49.58.86,1.03.72.27-.08.63-.22.75-.44.45-.88.65-1.78-.2-2.58Z"/>
    </g>
  </g>
</svg>