<?xml version="1.0" encoding="UTF-8"?>
<svg id="Layer_2" data-name="Layer 2" xmlns="http://www.w3.org/2000/svg" viewBox="0 0 458.93 132.45">
  <defs>
    <style>
      .cls-1 {
        fill: #5c3827;
        fill-rule: evenodd;
      }
    </style>
  </defs>
  <g id="_Layer_" data-name="&amp;lt;Layer&amp;gt;">
    <g>
      <path class="cls-1" d="M405.38,87.55l-.1.14.17.02-.07-.16h0ZM312.38,97.57c-.06.03-.15.05-.17.1-.14.36-.1.84.09.91.03.02.15-.05.15-.1.04-.23.06-.47.07-.71,0-.06-.09-.13-.14-.2h0ZM51.91,99.83c.06-.05.14-.09.17-.16.04-.06.06-.16.04-.22-.08-.18-.18-.14-.33.03-.14.15-.21.26-.1.34.05.04.14,0,.22,0h0ZM394.09,113.57c.54-.12.99-.39,1.29-.88.03-.06.06-.17.03-.21-.05-.06-.16-.13-.22-.11-.51.15-1.02.32-1.32.83-.03.06-.03.18,0,.23.04.06.14.09.22.13h0ZM110.29,72.27c.07.05.14.16.21.15.47-.04.8-.34,1.06-.71.04-.06.03-.2-.02-.25-.1-.12-.24-.29-.35-.28-.5.05-.87.54-.9,1.09h0ZM73.73,91.41c0-.09.03-.19,0-.27-.22-.39-.52-.72-1-.75-.13,0-.37.15-.38.25-.07.58.28,1.06.81,1.16.25.05.55-.16.57-.4h0ZM151.71,78.85c-.8.27-1.06.75-.69,1.33.1.15.21.29.34.42.21.19.49.22.76.16.19-.05.33-.47.22-.71-.17-.42-.3-.86-.62-1.19h0ZM156.05,87.82c.36-.23.69-.52.88-.93.06-.12.04-.35-.04-.44-.1-.12-.31-.21-.45-.2-.35.03-.65.21-.89.49-.36.43-.18.85.5,1.08h0ZM144.5,84.36c.4,1.02,1.3,1.28,2.05,1.73.08-.08.2-.15.2-.19-.16-.85-.7-1.42-1.47-1.72-.18-.07-.47.11-.77.19h0ZM163.26,81.73c.67-.3,1.19-.81,1.52-1.47.06-.13,0-.36-.07-.5-.16-.28-.47-.41-.68-.35-.54.16-.99.48-1.31.92-.15.2-.23.5-.21.74.03.41.34.6.75.65h0ZM155.26,83.98c-.41-.52-.65-.89-.96-1.21-.18-.19-.45-.28-.73-.14-.37.18-.57.53-.5.85.12.55.38,1.01.85,1.32.23.15.52.14.73-.05.18-.18.33-.4.61-.77h0ZM152.12,86.02c-.07-.23-.11-.5-.24-.72-.33-.57-.83-.65-1.37-.27-.14.1-.29.22-.43.34-.07.06-.11.14-.17.21-.16.19-.23.59-.07.76.18.19.39.44.62.47.68.11,1.24-.15,1.65-.79h0ZM148.24,83.61c.52-.04.87-.31,1.18-.64.23-.24.25-.67.06-.99-.42-.69-.88-.85-1.56-.54-.08.03-.16.08-.24.12-.67.37-.78.97-.3,1.54.24.29.55.44.86.51h0ZM161.63,83.34c-.03-.49-.23-.76-.61-.87-.37-.12-.71,0-.98.25-.46.43-.89.88-1.32,1.34-.11.12-.18.31-.2.48-.01.16.04.36.14.47.1.1.34.19.46.14,1.02-.39,1.89-.97,2.5-1.8h0ZM345.47,91.33c-.45-.68-.91-1.46-1.71-1.94-.1-.06-.35.01-.48.11-.12.09-.28.32-.24.44.2.89.56,1.7,1.16,2.35.72.1,1.06-.25,1.27-.95h0ZM169.43,75.62c.11.2.22.46.38.68.23.28.5.53.76.78.19.19.48.2.74.04.41-.26.68-.59.57-1.14-.49-.57-.51-1.6-1.54-1.69-.55.28-.9.66-.91,1.33h0ZM366.19,71.48c-1.17-.1-2.09.24-2.85.88-.89.75-1.71,1.58-2.56,2.38-.06.05-.11.19-.08.24.11.18.3.26.46.14,1.46-1.04,2.92-2.1,4.38-3.15.22-.16.43-.32.65-.48h0ZM155.9,81.22c.5-.82,1.22-1.37,1.93-1.85.59-.09.87.26,1.09.66.19.34.18.69-.03,1.02-.35.55-.86.92-1.39,1.27-.49.31-1.08.18-1.4-.36-.13-.22-.14-.5-.21-.74h0ZM368.83,102.51c.19-.07.38-.09.51-.19.38-.25.75-.51,1.08-.82.17-.16.24-.43.37-.68-.62-.6-1.2-1.17-1.86-1.81-.82.4-1.71.65-1.79,1.75.47.73.9,1.42,1.68,1.75h0ZM175.24,70.12c-.79.59-1.51,1.12-2.22,1.66-.14.11-.26.25-.38.37-.24.23-.28.7-.08.99.36.51.93.65,1.39.34.81-.56,1.62-1.12,2.41-1.71.11-.08.11-.32.18-.55-.31-.38-.54-.88-1.3-1.1h0ZM371.66,106.19c.09-.01.18,0,.26-.04.75-.31,1.44-.72,2.04-1.29.16-.15.23-.57.12-.74-.3-.46-.67-.86-1.18-1.08-.22-.1-.53-.12-.78-.06-.62.15-1.18.46-1.58.97-.16.2-.3.51-.25.74.12.65.52,1.13,1.12,1.43.08.04.17.05.26.07h0ZM329.51,122.13c-.12-.92-.61-1.75-1.18-2.49-.18-.02-.28-.08-.34-.04-1.87.86-1.91,1.62-1.21,2.87.13.23.27.47.42.69.26.4.78.49,1.18.24.47-.29.86-.65,1.13-1.27h0ZM302.86,32.34c1.95-1.69,3.94-3.12,5.97-4.5.14-.09.22-.27.3-.42.03-.07.03-.18,0-.25-.04-.07-.14-.16-.21-.16-.27,0-.58-.03-.78.09-1.85,1.16-3.67,2.35-5.5,3.54-.22.14-.41.36-.6.55-.25.23-.21.65.15.92.13.1.33.12.68.22h0ZM384.08,104.28c-.23-.25-.39-.46-.59-.64-.27-.24-.57-.45-.83-.7-.19-.17-.35-.38-.49-.54-.57.05-.77.54-1.14.78-.31.2-.62.38-.94.56-.4.22-.8.42-1.2.64-.16.09-.29.21-.44.32-.27.18-.33.7-.1.97.36.45.98.62,1.46.38.65-.32,1.27-.71,1.94-.98.73-.31,1.51-.52,2.33-.79h0ZM382.14,110.23c-.5-.44-.61-1.09-.83-1.66,0-.4.2-.68.52-.89.46-.3.97-.62,1.5-.57.87.06,1.58-.23,2.3-.65.55-.32.74-.22,1.29.48-.07.16-.11.37-.23.47-1.37,1.17-3.01,2.18-4.55,2.82h0ZM349.22,74.87c.87-.66,1.83-1.18,2.61-1.96.19-.18.24-.55.12-.75-.28-.49-.66-.89-1.18-1.09-.23-.09-.59-.14-.78-.03-.79.45-1.54.96-2.29,1.46-.28.19-.32.68-.1.97.27.36.53.75.86,1.06.18.17.47.22.77.34h0ZM299.73,30.16c-.18-.14-.42-.27-.58-.46-.09-.11-.1-.34-.07-.5.03-.17.13-.34.24-.48.18-.21.36-.42.58-.57,1.56-1.1,3.12-2.19,4.7-3.26.41-.27.86-.25,1.28,0,.31.19.39.73.13.94-.07.06-.11.15-.18.2-1.97,1.15-3.74,2.57-5.54,3.95-.13.11-.33.11-.57.18h0ZM381.4,100.92c-1.02.32-1.74.47-2.39.76-.58.26-1.07.68-1.62,1.01-.15.09-.34.13-.51.18-.56.18-1.54-.66-1.46-1.28.02-.17.11-.36.22-.48.93-.89,2.09-1.46,3.16-2.14.3-.19.76-.12,1.01.13.53.5.94,1.1,1.59,1.82h0ZM371.04,97.66c.79.73,1.3,1.62,2.43,1.81,1.01-.64,2.01-1.28,3-1.94.12-.07.13-.3.2-.48-.24-.13-.51-.22-.71-.4-.47-.43-.89-.89-1.38-1.38-1.38.44-2.33,1.42-3.54,2.39h0ZM341.5,60.66c-.27.19-.5.33-.7.5-.28.23-.53.49-.83.71-.22.16-.47.28-.69.43-.29.2-.61.4-.66.88.05.42.49.67.72,1.05.24.38.45.79.69,1.17.21.33.54.47,1.01.51.89-.49,1.78-1.09,2.54-2.07-.41-1.24-1.39-2.1-2.08-3.2h0ZM322.2,72.83c.53,1.29,1.41,2.32,2.31,3.33.25.28.67.35,1.01.21.5-.21.98-.47,1.43-.76.53-.34.64-.9.38-1.42-.45-.91-1.11-1.66-1.75-2.42-.16-.19-.45-.27-.69-.41-.95.38-1.86.76-2.68,1.47h0ZM348.29,69c-.09.27-.1.6-.27.74-.62.53-1.3.99-1.91,1.45-.26-.08-.47-.08-.58-.18-.94-.86-2.13-1.42-2.95-2.44-.27-.34-.22-.94.18-1.2.6-.4,1.22-.8,1.84-1.18.42-.26.88-.18,1.24.19.81.86,1.62,1.73,2.45,2.63h0ZM303.29,22.76c-.11.47-.43.79-.8,1.07-1.24.91-2.54,1.74-3.7,2.74-1.31,1.14-1.54.86-2.58-.33-.12-.13-.18-.31-.26-.47-.03-.08-.04-.17-.07-.35,1.89-1.48,4-2.69,5.93-3.92.86.2,1.31.58,1.47,1.26h0ZM367.3,97.04c-.18.2-.33.43-.54.59-1.31.96-2.72,1.78-3.96,2.85-.25.22-.78.2-1.03.03-.84-.63-1.01-.84-1.6-2.07.09-.15.14-.35.27-.45,1.47-1.04,3-2.02,4.65-2.76.22-.1.57-.1.77,0,.74.37,1.39.85,1.43,1.81h0ZM337.59,98.23c1.41-.97,2.6-2.08,3.81-3.17.07-.06.11-.14.17-.22.23-.31.31-.67.18-1.03-.25-.68-.55-1.34-.85-1.99-.07-.13-.29-.19-.46-.29-1.46.71-2.83,1.59-4.12,2.61-.62.5-.77.97-.43,1.66.28.57.57,1.14.91,1.67.19.29.5.49.8.76h0ZM319.05,38.18c-.57-.69-1.1-1.43-1.93-1.92-.26.05-.56.04-.78.16-.49.25-.98.51-1.4.86-1.2,1-2.54,1.78-3.81,2.66-.3.2-.57.44-.86.67-.18.14-.24.59-.09.74.67.73,1.39,1.43,1.95,2.26.03.05.15.04.31.08,1.12-1.14,2.38-2.17,3.74-3.11.9-.62,1.8-1.23,2.68-1.88.12-.09.12-.32.19-.51h0ZM361.77,91.42c-1.15.87-2.68,1.29-3.92,2.24-1.24.94-2.46,1.89-3.86,2.58-.24.12-.46.3-.68.46-1.45,1.11-2.9,2.22-4.33,3.36-.2.15-.3.43-.41.6.14.82.56,1.42.98,2.01.14.2.42.29.6.4.63-.5,1.2-.96,1.77-1.41.79-.62,1.59-1.22,2.37-1.86.28-.23.52-.52.52-.99-.1-.37-.21-.81-.33-1.28.15-.2.26-.48.47-.63.29-.22.68-.29,1.04-.19.61.17,1.2.37,1.75.53,3.92-2.3,4.8-2.92,5.83-4.11-.22-.87-.77-1.41-1.8-1.71h0ZM109.12,73.36c-.16-.05-.37-.19-.48-.14-.82.39-1.62.85-2.44,1.25-1.91.92-3.54,2.27-5.22,3.51-1.46,1.09-2.84,2.32-4.09,3.64-1.15,1.21-2.42,2.21-3.78,3.15-.83.57-1.61,1.2-2.41,1.82-1.51,1.17-2.96,2.45-4.6,3.44-1.13.68-1.88,1.72-2.69,2.7-.06.07.05.32.12.47.03.06.16.11.23.1.79-.19,1.57-.4,2.31-.6.27-.2.5-.34.71-.53,1.48-1.36,3-2.68,4.56-3.94,1.77-1.44,3.52-2.92,5.16-4.51,1.78-1.73,3.72-3.24,5.71-4.71,2.13-1.57,4.2-3.24,6.29-4.87.27-.21.58-.4.64-.79h0ZM338.92,67.2c-.12.23-.17.44-.29.55-2.46,2.05-5.19,3.72-7.86,5.48-.21.14-.49.17-.82.28-.87-1.06-1.69-2.15-2.46-3.27-.12-.18-.07-.62.09-.77.19-.19.38-.41.6-.55,2.34-1.43,4.69-2.86,7.03-4.27.71-.42,1.32-.34,2.03.19.82.63,1.36,1.45,1.7,2.36h0ZM305.68,36.48c-.78-.2-1.29-.71-1.78-1.22-.21-.5-.07-.91.23-1.29.8-1.02,1.81-1.8,2.94-2.42,1.2-.67,2.34-1.42,3.39-2.29.21-.17.36-.43.26-.72-.08-.23-.05-.37.19-.42.08-.01.2,0,.26.06,1.85,1.65,3.39,3.55,4.57,5.74.04.07.02.18.02.27-.12.36-.39.59-.71.79-.85.54-1.71,1.05-2.54,1.61-1.2.83-2.39,1.67-3.42,2.73-.18.18-.44.29-.65.43-.76-.29-1.14-.94-1.57-1.51.02-.18,0-.37.07-.51.12-.24.35-.43.47-.66.68-1.25,1.75-2.08,2.95-2.78.79-.46,1.56-.95,2.32-1.46.71-.48.69-1.17,0-1.79-.06-.06-.16-.08-.35-.17-1.47.36-2.65,1.39-3.89,2.29-1.19.87-2.05,2.03-2.76,3.3h0ZM344.74,74.42c-.47.3-1.03.62-1.54.99-2.01,1.45-4.15,2.69-6.26,3.98-2.18,1.34-4.41,2.62-6.61,3.94-.21.13-.32.4-.53.67.45.7.78,1.46,1.32,2.09.19.22.77.4,1,.29.25-.11.51-.21.74-.36,1.94-1.21,3.9-2.41,5.82-3.65,2.24-1.44,4.45-2.91,6.66-4.39.53-.35,1.08-.7,1.34-1.33,0-.1,0-.19-.02-.28-.13-.57-.58-.91-.93-1.33-.24-.29-.5-.53-.98-.63h0ZM327.51,85.28c-2.21.98-6.98,4.18-12.45,8.34-.43.32-.96.56-1.16,1.29.2.58.4,1.27.67,1.94.18.43.48.78,1.12.87.37-.23.85-.5,1.29-.81,2.31-1.65,4.61-3.32,6.93-4.96,1.57-1.11,3.18-2.17,4.76-3.26.3-.21.6-.43.65-.85-.01-.07,0-.17-.05-.24-.54-.73-1.1-1.46-1.76-2.33h0ZM354.08,74.37c.48.03.82.2,1.03.51.67,1,1.45,1.82,2.55,2.41.95.51,1.77,1.28,2.63,1.96.2.16.3.44.46.69-.2.22-.35.48-.56.61-2.4,1.35-4.54,3.07-6.69,4.77-1.94,1.54-3.85,3.08-5.92,4.53-.22-.13-.53-.21-.65-.4-.35-.53-.61-1.11-.91-1.67.18-.29.27-.58.47-.74,1.15-.91,2.25-1.88,3.61-2.47.25-.11.49-.26.71-.42.78-.55,1.65-.76,2.52-.68.66-.29.56-.97.9-1.42.56-.6,1.33-.91,2.04-1.32.47-.27.87-.66,1.27-1.03.27-.25.26-.97,0-1.28-.25-.29-.58-.45-.97-.38-.26.05-.54.12-.78.25-.95.54-1.89,1.11-2.83,1.67-.41.08-.7-.14-.92-.44-.44-.59-.85-1.19-1.26-1.8-.25-.38-.13-.93.24-1.22.72-.56,1.44-1.13,2.18-1.67.29-.21.64-.35.89-.48h0ZM340.03,69.36c.62.66,1.08,1.21,1.61,1.7.46.43,1,.79,1.5,1.18.27.21.28.77,0,.96-1.59,1.07-3.15,2.18-4.78,3.17-2.96,1.8-5.97,3.53-8.95,5.29-.68.4-1.14.29-1.62-.4-.47-.67-.93-1.35-1.37-2.05-.21-.34-.1-1.01.23-1.25.44-.32.89-.63,1.35-.92.38-.23.93-.12,1.25.23.36.4.68.85,1.08,1.21.17.15.5.18.76.17.32-.02.67-.46.67-.77,0-.27,0-.54-.06-.8-.11-.44-.31-.85-.41-1.3-.08-.37.04-.72.32-1,.06-.06.13-.12.21-.18,2.45-1.58,4.9-3.16,7.35-4.74.23-.15.47-.28.86-.5h0ZM340.41,59.58c-.68.13-1.13.22-1.55.3-.71.46-1.39.91-2.08,1.35-.15.09-.34.13-.54.2-.78-.11-1.2-.66-1.55-1.32.08-.17.11-.38.23-.49.42-.35.89-.65,1.31-1,.64-.54.54-1.39-.23-1.79-.22-.12-.53-.14-.78-.1-.26.05-.5.21-.73.35-.47.28-.93.58-1.41.86-.15.09-.33.14-.5.21-.41.05-.71-.16-.95-.45-.4-.47-.91-.87-1.14-1.4.18-.57.6-.79.96-1.05.44-.32.95-.56,1.27-1.03.12-.18.18-.54.06-.78-.32-.64-1.05-.9-1.61-.56-.47.28-.91.61-1.38.9-.3.18-.64.32-.98.48-.24-.21-.48-.37-.64-.57-.23-.31-.2-.8.03-1.01.34-.31.7-.58,1.02-.91.19-.19.38-.42.45-.67.06-.24.06-.58-.07-.77-.13-.19-.44-.31-.69-.35-.58-.11-1.03.31-1.56.45-.32.09-.77-.1-.94-.39-.09-.15-.2-.31-.28-.47-.23-.5-.44-1-.65-1.46.07-.41.14-.77.22-1.21-.48-.49-1.02-.98-1.48-1.54-.47-.56-.81-1.22-1.28-1.78-.41-.48-.92-.88-1.38-1.33-.39-.39-.77-.78-1.13-1.19-.11-.13-.16-.33-.19-.5-.04-.28.08-.53.3-.72.2-.17.59-.19.76-.04.28.24.56.47.82.72.72.7,1.42,1.42,2.29,1.96.71.44,1.25,1.06,1.74,1.73.54.74,1.09,1.48,1.63,2.21.72.96,1.56,1.79,2.52,2.51,2.86,2.16,5.4,4.66,7.69,7.41.64.77,1.32,1.53,1.95,2.31.17.2.25.47.47.92h0ZM318.8,104.47c-.36-.26-.56-.33-.64-.47-.72-1.28-1.28-2.62-1.65-3.89.12-.53.34-.81.64-1.04,1.44-1.13,2.86-2.29,4.43-3.23.39-.23.81-.44,1.17-.71,4.04-3.01,8.32-5.67,12.51-8.47.76-.51,1.54-.98,2.34-1.44,2.93-1.71,5.76-3.57,8.55-5.48.53-.36,1.08-.69,1.63-1.01.35-.21.98-.1,1.27.21.62.67,1.33,1.27,1.72,2.1-.07.19-.09.4-.2.51-.58.59-1.17,1.14-1.88,1.59-.85.54-1.66,1.14-2.45,1.76-.87.69-1.77,1.31-2.9,1.29-.91,1.6-2.26,2.53-3.65,3.42-.85.54-1.7,1.08-2.52,1.66-4.04,2.85-8.06,5.71-12.09,8.59-1.41,1.01-2.78,2.08-4.18,3.12-.66.49-1.34.96-2.1,1.5h0ZM204.77,37.86l-.06.05c.42-.46.92-.59,1.48-.32.41.2.86.37,1.18.69.55.55,1.14.85,1.91.95.43.05.91.28,1.23.57.62.57,1.35.9,2.14,1.16.08.03.08.31.12.51-2.53,2.89-5.44,5.39-8.49,7.75-.72.56-1.46,1.11-2.19,1.66-1.39,1.06-2.81,2.03-4.53,2.53-1.15.33-2.09,1.11-2.98,1.92-1.02.92-2.06,1.81-3.25,2.85-.47.74-1.03,1.68-1.64,2.6-.13.2-.42.3-.62.44-.32-.25-.6-.5-.9-.7-.28-.18-.85.03-.93.33-.09.35-.19.7-.25,1.06-.07.44-.11.9-.17,1.34-1.1,1.07-2.18,2.02-3.75,2.2-.23.02-.55.28-.61.49-.54,1.83-2.18,2.65-3.43,3.81-.23.21-.74.14-1.02-.08-.62-.5-.73-1.15-.25-1.65.95-.99,1.93-1.96,3.07-2.75.52-.36.99-.8,1.47-1.22.34-.29.27-.96-.13-1.18-.22-.12-.56-.22-.77-.13-1.28.53-2.39,1.34-3.42,2.27-.62.55-1.2,1.13-1.95,1.51-.23.12-.47.31-.62.53-.85,1.23-2.12,2.02-3.21,2.98-2.05,1.83-4.18,3.57-6.28,5.35-.14.12-.31.18-.57.33-.35-.06-.79-.16-1.23-.18-.15-.01-.37.12-.45.25-.15.22-.28.48-.31.74-.1.79-.5,1.37-1.15,1.78-.38.24-.77.47-1.18.72-.24-.24-.46-.41-.61-.63-.15-.23-.18-.53-.02-.77.15-.23.32-.45.52-.63,1.31-1.15,2.61-2.3,3.95-3.41,3.53-2.92,7.08-5.81,10.62-8.72.21-.17.42-.36.65-.51,2.51-1.53,4.7-3.5,7.12-5.13,2.36-1.6,4.48-3.48,6.66-5.29,2.19-1.82,4.45-3.52,6.94-4.92.16-.09.3-.21.45-.31.34-.23.36-.58,0-1.2-1.95.53-3.77,1.35-5.38,2.58-1.24.94-2.46,1.91-3.66,2.91-1.89,1.59-3.82,3.13-5.81,4.6-3.76,2.77-7.62,5.42-11.27,8.34-1.29,1.03-2.54,2.1-3.79,3.18-1.81,1.55-3.75,2.93-5.47,4.59-.65.63-1.45,1.11-2.16,1.64-.5.03-.95.07-1.41.1-.47.18-.69.56-.84,1.01-.12.34-.23.69-.32.95-.71.75-1.46,1.26-2.28,1.67-.83-.09-1.25-.71-1.71-1.27.09-.16.14-.36.26-.47.68-.61,1.36-1.24,2.09-1.79,1.98-1.48,3.98-2.93,5.98-4.39.22-.16.44-.34.68-.46,2.39-1.22,4.43-2.91,6.48-4.62.98-.82,1.98-1.63,3-2.41,1.39-1.06,2.71-2.18,3.98-3.38.46-.44.94-.89,1.49-1.21,1.84-1.07,3.33-2.57,4.94-3.93,1.46-1.25,2.89-2.53,4.34-3.8.07-.06.14-.13.21-.18,2.19-1.35,4.03-3.17,6.1-4.68,2.44-1.79,4.8-3.68,7.15-5.59,1.22-.98,2.49-1.87,3.85-2.64.31-.17.68-.26,1.03-.38h0ZM439.72,117.66c-.37.05-.73.05-1.07-.14-.72-.41-1.42-.84-2.13-1.26-.79-.47-1.56-.96-2.38-1.37-1.48-.76-2.79-1.74-4.09-2.75-1.09-.84-2.16-1.7-3.4-2.31-.65-.32-1.27-.75-1.83-1.22-1.06-.91-2.26-1.53-3.58-1.98-.95-.32-1.86-.75-2.77-1.17-.5-.23-1-.5-1.39-.86-.75-.7-1.6-1.22-2.45-1.76-2.33-1.49-4.38-3.3-6.36-5.21-.46-.44-.97-.84-1.5-1.2-1.27-.9-2.5-1.86-3.6-2.97-1.62-1.63-3.42-3.03-5.26-4.4-.73-.55-1.4-1.17-2.09-1.78-.19-.17-.32-.42-.48-.64.1-.06.19-.17.26-.15.34.1.71.18,1.02.35,1.14.58,2.27,1.18,3.38,1.81.8.46,1.59.9,2.47,1.18.7.22,1.32.62,1.86,1.14.87.82,1.86,1.47,2.89,2.09,1.89,1.14,3.62,2.49,5.1,4.15.43.48.9.92,1.34,1.38.84.86,1.78,1.57,2.85,2.12,1.55.81,2.94,1.81,4.24,3,2.29,2.11,4.75,4.03,7.35,5.75.31.21.59.46.92.6,1.44.63,2.68,1.58,3.96,2.45.68.46,1.35.97,2.06,1.36.72.39,1.5.67,2.07.92.67.43.73,1.03,1.05,1.51.42.3.87.61,1.3.96.12.1.12.32.18.48.65,0,1.25.2,1.77.58.66.48,1.26,1.03,1.74,1.69,0,.2-.14.31-.32.19-1.12-.75-2.36-1.35-3.14-2.51h0ZM370.38,90.73c.82.45,1.33,1.22,1.97,1.87.18.18.2.6.07.77-.52.65-1.16,1.16-1.84,1.63-.29.2-.66.28-1.05.44-.44-.36-.87-.69-1.27-1.06-.38-.35-.32-.9.09-1.16.31-.19.63-.37.96-.53.75-.35,1.07-.95,1.06-1.77,0-.08.04-.17.06-.26-.46,0-.92,0-1.15-.53-.98.49-1.96.98-2.88,1.45-.78-.13-1.18-.62-1.49-1.19-.07-.13-.06-.39.02-.51.21-.3.5-.54.73-.82.56-.69.46-1.23-.33-1.82-.07-.06-.17-.08-.25-.12-.88-.06-1.53.54-2.45.8-.32-.11-.74-.27-1.16-.4-.41-.13-.98.11-1.17.49-.12.24-.2.5-.26.77-.08.35-.13.7-.18,1-4.04,2.87-8,5.67-11.96,8.47-.07.05-.18.03-.27.05-.16-.08-.37-.12-.47-.24-.7-.86-1.23-1.82-1.59-2.87-.17-.47-.09-.92.28-1.26.53-.5,1.09-.98,1.65-1.44,1.78-1.44,3.57-2.86,5.38-4.27.65-.5,1.34-.96,2.04-1.4,2.39-1.55,4.77-3.08,7.17-4.61.15-.09.33-.12.5-.18.17.06.39.06.5.18,1.92,2.09,3.7,4.3,5.45,6.53.33.43.63.91.69,1.48.42.11.86.15,1.14.55h0ZM367.1,106.09c-.41.04-.66-.23-.92-.49-.89-.92-1.36-2.13-2.31-2.95.43-.48.81-.56,1.09-.26.98,1.08,1.89,2.22,2.09,3.74.98.36,1.51,1.19,2.07,1.99.06.09-.05.32-.11.48-.01.03-.16.06-.2.03-.84-.56-1.45-1.29-1.73-2.27-.02-.08.01-.18.02-.27h0ZM295.02,20.31c-1.13-.03-2.05.51-2.96,1.08-.19.12-.27.5-.16.72.09.18.53.34.7.24.93-.54,1.79-1.16,2.36-2.09.21.04.37-.03.46-.22,0-.02-.14-.17-.2-.15-.23.05-.29.21-.21.43h0ZM385.77,111.03c.18-.01.36-.01.54-.05.89-.19,1.77-.39,2.65-.61.15-.04.29-.21.41-.34.06-.06.11-.2.08-.25-.08-.13-.22-.34-.32-.33-1.32.09-2.43.65-3.3,1.65-.28.07-.35.15-.2.17.04,0,.09-.15.14-.23h0ZM395.12,105.57c-.88.23-1.7.58-2.37,1.21-.05.05-.11.16-.08.19.11.18.29.23.47.14.64-.32,1.32-.58,1.81-1.12.1-.11.08-.32.12-.48.17,0,.33-.01.5-.02.27,0,.34-.08.19-.23-.04-.04-.17-.02-.23.02-.15.09-.27.2-.41.3h0ZM187.1,47.2c.95-.09,1.62-.64,2.17-1.37.05-.06.03-.17.04-.26.18-.01.38.03.52-.05,1.99-1.22,4.63-3.49,6.07-5.19.04-.06.01-.17.02-.26.28.08.55.02.75-.17.1-.09.18-.31.14-.43-.04-.15-.24-.11-.43.02-.23.15-.45.3-.43.62-.25.06-.55.07-.75.21-1.15.85-2.29,1.7-3.38,2.61-.82.68-1.57,1.45-2.33,2.2-.11.11-.09.33-.14.49-.17.01-.38-.03-.51.04-.71.37-1.33.85-1.67,1.61-.08.02-.17.03-.24.07-.04.02-.05.1-.07.15.14.03.22-.07.25-.29h0ZM176.65,55.46c1.11-.04,1.9-.49,2.2-1.63.59.07.94-.31,1.27-.7.02-.03,0-.15-.04-.18-.05-.05-.15-.1-.21-.08-.52.13-.92.41-.99,1-1,.19-1.81.63-2.18,1.66-.08.02-.16.02-.23.06-.04.02-.06.09-.09.14.13.04.22-.05.26-.26h0ZM297.76,21.41c-.85-.09-1.4.28-1.65,1.1-.48-.06-.83.17-1.17.49-.18.17-.24.27-.02.37.06.03.18.01.25-.03.35-.24.82-.36.9-.88.78-.02,1.35-.35,1.64-1.1.14-.06.29-.13.43-.2-.06-.05-.14-.15-.19-.14-.21.04-.27.19-.19.39h0ZM29.76,114.96c-.57-.05-1.01.21-1.38.62-.03.03-.03.15,0,.17.05.06.15.12.21.1.52-.14.97-.37,1.11-.95.13-.06.27-.11.4-.17-.05-.05-.1-.1-.15-.15-.06.12-.13.25-.19.37h0ZM24.79,118.27c-.27.1-.48.25-.53.57-.17.01-.33.04-.5.05-.26.01-.32.11-.16.25.04.04.17.01.23-.03.13-.1.24-.22.36-.33.23-.14.47-.26.54-.56,0,.03.32-.24.06.06h0ZM51.76,102.86c-.14.06-.28.13-.41.2.06.05.12.1.18.15.06-.14.12-.27.18-.41.07-.02.14-.03.2-.07.04-.02.06-.06.09-.1-.08.07-.15.15-.23.22h0ZM392.92,80.28c-.02-.35-.23-.51-.55-.57-.11-.99-.56-1.64-1.65-1.64-.08-.14-.16-.29-.26-.41-.05-.05-.16-.06-.24-.06-.07,0-.16.04-.2.1-.07.13.01.26.24.3.17.03.34.02.51.02.3.97.71,1.37,1.66,1.64-.03.39.16.58.55.57,0,.27,0,.57.35.23.05-.04-.21-.23-.41-.18h0ZM170.63,59.93c.09-.09.19-.18.28-.27-.03.05-.06.12-.1.14-.07.04-.17.04-.25.06-.03.07-.05.14-.08.21.05-.05.1-.09.15-.14h0ZM175.04,56.63c-.34.04-.53.22-.54.57-.34.04-.56.19-.54.56-.08,0-.15,0-.22.02-.04.02-.07.08-.11.12.09-.07.17-.13.26-.2.25-.12.46-.27.54-.56.29-.08.53-.21.55-.56.14-.05.29-.11.44-.15-.05-.06-.1-.12-.15-.18-.08.13-.15.26-.23.39h0ZM232.8,28.01c-.18.19-.36.37-.54.55-.29.07-.53.2-.53.55-.38-.06-.68.09-.97.33-1.17.94-2.36,1.87-3.51,2.84-.6.51-1.21,1.03-1.58,1.77-.32.06-.52.24-.55.58-.24.07-.3.14-.16.14.03,0,.06-.14.09-.21.36-.03.61-.15.55-.58.18,0,.39.05.52-.03,2.08-1.12,3.83-2.66,5.41-4.39.1-.11.09-.33.13-.5.34-.03.49-.24.52-.56.27-.09.51-.22.55-.55-.06.1.35-.27.06.06h0ZM299.95,76.97c-.5-.14-1.17,0-1.33-.72-.11-.5.19-.88.52-1.19,1.34-1.25,2.76-2.4,4.33-3.36,1.86-1.15,3.75-2.28,5.61-3.44,1.01-.63,2-1.27,3-1.93.15-.1.25-.26.39-.39.16-.15.16-.56-.04-.73-.12-.1-.35-.21-.48-.16-.42.15-.85.33-1.24.56-1.95,1.18-3.92,2.33-5.98,3.35-1.87.92-3.71,1.98-5.26,3.44-.2.19-.42.35-.65.51-.34.26-.93.15-1.22-.2-.24-.29-.23-.71.08-.97.91-.76,1.79-1.57,2.77-2.24,1.28-.88,2.62-1.68,3.98-2.43,1.92-1.07,3.73-2.3,5.5-3.6.13-.1.17-.31.26-.47-.33-.65-.69-1.27-1.47-1.47l.07.08c-.08-.26-.1-.55-.24-.76-.42-.6-.9-1.16-1.31-1.76-.14-.21-.17-.52-.19-.79-.05-.5.25-.96.65-1.09.38-.12.73-.01,1.03.21.29.22.55.49.8.76,1.68,1.82,3.35,3.64,5.03,5.45.31.33.65.67,1.05.86.62.29.88.9,1.43,1.38.46-.08.98-.19,1.52-.26.37-.05.95.42,1,.79.03.18.01.37-.06.53-.1.25-.28.47-.41.71-.09.15-.17.32-.26.49,0,.76.38,1.17,1.26,1.24.45-.32.98-.66,1.49-1.04.46-.35.53-.97.15-1.47-1.42-1.9-2.59-4-4.33-5.67-.9-.86-1.17-2.05-1.41-3.22-.04-.2.18-.54.38-.65.2-.11.58-.11.76.02.99.68,1.8,1.56,2.48,2.54.32.45.59.92.89,1.39,1.11,1.68,2.22,3.36,3.56,4.87.42.48.77,1.02,1.16,1.53.29.36.8.44,1.25.23.16-.08.33-.15.5-.24.16-.09.32-.18.47-.28,2.12-1.44,4.24-2.87,6.4-4.34-.16-.8-.7-1.24-1.42-1.46-.23-.08-.57-.03-.79.08-.9.45-1.77.96-2.65,1.45-.64.35-1.27.73-1.92,1.07-.15.08-.35.12-.52.09-.17-.02-.34-.12-.47-.23-.21-.17-.23-.57-.12-.75.45-.71,1.1-1.21,1.8-1.66.76-.5,1.52-1.02,2.27-1.54.25-.17.24-.76.03-1-.62-.7-1.35-1.23-2.4-1.41-.5.26-1.08.53-1.62.85-.55.32-1.07.69-1.55,1.01-.68-.32-.89-.65-.65-.99.32-.44.64-.9,1.01-1.29.38-.4.82-.73,1.23-1.09.32-.29.38-.85.15-1.27-.23-.41-.77-.65-1.16-.48-.42.18-.83.38-1.23.6-.56.31-1.1.65-1.65.98-.15.09-.61-.12-.71-.3-.22-.4-.16-.96.11-1.28.72-.85,1.6-1.51,2.5-2.14.33-.22.5-.52.53-.92-.18-.6-.34-1.22-.92-1.69-.22.06-.52.07-.73.21-.98.68-1.92,1.41-2.89,2.1-.37.26-.76.49-1.18.69-.12.06-.34-.04-.5-.12-.2-.1-.36-.55-.27-.72.12-.24.22-.5.39-.71.88-1.07,1.9-1.98,3-2.82.29-.22.57-.45.81-.73.18-.21.21-.5.1-.77-.25-.6-.56-1.16-1.35-1.4-1.18.73-2.42,1.49-3.61,2.33-.52.37-1.07.7-1.62,1.04-.29.18-.85.05-.95-.25-.08-.24-.14-.6-.02-.77.31-.44.69-.85,1.11-1.2.92-.76,1.89-1.46,2.82-2.19.36-.28.44-.81.19-1.24-.27-.48-.53-.98-1.17-1.09-2.07.99-3.73,2.59-5.45,3.97-.72-.21-.79-.82-1.08-1.29-.64-.28-1.32-.47-1.93-.92-1.49-1.09-2.89-2.23-4-3.73-.43-.58-1.01-1.06-1.57-1.52-.85-.71-1.66-1.44-2.2-2.43-.5-.91-1.28-1.55-2.06-2.19-1.13-.93-2.24-1.88-3.42-2.77-1.31-.99-2.65-1.96-4.02-2.87-2.82-1.88-3.03-2.04-4.81-4.4-.22-.29-.4-.62-.61-.91-.77-1.07-1.73-1.89-2.93-2.42-.33-.15-.7-.24-1.02-.4-1.54-.8-3.12-1.55-4.28-2.93-.11-.14-.3-.2-.61-.39-.64-.11-1.45-.25-2.26-.39-.36-.06-.63-.83-.4-1.15.16-.22.4-.37.57-.58.16-.2.29-.43.41-.62-.27-.68-.7-1.17-1.26-1.48-1.71-.96-3.13-2.22-4.35-3.75-.11-.13-.3-.19-.46-.28-.4-.12-.73.07-1.01.28-1.39,1.05-2.78,2.09-4.13,3.2-1.77,1.45-3.51,2.94-5.23,4.45-3.23,2.85-6.65,5.46-9.86,8.35-1.56,1.41-3.21,2.72-4.83,4.07-.42.35-.87.67-1.3,1-1.16.9-2.31,1.8-3.47,2.7-.21.16-.45.31-.71.39-.13.04-.37-.03-.47-.14-.1-.11-.14-.33-.12-.48.07-.38.34-.65.66-.83,1.53-.86,2.74-2.13,4.03-3.28.96-.85,1.86-1.77,2.83-2.6,4.17-3.58,8.37-7.13,12.54-10.7.7-.59,1.4-1.19,2.04-1.84,2.07-2.09,4.3-3.99,6.68-5.71.44-.32.82-.71,1.19-1.04-.05-.18-.07-.27-.1-.35-.21-.43-.59-.7-.99-.93-.55-.31-1.14-.56-1.7-.83-1.81.58-3.46,1.3-4.99,2.36-2.11,1.46-4.29,2.81-6.27,4.45-.71.58-1.4,1.18-2.09,1.79-.75.67-1.49,1.35-2.3,1.96-1.33.98-2.46,2.19-3.56,3.42-.25.28-.38.62-.34,1.01-.32.06-.51.25-.57.57-.79-.03-1.2.54-1.66,1.04-.19.19-.38.38-.57.58-.31.07-.48.25-.53.56-.08.03-.16.03-.23.07-.04.03-.04.1-.06.15.14.02.21-.08.23-.29.32-.05.55-.19.54-.56.35-.03.59-.18.55-.58.82.07,1.34-.33,1.67-1.04.19-.19.38-.38.58-.57.48-.26,1-.46,1.43-.78,2.53-1.81,5.03-3.67,7.37-5.72.48-.42.95-.86,1.41-1.31,2.04-2.01,4.45-3.49,6.93-4.88.31-.18.68-.28,1.03-.36.15-.03.35.07.5.15.2.11.38.54.29.71-.16.33-.3.69-.55.93-.32.32-.71.58-1.12.78-2.65,1.32-4.88,3.22-7.12,5.1-1.47,1.23-2.82,2.61-4.42,3.69-.23.15-.41.38-.65.5-1.92.94-3.4,2.46-5.07,3.74-1.31,1-2.59,2.03-3.9,3.03-.94.72-1.82,1.53-2.74,2.28-1.69,1.39-3.19,3.01-5.12,4.12-.71.41-1.32.98-1.97,1.5-1.78,1.42-3.57,2.86-5.34,4.31-.6.49-1.15.43-1.73,0-.07-.05-.18-.03-.4-.07-3,1.77-5.4,4.48-8.53,6.55-.44.03-1.07.06-1.77.1-1.65,1.36-3.38,2.72-4.79,4.42-.6.71-1.28,1.29-2.05,1.8-3.43,2.29-6.56,4.96-9.57,7.78-1.07,1-2.22,1.91-3.32,2.87-.36.31-.63.67-.5,1.18-.48.12-.48.12-.51.59-.35.01-.74-.07-1.05.06-1,.42-1.85,1.05-2.26,2.11-.09.01-.18.01-.26.05-.04.02-.04.12-.06.18.17.05.26-.05.27-.29.26-.06.56-.05.77-.2.87-.63,1.79-1.19,2.53-1.98.3-.07.55-.19.56-.55.26-.06.56-.05.78-.18,1.34-.82,2.41-1.97,3.53-3.05,1.32-1.27,2.69-2.48,4.16-3.58.59-.44,1.12-.95,1.67-1.42.7-.59,1.36-1.24,2.11-1.75,1.98-1.35,3.77-2.89,5.45-4.59.39-.4.83-.73,1.39-.83.37-.07.73-.02,1,.28.3.31.38.94.11,1.27-.34.42-.68.88-1.1,1.21-1.66,1.3-3.33,2.59-5.04,3.82-1.12.81-2.17,1.67-3.17,2.62-1.4,1.32-2.95,2.47-4.42,3.72-1.4,1.19-2.72,2.46-4.15,3.6-1.36,1.08-2.82,2.03-4.24,3.05-.52.37-1,.81-1.54,1.15-.37.24-.82.38-1.18.55q-.59-.39-1.23-1.74c-1.01.1-1.5,1-2.24,1.5-.71.47-1.06,1.24-1.51,1.9-.73.44-1.51.74-2.09,1.37-.44.48-.85.94-1,1.6-.13.6-.59.89-1.18.99-.18.03-.35.08-.66.15-.91.73-1.9,1.54-2.9,2.34-.79.62-1.6,1.22-2.39,1.85-.29.23-.64.46-.76.77-.42,1.02-1.28,1.53-2.13,2.07-.24.15-.47.28-.84.5-.57.11-1.29.24-1.9.35-.69-.25-.87-.72-.77-1.09.12-.44.31-.85.44-1.19-.24-.88-.86-1.27-1.45-1.66-.54-.11-.92.09-1.17.52-.08.14-.14.39-.07.51.22.39.5.75.77,1.12.16.23.33.44.49.66.35.49.29,1.13-.14,1.48-.99.81-2,1.61-2.99,2.42-1.63,1.34-3.27,2.67-4.88,4.03-.41.35-.74.81-1.13,1.19-.47.43-.94.87-1.46,1.23-.9.64-1.4.49-1.96-.5-.23-.4-.45-.8-.71-1.18-.32-.46-.91-.57-1.46-.27-.24.12-.45.3-.66.45.1.71.43,1.29.96,1.64,1.3.86,2.65,1.63,4,2.41.11.06.36-.02.49-.12.13-.1.18-.3.27-.46,1.23-2.05,2.4-3.06,4.65-4.06.17.05.36.08.51.17.67.39.8,1.09.29,1.59-.39.39-.79.78-1.23,1.09-1.05.76-1.92,1.69-2.81,2.57.05.14.06.24.11.27.98.67,1.97,1.34,2.96,1.99,1.94,1.28,4.15,1.93,6.36,2.48,1.54.39,2.93,1.01,4.25,1.85.62.39,1.24.79,1.86,1.16.15.09.34.12.51.18.49.02.91-.2,1.27-.46,1.12-.8,2.26-1.58,3.31-2.47,3.92-3.31,7.91-6.54,11.96-9.69,1.52-1.19,2.94-2.48,4.31-3.85.59-.59,1.25-1.07,2.05-1.35.37-.13.71-.06,1.01.2.29.25.42.71.25.98-.09.16-.16.34-.28.47-1.07,1.27-2.26,2.41-3.7,3.25-.8.47-1.5,1.04-2.21,1.62-1.42,1.16-2.89,2.26-4.31,3.4-1.65,1.32-3.27,2.66-4.91,3.99-1.84,1.51-3.69,3.01-5.53,4.53-.34.29-.65.62-.91.86-.03.64.27.99.62,1.28,1.33,1.11,2.59,2.33,4.15,3.14.4.21.77.49,1.2.77.22-.12.52-.19.66-.37.57-.73,1.18-1.39,2.07-1.76.42-.18.8-.45,1.16-.73,2.12-1.6,4.1-3.38,6.34-4.82,1.23-.79,2.32-1.79,3.46-2.71,2.62-2.15,5.25-4.29,7.85-6.47,2.46-2.06,4.99-4.03,7.5-6.02,2.58-2.05,5.27-3.97,7.8-6.09,2.04-1.71,4.16-3.31,6.24-4.97.57-.45,1.12-.94,1.67-1.43,1.04-.91,2.2-1.65,3.39-2.34.33-.2.71-.15,1.06-.05.39.12.61.85.35,1.15-.18.2-.35.43-.56.59-1.39,1.05-2.79,2.08-4.18,3.13-1.38,1.05-2.77,2.1-4.13,3.19-4.29,3.44-8.58,6.88-12.95,10.22-2.11,1.61-4.19,3.29-6.16,5.06-3.9,3.49-8.1,6.6-12.32,9.68-.37.27-.74.54-1.09.84-1.48,1.22-2.91,2.52-4.46,3.66-.66.48-1.33.98-1.76,1.69,0,.1-.02.22.03.28.51.71.99,1.07,2.75,2.14.09-.03.19-.04.25-.09,2.92-2.36,5.83-4.75,8.76-7.08,1.29-1.03,2.65-1.96,3.98-2.95,2.58-1.91,5.28-3.65,7.66-5.81.47-.43,1.03-.77,1.53-1.16,2.9-2.25,5.79-4.5,8.7-6.73,1.09-.84,2.22-1.63,3.35-2.41.21-.14.52-.18.78-.19.27,0,.53.11.68.38.13.25.15.52,0,.78-.36.67-.96,1.11-1.53,1.55-2.48,1.9-4.96,3.78-7.45,5.65-2.13,1.59-4.31,3.1-6.36,4.8-2.76,2.28-5.65,4.38-8.6,6.41-.83.57-1.63,1.18-2.35,1.89-.51.51-1.07,1.01-1.68,1.41-1.77,1.17-3.35,2.56-4.77,4.11-.24.26-.63.39-.69.85.6.51,1.36.83,2.06,1.21.48.26,1.01.42,1.34.56.81.02,1.22-.39,1.65-.71,1.75-1.34,3.48-2.7,5.22-4.04.94-.73,1.89-1.45,2.85-2.15,2.43-1.8,4.86-3.61,7.19-5.54,2.89-2.41,5.78-4.81,8.7-7.17.85-.69,1.8-1.26,2.72-1.86.39-.26.89-.14,1.23.24.25.27.29.77.08,1.01-.24.27-.46.58-.76.78-1.01.65-1.89,1.45-2.81,2.2-1.28,1.04-2.62,2.01-3.92,3.03-2.6,2.03-5.19,4.08-7.79,6.11-.65.51-1.32,1-1.98,1.48-1.4,1.03-2.82,2.04-4.13,3.19-.83.72-1.74,1.35-2.6,2.04-.86.68-1.69,1.39-2.54,2.1-.12.48-.2.93-.33,1.36-.21.67-.72,1.1-1.37,1.23-1.43.28-2.88.48-4.47.74-.3-.13-.74-.27-1.13-.49-1.12-.64-2.21-1.31-3.32-1.94-.55-.32-1.13-.6-1.69-.91-3.11-1.75-6.17-3.6-9.02-5.77-.05-.04-.07-.18-.05-.26.03-.22.18-.29.38-.22.26.08.53.16.78.27.33.16.66.32.97.53,2.74,1.83,5.63,3.42,8.48,5.07,1.5.87,2.9,1.92,4.57,2.47.06.02.17-.05.23-.11.04-.04.06-.16.03-.2-.16-.22-.3-.5-.52-.62-1.28-.7-2.32-1.8-3.73-2.29-.41-.14-.78-.48-1.1-.8-1.9-1.88-4.02-3.48-6.19-5.01-1.42-1-2.82-2.03-4.14-3.17-.97-.84-2.01-1.59-3.14-2.22-1.2-.67-2.39-1.36-3.58-2.03-.88-.5-1.83-.86-2.82-1.06-1.09-.21-2.1-.63-3.13-1.02-.69-.27-1.33-.61-1.91-1.07-1.51-1.2-3.12-2.26-4.79-3.22-.23-.14-.51-.23-.71-.42-1.71-1.58-3.83-2.47-5.95-3.57h-1.65c-.82-.22-1.3-.65-1.75-1.11-.77-.79-1.62-1.48-2.5-2.15-1.12-.85-1.11-.86-2.69-1.29-.09-.23-.19-.47-.26-.73-.1-.37-.29-.67-.58-.91-.71-.6-1.5-1.09-2.36-1.38-1.39-.47-2.74-1.03-4.11-1.51-1.36-.49-2.8-.88-4.3-.85-.54,0-1.09-.05-1.68-.08-.33-.31-.71-.58-.98-.93-.4-.53-.86-.95-1.43-1.26-.16-.09-.35-.18-.51-.17-.16.01-.36.13-.45.27-.08.12-.13.38-.05.48.27.36.55.75.9,1.01,1.55,1.15,3.05,2.35,4.5,3.62.49.43,1.03.74,1.65.95.52.17,1.01.42,1.51.62.42.52.84,1,1.23,1.51.86,1.12,1.94,1.93,3.3,2.34.35.11.71.21,1.04.35.6.25,1.12.6,1.58,1.07.64.65,1.32,1.27,2.01,1.86,1.2,1.01,2.25,2.17,3.23,3.38.75.92,1.41,1.91,2.15,2.93-.09.2-.13.5-.31.67-.35.32-.8.45-1.28.33-.45-.12-.89-.31-1.12-.72-1.54-2.7-4.1-4.4-6.1-6.36-.8-.2-.98.35-1.34.58-.49.31-1.15.25-1.51-.15-.12-.14-.28-.25-.37-.41-.51-1-1.33-1.73-2.06-2.56-.97-1.12-2.02-2.08-3.35-2.79-.87-.46-1.61-1.21-2.31-1.92-1.24-1.25-2.61-2.3-4.09-3.24-1.8-1.13-3.46-2.41-4.78-4.09-.11-.14-.27-.24-.49-.43-.25-.09-.6-.21-.94-.33-.56-.21-.92-.59-1.05-1.17-.12-.54-.22-1.09-.62-1.5-.68-.72-1.27-1.56-2.19-2.03-.3.11-.57.18-.8.31-.62.38-1.26.76-1.84,1.2-2.26,1.71-4.55,3.4-6.74,5.21-1.69,1.4-3.66,2.46-5.16,4.1-1.43,1.56-3.11,2.85-4.66,4.27-.67.62-1.42,1.16-2.13,1.73-.07.06-.16.09-.23.15-.89.79-1.78,1.58-2.65,2.39-.87.81-2.02,1.27-2.76,2.16-.03.34.01.65.29.74.24.07.56.07.78-.03.84-.39,1.47-1.08,2.15-1.69,2.18-1.96,4.32-3.96,6.54-5.88,2.36-2.03,4.81-3.97,7.3-5.83,1.25-.93,2.43-1.95,3.64-2.93.87-.7,1.83-1.21,2.92-1.47.26-.06.55-.03.82,0,.39.06.65.33.78.69.1.29-.12.8-.38.96-.16.1-.29.25-.46.29-1.12.24-1.99.91-2.9,1.53-2.42,1.65-4.72,3.47-7.02,5.29-1.72,1.36-3.42,2.76-5.09,4.19-1.18,1.01-2.33,2.08-3.43,3.18-.84.84-1.71,1.64-2.66,2.36-.07.06-.12.14-.19.2-.25.25-.25.78.02.98.37.27.74.55,1.12.79,1.23.79,2.48,1.56,3.72,2.33.27.17.78.06.99-.22.42-.59.83-1.2,1.23-1.79.73-.57,1.45-1.13,2.17-1.7.72-.56,1.41-1.17,2.18-1.68,2.69-1.77,5.13-3.84,7.6-5.89.49-.41,1.05-.73,1.61-1.04.22-.13.54-.18.79-.14.25.03.56.18.68.38.13.2.14.53.07.78-.07.24-.27.48-.47.66-.34.31-.7.59-1.08.85-1.27.9-2.55,1.76-3.75,2.77-1.26,1.06-2.67,1.93-4.05,2.83-1.7,1.11-3.12,2.53-4.59,3.9-.33.3-.53.74-.79,1.12-.13.19-.04.63.14.74.39.24.77.51,1.17.71,1.4.69,2.76,1.44,4,2.4.42.33.96.52,1.49.81.31-.21.63-.38.91-.61.93-.75,1.81-1.55,2.76-2.28,1.01-.78,2.07-1.51,3.12-2.25,1.42-1,2.86-1.99,4.28-2.99.6-.42,1.21-.84,1.93-1.03.37-.1.72-.06,1.06.1.3.15.47.74.26.95-.25.26-.49.55-.79.75-1.73,1.2-3.48,2.38-5.22,3.56-1.07.71-2.17,1.36-3.22,2.1-.89.64-1.77,1.32-2.41,2.23-.11.16-.06.61.09.77.64.67,1.38,1.17,2.12,1.49.22-.05.34-.04.4-.1,2.27-2.44,5.22-4,7.79-6.06.71-.57,1.51-1.04,2.41-1.28.29-.08.53.06.72.28.21.24.26.56.1.74-.18.2-.34.43-.55.6-1.37,1.07-2.75,2.14-4.13,3.2-1.16.9-2.34,1.77-3.48,2.69-.28.22-.48.54-.7.83-.03.05.01.18.04.27.07.2.23.32.4.26.33-.13.71-.25.96-.49,1.79-1.76,3.96-2.97,6.06-4.28.23-.14.48-.26.74-.35.36-.12.72-.08,1.07.06.44.17.6.83.26,1.11-.35.29-.69.6-1.07.85-1.15.75-2.3,1.51-3.48,2.22-1.04.62-1.85,1.45-2.63,2.29.13.26.17.46.29.56.95.74,2.04,1.21,3.16,1.65.61.24,1.13.15,1.46-.36,1.35-2.09,3.44-3.26,5.52-4.41.31-.17.7-.21,1.06-.25.17-.02.36.07.52.13.31.1.47.69.25.93-.18.2-.34.43-.56.59-.51.39-1.03.77-1.58,1.09-1.35.78-2.49,1.85-3.75,2.76-.74.54-.65,1.22.22,1.64.62.3,1.24.34,1.82-.09.96-.7,1.9-1.43,2.86-2.13.81-.59,1.61-1.23,2.59-1.52.15-.04.34.05.51.12.19.07.35.53.26.72-.12.24-.21.53-.4.71-.46.44-.97.84-1.46,1.25-.7.59-1.47,1.09-1.95,1.86.03.33.14.58.44.62.16.02.38-.01.52-.11,1.78-1.29,3.54-2.6,5.33-3.89.37-.27.78-.47,1.2-.66.15-.07.36-.04.53-.02.29.04.48.25.62.48.12.2.09.64-.07.77-.48.43-.94.88-1.45,1.25-1.18.86-2.4,1.69-3.63,2.54-.16.52-.33,1.04-.49,1.55-.25.3-.55.51-.94.5-.55-.02-1.1-.06-1.64-.12-.73-.09-1.45-.26-2.18-.29-1.22-.05-2.33-.43-3.4-.97-.49-.24-.98-.53-1.5-.68-1-.27-1.91-.63-2.59-1.45-1.52-1.01-3.04-2.02-4.57-3.03-.15-.1-.31-.22-.47-.28-2.86-1.06-5.23-3.01-7.95-4.34-1.3-.64-2.47-1.57-3.68-2.4-1.44-.98-2.93-1.88-4.48-2.68-.89-.46-1.76-1-2.54-1.63-1.59-1.27-3.3-2.32-5.12-3.2-1.74-.84-3.35-1.88-4.91-3-.77-.55-1.58-.91-2.67-1.28-.43-.45-1-1.04-1.76-1.82-.34-.16-.91-.44-1.5-.69-.58-.24-.99-.1-1.45.42-.49.56-.96,1.11-.86,1.94.05.37-.12.72-.4.99-.85.85-1.84,1.5-2.94,1.99-.36.16-.72.03-1.04-.17-.28-.18-.42-.74-.23-.98.33-.43.64-.91,1.05-1.24.56-.46,1.23-.79,1.83-1.21.21-.15.37-.39.59-.62-.29-1.48-1.36-2.57-1.68-3.76-.67-.43-1.12-.34-1.52-.11-.39.23-.75.53-1.09.83-2.35,2.05-4.84,3.92-7.48,5.6-1.85,1.18-3.63,2.48-5.26,3.97-.47.42-1.01.81-1.09,1.52-.36.03-.56.21-.54.58-.08.01-.17,0-.24.04-.04.02-.06.09-.09.14.09-.08.17-.17.26-.25.32-.05.57-.18.55-.57.26-.06.58-.04.77-.18,1.11-.81,2.19-1.64,3.28-2.48,1.02-.8,2.12-1.39,3.45-1.42.36.59.38.95.09,1.21-.27.24-.53.5-.83.71-3.1,2.26-6.2,4.52-9.31,6.76-2.67,1.92-5.22,4-7.8,6.03-1.44,1.13-2.88,2.26-4.4,3.27-1.9,1.27-3.69,2.69-5.5,4.08-1.37,1.06-2.82,2.03-4.26,2.99-1.6,1.06-3.22,2.08-4.7,3.32-.62.53-1.33.96-2.03,1.4-.66.41-1.21.29-1.5-.68.17-.24.32-.61.59-.81,1.47-1.08,2.81-2.34,4.39-3.28.54-.33,1.03-.76,1.54-1.14.37-.27.71-.59,1.11-.8,1.63-.85,3.05-2.01,4.51-3.1,1.32-.99,2.65-1.94,4.03-2.84,1.68-1.1,3.27-2.34,4.79-3.66,1.03-.9,2.14-1.71,3.19-2.6.18-.15.25-.46.37-.69.25-.06.55-.06.75-.2.43-.31.82-.68,1.24-1.04-.15-.15-.28-.34-.33-.32-.77.28-1.39.74-1.67,1.55-.18.01-.39-.03-.53.05-3.05,1.85-6.23,3.51-9.1,5.64-3.38,2.52-6.93,4.79-10.43,7.13-.99.66-2.03,1.24-3.04,1.88-1.78,1.13-3.51,2.32-5.17,3.63-.43.33-.93.57-1.41.83-.25.14-.75-.08-.96-.37-.12-.18-.15-.63-.03-.78.24-.28.46-.57.74-.8.5-.4,1.06-.71,1.56-1.11.27-.22.47-.54.72-.84-.25-.09-.46-.24-.55-.19-.95.55-1.91,1.08-2.8,1.72-2.01,1.45-3.97,2.95-5.95,4.43-1.02.77-2.04,1.54-2.94,2.23-.94.17-1.15-.77-1.77-.84-.7-.09-1.1-.62-1.71-.94-.31.09-.66.22-1.01.27-.49.07-.88-.14-1.19-.53-.19-.25-.15-.85.08-1.01.98-.67,1.97-1.35,3.13-1.68,1.42-.4,2.77-.96,3.95-1.88,2.08-.97,3.86-2.43,5.95-3.41,1.32-.61,2.52-1.49,3.79-2.22,1.03-.59,2.06-1.2,3.12-1.72,2.24-1.08,4.24-2.54,6.39-3.75,1.27-.71,2.55-1.42,3.56-2.52.62-.67,1.43-1.14,2.31-1.44.26-.09.56-.13.77-.29,1.48-1.11,3.15-1.85,4.75-2.74,1.51-.84,3.01-1.78,4.34-2.89,2.18-1.82,4.45-3.53,6.73-5.22,1.54-1.14,3.12-2.25,4.67-3.39,1.7-1.25,3.27-2.66,5.04-3.81.91-.59,1.74-1.34,2.54-2.09,1.16-1.11,2.56-1.76,4.04-2.25,1.31-.43,2.56-.98,3.72-1.76.96.06,1.73.63,2.59.88.78.22,1.47.72,2.29.9.43.09.81.42,1.19.66.7.44,1.38.89,2.01,1.29.27-.03.47,0,.62-.07.84-.37,1.66-.77,2.38-1.35.27-.22.64-.33.98-.47.19-.08.68.13.69.3,0,.17-.01.38-.11.51-.46.59-1.07.98-1.76,1.27-.5.21-1.05.35-1.38.84.06.17.06.39.17.51.37.4.77.78,1.18,1.14.34.3.94.18,1.19-.24.14-.23.23-.48.31-.74.08-.26.11-.53.15-.74.18-.16.3-.32.46-.38,1.21-.47,2.33-1.06,3.21-2.05,2.64-1.98,4.96-4.35,7.5-6.46,1.27-1.06,2.52-2.12,3.81-3.16.43-.34.92-.6,1.37-.91,1.05-.74,2.09-1.48,3.14-2.23.37-.27.74-.54,1.12-.79,1.16-.74,2.3-1.49,3.36-2.37.91-.75,1.96-1.36,3.01-1.91,1.06-.55,2.1-1.12,3.1-1.76.4-.25,1.21-.12,1.54.23.25.26.5.54.69.85.41.64,1,1.08,1.7,1.32.44.15.85.32,1.2.63,2.27,2.03,4.87,3.55,7.69,4.93,1.44.19,2.99.37,4.53.59,1.45.21,2.89.45,4.23.67,1.37.36,2.1,1.65,3.41,1.88.89-.27,1.76-.54,2.63-.77.14-.04.4.07.46.19.06.12,0,.37-.1.5-.16.22-.39.38-.58.58-.18.21-.16.5.04.74.23.28.46.57,1.03.64.54-.15,1.23-.35,1.93-.55.82-.24,1.53-.66,1.96-1.41.38-.68.92-1.12,1.59-1.46,2.79-1.42,5.32-3.24,7.64-5.31,1.78-1.59,3.64-3.07,5.48-4.58,1.13-.93,2.19-1.96,3.29-2.92.97-.84,1.94-1.67,2.94-2.49,3.32-2.74,6.9-5.15,10.22-7.9,1.4-1.16,2.87-2.26,4.44-3.22,1.4-.85,2.6-2.02,3.86-3.08,3.38-2.82,6.7-5.7,10.2-8.37,1.38-1.05,2.91-1.92,4.42-2.76,1.44-.8,2.96-1.44,4.45-2.16.76-.37,1.55-.58,2.39-.51.74.07,1.45.01,2.17-.23.21-.07.57.05.75.21.41.36.78.78,1.11,1.21.33.43.6.92.89,1.38,1.59,1.09,3.32,1.97,4.61,3.32.28-.07.5-.06.62-.17.96-.86,1.96-1.65,2.99-2.42,1.25-.92,2.42-1.96,3.62-2.95.14-.12.26-.27.41-.37,2.66-1.82,4.85-4.18,7.32-6.22.71-.58,1.44-1.13,2.2-1.64,1.3-.87,2.49-1.88,3.56-3.01,1.51-1.6,2.95-3.26,4.63-4.69.55-.47,1.08-1.02,1.48-1.62,1-1.48,2.41-2.5,3.82-3.51,1.05-.75,2-1.58,2.91-2.51,1.34-1.38,2.79-2.65,4.4-3.71,1.23-.81,2.39-1.69,3.5-2.65.97-.84,2.03-1.56,3.01-2.31.43-.07.79-.18,1.15-.19,1.03,0,2-.22,2.9-.72.39-.22.83-.38,1.27-.51,1.11-.33,2.17-.32,3.1.49.27.24.6.41.72.48.78.29,1.3.02,1.82-.1,1.05-.25,1.96.38,2.25,1.15.56,1.48,1.34,2.79,2.49,3.89.33.31.56.73.81,1.11,1.22,1.85,2.73,3.43,4.44,4.83.57.47,1.12.91,1.88,1.07.43.09.82.38,1.21.62,1.5.92,3.19,1.37,4.8,2.02,1.64.08,3.25.67,4.91.38.73-.13,1.44-.15,2.18-.05.44.06.91-.03,1.37-.05,1.28-.08,2.56-.14,3.81-.22,1.66.67,3.32,1.24,4.77,2.22,1.06.72,2.16,1.4,3.1,2.25,1.1,1,2.33,1.77,3.69,2.51.18.36.37.77.6,1.15.91,1.48,1.91,2.89,3.14,4.15,1.33,1.38,2.66,2.77,4.07,4.08.93.87,1.68,1.93,2.48,2.94,1.89,2.37,3.98,4.55,6.1,6.71.96.99,1.98,1.92,2.89,2.95,1.78,1.98,3.72,3.79,5.67,5.6,1.95,1.8,3.71,3.8,5.82,5.43,3.22,3.27,6.39,6.56,9.36,10.07.88,1.04,1.93,1.94,2.92,2.89.19.18.48.25.8.41.3-.09.66-.16.98-.31,1.09-.48,2.19-.95,3.24-1.5,1.89-1,3.91-1.55,6-1.89.9-.15,1.8-.32,2.87-.5.99.32,2.17.45,3.36.47,1.57.04,3.02.43,4.42,1.27,1.56.94,3.25,1.71,4.97,2.32,2.02.71,3.8,1.8,5.56,2.96.54.35,1.06.72,1.56,1.12,1.15.92,2.37,1.71,3.68,2.39,1.38.71,2.62,1.67,3.9,2.57,2.47,1.74,4.82,3.65,7.51,5.07,1.62.86,3.07,1.98,4.35,3.32,1.14,1.19,2.3,2.37,3.25,3.73.79,1.14,1.84,2.04,2.83,2.99.38.37.91.62,1.42.8,1.16.4,2.12,1.07,2.99,1.89.94.88,1.91,1.71,2.8,2.64.94.99,2.13,1.7,2.98,2.81.77,1.01,1.71,1.9,2.62,2.88.35.06.71.18,1.06.16,1.19-.04,2.12.47,2.92,1.28.9.91,1.81,1.82,2.71,2.73,1.24,1.23,2.62,2.29,4.07,3.25,1.15.75,2.32,1.48,3.44,2.27.6.42,1.15.91,1.68,1.42,1.93,1.84,4.05,3.43,6.24,4.95,1.42.99,2.95,1.84,4.16,3.13.29.32.76.5,1.17.69.82.4,1.66.77,2.5,1.14.77.34,1.38.89,1.93,1.52.11.14.18.31.27.47.12.2.08.59-.08.76-.21.24-.5.26-.76.22-.35-.06-.69-.22-1.04-.33-.43-.12-.9-.39-1.31-.32-.98.18-1.77-.28-2.6-.55-.54.23-1.04.43-1.6.66-1.15-.61-2.09-1.47-3.08-2.26-.99-.79-1.71-1.89-2.7-2.61-.43-.05-.5.23-.62.45-.61,1.16-1.36.94-1.97.39-.41-.37-.76-.8-1.18-1.15-.7-.59-1.4-1.19-2.17-1.68-1.31-.84-2.66-1.64-4.03-2.37-2.19-1.16-4.24-2.52-6.21-4.03-2.04-1.55-4.17-2.98-6.33-4.37-1.15-.74-2.44-1.25-3.76-1.63-.72-.21-1.37-.52-1.98-.93-1-.66-2-1.3-2.95-2.01-1.18-.88-2.31-1.79-3.6-2.52-.79-.44-1.49-1.06-2.07-1.79-.23-.29-.47-.56-.71-.84-.87-.95-1.77-1.85-2.94-2.45-.56-.29-1.08-.69-1.62-1.03-.94-.6-1.71-1.39-2.38-2.26-.73-.96-1.63-1.74-2.64-2.38-1.63-1.05-3.07-2.32-4.44-3.68-1.5-1.48-3.1-2.86-4.63-4.31-.67-.64-1.44-1.12-2.24-1.57-.49-.27-.88-.65-1.19-1.12-.32-.48-.42-1-.29-1.57.1-.42.37-.6.88-.58.51.39,1.09.85,1.69,1.25.21.14.51.12.78.18.17.68.72,1,1.26,1.33.19-.02.31-.17.21-.35-.33-.57-.78-.98-1.51-.95-.04-.17-.03-.4-.13-.5-.46-.44-.92-.88-1.43-1.24-2.1-1.48-3.85-3.31-5.39-5.34-.06-.07-.11-.14-.16-.22-.85-1.43-2.21-2.11-3.73-2.53-.87-.24-1.75-.45-2.64-.64-.25-.06-.54,0-.81,0-.51-.52-1.12-.88-1.97-1.19-1.02.07-2.2.13-3.38.22-.18.01-.35.1-.52.15-.33.09-.49.54-.25.82.24.28.49.54.52.94-.15.4-.3.83-.46,1.24-.09,0-.2-.03-.27,0-1.02.59-2.09,1.1-2.92,1.97-.06.05-.05.17-.08.26-.18.03-.38,0-.53.08-.87.48-1.71,1.01-2.42,1.63-.05.23.08.41.26.34,1-.41,1.92-.98,2.61-1.83.05-.06.03-.18.04-.27.17,0,.37.05.52,0,1.06-.43,1.99-1.05,2.76-1.9.05-.06.05-.17.06-.25.26-.06.55-.05.76-.17.77-.44,1.51-.94,2.26-1.41.93-.59,1.95-.84,3.05-.66-.08.44-.16.87-.24,1.33-3.23,2.09-6.55,3.99-9.71,6.14-.14.09-.21.29-.32.44.13.07.32.25.38.21,1.67-.94,3.33-1.89,4.98-2.85.63-.37,1.23-.78,1.87-1.14.58-.32,1.22-.33,1.86-.25.58.07.88.53.77,1.17-.03.18-.08.35-.12.53-.43.08-.92,0-1.15.53-.45,0-.91.01-1.09.55-.34.08-.74.09-1.04.26-1.51.85-3,1.74-4.48,2.62-.15.09-.25.25-.35.4-.05.07-.1.23-.08.25.14.09.29.21.44.21.16,0,.34-.09.49-.19,1.47-.91,2.94-1.82,4.4-2.75.3-.19.61-.42.57-.85.23-.01.48.01.71-.04.25-.06.38-.25.39-.51.47.02.92-.02,1.14-.54.63-.1,1.26-.21,1.89-.31.38-.06.76.16.87.5.11.32-.03.77-.32.97-.45.32-.9.63-1.37.91-1.89,1.11-3.81,2.2-5.69,3.32-.54.33-1.03.74-1.54,1.13-.19.15-.24.56-.1.75.22.31.49.56.9.5.26-.05.56-.12.75-.3,1.83-1.69,4.04-2.83,6.08-4.21.7-.47,1.45-.79,2.25-.99.68-.17,1.27,0,1.57.73-.06.49-.37.82-.79,1.04-1.28.71-2.59,1.37-3.84,2.13-1.41.85-2.76,1.79-4.13,2.71-.5.34-.52.91-.05,1.42.18.2.39.39.62.53.14.09.35.08.63.14,1.91-1.1,3.82-2.35,5.65-3.73.44-.33.89-.64,1.38-.9.34-.18.74-.13,1.02.15.33.32.59.69.74.86.61.16.98.22,1.32.35.52.19.67,1.03.23,1.36-.95.71-1.92,1.4-2.91,2.06-1.07.72-2.16,1.38-3.24,2.08-.23.15-.48.31-.61.53-.13.21-.22.55-.14.76.23.6.6,1.13,1.35,1.37.97-.57,1.99-1.17,3.01-1.77,1.03-.6,2.07-1.18,3.1-1.78.56-.32,1.11-.64,1.66-.96.49-.28,1.02-.38,1.58-.43.5-.04,1,.23,1.09.62.08.31-.11.72-.46.92-1.03.58-2.05,1.21-3.13,1.71-1.6.73-3.07,1.63-4.51,2.61-.23.15-.44.34-.6.55-.09.12-.15.42-.07.49.18.18.43.32.67.38.15.04.36-.04.52-.13,1.53-.83,3.07-1.65,4.57-2.51,1.2-.68,2.35-1.43,3.53-2.12.39-.23.82-.41,1.26-.53.36-.1.72.04,1.02.27.18.14.27.57.19.75-.21.43-.55.73-.92.99-1.21.83-2.49,1.55-3.83,2.15-1.51.67-2.95,1.47-4.31,2.41-.37.26-.38.87-.02,1.18.47.41,1.08.54,1.51.26,1.08-.7,2.13-1.43,3.2-2.14,1.3-.86,2.6-1.7,3.92-2.53.48-.3,1.02-.37,1.59-.26.43.08.73.72.46,1.06-.16.22-.32.46-.53.62-.52.37-1.04.75-1.61,1.04-1.8.92-3.38,2.2-5.08,3.27-.23.14-.4.37-.6.56-.17.16-.24.54-.13.76.26.49.54.97,1.23,1,.22-.09.5-.16.72-.32,2.71-1.89,5.7-3.3,8.54-4.97.15-.09.33-.14.5-.2.42-.16,1.27.28,1.3.73.02.25-.07.56-.23.75-.23.27-.53.51-.84.68-1.44.8-2.86,1.65-4.35,2.34-1.43.66-2.67,1.59-3.92,2.5-.3.21-.22.69.12.91.32.22.66.29,1.03.16.09-.03.18-.05.26-.1,2.55-1.62,5.27-2.95,7.75-4.7.59-.42,1.24-.78,1.89-1.11.41-.2.88-.21,1.34-.05.3.11.5.67.31.93-.16.22-.3.46-.5.63-1.1.98-2.34,1.75-3.62,2.47-1.92,1.06-3.84,2.14-5.74,3.24-.2.11-.29.43-.41.62.14.2.22.37.35.49.43.43.97.59,1.5.3,2.26-1.22,4.51-2.44,6.66-3.84.76-.5,1.54-.98,2.36-1.4.3-.16.7-.18,1.06-.19.57,0,.95.51.88,1.11-.03.27-.07.54-.1.79.2.09.36.17.53.24.86.39.99,1.04.32,1.67-.27.24-.53.51-.84.69-.87.51-1.75,1-2.64,1.47-.81.43-1.64.81-2.45,1.23-1.79.94-3.5,2.01-5.01,3.35-1.24,1.11-2.59,2.01-4.14,2.61-.16.06-.33.19-.43.33-.09.14-.19.38-.13.49.4.72.76,1.49,1.85,1.59.84-.54,1.76-1.13,2.65-1.71.08-.51.15-.96.24-1.51.22-.18.47-.45.78-.64,1.32-.82,2.67-1.59,4.07-2.27,2.55-1.24,5.06-2.57,7.6-3.83.9-.44,1.84-.81,2.79-1.15.42-.16.9-.15,1.35,0,.19.07.47.41.44.63-.02.17-.05.39-.16.49-.27.24-.57.44-.89.61-1.14.59-2.28,1.16-3.47,1.76-.16.53-.33,1.05-.5,1.62-1.06,1.25-2.51,2.02-4.02,2.71-1.42.65-2.76,1.44-4.01,2.37-.46.33-.8.76-.68,1.39l.08-.07c-.71.09-1.41.15-2.13.03-.45-.08-.87.13-1.26.37-1.12.69-1.22,1.17-.39,2.1.3.33.67.59,1,.88l-.05-.06c.21.2.41.41.61.6l-.04-.04c.09.26.13.55.27.78.79,1.23,1.59,2.45,2.18,3.8.25.57.76,1.02,1.15,1.53.38.51.79,1.01,1.12,1.55.13.21.18.53.13.78-.07.39-.42.65-.79.64-.78-.02-1.39-.4-1.77-1.11-.09-.17-.15-.34-.26-.48-1.6-2.01-3.05-4.13-4.41-6.3-.09-.15-.19-.32-.32-.44-1.98-1.77-3.69-3.81-5.75-5.5-.06-.05-.17-.06-.27-.1-.77-.03-1.26.69-1.99.8-.38.06-.73-.05-.98-.34-.1-.12-.16-.34-.13-.49.07-.26.18-.53.36-.73.42-.47.88-.9,1.32-1.36.04-.04.02-.18-.02-.24-.03-.05-.16-.11-.21-.09-1.53.64-2.91,1.55-4.28,2.46-.38.25-.78.47-1.18.68-.26.14-.7-.02-.93-.38-.08-.13-.11-.38-.05-.51.13-.23.32-.45.53-.6,1.25-.94,2.51-1.84,3.75-2.78.19-.14.27-.43.4-.64-.63-.62-1.17-1.26-2.15-1.33-.84.24-1.51.91-2.29,1.37-.52.3-1.1.13-1.36-.43-.13-.27-.14-.58.05-.77.5-.53,1.05-1.01,1.58-1.51.25-.24.22-.66-.06-.99-.12-.14-.24-.27-.4-.37-.15-.09-.34-.12-.59-.21-1.12.5-2.14,1.29-3.14,2.06-.58.45-1.14.9-1.77,1.28-.29.18-.35.69-.14.98.16.22.29.47.48.66,1.46,1.41,2.62,3.05,3.78,4.71,1.1,1.57,2.32,3.07,3.47,4.61.49.65,1.12,1.22,1.29,2.06-.06.4-.24.7-.56.91-.24.16-.52.22-.78.09-.32-.17-.65-.35-.91-.6-.39-.38-.76-.8-1.07-1.25-2.29-3.32-4.64-6.59-7.19-9.72-2.25-2.77-4.42-5.61-6.96-8.14-.06-.06-.16-.09-.3-.17-.2.06-.47.08-.7.2-.41.2-.79.45-1.19.66-.2.1-.54-.05-.7-.29-.17-.24-.27-.5-.13-.76.17-.32.39-.62.62-.89.24-.28.48-.55.51-1-.6-.78-1.42-1.36-2.33-1.8-.21-.1-.58-.06-.78.08-1.98,1.32-3.94,2.66-5.9,4.02-.14.1-.19.3-.31.49.35,1.14,1.15,2.05,1.73,3.08.36.64.73,1.27,1.06,1.92.22.44.13.88-.1,1.31-.35.62-1.18.7-1.6.13-.22-.29-.42-.59-.61-.91-1.38-2.37-2.75-4.75-4.14-7.12-.13-.23-.37-.39-.61-.63-.42.12-.85.24-1.28.34-.36.09-.8-.12-.94-.41-.12-.27-.1-.54.06-.77.31-.45.65-.88,1.01-1.37-.61-1.24-1.21-2.46-1.98-3.6-.21-.32-.66-.39-.95-.13-1.23,1.1-2.46,2.2-3.68,3.31-.28.26-.4.6-.45,1.09.51,1.07,1.15,2.17,1.88,3.22.26.37.42.81.59,1.22.16.38,0,.7-.32.94-1.62-.3-2.51-.82-3.13-1.88-.27-.48-.44-1.01-.73-1.48-.12-.2-.41-.3-.62-.44-1.02.53-1.71,1.49-2.82,1.77-.4-.05-.74-.21-.77-.63-.02-.25.05-.56.19-.76.2-.3.5-.53.77-.77.41-.35.87-.68,1.28-1.03.45-.39.65-1.22.4-1.77-.37-.84-.74-1.68-1.34-2.39-.19-.23-.73-.38-1-.26-.33.16-.68.3-.97.51-4.06,2.98-8.22,5.83-12.22,8.9-.27.21-.44.68-.31.98.53,1.27,1.06,2.53,1.37,3.88,1.13,2.19,2.24,4.4,3.4,6.59.21.39.58.69.79.94.86.24,1.33-.32,1.9-.57.21-.09.33-.39.5-.62-.6-1.17-1.2-2.3-1.78-3.44-.26-.51-.33-1.05-.21-1.6.06-.26.2-.51.35-.72.27-.4.85-.43,1.21-.13.35.31.55.71.72,1.14.99,2.57,2.32,4.98,3.64,7.38.09.16.18.34.32.44.22.15.46.31.72.34,1.51.22,1.53.26.67,1.57-.34.51-.43,1.03-.12,1.54.86,1.41,1.43,2.96,2.03,4.5.13.33.18.7.27,1.05-.19.25-.35.47-.53.67-.16.17-.6.17-.77.03-.21-.18-.47-.33-.59-.55-.37-.63-.71-1.28-1.02-1.94-.35-.75-.65-1.52-1-2.26-.16-.32-.41-.59-.62-.86q-.53.23-.76.71.98,2.95,2.66,5.98c0,.51-.28.86-.7,1.1-.41.24-.99.24-1.29-.05-.27-.25-.55-.5-.74-.8-1.19-1.84-2.38-3.69-3.54-5.56-.38-.62-.67-1.3-1.01-1.95-.21-.4-.43-.8-.66-1.23-.32.05-.64,0-.83.14-.73.54-1.42,1.15-2.14,1.72-.29.23-.58.44-.88.65-.41.29-1.01.27-1.26-.02-.28-.33-.26-.89.1-1.23.98-.96,1.84-2.04,3.02-2.79.21-.13.32-.42.49-.67-.07-.27-.09-.55-.23-.77-1.93-3.12-3.6-6.37-5.07-9.74-.51-1.17-1.17-2.28-1.76-3.42-.76-1.46-1.54-2.91-2.27-4.39-.32-.65-.53-1.36-.81-2.03-.06-.15-.26-.24-.51-.45-.21.26-.39.56-.65.78-.2.17-.49.22-.77.08-.24-.12-.44-.43-.41-.65.08-.53.18-1.07.23-1.61.03-.31-.33-.63-.71-.68-.18-.02-.37.04-.54,0-.4-.08-.67-.56-.45-.84.98-1.2,1.27-2.59,1.26-4.11,0-.33.21-.69.36-1.01.14-.29.75-.42.97-.22.46.43.91.89,1.35,1.32.22-.03.44.01.56-.08,3.92-3.02,7.93-5.9,12.06-8.64.08-.05.15-.11.23-.16.26-.19.37-.7.22-.98-.56-1.06-1.23-2.04-2.06-2.9-.06-.06-.16-.08-.31-.14-.2.07-.48.12-.7.25-2.69,1.58-5.41,3.1-7.86,5.04-.21.16-.48.25-.73.37-.19.1-.54-.12-.64-.38-.18-.49.01-.9.31-1.26.17-.21.42-.35.64-.5,2.31-1.65,4.69-3.2,7.11-4.7.33-.2.58-.44.54-.96-.67-.98-1.39-2.04-2.13-3.09-.33-.48-.8-.58-1.45-.36-.26.09-.51.2-.75.29-.37-.09-.72-.18-1.09-.27-.8.21-1.48.68-2.17,1.11-2.48,1.56-4.95,3.15-7.44,4.68-.46.28-1,.44-1.52.59-.26.06-.51-.13-.67-.38-.13-.2-.05-.57.14-.75.86-.84,1.9-1.42,2.94-2.01,3.1-1.78,6-3.88,8.95-5.88.41-.28.44-.78.1-1.19-.12-.14-.24-.29-.37-.41-.21-.17-.44-.33-.64-.48-.21.04-.41.04-.56.12-2.39,1.15-4.78,2.31-6.95,3.88-.66.48-1.37.91-2.07,1.35-1.94,1.22-3.86,2.45-5.68,3.86-.5.38-1,.83-1.68.87-.15.01-.34-.12-.46-.24-.11-.13-.24-.34-.21-.48.06-.26.21-.5.35-.73.28-.46.91-.64.98-1.26.38.06.71-.07,1.02-.29,2.85-1.96,5.71-3.91,8.56-5.88.22-.15.37-.39.54-.59-.07-.05-.15-.1-.27-.19-.31.12-.67.2-.98.38-1.71,1.04-3.46,2.03-5.1,3.16-1.19.83-2.42,1.63-3.42,2.71-.19.2-.34.42-.32.71Z"/>
      <path class="cls-1" d="M293.59,118.85c-1.27.39-1.62,1-1.07,1.92.23.39.5.76.78,1.12.18.24.75.22,1,0,.44-.4.6-.82.42-1.2-.3-.66-.5-1.39-1.13-1.84h0ZM309.15,114c-3.42,2.42-6.77,4.79-10.11,7.15-.16.82-.31,1.61-.46,2.41.15.23.27.48.43.69.47.57.86.61,1.41.19.65-.5,1.32-.97,1.96-1.48,1.06-.85,2.15-1.68,3.01-2.72,0-.79-.02-1.51,0-2.23,0-.27.18-.5.44-.63.2-.11.54,0,.7.26.3.46.58.92.88,1.41h1.05c.13.18.31.31.32.45.02.36-.04.72-.05,1.08,0,.38.11.72.39.98.33.31.67.62,1.21.56.75-.28,1.43-.73,1.96-1.38.32-.38.42-.82.24-1.27-.76-1.86-1.73-3.61-2.92-5.23-.04-.06-.15-.08-.46-.24h0ZM282.28,120.93c.62.13,1.26.17,1.69.77.14.2.43.31.66.46.28-.1.56-.15.77-.29,1.14-.77,2.27-1.55,3.38-2.36.3-.21.53-.51.53-1.03-.12-.23-.26-.56-.44-.87-.26-.43-.79-.57-1.18-.33-1.55.96-3.11,1.92-4.65,2.9-.3.19-.6.42-.7.8-.07.04-.15.07-.21.12-.03.03-.01.1-.02.15.15-.01.21-.12.16-.33h0ZM300.08,127.95c-.37.17-.72.14-1.02-.13-.95-.86-1.94-1.67-2.64-2.78-.24-.37-.61-.66-.94-.98-.05-.05-.18-.08-.23-.05-.18.11-.26.29-.17.48.27.57.64,1.1.75,1.75.07.41-.12.92-.5,1.19-.34.24-1,.21-1.27-.1-.3-.34-.54-.73-.83-1.08-.17-.2-.38-.36-.58-.54-.77.37-1.49.75-2.24,1.04-.18.07-.52-.11-.71-.27-.28-.22-.3-.78-.1-1,.18-.2.36-.4.58-.57.37-.27.79-.48,1.12-.79.18-.16.23-.47.33-.71-.38-.76-.42-1.66-1.31-2.15-1.33.37-2.24,1.44-3.17,2.09-.38.48-.38.85-.4,1.22-.03.71-.46,1.17-.98,1.57-.39.3-.83.38-1.29.23-.35-.11-.67-.27-1.04-.42-1.08.3-1.85,1.24-3.04,1.41-.17-.09-.46-.16-.65-.33-.36-.33-.5-.76-.35-1.24.24-.74.68-1.3,1.5-1.44.27-.04.54-.08.8-.15.28-.07.47-.26.58-.53.12-.3.12-.33-.24-.97-.8.17-1.58.58-2.32-.06-.99.57-1.84,1.1-2.73,1.55-.31.16-.7.17-1.06.2-.32.02-.71-.32-.8-.64-.08-.31.06-.86.28-1,.93-.59,1.88-1.15,2.8-1.75,2.74-1.83,5.42-3.76,8.08-5.71.89-.65,1.8-1.27,2.74-1.84.46-.27,1-.44,1.53-.57.39-.1.73.16.92.47.13.2.22.56.13.76-.27.57-.65,1.09-.98,1.64-.21.34-.06.95.33,1.22.22.16.49.22.77.08.51-.27.88-.64.99-1.23.07-.35.16-.7.26-1.04.06-.2.53-.33.71-.25.6.27,1.06.71,1.5,1.29.15.63.25,1.37.51,2.03.27.68.76,1.25,1.17,1.76.27.03.47.11.62.07.26-.08.51-.21.74-.36,3.18-2.16,6.37-4.33,9.38-6.73.14-.12.27-.25.42-.4.11-.33.2-.68.32-1.02.13-.37.48-.69.8-.63.83.15,1.64,0,2.45-.07.09-.01.18.04.27.04.26.01.55.25.57.49,0,.17.03.4-.07.52-.23.28-.53.5-.77.77-.17.2-.29.45-.42.66,1.11,1.84,2.2,3.64,3.3,5.43.04.07.15.1.29.18.21-.06.47-.12.72-.23.42-.18.83-.39,1.24-.58.18-.08.61.07.72.27.14.24.22.5.09.77-.03.08-.07.17-.12.24-.17.22-.31.46-.51.64-1.51,1.37-1.31,1.68-.39,3,1.05,1.5,1.83,3.18,3.08,4.54.12.13.17.32.26.48.26.48.11,1.18-.3,1.5-.58.43-1.38.43-1.75-.03-.29-.35-.56-.73-.77-1.13-.8-1.54-1.57-3.11-2.38-4.65-.16-.31-.44-.56-.64-.81-1.52.5-2.19,1.03-4.07,3.21-.7.33-1.27.09-1.69-.48-.53-.75-1-1.53-1.5-2.3-.19-.28-.71-.35-.99-.15-.97.69-1.94,1.38-2.9,2.08-.86.63-1.8,1.67-2.78,2.99Z"/>
      <path class="cls-1" d="M183.38,105.46c-.47.03-.86-.23-1-.55-.12-.28-.07-.56.1-.77.58-.7,1.15-1.42,1.8-2.06.79-.76,1.62-1.48,2.5-2.15,1.96-1.49,3.96-2.96,5.96-4.4,3.26-2.36,6.45-4.81,9.52-7.42.77-.65,1.57-1.26,2.36-1.88,2.74-2.15,5.49-4.26,8.21-6.43,1.93-1.54,3.81-3.15,5.71-4.72,1.28-1.05,2.32-2.33,3.45-3.53.31-.33.66-.62,1.01-.91.25-.21.74-.2,1.04-.02.39.25.64.82.48,1.18-.15.33-.29.69-.53.95-.82.85-1.66,1.69-2.54,2.5-1.68,1.55-3.51,2.92-5.34,4.29-.22.17-.47.29-.68.47-3.07,2.76-6.49,5.05-9.73,7.59-1.08.84-2.14,1.71-3.19,2.6-3.42,2.9-7,5.6-10.66,8.19-2.55,1.8-4.9,3.82-7.03,6.11-.25.27-.51.52-.81.73-.22.15-.5.2-.62.24Z"/>
      <path class="cls-1" d="M228.86,98.19c-.04.17-.05.36-.13.52-.08.16-.21.31-.35.41-1.57,1.1-3.09,2.29-4.68,3.37-4.02,2.72-8,5.49-11.88,8.4-.36.28-.76.52-1.14.76-1.64,1.01-3.26,2.04-4.74,3.28-.49.41-1.06.72-1.57,1.11-1.47,1.09-2.93,2.2-4.4,3.29-.66.49-1.33.97-2.01,1.43-.39.27-.88.12-1.16-.34-.26-.43-.21-.96.15-1.24,2.61-2.01,5.22-4.02,7.94-5.88,4.76-3.26,9.47-6.59,14.16-9.94,1.41-1.01,2.71-2.19,4.02-3.32,1.19-1.03,2.5-1.85,3.93-2.48.35-.15.7-.19,1.07-.07.37.11.62.37.79.71Z"/>
      <path class="cls-1" d="M203.23,124.2c-.5,0-.92-.81-.64-1.27.14-.24.28-.48.48-.65,2.25-1.87,4.49-3.74,6.77-5.57,1.92-1.55,3.91-3.01,5.83-4.57,2.56-2.07,5.41-3.74,7.95-5.84,1.41-1.16,2.89-2.24,4.29-3.41.78-.65,1.59-1.23,2.51-1.65.43-.2.89-.17,1.28.16.29.24.4.72.2.98-.22.29-.43.6-.71.83-.63.53-1.3,1.01-1.96,1.5-3.65,2.75-7.3,5.49-11.13,7.99-1.53.99-2.96,2.15-4.38,3.3-2.98,2.42-5.98,4.82-8.8,7.43-.33.3-.76.51-1.16.72-.14.08-.35.04-.53.06Z"/>
      <path class="cls-1" d="M82.19,103.28c.23-.63.47-.9.83-1.03.44-.17,1.03,0,1.22.35.17.32.36.64.49.98.44,1.1.87,2.21,1.29,3.32.42,1.11.8,2.24,1.74,3.05,1.23,1.93,2.75,3.65,4.03,5.53,1.34,1.97,2.66,3.93,4.27,5.68.7,1.31,1.8,2.29,2.77,3.38.23.26.27.77.05,1-.26.27-.57.47-.97.41-1.04-.17-1.84-.78-2.56-1.49-.45-.45-.86-.95-1.25-1.46-1.21-1.6-2.41-3.21-3.6-4.81-.22-.29-.42-.61-.56-.94-.64-1.44-1.61-2.64-2.63-3.82-1.49-1.73-2.83-3.57-3.55-5.79-.47-1.47-1.23-2.85-1.58-4.37Z"/>
      <path class="cls-1" d="M355.59,105.49c0-.7-.02-1.43.01-2.15,0-.11.23-.23.38-.3.19-.08.39,0,.47.18.27.67.55,1.35.77,2.04.44,1.33,1.06,2.51,2.14,3.45.91.79,1.56,1.79,2.12,2.84.77,1.45,1.53,2.92,2.22,4.41.66,1.41,1.38,2.78,2.24,4.08,1.05,1.6,2.09,3.23,3.06,4.88.74,1.25,1.41,2.55,1.85,3.88-.07.18-.08.27-.14.35-.59.78-1.58.84-2.04.09-.47-.78-.95-1.56-1.3-2.4-.39-.94-.95-1.77-1.48-2.62-.91-1.48-1.97-2.87-2.82-4.38-1.17-2.06-2.46-4.06-3.29-6.31-1-1.53-1.46-3.33-2.53-4.85-.68-.96-1.1-2.1-1.66-3.19Z"/>
      <path class="cls-1" d="M215.5,123c-1.4.69-2.54,1.26-3.69,1.81-.55.26-1.17.06-1.42-.42-.2-.38-.09-.95.24-1.25.2-.18.39-.39.62-.54,5.05-3.45,10.09-6.9,15.16-10.33,1.44-.97,2.92-1.87,4.38-2.8.71-.46,1.49-.68,2.32-.74.26-.02.53.07.79.15.32.09.51.67.29.91-.24.26-.49.54-.79.72-1.09.66-2.22,1.27-3.31,1.93-1.56.95-3.1,1.94-4.64,2.9-.39.24-.8.44-1.18.7-1.79,1.26-3.6,2.5-5.35,3.81-1.24.93-2.48,1.87-3.42,3.15Z"/>
      <path class="cls-1" d="M55.47,106.23c-.06.16-.07.38-.19.47-1.98,1.48-3.96,2.96-5.97,4.4-2.68,1.92-5.42,3.75-8.06,5.73-2.42,1.81-4.82,3.64-7.08,5.65-1.09.97-2.28,1.84-3.45,2.72-.36.26-.8.43-1.21.62-.25.12-.73-.06-.97-.34-.2-.22-.2-.57-.01-.72.86-.68,1.75-1.33,2.6-2.01.92-.75,1.82-1.54,2.72-2.31.63-.53,1.24-1.09,1.9-1.58,2.13-1.59,4.27-3.15,6.41-4.73,1.03-.76,2.04-1.54,3.09-2.3,2.15-1.56,4.3-3.11,6.46-4.65.82-.59,1.7-1.1,2.67-1.39.24-.07.54-.04.79.03.13.03.21.26.31.41Z"/>
      <path class="cls-1" d="M266.93,15.2c-.06.17-.09.47-.25.66-.3.34-.66.63-1.02.9-1.04.75-2.11,1.45-3.14,2.2-.96.69-1.93,1.38-2.75,2.25-.25.26-.53.5-.83.72-2.21,1.62-4.24,3.46-6.35,5.2-1.26,1.05-2.48,2.16-3.74,3.2-1.33,1.1-2.67,2.21-4.01,3.31-.07.06-.16.09-.23.14-.27.17-.73.05-.96-.27-.15-.21-.16-.59,0-.76.38-.4.73-.81,1.14-1.17,2.28-1.98,4.57-3.93,6.85-5.9,2.14-1.85,4.27-3.71,6.4-5.57.21-.18.39-.38.61-.55,1.81-1.39,3.62-2.79,5.44-4.16.51-.39,1.07-.7,1.62-1.02.46-.27,1.2.19,1.22.81Z"/>
      <path class="cls-1" d="M276.75,57.51c-.07.16-.08.39-.2.49-.35.28-.73.55-1.13.74-.74.36-1.5.68-2.25.99-3.48,1.43-6.61,3.48-9.79,5.46-.62.38-1.25.76-1.88,1.13-2.06,1.19-3.94,2.64-5.81,4.1-1.09.85-2.22,1.59-3.52,2.07-.21.08-.66-.09-.68-.28-.02-.18-.02-.37.05-.53.06-.17.18-.32.31-.44.33-.31.68-.61,1.04-.89.73-.56,1.45-1.12,2.2-1.63,2.72-1.83,5.39-3.75,8.22-5.43,2.36-1.39,4.66-2.87,6.98-4.33,1.39-.88,2.83-1.66,4.36-2.27.33-.13.71-.17,1.06-.2.53-.06,1.08.5,1.04,1.02Z"/>
      <path class="cls-1" d="M346.97,126.31c-.35-.3-.48-.73-.23-1.18.32-.55.69-1.06.97-1.47.08-.73-.21-1.21-.45-1.7-.61-1.23-1.22-2.45-1.85-3.67-.34-.66-.53-1.35-.62-2.08-.06-.49.32-.9,1-1.01.56.38.69,1.06,1.07,1.56.33.44.71.84,1.02,1.29.21.29.35.64.45.99.34,1.05.79,2.02,1.4,2.89.26-.02.47.02.62-.06.55-.33,1.07-.7,1.6-1.05.56-.37,1.17-.49,1.83-.45.45.02.8.49.69.95-.08.38-.25.7-.57.9-.7.43-1.43.81-2.12,1.24-.21.13-.33.38-.55.64.85,1,1.67,1.96,2.49,2.94.18.21.32.44.47.67.22.34.14.96-.16,1.27-.31.32-.9.45-1.26.27-.24-.13-.48-.26-.69-.43-.62-.54-1.15-1.17-1.57-1.88-.33-.55-.66-1.11-1.28-1.39-.85-.02-1.28,1.12-2.27.75Z"/>
      <path class="cls-1" d="M277.38,59.41c.52.14.75.4.88.76-.14.47-.45.79-.86,1.03-2.29,1.34-4.59,2.67-6.87,4.02-1.18.7-2.37,1.39-3.48,2.19-1.42,1.02-2.9,1.93-4.38,2.83-2.58,1.58-5.23,3.04-7.62,4.9-.28.22-.65.34-.97.5-.22.11-.58,0-.74-.2-.25-.34-.26-.76,0-1,.2-.19.38-.4.61-.54.98-.67,1.95-1.37,2.98-1.97,4.57-2.71,8.96-5.71,13.41-8.61,1.54-.99,3.09-1.96,4.64-2.93.39-.24.8-.43,1.23-.6.42-.17.86-.28,1.18-.38Z"/>
      <path class="cls-1" d="M94.32,97.23c-.55.2-.97.37-1.4.52-.32.1-.75-.18-.83-.51-.21-.84-.01-1.5.7-1.87.75-.38,1.38-.9,2-1.42,2.86-2.42,5.82-4.69,8.84-6.9,1.18-.86,2.37-1.71,3.6-2.5.84-.54,1.75-.97,2.64-1.43.16-.08.35-.1.53-.14.38-.1.95.16,1.17.53.21.37.08.97-.3,1.21-.3.21-.6.41-.93.56-2.33,1.08-4.46,2.47-6.52,3.98-2.42,1.77-4.81,3.6-7.14,5.49-.42.34-.87.68-1.24,1.07-.38.39-.68.85-1.11,1.41Z"/>
      <path class="cls-1" d="M250.64,68.37c.16-.28.28-.64.52-.88.45-.45.94-.87,1.47-1.23,4.06-2.81,8.02-5.75,12.32-8.19,1.99-1.12,3.89-2.4,5.81-3.63,1.48-.95,3.07-1.6,4.76-2.05.19-.05.51.15.69.33.24.23.12.81-.13.98-.15.1-.29.23-.45.3-2.29.94-4.35,2.33-6.54,3.45-1.13.59-2.19,1.32-3.28,1.98-.31.19-.6.41-.93.57-3.27,1.66-6.1,4.01-9.23,5.89-1.23,1.1-2.66,1.92-4.02,2.84-.34.23-.68.05-.98-.35Z"/>
      <path class="cls-1" d="M195.64,68.27c-.41-.1-.72-.25-.77-.68-.05-.39.09-.74.38-.97,1.42-1.15,2.86-2.28,4.29-3.41.5-.39,1.04-.75,1.52-1.17,2.22-1.9,4.42-3.82,6.63-5.73,1.52-1.32,3.03-2.65,4.67-3.8.22-.16.47-.27.73-.37.36-.15.71-.06,1.05.11.3.16.42.73.2.95-.19.19-.37.41-.58.57-.79.62-1.65,1.16-2.38,1.84-2.48,2.3-5.17,4.35-7.73,6.55-1.31,1.13-2.73,2.14-4.09,3.21-1.08.84-2.14,1.71-3.22,2.54-.21.16-.48.25-.69.35Z"/>
      <path class="cls-1" d="M359.7,122.48c.32.06.68.12,1.02.21.26.07.52.15.77.25.33.13.49.62.31.91-.1.15-.21.3-.33.43-.34.35-.46.77-.44,1.25.02.54.06,1.09.07,1.64,0,.4-.46.91-.83.97-.39.05-1.04-.23-1.19-.53-.12-.24-.26-.49-.33-.74-.21-.7-.36-1.42-.61-2.1-.11-.33-.39-.59-.54-.82-.51-.07-.79.16-1.1.35-.23.14-.49.24-.77.37-.24-.08-.52-.13-.75-.26-.53-.3-.7-1-.32-1.39.44-.45.92-.87,1.39-1.31-.05-.29-.02-.59-.14-.81-.37-.73-.79-1.44-1.19-2.15-.37-.65-.56-1.35-.59-2.09-.01-.25.12-.52.26-.75.21-.38.91-.5,1.19-.23.26.25.55.51.7.83.95,2.08,2.25,3.95,3.46,5.98Z"/>
      <path class="cls-1" d="M53.32,112.74c-.08.15-.13.36-.25.46-.52.37-1.06.71-1.61,1.06-1.16.74-2.32,1.47-3.36,2.36-.56.47-1.18.87-1.8,1.26-2.91,1.77-5.45,4-7.96,6.27-1.02.92-2.04,1.84-3.09,2.72-.27.23-.64.33-.98.47-.2.08-.56-.1-.67-.35-.06-.16-.09-.37-.03-.51.1-.25.25-.49.44-.68.31-.33.67-.62,1.01-.93,1.37-1.21,2.75-2.41,4.11-3.64,1.57-1.42,3.31-2.6,5-3.84,1.84-1.35,3.73-2.64,5.58-3.98.75-.54,1.52-1.01,2.4-1.29.36-.12.73-.1,1.03.17.11.1.12.31.18.46Z"/>
      <path class="cls-1" d="M410.35,118.99c-.21.67-.75,1.04-1.32,1.33-.57.29-1.19.47-1.79.68-1.3.45-2.52,1.05-3.74,1.78-.11.63-.21,1.24-.32,1.89.2.19.38.38.57.57.62.61.67,1.07.11,1.61-.26.25-.56.47-.89.63-.33.16-.75.21-1.04-.06-.6-.58-1.26-.98-2.11-1.13-.64-.12-.91-1.03-.57-1.57.1-.15.2-.31.33-.43.41-.41.61-.88.64-1.46.04-.7.48-1.17,1.05-1.52.39-.24.8-.45,1.21-.65,1.4-.68,2.8-1.35,4.21-2.03.84-.41,1.73-.57,2.66-.45.49.06.83.33.99.81Z"/>
      <path class="cls-1" d="M438.63,127.42c.06.79-.42,1.31-.97,1.33-.47,0-.91-.11-1.26-.42-.21-.18-.41-.37-.57-.59-1.46-1.97-2.4-2.93-4.24-4.15-1.82-1.21-3.67-2.36-5.5-3.55-.3-.2-.61-.4-.86-.66-.18-.19-.28-.46-.35-.71-.14-.54.44-1.15.95-1.03.35.08.72.15,1.03.32,3.13,1.69,6.09,3.64,8.82,5.92.97.81,1.76,1.84,2.59,2.8.22.26.3.64.35.75Z"/>
      <path class="cls-1" d="M400.27,119.3c-.06.49-.13.93-.19,1.39-.59.78-1.17,1.6-1.8,2.37-.37.44-.9.6-1.48.53-.85-.1-1.43-1.1-1.04-1.84.26-.48.6-.92.81-1.42.57-1.33,1.59-2.21,2.83-2.86.97-.51,1.95-.99,2.93-1.48,1.46-.75,2.92-1.5,4.39-2.24.4-.2.82-.38,1.25-.52.36-.12.72-.03,1.04.17.38.23.51.93.2,1.19-.34.3-.68.62-1.08.82-1.3.66-2.63,1.27-3.94,1.92-1.3.64-2.6,1.31-3.93,1.98Z"/>
      <path class="cls-1" d="M232.25,114.73c-.05.18-.06.48-.21.68-.28.35-.62.68-.99.92-1.69,1.09-3.39,2.16-5.1,3.2-1.71,1.04-3.49,1.97-5.04,3.29-.47.4-1.11.6-1.69.86-.42.18-1,0-1.23-.34-.26-.38-.18-1.24.15-1.52.14-.12.27-.25.41-.35,2.18-1.5,4.4-2.94,6.74-4.19,1.04-.56,2.03-1.24,3.02-1.89.92-.6,1.91-1.07,2.94-1.45.35-.13.97.3,1.02.8Z"/>
      <path class="cls-1" d="M273.77,67.81c.01.39-.13.72-.44.95-.43.33-.87.67-1.35.93-4.41,2.4-8.69,5.04-13.03,7.57-1.42.83-2.87,1.6-4.31,2.39-.18.09-.65-.06-.74-.23-.1-.2-.05-.63.1-.76.07-.06.12-.14.19-.2.14-.12.27-.24.43-.34,3.74-2.3,7.47-4.59,11.21-6.89.86-.53,1.71-1.06,2.55-1.61,1.31-.85,2.68-1.58,4.14-2.1.46-.16.9-.07,1.25.29Z"/>
      <path class="cls-1" d="M423.64,123.98c.32.98.68,1.8,1.39,2.43.82.72,1.38,1.7,2.26,2.38.32.26.46.77.65,1.18.13.28-.13.73-.45.89-.46.21-.91.17-1.31-.07-.31-.18-.58-.44-.85-.68-.34-.3-.65-.65-.67-.66-1.03-.26-1.49.13-2.01.25-.26.06-.54.06-.81.05-.52-.03-.96-.79-.69-1.24.23-.39.55-.73.77-1.12.08-.13.09-.43,0-.5-.2-.16-.46-.3-.71-.3s-.54.13-.76.27c-.53.35-1.03.77-1.55,1.14-.33.23-.92.13-1.25-.2-.36-.36-.41-.85-.19-1.25.27-.5.65-.89,1.15-1.15.97-.52,1.95-1.01,2.94-1.5.42-.21.79-.18,2.07.07Z"/>
      <path class="cls-1" d="M189.18,88.58c-.07.16-.1.37-.21.48-.32.33-.64.66-1.02.91-3.65,2.44-7.22,4.98-10.77,7.56-.36.27-.78.47-1.18.69-.26.14-.53.06-.75-.11-.27-.21-.38-.76-.22-.99.22-.29.42-.61.7-.83,1.27-1.04,2.55-2.08,3.86-3.07,1.9-1.43,3.83-2.81,5.75-4.22.74-.54,1.53-1,2.42-1.26.48-.14.9.03,1.25.35.12.1.12.32.17.49Z"/>
      <path class="cls-1" d="M116.5,93.87c-.07.17-.08.4-.2.49-1.12.79-2.26,1.56-3.4,2.32-2.28,1.53-4.58,3.04-6.85,4.57-.6.41-1.13.93-1.72,1.36-.59.43-1.21.82-1.82,1.22-.28.18-.83.02-.97-.25-.12-.22-.09-.61.06-.77.12-.14.23-.3.37-.41.98-.82,1.95-1.67,2.97-2.44,2.56-1.93,5.15-3.82,7.73-5.72.74-.54,1.52-1.02,2.43-1.25.47-.12.92-.01,1.22.39.1.13.14.32.2.49Z"/>
      <path class="cls-1" d="M111.59,127.07c-.08.38-.58.71-.88.64-.27-.05-.56-.08-.77-.23-.53-.36-1.06-.73-1.5-1.19-2.04-2.1-3.9-4.34-5.67-6.67-.33-.43-.59-.92-.82-1.41-.21-.45-.07-.89.25-1.26.32-.37.71-.56,1.2-.45.17.03.36.11.48.23.19.19.37.41.5.64.92,1.81,2.26,3.32,3.67,4.74,1.3,1.31,2.3,2.83,3.37,4.3.14.2.13.5.17.66Z"/>
      <path class="cls-1" d="M395.1,116.06c1.19-.18,2.26-.63,3.29-1.28,1.86-1.18,3.79-2.23,5.84-3.03.34-.13.71-.17,1.06-.24.27-.05.74.28.85.56.12.3-.02.82-.28.99-.47.29-.92.6-1.4.86-2.58,1.39-5.16,2.79-7.76,4.13-.83.43-1.49,1.05-2.22,1.6-.47.35-1,.42-1.56.2l.04.04c-.21-.2-.41-.4-.61-.6l.05.06c-.02-.68.24-1.24.76-1.66.49-.4,1.04-.71,1.54-1.09.2-.16.32-.41.48-.61l-.08.07Z"/>
      <path class="cls-1" d="M300.45,90.92c.25.06.47.05.57.15.26.25.52.53.67.85.64,1.31,1.29,2.62,1.84,3.97.82,2.03,1.6,4.07,2.54,6.05.31.66.58,1.33.59,2.09,0,.57-.61.98-1.15.75-.52-.22-.98-.5-1.24-1.01-.21-.41-.42-.81-.59-1.24-.49-1.28-1.01-2.55-1.41-3.86-.56-1.84-1.17-3.65-2.07-5.35-.31-.58-.43-1.21-.21-1.85.08-.22.32-.39.46-.56Z"/>
      <path class="cls-1" d="M301.58,43.04c.17.05.35.07.51.14.17.07.33.17.46.29,1.95,1.77,3.87,3.57,5.59,5.58.18.21.36.42.49.66.59,1.12,1.17,2.25,1.73,3.4.12.24,0,.53-.2.74-.22.24-.75.29-1,.08-.21-.17-.44-.33-.58-.56-1.47-2.21-3.27-4.12-5.34-5.79-.99-.8-1.93-1.66-2.61-2.76-.39-.62-.03-1.55.7-1.75.08-.03.18-.02.27-.03Z"/>
      <path class="cls-1" d="M270.46,52.84c-.06.17-.07.37-.18.49-.18.2-.39.39-.63.52-.88.49-1.75,1-2.66,1.42-2.41,1.13-4.75,2.38-6.89,3.98-.58.44-1.22.81-1.87,1.15-.21.11-.53.04-.8.01-.18-.02-.41-.54-.31-.69.21-.29.39-.64.68-.84,1.91-1.41,3.75-2.95,5.84-4.11.73-.4,1.37-.9,1.88-1.58.27-.36.62-.68.99-.94.86-.64,1.84-.83,2.87-.53.33.1.62.37.88.62.12.11.14.33.2.49Z"/>
      <path class="cls-1" d="M277.85,113.81c.05-.25.11-.52.14-.78.06-.59.34-1.07.81-1.37.76-.5,1.56-.94,2.37-1.36.22-.12.56-.17.79-.09.87.29,1.71.65,2.55.99.39.16.67.68.59,1.14-.04.26-.15.52-.43.65-.08.04-.16.09-.25.09-2.02.12-3.61,1.17-5.07,2.44-.63.53-1.24,1.1-2,1.42-.22.09-.54.05-.78-.03-.27-.09-.47-.68-.38-.95.09-.26.16-.54.33-.74.41-.48.87-.92,1.33-1.4Z"/>
      <path class="cls-1" d="M308.72,61.51c-.05.77-.3,1.41-1.05,1.79-1.47.75-2.91,1.55-4.39,2.3-2.3,1.16-4.48,2.49-6.35,4.29-.13.12-.31.18-.47.28-.21.13-.56.1-.76-.07-.19-.16-.32-.54-.23-.74.11-.24.19-.54.38-.71.81-.74,1.62-1.5,2.5-2.15,1.99-1.48,4.13-2.72,6.26-3.99.08-.05.16-.09.24-.13,1.71-.91,1.79-.93,3.94-.79l-.07-.08Z"/>
      <path class="cls-1" d="M168.09,96.76c-.18-.12-.48-.21-.61-.41-.13-.2-.16-.52-.11-.76.05-.25.22-.5.4-.69.82-.85,1.6-1.75,2.5-2.51,1.74-1.46,3.54-2.84,5.34-4.23.35-.26.81-.41,1.23-.54.26-.09.53.02.73.24.24.28.34.75.18,1-.14.23-.26.5-.47.66-1.06.85-2.12,1.72-3.24,2.5-1.58,1.09-3.07,2.27-4.34,3.71-.29.33-.68.6-1.04.87-.14.1-.34.1-.57.17Z"/>
      <path class="cls-1" d="M214.19,59.56c.25.36.51.73.77,1.1-.53,1.35-1.75,1.49-2.84,1.78-.39-.1-.74-.2-1.08-.29-.74,0-1.09.64-1.65.91-.33.16-.67.24-1.05.2-.45-.06-.77-.63-.56-1.03.13-.24.24-.5.42-.7.3-.33.64-.65,1-.92,1.57-1.23,3.15-2.46,4.75-3.65.43-.32.94-.53,1.44-.74.24-.1.53-.04.73.21.24.3.26.73.09,1.01-.34.56-.9.88-1.4,1.27-.29.23-.56.45-.63.84Z"/>
      <path class="cls-1" d="M179.26,124.42c.05.36-.4.88-.83.95-.56.1-1.14.08-1.57-.29-1.76-1.46-3.48-2.96-4.58-5.02-.34-.64-.77-1.23-1.1-1.89-.21-.43-.11-.89.2-1.28.25-.3.6-.43.98-.35.26.05.5.2.72.35.14.09.27.26.34.42,1.18,2.44,3.06,4.29,5.08,6.02.21.18.41.37.56.59.1.14.13.33.19.5Z"/>
      <path class="cls-1" d="M381.97,120.06c.17.05.44.09.68.21,1.66.8,3.1,1.88,4.21,3.39.86,1.18,1.71,2.35,2.19,3.76.2.6-.34,1.31-1.03,1.29-.35-.01-.72-.09-1.05-.22-.35-.13-.67-.4-.66-.79.02-.79-.33-1.39-.75-2.01-.88-1.31-1.92-2.43-3.43-3.02-.52-.21-.95-.56-1.2-1.06-.16-.33-.21-.71.03-1.04.22-.32.54-.47,1.02-.51Z"/>
      <path class="cls-1" d="M59.16,107.61c-.55-.54-.42-1.16-.12-1.74.2-.4.51-.75.8-1.09.53-.63,1.05-1.24,1.3-2.06.16-.54.6-.91,1.07-1.2.93-.58,1.87-1.13,2.8-1.69.42-.26.9-.2,1.24.13.41.39.52,1.06.26,1.5-.05.08-.07.17-.12.24-.71.83-1.42,1.65-2.14,2.47-.12.13-.28.23-.43.33-1.26.75-2.35,1.71-3.41,2.71-.34.32-.73.55-1.24.41Z"/>
      <path class="cls-1" d="M161.13,111.36s-.61.32-1.03.22c-.65-.16-1.22-.47-1.63-.96-1.08-1.27-2.36-2.29-3.63-3.35-.71-.59-1.27-1.3-1.65-2.16-.21-.47.15-1.19.68-1.3.56-.11,1.14-.07,1.51.41.62.81,1.41,1.42,2.19,2.06.85.69,1.61,1.49,2.4,2.26.54.52.89,1.16,1.15,1.85.06.15,0,.35,0,.96Z"/>
      <path class="cls-1" d="M164.09,95.31c-.5-.07-.88-.85-.61-1.29.14-.24.27-.49.47-.65,2.33-1.88,4.71-3.71,7.19-5.39.37-.25.8-.42,1.22-.59.35-.14.71-.05,1.05.11.29.13.47.69.3.95-.15.22-.28.5-.49.64-1.59,1.06-3.02,2.33-4.66,3.32-.93.56-1.73,1.31-2.6,1.97-.43.33-.88.63-1.35.9-.13.08-.34.04-.52.05Z"/>
      <path class="cls-1" d="M264.44,23.39c-.07.17-.11.37-.23.49-.32.32-.64.65-1.01.92-1.03.75-2.09,1.47-3.14,2.21-1.78,1.26-3.6,2.49-5.1,4.12-.29.32-.76.49-1.16.69-.29.15-.77-.23-.75-.58.02-.26.02-.58.16-.77.38-.51.77-1.04,1.26-1.43,1.42-1.14,2.77-2.37,4.32-3.37,1.15-.74,2.18-1.66,3.28-2.47.36-.27.79-.46,1.2-.64.35-.16.98.18,1.11.58.03.08.03.17.05.25Z"/>
      <path class="cls-1" d="M39.2,128.67c-.07-.05-.21-.08-.21-.14-.02-.16-.06-.39.03-.46.89-.77,1.79-1.55,2.73-2.27,1.87-1.46,3.76-2.89,5.65-4.34,1.38-1.06,2.75-2.12,4.13-3.16.66-.5,1.36-.93,2.18-1.09.15-.03.39.06.48.17.08.1.02.32-.01.48-.02.08-.08.16-.14.24-.12.13-.23.29-.38.39-2.15,1.54-4.11,3.34-6.34,4.78-.38.24-.74.53-1.08.82-1.17,1.02-2.42,1.93-3.79,2.68-.95.52-1.8,1.23-2.72,1.83-.13.09-.34.06-.52.08Z"/>
      <path class="cls-1" d="M445.76,126.04c1.48,1,2.76,1.88,4.05,2.74.54.36,1.02.79,1.3,1.38.12.25.14.53-.02.78-.19.3-.66.5-.95.39-.42-.17-.88-.3-1.25-.55-.84-.55-1.67-1.13-2.46-1.75-.88-.69-1.83-1.2-2.91-1.47-.44-.11-.88-.25-1.29-.44-.33-.15-.62-.38-.91-.6-.29-.22-.43-.68-.31-.97.16-.42.66-.74,1.08-.68.27.04.55.07.8.15.96.32,1.9.67,2.88,1.02Z"/>
      <path class="cls-1" d="M116.54,123.38c.82.29,1.68.61,2.53.92.67.64,1.33,1.27,1.98,1.91.79.78,1.67,1.4,2.77,1.67.26.06.49.23.74.35.27.14.32.74.08.96-.27.25-.57.45-.94.5-.74.12-1.47.08-2.11-.33-.54-.34-1.07-.71-1.56-1.11-1.27-1.04-2.49-2.15-4.08-2.7-.08-.03-.14-.11-.22-.16-.55-.36-.56-1.19,0-1.64.2-.16.48-.23.8-.38Z"/>
      <path class="cls-1" d="M265.87,50.61c-.06.26-.06.47-.15.6-.26.37-.53.76-.86,1.05-.9.77-1.8,1.55-2.78,2.21-1.73,1.18-3.52,2.28-5.28,3.4-.39.24-.8.42-1.27.46-.22.01-.64-.19-.64-.38,0-.18,0-.38.09-.52.14-.23.33-.44.54-.6.87-.66,1.75-1.31,2.64-1.95,1.55-1.12,3.17-2.16,4.54-3.51.74-.72,1.68-1.09,2.69-1.21.15-.02.35.31.5.45Z"/>
      <path class="cls-1" d="M226.43,124.05c.03-.79.41-1.39,1.05-1.82,1.07-.71,2.15-1.38,3.28-2.1.13-.31.23-.66.41-.97.13-.23.31-.46.53-.6.38-.24.81-.41,1.23-.6.47-.2.89-.1,1.25.24.37.36.4.83.27,1.27-.1.34-.27.7-.52.94-.6.56-1.23,1.1-1.92,1.55-1.08.69-2.11,1.41-2.85,2.5-.32.47-.94.55-1.5.53-.61-.02-1.01-.37-1.22-.94Z"/>
      <path class="cls-1" d="M338.02,120.42c.23.06.48.06.56.17.61.91,1.48,1.63,1.91,2.66.36.86.86,1.61,1.55,2.24.2.18.34.42.51.65.51.71.37,1.63-.34,2.2-.3.24-.65.33-1.02.19-.62-.24-1.15-.62-1.45-1.21-.86-1.72-1.77-3.42-2.27-5.29-.09-.33-.06-.74.03-1.07.06-.22.36-.37.52-.53Z"/>
      <path class="cls-1" d="M261.39,81.48c-.29-.52-.5-.74-.52-.98-.02-.24.05-.58.21-.76.73-.81,1.5-1.58,2.45-2.15,1.31-.81,2.62-1.63,3.96-2.4.62-.36,1.29-.66,1.96-.93.23-.09.53-.03.8-.02.32.01.62.54.47.82-.08.16-.14.35-.26.47-.33.31-.66.62-1.04.87-.83.55-1.68,1.08-2.56,1.56-1.81,1.02-3.63,2.02-5.46,3.52Z"/>
      <path class="cls-1" d="M296.89,51.35c-.13.47-.45.79-.85,1.03-1.09.65-2.17,1.34-3.29,1.95-.81.44-1.52.99-2.17,1.64-.71.7-1.44,1.39-2.19,2.06-.27.24-.6.41-.93.56-.14.06-.35.02-.51,0-.16-.03-.39-.53-.33-.7.09-.25.16-.55.33-.73,1.81-1.8,3.65-3.56,5.7-5.1.89-.66,1.88-1.12,2.95-1.37.61-.15,1.07.06,1.29.68Z"/>
      <path class="cls-1" d="M61.59,108.87c-.23-.07-.33-.21-.27-.39.33-.98,1.02-1.72,1.79-2.33,1.35-1.07,2.71-2.12,4.27-2.88.32-.16.67-.28,1-.39.43-.15.98,0,1.24.32.28.34.11,1.1-.33,1.45-.07.06-.13.14-.21.17-2.04.84-3.73,2.21-5.46,3.52-.6.45-1.32.57-2.05.53Z"/>
      <path class="cls-1" d="M301.67,61.82c-.1.23-.13.43-.25.55-.18.19-.41.36-.64.49-2.21,1.28-4.33,2.68-6.24,4.38-.13.12-.31.18-.47.27-.24.15-.75.04-1-.21-.25-.26-.32-.75-.1-.99.43-.47.83-.98,1.33-1.36,1.53-1.14,3.1-2.23,4.68-3.31.37-.25.8-.43,1.22-.57.35-.12.74-.09,1.04.15.19.16.3.41.42.59Z"/>
      <path class="cls-1" d="M288.09,65.79c-.14-.28-.33-.51-.37-.76-.05-.37.11-.72.38-.99.26-.26.51-.53.82-.73,2.06-1.36,4.13-2.72,6.33-3.86.32-.16.69-.25,1.04-.36.27-.09.76.2.89.49.14.31.06.85-.15,1.03-.21.17-.41.37-.65.49-1.14.59-2.28,1.18-3.43,1.74-1.48.74-2.93,1.51-4.08,2.75-.15.15-.5.12-.78.18Z"/>
      <path class="cls-1" d="M406.42,125.88c-.47-.01-.82-.35-.89-.69-.09-.48.04-.9.32-1.27.11-.14.24-.29.4-.37,1.82-1.03,3.67-1.99,5.69-2.58.33-.1.71-.05,1.07-.02.28.02.48.22.61.47.12.21.02.59-.16.75-.14.11-.25.27-.41.35-.72.39-1.43.81-2.18,1.13-1.34.58-2.65,1.19-3.83,2.06-.2.15-.5.14-.62.18Z"/>
      <path class="cls-1" d="M287.49,61.77c-.09-.03-.19-.05-.25-.1-.68-.57-.73-1.35-.09-1.82.66-.49,1.33-.98,2.04-1.39,1.34-.79,2.7-1.55,4.07-2.27.41-.22.89-.18,1.31.07.28.16.46.72.29.96-.15.22-.29.49-.5.64-.67.48-1.32,1.03-2.06,1.34-1.61.68-3.14,1.47-4.55,2.49-.07.05-.17.05-.26.07Z"/>
      <path class="cls-1" d="M82.93,120.86c.06-.35.08-.62.15-.89.12-.46.41-.8.83-1.03.51-.28,1.22,0,1.29.54.03.27.05.54.05.81,0,.85.23,1.63.7,2.32.62.91,1.11,1.88,1.49,2.91.1.26.03.53-.18.74-.24.23-.76.36-1,.21-.31-.19-.63-.37-.88-.62-.95-1.01-1.49-2.29-2.13-3.48-.24-.46-.23-1.06-.32-1.52Z"/>
      <path class="cls-1" d="M262.97,85.21c-.15-.09-.34-.14-.43-.27-.21-.33-.18-.71,0-1.03.18-.31.39-.64.68-.83,1.37-.92,2.64-1.95,3.83-3.1.37-.36,1.08-.4,1.54-.14.38.21.57.88.31,1.18-.49.54-.93,1.15-1.51,1.57-1.31.98-2.67,1.91-4.16,2.62-.07.03-.18,0-.27,0Z"/>
      <path class="cls-1" d="M265.05,27.29c-.02.18.02.39-.08.52-.27.36-.57.71-.9,1.03-1.39,1.32-2.8,2.63-4.21,3.94-.2.18-.45.31-.68.45-.27.17-.86.06-.98-.23-.1-.24-.15-.53-.09-.78.06-.25.23-.51.42-.69,1.46-1.39,2.93-2.76,4.41-4.12.34-.31.75-.5,1.22-.58.34-.06.8.17.88.47Z"/>
      <path class="cls-1" d="M270.49,84.51c-.07.23-.09.52-.22.75-.22.39-.46.81-.77,1.12-.9.92-1.87,1.74-3.06,2.3-.38.18-.94-.11-1.07-.56-.13-.47-.06-.9.23-1.29.11-.15.22-.33.37-.4,1.25-.62,2.22-1.59,3.26-2.49.36-.31.96-.16,1.15.27.04.08.06.17.11.29Z"/>
      <path class="cls-1" d="M416.58,114.14c.02.6-.13.95-.44,1.15-.2.13-.51.14-.77.12-.16-.01-.34-.14-.45-.28-.56-.6-1.13-1.17-1.9-1.53-.6-.28-.93-.85-1.14-1.48-.13-.38-.05-.71.17-1.03.23-.33.67-.46.96-.29.08.04.18.06.25.12.98.81,1.99,1.6,2.94,2.45.24.22.33.62.4.76Z"/>
      <path class="cls-1" d="M236.67,123.83c-.05.17-.05.39-.15.5-.98,1.08-2.13,1.92-3.39,2.63-.43.24-1.09.05-1.45-.38-.25-.29-.36-.62-.23-1,.18-.54.51-1.02,1.05-1.16,1.14-.31,2.17-.86,3.26-1.28.42-.16.99.27.92.68Z"/>
      <path class="cls-1" d="M413.13,127.28c-.53-.08-.93-.26-1.22-.66-.23-.31-.23-.78.03-.99.21-.18.41-.39.64-.49,1.09-.46,2.19-.91,3.3-1.31.33-.12.72,0,1.01.27.26.25.37.73.18.99-.16.22-.32.47-.54.6-1.1.65-2.22,1.25-3.4,1.59Z"/>
      <path class="cls-1" d="M57.22,120.43c-.28.58-.64,1.09-1.12,1.52-1.08.95-2.04,2.03-3.32,2.76-1.01.58-1.86,1.43-2.8,2.15-.13.1-.33.12-.51.14-.06,0-.16-.07-.21-.14-.04-.05-.05-.17-.02-.21,2.05-2.32,4.39-4.3,6.99-5.97.08-.05.16-.1.25-.11.27-.03.54-.05.8-.06l-.06-.06Z"/>
      <path class="cls-1" d="M183.09,119.58c.28.12.58.18.76.35.71.69,1.39,1.41,2.07,2.13.18.19.12.76-.08,1.02-.28.36-.86.57-1.19.44-.17-.07-.36-.11-.49-.23-.65-.62-1.3-1.25-1.92-1.9-.33-.36-.25-1.15.15-1.48.19-.16.47-.22.7-.33Z"/>
      <path class="cls-1" d="M137.64,120.73c-.04.14-.05.44-.2.64-.6.8-1.39,1.38-2.3,1.81-.38.17-.95.05-1.23-.26-.38-.43-.42-1.1-.07-1.48.18-.19.36-.41.6-.52.73-.35,1.47-.66,2.22-.97.39-.16.94.22.97.78Z"/>
      <path class="cls-1" d="M139.09,124.23c-.43.01-.96-.79-.76-1.23.14-.32.34-.67.61-.87.66-.49,1.43-.8,2.23-.93.22-.04.55.13.7.3.15.18.15.49.19.75,0,.08-.05.17-.09.25-.64,1.1-1.64,1.69-2.88,1.73Z"/>
      <path class="cls-1" d="M71.3,105.21c-.01.16.03.36-.05.49-.15.22-.33.45-.56.59-1.89,1.11-3.65,2.41-5.56,3.48-.19.11-.41.05-.46-.14-.04-.15-.02-.37.07-.5.14-.23.34-.44.55-.6,1.37-1.07,2.73-2.15,4.37-2.8.41-.17.77-.47,1.16-.68.18-.1.36,0,.48.17Z"/>
      <path class="cls-1" d="M268.29,92.12c-.16-.07-.35-.11-.49-.21-.48-.35-.53-1.04-.11-1.4.07-.06.12-.14.19-.19.83-.57,1.75-.9,2.73-1.09.38-.07.82.53.71.94-.09.37-.31.63-.59.88-.7.62-1.56.86-2.45,1.07Z"/>
      <path class="cls-1" d="M266.7,32.53c-.11.22-.19.5-.37.68-.51.53-1.11.95-1.79,1.23-.39.17-.88,0-1.17-.45-.17-.25-.17-.54-.03-.77.54-.94,1.34-1.49,2.44-1.51.24,0,.52.15.72.3.12.08.13.31.21.51Z"/>
      <path class="cls-1" d="M131.94,119.63c.16.14.4.27.54.48.16.22.14.51-.03.74-.51.68-1.24.99-2.03,1.19-.39.09-.87-.19-1.06-.62-.2-.47.03-1.21.44-1.4.66-.32,1.37-.34,2.14-.38Z"/>
      <path class="cls-1" d="M146.17,124.07c-.2,1.01-.92,1.5-1.83,1.74-.31.08-.72,0-1.03-.12-.21-.09-.33-.38-.48-.56.05-.43.21-.78.54-.94.56-.27,1.16-.48,1.75-.69.41-.15.54-.07,1.05.58Z"/>
      <path class="cls-1" d="M57.2,126.85c-.08-.15-.24-.33-.21-.44.12-.33.26-.68.49-.94.73-.83,1.65-1.39,2.7-1.72.13-.04.38.06.46.18.07.1.02.32-.04.47-.07.16-.2.29-.33.43-.8.86-1.78,1.5-2.81,2.06-.06.03-.17-.02-.26-.04Z"/>
      <path class="cls-1" d="M237.9,127.73c-.17-.04-.35-.06-.52-.13-.44-.16-.63-.74-.4-1.11.46-.75,1.14-1.16,2.01-1.18.24,0,.52.15.7.33.19.18.23.48.09.75-.45.85-1.03,1.26-1.89,1.35Z"/>
      <path class="cls-1" d="M66.02,125.63c-.03.84-.6,1.26-1.26,1.61-.14.07-.56-.12-.68-.34-.08-.15-.11-.36-.07-.52.14-.47.55-.7.97-.87.35-.14.71-.15,1.03.12Z"/>
      <path class="cls-1" d="M57.29,120.49c.04-.33.24-.49.54-.57l-.06-.06c-.06.3-.28.46-.54.57l.06.06Z"/>
      <path class="cls-1" d="M57.83,119.92c.01-.23.09-.33.24-.31-.02.06-.02.14-.06.17-.06.04-.16.06-.24.08l.06.06Z"/>
      <path class="cls-1" d="M204.71,37.91c.48-.06.88.09,1.25.38.59.46.67,1.16.14,1.62-.81.71-1.63,1.41-2.45,2.12-.26.23-.75.26-1,.09-.41-.28-.61-.79-.42-1.17.2-.4.41-.81.7-1.14.58-.68,1.43-1.1,1.84-1.95l-.06.05Z"/>
    </g>
  </g>
</svg>