<?xml version="1.0" encoding="UTF-8"?>
<svg id="Layer_2" data-name="Layer 2" xmlns="http://www.w3.org/2000/svg" viewBox="0 0 57.23 28.86">
  <defs>
    <style>
      .cls-1 {
        fill: #753d22;
        fill-rule: evenodd;
      }
    </style>
  </defs>
  <g id="Layer_2-2" data-name="Layer 2">
    <g>
      <path class="cls-1" d="M24.4,6.65c.54.72.85,1.12,1.13,1.5-.09.29-.1.62-.25.77-3.31,3.01-6.66,5.99-9.98,8.99-1.56,1.41-3.09,2.87-4.69,4.25-.44.38-1.06.53-1.59.79-.63-1.18.09-1.68.61-2.19,3.04-2.94,6.09-5.85,9.13-8.78.54-.53,1.06-1.09,2.11-2.17-3.45,1.36-5.29,3.64-7.5,5.39-2.16,1.72-4.23,3.57-6.38,5.32-2.21,1.79-4.23,3.83-6.91,5.7,0-.9-.19-1.52.03-1.84.74-1.08,1.52-2.18,2.47-3.06,7.36-6.83,15.15-13.12,23.45-18.78.76-.53,1.58-.96,2.35-1.47,2.25-1.49,4.52-1.36,6.67.1,1.85,1.25,3.66,2.59,5.3,4.1,2.04,1.87,3.86,3.97,5.8,5.95,2.96,3.01,5.97,5.97,8.91,8.99.81.83,1.53,1.78,2.13,2.77.16.27-.18.97-.47,1.32-.14.18-.76.11-1.07-.04-.47-.22-.89-.57-1.27-.93-2.02-1.89-4.09-3.74-6.02-5.71-3.33-3.38-6.52-6.92-9.85-10.29-1.29-1.3-2.77-2.44-4.29-3.48-1.65-1.13-3.46-1.19-5.22-.11-1.45.9-2.88,1.84-4.59,2.93Z"/>
      <path class="cls-1" d="M12.08,26.67c-.38-.22-.67-.3-.78-.49-.12-.2-.16-.54-.06-.73,1.97-3.8,4.51-7.1,8.37-9.17.25-.13.84.03,1.02.26.15.19.06.85-.14.99-3.09,2.16-5.16,5.22-7.35,8.19-.29.39-.73.67-1.06.96Z"/>
      <path class="cls-1" d="M17.52,26.41c-.09-.32-.39-.8-.25-1.01,1.88-3.04,4.17-5.71,7.05-7.84.19-.14.5-.21.74-.18.24.02.52.15.66.33.13.18.24.61.15.69-2.83,2.5-4.7,5.93-7.89,8.07-.08.05-.23-.02-.46-.05Z"/>
      <path class="cls-1" d="M29.27,21.15c.01.26.13.58.02.75-1.09,1.64-2.19,3.27-3.39,4.83-.2.27-1.12.38-1.3.2-.28-.31-.44-1.09-.24-1.4,1.01-1.52,2.12-2.96,3.25-4.39.2-.25.69-.34,1.07-.38.18-.02.4.25.59.39Z"/>
      <path class="cls-1" d="M3.47,28.86c-.26-.48-.63-.9-.54-1.07.28-.54.68-1.08,1.15-1.45,1-.78,2.19-.83,2.3-.19.18.97-.62,1.33-1.2,1.77-.48.37-1.07.59-1.72.94Z"/>
      <path class="cls-1" d="M33.6,23.55c-.29.8-.37,1.5-.75,1.98-.24.3-.99.49-1.37.34-.34-.13-.74-.8-.69-1.18.08-.61.42-1.24.83-1.71.29-.33.92-.62,1.3-.53.32.08.49.75.68,1.09Z"/>
      <path class="cls-1" d="M25.31,11.2c.13.22.49.53.47.81-.07.79-1.04,1.45-1.69,1.2-.19-.07-.39-.39-.4-.61-.05-.83.65-1.47,1.62-1.41Z"/>
      <path class="cls-1" d="M38.75,24.87c-.83.33-1.29.7-1.61.6-.37-.11-.83-.61-.86-.98-.02-.28.65-.92.84-.86.48.15.86.62,1.63,1.24Z"/>
    </g>
  </g>
</svg>