<?xml version="1.0" encoding="UTF-8"?>
<svg id="Layer_2" data-name="Layer 2" xmlns="http://www.w3.org/2000/svg" viewBox="0 0 268.23 87.5">
  <defs>
    <style>
      .cls-1 {
        fill: #5c3827;
        fill-rule: evenodd;
      }
    </style>
  </defs>
  <g id="_Layer_" data-name="&amp;lt;Layer&amp;gt;">
    <g>
      <path class="cls-1" d="M210.67,83.81c.25.1.39.08.37-.06-.01-.03-.17-.05-.27-.05-.03,0-.06.07-.1.11h0ZM212.32,81.87c-.03-.05-.06-.16-.08-.16-.33,0-.4.1-.2.22.06.04.19-.03.29-.05h0ZM175.91,78.15c-.22.12-.3.3-.22.53.04.08.16.18.24.18.22,0,.36-.13.3-.35-.04-.14-.22-.25-.32-.36h0ZM126.83,40.97c-.07-.07-.13-.2-.2-.2-.18.02-.37.1-.55.16.07.07.15.2.22.19.19-.02.36-.09.54-.15h0ZM45,58.84c.24.12.38.09.36-.09,0-.03-.17-.06-.25-.06-.04,0-.06.09-.11.14h0ZM48.12,58.26c-.16-.05-.31-.13-.48-.16-.06-.01-.13.11-.2.16.16.06.32.14.48.17.06,0,.13-.11.2-.17h0ZM144.59,65.89c-.09-.18-.17-.35-.3-.5-.05-.07-.26-.1-.26-.09-.09.18-.22.38-.19.54.04.24.27.31.49.21.09-.04.18-.11.26-.16h0ZM166.46,77.98c.16-.11.37-.17.49-.32.15-.21.06-.4-.17-.47-.19-.07-.39-.15-.58-.14-.18.02-.36.14-.53.21.08.16.12.37.26.48.13.13.35.17.53.24h0ZM175.02,81.74c-.2-.22-.33-.51-.56-.62-.36-.18-.77-.13-1.12.14.64.94.63.94,1.68.48h0ZM173.79,77.93q-2.4-.49-3.5.07c.06.07.1.18.18.2.98.3,1.99.37,2.99.1.13-.03.22-.24.33-.38h0ZM157.42,35.01c-.32.18-.61.3-.86.48-.13.1-.29.33-.27.46.04.17.23.36.4.43.53.21,1.02.13,1.45-.25.18-.18.19-.41,0-.58-.22-.2-.47-.35-.72-.54h0ZM217.97,84.55c1.23.02,2.46.05,3.69.07.09,0,.18-.1.27-.15q-1.08-.37-3.95.09h0ZM141.69,65.18c-.24-.08-.51-.27-.78-.27-.52,0-1.01.42-1.08.9-.03.17.07.41.18.55.29.36.89.32,1.37-.02.4-.28.4-.67.3-1.15h0ZM123.51,47.74c.24-.07.58-.09.82-.26.42-.3.8-.68,1.15-1.07.09-.1.05-.36.02-.55-.01-.08-.16-.16-.25-.18-1.02-.19-1.86.11-2.52.94-.15.21-.09.68.14.83.18.1.37.18.64.3h0ZM141.62,35.22c-.29-.72-.65-1-1.07-.9-.8.18-1.58.45-2.24.97-.06.04-.09.22-.04.28.1.14.25.35.39.35,1.04,0,2.01-.3,2.96-.7h0ZM136.37,38.96c-.32-.16-.41-.24-.51-.24-1.48-.03-2.56.72-3.45,1.82-.05.05-.04.2,0,.28.05.08.16.19.24.19.2-.02.42-.04.6-.15.99-.56,2.09-.96,3.12-1.89h0ZM135.01,65.78q-.69.95,0,1.89c.44.15.8-.11,1.18-.25.39-.15.77-.33,1.13-.53.17-.1.28-.29.45-.46-.73-1.12-1.75-.91-2.75-.64h0ZM145.22,39.81c-.96-1.06-1.43-1.41-2.18-1.63-.1-.03-.23-.05-.31-.01-.71.23-1.41.5-1.54,1.37.26.53.72.82,1.27.78.93-.07,1.9-.03,2.77-.51h0ZM68.54,56.3c-.21.03-.45,0-.63.09-1.16.54-2.15,1.33-3.15,2.11-.06.05-.08.21-.06.3.02.07.11.16.19.17,1.34.4,2.51.03,3.57-.8.23-.18.41-.49.5-.78.13-.43-.08-.81-.42-1.1h0ZM160.69,73.72c.33-.39.74-.86,1.12-1.35.29-.37.08-.93-.35-.95-1.14-.04-2.26-.28-3.41-.23-.11.01-.33.33-.3.48.04.29.15.65.36.82.56.46,1.19.85,1.83,1.23.15.09.41,0,.75,0h0ZM39.82,63.5c.54-.46,1.04-.85,1.51-1.28.23-.21.45-.44.42-.8-.02-.21-.35-.4-.75-.39-.74.05-1.48.1-2.06.14-.97.54-1.77,1.06-2.36,1.83-.06.07-.06.21-.04.3.02.07.11.16.18.18.94.24,1.88.25,3.1.01h0ZM120.74,42.14c.8.48,1.82.35,2.12,1.35-.92.95-2.04,1.53-3.2,2.04-.59.25-1.54-.41-1.59-1.13,0-.19.06-.41.15-.58.09-.18.26-.34.41-.46.17-.13.37-.21.55-.32.46-.27.92-.52,1.56-.91h0ZM133.13,45.3c-.46-.39-1-.35-1.5-.21-1.67.47-3.13,1.3-4.26,2.64-.12.13-.12.39-.12.58.02.27.4.45.73.44.55,0,1.07-.14,1.51-.46,1.19-.88,2.36-1.79,3.53-2.7.07-.05.07-.19.12-.29h0ZM25.95,72.92c-.07-.22-.12-.41-.21-.58-.05-.07-.17-.15-.26-.15-.32-.03-.63-.08-.94-.02-1.67.3-3.15,1.03-4.51,2.03-.08.06-.13.16-.17.26-.02.09-.04.21,0,.31.02.07.11.15.18.18.93.24,1.86.08,2.79-.03.21-.03.42-.11.59-.2.91-.5,1.85-.95,2.53-1.78h0ZM136.45,50.29c-1.68.26-3.47-.42-5.05.75-.02.12-.07.22-.04.29.07.19.14.41.29.54.62.56,1.29,1.06,2.2,1.3,1.14-.41,2.1-1.14,2.66-2.32.05-.09-.01-.21-.05-.56h0ZM213.87,49.31c-.83-.34-1.41-.75-1.98-.75-.76,0-1.45-.17-2.17-.3-.82-.15-1.39.34-1.46,1.23-.06.75.42,1.35,1.07,1.22,1.97-.37,3.97-.5,5.97-.69.1,0,.19-.09.29-.12.27-.07.44-.42.36-.76-.12-.49-.53-.71-.93-.5-.37.2-.72.42-1.13.67h0ZM42.78,71.3c-1.71.65-2.95,1.63-4.19,2.61-.07.05-.12.23-.08.28.1.15.23.35.37.38,1.17.22,2.35.22,3.4-.36,1.3-.71,2.52-1.53,3.77-2.31.08-.04.13-.24.09-.28-.11-.14-.27-.32-.41-.32-1.05-.02-2.1,0-2.95,0h0ZM136.95,71.15c2.57-1.08,5.32-1.12,8.06-1.15.42,0,.85.02,1.27-.03.19-.02.41-.13.54-.28.13-.13.26-.36.25-.55-.02-.15-.24-.38-.38-.39-2.23-.24-4.44-.09-6.66.04-1.3.08-2.5.41-3.69.86-.25.1-.37.55-.16.8.19.23.45.41.77.7h0ZM159.31,65.89c-.09-.04-.19-.1-.29-.11-2-.12-3.97.34-5.96.45-.54.03-.96.38-1.29.83.01.1,0,.21.03.29.55,1.11,1.51,1.72,2.66,2.04.28.08.68.05.9-.11,1.28-.91,2.54-1.86,3.78-2.82.13-.1.12-.38.17-.58h0ZM35.97,65.81c-2.59-.37-3.45-.21-5.12.96-.69.48-1.4.95-2.06,1.46-.42.32-.8.69-1.15,1.09-.1.1-.03.36-.06.63.42.02.84.05,1.24.04.53-.01,1.05-.06,1.43-.1,1.95-.97,3.59-2.1,5.2-3.3.23-.18.33-.5.5-.79h0ZM28.32,74.49c1.22.21,2.28.13,3.32.15.42,0,.85-.02,1.26-.07.31-.05.64-.11.9-.27,1.19-.68,2.37-1.37,3.37-2.32.06-.06.05-.22.02-.31-.02-.07-.1-.16-.17-.17-1.48-.2-2.95-.09-4.4.15-.61.1-1.23.35-1.77.64-.56.29-1.05.7-1.55,1.08-.33.24-.76.39-.97,1.13h0ZM41.52,69.27c-4.11.39-4.27.39-5.61-.06.62-.95,1.09-1.3,4.85-3.58,1.5-.13,3.08-.12,4.78.05-.17.36-.23.69-.43.86-1.17.92-2.36,1.81-3.59,2.73h0ZM18.56,81.34q1,.38,3.13.16c.38-.22.81-.56,1.29-.74,2-.75,3.67-2.06,5.5-3.12.17-.1.36-.26.44-.44.06-.14-.01-.36-.03-.62-.41-.01-.83-.04-1.24-.03-.95.02-1.9.06-2.89.08-2.04,1.47-4.31,2.61-6.13,4.4-.06.06-.04.2-.06.31h0ZM61,76.57c-1.01.45-1.85.92-2.51,1.63-.72.79-1.54,1.44-2.4,2.08-.08.06-.17.14-.2.23-.05.19-.14.42-.08.59.06.16.26.35.43.39,1.16.32,2.32.12,3.4.05.92-.72,1.76-1.36,2.57-2.02.9-.73,1.97-1.28,2.65-2.19-.01-.41-.13-.74-.48-.75-1.06-.03-2.12-.01-3.37-.01h0ZM9.26,82.17c-1.35.17-2.2.28-3.05.38-.2.01-.44,0-.61-.1-.16-.09-.28-.29-.38-.47-.03-.06,0-.2.06-.26.5-.62,1.2-.97,1.95-.99,2.35-.04,4.32-1.03,6.2-2.3.35-.24.7-.48,1.08-.68.85-.45,1.74-.8,2.74-.7.63.06,1.26.1,1.9.16.06,0,.14.12.16.19.02.1,0,.22-.04.31-.04.1-.1.19-.2.25-1.38.98-2.77,1.96-4.19,2.9-1.27.84-2.68,1.3-4.22,1.32-.64,0-1.27,0-1.41,0h0ZM153.62,42.29c1.72.2,3.63.1,5.52-.11.63-.08,1.25-.22,1.88-.34.2-.04.48-.54.44-.78-.12-.65-.43-1.19-1.04-1.65-2.36-.82-4.93-.73-7.47-.82-.49-.02-1,.28-1.48.5-.26.11-.54.3-.43.77.36.28.8.57,1.19.92.46.43.54,1.17,1.39,1.51h0ZM55.77,77.34q-2.06,1.8-3.59,4.08c-.32.06-.72.2-1.12.2-1.89-.02-3.79-.07-5.68-.13-.15,0-.39-.19-.42-.32-.02-.18.07-.43.2-.56,1.63-1.71,3.73-2.72,5.81-3.74.46-.22,1.01-.32,1.53-.32.94-.03,1.89.03,2.83.11.35.03.46.34.45.69h0ZM206.16,56.06c.11.12.17.27.23.26,1.36-.11,2.71.14,4.07-.23.7-.19,1.46-.15,2.21-.18,1.59-.07,3.18-.12,4.77-.19.41-.02.83-.12,1.24-.2.31-.06.55-.47.43-.72-.29-.69-.62-1.34-1.36-1.92-.9-.12-1.95-.19-2.98-.41-1.16-.25-2.31-.2-3.48-.06-.73.09-1.47.18-2.2.29-.4.06-.8.19-1.18.28-.29.54-.53,1.02-.78,1.48-.32.55-.65,1.08-.95,1.6h0ZM248.2,83.87c-.18-.89-.61-1.36-1.17-1.33-.52.03-1.02.19-1.57.08-1.66-.35-3.32-.69-4.99-.94-1.68-.26-3.36-.48-5.05-.56-1.8-.1-3.61-.07-5.42-.03-2.87.08-5.72.22-8.59.32-1.92.06-3.83.09-5.73.15-.38.01-.8-.03-1.11.29.21.06.41.16.61.17,1.17.06,2.33.07,3.5.13,1.28.06,2.56.02,3.81.23,1.59.26,3.17.31,4.76.38,1.81.07,3.63-.01,5.41.24,2.76.38,5.5.4,8.26.52,1.17.05,2.33.19,3.49.29.53.04,1.07.09,1.59.1.73,0,1.46-.02,2.21-.03h0ZM47.11,61.13c-.83.6-1.7,1.21-2.55,1.84-.07.04-.11.17-.12.28-.03.18.09.33.34.4.85.19,1.68.22,2.48-.19.48-.24.96-.44,1.43-.65.73.31,1.41.59,2.13.89.28.02.6.06.91.06,3.6-.04,7.21-.06,10.81-.12,1.27-.03,2.54-.11,3.81-.2.54-.03,1.01-.26,1.41-.65.28-.28.28-.88-.06-1.12-.25-.18-.55-.4-.83-.41-2.32-.07-4.65-.09-6.72-.13-1.35.44-2.46.81-3.57,1.15-.19.06-.42,0-.73,0-.54-.36-1.16-.76-1.68-1.11-1.69-.19-3.27-.35-5.01-.55-.56.13-1.28.3-2.04.49h0ZM42.33,81.27c-.09.04-.19.13-.29.13-4.79.02-9.58.04-14.37.03-.16,0-.45-.17-.45-.27,0-.18.14-.38.25-.55.06-.09.16-.14.25-.2,1.71-1.07,3.42-2.16,5.13-3.22,1.04-.64,2.18-.84,3.38-.63.35.06.48.3.46.66-.76.73-1.56,1.44-2.26,2.22-.29.33-.22.8.24,1.19.33-.11.75-.18,1.11-.37.75-.4,1.46-.87,2.19-1.3,1.28-.75,2.59-1.47,3.96-2.06,1.13-.48,2.25-.51,3.42-.24.08.02.22.11.22.17,0,.2.03.45-.07.59-.17.26-.41.5-.67.66-1.05.64-1.74,1.54-2.14,2.69-.06.18-.24.32-.38.49h0ZM165.4,50.58c-.6.05-1.13.21-1.63.11-2.83-.57-5.71-.43-8.56-.49-2.97-.05-5.95-.07-8.92-.09-1.28,0-2.55.05-3.89.23-1.07.57-2.2,1.16-3.32,1.76-.18.1-.35.24-.52.36-.28.18-.43.63-.26.8.14.15.29.35.47.4,1.15.3,2.32.21,3.48.08.97-.1,1.85-.43,2.54-1.17.52-.53,1.03-1.06,1.74-1.38.56-.25,1.51-.02,1.7.9.08.39-.18.85.34,1.24.38.28.93.18,1.45.17,5.42-.07,10.83-.14,16.23-.22.21,0,.44-.07.59-.2.12-.12.12-.36.19-.62-.53-.6-1.08-1.23-1.63-1.87h0ZM145.97,48.02c.37.11.58.23.77.22,4.14-.04,8.28-.1,12.43-.15,1.48-.02,2.95-.25,4.41-.45.24-.04.36-.29.28-.49-.22-.6-.42-1.2-.71-1.75-.26-.48-.73-.77-1.29-.84-.2-.03-.42-.04-.63-.04-4.77-.08-9.55-.18-14.34-.2-2.65-.01-5.3.11-7.88.29-1.66,1.12-3.44,1.87-4.76,3.21,0,.43.15.77.47.77,1.49-.05,2.97-.14,4.44-.23.64-.04,1.27-.12,1.94-.18.91-.73,1.79-1.5,2.75-2.17.31-.23.8-.27,1.2-.27.58-.01,1,.32,1.23.92-.08.36-.17.77-.3,1.36h0ZM194.78,79.59c.51.05.92.09,1.34.15,1,.15,1.89-.1,2.75-.59.17-.1.41-.1.61-.13q2.41.76,4.98.68c.85-.03,1.71-.05,2.56-.06,7.34-.08,14.69-.15,22.03-.24.64,0,1.28.02,1.91-.05,2.55-.27,5.09-.23,7.64,0,1.37.12,2.77.06,4.15.05.17,0,.39-.17.48-.32.09-.16.12-.44.03-.58-.57-.91-1.26-1.7-2.33-2.12-3.91.12-7.85.25-11.79.07-2.55-.12-5.1-.12-7.66-.17-.75-.02-1.48-.02-2.24,0-3.08.03-6.16.08-9.25.12-1.48.02-2.97.04-4.46.03-2.02-.01-4.04-.13-6.07-.04-2.11.09-4.26-.03-6.35.53-2.55.09-5.05.7-7.61.67-1.28-.02-2.55.13-3.82.22-.57.04-1,.35-1.26.85-.09.17-.15.42-.09.59.05.16.28.36.43.36.84.03,1.71.08,2.56,0,.83-.09,1.65-.32,2.54-.5,1.55.82,3.24.69,4.9.54.5-.33.93-.64,1.38-.92.77-.48,1.32-.43,2.02.18.23.2.41.48.6.7h0ZM150.51,60.1c-.05-.62.54-.88.77-1.35.19-.38.12-.85-.18-1.16-.33-.34-.77-.44-1.17-.31-.4.12-.78.34-1.11.6-.92.72-1.8,1.5-2.72,2.22-.24.19-.59.25-.89.32-.2.04-.41-.02-.63-.03-.19-.09-.42-.14-.58-.27-.71-.62-1.41-1.27-2.16-1.94.14-.35.17-.73.39-.88.84-.64,1.75-1.21,2.61-1.79,1.02-.05,1.97-.13,2.92-.13,7.68,0,15.35-.19,23.02.13.31.02.64-.03.95-.07.35-.03.58-.22.74-.51.17-.34,0-.95-.31-1.16-.27-.17-.55-.32-.83-.45-.29-.14-.61-.22-.85-.41-.13-.09-.24-.43-.18-.51,2.1-2.58,3.61-5.52,5.1-8.47.47-.94,1.06-1.85,1.65-2.72.15-.23.51-.33.73-.47,1.04.29,1.72.98,2.36,1.69,1.53,1.68,3.4,2.89,5.32,4.05.87.52,1.77.72,2.74.7,1.19-.03,2.33-.25,3.26-1.09.13-.12.39-.09.72-.15.67.55,1.46,1.1,2.12,1.78,1.79,1.84,3.89,3.3,5.78,5.03.39.36.84.65,1.24,1.01.47.43.87.94,1.37,1.33.49.39,1.07.67,1.65,1.02.32.53.65,1.07.96,1.6.21.07.41.2.6.2,1.81.02,3.63.09,5.43-.02,2.88-.17,5.75-.08,8.62.04,1.48.06,1.61.16,3.02,1.47-.01.36-.19.64-.53.64-1.92-.03-3.83-.12-5.75-.14-1.71-.02-3.4-.02-5.09.32-.72.14-1.49.05-2.24.14-.29.03-.59.23-.81.44-.23.21-.36.51-.25.86.1.29.42.6.67.6.73-.04,1.5.03,2.21-.15,2.12-.53,4.24-.36,6.36-.15,1.49.15,2.97.33,4.45.5.53.06,1.06.13,1.58.23.71.15,1.42.33,2.22.51-.18.2-.28.4-.39.41-.75.09-1.48.14-2.23.18-2.55.16-5.1.3-7.65.47-.69.05-1.19.4-1.52,1.01.06.21.13.41.18.61,1.99.41,3.07.48,4.37.18.52-.12,1.03-.19,1.58-.15,3.29.24,6.58.45,9.64.26,1.07.36,1.82.76,2.38,1.44.21.26.25.54.02.94-1.1.14-2.25,0-3.42-.11-1.48-.13-2.97-.21-4.46-.31-1.52-.11-2.96.21-4.39.63-.4.12-.72.62-.62.98.1.38.58.84.88.84.21,0,.44.06.63,0,2.3-.74,4.64-.58,6.96-.15,1.27.23,2.54.28,3.82.33,1.49.06,2.97.21,4.37.71.51.4,1,.76,1.24,1.44-.64-.12-1.23-.26-1.84-.33-.74-.09-1.48-.14-2.23-.18-.64-.04-1.28-.04-1.92-.1-.63-.06-1.26-.24-1.89-.25-1.06-.03-2.13-.02-3.19.08-.77.07-1.41.46-1.66,1.3-.22.74-.82.91-1.49.92-2.66,0-5.32,0-7.99.02-5.96.04-11.93.1-17.9.14-1.17,0-2.33.06-3.5.32-.62.14-1.27.13-1.9.2-2.22.22-4.46.16-6.67.58-.62.12-1.28.08-1.91.07-2.24-.04-4.47-.09-6.71-.16-.64-.01-1.28-.09-1.74-.61.09-.41.18-.81.28-1.24-.22-.25-.37-.54-.62-.72-.46-.32-1-.44-1.5-.12-.89.58-1.72,1.26-2.62,1.82-.34.21-.81.39-1.19.35-1.37-.18-2.72-.44-4.07-.73-.23-.05-.38-.43-.59-.68.73-.91,1.7-1.36,2.77-1.97.7-.02,1.54-.07,2.39-.08,7.14-.05,14.29-.09,21.42-.16,2.76-.02,5.54-.11,8.3-.16.43,0,.87,0,1.28-.07,1.59-.29,3.16-.17,4.77-.01,2.01.21,4.03.17,6.05.22.18,0,.37-.19.55-.29.12-.45.02-.83-.35-1.12-.86-.7-1.83-1.15-2.95-1.06-1.38.12-2.76.03-4.14.16-2.65.24-5.31.27-7.98.34-2.66.07-5.33-.04-7.97.42-1.59-.21-3.18.03-4.78.06-4.79.12-9.59.09-14.31-.01-.26-.12-.49-.17-.64-.31-1-.95-2.05-1-3.18-.25-.95.63-2.01.68-3.08.48-.62-.12-1.23-.3-1.83-.47-.07-.02-.15-.14-.16-.22,0-.09.02-.23.09-.3.23-.21.46-.44.73-.59.55-.32,1.14-.57,1.62-.81.3-.56.56-1.03.85-1.59.49-.03,1.01-.11,1.54-.11,4.8,0,9.6.01,14.39.03.53,0,1.06,0,1.58.1,2.95.54,5.94.41,8.9.57.22.01.43-.04.64-.08.57-.1.94-.46,1.13-1.06-.15-.22-.28-.58-.52-.71-.94-.5-1.93-.86-3.04-.85-6.82.06-13.63.08-20.46.11-.86,0-1.71,0-2.56.02-2.44.08-4.9-.11-7.33.3-.72.12-1.48.02-2.31.02-.12-.04-.34-.07-.51-.19-1.77-1.33-1.78-1.35-3.54-.17-1.07.71-2.2.76-3.35.38-.62-.21-1.05-.71-1.1-1.43.18-.1.34-.27.52-.29,2.65-.3,5.3-.54,7.96-.59,3.73-.06,7.47-.09,11.19-.3,2.35-.14,4.68-.27,7.02-.22.64.01,1.29-.03,1.92.07,2.96.48,5.95.31,8.93.37.22,0,.43-.05.63-.07.48-.05.99-.56,1.04-1.05.05-.45-.4-1.02-.94-1.15-.41-.1-.83-.2-1.24-.22-1.7-.03-3.41-.06-5.12-.05-2.45.02-4.9.05-7.35.09-.53,0-1.08-.05-1.59.05-2.43.44-4.89.32-7.34.42-2.12.09-4.25.25-6.38.35-1.91.08-3.82.1-5.73.14-.09,0-.16-.09-.24-.13h0ZM138.35,61.37c-.6.42-1.12.29-1.57-.03-1.38-1-2.72-2.04-4.09-3.07-.33-.26-.62-.6-.99-.79-.36-.19-.79-.29-1.2-.35-.64-.1-1.33.57-1.24,1.15.02.11.05.21.06.31.17,1.06.76,1.99.94,3.03.19,1.06.52,2.05,1,3.02.6,1.18.51,2.48.57,3.75.02.23-.33.48-.49.7-.73-.19-1.18-.65-1.59-1.13-1.77-2.06-3.99-3.51-6.44-4.61-1.37-.62-2.61-1.41-3.81-2.32-1.36-1.03-2.88-1.77-4.64-1.98-1.37-.16-2.73-.41-4.12-.44-1-.03-1.9.17-2.69.79-.33.26-.69.48-.89.62-1.77-.1-3.35-.19-5.22-.3-.4-.21-1.07-.55-1.73-.87-.55-.26-1.37-.02-1.69.5-.28.45-.61.91-.72,1.41-.4,1.8-1.47,3.3-2.17,4.96-.11.23-.49.33-.74.49-1.2-.97-2.36-1.9-3.51-2.83-.25-.2-.55-.38-.71-.64-1.18-1.9-2.86-3.44-3.89-5.45-.39-.77-.75-1.52-.75-2.41,0-.68-.34-1.21-.92-1.59-.37-.25-.77-.36-1.21-.2-1.23.44-2.24,1.17-3.07,2.2-.93,1.16-1.92,2.28-2.87,3.42-.69.84-1.52,1.52-2.54,1.88-1.24.44-2.29,1.12-3.23,1.99-.21.19-.65-.02-.76-.32-.29-.81-.49-1.62-.34-2.5.3-1.77.59-3.57.8-5.36.09-.7-.31-1.21-1.21-1.49-1.1.24-2.22.86-3.29,1.54-1.79,1.15-3.63,2.21-5.64,2.94-.19.08-.39.18-.56.3-1.54,1.13-3.25,1.55-5.42,1.28-.73-.22-1.76-.49-2.77-.81-.66-.21-1.04-.72-1.24-1.37-.05-.2-.08-.41-.11-.63q-.3-1.97-2.39-2.13c-.32-.02-.64-.06-.95-.1-.1-.02-.19-.09-.29-.14.02-.18.02-.38.08-.56.02-.08.14-.18.23-.2.88-.2,1.51-.76,2.04-1.44.59-.75,1.2-1.5,1.81-2.23,1.09-1.34,2.37-2.43,4.02-3.04.68-.25,1.24-.84,2.09-.79.11.28.2.58.35.86.08.18.23.33.36.52.19,0,.45.08.6-.02.62-.39,1.24-.82,1.83-1.27,1.02-.78,2.14-1.39,3.35-1.82,1.3-.46,2.58-.98,3.81-1.64.91-.5,2.01-.64,3.02-.97.39-.14.78-.32,1.12-.55.14-.08.24-.35.23-.53-.03-.19-.17-.46-.32-.51-.69-.24-1.41-.39-2.11-.62-.12-.04-.23-.39-.18-.53.21-.63.72-1.04,1.24-1.42,1.88-1.41,3.79-2.76,5.64-4.21,1.35-1.06,2.81-1.91,4.31-2.72.36-.2.79-.28,1.2-.36.18-.03.45.05.57.18.08.09.05.41-.06.52-.88.94-1.98,1.59-3.08,2.26-1.08.68-2.14,1.4-3.14,2.19-.39.31-.63.84-.88,1.3-.08.14-.01.41.06.59.1.25.62.43.82.33.38-.19.78-.35,1.14-.59.97-.64,1.91-1.36,2.9-1.98,3.1-1.91,5.86-4.24,8.46-6.77.64-.62,1.37-1,2.24-1.09.66-.06,1.28,0,1.84.38,1.42.94,2.86,1.85,4.27,2.81.61.42,1.19.9,1.71,1.43,2.23,2.29,4.62,4.41,6.66,6.89,1.41,1.73,3.03,3.29,4.55,4.93.28.3.55.63.84.97-.12.33-.14.7-.33.89-.53.53-1.12.98-1.67,1.49-.75.65-.69,1.39.14,2.13.07.07.19.1.3.17,1.25-.57,2.16-1.71,3.58-2.22.98.32,1.95.74,2.47,1.77.31.61.76,1,1.4,1.21,1.58.5,2.29,1.83,2.92,3.19.21.46.17,1.04.18,1.57.01.74-.05,1.48-.03,2.22.01.32.26.55.57.68.36.15,1-.02,1.16-.3.52-.95.78-1.97.85-3.04.03-.42.09-.84.21-1.24.04-.14.31-.31.48-.31.3-.02.64.03.92.15,1.36.59,2.73,1.2,4.07,1.85.57.28,1.11.64,1.59,1.05.98.85,2.08,1.46,3.3,1.91.58.23,1.18.49,1.74.78.67.35,1.27.83,1.56,1.54.29.7.69,1.3,1.27,1.8h0ZM148.74,36.3c-.3.25-.55.45-.77.67-.36.35-.78.4-1.16.17-.54-.33-1.03-.74-1.47-1.07-.58-1.37-1.11-2.64-1.61-3.85-.03-.53.13-.91.48-1.18.25-.2.52-.36.8-.52,2.16-1.16,4.14-2.61,6.08-4.11.25-.19.47-.43.64-.7.1-.16.11-.41.09-.6-.03-.24-.53-.49-.76-.44-.95.2-1.83.58-2.6,1.16-1.79,1.36-3.74,2.46-5.64,3.64-.45.28-.95.55-1.25.95-.61.82-1.45,1.2-2.32,1.63-1.16.56-2.27,1.18-3.39,1.8-2.14,1.19-4.24,2.44-6.56,3.27-.23.08-.42.09-.64-.14.31-.26.58-.56.93-.76,1.5-.83,2.83-1.89,4.22-2.89,1.99-1.42,4.02-2.78,6.04-4.17.35-.24.69-.49,1.01-.77,1.13-.97,2.24-1.97,3.37-2.93,3.74-3.16,7.47-6.35,11.4-9.29.77-.58,1.42-1.25,1.95-2.09.96-1.54,2.33-2.76,3.55-4.1.35-.38.83-.65,1.27-.95.96-.68,1.9-1.39,2.91-1.98,1.36-.81,2.74-1.62,4.19-2.25.86-.38,1.85-.49,2.8-.57,1.17-.09,2.35-.06,3.52-.01,1.41.05,2.73.42,3.93,1.18.53.34,1.07.71,1.65.96,1.75.73,2.94,2.06,4.03,3.53.58.76,1.11,1.57,1.75,2.27,2.54,2.72,5.06,5.47,7.7,8.11.37.38.74.78,1.17,1.08,2.03,1.43,3.55,3.36,5.19,5.19.64.71,1.22,1.48,1.86,2.19.65.71,1.17,1.5,1.66,2.33,1.97,3.41,3.92,6.82,6.34,9.96.84,1.09,1.52,2.3,1.93,3.61-.64.6-1.44.55-1.99.93-1.06-.33-1.96-.23-2.91.09-1.26.43-1.89,1.36-2.21,2.52-.19.71-.18,1.48-.28,2.21-.12.85-.35,1.65-.84,2.33-.28-.04-.53,0-.68-.11-1.04-.73-2.04-1.55-3.09-2.26-2.4-1.63-4.35-3.75-6.45-5.71-.38-.35-.65-.85-.87-1.32-.35-.78-.56-1.62-.93-2.38-.39-.8-1.03-1.34-1.98-1.37-.84.3-1.2.86-.95,1.74.06.2.14.41.18.61.31,1.66-.19,2.42-2.12,3.05-1.33-.68-2.72-1.46-4.07-2.31-.52-.33-1.05-.78-1.38-1.3-1.08-1.63-2.57-2.83-3.99-3.97-.89-.25-1.56-.02-2.18.51-.58.49-1,1.09-1.35,1.76-.92,1.8-1.8,3.62-2.8,5.38-.88,1.58-1.88,3.09-2.85,4.61-.29.46-1.04.39-1.35-.08-.17-.27-.36-.52-.5-.81-.24-.47-.44-.97-.67-1.44-1.28-2.69-2.53-5.4-3.57-8.2-.23-.6-.46-1.21-.79-1.73-1.27-1.98-2.25-4.1-3.09-6.06-.5-.47-.91-.56-1.34-.42-1.24.37-2.38.96-3.1,2.1-.83,1.31-2.15,2.02-3.41,2.8-.35.21-.81.26-1.22.32-.52.09-1.06.11-1.54.16h0ZM123.29,66.12c0,.1,0,.21.03.29.03.06.14.07.2.1-.1-.1-.21-.21-.32-.32-.71-.74-1.62-1.1-2.6-1.3-.19-.05-.4.03-.59.04-.07-.18-.09-.43-.23-.54-.91-.72-1.84-1.4-2.77-2.09-.17-.13-.34-.26-.53-.34-1.98-.87-4-1.29-6.13-.69-.4.11-.32.45-.18.87.31.11.7.26,1.09.39,2.61.83,5.28,1.45,7.85,2.38.28.1.62,0,.93-.01.04.09.06.23.12.28.96.56,1.94,1.12,3.12.94h0ZM216,84.05c-.92.14-1.82.11-2.74-.22.76-.28,1.49-.23,2.2-.08.18.03.31.24.47.37.1.07.21.14.31.21-.06-.02-.15,0-.17-.05-.04-.06-.05-.15-.07-.23h0ZM92.31,22.51c.58.33,1.12.66,1.68.96,1.52.79,2.94,1.7,4.31,2.71,1.46,1.07,2.99,2.03,4.29,3.31,1.06,1.05,2.07,2.14,3.19,3.13.56.48,1.02,1.09,1.42,1.71,1.83,2.8,4.21,5.08,6.61,7.35.23.21.54.33.89.56.36-.14.79-.22,1.12-.44,2.55-1.75,5.08-3.53,7.62-5.29.43-.31.89-.59,1.34-.87,1.53-.96,3-2.01,4.44-3.12,1.76-1.37,3.61-2.63,5.38-4,2.01-1.57,3.97-3.21,5.95-4.81.33-.27.65-.57,1-.81,1.99-1.42,4.09-2.71,5.93-4.33,2.16-1.2,3.97-2.86,5.91-4.34.86-.66,1.66-1.33,2.07-2.37.04-.1.11-.19.16-.27,1.34-2.35,3.12-4.3,5.21-6,.98-.81,1.87-1.74,2.83-2.59.47-.41.98-.83,1.54-1.12,1.91-.97,3.94-1.59,6.07-1.84.31-.03.64,0,.95.02.64.03,1.28.11,1.91.1,1.85,0,3.56.44,5.23,1.24,1.43.7,2.95,1.2,4.53,1.52.78.16,1.34.61,1.77,1.26.41.62.84,1.22,1.25,1.84,1.9,2.84,4.02,5.49,6.5,7.85.47.44.85.96,1.24,1.46.86,1.09,1.82,2.06,2.86,2.99,1.36,1.2,2.68,2.44,3.98,3.69.7.66,1.33,1.39,1.96,2.1.85.95,1.65,1.95,2.52,2.89.65.7,1.22,1.47,1.72,2.3,1.3,2.19,2.64,4.38,3.93,6.58.92,1.56,1.85,3.11,3.18,4.37.47.45.77,1.01,1.05,1.59.36.77.77,1.53,1.12,2.3.45.98.97,1.9,1.73,2.66.61.62,1,1.37,1.36,2.15.79,1.75,1.77,3.4,2.83,5.01.88,1.33,1.82,2.6,3.13,3.57.76.57,1.47,1.24,2.13,1.93,1.99,2.09,4.28,3.85,6.38,5.8,1.72,1.59,3.48,3.11,5,4.91.54.64,1.23,1.19,1.91,1.69,1.65,1.19,3.15,2.52,4.5,4.05,1.34,1.51,2.97,2.75,4.2,4.37.26.33.62.59.95.84.93.71,1.87,1.4,2.89,2.16.33-.1.71-.23,1.12-.34.46-.12.85.02,1.16.35.34.4.63.84.91,1.21.26.09.46.19.67.2,1.69.07,3.41.23,5.1.12,1.66-.12,3.15.39,4.66.86.18.06.33.26.47.42.27.29.14.99-.2,1.11-.4.14-.81.33-1.2.33-1.29,0-2.56-.06-3.84-.11-1.92-.07-3.81-.12-5.71-.56-1.54-.36-3.18-.55-4.55.44-.85-.25-1.55-.5-2.27-.67-.72-.17-1.47-.28-2.21-.35-.53-.05-1.08-.08-1.59.03-1.27.29-2.55.23-3.83.25-5,.08-10.01.13-15.03.15-2.66,0-5.32-.08-7.99-.13-.53-.01-1.07-.01-1.59-.11-2.2-.42-4.45-.37-6.68-.45-2.34-.09-4.69,0-7.02-.38-1.36-.22-2.77-.11-4.16-.18-1.05-.06-2.15-.02-3.17-.27-1.52-.38-2.95-.18-4.39.28-.41.12-.79.31-1.13.45-.59,0-1.13.05-1.66-.01-2.22-.26-4.43-.59-6.65-.85-2.43-.28-4.87-.51-7.32-.33-.73.06-1.43.44-2.18.21-1.53-.47-3.19-.23-4.67-.97-.08-.05-.19-.08-.26-.17-1.11-1.48-2.71-1.97-4.45-2.17-1.27-.14-2.55-.2-3.81-.47-.59-.14-1.27-.05-1.89.04-.73.1-1.46.31-2.19.44-.67.11-1.14-.46-1.01-1.22.05-.31.1-.61.15-.9-.21-.13-.38-.33-.54-.33-2.35-.07-4.69-.11-7.03-.17-.79-.02-1.42.45-2.13.62-.39.1-.85.04-1.24-.1-.26-.09-.47-.41-.61-.67-.16-.3.1-.89.47-1.07.47-.24.95-.53,1.46-.59.94-.12,1.91-.09,2.87-.1,2.77,0,5.54,0,8.31,0,.12,0,.25-.22.33-.37.03-.05-.07-.22-.14-.27-.18-.11-.38-.21-.58-.26-.31-.09-.62-.17-.94-.19-1.7-.09-3.41-.18-5.12-.22-2.12-.06-4.25-.06-6.38-.06-.85,0-1.71.08-2.55.1-.53.02-1.06,0-1.6-.02-.43-.01-.84-.42-.83-.8.01-.36.39-.82.77-.9.52-.1,1.04-.23,1.57-.23,2.03-.04,4.05-.04,6.07-.03,1.38,0,2.77.05,4.16.04.41,0,.82-.12,1.32-.19-.16-.38-.22-.72-.41-.94-.36-.4-.86-.65-1.4-.7-.74-.08-1.49-.12-2.23-.12-1.92,0-3.84.07-5.76.07-1.71,0-3.4.12-5.27.71-.54.49-1.24,1.14-1.95,1.78-.33-.04-.65-.03-.95-.12-.62-.17-1.21-.43-1.83-.57-1.77-.42-3.42-1.07-4.97-2.08-1.14-.75-2.46-1.26-3.72-1.8-2.55-1.09-5.07-2.24-7.67-3.19-3.8-1.38-7.69-2.45-11.25-3.2-.99-.01-1.39.37-1.84.64-.48.28-1.01.37-1.54.28-.82-.15-1.63-.36-2.41-.53-.53.39-.54.96-.66,1.47-.22.83-.36,1.67-.58,2.48-.3,1.11-1.18,1.8-2.32,1.85-.53.03-1.06,0-1.59.05-1.14.12-2.06-.22-2.87-1.04-1.43-1.43-3.11-2.57-4.79-3.69-.71-.47-1.4-.96-2.06-1.51-.68-.57-1.05-1.33-1.04-2.24.01-.42,0-.85-.01-1.28-.05-.77-.33-1.44-.89-2.07-.25.1-.64.12-.81.33-.94,1.15-1.82,2.36-2.73,3.54-1.36,1.79-2.95,3.35-4.86,4.56-1,.63-2.02,1.19-3.27,1.09-1.24-.09-2.23-.65-3.06-1.54-.07-.07-.17-.11-.26-.17-3.01-.29-13.33-.26-18.25.05-.21.15-.48.31-.74.5-.25.19-.47.42-.73.62-.35.24-.72.45-1.07.7-.26.18-.52.39-.73.62-.19.23-.33.51-.49.77.49.43,1.03.31,1.53.32,1.28.05,2.53-.43,3.82-.19,3.71-.42,7.44-.28,11.17-.43,4.48-.17,8.94-.41,13.4-.62.43-.02.85,0,1.27.03.36.02.82.42.92.79.1.35-.19.88-.56,1.03-1.19.49-2.44.72-3.74.71-1.6,0-3.19-.02-4.8-.03-1.6-.01-3.19-.06-4.79-.03-4.05.06-8.09.16-12.08.24-2.13.72-3.53,2.48-5.71,3.25.33.37.48.7.71.76,1.31.33,2.54.1,3.65-.66.88-.61,1.72-1.27,2.62-1.82.56-.36,1.2-.34,1.81,0,.54.29.68.8.31,1.31-.13.18-.31.3-.43.46-.04.06-.02.17-.03.25.7.39,1.46.32,2.18.24,1.8-.17,3.6-.09,5.4,0,1.91.08,3.84-.05,5.76-.09,2.02-.03,4.04-.06,6.07-.09.42,0,.86.03,1.27.12.41.09.77.35,1,.73.14.23.12.68-.05.89-.36.43-.82.72-1.37.72-1.16.01-2.35.05-3.5-.09-1.07-.14-2.11-.08-3.24.09-.38.42-.77.93-1.23,1.35-.39.35-.89.57-1.32.9-.84.65-1.65,1.32-2.43,1.95.03.45.18.71.54.78.2.04.41.02.63,0,5.54-.33,11.09-.13,16.62-.3,1.41-.04,2.75.24,4.09.62.29.08.53.34.77.54.19.16.27.7.11.88-.13.16-.29.37-.46.38-.64.04-1.28.06-1.91.02-1.7-.1-3.39-.3-5.1-.12-.41.04-.86.07-1.27,0-2.33-.4-4.67-.22-7.01-.13-.74.03-1.49,0-2.44,0-.59.23-1.38.56-2.18.87-.64.25-1.25.18-1.81-.24-.17-.13-.36-.23-.63-.39-1.06.05-2.22.27-3.37-.2-.56-.23-1.25-.21-1.88-.22-5.86-.09-11.72-.15-17.58-.23-2.12-.03-4.24-.25-6.36-.28-.32-.01-.65-.1-.96-.03-2.41.57-4.89.14-7.32.3-2.45.16-4.9.14-7.35.2-1.82.03-3.62.06-5.42.37-.94.17-1.91.2-2.86.23-1.49.03-2.98.11-4.45.38-.94.16-1.9.21-2.94.01-.81-.54-1.37-1.59-2.56-1.68-.08,0-.17-.12-.25-.18-.58-.41-.66-1.47-.19-2.01.79-.91,1.83-1.49,2.87-2,3.91-1.95,7.62-4.24,11.33-6.54.54-.33,1.09-.7,1.67-.91,1.65-.56,3.05-1.52,4.36-2.62.49-.41,1-.79,1.48-1.17.04-.37.07-.68.09-1,.09-1.14.38-1.59,1.38-1.85.71-.19,1.46-.28,2.19-.35,2.24-.21,3.03-.51,5.22-2.07.26-.61-.45-.9-.46-1.41.11-.47.37-.78.81-.9.92-.25,1.86-.47,2.73-.68.71-.56,1.31-1.24,2.06-1.56,1.22-.54,2.12-1.39,2.95-2.37.56-.65,1.11-1.29,1.66-1.95.54-.65,1.15-1.23,1.85-1.74.86-.64,1.71-1.28,2.48-2.01,2.12-1.97,4.59-3.45,6.98-5.03.61-.41,1.3-.75,1.98-1.03,1.87-.77,3.73-1.56,5.64-2.24,3.05-1.1,5.82-2.64,8.13-4.93,2.82-2.78,6.13-4.94,9.26-7.33,1.27-.97,2.76-1.63,3.81-2.88,2.12-1.2,4.08-2.74,6.54-3.28.51-.12,1.02-.29,1.54-.44,1.05.03,2.1.07,3.42.11Z"/>
      <path class="cls-1" d="M155.81,21.36c-.38-.15-.46-.32-.29-.55,1.24-1.74,2.66-3.31,4.13-4.85,1.77-1.84,3.59-3.64,5.38-5.47.74-.76,1.53-1.5,2.19-2.32.94-1.13,2.19-1.66,3.54-2.05.18-.06.41.01.62.06.33.07.52.33.67.62.12.23.04.67-.17.87-.23.23-.42.51-.69.65-1.35.7-2.42,1.73-3.42,2.84-.64.72-1.31,1.39-2.17,1.87-1.03.59-1.87,1.41-2.68,2.26-1.98,2.09-4.24,3.88-6.35,5.84-.2.17-.56.17-.76.22Z"/>
      <path class="cls-1" d="M154.49,26.13c.32.38.62.57.71.84.12.42-.07.83-.41,1.13-.24.21-.47.44-.75.59-1.15.58-2.24,1.23-3.1,2.2-.13.15-.35.21-.54.33-.51.31-1.22.26-1.44-.12-.22-.4-.23-.82,0-1.21.95-1.61,2.3-2.75,4.07-3.39.4-.14.82-.21,1.47-.37Z"/>
      <path class="cls-1" d="M175.14,17.52c.54.08,1.07.16,1.42.62.16.21.12.44-.07.5-.38.14-.78.28-1.19.33-.48.06-1.05-.44-1.07-.95,0-.15.17-.37.31-.44.18-.09.41-.05.6-.06Z"/>
      <path class="cls-1" d="M68.53,45.95c-.03.21,0,.44-.09.6-.16.27-.37.53-.6.73-.5.39-1.03.74-1.57,1.12-1.48,1.03-2.98,2.04-4.22,3.39-.28.3-.71.47-1.06.69-.28.17-.67.12-.88-.09-.24-.25-.34-.54-.28-.86.04-.21.11-.42.21-.6.16-.27.33-.56.56-.77,1.77-1.54,3.45-3.17,5.44-4.43.35-.23.77-.35,1.18-.47.42-.13,1.18.3,1.31.7Z"/>
      <path class="cls-1" d="M57.16,49.37c-.26.5-.51,1.08-.86,1.57-.16.23-.51.37-.79.44-.77.19-1.46-.48-1.37-1.25.08-.67.42-1.15.95-1.54.52-.37,1.15-.33,1.7.17.15.13.22.35.37.61Z"/>
    </g>
  </g>
</svg>