<?xml version="1.0" encoding="UTF-8"?>
<svg id="Layer_2" data-name="Layer 2" xmlns="http://www.w3.org/2000/svg" viewBox="0 0 305.5 156.45">
  <defs>
    <style>
      .cls-1 {
        fill: #5c3827;
        fill-rule: evenodd;
      }
    </style>
  </defs>
  <g id="_Layer_" data-name="&amp;lt;Layer&amp;gt;">
    <g>
      <path class="cls-1" d="M82.13,143.46c-.07-.05-.15-.13-.23-.15-.28-.06-.54-.05-.75.17,0,.01.07.15.12.17.27.13.53.11.77-.02.05-.03.06-.11.09-.16h0ZM125.1,119.36c-.14-.21-.29-.27-.49-.19-.15.07-.31.14-.42.27-.09.09-.1.25-.15.38.17.01.36.09.48.03.22-.12.4-.32.58-.49h0ZM39.55,131.43c-.06-.05-.12-.16-.19-.16-.56-.06-1.03.33-1.08.88-.02.3.24.53.54.47.54-.12.85-.59.74-1.18h0ZM61.52,146.23c.16.08.31.21.48.23.79.09,1.58.01,2.32-.24.07-.03.14-.1.19-.17.05-.06.11-.15.1-.23,0-.06-.13-.16-.17-.16-.87.08-1.73.16-2.59.27-.12.01-.22.19-.33.29h0ZM21.35,139.59c.07,0,.18.05.23.02.47-.24.93-.47,1.38-.74.14-.09.23-.26.35-.38.21-.23.24-.54.06-.69-.24-.21-.5-.2-.76-.12-.83.25-1.24.88-1.42,1.7,0,.05.09.14.15.21h0ZM282.33,141.79c.35-.57.77-.93.66-1.61-.16-.17-.32-.39-.54-.55-.12-.09-.35-.13-.49-.08-.14.04-.29.22-.3.36-.05.63-.03,1.26.66,1.88h0ZM170.29,39.66c-.02-.12.05.33.13.77,0,.05.11.12.17.12.09,0,.21,0,.25-.06,1.02-1.34,1.17-2.9.87-4.57-.03-.13-.21-.32-.32-.33-.16,0-.32.11-.45.22-.12.11-.2.27-.29.42-.52.88-.52,1.86-.34,3.43h0ZM33.96,139.52c.13.1.21.22.28.21.84-.1,1.51-.48,1.96-1.17.42-.65.78-1.35,1.16-2.05.12-.23.23-.48.29-.73.05-.15,0-.33-.05-.5-.05-.18-.47-.25-.74-.15-.5.19-1,.4-1.26.88-.6,1.14-1.29,2.25-1.65,3.51h0ZM105.76,96.97c-.18-1.45-1-2.56-1.99-3.55-.51.05-.72.35-.62.73.18.62.47,1.21.77,1.93-.1.33-.23.76-.33,1.1-.47.32-.89.39-1.37.23-.57-.19-1.01-.6-1.2-1.12-.36-.96-.65-1.94-1.04-2.89-.2-.5-.18-1.07-.27-1.56-.73-.63-1.56-.81-2.34-1.08-.88-.31-1.74-.64-2.54-1.19-.62-.43-1.32-.72-1.99-1.07-.17-.08-.35-.12-.53-.18-.18-.06-.62.19-.63.38-.1,1.35-.29,2.69-.38,4.04-.08,1.35-.3,2.71.16,4.09.16.46,0,.91-.15,1.33-.33.88-.23,1.78.06,2.69.12.36.36.66.66.83.47-.07.91-.17,1.36-.19.31-.01.67.56.55.83-.14.32-.27.66-.46.95-.67,1.05-1.42,2.04-2.05,3.11-1.09,1.84-2.24,3.63-3.26,5.5-.38.71-.73,1.42-.92,2.21-.23.96-.48,1.91-.79,2.84-.33,1.02-.73,2.02-1.15,3.01-1.09,2.54-2.18,5.09-3.32,7.61-1.83,4.07-3.42,8.26-5.07,12.4-.1.23-.03.53-.03.83.28.1.54.28.79.27,1.54-.07,3.12.04,4.57-.53,2.12-.17,3.98-1.09,6.01-1.54.52-.12,1.02-.34,1.48-.61.62-.37,1.26-.66,1.94-.91.52-.2.9-.55,1.13-1.07.24-.57.49-1.15.72-1.73,1.41-3.49,3.01-6.86,4.83-10.14.7-1.27,1.59-2.34,2.88-3.06.62-.35,1.17-.79,1.77-1.18.15-.09.31-.16.49-.21.27-.08.54-.02.77.18.2.15.3.53.19.74-.25.47-.52.93-.77,1.39-.34.62-.69,1.24-1,1.88-.1.24.04.51.53.67.66-.53,1.58-.92,2.27-1.58.94-1.96,1.85-3.89,2.8-5.8.19-.39.48-.74.76-1.08.25-.31,1.01-.13,1.16.26.06.17.14.37.11.53-.17.89-.42,1.75-.85,2.54-.25.47-.52.93-.76,1.4-.14.25-.09.62.06.75.25.21.53.18.79.16.55-.05,1.04-.27,1.57-.73.12-.38.26-.9.45-1.4.39-1,.78-1.99,1.2-2.98.1-.24.31-.42.48-.63.18-.22.7-.31,1.01-.18.32.14.62.55.57.89-.05.35-.11.71-.23,1.04-.2.59-.48,1.15-.66,1.74-.09.28.13.49.49.59.69-.29,1.44-.6,2.18-.91.65-.28,1.36-.47,1.97-.83.67-.39,1.63-.32,2.07-1.21-.61-.57-1.25-1.13-1.85-1.73-.87-.85-1.78-1.71-2.61-2.61-.86-.93-1.37-2.01-1.51-3.26-.06-.55-.08-1.13-.31-1.62-.66-1.44-1.36-2.88-2.53-4.04-1-1-1.98-2.03-2.8-2.87-.58-1.03-1.02-1.85-1.5-2.66-.29-.49-.65-.93-1.19-1.17-.15-.25-.27-.53-.59-.59h0ZM88.28,89.84c0-.08.03-.24.05-.23.18,0,.15.08-.1.18.13.57-.03,1.08-.19,1.6-.83,2.57-1.85,5.04-3.04,7.44-.64,1.29-.99,2.68-1.21,4.12-.06.33.17.69.53.91.17.1.34.09.49-.06.12-.12.27-.24.32-.4.41-1,.81-1.99,1.14-3.01.37-1.12.95-2.1,1.43-3,.29-.15.42-.08.47.17.14.66.07,1.26-.25,1.84-1.46,2.66-2.63,5.47-3.88,8.23-.44.98-.73,2.02-.93,3.09-.04.25.05.54.1.81.05.22.48.56.63.49.16-.06.31-.15.42-.27.44-.48.53-1.13.7-1.73.6-2.08,1.49-4.03,2.47-5.93.2-.4.41-.79.88-1.02.83.21,1.36.83,1.86,1.45.06.46-.13.77-.3,1.07-.57,1-1.15,2.01-1.76,2.99-1.02,1.67-1.95,3.4-2.63,5.38.07.44.17.97.26,1.51-1.35,1.75-1.32,1.77-2.3,4.18-1.31,3.23-2.69,6.43-4.02,9.66-.85,2.06-1.66,4.15-2.52,6.22-.67,1.65-1.39,3.29-2.1,4.93-.1.25-.22.5-.4.7-.17.18-.42.37-.66.39-.23.02-.5-.17-.78-.28.7-3.24,1.82-6.25,3.12-9.17,1.61-3.59,3.23-7.17,4.85-10.74.29-.65.69-1.24,1-1.88.17-.36,0-.71-.29-.98-.39-.04-.71.06-.99.3-.75.66-1.3,1.45-1.71,2.37-1.2,2.69-2.42,5.37-3.6,8.07-1.14,2.62-2.22,5.27-3.08,8.02-.31,1.03-.65,2.05-.99,3.12.12.4.24.83.37,1.26-.05.09-.07.21-.13.23-1.71.54-3.45,1-5.31.89-.08,0-.2-.01-.27-.07-.12-.11-.31-.28-.3-.38.06-.35.17-.7.31-1.02,1.15-2.51,2.35-5.01,3.48-7.54,1.22-2.77,2.33-5.6,3.47-8.42.83-2.07,1.82-4.08,2.71-6.13.15-.32.24-.67.32-1.02.1-.38-.48-.94-.89-.85-.26.06-.54.16-.71.33-.24.25-.43.56-.57.89-.65,1.56-1.35,3.12-1.93,4.72-1.71,4.72-3.58,9.36-5.67,13.9-.68,1.45-1.38,2.9-2.08,4.34-.27.57-.62,1.08-1.13,1.45-.21.17-.41.18-1-.02,0-.16-.06-.36,0-.49.88-1.85,1.54-3.81,2.36-5.69,1.52-3.52,2.96-7.1,4.81-10.45.88-2.46,2.45-4.56,3.28-7.02.2-.63.73-1,1.14-1.63,0-.41,0-.96,0-1.5,0-.37-.07-.75,0-1.1.43-2.33.23-4.72.19-7.09-.03-1.74.33-3.43.86-5.05.3-.93.71-1.83,1.09-2.74.13-.33.36-.62.45-.97.52-2.04,1.71-3.72,2.58-5.58.26-.56.67-1.06,1.23-1.37.14-.07.35-.07.52-.03.21.06.29.25.21.45-.16.41-.3.83-.52,1.22-.64,1.17-1.34,2.31-1.98,3.48-.34.62-.74,1.22-.71,1.99.5.41.89.46,1.17.24.64-.52.98-1.26,1.38-1.95,1.25-2.05,2.48-4.12,3.72-6.17.22-.38.44-.78.88-.97.05-.02.15.02.19.06.06.06.15.17.13.23-.04.26-.08.53-.19.77-.66,1.46-1.36,2.92-2.02,4.38-.33.73-.61,1.49-.89,2.24-.13.34.09.63.72,1,.56-.18.83-.68,1.03-1.16,1.13-2.64,2.7-5.02,3.91-7.61.14-.31.33-.64.78-.59h0ZM96.53,132.67c0,.17.02.34-.02.51-.02.12-.1.22-.17.32-.15-.11-.19-.26-.08-.42.09-.13.22-.23.33-.34.22-1.05.42-2.11,1.12-2.94.07-.09.36-.1.46-.03.12.08.21.3.21.46,0,.17-.1.34-.17.5-.39.8-.95,1.46-1.69,1.95h0ZM70.05,97.01c-.51.07-.66.5-.84.85-.29.59-.81,1.1-.65,1.87-.17.06-.54,0-.18.35.05-.13.09-.27.14-.4.15-.06.36-.09.43-.2.52-.76.98-1.55,1.03-2.54.06-.03.14-.06.19-.12.02-.03.02-.09.03-.14-.06.1-.11.21-.16.31h0ZM26.42,137.11c.45,0,.92.03,1.04-.56.23-.02.48-.02.71-.06.06,0,.11-.09.17-.14-.14-.07-.29-.2-.41-.19-.26,0-.43.15-.42.44-.24,0-.49-.03-.72.02-.25.06-.34.27-.31.54-.06.05-.11.09-.17.13.04-.07.07-.12.11-.19h0ZM32.26,134.33c.23-.01.47,0,.7-.04.23-.05.37-.23.39-.48.46.06.89,0,1.28-.23.2-.12.2-.29-.03-.59-.43.25-1.05.25-1.2.88-.46,0-.88.05-1.08.53-.06.03-.15.05-.21.1-.03.03-.02.1-.03.15.15,0,.21-.1.18-.31h0ZM265.69,127.25c.32-.88.27-1.75-.02-2.68-.98-3.12-1.54-6.3-2.15-9.69-.63-1.13-.97-2.61-2.01-4.01-.63-.43-1.4-.95-2.19-1.47-.21-.15-.64.04-.64.27,0,.55,0,1.09.02,1.64,0,.36,0,.72-.02,1.08,0,.19-.34.48-.54.52-.29.05-.54-.05-.75-.25-.13-.13-.26-.29-.33-.45-.43-1.04-.78-2.1-.77-3.23,0-.45.04-.91-.34-1.83-.05-.11-.58-.35-1.04-.67-.63-.42-1.22-.9-1.96-1.09-.17-.05-.59.24-.59.44,0,.82-.03,1.65.03,2.46.03.35.19.71.33,1.05.14.35.32.68.47.96-.06.24-.04.46-.12.59-.76,1.09-1.59,1.07-2.38-.01-.29-.39-.47-.81-.53-1.28-.25-1.9-.15-2.68.63-5.06-.04-.41-.3-.67-.62-.88-1.01-.67-1.97-1.48-3.19-1.74-.96-1.63-1.71-3.33-2.1-5.16-.16-.72-.41-1.43-.66-2.13-.74-2.01-1.4-4.04-1.67-6.16-.12-.91-.4-1.8-.76-2.67-.5-1.21-.79-2.44-.74-3.77.06-1.55-.1-3.11-.17-4.66-.06-1.1-.27-2.18-.54-3.27-.44-1.79-1.02-3.58-1.05-5.43,0-1.1-.56-1.96-1.44-2.62-.53-.39-1.09-.76-1.68-1.03-1.8-.83-3.62-1.56-5.5-2.08-.14-.04-.32.08-.5.13-.46.91-.65,1.84-.07,2.85.05.08.07.17.09.26.2,1.08.26,2.19.79,3.22.12.23.12.56.05.8-.28,1.07.06,2.17-.1,3.2.3.56.57,1.05.84,1.55.21.41.52.82.63,1.26.41,1.7.62,3.44,1.02,5.15-.24,1.27,0,2.52.32,3.79.13.53.05,1.09.09,1.64.15,1.64.23,3.29.71,4.9.22.74.3,1.47.14,2.17-.43,1.75.15,3.41.63,5.03.91.46,1.41.01,1.34-.69-.04-.36-.09-.73-.19-1.09-.47-1.81-.59-3.62-.68-5.46-.21-4.39-.35-8.79-1.02-13.18-.04-.27-.06-.55-.04-.82.05-.46.17-.88.48-1.23.2-.24.73-.48.95-.34.23.15.5.36.57.58.42,1.25.55,2.53.48,3.81,0,.27-.16.56-.07.81.45,1.45.29,2.92.43,4.38.15,1.54.17,3.11.08,4.64-.06,1.21.05,2.36.31,3.55.55,2.52,1.36,5.03,1.21,7.62,0,.18.02.38.1.54.17.33.39.64.59.94.05.07.15.11.22.17.19.15.6-.02.66-.24.2-.63.12-1.26-.05-1.89-.51-1.9-.66-3.82-.7-5.75-.02-.95.27-1.77.88-2.47.14-.16.56-.26.75-.14.15.1.3.22.39.37.22.43.23.89.22,1.35-.07,1.65,0,3.3.44,4.93.27,1.01.4,1.97.15,2.97-.11.42-.04.91.02,1.36.08.66.33,1.28.86,1.72.56.49,1.03,1.12,1.74,1.41.29-.04.55-.17.56-.46.02-.45,0-.91-.1-1.36-.09-.45-.31-.87-.42-1.32-.12-.49.07-.88.38-1.23.32-.35.75-.46,1.2-.55,0,.09,0,.19.04.27.87,1.51,1.28,3.11,1.31,4.78.02.76.31,1.44.6,2.15-.1.41-.21.84-.32,1.27-.23.92-.6,1.14-1.55.89-.45-.12-.89-.3-1.42-.48-.85-.77-1.64-1.72-2.73-2.34-1.06-.6-2.08-1.3-3.12-1.95-.17-.06-.35-.15-.53-.16q-1.61-.13-2.14-1.62c-.06-.18-.16-.34-.3-.68-.64-.59-1.39-1.3-1.96-1.84-.68-.33-1.13-.3-1.59-.32-.54-.01-1.12,0-1.64-.14-1-.27-1.8-.15-2.4.71-.12.18-.45.2-.76.33-.22-.34-.55-.64-.62-.97-.45-2.17-.92-4.35-1.23-6.54-.21-1.55-.17-3.11-.23-4.67-.06-1.1-.08-2.19-.17-3.3-.07-.91-.19-1.83-.64-2.69-.26-.51-.28-1.08-.17-1.62.07-.37.29-.64.63-.82.18-.09.65,0,.78.15.34.35.59.76.67,1.21.17.92.34,1.81.67,2.7.13.34.16.72.17,1.09,0,1.55.24,3.1.05,4.66-.15,1.15-.04,2.37.27,3.56.17.63.24,1.27.37,1.91.18.87.56,1.17,1.59,1.21.47.02.92,0,1.18-.48.02-.16.06-.34.06-.52.05-1.09.17-2.18.12-3.27-.04-1-.27-2-.42-3.01-.41-2.65-.66-5.3-.88-7.96-.05-.64-.18-1.28-.29-1.91-.1-.54-.25-1.08-.31-1.63-.13-1.2-.41-2.37-.97-3.48-.35-.69-.53-1.4-.53-2.14,0-2.41-.67-4.74-1.33-7.07-.18-.64-.29-1.27-.23-1.9.09-1.18.02-2.36.09-3.54.08-1.45,0-2.92-.14-4.39-.16-1.65-.19-3.3-.25-4.95,0-.45.02-.92.1-1.35.64-3.33.36-6.72.04-10.11-.12-1.28-.78-2.28-1.85-3.03-.45-.33-.92-.65-1.41-.93-1.23-.7-2.47-1.36-3.67-2.03-.2.11-.45.15-.49.26-.8,2.68-1.23,5.46-1.12,8.31.09,2.29-.02,4.57.05,6.85.04.91.15,1.83.24,3.02-.07.23-.21.75-.38,1.33.1.49.23,1.03.3,1.57.1.92.17,1.83.23,2.75.02.36.05.75-.03,1.09-.27,1.07-.16,2.17-.07,3.27.07.91.03,1.83.09,2.74.17,2.38.36,4.76.54,7.15.58,1.88.6,3.81.85,5.72.04.27.07.57.2.8.9,1.59.63,3.26.51,4.86-.16,1.93-.12,3.8.55,5.68.12.34.13.72.19,1.11-.29.65-.59,1.29-.88,1.93-.13.26-.71.35-.98.15-.16-.11-.33-.2-.45-.34-.69-.83-1.18-1.72-.9-2.8.14-.54.06-1.08.03-1.63-.08-1.47-.18-2.93-.18-4.39-.02-1.48-.28-2.94-.53-4.39-.17-1-.36-2-.43-3.01-.05-.73-.2-1.47-.37-2.19-.54-2.18-.7-4.38-.72-6.58,0-.54.05-1.09.06-1.63.02-.82.14-1.65,0-2.46-.36-2.19-.35-4.39-.47-6.57-.11-2.11-.15-4.22-.2-6.32-.02-.55-.03-1.1.05-1.64.12-.91.1-1.82,0-2.74-.18-1.75-.12-3.48-.06-5.22.03-.81.16-1.63.32-2.42.27-1.25.35-2.51.29-3.8-.07-1.38,0-2.74-.22-4.12-.38-2.47-.88-4.9-1.97-7.22-.52-1.12-.81-2.28-.93-3.48-.07-.73-.15-1.47-.23-2.2-.04-.37-.05-.75-.17-1.09-.78-2.22-1-4.52-1.43-6.79-.1-.56-.33-1.06-.64-1.55-.38-.6-.91-1.03-1.59-1.05-2.16-.08-4.19-.69-6.14-1.7-.4-.21-1,.09-1.06.52-.16,1.17-.35,2.33-.41,3.51-.08,1.82-.22,3.64-.24,5.46-.03,2.91-.33,5.83.22,8.77.12.65-.16,1.04-1.04,1.77-.23-.11-.54-.17-.69-.36-.24-.28-.54-.67-.5-.97.27-2.72-.22-5.49.12-8.21.26-1.98.21-4,.32-6.01.05-.82.12-1.63.23-2.44.16-1.09.08-2.18-.1-3.22-.57-.67-1.13-.73-1.71-.27-.07.17-.2.32-.21.49-.12,1.35-.54,2.66-.37,4.06-.31,2.06-.34,4.16-.37,6.26,0,.64-.1,1.24.1,1.89.5,1.54.52,3.13.26,4.63-.49,2.78-.52,5.61-.69,8.42-.05.72.04,1.46.06,2.19.08,1.74.13,3.47-.17,5.18-.27,1.51-.33,3.06-.18,4.64.26,2.68-.16,5.28-.65,7.85-.04.17-.15.32-.21.48-.12.29-.71.38-.95.15-.29-.27-.52-.56-.54-.95-.02-.27-.04-.55,0-.82.05-.35.16-.7.2-1.06.26-1.98.51-3.94.38-5.98-.09-1.54.08-3.11.32-4.62.3-1.91.23-3.82.07-5.74-.09-1.11-.14-2.2.06-3.28.05-.27.1-.54.07-.81-.17-1.77.25-3.45.5-5.15.2-1.27.22-2.53.1-3.81-.13-1.38-.24-2.75-.31-4.13-.05-.82-.12-1.68.05-2.46.37-1.81.12-3.63-.06-5.45,0-.07-.09-.14-.14-.21-1.27.84-1.44,1-2.63,2.53.55,1.92.53,1.92.21,4-.19,1.25-.37,2.52-.4,3.79-.02,1.46-.11,2.92-.24,4.36-.08.91-.18,1.81-.28,2.71-.17,1.62-.2,3.26-.41,4.89-.1.79.07,1.64.15,2.47.06.73.16,1.47.22,2.2.11,1.38.09,2.76-.43,4.03-.46,1.1-.34,2.32-.62,3.46-.06.26-.02.55,0,.82.21,2.91.15,4.57-.02,7.63-.09,1.63,0,3.29.1,4.94.1,1.83.3,3.67.44,5.5.05.56-.02,1.09-.39,1.53-.21.27-.76.23-.92-.09-.08-.17-.21-.32-.25-.49-.11-.45-.18-.91-.25-1.37-.19-1.55-.11-3.12-.65-4.65-.08-.25-.08-.56-.03-.82.3-1.34.06-2.74.25-4.08.17-1.27.09-2.55.15-3.82.05-.91.06-1.83-.05-2.74-.23-1.87-.08-3.68.49-5.39.62-1.85.65-3.74.34-5.67-.32-2.03-.28-4.01,0-6.01.21-1.52.18-3.09.39-4.61.28-2.08.28-4.18.13-6.29-.07-1.02.13-1.99.21-2.99.03-.36.03-.72-.29-1.08-.22.09-.52.14-.68.31-.57.57-.92,1.29-1.17,2.03.05.5.11.96.17,1.46-.06.22-.11.49-.21.73-.66,1.68-.88,3.47-1.03,5.29-.18,2.08.06,4.21-.34,6.26.4,1.56-.14,3.07,0,4.63.15,1.55.29,3.12-.08,4.64.06,2.28-.03,4.57.3,6.87.12.82.48,1.6.46,2.44-.06,2.1.04,4.21-.21,6.29-.05.45-.05.94-.19,1.34-.3.78-.28,1.59-.22,2.42.07,1.19.15,2.38.14,3.57,0,1.48.16,2.93.75,4.34.11.26.15.54.21.79q-1.13,3.33-2.89,6.6c-.56,1.02-.98,2.1-1.28,3.24-.06.19.25.62.46.62.82.03,1.65.14,2.45.04.82-.1,1.61-.16,2.45,0,1,.2,1.99.43,3.01,1.04.67.52,1.16,1.34,1.61,2.15.87,1.54,2.07,2.66,3.61,3.48.59.31,1.12.72,1.79.79.18.02.62-.24.63-.41.03-.54.05-1.08.08-1.62.04-.75.28-1.42.69-2.01.09-.14.28-.2.42-.3.26-.17.87.08.94.36.05.27.15.55.13.81-.1,1.27-.13,2.56-.38,3.79-.19.99-.28,1.96-.14,2.98.04.26-.08.53-.15.79-.08.3-.69.54-.9.37-1.55-1.23-3.19-2.33-5-3.14-.7-.31-1.27-.81-1.74-1.42-1.07-1.33-2.13-2.66-3.22-3.97-.24-.28-.54-.52-.86-.73-.4-.26-.87-.37-1.33-.33-2.18.18-4.4-.07-6.59-.03-.45,0-.91-.03-1.37-.02-.58,0-1.11.18-1.44.62-.61.8-1.35,1.38-2.38,1.59-.32.07-.64.35-.86.61-.46.53-.87,1.12-1.21,1.57-.17,1.05-.34,1.93-.43,2.83-.19,1.94-1.02,3.63-1.74,5.35-.17.4-.5.73-.79,1.05-.39.41-1.07.53-1.49.32-.71-.37-1.14-1.17-.94-1.85.13-.42.32-.83.55-1.2.66-1.06,1.25-2.15,1.57-3.39.06-.26.23-.52.21-.77-.13-1.63.61-2.99,1.07-4.43.06-.17.06-.34.08-.58-.75-.63-1.09-1.46-1.03-2.44.04-.54,0-1.1.1-1.63.17-.99.25-1.97.19-2.99-.03-.35,0-.74.1-1.07.25-.79.31-1.59.29-2.42,0-.84.28-1.6.52-2.37.07-.24.29-.44.47-.64.29-.33.85-.28,1.21.1.12.13.19.31.33.56-.27,1.16-.53,2.39-.85,3.6-.22.88-.4,1.75-.39,2.68,0,.64-.1,1.27-.17,1.9-.09,1-.17,2,.02,3.01.05.24.41.44.63.34,1.26-.54,2.27-1.38,3.01-2.51,1.1-.27,2.14-.54,3.2-.8.63-.68.5-1.7,1.02-2.45.49-.72.77-1.6,1.13-2.42.35-.82.65-1.67,1-2.49.36-.82.77-1.61,1.14-2.39-.16-2.42-.29-4.79-.43-7.18-.02-.27-.06-.55-.03-.82.09-1.09.28-2.16.29-3.25,0-1.09-.09-2.19.12-3.27.33-1.7.13-3.46.04-5.19-.03-.54-.15-1.12-.37-1.62-.55-1.26-.57-2.55-.42-3.8.17-1.45.17-2.91.16-4.37,0-.82.1-1.63.16-2.45.03-.48-.29-.92-.77-1.03-1.9-.43-3.81-.8-5.59-1.51-.47.06-.74.28-.76.68-.05,1.46-.5,2.86-.29,4.35.02.18,0,.37-.05.54-.43,1.78-.29,3.63-.19,5.46.06,1.29-.07,2.56-.13,3.83,0,.27-.02.56-.12.8-.41.92-.4,1.93-.58,2.89-.41,2.06-.56,4.13-.47,6.24.02.56-.12,1.08-.53,1.48-.14.13-.33.15-.49,0-.19-.2-.41-.41-.5-.66-.27-.81-.31-1.63-.2-2.45.21-1.7.44-3.41.66-5.11.05-.36.02-.74.1-1.09.61-2.75.76-5.56.6-8.41-.04-.64.05-1.27.11-1.9.08-.91.25-1.79.29-2.7.03-.81-.07-1.64-.12-2.46-.03-.38-.48-.67-.8-.53-1,.43-1.56,1.15-1.53,2.29,0,.27,0,.55.05.83.27,1.59-.02,3.1-.39,4.59-.38,1.49-.84,2.95-1.16,4.45-.39,1.84-.98,3.66-.78,5.62,0,.09,0,.19,0,.27-.54,1.77-.26,3.61-.22,5.44.03,1-.08,1.99-.15,3.25.12.64.29,1.55.44,2.46.41,2.49.24,4.94-.2,7.35-.22,1.17-.36,2.32-.2,3.53.07.54.04,1.1-.02,1.63-.18,1.62-.41,3.23-.61,4.81-.26.2-.47.35-.66.49-.54-.19-.79-.54-.73-1.06.03-.27.11-.53.16-.79.3-1.23.42-2.48.34-3.78-.06-1,.05-2,.14-3,.13-1.44.33-2.88.44-4.33.16-2,.06-4.01-.5-6.04-.1.1-.26.17-.26.27-.15,3-.29,5.99-1,8.89-.1.43-.05.91-.11,1.36-.26,1.79-.33,3.61-.66,5.4-.41,2.25-.33,3.32.06,6.14-.34.69-.74,1.48-1.17,2.37v1.89c-.34.44-.72.93-1.11,1.41-.14.18-.56.13-.73-.07-.29-.37-.57-.75-.84-1.1-.58-.3-1.12-.17-1.61.04-.76.33-.98.83-.58,1.51.87,1.48,1.47,3.03,1.88,4.66.26,1,.62,1.95,1.3,2.77.38.46.47,1.04.42,1.59-.11,1.09-.24,2.16-.42,3.23-.06.44-.23.88-.41,1.28-.6,1.29-1.2,2.59-1.64,3.96-.13.41-.46.75-.75,1.08-.24.27-.59.38-1.09.36-.22-.16-.56-.34-.84-.59-.47-.41-.61-.97-.42-1.51.29-.85.58-1.7.99-2.49.7-1.36,1.15-2.81,1.61-4.36-.2-1.03-.84-2.02-1.02-3.1-.19-1.11-.69-2.12-1.02-3.19-.37-1.16-1.02-2.2-2.02-3.04-.27.15-.57.23-.7.41-.36.5-.65,1.06-.98,1.59-.19.3-.37.62-.65.83-1.21.93-2.02,2.22-2.99,3.35-1.15,1.34-2.32,2.69-3.17,4.27-.42.79-1.05,1.43-1.72,2.02-.69.59-1.18,1.31-1.37,2.23-.36,1.64-1.38,2.89-2.36,4.15-.54.7-1.14,1.36-1.72,2.02-.17.2-.36.4-.57.55-1.68,1.17-3.35,2.33-5.03,3.49-1.69,1.16-3.6,1.93-5.43,2.83-.05.02-.06.17-.04.24.03.06.17.15.21.14,2.34-.68,4.56-1.57,6.51-3.03,1-.74,2.14-1.27,3.44-2.02.88-1.27,2.41-2.23,3.71-3.42,2.34-2.12,4.17-4.58,5.23-7.61.29-.83.81-1.35,1.71-1.5.38.13.62.39.75.86-.16,1.02-.69,1.95-1.19,2.89-1.04,1.98-2.38,3.75-3.81,5.46-.28.34-.6.65-.87,1-.42.59-.94,1.04-1.59,1.37-.73.37-1.28.95-1.68,1.67-.5.89-1.27,1.43-2.21,1.83-1.23.53-2.41,1.15-3.57,1.83-1.71.99-3.47,1.8-5.4,2.34-2,.56-3.85,1.43-5.5,2.66-.05.31-.09.58-.17.83-.11.33-.17.75-.41.96-1.3,1.12-2.09,2.63-3,4.05-.39.61-.84,1.17-1.46,1.53-1.77,1.04-3.31,2.39-5.05,3.46-2.2,1.35-4.41,2.69-6.66,3.94-1.9,1.05-3.54,2.38-5.03,3.9-.69.7-1.42,1.33-2.26,1.84-.77.47-1.49.97-2.27,1.42-1.25.71-2.41,1.51-3.33,2.62-.16.2-.41.33-.63.49-.29.21-.96.07-1.26-.26-.28-.3-.31-.66-.17-1.02.2-.52.57-.91,1.01-1.21,1.17-.81,2.34-1.61,3.55-2.36,1.83-1.13,3.41-2.54,4.85-4.12.06-.06.04-.17.06-.26.34-.04.57-.18.51-.58.46,0,.91.01,1.09-.51.33-.02.59-.12.54-.53.39.08.7-.07,1.01-.26,2.96-1.8,5.95-3.58,8.89-5.41,1.06-.65,2.06-1.39,3.07-2.12,1.46-1.06,2.6-2.4,3.25-4.12.03-.08.03-.23-.02-.27-.13-.1-.32-.25-.44-.22-1.16.3-2.18.79-2.76,1.92-.46.92-1.3,1.46-2.2,1.85-1.97.87-3.57,2.33-5.59,3.12-.32.12-.61.37-.88.59-1.69,1.3-3.05,2.93-4.31,4.65-.05.06,0,.18,0,.27-.38.02-.55.2-.49.58-.45-.01-.85.11-1.08.52-.28.09-.5.25-.52.58-.33.12-.69.18-.99.36-1.53.89-3.03,1.84-4.56,2.73-1.85,1.06-3.56,2.32-5.31,3.52-1.01.71-1.98,1.49-3.19,1.9-.67.24-1.25.09-1.68-.67.06-.3.15-.64.21-.91.19-.17.31-.34.47-.38,1.06-.24,2.02-.71,2.9-1.29,2.58-1.71,5.16-3.43,7.74-5.15.07-.05.15-.1.21-.15,1.09-.91,2.45-1.44,3.44-2.49.9-.97,1.84-1.89,2.72-2.89,1.43-1.6,3.14-2.83,4.96-3.94,1.44-.88,2.93-1.67,4.4-2.49.94-.53,1.76-1.19,2.45-2,.09-.11.06-.33.09-.5.07-.02.15-.02.21-.05.04-.02.03-.1.04-.15-.17-.04-.23.04-.2.25-.36.01-.74-.05-1.07.05-1.65.49-3.2,1.18-4.55,2.23-2.13,1.65-4.52,2.83-7.13,3.58-1.33.38-2.37,1.21-3.4,1.81-1.36,2.14-2.67,4.15-3.95,6.18-.92,1.46-2.09,2.62-3.7,3.35-.73.33-1.41.77-2.06,1.24-.94.69-1.94,1.23-3.12,1.49-1.09.23-2,.77-2.77,1.55-.63.65-1.39,1.1-2.19,1.5-.97.48-2,.8-3.12.82-.37,0-.73.04-1.1.05-1.64.02-3.31-.18-4.88.35-1.4-.09-2.72.28-4.05.51-2.68.46-5.37.93-8.02,1.45-1.17.23-2.35.23-3.55.13-1.28-.1-2.56-.24-4.07-.38-.22-.11-.63-.33-1.05-.53-.34-.16-.69-.28-.98-.4-.55-.77-1.06-1.48-.39-2.29.56-.43,1.45-.22,1.97-.9.06-2.25.74-4.36,1.65-6.41,1.32-2.94,2.59-5.89,3.88-8.83.29-.66.56-1.32,1.08-1.83.27-.26.57-.4.97-.36.29.03.59.32.51.54-.14.42-.27.85-.45,1.25-1.14,2.42-2.35,4.81-3.34,7.3-.89,2.24-1.83,4.45-2.47,6.81-.11.42-.28.84-.42,1.25q.42.26,3.08-.28c.58-.5.46-1.33.82-1.94.31-.53.48-1.15.71-1.73.47-1.16.92-2.34,1.42-3.48,2.26-5.15,4.53-10.3,6.79-15.45.14-.32.26-.67.41-.99.4-.83.49-1.71.29-2.65-.48-2.38-.53-4.76-.41-7.13.06-1.18.18-2.36.32-3.52.19-1.62.42-3.23.62-4.85.05-.35.09-.73-.19-1.06-.43.19-.59.63-.82.99-.29.45-.56.91-.84,1.36-.23.38-.45.77-.67,1.15-.23.38-.5.74-.96.92-.71,0-1.43-.14-2.15-.36-.74-.23-.9-.1-1.12.67-.49,1.64-.96,3.27-1.46,4.9-.14.42-.33.84-.59,1.2-.58.78-1.3,1.45-1.83,2.28-.18.29-.52.5-.83.66-1.85.87-3.09,2.37-4.08,4.08-.46.78-1.01,1.45-1.73,1.99-.99.74-1.83,1.67-2.9,2.33-.53.31-.92.82-1.35,1.27-.42.44-1.16.51-1.37,1.19.14.08.28.2.42.22.27.04.54.01.82.04.3.03.51.19.65.46.14.26-.03.75-.33.93-.39.23-.76.48-1.17.65-.82.35-1.67.65-2.5.98-1,.4-2.07.68-2.97,1.23-.92.58-1.08,1.8-1.67,2.69-.49.74-.88,1.54-1.31,2.33-.42.78-.9,1.54-1,2.53.26.09.49.23.73.27.46.08.93.06,1.37.18.22.07.44.33.59.55.18.27-.04.74-.3.94-.38.27-.8.38-1.26.38-1.07,0-1.93.45-2.7,1.06-.15.11-.28.25-.33.41-.05.14,0,.32.05.48,0,.04.17.1.22.08.66-.25,1.33-.53,2-.77.42-.15.86-.24,1.3-.36,1.21.35,1.59-.43,1.98-1.3,1-2.28,2.04-4.56,3.09-6.83.21-.49.48-.95.96-1.25.18-.12.58-.13.75.07.11.13.25.34.23.48-.05.35-.16.69-.3,1.01-1.08,2.36-2.2,4.69-3.26,7.05-.42.97-.76,2-1.1,3.01-.04.12.13.32.22.51.51-.06,1.03-.16,1.56-.17.59-.01,1.08.22,1.31.91-.1.2-.17.52-.36.63-1.16.65-2.35,1.26-3.44,2.03-.39.27-.88.17-1.3-.09-.43-.26-.73-.77-.63-1.17.14-.62.35-1.21.46-1.82.04-.22-.14-.49-.22-.74-.98.16-1.74.63-2.54,1.02-.65.31-1.17.8-1.5,1.45-.08.15-.22.27-.34.4-.18.2-.81.15-1-.09-.16-.23-.38-.46-.42-.71-.11-.63-.12-1.28-.19-1.91-.03-.25-.12-.49-.19-.76-1.33.19-1.99,1.19-2.92,2.02-.47-.02-1.01-.02-1.56-.05-.29-.01-.51-.21-.65-.45-.18-.29-.14-.85.06-1.03.27-.23.52-.5.83-.65.84-.42,1.34-1.12,1.74-1.94.55-1.1,1.12-2.2,1.56-3.47-.37-.03-.66-.15-.87-.06-.82.36-1.6.79-2.36,1.18-.63.92-1.21,1.82-1.83,2.68-.13.18-.44.24-.73.38-.24-.54-.45-1.02-.67-1.53-1.38.21-2.32.89-3.02,2.03-.56.92-.94,1.92-1.38,2.89-.07.15-.23.26-.38.35-.06.04-.19.05-.27.01-.15-.07-.36-.16-.41-.29-.25-.55-.02-1.07.05-1.6,0-.16-.05-.34-.1-.49-.05-.15-.51-.16-.76-.04-.31.16-.65.3-.95.48-.61.38-1.19.79-1.81,1.15-.29.18-.64.31-.97.42-.53.19-1.05-.06-1.37-.65-.08-.17-.14-.35-.2-.52,1-.72,2.25-1.04,3.19-1.89.29-.74.57-1.47.87-2.21-.2-.12-.35-.29-.49-.29-.88.01-1.57.35-2.01,1.09-.45.76-.91,1.51-1.31,2.3-.16.3-.14.69-.19,1.04-.27,0-.55.06-.81,0-.24-.07-.45-.27-.64-.38-.18-.83.43-1.4.3-2.15-.49-.34-.89-.13-1.22.18-.24.24-.41.57-.57.88-.36.71-.66,1.47-1.03,2.18-.17.31-.52.47-.92.42-.2-.02-.6-.31-.62-.49,0-.18-.06-.37-.02-.54.07-.35.21-.69.29-1.03.06-.26.11-.53.15-.79.05-.41-.54-.97-.9-.86-1.9.57-3.79,1.15-5.68,1.73-.77.23-1.55.47-2.33.68-.17.04-.39.02-.54-.06-.24-.13-.47-.31-.64-.52-.19-.24-.18-.56,0-.76.54-.58,1.12-1.13,1.58-1.59,3.06-.93,5.98-1.83,9.04-2.76.21-.23.5-.56.84-.94.19,0,.46-.04.72,0,.66.12,1.29.07,1.88-.15.77-.29,1.51-.58,2.25-.89.74-.31,1.47-.6,2.29-.73,1.35-.22,2.57-.8,3.72-1.5.38-.24.73-.5,1-.69.3-.07.47-.14.65-.15,1.45-.08,2.62-.62,3.46-1.77.36-.49.88-.55,1.46-.27.46.22.96.22,1.32-.04,1.45-1.06,3.22-1.53,4.75-2.42,1.07-.62,2.12-1.33,3.44-1.45,2.89-1.19,5.84-2.31,8.47-3.99,1.94-1.24,3.67-2.79,5.35-4.36.39-.36.65-.84.95-1.28.45-.65.91-1.31,1.35-1.98.59-.91,1.33-1.67,2.24-2.24,1.5-.92,2.53-2.21,3.07-3.9.42-1.29.96-2.51,1.79-3.57.63-.8.77-1.79.96-2.82.22-.24.43-.53.7-.74.52-.41.84-.92.96-1.56.41-2.02,1.59-3.57,2.87-5.05.4-.47.91-.85,1.44-1.17.99-.59,2.04-1.11,3.06-1.65.39-.21.83-.36,1.17-.63,1.09-.82,2.35-1.29,3.64-1.66,1.05-.31,2-.76,2.82-1.37.34-.04.61-.11.88-.1,1.05.02,1.95-.31,2.77-.9.58-.41,1.18-.8,1.83-1.11,1.44-.71,2.9-1.38,4.36-2.05.32-.15.68-.22,1.07-.35.5.23,1.03.42,1.51.69.49.28.9.69,1.4.97.81.46,1.64.95,2.52,1.27,2.29.83,4.32,2.3,6.68,2.9.81.2,1.62.35,2.57.55.27.2.65.48,1.01.77.46.36.83.81,1.02,1.34.52,1.42,1.29,2.7,2.2,3.91.29.38.54.78.76,1.2.69,1.35,1.61,2.53,2.62,3.67,1.6,1.85,3.19,3.74,4.77,5.58.39.94.16,1.86.29,2.77.16,1.15.57,2.15,1.59,2.72.68.27,1.12-.21,1.71-.21.18.14.41.29.66.48.11.72.22,1.44.31,2.05.61.82,1.36,1.21,2,1.66.36-.02.65.01.89-.06,1.47-.46,2.86-1.08,4.15-1.85,1.6-.96,3.17-1.95,4.92-2.65.33-.13.65-.3.97-.47.72-.38,1.32-.9,1.74-1.61.37-.6.72-1.23,1.12-1.82,1.51-2.24,2.46-3.31,4.78-5.32.55-.48,1-1.01,1.26-1.69.52-1.34,1.21-2.58,1.98-3.78.18-.3.41-.6.5-.94.27-1.09.91-1.91,1.69-2.68.3-.31.53-.7.73-1.09.87-1.78,2.15-3.27,3.26-4.87.74-1.05,1.76-1.76,3.06-2.02,2.28-.44,4.25-1.41,6.16-3.39.42-.65.78-1.88,1.39-2.95.92-1.61,1.27-3.3,1.24-5.18-.02-1.47.24-2.9.66-4.28.39-1.29.75-2.59,1.1-3.89.35-1.31.68-2.62.61-4.01-.07-1.3.1-2.56.39-3.79.65-2.84.67-5.76.55-8.69-.07-1.65-.24-3.3-.06-4.94.06-.43-.03-.92-.17-1.35-.33-1.02-.28-1.98-.07-2.98.21-.97.33-1.96.75-2.86.15-.32.31-.69.28-1.03-.11-.89.15-1.59.65-2.27.2-.28.31-.64.42-.98.41-1.26,1.26-2.15,2.35-2.8,1.46-.87,2.83-1.82,4.01-3.04.53-.56,1.32-.54,2.06-.3.43.14.85.4,1.26.61.92.47,1.83.95,2.77,1.41.64.31,1.26.11,1.65-.48.54-.82,1.06-1.64,1.68-2.58.51-2.43.54-5.08.59-7.72.03-.91-.13-1.83-.21-2.74-.07-.76.05-1.46.51-2.05.64-.85,1.26-1.72,1.95-2.53,2.23-2.64,4.66-5.11,7.36-7.28,1.03-.83,2.14-1.58,3.25-2.31.27-.17.7-.17,1.05-.13.44.06.88.25,1.36.4.26-.27.49-.53.76-.75.2-.17.43-.3.67-.42.45-.21,1.29.3,1.25.78-.05.54-.17,1.07-.21,1.61-.06.5.21.89.63,1.16,1.04.68,2.2,1.05,3.36,1.42.62.2,1.27.22,1.91.12.53-.09,1.09-.14,1.63-.13.37,0,.74.1,1.1.21.25.09.49.27.75.41.47.91.95,1.83,1.48,2.86.11.79.27,1.7.37,2.61.1.82.58,1.59.5,2.44,0,.09,0,.19.04.27.69,1.58.68,3.25.92,4.88.11.82.44,1.62.58,2.43.13.81.54,1.59.49,2.43-.03.38.19.71.44,1,.38.44.62.94.79,1.48.46,1.4,1.09,2.77,1.17,4.26.04.56.39,1.06.87,1.39.78.53,1.56,1.1,2.4,1.51,1.79.87,3.44,1.96,5.02,3.17.38.28.78.53,1.28.87.56,1.28,1.05,2.68,1.15,4.16.1,1.38.21,2.75.31,4.13.02.27.06.57,0,.82-.37,1.31-.26,2.71-.42,4.05-.3,2.36-.26,4.72.17,7.11.06.36.05.73.06.96.48.93,1.18,1.42,1.97,2.04,1.34.25,2.6,1.14,3.98,1.67,1.24.47,2.38,1.13,3.52,1.77.93.52,1.63,1.27,2.09,2.23.21.43.41.84.41,1.32.02.37,0,.75.12,1.09.56,1.79.54,3.65,1.1,5.44.61,1.99.71,4.03.53,6.02-.14,1.51.08,2.91.76,4.29.21.42.41.86.39,1.32-.04,1.31.55,2.53.76,3.79.19,1.2.57,2.34,1.05,3.47.21.51.39,1.07.42,1.6.07,1.34.7,2.5,1.32,3.66.58,1.1,1.34,2.06,2.54,2.57.17.07.31.21.49.3,1.14.63,2.35,1.19,3.44,1.92,1.01.68,1.91,1.53,2.99,2.15.8.46,1.46,1.2,2.24,1.72.78.52,1.65.91,2.47,1.38.83.47,1.56,1.09,2.06,1.9.3.48.58.98.76,1.5.63,1.85,1.23,3.71,1.68,5.61.13.54.16,1.09.24,1.64.08.54.14,1.09.27,1.64.19.84.55,1.55,1.46,1.94.43.19.76.65.66,1.13-.16.88.16,1.64.64,2.35.85,1.25,1.74,2.47,2.65,3.75.57.26,1.19.47,1.74.81.47.29.88.71,1.3,1.1.69.64,1.47,1.18,2.26,1.7,1.1.73,2.22,1.4,3.24,2.27.7.61,1.61.95,2.81,1.62.56.44,1.17,1.42,1.93,2.26.76.84,1.56,1.65,2.43,2.57.22.57.5,1.26.75,1.89.8,1.08,1.83,1.76,2.93,2.3.84.42,1.71.78,2.55,1.18.51.24,1.08.41,1.49.77,1.03.89,2.25,1.37,3.42,1.96,1.43.72,2.86,1.42,4.29,2.14.73.37,1.16.9,1.14,1.77,0,.44.15.9.24,1.35.08.41-.06.73-.38.93-.3.2-.68.2-1.05.03-.86-.39-1.63-.92-2.29-1.63-.39-.42-.83-.78-1.36-.99-.22-.09-.6.05-.66.3-.06.26-.1.53-.17.79-.06.26-.13.52-.24.77-.14.35-.79.69-1.12.56-.46-.18-.79-.5-.92-1-.12-.47-.06-.91.06-1.35.09-.34.15-.69.19-1.04,0-.08-.05-.18-.09-.31-.19-.16-.4-.34-.63-.51-.92-.68-1.5-.64-1.84.46-.1.33-.29.64-.46.95-.15.25-.66.4-.97.31-.76-.23-1.33-.68-1.64-1.44-.31-.8-.38-1.62-.44-2.44-.09-1-.54-1.58-1.88-1.59-.24,0-.52.31-.44.54.18.62.38,1.23.58,1.86-.04.16-.05.35-.12.51-.19.43-.51.76-1.01.74-.64-.03-1.37-.59-1.5-1.12-.24-.99-.49-1.98-.64-2.98-.06-.43.12-.88.19-1.39-.37-.5-.76-1.03-1.16-1.55-.23-.3-.62-.47-.7-.32-.07.14-.19.29-.19.44,0,1.83-.02,3.66.24,5.49.06.45.07.91.1,1.37,0,.3-.17.5-.39.65-.27.19-.79.14-1.03-.1-.26-.26-.54-.54-.69-.86-.2-.4-.28-.87-.42-1.3-.23.05-.42.08-.57.14-.91.34-1.36.08-1.46-.9-.07-.74-.1-1.47-.17-2.21-.16-1.56-.23-3.13-.52-4.67-.25-1.33-.29-2.54.47-3.66.19-.3.05-.75-.28-.97-.38-.27-.78-.53-1.19-.74-.13-.07-.34.03-.51.06-.27.39-.3.84-.29,1.3,0,.55.07,1.1.04,1.64,0,.24-.19.49-.37.68-.27.32-.92.27-1.23-.07-.27-.29-.46-.62-.49-.99-.05-.64-.06-1.28-.07-1.92,0-.64.03-1.28-.02-1.92-.05-.74-.54-1.15-1.22-1.38-.25-.09-.59.12-.57.36.05.64.14,1.28.14,1.92,0,.91-.04,1.82-.12,2.72-.03.36-.29.63-.68.71-.27.06-.76-.18-.94-.5-.17-.33-.38-.67-.44-1.02-.27-1.56-.32-3.11.13-4.62-.36-.65-1.17-.49-1.81-1.11-.29-.33-.71-.83-1.12-1.3-.7,0-.7,0-.78.77.35.41.72.83,1.08,1.23.06.31.16.58.16.85.04,1.37.05,2.75.06,4.11,0,.3-.54.56-.84.46-.67-.24-1.15-.69-1.27-1.39-.15-.81-.2-1.64-.28-2.33-.5-.8-1.22-1.08-1.83-1.5-.49-.33-.83-.77-.97-1.34-.02-.09-.05-.18-.06-.27-.38-2.15-1.03-2.77-3.38-2.94-.08,0-.18.01-.27.02-.35.15-.54.44-.68.78-.13.33-.26.67-.42.97-.2.38-.79.59-1.17.46-.42-.16-.82-.66-.78-1.07.05-.53.17-1.06.25-1.59.04-.25-.15-.49-.45-.63-.08-.04-.18-.08-.26-.11-.71-.26-1.13-.15-1.39.39-.16.32-.26.67-.41.99-.14.29-.61.53-.88.43-.37-.12-.66-.36-.77-.75-.1-.36-.13-.73-.19-1.09-.06-.27-.06-.57-.18-.8-.13-.22-.37-.49-.59-.54-.9-.2-1.82-.32-2.65-.45-.49.3-.63.73-.68,1.18-.06.53-.05,1.09-.09,1.63-.03.27-.09.53-.16.79-.13.48-.97.65-1.38.29-.38-.32-.65-.73-.65-1.2,0-.72.07-1.43.12-2.18-.26-.15-.48-.34-.73-.42-.44-.16-1.03.13-1.06.52-.06.73-.07,1.45-.12,2.18-.04.65-.28,1.22-.76,1.66-.3.28-1.02.16-1.2-.22-.12-.26-.25-.51-.29-.77-.07-.46-.09-.92-.1-1.37,0-.46.02-.91.04-1.34-.17-.16-.29-.29-.43-.42-.36,0-.73-.03-1.09,0-.87.08-1.07.32-1.14,1.17-.11,1.27-.25,2.53-.38,3.79-.03.18-.12.34-.18.51-.09.29-.51.57-.84.56-.46-.02-.91-.4-1.01-.82-.27-1.21-.18-2.37.1-3.52.09-.38-.06-.71-.42-.93-.77-.11-1.38.23-1.97.4-.08.31-.17.48-.17.65.05.64.11,1.28.18,1.92.09,1.1.13,2.19-.09,3.27-.17.78-.13,1.62-.22,2.43-.02.13-.2.27-.35.35-.17.11-.61,0-.76-.15-.35-.35-.57-.77-.62-1.23-.06-.64-.09-1.28-.11-1.92-.02-.55-.03-1.1,0-1.65.05-.93-.1-1.83-.24-2.68-.28-.41-.61-.52-1-.42-.62.16-1.19.4-1.56,1.17.03.31.07.76.08,1.22,0,.64.09,1.31-.05,1.91-.38,1.58-.26,3.27-.84,4.8-.3.77-.18,1.62-.22,2.43-.06,1.27-.02,2.57-.41,3.78-.04.14-.22.25-.37.32-.17.08-.6-.15-.71-.35-.04-.08-.12-.16-.15-.24-.07-.27-.17-.55-.17-.81.02-1.73.02-3.47.11-5.19.11-1.82.31-3.63.44-5.44.04-.54-.06-1.09-.09-1.65-.03-.32-.44-.76-.71-.8-.28-.05-.72.21-.86.52-.14.32-.33.66-.35,1-.09,2-.34,3.98-.7,5.94-.06.35-.07.73-.05,1.09.06.84-.07,1.63-.25,2.43-.18.88-.28,1.77-.25,2.7.03,1.09-.11,2.18-.21,3.25-.03.25-.22.49-.37.71-.17.26-.72.3-.99.09-.31-.24-.59-.55-.57-.92.06-1.36.15-2.72.27-4.07.26-2.71.59-5.41.79-8.13.09-1.25.06-2.54-.21-3.75q-1.78-1.12-2.81-.71c-.09.15-.22.29-.26.45-.29,1.41-.58,2.83-.84,4.25-.12.62-.18,1.26-.29,1.88-.32,1.68-.57,3.39-.51,5.14,0,.26-.1.52-.16.78-.03.18-.43.45-.64.37-.24-.09-.55-.23-.65-.44-.17-.32-.28-.7-.29-1.06-.03-1.19-.08-2.39.05-3.55.09-.82.18-1.62.19-2.44.02-.73.14-1.45.19-2.17.06-.82.15-1.63.17-2.44.03-.72-.61-1.16-1.34-.94-.52.15-1.04.31-1.52.54-.84.4-1.41,1.02-1.71,1.94-.54,1.62-.94,3.28-1.11,5-.09,1-.2,1.98-.6,2.9-.13.29-.69.31-.94.03-.33-.38-.53-.8-.52-1.27,0-.55.08-1.08.12-1.63.06-.72.14-1.45.15-2.17,0-.24-.18-.5-.28-.75-.9.02-1.59.43-2.25.85-.23.31-.26.66-.19,1.04.16.94.04,1.82-.35,2.66-.19.41-.64.68-1.1.58-.27-.06-.54-.12-.8-.22-.26-.1-.49-.25-.68-.34-.39-.54.12-.89.06-1.34-.06-.04-.17-.16-.19-.14-.47.25-.99.44-1.37.79-1.21,1.08-2.6,1.86-3.98,2.67-.78.45-1.59.76-2.52.9-.8.12-1.59.38-2.31.71-.89.41-1.76.83-2.8.89-.34.02-.68.22-.99.39-.77.44-1.51.94-2.27,1.4-1.52.93-3.04,1.85-4.57,2.76-.47.28-1.06.19-1.53-.23-.44-.39-.8-.84-.69-1.45.16-.92.53-1.72,1.42-2.13.17-.07.38-.1.49-.22,1.2-1.23,2.89-1.72,4.37-2.78.18-.35.4-.85.7-1.27.3-.44.7-.8,1.07-1.19,1.34-1.42,2.66-2.86,4.01-4.27.42-.45.87-.88,1.34-1.29.28-.24.64-.33,1.01-.22.39.11.61.41.75.78-.07.78-.61,1.26-1.11,1.77-.94.94-1.89,1.87-2.84,2.8-.18.19-.33.41-.29.71-.19-.05-.33,0-.39.18,0,.03.12.16.17.15.19-.04.25-.18.17-.37.26-.01.58.06.79-.05,1.64-.88,3.4-1.58,4.74-2.92.22-.23.63-.34.97-.37.56-.05,1.07-.18,1.53-.46,1.07-.64,2.26-1.08,3.18-1.94.13-.12.27-.24.43-.3,1.78-.69,3.14-1.98,4.62-3.11.91-.7,1.83-1.4,2.89-1.9.4-.19.8-.41,1.24-.49,2.16-.35,4.11-1.24,6.15-1.92.77-.27,1.55-.45,2.48-.19.61.47,1.25,1.02,1.95,1.5.82.57,1.71.81,2.62.42,1.02-.44,2.16-.28,3.2-.53.97-.23,1.87-.68,2.85-.78,1.28-.13,2.45-.61,3.69-.82,2.49-.44,4.96-.98,7.52-1.02.55-.32,1.09-.65,1.64-.93.66-.33,1.37-.4,2.12-.17.08.03.18.06.26.09q2.73.84,5.14.9c1.4.51,2.79,1.05,4.2,1.54,1.23.42,2.47.8,3.75,1,1,.16,1.96.55,2.94.83.7-.24,1.4-.16,2.12.05.02.07.03.15.08.21.02.03.1.03.16.04.02-.16-.07-.23-.28-.21Z"/>
      <path class="cls-1" d="M221.24,40.56c.47.2.76.53.81,1.04.02.18.06.38.03.55-.48,2.15-.2,4.36-.07,6.55.11,1.92.35,3.84.02,5.74-.06.35-.04.73,0,1.09.1,1.29.07,2.56-.19,3.81-.16.71-.16,1.45.06,2.18.78,2.62.78,5.28.97,7.93.07.92.04,1.83.12,2.75.07.91.11,1.86.39,2.73.6,1.9.69,3.81.76,5.73.06,1.28.18,2.56.28,3.84.23,3.2.61,6.4.5,9.59-.03.74.15,1.46.22,2.18.07.73.16,1.46.14,2.19,0,.34-.19.68-.36.99-.13.22-.34.38-.66.36-.31-.02-.75-.34-.84-.64-.06-.18-.16-.35-.17-.53-.12-2.65-.68-5.3-.31-7.94.11-.79-.04-1.64-.13-2.46-.09-.82-.25-1.64-.4-2.46-.21-1.19-.29-2.38-.15-3.56.23-1.83.03-3.61-.5-5.43-.44-1.5-.85-3.05-.88-4.62,0-.55-.06-1.1-.02-1.65.17-2.1.03-4.17-.4-6.28-.44-2.17-.62-4.37-.3-6.56.14-.98.05-2,.06-3,.02-.73.05-1.46.06-2.18,0-.36.06-.72.04-1.09-.23-2.56-.25-5.12-.37-7.68-.03-.55-.05-1.1.03-1.63.11-.74.42-1.38,1.26-1.53Z"/>
      <path class="cls-1" d="M206.44,87.31c.03-.73.04-1.46.06-2.19.06-1.83-.02-3.66-.31-5.49-.17-1.09-.32-2.19-.4-3.29-.06-.92-.21-1.83-.29-2.75-.13-1.38-.26-2.75-.03-4.11.05-.27.1-.54.08-.81-.18-2.39.22-4.73.22-7.11,0-2.19.21-4.37.42-6.54.11-1.08.1-2.18.12-3.28.02-.67.21-1.25.65-1.72.17-.18.43-.29.67-.39.18-.08.65.21.68.39.05.27.16.56.11.8-.35,1.96-.37,3.98-.58,5.96-.2,1.89-.52,3.77-.41,5.71-.34,2.34-.02,4.75-.28,7.1-.06.55.05,1.09.17,1.64.09.44.14.92.05,1.35-.11.64-.13,1.24.06,1.89.15.53.26,1.09.3,1.63.26,2.75.48,5.5.72,8.24-.31,2.54-.05,5.1-.05,7.66,0,.55,0,1.1-.08,1.64-.03.26-.16.54-.34.71-.17.17-.45.27-.7.29-.28.02-.74-.5-.72-.77.19-2.18-.18-4.39-.14-6.59Z"/>
      <path class="cls-1" d="M201.26,73.23c-.22-.13-.52-.22-.68-.41-.42-.52-.71-1.11-.75-1.78-.05-.73-.16-1.48-.08-2.19.25-2.17.09-4.38.3-6.54.08-.83,0-1.63-.17-2.46-.18-.9-.29-1.82-.37-2.73-.04-.45-.05-.93.05-1.36.77-3.13.51-6.32-.02-9.53-.05-.36-.08-.73-.05-1.09.15-1.81.25-3.62.52-5.41.11-.71.23-1.43.41-2.12.14-.53.41-.98.84-1.33.26-.21.75-.17.96.16.15.23.3.5.3.75.02.35-.04.73-.17,1.05-.73,1.88-.61,3.92-.83,5.9-.05.44.04.92.13,1.37.37,1.73.53,3.45.27,5.18-.05.44,0,.91,0,1.37s.09.94,0,1.37c-.48,1.95-.12,4.01-.44,5.97-.05.35.02.74.1,1.09.29,1.19.41,2.36.16,3.54-.08.43.03.91.03,1.37,0,.91.11,1.85-.06,2.72-.22,1.2-.18,2.33.23,3.51.23.67.08.91-.67,1.62Z"/>
      <path class="cls-1" d="M158.16,124.75c-.06.16-.09.47-.27.63-.57.54-1.19,1.06-1.82,1.54-1.26.97-2.54,1.91-3.82,2.87-1.33,1.02-2.48,2.26-3.87,3.22-.5.34-.88.85-1.32,1.3-1.03,1.09-2.04,2.2-3.1,3.26-1.26,1.24-2.57,2.4-4.24,3.14-1.14.5-2.14,1.26-3.23,1.86-.7.38-1.45.71-2.19.99-.32.12-.71.09-1.07.09-.56-.01-.98-.75-.7-1.23.14-.22.3-.45.52-.59.29-.18.65-.28.99-.41,3.2-1.26,5.91-3.19,8.37-5.54,2.04-1.95,4-3.99,6.21-5.77,1.11-.88,2.12-1.88,3.19-2.8,1.42-1.2,2.87-2.36,4.53-3.24.23-.12.51-.16.77-.21.38-.07,1,.4,1.04.87Z"/>
      <path class="cls-1" d="M212.58,72.54c.06.97.08,1.34.11,1.71.06.91.23,1.83.18,2.73-.05.89-.32,1.76-.48,2.65-.13.72-.26,4.44-.12,5.16.25,1.26.1,2.56.71,3.79.19.4.17.9.23,1.36.24,1.73.4,3.47.74,5.19.22,1.17.23,2.38.28,3.56.02.74-.2,1.43-.54,2.07-.08.14-.25.25-.39.36-.23.18-.51.18-.77.06-.27-.12-.53-.36-.49-.63.39-3-.24-6.02-.52-9.02-.13-1.36-.51-2.72-.77-4.08-.64-3.35-.72-3.37-.25-6.24.38-2.35.3-4.7.07-7.08-.09-.82-.19-1.65-.23-2.47-.05-.85.23-1.61.73-2.25.16-.2.41-.31.65-.43.18-.09.64.16.68.36.06.27.16.54.16.8.03,1,.03,2.01.03,2.41Z"/>
      <path class="cls-1" d="M106.22,143.3c.58-.27,1.07-.48,1.55-.73,1.94-.97,3.6-2.3,4.83-4.09,1.15-1.7,2.57-3.16,4.06-4.57,1.35-1.28,2.73-2.53,4.07-3.82,1.74-1.68,3.77-2.95,6-3.93.81-.36,1.64-.7,2.32-.98.64.06,1.06.24,1.4.6.25.26.24.77-.03.98-.14.11-.26.26-.41.33-.98.42-1.96.86-2.96,1.25-2.05.79-3.75,2.02-5.21,3.61-1.02,1.11-2.08,2.21-3.25,3.16-1.38,1.14-2.57,2.44-3.65,3.86-1.09,1.43-2.37,2.63-3.87,3.61-.81.54-1.57,1.16-2.35,1.74-.43.32-.93.51-1.48.57-.84.1-1.22-.39-1.02-1.6Z"/>
      <path class="cls-1" d="M135.67,129.21c0,.39-.17.72-.45.94-.49.38-1,.72-1.54,1.05-3.16,1.99-6.13,4.24-8.97,6.64-.27.23-.55.44-.81.68-.76.74-1.46,1.56-2.29,2.21-.77.58-1.74.9-2.53,1.47-1.08.78-2.27,1.4-3.2,2.37-.43.44-.95.81-1.47,1.14-.29.18-.67.23-1.02.27-.38.04-.71-.16-.93-.5-.17-.26-.12-.8.08-1.02.26-.25.49-.52.77-.73,1.31-.92,2.59-1.87,3.95-2.71,1.83-1.12,3.47-2.47,5.06-3.88,1.32-1.18,2.71-2.28,4.1-3.37.28-.22.58-.41.83-.67,1.28-1.36,2.92-2.29,4.42-3.39.79-.59,1.69-.99,2.67-1.19.6-.12,1.07.13,1.34.71Z"/>
      <path class="cls-1" d="M141.82,145.89c-.08-.03-.18-.04-.26-.1-.56-.44-.72-.94-.42-1.39.79-1.18,1.73-2.24,2.89-3.07,2.44-1.75,4.91-3.47,7.38-5.2,1.08-.76,2.22-1.46,3.26-2.27,1.75-1.36,3.57-2.62,5.17-4.14.58-.54,1.26-.98,1.94-1.4.53-.33,1.12-.57,1.78-.55.6,0,1.08.21,1.31.83-.06.37-.23.72-.56.85-1.84.77-3.29,2.06-4.83,3.25-2.38,1.83-4.89,3.51-7.35,5.25-1.01.71-2.03,1.42-3.1,2.06-1.38.82-2.5,1.98-3.77,2.93-.33.26-.53.69-.76,1.06-.82,1.35-.81,1.36-2.68,1.91Z"/>
      <path class="cls-1" d="M144.61,129.66c-.07.56-.31,1.04-.8,1.32-.54.32-1.08.63-1.63.91-2.54,1.28-4.94,2.81-7.26,4.44-1.01.71-1.94,1.54-2.87,2.36-1.61,1.4-3.36,2.6-5.31,3.5-1.22.56-2.41,1.15-3.37,2.08-.31-.07-.63-.05-.83-.19-.54-.38-.65-1.05-.29-1.43.17-.19.35-.41.57-.55.75-.48,1.48-.98,2.28-1.37,1.86-.9,3.51-2.09,5.06-3.42,2.56-2.19,5.37-4.04,8.28-5.76,1.3-.77,2.57-1.58,3.87-2.35.29-.18.65-.28,1-.33.6-.08,1.09.14,1.31.78Z"/>
      <path class="cls-1" d="M167.48,132.86c-.09.21-.14.53-.32.66-1.81,1.27-3.27,2.99-5.33,3.94-.24.11-.46.27-.7.39-1.25.67-2.08,1.91-3.41,2.52-1.23.56-2.19,1.5-3.23,2.32-.84.66-1.61,1.37-2.28,2.21-.26.34-.65.58-1.01.84-.25.18-.7.08-1-.2-.29-.26-.48-.75-.36-.99.17-.32.3-.67.54-.91,1.59-1.55,3.24-3.03,5.04-4.32,2.16-1.54,4.37-3.03,6.54-4.57.94-.66,1.82-1.42,2.73-2.12.51-.39,1.1-.59,1.76-.55.26.02.53.13.76.27.13.08.18.3.28.51Z"/>
      <path class="cls-1" d="M187.03,128.37c-.32-.07-.61-.55-.5-.86.13-.33.22-.69.42-.97,1.59-2.23,3.01-4.59,5-6.5.57-.55,1.08-1.18,1.57-1.8.82-1.04,1.67-2.05,2.23-3.28.37-.81.93-1.51,1.61-2.09.19-.17.43-.32.68-.39.35-.09.72-.03,1.03.26.28.25.41.71.25.99-.52.83-.96,1.71-1.56,2.46-1.38,1.72-2.65,3.54-4.22,5.09-.31.31-.6.66-.84,1.03-1.35,1.98-3.08,3.64-4.54,5.52-.15.2-.39.36-.62.48-.14.08-.34.05-.52.06Z"/>
      <path class="cls-1" d="M182.25,134.76c-.05.16-.07.58-.3.8-1.33,1.28-2.55,2.7-4.09,3.75-.59.4-1.21.79-1.69,1.29-1.49,1.54-3.37,2.6-4.99,3.98-.6.51-1.33.87-2,1.29-.22.13-.76-.06-1-.35-.27-.31-.3-.72-.07-1,.16-.21.31-.44.51-.61.61-.53,1.18-1.08,1.85-1.52,1.86-1.22,3.48-2.73,5.19-4.13,1.02-.84,1.94-1.82,2.89-2.75.56-.56,1.12-1.14,1.87-1.46.31-.13.69-.18,1.04-.2.3-.02.76.42.79.91Z"/>
      <path class="cls-1" d="M189.52,134.45c-.8,1.37-1.59,2.63-2.49,3.83-1,1.35-2.27,2.45-3.4,3.68-.17.19-.39.37-.62.5-1.16.63-2.3,1.31-3.6,1.69-.29.08-.66-.14-.9-.52-.13-.22-.1-.6.06-.75.27-.23.51-.51.81-.66,2.63-1.28,4.5-3.34,6.08-5.72.44-.66.8-1.37,1.25-2.03.25-.36.57-.67.89-.96.59-.53,1.27-.34,1.79.47.05.07.05.17.12.47Z"/>
      <path class="cls-1" d="M158.08,117.04c.13.38.12.76-.2.98-.51.35-1.02.7-1.59.96-.88.42-1.75.88-2.49,1.53-.33.29-.71.53-1.09.76-1.36.85-2.7,1.7-4.08,2.53-.53.31-1.04.71-1.7.75-.26.02-.53-.03-.75-.28-.22-.26-.3-.82-.14-1.02.1-.14.18-.32.32-.41.91-.57,1.68-1.3,2.46-2.02,2.19-2.01,4.82-3.27,7.7-4.1.25-.07.54-.05.81-.06.08,0,.18.04.27.08.16.09.31.2.46.3Z"/>
      <path class="cls-1" d="M176.44,130.38c-.51-.44-.48-.98-.26-1.48.44-.98.99-1.9,1.7-2.68,1.26-1.37,2.42-2.81,3.46-4.35.39-.58.93-1.06,1.43-1.56.34-.35,1.06-.3,1.52.05.45.35.69,1.03.51,1.48-.1.24-.19.5-.35.71-1.62,1.98-3.25,3.95-5.16,5.68-.58.53-1.08,1.15-1.63,1.72-.32.32-.69.55-1.22.44Z"/>
      <path class="cls-1" d="M50.79,144.65c-.39-.11-.65-.38-.74-.76-.14-.55-.14-1.1.05-1.62.43-1.18.81-2.38,1.32-3.52.84-1.88,1.77-3.71,2.64-5.57.38-.82.86-1.56,1.48-2.19.12-.12.28-.22.41-.33.18-.15.59-.11.75.07.2.24.22.5.14.76-.05.17-.13.33-.21.49-.5.95-1,1.89-1.48,2.84-.73,1.42-1.46,2.86-2.18,4.29-.72,1.44-1.33,2.92-1.39,4.6-.02.47-.29.83-.78.94Z"/>
      <path class="cls-1" d="M160.46,144.73c-.49-.01-.82-.18-1.11-.45-.27-.26-.39-.77-.21-1.01.26-.35.49-.76.82-1.02,1.46-1.16,2.92-2.31,4.54-3.25.54-.33,1.15-.45,1.83-.24.41.13.69.83.42,1.12-.3.32-.61.65-.95.93-.56.44-1.14.84-1.72,1.25-.51.37-.97.76-1.24,1.36-.47,1.03-1.49,1.15-2.38,1.32Z"/>
      <path class="cls-1" d="M51.76,134.06c.02.08.06.18.05.26-.05.26-.1.53-.21.77-1.28,2.71-2.57,5.43-3.86,8.14-.1.22-.5.41-.68.27-.2-.15-.36-.38-.53-.58-.05-.06-.05-.18-.05-.26,0-.18,0-.37.05-.53,1.05-2.74,2.3-5.36,3.77-7.88.13-.21.36-.39.57-.52.14-.08.36-.08.51-.02.16.06.27.23.4.36Z"/>
      <path class="cls-1" d="M166.46,110.66c-.02.4-.24.68-.51.91-.19.17-.43.31-.68.41-1.1.39-2.18.8-3.17,1.42-.15.09-.35.16-.52.13-.25-.04-.53-.14-.74-.3-.1-.08-.12-.35-.08-.51.17-.62.46-1.17.93-1.59.96-.83,2.09-1.33,3.37-1.51.48-.07.91.14,1.22.55.1.14.12.33.18.5Z"/>
      <path class="cls-1" d="M169.72,137.21c.14-.31.23-.79.5-1.1.74-.87,1.53-1.69,2.34-2.51.31-.33.76-.43,1.24-.29.39.12.57.44.74.83-.05.22-.04.54-.18.73-.85,1.12-1.7,2.25-2.92,3-.07.05-.15.1-.22.14-.51.31-.95.17-1.36-.43-.05-.08-.06-.17-.14-.38Z"/>
      <path class="cls-1" d="M134.51,127c-.22-.11-.4-.16-.54-.27-.32-.25-.43-.72-.24-.97.92-1.2,2.08-2.11,3.37-2.89.21-.13.78.01,1.01.23.35.31.46.92.22,1.23-.05.07-.08.16-.14.22-1.11,1.01-2.32,1.86-3.69,2.44Z"/>
      <path class="cls-1" d="M191.83,69.64c.02.17.05.27.03.35-.22,1.15-.44,2.3-.7,3.44-.06.24-.28.44-.59.48-.29.03-.78-.25-.89-.54-.09-.27-.2-.53-.23-.8-.13-1.14.27-2.14.71-3.11.07-.15.25-.26.4-.35.24-.14.52-.21.77-.02.21.17.37.4.52.56Z"/>
      <path class="cls-1" d="M196.88,57.53c-.03.42-.04.77-.07,1.13-.02.17-.09.34-.15.5-.16.45-.77.91-1.19.88-.43-.03-.88-.62-.94-1.22-.06-.73-.03-1.43.39-2.04.19-.3.45-.51.82-.59.45-.11,1,.19,1.05.6.04.27.07.53.09.74Z"/>
      <path class="cls-1" d="M180.09,145.96c0,.19.04.29.02.37-.17.91-.63,1.62-1.48,2.04-.33.16-.73.09-.99-.19-.28-.3-.38-.64-.25-.99.28-.77.78-1.36,1.48-1.75.2-.11.55-.11.77,0,.21.11.33.4.44.54Z"/>
      <path class="cls-1" d="M165.59,36.4c-.02.07-.05.15-.07.22.05-.05.09-.1.14-.15l-.06-.06Z"/>
      <path class="cls-1" d="M165.65,36.46c-.02-.24.06-.34.23-.32-.02.06,0,.15-.05.18-.06.04-.17.05-.25.07l.06.06Z"/>
      <path class="cls-1" d="M81.32,137.24c.06-.37.12-1,.3-1.59.6-1.87,1.24-3.72,2.12-5.47.86-1.74,1.74-3.48,2.39-5.34.18-.5.42-.99.71-1.42.24-.35.61-.62.93-.91.18-.16.54-.12.76.04.19.16.35.56.3.74-.03.08,0,.19-.06.26-1.01,1.67-1.51,3.59-2.37,5.34-.86,1.74-1.58,3.57-2.32,5.36-.45,1.06-.88,2.14-.99,3.32-.02.24-.23.47-.39.67-.19.27-.78.42-.94.23-.17-.21-.29-.47-.41-.71-.04-.07-.02-.18-.04-.53Z"/>
      <path class="cls-1" d="M95.89,121.76c-.02.12.02.42-.09.64-.63,1.28-1.24,2.56-1.95,3.8-1.36,2.4-2.36,4.99-3.49,7.5-.37.8-.31,1.79-.9,2.5-.15.17-.52.28-.74.15-.53-.29-.88-.93-.77-1.37.05-.17.07-.36.14-.51.73-1.62,1.33-3.3,2.14-4.89.93-1.82,1.74-3.71,2.58-5.57.46-.99,1.1-1.83,1.95-2.5.14-.11.3-.16.46-.24.18-.1.63.12.68.5Z"/>
      <path class="cls-1" d="M87.73,119.87c-.27-.27-.48-.59-.45-.96.05-.53.04-1.12.26-1.57,1.15-2.39,2.37-4.75,3.83-6.95.18-.29.48-.53.77-.7.2-.13.51-.13.76-.14.25,0,.49.35.5.56,0,.49-.25.85-.45,1.23-.67,1.24-1.38,2.46-2.07,3.69-.77,1.38-1.62,2.72-2.08,4.28-.14.44-.51.7-1.07.54Z"/>
      <path class="cls-1" d="M105.79,96.93c.08.32.36.43.62.56.02.35.03.71.06,1.07.07.71-.29,1.16-.82,1.52-.44.3-1.12.07-1.31-.48-.12-.34-.19-.69-.23-1.04-.06-.58.13-1.05.7-1.26.32-.12.66-.24.98-.36Z"/>
      <path class="cls-1" d="M97.58,98.08c.76-.05,1.4.31,2.04.71,0,.53-.05.59-.29.5-.61-.22-1.18-.51-1.62-1.01-.05-.06-.05-.17-.08-.26l-.04.05Z"/>
      <path class="cls-1" d="M97.62,98.03c-.47.1-.88-.08-1.21-.41-.39-.39-.74-.8-1.11-1.2l-.06.06c.66,0,1.25.28,1.79.68.3.23.54.52.54.92l.05-.05Z"/>
      <path class="cls-1" d="M94.67,95.92c.31.06.5.26.58.56l.06-.06c-.19-.19-.39-.37-.58-.56l-.06.06Z"/>
      <path class="cls-1" d="M94.73,95.86c-.05-.06-.09-.12-.14-.18.03.08.05.16.08.24l.06-.06Z"/>
    </g>
  </g>
</svg>