<?xml version="1.0" encoding="UTF-8"?>
<svg id="Layer_2" data-name="Layer 2" xmlns="http://www.w3.org/2000/svg" viewBox="0 0 40.39 18.71">
  <defs>
    <style>
      .cls-1 {
        fill: #5c2f1c;
        fill-rule: evenodd;
      }
    </style>
  </defs>
  <g id="_Layer_" data-name="&amp;lt;Layer&amp;gt;">
    <g>
      <path class="cls-1" d="M9.57,13.85c-.29.02-.53.11-.73.29-.9.81-1.79,1.64-2.7,2.44-.32.27-.76.4-1.11.21-.37-.18-.42-.65-.45-1.06,0-.13.06-.26.05-.39,0-.28-.02-.54-.05-.8.4.04.79,0,1.11-.22.54-.35,1.08-.7,1.41-1.3.29-.27.57-.56.86-.84.4-.15.64-.45.77-.84.38-.17.6-.49.83-.8.39-.15.65-.42.81-.8.73-.32,1.18-.93,1.6-1.57.06-.07.11-.14.16-.21-.02.1-.05.2-.06.3-.25.02-.51,0-.75.06-.38.11-.66.37-.77.76-.06.25-.06.5-.08.74-.49.05-.73.34-.82.8-.38.16-.72.37-.82.81-.49.06-.81.29-.79.84-.5.06-.81.31-.84.85-.4-.07-.8-.02-1.1.23-.5.39-.96.84-1.43,1.28-.78.57-1.17,1.46-1.81,2.16-.55.6-1.09,1.2-1.83,1.57-.25.13-.53.1-.75-.04-.24-.15-.33-.41-.25-.71.07-.25.17-.51.33-.72.32-.42.67-.84,1.04-1.23C5.4,11.45,9.49,7.34,13.81,3.47c.41-.37.8-.73,1.19-1.11.87-.87,1.89-1.52,2.98-2.05.36-.17.76-.27,1.16-.29.96-.06,1.89.11,2.76.5,1.35.62,2.62,1.38,3.86,2.2,3.5,2.3,6.86,4.78,9.98,7.57.91.8,1.92,1.5,2.85,2.27.52.43.99.91,1.46,1.38.42.44.44,1.31.08,1.86-.21.29-.81.37-1.07.1-1.24-1.24-2.6-2.34-3.97-3.43-1.27-1.01-2.42-2.14-3.69-3.14-2.65-2.07-5.32-4.14-8.26-5.81-.65-.35-1.29-.27-1.89.15-.22.15-.45.29-.67.45-1.38,1.08-2.65,2.29-3.82,3.6-.17.2-.34.47-.36.71-.02.23.27.39.53.51.38.17.65.45.78.86-.44.08-.71.36-.84.76-.34.23-.39.36-.19.28.06-.03.06-.24.1-.37.53.02.76-.29.84-.76.56-.05.93-.51,1.43-.7.33-.13.74.02,1.02.4.14.21.29.43.45.64.27.03.57,0,.8.13.23.14.27.45.24.73-.02.13-.05.26-.12.37-1.05,1.59-1.89,3.27-2.37,5.12-.02.12-.14.21-.23.32-.18.2-.43.29-.72.24-.24-.05-.48-.23-.53-.52-.07-.38-.09-.8-.05-1.19.05-.54.2-1.06.46-1.54.27-.49.32-1.03.37-1.56.13-.04.32-.05.34-.12.06-.17-.05-.11-.24.21-1.42,1.03-2.63,2.27-3.61,3.72-.29.44-.68.82-1.04,1.2-.19.21-.46.28-.71.24-.25-.03-.47-.8-.33-1.07.12-.24.22-.49.37-.7.71-.97,1.62-1.77,2.25-2.8.15-.25.13-.5-.1-.72-.18-.18-.4-.35-.63-.49-.43-.25-.84-.17-1.08.06-1.34,1.33-2.33,2.91-3.37,4.47-.31.47-.24,1.03-.39,1.53-.12.4-.37.7-.73.91-.36.21-.82.15-1.07-.11-.2-.21-.27-.45-.2-.74.07-.25.1-.54.22-.76.4-.7.85-1.36,1.26-2.05.21-.35.25-.76.17-1.15.57.04.77-.32.84-.81.45-.08.65-.42.83-.8.07-.06.13-.11.2-.17-.03.09-.06.17-.1.27-.46.06-.76.32-.84.8-.49.05-.78.3-.86.8Z"/>
      <path class="cls-1" d="M25.05,15.28c-.05.41-.19.76-.51,1.04-.33.27-.78.37-1.05.06-.45-.51-.87-.37-1.38-.15-.47.19-.95,0-.99-.31-.03-.25-.09-.54,0-.76.33-.71.76-1.37,1.37-1.9.34-.3,1.17-.28,1.42.06.31.41.61.84.91,1.27.08.11.16.21.2.34.03.12.02.24.03.36Z"/>
    </g>
  </g>
</svg>