<?xml version="1.0" encoding="UTF-8"?>
<svg id="Layer_2" data-name="Layer 2" xmlns="http://www.w3.org/2000/svg" viewBox="0 0 133.1 47.38">
  <defs>
    <style>
      .cls-1 {
        fill: #753d22;
        fill-rule: evenodd;
      }
    </style>
  </defs>
  <g id="Layer_2-2" data-name="Layer 2">
    <g>
      <path class="cls-1" d="M29.43,18.02c2.31.24,3.37,1.11,4.17,2.43.48.78,1.1,1.49,1.71,2.17,1.24,1.37,2.02,1.47,3.39.42.94-.73,1.76-1.59,2.69-2.33,1.49-1.18,2.41-1.16,3.88.03.41.33.8.69,1.15,1.09,1.43,1.59,3.02,2.84,5.13,3.54,2.17.72,2.52,2.4,1.25,4.42-.91,1.45-1.87,2.87-2.77,4.33-.34.55-.69,1.15-.21,1.85,1.33-.16,1.86-1.31,2.66-2.12,4.27-4.32,8.52-8.65,12.79-12.96,2.44-2.47,3.75-1.27,4.37,1.29.3,1.23.74,2.44,1.19,3.93.67-.51,1.22-.72,1.44-1.12.7-1.25,1.4-2.54,1.89-3.88,1.44-4.02,1.85-4.11,5.31-1.38,2.07,1.62,4.24,3.13,6.45,4.56,1.26.81,2.33.28,2.74-1.13.37-1.26.6-2.56,1.08-3.78.44-1.1,1.64-1.54,2.64-.89,1.64,1.08,3.15,2.36,4.67,3.61,2.33,1.93,4.61,3.93,6.95,5.85.47.38,1.11.56,1.82.89.83-2.02.54-3.54-.86-4.85-.86-.82-1.72-1.65-2.6-2.44-7.11-6.35-14.88-11.81-22.85-17.01-.75-.49-1.61-.81-2.59-1.3-1.26.8-2.54,1.48-3.68,2.34-1.47,1.12-2.79,2.43-4.24,3.57-3.22,2.53-6.47,5.01-9.71,7.51-2.06,1.59-4.32,1.88-6.71.91-1.46-.6-2.86-1.35-4.29-2.03-2.62-1.25-5.23-2.5-7.86-3.73-1.18-.56-2.3-.39-3.34.4-2.3,1.75-4.61,3.48-7.7,5.81h0ZM104.35,31.69c-.19,1.88.88,2.93,1.62,4.12.77,1.24.88,2.19.27,2.36-.94.25-1.57-.33-1.98-.98-.97-1.56-2.02-3.12-2.65-4.83-.9-2.42-2.23-4.45-4.11-6.19-1.45-1.33-2.78-2.81-4.21-4.17-.22-.21-.79-.24-1.08-.11-.29.13-.64.62-.6.89.36,2.2.79,4.39,1.21,6.58.15.77.35,1.53.44,2.3.02.17-.25.47-.46.56-.2.09-.59.09-.71-.04-.53-.56-1.1-1.13-1.46-1.8-.42-.8-.63-1.71-.91-2.49-1.9-.39-3.65-.75-5.51-1.13-.82.41-.55,1.29-.54,2.03.03,1.83.15,3.65.21,5.31-1.27.85-1.83.22-1.96-.6-.38-2.34-.59-4.71-.87-7.07-.09-.77-.18-1.55-.3-2.61-1,.15-1.83.27-2.91.44-.39-.61-.85-1.31-1.39-2.15-1.56,2.33-2.33,4.65-2.19,7.47.22,4.19-.26,8.38-1.13,12.44-1.08.28-1.41-.44-1.43-1-.05-1.57.01-3.16.17-4.73.22-2.1.46-4.19.12-6.43-.49-.2-.93-.46-1.42-.57-1.29-.29-2.07-1.04-2.41-2.32-.29-1.14-.69-2.25-1.02-3.32-1.53-.19-1.61.79-1.73,1.71-.32,2.61-.57,5.24-.98,7.83-.16,1.01-.68,1.97-1.09,2.92-.06.14-.46.23-.68.2-.21-.03-.56-.26-.56-.4-.02-1.04-.08-2.09.08-3.1.19-1.26.7-2.48.19-4.35-.51.98-.87,1.5-1.07,2.07-.79,2.25-1.52,4.51-2.32,6.74-.26.74-.59,1.48-1,2.14-.17.28-.64.37-.97.54-.19-.42-.6-.89-.53-1.26.19-1.03.57-2.03.89-3.04.38-1.22.75-2.45,1.2-3.88-2.75,1.29-3.63,2.23-4.29,4.43-.42,1.37-.81,2.75-1.25,4.24-1.68.06-2.98-1.54-4.58-.55-.22.13-1.18-.52-1.46-1.01-.63-1.07-.59-2.31-.16-3.45.52-1.35,1.14-2.67,1.75-3.99.43-.95.91-1.86,1.5-3.03-1.2-.78-2.26-1.48-3.35-2.19-2.15,1.47-2.83,3.68-3.95,5.57-.58.98-.7,2.26-1.75,2.92-.97-.23-1.09-.87-.83-1.53.68-1.72,1.41-3.41,2.17-5.09.52-1.15,1.12-2.26,1.2-3.69-.45.56-.84,1.18-1.36,1.68-.45.44-1.05,1.08-1.56,1.05-1.83-.08-2.52,1.17-3.28,2.42-2.13,3.5-4.24,7.01-6.41,10.48-.44.7-.77,1.76-2.25,1.41.09-.48.04-1.02.26-1.41,1.74-3.11,3.52-6.19,5.29-9.29.62-1.09,1.56-2.07,1.48-4.26-1.04,1.36-1.59,2.18-2.25,2.9-.2.22-.77.36-1.02.23-.26-.12-.52-.65-.48-.95.13-.87.41-1.73.89-3.54-1.3,1.43-2.06,2.1-2.61,2.91-2.68,3.93-5.29,7.91-7.95,11.84-.48.71-.74,1.79-2.25,1.45.02-.44-.1-.99.1-1.37.95-1.74,1.9-3.48,3.01-5.12,2.46-3.6,5.02-7.12,7.53-10.68.23-.32.57-.63.63-.99.08-.46.07-1.05-.16-1.44-.38-.65-1.07-.76-1.71-.35-.89.56-1.81,1.11-2.59,1.81-1.27,1.15-2.47,2.38-3.65,3.63-3.53,3.74-7.03,7.51-10.58,11.25-.23.24-.68.28-1,.41-.64-.66-.45-1.32-.02-1.83,1.34-1.63,2.65-3.3,4.14-4.77,2.06-2.04,4-4.17,5.91-6.3-.76-.91-1.1-.19-1.4.07-5.16,4.53-10.31,9.07-15.44,13.64-1.28,1.13-2.47,2.35-3.73,3.51-.14.13-.63.14-.72.02-.22-.26-.47-.68-.4-.98.11-.49.37-1,.69-1.39.94-1.1,1.86-2.25,2.94-3.21,6.2-5.55,12.36-11.14,18.71-16.51,4.93-4.18,10.13-8.05,15.2-12.07.96-.75,1.9-.72,2.94-.17,2.69,1.42,5.39,2.79,8.1,4.17,1.29.65,2.6,1.29,3.93,1.86,2.5,1.07,4.81.94,7.04-.87,3.88-3.18,7.84-6.26,11.8-9.34,1.67-1.29,3.39-2.51,5.12-3.72.42-.29.95-.39,1.54-.61,1.95,1.4,3.86,2.79,5.78,4.14,1.83,1.3,3.72,2.52,5.52,3.85,7.02,5.17,13.82,10.62,20.27,16.49.68.62,1.47,1.15,2.01,1.88,3.1,4.2,7.19,7.34,11.18,10.59,2.87,2.34,5.75,4.66,8.6,7.01.6.49,1.21,1.05,1.62,1.71.2.32.1,1.07-.16,1.37-.25.3-.88.31-1.35.33-.21,0-.43-.27-.64-.43-3.47-2.84-6.97-5.65-10.41-8.53-2.53-2.12-4.98-4.33-7.47-6.5-.79-.68-1.61-1.32-2.38-1.96-.85.67-.23,1.08.08,1.34,1.38,1.23,2.87,2.34,4.21,3.6.85.8,1.55,1.78,2.22,2.74.17.23.07.97-.07,1.02-.43.14-1.09.28-1.38.05-2.08-1.61-4.08-3.33-6.14-4.96-1.46-1.16-3.2-1.64-5.14-2.08Z"/>
      <path class="cls-1" d="M78.85,29.32c-.13,2.42.14,4.49-1.2,6.51-1.93-1.51-1.36-3.31-1.03-5.03.19-.99.41-1.1,2.23-1.49Z"/>
      <path class="cls-1" d="M40.57,38.32c-.03,1.72-.47,3.02-1.23,4.22-.11.17-.45.27-.67.25-.21-.03-.53-.21-.58-.39-.48-1.69.11-3.09,1.71-4.16.08-.05.25.02.76.09Z"/>
      <path class="cls-1" d="M101.89,25.05c-.41-.6-.71-.92-.84-1.3-.04-.1.47-.55.69-.53.26.03.62.37.69.64.06.23-.24.55-.55,1.19Z"/>
    </g>
  </g>
</svg>