<?xml version="1.0" encoding="UTF-8"?>
<svg id="Layer_2" data-name="Layer 2" xmlns="http://www.w3.org/2000/svg" viewBox="0 0 97.16 40">
  <defs>
    <style>
      .cls-1 {
        fill: #753d22;
      }
    </style>
  </defs>
  <g id="Layer_2-2" data-name="Layer 2">
    <g>
      <g>
        <path class="cls-1" d="M96.12,24.39c-.24,0-.47-.08-.67-.25-5.68-4.81-9.9-9.83-13.29-13.85-3.28-3.89-5.86-6.97-7.98-7.68-1.97-.65-6.92-1.03-9.45,1.06l-1.23,1.02c-1.47,1.23-3.69,3.06-6.23,5.16-.45.37-1.1.3-1.47-.14-.36-.44-.3-1.09.14-1.46,2.54-2.09,4.76-3.93,6.23-5.15l1.23-1.03c3.08-2.55,8.64-2.36,11.43-1.43,2.67.89,5.29,4,8.91,8.31,3.35,3.97,7.5,8.91,13.04,13.61.44.37.49,1.02.12,1.46-.21.24-.5.37-.8.37Z"/>
        <g>
          <path class="cls-1" d="M65.27,3.22c-.1,0-.2,0-.3,0-.21,0-.38-.17-.38-.38s.17-.38.38-.38c1.39,0,2.81-.03,4.26-.05,1.76-.04,3.58-.07,5.48-.06.21,0,.38.18.37.38,0,.21-.16.34-.38.37-1.88-.02-3.7.02-5.46.05-1.35.04-2.67.06-3.97.06Z"/>
          <path class="cls-1" d="M65.03,14.11c-.19,0-.35-.15-.37-.34-.02-.21.13-.39.34-.42,1.48-.14,2.84-.24,4.18-.3.22,0,.38.16.39.36.01.21-.15.38-.36.39-1.32.06-2.68.16-4.15.3-.01,0-.03,0-.04,0ZM80.6,13.96c-.21,0-.38-.17-.38-.38s.17-.37.38-.37c.81,0,1.63-.02,2.45-.03,1.17-.03,2.38-.06,3.51-.03.21,0,.37.18.36.39,0,.2-.17.37-.37.37-1.13-.03-2.33,0-3.49.02-.83.01-1.65.04-2.47.04Z"/>
          <path class="cls-1" d="M85.52,12.83c-1.96-.01-3.91-.04-5.83-.06h-1.01c-.21-.02-.38-.19-.38-.4,0-.21.17-.37.38-.37h1.02c1.92.03,3.87.06,5.83.06.21,0,.38.17.38.38s-.17.38-.38.38ZM69.54,12.57c-1.87-.04-4.34-.07-6.95-.06-1.3,0-2.63,0-3.97-.04-.2,0-.37-.18-.36-.38,0-.21.17-.37.38-.37,1.34.03,2.66.04,3.96.03,2.61-.02,5.09.03,6.96.06.21,0,.38.18.37.38,0,.21-.17.37-.38.37Z"/>
          <path class="cls-1" d="M73.41,2.11c-2.39-.05-4.75-.11-7.19-.13-.21,0-.37-.17-.37-.38s.17-.37.38-.37c2.44.02,4.81.07,7.19.13.21,0,.38.18.37.38,0,.21-.17.37-.38.37Z"/>
          <path class="cls-1" d="M63.09,4.69c-.2,0-.37-.16-.37-.37,0-.21.16-.38.37-.38,2.42-.04,4.85-.07,7.27-.1,1.78-.02,3.73,0,6.31.04.21,0,.38.17.37.38,0,.21-.17.37-.38.37-2.59-.05-4.53-.06-6.29-.04-2.43.03-4.85.06-7.27.1h0Z"/>
          <path class="cls-1" d="M88.1,15.52c-1.64,0-3.34-.04-5.04-.07-.21,0-.38-.17-.37-.39,0-.2.17-.37.38-.37,1.72.04,3.4.07,5.04.07.21,0,.38.17.38.38,0,.21-.16.37-.38.37ZM66.28,15.31c-.21,0-.38-.16-.38-.37s.17-.38.37-.38l2.37-.04c.21,0,.38.17.38.37,0,.21-.16.38-.37.39l-2.37.03h0Z"/>
          <path class="cls-1" d="M84.09,11.34c-2.55-.05-5.1-.09-7.65-.12-.21,0-.38-.16-.38-.38,0-.21.17-.37.38-.37,2.56.03,5.11.06,7.66.11.21,0,.37.18.36.38,0,.21-.17.38-.38.38ZM66.07,11.25c-2.66-.01-4.75-.09-6.77-.18l-1.62-.06c-.21,0-.37-.18-.36-.39,0-.21.17-.39.39-.36l1.63.06c2.01.08,4.09.17,6.66.18.76,0,1.58-.02,2.39-.04.5-.01.98-.03,1.47-.03.25-.02.38.16.38.37,0,.21-.17.38-.37.38-.48,0-.98.02-1.47.03-.79.02-1.58.04-2.33.04Z"/>
          <path class="cls-1" d="M93.21,21.96c-.2,0-.37-.16-.38-.37,0-.21.16-.38.37-.39l1.01-.03c.21-.02.39.16.39.37,0,.21-.16.38-.36.39l-1.01.03h0Z"/>
          <path class="cls-1" d="M72.89,6.14c-.21,0-.38-.17-.38-.37s.17-.38.38-.38h5.7c.21-.01.38.15.38.36,0,.21-.17.38-.38.38h-5.71ZM71.05,6.13s-1.91-.11-1.91-.11l-7.98.09c-.21,0-.38-.16-.38-.38,0-.2.17-.38.38-.38l8-.09,1.92.11c.21,0,.37.19.35.39-.01.2-.18.36-.38.36Z"/>
          <path class="cls-1" d="M89.3,16.79h-4.24c-.21,0-.38-.17-.38-.38s.17-.38.38-.38h4.24c.21,0,.38.16.38.38s-.17.38-.38.38Z"/>
          <path class="cls-1" d="M82.76,9.93l-7.92-.06c-.21,0-.38-.17-.38-.38,0-.21.17-.37.38-.37l7.92.06c.21,0,.38.17.38.38,0,.21-.17.38-.38.38ZM70.16,9.83l-13.34-.11c-.21,0-.37-.18-.37-.38s.17-.37.37-.37l13.34.1c.21,0,.38.17.38.38,0,.21-.17.38-.38.38Z"/>
          <path class="cls-1" d="M93.03,20.68s-1.96-.02-1.96-.02c-.21,0-.38-.17-.37-.38,0-.21.17-.37.37-.37h1.96c.21.01.38.18.38.39s-.17.37-.38.37Z"/>
          <path class="cls-1" d="M80.43,7.55s-.74-.02-.74-.02c-2.09-.05-4.18-.09-6.25-.13-.21,0-.38-.17-.37-.38,0-.21.19-.33.39-.37,2.07.04,4.17.08,6.25.12l.74.02c.21,0,.37.18.37.39,0,.21-.18.37-.38.37ZM59.29,7.47c-.21,0-.38-.17-.38-.37,0-.21.16-.38.36-.38l1.71-.04c2.48-.04,5.06-.11,7.68-.08.66,0,1.33,0,2,0,.21,0,.39.18.38.38,0,.2-.16.37-.36.37-.89,0-1.73-.01-2.57-.01-2.43,0-4.81.04-7.12.08l-1.71.03h0Z"/>
          <path class="cls-1" d="M90.83,18.38c-1.15,0-2.29,0-3.44-.02-.21,0-.37-.17-.37-.38,0-.21.17-.38.38-.38,1.15.01,2.29.03,3.44.03.21,0,.38.17.38.37,0,.21-.17.38-.38.38Z"/>
          <path class="cls-1" d="M80.02,8.94c-.46,0-.87-.12-1.28-.23-.36-.11-.71-.21-1.06-.22-.44,0-.99.09-1.51.18-.55.09-1.13.19-1.6.19h-.6c-.21,0-.38-.18-.38-.38,0-.21.17-.37.38-.37h.57c.37-.02.97-.09,1.5-.17.57-.09,1.15-.18,1.64-.18.45.01.86.12,1.26.24.37.11.7.19,1.09.2h1.75c.21,0,.38.16.38.37s-.17.38-.37.38h-1.76s-.01,0-.02,0ZM70.37,8.82c-4.31-.05-8.59-.1-12.75-.15-.21,0-.37-.18-.37-.38,0-.21.17-.38.38-.38,4.15.06,8.44.11,12.74.15.21,0,.38.17.38.38,0,.21-.17.38-.38.38Z"/>
          <path class="cls-1" d="M91.97,19.58h-2.67c-.21,0-.38-.18-.38-.39s.17-.38.38-.38h2.67c.21,0,.38.17.38.38s-.17.39-.38.39Z"/>
        </g>
      </g>
      <g>
        <path class="cls-1" d="M1.24,40c-.28,0-.56-.1-.79-.29-.53-.44-.61-1.23-.17-1.76l2.01-2.44c4.91-5.97,11.02-13.41,16.1-18.13,2.69-2.49,5.19-2.61,7.02-2.7,1.99-.09,2.9-.13,3.82-2.61,1.38-3.72,5.26-4.85,9.76-6.18,2.83-.83,6.03-1.77,8.93-3.5.73-.43,1.57-.54,2.42-.31,3.44.93,7.14,7.21,12.83,17.44,3.83,6.88,7.79,14.01,10.99,16.75.52.44.58,1.23.14,1.75-.45.52-1.23.59-1.76.14-3.54-3.04-7.61-10.36-11.55-17.44-4.05-7.27-8.63-15.52-11.3-16.24-.26-.07-.4-.02-.51.05-3.17,1.88-6.54,2.88-9.5,3.74-4.01,1.18-7.18,2.11-8.13,4.67-1.49,4.01-3.91,4.12-6.04,4.22-1.68.08-3.42.16-5.43,2.04-4.96,4.61-11.01,11.97-15.88,17.89l-2.01,2.44c-.25.3-.6.46-.96.46Z"/>
        <g>
          <path class="cls-1" d="M23.86,25.48c-2.76,0-5.42-.06-7.99-.12-.94-.02-1.9-.05-2.86-.07-.18,0-.32-.15-.32-.32,0-.18.15-.34.33-.32.96.02,1.92.04,2.87.06,2.91.07,5.91.13,9.07.12,1.49-.01,4.71-.01,6.46-.02h.46c.18,0,.32.14.32.33,0,.17-.15.31-.32.31h-.46c-1.75,0-4.97.01-6.45.02-.37,0-.74,0-1.1,0ZM59.26,25.48c-.17,0-.32-.14-.32-.33,0-.17.14-.33.32-.33.77,0,1.56-.03,2.36-.05,1.06-.02,2.15-.05,3.27-.05.18,0,.33.14.33.32s-.14.32-.32.32c-1.11,0-2.2.03-3.27.05-.8.02-1.59.03-2.36.05h0Z"/>
          <path class="cls-1" d="M46.84,7.85c-.92-.02-1.9-.05-2.91-.09-1.71-.06-3.47-.12-5.09-.13-.18,0-.32-.15-.32-.33,0-.18.15-.32.32-.32,1.62.01,3.39.08,5.1.13,1.01.03,1.99.07,2.89.09,1.49-.01,2.91-.06,4.31-.11,1.02-.04,2.03-.06,3.06-.09.18,0,.33.14.33.32,0,.17-.14.32-.32.33-1.03.02-2.04.05-3.05.09-1.4.05-2.82.09-4.33.11Z"/>
          <path class="cls-1" d="M33.2,35.46c-2.83,0-8.02-.2-13.04-.39-4.02-.15-7.81-.3-9.96-.32-1.62-.02-3.27-.04-4.92-.05-.18,0-.32-.15-.32-.33s.15-.32.33-.32c1.66.01,3.31.03,4.93.05,2.16.02,5.96.17,9.98.32,5.15.19,10.46.39,13.23.38.18,0,.32.14.32.32s-.14.33-.32.33h-.21ZM71.07,35.04c-.52-.01-1.01-.03-1.5-.05-.45-.03-.89-.05-1.31-.07-.19-.01-.32-.16-.31-.34,0-.18.18-.3.34-.3.43.02.87.04,1.32.07.48.03.97.04,1.47.05.18,0,.32.15.32.33,0,.18-.14.33-.32.33Z"/>
          <path class="cls-1" d="M56.07,16.4c-.98,0-1.93-.06-2.91-.12-.73-.05-1.48-.1-2.29-.12-.17,0-.32-.16-.31-.33,0-.18.15-.32.32-.32.83.03,1.58.07,2.32.12,1.61.1,3.12.2,4.82.02.42-.04.83-.08,1.24-.11.17,0,.34.11.35.3.01.18-.12.33-.3.35-.41.03-.82.07-1.23.11-.7.07-1.37.1-2.01.1ZM26.68,16.09c-.19,0-.37,0-.55,0-.18,0-.33-.14-.33-.32,0-.18.15-.32.33-.32,2.17,0,4.48-.07,6.7-.14,1.97-.08,4.01-.14,5.97-.15.72,0,1.58-.07,2.4-.14.71-.06,1.45-.12,2.08-.13.18,0,.32.14.33.32,0,.18-.14.33-.32.33-.62.02-1.31.07-2.04.13-.84.07-1.7.14-2.45.14-1.95,0-3.98.08-5.95.15-2.05.07-4.16.15-6.17.15Z"/>
          <path class="cls-1" d="M29.15,34.39c-.42,0-1.46-.1-2.66-.2-1.4-.13-3.15-.29-3.56-.24-3.32.32-6.35.13-10.19-.11l-1.4-.09c-1.28-.08-2.65-.05-3.98-.02-.45,0-.89.02-1.33.03-.18,0-.33-.14-.33-.32,0-.18.14-.33.32-.33.44,0,.88-.02,1.33-.03,1.34-.02,2.73-.05,4.03.02l1.41.09c3.81.24,6.81.44,10.08.11.48-.05,2.11.11,3.69.25,1.18.11,2.3.21,2.63.2.18,0,.33.14.33.32,0,.18-.14.33-.32.33-.02,0-.03,0-.05,0ZM70.39,33.98c-1.17-.02-2.32-.04-3.45-.06-.18,0-.32-.15-.32-.33,0-.18.14-.32.32-.32,1.14.02,2.28.04,3.45.06.18,0,.32.15.32.33,0,.18-.14.32-.32.32Z"/>
          <path class="cls-1" d="M16.37,24.53c-.85,0-1.73-.02-2.63-.05-.18,0-.32-.16-.31-.34,0-.18.16-.27.34-.31,3.25.12,6.05.03,9.1-.3.99-.12,2.07-.05,3.22,0,.53.03,1.06.05,1.58.07.94,0,1.87,0,2.82,0,.18,0,.32.14.33.32,0,.18-.14.32-.32.33-1.11.01-2.01.02-2.83,0-.53-.01-1.07-.04-1.61-.07-1.12-.05-2.17-.11-3.11,0-2.23.24-4.34.36-6.57.36ZM64.31,24.47c-1.88-.04-5.66-.08-7.75-.09-.18,0-.32-.15-.32-.33s.15-.32.32-.32c2.09,0,5.89.05,7.76.09.18,0,.32.15.32.33,0,.17-.15.31-.32.31Z"/>
          <path class="cls-1" d="M42.14,6.67h-.37c-.18,0-.32-.14-.32-.32s.15-.32.32-.32h.37c2.55,0,5.19-.04,7.8-.07l3.53-.04c.18,0,.32.14.32.32,0,.17-.14.32-.32.32l-3.53.04c-2.61.03-5.25.06-7.81.06Z"/>
          <path class="cls-1" d="M28.95,26.81s-1.14-.05-1.14-.05c-1.75-.07-3.56-.15-5.8-.15-.62.01-1.31.01-1.99.04-.73.01-1.45.05-2.15.03-2.01,0-4.03-.03-6.05-.06-.18,0-.32-.14-.32-.32,0-.18.15-.32.33-.32,2.02.03,4.04.05,6.05.06.7,0,1.41-.02,2.13-.04.68-.02,1.37-.03,2-.03,2.26,0,4.07.08,5.83.15l1.12.05c.18.02.32.16.31.34,0,.18-.15.31-.32.31ZM60.19,26.74c-.18,0-.32-.14-.32-.32s.14-.33.32-.33l2.5-.04c1,0,2.02,0,3.06,0,.18,0,.32.15.32.33s-.15.32-.32.32c-1.04,0-2.06,0-3.05,0l-2.5.04h0Z"/>
          <path class="cls-1" d="M40.47,9.12c-1.55,0-3.06-.01-4.7-.07-.14,0-.51,0-.93,0-.18,0-.33-.14-.33-.32,0-.17.14-.32.32-.33.43,0,.81,0,.96,0,2,.07,3.82.06,5.74.07h1.12c4.17,0,8.38-.07,12.36-.13.18,0,.32.14.33.32,0,.18-.14.33-.32.33-3.91.06-8.07.13-12.16.13h-2.39Z"/>
          <path class="cls-1" d="M71.94,36.32s-1.56-.04-1.56-.04c-.17,0-.32-.15-.31-.34,0-.17.14-.31.32-.31,0,0,1.55.04,1.55.04.18,0,.32.15.32.33,0,.17-.14.31-.32.31ZM25.22,36.3c-.71,0-2.37-.04-3.97-.07-1.39-.03-2.74-.05-3.37-.06-5.07-.03-9.52-.09-13.6-.18-.18,0-.33-.16-.33-.33,0-.18.13-.32.31-.32,4.11.09,8.56.15,13.63.19.63,0,1.98.02,3.38.06,1.59.03,3.25.06,3.96.06.18,0,.33.14.33.33,0,.17-.15.32-.33.32Z"/>
          <path class="cls-1" d="M40.39,17.56c-1.52,0-3.01-.01-4.61-.07-.26,0-1.22,0-1.98.02-.41,0-.75,0-.9,0-1.9,0-3.48-.07-5.16-.14-1.73-.08-3.52-.15-5.72-.16h-.63c-.18,0-.33-.14-.33-.32s.15-.32.33-.32h.63c2.22,0,4.02.08,5.75.15,1.67.07,3.25.14,5.14.14.14,0,.48,0,.88,0,.76-.01,1.75-.03,2.01-.01,2.01.06,3.84.06,5.77.06h.81c.18,0,.33.14.33.32s-.15.32-.33.32h-.81c-.4,0-.79,0-1.18,0ZM50.85,17.49c-.18,0-.32-.14-.33-.32,0-.18.14-.33.32-.33,1.68-.02,3.38-.05,5.07-.07l4.06-.06c.19,0,.33.14.33.31,0,.18-.14.33-.32.33l-4.06.07c-1.69.03-3.38.05-5.07.07h0Z"/>
          <path class="cls-1" d="M22.54,32.63c-.8,0-1.3-.03-1.79-.05-.62-.03-1.25-.06-2.49-.04-2.84.04-5.93-.04-8.92-.12l-2.23-.05c-.18,0-.32-.16-.32-.33,0-.18.15-.32.33-.32,0,0,2.24.05,2.24.05,2.98.07,6.07.14,8.89.12,1.25-.03,1.9,0,2.52.04.65.03,1.27.06,2.55.04.18,0,.32.14.33.32,0,.18-.14.33-.32.33-.3,0-.56,0-.8,0ZM69.53,32.63c-1.05-.02-2.08-.03-3.11-.03h-1.04c-.18-.01-.32-.16-.32-.34s.14-.32.32-.32h1.04c1.03.01,2.07.03,3.11.04.18,0,.32.15.32.33,0,.18-.15.32-.32.32Z"/>
          <path class="cls-1" d="M58.47,14.8h-1.79c-2-.02-2.89-.02-5.23-.08-.18,0-.32-.15-.32-.33,0-.17.17-.29.33-.31,2.33.05,3.22.06,5.22.07h1.78c.18,0,.33.16.32.34,0,.18-.14.32-.32.32ZM29.47,14.54c-.18,0-.32-.14-.32-.32,0-.18.14-.32.32-.32,3.56-.05,6.28-.08,8.83-.08h1.09c1.41,0,2.74,0,4.13.02.18,0,.32.15.32.33,0,.18-.15.32-.33.32-1.39-.03-2.72-.03-4.12-.03h-1.09c-2.54,0-5.26.03-8.82.08h0Z"/>
          <path class="cls-1" d="M59.03,23.24c-.46,0-.89,0-1.31,0-.18,0-.32-.15-.32-.33,0-.18.15-.32.33-.32.42,0,.83.01,1.3.01.62,0,1.26-.02,1.91-.03.71-.02,1.44-.04,2.12-.03h.43c.18,0,.32.15.32.33,0,.18-.15.32-.32.32h-.43c-.69-.01-1.39.01-2.1.03-.66.01-1.31.03-1.93.03ZM16.76,23.16c-.6,0-1.2,0-1.81,0-.18,0-.32-.14-.32-.33,0-.18.15-.31.33-.31,1.13,0,2.23,0,3.3,0,2.25-.03,4.49-.06,6.74-.1,2.09-.04,4.2-.07,6.29-.09.19,0,.33.13.33.31,0,.18-.14.33-.32.33-2.1.03-4.2.06-6.3.09-2.25.04-4.5.08-6.74.1-.5,0-1,0-1.5,0ZM37.17,22.91c-.18,0-.32-.14-.32-.32s.14-.33.32-.33h2.23c.18,0,.32.14.32.32s-.15.33-.32.33h-2.23Z"/>
          <path class="cls-1" d="M52.12,5.22c-1.14-.04-2.51-.09-4.07-.1-.15,0-.59,0-1.07,0l-1.23.02c-.18,0-.33-.14-.33-.32s.14-.33.32-.33l1.23-.02c.49,0,.91,0,1.08,0,1.57,0,2.95.05,4.08.1.18,0,.32.16.31.34-.01.17-.15.3-.33.3Z"/>
          <path class="cls-1" d="M63.55,28.09l-1.91-.1h-.48c-.18,0-.33-.14-.33-.31,0-.19.14-.33.32-.33h.51s1.91.1,1.91.1h3.06c.17,0,.32.14.33.32,0,.17-.15.32-.33.32h-3.08ZM28.3,27.95s-17.54-.14-17.54-.14c-.18,0-.32-.15-.32-.32,0-.19.14-.32.32-.32l17.54.14c.18,0,.32.15.32.32,0,.18-.15.32-.32.32Z"/>
          <path class="cls-1" d="M49.65,10.3h-1.19c-.18-.01-.33-.16-.32-.34,0-.18.14-.32.32-.32h1.19s6.09-.07,6.09-.07c.18,0,.32.14.33.32,0,.18-.14.33-.32.33l-6.1.08ZM46.23,10.27s-13.34-.11-13.34-.11c-.18,0-.32-.15-.32-.33,0-.18.15-.32.33-.32l13.34.11c.18,0,.32.15.32.33,0,.18-.15.32-.33.32Z"/>
          <path class="cls-1" d="M72.81,37.56c-.18,0-.34-.14-.34-.32s.14-.33.32-.33c.2,0,.34.15.34.33s-.14.32-.32.32ZM34.28,37.5l-31.02-.26c-.18,0-.32-.14-.32-.33,0-.18.15-.32.32-.32l31.02.26c.18,0,.32.15.32.32s-.14.33-.32.33Z"/>
          <path class="cls-1" d="M51.41,18.72c-.17,0-.32-.14-.32-.32,0-.18.14-.33.31-.33l2-.04c.18,0,.32.14.33.32,0,.18-.14.32-.32.33l-1.99.03h0ZM42.01,18.67l-22.17-.17c-.18,0-.32-.15-.32-.33,0-.17.15-.32.33-.32l22.18.18c.18,0,.32.14.32.32,0,.18-.15.32-.33.32ZM55.51,18.67c-.18,0-.32-.15-.32-.32,0-.18.14-.33.32-.33l5.22-.06c.18,0,.33.14.33.32,0,.18-.14.33-.32.33l-5.21.06h0Z"/>
          <path class="cls-1" d="M68.76,31.42l-4.63-.04c-.18,0-.32-.15-.32-.33,0-.18.15-.32.33-.32l4.63.04c.18,0,.32.15.32.33,0,.18-.15.32-.32.32ZM19.29,31.26l-1.91-.11-9.31.02c-.18,0-.32-.14-.32-.32s.14-.32.32-.32l9.34-.02,1.91.11,6.05-.09c.18,0,.33.14.33.32,0,.17-.14.32-.32.32l-6.07.09Z"/>
          <path class="cls-1" d="M57.7,13.5s-8.2-.06-8.2-.06c-.17,0-.32-.15-.32-.33,0-.17.15-.32.32-.32l8.2.07c.18,0,.32.14.32.32,0,.17-.14.32-.32.32ZM43.98,13.39l-12.69-.1h-1.08c-.18.01-.33-.13-.33-.31,0-.18.14-.32.32-.32h1.09s12.69.09,12.69.09c.18,0,.32.15.32.32,0,.18-.15.32-.33.32Z"/>
          <path class="cls-1" d="M62.73,21.98l-5.72-.05c-.18,0-.32-.14-.32-.32,0-.18.15-.33.33-.33l5.72.05c.18,0,.32.15.32.33,0,.18-.15.32-.33.32ZM19.29,21.87l-1.91-.11h-1.19c-.18,0-.32-.14-.32-.32s.14-.32.32-.32h1.21s1.91.11,1.91.11l11.98-.15h.83c.18,0,.32.15.32.34,0,.18-.15.32-.33.32h-.82s-12,.14-12,.14ZM40.99,21.8s-4.82-.04-4.82-.04c-.18,0-.32-.15-.32-.33,0-.18.15-.32.33-.32l4.82.04c.18,0,.32.14.32.32,0,.18-.15.32-.33.32Z"/>
          <path class="cls-1" d="M50.96,4.06l-2.59-.03c-.18,0-.32-.15-.32-.33s.13-.32.33-.32l2.59.02c.18,0,.32.15.32.33,0,.18-.15.32-.33.32Z"/>
          <path class="cls-1" d="M67.37,29.26c-1.78-.05-3.53-.07-5.26-.09-.18,0-.32-.14-.32-.33,0-.17.14-.32.32-.32,1.73.01,3.49.04,5.26.08.18,0,.32.16.32.33,0,.18-.15.32-.32.32ZM11.97,29.05c-.44,0-.8-.11-1.14-.21-.27-.09-.54-.16-.8-.18-.18,0-.31-.17-.3-.35.01-.17.18-.28.34-.3.34.02.64.12.94.21.31.09.61.18.92.19.38,0,.84-.08,1.3-.16.49-.08.99-.14,1.41-.16,4.42.04,8.85.1,13.14.16.18,0,.32.15.32.33,0,.18-.15.32-.32.32-4.29-.06-8.73-.11-13.14-.16-.39,0-.84.08-1.3.15-.48.08-.97.16-1.38.16Z"/>
          <path class="cls-1" d="M49.03,11.49c-.17,0-.32-.14-.32-.32,0-.18.14-.33.32-.33,1.96,0,3.87-.04,5.77-.07l1.63-.03c.15-.03.33.14.33.32,0,.17-.14.32-.32.33l-1.62.03c-1.9.03-3.82.07-5.79.08h0ZM45.21,11.3c-3.22-.04-6.76-.08-10.51-.13l-3.2-.05c-.18,0-.32-.15-.32-.33,0-.18.15-.32.32-.32,0,0,3.21.05,3.21.05,3.75.05,7.29.1,10.5.13.18,0,.32.15.32.33,0,.18-.14.32-.32.32Z"/>
          <path class="cls-1" d="M46.21,38.71c-1.14,0-6.53-.09-12.55-.19-8.15-.12-17.47-.28-19.03-.29-.4,0-.9-.03-1.41-.05-.47-.03-.94-.05-1.31-.05-.44,0-.84,0-1.25.01-.25,0-.5,0-.78,0-2.52.02-4.99.04-7.38.04-.18,0-.33-.14-.33-.32s.14-.32.32-.32c2.39,0,4.86-.02,7.38-.04.27,0,.52,0,.77-.02.42,0,.82-.02,1.27,0,.38,0,.86.02,1.34.05.49.02.99.05,1.37.05,1.56.01,10.88.16,19.03.29,6.02.09,11.4.18,12.54.19.18,0,.32.15.32.33,0,.18-.15.32-.32.32Z"/>
          <path class="cls-1" d="M52.03,19.9c-.18,0-.32-.14-.32-.32,0-.18.14-.33.31-.33l1.98-.03c.16-.03.33.14.33.32,0,.18-.14.33-.32.33l-1.98.04h0ZM56.13,19.83c-.18,0-.32-.14-.33-.32,0-.18.14-.32.32-.33,1.68-.03,3.35-.07,5.1-.04.38,0,.52.14.52.32,0,.18-.14.32-.32.32-1.94,0-3.62.03-5.3.05h0ZM41.69,19.69s-7.39-.1-7.39-.1c-.18,0-2.31-.02-2.31-.02-4.26-.06-8.74-.12-13.24-.18-.18,0-.33-.15-.32-.33,0-.18.15-.32.33-.32,4.51.05,8.99.11,13.25.17l2.13.03c.18,0,7.57.1,7.57.1.18,0,.32.14.32.33,0,.18-.15.32-.32.32Z"/>
          <path class="cls-1" d="M66.33,30.51s-3.07-.03-3.07-.03c-.18-.01-.32-.15-.32-.33,0-.18.15-.32.32-.32l3.05.03c.39,0,.86-.08,1.34-.17l.33-.05c.19-.04.34.09.37.27.02.18-.09.34-.27.37l-.32.06c-.5.08-1.01.17-1.43.17ZM20.03,30.07c-.11,0-.21,0-.31,0-3.09,0-6.35-.09-9.5-.16l-1.14-.04c-.18,0-.32-.15-.32-.33,0-.17.15-.31.32-.31,0,0,1.15.02,1.15.02,3.15.08,6.41.15,9.49.17,2.37,0,4.65-.04,6.88-.08h.57c.18-.01.33.13.33.3,0,.19-.14.33-.32.33h-.57c-2.13.05-4.33.09-6.58.09Z"/>
          <path class="cls-1" d="M57.14,12.57l-7.85-.1c-.18,0-.32-.15-.32-.33,0-.18.14-.32.32-.32,0,0,7.85.1,7.85.1.18,0,.32.15.32.33,0,.18-.14.31-.32.31ZM44.49,12.4s-.89,0-.89,0c-3.4-.05-6.61-.09-9.5-.12-.15,0-.33-.05-.53-.1-.14-.03-.32-.08-.4-.08-.76,0-1.51,0-2.26,0-.18,0-.32-.15-.33-.32,0-.18.14-.32.32-.32.75-.01,1.5-.02,2.27-.01.16,0,.35.05.56.1.14.04.3.08.38.09,2.89.03,6.09.07,9.5.11h.88c.18.01.32.16.32.34,0,.18-.15.32-.32.32Z"/>
          <path class="cls-1" d="M10.18,39.4c-2.04-.04-4.02-.1-5.97-.12-.85-.01-1.7-.01-2.55-.02-.18,0-.32-.14-.32-.32,0-.18.15-.32.32-.32.85,0,1.7,0,2.55.02,1.95.03,3.94.08,5.93.13.18,0,.34.15.33.33,0,.18-.13.31-.31.31Z"/>
          <path class="cls-1" d="M62.19,21.07s-5.58-.07-5.58-.07c-.18,0-.32-.14-.32-.33,0-.17.14-.32.32-.32,0,0,5.58.06,5.58.06.18,0,.32.15.32.33,0,.18-.14.32-.32.32ZM41.33,20.8c-2.09-.03-4.09-.05-5.97-.08-.18,0-.32-.15-.32-.32,0-.18.15-.32.33-.32,1.88.02,3.88.05,5.97.08.18,0,.32.15.32.33,0,.18-.15.32-.33.32ZM20.2,20.68c-1,0-2,0-3.02-.02-.18,0-.32-.15-.32-.33,0-.17.15-.32.32-.32,1.02.01,2.02.02,3.01.02,2.13,0,4.22-.04,6.24-.08,2.13-.04,4.34-.06,6.58-.07.18,0,.33.14.33.33s-.15.32-.33.32c-2.24-.02-4.45.04-6.57.08-2.03.04-4.12.07-6.25.07Z"/>
        </g>
      </g>
    </g>
  </g>
</svg>