<?xml version="1.0" encoding="UTF-8"?>
<svg id="Layer_2" data-name="Layer 2" xmlns="http://www.w3.org/2000/svg" viewBox="0 0 336.34 100.67">
  <defs>
    <style>
      .cls-1 {
        fill: #5c3827;
        fill-rule: evenodd;
      }
    </style>
  </defs>
  <g id="_Layer_" data-name="&amp;lt;Layer&amp;gt;">
    <g>
      <path class="cls-1" d="M317.6,78c-.1.02-.19.08-.29.12.06.06.15.18.18.18.14-.06.26-.15.39-.23-.09-.02-.19-.08-.29-.07h0ZM85.56,51.41c-.14-.15-.23-.31-.29-.31-.33.04-.66.12-.98.21-.05,0-.1.22-.09.22.19.11.41.31.59.28.27-.06.53-.27.78-.41h0ZM74.44,84.95c-.06-.1-.12-.26-.21-.28-.28-.06-.74.43-.68.74.02.09.17.17.28.19.45.1.65-.13.6-.65h0ZM197.8,15.41c.86.31,1,.23,1.79-.82q-1.06,0-1.79.82h0ZM187.11,16.54c.08.07.18.21.25.2,1.71-.37,3.32-1.08,4.99-2.22.4-.28.34-.95-.14-1.19-.19-.1-.46-.08-.83-.13-1.32.97-2.71,1.99-4.1,3.02-.09.06-.12.21-.17.32h0ZM283.18,54.47c-.36,0-.78-.16-1.03-.01-1.51.88-2.89,1.96-4.22,3.09-.12.1-.12.45-.08.65.07.36.56.47.91.21,1.4-1.05,2.8-2.1,4.19-3.19.14-.11.14-.42.24-.75h0ZM197.02,10.94c.07.21.08.48.23.59.17.13.46.22.67.17,2.17-.5,4.21-1.4,6.18-2.46.2-.1.3-.38.44-.58-.08-.06-.17-.19-.24-.19-1.67.13-4.07.95-7.28,2.46h0ZM168.29,24.91c.59.01.97.11,1.31.02,2.42-.64,4.77-1.47,7.13-2.74-.72-.4-1.35-.35-1.92-.19-2.22.63-4.47,1.27-6.52,2.92h0ZM47.22,76.56c-.1-.06-.2-.14-.31-.17-.12-.02-.27-.03-.37.02-3.21,1.7-6.21,3.74-9.2,5.78-.18.12-.26.42-.34.64-.02.06.1.22.18.25.35.18.69.08,1.03-.09,3.22-1.7,6.04-3.99,8.94-6.16.06-.04.04-.19.06-.28h0ZM305.51,62.01c-.43-.36-.93-.31-1.41-.13-2.14.8-3.96,2.19-5.82,3.48-2.18,1.51-4.27,3.16-6.53,4.56-.96.59-1.84,1.33-2.73,2.03-.29.23-.49.57-.71.87-.04.06-.02.22.02.28.08.08.22.17.31.16.89-.14,1.6-.7,2.31-1.22,2.36-1.69,4.82-3.24,7.3-4.74,2.16-1.3,4.31-2.63,6.34-4.15.41-.31.77-.64.92-1.15h0ZM301.26,59.86c-.34.88-1.13,1.34-1.82,1.86-1.11.83-2.28,1.57-3.42,2.36-3.01,2.07-6.02,4.14-9.03,6.21-.57.39-1.33.14-1.47-.48-.04-.23-.04-.49.02-.71.06-.23.17-.52.34-.66,1.83-1.53,3.53-3.23,5.82-4.12,1.89-.73,3.39-2.16,5.07-3.27.95-.63,1.85-1.3,2.81-1.92.6-.38,1.23-.1,1.68.73h0ZM314.34,73.49c-.24.09-.51.11-.7.25-1.34.95-2.72,1.82-4.32,2.24-.35.08-.7.27-1.02.47-3.88,2.32-7.67,4.77-11.17,7.67-.15.12-.18.45-.18.68-.03.24.63.54.89.43.45-.2.93-.35,1.35-.62,2.31-1.51,4.75-2.8,7.19-4.11,2.55-1.36,5.06-2.79,7.58-4.19.55-.3,1.11-.61,1.45-1.17.16-.89-.25-1.4-1.06-1.66h0ZM281.38,64.37q-1.47-1.12-2.28-2.86c.3-.31.61-.72.99-1,1.93-1.39,3.84-2.81,5.84-4.1,1.35-.88,2.84-1.55,4.27-2.3.24-.13.75.05.98.32.35.41.36.98.02,1.34-.25.28-.49.58-.77.82-2.77,2.34-5.62,4.6-8.15,7.22-.25.25-.61.39-.9.56h0ZM294.15,82.77c-.32-.18-.56-.27-.73-.43-.52-.49-.62-1.21-.23-1.63.42-.46.83-.98,1.34-1.31,2.71-1.84,5.24-3.94,8.28-5.22.45-.19.94-.41,1.29-.75,1.71-1.6,3.83-2.37,5.91-3.22.46-.18.91-.39,1.4-.5.21-.05.52.05.65.21.1.11.09.44,0,.62-.09.21-.29.41-.49.55-1.86,1.3-3.71,2.6-5.57,3.87-.95.64-1.93,1.2-2.89,1.78-2.69,1.63-5.31,3.36-7.74,5.37-.37.3-.86.46-1.23.65h0ZM309.85,63.76c.83.26,1.15.88,1.05,1.7-.06.51-.41.88-.87,1.16-3.77,2.3-7.53,4.61-11.29,6.92-2.37,1.45-4.69,2.96-6.84,4.74-.37.31-.83.53-1.2.77-1.12-.34-1.3-1.17-1.25-2.06.02-.33.26-.76.52-.96,2.42-1.81,4.81-3.66,7.51-5.08,3.57-1.87,7.11-3.81,10.34-6.25.59-.45,1.22-.92,2.03-.94h0ZM315.51,79.37c0-.3.12-.44.35-.39-.03.08-.05.18-.09.21-.1.06-.22.08-.33.11-.04.41-.29.69-.62.87-4.08,2.48-8.17,4.95-12.27,7.42-.33.18-.67.35-1.03.46-.5.15-.95.04-1.34-.44.2-.28.34-.7.63-.85,2.23-1.13,4.22-2.69,6.59-3.63,2.32-.92,4.47-2.29,6.68-3.48.46-.24.94-.33,1.44-.27h0ZM304.24,90.14c-.12.19-.21.43-.38.54-.26.15-.47.03-.5-.23,0-.06.17-.18.27-.19.22-.04.45-.03.67-.04.07-.22.09-.53.24-.66.59-.46,1.19-.96,1.86-1.29,4.19-2.05,8.27-4.31,12.35-6.58.32-.18.7-.24,1.03.13-.26.25-.49.58-.8.76-1.96,1.13-3.94,2.27-5.93,3.34-2.34,1.25-4.7,2.44-7.05,3.66-.56.29-1.13.56-1.77.57h0ZM65.65,68.78c.09-.04.31-.21.09.09-.07.07-.14.13-.22.19.05-.09.09-.18.13-.28h0ZM284.07,66.12c-.07.09-.19.29-.21.27-.18-.09-.07-.18.28-.19q0-.64.67-.83c.06-.24.04-.54.18-.69,2.94-2.9,5.95-5.72,9.69-7.54.29-.15.68,0,1.05,0-.13.33-.16.62-.32.77-.72.69-1.44,1.4-2.23,1.99-2.31,1.71-4.66,3.37-6.99,5.04-.42.29-.87.48-1.38.43,0,.5-.32.67-.74.74h0ZM275.14,64.24q-1.08-2.25-2.66-3.3c-.24.03-.49.06-.74.09-1.23.12-1.69-.31-1.42-1.41.18-.73.48-1.42-.07-2.11-.14-.19-.29-.45-.29-.67.12-1.98-.85-3.54-1.8-5.12-.96-1.58-1.63-3.26-1.95-5.13-.25-1.44-.78-2.83-1.2-4.25-.12-.42-.6-.68-1.54-.89-.74.59-1.51,1.23-2.3,1.85-.82.63-1.47,1.37-1.91,2.31-.16.33-.41.63-.65.92-.41.55-1.52.4-1.94-.21-.52-.76-.33-2.22.31-2.77.86-.74,1.77-1.42,2.6-2.19.23-.22.29-.65.38-.98.02-.05-.2-.24-.26-.21-1.65.6-3.24,1.31-4.54,2.54-.83.78-1.67,1.54-2.56,2.24-.24.2-.76.28-1.03.16-.27-.14-.47-.56-.53-.9-.05-.34.04-.76.21-1.07.23-.44.59-.8.92-1.19.25-.29.48-.58.45-.98.24-.02.55.04.71-.09,1.22-.87,2.42-1.78,3.59-2.65-.18-.92-.18-.95-.44-.96-.23,0-.54-.03-.7.09-1.16.96-2.13,2.1-3.07,3.27-.06.08-.04.23-.06.36-.35.1-.77.11-1.06.31-1.77,1.21-3.63,2.3-5.25,3.72-.28.24-.65.37-.98.54-.24.12-.8-.19-.89-.49-.2-.65-.04-1.28.43-1.72,1.18-1.15,2.41-2.23,3.62-3.33.76-.68,1.5-1.35,2.24-2.03.08-.07.08-.21.12-.33-.23-.06-.51-.24-.67-.15-2.82,1.39-5.68,2.71-8.35,4.4-.3.19-.77.12-1.01-.11-.32-.31-.36-1.04-.07-1.35.18-.18.33-.39.52-.55.49-.4.97-.82,1.5-1.16,2.02-1.28,3.92-2.78,6.14-3.73.48-.2.86-.53,1.02-1.08-.27-.21-.55-.46-.86-.64-.67-.4-1.4-.44-2.12,0-1.2.7-2.29,1.56-3.26,2.56-.43.44-.95.82-1.44,1.2-.28.23-.69.16-1.01-.13-.32-.29-.48-.72-.35-.98.17-.34.29-.71.53-.98.75-.86,1.55-1.67,2.32-2.51.17-.18.36-.39.42-.62.06-.21.05-.52-.07-.66-.12-.15-.47-.27-.63-.2-.68.31-1.34.68-1.97,1.08-.53.33-.99.81-1.54,1.09-.28.15-.73.09-1.06-.01-.39-.13-.63-.87-.46-1.28.14-.34.28-.71.51-.99.46-.59.99-1.12,1.52-1.7-.23-.37-.35-.75-.61-.96-2.41-1.89-4.7-3.93-6.76-6.19-.17-.18-.32-.38-.53-.51-2.11-1.34-3.49-3.4-5.18-5.17-.67-.71-1.28-1.48-2.06-2.07-.29-.23-.6-.47-.78-.78-1.15-2.17-3.25-3.24-5.19-4.5-1.43-.94-2.91-1.82-4.31-2.68-1.6.43-3.41,1.57-4.41,2.75-.09,1.09.99,1.65,1.13,2.65.05.3-.11.86-.35,1.01-.11.07-.19.2-.3.23-1.97.41-3.8,1.26-5.71,1.9-1.9.65-3.7,1.56-5.51,2.45-3.6,1.79-7.11,3.79-10.7,5.61-3.81,1.94-7.61,3.95-11.16,6.39-1.35.92-2.8,1.68-4.13,2.46-.36-.1-.62-.12-.82-.24-.41-.25-.57-.96-.28-1.29.33-.38.66-.82,1.08-1.03,2.04-1.01,3.92-2.28,5.84-3.5,1.17-.74,2.41-1.38,3.63-2.04,3.33-1.8,6.67-3.58,10-5.38.32-.18.62-.41.91-.64.09-.07.16-.21.18-.32.03-.21-.14-.34-.45-.35-.92-.04-1.76.37-2.45.86-2.85,1.97-6.16,2.85-9.22,4.33-4.76,2.3-9.78,3.97-14.72,5.85-.86.32-1.51-.04-1.98-1.05-.1-.22-.16-.49-.33-.64-.16-.15-.42-.19-.73-.32-1.43.61-2.9,1.32-4.5,1.72-1.07.28-2.08.85-2.78,1.84-.81,1.14-1.97,1.5-3.3,1.37-.12-.02-.24.04-.57.09-.56.4-1.25.96-2,1.41-.64.4-1.37.63-2.01,1.02-.44.27-.72.7-.75,1.25-.09.03-.18.06-.26.12-.04.03-.05.12-.08.17.09-.12.18-.24.26-.36.76.09,1.48-.05,2.19-.33,1.05-.41,2.1-.83,3.16-1.21.56-.21,1.25.12,1.6.63.36.53.51,1.12.53,1.74.04.8-.23,1.47-1.18,1.78-.46-.28-.98-.59-1.62-.97-.38.12-.88.19-1.31.43-3.51,2-6.87,4.2-9.69,7.18-1.38,1.46-2.99,2.7-4.56,3.97-2.17,1.76-3.93,3.91-5.87,5.89-.79.8-1.53,1.69-2.27,2.54-.74.85-1.48,1.72-2.2,2.6-.56.68-1.09,1.39-1.66,2.06-1.78,2.12-3.51,4.31-5.82,5.91-.31.22-.45.59-.39.99-.34.02-.85-.04-.35.49.09.1.37-.25.3-.55.36-.08.77-.06,1.06-.25.96-.6,1.88-1.28,2.82-1.91,1.04-.7,2.11-1.38,3.15-2.1.73-.5,1.47-.99,2.12-1.58,1.69-1.51,3.33-3.09,5-4.63,1.12-1.03,2.26-2.02,3.38-3.04,1.12-1.02,2.25-2.04,3.35-3.08,1.21-1.15,2.49-2.14,4.18-2.58.28.16.61.32.88.55.22.18.25.85.09,1.04-.22.29-.44.62-.7.88-2.17,2.14-4.45,4.12-6.85,5.99-.59.46-1.15.96-1.64,1.38,0,.51-.04.89,0,1.25.05.42-.11.75-.42.97-.4.3-.85.54-1.27.79-1.95,1.15-3.91,2.3-5.87,3.44-3.71,2.16-7.18,4.69-10.56,7.35-2.68,2.1-5.31,4.3-8.09,6.26-4.02,2.83-7.99,5.75-12.36,8.05-2,1.05-3.95,2.21-5.91,3.36-1.96,1.14-3.84,2.41-5.59,3.89-.59.5-1.26.82-2.01.97-.4.08-1-.2-1.22-.62-.3-.58-.35-1.18-.07-1.79.16-.34.41-.63.61-.95,1.31-.27,2.4-.98,3.45-1.78.17-.12.21-.39.3-.6.37-.07.79-.03,1.09-.2,2.39-1.42,4.9-2.59,7.34-3.92,3.87-2.12,7.58-4.54,11.21-7.06,2.18-1.51,4.29-3.1,6.35-4.86-.3-.12-.56-.33-.7-.27-1.91.97-3.8,1.96-5.7,2.95-.22.12-.44.25-.65.38-1.99,1.34-3.98,2.67-5.97,4.01-2.72,1.83-5.43,3.69-8.17,5.51-1.36.91-2.77,1.76-4.15,2.64-.32.2-.58.46-.58.89-1.34.24-2.69.89-3.52,1.75-.15.14-.14.43-.2.65-.64-.05-1.26.03-1.79.41-.93.65-1.84,1.34-2.77,1.99-.62.45-1.25.87-1.89,1.27-.54.34-1.38.2-1.68-.24-.32-.46-.33-1.37,0-1.77.24-.29.49-.59.79-.8,1.15-.77,2.32-1.52,3.5-2.26,4.49-2.82,9.01-5.6,13.49-8.44,4.06-2.57,8.01-5.31,11.8-8.26.39-.3.83-.56,1.29-.75,3.98-1.69,7.7-4.08,10.75-6.94.56-.52,1.11-1.05,1.72-1.5,2.17-1.59,3.83-3.66,5.41-5.81.1-.14,0-.44-.03-.65,0-.01-.22-.02-.3.02-.41.29-.83.57-1.21.9-1.15.98-2.46,1.76-3.47,2.93-1.02,1.17-2.71,1.32-3.81,2.42-.44.43-1.07.67-1.53,1.11-2.67,2.58-6,4.2-8.98,6.32-1.89.79-3.39,2.18-5.06,3.33-1.16.8-2.39,1.39-3.78,1.64-.72-.09-1.46-.28-2.18-.22-.6.05-1.21.33-1.75.64-2.18,1.27-4.34,2.56-6.47,3.9-2.56,1.62-5.11,3.27-7.52,5.13-.69.53-1.52.87-2.28,1.29-.55-.11-1.03-.2-1.54-.3-.06.02-.2.05-.28.14-2.81,2.74-2.79,2.78-6.01,4.53-2.66,1.44-5.38,2.78-8.07,4.15-.21.1-.5.13-.72.09-.22-.05-.45-.2-.58-.39-.12-.18-.17-.45-.12-.66.05-.23.19-.5.38-.64.6-.45,1.22-.9,1.87-1.27,2.72-1.6,5.47-3.15,8.19-4.76.75-.45,1.55-.86,2.04-1.65.05-.09.09-.23.04-.3-.06-.09-.2-.2-.29-.2-.5.03-1.02,0-1.47.17-1.77.64-3.53,1.33-5.29,2.01-2.83,1.08-5.53,2.44-8.11,4.05-2.05,1.29-4.24,2.21-6.58,2.74-.88.2-1.65.6-2.39,1.1-.51.35-1.02.74-1.55,1.07-.45.28-1.3.15-1.74-.21-.44-.37-.72-1.19-.52-1.68.48-1.16.92-2.33,1.5-3.43.28-.53.79-1,1.28-1.36,1.33-.96,2.72-1.84,4.1-2.74,3.71-2.41,7.42-4.81,11.14-7.2,3.72-2.39,7.46-4.74,11.18-7.12.96-.62,1.91-1.24,2.83-1.9,1.55-1.12,3.25-1.94,4.93-2.81.57-.29,1.21-.35,1.82-.16.36.12.65.34.79.71.12.33.03.82-.23,1.03-.68.56-1.33,1.18-2.07,1.65-2.57,1.6-5.14,3.21-7.93,4.4-.58.24-1.17.49-1.69.83-6.79,4.39-13.82,8.39-20.47,13.01-.3.2-.58.45-.84.72-.07.07-.07.25-.03.35.04.1.19.24.26.23,1.5-.3,2.85-.98,4.2-1.65,2.04-1,4.08-1.99,6.08-3.06,2.24-1.17,4.44-2.39,6.63-3.66,3.28-1.9,6.51-3.88,9.79-5.76,1.31-.75,2.69-1.36,4.09-2.06.74.19,1.44.38,2.25.59,2.05-.25,4-.94,5.89-2.1,2.03-1.25,3.99-2.66,6.22-3.57.68-.28,1.29-.8,1.92-1.21.64-.41,1.24-.9,1.91-1.23,2.61-1.31,4.98-2.98,7.33-4.7,1.02-.75,2.09-1.41,3.25-1.93.44-.19.93-.37,1.15-.88-.08-.22-.1-.49-.25-.65-.35-.35-.77-.61-1.15-.91-1.15-.91-2.3-1.82-3.46-2.73-2.4-.95-4.79-1.92-7.2-2.85-.56-.22-1.2-.29-1.81-.34-.74-.06-1.5.03-2.23-.07-.73-.09-1.44-.35-2.09-.51-1.6.08-2.89,1.09-4.42,1.17-.58.03-1.18.42-1.72.73-2.18,1.27-4.34,2.57-6.52,3.86-.98.57-1.96,1.13-2.95,1.69-2.63,1.49-5.27,2.99-7.9,4.49-.54.31-1.11.62-1.43,1.21.03.76.5,1.3.92,1.86.53.13.95-.16,1.38-.41,5.47-3.16,10.83-6.5,16.09-9.98,1.39-.91,2.8-1.72,4.43-2.02.55-.1.98.18,1.28.57.31.4.42.9.12,1.39-.12.21-.3.39-.34.44-2.92,1.59-5.73,3.02-8.45,4.6-2.61,1.53-5.13,3.22-7.89,4.96-.37.31-.27,1-.44,1.58-.23.76-.7,1.33-1.4,1.7-3.03,1.55-6.06,3.09-9.07,4.67-1,.53-1.93,1.2-2.9,1.79-4.85,2.96-9.63,6.03-14.24,9.37-1.54,1.11-3.03,2.3-4.62,3.32-2.12,1.37-4.29,2.66-6.58,3.73-.33.15-.71.21-1.07.3-.42.11-1.03-.2-1.24-.61-.19-.38-.09-1.14.21-1.4.28-.24.56-.55.9-.66,2.32-.74,4.3-2.06,6.3-3.41,4.93-3.31,9.88-6.59,14.83-9.87,1.05-.7,2.13-1.37,3.18-2.07.94-.62,1.86-1.28,2.7-1.88.29-.72.49-1.31.76-1.87.14-.28.26-.5.06-.59-.19-.1-.5-.16-.66-.08-1.43.82-2.89,1.58-4.22,2.54-2.36,1.71-4.99,2.99-7.21,4.89-.09.08-.21.13-.32.2-4,2.17-7.66,4.89-11.47,7.36-2.33,1.51-4.63,3.08-7.34,3.86-.82.24-1.54.84-2.34,1.22-.44.22-.93.39-1.41.48-1.11.21-2.08-.55-1.57-1.72.1-.23.19-.48.27-.71.32-.21.67-.4.75-.83,1.29.24,2.27-.34,3.19-1.19-.52-.44-.99-.16-1.41.01-.66.27-1.41.45-1.7,1.26-.38.15-.67.4-.74.83-.6-.15-1.23-.27-1.82.06-2.23,1.22-4.67,1.85-7.02,2.7-1.56.57-3.11.96-4.76.6-.75-.16-1.47.14-2.13.56-1.07.67-2.13,1.36-3.23,1.98-1.21.67-2.46,1.25-4.4,2.23.02-.03-.45.56-.96,1.12-.26.3-.62.4-1.01.34-.4-.06-.79-.59-.76-1.13.03-.5.06-1,.23-1.46.34-.94.77-1.86,1.19-2.83.48-.3,1.07-.56,1.53-.97.69-.61,1.42-1.01,2.33-1.13,1.4-.18,2.65-.82,3.79-1.61,1.46-1.02,2.88-2.06,4.26-3.17,1.3-1.03,2.67-1.91,4.2-2.53,2.59-1.05,4.91-2.57,7.16-4.23.9-.69,1.87-1.29,2.77-1.98,2.04-1.56,4.22-2.75,6.81-3.06.71-.09,1.42-.47,2.11-.79.69-.31,1.37-.65,2.01-1.04,3.43-2.13,6.99-4.07,10.2-6.54,2.85-2.17,5.99-3.76,9.17-5.29,1.59-.76,3.19-1.48,4.78-2.27,1.81-.89,3.53-1.94,5.15-3.18,2.41-1.84,5-3.42,7.85-4.52.58-.23,1.13-.53,1.69-.82.44-.24.85-.6,1.32-.74,3.04-.89,5.52-2.93,8.28-4.26.97.09,1.73.54,2.29,1.18.88.98,2.04,1.34,3.3,1.43,1.11.09,2.23.07,3.35.06.62,0,1.24-.04,1.96-.06,1.71,1.33,3.77,2.13,5.87,2.86.81.29,1.57.7,2.43,1.08.53-.02,1.15-.06,1.77-.06.63.02,1.32.1,1.7.59.6.8,1.33.35,2.21.32,1.22.43,2.62.91,4.03,1.42,3.52-.49,6.78-1.76,9.79-3.7.95-.62,1.84-1.35,2.78-1.98,2.13-1.41,3.96-3.12,5.52-5.16,1.38-1.8,2.89-3.52,4.14-5.43.35-.52.74-1.04,1.19-1.48,1.56-1.5,2.95-3.12,4.17-4.91.33-.5.93-.82,1.42-1.22.09-.08.22-.13.32-.18,1.79-.95,3.65-1.68,5.56-2.33,1.69-1.21,3.65-1.65,5.57-2.24,2.16-.67,4.31-1.35,6.43-2.15,1.99-.76,3.95-1.66,5.84-2.66,2.46-1.31,5.1-2.14,7.62-3.31,1.28-.58,2.64-.8,4.07-.72,1.26-1.29,2.8-2.16,4.35-3,1.54-.85,3.12-1.64,4.68-2.47,1.68-.89,3.3-1.86,4.77-3.07,1.29-1.05,2.71-1.87,4.25-2.48.93-.38,1.87-.75,2.79-1.16,2.19-.95,4.47-1.69,6.53-2.95.53-.33,1.12-.56,1.71-.79.47-.18.95-.3,1.52-.47.42.07.91.17,1.39.22.89.08,1.68.39,2.4.9,4.52,3.17,9.3,5.93,14,9.11.15.3.43.72.59,1.18.37,1.06.85,2.04,1.77,2.73,1.78,2.69,4.21,4.76,6.6,6.86.74.64,1.41,1.36,2.13,2.03,1.53,1.42,3.16,2.69,5.03,3.67,1.73.9,3.27,2.13,5.05,2.99.77.36,1.53.73,2.33,1.04,2.52.98,5.01,2.01,7.25,3.55.7.47,1.5.85,2.3,1.13,2.34.82,4.5,1.96,6.6,3.39.75,1.38.83,3.01,1.17,4.57.64,3.02,1.43,6.02,3.42,8.47.07.09.18.14.38.28.27.01.67.14.98.01,1.59-.63,3.17-.62,4.77-.27.23.05.49,0,.56-.01,1.61-.84,3.08-1.55,4.51-2.35.76-.43,1.47-.98,2.18-1.5.63-.47,1.34-.69,2.09-.76.78-.06,1.49.11,2.03.69.51.53.95,1.12,1.51,1.6,1.58,1.37,3.08,2.89,5.35,2.65.99,1.26,1.96,2.16,3.45,2.26.78.05,1.4.42,1.95.94.94.88,2.08,1.27,3.53,1.27,1-.5,2.13-1.04,3.32-1.62.31.1.7.16.98.35.65.45.72.96.3,1.59-.28.42-.63.8-.88,1.23-.11.18-.02.46-.02.7.98.57,2.05.85,3.14,1.06,1.08.22,1.71.93,2.01,1.93.18.58.29,1.19.4,1.79.1.61.11,1.24.23,1.85.1.47.34.92.47,1.39.29,1,1.45,1.39,1.73,2.33.28.95.43,1.94,1.09,2.71.63.75,1.34,1.43,1.98,2.17,2.01,2.31,4,4.63,5.99,6.95.24.28.5.56.66.89.59,1.27,1.66,2.09,2.82,2.91.1,1.5.2,2.97.33,4.73.23.42.56,1.07.94,1.69.41.65,1.01,1.04,1.8,1.16.61.1,1.21.24,1.54,1.05-.13.47-.3,1.07-.47,1.66.13.18.22.44.39.53.33.15.72.16,1.07.29.41.17.58.94.29,1.29-.33.37-.65.81-1.06,1.06-1.19.7-2.44,1.33-3.66,1.98-1.05.55-1.83.5-2.61-.51-.14-.18-.36-.31-.53-.47-1.06-.38-1.92.49-2.91.53-.54.02-.95-.2-1.29-.58-.33-.38-.33-.98-.09-1.39.32-.57.81-.94,1.35-1.3.64-.4,1.48-.5,1.87-1.22.16-.3.14-.71.11-1.07-.03-.27-.67-.59-.9-.48-.46.19-.93.36-1.36.61-1.64.95-3.25,1.95-4.9,2.88-.53.31-1.14.5-1.75.67-.35.09-.75.06-1.1.03-.75-.06-1.22-1.1-.73-1.7.3-.39.64-.8,1.06-1.05,1.18-.72,2.43-1.34,3.64-2.02,1.64-.93,3.3-1.83,4.78-3.04.09-.07.18-.3.14-.33-.14-.15-.33-.32-.52-.34-.23-.03-.5.04-.72.15-1.78.94-3.57,1.89-5.33,2.89-2.19,1.24-4.34,2.58-6.54,3.82-.53.3-1.16.5-1.76.59-.28.04-.64-.29-.91-.51-.23-.19-.15-.77.06-1.04.53-.73,1.19-1.3,1.94-1.8,1.79-1.18,3.62-2.29,5.53-3.29,2.01-1.06,3.97-2.22,5.94-3.35.32-.18.56-.5.83-.75-.02-1.12-.67-1.81-1.44-2.42-.25-.21-.83-.26-1.06-.11-.11.06-.24.09-.32.18-2,2.04-4.52,3.22-6.99,4.48-2.81,1.44-5.63,2.84-8.44,4.26-.58.3-.88.86-.75,1.56.16.87.43,1.75-.44,2.41-.81.62-1.66.25-2.49.02-.12-.03-.24-.04-.36-.06-.48.17-.94.36-1.42.48-1.11.29-2.04-.14-2.12-1.34-.03-.36-.1-.74-.26-1.05-.09-.16-.42-.34-.59-.29-.47.13-.92.36-1.36.6-.55.3-1.07.67-1.71.64-1.3-.24-1.12-1.48-1.56-2.28-.23-.09-.46-.28-.66-.24-1.6.24-3.2.52-4.76,1.08-.34.13-.73.15-1.1.21-.47.06-1.26-.45-1.44-.98-.17-.49-.12-1.01.23-1.41.31-.39.68-.77,1.1-1.03.75-.46,1.57-.8,2.35-1.22.55-.3,1.12-.59,1.5-1.2.33-1.44-.42-2.27-1.6-2.83-.32.09-.58.12-.79.24-2.06,1.21-4.12,2.45-5.93,3.54-.64.55-.67,1.07-.82,1.55-.07.22-.22.47-.4.62-.79.69-1.7,1.06-2.75,1.01-.89-.05-1.56-.98-1.32-1.83.21-.75.54-1.44,1.13-1.93.88-.73,1.78-1.43,2.71-2.08,1.56-1.08,3.16-2.11,4.71-3.18.75-.5,1.03-1.33,0-2.12-.1-.07-.22-.12-.34-.17-.21.1-.51.15-.64.31-.8,1.04-1.88,1.67-3,2.27-2.67,1.41-5.3,2.92-8.01,4.29-2.06,1.05-3.86,2.38-5.18,4.31-.3.43-.72.72-1.23.83-.64-.21-.99-.65-1.07-1.33-.1-.78,0-1.52.61-2.07,1.12-1.02,2.27-2.03,3.47-2.95.9-.68,1.91-1.23,2.89-1.82,1.52-.9,3.07-1.75,4.58-2.65q2.91-1.72,5.84-2.6c-.19-1.19-.74-2.03-2.1-2.29-2.42,2.64-5.43,4.48-8.48,6.29-3.05,1.8-5.99,3.78-8.95,5.71-1.16.76-2.25,1.64-3.24,2.62-.35.34-.8.6-1.25.82-.17.09-.54.06-.68-.08-.24-.24-.55-.62-.51-.9.08-.46.31-.99.64-1.34,1.13-1.2,2.29-2.37,3.73-3.21.88-.5,1.71-1.07,2.58-1.6,4.11-2.5,7.91-5.44,11.62-8.51.98-.8,1.85-1.73,2.76-2.6.44-.43.3-.87-.52-1.34-.12-.06-.48.14-.65.29-3.01,2.75-6.43,4.91-9.77,7.19-5.22,3.56-10.47,7.08-15.5,10.93-.89.69-1.78,1.41-2.85,1.86-.54.24-1.09.22-1.35-.13-.33-.47-.19-1.21.37-1.65,1.59-1.26,3.15-2.55,4.78-3.74,2.75-2.02,5.51-4.03,8.35-5.91,3.99-2.67,7.88-5.5,11.8-8.28.31-.21.55-.52.81-.79.09-.09.2-.22.18-.32-.02-.24-.22-.36-.52-.31-.24.03-.48.14-.71.19-.82.19-1.41,0-1.55-.51-.13-.44.27-1.12.93-1.48,1.23-.65,2.54-1.15,3.48-2.24.32-.37.6-.78.87-1.13-.43-1.17-.93-2.12-2-2.63l.09.09c-.12-.46-.35-.8-.87-.82l.12.09Z"/>
      <path class="cls-1" d="M122.56,79c-.49-.09-1-.11-1.45.16-1.74,1.02-3.47,2.07-5.2,3.09-1.74,1.03-3.49,2.04-5.24,3.05-.44.25-.9.46-1.32.74-5.33,3.38-10.8,6.52-15.99,10.12-.41.29-.84.57-1.29.8-.33.16-.71.24-1.07.33-.4.11-1.15-.16-1.27-.53-.12-.32-.18-.73-.1-1.07.19-.77.72-1.36,1.42-1.68,5.26-2.47,10.01-5.86,15.03-8.74,4.7-2.72,9.32-5.57,13.95-8.41,1.93-1.19,3.76-2.54,5.66-3.8.62-.43,1.28-.8,1.92-1.2,1.23-.78,2.35-.81,3.28.4.07.09.18.19.29.21.23.02.54.09.71-.03,1.14-.8,2.23-1.66,3.36-2.46.83-.59,1.67-1.13,2.54-1.64.31-.18.71-.21,1.07-.27.71-.1,1.42.81,1.2,1.48-.24.74-.65,1.4-1.3,1.81-1.58,1.02-3.19,2.03-4.83,2.96-1.43.8-2.8,1.69-4.13,2.66-4.19,3.05-8.32,6.16-12.68,8.99-2.95,1.92-5.79,4.07-8.65,6.14-1.54,1.12-3.09,2.21-4.83,2.98-.45.2-.96.34-1.44.35-.33,0-.69-.23-.96-.45-.28-.24-.08-1.06.27-1.34.3-.24.58-.51.9-.68,1.8-.92,3.47-2.06,5.13-3.21,4.07-2.79,8.14-5.56,12.19-8.36.83-.58,1.64-1.19,2.43-1.82.17-.13.23-.42.33-.64.64-.03,1.19-.27,1.63-.75.08-.08.26-.22.24-.26-.1-.27-.34-.34-.59-.16-.47.35-1.16.48-1.22,1.23Z"/>
      <path class="cls-1" d="M211.27,50.15c.24.13.59.27.87.48.23.15.3.84.19,1.03-.14.21-.25.44-.41.62-1.12,1.21-2.35,2.31-3.75,3.19-5.25,3.27-10.12,7.1-15.07,10.8-.61.45-1.19.93-1.8,1.39-6.11,4.47-12.23,8.94-18.32,13.42-4.07,2.99-8.11,6.03-12.17,9.04-1.32.97-2.66,1.92-4.03,2.81-.52.34-1.13.57-1.71.74-.48.13-1.01.05-1.36-.37-.37-.43-.24-.9.07-1.34.07-.11.15-.21.24-.32,2.74-1.28,5.2-3.06,7.56-4.95,2.67-2.12,5.46-4.08,8.19-6.12,3.34-2.51,6.7-4.97,10.04-7.45,4.27-3.16,8.54-6.29,12.76-9.5,3.12-2.36,6.3-4.66,9.45-6.96,2.04-1.49,3.95-3.16,5.89-4.78.99-.83,2-1.54,3.38-1.76Z"/>
      <path class="cls-1" d="M195.4,54.9c-.09.31-.09.6-.23.77-1.1,1.41-2.53,2.46-3.97,3.48-4.53,3.19-9,6.48-13.43,9.81-2.82,2.13-5.52,4.43-8.32,6.57-3.3,2.53-6.67,4.98-10,7.47-1.62,1.21-3.23,2.42-4.84,3.65-1.2.92-2.4,1.84-3.8,2.44-.54.24-1.24-.01-1.53-.63-.08-.18-.07-.51.05-.67.21-.3.5-.57.8-.77,2.14-1.34,4.16-2.84,6.14-4.42,1.18-.95,2.44-1.8,3.63-2.72,4.52-3.44,9.05-6.86,13.54-10.33,2.09-1.62,4.1-3.34,6.17-5.01,1.28-1.02,2.52-2.1,3.86-3.05,2.17-1.52,4.23-3.2,6.19-4.97,1.14-1.03,2.38-1.87,3.73-2.55.49-.24,1-.2,1.41.1.27.2.42.56.59.81Z"/>
      <path class="cls-1" d="M211.37,60.01c-.07.23-.08.52-.22.7-.23.27-.53.57-.85.72-2.29,1.08-4.36,2.5-6.4,4.01-1.61,1.2-3.36,2.23-5.02,3.38-1.97,1.35-3.97,2.68-5.86,4.16-4.48,3.5-8.89,7.09-13.36,10.6-2.59,2.03-5.1,4.14-7.49,6.4-.73.69-1.44,1.41-2.12,2.16-.71.78-1.62,1.18-2.57,1.49-.3.09-.74-.1-.96-.41-.18-.28-.16-.78.05-1.05.08-.1.11-.23.2-.32,1.82-1.75,3.55-3.61,5.49-5.22,5.63-4.69,11.29-9.36,17.06-13.87,3.48-2.72,7.15-5.18,10.81-7.67,1.98-1.35,3.99-2.65,5.84-4.18,1.1-.91,2.38-1.4,3.66-1.87.54-.2,1.18.06,1.6.63.07.09.1.22.16.33Z"/>
      <path class="cls-1" d="M267.11,60.9c.23.12.47.19.66.35.51.44.64,1.2.3,1.65-.22.29-.44.61-.7.89-2.29,2.37-4.69,4.63-7.28,6.65-3.1,2.4-6.22,4.77-9.43,7-1.25.87-2.38,1.89-3.59,2.82-1.8,1.37-3.67,2.69-5.45,4.1-2.77,2.2-5.51,4.45-8.02,6.98-.53.54-1.13,1.02-1.89,1.21-.39.1-.72-.03-1.01-.29-.28-.25-.39-.75-.2-1,.4-.5.73-1.03,1.19-1.46,2.48-2.37,5.03-4.63,7.75-6.71,5.43-4.14,10.8-8.37,16.24-12.5,2.33-1.77,4.42-3.78,6.41-5.91.77-.83,1.55-1.67,2.39-2.45.75-.69,1.58-1.27,2.63-1.32Z"/>
      <path class="cls-1" d="M223.81,89.86c-.65-.18-.96-.81-.71-1.21.27-.43.51-.88.85-1.23,1.71-1.68,3.44-3.34,5.18-4.99,4.49-4.26,9.3-8.14,13.99-12.16,4.6-3.94,9.48-7.54,14.1-11.45.88-.73,1.78-1.4,2.71-2.07.63-.47,1.46-.23,1.91.48.26.4.27,1.05,0,1.4-.32.38-.62.83-1.02,1.09-1.47.98-2.75,2.2-4.27,3.12-1.39.84-2.61,1.97-3.91,2.96-1.5,1.15-3.02,2.28-4.5,3.46-1.59,1.25-3.11,2.57-4.69,3.83-4.05,3.22-7.95,6.62-11.75,10.13-2.32,2.14-4.66,4.24-7.03,6.34-.24.21-.66.23-.85.29Z"/>
      <path class="cls-1" d="M275.8,64.87c-.12,1.02-.48,1.91-1.2,2.7-1.47,1.58-3.01,3.06-4.78,4.31-3.93,2.77-7.77,5.68-11.75,8.36-4.83,3.25-9.5,6.69-14.11,10.25-.98.75-1.91,1.71-3.18,1.99-.21.05-.49-.03-.66-.15-.28-.2-.34-.77-.17-1.02.14-.21.25-.44.43-.62.34-.36.71-.71,1.1-1.04,3.3-2.78,6.69-5.42,10.21-7.89,3.21-2.25,6.42-4.5,9.57-6.82,2.34-1.73,4.59-3.57,6.8-5.31.15-.49.29-.84.35-1.21.11-.52.32-1.01.78-1.24,1.35-.68,2.61-1.51,3.79-2.47.64-.52,1.42-.41,2.17-.48l-.12-.09c.09.48.3.83.87.82l-.09-.09Z"/>
      <path class="cls-1" d="M179.93,91.01c-.18-.14-.43-.23-.55-.42-.26-.44-.24-.94-.02-1.42.37-.84,1.03-1.43,1.66-2.03,3.31-3.16,6.99-5.81,10.83-8.23,2.35-1.48,4.7-2.97,7.01-4.51,1.25-.84,2.41-1.83,3.62-2.73.73-.55,1.54-.84,2.46-.78.24.02.48.09.72.15.43.11.71.89.46,1.23-.74,1.03-1.67,1.86-2.76,2.53-2.9,1.76-5.84,3.49-8.71,5.3-2.77,1.74-5.49,3.59-8.01,5.68-1.26,1.04-2.36,2.27-3.54,3.42-.72.71-1.45,1.42-2.44,1.75-.23.07-.48.06-.73.08Z"/>
      <path class="cls-1" d="M144.05,75.64c0,.71-.33,1.26-.89,1.58-2.61,1.52-5.22,3.04-7.89,4.46-1.9,1-3.72,2.1-5.48,3.34-2.88,2.04-5.75,4.1-8.26,6.62-.09.09-.21.15-.31.23-.79.65-1.27.56-2.11-.44.04-.77.35-1.46.93-1.97,1.24-1.09,2.45-2.21,3.78-3.18,3.25-2.38,6.52-4.75,10.03-6.75,2.29-1.32,4.4-2.95,6.77-4.13.45-.23.88-.5,1.35-.65.34-.12.74-.12,1.09-.07.53.09.79.53.98.98Z"/>
      <path class="cls-1" d="M126.78,96.41c-.16-.16-.38-.29-.49-.49-.26-.47-.17-.97.05-1.44.16-.33.37-.67.62-.94,1.17-1.17,2.29-2.39,3.55-3.43,1.75-1.44,3.61-2.77,5.46-4.1,2.77-2,5.51-4.02,7.99-6.4.54-.52,1.19-.93,1.83-1.31.45-.27.96-.23,1.44-.04.56.22.84,1.11.5,1.55-.24.29-.45.61-.73.86-2.06,1.88-4.23,3.61-6.52,5.2-2.08,1.44-4.11,2.96-6.16,4.43-1.85,1.33-3.53,2.86-5.08,4.54-.51.55-1.13,1-1.74,1.45-.17.13-.47.09-.71.12Z"/>
      <path class="cls-1" d="M185.98,32.03c-.82.12-1.51-.58-1.37-1.14.12-.47.27-1,.59-1.33.6-.63,1.29-1.22,2.03-1.66,2.37-1.41,4.76-2.8,7.18-4.13,2.87-1.57,5.68-3.23,8.39-5.06.94-.65,1.92-1.2,3.02-1.48.62-.16,1.22-.13,1.8.17.52.26.69,1.17.28,1.59-.17.18-.32.41-.52.54-2.88,1.79-5.66,3.76-8.92,4.78-.47.14-.91.42-1.35.66-1.55.83-3.08,1.7-4.64,2.51-2.01,1.04-3.94,2.19-5.46,3.94-.3.35-.83.51-1.02.61Z"/>
      <path class="cls-1" d="M158.2,75.78c-.17-.15-.42-.26-.5-.45-.29-.62-.19-1.28.27-1.75,1.22-1.27,2.38-2.59,3.82-3.66,2.23-1.67,4.38-3.42,6.51-5.22,1.35-1.13,2.62-2.39,3.9-3.6.65-.62,1.36-1.13,2.22-1.41.59-.19,1.22.02,1.58.62.19.33.27.71.06,1.06-.26.42-.53.88-.91,1.19-2.14,1.77-4.25,3.59-6.49,5.23-3.07,2.24-6.03,4.6-8.83,7.17-.28.25-.58.49-.89.68-.21.12-.48.11-.72.15Z"/>
      <path class="cls-1" d="M204.66,79.64c-.85,1.33-2.06,2.45-3.33,3.48-1.95,1.58-3.91,3.16-5.95,4.62-1.35.95-2.58,2.02-3.77,3.13-.72.68-1.28,1.55-1.87,2.35-.38.52-.87.88-1.47,1.12-.73.29-1.54-.19-1.62-.98-.09-.92.19-1.75.87-2.38,1.2-1.11,2.42-2.19,3.69-3.2,2.08-1.63,4.26-3.14,6.31-4.79,1.27-1.02,2.4-2.22,3.59-3.33.45-.43.88-.9,1.36-1.3.4-.32.87-.47,1.38-.23.62.28.97.71.8,1.51Z"/>
      <path class="cls-1" d="M216.04,26.99c-.36.64-.8,1.39-1.23,2.14.74.3,1.42.53,2.07.84.55.26.55,1.28,0,1.54-1.35.65-2.71,1.29-4.09,1.86-.45.18-.98.17-1.47.15-.49-.02-.97-.14-1.42-.21-1,.27-1.95.52-2.82.76-.33-.16-.58-.22-.76-.38-.52-.45-.62-1.12-.27-1.64.22-.31.41-.64.68-.89.47-.42.95-.84,1.49-1.15,1.87-1.07,3.6-2.31,5.06-3.9.08-.09.19-.16.29-.23.43-.3.91-.48,1.4-.36.65.16,1.03.62,1.05,1.46Z"/>
      <path class="cls-1" d="M200.42,30.88c-.75-.03-1.19-.21-1.42-.69-.24-.47-.13-.97.17-1.4.21-.31.45-.62.76-.83.82-.57,1.64-1.2,2.53-1.61,2.18-1,4.16-2.31,6.14-3.65,1.14-.78,2.34-1.48,3.65-1.91.44-.15.98-.12,1.45-.03.74.14,1.04,1.26.53,1.78-.18.18-.32.39-.52.53-1.95,1.39-3.91,2.75-6.13,3.65-1.76.71-3.36,1.65-4.67,3.07-.71.78-1.66,1.09-2.48,1.08Z"/>
      <path class="cls-1" d="M233.57,73.48c-.34-.16-.59-.22-.77-.36-.29-.25-.41-.64-.24-.99.2-.45.46-.89.78-1.27,1.41-1.6,2.95-3.09,4.64-4.4,2.09-1.62,4-3.43,5.76-5.41.49-.55,1.11-1.01,1.71-1.46.66-.49,1.95,0,2.07.8.06.34,0,.78-.18,1.07-.34.52-.76,1.01-1.22,1.42-1.8,1.56-3.59,3.15-5.48,4.61-2.08,1.61-4.1,3.3-5.92,5.21-.33.35-.81.54-1.15.78Z"/>
      <path class="cls-1" d="M137,92.27c0-.53.22-.99.58-1.33.54-.53,1.1-1.04,1.72-1.47,1.46-1,2.96-1.9,4.42-2.88,1.77-1.2,3.64-2.25,5.24-3.7.46-.41,1.04-.7,1.6-.98.32-.16.72-.16,1.07-.24.28-.06.85.25.89.5.03.23.07.51-.02.71-.15.34-.37.66-.62.92-1.62,1.6-3.51,2.87-5.47,3.99-2.62,1.51-5.08,3.26-7.39,5.2-.61.53-1.2.38-1.87-.39-.07-.09-.11-.22-.15-.33Z"/>
      <path class="cls-1" d="M207.87,86.62c-.07.17-.16.57-.4.84-1.31,1.53-2.73,2.97-4.38,4.15-1.33.96-2.66,1.92-3.54,3.35-.12.19-.39.3-.59.45-.49.36-1.21.3-1.7-.14-.48-.44-.71-1.22-.43-1.66.26-.42.53-.87.9-1.19.74-.68,1.51-1.35,2.34-1.91,1.37-.93,2.6-2,3.72-3.19.8-.84,1.73-1.46,2.83-1.8.56-.18,1.36.39,1.25,1.12Z"/>
      <path class="cls-1" d="M216.56,87.63c-.05.24-.02.52-.15.72-.78,1.31-1.79,2.43-3.04,3.32-1.64,1.18-3.28,2.35-4.94,3.5-.19.14-.44.2-.67.31-.55.24-1.33.02-1.64-.48-.28-.45-.26-.94,0-1.4.19-.32.41-.66.7-.87.81-.61,1.62-1.23,2.51-1.69,1.7-.87,3.19-2,4.52-3.38.35-.35.83-.56,1.27-.79.48-.26,1.43.26,1.45.76Z"/>
      <path class="cls-1" d="M161.52,66.26c-.27-.15-.53-.2-.67-.38-.24-.28-.34-.64-.2-1.02.08-.23.18-.49.35-.65,2.06-2.03,4.03-4.17,6.5-5.72.42-.26.88-.45,1.35-.64.58-.24,1.32-.02,1.63.45.33.49.26,1.3-.18,1.71-.54.51-1.12,1.01-1.68,1.5-1.92,1.63-3.96,3.07-6.13,4.35-.3.19-.68.27-.97.39Z"/>
      <path class="cls-1" d="M233.81,65.73c-.29-.08-.53-.13-.75-.2-.26-.09-.53-.72-.41-.93.25-.42.46-.92.81-1.24,2.03-1.86,4.1-3.69,6.17-5.51.28-.25.61-.48.96-.56.33-.08.73-.03,1.05.09.42.16.71.84.57,1.23-.13.35-.24.75-.49.98-2.2,2.04-4.48,4-6.9,5.78-.29.21-.7.25-1,.35Z"/>
    </g>
  </g>
</svg>