<?xml version="1.0" encoding="UTF-8"?>
<svg id="Layer_2" data-name="Layer 2" xmlns="http://www.w3.org/2000/svg" viewBox="0 0 145.92 51.44">
  <defs>
    <style>
      .cls-1 {
        fill: #753d22;
      }
    </style>
  </defs>
  <g id="Layer_2-2" data-name="Layer 2">
    <g>
      <g>
        <path class="cls-1" d="M143,43.92c.98-.09,1.96-.15,2.92-.2-3.91-1.29-8.83-.47-12.94-1.19-3.46-.6-6.82-.44-10.25-1.17-9.46-2.01-13.04-9.13-18.43-16.32-1.45-1.93-3.46-3.78-5.34-5.28-1.76-1.41-3.71-1.65-5.7-2.77-2.47-1.38-3.52-3.92-5.36-5.85-2.19-2.31-5.2-4.01-7.54-6.2-1.4-1.3-2.98-3.04-4.67-3.93-3.2-1.66-5.02-1.1-8.06.36-3.21,1.55-5.44,4.54-7.74,7.15-2.12,2.41-4.56,4.52-6.56,7.03-1.37,1.72-2.91,3.3-4.3,5.01-.74.92-1.56,1.75-2.25,2.7-.87,1.18-1.99,1.65-3.01,2.62-2.8,2.65-4.44,5.98-7.05,8.73-3.09,3.25-7.31,5.68-11.09,8.02-4.08,2.52-7,5.37-12.24,5.29-4.51-.07-8.91,1.04-13.4,1.24,3.89,0,7.84,0,11.71.36,2.66.25,5.41.48,8.08.15,4.87-.59,8.93-2.46,13.29-4.72,2.12-1.1,4.28-2.08,6.56-2.82,3.68-1.2,6.38-3.3,8.32-6.68,1.3-2.26,2.58-7.62,4.91-8.98-3.98,2.32-5.18,7.02-8.33,10.1-2.78,2.72-7.95,4.39-11.63,5.37,1.46-2.61,5.11-4.97,7.09-7.45,1.54-1.92,2.91-3.98,4.5-5.88,3.18-3.78,7-7.36,10.41-10.95,2.81-2.96,5.81-5.71,8.68-8.61,1.02-1.03,2.02-2.23,3.13-3.23-.19.34-.41.65-.57.99-.73,1.43-1.16,2.94-1.74,4.44-.68,1.77-2.31,2.94-3.66,4.22-1.42,1.36-2.77,2.73-4.04,4.23-.08.1.06.2.15.13,2.72-1.88,5.47-4.02,7.69-6.49,1.1-1.21,2.09-2.33,2.8-3.82.68-1.42,1.41-2.79,2.35-4.07.41-.58.91-1.1,1.32-1.67.65,0,1.32.09,2.06.37,3.43,1.3,6.61,4.27,9.49,6.51,2.67,2.09,5.27,4.25,7.78,6.52-.74-.16-1.49-.28-2.19-.41-1.18-.21-2.39-.6-3.58-.72-1.26-.14-2.6-.04-3.86,0-2.12.05-4.32.43-6.21,1.43-1.81.96-2.16,3-3.67,4.21-.15.11-.07.41.13.4,1.64-.02,2.3-1.33,3.55-2.14.87-.57,1.71-.52,2.69-.33,1.11.21,2.24.35,3.36.38,1.14.02,2.28.09,3.42.12,1.16.02,2.28-.24,3.45-.19,3.28.14,7.9.12,10.48,2.48,1.52,1.4,2.93,3.08,4.34,4.61,2,2.16,4.08,5.08,4.76,7.98-2.1-.54-4.87-.57-6.42-2.35-.43-.49-.23-.86-.15-1.46.07-.48.09-.98.03-1.46-.11-.98-.57-1.95-1.08-2.78-.12-.17-.39-.05-.3.14.57,1.12.57,2.38.12,3.55-.36.96-.79,1.78-.26,2.79.52,1.01,1.58,1.69,2.73,2.16,2.76,2.15,5.66,4.41,8.7,6.09,3.05,1.69,6.44,1.63,9.83,1.93,4.24.38,8.68,1.26,12.94,1.11,3.26-.11,6.57-.52,9.87-.78Z"/>
        <path class="cls-1" d="M54.15,39.09c.95-1.63,2.46-4.13,1.7-5.5-2.47,1.36-2.91,4.82-5.09,6.52-3.4,2.66-7.48,4.67-11.06,7.12-2.42,1.65-4.79,1.99-7.54,2.5,2.8.91,7.76.38,10.42-.81,2-.9,3.9-2.14,5.83-3.19,2.46-1.32,4.04-3.4,5.29-5.84.12-.23.27-.5.44-.8Z"/>
        <path class="cls-1" d="M59.51,39c-.66.78-1.35,1.57-1.85,2.47-.26.47-.51.96-.75,1.44-1.09,2.16-3,3.96-5.16,5.13-1.85,1-3.94,1.42-5.73,2.54.87-.54,3.17-.12,4.18-.14,1.45-.04,2.99-.04,4.37-.54,3.29-1.2,4.17-4.01,4.88-7.13.24-1.06.41-2.17,1.09-3.05.5-.64-.51-1.32-1.03-.71Z"/>
      </g>
      <path class="cls-1" d="M80.11,26.79c-.19-.86-.81-1.48-1.59-1.86-.65-.32-1.38-.49-2.07-.72-.83-.27-1.64-.55-2.5-.69-.91-.15-1.88-.07-2.71.37-1.54.81-4.93,3.93-4.95,5.77-.01,1.33,1.61,2.34,2.62,3.04,2.39,1.66,4.66,1.72,7.14.28,2.12-1.23,4.68-3.32,4.05-6.19Z"/>
      <path class="cls-1" d="M96.81,27.32c-.26-1.18-.96-2.34-1.69-2.94-1.07-.87-2.67-.93-3.99-.97-1.48-.05-2.97.06-4.43.33-3.38.61.74,8.6,4.16,8.16,1.38-.17,4.16-.83,5.27-1.76.8-.67.92-1.75.69-2.82Z"/>
      <path class="cls-1" d="M86.59,35.5c-.18-.84-.67-1.63-1.16-2.32-.47-.66-1.06-1.26-1.7-1.76-.32-.25-.7-.38-1.07-.36-.1-.06-.22-.08-.33,0-.12.09-.21.17-.32.25-.02.01-.04.01-.06.04,0,0,0,.02,0,.03-.2.16-.38.34-.53.56-.26.34-.46.72-.65,1.1-.38.76-.69,1.55-.89,2.38-.19.75-.3,1.77.63,2.08.85.28,1.42-.62,2.24-.64.14,0,.29.01.42.05.21.05.39.2.57.3.37.2.78.33,1.2.32.53,0,1.02-.18,1.36-.6.32-.4.41-.94.3-1.44Z"/>
      <path class="cls-1" d="M112.43,46.9c-1.61-.43-3.21-1.05-4.88-1.29-.42-.06-.84-.13-1.25-.24-.86-.23-1.37-.45-1.79-.82.02-.4.03-.78.09-1.17.12-.88.59-1.72,1.07-2.46.07-.1.15-.18.21-.29.03-.05-.03-.12-.09-.1-.63.13-1.14.55-1.66.91-.26.2-.53.39-.83.55-.17.09-.33.21-.49.32-.74-.97-1.56-1.79-2.71-2.62-1.68-1.22-3.54-2.09-5.47-2.88-.17-.07-.31-.11-.45-.14.03-1.08-.2-2.14-.93-2.99-.11-.12-.3,0-.23.14.3.66.19,1.38-.08,2.05-.3.75-.48,1.54-.64,2.35-.17.82-.37,1.64-.51,2.47-.01.08-.02.17-.03.26-.54.27-.45-.39-1.08-.43-1.27-.07-2.72.06-4.06.13-2.21.12-4.42.49-6.63.38-1.69-.08-4.17-.87-3.99,1.57-1.26.17-1.76-1.52-2.44-2.35-1.26-1.55-.92-1.59-.86-3.55-5.21.8-7.31,8.02-10.41,11.49-.8.91-2.13,1.49-2.76,2.34,3.94-.74,7.8-.15,11.73.23,4.38.42,8.89.81,13.29.62-1.24-.82-3.26-.61-4.67-.85-2.44-.41-6.66-.62-8.63-2.26,3.06-.02,5.92-1.33,9.03-.73,2.8.53,5.29.84,8.12.96,3.26.14,6.3,1.12,9.58,1.22,2.21.07,4.33-.35,6.54-.32-4.05-1.56-9.22-1.14-13.43-2.45,2.91-.25,5.8-1.31,8.71-.7,3.98.85,7.69,1,11.69,1.4,2.41.24,4.98.24,7.37-.12-2.04,0-4.17-.08-6.16-.58-.08-.02-.16-.04-.25-.07Z"/>
      <path class="cls-1" d="M70.33,18.11c1.84-1.9,4.23-3.81,6.99-3.4-3.27-1.75-5.68,1.06-8.42,2.68-4.45,2.63.25-2.95,1.66-3.93-4.32.05-5.53,6.2-7.84,8.79-1.13,1.28-2.64,2.95-2.86,4.69.99-.81,1.78-2.14,2.74-3.08,2.11-2.07,5.04-2.86,7.01-5,.23-.25.47-.51.72-.75Z"/>
    </g>
  </g>
</svg>