<?xml version="1.0" encoding="UTF-8"?>
<svg id="Layer_2" data-name="Layer 2" xmlns="http://www.w3.org/2000/svg" viewBox="0 0 98.13 41.46">
  <defs>
    <style>
      .cls-1 {
        fill: #753d22;
        fill-rule: evenodd;
      }
    </style>
  </defs>
  <g id="Layer_2-2" data-name="Layer 2">
    <g>
      <path class="cls-1" d="M54.42,4.46c2.9.04,6.06.28,8.69,1.59.71.35,3.74,1.17,3.66,2.03-.08.82-3.28,1.64-3.99,1.96-.45.2-1.12.17-1.61.23-3.22.43-6.5.72-9.73,1.07-1.36.15-2.76.15-4.12.06-2.49-.18-4.97-.5-7.46-.71-1.89-.16-6.45-.69-7.07-2.67-.4-1.27,6.06-2.53,7.11-3,1.28-.58,4.13-.54,5.37-1.02,3.26-.12,6.01.43,9.16.47h0ZM34.4,4.69c-1.65.37-4.74,2.06-6.35,2.75-.37.16-.79,1.28.98,1.86.71.35,1.12.68,1.59.77,3.55.69,7.02,1.81,10.69,1.8,1.63,0,3.28.01,4.88.25,5.14.76,10.25.16,15.36-.22,2.77-.21,5.38-1.14,7.79-2.55,1.03-.61,1.05-1.69.17-2.5-1.24-1.15-2.8-1.66-4.37-2.05-7.69-2.41-13.43-2.79-21.08-2.43-2.62.12-9.53,2.49-9.66,2.32h0ZM71.88,11.01c.37.09.67.07.8.21.52.54,1.05,1.09,1.47,1.7,4.55,6.64,10.34,12.22,15.65,18.21,2.15,2.43,4.46,4.72,6.73,7.05.18.18.75.18,1.01.03.28-.15.53-.56.58-.89.05-.33-.05-.79-.26-1.06-.53-.69-1.14-1.32-1.75-1.96-4.06-4.26-8.13-8.5-12.19-12.78-.6-.63-1.12-1.34-1.66-2.03-2.75-3.57-5.55-7.11-8.25-10.73-2.16-2.9-4.73-5.13-8.34-6-.85-.2-1.62-.68-2.45-.94-1.55-.47-3.1-1.12-4.68-1.23C53.8.25,49.04-.06,44.29,0c-3.86.06-7.76.38-11.37,2.09-1.81.86-3.64,1.68-5.49,2.43-2.14.87-3.99,2.13-5.52,3.82-2.1,2.32-4.23,4.63-6.12,7.12-3.34,4.38-6.48,8.91-9.77,13.33-1.11,1.5-2.44,2.84-3.67,4.25-.74.85-1.53,1.66-2.19,2.56-.23.32-.11.88-.15,1.34.45-.02,1.07.14,1.33-.1,1.83-1.71,3.78-3.33,5.34-5.26,3.15-3.89,6.04-8,9.12-11.95,2.23-2.85,4.6-5.61,6.94-8.39.28-.33.69-.57,1.03-.84.14.78-.04,1.34-.35,1.81-1.25,1.87-2.34,3.92-3.87,5.53-4.55,4.81-7.44,10.66-10.69,16.3-.21.35-.16.86-.34,1.88.96-.63,1.57-.85,1.87-1.27.94-1.33,1.82-2.7,2.62-4.12,2.23-3.93,4.64-7.71,7.74-11.05,1.36-1.46,2.44-3.16,3.62-4.79.59-.8,1.07-1.69,1.68-2.48.34-.43.83-.47,1.26.29-1.07,1.7-2.22,3.46-3.32,5.26-.32.52-.54,1.11-.72,1.7-.05.16.14.5.3.61.17.11.56.12.68,0,.62-.62,1.21-1.26,1.74-1.95,1.36-1.78,2.68-3.58,3.81-5.09,2.14-.51,1.98,1.67,3.18,1.94.8-.42,1.51-1,2.32-1.16.86-.18,1.75.11,2.28,1.37-.55,1.55-1.14,3.32-1.81,5.06-.63,1.64-1.41,3.21-2.02,4.85-.62,1.68-1.84,3.25-1,5.35,3.39-4.88,5.26-10.51,7.57-15.8.55-.14.91-.31,1.27-.31,2.78-.03,3.13.4,2.42,3-.27.97-.58,1.92-.78,2.9-.09.45.07.94.14,1.74.62-.41,1.18-.58,1.33-.92.66-1.49,1.19-3.02,1.77-4.54.55-1.45,1.04-1.9,2-1.87,1.04.04,1.48.74,1.51,2.55.03,1.6,0,3.21,0,4.78.44.04.79.16.88.06,1.75-1.91.89-4.57,1.88-6.7,1.06-.9,2.32-.84,3.58-.75.99.08,1.47.62,1.74,1.67.23.9-.37,2.04.88,2.83,1.78-.9.66-3.01,1.82-4.47,2.46-.75,5.18-1.57,7.68-2.33,2.21.87,2.52,3.36,4.56,4.32,1.36-2.3-1.35-3.67-1.09-5.61Z"/>
      <path class="cls-1" d="M12.48,36.35c.52-1.13.72-1.7,1.03-2.19,1.47-2.31,2.96-4.6,4.47-6.89.27-.41.54-.86.92-1.14.23-.18.68-.15,1-.07.15.04.31.4.31.62,0,.37-.04.75-.19,1.08-1.39,3.11-3.35,5.82-5.79,8.17-.22.22-.67.18-1.74.43Z"/>
      <path class="cls-1" d="M15.44,41.46c-.28-.19-.59-.27-.66-.45-.11-.33-.26-.82-.1-1.04,1.2-1.7,2.43-3.36,3.75-4.97.19-.22,1.05-.24,1.24-.03.24.26.28.99.08,1.3-1.08,1.64-2.24,3.24-3.42,4.81-.18.24-.63.28-.89.38Z"/>
      <path class="cls-1" d="M75.56,20.44c.24.05.52.03.7.16,1.55,1.06,2.91,2.31,3.73,4.03.12.25-.04.7-.18.99-.08.14-.54.27-.63.19-1.45-1.3-2.9-2.62-4.28-3.99-.16-.17-.02-.71.09-1.03.06-.16.38-.23.58-.35Z"/>
      <path class="cls-1" d="M87.6,35.33c-.94-.88-1.62-2.02-2.1-3.27-.09-.24.17-.68.37-.95.11-.14.47-.24.66-.18,1.78.55,2.59,2.29,1.88,4.08-.06.14-.41.17-.81.32Z"/>
      <path class="cls-1" d="M29.53,20.99c-.7,1.4-1.42,2.88-3.13,3.79-.23-.47-.52-.79-.5-1.07.08-1.29.73-2.35,1.69-3.15.6-.51,1.33-.65,1.95.43Z"/>
      <path class="cls-1" d="M32.58,37.69c-.26.76-.44,1.48-.77,2.13-.12.24-.63.45-.91.39-.27-.05-.6-.44-.67-.73-.18-.87-.05-1.75.68-2.36.24-.19.7-.29.98-.2.27.09.45.48.7.77Z"/>
    </g>
  </g>
</svg>