<?xml version="1.0" encoding="UTF-8"?>
<svg id="Layer_2" data-name="Layer 2" xmlns="http://www.w3.org/2000/svg" viewBox="0 0 291.49 214.09">
  <defs>
    <style>
      .cls-1 {
        fill: #284268;
      }
    </style>
  </defs>
  <g id="Layer_1-2" data-name="Layer 1">
    <g>
      <polygon class="cls-1" points="198.83 139.36 198.83 134.4 154.74 89.8 153.87 89.8 153.87 96.81 197.41 140.78 198.83 139.36"/>
      <polygon class="cls-1" points="168.13 178.24 153.87 192.2 153.87 200.51 172.1 182.21 168.13 178.24"/>
      <polygon class="cls-1" points="264.51 139.3 264.51 134.4 220.29 89.8 217.44 89.8 217.44 94.83 262.96 140.78 264.51 139.3"/>
      <polygon class="cls-1" points="250.43 169.69 264.51 155.92 264.51 147.98 246.53 165.72 250.43 169.69"/>
      <polygon class="cls-1" points="172.04 123.98 168.13 120.01 153.87 133.96 153.87 138.43 155.61 140.16 172.04 123.98"/>
      <polygon class="cls-1" points="184.88 169.69 198.83 155.98 198.83 148.04 180.91 165.72 184.88 169.69"/>
      <polygon class="cls-1" points="198.83 192.57 153.87 147.23 153.87 155.05 198.77 200.39 198.83 192.57"/>
      <polygon class="cls-1" points="264.51 97.68 264.51 89.87 246.53 107.48 250.43 111.45 264.51 97.68"/>
      <polygon class="cls-1" points="264.51 192.63 217.38 145.13 217.38 152.94 264.51 200.39 264.51 192.63"/>
      <polygon class="cls-1" points="237.66 123.98 233.75 120.07 217.44 136.01 217.44 136.38 221.16 140.16 237.66 123.98"/>
      <polygon class="cls-1" points="233.63 178.06 217.38 192.01 217.38 200.82 237.6 182.09 233.63 178.06"/>
      <polygon class="cls-1" points="69.52 183.76 69.59 164.79 60.03 174.21 69.52 183.76"/>
      <polygon class="cls-1" points="69.52 192.57 24.68 147.36 24.68 155.17 69.46 200.45 69.52 192.57"/>
      <polygon class="cls-1" points="38.95 178.37 24.68 192.32 24.68 200.63 42.92 182.34 38.95 178.37"/>
      <path class="cls-1" d="M276.86,86.7h14.14v-6.51h-9.99v-25.86h-6.2v25.86h-34.23v-25.86h-6.2v25.86h-34.23v-25.86h-6.2v25.86h-47.57v-46.64l28.84-10.48-28.84-10.61V2.48c0-1.36-1.12-2.48-2.48-2.48s-2.48,1.12-2.48,2.48v77.71h-43.91v-25.86h-6.2v25.86h-34.23v-25.86h-6.2v25.86H16.68v-25.86h-6.2v25.86H0v6.51h12.34v117.46H0v9.92h291.49v-9.92h-14.64v-117.46ZM141.53,204.17h-59.72l.25-114.36h-6.14l-.25,114.36H18.48v-117.46h123.05v117.46ZM204.97,204.17h-57.31v-117.46h57.43l-.12,117.46ZM270.65,204.17h-59.54l.12-117.46h59.42v117.46Z"/>
      <polygon class="cls-1" points="69.71 97.87 69.71 89.87 51.79 107.54 55.76 111.51 69.71 97.87"/>
      <polygon class="cls-1" points="69.65 139.54 69.65 134.46 25.55 89.8 24.68 89.8 24.68 96.94 68.22 140.91 69.65 139.54"/>
      <polygon class="cls-1" points="55.69 169.81 69.59 156.04 69.59 148.23 51.79 165.84 55.69 169.81"/>
      <polygon class="cls-1" points="42.92 124.1 38.95 120.13 24.68 134.09 24.68 138.55 26.42 140.29 42.92 124.1"/>
      <polygon class="cls-1" points="104.56 178.18 88.07 193.19 88.07 200.88 108.47 182.15 104.56 178.18"/>
      <polygon class="cls-1" points="135.33 192.76 88.19 145.19 88.13 152.88 135.33 200.39 135.33 192.76"/>
      <polygon class="cls-1" points="108.41 124.23 104.44 120.26 88.19 136.19 88.19 136.38 92.04 140.29 108.41 124.23"/>
      <polygon class="cls-1" points="198.9 97.74 198.9 89.87 180.97 107.48 184.88 111.45 198.9 97.74"/>
      <polygon class="cls-1" points="135.33 139.42 135.33 134.58 91.11 89.8 88.32 89.8 88.25 95.26 133.84 140.91 135.33 139.42"/>
      <polygon class="cls-1" points="135.33 97.8 135.33 89.87 117.4 107.54 121.31 111.51 135.33 97.8"/>
      <polygon class="cls-1" points="121.25 169.81 135.33 156.04 135.33 148.1 117.34 165.84 121.25 169.81"/>
    </g>
  </g>
</svg>