<?xml version="1.0" encoding="UTF-8"?>
<svg id="Layer_2" data-name="Layer 2" xmlns="http://www.w3.org/2000/svg" viewBox="0 0 236.3 291.49">
  <defs>
    <style>
      .cls-1 {
        fill: #284268;
      }
    </style>
  </defs>
  <g id="Layer_1-2" data-name="Layer 1">
    <g>
      <path class="cls-1" d="M1.47,289.37l-1.47,2.12h54.95l-1.47-2.12c-2.94-4.24-7.77-6.77-12.92-6.77H14.39c-5.16,0-9.99,2.53-12.92,6.77Z"/>
      <rect class="cls-1" x="136.8" y="98.06" width="9.17" height="9.17" transform="translate(-31.17 130.04) rotate(-45)"/>
      <rect class="cls-1" x="20.95" y="30.44" width="13.05" height="245.96"/>
      <rect class="cls-1" x="40.2" y="63.76" width="7.74" height="82.7"/>
      <path class="cls-1" d="M141.66,79.34c-12.84,0-23.24,10.41-23.24,23.24h0c.02,12.83,10.41,23.23,23.24,23.24,12.84,0,23.24-10.41,23.24-23.24s-10.41-23.24-23.24-23.24ZM154.46,104.84s0,0,0,0l-10.87,10.87c-1.21,1.21-3.17,1.21-4.39,0l-10.87-10.87c-1.22-1.2-1.26-3.14-.06-4.36.01-.01.03-.03.06-.02l10.87-10.87c1.21-1.21,3.17-1.21,4.39,0l10.87,10.87c1.21,1.21,1.21,3.17,0,4.39Z"/>
      <path class="cls-1" d="M27.47.02c.48-.02-.47-.02,0,0h0Z"/>
      <path class="cls-1" d="M16.74,6.31c-2.18,3.86-2.2,8.57-.07,12.45l3.01,5.48h15.58l3-5.48c2.13-3.88,2.11-8.59-.07-12.45C36.09,2.53,31.72.23,27.47.02c-4.25.22-8.61,2.51-10.73,6.29Z"/>
      <path class="cls-1" d="M141.46,69.07c-18.5,0-33.5,15-33.5,33.5h0c.02,18.5,15.01,33.48,33.5,33.5,18.5,0,33.5-15,33.5-33.5s-15-33.5-33.5-33.5ZM141.66,132.02c-16.26,0-29.44-13.18-29.44-29.44.02-16.25,13.19-29.43,29.44-29.45h0c16.26,0,29.44,13.18,29.44,29.44s-13.18,29.44-29.44,29.44Z"/>
      <path class="cls-1" d="M236.3,51.75c-32.72,8.3-62.57,3.32-91.47-1.5-30.38-5.07-59.1-9.87-90.68-.27v104.2c12.57-3.55,25.58-5.3,38.64-5.21,18.19,0,35.79,2.94,53.06,5.82,28.71,4.79,58.38,9.75,90.45,1.21V51.75ZM76.6,59.02s-.03,0-.04,0h0s-9.86,1.94-9.86,1.94v17.89c0,1.71-1.39,3.1-3.1,3.1s-3.1-1.39-3.1-3.1v-20.44c0-1.48,1.05-2.76,2.5-3.04l12.36-2.44c1.68-.34,3.32.74,3.66,2.42.34,1.68-.74,3.32-2.42,3.66ZM141.46,142.28c-21.93,0-39.7-17.78-39.71-39.7.02-21.92,17.79-39.68,39.71-39.71,21.93,0,39.71,17.78,39.71,39.71s-17.78,39.71-39.71,39.71ZM229.86,148.9c0,1.48-1.05,2.75-2.5,3.04l-12.36,2.44c-.2.04-.4.06-.6.06-1.71,0-3.1-1.39-3.1-3.1,0-1.48,1.05-2.75,2.5-3.04h0s9.86-1.94,9.86-1.94v-17.89c0-1.71,1.39-3.1,3.1-3.1s3.1,1.39,3.1,3.1v20.44Z"/>
    </g>
  </g>
</svg>