<?xml version="1.0" encoding="UTF-8"?>
<svg id="Layer_2" data-name="Layer 2" xmlns="http://www.w3.org/2000/svg" viewBox="0 0 291.49 262.14">
  <defs>
    <style>
      .cls-1 {
        fill: #284268;
      }
    </style>
  </defs>
  <g id="Layer_1-2" data-name="Layer 1">
    <g>
      <path class="cls-1" d="M7.17,188.65c0,2.06,1.67,3.73,3.74,3.74h14.99v-32.74h-14.99c-2.06,0-3.73,1.67-3.74,3.73v25.27Z"/>
      <path class="cls-1" d="M7.17,227.59c0,2.06,1.67,3.73,3.74,3.74h14.99v-32.74h-14.99c-2.06,0-3.73,1.67-3.74,3.73v25.27Z"/>
      <path class="cls-1" d="M0,238.66v22.24c0,.62.5,1.12,1.12,1.12h29.28s-.03-24.4-.03-24.4l-29.26-.08c-.62,0-1.12.5-1.12,1.12Z"/>
      <path class="cls-1" d="M7.17,149.71c0,2.06,1.67,3.73,3.74,3.74h14.99v-32.74h-14.99c-2.06,0-3.73,1.67-3.74,3.73v25.27Z"/>
      <path class="cls-1" d="M7.17,85.51v25.27c0,2.06,1.67,3.73,3.74,3.73h14.99v-22.39c0-3.57.8-7.1,2.33-10.33l-.03-.02H10.9c-2.06,0-3.73,1.67-3.74,3.73Z"/>
      <rect class="cls-1" x="46.35" y="114.58" width="96.85" height="7.56"/>
      <path class="cls-1" d="M47.2,44.94l-22.26,11.95c-1.82.98-2.5,3.24-1.52,5.06l7.88,14.46.28.16c1.98-2.36,4.39-4.31,7.1-5.76l20.71-11.06-7.16-13.34c-.99-1.78-3.22-2.43-5.02-1.47Z"/>
      <path class="cls-1" d="M46.35,93.59v14.78h47.37v-43.77l-44.11,23.55c-2.01,1.07-3.27,3.16-3.26,5.44Z"/>
      <polygon class="cls-1" points="13.27 75.57 23.77 75.57 18.82 66.49 13.27 75.57"/>
      <polygon class="cls-1" points="36.6 262.03 62.77 262.05 62.74 237.7 36.57 237.63 36.6 262.03"/>
      <path class="cls-1" d="M116,9.03l-22.27,11.95c-1.44.77-2.21,2.39-1.9,4l7.22,13.57,28.68-15.32-6.68-12.7c-.98-1.8-3.24-2.48-5.05-1.5Z"/>
      <polygon class="cls-1" points="267.87 76.3 279.34 76.26 273.28 66.36 267.87 76.3"/>
      <path class="cls-1" d="M285.44,150.4v-25.27c0-2.06-1.67-3.73-3.73-3.74h-14.99v32.74h14.99c2.06,0,3.73-1.67,3.73-3.73Z"/>
      <path class="cls-1" d="M266.71,232.01h14.99c2.06,0,3.73-1.67,3.73-3.73v-25.27c0-2.06-1.67-3.73-3.73-3.73h-14.99v32.74Z"/>
      <path class="cls-1" d="M266.71,193.07h14.99c2.06,0,3.73-1.67,3.73-3.74v-25.27c0-2.06-1.67-3.73-3.73-3.73h-14.99v32.74Z"/>
      <path class="cls-1" d="M81.84,27.25l-22.27,11.95c-1.61.87-2.36,2.78-1.76,4.51l7.07,13.09,28.68-15.32-7.28-13.52c-1.15-1.22-2.98-1.51-4.45-.71Z"/>
      <path class="cls-1" d="M161.85,2.21c-4.11-1.4-9.93-2.21-15.98-2.21-11.08,0-19.23,2.56-21.16,5.22.72.71,1.33,1.52,1.81,2.41l6.68,12.69,2.53-1.35c6.97-3.72,15.31-3.8,22.35-.22l1.25.64,6.42-12.2c.36-.67.81-1.3,1.32-1.87-.77-1.1-2.63-2.22-5.22-3.11Z"/>
      <polygon class="cls-1" points="99.92 108.37 143.2 108.37 143.2 38.18 99.92 61.29 99.92 108.37"/>
      <path class="cls-1" d="M198.45,20.71l-22.26-11.94c-1.74-1-3.95-.4-4.95,1.33l-6.37,12.1,28.98,14.76,6.56-12.37c.1-.55.07-1.13-.1-1.66-.31-.95-.97-1.74-1.86-2.2Z"/>
      <path class="cls-1" d="M232.61,38.93l-22.27-11.95c-.88-.48-1.91-.62-2.88-.37-.55.15-1.05.43-1.45.84l-6.6,12.33,28.96,14.75,6.1-11.28s.02-.04.04-.06c.23-.67.23-1.39,0-2.06-.33-.95-1.01-1.73-1.9-2.2Z"/>
      <path class="cls-1" d="M149.95,37.56c-.18-.09-.36-.16-.54-.24v71.04h44.52v-48.42l-43.98-22.39Z"/>
      <path class="cls-1" d="M281.7,82.46l-15.84.05c.56,2.07.85,4.21.85,6.35v26.33h14.99c2.06,0,3.73-1.67,3.73-3.73v-25.27c0-2.06-1.67-3.73-3.73-3.74Z"/>
      <path class="cls-1" d="M149.4,231.74l44.52.12v-103.52h-44.52v103.4ZM154.27,152.13c0-2.7,2.19-4.89,4.89-4.89h22.15c2.7,0,4.89,2.19,4.89,4.89v3.84c0,2.91-.78,5.76-2.29,8.25,4.55,7.55,2.12,17.37-5.43,21.92-7.55,4.55-17.37,2.12-21.92-5.43-3.08-5.11-3.05-11.52.07-16.61-1.54-2.55-2.36-5.46-2.36-8.44h0v-3.53Z"/>
      <path class="cls-1" d="M246.25,90.37c0-2.32-1.3-4.45-3.37-5.5l-42.75-21.76v45.26h46.12v-18Z"/>
      <rect class="cls-1" x="149.4" y="114.58" width="96.85" height="7.56"/>
      <polygon class="cls-1" points="246.25 128.34 200.13 128.34 200.13 231.87 246.25 232 246.25 128.34"/>
      <path class="cls-1" d="M260.51,88.86c.02-6.76-3.78-12.96-9.82-16.01l-95.42-48.58c-5.23-2.66-11.44-2.6-16.61.16l-97.06,51.84c-5.86,3.12-9.51,9.22-9.5,15.85v139.3l8.06.02V93.6c0-4.57,2.51-8.76,6.54-10.91l94.63-50.53c3.57-1.9,7.84-1.94,11.44-.11l92.93,47.31c4.16,2.1,6.77,6.37,6.76,11.02v141.65l8.06.02V88.86Z"/>
      <polygon class="cls-1" points="93.72 128.34 46.35 128.34 46.35 231.46 93.72 231.59 93.72 128.34"/>
      <polygon class="cls-1" points="225.27 238.15 198.73 238.07 198.77 262.1 225.3 262.11 225.27 238.15"/>
      <polygon class="cls-1" points="257.69 262.13 257.65 238.23 231.47 238.16 231.5 262.12 257.69 262.13"/>
      <path class="cls-1" d="M267.25,56.61l-22.26-11.95c-1.74-.94-3.91-.35-4.94,1.35l-6.14,11.33,19.6,9.98c3.29,1.67,6.15,4.07,8.37,7.02l6.91-12.69c.96-1.82.28-4.07-1.53-5.04Z"/>
      <polygon class="cls-1" points="101.37 262.06 127.83 262.07 127.8 237.88 101.33 237.81 101.37 262.06"/>
      <polygon class="cls-1" points="143.2 128.34 99.92 128.34 99.92 231.6 143.2 231.72 143.2 128.34"/>
      <polygon class="cls-1" points="95.16 262.06 95.13 237.79 68.94 237.72 68.97 262.05 95.16 262.06"/>
      <polygon class="cls-1" points="134.03 262.08 160.2 262.09 160.17 237.97 134 237.9 134.03 262.08"/>
      <polygon class="cls-1" points="166.4 262.09 192.56 262.1 192.53 238.06 166.37 237.99 166.4 262.09"/>
      <path class="cls-1" d="M170.25,171.94c-.2,0-.39,0-.59,0-3.07-.12-6.04-1.14-8.53-2.95-1.94,5.02.56,10.65,5.58,12.59,1.13.43,2.33.66,3.53.65,5.38.02,9.75-4.33,9.77-9.71,0-1.18-.21-2.35-.62-3.45-2.67,1.88-5.87,2.89-9.14,2.88Z"/>
      <path class="cls-1" d="M291.49,261.02v-21.58c0-.62-.5-1.12-1.12-1.12l-26.52-.07.03,23.88h26.48c.62.01,1.12-.49,1.12-1.11Z"/>
      <polygon class="cls-1" points="165.08 164.18 165.08 164.18 165.08 164.18 165.08 164.18"/>
      <path class="cls-1" d="M175.47,164.22c-3.16-2.03-7.21-2.04-10.39-.04,1.43.95,3.09,1.48,4.8,1.55,1.97.08,3.92-.45,5.59-1.51Z"/>
      <path class="cls-1" d="M170.24,156.49c3.27,0,6.47,1.01,9.15,2.89.41-1.09.62-2.24.62-3.41v-2.53h-19.53v2.22c0,1.25.24,2.5.69,3.66,2.66-1.85,5.83-2.84,9.07-2.84Z"/>
    </g>
  </g>
</svg>