<?xml version="1.0" encoding="UTF-8"?>
<svg id="Layer_2" data-name="Layer 2" xmlns="http://www.w3.org/2000/svg" viewBox="0 0 290.72 296.38">
  <defs>
    <style>
      .cls-1 {
        fill: #284268;
      }
    </style>
  </defs>
  <g id="Layer_1-2" data-name="Layer 1">
    <g>
      <polygon class="cls-1" points="97.36 88.06 127.59 62.97 97.36 36.86 97.36 88.06"/>
      <polygon class="cls-1" points="112.34 111.08 148.52 142.05 184.42 112.04 148.46 80.99 112.34 111.08"/>
      <polygon class="cls-1" points="195.16 111.15 153.3 146.13 164.71 155.9 195.16 130.62 195.16 111.15"/>
      <polygon class="cls-1" points="195.16 138.68 169.49 159.99 195.16 181.97 195.16 138.68"/>
      <polygon class="cls-1" points="195.16 18.94 190.25 18.91 153.35 49.64 164.75 59.4 195.16 34.16 195.16 18.94"/>
      <polygon class="cls-1" points="97.36 18.45 97.36 28.67 189.24 108.01 195.16 103.06 195.16 93.63 107.46 18.5 97.36 18.45"/>
      <polygon class="cls-1" points="195.16 42.22 169.52 63.5 195.16 85.46 195.16 42.22"/>
      <polygon class="cls-1" points="148.57 45.55 180.61 18.86 117.05 18.54 148.57 45.55"/>
      <polygon class="cls-1" points="97.36 125.82 195.16 209.77 195.16 190.13 97.36 106.41 97.36 125.82"/>
      <polygon class="cls-1" points="97.36 98.25 107.57 106.99 143.7 76.88 132.35 67.08 97.36 96.12 97.36 98.25"/>
      <path class="cls-1" d="M73.22,18.32v203.92l72.35,74.13,72.97-73.39V19.05l-17.17-.09v193.93c0,.8-.31,1.57-.86,2.15l-51.01,53.2c-1.12,1.17-2.97,1.28-4.22.24l-.06-.05c-.08-.06-.15-.13-.22-.2l-52.94-53.16c-.58-.58-.9-1.37-.9-2.19V18.41l-17.93-.09Z"/>
      <polygon class="cls-1" points="97.36 211.62 97.89 212.15 143.47 173.57 132.06 163.78 97.36 192.58 97.36 211.62"/>
      <polygon class="cls-1" points="97.36 184.52 127.29 159.68 97.36 133.99 97.36 184.52"/>
      <polygon class="cls-1" points="147.21 261.67 191.85 215.1 148.23 177.66 102.28 216.56 147.21 261.67"/>
      <path class="cls-1" d="M3.1,0C1.39,0,0,1.39,0,3.1v44.93c0,1.71,1.39,3.1,3.1,3.1s3.1-1.39,3.1-3.1v-15.75h60.82v-13.97H6.2V3.1c0-1.71-1.39-3.1-3.1-3.1Z"/>
      <path class="cls-1" d="M287.62,51.89c1.71,0,3.1-1.39,3.1-3.1V3.87c0-1.71-1.39-3.1-3.1-3.1s-3.1,1.39-3.1,3.1v15.21h-59.79v13.97h59.79v15.75c0,1.71,1.39,3.1,3.1,3.1Z"/>
    </g>
  </g>
</svg>