<?xml version="1.0" encoding="UTF-8"?>
<svg id="Layer_2" data-name="Layer 2" xmlns="http://www.w3.org/2000/svg" viewBox="0 0 193.98 291.49">
  <defs>
    <style>
      .cls-1 {
        fill: #284268;
      }
    </style>
  </defs>
  <g id="Layer_1-2" data-name="Layer 1">
    <g>
      <path class="cls-1" d="M96.35,32.63c3,0,5.43-2.43,5.43-5.43s-2.43-5.43-5.43-5.43-5.43,2.43-5.43,5.43,2.43,5.43,5.43,5.43Z"/>
      <path class="cls-1" d="M60.18,103.02l6.03,6.06,6.12-6.15v-17.57c0-1.7,1.37-3.09,3.08-3.1l11.77-.09c1.71-.01,3.11,1.36,3.13,3.08v17.68l6.07,6.1,6.07-6.1v-17.57c0-1.7,1.37-3.09,3.08-3.1l11.44-.09c.83-.01,1.62.31,2.21.9.59.58.92,1.37.92,2.2v17.75l6.03,6.06,6.12-6.15v-39.36H60.18v39.45Z"/>
      <path class="cls-1" d="M10.89,3.66C9.8.75,6.56-.73,3.65.36S-.73,4.69.36,7.6c.82,2.2,2.92,3.65,5.27,3.65h0c2.09,0,4.01-1.17,4.98-3.02h43.37V3.66H10.89Z"/>
      <path class="cls-1" d="M188.35,11.26c3.11,0,5.63-2.51,5.63-5.62C193.99,2.53,191.47,0,188.36,0c-2.35,0-4.46,1.46-5.28,3.66h-44.65v4.58h44.94c.97,1.86,2.89,3.02,4.98,3.02Z"/>
      <path class="cls-1" d="M60.18,57.37h72.05V.47H60.18v56.9ZM96.35,15.56c6.43,0,11.64,5.21,11.64,11.64,0,6.42-5.21,11.63-11.64,11.64-6.43,0-11.64-5.21-11.64-11.64s5.21-11.64,11.64-11.64Z"/>
      <path class="cls-1" d="M38.54,277.57c.5.37,2.21,1.45,3.48-.26l4.75-6.34-4.22-3.16-4.75,6.34c-.43.47-.59,1.12-.46,1.75.19.68.61,1.27,1.19,1.67Z"/>
      <polygon class="cls-1" points="89 214.55 89 205.76 56.51 249.17 60.73 252.32 89 214.55"/>
      <rect class="cls-1" x="46.19" y="257.43" width="10.89" height="5.27" transform="translate(-187.5 145.56) rotate(-53.18)"/>
      <polygon class="cls-1" points="64.28 162.75 88.87 195.59 89 195.41 89 186.73 68.51 159.58 64.28 162.75"/>
      <polygon class="cls-1" points="53.39 147.61 58.12 144.07 54.84 130.7 32.47 115.46 41.79 140.3 53.39 147.61"/>
      <polygon class="cls-1" points="137.22 130.7 133.91 144.05 138.63 147.58 150.27 140.3 159.59 115.46 137.22 130.7"/>
      <path class="cls-1" d="M133.09,158.98c.34.26.83.19,1.09-.16,0,0,0,0,0,0l2.81-3.75c.26-.34.19-.83-.16-1.09l-7.83-5.86c-.13-.1-.3-.16-.46-.16-.04,0-.08,0-.12,0-.2.03-.39.14-.51.3l-2.81,3.75c-.26.34-.19.83.16,1.09h0l7.06,5.29.77.58Z"/>
      <path class="cls-1" d="M55.07,155.07l2.81,3.75c.26.34.74.41,1.09.16,0,0,0,0,0,0l3.87-2.9,3.96-2.96c.34-.26.41-.75.15-1.09l-2.81-3.75c-.12-.17-.31-.28-.51-.3-.04,0-.08,0-.12,0-.17,0-.33.05-.46.16l-7.83,5.86c-.34.26-.41.75-.16,1.09Z"/>
      <polygon class="cls-1" points="135.55 249.17 103.88 206.86 103.88 215.63 131.34 252.32 135.55 249.17"/>
      <polygon class="cls-1" points="103.88 185.88 103.88 194.67 127.78 162.75 127.19 162.31 123.56 159.59 103.88 185.88"/>
      <rect class="cls-1" x="137.79" y="254.62" width="5.27" height="10.89" transform="translate(-127.85 136.03) rotate(-36.82)"/>
      <path class="cls-1" d="M151.58,278.24c.7,0,1.39-.23,1.94-.67.58-.41,1-1,1.19-1.67.14-.62-.03-1.27-.46-1.75l-4.74-6.34-4.22,3.16,4.75,6.34c.33.54.91.89,1.55.93Z"/>
      <polygon class="cls-1" points="124.65 283.97 99.54 283.97 99.54 113.5 96.37 115.36 93.34 113.5 93.34 283.97 67.35 283.97 67.35 291.49 124.65 291.49 124.65 283.97"/>
    </g>
  </g>
</svg>