<?xml version="1.0" encoding="UTF-8"?>
<svg id="Layer_2" data-name="Layer 2" xmlns="http://www.w3.org/2000/svg" viewBox="0 0 210.44 557.41">
  <defs>
    <style>
      .cls-1 {
        fill: #613b27;
      }
    </style>
  </defs>
  <g id="_Layer_" data-name="&amp;lt;Layer&amp;gt;">
    <g>
      <path class="cls-1" d="M210.05,425.93c-.87-3.99-1.62-8.03-3.12-11.5-1.42-1.64-3.01-2.14-4.66-2.11-5.17.1-10.33-.11-15.5-.61-1.34-.13-2.71.12-4.07.14-.81,0-1.66.02-2.43-.2-.1-.03-.2-.06-.29-.1l-4.27.3-.34-.2c-.15-.72-.35-1.26-.36-1.79-.11-10.61-.2-21.23-.3-31.85-.03-4.09-.24-8.15-.96-12.21-.48-2.67-.52-5.42-.68-8.14-.7-11.17-.07-22.32-.24-33.48-.06-4.35.32-8.7-.92-13-.3-1.03-.29-2.18-.19-3.25.37-3.81-.01-7.62-.11-11.43-.23-8.98-.6-17.96.05-26.93.15-2.17.05-4.36.05-6.54.02-6.26.02-12.51.05-18.77,0-1.09-.03-2.22.26-3.24,1.43-5.07,1.35-10.16.29-15.34-.13-.6.65-1.36.98-2.01.95-.16,1.74-.41,2.54-.4,2.44.03,4.89.19,7.34.27,2.15.07,4.24-1.76,4.44-3.91.08-.8.26-1.65.1-2.43-.83-4-.87-8.13-2.24-12.06-.53-1.52-.82-3.18-.9-4.78-.15-2.72-.09-5.44-.05-8.15.04-2.71.53-5.41,0-8.16-.46-.68-.93-1.36-1.36-2.06-1.91-3.1-4.38-4.9-8.18-3.85-.49.13-1.11.1-1.61-.07-2.95-.96-5.99-.7-8.93-.58-4.36.18-8.67-.11-13.01-.44-2.71-.22-5.44-.41-8.16-.52-2.2-.08-4.33-.51-6.42-1.19-1.07-.34-2.02-.81-2.75-2.18-.32-3.99-.18-8.37-1.53-12.6-.24-.75-.1-1.62-.11-2.44-.11-7.34-.2-14.69-.32-22.03-.09-6.01.45-11.91,2.02-17.71.89-.3,1.63-.74,2.38-.76,1.34-.03,2.71.34,4.06.29,1.44-.05,2.52-.84,3.08-2.22.2-.5.43-.98.66-1.48.25-.05.49-.13.74-.17,2.95-.55,3.98-2.17,2.64-4.29-1.02-1.62-2.1-3.24-3.36-4.68-2.18-2.48-4.45-4.88-6.78-7.23-2.32-2.34-4.4-4.88-6.21-6.85-.14-3.31-.18-6.02-.41-8.72-.51-6-1.57-11.88-4.64-17.25-.13-.23-.17-.52-.3-.94.11-.65.15-1.48.41-2.23.43-1.25-.07-2.44-1.03-2.79-2.72-.99-4.68-2.85-6.49-4.92-2.96-3.39-6.37-6.03-10.7-7.42-1.47-.47-2.14-1.78-2.06-3.22.41-7.6-.31-15.25.7-22.82.11-.78-.09-1.62-.15-2.42-.36-4.36-.36-8.71.03-13.05.07-.79,0-1.62-.06-2.42-.09-1.12-1.57-2.64-2.74-2.77-1.18-.13-2.05.48-2.76,1.33-.88,1.06-1.43,2.32-1.43,3.71,0,1.9-.14,3.88.32,5.69.96,3.82.89,7.58.24,11.33-.57,3.25-.62,6.47.03,9.74.21,1.06.33,2.19.22,3.24-.41,3.76-.93,7.51-1.42,11.27-1.07.62-1.99,1.15-2.92,1.66-2.36,1.29-4.76,2.51-7.07,3.89-1.62.97-2.98,2.3-4.03,3.9-3.24,4.97-6.23,10.12-8.37,15.66-1.63,4.25-3.59,8.45-3.65,13.23-.02,1.28-.6,2.68-1.32,3.76-1.66,2.44-3.51,4.76-5.37,7.05-.67.82-1.51,1.57-2.4,2.13-3.44,2.12-6.84,4.33-10.43,6.15-2.29,1.15-3.89,2.81-5.26,4.83-1.36,2-.96,4.21,1.16,5.66.9.61,1.85,1.26,2.87,1.54,1.63.45,2.97,1.35,4.36,2.24.89.57,1.95.89,2.73,1.25,1.57-.53,2.82-1.03,4.12-1.36,1.96-.49,3.36.4,3.59,2.24.96,7.57,1.17,15.21,2.75,22.73.15,9.79.33,19.6.43,29.4,0,.71-.57,1.42-.78,1.92-.48.27-.7.49-.94.51-1.35.09-2.71.2-4.07.18-2.98-.04-5.99-.35-8.96-.19-6.26.33-12.49.21-18.76-.28-4.06-.32-8.16-.12-12.23,0-2.6.07-4.42,2.26-4.15,4.96.76,7.37-.18,14.63-.77,21.91-.75,1.2-1.48,2.32-2.16,3.48-.71,1.18-1.14,2.53-.87,3.88.73,3.79.65,7.6.8,11.41.03.79.39,1.58.67,2.34.43,1.13,2.15,2.22,3.29,2.05,2.14-.32,4.26-.74,6.39-1.01,1.9-.24,3.36.73,3.68,2.46.39,2.14.8,4.3.95,6.47.62,8.98.55,17.95.28,26.93-.1,3.27-.09,6.52-.02,9.79.13,6.27.4,12.5,1.25,18.74.3,2.14.14,4.35.13,6.52-.03,7.07-.23,14.15-.13,21.22.16,12.26.5,24.5.75,36.75.04,2.18-.16,4.36.03,6.52.37,4.07.92,8.13-.02,12.18-.23,1.01.09,2.15.19,3.24.15,1.9.29,3.8.49,5.7,1.05,9.8.29,19.6.65,29.39.04,1.08-.19,2.15-.36,3.23-.13.8-.53,1.57-1.09,2.15l.65.03c-2.36.21-4.78.15-7.07.65-3.76.81-7.55.76-11.35.81-1.36.03-2.72-.08-4.09-.13-3.04-.12-5.93.65-8.77,1.52-1.31.4-2.36,1.55-2.53,2.93-.56,4.3-.96,8.62-1.37,12.95-.18,1.81,1.75,3.65,3.6,3.72,2.97.12,5.88-.78,9.02-.23.37.66,1.05,1.34,1.09,2.04.22,3.81.27,7.62.4,11.43.18,4.89.16,9.81.63,14.69.27,2.71.48,5.41.64,8.13.39,6.78-.14,13.62,1.69,20.32.21.79.19,1.63.2,2.44.09,8.71.09,17.43.29,26.14.07,2.81-.7,5.29-1.85,7.63.58,1.71,1.1,3.25,1.65,4.87-.46,2.34-.93,4.71-1.34,6.81,1.14,2.29,1.89,4.29,1.96,6.53.04,1.51,1.24,2.35,2.79,2.92.62-.06,1.43-.07,2.22-.22,4.59-.85,9.23.15,13.84-.07,1.29-.06,2.62.64,3.95.9.78.15,1.65.31,2.38.1,2.71-.76,5.39-.27,8.09.13,8.14,1.21,16.29,1.46,24.42.64,3.54-.36,7.06-.26,10.59-.02,4.35.3,8.69.66,13.04,1.04,1.63.14,3.23.14,4.85-.21,5.37-1.16,10.79-.46,16.23-.14.91,1.22,1.7,2.31,2.53,3.37.78.99,1.79,1.12,2.92.74,1.64-.99,1.76-3.38,3.71-4.09,22.27-2.96,25.35-3.1,39.74-2.75,3.54.09,7.05-.08,10.56-.65,2.65-.43,5.41-.36,8.12-.41,2.99-.06,5.99.01,8.98-.04.79-.02,1.59-.29,2.36-.49,1.17-.31,2.45-1.76,2.47-2.91.09-2.71.13-5.43.19-7.87,1.16-2.44,2.21-4.62,3.08-6.45,0-1.53.18-2.64-.03-3.69-1.16-5.91-1.13-11.93-2.16-17.87-.65-3.74-.64-7.61-.6-11.41.1-9.28-.55-18.48-2.28-27.67-.96-5.08-1.33-10.31-.45-15.43.27-1.64.4-3.17.07-4.82-.79-4.04-.91-8.12-.91-12.21,0-1.11.29-2.14,1.56-3.04.73-.07,1.79-.19,2.86-.25,1.08-.07,2.18-.01,3.26-.1,2.29-.18,4.12-2.08,4.06-4.25-.05-1.63-.04-3.3-.39-4.88ZM172.01,186.53c.07-.46,1.38-1.22,2.01-1.1.79.14,1.73.34,1.99,1.19.39,1.27.55,2.6.56,2.66-.34,4.52-.57,7.77-.85,11.01-.05.51-.35,1-.52,1.5-.23.69-1.17,1.29-1.94,1.11-.5-.13-1.07-.34-1.4-.71-1.13-1.29-1.8-2.91-1.62-4.53.44-3.73,1.15-7.43,1.76-11.14ZM156.96,186.38c.05-.42.6-1.02,1.02-1.11,1.84-.36,3.72-.61,5.59-.82.77-.08,2.21,1.42,2.21,2.18.01.54.1,1.09,0,1.62-.52,2.69-.5,5.38.14,8.09.31,1.32.33,2.7.46,4.06.09,1.01-.91,2.26-1.87,2.24-1.89-.03-3.8-.02-5.68-.29-1-.15-1.93-.86-3.26-1.47-.02-5.41.85-9.93,1.4-14.49ZM142.22,191.37c0-1.89-.04-3.79.01-5.67.04-1.31,1.34-2.41,2.74-2.33,1.07.07,2.15.25,3.21.46.99.2,1.91,1.33,1.99,2.32.34,4.04.67,8.08.99,12.13.02.26,0,.54.02.81.08,1.31-1.11,2.44-2.58,2.44-5.03.02-6.43-1.27-6.56-6.1-.04-1.35,0-2.71,0-4.05.06,0,.12,0,.17,0ZM135.48,188.88c.03-.45.52-.86.99-1.58.54,4.52.91,8.75.37,12.94-1.1.24-1.97-.22-1.95-1,.07-3.46.33-6.91.59-10.36ZM128.37,183.8c.25,2.69.28,5.4.35,7.2-.13,2.54-.28,4.16-.26,5.79,0,3.92-1.57,4.39-5.23,3.89-1.13-.15-2.15-1.07-2.34-2-1.03-5.16-.69-10.24.58-15.27.12-.47.57-.94.99-1.22,1.44-.93,3.05-1.16,4.59-.28.61.35,1.26,1.21,1.32,1.89ZM105.23,174.44c-4.61-.16-9.19-.28-13.8-.26-3.78,0-7.58-.35-11.32.39-.48.1-1.05-.18-1.58-.3-.53-.13-1.44-1.27-1.37-1.85.06-.52.14-1.15.45-1.49,1.64-1.82,3.73-3.05,6.07-3.73,3.36-.98,6.78-1.71,10.36-1.53,4.32.21,8.65.38,12.98.56,1.89.08,3.78.23,5.67.18,2.51-.07,4.82.58,7.21,1.81,1.14-.35,1.65-.51,2.17-.67,1.52-.49,3.16-1.29,4.52.13,1.46,1.53,1.25,3.49.73,5.35-.12.43-.66.76-1.06,1.08-.19.15-.49.19-.75.2-6.77.08-13.53.39-20.29.15ZM115.6,199.11c-.62.47-1.02.99-1.47,1.04-4.29.49-8.59.64-12.67-.28-1.8-1.94-2.08-4.1-2.09-6.28-.02-2.43.12-4.87.27-7.3.23-3.62.79-5.42,5.34-5.12,2.42.16,4.87-.12,7.3-.14,1.89-.02,3.32,1.18,3.28,2.87-.12,5.12.35,10.26.04,15.2ZM95.02,198.77c-.68.56-1.1.89-1.78,1.44-2.16-.18-4.57-.37-6.99-.58-.45-.04-1.45-1.28-1.48-1.81-.35-5.12-.21-10.19.26-15.16,2.41-1.6,4.82-1.49,7.19-1.26.66.06,1.28.87,2.05,1.43.55,5.38.4,10.77.76,15.93ZM79.27,134.46c1.14.22,1.9,1.05,2.1,2.15.26,1.41.07,2.7-1.1,3.59-.37.28-1.01.23-1.5.33-1.24.02-2.03-.71-2.59-1.67-.76-1.3-.66-2.97.14-3.73.84-.81,1.87-.87,2.96-.66ZM76.47,125.49c.25-1.93,1.2-3.48,2.68-5.01.54.41,1.35.72,1.62,1.28.71,1.51.65,3.12.26,4.7-.2.8-1.61,1.51-2.59,1.29-.9-.2-2.05-1.53-1.97-2.27ZM76.7,148.43c.21-1.07,1.79-2.09,3.12-2.03,1.23.07,1.92.91,2.52,1.82.28.44.44,1,.52,1.52.16,1.07.23,2.15.33,3.1-.13.93-.16,1.75-.39,2.51-.14.47-.49.97-.89,1.26-1.26.89-4.32-.32-4.82-1.82-.7-2.11-.81-4.23-.4-6.38ZM77.65,188.17c.21-.7.81-1.27,1.51-2.33.6,4.46.81,8.38.5,12.33-.03.34-.6.75-1.01.91-.59.23-1.12-.07-1.26-.69-.71-3.44-.79-6.87.26-10.21ZM86.46,136.93c.14-.87.86-1.49,1.59-1.58,2.36-.3,4.74-.94,7.7.16,2.19,5.26,2.19,6.1-.17,8.41-2.43.06-5.01-.75-7.61-1.34-.72-.16-1.84-1.6-1.84-2.49,0-1.06.13-2.12.32-3.16ZM86.65,121.65c.14-.44.75-.72,1.24-1.16,2.59-.16,5.25.18,7.69,1.66,1.23,1.75,1.14,3.6.52,5.45-.15.46-.55,1.02-.97,1.18-2.33.85-4.75.93-7.17.33-.44-.11-.96-.64-1.13-1.09-.82-2.1-.85-4.26-.18-6.36ZM88.56,150.61c.09-.43.59-1.03.99-1.1,1.31-.21,2.65-.32,3.97-.27,3.18.12,4.19,1.1,4.58,4.38.13,1.05.11,2.13.1,3.18-.01.84-1.23,2.04-2.11,2.06-1.6.01-3.2.04-4.79-.11-1.66-.16-2.82-1.61-2.86-3.34-.02-.8,0-1.6,0-2.4.08-.8-.03-1.63.13-2.4ZM113.57,128.72c-.17.46-.66.8-1.05,1.14-.19.16-.48.2-.74.26-3.17.82-6.3.56-10.09-.54,0-2.18-.06-3.75.02-5.32.05-.91,1.23-2.02,2.07-2.18,2.94-.56,5.83-.26,8.66.79.44.17.84.72,1.05,1.19.7,1.54.69,3.13.09,4.67ZM113.55,158.34c-.6.33-1.26.99-1.97,1.01-2.42.06-4.86-.12-7.17-.19-2.35-2.38-1.32-4.65-.59-7.16,2.36-1.23,5.09-1.31,7.75-2.02.6.61,1.41,1.09,1.64,1.74.71,2.1.71,4.28.33,6.61ZM102.23,136.83c3.39,0,6.35-.08,9.28.04.68.03,1.35.7,1.97,1.05,0,1.23.12,2.31-.03,3.35-.2,1.43-1.11,2.43-2.45,2.87-2.3.73-4.7,1.04-7.12.64-.69-.12-1.64-.74-1.88-1.35-.79-1.99-1.22-4.08.23-6.6ZM119.95,136.86c3.22-.64,5.78,1.77,5.48,5.07-.04.45-.41,1.12-.77,1.23-2.29.7-4.63,1.21-6.83-1.12.11-1.12.06-2.47.42-3.7.19-.63,1.04-1.34,1.71-1.48ZM119.23,126.29c.12-.75.48-1.45.72-2.1,2.14-.2,3.2.95,3.79,2.63.54,1.54.32,2.74-.66,4.52-.74-.27-1.52-.53-2.28-.83-.82-.33-1.34-.98-1.5-1.8-.15-.79-.19-1.63-.07-2.41ZM126.67,156.6c-.09,2.17-1.43,3.37-3.63,3.22-.8-.05-1.61-.18-2.4-.32-.99-.16-2.18-1.24-2.25-2.08-.18-2.13-.33-4.26-.47-6.22,1.44-1.63,3.03-1.41,4.61-.84,2.94,1.06,4.28,3.14,4.15,6.23ZM124.85,85.61c1.04,1.66.93,3.01.88,4.35,0,.21-.42.59-.5.56-.38-.16-.97-.44-.99-.69-.06-1.31-.44-2.69.61-4.22ZM119.08,85.69c.41,1.57.73,3.16,1.09,4.74-1.1.97-2.38,1.15-3.73.67-.48-.17-1.08-.48-1.28-.9-1.13-2.26-1.82-4.54.14-6.64,2.58.08,3.37.5,3.79,2.13ZM118.69,76.3c.23.85-.04,1.59-.64,2.14-.36.33-.91.47-1.36.7-1.44-.01-2.56-.62-3.41-1.76-.57-.77-.57-2.18,0-3,.54-.77,1.87-1.22,2.84-.9,1.38.45,2.19,1.44,2.57,2.82ZM79.19,84.17c.86-3.12,1.67-6.33,3.1-9.19,2.52-5.06,5.44-9.92,8.31-14.78,1.11-1.88,2.84-3.24,4.83-4.17,1.72-.79,3.47-1.51,5.24-2.15,2.83-1.01,4.39-.42,6.2,2.26.3.44.46.99.77,1.69-.44.49-.83,1.39-1.44,1.54-1.56.4-3.21.44-4.81.71-.79.13-1.53.47-2.29.72-.72.23-1.17,1.02-1.12,1.91.04.67.91,1.68,1.5,1.74.81.07,1.63.23,2.44.21,2.98-.14,5.96-.3,8.93-.52.89-.07,1.6.22,2.3.66.68.43.67.44,1.32,2.82-.51,1.03-1.28,1.74-2.47,1.76-1.91.03-3.81-.07-5.7,0-1.14.04-2,.67-2.65,1.62-.44.64-.32,1.82.37,2.12.72.31,1.49.51,2.25.66,1.8.36,2.54,1.01,2.77,2.47.42,2.7.83,5.39,1.26,8.17,0,.18.05.47,0,.73-.32,1.59-.67,3.17-.99,4.7-1.39.76-2.37.58-2.56-.43-.15-.79-.33-1.59-.43-2.4-.13-1.09-.17-2.17-.3-3.26-.13-1.24-1.26-2.3-2.1-2.03-.86.29-1.53,1.39-1.49,2.56.04,1.09.19,2.17.23,3.26.05,1.07,0,2.13,0,3.27-.89.34-1.6.84-2.34.86-1.62.01-3.25-.25-4.88-.36-1.62-.12-3.25-.37-4.85-.26-3.55.22-7.03-.42-10.51-.99-.4-.07-.71-.76-1.33-1.49.11-1.23.03-2.9.45-4.42ZM60.52,109.26c-.24-.03-.45-.25-.67-.39.23-.46.36-1.1.74-1.35,2-1.34,4.17-2.46,6.08-3.9,1.92-1.43,3.61-3.15,5.29-4.66,1.01-.12,1.81-.24,2.61-.31,1.8-.15,3.1.5,3.94,2.24.32.65,1.16,1.06,1.89,1.68,2.38-.46,4.74-.93,6.27-1.23,4.34.28,7.86.55,11.37.69,1.06.04,2.13-.23,3.19-.41q6.25-1.17,13.85.63c1.13,1.23,2.4,2.64,3.7,4.02.52.55,1.77.4,2.06-.25.33-.72.52-1.52.84-2.24.33-.74,1.47-.97,2.05-.4,1.36,1.35,2.72,2.68,3.99,4.11.26.29.1.93.14,1.41-.26.09-.5.27-.76.27-5.15.04-10.3.16-15.44.08-8.95-.15-17.91-.45-26.86-.63-4.06-.09-8.1-.15-12.15.45-4,.57-8.08.62-12.14.17ZM60.86,185.04c.08-1.51,1.68-2.98,3.24-3.13.81-.08,1.62-.12,2.43-.13,4.37-.08,5.56,1.48,4.72,5.42-.79,3.73-1.17,7.44-1.15,11.25,0,.47-.46.92-1.03,1.98-2.19.08-4.05.15-5.42.2-1.66-.64-2.14-1.64-2.47-2.67-.32-1.04-.66-2.12-.66-3.18.02-3.25.16-6.49.33-9.73ZM42.68,183.77c0-.88,1.21-2.02,2.1-2.17,2.68-.45,5.35-.34,8.03.15,1.17.22,2.41,1.54,2.59,2.84.38,2.68.76,5.36,1.11,8.04.17,1.34.13,2.71.41,4.02.27,1.25.82,2.45,1.31,3.84-4.27,1.59-8.44,1.96-12.69,1.37-1.98-1.96-2.45-4.47-2.69-6.78-.39-3.74-.17-7.54-.17-11.31ZM30.67,186.9c1.06-1.08.96-2.37.7-3.77-.19-1,.45-1.83,1.12-1.81.52.01,1.1.07,1.55.3,1.26.64,2.49,1.58,2.65,2.97.45,3.81,1.4,7.5,2.16,11.24.21,1.07.23,2.17.31,3.26.14,2.02-.7,3.21-2.54,3.44-2.68.34-5.37.61-8.34.93-.9-.8-1.53-1.09-1.66-1.53-.3-1.03-.59-2.15-.49-3.19.4-4.37,1.36-8.56,4.55-11.82ZM27.68,217.94c-.55,0-1.09-.04-1.63-.06-1.13-.06-2.54-1.36-2.75-2.67-.12-.8-.2-1.67,0-2.43.27-1.06.88-2.08,2.05-2.26,1.59-.26,3.22-.38,4.84-.39,2.99-.02,5.95-.2,8.93-.52,4.3-.48,8.67-.43,13.01-.59,1.9-.08,3.86.12,5.68-.28,4.81-1.03,9.68-1.09,14.58-1.07,1.63,0,3.29-.03,4.88-.3,5.14-.87,10.33-.53,15.45-.03,3.54.35,7,.86,10.51.2.53-.1,1.09,0,1.63-.06,4.05-.35,8.08.56,12.17.16,4.29-.41,8.68-.01,13.03.12,4.07.12,8.2.02,12.22.63,6.23.94,12.49.89,18.71,1.61,2.7.31,5.43.4,8.14.32,3.6-.11,7.03.42,10.35,1.91.71.91,1.15,1.85.47,2.95-.62.99-1.54,1.56-2.67,1.5-2.17-.11-4.41-.04-6.46-.63-2.15-.62-4.26-.66-6.42-.92-6.49-.76-13.04-.53-19.5-1.66-1.05-.18-2.15.05-3.22.08-4.07.13-8.11-.03-12.2-.57-7.02-.93-14.06-1.1-21.13-.19-5.9.76-11.88,1.16-17.85,1.17-5.14.02-10.31-.64-15.46-1.16-5.18-.52-10.33-.31-15.49-.13-1.61.06-3.21.45-4.78.8-4.23.92-8.44,1.91-12.65,2.87-.53.12-1.07.38-1.58.31-4.42-.55-8.53,1.33-12.87,1.29ZM146.06,396.25c-.83-.04-1.66.11-1.95.97-.91,2.89-.69,5.91-.58,8.89.08,2.17.33,4.33-.17,6.02-.8,1.27-1.79,1.7-2.79,2l-3.12.09c-.52-.27-.99-.71-1.44-1.32-.99-3.61-.54-7.41-.46-11.2.02-1.09-.02-2.16-.63-3.13-.34-.54-.78-.89-1.37-.7-.44.15-1.1.48-1.13.82-.32,2.41-.56,4.84-.72,7.27-.13,1.9-.03,3.81-.16,5.7-.06.99-.38,1.96-1.25,2.77-1.15.24-2.25.41-3.37.53-.36.04-.8-.12-1.18-.4l-3.77.11c-.12-.24-.2-.48-.19-.7.13-1.87.33-3.75.37-5.64.01-.46-.35-1.09-.74-1.37-.38-.27-1-.21-1.52-.29-1.38,1.07-1.56,2.77-2.07,4.27-.34,1.02-.42,2.12-.66,3.17-.06.26-.14.5-.25.7l-2.01.06c-.11-.13-.21-.27-.28-.42-.33-.73-.46-1.55-.77-2.3-.37-.9-2.2-1.04-2.78-.23-.32.43-.58.9-.86,1.36-.36.59-.72,1.18-1.17,1.93-3.72.13-7.2.92-10.76.32-.78-.13-1.64,0-2.42.14-3.22.63-6.48.45-9.75.35-2.45-.07-4.9-.02-7.34-.08-2.17-.06-4.35-.06-6.5-.3-1.91-.23-3.79-.41-5.69-.2-.53.06-1.08.11-1.63.06-3.32-.32-5.64-.41-7.21-.81l-2.57-.1-2.51-.13c-.96-1.36-.85-3.87-.28-8.84.31-2.73.08-5.42.08-8.12,0-11.97-.15-23.94-.27-35.91-.04-3.26-.28-6.51-.85-9.76-.42-2.4-.48-4.88-.51-7.32-.06-5.71,0-11.42-.03-17.14-.02-5.44-.23-10.86-1.01-16.29-.62-4.31-.19-8.68.23-12.98.79-8.13.72-16.28.61-24.44-.02-1.63-.18-3.29-.55-4.88-.89-3.77-.87-7.56-.84-11.37.02-4.08-.18-8.16-.18-12.23.01-5.71.1-11.42.19-17.13,0-.52.26-1.03.38-1.55.12-.47,1.32-1.36,1.86-1.35.59,0,1.75.95,1.79,1.49.11,1.9.23,3.79.29,5.68.06,1.91.02,3.81.06,5.72.01.53.2,1.07.27,1.6.11.73,1.28,1.56,1.82,1.2.4-.28,1-.65,1.04-1.03.26-3.24.4-6.5.61-9.75.07-1.08.19-2.16.33-3.23.1-.84,1.35-2.09,2.2-2.13,7.57-.41,15.13-1.34,22.72.69,2.08.56,4.32.6,6.48.59,6.54-.05,13.05.23,19.58.73,6.54.5,12.95,1.9,19.43,2.76.73.1,1.41.73,2.19,1.15.4,2.16.76,4.3,1.21,6.41.16.79.54,1.53,1.43,1.84.69.23,1.38-.89,1.41-2.4.01-.81-.07-1.62-.06-2.44,0-.54.06-1.08.13-1.62.2-1.54,1.67-2.83,3.39-2.91.81-.04,1.63,0,2.44.11,1.3.18,2.66,1.52,2.74,2.7.18,2.44.27,4.89.46,7.33.08,1.08.27,2.16.46,3.23.05.23.23.53.43.65.45.27.99.64,1.42.59.38-.06.94-.65.95-1.02.07-2.98.02-5.98.04-8.96,0-1.09.27-2.12,1.18-2.85,1.43-.27,2.71.2,3.77,1.15.58.52,1.27,1.27,1.32,1.95.2,2.99.39,6,.2,8.96-.55,8.45.19,16.87.93,25.28.73,8.17.87,16.3-.13,24.41-.13,1.08-.35,2.2-.17,3.24,1.22,6.81-.21,13.55-.06,20.32.02,1.08-.11,2.2.68,3.12.15.18.4.3.62.41.63.31,1.17.2,1.32-.39.33-1.28.75-2.59.82-3.9.21-3.8.47-7.6.31-11.4-.18-4.09.8-8.05.5-12.16-.29-4.06.13-8.15.18-12.23.03-2.99.08-5.96-.59-8.94-.35-1.59-.28-3.25-.38-4.87-.61-9.53-.72-19.05-.58-28.56,0-.54.01-1.12.21-1.6.18-.43.56-.83.94-1.11.43-.29,1.74.64,1.86,1.27.14.8.37,1.61.42,2.42.31,4.34.27,8.68,1.04,13.02.32,1.82.06,3.82-.34,5.64-.64,2.95-.66,5.91-.77,8.9-.4,10.87.2,21.76.18,32.64,0,5.7-.16,11.42-.13,17.13.01,3.26-.06,6.57.47,9.77.72,4.34.86,8.67.89,13.02.03,4.08-.04,8.16.07,12.24.07,2.45.05,4.97.69,7.3,1.03,3.78,1.08,7.55,1.02,11.35-.04,2.71-.13,5.43-.15,8.15-.01,4.09-.02,8.13-.98,12.14-.9,3.77-.45,7.57,1.23,11.17.17.36.85.71,1.26.69.47-.02,1.03-.37,1.33-.75.29-.38.56-1.06.44-1.47-1.53-4.82-1.23-9.7-.95-14.58.11-1.89.44-3.78.51-5.67.07-1.87-.17-3.76-.07-5.63.05-.77.78-1.28,1.92-.93.56,11.89.89,23.83-.09,35.76-.03.4-.4.77-.74,1.39-1.05-1.33-2.01-2.56-3.1-3.94-.67.6-1.48,1-1.72,1.62-.48,1.23-.64,2.59-.91,3.78-.59.35-1.02.79-1.5.85-3.21.39-6.44.7-9.66,1.03-.79.08-2.25-1.13-2.37-1.96-.18-1.35-.41-2.7-.43-4.05-.05-2.72.05-5.44.03-8.16,0-1.09-.33-2.13-1.21-2.89ZM165.84,325.19c.11.8.28,1.7.07,2.43-.97,3.25,0,6.48.14,9.71.15,3.8.33,7.61.43,11.41.09,3.53.08,7.07.11,10.6,0,1.08.07,2.18-.72,3.05-.13-.18-.38-.37-.4-.57-.55-8.39-1.84-16.75-1.99-25.17-.08-4.62-.24-9.22-.77-13.84-.54-4.57.62-9.14.58-13.74-.07-5.71-.17-11.42-.29-17.13-.02-1.07-.18-2.17-.39-3.24-.87-4.33-.71-8.69-.14-12.97.39-2.97.53-5.93.57-8.92.08-8.15.17-16.3.3-24.45.02-1.06.28-2.11.48-3.17.13-.69.6-.9,1.26-.58.21.1.49.24.59.43.23.48.53,1,.54,1.5.16,8.97.13,17.91-.69,26.84-.52,5.66-.39,11.39-.47,17.09-.08,5.43-.08,10.86-.08,16.29,0,8.14-.25,16.3.9,24.42ZM39.5,337.81c-.14-2.58-.27-3.93-.27-5.27,0-13.02-.04-26.04.11-39.05.05-4.61-.08-9.22-.36-13.83-.2-3.22-1.26-6.46-.14-9.67.08-.24.08-.57,0-.81-1.86-5.24.12-10.1,1.11-15.76.74,3.38.5,6.07.52,8.76.01,2.71.06,5.42.11,8.12.04,1.9.21,3.8.15,5.69-.16,5.15-.5,10.26,1.05,15.36.54,1.79.41,3.78.48,5.68.33,9.77.39,19.54.07,29.3-.11,3.51-.53,6.97-2.8,11.48ZM39.88,351.27c-.97-1.88-.34-3.7.02-5.55q1.13,3.74-.02,5.55ZM41.93,398.4c.24,3.27.27,5.15.55,7.01.27,1.87.83,3.7,1.18,5.58.2,1.04.14,2.09-.48,2.99l-.63-.03c-.6-.2-1.05-.6-1.1-1.28-.2-2.71-.33-5.41-.38-8.12-.03-1.61-.29-3.25.86-6.15ZM43.19,251.32c-1.24-4.69-.6-9.08,1.77-13.85.37,8.26.95,15.94.7,23.64-.11,3.25.06,6.44.74,9.68,1.3,6.17.89,12.39.47,18.64-.66-.07-1.31.06-1.49-.18-1.07-1.38-1-3.08-1.06-4.67-.18-5.69-.24-11.38-.34-17.07-.07-4.06-.1-8.12-.24-12.18-.05-1.34-.22-2.71-.56-4.01ZM42.96,227.84c.07-.22.33-.58.4-.56.46.16,1.13.3,1.27.63.76,1.75.54,3.58.17,5.98-.79-.75-1.33-1.04-1.49-1.46-.59-1.49-.82-3.04-.34-4.59ZM44.62,357.24c-.01-6.78-.06-13.56,0-20.34.02-2.7.9-5.21,2.19-8.86.19,2.57.35,3.9.38,5.24.06,3.53.02,7.05.1,10.58.06,2.7-.11,5.48.4,8.12,1.24,6.49.97,12.98.96,19.48-.02,8.4.27,16.83-.28,25.21-.11,1.64-.25,3.25-1.08,4.67-.16.28-.69.34-1.19.56-.16-2.27-.43-4.43-.44-6.59-.01-6.25-.19-12.45-1.17-18.68-.34-2.1-.03-4.32.13-6.47.34-4.31,1.02-8.59-.01-12.93ZM20.84,485.13c-.06-3.53-.2-7.07-.14-10.6.12-8.71-1.12-17.38-1.11-26.08,0-3.76-.04-3.76,2.05-8.68.58.63,1.41,1.12,1.57,1.78.77,3.23.71,6.53.11,9.72-.8,4.33-.85,8.62-.07,12.97.23,1.33.23,2.71.25,4.07.05,3.81.08,7.6.51,11.42.45,4.07.18,8.14-.27,12.3-.58-.26-1.13-.32-1.31-.6-1.12-1.95-1.56-4.08-1.59-6.3ZM23.42,540.98c-.16-.32-.37-.62-.46-.94-.03-.1.25-.28.39-.42.09.22.23.45.25.67,0,.23-.11.47-.18.7ZM25.36,524.28c-.03.37-.59.79-1,.97-.62.27-1.16-.03-1.21-.68-.2-2.15-.4-4.32-.44-6.48-.12-5.99-.17-11.98-.2-17.97,0-.79.17-1.59.35-3.1,1.5,2.02,1.67,3.71,1.83,5.28.77,7.32,1.48,14.65.68,21.97ZM36.99,536.65c-.16.15-.45.16-.69.23-.24-.37-.61-.71-.7-1.12-.15-.73,0-1.46.72-1.86.14-.08.5.09.68.24.94.83.94,1.63-.01,2.51ZM46.18,542.73c-.06.41-.6.78-1,1.05-.55.38-1.84-.06-2.09-.61-.21-.48-.59-.94-.64-1.42-.21-2.13-.59-4.2-1.54-6.16-.38-.8.47-2.04,1.59-2.32.73-.18,1.55-.24,2.3-.13.42.06,1.05.56,1.13.95.3,1.54.42,3.12.55,4.19-.1,1.82-.1,3.15-.29,4.44ZM52.57,543.98c-1.41-1.35-.97-2.93-.65-4.47.05-.24.27-.47.47-.62.31-.22.79.04.87.71.17,1.51.84,3.16-.69,4.38ZM53.54,534.29c-.64.02-.94-.39-.73-.73.12-.19.42-.36.64-.36.72.03,1.45.15,3.33.36-1.84.44-2.53.72-3.24.73ZM63.03,544.53c-.04.55-1.07,1.43-1.7,1.42-.83,0-1.59-.19-2.06-.97-.27-.45-.61-.96-.63-1.46-.11-1.88-.12-3.76-.13-5.64,0-.58,1-1.41,1.65-1.48,1.06-.11,2.27.75,2.4,1.69.23,1.6.43,3.21.6,4.62-.06.74-.1,1.27-.13,1.81ZM68.81,543.92c-.16-.21-.44-.4-.48-.63-.47-2.86-.7-5.72.27-8.51.04-.11.27-.15.4-.23.16.49.44.99.46,1.48.11,2.36.17,4.73.16,7.1,0,.28-.53.53-.82.79ZM87.07,544.98c-.56.32-1.21,1-1.91,1.03-2.4.12-4.82.03-7.23-.03-1.23-.03-2.8-1.38-2.93-2.45-.4-3.22-.53-6.44.08-9.62.18-.92,1.35-1.64,2.48-1.54.92.08,1.6.64,1.82,1.39.59,2.08.96,4.2,1.49,6.3.2.77.55,1.51.84,2.26.34.88,2.18,1.34,2.78.66.85-.95,1.63-1.98,2.49-3.03.37,1.69.69,3.28.09,5.04ZM93.94,544.31c-.08.23-.32.39-.49.58-.28-.45-.7-.88-.82-1.37-.61-2.42-.15-4.84-.02-7.25.07-1.07.16-2.13,1-2.92.25.46.73.94.71,1.4-.07,3.18.75,6.44-.38,9.55ZM131.45,544.73c-.13.23-.31.43-.62.83-.59-.45-1.64-.87-1.67-1.35-.24-3.5-.66-7.03.4-10.45.22-.69.78-1.26,1.95-.96.08,3.68.18,7.45.24,11.22,0,.24-.16.5-.29.72ZM139.41,544.09c-1.01.44-2.39-.29-2.51-1.26-.45-3.77-.27-7.51.34-11.22.06-.38.7-.69,1.12-.95.57-.33,1.67.4,1.76,1.13.09.8.24,1.61.27,2.41.05,1.88.02,3.77.08,5.65.04,1.05.19,2.1.28,3.03-.57.53-.89,1-1.34,1.2ZM148.65,543.06c-.74.25-1.85-.43-1.97-.98-.73-3.25-.33-6.44.37-9.6.13-.57,1.53-1.52,1.86-1.22.35.33.62.78.85,1.22.12.21.1.53.1.79,0,2.95,0,5.91,0,8.82-.43.36-.76.82-1.21.97ZM157.16,542.67c-.56-.39-1.63-.73-1.75-1.28-.79-3.52-.77-7.01.84-10.29.21-.43.75-.69,1.33-1.18,1.17,2.98.59,5.93.64,8.85.02,1.34.22,2.74-1.06,3.91ZM167.25,539.85c-.04.49-.24,1.08-.56,1.44-.3.33-.87.48-1.35.6-.19.04-.48-.22-.69-.4-.19-.17-.39-.38-.47-.62-1.09-3.44-1.07-6.83.26-10.15.48-1.2,1.48-1.33,2.62-1.07.22.46.67.95.66,1.41-.1,2.93-.27,5.85-.47,8.78ZM174.72,536.4c-.23,0-.62-.2-.67-.38-.37-1.26-.67-2.55-.88-3.39.06-1.01.05-1.54.13-2.06.08-.56.5-.82,1.13-.65.23.06.59.46.56.53-.9,1.86.5,3.65.24,5.48-.02.19-.33.47-.52.48ZM180.61,522.63c-.93.54-1.59,1.19-2.3,1.26-2.15.2-4.32.26-6.49.23-5.18-.09-10.31.02-15.44.8-5.37.81-10.81.98-16.27.72-2.72-.13-5.43-.21-8.16-.33-.77-.04-2.19-1.31-2.34-2.1-.26-1.34-.6-2.68-.65-4.03-.12-3.26-.02-6.53-.12-9.8-.21-6.52-.18-13.06-1.1-19.56-.26-1.87-.16-3.81.02-5.69.53-5.65,1.17-11.28,1.8-17.25-.37-1.36-1.51-2.57-3.08-3.23-3.78-1.6-7.59-3.11-11.77-3.33-2.16-.11-4.32-.54-6.48-.81-1.91-.23-3.82-.33-5.67.21-7.3,2.1-7.16-.41-11.31,9.08.29,2.9.75,6.14.9,9.38.27,5.98.37,11.97.54,17.95.08,2.45-.04,4.93.32,7.35.79,5.46.66,10.82-.42,16.19-.41,2.06-.06,4.29-.06,6.6-.67.29-1.38.84-2.11.86-5.44.15-10.88.21-16.32.29-1.62.02-3.31-.21-4.87.11-3.2.65-5.91-.3-8.56-2.33-1.2.61-2.36,1.26-3.56,1.82-.83.38-2.47-.37-2.74-1.19-.25-.78-.58-1.55-.66-2.35-.22-2.17-.24-4.36-.49-6.52-.2-1.64-.76-3.19-2.26-4.21-1.24.03-2.2.65-2.1,1.87.23,2.71.76,5.39,1.07,8.1.12,1.07,0,2.16-.04,3.24-.01.63-.88,1.64-1.49,1.68-1.35.09-2.71.24-4.05.16-2.91-.18-3.97-1.22-4.23-3.95-.31-3.26-.58-6.52-.9-9.77-.08-.81-.24-1.62-.49-2.39-.4-1.19-1.26-1.67-2.53-1.38-1.37,1.6-.81,3.56-.73,5.42.08,1.63.2,3.27.28,4.9.11,1.88.21,3.76.31,5.54-2.73,1.83-3.79,1.7-6.67-.83-.06-2.21-.14-4.65-.21-7.08-.16-5.98-.29-11.95-1.31-17.91-.64-3.74-.51-7.61-.48-11.41.02-5.17.13-10.3-.6-15.48-.64-4.56-.41-9.22-.52-13.83-.03-1.36-.13-2.77.14-4.07.95-4.56.87-9.19.93-13.81,0-.81.19-1.61.3-2.42.08-.55,1.27-1.42,1.88-1.24.49.13,1.09.37,1.36.76.45.65.9,1.45.95,2.2.4,6.52.57,13.05.32,19.57-.33,8.41-.16,16.81,2.31,25.03.05.15.34.22.51.33.84-.86.77-1.96.74-3.04-.16-6.54-.19-13.08-.59-19.6-.16-2.73-.12-5.42-.02-8.12.19-5.15.43-10.3.67-15.46.04-.93,1.14-1.89,2.21-2.03.27-.04.55-.07.8,0,.75.23,1.49.53,1.99.71.99,1.12.98,2.22.99,3.31.05,4.89.05,9.79.11,14.69.02,1.08.03,2.19.83,3.09,1.24-1.22,1.27-1.21,2.03-6.4.32-2.14.49-4.32.61-6.48.13-2.43.14-4.87.2-7.11.99-1.53,2.39-1.46,3.73-1.43,1.18,0,2.17.87,2.31,1.94.21,1.62.3,3.25.57,4.86.19,1.18,1.03,1.86,2.17,2.19.33-.4.76-.76.99-1.21.23-.46.31-1.03.4-1.55,1.25-7.84.34-7.46,8.39-7.24,7.89.21,15.79.44,23.68.72,2.17.08,4.35.32,6.52.53.81.08,1.67.53,2.41.38,5.45-1.19,10.83.67,16.26.68,5.43,0,10.87.66,16.3,1.1,1.62.13,3.24.43,4.83.79.75.17,1.44.64,1.99.89,1.1,1.72.39,3.4.71,4.97.1.51.34,1.08.71,1.42.35.33.94.45,1.43.54.19.04.46-.23.62-.42.93-1.1.7-2.56,1.1-3.83.66-2.14,1.95-2.95,4.3-2.74.27.02.54.06.81.1,1.56.26,2.68,1.31,2.71,2.63.04,2.45-.01,4.9.07,7.35.02.79.31,1.58.54,2.36.07.23.34.44.56.6.21.16.53.37.71.32.45-.14,1.15-.36,1.21-.66.26-1.32.39-2.67.46-4.01.09-1.66.46-3.25,1.4-4.59.43-.61,1.18-1.26,1.87-1.37,1.94-.32,3.77.41,5.35,1.52.6.42,1.14,1.31,1.25,2.03.31,2.15.37,4.33.55,6.49.16,1.89-.16,3.84.71,5.63.19.38.77.64,1.22.82.61.25,1.13,0,1.28-.65.23-1.04.48-2.09.5-3.15.03-2.44-.09-4.89-.09-7.34,0-.52.23-1.05.42-1.54.23-.6.68-.73,1.24-.78.65-.05,1.12.09,1.32.72.24.77.59,1.55.62,2.33.13,3.54.38,7.1.22,10.62-.31,7.1.84,14.12,1.33,21.18.1,1.34.57,2.66.97,3.96.15.49.51,1.04.92,1.3.38.24.99.2,1.47.16.19-.02.5-.42.47-.61-1.33-11.41-.79-22.82-.95-34.23-.01-.8.24-1.6.38-2.4.17-.95,1.67-1.43,2.63-.89,1.03.58,1.68,1.44,1.77,2.58.07,1.07.04,2.18-.11,3.25-.62,4.32-.46,8.62-.18,12.99.48,7.35.43,14.7.72,22.06.21,5.16.25,10.31.84,15.49.61,5.37.65,10.85.47,16.23ZM189.65,531.54c-.67.87-1.64,1.26-2.74,1.39-2.21.27-3.13,1.67-3.3,3.77-.05.51-.26,1.01-.47,1.49-.08.18-.34.32-.56.39-.66.26-1.06.03-1.2-.61-.68-2.9-.55-5.79-.29-8.8,3.28-1.95,6.13-.72,8.97.98-.15.54-.15,1.07-.41,1.4ZM182.53,456.04c.07-1.34-.1-2.72.88-4.02.64.26,1.34.52,2.01.79,1.45,4.59,1.93,9.15,1.91,13.78-.06,11.11.22,22.21,1.23,33.32.67,7.27.58,14.61-.15,21.89-.02.25-.22.49-.34.72-1.6.13-3.08-.53-3.2-1.5-.25-1.88-.59-3.78-.59-5.65.02-7.05-.19-14.08-1.07-21.12-.4-3.23-.33-6.5-.35-9.75-.04-9.49-.78-18.98-.33-28.46ZM191.29,486.4c-.35-10.28-.69-20.58-1-30.87,0-.18.42-.56.53-.52.46.16,1.19.42,1.24.71.26,1.87.46,3.76.52,5.65.12,3.51-.38,7.05.7,10.53.16.51.17,1.08.14,1.62-.5,8.39.63,16.8.2,25.19-.03.53-.21,1.05-.45,2.18-.61-4.29-1.13-7.78-1.61-11.25-.15-1.08-.24-2.17-.27-3.25ZM193.29,520.64c-.29-.87-.59-1.37-.59-1.89-.01-4.06.03-8.12.05-12.22,1.26.08.93.9.95,1.38.15,3.53.26,7.06.3,10.59,0,.62-.4,1.24-.7,2.14ZM201.12,428.04c-.77.07-1.68.06-2.33-.3-1.19-.64-2.23-1.56-3.74-2.66-4.23.77-7.95,1.47-11.78.33-.99-.3-2.15-.1-3.23-.03-1.07.08-2.2.58-3.21.38-4.62-.88-9.19.06-13.79-.15-4.62-.2-9.24.17-13.86.07-4.33-.1-8.71.31-12.96-1.12-.49-.16-1.12-.24-1.59-.1-3.69,1.12-7.55.51-11.3.94-9.19,1.05-18.44.72-27.68.79-3.26.02-6.5-.06-9.71.7-1.81.43-3.77.35-5.67.36-6.28.03-12.46.77-18.57,2.01-3.19.65-6.4,1.01-9.68.97-1.62,0-3.26.08-4.85.34-2.98.49-5.93.43-8.91-.24-2.7-.62-5.36-.67-8.06.09-2.91.82-5.95.58-8.91.3-3.24-.31-6.42-.99-9.66-.13-.69.18-1.67-.15-2.34-.56-.64-.39-1.29-1.09-1.53-1.8-.81-2.32.5-4.7,2.66-4.93,2.15-.21,4.32-.32,6.48-.39,5.42-.18,10.83-.36,16.24-.9,6.19-.61,12.48-.41,18.73-.44,2.71-.01,5.43.29,8.15.4,7.88.31,15.74,1.43,23.63.82,8.43.87,16.82-.47,25.24.11,5.66-.7,11.37-.53,17.07-.78,2.44-.1,4.85-.48,7.32-.16,1.04.13,2.14-.13,3.19-.34,5.82-1.19,11.65-2.37,17.67-2.35,1.36,0,2.74-.02,4.06-.31,4.29-.94,8.64-.76,12.98-.61,9.23.32,18.47.71,27.66,1.96,1.46.2,2.43,1.2,2.9,2.61.26.76.4,1.58.53,2.39.18,1.11-.41,2.66-1.15,2.73Z"/>
      <path class="cls-1" d="M148.11,276.33c.33-3.72.51-7.44.6-11.19.02-.69-.55-1.43-.92-2.33-.77.48-1.79.74-1.99,1.31-1.09,2.99-1.87,6.1-1.72,9.35.07,1.64.57,3.18,2.41,4.15.52-.4,1.57-.78,1.61-1.28Z"/>
      <path class="cls-1" d="M89.39,274.66c.22.91,1.42,2,2.25,2.18,2.44.5,4.9.53,7.25-.07,2.66-.69,5.31-.42,8.08-.18,1.85-1.69,2.44-3.15,2.46-4.84.06-6.45-1.34-12.89-.52-19.36.15-1.26-1.77-3.03-3.28-3.24-5.17-.71-10.25-.4-15.16,1.26-1.05.35-1.67,1.29-1.8,2.45-.04.27-.09.54-.11.8-.47,6.74.48,13.49.58,20.23,0,.25.2.5.26.77Z"/>
      <path class="cls-1" d="M111.26,301.31c-.1-2.52-1.37-4.15-3.91-4.41-2.23-.23-4.26-.74-6.15-2-.91-.6-1.91-1.12-2.94-1.42-.74-.22-1.58,0-3.06.03-.75,3.08-3.41,4.98-5.92,7.1-.76,7.32-1.18,21.56-.82,26.85.04.53.26,1.06.4,1.58.18.67,1.76,2.07,2.42,2.04,1.89-.07,3.77-.22,5.66-.3,8.96-.42,7.14-1.61,13-5.46.9-.59,1.4-1.71,1.26-2.85-.82-6.27-.28-12.49.07-18.71.05-.81,0-1.63-.02-2.44Z"/>
      <path class="cls-1" d="M169.32,495.31c-.86.67-1.33,1.53-1.3,2.67.02.83.46,1.38,1.4,1.58.62.18.97-.08,1.33-.59.66-.93.65-1.94.48-2.99-.13-.7-1.35-1.12-1.91-.66Z"/>
      <path class="cls-1" d="M142.94,385.96c-.72.18-1.4,1.46-1.24,2.5.07.5.27.97.44,1.45.19.51,1.61.9,1.95.49.45-.57.78-1.24,1.02-1.63.16-1.67-1.08-3.07-2.17-2.8Z"/>
      <path class="cls-1" d="M60.05,401.91c-.03-.81-.11-1.63-.29-2.42-.11-.51-.36-1.05-.7-1.46-.33-.38-.82-.68-1.3-.88-.47-.2-1.68.84-1.74,1.4-.53,4.63-.1,9.19,1.41,13.65.12.36.8.61,1.27.79.59.24,1.61-.64,1.64-1.33.02-.27.12-.54.1-.81-.1-1.62-.22-3.24-.37-5.32,0-.91.03-2.27,0-3.62Z"/>
      <path class="cls-1" d="M161.5,467.29c-.56-.27-1.18-.07-1.36.52-.49,1.52-.89,3.06-1.26,4.61-.15.62.82,1.75,1.5,1.7.47-.03,1.02-.24,1.36-.55,1.07-1,1.1-2.39,1.18-3.69-.08-.59-.02-1.19-.26-1.65-.21-.4-.71-.73-1.15-.94Z"/>
      <path class="cls-1" d="M154.86,382.19c.49,1.51.5,3.21.49,4.83-.02,4.33-.16,8.65-.29,12.97-.06,1.89-.28,3.77-.32,5.66-.03,1.1.34,2.13,1.13,2.96.78-.04,1.7.05,2.02-.87.36-.99.73-2.04.79-3.09.16-2.96.29-5.94.18-8.91-.15-4.33-.53-8.65-.81-12.97-1.3-3.13-1.03-6.4-1.08-9.64-.07-4.87-.15-9.74-.31-14.62-.05-1.33-.28-2.7-.71-3.97-.2-.6-1.06-1-1.83-1.67-.21,1.07-.5,1.84-.49,2.62.02,5.14.14,10.29.14,15.43,0,3.79-.13,7.54,1.09,11.27Z"/>
      <path class="cls-1" d="M57.34,263.37c.52-.56,1.11-1.18,1.32-1.88.3-.99.27-2.09.42-3.5-.16-.99-.3-2.31-.63-3.58-.09-.35-.71-.64-1.15-.82-.6-.25-1.06.02-1.28.63-.92,2.53-1.22,5.12-.9,7.8.03.26.18.5.24.76.16.65,1.49,1.09,1.97.58Z"/>
    </g>
  </g>
</svg>