<?xml version="1.0" encoding="UTF-8"?>
<svg id="Layer_2" data-name="Layer 2" xmlns="http://www.w3.org/2000/svg" viewBox="0 0 174.02 291.49">
  <defs>
    <style>
      .cls-1 {
        fill: #284268;
      }
    </style>
  </defs>
  <g id="Layer_1-2" data-name="Layer 1">
    <g>
      <path class="cls-1" d="M66.08,252.54h40.16c1.52-12.31,11.19-22.01,23.49-23.57l-11.71-139.57h-63.72l-11.71,139.41c12.36,1.57,22.06,11.36,23.51,23.74ZM63.8,110.57c.14-1.71,1.63-2.98,3.34-2.84,1.71.14,2.98,1.63,2.84,3.34l-.29,3.57c-.13,1.61-1.47,2.85-3.09,2.85-.08,0-.17,0-.25-.01-1.71-.14-2.98-1.63-2.84-3.34l.28-3.57ZM62.35,128.66c.14-1.71,1.63-2.98,3.34-2.84,1.71.14,2.98,1.63,2.84,3.34l-4.32,54.04c-.13,1.61-1.47,2.85-3.09,2.85-.08,0-.17,0-.25-.01-1.71-.14-2.98-1.63-2.84-3.34l4.32-54.04Z"/>
      <rect class="cls-1" x="37.35" y="258.74" width="97.07" height="6.21" rx="2.3" ry="2.3"/>
      <path class="cls-1" d="M119.73,83.19c.57-.75,1.12-1.45,1.62-2.1,2.4-3.08,4.14-5.31,4.14-7.24v-.2c-.1-2.23-1.97-3.96-4.21-3.88H50.26c-2.23-.08-4.11,1.65-4.21,3.88v.2c0,1.93,1.74,4.16,4.14,7.24.5.65,1.05,1.35,1.62,2.1h67.91Z"/>
      <path class="cls-1" d="M34.44,285.15c0,3.44,2.33,6.34,5.08,6.34h95.05c2.75,0,5.08-2.9,5.08-6.34v-.27c0-3.14-1.94-6.14-4.87-10.69-.6-.93-1.26-1.95-1.94-3.03H41.25c-.68,1.09-1.34,2.1-1.94,3.03-2.93,4.55-4.87,7.55-4.87,10.69v.27Z"/>
      <path class="cls-1" d="M158.83,17.56H11.82c.15,4.28.63,8.54,1.46,12.74h15.1c1.45-4.71,5.29-8.29,10.09-9.42.06-.02.12-.03.18-.04,3.67-.72,7.47.16,10.44,2.43,2.3,1.77,3.99,4.23,4.81,7.02h3.58c1.05-3.02,3.06-5.61,5.72-7.38,2.98-1.94,6.64-2.53,10.08-1.64.05.01.09.02.14.04,4.36,1.32,7.81,4.66,9.26,8.98h3.47c1.45-4.71,5.29-8.29,10.09-9.42.06-.02.12-.03.18-.04,3.67-.72,7.47.16,10.44,2.43,2.31,1.77,3.99,4.23,4.81,7.02h3.58c1.05-3.02,3.06-5.61,5.72-7.38,2.98-1.94,6.64-2.53,10.08-1.64.05.01.09.02.14.04,4.36,1.32,7.81,4.66,9.26,8.98h16.94c.82-4.2,1.31-8.46,1.46-12.74Z"/>
      <path class="cls-1" d="M140.43,46.86c-1.45,4.31-4.9,7.66-9.26,8.98-.05.01-.09.03-.14.04-3.44.89-7.1.3-10.08-1.64-2.66-1.77-4.68-4.36-5.72-7.38h-3.58c-.82,2.79-2.5,5.25-4.81,7.02-2.26,1.74-5.04,2.68-7.89,2.67-.85,0-1.7-.08-2.54-.24-.06-.01-.12-.02-.18-.04-4.79-1.13-8.63-4.71-10.09-9.42h-3.47c-1.45,4.31-4.9,7.66-9.26,8.98-.05.01-.09.03-.14.04-3.44.89-7.1.3-10.08-1.64-2.66-1.77-4.67-4.36-5.72-7.38h-3.58c-.82,2.79-2.5,5.25-4.81,7.02-2.26,1.74-5.04,2.68-7.89,2.67-.85,0-1.7-.08-2.54-.24-.06-.01-.12-.02-.18-.04-4.79-1.13-8.63-4.71-10.09-9.42h-9.52c.48.95.98,1.88,1.51,2.77,5.25,8.84,12.06,13.71,19.17,13.71h91.57c7.11,0,13.92-4.87,19.17-13.71.53-.89,1.03-1.82,1.51-2.77h-11.36Z"/>
      <path class="cls-1" d="M174.02,5.68c0-3.13-2.54-5.67-5.67-5.68H5.74C2.6-.03.03,2.48,0,5.62s2.48,5.7,5.62,5.74c.04,0,.08,0,.12,0h162.61c3.13,0,5.67-2.54,5.67-5.68Z"/>
      <path class="cls-1" d="M155.86,36.5h-17.92c-1.59,0-2.92-1.2-3.08-2.79-.39-3.01-2.5-5.52-5.4-6.43-1.75-.45-3.61-.15-5.13.84-1.96,1.36-3.29,3.46-3.67,5.81-.26,1.48-1.55,2.56-3.05,2.56h-8.52c-1.62,0-2.96-1.24-3.09-2.85-.16-2.15-1.22-4.12-2.92-5.44-1.54-1.19-3.52-1.66-5.44-1.28-4.18,1.09-5.58,4.4-6.02,6.99-.25,1.49-1.54,2.58-3.06,2.58h-8.38c-1.59,0-2.92-1.2-3.09-2.79-.39-3.01-2.5-5.52-5.4-6.43-1.75-.45-3.61-.15-5.13.84-1.96,1.36-3.29,3.46-3.67,5.81-.26,1.48-1.55,2.56-3.05,2.56h-8.52c-1.62,0-2.96-1.24-3.09-2.85-.16-2.15-1.22-4.12-2.92-5.44-1.54-1.19-3.52-1.65-5.44-1.28-4.18,1.09-5.58,4.4-6.02,6.99-.25,1.49-1.54,2.58-3.06,2.58H14.79c.41,1.42.87,2.8,1.36,4.15h14.64c1.51,0,2.8,1.09,3.06,2.58.44,2.6,1.84,5.91,6.02,7,1.91.37,3.89-.09,5.44-1.28,1.7-1.32,2.76-3.3,2.92-5.44.13-1.61,1.47-2.85,3.09-2.85h8.52c1.51,0,2.79,1.08,3.05,2.56.38,2.36,1.71,4.45,3.67,5.81,1.52.99,3.38,1.29,5.13.84,2.9-.91,5-3.42,5.4-6.43.16-1.58,1.49-2.79,3.09-2.79h8.38c1.51,0,2.8,1.09,3.06,2.58.44,2.6,1.84,5.91,6.02,7,1.91.37,3.89-.09,5.44-1.28,1.7-1.32,2.76-3.3,2.92-5.44.13-1.61,1.47-2.85,3.09-2.85h8.52c1.51,0,2.79,1.08,3.05,2.56.38,2.36,1.71,4.45,3.67,5.81,1.52.99,3.38,1.29,5.13.84,2.9-.91,5-3.42,5.4-6.43.16-1.58,1.49-2.79,3.08-2.79h16.55c.5-1.35.96-2.74,1.37-4.15Z"/>
    </g>
  </g>
</svg>