<?xml version="1.0" encoding="UTF-8"?>
<svg id="Layer_2" data-name="Layer 2" xmlns="http://www.w3.org/2000/svg" viewBox="0 0 152.09 552.44">
  <defs>
    <style>
      .cls-1 {
        fill: #613b27;
        fill-rule: evenodd;
      }
    </style>
  </defs>
  <g id="_Layer_" data-name="&amp;lt;Layer&amp;gt;">
    <g>
      <path class="cls-1" d="M140.32,534.38c-.05-.41-.12-.91-.37-1.18-.41-.44-.93-.79-1.46-1.08-1.47-.79-3.06-.86-4.66-.87-.47,0-.87-.02-1.32-.02.1-.21.19-.39.29-.63.22-.49.21-1.02.35-1.68-1.66-2.16-2.47-4.65-2.21-7.53.12-1.35.29-2.71.26-4.06-.04-1.3-.32-2.65-.41-3.41-2.91-3.63-5.42-6.82-7.95-9.96-2.31-2.81-3.42-6.07-3.42-9.74,0-3.25.2-6.55-.23-9.8-.76-5.69-.7-11.37-.72-17.05,0-4.87.66-9.8-.96-14.57-.16-.49-.1-1.08-.1-1.62,0-6.77.05-13.59.02-20.36-.01-8.71.46-17.38-.49-26.09-.4-3.46-.48-7.04.05-10.51.15-1.08.23-2.22.05-3.24-.67-3.74-.43-7.58-.48-11.37-.04-2.97-.08-6-.57-8.93-.42-2.38-.69-4.76-.71-7.26-.04-4.33.02-8.72-.29-12.99-.7-9.53-1.02-19-.55-28.53.22-4.87.27-9.79.27-14.67-.02-13.05-.18-26.1-.28-39.14-.08-7.64.13-15.21-1.19-22.79-.18-1.03-.24-2.17-.27-3.25-.43-15.81-.19-31.56-1.72-47.31-.32-3.19-.58-6.61-.02-9.75.62-3.63-1.04-6.98-.71-10.5.17-1.89.05-3.79.38-5.68.77-4.28,1.08-8.55.58-12.94-.16-1.35.02-2.7.06-2.81,3.91-3.63,7.42-5.63,10.91-6.99,1.52-2.81,1.77-3.19,1.58-4.01-.72-2.98-.74-5.9-.12-8.88.18-.81.12-1.62.03-2.44-.53-4.6-1.1-9.2-1.66-13.8-.07-.54-.16-1.14-.47-1.52-.52-.6-1.18-1.19-1.88-1.46-.72-.27-1.6-.38-2.39-.27-5.48.6-10.81-.22-16.03-1.84-1.21-.97-1.65-2.33-1.34-3.68.59-2.65,1.05-5.25.46-8.01-.22-1.03-.01-2.16,0-3.25.02-1.62.18-3.3.03-4.93-.17-1.84-.59-3.68-.92-5.74.87-.98,1.76-1.9,2.36-2.6,4.26-1.41,8.59.6,12.31-1.62.2-2.6-.13-4.98-1.43-7.09-1.41-.97-2.75-1.89-4.23-2.92-2.29-3.57-4.61-7.25-6.74-10.61-1.6-.81-3.1-2.69-4.28-3.23-4.62-5.85-9.24-11.58-14.57-16.73-1.98-1.89-4.91-3.91-4.68-6.95.86-10.73-2.22-16.05-1.59-28.31.19-1.68,1.32-4.16-.66-5.45-7.42-4.86-4.09,15.95-5.08,21.58-2.92,16.64,5.31,6.98-13.34,23.66-1.38,1.25-3.09,2.16-4.59,3.25-.87.65-1.64,1.41-2.41,2.17-2.1,2.06-4.29,4.01-6.85,5.58-6.83,4.06-11.37,10.39-16.1,16.56-.68.87-.66,1.95-.28,3.03.25.81.56,1.57.93,2.27,1.2,2.33,3.42,3.63,6.01,3.41,1.34-.22,2.64-.54,3.98-.7,1.58-.16,3.39,1.41,3.44,2.87,0,.54.07,1.08.05,1.57-.12,2.71-.34,5.41-.33,8.12.03,2.44-.07,4.82-.33,7.25-.28,2.6.16,5.31.28,7.8-.68,1.25-1.6,2-2.72,1.68-3.61-1.09-6.97-.33-10.34.65-2.08.54-4.23.92-6.27,1.63-1.5.48-2.94,1.3-4.28,2.16-1.45.92-2.25,2.44-1.76,4.17,2.09,6.88,2.03,13.86,2.02,20.84,0,1.08.12,2.17.22,3.57,3.37,2.92,6.47,6.39,9.34,10.5,0,3.63.08,6.82-.37,10.02-.47,3.52-.32,7.04.45,10.45,1.25,5.68,1.28,11.37.64,16.95-.62,5.41-.72,10.72-.54,16.13.18,4.87-.13,9.69-.1,14.62.02,4.55.25,9.2.32,13.8.08,4.82.24,9.69.09,14.51-.13,4.6,1.66,9.15.39,13.7-.13.43.06,1.08.23,1.57,1.09,3.47.83,6.98.89,10.45.06,3.3.03,6.5-.07,9.75-.18,4.06-.06,8.06.92,12.13.27,1.03.34,2.05.38,3.14.15,8.93.28,17.81.31,26.75.01,5.95-.4,11.91.62,17.87.38,2.11.14,4.27.11,6.44-.01,1.63-.24,3.25-.22,4.87.15,11.86-.04,23.71-.76,35.57-.11,1.89-.05,3.74-.04,5.68,0,8.07.06,16.18.03,24.26-.02,1.95-.29,3.79-.37,5.68-.16,3.79-.42,7.58.32,11.31.79,4.06.82,8.07.82,12.18.03,5.14.04,10.28-.01,15.37-.06,6.82-.2,13.53-.23,20.3-.03,2.71-.39,5.3-1.72,7.63-.93,1.68-1.37,3.47-1.57,5.31-.28,2.81-1.75,4.98-3.95,6.66-2.32,1.78-4.6,3.52-7.1,5.52-.49,1.89-2.12,3.57-2.05,5.95.33.92.82,1.9,1.05,2.92.3,1.35.36,2.65.52,4.01.32,2.38.59,4.76,1.02,7.15.04.22.13.38.2.58-.79.07-1.57.14-2.36.23-.45.05-1,.81-1.08,1.39-.11.78.55,1.95,1.11,2.09.2.04.38.17.57.18,1.78.07,3.57,0,5.35.17,2.93.26,5.82.17,8.51-.93.2.01.39.03.59.04,1.91.55,3.7.89,5.57.89,6.08.02,12.17.66,18.26.18,2.35.23,4.69.38,6.94.11.62-.1,1.24-.16,1.86-.25,1.29-.07,2.58-.22,3.85-.51.25-.06.49-.06.73-.11.73-.09,1.46-.2,2.19-.3.79-.05,1.6-.08,2.4-.06,2.77.06,5.56.04,8.33,0,5.75-.08,11.52.17,17.22-1.06,1.36-.3,2.77-.32,4.16-.38.79-.03,1.67-.11,2.35.22,2.28,1.11,4.66.85,7.02.9,8.06.21,16.55-1.26,26.97-.44.19.02.38-.14.57-.16.36-.05,1.2-.96,1.14-1.37ZM116.31,506.35c.95,1.03,1.53,2.22.99,3.95-.93.11-1.97.38-3.04.38-2.7.06-5.43-.11-8.12.06-4.32.27-8.68.11-12.91,1.35-1.28.38-2.7.38-4.03.43-3.3.06-6.47.82-9.58,1.74-1.58.43-3.15.97-4.75,1.08-4.31.33-8.64.43-12.97.21-5.97-.43-11.93-1.08-17.9-1.89-2.44-.32-4.84-1.03-7.25-1.52-.95-.21-2.05-1.62-2.03-2.44.05-1.13.33-2.16,1.28-2.71,2.26-1.41,4.74-2.11,7.58-1.73,2.98.49,5.97.81,8.92.6,3.74-.22,7.48-.6,11.18-1.08,1.91-.27,3.76-.33,5.65.22,4,.92,7.99.92,12.08.16,3.21-.54,6.48-.6,9.73-.87,4.58-.38,9.2-.27,13.75-1.25,1.06-.21,2.17-.11,3.4-.21,3.08,1.35,5.54,2.43,8.01,3.52ZM33.45,223.97c0-2.71-.27-5.36.45-8.07.51-1.84-.42-3.73-.47-5.58-.03-1.62.02-3.25.01-4.76-.02-1.35-.21-2.76-.12-4.06.21-4.6.52-9.2.79-13.75.07-1.09.02-2.11.3-3.14,1.45-5.52,1.36-11.21,1.25-16.84-.07-2.97-.22-5.95-.22-8.93,0-1.08.1-2.17.47-3.09.21-.54,1.08-.81,1.99-1.41.16,1.46.39,2.55.39,3.57.05,3.79.06,7.58.01,11.37-.05,2.11-.2,4.28-.38,6.44-.11,1.3-.4,2.65-.54,4.01-.41,3.46.87,6.98.83,10.45-.04,3.46-1.04,6.88-.07,10.45.73,2.81.21,5.36-.66,7.91-.34.97-.91,1.89-1.5,3.03.69,1.62,1.12,2.6,1.58,3.63-.37,1.3-.73,2.49-1.18,4.01.67,1.03,1.42,2.17,2.38,3.63.26,2.65.05,5.58-.07,8.61-.16,3.68-.46,7.42.32,11.21.81,4,.93,8.12.32,12.13-.32,2.06-1.57,3.25-3.93,3.41-.46-.6-1.25-1.14-1.41-1.78-.37-1.57-.55-3.25-.6-4.87-.07-3.47-.2-7.04,0-10.51.32-5.68.06-11.37.06-17.05ZM41.87,170.53c0-2.44-.08-4.92,0-7.36.02-.7.34-1.63.84-1.95.8-.43,1.36.43,1.86,1.08,1.37,1.85,2.47,1.68,3.31-.38.2-.49.25-1.03.44-1.52.21-.49.48-.92.77-1.3.44-.71,2.18-1.19,2.95-.76.68.43,1.44,1.03,1.72,1.68.41,1.03.42,2.16.66,3.25.22,1.03.83,1.68,1.45,1.52.87-.17,1.34-.81,1.59-1.57.24-.76.34-1.57.59-2.33.33-1.08,1.42-1.57,2.52-1.3.69.22,1.58,1.08,1.64,1.68.23,2.44.41,4.87.73,7.31.06.38.65.92,1.02,1.03.43.05,1.02-.33,1.34-.7.33-.32.52-.92.56-1.41.11-1.89.07-3.79.2-5.68.06-.76.21-1.68.66-2.28.43-.54,1.25-.92,1.98-1.08.58-.17,1.88.7,1.99,1.13.23,1.08.57,2.17.59,3.19.07,3.3.83,6.5,1.55,9.69.13.48.53.92.83,1.41.49-.11,1.12-.05,1.45-.33.35-.32.61-.97.59-1.46-.08-1.62-.22-3.25-.46-4.82-.33-2.16-.6-4.38-.06-6.49.18-.7.8-1.3,1.37-1.9.52-.54,1.87-.11,2,.59.2.76.52,1.57.46,2.33-.15,2.71-.32,5.47-.69,8.12-.61,4.39-.11,8.66,1.15,12.94.23.76,1.3,1.36,1.87.92.39-.27.73-.65,1-1.09.13-.21.13-.54.1-.81-.11-.81-.17-1.62-.38-2.38-.73-2.71-.74-5.36-.29-8.12.49-2.92.82-5.9,1.21-8.82.15-.97.18-.97,2.04-2.38.32.7.75,1.41.89,2.17.74,4,1.39,8.06,2.15,12.07.19.92,1.12.92,1.94.81.7-.86.88-1.95.76-3.03-.33-2.7-.82-5.41-1.12-8.12-.17-1.57-.3-3.19.46-4.76.34-.65,1.08-1.03,2.02-.86.6.11,1.06.32,1.18.97.26,1.03.53,2.11.55,3.14.14,4.11.15,8.17.26,12.23.17,6.01.8,11.96,1.55,17.92.4,3.19-.23,6.5,1.07,9.64.25.65.68.92,1.31.7.42-.16.79-.54,1.08-.92.16-.16.15-.49.14-.76-.14-2.98.02-6.01-.49-8.99-.83-4.87-.99-9.75-1.09-14.61-.1-5.42-.13-10.88-.11-16.3.01-.86.87-1.24,1.76-1.08.71.87.79,1.95.83,3.09.46,14.13.9,28.26,1.34,42.39.1,2.98.35,5.96.53,8.93.03.27.1.54.12.81.52,13.05,1.17,26.15,1.23,39.2,0,.54-.2,1.08-.37,1.57-.1.21-.45.59-.48.59-.4-.22-.75-.54-1.21-.86.12-5.09-.28-10.18-1.15-15.32-.91-5.36-1.42-10.83-.96-16.24.26-3.25.15-6.55.07-9.8-.08-3.41-1.04-4.49-4.16-5.03-2.93-.54-5.87-.81-8.9-.76-5.12.16-10.31-.59-15.4.54-5.7-.97-11.31.06-16.99-.11-.53,0-1.08-.16-1.62-.22-.5,0-1.58-1.03-1.71-1.63-.28-1.4-.41-2.76-.83-4-.24-.7-.96-1.3-1.43-1.89-1.25.38-1.97,1.08-2.15,2.22-.17,1.35-.34,2.65-.49,3.84-.55.38-.93.81-1.39.97-1.42.38-3.04-.7-2.98-2,.02-1.03.15-2.06.23-3.14.09-1.08.4-2.22.2-3.19-.63-2.98-.43-5.9-.54-8.88-.26-5.74-.61-11.37.68-16.95.29-1.3.07-2.65.07-4.01ZM44.64,153c1.45-.76,3.03-.22,4.57-.22,1.03-.06,2.09-.11,3.17.86-2.62.65-5.09.38-7.47,0-.17-.38-.28-.65-.27-.65ZM91.03,153.75c.26-.49.73-.65,1.25-.43.21.05.34.32.5.49-.4.17-.83.33-1.29.43-.12,0-.48-.43-.46-.49ZM104.8,354.12c.48,2.65.46,5.36-.09,8.06-.09.38-.64.82-1.08,1.03-.67.38-1.72-.05-1.95-.76-.25-.76-.61-1.52-.63-2.33-.16-3.25-.14-6.5-.28-9.75-.2-4.6.03-9.2-.66-13.75-.44-2.92-.64-5.95.03-8.93.25-1.09.62-2.06,1.74-2.55,1.16.27,1.78,1.14,1.97,2.16.27,1.62.5,3.25.5,4.87.04,3.25-.13,6.5-.14,9.74-.04,4.06-.16,8.12.59,12.18ZM105.67,413.23c0,.54.13,1.14-.03,1.62-.29.76-.76,1.41-1.23,2.22-4.04.54-8.07,1.03-12.09,1.57-4.29-.92-8.55-.16-12.88.16-8.39.65-16.8-.16-25.19-1.29-1.08-.16-2.51-1.79-2.59-2.98-.19-2.98-.39-6.01-.41-8.99-.05-8.12,0-16.19.01-24.36,0-1.35.22-2.65,1.93-3.52,5.28-.49,10.99.33,16.65.06,2.15.65,4.28.11,6.43-.06,5.69-.38,11.38-.49,17.07-.7.81-.05,1.62.11,2.42.22,1.14.16,2.44,1.74,2.37,2.92-.07.81-.04,1.62-.26,2.43-.97,3.73-1.03,7.53-.65,11.32.33,3.25.66,6.44.11,9.69-.05.22.09.55.25.76.37.32.76.7,1.22.92.47.22,1.03-.05,1.19-.7.72-2.65.75-5.3.72-8.01-.05-5.41.13-10.83.3-16.3.03-1.14.82-1.95,2.06-2.38.56.43,1.17.92,1.7,1.3.41,4.17.83,8.23,1.21,12.29.11,1.02.23,2.16,0,3.24-1.41,6.17-.37,12.34-.34,18.57ZM48.62,411.99c.14,1.02-.06,2.16-.13,3.24-.04.7-.82,1.52-1.48,1.68-.64.06-1.61-.75-1.76-1.41-.21-1.13-.5-2.16-.57-3.3-.1-1.62-.03-3.19-.03-4.82.06-5.2,0-10.29-.89-15.38-.68-4.17-.63-8.17-.05-12.18.08-.54,1.14-1.41,1.78-1.41.97-.06,2.34.92,2.39,1.84.2,4.38.33,8.66.47,11.86-.4,7.36-.59,13.59.28,19.87ZM48.15,423.3c-.45.11-.89.27-1.36.33-.12,0-.44-.38-.43-.54.03-.21.29-.49.52-.49.55-.11.99.22,1.26.7ZM45.47,373.22c-1.29.11-2.58-.97-2.76-2.38-.1-.76,0-1.57.24-2.22.43-1.35,1.93-1.78,3.18-1.02,1.38.81,2.05,1.95,1.88,3.24-.17,1.46-1.15,2.33-2.54,2.38ZM44.74,482.26c.15-.38.75-.55,1.2-.7.55-.22,1.63.7,1.63,1.46.03,3.68.11,7.47.03,11.15-.03,1.14-.98,1.78-2.2,2.05-.51-.48-1.49-.97-1.64-1.62-1.06-4.28-.61-8.44.99-12.34ZM47.46,473.76c-.32.27-.84.38-1.3.54-.38-.33-.95-.49-1.11-.87-.45-1.02-.26-2,.37-2.87.33-.43.74-.65,1.31-.49.43.22,1,.54,1.14.92.38.98.41,2-.41,2.76ZM46.5,464.33c-.42-.27-1.04-.7-1.11-1.08-.43-3.19-.85-6.44-1.11-9.69-.08-1.03.33-2.06.45-3.14.28-2.92.5-5.85.73-8.51.07-4.06.11-7.85.24-11.64.03-.38.58-.76.97-1.02.47-.33,1.83.54,1.87,1.25.26,4.22.49,8.55,1.13,12.88.04.27.02.54,0,.76-.48,6.5-.93,12.83-1.4,19.33-.04.65-1.2,1.35-1.78.86ZM49.43,346.91c-.47-.21-.99-.27-1.48-.43-.91,1.08-1.03,2.43-1.05,3.79-.03,2.98.03,5.96-.07,8.93,0,.76-.39,1.46-.64,2.22-.16.49-1.8.6-2.13.11-.4-.7-1.05-1.4-1.13-2.11-.26-2.7-.41-5.36-.49-8.06-.11-5.15.14-10.24-.88-15.44-.53-2.6-.23-5.3-.23-8.01,0-1.08,1.48-2.71,2.57-2.71,2.16-.11,4.31-.16,6.46-.16,3.78.11,7.54.43,11.31-.05,2.9-.43,5.93-.16,8.9-.11,7.58-.06,15.15-.11,22.72-.16.27,0,.54.06.8.06,1.02.05,2.16,1.08,2.17,2,.04,1.35-.04,2.71.04,4.06.12,2.16.23,4.33.46,6.44.75,7.85.93,15.7.63,23.55-.05,1.03-1.03,2.28-1.93,2.44-5.3,1.08-10.59,2.11-16.07,1.95-7.85-.27-15.69-.38-23.54-.92-1.07-.11-2.13-.32-3.21-.59-.89-.16-2.09-1.52-2.16-2.38-.17-2.33-.32-4.77-.44-7.2-.1-2.22-.13-4.39-.23-6.5,0-.21-.18-.65-.39-.7ZM43.92,220.99c1.14.43,2.41.87,3.84,1.35.53-.38,1.22-.76,1.72-1.35.73-.81,1.62-1.41,2.7-1.41,2.7-.16,5.39-.22,8.1-.11,5.13.16,10.28.3,15.4.33,5.13.03,10.27,0,15.41,0,2.44,0,3.58.98,3.82,3.25.52,5.09.94,10.28,1.46,15.37.33,3.52.83,7.04,1.14,10.5.16,2.17.16,4.33.13,6.5-.05,1.95-1.55,3.46-3.68,3.62-2.15.17-4.33.33-6.47.17-8.4-.43-16.76-.05-25.12.54-1.32.05-2.74.33-4.01.05-4.79-1.29-9.71-1.03-15.14-2.22-.3-1.25-.67-2-.64-2.71.2-4.87-.19-9.69-.65-14.56-.5-5.36-.24-10.83-.22-16.19,0-1.41.72-2.54,2.21-3.14ZM41.9,215.09c.05-.43.39-.97.75-1.13.67-.27,1.47-.38,2.2-.33.26,0,.54.87.68,1.35.05.16-.22.49-.43.6-.41.27-.9.43-1.38.7-.72.11-1.88-.65-1.83-1.19ZM50.26,215.09c.08-1.19.7-2.05,1.91-2.11,2.15-.06,4.32-.06,6.47.05,5.12.22,10.25.46,15.39.54,5.13.08,10.28.11,15.42.16.78,0,1.55.27,2.42.43-.92.98-1.97.98-2.99.98-5.95.11-11.9.11-17.84.22-2.43,0-4.84.43-7.24.16-2.2-.27-4.25.05-6.41.22-2.12.16-4.28-.11-6.43-.22-.22,0-.46-.27-.7-.43ZM97.25,264.73c.09,1.24-.5,2-1.7,2.22-.79.11-1.6.22-2.41.22-7.83-.05-15.68-.27-23.5-.16-7.27-.16-14.6-.76-21.78.38-1.05.22-2.14.06-3.22,0-.86-.05-2.12-1.19-2.37-2.11-.29-1.13.82-2.81,1.98-2.97.79-.11,1.58-.27,2.38-.27,1.34.06,2.69.22,4.04.38,7.01,1.24,14.01,1.57,21,.81,4.29-.65,8.61-.76,12.89.32,3.19.76,6.45.33,9.69.27,1.11-.05,2.14.16,2.99.92ZM41.72,275.23c.13-1.41.5-2.65,1.6-3.57.21-.11.44-.27.71-.27,8.02-.65,16.04-1.3,24.2-.81,7.04.27,14.09.17,21.13.27,1.91,0,3.79.11,5.7.22,1.64.11,3.07,1.57,3.12,3.19.08,3.85.06,7.63-.69,11.37-.38,1.84-.52,3.73-.68,5.63-.04.49.27,1.03.48,1.52.23.55.73.81,1.33.6.44-.21.92-.49,1.18-.87.28-.43.43-1.02.42-1.52-.13-3.03.23-5.95,1.05-8.88.64-2.33.05-4.87,1.22-7.47.24.97.54,1.68.54,2.38-.02,7.58-.14,15.21-.17,22.79,0,3.52.2,7.09.27,10.61.04,1.35.1,2.71-.82,3.84-.83,0-1.71-.16-1.83-1.08-.24-1.57-.16-3.25-.4-4.87-.1-.76-.59-1.46-.95-2.28-.81.33-1.52.59-2.36.92-.13,2.22-.26,4.39-.39,6.5-.06.87-1.34,2-2.27,2.11-.26.05-.53.21-.79.21-5.95-.49-11.88.76-17.85.17-2.68-.27-5.44.06-8.13-.27-7.56-1.03-15.12-1.68-22.71-2.28-1.63-.16-3.07-1.68-3.09-3.36-.2-11.64-.72-23.27.18-34.81ZM101.95,264.3c.11-.22.36-.38.54-.54.17.43.35.92.53,1.35-.22.16-.49.49-.64.43-.58-.22-.72-.7-.43-1.25ZM93.61,320.44c-1.75,1.03-3.64.59-5.47.65-7.84.16-15.66.16-23.49.05-2.15-.05-4.32-.11-6.44.16-4.28.43-8.61.06-12.91,0-.76.06-1.55-.43-2.28-.65-.14-.6-.27-1.08-.38-1.62.55-.98,1.47-1.52,2.56-1.63,1.32-.05,2.73-.21,4.01.11,6.69,1.57,13.46,1.62,20.2,2.05,6.74.21,13.49.21,20.24.33,1.32,0,2.7-.16,3.96.54ZM96.7,372.14c-.13.21-.4.38-.81.7-1.41-.11-3.02-.49-4.6-.38-1.59.05-3.18.65-4.78.81-2.69.27-5.39.44-8.09.59-5.11.22-10.24.06-15.34.38-2.96.17-5.94-.06-8.9-.38-1.72-.05-2.72-1.57-2.49-3.41.11-1.03,1.08-2.28,1.9-2.33,1.33-.06,2.67-.22,4.01-.11,5.12.27,10.25.54,15.38.65,5.41,0,10.79-.11,16.17-1.08,1.83-.33,3.75-.22,5.62-.16,2.41.05,3.33,2.33,1.95,4.71ZM51.26,482.63c.1-4.11,2.59-4.76,6.75-3.46.41.16.7.81.97,1.3.13.21.1.53.1.81,0,2.11-.04,4.27-.07,6.44.08,0,.16,0,.23.06-.12,2.33-.23,4.76-.39,7.15-.08.98-1.02,1.84-2.12,2-.77,0-1.58,0-2.37-.16-.9-.11-2.15-1.24-2.32-2.16-.88-4-.9-8.01-.78-11.96ZM54.11,473.97c-1.12,0-2.22-1.19-2.14-2.16.1-1.09,1.09-2.17,1.9-2.17.52.06,1.06-.05,1.59.06,1.61.33,3.2.65,4.82.87,1.62.21,3.27.32,4.86.16,7.28-.92,14.6-.59,21.89-.76,4.06-.06,8.12.22,12.17.38,1.35.11,2.65.43,3.72,1.36.45.38.55.86.17,1.4-.15.22-.33.49-.55.55-.48.16-1.04.38-1.54.32-3.22-.38-6.43-.81-8.68-1.08-8.01.11-15.06-.49-22.01,1.35-.78.22-1.61.16-2.42.16-4.6-.06-9.19-.21-13.78-.43ZM102.45,466.23c-1.88.11-3.78.27-5.66.27-2.98-.06-5.95-.38-8.94-.33-3.52.06-7.12-.11-10.53.6-7.89,1.57-15.63.54-23.42-1.19-.46-.11-.86-.65-1.95-1.57,0-3.63-.12-7.2.07-10.72.37-6.76.64-13.53.13-20.36-.05-.81.05-1.62.09-2.43.05-.87,1.17-1.95,2.09-2.01,1.36.11,2.71,0,4.06.16,9.47.54,18.97.6,28.45.65,3.54.06,7.02-.11,10.43-1.25.2-.06.46.17.93.33-.29,4.49-.88,8.99-.69,13.59,0,.22.19.48.31.7.14.22.34.43.49.6.53,0,1.15.11,1.54-.16.39-.21.8-.81.84-1.3.25-3.51.41-7.04.55-10.55.05-1.08-.06-2.16.6-3.14,1.22-.27,2.06.21,2.6,1.29.22.49.56,1.03.45,1.52-.86,3.79.23,7.52.21,11.31-.02,7.09-.06,14.13-.13,21.17,0,1.41-1.24,2.71-2.53,2.81ZM52.76,422.22c.73-.16,1.47-.54,2.23-.49,1.34,0,2.7.11,4.04.27,6.22.65,12.44.92,18.69.43,1.61-.11,3.25-.22,4.86-.16,5.4.21,10.79.27,16.18-.76.25,0,.55,0,.79.11.86.33,1.09.92.78,1.79-5.73,1.89-11.62,2.32-17.6,2.22-7.58-.11-15.16-.06-22.73-.49-2.15-.11-4.3-.38-6.44-.81-1-.22-.84-1.19-.8-2.11ZM104.84,371.81c-.23.6-1.34,1.14-1.92.92-.79-.27-1.36-.87-1.45-1.63-.11-1.4.56-2.49,1.82-3.14.63-.38,1.63.11,1.77.81.1.54.12,1.03.18,1.57-.13.49-.23.98-.41,1.46ZM41.35,409.28c.09,3.57-.33,7.04.1,10.56.29,2.33-.55,4.17-.89,6.44.93,2.38,1.7,4.92,1.54,7.74-.2,3.52-.11,7.04-.25,10.51-.12,2.98-.25,5.9-.63,8.88-.41,2.92.65,5.9.42,8.88-.1,1.46-.67,2.48-2.23,2.76-1.02-.59-1.82-1.46-1.83-2.54-.05-7.85-.13-15.75,0-23.55.05-2.6.88-5.2,1.06-7.85.38-6.49.79-12.88-.04-19.43-.13-1.03-.06-2.16.11-3.19.25-1.57.17-3.14.02-4.82-.27-2.92-.29-5.95-.5-8.82-.14-2.17-.35-4.33-.66-6.49-.4-2.98-.68-5.9-.1-8.83.17-.81,1.03-.97,1.93-.7.61.92.68,1.95.62,3.09-.26,3.74.27,7.53.65,11.26.54,5.36.53,10.77.66,16.13ZM39.54,474.84c-.55.43-1.71.21-2.08-.43-.71-1.08-.52-2.65.45-3.47.49-.43,1.69-.54,2.19-.06.35.38.5.92.76,1.36.04,1.19-.5,2-1.32,2.6ZM40.71,482.42c-.56,3.95-1.13,7.9-1.67,11.8-1.81.21-1.79.21-1.91-.65-.45-4,.19-7.96.52-11.91.02-.27.24-.54.43-.65.43-.21.95-.48,1.37-.38.43.11.82.65,1.15,1.03.15.22.15.6.11.76ZM39.29,372.74c-.08.59-.69.81-1.31.65-.19-.06-.43-.38-.43-.54-.16-4.01-.34-8.01-.39-12.07-.02-3.41.13-6.93.2-10.45.05-2.92.09-5.9-.67-8.88-.44-1.63.04-3.14,1.01-4.44.13-.16.5-.16.93-.32.62,3.79.54,7.52.53,11.2.02,3.52.13,6.98.5,10.51.52,4.76.3,9.58-.37,14.35ZM35.44,273.88c.2-.43.69-.81,1.09-1.08.52-.43,1.89-.11,2.08.54.19.76.54,1.57.43,2.33-1.01,7.47-1.22,14.94-.94,22.58.13,3.79-.25,7.53-.45,11.26,0,.16-.28.38-.44.6-.17-.54-.5-1.03-.5-1.57-.05-10.77-2.34-21.55-1.8-32.37.04-.76.24-1.57.53-2.28ZM34.83,265.55c.03-.7.25-1.41.61-2.06.37-.65,1.45-.76,2.04-.27.55.54.94,1.24,1.45,1.89-.48.7-.81,1.36-1.36,1.84-.6.49-1.47.38-2.12,0-.37-.33-.66-.98-.62-1.41ZM38.3,320.17c-.11.43-.23.87-.47,1.3-.09.11-.47,0-.7.06-.11-.22-.28-.43-.29-.7-.06-.6.25-.97.84-.92.21-.06.64.26.62.26ZM110.56,366.78c.01,3.03-.05,5.95.34,8.93.47,3.52.52,7.04.47,10.61-.28,21.38-.65,42.88-.99,64.37-.05,3.52-.1,7.04.66,10.55.62,2.87.63,5.9.65,8.88.05,7.63-.05,15.27-.06,22.85-.01,1.4-1.11,2.6-2.47,2.7-2.98.33-5.95.33-8.62-.06-1.76-1.19-1.73-3.03-2.62-4.33-.39-.6-1.25-.87-2-1.41-.46.87-.99,1.52-1.15,2.28-.26,1.03-.17,2.16-.37,3.24-.2,1.14-1.06,1.95-2.16,2.17-2.39.48-4.8.76-7.11,1.13-.82-.59-1.49-1.02-2.37-1.62-.16-1.73-.26-3.63-.52-5.47-.11-.81-.46-1.57-.88-2.22-.25-.38-.9-.65-1.36-.65-.4.05-.96.54-1.09.92-.26.76-.29,1.57-.29,2.38,0,1.9.08,3.79.13,5.41-.76,1.36-1.7,1.68-2.86,1.63-1.19,0-2.3-.76-2.57-1.57-.95-3.19-.94-6.45-.87-9.69.01-.76-.34-1.57-.61-2.28-.05-.21-.38-.48-.55-.43-.49.06-1.18.11-1.42.43-.45.6-.88,1.35-.95,2.11-.21,2.43-.17,4.87-.31,7.31-.04.81-.33,1.57-.46,2.22-1.2.49-2.22.49-3.3.06-.82-.33-1.36-.98-1.69-1.68-.23-.48-.37-1.14-.38-1.68,0-4.6.07-9.2.15-13.81,0-.54.99-1.73,1.44-1.73,7.81-.49,15.55-2.28,23.47-1.73,1.89.11,3.78.16,4.79.27,2.96.65,2.74,3.47,4.89,4.11,1.03-.65,2.13-1.35,3.26-2.05,1.52-.32,2.51.65,3.5,1.46.2.54.53,1.03.57,1.52.16,2.44.2,4.87.35,7.31.07,1.14.64,2.06,1.38,2.87.66.7,2.37.38,2.8-.49.83-1.52.86-3.14.52-4.71-1.18-5.09-1.18-10.28-1.28-15.43-.12-5.41.18-10.88.2-16.29.04-5.19-.1-10.34-.01-15.49.14-7.63.46-15.26.61-22.84.17-7.09.27-14.13.33-21.17,0-1.89.08-3.85-.25-5.68-.74-4.01-.73-8.12-.73-12.18,0-6.77-.05-13.59-.07-20.36-.01-.81.11-1.68-.05-2.43-1.46-6.71-.72-13.53-.78-20.36-.04-2.16-.02-4.33.07-6.5.01-.33.55-.7.86-1.03.17.22.46.43.49.65.1,1.08.12,2.11.14,3.19.04,2.43-.2,4.92.15,7.31,1.36,9.47,1,19,.99,28.48ZM106.53,286.39c0-1.89.25-3.73.51-7.2,1.29,4.44,1.03,7.69,1.24,10.93.16,2.71.21,5.42.58,8.07.96,6.98.71,13.96.64,21,0,.27-.58.6-.92.82-.07,0-.48-.33-.53-.55-.95-4.49-1.54-9.04-1.5-13.64.06-6.5-.06-12.94-.02-19.44ZM104.7,121.43c.4-1.25,1.84-2.28,3.05-2.28,2.2.06,4.28.49,6.1,1.9-.94,1.62-2.69,2.44-3.42,4.27-.55,1.41-2.64,1.73-4.28.98-.66-.27-1.23-1.03-1.54-1.73-.49-1.03-.26-2.11.08-3.14ZM81.08,51.65c.41-.6.74-.43.83.43.06.39.08.8.12,1.2.08.07.14.13.21.21,2.3,1.07,2.96,2.03,3.1,4.76.46.29.69.26.83.33.41.32.79.7,1.13,1.08.36.38.68.81.95,1.3,2.04,3.73,4.06,7.52,6.11,11.31-2.08,1.25-4.08.98-6.06.11-.24-.54-.64-1.03-.64-1.46-.05-6.37-.05-6.46-2.08-12.38-.22-.13-.24-.19-.25-.3-1.89-.95-2.89-2.47-3.06-4.55-.09-.03-.13-.07-.22-.1-.01-.1-.02-.21-.03-.32-.31-.29-.64-.57-.9-.87-.12-.17-.16-.6-.05-.76ZM70.93,112.28c-3.83.33-7.59-.11-11.37-.7-2.43-.38-4.84-.7-7.27-1.14-.46-.06-.87-.54-1.43-.92.34-.65.53-1.52,1.04-2,2.41-2.44,3.23-5.47,3.08-8.88-.05-1.3.13-2.65.1-4.01-.14-3.19-1.2-5.84-4.4-7.36-.48-.22-.91-.54-1.29-.92-.16-.17-.22-.54-.16-.76.09-.21.37-.54.56-.54,1.88.16,3.76.22,5.65-.11,1.04-.16,2.26-.38,3.21-.05,4.22,1.68,8.66.32,12.91,1.46,1.25.32,2.68-.17,4.02-.17,3.77,0,7.58-.38,11.27.33.17.7.55,1.35.37,1.62-.67,1.19-1.55,2.22-2.57,3.57-.51,2-1.13,4.33-1.66,6.44.2.81.27,1.35.43,1.89.68,2.17,1.94,3.9,4.07,4.88.99.49,2.03.81,3.02,1.3,1.72.81,2.54,2.98,1.79,4.87-.17.43-.68.92-1.11,1.03-1.04.22-2.15.43-3.2.33-5.71-.6-11.39-.65-17.08-.16ZM84.95,123c-.04.54-.04,1.09-.12,1.57-.16,1.41-1.3,2.33-2.71,2.27-1.03,0-1.96-.86-2.2-1.95-.31-1.36-.36-2.65.11-3.95.36-.97,1.42-1.68,2.45-1.52,1.07.22,2.14,1.14,2.27,2,.08.54.13,1.03.2,1.57ZM74.84,123.44c.04.54-.02,1.08-.1,1.62-.12.87-.67,1.52-1.48,1.62-1.56.16-3.18.22-4.77.16-1.26,0-2.27-1.57-2.02-2.97.2-1.03.52-2.01.74-2.82,1.54-1.25,3.14-1.14,4.76-.92,1.77.22,2.78,1.41,2.86,3.3ZM62.13,123.28c-.04.81-.09,1.62-.13,2.28-.72,1.08-1.7,1.35-2.81,1.29-1.35-.11-2.65-.32-3.73-1.35-1.12-1.03-1.51-2.76-.83-4.44.53-1.3,1.47-2.11,2.98-2.11,2.8-.05,4.15.97,4.44,3.52.04.27.07.54.07.81ZM48.14,98.48c-.63-.32-.87-1.4-.27-1.95.26-.27,1.09-.33,1.26-.16.28.32.38.97.28,1.41-.11.6-.65.81-1.26.7ZM49.07,121.98c.1.97-.45,2.06-.75,1.78-.35-.32-.64-.92-.64-1.41-.01-.49.34-.92.55-1.41.28.32.55.65.83,1.03ZM49.45,136.54c.21,0,.44.21.64.43.02,0-.12.32-.23.32-.93.38-1.85.49-2.75-.65.87,0,1.6-.1,2.35-.1ZM89.65,96.04c.28-1.29.78-2.49,1.95-3.25.16-.11.52,0,.76.05.21.11.52.33.55.49.13,1.84-.55,3.52-1.38,5.09-.19.33-.89.38-1.34.6-.74-.92-.79-1.89-.54-2.98ZM90.07,121.71c.32-1.09,1.05-1.79,2.22-2.06,1.28,1.95,1.24,4.01.54,6.12-.2.6-.72.86-1.31.65-.48-.16-1.09-.38-1.3-.76-.72-1.25-.55-2.6-.16-3.95ZM44.05,66.97c3.25-2.76,6.43-5.63,9.89-8.12,5.45-3.9,10.7-8.01,15.37-12.94.28-.3.84-.37,1.31-.51.24-.73.45-.98.86-.79.03,0-.03.49-.16.54-.15.08-.34.05-.53.04.03,1.26-.15,2.24-.64,3.15-.74,1.46-1.22,2.98-1.19,4.66.04,1.46.45,2.65,1.73,3.47.46.32.86.65,1.32,1.03.57,1.46,1.12,2.98,1.81,4.44.2.43.65.87,1.11,1.14.44.22,1.07.33,1.5.17.42-.17.85-.65.98-1.14.61-1.95-.96-3.63-.89-5.47.04-.97.8-1.25,1.87-1.13,2.66,3.57,5.92,6.98,6.38,12.18-.61,1.25-1.32,2.71-2.07,4.12-.38.7-1.11.65-1.88-.05-.58-.49-1.19-1.03-1.62-1.41-2.22-.22-2.59,2.05-4.41,2.49-.45-.38-1.15-.81-1.54-1.41-.41-.7-.48-1.57-.82-2.33-.42-.92-2.26-1.19-2.71-.38-.52.92-.92,1.95-1.45,2.87-.54.98-1.42,1.52-2.57,1.63-3.41.32-6.42-.71-9.06-2.93-.34-.27-.38-.97-.58-1.46.49-1.25,1.02-2.49,1.48-3.68.24-.6.08-1.13-.47-1.46-.46-.21-1.04-.37-1.5-.27-.49.05-1.01.43-1.36.81-1.31,1.3-2.56,2.71-3.83,4.06-1.39,1.52-3.1,1.95-5.14,1.52-1.02-.22-1.76-.65-1.67-1.35.07-.48.13-1.19.46-1.46ZM47.31,142.93c7.59.6,15.19.6,22.75.54,2.15,0,4.32-.33,6.43-.76,1.64-.33,3.18-.43,4.82,0,1.35.33,2.68.22,4-.16,4.52-1.14,9.13-.87,13.74-.43,2.96.33,5.94.6,8.89.92.38.05.72.65,1.09.97-.56,1.84-1.87,2.54-3.68,2.54-.53,0-1.09-.11-1.61-.21-4.01-.81-8-1.41-12.03-.22-1.26.38-2.71.16-4.05.16-2.45.06-4.83.32-7.23.87-5.84,1.35-11.77,1.57-17.7.05-2.96-.81-5.93-1.03-8.9-.97-4.07.16-8.09.05-12.07-1.46-2.15-.81-4.29-.27-6.39.21-.92.22-1.98.43-2.81-.49.57-.97,1.55-1.52,2.62-1.68,1.31-.22,2.66-.33,4.02-.33,2.7.06,5.42.16,8.13.43ZM36.09,118.83c.59-.27,1.24-.92,1.94-.86,1.22,0,2.14.97,2.27,1.95.3,1.95.19,3.84-1.1,5.31-.47.54-1.34.86-2.1.92-.39.06-.91-.48-1.38-.75-.33-2.17.16-4.28.37-6.55ZM22.66,126.25c-.9-1.95.41-5.41,2.24-6.17.96-.43,2.03-.65,3.08-.81,1.34-.17,2.71.86,2.82,2.22.14,1.63.2,3.25.14,4.82-.02.43-.53.87-.89,1.41-1.24,0-2.57-.06-3.9-.06s-2.86,0-3.5-1.41ZM27.89,138.38c-.26.06-.61,0-.79-.16-.35-.43-.71-.81-.89-1.3-.23-.49.05-1.03.7-1.14,3.73-.38,7.44-.38,11.23,1.19-1.84.16-3.7.27-5.54.54-1.59.22-3.14.54-4.7.87ZM23.4,522.91c.26-.76.82-1.41,1.42-1.84,1.26-.97,2.69-1.68,4-2.55,2.12-1.35,4.45-1.79,6.94-.76,5.03,1.84,10.18,2.48,15.33,2.87,5.95.43,11.9,1.57,17.89,1.35,4.07-.32,8.1-.92,12.03-1.95,1.86-.43,3.66-.97,5.59-.92,3.26,0,6.49-.22,9.64-1.25,1-.38,2.14-.33,3.23-.33,5.42-.06,10.84-.06,16.26-.11,2.48,0,4.84.48,7.12,1.41,1.88.75,2.98,3.36,2.2,5.47-.38,1.02-1.07,1.94-2.23,2.22-1.03.21-2.12.32-3.2.38-3.8.16-7.59.27-12.69.43-8.21-.81-17.59,1.19-27.07,1.35-1.34.06-2.69.38-4.02.6-1.35.22-2.66.7-4,.76-4.38,0-8.59.81-12.71,1.84-1.57.38-3.17.43-4.81.27-4.61-.49-9.2-.87-13.82-1.35-2.17-.22-4.28-.33-6.38.21-2.91.81-5.88.06-8.76-1.03-.75-.16-1.44-.7-1.79-1.63-.76-1.84-.83-3.68-.17-5.46Z"/>
      <path class="cls-1" d="M131.24,540.59c-1.14-.3-2.34-.42-3.51-.41-12.3.13-24.62-.35-36.92.36-2.58.15-5.16.02-7.74.03-2.38,0-4.76.03-7.15.04-2.58.01-5.21-.31-7.73.13-2.62.45-5.13-.29-7.69-.19-2.18.09-4.39-.17-6.54.13-5.93.82-11.88.8-17.83.79-5.76-.02-11.51-.03-17.27,0-1.39,0-2.77.17-4.15.32-.37.04-.77.27-1.04.56-.26.27-.49.72-.48,1.08.01.3.37.68.65.83.34.17.78.18,1.17.18,7.54-.02,15.09.05,22.63-.1,5.16-.11,10.31,0,15.46-.79,2.93-.45,5.95-.47,8.89.3,1.39.37,2.76.27,4.14.09,2.76-.35,5.51-.69,8.29-.06.94.21,2,.15,2.96-.06,2.36-.54,4.75-.37,7.12-.44,3.17-.09,6.36-.14,9.52-.38,1.98-.15,3.95-.19,5.95-.09,5.95.3,11.91.46,17.85.15,3.8-.2,7.53,0,11.27.69.57.1,1.16.1,1.74.12.57.02,1.42-1.12,1.41-2.07-.26-.34-.55-1.12-.99-1.23Z"/>
      <path class="cls-1" d="M68.54,548.16c-3.57-.05-7.14-.03-10.7-.03,0-.09,0-.18,0-.27-3.96.15-7.92.28-11.89.45-.53.02-1.09.98-.79,1.48.2.33.46.62.73.87.14.12.37.15.56.15,6.94-.06,13.88-.13,20.83-.2.38,0,.78-.16,1.15-.3.18-.06.37-.2.47-.37.21-.35.53-.76.49-1.1-.04-.28-.53-.68-.83-.68Z"/>
      <path class="cls-1" d="M119.26,548.91c-.18-.16-.53-.31-.85-.37-.67-.13-1.38-.29-2.07-.29-12.5-.09-24.99-.15-37.49-.21-.34,0-.76.03-1,.15-.49.25-.96.54-1.31.88-.53.49.47,1.44,1.43,1.47,7.14.17,14.27.31,21.4.46,0-.09,0-.18,0-.27,6.42,0,12.84.02,19.27-.03.53,0,1.42-.41,1.49-.68.08-.33-.5-.75-.87-1.1Z"/>
      <path class="cls-1" d="M1.52,533.12c-.51.15-.96.72-1.31,1.21-.58.8.07,2.52.95,2.53,1.16.01,2.32-.1,3.07-.13,1.58-.15,2.76-.21,3.91-.4.3-.05.59-.47.79-.8.25-.41-.14-1.37-.59-1.64-2.18-1.35-4.49-1.47-6.83-.77Z"/>
      <path class="cls-1" d="M151.93,534.34c-.79-1.37-2.03-1.87-3.92-1.85-.31.12-1.05.34-1.71.72-.29.16-.57.64-.6,1-.03.31.23.87.48.96,1.27.48,2.58.88,3.89,1.23.35.1.79.03,1.13-.12.32-.14.69-.43.81-.77.13-.34.09-.88-.08-1.18Z"/>
      <path class="cls-1" d="M140.11,544.5c-.23.25-.33.79-.26,1.14.06.35.34.74.63.93.31.21.73.2,1.38.36.68-.15,1.63-.31,2.54-.62.28-.09.57-.58.63-.94.06-.35-.05-.9-.27-1.11-1.5-1.4-3.26-1.31-4.65.23Z"/>
      <path class="cls-1" d="M35.37,550.01c-.23.25-.32.79-.26,1.14.06.35.34.74.63.93.31.2.73.2,1.38.36.68-.16,1.63-.3,2.54-.62.28-.1.57-.59.63-.94.07-.35-.05-.9-.27-1.11-1.51-1.4-3.26-1.31-4.65.24Z"/>
      <path class="cls-1" d="M69.6,301.55c1.28-.27,2.79-.87,4.36-1.08,4.56-.48,4.95-2.27,5.44-5.74.39-2.65.61-5.36.69-8.01.03-1.03-.41-2.11-.79-3.09-.19-.43-.67-.97-1.12-1.08-2.34-.49-4.73-.87-7.13-1.3-.49-.05-1.01.22-1.52.27-1.24.81-1.85,1.95-1.93,3.36-.29,4.55-.53,9.15-.65,13.75-.03,1.41.8,2.49,2.65,2.92Z"/>
      <path class="cls-1" d="M64.64,203.07c2.23-.43,4.58-.81,6.89-1.41,2.36-.59,3.61-2.38,4.1-4.6,1.05-4.93.31-9.69-1.81-14.3-.47-1.03-1.48-1.73-2.62-1.73-1.33-.11-2.7,0-4,.27-1.09.16-2.02.92-2.38,1.95-2.11,5.9-2.25,12.07-1.37,18.35.06.43.67.86,1.19,1.46Z"/>
      <path class="cls-1" d="M47.45,187.1c.27.6.69.81,1.33.81.54,0,1.1-.11,1.2-.7.32-1.84.53-3.68.77-5.52.09-1.57.34-3.14.44-4.76.03-.38-.39-.98-.72-1.36-.31-.38-1.87.16-2.08.65-.11.21-.22.49-.35.7-1.3,3.03-1.32,6.23-.94,9.47.03.27.25.49.34.7Z"/>
      <path class="cls-1" d="M77.86,386.43c-2.42.11-4.89.11-7.28.43-.95.11-1.81,1.03-2.96,1.78-.67,3.31-1.2,5.96-1.67,8.39.39,2.38.73,4.5,1.11,6.77.71.38,1.49,1.03,2.1.92,2.4-.38,4.76-1.03,7.06-1.84,1.03-.38,1.82-1.41,1.94-2.55.33-2.92.9-5.79,1.94-8.66.34-.92.07-2.11-.04-3.19-.1-.87-1.4-2.11-2.2-2.06Z"/>
      <path class="cls-1" d="M68.5,249.68c.78-.05,1.58-.22,2.38-.33,4.9-.49,5.92-3.46,5.68-7.09-.05-.54-.07-1.08-.22-1.62-.61-2.11-.8-4.17-.38-6.34.08-.49-.18-1.08-.28-1.57-.16-.87-1.56-2.11-2.36-2.06-2.11.22-4.23.32-6.31.7-.65.11-1.28.97-1.63,1.62-1.51,2.87-1.47,6.12-1.58,9.37,0,1.08,0,2.17,0,3.19.09,3.03,1.58,4.33,4.67,4.11Z"/>
      <path class="cls-1" d="M70.01,351.03c2.38.33,4.78.65,7.18.92,2.51.22,4.55-2.33,3.84-4.87-.34-1.3-.89-2.49-1.58-4.33,1.86-2.97,2.75-6.6,1.84-10.45-.61-.98-1.52-1.46-2.64-1.46-2.23-.06-4.26.65-6.13,1.78-2.43,1.41-4.13,3.36-4.54,6.22-.28,1.84-.77,3.68-1.02,5.53-.15,1.08-.08,2.16,0,3.24.1,1.52,1.59,3.14,3.03,3.41Z"/>
      <path class="cls-1" d="M73.29,434.18c-1.35-.16-2.71-.16-4.06-.16-1.1-.05-2.65,1.36-2.78,2.49-.43,4.33-.78,8.61-1.16,12.88.59.7,1.09,1.35,1.98,2.49,2.58-.16,4.76-.22,6.87-.65,1.37-.27,2.45-1.41,2.82-2.77,1.26-4.33,1.07-8.55-1.12-12.56-.55-.98-1.47-1.63-2.56-1.74Z"/>
      <path class="cls-1" d="M99.59,454.05c-.44-.05-1.14.22-1.41.54-1.51,1.9-1.6,3.95-.38,5.96.25.38.86.7,1.32.7.4,0,1.06-.38,1.19-.7.37-1.03.52-2.11.7-2.87-.16-1.08-.16-1.89-.39-2.65-.14-.43-.65-.92-1.04-.97Z"/>
      <path class="cls-1" d="M77.99,89.55c-1.64-.65-3.63-1.52-5.53-2.28-4.92.65-8.92,2.49-12.29,6.06-.55,2.22-1.21,4.55-1.68,6.93-.51,2.65.79,7.14,4.57,8.82,3.1,1.35,6.21,1.9,9.81,1.19,1.52-1.14,3.27-2.33,4.97-3.63,2.31-1.73,3.39-4.11,3.28-7.04-.04-1.08-.12-2.17-.09-3.25.08-2.6-.85-4.76-3.05-6.82ZM70.31,104.92c-1.92.32-3.71-.38-5.23-1.68-.38-.33-.71-.92-.79-1.41-.14-.76-.32-1.68,0-2.27,1.48-2.49,3.54-4.6,6.03-6.17,1.42-.92,4.18-.49,5.16.97.56.81.74,1.95.82,2.17.2,4.92-3.53,7.9-6,8.39Z"/>
    </g>
  </g>
</svg>