<?xml version="1.0" encoding="UTF-8"?>
<svg id="Layer_2" data-name="Layer 2" xmlns="http://www.w3.org/2000/svg" viewBox="0 0 226.54 291.49">
  <defs>
    <style>
      .cls-1 {
        fill: #284268;
      }
    </style>
  </defs>
  <g id="Layer_1-2" data-name="Layer 1">
    <g>
      <rect class="cls-1" x="133.32" y="131.95" width="6.09" height="126.76" rx="2.93" ry="2.93"/>
      <rect class="cls-1" x="108.03" y="131.95" width="6.09" height="126.76" rx="2.93" ry="2.93"/>
      <rect class="cls-1" x="47.33" y="276.78" width="127.49" height="14.71"/>
      <path class="cls-1" d="M40.43,89.76c1.59,13.47,13,23.63,26.57,23.65h88.51c13.57-.02,24.98-10.17,26.57-23.65H40.43Z"/>
      <rect class="cls-1" x="82.74" y="131.95" width="6.09" height="126.76" rx="2.93" ry="2.93"/>
      <path class="cls-1" d="M70.1,119.61v150.97h82.3V119.61h-82.3ZM85.91,264.91h-.24c-5.04,0-9.13-4.09-9.13-9.13v-120.9c0-5.04,4.09-9.13,9.13-9.13h.23c5.04,0,9.13,4.09,9.13,9.13v120.9c0,5.04-4.09,9.13-9.13,9.13ZM120.33,255.78c0,5.04-4.09,9.13-9.13,9.13h-.23c-5.04,0-9.13-4.09-9.13-9.13v-120.9c0-5.04,4.09-9.13,9.13-9.13h.23c5.04,0,9.13,4.09,9.13,9.13v120.9ZM145.61,255.78c0,5.04-4.09,9.13-9.13,9.13h-.23c-5.04,0-9.13-4.09-9.13-9.13v-120.9c0-5.04,4.09-9.13,9.13-9.13h.23c5.04,0,9.13,4.09,9.13,9.13v120.9Z"/>
      <path class="cls-1" d="M24.9,72.62c0,6.04,4.9,10.93,10.94,10.94h154.87c6.04,0,10.93-4.9,10.94-10.94v-3.78H24.9v3.78Z"/>
      <path class="cls-1" d="M33.54,62.28c17.34.05,32.68-11.24,37.77-27.82.4-1.3,1.6-2.18,2.96-2.18h77.99c1.36,0,2.56.88,2.96,2.18,5.09,16.58,20.43,27.87,37.77,27.82,18.52-.02,33.52-15.03,33.54-33.54C226.52,12.88,213.66.02,197.8,0c-8.6-.02-16.6,4.43-21.13,11.74-.57.91-1.56,1.46-2.63,1.46H52.51c-1.07,0-2.06-.55-2.63-1.46C45.35,4.43,37.35-.02,28.74,0,12.88.02.02,12.88,0,28.74c.02,18.52,15.03,33.52,33.54,33.54ZM28.74,6.44c10.19.01,18.45,8.27,18.46,18.46,0,8.5-6.89,15.38-15.39,15.39-7.14,0-12.92-5.79-12.93-12.93,0-1.71,1.39-3.1,3.1-3.1s3.1,1.39,3.1,3.1c0,3.71,3.01,6.73,6.73,6.73,5.07,0,9.18-4.12,9.19-9.19,0-6.77-5.49-12.25-12.26-12.26-8.89.01-16.09,7.21-16.1,16.1.01,11.54,9.36,20.89,20.9,20.9,14.85-.02,26.88-12.05,26.9-26.9,0-1.71,1.39-3.1,3.1-3.1h99.45c1.71,0,3.1,1.39,3.1,3.1.02,14.85,12.05,26.88,26.9,26.9,11.54-.01,20.89-9.36,20.9-20.9-.01-8.89-7.21-16.09-16.1-16.1-6.77,0-12.25,5.49-12.26,12.26,0,5.07,4.12,9.18,9.19,9.19,3.71,0,6.72-3.01,6.73-6.73,0-1.71,1.39-3.1,3.1-3.1s3.1,1.39,3.1,3.1c0,7.14-5.79,12.92-12.93,12.93-8.5,0-15.38-6.89-15.39-15.39.01-10.19,8.27-18.45,18.46-18.46,12.31.02,22.29,9.99,22.3,22.3-.02,14.96-12.14,27.08-27.1,27.1h0c-17.07-.02-31.34-13.01-32.96-30h-93.54c-1.62,16.99-15.89,29.98-32.96,30-14.96-.02-27.09-12.14-27.1-27.1.01-12.31,9.99-22.29,22.3-22.3Z"/>
      <path class="cls-1" d="M113.27,46.58c-2.13,0-6.17.86-6.17,4.13,0,3.59,3.88,4.55,6.17,4.55s6.17-.96,6.17-4.55c0-3.26-4.04-4.13-6.17-4.13Z"/>
      <path class="cls-1" d="M150.05,38.49h0s-73.56,0-73.56,0c-3.78,10.24-11.08,18.8-20.59,24.15h114.74c-9.51-5.35-16.81-13.91-20.59-24.15ZM113.27,61.47c-6.15,0-12.37-3.69-12.37-10.75,0-5.99,5.2-10.33,12.37-10.33s12.37,4.35,12.37,10.33c0,7.06-6.22,10.75-12.37,10.75Z"/>
    </g>
  </g>
</svg>