<?xml version="1.0" encoding="UTF-8"?>
<svg id="Layer_2" data-name="Layer 2" xmlns="http://www.w3.org/2000/svg" viewBox="0 0 195.25 291.49">
  <defs>
    <style>
      .cls-1 {
        fill: #284268;
      }
    </style>
  </defs>
  <g id="Layer_1-2" data-name="Layer 1">
    <g>
      <path class="cls-1" d="M97.63,226.19c1.37,0,2.48-1.11,2.48-2.48v-105.67c0-1.37-1.11-2.48-2.48-2.48s-2.48,1.11-2.48,2.48v105.67c0,1.37,1.11,2.48,2.48,2.48Z"/>
      <path class="cls-1" d="M122.44,226.19c1.37,0,2.48-1.11,2.48-2.48v-105.67c0-1.37-1.11-2.48-2.48-2.48s-2.48,1.11-2.48,2.48v105.67c0,1.37,1.11,2.48,2.48,2.48Z"/>
      <path class="cls-1" d="M58.28,84.44h78.7c-19.9-16.93-26.46-44.19-15.87-66.4h-46.97c10.6,22.21,4.04,49.47-15.87,66.4Z"/>
      <path class="cls-1" d="M43.81,283.6c0,4.2,2.4,7.89,5.14,7.89h97.35c2.74,0,5.14-3.69,5.14-7.89v-.32c0-3.91-2-7.48-5.01-12.89-.62-1.1-1.29-2.31-1.99-3.6H50.81c-.7,1.29-1.37,2.5-1.98,3.6-3.02,5.41-5.01,8.98-5.01,12.89v.32Z"/>
      <path class="cls-1" d="M195.25,36.22c-.02-19.99-16.22-36.2-36.22-36.22H36.22C16.23.02.02,16.23,0,36.22c.02,17.64,14.32,31.94,31.96,31.96,15.76-.02,28.54-12.79,28.56-28.56.02-8.72-4.38-16.85-11.69-21.59h-12.61c-10.04.01-18.18,8.15-18.19,18.19,0,7.69,6.24,13.92,13.93,13.93,5.81,0,10.52-4.71,10.52-10.52,0-4.3-3.49-7.79-7.8-7.8-3.1,0-5.61,2.52-5.62,5.62,0,1.71-1.39,3.1-3.1,3.1s-3.1-1.39-3.1-3.1c0-6.52,5.29-11.81,11.82-11.82,7.73,0,13.99,6.27,14,14-.01,9.23-7.49,16.71-16.72,16.72-11.11-.01-20.12-9.02-20.13-20.13.02-13.46,10.92-24.37,24.39-24.39h122.82c13.46.02,24.37,10.92,24.39,24.39-.01,11.11-9.02,20.12-20.13,20.13-9.23-.01-16.71-7.49-16.72-16.73,0-7.73,6.27-13.99,14-14,6.52,0,11.81,5.29,11.82,11.82,0,1.71-1.39,3.1-3.1,3.1s-3.1-1.39-3.1-3.1c0-3.1-2.52-5.61-5.62-5.62-4.3,0-7.79,3.49-7.8,7.8,0,5.81,4.71,10.52,10.52,10.52,7.69,0,13.92-6.24,13.93-13.93-.01-10.04-8.15-18.17-18.19-18.19h-12.65c-7.41,4.61-11.65,12.43-11.65,21.59.02,15.76,12.79,28.54,28.56,28.56,17.64-.02,31.94-14.32,31.96-31.96Z"/>
      <rect class="cls-1" x="47.91" y="252.34" width="99.44" height="8.25" rx="2.3" ry="2.3"/>
      <path class="cls-1" d="M72.82,226.19c1.37,0,2.48-1.11,2.48-2.48v-105.67c0-1.37-1.11-2.48-2.48-2.48s-2.48,1.11-2.48,2.48v105.67c0,1.37,1.11,2.48,2.48,2.48Z"/>
      <path class="cls-1" d="M55.2,246.14h84.86V90.64H55.2v155.5ZM113.75,118.03c0-4.8,3.89-8.68,8.68-8.68s8.68,3.89,8.68,8.68v105.67c0,4.8-3.89,8.68-8.68,8.68s-8.68-3.89-8.68-8.68v-105.67ZM88.95,118.03c0-4.8,3.89-8.68,8.68-8.68s8.68,3.89,8.68,8.68v105.67c0,4.8-3.89,8.68-8.68,8.68s-8.68-3.89-8.68-8.68v-105.67ZM64.14,118.03c0-4.8,3.89-8.68,8.68-8.68s8.68,3.89,8.68,8.68v105.67c0,4.8-3.89,8.68-8.68,8.68s-8.68-3.89-8.68-8.68v-105.67Z"/>
    </g>
  </g>
</svg>