<?xml version="1.0" encoding="UTF-8"?>
<svg id="Layer_2" data-name="Layer 2" xmlns="http://www.w3.org/2000/svg" viewBox="0 0 249.19 203.4">
  <defs>
    <style>
      .cls-1 {
        fill: #6d442f;
        fill-rule: evenodd;
      }
    </style>
  </defs>
  <g id="_Layer_" data-name="&amp;lt;Layer&amp;gt;">
    <g>
      <path class="cls-1" d="M166.57,12.97c-.54-.56-1.22-.43-1.89-.28-.12.02-.23.17-.3.29-.03.06.02.22.08.26.73.5,1.44.53,2.12-.27h0ZM159.94,68.37c.44.07.87.27,1.22.17,2.12-.64,4.25-1.12,6.43-1.46,3.19-.5,6.21-1.81,9.09-3.42.3-.17.56-.77.53-1.13-.02-.36-.37-.72-.66-.98-.18-.15-.57-.21-.82-.12-1.11.37-2.28.66-3.31,1.24-3.41,1.9-7.04,3.12-10.68,4.36-.41.14-.83.34-1.19.58-.23.15-.37.45-.62.77h0ZM157.98,82.33c-.37.68-.41,1.41-.37,2.12.12,2,.08,4,.05,6.02-.05,3.04-.18,4.1,3.52,4.43.42.03.82.22,1.23.32.13.03.3.05.42,0,.25-.12.51-.25.72-.43.07-.06.08-.3.02-.41-1.74-3.81-3.26-7.7-4.55-11.71-.04-.12-.16-.27-.28-.29-.24-.05-.51-.03-.76-.04h0ZM97.14,184.44c-.08.34-.29.72-.19.82,1.36,1.46,3.1,2.35,4.94,3.1,2.23.91,4.33,2,6.06,3.7.68.68,1.52,1.27,2.41,1.65,1.56.69,2.95,1.61,4.3,2.61.3.22.78.08.98-.42-.05-.13-.06-.3-.15-.39-1.02-.95-2.06-1.88-3.09-2.82-2.38-2.18-5.18-3.81-7.79-5.68-2.15-1.55-4.71-2.37-7.47-2.58h0ZM177.47,115.08c4.55.09,6.61-.06,9.01-.73,3.23-.9,6.37-2.12,9.52-3.33.13-.05.21-.21.34-.29.3-.19.54-.83.34-1.15-.13-.23-.3-.49-.52-.58-.82-.34-1.69-.13-2.53.11-1.68.49-3.35,1.05-5.03,1.55-1.4.42-2.8.82-4.14,1.45-1.99.93-4.03,1.72-6.99,2.96h0ZM192.87,152.96c.82.07,1.52.14,2.32.21.89-.31,1.84-.73,2.83-.95,1.44-.34,2.8-.91,4.07-1.66,1.94-1.12,4.01-1.84,6.1-2.54.55-.19,1.15-.3,1.64-.59.31-.18.47-.62.7-.96-.78-.4-1.5-.17-2.2-.03-2.13.43-4.28.83-6.39,1.4-3.53.93-7.07,1.82-10.64,2.49-.28.05-.56.17-.83.26-.61.19-1.09,1.03-1,1.78.09.71.23,1.39,1.03,1.59.83-.35,1.65-.68,2.37-.99h0ZM225.66,112.61c-3.92,1.85-7.52,3.57-11.3,4.81-1.11.37-2.24.71-3.32,1.21-.79.36-1.52.9-2.22,1.45-.48.38-.7.95-.69,1.56.02.58.15,1.11.95,1.37,1.97-.56,4-1.38,5.99-2.38,2.39-1.2,4.73-2.48,6.98-3.95.86-.56,1.8-1.18,2.75-1.38,2.59-.55,4.9-2.04,7.5-2.53.34-.07.64-.55.94-.83-.2-.28-.3-.62-.5-.7-2.19-.88-4.28-2.03-6.82-2.46-.09,1.26-.16,2.39-.27,3.82h0ZM177.6,130.61c-.49.22-.87.48-1.27.55-.42.07-.87.02-1.28-.09-1.9-.53-3.69-1.35-5.69-1.64-.53-.08-1.13-1.14-1.01-1.71.41-2.02.53-4.04.77-6.07.22-1.86.79-3.71,1.25-5.56.14-.56.45-1.08.72-1.74.43.25.93.36,1.06.65,1.54,3.31,3.06,6.63,3.83,10.29.37,1.8,1.06,3.5,1.62,5.32h0ZM207.74,135.92c1.31,1.23,1.64,2.62,2.07,3.96.32.97-.12,1.79-1.07,2.04-1.56.4-3.12.81-4.7,1.12-2.43.48-4.83,1.08-7.21,1.86-2.69.88-5.43,1.02-8.16,1.19-.58.04-1.16-.38-1.29-.86-.25-.89.13-2,.8-2.32.13-.06.26-.15.4-.19,3.48-1.22,6.86-2.73,10.19-4.34,2.15-1.04,4.46-1.47,6.67-2.26.66-.23,1.42-.13,2.3-.2h0ZM207.91,84.56c.87.2,1.68.38,2.53.58.91-.51,1.81-1,2.71-1.5-.26-.85-.8-1.13-1.63-1-.85.13-1.59.84-2.51.62-.81-.77-1.75-1.29-2.88-1.57-.95-.24-1.36-1.36-2.45-1.49-1.12-.14-2.21-.45-3.48-.72-.84.24-1.86.42-2.78.84-1.47.67-2.91,1.45-4.31,2.27-1.05.62-1.57,2.45-1.11,3.52.49,1.16,1.04,2.29,1.47,3.48.23.61.59.9.92.9,3.27-1.27,6.27-2.48,9.3-3.6,1.53-.57,3.02-1.17,4.24-2.33h0ZM205.41,131.16c-1.23-1.09-1.65-2.41-1.88-3.84-.07-.43-.91-.91-1.34-.82-1.14.24-2.28.44-3.4.79-1.82.56-3.59,1.31-5.42,1.82-2.41.67-4.68,1.75-6.96,2.78-.24.11-.42.39-.63.61-.37.72-.06,1.41-.02,2.11.05.91-.45,1.67-.79,2.48-.34.8.45,1.78,1.35,1.67.56-.07,1.15-.18,1.68-.39,3.14-1.27,6.28-2.53,9.39-3.88,1.77-.77,3.55-1.42,5.41-1.84.56-.13,1.15-.24,1.68-.46.23-.09.39-.42.91-1.02h0ZM181.67,72.52c-.27.33-.48.79-.82.98-.9.51-1.84,1.06-2.81,1.3-1.74.42-3.37,1.1-4.98,1.86-2.17,1.01-4.38,1.79-6.7,2.2-1,.18-1.98.48-2.86.7-.73-.17-1.06-.61-1.35-1.09-.73-1.22-1.22-2.53-1.12-4.24.28-.32.59-.87,1.06-1.16.75-.47,1.58-.83,2.41-1.12.69-.24,1.43-.32,2.14-.46,3.16-.63,6.31-1.33,9.21-2.97.39-.22.83-.31,1.25-.46,1.12-.41,1.89-.2,2.64.73.89,1.08,1.71,2.2,1.93,3.74h0ZM185.12,154.44c-.83.92-.83,1.83-.94,2.67-.43,3.63-.66,7.24-.42,10.85.21,3.16.5,6.32-.6,9.5-.09.27-.06.58-.1.87-.08.6,0,1.15.46,1.73,2.75,1.42,5.88,2.28,9.01,3.14.57.15,1.12-.12,1.51-.88-.36-.94-.81-1.97-1.16-3.04-.35-1.07-.59-2.19-.91-3.27-.16-.54-.33-1.1-.62-1.57-.91-1.45-1.35-3.07-1.71-4.75-.39-1.8-1.13-3.51-1.43-5.33-.28-1.71-.76-3.32-1.33-4.91-.57-1.59-1.12-3.18-1.76-5h0ZM182.76,128.17c-.3-.23-.65-.44-.93-.73-.18-.19-.32-.47-.35-.74-.24-1.57-.8-2.99-1.53-4.36-.65-1.22-.29-1.96,1.02-2.2,4.03-.73,7.92-2.02,11.74-3.64.94-.41,1.93-.69,2.9-1.04,3.26-1.18,3.01-.76,4.15,1.7.41.88.91,1.72,1.31,2.61.29.66-.21,2.01-.85,2.33-1.19.59-2.38,1.18-3.62,1.65-3.16,1.21-6.35,2.3-9.51,3.52-1.4.54-2.83.65-4.34.9h0ZM224.68,176.08c-.6-1.36-1.16-2.64-1.73-3.91-.38-.84-1.04-1.32-1.96-1.36-2.18-.1-4.32.1-6.36,1.22-1.04.56-2.13,1.03-3.21,1.52-4.04,1.82-8,3.87-12.28,5-.13.03-.24.18-.34.26-.34.57-.32,1.15-.1,1.67.65,1.56,1.31,3.1,2.15,4.61.73.39,1.43.85,2.21,1.16.5.2,1.14.34,1.67.21,2.12-.54,4.22-1.17,6.36-1.62.41-.09.84-.33,1.19-.59,1.8-1.4,3.86-2.19,5.92-3.01.67-.26,1.36-.66,1.88-1.16,1.19-1.17,2.56-2.06,3.92-2.98.32-.22.48-.71.68-1.02h0ZM174.55,109.31c-.62-1.8-1.31-3.8-1.97-5.81-.19-.58.03-1.12.8-1.61.52.06,1.22.13,1.96.22.8-.23,1.64-.53,2.49-.72,3.17-.68,6.16-1.94,9.07-3.45.92-.47,1.89-.83,2.85-1.21.68-.26,1.5.02,1.89.57.16.23.4.42.48.68.56,1.93,1.55,3.6,2.6,5.26.3.48.03,1.22-.55,1.45-.82.32-1.64.66-2.48.87-3.7.9-7.36,1.97-10.86,3.6-1.38.65-2.79.91-4.23,1.02-.74.05-1.42-.14-2.04-.88h0ZM176.43,97.61c4.14-.99,8.09-2.65,11.85-4.84.87-.51,1.12-1.33.6-2.23-.41-.71-.63-1.59-1.49-2.05-.83-.18-1.67.22-2.47.55-3.32,1.36-6.81,1.84-10.21,2.8-1.12.32-2.31.35-3.47.47-1.21.11-2.48-.78-2.93-2.01-.2-.54.28-1.69.81-1.91.41-.16.84-.38,1.25-.39,3.8-.11,7.48-1.32,11.23-1.93.98-.16,1.94-.68,2.89-1.09.72-.31,1.11-1.15.91-1.82-.45-1.49-.91-2.98-1.39-4.46-.4-1.27-.94-1.53-2.25-1.16-.28.09-.58.13-.85.24-1.51.59-3.04,1.15-4.54,1.81-3.27,1.42-6.51,2.92-9.96,3.75-.8.19-1.71.38-2.14,1.19.59,1.34,1.19,2.61,1.71,3.92.42,1.05.8,2.1,1.5,3.01.43.54.67,1.22.99,1.85.44.88.87,1.77,1.31,2.65.55,1.12,1.43,1.74,2.75,1.5,1.33-.25,2.6-.23,3.9.16h0ZM184.78,68.31c.2-.85.45-1.56.53-2.28.12-1.09-.24-1.98-1.22-2.49-.25-.13-.53-.19-.78-.32-.82-.43-1.15-1.16-1.18-2.09-.02-.55.4-1.26.88-1.42.27-.1.55-.24.83-.3,3.73-.72,7.42-1.71,11.11-2.7.83-.22,1.72-.29,2.58-.33,1.51-.06,1.91.59,1.63,1.79-.53,2.32-.59,4.64-.53,6.95.06,2.89.23,5.76.37,8.81-.17.61-.77,1.09-1.45,1.36-1.23.5-2.49,1.07-3.76,1.25-1.79.25-3.36,1.03-4.83,1.86-1.02-.44-1.21-1.29-1.33-2.12-.09-.55.01-1.16.07-1.73.1-.93-.11-1.75-.8-2.32-1.13-.95-1.52-2.31-2.12-3.93h0ZM213.83,87.36c4.56-.16,5.44,1.75,4.57,5.66-.2.89-.19,1.67-.09,2.54.21,1.85.32,3.72.29,5.61-.04,2.33.09,4.63.63,6.86.06.27,0,.57,0,.94-.27.28-.53.7-.89.89-1.71.88-3.3,2.1-5.28,2.2-2.28,1.11-4.54,2.21-6.82,3.32-.4.19-.8.38-1.21.56-.53.24-1.06-.11-1.56-1.06.27-.3.54-.64.85-.94,1.26-1.29.59-3.47-.73-4.02-.65-.27-1.28-.57-2-.89-.32-1.07-.56-2.18-.98-3.22-.37-.91-.99-1.69-1.41-2.58-1.07-2.29-2.12-4.6-3.1-6.93-.13-.3.15-.8.24-1.19.39,0,.69-.07.96-.01.74.16,1.52.14,2.06-.43,1.62-1.7,3.63-2.62,5.75-3.32,3.09-1.03,6.11-2.22,8.71-3.97h0ZM90.31,47.05c.09-.12.24-.23.27-.36.62-3.03,1.02-6.05,1.01-9.11,0-2.25.27-3.45,1.23-6.47.32-.25.66-.56,1.04-.77,1.02-.58,2.04-.41,2.66.47.56.79,1.04,1.64,1.51,2.39.19.13.29.25.43.28,1.77.38,2.64,1.48,2.59,3.34-.02.72.02,1.45.02,2.17,0,3.33.02,6.66-.02,9.99,0,.56-.28,1.13-.39,1.7-.07.4-.08.81-.1,1.14.33.25.52.5.77.58,1.2.37,2.42.7,3.67,1.06.34-.39.81-.69.88-1.05.22-1,.36-2.02.38-3.03.06-2.34.8-4.61,1.23-6.91.33-1.7,1.34-2.54,3.35-3.23,1,.42,2.07.78,3.06,1.31.72.38,1.33.97,1.82,1.34.82,2.25,1.13,4.35.97,6.57-.09,1.3-.09,2.63.09,3.9.24,1.77-.3,3.14-1.78,4.23-.11.08-.16.25-.25.37-.3.4-.06,1.24.43,1.45.38.16.78.37,1.19.36,1,0,2.02-.12,3.03-.21.6-.06,1.13-.29,1.49-.87.2-1.13.46-2.28.6-3.43.2-1.59.45-3.2.45-4.78,0-2.75-.03-5.51-.31-8.23-.17-1.74-.24-3.42.15-5.17.12-.55.02-1.13.02-1.49-.9-.78-1.62-1.42-2.36-2.04-.42-.36-.84-.72-1.31-1.03-.6-.39-4.8-2.05-5.52-2.07-1.79-.05-3.29-.79-4.83-1.49-2.56-1.16-5.16-2.25-7.75-3.35-.52-.22-1.04-.5-1.59-.56-1.77-.18-3.13-1.23-4.72-1.96-2.3.43-4.5-.25-6.67-.35-1.1.96-1.58,2.03-1.62,3.23-.06,1.89-.05,3.77-.08,5.65-.03,1.59-.14,3.15-.5,4.76-.65,2.87-.88,5.78.27,8.66,1.29,1.13,2.63,2.35,4.39,3,.24.09.54,0,.81,0h0ZM126.84,102.22c2.96-1.42,5.87-2.5,8.58-4.14,2.7-1.63,5.55-3.01,8.68-3.15,2.54-.12,4.83-1.19,7.2-1.95.56-.18.97-.72,1.05-1.35.13-1.02.2-2.03.28-3.05.06-.73-.04-1.48.15-2.17.54-1.89.43-3.77.56-5.65.08-1.31.11-2.62.13-3.92.01-.88.13-1.74.5-2.57.58-1.3.38-2.57.11-3.84-.11-.51-.8-.97-1.3-.84-3.13.78-6.22,1.78-9.4,2.24-.71.11-1.39.48-2.09.72-2.65.93-5.23,2.09-7.92,2.91-1.84.56-3.54,1.53-5.23,2.49-.83.47-1.38,1.12-1.66,2.01-.35,1.12-.73,2.24-1.18,3.62.09,1.6,0,3.45-.33,5.35-.75,4.25-.34,8.4,1.09,12.34.09.25.35.42.79.94h0ZM215.13,141.96c-1.11-1.29-1.96-2.92-2.3-4.75-.46-2.45-1.53-4.54-2.82-6.56-.29-.45-.59-.94-.38-1.69.61-.24,1.31-.44,1.96-.77.8-.4,1.55-.89,2.32-1.35,3.2-1.92,6.49-3.64,9.85-5.23,1.34-.64,2.71-1.25,3.95-2.07,3.55-2.37,2.26-1.33,6.89-2.81.73.24,1.21.71,1.27,1.5.11,1.29.14,2.59.26,3.88.21,2.28.46,4.56.71,6.83.17,1.58.13,3.16,0,4.77-.12,1.45-.11,2.89-.15,4.34-.03,1.32.11,2.59.68,3.76.18.37.29.8.32,1.22.12,2.01.04,3.27-2.33,4.18-1.25.48-2.39,1.18-3.49,1.98-3.42,2.46-7.15,4.28-10.93,6.14-.34-.26-.8-.42-.96-.75-.68-1.39-1.44-2.76-1.86-4.25-.58-2.09-1.44-3.97-2.77-5.49-.08-1.01-.15-1.87-.23-2.9h0ZM123.05,28.54c-1-.35-2-.56-2.85-1.01-2.24-1.21-4.6-2.08-7.15-2.53-.28-.05-.58-.08-.82-.21-2.26-1.14-4.57-2.14-6.98-2.98-1.03-.36-1.88-1.2-2.8-1.81-1.43-.59-3.09-.57-4.42-1.4.1-.24.18-.68.31-.7,2.31-.42,4.49-1.29,6.65-2.32,1.06-.51,2.21-.84,3.34-1.12,2.71-.68,5.36-1.6,7.98-2.59,3.19-1.2,6.5-1.86,9.79-2.58,1.34-.29,2.58-.29,3.75.39.35.2.81.21,1.23.3.41-.23.83-.4,1.19-.66,1.05-.78,2.22-.95,3.33-.62,1.94.58,3.93.62,5.95.59.86-.01,1.75.05,2.54.31,1.64.55,3.33.63,5.08.51.58-.04,1.15.05,1.73,0,3.41-.29,6.54.65,9.73,1.39,1.19.28,1.84,1.2,2.23,2.33.16.46-.23,1.31-.7,1.48-.42.14-.83.33-1.25.4-2.76.43-5.4,1.39-8.06,2.26-.56.18-1.12.47-1.69.53-2.95.34-5.61,1.72-8.35,2.81-.82.33-1.61.68-2.48.9-3.27.87-6.32,2.46-9.51,3.57-.41.14-.81.39-1.16.66-1.23.99-2.55,1.43-4.08,1.4-.69-.02-1.41.37-2.5.69h0ZM126.73,32.26c-.08,1.11-.3,1.88-.16,2.54.42,1.99.53,3.96.11,6.02-.15.7-.04,1.44-.03,2.17.05,3.77-.24,7.53-.84,11.29-.07.43-.07.87-.09,1.31-.04.96.79,1.6,1.7,1.3.98-.33,1.95-.66,2.94-.97,1.69-.53,3.45-.85,5.05-1.59,1.77-.8,3.61-1.32,5.39-2.01.35-.13.63-.6.85-.96.15-.24.18-.57.18-.85.03-4.64.05-9.28.08-13.92,0-.57.03-1.16.1-1.73.11-.77.52-1.4,1.21-1.79.51-.3,1.06-.55,1.61-.72,1.13-.34,2.36-.41,3.37-.96,1.08-.58,2.27-.62,3.29-1.23,2.15-1.3,4.49-1.31,6.8-1.59.94-.12,1.65.36,2.13,1.13.46.73.68,1.55.7,2.43.05,1.74.1,3.47.12,5.21.02,1.87.46,3.67.12,5.61-.23,1.26,1.36,2.27,2.67,1.92.14-.04.29-.05.43-.1,2.22-.83,4.44-1.64,6.65-2.49,1.51-.59,2.55-1.78,2.84-3.26.73-3.71,2.04-7.4,1.47-11.21-.1-.69.04-1.45.18-2.17.24-1.17.31-2.33.13-3.47-.27-1.71-.21-3.44.01-5.19.14-1.11-.6-1.65-1.58-1.18-2.68,1.3-5.42,2.41-8.33,2.91-.43.08-.87.18-1.28.33-2.5.91-4.96,2-7.6,2.27-4.1,1.74-8.49,2.39-12.6,4.15-1.23.53-2.5.95-3.76,1.35-2.12.66-4.17,1.49-6.15,2.56-1.58.84-3.21,1.57-4.85,2.24-.79.33-1.68.39-2.85.65h0ZM128.93,122.74c-.1,1.18-.15,2.06-.24,2.93-.27,2.46-.66,4.92.06,7.31.2.65.09,1.44.04,2.16-.1,1.44-.27,2.87-.38,4.31-.22,2.75-.34,5.49,1.15,7.96.39-.13.81-.23,1.2-.4,1.09-.48,2.12-1.11,3.24-1.44,3.26-.97,6.33-2.41,9.37-3.99,1.97-1.02,4.07-1.89,6.18-2.41,1.9-.47,3.64-1.18,5.27-2.25,1.42-.93,2.94-1.42,4.52-1.76.71-.16,1.45-.18,2.16-.34.4-.09.78-.35,1.27-.58-.11-.73-.36-1.44-.27-2.12.12-.85.59-1.66.82-2.5.2-.7.38-1.43.4-2.14.07-2.9.07-5.79.12-8.69.02-1.16.09-2.32.18-3.48.07-.87.23-1.74.34-2.61.07-.58.14-1.16.18-1.74.07-.85-.56-1.46-1.29-1.17-1.8.73-3.7,1.09-5.55,1.24-2.08.17-4,.67-5.86,1.7-2.89,1.6-5.95,2.7-9.13,3.3-1.33.25-2.54.74-3.7,1.41-1.55.89-3.06,1.86-4.65,2.69-1.7.89-3.46,1.66-5.45,2.6h0ZM159.36,50.22c1.82.14,3.51-.16,5.2-.84,1.79-.72,3.61-1.34,5.43-1.94.83-.28,1.7-.41,2.25-.55,1.07.15,1.51.73,2.06,1.15.58.44,1.27.58,2.02.53.9-.06,1.73-.68,2.02-1.53.14-.41.18-.86.31-1.28.09-.28.24-.54.4-.89.38.06.86,0,1.15.2.67.5,1.21,1.17,1.86,1.68,2.09,1.64,4.12,3.37,6.54,4.56.63.31,1.08.88.83,1.81-.35.18-.74.49-1.14.55-1.44.22-2.89.26-4.29.89-.53.24-1.14.28-1.72.35-4.41.54-8.56,2.1-12.59,4.08-4.16,2.04-8.43,3.68-12.89,4.75-2.03.98-4.28,1-6.34,1.84-.72.29-1.42.28-2.14.23-.4-.03-.9,0-1.22.22-1.02.71-2.12,1.03-3.3,1.24-.86.16-1.73.37-2.55.68-4.3,1.61-8.65,3.07-12.9,4.86-1.43.6-2.63,1.37-3.24,2.9-.09.24-.42.4-.65.62-1.29.38-2.53.39-3.77-.13-2.33-.98-4.85-1.58-6.93-3.09-.44-.32-1.01-.54-1.56-.65-1.27-.27-2.39-.85-3.56-1.33-1.56-.64-3.26-.97-4.83-1.58s-2.99-1.57-4.69-1.91c-.56-.12-1.08-.5-1.62-.48-1.88.1-3.28-.86-4.71-1.74-1.45-.89-2.98-1.57-4.62-2.06-2.19-.65-4.2-1.62-6.11-2.84-1.88-1.2-3.83-2.39-6.23-2.47-2.85-.87-5.72-1.68-8.53-2.62-1.34-.45-2.58-1.12-3.84-1.75-.42-.21-.39-.65-.15-1.06,1.7-.47,3.4-.94,5.1-1.39.42-.11.87-.21,1.29-.19,2.21.07,4.34-.48,6.25-1.3,1.04.09,1.89.16,2.8.24,1.05-.48,2.12-.98,3.27-1.5,1.89.51,3.08,1.81,3.74,3.45,1.16.34,2.11-.43,3.14-.08,1.74.59,3.65.81,5.13,1.95,1.92,1.49,4.12,2.37,6.48,3,.82.21,1.58.6,2.35.94,1.54.68,3.04,1.47,4.62,2.06,1.06.4,2.13.73,2.96,1.53.3.29.65.56,1.03.73,2.56,1.17,5.11,2.35,7.71,3.44.78.33,1.69.24,2.55-.14.95-.42,1.91-.83,3.06-1.33,2.12-2.49,5.35-3.35,8.28-4.78,1.2-.59,2.5-.91,3.74-1.41,3.19-1.28,6.41-2.32,9.53-2.2,1.13-.46,1.82-1.04,2.32-1.81.58-.89,1.21-1.71,2.08-2.34.75-.55,1.56-.91,2.46-.75,1.12.2,2.24.44,3.2.63,1.09,0,1.77-.73,2.95-1.18h0ZM59.55,57.98c.35-.27.69-.53,1.08-.82,3.38,1.49,6.87,2.59,10.5,3.41,1.94.44,3.8,1.15,5.69,1.73,1.1.33,2.04.94,2.95,1.61,1.59,1.17,3.35,2.02,5.23,2.68,2.27.8,4.49,1.7,6.48,3.05,1.3.88,2.87,1.2,4.37,1.57,1.53.38,3,.85,4.4,1.51.51.24,1.01.54,1.55.66,4.07.94,7.59,3,11.27,4.75,1.4.67,2.77,1.35,4.35,1.6.68.11,1.31.5,1.94.81.54.26.84.78.9,1.35.21,1.86.38,3.72.51,5.59.05.71.05,1.46-.09,2.16-.69,3.37-.51,6.65.21,9.89.03.14,0,.29.01.43.06.49-.66,1.2-1.13,1.1-1.26-.27-2.49-.59-3.5-1.41-1.01-.8-2.17-1.33-3.49-1.4-1.19-.06-2.22-.47-3.25-.92-1.81-.8-3.69-1.37-5.66-1.76-1.67-.33-3.29-.87-4.92-1.35-.95-.28-1.85-.72-2.82-.94-2.1-.48-4.04-1.23-5.76-2.5-1.01-.76-2.2-1.22-3.44-1.58-2.32-.69-4.45-1.77-6.62-2.77-2.68-1.24-5.28-2.6-7.83-4.07-1.45-.83-3.08-1.38-4.6-2.12-2.65-1.3-5.27-2.66-7.91-3.97-1.27-.63-1.95-1.57-1.6-3.1.23-1.02.35-2.03.2-3.03-.38-2.58.25-5.21.23-7.82,0-1.42.48-2.87.75-4.34h0ZM121.12,107.93c1.51.23,3.21.48,4.73.71,1.38-.36,2.34-1.09,3.12-2.01.91-1.07,2.02-1.76,3.25-2.34,2.02-.95,4.04-1.88,5.94-3.1,1.13-.73,2.4-1.29,3.72-1.4,2.63-.23,5.19-.84,7.75-1.59.55-.16,1.15-.16,1.76-.23,2.41,1.27,4.98,1.8,7.81,1.71,2.31-.07,4.51.65,6.47,1.83.44.26.56,1.07.29,1.55-.46.82-1.09,1.45-1.97,1.74-2.11.67-4.22,1.33-6.35,1.94-.7.2-1.44.27-2.16.33-1.93.14-3.75.73-5.41,1.83-2.29,1.52-4.84,2.3-7.4,2.9-2.19.52-4.19,1.36-6.13,2.53-1.66,1-3.44,1.78-5.16,2.67-1.19.61-2.44,1.12-3.37,2.17-.63.71-1.56.84-2.34,1.25-1.13.59-2.31.65-3.38.21-1.96-.8-3.91-1.62-6.08-1.83-.27-.03-.56-.16-.77-.32-1.87-1.35-4.1-1.86-6.34-2.32-1.56-.32-2.98-.89-4.33-1.67-1.83-1.05-3.78-1.84-5.84-2.45-2.3-.68-4.54-1.51-6.65-2.68-1.59-.88-3.32-1.56-5.06-2.14-3.51-1.17-6.88-2.58-10.08-4.35-2.1-1.15-4.28-2.13-6.66-2.68-.41-.09-.83-.22-1.21-.4-2.04-.98-4.25-1.53-6.45-2.09-2.49-.64-4.83-1.62-6.99-2.96-2.65-1.65-5.43-2.93-8.65-3.22-1.17-.1-2.28-.53-3.06-1.33-2.17-2.22-4.75-3.9-7.29-5.64-.46-.32-.82-.73-.81-1.44.31-.24.64-.56,1.03-.74.39-.2.84-.33,1.27-.37,1.6-.2,3.14-.6,4.64-1.34,1.76-.86,3.65-1.19,5.53-1.49,1.47-.23,2.88-.17,4.2.5,1.27.64,2.65.89,4.1,1.05,1.7.19,3.31.75,4.84,1.53,1.63.82,3.34,1.48,5.02,2.21,2.33,1.01,4.71,1.92,6.75,3.45.44.33.94.61,1.46.83,3.5,1.49,6.79,3.42,10.5,4.45,1.12.31,2.1.8,3,1.48,3.31,2.5,7.2,3.75,11.28,4.59.97.2,1.95.41,2.94.54,1.87.24,3.56.85,5.16,1.8,2.28,1.37,4.72,2.43,7.43,2.93,1.1.2,2.18.67,3.14,1.22.96.54,1.76,1.34,2.78,2.15h0ZM123.27,154.73c1.11-.08,2.11-.15,2.92-.21.94-.5,1.17-1.18,1.3-1.93.11-.62.44-1.07,1.04-1.31.39.17.76.41,1.17.48.41.07.88.07,1.27-.07.55-.21,1.05-.55,1.56-.88.76-.5,1.56-.85,2.42-1.11,3.54-1.07,6.98-2.4,10.25-4.28,2.47-1.41,5.17-2.23,7.87-2.99.71-.2,1.45-.36,2.08-.72,2.79-1.64,5.86-1.92,8.87-2.52.86-.17,1.74-.17,2.6-.33,1.65-.31,3.08-1.01,4.03-2.56.22-.37.54-.69.76-.95.88-.33,1.49.18,2.19.24.57.05,1.15.02,1.72.09.71.09,1.4.24,2.09.4.55.13,1.08.29,1.51.41.26.55.35,1.01-.11,1.26-.91.5-1.87.9-2.82,1.33-2.98,1.35-5.96,2.68-8.93,4.06-.82.39-1.61.8-2.49.9-1.04.13-2.04.45-2.89,1.08-1.98,1.47-4.27,2.07-6.48,2.86-1.94.7-3.97,1.11-5.94,1.76-3.51,1.16-6.99,2.36-10.32,4.09-2.25,1.17-4.7,1.8-7.14,2.2-1.32.22-2.57.57-3.81,1.08-.96.39-1.93.76-2.92,1.08-.84.27-1.71.45-2.66.7-.6-.1-1.3-.21-2.1-.34-.71.4-1.47.85-2.4,1.38-.42-.09-1.02-.12-1.5-.36-1-.51-1.91-1.18-2.9-1.71-1.11-.6-2.2-1.37-3.42-1.64-3.13-.7-5.76-2.32-8.4-3.89-1.82-1.08-3.66-2.08-5.65-2.82-2.79-1.04-5.5-2.22-8.1-3.64-1.11-.61-2.28-1.06-3.53-1.39-2.46-.68-4.82-1.61-7.31-2.24-1.77-.45-3.39-1.38-4.94-2.36-2.2-1.39-5.41-2.61-8.17-3.34-.54-.15-1.06-.38-1.56-.62-.38-.18-.7-.46-1.08-.66-2.09-1.13-3.79-2.89-6.22-3.51-2.2-.56-4.24-1.55-6.42-2.2-2.71-.81-5.3-1.98-7.89-3.1-1.82-.79-3.62-1.58-5.67-1.7-1.04-.06-1.93-.52-2.77-1.01-3.02-1.81-6.27-3.2-9.54-4.53-2.38-.96-4.43-2.43-6.61-3.7-1.08-.63-2.02-1.47-3.13-2.29-.02-.66-.12-1.37-.03-2.08.05-.38.34-.93.66-1.09,1.07-.51,2.18-.97,3.31-1.28,1.7-.47,3.44-.79,5.15-1.2,1.28-.3,2.56-.63,4.23-1.05.38-.03.93.43,1.55.74.37.19.81.41,1.2.36,1.9-.24,3.35.54,4.66,1.65.66.56,1.43.89,2.26,1.11,2.25.58,4.17,1.74,5.93,3.14,3.03,2.4,6.44,3.97,10.31,4.66,1.01.18,1.89.54,2.76,1.01,2.72,1.47,5.44,2.92,8.32,4.11,1.82.75,3.56,1.7,5.26,2.68,1.36.78,2.8,1.33,4.32,1.7,1.38.34,2.76.69,4.16.98,1.43.29,2.7.83,3.85,1.68.9.66,1.83,1.31,2.8,1.87,1.21.71,2.41,1.5,3.74,1.94,3.8,1.25,7.23,3.16,10.63,5.15,1.22.72,2.46,1.32,3.85,1.7,1.8.48,3.39,1.37,4.7,2.7.99,1,2.09,1.83,3.43,2.39.77.32,1.46.84,2.06,1.41,1.97,1.84,4.19,3.26,6.75,4.21.4.15.75.41,1.16.51,1.47.35,2.46,1.27,3.13,2.52h0ZM123.36,147.64c-.37.2-.61.41-.86.44-.27.04-.58-.03-.83-.14-2.61-1.11-5.11-2.4-7.12-4.39-.81-.81-1.72-1.39-2.81-1.79-.79-.28-1.56-.69-2.21-1.19-2.24-1.74-4.83-2.84-7.46-3.87-.79-.3-1.6-.61-2.28-1.08-2.67-1.86-5.69-3.05-8.68-4.3-2.21-.94-4.37-1.91-6.37-3.25-2.68-1.81-5.6-3.17-8.88-3.83-2.23-.45-4.33-1.31-6.25-2.51-2.5-1.56-5.28-2.64-8.02-3.75-1.31-.53-2.61-1.06-3.78-1.85-1.17-.79-2.51-1.26-3.91-1.58-.55-.13-1.1-.3-1.65-.41-2.68-.59-5.13-1.59-7.19-3.39-1.8-1.57-3.96-2.64-6.12-3.68-1.14-.56-2.27-1.13-3.39-1.7-1.27-.65-2.29-1.6-3.24-2.64-.89-.96-1.43-2.07-1.51-3.42-.1-1.73-.22-3.46-.26-5.19-.04-1.59,0-3.19.04-4.78.01-.42.18-.84.27-1.24.19-.06.34-.16.45-.14,1.55.34,2.86,1.12,4.06,2.08.77.61,1.49,1.28,2.17,1.98,1.11,1.13,2.45,1.78,3.98,2.27,2.83.9,5.59,1.96,8.46,2.77,2.04.57,3.97,1.5,5.82,2.5,2,1.07,4.1,1.84,6.34,2.33.7.15,1.37.38,2.06.53,3.79.86,7.19,2.54,10.57,4.27.88.45,1.78.85,2.61,1.38,2.86,1.83,6.06,2.97,9.3,4.02,1.76.57,3.45,1.23,5.08,2.07,1.76.9,3.58,1.62,5.55,2.07,2.09.47,4.05,1.29,5.84,2.43,1.56.99,3.28,1.53,5.11,1.96,3.75.88,7.26,2.31,10.57,4.21,1.33.76,2.81,1.27,4.22,1.9.96,2.56,1.59,5.88,1.24,7.95-.65,3.78-.66,7.55-.79,11.33-.02.57-.07,1.14-.11,1.65h0ZM138.74,187.96c-1.22,1.34-2.81,2.11-4.49,2.71-2.23.79-4.47,1.56-6.73,2.34-2.01,1.44-3.83,3.21-6.04,4.4-.84-1.79.22-3.27.65-4.77-.09-.45-.09-.93-.27-1.28-.7-1.32-.71-2.76-.49-4.22.22-1.45.22-2.89.32-4.33.06-.89-.03-1.72-.1-2.59-.14-1.72-.3-3.43-.14-5.19.12-1.44.21-2.91-.05-4.33-.08-.42-.09-.87-.04-1.3.32-3.44,1.06-4.7,3.76-6.03,2.82-1.38,5.78-2.32,8.76-3.16.99-.28,1.99-.57,2.99-.76,1.03-.2,1.96-.58,2.9-1.08,1.71-.91,3.45-1.75,5.2-2.57.67-.31,1.38-.51,2.09-.72,7.08-2.06,14.06-4.5,20.87-7.52,1.9-.85,3.82-1.64,5.62-2.72.61-.36,1.39-.43,2.1-.57.52-.1,1.15.42,1.22.95.09.71.21,1.42.2,2.14-.01,1.45-.09,2.91-.17,4.36-.15,2.91-.35,5.81-.24,8.71.05,1.43-.27,2.9-.42,4.36-.11,1.02-.33,2.05-.29,3.05.08,2.05-.68,4.04-.81,6.07-.04.6-.54,1.07-1.09,1.35-.53.27-1.11.41-1.65.62-1.37.56-2.82.98-4.09,1.73-2.11,1.25-4.35,1.9-6.67,2.24-1.03.15-2.03.35-2.97.8-1.75.83-3.54,1.6-5.18,2.62-2.85,1.77-5.9,2.77-9.07,3.45-1,.21-1.98.59-2.98.82-.85.2-1.72.28-2.67.43h0ZM116.25,189.1c-.3.07-.63.26-.82.17-.51-.22-.99-.53-1.44-.86-1.91-1.41-3.81-2.85-5.72-4.28-1.35-1.01-2.8-1.81-4.46-2.32-2.44-.75-4.83-1.6-7.46-1.77-2.04-.13-3.88-.89-5.49-2.09-1.47-1.1-3.04-2-4.82-2.56-.8-.26-1.52-.73-2.3-1.05-1.56-.65-3.11-1.28-4.78-1.71-2.89-.74-5.69-1.74-8.11-3.52-2.15-1.58-4.64-2.62-7.06-3.77-1.13-.54-2.37-.92-3.6-1.25-3.15-.86-6.34-1.6-9.47-2.51-3.69-1.06-7.27-2.41-10.68-4.09-2.92-1.45-6.01-2.42-9.25-3.02-1.11-.21-2.16-.67-3.25-.97-1.36-.38-2.55-1.21-4.08-1.15-.41.01-.84-.18-1.21-.38-2.58-1.42-5.36-2.5-7.8-4.17-2.31-1.58-4.66-3.11-6.98-4.69-.72-.49-1.15-1.21-1.3-2.1-.05-.28-.12-.56-.14-.85-.28-4.17-.6-8.34-.83-12.51-.11-2.02-.12-4.02.66-6.05.41-1.07.32-2.3.47-3.46.06-.43.86-1.09,1.27-1.09,1.49-.04,2.84.37,4.1,1.02,1.88.97,3.78,1.9,5.57,3.01,3.96,2.42,8.1,4.49,12.48,6.11.67.24,1.28.6,1.9.92,2.15,1.08,4.41,1.88,6.77,2.45,2.63.63,5.23,1.35,7.66,2.49,1.15.54,2.27,1.11,3.4,1.69,1.13.57,2.18,1.32,3.38,1.72,3.91,1.29,7.51,3.24,11.37,4.63,1.33.48,2.6,1.11,3.85,1.74,3.27,1.65,6.56,3.24,10.18,4.13.82.2,1.59.6,2.31,1.02,1.48.83,3.03,1.48,4.66,1.99,1.75.56,3.45,1.25,5.03,2.19,1.08.64,2.24,1.19,3.4,1.69,2.6,1.1,5.17,2.25,7.51,3.82,1.05.7,2.26,1.1,3.51,1.44,3.2.87,5.83,2.77,8.54,4.51.7.45,1.24,1.12,1.84,1.71,1.2,1.16,1.53,2.62,1.29,4.33-.76,5.25-.77,10.45-.07,15.61.17,1.27.35,2.56-.06,3.86h0ZM194.33,168.07c-.23-.12-.58-.19-.68-.39-.32-.62-.64-1.27-.79-1.95-.39-1.81-.69-3.64-1.04-5.5.25-.35.43-.88.76-1.04,1.73-.86,3.45-1.8,5.26-2.4,3.37-1.12,6.59-2.64,9.85-4.05,1.22-.53,2.48-.99,3.74-1.37,1.51-.46,2.76.04,3.12,1.4.52,1.95,1.54,3.61,2.37,5.07-.13.95-.41,1.48-1.03,1.68-.97.33-1.96.71-2.95.87-2.16.35-4.31.76-6.45,1.36-1.27.36-2.58.63-3.88.72-2.22.15-4.28.95-6.35,1.75-1.46.56-2.1,1.59-2.01,3.08.01.29-.01.58-.02.87.82.21,1.64.42,2.42.63,1.18-.4,2.3-.77,3.41-1.15.42-.14.82-.4,1.25-.47,3.47-.61,6.83-1.78,10.24-2.67,2.31-.59,4.61-.44,6.78-.55.65.34.97.77,1.1,1.36.09.39-.11,1.03-.39,1.16-.41.18-.81.46-1.22.52-3.67.55-7.05,2.12-10.44,3.65-1.08.48-2.17.95-3.25,1.46-1.62.76-3.27,1.37-5.04,1.63-.85.12-1.67.56-2.61.9-.23-.21-.7-.41-.81-.75-.61-1.88-1.24-3.77-1.34-5.81h0ZM188.68,186.97c-.75.05-1.62.13-2.49.18-2.64.15-2.48-.09-3.7-2.27-1.61-.84-3.62-1.15-5.33-2.15-.55-.32-1.39-.3-2.09-.23-1.89.17-3.77.39-5.64.72-1.58.28-3.16.71-4.71,1.16-2.26.66-4.51,1.39-6.75,2.12-1.97.63-3.87,1.43-5.75,2.35-3.07,1.5-6.1,3.09-9.36,4.14-1.96.64-3.86,1.52-5.78,2.31-2.08.86-4.01,1.98-5.43,3.85-.18.23-.46.38-.85.69-.41.01-.98.08-1.53.03-2.22-.17-4.3.21-6.3,1.5-1.24.8-2.63,1.38-3.86,2-2.3.19-3.94-.94-5.62-1.93-.6-.36-1.05-.93-1.61-1.35-.56-.42-1.12-.86-1.76-1.13-2.23-.95-4.16-2.32-5.95-3.9-1.47-1.3-3.1-2.36-5.03-3.01-1.74-.6-3.31-1.54-4.61-2.87-.58-.59-1.33-1.01-2.06-1.43-2.3-1.35-4.64-2.62-6.8-4.19-2.04-1.48-4.36-2.57-6.75-3.47-3.71-1.39-7.33-2.93-10.83-4.77-1.73-.91-3.68-1.44-5.87-2.27-.15-.12-.57-.49-1-.84-1.98-1.57-4.07-2.97-6.55-3.73-.54-.17-1.06-.41-1.56-.66-3.9-1.98-8.05-3.39-12.25-4.71-2.15-.69-4.27-1.51-6.39-2.29-3.45-1.27-6.87-2.61-10.33-3.84-1.19-.42-2.49-.58-3.72-.93-.73-.21-1.42.12-2.1.15-.92-.17-1.53-.77-2.2-1.26-1.81-1.33-3.57-2.71-5.42-3.98-1.03-.71-2.17-1.28-3.31-1.83-.63-.3-1.38-.37-2.01-.67-1.65-.78-3.26-1.63-4.84-2.42-.21-.49-.14-.87.22-1.22.21-.21.39-.44.66-.75-.46-.97-.94-1.98-1.43-2.99,0-3.01.5-6.05.19-9.07-.13-1.28-.14-2.63.06-3.91.56-3.65.52-7.26.53-10.89,0-.44.05-.88.03-1.31-.07-1.63.3-3.19,1.26-4.97.5-.51,1.21-1.28,1.99-1.99.67-.62,1.46-1.05,2.33-1.29,1.56-.43,3.13-.85,4.68-1.31.84-.25,1.74-.45,2.5-.88,1.86-1.08,3.86-1.56,5.87-1.92,1.77-.32,3.36-1.11,4.99-1.81.67-.29,1.38-1.47,1.29-2.22-.54-4.44-.22-8.96-.34-13.44-.02-.58-.01-1.17.08-1.74.07-.43.22-.89.46-1.24,1.13-1.63,2.44-3.03,4.45-3.56.85-.22,1.65-.63,2.48-.96.55-.21,1.1-.52,1.66-.62,4.04-.72,7.94-2.16,11.98-2.88,1.43-.26,2.82-.82,4.13-1.22.55-.52.68-1.09.63-1.67-.27-3.18-.11-6.37.47-9.56.08-.43.24-.91.13-1.29-.46-1.58.33-3.19.13-4.9-.24-.67-.53-1.46-.83-2.26.13-.44.18-.89.4-1.27.5-.91.94-1.88,2.17-2.69.67-.19,1.65-.45,2.64-.76.7-.22,1.48-.36,2.07-.76,1.7-1.15,3.57-1.38,5.46-1.61,1.3-.16,2.6-.33,3.91-.42,2.33-.16,4.62-.55,6.92-1.12,1.27-.31,2.6-.31,3.9-.51.4-.06.77-.33,1.12-.49-.16-.94-.32-1.77-.44-2.63-.12-.86-.1-1.71.19-2.59.91-2.7.79-5.5,1.29-8.24.06-.29.02-.59-.03-.87-.44-2.27-.36-4.59-.37-6.91,0-.87-.16-1.72-.21-2.26.17-1.45,1.15-2.06,1.69-2.95.54-.89.99-1.85,1.6-2.68.33-.45.93-.72,1.32-1.02,1.41.04,2.65.25,3.92-.55.57-.36,1.42-.36,2.12-.34,2.34.06,4.61-.35,6.88-1.16,1.39-.5,2.84-.79,4.26-1.17,1.84-.48,3.69-.96,5.54-1.43,1.71-.44,3.44-.79,5.13-1.32,1.54-.48,3.05-1.15,4.57-1.72,1.95-.73,3.91-1.35,5.95-1.65,2.46-.37,4.88-1.05,7.23-1.97.41-.16.83-.38,1.25-.44,2.21-.28,4.21-1.21,6.17-2.33,1.03.15,2.01.3,3.06.46.5-.17,1.05-.41,1.61-.54,1.65-.39,3.24-.3,4.51.72,1.01.81,2.18,1.24,3.34,1.74,1.68.72,3.25,1.69,4.98,2.28,1.59.54,3.36.64,4.99,1.09,3.42.94,6.83,1.89,10.47,2.07,1.14.06,2.27.33,3.36.64,1.18.33,2.25.27,3.29-.59.21-.17.52-.19.75-.27,1.51,1.26,3,2.51,4.59,3.83.41.67.44,1.59.21,2.41-.77,2.72-.71,5.51-1.37,8.24-.2.84-.26,1.77-.1,2.59.55,2.98.51,6.03.44,9.08-.01.57.09,1.14.14,1.65,1.45,2.48,2.83,4.93,4.89,6.85,3.57,1.98,7.13,3.95,10.33,6.48.17.14.57.13.79.01.15-.08.16-.45.21-.7.05-.28,0-.58.09-.85.16-.49,1.13-.83,1.48-.55.22.17.48.31.66.51.82.95,1.61,1.93,2.26,2.71.66,1.13.29,2.2.46,3.25.39.49.82,1.03,1.23,1.55.28,1.03.07,2.04-.08,3.05-.26,1.88-.45,3.77-.63,5.66-.12,1.33.08,2.58.64,3.77.54,1.14.97,2.33,1.43,3.44,2.49,1.91,5.19,3.36,7.94,4.79,2.86,1.48,5.46,3.42,8.14,5.2,1.08.72,1.9,1.74,2.1,3.05.2,1.32.76,2.43,1.26,3.6.72,1.69,1.27,3.42,1.43,5.34.15,1.85.63,3.66.64,5.56,0,2.6.85,4.78,3.5,6.55.52.16,1.57.57,2.66.85,4.27,1.07,4.33,1.12,7.12,3.38,1.2.97,1.63,2.26,1.59,3.76-.03,1.3-.27,2.58-.09,3.9.22,1.56.24,3.16.59,4.7.22.97.33,1.99.37,2.99.1,2.17.2,4.33.67,6.44.15.68.14,1.44.1,2.16-.16,3.37.45,6.61.95,9.87.13.86.73,1.28,1.86,1.36.57.04,1.18-.02,1.69.16.35.12.73.53.8.88.08.35-.1.9-.36,1.19-.38.44-.9.82-1.42,1.06-1.36.62-2.72,1.18-3.92,2.13-.46.36-1.04.57-1.59.81-4.07,1.82-8.13,3.66-12.21,5.44-2.48,1.09-4.74,2.49-6.63,4.56.05.43,0,.91.17,1.26.75,1.51,1.35,3.11,2.37,4.48.5.66.82,1.47,1.18,2.23.6,1.27,1.19,2.56,1.73,3.86.93,2.23,1.56,4.57,1.75,7.02.03.29,0,.59-.01.88-.03,1.12-1.23,2.21-2.42,2.1-.85-.08-1.68-.31-2.53-.47-1.06.15-1.89.78-2.7,1.48-1.49,1.27-3.06,2.4-4.92,3.07-.55.19-1.13.45-1.58.82-1.69,1.41-3.62,2.04-5.69,2.31-.57.08-1.14.26-1.79.41-.76.66-1.54,1.35-2.31,2.03-.3.05-.62.21-.86.14-1.87-.56-3.69-.2-5.54.52-.93.36-1.71-.06-2.31-.71-.28-.31-.53-.67-.68-1.06-.43-1.17-1.3-1.72-2.47-2.05-1.77-.51-3.49-1.16-5.77-1.94Z"/>
      <path class="cls-1" d="M219.16,176.46c-3.92,1.8-7,4.15-9.95,6.69-.45.39-.93.79-1.46,1.01-.35.14-.87.08-1.2-.1-1.09-.58-1.44-2.26-.71-3.38.32-.49.68-1,1.14-1.36,1.29-1.01,2.61-2,3.98-2.89,1.87-1.22,3.79-2.36,5.7-3.5.8-.47,1.65-.55,2.53-.41.82.12,1.45,1.16,1.1,1.95-.3.66-.72,1.28-1.13,2Z"/>
    </g>
  </g>
</svg>