<?xml version="1.0" encoding="UTF-8"?>
<svg id="Layer_2" data-name="Layer 2" xmlns="http://www.w3.org/2000/svg" viewBox="0 0 209.98 207.58">
  <defs>
    <style>
      .cls-1 {
        fill: #6d442f;
        fill-rule: evenodd;
      }
    </style>
  </defs>
  <g id="_Layer_" data-name="&amp;lt;Layer&amp;gt;">
    <g>
      <path class="cls-1" d="M93.05,178.48c.03.08.05.21.11.24.12.06.3.12.39.08.35-.17.29-.35-.13-.42-.12-.03-.24.07-.36.11h0ZM96.12,178.66c-.04-.08-.09-.22-.11-.21-.21.03-.42.09-.62.14.12.05.24.13.37.14.12.01.25-.04.37-.07h0ZM105.32,151.63c-.9-.21-1.27-.36-1.63-.36-.33,0-.45.24-.32.44.07.1.23.22.33.21.36-.04.72-.12,1.61-.29h0ZM124.96,182.94c.11-.06.21-.11.31-.17-.15-.2-.28-.42-.45-.59-.04-.06-.24-.05-.3,0-.07.07-.1.22-.08.33.04.3.23.44.52.43h0ZM117.32,169.76c-.27.58-.4.93-.59,1.23-.2.3-.18.55.17.66.32.1.55-.09.55-.42,0-.38-.07-.77-.14-1.47h0ZM113.03,162.85c-.04-.25-.02-.58-.17-.74-.16-.17-.53-.29-.75-.24-.52.13-1.01.36-1.5.58-.1.04-.16.22-.17.35-.01.06.11.2.18.22.85.26,1.66.26,2.4-.18h0ZM107.28,156.65c.19.81.71,1.22,1.51,1.15.44-.04.67-.38.75-.81.06-.35-.35-.77-.81-.85-.6-.1-1.1.02-1.46.51h0ZM102.34,143.56c.08-.61-.11-1.15-.55-1.6-.17-.18-.53-.35-.73-.29-.86.23-1.4.82-1.43,1.75,0,.2.27.54.47.62.89.33,1.7.33,2.24-.48h0ZM101.61,161.69c-.65.13-1.46.29-2.26.48-.38.09-.59.5-.54.97.04.39.57.84.93.77,1.21-.25,2.42-.5,3.62-.79.33-.08.36-.36.27-.67-.09-.29-.23-.52-.57-.58-.42-.08-.84-.11-1.45-.18h0ZM76.62,183.19c.21.19.41.5.65.56.42.1.87.11,1.27.04.65-.1.96-.62.73-1.21-.21-.54-.61-1.06-.38-1.65.28-.71.9-1,1.63-1.11.14-.02.31,0,.41-.08.17-.11.3-.26.44-.4-1.21.29-2.02-1.62-3.34-.83-.49,1.38-1,2.82-1.5,4.26-.03.11.05.27.09.41h0ZM98.18,47.6c-.4.31-.84.48-.99.8-1.13,2.52-2.14,5.12-3.54,7.5-.14.23-.18.53-.29.78-.58,1.41-1.15,2.82-1.75,4.22-.6,1.4-1.24,2.79-1.83,4.19-.28.65.38,1.43,1.19,1.43.15,0,.29.03.44.03,1.87-.04,3.73-.12,5.61-.11,3.45.01,6.88-.16,10.29-.48.18-.02.28-.42.44-.69-1.17-2.39-2.36-4.78-3.51-7.2-.9-1.89-1.77-3.79-2.64-5.69-.82-1.78-1.92-3.37-3.4-4.8h0ZM119.15,83.88c0-.86-.49-1.46-.95-2.06-1.49-1.93-2.87-3.92-4.02-6.04-.43-.79-.9-1.57-1.31-2.37-.7-1.35-1.82-2.02-3.22-2.19-1.16-.15-2.33-.28-3.49-.3-5.22-.07-10.44-.13-15.66-.13-1.28,0-2.6,0-3.72.59-1.83,2.74-5.26,8.84-6.32,11.25-.05.12-.04.27-.07.41-.09.31.38.93.75.95.73.06,1.46.16,2.18.15,2.75-.04,5.49-.15,8.23-.17,2.46-.02,4.94.13,7.39.06,2.45-.07,4.9-.12,7.39.09,1.89.16,3.76-.05,5.66.31.42.08.88.08,1.28-.02,1.54-.38,3.14-.24,4.74-.17.4.02.78-.24,1.13-.36h0ZM115.33,156.19c-.45-.46-.96-.84-1.26-1.33-2.55-4.09-5.37-8.07-6.81-12.57.35-.83,1-1.12,1.71-1.2,2-.23,4-.4,6.01-.56,1.72-.14,3.49.06,5.17-.31.41-.09.86-.05,1.3-.02,3.06.19,6.12.38,9.18.62,1.61.14,3.19.09,4.78-.02,2.42-.16,4.79-.6,7.32-.27,1.41.19,2.85-.24,4.28-.37,1-.09,2.01-.16,3.01-.18.71,0,1.44-.19,2.4.38.43.27.77.97,1.12,1.62,1.9,3.6,3.98,7.11,6.19,10.56.32.5.54,1.08.73,1.63.08.25-.05.54-.11.88-.36.11-.75.31-1.15.33-3.02.16-6.1.03-9.03.7-2.65-.35-5.18.21-7.78.24-2.61.01-5.23-.06-7.84-.09-4.65-.07-9.3-.16-13.95-.2-1.74-.02-3.47.08-5.25.13h0ZM82.17,161.77c.16,1.26-.57,1.99-1.06,2.78-1.6,2.59-3.22,5.17-4.97,7.65-1.28,1.82-2.2,3.84-3.23,5.81-.55,1.05-.6,2.15-.11,3.33.17.41.35.83.49,1.25.15.46-.4,1.15-.92,1.18-.43.02-.86.04-1.29,0-.87-.07-1.74-.17-2.62-.29-1.48-.21-2.78.64-4.27.28-1.47-.35-2.9-.26-4.35-.23-1.73.03-3.46.04-5.18.17-1.55.12-3.14.32-4.75-.11-1.55.57-3.16-.1-4.74-.23-1.6-.13-3.2-.35-4.81-.46-.71-.05-1.43.03-2.14.09-3.01.25-6.02.49-9.07.38-.42-.01-.86-.13-1.29-.25-.28-.08-.42-.36-.36-.69.04-.28.11-.56.25-.79,2.08-3.59,4.05-7.25,5.7-11.09.89-2.05,2.35-3.75,3.55-5.6,1.42-2.18,3.62-2.86,6.3-2.52.71.09,1.43.79,1.4,1.51-.09,2.32.24,4.63.75,6.94.12.54.49,1.07.79,1.57.26.41,1.2.73,1.59.59.55-.2.99-.55,1.09-1.15.09-.55.18-1.15.05-1.7-.44-1.89-.35-3.76-.45-5.64-.02-.28.04-.56.07-.84.04-.44.66-1.15,1.07-1.15,1.01-.02,2.02-.09,3.03.03,1.6.19,3.19.51,4.84.79.24.38.61.73.67,1.11.44,2.6.8,5.21,1.2,7.8.09.58.21,1.15.38,1.72.08.27.29.52.47.76.39.51.91.8,1.53.77.49-.02,1.14-.54,1.19-1.01.08-.84.2-1.7.14-2.55-.11-1.88-.35-3.76-.45-5.64-.05-.86.07-1.73.22-2.56.1-.57.5-1.06,1.11-1.09,2.15-.11,4.32-.15,6.48-.19.51-.01,1.13.71,1.05,1.23-.12.84-.3,1.67-.42,2.52-.09.68.35,1.37,1.08,1.81.42.26.86.27,1.25.13,1-.37,1.53-1.21,1.74-2.2.21-.96.21-1.98.37-2.95.09-.59.49-1.03,1.07-1.16,1.81-.41,3.68-.38,5.56-.1h0ZM131.46,182.41c-.78-2.45-2.1-4.63-3.83-6.53-1.55-1.71-2.74-3.64-4.15-5.43-.18-.24-.44-.49-.5-.75-.79-3.29-3.29-5.69-5.07-8.46-.22-.34,0-1,.36-1.05.28-.04.54-.16.82-.16,1.58.01,3.17.05,4.8.08.25.46.59.83.64,1.21.27,1.74.59,3.46,1.09,5.19.33,1.12.33,2.31.52,3.46.12.72.33,1.43.52,2.15.11.4.97.91,1.46.9,1.11-.01,2.03-.78,1.96-1.76-.16-2.03-.35-4.06-.61-6.09-.19-1.45-.35-2.9-.27-4.25.26-.27.41-.59.65-.65,1.54-.37,3.13-.33,4.72.18.26.08.47.36.74.58.01.39.03.81.05,1.31.06.21.11.5.23.77.57,1.21,1.42,2.29,1.75,3.63.63,2.49.7,2.48.63,6.04.5,1.05.85,2.26,2.36,2.47.32-.21.71-.39,1.01-.67.51-.48.87-1.09.82-1.86-.13-1.74-.27-3.48-.46-5.22-.24-2.2-.97-4.3-2.17-6.28-.18-.29.2-.95.53-.96,2.59-.09,5.19-.19,7.78-.27.34,0,.88.5.94.85.15,1.01.31,2.02.43,3.03.24,1.89.42,3.77.72,5.66.09.55.44,1.1.76,1.6.57.91,1.95,1.07,2.66.34.38-.41.65-.88.68-1.49,0-.14.05-.29.01-.43-.7-2.77-.21-5.49-.52-8.24-.1-.91.58-1.56,1.57-1.58,2.03-.05,4.06-.1,6.09-.07,1.34.01,2.58.6,3.77,1.16.83.56,1.25,1.36,1.72,2.14,1.42,2.32,2.84,4.64,4.28,6.95.4.64.84,1.27,1.3,1.87,1.87,2.41,3.48,4.97,4.95,7.55-.06.67-.33,1.15-.97,1.21-1.58.13-3.16.31-4.75.25-2.34-.09-4.64.01-6.89.38-.86.14-1.7.16-2.59-.02-.42-.09-.9-.12-1.28,0-1.65.52-3.4.42-5.14.49-2.16.08-4.37-.17-6.43.53-.38.13-.86.06-1.29.06-2.18-.03-4.31.22-6.44.53-1.96.28-4.02.27-6.05.22-1.28-.03-2.58-.38-3.93-.59h0ZM86.57,156.58c-1.06-.06-1.9-.34-2.44-.09-2.48,1.16-5.26,1.14-7.95,1.43-2.85.3-5.75.31-8.59.72-1.41.2-2.87.14-4.06.2-1.04-.26-1.48-.93-2.04-1.42-1-.88-1.71-.92-2.69-.12-.53.43-1,.94-1.48,1.4-1.3.25-2.63.33-3.91.02-2.49-.61-4.95-.53-7.42-.65-1.02-.05-2.03-.04-3.05-.06-.88-.02-1.33-.27-1.49-.69-.24-.64.03-1.13.26-1.63.12-.25.28-.48.43-.71,1.94-2.89,3.32-6.09,4.39-9.45.38-1.21.83-2.37,1.51-3.44.71-1.1,1.63-1.88,2.95-2.14,3.78-.77,7.63-1.19,11.61-.68,2.49.32,4.92.45,7.35.02,1.67-.31,3.45-.27,5.18-.31,5.2-.12,10.41-.22,15.67.26,1.15.1,2.3-.06,3.44-.15.95-.08,1.62-.9,1.78-2.03.06-.47-.43-1.33-.87-1.43-.57-.14-1.15-.3-1.73-.31-3.19-.05-6.38-.03-9.58-.09-1.45-.03-2.91-.14-4.37-.27-2.33-.22-4.62-.32-6.9.16-1.51.32-3.14.33-4.73.3-4.51-.09-9.01-.26-13.51-.41-.64-.02-1.12-.31-1.36-1.12.49-1.93,1.36-3.82,2.32-5.66,2.31-4.44,4.61-8.89,6.88-13.34.5-.99.89-2.05,1.32-3.08,1.04-2.45,2.16-4.89,3.83-6.91,1.95-2.37,3.27-5.11,4.75-7.77,1.08-1.94,2.1-3.9,3.51-5.63.67-.84,1.1-1.89,1.63-2.83,2.02-.58,4.02-.68,6.07-.2.33.08.81.55.9.88.49,2.01.87,4.03.5,6.09-.33.21-.65.5-1.03.64-.79.28-1.63.44-2.42.74-1.32.5-1.69,2.24-.79,3.63.34.53.86.98,1.44,1.03,3.48.25,6.98,1.27,10.45.88.43-.05.86-.09,1.27-.17,1.37-.28,1.84-2.37.82-3.53-.63-.71-1.38-1.2-2.26-1.43-.57-.15-1.17-.21-1.73-.38-.44-.14-.81-.48-.86-.95-.12-1.01-.18-2.02-.24-3.03-.01-.28.02-.57.05-.86.09-1.14.18-2.27.27-3.37.27-.21.45-.47.71-.52.55-.11,1.12-.17,1.7-.15,2.47.08,4.94.18,7.42.31.57.02,1.18.1,1.72.31.38.15.68.55,1,.86.1.1.16.26.18.4.5,2.3.88,4.61.73,6.61-.53.92-1.17,1.19-1.83,1.42-.55.19-1,.52-1.23,1.05-.16.38-.23.8-.33,1.15.42,1,1.12,1.5,2.07,1.59.58.05,1.17.1,1.75.07,1.59-.06,3.17-.04,4.79.29,1,.2,2.05.23,3.05.16.69-.06,1.35-.37,1.98-.65,1.22-.55,1.04-2.05.34-2.96-.59-.74-1.36-1.24-2.26-1.42-.57-.12-1.16-.09-1.74-.16-1.06-.12-1.74-.67-1.97-1.56-.44-1.73-.67-3.46-.62-5.2.05-1.3.47-1.77,1.79-1.79,1.16-.02,2.32-.05,3.48.03.39.03.79.36,1.15.55.57,1.91,1.14,3.75,1.65,5.59.56,2.02.94,4.01.04,5.93-.22.46-.11,1.12-.05,1.7.09.77.52,1.38,1.24,1.77.8.44,1.68.9,2.52.67,1.42-.39,2.84-.17,4.29.05,1.09.16,1.98-.29,2.69-.99.28-.27.38-.71.55-1.03-.42-1.33-1.4-2.06-2.51-2.57-.67-.31-1.43-.39-2.13-.63-.93-.33-1.49-1.02-1.69-1.95-.12-.58-.23-1.16-.3-1.74-.15-1.45-.35-2.9-.88-4.31-.28-.75.29-1.71,1.09-2.04.26-.1.54-.16.82-.21.75-.12,1.42.09,2.03.65.91.84,1.58,1.84,2.16,2.92,1.3,2.38,2.67,4.73,3.85,7.17,1.64,3.39,3.67,6.59,5.61,9.82,1.09,1.8,2.28,3.56,3.25,5.44,1.31,2.53,2.64,5.06,3.95,7.6,1.46,2.81,2.98,5.58,4.97,8.12.83,1.06,1.46,2.28,2.18,3.43.19.31-.06.93-.37,1.07-.91.4-1.87.61-2.9.63-1.74.04-3.47.1-5.2.16-1.59.06-3.14.24-4.71.44-2.98.38-6,.54-9.1-.17-1.28-.29-2.62-.29-3.92-.3-3.92-.02-7.84-.05-11.75.06-1.58.04-3.11.42-4.68.6-.59.07-1.18-.11-1.54-.68-.5-.76-.94-1.55-1.41-2.32-.88-1.44-2.53-1.4-3.48-.85-.87.49-1.5,1.23-1.94,2.11-.31.62-.62,1.27-.74,1.96-.47,2.73-1.87,4.94-3.36,7.11-.56.8-1.04,1.63-1.37,2.56-.65,1.87-1.66,3.51-2.94,5-1.26,1.45-2.38,3.02-2.84,4.79h0ZM17.74,185.83c.94-.84,1.75-1.58,2.48-2.25.84-.16,1.53-.28,2.19-.41.47-.46.48-1.01.35-1.6-.25-1.21-.04-2.26.67-3.22.49-.66.85-1.43,1.18-2.19.57-1.29,1.32-2.42,2.2-3.5.96-1.17,1.92-2.39,2.57-3.76,1.77-3.8,4.07-7.27,6.01-10.96,1.03-1.97,2.08-3.93,3.05-5.94,1.39-2.89,2.72-5.8,4.39-8.53.86-1.41,1.42-3.02,2.07-4.56.6-1.41,1.13-2.85,1.93-4.16.72-1.18,1.42-2.36,1.76-3.78.19-.8.73-1.5,1.12-2.23,1.97-3.68,3.92-7.36,5.9-11.02,2.05-3.79,4.13-7.57,6.21-11.33,2.55-4.61,5.31-9.11,7.65-13.84,2.67-5.38,6.11-10.23,9.02-15.45.81-1.45,1.74-2.86,2.33-4.42,1.3-3.42,3.19-6.49,4.81-9.71.06-.12.12-.25.2-.36,3.09-4.63,5.14-9.85,7.36-14.96.61-1.41,1.34-2.75,1.96-4.16.34-.76.54-1.58.83-2.45-.32-.68-.62-1.36-.95-2.02-.87-1.75-1.87-3.45-2.43-5.32-.12-.41-.45-.77-.7-1.14-.3-.45-1.18-.81-1.56-.6-1.34.74-2.66,1.5-3.98,2.27-.6.35-1.17.74-1.79,1.05-.82.41-2.21.03-2.83-.73-.62-.77-.68-2.08-.15-2.86.49-.7,1.12-1.24,1.92-1.53,1.61-.57,3.02-1.45,4.36-2.44.62-.46.78-1.64.25-2.36-1.47-1.94-2.96-3.85-4.47-5.75-.46-.59-1.36-.69-1.96-.22-1.54,1.18-3.08,2.34-4.16,3.99-.68,1.03-1.51,1.98-2.26,2.97-.64.85-1.57,1.09-2.63,1.04-.65-.03-1.52-.74-1.67-1.34-.25-1.02-.24-2.02.09-3.11,2.07-2.62,4.82-4.74,7.18-6.94,1.32-2.26,1.07-4.55.47-6.89-.12-.47-1.04-.78-1.51-.54-1.27.67-2.24,1.63-2.9,2.88-.91,1.72-1.77,3.47-2.62,5.22-.63,1.3-1.59,2.27-2.93,2.83-1.1.46-2.25.32-3.36-.37-1.12-.71-1.5-2.1-.82-3.04.24-.33.46-.7.77-.97,1.77-1.58,3.15-3.45,4.3-5.53,1.54-2.8,2.09-3.23,5.13-5.27.36-.59.72-1.18,1.05-1.73.81-.68,1.77-.94,2.77-1.06.38-.04.96.14,1.22.41,1.33,1.46,2.77,2.88,3.8,4.52,1.28,2.04,2.67,4.07,3.38,6.37.55,1.75,1.49,3.26,2.64,4.7.66.84,1.33,1.73,1.7,2.68.6,1.57,1.48,2.94,2.62,4.2.82.91,1.39,1.95,1.85,3.1.6,1.52,1.4,2.98,2.26,4.76.25.66-.21,1.73.6,2.74.33-.14.85-.18,1.02-.46.65-1.06,1.24-2.16,1.76-3.3,1.15-2.54,2.26-5.1,3.37-7.66.78-1.8,1.69-3.52,2.89-5.05,3.17-4.03,5.76-8.46,8.09-13.06.51-.98.92-2.02,1.34-3.06.5-1.27,1.37-2.04,2.79-2.2.42-.05.83-.17,1.26-.22.55-.07,1.58.54,1.84,1.13.29.68.5,1.4.75,2.09,1.31,1.5,2.8,2.73,4.57,3.69,2.26,1.23,4.49,2.56,6.62,4.01,3,2.06,6.05,4.08,8.81,6.51.97.84.94,2.45-.02,3.5-.7.75-2.39.78-3.17-.12-1.23-1.45-2.74-2.39-4.38-3.19-1.64-.8-3.14-1.82-4.4-3.2-.3-.34-.65-.68-1.03-.9-3.04-1.7-5.94-3.67-9.08-5.13-.69-.32-1.55-.17-1.98.33-1.49,1.66-2.5,3.64-3.48,5.64-.21.43-.04,1.36.32,1.64,1.9,1.5,3.69,3.22,6.17,3.67.28.05.55.23.81.38.69.41,1.15,1,1.23,1.78.09.86-.5,1.73-1.27,1.96-.69.2-1.41.23-2.14.05-1.32-.33-2.53-.93-3.65-1.74-1.24-.89-2.45-1.82-3.88-2.23-.66.04-1.06.39-1.39.85-1.69,2.36-3.23,4.8-4.5,7.46-1.91,4.02-3.72,8.1-5.91,11.97-.47.83-.74,1.79-1.05,2.58.24,1.5.88,2.73,1.66,3.82,1.62,2.25,2.59,4.75,3.67,7.22,1.15,2.61,2.19,5.26,3.76,7.7,1.23,1.9,2.42,3.84,3.79,5.64.93,1.23,1.71,2.48,2.33,3.86.43.96.99,1.87,1.39,2.83.76,1.82,1.84,3.45,3.02,5.04,2.73,3.66,5.17,7.49,7.39,11.44.37.65.74,1.32,1.07,1.99,2.65,5.4,5.48,10.72,9.12,15.64.18.24.35.5.48.77,2.05,4.18,4.56,8.17,6.43,12.43.66,1.52,1.43,2.99,2.47,4.31,2.75,3.47,4.98,7.24,7.08,11.08,2.1,3.84,4.21,7.65,6.66,11.32,3.2,4.78,6.25,9.66,9.45,14.45.42.63.8,1.3,1.29,1.87,1.99,2.33,3.45,4.98,4.97,7.59.54.91.96,1.93,1.67,2.68,1.49,1.54,2.63,3.33,4.07,4.9.1.11.25.17.56.39.97.01,2.12,0,3.28.07,1.01.06,2.03.17,3.04.36,1.01.18,2.04.75,3.01.71,2.76-.07,5.53.9,8.28.63.28-.02.55-.11.84-.17.85-.47.93-1.71,2.28-2.04,1.04.24,2.34.48,3.61.87,1,.3,1.94.83,2.35,1.97-.42,1.32-1.6,1.85-2.76,2.29-1.32.48-2.73.76-4.2.74-1.32-.03-2.56.33-3.83.45-1.35.12-2.41.74-3.76,1.29-1.41-.23-3-.5-4.59-.74-1.6-.24-3.19-.45-5.36-.76-.15.04-.82.23-1.49.43-1.4.41-2.81.47-4.27-.16-.71-.3-1.48-.44-2.15-.22-2.31.76-4.87.4-7.04,1.07-1.02-.34-1.87-.63-2.88-.98-.7.08-1.55.21-2.4.27-.73.05-1.46,0-2.18.03-1.44.06-2.88.13-4.32.21-.29.02-.57.12-.86.11-4.23-.12-8.36.32-12.49.76-1.28.13-2.58.08-3.84.44-1.51.43-3.15.3-4.75.11-2.05-.25-4.06-.52-6.02.09-.78.25-1.72.06-2.59.12-1.72.11-3.48,0-5.1.64-.51.2-1.12.2-1.7.2-3.34,0-6.66.18-10.03-.21-.43-.05-.89-.2-1.3-.15-3.01.32-6.11-.46-9.1-.01-1.84.29-3.74-.12-5.61.19-1.8.3-3.75.09-5.64,0-2.18-.09-4.37-.4-6.54-.39-2.02.01-4,.33-6,.49-.57.04-1.17-.06-1.74,0-2.15.17-4.27.51-6.43.54-2.17.02-4.37-.23-6.56-.42-4.53-.39-9-.17-13.49-.12-2.33.02-4.64,0-6.98-.41-1.62-.28-3.15-.12-4.74.13-3.66.58-7.31,1.21-11.1,1.26-2.45.03-4.87.29-7.23.92-2.02.54-4.16.71-6.42.36-3.05-.48-6.12-.48-9,.47-.67.22-1.42.12-2.15-.15-1.09-.4-1.83-1.72-1-2.85.43-.58,1.04-.91,1.76-1.04,1.82-.34,3.62-.72,5.48-.92,1.27-.14,2.61-.15,3.9.07,2.09.35,4.07.24,6.25-.43Z"/>
      <path class="cls-1" d="M179.48,191.59c.99.31,1.83.95,2.62,1.69.72.67.68,1.7-.16,2.18-.96.55-1.96,1.05-2.79,1.49-1.66-.15-3.12-.28-4.57-.4-2.93-.27-5.81-.18-8.62.38-.42.08-.84.2-1.27.19-5.22-.15-10.38.43-15.66-.33-2.16-.3-4.36-.4-6.46.16-.68.18-1.42.18-2.14.21-2.16.12-4.3.23-6.39.71-1.65.38-3.44.36-5.19.03-2.8-.53-5.51-.42-8.22-.09-.99.12-2,.2-3,.25-2.88.16-5.76.22-8.59.73-2.09.38-4.31.26-6.46.39-1.87.11-3.72.39-5.59.37-1.73-.03-3.5-.48-5.23-.53-4.94-.14-9.87-.22-14.78-.03-2.29.08-4.59.39-6.94-.47-.68-.24-1.45-.14-2.18-.17-4.81-.22-9.59-.25-14.35-.02-1,.04-1.99.21-2.98.36-1.71.28-3.47.41-5.19.1-2.95-.54-5.8-.22-8.7-.32-.44-.02-.86.14-1.29.07-4.16-.6-8.04.29-11.97.99-.97.17-1.98.27-2.99.27-.35,0-.81-.35-1.11-.65-.67-.71-.75-1.79-.14-2.35.5-.45,1.06-.97,1.7-1.12,1.65-.39,3.34-.7,5.05-.84,3.73-.3,7.48-.36,11.26-.25,4.07.12,8.14.16,12.18.06,3.17-.08,6.35-.06,9.47-.59,2.4-.41,4.9-.39,7.38.05,2.78.5,5.54.55,8.28.57,5.66.03,11.31,0,16.96-.02.58,0,1.16-.03,1.74,0,2.61.14,5.27.54,7.82.37,2.44-.16,4.87-.33,7.34-.35.58,0,1.16-.03,1.72-.15,4.92-.98,10-.86,15.07-.87,1.88,0,3.77.06,5.66.03,1.44-.02,2.92,0,4.32-.26,3.8-.7,7.75-.52,11.59-.95.42-.04.87-.01,1.29.05,4.84.65,9.6.4,14.32.02,1.99-.15,4.1.4,5.98-.4,1.88.01,3.78.1,5.65,0,1.86-.09,3.68-.37,5.56-.57Z"/>
      <path class="cls-1" d="M82.16,207.49c-.38-.15-.7-.22-.92-.4-1.39-1.09-1.29-2.91.19-3.46.39-.15.79-.31,1.2-.37,1.27-.2,2.55-.4,3.83-.5.85-.07,1.75-.08,2.59.12,1.5.35,2.89.37,4.26-.12.26-.1.56-.13.84-.16,1.26-.15,2.28.36,3.14,1.37.45.53.5,1.57.03,1.98-.62.54-1.28,1.05-2,1.64-2.25-.24-4.53-.06-6.85-.49-2.21-.41-4.33-.05-6.31.4Z"/>
      <path class="cls-1" d="M159,164.18c.28-.58.35-.87.52-1.07,1.02-1.16,2.93-.88,3.6.58.37.79.68,1.66.78,2.5.1.85-.02,1.72-.17,2.55-.17.89-.79,1.41-1.69,1.61-.66.15-1.64-.36-1.81-.95-.08-.28-.21-.56-.23-.85-.14-1.58-.19-3.16-.99-4.37Z"/>
    </g>
  </g>
</svg>