<?xml version="1.0" encoding="UTF-8"?>
<svg id="Layer_2" data-name="Layer 2" xmlns="http://www.w3.org/2000/svg" viewBox="0 0 227.62 241.12">
  <defs>
    <style>
      .cls-1 {
        fill: #6d442f;
        fill-rule: evenodd;
      }
    </style>
  </defs>
  <g id="_Layer_" data-name="&amp;lt;Layer&amp;gt;">
    <path class="cls-1" d="M65.12,166.93c-.07-.07-.13-.17-.22-.19-.11-.03-.26-.02-.35.03-.21.14-.12.27.24.28.1,0,.21-.08.32-.12h0ZM33.03,165.83c-.8-.04-1.38-.18-1.91-.07-1.38.29-2.75.7-4.12,1.06.06.07.11.14.33.44,1.74-.4,3.8.24,5.69-1.43h0ZM207.98,191.82c-.14.34-.4.69-.32.81,1.45,2.15,2.81,4.38,4.47,6.35,1.59,1.89,2.98,3.88,4.27,5.96.68,1.1,1.46,2.15,2.27,3.16.35.42.9.72,1.4.97.18.09.52-.11.76-.22.07-.03.13-.25.09-.33-1.62-3.09-3.71-5.86-6.15-8.32-1.44-1.45-2.68-3.01-3.76-4.72-.54-.85-1.13-1.68-1.76-2.46-.35-.45-.83-.78-1.28-1.19h0ZM188.04,186.22c.29,0,.63.08.84-.06,2.33-1.46,4.38-3.25,6.08-5.42-.17-.49-.27-.91-.47-1.29-.2-.37-.47-.72-.75-1.04-.65-.75-1.94-.95-2.78-.44-.37.22-.72.47-1.05.74-1.48,1.25-2.39,2.87-2.9,4.72.21.98.32,2,1.04,2.78h0ZM78.04,187.51c-.76,1.96-.43,3.91.3,5.85.19.5.91.81,1.44.64,2.56-.83,4.43-2.67,6.43-4.32.32-.27.53-.68.74-1.06.51-.87,1-1.76,1.46-2.65.13-.24.15-.55.23-.82.08-.3-.47-.99-.75-.94-.27.04-.58.02-.83.12-2.68,1.08-5.34,2.19-8.21,2.71-.26.04-.5.29-.81.48h0ZM195.71,195.8c-.28-.05-.65,0-.81-.16-1.46-1.41-2.75-2.95-3.58-4.83-.05-.12,0-.28,0-.44,2.16-2.88,3.67-4.36,6.1-5.98.59.18.96.62,1.21,1.13.69,1.4,1.89,2.58,2,4.17-1.89,3.05-2.69,4.04-4.91,6.11h0ZM47.82,135.51c-.36.35-.74.6-.94.94-.48.88-.98,1.77-1.29,2.71-.82,2.45-1.55,4.93-2.31,7.41-.04.13-.04.28-.07.42-.07.27.38.9.68,1,1.7.58,3.44.09,5.16.21.71.05,1.38-.63,1.43-1.33.04-.57.04-1.15.1-1.72.34-3.12-.52-6-1.82-8.76-.16-.35-.59-.57-.94-.89h0ZM209.27,202.01c-1.57,2.41-2.24,3.17-3.78,4.39-.36.28-1.23.25-1.61-.1-.94-.88-1.98-1.69-2.77-2.68-2.86-3.58-3-2.91-.57-7.02.58-.98,1.07-2.05,2.16-2.6.8.06,1.32.55,1.76,1.12,1.66,2.16,3.31,4.33,4.82,6.89h0ZM80.75,217.42c-.57.57-.99,1.18-.77,1.96.81,2.94,1.27,5.94,1.41,8.98.02.43.05.9.23,1.27.17.35.56.58.83.83,1.23-.46,1.93-1.42,2.8-2.18.86-.76,1.73-1.51,2.6-2.27.81-2.95.38-5.82.09-8.7-.03-.27-.21-.53-.33-.8-.46-.98-1.55-1.42-2.56-1.04-.14.05-.29.06-.41.13-1.31.61-2.63,1.22-3.89,1.8h0ZM58.07,190.32c-.86,1.55-1.15,2.96-1.3,4.4-.24,2.49-.24,3.26,2.58,3,1.29-.13,2.64.05,3.88-.25,1.84-.45,3.7-.64,5.55-.91,1.43-.2,2.85-.5,4.25-.82.69-.16,1.36-.48,1.73-1.22-.56-1.91-1.11-3.84-1.67-5.75-.12-.1-.22-.23-.35-.28-.27-.1-.55-.21-.82-.2-.43,0-.87.04-1.29.16-3.64.98-7.33,1.61-11.12,1.62-.42,0-.84.13-1.47.24h0ZM26.15,196.46c.54-2.4.3-4.56-.13-6.69-.19-.91-.82-1.52-1.85-1.54-.87-.02-1.74-.01-2.6.08-1.32.15-2.64.16-3.89-.21-2.37-.7-4.9-.64-7.2-1.59-.8-.33-1.57-.75-2.35-1.13-.77-.38-1.23-1.26-2.19-1.32-.86.51-.95,1.42-1.11,2.24-.27,1.41-.49,2.86.18,4.24.33-.02.68.06.87-.08,1.56-1.11,2.96-.96,4.25.44.1.1.2.21.32.3,3.4,2.54,7,4.67,11.27,5.37,1.14.19,2.3.22,3.45.28.25.01.5-.19.99-.39h0ZM6.9,216.53c-.8.1-1.1.49-1.21,1.13-.27,1.59.51,3.11.2,4.74-.29,1.55-.25,3.16-.35,4.75,0,.14,0,.29,0,.43.06,1.25.55,2.3,1.71,2.81,2.76,1.25,5.56,2.42,8.35,3.61.25.1.57.14.84.09.27-.05.57-.18.75-.37.61-.66.8-1.54.94-2.38.49-3.02.4-6.05.11-9.09-.12-1.22-.94-2.07-2.2-2.39-.42-.1-.84-.21-1.27-.26-2.92-.39-5.64-1.29-7.88-3.09h0ZM52.97,190.56c-.45-.19-.83-.47-1.22-.49-1.73-.09-3.46-.07-5.18-.15-2.73-.13-5.45-.04-8.18-.46-2.27-.35-4.56-.54-6.81-1.07-.44-.11-1.22.58-1.21,1.02,0,.43-.03.86.04,1.28.29,1.71.5,3.42.35,5.17-.02.27.01.59.12.84.1.24.3.55.52.62.54.17,1.11.29,1.67.32,2.01.12,4.06,0,6.04.34,1.88.32,3.7.35,5.58.15,2.01-.22,4.03-.25,6.04-.39.59-.04,1.11-.27,1.6-.89.2-1.98.43-4.11.65-6.3h0ZM54.14,154.24c-.5-.69-1.02-.93-1.62-.93-3.19,0-6.37-.12-9.55-.46-1.17-.13-2.31.12-3.43.44-.48.14-.98.78-.98,1.3,0,.43-.02.87.01,1.29.36,4.48,1.11,8.89,2.42,13.21.56,1.85,1.43,3.46,2.47,5.02.41.63,1.09.95,1.85,1.01.72.05,1.45.06,2.17.06,1.29-.02,2.61.24,3.82-.4.96-.73,1.58-1.71,2.2-2.68.56-.88.85-1.85.9-2.88.04-.72.07-1.45-.02-2.17-.35-3.04-.22-6.08-.19-9.12.01-1.3-.04-2.59-.06-3.69h0ZM45.25,223.31c-1.08-.26-1.91-.51-2.77-.64-.86-.12-1.74-.07-2.6-.18-3.45-.41-6.94-.27-10.39-.84-1.7-.27-3.47-.15-5.2-.18-.71-.02-1.43.65-1.49,1.33-.08.86-.18,1.74-.15,2.6.06,1.89.12,3.75-.37,5.61-.21.82-.12,1.73-.12,2.6,0,.66.63,1.47,1.2,1.67,2.09.74,4.26.86,6.44.81,4.06-.1,8.1-.12,12.12.61.43.08.87.16,1.29.12,1.59-.15,3.11-.97,3.1-2.97-.01-1.74-.18-3.48-.08-5.21.1-1.79-.28-3.44-.98-5.33h0ZM51.21,223.42c-.63,1-.67,1.87-.66,2.73,0,2.89.03,5.77.06,8.66,0,.72.66,1.34,1.41,1.34,3.17-.01,6.35-.01,9.52-.07.86-.02,1.71-.23,2.55-.39,2.26-.43,4.51-1.12,6.79-1.27,2.06-.12,3.95-.68,5.85-1.31.92-1.54,1.23-2.18.9-3.19-.68-2.07-.72-4.26-1.34-6.33-.25-.82-.56-1.63-.87-2.44-.16-.43-1.02-.83-1.48-.64-1.75.74-3.55,1.18-5.45,1.07-.14,0-.3-.01-.44.04-1.94.79-3.98.53-5.99.62-2.3.09-4.61.3-6.91.28-1.35,0-2.55.33-3.94.89h0ZM5,194.06c.14-.01.33-.09.42-.03,2.4,1.64,5.08,2.75,7.67,4.01,1.82.88,3.77,1.49,5.66,2.22,2.33,0,4.54.9,6.88.93,1.44.02,2.88.24,4.33.38.13.02.24.15.37.23.72.72.12,1.67.64,2.94.03.06.34.55.62,1.05,1.09,1.92,1.8,3.95,1.73,6.2-.01.43.05.87.06,1.3.2,4.91-.09,4.78-4.85,4.55-2.88-.14-5.75-.71-8.61-1.15-1.29-.19-2.56-.48-3.83-.79-2.7-.67-5.25-1.59-7.27-3.67-.99-1.02-2.23-1.79-3.42-2.72-.05-1.16-.05-2.31-.17-3.45-.13-1.15-.53-2.27-.58-3.42-.14-2.75-.3-5.5.14-8.24.02-.12.14-.23.21-.34h0ZM74.65,169.33c.28-.05.57-.2.83-.15,2.13.39,4.25.83,6.31,1.53,1.79.61,3.45,1.5,5.08,2.46.99.59,1.96,1.22,2.75,2.27-.1.32-.15.74-.34,1.09-1.26,2.26-3.18,3.71-5.63,4.51-1.24.4-2.46.84-3.7,1.24-.68.22-1.38.44-2.09.57-3.12.59-6.24,1.21-9.35,1.85-5.43,1.12-10.92,1.28-16.43.84-1.59-.12-3.16-.17-4.76-.1-2.16.1-4.34.13-6.49-.37-.83-.19-1.72-.21-2.59-.19-2.77.06-5.43-.75-8.17-1.01-.69-.06-1.34-.51-2.15-.84-4.73,1.73-9.56.96-14.38-.2-.7-.17-1.41-.41-2.02-.78-1.48-.89-2.93-1.83-4.35-2.83-.45-.32-.76-.86-1.11-1.32-.23-.3-.21-.91.06-1.21.47-.54.91-1.15,1.49-1.56,2.37-1.66,4.69-3.39,7.5-4.32,1.64-.54,3.03-1.71,4.81-1.96.32-.05.57-.1.77.17-.24.99-1.46,1.44-1.47,2.56,0,.71.03,1.42.04,2.19,1.06,1.22,2.08,2.43,3.14,3.61.28.31.64.6,1.03.79,1.95.95,3.9,1.92,6.06,2.28,2,.34,4.01.65,6.02.91,3.16.4,6.33.76,9.39,1.72,3.41,1.07,6.9.73,10.35.41,1.59-.15,3.16-.31,4.75-.38,5.51-.22,10.45-2.14,15.01-5.13.36-.23.68-.55.98-.85.53-.53.8-1.19.8-1.95,0-1.65-.42-3.15-1.51-4.43-.35-.41-.83-.77-.63-1.42h0ZM54.62,202.64c2.12-.86,4.47-.73,6.71-1.05.23.29.51.5.54.74.32,2.74.85,5.43,1.66,8.07.31,1.01.18,1.98-.21,2.97-.2.52-.29,1.11-.32,1.68-.06,1.14,1.41,2.1,2.48,1.69,1.02-.4,1.75-1.06,1.88-2.18.29-2.47.24-4.92-.48-7.32-.47-1.54-.65-3.12-.53-4.72.05-.61.37-1.06.93-1.36.77-.43,1.57-.76,2.46-.79,3.22-.12,6.31-.81,9.28-2.04.27-.11.53-.29.81-.31,2.75-.23,4.86-1.74,6.92-3.39.2-.16.53-.19.81-.24.11-.02.31.06.34.14.51,1.2,1.13,2.47.78,3.73-.52,1.87-.37,3.73-.47,5.61-.09,1.59-.1,3.19-.19,4.78-.04.79-.5,1.38-1.19,1.69-4.23,1.88-8.47,3.75-12.72,5.58-4.05,1.74-8.34,2.39-12.7,2.61-2.17.11-4.35.1-6.52.18-1.16.04-2.33.05-3.46.27-1.73.33-3.46.35-5.2.25-2.45-.13-4.89-.51-7.35-.59-.59-.02-1.12-.26-1.51-.88.63-4.28-.16-8.55-.99-12.8-.11-.56-.2-1.13-.29-1.69-.04-.28.45-.97.71-1,.72-.08,1.44-.19,2.16-.19,3.77,0,7.54-.01,11.31.06,1.29.02,2.57.27,4.35.48h0ZM155.21,131.62c-.08-.22-.15-.44-.23-.65-.09.08-.18.15-.28.23.2.12.39.23.59.35-.21,1.27.49,2.27,1.15,3.19,1.35,1.89,2.74,3.73,3.7,5.87.29.65.81,1.2,1.26,1.76.63.8,1.29,1.58,1.94,2.34,1.23,1.43,1.27,2.85.05,4.3-.09.1-.09.27-.12.35,0,.35-.07.65.01.91.5,1.53.65,3.11.81,4.71.17,1.71,1,3.35.24,5.11-.15.35.03.86.13,1.28.36,1.58.32,3.18.2,4.77-.15,1.9-.06,3.77.32,5.63.18.87.25,1.69.08,2.57-.19.99-.22,2.01-.28,3.03-.13,2.02-.3,4.04-.49,6.05-.29,3.01-.64,6.08.31,9.07.26.82.24,1.71.08,2.59-.62,3.42-1.68,6.76-1.7,10.28,0,.27-.12.57-.23.84-.4.95-.38,1.99-.59,2.97-.31,1.43-.08,2.89-.39,4.3-.5,2.28-.58,4.6-.63,6.92-.02,1.01-.14,2.03-.23,3.28.45,1.87.94,3.99,1.46,6.1.1.42.23.83.37,1.24.3.89,1.42,1.61,2.4,1.56.14,0,.29.02.43-.01,1.41-.33,2.81-.66,4.22-1.01.45-.11,1-.83.99-1.32-.05-3.05.15-6.13-.26-9.12-.46-3.33-.47-6.64-.46-9.97.01-2.61-.07-5.22-.11-7.83-.01-.87-.01-1.74,0-2.61.18-7.98.18-15.95-.02-23.93-.1-3.92-.27-7.84.26-11.74.33-2.44.62-4.88,1.03-7.31.35-2.14.69-4.28,1.79-6.23.63-1.12,1.02-2.42,1.26-3.69.43-2.32,1.28-4.47,2.27-6.56,1.06-2.26,1.62-4.64,2.22-7.02.89-3.54.98-7.17.96-10.8,0-.27-.15-.55-.27-.81-.04-.09-.19-.17-.3-.19-.14-.02-.34-.04-.42.04-.83.85-1.29,1.92-1.57,3.04-.78,3.1-1.87,6.09-2.89,9.11-.32.96-.56,1.95-.89,2.91-.56,1.65-1.08,3.31-1.75,4.91-.57,1.39-2.38,2.66-4.33,1.77-1.36-.62-2.59-1.31-3.24-2.71-.48-.92.05-2.06-.99-3.31-.84-.71-1.98-1.84-3.29-2.75-1.45-1.02-2.46-2.45-3.75-3.6-.18-.17-.54-.14-.81-.2h0ZM33.48,150.32c1.41-1.45,2.53-2.8,3.85-3.91,1.64-1.37,2.62-3.09,3.23-5.05.78-2.49,1.55-4.99,2.19-7.52.45-1.78,1.24-3.23,2.8-4.23.23-.15.39-.42.71-.77.04-1.01.12-2.16.12-3.31,0-2.61,0-5.22-.09-7.84-.06-2.04.03-4.06.52-6.05.32-1.29.34-2.58.32-3.89-.07-3.05-.14-6.1-.17-9.14-.03-3.04.05-6.09.27-9.13.18-2.46.13-4.94.14-7.4,0-2.33.06-4.63.41-6.95.37-2.43.38-4.9.36-7.38-.04-3.91-.16-7.83.46-11.73.07-.43.14-.88.07-1.3-.5-2.91.1-5.78.19-8.67.1-3.19.21-6.38.29-9.57.05-1.74-.13-3.48.23-5.21.09-.42.13-.89.02-1.29-.57-2.06-.17-4.03.42-5.99.08-.27.07-.57.09-.83-.08-.79-.52-1.35-1-1.91-2.37-2.76-5.17-5.08-7.76-7.61-2.17-2.12-4.45-4.16-6.29-6.62-.68-.91-1.69-1.57-2.54-2.35-.94-.86-1.16-2.36-.55-3.6.44-.89,1.8-1.38,2.6-.9.5.29,1,.61,1.4,1.02,1.43,1.45,2.79,2.94,4.2,4.41.91.94,1.81,1.89,2.78,2.76,2.7,2.41,5.43,4.78,8.27,7.27.71.17,1.54.36,2.33.54.25.24.55.4.65.64.74,1.78,1.93,3.23,3.36,4.49,1.2,1.06,2.38,2.13,3.31,3.44.33.47.79.86,1.24,1.22,4.19,3.38,7.83,7.34,11.65,11.12,2.99,2.96,5.94,5.96,8.9,8.95,2.55,2.58,5.14,5.11,7.88,7.49,1.42,1.23,2.63,2.69,3.96,4.02.82.82,1.64,1.65,2.51,2.4,3.54,3.03,6.72,6.41,9.79,9.9,1.63,1.85,3.39,3.58,5.22,5.24,1.5,1.36,2.86,2.86,4.29,4.31.2.21.34.48.55.68,4.23,3.98,7.9,8.51,12.06,12.56.73.71,1.48,1.39,2.24,2.06,1.85,1.64,3.53,3.43,5.05,5.39,1.68,2.18,3.51,4.24,5.28,6.35.19.22.39.44.62.61,4.05,3.1,7.17,7.19,11.08,10.44,2.48,3.03,5.46,5.59,7.88,8.69,2.22,2.84,4.82,5.41,7.61,7.73.1.08.26.08.39.12.23-.17.57-.29.66-.51,1.19-2.79,2.64-5.48,3.24-8.51.11-.56.38-1.09.59-1.63.48-1.23.8-2.47.81-3.81.02-2.03,2.31-2.91,3.79-2.58.71.16,1.4.39,2.09.61.97.31,1.92.63,2.88.96.14.05.25.15.55.33.71,1.42.76,3.19,1.28,4.83.13.39.03.86-.03,1.29-.48,3.45-1.02,6.89-1.44,10.34-.14,1.17-.46,2.26-.85,3.35-.93,2.59-1.8,5.19-2.63,7.61.17,1.13.97,1.65,1.34,2.43.37.79.64,1.62.98,2.42.63,1.48,1.53,2.82,2.62,3.99,4.45,4.8,8.07,10.26,12.24,15.28,2.04,2.46,3.8,5.13,5.69,7.7,2.99,4.1,6.1,8.12,9.19,12.15.62.8,1.38,1.48,2.05,2.26,1.32,1.53,2.77,2.99,3.91,4.65,2.49,3.59,5.32,6.87,8.46,9.89,1.73,1.67,1.76,3.28.16,4.89-.92.93-1.89,1.8-2.85,2.69-.85.78-2.37.95-3.24.33-1.41-1.01-2.81-2.05-4.18-3.12-.81-.62-1.39-1.46-1.89-2.36-.35-.63-.77-1.21-1.18-1.81-.16-.24-.87-.34-1.21-.25-.72.19-1.34.58-1.83,1.12-.49.53-.91,1.12-1.34,1.71-.34.46-.62.98-.99,1.42-.94,1.17-2.85,1.4-3.9.4-2.1-1.99-4.16-4.02-6.22-6.07-.61-.61-1.06-1.38-1.7-1.96-.64-.57-1.42-1-2.01-1.39-.17-.26-.29-.37-.32-.5-.91-3-2.91-5.31-4.8-7.69-.63-.8-1.39-1.47-2.3-1.96-.96-.52-1.45-1.39-1.6-2.45-.13-.9-.54-1.65-1.13-2.3-.29-.32-.6-.63-.91-.94-1.7-1.67-1.92-3.07-.26-5.38.68-.93,1.3-1.91,2.01-2.95,1.31-.98,2.71-2.02,4.09-3.07.5-.38.68-.9.55-1.71-3.82-3.59-6.7-8.14-9.94-12.4-.35-.46-.61-.98-.87-1.5-.34-.68-.36-1.4-.05-2.1.3-.66.63-1.3.92-1.91.03-1.11-.4-2.01-1-2.83-.08-.11-.49.02-.86.04-.28.93-.59,1.89-.85,2.86-.19.7-.31,1.42-.46,2.12-.48,2.27-1,4.53-1.43,6.81-.18,1-.21,2.03-.22,3.04-.01,1.59.07,3.19.07,4.79,0,1.01,0,2.04-.11,3.05-.39,3.8-.26,8.55.4,12.52.09.57.34,1.2.19,1.7-.46,1.59.27,3.15-.14,4.75-.68,2.69-.71,5.45-.43,8.21.2,2.03.11,4.06-.05,6.08-.4,5.23-.17,10.42.66,15.6.41,2.57.53,5.19,1.09,7.75.12.54,0,1.16-.12,1.72-.27,1.41-1.35,2.31-2.72,2.34-2.17.07-4.35.12-6.52.18-1.3.04-2.59-.03-3.86.43-.96.34-2.01.22-3.02,0-.74-.15-1.33-.52-1.78-1.13-.09-.28-.27-.54-.27-.81,0-2.33-.23-4.62-.68-6.91-.54-2.71-.42-5.49-.42-8.25,0-4.08.76-8.06,1.44-12.06.75-4.43,1.38-8.89,1.89-13.34.2-1.72,0-3.48-.01-5.22-.01-1.01-.08-2.03.03-3.03.56-5.07.46-10.14.28-15.22-.06-1.74-.23-3.48-.18-5.22.11-3.5-.33-6.95-.68-10.41-.03-.29-.03-.59-.13-.86-1.1-2.99-1.59-6.19-3.05-9.06-.46-.9-.92-1.82-1.3-2.76-.37-.93-.81-1.89-.93-2.87-.23-1.95-.97-3.62-2.17-5.14-.36-.45-.7-.93-.98-1.43-1.06-1.89-2.1-3.79-3.19-5.78.46-1.01.94-2.06,1.36-2.99.02-.75-.21-1.26-.62-1.71-2.71-3.03-5.41-6.06-8.12-9.09-.39-.43-.82-.83-1.17-1.3-3.74-5-8.04-9.53-12.17-14.21-.48-.54-.91-1.15-1.44-1.62-4.35-3.85-8.08-8.32-12.34-12.25-.64-.59-1.18-1.27-1.78-1.91-1.89-2-3.48-4.25-5.52-6.13-1.91-1.77-3.54-3.84-5.28-5.79-.58-.64-1.17-1.29-1.7-1.99-1.58-2.1-3.45-3.91-5.46-5.58-1.01-.83-1.93-1.76-2.87-2.67-2.19-2.12-4.39-4.23-6.54-6.38-1.13-1.13-2.18-2.33-3.27-3.49-1.29-1.38-2.48-2.88-3.91-4.09-3.35-2.8-6.27-6.04-9.47-8.99-3.62-3.35-7.3-6.63-11.19-9.67-.49-.39-1.02-.49-1.62-.24-.58.72-.65,1.6-.68,2.46-.07,1.74-.13,3.47-.44,5.2-.24,1.41-.1,2.89-.12,4.34-.02,1.74-.07,3.46-.45,5.18-.34,1.54-.39,3.16-.43,4.75-.11,3.77-.17,7.55-.2,11.31-.02,2.61,0,5.22.05,7.84.05,2.18.06,4.31-.6,6.46-.6,1.94-.42,4.03-.39,6.06.03,1.6.13,3.19.17,4.78.04,1.45.07,2.89-.44,4.3-.24.66-.27,1.42-.27,2.14,0,3.77.03,7.54.08,11.31,0,.72.16,1.43.21,2.16.05.56.18,1.17.06,1.72-.71,3.29-.55,6.63-.62,9.96-.06,3.77.11,7.55.2,11.32.01.43.07.86.1,1.21.08.21.1.37.18.49,2.73,4.41,4.18,9.22,4.23,14.41.03,2.79.14,3.31,3.09,3.4.43.01.85.13,1.28.22.8.19,1.45,1.06,1.48,1.94.02.74-.08,1.45-.51,2.07-.33.47-.7.92-1.07,1.39-.09.42-.21.84-.26,1.26-.07.57-.06,1.16-.14,1.73-.06.43-.23.84-.3,1.27-.07.43-.11.86-.1,1.29,0,.58.02,1.17.11,1.74.06.41.26.8.4,1.21,1.33-.12,2.6-.22,3.87-.36.59-.06,1.05-.38,1.5-.8.73-.69.78-.64,2.02-.76.37.32.81.69,1.22,1.08,1.39,1.35,3.04,2.15,4.94,2.58,2.83.64,5.59,1.55,8.42,2.19,2.87.64,5.4,2.08,8.12,3.09.4.15.76.43,1.11.69,2.62,1.95,4.34,6.6,3.44,9.74-.36,1.27-.52,2.56-.86,3.81-.39,1.42-.45,2.86-.41,4.31.13,5.37,0,10.73-.06,16.1-.05,5.22-.03,10.44,0,15.66,0,1.6.18,3.18.39,4.77.29,2.14.24,4.33.24,6.5,0,.54-.34,1.1-.57,1.63-.3.67-1.13,1.12-1.77.97-.97-.24-1.94-.53-2.85-.79-.49.26-.92.4-1.24.68-1.55,1.36-3.35,2.27-5.29,2.91-.82.27-1.63.61-2.44.93-3.24,1.33-6.58,2.19-10.12,2.26-2.18.04-4.33.29-6.43,1-1.24.41-2.52.54-3.85.17-.68-.2-1.44-.16-2.16-.1-2.61.22-5.22.14-7.83.18-1.16.02-2.32.08-3.46.25-1.31.19-2.6.28-3.89-.07-.86-.23-1.71-.13-2.58-.05-1.58.15-3.07-.63-4.72-.34-1.55.27-3.18.12-4.77.14-3.5.05-6.89-.81-10.32-1.36-.85-.14-1.7-.38-2.56-.46-1.62-.15-3.18-.6-4.54-1.41-1.53-.91-3.16-1.39-4.85-1.8-1.41-.35-2.78-.84-4.14-1.33-.53-.19-1.04-.52-1.5-.86-.59-.45-1.04-1.07-1.05-1.83,0-1.15.09-2.31.19-3.46.08-.86.4-1.71.36-2.56-.12-2.32.5-4.63.08-6.95-.64-3.59-.57-7.22-.62-10.84-.07-4.94-.34-9.87-.2-14.8.02-.87-.03-1.75.03-2.61.29-4.35.24-8.7-.09-13.05-.02-.29-.05-.58-.03-.87.05-.9.27-1.8,1.06-2.28,1.52-.91,2.64-2.25,3.89-3.45,1.06-1.02,2.24-1.85,3.6-2.4,4.16-1.7,8.29-3.46,12.62-4.72,1.25-.37,2.49-.81,3.68-1.33,2.17-.95,4.41-1.39,6.77-1.39.56,0,1.13-.21,1.68-.34.29-.07.78-.7.75-.98-.07-.72-.06-1.46-.27-2.14-.67-2.28-.68-4.57-.31-7.09Z"/>
  </g>
</svg>