<?xml version="1.0" encoding="UTF-8"?>
<svg id="Layer_2" data-name="Layer 2" xmlns="http://www.w3.org/2000/svg" viewBox="0 0 199.4 265.54">
  <defs>
    <style>
      .cls-1 {
        fill: #593826;
        fill-rule: evenodd;
      }
    </style>
  </defs>
  <g id="_Layer_" data-name="&amp;lt;Layer&amp;gt;">
    <path class="cls-1" d="M81.48,206.17c-.09-.06-.17-.16-.26-.17-.1,0-.21.07-.31.11.08.07.17.17.25.18.1,0,.21-.07.31-.12h0ZM76.58,116.56c-.08-.09-.18-.27-.26-.27-.24.03-.47.13-.7.21.22.09.45.21.67.27.09.02.2-.14.29-.21h0ZM98.09,93.18c-.06-.12-.12-.24-.19-.36-.08.07-.22.12-.24.21-.08.36.04.56.3.51.07-.02.09-.23.14-.35h0ZM30.4,88.17c-.08-.06-.18-.16-.28-.18-.1-.02-.24,0-.34.04-.37.14-.4.36-.05.51.18.07.43-.05.65-.11.04-.01.02-.17.02-.26h0ZM102.96,108.67c.1-.29.05-.6-.24-.68-.18-.06-.53.06-.67.21-.28.33-.06.91.29.85.22-.03.41-.25.61-.38h0ZM92.98,107.47c0-.26.02-.54,0-.81-.01-.13-.11-.37-.15-.36-.23.02-.52.04-.66.18-.17.18-.26.48-.28.73-.07.43.44,1.01.68.84.19-.12.28-.37.42-.59h0ZM145.3,105.81c-.2.12-.37.16-.43.27-.12.21,0,.43.31.56.27.11.55.16.8.28.32.17.61.15.7-.19.05-.19-.09-.58-.26-.66-.37-.17-.79-.2-1.13-.27h0ZM114.33,204.3c-.12-.19-.24-.39-.36-.58-.1.08-.24.14-.31.25-.13.24-.22.49-.34.75-.13.31-.06.57.26.7.31.12.56,0,.63-.31.06-.26.08-.54.12-.8h0ZM76.12,90.4c.2-.1.54-.18.57-.32.06-.21-.07-.51-.22-.69-.26-.31-.85-.19-.89.18-.03.21.1.45.2.67.04.09.21.1.33.15h0ZM110.6,234.17c.67-1.44.64-1.59-.25-3.42-.11,1.38-.55,2.41.25,3.42h0ZM120.94,109.93c0-.12.03-.27-.03-.34-.08-.11-.25-.23-.35-.21-.4.05-.82.1-1.18.27-.14.06-.15.45-.16.68,0,.08.19.21.31.23.58.08,1.08-.09,1.4-.62h0ZM102.21,151.46c.69-.1,1.27-.39,1.65-.99.08-.11.12-.28.08-.39-.1-.34-.34-.4-.63-.26-.48.23-.98.4-1.42.68-.1.07-.02.48.04.72.02.09.18.16.28.24h0ZM68.44,107c-.3-.04-.57.08-.62.4-.06.39-.01.8.02,1.2.02.12.18.33.22.32.25-.05.62-.1.69-.27.16-.35.23-.77.21-1.15-.01-.18-.34-.33-.52-.49h0ZM94.1,97c-.06-.56-.13-1.26-.22-1.97-.02-.12-.15-.24-.23-.35-.16.15-.44.28-.46.45-.16.97-.45,1.96-.04,2.93.06.12.23.32.27.3.19-.09.44-.21.53-.38.12-.24.1-.55.16-.98h0ZM79.73,250.47c-.13.02-.28,0-.37.07-.09.06-.17.23-.14.31.24.65.49,1.29.78,1.91.21.44.77.58.98.27.15-.21.32-.52.27-.74-.19-.85-.79-1.42-1.53-1.82h0ZM170.41,118.22c.76.46,1.21.78,1.71,1.02.23.11.53.1.8.11.35.02.76-.46.71-.9-.02-.22-.23-.55-.41-.61-.82-.23-1.66-.37-2.82.37h0ZM86.98,159.88c.24-.54.55-1.14.75-1.78.06-.19-.11-.57-.3-.68-.16-.11-.57-.07-.73.06-.54.47-.81,1.12-.73,1.82.04.42.36.69,1.01.57h0ZM77.16,239.44c1.07-.06,1.23-.91,1.41-1.67.18-.72-.16-1.32-.73-1.77-.09-.08-.28-.14-.38-.1-.22.09-.53.22-.55.39-.24,1.07-.31,2.14.25,3.15h0ZM89.48,132.83c-.24,0-.55-.09-.72.03-.2.13-.43.47-.39.66.3,1.33.58,2.68,1.74,3.67q.31-1.54-.63-4.35h0ZM111.36,200.01c.8-.48.73-1.21.55-1.8-.29-.9-.77-1.74-1.16-2.6-.37.15-.68.18-.83.35-.17.18-.29.53-.23.75.33,1.2.79,2.35,1.67,3.29h0ZM150.7,102.96c.94.33,1.82.69,2.73.96.55.17,1.12-.31,1.13-.89,0-.14.04-.27.04-.41,0-.57-.49-1.04-1.02-1.04-.84,0-1.64.15-2.34.63-.19.15-.31.42-.55.75h0ZM88.5,88.36c-.1.38-.27.78-.28,1.18-.02.41.07.83.18,1.23.07.26.26.49.41.73.3.5,1.02.46,1.33-.12.19-.35.27-.76.38-1.1-.44-.93-.67-1.98-2.03-1.91h0ZM99.57,114.09c-.72.12-1.04.39-1.03.87.05,1.56.43,3.03,1.3,4.35.14.21.42.34.63.52q.46-1.1-.91-5.73h0ZM100.12,100.2c-.4.78-.77,1.52-.78,2.39,0,.89.32,1.65,1.01,2.21.33.27.76.31,1.18.12.37-.17.55-.59.4-1.04-.36-1.06-.71-2.12-1.12-3.17-.07-.18-.37-.27-.7-.5h0ZM109.94,185.31c.51-2.17-.43-4.1-.92-6.44-.26.6-.41.92-.51,1.24-.18.52-.36,1.06-.48,1.59-.09.4-.11.81-.15,1.12q1.1,2.13,2.07,2.49h0ZM115.69,66.97c.75,1.96,1.18,3.72,1.32,5.56.01.12.36.24.55.3.03.01.18-.2.23-.33.05-.13.07-.28.06-.41-.28-2.52-.56-5.03-.86-7.54-.04-.27-.18-.53-.27-.79-.1.06-.25.12-.27.2-.25.94-.48,1.89-.75,3h0ZM87.99,144.97c.3,1.28.68,2.6,1.73,3.59.09.09.27.11.39.09.1-.01.23-.14.24-.22.08-1.5.1-3-.27-4.46-.04-.17-.44-.37-.65-.34-.72.1-1.21.55-1.43,1.35h0ZM136.47,74.71c-.66.13-1.09.43-1.45.88-.87,1.12-1.35,2.41-1.5,3.81-.02.17.23.41.41.56.06.06.32.02.4-.06,1.04-1.1,2.07-2.22,3.1-3.35.08-.09.14-.26.12-.38-.02-.26-.02-.59-.17-.77-.26-.3-.63-.49-.91-.7h0ZM149.97,129.14c1.98.59,2.95,1.21,4,1.25,1.73.05,3.35.52,4.99.93.1.03.36-.13.36-.19-.03-.22-.05-.52-.19-.64-1.26-1.01-2.69-1.59-4.31-1.57-1.27,0-2.55.11-4.85.22h0ZM81.6,120.72s.03,0,.04,0c.11.68.2,1.37.32,2.04.06.27.11.57.27.77.25.32.55.62.88.82.21.12.58.11.78,0,.18-.11.4-.47.34-.66-.32-1.17-.91-2.27-.48-3.59.17-.53-.61-1.12-1.39-1.23-.4-.06-.93.31-.89.62.04.41.08.82.12,1.23h0ZM84.85,169.56c.44.97.89,1.99,1.36,2.99.46.97.45,2.16,1.38,2.92,1.04-.79,1.37-1.73.79-2.93-.54-1.13-1.03-2.28-1.6-3.4-.18-.34-.54-.58-.79-.82-.71.15-.97.62-1.15,1.23h0ZM83.9,86.05c.12-.24.37-.48.34-.69-.19-1.31-.8-2.38-1.98-3.04-.62-.34-1.34-.66-1.98-.23-.89.61-.53,1.44-.06,2.28,1.04.54,2.15,1.1,3.27,1.66.12.06.27.02.41.02h0ZM112.31,73.14c-.1.25-.29.51-.29.76,0,2.09.03,4.17.1,6.25.02.38.31.76.52,1.11.05.09.25.11.39.11.09,0,.26-.08.28-.16.14-.53.35-1.07.33-1.6-.06-1.95-.21-3.89-.32-5.79-.23-.22-.41-.42-.62-.58-.1-.07-.26-.06-.39-.09h0ZM64.33,122.98c1.56-1,2.97-1.89,4.34-2.84.31-.22.48-.66.67-1.02.06-.1.02-.31-.06-.4-.16-.18-.44-.49-.55-.44-1.54.63-3,1.43-4.74,1.48-.55.02-.95.52-1.26,1,.19.84.6,1.53,1.61,2.21h0ZM111.32,210.17c-1.03,1.07-1.68,2.31-1.89,3.71-.15.99.04,1.96,1.19,2.38.75-.63,1.15-1.6,2.08-2.07.32-.16.51-.57.73-.84-.57-1.21-.67-2.56-2.11-3.18h0ZM65.18,83.39c-.11-.22-.14-.42-.24-.47-1.11-.58-2.23-1.13-3.37-1.71-.73,0-1.42.01-2.12,0-.97-.01-1.95-.06-2.92-.08-.44,0-.8.28-.86.69-.08.56.3,1.02.95,1.09.69.07,1.39.13,2.09.21,1.8.2,3.61.43,5.41.59.34.03.7-.21,1.07-.32h0ZM83.1,176.1c-.78,1.7-1.02,3.46-.92,5.23.38.85.69,1.63,1.08,2.37.06.11.55.14.67.03.84-.8,1.17-1.88,1.44-2.96.1-.39.12-.88-.03-1.24-.42-1.03-.91-2.03-1.43-3.02-.1-.18-.43-.23-.81-.41h0ZM111.16,161.29c-.02-.16-.02-.31-.06-.44-.04-.13-.1-.27-.19-.37-.18-.2-.4-.15-.66.11-.71.74-.92,1.73-1.38,2.6-.28.52-.73.82-1.34.92-.4.07-.82.19-1.16.41-.18.12-.34.49-.3.72.18,1,.61,1.88,1.46,2.47.17.12.57.08.76-.04.97-.67,1.09-1.93,1.82-2.8.85-1.02,1.03-2.29,1.04-3.56h0ZM104.79,98.84c.65-.07.94-.48,1.05-1.09.22-1.14.04-2.26-.29-3.33-.66-2.15-1.14-4.32-1.53-6.52-.01-.08-.16-.14-.31-.27-.98,1.82-1.32,3.65-.68,5.66.51,1.61.85,3.26,1.3,4.88.07.25.31.45.47.66h0ZM91.18,184.27c1.06-1.16,1.58-2.59,1.94-4.1.15-.58-.05-1.13-.42-1.57-.36-.43-.81-.78-1.22-1.15-.3-.27-.82-.24-1.15,0-1.13.84-1.65,1.95-1.25,3.31.33,1.06.84,2.07,1.33,3.08.09.19.44.26.78.43h0ZM92.02,252.76c-.18-.36-.22-.51-.31-.6-1.09-1.06-2.19-2.13-3.29-3.17-.2-.18-.48-.27-.82-.45-1.33.5-1.43,1.79-1.76,2.92,1.7,1.91,2.62,2.57,4.98,3.58.78-.48.91-1.32,1.2-2.28h0ZM86.89,184.9c-.21.14-.49.23-.62.42-.62.93-1.3,1.84-1.47,3.03.41,1.47,1.14,2.82,2.03,4.08.12.17.49.18.82.29.65-.91,1.06-1.93,1.27-3.05.13-.71.1-1.4-.2-2.05-.34-.76-.73-1.51-1.16-2.24-.12-.21-.44-.32-.66-.48h0ZM144.14,69.7c.05-.31.13-.59.13-.86-.04-1.69-.02-3.35.66-4.95.2-.48.14-1.1.1-1.65-.01-.19-.31-.46-.53-.51-.22-.05-.59.03-.73.2-.26.3-.5.69-.6,1.07-.42,1.62-.9,3.19-1.75,4.68-.77,1.34-.71,2.94-.4,4.46.39,0,.72.1.9-.02.94-.63,1.72-1.42,2.21-2.42h0ZM119.36,124.31c-.04-2.59.37-5.37.99-8.13.04-.14.02-.28.04-.43.07-.68-.61-1.41-1.29-1.34-.85.07-1.71.17-2.39.73-.16.14-.3.55-.22.69.35.61.79,1.16,1.2,1.74.37,2.7.17,5.34-.49,7.97-.02.1.1.27.19.36.06.06.22.09.32.06.72-.23,1.13-.8,1.65-1.65h0ZM88.51,96.88c-.37.32-.86.55-.91.83-.37,2.65-.61,5.32-1.32,7.93-.39,1.45.07,2.79,1.3,3.92.28-.24.75-.47.79-.75.48-3.5.79-7.02.51-10.56-.04-.41-.22-.81-.38-1.37h0ZM93.44,200.63q1.1-2.36,1.15-4.91c-.58-1.12-1.52-1.94-2.53-2.71-.27-.21-.96-.18-1.16.06-1.47,1.61-1.67,2.95-.6,4.52.63.93,1.3,1.83,2.05,2.67.22.25.74.26,1.1.37h0ZM83.25,201.74c.77-.47,1-1.29,1.33-2.05,1.3-3.01,1.41-3.1-.76-6.12-.16-.22-.41-.38-.6-.55-.45-.09-.84-.06-1.13.33-1.03,1.34-.97,2.91-.89,4.46.07,1.46.58,2.74,1.66,3.76.1.09.25.12.39.18h0ZM81.61,240.78c-.38.07-.77.03-.9.19-.95,1.2-1.87,2.44-2.76,3.7-.12.17,0,.52.02.83.81.14,1.63.28,2.27.39,1.22.74,1.48,2.34,2.98,2.45,1.04-.69,1.27-1.82,1.53-2.9.09-.37,0-.87-.2-1.21-.8-1.33-1.78-2.52-2.95-3.46h0ZM163.49,113.14c-1.82-1.62-4.1-2.5-6.09-3.83-.23-.16-.51-.25-.79-.33-2.18-.6-4.36-1.2-6.55-1.79-.25-.07-.55-.02-.82.03-.12.02-.32.17-.32.25.02.25.06.63.21.71.5.24,1.04.44,1.58.54,2.3.42,4.23,1.54,6.09,2.89.71.52,1.24,1.12,1.72,1.83.22.33.6.57.83.79,1.43.16,2.58-.54,3.82-.75.1-.02.18-.18.31-.33h0ZM80.64,97.03c.67,1.28,1.03,2.83,2.18,3.95.08.09.26.11.39.1.11,0,.28-.1.29-.17.34-2.08.71-4.15.98-6.24.1-.68-.04-1.39-.07-2.1-.67-.8-1.28-1.58-1.96-2.27-.27-.28-.73-.41-1.1-.58-.31-.15-.94.25-.92.59.04.56.04,1.13.17,1.67.56,2.42.58,2.41.05,5.05h0ZM141.77,120.49c-2.41.06-4.83-.73-7.27-1.47-1.21-.37-2.47-.64-3.7-.9-.21-.04-.54.15-.71.33-.28.27-.25.97-.02,1.17.32.27.61.61.97.79,2.3,1.1,4.61,2.15,6.82,3.19,1.52-.39,2.76-1.06,3.94-1.85.34-.23.45-.66-.01-1.26h0ZM89.4,234.55c-.74,1.79-1.51,3.75-2.36,5.67-.14.29-.66.41-1.1.66-.7-.76-1.41-1.44-2.02-2.2-1.27-1.59-1.29-2.36-.19-4.2.43-.72.91-1.41,1.4-2.1.42-.59,1.15-.71,1.87-.32.98.54,2.01,1.04,2.38,2.49h0ZM87.41,227.85c.26,1.2,1.18,1.85,2.15,2.46.43.26,1.32.01,1.52-.4,1.22-2.58,1.94-5.33,2.64-8.08.43-1.7-.13-3.07-1.78-3.88-.23.15-.54.25-.66.46-1.2,2.07-2.62,5.58-3.87,9.44h0ZM76.71,226.43c.83,2.27,1.63,4.54,2.88,6.61.18.3.65.43,1.05.68,1.54-1.49,2.27-3.28,2.69-5.31-1.37-2.12-2.73-4.26-4.13-6.37-.22-.32-.67-.48-.98-.69-.71.41-1.11.98-1.21,1.72-.14,1.12-.2,2.24-.3,3.36h0ZM91.1,211.02c-.39.13-.65.31-.87.26-.25-.05-.52-.26-.68-.47-1.31-1.65-2.62-3.3-3.88-5-.34-.45-.41-1.06-.19-1.62.57-1.42,1.14-2.85,2.15-4.03.32.11.66.12.83.3,1.15,1.23,2.29,2.47,3.39,3.76.47.55.67,1.29.51,1.99-.38,1.64-.84,3.26-1.25,4.8h0ZM128.56,82.75c1.21-1.48,1.42-3.14,1.35-4.85,0-.23-.29-.45-.47-.75-3.15.81-5.9,2.56-8.68,4-.36,0-.65.02-.93,0-.42-.04-.83-.16-1.26-.18-.95-.05-2.09.61-2.25,1.57-.2,1.15-.74,2.12-1.2,3.14-.03.06.08.23.18.3.1.07.25.13.37.12.28-.03.57-.04.81-.16,2.54-1.29,5.22-2.09,8.04-2.55,1.38-.22,2.74-.43,4.04-.63h0ZM105.66,114.81c-.4-1.22-.14-2.67,1.3-7.64.44-.79,1.37-.94,2-1.48.54-.46.95-1.06,1.47-1.52,1.81-1.6,3.8-2.93,5.99-3.97.12-.06.27-.05.4-.08.32-.06.61.02.73.31.1.24.2.59.1.77-1.18,1.95-2.6,3.72-4.23,5.29-1.13,1.09-2.11,2.27-3.09,3.49-1.25,1.54-2.61,2.97-3.95,4.43-.18.2-.48.27-.73.4h0ZM137.96,64.3c.16.36.34.59.37.85.03.27-.04.56-.12.83-.34,1.21-.7,2.41-1.03,3.55-.25.04-.38.1-.5.09-.82-.05-1.43-.92-2.38-.55-.72.28-1.03.92-1.48,1.45-.37.42-.74.9-1.22,1.14-3.15,1.56-6.38,2.94-9.71,4.08-.07.03-.24-.13-.32-.24-.06-.09-.12-.28-.06-.36,1.29-2.16,2.4-4.43,4.25-6.35,1.18.14,1.66,1.5,2.8,1.65.61-.05,1.06-.34,1.44-.79,2.13-2.58,5.1-3.89,7.98-5.34h0ZM96.87,123.17c-.82,1.43-1.06,3.13-1.49,4.76-.68,2.61-1.05,5.25-.73,7.97.12.98.06,1.98.09,2.97.02.71.06,1.42.12,2.12.03.28.12.55.21.82.04.1.19.25.24.23.25-.09.63-.16.71-.35.98-2.34,2.05-4.66,2.84-7.07.51-1.6.92-3.26,1.03-4.98.14-2.21-.48-4.19-1.51-6.09-.06-.12-.18-.2-.28-.31-.34-.39-.73-.26-1.23-.07h0ZM88.7,244.19c1.1-2.94,2.08-5.6,3.09-8.24.3-.81,1.22-1.27,2.09-1.09,1.1.23,2.23.41,3.16,1.24-.9,4.13-2.02,8.22-3.4,12.24-.18.51-1.03.7-1.44.37-1.46-1.18-2.43-2.74-3.5-4.52h0ZM122.46,88.01c-.39.03-.85-.04-1.21.13-1.28.59-2.54,1.24-3.78,1.92-.86.47-1.64,1.12-2.52,1.55-.88.42-1.85.66-2.64.93-1.48,1.82-1.65,4.05-2.65,5.91-.12.21-.07.53-.05.79.01.08.23.23.26.21,3.22-2.11,6.59-3.81,10.56-3.97.88-.03,1.51-.76,1.75-1.65.47-1.64.72-3.32.66-5.03,0-.25-.23-.5-.38-.8h0ZM123.76,104.62c-1.48.36-2.55.66-3.65.86-.27.05-.47-.32-.43-.62.05-.27.11-.56.25-.78.85-1.29,1.74-2.57,2.6-3.85.45-.15.84-.37,1.24-.39,1.34-.04,2.49-.49,3.43-1.45,1.12-1.16,2.44-1.25,3.87-.77,0,1.33-1.43,1.3-1.99,2.53-.36,3.86-1.84,7.89-1.99,12.16-.06,1.57-.52,3.07-1.21,4.48-.25.5-.64.93-1.04,1.33-.16.18-.49.19-.75.28-.39-.48-.42-1.04-.28-1.6.11-.41.22-.83.44-1.18.89-1.49,1.32-3.09,1.44-4.83.07-1.12.45-2.21.61-3.33.17-1.12-.39-1.91-1.34-2.42-.37-.19-.79-.28-1.22-.43h0ZM75.23,98.33c-2.52-.03-4.98-.6-7.43-1.32-.53-.15-1.09-.19-1.65-.26-.46-.05-1.11.54-1.19,1.03-.34,2.17.04,4.22,1.11,6.11.25.43.86.67,1.33.95.35.2.87-.07.97-.48.12-.55.16-1.12.33-1.65.31-.99,1.52-1.49,2.41-.99.61.34,1.16.78,1.87,1.26,2.17.1,4.24.98,6.29,1.9.16.07.47-.19.7-.3-1.55-3.66-2.02-4.69-4.74-6.27h0ZM67.82,126.61c-.32-.58-.28-1.13.22-1.53.76-.62,1.56-1.19,2.37-1.76.78-.55,1.7-.48,2.31.14,1.39,1.41,2.69,2.91,4.15,4.24,2.32,2.1,4.12,4.65,6.12,7.01,1.52,1.81,2.66,3.97,3.04,6.4.02.1-.13.28-.24.33-.1.05-.3.02-.38-.06-.95-.85-1.73-1.86-2.35-2.94-.73-1.27-1.7-2.22-2.87-3.05-.92-.66-1.81-1.36-2.72-2.01-3.22-2.28-6.46-4.54-9.66-6.8h0ZM80.14,216.52c.06-.42.02-.72.13-.97.86-1.93,1.74-3.85,2.64-5.76.34-.72,1.21-.83,1.72-.27,1.33,1.46,2.66,2.91,3.96,4.4.27.31.42.73.7,1.23-.12.44-.2,1-.42,1.5-1.13,2.58-1.84,5.33-3.35,7.74-.25.4-.77.48-1.03.14-1.81-2.52-3.45-5.13-4.35-8.01h0ZM139.5,109.28c1.47.71,2.79,1.2,4.19,1.36,2.98.35,5.75,1.51,8.65,2.18.55.13,1.09.35,1.59.6.73.37,1.39.85,2.14,1.41-2.58,1.87-5.32,3.02-8.08,4.14-.32.13-.58.03-.72-.25-.06-.12-.13-.28-.1-.39.12-.4.31-.78.43-1.18.28-.91.02-1.73-.67-2.32-1.08-.92-2.27-1.7-3.63-2.17-.77-.26-1.89.14-2.23.81-.49.95-.27,2.06.54,2.65.45.33.93.62,1.47.97-.32.18-.55.42-.71.38-2.37-.48-4.67-1.21-6.93-2.02-.26-.1-.51-.26-.76-.39-.41-.22-.64-1.17-.37-1.52.08-.11.12-.26.22-.36,1.49-1.55,3.34-2.59,4.96-3.91h0ZM132.7,98.53c.93,3.66.87,4.53-.42,7.79-.42,1.05-.82,2.11-1.21,3.14.79.65,1.12.75,1.46.42.41-.4.94-.77,1.12-1.26.83-2.26,1.82-4.44,2.23-6.86.66-3.91,1.48-7.82,3.28-11.42.49-1,1.07-1.96,1.55-2.97.14-.28-.12-.65-.43-.63-2.11.13-4.22.3-6.33.5-.73.07-1.38.44-1.85.98-1.32,1.48-2.58,3-3.81,4.44.06.28.06.46.15.54.18.19.4.43.63.46.98.09,1.99.05,2.96.18,1.09.15,1.77.86,2.03,1.92.27,1.07.1,1.98-1.05,2.47-.12.06-.2.19-.3.28h0ZM64.53,92.5c-.45-.57-.89-1.13-1.33-1.67-.45-.54-.85-1.18-1.7-1.02-.63.11-.68.16-1.41,1.4.82,3.58,1.28,7.22,1.42,10.89.01.26-.15.53-.26.79-.08.2-.79.12-1.14-.13-1.15-.82-2.4-1.51-3.23-2.63-.63-1.09-.31-2.28-.59-3.37-.28-1.11-.34-2.21-.25-3.35.09-1.12-.13-2.25-.17-3.38-.02-.72.12-1.43.54-2.01.23-.32.58-.59.93-.79.24-.13.55-.15.83-.14,2.97.05,5.95.08,8.91.18,1.34.05,2.51.66,3.29,1.72,1,1.36,1.85,2.83,2.76,4.27.27.44.24,1-.06,1.12-.24.11-.53.26-.78.22-2.49-.48-4.99-.97-7.76-2.09h0ZM98.02,168.77c-.92,2.24-1.69,4.2-2.54,6.14-.15.32-.61.51-.88.72-.95-.37-1.38-1.12-1.85-1.82-.51-.76-.6-1.61-.24-2.43.56-1.29,1.26-2.52,1.82-3.82.22-.5.27-1.08.32-1.63.07-.63-.91-1.26-1.52-1.06-.71.22-1.24.67-1.61,1.28-.42.72-.59,1.59-1.15,2.22-.76-.06-.81-.69-1.03-1.12-1.69-3.31-1.89-3.28.3-6.5.48-.69.88-1.44,1.34-2.22.79-.3,1.56-.6,2.34-.9.19-.21.43-.39.55-.63.72-1.38,1.44-2.77,2.72-3.74.36-.28.75-.27,1.26.13.12.67.23,1.51.43,2.32.47,1.92,1.59,2.64,3.77,2.48.28-.02.55,0,.82,0,.75.83.68,1.82.59,2.79-.04.52-.57,1.1-1.07,1.15-.42.04-.84.04-1.26.06-1.52.05-2.68.8-3.68,1.86-.84.89-.99,2.06-.42,3.13.26.49.6.95.99,1.58h0ZM104.66,148c.16-.38.31-.72.43-1.07.4-1.36.6-2.8,1.2-4.06,1.58-3.33,3.08-6.71,5.57-9.51.36-.41.59-.95.86-1.43-.65-1.56-.88-3.06-.43-4.63.15-.55.25-1.11.31-1.67.1-.99.08-1.99.22-2.97.14-.98.37-1.94.63-2.91.24-.94.55-1.87.83-2.81-.31-.38-.54-.73-.83-1.03-.31-.31-.96-.36-1.16-.14-.73.84-1.65,1.54-2,2.76.29.74.64,1.51.91,2.32.26.79-.15,1.67-.96,2.14-.61.36-1.24.68-1.82,1-.55.73-1.05,1.42-1.59,2.08-1,1.23-1.81,2.51-1.87,4.19-.02.51-.36,1.06-.67,1.51-1.33,1.94-1.96,4.06-1.79,6.42.08,1.13.03,2.27.09,3.4.12,2,.58,3.92,1.4,5.75.12.24.39.39.67.67h0ZM108.09,155.78c-.24-.33-.4-.45-.39-.55.15-.83.41-1.64.45-2.47.05-.7-.06-1.39.06-2.11.18-1.27.46-2.48.87-3.71.94-2.85,2.25-5.51,3.7-8.12.42-.74.9-1.46,1.42-2.13,1.31-1.68,2.64-3.33,3.99-4.98.57-.68,1.32-1.11,2.23-1.09,1.27.04,2.55.15,3.83.23,1,.07,1.99-.03,2.94-.34.62-.2.9-1.25.47-1.78-.55-.71-1.27-1.1-2.16-1.19-.56-.05-1.13-.04-1.67-.12-.53-.08-.92-.99-.62-1.35.89-1.1,1.7-2.28,3.02-2.88q6.37,1.37,7.84,2.79c-.09.26-.13.57-.3.78-.35.44-.74.87-1.18,1.23-4.18,3.42-8.36,6.82-12.56,10.21-.55.44-1.19.76-1.81,1.12-1.98,1.17-3.6,2.77-5.22,4.36-.51.5-.83,1.16-.87,1.9-.06,1.14-.24,2.25-.79,3.28-.63,1.19-.17,2.54-.51,3.76-.79,1.17-1.9,1.98-2.72,3.16h0ZM108.22,190.32c-.27.61-.43.99-.63,1.42-.37.16-.75.36-1.15.49-.85.29-1.51.81-1.89,1.61-.55,1.15-1.16,2.28-1.35,3.58-.12.84-.31,1.67-.45,2.39.21.7.56,1.1,1.15,1.27.76-.09,1.23-.68,1.84-1.03.53-.32,1.15-.2,1.54.22.87.96,1.59,2,2.01,3.24.18.54.32,1.09.46,1.55-.24,1.41-.81,2.51-2.05,3.18-.49.27-.98.58-1.42.93-.32.26-.67.59-.83.96-.73,1.71-1.31,3.46-1.02,5.36.05.26.21.55.41.72.32.27.69.49,1.08.64.55.21,1.06.49,1.34.99.77,1.35,1.67,2.65,2.05,4.37-.3.97-.63,2.04-.97,3.12-.3.94-.62,1.88-.98,2.97-.44-.39-.78-.72-1.16-1-.66-.49-1.83-.27-2.26.41-1.19,1.86-1.76,3.86-1.39,6.07.09.58.47,1.01.94,1.36.31.24.94.25,1.14-.06.31-.46.57-.97.85-1.45.12-.01.28-.09.36-.04,1.32.96,1.64,1.42,3.13,4.47-.22.3-.42.68-.71.97-1.56,1.55-2.56,3.48-3.01,5.55-.65,2.95-1.81,5.67-3.01,8.4-.91,2.08-1.86,4.15-2.75,6.16-2.55,1.53-4.26.96-5.41-1.85.35-.68.73-1.43,1.09-2.12.29-.23.48-.46.73-.58,1.94-.91,1.95-.93.97-2.66-.14-.25-.24-.52-.42-.94.09-.55.16-1.26.35-1.93.59-2.05,1.24-4.08,1.83-6.12.4-1.36.83-2.72,1.1-4.11.31-1.56.18-3.12-.85-4.46-1.55-.72-3.09-1.43-4.43-2.05-.47-.72-.54-1.28-.32-1.83.83-2.12,1.68-4.21,2.4-6.01.88-1.08,1.86-.46,2.61-.8.32-.15.47-.38.35-.67-.16-.39-.33-.78-.55-1.13-.37-.59-.79-1.16-1.22-1.8.37-1.26.74-2.47,1.07-3.69.14-.55.25-1.11.28-1.67.02-.57-.15-1.1-.51-1.59-.55-.75-1.68-.84-2.17-.11-.24.35-.45.72-.61,1.11-.21.51-.36,1.06-.52,1.55-1.11-.02-1.82-.55-1.94-1.31-.04-.28-.13-.58-.06-.84.42-1.8.91-3.57,1.8-5.21.17-.3.77-.5,1.14-.35.65.27,1.28.58,1.94.84.3.12.61,0,.73-.3.1-.24.19-.62.07-.77-.53-.66-1.12-1.27-1.72-1.88-.5-.51-.95-1.04-1.16-1.97.29-1.19.5-2.6.97-3.93.9-2.56,1.21-5.25,1.9-7.86.35-1.35.22-2.82.31-4.24,0-.13-.06-.27-.08-.41-.06-.48-.6-1.06-1.09-1.19-.46-.11-1.26.27-1.42.7-.21.52-.42,1.06-.57,1.6-.26.95-.1,2-.69,2.87-.27-.04-.58,0-.79-.12-.74-.47-1.19-1.18-1.48-2.01-.18-.57-.16-1.13.06-1.67.53-1.32,1.11-2.61,1.64-3.93.39-.95,1.02-1.69,1.83-2.31.33-.25.58-.6.9-.93,0-.43.04-.85,0-1.27-.14-1.01.05-1.96.43-2.91.83-1.97,1.65-3.93,2.76-5.76.57-.95,1.09-1.93,1.58-2.8.45-.18.69-.1.88.18,1.13,1.63,2.26,3.25,3.58,5.14.23.57-.03,1.36-.45,2.13-.42.79-.99,1.39-1.97,1.4-.13,0-.28.01-.42.06-1,.36-1.53,1.42-1.19,2.4.7,2.02,1.6,3.95,2.73,5.77,1.05,1.7,1.88,3.5,2.81,5.54h0ZM88.01,257.74c-.42.05-.82.09-1.29.15-.53.64-1.05,1.29-1.58,1.94-.27.1-.53.28-.79.28-.98.02-1.95,0-2.94-.04-.67-.03-1.38-.48-1.39-.79-.03-.46.28-.74.56-1.01.8-.78,1.62-1.55,2.43-2.33,1.09-1.06,1.51-1.09,2.91-.16.82.54,1.7,1.02,1.98,2.06.15.08.31.16.36.18-.04-.04-.15-.16-.27-.28h0ZM78.64,109.25c.75,1.03,1.23,2.2,1.7,3.38.32.82.9,1.42,1.68,1.82.5.25,1.01.52,1.53.69.21.07.53-.04.77-.13.29-.11.3-.79.02-1.1-1.27-1.52-2.57-3-4.18-4.18-.48-.35-1.03-.41-1.6-.4-.03-.84-.67-1.24-1.3-1.44-1.05-.34-2.15-.56-3.25-.71-.34-.05-.74.3-1.19.49-.24.94-.45,1.88-.67,2.76.7,1.35,1.82,1.21,3,1.01,1.13-.72,2.13-1.73,3.48-2.19h0ZM41.87,88.82c.17-1.29.05-2.54-.32-3.79-.95-3.14-1.1-6.43-1.68-9.63-.13-.71.28-1.41.97-1.76.71-.36,1.36-.19,1.96.56.52,2.36,1.17,4.83,1.6,7.35.24,1.41.68,2.75.95,4.14.47,2.52,1.14,4.97,2.3,7.28.56,1.13.86,2.4,1.26,3.53.89.88,1.89,1.37,3.02,1.63.34.08.95-.31.99-.6.25-1.86-.67-3.64-.32-5.5.32-1.72-.16-3.39-.19-5.09-.04-1.75-.57-3.35-1.14-4.96-.4-1.14-1.21-1.9-2.37-2.29-.53-.18-1.13-.25-1.6-.53-.83-.49-1.21-1.73-.12-2.44.24-.15.49-.27.85-.46,2.91,0,5.73,1.08,8.63,1.6.42-.25.82-.42,1.13-.7.41-.37.48-1.21.21-1.57-.26-.33-.51-.68-.79-.99-1.04-1.17-2.17-2.26-3.12-3.49-1.23-1.59-2.62-2.98-4.33-4.05-.71-.45-1.39-1-1.97-1.6-.63-.64-.78-1.49-.64-2.38.07-.47.82-.98,1.28-.87.28.07.59.08.81.22.73.45,1.51.85,2.11,1.43,2.06,1.95,4.24,3.77,6.04,6.01,1.78,2.21,3.92,4.1,6.16,5.89.19-.25.49-.46.45-.59-1.39-5.15-3.82-9.75-7.39-13.73-.75-.85-1.49-1.71-2.23-2.58-.55-.65-.4-1.63.32-2.27.54-.47,1.54-.56,1.97-.15,4.37,4.2,7.63,9.06,9.34,14.96.94,3.26,1.81,6.57,3.27,9.67.36.78.73,1.54,1.48,2.01.12.07.3.12.42.08.11-.03.22-.2.24-.31.02-.27.02-.56-.05-.82-.8-3.31-1.77-6.58-2.22-9.97-.83-2.13-1.12-4.4-1.61-6.61-.12-.54-.16-1.14-.06-1.68.06-.38.37-.75.67-1.05.36-.37,1.27-.29,1.55.09.25.33.52.67.74,1.02,1.13,1.85,1.56,3.99,2.02,6.04.55,2.48,1.07,4.98,1.58,7.48.51,2.5.85,5.03,1.28,7.54.06.27.19.53.28.79.89.3.91.27,1-.15.2-.86.06-1.7-.11-2.52-.57-2.81-.52-5.65-.48-8.49.01-.42.14-.83.24-1.24.13-.53.95-1.13,1.63-1.21.58-.07,1.41.6,1.51,1.25.1.7.14,1.41.24,2.11.08.55.21,1.09.27,1.38.72.96,1.6,1.13,2.34,1.53,1.11.61,2.27,1.15,3.39,1.76,1.52.82,2.79,1.94,3.88,3.28.8.99,1.67,1.93,2.54,2.86.18.18.49.22.75.33.55-1.88.43-4.27-.42-7.94-3.24-3.04-6.31-6.38-10-8.92-1.17-.2-2.36.04-3.19-1.03-.75-.97-.97-1.98-.37-2.71.65-.79,1.83-1.23,2.66-.94.53.19,1.08.39,1.53.72,1.72,1.25,3.42,2.54,5.1,3.84.67.52,1.29,1.11,1.9,1.66.31-.13.63-.17.77-.35.14-.19.18-.54.11-.77-.12-.4-.31-.79-.54-1.15-1.37-2.18-3.03-4.12-4.81-5.96-1.21-1.25-2.6-2.19-4.3-2.66-.68-.2-1.39-.37-2.01-.69-.49-.25-.91-.67-1.28-1.08-.46-.49-.36-1.51.14-1.93.68-.56,1.44-.95,2.34-.63,2.02.71,3.9,1.67,5.63,2.96,1.02.75,1.88,1.71,3.09,2.21.12.05.29.05.39-.02.1-.07.21-.24.2-.36-.06-1.55-.16-3.09-.24-4.72-1.32-2.33-3.09-4.36-4.91-6.35-1.47-1.63-3.25-2.76-5.5-2.93-1.04-.08-1.89-.49-2.59-1.29-.47-.53-.48-1.4,0-1.94.6-.69,1.38-1.06,2.27-.88,2.37.49,4.67,1.18,6.55,2.85.64.56,1.36,1.02,2.05,1.52.09.06.34.08.37.02.14-.23.38-.52.33-.73-.36-1.51-.68-3.05-1.25-4.49-.52-1.32-1.45-2.42-2.58-3.34-1.21-.99-2.51-1.86-3.71-2.58-1.02-.11-1.88-.15-2.7-.31-.59-.12-.95-.63-1.08-1.2-.12-.57.03-1.15.49-1.55.9-.79,1.95-1.1,3.16-.93.29.04.46-.2.47-.52,0-.14,0-.31-.09-.39-.37-.42-.72-.91-1.17-1.21-.94-.64-1.94-1.2-2.93-1.75-1.6-.88-3.21-1.03-4.79.08-.1.08-.28.05-.45.07-1.17-.78-1.41-2.01-1.49-3.3-.05-.74.77-1.71,1.55-1.79.55-.06,1.15-.12,1.68,0,1.24.29,2.48.64,3.68,1.06,1.35.47,2.63,1.06,3.71,2.03.74.67,1.53,1.27,2.31,1.9.73,1.01,1.46,2.04,2.26,3.02.19.25.54.08.69-.23-.01-.14-.01-.28-.04-.42-.31-1.67-1.36-2.38-3.01-2.26.27-1.46.03-2.82-.73-4.1-.71-1.22-1.35-2.5-2.1-3.7-1.44-2.31-3.36-4.21-5.4-5.99-.32-.28-.73-.32-1.19-.26-.39.06-.81-.03-1.22-.05-.88-1.2-1.46-2.49-1.91-3.84-.28-.81.45-1.81,1.3-1.78.85.03,1.72.13,2.45.61.83.55,1.67,1.09,2.36,1.79,2.01,2,4.1,3.95,5.58,6.43.2.35.57.6.9.87.09.08.32.12.39.06.2-.14.48-.35.49-.54.14-4.01-.6-7.89-1.68-11.81-.54-.25-1.03-.5-1.52-.74-.55-.27-.88-.7-.97-1.3-.07-.56-.16-1.12-.2-1.69-.05-.73.04-1.46.67-1.92.79-.57,2.54-.41,3.19.25.3.3.61.61.81.97,1.18,2.13,1.93,4.41,2.31,6.82.22,1.4.47,2.8.59,4.21.18,1.98.36,3.97.36,5.95,0,2.01.73,3.8,1.21,6.41.78-2.5.88-4.35,1.09-6.17.23-1.97.38-3.95.77-5.91.23-1.11.22-2.26.34-3.39.21-1.98.43-3.96.7-5.92.13-.91.75-1.5,1.59-1.84.63-.26,1.55.06,1.87.6.59,1.01.92,2.08.65,3.26-.16.69-.31,1.38-.51,2.06-1.03,3.56-1.62,7.19-1.78,10.89-.01.43,0,.87-.1,1.28-.77,2.89-.78,5.9-1.28,8.83-.15.84-.17,1.73-.48,2.5-1.04,2.63-.65,5.31-.39,7.99.05.54.37,1.07.93,1.38,1.15-1.99,1.44-4.27,1.96-6.44.53-2.21,1.17-4.39,1.75-6.58.4-1.5,1.07-2.95,1.03-4.55,0-.28.06-.58.18-.83,1.27-2.73,1.8-5.66,2.46-8.55.06-.26.26-.49.41-.73.25-.38,1.09-.75,1.52-.61.54.18,1.02.49,1.22,1.07.1.26.2.55.18.82-.05.85,0,1.74-.25,2.52-1.94,5.94-3.26,12.05-5.18,17.98-.96,2.97-1.56,6.05-2.73,8.95-.16.39-.26.82-.3,1.24-.22,1.85-.77,3.61-1.31,5.37-.21.66-.33,1.45-.17,2.09.51,1.96.45,3.94.59,5.92.03.41.19.81.29,1.21.48.08.93.04,1.08-.41.38-1.21.72-2.45,1.03-3.68.88-3.58,1.68-7.18,2.6-10.75.5-1.92,1.15-3.81,1.8-5.68.35-.98,1.03-1.69,2.17-1.76.96.36,1.45,1.08,1.09,2-1.31,3.32-1.95,6.82-2.77,10.26-.73,3.03-1.49,6.06-2.35,9.06-1.02,3.55-1.7,7.18-2.78,10.71-.34,1.12-.37,2.26-.18,3.37.46,2.65.71,5.34,1.67,7.88.09-.05.24-.07.26-.14.64-1.73,1.27-3.46,1.88-5.19.51-1.47,1.02-2.95,1.48-4.44.54-1.76,1.02-3.52,1.32-5.36.3-1.79.49-3.67,1.41-5.32.21-.37.4-.75.68-1.06.28-.32.67-.49,1.13-.39.44.11.74.39.92.8.3.69.19,1.4.03,2.09-.61,2.77-1.11,5.58-1.92,8.28-.99,3.26-1.57,6.63-2.95,9.77-.36.8-.4,1.65-.24,2.51-.14.04-.34.05-.4.14-.8,1.31-1.54,2.65-1.78,4.19-.02.17.27.43.48.58.27.2.54.12.74-.14.08-.11.19-.21.25-.33.63-1.45.91-2.94.6-4.52.98-.42,1.52-1.22,1.92-2.16.28-.65.54-1.31.89-1.91.65-1.07,2.21-.96,2.77.21.31.63.58,1.3.74,1.98.49,2.08.7,4.2.73,6.34,0,.42.01.87.14,1.26.18.52.31,1.11,1.01,1.37.09-.39.27-.76.26-1.13-.03-1.13.02-2.3-.21-3.4-.72-3.24-.5-6.51-.51-9.78,0-1.99.04-3.98.06-5.97.01-.75.26-1.4.92-1.81.83-.52,1.6-.34,2.32.29.18.16.44.22.71.36.42-1.41.1-2.84.22-4.25.1-1.27.12-2.54.16-3.6.57-1.13,1.3-1.77,2-2.23.8-.11,1.2.38,1.72.56.31.11.67-.05.68-.35.15-2.68.28-5.37.37-8.05.04-1.08.47-1.9,1.32-2.53.55-.4,1.56-.21,1.85.38.19.37.41.76.49,1.16.38,2.12.4,4.21-.19,6.33-.63,2.29-.78,7.36-.44,9.74.04.23.28.45.46.66.21.24.84.1,1.12-.25.27-.33.59-.64.74-1.02.25-.66.49-1.35.56-2.04.18-1.84.3-3.68.37-5.53.05-1.14.19-2.24.42-3.37.61-3.06,1.1-6.15,1.95-9.17.22-.81.22-1.68.34-2.63.43-.48.87-1.03,1.37-1.53.3-.31.74-.46,1.15-.3.57.23.9.73.98,1.3.06.41.08.88-.06,1.25-1.16,2.94-1.18,6.11-1.88,9.15-.31,1.38-.53,2.78-.73,4.18-.05.34.2.53.44.48.13-.03.31-.09.37-.18.36-.6.85-1.18,1.03-1.84.68-2.37,1.93-4.45,3.21-6.48,2.05-3.24,4.24-6.4,7-9.11,1.02-1.01,2.1-1.92,3.58-2.14.56.21,1.03.52,1.19,1.12.19.73,0,1.41-.47,1.99-.26.33-.52.7-.88.92-2.34,1.52-3.71,3.89-5.28,6.07-1.16,1.6-2.24,3.29-3.24,5.01-.42.71-.56,1.58-.81,2.39-.04.11.04.33.12.37.23.1.6.26.71.16,2.54-2.27,5.06-4.58,7.58-6.87.42-.39.8-.81,1.25-1.17,1.13-.92,2.44-1.43,3.89-1.55,1.04-.08,1.96.25,2.67,1.05.42.45.57.99.43,1.57-.17.73-.66,1.27-1.39,1.47-.38.11-.85.07-1.26.01-1.24-.18-2.23.31-3.08,1.13-2.05,1.98-4.14,3.9-6.05,6.01-1.32,1.46-2.34,3.2-3.49,4.81-.83.15-1.65.3-2.58.48-1,1.13-2.25,1.97-3.78,2.42-.36.1-.67.51-.9.85-.12.15.04.48.08.85,2.5-.66,4.59-2.03,6.55-3.59.29-.22.35-.74.52-1.12.56,0,1.22.21,1.66,0,3.05-1.56,6.31-2.56,9.48-3.35,1.03-1.07,1.04-2.46,1.74-3.53.57-.87,1.89-1.04,2.52-.17.32.44.61.98.7,1.51.18.98.12,1.98-.23,2.94-.3.79-.61,1.59-.93,2.38-.39.95-.42,1.93-.29,2.93-.1.06-.19.12-.29.18.06-.09.13-.19.19-.28.87-.61,1.17-1.61,1.54-2.5.84-2.02,2.08-3.7,3.7-5.15.52-.47.97-1.03,1.3-1.39,2.23-1.12,4.24-2.15,6.29-3.13.76-.37,1.58-.63,2.38-.91.45-.16,1.06.44,1.09,1.01.04.93-.37,1.68-1.04,2.24-.53.45-1.2.76-1.81,1.09-3.1,1.69-5.36,4.18-6.94,7.3-.36.69-.34,1.09,1,1.45.36.1.96-.37,1.46-.62,1.78-.89,3.59-1.68,5.51-2.28,2.17-.69,4.28-1.52,6.08-3,.31-.26.77-.34,1.14-.49,1.05.16,2.04.35,2.06,1.7-.45.93-1.16,1.64-2.06,2.09-2.16,1.08-4.16,2.47-6.44,3.3-1.06.39-2.07.91-3.1,1.4-2.43,1.18-4.85,2.39-6.39,4.79-.13.2-.5.24-.76.36-1.1-.09-1.43-1.31-2.53-1.72-.25.05-.66.06-1.04.22-.38.16-.74.42-1.06.7-.43.37-.82.79-1.22,1.19-1,1-1.99,2.01-3.11,3.15.57.08,1.01.27,1.36.16,2.3-.69,4.7-1.04,6.88-2.17,1.04-.53,2.2-.12,3.07.83.79.87.59,1.96-.48,2.4-.66.28-1.3.6-1.99.75-.97.21-2.05.09-2.94.46-3.3,1.35-6.84,1.87-10.18,3.1-1.66.62-3.1,1.39-4.17,3,.26.24.56.75.8.73,1.82-.19,3.65.27,5.48-.2,1.15-.3,2.24.13,3.15.93.63.57.45,1.86-.36,2.13-.79.26-1.62.44-2.47.67.02.51-.06.96.08,1.32.54,1.3.3,2.53-.23,3.72-.41.91-.84,1.83-1.43,2.61-.98,1.28-1.46,2.75-1.85,4.26-.28,1.1-.57,2.2-.82,3.3-.12.56-.12,1.13.26,1.64,1.22-.1,1.95-1.08,2.89-1.67.84-.53,1.63-1.13,2.58-1.8.24-.68.6-1.46.75-2.28.86-4.63,2.2-9.09,4.31-13.32.4-.8.98-1.37,1.84-1.66.88-.3,1.87.3,1.8,1.17-.06.84-.07,1.73-.37,2.51-.87,2.39-1.5,4.88-2.83,7.1-.49.82-.59,1.89-.85,2.84-.18.63.09.97,1.25,1.56.55-.26,1.21-.54,1.82-.86.71-.36,1.06-.98.88-1.75-.36-1.45-.12-2.8.45-4.15.49-1.18.88-2.4,1.35-3.59.69-1.71,1.4-3.41,1.73-5.26.12-.68.47-1.33.76-1.97.3-.67,1.13-1.07,1.74-.92.77.19,1.25.73,1.41,1.43.13.54.14,1.14.05,1.69-.29,1.54-.79,3.02-1.41,4.46-.51,1.17-.89,2.39-1.3,3.6-.03.08.13.27.24.32.12.05.33.05.41-.03,1.4-1.39,2.88-2.7,4.18-4.2,1.4-1.61,2.92-3.11,4.44-4.6,1.54-1.5,3.3-2.7,5.32-3.48.39-.15.83-.3,1.24-.28.55.01,1.12.12,1.64.3.61.21,1.08,1.12.92,1.76-.13.58-.49,1.11-1.09,1.17-2.61.24-4.38,1.94-6.14,3.58-2.07,1.94-4,4.04-5.97,6.09-1.18,1.24-2.23,2.58-2.67,4.29-.02.1.04.27.11.34.09.09.27.2.36.16,2.99-1.29,6.18-2.08,9.17-3.39,1.55-.68,3.21-1.14,4.92-1.32,1.26-.13,2.5-.45,3.98-.74.61.2,1.42.44,2.21.73.72.26.96,1.11.57,1.75-.57.91-1.32,1.47-2.47,1.28-.42-.07-.85-.12-1.2-.18-3.25.75-6.35,1.75-9.4,2.95-.87.34-6.98,3.11-7.69,3.55-.37.23-.7.5-.71.99,0,.42.49,1.05,1.01,1.23.41.14.82.26,1.22.39,3.13,1,6.09,2.36,8.95,3.97.6.34,1.16.82,1.64,1.33.28.28.4.74.53,1.13.14.45-.46,1.14-.93,1.21-.74.09-1.42-.05-2.07-.36-3.07-1.48-6.25-2.69-9.53-3.62-.2-.06-.49.12-.81.22,1.01.85,1.98,1.68,2.96,2.51.79.68,1.19,1.52,1.24,2.6.05.89.5,1.26,1.33,1.26,1.27,0,2.55,0,3.83-.06,1.85-.07,3.7-.29,5.54-.23,3.99.15,7.92.78,11.76,1.84,1.78.49,3.53,1.05,5.31,1.57,1.09.32,1.61,1.08,1.8,2.15.06.41.18.82.25,1.18,3.27,2.3,3.35,2.42,4.52,5.95-.18.34-.32.76-.58,1.09-.75,1-1.7,1.04-2.49.15-.66-.74-1.29-1.5-1.92-2.23-.48-.1-.89-.21-1.3-.27-1.35-.2-2.38-.93-3.13-2-.84-1.2-1.9-2.11-3.16-2.82-.46-.26-1.17-.3-1.17-.03,0,.24-.04.56.09.72.82,1.01,1.31,2.19,1.76,3.39.42,1.11.38,2.23.19,3.36-.11.64-.87,1.33-1.46,1.31-.61-.02-1.43-.64-1.57-1.25-.12-.55-.24-1.11-.27-1.67-.06-1.08-.58-1.91-1.43-2.51-1.27-.91-2.56-1.8-4.12-2.14-.57-.12-1.17-.05-1.59.37-.29.28-.61.72-.57,1.07.05.7.26,1.4.51,2.05.36.93.83,1.8,1.22,2.72.22.55.2,1.16-.12,1.64-.21.31-.66.48-.97.7-1.56-.42-2.6-1.31-2.91-2.86-.21-1.05-.73-1.84-1.54-2.47-.67-.52-1.33-1.11-2.09-1.45-1.93-.86-3.51-2.42-5.7-2.79-.86-.15-1.34-1-1.94-1.59-.78-.76-1.39-.57-2.3.6,2.02,1.31,4.02,2.64,6.07,3.93,1,.63,1.69,1.48,2.24,2.51,1.08,2.02,1.68,4.19,2.06,6.23-.26.79-.68,1.15-1.24,1.34-.48.16-1.37-.09-1.53-.46-.34-.78-.79-1.55-.93-2.36-.38-2.14-1.65-3.61-3.41-4.67-1.81-1.09-3.55-2.37-5.53-3.04-.9.18-1.72.35-2.48.5-.74-.64-1.38-1.2-2.03-1.75-.46.04-.93-.05-1.28.12-3.84,1.84-7.89,3.25-11.64,5.28-2.11,1.13-3.88,2.46-5.76,4.44.46.05.9.21,1.28.12,2.49-.55,4.97-1.15,7.64-1.79.2-.37.53-.83.7-1.34.4-1.18,1.17-1.9,2.35-2.25,5.18-1.54,5.43-1.56,10.99-.36.74.43,1.59.94,2.47,1.4.9.48,1.64,1.12,2.33,1.85,1.07,1.14,2.15,2.27,3.21,3.41.58.63,1.23,1.22,1.64,1.95.65,1.15,1.45,2.05,2.57,2.77.82.53,1.52,1.27,2.19,2,1.13,1.27,2.19,2.61,3.28,3.93,1.27,1.52,2.51,3.09,4.53,4.56,1.68.65,3.7,1.69,5.47,3.16,2.47,2.05,4.18,4.61,4.94,7.76.44,1.82.42,3.67.09,5.5-.22,1.25-.52,2.5-.79,3.81-.3.26-.57.6-.93.78-1.11.57-2.46-.25-2.39-1.42.02-.42.03-.86.18-1.24,1.15-2.99.73-5.85-.6-8.65-.75-1.58-1.87-2.86-3.33-3.8-.22-.14-.57-.23-.79-.15-.19.06-.41.4-.41.62.02,1.13-.01,2.29.19,3.4.75,4.1.66,8.19.05,12.29-.19,1.26-.2,2.55-.35,3.82-.23,2.12-.48,4.23-.76,6.34-.1.71-.39,1.37-.98,1.83-.19.15-.5.19-.77.23-.36.06-.87-.39-.89-.74-.06-.85-.13-1.69-.13-2.54.04-2.42.13-4.83.13-7.24,0-.57-.32-1.08-.99-1.2-.14-.02-.27-.08-.41-.14-.73-.29-1.09-.86-1.21-1.61-.04-.28-.05-.57-.04-.85.15-4.43-.53-8.8-.89-13.19-.16-1.87-.6-3.64-1.48-5.31-.19-.36-.47-.76-.81-.94-.34-.17-.83-.16-1.21-.09-.19.03-.42.41-.44.64-.13,1.85.4,3.69.36,5.51-.04,1.69-.38,3.37-.09,5.08.05.28.04.57.06.87-.27.79-.5,1.61-.84,2.39-.16.37-.51.66-.81.95-.28.27-.95.27-1.16-.03-.48-.68-.92-1.39-1.26-1.91,0-.54-.1-.86.01-1.09.84-1.74.94-3.59.67-5.42-.44-3.09-.62-6.21-1.26-9.28-.31-1.55-.84-3.01-1.46-4.44-.36-.82-.91-1.48-1.82-1.66-1.27-.25-1.94-1.04-2.33-2.21-.14-.39-.46-.71-.73-1.11-1.31-.39-2.52-1.26-4.01-1.14-.12.01-.27.1-.36.19-.07.07-.15.25-.11.32.61,1.11,1.17,2.27,1.89,3.31.97,1.44,1.62,2.99,2.09,4.64.73,2.6,1.24,5.24,1.75,7.88.49,2.54.61,5.07.65,7.62,0,.42-.09.85-.13,1.27-.06.53-.85,1-1.28.74-.59-.36-1.15-.79-1.58-1.09-.16-.48-.35-.75-.31-1.01.21-2.01-.1-3.95-.44-5.93-.53-3.09-1.52-6.06-2.28-9.08-.65-2.58-2.25-4.57-4.15-6.33-.63-.59-1.43-1.03-2.33-.81-1.72.42-2.7-.39-3.41-1.8-.12-.24-.32-.47-.53-.64-.36-.28-.79-.27-1.21-.16-.43.11-.69.67-.42.96.77.82,1.52,1.67,2.35,2.44,1.28,1.18,2.25,2.57,2.99,4.12,1.15,2.43,2.42,4.81,2.89,7.53.4,2.25.52,4.51.58,6.78.02.61-.33,1.06-.79,1.43-.59.47-1.53.33-1.82-.31-.29-.64-.55-1.31-.72-1.99-.1-.4,0-.85-.02-1.27-.13-5.39-2.4-9.87-6-13.74-.76-.82-1.74-1.47-2.64-2.14-.33-.25-.76-.39-1.16-.51-.66-.2-1.39-.28-2.04-.53-.51-.2-.97-.57-1.5-.89-.55.2-1.08.38-1.6.59-.39.16-.48.78-.17,1.03.56.43,1.1.89,1.69,1.29,3.52,2.37,6.07,5.51,7.54,9.5.44,1.2.93,2.38,1.31,3.6.25.82.26,1.68.04,2.53-.12.45-.93.79-1.4.59-.83-.35-1.44-.94-1.77-1.75-.32-.78-.5-1.62-.78-2.42-1.49-4.39-4.5-7.51-8.36-9.88-1.22-.75-2.61-1.15-4.07-1.08-.74.03-1.38.31-1.8.98-.15.24-.18.54.09.74.44.33.91.65,1.43.87,1.6.69,2.89,1.76,4,3.1,2,2.41,3.87,4.9,5.13,7.81.56,1.29,1.41,2.46,2.1,3.7.29.51.33,1.08.21,1.65q-.08.34-1.18,1.11c-.61-.07-1.11-.37-1.42-.85-1.38-2.15-2.76-4.31-4.04-6.51-1.16-1.99-2.54-3.77-4.3-5.25-.54-.46-1.1-.94-1.73-1.25-2.15-1.04-4.31-1.46-6.4.21-.43.35-.95.61-1.42.91-.04.25-.16.53-.1.76.54,2.19.04,4.24-.84,6.21-1.4,3.12-2.32,6.4-3.36,9.65-.54,1.64-.77,3.29-.76,5.02.02,3.55-.06,7.1.83,10.58-.23,2.6.89,5.02,1.02,7.58.05.83.36,1.65.55,2.48.12.55.35,1.11.33,1.66-.05,2.29.42,4.52.68,6.78.05.42.16.85.12,1.27-.37,4.54.47,9.09-.07,13.63.16,2.83-.17,5.7.84,8.45.18.51.08,1.12.12,1.65-.47.6-.92,1.15-1.46,1.82-.04,1.15-.16,2.43-.13,3.69.08,2.73-.36,5.41-1.04,8.01-.75,2.89-1.39,5.79-1.72,8.75-.07.56-.21,1.12-.35,1.66-.96,3.87-2.44,7.56-3.83,11.28-.33.91-.98,1.7-1.48,2.53.45.6.95,1.13,1.28,1.76.24.48.32,1.08.36,1.63.04.62-.79,1.39-1.38,1.38-.28,0-.61.06-.84-.06-2.11-1.11-4.38-1.06-6.66-1.06-.99,0-1.99-.03-2.97-.16-1.71-.23-3.4-.21-5.08.15-1.4.3-2.81.37-4.25.21-3.42-.39-6.8-.23-10.11.83-.39.13-.84.13-1.26.13-.73-.01-1.41-.27-1.85-.88-.42-.57-.78-1.18-1.22-1.86-.57-.26-1.22-.52-1.85-.85-.85-.44-1.36-1.35-1.19-2.07.14-.58.48-1.03.98-1.33.49-.29,1.02-.45,1.62-.22.24.1.57.16.81.08.2-.07.42-.35.46-.56.04-.26-.11-.55-.2-.82-.78-2.28-1.56-4.56-2.35-6.85-.59-.39-1.18-.76-1.76-1.17-.09-.06-.12-.23-.22-.48.43-.61.91-1.29,1.52-2.13.03-1.25.16-2.68.05-4.08-.21-2.7-.12-5.4-.11-8.1,0-2.7.05-5.39-.31-8.07-.04-.28-.16-.59-.08-.83.57-1.81.33-3.66.33-5.5,0-.57.06-1.14.18-1.69.86-3.9,1.05-7.88,1.61-11.82.45-3.23.97-6.45,1.51-9.67.07-.42.2-.84.2-1.26.1-3,.91-5.88,1.46-8.81.44-2.37.69-4.78,1.01-7.17.18-1.41.14-2.84.74-4.18.17-.38.23-.82.26-1.24.24-3.26.99-6.47.96-9.74-.03-3.27-.02-6.55-.25-9.8-.15-2.12-.43-4.23-.59-6.35-.14-1.78.1-3.38,1.03-4.95-.91-1.5-1.45-3.19-2.84-4.25-1.57-1.18-2.57-3.11-4.77-3.59-.28.23-.7.44-.89.78-.75,1.37-1.42,2.79-2.16,4.16-.19.36-.54.65-.82.97-.19.22-.89.32-1.2.19-1.16-.49-1.72-1.7-1.24-2.77.18-.38.35-.78.57-1.13.83-1.31,1.67-2.62,2.44-3.81-.22-1.1-.91-1.59-1.66-2.02-.48-.27-1.28-.11-1.52.29-.74,1.21-1.37,2.48-1.71,3.88-.19.82-.47,1.64-.73,2.45-.22.65-1.02,1.13-1.68,1.03-.91-.14-1.63-.84-1.64-1.68,0-.56.01-1.14.14-1.69.25-1.1.53-2.2.91-3.27.33-.93.8-1.81,1.22-2.73-.19-.43-.28-.87-.54-1.17-.8-.91-1.83-.82-2.46.16q-2.42,3.8-4.29,8.29c-.22.52-.43,1.06-.76,1.52-.42.59-1.03.96-1.79.99-.64.02-1.03-.39-1.37-.86-.08-.11-.12-.26-.24-.53.76-4.11,3.18-7.71,4.6-11.63-1.3-1.53-1.61-1.77-3.84-2.72-.34-.15-.81-.02-1.21-.02-1.27,2.43-2.25,4.94-3.76,7.2-.7,1.04-1.01,2.33-1.58,3.48-.33.67-.96,1.08-1.71,1.08-.78,0-1.32-.45-1.61-1.18-.04-.13-.08-.27-.18-.62.77-3.61,2.69-6.94,4.41-10.3-.41-1.29-1.36-1.36-2.39-1.26-.12.08-.28.14-.33.25-.68,1.24-1.33,2.5-2,3.75-.34.63-.55,1.39-1.04,1.85-2.49,2.34-3.41,5.46-4.43,8.56-.18.53-.49,1.02-.79,1.5-.35.58-1.33.94-1.86.68-.66-.32-1.22-.79-1.29-1.56-.04-.56,0-1.14.13-1.68.18-.83.48-1.64.73-2.46.2-.65.39-1.31.57-1.86-.25-.36-.42-.29-.67.02-.74.88-1.31,1.85-1.65,2.96-.55,1.76-1.06,3.53-1.65,5.28-.18.52-.49,1.01-.79,1.48-.29.44-1.08.56-1.52.27-.62-.42-1.04-.97-1.13-1.72-.05-.42-.1-.86-.05-1.27.31-2.42.92-4.75,2.03-6.92,1.1-2.15,2.28-4.25,3.7-6.21.25-.34.18-.88-.09-1.16-.26-.27-.9-.38-1.17-.18-2.03,1.54-4.07,3.07-5.76,5.28-.63,2-1.38,4.15-1.94,6.34-.31,1.24-.59,2.49-1.11,3.66-.47,1.06-.5,2.21-.66,3.33-.07.55-.22,1.11-.4,1.64-.24.73-1.53,1.07-2.19.62-.75-.53-1.17-1.28-1.11-2.17.07-.98.23-1.98.53-2.92.76-2.44,1.63-4.84,2.43-7.27.41-1.21.76-2.43,1.11-3.65.02-.08-.14-.26-.26-.31-.12-.05-.32-.06-.4,0-.31.27-.71.53-.85.88-.25.65-.39,1.35-.51,2.04-.12.72-.32,1.38-.84,1.92-.8.83-1.33,1.83-1.8,2.87-.4.91-.79,1.84-1.34,2.66-1.95,2.88-2.96,6.1-3.7,9.45-.25,1.1-.65,2.19-1.14,3.19-.38.77-1.05,1.36-2.09,1.09-.43-.39-.62-.94-.56-1.5.14-1.27.27-2.54.57-3.78.54-2.2,1.22-4.37,1.8-6.56.06-.2-.12-.57-.31-.68-.19-.12-.54-.1-.78-.02-.25.09-.53.28-.66.5-1.04,1.7-2.04,3.42-3.05,5.13-.45.75-.67,1.56-.81,2.41-.35,2.23-1.69,4.25-1.47,6.61.05.57.04,1.14,0,1.71-.06,1.19-1.48,1.88-2.55,1.24-.64-.39-1.06-.93-1.11-1.7-.24-3.63.62-7.04,2.02-10.35,1.17-2.75,2.31-5.5,3.52-8.38,2.4-2.79,5.48-5.11,8-7.99.55-.63,1.25-1.19,1.97-1.62,3.53-2.12,6.97-4.37,10.61-6.22.9-.09,1.74-.17,2.68-.26.3-.14.73-.27,1.06-.51,1.57-1.13,3.32-1.62,5.23-1.4,1.28.15,2.54.09,3.79-.3,1.81-.56,3.69-.27,5.5-.02,1.27.17,2.54.32,3.81.39,2.16.12,4.23.48,6.12,1.6.22.12.55.07.94.12.7-.57,1.38-1.36,2.24-1.78,1.01-.5,2.06-.8,2.73-1.85.27-.42.94-.62,1.46-.82,1.2-.44,2.42-.82,3.55-1.19.52.08.94.14,1.36.22.31.05.55-.05.67-.35.05-.12.09-.32.03-.42-1.16-1.8-2.63-3.33-4.45-4.48-.64-.4-1.4-.4-2.02.03-1.15.82-2.34,1.64-3.34,2.64-1.34,1.34-2.94,2.2-4.6,3.03-.87.43-1.97.07-2.62-.8-.45-.62-.42-1.4,0-1.97.43-.6,1.01-1,1.62-1.35,2.34-1.35,4.6-2.82,6.73-4.64-.21-.4-.29-.85-.56-1.07-.54-.44-1.18-.79-1.8-1.13-.86-.47-1.76-.89-2.64-1.34-.14.35-.32.58-.34.84-.1.93-.57,1.61-1.33,2.08-2.28,1.44-4.59,2.85-6.88,4.26-.73.45-1.42.93-2.17,1.36-1.28.73-3-.34-3.15-1.82-.05-.5.36-1.04.56-1.59.6-.21,1.14-.36,1.66-.58,1.03-.44,2.18-.77,3.08-1.42,2.19-1.56,4.54-2.82,7.04-4.02-.36-.38-.59-.79-.94-.96-1.28-.59-2.62-1.1-4.12-1.71-.81.15-1.79.32-2.76.5-1.74.33-3.2,1.21-4.39,2.47-1.06,1.12-2.01,2.36-3,3.54-.71.36-1.4.17-2.05-.12-.79-.36-1.39-.96-1.87-1.69-.28-.42-.22-1.24.16-1.56.44-.36.88-.71,1.34-1.03,2.31-1.65,4.64-3.28,6.93-4.94.38-.27.28-.75.04-1.32-1.24-.91-2.6-1.94-4.06-2.55-4.12,1.19-7.49,3.12-9.35,7.04-1.39.66-2.49.2-3.49-.77-.61-.6-.71-1.76-.17-2.33.77-.82,1.58-1.64,2.43-2.39.84-.76,1.75-1.43,2.59-2.11-.05-.69-.53-.62-.85-.57-1.44.22-2.64.86-3.63,2.01-.83.96-1.69,1.02-2.66.4-.58-.39-1.14-.84-1.65-1.32-.66-.61-.4-2.19.39-2.63.37-.2.75-.41,1.15-.52,1.36-.37,2.76-.67,4.12-1.07.54-.16.97-.58,1.14-1.18.07-.28.18-.54.25-.82.24-.92-.37-2.2-1.24-2.44-1.51-.4-3.03-.71-4.55-1.07-1.67-.38-3.34-.71-4.98-1.16-.66-.18-1.27-.59-1.88-.95-.62-.38-.73-1.7-.24-2.29.49-.58,1.13-.85,1.87-.83.28,0,.59.03.83.15,2.58,1.28,5.39,1.7,8.17,2.12.48-.2.68-.62.49-.99-1.34-2.51-2.7-5-4.12-7.46-.94-1.61-2.14-3.09-3.85-3.88-1.68-.77-2.12-2.13-2.46-3.57.22-.39.32-.66.49-.88.42-.53,1.09-.71,1.48-.46,3.67,2.33,6.59,5.27,8.44,9.32,1.35,2.96,3.18,5.7,5.16,8.31.52.67,1.12,1.28,2,1.51.33.08.58.03.74-.22.07-.11.18-.26.15-.36-.93-3.27-1.87-6.54-2.82-9.8-.19-.68-.43-1.36-.63-2.03-.18-.68-.36-1.36-.49-1.91.19-.88.59-1.45,1.3-1.71.25-.09.56-.09.83-.04.96.16,1.39.9,1.75,1.69.12.26.16.54.22.82.6,3.36,1.57,6.63,2.53,9.9.04.14.04.28.09.42.38,1.07.79,2.13,1.16,3.2.36,1.07.6,2.18.99,3.24.5,1.39,1.36,2.47,2.87,2.89.03.27.06.53.1.8.06.44.24.49.43.14.06-.1.04-.31-.03-.38-.18-.18-.4-.31-.61-.47Z"/>
  </g>
</svg>