<?xml version="1.0" encoding="UTF-8"?>
<svg id="Layer_2" data-name="Layer 2" xmlns="http://www.w3.org/2000/svg" viewBox="0 0 231.64 272.31">
  <defs>
    <style>
      .cls-1 {
        fill: #593826;
        fill-rule: evenodd;
      }
    </style>
  </defs>
  <g id="_Layer_" data-name="&amp;lt;Layer&amp;gt;">
    <g>
      <path class="cls-1" d="M169.23,140.74l.14-.26-.27-.02.13.28h0ZM131.1,224.65c0-.14.04-.3,0-.41-.05-.12-.2-.21-.31-.3-.12.18-.35.36-.33.54.02.17.27.34.42.51.07-.11.15-.22.23-.33h0ZM130.18,219.68c.13-.13.34-.25.31-.31-.13-.4-.3-.79-.49-1.16-.06-.11-.32-.25-.34-.22-.15.16-.38.35-.37.54.02.78.46,1.27.89,1.15h0ZM129.88,207.61c-.08.77-.15,1.18-.16,1.58-.02.45.05.9.03,1.35-.02.45-.15.9-.11,1.33.03.43.23.85.39,1.39q.5-1.6-.15-5.66h0ZM116.75,190.18c.98-.61,1.22-.89,1.28-1.51.07-.74.02-1.47-.42-2.14-.95.33-1.17,1.17-1.33,2.03-.11.59-.04,1.17.47,1.62h0ZM122.11,193.04c0,.2.01.5.05.8.08.62.64,1.31,1.14,1.28.42-.02.89-.14,1.2-.39.32-.26.54-.7.68-1.11.07-.22-.01-.65-.19-.79-.47-.39-1.02-.71-1.55-1.01-.6-.34-1.18-.03-1.27.67-.02.15-.03.3-.06.55h0ZM117.54,149.64c.08-.64.22-1.21.2-1.79-.07-1.64-.2-3.27-.35-4.91-.02-.19-.37-.54-.51-.52-.25.04-.5.26-.66.48-.45.61-.59,1.37-.4,2.11.36,1.45.84,2.88,1.28,4.31.03.09.2.15.43.31h0ZM130.43,202.87c.66-.47.9-1.21,1.02-1.94.5-2.98.99-5.96,1.64-8.89.03-.14,0-.32-.05-.46-.06-.14-.17-.27-.29-.36-.08-.06-.26-.06-.33,0-.73.6-1,1.51-1.14,2.37-.35,2.09-.8,4.14-1.28,6.19-.23,1-.14,2.08.43,3.08h0ZM129.38,182.85c.08.48.3.94.21,1.32-.25,1.1-.21,2.02.78,2.88.65.56.27,1.49-.58,1.71-.28.07-.55.21-.97.39-.17.6-.33,1.31-.6,1.97-.07.18-.48.23-.74.29-.06,0-.29-.25-.27-.34.29-1.61.34-3.24.29-4.9-.04-1.08.37-2.06,1.07-2.86.16-.19.46-.27.81-.46h0ZM100.34,97.21c-.09.28-.26.55-.26.83-.03,1.55.6,2.98,1.17,4.4.44,1.09.72,2.26,1.62,3.16,1.63-1.76,1.73-1.98,1.87-3.81-.26-.16-.5-.37-.78-.46-1.82-.56-2.91-1.68-3.05-3.62-.01-.17-.37-.33-.57-.51h0ZM155.09,160.52c-.48.68-.95,1.26-1.31,1.9-.21.37-.23.85-.32,1.28-.03.14,0,.36.08.43.21.17.56.43.72.36,2.09-.83,4.21-1.55,6.45-1.94,1.18-.21,2.31-.63,3.43-.94,0-.38,0-.67,0-1.06-.58-.12-1.19-.33-1.77-.32-2.28.05-4.55.18-7.27.29h0ZM155.4,151.73c-.21-.81-.7-1.29-1.31-1.18-2.33.43-4.64.95-6.86,1.89-.57.85-.72,1.85-.68,2.92.02.37.49.87.9.87.9.01,1.8,0,2.76,0,1.61-1.7,3.81-2.69,5.19-4.51h0ZM158,45.48c-2.15.49-4.06,1.63-6.12,2.47-.51.21-.92.72-1.28,1.16-.67.81-.95,1.83-1.19,2.85-.02.1.05.32.13.35.26.12.56.26.83.26.29,0,.59-.11.84-.25,2.2-1.21,4.39-2.42,6.56-3.67.53-.3.7-.92.82-1.52.12-.61.07-1.18-.6-1.66h0ZM117.97,95.37c.14-4.19,1.1-7.8,1.64-11.5.13-.88.71-1.65.53-2.6-.03-.14-.14-.29-.26-.37-.08-.06-.27-.04-.34.03-1.24,1.08-2.1,2.45-2.86,3.89-.21.39-.35.83-.4,1.27-.31,2.85-.34,5.72.58,8.55.07.21.48.33,1.1.74h0ZM132.36,139.6c1.12-.55,2.25-.98,3.23-1.63,2.24-1.49,3.4-3.61,3.05-6.46-.04-.37-.33-.48-.67-.45-.81.08-1.34.61-1.87,1.1-.64.6-1.2,1.3-1.84,1.91-.74.7-1.52,1.37-2.24,2.01-.25,1.2-.56,2.33.33,3.51h0ZM67.9,24.26c-.8,1.06-1.03,2.43-1.61,3.63-.65,1.34-1.31,2.68-1.95,4.04-.12.26-.12.59-.19.94.12.39.21.85.41,1.27.25.56.59,1.09.84,1.55.64.24,1-.02,1.16-.41.94-2.2,1.88-4.4,2.74-6.64.38-.97.57-2.01.81-2.89-.49-1.07-1.02-1.8-2.2-1.49h0ZM111.09,99.09c-.27-.53-.51-.94-.69-1.36-.11-.27-.23-.59-.18-.84.05-.25.27-.57.49-.62.23-.05.68.13.78.32.48.96.88,1.97,1.23,2.79-.11.5-.08.86-.25,1.07-2.53,3.15-4.37,6.71-5.99,10.42-.18.4-.44.76-.66,1.12-.34-.12-.75-.13-.87-.32-.66-1.05-1.24-2.16-1.21-3.56.25-.23.52-.6.89-.79.66-.36,1.32-.72,1.71-1.38,1.14-1.93,2.63-3.59,4.05-5.3.36-.43.49-1.06.7-1.55h0ZM113.76,43.64c.52.37.95.23,1.16-.15,1.49-2.73,2.94-5.48,4.36-8.15.12-1.02,0-1.93-.51-2.75-.2-.33-.62-.54-1.06-.91-1.59,1.88-2.44,4.21-4.44,5.62-.04,2.17.08,4.28.49,6.33h0ZM148.06,161.68c-.23-.15-.47-.43-.68-.42-2.98.1-5.24,1.43-6.43,4.08-.74,1.64-1.64,3.18-2.39,4.79-.82,1.75-1.71,3.46-2.5,5.23-.06.13-.06.3-.04.45.02.13.09.29.18.39.05.06.24.1.3.05,1.15-.79,1.36-2.28,2.32-3.23,1.48-1.48,2.6-3.24,3.69-5.02.55-.9,1.22-1.66,2.02-2.35.79-.67,1.48-1.46,2.17-2.23.49-.55,1.13-.98,1.35-1.75h0ZM106.36,249.08c.63-.22.92-.78,1.05-1.34.48-2.04.91-4.09,1.34-6.15.12-.58.31-1.19.24-1.78-.27-2.04.32-3.9.75-5.8.13-.59.42-1.18.37-1.76-.21-2.8.88-5.31,1.23-7.98.14-1.04.2-2.09.27-3.14,0-.12-.17-.25-.3-.44-.63,1.17-1.15,2.36-1.26,3.7-.15,1.82-.63,3.54-1.07,5.29-.4,1.59-.8,3.21-.95,4.85-.29,3.32-1.22,6.49-1.6,9.78-.59,1.26-.35,2.67-.44,4.02-.01.23.23.49.35.74h0ZM79.7,57.03c.46-.36.92-.55,1.09-.9.91-1.88,1.32-4.03,2.6-5.7,1.33-1.73,1-3.34-.21-5.03-.27-.38-.55-.76-.83-1.14-.3-.41-.85-.4-1.1,0-1.51,2.44-2.25,5.21-3.09,7.93-.22.74-.14,1.53.19,2.26.38.84.86,1.64,1.36,2.58h0ZM97.35,92.99c.44-.36.95-.56,1.06-.91.42-1.35,1.16-2.37,2.35-3.11.33-.21.47-.72.66-1.03-.62-6.98-.79-7.73-2.2-9.18-.64,1.55-1.3,3.03-1.87,4.56-.48,1.29-1.32,2.27-2.35,3.07-.15.83.17,1.52.56,2.21.38.67.74,1.37,1.03,2.08.29.71.48,1.45.76,2.31h0ZM114.71,57.56c-.12-.25-.34-.5-.36-.76-.13-1.83-.22-3.66-.34-5.72.07-.57.6-1.11,1.08-1.68,1.74-2.09,2.76-4.59,3.93-7.01.19-.4.43-.77.69-1.13.06-.09.28-.11.42-.09.11,0,.29.11.31.19.24,1.05.34,2.14.7,3.15.68,1.87.26,3.26-1.21,4.42-1.08.85-1.6,2.13-2.17,3.36-.76,1.62-1.51,3.25-2.31,4.85-.11.21-.48.29-.73.43h0ZM93.27,83.36c-.53-.92-1.05-1.87-1.61-2.81-.57-.94-1.2-1.84-1.74-2.79-.32-.55-.42-1.21-.18-1.78,1.13-2.76,1.94-5.67,3.36-8.3.2-.36.63-.58,1.01-.91,2.34,2.04,2.73,4.89,3.81,7.42-.2.47-.28.96-.56,1.26-.74.77-1.27,1.61-1.44,2.71-.29,1.8-1.03,3.44-1.79,5.06-.07.14-.51.09-.86.14h0ZM12.58,111.84c1.67,2.98,4.48,4.29,6.94,5.63,3.86-1.5,7.23-3.33,10.35-5.61.35-.26.81-.36,1.21-.56.53-.27,1.05-.55,1.57-.83.41-.22.73-.94.48-1.07-.26-.13-.59-.28-.84-.23-3.8.9-7.65,1.55-11.64,1.43-1.06-.03-2.13.01-3.18.12-1.19.12-2.38.34-3.55.57-.42.09-.81.33-1.34.55h0ZM115.95,65.16c.97-.93,1.37-2.23,2.13-3.28.43-.59.91-1.15,1.44-1.66.18-.17.56-.16.85-.16.34,0,.76.63.71,1.04-.06.59-.04,1.23-.25,1.77-1.04,2.63-1.89,5.36-3.26,7.84-1.11,2.01-1.59,4.18-1.17,6.55.07.4.27.56.71.42,1.89-2.28,3.68-4.78,4.61-7.83.22-.72.5-1.42.82-2.09.87-1.82.6-3.84.77-5.78-.74-1.93-.37-3.94-.76-5.91-.15-.76-.23-1.52-.41-2.27-.06-.25-.32-.47-.52-.67-.24-.24-.84.05-1.11.53-.29.52-.55,1.05-.84,1.57-.92,1.7-1.81,3.42-2.77,5.08-.29.5-.87.8-1.2,1.29-.23.34-.35.82-.36,1.25-.02.75-.02,1.53.6,2.3h0ZM129.48,157.62c.7-.34,1.37-.66,2.17-.52,1.25.57,1.42,2.04,2.39,2.84.85.69,1.77,1.31,2.56,2.07.45.43.64,1.13.37,1.72-.62,1.36-1.25,2.72-1.98,4.01-1.25,2.21-2.47,4.45-3.24,6.9-.4,1.27-.64,2.6-1.02,3.88-.06.19-.44.27-.67.39-.09-.28-.33-.63-.25-.82.82-1.98.52-4.17.91-6.24.11-.56-.27-1.21-.75-1.66-.46-.42-.98-.77-1.45-1.19-.5-.45-.66-1.05-.61-1.69.02-.3.03-.62.14-.89.72-1.7.95-3.46.67-5.35-.18-1.25.15-2.41.74-3.45h0ZM82.54,61.91c.73-3.67,2.27-6.57,3.79-9.47.06-.12.21-.26.34-.27.27-.02.69-.07.81.08.48.61.92,1.26,1.28,1.95,1.18,2.21,2.32,4.43,3.44,6.66.14.26.12.6.17.94-.11,1.28-1.3,1.92-1.78,3-.42.96-1.02,1.83-1.37,2.82-.39,1.1-.7,2.21-1.26,3.2-.32-.12-.53-.13-.6-.24-1.26-1.97-2.55-3.93-3.73-5.95-.47-.79-.7-1.72-1.1-2.72h0ZM121.59,179.11c.99-1.64,1.22-3.27,1.1-4.95-.17-2.33.24-4.56.8-6.72.46-1.76.74-3.53.97-5.33.54-4.34,1.01-8.7,1.49-13.06.08-.75.09-1.51.06-2.27-.03-.85-.59-1.41-1.32-1.77-.41-.2-.87-.3-1.33-.39-.8-.16-1.51-.05-1.9.76-.02.14-.07.28-.07.43-.05,2.89.25,5.79-.03,8.67-.27,2.85.02,5.77-.75,8.56-.23.84-.06,1.81-.03,2.73.03,1.22.06,2.44.18,3.66.31,3.15.35,6.33.83,9.69h0ZM110.51,127.64c.42,1.2.69,2.44,1.27,3.52.63,1.18.19,2.44.76,3.58.16.33.39.48.75.42.13-.03.3-.04.38-.13.18-.23.33-.48.45-.75.62-1.39.59-2.94.86-4.41.51-2.84.55-5.74.78-8.6.31-3.93-.62-9.57-1.97-14.95-.29,0-.73-.12-.84.02-1.94,2.46-3.3,5.29-4.67,8.1-.67,1.36-.79,2.89-.77,4.43,0,.29.12.6.21.89.12.37.34.54.63.47.14-.03.34-.06.4-.15.71-1.3,1.37-2.64,2.09-3.93.36-.65.89-1.18,1.57-1.55.47-.26,1.38.08,1.47.63.07.44.16.93.05,1.34-.2.72-.5,1.42-.84,2.07-1.4,2.67-2.32,5.51-2.58,9.01h0ZM72.81,29.92c.41.02.7,0,.98.06.13.03.28.16.35.29,1.55,2.34,3.09,4.68,4.63,7.03.75,1.14.78,2.32.29,3.49-1.12,2.75-2.25,5.5-3.41,8.23-.1.23-.45.44-.7.46-.25.02-.53-.2-.78-.35-.13-.08-.26-.21-.31-.34-1.09-2.61-2.76-4.85-4.62-6.99-.71-.82-1.24-1.79-1.84-2.7-.22-.34-.17-1.08.16-1.23,1.28-.61,2.03-1.68,2.65-2.89.48-.92,1-1.82,1.48-2.74.4-.78.77-1.58,1.13-2.32h0ZM135.88,108.4c-.46,2.52-.93,5.03-1.38,7.54-.21,1.19-.34,2.38-.06,3.62.34,1.53.19,3.01-.26,4.48-.43,1.42-.64,2.92-.88,4.41-.04.22.25.52.4.83.42-.14.89-.22,1.25-.44,1.27-.77,2.54-1.55,3.74-2.41,2.87-2.04,4.3-4.83,3.89-8.51-.03-.24-.28-.6-.49-.66-.24-.08-.63.02-.83.18-.92.74-1.79,1.54-2.72,2.28-.34.27-.78.42-1.18.61-.4.19-1.15-.1-1.65-.62-.26-.27-.28-.96,0-1.27.49-.55.94-1.14,1.51-1.6,2.41-1.96,4.85-3.88,7.15-5.71.47-1.81.38-3.49.4-5.16,0-.15,0-.33-.06-.45-.14-.25-.3-.49-.5-.68-.06-.06-.32,0-.43.08-1.99,1.52-3.75,3.31-5.62,4.59-1.19.14-1.47-.86-2.27-1.11h0ZM146.02,100.87c-2.87,1.43-5.43,3.49-8.43,4.84-.18-.36-.42-.63-.43-.9-.03-1.07-.05-2.14.04-3.19.14-1.75.92-3.13,2.4-4.1,2-1.3,3.96-2.66,5.91-4.01.48-.34.88-.78,1.3-1.19.29-.29.24-.82-.11-1.22-.34-.4-.88-.62-1.23-.43-1.45.76-2.89,1.55-4.33,2.32-.52.28-1.05.56-1.58.83-.33.17-1.06-.23-1.08-.59-.12-2.03.44-3.91,1.08-5.74.35-1,1.06-1.8,1.92-2.42.36-.26.73-.52,1.12-.73,2.23-1.23,4.32-2.65,6.31-4.22.34-.27.79-.42,1.2-.58.12-.05.36-.04.45.04.2.2.51.49.48.68-.41,2.22-.68,4.48-1.52,6.59-.66,1.67-1.03,3.43-1.28,5.25-.36,2.54-1.03,5.02-1.61,7.51-.1.43-.38.81-.61,1.27h0ZM156.77,52.22c.19.37.44.64.45.91.02.6,0,1.23-.14,1.8-.74,2.91-1.52,5.8-2.3,8.71-.15.58-.45,1.15-.44,1.74.03,2.02-.63,3.83-1.12,5.71-.46,1.74-.78,3.53-1.18,5.29-.06.28-.27.51-.41.77-.27.09-.56.31-.81.26-1.12-.25-2.09-.03-3.02.54-1.65,1.01-3.33,1.98-5.02,2.92-.22.12-.59.07-.85,0-.35-.12-.46-.42-.36-.76.36-1.14.82-2.26,1.06-3.43.23-1.17.24-2.39.35-3.54,3.1-2.27,6.09-4.46,9.08-6.65.49-.36.83-.82.91-1.47-.27-.59-.67-1.02-1.51-1.09-2.64.73-4.52,3.06-7.1,4.07-.23-.28-.42-.42-.4-.5.67-2.3,1.37-4.6,2.05-6.85,3.3-3.21,6.27-6.76,10.77-8.42h0ZM178.72,174.03c-.47-.48-.95-.9-1.33-1.39-.89-1.14-1.96-2.02-3.24-2.68-.97-.51-1.87-1.15-2.82-1.71-1.14-.67-2.51-.5-3.31.49-.46.57-.91,1.21-1.12,1.9-.35,1.14-.49,2.36-.73,3.54-.15.74-.29,1.48-.48,2.2-.2.76-.9,1.27-1.63,1.32-1.24.08-2.47.06-3.61-.56-3.27-1.79-6.7-2.41-10.28-2.16-.28.02-.58-.18-.87-.27.06-.27.03-.67.2-.78,2.58-1.76,5.18-3.5,7.8-5.19.62-.39,1.35-.63,2.07-.85,3.46-1.04,6.99-1.87,10.56-2.55.45-.08.89-.21,1.35-.21,4.28.03,8.51-.62,12.82-.24,1.22.11,2.45.28,3.64.57,2.26.54,4.49,1.21,6.75,1.77,1.21.3,2.37.66,3.51,1.23.97.48,2.03.79,3.07,1.09,3.81,1.11,7.13,3.12,10.09,5.79,1.99,1.79,3.95,3.58,5.81,5.53,2.52,2.64,4.63,5.55,6.62,8.55.12.17.04.62-.12.78-.17.18-.57.3-.8.22-1.32-.48-2.62-.98-3.91-1.55-1-.44-1.97-.99-2.68-1.87-.92-1.14-2.05-1.84-3.42-2.37-2.19-.84-4.13-2.16-5.87-3.81-2.61-2.47-5.76-3.68-9.21-4.13-.45-.06-.95-.05-1.35-.24-1.61-.78-3.29-.78-4.98-.83-.75-.02-1.53-.1-2.26-.29-.64-.17-1.2-.13-1.77.09-1.32.52-2.71.32-4.06-.02-1.5-.37-2.96-.91-4.44-1.37h0ZM39.47,109.58c3.17.27,6.23.58,9.29.76,2.51.15,4.88.92,7.1,2.06,2.25,1.15,4.59,1.98,6.99,2.57,1.39.35,2.66.81,3.85,1.58,3.17,2.03,6.47,3.81,9.51,6.06,3.08,2.27,5.79,4.85,8.1,7.85,2.68,3.49,5.41,6.95,7.72,10.7.49.8,1.06,1.58,1.44,2.42.71,1.59,1.71,2.98,2.71,4.39,1.47,2.06,2.63,4.27,3.3,6.69.17.6.28,1.2-.2,1.79-.4-.1-.89-.11-1.25-.33-.52-.32-1.15-.73-1.38-1.24-1.38-3.03-3.78-5.38-5.56-8.15-1.61-2.51-3.54-4.79-6.05-6.53-.77-.53-1.5-1.15-2.17-1.81-.55-.54-.99-1.19-1.49-1.81-1.12-.15-2.17-.31-3.3-.46-.23-.39-.65-.78-.66-1.16-.06-1.52,0-3.04.05-4.56.02-.6.13-1.19.18-1.63-.48-1.15-1.21-1.64-2.23-1.66-.61-.01-1.27-.09-1.81.11-2.37.9-5.03,1.07-7.19,2.51-.6.4-1.4.5-2.22.78-.98-.35-2-.71-3.01-1.09-.42-.16-.61-.93-.3-1.15.85-.6,1.71-1.17,2.56-1.76.61-.43,1.23-.84,1.77-1.33.17-.16.19-.55.16-.83-.04-.46-.56-.9-.96-.85-.43.06-.9.11-1.28.29-2.04.94-4.05,1.93-6.08,2.89-1.72.81-3.44,1.02-5.21-.25-.62-.45-1.37-.72-2.04-1.1-.11-.07-.15-.27-.27-.47.23-.32.41-.76.74-1,1.19-.88,2.53-1.53,3.58-2.64.58-.61,1.56-.85,2.33-1.29.51-.29,1-.63,1.48-.97.27-.19.34-.92.14-1.27-.18-.3-.94-.63-1.21-.5-1.76.83-3.67,1.47-5.12,2.74-2.18,1.9-4.87,2.85-7.43,4.18-1.18-.51-2.32-1-3.34-1.44-1.34-.16-2.55-.3-3.76-.46-.12-.01-.32-.17-.33-.25-.01-.29-.05-.65.1-.85.37-.46.77-.93,1.26-1.25,2.86-1.88,5.68-3.82,9.1-4.72.72-.19,1.4-.54,2.04-.91.18-.1.27-.52.22-.77-.05-.26-.27-.6-.5-.7-.41-.18-.92-.35-1.32-.26-2.06.47-4.12.95-5.94,2.02-1.93,1.13-3.88,2.24-5.73,3.48-1.37.92-2.82,1.66-4.31,2.36-1.31.62-2.64.6-4,.08-.72-.28-1.4-.66-2.07-.99.16-1.09.82-1.71,1.51-2.26,1.04-.84,2.11-1.66,3.24-2.37,2.9-1.82,5.7-3.8,9.27-5.25h0ZM71.17,170.02c.97,1.47,1.92,2.9,2.87,4.33.46.68,1.2.79,1.99.29.26-.15.47-.37.72-.53.24-.17.51-.31.77-.46,1.09-.59,2.24-.33,2.65.9.5,1.49,1.43,1.94,2.77,2.02.76.04,1.58.21,2.29.06,1.68-.38,3.34.01,5.01.13,1.4.1,2.74.4,4.06.9.27.1.6.05.9.03.14,0,.28-.1.39-.19.23-.17.3-.48.06-.77-1.2-1.46-2.35-2.96-3.65-4.33-1.95-2.06-3.89-4.13-6.37-5.6-2.43-1.44-4.81-2.99-7.24-4.43-1.76-1.04-3.58-1.91-5.61-2.27-1.51-.27-2.98-.86-4.48-1.25-2.4-.64-4.77-1.45-7.27-1.37-1.07.04-2.13-.3-3.19-.46-3.34-.5-6.67-1.14-10.05-.63-1.79.27-3.67.07-5.5.09-2.14.03-4.28.12-6.43.11-2.33-.02-4.51.56-6.73,1.07-2.06.48-3.91,1.54-6.05,1.82-.57.07-1.09.47-1.61.75-2.92,1.54-5.46,3.64-8.12,5.55-2.05,1.47-3.86,3.3-5.2,5.49-.38.63-.61,1.36-.89,2.05-.15.37.19,1.03.61,1.11.59.12,1.2.22,1.8.22.67,0,1.25-.45,1.28-1.04.1-2.44,1.4-4.19,2.82-5.76,2.98-.4,2.97-.42,4.65-1.79,1.85-1.5,3.71-2.98,5.62-4.4.58-.43,1.3-.69,2-.93.19-.06.61.18.79.4.16.19.27.59.18.8-.16.41-.42.81-.74,1.09-1.22,1.09-2.42,2.21-3.75,3.18-2.67,1.95-4.8,4.43-6.96,6.88-.09.1-.08.29-.12.44.24.64.75,1.13,1.36,1.08,2.43-.21,4.83-.57,6.96-1.54.76-.84,1.26-1.74,2.14-2.37,1.33-.96,2.56-2.04,3.81-3.1,2.03-1.75,4.04-3.52,6.08-5.27.33-.29.74-.5,1.12-.74.42-.28,1.22-.12,1.65.44.25.34.35.79.51,1.18-2.03,1.69-3.98,3.28-5.89,4.93-.44.38-.75.9-1.1,1.38-.05.07-.03.28.04.35.1.1.3.21.4.17,2.36-.95,4.6-2.13,7.06-2.88,1.11-.34,2.05-1.21,3.01-1.9,1.8-1.3,3.57-2.66,5.36-3.97.35-.26.79-.42,1.19-.62.29-.15.94.15,1.14.59.11.25.14.6.06.86-.24.75-.87,1.18-1.47,1.63-.59.45-1.23.85-1.47,1.72,1.16.41,2.32.83,3.47,1.25.3.11.58.24.88.31.3.07.63.16.9.08,1.27-.35,2.41.3,3.6.58.9.21,1.76.63,2.71.53.34-.04.95-.47.94-.81-.03-.6-.01-1.21-.14-1.8-.2-.91-.41-1.81-.27-2.73.21-1.44,1.6-3.11,3.6-2.37.58.21,1.12.53,1.67.79.64.97,1.21,1.9,1.85,2.79.37.51.83.95,1.26,1.41.36.38,1.32.6,1.72.35.89-.54,1.76-1.11,2.65-1.65.78-.47,1.52-.08,2.02,1.04-.79,1.75-2.77,2.72-3.1,4.8h0ZM115.38,210.39c-.6.36-1.23.73-1.86,1.11-.13-.29-.36-.55-.34-.79.03-.45.18-.88.28-1.32.5-2.21.98-4.43.84-6.76-.1-1.59.4-3,1.04-4.36.39-.81.94-1.54,1.88-1.81.89.37,1.64.93,2.15,1.76.25.4.45.83.65,1.25.84,1.8,2.24,2.54,4.14,2.39.25-.02.53.21.8.32.09.13.25.25.26.38.26,3.98.54,7.94.03,11.9-.47,3.63.44,7.34.56,11.01.04,1.24.45,2.42.71,3.62.7,3.31,1.21,3.69,4.4,4.72.15.05.28.14.5.24,1.03,1.71.39,3.55.62,5.22-.52,1.07-.98,2-1.44,2.96.07,1.23-.05,2.49.24,3.67,1.06,4.22.65,8.59,2.07,12.77.24,2.14.49,4.28.73,6.42.06.53-.75,1.11-1.27.88-.57-.26-1.11-.57-1.89-.97-.69.06-1.59.18-2.49.18s-1.84-.11-2.75-.19c-1.14-.1-2.03.52-3.25.91-2.21-.66-4.64-.67-7.1-.63-.72,0-1.48-.82-1.43-1.55.12-1.67.29-3.34.39-5.01.04-.75-.02-1.52-.06-2.28-.03-.56-.61-1.21-1.15-1.35-.67-.18-1.23.04-1.61.51-.37.45-.71.99-.83,1.55-.45,2.06-.77,4.16-1.2,6.23-.12.57-.42,1.11-.66,1.65-.14.32-.88.52-1.21.35-.43-.23-.86-.58-.81-1.04.19-2.13.56-4.27,1.63-6.06,1.72-2.88,2.43-6.09,3.1-9.35.27-1.33.67-2.63.95-3.96.49-2.35,1.35-4.61,1.06-7.15-.11-.89.16-1.81.34-2.7.76-4,1.27-8.06,2-12.06.66-3.55.89-7.2,1.27-10.82.08-.82-.33-1.48-1.24-1.8h0ZM119.93,108.2c.19-.37.54-1.03.98-1.86.04-.56.1-1.31.16-2.07.18-2.58.45-5.13.88-7.68.6-3.57.98-7.2,1.52-10.78.61-4.03,1.71-7.97,3.56-11.59.54-1.07.87-2.19,1.2-3.36,1.13-4.06,2.24-8.12,4.13-11.89,1.26-2.53,2.09-5.29,3.09-7.96.85-2.25,2.01-4.36,2.82-6.6,1.04-2.87,2.43-5.43,4.41-7.7.58-.66,1.01-1.47,1.44-2.25,1.08-1.96,2.03-4,3.19-5.91,2.19-3.6,4.9-6.72,8.48-8.69,1.75-.07,2.56.96,3.02,2.12.58,1.43,1.1,2.95,1.28,4.45.31,2.74.64,5.5.13,8.23-.21,1.18-.18,2.42-.29,3.64-.06.6-.14,1.21-.27,1.8-.13.58-.34,1.15-.53,1.79-1.29.8-2.91.64-4.3,1.16-.11.04-.29-.05-.41-.12-.12-.07-.21-.21-.3-.31.24-2.15,1.24-3.98,2.18-5.54.32-1.66-.36-2.98-.27-4.25-.55-.38-.93-.65-1.27-.89-1.12.21-2.11.53-2.77,1.44-1.5,4.88-3.46,9.57-5.47,14.23-.53,1.24-1.18,2.41-1.4,3.79-.07.44-.25.87-.44,1.27-2.76,5.7-4.19,11.88-5.51,18.08-.85,3.98-1.49,8.02-2.24,12.02-.08.45-.21.88-.35,1.31-1.78,5.14-2.53,10.55-3.35,15.94-.73,4.79-1.31,9.61-2.32,14.34-.35,1.62-.73,3.27-.75,4.93-.05,3.39-.85,6.6-1.41,9.87-.39,2.22-1,4.41-.77,6.77.14,1.38-.24,2.72-.71,4-.19.51-.91.76-1.51.58-2.44-.74-3.98-2.43-4.94-4.7-.36-.86-.64-1.76-.83-2.67-.13-.59-.13-1.23-.06-1.82.09-.75.29-1.48.5-2.21.51-1.76.57-3.57.45-5.43-.32-5.05-.59-10.1-.9-15.49h0ZM48.51,27.84c.17-.76.34-1.49.5-2.23.23-1.06.75-1.95,1.38-2.8.56-.76,1.27-1.33,2.29-1.12,1.14.24,2.21.15,2.99-.61,1.52-1.48,3.49-1.6,5.48-1.69,1.27.14,2.33.85,3.4,1.49.79.47,1.12,1.62.74,2.44-.19.41-.34.85-.61,1.19-1.19,1.51-1.65,3.51-3.12,4.87-1.29-.78-1.78-2.13-2.48-3.33-.39-.67-.81-1.33-1.22-1.99-.16-.25-.94-.43-1.28-.33-.37.1-.88.66-.85.97.11,1.2.64,2.36.37,3.62-.11.5.27,1.2.58,1.73.63,1.08,1.34,2.12,2.07,3.15,1.18,1.66,2.37,3.29,3.24,5.16.78,1.68,1.95,3.22,3.1,4.71,1.92,2.51,3.73,5.06,5.22,7.83.59,1.1,1.34,2.13,2.13,3.11,2.09,2.59,3.65,5.49,5.19,8.39.88,1.66,1.83,3.28,2.7,4.94.8,1.52,1.55,3.06,2.39,4.56,1.29,2.32,2.35,4.77,3.36,7.21.84,2.03,1.74,4,2.8,5.93,1.44,2.6,3.1,5.11,3.67,8.07,1.71,3.18,2.74,6.61,4.14,9.91,1.95,4.6,3.72,9.26,5.49,13.92.88,2.33,1.56,4.72,2.41,7.05.8,2.19,1.72,4.35,2.54,6.53.33.87.61,1.77.75,2.67.05.32-.4.68-.63,1.04-2.06-1.2-3.46-2.94-5.06-4.43-.69-.65-1.16-1.49-1.41-2.41-.61-2.27-1.8-4.31-2.95-6.36-.76-1.36-1.33-2.85-2.23-4.13-1.35-1.91-2.44-4.05-4.33-5.57-.36-.29-.66-.69-.9-1.08-1.1-1.78-2.61-3.14-4.29-4.34-.91-.65-1.63-1.44-2.15-2.45-.43-.82-1.05-1.56-1.6-2.32-.83-1.14-1.68-2.27-2.55-3.39-.47-.62-.91-1.3-1.51-1.79-1.25-1.03-2.06-2.37-2.9-3.69-.73-1.15-.63-2.03.21-2.88,1.18-1.2,2.57-2.02,4.27-2.32.45-.08.9-.13,1.36-.17,2.31-.19,2.93-2.47,2.39-4.48-.11-.4-.5-.92-.86-1.04-2.21-.74-4.42-1.66-6.68-2-2.93-.44-5.63-1.78-8.56-2.16-1.6-.21-2.87-1.32-3.57-2.82-1.45-3.1-3.17-6.13-3.54-9.58-.06-.6-.23-1.23-.51-1.79-1.92-3.94-2.92-8.2-4.85-12.15-1.43-2.94-2.69-5.98-3.82-9.04-.7-1.88-1.14-3.87-1.5-5.83-.49-2.72-.8-5.47-1.18-8.19h0ZM144.74,148.31c-.12.7.21,1.44-.53,2.05-1.17.97-1.55,2.52-2.29,3.81-.59,1.03-1.06,2.14-1.93,2.99-.49.48-1.56.53-2.09-.02-.43-.45-.95-.9-1.17-1.44-1.04-2.61-2.19-5.16-3.74-7.55-.41-.62-.52-1.45-.69-2.2-.06-.26.11-.56.16-.76.15-.17.22-.37.34-.39.89-.12,1.8-.2,2.76-.3,1.28-.99,2.43-2.14,3.79-3.07,1.73-1.18,3.01-2.8,3.72-4.91.71-2.12,1.74-4.12,2.56-6.21.27-.69.4-1.46.44-2.22.13-2.48.79-4.76,1.86-6.93.39-.81.79-1.63,1.05-2.48.55-1.75,1.57-3.23,2.45-4.78.36-.64.85-1.22,1.32-1.8,2.67-3.38,4.9-7.11,7.73-10.37.39-.44.82-.86,1.3-1.21,1.1-.79,2-1.76,2.88-2.79.67-.79,1.47-1.47,2.18-2.23.82-.86,1.78-1.65,2.36-2.66.84-1.47,1.94-2.62,3.29-3.58.37-.26.77-.49,1.07-.8,1.55-1.6,2.98-3.33,4.65-4.8,1.55-1.37,3.44-2.33,4.85-3.91.78-.88,1.82-1.53,2.76-2.25,1.64-1.27,3.62-2.09,4.96-3.76.35-.44.98-.66,1.49-.97,2.43-1.46,4.85-2.94,7.31-4.36.9-.52,1.88-.9,2.85-1.31,1.1-.47,2.24-.85,3.33-1.36,2.2-1.03,4.61-1.32,7.03-1.58.6-.07,1.45.89,1.47,1.57.08,2.03-.49,3.9-1.14,5.75-1.54,4.4-3.66,8.53-5.64,12.72-.31.67-.73,1.3-1.18,1.89-1.88,2.49-3.44,5.24-5.63,7.49-.2.21-.39.45-.54.7-2.5,3.91-5.85,7.12-8.77,10.68-1.23,1.5-2.49,2.96-3.76,4.42-.68.79-1.36,1.58-2.14,2.28-2.78,2.49-5.16,5.32-7.21,8.46-.88,1.37-2,2.6-3.16,3.76-2.34,2.34-4.12,5.09-5.65,8-.85,1.6-1.86,3.06-3.15,4.31-1.19,1.15-2.08,2.5-2.94,3.91-1.01,1.65-2.17,3.2-3.34,4.92-2.6,1.29-5.4,2.28-8.52,2.27-.63-.36-.92-.92-.68-1.53.33-.83.95-1.54,1.21-2.38.75-2.48,2.57-3.54,4.99-3.9.9-.13,1.82-.19,2.72-.33.6-.09,1.21-.18,1.77-.37.41-.14.77-.45,1.14-.7.25-.18.4-1.06.18-1.27-.21-.2-.48-.45-.74-.49-1.67-.26-3.34.38-5.02-.27-.31-.12-.46-.36-.4-.72.06-.29.1-.6.25-.85,1.02-1.65,2.09-3.26,3.11-4.92.74-1.22,1.79-2.03,3.21-2.23,2.74-.39,5.13-1.67,7.73-2.41.29-.08.59-.79.53-1.15-.1-.59-.84-1.25-1.29-1.18-.3.04-.61.04-.88.12-.58.16-1.13.4-1.72.55-1.17.29-2.35.54-3.44.78-.61-.21-.91-.63-.74-1.05.67-1.67,1.6-3.2,2.7-4.76,1.29-.21,2.66-.33,3.95-.67,1.34-.36,2.7-.39,4.06-.52.75-.07,1.51-.19,2.21-.43.38-.13.69-.54.96-.87.35-.45-.07-1.33-.61-1.48-1.23-.33-2.44-.22-3.65-.12-1.05.09-2.09.34-3.23-.02-.26-1.36.93-1.77,1.49-2.51.52-.69,1.34-1.15,2.03-1.71.8-.66,1.6-1.32,2.5-2.07,1.86-.31,3.8-.64,5.75-.97,1.52-.25,2.9-.81,4.08-1.78.17-.15.25-.54.2-.8-.05-.26-.26-.61-.49-.72-.4-.19-.9-.38-1.31-.31-1.04.17-2.04.52-3.09.69-.39.06-.85-.19-1.37-.32.13-.5.12-1.03.37-1.33,1.76-2.21,3.48-4.45,5.56-6.39,1.38-1.28,2.85-2.15,4.81-2.07,2.03.08,3.91-.42,5.8-1.01.21-.4.41-.78.58-1.12-.39-.88-1.03-1.24-1.87-1.27-.58-.02-1.2.14-1.66-.58.33-.27.62-.67,1.01-.81,1.41-.5,1.95-1.72,2.49-2.94.76-.17,1.5-.29,2.2-.51.25-.08.44-.38.6-.62.31-.48-.02-1.44-.53-1.57-1.48-.38-2.97-.74-4.25-1.05-1.44.4-2.37,1.09-2.97,2.2-1.1,2.03-2.78,3.57-4.7,4.68-3.45,2-5.99,4.87-8.46,7.85-.85,1.03-1.68,2.08-2.5,3.15-1.81,2.37-3.82,4.57-5.97,6.63-2.7,2.58-4.88,5.55-6.89,8.72-2,3.15-3.89,6.35-5.49,9.74-.38.8-.93,1.52-1.42,2.26-.82,1.25-1.76,2.42-2.47,3.72-1.78,3.28-3.42,6.64-5.18,9.94-1.26,2.37-2.6,4.69-3.91,7.03h0ZM111.79,29.62c-.76.01-1.51.03-2.17.03-.25.37-.51.6-.56.87-.12.59-.19,1.2-.18,1.8.06,3.59.65,8.81,1.45,13.27.08.45.12.91.09,1.36-.3,4.46-.24,8.08.25,12.34.49,4.27,1.02,8.55,1.47,12.82.13,1.21.22,2.47.05,3.65-.35,2.42-.37,4.85-.28,7.31.02.45-.06.9-.12,1.53-1.06,1.44-2.16,3.02-2.9,4.82-.09.22-.45.31-.7.47-.9-.97-1.27-2.15-1.4-3.38-.15-1.38-.28-2.74-1.02-4.01-.3-.52-.29-1.21-.51-1.78-.81-2.04-.77-4.26-1.7-6.27-.92-1.98-1.78-3.98-2.59-5.82.02-.48-.04-.81.06-1.08,1.02-2.71,1.3-5.56,1.22-8.5-.05-1.83.04-3.67.03-5.5,0-1.37,0-2.75-.11-4.13-.43-5.2-.89-10.4-1.37-15.6-.07-.76-.31-1.51-.42-2.27-.08-.6-.11-1.22-.09-1.82.05-2.6.2-5.18.16-7.78-.03-2.79.3-5.45,1.48-7.94.31-.66.52-1.43.56-2.17.15-2.18.93-4.1,1.85-5.95.13-.12.23-.23.35-.33.85-.68,1.8-1.11,2.94-.72,1.08.37,1.82,1.19,2.44,2.12.09.13.17.27.23.41.59,1.44,1.18,2.88,1.75,4.27-.09.73-.45,1.16-1.06,1.37-.71.24-1.45.43-2.13.72-.4.17-.8.45-1.07.78-.94,1.16-1.64,2.48-2.16,3.89-.17.44.13,1.33.57,1.67.5.38,1.3.48,1.71.15.57-.47,1.15-.94,1.64-1.48.9-.99,1.74-2.03,2.91-2.74.6-.36,1.59-.15,2.01.52.17.26.32.54.43.83.17.43.3.87.49,1.46-1.46,2.85-2.95,5.76-4.39,8.57.27.89.49,1.62.71,2.36,1.05-.58,2.05-1.18,2.69-2.26.45-.75,1.08-1.39,1.65-2.05.07-.09.38-.11.41-.07.14.25.26.53.34.81.04.13,0,.31-.08.43-1.17,1.89-2.16,3.88-3.41,5.7-.4-.2-.82-.27-.9-.47-.27-.71-.43-1.47-.63-2.2h0ZM182.69,128.02c.12.96-.22,1.76-.83,2.41-.9.96-2.01,1.64-3.3,2.01-.17.05-.44-.22-.74-.38,1.07-1.4,2.33-2.59,3.73-3.62.31-.24.82-.23,1.24-.33.23-1.46,1.16-2.48,2.37-3.05,3.8-1.8,7.16-4.29,10.71-6.48,3.24-1.99,6.74-3.19,10.58-3.53.25-.02.62.16.79.37.17.19.26.58.19.82-.18.57-.39,1.16-.74,1.63-1.06,1.43-2.17,2.82-3.31,4.2-.38.46-.95.75-1.3,1.22-1.61,2.17-3.56,3.9-5.87,5.38-2.1,1.36-3.9,3.2-5.72,4.95-2.79,2.67-5.49,5.44-8.23,8.17-1.15,1.15-2.48,2.13-3.39,3.53-.23.36-.58.69-.94.93-3.05,1.96-5.44,4.6-7.74,7.35-.49.58-1.07.99-1.71,1.4-1,.63-1.89,1.42-3.05,2.31-.8,0-1.86,0-2.91.04-1.06.04-2.09.37-3.18.03-.13-.04-.28-.14-.33-.24-.06-.13-.06-.34,0-.44.34-.48.68-.97,1.08-1.39,3.21-3.39,3.12-3.58,7.83-3.1.78.08,1.52-.02,2.14-.71-.14-.36-.22-.83-.48-1.17-.28-.36-.74-.58-1.08-.89-.31-.28-.37-.99-.13-1.26.89-1,1.76-2.02,2.7-2.97.4-.42.95-.7,1.42-1.04,1.42.09,2.78.22,4.15.26.77.02,1.47-.27,2.06-.77.25-.22.45-.85.27-1.24-.12-.26-.34-.6-.58-.68-.72-.22-1.48-.31-2.21-.5-.39-.1-.64-.85-.43-1.16.17-.24.27-.58.5-.73,1.24-.82,2.49-1.62,3.78-2.36.67-.39,1.46-.35,2.23-.17,1.44.34,2.71-.14,3.96-.63.13-.05.21-.2.41-.4-.1-.51-.21-1.11-.36-1.87,0,.04,0-.14.07-.24.7-.96,1.43-1.87,1.6-3.14.03-.28.67-.59,1.07-.62.9-.07,1.83.05,2.74.04.48,0,.82-.3.97-.76.15-.48-.05-.91-.37-1.26-.56-.61-1.31-.94-2.09-.93-2.59.02-5.18.1-7.6,1.01h0ZM104.41,254.92c.84-.46,1.03-1.36,1.41-2.14.06-.12.05-.29.02-.43-.02-.14-.08-.29-.16-.39-.19-.24-.43-.19-.68.1-.76.86-.52,1.94-.47,2.97-.11.06-.32.12-.32.18,0,.16-.71.45.08.45.05,0,.09-.48.12-.74h0ZM184.99,119.74c.44-.09.94-.06,1.3-.27,1.42-.84,2.9-1.61,4.14-2.66,1.84-1.55,3.99-2.61,6.04-3.8,1.66-.96,3.55-1.57,5.4-2.18,1.42-.47,2.92-.73,4.41-1.03,1.67-.33,3.34-.19,5,.39,1.32.46,2.12,1.43,1.91,2.83-.43,2.83-.78,5.7-2.94,7.85-.83.83-1.46,1.88-2.17,2.83-.18.24-.3.53-.5.74-1.32,1.4-2.75,2.71-3.97,4.2-1.25,1.52-2.73,2.73-4.4,3.75-.63.38-1.23.85-1.78,1.33-1.57,1.38-3.12,2.76-4.64,4.19-.87.81-1.78,1.61-2.45,2.58-.77,1.13-1.66,2.07-2.77,2.86-.96.69-1.81,1.54-2.68,2.34-.88.8-1.65,1.74-2.61,2.43-2.57,1.83-4.64,4.17-6.75,6.46-1.51,1.64-2.98,3.32-4.45,4.99-.08.09-.12.32-.06.41.15.24.35.47.57.66.1.09.28.12.43.13,2.84.2,6.4.09,9.57-.28,1.21-.14,2.43-.21,3.66.07,3.61.83,7.27,1.41,10.85,2.36.75.2,1.53.36,2.21.72,2.94,1.5,6.07,2.47,9.11,3.68,2.36.94,4.42,2.25,6.21,4.14,1.95,2.06,4.07,3.96,6.16,5.87,1.64,1.5,3.09,3.14,4.23,5.04.9,1.48,1.98,2.82,3.2,4.08,1.66,1.7,3.13,3.55,4.06,5.75.38.89.47,1.8.17,2.7-.09.29-.22.56-.31.85-.73,2.58-2.76,2.85-4.62,2.03-1.7-.76-3.48-1.3-5.08-2.37-1.43-.96-3.03-1.65-4.55-2.45-1.95-1.03-3.84-2.14-5.47-3.67-.46-.43-.95-.83-1.48-1.18-3.29-2.15-6.59-4.29-9.89-6.43-1.35-.88-2.8-1.5-4.38-1.33-2.8.3-5.49-.52-8.19-1.13-1.23-.28-2.41-.52-3.64-.44-1.07.06-2.16.06-3.18.3-1.43.33-2.72-.09-4.29-.68-.49-.5-1.14-1.18-1.82-1.82-.46-.43-.97-.8-1.46-1.2-.54-.42-1.42-.58-1.69-.22-.25.33-.47.78-.47,1.18.01,1.07.18,2.14.25,3.21.05.76.05,1.53.04,2.29-.03,1.58-2.19,2.58-3.38,2.06-.28-.13-.59-.22-.84-.41-1.29-1.02-2.81-1.42-4.33-1.68-2.15-.36-4.24-.95-6.28-1.72-1.81-.69-3.61-.85-5.44-.51-1.64.3-3.32.5-4.88,1.02-2.02.67-3.8,1.79-4.97,3.64-.88,1.38-1.75,2.78-2.54,4.21-.36.64-.61,1.38-.74,2.11-.63,3.58-1.35,7.13-2.06,10.69-.57,2.81-1,5.67-.78,8.61.07.91.05,1.85-.09,2.74-.34,2.1-.46,4.23-.51,6.37-.02,1.06-.24,2.11-.37,3.13.21,1.24,1.45,1.64,2.05,2.54.46.68.87,1.42.62,2.16-.55,1.6-.68,3.24-.52,4.95.06.61.15,1.27-.03,1.82-.77,2.39-.04,4.87-.11,7.29-.02.59.14,1.23.34,1.8,1.19,3.39,1.59,6.93,2.67,10.35.09.29.15.6.15.91.11,3.23.8,6.4,1.51,9.58.33,1.51.49,3.03,1.25,4.44.22.39.26.89.34,1.34.24,1.34-.86,2.82-2.19,2.91-1.37.09-2.74.1-4-.78-.8-.56-1.74-.7-2.67-.68-2.14.07-4.28.22-6.39-.59-4.13-.08-8.26-.18-12.39-.22-.76-.01-1.51.19-2.24.38-.9.23-1.79.35-2.72.09-1.38-.4-2.74-.4-4.1-.09-.44.09-.9.16-1.36.17-2.18.04-4.21.54-6.14,1.44-.4.19-.86.27-1.33.41-.42-.14-.9-.21-1.29-.44-1.04-.58-1.62-1.68-1.44-2.7.13-.74.27-1.51.59-2.17.79-1.63,1.19-3.39,1.75-5.1.83-2.56,1.83-5.07,2.75-7.61.31-.84.69-1.67.87-2.55.41-1.93,1.02-3.78,1.62-5.64.37-1.14.62-2.33.83-3.53.84-4.76,1.66-9.53,2.48-14.31.15-.89.25-1.8.37-2.7.17-1.2.33-2.4.5-3.6.11-.75.31-1.49.3-2.25-.02-1.55.31-3.01.58-4.51.46-2.53.83-5.08,1.27-7.81-.43-1.3-.93-2.77-1.45-4.33.14-.35.25-.79.46-1.17.22-.38.54-.69.92-1.15-.05-.82-.18-1.74-.13-2.64.05-.9.29-1.77.41-2.48-.29-1.33-1.26-2.01-1.87-2.91-.61-.91-1.18-1.85-1.86-2.72-.38-.48-.89-1.09-1.41-1.2-1.99-.4-3.06-2.14-4.65-3.12-1.37-1.81-3.28-2.89-5.28-4.06-.8-.15-1.74-.24-2.62-.51-1.39-.43-2.74-.45-4.09-.16-.91.2-1.8.19-2.73.02-1.99-.38-3.98-.47-5.97-.38-2.19.11-4.27-.68-6.34-1.32-1.19-.37-2.15-1.26-2.76-2.44-.58-1.11-1.14-2.21-1.37-3.46-.1-.57-.47-1.14-.82-1.64-.3-.42-.77-.4-1.37-.1-.06.45-.12,1.05-.22,1.63-.14.82-.64,1.31-1.56,1.5-.34-.11-.83-.17-1.22-.39-1.55-.88-3.17-1.28-4.89-1.33-1.08-.03-2.15-.11-3.19-.52-3.28-1.3-6.65-1.29-10.02-1.18-.61.02-1.21.1-2.08.17-1.43.59-2.92,1.63-4.8,1.8-.88.08-1.76.49-2.53.92-1.98,1.08-4.15,1.73-6.18,2.66-1.25.57-2.51.99-3.84,1.28-1.33.29-2.65.65-4,.85-2.4.36-4.78.78-7.26.64-2.45-.14-4.9-.02-7.35-.03-1.07,0-2.15-.03-3.22-.1-1.1-.07-2.33-1.18-2.62-2.4-.1-.42-.07-.97.13-1.32.94-1.7,1.91-3.38,2.94-5.01.79-1.26,1.72-2.43,2.55-3.67,1.07-1.65,2.43-3.01,4.06-4.1,1.24-.83,2.48-1.66,3.73-2.49,1.11-.74,2.26-1.44,3.34-2.24,1.33-.98,2.7-1.84,4.27-2.43.84-.32,1.62-.76,2.44-1.13.54-.25,1.08-.56,1.66-.68,2.38-.47,4.76-.89,7.16-1.27,1.35-.21,2.71-.39,4.07-.47,1.67-.1,3.36-.18,5.04-.06,1.85.13,3.67.3,5.47-.12,3.98.24,7.98.02,11.93.9,2.12.47,4.24.85,6.39,1.09,2.93.31,5.83.78,8.06,2.56,1.1.07,1.86.12,2.77.18,2.64,1.43,5.39,2.95,8.16,4.42,1.94,1.03,3.54,2.62,5.6,3.46.4.16.77.57,1.03.94.46.67,1.04,1.16,1.73,1.55.54.31,1.13.61,1.55,1.06,3.23,3.45,6.62,6.76,9.43,10.56.36.49.52,1.12.81,1.67,1.39,2.63,2.9,5.19,4.56,7.66.06.09.29.11.43.11.11,0,.28-.08.31-.17.11-.27.24-.57.22-.86-.08-.91-.11-1.86-.38-2.73-1.07-3.42-1.84-6.88-2.46-10.38-.11-.6-.21-1.22-.43-1.8-.97-2.62-1.98-5.24-2.9-7.65-.63-.65-1.21-.81-1.83-.92-3.72-.6-6.61-2.53-8.78-5.69-.89-1.29-1.88-2.52-2.85-3.76-1.15-1.5-2.48-2.89-3.45-4.49-1.42-2.33-3.42-4.1-5.26-6.04-.91-.95-2.09-1.45-3.31-1.67-.88-.17-1.81.05-3.01.11-.7-.39-1.68-.88-2.61-1.46-.98-.61-1.45-1.75-1.25-2.81.19-1.04.43-2.07.57-3.12.09-.62-.15-1.19-.7-1.61-.98-.07-1.78.35-2.45.96-.66.6-1.25,1.27-1.81,1.97-.87,1.1-2.05,1.2-3.3.83-.88-.27-1.83-.63-2.49-1.24-2.78-2.56-6.16-3.71-9.63-4.66-1.35-.37-2.72-.56-3.93-1.4-.37-.26-.85-.4-1.3-.49-2.12-.42-4.24-.79-6.36-1.2-.46-.09-.91-.18-1.36-.3-2.85-.79-5.74-1.27-8.66-1.52-1.06-.09-2.18-.26-3.16-.7-2.29-1.02-4.77-1.47-6.95-2.78-3.19-.97-5.96-2.69-8.43-4.97-3.28-1.63-4.72-4.94-6.95-7.15.1-1.36.58-2.08,1.46-2.83.67-.16,1.54-.42,2.43-.55,1.65-.23,3.31-.33,4.92-.84,1.6-.5,3.33-.29,5.01-.19,3.41.21,8.74-.2,12.25-.91,3.61-.74,7.31-.63,10.97-.05,2.61.41,5.19.78,7.8.68,2.03-.08,3.99.32,5.85,1.25,2.1,1.05,4.37,1.68,6.39,2.94.64.4,1.45.59,2.2.75,3.38.73,6.39,2.43,9.48,3.92,1.57.75,2.98,1.75,4.31,2.88.72.61,1.39,1.29,2.14,1.87,1.36,1.06,2.78,2.05,4.17,3.07,2.53,3.21,5.07,6.42,7.6,9.62.48.61.95,1.25,1.46,1.84,2.28,2.64,4.13,5.54,5.58,8.68.33.71.68,1.42,1.13,2.05,2.47,3.49,3.97,7.46,5.92,11.21.22.41.45.84.57,1.28.97,3.6,2.45,7.03,3.79,10.52.89,2.31,1.34,4.77,2,7.16.12.43.28.86.46,1.4.15-.35.34-.58.34-.81,0-1.99.11-3.99-.12-5.97-.42-3.66-.51-7.36-1.51-10.98-.33-1.19.21-2.07,1.13-2.72.24-.17.54-.27.8-.4.61-.29.88-.85.8-1.48-.47-3.85-1.63-7.55-3.12-11.17-.31-.74-.89-1.29-1.61-1.66-1.25-.67-2.49-1.33-3.76-1.95-2.61-1.27-4.61-3.23-6.31-5.55-.27-.38-.54-.78-.72-1.2-1.74-4.03-4.32-7.65-6.07-11.67-1.37-1.9-2.46-3.98-4.16-5.69-1.77-1.77-3.29-3.8-4.95-5.7-.72-.83-1.42-1.72-2.26-2.41-2.22-1.83-3.9-4.12-5.59-6.36-2.28-3-4.29-6.19-6.37-9.33-.69-1.03-.53-2.15.28-2.92.97-.92,1.98-1.8,2.94-2.74.41-.4.72-.9,1.03-1.29-.31-.79-.83-1.14-1.46-1.26-1.67-.32-3.34-.6-5.01-.9-.74.19-1.46.38-2.31.6-2.27-.49-3.78-1.9-4.44-4.22-.52-1.79-1.1-3.56-1.93-5.25-.2-.42-.37-.88-.44-1.33-.64-4.31-2.43-8.34-3.91-12.43-1.27-3.5-2.46-7.06-4.47-10.29-.33-.53-.58-1.12-.77-1.71-1.84-5.63-3.51-11.29-3.93-17.16-.05-.76-.06-1.53-.14-2.3-.28-2.72.49-5.09,1.88-7.31,1.26-2.01,2.89-3.38,5.48-3.38.94-.71,1.88-1.43,2.66-2.01.52-.13.81-.24,1.11-.26,1.06-.1,2.14-.11,3.19-.25,2.97-.41,5.79.38,8.57,1.52.43.18.85.41,1.23.68.52.36,1.08.71,1.45,1.19,1.46,1.89,3.74,2.85,5.11,4.88,2.2,3.25,4.57,6.4,6.52,9.81,1.71,2.99,3.49,5.94,5.17,8.95.99,1.77,2.26,3.39,3.43,5.07,1.51,2.19,3.33,4.21,4.12,6.81,1.62,2.21,2.29,4.78,3.06,7.31.19.62.62,1.05,1.3,1.14-.07-4.12-.02-8.25-.26-12.37-.31-5.2-.78-10.41-1.58-15.6-.16-1.06-.15-2.13-.18-3.2-.01-.61.22-1.24.08-1.81-.88-3.55-.02-7.01-.06-10.51-.02-1.65.32-3.36.85-4.9.74-2.14,1.26-4.34,1.69-6.56.45-2.36,1.81-4.12,3.34-5.73,1.28-1.34,3.03-1.88,5.02-1.38,3.06.77,5.39,2.49,6.62,5.47,1.25,3.02,2.57,6.03,3.91,9.01.76,1.7,1.38,3.44,1.81,5.27,1,4.21,2.24,8.38,3.39,12.57.16.6.53,1.18.57,1.77.35,4.6,1.98,9.07,2.07,13.7.03,1.37.19,2.74.61,4.1.27.88.31,1.82.43,2.73.16,1.21.3,2.42.49,3.9.43-.44.79-.65.93-.98,1-2.34,1.95-4.7,2.91-7.06,1.02-2.5,2.02-5.01,3.03-7.5.4-.97.88-1.91,1.24-2.89.62-1.71,1.46-3.3,2.49-4.76,1.39-1.96,2.56-4.03,3.6-6.19,2.17-4.5,5.24-8.31,8.71-11.82.85-.86,1.85-1.49,2.88-2.1,1.52-.92,3.17-.94,4.86-.43,3.36,1.01,5.2,3.44,5.91,6.69.46,2.11.69,4.26.93,6.4.18,1.53.03,3.04-.04,4.57-.22,4.88-1.18,9.64-1.46,14.51-.12,1.94-.66,3.89-1.3,5.7-.61,1.71-1,3.47-1.52,5.2-.55,1.87-.86,3.82-1.59,5.65-.38.96-.53,2.04-.69,3.09-.66,4.35-1.5,8.64-2.64,12.86-1.25,4.65-2.25,9.39-3.19,14.13-.27,1.34-.57,2.66-1.03,3.92-.83,2.28-1.48,4.57-1.54,7.06-.02.9-.3,1.78-.39,2.69-.03.26.19.57.3.85,1.89-1.38,2.29-1.73,3.46-3.88,1.3-2.37,2.86-4.54,4.64-6.56.29-.33.54-.73.89-1,3.77-2.96,6.83-6.62,10.09-10.08,2.55-2.71,5-5.53,8-7.76,2.82-3.13,6.33-5.39,9.84-7.66,2-1.3,3.87-2.78,5.81-4.16.48-.35,1-.65,1.51-.96,1.4-.86,2.83-1.68,4.18-2.59,1.25-.84,2.49-1.65,4.06-1.82.3-.03.63-.08.87-.24,3.31-2.08,7.34-1.63,11-2.45,2-.45,4.29,1.82,4.53,3.85.43,3.64-.32,7-1.54,10.25-.64,1.68-1.28,3.36-1.89,5.06-.5,1.41-1.18,2.75-1.82,4.1-.58,1.21-1.23,2.39-1.83,3.6-.8,1.61-1.69,3.18-2.93,4.48-1.85,1.95-3.35,4.19-4.87,6.39-2.46,3.57-5.27,6.84-8.05,10.14-.38.46-.77.93-1.23,1.29-3.57,2.77-5.87,6.71-9,9.89-.42.43-.65.99-.42,1.66-.42.06-.5.15-.26.25.02,0,.11-.22.17-.33Z"/>
      <path class="cls-1" d="M114.45,249.48c.52-1.46,1.02-3.03,1.66-4.53.28-.66.82-1.21,1.31-1.74.15-.17.55-.14.83-.14.36,0,.9.59.92.93.03.3.14.63.06.9-.75,2.74-1.26,5.54-1.82,8.33-.08.43-.31.82-.48,1.22-.12.29-.77.54-1.17.48-.35-.05-1-.57-1.06-.83-.07-.3-.19-.6-.2-.89-.03-1.21-.04-2.42-.06-3.74Z"/>
    </g>
  </g>
</svg>