<?xml version="1.0" encoding="UTF-8"?>
<svg id="Layer_2" data-name="Layer 2" xmlns="http://www.w3.org/2000/svg" viewBox="0 0 184.31 375.44">
  <defs>
    <style>
      .cls-1 {
        fill: #593826;
        fill-rule: evenodd;
      }
    </style>
  </defs>
  <g id="_Layer_" data-name="&amp;lt;Layer&amp;gt;">
    <path class="cls-1" d="M167.14,22.67l-.18.31.3.03-.12-.34h0ZM124.43,84.33c.11.09.23.27.34.26.59,0,1.09-.25,1.44-.72.08-.1.2-.33.17-.36-.17-.16-.4-.38-.59-.38-.6,0-1.03.38-1.34.87-.05.08-.02.22-.02.33h0ZM64.84,25.76c-.03-.14-.03-.29-.09-.4-.4-.69-.98-1.18-1.73-1.45-.09-.04-.26.05-.33.13-.08.09-.16.27-.13.39.25,1.01.94,1.52,1.94,1.6.11,0,.23-.18.35-.27h0ZM145.47,35.8c-.14-.24-.25-.51-.43-.72-.72-.8-1.79-.92-2.48.4-.12.23-.11.57-.05.84.07.34.71.62,1.11.53.72-.17,1.43-.37,1.85-1.04h0ZM99.55,54.67c1.18-4.72,1.22-5.07.77-6.89-.63.18-1,.63-1.08,1.23-.21,1.76-.29,3.56.06,5.35.03.11.16.2.25.31h0ZM152.11,33.96c.13.07.29.22.4.2,1.46-.28,2.92-.56,4.37-.89.53-.12.87-.83.78-1.44-.08-.5-.74-1.14-1.27-1.12-.44.02-.97.03-1.28.28-1.03.81-1.99,1.74-2.95,2.63-.06.06-.03.22-.03.33h0ZM114.43,77.84c-.01-.3.08-.65-.05-.86-.71-1.18-1.62-2.17-2.84-2.86-.32-.19-.96-.14-1.22.2-.34.46-.65.95-.87,1.48-.09.21.01.65.18.81,1.26,1.2,2.69,1.93,4.45,1.47.13-.04.24-.16.35-.24h0ZM97.36,42.12c.12-.24.33-.46.35-.73.03-.28-.04-.64-.19-.87-1.79-2.71-3.6-5.39-5.42-8.07-.08-.12-.23-.22-.36-.28-.09-.05-.26-.04-.32.02-.09.1-.2.25-.18.38.15,1.27,1.04,2.2,1.56,3.31,1.48,3.15,1.86,3.64,4.57,6.25h0ZM79.74,22.61c-1.53.94-3.24,1.52-4.66,2.6-.1.07-.1.28-.14.43.1.07.19.19.3.21.44.07.9.18,1.34.16.9-.06,1.84-.06,2.67-.34,1.24-.41,2.66-.23,3.89-1.01-.55-1.4-1.68-1.76-3.4-2.05h0ZM157.02,82.42c.84,1.16,2.19,1.48,3.43,1.81,1.52.41,2.87-.14,4.09-1.04-.53-1.26-2.04-1.28-2.71-2.33-.15-.23-.47-.38-.74-.48-.27-.1-.59-.17-.87-.14-1.34.22-2.57.67-3.2,2.17h0ZM124.46,44.37c1.57.13,2.92.25,4.28.35,1.69.14,3.32-.17,4.81-.83,1.62-.71,3.14-1.65,4.69-2.51.11-.06.13-.26.24-.5-2.54-.51-5.09-.05-7.53-.64-.76.35-1.44.66-2.11.98-1.71.81-3.46.81-5.27.11-1.27-.49-2.57-.93-3.87-1.35-.13-.05-.36.27-.64.49,1.45,1.68,3.23,2.85,5.39,3.9h0ZM141.65,78.62q-3-1-4.9-.84c-.3.03-.59.14-.89.12-1.4-.1-2.7-.46-3.61-1.7-.46-.62-.87-1.27-1.36-1.87-.69-.86-2.1-.78-2.71.2-.64,1.01-1.21,2.05-1.76,3.09-.2.37-.28.8-.43,1.22q3.24.44,5.96,2.13c2.45.49,4.77.17,6.93-1.1.85-.49,1.81-.83,2.77-1.27h0ZM107.55,294.81c-1.04.79-1.21,1.8-1.2,2.84.01,2.74-.19,24.23-.43,26.94-.2,2.12-.16,4.24.47,6.35.22.72.21,1.51.23,2.26.05,2.59.09,5.16.56,7.74.19,1.04.13,2.12.15,3.19.04,1.67.06,3.34.14,5.01.11,2.26-.19,4.54-.32,6.8-.97,2.97-.3,6.02.04,9.04.09.79.69,1.34,1.44,1.68.39.18,1,0,1.18-.39.13-.27.36-.56.31-.81-.5-2.56.36-5.16-.46-7.71-.09-.28-.06-.62,0-.91.29-1.21.11-2.38-.11-3.6-.27-1.5-.31-3.03-.41-4.55-.11-1.66-.12-3.34-.29-5.02-.26-2.59-.4-5.15-.4-7.75,0-1.66-.07-3.34-.35-5-.58-3.49-.78-6.95-.48-10.45.19-2.24-.01-23.3-.04-25.66h0ZM93.08,25.68c.85-.76,1.96-.62,2.99-.66.75-.04,1.58-.06,2.25.23,2.3,1,4.77,1.07,7.15,1.62,2.52.59,5.11.82,7.81,1.24-.29.54-.4,1-.7,1.26-2.32,2.12-4.74,4.1-6.87,6.41-.7.76-1.62,1.32-2.47,1.92-.67.47-1.96.15-2.47-.57-.27-.38-.51-.78-.76-1.16-2-2.94-3.86-5.98-6.3-8.6-.42-.44-.73-1.01-.62-1.69h0ZM105.13,79.45c-.13.53-.31.94-.34,1.39-.2,3.32-.61,6.6-1.18,9.86-.23,1.32-.16,2.71-.13,4.06.01.63.48,1.11,1.06,1.4,1.03.52,2.07.65,3.01-.05,1.07-.8,2.1-1.66,3.12-2.52,1.03-.85,2.03-1.73,3.11-2.67q1.13-2.68,3.39-5c.4-.42.71-.93,1.04-1.42.27-.39-.19-1.48-.65-1.52-.75-.07-1.5-.16-2.25-.13-1.39.06-2.68-.21-4.01-.71-1.74-.64-3.4-1.35-4.89-2.51-.29-.22-.82-.13-1.28-.18h0ZM84.16,28.35c-1.35.33-2.53.55-3.66.93-1.23.41-1.23,2.02-2.35,2.59-.29.04-.61.18-.86.1-1.72-.54-3.33-.17-4.88.46-.96.4-1.99.79-2.78,1.43-1.62,1.32-3.38,2.41-5.14,3.53-.08.05-.1.25-.08.36.04.14.12.3.24.38.25.16.54.36.81.37,2.74.14,5.46.38,8.17.93,1.18.25,2.42.19,3.64.26,1.06.06,2.12.1,3.15.15,1.94,1.15,3.91,1.93,6.12,1.97.73,0,1.47.38,2.22.54.29.06.61,0,.91,0,.35,0,.9-.62.79-.92-.31-.86-.73-1.68-.94-2.55-.4-1.67-1.11-3.19-2.15-4.55-1.14-1.5-1.99-3.11-2.39-4.94-.06-.26-.37-.47-.82-1.03h0ZM123.99,26.08c.8-.07,1.7-.21,2.61-.19,2.54.06,4.77-.7,6.75-2.18.59-.44,1.16-.92,1.59-1.28,1.15-2.53.35-5.34,1.47-7.57,2.3-.87,5.64-1.73,7.15-1.73,1.37,0,2.76,0,4.07.56,1.72.72,3.52,1.07,5.32,1.44,1.04.21,2.13.52,3.03,1.07,1.85,1.15,3.82,2.03,5.75,2.98.39.19.68.59.98.87-.02.23,0,.41-.07.52-.91,1.57-2.13,2.85-3.32,4.07-4.64,1.31-6.06,2.63-10.51,5.95-.86.18-1.4-.44-2.05-.84-1.34-.83-2.66-.64-3.89.07-.64.37-1.2.9-1.78,1.37-.93.76-1.84,1.52-2.76,2.3-1.18,1-2.42,1.09-3.77.2-.11-.07-.29-.06-.69-.12-2.82.91-4.95,3.56-8.3,4.25-1.87-.35-3.49-1.42-4.89-2.97-.7-.77-2.08-.91-2.98-.47-.4.19-.84.38-1.15.68-1.11,1.07-2.52,1.59-4.02,2.23-1.19,1.6-2.46,3.23-3.39,5.15-.93,1.89-2.27,3.51-3.72,5.03-.17.19-.5.22-.76.33-.97-.7-1.17-1.76-1.39-2.79.09-1.17.76-2.03,1.62-2.61,3.28-2.16,5.69-5.26,8.58-7.84,1.89-1.69,3.7-3.46,5.86-4.85,1.62-1.03,3.04-2.37,4.66-3.65h0ZM25.55,64.15c1.11-.67,1.92-1.59,3.12-1.96.92-.29,1.76-.39,2.63.15,2.39,1.49,4.65,3.09,5.8,5.81.11.27.35.54.59.69.23.15.64.29.82.18.49-.3.9-.74,1.35-1.1,1.03-.82,1.98-.84,2.87-.03.69.62,1.33,1.28,2.06,2,.75,0,1.52.13,2.24,0,.89-.15,1.73-.54,2.61-.73.61-.13,1.23.06,1.64.59,1.04,1.33,1.97,2.76,3.38,3.74.17.04.33.12.46.08,2.03-.42,3.27-.93,4.39-2.03,1.51-1.47,3.19-2.67,5.11-3.54,1.39-.63,2.56-1.55,3.54-2.7.58-.68,1.07-1.46,1.69-2.1.51-.53,1.15-.91,1.5-1.18,1.47-.33,2.59.94,3.78.14q-1.97-2.43-3.21-5.58c-.16-.41-.44-.78-.62-1.07-.42-.13-.72-.3-.99-.29-1.66.1-3.33.13-4.93.66-1.75.56-3.65.7-5.41.22-3.68-1.03-7.43-1.88-10.88-3.71-1.63-.87-3.32-1.62-4.78-2.14-1.26.11-2.03.54-2.72,1.16-.78.69-1.48,1.54-2.39,2-1.99,1.01-3.94,2.1-6.29,2.36-2.24.25-4.42.88-6.59,1.32-3.03-.79-5.99-1.56-8.91-2.33-2.1.67-4.28.49-6.26,1.38-1.9.85-4.04,1.18-5.75,2.37.08.41.04.79.21.97,1.09,1.17,2.62,1.58,3.94,2.38h2.63q4.62,2.5,7.81,3.26c.79-.21,1.65-.53,2.54-.68,1.03-.18,2.09-.2,3.05-.3h0ZM119.23,12.04c-.26.59-.74.99-1.34,1.09-.74.11-1.52.04-2.27.12-.44.05-.93.14-1.27.39-.35.24-.54.7-.81,1.08.2.88.41,1.75.62,2.68-1,.76-1.95,1.46-2.87,2.2-.41.32-.31,1.25.14,1.63.11.1.23.22.36.3.4.21.82.42,1.29.65.99-.28,2.03-.47,2.99-.85.68-.27,1.44-.63,1.86-1.18,1.12-1.5,2.61-2.44,4.35-3.21.37-1.29.74-2.59,1.12-3.94,1.98-1.09,4.14-1.71,6.29-2.36.12-.04.28.05.41.1.35.16.47.42.35.77-.15.42-.28.84-.45,1.26-.36.9-.31,1.76.23,2.61.17.26.36.51.51.78,1.09,1.89.55,4.09-1.33,4.99-.94.44-1.98.77-3.01.92-1.19.17-2.43.18-3.65.08-2.34-.18-4.55.23-6.67,1.07-.56.22-1.13.41-1.72.57-1.77.53-3.59.53-5.42.16-.61-.12-1.16-.42-1.56-1.07.02-.37.04-.81.07-1.27.09-1.28-.1-1.65-1.19-2.15-.41-.19-.87-.3-1.2-.41-1.45.05-2.04,1.39-3.48,1.78-.34-.09-.96-.16-1.49-.42-.97-.48-1.88-1.08-2.82-1.63-1.34-.22-2.69-.44-4.04-.69-1.24-.23-2.42-.17-3.58.31-.69.29-1.41.52-2.11.8-1.46.59-2.9.77-4.38-.16-.68-.42-1.46-.42-2.23-.35-1.22.12-2.39.38-3.48.94-1.34.67-2.7,1.3-4.02,2.02-1.07.57-2.18,1-3.3,1.2-3.38-.35-5.18-2.63-6.75-5.21-.24-.39-.34-.87-.59-1.26-.43-.66-1-1.23-1.8-1.36-2.17-.38-4.08-1.34-5.84-2.67-.47-.36-.45-1.29.07-1.56.53-.28,1.05-.63,1.61-.77,1.46-.37,2.94-.71,4.43-.94.74-.11,1.54-.1,2.27.07,3.31.8,6.7.54,10.03,1.15.59.1,1.25.11,1.82-.05,2.84-.83,5.72-.51,8.48-.05q2.71-1.36,5.08-4.09c1.15-.59,2.48-1.28,3.87-1.99.91.17,1.81.34,2.7.5,1.05.18,2.12.48,3.17.47,1.86-.02,3.64.47,5.5.82.46.36.96.72,1.44,1.12,2.25,1.88,4.72,2.89,7.65,2.44,2.09-.32,3.91.47,5.53,1.8.21.18.29.5.42.75h0ZM101.14,67.28c.02.6.1,1.2.05,1.79-.1,1.36-.39,2.71-.37,4.07.04,3.82-.58,7.55-1.06,11.29-.63,4.97-1.15,9.94-.86,14.98.03.46.08.92.13,1.38.1.85.93,1.69,1.84,1.83,1.38.22,2.72.22,4.06-.17,1.32-.4,2.53-.97,3.64-1.74,1.36-.93,2.67-1.94,4.02-2.88.61-.42,1.28-.78,1.97-1.06.19-.09.6.07.79.24.21.18.47.58.41.78-.17.55-.38,1.17-.77,1.56-2.33,2.33-4.71,4.6-6.99,6.83-.79.29-1.24-.09-1.71-.52-.34-.3-.77-.48-1.12-.68-1.07.26-1.59,1.04-1.83,1.9-.57,2.02-1.18,4.05-1.18,6.21,0,4.71-.36,9.41-.21,14.13.03.91.03,1.86-.17,2.72-.52,2.24-.48,4.52-.54,6.79-.05,1.82-.13,3.63-.34,5.45-.29,2.55-.22,5.16-.24,7.75-.01,2.09,2.64,3.7,4.28,2.98.68-.3,1.35-.62,2.16-.57.55.04,1.15.79.93,1.31-.18.41-.32.92-.64,1.16-2.79,2.09-3.83,5.28-5.04,8.34-.44,1.1-.61,2.33-.91,3.49,1.08,3.36,1.15,3.81,1.15,7.63,0,1.98.05,3.95.04,5.93,0,.76,0,1.54-.15,2.26-.17.77-.09,1.48.05,2.25.13.74.22,1.54.08,2.25-.3,1.51-.48,2.99.19,4.49.06.13.08.3.08.44-.09,4.41.95,8.81.42,13.22-.07.58.04,1.2.08,1.81.17,2.43.38,4.87.5,7.31.14,2.88.18,5.78.29,8.68.11,3.04.23,6.09.38,9.15.18,3.65.39,7.31.59,10.96,0,.16.02.3.05.46.78,3.7,1.71,5.1,6.05,3.97.99-.26,1.86-.95,2.79-1.41.8-.4,1.62-.77,2.45-1.12.31-.14,1.02.1,1.24.38.3.39.42.79.35,1.27-.09.64-.41,1.14-.91,1.49-.37.24-.84.32-1.23.55-.78.42-1.64.78-2.31,1.35-2.04,1.76-3.99,3.65-5.56,5.85-2,2.8-4.07,5.55-5.66,8.64-.54,1.05-1.4,1.93-2.09,2.91-.45.62-.64,1.33-.63,2.12,0,1.35,1.39,2.64,2.77,2.47.4-.05.87-.34,1.1-.67.43-.6.67-1.32,1.04-1.96.25-.44.68-.44,1.13-.23.07.13.21.26.22.4.18,2.28.42,4.56.5,6.85.1,2.74.13,5.48.76,8.19.17.74.18,1.52.19,2.28.02,1.63,0,3.27,0,5.17-1.74-1.85-1.17-4.01-1.81-5.83-.6-1.74-.59-3.6-1.29-5.51-.49.42-.97.64-1.09,1-.46,1.3-.32,2.68-.07,4.06.35,1.96.66,3.92.93,5.88.28,2.13.31,4.26-.18,6.36-.21.87-.24,20.57-.23,21.48.05,4.42.09,8.83.22,13.26.07,2.59.31,5.17.44,7.76.03.6-.03,1.21-.14,1.8-.08.44-.31.84-.52,1.35.49,1.06.99,2.18,1.48,3.27.01.34.08.66.03.94-.38,2.08-.89,4.15-1.15,6.24-.22,1.8-.2,3.65-.23,5.47-.02,1.22.12,2.45.04,3.66-.07,1.05-.32,2.09-.52,3.12-.1.51-.82.8-1.49.69-.38-.06-.95-.58-.97-.89-.11-2.28-.21-4.56-.35-6.85-.02-.43-.23-.87-.39-1.29-.18-.45-1.23-.75-1.6-.43-.34.28-.7.57-.91.95-.52.93-.7,1.98-.65,3.07.08,1.69-.07,3.33-.66,4.92-.45,1.24-1.14,1.47-2.47.69-.13-.07-.22-.19-.47-.43,0-.77.02-1.66,0-2.55-.02-.51-.71-1.12-1.27-1.16-1.13-.11-2.26.6-2.4,1.57-.09.59-.08,1.21-.11,1.81-.03.45-.05.9-.08,1.31-.26.23-.48.57-.71.58-1.21.04-2.42-.06-3.62,0-1.21.06-2.42.22-3.63.31-.29.03-.6-.07-.9-.12-.3-.05-.91-.61-.95-.92-.09-.6-.27-1.21-.26-1.8.07-4.71.14-9.41,1.21-14.01.3-1.3.25-2.72.23-4.08-.03-2.13-.17-4.27-.24-6.4-.03-.91-.02-1.82-.03-2.83.66-.58,1.33-1.16,2.14-1.87.17-.88.4-1.9.58-2.94.07-.43.17-.91.08-1.33-.68-3.34-.59-6.69-.73-10.03-.06-1.37-.13-21.54.08-22.87.54-3.46.32-6.97.46-10.47.16-3.8.35-7.59.55-11.37,0-.11.16-.31.2-.3.27.07.66.14.76.33.25.55.35,1.16.57,1.73.28.74,1.02,1.16,1.83,1.12.75-.04,1.4-.57,1.64-1.32.28-.9.31-1.8-.09-2.67-.4-.84-.82-1.67-1.33-2.44-.85-1.29-1.66-2.64-2.71-3.77-1.29-1.39-2.28-2.94-3.23-4.53-.96-1.6-1.93-3.16-3.46-4.32-1.28-.99-1.5-2.26-.89-3.7.23-.54.3-1.17.56-1.71.18-.39.55-.67.86-1.04,1.22-.07,2.42-.18,3.62-.18.76,0,1.52.12,2.28.18.46.03.92.05,1.37.06,1.03.02,2.24-.92,2.21-1.87-.08-2.92.71-5.72.74-8.61.03-2.89-.15-5.79-.24-8.68-.05-1.68-.11-3.35.21-5.01.17-.88.23-1.8.2-2.71-.18-4.28-.1-8.53.36-12.76.03-.3.03-.61.06-.91.17-1.53-.73-2.97-.46-4.54.25-1.34.05-2.72-.23-4.08-.28-1.34-.33-2.72-.44-3.71.38-1.74,2.01-1.74,2.57-2.82.41-1.06.2-2.13-.27-3.1-.8-1.67-1.54-3.35-2.16-5.1-.51-1.44-1.38-2.75-2.36-3.98-1.63-2.08-3.2-4.19-4.77-6.31-.37-.5-.57-1.07-.39-1.71.18-.66.62-.99,1.41-1.17,1.31.45,2.77.91,4.2,1.45,1.62.59,2.86-.56,3.24-1.65.25-.7.44-1.46.44-2.21,0-1.98-.06-3.96-.18-5.94-.12-2.13-.21-4.25.25-6.36.22-1.02.19-2.11.17-3.17-.03-2.29-.11-4.58-.22-6.86-.09-1.84-.11-3.64.33-5.44.25-1,.14-2.12.08-3.17-.11-2.44-.33-4.88-.44-7.32-.11-2.29-.08-4.57.47-6.8.14-.58.32-1.17.33-1.77.11-4.1.62-8.18.5-12.29-.05-1.83-.11-3.65-.58-5.46-.38-1.48-.5-3.02-.77-4.54-.68-3.94-2.08-7.7-3.42-11.46-.15-.43-.41-.83-.6-1.26-.45-1.04-1.22-1.86-2.23-2.27-2.18-.91-3.96-2.39-5.8-3.81-1.6-1.22-3.26-2.37-4.95-3.46-1.44-.94-2.87-1.94-3.81-3.36-.9-1.37-2.09-2.24-3.5-2.89.17-.32.22-.68.43-.8.99-.57,2.03-.46,3.04.07.26.15.53.37.67.62.44.82.78,1.69,1.23,2.5.61,1.11,1.49,1.98,2.68,2.48,1.99.83,3.97,1.71,5.98,2.49,1.73.66,3.48,1.22,5.32,1.45,1.97.24,3.92.67,5.89.94,1.12.15,2.07-.29,2.84-1.11,1.04-1.12,1.82-2.36,2.04-3.93.43-3.15.94-6.29,1.39-9.44.26-1.79.46-3.6.72-5.41.16-1.12.82-1.51,1.95-1.13.42.15.8.43,1.29.7h0ZM170.63,79.07c-1.36-.8-2.75-1.33-4.34-.98-.58.14-1.2.14-1.81.16-.63.03-1.25-.14-1.66-.65-1.06-1.32-2.46-1.79-4.05-1.9-1.87.93-3.75,1.86-5.61,2.81-.54.28-.94.75-1.11,1.36-.17.66-.6.98-1.47,1.08-1.69-1-3.74-1.64-5.52-2.87-.09-.06-.1-.27-.2-.56.36-.53.8-1.13,1.18-1.76.22-.39.35-.82.48-1.25.21-.71-.4-1.68-1.11-1.7-.75,0-1.51.04-2.24.17-.43.08-.8.39-1.21.57-.27.12-.56.19-1.1.38-.66-.16-1.57-.28-2.43-.58-.89-.32-1.76-.48-2.69-.4-1.14.11-2.1-.3-2.85-1.21-.2-.24-.38-.49-.6-.71-1.27-1.33-3.12-1.56-4.5-.52-.59.45-1.16.95-1.64,1.51-.67.8-1.25,1.68-1.85,2.53-1.01,1.43-2.03,2.2-4.5,1.7-1.42-1.12-3-2.34-3.84-4.27-.7-1.59-1.94-2.77-3.13-3.99-.59-.61-1.53-.61-1.98.02-1.38,1.95-2.72,3.95-4.81,5.25-.09.05-.34.05-.36,0-.12-.27-.28-.55-.27-.82.01-.29.13-.64.33-.8,1.11-.97,1.48-2.2,1.31-3.67-.07-.59,0-1.2.02-1.66.48-.64,1.01-.97,1.64-.88,1.88.25,3.59-.11,5.31-.8,2.23-.9,4.55-1.58,6.82-2.36.43-.14.85-.31,1.29-.41,2.17-.44,4.25-.41,5.91,1.38,1.57.33,3.08.56,4.55.99,2.14.62,4.22.52,6.31,0,1.17-.28,2.36-.53,3.52-.87,1.67-.5,3.32-.27,4.93.31,1.16.42,2.27.97,3.39,1.48,1.55.69,3.09,1.4,4.52,2.07.58.05,1.04.16,1.49.14,4.15-.18,8.18.72,12.15,1.93,1.77.54,3.55,1,5.4,1,.46,0,.92,0,1.37.08,1.58.29,2.84,1.06,3.7,2.51,1.05,1.75,1.21,3.43.1,5.15-.74,1.15-1.52,2.24-2.89,2.68-.22.07-.56-.11-.82-.22-.11-.05-.24-.27-.22-.36.1-.43.27-.85.39-1.28.35-1.2.34-2.38-.33-3.52-.2-.33-.94-.58-1.2-.37-1.25,1.05-2.48,2.13-3.55,3.36-.19.22-.25.54-.36.82.55.32.84.82.93,1.43.04.35-.33.83-.76.93-.31.07-.68-.1-.64-.38.12-.71.38-1.4.59-2.08h0ZM34.8,72.82c.63-.17,1.17.11,1.74.34,1.86.77,3.74,1.37,5.74.79,2.25.25,4.52.14,6.75.66.76.19,1.37.67,1.92,1.22.61.62.37,1.49-.51,1.72-.43.11-.89.27-1.32.22-1.06-.11-2.11-.29-3.15-.53-2.39-.56-4.78-.96-7.22-1.04-.45,0-.93-.05-1.35-.19-.56-.2-1.17-.42-1.6-.82-.7-.64-1.12-1.47-.93-2.46-.12-.05-.35-.15-.34-.16.08-.25.18-.18.27.24h0ZM80.35,67.21c0,.61-.36.86-.91.93-.21.38-.34.83-.64,1.11-.43.38-.95.7-1.49.94-2.3,1.03-4.6,2.08-6.93,3.03-1.27.53-2.62.68-3.85-.3-.29-.23-.34-.6-.12-.78,1.86-1.44,3.73-2.89,5.64-4.29.76-.55,1.65-.6,2.53-.02.63.42,1.27.83,1.82,1.19,1.15-.29,2.16-.54,3.16-.78.08-.54.35-.87.9-.95-.17-1.33-.34-2.66-.52-4,.2-.09.48-.34.71-.3.75.14,1.44.45,1.86,1.3-.22.64-.39,1.37-.72,2.03-.26.53-.73.92-1.43.87h0ZM122.26,87.36c.11-.02.24,0,.33-.06.06-.04.06-.16.08-.23-.22-.06-.33.06-.32.38-.22.08-.55.1-.63.26-.12.22.11.41.36.31.26-.09.3-.36.17-.66h0ZM158.73,88.14c-1.87-.97-3.84-1.76-6.04-1.94-1.82-.15-3.57-.85-5.23-1.73-1.22-.66-2.5-1.19-3.71-1.76-2.5.56-4.63,1.69-7.05,2.75-1.27.09-2.79.19-4.3.32-.92.06-1.07.96-.26,2.1,2.71-1.27,5.73-1.61,8.79-2.08,1.03.26,1.88.83,2.06,2.07-.28,1.15-.99,2-2.17,1.99-3.96-.03-7.35,1.58-10.7,3.29-1.33.66-2.49,1.56-4.07,1.82-1.31.21-2.36,1.26-3.31,2.23-1.36,1.39-2.71,2.8-4.06,4.19-1.45,1.51-2.93,3-4.34,4.54-3.66,4.01-3.98,4.58-5.69,9.65-.68.42-1.44.9-2.3,1.43-.06.52-.18,1.11-.17,1.71.03,2.44.09,4.88.14,7.32.03,2.28.14,4.56-.37,6.82-.23,1.02-.13,2.12-.17,3.18-.11,2.73.11,5.49-.28,8.2-.06.43.09.91.14,1.36.04.4.54,1,.86.99.29,0,.66,0,.85-.17.69-.57,1.26-1.29,1.99-1.8.46-.31,1.11-.48,1.69-.5.79-.03,1.48.36,2.03,1.3.5,3.74.66,7.67-.21,11.38-.49,1.01-1.24,1.51-2.02,1.97-.79.46-1.44,1.08-1.99,1.79-.55.72-1.04,1.45-1.22,2.38-.29,1.49-.64,2.94-.62,4.49.07,4.27-.14,8.52.18,12.79.12,1.52.18,3.08-.09,4.55-.3,1.69-.18,3.33.08,5.01.31,1.97.66,3.93.27,5.9.44,2.73.04,5.47.21,8.19.14,2.13.17,4.25.11,6.37-.09,3.21,0,6.4.66,9.57.09.45.18.92.17,1.37-.02,1.52-.23,3.04-.11,4.55.12,1.51.56,2.98.59,4.54.06,3.65.26,7.31.43,10.97.01.29.2.57.28.86.09.33.88.7,1.14.51,1.46-1.04,3.04-1.89,4.66-2.69.66-.31,1.14-.95,1.7-1.45.56-.5,1.06-1.08,1.68-1.48.49-.3,1.11-.42,1.69-.55.47-.11,1.35.47,1.48.9.97,2.96,1.2,6,1.28,9.04.02.75-.21,1.5-.36,2.23-.23,1.09-.84,1.93-1.78,2.49-1.93,1.15-3.88,2.26-5.62,3.27-.28.27-.39.38-.5.48-2.31,2.22-3.04,5.09-3.15,8.21-.17,5.02.06,10.02.7,15.04.08.6.18,1.21.19,1.82.13,6.4.77,12.8.7,19.21-.01.91.08,20.63-.11,21.5-.45,2.11-.42,4.18.01,6.33.27,1.32-.08,2.73.06,4.08.13,1.36.56,2.71.79,4.06.21,1.27-.11,2.41-1,3.34-.2.22-.31.51-.49.8-.31,1.16-.08,2.38.09,3.58.1.76.36,1.51.42,2.26.31,4.41.73,8.83.82,13.26.08,3.96.31,7.91.88,11.84.2,1.38.33,2.72.22,4.1-.04.44-.72,1.15-1.24,1.15-.75,0-1.63.13-2.24-.2-2.64-1.42-5.59-1.64-8.36-2.54-.87-.27-1.82-.37-2.72-.34-1.98.07-3.97.14-5.9.46-1.64.29-3.26.59-4.93.71-.88.07-1.72.51-2.72.83-1.06-.25-2.23-.61-3.42-.77-1.06-.15-2.13-.1-3.2-.07-1.56.04-3.03-.37-4.45-1-.76-.33-1.23-.91-1.6-1.9.46-2.48.26-5.22.21-7.96-.03-1.52.17-3.01.36-4.52.44-3.45.97-6.89,1.08-10.39.04-1.37.15-2.73.2-4.09.02-.6,0-1.21-.04-1.82-.14-1.97-.27-3.95-.45-5.93-.19-2.32.34-4.54.79-6.75.21-1.05.8-1.93,1.31-2.85.44-.79.62-1.67.61-2.61-.07-4.56-.09-27.91-.12-32.48,0-.6-.02-1.23.12-1.81.58-2.38.37-4.84.36-7.27,0-1.06-.09-2.13,0-3.21.23-2.9-.2-5.77-.62-8.37-.44-1.17-1.15-1.79-1.82-2.44-.89-.87-1.65-1.82-2.25-2.93-.65-1.22-1.52-2.32-2.42-3.68-.17-3.2.42-6.44,1.65-9.54.2-.52.74-.97,1.24-1.25.79-.42,1.67-.66,2.51-.98.88-.31,1.78-.29,2.7-.05.59.16,1.19.34,1.78.46.59.13,1.61-.51,1.8-1.12.18-.57.4-1.16.4-1.75,0-2.44.24-4.85.52-7.27.05-.44.1-.91.07-1.36-.12-1.67-.47-3.36-.39-5.02.09-1.66.25-3.31.13-5-.18-2.43-.12-4.88.31-7.28.37-2.11.48-4.2-.02-6.35-.14-.58-.12-1.21-.08-1.81.13-2.6.03-5.16-.61-7.73-.22-.89-.18-1.82-.28-2.73-.08-.76-.05-1.55-.31-2.26-.76-2.06-.81-4.21-1.18-6.6-.76-1.55-1.76-3.28-2-5.32-.09-.85-.65-1.75-1.18-2.48-.73-.99-1.62-1.87-2.48-2.75-1.19-1.24-1.5-2.66-1.22-4.25.03-.15.03-.3.08-.44.76-1.96,1.5-3.93,2.56-5.76.07-.13.19-.23.27-.35.6-.79,1.94-1.13,2.88-.62,1.21.67,2.39,1.4,3.68,2.17.28-.3.72-.54.81-.9.18-.72.25-1.49.24-2.25-.08-4.27.4-8.51-.05-12.79-.08-.75-.02-1.52.06-2.27.47-4.39.59-8.79.08-13.22-.24-2.15.06-4.26.19-6.38.09-1.35.24-2.73.2-4.08-.07-2.14.54-4.2.38-6.35.63-2.69.1-5.46.23-8.19.09-1.82-.09-3.65-.19-5.48-.03-.61-.11-1.22-.25-1.81-.9-3.73-1.87-7.45-3.02-11.11-.33-1.06-.83-2-1.63-2.76-1.46-1.39-2.9-2.75-4.56-3.94-2.66-1.88-5.33-3.74-8.09-5.47-1.91-1.2-3.35-2.74-4.12-4.87-.21-.57-.52-1.11-.72-1.52-1.55-1.34-3.16-1.55-4.87-1.13-2.49.62-4.97,1.25-7.5,1.75-1.46.29-2.85.94-4,1.34-2.06-.2-3.31-1.55-5.21-2.34-.87-.06-2.08-.14-3.29-.18-1.23-.06-2.42-.33-3.63-.55-3.06-.54-5.85-3.12-6.3-7.08-.07-.6-.1-1.23-.29-1.8-.25-.78-.86-1.37-1.65-1.46-1.82-.2-3.67-.5-5.39.29-.99.45-2.04.5-3.11.54-2.12.08-4.27.04-6.28.84-.39.17-.9.12-1.35.11-1.13,0-2.11-.39-2.81-1.35-.92-1.25-1.86-2.48-2.4-3.95-.15-.42-.4-.82-.55-1.12-1.17-1.31-2.77-1.62-4.06-2.45-1.02-.66-1.42-1.61-1.51-2.72-.04-.45.1-.9.14-1.35.12-1.74,1.17-2.84,2.68-3.29,1.88-.55,3.7-1.27,5.55-1.89,1.71-.58,3.45-1.07,5.2-1.52,2.98-.76,5.97-.98,8.96.34,4.33,1.89,8.4.9,12.35-.8,2.09-.9,3.91-2.24,5.58-3.75,2.79-2.53,3.46-2,6.05-.62,1.09.58,2.18,1.18,3.27,1.76,1.37.72,2.8,1.28,4.31,1.65,1.63.4,3.23.97,5.87,1.77,2.83.56,6.49-.51,10.18-1.28.44-.1.85-.33,1.28-.41.95-.18,1.86.06,2.56.74.54.53,1.04,1.16,1.37,1.84.47.97.78,2.01,1.14,3.03.39,1.09,1.05,1.87,2.21,2.16,1.64.4,3.26.91,4.91,1.2,2.15.38,4.01,3.29,3.88,5.16-.1,1.57-.44,2.99-1.42,4.21-1.3,1.62-3.23,3.43-5.59,5.18-1.6.35-3.23.67-4.84,1.07-.79.18-1.28.76-1.36,1.6-.09.97.18,1.91,1.04,2.41,2.82,1.62,5.66,3.21,8.91,4.15,1.72,0,3.55,0,5.38,0,.87,0,1.79-.72,1.93-1.6.38-2.38.84-4.77,1.02-7.19.16-2.12.62-4.18.92-6.28.08-.6.37-1.17.37-1.77-.01-3.66.82-7.22.76-10.89-.03-1.82.18-3.63.29-5.59-.26-1.16-1-2.08-2.36-2.38-1.2-.26-2.41-.71-3.6-.7-2.48.02-4.84-.75-7.27-1.04-.45-.06-.93-.15-1.32-.37-1.82-1.02-3.78-1.24-5.77-1.43-3.2-.29-6.36-.94-9.58-1.02-2.59-.06-4.65-1.42-6.24-3.52-.35-.47-.42-1.31-.05-1.71.61-.66,1.22-1.3,1.9-1.88,1.14-.97,2.36-1.85,3.5-2.82.43-.38.75-.89,1.1-1.32-.71-.9-1.67-1.02-2.51-1.32-1.99-.73-3.41-2.11-4.53-3.83-1.14-1.76-1.69-3.63-.94-5.66.15-.42.31-.88.26-1.31-.04-.42-.23-.95-.53-1.22-1.53-1.33-3.27-2.34-5.13-3.13-.7-.3-1.38-.67-2.04-1.07-.81-.5-1.16-2.15-.61-2.89,1.45-1.96,3.12-3.5,5.66-4.12,2.35-.59,4.66-1.26,7.08-1.5.9-.09,1.86-.15,2.72.07,2.87.74,5.74.79,8.63.65,3.18-.17,6.36-.32,9.48-.04,2.21-1.33,3.64-3.27,5.22-5.11,1.93-1.1,4.07-.75,6.19-.51,3.04.34,6.04,1.04,9.1,1.2.76.04,1.53.08,2.25.12,1.88.54,3.24,1.83,4.52,3.13,1.75.43,3.42.45,5.09.37,1.74-.07,3.33.35,4.8,1.32.39.25.79.49,1.19.73,1.76,1.02,3.55.93,5.27.16,1.09-.49,2.05-1.24,3.05-1.85.33-.07.61-.17.91-.2,1.93-.22,3.2.54,3.93,2.44,1.11,2.9,1.66,2.99,4.49,2.61.45-.06.88-.19,1.33-.27,4.14-.65,8.18-.19,12.15,1.39,2,.79,4.1,1.32,6.08,2.17,1.84.79,3.55,1.88,5.35,2.77,1.11.55,2.28.96,3.4,1.48.98.44,1.98.87,2.9,1.43,1.56.94,2.51,2.32,2.49,4.17,0,.91-.16,1.81-.27,2.71-.05.42-.85,1.04-1.33,1.05-.76.03-1.52,0-2.32,0-.74.52-1.42,1.11-2.21,1.54-2.19,1.22-3.7,2.98-4.51,5.39-.24.69-.66,1.33-1.06,1.97-.85,1.38-2.09,2.11-3.77,2.03-.31-.02-.61,0-.91-.05-1.76-.29-3.36.22-4.74,1.15-1.52,1.01-3.17,1.71-4.83,2.41-.97.42-1.91.86-2.75,1.51-1.78,1.39-4.06,1.99-5.73,3.55-1.81.74-3.65,1.41-5.58,1.8-2.54.52-5.14.61-7.72.31-1.67-.18-3.28-.81-4.65-1.9-1.21-.97-2.43-1.93-3.67-2.87-1.22-.93-2.15-.85-3.18.28-.4.44-.8.9-1.13,1.39-1.27,1.86-2.45,3.77-3.94,5.47-.9,1.04-1.46,2.28-1.65,3.66-.25,1.95-.42,3.91-.62,5.81.33.23.57.53.79.53.6,0,1.23-.3,1.79-.17,2.83.68,5.4-.12,7.97-.97,1-.33,2.01-.66,2.98-1.06,3.41-1.42,6.84-.94,10.28.2.73.24,1.4.66,2.13.9,2.23.71,4.46,1.16,6.72.28,1.28-.5,2.67-.53,4.05-.49.76.02,1.54.1,2.29.06,2.96-.16,5.73.67,8.42,1.91.98.44,1.94.94,3.13,1.52.69.09,1.6.31,2.5.31,2.16,0,4.23.57,6.32,1.03,1.49.32,2.98.73,4.44,1.2,2.81.89,5.63,1.52,8.57,1.27.59-.06,1.22.09,1.81.24.76.19,1.44.64,1.89,1.28,1.92,2.81,2.78,5.85,2.07,9.16-.15.72-.47,1.42-.82,2.09-.84,1.62-2.07,2.95-3.45,4.09-1.32,1.1-2.85,1.65-4.87,1.03-.97.32-2.1.7-3.24,1.07-2,.67-4.03,1.24-6.09,1.71-2.11.49-4.19.64-6.86.3Z"/>
  </g>
</svg>