<?xml version="1.0" encoding="UTF-8"?>
<svg id="Layer_2" data-name="Layer 2" xmlns="http://www.w3.org/2000/svg" viewBox="0 0 159.39 241.14">
  <defs>
    <style>
      .cls-1 {
        fill: #593826;
        fill-rule: evenodd;
      }
    </style>
  </defs>
  <g id="_Layer_" data-name="&amp;lt;Layer&amp;gt;">
    <g>
      <path class="cls-1" d="M85.1,15.57l.19.15.03-.24-.22.09h0ZM77.82,127.46c-.08.03-.2.03-.23.07-.15.28-.09.48.15.57.02,0,.15-.18.16-.3.01-.11-.06-.23-.09-.35h0ZM71.14,224.39c-.06-.08-.12-.23-.21-.25-.6-.12-1.19.42-1.12,1.04,0,.1.11.25.19.27.48.08,1.14-.54,1.14-1.06h0ZM74.21,143.75c.48-.44.69-.99.66-1.63,0-.12-.06-.26-.14-.33-.13-.12-.33-.03-.45.26-.18.44-.32.91-.45,1.38-.03.09.05.23.12.31.04.05.17,0,.26,0h0ZM78.42,154.53c.12-.08.29-.12.32-.2.19-.58.37-1.18.47-1.78.02-.13-.26-.37-.45-.45-.27-.13-.47.02-.61.26-.33.58-.36,1.19-.2,1.81.04.15.3.25.46.37h0ZM75.34,128.81c.1-.02.23,0,.29-.06.55-.52.73-1.2.71-1.93,0-.15-.27-.4-.43-.4-.19,0-.47.16-.56.32-.36.67-.37,1.38-.02,2.06h0ZM75.22,229.1c-.75-.22-1.48-.05-2.2.04-.36.04-.7.28-.82.66-.07.22-.08.48-.04.7.05.28.67.49.94.36.22-.1.48-.16.65-.31.5-.46,1.2-.72,1.46-1.44h0ZM77.72,179.07c1.07-.23,1.24-1.07,1.34-1.96.04-.24-.4-.71-.69-.8-.48-.14-1.02.08-1.26.54-.45.82-.33,1.27.6,2.23h0ZM76.32,224.55c-.19-.29-.28-.57-.47-.66-.83-.37-1.68-.37-2.53-.06-.05.02-.1.2-.07.28.3.73.98,1.09,1.6,1.47.31.19.76.15,1.02-.14.22-.25.32-.62.44-.89h0ZM74.77,207.22c.03-.13.08-.25.08-.37-.02-.93-.59-1.42-1.36-1.12-.34.13-.66.34-.94.55-.37.29-.22,1.05.21,1.25.74.33,1.42.31,2.01-.31h0ZM77.6,158.59c-.24,1.09-.26,2.19-.13,3.29.03.23.14.48.29.66.14.17.37.35.58.36.13,0,.42-.28.42-.42-.06-.97-.12-1.96-.3-2.92-.07-.4-.26-.91-.86-.98h0ZM73.44,220.62c.72-.06,1.32-.1,1.92-.17.11-.02.25-.06.31-.16.14-.18.32-.4.32-.6,0-.18-.2-.5-.35-.53-1.37-.22-2.66.04-3.88.68-.08.05-.14.2-.16.31,0,.07.08.2.14.21.6.1,1.19.18,1.69.24h0ZM79.19,95.64c-.68-1.22-1.76-1.74-3.09-1.85-.39-.03-.8.28-.74.63.03.23.12.52.28.65.83.64,1.82.8,2.84.84.21,0,.44-.17.71-.27h0ZM82.17,89.76c.84-.91,1.32-1.93,1.78-2.95.14-.32,0-.71-.5-.85-.3.11-.67.21-1.01.36-1.23.59-1.58,1.17-1.06,2.75.1.28.51.45.79.68h0ZM68.17,235.1c.26.65.48.9.85.99,1.49.39,2.95.23,4.36-.35.15-.07.2-.36.29-.56-1.82-.84-3.64-.28-5.5-.07h0ZM87.53,116.89c-.08.11-.21.19-.23.3-.45,2.32-.89,4.66-1.31,6.99,0,.06.14.21.25.24.1.02.28-.02.35-.1.25-.27.51-.55.68-.87.18-.32.34-.7.36-1.06.1-1.63.15-3.26.19-4.89,0-.2-.19-.41-.29-.62h0ZM73.92,191.61c-.12.21-.3.41-.35.64-.62,2.97-.78,5.96-.71,8.98,0,.13,0,.28.06.37.13.18.3.37.48.5.25.17.77-.17.84-.53.05-.25.15-.5.11-.73-.09-.62-.26-1.23-.41-1.91.43-3.15.43-4.25-.02-7.32h0ZM72.18,81.35c-.18,1.44,0,2.51.38,3.58.63,1.75,1.21,3.52,1.83,5.27.04.12.13.25.22.29.21.09.45.13.67.14.08,0,.23-.12.25-.22.09-.35.26-.74.17-1.04-.57-1.77-1.14-3.55-1.83-5.28-.36-.91-.65-1.88-1.69-2.75h0ZM78.37,132.42c-3.75-.62-3.87.5-4.05,3.37,0,.12-.01.25,0,.37.01.12.05.24.06.36.03.42.61,1.03.97.93.33-.1.75-.28.9-.55.35-.65.63-1.35.82-2.06.23-.88,1.05-1.35,1.36-2.15.03-.07-.05-.18-.07-.27h0ZM75.81,101.71c-.02-.3,0-.55-.06-.79-.21-.89-.64-1.61-1.58-1.92-.43-.15-1.15.19-1.18.59-.14,1.88-.05,3.74.69,5.5.08.18.37.35.58.37.2.02.52-.08.63-.24.77-1.06.82-2.32.92-3.51h0ZM83.33,82.76s.02.06.03.07c1.07-.32,2.15-.61,3.2-.99.63-.22.97-.76,1.07-1.4.03-.22-.05-.52-.19-.67-.14-.15-.49-.31-.63-.23-1.68.85-3.42,1.45-5.32,1.48-.23,0-.47.14-.69.25-.46.23-.88.54-1,1.03-.08.32.03.71.14,1.05.1.32.59.46.95.33.81-.3,1.62-.61,2.43-.92h0ZM88.79,96.63c.18-.09.32-.12.39-.2,1.48-1.73,2.5-3.7,3.09-5.9.09-.31.09-.7-.4-.86-.27.22-.59.42-.85.67-1.09,1.03-2.17,2.06-3.23,3.11-.79.79-.75,1.73.11,2.64.24.25.61.38.89.54h0ZM72.26,211.71c-.7,1.21-.97,2.28-.81,3.44.06.41.56.95.99.96,2.98.06,3.53-.75,3.29-3.12-.04-.37-.1-.74-.17-1.1-.11-.61-.82-1.06-1.41-.87-.59.17-1.17.42-1.89.69h0ZM102.87,64.78c-1.19.24-2.25-.6-3.41-.04-.09.34-.26.69-.27,1.03-.03,1.49-.02,2.97,0,4.47,0,.36.13.72.21,1.08.08.42.76.68,1.21.5.84-.32,1.53-.8,2.11-1.7.25-1.67.59-3.48.14-5.34h0ZM102.6,38.99c-.1.42-.24.89-.34,1.36-.18.86-.34,1.71-.48,2.57-.04.25-.03.5-.02.75.19,1.98.2,4,.62,5.94.48,2.22.53,4.44.68,6.67.06.97-.24,2,.26,2.94.07-.12.18-.22.18-.33.32-4.73.41-9.46.31-14.19-.03-1.74-.15-3.49-.27-5.22-.03-.4-.4-.57-.94-.48h0ZM144.25,72.88c-1.27,3.76-1.18,4.81-5.07,8.54.88,2.73,2.33,5.24,3.56,7.82.05.11.18.19.27.24.12.04.25.04.38.07.55-.75.49-1.64.48-2.48-.02-1.89.2-3.76.36-5.63.23-2.49.25-5.01.34-7.51,0-.23-.13-.46-.32-1.07h0ZM120.66,160.61c-.76-.12-1.21.34-1.39.96-.17.58-.21,1.23-.21,1.85,0,3.64.08,7.28-.17,10.92-.07,1.13-.09,2.26-.05,3.39.06,1.64-.04,3.26-.54,4.84-.1.35-.11.75-.05,1.11.03.19.31.48.48.48.61,0,1.23-.06,1.84-.17.39-.06.73-.91.51-1.26-.26-.42-.54-.83-.89-1.17-.69-.69-.84-1.53-.77-2.43.05-.49.15-1,.33-1.47.38-1.05.81-2.1,1.21-3.08.17-4.43.03-10.53-.31-13.98h0ZM93.34,29.18c-.41,2.91-.96,5.58-1,8.35-.02,1.5-.18,2.99-.36,4.47-.28,2.37-.18,4.74-.04,7.11.03.59.61,1.19,1.17,1.3.56.11,1-.16,1.32-.54.22-.26.39-.68.37-1.01-.14-2.12-.33-4.23-.52-6.34-.12-1.24-.29-2.48-.4-3.72-.06-.64.15-1.22.51-1.76.33-.52.8-.96.91-1.77-.01-.22,0-.6-.07-.96-.3-1.46-.6-2.93-.97-4.38-.06-.25-.48-.41-.91-.74h0ZM86.22,9.41c-1.31-1.37-2.82-1.41-3.32-2.75.09-.08.19-.22.25-.2,2.19.42,4.39.8,6.57,1.29,1.27.28,2.2,1.14,2.88,2.23.8,1.27,1.41,2.63,1.85,4.22-.23,1.09-.47,2.29-.76,3.49-.02.09-.48.2-.59.12-.39-.3-.73-.66-1.06-1.04-1.23-1.4-2.41-2.85-3.68-4.22-.95-1.02-1.79-2.07-2.14-3.14h0ZM133.48,91.85c-.03.37-.14.76-.05,1.09.36,1.33.85,2.62,1.15,3.95.76,3.31,1.19,6.64,1.03,10.05-.08,1.62-.04,3.24.17,4.57.32.85.97,1.2.89,2.28-.03.51-1.07,1.04-.81,2.03.66.48,1.4.38,2.21.28.13-.3.42-.63.42-.96,0-2.87-.01-5.75-.47-8.6-.12-.74-.27-1.48-.27-2.23,0-1.91-.39-3.73-1.05-5.5-.27-.7-.4-1.44-.65-2.15-.45-1.29-.92-2.59-1.42-3.87-.18-.46-.55-.79-1.14-.94h0ZM95.24,55.65c-.25,0-.52-.09-.67.02-.91.57-1.3,1.45-1.33,2.53-.05,2-.06,3.99-.43,5.97-.4,2.08-.63,4.19-.85,6.3-.23,2.11-.53,4.2-.97,6.28-.13.6-.14,1.24-.13,1.87,0,.16.24.35.42.48.07.06.28.02.36-.05,1.14-.97,2.26-1.96,3.38-2.95.37-.32.7-.68,1.1-1.07-.06-.78-.02-1.53-.21-2.24-.38-1.35-.44-2.68-.29-4.07.35-3.23.36-6.47.01-9.71-.12-1.11-.02-2.24-.37-3.35h0ZM85.21,131.23c-1.06,2.97-1.08,3.15-.79,5.45.06.49.09.99.06,1.48-.08,1.26-.16,2.5-.31,3.75-.17,1.36-.4,2.72-.61,4.11.31.8.62,1.63.95,2.52-.25.53-.48,1.12-.79,1.66-.47.83-.46,1.67-.17,2.54.15.47.35.92.53,1.4-.23.75-.49,1.46-.65,2.19-.18.85-.2,1.76-.42,2.6-.34,1.29-.28,2.48.52,3.59.08.1.14.21.2.32.48.84.5,1.69-.1,2.47-.91,1.21-1.03,2.53-.64,3.95.11.36.16.74.28,1.09.31.93.94,1.42,1.94,1.36.08-.25.23-.49.21-.71-.28-2.38-.22-4.75.15-7.11.12-.75.03-1.51.05-2.27.03-1.88.04-3.76.52-5.61.22-.85.21-1.75.27-2.62.11-1.51.18-3.01.26-4.62-.14-.38-.33-.84-.5-1.31-.17-.47-.33-.94-.51-1.5.31-1.43.64-2.92.33-4.42-.3-1.5-.24-3-.27-4.51-.04-1.76-.09-3.52-.16-5.28,0-.17-.22-.33-.34-.51h0ZM69.23,160.16c.35-.64.46-.75.46-.86,0-3.77,0-7.54,0-11.3,0-.76-.04-1.53.13-2.25.59-2.34.48-4.74.63-7.11.21-3.51.3-7.02.51-10.52.23-4.01.1-8.04.13-12.06,0-.25-.02-.51-.06-.75-.4-2.11-.38-4.25-.48-6.37-.07-1.5-.17-3.01-.38-4.5-.26-1.86-.71-3.69-.98-5.55-.18-1.24-.23-2.5-.25-3.75-.02-.93.36-1.73,1.23-2.18.47-.24.82-.55.9-1.34-.59-1.82-1.37-3.82-1.88-5.88-.54-2.18-.82-4.43-1.21-6.62-.47-.12-.71.18-.82.51-.11.35-.15.74-.11,1.11.19,2.12.41,4.24.61,6.37-.52,2.87.72,5.72.14,8.6-.02.11.03.24.06.36.32,1.11.2,2.25.27,3.37.16,2.76.37,5.51.55,8.26.03.5.05,1,.04,1.5-.03,2.25-.25,4.48.2,6.72.15.72,0,1.5-.02,2.25-.02,1.13,0,2.26-.05,3.39-.06,1.25-.33,2.5-.24,3.73.13,1.67-.12,3.28-.58,4.82-.46,1.48-.64,2.96-.45,4.44.25,2,.08,4,.43,6,.35,1.96.25,4,.37,6,.04.75.05,1.52.24,2.24.32,1.23.34,2.48.38,3.73.07,2.37.14,4.75.23,7.63h0ZM93.07,166.72c.02-.97.06-2.1.07-3.22.02-1.88.02-3.77.05-5.65.01-.75,0-1.52.18-2.24.4-1.61.42-3.23.42-4.87,0-2.64.06-5.27.03-7.92-.02-2.38.07-4.79-.21-7.16-.28-2.38-.35-4.75-.39-7.13-.03-2.14-.09-4.27-.11-6.41-.03-2.49-.53-4.89-1-7.5-.68,1.04-.84,2.03-.95,3.02-.36,3.49-.26,7.03-.88,10.5-.09.49-.03,1-.03,1.51-.01,3.77.02,7.54-.04,11.31-.07,5.15.09,10.3-.74,15.41-.09.49-.09,1-.12,1.5-.21,2.75.13,5.53-.42,8.28-.02.12-.03.26,0,.37.54,2.36.15,4.78.55,7.13.06.37.14.74.24,1.09.02.08.15.17.25.19.31.11.53,0,.55-.3.05-1,.09-2,.11-3q.05-2.59,2.13-4.43c.09-.08.14-.2.3-.46h0ZM112.2,125.25c.16-.31.45-.63.45-.95,0-1.13-.02-2.25-.2-3.36-.24-1.49-.64-2.94-.94-4.41-.15-.73-.36-1.51-.29-2.24.21-2.15.02-4.26-.57-6.33-.1-.36-.14-.74-.14-1.12-.03-3.27-.63-6.49-.92-9.74-.23-2.61-.41-5.26-1.39-7.75-.82-2.1-1.68-4.19-2.54-6.27-.23-.58-.54-1.13-.83-1.68-.14-.28-.66-.43-1-.31-.74.28-1.33.74-1.51,1.54-.15.73-.16,1.5-.36,2.22-.22.83-.58,1.62-.88,2.43.21.52.56.8,1.14.74.38-.05.75-.06,1.08-.08.64.29,1.11.65,1.31,1.31.52,1.7.67,3.44.67,5.26-.42.73-.86,1.48-1.24,2.12.75,4.08,1.47,8.02,2.16,11.78.95,1.4,2.34,2.2,2.9,3.66.11,1.14-.07,2.27-.22,3.38-.11.76-.42,1.45-1.12,1.88-.6.38-.82.98-.73,1.62.4,2.99.36,6.01.5,9.03,0,.24.15.46.23.7.19-.14.48-.25.56-.43.3-.68.52-1.4.78-2.11.19-.53.64-.8,1.13-.87.62-.08,1.25-.02,1.95-.02h0ZM102.9,19.13c1.03-.39,1.3-.42,1.48-.55,1.61-1.21,3.22-2.4,4.79-3.64,2.38-1.89,4.93-3.44,7.83-4.4,1.19-.41,2.43-.65,3.59-1.09,3.62-1.35,7.35-1.41,11.13-1.08.37.03.76.08,1.11.19,2.03.64,4.06,1.27,6.08,1.97.59.19,1.19.46,1.67.84,2.17,1.72,4.29,3.49,6.08,5.61,1.37,1.63,2.7,3.3,3.41,5.38.23.68.7,1.33,1.56,1.46.07-.24.21-.49.18-.71-.15-.86-.37-1.7-.55-2.57-.66-3.21-1.74-6.28-3.24-9.19-.88-1.69-2.12-3.04-3.88-3.97-2.12-1.13-4.34-1.96-6.54-2.87-.95-.39-1.93-.5-2.93-.64-3.14-.4-6.27-.09-9.38.22-1.96.19-4,.47-5.68,1.76-.49.36-1.1.61-1.69.79-2.59.73-4.75,2.18-6.91,3.7-3.15,2.2-5.47,5.1-8.1,8.8h0ZM103.76,30.82c.4-.18.62-.31.86-.36.68-.15,1.09-.57,1.26-1.23.12-.49.13-1.01.33-1.46.13-.3.49-.51.72-.74,1.04.19,1.62.88,1.98,1.66.69,1.48,1.3,2.98,1.6,4.61.6,3.21,1.34,6.38,1.92,9.58.27,1.48.36,2.99.44,4.49.08,1.38.04,2.76.37,4.12.06.24.04.5.06.75.32,4.5.2,9.02.08,13.54-.03.82-.46,1.46-1.24,1.73-1.54.53-3.07,1.07-4.69,1.32-.83.12-1.45-.5-1.26-1.38.43-1.98.47-3.98.51-5.98.04-2.13.3-4.26.47-6.38.02-.25.11-.5.11-.75.03-4.26.13-8.53.06-12.8-.03-1.6-.35-3.23-.71-4.82-.25-1.09-.89-2.08-1.17-3.17-.27-1.03-1.25-1.52-1.71-2.74h0ZM133.95,146.81c-.28,2-.08,3.75-.1,5.5-.02,1.76.09,3.51.13,5.27.04,1.76.01,3.53.1,5.27.08,1.75.22,3.5.42,5.25.2,1.72-.21,3.48.34,5.23.29-.19.51-.3.69-.46.28-.24.51-.55.8-.78.68-.54,1.86-.1,2.13.75.24.73.25,1.48.16,2.24-.05.54-.37.92-.82,1.17-.32.17-.69.26-.97.36-.88-.19-1.22-.93-1.82-1.37-.3,3.85-.3,3.87.25,5.77.23-.04.52.02.7-.1.96-.67,1.87-.58,2.77.09.2.15.38.34.6.45.21.1.45.14.69.17.23.03.45-.4.44-.91-.05-2.63,0-5.27-.3-7.89-.18-1.5-.11-3.01-.17-4.51-.12-2.88-.24-5.77-.4-8.65-.09-1.63-.35-3.24-.42-4.87-.11-2.75-.11-5.52-.18-8.28-.03-1-.03-2.01-.18-3-.5-3.36-.6-6.76-.42-10.14.2-4.02-.13-8.03-.08-12.04,0-.12,0-.27-.07-.36-.14-.2-.29-.44-.49-.53-.98-.43-2.3.26-2.3,1.21,0,2.37-.12,4.75.08,7.1,1.17.99,1.65,2.25,1.85,3.62-.16,1.41-1.78,1.29-2.42,2.5-.08.78-.15,1.78-.29,2.77-.16,1.11-.45,2.22-.57,3.33-.05.47.12.99.3,1.45.12.33.41.6.57.83.7.22,1.28.41,1.77.56.15.2.25.3.31.41.46.95.18,1.88-.68,2.11-.71.19-1.45.29-2.44.47h0ZM117.39,66.2c-.15-.29-.36-.6-.5-.94-.09-.23-.11-.5-.1-.74.03-1.76.53-3.49.36-5.26-.18-1.75-.4-3.48-.35-5.26.04-1.64-.04-3.27-.15-4.91-.28-4.26-.74-8.5-1.82-12.66-.19-.73-.3-1.48-.43-2.22-.69-3.73-1.49-7.42-4.38-10.22-.23-.21-.18-.79.02-1.05.08-.1.13-.22.21-.31.17-.18.33-.38.52-.54,1.6-1.25,3.38-2.17,5.24-2.94.47-.19,1.44.15,1.66.6.35.67.72,1.33.98,2.04,1.98,5.39,2.91,10.92,2.18,16.66-.6,4.75-.54,9.54-.5,14.31.04,4.15.07,8.3.1,12.46,0,.7-.46,1.16-1.16,1.2-.38.03-.76.03-1.13,0-.25-.02-.48-.14-.78-.23h0ZM118.04,118.06c-.73-.45-1.37-.85-2-1.24-.13-.21-.33-.41-.38-.63-.4-1.84-.77-3.69-1.12-5.53-.07-.36-.06-.75-.02-1.12.11-1.13.15-2.23-.12-3.35-.15-.59-.02-1.25.03-1.87.05-.64.08-1.29-.25-1.83-.62-1.02-.78-2.13-.71-3.27.1-1.64-.16-3.25-.43-4.87-.27-1.6-.5-3.22-.81-4.82-.49-2.48-1.46-4.8-2.5-7.09-.36-.79-.71-1.6-1.08-2.44.29-.31.47-.68.77-.82.9-.43,1.82-.86,2.78-1.13.82-.23,1.71-.38,2.49.21-.12.21-.17.54-.34.63-.56.24-1.17.4-1.76.59-.91.3-1.49.9-1.74,1.82.07.51.3.95.73,1.25.53.36,1.13.57,1.78.48.49-.07.97-.25,1.46-.35.65-.13,1.28.24,1.44.88.58,2.18,1.23,4.35,1.68,6.55.4,1.96.58,3.97.83,5.96.06.51.05,1.01.05,1.51.02,2.14.05,4.27.03,6.41,0,.75.02,1.53-.22,2.23-.38,1.11-.43,2.18-.14,3.32.48,1.84.34,3.74.4,5.62.03,1.25-.04,2.51.4,3.72.08.23.15.49.14.74-.05,3.03.79,5.96.92,8.98.04,1.13.3,2.24.43,3.36.3,2.64.31,14.37.03,17.66-.22.53-.75.62-1.17.87-.42.25-.81.56-1.34.94-.19-1.73-.36-3.34-.54-4.91.21-.91,1.29-.79,1.41-1.09.71-1.25.24-2.14.39-2.98.16-.85.48-1.67.75-2.58-.38-.78-.8-1.54-1.15-2.34-.35-.8-.62-1.64-.93-2.49-.46-.4-.93-.79-1.49-1.28-.23-1.9-.31-3.9-.25-5.97.29-.64.64-1.31.92-2,.43-1.05.75-2.13.66-3.29-.1-1.38.4-2.73,0-4.44h0ZM133.14,72.54c.24-1.32.53-2.54.68-3.79.15-1.24.12-2.5.27-3.75.55-4.23.68-8.5.83-12.76.02-.25,0-.51.04-.76.72-3.85.54-7.75.49-11.64-.01-1.38,0-2.76.01-4.14.06-4.92-.48-9.77-1.99-14.48-.15-.47-.18-.98-.24-1.48-.04-.43.34-.98.77-1.18.37-.18.75-.16,1.08.03,1.36.72,2.46,1.73,3.15,3.13,1.24,2.49,2.12,5.08,2.4,7.88.15,1.49.43,2.98.55,4.48.14,1.63.21,3.25.26,4.89.06,1.88.04,3.76.11,5.65.07,1.74.26,3.49.31,5.24.05,1.5.11,3.02-.06,4.5-.19,1.63-.22,3.26-.26,4.88-.06,3.14-.06,6.29-.64,9.39-.04.24-.09.5-.08.75.13,3.46-1.26,6.61-2.13,9.87-.06.2-.33.44-.53.48-.17.03-.5-.14-.59-.3-1.16-2.1-2.73-3.92-4.02-5.9-.14-.21-.21-.45-.45-.97h0ZM117.52,14.84c.15-.24.26-.46.4-.66.07-.09.19-.19.3-.21,3.55-.81,7.03-1.88,10.65-2.31,2.75.46,5.41,1.18,7.99,2.19.7.27,1.42.57,2,1.04,1.18.92,2.44,1.82,3.39,2.97,3.15,3.78,5.96,7.78,6.74,12.57-.11,1.1-.91,1.44-1.37,2.2-.66,2.17-.81,4.55-.89,6.93-.06,1.76-.08,3.53-.17,5.28-.05,1.13-.22,2.25-.3,3.37-.12,1.76-.21,3.51-.32,5.27-.04.61.12,1.26-.35,1.93-.12-.38-.3-.68-.31-.98-.06-3.14-.1-6.29-.15-9.43-.02-1.13-.07-2.25-.26-3.37-.19-1.1-.24-2.26-.13-3.38.28-2.78-.23-5.51-.28-8.27,0-.75-.24-1.48-.4-2.22-.3-1.35-.62-2.69-.97-4.03-.77-3.02-2.2-5.59-4.85-7.37-.31-.21-.61-.45-.89-.7-2.09-1.78-4.28-1.9-6.58-.42-.1.06-.23.08-.34.13-.95.04-1.68-.5-2.41-.96-1.24-.77-2.6-.87-4-.84-1.03.02-2.09,1.16-2.11,2.3-.03,1.31.41,2.45,1.3,3.42.32.36,1.09.4,1.33.02.27-.41.48-.86.73-1.28.2-.33.65-.42.99-.25,1.28.63,2.21,1.57,2.89,2.84,1.4,2.61,1.95,5.42,2.46,8.27.34,1.85.14,3.76.54,5.62.07.35-.07.74-.11,1.11-.05.5-.21,1.02-.12,1.5.39,2.12.25,4.26.29,6.4.03,2.26-.05,4.5-.36,6.76-.44,3.23-.69,6.5-.81,9.77-.12,2.9-.66,5.74-.97,8.61-.01.12-.06.24-.09.36-.09.42-.81.82-1.2.62-1.24-.59-2.48-1.19-3.71-1.83-.46-.24-.75-.69-.82-1.21-.12-.99-.2-2-.22-3-.06-2.64-.09-5.28-.1-7.91-.01-1.89.03-3.77.03-5.65,0-1.63-.2-3.24,0-4.88.21-1.61.15-3.25.22-4.89.03-.63.04-1.27.21-1.87.45-1.61.46-3.22.48-4.86q.07-5.59-1.65-10.69c-.16-.47-.44-.91-.54-1.4-.68-3.02-2.5-5.13-5.17-6.59h0ZM140.78,97.44c-.19-.16-.46-.26-.54-.46-.31-.69-.68-1.38-.81-2.1-.33-1.9-1.36-3.5-2.07-5.24-.33-.8-.8-1.59-1.38-2.24-1.35-1.51-2.28-3.29-3.52-4.87-1.8-2.3-3.91-4.24-6.82-5.06-1.09-.3-2.16-.66-3.24-.99-.6-.18-1.26-.28-1.8-.56-2.04-1.09-4.29-1.31-6.44-1.74-3.26.67-6.38,1.73-9.7,1.4-.12.8-.65,1.31-1.31,1.64-.86.45-1.78.8-2.59,1.16-.66-.27-.75-.71-.56-1.2.28-.73.86-1.25,1.61-1.36.96-.16,1.94-.13,2.91-.18-.09-.53.03-1,.45-1.35,1-.81,2.18-1.25,3.42-1.51.85-.18,1.74-.25,2.47-.34.82,0,1.27.49,1.84.75.9.41,1.73.23,2.43-.43.45-.43.81-.96,1.27-1.39.39-.36.92-.47,1.41-.26.8.35,1.59.73,2.34,1.17,1.19.7,2.33,1.49,3.51,2.2.15.09.45-.05.66-.11.02-.01.04-.24-.02-.31-.48-.57-1-1.11-1.45-1.7-.1-.14-.04-.48.05-.68.11-.24.39-.27.65-.14,1.24.61,2.55,1.12,3.68,1.87,1.58,1.03,2.96,2.33,4.06,3.89,1.02,1.43,2.1,2.83,3.06,4.3.69,1.06,1.3,2.16,1.8,3.31.55,1.27,1.13,2.52,1.83,3.71.77,1.29,1.37,2.68,1.76,4.15.19.73.47,1.43.74,2.13.33.85.32,1.72.21,2.6.58.52.87,1.09.4,1.85-.51-.59-.15-1.3-.3-1.93h0ZM94.63,81.61c-.24.06-.54.04-.71.18-1.67,1.49-3.33,2.98-4.97,4.49-.27.25-.47.59-.64.92-.15.26-.36.6.2.8,1.97-1.87,3.97-3.73,5.94-5.63.15-.15.18-.44.26-.67.51.03.91-.18,1.17-.58.1-.16.08-.45,0-.61-.05-.09-.42-.11-.55-.02-.4.25-.67.62-.7,1.12h0ZM32.2,33.39c2.76.53,4.82,2.15,7.26,2.75.11.02.24-.04.4-.07.32-.5.62-1.04,1-1.53.33-.43,1.31-.66,1.73-.41,1.07.66,2.12,1.34,3.16,2.03.73.48,1.43,1.04,2.18,1.48.98.57,2.24.36,3.12-.49.54-.52,1.12-1.03,1.04-1.94-.45-.16-.93-.29-1.39-.47-.52-.22-.94-1.06-.77-1.56.16-.47.3-.99.61-1.36,1.47-1.72,2.59-3.7,4.2-5.32.25-.25.45-.64.52-.99.05-.3-.13-.64-.21-1-.78.35-1.46.67-2.04.92-.65-.09-1.08-.3-1.42-.71-.3-.38-.38-1.07-.1-1.4.48-.57.95-1.17,1.52-1.64,1.65-1.37,3.16-2.87,4.44-4.22.45-.97-.15-1.4-.4-1.95-.21-.48-.19-.97.12-1.41.14-.21.31-.41.5-.56,1.26-1.08,2.22-2.38,2.93-3.89.26-.56.65-1.07,1-1.64,1.33-1.09,2.7-2.19,4.05-3.33,1.39-1.15,2.98-1.88,4.73-2.24,3.59-.76,7.19-1.09,10.85-.3,2.7.6,5.42,1.08,8.09,1.78.36.1.74.15,1.1.25,2.55.69,4.53,2.18,5.77,4.52.94,1.77,1.74,3.62,2.61,5.43.32.67.67,1.35,1.03,2,.05.1.19.15.3.22.2-.08.48-.11.59-.26,1.01-1.28,1.95-2.62,2.98-3.89,1.74-2.15,3.61-4.16,6.01-5.64,2.15-1.33,4.3-2.6,6.66-3.51.7-.28,1.43-.51,2.09-.85C122.97-.1,125.01.03,130.56.03c1.86,0,3.79-.2,5.59.56,3.68.51,6.94,2.12,10.16,3.88,1.12.61,2.08,1.38,2.98,2.27,1.36,1.35,2.56,2.78,2.95,4.73,1.97,4.4,2.82,9.08,3.72,13.77.52,2.74.82,5.46.78,8.23,0,.63,0,1.3.2,1.87.54,1.59.48,3.22.58,4.84.43,1.07.91,2.1,1.28,3.17.26.75.05,1.49-.51,2.08-.17.19-.37.34-.56.5q-1.23,1.08-1.08,2.94c.58.35,1.21.73,1.77,1.06.61.99.43,2.02.55,3.01.09.87.29,1.73.42,2.49-.27,1.09-.84,1.63-1.91,1.53-.24-.01-.52.01-.73.12-.2.1-.43.3-.51.51-.37.95-.43,1.95-.22,3,.6,1.05,1.66,1.87,1.87,3.21-.19,1.37-.45,2.72-1.89,3.61-.14.36-.33.82-.49,1.28-.16.47-.3.94-.43,1.34.19.3.26.57.44.71.39.3.88.47,1.22.8.24.24.45.69.39,1.01-.22,1.36-.47,2.7-.42,4.09.03.93-.55,1.65-1.52,1.93-.24.07-.49.13-.7.24-.9.48-1.05,1.93-.27,2.57.19.15.44.24.65.37.46.29.71.74.75,1.25.09,1.51.15,3,.48,4.48.16.69-.5,1.4-1.3,1.54-.25.05-.51,0-.75.05-.68.13-1.03.61-1.04,1.34,0,.68.22,1.23.88,1.52.23.11.48.17.69.29.58.36.93.91.93,1.55,0,1.26.06,2.49.29,3.73.15.81-.28,1.48-.98,1.89-.42.24-.95.31-1.4.53-.19.09-.42.37-.42.57.03,1.37.09,2.75.19,4.13.04.54.45.87.98,1,.24.06.49.06.74.12.7.13,1.04.65,1.27,1.26.27.72.32,1.47.15,2.22-.11.49-.32.95-.49,1.47-.43.23-.89.43-1.29.71-.42.3-.71.77-.66,1.28.07.87.28,1.73.36,2.6.08.9-.15,1.73-.65,2.5-.37.59-1.16.68-1.54.11-.27-.42-.62-.84-.72-1.31-.79-3.42-1.65-6.83-1.6-10.4.03-2.63-.31-5.27-.48-7.9-.06-.88-.17-1.77-.08-2.63.2-2,.14-3.99.32-5.99.17-1.88.06-3.78.16-5.66.09-1.75.3-3.49.59-5.24.43-2.59.83-5.21.81-7.87-.03-2.76-.02-5.52.01-8.3.02-1.51.09-3.02.17-4.53.35-5.91.24-11.81-.25-17.71-.02-.37-.17-.73-.35-1.05-.07-.12-.38-.09-.58-.14-.06.13-.15.25-.16.37-.09,3.26-.18,6.53-.29,9.79-.02.88-.11,1.76-.17,2.63-.2,2.75-.4,5.52-.59,8.27-.04.63.05,1.27-.06,1.88-.54,2.98-.65,5.98-.46,9,.04.75.04,1.53-.13,2.25-.36,1.52.27,3.01,0,4.51-.25,1.48-.75,2.91-.83,4.43-.18,3.13-.51,6.26-.78,9.39-.24.33-.4.76-.69.9-1.43.67-1.56,1.85-1.32,3.17.32,1.73.77,3.43.78,5.21.01,1.75.23,3.5.35,5.25.04.5.13,1.03,0,1.49-.32,1.25-.25,2.5-.26,3.75-.07,5.41-.11,10.82-.21,16.23-.02,1.15.36,2.25.35,3.36-.01,1.11-.49,2.19-.45,3.34.08,2.51.08,5.03.14,7.55.02.76.07,1.52-.26,2.22-.48,1.06-.57,2.18-.56,3.33,0,1,0,2-.08,3.01-.09,1.31.09,2.48,1.11,3.45.38.34.57.92.39,1.39-.48,1.22-.28,2.47-.2,3.65-.4.73-.76,1.39-1.13,2.07-.03.35-.11.73-.1,1.11.07,2.88.07,5.77.58,8.65.22,1.23.2,2.5.32,3.76.14,1.53,0,3-.87,4.35-.26.41-.33.94-.5,1.49.37,2.05.72,4.17,1.14,6.25.17.86.5,1.68.74,2.53.1.36.15.73.21,1.1.09.55-.35,1.27-.91,1.51-.55.23-1.35.08-1.71-.4-.37-.5-.79-1.01-.99-1.58-.49-1.42-.86-2.88-1.31-4.32-.19-.59-.42-1.17-.7-1.72-.09-.17-.45-.34-.63-.3-.84.21-1.67.49-2.61.78-.39-.09-.88-.19-1.37-.3-.13.17-.38.32-.4.51-.11,1.02-.05,1.99.52,2.91.4.63.73,1.32.98,2.02.52,1.46,1.52,2.6,2.39,3.82.26.38.19,1.01-.12,1.4-.39.52-.85.92-1.48,1.12-.51.16-.99.07-1.42-.25-.2-.15-.46-.3-.52-.52-.42-1.19-1.63-1.51-2.39-2.3-.67-1.03-.41-2.23-.64-3.32-.45-2.09-.78-4.2-1.05-6.32-.27-2.12-.43-4.26-.59-6.38-.04-.5.1-1,.11-1.5.05-1.01.13-2.01.09-3.01-.04-.88-.11-1.74-.01-2.63.08-.74.03-1.5,0-2.25-.15-3.01-.33-6.02-.45-9.04-.1-2.51-.14-5.03-.2-7.55-.08-3.27.03-6.55.4-9.79.74-6.65.83-13.3.62-19.97-.1-3.52.07-7.01.42-10.53.41-4.13.24-8.25-1.13-12.3-.93-2.73-1.55-5.56-2.55-8.28-.62-1.71-1.73-3.05-3.27-4.01-.21-.13-.47-.29-.7-.28-.32.02-.65.17-1.02.28.11.84.21,1.58.31,2.29-.19,1.2-.9,2.06-1.66,2.92-.64.73-.52,1.64-.18,2.5.09.21.29.43.49.54.33.17.72.21,1.07.35.98.4,1.39.99,1.35,2.01-.02.88-.09,1.76-.15,2.72-.34.58-.73,1.23-1.15,1.95.05.3.05.69.18,1.02.6,1.57.4,3.23.53,4.84.03.35-.15.76-.35,1.06-.55.83-1.17,1.63-1.78,2.48,0,.49-.04,1,.01,1.49.06.66.49,1,1.28,1.06.37.03.76.04,1.1.15.51.17.83.56.91,1.09.06.37.11.77.04,1.13-.18,1.11-.43,2.21-.65,3.34-.37.35-.77.65-1.09,1.04-.23.28-.49.66-.48.99.04,1.62.12,3.26.26,4.89.09,1.03.52,1.95,1.41,2.56.91.62,1.3,1.51,1.4,2.55.09.91-.11,1.76-.67,2.49-.38.5-.82.94-1.17,1.35-.42,3.01-.14,5.89-.08,8.79.01.54.5.88,1.03.73.24-.07.46-.23.7-.28.72-.15,1.61.45,1.69,1.13.06.51.14,1.03.04,1.51-.2.98-.51,1.93-.79,2.93-.86.56-1.69,1.1-2.51,1.63-.58,3.05-.16,6.05-.28,8.92.46.52.75.22,1.01.03.4-.29.75-.65,1.17-.92.47-.31,1.2-.14,1.72.35.38.35.56.93.37,1.38-.35.8-.71,1.6-1.09,2.39-.54,1.11-1.45,1.7-2.76,1.72-.1.34-.29.69-.28,1.03.04,2.88-.02,5.76.28,8.66.33,3.11.2,6.28.18,9.42,0,1.39.07,2.77.29,4.13.21,1.24.49,2.46.57,3.72.06.86.46,1.68.7,2.52.33,1.14-.11,1.91-1.3,2.32-.79.27-1.67-.19-2.12-1.12-.11-.23-.2-.46-.3-.69-.39-.92-.78-1.85-1.11-2.63,0-1.64,0-3.15,0-4.66,0-.71-.44-1.05-1.24-1.04-.5.02-1.01.09-1.5.06-.51-.03-1.03-.2-1.31-.64-.56-.89-1.41-1.39-2.21-1.69-.56-.81-.59-1.55-.5-2.32.3-2.49.47-5,.66-7.5.38-4.78.45-9.55.21-14.33-.15-3.14-.63-6.25-.98-9.38-.08-.75-.22-1.5-.31-2.25-.27-2.5-.4-5.01-.78-7.5-.21-1.36-.18-2.76-.28-4.14-.06-1-.06-2.02-.25-3-.21-1.12-.26-2.24-.29-3.37,0-.48-.14-.96-.26-1.75-.3.61-.52.92-.6,1.26-.24.97-.39,1.97-.62,2.95-.18.75-.6,1.36-1.1,1.82-1.11.06-1.36-1.26-2.35-1.22-.78,2.16-.06,7.67.7,13.3,1.23,0,1.31-1.46,2.39-1.81.24.13.66.23.85.48.36.5.6,1.09.82,1.5.01.3.05.44.02.55-.37,1.45-.68,2.92-1.15,4.33-.24.7-.79,1.29-1.73,1.08-.2-.05-.44.09-.78.18-.12,3.36.13,6.73.22,10.17.19-.11.43-.16.47-.28.31-.96.53-1.94.9-2.87.1-.25.57-.35.95-.56.36.46.69.83.96,1.24,1.46,2.14,1.3,3.81-.57,5.7-.29.29-.7.23-1.06.11-.34-.12-.67-.33-1.01-.41-.28-.06-.48.13-.55.39-.06.24-.14.5-.13.74.07,3.14.18,6.28.21,9.42,0,1-.19,2-.23,2.99-.02.31.17.64.28,1.02.45-.2.78-.37,1.12-.51.98-.4,2.18.21,2.28,1.2.08.75.1,1.51.03,2.25-.05.51-.4.93-.91,1.09-.47.15-.98.2-1.47.3-.36.08-.72.17-.96.22-.76.62-.55,1.48-.83,2.16-.36.91-1.37,1.48-2.45,1.35-.44-.06-.92-.57-.99-1.01-.17-1.14-.11-2.27.2-3.35.36-1.23.41-2.48.43-3.73.11-6.8.15-13.59-.05-20.39-.04-1.51-.15-3-.36-4.51-.26-1.99-.26-4.01-.33-6.01-.07-2.26-.07-4.53-.55-6.76-.21-.97-.16-2-.19-3-.13-4.28-.22-8.55-.38-12.82-.1-2.63-.32-5.27-.42-7.9-.04-1.17-.6-2.17-.95-3.35.48-2.13.3-4.38.02-6.61-.12-1-.29-1.99-.45-2.98-.39-2.36-.79-4.71-1.21-7.06-.04-.19-.3-.4-.5-.52-.19-.12-.36.06-.51.34-.22.45-.43.91-.73,1.3-.22.27-.58.47-.9.64-.54.28-1.41-.12-1.53-.66-.05-.25-.16-.5-.15-.73.07-1.13.12-2.27.29-3.37.14-.89.62-1.58,1.41-2.13.9-.63.98-1.15.55-2.29-.12-.31-.46-.54-.79-.91-.67,1.02-1.32,1.92-1.86,2.88-.43.76-.74,1.59-.79,2.5-.09,1.51-.29,3.01-.27,4.51.03,1.38,0,2.78.68,4.06.11.21.2.46.24.71.21,1.23.41,2.47.6,3.6-.05.23-.05.37-.1.47-.31.68-.63,1.37-1,2.18,0,.51-.11,1.16.02,1.76.51,2.2.28,4.49.81,6.7.03.1.15.19.26.34.46,0,.96-.06,1.44.02.48.07.99.21,1.4.45,1.05.64,1.34,1.61.95,2.96-.18.63-.54,1.15-1.21,1.33-.72.18-1.51.18-2.16.88-.48,3.29.09,6.61.62,9.94.82-.09,1.03-.76,1.47-1.16.41-.38.94-.46,1.36-.15.4.3.8.6,1.14.97.34.38.58.93.34,1.39-.54,1.02-.66,2.16-1.12,3.18-.2.44-.55.83-.85,1.23-.18.23-.77.27-1.04.05-.39-.3-.75-.63-1.2-1.01-.15.43-.36.78-.36,1.12-.03,1.13.06,2.26.01,3.39-.03,1-.21,2-.27,2.99-.04.75-.16,1.54.04,2.24.47,1.64-.08,3.25.08,4.87-.66,4.5-.6,9.03-.43,13.54.11,2.89.18,5.77.06,8.67-.09,2.38-.11,4.78.38,7.14.19.93-.25,1.8-1.05,2.27-.79.47-1.35,1.07-1.81,1.85-.18.3-.53.52-.84.72-.97.62-2.49.15-2.87-.89-.17-.47-.37-.93-.46-1.43-.46-2.49-1.27-4.85-2.37-7.13-.38-.79-.69-1.63-.9-2.47-.28-1.15-1-2-1.73-2.87-.3-.34-.99-.24-1.3.21-.14.19-.28.42-.36.65-.21.64.07,1.31.67,1.56.46.19.94.32,1.37.47.76.9.68,1.91.54,2.91-.03.23-.21.48-.39.62-.39.32-.83.57-1.25.86-.45.29-.7.78-.68,1.27.05,1.38.19,2.75.3,4.13.06.6.42.86,1.36.98.12.02.25,0,.51,0,.22.37.54.77.7,1.22.11.32.01.72-.02,1.09,0,.11-.08.25-.17.33-1.5,1.46-1.48,3.08-.52,4.79.12.22.18.47.26.69.19.94-.4,1.7-.57,2.61.51,3.16.97,6.4,1.58,9.61.26,1.37.4,2.72.52,4.11.09,1,.28,2,.3,2.99.02.86-.2,1.73-.22,2.61-.02.75.06,1.51.15,2.25.05.5.28.99.3,1.48.11,2.84,1.08,5.4,2.29,7.92.7,1.47,1.25,3,2.17,4.38.46.7.56,1.64.81,2.49.3,1.03-.4,2.04-1.51,2.08-.74.02-1.49-.11-2.23-.2-.62-.08-1.23-.23-1.86-.3-.36-.03-.74.06-1.04.08-.9.3-1.17,1.47-2.22,1.39-.96-.07-1.43-1.06-2.49-1.33-1.64-.4-3.54-.31-5.39.15-2.57.63-5.2.85-7.82,1.17-1.5.19-3,.3-4.44.79-1.55.54-2.67-.08-3.59-1.36-.16-1.4.43-2.72.4-3.94.41-1.1,1.18-1.83,1.24-2.91.15-2.29.98-4.43,1.85-6.5.61-1.45.88-2.84.61-4.35.43-.7.83-1.34,1.22-1.97.58-2.46,1.04-4.91,1.21-7.44.07-1,.31-1.99.53-2.96.39-1.73.62-3.45.8-5.22.31-3,.26-6.01.64-9.01.16-1.24.38-2.49.5-3.73.13-1.38.21-2.75.26-4.14.09-2.89.18-5.78.22-8.67.03-2.89-.02-5.77-.01-8.67,0-1.76-.17-3.5-.37-5.33-.49.06-.48.41-.5.64-.07,1.63-.16,3.27-.16,4.91,0,2.63.1,5.28-.3,7.91-.18,1.24-.1,2.51-.15,3.77-.11,2.76-.09,5.51-.57,8.28-.34,1.96-.26,4.01-.37,6.01-.06,1.26-.05,2.5-.41,3.74-.32,1.09-.26,2.24-.03,3.36.1.48.19.96.27,1.38-.25.43-.39.8-.63,1.07-.46.53-1.1.56-1.73.43-.54-.1-1.13-.79-1.21-1.31-.28-1.64-.07-3.29.23-4.88.28-1.5.36-2.98.49-4.48.16-1.88.39-3.76.52-5.63.17-2.5.28-5.02.41-7.53.03-.51-.02-1.01.04-1.51.72-5.77.36-11.57.45-17.35.03-1.38,0-2.78-.2-4.14-.35-2.25-.39-4.51-.45-6.77-.06-1.63-.05-3.29-.31-4.89-.45-2.88-.39-5.77-.54-8.66-.05-.88.04-1.78-.12-2.63-.52-2.73-.53-5.51-.69-8.27-.12-2.12-.35-4.26-.65-6.37-.18-1.26.18-2.21,1.07-3.04.09-.08.14-.2.33-.48.04-.44.16-1.06.15-1.68-.06-5.66,0-11.33-.27-16.97-.18-3.64-.53-7.27-.73-10.91-.12-2.37-.46-4.74-.7-7.16-.17.15-.39.24-.44.39-.82,2.38-1.32,4.83-1.38,7.37-.05,2.39-.13,4.78-.24,7.17-.11,2.38-.07,4.77-.02,7.16.07,3.13,0,6.28-.02,9.41,0,.63-.03,1.27-.17,1.88-.38,1.63-.3,3.25-.18,4.89.05.62.06,1.26-.01,1.87-.09.89-.06,1.75.08,2.63.3,1.87.43,3.74.39,5.64-.03,1.26.21,2.48.44,3.72.49,2.72,1.05,5.43.93,8.22-.16,3.63.13,7.29-.27,10.93-.05.48.1,1,.13,1.5.07,1.75.11,3.52.2,5.27.09,1.76.12,3.53.37,5.27.4,2.75.49,5.51.51,8.28.02,3.77.06,7.55-.22,11.31-.04.64,0,1.27-.11,1.89-.52,3.11-.49,6.25-.45,9.4,0,.63-.09,1.26-.17,1.88-.08.58-.69,1.1-1.31,1.16-.7.07-1.58-.54-1.67-1.23-.1-.74-.23-1.51-.14-2.24.35-3.12.34-6.27.64-9.41.59-6.01.57-12.06.33-18.1-.05-1.26-.08-2.53-.34-3.75-.48-2.37-.46-4.76-.52-7.14-.06-2.64,0-5.28,0-7.93,0-3.27-.03-6.54-.03-9.81,0-.89-.2-1.74-.35-2.6-.41-2.35-.81-4.7-1.04-7.08-.18-1.88-.12-3.77-.14-5.65-.01-1.64-.06-3.27-.64-4.84.07-1,.57-1.9.55-2.94-.05-2.9.03-5.79.05-8.68.03-4.15-.01-8.3.09-12.45.06-2.25.33-4.51.52-6.76.04-.5.2-1.01.16-1.51-.16-2.42.49-4.73.88-7.08.04-.24.16-.47.25-.71.19-.48.93-.96,1.52-.91.36.03.71.14,1.04.2.38-.45.35-.97.34-1.47-.04-1.13-.11-2.25-.43-3.35-.45-1.57-.81-3.16-1.15-4.75-.19-.87-.21-1.75,0-2.62.12-.54.49-.86.99-1.03.37-.13,1.08.17,1.35.46.53.57.82,1.27,1.04,2,.47,1.56.89,3.13,1.32,4.71.26.95.51,1.93.71,2.73.33.26.48.16.46-.22-.07-1.51-.09-3.02-.29-4.51-.25-1.87-.29-3.76-.32-5.64-.02-1.12.51-1.9,1.55-2.36.34-.14.66-.32.94-.46.58-1.08-.18-2-.15-2.99.03-1.12-.11-2.26-.15-3.39-.04-1.01-.02-2.01-.06-3.02-.04-1.13,0-2.28-.23-3.38-.21-.99.46-1.99-.14-3.02-.27.33-.59.58-.71.91-.36.95-.82,1.83-1.46,2.63-.4.5-.93.83-1.59.89-.49-.18-.89-.48-1.06-.98-.21-.63-.16-1.27.18-1.82.52-.86,1.09-1.69,1.66-2.52.65-.96,1.45-1.36,2.55-.63.11.06.55-.11.59-.24.41-1.57.41-1.91.08-4.4-.21.12-.5.18-.61.36-.33.53-.54,1.15-.91,1.63-.29.39-.75.66-1.16.94-.32.23-1.08-.05-1.3-.43-.4-.69-.47-1.44-.2-2.18.17-.47.42-.91.7-1.33,1.29-1.84,2.38-3.85,4.24-5.24.15-.1.1-.46.18-.84-.43-.64-.92-1.35-1.44-2.12.06-.33.03-.75.21-1.04.33-.53.78-.98,1.19-1.46,1.09-1.32,1.58-2.82,1.6-4.58-.28-.41-.54-.84-.85-1.21-.88-1.09-.32-1.95.4-2.62.27-.26.6-.46.9-.69.29-.24.58-.48.96-.8.24-.61.57-1.29.77-2.01.34-1.24.96-2.32,1.7-3.34.61-.85,1.46-1.37,2.53-1.47.67-.07,1.24.13,1.66.67.39.53.41,1.65.05,2.15-.15.2-.27.43-.46.59-1.13.9-1.79,2.1-2.26,3.41-.63,1.77-1.6,3.43-1.87,5.33-.29,1.98-.89,3.89-1.24,5.87-.33,1.85-.5,3.74-.85,5.58-.58,3.09-.66,6.25-.95,9.37-.13,1.36.11,2.72-.11,4.12-.19,1.21.14,2.49.2,3.75.09,1.88.13,3.77.22,5.65.02.49.13.98.21,1.58.45-.17.8-.26,1.1-.43.33-.17.6-.44.93-.61.38-.19.73-.03,1.04.2.33.24.51.67.39.99-.41,1.05-.89,2.08-1.38,3.1-.27.55-.6,1.08-.87,1.55.16.74.29,1.34.42,1.95-.75,1.1-1.71,1.46-2.97.7-.2.38-.36.68-.53,1.01.49.77,1.01,1.48,1.42,2.24.41.77.71,1.58,1.06,2.39.83.11,1.56.22,2.32.32,1.52,2.04,3.58,3.45,5.64,4.87.23.16.91-.11.95-.37.02-.12.04-.24.05-.36,0-.12,0-.26,0-.38.08-1.08.35-1.48,1.11-1.66.85-.21,1.71-.39,2.55-.62.75-.2,1.38-.63,1.87-1.21.15-.18.29-.45.27-.66-.02-.18-.25-.45-.43-.49-.61-.12-1.22-.21-1.76-.61-.62-.45-.81-1.48-.31-2,1.21-1.27,2.43-2.53,3.57-3.7.49-1.2.58-2.33.68-3.45.01-.11-.08-.31-.15-.32-.21-.05-.49-.09-.62,0-.78.63-1.52,1.31-2.3,1.94-.55.44-1.52.25-2.02-.36-.36-.44-.37-1.34.03-1.76.69-.72,1.44-1.39,2.12-2.13.23-.24.31-.62.5-1.01-.5-.28-.94-.51-1.36-.77-.87-.55-1-1.36-.35-2.23.23-.3.53-.54.76-.84.14-.18.21-.42.36-.74-.45-.38-.95-.74-1.39-1.17-.67-.67-.91-1.5-.72-2.42.11-.51.38-.92.89-1.13.52-.21,1.02-.1,1.4.25.44.42.81.94,1.22,1.4.06.06.26.11.34.06.2-.11.5-.27.51-.42.1-1,.16-2,.15-3.01,0-1.76-.07-3.52-.13-5.28-.01-.48-.41-.85-.97-.97-.48-.1-1-.15-1.46-.31-.5-.16-.8-.57-1.02-1.07.25-1.45,1.1-2.12,2.62-2.05.75.04,1.21-.41,1.27-1.08.12-1.38.21-2.76.26-4.13.02-.36-.14-.72-.23-1.15-.65.16-1.24.34-1.84.42-.64.07-1.23-.13-1.73-.57-.71-.63-.8-1.7-.15-2.35.66-.67,1.47-.98,2.4-.73.58.15,1.15.42,1.8.66.4-.73.69-1.42,1.13-2,.45-.58,1.05-1.05,1.61-1.59.15-.48.01-.94-.19-1.41-.66-1.51-1.56-2.87-2.49-4.22-.74-1.05-1.63-1.89-2.95-2.2-.48-.11-.93-.38-1.36-.56-.59.05-.97.31-1.16.84-.81,2.26-1.34,4.56-1.43,6.99-.16,3.9-.69,7.76-1.37,11.59-.04.25-.11.5-.12.75-.05,3.64-.88,7.23-.8,10.9.05,2.64-.06,5.29.06,7.92.09,2,.32,4.01.66,5.99.38,2.23.94,4.42,1.48,6.84-.12.62-.69,1.02-1.54,1.06-.67.03-1.3-.34-1.53-.89-.2-.46-.45-.91-.53-1.4-.34-2.11-.8-4.18-1.44-6.23-.1-.33-.03-.73-.02-1.1,0-.12.06-.24.06-.37.01-1.25-.57-2.42-.4-3.72.16-1.24.14-2.5.15-3.76,0-.37-.17-.72-.25-1.07-.28-.06-.52-.12-.76-.18-1.68-.5-2.54-1.83-2.14-3.39.12-.48.31-.96.54-1.4.44-.87,1.1-1.32,2.14-1.07.21.05.47-.1.82-.18.21-2.46.38-4.97.38-7.47,0-.54-.36-.9-.94-1-.24-.04-.5-.12-.71-.23-.63-.32-1.15-1.27-1.02-1.88.23-1.1.44-2.23,1.05-3.21.21-.33.43-.63.84-.67.44-.06.66.22.86.55.06.1.18.18.29.28.67-.82.74-1.82.76-2.8.01-.64-.25-1.24-.76-1.65-.38-.32-.84-.55-1.22-.87-.59-.48-.78-1.31-.51-2.06.36-1,.98-1.74,2.04-2.06.82-.24,1.19-.87,1.3-1.67.38-2.61.88-5.2,1.67-7.73.24-.77-.06-1.48-.61-2.07-.52-.56-1.09-1.05-1.87-1.19-1.23-.23-2.42-.69-3.71-.5-.48.07-1-.06-1.5-.12-.79-.09-1.42-.46-1.85-1.15-.12-.22-.2-.47-.33-.68-.28-.45-.85-.66-1.28-.51-1.56.52-3.02,1.22-4.2,2.41-.22.22-.22.82.03,1.03.68.55,1.37,1.09,2.06,1.64.41.32.59.86.45,1.34-.15.53-.52.87-1.02,1.01-.97.29-1.95.49-2.91.79-.49.14-.84.55-.96,1.07-.09.36-.12.74-.14,1.12-.05.87-.44,1.4-1.35,1.51-.36.05-.71.2-1.14.33-.86,1.65-1.53,3.41-2.1,5.2-.65,2.03-1.45,4.02-1.71,6.17-.04.36-.19.73-.31,1.09-.6,1.79-1.27,3.56-1.27,5.48-.8,1.62-.64,3.46-1.16,5.14-.11.34-.07.73-.11,1.22,1.02,1.55,2.55,2.65,3.91,3.87.3-.15.64-.2.69-.36.16-.47.26-.97.29-1.45.53-8.19,1.99-16.21,4.58-24.01.23-.71.53-1.4.76-2.12.48-1.55,1.59-2.53,2.92-3.31.76-.45,1.91.2,1.94,1.11,0,.37-.02.76-.13,1.11-.11.36-.31.68-.52,1-.95,1.51-1.58,3.15-2.14,4.81-1.08,3.21-1.96,6.48-2.67,9.81-.7,3.32-1.38,6.63-1.79,10.01-.2,1.61-.26,3.25-.25,4.89,0,1.27.37,2.47,1.23,3.48.4.48.69,1.05,1.03,1.58,1.04,1.61,1.01,3.32.46,5.07-.11.36-.81.73-1.24.67-.67-.1-1.2-.45-1.46-1.05-.39-.92-.67-1.88-1-2.85-2.05-2.16-3.85-4.58-6.4-6.31-.11.34-.31.62-.24.8.37.92.79,1.82,1.24,2.81.03,1.81.11,3.69-.24,5.57-.16.86-.19,1.75-.18,2.63.01,4.15.04,8.3.09,12.45.01.75.13,1.5.18,2.25.07.88.1,1.76.19,2.63.15,1.63-.27,3.23-.07,4.88.19,1.62.04,3.27.03,4.91,0,.63.04,1.27-.05,1.88-.71,4.76-.36,9.54-.38,14.32,0,1.38-.03,2.76.41,4.11.2.57.12,1.24.15,1.88.09,2.13.17,4.27.25,6.4,0,.12-.02.26,0,.37.62,1.96.47,3.97.5,5.97.03,1.88.07,3.77.07,5.66,0,5.03-.06,10.06,0,15.1.03,2.76.1,5.53.59,8.27.11.62.25,1.26.21,1.88-.23,4.17.94,8.24.84,12.41-.02.73.21,1.49.33,2.23.36,2.18.32,2.51-.71,5.19-1.02.61-2.01,1.34-2.35,2.67-.06.22-.3.4-.47.57-.09.09-.21.15-.33.19-.35.11-.71.24-1.07,0-.33-.22-.57-.49-.62-.89-.02-.25-.08-.51-.02-.75.21-.98.45-1.96.65-2.85.46-.7.88-1.33,1.33-2.02.2-2.09-.2-4.21-.04-6.18-.51-.68-.92-1.16-1.25-1.69-.28-.43-.37-.93-.19-1.43.13-.36.28-.71.46-1.04.31-.56.46-1.17.42-1.81-.14-2.37-.23-4.76-.95-7.02-.64-.3-.92.25-1.33.44-.55.27-.94.22-1.38-.14-.74-.61-1.1-1.36-.9-2.32.25-1.25.69-2.41,1.36-3.5.45-.72,1.08-.99,1.88-.99.09,0,.17-.13.34-.28.04-2.94.09-5.95.11-8.96,0-2.26-.06-4.53-.08-6.8,0-2,.04-4.02-.42-6-.11-.48-.11-1-.12-1.51-.14-4.9-.86-9.76-.85-14.68,0-.49,0-1.01-.37-1.45-.7.04-1.43.09-2.06.13-1.09-.43-1.41-1.16-1.22-2.16.02-.12.03-.25.08-.36,1.05-2.69,1.66-5.52,2.75-8.2.92-2.27,1.12-4.61.87-6.85-.2-.39-.26-.67-.44-.83-1.18-1.03-1.61-2.27-.88-3.7,1.25-2.43,1.5-5.02,1.38-7.69-.1-2.26-.09-4.53-.12-6.8,0-.76-.08-1.51-.48-2.18-.55-.94-.54-1.97-.23-2.93.81-2.45.8-4.93.52-7.52-.19.14-.41.22-.44.33-.09.5-.1,1.01-.2,1.5-.18.82-.77,1.39-1.51,1.48-.84.1-1.46-.2-1.81-1.01-.05-.11-.09-.23-.18-.47.21-1.27.88-2.5,1.41-3.76.36-.83,1.04-1.03,2.19-.71.1.04.21.05.31.07.23-.17.32-.4.21-.67-.87-2.24-1.43-4.54-1.36-6.97.04-1.16-.54-1.89-1.73-2.09-.1.21-.32.46-.27.64.31,1.08.73,2.13.99,3.22.12.53-.28.92-.98,1.04-.69-.32-1.49-.68-2.33-1.07-1.86-2.95-4.87-4.66-7.57-6.69-.77-.58-1.79-.91-2.76-1.17-1.83-.5-3.6-1.07-5.24-2.07-1.33-.81-2.87-.93-4.39-.73-1.37.18-2.65.64-3.93,1.22-2.76,1.26-4.68,3.34-6.32,5.77-.28.42-.57.86-.7,1.33-.45,1.59-1.25,3.02-1.87,4.53-.29.69-.51,1.42-.73,2.14-.67,2.29-1.02,4.67-1.86,6.91-.17.46-.19.99-.21,1.48-.13,3.66-.62,7.27-1.11,10.89-.36,2.62-.56,5.24-.43,7.89.07,1.38.21,2.78-.72,3.98-.15,1.11-.54,2.17-.35,3.34.37,2.35.19,4.77.85,7.1.17.59.04,1.25.05,1.88.02.75-.1,1.53.06,2.26.6,2.7.81,5.46,1.21,8.18.33,2.25.86,4.43,1.39,6.62.14.61.36,1.25.31,1.85-.18,2.06.5,3.98.93,5.93.84,3.81,1.71,7.6,2.21,11.47.85,2.52.74,5.21,1.38,7.78.15.6.2,1.24.26,1.87.25,2.87.48,5.76.73,8.64.29,3.26.57,6.51.88,9.77.12,1.25.27,2.5.86,3.65.24.48.2.96.07,1.46-.08.36-.18.78-.08,1.11.69,2.22.46,4.49.55,6.74.02.51.04,1.01.09,1.51.09.88.31,1.75.29,2.62-.04,3.39.3,6.78.15,10.17-.04,1.01,0,2.02-.15,3.01-.42,2.87-.42,5.76-.33,8.67.01.5.09,1.01,0,1.5-.11.61-.27,1.23-.56,1.77-.33.62-1.03.55-1.64.71-.72.18-1.37.6-2.05.88-.66.27-1.68-.14-1.95-.72-.4-.89-.13-1.92.62-2.31.22-.12.46-.19.71-.24.69-.15,1.12-.6,1.26-1.26.19-.85.37-1.73.38-2.6.06-4.15.06-8.3.08-12.45,0-1.13,0-2.26-.04-3.39-.01-.49-.1-.98-.13-1.29-.43-.67-.97-.6-1.45-.68-.79-.15-1.36-.62-1.81-1.25-.78-1.09-.41-2.66.77-3.2.45-.2.94-.31,1.38-.45.44-.42.48-.91.45-1.42,0-.12,0-.25-.02-.37-.76-4.73-.62-9.53-1.26-14.27-.18-1.37-.16-2.76-.26-4.14-.08-1.09-.38-2.13-.86-3.21-.49.51-.81.9-1.18,1.23-.53.46-1.13.44-1.75.14-.94-.47-1.24-1.16-.9-2.17.08-.23.18-.47.31-.68.21-.33.53-.55.93-.52.49.03.98.13,1.47.22.34.07.68.19,1.07.31.09-.43.24-.79.23-1.15-.1-2.88-.26-5.76-.91-8.54-.4-.5-.87-.57-1.39-.53-.74.06-1.49.2-2.23-.06-.41-.14-.67-.84-.45-1.25.37-.69.94-1.17,1.56-1.61.5-.35,1.22-.4,1.52-1.35-.63-2.93-1-6.15-1.65-9.34-.42-2.08-.87-4.18-1.16-6.29-.07-.53-.36-.92-.9-1.13-.3.17-.63.36-.95.53-.84.42-1.97,0-2.41-1.15-.32-.84.11-1.9.92-2.21.58-.21,1.19-.34,1.86-.51.1-.32.31-.67.29-1.02-.04-.88-.13-1.76-.3-2.62-.16-.77-.58-1.39-1.48-1.47-.25-.02-.51-.04-.75-.1-.67-.16-1.12-.59-1.26-1.25-.13-.63-.02-1.26.51-1.72.28-.24.61-.43.92-.66.88-.67,1.02-1.64.35-2.61-.12-.17-.42-.27-.64-.27-.23,0-.46.18-.7.23-.49.09-.98.19-1.48.2-.51,0-.98-.18-1.26-.66-.27-.45-.13-1.24.32-1.73.26-.27.52-.55.81-.8.38-.32.79-.63,1.21-.9,1.36-.9,1.62-2.17,1.33-3.64-.05-.24-.2-.45-.34-.77-.55.3-1.08.63-1.64.86-.82.33-1.74-.07-2.25-.9-.5-.83-.41-1.86.24-2.41.78-.66,1.6-1.21,2.72-1.05.2.03.44-.17.67-.26.42-.73-.03-1.45-.04-2.18-.01-.76-.07-1.51-.12-2.26-.05-.76-.09-1.51-.13-2.16-.3-.6-.73-.75-1.27-.68-.5.07-1,.21-1.49.16-.47-.06-.94-.29-1.38-.52-.41-.22-.58-.92-.42-1.33.38-.96.96-1.76,1.89-2.27.44-.24.88-.61,1.34-.65,1.7-.17,2.33-1.09,2.43-2.73.1-1.75.43-3.48.7-5.22.31-1.99.49-3.99.67-6,.23-2.62.75-5.22,1.11-7.83.48-3.52,1.85-6.79,2.75-10.19.62-2.36,1.67-4.46,3.2-6.34.32-.4.64-.79.88-1.22.77-1.35,1.93-2.31,3.23-3.11,2.51-1.52,5.2-2.5,8.18-2.55,2.01-.04,4.02,0,5.76,0Z"/>
      <path class="cls-1" d="M27.87,187.71c-.73.17-1.44.32-2.05.46-.88-.45-1.19-1.09-1.07-1.92.06-.37.19-.73.3-1.09.18-.62.53-1.14,1.06-1.51.6-.42,1.18.03,1.83.08.08-.35.22-.71.22-1.06-.03-1.76-.09-3.52-.14-5.28,0-.37,0-.76-.05-1.13-.72-4.73-.39-9.53-.9-14.29-.16-1.5-.22-2.99-.34-4.51-.04-.49-.19-1.01-.14-1.49.32-2.68-.33-5.26-.71-7.86-.02-.11-.11-.21-.21-.42-.54-.39-1.14-.81-1.69-1.21-.4-.6-.55-1.22-.46-1.85.15-1,.34-1.98.55-2.97.41-1.87.44-3.7,0-5.6-.6-2.57-1.02-5.16-1.53-7.75-.01-.07-.17-.14-.27-.16-.11-.03-.3-.02-.33.05-.18.32-.32.67-.48,1-.16.33-.31.68-.52.99-.3.45-.79.65-1.3.57-.52-.07-.9-.41-1.13-.89-.34-.72-.35-1.5-.1-2.21.59-1.69,1.47-3.19,3.23-3.94.05-.24.18-.49.12-.71-.44-1.96-.25-4-.8-5.96-.27-.97-.28-1.99-.43-2.98-.08-.49-.17-1-.38-1.44-.15-.3-.47-.62-.79-.73-.46-.16-1-.08-1.48-.21-1.16-.31-1.94-1.33-1.89-2.51.02-.75.13-1.5.31-2.23.19-.73.47-1.43.79-2.11.27-.57.66-1.06,1.01-1.64-.54-4.46-.88-8.96-1.45-13.44-.07-.54-.34-.91-1.04-.99-.07.62-.17,1.24-.2,1.86-.04,1.12.02,2.26-.06,3.39-.02.32-.29.68-.54.94-.28.3-1.04.26-1.4,0-.3-.23-.64-.44-.82-.75-.84-1.33-1.17-2.77-.58-4.31.8-2.11,1.35-4.3,2.36-6.35,1.29-2.62,1.82-5.48,1.67-8.42-.01-.24-.12-.48-.18-.73-.38-.64-1.11-.43-1.66-.67-.86-.38-1.43-1.21-1.3-2.08.1-.61.22-1.24.44-1.82.63-1.63,1.26-3.28,2.01-4.87.53-1.13,1.25-2.17,1.88-3.22.07-.72-.39-1.17-.74-1.68-.47-.67-.49-1.42-.31-2.16.12-.49.32-.96.54-1.41,1.04-2.14,1.85-4.38,3.15-6.41.6-.93.8-2.1,1.28-3.43.09-.07.39-.3.67-.55.82-.77,1.57-1.63,2.46-2.31.79-.6,1.7-1.06,2.6-1.51.9-.43,1.82-.91,2.78-1.13,2.11-.49,3.98,0,5.45,1.69.41.48.83.95,1.2,1.46,1,1.39,1.3,2.96,1.07,4.65-.11.79-1.04,1.26-1.69.79-.31-.21-.55-.52-.83-.76-.64-.54-1.16-.54-1.59.06-1.68,2.36-3.35,4.72-4.23,7.53-.26.83-.61,1.64-.92,2.48-.17.46-.46.93-.47,1.41-.06,1.65-.66,3.2-.85,4.81-.2,1.75-.28,3.49-.53,5.23-.23,1.61-.32,3.29-.13,4.9.22,1.74,0,3.49.39,5.22.16.73.06,1.5.15,2.25.22,1.99.03,4.01.71,5.97.32.91.22,1.99.21,2.98,0,1.27.12,2.5.52,3.72.54,1.69.76,3.42.89,5.19.14,1.88.59,3.72.74,5.6.15,1.88.33,3.75.73,5.6.19.86.4,1.71.59,2.57.41,1.84.77,3.69.99,5.56.28,2.48.59,4.98,1.25,7.41.13.48.15.99.15,1.5.01,1.75.16,3.48.56,5.22.45,1.95.63,3.97.83,5.97.21,2.12.54,4.24.82,6.36.43,3.36.94,6.71,1.95,9.97.11.35.26.72.27,1.08.08,2.53.88,4.94.97,7.47.06,1.87.47,3.73.76,5.59.64,3.97,1.31,7.94,1.96,11.9.1.62.25,1.24.28,1.87.08,1.52.38,2.99.81,4.43.7,2.33.64,4.72.6,7.1,0,.45-.31.94-.58,1.35-.43.65-1.39.73-2.01.27-.64-.48-1.03-1.1-1.06-1.9-.03-.75.05-1.52.01-2.26-.05-1.13-.03-2.28-.27-3.38-.42-1.98-.54-3.98-.68-5.98-.07-.88-.16-1.77-.4-2.61-1.33-4.61-1.82-9.35-2.63-14.05-.52-3.09-.63-6.25-1.37-9.31-.44-1.83-.88-3.66-1.13-5.52-.33-2.61-.83-5.21-1.1-7.83-.36-3.5-.87-6.98-1.49-10.45-.28-1.61-.46-3.23-.66-4.85-.49-3.99-1.18-7.94-1.94-11.89-.5-2.59-.96-5.18-1.17-7.81-.08-1.12-.31-2.24-.47-3.35-.37-2.48-.61-5-1.15-7.45-.81-3.7-.95-7.46-1.53-11.19-.82-5.24-1.01-10.5-.6-15.79-.24-3.17.41-6.24.86-9.35.43-2.89,1.42-5.61,2.45-8.3.54-1.41,1.24-2.75,1.86-4.12.72-1.63,1.82-3,2.86-4.42.1-.14.03-.52-.1-.67-.13-.16-.43-.26-.66-.24-.36.02-.77.07-1.07.27-2.82,1.82-5.01,4.17-6.22,7.34-.22.59-.45,1.17-.67,1.76-.45,1.18-.84,2.34-.85,3.64-.02.99-.25,2-.5,2.96-.74,2.81-1.15,5.66-1.09,8.58.03,1.52-.09,3.01-.32,4.5-.65,4.14-.56,8.28.03,12.41.31,2.23.36,4.51,1.08,6.69.04.12.08.25.07.37-.3,2.67.78,5.2.73,7.85-.01.61.12,1.25.27,1.86.37,1.58.79,3.16,1.19,4.74.5,1.94.92,3.89,1.04,5.92.09,1.61.54,3.21.82,4.81.13.74.29,1.49.33,2.23.14,2.9.77,5.72,1.25,8.57.46,2.73.85,5.45,1.8,8.07.43,1.17.19,2.48.49,3.72.38,1.57.29,3.26.65,4.84.35,1.49.53,2.96.51,4.48,0,.62.03,1.27.17,1.88.23,1,.19,1.98.09,2.98-.19,1.89.05,3.76.32,5.64.12.79.63,1.29,1,1.86-.22.47-.58.9-.62,1.36-.14,1.49.19,2.99-.08,4.5-.1.58.15,1.24.32,1.84.42,1.48.49,2.96.37,4.48-.05.63-.18,1.28-.07,1.88.35,1.74.49,3.45.38,5.24-.11,1.61.18,3.24.28,4.88.04.64-.18,1.21-.49,1.78-.64,1.17-2.23,1.05-2.88.26-.31-.38-.5-.86-.74-1.3Z"/>
      <path class="cls-1" d="M39.33,110.38c.04-.1.13-.21.13-.33.11-3.13.22-6.26-.21-9.39-.22-1.61-.23-3.24-.32-4.86-.11-1.76-.19-3.52-.31-5.27-.02-.24-.15-.47-.24-.71-.44-.62-1.1-.43-1.71-.48-.78-.06-1.46-.33-2.02-.89-.3-.3-.46-1.04-.2-1.39.21-.28.5-.62.81-.68.72-.16,1.49-.14,2.23-.25.2-.04.41-.3.53-.5.11-.21.16-.49.16-.73.03-2.26.05-4.52.03-6.79,0-.48-.21-.95-.31-1.42-.84.17-1.56.4-2.29.43-1.15.06-2.1-.8-2.06-1.75.04-.88,1.07-1.79,2.09-1.79.37,0,.74.15,1.11.19.35.04.72.05,1.07.07.69-.91.51-1.97.66-2.93.12-.75-.01-1.51-.39-2.19-.28-.51-.82-.49-1.28-.66-1.24-.45-1.4-1.92-.6-2.79.41-.45.97-.77,1.49-1.12.44-.29.7-.68.83-1.19.07-.28.01-.51-.24-.66-.1-.06-.27-.09-.35-.05-.55.28-1.08.6-1.63.89-.58.3-1.23.17-1.71-.32-.53-.54-.63-1.52-.19-2.06.32-.4.64-.78.99-1.13.53-.54,1.08-1.06,1.64-1.57.46-.42.96-.8,1.35-1.13.4-1.6.76-3.06,1.14-4.51.13-.52.51-.85.94-1.14.78-.53,1.97-.03,2.01.87.05,1.13.08,2.26.01,3.38-.17,2.89-.44,5.77-.6,8.65-.11,1.89-.08,3.77-.16,5.66-.06,1.75-.07,3.5-.24,5.27-.23,2.37-.33,4.78-.14,7.15.16,2,.09,3.99.29,5.99.43,4.25.59,8.53.87,12.79.29,4.39.33,8.79.27,13.19-.02,1.26,0,2.49.26,3.74.21,1.1.24,2.24.29,3.37.14,2.51.07,5.03.63,7.5.06.25.06.51.07.76.24,5.15,1.21,10.22,2.15,15.28.06.37.15.74.19,1.12.73,6.73,1.56,13.47,1.45,20.28-.05,3.14.07,6.28.73,9.38.21.98.51,1.94.72,2.92.22,1.06-.16,1.98-.85,2.77-.28.32-1.03.41-1.39.19-.8-.49-1.31-1.18-1.4-2.12-.11-1.13-.12-2.25-.24-3.38-.05-.52-.4-.91-.85-1.18-.37.05-.74.13-1.11.16-.55.06-.96-.25-1.31-.61-.3-.3-.28-.96.03-1.39.52-.71,1.07-1.4,1.58-2.12.61-.84.93-1.78.88-2.83-.13-2.5-.28-5.01-.45-7.51-.03-.35-.25-.68-.38-1-.76-.28-1.46-.51-2.15-.8-.51-.21-.69-1.2-.31-1.64.24-.28.51-.56.81-.77.31-.22.67-.34,1-.52.22-.12.42-.28.64-.42.48-1.09.35-2.24.12-3.33-.36-1.61-.53-3.22-.66-4.86-.11-1.35-.62-2.39-1.97-2.93-.46-.19-.42-.27-.76-1.28.46-.67.94-1.4,1.44-2.12-.12-1.53-.18-3.03-.35-4.53-.18-1.49-.48-2.98-.76-4.66-.19-.25-.49-.65-.79-1.04-.3-.4-.61-.79-.85-1.11-.09-1.44.69-2.5,1.12-3.97-.11-1.6-.08-3.5-.41-5.34-.33-1.86.1-3.77-.44-5.48-.57-.67-1.27-.35-1.84-.54-.49-.16-.89-.43-1.06-.97-.19-.59.02-1.31.53-1.67.3-.21.62-.42.97-.56.45-.18.98-.21,1.32-.67Z"/>
      <path class="cls-1" d="M100.46,153.65c.27.11.73.17.87.4.59.94,1.08,1.94,1.54,2.77.12,1.18-.08,2.14-.61,3.02-.58.96-1.67,1.15-2.54.43-.29-.23-.55-.5-.78-.79-.43-.51-.55-1.14-.29-1.74.29-.67.74-1.28,1.05-1.96.31-.66.07-1.51.76-2.14Z"/>
      <path class="cls-1" d="M24.97,163.2c-.79.65-1.58.62-2.35-.03-.4-.35-.63-.88-.46-1.34.83-2.19,1.73-4.35,2.61-6.52.1-.27.79-.28.97-.04.07.1.17.19.22.3.06.1.1.23.1.35.08,2.25-.08,4.46-.73,6.62-.07.23-.24.42-.37.65Z"/>
      <path class="cls-1" d="M51.29,130.11c.9.52,1.03,1.4.91,2.27-.18,1.36-.5,2.69-.77,4.04-.03.12-.06.24-.13.34-.22.31-.4.67-.69.87-.28.19-.67.3-1.02.33-.4,0-.96-.56-1.02-.98-.07-.49-.18-1.01-.1-1.48.27-1.61.84-3.13,1.63-4.55.26-.45.67-.72,1.18-.84Z"/>
      <path class="cls-1" d="M125.88,181.63c.19-1.47.36-2.94.56-4.42.01-.12.07-.24.1-.36.13-.53.86-1.01,1.44-.94.69.06,1.27.54,1.35,1.07.04.25.11.49.11.73-.02,1.52-.39,2.97-.87,4.38-.11.34-.4.63-.61.93-.21.3-.67.35-.97.11-.19-.17-.4-.31-.54-.52-.21-.3-.37-.64-.57-.99Z"/>
      <path class="cls-1" d="M51.84,118.71c-.08.75-.15,1.5-.23,2.24-.04.37-.7.79-1.15.76-.93-.08-1.69-.78-1.78-1.63-.03-.25-.09-.52-.04-.74.38-1.46.76-2.91,1.18-4.34.07-.23.22-.49.42-.6.3-.18.68-.3,1.02-.31.15,0,.4.33.45.55.21,1.09.51,2.19.17,3.32-.07.25-.05.51-.08.75.01,0,.02,0,.03,0Z"/>
      <path class="cls-1" d="M130.09,187.56c-.04.24-.01.51-.11.71-.49.99-1,1.97-1.54,2.94-.37.68-1.36.64-1.82-.05-.29-.42-.36-.9-.3-1.39.12-1.01.55-1.88,1.22-2.62.43-.49.99-.7,1.65-.6.45.06.95.63.9,1.02Z"/>
      <path class="cls-1" d="M23.92,176.33c.22-.92.45-1.88.71-2.84.07-.23.24-.43.34-.66.18-.36.6-.59.88-.42.21.11.45.27.54.46.51,1.16.61,2.4.43,3.65-.07.5-.37.89-.89,1.08-.52.19-1,.08-1.38-.26-.26-.23-.39-.62-.62-1.02Z"/>
      <path class="cls-1" d="M10.08,128.45c.1,1.49-1.01,2.56-2.63,2.33-.96-.13-1.49-.97-1.18-1.88.31-.91.95-1.41,1.83-1.69.6-.19,1.91.33,1.97,1.25Z"/>
      <path class="cls-1" d="M16.03,194.8c-.13.26-.38.81-.7,1.31-.23.37-1.03.36-1.32.08-.86-.84-1.15-1.89-1.07-3.03.07-.95.93-1.53,1.86-1.1,1.03.48,1.42,1.28,1.23,2.73Z"/>
      <path class="cls-1" d="M7.24,126.04c-.25-.08-.72-.24-1.17-.43-.41-.18-.69-.8-.6-1.25.13-.61.36-1.19.86-1.6.18-.14.47-.25.67-.2.48.1.96.26,1.39.48.67.33,1,.92.91,1.47-.14.85-1.01,1.6-2.06,1.53Z"/>
      <path class="cls-1" d="M14.22,164.45c-.15.29-.3.63-.52.92-.36.51-.82.93-1.5.83-.76-.09-1.58-.95-1.7-1.71-.12-.7.53-1.82,1.18-2.07.37-.16.72-.07,1.05.06.84.36,1.36.99,1.49,1.96Z"/>
      <path class="cls-1" d="M11.87,102.71c.69.2.87.83.95,1.4.22,1.48.38,2.97.91,4.38.04.11.02.25,0,.38-.11.49-.25.97-.98,1.03-.79-1.82-.98-3.79-1.17-5.74-.05-.49-.05-1.01.29-1.46Z"/>
      <path class="cls-1" d="M38.03,101.4c-.03,1.76-1.52,2.79-3.04,2.12-.41-.18-.74-.78-.68-1.22.13-.92.58-1.62,1.43-2.04.52-.26,1.61-.04,2.05.47.15.17.16.45.24.68Z"/>
      <path class="cls-1" d="M147.98,124.71c-.3-1.39-.37-2.75-.84-4.07-.26-.75.1-1.46.57-2.14.85.34.15,1.39.95,1.63-.2.9-.41,1.62-.52,2.34-.11.74-.11,1.5-.16,2.24Z"/>
      <path class="cls-1" d="M148.07,115.28c-.05.45-.08.82-.12,1.17-.05.31-.24.42-.54.29-.1-.04-.21-.12-.24-.21-.32-.83-.27-1.66-.07-2.5.07-.32.25-.43.55-.3.09.04.21.13.23.22.09.46.14.94.2,1.33Z"/>
      <path class="cls-1" d="M147.84,127.34c-.05-.1-.14-.2-.15-.31,0-.1.06-.21.1-.32.08.03.2.04.23.09.05.1.09.24.06.34-.03.08-.15.13-.24.19Z"/>
      <path class="cls-1" d="M138.54,163.18c-.05.24-.06.5-.15.73-.15.33-.37.63-.78.71-.91.18-1.82-.24-2.18-1.03-.42-.91-.17-2.02.6-2.7.62-.54,1.47-.44,1.96.18.51.63.58,1.35.55,2.11Z"/>
    </g>
  </g>
</svg>