<?xml version="1.0" encoding="UTF-8"?>
<svg id="Layer_2" data-name="Layer 2" xmlns="http://www.w3.org/2000/svg" viewBox="0 0 270.45 442.71">
  <defs>
    <style>
      .cls-1 {
        fill: #593826;
        fill-rule: evenodd;
      }
    </style>
  </defs>
  <g id="_Layer_" data-name="&amp;lt;Layer&amp;gt;">
    <g>
      <g>
        <path class="cls-1" d="M114.9,34.08l-.14.16.21.03-.07-.2h0ZM171.24,120.45c.1-.11.26-.21.25-.3-.03-.37-.11-.74-.18-1.1-.02-.06-.18-.12-.25-.1-.25.06-.4.59-.25,1.04.06.18.27.31.42.47h0ZM176.45,153.7c.08-.11.25-.21.24-.31-.02-.38-.08-.76-.15-1.14-.01-.06-.18-.15-.25-.13-.32.09-.38.87-.09,1.44.03.07.16.09.25.14h0ZM85.93,17.23c.83.52,1.64,1.03,2.47,1.54.16-.28.38-.51.38-.73-.01-.78-.51-1.24-1.17-1.57-.64-.32-1.02-.17-1.68.76h0ZM100.66,45.43c-1.54-.7-2-.66-2.94.31-.14.15-.21.51-.14.72.06.18.39.43.56.41.66-.1,1.35-.23,1.95-.5.27-.12.39-.61.57-.94h0ZM55.08,56.17c-.14.51-.42.95-.3,1.23.63,1.67.98,3.48,2.06,4.95.11.14.5.17.72.1.29-.1.35-.41.22-.71-.04-.13-.06-.27-.13-.39-.82-1.29-1.53-2.6-1.66-4.18-.03-.31-.51-.59-.9-1h0ZM186.65,22.11c.37.46.58.76.83,1.03.08.09.26.12.4.12,1.1.03,2.2.07,3.31.05.18,0,.42-.28.52-.48.16-.31-.02-.53-.36-.63-1.49-.47-2.97-.31-4.69-.09h0ZM138.85,37.9c.42.1.83.33,1.18.27.55-.08,1.09-.29,1.58-.56.86-.47,1.69-1.02,2.54-1.55.38-.24.69-.85.5-.99-.37-.28-.82-.24-1.21-.12-1.51.43-2.89,1.15-4.09,2.16-.2.16-.29.45-.49.79h0ZM67.06,52.16c.14.07.26.18.38.19,1.45.16,2.7-.37,3.91-1.07.26-.16.38-.83.21-1.12-.63-1.08-1.9-1.01-2.5-.53-.85.69-1.7,1.4-2,2.53h0ZM76.68,19.64c-.87-1.33-2.1-1.79-3.56-1.84-.71,1.22-.93,2.37,0,3.64.92-.26,1.89-.46,2.79-.81.31-.13.49-.61.77-.99h0ZM193.15,49.47c.68,1.46.61,2.9,2.09,3.54.3-.21.64-.43,1.01-.67.17-1.15.34-2.26.49-3.39.02-.1-.11-.23-.18-.35-.26-.1-.55-.34-.75-.27-.79.28-1.55.65-2.66,1.14h0ZM150.53,53.69c-.26.58-.61,1.19-.81,1.84-.17.52-.23,1.09-.26,1.64-.05,1.11-.06,2.23-.08,3.34,0,.14-.02.31.04.41.12.19.29.36.47.47.06.04.3-.07.36-.17,1.15-2.17.91-4.6,1.3-6.92.06-.42-.44-.61-1.01-.61h0ZM265.97,46.23c-1.35,2.3-2.95,4.22-4.07,6.46-.04.07.04.25.11.31.08.08.26.16.35.12,1.85-.63,3-1.97,3.66-3.76.34-.92.51-1.89-.05-3.14h0ZM77.49,11.77c-.54,0-1.25-.04-1.94.01-.62.04-1.05.42-1.26.99-.16.42.21,1.19.68,1.42,1.01.51,2.04,1,3.06,1.48.26.12.91-.43.89-.75-.1-1.14-.28-2.25-1.42-3.15h0ZM105.77,52.77c-.17.19-.44.36-.49.58-.17.9.21,1.65.79,2.28.28.31.61.6.98.77,1.25.61,2.53,1.17,3.81,1.74.3.13.55.04.75-.22.22-.29.16-.92-.16-1.11-1.8-1.09-3.43-2.4-4.91-3.9-.16-.15-.52-.11-.78-.15h0ZM193.3,44.39c-.21-.3-.38-.66-.67-.9-.18-.17-.53-.25-.79-.25-2.42-.04-4.8-.31-7.18-.8-.81-.17-1.69-.03-2.53.07-.73.09-1.31.49-1.7,1.15.2.59.61.95,1.23.99,1.28.07,2.57.03,3.83.17,1.4.15,2.78.48,4.19.71,1.33.21,2.52-.11,3.62-1.12h0ZM223.49,55.59c.08.1.15.27.25.29,1.49.32,2.97.7,4.48.9,1.12.14,2.21.22,3.29.59,1.48.51,3.03.52,4.56.21.27-.05.52-.22.76-.35.48-.24.65-1.05.32-1.43-.67-.77-1.48-1.27-2.55-1.24-1.68.05-3.35.15-5.04,0-.87-.09-1.62-.31-2.35-.77-.33-.21-.78-.22-1.24-.34-.79.59-1.57,1.16-2.35,1.75-.09.07-.1.26-.14.39h0ZM35.66,56.52c1-.35,1.84-.53,2.57-.93,2.08-1.14,4.12-2.37,6.16-3.6.17-.1.17-.48.26-.78-.97-.13-1.97-.14-2.88-.4-1.06-.3-1.92-1.13-3.06-1.24-.26.14-.57.22-.74.41-.38.41-.79.83-1.01,1.33-.66,1.44-1.81,2.07-3.3,2.27-.4.05-.81.23-1.17.42-.23.12-.37.4-.59.66.67,1.58,2.26,1.34,3.76,1.85h0ZM207.11,55.6c.06.12.09.31.2.37.73.41,1.51.73,2.21,1.21.69.48,1.28,1.11,1.93,1.66.68.57,1.51.85,2.37.76,1.12-.12,2.25-.31,3.33-.61.51-.14.99-.56,1.35-.97.37-.41.59-.95.86-1.46.25-.47-.09-1.22-.64-1.35-.96-.22-1.93-.43-2.91-.61-1.39-.26-2.77-.48-4.38-.76q-3.22.83-4.33,1.77h0ZM59.51,48.79c2.4-1.74,4.78-3.5,7.19-5.22.86-.61,1.84-.74,2.82-.28,3.24,1.53,6.74,2.06,10.25,2.63-.06.26-.02.54-.15.7-.37.45-.9.66-1.47.76-1.43.25-2.84.12-4.19-.36-.94-.32-1.84-.77-2.79-1.05-1.28-.38-2.52-.22-3.65.57-.23.16-.5.3-.67.52-1.83,2.17-4.28,2.57-6.92,2.39-.15-.01-.28-.43-.43-.66h0ZM206.19,41.95c1.24-.66,2.46-1.36,3.41-2.42.39-.41.67-.97.5-1.55-.42-1.51-1.11-2.87-2.61-3.62-.11-.06-.27,0-.46,0-.65,1.15-1.64,1.82-3.05,1.85-.39,0-.78.25-1.06.35-1.53,1.64-2.1,3.79-3.65,5.28-.15.14-.17.59-.06.77.12.19.49.34.73.31,1.95-.27,3.88-.6,6.25-.97h0ZM212.47,63.86c-1.93-.51-3.4-1.85-4.85-3.21-.43-.4-1-.54-1.57-.53-.56.02-1.13.12-1.69.22-.72.13-1.32.76-1.31,1.45.07,2.7-.17,5.37-.8,8-.06.26.03.56.03.84,0,.33.67.69.98.52.49-.28,1.05-.48,1.45-.87,1.75-1.71,3.83-2.91,5.89-4.16.6-.36,1.17-.79,1.69-1.25.17-.14.1-.51.19-1.01h0ZM122.38,36.56c.54.36.74.87.41,1.43-.28.47-.69.86-1.08,1.28-.09.1-.22.18-.35.23-1.61.55-3.22,1.06-4.81,1.65-1.45.54-2.71,1.55-4.18,1.82-1.02,0-1.63-.68-2.39-1.03-.63-.3-1.29-.54-1.85-.77-1.16-1.18-2.26-2.28-3.34-3.39-.79-.81-.84-1.64-.16-3.13.67.16,1.36.31,2.1.49,1.65-.05,3.27-.62,4.92-.94.21-.04.6.13.71.32.1.19.04.58-.12.77-.32.44-.73.85-1.16,1.21-.42.37-.94.64-1.39.99-.65.52-.44,1.86.31,2.14.13.05.25.13.39.15,2.14.4,4.23.4,6.08-.97.23-.17.47-.33.72-.44.26-.11.54-.18.81-.23,1.55-.26,2.73-1.55,4.35-1.56h0ZM146.19,44.84c-1.81,1.14-3.57,2.32-5.13,3.76-.85.78-1.79,1.37-2.84,1.81-.39.16-.77.39-1.07.67-.11.1-.04.53.09.67.29.33.72.52,1.14.32.63-.3,1.28-.62,1.81-1.06,1.6-1.33,3.38-1.99,5.47-1.86,1.41.08,2.84-.08,4.24.02,2.56.2,3.05-.42,6.61,1.24.26.12.54.15.82.22.87.22,1.89-.51,2.21-1.57.28-.92-.46-2.14-1.41-2.27-.55-.08-1.13-.16-1.68-.11-1.62.14-3.08-.26-4.44-1.11-.48-.3-1.02-.49-1.54-.73h-4.27ZM144.45,64.87c1.7-3.51,1.65-6.88,1.26-10.29-.02-.13-.13-.25-.18-.38-.08-.3-.72-.65-1.03-.6-2.18.33-3.79,1.86-5.71,2.71-.09.04-.14.21-.15.32,0,.33.15.58.47.64.69.14,1.42.16,2.07.39.68.24,1.18.8,1.28,1.56.14,1.05-.76,2.29-1.79,2.59-.85.24-1.68.27-2.49-.12-1.02-.48-2.02-.98-2.83-1.37-.4,0-.55-.04-.68,0-1.6.56-3.17,1.08-4.94.94-1.26-.1-2.48.52-3.46,1.41-.14.13-.12.45-.2.75.45.03.87.14,1.28.08,1.27-.19,2.51-.47,3.77-.67.55-.09,1.16-.21,1.68-.07,2.04.54,4.23.91,5.1,3.28.05.12.18.22.26.33.41.51,1.34.84,1.93.57,1.42-.63,2.82-1.32,4.37-2.05h0ZM123.08,47.33c.29.14.46.17.54.27,1.87,2.43,4.42,3.86,7.19,5.04,1.28.55,2.7.87,3.79,1.87.26.24.3.91.03,1.12-1.37,1.04-2.76,1.96-4.61,1.82-.86-.07-1.67.23-2.44.6-1.4.67-2.82,1.31-4.41,2.06-.66-.14-1.46-.39-2.3-.48-2.31-.23-3.95-1.36-5.01-3.41-.54-1.03-1.46-1.69-2.39-2.36-1.26-.91-2.54-1.81-3.7-2.84-.9-.79-2.04-.95-2.99-1.53-.19-.12-.25-.46-.33-.71-.01-.03.18-.18.28-.21.98-.33,1.95-.29,2.93-.04.82.21,1.63.44,2.47.6,1.83.35,3.58.32,5.36-.58,1.76-.89,3.78-1.04,5.61-1.21h0ZM156.21,55.03c.34-.13.6-.3.85-.31,1.79-.05,3.24-.83,4.67-1.83,1.85-1.3,3.79-2.48,5.72-3.66.84-.51,1.76-.92,2.66-1.33,1.08-.49,2.17-.49,3.31-.1,1.59.54,2.24,1.05,1.2,2.74-1.02,1.7-1.99,3.41-2.85,5.21-1.27,2.7-3.14,5.05-5.14,7.26-1.71,1.89-3.55,3.66-5.33,5.49-.59.61-1.28,1.15-1.77,1.83-1.72,2.48-4.18,4.2-6.35,6.23-.39.37-.97.55-1.47.8-.3.15-.93-.36-.85-.69.4-1.94.49-3.94,1.15-5.84.79-2.29,1.19-4.66,1.47-7.05.3-2.69,1.13-5.25,2.11-7.76.15-.38.44-.7.64-.98h0ZM90.22,48.53c.17.78-.17,1.24-.46,1.71-1.21,1.97-1.92,4.08-1.87,6.43.01.85,0,1.73-.19,2.54-.78,3.06-.66,6.18-.74,9.29,0,.28-.07.55-.13.94-.29.18-.67.63-.97.58-4.88-.86-5.66-.57-11.32-3.22-.63-.29-1.33-.44-2.01-.62-.82-.22-1.63-.44-2.46-.62-1.79-.4-2.93-1.58-3.86-3.09-1.02-1.64-1.47-3.35-1.04-5.26.12-.53.62-1.09,1.12-1.11.57-.02,1.14-.04,1.69-.01,1.18.05,2.22-.26,3.19-.94.57-.4,1.25-.66,1.91-.89,1.06-.39,2.16-.68,3.22-1.07,1.58-.61,3.21-1.19,4.53-2.28,1.56-1.28,3.46-1.91,5.18-2.88,1.56-.87,2.98-.42,4.22.5h0ZM103.68,71.73c-1.23-1.55-2.38-2.98-3.52-4.43-.99-1.26-1.46-2.75-1.76-4.29-.07-.41-.1-.87-.02-1.27.51-2.33.83-4.72,1.9-6.96.49.53.32,1.07.33,1.58.01.71-.03,1.42.04,2.12.2,1.83,1.06,3.22,2.82,3.93.92.37,1.88.66,2.87,1.01,2.03-.37,4.11-.78,6.2-1.13,1.21-.2,2.24.2,2.99,1.2.68.91,1.37,1.82,2.54,2.51,1.17.35,2.54.71,3.88,1.18,2.63.91,5.27,1.05,7.94.21.27-.08.55-.14.83-.18.58-.09,1.15.03,1.62.34.71.47,1.38.99,2.08,1.49,1.39,1,2.91,1.75,4.72,2.06.87-.16,1.83-.34,2.89-.52.17.44.45.81.44,1.17-.02.4-.24.81-.44,1.18-2.31,4.22-4.64,8.44-6.98,12.66-.2.36-.49.67-.71.96-.36.05-.66.18-.9.1-1.62-.55-3.15-1.27-4.53-2.28-1.03-.75-2.09-1.46-3.16-2.14-.73-.45-1.45-.96-2.26-1.17-2.07-.57-3.88-1.7-5.85-2.52-1.57-.65-3.11-1.4-4.74-1.86-1.26-.35-2.38-.87-3.47-1.54-1.82-1.1-3.66-2.17-5.72-3.39h0ZM201.74,25.87c-.35-.65-.26-1.16.2-1.59.54-.49,1.47-.7,1.96-.4.36.21.7.46,1.02.74.52.46,1.01.97,1.49,1.42,2.66.32,5.19.15,7.72-.24.7-.11,1.4-.22,2.11-.33,2.01-.29,3.95.04,5.87.66.83.27,1.53.73,2.13,1.35.2.2.38.42.54.66,1.42,2.12,3.49,2.83,5.91,2.49,1.52-.21,2.79.39,4.09.89.79.3,1.39.98,1.85,1.72.75,1.21,1.46,2.43,2.17,3.66.62,1.06,1.59,1.64,2.76,1.79,1.27.16,2.54.23,3.82.27,1.59.05,3.09.42,4.53,1.09.26.12.51.25.76.38,1.94,1.02,4.01,1.37,6.19,1.26.56-.03,1.14-.05,1.7.02.55.07,1.1.24,1.64.4.57.17,1,.69,1.01,1.23.02,1.13,0,2.26,0,3.14-.92,2.25-2.11,4-3.72,5.6-2.27.93-4.59,1.98-6.73,3.38-.47.31-1,.55-1.51.8-1.11.54-2.19.49-3.25-.14-.36-.22-.77-.39-1.08-.66-1.21-1.01-2.59-1.73-4-2.41-1.28-.62-2.47-1.4-3.83-2.18-2.14-.09-4.4-.18-6.67-.28-.81-.64-1.57-1.28-2.37-1.85-.77-.52-1.61-.55-2.43-.15-.51.25-1.02.53-1.45.89-.77.62-1.48,1.31-2.12,1.86-1.27.47-2.38.38-3.51.11-1.52-.36-3.03-.73-4.55-1.11-1.26-.32-2.5-.33-3.78,0-1.51.39-3,.87-4.38,1.62-1.12.62-2.21,1.27-3.33,1.9-1.25.7-2.3-.19-2.57-1.31-.13-.54-.17-1.13-.12-1.69.08-.97-.12-2,.52-3.03.26-.12.62-.38,1.01-.44,2.24-.34,4.48-.66,6.57-1.61,1.54-.7,3.1-1.39,4.6-2.19.91-.48,1.46-1.36,1.64-2.37.16-.84.22-1.69.29-2.54.22-2.59-.74-4.74-2.58-6.48-1.14-1.07-2.39-2.01-3.6-3-.21-.18-.48-.3-.69-.48-.89-.7-1.68-1.59-2.66-2.08-.98-.48-2.15-.55-3.17-.79h0ZM93.46,22.98c.22-.29.57-.73.89-1.19.91-1.34.81-2.42-.32-3.36-.22-.18-.45-.36-.69-.5-.89-.53-1.51-1.29-1.81-2.28-.4-1.31-1.41-2.1-2.48-2.83-.48-.33-1.03-.46-1.62-.35-.54.12-1.08.35-1.63.49-2.35.61-3.69-.17-3.94-2.46-.15-1.44-.47-2.78-1.12-4.07-.06-.12-.05-.26-.07-.41.62-1.1,1.81-1.28,2.77-1.71.34,0,.64-.06.91.01,2.61.67,5.18,1.53,7.83,1.97,1.83.3,3.62.71,5.43,1.06.97.19,1.88.6,2.86.82,1.28.29,2.55.23,3.71-.43,1.23-.7,2.55-1.22,3.69-2.11,1.44-1.13,3.15-1.23,4.86-.78.82.21,1.64.54,2.35,1,2.17,1.39,4.55,2.32,6.94,3.22.67.25,1.3.57,1.82.81,1.5,1.39,2.26,3.1,3.08,4.73.76,1.5,1.91,2.39,3.42,3.01,1.74.71,3.54.99,5.41.96,2.13-.03,4.26-.01,6.39-.01,1.32,0,2.1.78,2.56,1.9.22.51.3,1.09.37,1.64.09.69.1,1.4.13,1.84.99,1.78,2.66,2.44,3.8,3.54-.04.3,0,.52-.07.56-.75.39-1.54.7-2.25,1.14-.6.37-1.11.88-1.79,1.43-2.96.55-6,1.31-7.98,3.85-.83,0-1.39.03-1.94-.01-.41-.03-.76-.64-.55-.93.64-.93,1.32-1.84,1.92-2.8.55-.85-.14-2.09-1.19-2.24-.73-.11-1.43,0-2.05.37-.73.43-1.4.95-2.12,1.45-.72,0-1.43,0-2.13,0-2.18-.01-4.23.35-6.11,1.54-.7.45-1.56.65-2,.82-1.15.06-1.72-.41-2.37-.67-.92-.37-1.84-.75-2.78-1.07-1.52-.51-3.04-.61-4.61-.18-.81.22-1.66.34-2.51.41-.38.02-.79-.21-1.04-.28-.82-.77-.43-1.75-.79-2.5-.37-.49-.81-.76-1.45-.67-.62.08-1.07.42-1.33.93-.33.62-.57,1.28-.83,1.87-.59.46-1.12,0-1.65.07-2.56.28-4.31-.98-5.8-2.88-1.06-1.35-2.16-2.66-2.15-4.72h0ZM19.1,32.75c.67-.32,1.32-.61,1.96-.93.5-.26.97-.6,1.49-.81,1.44-.6,2.93-1.07,4.34-1.73,1.4-.66,2.56-1.81,4.12-2.2,1.21-.25,2.17.56,3.26.81,1.15.26,2.29.26,3.35-.18,2.09-.88,4.18-1.78,5.79-3.48.39-.41.8-.83,1.28-1.12,1.63-.94,2.91-2.25,4.24-3.55.38-.39.91-.64,1.42-.99,2.58.95,5.06,2,7.43,3.25,1,.53,1.92,1.22,2.81,1.91,1.01.79,2.15,1.34,3.32,1.87,1.64.75,3.21,1.01,4.91.24.64-.28,1.37-.45,2.06-.45,2.17,0,4.19-.65,6.24-1.23.41-.12.79-.32,1.2-.44,2.09-.64,3.92-.17,5.48,1.34.5.48.97,1.01,1.42,1.48.83-.08,1.52-.16,2.25-.23,1.5.8,2.78,1.83,3.71,3.34,1,1.58,2.46,2.75,4.1,3.65,1.15.63,2.05,1.52,2.75,2.62.32.5.44,1.14.19,1.63-1.32,2.51-2.64,5.04-5.08,6.7-.61.42-1.33.51-2.03.25-.83-.31-1.52-.77-1.52-1.82,0-.41-.01-.84-.09-1.25-.09-.43-.94-.88-1.38-.76-.41.12-.84.2-1.21.4-.62.33-1.24.69-1.8,1.11-1.69,1.27-3.4,1.28-5.14.17-.99-.64-2.07-.87-3.23-.9-.84-.02-1.7-.09-2.62-.14-.86-.39-1.77-.77-2.65-1.23-1.38-.71-2.79-.64-4.13-.08-1.44.6-2.83,1.33-4.17,2.13-1.21.73-2.33,1.61-3.48,2.45-1.64,1.2-3.43,1.2-5.27.66-.37-.11-.7-.48-.95-.79-.24-.33-.3-.82-.59-1.11-.27-.28-.72-.55-1.08-.55-.84.02-1.69.2-2.79.35-.14.19-.49.5-.64.88-.79,1.89-2.29,2.82-4.43,3.29-1.26-.48-2.7-1.03-4.22-1.6-1.16.55-2.29,1.1-3.4,1.63-1.27-.1-1.93-1.21-2.97-1.64-1.03-.43-2.07-.86-3.01-1.25-.79-1.13-.39-2.33-.59-3.42-.21-1.1-.45-2.2-.66-3.17-1.13-1.02-2.29-1.45-3.63-1.44-.85,0-1.7.03-2.54.11-1.97.19-3.94.42-5.94.63-1.39,1.02-1.77,2.47-1.77,4.08,0,.31.71.7.99.53.61-.36,1.2-.75,1.88-1.18,2.15-.21,4.4-.44,6.64-.65.46-.04,1.21.42,1.39.85.41.96.43,1.93.03,2.89-.21.5-1.17,1.02-1.79.95-.41-.05-.83-.18-1.24-.27-.28-.06-.56-.1-.98-.18-1.65.41-3.43.85-5.05,1.25-1.17-.43-1.67-1.34-2.37-2.03-1.38-1.38-3.02-2.1-4.98-1.95-1.27.09-2.53.22-3.91.34-.19-.29-.58-.62-.58-.95,0-1.7.04-3.4.15-5.1.07-1.17.6-2.18,1.33-3.08,1.07-1.33,2.41-1.97,4.13-1.5,1.22.34,2.48.64,3.67,1.09,1.38.52,2.77.55,4.59.45h0ZM147.8,69.71c-.92.38-.88,1.38-1.34,2.06-.25,2.05-1.44,3.67-2.41,5.39-.56.99-1.16,1.97-1.59,3.01-.66,1.61-1.97,2.79-2.76,4.29-.78,1.51-1.21,3.2-2.28,4.56-.97,1.26-1.56,2.67-2.02,4.18-.47,1.49-1.56,1.73-2.45.57-.94-1.23-2.19-2.22-2.83-3.71-.2-.49-.7-.93-1.18-1.21-2.68-1.59-5.17-3.52-8.12-4.64-3.18-1.21-6.37-2.43-9.55-3.65-.92-.36-1.91-.6-2.76-1.1-5.04-3-4.7-1.55-10.16-7.57-.48-.52-1.07-.95-1.57-1.45-1.02-1.03-1.72-2.26-1.99-3.7-.21-1.12-.43-2.23-.64-3.31.12-1.17.26-2.3.36-3.43.19-2.28.53-4.51,1.4-6.65.37-.91.78-1.84.63-2.96-.23-.26-.47-.63-.81-.87-.33-.24-.76-.37-1.16-.51-.32-.12-1,.33-.94.62.1.41.24.82.36,1.23.15.57.17,1.21-.25,1.61-1.08,1.06-1.2,2.51-1.71,3.82-1.31,3.4-1.5,6.91-1.44,10.3.89,1.99,1.59,3.84,2.89,5.4.41.49.24,1.41-.3,1.95-.29.29-.67.59-1.04.66-1.98.37-3.95.4-5.92-.12-1.93-.5-3.86-.91-5.81-1.35-2.2-.49-4.42-.91-6.42-2.07-.84-.49-1.87-.64-2.82-.93-1.76-.55-3.54-1.05-5.28-1.65-1.1-.38-1.96-1.14-2.52-2.18-.21-.38-.43-.75-.61-1.13-.53-1.15-1.05-2.3-1.61-3.51-.18.28-.4.46-.43.67-.26,1.49.21,2.81,1.01,4.03,1.8,2.73,3.75,5.34,6.33,7.41,1.12.91,2.33,1.58,3.79,1.8.84.12,1.65.38,2.48.58,2.77.69,5.56,1.2,8.42,1.13,1.29-.03,2.55.09,3.81.39.96.23,1.96.3,2.96.38,3.34.26,6.36,1.35,9.03,3.41.55.42,1.18.86,1.84,1.03,1.86.47,3.32,1.55,4.77,2.73.2.16.52.18.79.26.68,0,1.32-.58,2.31-.16,1.6,1.28,2.44,3.51,4.02,5.13,1.21,3.03,2.83,5.91,3.65,9.06.67,2.58,1.43,5.23,1.06,8.02-1.53,3.69-1.57,3.82-2.12,7.73-.04.28-.07.56-.09.85-.08,1.28-.45,2.46-.93,3.67-1.15,2.9-2.39,5.79-2.63,8.96-.92,2.39-1.57,4.86-2.12,7.35-.06.27-.23.52-.37.77-.77,1.39-1.18,2.87-1.16,4.49.01.54-.21,1.11-.4,1.64-.49,1.33-1.03,2.64-1.54,3.97-.19.53-.48,1.07-.48,1.6,0,1.18-.45,2.22-.8,3.3-.31.94-.7,1.87-.91,2.83-.39,1.8-.59,3.64-1,5.43-.45,1.93-.81,3.86-1.51,5.76-1.03,2.79-1.94,5.68-2.41,8.6-.56,3.46-1.48,6.87-1.87,10.37h-3.87l.51-4.05c.05-.42.16-.84.28-1.24,1.5-5.32,2.57-10.76,4.24-16.05.97-3.1,1.71-6.3,2.1-9.55.06-.56.14-1.14.32-1.67,1.14-3.37,1.73-6.88,3.03-10.2.52-1.32.79-2.72,1.13-4.1.91-3.73,2-7.41,3.16-11.06,1.33-4.19,2.61-8.41,3.79-12.64.57-2.04.92-4.16,1.3-6.25.58-3.18.17-6.19-1.4-9.08-1.09-2.01-2.38-3.87-3.68-5.74-.23-.34-.56-.65-.89-.91-2.6-1.98-5.3-3.78-8.43-4.9-3.23-1.16-6.55-1.87-9.92-2.37-1-.15-1.99-.25-2.86-.73-1.4-.76-2.9-1.12-4.43-1.44-1.53-.32-3.05-.71-4.56-1.09-.54-.14-1.14-.24-1.6-.53-1.35-.84-2.82-1.29-4.34-1.68-1.24-.31-2.36-.93-3.29-1.88-.89-.91-1.89-1.72-2.9-2.51-1.44-1.15-2.96-2.2-4.09-3.71-.41-.54-1.09-.88-1.66-1.29-.58-.43-1.02-.95-1.39-1.58-.43-.72-.92-1.46-1.52-2.04-2.09-2.05-3.32-4.57-4.21-7.3-.13-.4-.31-.78-.48-1.19-1.32.61-2.58,1.21-3.85,1.77-1.06.47-2.15.7-3.33.52-1.57-.24-3.12,0-4.64.39-1.54.4-3.04.65-4.6.01-.53-.22-1.1-.08-1.67.04-1.26.26-2.53.16-3.82,0-1.86-1.07-2.75-2.81-3.28-4.77-.18-.69-.08-1.42.27-2.07.28-.5.62-.95.92-1.44.44-.74.85-1.49.4-2.38-.56-1.1-1.58-1.08-2.58-1.02-1.83.13-3.7.1-5.5.55-.55.14-1.12.24-1.69.28-1.13.06-2.21-.01-3.33-.43-1.85-.7-3.77-1.18-5.82-.86-.81.13-1.68-.15-2.58-.25-1.6-1.37-3.2-2.75-4.62-3.98-1.39-2.9-1.4-5.73-1.11-8.85.54-1.19,1.18-2.61,1.8-4,2.04-2.11,4.21-3.89,7.34-4.48,1.4.07,2.91.56,4.34,1.12,2.31.91,4.43.67,6.55-.49.62-.34,1.26-.7,1.94-.87,1.54-.4,2.92-1.1,4.24-1.95,2.7-1.71,5.55-2.02,8.59-1.06.26.09.54.1.85.15,2.66-.74,4.85-2.21,6.69-4.28,1.42-1.59,3.34-2.63,4.76-4.25.43-.51,1.18-.76,1.82-1.06.67-.32,1.37-.34,2.07-.1.27.09.54.21.78.35,1.5.82,2.92,1.82,4.49,2.42,1.46.56,2.89,1.17,4.26,1.91.88.46,1.81.89,2.53,1.55,2.19,1.98,2.59,1.11,3.5-1.04.5-1.18,1.04-2.33,1.63-3.66-.09-.42-.14-.99-.29-1.52-.16-.58-.1-1.14.14-1.65.24-.51.52-1.01.86-1.46,2.22-3,4.81-5.6,7.94-7.67,1.18-.78,2.29-1.69,3.47-2.46.71-.46,1.5-.76,2.11-1.07,1.93.15,3.48.9,5.05,1.54,1.86.77,3.72,1.36,5.75,1.44.98.04,1.95.32,2.92.53,1.26.28,2.52.53,3.72.92,1.99.64,3.65.03,5.09-1.29.73-.67,1.28-1.52,1.96-2.24.4-.42.96-.64,1.54-.6.71.05,1.43.11,2.11.31,2.58.75,5.18,1.46,7.47,3.03.79.54,1.8.8,2.72,1.16,1.6.62,3.23,1.12,4.79,1.83,2,.92,3.59,2.29,4.12,4.58.35,1.52,1.46,2.39,2.65,3.19,1.54,1.04,3.87.36,4.72-1.39.25-.5.38-1.06.55-1.56,1.06-1.11,2.29-1.7,3.79-1.77.7-.04,1.4-.21,2.09-.35,2.39-.49,4.8-.63,7.15.1,2.43.76,4.75.64,7.09-.57,3.21.15,6.4.73,9.57,1.57,1.37.36,2.73.8,4.11,1.11,1.68.39,3.25,1.03,4.79,1.74.9.42,1.82.79,2.76,1.1.53.17,1.14.3,1.65.2,1.53-.28,2.78.3,4,1.08,1.67,1.08,3.34,2.15,4.67,3,1.27.49,2.03-.16,3.23-.14,2.57.52,5.52.96,8.19,2.12,1.96-.18,3.79-.36,5.63-.53.56-.06,1.15-.06,1.68-.2,3.1-.83,6.17-.72,9.29-.16.84.15,1.7.1,2.56.1,3.45-.02,6.36,1.36,8.93,3.51.74.63,1.28,1.5,1.9,2.27,1.14,1.43,2.58,2.19,4.42,2.17.99-.01,1.99-.02,2.97-.02,1.08.01,1.97.48,2.57,1.32.67.91,1.26,1.9,1.78,2.9.45.88.79,1.82,1.16,2.72.42.22.79.54,1.17.58,2.42.26,4.73.94,6.98,1.83,1.75.69,3.54,1.03,5.4,1.05.99,0,2,.04,2.96.21,1.39.24,2.8.44,3.99,1.35.55.42,1.28.59,1.93.89,2.17,1.01,3.77,2.53,4.31,5.3-.16,1.08-.3,2.49-.57,3.88-.5,2.46-1.68,4.5-3.83,5.92-1.3.86-2.56,1.8-3.86,2.67-.35.23-.78.33-1.24.53-1.33-.31-2.7-.63-3.96-.93-2.38.57-4.23,1.97-6.01,2.75-3.33,1.2-6.15-.6-9.53-.61-1.23.38-2.49.68-3.67,1.15-1.65.67-3.29.82-4.98.19-.26-.09-.56-.05-.83-.07-1.31.33-2.33,1.04-2.89,2.31-.35.78-.78,1.52-1.06,2.32-.93,2.56-2.26,4.88-4.17,6.85-2.98,4.31-7.12,7.29-11.55,9.92-1.47.87-3.02,1.61-4.68,2.03-1.27.32-2.41.83-3.47,1.55-2.37,1.61-4.99,2.7-7.7,3.59-2.85.94-5.52,2.22-7.88,4.13-1.09.89-2.37,1.53-3.65,2.33-1.63,2.07-3.18,4.26-4.04,6.87-.18.52-.42,1.09-.8,1.47-1.26,1.24-1.86,2.83-2.63,4.53.29,2.03-.24,4.1-.79,6.15-1.02,3.75-.47,7.33,1.07,10.79.88,1.98,1.42,4.04,1.64,6.15.23,2.14.72,4.18,1.42,6.2.33.93.54,1.91.8,2.86-.42,1.58.48,3.06.33,4.64-.1,1.12.06,2.27.11,3.4.1,1.98.24,3.96-.02,5.96-.18,1.4-.06,2.84-.14,4.26-.07,1.45.37,2.8.8,4.1-.54,2.17-.69,4.28-.61,6.42.1,2.98.12,5.97.15,8.95.02,1.13-.05,2.27-.08,3.4l-.06,2.24h-4.43c.04-2.05.02-4.1.04-6.16,0-.38-.18-.76-.28-1.21-.7.37-1.32.69-1.91.99-.28-.16-.58-.25-.74-.46-.24-.32-.53-.73-.54-1.1-.07-1.99-.07-3.98-.08-5.97,0-2.28-.16-4.58,1.24-6.59.08-.11.13-.27.12-.41-.1-1.44,1-2.26,1.68-3.29-.11-.12-.18-.26-.29-.32-.41-.21-.8-.02-1.2.08-1.35.32-2.36-.43-2.25-1.67.06-.7.41-1.45.25-2.09-.54-2.22-.1-4.56-.94-6.74-.18-.47.01-1.11.09-1.67.09-.56.35-1.1.37-1.66.12-3.56.13-7.13-1-10.56-.41-1.24-.72-2.45-.67-3.74.06-1.17-.28-2.24-.71-3.3-1.01-2.5-1.79-5.09-3.04-7.49-.4-.79-.43-1.67-.14-2.5.95-2.67,1.84-5.35,3.21-7.88,1.41-2.61,2.97-5.16,3.78-8.08.3-1.08.92-2.06,1.51-3.31,1.89-.62,3.03-2.23,4.22-3.85.75-1.02,1.6-2.05,2.61-2.79,2.4-1.76,4.92-3.37,7.41-5.02,1.19-.8,2.46-1.39,3.88-1.71,1.96-.44,3.73-1.33,5.41-2.43,1.78-1.18,3.7-2.07,5.72-2.8,4.17-1.5,9.22-4.89,12.54-7.9,2.03-1.85,3.57-4.06,5.21-6.19,1.11-1.44,1.73-3.24,2.01-5.09.06-.37-.36-.86-.78-.85-.42,0-.9-.02-1.22.17-1.36.78-2.67,1.63-3.98,2.48-.23.15-.39.41-.58.61-2.62,2.83-4.22,4.08-7.52,6.16-2.51,1.59-5.1,3.1-7.16,5.32-.17.18-.52.2-.77.3-.27-.08-.53-.17-.79-.23-.4-.1-.79-.17-1.18-.25-.34.56-.62,1.06-.93,1.52-.25.34-.54.66-.85.96-.71.7-1.99.6-2.65-.22-.56-.72-.71-1.55-.37-2.41.52-1.31,1.32-2.49,1.7-3.89.72-2.63,1.01-5.3,1.03-8.01,0-.54-.26-1.07-.39-1.57h-.93c-.48.44-.57.99-.64,1.56-.26,2-.96,3.87-1.87,5.64-2.65,5.09-6.08,9.59-10.39,13.41-2.24,1.97-4.59,3.84-6.65,5.99-2.05,2.15-4.52,3.88-6.33,6.28-.37.5-1.43.4-1.92-.1-.55-.56-.72-1.39-.44-1.94.86-1.66,1.91-3.19,3.36-4.36,2.99-2.42,5.39-5.47,8.52-7.73.33-.25.59-.61.91-.9,2.41-2.23,4.42-4.79,6.44-7.38,1.51-1.93,2.61-4.06,3.59-6.25.98-2.21,1.7-4.53,1.31-6.81-.63-1.33-1.17-2.49-1.75-3.63-.38-.76-.73-1.55-1.22-2.24-.77-1.07-1.25-2.19-1.39-3.52-.06-.61-.71-.8-1.33-.76-.14,0-.27.04-.54.09-.37.81-.75,1.71-1.17,2.59-1.63,3.32-3.37,6.58-4.86,9.95-1,2.25-2.25,4.27-3.82,6.11-1.75,2.06-3.47,4.14-5.13,6.27-.51.67-1.18,1.22-1.82,1.79-.84.75-1.71,1.5-2.6,2.2-2.38,1.83-3.95,4.47-6.29,6.33-.21.17-.34.45-.5.69-.85,1.31-1.74,2.6-2.57,3.92-.22.34-.29.78-.41,1.11.35.78.9,1.16,1.65,1.29,1,.16,1.97.15,2.94-.22.53-.2,1.09-.38,1.64-.43,1.06-.08,1.95.34,2.56,1.23.24.35.33.78.15,1.21-.58,1.43-1.57,2.27-3.16,2.48-2.75.38-5.34-.6-8.01-.88-.26-.03-.51-.22-.77-.35-1.4-.68-2.11-1.85-2.34-3.33.84-2.27,2.83-6.57,3.86-8.06.56-.81,1.26-1.53,1.96-2.23,1.21-1.2,2.47-2.34,3.71-3.52,1.86-1.76,3.64-3.61,5.59-5.26,1.21-1.02,2.35-2.03,3.23-3.35.47-.7,1.09-1.3,1.66-1.94,2.39-2.66,4.51-5.48,5.89-8.81,1.1-2.62,2.21-5.24,3.87-7.58.24-.34.42-.74.61-1.12.27-.52-.13-1.07-.83-1.15-1.69-.2-2.01-.06-2.53,1.43-.23.69-.5,1.32-.98,1.86-1.53,1.71-2.64,3.66-3.57,5.76-.58,1.29-1.26,2.57-2.08,3.71-2.23,3.12-4.75,6.02-7.38,8.81-1.67,1.76-3.33,3.5-4.82,5.4-1.32,1.7-2.91,3.11-4.75,4.24-2.17,1.35-4.33,2.72-6.5,4.08-.6.37-1.18.8-1.81,1.1-.54.25-1.12.16-1.6-.21-1.14-.86-1.56-2-1.28-3.38.08-.42.22-.83.41-1.21,1.32-2.59.9-5.6,1.99-8.26.16-.37.1-.84.12-1.26.02-.29.01-.57.02-.85.2-.17.43-.31.61-.51.07-.09.09-.26.07-.39-.02-.11-.11-.27-.19-.3-.2-.08-.36.11-.39.47-.02.27,0,.55,0,.83h0ZM143.44,41.43c-.09.26-.12.58-.29.76-1.75,1.85-3.74,3.41-5.92,4.73-.47.28-1.04.46-1.58.57-.39.08-.89.09-1.23-.08-2.03-.98-4.02-2.04-5.61-3.69-.18-.2-.32-.45-.48-.68-.37-.52-.3-1.48.22-1.94.4-.36.91-.61,1.33-.89.53.12.95.16,1.33.3,2.11.82,4.36,1.1,6.54,1.64,1.12.27,2.24.23,3.32-.2.78-.31,1.57-.66,2.45-.44.02-.14,0-.32.09-.41.17-.21.37-.41.59-.57,1.15-.81,2.61-1.08,3.7-2.06.94-.85,2.07-1.51,3-2.37,1.79-1.66,3.86-2.87,5.94-4.11,1.1-.65,2.18-1.31,3.19-1.92.67-.95.73-1.93.6-2.93-.03-.25-.21-.61-.4-.7-1.04-.44-2.08-.94-3.16-1.15-1.17-.22-2.12-.76-3.1-1.34-2.88-1.7-5.21-3.91-6.76-6.9-.19-.37-.42-.74-.69-1.07-.36-.45-.85-.77-1.43-.85-.85-.11-1.7-.15-2.54-.23-.71-.07-1.39-.15-2.03-.22-.17-.57-.13-.99.27-1.24.47-.3.96-.63,1.49-.79.95-.28,1.93-.45,2.9-.66.84-.19,1.72-.24,2.52.07,2.7,1.03,5.49,1.3,8.36,1.27,1.27-.02,2.55.11,3.82.25,2.14.23,4.18.78,5.93,2.13,2.85,2.21,6.14,2.8,9.62,2.65.85-.04,1.7-.11,2.54-.06,1.52.08,2.71.79,3.45,2.15.41.75.83,1.49,1.15,2.28.79,2.02,2.29,3.18,4.31,3.75.28.08.54.14.82.2,1.69-.22,3.37-.47,5.06-.66,1.77-.2,2.88.42,3.46,2.37.12.4.25.81.38,1.23,1.03,1.32,2.61,2.22,3.21,3.91.09.26.06.55.13,1.03-.4.87-.87,1.89-1.32,2.87-1.01.69-1.95,1.32-2.83,1.93-.34.04-.67.18-.89.08-1.66-.77-3.29-.91-4.75.25-1.67-.35-3.18-.66-4.67-.98-.26-.42-.48-.77-.66-1.06.06-1,.98-1.9.04-2.91-.37.13-.84.18-1.12.43-.52.48-.96,1.04-1.36,1.62-.5.71-1.11,1.29-1.88,1.68-2.03,1.01-4,2.12-6.12,2.95-3.17,1.24-6.28,2.6-9.42,3.88-.37.15-.82.14-1.3.21-.1-.46-.27-.85-.27-1.25,0-.96-.41-1.63-1.3-1.96-1.73-.62-3.5-1.15-5.22-1.83-1.51-.59-3.04-.8-4.58-.41-1.53.39-3.11.26-4.64.53-1.39.24-2.77.56-4.16.84h0ZM49.6,49.19c-.37.12-.78.21-1.14.39-.29.15-.29.44-.03.63.04.02.21-.14.33-.22.1-.08.24-.14.32-.25.16-.21.29-.44.43-.66.27-.02.55-.02.82-.06.13-.02.26-.07.38-.15.06-.03.04-.15.06-.24-.24-.03-.53-.15-.71-.06-.2.1-.3.4-.45.62Z"/>
        <path class="cls-1" d="M117.33,159.28c-.49-.31-1.1-.66-1.68-1.06-.51-.36-.57-1.46-.1-1.91.61-.58,1.27-1.12,1.93-1.69.85-1.53.99-3.2,1.01-4.92,0-1.27.71-1.95,2.1-2.29,1.52-.38,2.17.02,2.65,1.33.14.4.27.8.42,1.26-.47,3.03-1.3,6.05-1.41,9.18-.02.55-.19,1.13-.41,1.64-.27.63-.49,1.43-1.3,1.52-.9.09-1.69-.34-2.22-1.04-.41-.55-.62-1.25-.99-2.01Z"/>
      </g>
      <g>
        <path class="cls-1" d="M182.07,184.86h-4.43c-.04,3.84-.17,7.69-.56,11.51-.13,1.29-.11,2.61-.12,3.93-.07,5.92-.12,11.84-.2,17.76-.01,1.31.01,2.68-.2,3.93-.61,3.45-.44,6.94-.46,10.44-.06,11.62-.18,23.25-.28,34.87-.02,2.41.01,4.82.03,7.23,0,.88.07,1.76.03,2.63-.37,7.68-.02,15.35.09,23.02.03,1.97.05,3.94.03,5.91-.02,3.51-.14,7.02.42,10.47.1.62.06,1.32,0,1.96-.02.33-.23.63-.36.95-.23-.25-.58-.43-.64-.75-.48-2.78-.44-5.64-.48-8.48-.02-1.97.08-3.95.07-5.92,0-1.31.04-2.68-.2-3.91-.41-2.18-.51-4.29-.16-6.48.1-.61.15-1.34.02-1.91-.33-1.54-.25-3,.01-4.52.3-1.72.25-3.4,0-5.18-.61-4.31-.47-8.74-.51-13.12-.05-7.01.01-14.04.12-21.05.08-4.59.1-9.19.51-13.78.25-2.59.21-5.25.26-7.88.09-4.82.15-9.65.21-14.47.02-1.12-.07-2.18-.67-2.96-.43-.08-1-.04-1.09.61-.41,3.23-1.12,6.32-1.87,9.57,0,4.25.01,8.64,0,13.02-.02,5.27-.16,10.52-.52,15.77-.23,3.47-.36,6.98.13,10.48.21,1.49.25,3.08.16,4.59-.18,3.27-.34,6.49-.06,9.79.24,3.03.22,6.12.29,9.19.04,1.75,0,3.51,0,5.27,0,.88-.07,1.76-.06,2.63.22,7.67.16,15.35.08,23.02-.02,1.97.17,3.88.48,5.84.92,5.76,1.49,11.6,1.31,17.57-.12,3.78.56,7.39,1.06,11.02.66,4.71,1.24,9.43,1.57,14.24.42,6.1.98,12.19,1.93,18.14.58,3.64,1,7.32,1.23,11,.45,7.21,1.01,14.37,2.34,21.33.33,4.59,1.17,9.04,1.67,13.56.36,3.21.23,6.55.24,9.83,0,.57-.34,1.14-.56,1.82-.72.09-1.42.22-2.12.23-.52.01-1.18-.86-1.23-1.55-.3-3.91-.6-7.82-.85-11.75-.26-4.18-.73-8.26-1.96-12.05-.19-.57-.49-1.06-.74-1.59-.2-.4-.93-.27-1.13.18-.39.95-.65,2-.59,3.11.12,1.95.31,3.9.51,5.85.47,4.77.91,9.53.97,14.37,0,.65-.05,1.31-.08,1.97-.04.58-.43,1.34-.77,1.43-2.23.53-4.44,1.46-6.72.18-.49-.28-1.16-.22-1.66.07-1.8,1.05-3.65.8-5.44.36-1.84-.47-3.67-.55-5.52-.61-2.27-.08-4.55-.02-6.82-.12-1.28-.06-2.54-.3-3.82-.48-.42-.06-.84-.29-1.26-.24-2.97.3-5.95.64-8.92.97-.28.03-.56.07-.84.14-3.24.99-6.49,1.05-9.75.34-.69-.16-1.46-.31-2.11-.05-2.54,1.06-5.07.84-7.61.18-.73-.2-1.4-.11-2.11.17-1.53.59-3.11.68-4.66.42-4.5-.76-9.03-1.28-13.43-1.49-.54-.79-.88-1.49-.81-2.46.06-.86.17-1.72.25-2.59.22-2.31-.42-3.78-1.81-4.52-.61.16-1.14.54-1.33,1.44-.27,1.24-.47,2.52-.62,3.81-.12,1.07-.12,2.17-.19,3.26-.03.5-.55,1.29-.84,1.28-2.28-.1-4.55-.21-6.82-.34-.43-.02-1.09-1.15-1.07-1.83.1-2.18.05-4.43.37-6.53.66-4.32.7-8.7.71-13.09,0-.87,0-1.75,0-2.63.04-2.05.69-2.89,2.25-2.9.14,0,.28.09.51.17.12.51.4,1.11.38,1.69-.04,2.41-.16,4.81-.3,7.22-.06,1.31-.13,2.66-.38,3.89-.63,3.06-.15,6.08.02,9.11.05.89.48,1.54.97,2.07.42.46,1.27.36,1.52-.33.26-.74.65-1.6.61-2.37-.18-4.39.28-8.73.27-13.11,0-2.43.14-4.81.69-7.11.24-1.02.38-2.15.37-3.23-.01-1.78-.28-3.48-1.5-4.27-.82,0-1.18,1.18-1.91,1.58-.24-.47-.64-.92-.72-1.48-.48-3.42-1.08-6.82-.94-10.39.07-1.74-.11-3.5-.12-5.26-.02-2.17-.23-4.36-.01-6.46.73-1.02,1.34.34,1.97.02.68-.54,1.14-1.35,1.27-2.5.09-.86.19-1.76.15-2.61-.17-3.52.03-7,.27-10.34-.31-1.64-.6-3.12-1.72-3.61-.75.39-1.26,1.19-1.29,2.37-.09,3.49-.11,6.99-.16,10.18-.2.71-.46.64-.53,0-.18-1.71,0-3.49-.5-5.15-.31-1.01-.27-2.12-.08-3.22.18-1.05.37-2.12.42-3.2.19-3.49.95-6.86.89-10.41-.05-3.27-.03-6.56,0-9.83,0-.87.03-1.83.26-2.58.85-2.68.83-5.53.86-8.38.02-2.63.08-5.24.4-7.85.23-1.93.27-3.93.26-5.9,0-3.74.03-7.44.7-11.08.27-1.45.32-3.05.26-4.57-.18-4.18.11-8.31.34-12.45.07-1.31.13-2.62.13-3.94.02-3.51.19-7.01.56-10.48.43-4.11.45-8.3,1.13-12.36.2-1.24.11-2.62.1-3.94,0-4.61.11-9.21.79-13.73.07-.42.12-.86.12-1.3.02-5.77,1.08-11.27,1.95-16.79.48-3.03.75-6.02.81-9.09.05-2.64.31-5.22.61-7.81.3-2.57.11-5.26.82-7.74.11-.39.17-.86.17-1.29-.04-4.01.79-7.76,1.42-11.57.1-.64.22-1.29.23-1.94.02-1.36.09-2.73.19-4.08h-3.87c-.22,2.7-.44,5.41-.62,8.11-.25,3.71-.62,7.39-1.12,11.03-.65,4.73-1.1,9.48-1.36,14.28-.06,1.09-.09,2.19-.23,3.27-.71,5.58-.94,11.31-2.08,16.76-.12.62-.19,1.29-.21,1.94-.05,2.84-.5,5.6-.52,8.49-.02,2.8-.68,5.58-.99,8.38-.13,1.07-.07,2.18-.11,3.28-.12,3.73-.19,7.46-.37,11.18-.12,2.62-.48,5.21-.58,7.83-.28,6.78-.82,13.52-.96,20.32-.04,1.53-.23,3.05-.3,4.58-.18,3.27-.35,6.55-.51,9.83-.09,2.18-.02,4.41-.28,6.55-.28,2.39-.36,4.79-.44,7.19-.12,3.28-.19,6.55-.73,9.78-.28,1.68-.31,3.47-.41,5.22-.24,4.8-.44,9.6-.67,14.41-.04.87-.06,1.78-.23,2.6-.49,2.35-.47,4.76-.45,7.17.03,2.84.24,5.68.21,8.52-.04,3.71-.22,7.43-.36,11.27-.15.5-.29,1.12-.5,1.68-1.02,2.57-1.3,5.35-.87,8.24.76,4.99.58,10.04.5,15.07-.03,2.84-.27,5.67-.46,8.51-.24,3.49-.71,6.91-1.24,10.32-.39,2.55-.53,5.15-1.42,7.51-.31.84-.41,1.8-.39,2.78,1.07-.17,2.12-.42,3.19-.41,1.16.02,2.34.73,3.51.71,2.35-.06,4.78.68,7.01-.9,1.7-.2,3.42-.27,5.05.27,1.52.5,3.02.51,4.54.64,3.73.3,7.48.08,11.16,1.21.81.26,1.7.12,2.55.13l7.66.05c.51,0,1.06.11,1.53-.07,2-.79,3.99-.55,6.03-.24.97.16,2.04-.15,3.02-.47,1.84-.62,3.69-.69,5.57-.54,1.69.13,3.4.09,5.1.12.69,0,1.38.07,2.05-.04,1.52-.25,3.02-.8,4.53-.85,1.51-.05,3.04.43,4.56.54.84.06,1.69-.15,2.53-.26.5-.07,1.06-.43,1.5-.26,2.35.94,4.74,0,7.1.32,2.02.3,4.07.34,6.12.37,1.87.04,3.74,0,5.62.25,1.51.18,3.06.06,4.58-.06,1.71-.13,3.4-.13,5.08.41,2.58.84,5.2.51,7.81.43l.09-.19c.19-1.73-.5-3.45-.06-5.18-.41-1.64-.82-3.25-1.23-4.89-.4-1.63-.81-3.27-1.18-4.93-1.1-4.96-2.11-9.96-2.98-14.84q1.61-3.83,1.94-7.52c-.36-1.01-.81-2.12-1.17-3.31-.3-.97-.61-2-.73-3.06-.82-6.89-2.19-13.61-2.62-20.62-.02-.44-.04-.89-.13-1.29-.99-4.37-1.23-9-1.9-13.47-.36-2.38-.5-4.75-.58-7.15-.09-2.63-.03-5.3-.33-7.87-.29-2.39-.42-4.76-.54-7.16-.06-1.09-.07-2.22-.27-3.26-.47-2.57-.48-5.2-.53-7.83-.12-6.36-.22-12.72-.31-19.07-.03-1.54-.09-3.1.06-4.6.3-3.3.07-6.58-.22-9.82-.2-2.18-.29-4.35-.36-6.54-.25-7.24.1-14.47.16-21.7.02-2.41-.12-4.88.15-7.22.54-4.59.43-9.17.47-13.78.04-3.94-.17-7.91.39-11.8.37-2.6.32-5.22.36-7.85.1-6.14.18-12.3.54-18.4.29-4.59.45-9.16.45-13.77,0-3.45.07-6.9.15-10.35h0ZM176.48,338.37l-.25.15.04-.4.2.26Z"/>
        <path class="cls-1" d="M134.31,252.64c.17-.55.35-1.35.68-2.09.24-.52.69-.98,1.09-1.45.27-.34,1.18-.29,1.5.06.25.27.57.53.72.83.42.86.93,1.67,1.68,2.37.88.83,1.13,1.82,1.19,2.87.01.23.02.46-.01.69-.23,1.71,0,3.42.39,5.15-.43.71-.85,1.44-1.31,2.14-.3.44-1.4.56-1.9.25-.23-.14-.49-.25-.67-.43-.92-.86-1.82-1.74-2.56-2.46-.6-1.44-.04-2.7-.18-3.95-.15-1.24-.37-2.49-.6-3.97Z"/>
        <path class="cls-1" d="M107.05,301.07c1.35-1.24,1.16-2.76,1.85-3.98.93-1.04,2.18-1.84,3.4-2.62.2-.13.54-.02.79.07.28.09.52.97.4,1.3-.12.29-.2.62-.35.88-.81,1.39-1.29,2.81-1.18,4.58.1,1.71-1.33,2.79-2.94,2.5-.38-.07-.76-.18-1.2-.28-.33,1.51-.57,2.93-.95,4.32-.3,1.15-.95,2-2.07,2.18-1.03.17-2.26-.72-2.63-2-.7-2.36-.96-4.78-.35-7.22.08-.31.24-.59.37-.88.5-1.07,1.56-1.56,2.53-1.09.52.24,1,.6,1.43,1,.32.3.55.75.89,1.25Z"/>
        <path class="cls-1" d="M173.78,394.47c.61.52,1.04,1.27,1.28,2.34.26,1.25-.29,2.57-1.18,2.74-1.07.19-2.06-.95-1.98-2.4.06-1.38.52-2.37,1.45-2.67.13-.04.27,0,.42,0Z"/>
      </g>
    </g>
  </g>
</svg>