<?xml version="1.0" encoding="UTF-8"?>
<svg id="Layer_2" data-name="Layer 2" xmlns="http://www.w3.org/2000/svg" viewBox="0 0 299.89 262.96">
  <defs>
    <style>
      .cls-1 {
        fill: #593826;
        fill-rule: evenodd;
      }
    </style>
  </defs>
  <g id="_Layer_" data-name="&amp;lt;Layer&amp;gt;">
    <g>
      <path class="cls-1" d="M74.55,95.61c.08-.33.01-.6-.26-.74-.06-.03-.28.18-.26.25.05.26.15.51.24.77.09-.09.18-.19.28-.28h0ZM111,108.69c-.09.05-.23.06-.27.13-.14.35-.07.61.18.67.03,0,.16-.24.18-.38.01-.13-.06-.28-.09-.42h0ZM116,91.85c-.3-.3-.55-.65-.88-.86-.19-.11-.48,0-.72.02.06.24.07.53.2.7.37.53.83.66,1.4.14h0ZM244.61,18.99c.14.66.48,1.22,1.04,1.37.32.09.73-.17,1.13-.29-.96-1.73-1.08-1.79-2.17-1.08h0ZM100.25,111.06c1.33-.81,1.81-1.76,2.21-2.78.04-.1-.03-.3-.11-.4-.04-.07-.23-.1-.28-.06-.78.68-1.4,1.51-1.83,3.24h0ZM69.38,91.91c-.81.5-.81,1.54.01,2.15.1.07.34.12.37.06.21-.35.53-.73.53-1.1,0-.38-.32-.77-.53-1.13-.04-.06-.25,0-.39,0h0ZM132.18,82.46c.49.25.98.53,1.47.74.24.11.54.19.79.14.2-.06.4-.3.54-.51.05-.09.01-.37-.07-.45-.41-.39-.82-.81-1.29-1.1-.56-.35-.92-.04-1.45,1.18h0ZM151.63,38.15c0,.33,0,.5,0,.67.02.42.17.63.42.54.12-.04.26-.12.35-.23.58-.64.63-1.41.41-2.24-.04-.14-.15-.34-.25-.37-.32-.11-.59.05-.67.38-.12.45-.2.94-.26,1.25h0ZM151.02,45.7c-.18-.33-.3-.63-.48-.88-.29-.41-.81-.36-1.04.05-.43.79-.33,1.52.12,2.25.27.44.73.42.95-.12.18-.42.3-.89.44-1.29h0ZM285.79,78.79c-.25.07-.59.06-.73.25-.14.18-.22.67-.1.85.45.78,1,1.5,1.54,2.29.53-1.14.54-1.15-.72-3.39h0ZM162.11,76.92c-.38-.1-.8-.39-1.12-.28-.96.33-1.64,1.16-2.17,2.14-.05.08-.04.28,0,.34.08.11.24.24.34.22,1.14-.19,2.08-.79,2.77-1.87.08-.12.09-.3.17-.56h0ZM141.8,72.33c.13.1.24.22.37.27.12.05.28.05.42.04,1.33-.1,2.39-.86,3.28-1.95.17-.2.28-.58.26-.87-.01-.24-.25-.47-.41-.76-1.3.63-2.36,1.74-3.52,2.6-.19.14-.27.44-.4.66h0ZM28.06,129.94c1.1.12,1.65-.49,1.85-1.54.09-.45.08-.96,0-1.4-.05-.24-.34-.52-.55-.57-.21-.06-.54.07-.7.26-.48.56-.88,1.26-.9,2.07-.02.41.2.83.3,1.19h0ZM234.64,84.84c-.06-.16-.09-.33-.18-.45-.59-.82-1.56-1.07-2.28-.6-.58.39-.78,1.58-.34,2.13.83,1.06,2.34.72,2.76-.63.04-.14.02-.3.04-.45h0ZM220.06,40.37c-.08.14-.18.27-.22.42-.29,1.28-.16,2.51.36,3.68.1.22.45.3.74.47.17-.21.4-.42.51-.68.23-.56.39-1.17.53-1.64-.34-1.25-.63-2.35-1.92-2.24h0ZM116.27,55.37c-.27.07-.54.14-.8.23-.42.15-.68.75-.46,1.14.37.67.77,1.31,1.19,1.94.2.29.92.1,1.08-.27.19-.43.36-.86.49-1.31.17-.59-.16-1.29-.71-1.53-.24-.12-.54-.13-.79-.19h0ZM225.09,127.33c-.79.55-1.48,1.03-2.17,1.53-.1.07-.21.35-.19.4.15.19.35.48.52.47,1.08-.06,2.15-.46,3.26-.27.29.06.53-.26.47-.57-.04-.28-.2-.59-.39-.74-.34-.26-.74-.42-1.5-.82h0ZM170.73,63.32c-.03-.3.06-.73-.08-.9-.69-.79-1.42-1.55-2.5-1.46-.52.4-.62,1.05-.78,1.66-.12.49.15,1,.54,1.1.98.24,1.94.32,2.82-.41h0ZM279.65,26.54c.31.47.46.94.76,1.12,1.56.92,3.17.87,4.81.28-.09-.39-.14-.7-.24-.98-.05-.13-.19-.23-.32-.29-1.6-.66-3.21-.76-5-.13h0ZM141.66,7.76c.12.33.14.73.31.85.81.56,1.65,1.14,2.52,1.56.54.26,1.09-.11,1.46-.6.16-.2.25-.57.22-.83-.05-.27-.27-.61-.48-.7-1.31-.55-2.64-.73-4.03-.28h0ZM286.83,112.25c-.85,1.73-1.84,3.02-2.68,4.46-.06.11-.08.37-.01.45.15.22.38.53.56.53.54,0,1.1-.09,1.63-.26.23-.07.52-.34.59-.6.42-1.38.65-2.77-.09-4.58h0ZM197.76,18.21c.34-.65.11-1.2-.27-1.2-2.6.04-4.92,1.08-7.21,2.65.3.25.49.55.63.53,1.1-.29,2.17-.63,3.25-.94,1.23-.36,2.46-.71,3.6-1.03h0ZM201.49,91.2c-.03-.2-.09-.85-.25-1.48-.08-.26-.35-.57-.58-.64-.19-.06-.54.13-.68.32-1.11,1.57-1.13,3.55-.03,5.42.17.31.52.26.71.03.77-.9.84-2.04.83-3.66h0ZM223.65,90.29c2.04.67,3.93.41,5.8-.24,0-.42.11-.87-.01-1.01-.62-.65-1.33-1.16-2.19-1.3-2.42.97-2.43.94-3.6,2.55h0ZM236.41,131.18c-.36-1.08-1.21-1.68-2.13-1.99-1.2-.4-2.46-.34-3.68.12-.06.03-.13.21-.12.32,0,.15.04.38.12.43,1.51.77,3.04,1.46,4.64,1.93.25.06.55,0,.81-.07.35-.09.46-.35.36-.75h0ZM185.07,163.82c-.51-2.26-1.01-4.62-1.57-6.94-.12-.45-.51-.68-1.1-.42-.07.55-.18,1.19-.24,1.83-.11,1.52.19,2.92,1.02,4.14.35.51.7,1.03,1.09,1.5.24.27.51.22.8-.1h0ZM269.78,23.38c-.06,0-.22-.02-.33.05-.21.12-.4.29-.59.44.16.25.27.62.48.73,1.63.88,3.26,1.71,4.92,2.5.18.08.57-.09.71-.3.12-.19.12-.64.02-.85-.21-.41-.49-.8-.82-1.07-1.29-1.02-2.72-1.6-4.38-1.51h0ZM172.22,67.28c-.07-.08-.15-.23-.24-.24-1.82-.21-3.58.07-5.3.76-.44.17-.69,1.14-.38,1.64.24.36.59.63.87.91,1.69-.47,3.26-1.07,4.61-2.27.2-.17.3-.52.44-.8h0ZM52.93,115.56c-.3-.96-.91-1.6-1.67-2.11-.49-.33-1.4-.05-1.4.52,0,1.36-.53,2.52-.85,3.76-.09.37.03.71.33.83.23.1.58.17.78.04,1.12-.74,1.97-1.84,2.82-3.04h0ZM166.43,99.73c-.77-2.23-1.66-4.38-2.37-6.61-.15-.45-.37-.87-.57-1.29-.06-.15-.14-.29-.24-.39-.11-.1-.25-.16-.47-.28-.11.43-.35.86-.31,1.26.21,2.11.81,4.08,1.58,6,.3.75.76,1.38,1.44,1.67.19.08.48-.18.93-.35h0ZM252.51,70.01c.29.55.39,1.01.66,1.22.32.26.77.38,1.17.41,2.7.22,5.28-.54,7.84-1.4.33-.11.55-.66.94-1.14-.54-.09-.99-.34-1.29-.19-1.71.89-3.51,1.04-5.34,1.04-1.25,0-2.5.03-3.97.06h0ZM80.31,91.85c2.18.76,4.1.04,5.89-1.39.26-.19.34-1.12.12-1.33-1.03-1.02-2.55-1.21-3.49-.34-.88.79-1.69,1.68-2.5,2.56-.07.07-.01.31-.01.51h0ZM12.92,96.07c-.24.07-.57.05-.73.24-1.29,1.49-1.68,3.34-1.33,5.36.18,1.1.58,2.14.91,3.21.03.1.22.25.28.23.25-.1.63-.22.67-.42.57-2.5.61-5.12.19-8.62h0ZM280.74,59.23c-.42-.06-.88-.29-1.22-.14-1.32.6-2.6,1.31-3.88,1.98-1.33.67-2.67,1.09-4.11.37-.28-.15-.62.64-.47,1.09.29.86.85,1.28,1.62,1.28,3.18.07,5.72-1.51,7.89-4.05.08-.09.09-.28.17-.54h0ZM222.56,124.24c-3.07-.33-5.46-.3-8.27.09.03.15,0,.34.07.42,1.22,1.33,2.73,2.12,4.21,3.14,1.58-.79,2.98-1.76,4.04-3.3.04-.06-.04-.24-.06-.36h0ZM280.59,48.21c-.07,1.54-.14,3.15-.22,4.78-.02.37.57.89.89.77,1.21-.44,2.43-.86,3.01-2.63-.24-1.08-.47-2.34-.79-3.57-.05-.21-.42-.43-.66-.47-.89-.15-1.65.13-2.22,1.13h0ZM251.32,74.65c-1.39-.8-3.04-1.74-4.69-2.67-.11-.06-.28-.04-.42,0-.13.03-.27.09-.37.19-.06.06-.09.3-.05.35.78.93,1.6,1.83,2.35,2.8.75.98,1.39,2.05,2.13,3.05.18.24.47.35.73.51.75.46,2.11,0,2.49-.75-.68-1.09-1.33-2.14-2.17-3.48h0ZM90.8,107.55c-.2.36-.56.72-.61,1.13-.06.67.23,1.27.78,1.61,1.62,1.01,3.33,1.68,5.2,1.78.12,0,.26-.12.36-.22.1-.08.18-.22.19-.35.06-.99-.59-1.83-.39-2.85.08-.43.17-1.01-.73-1.3-.53.05-1.36.17-2.19.2-.84.04-1.68,0-2.61,0h0ZM264.17,117.44c.23-.94.48-1.37.15-1.83-.17-.23-.73-.11-1.09.31-1.56,1.88-3.28,3.49-5.15,4.95-.46.36-.86.81-1.27,1.26-.09.09-.16.38-.12.43.15.2.37.47.57.46.55,0,1.11-.12,1.66-.23,2.9-.59,4.88-2.32,5.25-5.36h0ZM273.1,132.31c2.25,1.16,3.76,1.38,5.32,1.24,2.12-.18,4.24-.44,6.35-.76,1.28-.19,2.48-.72,3.47-1.68.13-.11.05-.5.07-.78-1.16-.3-2.26,0-3.39.2-1.26.23-2.54.3-3.81.44-1.13.14-2.25.28-3.38.46-1.25.2-2.49.47-4.64.87h0ZM220,105.01c.91.18,1.32.32,1.72.31,3.56-.1,6.95-1.12,10.27-2.51.09-.05.18-.22.21-.35.11-.39,0-.67-.3-.76-1.64-.52-3.33-.62-5.02-.4-2.43.31-4.61,1.33-6.88,3.71h0ZM90.97,101.58c.14,1.21.92,1.67,1.58,2.23.21.17.55.25.81.21,1.16-.18,2.22-.7,2.97-1.75.81-1.16,1.4-2.5,1.46-4.03.02-.64-.14-1.28-.28-1.91-.12-.58-1-.88-1.43-.51-.33.29-.71.55-.99.91-.67.84-1.27,1.77-1.97,2.6-.69.81-1.46,1.53-2.15,2.25h0ZM230.7,54.94c-.19-1.48-.53-3.03-1.18-4.41-.42-.31-.77-.59-1.14-.83-.24-.17-.49-.31-.75-.43-.8-.39-1.75.28-1.83,1.31-.06.64-.11,1.29-.08,1.94.1,1.65.64,3.13,1.5,4.46.31.47,1.08.73,1.49.46.86-.55,1.72-1.13,1.99-2.5h0ZM232.38,107.72c-.24-.13-.5-.39-.75-.37-.55.04-1.15.11-1.66.35-1.85.89-3.75,1.41-5.77,1.39-.55,0-1.1.25-1.64.38-.24.5-.49.91-.62,1.36-.24.83-.11,1.62.43,2.26.52.61,1.1,1.04,1.91.77.98-.89,1.99-1.78,2.87-2.56,1.32-.1,2.45-.18,3.46-.26,1.52-1.73,1.52-1.74,1.76-3.32h0ZM41.03,123.44c-1.42-.42-1.44-.51-2.14-.24-1.54.57-3.06.61-4.6.05-.27-.09-.59-.13-.84-.05-.24.07-.6.3-.63.53-.23,1.48-.09,2.94.43,4.31.1.28.34.54.58.68,1.2.67,2.46.65,3.71.2.25-.08.48-.33.67-.56.2-.22.37-.5.52-.78.76-1.38,1.51-2.74,2.3-4.15h0ZM215.89,130.58c-.42.44-.6.76-.83.85-2.05.87-3.96.4-5.46-1.33-1.77-2.06-3.37-4.34-4.99-6.58-.26-.33-.29-.89.17-1.33.31.23.68.43.99.72,1.77,1.61,3.6,3.09,5.62,4.27,1.51.87,2.95,1.87,4.51,3.4h0ZM270.2,70.76c.51,0,1.08-.05,1.63.02.25.04.65.24.69.45.1.45.01.94-.03,1.42,0,.15-.11.3-.2.42-.76.97-1.49,1.96-2.3,2.86-.4.44-.91.87-1.42.99-2.52.61-4.8,1.87-7,3.34-.22.14-.55.06-.83.08-.4.02-.87-.45-.83-.91.02-.3.08-.7.25-.84.44-.37.93-.74,1.46-.91,1.22-.38,2.48-.61,3.71-.98.54-.16,1.05-.44,1.54-.77,1.4-.91,1.66-1.84,1.2-4.1-.16-.79.12-1.22.81-1.2.14,0,.28-.02.42,0,.28.03.55.07.89.12h0ZM278.63,116.44c2.12-1.19,2.35-1.4,3.5-3.11.86-1.29.84-2.72.5-4.2-.16-.71-1.25-1.21-1.73-.81-.23.19-.49.34-.68.57-1.46,1.88-3.2,3.18-5.33,3.79-.16.05-.25.51-.31.79-.02.1.12.3.22.38,1.21.83,2.43,1.64,3.84,2.6h0ZM210.17,19.01c-1.15-.18-1.85-.32-2.54-.35-.17,0-.43.31-.52.55-.13.33.01.66.29.83.49.31.96.7,1.48.9.53.2,1.11.25,1.67.3,1.04.12,1.86.68,2.5,1.64.25.39.46.82.72,1.2.25.39.52.78.83,1.09.2.21.49.32.74.45.55.27,1.56-.52,1.55-1.21,0-.16.03-.33,0-.49-.12-.96-.37-1.93-.35-2.89.03-.96.37-1.89.5-2.85.03-.2-.25-.51-.44-.69-.07-.08-.27,0-.4.02-.76.19-1.06,1.03-1.62,1.49-.32.27-.87.56-1.15.42-1.21-.6-2.46-.45-3.25-.42h0ZM135.84,69.28c1.94-2.04,3.47-5,6.48-5.97,1.15.61,2.82-.08,3.56,1.73-.46,1.29-1.34,1.91-2.25,2.3-3.31,1.4-6.6,2.87-9.98,4.02-1.09.37-2.22.53-3.36.31-.12-.02-.24-.17-.36-.25.14-.19.28-.54.44-.54,1.85-.14,3.63-.61,5.47-1.6h0ZM151.15,79.14c-1.67-.83-3.31.13-5.02.13-1.06-.23-2.17-.48-3.22-.71-.49-.44-.94-.85-1.4-1.22-.72-.6-1.57-.64-2.42-.67-.46,0-1.04.64-1.18,1.21-.2.84-.13,1.63.38,2.28,1.33,1.67,3,2.46,4.94,2.04,2.49-.54,4.96-1.19,7.42-1.85.43-.12.54-.66.48-1.21h0ZM285.98,36.21c.36-.66.59-1.06.8-1.47.06-.14.09-.3.12-.47.22-1.36-.61-2.87-1.71-2.85-2,.03-3.92-.31-5.79-1.13-.12-.05-.27,0-.41-.02-.63-.06-1.34.95-1.15,1.67.08.31.12.67.29.91,1.08,1.51,2.19,2.98,3.3,4.45.07.1.25.1.42.18.56-.4,1.16-.81,1.81-1.27h2.32ZM255.13,128.32c-.59.12-.99.17-1.39.27-.55.13-1.1.3-1.65.42-.41.09-.84.12-1.26.21-.55.12-1.15.17-1.64.42-2.49,1.24-5.16,1.7-7.75,2.45-.18.05-.3.29-.51.52,1.16.36,2.24.71,3.33,1.02,1.09.31,2.23.5,3.29.88,2.02.71,3.56.16,4.75-1.93.61-1.08,1.49-1.96,2.22-2.96.23-.31.34-.73.61-1.3h0ZM210.44,70.97c1,.04,1.87.27,2.65.03.79-.25,1.46-.95,2.17-1.49.72-.54,1.41-1.12,2.11-1.69,1.52-1.27,2.74-2.85,3.76-4.66.14-.24.12-.62.14-.94,0-.14-.07-.3-.14-.43-.17-.3-.43-.36-.72-.12-.45.4-.9.8-1.28,1.27-1.39,1.68-3.01,2.96-4.8,4.01-1.66.97-3.3,1.89-5.16,2.22-.41.07-.81.3-1.19.49-.81.43-1.38,1.14-1.72,2.08-.19.5-.08.95.18,1.37.2.35.83.59,1.14.43.38-.19.79-.36,1.11-.67.65-.62,1.23-1.32,1.77-1.9h0ZM102.46,68c.28.19.53.51.72.47,2.1-.36,3.59-1.78,4.59-3.86.25-.53.33-1.27.26-1.89-.36-3.72-2.04-6.33-5.09-7.68-.12-.05-.35-.05-.4.03-.14.25-.36.6-.31.83.23.93.49,1.87.85,2.75.95,2.35.95,4.71.2,7.11-.24.76-.53,1.5-.81,2.24h0ZM146.03,75.27c.25-.5.38-1.01.66-1.3,1.61-1.66,2.89-3.55,3.56-5.95.07-.3.28-.59.48-.78.2-.18.52-.34.76-.31,1.17.2,2.16.89,2.63,2.15.61,1.63,1.09,3.34,1.58,5.03.17.55-.38,1.41-.88,1.37-1.26-.13-2.51-.43-3.76-.41-1.26.03-2.5.41-3.76.54-.38.05-.79-.21-1.27-.36h0ZM58.92,127.88c-.25-1.1-.76-1.83-1.53-2.35-.46-.31-1.28-.3-1.58.06-.28.35-.6.69-.83,1.09-1.24,2.22-2.76,4.08-4.91,5.16-.24.12-.42.42-.64.61-.38.35-.33,1.29.07,1.74.65.72,1.41,1.01,2.3.88,1.4-.2,2.65-1.13,4.09-1.08.57.02,1.11-.18,1.53-.69.77-1.73,1.25-3.58,1.5-5.42h0ZM27.41,120c.32.35.73.6.86.99.14.42.15,1.05-.04,1.41-.87,1.7-1.82,3.34-2.74,4.99-.66,1.16-.88,2.35-.48,3.73.29,1.01-.06,1.59-.85,1.88-.55.19-1.11.48-1.65.44-1.98-.16-3.94-.41-5.91-.66-.1-.02-.2-.15-.39-.31.39-.25.73-.54,1.1-.69.96-.4,1.79-.99,2.49-1.84.58-.71,1.17-1.44,1.82-2.07.89-.85,1.6-1.83,2.21-2.96.76-1.39,1.65-2.67,2.52-3.96.25-.37.65-.6,1.06-.95h0ZM101.49,94.95c-.09.3-.28.62-.27.91.12,2.38-.55,4.51-1.52,6.55-.34.72-.75,1.41-.97,2.17-.11.36.11.85.18,1.29.25-.07.42-.07.52-.18,2.42-2.55,4.6-5.31,6.04-8.78.98-2.36,1.96-4.72,3.16-6.96.36-.69.53-1.51.77-2.27.12-.36-.23-1.02-.58-1.15-.14-.06-.28-.11-.42-.12-.76-.04-1.52.47-1.7,1.16-.49,1.86-.49,3.94-1.85,5.39-1.03.86-2.45.81-3.36,1.96h0ZM232.81,116.46c-.06,1.12-.11,2.09-.17,3.22-.91,1.48-1.84,3.1-2.25,5.04-.08.37-.57.65-.85.93-1.09-.25-1.85-.92-2.43-1.88,0-.14-.03-.3.02-.4.5-.75,1.58-.78,1.75-1.93-.51-.94-1.33-1.37-2.17-1.06-2.08.73-4.19.61-6.28.35-.69-.08-1.35-.45-1.87-1.32,2.18-.12,4.25-.24,6.32-.35,1.22-.67,1.61-2.25,2.56-3.19.31-.31.69-.64,1.07-.72,1.61-.35,3.04.08,4.29,1.3h0ZM241.6,70.41c-.25-1.23-1.16-1.83-1.89-2.57-2.38-2.37-4.57-4.92-6.23-8.03-.15-.27-.41-.45-.61-.67-1.56-.06-2,.3-4.21,3.39.11.31.16.66.35.89.37.49.76,1,1.23,1.34,2.16,1.56,4.35,3.09,6.55,4.57.74.5,1.53.91,2.35,1.16.79.25,1.66.52,2.47-.08h0ZM117.07,179.2c-.92.65-1.76,1.23-2.6,1.84-2.05,1.49-3.07,3.78-3.7,6.37-.11.46-.12,1-.04,1.47.5,2.88,1.06,5.75,2.13,8.44.08.22.46.29.7.42,1.01-10.52,2.14-10.72,4.44-15.29-.02-.61.02-1.43-.12-2.22-.07-.37-.49-.66-.82-1.03h0ZM177,70.01c2.01.72,3.75,1.96,4.85,4.31-.39.39-.66.87-1.02.98-2.61.76-5.22,1.49-7.85,2.11-.81.2-1.69.12-2.53.05-.72-.07-1.35-.5-1.78-1.18-.14-.22-.21-.69-.1-.9.29-.54.64-1.11,1.08-1.47,2.21-1.8,4.55-3.31,7.35-3.9h0ZM175.81,80.99c-.53.22-1.2.43-1.81.8-1.65,1.02-3.24.81-4.85-.14-.62-.37-1.27-.69-1.93-.96-.54-.21-1.13-.21-1.64.09-.62.39-1.21.84-1.75,1.33-.18.17-.19.58-.27.91.61,1.27,1.39,2.41,2.47,3.18.17.06.3.13.44.16,2.21.38,4.51.05,6.63,1.19.33.17.85,0,1.23-.13.94-.36,1.87-.76,2.42-1.86.06-1.42.24-2.89-.44-4.24-.06-.12-.23-.17-.5-.34h0ZM120.59,52.7c.93-1.64,1.53-3.47,2.24-5.24.13-.34-.25-1.07-.58-1.15-2.24-.46-4.41-1.18-6.57-1.95-.26-.09-.55-.08-.84-.09-.13,0-.29.02-.4.09-.12.06-.26.2-.29.34-.39,1.89-.79,3.8-1.14,5.7-.14.75.42,1.62,1.13,1.81.68.19,1.37.42,2.06.46,1.41.07,2.81.02,4.39.02h0ZM250.09,66.38c.39.08.67.21.93.18,1.83-.29,3.64-.41,5.47-.06.98.18,1.95-.07,2.89-.5,1.57-.7,3.06-1.68,4.79-1.93.54.09,1.09.24,1.64.28.27.02.55-.1.79-.24.39-.22.65-.59.67-1.12,0-.4-.41-1-.79-1.03-1.84-.12-3.58-.8-5.34-1.33-1.53-.45-3.05-.61-4.49-.43-1.17,1.15-2.22,2.24-3.33,3.24-1.06.96-2.31,1.67-3.26,2.94h0ZM14.34,117.72c-.12.09-.28.15-.34.28-2.14,3.82-4.27,7.65-6.36,11.41.37,1.06,1.07,1.28,1.79,1.17,1.4-.21,2.78-.57,4.08-1.41,1.38-1.79,2.81-3.6,3.75-5.83.41-.96.35-1.97-.18-2.8-.59-.91-1.3-1.71-1.99-2.52-.17-.19-.49-.2-.75-.3h0ZM287.12,120.53q-2.31,1.08-3.97,3.39c-1.34.53-2.68,1.02-4,1.58-.38.16-.73.49-1.01.84-.14.19-.11.59-.09.89,0,.11.17.28.28.3.41.07.85.23,1.24.14,2.22-.55,4.46-.86,6.73-.93,1.45-.06,2.79-.64,4.12-1.15,1.08-.41,2.17-.93,2.64-2.27.45-1.3.25-2.57-.32-3.76-.61-.24-1.07.14-1.53.49-1.01.77-2.08,1-3.24.54-.25-.1-.55-.06-.83-.06h0ZM50.03,122.94c.72-.35,1.22-.64,1.76-.85.47-.2,1.18.33,1.22.96.04.46.1,1.01-.06,1.41-.59,1.51-1.4,2.82-2.6,3.75-.94.73-1.89,1.42-2.82,2.13-.74.57-1.57.72-2.42.57-.83-.15-1.65-.37-2.46-.62-1.33-.42-1.62-1.23-.89-2.46.97-1.61,1.93-3.21,2.96-4.75.55-.82,1.38-1.16,2.26-1,.96.18,1.89.52,3.06.84h0ZM44.15,119.05c1.54-1.26,2.48-2.47,3.26-3.85.23-.4-.02-.99-.48-1.03-.42-.04-.84-.04-1.27-.03-1.09,0-1.88-.61-2.52-1.54-.51-.75-.68-1.81-1.64-2.25-.31.18-.76.3-1.03.61-1.9,2.2-3.77,4.42-5.64,6.65-.1.11-.14.28-.22.42-.35.6.11,1.87.72,1.95.56.07,1.14.2,1.69.13,2.38-.31,4.75-.69,7.15-1.05h0ZM275.26,35.27c2.21,1.9,3.62,4.16,4.95,6.48.12.2-.03.6-.06.91-2.9,2.04-3.69,1.56-3.29,6.95.05.65.02,1.31-.03,1.96-.07.86-.51,1.51-1.04,2.07-.09.1-.27.11-.41.1-.32,0-.54-.22-.45-.54.12-.46.34-.9.5-1.36.33-.98.23-1.64-.36-2.19-.56-.49-1.15-.93-1.8-1.46-.19-.56-.42-1.16-.59-1.77-.89-3.21-1.19-3.27.35-6.52.67-1.41.94-3.09,2.24-4.63h0ZM234.29,125.1c-.04-.44-.22-.97-.1-1.38.41-1.35.75-2.79,1.84-3.59.37-.03.65-.12.91-.06,1.39.3,2.79.51,4.12,1.01,1.88.7,3.78,1.19,5.74,1.47.36.06.69.51.99.83.23.26-.03,1.19-.33,1.21-.68.03-1.41-.15-2.02.58-.24.66-.5,1.4-.75,2.09-.28.21-.49.45-.74.55-.67.23-1.38.34-2.04.61-1.46.58-2.78.16-4.03-.71-1.19-.82-2.36-1.71-3.59-2.61h0ZM262.5,125.41c2.53-2.18,4.27-5.08,5.31-8.56.04-.15.14-.29.19-.43.32-.69,1.17-1.13,1.8-.91.27.1.54.21.79.35.38.2.76.44,1.26.74.56,1.95,1.85,3.43,3.49,4.67-.58.65-.83,1.09-1.16,1.26-1.04.5-2.13.88-3.19,1.32-1.44.59-2.43,1.62-2.45,3.55-.01.3-.16.65-.35.85-.18.21-.5.41-.72.37-1.68-.36-3.13-1.4-4.65-2.24-.17-.09-.18-.55-.31-.96h0ZM25.25,108.38c-.14.66-.15,1.18-.34,1.6-1.17,2.62-2.55,5.1-4.12,7.43-.42.64-1.33.68-1.88.09-.42-.44-.84-.89-1.21-1.37-.83-1.07-1.08-2.31-.63-3.66.34-1.07.8-2.1,1.16-3.16.54-1.68,1.06-3.38,1.57-5.08.26-.84-.24-2.22.93-2.37.98-.14,1.24,1.14,1.79,1.84.67.86,1.4,1.65,1.96,2.59.4.64.55,1.47.78,2.1h0ZM86.02,20.32c.63.69.57,1.58.83,2.32.35,1.01,1.02,1.54,1.95,1.62.13.02.28.02.42.03.85.05,1.41-.48,1.45-1.34.04-.98-.03-1.98.11-2.93.13-.95.46-1.87.68-2.75-.24-.3-.37-.67-.6-.77-2.16-.94-4.45-.85-6.69-1.01-.42-.03-.85.08-1.26.23-1.78.68-3.33,1.8-4.57,3.43-.38.5-.51,1.17-.32,1.84.18.65.56,1.15,1.17,1.27.84.16,1.67.3,2.51.35,1.36.07,2.48-.41,3.29-1.78.18-.31.71-.36,1.03-.5h0ZM215.23,118.05c.14-.42.4-1.02.55-1.63.49-2.04.99-4.07,1.99-5.9.2-.36-.18-1.04-.53-1.11-1.32-.3-2.5.28-3.71.71-3.27,1.2-5.51,3.81-7.28,7.06-.18.34-.02,1.3.25,1.31,1.35.04,1.95,1.02,2.46,2.27.37.91,1.08,1.5,1.87,1.89.2.1.5-.07.77-.12,0-.15.02-.3.02-.45-.02-1.87.24-2.41,1.58-2.94.66-.26,1.39-.3,2.02-1.09h0ZM157.45,66.45c.94-.39,1.58-.82,1.68-1.72.32-2.93.79-5.83.71-8.8-.03-1.22-.49-2.21-1.23-3.03-.85-.95-1.89-1.4-3.04-1.59-.3-.05-.9.38-1.04.73-.11.29-.31.58-.33.89-.14,2.67-1.01,5.08-1.98,7.46-.18.42-.22.92-.41,1.71,1.6,1.71,3.18,3.52,5.63,4.35h0ZM86.03,107.8c-.63-.29-1.33-.49-1.92-.91-1.69-1.19-3.33-2.46-4.98-3.73-.35-.27-.64-.63-.94-.99-.96-1.16-1.19-2.55-.92-4.08.09-.55.67-1.32,1.09-1.39.69-.11,1.4-.29,2.09-.28,3.04.05,5.9-.66,8.56-2.37.49-.3,1.25-.06,1.5.42.27.52.27,1.49-.05,1.86-1.34,1.62-2.88,2.62-4.91,1.98-.54-.17-1.07-.51-1.62-.54-.34-.02-.83.29-1.04.62-.23.34-.38.97-.26,1.34.53,1.67,1.56,2.72,3.16,2.77.85.03,1.69-.08,2.54-.11.4-.02.73.65.51,1.04-.58,1.13-1.13,2.27-1.76,3.35-.22.39-.64.62-1.05,1.01h0ZM119.98,68.02c.31.28.54.64.73.62,1.47-.12,2.42.79,3.14,2.09.46.82.85,1.7,1.18,2.6.65,1.81,1.23,3.65,1.84,5.48.45,1.35,1.35,1.8,2.32,1.08,1.78-1.33,3.54-2.7,5.28-4.07.16-.12.18-.5.2-.76,0-.06-.24-.22-.36-.2-.69.11-1.38.31-2.07.39-2.29.23-4.12-.88-5.65-2.72-.28-.34-.51-.81-.62-1.27-.47-2.05-1.02-4.08-.87-6.26.08-1.14.08-2.29,0-3.43-.07-1.21-.55-2.19-1.6-2.64-.53-.22-1.07-.42-1.62-.63-.55-.18-1.12.34-1.1,1.08.08,2.95,0,5.88-.79,8.66h0ZM213.07,87.14c.13-.45.21-.77.33-1.07.61-1.56.68-3.16.19-4.77-.33-1.09-.64-2.16-.66-3.34,0-.65.31-1.27.82-1.53,2.53-1.26,5.28-.91,7.91-1.49,1.41-.31,2.81.25,4.18.67.22.07.39.4.59.61-.06.31-.09.65-.2.94-.29.79-.8,1.32-1.56,1.48-1.54.32-3.09.04-4.59.11-.71-.42-1.32-.84-1.96-1.16-.68-.34-1.38-.24-2.06.06-.57.25-.85.81-1.11,1.39.06.86.35,1.61.91,2.15,1.1,1.03,2.1,2.18,2.92,3.71.29,1.49.17,3.12.1,4.74-.01.4-.38.88-.69,1.16-.58.52-1.3.68-2,.42-1.25-.48-2.32-1.23-2.72-2.83-.08-.31-.19-.61-.41-1.26h0ZM101.1,74.11c.22,3.13-.39,5.4-1.7,7.46-1.01,1.58-1.94,3.21-3.43,4.26-.48.34-1.06.68-1.58.41-1.38-.73-2.7-.66-4.06,0-.34.17-1.01-.22-1.04-.55-.04-.31-.09-.7.04-.92,1.85-3.27,3.8-6.43,6.62-8.75,1.48-1.22,2.82-2.67,4.24-3.97.25-.22.6-.03.65.28.14.79.23,1.6.25,1.81h0ZM115.86,77.7c.1-1,.7-1.51,1.06-2.2.44-.83.89-1.66,1.26-2.54.31-.73.59-1.45,1.34-1.81.28.36.61.67.84,1.08,1.81,3.34,3.31,6.85,4.47,10.56.15.47.1.95-.21,1.35-.31.4-.72.52-1.14.46-.27-.05-.57-.15-.79-.33-1.42-1.18-2.34-.67-3.16.86-.22.42-.39.87-.61,1.28-.71,1.32-2.23,1.57-3.27.53-.78-.78-1.23-1.78-1.54-2.94.54-1.75,2.77-1.83,2.92-4.2-.31-.57-.77-1.37-1.16-2.1h0ZM265.24,108.81c-1.73,3.52-4.25,6.08-7.23,8.12-1.22.84-2.42,1.72-3.65,2.54-.22.15-.54.11-.9.18-.79-3.13-.45-6.11,1-8.88.36-.67.91-1.28,1.46-1.76,2.06-1.81,4.37-3,6.97-3.34q1.7,1.08,2.34,3.14h0ZM65.85,35.85c-.23-.4-.38-.91-.69-1.12-1.23-.81-2.51-1.52-3.77-2.28-1.02-.61-2.1-.98-3.25-1.09-.99-.09-1.97-.25-2.96-.37-2.74-.36-5.04.84-6.98,2.93-1.86,2.02-3.54,4.27-4.8,6.86-.06.13-.08.41-.02.47.19.19.49.47.65.41,1.72-.76,3.37-1.79,5.13-2.34,2.74-.85,5.4-1.95,8.22-2.48,1.83-.35,3.6-.78,5.47-.5.97.14,1.99.12,3-.49h0ZM194.41,93.22c-.26.06-.54.22-.79.18-.25-.04-.55-.22-.71-.44-.16-.22-.18-.57-.26-.92.24-.36.49-.76.77-1.11.39-.52.71-1.11.35-1.74-.21-.34-.66-.53-1.04-.69-.26-.12-.56-.12-.84-.08-3.32.34-6.06-1.14-8.67-3.56-.55-1.18-1.14-2.48-1.71-3.73.24-.69.63-1.13,1.23-1.27,1-.22,1.99-.17,2.9.37,1.13.67,2.29,1.31,3.31,2.17,1.78,1.5,3.76,2.21,5.89,2.58.88.16,1.67-.12,2.31-.87.68-.85.04-1.91.46-3.1.46-.44,1.09-1.07,1.76-1.66.21-.19.51-.28.77-.4.83-.4,1.92.34,1.83,1.29-.13,1.45-.29,2.92-.57,4.34-.07.36-.62.87-.92.84-1.44-.11-2.39.68-3.23,1.89-1.6,2.31-1.74,2.55-2.84,5.91h0ZM43.12,89.98c.55.34,1.03.8,1.56.93,2.01.49,3.55,1.94,5.14,3.26.57.47,1.03,1.11,1.57,1.65.98,1.02,2.15,1.53,3.47,1.62.57.03,1.13.02,1.7.02,1.34-.02,2.46-.67,3.46-1.63.43-.42.88-.85,1.22-1.36,1.2-1.84,2.69-3.34,4.17-4.87.2-.21.42-.48.51-.77.08-.28.01-.61.01-1.08-.4-.3-.84-.68-1.35-.96-.81-.46-1.65-.44-2.37.26-1.19,1.16-2.33,2.38-3.54,3.52-2.24,2.1-4.67,2.08-7.13.6-1.39-.85-2.62-1.92-3.32-3.65-.24-.58-.57-1.13-.86-1.68-.15-.29-.94-.44-1.16-.23-.94.97-1.92,1.92-2.8,2.98-.23.27-.18.88-.26,1.38h0ZM133.13,4.99c-.68-.2-1.39-.33-2.04-.62-1.37-.6-2.73-.66-4.16-.31-2.35.58-4.7,1.14-7.08,1.56-1.49.27-2.63,1.11-3.62,2.33-.98,1.21-1.62,2.67-2.24,4.15-.16.38.06,1.12.35,1.28,1.75,1,3.52,1.16,5.29.08.63-.38,1.24-.77,1.85-1.18.49-.34.93-.74,1.42-1.08,1.33-.91,2.43-.8,3.47.38.49.57.96,1.2,1.44,1.8,1,1.23,2.23,1.4,3.51.81,1.87-.88,3.41-2.3,4.56-4.23.15-.26.17-.62.28-1.05-.63-1.61-1.82-2.74-3.02-3.93h0ZM174.63,232.07c.14-.83.3-1.3.3-1.79.04-2.97.36-5.87,1.29-8.66.05-.16.05-.32.08-.48.16-1.04-.07-1.98-.7-2.72-.81-.92-1.58-1.88-2.62-2.48-.28-.16-1.02.04-1.16.34-.12.29-.32.56-.38.87-.28,1.45-.77,2.78-1.4,4.08-1.79,3.66-1.67,4.22.47,7.51,1.11,1.72,2.17,3.43,2.54,5.59.07.48.32.91.48,1.37,1.09,3.1,1.56,6.27,1.19,9.63-.13,1.28-.11,2.61-.07,3.93.04,1.06.55,1.78,1.4,2.25,1.41.78,2.73.67,4.06-.21,2.02-1.35,2.62-3.23,1.87-5.83-.69-2.38-1.79-4.49-3.26-6.28-1.69-2.05-2.79-4.53-4.09-7.11h0ZM179.44,66.17c3.59-.66,4.98-.59,7.92.45,1.22.43,2.44.87,3.61,1.46,1.98.99,3.87.77,5.75-.3.26-.15.52-.27.76-.44,1.33-.99,2.81-1.61,4.31-2.03,2.13-.59,3.98-1.67,5.7-3.2.43-.39.96-.64,1.51-1,.78.84,1.49,1.61,2.08,2.25.19.97-.1,1.46-.64,1.82-.89.6-1.87.75-2.87.8-1.39.07-2.42.75-3.12,2.16-.42.85-.92,1.65-1.39,2.47-1.21,2.11-2.85,3.58-4.83,4.65-2.11,1.14-4.22,1.83-6.58,1.43-1.25-.2-2.54,0-3.81-.08-1.24-.07-2.13-.84-2.6-2.18-.21-.6-.46-1.23-.54-1.86-.26-2-1.27-3.18-2.84-3.94-.77-.37-1.44-1.02-2.12-1.61-.18-.16-.2-.55-.3-.85h0ZM55.55,118.65c.21-.35.37-.9.68-1.07,1.19-.67,2.45-.72,3.75-.43.9.19,1.45,1.08,1.28,2.12-.11.64-.26,1.28-.36,1.92-.08.6.27,1.47.73,1.63.38.13.82.06,1.22.03.12,0,.26-.14.37-.24,2.48-2.56,5.28-1.78,8.05-.93.68.2,1.32.63,1.93,1.03,1.87,1.25,3.87,2.04,5.97,2.54,2.66.63,5.15,1.83,7.69,2.84.78.32,1.61.67,1.93,1.74-.97,2.37-1.87,3.49-3.46,3.92-2.76.75-5.55,1.39-8.33,2.05-1.36.31-2.53-.06-3.4-1.39-.43-.64-1.04-1.14-1.2-2.12,1.07-.31,2.12-.68,3.19-.94,1.11-.27,2.24-.42,3.31-.62.95-.61,1.64-1.37,1.7-2.68.02-.36-.4-1.1-.67-1.11-.14,0-.28-.05-.42-.04-1.69.06-3.4-.21-5.02.74-.47.28-1.11.28-1.66.26-1.92-.07-3.68.45-5.25,1.69-1.33,1.05-2.85,1.44-4.32,2-.91.35-1.59-.4-1.56-1.61.02-.82.06-1.64.12-2.47.12-1.82-.63-3.15-1.79-4.24-.55-.51-1.18-.91-1.73-1.42-1-.91-2-1.82-2.73-3.21h0ZM163.08,8.58c1.36-.38,2.62-.07,3.83.39,2.42.93,4.85,1.87,7.19,3.03,1.58.78,3.1,1.51,4.88,1.52,1.22,0,2.05,1.02,2.5,2.35.15.45.26.93.36,1.41.1.48.12.98.22,1.45.19.82.55,1.64,1.2,1.96,1.71.8,2.42,2.71,3.47,4.05,1.17.72,2.3.65,3.44.53,1.64-1.1,3.59-.85,5.38-1.71.61.18,1.29.37,2.14.62.9-.48,1.91-1.03,2.89-1.55.33.04.64,0,.89.12,1.04.52,2.23.61,3.1,1.53.16.18.19.53.21.8.02.12-.12.3-.24.38-.24.17-.49.34-.76.41-.7.15-1.4.36-2.11.35-2.6-.06-5.03.82-7.45,1.75-.94.35-1.88.8-2.84,1.04-.95.24-1.95.35-2.94.39-.87.02-1.73-.29-2.36-.99-1.24-1.36-2.49-2.71-3.57-4.22-.62-.87-.88-2.05-1.33-3.07-.51-1.17-.98-2.37-1.6-3.46-.82-1.43-1.99-2.25-3.54-2.42-3.91-.41-7.63.44-11.23,2.14-1.21.57-2.1,1.65-3.07,2.62-.42.43-1.14.49-1.57.16-.71-.54-1.43-1.08-2.1-1.68-1.4-1.25-2.32-2.86-2.58-4.93-.06-.48-.15-.97-.23-1.48.11-.46.19-.94.33-1.4.45-1.38,1.4-1.99,2.61-2.18.45-.07.85.12,1.14.48.39.48.71,1.02,1.04,1.53h.95c.57-.62,1.18-1.29,1.75-1.92h0ZM239.63,18.75c.99,1.22,1.87,2.29,2.72,3.38,1.09,1.4,2.42,2.27,4.06,2.41.28.03.55.16.98.29.25.6.53,1.33.85,2.03.51,1.12,1.34,1.43,2.05.65,1.16-1.28,2.51-2.12,3.96-2.82.93-.45,1.88-.7,2.9-.52.98.18,1.96.35,2.93.54.11.02.22.17.28.3.17.33.14.67-.1.87-3.02,2.49-6.32,4.37-9.75,5.97-1.39.65-2.78.76-4.16.23-1.2-.45-2.37-1.07-3.49-1.76-1.38-.85-2.79-1.59-4.27-2.2-3.04-1.28-6.14-1.11-9.22-.35-1.24.3-2.43.91-3.61,1.47-1.77.86-2.91,2.53-4.01,4.27-.08.12-.63.08-.73-.07-.96-1.54-1.34-3.21-.71-5.08.31-.93.67-1.81,1.21-2.59.65-.93,1.41-1.6,2.51-1.59.56,0,1.13.02,1.7-.05.26-.03.53-.21.78-.37.89-.54,1.18-1.8.67-2.94-.18-.43-.46-.83-.57-1.27-.05-.23.11-.73.28-.8,3.24-1.62,6.6-1.7,10-.87.83.2,1.64.53,2.74.88h0ZM179.09,113.95c1.55,1.34,2.95,1.32,4.43.12,2.67-2.15,5.39-4.22,8.18-6.39,1.84-2.55,3.73-5.18,5.61-7.8-.08-.35-.15-.66-.24-1.04-1.04-.35-2.12-.73-3.21-1.07-.68-.21-1.38-.34-2.07-.51-.88-.21-1.54-.78-2-1.66-.29-.56-.54-1.16-.87-1.7-.52-.85-1.25-1.3-2.17-1.27-1.55.05-3.12.15-4.7-.34-.43-.35-.89-.74-1.35-1.1-1.27-1-2.67-1.04-4.08-.64-.54.16-1.07.44-1.56.78-1.62,1.08-3.16,1.51-4.54-.47-.08-.11-.25-.16-.37-.22-.43-.24-.89-.14-1.18.18-.27.31-.49.82-.53,1.27-.04.46.11.98.27,1.42.75,1.98,1.78,3.71,3.03,5.32,3.28,4.19,5.8,8.87,7.04,14.41.03.15.12.29.32.71h0ZM184.13,135.38c-.6-.45-1.08-1.04-1.1-1.95-.08-3.04.54-5.85,1.94-8.45.77-1.42,1.69-2.65,2.84-3.64.92-.78,1.87-1.51,2.77-2.31.79-.7,1.52-1.47,2.3-2.19,1.7-1.54,2.5-3.52,2.27-6.03,0-.16.04-.32.06-.48.69-2.04,1.87-3.62,3.33-5,2.6-2.41,4.43-5.52,5.87-8.98.69-1.66,1.05-3.39,1-5.24-.02-.99-.06-1.98-.09-2.97-.06-2.66.54-5.2,1.21-7.71.12-.45.44-.82.68-1.26.24.19.56.32.6.52.23,1.11.42,2.24.26,3.4-.36,2.61-.68,5.2-1.02,7.81-.03.17-.05.32-.06.49-.18,1.64.36,2.85,1.65,3.69,1.37.89,2.88,1.45,4.48,1.39,1.42-.06,2.86-.09,4.24-.42,2.11-.54,4.21-.66,6.36-.69,1.84-.03,3.68-.06,5.52-.37.97-.17,1.98-.05,2.86-.67.87-.63,1.87-.71,2.84-.99.53-.15,1.01-.53,1.48-.79.43-1.33.79-2.58,1.22-3.78.22-.63.69-1.08,1.26-1.25,2.8-.86,5.61-.99,8.4.12.37.15.67.56,1,.89.25.25.31,1.08.14,1.37-.17.26-.33.54-.54.76-1.17,1.34-1.8,2.92-1.79,4.85,0,.31-.11.64-.18.96-.49.88-1.29,1.28-2.06,1.68-1.82.94-3.61,1.92-5.3,3.17-1.25.92-2.62,1.15-4.03.74-.32-.72,0-1.31.06-1.94.06-.56-.42-1.41-.84-1.53-2.07-.61-4.14-1.26-6.29-1.2-2.03.06-3.94.82-5.65,1.99-1.35.92-2.68,1.86-4.06,2.71-.61.39-1.22.94-1.59,1.6-.86,1.5-2.08,2.19-3.51,2.54-1.14.28-2.12.93-3.07,1.7-1.84,1.52-3.69,3.06-5.71,4.73-1.17,2.16-2.44,4.53-3.8,7.04-.54.24-1.2.51-1.84.85-.97.52-1.6,1.32-1.51,2.68.09,1.36-.52,2.26-1.55,2.61-2.13.72-3.79,2.2-5.32,3.96-1.41,1.63-2.84,3.23-4.27,4.83-.4.46-.84.86-1.48.8h0ZM279.93,104.61c-.83,2.22-2.46,3.47-4.34,4.36-.8.39-1.67.42-2.51.19-.69-.19-1.35-.49-2.01-.77-1.78-.74-2.87-2.05-2.71-4.41.02-.3-.13-.63-.23-1.04-.32-.18-.69-.49-1.08-.55-1.13-.18-2.26-.15-3.37-.4-1.62-.35-3.11.07-4.55.79-2.09,1.04-4.06,2.33-5.96,3.78-1.39,1.05-2.22,2.56-2.54,4.38-.29,1.6-.39,3.24-.54,4.88-.23,2.54-.78,3.11-2.93,3.17-2.17.06-4.19-.67-6.19-1.51-.54-.23-.94-.76-1.14-1.39-.24-.76-.42-1.53-.67-2.38-.58-.21-1.12-.39-1.64-.6-2.26-.92-2.79-2.88-2.23-5.03.04-.16.08-.31.14-.46.21-.65.57-1.29,1.15-1.31,2.09-.06,3.82-1.12,5.51-2.38,1.91-1.42,3.89-2.65,6.12-3.32,1.56-.46,2.84-1.44,3.78-2.99.41-.67.92-1.25,1.37-1.87,1.23-1.69,1.19-1.92-.48-3.4-.11-.1-.18-.25-.28-.38.06-.9.57-1.48,1.17-1.88,2.21-1.5,4.57-2.63,7.04-3.38.81-.25,1.69-.3,2.52-.26,1.33.07,2.52-.39,3.92-1.11.64-.73,1.52-1.59,2.25-2.58,2.21-3,4.72-5.64,7.26-8.26.95-.97,1.96-1.23,3.09-.52.06.76-.35,1.19-.79,1.59-.92.83-1.63,1.84-1.69,3.7.12.38.38,1.14.61,1.9.24.76.68,1.57.61,2.3-.17,1.81.7,3.13,1.28,4.52-.71,2.34-.85,4.6-.41,6.9.16.81.22,1.62.02,2.44-.51,2.12-.4,4.2.36,6.25.1.28.06.64.08,1.03h0ZM254.24,59.67c-1.4.75-2.57,1.36-3.73,1.98-1.16.62-2.3,1.26-3.21,1.75-1.21.16-2-.31-2.63-.94-2.14-2.15-4.55-3.9-6.82-5.87-.33-.29-.59-.69-.98-1.18-.04-.53-.11-1.16-.1-1.8,0-.98.15-1.98.07-2.95-.06-.77-.38-1.51-.61-2.4.49-.38.95-.72,1.4-1.09.94-.74,1.06-1.7.24-2.34-.93-.72-1.82-1.39-2.37-2.68-.59-1.39-2.39-1.34-3.22-.04-.41.64-.65,1.43-.96,2.15-1.08-.67-1.08-.66-2-2.85,1.17-1.96,2.69-3.25,4.89-3.27.57,0,1.15-.04,1.7-.17.55-.14,1.03-.51,1.38-1.07.18-.31.1-1.15-.18-1.3-.25-.14-.5-.39-.76-.41-1.86-.19-3.57-1-5.21-1.71-1.26.12-2.23.84-3.29,1.27-1.49.59-1.93,1.73-1.62,3.43.06.31-.21.61-.51.57-.24-.04-.48-.26-.69-.44-.1-.08-.15-.27-.19-.42-.34-1.35-.14-2.62.58-3.71.42-.64.96-1.24,1.55-1.64.73-.49,1.54-.93,2.36-1.09,2.96-.59,5.92-.8,8.79.56,1.83.87,3.69,1.69,5.52,2.56,4.15,1.99,5.42,2.4,10.05-.54,1.86-1.19,3.74-2.34,5.56-3.61,1.56-1.07,3.2-1.27,4.93-.93,1.24.25,2.49.56,3.99.91.46.45,1.09,1.11,1.75,1.71,1.01.92,1.08,1.71.66,3.02-.53,1.69-1.03,3.4-1.61,5.07-.61,1.77-.52,3.49-.12,5.3.39,1.77,1.16,3.34,1.71,5.03.2.64.14,1.31-.25,1.86-.92,1.25-1.93,2.4-3.03,3.05-.93.33-1.6.15-2.28-.14-1.25-.52-2.51-.48-3.77-.13-1.52.41-3,1.03-4.54,1.32-1.56.29-2.07,1.47-2.46,3.21h0ZM158.71,115.06c-.23-1.81-.81-3.3-1.64-4.66-1.27-2.09-1.64-4.52-2-6.95-.12-.8-.06-1.63-.08-2.46-.09-3.62-.17-7.23-.29-10.85-.02-.65-.07-1.32-.25-1.93-.12-.43-.5-.75-.78-1.15-.59.17-1.14.3-1.67.5-1.91.74-3.87.96-5.87.86-3.12-.15-6.25.1-9.36-.46-.35-.05-.76.33-1.45.67.88,2.72-.27,5.04-1.22,7.42-1.05,2.61-2.9,4.42-4.57,6.2-.54.26-.92.52-1.33.61-1.76.41-3.08,1.56-4.22,3.1-1.39,1.89-2.65,3.85-3.12,6.37-.21,1.11-.63,2.15-.97,3.27.24.43.39.94.69,1.23,1.09,1.04,2.22,2.05,3.37,3.01.91.76,1.89,1.42,2.85,2.14,2.38-.14,4.51.71,6.55,1.95.5.3,1.02.59,1.55.84,1.46.66,2.94,1.06,4.55,1.06,3.54.02,7.1-.18,10.59.9.13.04.28.03.41.05,1.8.21,3.39-.44,4.76-1.71,1.73-1.59,2.83-3.66,3.09-6.25.13-1.3.27-2.61.39-3.76h0ZM129.26,41.11c-3.92,2.1-7.7,3.11-11.48.23-.1-.36-.06-.72.21-.85,1.71-.83,3.25-2,4.73-3.26.19-.17.3-.53.36-.81.08-.36-.07-.68-.38-.79-.25-.1-.58-.22-.81-.12-2.4,1.1-4.88,1.74-7.45,1.95-.13,0-.27.06-.41.1-.99.29-1.85.72-2.32,1.92-.36.92-1.38.6-1.82.11-.4-.45-.87-.91-1.08-1.49-.97-2.45-2.35-4.48-4.14-6.18-.3-.28-.43-.79-.63-1.16.26-.49.48-.91.69-1.34.22-.45.23-.9-.08-1.32-.3-.42-.69-.67-1.11-.57-.97.23-1.91.58-3.04.92-1.6-.65-3.34-1.34-5.08-2.05-1.39-.57-1.91-1.63-1.89-3.45,0-.16,0-.32,0-.49.17-2.91,1.33-5.33,2.91-7.5.26-.35.69-.56,1.07-.77,1.06-.56,2.21-.83,3.33-.5,1.96.56,3.93.62,5.93.63.83,0,1.7.23,2.49.56,2.28.99,4.6,1.66,7.02,1.9.42.04.83.21,1.17.3,2.29,0,4.11-1.38,5.88-2.69.65.56,1.09.93,1.53,1.33.55.52,1.05,1.14,1.65,1.54,1.72,1.14,3.53,1.39,5.25.05,2.11-1.64,4.35-3.13,5.82-5.68.21-.38.63-.61.87-.82.27-.03.43-.1.55-.04,1.16.62,2.34,1.2,3.46,1.91,1.62,1.02,3.23,1.12,4.88.15.12-.08.26-.12.4-.17.66-.21,1.41.3,1.64,1.16.56,2.21,1.04,4.44.85,6.78-.08,1.01-.06,1.96.24,2.92.26.82.73,1.4,1.47,1.63.4.13.84.11,1.26.2.81.18,1.16.91,1.33,1.72.21.97.21,1.98-.06,2.92-.48,1.72-.91,3.47-1.9,4.92-.93-.08-1.64-.7-1.78-1.64-.12-.79-.16-1.61-.24-2.41-1.17-.63-2.53-.72-3.31-2.07-.14-.24-.47-.35-.72-.5-.39-.25-1.24-.03-1.57.37-.32.39-.42.88-.3,1.34.2.79.51,1.52.75,2.29.2.66.19,1.39-.13,1.91-1.12,1.77-1.53,3.86-2.18,5.85-.2.62-.32,1.28-.59,1.85-.51,1.04-1.29,1.75-2.35,1.93-3.03.55-5.94-.12-8.78-1.26-.66-.26-1.21-.83-2.12-1.48h0ZM214.89,38.62c.4.43.85.69.96,1.09.46,1.55.81,3.13,1.23,4.79-.36.72-.65,1.46-1.06,2.12-.6.93-1.18,1.86-1.29,3.1.07,1.32.86,2.37,1.23,3.6.61,2.01.38,3.89-.84,5.52-.26.36-.65.63-1.02.86-.54.36-1.64-.02-1.87-.63-.27-.76-.44-1.55-.72-2.3-.31-.84-1.46-1.28-2.2-.85-.38.21-.78.43-1.09.74-.65.65-1.23,1.37-1.86,2.04-1.37,1.49-2.95,2.51-4.79,3.06-1.92.57-3.8,1.27-5.59,2.33-1.58.93-3.32.84-5,.36-1.22-.35-2.43-.84-3.63-1.33-.19-.08-.28-.51-.42-.79,1.33-.77,2.76-.31,4.14-.52.4-.06.79-.3,1.18-.48.31-.17.68-.91.54-1.21-.19-.41-.45-.86-.77-1.09-.34-.23-.81-.29-1.23-.29-1.71.02-3.41,0-5.11.15-2.45.19-4.8-.38-7.12-1.22-3.65-1.33-7.3-2.7-11.18-4.14-.27-.44-.67-1.12-1.05-1.76-.4-.55-.98-.64-1.5-.89-.99-.5-1.49-1.43-.97-2.31.73-1.25.34-2.55.51-3.79.39-.61.95-.7,1.51-.79.72-.11,1.37-.4,1.94-.92.43-.4.41-1.37-.08-1.66-.25-.15-.53-.23-.79-.37-.25-.13-.49-.29-.82-.5.21-.4.33-.91.63-1.16.68-.57,1.45-1.06,1.89-1.94.21-.41.35-.89.45-1.35.12-.55-.28-1.27-.79-1.61-.41-.25-.86-.27-1.21.02-.92.78-1.78,1.62-2.48,2.25-1.14.54-1.83-.38-2.88-.42-.76.28-1.69.63-2.66.99-.39.73-.76,1.41-1.21,2.24-.3-.28-.66-.49-.82-.82-.37-.75-.41-1.58-.15-2.39.67-2.15,1.38-4.31,2.07-6.47.49-1.53.94-3.09,1.48-4.6.14-.41.57-.67.87-.99.45.22.83.43,1.23.6,1.33.57,2.19.14,2.47-1.56.24-1.48.93-2.33,1.98-2.97,2.45-1.47,5.06-2.12,7.82-2.01,1.08.04,1.93.62,2.48,1.65.5.98.97,2.02,1.27,3.1.54,1.96,1.56,3.49,2.79,4.88,1.23,1.38,2.49,2.7,3.79,4.08.34.17.72.37,1.11.55,1.09.49,2.18.62,3.33.23,2.58-.89,5.18-1.7,7.77-2.53.45.09.91.07,1.28.28,1.08.6,2.19.68,3.33.39,1.95-.51,3.93-.74,5.91-.9,1.31-.11,1.92.23,2.27,1.61.3,1.14.79,2.09,1.28,3.09.43.84.8,1.75,1.08,2.67.37,1.28.3,2.57-.23,3.83-.67,1.65-1.49,3.17-2.67,4.41-.85.88-1.68,1.78-2.65,2.83-.76.34-1.7.69-2.59,1.18-.49.28-.91.77-1.3,1.22-.37.42-.39,1.39-.12,1.83.45.71,1.33,1.21,1.81,1,1.46-.66,2.88-1.39,4.06-2.66,1.87-2.02,3.67-4.1,4.99-6.69.67-1.31,1.16-2.61.99-4.18-.06-.47.06-.96.11-1.62h0ZM66.93,100.36c.46-.03.8.25,1.1.61,1.31,1.54,2.79,2.75,4.51,3.65,1.28.67,2.45,1.65,3.7,2.42,1.14.7,2.2,1.51,3.13,2.55,1.48,1.63,3.23,2.57,5.23,3.08,3.21.82,6.12,2.58,9.35,4.11,2.33-.57,4.84.84,7.42.13,1.51-1.27,2.54-3.09,3.83-4.61.73-.87,1.54-1.4,2.66-1.14.67.16,1.37.19,2.01.28.44,3.11.44,3.1-.04,5.38-.1.47-.13.96-.18,1.44-.04.34.51.93.86.9.42-.03.85-.03,1.24-.16.54-.19,1.05-.5,1.72-.83.42.22.93.45,1.42.76.89.53,1.7,1.28,2.62,1.62,1.7.61,3.01,1.82,4.25,3.18.3.35.63.67.98.96.93.76,1.9,1.4,3.1,1.45,2.02.08,3.89.77,5.72,1.75,1.81.97,3.7,1.7,5.67,2.59,2.72-.48,5.54-.58,8.39-.4,1.27.09,2.53.16,3.79.52,2.6.72,5.08-.13,7.51-1.07.81-.31,1.49-.99,1.97-1.82.71-1.23,1.42-2.47,2.06-3.75,1.06-2.17,1.71-4.51,1.63-7.06-.01-.49-.02-.99.04-1.47.27-2.43-.23-4.55-1.63-6.41-1.38-1.82-1.91-3.99-1.85-6.39.05-1.79-.06-3.59.15-5.44.33.19.68.26.78.47.57,1.13,1.13,2.28,1.62,3.46.66,1.6,1.63,2.67,3.19,2.88.27-.08.59-.09.8-.26.6-.43,1.15-.92,1.71-1.38.28.09.61.09.81.28.85.87,1.68,1.77,2.49,2.7,1.14,1.29,1.83,2.8,2.15,4.67.57,3.44,1.71,6.62,4.27,8.89,1.87.58,3.88.67,5.7,1.47-.02,1.4-.73,2.27-1.24,3.23-.83,1.56-1.36,3.24-1.75,5.01-.34,1.5-.25,2.93.53,4.26.23.4.42.85.67,1.4-.12.88-.28,1.84-.37,2.8-.07.81-.02,1.64-.1,2.47-.16,1.8-.27,3.61-.6,5.37-.35,1.84-.38,3.57.25,5.31.1.3.09.65.18,1.18-.38,1.54-.76,3.3-1.25,5.01-.47,1.65-.32,3.21.21,4.8.41,1.24,1,2.36,1.65,3.44,1.12,1.9,2.39,3.68,3.16,5.85.32.91.95,1.63,1.64,2.24,2,1.69,3.38,3.95,4.45,6.5.19.44.37.9.61,1.3,1.77,3.02,2.84,6.42,3.92,9.81.44,1.39.89,2.77,1.39,4.12.47,1.28.53,2.62.17,3.87-1,3.51-2.47,6.66-5.66,8.43-.46,0-1.03.05-1.58,0-1.46-.15-2.81.14-4.13.92-.75.45-1.57.76-2.39,1.02-.56.17-1.16,0-1.58-.5-.49-.58-.99-1.18-1.37-1.86-1.01-1.78-1.95-3.62-2.96-5.41-.23-.4-.57-.72-.91-1.01-.22-.18-.53-.24-.79-.35-.24.17-.51.29-.71.5-.32.34-.52.81-.42,1.32.09.47.22.96.44,1.37,1.27,2.37,2.56,4.74,3.86,7.09.71,1.28,1.69,2.21,2.92,2.83,2.44-.1,4.49-1.9,6.91-2.32.1,0,.27-.05.39,0,2.09,1,3.82.25,5.5-1.31,1.13-1.05,2.12-2.19,2.85-3.61,1.57-2.99,2.67-6.16,2.71-9.73,0-1.17-.13-2.32-.77-3.27-.73-1.06-1.03-2.29-1.34-3.57-.7-2.85-1.83-5.52-2.88-8.21-.09-.22.12-.58.21-.94.39.21.84.32,1.13.64,2.19,2.34,4.37,4.7,6.52,7.1.39.44.67,1.07.88,1.67.31.92.41,1.93.13,2.89-.63,2.18-1.21,4.39-1.98,6.5-.88,2.41-1.95,4.74-2.94,7.1-.3.74-.69,1.44-.9,2.22-.35,1.28-.91,2.38-1.71,3.36-.58.7-1.07,1.52-1.58,2.31-1.14,1.76-2.5,3.1-4.44,3.55-.55.13-1.07.42-1.66.67-.95,0-1.94-.05-2.93,0-1.94.13-3.64-.56-5.2-1.82-1.53-1.22-3.09-2.36-4.29-4.04-.18-.24-.44-.4-.67-.6-1.33-.84-2.79-.18-3.95-.35-.38-.41-.6-.62-.8-.85-1.34-1.62-2.78-1.46-3.75.48-.13.27-.13.62-.2.96.43,1.54,1.74,2.62,1.85,4.4-.27,1.58-.7,3.14-1.47,4.55-.62,1.15-.83,2.43-.97,3.75-.23,2.07.11,3.98,1.41,5.47,2.43,2.79,3.32,6.45,4.38,10.01.14.45.21.96.23,1.45.15,2.96.05,5.91-.31,8.85-.09.73-.91,1.42-1.57,1.33-.42-.05-.86-.08-1.25-.23-.8-.33-1.58-.74-2.23-1.04-.31-.35-.57-.54-.73-.8-3.04-5.2-5.55-10.71-7.08-16.76-.8-3.16-1.45-6.35-1.25-9.7.09-1.66.38-3.25.7-4.85.19-.97-.23-1.93-.99-2.52-.51-.39-1.08-.46-1.62-.25-1.2.46-2.17,1.96-2.2,3.33-.01.5.03.99.08,1.48.05.65.28,1.33.17,1.93-.51,2.85.15,5.55.54,8.3.33,2.29.83,4.5,1.77,6.56.2.43.4.88.53,1.35.87,3.33,2.28,6.37,3.69,9.41.32.72.73,1.51.73,2.28,0,1.64.87,2.73,1.55,3.93-.12,1.02-.69,1.42-1.46,1.4-.97-.02-1.92-.43-2.93-.08-.5.18-1.12-.04-1.68-.15-1.11-.24-2.24-.46-3.33-.84-1.38-.49-2.78-.67-4.2-.71-2.3-.06-2.33-.81-1.58-3.06,1.14-3.41,1.61-6.97,1.86-10.6.03-.46-.15-.94-.26-1.4-.03-.15-.16-.26-.24-.37-.81-.31-1.46.06-1.8.83-.51,1.17-.88,2.42-1.31,3.64-.31.91-.63,1.81-.88,2.54-.43.27-.66.49-.92.57-1.78.58-2.55,1.91-2.35,4.05.07.8.16,1.64-.27,2.38-2.85,1.53-3.88,1.48-6.26-.41.19-1.42.38-2.86.57-4.31.17-1.3.33-2.6.55-4.32-.31-2.33-.42-5.11-1.34-7.76-.67-1.9-.42-3.9.42-5.73.47-1.02.97-2.02,1.46-3.01,1.26-2.58,2.54-5.14,3.77-7.72.21-.42.28-.92.41-1.4.08-.3-.18-1.1-.45-1.29-.37-.27-.77-.37-1.18-.12-.24.16-.53.3-.69.54-.7,1.04-1.43,2.06-2.02,3.17-1.55,2.95-3.01,5.96-4.55,8.92-.6,1.16-.96,2.37-.9,3.73.05,1.15.12,2.3.18,3.4.53,1.24,1.04,2.4,1.63,3.74.05.82.11,1.8.18,2.78.18,2.68-.26,5.24-1.07,7.73-.21.66-.66,1.03-1.29,1.32-2.78-.35-5.3-1.98-7.94-2.72-.76-.72-.4-1.63-.51-2.39-.22-1.49-.8-2.8-1.39-4.11-.56-1.23-.67-2.49-.32-3.81.69-2.68,1.34-5.4,2.49-7.87,1.87-4.08,3.16-8.44,4.59-12.73.91-2.76,1.55-5.63,2.81-7.84-.03-1.38-.57-1.88-1.33-1.98-.75-.09-1.47.25-1.8,1.03-.7,1.63-1.31,3.29-1.89,4.96-.37,1.06-.64,2.18-.93,3.28-.93,3.64-2.19,7.12-3.78,10.44-1.3,2.75-2.15,5.72-3.21,8.59-.82,2.25-.75,4.51.06,6.71.44,1.2,1.05,2.33,1.55,3.5.38.92-.09,2.52-.87,3.06-.49.33-.99.68-1.53.86-1.36.46-2.73.91-4.12,1.21-2.1.44-4.22.49-6.35.6-.25.02-.53-.19-.79-.3-.36-.17-.63-.86-.49-1.23.18-.44.28-.94.53-1.33.75-1.19,1.49-2.42,2.37-3.48,1.69-2.02,3.13-4.25,4.54-6.5,1.01-1.61,2-3.18,3.4-4.38.67-.57,1.18-1.42,1.63-2.25,1.56-2.84,2.21-6.03,2.62-9.3.21-1.67-.4-3.24-.54-4.98.6-3.3,1.87-6.45,2.74-9.74.28-1.08.87-2.07,1.4-3.04.76-1.39,1.52-2.8,2.42-4.05,2.76-3.83,3.88-8.42,4.3-13.18.36-4.09.97-8.12,1.38-12.19.06-.49.16-.98.16-1.47-.02-1.31-.14-2.62-.1-3.92.04-1.15.24-2.28.36-3.43.02-.15-.04-.31-.08-.48-.1-.5-.35-.87-.77-1.06-.42-.2-1.28.09-1.51.55-.15.28-.3.56-.43.85-.45,1.04-.69,2.16-.72,3.33-.03,1.16-.06,2.31,0,3.46.09,2.48.05,4.91-.53,7.34-.26,1.08-.21,2.28-.29,3.42-.14,1.98-.37,3.92-.79,5.85-.58,2.74-1.45,5.32-2.82,7.67-1.11,1.91-2.18,3.85-3.3,5.76-1.28,2.2-2.29,4.52-2.72,7.17-.21,1.28-.65,2.51-.99,3.76-.59,2.08-.92,4.19-.55,6.33.61,3.62-.14,6.84-1.94,9.9-3.13,3.06-3.22,3.08-5.21,6.93-.81,1.58-1.79,2.95-2.94,4.18-2.11,2.24-4,4.67-5.2,7.71-.12.3-.32.54-.49.79-.66.92-1.44,1.61-2.52,1.63-1.27.03-2.55.18-3.82-.19-.44-.13-.9-1.14-.7-1.6.12-.29.18-.63.35-.89.86-1.29,1.71-2.62,2.64-3.86,1.12-1.49,2.39-2.83,3.45-4.35.98-1.4,1.82-2.95,2.65-4.47.77-1.41,1.72-2.6,2.79-3.7,1.5-1.54,2.71-3.33,3.53-5.51.57-1.5,1.28-2.95,2.11-4.27,1.03-1.64,1.63-3.44,2.18-5.32.49-1.72,1.02-3.43,1.66-5.07.71-1.85,1.12-3.68.77-5.74-.28-1.63-.04-3.28.61-4.79.12-.3.18-.64.31-.91.66-1.33.77-2.8.89-4.28.23-2.61.56-5.21.82-7.6.77-1.5,1.43-2.76,2.06-4.05.74-1.46,1.01-3,.79-4.72-.55-4.25-.41-8.54-.51-12.8-.02-1.01.25-1.92.5-2.87,1.04-3.98,3.4-6.75,6.19-9.14.34-.3.73-.51,1.1-.75,1.16-.77,1.9-1.92,2.43-3.32,1.17-3.04,1.76-6.24,2-9.52.02-.29-.17-.61-.32-.87-.17-.29-.85-.18-1.14.16-.19.23-.42.44-.58.71-.23.41-.47.84-.58,1.3-.36,1.42-.69,2.85-.96,4.3-.41,2.19-1.36,3.94-2.96,5.22-.93.75-1.86,1.52-2.72,2.37-3.59,3.57-3.82,3.95-5.56,9.09-.21.6-.41,1.22-.64,1.83-.05.13-.19.21-.3.32-.22.14-.43.03-.62-.32-.97-1.79-.98-3.76-.72-5.73.07-.61.43-1.2.77-1.72.8-1.19,1.94-1.9,3.03-2.67,2.58-1.81,4.61-4.37,6.66-6.86,1.61-1.97,1.64-4.5,1.13-6.99-.73-3.64-2.62-6.16-5.77-7.23-2.32-.78-4.56-1.77-6.79-2.85-1.69-.81-3.52-1.23-5.32-1.7-3.04-.79-6.11-1.48-9.16-2.24-2.78-.69-5.42-1.9-8.07-3.04-.1-.05-.16-.24-.28-.43.17-.39.37-.81.54-1.25.39-1.03.21-2.15-.51-2.58-1.13-.7-2.25-1.46-3.45-1.93-1.36-.53-2.58-1.33-3.86-2.04-1.18-.66-2.17-1.55-2.93-2.79-2.57-4.17-6.07-6.86-10.25-8.36-2.24-.8-3.49-2.68-4.45-4.94-.1-.27-.01-.65-.02-.97-1.18-.37-1.83-1.38-2.24-2.62-.11-.33.09-.64.39-.75.13-.06.33-.06.42.02.9.89,1.46,1.97,1.41,3.38h0ZM64.41,115.11c-.65-.29-1.29-.63-1.96-.86-2.53-.89-3.73-.96-7.08-.5-.63-.62-.3-1.53-.51-2.29-.22-.8-.87-1.49-1.54-1.4-1.13.15-2.25.33-3.37.54-.7.13-1.38.4-2.09.44-1.74.13-2.31-.39-2.8-2.25-.16-.63-.25-1.28-.45-1.9-.15-.45-.39-.87-.63-1.27-.16-.26-.41-.44-.79-.87-.35-.06-.88-.24-1.45-.29-2.29-.17-4.42-1.08-6.57-1.94-.53-.2-1.08-.35-1.64-.42-.95-.12-1.87,1.3-1.58,2.36.08.31.18.65.33.91.32.53.69,1.01,1.01,1.47,1.38,0,2.62-.67,3.89-.17.4.16.83.27,1.17.52.18.14.28.55.27.83-.02.3-.16.65-.34.88-1.9,2.44-3.79,4.88-5.74,7.28-.26.33-.7.47-1.03.67-1.11-.75-1.72-1.87-2.02-3.15-.33-1.42-.61-2.88-.71-4.34-.08-1.2-.4-2.25-.99-3.18-.51-.79-1.06-1.54-1.61-2.3-.46-.62-.97-1.18-1.4-1.84-.51-.78-.85-1.73-1.44-2.41-.58-.67-1.38-1.1-2.17-1.7.97-2.12,2.14-3.93,3.71-5.36.57-.52,1.07-1.06,1.39-1.83.23-.58.15-1.3-.29-1.8-.41-.46-1.13-.7-1.54-.45-.5.29-1.03.57-1.45.99-1.08,1.06-2.09,2.23-3.17,3.29-.97.97-1.44,2.44-2.52,3.29-.08.06-.26.06-.34,0-.11-.09-.22-.28-.22-.41.02-.31.03-.68.17-.93.22-.42.49-.82.83-1.1,1.21-1.02,1.91-2.39,2.39-3.98.33-1.08.69-2.14,1.08-3.33.57-.37,1.16-.81,1.8-1.16,1.12-.63,1.8-.5,2.68.51.71.8,1.36,1.67,2.06,2.49,1.29,1.54,2.69,2.9,4.28,4.05,1.72,1.24,3.55,2.01,5.57,2.26,2.39.31,4.77.69,7.04,1.03,2.35,1.58,4.07,3.85,6.44,5.63,1.39.34,3.05.75,4.7,1.16.28.47.61.82.73,1.26,1.07,3.74,3.07,6.62,5.99,8.65.48.33.91.77,1.32,1.22.43.47.6,1.09.49,1.79.5-.06.69.35.93.76.24.39.23.61-.14.67-.11.02-.32-.08-.35-.19-.14-.42-.25-.88-.37-1.32h0ZM141.18,59.88c.2-.21.38-.53.62-.64.8-.32,1.63-.56,2.43-.88,1.36-.54,2.56-1.36,3.55-2.6.86-1.08,1.77-2.12,2.68-3.14.1-.11.26-.13.42-.18.11.23.36.5.31.7-.55,2.85-.74,5.86-2.43,8.23-.96.65-1.91.69-2.89.24-.66-.32-1.28-.7-1.92-1.07-.9-.55-1.89-.69-2.88-.79-.04.17-.03.39-.12.46-.7.54-1.38,1.13-2.12,1.56-1.17.68-2.13,1.61-2.74,2.97-.47,1.03-1.11,1.88-1.98,2.6-1.99.91-4.12.65-6.01.84-.87-.62-1.15-1.37-1.24-2.19-.11-.98-.23-1.98-.15-2.94.22-2.46-.52-4.49-1.86-6.33-.45-.61-.89-1.25-1.35-1.91.06-.7.04-1.37.2-1.98.61-2.36,1.37-4.66,2.5-6.76.42-.76,1.54-1.22,2.25-.79.9.55,1.82.79,2.81.95,2.66.45,5.29,1.1,7.96,1.43,2.67.32,4.67-.95,6.04-3.58.29-.56.47-1.19.76-1.75.12-.24.39-.38.69-.67-.16,1.71-.33,3.3-.49,4.92.48,1.05.95,2.06,1.39,3.08.41.96.25,2.04-.33,2.73-1.32,1.54-2.83,2.7-4.63,3.36-2.17.79-4.36,1.45-6.76,1.69-.69-.19-1.51-.45-2.34-.66-.41-.09-.85-.09-1.27-.1-.61-.02-1.38.8-1.46,1.53-.06.53.36,1.4.75,1.64,1.56,1.04,3.25,1.13,4.95.8,1.54-.31,3.05-.74,4.63-.76h0ZM196.7,242.5c-.91-.77-1.65-1.8-2.82-2.14-.68-.2-1.32-.62-1.94-1.01-1.42-.91-2.46-2.23-2.94-4.05-.34-1.26-.61-2.54-.93-3.8-.53-2.08-.83-4.14-.02-6.25.25-.68-.64-1.6-1.3-1.47-1.34.24-2.44,1.34-2.72,2.75-.22,1.15-.3,2.32.12,3.4.77,1.96,1.26,4,1.67,6.09.18.95.55,1.88.93,2.75.85,1.98,2.16,3.45,3.96,4.25.79.35,1.58.68,2.38,1.04.23.66.43,1.26.62,1.81-.19.72-.34,1.35-.54,1.97-.33,1.07-.69,2.13-1.01,3.09-1.01.86-2.01.3-2.97.26-1.03-.04-1.86-.69-2.79-1.4-.26-1.05-.57-2.14-.81-3.24-.51-2.42-1.28-4.68-2.62-6.68-1.31-1.93-2.21-4.18-3.56-6.12-1.18-1.71-1.5-3.9-1.27-6.09.12-1.14.38-2.25.63-3.37.44-2.03,1.15-2.29,2.71-2.32,2.69-.04,5.39.24,8.06-.27.53-.1,1.12.12,1.67.22.33.06.85.67.87.97.06,1.31.12,2.62.18,3.94.1,2.99.69,5.83,1.93,8.5.8,1.73,1.5,3.54,2.16,5.35.21.58.17,1.28.24,1.93.25.1.59.12.74.31,1.63,2.05,3.23,4.13,4.86,6.19,1.44,1.82,2.6,3.87,3.62,6.03.17.35-.23,1.07-.6,1.09-.29,0-.59.1-.84.03-2.59-.81-5.18-1.63-7.74-2.5-.35-.12-.59-.66-.93-1.05.55-3.38,1.31-6.73,1-10.21h0ZM26.04,63.74c-.27.58-.5,1.18-.8,1.73-.73,1.33-1,2.76-.57,4.25.36,1.27.45,2.55.45,3.87,0,1.67.43,3.22,1.2,4.64.06.11.23.14.35.17.35.09.6-.06.63-.47.03-.65.12-1.32.01-1.93-.39-1.98-.32-3.91.18-5.84.12-.46.11-.98.15-1.49-.36-1.4-.7-2.83-1.1-4.22-.07-.26-.38-.42-.59-.63.22-1.11.5-2.21.64-3.33.18-1.5.73-2.82,1.42-4.06.53-.96,1.16-1.84,1.81-2.71,1.39-1.86,2.96-3.5,4.63-5.01.55-.49,1.2-.89,1.45-1.71.05-.15.05-.34,0-.48-.04-.12-.17-.26-.27-.28-2.54-.55-5.06-.2-7.57.21-1.13.19-2.14.84-2.96,1.77-1.1,1.27-2.29,2.45-3.25,4.2-.29,1.17-.63,2.59-.98,4-.15.63-.44,1.27-.4,1.88.07,1.5-.23,2.9-.44,4.33-.09.63.01,1.3.11,1.94.04.22.34.4.54.63,1.24-.71,2.5-1.42,3.69-2.11.63.24,1.16.43,1.69.63h0ZM129.23,95.39c.04.85-.24,1.52-.8,2.07-.11.09-.22.3-.31.3-.32-.07-.42-.38-.2-.68.4-.6.55-1.48,1.33-1.66-.36-.5-.72-1-1.13-1.58-.38.06-.82,0-1.18.18-.65.3-1.28.69-1.89,1.1-.77.5-1.27,1.29-1.64,2.18-.24.59-.41,1.22-.56,1.85-.53,2.11-1.53,3.83-3.07,5.14-.44.39-.83.87-1.3,1.38-.36,1.88-.6,3.84-1.56,5.51-.2.36-.64.54-.99.8-.17-.37-.35-.63-.4-.92-.06-.3-.01-.66.04-.97.62-3.52,1.24-7.03,2.66-10.27.37-.87.55-1.84.86-2.75.36-1.06.69-2.15,1.16-3.15.75-1.6,1.76-2.97,3.21-3.79,1.26-.71,2.53-1.44,3.83-2.06,1.7-.81,2.31-.58,3.67,1.19.19.23.29.56.51,1.04-.3,1.4-.49,3.01-1.21,4.44-.22.43-.57.7-1.03.68h0ZM83.18,121.02c.81,1.04.94,1.08,1.94.52-.63-.45-1.33-.38-2.02-.41-.14-.27-.23-.63-.44-.79-2.26-1.74-4.31-3.68-5.72-6.46-.65-1.26-1.75-2.16-2.94-2.76-1.05-.52-2.09-1.07-3.17-1.43-2.16-.72-3.75-2.25-5.09-4.25-.61-.9-1.18-1.85-1.81-2.73-.46-.64-1.04-1.15-1.76-1.31-.24-.06-.53.09-.77.22-.29.15-.39.47-.31.84.45,1.98,1.43,3.59,2.73,4.88,2.82,2.77,5.44,5.74,7.61,8.71,2.51,1.68,4.97,2.53,7.23,3.96,1.33.86,2.88,1.44,4.51,1.01h0ZM237.65,74.62c-1.03.51-2.05,1.03-3.09,1.55-1.77-.88-2.49-3.08-4.01-4.33-1.26-.75-2.61-1.1-4.07-.99-1.12.08-2.26.05-3.39,0-.37-.03-.71-.34-1.11-.54.51-1.52,1.46-2.51,2.3-3.59.83-1.08,1.55-1.16,2.6-.34.71.54,1.39,1.12,2.1,1.66,2.36,1.8,4.67,3.7,7.33,4.92.64.29,1.24.79,1.28,1.75,1.38.38,2.74.82,4.16.93,1.33.1,2.48.81,3.35,1.95.85,1.11,1.63,2.29,2.4,3.47.15.23.21.66.14.91-.07.23-.37.48-.61.52-1.57.27-3.11.16-4.56-.74-.63-.39-1.28-.71-1.82-1.02-.4.09-.67.13-.95.22-2.07.69-2.09.69-3.21-1.75.57-.9,1.61-.27,2.28-.93.26-.26.53-.95.35-1.3-.14-.28-.29-.55-.45-.82-.33-.51-.67-1.02-1.01-1.52h0ZM9.81,120.15c-.12-.32-.05-.58.22-.72.06-.03.18.15.28.22-.19.14-.39.28-.58.42.03,1.35-.54,2.49-1.12,3.57-.66,1.17-1.15,2.55-2.29,3.29-.06.14-.11.27-.16.41.08-.1.16-.19.24-.29-.03-2.7,1.06-4.81,2.66-6.64.16-.18.49-.17.74-.24h0ZM284.59,84.51c-1.29,0-2.01-.81-2.32-2.18-.02-.11.15-.27.22-.4.94.4,1.55,1.23,2.03,2.19.06.12.02.31.02.47.36-.17.73-.41,1.1-.5.27-.07.45.19.51.53.07.38-.04.66-.37.72-.57.1-1.06-.04-1.18-.83h0ZM112.11,95.34c.21-.15.53-.23.63-.43.31-.72.38-1.46-.18-2.1-.61.78-.51,1.68-.36,2.61-.69.42-.79,1.15-.71,1.93,0,.13.14.25.23.34.03.03.18-.06.2-.12.3-.72.3-1.47.19-2.23h0ZM72.88,34.12c.67-.06,1.36.11,2-.31-.19-.14-.37-.38-.55-.38-.56-.02-1.06.2-1.36.8-.23.09-.46.19-.68.28.08.11.18.31.25.3.31-.07.42-.32.34-.69h0ZM98.48,88.38l-.13.32.21-.23c.12-.51.41-.81.85-.95.1-.54.37-.89.85-.99.07-.6.25-1.04.87-.96.01-.32-.06-.68.05-.96.27-.75.56-1.51.94-2.2,1.51-2.7,2.3-5.62,2.19-8.85-.01-.31.11-.64.16-.92.32-.86,1.01-1.15,1.6-1.6,1.68-1.27,3.18-2.75,4.42-4.59.54-.82.79-1.72.84-2.74.15-3-.88-5.47-2.59-7.58-.87-1.07-1.89-1.98-2.91-2.87-1.25-1.1-2.55-2.11-3.72-3.65-.1-.79-.27-1.75-.31-2.72-.05-.98.06-1.97.03-2.95,0-.26-.27-.55-.47-.77-.22-.23-1-.17-1.2.1-.45.62-1.08,1.19-1.28,1.92-.49,1.7-.82,3.46-1.11,5.23-.11.62,0,1.33.18,1.94.48,1.72.97,3.45,1.58,5.1.55,1.52,1,3.08,1.44,4.68-.34,1.43-.67,2.85-.96,4.05-1.43,2.38-2.97,4.28-4.75,5.96-2.66,2.5-5.08,5.26-6.93,8.65-.3.54-.73.99-1.15,1.43-.55.59-1.79.73-2.41.33-.12-.09-.26-.15-.37-.24-3.57-3.03-7.56-5.19-11.46-7.55-1-.6-2.06-1.14-2.99-1.88-1.21-.97-2.58-1.31-4.13-1.52-.42-.53-.91-1.11-1.35-1.74-.62-.89-1.17-1.85-1.84-2.7-.78-1.02-1.78-1.6-3.12-1.63-1.55.6-2.91,1.67-3.98,3.33-1.09,1.72-2.27,3.37-3.45,5.01-.27.36-.67.63-1.06.79-.2.08-.6-.06-.75-.27-.28-.35-.48-.8-.64-1.26-.67-2.04-.79-4.15-.63-6.29.02-.15.12-.3.24-.55.34.28.69.49.98.79.31.32.55.76.87,1.07.45.48,1.01.65,1.57.32.62-.36,1.22-.8,1.78-1.28.34-.3.48-.79.38-1.32-.09-.42-.47-.67-1.02-.59-.13.02-.26.12-.4.15-.91.13-1.52-.18-1.7-.92-.29-1.1-.54-2.22-.83-3.32-.27-.96-1.1-1.4-2.06-1.15-1.01.26-1.87.78-2.46,1.79-.47.81-.94,1.63-1.42,2.47-1.36.59-2.7,1.13-4,1.77-.66.32-1.13.95-1.29,1.83-.09.53.04.97.29,1.38.28.45.7.5,1.14.51.14,0,.28-.05.41-.09,1.21-.35,2.19-1.58,3.59-1.17.91,1.17.77,2.78,1.22,4.15.55,1.7,1.12,3.37,1.97,4.9.86,1.52,2.92,1.87,4.16.68,1.43-1.38,2.58-3.05,3.67-4.78.76-1.2,1.48-2.41,2.27-3.58.84-1.21,2.16-1.16,2.89.05.73,1.22,1.42,2.47,2.13,3.7.39.68.76,1.39,1.21,2.02.36.5.81.91,1.26,1.32.73.67,1.52.8,2.35.19.24-.16.54-.2.98-.37,2.73.92,5.36,2.53,7.98,4.17,1.24.79,2.4,1.75,3.59,2.63.51.38.74.96.81,1.63-.26.82-.8,1.32-1.39,1.81-1.03.86-2.07,1.02-3.19.3-.37-.23-.75-.48-1.1-.76-1.92-1.54-3.97-2.47-6.37-2.23-1.59.16-3.09-.41-4.5-1.29-.62-.39-1.28-.69-1.82-.98-.91-.05-1.52.39-1.91,1.1-.84,1.56-1.95,2.83-3.05,4.11-.82.95-1.8,1.59-2.96,1.89-1.43-.22-2.7-.91-3.89-2.04-.75-1.47-1.52-3.04-2.36-4.55-.42-.76-1.14-.91-1.89-.83-.73.07-1.39.41-1.94.93-.66.62-1.27,1.33-1.88,2-.62.66-1.21,1.39-1.87,2.02-2.65,2.49-3.47,2.62-6.35.15-1.02-.88-1.87-2-2.78-3.06-.3-.34-.61-.77-.7-1.22-.55-2.51-1.69-4.92-1.15-7.66.09-.39.74-.8.99-.57,2.1,1.95,4.23,3.85,6.73,5.58.95.06,2.08.19,3.21.21.48,0,.68-.45.57-1.14-.77-.19-1.58-.41-2.52-.64-2.05-1.84-3.8-4.22-5.63-6.52-.69-.87-1-1.94-1.08-3.14-.09-1.22-.61-2.16-1.54-2.79-1.44-.98-1.75-2.6-1.49-4.29.41-2.64,1.43-4.97,3.09-6.89,4.19-4.8,8.99-8.56,14.44-11.19,1.96-.93,4.03-1.59,6.01-2.48,1.7-.77,3.33-.79,4.98.17,2.2-.74,4.5-.76,6.68-1.55.53-.19,1.12-.19,1.69-.28,1.27-.18,2.55-.26,3.79-.6,1.22-.35,2.44-.89,3.6-1.51,1.41-.75,2.76-1.66,4.47-2.73,1.15-.02,2.71-.03,4.27-.11.73-.05,1.37-.38,1.87-1.33v-2.28c1.2-1.58,2.76-2,4.81-1.27.46.46,1.12,1.07,1.71,1.76,1.64,1.93,3.62,3.14,5.79,4.03,4.22,1.72,4.98,2.23,9,5.77.09.49.33,1.12.33,1.75.01,3.7,1.27,7.06,2.17,10.5.24.91.76,1.81,1.35,2.48,1.95,2.19,3.26,4.97,5.11,7.25.7.86.93,2,1.13,3.12-.05,1.91-.65,3.53-1.78,4.91-.29.35-.55.75-.79,1.15-1.21,1.94-2.64,3.49-4.53,3.51-1.56,1.55-2.85,2.83-4.34,4.3-.53,1.77-1.57,3.54-2.81,5.13-.16.22-.48.3-.72.43-.05.62-.25,1.07-.89.94q-.14.86-.86.98c.04.68-.31.91-.83.97h0ZM252.33,138.51c-.96.36-1.9.7-2.69,1-1.81-.62-3.46-1.13-5.07-1.73-1.65-.62-3.32-.92-5.04-.78-2.03.17-3.92-.34-5.83-1.1-2.55-1.01-5.18-1.74-7.89-2-1.29-.12-2.55-.05-3.81.3-1.67.44-3.36.76-5,1.26-2.24.68-4.48.86-6.7.53-2.12-.95-3.63-2.62-4.91-4.67-.84-1.32-1.83-2.52-2.77-3.75-.41-.54-1.4-.68-1.98-.29-2.2,1.5-4.44,2.94-6.58,4.54-1.06.79-1.96,1.88-2.91,2.86-.31.33-.53.8-.85,1.11-2.81,2.69-3.42,6.29-3.23,10.23.14,3.12.33,6.24.52,9.69.83,1.94,1.41,4.29,1.4,6.37,1.46,4.49,4.02,7.64,6.33,10.95,1.33,1.88,2.97,3.54,4.63,5.06,2.58,2.37,4.85,5.05,6.91,8.01.85,1.24,1.19,2.62.97,4.16-.41,2.74-.76,5.52-1.75,8.11-1.15,2.99-2.11,6.09-3.73,8.83-.96,1.62-1.7,3.43-2.42,5.2-.67,1.65-1.38,3.22-2.52,4.53-.62.71-.89,1.69-.9,2.7-.04,3.96.2,7.89,1.09,11.73.14.63.41,1.23.67,1.81,1.07,2.31,2.13,4.64,3.25,6.94.83,1.72,1.79,3.34,3.11,4.66,2.17,2.16,3.94,4.71,5.43,7.56.66,1.26,1.41,2.44,2.51,3.3,1.21.93,1.48,2.34,1.19,3.92-.06.32-.19.62-.36,1.14-1.05.79-2.21,1.72-3.37,2.27-2.33.25-3.88-1.42-5.79-2.43-2.44-.14-4.95-.61-7.37-1.69-1.33-.59-2.83-.18-4.14-1.02-1.12-.7-2.33-1.23-3.49-1.83-.26-.13-.52-.29-.79-.35-1.25-.32-2.49-.62-3.64-.9-1.7.2-3.14.96-4.52,1.78-1.83,1.1-3.54.92-5.26-.26-.36-.26-.76-.44-1.06-.62-1.22,0-2.35,0-3.48,0-.98,0-1.96.04-2.85.06-.28.35-.58.55-.63.83-.41,2.02-1.51,3.08-3.28,3.26-.84.09-1.72.38-2.54.21-2.37-.49-4.8-.49-7.16-1.15-2.62-.75-5.3-1.18-7.98-1.47-.56-.06-1.13,0-1.58,0-.82.67-1.51,1.24-2.14,1.75-.37-.06-.67-.03-.91-.17-1.68-.93-3.41-1.5-5.29-1.71-2.54-.28-5.02-1.09-7.58-1.21-1.27-.07-2.5-.55-3.67-1.22-.76-.43-1.56-.79-2.43-1.23-3.02.53-6.14.74-9.11,1.96-1.91.77-3.88.92-5.88.93-3.12.03-6.26.05-9.38.16-2.57.09-5.11-.17-7.66-.45-.28-.04-.55-.14-.83-.23-1.66-.55-2.67-2.91-1.99-4.75.28-.75.59-1.52,1.04-2.14,2.19-3,4.02-6.36,6.54-9.06,1.25-1.32,2.31-2.89,3.21-4.58,1.2-2.25,2.65-4.26,4.25-6.16,1.68-2,2.99-4.32,3.91-6.97.85-2.44,1.94-4.76,2.88-7.14,1.7-4.31,1.71-4.48,1.64-9.88-.54-1.51-1.1-3.37-1.84-5.15-.75-1.79-1.49-3.55-1.45-5.6-.78-2.13-1.15-4.38-1.4-6.89.22-1.07.48-2.35.76-3.68.3-.51.65-1.03.95-1.58,1.31-2.37,2.74-4.59,4.71-6.3,1.04-.9,1.07-2.25.87-3.6-.04-.32-.08-.69-.25-.93-1.69-2.6-1.86-5.83-2.72-8.77-.34-1.13-.16-2.26.32-3.34.99-2.23,2.28-4.07,4.13-5.51,2.23-1.73,4.3-3.76,6.43-5.69.78-.7.85-.9,1.5-2.97-.39-1.7-.82-3.43-2.1-4.67-2.92-1.68-6.05-2.76-9.1-4.08-.65-.29-1.38-.49-2.07-.46-2.76.11-5.28-1.07-7.89-1.85-.68-.2-1.32-.56-2-.85-2.13-.91-4.29-1.72-6.56-1.92-.6.13-.99.6-1.37,1.11-.54.76-1.07,1.52-1.67,2.23-1.22,1.45-2.67,2.4-4.42,2.79-2.92.66-5.89,1.07-8.75,2.13-.65.25-1.4.18-2.12.17-1.02,0-1.96-.36-2.76-1.13-.87-.84-1.71-1.72-2.62-2.61-.95-.23-1.91-.46-2.77-.67-2.72.21-5.09,1.34-7.56,2.37-2.19.2-4.47-.02-6.69.81-1.53.55-3.11.2-4.53-.76-.85-.58-1.7-1.17-2.72-1.88-.55-.02-1.24-.07-1.95-.04-1.16.06-2.25-.15-3.31-.74-.63-.35-1.32-.62-2-.83-.81-.27-1.63-.53-2.47-.65-1.4-.2-2.82-.29-4.46-.43-.57.36-1.3.86-2.05,1.31-1.13.69-2.26,1.4-3.41,2.01-.78.42-1.63.57-2.5.49-1.13-.09-2.27-.17-3.4-.3-2-.25-3.98-.14-5.9.58-2.1.79-4.14.72-6.26-.09-1.87-.71-3.85-1.06-5.94-1.62-1.1-3.11-1.81-6.43-1.75-9.9.03-1.64.28-3.27.49-4.91.08-.64.31-1.26.52-1.87.34-.94.9-1.7,1.77-1.99,1.09-.38,2.19-.72,3.3-.95,1.22-.26,2.07-1.03,2.63-2.26.33-.72.58-1.49.91-2.37-.74-3.11-2.09-6-3.24-8.99-.2-1.33-.04-2.61.37-3.87.46-1.38.91-2.76,1.39-4.13.68-1.94,1.89-3.26,3.55-4.04.91-.44,1.87-.79,2.79-1.19.61-.5,1-1.2,1.12-2.02.41-2.67,1.62-4.9,2.82-7.13.61-1.14,1.42-1.29,2.52-.55.36.24.72.47,1.09.72.17-.31.46-.6.42-.79-.39-1.74-.76-3.5-1.29-5.17-.29-.91-.83-1.72-1.38-2.47-.54-.76-1.21-1.39-1.85-2.03-2.19-2.19-2.59-5.14-2.12-8.12.63-4.03,1.65-7.97,2.47-11.81,1.54-2.24,3.43-3.76,5.24-5.29,1.96-1.67,4.31-2.49,6.82-2.43,1.42.05,2.84.07,4.26.12,1.52.05,2.72-.63,3.76-1.92,2.32-2.88,4.7-5.72,7.06-8.55.69-.83,1.41-1.63,2.16-2.39,1.55-1.54,3.3-2.43,5.45-2.33,2.57.12,5.09.53,7.59,1.18.68.18,1.33.54,1.97.9.91.48,1.76,1.09,2.67,1.54,1.93.94,3.85.9,5.79-.07,2.1-1.04,4.08-2.29,5.96-3.79.21-.17.3-.54.45-.83-.53-1.1-1.58-1.24-2.43-1.73-.91-.51-1.71-1.18-2.2-2.24-.29-.61-.37-1.24-.06-1.87,1.06-2.17,2.42-4.06,4.04-5.7.42-.42.93-.72,1.44-1.02,1.01-.58,2.05-1.11,3.34-1.81,2.69-.37,5.65-.54,8.59.41.85.27,1.7.14,2.51-.25.79-.37,1.56-.78,2.35-1.15,1.05-.5,2.11-.97,3.15-1.49,1.65-.82,3.32-.91,4.99-.23,2.23.9,4.45.97,6.7.2,2.68-1.55,3.86-4.73,5.59-7.08,1.31-.71,2.46-1.19,3.82-.79.65.19,1.44.13,2.09-.12,2.76-1.07,5.64-.6,8.45-1.08,1.96.33,3.93.67,5.89.99,1.97.32,3.93.73,5.76,1.68.92.46,1.87.71,2.89.77,2.65.12,4.97,1.22,7.01,3.19.2.2.49.3.81.48,1.25-.03,1.64-1.65,2.26-1.92,3.36-1.51,6.39-2.3,9.54-2.53,1.44-.11,2.83.05,4.2.55,2.29.86,4.56,1.76,6.9,2.5,1.21.39,2.39,1.09,3.49,1.84,1.93,1.31,3.94,1.69,6.13,1.27.12-.03.27.07.49.1.29.23.67.47.99.78.81.78,1.28,1.72,1.12,3.01-.12.96-.17,1.95-.17,2.93,0,.28.23.58.39.85.06.1.22.15.33.23,1.04,0,1.9-.56,2.83-.98,1.73-.77,3.45-1.52,5.19-2.23,1.1-.46,2.25-.43,3.36-.05,1.23.42,2.42.95,3.75,1.48.73-.11,1.57-.24,2.41-.39,1.28-.2,2.54-.32,3.8.19.25.11.55.12.83.13.57.03,1.13,0,1.47,0,1.46-.89,2.7-1.64,3.95-2.41,1.32.29,2.56.65,3.82.8,1.26.17,2.56.06,3.82.25,2.3.32,4.54-.03,6.78-.52,1.54-.32,3.05-.8,4.58-1.15.83-.19,1.67-.32,2.52-.42,2.93-.3,5.65.42,8.13,2.27.12.09.25.17.37.26,2.42,1.86,5.07,1.97,7.79,1.22,1.65-.45,3.29-1.01,4.69-1.43,1.34.22,2.12.82,2.58,1.96.18.44.33.91.55,1.33.31.58.79.96,1.38,1.03.71.07,1.42.04,2.13.07,1.85.08,3.7.13,5.54.27,1.42.11,2.78.45,4.04,1.4,1.18.9,2.49,1.54,3.92,2.4.66.06,1.52.24,2.37.21,2.93-.11,5.56,1.12,8.19,2.37,1.09.52,1.74,1.66,2.42,2.72.9,1.38,1.29,2.9,1.18,4.62-.12,1.81-.24,3.58-1.13,5.2-1.09,1.95-1.51,4.24-2.12,6.42-.5,1.76-.37,3.59.1,5.34.11.41.55.69.81.97.68-.06,1.19-.32,1.53-.89.33-.54.58-1.13.89-1.68.2-.37.83-.58,1.12-.39.38.27.57.68.62,1.19.08.86-.16,1.64-.62,2.28-.81,1.15-1.67,2.23-2.43,3.22-.15.46-.33.78-.33,1.07.08,3.4-1.54,5.9-3.32,8.29-.75,1-1.58,1.9-2.56,3.08-.4.8-.26,1.94.07,3.05.41,1.43,1.14,2.66,2.21,3.54.69.57,1.43,1.07,2.19,1.52,1.68,1.03,2.4,2.78,2.65,4.79.16,1.28.03,2.62.03,4.6-.23.92-.67,2.5-1.04,4.07-.33,1.44-.43,2.92-.16,4.4.08.48.16.97.24,1.45.37,2.12.33,4.2-.12,6.35-.65,3.01-.55,3.04-.18,7.37.68,1.42,1.9,2.36,2.82,3.61,1.39,1.87,2.79,3.73,4.13,5.63.73,1.03,1.18,2.23,1.61,3.46.87,2.43.83,4.77-.08,7.18-.58,1.56-1.4,2.83-2.68,3.71-2.56,1.75-5.19,3.36-7.67,5.3-.56.43-1.32.69-2,.74-1.15.07-2.24.3-3.33.66-.67.24-1.4.3-2.11.34-1.85.07-3.69.05-5.54.15-2.23.12-4.19-.56-5.92-2.25-2.66-2.6-5.78-4.13-9.16-5.01-.89-.22-1.73-.07-2.4.62-1.06,1.1-2.06,2.27-3.06,3.43-1.01,1.16-1.98,2.36-2.99,3.54Z"/>
      <path class="cls-1" d="M162.98,209.51c-.25-.14-.53-.24-.77-.42-.5-.38-.94-.94-.87-1.6.39-3.43-.24-6.85,0-10.28.24-3.27.25-6.55.32-9.84.02-1.31.13-2.6.52-3.86.39-1.25.41-2.56.36-3.88-.1-2.46-.14-4.92-.2-7.38-.05-1.67.21-3.26.93-4.73,2.05-4.22,3.14-8.77,3.51-13.56.1-1.32.49-2.57,1.09-3.7.3-.53.76-.96,1.18-1.38.4-.4,1.14-.3,1.57.11.37.36.48.9.36,1.32-.86,2.96-1.44,6-1.96,9.05-.17.96-.35,1.92-.45,2.89-.12,1-.35,1.92-.75,2.8-.39.88-.75,1.76-1.12,2.65-.71,1.64-1.05,3.37-.97,5.23.09,1.96.1,3.93.18,5.89.08,1.81.02,3.58-.38,5.37-.4,1.74-.63,3.53-.91,5.3-.1.65-.22,1.32-.16,1.95.27,2.96-.06,5.89-.1,8.84-.04,1.8-.09,3.61.38,5.37.27,1.02-.02,1.95-.42,2.84-.28.62-.76.93-1.35,1.01Z"/>
      <path class="cls-1" d="M171.13,192.72c-.21-2.84-.1-4.91.48-6.99.47-1.69.61-3.51.88-5.28.37-2.47.97-4.77,2.22-6.83.52-.84.64-1.8.57-2.8-.06-.81-.18-1.63-.31-2.42-.42-2.41-.85-4.8-1.27-7.21-.06-.32.31-1.09.61-1.18.26-.07.56-.09.82-.02.57.18.98.62,1.32,1.16.67,1.08,1.1,2.28,1.32,3.58.3,1.76.61,3.53.88,5.3.14.98.12,1.97-.17,2.91-.38,1.23-.73,2.49-1.22,3.65-.95,2.23-1.71,4.51-1.92,6.98-.03.33-.05.67-.14.97-.99,3.5-1.01,7.09-.7,10.7.06.65.04,1.32-.07,1.96-.08.45-.36.88-.61,1.26-.3.47-1.14.44-1.51.04-.65-.7-1.09-1.55-1.15-2.55-.06-1.3-.02-2.62-.02-3.23Z"/>
      <path class="cls-1" d="M188.01,194.81c-1.71-.37-3.2-.91-4.6-1.73-.91-.54-1.63-1.3-2-2.68.13-.61.3-1.4.54-2.48-.13-.68-.34-1.63-.49-2.59-.26-1.56.13-2.92,1.07-4.07.4-.47.83-.89,1.26-1.32.56-.56,1.25-.73,1.96-.81.91-.11,1.66.17,2.29.97,1.77,2.29,2.48,5.1,2.86,8.06.13.97.14,1.96.18,2.94.06,1.58-.6,2.68-1.99,3.37-.25.13-.54.17-1.07.33Z"/>
      <path class="cls-1" d="M160.72,181.94c-.76,2.19-1.54,4.48-2.33,6.76-.7,2.01-1.06,4.09-1.04,6.25.05,2.62-.06,5.25.81,7.79.65,1.88.39,3.89,0,5.83-.09.47-.34.9-.53,1.33-.28.6-.92,1.04-1.38.97-.6-.09-1.32-1.06-1.28-1.75.04-.49.06-.99.17-1.45.31-1.31.31-2.58,0-3.89-.35-1.42-.57-2.89-.84-4.33-.45-2.44-.46-4.91-.25-7.36.13-1.46.45-2.95.97-4.28.87-2.24,1.96-4.36,3-6.51.41-.86,1.1-1.19,1.76-.99q.44.13.95,1.63Z"/>
      <path class="cls-1" d="M168.94,128.42c.85.34,1.43,1.75,1.08,2.51-.45,1.02-.93,2.02-1.45,3-1.5,2.82-2.61,5.82-3.08,9.11-.09.64-.29,1.27-.47,1.88-.14.5-1.04.74-1.46.45-.53-.34-.85-.85-1.03-1.5-.08-.31-.1-.65-.12-.97-.12-2.19.32-4.31,1.1-6.23,1.16-2.81,2.53-5.52,4.42-7.8.25-.3.73-.35,1.01-.47Z"/>
      <path class="cls-1" d="M135.67,137.9c-2.29.04-4.46-.74-6.66-1.28-1.14-.29-2.07-1.06-2.6-2.32-.42-1.03-.84-2.06-1.16-3.13-.18-.62-.05-1.28.36-1.82.45-.61,1.52-.73,1.86-.15.38.67.71,1.39,1.05,2.1.67,1.37,1.69,2.2,3.02,2.41,1.25.19,2.53.16,3.78.4.96.18,1.89.6,2.82.96.39.15.64,1.16.52,1.71-.12.55-.5.84-.89.93-.67.15-1.39.13-2.09.19Z"/>
      <path class="cls-1" d="M77.78,60.83h3.59c.37-.23.75-.44,1.1-.71,1.41-1.09,2.79-2.24,4.24-3.28.72-.52,1.54-.83,2.43-.54.64.21,1.09-.24,1.47-.72.87-1.12,1.23-2.56,1.73-3.69-.13-1.29-.92-1.88-1.31-2.73-.34-.71-.63-1.48-.79-2.25-.19-1.03.16-1.92.85-2.62.5-.52,1.64-.4,1.86.32.67,2.35,2.32,4.09,2.91,6.42.06,1.62-.48,3-1.18,4.2-1.83,3.12-3.96,5.99-6.11,8.81-.27.35-.68.56-1.04.8-.4.26-1.33.07-1.58-.37-.37-.68-.7-1.39-.99-1.96-.57-.48-.92-.05-1.23.21-1.08.88-2.27,1.24-3.57,1.42-1.79.26-3.39-.1-4.81-1.36-2.38-2.12-4.44-4.57-6.13-7.43-.35-.57-.37-1.24-.05-1.85.34-.66,1.34-.92,1.89-.54.24.17.5.3.7.54.29.35.59.73.78,1.16.79,1.79,2.03,3.12,3.39,4.33.55.51,1.09,1.05,1.87,1.8Z"/>
      <path class="cls-1" d="M86.6,74.03c-.23-.74-.55-1.64-.76-2.58-.11-.44-.06-.95.28-1.35.28-.32.73-.48,1.14-.26.51.27.99.63,1.5.87.55.26,1.09.16,1.63-.16.88-.53,1.64-1.22,2.31-2.09,1.12-1.46,2.25-2.91,3.41-4.33.48-.58,1.03-1.1,1.58-1.56.16-.14.56-.07.75.07.2.16.45.58.4.78-.21.78-.44,1.56-.81,2.23-1.3,2.34-2.92,4.39-4.59,6.37-1,1.18-2.2,2.04-3.54,2.6-1.09.46-2.2.54-3.31-.59Z"/>
      <path class="cls-1" d="M194.14,49.02c.49,0,1.77.12,3.02-.03,1.1-.13,2.18-.55,3.18-.82.59.53.87,1.04.71,1.77-.19.85-.6,1.53-1.33,1.75-1.78.53-3.54,1.15-5.39,1.32-.97.09-1.93.37-3.34.66-2.1-.06-4.45-1.54-7.08-1.45-.72.77-1.41,1.53-2.07,2.25-.69-.23-1.15-.58-1.28-1.28-.12-.64-.23-1.29-.24-1.93,0-1.07.46-1.88,1.28-2.36,1.05-.6,2.13-.85,3.28-.38.66.28,1.33.53,1.99.82,1.18.53,2.36,1.08,3.25,1.49,1.62.17,2.11-1.52,4.02-1.8Z"/>
      <path class="cls-1" d="M206.85,39.63c0-.22,0-.55,0-.88,0-.86.5-1.58,1.19-1.76.85-.21,1.81.3,2.05,1.21.15.6.23,1.29.12,1.89-.21,1.15-.83,2.01-1.75,2.61-.46.29-1.33-.02-1.38-.56-.08-.8-.15-1.61-.22-2.51Z"/>
    </g>
  </g>
</svg>