<?xml version="1.0" encoding="UTF-8"?>
<svg id="Layer_2" data-name="Layer 2" xmlns="http://www.w3.org/2000/svg" viewBox="0 0 119.98 397.68">
  <defs>
    <style>
      .cls-1 {
        fill: #593826;
        fill-rule: evenodd;
      }
    </style>
  </defs>
  <g id="_Layer_" data-name="&amp;lt;Layer&amp;gt;">
    <g>
      <path class="cls-1" d="M103.52,73.14l.27.18.03-.27-.3.09h0ZM7.97,94.56c-.17-.18-.32-.49-.5-.52-.44-.07-.78.29-.84.79-.03.29.16.48.51.5.52,0,.82-.28.84-.77h0ZM40.67,94.21q1.57.76,2.72-.78c-1.3-.66-1.64-.58-2.72.78h0ZM87.3,97.62c-.03-.53-.66-1.05-1.21-1.02-.49.03-1.01.66-.99,1.19.02.52.7,1.1,1.21,1.02.55-.1,1.03-.67,1-1.19h0ZM52.53,91.61c-.25-1.33-.7-1.91-1.41-2.31-.52-.3-1.16-.19-1.64.23-.37.34-.36,1,.03,1.13.86.29,1.72.55,3.02.95h0ZM25.42,110.07c-.68.32-1.48.68-2.25,1.07-.11.06-.23.31-.19.37.14.21.33.5.52.53,1.03.18,2.07.3,3.06.44.73-1.41.68-1.52-1.14-2.41h0ZM29.31,92.49c.84.48,1.1.67,1.38.78,1.36.57,2.67-.53,4.03.03.08.04.25-.08.32-.18.07-.1.11-.27.09-.41-.02-.14-.07-.37-.17-.41-1.63-.73-2.03-.72-5.66.19h0ZM98.85,87.89c0,.19-.01.34.02.47.04.12.12.3.22.33,1.61.43,3.22.92,4.86.26.41-.78.82-1.54,1.2-2.25.64-.25,1.19-.44,1.73-.69.27-.12.5-.3.73-.47.31-.22.43-.82.25-1.22-.15-.32-.86-.59-1.18-.42-1.29.72-2.54,1.51-3.86,2.17-1.3.66-2.66,1.23-3.99,1.83h0ZM66.13,92.5c-.24-.3-.54-.39-.82-.18-1.74,1.26-2.97,2.85-3.4,5.04-.2,1.02-.6,2-.92,2.99-1.2,3.7-1.9,7.53-2.5,11.39-.03.18.25.43.42.63.03.03.27-.1.38-.19.83-.72,1.14-1.75,1.31-2.77.34-2.09.95-4.08,1.61-6.07.79-2.41,1.72-4.78,2.36-7.23.34-1.33.99-2.45,1.57-3.61h0ZM81.01,100.49c-2.59,1.28-4.57,3.06-6.43,4.97-1.44,1.48-2.83,3.01-4.21,4.55-.16.17-.1.55-.14.83.26.15.52.31.79.42.13.07.31.1.44.07.29-.07.62-.12.83-.3.9-.76,1.75-1.58,2.65-2.36.67-.57,1.31-1.24,2.08-1.63,2.29-1.17,4.09-2.93,5.92-4.53.03-.25.11-.41.06-.53-.11-.27-.22-.58-.44-.73-.37-.27-.82-.42-1.55-.79h0ZM49.78,94.98c-.76.31-1.19.45-1.58.66-.54.29-.81,1.05-.61,1.53.12.29.17.61.34.85,1.68,2.41,3.36,4.81,5.07,7.21.16.21.58.46.78.4.39-.11.92-.36,1.02-.68.68-2.13,1.3-4.29,1.87-6.45.1-.38-.13-.86-.28-1.65-2.33.23-4.45-.65-6.62-1.86h0ZM76.59,97.44c-1.1,1.15-2,2.12-2.94,3.05-.84.83-1.77,1.58-2.58,2.43-.91.97-1.67,2.09-2.61,3.01-.81.79-1.39,1.89-2.64,2.21-.09-.15-.26-.31-.23-.41.25-1.16.38-2.37.84-3.45,1.16-2.73,1.79-5.67,3.14-8.32.61-1.21.81-2.23-.99-3.49-.12-.09-.27-.17-.36-.29-.14-.21-.24-.46-.36-.68.28-.05.61-.21.84-.12.7.29,1.47.57,2.03,1.06,1.61,1.45,3.4,2.65,5.13,3.93.22.17.34.49.73,1.08h0ZM34.88,112.48c-.95-.19-2.01-.35-3.04-.65-.91-.25-1.64-.82-2.05-1.74-.13-.28-.2-.58-.34-.86-.73-1.45-1.86-2.45-3.46-2.86-.44-.11-.89-.21-1.55-.38-.65.3-1.45.66-2.25,1.05-.69.32-1.41.46-2.19.35-.59-.08-1.29-.56-1.34-1.09-.04-.43-.05-.98.17-1.28,1.34-1.8,3.09-3.19,4.87-4.53.32-.25.86-.42,1.27-.35,1.42.23,2.64-.4,4.07-.64,1.79.81,3.37,2.03,4.61,3.67,2.06,2.72,4.17,5.38,6.66,7.74.9.85,1.52,1.95,1.98,3.1.12.31.07.63-.27.73-.24.07-.64.02-.81-.15-.44-.43-.78-.95-1.17-1.43-.76-.91-1.71-1.31-2.85-1.13-.75.12-1.48.28-2.31.43h0ZM68.67,391.8c1.06.54,1.8.41,2.55.29,1.16-.18,1.89-1.02,1.86-2.16-.07-2.44-.15-4.87-.28-7.31-.11-2.13-.05-4.31-.52-6.38-.48-2.14-.17-4.25-.49-6.37-.18-1.18.24-2.47-.09-3.6-.69-2.42-.58-4.85-.8-7.28-.13-1.37-.04-2.82-.49-4.08-.8-2.25-.87-4.5-.91-6.78-.02-.91-.13-1.81-.2-2.78-.37.08-.73.07-.79.19-.36.82-.67,1.67-.42,2.63.12.44.26.94.15,1.34-.37,1.36-.18,2.71-.08,4.08.11,1.37.17,2.74.15,4.11-.06,3.81-.02,7.61.38,11.42.16,1.51.31,3.09-.19,4.54-.52,1.44-.51,2.96-.71,4.44-.62,4.55-.49,9.07.88,13.7h0ZM55.35,27.38c1.04.43,1.89.84,2.75,1.14,1.63.55,3.14.19,3.94-1.25.85-1.52,1.92-2.59,3.63-3,.11-.03.16-.24.3-.44-.13-.35-.21-.8-.43-1.16-2.34-3.71-3.85-7.71-4.56-11.96-.24-1.39-.81-2.63-1.45-3.86-.14-.26-.39-.47-.61-.68-.24-.23-.54-.2-.74.11-.87,1.32-.34,2.96-.8,4.47-.23.44-.48.98-.77,1.51-2.29,4.1-1.51,3.79-5.51,6.81-.35.27-.58.67-.87,1.01-.34.4-.28,1.32.13,1.67.71.59,1.41,1.19,2.15,1.74,1.03.77,1.77,1.71,2.17,2.93.09.28.34.5.67.98h0ZM111.99,105.66c-2.32-1.39-4.87-1.88-7.47-2.1-1.91-.17-3.58.42-5.05,1.55-.23.18-.41.42-.61.66-.46.55-.53,1.53-.22,2.13.71,1.43,1.9,2.43,3.01,3.51.27.26.27.79.41,1.19-1.62.69-3.08-.12-4.57-.29-1.63.27-3.25.72-4.89.73-2.43.02-4.87-.29-7.56-.47-2.08.49-4.44.93-6.89.84-.11,0-.26-.18-.33-.31-.06-.14-.07-.3-.05-.45.02-.14.08-.3.18-.37,2.43-1.96,4.85-3.94,7.3-5.87,1.76-1.39,3.67-2.54,5.87-3.21.79-1.29,1.55-2.56,2.22-3.65.15-1.32-.08-2.29-.91-3.17-.41-.42-.83-.99-.94-1.54-.51-2.5.36-4.31,3.32-3.79,1.8.32,3.56.89,5.34,1.37.75.19,1.48.43,2.21.68,1.2.4,2.39.51,3.6.2.44-.11.89-.2,1.33-.3,2.12-.53,3.89.15,5.37,1.8,1.17,1.31,2.08,2.73,2.02,4.53-.05,1.39.36,2.71.7,4.05.3,1.15-.03,2.03-1.51,2.16-.45.04-.9.07-1.85.12h0ZM70.19,60.37c1.23.2,2.59.42,4.01.67,1.03.6,2.1,1.22,3.16,1.85.96.57,2,.74,3.08.85,2.41.22,4.49-.38,6.29-1.92.78-.67,1.67-1.24,2.52-1.83.27-.19,1.07.18,1.15.51.11.44.31.88.31,1.31-.04,2.37,1.19,4.09,2.91,5.56.83.69,1.75,1.27,2.71,1.96.24,1.17.49,2.36.73,3.55.49,1.04,1.38,1.68,2.28,2.27.78.51,1.67.85,2.44,1.37.5.33.93.82,1.32,1.29.58.69.57,1.98,0,2.53-.75.73-1.55,1.39-2.29,2.13-1.3,1.28-2.91,1.44-4.64,1.12-.6-.12-1.18-.36-1.76-.58-1.34-.52-2.71-.44-4.07-.42-.68,0-1.48.61-1.62,1.35-.44,2.4-1.54,4.54-2.49,6.73-.57,1.29-1.83,1.52-3.02.67-.5-.36-1.03-.68-1.58-1.04-2.43-.02-4.89.09-7.2-1.04-3.88-4.18-3.93-4.2-9.32-5.35-1.09.22-1.82,1-2.61,1.67-.68.57-1.32,1.21-2.03,1.74-1.55,1.15-3.48,1.12-5.1-.13-.73-.56-1.3-1.33-1.98-1.96-.33-.31-.73-.59-1.13-.79-.41-.19-.87-.27-1.41-.42-.74.41-1.61.73-2.29,1.27-1.41,1.14-3.02,1.92-4.6,2.77-1.5.8-3.08,1.14-5,.97-.95-.4-2.07-.95-3.22-1.33-1.18-.38-2.36-.4-3.6-.07-2.47.63-5,1.07-7.97,1.68-.69.55-1.73,1.39-2.87,2.3-.15.06-.41.25-.69.3-2.51.52-5.03,1.02-7.55,1.52-.14.03-.3-.04-.46-.05-1.22-.03-2.18-1.63-1.6-2.73.21-.39.44-.79.74-1.1.83-.9,1.84-1.54,3.04-1.82,2.14-.52,3.78-1.76,5.26-3.28.83-.85,1.6-1.77,2.45-2.6.85-.83,1.76-1.6,2.56-2.32,1.08-2.04.53-4.24.67-6.26,2.17-1.87,4.29-1.1,6.37.16.66.39,1.19,1,1.82,1.46.81.59,1.71.67,2.63.45,1.8-.46,3.34-1.4,4.57-2.72,1.74-1.88,3.22-3.94,3.17-6.73,0-.3-.06-.6-.1-.91-.08-.61-.97-1.33-1.68-1.38-1.01-.06-1.79.37-2.26,1.18-.29.5-.42,1.12-.53,1.7-.15.92-.46,1.78-1.06,2.45-.59.64-1.33,1.15-1.94,1.65-1.64-.18-2.52-1.45-4.02-2.17-.92-.19-2.11-.43-3.24-.67-.15-.37-.42-.73-.34-.88.68-1.19.96-2.5,1.17-3.83-.17-1-.71-1.73-1.55-2.23-.93-.54-1.89-1.03-2.92-1.58.05-.47.08-.9.15-1.3.03-.13.18-.25.3-.32,2.33-1.61,4.67-3.21,6.91-4.74.9.08,1.64.51,2.39.13.27-.14.55-.25.85-.3,2.11-.39,4.19-.52,6.28.5,1.37.66,2.75-.3,2.89-1.85.04-.44,0-.91-.04-1.36-.08-.67-.52-1.11-1.1-1.39-.4-.2-.86-.33-1.31-.42-.45-.1-.91-.07-1.36-.14-.3-.05-.58-.17-.87-.27-.23-.19-.2-.42.07-.69,1.08-1.03,2.16-2.05,3.21-3.11.62-.64,1.3-1.27,1.76-2.01.64-1.04,1.51-1.8,2.48-2.52,2.72-2.04,3.44-2.87,6.37-6.79.97-.29,1.68.68,2.6.66.76-.02,1.53.05,2.28-.02,3.27-.28,5.64-1.88,7.05-4.79.26-.54.45-1.08,1.14-1.03.93,1.8,1.85,3.58,2.62,5.06,1.78,1.63,3.47,2.7,5.39,3.4,1.72.62,2.81,1.88,3.38,3.59.2.58.43,1.16.6,1.76.35,1.21.42,2.43-.16,3.56-.88,1.69-.59,3.53-.49,5.35.02.42.28.92.6,1.22,1.12,1.08,2.3,2.08,3.47,3.11.58.52,1.23.98,1.7,1.57.24.3.33.92.18,1.27-.57,1.29-1.62,2.12-2.99,2.5-.42.11-.9.11-1.35.06-.45-.06-.94-.14-1.33-.35-3.85-2.17-8-3.19-12.28-3.78-1.13.34-2.35.49-3.29,1.34-.79.71-.81,2.06.04,2.83.6.54,1.28.94,2.07.88,1.36-.1,2.71-.3,4.19-.46h0ZM50.46,212.3c.4-1,.84-13.57,1.21-14.51-.03-.36-.02-.53-.07-.66-1.48-3.73-2.11-7.7-3.56-11.44-.06-.14-.15-.29-.16-.42-.36-3.49-1.58-6.89-1.66-10.41-.02-.76.07-1.52.2-2.25.1-.61.48-1.1,1.07-1.41.42.05.87.12,1.31.15.82.06,1.45-.3,1.99-.86.75-.77,1.19-1.72,1.49-2.72.25-.87.44-1.76.54-2.66.58-5.12,1.15-10.23.72-15.46-.36-4.56-.52-9.14-.74-13.71-.04-.92-.08-1.84.03-2.73.33-2.43-.09-4.88-.3-7.29-.12-1.49-.74-2.98-1.33-4.4-.54-1.28-1.03-2.54-1.36-3.91-.44-1.77-1.25-3.46-1.98-5.41-4.21-4.68-9.05-9.12-12.99-14.4.06-.19.07-.55.26-.69.19-.16.58-.21.82-.12.42.16.86.39,1.19.7.79.75,1.49,1.6,2.29,2.33.86.78,1.84,1.14,2.95.61.27-.13.58-.21.88-.19.28,0,.67.09.83.29,2.15,2.65,4.41,5.25,5.82,8.39.37.84.65,1.73.91,2.62.21.74.27,1.51.49,2.24.27.89.56,1.77.98,2.6.5.98,1.17,1.86,2.41,1.94,1.27.08,2.23-.57,2.75-1.88.22-.55.33-1.16.59-1.68.09-.19.47-.2.76-.32.11.45.19.91.34,1.34.48,1.39,1.79,2.04,2.86,1.4,1.39-.85,2.89-1.56,3.98-2.84.02-.03.24.05.3.12.09.11.19.3.16.41-.49,1.56-1.05,3.1-1.73,4.58-.7,1.51-1.09,3.09-1.32,4.76-.21,1.5-.61,2.96-.81,4.44-.2,1.49-.04,3.03-.43,4.51-.18.72-.23,1.51-.19,2.26.14,2.76-.33,5.45-.71,8.13-.47,3.33-.47,6.65-.31,10,.12,2.6.37,5.19.08,7.76-.44,3.92-.29,7.87-.12,11.83.17,3.96.24,7.92.28,11.88.02,2.13.2,4.25.42,6.38.35,3.34.41,18.17.51,21.52.08,2.9,0,5.78.2,8.68.13,1.96-.14,3.94-.24,6.18.73,1.25,1.59,2.71,2.43,4.13.23,2.65.6,5.24.63,7.82.04,3.19.26,6.42-.86,9.28.33,1.1.6,1.98.91,2.99-.64,3.79-.4,7.74,0,11.7.34,3.35.57,6.7.25,10.04-.04.44-.1.91,0,1.36.85,3.63.57,34.4.69,38.05.1,3.05.17,6.09.98,9.1.24.88.3,1.8.24,2.33-.52,1.5-1.77,1.59-2.49,2.34-.66.69-.71,1.74.07,2.39.35.3.75.54,1.13.79.51.32,1.03.63,1.61.98.35,2.95.31,5.83.7,8.66-.36.42-.59.81-.92,1.08-1.09.9-1.66,2.04-1.85,3.46-.27,2.1-.66,4.17-.6,6.33.04,1.67-.04,3.33-.36,4.98-.2,1.03-.15,2.12-.06,3.18.19,2.12.23,4.25.59,6.38.3,1.78.4,3.61,0,5.42-.45,2.06-.25,4.23-.75,6.31-.17.72-.14,1.51-.12,2.27.06,2.28.19,4.55-.28,6.8-.24,1.14.07,2.42.09,3.64,0,.45-.06.91-.17,1.34-.07.28-.28.52-.43.77-.29,0-.63.06-.84-.07-.23-.15-.43-.5-.45-.76-.1-1.52-.14-3.05-.21-4.56-.02-.45-.09-.91-.16-1.35-.09-.66-1.17-1.22-1.84-.98-1.22.43-2.04,1.25-2.34,2.5-.18.72-.15,1.5-.27,2.25-.04.29-.36.36-.7.19-.12-.06-.26-.22-.29-.35-.08-.43-.16-.89-.18-1.32-.03-1.07-.41-1.62-1.13-1.68-1.01-.07-1.89.41-2.31,1.07-.68,1.08-.37,2.36-.68,3.52-.1.37-.58.71-1,.74-1.26.1-2.44-.24-3.51-.9-.34-.21-.68-.73-.71-1.12-.09-1.05-.15-2.14.02-3.18.25-1.65.33-3.31.31-4.99-.02-1.98-.05-3.95.38-5.89.19-.86.06-1.81.11-2.72.06-1.21.15-2.42.24-3.63.33-4.23.94-8.43.69-12.72-.04-.76-.04-1.54.11-2.27.54-2.69.38-5.43.39-8.17.01-1.97-.03-3.95.47-5.88.46-1.77.21-3.63.1-5.46-.1-1.68-.07-3.33.24-4.98.22-1.17.26-2.4.38-3.61.11-1.05.16-2.12.34-3.15.36-2.11.46-4.22.25-6.37-.12-1.23-.03-2.42.11-3.63.32-2.85.57-32.83.85-35.7.16-1.65.32-3.32.49-4.97.05-.45.2-.9.21-1.34.08-6.24.85-12.42.37-18.69-.4-5.18-.51-10.37-.73-15.55-.12-2.73-.2-5.47-.6-8.2-.07-.45-.1-.91-.11-1.37-.02-3.82-.25-7.61-.9-11.41-.15-.9-.09-1.82-.14-2.85h0ZM112.68,76.98c.04.98.1,2.05.13,3.11.03,1.22-.03,2.44.07,3.66.09,1.05.32,2.11.53,3.15.25,1.2.55,2.38.91,3.93.27.21.77.58,1.25.97,2.03,1.63,3.1,3.85,3.99,6.18.21.57.38,1.2.39,1.79.02,1.82.06,3.66-.12,5.47-.2,2.12-1.51,3.57-3.43,4.36-1.55.64-3.17.95-4.87.18-1.57-.71-3.26-.87-4.93-1.05-.11,0-.24.16-.43.31,1.41,1.8,1.88,3.83,1.64,6.04-.15,1.31-.97,2.25-2.22,2.47-1.36.22-2.73.25-4.1.08-1.06-.13-2.12-.34-3.12-.51-1.56.15-3.07.31-4.59.45-1.67.15-3.32.19-4.98-.43-1.17-.43-2.44-.55-3.61-.17-2.94.94-5.98.82-9.04.52-.46-.05-.92-.13-1.37-.1-.94.06-1.76.42-2.34,1.16-.46.59-.89,1.2-1.27,1.85-.61,1.03-1.27,2-2.2,2.8-.54.47-1.04,1.13-1.27,1.8-.62,1.84-1.2,3.71-1.29,5.69-.23,4.86-.52,9.7-.95,14.54-.23,2.56-.13,5.16-.08,7.75.04,1.98.32,3.96-.17,5.91.03,3.95,0,7.92.09,11.88.06,3.04.19,6.08-.07,9.12-.27,3.17-.17,6.38.56,9.57.37,1.63.52,3.33.58,5.01.2,5.33.32,22.13.49,27.47.03,1.06.18,2.13.25,3,.18.48.23.8.4,1.05,1.84,2.71,2.09,5.78,2.22,8.82.18,3.96.18,7.93.18,11.89,0,1.36-.15,2.72-.3,4.07-.27,2.56-.42,5.13-.2,7.72.25,2.89.57,5.79.34,8.68-.04.44.03.92.08,1.37.52,4.88.55,36.87.66,41.75.09,4.72.48,9.43,1.35,14.12.39,2.11.38,4.26.43,6.39.05,1.83.18,3.64.46,5.47.21,1.36.27,2.73.38,4.11.15,1.83.22,3.65.71,5.46.28,1.03.34,2.12.42,3.18.24,2.9.56,5.78,1.05,8.66.86,5.01.97,10.04.98,15.07,0,2.89.39,5.77.39,8.67s.74,5.73,1.29,8.58c.11.6.24,1.19.26,1.29.1,2.67-1.07,4.23-2.39,5.68-.51.55-1.32.86-2.08.6-1.8-.59-3.62-.51-5.44-.57-2.59-.07-5.16-.18-7.75-.72-2.69-.57-5.46-.75-8.19-.92-1.96-.12-3.93.07-6.28.12-.35-.14-1.1-.37-1.76-.75-1.45-.81-2.38-2-2.33-3.72.03-1.38.03-2.74.14-4.1.24-3.18.59-6.34.79-9.53.14-2.27.14-4.56.15-6.85,0-1.06.19-2.09.34-3.13.44-2.97.91-5.94.76-9.03-.13-2.73.02-5.49.26-8.19.17-1.98.25-3.95.12-5.92-.1-1.69.04-3.33.37-4.98.54-2.66.84-5.37.76-8.13-.04-1.38.09-2.74.23-4.09.35-3.17.58-6.34.43-9.55-.03-.76-.12-1.58.1-2.27.75-2.34.5-4.8.78-7.21.04-.3.14-.64.05-.91-.88-2.64.18-32.22.44-34.75.12-1.2.32-2.37.3-3.6-.06-2.9-.04-5.78.39-8.64.29-1.96.29-3.94,0-5.93-.13-.9-.19-1.83-.21-2.73-.15-5.33-.25-10.67-.43-16-.06-1.98-.38-3.96-.37-5.93,0-1.53-.09-3.03-.23-4.56-.25-2.73-.48-5.45-1.09-8.18-.36-1.63-.43-3.34-.45-5.02-.05-3.06-.73-17.54-1.07-20.57-1.04-2.77-1.38-5.65-1.69-8.54-1.47-4.19-1.03-8.46-1.11-12.71-.02-.94.23-1.8.64-2.61.34-.69.85-1.26,1.61-1.46.88-.24,1.77-.39,2.65-.58,1-.24,1.44-1,1.71-1.89.08-.3.13-.6.13-.9-.02-1.99.12-3.94.54-5.88.29-1.31.27-2.73-.08-4.08-.36-1.35-.38-2.67-.32-4.05.18-4.88-.14-9.76-.69-14.62-.14-1.22-.44-2.41-.06-3.6.04-.14.07-.3.04-.45-.62-2.84-.73-5.77-2.08-8.47-.42-.85-1.35-1.22-2.33-.88-.42.16-.82.37-1.24.54-.92.37-1.81.16-2.61-.4-.88-.62-1.71-1.33-2.57-2.01-.48.12-1.04.08-1.3.35-1.92,1.92-4.42,3.07-6.47,4.8-1.05.9-2.38,1.26-3.8,1.17-.98-.06-1.77-.58-2.2-1.48-.19-.39-.25-.92-.14-1.31.16-.56.52-1.06.8-1.59.42-.79.83-1.57,1.27-2.39-.32-.43-.52-.94-.87-1.1-1.55-.68-3.13-1.34-4.87-1.31-2.03.04-3.92-.66-5.75-1.54-1.47-.71-2.48-1.87-3.04-3.38-.57-1.54-.51-3,.5-4.31.64-.81,1.34-1.61,1.87-2.5.38-.63.57-1.38.79-2.1.34-1.12-.3-2.1-1.52-2.41-.3-.08-.59-.2-.89-.21-.91-.03-1.83,0-2.91,0-.53.32-1.2.67-1.79,1.11-1.19.88-2.53.86-3.92.59-1.5-.28-2.7-1.78-2.75-3.33-.06-1.43.4-2.71,1.14-3.83.66-.99,1.38-2,2.31-2.73,1.91-1.46,3.4-3.34,5.04-5.05,1.37-1.44,3.11-2.33,4.89-3.1.79-.35,1.76-.3,2.68-.42.88-1.25,1.8-2.42,3.04-3.29.76-.54,1.18-1.32,1.58-2.13.22-.43.21-.88.02-1.31-.12-.28-.29-.56-.51-.77-1.81-1.79-1.57-3.91-1.22-6.02.07-.43.38-.82.48-1.27.48-1.98,1.66-3.11,3.76-3.25.43-.02.89-.18,1.24-.42.16-.09.22-.66.1-.77-.68-.62-1.45-1.15-2.17-1.74-.48-.38-.99-.76-1.41-1.21-.69-.74-.93-1.67-.63-2.56.48-1.44,1.26-2.64,2.59-3.54,2.86-1.9,5.72-3.8,8.25-6.16.75-.69,1.73-1.15,2.66-1.63,1.88-.97,3.56-2.16,4.94-3.79.77-.91,1.74-1.63,2.58-2.49.61-.63,1.25-1.29,1.71-2.03.64-1.04,1.31-2.02,2.3-2.72,1.07-.74,1.42-1.88,1.92-3.2.37-.2.86-.53,1.38-.78,1.63-.79,1.76-3.31,1.17-4.41-.22-.4-.5-.8-.85-1.08-.85-.67-1.8-1.23-2.65-1.89-.77-.59-1.2-1.41-1.37-2.36-.45-2.5.28-4.5,2.34-5.92.25-.17.49-.33.74-.51,4.1-2.74,3.04-2.62,4.69-5.76.49-.93.73-1.96.67-3.07-.03-.75,0-1.51.08-2.27.18-1.85,1.26-3,2.91-3.65C57.56.13,58.78.05,60,0c.99-.04,2.3.76,2.57,1.69,1,3.39,2.58,6.6,3.35,10.07.4,1.78,1.17,3.5,1.79,5.26.1.29.17.61.35.85,2.02,2.81,3.23,6,4.65,9.09.96,2.07,2.35,3.62,4.37,4.65.55.28,1.08.61,1.64.9,2.61,1.4,4.27,3.61,5.21,6.33.67,1.91.61,3.92.36,5.88-.09.75-.31,1.48-.39,2.23-.19,1.85.62,3.29,2.12,4.35.63.45,1.33.82,2.05,1.1,1.04.42,1.8,1.12,2.58,1.9,1.31,1.32,2.8,2.46,4.2,3.69.6.54,1,1.18.82,2.03-.06.3-.09.6-.11.91-.01.3,0,.61.03.91.15,1.32.81,2.37,1.98,2.97,1.66.84,3.34,1.69,5.08,2.3,4.35,1.52,7.45,4.36,9.39,8.51.13.29.26.56.64,1.38Z"/>
      <path class="cls-1" d="M55.99,337.6c.01-.17.04-1.23.19-2.27.06-.42.35-.81.59-1.18.38-.6,1.48-.6,1.98,0,.2.23.48.46.55.73.46,1.62.98,3.23,1.27,4.88.19,1.09-.35,2.05-1.21,2.76-.49.41-1.67.33-2.1-.19-.37-.48-.68-1.02-.96-1.55-.14-.27-.17-.59-.2-.9-.05-.45-.05-.91-.1-2.26Z"/>
      <path class="cls-1" d="M88.99,81.52c-1.27-.26-2.31-.48-3.41-.7-.71-.55-1.44-1.12-2.12-1.64-.37-.03-.7-.14-.96-.05-1.71.64-3.39.95-5.31.49-1.62-.41-3.33-.42-4.99-.47-.74-.02-1.5.19-2.2.43-1,.33-1.91.91-2.92,1.16-1.86.45-3.63.1-5.11-1.31-.31-.29-.52-.76-.66-1.17-.23-.68.31-1.66.96-1.8.44-.1.94-.3,1.33-.17,1.91.62,3.59.1,5.29-.59,3-1.22,6.14-1.4,9.37-.62.44.1.91.09,1.55.16.66-.35,1.47-.73,2.24-1.16.97-.54,1.97-.67,3.13-.32.67.54,1.38,1.12,1.99,1.61.82.14,1.27-.29,1.78-.57.68-.4,1.44-.38,2.21-.31.9.07,1.74.88,1.84,1.77.28,2.39-.72,4.12-2.89,4.99-.28.11-.58.16-1.12.29Z"/>
      <path class="cls-1" d="M56.93,50.5c.5-.36.98-.67,1.44-1.03.7-.55,1.34-1.16,2.06-1.68.62-.43,1.32-.67,2.09-.18,1.02.66,1.53,1.75,1.18,2.72-.2.55-.46,1.15-.87,1.52-1.45,1.3-3.19,2.16-5.07,2.66-1.52.39-3.06.05-4.24-1.14-1.75-1.77-3.59-3.38-5.8-4.55-.5-.27-.86-.88-1.19-1.39-.78-1.19-.05-2.84,1.38-3.15.27-.06.61-.05.88.06.42.18.82.41,1.17.71,1.77,1.48,3.51,3.01,5.3,4.48.46.38,1.06.6,1.68.95Z"/>
      <path class="cls-1" d="M75.26,37.31c1,.41,1.73.97,1.74,2.01,0,1.01-.88,2.04-1.84,2.24-1.31.28-2.63.55-3.95.76-.6.09-1.18-.08-1.7-.49-1.01-.79-1.1-2.39-.13-3.11.35-.27.73-.57,1.14-.66,1.6-.3,3.22-.52,4.75-.76Z"/>
      <path class="cls-1" d="M65.27,75.18c-.82-.05-1.39-.51-1.86-1.15-.75-1.04-.2-2.51,1.06-2.79.26-.06.61.03.85.17.85.51,1.29,1.28,1.28,2.25-.01.88-.61,1.27-1.34,1.52Z"/>
    </g>
  </g>
</svg>