<?xml version="1.0" encoding="UTF-8"?>
<svg id="Layer_2" data-name="Layer 2" xmlns="http://www.w3.org/2000/svg" viewBox="0 0 198 259.64">
  <defs>
    <style>
      .cls-1 {
        fill: #593826;
        fill-rule: evenodd;
      }
    </style>
  </defs>
  <g id="_Layer_" data-name="&amp;lt;Layer&amp;gt;">
    <g>
      <path class="cls-1" d="M35.26,56.85c-.07.08-.21.18-.2.25.02.2.09.4.14.61.08-.2.17-.39.21-.59.02-.07-.1-.18-.15-.27h0ZM36.67,53.19c.06-.07.15-.13.17-.21.03-.1.03-.24-.03-.32-.14-.2-.27-.12-.28.23,0,.09.08.19.13.31h0ZM36.07,55.1c0-.42-.07-.43-.18-.03-.03.09.03.21.05.31.04-.1.09-.19.13-.28h0ZM178.84,168.26c-.05-.1-.09-.2-.14-.3-.07.07-.16.16-.2.25-.04.09-.05.21-.03.32.03.1.1.19.15.29.07-.19.14-.39.22-.56h0ZM190.93,88.98c-.03-.09-.06-.19-.09-.29-.06.08-.17.17-.16.23.03.12.12.23.18.33.02-.09.05-.19.08-.28h0ZM31.4,90.33c-.03-.07-.03-.19-.08-.21-.08-.05-.22-.08-.3-.04-.27.12-.24.26.09.34.09.02.19-.05.29-.09h0ZM190.12,126.95c-.02-.09-.03-.19-.05-.3-.05.03-.14.05-.14.07,0,.1.02.21.04.31.05-.03.1-.06.15-.09h0ZM178.59,179.35c.08-.09.23-.18.21-.26-.04-.2-.14-.4-.21-.6-.08.2-.17.4-.2.61-.01.06.13.17.21.25h0ZM80.46,245.04c.24-.17.33-.39.23-.66-.04-.11-.15-.19-.23-.29-.08.22-.19.44-.23.66-.01.07.15.18.23.28h0ZM93.6,193.75c-.07-.08-.13-.17-.2-.25-.06.2-.15.39-.18.59-.01.08.12.17.18.26.07-.2.13-.4.2-.6h0ZM144.72,162.6q.28-.66,0-1.3-.27.65,0,1.3h0ZM87.99,230.58c-.09-.06-.17-.15-.27-.18-.26-.09-.49,0-.54.28-.04.19.03.42.06.64.17-.06.4-.06.51-.18.14-.14.17-.36.25-.56h0ZM178.66,164.3c-.28.6-.25,1.2,0,1.87.42-.66.41-1.26,0-1.87h0ZM105.54,243.13c.17-.26.41-.53.55-.83.15-.34.03-.72-.24-.97-.12-.11-.47-.18-.58-.09-.38.31-.55.77-.52,1.27.03.39.35.55.79.63h0ZM104.81,247.45c.22-.09.52-.15.64-.31.08-.14-.01-.5-.15-.61-.15-.14-.46-.16-.68-.12-.37.07-.69.65-.48.8.18.14.45.17.67.25h0ZM93.57,191.31c.55-.29.78-1.07.4-1.49-.08-.08-.47-.04-.55.07-.29.41-.29.88-.09,1.34.02.06.16.05.24.07h0ZM89.17,248.92c.43-.03.76-.38.6-.68-.2-.37-.53-.44-.91-.42-.12,0-.28.04-.34.12-.15.18-.34.42-.32.62,0,.14.33.27.53.36.1.05.24.02.45,0h0ZM93.5,195.93c-.77.55-.37,1.3-.4,1.96-.03.67.01.67.46,1.31.13-1.11.42-2.18-.06-3.27h0ZM177.84,186.17c-.26.83-.24,1.68-.06,2.52.01.07.13.11.2.17.95-1.4.93-1.67-.15-2.69h0ZM97.77,208.33c.68-.72.48-1.36.01-1.97-.07-.09-.47-.07-.61.04-.41.37-.32.91-.16,1.34.09.25.5.4.76.59h0ZM110.91,252.72c.08-.69-.25-1.19-.77-1.59-.07-.06-.22-.09-.29-.06-.1.06-.21.17-.23.28-.11.65-.04,1.25.5,1.69.09.07.27.16.33.13.17-.12.31-.3.46-.45h0ZM91.9,224.91c-.11.05-.24.07-.34.13-.35.18-.64.68-.48.88.14.17.37.29.57.42.1.06.23.05.36.05.4-.02.66-.21.79-.59.15-.41-.4-.92-.91-.88h0ZM98.01,212.33c-.47.08-.87.47-.96.94-.06.28.4.74.72.72.61-.03,1.1-.75.83-1.3-.08-.17-.39-.25-.59-.36h0ZM178.65,172.15c-.19,1.03-.6,2.12-.03,3.36.47-1.19.14-2.25.03-3.36h0ZM79.66,27.14c-.21,1.42-.3,2.52-.25,3.63,0,.1.16.19.24.29.14-.13.38-.25.42-.41.26-1.08.28-2.16-.41-3.51h0ZM94.27,187.37v-3.39c-1.15,1.09-1.14,2.06,0,3.39h0ZM178.04,185.11c.31-1.61.48-2.45.62-3.29.02-.08-.11-.25-.21-.29-.26-.1-.49,0-.54.26-.16.85-.27,1.72.13,3.32h0ZM97.86,190.55c-.72.84-.33,1.94-.68,2.86-.02.07.12.29.17.29.22,0,.55,0,.62-.13.31-.55.56-1.12.78-1.7.22-.57-.04-.93-.9-1.32h0ZM98.74,242.67c.47.76.94,1.07,1.36.88.47-.22.78-.58.89-1.11.06-.28-.03-.5-.28-.63-.88-.48-1.3-.29-1.96.86h0ZM89.56,241.07c-.28.2-.69.35-.81.63-.28.67-.36,1.42-.09,2.12.07.17.35.29.55.37.25.09.47-.04.57-.3.36-.94.42-1.87-.23-2.82h0ZM100.84,247.24c-.88-.62-1.79-.51-2.72-.14-.09.04-.23.17-.22.24.05.21.09.54.24.61.8.42,1.63.44,2.4-.06.16-.11.2-.42.3-.65h0ZM106.2,101.5c-.9.36-1.2,1.06-1.59,1.66-.19.3.06.8.39.84.61.08,1.23.14,1.69-.4.5-.58.18-1.13-.12-1.66-.06-.11-.15-.19-.37-.45h0ZM194.3,144.97c.38-1.63.56-3.2.23-4.77-.02-.07-.16-.14-.25-.18-.26-.1-.51,0-.52.31-.02.48.03.96.08,1.44.08.6.2,1.19.28,1.79.07.47.12.94.17,1.41h0ZM97.22,158.39c.86.09,1.53-.14,2.16-.55.39-.24.35-.99-.12-1.18-.43-.18-.9-.33-1.37-.36-.62-.06-1.09.51-1.03,1.19.03.32.25.63.36.9h0ZM104.62,213.08c-.22-.22-.43-.57-.73-.68-.7-.26-1.42-.2-2.11.12-.25.11-.49.58-.47.91.04.4.28.68.6.84.45.22.94.17,1.41,0,.6-.18,1.09-.47,1.29-1.2h0ZM95.76,242.2c-.09-.23-.14-.49-.28-.65-.34-.4-.83-.55-1.32-.48-.48.07-.91.34-1.07.87-.21.67-.08,1.37.36,1.64.44.28.91.29,1.38.06.6-.3.83-.84.93-1.45h0ZM136.4,19.18c-.08.12-.22.25-.21.33.38,1.97,1.15,3.79,2.08,5.54.05.09.2.15.29.22.1-.16.32-.34.29-.47-.24-1.1-.45-2.21-.82-3.25-.32-.91-.75-1.82-1.63-2.37h0ZM88.5,254.42c.45-.08,1.05-.17,1.64-.29.25-.06.62-.61.51-.88-.12-.33-.31-.79-.57-.87-.57-.18-1.21-.21-1.81-.2-.68,0-1.27.9-1.12,1.63.04.19.26.4.45.49.21.09.48.07.88.11h0ZM90.15,218.06c-.32,1.09-.31,2.17.1,3.23.07.18.35.34.56.4.65.17,1.2-.13,1.7-.51.35-.28.43-1,.2-1.36-.48-.74-1.12-1.3-1.87-1.75-.16-.1-.43-.02-.69-.02h0ZM78.12,251.68c-.38.48-.63,1.03-.79,1.63-.06.23-.08.47-.11.72-.06.46.31,1.02.77,1.08.48.07.97.11,1.45.07.52-.05.86-.42,1.03-.91.17-.49.15-.99-.18-1.38-.55-.66-1.22-1.16-2.17-1.21h0ZM103.92,188.02c-.23,1.14-.34,2.12-.03,3.08.06.19.32.35.52.47.29.17.82-.04.97-.3.12-.21.3-.42.34-.65.18-1.09.33-2.19.48-3.23-.75-.59-.76-.61-.97-.45-.48.38-.94.78-1.31,1.09h0ZM92.49,106.99c2.07-.62,3.03-2.17,3.79-3.84-.14-.49-.48-.62-.84-.6-.91.06-1.67.48-2.23,1.21-.7.93-1.06,1.94-.72,3.22h0ZM103.62,180.65c-.16.33-.43.65-.47,1-.09.75.11,1.49.52,2.13.1.17.44.32.62.29.47-.11.95-.29,1.36-.54.75-.45.94-1.3.63-2.32-.16-.52-.69-.81-1.53-.78-.37,0-.73.14-1.13.21h0ZM97.93,175.6c-.11.21-.32.43-.33.65-.05,2.6-.08,5.21-.09,7.82,0,.36.08.73.13,1.09.04.28.48.57.85.57.48,0,1.12-.42,1.13-.77,0-.49.08-1.01-.04-1.47-.39-1.43-.85-2.84-1.45-4.75-.1-.7.5-1.98-.2-3.14h0ZM101.04,196.58c-1.45.9-1.85,1.4-1.89,2.6-.03.61.04,1.23.13,1.85.09.68,1.04,1.22,1.73,1.02.93-.28,1.61-1.09,1.48-1.89-.15-.98-.36-1.96-.66-2.9-.09-.28-.53-.45-.79-.67h0ZM97.73,226.18c1.01.25,2.13.27,3.25.28.62,0,1.23-.06,1.85-.1.24-.02.68-.5.68-.8,0-.49,0-.98-.05-1.47-.05-.45-.7-.86-1.12-.75-1.54.44-3.08.94-4.71,1-.45.02-.7.68-.42,1.17.12.21.3.4.52.67h0ZM96.79,217.68c-.09.42-.19.89-.27,1.36-.06.36-.08.74-.09,1.11-.02.41.51.96.94,1.02.99.14,1.98.14,2.95-.09.63-.16,1.12-.49,1.4-1.18-.15-.41-.29-.89-.5-1.33-.22-.45-.58-.82-1.07-.97-1.08-.34-2.17-.51-3.36.09h0ZM104.59,171.5c-.71-.19-1.14.3-1.64.62-.57.38-.82.9-.82,1.55,0,.88.1,1.73.5,2.52.3.59.76.94,1.41,1.07,1.25.24,2.03-.43,1.77-1.59-.29-1.31-.66-2.61-1.01-3.91-.03-.1-.14-.18-.21-.27h0ZM166.44,160.29c.19-.06.34-.05.41-.12.42-.5.63-1.1.56-1.73-.14-1.25-.31-2.48.01-3.73.12-.47.09-1.01,0-1.5-.35-1.75-.28-3.5-.37-5.26-.06-1.26-.16-2.51-.29-3.76-.05-.53-.37-.92-.91-1.21-.03.39-.18.79-.08,1.11.46,1.6.47,3.23.48,4.87,0,2.77,0,5.53.03,8.31.01,1,.11,2,.17,3.02h0ZM100.78,204.93c-.16.18-.44.35-.46.55-.1.96.19,2.28.68,3.52.95.46,1.91.36,2.86,0,.48-.18.84-.55.98-1.04.33-1.2.51-2.42.11-3.64-.04-.12-.14-.21-.21-.3-1.32.3-2.64.61-3.95.91h0ZM33.7,62.58c-.42,1.05-.83,1.72-.96,2.43-.71,4.2-1.68,8.37-1.92,12.64-.47,1.38-.08,2.73.22,4.06.03.11.13.21.22.29.09.08.22.18.29.15.22-.07.5-.16.61-.33.43-.67.31-1.45.35-2.19.14-2.76.24-5.52.4-8.27.09-1.38.33-2.75.38-4.12.04-1.14.18-2.24.59-3.31.1-.27-.07-.64-.18-1.35h0ZM105.67,253.43c.45-.43.85-.78.74-1.34-.08-.34-.25-.68-.46-.97-.31-.44-.82-.58-1.32-.57-2.63.06-5.2.67-7.79,1.04-.67.09-1.1.91-.97,1.76.08.53.46.87,1.02.92,3.01.21,5.99.05,8.79-.83h0ZM193.75,127.19c.1-.18.21-.28.22-.39.24-2.25.46-4.49.33-6.75-.06-1.13-.12-2.27-.09-3.39.07-2.78-.18-5.52-.6-8.26-.47-3.11-.95-6.22-.95-9.36,0-2.67-.54-5.24-1.11-7.82-.03-.13-.37-.21-.58-.28-.04,0-.22.19-.21.29.11,1.12.26,2.24.39,3.35.16,1.5.14,2.98.57,4.47.3,1.05.1,2.25.23,3.37.14,1.24.41,2.46.62,3.7.02.12-.02.24-.02.37.22,4.39-.15,8.8.73,13.16.05.24.04.5.05.75.07,1.88.12,3.76.2,5.65.02.36.14.72.22,1.15h0ZM149.33,117.34c.02.15-.01.34.06.39.29.2.59.44.92.55,2.07.61,4.01,1.51,5.4,3.2,1.43,1.73,2.86,3.5,4.01,5.43,1.48,2.46,2.9,4.97,3.79,7.72.19.59.38,1.19.83,1.66.09-.21.28-.45.24-.63-.53-2.05-.85-4.16-1.97-6.02-.44-.75-.69-1.61-1.07-2.4-.73-1.46-1.41-2.93-2.25-4.32-1.53-2.51-3.52-4.55-6.35-5.62-1.22-.47-2.41-.51-3.61.04h0ZM97.64,235.39c.1-.12.21-.19.26-.31,1.58-3.29,1.65-2.77,4.51-2.96.57-1.16.58-1.16.37-1.73-.08-.22-.25-.52-.43-.56-1.58-.45-3.19-.62-4.82-.41-.53.07-.87.48-1.06.97-.09.23-.14.48-.18.73-.09.49-.15.99-.26,1.48-.13.57-1.07.78-1.54.34-.37-.35-.67-.74-.74-1.28-.07-.49-.1-1-.23-1.48-.06-.2-.3-.44-.51-.49-.83-.2-1.69-.44-2.51.25.31.54.67,1.04.91,1.62.25.57.39,1.19.58,1.79.19.59.36,1.2.57,1.79.23.63.82,1.03,1.45.97,1.25-.12,2.52-.1,3.64-.73h0ZM112.26,98.31c.34-.54.31-1.07.17-1.54-.44-1.59-.55-3.22-.64-4.85-.03-.5-.08-1.01-.16-1.5-.41-2.6-.8-5.21-1.27-7.81-.37-2.11-.77-4.19-1.02-6.32-.2-1.75-.47-3.49-.71-5.23-.01-.12-.07-.25-.14-.35-.06-.08-.15-.18-.25-.21-.31-.1-.53,0-.57.3-.33,3.14-.16,6.26.04,9.4.11,1.76.26,3.5.33,5.27.09,2.25.08,4.52.27,6.8.33.39.61.83.99,1.14.91.76,1.49,1.66,1.68,2.85.08.48.32.96.57,1.39.15.26.45.44.7.67h0ZM6.61,115.85c-.17.2-.39.36-.47.57-1.05,2.71-1.74,5.5-2.04,8.4-.2,2-.5,3.98-.72,5.99-.36,3.38-.51,6.77.18,10.12.28,1.38.32,2.74.37,4.13.04.87-.09,1.81.18,2.61.52,1.6.43,3.22.52,4.85.06,1.13.08,2.28.35,3.36.41,1.61.49,3.21.52,4.86.02.87.03,1.77.25,2.6.27.99.34,1.96.35,2.97.01,2.89.11,5.79.88,8.6.37,1.33.56,2.68.83,4.02.03.11.15.2.23.3.11-.2.3-.39.3-.59,0-2.13.15-4.27-.4-6.38-.19-.71-.13-1.5-.23-2.25-.15-1.12-.34-2.23-.52-3.34-.34-2.23-.9-4.45-1-6.69-.18-4.28-1-8.48-1.07-12.76-.02-1.01-.05-1.99,0-2.99.16-3.25.48-6.52-.17-9.77-.2-.99-.14-1.99,0-3,.42-3.25.78-6.49,1.12-9.74.11-1,.23-1.99.5-2.97.26-.94.37-1.94.03-2.92h0ZM101.49,92.06c-.38-1.55-.07-2.92.95-4.19.6-.75.54-1.18-.22-1.95-.58-.58-.93-1.23-.78-2,.33-1.74.24-3.48.35-5.22.11-1.74.14-3.51.09-5.26-.07-2.24-.25-4.49-.4-6.73-.11-1.63-.27-3.24-.35-4.86-.06-1.36-.13-2.73.34-4.06.33.09.65.08.79.24,2.12,2.32,3.97,4.83,4.96,7.87.14.46-.07,1.07-.49,1.28-.11.06-.23.08-.36.12-1.23.39-1.83,1.27-1.86,2.52-.08,2.63-.22,5.26-.04,7.88.26,3.87.46,7.74.52,11.63.02,1.24.29,2.48.43,3.72.07.62.11,1.24.16,1.86.02.38-.31.82-.64.79-.22-.02-.44-.13-.64-.24-.1-.05-.15-.19-.21-.3q-1.09-1.9-2.59-3.09h0ZM187.03,92.7c.2-.79.31-1.03.3-1.27-.03-1.77-.14-3.51-.5-5.24-.46-2.21-.61-4.48-1.15-6.67-.93-3.77-2.24-7.42-3.96-10.94-1.21-2.46-3.01-4.37-5.28-5.72-1.93-1.16-3.91-2.27-5.86-3.41-1.32-.77-2.74-1.28-4.27-1.39-2.49-.17-4.98-.58-7.51-.13-1.11.2-2.26.12-3.39.19-2.12.12-4.2.46-6.31,1.06.16.14.23.26.32.28,1.66.4,3.17-.43,4.6-.69,1.26.27,2.36.65,3.47.71,1.77.09,3.47.55,5.21.78,1.29.16,2.4.66,3.49,1.31,3.15,1.87,5.84,4.33,8.47,6.84,1.27,1.21,2.62,2.4,3.6,3.84,1.76,2.58,3.65,5.11,4.78,8.09.48,1.29,1.05,2.54,1.44,3.88.6,2.05,1.32,4.06,1.74,6.15.13.6.4,1.18.81,2.33h0ZM160.97,86.01c-.86,0-1.74,0-2.62,0-1.14-.02-2.22.24-3.31.56-2.17.64-4.29,1.37-6.34,2.33-.09.04-.23,0-.35-.02-.06-.11-.18-.21-.19-.32-.5-4.02.02-8.01.32-12.01.01-.12.11-.23.14-.35.1-.37.54-.68.83-.49.77.49,1.6.73,2.5.63,2.82-.32,5.5.2,8.09,1.27.23.1.48.15.73.19,2.86.57,5.05,2.25,6.84,4.41,2.58,3.09,4.91,6.38,6.65,10.03,1.08,2.27,1.8,4.7,2.31,7.15.89,4.18,1.53,8.39,1.74,12.66.04.88.16,1.75.27,2.62.03.37.21.76.15,1.11-.51,3.15.37,6.25.33,9.38-.03,2.38.21,4.76.33,7.16-.49,1.51.23,2.98.12,4.48-.11,1.5-.28,3.01-.31,4.51-.07,4.77-.09,9.55-.12,14.33,0,1.75.08,3.51-.39,5.51-.26-1.28-.36-2.32-.35-3.38.03-2.13.01-4.28-.01-6.41-.06-5.52-.2-11.06-.03-16.58.07-2.39,0-4.77-.03-7.16,0-.63-.11-1.26-.22-1.87-.31-1.86-.68-3.71-.95-5.57-.14-.99-.13-2-.17-3-.03-.89.09-1.78-.07-2.64-.51-2.84-.81-5.7-1.27-8.55-.35-2.11-.73-4.21-1.03-6.33-.15-1.02-.52-1.95-1.03-2.8-1.42-2.39-3.11-4.61-5.12-6.49-1.54-1.45-3.38-2.6-5.35-3.48-.68-.3-1.38-.57-2.1-.87h0ZM115.36,171.6c-.16-.27-.38-.47-.38-.66.04-2.65-.48-5.24-.9-7.83-.64-3.83-1.27-7.67-2.09-11.46-.79-3.67-1.73-7.31-3.1-10.82-.88-2.27-2.26-4.19-4.05-5.81-.95-.87-2.03-1.38-3.3-1.69-1.64-.38-3.23-.15-4.84.06-.43.06-1.01-.44-1.05-.89-.14-1.75-.31-3.5-.38-5.26-.06-1.38-.12-2.73-.46-4.09-.27-1.07-.38-2.21-.19-3.34.34-.27.62-.5.91-.72,1.57-1.22,3.37-1.59,5.31-1.45,1,.08,2,.12,2.79.18,1.26.51,2.2,1.13,2.98,1.96,2.52,2.67,4.53,5.67,5.62,9.22.95,3.12,1.88,6.24,1.92,9.55,0,.25,0,.51.06.75.77,3.47.61,6.99.65,10.49.07,4.64.36,9.27.61,13.9.12,2.25.14,4.51.17,6.77,0,.34-.18.7-.29,1.12h0ZM96.79,152.56c-.24-1.27-.54-2.24-.57-3.22-.12-3.39-.16-6.79-.18-10.18-.01-1.46.79-2.31,2.25-2.52.5-.07,1-.11,1.5-.12,1.63-.05,2.89.59,3.86,1.94,1.04,1.43,1.89,2.93,2.51,4.61.92,2.48,1.73,4.98,2.27,7.57.7,3.32,1.54,6.6,1.92,9.99.21,1.98.66,3.94.95,5.94.31,2.12.51,4.23.57,6.36.05,1.76.02,3.52.49,5.25.2.71.12,1.5.19,2.25.11,1.13.22,2.25.33,3.38.15,1.5.32,2.99.46,4.49.09,1.01,0,2.04.21,3.01.47,2.11.5,4.25.51,6.37.03,5.65.39,11.32-.3,16.95-.03.25-.08.52-.03.76.6,2.79-.31,5.49-.46,8.23-.03.62-.2,1.25-.41,1.84-.24.68-.09,1.52-.69,2.09q-1.65-.52-4.4.16c-.13-.33-.4-.67-.38-1,.1-2.38.12-4.79.42-7.15.2-1.6.04-3.28.7-4.83.09-.21.08-.51.02-.73-.65-2.5-.18-5.01-.08-7.51.07-1.88.31-3.75.48-5.63.17-2,.42-3.99.49-6,.15-4.15.24-8.3.29-12.44.02-2.13-.12-4.28-.16-6.41-.1-4.04-.84-7.97-1.99-11.83-.84-2.81-2.26-5.32-3.82-7.75-1.12-1.75-2.72-2.93-4.85-3.27-.61-.09-1.2-.32-2.07-.56h0ZM65.72,88.31c.25-1.15.14-2.41.12-3.66,0-1.01-.08-2.02.04-3.01.34-2.99.57-6,.85-9,.34-3.74.9-7.46,1.37-11.2.06-.5.17-1,.26-1.49.54-2.84,1.29-5.61,2.17-8.36.86-2.64,1.89-5.17,3.84-7.25.5-.53.91-1.25,1.09-1.95.59-2.35-.11-3.45-2.58-3.11-1.03.13-1.94.54-2.73,1.18-.88.71-1.71,1.47-2.37,2.41-.57.83-1.13,1.66-1.76,2.44-2,2.46-3.43,5.26-4.88,8.03-1.57,3-2.73,6.18-3.67,9.45-1.08,3.75-1.5,7.63-2.15,11.46-.08.49-.09,1.02-.03,1.51.27,2.26.02,4.51-.07,6.77-.06,1.63-.1,3.26-.12,4.89-.02,1.51-.03,3.01.02,4.52.04,1.5-.43,2.98-.19,4.49-.48,1.79-.06,3.46.71,5.2.17-.39.35-.69.44-1.02.69-2.75,2.07-5.08,4.17-7,1.21-1.09,2.36-2.25,3.53-3.39.63-.61,1.44-1.03,1.93-1.9h0ZM37.85,49.76c-.09.11-.19.22-.28.32.03-.06.04-.16.09-.19.08-.05.18-.05.27-.06,0-.49-.1-1.02.03-1.48.47-1.69,1.31-3.26,1.59-5.01,1.33-2.43,1.94-5.15,3.1-7.66.68-1.48,1.36-2.97,1.93-4.49,1.76-4.6,4.19-8.82,7.27-12.64.31-.39.66-.77.91-1.2,1.64-2.73,4.28-4.16,7.07-5.36.69-.3,1.41-.53,2.1-.83.94-.41,1.92-.48,2.93-.49,2.84-.05,5.39.81,7.94,1.99,2.48,1.13,3.9,3.08,4.92,5.42.4.9.54,1.91.74,2.89.03.18-.17.4-.31.69-2.5-1.91-4.74-4.14-7.86-5.74-1.15-.31-2.65-.3-4.15-.12-1.79.21-3.43.83-4.68,2.18-1.45,1.57-2.9,3.13-4.22,4.8-1.88,2.36-3.88,4.61-6.11,6.63-1.51,1.37-2.65,2.99-3.57,4.79-.75,1.46-1.48,2.9-2.25,4.34-1.37,2.54-2.83,5.02-4.6,7.31-.85,1.1-1.5,2.31-2.27,3.46-.12.19-.39.28-.59.41h0ZM100.47,12.71c.05.28-.03.42-.23.42.01-.06,0-.15.05-.18.08-.07.18-.11.28-.16.37-.32.69-.76,1.12-.95,3.78-1.68,7.6-3.23,11.79-3.61.74-.07,1.48-.24,2.21-.43,1.11-.26,2.23-.37,3.34-.24,3.56,1.15,6.33,3.53,9.14,5.85,1.98,1.64,3.34,3.74,4.28,6.1.55,1.4.92,2.86,1.33,4.31.09.34-.03.73-.06,1.11.12.02.31.02.36.1.55.97,1.22,1.9,1.59,2.94,1.31,3.66,2.52,7.37,3.73,11.06.24.71.43,1.47.45,2.21.11,3.42,1.07,6.7,1.67,10.02.27,1.49.52,2.98.92,4.43.75,2.75.73,5.46-.22,8.26.46,1.11.92,2.26,1.41,3.42.39.94.62,1.9.63,2.93,0,1.51.1,3.01.12,4.52.01,1.89-.1,3.78,0,5.65.14,2.91-.16,5.78-.34,8.67-.15,2.63-.39,5.27-.52,7.9-.1,2.03-.63,3.95-1.1,6.06.28.94.41,2.05.39,3.18-.05,3.52.36,7.03-.06,10.55-.03.23-.22.44-.34.67h-.68c-.4-.57-.42-1.21-.44-1.83-.05-1.76-.08-3.52-.1-5.28,0-.38.14-.79.04-1.12-.55-1.88-.15-3.73.15-5.52-.23-.78-.52-1.48-.62-2.21-.09-.61,0-1.26.07-1.88.07-.62.25-1.23.33-1.85.15-1.27.03-2.51-.58-3.68-.23-.43-.48-.88-.69-1.34-.39-.87-.25-1.49.64-2.26.41-.35.72-.73.74-1.24.05-1.38.06-2.76.05-4.15,0-.75-.12-1.5-.09-2.25.13-3.02.07-6.02-.41-9.02-.16-.99-.11-2-.15-3.01-.03-.88.05-1.79-.12-2.63-.42-1.98-.4-3.99-.56-5.99-.17-2-.11-4.02-.16-6.03-.05-2.13.05-4.28-.46-6.38-.43-5.94-2.19-11.59-3.62-17.32-.55-2.19-1.25-4.34-1.86-6.52-.1-.35-.06-.75-.09-1.12-.11-.06-.28-.07-.33-.16-.87-1.37-1.72-2.74-2.56-4.13-.65-1.06-1.32-2.12-1.91-3.22-1.01-1.87-2.58-3.03-4.51-3.75-2.11-.79-4.21-1.58-6.34-2.32-1.17-.41-2.37-.87-3.63-.28-2.15-.18-4.21.23-6.27.81-.47.14-.99.18-1.48.19-1.52,0-2.97.23-4.43.69-.56.18-1.23,0-1.85,0h0ZM164.74,125.24c-.58-.11-.75-.61-.97-1.03-.92-1.79-1.89-3.55-3.13-5.13-.15-.19-.29-.41-.44-.61-1.94-2.66-4.47-4.34-7.8-4.72-.37-.04-.73-.13-1.09-.21-1.26.13-2.5.26-3.73.39-.29.03-.72-.41-.77-.7-.19-1.42.14-2.73.74-4.03.36-.15.69-.41,1.03-.42,1.25-.07,2.51-.1,3.76-.07,2.79.07,5.08,1.22,6.81,3.43.46.6.9,1.21,1.38,1.79,1.72,2.04,3.03,4.27,3.35,7.01.09.73.42,1.44.64,2.16.23.73.26,1.48.16,2.23.3.03.42.15.36.36-.07-.04-.17-.06-.2-.11-.05-.1-.06-.22-.07-.33h0ZM141.24,128.24c.12-.05.28-.06.33-.15.5-.77.58-1.56.04-2.36-.49.82-.27,1.72-.29,2.58-.15.16-.35.29-.43.47-.13.26-.01.43.21.4.06,0,.1-.18.11-.3.02-.21.01-.42.02-.65h0ZM95.28,12.1c-.47.04-.72.3-.74.77-1.03.06-1.89.4-2.28,1.45-.46.05-.78.23-.78.76-.35.08-.79.06-1.03.27-.85.73-1.62,1.55-2.45,2.3-1.42,1.28-2.4,2.85-3.1,4.6-.07.18.1.45.16.68.1-.03.23-.02.3-.08,2.22-2.18,4.04-4.71,6.03-7.09.13-.15.05-.47.07-.72.53,0,.76-.28.72-.79,1.07,0,1.71-.69,2.27-1.47.41-.1.71-.3.74-.77.11-.04.22-.06.31-.11.05-.03.06-.13.09-.2-.1.13-.21.26-.31.39h0ZM99.06,9.07c-.19.06-.39.12-.57.18.06.09.12.16.18.25.11-.17.21-.33.32-.51.49-.04.82-.23.73-.79,1.18.12,2.22-.36,3.25-.84,1.71-.82,3.48-1.42,5.34-1.77,2.21-.42,4.44-.78,6.66-1.21.34-.07.39-.31.04-.55-2.74-.39-5.57-.34-8.33.79-.58.23-1.19.4-1.79.59-1.94.61-3.64,1.61-5.08,3.07-.44.08-.8.24-.74.79h0ZM37.91,33.98c-.45.1-.9.2-1.46.33-.01-.42-.13-.81-.02-1.13.38-1.07.8-2.12,1.26-3.15.87-1.96,1.74-3.9,2.67-5.83.87-1.83,2.09-3.45,3.48-4.91,1.39-1.47,2.66-3,3.61-4.8.84-1.58,2.04-2.87,3.45-3.95,1.41-1.06,2.79-2.14,3.85-3.57.07-.1.18-.17.28-.25.74-.56,1.51-.89,2.44-.42.22.11.47.15.88.27.33-.13.79-.31,1.25-.49,3.6-1.52,7.16-.79,10.72.17,2.55,1.37,5.09,2.73,7.63,4.1.12.06.22.14.3.22,1.39,1.63,2.85,3.19,3.99,5,.35.54.38,1.22.21,1.84-.17.58-.5,1.14-.69,1.73-.06.19.12.45.19.69.64-.24.87-.83,1.15-1.36,1.64-3.09,4.25-5.27,7.01-7.26,1.74-1.24,3.51-2.42,5.09-3.88.92-.85,1.98-1.54,2.99-2.3,2.13-1.6,4.4-2.92,7.01-3.54.37-.09.73-.19,1.08-.33,1.88-.78,3.84-1.04,5.87-1.14,2.83-.14,5.51.36,8.15,1.22,2.39.79,4.74,1.69,6.87,3.07,6.52,4.21,11.39,9.81,14.32,17.04.04.11.11.22.14.34,1.37,4.57,3.1,9.03,4.16,13.7.59,2.56,1.09,5.16,1.74,7.72.41,1.61.51,3.22.49,4.86-.01,1,0,2.01.09,3,.03.33.31.65.5,1.01,1.67.12,3.3.07,4.92-.02,1.79-.1,3.48.13,5.17.72,1.84.63,6.38,1.41,8.5,1.55.77.05,1.51.14,2.18.5,1.55.84,3.27,1.3,4.75,2.3.52.34,1.12.58,1.7.81,2.73,1.13,5.02,2.82,6.83,5.17.61.8,1.23,1.6,1.94,2.31,1.63,1.63,2.64,3.66,3.86,5.56.53,1.94,1.64,3.66,2.18,5.6.34,1.21.77,2.4,1.47,3.46.91,1.38,1.34,2.97,2.06,4.43.4.81.58,1.64.57,2.55,0,.75.04,1.53.26,2.25.59,1.94.73,3.95.82,5.95.12,2.9.52,5.76.84,8.63.05.38-.02.79.09,1.13.62,1.83.65,3.7.6,5.59-.02.75.1,1.5.22,2.24.33,1.87.43,3.73.36,5.63-.09,2.26-.09,4.53-.16,6.8-.02.75-.04,1.51-.16,2.25-.27,1.64-.3,3.25.03,4.88.08.36.13.74.14,1.11.19,6.42.39,12.82-.1,19.23-.26,3.5-.51,7.01-.96,10.49-.2,1.62-.18,3.27-.18,4.9,0,3.91-.05,7.8-.58,11.67-.07.5-.12,1.02-.06,1.51.28,2.38-.08,4.76-.12,7.13-.05,2.39-.12,4.79-.25,7.16-.11,2.13-.39,4.26-.49,6.39-.09,2-.07,4.02-.07,6.03,0,3.02.02,6.04-.01,9.06,0,.62-.1,1.27-.32,1.83-.18.44-.62.77-1.19.79-.4.03-1.06-.34-1.19-.75-.15-.48-.35-.96-.37-1.45-.14-3.26-.67-6.5-.63-9.77.02-1.63-.05-3.25.28-4.89.38-1.81.59-8.62.61-10.89.02-1.51.19-3,.25-4.51.11-2.89.12-5.76-.24-8.67-.33-2.6-.29-5.27-.41-7.9-.04-.89.01-1.78-.18-2.63-.49-2.25-.36-4.51-.37-6.77-.03-4.53-.13-9.05-.22-13.58,0-.23-.14-.46-.27-.87-.14.43-.32.71-.33,1-.03,2.39-.09,4.79-.04,7.17.07,3.78.1,7.54-.49,11.29-.2,1.24-.22,2.5-.23,3.76-.01,2.89-.23,5.77-.46,8.66-.28,3.38-.21,6.78-.24,10.18-.01,1.64.09,3.27.12,4.91,0,.25-.07.52,0,.75.62,2.24.11,4.49.07,6.73-.08,4.65-.16,9.3-.24,13.96-.02,1.25-.03,2.51-.07,3.78,0,.37-.09.74-.15,1.11-.1.53-.79,1.05-1.4,1.06-.64,0-1.28-.48-1.35-1.06-.07-.63-.14-1.26-.17-1.88-.22-5.28-.06-10.57.09-15.84.13-5.04-.05-10.06-.47-15.08-.09-1-.04-2,.03-3.01.18-3.13.32-6.28.64-9.41.45-4.39.41-8.79.69-13.18.12-1.88.05-3.77.05-5.65,0-7.42.02-14.84-.08-22.25-.07-5.15-.31-10.31-.21-15.46.02-.76.05-1.53-.13-2.26-.4-1.61-.4-3.24-.48-4.87-.18-3.65-.8-7.22-1.33-10.83-.58-3.86-1.49-7.64-2.34-11.43-.89-3.95-2.39-7.67-4.58-11.09-.61-.96-1.14-1.96-1.77-2.9-.55-.84-1.12-1.71-1.83-2.39-2.24-2.19-4.38-4.5-6.93-6.36-1.43-1.04-3-1.87-4.65-2.46-.93-.34-1.96-.44-2.95-.5-1.25-.07-2.47-.1-3.72-.45-1.57-.43-3.25-.3-4.87-.02-.59.1-1.18.43-1.7.76-.29.18-.63.6-.61.89.18,3.12-.13,6.27.37,9.38.02.11.12.21.24.41,1.19-1.09,2.63-1.34,4.17-1.35,3.19-.03,6.22.64,9.14,1.9.34.15.69.35,1.05.42,3.07.53,5.1,2.63,7.04,4.78,1.34,1.49,2.46,3.18,3.65,4.8.6.8,1.14,1.65,1.68,2.5.4.64.84,1.27,1.12,1.96.83,2.1,1.67,4.2,2.36,6.35.79,2.51,1.27,5.12,1.74,7.7.22,1.23.19,2.51.23,3.77.09,3.4.42,6.77,1.36,10.12-.59,2.33-.4,4.7-.12,7.08.12,1,.14,2,.15,3,.03,1.76.15,3.51.21,5.27.03,1.01.07,2.01,0,3.01-.19,2.77-.18,5.52-.05,8.3.16,3.26.2,6.53.05,9.79-.04.89-.15,1.77-.06,2.64.33,3.29-.08,6.52-.45,9.77-.14,1.25-.17,2.51-.19,3.76-.09,5.53-.15,11.06-.19,16.59-.03,2.38.03,4.78.03,7.16,0,3.9-.03,7.79-.06,11.7,0,.49,0,1.01-.08,1.5-.43,2.62-.38,5.26-.39,7.9,0,1.51-.08,3.01-.19,4.52-.08,1.09-1.06,1.47-1.95,1.01-1.12-.57-2.29-1.01-3.45-1.45-.29-.12-.49-.55-.65-.85-.12-.21-.14-.5-.12-.74.12-1.88.22-3.76.42-5.64.3-2.76.32-5.51-.05-8.27-.15-1.12-.2-2.25-.31-3.38-.16-1.63-.34-3.24-.49-4.88-.09-.87-.2-1.75-.21-2.62-.03-3.14-.05-6.29-.04-9.43,0-2.64.04-5.28.12-7.93.09-2.76.3-5.52.36-8.29.06-3.01.03-6.03.04-9.05,0-2.64.07-5.28.05-7.92,0-1.39-.14-2.76-.2-4.15-.04-.75-.18-1.52-.07-2.25.41-2.88.2-5.78.18-8.67,0-1.76-.29-3.51-.36-5.26-.07-1.76-.2-3.5-.61-5.23-.28-1.21-.28-2.5-.31-3.75-.06-1.88-.24-3.74-.59-5.61-.54-2.84-.71-5.74-1.46-8.55-.15-.59-.06-1.26-.14-1.88-.12-.87-.34-1.72-.45-2.6-.46-3.42-2.53-5.97-4.62-8.48-1.22-1.47-2.94-2.35-4.67-3.11-1.42-.63-2.96-.69-4.45-.33-1.7.42-3.37.98-5.05,1.52-1.22.39-2.27,1.06-3.06,2.1-.38.5-.83.94-1.23,1.37-.03.97-.11,1.84-.08,2.72.07,2.01-.05,4.01-.35,6-.09.61.5,1.24,1.12,1.26.38,0,.75,0,1.13,0,1.01.03,2.01.04,3.02.1,3.86.23,7.05,1.77,9.34,4.93.74,1.02,1.56,1.96,2.34,2.95,1.18,1.47,2.15,3.09,2.68,4.93.49,1.69,1.06,3.34,1.34,5.1.28,1.73.79,3.43,1.18,5.14.17.73.36,1.48.38,2.22.04,2.39.3,4.76.54,7.14.21,2,.21,4.02.08,6.02-.21,3.16.05,6.28.44,9.4.24,1.88.28,3.74-.04,5.62-.11.61-.15,1.25-.13,1.88.07,3.9-.08,7.79-.76,11.64-.24,1.36-.17,2.76-.24,4.15-.04.75.06,1.53-.12,2.25-.67,2.61-.46,5.25-.54,7.88-.13,4.4-.15,8.8-.24,13.2-.01.63-.12,1.25-.17,1.88-.09,1-.22,2-.23,3-.04,4.15-.04,8.3-.04,12.45,0,.87.07,1.76.17,2.62.4,3.51.46,7.02.34,10.54-.03,1.14-.03,2.26.05,3.39.08,1.16-.76,1.35-1.56,1.76-.61.31-.51,1.13-.38,1.72.4,1.99.41,4,.55,6,.04.62.03,1.27-.04,1.88-.08.79-.49,1.41-1.23,1.78-.91.04-1.56-.52-1.57-1.29-.06-3.41-.94-6.72-.95-10.13,0-.53-.34-.91-.93-1-.25-.03-.51-.07-.74-.16-.91-.33-1.49-1-1.48-1.98,0-2-.03-4.01.34-6,.53-2.85.91-5.71,1.43-8.55.26-1.37.4-2.73.49-4.11.06-1.01.22-2,.34-2.99.09-.88.23-1.75.27-2.63.31-7.67.45-15.33-.19-22.98-.03-.38-.06-.76,0-1.13.39-2.51.02-5.03-.03-7.52-.05-2.39-.28-4.78-.32-7.16-.07-4.91-.07-9.81-.08-14.72,0-2.01.05-4.02-.36-6.01-.15-.73-.17-1.51-.17-2.25,0-3.2-.84-6.24-1.86-9.19-1.06-3.09-2.53-6.03-4.44-8.71-.51-.72-1-1.45-1.52-2.16-.97-1.33-2.11-2.49-3.47-3.43-1.09-.76-2.25-1.09-3.56-.87-.37.06-.73.16-1.07.23q-.83,1.43-.6,6.24c.52,1.57,1.85,2.7,2.3,4.31,1.32,1.87,2.07,4.01,2.74,6.16,1.12,3.59,2.3,7.17,3.2,10.84,1.16,4.66,1.59,9.4,1.66,14.18,0,.5-.08,1.03.05,1.5.42,1.47.32,3,.56,4.48.59,3.62.45,7.27.69,10.9.1,1.38.21,2.76.32,4.14.12,1.5.25,3,.39,4.51.15,1.62.35,3.25.46,4.87.21,2.89.24,5.78-.03,8.67-.07.75-.22,1.5-.27,2.24-.35,5.4-.69,10.79-1.04,16.18-.1,1.5-.14,3.01-.42,4.51-.21,1.1-.11,2.25-.19,3.38-.06.62-.16,1.25-.36,1.83-.16.48-.57.82-1.09.92-.52.09-1.33-.35-1.53-.88-.13-.35-.31-.72-.3-1.08.1-2.38.09-4.79.41-7.14.3-2.13.46-4.25.55-6.38.02-.5-.03-1.02,0-1.51.36-4.64.73-9.28,1.09-13.91.05-.63.15-1.26.12-1.88-.07-1.13-.28-2.24-.04-3.38.07-.35.03-.76-.03-1.13-.62-3.21-.65-6.49-.99-9.75-.23-2.12-.24-4.27-.31-6.4-.04-1.51.05-3.01-.46-4.48-.15-.47-.14-.99-.2-1.49-.02-.26-.04-.51-.06-.76-.29-3.5-.72-7-.61-10.53.07-2.66-.4-5.26-.96-7.83-.96-4.43-2.09-8.8-3.64-13.06-.43-1.18-.83-2.38-1.55-3.43-.06-.1-.27-.19-.31-.16-.16.12-.4.28-.42.43-.07,1.12-.11,2.25-.11,3.38,0,2.39.22,4.78-.31,7.14-.24,1.1-.16,2.25.32,3.33.15.34.26.72.3,1.09.25,2.26,1.02,4.41,1.65,6.56.78,2.68,1.3,5.37,1.31,8.16.02,2.64.53,5.24.54,7.89.02,4.03.16,8.05.27,12.07.04,1.39-.04,2.76-.37,4.12-.12.49-.46.86-1.02.93-.49-.21-.86-.6-.88-1.12-.14-3.9-.91-7.73-.89-11.64.02-4.54-.52-9.04-.86-13.54-.03-.36-.25-.7-.41-1.03-.03-.06-.22-.06-.34-.05-.12,0-.27,0-.33.07-.14.2-.3.43-.33.66-.07.63-.11,1.25-.12,1.88-.03,2.14.02,4.29-.05,6.42-.06,2-.26,3.99-.36,6-.16,3.15-.02,6.28.07,9.47.53.55,1.04,1.09,1.68,1.76.07.45.21,1.06.24,1.68.09,1.63.15,3.27.18,4.9.03,1.01,0,2.01.47,2.97.11.21.19.49.16.72-.3,2.68.55,5.24.66,8.08-1.3,2.74-1.57,5.86-1.52,9.03,0,.75-.05,1.51-.17,2.25-.12.66-.59,1.09-1.25,1.27-.78.2-1.62-.05-2.01-.64-.13-.2-.3-.5-.24-.69.74-2.45.63-4.96.75-7.46.13-2.77.11-5.53-.08-8.3-.06-.87-.02-1.76.01-2.63.03-.88.15-1.76.13-2.63-.04-1.51-.16-3-.24-4.44-.67-.54-1.24-1.02-1.85-1.51-.27-1.77-.12-3.52.02-5.27.04-.51.22-1.04.11-1.5-.51-2-.19-4.01-.3-6.01-.09-1.63.07-3.24.29-4.88.31-2.36.41-4.75.05-7.12-.01-.06-.13-.1-.19-.16-.08.09-.23.19-.25.29-.41,3.35-.61,6.73-.72,10.11-.15,4.66-.12,9.31-.24,13.96-.05,2.26-.34,4.51-.4,6.77-.1,4.03-.15,8.05-.11,12.08,0,1.36.36,2.72.54,4.1.14,1.03-.7,1.94-1.8,1.96-.92.02-1.73-.29-2.41-.9-.48-.43-.74-1.01-.82-1.65-.17-1.26-.2-2.53.15-3.74.43-1.49.42-2.99.43-4.49.03-4.41,0-8.81,0-13.21,0-2.64.2-5.27.46-7.91.34-3.49.35-7.03.49-10.54.08-2.01.15-4.02.24-6.53-.1-.48-.31-1.47-.54-2.57.62-1.58.7-3.33.75-5.09.06-2.51.05-5.03.31-7.54.6-5.77.43-11.56.53-17.33.07-3.65.1-7.3.13-10.95,0-.42.12-.91-.41-1.18-.43.84-.3,1.74-.31,2.6-.06,3.77-.13,7.51-.63,11.25-.21,1.62-.15,3.27-.18,4.91-.03,1.38-.17,2.74-.34,4.12-.27,2.37-.32,4.77-.4,7.15-.05,1.76-.12,3.51-.46,5.25-.26,1.35-.26,2.75-.3,4.14-.08,2.37-.06,4.75-.55,7.12-.32,1.58-.22,3.26-.19,4.89.04,1.9-.04,3.77-.51,5.62-.19.72-.22,1.49-.24,2.25-.08,2.64-.1,5.28-.17,7.93-.03,1.25-.32,2.52-.17,3.74.14,1.17-.19,2.25-.22,3.37-.1,3.27-.13,6.54-.3,9.8-.19,3.65.08,7.29,0,10.94-.03,1.38.3,2.75.03,4.14-.16.81-.63,1.33-1.41,1.6-.54.19-1.37-.19-1.55-.72-.07-.24-.21-.47-.21-.72-.08-2.63-.5-5.26-.42-7.91.05-1.5-.11-3.01-.1-4.52,0-1.88-.09-3.79.16-5.65.57-4.38.48-8.78.67-13.17.02-.5-.06-1.02.01-1.51.52-3.63.36-7.29.63-10.92.23-3.14.47-6.27.8-9.39.32-3.13.44-6.27.63-9.41.07-1.13.21-2.24.29-3.37.04-.5,0-1,0-1.49-.01-.51-.12-1.03-.03-1.51.44-2.24.34-4.51.55-6.76.12-1.25.15-2.5.43-3.74.23-.97.25-2,.27-3,.04-2.38.05-4.76.45-7.13.27-1.6.11-3.27.15-4.9.05-1.51.08-3.01.15-4.52.05-1.02.31-2,.79-2.89.36-.68.85-1.25,1.78-1.28.47.32.97.68,1.56,1.09.06-.41.2-.77.14-1.09-.39-1.99-.4-3.99-.38-6,.03-3.27.03-6.55-.1-9.81-.12-2.91,0-5.79.73-8.61.09-.36.13-.74.23-1.27-.11-.85-.23-1.84-.38-2.83-.12-.76-.12-1.49.18-2.22.14-.34.12-.73-.13-1.07-.55-.76-.57-1.64-.57-2.54,0-2.76,0-5.53-.09-8.3-.05-1.88-.11-3.76-.44-5.64-.24-1.35-.22-2.76-.23-4.14-.03-1.88-.09-3.77-.39-5.64-.14-.86-.18-1.75-.21-2.62-.04-1.01-.05-2.02-.03-3.02.06-4.42-.52-8.75-1.43-13.08-.75-3.57-1.75-7.06-2.74-10.57-.17-.6-.38-1.2-.45-1.82-.28-2.3-1.15-4.35-2.42-6.26-.69-1.05-1.31-2.15-1.94-3.23-.38-.65-.7-1.34-1.09-1.98-.61-.99-1.43-1.75-2.52-2.19-.46-.19-.93-.38-1.4-.55-1.88-.68-3.78-1.35-5.93-2.12-1.37-.17-2.99-.03-4.61.27-2.34.45-4.68.9-7.06,1.11-.49.04-1,.15-1.47.31-4.09,1.38-7.83,3.41-11.21,6.11-1.94,2.11-4.24,3.94-5.52,6.62-.44.91-.87,1.78-1.01,2.82-.08.6-.37,1.18-.58,1.77-.1.27-.6.49-.96.41-.36-.08-.71-.22-1.06-.33-1.67,1.31-2.92,3.69-3.99,7.63.34.67.73,1.45,1.11,2.23.47.98.11,2.36-1.23,2.63-.36.08-.72.19-.99.27-.61.45-.85,1.04-1.15,1.59-.55.99-1,2.06-1.71,2.92-1.23,1.52-1.84,3.27-2.26,5.12-.28,1.22-.53,2.45-.77,3.69-.65,3.46-1.25,6.91-1.55,10.43-.26,2.99-.81,5.97-1.12,8.97-.2,2-.19,4.02-.23,6.02,0,.5.1,1.01.24,1.49.17.6.43,1.17.67,1.82,1.62.66,3.25,1.29,4.85,1.97,1.5.64,2.98,1.33,4.53,2.02.49-.07.76-.42.86-.97.78-4.35.97-8.74.96-13.15,0-4.03.1-8.06-.33-12.07-.39-3.63-.56-7.27-.47-10.92.03-1.38-.16-2.76-.21-4.14-.03-.9,1.19-1.86,2.12-1.68.24.05.51.15.67.32.35.35.76.71.95,1.15.91,2.13,1.3,4.36.69,6.63-.53,1.99-.5,3.96-.31,5.98.13,1.37.35,2.74,0,4.12-.09.35-.09.76,0,1.12.53,2.23.07,4.5.34,6.75.12.99.11,2-.09,3-.14.73-.14,1.5-.17,2.25-.12,4.15-.71,8.26-.99,12.4-.02.37-.14.74-.24,1.1-.23.81-.05,1.58.52,2.09,1.6,1.44,2.9,3.12,4.17,4.84.08.11.39.03.58.05.05-.26.14-.51.14-.75.03-8.81.07-17.62.08-26.42,0-2.51-.07-5.03-.06-7.54.01-3.02.07-6.04.12-9.06,0-.38.05-.75.12-1.12.45-2.48.9-4.95,1.37-7.42.07-.36.23-.72.38-1.06.32-.73,1.27-1.25,2.19-1.21.36.02,1.06.55,1.12.9.07.37.18.73.2,1.11.09,1.76.05,3.52-.19,5.27-.09.74-.22,1.51-.48,2.2-.63,1.66-.9,3.4-1.24,5.11-.35,1.75-.46,3.48-.11,5.25.12.6.15,1.25.07,1.86-.26,1.88-.18,3.76-.24,5.64-.16,4.78-.09,9.55-.21,14.33-.1,3.76,0,7.53,0,11.32,0,.3.54.64.82.52.36-.14.7-.29,1.03-.46.6-.3.97-.82,1.06-1.48.12-.85.16-1.74.24-2.79,1.81-2.75,2.13-6.25,3.59-9.21.3-6.02.1-11.94.01-17.85-.02-1.01-.09-2.01-.26-3-.37-2.12-.46-4.25-.46-6.4,0-3.14.06-6.29.11-9.43.01-.57.59-1.22,1.15-1.35.79-.18,1.76.09,2.06.59.19.32.36.65.51.99.53,1.16.47,2.45.76,3.77.56.4,1.23.77,1.74,1.3,1.05,1.07,2.03,2.22,3.02,3.36.33.38.62.8.87,1.23,2.22,3.87,3.62,8.01,4.2,12.43.29,2.24.48,4.49.81,6.73.24,1.62.68,3.2.97,4.8.53,2.96,1.07,5.92,1.37,8.92.25,2.49.48,5.01,1.12,7.45.33,1.27.14,2.49-.56,3.62-.3.48-1.13.83-1.64.66-1.08-.36-2.08-.89-2.95-1.63-.28-.25-.57-.48-.88-.69-.08-.06-.22-.05-.34-.07-.42.54-.36,1.17-.25,1.8.09.53.4.91.89,1.13.22.11.48.15.72.21,2.8.67,5.12,2.01,6.59,4.6.18.33.42.64.69.88.14.12.41.1.67.14.02-.38.1-.76.05-1.12-.53-4.12-.64-8.25-.53-12.42.17-6.41,0-12.82-.25-19.23-.66-3.37-.27-6.77-.3-10.16-.04-3.05-.69-5.97-1.36-8.91-.14-.61-.36-1.21-.49-1.82-.69-3.26-2.27-6.12-4.13-8.82-1.17-1.7-2.79-2.9-4.64-3.76-.34-.16-.7-.31-1.06-.36-2.12-.25-4.26-.62-6.27.53-.3.18-.72.17-1.09.18-.69.03-1.34-1-1.11-1.64.32-.89.95-1.49,1.76-1.88,1.62-.79,3.35-1.13,5.14-.82,1.36.24,2.7.59,4.02.99,2.12.62,3.85,1.9,5.16,3.64,2.21,2.91,4.23,6.01,5.06,9.61.67,2.92,1.86,5.75,1.89,8.81.76,3.34.69,6.73.64,10.12-.06,3.89.21,7.77.54,11.65.19,2.24.22,4.51-.19,6.75-.14.75-.17,1.5.05,2.24.33,1.12.27,2.22.07,3.36-.46,2.74-.4,5.47.06,8.24.38,2.35.31,4.76.42,7.15.02.62-.11,1.27.02,1.88.27,1.22.6,2.42.27,3.69.29,1.24.19,2.5.29,3.74.17,2,.11,4.03.61,5.99.15.61.14,1.25.19,1.88.06.75.04,1.51.16,2.25.83,5.35,1.11,10.74,1.24,16.14.04,1.51.14,3.03.4,4.51.31,1.76.33,3.5.32,5.27-.01,3.64,0,7.29.02,10.93,0,1.52-.07,3.01-.33,4.51-.21,1.23-.19,2.51-.23,3.76-.11,3.02-.19,6.04-.28,9.05,0,.25,0,.51-.03.76-.64,4.25-.31,8.53-.31,12.8,0,4.52,0,9.04-.59,13.68.15.35.32.83.57,1.25.4.67.6,1.39.64,2.14.03.64.08,1.27.03,1.89-.21,3.26-.22,6.53-.02,9.79.06.93-.86,1.7-1.73,1.51-.51-.11-.95-.41-1.12-.9-.2-.59-.27-1.22-.43-1.83-.23-.84-.49-1.68-.69-2.35-.22-.23-.29-.36-.39-.42-1.68-.91-2.18-2.22-1.68-4.09.84-3.16,1.42-6.38,1.52-9.67,1.03-5.87.48-11.79.59-17.69.06-3.27-.03-6.55.26-9.8.25-2.76.33-5.52.52-8.28.33-4.78.15-9.55.19-14.34,0-.37-.02-.75-.09-1.13-.1-.51-.33-.91-.92-1.03-.37-.06-.73-.18-1.08-.32-.61-.29-.95-.8-1.09-1.45-.05-.24-.09-.5-.08-.75.12-3.01.07-6.05.42-9.04.5-4.4.46-8.79.15-13.18-.21-2.88-.48-5.76-.47-8.66,0-1.9-.26-3.75-.96-5.53-.41-1.06-.79-2.13-1.13-3.21-.77-2.43-2.16-4.54-3.65-6.55-.86-1.17-2.05-1.83-3.54-1.9-.38-.02-.78,0-1.12-.1-3.03-1.01-5.97-.17-8.94.31-.73.12-1.46.42-2.14.73-.82.37-1.47.96-1.86,1.8-.36.79-.71,1.61-1.07,2.45-.37.31-.78.61-1.14.95-.62.56-.49,1.05.5,1.76,1.74-.6,3.47-1.37,5.32-1.75.76-.15,1.5-.19,2.25-.05,1.11.21,2.21.44,3.35.67.31.18.62.39.96.56,2.67,1.37,4.39,3.66,6.08,6.04,2.09,2.93,3.15,6.27,4.03,9.69.56,2.19.92,4.43,1.32,6.64.14.74.15,1.51.19,2.25.21,3.76.44,7.52.6,11.28.1,2.51.31,5.02.18,7.54-.09,1.76-.03,3.53.07,5.28.22,3.9.15,7.8.12,11.69,0,1.14.01,2.26.07,3.39.06,1.26.38,2.52.23,3.74-.14,1.16.1,2.25.09,3.37,0,.63-.11,1.25-.15,1.88-.05.76-.12,1.51-.09,2.25.08,2.37.04,4.75-.06,7.13-.16,3.89-.16,7.79-.22,11.7-.03,1.76-.03,3.52-.06,5.28-.02,2-.04,4.01-.45,6-.35,1.73-.37,3.47.36,5.18.44,1.03-.05,1.99-.87,2.69-.67.56-1.42,1.02-2.23,1.59-.64.08-1.38.19-2.09.28-.14.25-.39.46-.37.66.29,2.74.56,5.5.48,8.27-.02.9.15,1.75.47,2.58.55,1.4.88,2.86,1.14,4.36.34,1.98.93,3.92,1.88,5.72.71,1.33,1.22,2.75,1.5,4.25-.04.93-.5,1.65-1.14,2.3-.38.38-.85.49-1.37.52-.12,0-.26,0-.37-.04-1.95-.73-3.96-.57-5.95-.34-.63.06-1.24.09-1.87-.03-.98-.2-2-.26-2.98-.45-1-.19-1.97-.26-2.98-.1-1.12.16-2.26.13-3.39.16-1.26.03-2.48.17-3.69.64-2.02.77-4.18.82-6.31.87-.49,0-1.03.02-1.5-.13-1.96-.61-3.99-.42-5.99-.53-1.88-.1-3.77-.06-5.66-.06-.78,0-1.48-.22-2.14-.63-1.08-.67-1.46-1.71-1-2.91.67-1.76,1.35-3.51,2.07-5.25,1.29-3.16,2.2-6.42,2.84-9.75.07-.37.08-.76.21-1.11.77-2,1.25-4.06,1.31-6.18.49-.42.86-.75,1.25-1.05,1.13-.88,1.16-.93.68-2.52-.51-.34-1.03-.69-1.52-1.03-.09-.26-.24-.5-.25-.73-.01-.76-.07-1.52.07-2.25.7-3.6.66-7.26.76-10.9.06-2.26.09-4.53.13-6.79,0-.5.1-1.01.05-1.51-.51-4.64-.41-9.29-.52-13.94,0-.63.05-1.27-.07-1.88-.55-2.86-.36-5.76-.48-8.65-.16-3.78-.17-7.55-.26-11.32-.02-.76-.12-1.51-.19-2.25-.1-1.13-.22-2.25-.31-3.38-.17-2-.12-4.03-.58-6-.14-.61-.14-1.25-.14-1.88-.03-3.55-.72-6.99-1.36-10.46-.35-1.85-.6-3.71-.91-5.57-.52-3.23-1.33-6.39-1.98-9.59-.33-1.6-.81-3.16-1.41-4.69-.42-1.04-.73-2.13-1.03-3.02.11-.99.32-1.71,1.12-2.03.62-.24,1.65.43,2.04,1.35.34.8.55,1.66.9,2.47,1.11,2.55,1.71,5.22,2.27,7.95.8,3.81,1.36,7.66,2.3,11.44.18.73.25,1.49.29,2.24.07,1.14.17,2.25.47,3.36.22.83.2,1.74.3,2.61.14,1.25.31,2.49.45,3.74.08.75.18,1.5.21,2.25.11,2.26.2,4.53.29,6.79.02.37-.03.77.05,1.13.6,2.48.41,5.01.46,7.51.09,4.15.01,8.3.34,12.43.44,5.52.35,11.06.63,16.58.04.88.05,1.76.17,2.63.14,1.01.23,2-.01,2.99-.08.37-.11.76-.1,1.13.2,4.91-.46,9.79-.36,14.7,0,.49.03,1,.13,1.49.05.17.34.31.6.54,1.04-.23,2.13-.48,3.15-.71.48-.38.68-.84.67-1.36-.08-3.26.15-6.54-.52-9.78-.22-1.1-.17-2.25-.17-3.38.02-4.03-.11-8.05-.32-12.07-.01-.25-.09-.51-.08-.76.33-4.4.1-8.8.15-13.2.03-2.51.2-5.03-.34-7.52-.11-.48-.03-1-.04-1.51-.12-4.41-.24-8.8-.36-13.2,0-.26.03-.51,0-.76-.69-4.36-.54-8.77-.67-13.16-.05-1.76.06-3.52-.36-5.26-.17-.72-.17-1.51-.07-2.25.32-2.5.11-5.01-.04-7.51-.14-2.38-.15-4.77-.2-7.16-.04-1.76-.24-3.51-.64-5.24-.91-3.91-1.66-7.87-3.12-11.63-.32-.81-.64-1.64-1.06-2.41-.3-.54-.73-1.02-1.17-1.46-.45-.45-1.04-.73-1.7-.69-.62.05-1.25.26-1.86.23-.61-.05-1.21-.28-1.79-.49-.47-.17-.59-.89-.24-1.27.25-.27.49-.6.81-.76,1.03-.5,2.13-.75,3.27-.83.92-.06,1.8.22,2.49.73,1.01.74,1.93,1.62,2.84,2.49.36.33.64.78.84,1.23.51,1.15,1.09,2.29,1.38,3.5.95,3.9,2.01,7.79,2.73,11.74.13.74.25,1.5.27,2.25.12,3.27.21,6.54.29,9.81.06,2.76.06,5.52.3,8.28.3,3.64.23,7.3.27,10.95.03,3.26.13,6.52.5,9.77.31,2.74.24,5.52.33,8.3.06,1.76,0,3.51.35,5.26.25,1.22-.36,2.49.08,3.73.02,2.89.06,5.78.04,8.67,0,.74-.2,1.49-.3,2.24-.04.36-.15.77-.05,1.11.68,2.35.32,4.76.41,7.13.14,4.02.2,8.05.26,12.07.01.9.19,1.75.48,2.58.16.47.74.61,1.23.22.29-.22.51-.53.75-.8-.13-.79-.23-1.53-.39-2.25-.48-2.1-.8-4.2-.81-6.35,0-.51,0-1.03-.12-1.51-.66-2.85-.57-5.75-.56-8.64,0-2.52-.09-5.05.16-7.54.24-2.26.37-4.51.5-6.76.2-3.39.37-6.78.54-10.17.04-.89.12-1.78-.03-2.64-.34-2-.28-4.01-.28-6.02,0-3.14-.05-6.28,0-9.43.04-1.88.34-3.75.33-5.64-.02-1.76-.34-3.5-.44-5.26-.09-1.63-.09-3.27-.13-4.9-.06-2.4-.22-4.76-.53-7.14-.32-2.49-.36-5.02-.48-7.53-.02-.62.09-1.25.2-1.87.14-.86.33-1.72.53-2.75-.5-3.09-1.89-6.02-3.49-8.89-.92-1.65-1.85-3.29-2.72-4.96-1.08-2.07-2.63-3.66-4.68-4.78-.99-.54-1.99-1.07-3-1.6-1.33-.68-2.67-1.36-4.01-2.02-.06-.03-.22.09-.29.18-.06.08-.09.22-.09.32.09.69.72.99,1.1,1.47.32.39.61.79.84,1.23.1.19.03.49-.02.73-.11.51-.77.79-1.17.53-.62-.41-1.07-1.02-1.86-1.24-.96-.26-1.59-1.25-2.66-1.33-1.51-.11-3.01-.18-4.55.36-2.16,1.94-3.69,4.38-4.92,7.01-.79,1.69-1.94,3.24-2.19,5.18-.06.46-.49.86-.71,1.31-.27.56-.55,1.13-.73,1.72-1.11,3.61-2.24,7.21-3.27,10.84-.68,2.41-1.06,4.91-1.21,7.42-.15,2.64-.28,5.27-.55,7.9-.25,2.49-.12,5.03-.13,7.54,0,1.89.02,3.78.05,5.66.03,2.13-.06,4.27.36,6.39.22,1.1.18,2.25.18,3.39.02,3.89,0,7.8,0,11.69,0,1.14,0,2.25.7,3.26.45.66.28,1.47.05,2.2-.15.46-.42.91-.67,1.34-.39.67-.56,1.4-.59,2.16-.09,2.13-.06,4.29-.3,6.4-.37,3.26-.17,6.53-.33,9.78-.03.61-.03,1.33.25,1.84.77,1.38.88,2.85,1.09,4.35.1.73.5,1.41.71,2.13.15.5.04,1.01-.27,1.42-.38.48-.82.93-1.19,1.34-.07.47-.19.84-.19,1.22-.01,3.9-.01,7.8,0,11.7,0,.76.03,1.52.14,2.26.11.74.32,1.46.52,2.33-.19.48-.36,1.08-.64,1.64-.37.76-1.19.98-1.89.65-1.38-.66-2.09-1.78-2.28-3.25-.07-.61-.04-1.26.05-1.87.28-2,.45-4,.25-6.02-.1-.99,0-2.01.02-3.01.05-2.01.1-4.02-.31-6.02-.15-.72-.04-1.5-.09-2.25-.06-1.01-.15-2-.24-3-.02-.25-.17-.5-.13-.74.4-2.64-.04-5.28-.06-7.91-.04-4.79.32-9.55.39-14.33.04-2.52.03-5.04.02-7.55s-.04-5.03-.06-7.55c0-.25-.01-.51.03-.75.82-4.37.47-8.78.49-13.17,0-.5,0-1,0-1.51.08-4.41.12-8.8.27-13.2.06-1.76.41-3.49.55-5.25.11-1.38.31-2.73.53-4.11.41-2.61.98-5.18,1.71-7.72,1.04-3.62,1.6-7.36,2.82-10.94.41-1.19.5-2.48.25-3.73-.96-4.86-.58-9.77-.51-14.67.02-1.5.05-2.99.12-4.49.07-1.51.24-3.02.29-4.52.05-1.38.05-2.77.01-4.15-.07-2.64.13-5.25.53-7.88,1.01-6.52,3.19-12.65,5.87-18.62,1.55-3.46,3.76-6.53,5.89-9.65.64-.94,1.33-1.83,2.03-2.72,1.37-1.75,3.09-2.87,5.35-3.2,2.29-.34,2.27-.41,4.83-.05.12-.19.33-.38.36-.6.04-.23-.02-.5-.14-.71-.47-.79-.54-1.65-.52-2.54.03-1.51.02-3.02,0-4.53-.03-1.72-.63-3.18-1.97-4.32-.48-.41-.94-.84-1.39-1.27-1.39-1.33-2.96-2.33-4.83-2.75-2.91.08-5.03,1.66-6.72,3.75-2.38,2.94-5.08,5.58-7.48,8.48-2.01,2.43-3.82,5.03-5.25,7.82-1.04,2.02-2.25,3.92-3.5,5.81-.48.73-1,1.44-1.52,2.16-2.81,3.94-4.63,8.31-5.75,13.02-.44,1.83-.89,3.66-1.19,5.52-.27,1.74-.39,3.49-.68,5.23-.29,1.75-.19,3.5-.27,5.26-.13,2.75.11,5.53-.57,8.25-.12.46-.02,1.01.1,1.48.09.35.3.81.58.93,1.67.68,2.89,1.94,4.19,3.11.08.07.29.1.35.04.18-.13.41-.3.44-.5.35-2.48.79-4.97.77-7.49-.03-2.79.57-5.5,1.1-8.19.71-3.58,1.59-7.12,2.63-10.61.54-1.81.94-3.66,1.41-5.48.32-1.21.54-2.46,1.01-3.62,1.81-4.56,3.77-9.04,6.25-13.29,2.17-3.72,4.7-7.13,7.49-10.38,1.26-1.46,2.77-2.56,4.44-3.45.64-.35,1.42-.59,2.14-.64,1.63-.12,3.26-.18,4.84-.67.22-.07.5,0,.73.07.23.07.46.22.61.4.15.17.21.43.31.65-.25,1.46-1.27,2.12-2.59,2.38-.85.16-1.75.17-2.5.24-2.55.88-4.52,2.45-6.31,4.24-1.79,1.77-3.39,3.72-4.74,5.86-2.83,4.47-5.18,9.2-7.17,14.1-.9,2.22-1.54,4.52-2.13,6.82-.38,1.47-.8,2.91-1.19,4.37-.62,2.3-1.33,4.59-1.83,6.92-.82,3.81-1.46,7.65-1.55,11.56-.03,1.38,0,2.76-.47,4.11-.16.46-.21,1-.15,1.48.21,1.65-.08,3.25-.26,4.89-.24,2.11-.48,4.24-.19,6.37.18,1.36-.18,2.78.72,4.42.17.15.62.58,1.12.96,1.11.82.88,1.68.09,2.53-1.13,1.21-3.04,1.07-3.88-.3-.32-.53-.62-1.12-.72-1.71-.33-1.86-.55-3.72-.83-5.58-.04-.3-.29-.42-.56-.35-.11.03-.27.06-.33.13-.2.31-.41.62-.55.96-.21.54-.61.74-1.27.81-.67-.61-1.35-1.35-2.15-1.92-.82-.6-1.56-1.25-2.2-2.04-.15-.19-.38-.32-.57-.48-.28-.23-1.2-.29-1.43-.03-1.48,1.68-3.31,3.02-4.21,5.21-.86,2.1-2.02,4.06-3.03,6.08-1.82,3.63-2.92,7.47-3.29,11.52-.08.87-.42,1.72-.49,2.59-.2,2.51-.6,4.97-1.49,7.34-.16.45-.14.99-.17,1.48-.04.63-.01,1.26-.09,1.88-.12.99-.3,1.99-.45,2.98.5,1.47.15,3,.36,4.48.29,2,.14,4.02.17,6.02.03,2.13-.21,4.28.34,6.38.06.24.1.51.05.75-.46,2.02-.03,3.99.29,5.99.13.85.01,1.75-.09,2.61-.15,1.25-.12,2.48-.09,3.73.13,5.03.75,10.03.89,15.06.11,3.78.49,7.53.78,11.29.11,1.5.33,2.99.54,4.48.69,4.98,1.26,9.98,1.22,15.03-.03,4.02.05,8.05.02,12.07-.02,1.66.47,3.22.73,4.83.11.69.67,1.32,1,1.95-.13.42-.22.79-.35,1.15-.08.23-.18.47-.32.67-.48.65-1.11,1.02-1.94.89-.69-.1-1.39-.8-1.5-1.51-.23-1.62-.44-3.24-.62-4.86-.34-3.13-.22-6.28-.25-9.42-.04-3.65-.06-7.3-.11-10.95,0-.76-.08-1.51-.15-2.25-.16-1.63-.34-3.25-.51-4.88-.06-.63,0-1.28-.16-1.88-.94-3.18-.44-6.51-1.17-9.71-.25-1.09-.15-2.25-.15-3.39-.03-5.03-.78-10.01-.92-15.04-.03-.88-.17-1.75-.26-2.62-.06-.63-.25-1.27-.16-1.87.28-2.01.04-4.01-.05-6-.09-1.88-.12-3.78-.18-5.66-.07-2.26.03-4.55-.27-6.78-.25-1.88-.3-3.76-.38-5.64-.08-1.64-.03-3.27-.02-4.91,0-2.65.45-5.27.9-7.86.77-4.45,1.46-8.91,2.17-13.39.4-2.48,1.24-4.86,2.28-7.15.78-1.72,1.52-3.46,2.43-5.1,1.57-2.87,3.25-5.68,5.73-7.89.14-.13.16-.41.26-.67-1.18-.84-2.5-1.11-3.92-1-.64.05-1.26.19-1.74.62-1.31,1.18-2.62,2.36-3.85,3.62-.51.52-.85,1.23-1.21,1.88-.92,1.65-1.81,3.31-2.69,4.98-1.84,3.46-3.34,7.03-3.62,11.02-.13,1.88-.53,3.73-.52,5.62,0,.38.03.78-.08,1.13-.76,2.42-.43,5.02-1.19,7.44,0,2.89-.61,5.74-.24,8.66.2,1.61.18,3.28.03,4.9-.32,3.41.04,6.77.43,10.14.11,1,.2,2,.24,3,.07,2.26.09,4.53.65,6.74.06.24.12.5.12.74.02,3.04.83,5.97,1.24,8.95.2,1.49.47,2.98-.08,4.47-.12.33-.13.76-.05,1.11.5,2.34.27,4.78.97,7.09,0,2.75.58,5.47.37,8.27-.19,2.49-.41,5.02-.21,7.53.07.88.09,1.77.31,2.61.67,2.47.7,4.98.67,7.49-.03,2.64-.15,5.28-.22,7.92-.01.5.02,1.01.12,1.51.25,1.32.02,2.5-.94,3.48-.64.67-.88,1.51-1.09,2.23-.05,1.08.71,1.72.92,2.57-.4,1.05-.9,1.47-1.84,1.45-.23,0-.53-.12-.65-.3-.29-.4-.57-.84-.71-1.31-.68-2.16-1.14-4.37-1.12-6.66.03-3.14,0-6.29-.02-9.44,0-1.38-.16-2.73-.4-4.1-.7-4.09-1.2-8.2-1.16-12.36.01-1.01-.02-2-.33-2.98-.38-1.22-.28-2.49-.27-3.75.01-2.28-.14-4.52-.95-6.68-.26-.69-.38-1.45-.5-2.2-.33-1.99-.54-3.99-.98-5.94-.34-1.5-.5-2.97-.61-4.47-.26-3.9-.54-7.78-.81-11.67,0-.13.02-.26-.01-.38-.84-2.81-.67-5.74-1.03-8.6-.48-3.73-.91-7.49-1.14-11.24-.19-3.01-.09-6.03.45-9.03.34-1.85.65-3.72.84-5.6.32-3.28,1.45-6.36,2.17-9.53,1.82-4.86,4.04-9.48,7.65-13.31.96-1.02,1.64-2.22,2.26-3.46.73-1.47,1.47-2.92,2.16-4.41.49-1.03,1.15-1.93,1.99-2.72,1-.96,1.95-1.96,2.94-2.92.81-.78,1.65-1.52,2.76-1.92.73-.27,1.24-.84,1.66-1.62.05-.27.16-.64.18-1.01.19-3.4,1.08-6.69,1.64-10.03.19-1.1.59-2.18.97-3.24.82-2.25,1.28-4.59,1.86-6.91.91-3.66,1.46-7.39,2.43-11.03.32-1.21.33-2.51.73-3.69.42-1.21.58-2.42.68-3.68.06-.74.34-1.47.59-2.17.21-.59.59-1.12.78-1.71.19-.58.25-1.2.36-1.71.55-.31.98-.54,1.4-.77,1.2-2.41,1.2-2.42,1.26-4.25.18-.14.43-.23.51-.41.08-.17.01-.46-.1-.61-.09-.12-.32.06-.36.37-.03.23,0,.47.02.7Z"/>
      <path class="cls-1" d="M98.12,31.81c-1.57,1.5-1.97,3.15-2.84,4.51-.09.14-.46.25-.63.19-1.15-.49-1.78-1.34-1.76-2.63,0-1.19.35-2.25,1.23-3.05.92-.85,1.92-1.61,2.88-2.43,1.87-1.59,6.87-3.11,9.16-3.12,2,0,4,.37,5.98.67.6.1,1.17.46,1.71.78,1.51.9,3.04,1.78,4.49,2.78,1.89,1.29,3.33,3.05,4.67,4.89,1.27,1.75,2.1,3.71,2.61,5.8.67,2.82,1.43,5.6,2.52,8.28.24.59.38,1.2.53,1.8,1.3,4.99,2.21,10.05,2.94,15.15.28,1.98.6,3.96,1.18,5.91.62,2.05.94,4.16.86,6.33-.07,2.01-.01,4.02-.01,6.03,0,1.39.06,2.78-.27,4.14-.08.36-.09.75-.11,1.12-.12,4.9-.73,9.77-.97,14.66-.05,1.14-.24,2.25-.37,3.37-.04.37-.12.74-.16,1.12-.35,3.63-.71,7.25-1.04,10.89-.19,2.12-.4,4.25-.49,6.38-.13,3.39-.21,6.79-.23,10.19-.03,3.78.12,7.54,1.42,11.17.08.23.09.49.14.74.11.62-.53,1.51-1.23,1.7-.49.14-1.42-.25-1.65-.68-.06-.11-.16-.19-.21-.31-.82-2.39-1.53-4.79-1.51-7.35.02-4.28,0-8.55,0-12.83,0-2.38.04-4.77.08-7.16.01-.76,0-1.51.12-2.26.62-4.1.88-8.25,1.36-12.36.53-4.51.78-9.01.91-13.54,0-.24.01-.51.06-.75,1-5.25.52-10.53.34-15.8-.05-1.75-.5-3.48-.82-5.21-.27-1.48-.64-2.95-.94-4.42-.17-.86-.33-1.73-.42-2.61-.46-4.77-1.3-9.44-2.87-13.99-.69-2.01-1.15-4.11-1.77-6.15-.55-1.8-1.12-3.6-1.79-5.36-.83-2.16-2.32-3.87-4.05-5.37-.94-.83-1.98-1.55-3-2.28-1.91-1.33-4.06-1.89-6.36-2.1-3.01-.26-5.72.54-8.21,2.17-.63.42-1.25.85-1.46,1Z"/>
      <path class="cls-1" d="M24.92,205.75c.01-3.4.11-6.79-.51-10.15-.16-.85-.1-1.75-.15-2.62-.05-1.01-.04-2.01-.17-3.01-.61-4.62-.58-9.27-.81-13.91-.03-.5,0-1.01-.05-1.51-.08-.75-.32-1.5-.27-2.24.17-2.88-.3-5.75-.03-8.64.04-.38-.03-.77.06-1.13.52-2.36.38-4.75.49-7.13.1-2.26.17-4.52.49-6.76.21-1.49.21-3,.26-4.51.06-1.64.14-3.27.07-4.9-.1-2.16.39-4.25.68-6.36.75-5.35,1.75-10.64,3.73-15.71.32-.81.56-1.66.8-2.5.59-2.08,1.63-3.94,2.75-5.76.48-.78,1.14-1.34,1.97-1.7,1.04-.46,2.08-.9,3.12-1.33.41-.18.79-.11,1.02.17.31.37.36,1.07.1,1.4-.15.2-.28.42-.45.6-.25.27-.53.54-.82.78-1.71,1.39-2.84,3.22-3.57,5.23-.98,2.71-2.16,5.34-3.16,8.04-.97,2.6-1.62,5.28-2.02,8.02-.6,4.1-1.16,8.21-1.12,12.37.02,2.39-.17,4.76-.44,7.13-.23,1.99-.25,4.01-.34,6.01-.07,1.63-.07,3.26-.4,4.87-.19.99-.21,2-.21,3,.02,3.77-.11,7.53.4,11.28.27,1.99.15,4.01.2,6.02.02.76,0,1.51.06,2.26.37,4.75.8,9.5,1.12,14.26.21,3.13.35,6.27.4,9.41.04,2.77.13,5.51.59,8.25.39,2.35.6,4.72.89,7.08.12.89.06,1.75-.15,2.62-.12.5-.39.95-.81,1.22-.3.18-.69.3-1.04.3-.4,0-.96-.64-1.02-1.01-.02-.12-.08-.24-.08-.36-.04-3.15-.73-6.22-1.08-9.32-.36-3.23-.35-6.51-.5-9.77Z"/>
      <path class="cls-1" d="M59.41,124.88c-1.07,2.87-1.77,5.67-2.24,8.53-.06.36-.2.73-.22,1.1-.2,3.51-.87,6.99-.75,10.51.07,2.01.04,4.01.04,6.01,0,4.78-.07,9.55-.09,14.33,0,1.13-.06,2.28.12,3.39.36,2.24.45,4.49.57,6.75.02.38,0,.76.09,1.13.6,2.6.47,5.24.5,7.88.05,3.13.04,6.27.53,9.41.16.98.1,2,.18,3,.12,1.64.15,3.26.58,4.87.23.83.25,1.73.28,2.6.06,1.76.06,3.52.11,5.28.02.88-.06,1.78.15,2.62.44,1.74.41,3.49.42,5.25,0,.88,0,1.76.04,2.64.03.75.06,1.52.17,2.25.09.61.31,1.2.49,1.85-.29.68-.56,1.38-.88,2.06-.18.37-.91.67-1.3.6-.61-.11-1.32-.67-1.39-1.12-.06-.38-.13-.75-.13-1.12,0-2.89-.17-5.77-.5-8.65-.27-2.36-.24-4.78-.24-7.16,0-2.14-.1-4.27-.45-6.38-.2-1.24-.28-2.5-.37-3.75-.11-1.63-.19-3.25-.45-4.88-.23-1.48-.19-3-.25-4.52-.11-2.63-.09-5.27-.47-7.9-.11-.74-.05-1.51-.09-2.25-.09-1.88-.05-3.79-.32-5.64-.39-2.75-.45-5.51-.44-8.27,0-5.53.06-11.07,0-16.59-.05-4.67.26-9.3.77-13.91.29-2.61.48-5.27,1.38-7.77.25-.7.58-1.39.98-2.02.26-.4.71-.7,1.12-.98.55-.37,1.26-.11,2.05.85Z"/>
      <path class="cls-1" d="M33.41,198.25c-.09-4.3-.16-7.81-.23-11.33-.01-.5.09-1.02,0-1.51-.4-2.48-.43-5-.7-7.48-.34-3.24-.59-6.49-.55-9.75.03-2.5,0-5.02.01-7.53,0-.5-.03-1.02.03-1.51.61-4.87.53-9.77.67-14.66.09-3.02.66-5.99.97-8.98.05-.49.24-.98.46-1.42.16-.32.46-.59.75-.81.5-.4,1.4-.09,1.52.49.07.36.21.75.18,1.11-.31,2.73-.34,5.51-.64,8.25-.3,2.74-.26,5.52-.39,8.28-.05,1.12-.16,2.24-.24,3.37-.06.75-.13,1.5-.15,2.25-.16,5.77-.25,11.56.18,17.31.26,3.49.29,7,.76,10.5.33,2.47.33,5.01.24,7.51-.09,2.52.15,5.02.15,7.53,0,.75.08,1.51.25,2.23.35,1.37.36,2.74.4,4.12.05,1.76.14,3.51.47,5.25.14.74.18,1.49.23,2.24.09,1.51.23,3,.59,4.48.18.72.24,1.49.27,2.24.04,1.04-.42,1.93-1.06,2.74-.35.42-1.33.44-1.68-.03-.29-.39-.62-.81-.73-1.28-.16-.72-.18-1.49-.22-2.23-.15-2.89-.1-5.78-.72-8.63-.08-.36-.09-.75-.11-1.12-.26-4.14-.52-8.27-.73-11.62Z"/>
      <path class="cls-1" d="M67.44,173.19v8.28c0,1.51-.09,3,.38,4.48.23.7.2,1.49.25,2.24.28,4.26.55,8.52.84,12.78.06.88.15,1.76.3,2.61.34,2,.44,3.99.49,6,.03,1.38.09,2.76.28,4.13.78,5.73,1.22,11.48,1.29,17.26.02,1.76-.19,3.52-.37,5.26-.07.61-.37,1.2-.61,1.77-.33.79-1.75.89-2.22.15-.26-.41-.55-.9-.58-1.36-.12-1.87-.51-3.73.3-5.57.24-.55.24-1.24.24-1.85-.03-1.89,0-3.79-.22-5.65-.55-4.61-.75-9.26-1.22-13.88-.18-1.75-.39-3.49-.55-5.24-.1-1.01-.13-2-.21-3.01-.15-1.88-.32-3.75-.47-5.63-.07-.88-.14-1.75-.18-2.63-.12-2.37-.15-4.76-.67-7.11-.21-.96-.14-2-.16-3-.09-4.02-.21-8.03-.23-12.06-.02-2.75.07-5.52.16-8.28.02-.48.26-.96.45-1.41.23-.55.96-.91,1.55-.82.58.08,1.15.68,1.2,1.27.03.38.11.77.06,1.13-.45,3.38-.04,6.76-.1,10.15Z"/>
      <path class="cls-1" d="M75.26,184.71c-.45,5.55-.17,11.17-.15,16.8,0,1.12.14,2.25.21,3.36.03.5.06,1.01.07,1.51.11,2.37-.23,4.72.06,7.11.27,2.35.16,4.75.21,7.13,0,.62,0,1.26-.08,1.87-.07.65-.41,1.15-.97,1.53-.61.42-1.72.09-1.87-.6-.13-.61-.32-1.24-.26-1.84.24-2.38.01-4.77,0-7.14,0-.62,0-1.26-.07-1.88-.17-1.5-.51-2.96-.38-4.49.11-1.36.19-2.73.26-4.1.03-.61.09-1.27-.04-1.87-.44-2.12-.3-4.25-.35-6.38-.08-2.99.03-6,.08-9.02,0-.37.03-.76.14-1.11.19-.6.46-1.19,1.09-1.45.76-.31,1.47-.25,2.06.54Z"/>
      <path class="cls-1" d="M28.45,102.98c.26-.89.94-1.01,1.72-.92.11,0,.29.11.29.17,0,.2,0,.48-.12.59-.65.65-.93.65-1.88.17Z"/>
      <path class="cls-1" d="M22.29,119.46c-.24-.49-.31-.97-.22-1.48.07-.41.45-.73.78-.64.33.09.63.55.52.84-.21.54-.37,1.14-1.07,1.27Z"/>
      <path class="cls-1" d="M74.76,229.25c-.47-.21-.64-.72-.39-1.14.18-.3.69-.57.84-.41.15.15.25.4.28.61.02.21-.07.45-.15.66-.1.27-.31.35-.59.27Z"/>
      <path class="cls-1" d="M65.58,226.05c-.15.11-.28.29-.43.29-.11,0-.24-.19-.37-.31.19-.07.38-.18.58-.21.05,0,.14.15.22.23Z"/>
      <path class="cls-1" d="M35.93,35.95c.07.03.19.07.19.11,0,.11-.03.31-.08.31-.23.04-.27-.13-.11-.41Z"/>
    </g>
  </g>
</svg>