<?xml version="1.0" encoding="UTF-8"?>
<svg id="Layer_2" data-name="Layer 2" xmlns="http://www.w3.org/2000/svg" viewBox="0 0 100.31 411.79">
  <defs>
    <style>
      .cls-1 {
        fill: #593826;
        fill-rule: evenodd;
      }
    </style>
  </defs>
  <g id="_Layer_" data-name="&amp;lt;Layer&amp;gt;">
    <path class="cls-1" d="M87.11,107.46c-.03-.14-.04-.29-.11-.42-.33-.56-.81-.9-1.48-.87-.12,0-.26.11-.36.19-.23.2-.24.49.02.78.43.46.95.78,1.6.61.13-.03.22-.19.33-.29h0ZM62.68,397.49c-.64.62-.45,1.39-.25,2.12.05.18.3.3.46.46.08-.13.2-.25.21-.39.07-.76.07-1.52-.42-2.2h0ZM21.37,102.43c-.11-.11-.23-.31-.31-.3-.73.06-1.34.38-1.81.92-.07.08-.1.31-.05.39.16.19.37.48.57.48.79.05,1.32-.36,1.61-1.08.05-.12,0-.29,0-.41h0ZM82.22,194.47c.16-.22.45-.41.45-.61,0-1.3-.71-2.15-2.05-2.43-.18-.04-.41.24-.62.38.5,1.08,1.13,2.06,2.22,2.66h0ZM29.4,102.26c1.03-1.32,1.17-2.73,1.85-3.84.12-.19-.03-.55-.08-.83-.07-.32-.72-.44-1.19-.22-.67.3-1.37.57-1.98.96-.33.21-.51.64-.75.95.67.94,1.29,1.79,2.16,2.98h0ZM20.07,179.84c.91,1.04,1.61,1.84,2.3,2.61.32-.16.72-.22.82-.42.58-1.21,1.11-2.44,1.63-3.68.04-.08-.05-.27-.13-.35-.1-.09-.27-.2-.39-.18-1.5.25-2.89.75-4.24,2.02h0ZM33.18,177.21c.27-1.04.66-2.14.88-3.31.09-.43.08-.89.1-1.34,0-.14-.01-.29-.06-.43-.05-.14-.15-.26-.31-.52-1.06.42-1.98,1.08-2.82,1.87-.4.37-.51,1.05-.2,1.65.41.8.85,1.58,1.27,2.35.42-.1.7-.16,1.15-.27h0ZM70.67,183.69c-.39.57-.33,1.2-.21,1.78.47,2.25.98,4.49,1.51,6.74.06.28.26.57.47.79.16.15.44.16.76.25-.05-1.26-.15-2.46-.12-3.66.02-1.2.18-2.39.27-3.64-.84-.91-1.23-2.19-2.69-2.25h0ZM69.18,144.12c.17-.55.24-1.18.55-1.65.31-.47.89-.76,1.29-1.17.18-.19.2-.53.34-.93-.79-.83-1.58-1.77-2.49-2.6-.78-.71-1.46-1.59-2.51-1.97-.1.23-.34.5-.28.67.78,2.47,1.67,4.89,2.25,7.4.03.11.49.15.85.25h0ZM73.33,105.99c.26-.08.66-.09.77-.27.5-.89.93-1.82,1.36-2.71-.23-.54-.32-1.03-.6-1.35-1.65-1.85-3.19-2.88-6.46-4.47-.05.44-.27.92-.12,1.24,1.21,2.47,2.67,4.79,4.34,6.98.18.23.47.39.71.57h0ZM74.07,143.39c.68,2.91,3.3,5.08,6.01,7.17.37.29,1.33.31,1.73-.03.56-.47,1.08-.99,1.56-1.54.33-.38.19-1.4-.21-1.66-.76-.51-1.51-1.11-2.34-1.46-2.28-.97-4.37-2.21-6.17-3.96-.2-.19-.54-.22-.82-.33-.34-.12-.34.42.25,1.82h0ZM53.11,123.23c.08-2.95.14-5.67-.19-8.39-.13-1.06-.26-2.12-.12-3.17.16-1.2.37-2.38.42-3.59.05-1.19-.1-2.4-.09-3.6,0-1.21.17-2.41.15-3.63-.05-4.41-.15-8.8-.24-13.2,0-.46,0-.92-.03-1.37-.02-.3-.09-.61-.18-.9-.11-.39-.37-.55-.66-.4-.24.14-.58.36-.59.58-.09,1.19-.02,2.4-.14,3.59-.12,1.22-.14,2.39.37,3.59.17.38.17.91.04,1.3-.49,1.47-.43,2.97-.36,4.5.13,3.19.34,6.37.39,9.56.06,3.03.63,6.04.38,9.07-.07.91-.12,1.76-.41,2.65-.43,1.26.25,2.29,1.25,3.4h0ZM26.3,142.72c1.61-1.77,3.15-3.36,4.19-5.37,1.33-2.59,3.04-4.78,5.9-5.84.58-.21.76-.89.62-1.55-.08-.35-.32-.57-.59-.51-1.37.32-2.3,1.37-3.41,2.1-1.74,1.13-7.54,4.52-9.65,5.51-.95.45-1.87,1.01-2.87,1.28-3.4.91-6.21,2.94-9.28,4.45-.17.08-.21.42-.31.64.89.75,1.96.91,2.99,1.2.94.27,1.84.13,2.65-.29,1.06-.55,2.08-1.19,2.73-2.25.24-.39.49-.76.77-1.1.58-.71,1.27-1.26,2.45-1.42.69.19,1.56.42,2.43.65.25.47.46.89.69,1.27.19.36.41.7.71,1.23h0ZM51.93,126.37c.15,7.45-.07,14.13.45,20.84.13,1.66,0,3.34-.03,5.02-.01.91-.06,1.81-.09,2.72-.23,4.87.06,9.75.14,14.62.03,1.69-.05,3.34-.27,5-.2,1.5-.35,3.03-.24,4.54.38,5.36-.39,10.63-.42,15.96,0,.45-.06.92-.18,1.35-.43,1.48-.37,3-.36,4.53.03,2.89.27,5.81.03,8.67-.31,3.64-.22,7.29-.35,10.93-.02.46.03.92-.04,1.38-.56,3.31-.37,6.67-.36,10.01,0,2.44.13,4.89-.08,7.3-.17,1.98-.26,44.61-.19,46.6.11,3.05.2,6.09-.34,9.1-.18,1.03-.15,2.12-.16,3.18-.04,3.2.15,6.42-.11,9.59-.26,3.2-.11,6.38-.03,9.58.04,1.82.18,3.69-.07,5.47-.64,4.54-.5,9.09-.31,13.66.06,1.52.12,3.06.03,4.57-.19,3.18-.5,31.37-.71,34.56-.15,2.27-.18,4.55-.31,6.83-.04.91-.1,1.83-.32,2.69-.35,1.36-.34,2.69.11,4.05.14.42.28.91.23,1.35-.49,3.9.04,7.92-.83,11.79-.16.73-.16,1.51-.18,2.26-.03,1.09.6,1.7,2.05,2.03,1.06-.97,2.15-1.97,3.27-2.97.26-2.14.04-4.28-.07-6.4-.11-2.13-.35-4.28-.25-6.39.09-1.86-.13-3.64-.69-5.41-.18-.58-.42-1.16-.14-2.12.18-.2.51-.7.94-1.09.59-.53,1.33-.68,2.11-.37.69.28,1.47.44,1.88,1.18-.36,4.08-.61,8.16-.17,12.28.22,1.98.27,3.96.4,5.95.1,1.52.18,3.02.3,4.55.06.71,1.17,1.15,1.8.73.73-.46,1.06-1.17.86-1.89-.38-1.34-.78-2.65-1.2-4.07.77-1.83.84-3.78.43-5.77-.12-.6-.18-1.24-.1-1.83.35-2.59-.11-5.17-.31-7.76-.12-1.51-.36-3-.2-4.54.21-1.96-.03-3.97-.54-5.9-.4-1.52-.47-28.06-.55-29.58-.11-2.29-.27-4.57-.33-6.86-.05-2.29-.03-4.57.02-6.85.04-1.82.23-3.63.22-5.46-.02-2,.16-3.99.9-5.8.87-2.14,1.07-4.4,1.17-6.65.25-5.78-.48-11.58-.67-17.36,0-.3-.1-.6-.14-.91-.17-1.52-.4-3.04-.49-4.55-.31-5.04-.55-50.74-.84-55.75-.36-6.25-.42-12.5-.42-18.75,0-3.18.27-6.37-.35-9.56-.09-.43-.04-.92,0-1.36.54-4.55.22-9.12,0-13.7-.07-1.51-.1-3.07-.43-4.54-.56-2.6-.58-5.16-.46-7.75.06-1.05.16-2.14-.02-3.18-.76-4.26-.59-8.53-.86-12.79-.15-2.43-.05-4.87.15-7.3.22-2.72.23-5.47-.51-8.19-.27-1.02-.31-2.12-.33-3.18-.02-1.67,0-3.34.13-5.02.21-2.72.13-5.47-.03-8.21-.09-1.54-.48-2.98-1.53-4.99h0ZM52.3,80.21c1.73-1.34,2.71-3.93,5.18-3.96,2.68-.05,4.58,1.39,5.34,4.23.35,1.31,1.23,2.5,2.42,3.32.23.17.61.26.85.18.21-.06.45-.42.45-.64-.05-1.07-.15-2.13-.3-3.2-.28-2.01.42-3.56,2.06-4.67.25-.17.52-.3.85-.49,1.24-.26,2.56-.62,3.91-.79,1.36-.18,2.72-.06,4.02.63.82.42,1.68.81,2.56,1.07,3.4.98,6.77,2.05,10.09,3.31.14.06.33.09.45.05.26-.1.59-.21.69-.42.1-.22.07-.67-.09-.81-1.34-1.3-2.67-2.61-4.11-3.79-.82-.67-1.79-1.28-2.79-1.63-1.47-.52-2.78-1.31-4.14-2.05-2.29-1.27-4.54-2.68-7.32-3.47-1.4.5-3.02.88-4.72.62-1.82-.28-3.64-.57-5.44-.93-.92-.18-1.69-.75-2.29-1.5-.52-.65-.74-1.39-.49-2.14.51-1.57,1.21-3.06,2-4.34.53-.32.89-.61,1.3-.79,1.21-.48,2.66.29,2.8,1.52.14,1.21.19,2.42.27,3.66.48.21.91.54,1.3.54,1.66-.05,3.32-.19,5-.29,1.45.46,2.91.93,4.42,1.42.55-.18,1.09-.44,1.68-.57.74-.16,1.49-.24,2.24-.31,2.49-.27,3.68-.62,6.84-2.08-.1-.26-.12-.62-.31-.79-2.1-1.99-4.72-2.88-7.15-3.57-3.17-2.12-6.13-4.11-9.09-6.09-.12-.07-.29-.06-.55-.12-.79.18-1.67.37-2.2.49-2-.28-3.67-.51-5.61-.79-.93-.62-2.08-1.42-3.24-2.17-.84-.55-1.73-.63-2.6-.19-1.07.54-2.08,1.22-3.22,1.58-1.43.44-2.94.64-4.43.9-.92.16-1.82-.06-2.66-.54-1.12-.64-1.98-1.49-2.34-2.76-.16-.58-.34-1.16-.46-1.6.23-1.24.62-2.19,1.5-2.86.4-.31,1.37-.28,1.67.15.45.63.84,1.29,1.27,1.93.36.53.83.91,1.6,1,2.14-.79,4.46-1.37,6.4-2.9,1.14-.89,2.62-.69,3.89.09.78.47,1.44,1.16,2.14,1.77.99.89,2.13,1.26,3.4,1.1.89-.11,1.78-.49,2.67-.46,1.03.03,2.07.41,3.12.55.19.02.44-.29.61-.49.06-.07,0-.33-.09-.43-.29-.35-.57-.74-.94-1.01-1-.73-2.12-1.31-3.04-2.12-.83-.73-1.73-1.28-2.72-1.73-.7-.31-1.39-.67-2.01-1.13-.82-.58-1.12-1.46-1.03-2.43.07-.79.41-1.48,1.02-1.94.59-.44,1.3-.74,1.92-1.15.54-.35.71-.92.71-1.56-.13-.29-.21-.59-.38-.83-.64-.88-1.27-1.77-1.99-2.58-1.77-1.98-3.24-4.16-4.8-6.28-1.73-2.35-2.52-4.93-2.72-7.73-.08-1.06-.06-2.13-.16-3.2-.03-.4-.26-.78-.4-1.16-.77.27-.91.91-1,1.48-.33,2.11-.91,4.13-1.67,6.1-.69,1.76-1.82,3.08-3.52,3.9-1.21.59-2.42,1.18-3.63,1.78-.29.14-.33.99-.06,1.2.36.29.7.61,1.09.84.53.31,1.13.52,1.66.82,2.66,1.59,2.39,4.84.61,6.18-.6.44-1.21.89-1.84,1.28-.88.55-1.79,1.05-2.7,1.59-.48,1.16-.93,2.27-1.41,3.37-.44,1.02-1.22,1.71-2.27,2.05-.71.24-1.45.41-2.19.53-.91.14-1.75.42-2.54.88-.64.39-1.31.73-2.02.99-2.04.74-3.63,2.07-5.06,3.62-.1.11-.15.26-.23.38-.22.27.1,1.1.46,1.15,2.11.27,4.24.38,6.23,1.33,1.26.6,2.15,2.03,1.9,3.38-.16.89-.44,1.75-.67,2.62-.33,1.24-1.03,2.12-2.24,2.62-.98.39-2.02.73-2.73,1.53-1.54,1.75-3.7,2.48-5.46,3.39-1.62.08-3.05-.05-4.33.3-1.74.47-3.42,1.06-5.26,1.16-.61.03-1.07.5-1.26,1.21,1.18.48,2.4-.13,3.56.24,1.32.43,2.61.93,4.26,1.52,1.71-1.03,3.82-.4,5.93.12,1.15-.42,2.37-.68,3.4-1.26,1.99-1.12,4.1-1.8,6.27-2.25.15-.17.29-.26.34-.4.16-.41.31-.83.41-1.27.33-1.43,1.28-2.34,2.54-2.96,1.27-.62,2.57-.79,3.94-.05.67.38,1.38.67,1.9.91,1.4-.3,2.22-1.4,3.63-1.32,1.49.39,2.78,1.12,3.12,2.87-.28,1.22-.86,2.27-1.55,3.26-.81,1.16-2.21,1.55-3.63,1-.57-.22-1.13-.5-1.66-.79-.54-.3-1.03-.72-1.6-.93-.39-.15-.86-.03-1.38-.03-1.16,2.37-2.69,4.34-5.44,4.98-.89-.11-1.8-.22-2.61-.32-1.91.79-3.71,1.52-5.61,2.29-.24.87-.36,1.79-.75,2.56-.48.92-1.2,1.69-1.8,2.51.53.63,1.14.54,1.65.3,2.99-1.48,6.35-1.91,9.43-3.09.55-.21,1.18-.35,1.78-.33,1.53.03,3.03-.12,4.54-.22,1.63-.11,3.2,1.07,3.66,2.89.42,1.66,1.42,2.66,2.98,3.45h0ZM88.83,197.98c-.57.67-.38,1.46-.18,2.17.37,1.26.1,2.41-.24,3.57-.41,1.37-2.25,1.78-3.35.79-.23-.21-.46-.42-.67-.65-1.89-2.06-3.77-4.13-5.68-6.16-.19-.2-.54-.25-.83-.37-.71.45-.54,1.31-.83,1.96-.3.68-.52,1.41-.79,2.12-.35.89-1.93,1.36-2.73.73-.73-.55-1.51-1.15-2.02-1.88-1.76-2.55-3.33-5.15-3.93-8.29-.83-4.36-2.03-8.67-3.11-13.1-1.57-2-3.18-4.06-4.82-6.13-.08-.08-.29-.07-.57-.16-.08.59-.26,1.17-.21,1.75.29,4.11.2,8.22.64,12.34.34,3.18.37,6.39.41,9.6.08,6.7.32,13.41.68,20.11.09,1.67.21,3.35-.17,5-.03.15-.11.31-.07.45.6,2.45-.04,4.84-.09,7.26-.08,3.35.06,6.71.44,10.05.24,2.12.57,44.91.41,47.04.67,2.72.69,5.47.82,8.2.24,5.49.34,10.98.52,16.45.08,2.28.2,4.57.33,6.85.11,1.83.32,3.66.38,5.48.17,5.49.61,10.97.6,16.46,0,3.49.24,32,.98,35.49.58,2.69.65,5.46.85,8.2.1,1.38.06,2.74.52,4.08.1.29.16.59.22.9.52,2.7.06,5.5,1.13,8.15.24,2.59.5,5.17.73,7.75.04.45,0,.91-.03,1.38-.06.96-.46,1.76-1.31,2.23-1.7.94-3.43,1.83-5.33,2.84-1.32.11-2.83.23-4.34.36-1.95,1.11-4.12.72-6.24.68-1.82-.02-3.66,0-5.49-.02-1.13,0-2.08-.54-2.83-1.39-1.16-1.29-2.1-2.7-2.09-4.63.3-.58.64-1.25.97-1.91.2-.41.47-.8.55-1.24.35-1.93.88-3.85.9-5.81.02-3.19.37-6.35.36-9.54-.02-3.63-.22-7.32.45-10.91.17-.89.13-1.82.15-2.73.02-.76-.12-26.57,0-27.31.58-3.3.32-6.67.55-10,.37-5.62.39-11.24.32-16.89-.02-1.21-.06-2.43-.09-3.65-.02-.91-.2-1.87-.02-2.73.6-2.85.29-5.76.25-8.66-.02-2.59.07-5.16.27-7.73.42-5.6.87-51.87.64-57.53-.12-3.05-.14-6.1.29-9.11.13-.9.05-1.82.06-2.74.05-3.34.01-6.69.4-10.01.24-2.1.07-4.26.03-6.39-.04-2.28-.19-4.57.23-6.83.14-.74.11-1.51.11-2.27.03-4.11-.07-8.23.56-12.29.12-.75.11-1.53.07-2.28-.26-3.98.16-7.91.31-11.86.06-1.37.11-2.73.11-4.1,0-2.73-.21-5.48.12-8.2.09-.73-.05-1.54-.25-2.26-.11-.37-.58-.7-.95-.91-.18-.1-.72.02-.79.18-.8,1.85-2.2,3.16-3.74,4.37-1.72,1.35-2.53,3.19-2.95,5.36-.74,3.85-1.65,7.67-2.6,11.46-.69,2.78-1.69,5.46-3.18,7.95-.83.7-1.66.41-2.43-.23-.35-.3-.63-.68-.92-1.02-.67-1.74-.6-3.66-1.64-5.36-.34.29-.77.5-.96.84-.65,1.18-1.27,2.39-1.8,3.64-.93,2.17-2.63,3.59-4.56,4.79-.53.32-1.15.2-1.75-.07-.9-.41-1.54-1.04-1.89-1.95-.28-.71-.35-1.5-.7-2.17-.17-.32-.74-.55-1.15-.61-.43-.05-.92.07-1.31.26-1.08.53-2.12,1.12-3.16,1.73-1.09.63-2.28.82-3.52.59-1.8-.35-3.59-.8-5.37-1.28-.42-.12-.81-.44-1.18-.72-1.19-.9-1.35-2.62-.36-3.62.86-.86,1.87-1.5,3.1-1.7.6-.09,1.21-.13,1.82-.17.6-.05,1.21-.07,1.68-.08,1.21-.59,2.25-1.18,3.36-1.63.97-.38,2.02-.6,3.07-.91,2.47-2.42,5.34-4.28,8.49-5.77,1.88-.9,3.73-1.94,5.1-3.59.28-.34.64-.67,1.04-.84,2.55-1.09,4.28-3.22,6.41-4.86.95-.72,1.85-1.49,2.53-2.51.32-.47.82-.9,1.34-1.14,1.41-.65,2.46-1.65,3.4-2.85.65-.81,1.48-1.47,2.24-2.2,1.07-1.03,2.14-2.08,3.06-2.98.49-2.96.58-5.98.42-8.36-.25-3.65-.85-7.28-.84-10.96,0-1.99-.04-3.95.54-5.86.36-1.16.42-2.37.19-3.61-.18-.97-1.19-1.54-2.06-1.02-.64.38-1.33.79-1.73,1.38-1.1,1.61-2.19,3.27-2.27,5.31-.15,3.86-1.58,7.36-2.55,10.99-.52,1.94-1.63,3.51-3.11,4.73-.94.14-1.59-.27-2.03-.94-.34-.51-.5-1.13-.82-1.65-.14-.23-.46-.36-.82-.62-.36.46-.8.87-1.08,1.37-1.32,2.43-3.36,4.18-5.41,5.92-.64.54-1.87.49-2.53-.18-.64-.67-1.17-1.43-1.75-2.14-.42-.52-1.1-.64-1.62-.25-1.43,1.08-2.82,2.24-4.76,2.92-1.71-.6-3.57-1.32-5.46-1.88-1.91-.58-3.86-1.01-5.93-1.54-.47.2-1.01.46-1.57.65-.6.18-1.19.11-1.71-.33-.66-.56-.83-1.27-.65-2.06.18-.78.65-1.34,1.34-1.71.13-.06.27-.15.42-.16,1.42-.15,2.54-.87,3.57-1.76,1.26-1.09,2.73-1.83,4.31-2.38,1.42-.49,2.89-.91,4.25-1.51,1.41-.64,2.98-.52,4.5-.98.3-.22.74-.42,1.01-.76,1.76-2.13,3.96-3.59,6.61-4.45,2.31-.76,4.24-2.23,6.31-3.43.62-.37,1.07-1.04,1.56-1.6,1.39-1.56,2.79-3.1,4.32-4.55,1.52-1.46,3.09-2.79,4.81-3.51.88-1.19,1.54-2.19,2.3-3.1,1.61-1.93,2.28-4.16,2.09-6.72-.13-1.68-.08-3.35-.22-5.03-.3-3.64-.15-7.32-1.29-10.89-.23-.72-.2-1.51-.31-2.26-.12-.77-1.14-1.27-1.75-.85-1.36.91-2.75,1.8-4.06,2.8-1.84,1.4-2.92,3.42-3.73,5.52-.74,1.94-1.98,3.74-1.89,5.99-.9,2.91-2.18,5.59-4.45,7.69-1.05.98-2.85.54-3.34-.91-.3-.88-.42-1.79-.73-2.66-.14-.41-.53-.73-.76-1.04-.94-.1-1.45.53-2.09.86-1.36.71-2.81,1.02-4.39.9-1.67-.13-3.35-.1-5.02-.17-.61-.03-1.24-.02-1.83-.17-.92-.25-1.67-.78-1.97-1.77-.28-.95-.16-1.82.46-2.56,1.09-1.31,2.62-1.98,4.13-2.63,1.79-.79,3.62-1.45,5.42-2.2,1.39-.57,2.77-1.19,3.89-2.22,1.35-1.22,3.01-1.95,4.58-2.83.66-.37,1.38-.6,2.04-.95,2.52-1.33,2.74-1.58,4.25-4.55.59-.19,1.3-.61,2.01-.6,1.85.04,3.17-.85,4.4-1.99.43-.4.79-.89,1.16-1.35.07-.09.04-.27.08-.56-.64-.53-1.38-1.09-2.05-1.71-.67-.61-1.29-1.27-1.85-1.85-2.56.39-4.85,1.12-7.12,1.91-1.7.59-3.45,1.09-5.2,1.53-1.37.34-2.7.03-3.98-.69-1.31-.75-1.84-2.22-1.12-3.52.51-.92,1.1-1.79,1.73-2.62.71-.95,1.53-1.82,2.25-2.77.12-.16-.08-.55-.15-.97-1-.17-2.06-.29-3.09-.53-.89-.2-1.75-.61-2.65-.79-.74-.14-1.51-.09-2.27-.09-1.06,0-2.21.31-3.17,0-1.87-.61-3.61-.3-5.4-.04-.94.14-1.8-.19-2.56-.81-.94-.76-1.2-2.38-.57-3.32.6-.9,1.39-1.57,2.3-2.12,2.31-1.39,4.65-2.77,7.21-3.65,3-1.03,5.92-2.2,8.71-3.43h3.91c1.69-.73,3.12-2.01,4.36-3.53.14-.17,0-.57-.02-.9-.41-.46-1-.63-1.61-.71-1.36-.18-2.73-.33-4.1-.53-.93-.14-1.74-.58-2.49-1.16-.94-.71-1.42-2.42-.79-3.31,2.37-3.32,5.25-6.1,8.83-8.1.52-.3,1.12-.42,1.71-.54,1.82-.37,3.4-1.18,4.85-2.35.42-1.11.85-2.22,1.31-3.4.75-.67,1.49-1.41,2.33-2.04.71-.53,1.52-.91,2.31-1.37-.2-.32-.29-.62-.49-.76-1.15-.79-2.36-1.49-3.48-2.32-1.32-.96-1.58-2.78-.7-4.1.85-1.27,1.89-2.3,3.37-2.85,1.13-.42,2.29-.78,3.37-1.29,1.25-.59,2.15-1.52,2.7-2.86,1.26-3.09,1.68-6.4,2.18-9.68.21-1.37.59-2.65,1.07-3.91.45-1.16,1.19-2.11,2.56-2.25,1.67-.17,2.96.54,3.94,1.93.74,1.04,1.21,2.23,1.25,3.44.08,2.29.76,4.52.8,6.81.03,1.51.28,3.04.43,4.5,1.61,2.56,3.07,5.11,4.75,7.51,1.69,2.42,3.58,4.68,5.38,7,.07.3.21.6.21.89-.02.92-.09,1.81-.15,2.81-.69.74-1.4,1.51-2.1,2.25.11.28.13.67.33.81,1.93,1.29,3.89,2.54,5.82,3.83,1.32.89,2.34,2.03,2.77,3.68.15,1.45-1.1,2.79-.37,4.37,3.42,2.96,4.28,3.46,8.69,5.06.43.16.87.33,1.27.55,2.42,1.38,4.85,2.74,7.24,4.18.79.47,1.6.97,2.01,1.97.15,1.18-.23,2.3-.62,3.4-.79.86-1.72.3-2.69.24-1.37.34-2.8.8-4.28,1.06-1.47.25-2.9.63-4.61.82.41.66.56,1.16.88,1.36,1.08.6,2.22,1.07,3.51,1.69,1.74,1.73,3.59,3.6,5.92,4.92.71.4,1.19,1.03,1.48,1.75.23.55.31,1.17.32,1.76,0,.44-.21.88-.34,1.31-.61,1.97-1.26,2.84-4.05,2.63-3.99-.3-7.83-1.39-11.59-2.81-1.44-.54-2.85-1.21-4.37-1.46-1.2-.19-2.43-.29-3.64-.3-1.46-.03-2.52,1.51-2.03,2.83.59,1.59,1.4,3.1,1.75,4.78.19.91.25,1.8.01,2.71-.21.82-1.14,1.62-1.98,1.53-.91-.1-1.79-.33-2.7-.52-.53.29-.44.74-.1,1.1.53.56,1.09,1.11,1.72,1.54,1.92,1.31,3.91,2.52,5.68,4.04.35.3.75.58,1.17.77,3.38,1.51,6.49,3.6,10.01,4.8.44.15.89.28,1.28.51,1.78,1.07,3.67,1.57,5.7,1.56.42,0,.86.29,1.27.48.47.22.85,1.18.61,1.58-.92,1.54-1.5,3.28-2.78,4.59-1.04,1.07-1.48,2.62-2.66,3.6-.53.43-1.59.58-2.12.17-.98-.77-1.95-1.53-2.87-2.37-1.61-1.45-3.16-2.96-4.68-4.38-.6.06-1.03.27-1.08.76-.12,1.2-.15,2.41-.24,3.8-.36.47-.79,1.08-1.27,1.64-.77.9-1.56,1.02-2.37.4-.74-.57-1.54-1.09-2.14-1.78-1.21-1.41-2.42-2.85-3.42-4.4-2.01-3.13-3.88-6.35-5.8-9.53-.39-.66-.73-1.35-.87-1.6-.4-1.49.5-2.12.59-3.01-.06-.3-.03-.67-.2-.88-1.64-2.08-2.87-3.17-5.07-4.59-.69.5-.87,1.35-.73,2.02.42,2.15-.32,4.21-.09,6.36.23,2.12.23,4.26.23,6.39,0,2.12.04,4.26-.34,6.37-.36,1.97-.02,3.93.78,5.84.71,1.7,1.5,3.39,2.01,5.15.75,2.6,2.21,4.67,4.03,6.66,2.3,2.53,4.73,4.91,7.26,7.21.46.42.9.88,1.43,1.16,2.48,1.35,4.56,3.21,6.7,5.29,2.26.58,4.47,1.68,6.53,3.07.8.54,1.61.88,2.55.97.95.09,1.75.61,2.49,1.17.34.26.54.72.78,1.07-.68,1.23-1.33,2.4-2.04,3.68-.44.25-.97.52-1.48.83-1.03.66-1.9,1.44-2.49,2.53-.35.66-.78,1.28-1.26,1.86-.58.68-1.26,1.27-2.36,1.41-.27-.19-.72-.39-.97-.72-.93-1.27-1.97-2.37-3.42-3.09-1.09-.54-1.91-1.57-2.93-1.97-1.22.2-1.53,1.11-2.07,1.79-.67.84-2.14.92-2.82.12-1.99-2.38-3.99-4.75-5.01-7.75-1.14-3.35-2.13-6.74-3.5-10.03-.47-1.12-.79-2.39-.79-3.58,0-2.02-1.07-3.47-2.27-4.92-.13-.16-.5-.15-.76-.15-.08,0-.17.24-.22.38-.05.14-.08.3-.06.44.43,4.87.52,9.75.57,14.62,0,.77.04,1.53.13,2.29.56,4.56.59,9.13.84,13.69.18,3.39.91,6.65,3.13,9.46.48.6.9,1.27,1.29,1.94.88,1.5,2.03,2.74,3.52,3.65.97.58,1.62,1.4,2.19,2.35.64,1.07,1.51,1.94,2.53,2.7,2.73,2.04,5.44,4.13,8.12,6.24,2.08,1.64,4.15,3.26,6.53,4.43,2.22,2.04,5.2,2.7,7.61,4.39.49.33,1.15.46,1.74.57,1.52.29,2.96.79,4.31,1.6.44.27.88,1.09.75,1.59-.27,1.01-.58,2.01-.9,3.01-.16.51-1,.99-1.45.84-1.31-.42-2.64-.84-3.93-1.33-1.45-.55-2.86-1.17-4.3-1.72-.26-.11-.59-.02-.88-.02Z"/>
  </g>
</svg>