<?xml version="1.0" encoding="UTF-8"?>
<svg id="Layer_2" data-name="Layer 2" xmlns="http://www.w3.org/2000/svg" viewBox="0 0 317.59 353.13">
  <defs>
    <style>
      .cls-1 {
        fill: #753d22;
        fill-rule: evenodd;
      }
    </style>
  </defs>
  <g id="Layer_2-2" data-name="Layer 2">
    <path class="cls-1" d="M57.06,183.37l.44.17-.43.18v-.35h0ZM131.51,29.99c.85-.41,1.3-.81,1.73-.78,1.13.07,1.87,1.01,1.45,1.8-.22.43-1.06,1.05-1.18.96-.66-.47-1.19-1.13-2-1.98h0ZM270.21,283.84q1.26,1.66,2.94.05c-1.02-.13-1.85-.24-2.68-.35-.22-2.89-2.41-4.66-3.8-6.89-.23-.36-.1-1.37.17-1.51.57-.31,1.42-.47,2.01-.27.67.23,1.28.85,1.73,1.44,1,1.34,1.87,2.78,3.06,4.59.85-1.12,1.73-1.9,2.07-2.88.27-.76.15-1.94-.29-2.62-.71-1.09-1.88-1.87-2.73-2.89-.27-.34-.32-1.39-.13-1.49.56-.32,1.47-.64,1.93-.39,1.15.62,2.12,1.57,3.19,2.36.61.45,1.2.98,1.88,1.21.45.14,1.2-.05,1.53-.37.31-.3.47-1.07.32-1.47-.35-.87-1.06-1.59-1.4-2.46-.16-.39.04-1.16.36-1.45.33-.3,1.13-.45,1.5-.25.81.44,1.52,1.11,2.2,1.75.69.63,1.31,1.35,2.14,2.24,1.42-.46,2.81-.9,4.69-1.5-1.68-1.85-3.04-3.32-4.29-4.7.44-1.78,1.56-2.2,2.63-1.46,1.71,1.18,3.17,2.7,4.74,4.08,1.61,1.42,3.08,1.01,4.66-.34-.1-2.41-2.04-3.54-3.36-5.06-.73-.83-1.77-1.55-1.18-2.91.43-.98,2.16-.79,3.43.52,1.19,1.23,2.23,2.6,3.34,3.91.61.72,1.18,1.51,1.85,2.16.79.75,1.74.65,2.61.09.76-.49.79-1.72-.05-2.5-1.96-1.81-3.99-3.54-5.98-5.31-.55-.5-1.07-1.05-1.49-1.66-.16-.24-.11-.79.06-1.07.17-.28.63-.59.91-.54.91.15,1.92.28,2.67.75,1.58,1,3.01,2.21,4.6,3.4.95-3.79.69-4.65-1.89-5.39-1.64-.47-3.38-.55-5.04-.95-.64-.16-1.18-.73-1.69-1.07.89-2.62,3.6-1.33,5.07-3.07-.3-1.08-.54-2.37-1.01-3.55-.63-1.59-1.9-2.34-3.63-2.17-1.85.18-3.7.39-5.49.59-.98-2.69,2.16-2.52,2.43-4.62-.38-.69-1.02-1.63-1.46-2.66-1.12-2.64-2.88-3.88-5.85-3.17-.76.18-1.65-.2-2.39-.3-.19-1.74.89-2.01,1.72-2.28,1.44-.48,2.96-.7,4.42-1.13,1.81-.53,2.3-2.31.94-3.5-1.28-1.12-2.79-1.98-4.04-3.13-.41-.38-.6-1.54-.32-1.94.32-.46,1.5-.82,1.93-.58,2.13,1.19,4.14,2.61,6.23,3.97,1.81-.19,3.13-1.1,4.05-3.15-.71-.89-1.6-1.84-2.25-2.92-.32-.54-.5-1.51-.23-1.98.6-1.04,1.68-.76,2.47-.17.91.67,1.66,1.55,2.5,2.31q1.71,1.58,5.42.54c-.58-1.57-1.22-3.09-1.66-4.66-.11-.38.29-1.15.66-1.35.4-.21,1.28-.16,1.55.14,1.1,1.25,2.05,2.63,3.05,3.97,1.71-1.73,2.18-3.04,1.64-4.79-1.03-3.33-4.02-3.66-6.64-4.1-.84-1.33-.16-2.09.7-2.48,1.35-.61,2.81-.97,4.12-1.39.5-1.49.18-2.59-1.33-2.56-1.29.02-2.57.58-3.86.85-.87.19-1.76.27-3.29.49.65-1.74,1.08-2.88,1.5-3.99-.33-.04-.77-.23-.97-.09-1.22.84-2.38,1.74-3.51,2.6-2.34-1.7-.05-3.29-.39-4.81-.6-1.26-2.29-1.96-3.32-1.2-1.38,1.01-2.6,2.23-3.97,3.24-.34.25-1.19.25-1.49,0-.31-.28-.48-1.09-.3-1.48.64-1.37,1.47-2.65,2.33-4.15-.66-.87-1.32-1.71-2.23-2.89-1.09,1.21-1.96,2.13-2.77,3.1-.72.86-1.27,2-2.7,1.56-.92-.29-.86-1.52.18-3.51.79-1.52,1.64-3.01,2.46-4.5.15-.11.41-.22.41-.31,0-.46-.06-.93-.11-1.38-.22.26-.47.5-.65.78-.09.14-.08.34-.11.52-.66.68-1.26,1.45-2.01,2.02-.38.3-1.12.47-1.54.31-.85-.35-.72-1.15-.47-1.91.54-1.62,1.27-3.21,1.51-4.87.2-1.37-.79-2.03-2.66-1.64-.47,2-.93,4.19-1.54,6.34-.11.37-.84.83-1.23.78-.41-.04-1.01-.61-1.07-1.02-.26-1.86-.35-3.74-.5-5.5-1.98-1.05-2.79.19-3.15,1.45-.47,1.62-.41,3.41-.85,5.05-.19.69-1.08,1.19-1.85,1.98-1.9-3.09.86-6.95-2.07-9.16-3.26.1-3.19,5.25-6.9,4.05-.65-3.31,3.66-5.21,2.09-8.58-2.36-.2-3.4,1.9-5.17,2.44-.43.13-1.2-.04-1.45-.36-.26-.33-.31-1.16-.07-1.5.78-1.07,1.68-2.06,2.62-3,.85-.86,1.57-1.79,1.07-3-.61-1.46-1.97-1.69-3.38-1.53-1.51.16-3.01.49-4.52.57-.41.03-1.08-.51-1.2-.9-.11-.41.18-1.13.53-1.43.56-.48,1.28-.81,1.99-1.05.9-.29,1.86-.41,2.79-.64.9-.23,1.8-.5,2.65-.74,0-2.05-1.92-1.85-2.69-2.8-.4-.5-.48-1.27-.71-1.91.67-.23,1.38-.71,2.01-.62,1.3.17,2.56.71,3.87.98.69.14,1.42.02,2.01.02.81-2.28-1.19-2.88-1.72-4.19-.18-.43-.1-1.22.19-1.5.32-.32,1.18-.53,1.53-.32,1.29.77,2.4,1.82,3.69,2.59.75.44,1.74.85,2.54.73,1.26-.19,2.25-1.74,2.08-3.05-.17-1.29-.71-2.55-.96-3.84-.21-1.04-.25-2.12-.45-4.02,1.43.88,2.36,1.18,2.85,1.82,1.05,1.34,1.77,2.94,2.83,4.27.33.42,1.46.63,1.96.39.53-.26,1.13-1.24,1.02-1.78-.34-1.66-1.05-3.24-1.46-4.9-.1-.37.39-.99.76-1.32.19-.16.89-.08,1.05.12.93,1.16,1.87,2.34,2.6,3.63.65,1.14.95,2.48,1.58,3.63.2.36,1.11.68,1.48.52.6-.25,1.44-.94,1.44-1.43-.04-1.69-.52-3.37-.57-5.07-.02-.76.57-1.54.88-2.31,2.55.82,2.62,3.06,3.7,4.54.64.87,1.47,1.19,2.48.89,1.09-.34,1.47-1.26,1.27-2.25-.41-2.04-1.04-4.06-1.43-6.1-.09-.45.35-1.43.55-1.44.65,0,1.67.13,1.91.56,1.01,1.83,1.77,3.78,2.66,5.68,1.27,2.72,2.08,2.84,5.27.78-.23-2.49-2.64-3.65-3.52-5.72-.18-.42-.11-1.22.19-1.5.3-.3,1.13-.43,1.51-.23,1.12.59,2.14,1.38,3.17,2.09,1.53-1.38,1.74-3.05.91-4.32-.63-.97-2.08-1.53-3.28-1.97-1.53-.57-3.49.26-4.72-1.29-.26-2.53,2.8-1.47,3.29-3.2-1.01-1.71-2.68-2-4.43-1.93-1.33.06-2.64.46-3.96.44-.56,0-1.1-.7-2.09-1.38,1.89-1.14,3.31-1.99,4.71-2.84-.64-2.04-1.1-2.52-2.36-2.16-1.83.53-3.59,1.29-5.43,1.75-.56.14-1.29-.36-1.94-.56.31-.63.45-1.52.96-1.87,1.71-1.17,3.54-2.16,5.29-3.18q-1.23-4.79-5.47-4.68c-.75.02-1.49,0-2.1,0-.99-1.07-.89-2.07.18-2.44,1.76-.61,3.66-.86,5.49-1.29.54-.12,1.1-.27,1.57-.54.28-.16.54-.59.54-.9s-.26-.85-.52-.91c-1.77-.48-3.57-.86-5.3-1.25-.24-2.09,1.13-2.68,2.41-2.69,2.07-.02,4.13.47,6.21.61.66.04,1.48-.24,2-.65.28-.22.31-1.25.05-1.56-.57-.65-1.47-1.55-2.12-1.47-1.67.22-3.27.93-4.91,1.43-.71.21-1.44.46-2.18.56-.31.05-.92-.2-.97-.41-.12-.48-.17-1.22.11-1.49.82-.77,1.78-1.4,2.74-2.01.94-.61,1.95-1.13,2.89-1.67-.62-2.07-1.29-2.7-2.41-2.36-2.06.63-3.77,1.79-5.21,3.38-1.14,1.27-2.27,2.57-3.51,3.74-.31.29-1.17.37-1.51.15-.34-.22-.61-1.09-.44-1.43.78-1.51,1.73-2.94,2.61-4.38q-2.32-3.03-5.41-1.89c-.52.2-1.05.44-1.59.48-.31.03-.77-.22-.95-.49-.17-.27-.26-.85-.1-1.04.97-1.15,2.16-2.14,2.99-3.37.46-.67.65-1.81.43-2.58-.33-1.15-1.36-1.92-2.67-1.6-1.29.31-2.49.96-3.78,1.27-.59.14-1.29-.19-1.86-.29-.13-1.79.93-2.32,1.9-2.87,1.49-.84,3.05-1.56,4.49-2.47.35-.22.53-1.06.43-1.53-.11-.45-.65-1.08-1.06-1.13-1.69-.23-3.42-.21-5.11-.45-.4-.05-.95-.71-.99-1.13-.04-.42.4-1.18.77-1.28,1.63-.46,3.29-.88,4.97-1.06,1.67-.17,3.37-.04,5.06-.04,1.38-4.26-2.98-5.21-3.83-7.96.36-1.55,1.53-1.74,2.58-1.05,1.73,1.14,3.25,2.63,4.93,3.86.49.36,1.25.34,2.55.67-1.44-3.13-2.59-5.6-3.75-8.15,3.4-2.25,4.14,2.21,6.81,2.01.39-2.54-1.8-4-2.29-6.14-1.45-.15-2.69-.27-3.82-.39-.79-2.11,1.04-2.91,1.54-4.26.54-1.45.32-2.62-1.78-3.21-1.21,1.37-2.54,2.87-3.74,4.22-2.33.17-1.77-1.85-2.68-2.85-.44.19-1.19.24-1.39.6-.63,1.12-1.06,2.37-1.68,3.84-1.19-.45-2.34-.89-3.47-1.32-3.27,2.1.83,6.15-2.57,8.44-.58-.56-1.2-1.18-1.84-1.77-1.57-1.43-3.23-1.04-3.88.95-.23.71-.19,1.51-.41,2.22-.2.62-1.64.76-1.95.17-.43-.83-.73-1.71-1.08-2.59-.39-.95-1.05-1.85-2.09-1.36-.73.34-1.42,1.28-1.62,2.08-.32,1.27-.14,2.65-.36,3.96-.07.42-.74.72-1.27,1.2-.93-.76-1.77-1.45-2.92-2.4-.32.47-.81.88-.91,1.37-.26,1.3-.25,2.66-.54,3.94-.1.43-.71.96-1.16,1.04-.43.07-1.1-.28-1.39-.65-.67-.86-1.18-1.85-1.67-2.65-.7.04-1.1,0-1.44.1-1.31.41-2.05,2.86-3.79,1.44-1.29-1.06.25-2.46.29-3.72.02-.72-.06-1.46-.09-2.12-1.78-.67-3.33-1.26-4.87-1.87-.14-.06-.21-.3-.3-.45.19-2.69,3.46-1.17,4.21-3.06.13-2.03-3.24-1.53-2.61-4.19.51-.13,1.17-.45,1.84-.48,5.45-.19,6.12-1.19,3.98-5.94-.23-.5-.43-1.04-.47-1.58-.02-.31.25-.74.51-.95.26-.21.78-.4,1.01-.27.82.45,1.57,1.03,2.34,1.57.61.43,1.21.88,1.69,1.23,1.71-.23,2.14-1.21,1.78-2.48-.35-1.24-.95-2.4-1.36-3.42.83-1.31,1.77-1.34,2.58-.69,1.18.92,2.2,2.03,3.49,3.24.86-.58,1.59-1.07,2.52-1.71-.85-1.36-1.64-2.42-2.18-3.59-.27-.59-.39-1.61-.06-2.04.74-.94,1.74-.43,2.46.21,1.29,1.12,2.5,2.33,3.96,3.71.54-.26,1.28-.45,1.8-.88.86-.71.91-1.75.14-2.5-.91-.88-2.02-1.56-3.41-2.59,1.55-1.09,2.71-1.91,3.83-2.69-.62-3.47-.81-3.67-3.22-3.52-1.46.1-2.96.93-4.35-.16-.81-1.7,1.11-2.19,1.67-3.59-.6-.62-1.2-1.24-1.71-1.77-.65.26-1.07.31-1.31.54-1.24,1.16-2.42,2.38-3.68,3.51-.17.15-.77.04-1.02-.15-.26-.2-.56-.73-.46-.95.76-1.72,1.63-3.4,2.42-5.11.56-1.22.1-1.75-1.95-2.36-.24.27-.58.5-.71.82-.49,1.29.29,3.56-1.93,3.52-1.64-.03-1.38-2.01-1.8-3.2-.07-.18-.08-.46-.2-.52-.45-.25-1.01-.67-1.4-.56-.41.11-.99.78-.96,1.16.13,1.32.51,2.6.77,3.91.17.87.29,1.76.42,2.48-1.83,1.48-2.63-.47-3.86-.56-2.78,1.81-2.46,4.81-2.55,8.03-1.05-.33-1.84-.36-2.3-.75-.82-.71-1.44-1.64-2.09-2.4-2.15.79-1.23,2.36-1.43,3.54-.26,1.54-.96,2.72-1.7,2.5-1.37-.41-1.51-1.62-1.57-2.75-.05-1.13.22-2.29.07-3.4-.1-.62-.78-1.14-1.46-2.06-1.42,1.35-2.59,2.46-4.22,3.99-.36-.63-.82-1.1-.85-1.57-.06-1.32.21-2.66.05-3.96-.07-.58-.84-1.07-1.74-2.12-1.15,1.42-2.04,2.61-3.04,3.69-.41.45-1.76-.29-1.69-.91.1-.93.36-1.84.47-2.77.11-1.08.13-2.18.23-3.88-1.86.8-3.14,1.46-4.49,1.9-.41.13-1.2-.15-1.46-.49-.25-.35-.27-1.19,0-1.53.78-1.07,1.8-1.96,2.61-3.01.42-.55.6-1.28.86-1.86-1.8-1.58-3.05.21-4.47.2-.53,0-1.46-.2-1.5-.44-.11-.65-.07-1.53.31-2.01.78-.98,1.82-1.78,2.8-2.69-1.37-1-2.37-.67-3.22.28-.87.98-1.58,2.13-2.56,2.98-.35.29-1.29-.11-2.22-.24.39-1.8.85-3.24.94-4.71.04-.54-.69-1.42-1.26-1.61-.55-.19-1.64.06-1.96.51-.97,1.32-1.68,2.84-2.56,4.42-2.9-1.61-.55-4.09-1.92-6.33-.4-.19-1.36-.66-2.2-1.06-.55.45-1,.62-1.09.91-.4,1.27-.61,2.6-1.07,3.84-.16.42-.88.88-1.3.85-.45-.03-1.16-.61-1.2-1-.19-1.9-.14-3.81-.26-5.71-.09-1.45-.53-1.61-3.14-1.09.15,1.44.41,2.91.41,4.39,0,.64-.37,1.61-.84,1.81-.43.19-1.45-.28-1.81-.76-.78-1.04-1.23-2.34-1.98-3.4-.22-.32-1.09-.43-1.54-.27-.4.15-.89.79-.88,1.21.02.94.48,1.86.48,2.78,0,.67-.28,1.62-.77,1.92-1.03.66-1.71-.23-2.25-1.04-.51-.77-.93-1.61-1.5-2.35-.18-.22-.78-.37-1.04-.24-.45.22-.8.67-1.15,1.07-.1.11-.08.37-.07.56.03,1.27.88,3.07-.66,3.58-2.01.66-2.21-1.48-2.85-2.77-.24-.49-.52-.97-.96-1.78-1.63,1.35.36,3.53-1.65,4.77-.4-.25-1.02-.55-1.55-.96-.54-.42-.98-.96-1.56-1.54-2.37,3.37.53,5.57,1.14,7.98-.12.54-.11.96-.3,1.26q-2.89,4.57.48,8.82,1.07,1.36.74,3.72c-.9-.42-1.72-.76-2.5-1.19-.79-.43-1.56-.93-2.17-1.31-1.42.75-1.42,1.75-.95,2.59.73,1.31,1.67,2.51,2.56,3.73.77,1.07,1.68,2.06,2.35,3.19.18.3-.17,1.04-.45,1.45-.14.2-.77.27-1.02.13-.82-.46-1.57-1.04-2.34-1.59-.77-.54-1.71-1.37-2.42-.37-.4.57-.15,1.76.08,2.59.35,1.26.99,2.43,1.41,3.68.08.24-.23.76-.49.93-.27.17-.88.21-1.06.03-.93-.93-1.78-1.93-2.64-2.93-.84-.97-1.36-2.39-3.06-2.14-1.63.82-.8,2.34-1.01,3.56-.17.94-.29,2.04-1.47,2.16-1.16.13-1.61-.77-1.8-1.77-.27-1.49-.24-3.08-1.96-4.38-.58.47-1.34.93-1.88,1.56-.48.56-.6,1.46-1.13,1.95-.46.42-1.27.63-1.9.58-.29-.02-.73-.9-.72-1.38.03-.94.41-1.85.51-2.78.1-.92.03-1.85.03-3.38-1.46.96-2.49,1.64-3.54,2.31-.78.49-1.64,1.32-2.53.52-1.14-1.03-.3-2.07.36-3,.75-1.08,1.55-2.11,2.25-3.05-.62-1.22-1.28-1.04-1.96-.6-1.26.84-2.5,1.7-4.02,2.73-.67-.78-1.3-1.41-1.78-2.12-.71-1.06-1.32-2.18-1.93-3.22-1.61.7-2.05,1.62-1.56,2.89.55,1.41,1.27,2.76,1.74,4.2.12.34-.39.99-.76,1.34-.19.18-.84.17-1.04-.02-.97-.89-1.81-1.94-2.81-2.79-.33-.28-1.36-.32-1.47-.13-.33.57-.67,1.47-.44,1.96.4.8,1.17,1.49,1.94,2.02,1.22.84,2.57,1.51,3.65,2.13.13.52.28.75.21.88q-2.13,4.57,2.55,6.24c.5.18.94.51,1.29.69.35,1.45-.49,2.06-1.44,2.13-1.69.11-3.43-.25-5.11-.06-.76.08-1.48.95-2.07,1.6-.12.14.45,1.27.62,1.26,1.3-.13,2.58-.56,3.88-.62.63-.03,1.6.38,1.83.86.23.47-.08,1.59-.52,1.92-1.2.9-2.61,1.51-3.84,2.19q-.26,3.09,1.77,5.17c.96-1.16,1.88-2.31,2.86-3.41.66-.73,1.49-1.28,2.46-.52.89.71.74,1.69.35,2.6-.3.69-.74,1.33-1.1,2-.35.66-.71,1.32-1.04,1.94,3.22,2.51,4.93,2.42,6.66-.19.85-1.29.75-4.04,3.15-3.12,1.65.64.62,2.7.51,4.17-.04.54.13,1.09.26,2.02.99-.28,1.95-.34,2.63-.8,1.42-.95,2.66-2.16,4.06-3.14.34-.24,1.37-.17,1.5.07.3.56.54,1.46.28,1.96-.52.99-1.56,1.72-2.04,2.72-.36.75-.44,1.86-.16,2.63.34.98,1.38,1.2,2.41.92.91-.25,1.82-.61,2.74-.65.41-.02,1.05.53,1.22.96.18.44.11,1.26-.2,1.55-.66.62-1.52,1.07-2.34,1.5-1.3.68-3.13.4-3.95,2.52.88.7,1.86,1.49,2.85,2.29.59.47,1.29.86,1.75,1.44.31.38.51,1.14.33,1.54-.17.38-.97.8-1.37.69-1.47-.36-2.87-1.19-4.34-1.32-.86-.08-1.82.81-2.61,1.21.32,3.03,3.98,3.58,3.73,6.62-3.17,1.64-4.31-2.57-7.28-2.46.05.74-.12,1.53.16,2.08.8,1.51,1.84,2.89,2.65,4.4.18.34-.07,1.2-.41,1.46-.32.26-1.19.3-1.5.04-.88-.71-1.62-1.59-2.37-2.45-.73-.83-1.22-1.96-2.93-2-.05.65-.28,1.35-.11,1.96.45,1.64,1.14,3.23,1.57,4.87.1.38-.36,1.15-.76,1.35-.37.19-1.23,0-1.46-.3-.66-.91-1.14-1.96-1.65-2.99-.69-1.36-1.27-2.78-2.05-4.08-.33-.57-1.03-.93-1.55-1.36-2.36,1.14-.04,4.56-3.11,5.12-1.61-1.22-1.78-3.18-2.08-5-.34-2.07-1.55-2.92-3.77-3.11-.53,1.3-.97,2.75-1.7,4.02-.44.76-1.29,1.34-2.08,1.8-.23.14-1.27-.44-1.26-.69.02-1.1.27-2.21.44-3.31.24-1.56.3-3.06-1.14-4.17-2.05.57-1.88,2.72-2.92,3.97-.3.36-.99.69-1.39.6-.4-.09-.98-.74-.96-1.13.06-1.49.2-3.02.57-4.47.32-1.23,1-2.38,1.53-3.56-1.87-.84-2.7-.71-2.84.28-.23,1.69-.37,3.39-.72,5.05-.08.4-.83.92-1.28.92-.45,0-1.18-.51-1.29-.92-.41-1.63-.63-3.32-.9-4.84-1.72-1.11-2.62.01-3.95.98.95,1.7,1.94,3.27,2.7,4.95.22.47-.24,1.26-.53,2.52-1.89-1.49-3.31-2.61-5.02-3.96-.4.56-1.13,1.12-1.11,1.65.05,1.07.25,2.32.86,3.16,1.09,1.48,2.52,2.7,4.17,4.39-1.2.65-1.98,1.04-2.73,1.48-1.97,1.15-2.25,2.64-.73,4.06.69.65,1.52,1.15,2.23,1.78,1.24,1.12,1.62,2.31.93,2.86-1.15.91-2.15.19-3.1-.41-1.45-.93-2.84-1.94-4.29-2.84-1.31-.81-2.52-.59-3.75.8,1.27,1.07,2.54,2.13,3.8,3.19.75.64,1.52,1.47.96,2.42-.57.96-1.64.71-2.54.25-1.7-.87-3.35-1.81-5.08-2.61-1.14-.53-1.67-.03-2.5,2.26,2.06.82,4.16,1.59,6.19,2.51.38.17.82,1.1.68,1.38-.31.58-.93,1.09-1.55,1.35-.46.19-1.12,0-1.68-.11-.94-.17-1.85-.49-2.79-.62-2.46-.33-3,.35-3.17,4.11,1.68-.15,3.33-.35,4.99-.45,1.55-.09,2.7.56,2.68,1.48-.02,1.16-.86,1.56-1.85,1.8-.74.17-1.48.38-2.17.68-1.3.56-1.77,1.6-1.31,2.73.42,1.02,1.21,1.42,2.28,1.23,1.31-.22,2.61-.58,3.93-.68.71-.05,1.53.16,2.17.51.44.23.88.89.88,1.36,0,.47-.44,1.25-.84,1.37-1.26.39-2.63.43-3.89.82-.83.26-1.54.89-2.86,1.7,1.09.6,1.62,1.07,2.24,1.21,2.03.49,4.1.8,6.12,1.33.39.11.97.99.85,1.28-.23.62-.81,1.46-1.35,1.54-1.43.21-2.9.07-4.49.07,1.37,1.25,2.67,2.32,3.81,3.54.27.28.21,1.17-.04,1.56-.24.37-1.04.76-1.4.62-2.31-.91-4.64-1.68-7.13-1.88-1.9-.16-3.71-.11-5.24,1.96,1.48.14,2.64.08,3.7.38,1.81.51,3.62,1.14,5.33,1.94.52.24,1.07,1.25.99,1.81-.21,1.29-1.36,1.08-2.25.8-2.16-.66-4.24-1.83-6.61-.61-.16,2.19,1.06,3.57,2.29,4.54,2.61,1.19,5.26-.45,7.59,1.22-.92,3.12-4.03,1.6-6.02,3.12-.84,1.72-.3,3.67.25,5.98,1.68-.47,3.11-.9,4.55-1.28,1.01-.26,1.97-.08,2.42.92.52,1.13-.32,1.79-1.23,2.17-1.76.73-3.57,1.32-5.34,2.03-.67.27-1.29.69-2.24,1.2.43.79.62,1.66,1.13,1.96.75.44,1.78.75,2.61.63,2.25-.33,4.45-1,6.69-1.33.43-.06,1.15.76,1.45,1.32.12.23-.43,1.11-.84,1.27-1.74.7-3.54,1.24-5.24,1.82-.74,1.92.32,3.03,1.57,4.37,1.31-.24,2.76-.61,4.24-.75,1.11-.11,2.27-.04,3.37.18.4.08.88.81.91,1.28.03.44-.38,1.14-.78,1.32-.85.37-1.81.49-2.73.66-4.19.79-4.4,1.04-5.06,6.48,2.25.07,4.47.1,6.68.27.42.03,1.17.69,1.13.97-.1.64-.47,1.61-.93,1.76-1.96.61-4,.97-5.96,1.4.25,4.6.71,5,4.59,4.32,2.63-.47,3.86-.14,3.77,1.01-.14,1.7-1.45,2.07-2.78,2.36-.91.2-1.82.36-3.06.62.19,1.46.35,2.7.48,3.68.61.41.9.75,1.23.8,1.31.22,2.65.24,3.93.55.4.09.85.84.87,1.3.02.46-.4,1.2-.8,1.34-1.38.51-2.85.8-4.26,1.17-.17,3.02.65,5.06,3.39,6.18.98.4,1.83,1.31,2.47,2.19.2.26-.41,1.63-.79,1.71-.88.17-1.85-.13-2.77-.3-1.11-.22-2.01.27-2.29,1.2-.24.81-.13,1.84.15,2.66.22.67.92,1.2,1.42,1.77.87,1.02,1.84,1.95,2.58,3.05.36.53.46,1.38.36,2.03-.13.77-1.44.62-2.4-.28-1.67-1.56-3.27-3.2-5.02-4.65-.63-.53-1.6-.63-2.6-1-.49,2.04.76,3.23,1.05,4.64.24,1.23.26,2.52.46,4.56-1.21-.85-1.97-1.11-2.26-1.62-1.19-2.13-2.24-4.35-3.25-6.35-1.59.06-1.37.93-1.43,1.62-.16,2,.8,4.14-.61,5.93-1.4.11-1.85-.67-2-1.68-.33-2.22.04-4.64-1.73-6.47-1.29-.17-1.61.76-1.84,1.69-.32,1.29-.42,2.64-.86,3.89-.18.5-1.01.78-1.52,1.13-2.21-2.44.42-6.06-2.48-7.94-1.81.52-1.58,2.17-2.22,3.25-.48.82-.73,1.8-1.33,2.5-.42.5-1.24.64-1.88.95-.23-.63-.77-1.34-.64-1.89.58-2.4,1.32-4.77,2.09-7.13.7-2.15.05-4-.92-6.25-1.5,1.13-2.62,2.13-3.89,2.85-.48.27-1.4.02-1.97-.26-.23-.12-.27-1.15-.03-1.53.83-1.28,1.88-2.4,2.73-3.66.62-.91,1.05-1.93,1.5-2.8-.88-1.15-1.52-.51-2.12-.15-.98.58-1.85,1.43-2.9,1.8-.78.29-2.06.36-2.59-.08-.95-.81-.08-1.67.63-2.32.82-.76,1.65-1.52,2.44-2.24-1.54-2.58-1.82-2.73-3.35-1.96-1.35.68-2.67,1.39-4.04,1.99-.22.1-.75-.2-.95-.45-.21-.25-.38-.83-.23-1,.93-1.2,1.97-2.31,2.94-3.47.92-1.11,1.23-2.34.54-3.75-2.2-1.54-4.72,1.76-6.91-.33-.31-1.25.57-1.69,1.37-2.19,1.94-1.21,3.92-2.34,5.79-3.64,1.17-.81,1.63-2.07,1.08-3.9-.96,0-2.04-.08-3.09.02-1.13.1-2.24.52-3.36.53-1.69.04-2.6-1.84-1.63-3.26.84-1.24,1.75-2.42,2.78-3.82-.89-.97-1.61-1.75-2.31-2.52-.53.39-.93.53-1.07.81-.64,1.36-1.18,2.78-1.84,4.13-.14.28-.62.5-.95.53-.33.02-.67-.25-1.36-.55.17-1.53.37-3.16.51-4.81.07-.76.11-1.54-.03-2.27-.1-.47-.48-1.12-.88-1.24-.36-.11-1.12.24-1.34.61-.69,1.12-1.09,2.43-1.85,3.49-.31.43-1.28.56-1.93.51-.25-.02-.65-.93-.61-1.4.1-1.25.4-2.5.7-4.16-2.7.4-2.55,4.51-5.56,3.3-1.39-2.25,1.85-4.6-.14-7.13-2.52,1.7-3.77,5.02-7.06,5.21-.97-1.19-.41-2.06.3-2.65,2.63-2.2,3.53-5.38,4.8-8.33.4-.92.07-2.16.07-3.97-1.44,1.84-2.38,3.18-3.49,4.39-.26.28-1.06.2-1.57.08-.22-.05-.5-.65-.46-.94.21-1.3.61-2.58.76-3.89.15-1.3-.62-2.03-1.72-2.55-1.81,1.86.62,4.95-2.25,6.13-1.94-.57-1.36-2.56-2.15-3.77-.8-1.2-1.7-2.09-3.66-1.03.24,1.44.5,3.02.78,4.69-.63.26-1.21.74-1.59.62-.68-.23-1.29-.76-1.82-1.28-.78-.76-1.68-1.22-2.39-.25-.49.67-.74,1.76-.6,2.59.16.87.95,1.62,1.39,2.46.59,1.14,1.11,2.34,1.93,4.08-1.2-.08-1.99.1-2.45-.21-.76-.53-1.25-1.44-1.94-2.08-1.41-1.31-1.88-1.22-4.3.59-.13,1.8,1.46,2.52,2.36,3.66.47.6,1.17,1.1,1.41,1.77.22.6.04,1.4-.15,2.06-.03.11-1.06.09-1.53-.11-1.32-.55-1.95-2.45-4.18-1.94.22,3.27.72,6.21,3.7,8.4,1.6,1.18.98,3.29-.92,3.19-3.32-.18-3.62,1.99-4.36,4.5,1,.58,1.9,1.2,2.88,1.65,1.03.47,2.21.64,3.18,1.2.55.32,1.15,1.13,1.15,1.72,0,1.26-1.13,1.33-2.08,1.28-1.28-.06-2.56-.23-3.84-.35-.47,4.5-.49,4.56,2.99,5.48,1.17.31,2.45.56,2.56,1.85.15,1.81-1.53,1.85-2.78,2.21-.17.05-.31.19-.59.38-1.32,4.44,2.49,5.93,5.61,8.29-1.38.86-2.36,1.31-3.14,2.01-.82.72-1.66,1.58-2.11,2.55-.78,1.69.27,3.64,2.01,4.02.92.2,1.93,0,2.82.25.83.23,1.91.63,2.26,1.28.56,1.06-.42,1.65-1.38,2-.36.13-.85.21-1.01.47-.36.6-.88,1.41-.72,1.93.26.79.92,1.64,1.64,2.03.56.31,1.5-.18,2.23-.07.49.07.9.58,1.34.87.36,2.65-3.31,2.68-3.12,5.11.12,1.46.17,2.93.28,4.66,1.46-.38,2.51-.78,3.59-.91.45-.05,1.16.34,1.39.75.22.39.2,1.25-.09,1.56-1.15,1.26-2.44,2.38-3.71,3.59-.58,2.31.65,3.96,1.95,5.92,2.21-.96,2.01-3.29,3.18-4.6.4-.44,1.24-.68,1.88-.67.28,0,.8.88.77,1.32-.08,1.11-.32,2.24-.69,3.29-.49,1.42-1.15,2.79-1.74,4.17,1.04,2.29,2.91,3.47,5.09,5.5.29-2.69.5-4.6.79-7.23,1.15,1.04,2.12,1.5,2.37,2.21.57,1.6.77,3.32,1.16,4.98.25,1.08,1.46,1.93,2.55,1.83,1.05-.09,2.07-1.33,1.81-2.49-.47-2.03-1.17-4.01-1.66-6.04-.11-.45.31-1.47.46-1.47.67.02,1.69.12,1.94.55,1.11,1.97,2.01,4.05,2.97,6.08,3.68-1.51,3.8-1.66,3.28-4.25-.26-1.31-.68-2.61-.71-3.91-.01-.53.72-1.2,1.28-1.54.2-.13,1.12.4,1.28.8.57,1.4.92,2.9,1.42,4.34.29.84.71,1.62,1,2.31,1.54.04,1.42-.88,1.5-1.58.27-2.08.41-4.18.81-6.22.12-.59.89-1.2,1.5-1.49.61-.29,1.52.99,1.44,2.06-.09,1.33-.33,2.65-.41,3.98-.07,1.1-.01,2.21-.01,3.76,1.16-.37,2.16-.42,2.8-.94,1.15-.95,2.04-2.23,3.16-3.23.28-.25,1.17-.19,1.5.08.35.29.59,1.08.45,1.5-.31.88-.85,1.69-1.36,2.48-1.25,1.93-.88,3.59.96,5.34,1.08-.16,2.35-.43,3.62-.47.42-.02,1.07.5,1.23.92.16.43.04,1.18-.27,1.52-.49.54-1.2.91-1.86,1.26-1.5.78-2.33,1.87-2.04,3.67.3,1.78,1.3,2.64,3.11,2.67.55,0,1.11.22,1.62.42.86.36.9,1.79.21,2.41-1.41,1.24-3.9.58-4.77,2.78-.69,1.75-1.5,3.47-2.24,5.21.22.13.53.45.78.43,1.36-.15,2.98-1.95,3.98.13.74,1.55-1.03,2.17-2.03,2.97-.87.7-1.71,1.45-2.55,2.16,1.56,2.15,2.98,2.61,4.64,1.31,1.48-1.15,2.68-2.67,4.1-3.91.28-.24,1.05-.06,1.52.12.24.1.44.63.42.96-.04.55-.21,1.11-.44,1.61-.38.84-.87,1.65-1.29,2.45,2.02,1.62,2.59,1.62,3.56.1.67-1.06,1.31-2.14,2.37-3.88.65,1.49,1.29,2.29,1.25,3.05-.03,1.11-.39,2.27-.88,3.29-1.16,2.38-.3,4.46.82,6.49.21.38.92.49,1.6.83,1.58-1.76,1.02-4.09,1.86-5.92.21-.46.98-1.12,1.15-1.03.59.31,1.39.86,1.46,1.42.22,1.68.03,3.42.26,5.1.07.52,1.01,1.3,1.5,1.26.53-.04,1.38-.85,1.43-1.39.15-1.69-.04-3.42-.04-5.12,0-.76-.06-1.61.25-2.25.28-.57.96-1.06,1.58-1.28.25-.09,1.06.58,1.16,1.02.3,1.28.38,2.62.54,3.94.11.92.21,1.86.34,2.92,1.78.39,2.73-.23,2.9-1.81.18-1.7.1-3.43.21-5.14.06-.94.11-1.97.52-2.76.25-.47,1.21-.77,1.86-.78.33-.02.95.71,1,1.15.09.93-.13,1.88-.17,2.83-.06,1.52-.24,3.05-.09,4.56.13,1.41.91,2.48,3.04,2.4.52-1.4,1.14-2.93,1.65-4.5.32-.96.68-1.82,1.85-1.78.95.02,1.51,1.23,1.25,2.76-.19,1.12-.51,2.23-.76,3.34-.12.55-.39,1.18-.25,1.66.18.66.6,1.35,1.13,1.76.28.22,1.17,0,1.5-.33.93-.94,1.67-2.06,2.58-3.03.5-.53,1.16-.95,1.82-1.3.28-.14.89-.1,1.06.11.35.4.73,1.02.66,1.47-.12.71-.56,1.4-.97,2.03-.64.95-1.42,1.8-2.05,2.76-.73,1.09-.59,2.43.31,3.06.93.65,1.77.32,2.53-.41.93-.89,1.88-1.77,2.7-2.54,1.75.47,2.22,1.51,1.55,2.68-.93,1.63-2.17,3.08-3.48,4.9.75,1.62,1.53,3.3,2.17,4.68,2.33.81,2.93-1.34,4.36-1.63.47-.1,1.2.03,1.49.35.3.32.44,1.16.21,1.51-1.22,1.92-2.56,3.75-3.91,5.68.33,1.97,1.46,3.38,3,4.56,1.98-.91,1.78-2.96,2.77-4.25.3-.39.95-.8,1.34-.73.39.08.93.76.93,1.19,0,1.12-.21,2.26-.44,3.38-.19.93-.59,1.81-.77,2.75-.19.96-.1,1.91,1.03,2.34,1.12.43,2.11-.02,2.72-1.34.55-1.22.91-2.54,1.57-3.67.3-.52,1.14-.72,1.74-1.06.27.66.83,1.35.77,1.98-.13,1.5-.56,2.97-.89,4.54.79,1.99,2.44,2.66,4.89,2.84.6-2.33,1.17-4.69,1.88-7,.1-.33.9-.54,1.4-.61.21-.02.65.44.71.74.15.73.2,1.51.18,2.27-.05,1.89-.32,3.79.37,5.59,3.48.28,4.28-.12,4.74-2.5.28-1.46.4-2.95.68-4.98.93.64,1.75.9,1.97,1.41.53,1.2.65,2.6,1.19,3.79.26.56,1.19,1.21,1.72,1.12.82-.13,1.83-.67,2.24-1.35.45-.74.33-1.83.4-2.78.1-1.28.14-2.56.25-4.61,1.16,1.06,2.12,1.53,2.35,2.23.46,1.42.61,2.98.72,4.49.19,2.6,1.62,3.69,4.27,3.71.57-1.09,1.16-2.21,1.69-3.24,1.42-.16,2.04.57,2.18,1.57.19,1.3.14,2.65.23,3.98.17,2.6,1.24,4.64,3.84,6.21.75-2.67.13-4.86-.17-7.06-.09-.67-.06-.67,1.4-2.07,2.49,1.72,1.39,5.09,3.32,7.16,1.48.68,2.84.43,4-.76.06-.42.22-.81.15-1.15-.31-1.47-.72-2.92-1-4.4-.04-.24.34-.7.64-.82.29-.12.83-.09,1.04.11.54.51,1.01,1.12,1.42,1.75.82,1.25,1.57,2.54,2.46,4,.65-.37,1.37-.53,1.49-.88.34-1.04.76-2.23.55-3.23-.32-1.46-1.23-2.77-1.73-4.21-.15-.41.08-1.25.41-1.46.37-.23,1.21-.16,1.56.13,1.01.85,1.89,1.87,2.8,2.81,1.74-.05,2.45-.95,2.18-2.58-.25-1.57-1.6-3.73.59-4.35,1.74-.5,1.72,2.03,2.4,3.27.19.33.17.87.43,1.04.59.38,1.35.91,1.93.79.59-.12,1.45-.89,1.5-1.43.12-1.29-.31-2.64-.24-3.94.03-.6.62-1.34,1.16-1.7.67-.45,1.83.39,2.03,1.45.25,1.31.26,2.66.62,3.94.16.58.87,1.01,1.3,1.49,2.52-1.06.66-5.51,4.75-5.08.23,2.28.45,4.5.67,6.62,1.15.38,1.56-.11,1.82-.92.35-1.09.59-2.24,1.16-3.2.27-.46,1.18-.54,1.76-.76,1.59,2.44.2,4.78.64,6.98.1.47.56,1.07.98,1.21.33.11.93-.35,1.29-.68.25-.23.31-.69.48-1.02.08-.17.2-.32.33-.46.66-.67,2.2-.4,2.35.49.25,1.49.41,3.01.47,4.52.08,1.74,1.04,2.74,2.53,3.69,1.25-1.6-.05-3.04.17-4.4.1-.6.62-1.24,1.12-1.63.17-.13,1.14.34,1.33.73.66,1.37,1.15,2.81,1.69,4.24.27.69.53,1.39.76,1.97,1.74.7,3.12.59,4.27-.7.06-.43.26-.88.13-1.15-1.14-2.19-2.41-4.31-3.49-6.54-.25-.51.1-1.32.17-1.99.69.2,1.57.19,2.03.63,1.22,1.15,2.23,2.49,3.33,3.75,1.01-.82.47-1.5.21-2.14-.65-1.58-1.42-3.11-1.98-4.72-.14-.39.19-1.21.57-1.46.37-.25,1.23-.26,1.57,0,1.13.91,2.12,1.99,3.08,2.91,1.79-.86,1.76-1.92.73-2.82-.67-.58-1.68-.79-2.57-1.09-1.05-.37-2.2-.5-3.16-1.03-.49-.26-.79-1.15-.87-1.79-.03-.23.85-.81,1.32-.81,1.65,0,3.31.16,5.26.28-.56-2.57-1.93-3.97-3.86-5.03-1.66-.91-3.27-1.93-4.82-3.03-.3-.23-.43-1.13-.23-1.5.21-.38,1-.79,1.39-.67,1.28.36,2.45,1.04,3.73,1.43,1,.31,2.09.37,3.22.56.09-2.4-1.64-3.3-2.52-4.71-.53-.85-.85-1.76.19-2.49.94-.66,1.9-.33,2.56.39.89.98,1.56,2.15,2.36,3.22.54.71,1.13,1.39,1.75,2.14.41-.53.73-.76.78-1.04.16-.88-.1-2.12.39-2.58,1.09-1.01,2.09.02,2.89.81.54.53.98,1.17,1.39,1.81,1.38,2.19,3.39,2.81,5.8,2.61.49-2.56-2.33-3.38-2.58-5.47.45-1.5,1.51-1.68,2.61-.87,1.21.9,2.21,2.07,3.33,3.1.56.51,1.11,1.17,1.79,1.38.59.18,1.61.06,1.97-.35.35-.39.38-1.62.03-1.95-1.08-1.05-2.42-1.8-3.62-2.73-.43-.34-.94-.8-1.03-1.28-.07-.4.39-1.27.67-1.29.9-.09,1.98-.14,2.72.27,1.49.82,2.75,2.04,4.21,2.91.53.31,1.75.36,2.02.02.52-.64.92-1.7.79-2.5-.25-1.59-1.44-2.7-2.85-3.37-1.54-.72-3.2-1.2-4.76-1.9-.42-.19-.85-.78-.94-1.24-.18-.98.65-1.25,1.4-1.38.93-.16,1.88-.2,2.77-.29.4-1.57-.51-2.27-1.62-2.67-2.14-.8-4.37-1.4-6.47-2.29-.66-.28-1.03-1.23-2.01-2.48h6.82c-.44-1.27-.51-2.27-1.04-2.8-1.45-1.46-3.1-2.7-4.53-3.93.33-1.71,1.27-1.67,2.21-1.32.89.33,1.7.87,2.57,1.26,3.18,1.4,3.54,1.27,6.59-2.56-1.01-1.02-2.11-2.02-3.06-3.15-.29-.35-.4-1.41-.21-1.53.56-.34,1.5-.73,1.95-.48,1.64.94,3.17,2.08,4.7,3.21,1.82,1.35,3.46,1.14,5.3-.43-.65-1.23-1.32-2.32-1.78-3.5-.16-.41.06-1.2.39-1.49.32-.29,1.2-.42,1.5-.19,1.35,1.04,2.57,2.21,3.84,3.34h0ZM234.39,325.91c1.31-1.97,2.96-1.93,4.73-1.59,2.62.49,5.26.88,7.87,1.44,3.06.65,5.62-.12,7.91-2.21,1.55-1.41,3.2-2.71,4.88-3.97,2.56-1.93,3.5-4.41,2.83-7.54-.48-2.22-.86-4.47-1.39-6.69-.16-.71-.57-1.4-.99-2.03-.53-.79-1.2-1.48-1.78-2.24-3.84-5.12-3.04-7.81,3.42-10,2.32-.79,4.8-1.19,7.24-1.55,4.3-.64,7.63-2.2,8.45-7.05.37-2.24,2.08-3.67,4.05-4.52,2.78-1.2,5.63-2.34,8.55-3.18,4.58-1.31,9.25-2.3,13.86-3.52,4.96-1.31,6.31-2.98,6.58-7.96.08-1.52-.03-3.05,0-4.58.09-2.79-.83-5.17-2.41-7.46-1.28-1.85-2.53-3.9-3.06-6.04-.75-3.03-2.35-5.14-4.89-6.71-.49-.3-.98-.59-1.44-.93-3.41-2.49-3.71-6.45-.45-9.13,2.34-1.93,4.89-3.61,8.02-4.21,1.86-.36,3.72-.92,5.46-1.66,2.84-1.2,4.64-3.28,4.69-6.55.01-.76.08-1.53.05-2.29-.1-2.47,1.74-4.74.75-7.29-.83-2.12-1.71-4.21-2.52-6.34-1.12-2.89-2.92-4.96-6.24-5.03-5.02-.11-8.96-2.92-13.19-5.06-1.5-.76-2.25-2.09-2.62-3.58-.44-1.84-.57-3.76-.9-5.63-.19-1.09-.52-2.14-.75-3.1-5.76-1.05-11.41-1.14-16.06-.05-1.66.39-2.97.13-4.25-.9-2.46-1.99-4.04-4.57-4.92-7.55-.69-2.32.04-4.31,2.27-5.25,3.16-1.33,6.23-2.69,8.91-4.94.89-.76,2.5-.77,3.8-.9,1.7-.18,3.45,0,5.14-.24,1.49-.2,3.19-.38,4.33-1.22,3.38-2.48,7.32-3.1,11.21-4.01,1.11-.26,2.28-.3,3.39-.57,3.23-.76,5.66-2.33,5.71-6.73.02-1.9.42-3.79.54-5.69.26-4.02-.65-7.58-4.18-10.04-.32-.22-.6-.48-.9-.71-3.71-2.85-6.33-6.54-8.39-10.69-1.71-3.46-1.4-5.61,1.33-8.17.14-.13.32-.22.46-.35,3.78-3.38,3.97-4.14,1.83-8.74-.72-1.55-1.61-3.04-2.52-4.48-2.18-3.46-5.18-4.9-9.27-3.69-1.23.36-2.55.41-3.82.61-2.64-3.08-3.58-6.51-4.01-10.15-.24-2.07.37-3.75,2.09-5,.93-.66,1.78-1.44,2.75-2.06,2.85-1.78,4.69-4.41,6.37-7.22,1.7-2.86,2.25-5.54-.24-8.39-.93-1.06-1.17-2.76-1.65-4.19-.54-1.62-.92-3.3-1.53-4.9-1.07-2.81-3.24-4.53-6.17-4.14-4.89.64-9.83,1.49-13.92,4.64-.76.58-1.6,1.14-2.12,1.9-2.14,3.05-4.54,4.97-8.64,3.55-1.64-.56-3.31.61-4.67,1.71-1.93,1.56-3.82,3.17-5.73,4.76-.75.62-1.56,1.2-2.56.65-1.13-.62-1.53-1.75-1.29-2.93.53-2.67,1.74-5.07,3.74-6.92,2.52-2.34,5.25-4.36,8.56-5.59,2.49-.92,4.91-2.13,7.21-3.45,4.29-2.46,5.27-5.81,3.97-10.26-1.14-3.94-2.36-8.05-6.65-10.24-1.6-.82-2.78-2.57-4.01-4.01-4.31-5.04-9.75-5.44-15.66-3.89-2.77.72-3.96,2.9-4.43,5.45-.53,2.83-1.88,4.94-4.49,6.21-.17.08-.37.07-.59.12-2.88-1.42-5.74-2.91-8.68-4.24-3.46-1.55-5.43-3.97-5.37-7.93.04-2.45.39-5.21-1.86-6.9-2.7-2.03-5.27-4.51-9.05-4.43-5.5.1-10.44-1.9-15.3-4.19-5.35-2.52-10.55-1.35-15.16,1.53-2.51,1.56-4.63,2.35-7.4,1.54-1.89-.56-3.75-.41-5.6.35-2.4.97-4.38,2.26-5.02,5.02-.26,1.1-.84,2.12-1.36,3.42.46,1.25,1.11,2.63,1.46,4.09.58,2.45.84,4.88-.74,7.16-1.82,2.62-2.39,5.37-1.72,8.66.69,3.38-1.47,5.41-4.91,5.34-4.27-.08-6.96-2.7-9.19-5.92-.52-.76-.71-1.76-1.02-2.66-.53-1.54-1.54-2.62-3.06-3.19-1.61-.6-3.18-1.31-4.84-1.73-3.91-.98-5.85-.08-8.17,3.34-.96,1.4-2.11,2.69-3.2,3.99-.86,1.02-1.87,1.93-2.64,3.01-1.59,2.22-1.77,4.59-.3,6.96.71,1.13,1.5,2.2,2.29,3.28,1.38,1.92,1.61,3.81.02,5.75-2.77,3.38-2.49,7.02-.88,10.78.53,1.22.98,2.48,1.48,3.71,1.37,3.38,3.73,5.78,7.21,6.87,2.54.79,5.12,1.53,7.74,1.93,2.14.33,4.06.94,6.02,2.41,0,1.33.08,2.82-.03,4.3-.06.73-.28,1.59-.74,2.11-2.13,2.4-4.25,4.85-6.66,6.94-.82.7-2.61.83-3.76.52-3.67-.99-7.28-2.27-10.87-3.52-1.85-.65-3.47-1.77-4.26-3.61-1.28-2.95-3.82-3.86-6.54-3.55-3.76.44-7.49,1.34-11.16,2.33-2.78.75-4.35,2.77-4.97,5.69-.62,2.88-.58,5.7.16,8.49,1.05,3.88-.67,5.55-3.57,5.66-5.49.23-7.5,3.82-9,8.17-.56,1.62-.74,3.44-1.57,4.89-1.84,3.21-1.15,6.16.14,9.3,1.23,2.98,2.24,6.07,3.16,9.16.36,1.22.2,2.61.3,4.21-1.7.98-3.36,1.87-4.95,2.86-3.23,1.99-3.71,3.55-2.22,7.17,1.21,2.97,2.22,6.07,3.78,8.85,1.54,2.75,1.95,5.55.66,8.19-2.36,4.81-.47,8.06,3.34,10.68,2.12,1.46,3.09,3.06,2.8,5.71-.24,2.23.5,4.48-.13,6.78-.28,1.03-.12,2.32.22,3.36,1.1,3.42,2.37,6.78,3.58,10.15.19.54.73,1.08.67,1.55-.67,5.15,2.64,10,1.11,15.29-.83,1.49-2.38,1.63-3.92,1.66-2.86.04-5.72.07-8.58-.01-3.78-.11-5.91-2.08-6.49-5.9-.14-.94-.15-1.9-.17-2.86-.08-4.28-1.95-7.27-6.14-8.64-.36-.12-.73-.22-1.07-.4-3.08-1.57-4.55-4.05-4-7.47.36-2.24,1.19-4.41,1.88-6.59,1.22-3.93.99-5.04-2.23-7.31-4.04-2.87-8.27-5.41-12.02-8.72-1.6-1.41-4.07-2.17-6.27-2.5-3.69-.56-5.22-2.74-5.76-6.04-.18-1.12-.18-2.27-.23-3.41-.15-3.42-1.72-5.74-4.85-5.94-5.48-.36-11.03-1.06-16.44.89-2.24.8-4.22,1.83-5.14,4.16-1.37,3.47-3.84,6.15-6.43,8.66-2.62,2.54-3.64,5.33-2.39,8.76,1.61,4.44,1,8.61-1.27,12.63-.79,1.41-.83,2.88-.49,4.43,1.13,5.21,2.11,10.46,3.38,15.63.54,2.25.97,4.34.6,6.72-.66,4.22-.11,8.24,2.64,11.9,1.19,1.58,1.55,3.83,2.12,5.83,1.15,4.03,1.32,8.19,1.67,12.36.4,4.82,3.15,8.94,5.6,13.02.45.75,1.46,1.17,2.22,1.74.9.69,2.13,1.19,2.67,2.09,1.76,2.95,4.41,3.91,7.62,4.23,3.66.38,7.33.81,10.38-1.77,3.24-2.73,7.04-2.56,10.86-2.54,1.92.01,3.34.87,3.91,2.74,1.35,4.38,2.31,8.84,1.23,13.43-.24,1.04-.83,2.19-1.62,2.88-3.28,2.86-2.09,6.25-1.25,9.54.75,2.97,3.21,4.09,5.93,4.7,1.67.37,3.38.59,5.07.88,1.58.28,2.74,1.02,3.61,2.49,1.25,2.11,2.79,4.05,4.45,6.41,5.39,2.08,11.08,2.56,16.77-.08,1.72-.8,3.11-.54,4.85.2,8.6,3.66,13.42,10.33,15.8,19.08,1.25,4.58,4.35,7.99,7.45,11.36.73.78,1.93,1.52,2.95,1.55,4.34.16,8.09,2.21,11.93,3.74,3.44,1.38,6.53,1.55,9.94.32,2.31-.83,4.68-1.4,7.28-1.05,4.88.64,8.46,3.11,11.3,6.98,3.32,4.51,3.33,4.35,8.81,2.53,2.68-.89,5.51-1.48,8.33-1.79,2.64-.29,4.51-1.12,6.14-3.43,3.97-5.66,8.99-6.65,15.53-4.59,5.63,1.77,10.4,4.58,14.54,8.68.81.79,1.78,1.44,2.72,2.09,1.64,1.12,3.34,1.44,5.4.95,7.41-1.78,7.42-1.71,10.82-8.62.76-1.53,1.61-3.04,2.49-4.5,2.44-4.08,2.83-8.22.45-12.47-.18-.32-.2-.72-.37-1.41Z"/>
  </g>
</svg>