<?xml version="1.0" encoding="UTF-8"?>
<svg id="Layer_2" data-name="Layer 2" xmlns="http://www.w3.org/2000/svg" viewBox="0 0 781.68 575.89">
  <defs>
    <style>
      .cls-1 {
        fill: #753d22;
        fill-rule: evenodd;
      }
    </style>
  </defs>
  <g id="Layer_2-2" data-name="Layer 2">
    <g>
      <path class="cls-1" d="M294.45,535.77c.08.31.16.62.24.94.83-.11,1.68-.17,2.48-.39.24-.06.5-.58.48-.86-.02-.23-.53-.62-.74-.57-.84.22-1.65.57-2.46.88h0ZM337.73,575.89c-.41,0-.81,0-1.23-.04-2.36-.14-4.35-.58-5.85-2.54-1.73-2.24-3.89-3.95-6.52-5.05-3.33-1.39-4.51-4.13-4.8-7.5-.38-4.48.91-8.43,3.77-11.84,1.24-1.47,2.05-3.04,2.08-5,.04-2.83-.7-4.19-3.49-4.83-2.07-.48-3.84-1.27-5.34-2.73-.26-.27-.53-.53-.83-.74-3.61-2.67-5.14-2.81-8.21.31-3.41,3.49-7.25,4.8-12.04,4.26-2.74-.31-5.55.19-8.33.09-2.61-.09-3.58-1.52-3.13-4.07.32-1.81.8-3.62.89-5.44.23-5.07-3.52-7.4-7.4-8.27-1.06-.23-2.23-.16-3.32-.01-4.74.65-9.49,1.3-14.21,2.12-1.21.21-2.43.89-3.43,1.64-1.47,1.13-2.71,2.54-4.12,3.73-2.39,2.02-4.34,2.11-6.2-.27-3.25-4.15-7.19-4.54-11.92-3.35-4.12,1.04-8.37,1.58-12.55,2.33-.37.06-.74.1-1.1.11-1.68.05-3.1-1.05-2.93-2.62.28-2.56.55-5.18,1.36-7.59.94-2.79,2.33-5.45,3.79-8.03.8-1.41,2.06-2.57,3.22-3.75,1.04-1.05,2.23-1.94,3.35-2.91,2.78-2.41,4.62-5.27,4.29-9.18-3.36-3.99-5.44-4.65-9.99-2.89-1.39.54-2.65,1.33-4.19.52-1.78-.93-2.83-2.49-3.22-4.32-.89-4.21-.63-7.97,4.89-10.5,2.96-1.36,6.37-1.93,9.64-2.35,3.16-.4,6.16-.53,8.66-2.99,1.49-1.47,3.74-1.47,5.82-1.39,3.6.13,6.95-.94,10.28-2.09,1.38-.47,2.67-1.24,3.94-1.99,1.88-1.1,3.02-2.69,2.96-4.98-.02-.74.02-1.48.12-2.22.54-3.91,2.38-7,5.95-8.84,1.8-.94,3.7-1.68,5.57-2.49,2.34-1.02,3.91-2.75,4.82-5.11.5-1.32-.98-3.25-2.38-2.93-1.06.23-2.15.65-3.03,1.28-4.26,3.04-8.93,5.27-13.77,7.14-1.64.64-2.92,1.55-3.96,2.9-2.53,3.31-6.12,5.05-10.06,5.22-6.83.3-12.91,3.04-19.25,5.01-1.91.59-3.21,1.78-3.87,3.67-.25.69-.64,1.35-.8,2.07-.9,4.38-4.11,6.43-7.93,7.78-1.74.62-3.58.97-5.35,1.49-3.11.91-5.09,2.95-5.87,6.07-.36,1.44-.54,2.92-.82,4.37-.93,4.73-2.56,8.88-7.71,10.65-2.38.83-3.92,2.73-4.6,5.24-.77,2.84-2.89,4.16-5.55,4.84-.36.08-.75.1-1.09.22-5.14,1.77-8.99.05-11.99-4.26-2.01-2.89-4.13-5.7-6.24-8.52-1.76-2.35-2.15-4.98-2-7.88.23-4.67-1.53-6.45-6.13-6.49-1.83,0-3.67.22-5.57.34-1.55,2.92-1.01,5.97-.52,8.79.85,4.9.26,9.57-1.02,14.26-1.03,3.78-3.2,6.01-7.16,5.54-5.07-.61-9.8-.15-14.68,1.21-1.95.55-4.42-.12-6.5-.75-4.96-1.51-9.8-3.38-14.72-5-1.56-.52-3.21-.9-4.85-1.03-4.25-.35-6.77-2.7-8-6.59-.5-1.6-.73-3.26-1.18-4.86-.28-1.01-.72-2-1.24-3.39-1.32,1-2.32,1.75-3.32,2.49-1.63,1.22-3.17,2.57-4.9,3.62-2.77,1.67-5.75,2.4-9.05,1.61-3.05-.74-6.19-1.09-9.22-1.87-1.18-.31-2.35-1.12-3.25-1.99-4.79-4.6-10.3-8.54-13.46-14.65-1.02-1.97-2.77-2.97-5.04-2.81-4.78.35-8.51-1.83-12.08-4.71-2.76-2.22-5.43-4.38-6.69-7.91-.98-2.75-.78-5.49-.36-8.22.24-1.56,1.5-2.54,2.92-3.11,2.07-.8,4.22-1.41,6.26-2.27,1.33-.57,3.1-1.12,3.69-2.21,1.5-2.76,4.05-4.23,6.25-6.14.56-.48,1.08-1,1.67-1.55v-13.35c-.91-.29-1.57-.64-2.26-.69-3.12-.17-5.19-1.82-6.48-4.53-1.65-3.49-4.26-5.45-8.17-5.79-1.26-.11-2.51-.66-3.73-1.08-4.76-1.68-6.33-5.26-4.63-10.02.67-1.89,1.13-3.91,1.3-5.91.19-2.21-.77-3.13-2.98-4.03-1.87-.76-3.72-1.62-5.48-2.58-2.42-1.34-4.7-2.94-7.15-4.25-2.88-1.54-4.35-3.91-4.73-7.06-.09-.73-.18-1.49-.07-2.22.76-4.92.77-9.93,2.09-14.79.85-3.12,2.3-5.84,3.98-8.49,2.03-3.21,5.25-4.63,8.75-5.37,2.8-.59,4.67.35,6.07,3.61,1.45,3.34,4.15,5.11,6.94,6.93,1.5.98,3.09,1.13,4.78.53,1.57-.56,3.12-1.18,4.73-1.62,3.08-.83,6.15-1.12,9.28.01,5.04,1.84,9.72,1.2,14.03-2.18,1.88-1.48,4.05-2.61,6.01-4.01,1.19-.85,2.34-1.83,3.3-2.93,1.02-1.17,1.38-2.6.6-4.13-.34-.66-.56-1.38-.93-2.02-1.38-2.44-1.32-4.96-.48-7.52.52-1.59,1.11-3.14,1.67-4.72.82-2.33.97-4.71.35-7.11-.63-2.49-1.84-4.34-4.71-4.78-2.54-.39-5.03-1.18-7.56-1.76-2.53-.57-3.13-1.15-3.48-3.58-.25-1.84-.31-3.72-.8-5.48-.79-2.84.04-5.05,1.94-7.11,1.12-1.22,2.07-2.6,3.11-3.89,3.16-3.9,4.3-8.52,4.86-13.36.2-1.65.43-3.3.86-4.91.66-2.48,2.11-4.24,4.83-4.78,3.65-.74,6.27-3.12,8.46-5.95,1.58-2.06,2.96-4.26,4.4-6.41.42-.61.73-1.29,1.15-1.9,3.7-5.51,5.4-7.88,13.85-5.23,3,.94,6.04,1.76,9.1,2.47,3.93.91,7.58.38,10.92-2.61-1.51-3.95-2.73-7.83-4.46-11.46-1.11-2.32-1.84-4.44-.75-6.85.75-1.68.49-3.18-.28-4.79-.72-1.48-1.14-3.12-1.74-4.67-1.75-4.56-4.74-7.43-9.95-7.32-1.3.03-2.6-.06-3.88-.25-3.34-.49-5.37-2.57-5.59-5.89-.21-3.13-.27-6.29-.33-9.43-.07-3.55,1.39-6.42,4.02-8.76,1.23-1.12,2.5-2.22,3.54-3.5,4.06-5.02,9.32-7.72,15.65-8.54,1.09-.14,2.14-.7,3.22-.79,1.64-.12,3.36-.31,4.91.08,5.16,1.29,9.86.08,14.37-2.3,1.15-.61,2.11-1.54,3.24-2.15,2-1.1,4.05-1.8,6.35-.66.98.48,2.11.73,3.21.85,6.55.7,11.16,4.6,15.23,9.28,1.19,1.36,1.97,3.11,2.79,4.75,1.39,2.73,1.98,5.45.52,8.48-1.45,3.02-.72,5.77,2.1,7.83.45.32.77.83,1.23,1.11,4.72,2.94,6.78,7.51,8.07,12.66.73,2.92,2.46,3.85,5.48,2.98,3.37-.97,6.71-2.1,10.01-3.34,3.75-1.41,7.51-1.96,11.39-.73,3.18,1,6.25.16,9.3-.54,1.89-.44,3.18-1.69,3.99-3.54,1.51-3.44,2.11-7.09,2.66-10.74.32-2.12-.27-4.07-1.51-5.78-2.28-3.14-4.5-6.41-7.73-8.68-4.93-3.47-7.04-8.41-7.76-14.14-.14-1.11-.2-2.23-.44-3.31-.7-3.26-.13-6.2,1.78-8.97,1.05-1.52,1.89-3.19,2.67-4.88,1.35-2.93,3.4-5.09,6.01-7.06,4.1-3.08,6.56-7.49,7.87-12.44.76-2.87,1.25-5.8,1.88-8.69.57-2.6,1.71-4.68,3.95-6.43,2.13-1.67,3.83-3.99,5.45-6.22,1.38-1.92,2.99-2.76,5.21-2,2.89.99,5.75.94,8.75.38,1.96-.36,4.08-.29,6.07.01,2.23.33,4.06-.24,5.67-1.61,2.82-2.39,5.85-4.62,8.22-7.4,2.66-3.14,3.99-7.05,4.03-11.3.02-2.03-.06-4.12.45-6.05.55-2.09-1.24-3.47-1.05-5.65.79-.93,1.8-2,2.67-3.16,2.3-3.09,1.78-5.82-1.44-8-.15-.1-.32-.18-.48-.28-4-2.61-4.39-3.88-2-8.03,2.5-4.31,5.01-8.52,9.49-11.37,2.57-1.64,4.45-4.4,6.5-6.78,1.33-1.53,2.86-2.52,4.83-2.15,7.05,1.33,11.11-3.13,14.84-7.79,3.28-4.09,7.29-6.81,12.24-8.15,6.93-1.89,15.03,1.76,18.35,8.11.34.65.53,1.38.8,2.06,1.16,2.81,3.5,4.14,6.23,3.46,5.11-1.25,9.45.42,13.88,2.47,1.65.77,3.48,1.19,5.26,1.64,2.92.74,5.52,1.86,7.62,4.24,2.4,2.72,5.49,4.24,9.32,4.13,3.55-.1,6.98.69,10.22,2.25.98.48,2.06.88,3.14,1.05,3.29.52,6.28.03,8.46-2.86,1.12-1.47,2.32-2.89,3.45-4.35,1.59-2.05,3.21-4.08,4.72-6.19,1.34-1.86,2.99-2.77,5.25-2,2.56.87,4.73.04,6.79-1.4,3.17-2.24,6.32-4.51,9.5-6.76,1.52-1.06,3.05-2.1,4.59-3.12,3.77-2.48,7.9-3.29,12.23-2.14,2.45.65,4.68.42,7.06-.22,3.04-.81,6.13-1.42,9.22-1.97,4.81-.84,9.2.42,13.21,3.05,6.08,3.97,11.52,8.73,16.19,14.3,1.65,1.98,3.22,4.11,4.38,6.4,2.1,4.13,5.51,5.82,9.86,6.06,2.59.14,5.19.06,7.78.12,1.47.04,2.96.11,4.42.28,3.58.4,6.38,2.17,7.83,5.47,1.52,3.44,4.12,4.98,7.65,5.61,3.87.69,7.55,1.85,10.19,5.13,1.05,1.31,2.56,1.38,4.06.7,3.4-1.55,6.94-2.53,10.68-2.88,1.04-.09,2.41-.54,2.97-1.31,2.21-3.07,6.67-3.31,8.37-6.95.66-1.42,1.11-2.8.39-4.25-1.98-3.96-.33-6.51,2.83-9,3.04-2.39,5.7-5.28,8.42-8.05,1.85-1.87,3.85-3.34,6.31-4.4,3.74-1.6,7.3-3.63,10.97-5.39,1.32-.63,2.77-1.43,4.16-1.41,3.84.04,7.06-1.86,10.66-2.75.27-.95.88-1.89.73-2.7-.62-3.55,1.21-6.5,2.17-9.63,1.2-3.97,4.15-5.99,8.3-6.1.91-.03,1.84.14,2.75.29,2.16.34,4.1-.16,5.67-1.63,2.91-2.7,6.27-4.53,9.91-6.03,1.85-.76,3.43-2.18,5.17-3.23,2.58-1.55,4.32-1.46,6.61.43,2.51,2.08,4.41,4.5,4.05,8.07-.11,1.1-.12,2.24.04,3.32.39,2.56-.1,4.73-2.03,6.6-2.34,2.26-2.41,4.95-.75,7.59,1.55,2.43,1.92,5.12,2.63,7.8,1.5,5.69,2.87,11.55,7.13,16.07.51.53,1,1.13,1.32,1.78,1.41,2.85,1.73,5.66-.52,8.29-2.05,2.39-4.09,4.79-6.15,7.16-2.13,2.45-2.41,3.21-.35,5.73,1.95,2.4,2.61,4.74,1.76,7.7-.4,1.39-.28,2.94-.42,4.41-.35,3.6.83,6.72,3.71,8.82,3.58,2.61,4.2,5.6,2.76,9.67-1.04,2.93-1.51,6.11-1.96,9.2-.77,5.25-3.71,8.93-8.28,11.07-2.37,1.12-3.44,2.55-3.74,4.95-.23,1.82-.52,3.65-.84,5.46-.7,3.89.74,6.96,3.81,9.19,1.65,1.19,2.45,2.56,2.72,4.55,1.46,10.43,10.72,17.49,19.81,19.21,1.54.29,3.28-.15,4.86-.56,1.23-.31,2.31-1.17,3.5-1.66,4.12-1.71,8.19-2.12,12.23.38,2.51,1.55,5.16,2.87,7.73,4.32.64.37,1.51.7,1.78,1.28,1.4,3.01,3.34,5.56,5.64,7.94.52.53.46,1.75.48,2.65.02,1.47-.24,2.96-.17,4.43.13,2.57-.42,4.79-2.63,6.35-1.8,1.27-2.63,3.13-2.94,5.18-.93,6.07-4.57,9.92-9.88,12.54-1.63.8-3.13,1.89-4.85,2.94.18,1.26.2,1.82.34,2.34,1.07,4.05.7,5.2-2.64,7.4-3.24,2.14-6.5,4.28-9.87,6.23-1.73,1-3.64,1.85-5.58,2.33-4.48,1.1-8.93,2.34-13.66,2.19-3.93-.12-7.23,1.24-9,5.22-.96,2.16-2.89,3.27-5.13,3.93-2.11.62-4.28,1.09-5.75,3.08-.45.62-1.58.84-2.45,1.03-2.12.45-3.64,1.78-5,3.31-1.04,1.17-1.69,2.62-.94,4.08,1.11,2.13.8,4.32.77,6.52-.02.93-.06,1.87.1,2.77.56,3.29,3.88,4.89,6.71,3.05,3.47-2.27,7.11-3.74,11.19-4.62,2.61-.56,5.28-2.02,7.28-3.79,3.95-3.48,8.26-4.96,13.51-5.49,5.35-.55,10.67-.67,16.01-.99,2.47-.14,4.73-.75,6.71-2.32,2.18-1.73,4.56-3.21,6.62-5.05,2.82-2.52,5.95-4.37,9.54-5.5,1.59-.51,3.17-1.04,4.73-1.62,2.51-.95,4.59-2.37,5.59-5.04.32-.86.93-1.6,1.35-2.42,2.12-4.14,5.64-5.67,10.09-5.41,1.66.09,3.31.31,4.96.52,5.44.71,10.71.69,15.42-2.82,2.35-1.75,4.72-1.52,7.16.24,2.85,2.05,5.94,3.78,8.89,5.68,4.74,3.07,7.32,7.16,6.51,13.08-.3,2.17-.17,4.47.2,6.63.67,4.02-.47,7.3-3.23,10.15-.77.79-1.41,1.73-2.21,2.5-2.87,2.76-3.24,6.59-4.3,10.09-.27.9.31,2.16.74,3.15.91,2.03,2.06,3.95,2.98,5.96,1.11,2.38,1.07,4.69-.87,6.68-2.82,2.87-2.99,6.17-1.79,9.78,2.42,7.32,1.59,12.79-7.16,18.21-7.33,4.53-13.6,10.22-18.67,17.23-.97,1.33-2.18,2.53-3.43,3.62-5.3,4.67-9.96,9.93-14.03,15.69-1.02,1.46-2.33,2.25-3.97,2.82-2.79.96-5.49,2.23-8.31,3.13-1.9.61-3.93,1.02-5.93,1.11-2.58.12-5.2-.02-7.76-.34-3.6-.44-6.57.62-9.07,3.15-1.04,1.05-1.99,2.19-2.96,3.31-1.33,1.53-2.48,3.26-3.99,4.58-3.31,2.88-3.6,6.68-3.64,10.61,0,.54.23,1.09.34,1.63.8,3.77.28,7.36-1.53,10.77-.26.49-.46,1.01-.7,1.51-1.9,4.11-1.88,4.73,1.86,7.33,2.45,1.7,4.13,3.51,4.08,6.74-.02,1.15.82,2.38,1.45,3.46.47.78,1.22,1.39,1.87,2.05,1.87,1.92,2.64,3.93.98,6.44-1.68,2.53-1.32,5.32-.64,8.06.36,1.43.97,2.81,1.35,4.24.83,3.21.77,6.21-1.92,8.7-3.17,2.92-3.22,6.47-1.75,10.21.54,1.38,1.32,2.66,1.88,4.02.56,1.36,1.07,2.76,1.45,4.18.43,1.54.11,2.98-1.16,4.03-3.94,3.25-6.52,7.49-8.93,11.91-1.15,2.09-2.71,3.98-4.25,5.81-1.6,1.89-3.71,2.87-6.19,3.43-8.47,1.93-15.99,5.71-22.12,12.02-4.23,4.36-12.04,5.94-17.74,1.98-3.41-2.38-5.29-5.72-4.95-9.96.3-3.64-1-6.56-3.58-8.94-.92-.85-2.14-1.38-3.25-2.03-.32-.17-.69-.29-1.05-.34-.35-.05-.87-.14-1.07.06-2.33,2.25-5.47-.65-7.88,1.28-1.73,1.38-3.91,2.34-5.31,3.98-2.36,2.76-4.94,4.8-8.46,5.95-3.3,1.08-3.72,2.51-2.62,6.1.49,1.59,1.1,3.15,1.78,4.66,1.19,2.69.63,5.07-1.16,7.23-1.91,2.33-4.14,4.25-7.08,5.17-.71.22-1.4.57-2.12.65-4.63.49-8.44,2.1-10.8,6.55-.67,1.27-2.54,2.15-4.05,2.69-4.56,1.66-9.34,2.39-14.2,2.11-1.6-.1-3.25-.71-4.72-1.42-3.07-1.47-5.25-4.06-7.4-6.61-1.64-1.94-1.65-3.97-.42-6.17,1.24-2.21,3.09-4.16,3.47-7.01-3.1-2.28-6.57-2.49-10.08-2.57-2.77-.06-4.96,1.32-7.03,2.94-.29.23-.6.45-.84.72-3.32,3.72-7.48,5.88-12.29,7.13-3.26.85-6.18,2.45-7.74,5.81-.91,1.98-2.79,2.84-4.75,3.58-2.76,1.04-5.51,2.14-8.22,3.35-2.29,1.02-3.98,2.66-4.75,5.15-1.03,3.29-3.37,5.21-6.59,6.18-.88.26-1.95.46-2.54,1.06-2.25,2.33-5.41,2.13-8.13,3.11-1.88.68-3.65.34-5.15-1.1-.8-.76-1.64-1.49-2.45-2.25-1.56-1.49-2.52-3.16-1.96-5.45.66-2.72-.99-4.3-3.16-5.15-3.27-1.28-6.67-2.22-10.02-3.3-1.74-.55-3.35.03-4.77.89-1.25.76-2.28,1.86-3.84,3.18-1.55.02-3.58.01-5.6.1-3.24.12-6.21.89-8.47,3.46-.72.82-1.63,1.52-2.58,2.09-2.66,1.62-4.8,1.4-7.07-.66-.95-.88-1.66-2.05-2.72-2.78-1.65-1.13-3.44-2.12-5.27-2.94-1.63-.73-3.41-.55-4.68.75-3.15,3.22-6.91,3.89-11.17,3.27-2.95-.43-5.49.76-7.62,2.69-1.5,1.37-2.86,2.89-4.22,4.41-1.61,1.79-3.17,3.63-4.73,5.46-2.01,2.37-4.55,3.73-7.61,4.21-1.46.24-2.94.46-4.33.93-5.35,1.82-9.11,6.88-9.4,12.52-.08,1.49-.04,2.97-.11,4.44-.09,1.94-.77,3.67-2.32,4.88-2.25,1.77-4.56,3.41-7.01,4.68-3.58.73-7.05,1.63-10.42,2.72h0ZM10.86,360.17c.54-1.62.72-3.06-.83-4.3q-2.11,2.67.83,4.3h0ZM550.88,508.73c-.7,1.06-1.73,1.44-3.13,1.73.68-1.95,2.02-1.6,3.2-1.64,1.36-.89,2.76-1.71,4.05-2.69.81-.62,1.46-1.44,2.63-2.64-1.99-.38-3.33-.63-4.88-.93.8-2.2,2.63-3.28,4.02-4.71.52-.53,1.12-1.01,1.48-1.63.23-.41.29-1.37.09-1.48-.56-.32-1.53-.69-1.93-.42-1.54,1.01-2.9,2.27-4.34,3.41-.75.6-1.56,1.02-2.78-.05.51-1.7,1.13-3.54,1.59-5.44.08-.34-.42-.92-.79-1.23-.19-.14-.8-.04-1,.17-.52.5-.94,1.11-1.34,1.72-.8,1.23-1.5,2.54-2.36,3.73-.24.33-1.05.5-1.44.36-.44-.15-.99-.77-.99-1.19-.03-1.28.26-2.55.29-3.84.02-.86-.19-1.72-.31-2.69-4.18.68-2.37,5.31-4.94,6.87-1.95-.92-1.81-2.78-2.42-4.25-.25-.58-.87-1.37-1.38-1.41-1.2-.1-1.38.99-1.42,1.93-.06,1.46-.02,2.93-.02,4.6-1.42.84-2.79,1.64-4.45,2.62-.58-1.98-.96-3.54-1.53-5.05-.14-.39-.86-.84-1.26-.79-.43.05-1.13.62-1.13.99-.05,1.83-.03,3.69.19,5.51.16,1.36.23,2.7-.81,3.62-.76.68-1.84,1.3-2.83,1.37-1.3.1-1.73-1.16-2.01-2.26-.5-1.91-.18-4.08-1.48-5.72-1.63-.29-2.3.59-2.2,1.8.18,2.19.64,4.38.94,6.56.15,1.03-.21,1.83-1.28,2.12-1.07.3-1.82-.26-2.25-1.14-.8-1.65-1.46-3.37-2.24-5.04-.12-.25-.72-.53-.93-.43-.45.21-1.18.7-1.13.97.28,1.8.69,3.58,1.14,5.35.45,1.8.22,3.32-1.48,4.34-.28.17-.69.12-1.46.25-.99-1.77-1.98-3.72-3.16-5.54-.3-.45-1.22-.49-1.86-.71-.22.67-.74,1.4-.59,1.96.33,1.23.99,2.37,1.52,3.55.67,1.48,1.34,2.97,2.13,4.72-1.27.58-2.23,1-3.03,1.36-2.22-.85-2.54-2.89-3.59-4.35-.43-.6-.8-1.25-1.27-1.81-.54-.64-1.29-.84-1.91-.25-.33.31-.6,1.06-.45,1.43.78,1.86,1.75,3.65,2.57,5.5.34.75-.85,1.93-1.68,1.67-.68-.22-1.33-.57-1.98-.89-.96-.45-1.91-.91-2.78-1.34-1.94,1.99.71,3.18.08,5.63-.38.62-1.25,2.02-2.07,3.36-2.25-.21-1.15-4.24-4.15-3.38-1.26,2.65.56,5.12.25,7.98-.96.48-2.04,1.04-2.91,1.46-2.02-.8-1.23-2.36-1.61-3.5-.14-.44-.79-1.15-.98-1.08-.62.21-1.45.63-1.61,1.15-.37,1.22-.29,2.57-.58,3.82-.53,2.25-2.13,2.9-5.15,2.2-.48-1.73.94-2.65,1.69-3.86.48-.78,1.1-1.51,1.44-2.35.15-.37-.1-1.14-.41-1.39-.34-.25-1.13-.31-1.49-.08-.76.49-1.38,1.2-2.01,1.87-.61.64-1.16,1.34-2.27,2.65-.17-3.08,1.04-4.9,1.81-6.85.61-1.53,1.19-3.08,1.54-4.68.09-.4-.67-1.12-1.2-1.45-.18-.12-.98.38-1.22.76-.87,1.34-.84,3.28-2.65,3.99-1.39-.84-1.32-2.14-1.19-3.46.16-1.64.4-3.29.51-4.94.02-.23-.42-.73-.65-.73-.49,0-1.27.11-1.41.41-.71,1.49-1.24,3.05-1.83,4.58-3.71.54-3.94.38-4.54-2.7-.17-.89-.32-1.82-.68-2.62-.15-.34-.87-.43-1.66-.77-.58,1.68-1.1,3.19-1.76,5.12-.98-.56-1.76-.88-2.37-1.4-.39-.34-.43-1.04-.79-1.44-.56-.65-1.23-1.58-1.91-1.64-1.12-.09-1.27,1.06-1.35,2.01-.07.73,0,1.62-.4,2.12-.48.62-1.38.92-2.35,1.53-.59-1.73-1.05-3.09-1.45-4.3-1.3-.5-2.17-.16-2.34.91-.29,1.79-.32,3.63-.46,5.37-4.78,1.54-4.81,1.52-6.43-4.51-.65.4-1.31.64-1.74,1.11-.34.38-.54,1.03-.53,1.54.02,3.01-1.52,4.84-4.24,5.9-1.31-.41-.59-1.42-.66-2.22-.06-.68-.25-1.36-.42-2.28-3.32.95-2.52,4.64-4.67,6.01-2.83-1.24-3.25-1.99-2.38-4.31.64-1.72,1.33-3.42,1.92-5.16.08-.25-.19-.88-.41-.93-.46-.13-1.08-.16-1.48.06-.45.25-.77.78-1.04,1.26-.47.8-.82,1.67-1.28,2.47-.58.98-1.26,1.93-2.62,1.47-1.26-.43-1.38-1.54-1.45-2.7-.08-1.27-.3-2.52-.57-3.75-.05-.24-.56-.53-.89-.54-.3-.02-.83.21-.9.45-.48,1.57-.87,3.17-1.4,5.19-1.37.64-3,1.39-4.99,2.31v-5.27c-.74.04-1.4-.13-1.71.12-1.88,1.55-1.73,3.96-2.48,6.02-.56,1.53-1.77,1.72-3.4.57,0-.51-.03-1.22,0-1.93.05-1.07.54-2.21-.58-3.04-.71-.54-1.48.32-2.28,2.52-1.49,4.05-2.07,4.14-4.78.93-.34-.41-.75-.8-1.2-1.07-.28-.16-.77-.17-1.04-.03-.28.14-.64.58-.59.84.23,1.44.56,2.85.91,4.52-.56,1.66-2.01,2.71-3.64,3.48-2.46-.31-1.51-4.47-4.93-3.9.05,1.1-.02,2.19.17,3.21.24,1.27.86,2.47,1.03,3.73.21,1.59-.45,2.84-1.89,3.41-1.73-.4-1.13-1.88-1.67-2.76-.5-.8-.93-1.69-2.06-1.48-1.23.22-1.22,1.23-1.11,2.16.15,1.28.54,2.55.59,3.83.03.81-.37,1.65-.77,3.27-.84-1.19-1.31-1.66-1.54-2.23-.48-1.19-.71-2.5-1.3-3.63-.24-.45-1.16-.69-1.78-.74-.23-.01-.74.82-.74,1.27-.01.91.25,1.81.37,2.72.13.89.23,1.79.36,2.91-1.06.53-2.01.98-2.75,1.33-2.37-.88-2.17-3.23-3.47-4.48-.44-.42-1.41-.73-1.89-.52-.42.18-.75,1.22-.64,1.79.26,1.44,1,2.8,1.13,4.26.07.71-.59,1.71-1.22,2.21-.38.3-1.4.04-1.99-.24-1.22-.59-2.32-2.65-3.71-.99-1.2,1.43.63,2.6,1.43,3.73,1.05,1.48.85,2.74-.41,3.93-.36-.07-.74-.06-1.02-.23-.82-.46-1.7-1.08-2.5-.29-.98.97-.41,2.04.22,3.01.31.46.62.93,1,1.33,1.84,1.99,1.89,4.29,1.35,6.76-2.13.28-1.56-2.4-3.63-2.68-.96-.04-1.42.83-1.36,2.09.03.55.26,1.08.36,1.62q.75,3.69-3.37,5.4c-2.33-.78-.71-3.5-2.45-4.79-3.56.53-1.11,4.12-2.71,5.74-1.87-1.1-.63-3.54-2.06-4.81-1.06-.49-1.89,0-2.11.98-.32,1.4-.32,2.87-.49,4.69-.68-.17-1.49-.13-1.88-.53-.62-.61-1.17-1.48-1.35-2.31-.13-.61.51-1.37.58-2.08.08-.67.09-1.61-.29-1.99-.39-.37-1.34-.37-1.98-.23-.87.19-1.67.68-2.53.95-.14.03-.44-.45-.68-.73.89-2.38,4.15-1.49,5.16-3.65-.12-1.26-.93-1.59-1.92-1.37-1.98.45-3.92,1.08-5.9,1.54-1.04.26-1.93-.4-2.01-1.33-.1-1.03.3-1.98,1.24-2.23,1.22-.34,2.55-.3,3.83-.44.73-.07,1.52-.04,2.19-.29.43-.15.92-.72.97-1.14.04-.41-.34-1.09-.72-1.28-.8-.4-1.72-.6-2.61-.76-1.07-.19-2.16-.24-3.19-.35-.39-2.05.9-2.54,2.17-2.72,2.01-.29,4.06-.21,6.07-.5.52-.07,1.06-.89,1.29-1.47.1-.25-.52-1.03-.95-1.17-1.37-.48-2.81-.77-4.09-1.09-1.03-1.63-.3-2.71.82-3.47.88-.61,1.98-.96,3.03-1.26,1.05-.31,2.22-.28,3.22-.69.5-.2.9-1.02,1.02-1.62.05-.24-.7-.89-1.14-.96-.89-.12-1.82.01-2.74.06-1.22.07-2.44.18-3.65.26-.21-1.57.82-1.87,1.54-2.38.9-.64,1.87-1.17,2.74-1.84.2-.15.29-.79.14-1-.29-.4-.89-1.02-1.16-.93-1.73.57-3.41,1.27-5.08,2.02-1.16.53-2.23,1.45-3.87.06.57-1.13,1.18-2.37,1.95-3.92-.46-.3-1-.93-1.57-.95-.67-.03-1.44.36-2.02.76-1.05.74-1.98,1.63-3.22,2.67-.89-.62-1.73-1.22-2.71-1.9.51-1.71.96-3.26,1.45-4.9-.65-.31-1.18-.8-1.57-.7-.87.22-1.67.73-2.5,1.12-.08.35-.11.71-.22,1.05-.05.15-.24.25-.36.37-.08-.28-.29-.67-.19-.81.18-.25.56-.36.87-.53-.09-.36-.11-.75-.27-1.08-.88-1.8-2.28-2.22-3.31-.95-.69.85-1.4,1.79-1.72,2.8-1.02,3.24-3.72,4.88-5.72,7.1-1.26-.91-.84-1.62-.51-2.23.45-.8,1.01-1.56,1.5-2.33,1.19-1.87,1.34-2.98.46-3.32-1.52-.56-2.44.4-3.32,1.36-.76.82-1.43,1.7-2.34,2.81-3.65-.72-6.89,1-10.13,2.82-.67-1.87.29-2.83,1.39-3.46,1.75-1,3.67-1.72,5.48-2.64.82-.42,1.68-1.07,1.31-2.14-.36-1.02-1.38-1.07-2.34-.94-.52.08-1.04.13-2.12.27.63-1.09,1.01-1.84,1.47-2.53,1.98-2.97,3.11-6.17,3.79-9.72,1.16-5.98,2.9-11.86,4.42-17.77.45-1.73,1.52-3.03,3.26-3.48,5.33-1.38,10.47-3.88,16.21-3.03,1.63.23,3.32.38,4.86.93,4.73,1.7,9.14.67,13.35-1.54,3.7-1.95,6.47-8.34,4.93-12.01-.86-2.05-1.46-4.2-2.06-6.34-1.48-5.18,1.57-9.82,6.88-10.39,3.13-.33,6.28-.65,9.41-.63,3.92.02,7.35-1.03,10.08-3.85,2.06-2.13,4.49-2.4,7.16-1.89,2.36.46,4.61,1.17,6.72,2.48,7.28,4.52,16.17,3.54,22.27-2.64,2.38-2.41,5.06-3.6,8.26-4.07,2.26-.33,4.46-.22,6.56.67,3.41,1.45,6.88,2.79,10.14,4.52,3.04,1.6,5.53,1.53,8.04-.94,1.98-1.94,4.22-3.61,6.29-5.46.68-.62,1.25-1.37,1.75-2.15.51-.8.77-1.76-.05-2.52-.85-.78-1.73-.4-2.44.27-1.88,1.77-3.71,3.62-5.58,5.4-.67.64-1.41,1.21-2.14,1.79-1.28,1.01-2.66,1.16-4.15.45-2.67-1.28-5.45-2.36-8.04-3.79-4.94-2.74-10.08-2.04-15.15-.85-1.65.38-3.34,1.73-4.45,3.11-3.52,4.38-8.23,5.42-13.41,5.23-1.43-.05-3.11-.22-4.23-1-3.74-2.6-7.87-4.03-12.31-4.53.45-3.75,1.45-5.02,4.59-5.01,3.95.01,7.73-.86,11.52-1.72,3.16-.72,5.88-2.25,7.88-4.86.56-.73,1.17-1.55,1.34-2.41.15-.78.02-1.97-.48-2.46-.8-.77-1.86-.18-2.21.74-1.39,3.57-4.37,4.83-7.73,5.62-3.43.8-6.84,1.71-10.41,1.41-3.16-.25-5.24,1.37-6.81,3.92-1.45,2.37-2.96,4.7-4.46,7.04-1.38,2.14-3.3,3.41-5.89,3.71-3.45.38-6.89,1.16-10.15.38-.33-.74-.64-1.09-.59-1.4.52-3.65-.68-6.91-2.04-10.2-1.68-4.08-.7-6.17,3.32-7.85,2.64-1.11,5.39-1.22,8.19-.99,2.98.24,5.91.06,8.77-1.01,2.9-1.09,4.39-3.3,5.03-6.14.12-.55-.3-1.51-.78-1.87-.85-.64-2.05-.29-2.32.63-1.29,4.35-4.67,4.75-8.36,4.72-1.85,0-3.72-.11-5.56.03-3.37.25-6.59,1.04-9.3,3.23-3.07,2.46-3.91,5.12-2.68,8.86.41,1.23,1.06,2.37,1.5,3.59,1.32,3.67.87,6.9-2.38,9.46-1.59,1.24-3.02,2.54-3.84,4.6-1.56,4.01-1.88,7.84-.08,11.83.68,1.51,1.16,3.15,1.42,4.78.57,3.49-.84,6.22-4,7.77-3.07,1.51-6.31,1.85-9.72,1.11-3.24-.7-6.53-1.14-9.81-1.59-.89-.12-1.87,0-2.75.25-3.76.99-7.5,2.06-11.24,3.09-2.11.59-3.67,1.88-4.41,3.9-2.37,6.39-5.72,12.44-6.46,19.41-.2,1.98-1.07,3.92-1.81,5.81-1.08,2.78-3.35,4.15-5.88,5.07-1.12-1.21-.61-2.02-.07-2.77.96-1.36,2.04-2.62,2.92-4,.19-.29-.1-1.14-.43-1.42-.33-.28-1.19-.4-1.46-.16-1.24,1.08-2.31,2.36-3.53,3.46-.74.68-1.65,1.17-2.44,1.71-1.1-1.22-.38-1.95.03-2.76.5-.97,1.07-1.96,1.29-3.01.11-.52-.4-1.33-.87-1.75-.23-.2-1.14,0-1.47.32-.66.62-1.13,1.44-1.68,2.18-.86,1.15-1.74,2.3-2.7,3.57-1.67-.99-.71-2.55-1.28-3.55-.32-.56-1-1.29-1.52-1.29-.53,0-1.21.72-1.54,1.28-.35.61-.33,1.43-.51,2.13-.74,2.75-.75,2.74-4.67,2.74-.18-.76-.47-1.6-.56-2.45-.12-1.28.11-2.72-1.59-3.12-1-.24-1.65.85-2.06,3.29-.09.55-.06,1.13-.23,1.65-.48,1.44-1.49,2.04-3.22,1.63-.25-.74-.46-1.61-.85-2.41-.52-1.1-2.21-1.32-2.68-.29-.69,1.49-1.08,3.11-1.7,4.63-.55,1.35-1.16,2.68-1.92,3.89-.52.82-1.49,1.24-2.39.59-.82-.57-1.07-1.49-.48-2.43.68-1.1,1.42-2.15,2.06-3.27.14-.24.05-.85-.15-1-.41-.29-1.1-.68-1.42-.52-.97.48-1.79,1.25-2.72,1.82-.76.48-1.55.98-2.39,1.23-.4.11-1.15-.22-1.4-.58-.23-.34-.23-1.17.03-1.47.95-1.12,2.15-2.05,3.06-3.19.38-.47.64-1.53.36-1.94-.58-.9-1.73-.76-2.47-.19-1.44,1.14-2.81,2.42-4.08,3.75-1.11,1.16-2.05,2.49-2.95,3.59-1.53-.27-1-1.1-1.1-1.75-.09-.65-.36-1.58-.83-1.8-.49-.22-1.55.02-1.94.44-.99,1.07-1.77,2.35-2.6,3.57-.78,1.17-1.79,1.78-3.31,1.61-.4-1.02-.78-1.99-1.2-3.08-1.19.18-2.24.34-3.27.49-.13-.39-.41-.79-.31-1.05,1.2-3.2,1.24-3.21,4.28-3.13,1.11.03,2.23.27,3.32.14.58-.06,1.1-.68,2.09-1.34-1.4-.78-2.31-1.31-3.25-1.77-.81-.41-1.65-.75-2.37-1.08-.16-1.72.79-2.35,1.99-2.24,2.21.21,4.38.75,6.58,1.01.6.06,1.27-.42,1.9-.65-.24-.62-.29-1.51-.74-1.82-1.32-.91-2.81-1.57-4.3-2.36,1-2.53,2.88-3.14,4.98-3.28,1.84-.11,3.7-.03,5.54-.12.27-.02.76-.44.75-.67-.01-.47-.14-1.21-.47-1.38-1.28-.67-2.65-1.16-3.95-1.7-.56-2.12.39-3.41,1.96-4.23,1.28-.67,2.69-1.07,3.95-1.55.45-1.29-.1-1.81-1.14-2.09-1.55-.4-3.33.81-4.69-.63-.7-1.69,1.02-2.25,1.42-3.38.2-.58.04-1.42-.27-1.98-.15-.29-1.01-.38-1.48-.28-.7.16-1.35.57-2.32,1-.37-.56-.69-1.17-1.12-1.67-.92-1.1-2-.84-2.93-.1-3.89,3.15-7.48,1.9-11.29-.5,1.43-3.02,4.2-.85,5.88-1.92,1.38-1.5-.49-2.21-.91-3.08,1.2-1.39,2.17-1.04,2.87.03.78,1.19.91,2.88,3.06,3.31.28-.49.75-1.03.89-1.64.23-1.04.26-2.13.37-3.16,2.55-1.26,4.48-1.05,5.82,1.43.54.98,1.05,2,2.82,1.62.03-1.54.01-3.16.12-4.76.1-1.41.65-2.5,2.51-2.46.71,1.62,1.38,3.31,2.22,4.93.19.37.96.7,1.35.6.39-.1.86-.71.92-1.16.14-.9-.1-1.87.06-2.76.11-.65.61-1.22,1.17-2.27,1.11,1.57,1.86,2.8,2.79,3.9.42.49,1.18.67,1.79,1,.27-.6.78-1.2.77-1.8,0-1.28-.32-2.54-.41-3.81-.01-.24.46-.74.69-.73.47.04,1.22.24,1.32.53.27.86.16,1.84.43,2.71.18.6.73,1.09,1.08,1.59,2.53-1.15,1.62-3.86,3.29-5.51,1.94.24,2.11,2.92,4.36,3.36.24-.49.88-1.16.75-1.62-.46-1.57-1.19-3.08-1.85-4.71.9-2.17,1.81-4.36,2.79-6.73,1.85.72,3.52,1.37,5.05,1.98,1.21-.89,1.14-1.84.4-2.51-1.22-1.1-2.74-1.9-3.91-3.05-.55-.53-.93-1.71-.72-2.38.23-.72,1.26-1.67,1.92-1.66,1.62.02,3.29.38,4.83.9,1.54.54,2.96,1.43,4.29,2.1,1.29-.8,1.2-1.71.55-2.46-.84-.98-1.86-1.79-2.77-2.66,1.73-2.5,2.75-3.04,4.86-2.31,1.37.47,2.65,1.21,3.77,1.75,1.42-.62,1.55-1.55.91-2.34-.8-.98-1.88-1.74-2.84-2.59,2.58-2.59,4.14-3.47,8.08-4.74,1.4-.47,2.78-.98,4.11-1.62.37-.18.78-1.1.63-1.34-.35-.54-1.08-1.25-1.57-1.19-1.45.16-2.91.55-4.28,1.06-1.89.69-3.69,1.59-5.5,2.38-.9-.91-.28-1.5.36-1.83,4.92-2.61,8.83-6.67,13.83-9.25,4.74-2.45,5.78-6.85,3.58-11.9-.73-1.68-1.66-3.26-2.61-5.09,2.98-2.91,6.49-4.45,10.45-4.67,3.17-.17,6.3-.42,9.24-1.64,1.55-.65,2.88-.41,4.24.35,1.3.71,2.68,1.3,3.87,2.18,5.25,3.84,10.46,2.88,15.64-.05,1.44-.81,2.76-1.87,4.11-2.85,1.87-1.35,3.84-1.43,5.73-.24,2.19,1.37,4.41,2.77,6.36,4.46,3.98,3.46,10.53,2.92,14.64-1.2.38-.38.67-.89.87-1.39.11-.29.07-.85-.13-1.01-.38-.32-1.01-.74-1.39-.63-.87.26-1.67.77-2.45,1.27-3.77,2.43-7.33,2.04-10.79-.66-1.32-1.02-2.65-2.01-4.04-2.95-3.98-2.7-7.21-2.64-11.26.11-1.23.84-2.42,1.75-3.72,2.42-4.26,2.2-8.48,2.52-12.56-.49-1.03-.76-2.06-1.51-3.4-2.48.65-1.21,1.05-2.45,1.84-3.34,1.96-2.23,2.94-4.67,2.5-7.64-.11-.72-.11-1.48-.07-2.22.22-4.29,1.76-5.86,6.14-6.33.55-.06,1.12-.1,1.67-.04,4.3.47,6.83-1.87,8.97-5.26,1.77-2.79,3.85-5.41,6.03-7.91,1.65-1.88,2.71-2,4.91-.73,2.61,1.5,5.36,2.4,8.25,3.16,5.35,1.4,10.26.44,15.01-2.05,1.31-.68,2.54-1.55,3.86-2.2,2.71-1.36,4.65-.76,5.83,2.03.7,1.67,1.13,3.53,1.31,5.34.63,6.49,2.19,7.47,8.06,4.27,2.49-1.35,4.89-1.48,7.48-1.05,2.19.36,4.36.89,6.55,1.25,3.88.65,8.33-1.96,9.65-5.73.19-.53-.18-1.58-.64-1.91-.38-.27-1.42-.01-1.9.37-.71.54-1.14,1.44-1.77,2.1-1.22,1.29-2.72,1.88-4.52,1.59-1.83-.3-3.7-.43-5.48-.92-3.91-1.1-7.64-1.41-11.11,1.29-.39.3-1.06.24-1.61.3-.16.01-.33-.13-.63-.24-1.35-.99-.83-2.61-1.04-4.02-.47-3.28-1.92-5.98-4.63-7.91-1.95-1.37-4.04-1.81-6.21-.36-1.08.72-2.21,1.35-3.31,2.04-6.64,4.12-13.4,3.33-20.2.46-.5-.21-.95-.57-1.43-.86-2.85-1.72-5.56-1.86-8.14.55-.33.3-.87.4-1.66.74,1.01-7.65-2.91-13.39-6.27-19.31-.83-1.45-1.87-2.78-2.55-4.29-.88-1.92-.38-3.68,1.26-4.96,1.92-1.5,3.99-2.49,6.6-2.48,3.88.01,7.82,0,11.63-.66,4.76-.83,9.16.2,13.64,1.41,4.81,1.31,9.66,2.5,14.52,3.61,2.92.66,5.58.07,7.38-2.57,2.08-3.05,4.08-6.16,6.14-9.24,1.12-1.68,1.21-3.51.63-5.33-.72-2.29-1.59-4.53-2.41-6.79-1.02-2.81-.69-4.16,1.95-5.5,3.63-1.85,7.39-3.42,11.09-5.13,1.35-.62,2.74-1.17,3.97-1.97.72-.47,1.37-1.32,1.64-2.13.18-.53-.26-1.4-.68-1.91-.26-.32-1.13-.48-1.5-.28-1.46.77-2.78,1.83-4.26,2.57-3.14,1.59-6.37,3-9.52,4.56-1.48.73-3.02,1.46-4.3,2.5-2.49,2.05-2.95,4.48-1.74,7.45.07.16.14.34.23.5,1.43,2.82,3,5.73,2.14,8.98-1.02,3.83-3.55,6.88-6.11,9.82-1.03,1.19-2.52,1.45-4.08,1.04-5-1.33-10.01-2.58-14.98-3.98-5.22-1.47-10.41-2.33-15.89-1.25-3.05.61-6.26.44-9.4.56-4.35.17-7.78,2.16-10.53,5.39-1.58,1.86-1.79,4.03-.8,6.26.46,1,1.03,1.97,1.6,2.93.97,1.57,1.94,3.15,2.96,4.7,2.16,3.29,4.27,6.9,4.4,10.68.14,4.14-1.14,8.38-2.15,12.5-.67,2.73-2.54,4.39-5.7,4.26-1.82-.07-3.66.26-5.62.42-.27-.39-.85-.85-.83-1.25.23-4.04-2.29-6.14-5.47-7.54-2.01-.88-4.21-1.5-6.38-1.75-5.83-.68-8.6-4.96-4.36-10.1.59-.71,1.06-1.53,1.65-2.23,1.41-1.68,1.83-3.57,1.46-5.71-.38-2.19-.34-4.5-1.06-6.56-1.21-3.44.1-5.88,2.67-7.73,3.75-2.7,7.51-5.45,12.22-6.39,1.26-.25,2.55-.61,3.7-1.17,1.48-.73,2.95-1.57,4.21-2.63,2.23-1.87,2.58-3.77,1.35-6.44-.76-1.69-1.69-3.3-2.59-4.92-1.67-3.05-2.17-5.93,1.07-8.37.4-.3.63-.91.77-1.43.08-.3-.06-.8-.28-.99-.39-.33-1-.76-1.39-.66-2.54.64-4.75,3.4-4.99,6.05-.19,2.1.23,4.04,1.35,5.85.89,1.42,1.84,2.8,2.56,4.29,1.02,2.09.65,3.6-1.32,4.74-1.57.92-3.29,1.8-5.05,2.21-5.44,1.24-9.7,4.53-13.95,7.78-3.36,2.56-4.88,5.94-3.4,10.29.53,1.55.61,3.27.88,4.9.46,2.72-.12,5.11-2.07,7.17-.76.79-1.33,1.79-1.89,2.73-2.76,4.68-.44,10.33,4.88,11.79,1.78.49,3.66.65,5.44,1.13,1.6.42,3.22.9,4.67,1.67,1.84.97,2.35,2.54,1.84,4.73-.56,2.33-1.3,4.63-1.79,6.98-.41,1.97-.76,3.99-.81,5.99-.14,5.2-2.01,7.69-6.92,9.35-3.33,1.12-6.62,1.99-10.16,2.36-4.1.43-7.49,3.08-10.95,5.19-1.4.86-1.62,2.44-.82,3.94.43.81,1.1,1.5,1.5,2.33.73,1.48,1.39,3,1.99,4.54.85,2.24-.01,4.06-1.77,5.37-1.32.98-2.85,1.74-4.35,2.44-4.22,1.95-8.37,3.95-11.29,7.73-1.46-1-.59-1.83-.19-2.42.83-1.22,1.94-2.24,2.74-3.49.3-.47.05-1.29.06-1.96-.68.04-1.53-.18-2,.15-1.05.73-1.94,1.69-2.82,2.62-.6.65-1.07,1.42-2.28,3.05.18-1.95.42-2.83.28-3.63-.11-.63-.57-1.44-1.1-1.69-.96-.45-1.92.14-2.26,1.04-.44,1.17-.63,2.46-.78,3.72-.28,2.42-1.31,4.18-4.11,4.94v-5.25c-.97.06-1.96-.14-2.17.17-.69,1.05-1.21,2.25-1.59,3.46-.43,1.41-.48,2.93-.98,4.3-.42,1.12-1.4,1.7-2.66,1.05-1.4-1.2.44-4.44-2.18-4.34-1.94.07-1.3,2.67-1.78,4.15-.17.53-.3,1.08-.54,1.56-.41.85-2.23,1.24-2.94.54-.74-.75-1.28-1.67-2.25-2.97-.64,1.18-1.29,1.89-1.38,2.66-.17,1.46.09,2.96-.02,4.44-.17,2.53-.98,3.19-4.63,3.87-.36-1.16-.74-2.35-1.12-3.54-.79-2.43-1.65-3.32-2.71-2.74-1.64.93-.69,2.23-.36,3.41.29,1.04.64,2.07,1.01,3.28-1.93,1.15-3.65,1-5.49.52-.66-1.78-1.24-3.5-1.98-5.17-.16-.36-1.08-.81-1.31-.68-.53.32-1,.93-1.2,1.52-.16.46.15,1.08.18,1.63.08,1.26.46,2.65.07,3.75-.52,1.44-2.03,2.05-3.51,2.3-1.89-.51-1.36-2.54-2.36-3.54-.43-.43-1.36-.77-1.88-.6-.54.18-1.15,1.03-1.16,1.61-.03,1.06.34,2.13.61,3.46-1.57.86-3.17,1.73-4.92,2.68-1.11-1.09-2.07-2.17-3.19-3.08-.29-.24-1.14-.11-1.5.16-.36.27-.7,1.07-.56,1.39.7,1.51,1.74,2.86,2.34,4.39.45,1.14.71,2.52.53,3.71-.23,1.5-1.3,2.61-3.18,3.03-1.07-1.6-2.13-3.3-3.38-4.84-.29-.35-1.32-.31-1.92-.13-.28.09-.58,1.03-.44,1.42.57,1.52,1.33,2.99,2,4.44-3.4,2.26-3.69,2.27-5.73.2-.51-.52-.92-1.2-1.53-1.56-.38-.24-1.14-.21-1.53.03-.38.23-.78.97-.67,1.33.36,1.23.95,2.39,1.44,3.56q-2,2.69-4.72,1.93c-.52-.14-1.21-.43-1.55-.21-.54.32-1.25,1.08-1.18,1.55.12.84.7,1.64,1.21,2.37,2.41,3.55,2.4,4.97-.31,9.73-.78-1.13-1.38-2.24-2.24-3.11-.41-.4-1.44-.63-1.93-.4-.47.21-.97,1.23-.84,1.74.39,1.6,1.07,3.13,1.63,4.63q-1.94,2.53-4.49,1.38c-1.48-.67-2.49-.3-3.28,1.03-1.02,1.71-.89,3.51-.73,5.39.3,3.45-.1,3.95-3.28,4.34-.89.1-1.8,0-2.73,0-.88-2.22.79-3.21,1.62-4.52.65-1.04,2.03-1.85,1.04-3.37-.65-1-2.07-.53-3.64,1.24-.96,1.08-1.87,2.21-2.79,3.31-2.65-1.85-3-3.1-1.41-4.75.99-1.02,2.07-1.95,3.61-3.39-1.33-.24-2.09-.65-2.59-.43-1.36.55-2.59,1.43-3.93,2.03-.38.17-1.17,0-1.49-.29-.63-.62-.34-1.4.31-1.86,1.05-.76,2.17-1.4,3.26-2.1.62-.4,1.32-.73,1.81-1.26.32-.35.56-1.31.39-1.43-.51-.41-1.38-.92-1.83-.73-1.87.79-3.63,1.81-5.43,2.74-1.53-.42-1.62-1.56-.97-2.57.77-1.2,1.81-2.3,2.91-3.23,1.23-1.05,2.68-1.88,3.89-2.7-.2-1.47-.88-2.16-1.91-1.78-1.55.57-2.97,1.48-4.51,2.1-.39.16-1.3-.07-1.44-.38-.25-.56-.41-1.54-.1-1.93,1.04-1.27,2.37-2.33,3.47-3.57.28-.32.33-1.15.1-1.51-.23-.36-1.08-.7-1.41-.55-1.16.54-2.19,1.32-3.29,1.95-.78.45-1.57.91-2.41,1.2-.87.28-1.96-.69-1.82-1.56.14-.92.45-1.8.62-2.71.29-1.59-.1-2.7-.97-2.76-1.11-.1-1.65.64-2.02,1.53-.44,1.01-.74,2.1-1.25,3.09-.31.6-.88,1.07-1.7,2.02-.67-1.72-1.13-3.04-1.7-4.3-.31-.69-1.55-.68-1.86,0-.3.64-.43,1.37-.67,2.06-.16.48-.4.95-.8,1.85-1.49-1.4-2.75-2.65-4.12-3.78-.34-.28-1.33-.31-1.49-.08-.38.53-.73,1.38-.56,1.94.28.84.95,1.57,1.55,2.27,1.51,1.74,1.54,3.65.88,5.97-1.33-.09-2.57-.26-3.81-.21-.45.01-1.21.53-1.23.87-.06.62.12,1.51.56,1.88.83.7,1.96,1.04,2.86,1.66.55.38.91,1.04,1.41,1.62-4.34,2.16-4.39,2.45-.99,5.44.41.36.89.68,1.29,1.06,1.34,1.3,1.35,1.59.22,4.39-1.84.47-1.62-1.72-2.73-2.15-.48-.19-1.25-.43-1.48-.22-.47.43-1.07,1.35-.89,1.75.87,2.02,1.97,3.94,3.02,5.96-.22,1.48-1.43,1.34-2.52,1.34-1.26,0-2.05-.68-2.51-1.81-.61-1.54-1.17-3.12-1.88-4.61-.19-.39-1.01-.88-1.27-.77-.58.29-1.37.9-1.39,1.41-.05,1.27.28,2.55.45,3.83-2.16,1.82-2.15,1.86-5.63,2.06.11-1.46.24-2.88.33-4.3.06-.91.19-1.84.05-2.72-.06-.41-.65-.96-1.09-1.05-.39-.07-1.12.27-1.3.64-.4.8-.58,1.72-.79,2.61-.43,1.79-.83,3.58-1.31,5.6-.92,0-1.65.14-2.29-.03-1.26-.34-1.8-1.27-1.4-2.54.34-1.05.85-2.05,1.25-3.09.43-1.11.51-2.18-.63-2.94-.81-.54-1.66.03-2.39,1.55-.63,1.34-1.13,2.78-2,3.94-.43.58-1.58.91-2.36.85-1.2-.1-2.15-1.05-1.86-2.29.5-2.14,1.39-4.19,1.95-6.32.13-.52-.3-1.32-.72-1.76-.17-.19-1.22.03-1.44.36-.92,1.36-1.68,2.82-2.48,4.26-.52.95-1.02,1.9-1.64,3.08-2.23-.63-4.29-1.19-6.38-1.77.44-2.76,2.61-3.84,3.9-5.56.28-.36.37-1.4.23-1.47-.59-.28-1.52-.65-1.93-.38-1.38.9-2.65,1.99-3.84,3.15-.91.88-1.64,1.95-2.56,3.06-2.23-1.25-2.14-3.38-2.78-5.49,1.03-1.03,2.02-2.11,3.11-3.07.97-.85,2.18-1.45,3.06-2.38.56-.6.9-1.56.98-2.4.07-.69-1.78-.72-2.89.02-1.23.81-2.43,1.68-3.68,2.45-.58.36-1.65-.41-1.5-1.12.21-1.05.43-2.21,1.03-3.03,1.11-1.47,2.55-2.68,3.77-4.07.68-.79.71-1.65-.36-2.32-2.86.14-3.77,3.37-6.66,4.21-.17-1.43-.33-2.78-.47-4-1.19-.8-2.04-.44-2.4.52-.84,2.25-1.65,4.52-2.2,6.85-.46,1.94-1.43,3.31-3.45,4.56.25-2.14.49-3.86.64-5.6.02-.29-.34-.82-.58-.86-.5-.08-1.3-.07-1.5.23-.7,1.06-1.33,2.22-1.76,3.42-.61,1.74-.97,3.56-1.51,5.32-.32,1.06-1.68,1.66-2.72,1.25-1.07-.42-1.25-1.37-.93-2.29.43-1.21,1.08-2.35,1.63-3.52.46-.97.92-1.96,1.31-2.81-1.04-1.42-2.19-1.35-2.97-.41-.92,1.12-1.54,2.5-2.21,3.81-.74,1.43-1.38,2.92-2.22,4.74-1.61-.7-2.86-1.23-4.46-1.92,1.41-2.04,2.62-3.63,3.62-5.35.26-.45.05-1.58-.34-1.87-.41-.31-1.49-.24-1.93.1-.85.67-1.47,1.63-2.17,2.49-.91,1.12-1.81,2.25-2.67,3.32-3.8-1.74-4.02-2.39-2.13-5.22.8-1.21,1.51-2.48,2.17-3.77.11-.2-.15-.73-.4-.93-.24-.19-.72-.3-1-.19-.5.19-.98.52-1.37.89-.88.85-1.71,1.76-3.1,2.29.35-.77.68-1.56,1.07-2.3.5-.98,1.19-1.91,1.56-2.94.21-.59.22-1.65-.14-1.98-.89-.81-1.72-.02-2.29.68-.7.85-1.22,1.85-1.87,2.75-.53.71-1.12,1.38-2.13,2.63-.74-.7-1.22-1.18-1.79-1.7,1.38-1.9,2.48-3.16,3.26-4.57.39-.73.41-1.82.2-2.64-.11-.41-1.19-.92-1.69-.79-.61.16-1.13.87-1.59,1.42-.7.86-1.41,2.02-2.61.91-1.1-1.04-.06-2.04.54-2.91.84-1.22,1.83-2.34,2.6-3.6.22-.35.14-1.28-.14-1.47-.53-.38-1.38-.71-1.96-.54-1.92.54-2.85,2.28-3.86,3.81-1.21,1.85-2.77,2.97-5.03,2.87-.47-.02-.93-.38-1.31-.54-.34-1.5.97-2.06,1.31-3.05.2-.6.29-1.48-.02-1.97-.59-.92-1.69-.84-2.46-.28-1.34.96-2.53,2.11-3.74,3.14-2.05-.16-3.04-1.38-3.81-3.15.93-.82,1.86-1.64,2.71-2.38.17-1.66-.78-2.23-1.99-2.08-1.43.18-2.82.72-4.17,1.09-1.58-.99-1.8-2.35-1.34-4.28.79,0,1.67-.16,2.47.04,1.24.32,2.42.92,3.63,1.37,1.51.54,2.76.34,2.87-.45.16-1.36-.8-2.03-1.8-2.51-1.64-.82-3.34-1.49-5.06-2.23,2.16-2.32,3.05-2.63,5.4-1.48,2.16,1.07,4.21,2.35,6.35,3.43.37.19,1.38-.05,1.44-.27.16-.61.23-1.57-.12-1.91-1.19-1.14-2.57-2.08-3.85-3.07,1.03-3.33,1.94-3.82,4.48-2.58,1.64.81,3.29,1.58,4.97,2.29.21.1.74-.22.9-.48.15-.26.2-.84.02-1.03-.75-.8-1.59-1.51-2.4-2.24-.91-.82-1.82-1.63-2.72-2.43,1.01-1.84,2.39-1.52,3.55-1.14,2.26.71,4.46,1.64,6.53,2.43,1.23-.92,1.16-1.84.33-2.47-1.45-1.13-3.07-2.04-4.57-3.11-.22-.15-.36-.76-.23-.98.25-.42.74-1,1.1-.98,1.09.05,2.17.44,3.27.5.67.04,1.35-.29,2.21-.5-1.13-3.93-5.84-2.32-7.34-5.28.61-1.54,2.1-1.36,3.26-1.49,1.45-.16,2.96.21,4.41.1.55-.03,1.43-.76,1.45-1.21.03-.54-.58-1.41-1.11-1.62-1-.4-2.16-.52-3.25-.59-1.44-.09-2.9-.02-4.75-.02.13-1.26-.03-2.28.38-2.89.57-.85,1.49-1.6,2.43-2.01,1.15-.5,2.5-.52,3.71-.94.32-.11.52-.86.56-1.34.03-.27-.32-.78-.59-.84-1.6-.34-3.23-.6-4.89-.88-.48-2.06,1.93-2.52,2.25-4.07.1-.47,0-1.16-.31-1.48-.3-.34-1.11-.63-1.43-.46-1.1.63-2.17,1.38-3.1,2.24-1.35,1.27-2.54,2.71-3.87,3.98-.52.5-1.22.98-1.89,1.05-.63.06-1.54-.26-1.92-.73-.34-.44-.41-1.46-.13-1.96.52-.95,1.42-1.69,2.1-2.56.96-1.21,1.04-2.33.22-2.95-1.15-.88-2.06-.14-2.93.56-.69.56-1.33,1.19-1.86,1.66-1.65-.46-2.16-1.32-1.74-2.59.29-.86.9-1.62,1.13-2.51.1-.39-.24-1.1-.6-1.38-.36-.28-1.07-.39-1.5-.21-.66.25-1.3.72-1.8,1.25-2.52,2.68-5.16,2.23-7.92.5-.02-1.38,1.07-1.42,1.83-1.71,1.02-.39,2.53-.55,2.27-1.93-.32-1.67-1.92-1.31-3.21-1.23-.87.06-1.76.01-2.54.01-.78-1.71.29-2.34,1.32-2.64,1.59-.47,3.28-.61,4.91-.96.7-.15,1.4-.42,2.02-.76.24-.13.38-.63.36-.95-.01-.3-.28-.83-.48-.85-1.81-.17-3.65-.15-5.46-.39-.59-.08-1.42-.71-1.55-1.23-.15-.57.2-1.5.65-1.95.63-.63,1.57-.94,2.37-1.4,1.11-.65,2.31-1.22,3.26-2.06.4-.35.57-1.49.29-1.91-.29-.46-1.35-.83-1.87-.65-1.56.54-3.01,1.42-4.55,2.04-.59.23-1.31.12-2.14.18-.19-2.39,2.04-2.85,2.51-4.36.15-.48.25-1.35.01-1.51-.53-.37-1.53-.75-1.9-.5-1.99,1.33-3.85,2.86-6,4.5-1.51-.88-3.06-1.78-4.49-2.62-.15-2.14,1.63-1.98,2.46-2.77.43-.42.85-1.37.64-1.8-.24-.52-1.23-1.13-1.72-1-1.41.34-2.76.98-4.08,1.6-2.94,1.39-4.95.61-5.98-2.43-.11-.33-.1-.76-.02-1.09.09-.34.35-.62.59-1.03,1.71-.79,3.56-.34,5.38-.25,1.59.08,2.69-.53,2.54-1.37-.26-1.35-1.37-1.62-2.48-1.78-.91-.13-1.86-.06-2.76-.23-.89-.16-1.74-.49-2.52-.73q-.49-3.01.29-5.42c1.74-.55,3.17.44,4.7,1.02.93.35,2.06.47,2.32-.56.15-.61-.55-1.77-1.19-2.19-1.21-.81-2.7-1.19-3.99-1.88-1.63-.86-1.16-2.02-.2-3.47,1.99.76,3.93,1.51,6.23,2.39.77-3.07,1.84-5.59,1.59-8.42-.06-.73-.08-1.47,0-2.2.09-.91,1.28-1.64,2.08-1.14.52.31,1.15,1.17,1.06,1.65-.32,1.62-1,3.18-1.41,4.79-.36,1.4-.85,2.86.27,4.38,2.88-.17,1.87-3.77,4.29-4.78.63.5,1.41,1.11,2.25,1.77-.87,1.91-1.69,3.55-2.33,5.25-.12.3.38.95.73,1.29.18.17.75.11,1.02-.04.47-.27.94-.62,1.27-1.05,2.05-2.73,4.55-2.65,7.55-1.27-.16,1.84-.33,3.62-.48,5.28,1.02,1.03,1.96.78,2.42-.12.82-1.65,1.34-3.43,2.05-5.13,1.12-2.69,1.85-3.03,5.92-2.77v5.74c1.22,1.33,2.17.93,2.71-.28.73-1.66,1.23-3.42,1.81-5.12,2.88-.35,4.53.75,5.18,3.29.23.89.17,1.87.47,2.73.22.61.74,1.46,1.24,1.55,1.25.23,1.42-.9,1.52-1.8.14-1.46.17-2.93.24-4.22,1.5-1.66,3.07-2.39,5.44-1.97.67,1.57,1.32,3.27,2.13,4.88.17.34.98.63,1.38.52.4-.11.95-.8.9-1.16-.28-2.16-.71-4.3-1.09-6.48,1.04-.95,1.75-.05,2.21.62,1.34,1.99,2.49,4.11,3.82,6.1.2.3,1.08.45,1.42.26.38-.22.72-.9.69-1.36-.04-.72-.31-1.46-.64-2.12-.83-1.65-1.78-3.25-2.61-4.9-.29-.6-.36-1.31-.59-2.23,4.3-.71,6.8,3.34,10.44,3.33.93-.99.71-1.87-.12-2.46-1.35-.96-2.89-1.65-4.23-2.63-.47-.34-.96-1.33-.78-1.73.22-.51,1.13-1.01,1.73-.99,1.66.06,3.29.4,4.94.62.54.07,1.13.28,1.63.14.45-.11,1.03-.55,1.14-.95.1-.38-.21-1.18-.55-1.33-2.01-.88-4.09-1.62-6.34-2.48-.78-1.94-1.58-3.96-2.57-6.46,1.49,0,2.51-.02,3.52,0,1.45.04,2.92.21,4.36.12.36-.02.9-.75.94-1.19.03-.39-.44-1.09-.82-1.21-1.22-.37-2.53-.49-3.78-.78-1.21-.29-2.4-.67-4-1.11.53-1.83.97-3.34,1.43-4.94,2.88-.64,5.52-1.23,8.67-1.94-.86-.9-1.23-1.61-1.8-1.82-.83-.31-1.8-.26-2.72-.38-3-.42-3.14-.62-2.97-4.78,1.41-.54,2.95-1.11,4.45-1.76.21-.1.35-.64.32-.96-.03-.31-.27-.79-.5-.86-.88-.23-1.78-.37-2.69-.46-1.09-.11-2.21-.04-3.27-.27-.36-.07-.68-.77-.83-1.24-.08-.25.17-.8.42-.92.98-.48,2.06-.76,3.01-1.3.36-.2.71-.92.63-1.31-.1-.44-.61-.98-1.05-1.13-.67-.23-1.48-.33-2.17-.18-1.26.27-2.66.5-3.67,1.21-3.36,2.38-6.72.94-10.09.27-.25-.05-.62-.62-.56-.86.12-.47.45-1.19.78-1.24,1.27-.21,2.58-.14,3.86-.28.84-.1,1.66-.4,3.01-.75-.89-.87-1.31-1.61-1.88-1.76-1.24-.34-2.55-.38-3.83-.55-2.17-.31-3.08-1.05-3.1-2.49-.02-1.62,1.16-2.55,3.6-2.51,2.22.04,4.43.32,6.65.48.54.04,1.11.18,1.64.09.28-.05.6-.45.69-.76.1-.29.04-.83-.16-.96-.75-.51-1.52-1.05-2.37-1.29-1.75-.47-3.62-.54-5.12-1.73,1.71-3.29,2.69-3.9,5.38-3.12,1.6.45,3.09,1.25,4.69,1.72.59.18,1.33-.13,2.67-.3-1-1.08-1.45-1.89-2.15-2.28-1.78-.99-3.66-1.77-5.49-2.68-.8-.39-.83-.68-.59-3.17.66,0,1.38-.11,2.04.03,1.45.29,2.87.83,4.32,1.01.81.1,1.79-.12,2.5-.53.67-.39-.25-1.62-1.76-2.23-1.88-.77-3.83-1.4-5.64-2.31-1.11-.57-1.33-1.7-.44-3.15.54.07,1.25.05,1.88.27,1.56.55,3.07,1.28,4.65,1.79.41.13,1.2-.13,1.45-.47.49-.67.15-1.33-.5-1.87-1.66-1.36-4-1.84-5.37-4.07,1.79-1.35,3.58-1.23,5.33-.53,1.9.75,3.7,1.71,5.58,2.51.66.28,1.41.42,2.13.47.26.02.68-.31.81-.58.12-.28.09-.79-.1-1.01-.46-.56-1-1.09-1.59-1.51-1.35-.94-2.76-1.81-4.13-2.7,1.78-3.68,2.23-3.85,5.18-2.09,1.12.65,2.17,1.43,3.32,1.99.38.18,1.17.02,1.46-.28.25-.27.29-1.13.04-1.43-.8-1-1.76-1.87-2.69-2.76-.66-.64-1.39-1.21-1.99-1.73-.48-1.86.23-2.99,1.93-3.86.91,1.01,1.84,2.04,2.63,2.93,1.55-.25,1.83-1.1,1.61-2.08-.36-1.62-.91-3.2-1.27-4.83-.11-.5-.05-1.2.23-1.58.41-.55,1.08-1.2,1.66-1.22.55-.03,1.4.56,1.67,1.1.82,1.65,1.4,3.42,2.14,5.12.39.89,1.04,1.5,2.54,1.07-.22-2.03-.45-4.12-.7-6.52,2.65-.23,4.62.14,5.75,2.56.7,1.51,1.36,3.05,2.22,4.47.41.67,1.25,1.08,1.91,1.61,1.83-1.9-.27-3.36.05-5.07.4-.15.89-.5,1.36-.49,1.85.07,2.94,1.45,4.06,2.66,1,1.08,1.85,2.32,2.93,3.31.37.34,1.25.13,1.84.18.77-2.84-2.64-4.35-1.58-7.09,3.91-.03,5.16,5.23,9.25,4.8.24-3.19-2.87-4.04-3.58-6.35.35-1.65,1.4-2.05,2.88-1.51.86.32,1.66.81,2.49,1.22.9.46,2.03.64,2.37-.37.2-.6-.42-1.85-1.03-2.28-1.5-1.05-3.22-1.8-4.83-2.68-1.41-.78-2.21-1.89-1.95-3.88,2.36-.24,4.65-.47,7.5-.76-2.52-3.88-6.4-2.13-9.61-3.79-.33-.7-.84-1.82-1.38-2.99.63-.43,1.03-.94,1.5-1,2.02-.27,4.05-.34,6.06-.64.6-.1,1.51-.68,1.6-1.16.21-1.15-.84-1.57-1.77-1.59-2.39-.09-4.78-.04-7.13-.03-.5-4.1-.11-4.68,3.12-4.96,1.28-.12,2.59-.12,3.85-.34.41-.08,1.1-.85,1.02-1.03-.25-.56-.74-1.34-1.24-1.42-1.45-.25-2.95-.22-4.42-.26-.93-.02-1.88.17-2.77-.02-.64-.13-1.48-.61-1.68-1.14-.15-.39.45-1.37.97-1.65,1.61-.89,3.36-1.54,5.01-2.37.65-.32,1.28-.8,1.73-1.36.29-.36.52-1.26.32-1.44-.47-.43-1.3-.93-1.79-.77-1.4.43-2.67,1.23-4.05,1.79-1.02.41-2.09.78-3.17.95-.4.06-1.13-.41-1.31-.82-.27-.62-.52-1.69-.19-2.05.96-1.09,2.25-1.87,3.3-2.89.32-.3.53-1.25.33-1.46-.44-.45-1.18-.84-1.79-.83-.69,0-1.43.36-2.04.75-2.18,1.37-4.27,1.7-6.82.67-1.63-.66-3.64-.3-5.47-.49-1.03-.12-2.03-.44-3.2-.69.35-.61.48-1.07.67-1.09,1.47-.17,2.94-.27,4.41-.37,1.09-.06,2.29.13,2.82-1.19.37-.91-.83-1.94-2.69-2.05-2.19-.13-4.41-.03-6.79-.03-.74-1.6-1.02-2.91.03-4.7,1.25.13,2.65.31,4.07.41,1.1.07,2.22.13,3.31,0,.41-.05,1-.58,1.08-.98.08-.39-.29-1.2-.62-1.3-1.76-.54-3.57-.89-5.36-1.36-1.01-.27-2-.65-3.03-1,1.32-2.88,1.73-3.19,3.53-2.62,1.94.62,3.83,1.37,5.78,1.93.4.12,1.37-.33,1.38-.54.02-.65-.08-1.64-.51-1.9-1.55-.97-3.25-1.7-5.14-2.63.68-2.31,2.16-3.79,3.81-5.19,3.06.08,4.09,3.28,6.63,3.92,1.22-.24,1.52-1.1,1-2.01-.8-1.41-1.84-2.69-2.74-3.97,1.01-1.6,2.35-2.1,3.86-2.28,1.2-.14,2.15.26,2.83,1.31,1.31,2.01,2.64,4,4.02,5.96.14.2.81.31.99.16.36-.31.8-.84.76-1.23-.06-.71-.45-1.38-.71-2.08-.57-1.52-1.15-3.03-1.75-4.62,3.53-.52,4.97.23,5.84,2.8.53,1.56,1.02,3.13,1.55,4.69.04.13.29.19.6.37,3-1.95-.48-5.78,1.94-7.84,2.32.19,1.44,3.04,3.26,3.46.32-.14.83-.19.92-.41.5-1.19.78-2.47,1.38-3.59.25-.47,1.09-.62,1.66-.92,1.32,2.14.26,3.93.14,5.72-.08,1.08.33,1.76,1.82,1.78.47-1.26,1.03-2.6,1.44-3.98.42-1.42.76-2.88.98-4.34.23-1.54.63-2.96,2.25-3.52,1.91-.67,3.63-.32,4.96,1.29-.16,2.65-3.51,4.36-2.33,7.48,2.5-.18,3.05-2.24,4.29-3.52,1.14-1.17,2.28-2.34,3.65-3.74,1.64,1.22,3.06,2.26,4.85,3.59-1.11.8-1.8,1.32-2.51,1.82-1.21.85-2.51,1.6-3.61,2.58-.45.39-.48,1.26-.7,1.91.65.16,1.37.59,1.93.42,1.05-.3,1.99-.96,2.99-1.45,1.17-.56,2.32-1.16,3.53-1.62,2-.75,2.47-.41,3.99,2.83-.99.39-1.95.8-2.93,1.18-1.2.47-2.45.84-3.6,1.42-.34.17-.64.97-.52,1.36.1.37.78.81,1.19.81,2.03-.02,4.05-.24,6.08-.25.82,0,1.31.57.92,1.63-2.52,1.64-6.25-.75-8.88,2.37.95.53,1.66,1.14,2.48,1.33,1.25.28,2.57.25,3.86.38,1.04.1,1.88.73,1.85,1.69-.02.76-.55,1.77-1.18,2.2-1.05.71-2.42.93-3.52,1.57-.47.27-.64,1.09-1.02,1.79,3.52,1.39,7.48-1.15,10.31,2.14-.44,1.79-2.18,1.87-3.27,2.74-.56.45-1.07,1-1.49,1.58-.16.22-.1.76.07,1.03.16.27.65.56.9.5,1.6-.41,3.18-.91,4.76-1.38,2.59-.77,2.72-.71,4.76,2.25-.26,1.91-2.05,2.45-3.25,3.52-.56.49-1.21.9-1.64,1.49-.28.38-.44,1.13-.25,1.49.18.34,1,.63,1.38.5,1.55-.53,3.03-1.22,4.44-1.82,1.35,1.3,1.09,2.53.53,3.75-.54,1.16-1.18,2.28-1.68,3.45-.1.23.15.73.38.94.23.2.77.37.97.24.76-.5,1.52-1.06,2.15-1.73,1.53-1.62,3.25-1.41,5.37-.69.32,1.86.65,3.73,1.11,6.35.97-1.03,1.59-1.42,1.82-1.98.49-1.19.68-2.51,1.16-3.7.93-2.31,2.7-3.37,5.4-3.32.38,1.87.69,3.66,1.15,5.42.09.35.76.65,1.21.75.22.06.74-.34.81-.62.38-1.61.57-3.26,1.02-4.85.29-1.04.67-2.27,1.43-2.9,2.34-1.94,5.18-.88,5.64,1.66.25,1.45.69,2.87,1.2,4.25.13.36.87.74,1.28.7.41-.04,1.03-.59,1.08-.97.16-1.28.04-2.58.18-3.87.05-.48.42-1.23.76-1.3.65-.14,1.59-.12,2.04.27.95.83,1.69,1.92,2.46,2.94.44.59.76,1.28,1.14,1.91,1.26,2.04,2.58,3.06,3.11,2.4,1.12-1.39.48-2.79-.05-4.19-.49-1.32-.96-2.67-1.57-4.39,4.77-.57,6.51,4.38,10.8,4.91-.17-.98-.08-1.76-.43-2.21-1.01-1.32-2.33-2.41-3.25-3.77-.42-.62-.5-1.84-.18-2.51.43-.89,1.54-.9,2.45-.5,1.37.59,2.66,1.34,4.06,1.79.52.16,1.34-.19,1.83-.56.19-.13.05-1.17-.26-1.46-1.09-.98-2.33-1.82-3.5-2.72-.73-.55-1.53-1.06-2.11-1.74-.26-.31-.27-1.12-.05-1.5.23-.38.96-.82,1.33-.72,1.24.34,2.41.91,3.62,1.36.69.26,1.4.58,2.11.64.46.03,1.16-.24,1.37-.61.2-.34.11-1.19-.18-1.44-.83-.71-1.8-1.27-2.75-1.83-1.12-.66-2.33-1.16-3.4-1.89-.77-.53-1.41-1.4-.74-2.35.36-.51,1.16-1.01,1.76-1,1.65.03,3.29.42,4.94.45.44,0,.89-.8,1.38-1.27-2.12-2.12-4.71-1.91-6.95-2.64-2.14-.7-2.31-.99-2.72-4.31,1.27-.1,2.55-.17,3.81-.33.95-.11,1.97-.45,1.77-1.61-.08-.48-.97-1.05-1.56-1.15-2-.34-4.04-.49-6.06-.71-2.02-.21-3.27-1.34-4.21-3.23,1.56-.5,2.87-.91,4.12-1.31-.16-1.76-1.16-2.12-2.33-2.29-2.19-.31-4.4-.55-6.58-.95-1.13-.2-1.16-.4-2.31-3.04,1.55-.07,2.97-.11,4.39-.19.92-.05,2-.09,2.02-1.35,0-1.21-1.11-1.31-1.98-1.5-1.98-.44-3.97-.81-5.84-1.19-1.32-1.55-1.58-3.04-.39-4.68,2.33-.22,4.24,1.2,6.36,1.7.53.12,1.1.16,1.64.07.28-.05.64-.39.73-.68.09-.3.01-.86-.2-1-1.23-.8-2.48-1.55-3.79-2.22-1.32-.67-2.75-1.12-4.02-1.87-.5-.29-1.01-1.18-.94-1.71.16-1.11,1.24-1.38,2.16-1.14,1.42.36,2.78,1,4.17,1.48,1.04.36,2.09.76,3.16.92.35.06.88-.47,1.17-.86.12-.16-.08-.81-.3-.94-2.06-1.24-4.16-2.4-6.22-3.63-1.02-.62-.98-1.36.21-3.41,2.18,0,4.07,1.29,6.14,1.93.85.26,1.77.33,2.66.45.13.01.38-.19.41-.34.1-.33.25-.82.09-1-.47-.54-1.04-1.04-1.66-1.41-1.41-.86-2.86-1.62-4.36-2.46.46-1.95,1.68-2.1,2.95-1.63,2.24.83,4.41,1.84,6.45,2.72,1.33-.95,1.11-1.69.23-2.36-1.18-.89-2.44-1.69-3.58-2.63-.51-.42-.81-1.1-1.2-1.66,2.46-2.23,5,1.97,7.2-.45-.1-.47-.05-.98-.26-1.15-1.31-.99-2.67-1.9-3.96-2.8-.23-1.99.47-3.37,1.88-4.66,1.52.5,3.06,1.07,4.63,1.46.32.08.91-.51,1.21-.91.16-.21.1-.82-.09-1.01-.79-.75-1.6-1.53-2.54-2.09-2.06-1.22-2.7-2.93-2.07-5.18.24-.88.53-1.75.88-2.87,1.78.47,2.06,2.13,3.04,3.04.82.75,1.52,1.66,2.43,2.25.47.3,1.3.05,1.97.05-.01-.51.15-1.13-.08-1.51-.65-1.12-1.54-2.1-2.21-3.2-2.4-3.97-2.25-5.22.98-8.8.35-.38.86-.61,1.54-1.07,1.3,1.52,1.32,3.46,2.07,5.08.38.83.82,1.64,1.33,2.38.16.22.75.39.96.26.41-.24,1.02-.75.97-1.07-.36-2.37-.99-4.7-1.27-7.07-.17-1.4.74-1.99,2.15-1.5q1.03,6.64,2.66,8.07c.34-.97.71-1.76.87-2.59.29-1.44.34-2.94.74-4.34.13-.46,1.03-.71,1.76-1.17,1.28,2.97-1.03,6.29,1.53,8.64,1.66-.75,1.38-2.18,1.65-3.4.35-1.62.63-3.27,1.17-4.81.48-1.35,2.47-1.5,3.11-.24.58,1.12.85,2.4,1.19,3.62.3,1.06.4,2.18.79,3.2.13.37.89.75,1.29.68.38-.06.96-.69.96-1.08,0-1.84-.19-3.69-.22-5.54-.02-1.35.3-2.58,2.36-2.92.5,1.2.99,2.51,1.61,3.77.47.97,1.05,1.92,1.74,2.74.22.26.99.2,1.45.07.21-.06.46-.62.43-.92-.08-.73-.29-1.44-.5-2.14-.63-2.11-.96-4.25-1.13-6.32,1.97-.67,2.16.8,2.87,1.47.79.75,1.47,1.75,3.03.84.38-2.22-1.97-3.82-1.66-6.67.26-.43.78-1.4,1.4-2.31.61-.89,1.32-1.72,1.97-2.58,2.06,1.31,3.88,2.53,5.78,3.62.3.17,1.16-.14,1.39-.48.22-.35.17-1.16-.1-1.48-.96-1.12-2.09-2.1-3.09-3.18-1.92-2.07-2.66-4.39-1.25-7.27,2.51-.41,4.57,2.71,7.23,1.16.12-.07.14-.29.38-.82-2.22-2.22-5.2-3.71-7.91-6.16.29-1.17.63-2.52,1-3.99,3.08-.57,6.08,1.2,9.22-.54-.38-.54-.64-1.29-1.13-1.51-1.13-.49-2.38-.73-4.25-1.26,1.79-.65,2.88-1.04,4-1.44-.33-3.03-3.74-1.61-4.5-3.68.05-1.11.89-.97,1.59-.89.91.1,1.84.51,2.72.41.58-.07,1.17-.73,1.54-1.28.12-.18-.37-1.01-.75-1.22-1.13-.62-2.45-.92-3.52-1.62-2.92-1.92-5.75-3.99-8.45-5.88.1-1.68.88-1.92,1.87-1.44,2.19,1.04,4.38,2.06,6.86,2.01.7,0,1.4-.19,2-.27.45-1.41-.3-1.94-1.17-2.31-1.69-.73-3.48-1.28-5.07-2.17-.67-.38-1.31-1.41-1.33-2.16-.02-.7.8-1.42,1.48-2.5,1.42,1.45,2.53,2.64,3.71,3.75.53.5,1.16.96,1.83,1.21.42.15,1.17.06,1.47-.23.29-.28.41-1.1.21-1.44-.67-1.09-1.56-2.05-2.31-3.12-.43-.59-.74-1.26-1.02-1.78.04-1.94,1.18-2.77,2.7-3.41.39.32.9.6,1.21,1.01,1,1.3,1.9,2.68,2.91,3.97.13.17.74.12,1-.03.27-.15.61-.63.54-.86-.54-1.75-1.05-3.54-1.81-5.2-1.15-2.52-.4-4.26,1.85-5.58,1.96.48,1.35,2.45,2.15,3.56.63.88,1.24,1.77,1.95,2.58.15.18.73.13,1.02,0,.29-.14.66-.54.63-.79-.12-1.09-.43-2.16-.57-3.25-.12-.96.07-1.89,1.2-2.17,1.08-.26,1.72.4,2.18,1.27.51.98.94,2.02,1.53,2.96.37.61.87,1.22,1.47,1.61.35.23,1.03.12,1.48-.04.23-.09.51-.66.43-.92-.34-1.23-.79-2.44-1.22-3.65-.91-2.59-.36-4.69,2.29-6.39,1.17,1.14,2.27,2.32,3.5,3.35.29.24,1.02.1,1.49-.06.24-.08.5-.66.43-.92-.34-1.24-.86-2.43-1.17-3.68-.32-1.29-.31-2.56,1.16-3.31,1.07,1.9.05,4.82,2.58,5.9,1.43-.8,1.17-1.79,1.23-2.67.11-1.66.12-3.33.32-4.98.51-4.3,2.96-5.67,7.94-4.41-.54,1.92-1.11,3.83-1.59,5.77-.07.25.25.85.46.89.48.08,1.28.09,1.46-.19.8-1.23,1.25-2.74,2.19-3.82.79-.91,2.01-1.66,3.17-1.99,1.3-.36,2.52.31,3.39,1.77-.43,3.01-3.5,5.49-2.75,9.55.89-.56,1.55-.79,1.93-1.24,1.02-1.25,1.17-3.17,3.33-3.96.66,1.19,1.33,2.42,1.97,3.55-.82,1.75-1.55,3.23-2.22,4.76-.29.67-.63,1.42-.59,2.11.04.59.53,1.22.98,1.65.13.12,1.07-.28,1.28-.64.65-1.11.96-2.45,1.72-3.46,1.22-1.62,2.85-2.32,5.04-1.05.44,2.77-3.15,5.16-1.24,8.13,1.67.09,1.91-1.12,2.29-2.1.89-2.29,2.1-4.39,4.2-5.73,1.38-.88,2.94-1.7,4.57-.18.28,2.36-3.62,3.99-1.53,6.66,1.46.31,1.9-.66,2.54-1.26,1.08-.99,2.13-2.02,3.29-2.89.34-.26,1.16-.21,1.54.04.38.25.72.95.66,1.4-.17,1.46-.6,2.88-.77,4.34-.03.34.53.85.92,1.1.2.12.83-.03.97-.24.7-1.07,1.26-2.25,1.96-3.33,1.56-2.41,3.08-2.32,5.81.5-.47.87-1.01,1.81-1.49,2.79-.75,1.49-1.53,2.96-2.11,4.52-.22.56-.09,1.59.3,1.96.63.59,1.35.03,1.77-.62.71-1.09,1.31-2.25,2.05-3.31.52-.74,1.1-1.6,1.86-1.98.66-.34,1.63-.08,2.38-.08.91,2.68-2.9,4.45-.45,7.25.76-.75,1.59-1.39,2.17-2.21,1.69-2.42,3.83-3.34,6.92-2.31-.7,3.5-3.84,6.33-3,10.88,1.01-.97,1.84-1.42,2.15-2.12,1.1-2.38,2.28-4.66,4.24-6.46.53-.5,1.1-1.16,1.75-1.3.84-.18,1.83-.08,2.64.21.96.34,1.26,1.29,1.09,2.29-.2,1.27-.48,2.52-.64,3.79-.03.27.35.78.6.83.48.09,1.26.1,1.45-.19.74-1.04,1.21-2.29,1.96-3.32.49-.68,1.28-1.13,1.84-1.59,3.65,1.81.58,6.67,4.28,8.45,1.44-2.31.79-4.59.96-6.73.14-1.82.78-3.19,2.67-3.75,1.9.98,1.13,2.96,1.71,4.41.56,1.39.22,3.39,2.58,4.07,1.23-1.8.77-3.62.58-5.36-.23-2.21-.59-4.41-.81-6.61-.14-1.4.38-2.52,1.94-3.22,3.06.85,2.54,5.68,6.6,6.26-.13-1.11-.08-2.01-.37-2.78-.71-1.9-1.72-3.71-2.34-5.63-.52-1.59-.75-3.31,1.28-4.58,2.53.84,3.72,3.21,5.34,5.15,1.04,1.25.76,3.96,3.55,3.36,1.08-1.81-.61-3.08-.94-4.61-.11-.53-.47-1-.69-1.51-.44-1.02-.98-2.06.17-3,.76-.62,1.67-.27,2.66,1.11.76,1.06,1.42,2.19,2.24,3.18.43.51,1.13.79,2.12,1.45.18-1.08.51-1.8.34-2.35-.39-1.23-1.08-2.36-1.56-3.55-.92-2.33-.67-3.05,1.61-4.55.6-.4,1.3-.65,2.25-1.11,1.57,1.71,3.13,3.4,4.61,5.01,1.38-.43,1.8-1.15,1.35-2.18-.74-1.69-1.58-3.34-2.54-5.33.84-.79,1.69-1.59,2.52-2.37.54.47.98.66,1.04.94.42,1.79.7,3.61,1.17,5.37.1.35.88.78,1.27.71.39-.06,1-.68,1-1.06.04-2.76-.1-5.54,1.2-8.07,1.44-1.07,2.81-.84,4.32.07.1.41.35.94.32,1.44-.15,2.21-.53,4.41-.52,6.62,0,.91.78,1.82,1.45,3.22.72-1.08,1.31-1.62,1.45-2.25.25-1.07.19-2.2.31-3.31.56-5.07,1.54-5.84,7.48-5.7-.24,1.64-.55,3.24-.67,4.85-.02.33.57.82.97,1.05.19.11.81-.12.93-.35,1.25-2.49,2.65-4.83,4.77-6.74,1.42-1.3,2.78-1.6,4.68-.91-.35,3.29-3.86,5.64-2.79,9.17,1.38.41,1.92-.36,2.29-1.21,1.28-2.97,3.12-5.43,5.86-7,2.21.08,3.6,1.2,4.75,2.71.13,2.95-3.85,4.66-2.48,8.15,3.25-.57,3.26-4.67,6.72-5.33.8.66,1.86,1.53,2.98,2.45-1.99,3.52-5.8,5.73-5.54,10.02,1.8.6,2.25-.62,2.86-1.45,1.54-2.04,2.75-4.42,5.76-5.22.79.96,1.57,1.9,2.37,2.87-1.17,2.64-3.07,4.45-4.53,6.56-.41.59-.71,1.27-.92,1.95-.08.25.18.73.43.93.24.19.8.31.99.17,1.01-.79,1.99-1.62,2.89-2.54.9-.92,1.66-1.99,2.56-2.93.9-.93,1.53-.62,2.84,1.5-2.29,2.04-5.36,3.78-5.45,7.74,2.18.28,2.74-1.39,3.76-2.23,1.63-1.36,3.24-1.62,5.14-.16.09,3.4-3.5,6.12-2.14,10.31.78-.53,1.47-.78,1.79-1.27,1.09-1.7,1.88-3.62,3.12-5.2,1.1-1.41,2.68-1.9,4.55-.27-.57,1.69-1.19,3.39-1.68,5.13-.24.86-.25,1.79-.32,2.69-.01.14.19.38.33.42.33.09.78.24,1,.09.43-.3.86-.72,1.1-1.19.68-1.31,1.19-2.73,1.93-4,1.77-2.99,2.65-3.31,7.23-2.81-.83,2.03-1.64,3.97-2.38,5.8,1.07,1.19,1.83.76,2.52.05,1.42-1.46,2.76-3,4.21-4.42.51-.49,1.23-.97,1.9-1.04.65-.07,1.58.22,1.96.68.36.45.46,1.49.17,2-.62,1.13-1.58,2.05-2.34,3.1-.43.6-.77,1.26-1.05,1.94-.1.27,0,.86.21.97.42.25,1.16.55,1.44.35,1.34-.93,2.58-2.02,3.75-2.97,1.65.39,2.04,1.38,1.42,2.54-.86,1.63-2.03,3.09-2.92,4.71-.42.76-.7,1.74.71,2.58,2.7-1.66,4.09-6.27,8.57-5.18.38,2.28-2.68,3.5-1.16,5.97,3.04-.21,3.72-4.86,7.3-4.03,1,1.28-.02,2.44-.32,3.61-.41,1.61-1.1,3.15-1.52,4.75-.1.38.25,1.16.6,1.31.35.17,1.2-.06,1.4-.38.88-1.41,1.59-2.93,2.4-4.39.46-.85,1.09-1.57,2.17-1.33,1.23.26,1.87,1.11,1.92,2.37.02.74-.14,1.49,0,2.21.15.83.35,2.2.83,2.33,1.53.45,1.59-.99,1.92-2.01.4-1.23.74-2.5,1.31-3.64.29-.56,1.06-.86,1.66-1.32,1.54,1.03.94,2.44,1.12,3.61.18,1.1.22,2.24,2.03,2.49.39-1.12.85-2.27,1.17-3.47.24-.89.09-1.93.49-2.71.36-.71,1.14-1.46,1.89-1.68,1-.28,1.66.55,1.92,1.54.38,1.42.65,2.88,1.1,4.28.13.4.74.64,1.13.95.41-.52,1.16-1.03,1.18-1.58.07-1.46-.26-2.94-.25-4.42,0-1.39.63-2.51,2.12-2.91,1.8.37,1.82,2.13,2.59,3.3.4.6.87,1.17,1.41,1.64.2.17.72.14,1,0,.29-.14.68-.58.64-.8-.29-1.43-.68-2.85-1.06-4.26-.74-2.77-.68-2.88,2.71-5.02,2.44.98,1.92,4.91,5.27,5.3,1.56-4.12-3.55-7.25-1.9-11.38,2.94.41,3.41,4.11,6.32,4.2q.09-2.5-7.27-11.64c.5-.57.92-1.45,1.61-1.79.95-.47,1.71.3,2.31,1.04,1.49,1.85,2.67,4.04,5.14,4.68,1.16-.73,1.08-1.6.54-2.43-1.32-1.99-2.71-3.93-4.17-6.04.93-1.15,1.69-2.1,2.45-3.04,2.92,1.36,2.48,5.74,6.03,6.06,1.22-1.76-.02-2.99-.54-4.29-.69-1.73-1.6-3.43-1.11-5.34.19-.74.92-1.35,1.36-1.98,1.95.72,1.42,2.31,1.93,3.4.54,1.16,1.07,2.32,1.68,3.43.1.19.69.27.98.18.3-.09.69-.45.72-.71.08-.91.05-1.83-.02-2.74-.13-1.82-.43-3.66.35-5.28,1.06-.51,1.64-.04,1.93.67.35.85.49,1.77.77,2.66.63,1.96,1.61,2.9,2.41,2.33,1.18-.85.54-1.96.42-3.01-.17-1.47-.36-2.94-.37-4.42,0-1.3.33-1.55,2.88-2.84,2.38,2.65,1.28,6.91,4.41,9.7.49-.93,1.25-1.68,1.19-2.35-.21-2.02-.73-4.01-1.14-6-.24-1.16-.26-2.27,1.07-2.77,1.35-.5,2.8-.1,3.45.96.76,1.26,1.34,2.63,2.15,3.85.19.29.97.31,1.46.24.23-.03.59-.56.56-.83-.14-1.64-.37-3.28-.6-5.16,1-.79,1.99-1.55,3.06-2.39,1.37.44,2.69.87,3.97,1.27.29-.63.63-1.02.55-1.26-.86-2.43-1.86-4.82-2.67-7.27-.43-1.28-.31-2.58,1.31-3.67.6.78,1.18,1.59,1.81,2.37.58.72,1.29,1.58,2.25.89.39-.29.47-1.31.38-1.95-.27-1.83-.77-3.62-1.04-5.45-.32-2.17-.09-2.35,3.16-2.66.26.96.53,1.97.8,2.98.38,1.42.6,2.92,1.21,4.22.28.61,1.31.88,1.95,1.27,1.39-1.53.17-2.75.28-3.97.09-1.08.26-2.16.51-3.21.06-.26.63-.63.87-.57.45.11,1.1.44,1.19.79.29,1.24.29,2.55.59,3.8.08.33.86.48,1.66.89.81-4.38,2.5-8.17,4.99-11.59.06-.09.34-.02.63-.02,1.56,1.65-1.3,4.88,1.91,6.07,1.67-1.13,1.68-2.89,1.91-4.47.53-3.73,3.14-5.73,6.04-7.45.49-.3,1.37.06,2.41.14-1.04,3.84-6.24,5.33-4.98,10.51,1.02-.84,1.77-1.28,2.27-1.91,2.12-2.69,2.09-2.71,4.84-4.18,1.66,3.57,1.42,4.57-1.2,6.37-1.82,1.25-3.6,2.57-5.25,4.04-.56.48-.62,1.53-1.13,2.92,1.79-.34,2.94-.55,4.12-.77.61,1.99-.39,3.2-1.78,4.32-1.42,1.15-2.78,2.38-4.07,3.69-.2.2.05.99.27,1.4.12.21.74.38.98.26,1.32-.66,2.56-1.49,3.91-2.08.55-.25,1.31-.04,2.33-.04-.84,3.03-3.45,3.84-4.85,5.67-1.24,1.62-3.54,2.79-2.72,5.75,3.57-1.33,4.9-5.41,8.39-6.05.38.12.66.12.72.23.58,1.32,1.15,2.64,1.68,3.89-2.04,3.21-6.34,4.01-6.99,7.94-.04.23.37.54.75,1.06,1.91-1.31,3.78-2.75,5.81-3.9,1.22-.69,2.1.03,2.31,1.47-.36,1.69-2.05,1.93-3.13,2.84-.83.69-1.52,1.55-2.18,2.39-.17.23-.16.87.03,1.04.36.35.94.75,1.38.7.69-.09,1.36-.51,2.01-.84,1.13-.55,2.25-1.15,3.31-1.7,2.18,1.12,3.09,2.83,3.96,4.99-2.28.9-4.41,1.25-6.55,1.65-.67.12-1.3.63-1.84,1.09-.63.52-.21,2.22.57,2.28,1.08.09,2.21.08,3.25-.17,1.58-.38,3.1-1.15,4.71-.13-2.2,4.9-3.79,5.94-8.25,5.37-.92-.12-1.82-.39-2.74-.45-.52-.03-1.21.03-1.57.34-.5.42-.93,1.09-1.04,1.71-.06.33.52.98.95,1.17.65.28,1.43.26,2.16.4.71.13,1.42.29,2.12.47.15.04.27.22.38.33.47,1.52.02,2.59-1.47,3.09-.87.29-1.88.24-2.66.65-.54.29-1.13,1.12-1.1,1.68.03.5.79,1.25,1.35,1.39,1.25.28,2.61.1,3.85.39,1.71.41,3,1.36,3.02,3.51-1.8,1.77-4.34.59-6.28,1.6-.43.22-.88.79-.92,1.23-.03.42.36,1.01.74,1.3.41.32,1.01.45,1.54.52.73.1,1.51-.06,2.2.14.66.18,1.56.55,1.77,1.07.3.75.08,1.71.08,2.96-2.2.18-4.18.31-6.16.5-1.38.14-1.58.37-2.25,2.37,2.51.29,5.03.51,7.52.91.67.1,1.32.66,1.84,1.15.52.49.85,1.16,1.19,1.64-.26,1.4-1.27,1.34-2.14,1.58-1.06.28-2.18.53-3.13,1.05-.54.3-.78,1.12-1.15,1.7.59.28,1.19.81,1.76.77,1.09-.07,2.15-.59,3.25-.68,1.08-.09,2.27-.11,3.28.23,2.28.76,3.55,2.75,3.02,4.65-.15.53-.21,1.09-.41,1.61-.19.51-.48.97-.87,1.72-.87-.21-1.72-.41-2.55-.62-1.43-.39-2.83-.92-4.27-1.11-.47-.06-1.19.65-1.54,1.2-.13.21.32,1.11.69,1.28,1,.46,2.17.56,3.13,1.07,1.12.6,2.2,1.36,3.07,2.26.44.45.54,1.38.51,2.08-.05,1.47-.22,2.97-2.02,3.98-1.5-.64-3.13-1.52-4.87-2.02-1.18-.34-2.51-.19-3.77-.17-.21,0-.52.49-.57.79-.06.32.06.87.27.98,1.14.56,2.4.9,3.51,1.53.87.49,1.58,1.29,2.42,2.01-3.44,2.62-4.79,2.92-7.69,1.82-1.2-.45-2.39-1-3.64-1.23-.43-.08-1,.68-1.68,1.17,2.25,2.56,6.68,3.26,5.43,8.03-3.56,1.2-7.69-1.8-11.35,1.38.73.48,1.24,1.08,1.83,1.17,1.46.22,2.99.03,4.42.33,1.23.26,2.52.76,3.51,1.5,1.84,1.36,1.29,4.67-.82,5.51-1.85.73-4.04.7-5.45,2.39.03.89.39,1.44,1.32,1.34.55-.06,1.08-.21,1.63-.33,3.82-.83,5.86-.89,8.49,3.59-3.15,2.21-7.44,2.18-10.25,4.98-.02,1.4.87,1.48,1.83,1.2,1.96-.56,3.86-1.29,5.84-1.81,1.23-.33,2.54-.49,3.82-.55,1.41-.08,1.74,1.07,2.25,2.09-2.1,3.08-6.88,2.23-8.53,6.29,3.64.7,6.5-2.02,10.11-1.33.52.84,1.15,1.88,1.69,2.77-1.42,2.47-4.64,2.32-5.51,4.89.33,1.29,1.31,1.21,2.19.91,1.57-.54,3.07-1.33,4.65-1.82.84-.26,1.9-.38,2.67-.08.75.29,1.49,1.1,1.79,1.86.16.42-.46,1.32-.95,1.78-1.31,1.28-2.77,2.41-4.07,3.69-.21.2.06,1,.28,1.42.11.2.7.33.96.22.68-.29,1.29-.71,1.92-1.1,1.26-.79,2.45-1.7,3.78-2.33,1.73-.83,3.51-.99,5.4.61-.44.6-.77,1.2-1.25,1.65-1.1,1-2.37,1.82-3.37,2.9-.55.6-.86,1.56-.92,2.39-.05.74,1.6.69,2.8-.22,2.65-2,5.16-4.26,8.88-4.63.19,1.05.37,2.03.57,3.17,2.24,0,3.5-1.53,4.67-2.81,2.37-2.58,5.47-3.72,8.58-4.86,1.27-.46,2.55-.48,3.49,1.05-1.77,1.74-4.66,2.32-5.83,5.41.91.08,1.61.34,2.11.14,1.54-.62,2.94-1.68,4.51-2.11,1.74-.48,3.65-.72,5.43-.54,2.28.22,3.97,1.79,3.55,2.77-.68,1.61-2.25.86-3.41,1.22-.87.27-1.74.56-2.56.95-.22.11-.41.62-.36.91.05.31.35.77.6.82.88.18,1.82.37,2.68.24,2.1-.3,4.07.06,5.98.82.43.17.71.71,1.32,1.38-2.67,1.15-6.27-.55-7.77,2.62.59,1.47,1.59,1.15,2.44,1.28,1.63.24,3.3.41,4.84.92,1.42.46,1.94,1.99,1.32,3.15-.63,1.2-1.71,1.42-2.82.89-2.3-1.1-4.67-1.1-7.05-.55-.66.16-1.34.66-1.78,1.19-.18.2.2,1.3.39,1.32,1.26.13,2.57-.09,3.81.12.96.16,1.84.8,3.57,1.61-1.48.54-2.09.93-2.72.95-2.21.11-4.43.07-6.65.13-.6.02-.6.1-1.51,2.22,1.36.12,2.6.19,3.84.35,1.08.14,2.21.25,3.23.62,1.54.54,2.2,2.02,1.59,3.6-.38,1-1.07,1.88-1.68,2.93-4.41-.34-8.75-2.83-13.49-.58,2.17,3.11,5.38,1.41,7.44,2.97-.9,2.77-3.12,4.14-5.61,3.38-1.76-.53-3.46-1.31-5.25-1.71-1.27-.29-2.61-.08-3.32,1.79.73.41,1.46,1.12,2.23,1.17,3.01.2,4.71,1.83,5.64,4.54.22.65.58,1.24.91,1.91-1.88.59-2.43-1.02-3.52-1.53-1-.47-1.91-1.25-2.95-1.45-.75-.14-1.92.2-2.4.75-.7.82-.04,1.74.77,2.29,1.48,1.02,3.4,1.49,4.32,3.6-1.24,1.93-3.08,3.02-5.18,3.93-2.19-1.07-2.83-3.42-4.35-4.98-.88-.9-1.85-1.73-2.86-2.5-.2-.15-.83-.05-1,.14-.33.38-.74,1-.63,1.37.27.85.77,1.66,1.28,2.4,1.25,1.81,2.85,3.41,3.38,5.65-1.85,1.99-3.98,1.86-6.44,1.39-.82-1.6-1.57-3.29-2.54-4.84-.45-.73-1.26-1.32-2.04-1.74-.32-.18-1.02.17-1.45.44-.22.14-.35.72-.25.98.34.85.85,1.63,1.21,2.47.49,1.15.89,2.33,1.31,3.45-3.24,1.96-4.74,1.96-6.5-.04-1.09-1.25-1.91-2.73-2.96-4.02-.94-1.16-2.06-2.2-3.68-2.24-.5-.01-1.2.22-1.45.58-.23.33-.15,1.17.13,1.48.73.82,1.75,1.39,2.46,2.22.68.8,1.12,1.8,1.74,2.83-1.89,1.6-3.56,3.01-5.52,4.67-.72-.81-1.36-1.62-2.08-2.35-1.15-1.17-2.23-2.47-3.58-3.37-.84-.57-2.15-.71-2.97,1.08,1.97,2.46,5.41,4.26,5.59,8.28-1.18,1.86-3.26,1.99-5.43,2.59-.65-.89-1.29-1.74-1.9-2.61-.63-.91-1.16-1.89-1.87-2.73-.62-.74-1.54-1.2-2.44-.59-.93.61-.96,1.63-.23,2.38,3.58,3.75,2.96,5.73-2.01,8.42-.17.09-.36.11-.83.23-1.26-.64-2.71-1.4-4.19-2.14-1.54-.77-3.17-1.14-4.82-.46-.51.21-.79.94-1.37,1.66,2.12.73,3.89,1.2,5.51,1.96,1.15.56,2.26,1.49,1.9,3.06-.38,1.64-.91,3.28-2.89,3.67-1.27.25-2.58.3-3.83.6-.39.1-.88.74-.89,1.14-.01.38.5,1.05.87,1.12,1.08.21,2.2.15,3.3.27.73.07,1.55.11,2.14.47.56.34,1.05,1.04,1.25,1.68.31.99-.24,1.92-1.12,2.28-1.19.47-2.51.56-3.74.95-2.56.79-5.45.77-7.49,2.68.07,1.32.91,1.43,1.59,1.32,2.01-.32,3.99-.82,6-1.18.9-.16,1.89-.38,2.74-.17.79.18,1.67.75,2.09,1.42.24.38-.19,1.46-.63,1.92-1.02,1.06-2.32,1.86-3.35,2.91-.72.73-1.19,1.71-2.17,3.18,1.32,0,2.13.26,2.6-.04,1.56-.99,2.95-2.25,4.49-3.26,1.83-1.19,2.12-1.07,4.92,1.32-.64,1.76-1.38,3.63-1.97,5.53-.11.38.27,1.17.62,1.34.36.17,1.2-.03,1.44-.36,1.22-1.63,2.32-3.34,3.42-5.05,1.74-2.7,4.04-4.71,7.58-6.34-.45,2.35-.92,4.08-1.07,5.85-.09,1.06.08,2.36,1.8,2.05,4.23-8.95,5-9.75,11.73-12.23,0,1.49-.1,2.89.04,4.27.08.69.53,1.37.93,1.97.15.23.65.38.95.34.32-.04.77-.32.84-.59.28-1.06.44-2.15.63-3.24.6-3.43,1.11-4.62,3.32-7.53-.16,2.59-.35,4.91-.42,7.23,0,.38.56,1.07.89,1.09.41.03,1.1-.42,1.24-.81.74-2.09,1.3-4.24,1.99-6.35.23-.69.54-1.47,1.05-1.93.47-.41,1.29-.55,1.95-.55.2,0,.6.92.55,1.37-.17,1.27-.69,2.52-.71,3.78,0,.67.77,1.35,1.54,2.55,1.11-2.42,1.97-4.23,2.78-6.05,1.16-2.57,3.01-3.65,6.23-2.65.13,1.59.24,3.37.43,5.13.03.27.45.72.68.72.49,0,1.24-.12,1.41-.44.92-1.8,1.62-3.71,2.59-5.48.23-.41,1.27-.57,1.91-.5.35.03.71.75.9,1.23.69,1.7-1.18,4.18,1.61,5.24,2.17-1.24,1.34-3.62,1.89-5.43.77-2.51,1.94-4.33,4.35-5.21,1.72.27,1.57,1.97,2.43,2.82.69.7,1.66,1.1,2.95,1.91.38-3.58-1.9-6.73.39-9.55.18-.21.64-.19,1.19-.34.8,1.91,1.62,3.86,2.38,5.69,1.65-.08,1.95-.82,1.87-1.87-.08-1.28-.33-2.6-.16-3.84.35-2.63,1.63-4.5,4.65-4.48,1.3.59.83,1.9,1.2,2.88.44,1.19.99,2.34,1.57,3.46.11.21.69.31.99.23.29-.08.67-.47.69-.73.03-.91-.16-1.82-.14-2.74.04-2.62.21-5.21,3.25-6.81.98,1.27,1.95,2.51,3.25,4.19.47-1.02.98-1.6.97-2.17,0-2.4-.23-4.8-.22-7.2,0-.88.23-1.93.74-2.6.63-.81,1.61-1.71,2.55-1.85,1.38-.2,1.6,1.2,1.79,2.31.27,1.61.11,3.4,2.12,4.69.44-.66,1.16-1.28,1.26-1.99.18-1.23-.18-2.56.01-3.8.14-.99.97-1.5,2.18-.99.1,1.99.15,4,.36,6,.03.33.77.67,1.24.81.22.06.71-.3.82-.58.28-.68.34-1.44.6-2.13,1.21-3.25,1.63-3.49,5.9-3.49,1.51,1.09-.45,3.91,2.39,4.61,2.04-2.38,1.95-6.71,6.46-7.83-.33,1.02-.56,1.64-.75,2.27-.31,1.03-1.07,2.31.1,3.04,1.23.77,1.85-.53,2.56-1.37.82-.98,1.71-1.95,2.73-2.7.37-.26,1.21.11,2.59.29-1.21,1.33-1.92,2.11-2.64,2.88-.49.55-1.04,1.05-1.52,1.62-.78.93-.87,2.21-.14,2.39.6.16,1.46.04,1.96-.31,1.51-1.06,2.87-2.33,4.34-3.44.41-.3,1.04-.37,1.56-.38.26,0,.53.36,1.05.74-1.15.96-2.3,1.84-3.31,2.84-.31.31-.48,1.1-.31,1.46.16.33.97.58,1.36.47,1.06-.3,2.02-.92,3.07-1.25.81-.25,1.71-.24,2.73-.36-.29,2.8-4.11,2.49-3.83,5.26,1.75,1.41,3.13-.65,4.72-.41.32.05.62.3.93.46-.23.41-.4,1.12-.69,1.18-1.08.22-2.2.14-3.3.3-.89.14-1.86.28-2.62.72-.49.29-.79,1.13-.86,1.76-.04.26.72.84,1.16.88,1.29.11,2.59,0,3.88.04.73.03,1.44.22,2.54.41.23,1.34.47,2.69.71,4.06-.82.34-1.31.7-1.81.71-.92.02-1.83-.19-2.75-.27-1.29-.11-2.58-.25-3.88-.27-1.32-.02-2.83,1.04-2.45,1.62.45.69,1.26,1.42,2.03,1.58,1.62.33,3.32.27,4.98.42,1.05.11,2.09.33,3.21.5-.05,2.25-1.33,3.41-2.69,4.22-1.05.63-2.43.95-3.67.98-1.64.03-3.29-.41-4.94-.5-.39-.02-1.03.49-1.13.87-.1.43.14,1.25.47,1.41,1.61.79,3.3,1.43,5.23,2.22-.2,1.06-.33,2.14-.63,3.18-.2.68-.62,1.29-.86,1.79-1.94.78-3.47-.25-5.08-.42-1.24-.13-2.51.09-3.77.25-.22.03-.5.55-.54.86-.03.3.15.86.36.93,1.75.54,3.51,1.04,5.29,1.48,2.29.55,3.52,1.88,3.42,4.64-1.51.26-3.05.53-5.12.89.73,1.07,1.05,2.04,1.69,2.35,1.31.63,2.8.88,4.2,1.36.69.24,1.49.47,1.96.97.42.45.57,1.26.57,1.91,0,.19-.98.64-1.38.53-1.76-.52-3.46-1.2-5.08-1.79-1.54,1-1.1,2.04-.17,2.81,1.25,1.03,2.68,1.86,4.5,3.08-.97.52-1.65,1.19-2.06,1.05-2.1-.7-4.09-1.69-6.19-2.42-.74-.25-1.64-.04-3.18-.04.99,1.23,1.4,2.12,2.08,2.53,1.89,1.15,3.91,2.11,5.87,3.16,2.01,1.07,2.78,2.71,2.47,5.24-1.64-.39-3.01-.75-4.4-1-.24-.05-.69.3-.83.57-.15.29-.19.85,0,1.02.77.76,1.6,1.5,2.49,2.13,1.21.85,2.65,1.43,3.69,2.43.98.94,1.28,2.27-.32,3.46-1.8-.45-3.74-.98-5.71-1.38-.42-.08-1.34.38-1.34.61-.01.64.13,1.57.57,1.87,1.31.89,2.79,1.54,4.42,2.4-1.15,2.05-2.7,2.97-4.54,3.37-1.82.4-3.17-.72-4.52-1.7-1.02-.74-2.03-1.48-3.12-2.28q-.77,2.31,2.48,6.7c-1.83,3.49-2.86,3.81-5.71,1.73-1.05-.76-1.98-1.68-3.07-2.39-.36-.24-1.38-.22-1.44-.06-.24.6-.51,1.53-.22,1.93,1.2,1.63,2.61,3.1,3.94,4.63.08,1.73-.84,2.73-2.35,3.32-1.98-.49-2.92-2.2-4.27-3.43-.67-.62-1.33-1.27-2.06-1.8-.23-.17-.89-.17-1.02,0-.3.39-.63.99-.55,1.42.15.7.53,1.38.97,1.95.8,1.01,1.77,1.9,2.59,2.9,1.93,2.31.12,6.74-3,7.2-.62.09-1.45-.3-1.97-.73-.97-.82-1.75-1.86-2.69-2.73-.18-.17-.75-.11-1.02.05-.27.17-.55.59-.53.89.03.72.11,1.49.41,2.13.53,1.17,1.22,2.27,2,3.67-.89,1.09-1.77,2.17-2.56,3.14-.69-.16-1.18-.12-1.37-.33-1.21-1.39-2.35-2.84-3.53-4.26-.61-.74-1.37-1.44-2.31-.74-.92.68-.5,1.73-.11,2.54.48.99,1.13,1.91,1.77,2.82.74,1.06,1.55,2.06,2.53,3.35-.84,1.13-1.68,2.27-2.72,3.67-1.08-.84-1.99-1.4-2.73-2.14-1.31-1.3-2.47-2.75-3.79-4.04-.25-.25-1.13-.23-1.42.02-.33.3-.5,1.03-.39,1.47.17.7.58,1.35,1.01,1.95.64.9,1.4,1.72,2.07,2.61,2.17,2.83,2.05,3.19-1.83,5.15-3.25-1.91-3.94-6.12-6.8-8.32-1.39.19-1.71.99-1.34,1.98.47,1.2,1.15,2.32,1.73,3.47.67,1.3,1.34,2.59,2.14,4.15-.78.67-1.35,1.44-2.11,1.77-2.07.92-3.21.62-4.25-1.15-1.02-1.75-1.79-3.66-2.81-5.42-.31-.53-1.15-1.19-1.63-1.1-1.2.21-1.06,1.38-.86,2.24.41,1.76.97,3.49,1.46,5.22-2.47,1.46-4.2.72-5.5-1.18-1.25-1.83-2.27-3.81-3.5-5.65-.22-.32-1.1-.53-1.45-.34-.38.19-.63.88-.66,1.38-.04.53.19,1.09.36,1.6.43,1.18.91,2.34,1.49,3.82-1.91-.1-2.21-1.45-2.86-2.44-.58-.9-1.23-1.76-1.76-2.5-1.52.2-1.93,1.07-1.61,2.01.52,1.56,1.35,3.02,1.98,4.56.4.97.1,1.95-.78,2.38-.54.26-1.58.22-2.02-.13-1.43-1.17-2.64-2.58-4.02-3.81-.32-.27-1.15-.35-1.46-.12-.32.24-.57,1.11-.39,1.42,1.24,2.04,2.61,4,4.12,6.27-.75.84-1.54,1.73-2.51,2.8-1.42-1-2.6-1.86-3.8-2.67-.6-.42-1.22-.88-1.9-1.09-.44-.13-1.19,0-1.46.31-.27.29-.34,1.14-.1,1.45.66.88,1.55,1.57,2.29,2.39.72.78,1.37,1.62,1.95,2.31-.61,1.82-1.67,2.27-3.14,2.07-1.66-.21-3.9-2.12-4.77.26-.63,1.75,1.91,2.28,3.35,3,.32.16.79.4.83.67.14.69.25,1.45.05,2.09-.11.37-.87.79-1.3.75-1.1-.09-2.16-.48-3.25-.65-.92-.15-1.86-.09-2.36.91-.41.82.35,1.89,1.74,2.4.69.25,1.45.32,2.14.57,3,1.08,3.17,1.39,3.07,5.49-1.55,1.34-3.16.34-4.72.03-1.42-.28-2.82-1.05-4.18.13-.41,1.5.68,2.03,1.7,2.43,1.72.67,3.53,1.13,5.24,1.81.41.15.93.98.81,1.26-.24.59-.83,1.4-1.33,1.46-1.06.11-2.19-.11-3.25-.38-1.25-.32-2.43-.95-3.7-1.2-.6-.12-1.42.18-1.95.56-.6.45-.1,1.73.93,2.21,1.32.64,2.74,1.12,4.07,1.76.64.3,1.22.8,1.74,1.3.6.56.1,2.19-.71,2.26-1.47.13-2.96.08-4.41.28-.38.05-.92.67-.97,1.07-.04.43.34,1.21.68,1.31,1.76.52,3.56.98,5.37,1.23,2.43.31,4.74.9,6.75,2.33.53.38.83,1.06,1.47,1.92-.98.41-1.59.82-2.24.92-1.46.21-2.97.13-4.41.42-.58.11-1.39.84-1.48,1.38-.18,1.06.76,1.68,1.71,1.72,2.2.1,4.42.04,6.71.04,1.24,1.58,2.35,2.98,3.36,4.27-.65,1.47-1.7,1.09-2.54,1.13-2.04.1-4.08-.01-6.1.18-.55.05-1.37.81-1.44,1.33-.07.45.65,1.32,1.18,1.49,1.04.33,2.19.33,3.29.39,1.1.06,2.22-.05,3.33.06.97.09,1.78.56,1.87,1.67.09,1.14-.72,2.26-1.81,2.47-.72.13-1.47.16-2.2.21-.92.07-1.89-.05-2.76.19-.62.16-1.43.71-1.56,1.24-.28,1.12.71,1.6,1.62,1.78,1.08.21,2.19.24,3.3.31.92.05,1.87-.09,2.76.08,1.08.21,1.4,1.05,1.11,2.39-1.71.7-3.59,1.4-5.4,2.24-.85.4-1.63,1.19-1.01,2.19.29.46,1.26.78,1.86.71,1.27-.16,2.49-.68,3.76-.91.68-.12,1.41.07,2.7.18-.66.92-.92,1.67-1.42,1.91-1.99.96-4.09,1.73-6.1,2.66-.82.38-1.56.97-2.25,1.54-.21.19-.32.79-.18,1.01.26.42.8,1.04,1.11.99,1.44-.26,2.85-.72,4.27-1.11.69,1.08.07,1.86-.75,2.26-1.83.89-3.75,1.56-5.61,2.41-.83.38-1.64.89-2.29,1.51-.29.29-.38,1.12-.17,1.49.21.38.96.74,1.37.65,1.07-.22,2.09-.71,3.13-1.06,1.04-.33,2.08-.63,3.04-.92,2.07,2.74,2.06,2.92-.12,4.26-.47.29-1.11.43-1.42.84-.38.52-.67,1.24-.67,1.87.01.31.74.75,1.22.88.51.14,1.1-.03,1.64-.02,4.01.04,4.87,1.35,3.57,5.93-1.68-.68-3.29-1.46-4.98-1.96-.49-.15-1.31.36-1.75.81-.18.17.1,1.09.42,1.43.88.91,1.88,1.7,2.91,2.59-.5,2.65-2.1,4.31-4.11,5.85-1.54-.88-2.94-1.74-4.39-2.5-.22-.11-.82.09-.96.32-.26.42-.6,1.19-.41,1.42,1.15,1.41,2.43,2.72,3.67,4.06-.48,2.44-.46,2.45-2.71,4.74-1.42-1.38-2.79-2.84-4.32-4.08-.38-.31-1.35-.11-1.94.14-.22.09-.33,1.07-.13,1.46.74,1.45,1.64,2.82,2.65,4.51-1.64.57-2.98,1.04-4.5,1.57-1.28-1.5-2.43-2.88-3.91-4.63-.62.96-1.45,1.66-1.4,2.28.12,1.24.73,2.43,1.14,3.67-1.18,1.42-2.61,1.99-4.48,1.72-.98-1.27-1.95-2.59-3-3.85-.17-.2-.8-.29-1-.13-.39.29-.94.84-.87,1.18.3,1.61.8,3.19,1.32,5.12-.97.85-2.01,1.75-3.02,2.62-.53-.4-.91-.54-1.04-.82-.62-1.21.3-3.22-1.75-3.66-1.29-.28-2.04,1.89-1.61,4.63.11.72.53,1.4.62,2.12.07.51-.06,1.12-.31,1.57-.25.46-.71.9-1.18,1.12-.44.21-1.03.11-1.48.14-1.36-1.57-.38-3.32-.72-4.89-.1-.42-.63-1-1.02-1.05-.42-.05-1.13.32-1.31.71-.39.8-.65,1.72-.75,2.61-.19,1.66-.28,3.33-1.38,4.62-1.59.66-2.96.52-4.5-.81.54-.74,1.15-1.36,1.51-2.1.28-.6.57-1.58.28-1.95-.33-.43-1.35-.64-1.95-.49-1.2.32-2.32.95-3.4,1.41-1.64-1.1-1.49-2.37-.46-3.38,1.39-1.37,3.03-2.49,5-4.06-1.76-.82-3.01-1.4-4.67-2.17,1.44-1.54,2.71-2.8,3.86-4.19.26-.3.29-1.15.05-1.45-.28-.34-1.1-.63-1.45-.45-1.63.79-3.18,1.75-4.8,2.66-1.25-.51-.89-1.41-.37-2.16.95-1.38,2.02-2.65,3.05-3.97.34-.43.87-.79,1.05-1.28.21-.6.43-1.5.14-1.94-.68-1.06-1.69-.53-2.36.1-1.21,1.13-2.28,2.42-3.43,3.63-.5.54-1.01,1.08-1.6,1.49-.2.14-.74,0-.95-.2-.24-.21-.46-.7-.38-.97.23-.69.56-1.37.95-1.99.59-.94,1.41-1.75,1.88-2.74.27-.55.32-1.59-.02-1.97-.83-.95-1.7-.2-2.3.49-.97,1.1-1.81,2.34-2.75,3.48-.46.58-.97,1.13-1.53,1.59-1.01.8-2.96.14-3.15-1.1-.25-1.63-.28-3.3-.57-4.94-.05-.34-.79-.66-1.28-.79-.21-.05-.74.34-.81.61-.5,1.95-.93,3.93-1.47,6.27-.96.4-2.1.87-3.26,1.34-.56-.41-1.08-.66-1.4-1.07-.74-.97-1.38-2-2.01-2.93-2.05.66-2.14,1.99-1.67,3.26.91,2.47,0,3.88-2.12,4.68-1.83-.03-2.02-1.63-2.89-2.5-.7-.69-1.55-1.29-2.38-.54-.38.34-.44,1.36-.27,1.97.36,1.24,1.11,2.36,1.42,3.6.15.59-.16,1.57-.61,1.94-.38.3-1.4.14-1.92-.17-1.25-.76-2.3-1.87-3.59-2.56-.64-.34-1.61-.04-2.31-.03-.76,2.59,2.13,2.69,2.26,4.63-.25.27-.56.91-.94.95-1.64.2-3.3.17-4.94.37-.42.06-.96.65-1.07,1.08-.11.44.14,1.29.46,1.42,2.47,1.06,3.7,2.91,3.84,5.94-.44.22-1.05.48-1.61.81-.56.34-1.46.71-1.54,1.16-.09.55.39,1.48.89,1.79,1.09.65,2.39.95,3.55,1.5.99.45,1.14,1.88.39,2.88-.69.93-1.57.96-2.39.29-.86-.69-1.51-1.66-2.42-2.27-.48-.32-1.61-.4-1.9-.09-.36.39-.42,1.43-.15,1.96.65,1.31,1.56,2.48,2.5,3.93-.64.5-1.13,1.2-1.72,1.28-.84.12-1.76-.19-2.63-.34-.15-.04-.28-.24-.43-.34-1.26-.85-1.87-2.96-4.02-2.06-.1,1.39-.21,2.78-.31,4.17-2.23,2.47-3.86-.21-6.02-1.17-.32,1.21-.74,2.04-.71,2.84.06,1.29.45,2.55.61,3.83.12.96-.31,1.36-2.65,2.72-.83-1.61-1.57-3.27-2.54-4.76-.28-.44-1.25-.59-1.88-.56-.23,0-.68.93-.61,1.38.22,1.62.63,3.21,1.02,5.16-1.25.38-2.39.72-3.43,1.04-1.92-2.17.97-4.66-1.24-6.67-.51.33-1.32.59-1.59,1.12-.58,1.13-.9,2.4-1.27,3.63-.6,1.95-1.27,2.56-2.52,2.2-1.28-.39-1.52-1.49-.71-3.18.46-.99.96-1.96,1.34-2.97.08-.23-.2-.72-.45-.92-.25-.18-.76-.3-1-.17-.64.35-1.26.78-1.78,1.28-.91.88-1.73,1.82-2.59,2.73-2.05-1.82-2.12-2.37-.87-3.54,1.17-1.1,3.04-1.45,3.8-3.6-.94-.51-1.85-.97-2.75-1.45Z"/>
      <path class="cls-1" d="M110.99,438.72c1.64,1.35,2.85,2.21,3.85,3.27.39.42.58,1.43.35,1.95-.4.92-1.37,1.25-2.33.79-.83-.4-1.6-.94-2.33-1.49-2.06-1.57-4.19-3.09-6.09-4.84-2.25-2.06-4.47-2.06-7.13-.84-3.92,1.79-7.41,4.17-10.63,7-1.37,1.21-2.55,2.73-4.61,2.78-.91-.81-.72-1.63-.01-2.39,4.76-5.08,10.53-8.73,16.8-11.62,1.95-.9,3.93-.92,5.78.47.86.64,1.86,1.11,3,1.77,1.4-1.05,2.65-2.13,4.03-3,3.28-2.09,6.52-4.25,9.93-6.08,3.04-1.63,6.09-1.21,8.83.98,3.04,2.42,6.09,4.83,9.13,7.25.15.12.33.27.35.42.1.68.43,1.58.12,1.96-.34.45-1.37.73-1.94.56-1.03-.32-2-.94-2.87-1.6-1.76-1.35-3.48-2.76-5.15-4.24-3.39-2.98-6.94-3.06-10.74-.84-3.2,1.87-6.21,3.9-8.34,7.75Z"/>
      <path class="cls-1" d="M85.1,417.34c-.17-.77-.44-1.3-.35-1.76.1-.51.45-1.05.85-1.4,4.04-3.49,8.11-6.97,12.2-10.4.69-.58,1.56-.97,2.36-1.44,2.93-1.74,5.78-1.95,8.84-.08,4.41,2.68,8.96,5.12,13.44,7.67.47.27.93.62,1.31,1.02.66.72,1.07,1.62.23,2.4-.47.43-1.3.73-1.92.66-.68-.07-1.3-.63-1.94-1-3.99-2.31-8.1-4.44-11.92-6.99-3.1-2.08-5.94-1.87-8.72.1-2.86,2.02-5.53,4.29-8.24,6.52-1.42,1.17-2.68,2.54-4.09,3.72-.51.43-1.24.6-2.04.98Z"/>
      <path class="cls-1" d="M185.38,422.46c-.31.49-.5,1.09-.91,1.35-.41.26-1.21.4-1.54.17-1.66-1.15-3.28-2.4-4.83-3.71-1.41-1.2-2.66-2.58-4.06-3.79-3.49-2.99-5.25-3.27-8.92-.73-3.8,2.63-7.42,5.53-11.02,8.43-2.03,1.63-3.25,2.2-3.59,1.26-.57-1.59.65-2.37,1.55-3.24,4.03-3.88,8.71-6.88,13.31-10.01,3.66-2.51,6.89-2.05,10.07.75,3.06,2.69,6.15,5.32,9.19,8.04.38.33.5.94.76,1.48Z"/>
      <path class="cls-1" d="M159.09,445.76c.57-.87.96-2.01,1.75-2.54,5.37-3.61,10.81-7.12,16.26-10.61,1.67-1.07,3.6-1.29,5.32-.41,3.95,2.01,7.8,4.21,11.65,6.4.59.34,1.1,1.03,1.38,1.66.17.41,0,1.15-.28,1.52-.29.36-.93.6-1.41.59-.51-.02-1.09-.3-1.47-.65-2.82-2.54-6.43-3.62-9.67-5.38-2.23-1.2-4.27-.93-6.28.33-4.56,2.83-9.08,5.7-13.65,8.53-.89.54-1.87.94-2.8,1.41-.27-.28-.54-.57-.82-.85Z"/>
    </g>
  </g>
</svg>