<?xml version="1.0" encoding="UTF-8"?>
<svg id="Layer_2" data-name="Layer 2" xmlns="http://www.w3.org/2000/svg" viewBox="0 0 245.7 68.6">
  <defs>
    <style>
      .cls-1 {
        fill: #753d22;
        fill-rule: evenodd;
      }
    </style>
  </defs>
  <g id="Layer_2-2" data-name="Layer 2">
    <g>
      <path class="cls-1" d="M121.89,44.74s-.09.02-.11.04c-.02.05-.04.11-.03.17,0,.04.06.07.1.11,0-.11.03-.21.04-.32h0ZM192.38,42.62s-.08-.1-.14-.1c-.05,0-.15.07-.15.08.03.11.09.2.14.3.05-.03.12-.06.14-.11.02-.04,0-.11,0-.18h0ZM196.37,44.56c-.15-.04-.27,0-.34.13-.03.05-.02.13,0,.19.04.19.16.23.3.1.09-.08.14-.21.2-.31,0,0-.1-.07-.16-.11h0ZM126.16,2.79c.14-.02.27-.06.41-.1-.12-.05-.25-.14-.37-.15-.19,0-.29.08-.22.17.03.05.13.08.19.08h0ZM199.67,42.1c.38.15.38.14.66-.13.14-.13.14-.22-.03-.29-.05-.02-.15,0-.19.03-.15.11-.29.25-.44.39h0ZM194.55,58.74c.17.11.34.23.52.33.12.05.25.09.38.1.05.02.13-.02.18-.05.03-.02.06-.11.04-.13-.32-.44-.66-.52-1.13-.25h0ZM198.67,59.55q-1.18-.23-2.01,0c.55.32,1.13.19,1.69.18.11,0,.21-.12.32-.18h0ZM146.78,34.57c-.16.33-.1.67,0,.99.02.1.19.2.3.2.11,0,.28-.09.31-.18.17-.48-.03-.79-.6-1.01h0ZM162.12,44.27c.16.45.45.73.97.62.13-.02.26-.11.35-.21.11-.12-.02-.46-.18-.54-.41-.2-.8-.29-1.14.12h0ZM166.86,44.68c-.07-.29-.22-.5-.5-.62-.34-.14-.69-.14-1.02-.04-.1.04-.22.18-.22.28,0,.11.08.28.18.34.51.34,1.04.32,1.56.03h0ZM170.88,54.49c.6.71.8.76,1.99.44-.19-.43-.38-.63-.63-.65-.47-.02-.94-.1-1.36.21h0ZM130.45,2.16c-.67-.16-1.31-.12-1.95.06-.18.05-.31.24-.5.39q1.08.23,2.45-.46h0ZM164.42,50.19c-.17-.34-.45-.55-.83-.6-.43-.07-.86-.15-1.21.2.15.68.39.97.88,1.02.58.06.96-.14,1.17-.62h0ZM181.82,46.75c-.09.17-.22.29-.2.39.1.63.42,1.15.99,1.49.1.05.29.05.4,0,.11-.06.19-.21.22-.33.07-.36-.04-.7-.34-.92-.33-.25-.71-.43-1.07-.63h0ZM120.73,36.46c.2-.02.42-.02.64-.06.14-.02.27-.08.4-.14.22-.09.39-.48.31-.71-.08-.22-.25-.34-.47-.34-.35,0-.72.01-1.06.09-.29.07-.46.31-.53.6-.05.18.11.47.28.49.14.02.29.04.44.06h0ZM166.8,54.46c.67.78.84.91,1.53,1.06.13.04.29,0,.42-.03.19-.04.34-.31.27-.5-.19-.49-.51-.86-1.07-.96-.45-.08-.85.06-1.15.42h0ZM165.47,42.54c-.03-.38-.16-.76-.43-1.08-.25-.29-.57-.39-.95-.36-.28.03-.52.33-.45.58.12.42.33.79.75.97.33.14.69.17,1.08-.12h0ZM164.38,51.83c0,.06-.05.14-.03.18.48.75.96,1.27,1.55,1.64.06.04.26-.05.34-.13.21-.2.3-.46.3-.81-.12-.19-.25-.43-.41-.65-.08-.11-.21-.18-.32-.27-.49-.15-.97-.2-1.45.05h0ZM117.82,36.44c.54-.33.74-.81.67-1.41-.18-.26-.44-.37-.74-.33-.21.02-.45.06-.6.19-.43.36-.84.76-.99,1.4.53.24,1.09.22,1.66.16h0ZM179.54,54.75c.19-.26.2-.58.01-.78-.58-.62-1.04-1.32-1.55-1.99-.04-.05-.11-.09-.17-.12-.05-.04-.12-.06-.19-.08-.07-.02-.19-.05-.21-.03-.07.11-.18.25-.16.35.17.71.68,1.21,1.14,1.73.32.35.57.81,1.12.91h0ZM160.19,41.29c.07.74.55,1.21,1.17,1.58.11.06.28.08.4.05.27-.05.56-.13.72-.44-.09-.22-.18-.48-.31-.72-.17-.31-.4-.58-.77-.65-.41-.09-.83-.17-1.22.18h0ZM164.09,39.54c-.05-.84-.46-1.45-1.25-1.81-.07-.03-.14-.01-.21-.03-.33-.06-.76.32-.71.62.11.57.35,1.06.81,1.45.23.19.5.27.79.29.26.01.59-.27.57-.51h0ZM188.66,55.64c-.12-.17-.22-.37-.38-.5-.84-.78-1.69-1.54-2.53-2.3-.05-.05-.13-.06-.19-.08-.17-.05-.3.02-.35.18-.12.37-.02.72.28.94.86.64,1.74,1.26,2.62,1.87.1.07.27.06.4.05.05,0,.09-.09.15-.15h0ZM189.5,24.26c-.25-.32-.59-.47-.95-.43-.86.09-1.69.29-2.37.86-.05.04-.08.11-.1.16-.03.17.03.29.18.34.76.2,1.52.39,2.28.56.19.04.41-.05.61-.08-.07-.31-.13-.57-.18-.81.19-.23.35-.42.52-.61h0ZM186.13,26.83c.21.06.35.13.49.13.53,0,1.01.14,1.35.55.38.45.84.73,1.44.85.19.04.38.2.52.35.45.48,1,.48,1.58.34.17-.04.25-.14.24-.29,0-.06,0-.15-.04-.19-.48-.43-.99-.79-1.63-.98-.55-.16-1.1-.32-1.62-.56-.74-.34-1.48-.34-2.33-.2h0ZM121.08,37.77c-.41-.37-.87-.41-1.38-.24-.46.14-.69.47-.83.87-.09.26-.14.53-.19.8-.05.27.19.61.43.61.43.02.85.03,1.28.01.36-.02.67-.32.73-.64.07-.48.2-.96-.03-1.43h0ZM158.11,37.95c.22.95.52,1.53,1.1,1.94.43.31.93.34,1.44.21.13-.03.34-.38.29-.52-.09-.27-.16-.54-.29-.78-.55-.97-1.32-1.22-2.54-.85h0ZM148.97,34.51c-.04.21-.12.41-.08.59.04.2.16.4.31.55.96,1.07,1.95,2.1,3.09,2.98.03.03.11,0,.17.01-.1-.84-.43-1.58-1.37-3.06-.64-.38-1.2-.97-2.11-1.08h0ZM126.67,35.37c-.47.48-.7,1.08-.96,1.65-.82,1.82-.75,3.7-.22,5.57.02.07.06.13.09.19.1.16.2.21.29.12.05-.04.1-.12.1-.17-.04-.49-.1-.98-.17-1.55.35-1.77.55-3.66,1.04-5.51.02-.08-.1-.19-.17-.3h0ZM174.71,60.39c.17-.06.3-.1.43-.16.06-.03.1-.1.15-.15.12-.14.03-.5-.13-.54-.47-.15-.95-.27-1.38-.39-.2-.45-.37-.83-.51-1.15-.57-.46-1.06-.86-1.58-1.25-.23-.18-.48-.31-.74-.44-.19-.1-.39-.16-.6-.06-.14.06-.16.33-.02.56.26.42.53.84.79,1.25.61.41,1.2.82,1.8,1.21.6.39,1.22.76,1.8,1.13h0ZM160.71,44.73c-.06.07-.12.23-.24.28-.53.24-1.1.28-1.67.18-.06-.05-.14-.09-.16-.15-.38-.99-.75-1.97-1.12-2.96-.05-.13-.04-.28-.06-.42-.03-.17.12-.45.28-.52.16-.07.53-.03.61.09.36.53.73,1.05,1.09,1.57-.02.22-.04.42-.06.65.28.56,1.27.43,1.32,1.27h0ZM159.5,46.32q.53,1.24,1.47,2.27c.58.15,1.14.04,1.7-.1.35-.09.5-.56.26-.86-.41-.5-.81-.99-1.25-1.46-.14-.15-.37-.27-.57-.29-.58-.04-1.16,0-1.61.43h0ZM138.06,59.95c1.02.75,2.02,1.17,3.1,1.33,1.99.3,3.99.65,6.03.55,1.01-.04,2.02,0,3.04-.02.28,0,.56-.07.84-.1.02-.3-.15-.42-.36-.49-.36-.11-.71-.03-1.07.02-.5.08-1,.13-1.5.14-.5,0-.97-.19-1.5-.07-.48.12-1,.07-1.5.07-.21,0-.42-.09-.64-.13-1.69-.35-3.39-.68-5.02-1.26-.41-.14-.82-.28-1.41-.04h0ZM172.6,43.35c.17-.42.24-.83-.06-1.2-.42-.5-.64-1.06-.8-1.69-.26-1.02-.7-1.98-.77-3.04,0-.13-.12-.25-.19-.39-.03-.04-.08-.09-.14-.13-.68-.4-1.35-.79-2.03-1.19-.05-.03-.14-.02-.25-.03-.58.19-1.18.45-1.61.92-.13.14.04.45.28.41.95-.16,1.86-.18,2.71.51.24.69.53,1.41.74,2.15.37,1.3,1.09,2.43,1.78,3.57.05.08.22.08.34.12h0ZM126.32,50.09c-.03-.19-.01-.41-.1-.59-.83-1.79-1.76-3.54-2.21-5.47-.02-.11-.19-.2-.31-.27-.14-.07-.44.12-.5.3-.17.56-.23,1.08.22,1.58.48.53.45.56-.06,1.23-.08.11-.14.24-.23.41.15.12.29.29.47.39.25.13.54.21.79.33.25.12.3.58.08.72-.3.2-.6.38-.89.55.13.8.45,1.15,1.03,1.11.57-.04,1.16.05,1.72-.3h0ZM173.75,41.96c-.48-.7-.95-1.23-.98-2-.02-.33-.24-.66-.35-.99-.06-.19-.09-.41-.14-.62-.07-.33.36-.69.69-.57,1.04.36,1.56,1.27,1.32,2.31-.03.14-.08.27-.14.48.41,1.2.84,2.46,1.29,3.72.12.33.3.64.47.95.57.99,1,2.02,1.24,3.12.52.76,1.31,1.34,1.56,2.27.04.16,0,.28-.15.36-.61-.14-1.07-.53-1.23-1.08-.24-.86-.78-1.49-1.39-2.06-.17-.56-.26-1.13-.51-1.62-.21-.43-.6-.78-.99-1.26-.35-.86-.77-1.84-.7-3.01h0ZM191.03,30.67c-.06.25-.13.51-.18.79-.07.38.11.69.38.94.2.2.49.29.8.17.25-.09.46-.39.46-.65,0-.42-.08-.83-.25-1.23-.12-.29.16-.51.51-.41.35.09.69.2,1.1.33.12.22.25.46.4.7.16.23.33.46.51.68.19.23.27.49.22.79-.29.31-.59.6-.86.93-.21.25-.12.68.14.96.28.29.7.43.97.28.26-.13.48-.31.73-.46.42-.25.85-.08,1.04.39.35.89.33,1.81.05,2.7-.21.66-.55,1.3-.85,1.94-.21.46-.56.83-.97,1.12-.29.21-.64.35-.85.72.07.15.13.36.25.52.48.63.49.63-.21,1.08-.13-.06-.3-.09-.37-.18-.16-.23-.25-.51-.42-.73-.21-.28-.45-.56-.73-.77-.83-.61-1.74-.34-2.11.58-.03.07-.04.14-.06.2-.2.64-.04,1.12.49,1.49.18.13.37.22.56.33.18.11.35.23.53.35-.31.56-.88.74-1.41.96-.88.37-1.97-.26-2.15-1.22-.03-.13-.02-.28,0-.42.08-.36.12-.7-.27-.93-.26-.15-.53-.15-.83-.08-.94.21-1.79.56-2.54,1.16-.58.46-1.21.42-1.83.11-.86-.42-1.59-.99-2.09-1.8-.15-.24-.28-.5-.57-.64-.44-.16-.84.04-1.22.23-.85.41-1.55.12-2.21-.37-.09-.07-.11-.22-.17-.34.07-.03.15-.1.19-.08.97.44,1.84.1,2.71-.28.27-.12.39-.63.22-.94-.18-.33-.64-.53-.91-.36-.36.23-.69.5-1.03.75-.67-.09-1.28-.29-1.82-.69-.44-.33-.65-.81-.48-1.29.12-.33.3-.64.4-.84.35-.37.71-.48,1.04-.61,1.22-.5,1.95-1.44,2.43-2.58.19-.45.3-.94.43-1.36.13-.15.21-.29.32-.36,1.04-.58,1.77-1.43,2.32-2.46.47-.87,1.01-1.7,1.52-2.53.17-.01.36-.08.43-.02.56.47,1.12.91,1.92.83.07-.02.15.01.21.05.26.13.52.27.48.62-.04.38.06.69.35.95.28.25.6.4.97.43.22.01.44-.02.66-.02.52,0,1,.14,1.45.38.06.02.09.1.16.19h0ZM160.05,27.67c-.13-.38-.27-.78-.41-1.16,0-.31.12-.56.35-.76.32-.28.66-.55.97-.85.57-.56,1.02-1.2,1.2-2.05-.04-.22-.1-.5-.11-.78-.04-.86-.27-1.67-.69-2.43-.1-.19-.21-.38-.27-.58-.15-.48-.15-.98.07-1.45.15-.32.35-.61.5-.88-.07-.33-.12-.61-.17-.84.15-.43.46-.61.82-.68.35-.08.72-.12,1.08-.11,1.52.04,3.05.05,4.55.36.09.02.29-.1.33-.2.04-.1-.04-.25-.09-.37-.02-.06-.1-.1-.17-.13-.34-.13-.67-.33-1.02-.36-1.51-.13-3.02-.43-4.55-.19-.35.05-.72,0-1.12,0-.34-.14-.46-.48-.57-.81-.14-.38.09-.73.48-.76.07,0,.14-.04.21-.03,1.67.12,3.34.13,5.01.06.79-.03,1.59.05,2.37.29.34.11.72.15,1.07.15.2.01.4-.12.58-.18.03-.35-.09-.59-.41-.68-1.26-.34-2.54-.59-3.87-.56-1.09.02-2.18,0-3.27-.02-.28,0-.57-.07-.85-.11.04-.18.03-.39.09-.41.61-.22,1.22-.46,1.86-.58,1.15-.25,2.32-.16,3.45.1.64.14,1.27.29,1.93.3,1.64,0,3.12.54,4.51,1.35.49.29,1.02.56,1.42.95.88.84,1.72,1.73,2.53,2.62.23.26.37.61.49.94.34.92.66,1.86,1.02,2.92-.15.56-.33,1.24-.49,1.93-.1.42-.01.84.18,1.23.29.59.67,1.09,1.18,1.51.5.41,1.02.79,1.54,1.18.51.38.68.89.64,1.49-.08,1.06-.7,1.83-1.45,2.51-.11.1-.24.16-.36.24-1.17.8-2.01,1.8-2.31,3.2-.05.26-.22.53-.4.74-1.15,1.34-2.57,2.04-4.52,1.67-.21-.17-.48-.4-.77-.61-.71-.49-1.48-.92-2.13-1.46-.65-.54-1.54-.43-2.28-1.06-.14-.23-.35-.6-.53-.9-.18-.83.04-1.44.56-2.02.47-.52.32-.85-.44-1.34-.87.16-1.37.73-1.54,1.55-.12.54-.12,1.12-.16,1.63-.35.74-.69,1.45-1.05,2.2-1.39.56-2.81.25-4.09-.05-.6.07-.92.36-1.26.62-.23.18-.46.35-.7.5-.57.34-1.36.21-1.78-.28-.37-.44-.72-.89-.9-1.49.12-.13.23-.37.4-.42,1.33-.37,2-1.33,2.45-2.51.28-.72.59-1.43.91-2.18h0ZM199.02,37.71c0-.13-.02-.26,0-.38.02-.08.11-.15.17-.23.03.05.08.1.09.14,0,.06,0,.14-.04.18-.08.09-.18.17-.27.25.21.32.54.42.9.52.67.19.79.36.8,1.04,0,.14-.05.27-.08.41-.08.12-.13.27-.23.35-.95.87-1.9,1.73-2.83,2.57-.19-.05-.28-.15-.25-.3.03-.14.08-.3.17-.38.71-.62.95-1.42.88-2.29-.05-.6.16-1.1.36-1.62.04-.11.2-.19.3-.28h0ZM159.66,35.53c.55-.15,1.1-.32,1.65-.45.2-.05.43,0,.6,0,.55.28,1.06.53,1.59.79.58-.09,1.16-.15,1.7-.31.4-.11.77-.36,1.15-.55.06-.04.12-.1.14-.16.04-.12.09-.29.04-.38-.06-.09-.26-.18-.36-.14-1.33.4-2.68.46-4.05.38-.36-.02-.72-.04-1.08-.01-.62.04-1.09.32-1.35.88-.34.04-.67.08-1.01.14-.14.03-.19.16-.14.31.02.06.07.12.12.15.18.11.39.12.57,0,.23-.15.39-.37.42-.65h0ZM179.79,15.59c.02.06.02.12.05.17.02.03.07.04.11.05.03-.1-.04-.17-.2-.19,0-.13,0-.27-.02-.41,0-.06-.04-.13-.08-.19-.02-.02-.09-.02-.13-.03-.02.12-.08.26-.04.35.05.1.2.16.31.23h0ZM129.07,53.83c-.04-.25-.14-.44-.44-.44,0-.14.04-.29-.02-.4-.38-.75-.84-1.44-1.49-2.06-.46.33-.89.65-1.38,1.01.75.44,1.41.84,2.1,1.2.24.13.54.15.81.22.03.26.2.38.45.43.04.04.09.08.13.12-.06-.03-.12-.04-.18-.07h0ZM188.5,45.76c-.04-.25-.17-.4-.44-.43.02-.54-.35-.91-.64-1.3-.12-.16-.43-.25-.59-.16-.44.26-.86.53-1.29.78-.25.13-.52.29-.79.31-.88.07-1.75,0-2.51-.5-.48-.32-.95-.65-1.44-.97-.09-.05-.25-.05-.37-.03-.14,0-.03.33.18.52.44.37.9.72,1.31,1.11.48.45,1.05.75,1.68.96.48.15.97.28,1.46.42.43-.13.84-.25,1.18-.36.29-.42.54-.75.77-1.06.21.02.35.01.49.05.2.05.4.14.6.2,0,.29.13.45.44.43-.03.31.17.4.43.43.08.1.14.21.24.27.14.09.26.03.26-.11,0-.03-.1-.06-.16-.08-.12-.03-.25-.04-.37-.05.02-.3-.17-.4-.43-.43h0ZM145.71,36.4c.04.58.24,1.1.55,1.6.19.29.36.61.54.91.11.2.1.4-.04.58-.14.19-.54.14-.76-.09-.2-.2-.43-.4-.54-.65-.55-1.31-1.27-2.54-1.66-3.92-.15-.54-.44-1.04-.7-1.54-.04-.08-.24-.16-.34-.13-.11.03-.23.16-.28.28-.06.12-.09.28-.07.41.18.97.33,1.95.82,2.84.55.99,1.11,1.99,1.7,2.96.63,1.03,1.31,2.03,1.97,3.05.09.14.06.3-.09.36-.12.04-.28.04-.4,0-.13-.05-.25-.15-.33-.27-1.24-1.65-2.58-3.25-3.51-5.1-.25-.51-.49-1.03-.75-1.53-.06-.11-.19-.19-.33-.32-.05.21-.12.4-.12.58-.03.56-.02,1.13-.06,1.7,0,.11-.14.22-.24.31-.11.07-.5-.14-.54-.28-.04-.14-.1-.27-.12-.41-.03-.2-.05-.42-.03-.63.12-1.37-.27-2.65-.58-3.93-.19-.03-.34-.1-.45-.05-.12.05-.21.18-.29.29-.07.12-.14.26-.16.4-.12,1.26-.32,2.53.17,3.77.08.19.08.41.13.62.3,1.47.86,2.84,1.67,4.12.15.23.26.49.38.74.02.04-.02.13-.05.19-.08.14-.21.15-.36.05-.06-.04-.14-.07-.18-.12-1.56-1.85-2.5-3.97-2.87-6.31-.14-.91-.24-1.81-.07-2.73.09-.48.02-.99.02-1.48,0-.17-.36-.33-.51-.27-.5.21-.82.57-1.08,1.01-.34.58-.36,1.21-.41,1.88-.26.3-.53.63-.78.93-.2.73-.15,1.44-.16,2.14-.01.64.05,1.28.03,1.9-.09,1.95.69,3.59,1.9,5.06.32.39.67.75.99,1.14.13.16.2.37.28.56.02.05,0,.17-.03.18-.12.06-.32.16-.37.12-1.34-1.12-2.42-2.44-3.19-3.99-.16-.31-.3-.66-.36-1-.32-1.95-.78-3.89-.28-5.88.17-.68.34-1.4.29-2.09-.05-.66.25-1.23.25-1.87,0-.14-.01-.28-.02-.42,0-.26-.35-.56-.58-.5-.26.06-.58.4-.5.62.41,1.07-.17,2.07-.21,3.1-.01.3-.3.46-.59.55-.2-.08-.39-.2-.6-.24-.11-.03-.3.04-.37.13-.28.33-.42.73-.48,1.16-.26,1.84-.15,3.68.1,5.5.18,1.33.77,2.57,1.58,3.69.68.93,1.5,1.73,2.38,2.47.12.1.07.28-.05.37-.04.03-.14.03-.19,0-1.73-.88-3.02-2.18-3.86-3.89-.25-.52-.44-1.04-.66-1.57-.08-.2-.19-.4-.2-.61-.08-1.41-.41-2.79-.5-4.2-.09-1.36.25-2.65.7-3.93.02-.05-.02-.17-.06-.19-.12-.04-.26-.1-.37-.07-.13.03-.25.13-.37.21-.92.57-1.4,1.41-1.58,2.44-.18,1.04-.33,2.09-.53,3.13-.15.76-.32,1.52,0,2.28.03.06.03.14.02.21-.22,1.51.3,2.94.53,4.39.14.84.41,1.65.81,2.41.57,1.06,1.06,2.17,1.81,3.13.49.62,1.02,1.2,1.66,1.68.86.65,1.76,1.25,2.65,1.86.48.32.97.63,1.46.94,1.97,1.25,4.06,2.2,6.41,2.54.14.02.3.03.43.07,1.54.52,3.15.48,4.75.47,1.89-.01,3.78-.01,5.68-.01.88,0,1.74-.12,2.5-.6.11-.06.27-.06.49-.12.19.12.46.24.66.43,1.18,1.09,2.51,1.91,4.02,2.5.6.23,1.17.58,1.77.83.33.13.7.17,1.05.23.06,0,.19-.05.19-.08,0-.12,0-.28-.08-.32-.78-.51-1.53-1.06-2.47-1.32-.56-.15-1.02-.53-1.44-.92-.74-.68-1.49-1.34-2.24-2.02-.16-.14-.33-.28-.46-.45-1.32-1.69-3.03-3.06-4.15-4.9-.18-.3-.43-.57-.69-.82-.52-.51-.95-1.07-1.22-1.73-.22-.54-.58-.98-.94-1.43-.96-1.14-1.92-2.3-2.87-3.42.22-.54.49-.69.75-.46.87.75,1.7,1.53,2.4,2.44.39.51.8,1,1.2,1.51.26.34.54.67.75,1.03.31.56.65,1.1,1.07,1.6.41.49.79,1.02,1.15,1.55.48.7,1.01,1.38,1.63,1.98.36.35.67.74.97,1.14.35.47.77.84,1.23,1.19.74.57,1.44,1.18,2.14,1.81.7.63,1.48,1.15,2.36,1.51,1.41.58,2.73,1.32,4.01,2.14.61.38,1.25.73,1.86,1.12.16.1.28.3.41.44-.53.67-.87.75-1.45.41-.81-.48-1.61-.96-2.43-1.42-.18-.1-.39-.16-.6-.25-.14.18-.27.34-.39.52-.27.39-.65.56-1.12.51-.36-.04-.72-.1-1.07-.19-1.99-.52-3.82-1.36-5.42-2.65-.33-.27-.68-.53-1.04-.76-.1-.06-.27,0-.43,0-.27.31-.54.64-.79.94-.18.08-.3.15-.44.19-.99.25-2,.38-3.02.41-1.82.04-3.64.1-5.46.08-1.74-.02-3.49-.1-5.21-.45-.5-.1-.99-.2-1.47-.38-.74-.29-1.48-.56-2.29-.67-.6-.08-1.07-.42-1.38-.94-.11-.18-.2-.4-.36-.53-.22-.18-.47-.36-.73-.41-.5-.12-1.01-.14-1.55-.22-.12-.15-.32-.29-.37-.47-.31-1.15-1.19-1.52-2.27-1.64-.43-.05-.87-.02-1.3-.04-.36-.02-.54-.46-.34-.8.07-.12.18-.22.26-.34.04-.06.04-.13.09-.28-.42-.58-1.06-.86-1.78-.99-.43-.08-.87-.09-1.3-.15-.43-.06-.65-.34-.73-.89-.02-.14-.05-.27-.07-.41-1.56-1.31-1.89-1.51-3.67-2.14-.05-.5.61-.56.67-1.13-.2-.41-.49-.89-.7-1.42-.18-.46-.27-.95-.4-1.43-.41-.31-.8-.61-1.18-.89,0-.17-.05-.32-.01-.44.08-.27.22-.52.3-.79.12-.41.21-.83-.04-1.23-.2-.32-.54-.45-.9-.55-.13-.04-.24-.15-.42-.28.49-.2.94-.39,1.35-.56.24-.59.48-1.12-.19-1.6-.32-.01-.68-.04-1.04-.04-.49,0-.83.24-1.06.63-.25.44-.41.9-.47,1.4-.08.7-.2,1.4-.33,2.25,1.07,3.89,2.94,7.65,4.41,11.55-.13.08-.24.19-.36.21-.23.04-.46-.05-.55-.25-.38-.76-.75-1.53-1.1-2.3-.26-.58-.47-1.18-.76-1.76-.95-1.91-1.62-3.93-2.43-5.89-.19-.48-.28-.95-.26-1.46.03-.99.06-1.98.38-2.93.29-.87.56-1.76.83-2.63.17-.53.34-1.08.48-1.54-.11-.38-.28-.59-.59-.67-.42-.11-.85-.2-1.34-.32-.43.05-.69.43-.82.82-.38,1.14-.75,2.28-1.04,3.45-.3,1.23-.51,2.49-.75,3.74-.44,2.2-.23,4.36.41,6.49.12.4.38.76.56,1.12-.11.26-.35.31-.51.2-.23-.16-.43-.39-.55-.63-.41-.78-.97-2.96-.99-3.88-.02-.99.01-1.98.03-2.97.01-.57.12-1.12.37-1.64.32-.65.4-1.35.51-2.05.13-.91.29-1.81.53-2.7.3-1.09.7-2.16,1.46-3.05.28-.33.52-.68.75-1.04.18-.29.31-.62.46-.91.82-.29,1.65.12,2.41-.19.05-.02.08-.09.12-.13-1.04-1.22-1.55-2.02-2.14-3.41-.12-.28-.07-.56.09-.81.07-.12.15-.25.25-.34.6-.52,1.28-.94,2.03-1.21.25-.09.62.2.58.48-.03.2-.04.45-.18.58-.24.26-.58.42-.83.67-.14.14-.26.38-.23.56.13.79.5,1.47,1.16,1.98.22.16.49.31.76.38.48.14.99.23,1.56.36.49-.19,1.02-.4,1.59-.62.89.19,1.81.39,2.71.58.67-.11,1.31-.22,2.01-.34,1.29-.74,2.37-1.79,3.53-2.75.11-.33-.04-.54-.34-.72-.11-.06-.23-.03-.38.05-1.95,1.06-2.65,1.19-5.32.91-.28-.2-.67-.41-.96-.71-.84-.87-1.27-1.89-.96-3.09.09-.38,0-.68-.09-1.03-.07-.3.09-.53.38-.69.73-.41,1.39-.29,2,.22.2.17.24.62.05.77-.23.17-.48.3-.73.46-.38.24-.66.55-.8.97q.36,1.1.93,1.57s.1-.1.11-.15c.17-.82.75-1.15,1.56-1.2.53-.03.98.5.79.99-.12.32-.37.59-.57.88.38.26.8.14,1.22,0,.28-.09.55-.26.63-.54.14-.5.56-.81.82-1.23.15-.49.03-.97-.08-1.46-.04-.17-.04-.17-.49-.27-.35.25-.69.53-1.07.73-.15.08-.41.01-.61-.03-.16-.03-.3-.43-.23-.54.4-.59.77-1.21,1.63-1.26.12-.01.24-.13.37-.21.1-.54.19-1.09.31-1.72-.12-.42-.26-.89-.41-1.37-.08-.27-.18-.53-.25-.81-.17-.71.09-1.32.76-1.58.6-.24,1.23-.43,1.86-.59.49-.13,1-.19,1.51-.28.41.06.84.13,1.26.2.19-.14.41-.23.54-.39.75-.94,1.78-1.18,2.92-1.13.36.01.72.09,1.05.2.51.17.7.77.4,1.24-.15.24-.36.42-.71.31-.2-.06-.5-.12-.63-.02-.9.69-1.9.55-2.92.42-.07-.01-.14,0-.33.02-.35.19-.79.43-1.18.64-.71.04-1.36.06-2.01.12-.21.02-.43.11-.6.23-.17.11-.29.31-.43.48.04.21.04.44.13.62.44.92.74,1.85.24,2.85-.06.12-.06.28-.05.42.05,1.45.39,2.81,1.48,3.88.97.94,2.01,1.83,3.05,2.78.5-.04,1-.11,1.49-.09.5.02,1,.17,1.51.21.38.03.7.14,1.01.34.18.12.4.17.6.23.73.23,1.09.07,1.32-.64.11-.33.19-.68.43-.96.04-.05.11-.09.21-.16.17.08.36.15.54.25.12.07.22.18.33.27.28-.28.18-.66.34-1.06.32-.36.69-.79,1.08-1.21.25-.27.69-.19.93.13.36.47.56.98.51,1.58-.06.63-.17,1.26.02,1.89.12.37.69.66,1.06.5.13-.06.23-.17.36-.23.13-.07.26-.11.43-.18.27.17.56.36.9.58.53-.03,1.1-.06,1.68-.1.5-.09.74-.72,1.38-.56.28.26.58.54.94.88.07-.52.1-.94.19-1.35.06-.29.28-.51.58-.56.43-.07.86-.12,1.3-.12.67,0,1.3-.14,1.92-.35.77-.25,1.2-.81,1.31-1.55.09-.7.13-1.41-.27-2.07-.11-.18-.14-.4-.21-.6-.05-.17.08-.47.23-.56.06-.04.11-.11.17-.12,1.08-.21,1.78-.91,2.45-1.67.3-.35.39-.76.38-1.19,0-.42-.1-.83-.3-1.23-.25-.51-.65-.75-1.22-.67-1,.15-2,.32-2.98.49-.44.61-.85,1.19-1.27,1.78-.49.29-.98.59-1.47.89-.15,0-.29.02-.43,0-.35-.06-.7-.2-1.05-.2-.61,0-1.14-.2-1.69-.39-.7-.26-1.08-.73-1.01-1.46.07-.79-.17-1.54-.33-2.3-.09-.45.23-1.03.67-1.22.6-.27,1.24-.4,1.9-.21.12.03.23.15.31.25.08.11-.1.5-.25.54-.28.07-.57.13-.85.19-.39.09-.62.34-.79.78.02.69.16,1.45.31,2.13.45.55.99.73,1.59.71.36,0,.72-.08,1.08-.15.93-.19,1.62-.61,1.7-1.64.02-.2.14-.4.25-.57.07-.11.21-.23.33-.25.21-.04.43.01.65,0,.59-.04,1.14-.16,1.56-.62.19-.2.44-.36.68-.52.87-.58.91-.69.65-1.74-.03-.14-.05-.28-.08-.44.19-.26.4-.54.63-.84.07-.68.08-1.38-.18-2.06-.24-.61-.49-1.18-1.12-1.51-.49-.26-.61-.77-.93-1.26-1.43-1.19-3-2.32-4.75-3.22-.58-.3-1.12-.67-1.69-.96-.25-.12-.55-.16-.83-.23-.1-.08-.18-.18-.29-.23-.16-.09-.25-.03-.22.1,0,.03.11.04.17.05.12.02.24.02.37.04.03.13.02.29.09.39.52.7,1.17,1.28,1.97,1.64.94.42,1.64,1.16,2.55,1.61.12.06.22.2.29.31.07.12.12.27.1.4-.04.23-.23.32-.46.34-.88-.33-1.71-.74-2.41-1.39-.26-.24-.59-.42-.92-.57-.6-.27-1.13-.65-1.6-1.09-1.24-1.14-2.77-1.8-4.29-2.47-.4-.18-.82-.29-1.22-.46-.54-.23-1.1-.36-1.68-.4-.43-.03-.88-.03-1.3-.12-.78-.18-1.53-.47-2.3-.62-.71-.14-1.44-.15-2.16-.25-1.8-.27-3.6-.43-5.41.01-.62.15-1.3.14-1.95.18-2.17.13-4.34.36-6.46.87-.85.2-1.72.31-2.53.61-.81.29-1.56.77-2.34,1.14-.85.41-1.74.74-2.55,1.2-2.64,1.49-5.33,2.9-7.77,4.7-1.5,1.11-3.17,2-4.63,3.18-.33.27-.75.42-1.14.62-1.16.61-2.19,1.37-3.03,2.38-.58.71-1.29,1.34-1.89,2.04-1.34,1.58-2.59,3.23-3.7,4.97-.84,1.33-1.74,2.61-2.68,3.87-.52.69-.92,1.44-1.23,2.23-.61,1.59-1.36,3.11-2.45,4.47-.71.89-1.29,1.87-1.8,2.89-.51,1.02-1.12,1.98-1.72,2.95-.67,1.09-1.37,2.16-2.07,3.23-.42.65-.87,1.3-1.44,1.86-.26.24-.45.54-.67.83-.96,1.24-1.92,2.48-2.88,3.72-.13.16-.28.33-.45.45-1.06.76-1.9,1.77-2.95,2.51-1.47,1.03-3,2-4.59,2.84-1.53.8-3.17,1.41-4.77,2.09-.33.14-.68.23-1.02.35-.34.12-.72.19-1.01.38-1.23.81-2.66,1.13-4.04,1.56-1.17.37-2.38.66-3.57.95-.84.21-1.67.47-2.55.57-.79.09-1.55.33-2.36.4-.86.08-1.72.25-2.59.35-.29.03-.58.03-.87-.02-.38-.05-.65-.27-.73-.66.11-.28.32-.49.62-.52.65-.03,1.3-.02,1.96,0,.95.02,1.87-.06,2.79-.35.89-.28,1.84-.41,2.76-.61.14-.03.29-.03.43-.07,2.74-.92,5.64-1.37,8.26-2.66,1.83-.51,3.44-1.52,5.21-2.17.67-.24,1.28-.67,1.88-1.07.6-.39,1.18-.81,1.85-1.11.13-.05.27-.11.38-.2,1.63-1.2,3.24-2.4,4.54-3.94.32-.38.59-.82.95-1.16.68-.65,1.24-1.38,1.71-2.19.21-.37.49-.7.78-1.02,2.12-2.36,3.73-5.04,5.12-7.85.22-.44.41-.92.71-1.3,1.41-1.82,2.36-3.89,3.35-5.93.25-.51.61-.97.65-1.56.39-.18.45-.5.42-.87.28,0,.39-.2.46-.43.34-.19.39-.51.41-.85.28-.01.41-.18.47-.42.89-.69,1.14-1.1,1.31-2.11.41-.05.6-.36.79-.65,1.31-1.95,2.71-3.84,4.39-5.51.25-.25.52-.51.71-.8.6-.92,1.48-1.53,2.42-2.09.86-.52,1.73-1.05,2.53-1.65,1.61-1.21,3.3-2.3,5.01-3.36.62-.38,1.22-.77,1.81-1.18,1.88-1.33,3.86-2.51,5.98-3.45,1.05-.47,2.06-1.01,2.99-1.68.35-.04.75.04.89-.43.34.04.68.07.99-.09.03-.02.06-.1.05-.11-.04-.05-.1-.11-.15-.12-.35-.04-.68-.01-.85.36-.35.03-.75-.02-.89.43-.59,0-1.13.16-1.68.36-1.9.68-3.67,1.65-5.59,2.31-.67.23-1.29.64-1.89,1.01-.97.61-1.92,1.27-2.87,1.9-1.6,1.08-3.2,2.18-4.84,3.2-.55.34-1.05.75-1.53,1.17-1.68,1.45-3.14,3.11-4.61,4.75-1.28,1.43-2.39,3-3.36,4.65-.18.31-.33.62-.28.99-.07.02-.16.01-.2.05-.58.58-1.04,1.24-1.1,2.08-.28.02-.38.21-.46.42-.33.2-.35.53-.41.85-.24.04-.38.2-.46.42-.4.17-.41.52-.41.87-.33.03-.52.26-.65.51-.56.98-1.09,1.99-1.66,2.98-.82,1.43-1.8,2.74-2.89,3.98-.23.27-.5.52-.69.82-.75,1.13-1.63,2.17-2.54,3.18-.33.37-.59.8-.87,1.22-1.52,2.25-3.14,4.41-4.94,6.46-.75.85-1.52,1.71-2.13,2.68-.63.99-1.62,1.62-2.61,2.22-.55.34-1.1.66-1.57,1.12-.52.5-1.17.83-1.83,1.14-1.31.62-2.61,1.24-3.92,1.85-1.06.49-2.21.7-3.32,1.05-.39.12-.86.02-1.41.02-1.36.84-3,1.11-4.67,1.36-2.3.34-4.58.76-6.88,1.15-1.08.17-2.18.14-3.26-.01-1.01-.14-2.02-.23-3.04-.27-.65-.03-1.29-.13-1.94-.27-1.2-.25-2.39-.58-3.64-.69-.58-.05-1.17-.22-1.61-.59-.51-.44-1.09-.7-1.7-.92-.61-.23-1.24-.42-1.82-.7-.58-.28-1.12-.65-1.55-.9-.47-.08-.71.09-.96.23-.63.35-1.25.72-1.88,1.08-.25.13-.5.32-.77.4-1.87.59-3.59,1.54-5.46,2.12-1.31.39-2.65.76-4.07.62-.73-.08-1.45.02-2.17.21-1,.24-2.01.23-3.03.04-.5-.11-1.01-.22-1.51-.22-1.32.02-2.59-.31-3.89-.44-.97-.09-1.84-.4-2.64-.92-.44-.39-.66-.92-.89-1.44-.06-.12-.1-.28-.07-.4.03-.13.12-.28.23-.34.1-.06.31-.09.39-.03.36.24.68.51,1.1.83.35-.04.77-.09,1.24-.14.29.29.59.59,1,.99.62.24,1.4.4,2.2.43,1.67.05,3.34.26,5.02.15.8-.05,1.6,0,2.37-.27.2-.07.43-.09.64-.09,1.41-.04,2.73-.41,4.02-.91,1.28-.49,2.63-.78,3.85-1.43.18-.1.41-.13.62-.18.87-.19,1.62-.6,2.33-1.11.64-.46,1.27-.93,1.84-1.35.5-.05.82.14,1.07.38,1.56,1.47,3.5,2.23,5.53,2.82.49.14.96.32,1.43.51.87.35,1.76.66,2.72.73.36.02.73.08,1.08.18,1.29.35,2.59.33,3.89.05.21-.04.42-.1.64-.13.58-.08,1.16-.13,1.72.09.92.35,1.86.28,2.79.08,1.28-.27,2.55-.5,3.86-.64,1.08-.11,2.13-.42,3.19-.67.92-.21,1.85-.4,2.75-.67,1.11-.33,2.21-.69,3.27-1.12,1.07-.43,2.19-.73,3.18-1.37.97-.62,2.06-1.04,3.08-1.6.5-.27.98-.63,1.4-1,1.4-1.23,2.8-2.47,3.99-3.91,1.09-1.32,2.24-2.6,3.36-3.9.04-.05.09-.1.14-.16,1.47-2.02,2.96-4.03,4.09-6.25.32-.63.65-1.26,1.01-1.88.72-1.23,1.49-2.43,2.19-3.66,1.06-1.85,2.17-3.67,3.42-5.42.33-.46.63-.95.91-1.45.66-1.19,1.51-2.24,2.49-3.21,1.23-1.22,2.36-2.5,3.25-3.98.48-.79,1.1-1.49,1.78-2.14,1.35-1.28,2.72-2.56,4.04-3.87.98-.97,2.11-1.73,3.34-2.34.58-.29,1.17-.56,1.75-.87.89-.48,1.77-.98,2.56-1.6,1.31-1.03,2.8-1.78,4.36-2.38,1.21-.48,2.43-.93,3.65-1.4.27-.11.54-.22.79-.37,1.97-1.14,4.13-1.71,6.36-2.1,2.07-.36,4.16-.64,6.21-1.14.49-.12,1.01-.11,1.51-.16.58-.05,1.16-.09,1.74-.18.87-.14,1.74-.05,2.61-.08,1.34.38,2.75.21,4.1.57.49.13,1.01.14,1.52.18,2.27.16,4.45.61,6.49,1.66.38.2.82.29,1.23.43.34.11.73.18,1,.38.88.66,1.9,1.04,2.9,1.45.94.39,1.83.86,2.66,1.44.3.2.6.4.91.6.44.01.88,0,1.31.04.47.03.82.29,1.04.68.14.24.22.53.35.77.09.18.23.33.37.52.52-.11,1-.24,1.5-.32.5-.08,1.01-.11,1.47-.15.23-.14.46-.21.6-.36.77-.78,1.73-1,2.79-.89.29.03.58.06.97.1.37.19.84.39,1.27.64.57.33,1.16.58,1.84.61.21,0,.43.05.64.13,1.1.41,2.25.58,3.42.62.74.03,1.43.2,2.11.49.8.34,1.61.65,2.32.94.35.34.44.67.43,1.03,0,.35,0,.7,0,1.04.25.4.64.6,1.06.72.28.07.57.09.86.12.66.07,1.04.46,1.28,1.02.14.33.25.66.37.99.42,1.21.83,2.42,1.25,3.62.12.33.3.65.35.99.16,1.09.8,1.96,1.31,2.88.24.45.66.75,1.13.95.32.05.57-.09.83-.21.46-.22.91-.44,1.38-.63,1.16-.47,2.28-.35,3.33.3.23.14.51.38.56.62.25,1.08.99,1.87,1.59,2.75.12.18.26.34.41.53.28.18.57.41.89.57,1.01.51,1.71,1.3,2.28,2.22.26.43.48.88.8,1.27.93,1.12,1.52,2.39,1.75,3.7.31.48.65.73,1.06.9.4.17.79.35,1.22.54.17.21.36.43.54.64.67.79.8,1.64.34,2.56-.19.39-.23.81-.22,1.24,0,.35,0,.71,0,.9-.22.66-.59.99-1.03,1.26-.43.26-.88.49-1.39.77-.38,1.29-1.47,1.99-2.65,2.56-.31.15-.69.21-1.05.26-.36.04-.72,0-1.06,0-.95.87-2.15,1.19-3.32,1.56-.26.08-.59.05-.86-.01-.7-.19-1.39-.43-2.11-.65-.48-.05-.98.05-1.46.23-.26.1-.51.42-.43.65.18.54.36,1.08-.01,1.61.24.29.41.52.61.71.89.84,1.78,1.66,2.67,2.5.63.59,1.36,1.06,2.09,1.53.8.5,1.67.86,2.6,1.07,2.13.47,4.28.76,6.48.82,2.05.06,4.05-.21,6.07-.53,1.89-.3,3.61-1.06,5.35-1.76.47-.19.91-.43,1.36-.67,1.35-.7,2.7-1.4,4.04-2.1.13-.29.23-.55.35-.8.44-.95,1.24-1.13,1.83-.36.57.75,1.29,1.35,2.02,1.92.23.18.47.35.74.44,1.45.46,2.79,1.21,4.3,1.53.28.06.56.19.84.2,2.03.1,4.03.58,6.09.46.8-.04,1.6-.04,2.4,0,2.81.11,5.49-.48,8.1-1.42.34-.12.68-.24,1.02-.36.06-.02.14-.02.21-.02.23.12.29.34.16.52-.21.28-.47.54-.75.75-.23.17-.51.27-.79.36-1.38.45-2.74.92-4.18,1.18-1.23.22-2.44.33-3.68.32-1.31-.01-2.62.04-3.93.04-.43,0-.9.04-1.3-.09-.92-.31-1.85-.32-2.8-.34-1.39-.04-2.74-.33-4.01-.91-.26-.12-.52-.26-.79-.36-1.7-.69-2.72-1.2-3.82-1.91-.11-.07-.27-.12-.41-.11-.13,0-.3.07-.35.16-.1.18-.14.39-.17.59-.14.96-.73,1.53-1.66,1.72-.67.14-1.24.38-1.73.84-.54.5-1.2.74-1.92.94-1.12.3-2.19.74-3.38.79-.35,0-.71.16-1.04.27-.75.26-1.5.55-2.25.82-1.03.38-2.07.67-3.19.64-.66-.02-1.29.14-1.94.27-.56.1-1.14.12-2.05.2,1.43.38,2.54.33,3.65.13.5-.09,1-.22,1.5-.24.95-.02,1.88-.09,2.8-.36.48-.14,1-.16,1.51-.16.88,0,1.73-.24,2.58-.38.28-.04.55-.16.82-.27.4-.18.77-.41,1.18-.56,1.17-.43,2.22-1.04,3.05-1.97.19-.21.43-.39.69-.52.41-.2.84-.24,1.19.14.09.3-.01.55-.21.78-.33.4-.82.58-1.22.88-.81.61-1.69,1.09-2.66,1.43-.34.12-.69.25-.98.45-.8.56-1.71.75-2.67.85-.43.04-.87.08-1.3.09-.88.03-1.73.09-2.58.33-.83.23-1.72.26-2.58.4-.57.09-1.14.22-1.68.32-1.47-.1-2.92-.25-4.38-.29-1.04-.02-2.02-.25-2.98-.56-1.1-.36-2.18-.78-3.29-1.13-1.03-.33-1.98-.88-2.96-1.34-1.01-1.05-2.39-1.59-3.54-2.46-.77-.58-1.41-1.21-1.75-2.11-.26-.67-.67-1.25-1.21-1.75-.59-.54-1.03-1.19-1.33-1.92-.13-.33-.3-.65-.48-.95-.41-.71-.6-1.44-.47-2.25.02-.13-.02-.28-.03-.42-.54-.83-1.08-1.67-1.61-2.5-.44-.4-1-.58-1.56-.72-.17-.04-.38.08-.65.14.16.46.27.86.44,1.25.22.53.53,1.02.71,1.55.58,1.69,1.55,3.18,2.47,4.71.11.17.21.38.35.53.84.97,1.69,1.94,2.54,2.9.19.22.45.38.61.61.82,1.25,1.83,2.37,2.73,3.56.05.05.09.13.09.19-.01.13-.02.27-.08.39-.07.13-.23.18-.38.08-.91-.59-1.68-1.33-2.31-2.21-.42-.58-.85-1.15-1.32-1.69-.28-.32-.63-.58-.97-.84-.07-.05-.25.01-.37.06-.04.01-.08.12-.07.17.05.2.09.42.18.6.4.77,1.01,1.38,1.69,1.93.51.4.98.84,1.36,1.36.12.18.12.47-.04.57-.21.12-.41.08-.6-.04-.18-.11-.36-.23-.54-.37-.23-.17-.44-.37-.67-.54-.4-.3-.82-.58-1.29-.92h-.79c-.39,0-.73-.15-.93-.46-.57-.91-1.32-1.68-2.09-2.44-.3-.3-.56-.65-.79-1.02-.52-.85-1.02-1.71-1.5-2.58-.14-.24-.25-.52-.28-.79-.08-.75-.44-1.36-.94-1.87-.92-.95-1.52-2.06-2.06-3.22-.3-.65-.59-1.31-.99-1.88-.63-.9-.97-1.88-1.25-2.91-.09-.34-.2-.68-.36-.99-.09-.18-.28-.38-.46-.42-.92-.22-1.85-.37-2.78-.05-.07.02-.12.08-.18.11-.12.54.18.96.46,1.37.11.16.33.29.53.34.35.09.72.07,1.08.14.21.04.39.15.65.25-.15.19-.25.41-.41.49-.25.12-.56.14-.84.22-.15.05-.31.35-.29.53.03.36.15.69.45.99.41.32,1.08.29,1.5.81-.11.16-.17.39-.33.49-.51.33-.6.74-.43,1.29.04.11-.05.26-.09.44-.39.1-.8.2-1.21.31-.17.16-.2.36-.11.56.07.16.06.3-.07.35-.12.05-.3.07-.4.02-.5-.29-.98-.62-1.47-.91-.11-.07-.28-.07-.42-.07-.06,0-.16.02-.19.06-.07.11-.19.29-.15.35.37.6.77,1.19,1.16,1.76.4.29.85.21,1.28.28.43.07.85.17,1.17.5,0,.62-.88.41-.98.95.18.43.55.65.96.82.33.13.69.21,1.01.37.11.04.15.23.23.34-.14.22-.28.45-.41.66.26.6.76.87,1.33,1.05.07.03.14.05.21.07.07.02.14.04.21.05.7.16,1.4.32,2.08.46.13-.11.24-.21.36-.3.38-.3.72-.3.95-.03.05.06.12.09.16.14.42.58.83,1.16,1.24,1.74.2.28.1.55-.23.65-.21.06-.43.08-.62.17-.12.05-.2.19-.28.29-.04.05-.04.13-.07.2,1.62,1.39,1.76,1.47,3.64,2.2.08.11.19.22.24.35.1.27.17.54.28.9.51.46,1.22.85,1.63,1.55.13.22.47.32.79.52.12.32.28.71.47,1.2.16.1.39.28.64.4,1.13.52,2.32.88,3.53,1.09,1.65.28,3.29.56,4.93.86.57.1,1.16.16,1.74.13,1.11-.05,2.16.25,3.23.4.1.02.21.17.27.28.07.12-.17.44-.35.47-2.32.38-4.63.38-6.93-.13-.14-.03-.28-.07-.43-.1-3.42-.46-6.58-1.73-9.72-3.06-.53-.22-1.07-.44-1.6-.67-.66-.29-1.34-.56-1.99-.87-.91-.44-1.82-.89-2.7-1.39-.69-.38-1.37-.81-1.99-1.29-1.13-.89-2.22-1.82-3.32-2.76-.33-.28-.62-.6-.92-.91-.6-.61-1.2-1.23-1.79-1.85-.1-.1-.24-.17-.32-.29-.77-1.13-1.81-2.03-2.74-3.02-.64-.67-1.24-1.39-1.63-2.24-.42-.91-1-1.72-1.66-2.48-.66-.76-1.24-1.58-1.59-2.52-.27-.73-.9-1.28-1.03-2.09-.05-.35-.36-.65-.68-.79-1.5-.65-2.62-1.77-3.82-2.79-.22-.18-.43-.38-.65-.56-.06.06-.15.11-.14.13.18.67.34,1.35.26,2.07-.05.43.08.84.22,1.24.15.4.26.81.42,1.32.26.3.59.68.91,1.05.75.87,1.53,1.71,1.92,2.81.07.19.18.39.33.54.67.66,1.12,1.47,1.71,2.19.31.38.65.76,1.01,1.11,1.24,1.21,2.37,2.5,3.31,3.93.44.66.93,1.25,1.52,1.79.59.53,1.13,1.1,1.68,1.66,1.11,1.13,2.35,2.1,3.7,2.96,1.53.96,3.08,1.88,4.71,2.67.52.25,1.06.48,1.54.79,2.65,1.71,5.62,2.65,8.68,3.32,1.4.31,2.83.62,4.3.56.16,0,.37.2.49.35.17.21.05.53-.19.75-.22.2-.52.37-.79.27-.9-.32-1.86-.32-2.78-.48-1.14-.21-2.3-.34-3.37-.85-.32-.15-.7-.18-1.05-.27-.84-.23-1.66-.5-2.42-.94-1-.57-2.05-1.08-3.08-1.6-.26-.13-.51-.31-.79-.36-.67-.13-1.21-.46-1.71-.89-.27-.23-.58-.45-.9-.59-1-.43-1.88-1.09-2.83-1.58-1.05-.55-1.9-1.29-2.72-2.09-.36-.36-.72-.67-1.18-.92-.37-.19-.67-.53-.97-.83-.5-.52-.96-1.06-1.45-1.59-.49-.52-.97-1.05-1.34-1.66-.67-1.11-1.52-2.08-2.45-2.98-1.3-1.26-2.36-2.69-3.46-4.09-.13-.17-.29-.33-.36-.53-.35-1.05-1.04-1.84-1.83-2.59-.79-.76-1.33-1.69-1.6-2.74-.22-.82-.52-1.61-.5-2.49.01-.59-.34-1.03-.94-1.3-.46-.2-.87-.5-1.3-.76-.1-.83.12-1.66-.04-2.47-.22-.17-.37-.33-.56-.42-.1-.05-.3-.03-.38.04-.09.07-.15.26-.11.36.3.78.63,1.55.96,2.32.02.06.11.09.17.13Z"/>
      <path class="cls-1" d="M130.88,8.76c.87.03,1.75.05,2.62.11.21.01.43.09.62.19.18.1.34.27.45.44.07.1.07.29,0,.38-.06.1-.22.18-.35.2-.13.02-.3,0-.42-.06-.53-.28-1.1-.35-1.69-.34-.94,0-1.89.02-2.84.05-.29.01-.58.05-.86.12-1.55.38-3.1.75-4.64,1.17-.63.17-1.25.41-1.83.7-1.35.69-2.77,1.25-4.05,2.08-.78.51-1.67.85-2.51,1.28-.58.3-1.15.6-1.72.91-1.09.61-2,1.42-2.76,2.38-.67.84-1.35,1.66-2.03,2.5-.09.11-.17.23-.29.31-1.31,1.03-2.29,2.37-3.52,3.47-.11.1-.2.21-.32.29-1.65,1.21-2.87,2.79-4,4.45-.65.94-1.35,1.84-1.88,2.85-.1.19-.22.38-.37.53-1.13,1.14-1.71,2.62-2.52,3.95-.22.36-.36.77-.5,1.17-.49,1.34-1.16,2.59-1.91,3.8-.49.78-.97,1.58-1.47,2.36-.66,1.01-1.19,2.12-2.13,2.93-.9,1.38-2.12,2.5-3.21,3.74-.95,1.07-1.91,2.13-2.9,3.16-.89.94-1.81,1.85-3.07,2.34-1.16.85-2.48,1.45-3.61,2.35-1,.81-2.15,1.45-3.44,1.79-.7.18-1.38.46-2.07.66-.2.06-.43.03-.64-.02-.09-.03-.17-.18-.22-.29-.02-.04.02-.14.06-.19.1-.1.21-.21.34-.25.55-.18,1.11-.33,1.66-.51,1.32-.43,2.55-1.01,3.67-1.83,1.1-.8,2.27-1.53,3.43-2.24,1.18-.73,2.26-1.55,3.19-2.56,1.17-1.26,2.31-2.55,3.53-3.76,1.33-1.33,2.38-2.85,3.55-4.29.76-1.54,1.81-2.89,2.73-4.33.34-.54.55-1.15.81-1.74.48-1.1.95-2.21,1.44-3.32.43-.98.93-1.92,1.62-2.76,1.32-1.6,2.43-3.35,3.61-5.05.41-.59.86-1.13,1.38-1.63,1.7-1.65,3.38-3.32,5.05-4.99,1.27-1.27,2.44-2.62,3.5-4.05.38-.53.86-.94,1.43-1.29,1.36-.81,2.72-1.63,4.15-2.34,1.75-.86,3.5-1.74,5.25-2.61,1.24-.62,2.51-1.13,3.89-1.34.21-.03.42-.11.63-.17,1.68-.51,3.42-.65,5.17-.69Z"/>
      <path class="cls-1" d="M135.61,5.45c.51.2.98.38,1.45.56.07.29-.18.57-.45.54-.21-.03-.43-.04-.64-.1-.86-.21-1.73-.25-2.6-.24-.87.02-1.75-.02-2.62.07-1.23.11-2.46.27-3.67.5-.86.16-1.72.27-2.59.34-.59.04-1.18.14-1.67.45-1.01.62-2.14.91-3.28,1.12-1.25.22-2.34.77-3.46,1.25-.93.4-1.81.9-2.71,1.38-.44.24-.88.51-1.32.75-.31.17-.62.41-.96.5-1.54.39-2.68,1.41-3.81,2.39-1.25,1.09-2.4,2.27-3.59,3.42-.16.15-.32.3-.43.48-.48.72-1.09,1.31-1.78,1.84-.92.71-1.56,1.68-2.26,2.58-.35.45-.68.91-1.04,1.35-1.32,1.6-2.5,3.3-3.63,5.03-.23.36-.41.75-.6,1.13-.52,1.01-1.04,2.01-1.89,2.83-.3.29-.5.7-.69,1.08-.56,1.07-1.17,2.11-1.91,3.08-.83,1.08-1.43,2.29-1.98,3.53-.59,1.31-1.38,2.48-2.48,3.48-.19.04-.41.09-.62.08-.13,0-.3-.07-.38-.16-.06-.09-.02-.25,0-.38,0-.06.05-.14.1-.18,1.23-.87,1.87-2.16,2.47-3.44.54-1.18,1.21-2.26,1.92-3.32.28-.42.61-.81.8-1.26.63-1.45,1.58-2.69,2.53-3.95.38-.51.74-1.05,1.01-1.63.96-2.01,2.34-3.74,3.7-5.49.48-.62.98-1.22,1.38-1.89.29-.48.62-.98,1.03-1.36,1.52-1.43,2.8-3.07,4.27-4.54.51-.51,1.04-.99,1.58-1.46.59-.52,1.22-1,1.79-1.54.9-.85,1.91-1.54,3.02-2.08.72-.35,1.41-.73,2.08-1.16.54-.35,1.14-.62,1.73-.89.92-.43,1.87-.77,2.72-1.32.35-.23.8-.31,1.21-.45,1.25-.39,2.53-.68,3.73-1.17,1.84-.74,3.75-1.12,5.71-1.28,1.24-.1,2.45-.22,3.67-.48,1.06-.23,2.15-.27,3.23-.13.58.07,1.16.09,1.92.15Z"/>
      <path class="cls-1" d="M125.85,55.55c.42.44.84.93,1.32,1.35,1.67,1.47,3.44,2.83,5.31,4.06.24.16.49.31.76.42,1.79.78,3.49,1.77,5.71,2.13.47,0,1.2-.02,1.92,0,.66.03,1.31.11,1.92.36,1.15.47,2.37.66,3.65.95,1.62-.48,3.35-.62,5.08-.87,1.01-.14,1.99-.4,2.99-.6.71-.14,1.42-.26,2.14-.37.11-.02.26.09.36.18.11.09.05.47-.06.59-.26.27-.59.42-.94.51-.92.2-1.85.38-2.78.56-.43.08-.86.13-1.28.24-.43.12-.85.15-1.29.13-1.17-.02-2.32.05-3.46.37-.27.08-.59.14-.86.08-1.41-.32-2.92-.19-4.24-.88-.4-.2-.82-.34-1.25-.3-.87.07-1.69-.46-2.57-.19-.9-.27-1.86-.34-2.72-.74-1.25-.57-2.54-1.07-3.71-1.78-1.3-.77-2.61-1.56-3.66-2.66-.4-.42-.82-.8-1.33-1.09-.72-.41-1.17-1.05-1.53-1.75-.1-.21-.1-.43.07-.58.1-.08.26-.08.45-.12Z"/>
      <path class="cls-1" d="M52.52,65.59c-.31-.13-.58-.22-.83-.35-.2-.1-.29-.43-.17-.54.09-.1.21-.18.33-.25.06-.03.14-.05.21-.05,1.77.09,3.45-.37,5.13-.79.49-.12.96-.31,1.44-.47.68-.23,1.35-.55,2.06-.67,1.76-.29,3.29-1.08,4.81-1.9,1.84-.99,3.61-2.1,5.22-3.44.38-.33.79-.62,1.28-.79.91-.3,1.62-.92,2.39-1.44.3-.2.57-.46.78-.74.61-.81,1.41-1.42,2.19-2.05.57-.44,1.07-.95,1.56-1.47.98-1.04,1.97-2.08,2.96-3.11.1-.11.21-.2.34-.26.12-.04.3-.07.38,0,.09.06.17.25.15.36-.04.2-.12.42-.26.56-1.69,1.65-3.14,3.52-5.03,4.98-.39.31-.74.68-1.06,1.06-.62.72-1.36,1.28-2.18,1.73-.82.45-1.57,1.01-2.33,1.53-.72.48-1.53.84-2.2,1.37-1.07.85-2.28,1.5-3.41,2.27-.9.61-1.86,1.1-2.9,1.43-1.86.61-3.7,1.26-5.58,1.8-1.74.5-3.52.83-5.27,1.2Z"/>
      <path class="cls-1" d="M192.65,60.42c.14.04.31.04.41.13.76.7,1.7,1.07,2.65,1.41.4.14.84.29,1.26.29,1.83.02,3.59.46,5.43.83.23-.03.52-.05.8-.11.64-.15,1.28-.14,1.94-.05.72.11,1.44.17,2.17.2.43.01.89,0,1.29-.12.99-.31,1.99-.38,3-.3.9-.51,1.81-.95,2.47-1.75.32-.38.77-.64,1.24-.85.59-.26,1.19-.52,1.79-.76.74-.3,1.43-.67,2.01-1.22.35-.34.81-.59,1.23-.86.11-.07.28-.09.42-.09.13,0,.28.06.38.15.16.12.16.44.02.56-.65.56-1.28,1.13-1.97,1.65-.34.26-.75.42-1.15.59-.8.34-1.62.63-2.41.98-.61.27-1.12.63-1.41,1.26-.23.48-.69.71-1.24.69-.45-.02-.85.06-1.27.21-1.73.58-3.49.95-5.34.79-.58-.06-1.16-.06-1.74-.03-3.23.12-6.34-.66-9.47-1.25-1.04-.2-1.88-.72-2.62-1.43-.22-.22-.2-.48.1-.91Z"/>
      <path class="cls-1" d="M82.06,59.44c-.04-.05-.09-.1-.11-.17-.02-.06-.05-.17-.02-.2.15-.14.3-.33.49-.39,1.19-.44,2.14-1.2,3-2.07,1.25-1.28,2.59-2.47,3.67-3.91.59-.79,1.36-1.46,2.08-2.17.62-.61,1.12-1.27,1.53-2.04.96-1.82,1.91-3.65,2.83-5.49.83-1.65,1.83-3.21,2.74-4.8.04-.06.08-.12.13-.18.86-1.04,1.71-2.1,2.58-3.13.06-.07.29-.09.38-.03.09.06.16.24.16.36-.02.2-.07.43-.18.59-.23.35-.49.7-.77,1.02-1,1.13-1.83,2.39-2.53,3.7-.9,1.69-1.85,3.35-2.62,5.1-.95,2.14-2.21,4.12-3.81,5.88-.48.53-.95,1.07-1.42,1.6-.29.32-.55.66-.86.96-1.11,1.12-2.25,2.21-3.36,3.33-1.03,1.05-2.3,1.7-3.72,2.09-.05.01-.12-.04-.19-.06Z"/>
      <path class="cls-1" d="M103.59,30.42c-.18-.05-.36-.04-.44-.12-.07-.07-.06-.25-.02-.37.04-.13.13-.25.23-.35.14-.15.29-.32.46-.44.8-.62,1.46-1.37,2.05-2.17,1.35-1.85,2.9-3.53,4.66-5.02,1.26-1.06,2.53-2.11,3.98-2.94.43-.25.84-.55,1.21-.88.49-.43,1.02-.79,1.61-1.08.72-.35,1.43-.69,2.16-1.01.92-.41,1.85-.8,2.79-1.18.41-.17.84-.21,1.26.02.06.03.14.1.14.14-.01.13-.03.34-.11.37-.94.37-1.8.9-2.79,1.16-1.49.39-2.78,1.17-4.04,2.01-.6.4-1.18.82-1.78,1.22-2.07,1.38-4.48,3.34-6.12,5.05-.3.3-.6.62-.84.96-1.22,1.78-2.84,3.19-4.41,4.63Z"/>
      <path class="cls-1" d="M228.13,56.4c.4.15.72.31,1.06.42.49.13.97.3,1.47.33,2.31.12,4.61.45,6.94.42.22,0,.43.01.65.02,1.69.09,3.3-.35,4.93-.66.28-.05.57-.1.85-.1.12,0,.24.13.35.19.09.43-.15.73-.51.81-1.12.27-2.21.68-3.39.67-2.54-.02-5.07,0-7.6-.06-1.15-.03-2.3-.22-3.45-.37-.7-.09-1.19-.5-1.49-1.1-.06-.11.11-.34.19-.57Z"/>
      <path class="cls-1" d="M109.67,48.91c-.17-.13-.42-.22-.46-.36-.09-.33-.12-.69-.12-1.04-.03-1.27-.07-2.53-.37-3.77-.2-.82-.14-1.66.1-2.5.46-1.62.77-3.29,1.46-4.85.37-.85.83-1.65,1.39-2.38.12-.16.33-.26.51-.37.13-.07.3,0,.32.16.03.2.04.45-.06.61-.56.9-.95,1.89-1.4,2.85-.95,2.02-1.34,4.13-1.22,6.36.08,1.61.04,3.23.03,4.85,0,.13-.1.25-.17.44Z"/>
      <path class="cls-1" d="M200.85,65.91c0-.23.11-.45.34-.44.43.03.85.19,1.28.22,1.16.09,2.33.1,3.47-.15,1.58-.37,3.17-.42,4.77-.33.08,0,.15,0,.22,0,1.05.1,2.03-.04,2.94-.6.37-.23.8-.34,1.25-.22.07.02.16.08.17.12.02.12,0,.25-.02.37-.01.06-.08.12-.14.15-.52.26-1.03.52-1.55.76-.4.19-.83.28-1.27.29-.87,0-1.74.02-2.62.02-.87,0-1.74.03-2.6.24-.49.12-1,.14-1.51.21-.58.07-1.16.09-1.73.21-.6.13-1.15.07-1.71-.12-.48-.17-.97-.31-1.28-.74Z"/>
      <path class="cls-1" d="M96.52,51.89c.21-.69.74-1.2,1.2-1.73.66-.76,1.22-1.56,1.75-2.42.41-.67.74-1.37,1.03-2.09.5-1.24,1.03-2.48,1.57-3.72.11-.25.3-.47.5-.67.08-.08.28-.12.39-.08.11.04.22.17.25.29.04.12.04.29,0,.42-.28.72-.57,1.44-.87,2.17-.29.72-.59,1.44-.9,2.15-.35.85-.73,1.68-1.31,2.43-.44.56-.81,1.17-1.2,1.76-.4.59-.85,1.14-1.44,1.57-.32.24-.66.25-.98-.08Z"/>
      <path class="cls-1" d="M143.22,45.56c.57.7,1.15,1.42,1.72,2.14.22.28.46.55.64.86.93,1.61,2.12,3.02,3.33,4.42.23.26.43.56.64.85.11.14.04.4-.13.57-.17.16-.44.19-.59.09-.5-.31-.86-.76-1.22-1.19-.37-.43-.71-.89-1.09-1.3-.39-.42-.73-.86-1.01-1.37-.45-.8-.96-1.56-1.57-2.27-.56-.64-1.03-1.35-1.31-2.16-.04-.12,0-.29.06-.4.1-.21.29-.28.54-.23Z"/>
      <path class="cls-1" d="M103.09,49.72c.47.2.65.57.57,1.02-.06.34-.2.67-.37.98-.14.24-.34.47-.57.63-1.71,1.21-3.06,2.79-4.62,4.16-.7.61-1.48,1.13-2.33,1.52-.15.07-.39-.06-.64-.11.16-.23.24-.46.4-.56,1.85-1.27,3.34-2.91,4.95-4.43.57-.53,1.11-1.11,1.81-1.83.03-.13.12-.47.21-.8.06-.2.07-.2.58-.58Z"/>
      <path class="cls-1" d="M231.98,59.52c.12-.14.25-.29.36-.42.19-.01.34-.05.47-.02.62.18,1.24.38,1.86.57,1.32.42,2.67.56,4.05.29.86-.17,1.72-.18,2.59-.12.21.01.42.06.64.1.29.05.55.38.48.59-.08.21-.23.35-.45.41-.13.04-.28.07-.42.07-1.59.01-3.17.02-4.76.03-.58,0-1.14-.03-1.69-.27-.73-.32-1.52-.42-2.3-.56-.37-.06-.64-.3-.81-.68Z"/>
      <path class="cls-1" d="M26.47,59.99c.19-.5.38-.64.71-.5,1.39.58,2.82,1.08,4.12,1.85.74.43,1.57.71,2.35,1.08.45.21.89.47,1.32.71.13.07.21.46.09.56-.1.08-.26.19-.37.16-1.33-.32-2.6-.82-3.84-1.38-.19-.09-.4-.2-.54-.35-.8-.9-1.92-1.21-3.03-1.52-.37-.1-.66-.28-.83-.62Z"/>
      <path class="cls-1" d="M133.93,50.53c.14.02.29,0,.41.06.2.09.39.19.56.32,1.42,1.07,2.84,2.16,4.25,3.25.05.04.12.09.14.15.04.13.1.28.07.39-.03.11-.15.25-.26.29-.43.17-.89.15-1.23-.14-.92-.81-1.97-1.42-2.97-2.11-.47-.33-.92-.69-1.21-1.19-.1-.16-.13-.38-.16-.58-.03-.19.22-.44.39-.43Z"/>
      <path class="cls-1" d="M88.42,59.82c-.51.1-.76-.02-.69-.18.06-.12.13-.24.2-.34.04-.06.11-.1.16-.14.54-.35,1.22-.42,1.71-.87.47-.44.98-.83,1.47-1.24.54-.47,1.07-.95,1.61-1.4.44-.37.94-.65,1.49-.83.1-.03.29.05.37.14.07.09.07.26.03.38-.04.12-.16.24-.26.33-.87.73-1.75,1.45-2.64,2.18-.38.31-.8.59-1.17.93-.71.65-1.52,1.06-2.29,1.06Z"/>
      <path class="cls-1" d="M108.31,51.51c.17.12.44.2.49.35.4,1.27.77,2.55,1.14,3.83.14.47.21.97.38,1.42.15.39.4.74.58,1.09-.2.32-.46.38-.75.27-.58-.22-.98-.69-1.05-1.25-.12-.99-.48-1.89-.79-2.83-.27-.8-.28-1.65-.23-2.49,0-.12.14-.23.23-.39Z"/>
      <path class="cls-1" d="M43.14,63.32c.11.13.22.23.27.35.09.2-.03.48-.19.55-.06.03-.12.09-.18.11-.63.14-1.26.28-1.99.43-.66-.4-1.43-.75-2.32-.86-.49-.06-.97-.27-1.44-.47-.18-.07-.29-.29-.46-.46.12-.18.23-.35.34-.5.12,0,.2-.02.26,0,1.13.53,2.32.76,3.57.74.36,0,.72.08,1.08.09.36.02.72,0,1.05,0Z"/>
      <path class="cls-1" d="M130.28,64.03c.05.15,0,.27-.18.32-.14.03-.3.08-.42.04-1.68-.65-3.34-1.35-4.84-2.36-.29-.19-.51-.48-.73-.76-.07-.09-.06-.27-.04-.4.02-.13.43-.28.56-.23.13.05.28.09.4.16,1.37.93,2.78,1.78,4.32,2.42.33.13.59.4.88.62.04.03.04.12.07.19Z"/>
      <path class="cls-1" d="M145.82,10.67c.13.12.29.2.33.32.13.47.25.94.33,1.42.09.52-.53,1.09-1.08,1.06-.67-.03-1.25-.3-1.79-.66-.35-.23-.44-.75-.23-1.12.15-.26.34-.48.61-.56.61-.19,1.24-.31,1.83-.46Z"/>
      <path class="cls-1" d="M148.99,27.59c.31.07.58.13.86.19.6.13.98.51,1.27,1.02.15.26.15.59-.02.77-.19.21-.42.39-.72.38-.65-.02-1.25-.22-1.82-.5-.55-.27-.68-.94-.25-1.39.18-.2.45-.31.69-.47Z"/>
      <path class="cls-1" d="M107.14,37.13c.06.19.2.39.17.57-.18,1.33-.15,2.64-.11,3.97,0,.07,0,.15-.03.2-.07.11-.16.23-.27.28-.15.08-.3.03-.37-.11-.73-1.47-.71-2.96-.08-4.45.11-.27.32-.45.68-.46Z"/>
      <path class="cls-1" d="M136.57,26.29c-.02.21-.37.54-.59.54-.66,0-1.3-.09-1.88-.38-.19-.09-.34-.26-.48-.42-.22-.25-.19-.77.07-.95.29-.2.6-.39.93-.52.43-.16.87-.09,1.18.27.27.32.5.69.72,1.05.06.1.03.27.04.41Z"/>
      <path class="cls-1" d="M191.98,62.76c-.14.13-.22.25-.34.29-.12.04-.31.03-.41-.04-1.09-.68-2.18-1.37-3.25-2.09-.22-.15-.36-.43-.48-.68-.04-.09.02-.28.1-.35.09-.08.3-.15.39-.1.75.42,1.5.83,2.22,1.3.54.34,1.05.74,1.54,1.15.14.11.16.36.23.53Z"/>
      <path class="cls-1" d="M158.31,65.45c.02.2.09.46-.14.56-1.31.57-2.63,1.09-4.11.98-.3-.02-.54-.17-.7-.41-.1-.14-.11-.29.03-.35.18-.1.38-.18.58-.23,1.11-.26,2.25-.39,3.34-.75.34-.11.71-.06,1,.2Z"/>
      <path class="cls-1" d="M110.15,27.37c-.1-.14-.28-.29-.3-.47-.02-.19.03-.44.16-.59.81-.92,1.75-1.69,2.99-2.02.14-.03.3-.07.42-.03.12.04.21.16.29.26.04.05.07.16.04.2-.07.12-.14.27-.25.33-1.08.6-2.03,1.34-2.88,2.22-.08.09-.27.06-.46.09Z"/>
      <path class="cls-1" d="M137.96,27.38c.48.03.71.16.88.41.3.45.36.91.06,1.38-.27.4-.8.59-1.33.47-.54-.12-.86-.47-.99-.98-.1-.38.14-.9.52-1.05.33-.12.68-.18.87-.22Z"/>
      <path class="cls-1" d="M140.19,48c.13.06.3.08.38.18.67.8,1.34,1.6,1.99,2.42.07.09.07.32,0,.38-.14.12-.35.25-.53.24-.2,0-.43-.1-.57-.23-.67-.62-1.27-1.31-1.76-2.08-.14-.22-.1-.58.11-.76.09-.09.25-.11.38-.16Z"/>
      <path class="cls-1" d="M144.81,24.11c-.06.14-.08.3-.17.39-.25.27-.58.41-.96.39-.44-.02-.83-.21-1.2-.44-.35-.22-.36-.84,0-1.09.23-.16.48-.3.74-.42.43-.19.83-.09,1.17.26.25.26.46.54.42.91Z"/>
      <path class="cls-1" d="M154.14,14.1c.05.3.1.57.14.8-.39.44-.79.4-1.18.13-.55-.39-.65-1.14-.26-1.67.48-.65,1.26-.78,1.85-.29.2.16.18.57-.04.73-.16.12-.35.21-.5.3Z"/>
      <path class="cls-1" d="M156.17,27.71c-.34.33-.69.35-1.04.21-.36-.14-.58-.4-.6-.79-.02-.38.16-.68.49-.87.39-.22.82-.23,1.23-.02.1.05.22.23.2.33-.07.41-.19.8-.28,1.14Z"/>
      <path class="cls-1" d="M141.5,57.89c-.23.2-.53.22-.8.14-.57-.16-1.02-.49-1.37-.95-.12-.16-.13-.43,0-.56.17-.17.38-.2.59-.13.63.2,1.12.61,1.51,1.12.07.09.05.25.07.38Z"/>
      <path class="cls-1" d="M136.75,13.15c.08.53-.39,1.12-.93,1.2-.31.04-.68-.16-.86-.49-.12-.21-.08-.56.11-.76.25-.25.52-.45.9-.5.34-.04.73.22.78.55Z"/>
      <path class="cls-1" d="M119.73,62.48c.07,0,.15-.05.21-.03.69.23,1.29.62,1.81,1.11.04.04.08.16.05.19-.08.1-.19.22-.29.25-.8.14-1.41-.2-1.9-.77-.1-.12-.04-.39-.02-.6,0-.05.09-.1.14-.15Z"/>
      <path class="cls-1" d="M144.68,55.21s.05-.01.11,0c.58.17,1.02.51,1.27,1.04.04.08-.04.27-.12.35-.09.08-.26.14-.39.13-.63-.04-1.07-.36-1.36-.9-.12-.21.12-.6.49-.63Z"/>
      <path class="cls-1" d="M152.5,57.75c-.31.48-.53.56-.82.37-.48-.32-.9-.68-1.08-1.24-.03-.11.04-.27.1-.38.09-.15.43-.22.57-.13.12.07.26.13.35.23.31.38.6.77.89,1.15Z"/>
      <path class="cls-1" d="M120.19,31.24c-.41-.37-.36-.76-.09-1.15.26-.37.6-.61,1.09-.53.25.04.44.22.41.39-.1.6-.45,1.02-1,1.28-.12.06-.28,0-.41,0Z"/>
      <path class="cls-1" d="M183.44,60.24c.04.15,0,.28-.18.32-.2.04-.43.08-.63.04-.43-.09-.78-.34-1.1-.62-.15-.13-.26-.45-.16-.54.1-.08.24-.16.37-.17.62-.08,1.12.17,1.52.61.09.1.12.25.18.38Z"/>
      <path class="cls-1" d="M170.98,50.45c.02.14-.24.33-.43.29-.52-.11-.85-.44-1.12-.86-.1-.15-.09-.41.04-.56.14-.19.58-.23.76-.08.33.26.58.59.75.97.03.06,0,.13,0,.24Z"/>
      <path class="cls-1" d="M161.66,66.35c-.37.52-.86.71-1.49.56-.2-.05-.42-.31-.34-.46.05-.12.12-.26.23-.31.26-.13.53-.23.8-.29.41-.09.68.1.8.5Z"/>
      <path class="cls-1" d="M115.57,57.88c-.13-.03-.3-.03-.4-.12-.29-.24-.47-.54-.41-.92.02-.13.09-.27.18-.36.11-.11.47-.07.59.05.26.26.45.55.44.93,0,.2-.19.41-.4.42Z"/>
      <path class="cls-1" d="M124.94,31.13c.02-.07.03-.14.07-.19.39-.58.85-.39,1.19,0,.14.16.17.38.06.57-.12.19-.33.24-.54.22-.39-.03-.63-.27-.78-.6Z"/>
      <path class="cls-1" d="M148.69,26.69c-.23.09-.41.21-.57.19-.28-.03-.48-.35-.41-.58.04-.11.13-.22.22-.31.13-.12.37-.08.52.13.1.14.14.33.23.56Z"/>
      <path class="cls-1" d="M146.51,19.52c-.04.23-.2.34-.42.31-.27-.05-.37-.18-.32-.4.06-.28.17-.37.41-.31.26.06.37.18.33.4Z"/>
      <path class="cls-1" d="M173.19,30.06c.16-.14.3-.31.48-.42.31-.18.76-.1,1,.12.53.52.76,1.17.78,1.89.01.36-.48.85-.84.8-.57-.09-1.13-.2-1.69-.29-.07,0-.13-.05-.2-.07-.42-.16-.8-.77-.73-1.18.07-.48.4-.76,1.04-.87.07,0,.14,0,.21-.01.03.34.05.68.11,1.01.02.09.2.19.32.2.12,0,.31-.05.35-.13.05-.1.02-.28-.05-.38-.17-.3-.44-.52-.78-.66Z"/>
      <path class="cls-1" d="M160.8,30.01c.36-.1.77-.22,1.19-.31.42-.09.84.18,1.04.59.16.33.19.67.11,1.03-.09.38-.65.77-.98.65-.41-.14-.81-.3-1.19-.5-.26-.13-.43-.36-.49-.66-.06-.31.07-.54.32-.8Z"/>
      <path class="cls-1" d="M163.93,27.38c-.17.12-.34.24-.53.37-.21-.08-.43-.11-.61-.21-.48-.28-.65-.78-.46-1.26.24-.57.63-.92,1.3-.94.45-.01.73.24.65.61-.11.47-.23.95-.35,1.43Z"/>
      <path class="cls-1" d="M165.44,18.82c.01.19-.4.53-.6.5-.58-.1-1.08-.33-1.44-.8-.15-.2-.18-.56-.05-.79.22-.38.55-.63.97-.76.33-.11.84.17.77.49-.1.47.2.78.32,1.16.02.06.02.13.03.2Z"/>
      <path class="cls-1" d="M169.79,23.67c.03.68-.48,1.04-1,.87-.13-.04-.26-.1-.38-.17-.51-.35-.59-.93-.19-1.43.41-.5,1.06-.46,1.36.12.12.24.18.51.21.61Z"/>
      <path class="cls-1" d="M179.45,28.39c-.08.15-.16.34-.29.5-.3.34-.85.31-1.1-.04-.2-.29-.38-.6-.22-.96.18-.42.54-.64.99-.67.12-.02.28.06.36.15.25.28.25.63.26,1.02Z"/>
      <path class="cls-1" d="M176.9,17.07c.04.36-.07.68-.25.98-.12.19-.56.25-.76.1-.3-.22-.47-.61-.35-.9.14-.32.35-.6.75-.65.25-.03.59.23.61.46Z"/>
      <path class="cls-1" d="M175.89,23.81c.01.27-.18.52-.45.57-.24.05-.52-.22-.54-.49-.02-.24.19-.5.47-.57.24-.06.52.2.53.49Z"/>
      <path class="cls-1" d="M173.92,27.64c-.07.14-.18.21-.34.18-.21-.03-.33-.28-.2-.46.09-.13.23-.16.38-.09.15.08.2.21.16.37Z"/>
      <path class="cls-1" d="M188.57,33.57c0,.66-.49,1.02-1.02.86-.43-.12-.78-.35-1.04-.7-.21-.3-.28-.63-.12-.98.17-.37.62-.62,1.05-.57.52.06.95.41,1.06.89.05.2.06.41.07.5Z"/>
      <path class="cls-1" d="M192.71,38.51c-.07-.03-.15-.04-.2-.08-.67-.55-.98-1.13-.74-1.34.42-.37.92-.3,1.42-.23.43.06.7.57.5.96-.2.4-.5.66-.98.69Z"/>
      <path class="cls-1" d="M184.12,41.06c-.11.12-.23.32-.4.38-.5.19-.98.08-1.43-.21-.23-.15-.44-.51-.33-.71.1-.17.24-.36.42-.44.58-.27,1.42-.01,1.7.51.06.1.03.27.05.46Z"/>
      <path class="cls-1" d="M187.8,41.77c-.28.04-.56-.17-.58-.45-.03-.3.18-.57.44-.59.29-.04.56.18.6.44.03.26-.2.56-.45.59Z"/>
      <path class="cls-1" d="M192.24,35.78c-.34.04-.66-.32-.56-.64.02-.06.08-.13.13-.14.32-.08.63.27.57.63,0,.06-.09.11-.14.15Z"/>
    </g>
  </g>
</svg>