<?xml version="1.0" encoding="UTF-8"?>
<svg id="Layer_2" data-name="Layer 2" xmlns="http://www.w3.org/2000/svg" viewBox="0 0 296.63 97.03">
  <defs>
    <style>
      .cls-1 {
        fill: #753d22;
        fill-rule: evenodd;
      }
    </style>
  </defs>
  <g id="Layer_2-2" data-name="Layer 2">
    <g>
      <path class="cls-1" d="M252.59,89.15l-.07.06.11.02-.04-.08h0ZM209.7,33.02s.09-.04.1-.08c.02-.05.02-.12-.01-.15-.08-.1-.15-.06-.16.09,0,.04.05.09.07.13h0ZM234.99,50.9s-.04.1-.04.14c0,.04.05.09.07.14.03-.04.08-.08.09-.12.01-.04,0-.1-.03-.14,0-.02-.06-.01-.1-.02h0ZM129.17,54.06s.01.12.04.13c.13.05.22,0,.25-.1,0-.02-.09-.08-.13-.08-.05,0-.1.03-.16.05h0ZM131.49,66.4c-.08-.04-.17-.1-.26-.12-.03,0-.09.05-.13.08.09.05.17.1.26.13.03,0,.08-.06.12-.09h0ZM121.67,54.41c-.06-.1-.11-.21-.18-.3-.03-.04-.13-.06-.16-.05-.12.08-.15.19-.09.32.06.13.16.19.3.14.05-.02.09-.07.14-.11h0ZM148.13,67.11s-.08-.11-.12-.12c-.23-.05-.46.03-.46.14,0,.04.07.11.12.11.11.01.23,0,.34-.02.05,0,.09-.07.13-.11h0ZM22.11,83.8c-.2-.21-.41-.14-.63-.03.2.2.41.13.63.03h0ZM204.03,25.8s-.09-.08-.14-.09c-.11-.01-.23-.01-.34,0-.05,0-.09.07-.13.11.04.04.07.1.12.13.17.09.33.08.49-.03.02-.02,0-.07,0-.11h0ZM199.25,73.68s-.07-.11-.11-.11c-.14-.02-.24.05-.27.18-.02.05,0,.12.02.16.01.03.1.04.12.03.09-.08.16-.17.24-.25h0ZM158.46,66.17c.26,0,.44-.11.56-.33.02-.04.04-.11.01-.13-.07-.12-.19-.16-.3-.09-.14.09-.27.21-.39.32-.03.03-.03.1-.02.13.03.04.09.07.13.1h0ZM226.92,76.13s-.11.04-.12.06c-.12.28.02.58.33.73.03.01.11-.01.13-.05.11-.22-.04-.55-.34-.74h0ZM133.24,4.89c-.43-.29-.43-.29-.9-.19-.04.01-.1.08-.11.13-.01.03.03.09.07.12.33.25.64.18.94-.06h0ZM120.51,55.17c-.24-.05-.45.16-.4.32.06.19.2.29.38.34.15.05.38-.19.31-.32-.08-.14-.22-.26-.29-.34h0ZM126.97,57.7c-.62.5-.63.53-.4,1.1.64-.53.63-.55.4-1.1h0ZM129.92,10c.76.12,1.41.17,2.06-.03-.03-.03-.05-.06-.11-.14-.5-.06-1.04-.09-1.58-.02-.09.01-.17.08-.37.19h0ZM199.36,75.4q.67.11,1.19-.16s.08-.1.08-.15c0-.04-.05-.1-.09-.12-.37-.15-.71-.09-1.03.13-.08.06-.11.2-.16.3h0ZM172.81,66.67c-.05-.1-.06-.23-.15-.29-.19-.15-.44-.16-.67-.09-.09.04-.16.12-.21.2-.02.03.03.11.07.15.15.2.37.29.6.34.14.03.33-.13.36-.3h0ZM127.78,56.68c.06,0,.14,0,.17-.02.34-.28.46-.65.42-1.07,0-.04-.08-.09-.13-.1-.05-.02-.13-.03-.17,0-.38.23-.61.55-.53,1,.02.08.16.13.24.2h0ZM203.32,85.3c.08-.13.19-.24.17-.31-.13-.5-.46-.81-.99-.89-.09-.01-.25.07-.28.14-.03.09.02.25.09.31.32.26.67.51,1.01.75h0ZM177.19,21.14c-.19.61-.14,1.18.23,1.71.03.04.1.05.16.08.12.03.23-.04.23-.19,0-.36-.03-.71-.1-1.07-.05-.23-.21-.43-.51-.53h0ZM125.63,54.39c0,.06,0,.13,0,.19.18.03.35.09.52.08.43-.01.85-.06,1.27-.11.11-.01.23-.11.28-.2.04-.08.02-.21,0-.3,0-.05-.08-.09-.14-.1-.05-.03-.12-.03-.18-.01-.58.15-1.17.31-1.75.46h0ZM16.36,84.1c.09.04.19.13.28.13,1.15.01,2.31.13,3.46-.02.06-.01.1-.07.19-.12-.18-.06-.35-.19-.5-.17-1.09.13-2.19,0-3.28.09-.05,0-.1.06-.15.1h0ZM134.67,11.02c-1.09-.24-1.54-.24-2.75.03.48.3.75.41.97.4.12-.01.26,0,.36-.05.44-.21.98-.07,1.41-.38h0ZM159.69,82.64c-.65-.69-1.43-1.17-2.31-1.48-.13-.05-.22.05-.22.25.5.44,1.07.91,1.73,1.25.16.08.35.11.53.13.08,0,.17-.09.27-.15h0ZM198.59,80.19c.18.53.55.89,1.11,1.08.22.08.48-.06.71-.4-.16-.39-.33-.79-.82-.87-.33-.05-.72-.2-1,.19h0ZM202.04,82.97c-.02-.05-.03-.12-.06-.17-.31-.48-.77-.75-1.34-.83-.06,0-.12.01-.17.03-.13.04-.24.16-.19.27.21.51.51.95,1.09,1.1.19.05.37.04.51-.11.08-.08.11-.2.16-.3h0ZM126.61,11.41c.77.02,1.5.06,2.23.07.43,0,.86-.05,1.23-.28.07-.04.09-.16.16-.3-1.25-.08-2.46-.16-3.62.51h0ZM173.18,75.57c.03.1.02.24.09.29.93.68,2,.8,3.1.77.11-.26-.05-.39-.19-.43-.95-.24-1.9-.46-2.85-.69-.04,0-.1.04-.15.05h0ZM216.47,41.36c-.66.12-1.14.18-1.6.29-.59.14-1.18.3-1.68.68-.04.04-.09.14-.08.15.07.07.17.17.25.16,1.06-.05,2.04-.32,2.88-.98.04-.04.07-.09.23-.3h0ZM224.6,42.07c.12.04.23.11.35.11.11,0,.23-.04.34-.07-.03-.1-.04-.22-.1-.3-.11-.14-.24-.27-.4-.35-.47-.27-.96-.51-1.45-.75-.1-.05-.23-.07-.35-.06-.11.01-.26.06-.31.13-.05.08-.04.26.02.32.5.57,1.2.77,1.9.96h0ZM172.66,34.9c-.14-.15-.23-.35-.38-.4-.47-.15-.95-.26-1.43-.36-.09-.02-.25.06-.31.15-.05.09-.05.25,0,.33.23.38.58.64,1.02.72.23.06.5.04.72-.04.14-.04.24-.25.38-.4h0ZM234.41,67.15c.06-.01.13-.01.18-.04.45-.22.81-.53,1.12-.92.24-.29.33-.63.25-1.01-.02-.1-.1-.23-.19-.28-.09-.04-.26-.01-.34.05-.64.51-.97,1.21-1.23,1.95-.01.04.03.11.07.14.04.04.09.06.14.09h0ZM200.65,77.38c.18-.04.41-.09.65-.15.16-.04.26-.3.2-.44-.09-.23-.25-.41-.48-.52-.41-.17-.84-.21-1.26-.07-.09.03-.19.16-.22.26-.08.37.17.78.5.84.18.03.36.05.61.08h0ZM170.23,64.59c-.18.32-.13.52.07.7.36.33.77.26,1.19.14.37-.11.67-.5.59-.78-.09-.3-.29-.5-.63-.55-.06,0-.12,0-.26-.02-.31.16-.68.35-.97.5h0ZM215.67,90.7c-.1-.35-.36-.51-.66-.55-1.09-.14-2.18-.33-3.3-.33-.15,0-.31.07-.49.1.12.12.19.24.29.28.47.13.94.32,1.42.34.74.02,1.46.2,2.19.24.18,0,.35-.05.54-.08h0ZM202.6,79.11c.04-.38-.08-.71-.28-.79-.51-.21-1.03-.38-1.59-.31-.18.02-.35.12-.42.3-.07.18-.05.36.07.5.12.12.26.28.42.31.6.11,1.21.14,1.79-.02h0ZM178.78,13.5s-.1-.07-.15-.08c-.94-.16-1.8.13-2.65.45-.2.08-.27.45-.13.61.16.2.37.35.63.28.82-.22,1.6-.53,2.25-1.1.04-.03.04-.11.06-.17h0ZM205.74,83.03c-.36-.61-.89-.96-1.64-.93-.31,0-.61.04-.92.06-.25.02-.33.31-.18.54.27.44.68.68,1.19.74.43.05.86.01,1.26-.16.1-.04.17-.15.28-.25h0ZM143.79,69.84c-.51.05-.93.09-1.36.14-.19.01-.37.34-.33.55.03.15.23.33.37.34.67.06,1.34.02,1.99-.11.17-.04.35-.12.49-.22.08-.06.16-.18.16-.27,0-.11-.09-.22-.18-.29-.09-.07-.21-.13-.33-.13-.3-.02-.61,0-.82,0h0ZM139.15,71.28c.29-.02.65-.02,1.01-.07.17-.03.35-.11.49-.21.06-.04.08-.23.04-.29-.24-.29-.6-.39-.96-.43-.67-.08-1.33,0-1.99.13-.05,0-.09.08-.15.1-.14.06-.18.36-.05.45.14.1.29.25.45.27.36.05.73.05,1.17.06h0ZM219.49,71.1c-.84-.39-1.55-.73-2.27-1.06-.16-.08-.35-.09-.53-.13-.23-.04-.49.19-.48.42.01.32.14.61.42.75.9.45,1.82.73,2.86.02h0ZM201.14,80.05c0,.54.38.79.72,1.04.18.13.45.21.68.22.36.02.73-.04,1.1-.08.15-.01.27-.28.23-.43-.12-.37-.34-.67-.72-.75-.67-.14-1.34-.13-2.01,0h0ZM242.62,83.62s-.32.04-.63.09c-.15.02-.28.29-.21.42.2.4.52.65.95.79.06.02.12.03.18.03.43.02.86.04,1.28.05.17,0,.32-.23.26-.38-.29-.67-.77-1.06-1.84-1h0ZM237.31,90.25c-.84-.1-1.51-.18-2.19-.26-.05,0-.15.06-.15.09,0,.11,0,.26.07.32.53.43,1.15.71,1.78.96.47.19.97.2,1.46.07.04,0,.05-.08.07-.12-.02-.06-.02-.13-.05-.17-.31-.29-.63-.57-.98-.89h0ZM198.55,76.25c-.34.35-.68.69-1,1.04-.36.39-.4.66-.15,1.13.14.26.26.54.54.72.34.15.7.16,1.07.07.18-.04.34-.19.35-.35.02-.26-.1-.52-.31-.59-.23-.08-.48-.1-.71-.19-.19-.07-.22-.25-.2-.5.16-.11.35-.25.46-.33.1-.42.15-.71-.06-1.01h0ZM171.93,68.38c-.83.5-1.83.32-2.57.94.02.08,0,.16.04.2.33.38.76.59,1.23.71.38.09.76,0,1-.32.21-.28.38-.61.51-.94.05-.11-.1-.3-.22-.59h0ZM128.09,61.73c.02-.15.08-.29.03-.38-.25-.48-.6-.9-1.01-1.27-.04-.04-.1-.07-.15-.1-.4-.31-1.02-.12-1.22.36-.17.41-.18.82-.07,1.23.03.1.15.17.26.29.71.04,1.44.08,2.15-.13h0ZM245.44,85.91c-.75-.1-1.54-.22-2.33-.32-.05,0-.14.04-.15.08-.02.11-.06.26-.01.31.35.42.68.86,1.25,1.15.74-.05,1.54.1,2.39-.03-.15-.63-.64-.89-1.14-1.2h0ZM255.57,93.15c-.07-.1-.12-.24-.22-.27-.45-.19-.9-.38-1.36-.52-.78-.22-1.57-.21-2.35,0-.15.05-.17.29-.04.45.3.4.7.66,1.18.8.46.14.94.24,1.4.34.48-.28.94-.55,1.39-.82h0ZM141.59,73.27c.04-.14.09-.25.09-.37,0-.12-.03-.24-.07-.35-.16-.49-.45-.73-.92-.76-.89-.07-1.33,0-2.52.4,0,.06,0,.12.02.18.36,1.12.73,1.14,1.6,1.14.43,0,.87-.03,1.3-.07.18-.01.34-.11.5-.17h0ZM204.33,84.45c.12.53.39.91.81,1.19,1.35.19,1.84.2,3.07.05,0-.11.04-.25-.01-.32-.43-.5-.89-.97-1.55-1.3-.63-.05-1.3-.07-1.96.05-.14.03-.25.22-.36.33h0ZM236.82,61.99c.16-.03.29,0,.37-.07.32-.27.65-.55.93-.85.5-.53.65-1.14.4-1.82-.14-.4-.3-.78-.45-1.16-.13,0-.32-.03-.34.02-.4.74-.8,1.48-1.16,2.23-.28.6-.13,1.16.25,1.66h0ZM151.86,78.63c-.75-.05-1.55-.1-2.34.06-.06.01-.14.06-.14.09,0,.11-.03.27.04.32.52.42,1.03.85,1.62,1.16.75.09,1.48.09,2.2-.08.05,0,.13-.07.13-.1.01-.11.03-.26-.03-.33-.38-.48-.88-.82-1.48-1.12h0ZM234.29,89.13c.75.07,1.17.12,1.6.15.15,0,.23-.08.23-.2,0-.06,0-.13-.03-.17-.15-.19-.28-.41-.47-.53-.25-.17-.55-.25-.83-.38-.79-.36-1.63-.53-2.47-.71-.16-.03-.36.03-.53.08-.1.03-.07.28.05.47.26.41.52.81.89,1.14.35.31.7.46,1.17.25.21-.1.47-.11.39-.09h0ZM145.59,77.98c.04-.1.13-.24.1-.32-.25-.51-.63-.91-1.25-.95-1.1-.06-2.21-.11-3.3.09,0,.11-.03.17,0,.22.21.63.69,1.03,1.34,1.06.98.05,1.97.13,2.96-.04.06,0,.11-.05.17-.07h0ZM122.44,56.54c.06.03.11.07.17.09,1.02.23,2.07.18,3.11.14.33-.01.55-.22.69-.52.1-.22.21-.43.12-.68-.05-.03-.1-.09-.15-.1-.97-.21-1.95-.07-2.92-.11-.18,0-.35.08-.5.11-.34.31-.72.56-.52,1.06h0ZM150.84,77.74c-.11-.46-.29-.7-.48-.94-.19-.25-.45-.4-.77-.42-.12,0-.24,0-.37,0-.67.02-1.35.05-2.02.08-.18,0-.35.05-.48.2-.11.12,0,.38.26.61.14.12.27.24.41.36.44.37.95.54,1.53.46.61-.09,1.2-.21,1.92-.33h0ZM168.14,68.7c-.56-.27-.99-.52-1.33-.88-.07-.08-.06-.22-.09-.33.19-.26.46-.39.78-.43.49-.07,1.02-.02,1.47-.2.88-.35,1.57-.03,2.25.43.07.05.09.19.09.29,0,.04-.07.1-.11.14-.05.04-.1.08-.16.1-.94.29-1.88.58-2.9.89h0ZM146.64,72.94c.03-.08.07-.13.06-.19-.07-.51-.42-.86-.78-1.18-.12-.12-.34-.18-.51-.19-.93-.02-1.84.12-2.71.4-.02.11-.05.17-.04.22.03.18.07.36.13.52.21.54.73.88,1.3.81.68-.08,1.35-.17,2.03-.26.18-.02.35-.1.51-.14h0ZM225.82,77.14c.04-.32-.17-.57-.3-.83-.21-.43-.56-.61-1.06-.52-.11.02-.25,0-.36-.03-.17-.07-.28-.2-.16-.44.26-.08.57-.14.85-.25.34-.12.82-.19.86-.58.05-.46-.46-.45-.77-.58-.34-.14-.68-.28-1.03-.38-.09-.02-.23.06-.33.13-.09.07-.16.17-.23.28-.37.55-.44,1.11-.05,1.68.44.65.88,1.3,1.34,1.94.06.08.21.09.32.13.31-.17.72-.19.91-.54h0ZM142.45,74.22c-.96-.07-1.82-.04-2.68,0-.06,0-.12.03-.18.04-.26.03-.42.31-.3.53.24.42.46.84,1.02,1.22.96-.03,2.06.05,3.17-.05.06,0,.14-.03.17-.07.05-.09.15-.23.11-.28-.29-.54-.75-.94-1.31-1.38h0ZM144.8,12.16c-.03-.06-.05-.13-.09-.15-1.28-.6-2.57-1.15-3.97-1.38-1.09-.19-2.19-.32-3.28-.48-.06,0-.12,0-.19,0-.15.02-.23.09-.22.18,0,.06.03.13.07.17.3.2.6.4.9.61.31.21.65.33,1.02.37,1.17.1,2.3.37,3.43.64.66.16,1.33.23,2.01.17.11-.01.21-.1.31-.14h0ZM134.18,72.02s0-.07,0-.1c-.74.04-1.47.08-2.2.13-.13,0-.28.29-.23.43.19.56.56.96,1.18.98,1.23.05,2.46.04,3.69.05.12,0,.25-.03.34-.1.09-.06.19-.18.19-.26.01-.64-.36-1.09-.93-1.11-.67-.03-1.35,0-2.03,0h0ZM227.46,77.94c-.54.09-1.16.19-1.77.29-.12.02-.23.09-.33.13-.19.22-.15.46-.02.66.48.79,1.13,1.42,1.87,1.91.78.22,1.5.39,2.26.41.23,0,.4-.08.45-.22.07-.2-.05-.35-.17-.49-.15-.19-.31-.38-.38-.45-.88-.28-1.64-.15-2.38-.24-.09,0-.19-.13-.25-.21-.08-.12.08-.38.25-.42.3-.06.61-.11.91-.17.22-.04.34-.35.26-.59-.09-.33-.33-.5-.71-.62h0ZM149.33,75.44c0-.12.04-.26,0-.34-.16-.25-.35-.49-.55-.71-.33-.38-.77-.58-1.3-.58-.06,0-.12,0-.18,0-.86.04-1.72.07-2.58.14-.13,0-.25.21-.41.34.38.53.79.98,1.27,1.35.25.2.55.29.86.26.86-.09,1.71-.2,2.56-.31.12-.02.23-.09.34-.14h0ZM192.83,77.1c.65-.56,1.45-.84,2.3-1.04.71-.17,1.21-.65,1.33-1.35.11-.7.46-1.23.96-1.7.48-.46.93-.97,1.55-1.26.08-.03.25,0,.31.08.06.08.09.26.04.32-.14.19-.3.4-.5.52-.84.46-1.19,1.18-1.26,2.07-.02.18-.02.36-.05.54-.1.5-.35.91-.86,1.09-.87.3-1.7.7-2.63.82-1.04.14-2.01.54-3.01.86-.08.02-.2-.08-.28-.14-.02-.01,0-.12.04-.17.23-.3.53-.51.91-.55.37-.04.74-.05,1.15-.08h0ZM138.78,66.64q-1.95.6-2.48,1.14c.02.3.18.55.35.79.26.38.63.57,1.1.55.48-.03.97-.09,1.37-.12.42-.15.58-.58,1.02-.52.11.04.24.07.34.13.16.09.3.21.45.31.21.12.44.2.7.16.33-.06.55-.23.71-.52-.04-.1-.06-.26-.14-.31-.57-.34-1.16-.67-1.74-1-.53-.3-1.1-.52-1.68-.6h0ZM209.64,88.98c1.09.05,2.25.1,3.41.14.04,0,.08-.19.15-.38-1.26-.59-2.29-1.57-3.53-2.19-1.21,0-2.38,0-3.54,0-.05,0-.09.05-.15.08.04.11.04.25.12.33.51.53,1.14.95,1.83,1.17.6.19,1.08.55,1.71.84h0ZM131.2,68.24c-.09.08-.16.11-.17.15-.23.78-.15,1.52.22,2.25.17.35.41.59.82.62,1.29.1,2.57.1,3.86,0,.1,0,.19-.12.29-.19-.1-1.17-.86-1.92-1.78-2.6-1.09,0-2.2.12-3.23-.23h0ZM226.58,81.89c.78.19,1.56.37,2.47.59.35-.09.82-.22,1.3-.31.31-.06.63.01.87.23.27.24.58.46.57.87,0,.06-.03.11-.05.16-.41.18-.85.1-1.28.1-.93,0-1.86,0-2.79.04-.17,0-.33.13-.49.22-.03.02-.04.12-.02.17.04.11.09.23.17.28.1.06.25.08.35.04.79-.24,1.58-.22,2.39-.07.61.11,1.23.1,1.85.14.53.04.95.28,1.24.71.2.3.36.62.53.94.07.12-.14.4-.29.4-.06,0-.13.02-.19.01-.98-.16-1.95-.31-2.93-.47-.37-.06-.73-.15-1.1-.18-1.47-.11-2.75-.69-3.91-1.54-.99-.72-1.96-1.48-2.94-2.21-.79-.58-1.59-1.15-2.41-1.7-.62-.42-1.19-.87-1.62-1.46-.09-.12-.07-.33-.11-.54.6-.24,1.18-.42,1.77-.47.12.1.25.16.29.26.58,1.36,1.69,2.2,2.99,2.85.22.11.48.1.73-.11-.07-.14-.11-.35-.23-.43-.68-.44-1.26-.98-1.79-1.58-.24-.27-.45-.57-.63-.89-.12-.21-.18-.45-.19-.69,0-.17.07-.35.17-.5.17-.25.36-.49.74-.52.58.68,1.16,1.36,1.65,2.15.51.81,1.14,1.57,1.81,2.29.37.39.68.85,1.08,1.22h0ZM270.06,91.44c-.63.27-1.28.42-1.97.27-.92.2-1.85.15-2.78.19-.62.03-1.24.02-1.86,0-1.45-.05-2.83-.37-4.08-1.09-1.07-.61-2.2-1.11-3.32-1.62-1.29-.58-2.55-1.25-3.82-1.87-.11-.06-.23-.11-.33-.18-1.03-.88-2.27-1.46-3.38-2.23.1-.12.14-.25.23-.28.36-.1.71-.19,1.08-.25.75-.12,1.41-.47,2.02-.87.26-.17.5-.37.69-.6.95-1.14,1.66-2.4,1.68-3.92,0-.24.01-.49.04-.72.05-.5.52-1.07,1.05-1.14,1.24-.17,2.47-.19,3.59.5.4.24.63.57.59,1.04-.01.18,0,.36,0,.53.25.43.49.84.73,1.26.24.42.49.83.68,1.18.63.34,1.19.23,1.71.04.38-.14.73-.08,1.1-.07.29-.2.49-.54.92-.52.5.03.98-.07,1.46-.24.41-.14.85-.18,1.39-.03.51.28.89.86,1.42,1.26.53.41,1.12.76,1.49,1.29.66.3,1.28.58,1.89.86.47.21.8.56,1,1.02.07.17.17.32.24.49.17.42.17.81-.18,1.17-.55.57-1.09,1.15-1.63,1.71-.14.16-.05.57.14.64.11.04.24.12.35.1.48-.06.81.28,1.21.39.39-.04.7-.23.99-.47.19-.16.23-.45.08-.63-.15-.18-.32-.36-.48-.53.11-.2.17-.39.29-.52.63-.64.68-1.38.43-2.19-.07-.22-.17-.44-.24-.62.11-.15.15-.28.25-.33.15-.09.34-.14.51-.22,1.07-.42,2.07-.2,3,.38.38.23.65.57.8.98.2.57.38,1.14.54,1.72.08.32-.05.6-.33.78-.15.1-.37.14-.48.27-.83,1.01-2.04,1.38-3.22,1.67-1.2.3-2.39.64-3.55,1.08-.42.16-.59.1-.95-.29-.08-.09-.15-.19-.24-.27-.16-.13-.55,0-.62.19-.04.11-.05.23-.07.35-.02.12-.04.23-.06.35h0ZM166.65,65.14c-.48.04-.93.27-1.45.08-.47-.17-.99-.1-1.45.11-.47.21-.95.24-1.45.25-.35,0-.72-.13-1.06.09.05.11.06.24.13.32.35.37.79.58,1.25.76.37.15.73.12,1.07-.09.36-.22.72-.46,1.06-.69.39-.06.77-.08,1.12-.18.36-.1.69-.28.75-.7.11,0,.23.02.33-.01.08-.03.14-.11.2-.17-.04-.02-.08-.07-.13-.07-.05,0-.12,0-.16.04-.08.07-.14.16-.22.25h0ZM247.57,90.1c-.01.25.06.48.29.62.47.29.98.52,1.42.84.63.46,1.22.53,1.85.01.09-.07.24-.09.31-.19.06-.07.05-.21.07-.32-.41-.36-.84-.7-1.49-.94h-2.48c.03-.23,0-.49.3-.7.27-.06.62-.13.97-.2.02-.11.09-.26.05-.32-.46-.61-1.07-.97-1.87-.99-.43,0-.86-.04-1.29-.02-.18,0-.35.09-.64.15.61,1.01,1.48,1.61,2.5,2.05h0ZM205.79,26.77s-.05-.09-.08-.12c-.02-.01-.06-.01-.09-.02.07.04.14.07.21.11.04.17.02.38.12.5.58.69,1.18,1.36,1.78,2.03.11.13.29.2.42.29.26-.19.24-.42.15-.63-.48-1.11-1.33-1.8-2.5-2.15h0ZM201.3,70.9c.17-.03.39-.02.52-.11.61-.45.97-1.08,1.19-1.77.01-.04-.04-.11-.08-.14-.04-.04-.1-.06-.16-.06-.21-.03-.35.1-.48.22-.53.53-.83,1.18-.97,1.9-.16.08-.19.12-.08.12.02,0,.03-.1.05-.15h0ZM108.85,17.69c.18-.03.38,0,.53-.09.78-.45,1.55-.9,2.31-1.4.24-.15.47-.37.52-.69.18,0,.38.03.53-.04,1.02-.49,2.03-.98,3.03-1.49.09-.04.11-.19.17-.28.12,0,.24,0,.36-.01.06-.01.16-.05.16-.08,0-.13-.1-.17-.26-.13-.14.03-.21.11-.24.25-.3.02-.62-.01-.89.09-.9.34-1.77.76-2.55,1.3-.13.09-.19.28-.28.42-.18.03-.39,0-.52.1-.91.57-1.8,1.17-2.69,1.78-.08.05-.09.2-.14.3-.05,0-.09.01-.14.04-.02.01-.03.05-.05.07.05-.04.11-.09.16-.14h0ZM225.55,72.75c.12.02.24.02.36.06.18.04.34.11.38.32.7-.21,1.4-.41,2.11-.6.14-.04.24.02.26.13.01.04-.04.12-.08.15-.37.21-.72.46-1.11.59-.41.13-.85.1-1.14-.31-.18-.04-.37-.05-.54-.12-.09-.03-.14-.16-.21-.25-.06-.02-.17-.03-.17-.05,0-.12.05-.1.14.08h0ZM253.51,89.78s-.04-.09-.07-.12c-.02-.02-.05-.03-.08-.04.06.04.12.08.18.12.14.34.44.33.74.35.06.18.11.22.12.12,0-.03-.1-.06-.16-.08-.14-.32-.44-.33-.73-.35h0ZM69.35,57.92s-.16.11-.03-.03c.03-.03.07-.04.1-.07-.02.04-.04.07-.07.1h0ZM70.48,56.83s-.1.03-.15.05c.04-.03.07-.06.11-.08.18-.07.34-.17.38-.37.17-.06.37-.1.5-.2,1.46-1.12,2.71-2.46,3.85-3.88.53-.67,1.08-1.3,1.76-1.83.82-.64,1.43-1.47,1.95-2.37.02-.04-.02-.11-.05-.15-.02-.02-.11-.03-.13,0-1.45,1.22-2.75,2.58-4.01,3.98-.61.68-1.18,1.38-1.81,2.04-.58.62-1.21,1.2-1.81,1.8-.18.18-.27.39-.22.65-.25.01-.35.16-.37.38h0ZM82.39,45.24c-.13.12-.25.24-.38.35-.31.16-.33.44-.34.73-.23.02-.36.14-.39.36-.24,0-.36.12-.37.36-.14.02-.36-.02-.17.23.05-.09.09-.18.14-.26.2-.04.34-.15.37-.36.13-.12.26-.25.39-.37.26-.18.37-.42.34-.73.22-.03.34-.15.38-.36.24,0,.38-.12.39-.36.12-.03.26-.03.34-.09.71-.63,1.35-1.31,1.87-2.1.06-.09.03-.22.04-.34.11-.04.25-.05.32-.12,1.08-1.03,1.93-2.25,2.91-3.36.04-.04.06-.1.07-.16.02-.11.03-.23.04-.34.04-.02.09-.02.13-.05.02-.01.03-.06.04-.08-.05.05-.09.11-.14.16-.11.04-.25.04-.33.12-1.15,1.04-2.11,2.24-2.97,3.51-.06.09-.04.23-.06.34-.06.01-.13,0-.17.04-.74.58-1.35,1.29-1.94,2-.1.12-.08.33-.12.49-.23.01-.32.18-.38.37h0ZM93.97,30.78c-.24,0-.36.13-.38.35-.25,0-.36.13-.38.36-.24,0-.34.14-.38.35-.38.1-.61.4-.85.67-.81.9-1.61,1.81-2.4,2.73-.16.18-.28.39-.4.6-.05.1-.04.23-.06.35-.23.03-.33.17-.39.37,0-.03-.2.14-.04-.04.13-.12.26-.25.4-.37,1.18-.96,2.2-2.09,3.18-3.24.16-.19.31-.38.42-.59.08-.15.07-.34.1-.51.25,0,.35-.14.38-.36.21-.03.33-.16.38-.35.19-.06.31-.18.37-.36.04-.03.08-.06.11-.08.02-.02.02-.06.03-.08-.03.06-.07.13-.1.21h0ZM243.83,91.54c-.2-.05-.35-.14-.37-.37-.32.04-.62-.04-.89-.19-2.13-1.15-4.13-2.45-5.62-4.37-.52-.67-1.16-1.25-1.62-1.98-.22-.35-.59-.6-.91-.9-.5-.46-.93-.98-1.2-1.6-.36-.84-.89-1.59-1.4-2.34-.41-.6-.83-1.19-1.08-1.89-.09-.28-.29-.53-.51-.74-.5-.49-.77-1.08-.92-1.74-.11-.47-.21-.94-.32-1.44.07-.14.11-.33.22-.46.36-.41.78-.77,1.12-1.19.31-.38.56-.8.82-1.17.43-.31.84-.57,1.46-.66.65.27,1.4.56,2.13.88,1.13.49,2.29.48,3.46.24.48-.1.94-.29,1.42-.43.79-.24,1.48-.59,1.99-1.25.07-.09.19-.15.38-.29.32-.05.75-.14,1.24-.23.19-.16.42-.35.71-.59.8-.12,1.66-.13,2.64-.05.11.13.27.31.52.59.15.13.48.1.77.18.83.21,1.44.68,1.74,1.49.04.11.07.23.12.34.55,1.28.61,2.56.09,3.87-.02.06,0,.12-.02.17.04.32.22.57.43.79.5.54.93,1.13,1.29,1.77.1.17.03.54-.14.66-.3.21-.62.39-.92.6-.3.21-.37.46-.07.74.32.3.38.59.25.98-.03.09.04.21.08.31.04.11.33.06.5-.06.27-.19.45-.43.48-.74.03-.3,0-.6,0-.92.14-.35.48-.51.82-.64.28.04.48.19.42.47-.2.83-.68,1.55-1.06,2.3-.05.11-.15.2-.24.28-.19.16-.36.34-.57.46-.42.24-.76.62-1.27.7-.29-.21-.05-.44-.05-.66,0-.18,0-.37-.17-.48-.09-.05-.22-.05-.34-.08-.1.07-.22.12-.3.21-.31.35-.71.48-1.17.42-.24-.04-.49-.08-.8-.12.15-.31.29-.57.4-.83.03-.09-.01-.24-.08-.31-.07-.08-.23-.15-.33-.13-.48.1-.96.22-1.44.33-.7.15-1.14-.15-1.5-.79-.12-.2-.16-.45-.23-.68-.09-.29-.16-.59-.26-.86-.07-.17-.19-.31-.31-.44-.13-.13-.31-.16-.51-.13-.21.04-.34.2-.37.36-.15.72-.11,1.44.17,2.13.18.45.35.9.52,1.35.04.1-.16.4-.27.43-.49.14-.98.11-1.48.1-.41-.01-.71-.21-.92-.53-.13-.21-.25-.42-.36-.64-.19-.37-.32-.78-.55-1.13-.39-.62-.69-1.28-.86-1.99-.02-.11-.13-.2-.19-.29-.3-.07-.46.07-.55.32-.04.11-.06.23-.06.35.02.61.25,1.17.46,1.74.57.58.69,1.41,1.11,2.07.43.66.91,1.29,1.36,1.94.14.2.31.38.41.6.35.79.92,1.43,1.51,2.04.51.53,1.01,1.06,1.5,1.62.45.51.92.97,1.53,1.3.16.09.36.17.45.31.6.92,1.67,1.23,2.48,1.87.29.22.64.38.98.51.36.13.67.32.93.58.55.52,1.22.81,1.99.91.1.01.2.12.3.19-.02.04-.04.11-.07.11-1.17.2-2.34.18-3.5-.03-.26-.05-.37-.28-.33-.7,0-.05,0-.12,0-.19-.47-.29-1-.43-1.57-.46-.69-.04-1.32-.3-1.96-.55-.23-.09-.27-.34-.07-.5.05-.05.12-.05.16-.09.13-.11.16-.39.07-.5-.64-.82-1.36-1.55-2.3-2.08-1.31-.72-2.41-1.68-3.17-2.97-.31-.53-.67-1.02-1.14-1.43-.57-.5-.97-1.1-1.11-1.83-.12-.61-.41-1.14-.86-1.57-.72-.69-1.18-1.54-1.63-2.41-.25-.48-.5-.96-.81-1.42-.12-.19-.35-.33-.56-.45-.08-.05-.24-.02-.35.02-.13.03-.24.34-.18.47.63,1.17,1.16,2.41,1.91,3.5.76,1.11,1.5,2.2,2.05,3.43.1.22.21.46.39.61,1.05.89,1.47,2.23,2.49,3.13.14.12.28.25.4.38.46.49.98.9,1.61,1.19.43.2.91.41,1.1.91.2.05.33.17.36.37.07.05.14.09.2.13-.04,0-.08,0-.1-.04-.03-.04-.05-.09-.07-.14h0ZM70.82,57.88c-.15.1-.33.17-.45.29-1.18,1.15-2.33,2.34-3.67,3.33-.59.44-1.11.97-1.53,1.57-.6.86-1.38,1.55-2.26,2.13-.87.58-1.69,1.22-2.48,1.9-.65.56-1.34,1.08-2.07,1.54-.53.33-1,.71-1.41,1.16-.54.6-1.17,1.08-1.83,1.54-1.37.94-2.73,1.89-3.87,3.1-.34.36-.77.61-1.22.82-.89.42-1.76.86-2.53,1.5-.51.42-1.16.7-1.74,1.04-.27.15-.56.27-.82.43-1.14.75-2.34,1.35-3.66,1.76-.41.13-.78.37-1.16.57-.82.43-1.63.87-2.46,1.29-.22.12-.45.2-.69.27-.77.23-1.54.46-2.31.69-.12.03-.25.05-.36.09-2.37.88-3.75,1.35-5.3,1.6-1.4.24-2.79.54-4.19.8-.6.12-1.23.16-1.85.17-.93.02-1.86.04-2.78.2-.36.07-.75.08-1.1-.06-.42-.16-.84-.17-1.28-.16-.81.02-1.61-.03-2.4-.26-.35-.1-.74-.09-1.11-.1-.81-.03-1.61-.04-2.42-.06-.19,0-.38.02-.56-.02-1.09-.26-2.2-.34-3.32-.4-1.05-.05-2.1-.19-3.14-.36-1.04-.17-2.09-.29-3.14-.39-.49-.05-.97-.18-1.39-.26-.35-.27-.43-.56-.21-.84.34-.42.74-.8,1.17-1.25.62-.2,1.29-.19,1.9.22.74.5,1.56.74,2.45.76.63,0,1.22.16,1.81.34.77.23,1.55.41,2.38.41.43,0,.87.08,1.29.16.56.11,1.12.11,1.67.05.86-.09,1.74-.17,2.57-.39.74-.2,1.46-.23,2.21-.22,1.12,0,2.23,0,3.34-.08.74-.05,1.5-.14,2.2-.36.78-.25,1.57-.34,2.36-.49.18-.04.37-.05.55-.11,1.23-.43,2.52-.61,3.8-.84.49-.09.97-.21,1.47-.21.56,0,1.11-.08,1.64-.28.17-.07.36-.12.54-.13,1.38-.06,2.66-.55,4-.78.54-.09,1.07-.33,1.58-.52.41-.16.77-.4,1.18-.54,2.24-.8,4.16-2.15,6.08-3.48.25-.17.51-.34.78-.49,1.12-.64,2.26-1.26,3.39-1.9.96-.55,1.88-1.18,2.75-1.86,1.69-1.32,3.41-2.62,5.07-3.98,1.9-1.55,3.83-3.07,5.48-4.89.16-.18.34-.36.51-.52,1.9-1.67,3.48-3.61,5.15-5.47.65-.73,1.37-1.4,2.06-2.1.51-.53,1.05-1.03,1.51-1.6,1.3-1.61,2.71-3.15,4.19-4.61,1.09-1.08,2.02-2.3,2.95-3.5.87-1.1,1.75-2.18,2.73-3.21.64-.66,1.22-1.36,1.81-2.06.9-1.08,1.77-2.18,2.66-3.26.27-.33.59-.62.89-.93.78-.78,1.58-1.53,2.36-2.32.51-.52.98-1.09,1.48-1.62.92-.98,1.84-1.96,2.78-2.93,1.03-1.05,2.17-1.99,3.05-3.18.11-.14.25-.28.39-.39,2.13-1.75,4.12-3.67,6.37-5.29.25-.18.49-.37.72-.57,2.06-1.78,4.34-3.22,6.77-4.45,1.48-.75,2.9-1.63,4.46-2.25.71-.28,1.25-.85,1.52-1.53.53-1.35,1.38-2.41,2.61-3.2.3-.2.53-.51.8-.76,1.19-1.09,2.54-1.89,4.16-2.29,1.1-.27,2.17-.45,3.31-.4,1.36.04,2.73.04,4.1.05.18,0,.37-.03.63-.05.78-.48,1.6-1.01,2.52-1.41.39-.16.73-.45,1.1-.67.53-.32,1.05-.65,1.59-.94.39-.22.82-.26,1.27-.18.12.03.25.03.36.08.72.31,1.44.23,2.19.07.66-.14,1.35-.17,2.01-.33.79-.17,1.6-.14,2.39.12.58.19,1.19.32,1.8.46.56.13,1.04.39,1.38.86.11.15.21.31.23.33.59.1.89-.14,1.21-.31,1.65-.86,3.34-.81,5.05-.24.82.28,1.62.6,2.44.88.94.32,1.89.59,2.88.73,1.17.17,2.28.56,3.32,1.13.32.18.63.39.98.51,1.33.49,2.26,1.47,3.2,2.44.31.32.47.71.45,1.15-.01.12,0,.24,0,.36.02.39.24.68.55.9.25.18.52.33.79.47.39.2.79.37,1.17.57.34.17.61.44.69.81.11.44.34.77.67,1.05.36.32.71.66,1.02.96.51-.02.64-.45,1.08-.65,1.38,0,2.84-.38,4.33-.37.58,0,1.1-.17,1.57-.49.26-.17.53-.32.76-.52.45-.37.97-.52,1.53-.62.5.04.99.12,1.48.12,1.61.03,3.05.54,4.38,1.36.8.5,1.64.83,2.55,1.07.62.16,1.24-.03,1.9.13.27.05.5.27.74.46.39.31.84.52,1.32.65.54.16,1.06.37,1.47.75.46.44,1,.69,1.62.84.23.05.45.2.7.32.09.35.15.71.29,1.04.13.33.34.64.52.96.02.17.06.36.05.54-.05.77.18,1.42.81,1.92.19.15.35.34.53.51.62.62,1.03,1.35,1.22,2.21.05.23.1.47.13.61.25.41.58.57.91.75.65.36,1.3.7,1.94,1.08.86.51,1.6,1.14,2.19,1.86.32.93.48,1.8.29,2.73.44.59.88,1.16,1.32,1.75v1.86c.32,1.21,1.22,2,1.44,3.22-.07.53-.16,1.19-.26,1.85-.09.59-.2,1.18-.3,1.81.09.12.17.3.32.39.21.14.49.17.72.06.84-.39,1.72-.66,2.64-.84.79-.16,1.58-.35,2.38-.43.7-.07,1.33-.26,1.91-.64.1-.06.23-.09.43-.16.28,0,.65-.03,1.02-.03,1.96-.05,3.63.68,5.14,1.83.14.11.28.24.4.38.61.65,1.32.87,2.17.48.16-.08.36-.13.54-.12,1.19.03,2.34.26,3.39.81.22.12.42.26.61.41.58.46,1.15.9,1.9,1.12.56.16.89.62,1.1,1.16.29.76.34,1.53.17,2.31-.06.29-.2.57-.27.86-.16.73-.16,1.44.23,2.11.06.1.08.23.14.43-.03.28-.07.64-.1,1.06.27.67.51,1.42,1.12,1.98.32.29.64.57.96.86.37.35.61.77.6,1.28-.02.92.21,1.8.54,2.64.3.76.08,1.43-.36,2.05-.31.45-.71.84-1.16,1.17-.25.19-.5.35-.73.56-.37.35-.6.77-.47,1.3.06.23.12.47.16.71.13.7-.08,1.31-.55,1.84-.7.77-1.42,1.52-2.48,1.84-.11.04-.19.15-.29.23-.12.09-.16.38-.04.48.18.16.35.36.57.46.9.42,1.86.67,2.84.86.71.14,1.35-.06,1.91-.5.29-.23.56-.47.85-.69.74-.57,1.5-1.07,2.38-1.41.4-.15.78-.36,1.16-.58.44-.24.92-.35,1.4-.49,1.24-.35,2.35-.03,3.36.63.72.47,1.4.99,2.16,1.41.56.31.91.82.96,1.48.04.61.22,1.18.47,1.73.37.84.52,1.73.73,2.61.09.37.32.65.62.88.3.23.65.38,1.04.29,1.64-.41,3.19,0,4.75.43.85.24,1.36.8,1.73,1.53.11.21.14.46.23.69.16.41.41.74.79.99.36.23.71.47.95.62.48.15.76,0,1.05-.1,1.11-.42,2.3-.47,3.45-.73.18-.04.37-.03.56-.02.39,0,.73.14.99.43.2.23.37.48.56.72.23.29.5.52.83.72,1.05.64,2.09,1.3,3.19,1.99.11,0,.31.05.47,0,1.35-.45,2.69-.32,4.03.03.5.12.92.36,1.33.64.42.29.72.67.91,1.13.27.67.52,1.35.78,2.04.16.41.45.7.84.92.7.39,1.41.77,2.08,1.2,1.63,1.05,3.5,1.52,5.35,2.04.12.04.24.05.37.06,1.42.05,2.82.41,4.26.37.5,0,.99.02,1.49.06.31.03.62.09.91.16.24.06.46.17.65.25.08.23.03.48-.15.46-1.86-.16-3.72-.15-5.58-.1-1.5.03-2.95-.2-4.38-.66-1.84-.6-3.57-1.38-5.23-2.33-.11-.06-.21-.12-.32-.19-.42-.23-.83-.12-1.11.31-.17.25-.33.51-.46.78-.25.52-.68.84-1.2,1.09-.9.43-1.83.74-2.81.94-.85.18-1.68.42-2.44.85-.72.39-1.52.6-2.33.44-.72-.14-1.36,0-2,.24-.41.16-.81.27-1.25.29-.31,0-.61.09-.91.16-1.6.38-3.2.38-4.81-.08-1.05.52-2.19.18-3.33.33-.23-.18-.46-.38-.72-.54-.15-.09-.35-.17-.52-.16-.49.03-.99.11-1.42.37-.04.02-.05.09-.05.14,0,.06.03.13.07.16.15.11.3.21.46.29.66.33,1.33.65,2.08,1.01.29,0,.66-.02,1.03,0,.43.02.88.02,1.29.14.73.22,1.46.27,2.21.27.81,0,1.62,0,2.42.07,1.13.11,2.24-.03,3.34-.15,1.72-.19,3.44-.43,5.09-.99.11-.04.25,0,.37.01.05.01.11.05.15.1.08.08.06.21-.08.27-.89.43-1.86.63-2.82.89-1.94.51-3.92.62-5.9.6-1.12-.01-2.23-.07-3.35-.11-.31-.02-.63-.02-.92-.1-.85-.23-1.72-.21-2.58-.27-1.21-.47-2.41-.97-3.62-1.23-.44.09-.71.37-1.01.57-.42.29-.9.43-1.4.41-.93-.03-1.86-.07-2.79-.15-.43-.04-.87-.13-1.26-.29-.65-.26-1.32-.31-2.01-.31-1,0-1.98-.04-2.95-.31-.61-.16-1.17-.39-1.66-.81-.31-.43-.34-1.04-.84-1.37-.41-.27-.8-.58-1.3-.67-.63-.12-1.24-.04-1.87.22-1.01-.4-2.06-.78-3.08-1.23-1.26-.55-2.38-1.31-3.19-2.42-.39-.54-.8-1.07-1.3-1.74-.18-.08-.52-.23-.84-.41-.27-.16-.55-.28-.86-.31-1.41-.14-2.58-.76-3.67-1.63-1.73-1.38-3.53-2.67-5.42-3.83-.42-.26-.8-.57-1.12-.95-.36-.42-.77-.79-1.27-1.04-.23-.12-.49-.17-.72-.04-.58.35-1.14.72-1.7,1.1-.18.12-.18.49,0,.66.76.71,1.52,1.42,2.3,2.1.27.24.59.45.93.6,2.01.94,3.97,2.02,6.22,2.34.06,0,.11.05.17.08.12.06.19.17.13.3-.04.1-.14.22-.22.23-.24.03-.5.03-.74,0-.86-.12-1.68-.4-2.5-.69-2.35-.85-4.49-2.04-6.36-3.68-.33-.28-.59-.62-.9-.92-.31-.29-.62-.59-.98-.83-.54-.36-1.14-.42-1.76-.22-.07.03-.14.2-.12.29.04.17.1.36.22.48.5.54.97,1.09,1.29,1.76.21.45.6.76.99,1.07.63.49,1.24,1,1.87,1.49.29.22.59.48.92.61.71.28,1.26.76,1.84,1.3.37.13.77.29,1.19.4.42.11.82.27,1.18.52.77.52,1.64.84,2.49,1.23.91.42,1.85.67,2.88.6.96-.06,1.85.24,2.65.73.53.32,1.06.63,1.66.8.53.14,1.09.2,1.63.3.03,0,.08.07.08.11,0,.06-.03.14-.07.16-.17.07-.35.19-.52.17-.94-.05-1.87-.14-2.69-.62-.82-.49-1.72-.67-2.7-.8-.62.23-1.29.2-1.95-.09-1.12-.5-2.33-.81-3.37-1.49-.56-.37-1.18-.67-1.88-.76-.38-.05-.71-.23-1-.46-.68-.54-1.38-1.02-2.17-1.4-.33-.15-.63-.39-.92-.62-.29-.22-.54-.51-.85-.71-.8-.5-1.43-1.14-1.93-1.93-.13-.2-.28-.41-.46-.57-.58-.48-.95-1.11-1.28-1.76-.33-.65-.74-1.25-1.24-1.81-.57-.32-1.18-.15-1.78-.2,0,.2-.04.33,0,.41.38.63.85,1.18,1.38,1.71,1,.98,2,1.98,2.96,3,1.7,1.8,3.62,3.29,5.89,4.37.56.26,1.09.59,1.6.92.46.3.89.66,1.39,1.03.51.17,1.11.36,1.69.55.41.13.83.24,1.24.41.75.3,1.46.67,2.23.91.76.24,1.6.28,2.34.55.78.28,1.58.31,2.37.49.9.2,1.8.43,2.73.52.81.08,1.6.16,2.41.07.18-.02.38,0,.55.06.1.03.2.15.23.24.02.1-.03.22-.07.32-.02.05-.09.09-.14.12-1.51.64-3.07.95-4.71.6-1.21-.26-2.44-.46-3.65-.7-1.09-.21-2.19-.47-3.12-1.05-1.3-.04-2.54-.08-3.78-.13-.26-.01-.46-.15-.55-.42.03-.28.43-.44.31-.79-1.14-.3-2.29-.57-3.48-.4-.12.05-.12.14.03.23.37.22.75.42,1.11.64.07.04.08.19.09.29,0,.02-.11.09-.15.08-.72-.15-1.45-.3-2.15-.57-1.32-.51-2.66-1-4.04-1.37-.91-.24-1.71-.69-2.52-1.21-.54-.02-1.09-.04-1.65-.05-.23,0-.36-.22-.31-.54.02-.11.04-.23.06-.35-.03-.05-.05-.12-.1-.15-.8-.57-1.62-1.1-2.34-1.78-.5-.48-1.21-.6-1.9-.81-.94-.8-1.76-1.82-2.97-2.24-.08-.44-.09-.81-.37-1.1-.12-.13-.22-.29-.35-.42-.97-1.02-1.8-2.15-2.55-3.34-.13-.2-.28-.38-.38-.51-.41-.19-.69-.04-.97.08-.16.07-.25.29-.19.45.11.28.25.55.33.83.03.09-.05.24-.13.31-.07.07-.24.13-.32.1-.23-.09-.46-.2-.64-.35-.32-.28-.6-.61-.9-.9-.14-.14-.52-.17-.7-.03-.09.06-.2.19-.19.28.01.23.07.46.14.7.07.22.23.43.16.69-.01.05-.05.1-.08.15-.08.11-.18.12-.32.05-.29-.14-.48-.38-.65-.62-.2-.31-.37-.64-.74-.8-.52-.02-.93.25-1.34.52-.15.09-.15.36.02.44.38.2.75.44,1.16.58.87.31,1.75.62,2.65.83,1.29.3,2.44.86,3.5,1.62.09.06.12.2.15.31.03.13-.25.3-.41.23-1.83-.75-3.78-1.17-5.65-1.8-.29-.1-.58-.22-.86-.35-1.24-.56-2.52-1.02-3.81-1.47-1.12-.41-2.13-.99-2.98-1.8-.38-.36-.79-.57-1.3-.64-.74-.11-1.47-.21-2.3-.33-.95.21-1.99.28-3.05.04-.54-.12-1.11-.14-1.67-.12-1.35.06-2.39-.53-3.28-1.43-.21-.21-.39-.46-.52-.61-.62-.29-1.23-.04-1.74-.31-.05-.03-.09-.08-.12-.12-.09-.11-.1-.24,0-.33.14-.12.3-.2.44-.32.09-.08.16-.18.24-.27.07-.09-.11-.42-.23-.43-.12-.01-.25-.04-.36-.02-.3.04-.6.12-.91.14-.1.01-.25-.06-.32-.14-.06-.08-.06-.21-.09-.34.68-.47,1.54-.41,2.26-.71.28-.19.39-.46.43-.77-.11-.33-.34-.53-.69-.48-.55.06-1.09.19-1.64.25-.08,0-.19-.12-.27-.19-.03-.04-.02-.12,0-.18.02-.06.05-.11.09-.15.14-.12.28-.23.41-.34,0-.07,0-.14-.02-.2-.01-.05-.03-.12-.08-.15-1.04-.65-2.01-1.41-3.12-1.98-.43.12-.84.24-1.29.37-.68-.21-1.4-.42-2.1-.65-.63-.22-1.25-.48-1.87-.71-.05.07-.12.14-.11.16.44.72.86,1.46,1.34,2.17.54.81,1.19,1.55,1.9,2.22.72.67,1.4,1.37,1.94,2.25,1.41.82,2.79,1.75,4.27,2.51.49.25,1.01.46,1.53.65.75.28,1.54.48,2.28.78.68.28,1.31.7,2.01.94.69.25,1.46.29,2.16.54.7.25,1.37.58,2,.96.79.48,1.61.91,2.45,1.31,1.52.69,2.95,1.55,4.55,2.08,2.12.7,4.18,1.53,6.33,2.14.36.1.72.21.98.48.08.08.11.22.11.33,0,.16-.22.33-.38.3-.25-.04-.49-.06-.72-.13-.84-.24-1.65-.53-2.52-.61-.24-.03-.48-.12-.72-.2-1.06-.34-2.1-.73-3.16-1.08-.99-.33-1.93-.84-2.85-1.32-1.48-.77-3.01-1.44-4.44-2.29-1.06-.63-2.18-1.16-3.43-1.38-.36-.07-.75-.16-1.05-.35-1.17-.73-2.51-1.03-3.78-1.51-1.4-.53-2.7-1.23-3.95-2.01-.58-.35-1.13-.75-1.67-1.15-.3-.22-.57-.46-.83-.73-.85-.88-1.69-1.77-2.59-2.6-.54-.5-.99-1.08-1.36-1.72-.57-.99-1.33-1.86-2.02-2.73-.47,0-.72.32-1.05.46-.34.14-.68.29-1.02.44-.24.11-.35.42-.21.6.55.8,1.09,1.61,1.68,2.39.33.43.73.82,1.16,1.17.86.7,1.66,1.44,2.4,2.27.53.6,1.13,1.11,1.81,1.55.73.47,1.43.98,2.13,1.46.76.52,1.54,1,2.39,1.39.79.36,1.52.82,2.26,1.26,2.39,1.42,4.86,2.67,7.52,3.54.53.17,1.03.42,1.53.66.5.23.99.51,1.49.75.94.47,1.9.89,3,.87.3,0,.61.11.9.2,1.43.4,2.93.52,4.34,1,.13.04.2.25.33.42-.24.05-.42.13-.59.13-1.12.03-2.23-.02-3.32-.3-.78-.2-1.56-.38-2.39-.36-.5,0-.98-.13-1.44-.32-.8-.33-1.61-.63-2.36-1.09-.63-.39-1.3-.69-2.03-.89-1.14-.31-2.22-.78-3.25-1.34-1.4-.77-2.85-1.46-4.21-2.31-.83-.52-1.75-.91-2.64-1.34-.56-.27-1.11-.55-1.56-.97-.54-.51-1.14-.94-1.78-1.3-.98-.57-1.79-1.3-2.52-2.13-.85-.97-1.75-1.88-2.86-2.58-.48-.31-.81-.75-1.08-1.23-.63-1.13-1.61-1.98-2.39-2.99-.18-.24-.45-.4-.72-.65-.69-.14-1.4-.37-2.14-.44-.32-.03-.57.23-.54.56.02.12.01.24.04.36.15.65.38,1.29.76,1.84.53.73,1,1.53,1.71,2.13.57.48,1.04,1.03,1.43,1.65.42.67.99,1.22,1.66,1.7.96.67,1.88,1.38,2.7,2.21.21.22.45.43.72.57,1.29.71,2.54,1.52,3.99,1.94.84.24,1.61.62,2.34,1.09,1.1.68,2.2,1.36,3.33,1.99.81.45,1.64.88,2.49,1.22,2.01.81,4.04,1.54,6.05,2.35.98.39,1.98.71,2.99,1,.41.12.79.32,1.17.52.07.04.12.22.09.31-.03.08-.17.18-.26.18-.31.02-.63.05-.93-.01-1.33-.28-2.67-.53-3.95-1.04-1.78-.7-3.55-1.41-5.33-2.12-1.21-.48-2.42-.93-3.44-1.76-.19-.15-.43-.24-.65-.34-.9-.43-1.74-.93-2.56-1.48-.51-.34-1.06-.62-1.68-.76-1.11-.24-2.1-.77-3.05-1.33-1.06-.62-2.09-1.31-2.95-2.19-.34-.35-.71-.69-1.11-.97-1.12-.79-2.01-1.78-2.77-2.89-.14-.2-.27-.43-.47-.55-.81-.52-1.24-1.32-1.8-2.05-1.07-1.38-1.58-2.99-2.01-4.63-.08-.29-.18-.58-.48-.74-.04-.02-.11-.04-.15-.01-.04.02-.09.08-.1.13-.01.05-.02.13.02.17.28.38.12.68-.19.93-.24.2-.49.37-.73.56-.32.27-.4.65-.2.97.32.51.64,1.04,1,1.52.54.75,1.04,1.5,1.44,2.32.53,1.07,1.33,1.88,2.36,2.5.74.44,1.41.98,2.08,1.53,1.33,1.09,2.68,2.15,4.03,3.21.68.54,1.42.96,2.24,1.27,1.51.57,2.86,1.44,4.23,2.28.15.09.29.22.42.35.07.08.09.2.12.31-.11.03-.23.09-.33.08-.23-.03-.44-.23-.69-.1-.03.02-.06.09-.05.12.02.06.06.12.11.14,1,.6,1.98,1.21,3.16,1.49.83.2,1.7.41,2.37.99.12.11.14.25-.01.48-.03.04-.1.06-.15.1-1.42-.13-2.82-.37-4.16-.89-.17-.06-.37-.09-.52-.18-.87-.5-1.85-.65-2.8-.91-1.09-.31-2.19-.38-3.31-.44-.55-.03-1.12.1-1.65-.15-.09-.05-.18-.19-.19-.28,0-.09.08-.22.17-.28.1-.06.23-.06.36-.1.12-.03.23-.07.35-.11-.03-.11-.02-.26-.09-.32-.68-.58-1.45-.91-2.37-.88-.31.01-.62.03-.93.01-.17-.02-.42-.08-.48-.2-.12-.22-.02-.46.2-.63.09-.07.17-.18.23-.28.2-.34-.06-.94-.45-1.04-.67-.16-1.35-.17-2.02.02-.05,0-.11.23-.07.28.19.23.43.43.64.65.12.12.11.22-.01.28-.05.02-.13.03-.17.01-.55-.27-1.11-.54-1.64-.84-.6-.35-1.25-.51-1.95-.51-.75,0-1.49,0-2.24-.04-.24,0-.49-.06-.71-.15-.13-.06-.21-.23-.35-.4.88-.31,1.79.13,2.58-.28-.1-.43-.51-.53-.79-.75-.55-.43-1.17-.64-1.9-.59-.86.05-1.73.04-2.6.08-.09,0-.21.12-.24.22-.03.1,0,.24.06.33.1.15.23.28.37.4.19.16.43.27.58.46.7.86,1.55,1.55,2.35,2.23,0,.19-.09.28-.22.23-.17-.05-.33-.14-.48-.25-1.26-.88-2.49-1.81-3.6-2.86-.56-.53-1.18-.81-1.98-.85-1.3-.06-2.59-.18-3.93-.4.15-.26.38-.22.55-.22.75-.03,1.49-.01,2.23-.04.24,0,.49-.05.72-.13.07-.02.15-.22.12-.3-.23-.54-.62-.91-1.24-.96-.68-.05-1.36-.06-2.05-.09-.38-.02-.72-.16-1.03-.37-.04-.03-.05-.1-.08-.16.96-.18,1.98.19,2.89-.23.04-.53-.25-.86-.47-1.22-.17-.26-.42-.44-.75-.47-.31-.03-.62-.04-.93-.05-.56,0-1.11-.02-1.65-.19-.6-.19-1.23-.15-1.85-.05-.23.04-.43.36-.33.56.34.71.67,1.43,1.07,2.11.4.68.88,1.32,1.32,1.97.2.3.4.61.57.93.04.07-.01.25-.08.31-.07.06-.28.09-.33.03-1.08-1.15-2.15-2.33-2.87-3.75-.06-.11-.12-.21-.17-.32-.22-.44-.41-.88-.66-1.3-.25-.41-.55-.79-.82-1.16.25-.46.08-.83-.14-1.22-.25-.44-.73-.41-1.16-.58.17-.09.3-.17.45-.23.19-.09.29-.24.29-.43,0-.24-.03-.47-.06-.71-.07-.48-.19-.95-.2-1.43-.02-.86-.21-1.67-.59-2.42-.34-.36-.82-.27-1.23-.39-.1-.03-.18-.13-.26-.21-.08-.08.1-.33.31-.39.17-.06.36-.08.53-.14.07-.03.09-.15.13-.23-.62-.17-1.24-.15-1.86-.17-.25,0-.5-.03-.74-.1-.23-.06-.47-.15-.56-.42.48-.19.98-.05,1.47-.1.49-.04.99-.06,1.48-.12.11,0,.22-.1.3-.19.2-.21.1-.84-.14-.99-.1-.06-.21-.14-.33-.15-.62-.02-1.24-.03-1.86-.03-.5,0-1,0-1.49-.01-.55-.02-1.11-.07-1.69-.11.29-.43.85-.3,1.15-.7.21-.46.26-1,.33-1.52-.14-.34-.42-.44-.75-.45-.8,0-1.62.12-2.41-.09-.17-.05-.34-.11-.54-.17q.56-.28,1.91-.28c.62,0,1.24.03,1.84-.13.47-.28.65-.72.72-1.21.01-.09-.08-.24-.16-.28-.16-.08-.35-.14-.53-.14-.87,0-1.73-.02-2.59-.22-.46-.1-.85.09-1.15.45-.36.42-.71.84-.66,1.44.01.16-.11.33-.21.49-.1.14-.29.25-.35.41-.82,2.02-1.85,3.96-2.46,6.05-.66,2.26-1.28,4.53-1.95,6.79-.15.53-.25,1.06-.24,1.59.02,1.15-.04,2.3.18,3.44.2,1.02.2,2.04-.26,3.01-.04.09-.18.18-.26.18-.1-.01-.22-.11-.29-.19-.06-.1-.08-.23-.09-.35,0-.17.02-.36,0-.54-.02-.78-.07-1.56-.26-2.33-.21-.89-.29-1.79-.28-2.7,0-.42.02-.85.13-1.26.52-2.04,1.01-4.1,1.62-6.12.54-1.79,1.23-3.54,1.85-5.31.66-1.89,1.54-3.68,2.63-5.34-.06-.14-.09-.28-.17-.36-.29-.27-.77-.29-1-.04-.16.18-.34.36-.46.56-.91,1.51-1.66,3.1-2.59,4.6-.25.41-.36.9-.54,1.35-.9,2.38-1.8,4.75-2.69,7.13-.3.79-.64,1.57-.85,2.39-.21.81-.29,1.66-.39,2.5-.08.66-.07,1.32.09,1.98.11.46.16.95.18,1.43,0,.14-.17.31-.3.42-.06.05-.26.03-.32-.02-.13-.12-.26-.27-.31-.44-.17-.64-.32-1.29-.45-1.94-.04-.23-.05-.48-.01-.72.32-1.96.64-3.92,1.36-5.8.8-2.08,1.53-4.2,2.32-6.29.21-.57.47-1.12.75-1.66.93-1.7,1.88-3.4,2.82-5.1.21-.37.37-.75.57-1.16-.13-.29-.24-.56-.37-.84-.12-.26-.02-.46.21-.69.31.06.66.13,1.04.21.06-.18.19-.37.15-.5-.11-.34-.29-.66-.45-.99.06-.29.13-.58.19-.87.02-.13-.2-.4-.32-.4-.12-.01-.27-.03-.35.03-.34.26-.68.53-.99.82-1.26,1.18-2.37,2.46-3.24,3.95-.67,1.15-1.38,2.29-2.13,3.39-.48.71-.9,1.44-1.29,2.2-.39.75-.66,1.57-1.25,2.21-.08.09-.14.2-.17.32-.2.91-.78,1.64-1.22,2.43-.68,1.22-1.32,2.46-1.96,3.7-.3.59-.6,1.18-.71,1.85-.06.36-.23.69-.36,1.03-.06.16-.18.33-.2.5-.12,1.22-.6,2.34-.92,3.5-.41,1.53-.78,3.04-.7,4.63,0,.17-.08.35-.17.49-.05.08-.21.11-.32.14-.03,0-.11-.06-.13-.11-.14-.52-.27-1.04-.41-1.6.5-2.16.98-4.34,1.5-6.51.25-1.06.59-2.09,1.07-3.08.52-1.1,1.02-2.2,1.54-3.29.37-.77.78-1.51,1.23-2.23.57-.93,1.08-1.9,1.57-2.88.33-.65.71-1.27,1.09-1.89.5-.82,1.18-1.53,1.59-2.43.4-.87,1.01-1.66,1.56-2.46,1.08-1.55,2.2-3.07,3.54-4.42.51-.52,1.06-1.02,1.48-1.57-.1-.74-.11-.73-.82-1.56-.11.04-.25.05-.33.12-.9.74-1.79,1.48-2.66,2.25-.37.32-.68.71-1.01,1.06-.55.58-1.06,1.19-1.65,1.72-.92.82-1.81,1.65-2.61,2.59-1.22,1.43-2.58,2.77-3.59,4.38-.51.82-1.12,1.59-1.77,2.33-.64.72-1.15,1.57-1.7,2.37-.73,1.05-1.48,2.09-2.27,3.09-.83,1.05-1.54,2.18-2.18,3.36-.96,1.76-1.93,3.51-2.84,5.29-.55,1.08-1.06,2.19-1.45,3.32-.48,1.38-1.14,2.66-1.86,3.93-.03.04-.1.05-.2.1-.04-.18-.14-.37-.1-.51.19-.64.42-1.26.65-1.88.12-.35.32-.66.42-1.01.59-1.99,1.61-3.79,2.56-5.62.75-1.45,1.51-2.9,2.25-4.37.3-.6.64-1.17,1.05-1.7.99-1.31,2.03-2.61,2.9-3.99.91-1.45,2.01-2.76,2.98-4.16.1-.15.24-.28.33-.44.84-1.49,2.02-2.74,3.13-4.04.51-.61,1.02-1.21,1.56-1.79.33-.36.69-.7,1.07-1.01.9-.74,1.74-1.54,2.43-2.49.35-.49.8-.93,1.27-1.31,1.06-.85,1.91-1.89,2.83-2.87.03-.03.02-.1.03-.19-.56-.23-1.13-.46-1.72-.71-.36.28-.73.51-1.03.79-1.07,1.01-2.12,2.04-3.17,3.06-.22.21-.43.44-.6.69-.76,1.12-1.75,2.04-2.75,2.94-.86.79-1.68,1.6-2.4,2.52-.45.58-1,1.07-1.53,1.58-.62.6-1.17,1.24-1.65,1.96-1.03,1.58-2.12,3.12-3.25,4.64-.29.39-.56.8-.77,1.23-.57,1.15-1.35,2.16-2.15,3.16-.23.28-.48.56-.69.86-1.14,1.65-2.43,3.19-3.87,4.62-.13.13-.28.25-.37.41-.55,1.05-1.48,1.79-2.33,2.57-1.45,1.32-2.87,2.66-4.36,3.93-.19.15-.38.33-.65.29-.1-.01-.2-.11-.27-.18-.03-.04-.03-.14,0-.18.76-.96,1.58-1.86,2.56-2.59,1.44-1.07,2.73-2.28,3.84-3.67.61-.76,1.27-1.48,1.92-2.21.86-.95,1.61-1.99,2.39-3.01.6-.77,1.19-1.54,1.77-2.33.18-.24.35-.5.49-.77.46-.92,1.07-1.77,1.66-2.62.35-.5.69-1,1.02-1.51.38-.55.75-1.1,1.13-1.66.24-.35.55-.67.72-1.05.34-.74.88-1.3,1.46-1.85.66-.63,1.28-1.32,1.91-1.98.21-.22.4-.46.63-.67,1.71-1.51,3.17-3.22,4.66-4.92.44-.51.88-1.02,1.44-1.4.15-.11.29-.23.42-.36.22-.22.43-.43.64-.66.7-.77,1.39-1.53,2.1-2.32-.11-.44-.24-.83-.31-1.24-.07-.41-.07-.83-.1-1.24-.39-.07-.66.09-.9.27-.48.38-.93.8-1.4,1.2-1.27,1.07-2.45,2.22-3.53,3.47-.88,1.01-1.85,1.95-2.85,2.86-1,.91-1.8,1.99-2.73,2.97-.21.22-.35.49-.52.74-.13.21-.23.44-.38.63-.95,1.2-1.66,2.54-2.47,3.82-.56.88-1.18,1.7-1.92,2.44-1.05,1.04-1.93,2.2-2.74,3.42-.3.46-.61.91-.91,1.37-.37.57-.79,1.08-1.31,1.53-.23.2-.48.4-.65.65-.65.96-1.51,1.76-2.34,2.57-1.06,1.03-1.94,2.19-2.86,3.32-.11.14-.19.33-.33.43-.77.61-1.37,1.38-2.06,2.08-.56.55-1.3.95-1.82,1.54-.53.61-1.15,1.09-1.74,1.62-.74.66-1.64,1.07-2.5,1.56-.21.13-.48.05-.69-.17.1-.14.16-.35.3-.42,1.22-.62,2.25-1.49,3.25-2.39.54-.49,1.14-.93,1.7-1.41,1.51-1.28,2.72-2.8,3.92-4.35.75-.96,1.49-1.94,2.47-2.69,1.3-1.46,2.76-2.78,3.81-4.44.46-.72.99-1.39,1.44-2.11.59-.93,1.36-1.73,2.11-2.52,1.24-1.29,2.17-2.79,3.09-4.29.32-.52.62-1.04.93-1.57.88-1.47,1.97-2.77,3.25-3.94,1.63-1.49,3.08-3.14,4.56-4.77,1.36-1.5,2.86-2.84,4.51-4.04.5-.36.98-.74,1.45-1.13.61-.51,1.2-1.04,1.64-1.71.23-.35.57-.64.85-.93,0-.16.03-.29,0-.39-.18-.44-.12-.85.22-1.18.7-.69,1.27-1.48,1.77-2.32.32-.55.85-.88,1.47-1.04.48-.13.97-.21,1.42-.3.64.11,1.25.22,1.86.3.33.04.61-.09.78-.38.24-.42.47-.85.7-1.28.23-.43.55-.8.93-1.12.29-.23.61-.4.99-.48.79-.18,1.57-.36,2.35-.56.95-.25,1.7.11,2.4.65.29.22.52.52.75.75.26.85.47,1.66.47,2.51,0,.23.14.46.21.69.05.16-.06.36-.22.45-.14.08-.4.04-.52-.06-.05-.04-.12-.06-.15-.1-.47-.64-.94-1.27-1.39-1.92-.1-.14-.11-.34-.15-.52-.04-.19-.18-.31-.34-.4-.44-.25-.93-.39-1.43-.27-.78.2-1.57.36-2.38.79-.25.3-.57.67-.86,1.06-.29.39-.56.78-.86,1.21-1.15.33-2.34.01-3.52.15-.46.14-.89.39-1.28.7-.51.41-.73.97-.8,1.58-.02.17.05.35.09.53.03.18.06.35.09.49-.14.39-.34.73-.7.85-.93.32-1.54.99-2.11,1.71-.45.58-.79,1.23-1.05,1.91-.11.28-.15.58-.18.88-.04.44.12.82.41,1.17.37.43.83.73,1.36.91.47.17.93.32,1.37.47.86,1.05.94,2.44,1.78,3.28.02.32.04.5.05.69.03.31.16.6.4.79.57.46,1.16.9,1.75,1.34.2.15.41.27.63.38.8.42,1.66.52,2.53.26.65-.19,1.29-.44,1.93-.66.23-.09.46-.18.79-.3.7.04,1.51-.02,2.31.16.33.07.62-.16.66-.46.05-.37.05-.72-.09-1.07-.31-.73-.62-1.45-.89-2.19-.08-.21-.06-.47-.06-.71,0-.19.14-.33.32-.4.2-.09.58.02.66.19.41.88.81,1.75,1.3,2.8.02.47.04,1.13.07,1.8.03.69-.18,1.31-.57,1.88-.39.54-.8,1.07-1.22,1.59-.23.29-.51.53-.72.83-.4.56-.7,1.17-.41,1.86.15.38-.06.71,0,1.07.44,1.19,1.26,2.23,1.43,3.61.24.19.53.43.76.61.13.35.24.63.34.9.5.56,1.13.96,1.76,1.34.59.36,1.24.51,1.95.36.49-.1.96-.24,1.41-.45.55-.27,1.09-.58,1.73-.68.78.21,1.51.52,2.22.91.27.15.54.3.82.44.69.34,1.38.43,2.15.16.7-.25,1.42-.43,2.16-.52.94-.11,1.78-.52,2.64-.84-.07-.29-.29-.39-.54-.42-.48-.06-.78-.31-.99-.72-.55-1.03-.61-2.07-.12-3.13.1-.22.19-.44.29-.68-.33-.86-.38-1.77-.33-2.67.02-.42.12-.83.21-1.24.15-.75.61-1.15,1.41-1.18.37-.02.73-.11,1.05-.17.28.1.51.18.62.43.06.16-.04.43-.18.46-.37.05-.73.08-1.1.14-.67.11-1.15.59-1.17,1.22-.02.66-.04,1.33.06,1.98.07.49.1.94-.05,1.42-.07.22-.03.48,0,.71.05.31.19.63.51.7.75.19.92.73.97,1.37,0,.05.03.11.04.17.07.1.13.21.2.31.89,1.26,2.23,1.88,3.65,2.37.23.08.48.14.73.14,1.21-.05,2.29-.5,3.28-1.16.3-.19.52-.51.73-.81.26-.38.64-.53,1.05-.68.14-.35-.19-.67-.08-1.02.09-.29.19-.57.3-.87-.04-.43-.3-.75-.71-1.07-.31.06-.67.16-1.02.19-.61.05-.98-.47-.93-.9.05-.41.21-.81.34-1.21.08-.23.52-.41.79-.36.52.09.97.36,1.14.83.19.55.56.9,1.02,1.21.24.16.42.44.57.71.08.14.06.35.04.52,0,.11-.09.23-.16.32-.14.2-.3.38-.43.55-.05.38.17.6.38.82.3.32.67.53,1.1.65.49.13,1.01.21,1.47.05.9-.31,1.82-.34,2.75-.31.55.02.96-.21,1.2-.7.05-.11.1-.22.15-.33.21-.47.6-.77,1.06-.98.34-.15.69-.27,1.03-.42.22-.1.43-.23.65-.36.34-.2.53-.5.52-.9-.02-.6-.04-1.21-.11-1.8-.08-.79.24-1.42.82-1.93.59-.53,1.21-1.02,1.8-1.51.63-.13,1.11.23,1.62.4.14.05.27.27.29.43.07.44-.02.85-.51,1.07-.25-.15-.51-.3-.8-.47-.13.11-.3.19-.38.33-.11.21-.14.46-.22.68-.1.29-.33.34-.55.13-.13-.13-.25-.26-.36-.38-.47-.02-.8.23-.84.6-.11.83-.07,1.68.11,2.51.04.17.12.35.23.49.06.09.21.18.3.16.73-.12,1.47-.25,2.19-.41.49-.11.98-.15,1.47-.01.86.25,1.7.23,2.56-.07.52-.17,1.09-.19,1.67-.29.88-.84,1.84-1.61,2.58-2.59.19-.24.39-.47.61-.68,1.23-1.14,2.18-2.47,2.93-3.97.14-.51.08-1.06.08-1.6,0-.3.01-.6.05-.9.04-.31.19-.58.44-.78.39-.29.81-.56,1.29-.89.36-.54.66-1.2.9-1.88.41-1.17.7-1.27-.46-2.38-.3-.29-.34-.63-.17-.99.05-.11.09-.23.15-.4-.13-.41-.29-.86-.43-1.32-.05-.17-.09-.35-.13-.52-.03-.12.12-.36.27-.43.2-.11.55.02.64.21.05.11.14.21.14.33.06.81.46,1.49.91,2.15.24.35.47.71.71,1.06.43.6.4,1.26.16,1.9-.14.39-.36.77-.59,1.12-.36.56-.71,1.12-.99,1.74-.17.37-.5.68-.87,1.16-.03.18-.08.54-.18.88-.36,1.22-.76,2.41-1.64,3.41-.64.73-1.18,1.55-1.84,2.27-.72.77-1.3,1.61-1.78,2.53-.17.32-.35.64-.52.95-.18.33-.45.58-.79.75-.65.35-1.31.7-1.94.84-.73,0-1.35.02-1.97,0-.55-.03-1.11-.1-1.84-.18-.31.05-.79.14-1.28.22-.42.06-.86.1-1.28.15-.17.02-.29.31-.19.43.04.05.06.11.1.15.08.09.17.17.27.25.56.44.88,1,1.05,1.67.09.35.18.7.26,1.01-.1,1.13-.39,2.17-.86,3.16-.18.38-.28.8-.39,1.2-.05.17-.05.35-.07.57.29.21.58.41.85.61-.01.25-.17.37-.36.36-.24,0-.48-.08-.76-.12-.12.11-.32.23-.35.36-.08.41-.12.83-.11,1.24,0,.14.14.39.27.43,1.06.33,2.04.91,3.29,1.01.59-.31,1.33-.29,2.08-.18.58.09,1.04.33,1.36.83.42.66,1.1.71,1.8.63.18-.02.34-.13.37-.34.03-.25.09-.47.34-.65.46.02.96.1,1.44.05.8-.08,1.6-.19,2.3-.64.21-.14.54-.03.65.15.1.17.04.52-.15.66-.25.18-.52.32-.76.51-.13.1-.22.27-.32.38.25.67.86.88,1.4,1.16.46.23.95.28,1.45.17.09-.01.18-.12.24-.2.03-.03,0-.14-.03-.18-.16-.18-.35-.34-.51-.52-.08-.09-.15-.21-.17-.32-.02-.11,0-.23.04-.33.06-.16.31-.28.45-.23.12.04.25.06.34.12.24.19.47.39.7.6.35.33.77.35,1.21.24.18-.05.37-.11.51-.22.63-.49,1.37-.51,2.15-.45.55-.38,1.11-.76,1.84-.79.44,0,.85-.16,1.19-.44.06-.1.17-.21.18-.31.09-.88.56-1.58,1.14-2.23.57-.64,1.18-1.24,1.91-1.71,1.48-.96,2.3-2.3,2.74-3.95.22-.84.31-1.65.1-2.5-.03-.11-.07-.23-.04-.35.02-.1.1-.21.19-.26.12-.09.25-.05.32.07.51.82.54,1.71.41,2.63-.03.18-.1.34-.14.52,0,.04.05.13.09.14.11.03.25.08.33.04.22-.1.42-.25.67-.4.26-.58.54-1.18.54-1.87,0-.42.12-.83.22-1.24.27-1.14.57-2.08,1.02-3.05.21-.45.28-.93.17-1.41-.04-.18-.12-.35-.16-.53-.15-.76-.55-1.32-1.28-1.68-.21-.11-.41-.27-.59-.43-.08-.07-.11-.21-.17-.35.06-.21.13-.44.21-.71-.05-.19-.15-.42-.16-.65-.01-.16.11-.32.16-.48.16.05.31.05.39.12.58.54,1.16,1.09,1.72,1.65.22.21.41.45.61.69.94,1.12,1.09,2.41.7,3.75-.24.81-.5,1.62-.55,2.47-.03.62-.22,1.2-.57,1.7-.43.62-.63,1.3-.88,1.99-.31.85-.62,1.7-.95,2.55-.31.82-.93,1.42-1.59,1.97-.47.39-.98.73-1.5,1.13-.14.44-.27.9-.4,1.32.06.19.15.24.29.18.28-.13.56-.25.88-.4.12.11.32.21.35.34.17.77.44,1.51.7,2.25.06.16.2.3.3.45.09.12.37.17.5.08.25-.18.48-.36.68-.51.31.05.55.08.75.11.15-.14.16-.25.12-.38-.09-.35-.17-.7-.24-1.05-.04-.24.16-.5.38-.55.19-.03.52.13.61.33.08.16.16.32.21.49.15.52.27,1.05.44,1.57.07.22.23.43.39.61.26.27.59.49.97.49.9,0,1.69.32,2.46.74.32.16.68.28,1.03.38.24.08.52.1.72-.04.64-.46,1.26-.45,1.9-.05.05.04.12.04.17.06.31.1.64-.13.64-.45,0-.06-.02-.12-.04-.18-.1-.26,0-.51.22-.61.73-.33,1.38-.78,2.18-1,.65-.18,1.26-.51,1.87-.81.34-.17.59-.44.66-.82.05-.3.06-.61.14-.9.12-.42.31-.79.65-1.07.14-.11.3-.21.47-.29.33-.17.62.03.74.53-.22.25-.46.52-.71.81-.16.5-.32,1.02-.53,1.66-.25.2-.58.47-.9.73.09.16.21.23.33.17.16-.08.33-.18.43-.31.48-.63,1.01-1.22,1.68-1.66.21-.71.41-1.4.62-2.09-.67-.48-1.39-.59-2.15-.41-.67.16-1.34.21-2.03.25-1.12.07-2.08-.25-2.91-.98-.22-.43-.45-.85-.66-1.29-.08-.16-.17-.36-.13-.52.17-.57-.18-1.05-.22-1.59-.05-.48-.15-.95-.25-1.42-.11-.51.02-.95.36-1.34.2-.23.41-.46.63-.67.26-.26.58-.45.94-.57.83-.28,1.66-.5,2.55-.38.37.05.75.02,1.12.07.36.05.72.17,1.12.26.28-.2.57-.41.9-.63.15.09.35.16.42.28.07.14.06.37-.01.52-.15.33-.44.58-.75.78-.21.14-.46.21-.71.13-1.47-.48-2.93-.42-4.39,0-.69.2-1.11.78-1.12,1.49,0,.62.17,1.19.46,1.73.17.34.48.61.85.65.89.12,1.66.47,2.42.89.44.24.92.36,1.43.36.94,0,1.84.24,2.72.54,1.23.42,2.47.81,3.71,1.18.22.07.5.08.73.01.54-.14,1.06-.33,1.58-.52.35-.13.65-.35.87-.66.81-1.15,1.83-2.12,2.82-3.06.23-.54.42-1.05.65-1.55.26-.55.59-1.06,1.06-1.47.23-.2.45-.42.64-.66.48-.59.78-1.23.53-2.01-.09-.29-.15-.58-.23-.93.37-.99.78-1.99,1.36-2.92.27-.43.39-.88.41-1.37.03-.58-.13-1.08-.6-1.45-.29-.23-.57-.47-.88-.66-.66-.41-1.06-1.01-1.38-1.67-.21-.43-.37-.9-.45-1.37-.16-.9-.17-1.79.4-2.61.28-.4.48-.85.7-1.28.46-.89.42-1.1-.25-1.75-.26-.25-.52-.52-.81-.76-.24-.19-.48-.39-.77-.51-.99-.37-1.88-.94-2.82-1.38-.16-.08-.34-.14-.46-.19-.76-.12-1.39.23-2.15.31-.71-.15-1.47-.38-2.29-.38-1.21-.01-2.28-.53-3.31-1.1-.48-.28-.96-.55-1.46-.79-.8-.38-1.58-.25-2.31.17-.37.22-.71.48-1.06.74-.95.69-1.93,1.32-3.15,1.47-1.55.56-1.72.14-1.56,2.07.04.48.08.97.07,1.45-.03.97-.48,1.75-1.28,2.31-.6.42-1.25.78-1.91,1.12-.2.11-.52.16-.71.09-.78-.3-1.57-.29-2.38-.25-.36.02-.54-.22-.65-.58.07-.12.13-.34.26-.42.47-.3.98-.52,1.56-.52.56,0,1.12-.01,1.68,0,.71.01,1.19-.35,1.46-.94.29-.66.51-1.36.72-1.94-.14-1.4-1.01-2.44-1.36-3.69.09-.51.22-1.04.26-1.58.03-.5.25-.93.36-1.4.12-.49.05-.96-.25-1.38-.29-.39-.56-.8-.86-1.18-.35-.44-.55-.95-.65-1.48-.19-1.07-.35-2.14-.48-3.22-.07-.56-.26-1.09-.67-1.46-.97-.85-1.73-1.89-2.66-2.78-.11-.1-.32-.1-.52-.15-.17.43-.32.83-.48,1.21.04.19.08.36.12.54.08.35.21.7.24,1.05.1,1.05-.34,1.9-1.14,2.55-.47.38-1,.71-1.56.98-1.92.89-1.92.87-4.21.53-.44.17-.95.38-1.46.58-.25.1-.61-.04-.82-.31-.14-.18-.12-.5.05-.67.17-.18.37-.32.63-.36.49-.06.98-.14,1.48-.16.57-.02,1.1-.12,1.62-.35.79-.35,1.62-.6,2.48-.75.38-.07.67-.33.86-.65.15-.26.28-.54.38-.82.11-.29.11-.59-.03-.88-.1-.22-.23-.43-.35-.64-.42-.76-.65-1.55-.39-2.43.14-.47.11-.95-.06-1.43-.17-.47-.12-.95.02-1.42.07-.23.12-.47.15-.71.06-.5-.07-.96-.45-1.33-.4-.38-.8-.76-1.23-1.16-.18-.61-.37-1.24-.53-1.77-.66-.78-1.25-1.48-1.84-2.18-.32-.39-.72-.65-1.23-.77-.3-.07-.59-.18-.89-.27-1.82-.53-2.52-.83-4.36-1.88-.74-.09-1.59-.21-2.46-.29-.51-.05-.97-.19-1.39-.47-.66-.45-1.34-.86-2.01-1.08-1.54-.18-2.84.28-4.03.93-1.52.83-3.06,1.59-4.58,2.42-.22.12-.4.29-.52.6.15.39.32.84.51,1.28.33.79.66,1.56,1.02,2.33.39.83.65,1.69.81,2.63-.11.42-.21.9-.38,1.35-.3.81-.36,1.64-.33,2.5.02.61.07,1.2.41,1.74.13.21.23.43.32.65.07.17.15.34.15.52.03.9.01,1.81-.18,2.7-.12.54-.58.91-1.03,1.25-.1.07-.22.1-.33.16q-1.23.6-2.19,1.72c-.18.04-.42.09-.66.15-.18.04-.36.08-.57.12-.43.32-.87.65-1.32.96-.44.31-.94.34-1.42.17-.46-.16-.9-.38-1.31-.55-.33.07-.47.27-.56.49-.31.72-.64,1.44-.93,2.17-.23.58-.59,1.05-1.05,1.47-.67.62-1.36,1.24-2.01,1.88-.49.49-1.05.84-1.7,1.08-.52.19-1.04.38-1.55.6-.55.24-1.09.21-1.62-.03-.28-.13-.54-.3-.8-.46-.58-.35-1.14-.73-1.73-1.06-.28-.15-.62-.13-.88.08-.34.26-.65.56-.97.84-.63.56-1.37.81-2.21.79-.82-.02-1.68-.45-2-1.36-.28-.81-.36-1.63-.27-2.49.02-.21.36-.41.57-.32.3.12.54.32.57.65.04.54.05,1.09.1,1.63.03.38.23.68.55.9.32.23.67.31,1.05.19.49-.14.92-.37,1.21-.79.1-.15.18-.32.28-.47.53-.79,1.39-1.04,2.26-.61.44.21.86.49,1.27.75.26.16.49.37.73.56.47.37,1.01.44,1.58.31.74-.16,1.4-.47,2.02-.9.03-.02.03-.11.02-.17-.01-.05-.06-.09-.11-.16-.35.04-.71.07-1.07.12-.65.08-1.23-.12-1.79-.39-.05-.02-.11-.08-.12-.13-.04-.11-.09-.24-.06-.34.03-.09.14-.22.24-.23.24-.03.5-.04.74,0,.42.08.84.2,1.23.29q.8-.44,1.24-1.52c.43-.45,1.14-.43,1.66-.82.71-.63.86-1.71,1.71-2.28.29,0,.47.15.6.37-.26.08-.39.3-.46.52-.25.78-.81,1.31-1.46,1.79-.34.25-.69.49-1,.78-.28.25-.43.58-.39.96,0,.05.05.12.09.15.03.02.12.02.15,0,.92-.69,1.71-1.53,2.46-2.38.45-.51.64-1.15.56-1.84.47-.27.45-.67.28-1.15-.3-.13-.66-.23-.96-.43-.25-.16-.44-.42-.66-.63-.27-.27-.61-.43-.98-.49-.42-.08-.86-.1-1.29-.16-.57-.08-1.02-.5-1.12-1.06-.06-.35-.08-.72-.12-1.07-.3-.4-.61-.77-.88-1.17-.14-.2-.19-.45-.13-.69.06-.25.21-.44.45-.54.26.01.49.11.61.33.32.58.62,1.18.91,1.78.08.16.12.34.16.52.29,1.07.28,1.1,1.27,1.18.65.04,1.21.24,1.72.6.15.11.31.2.44.29.28,0,.26-.2.32-.35.1-.24.3-.39.55-.43.86-.15,1.72-.15,2.57.13.76.25,1.5.57,2.3.65.12-.06.27-.09.34-.18.55-.76,1.3-1.05,2.23-1.09.62-.02,1.01-.45,1.2-.99.12-.34.15-.71.19-.91-.05-.53-.25-.83-.47-1.13-.38-.52-.49-1.1-.42-1.72.1-1.02.22-2.04.12-3.07-.04-.42-.09-.83-.27-1.23-.36-.78-.51-1.61-.5-2.47.01-.85-.15-1.67-.41-2.49-.26-.8-.48-1.62-.69-2.44-.31-1.22-1.02-2.18-1.96-3-.23-.19-.5-.35-.87-.21-.24,1.05-.89,1.94-1.43,2.89-.35.16-.68.32-1.02.47-.22.1-.46.18-.67.26-.52-.1-1.01-.18-1.49-.28-.12-.02-.26-.06-.33-.14-.12-.12-.22-.29-.26-.44-.04-.17.3-.47.49-.46.12,0,.25,0,.37.02.24.07.46.17.7.24.92.26,1.52.13,1.91-.87.2-.5.43-.99.67-1.52-.12-.33-.27-.66-.38-1-.11-.34-.2-.69-.3-1.07-.38-.38-.74-.8-1.15-1.17-.66-.58-1.14-1.27-1.47-2.07-.12-.28-.26-.55-.37-.83-.24-.59-.64-1.01-1.26-1.25-.46-.17-.91-.39-1.35-.61-.56-.28-1.15-.46-1.79-.44-.71.02-1.34-.21-1.98-.46-.92-.37-1.81-.77-2.79-.99-.47-.1-.9-.39-1.35-.59-1.11-.5-2.27-.59-3.46-.37-.52.1-.91.39-1.16.84-.24.43-.43.89-.35,1.38.1.61.02,1.19-.09,1.78-.11.6-.1,1.2.12,1.79.02.05.01.12-.01.17-.05.11-.1.25-.19.3-.16.07-.39.15-.51.08-.57-.3-.97-.75-1-1.43,0-.48.03-.96.04-1.44.01-.83-.22-1.54-.9-2.09-.48-.39-.88-.84-1.1-1.44-.09-.25-.27-.32-.93-.57-.82.14-1.69.24-2.44.64-.04.59-.09,1.12-.3,1.6-.32.36-.72.49-1.17.5-.38,0-.77-.22-.89-.54-.12-.31-.06-.6.15-.84.2-.23.47-.38.69-.61.06-.06.02-.21.03-.32-1.11-.19-2.58-.28-3.32-.16-.37.05-.73.14-1.08.26-1.23.43-2.45.88-3.38,1.83-.1.11-.07.24.03.29.11.06.23.09.35.11,1.65.23,2.79,1.22,3.79,2.41.23.28.11.74-.24.93-.09.05-.26.05-.34,0-.15-.1-.28-.24-.39-.38-.24-.28-.43-.59-.69-.85-.73-.72-1.59-1.14-2.66-1.07-.69.04-1.36.11-1.98.44-.22.12-.45.22-.68.28-.44.13-.86.1-1.2-.25-.17-.18-.32-.37-.5-.54-.42-.39-.93-.62-1.51-.62-.93.01-1.86.04-2.79.13-.68.06-1.34.26-1.93.62-.52.33-1.09.59-1.59.95-1,.71-2.02,1.39-2.62,2.52-.19.36-.53.66-.77,1.01-.06.08-.05.22-.07.38.17.04.35.14.5.12.61-.11,1.22-.24,1.81-.42,1.78-.55,3.64-.71,5.46-1.06,1.73-.33,3.45-.37,5.19-.33.62,0,1.25,0,1.87,0,1.06,0,2.1.05,3.15.28.97.21,1.96.34,2.94.47,1.67.23,3.27.7,4.85,1.24.53.18,1.05.38,1.56.59,1.22.5,2.29,1.2,3.25,2.08.08.07.11.21.17.32-.19.39-.46.7-.93.88-.2-.07-.43-.15-.7-.24-.26.06-.56.13-.87.2-.16-.07-.34-.13-.5-.22-1.32-.75-2.76-1.05-4.27-1.12-.88-.04-1.73-.17-2.55-.48-.64-.25-1.31-.35-2-.33-.68.01-1.35-.02-2.02-.22-.6-.19-1.24-.13-1.85.02-.85.2-1.71.22-2.59.21-1.61,0-3.23.02-4.84.04-.62,0-1.23.02-1.85.16-.36.09-.74.1-1.11.1-1.07,0-2.09.21-3.11.48-2.39.66-4.73,1.45-6.96,2.53-.55.28-1.09.56-1.57.97-.75.63-1.62,1.07-2.53,1.49-1.8.83-3.47,1.88-4.75,3.41-.47.56-1.03,1.02-1.63,1.47-.99.72-1.93,1.52-2.83,2.35-.54.49-.95,1.11-1.43,1.66-.4.46-.78.94-1.21,1.37-1.02,1.05-2.1,2.06-3.09,3.14-1.4,1.53-2.84,3.03-4,4.76-.6.91-1.26,1.79-1.91,2.68-.22.29-.45.58-.7.84-.94.97-1.79,2-2.62,3.06-.23.29-.47.56-.73.82-1.1,1.07-2.08,2.23-3.1,3.37-1.39,1.54-2.84,3.03-4.26,4.54-.13.13-.28.24-.38.4-.78,1.18-1.92,2.05-2.88,3.07-.5.54-1.03,1.05-1.54,1.57-.44.43-.79.93-1.13,1.43-.5.76-1.02,1.52-1.56,2.25-.25.34-.57.63-.87.94-.11.11-.39.15-.51.09-.17-.1-.19-.48-.03-.66.12-.14.23-.29.37-.4.63-.52,1.02-1.2,1.36-1.91.05-.1.03-.24.04-.36.18-.02.39-.06.13-.25-.06-.05-.18.1-.15.24Z"/>
      <path class="cls-1" d="M116.95,17.87c.11.04.21.12.32.12.1,0,.2-.09.31-.13-.11-.05-.21-.12-.32-.12-.1,0-.21.08-.31.13h0ZM115.37,20.1c.4.2.55.21.75-.02.06-.07.08-.2.07-.3-.02-.12-.14-.15-.28-.09-.21.1-.42.2-.54.41h0ZM120.63,16.36c.08.25.26.23.41.22.26-.01.46-.13.6-.35.02-.03,0-.11-.02-.13-.03-.04-.11-.08-.15-.06-.28.1-.55.22-.84.33h0ZM80.53,61.52c.38-.11.59-.35.66-.71,0-.05-.03-.11-.06-.14-.02-.03-.1-.04-.12-.03-.27.23-.5.49-.5.87-.38.1-.59.35-.66.71,0,.05.03.11.07.14.03.03.1.04.13.02.31-.2.5-.48.48-.86h0ZM74.19,69.87c-.09.06-.2.11-.26.2-.09.13-.03.24.11.24.03,0,.07-.09.08-.14.02-.11.03-.22.04-.34.18-.05.22-.1.11-.12-.02,0-.05.1-.08.16h0ZM89.86,49.58c-.22.03-.33.16-.38.36-.31.1-.48.34-.63.59-.03.04-.03.12,0,.16.08.13.15.1.28-.01.22-.22.38-.45.33-.77.26.01.37-.12.38-.36.1-.04.36.05.18-.21-.05.08-.09.16-.14.24h0ZM78.28,64.39c.17-.08.2-.13.09-.12-.02,0-.04.1-.05.16-.13.13-.26.25-.4.37-.25.18-.31.46-.36.73-.33.13-.42.39-.38.71-.11.04-.25.05-.33.12-.36.34-.59.76-.7,1.23-.01.05.02.11.06.16.02.03.1.04.12.02.44-.43.78-.92.83-1.56.21-.04.3-.18.34-.36.02-.12.02-.24.03-.36.32-.16.28-.47.36-.73.13-.13.26-.25.4-.38h0ZM104.39,25.69c-.19.06-.32.17-.36.37-.18.04-.22.08-.12.11.02,0,.06-.09.09-.14.18-.07.31-.18.37-.36.04-.02.07-.04.1-.06-.02.03-.05.06-.07.09h0ZM90.58,47.38c.12-.04.26-.04.35-.11,2.07-1.64,3.94-3.49,5.85-5.3,1.28-1.22,2.55-2.46,3.91-3.62,1.63-1.39,3.15-2.91,4.38-4.67.31-.45.68-.87,1.06-1.25.95-.96,1.93-1.88,2.88-2.83.57-.56,1.18-1.06,1.86-1.5,1.13-.74,2.29-1.46,3.32-2.33.38-.33.83-.53,1.29-.71.4-.15.81-.31,1.23-.41.98-.22,1.88-.62,2.78-1.03.67-.31,1.36-.6,2.04-.89.22-.1.45-.21.69-.27,1.08-.28,2.17-.51,3.24-.82.98-.29,1.96-.33,2.95-.18.56.08,1.1.11,1.66-.03.79-.19,1.61-.14,2.42-.14.99,0,1.99.02,2.94-.27.51.1,1,.19,1.48.31.97.25,1.95.33,2.94.4,1.11.09,2.2.32,3.3.51.62.11,1.19.33,1.69.72.38.3.91.39,1.19.82.03.04.02.13,0,.18-.02.04-.06.11-.11.11-.44.16-.88.12-1.24-.15-.46-.34-1-.47-1.53-.64-.17-.05-.36-.11-.54-.12-1.61-.07-3.19-.48-4.81-.45-.43.01-.86-.06-1.3-.1-.24-.02-.5-.06-.74-.03-1.3.19-2.61.15-3.91.14-1.56-.01-3.1-.01-4.64.31-.48.11-.99.11-1.49.13-1.25.04-2.45.32-3.64.67-1.08.32-2.09.76-3.03,1.37-.93.59-1.88,1.18-2.84,1.73-1.33.78-2.48,1.79-3.73,2.69-.95.67-1.9,1.36-2.59,2.32-.29.4-.72.65-1.15.91-1.33.8-2.53,1.76-3.67,2.78-1,.89-1.9,1.9-2.85,2.85-.61.6-1.24,1.18-1.86,1.77-.31.29-.65.56-.95.87-1.55,1.56-3.08,3.14-4.63,4.71-.34.35-.71.67-1.09.98-.76.63-1.44,1.32-1.99,2.13-.59.85-1.21,1.68-2.04,2.34-.24.19-.43.44-.61.68-.72.98-1.44,1.97-2.15,2.95-.5.69-1.05,1.34-1.65,1.95-.98,1.01-1.83,2.13-2.54,3.34-.68,1.16-1.45,2.25-2.39,3.22-.38.39-.73.81-1.07,1.24-.19.24-.37.5-.48.77-.5,1.33-1.39,2.41-2.27,3.51-.88,1.1-1.86,2.1-3.03,2.9-.25.18-.48.38-.72.57-.49.39-1.03.71-1.64.83-.96.2-1.71.69-2.37,1.34-.13.12-.27.25-.43.34-.09.06-.23.1-.34.08-.11-.01-.25-.08-.31-.17-.06-.08-.07-.24-.02-.33.22-.45.64-.73,1.03-1.01.64-.48,1.29-.95,1.96-1.38.85-.54,1.51-1.25,2.03-2.08.61-.99,1.26-1.94,2.04-2.8.28-.32.48-.7.71-1.06.17-.25.33-.53.62-.65.42-.19.67-.53.9-.89.41-.61.82-1.21,1.2-1.83.99-1.62,2.2-3.07,3.44-4.49.88-1.02,1.7-2.08,2.54-3.12.54-.66,1.11-1.3,1.62-1.99.76-1.03,1.49-2.08,2.21-3.13.51-.75,1.02-1.52,1.46-2.31.47-.86,1.08-1.62,1.66-2.4.55-.73,1.09-1.46,1.66-2.18.75-.96,1.49-1.93,2.29-2.85.85-.98,1.89-1.74,3.02-2.39.37-.21.77-.39,1.13-.62.63-.4,1.17-.88,1.48-1.57.17-.39.41-.75.64-1.11.36-.57.64-1.16.87-1.79.32-.92.76-1.79,1.53-2.45.19-.16.34-.36.49-.54.72-.93,1.58-1.7,2.59-2.31.64-.39,1.17-.89,1.51-1.56.52-1.03,1.28-1.91,1.93-2.87.03-.04.04-.12.02-.17-.06-.13-.18-.17-.31-.11-.11.05-.23.09-.33.15-.2.14-.4.3-.59.44-.9.64-1.79,1.31-2.71,1.91-.98.65-1.86,1.41-2.64,2.28-.54.6-1.12,1.13-1.81,1.54-1.45.86-2.6,2.04-3.73,3.25-1.76,1.87-3.4,3.84-5.05,5.8-.82.98-1.6,2-2.38,3.01-1.31,1.68-2.75,3.26-4.22,4.81-.68.71-1.32,1.44-1.94,2.2-1.31,1.61-2.55,3.28-3.88,4.86-.86,1.02-1.83,1.97-2.79,2.91-.78.77-1.62,1.49-2.31,2.36-.41.52-.95.94-1.39,1.37-.46.25-.9.19-1.33.21-.08,0-.18-.11-.25-.19-.03-.03,0-.13.03-.17.52-.52,1.01-1.06,1.56-1.54.78-.69,1.39-1.54,2.22-2.19.04-.04.08-.09.11-.14.81-1.32,2.01-2.29,3.12-3.34.54-.51,1.08-1.01,1.55-1.57.82-.98,1.61-1.98,2.39-2.99.81-1.08,1.62-2.13,2.67-3.01.57-.48,1.04-1.04,1.43-1.66.49-.78,1.11-1.45,1.75-2.11.6-.62,1.16-1.25,1.64-1.96.28-.4.59-.78.91-1.15.95-1.12,1.92-2.21,2.85-3.34.47-.57.89-1.17,1.31-1.76.45-.65.93-1.27,1.51-1.83.75-.72,1.48-1.46,2.2-2.21.42-.44.85-.88,1.2-1.38.53-.75,1.18-1.4,1.81-2.06.42-.43.92-.81,1.42-1.16.55-.39,1.07-.82,1.57-1.27,1.19-1.06,2.5-1.98,3.88-2.8,2.39-1.44,4.93-2.54,7.57-3.44.7-.24,1.38-.54,2.07-.82,1.43-.57,2.83-1.24,4.38-1.46,1.59-.56,3.29-.6,4.91-.96.43-.1.86-.06,1.28.1.7.25,1.43.42,2.11.71.66.28,1.2.18,1.73-.23.15-.11.32-.19.47-.29.73-.47,1.51-.52,2.32-.28.71.21,1.42.43,2.07.8.48.27.98.52,1.44.77.29.05.53-.02.74-.15.65-.41,1.39-.49,2.12-.64.87-.19,1.72-.13,2.55.22.63.27,1.28.45,1.92.68.46.17.94.33,1.37.56.45.23.88.66.48,1.34-.06.11-.09.23-.12.34-.06.26.03.49.23.65.24.19.5.34.77.5.44.24.89.44,1.32.69.6.33,1.1.77,1.5,1.33.34.49.42,1.02.17,1.55-.21.43-.49.83-.77,1.24-.17.25-.38.47-.59.72.09.25.16.48.23.7.48,1.4-.35,2.24-1.28,2.65-.81.36-1.67.43-2.54.12-.52-.19-.7-.57-.46-1.15.02-.05.08-.09.13-.13.26-.03.47.09.69.21.65.37,1.31.28,1.95-.05.37-.18.62-.64.54-1.06-.04-.23-.11-.47-.2-.69-.12-.28-.24-.55-.19-.93.08-.1.16-.26.3-.38.35-.33.74-.64,1.08-.99.32-.32.33-.75.1-1.17-.15-.27-.36-.51-.63-.66-.64-.36-1.24-.79-1.92-1.1-.55-.25-1.05-.62-1.57-.95-.18-.12-.27-.45-.19-.65.14-.34.29-.67.45-1.02-.11-.14-.19-.33-.33-.41-.27-.14-.57-.23-.86-.33-.59-.2-1.18-.37-1.72-.69-.44-.27-.93-.3-1.44-.27-.76.05-1.46.27-2.15.53-.32.28-.64.56-.98.86-.53-.39-1.07-.68-1.63-.92-.57-.24-1.15-.47-1.68-.78-.74-.43-1.5-.52-2.42-.36-.62.34-1.33.71-2.01,1.08-1.11-.35-2.17-.68-3.19-1-.67-.02-1.27.03-1.88.19-.72.18-1.46.32-2.2.4-.7.07-1.33.28-1.89.69-.79.57-1.6,1.14-2.49,1.77-.19.04-.49.11-.79.16-1.36.28-2.35,1.04-3.12,2.13-.32.45-.63.89-.97,1.38-.28.06-.6.24-.86.19-.85-.2-1.59.05-2.34.38-.81.36-1.53.81-1.97,1.59-.87.8-1.5,1.76-2.08,2.77-.45.8-1.07,1.47-1.85,2-1.13.77-2.04,1.76-3,2.71-.58.56-.99,1.25-1.25,1.99-.33.93-.84,1.75-1.25,2.63-.49,1.04-1.31,1.74-2.23,2.38-.3.21-.64.36-.97.54-1.03.58-1.97,1.27-2.82,2.07-.67.63-1.3,1.3-1.87,2.01-1.14,1.43-2.22,2.9-3.31,4.37-.09.13-.06.34-.09.52-.05.01-.1.02-.14.05-.02.01-.02.06-.03.1.05-.06.1-.12.14-.18Z"/>
      <path class="cls-1" d="M142.94,25.11c.08.24.09.42-.12.49-.17.06-.39.11-.54.05-.95-.33-1.97-.23-2.92-.53-.23-.08-.49-.08-.74-.09-1.8-.04-3.6.08-5.37.42-1.15.22-2.3.48-3.47.64-.67.08-1.32.33-1.95.56-.58.22-1.16.41-1.77.55-1.15.27-2.26.64-3.3,1.19-.33.17-.68.3-1.01.47-.72.36-1.47.67-2.14,1.09-1.56.99-3.12,1.96-4.77,2.82-1.32.69-2.49,1.59-3.64,2.51-.62.5-1.26.97-1.89,1.45-1.08.82-2.13,1.69-3.09,2.61-1.19,1.15-2.42,2.26-3.48,3.52-.27.33-.59.64-.93.89-.81.58-1.47,1.3-2.1,2.04-.84.97-1.75,1.87-2.69,2.75-.62.59-1.21,1.21-1.73,1.89-.86,1.11-1.77,2.18-2.78,3.15-1.24,1.2-2.25,2.56-3.33,3.88-.15.19-.27.41-.44.58-1.15,1.13-1.94,2.49-2.73,3.87-.82,1.42-1.76,2.76-2.77,4.07-.07.1-.17.18-.22.29-.96,1.78-2.42,3.19-3.75,4.7-.52.59-1.07,1.18-1.5,1.84-.75,1.14-1.79,2.01-2.81,2.88-1.07.91-2.13,1.84-3.14,2.82-.53.52-1.1.98-1.73,1.38-1.25.78-2.51,1.55-3.75,2.34-.31.19-.6.42-.87.67-.85.81-1.81,1.47-2.85,2.02-.32.18-.63.38-.94.58-.16.1-.3.22-.46.31-2.33,1.26-4.58,2.66-7.04,3.68-.11.04-.25.07-.35.03-.1-.03-.22-.13-.25-.22-.02-.08.04-.23.1-.3.07-.09.19-.16.3-.2,1.43-.44,2.7-1.2,3.99-1.93.38-.21.74-.44,1.13-.62,2.19-1.03,4.18-2.36,6.06-3.85.77-.61,1.58-1.14,2.48-1.59,1.04-.52,1.98-1.23,2.83-2.03.44-.42.88-.85,1.32-1.28.66-.63,1.33-1.26,2.09-1.8,1.27-.89,2.29-2.04,3.17-3.29.53-.75,1.12-1.44,1.77-2.09,1.22-1.21,2.27-2.55,3.17-4,.45-.72.98-1.39,1.52-2.05.51-.62.96-1.27,1.31-1.98.92-1.86,2.2-3.49,3.46-5.13,1.45-1.89,3.1-3.61,4.75-5.32.64-.66,1.29-1.3,1.81-2.06.24-.35.58-.62.87-.93,1.51-1.6,2.99-3.23,4.54-4.79,2.25-2.25,4.55-4.45,6.84-6.66.44-.42.94-.78,1.43-1.16.93-.71,1.88-1.38,2.79-2.12,1.06-.85,2.21-1.56,3.42-2.17.99-.51,1.96-1.04,2.82-1.75.57-.47,1.22-.84,1.92-1.1.93-.35,1.8-.82,2.65-1.31,1.19-.69,2.43-1.18,3.8-1.41.6-.1,1.19-.33,1.76-.56.75-.29,1.52-.52,2.32-.66,1.95-.35,3.91-.65,5.88-.85,1.04-.11,2.11-.08,3.16-.1.18,0,.38,0,.55.04.72.16,1.45.34,2.16.52.42.11.82.23,1.2.34Z"/>
      <path class="cls-1" d="M66.84,85.46c-.37-.01-.61-.19-.57-.3.04-.11.1-.23.18-.3.09-.08.2-.14.32-.18,1.57-.49,2.88-1.4,4.13-2.4.91-.73,1.85-1.42,2.85-2.03.26-.17.53-.33.76-.52,1.59-1.35,3.23-2.64,4.7-4.12,1.69-1.69,3.3-3.44,4.78-5.31.26-.33.51-.68.76-1.02.84-1.21,1.79-2.32,2.9-3.3.92-.82,1.74-1.71,2.39-2.76.54-.88,1.14-1.73,1.86-2.49.25-.26.44-.58.66-.87.07-.1.12-.21.2-.31,1.45-1.88,2.61-3.95,4.05-5.84.29-.38.59-.78.91-1.13,1.08-1.17,2.13-2.36,3.13-3.59.27-.33.57-.65.91-.9,1.38-1.04,2.61-2.23,3.84-3.43.17-.17.36-.33.62-.36.06,0,.14,0,.17.04.07.09.17.21.15.3-.03.17-.12.34-.23.48-.55.73-1.17,1.4-1.96,1.92-.36.23-.69.51-.99.81-1.19,1.15-2.38,2.3-3.39,3.61-.56.72-1.19,1.39-1.82,2.05-.85.89-1.5,1.91-2.15,2.94-.78,1.24-1.61,2.43-2.51,3.59-.79,1.01-1.5,2.07-2.29,3.07-.56.72-1.12,1.44-1.68,2.16-.64.8-1.43,1.5-2.18,2.22-.45.43-.86.87-1.19,1.39-.79,1.23-1.7,2.38-2.64,3.5-.12.14-.21.32-.36.41-.69.44-1.14,1.1-1.64,1.71-1.11,1.32-2.44,2.4-3.75,3.52-.33.27-.68.53-1,.81-.55.48-1.09.99-1.75,1.34-.05.03-.1.07-.15.1-1.78,1.53-3.83,2.69-5.78,3.97-.57.38-1.13.76-1.71,1.1-.2.12-.46.13-.53.14Z"/>
      <path class="cls-1" d="M51.88,84.29c.69-.41,1.33-.7,1.84-1.12.98-.84,2.09-1.51,3.15-2.23,1.12-1.14,2.56-1.88,3.74-2.97,1.3-1.2,2.65-2.36,3.92-3.6.66-.64,1.3-1.3,1.95-1.94.17-.17.32-.38.53-.5,1.18-.72,2-1.79,2.93-2.76.34-.35.68-.71.94-1.11.54-.83,1.24-1.52,2.04-2.08.71-.5,1.3-1.12,1.88-1.74.33-.35.63-.76.83-1.19.39-.84.97-1.53,1.64-2.16.71-.68,1.34-1.43,1.95-2.19.19-.24.38-.48.53-.74.92-1.57,2.04-3.03,3.02-4.56.69-1.09,1.58-2.01,2.52-2.89.12-.1.24-.08.31.02.03.05.05.12.04.16-.04.1-.07.24-.14.32-1.6,1.86-2.88,3.92-4.2,5.96-.36.56-.74,1.12-1.14,1.65-.29.38-.63.74-.96,1.1-.24.28-.5.53-.73.81-.35.42-.66.87-1.05,1.27-.47.49-.89.99-1.18,1.61-.32.66-.87,1.17-1.4,1.68-.53.51-1.06,1.02-1.61,1.51-.68.62-1.26,1.31-1.84,2.02-1.07,1.33-2.35,2.49-3.72,3.53-.49.37-.93.77-1.32,1.26-.45.56-.96,1.11-1.52,1.56-1.24,1.01-2.34,2.16-3.52,3.22-1.59,1.44-3.33,2.71-5.06,3.97-1.24.91-2.51,1.77-3.85,2.53-.59.34-1.18.66-1.89.72-.38.04-.71.21-1.03.39-1.02.59-2.12,1.01-3.25,1.31-.66.19-1.29.42-1.91.69-.79.34-1.6.64-2.42.94-.29.11-.59.21-.9.23-1.31.08-2.56.44-3.79.84-.9.28-1.82.33-2.75.33-.12,0-.23-.08-.34-.13-.13-.05-.16-.16-.15-.3,0-.13.04-.24.18-.27.24-.05.48-.12.72-.1.83.1,1.61-.1,2.38-.33.36-.11.71-.24,1.06-.35.59-.2,1.19-.33,1.82-.37,1.32-.07,2.55-.43,3.72-1.04.71-.37,1.45-.66,2.25-.82.73-.14,1.42-.42,2.08-.76,1.2-.63,2.45-1.17,3.69-1.38Z"/>
      <path class="cls-1" d="M108.62,41.95c-.12,0-.26.02-.35-.04-.17-.11-.18-.3-.16-.48.01-.12.07-.24.13-.34.1-.15.21-.3.34-.42,1.41-1.35,2.89-2.63,4.49-3.78.55-.39,1.1-.79,1.63-1.2,1.71-1.3,3.52-2.46,5.38-3.55,1.54-.91,3.18-1.63,4.88-2.2,1.4-.48,2.8-.96,4.21-1.45,1.05-.37,2.11-.7,3.25-.69.19,0,.38-.02.56-.06,2.4-.46,4.82-.24,7.24-.3.12,0,.23.07.34.12.05.02.09.07.1.12.01.05,0,.14-.04.17-.15.1-.3.25-.45.26-1.12.06-2.23.09-3.35.11-.68.02-1.36.04-2.03.19-.3.06-.62.12-.92.11-1.07,0-2.08.28-3.11.51-1.4.3-2.73.78-4.09,1.2-.59.17-1.14.45-1.71.69-.28.12-.55.31-.85.37-1.1.25-2.03.89-3.05,1.29-.4.16-.76.41-1.11.65-1.71,1.19-3.45,2.34-5.22,3.46-.47.3-.9.64-1.33.99-1.65,1.36-3.23,2.81-4.78,4.27Z"/>
      <path class="cls-1" d="M32.75,88.39c-.49.36-.89.66-1.3.96-1.16.07-2.3.37-3.48.45-.98.07-1.96.29-2.93.47-1.3.24-2.58.23-3.87-.03-.85-.17-1.71-.27-2.56-.39-.32.08-.61.16-.92.22-.43.09-.86.09-1.27-.11-.45-.23-.94-.3-1.44-.29-.82.03-1.59-.22-2.39-.33-.06,0-.13-.05-.14-.1-.05-.1-.08-.22-.09-.33,0-.04.07-.1.12-.12.11-.04.23-.1.34-.08.55.08,1.08.24,1.65.24,1.86,0,3.72.03,5.58.02,1.06,0,2.11.02,3.15-.19.54-.11,1.11-.06,1.67-.08.68-.02,1.37-.03,2.05-.05.56,0,1.1-.1,1.65-.24,1.75-.42,3.52-.72,5.32-.82.5-.02.97-.15,1.45-.29.89-.28,1.78-.48,2.74-.46.56.02,1.1-.09,1.65-.21.78-.18,1.58-.27,2.38-.35.19-.02.26.2.18.44-1.34.4-2.72.72-4.14.84-.87.06-1.73.18-2.56.4-.9.23-1.82.35-2.82.44Z"/>
      <path class="cls-1" d="M68.04,62.13c-.01.11.02.26-.04.33-1.7,1.99-3.38,4-5.33,5.77-.23.21-.47.4-.7.6-.69.6-1.54.99-2.17,1.68-.57.63-1.32,1.09-1.95,1.67-.55.5-1.17.89-1.77,1.32-1.29.93-2.54,1.93-3.9,2.77-.73.45-1.37,1.04-2.04,1.57-1.15.92-2.4,1.7-3.73,2.36-.93.47-1.83,1.01-2.75,1.5-1.35.72-2.69,1.48-4.19,1.92-.34.1-.61.39-.92.59-.16.1-.51-.03-.65-.22-.09-.12-.07-.37.05-.49.08-.09.15-.19.25-.27.5-.38,1.04-.67,1.69-.67.72,0,1.33-.26,1.92-.6.64-.36,1.28-.74,1.89-1.15.46-.3.93-.59,1.46-.78,1.47-.54,2.76-1.38,3.96-2.33.87-.69,1.76-1.32,2.69-1.93,1.13-.74,2.2-1.56,3.29-2.36.3-.22.57-.48.88-.67,1.43-.87,2.63-2.01,3.79-3.18.3-.3.59-.62.94-.87,2.05-1.49,3.75-3.32,5.43-5.18.49-.54.98-1.08,1.6-1.49.04-.03.13-.02.18,0,.05.02.09.07.14.11Z"/>
      <path class="cls-1" d="M57.38,77.11c.18-.04.38-.04.53-.13,1.54-.91,3.04-1.87,4.25-3.2.37-.41.78-.77,1.18-1.16.57-.55,1.17-1.07,1.84-1.51,1.24-.81,2.37-1.75,3.21-2.98.1-.15.22-.29.35-.42,1.49-1.29,2.6-2.91,3.92-4.35.38-.42.76-.8,1.27-1.04.08-.04.22.04.33.08.02.01.04.11.02.14-.17.25-.34.51-.53.74-.51.61-1.05,1.19-1.54,1.81-.73.9-1.45,1.8-2.31,2.59-.41.37-.81.77-1.11,1.21-.59.89-1.41,1.54-2.28,2.11-.83.54-1.57,1.18-2.28,1.85-.45.42-.9.83-1.33,1.27-1.03,1.05-2.23,1.92-3.45,2.75-.76.52-1.53,1.03-2.28,1.58-.64.47-1.29.95-1.86,1.5-.66.65-1.41,1.18-2.12,1.77-.05.03-.09.08-.14.11-.15.11-.29.25-.45.32-1.32.56-2.35,1.58-3.65,2.17-.62.28-1.26.49-1.9.73-.19.08-.24.04-.63-.16.03-.05.05-.13.1-.15,1.76-.76,3.34-1.85,5.04-2.71.33-.17.63-.39.91-.62.48-.38.96-.77,1.39-1.2.93-.9,1.92-1.72,2.99-2.44.26-.17.51-.35.55-.69l-.05.04Z"/>
      <path class="cls-1" d="M161.16,18.17c-.47.09-.77.14-1.11.21-.74-.25-1.45-.62-2.16-.99-.62-.32-1.27-.4-1.97-.24-1.03.22-2.03.51-3.04.76-.15.04-.35-.14-.37-.32-.02-.19.02-.36.18-.48.15-.11.3-.23.47-.28.88-.27,1.78-.52,2.71-.58,1.06-.08,2.09,0,3.06.52.43.23.91.36,1.36.54.44-.07.87-.13,1.32-.21,1.04.65,2.09,1.28,3.11,1.95.44.29.55,1.04.25,1.47-.14.2-.31.37-.47.55-.12.14-.26.27-.34.43-.07.15-.12.36-.08.51.1.41.27.8.37,1.21.09.36.01.71-.19,1.04-.68,1.05-1.55,1.87-2.84,2.18-.3.07-.59.2-.89.25-.17.03-.38-.02-.53-.1-.27-.14-.51-.33-.76-.51-.64-.48-1.33-.87-2.09-1.15-.12-.04-.2-.29-.21-.46-.02-.31.37-.56.64-.46.71.25,1.33.64,1.94,1.06.25.17.5.36.77.5.16.07.38.12.54.07.54-.14,1.06-.31,1.58-.47.49-.48,1.12-.8,1.27-1.55-.23-.48-.5-.96-.7-1.45-.09-.22-.05-.49.11-.69.15-.2.32-.37.49-.54.21-.22.42-.43.63-.66.14-.15.12-.52-.05-.66-.19-.15-.37-.33-.58-.43-.79-.35-1.59-.67-2.41-1Z"/>
      <path class="cls-1" d="M187.79,57.23c.01-.06.04-.12.03-.17,0-.04-.07-.07-.11-.1-.03.05-.08.1-.08.15,0,.05.03.1.04.16.04-.01.08-.03.12-.04h0ZM186.13,59.99c0-.17-.05-.42.01-.64.13-.47.24-.93.22-1.42-.03-.67.11-1.32.37-1.94.28-.67.35-1.41.77-2.03.06-.09.19-.14.29-.2.1-.05.4.15.44.27.02.06.07.11.07.17-.04.92.31,1.77.53,2.56,0,.85-.4,1.44-.91,1.99-.36.39-.47.83-.28,1.4.5.45,1.04.95,1.6,1.42.37.3.79.32,1.22.12.4-.19.74-.43,1.05-.73.4-.38.8-.76,1.24-1.09.34-.26.75-.44,1.21-.34.32.07.6,0,.9-.12.36-.13.64-.35.82-.69.5-.92.73-1.91.81-2.94,0-.05.08-.14.11-.14.1.03.23.06.29.13.19.26.25.56.19.86-.17.83-.35,1.65-.82,2.38-.17.25-.31.52-.43.72-.8.55-1.7.57-2.39.77-.65.29-.98.73-1.38,1.11-.66.62-1.47.88-2.36.93-.23.01-.5-.05-.71-.15-.27-.13-.54-.31-.76-.51-.68-.61-1.35-1.23-2.08-1.91Z"/>
      <path class="cls-1" d="M57.42,77.06c-.26,0-.48.08-.69.21-.92.6-1.89,1.15-2.69,1.9-.04.04-.11.04-.17.06-.06,0-.13,0-.18-.04-.3-.17-.4-.54-.18-.72.39-.29.78-.6,1.19-.85,1.16-.7,2.26-1.47,3.33-2.29.34-.26.64-.55.93-.87.7-.76,1.42-1.51,2.16-2.23.39-.39.83-.73,1.26-1.06.64-.49,1.2-1.04,1.62-1.73.54-.89,1.26-1.62,2.03-2.32.81-.74,1.65-1.45,2.3-2.34.25-.34.6-.61.92-.89.08-.08.21-.14.33-.16.11,0,.26.04.32.11.06.07.09.24.04.32-.47.71-.94,1.41-1.58,1.99-.5.45-.94.96-1.45,1.4-.69.61-1.3,1.29-1.85,2.03-.73.98-1.63,1.8-2.55,2.6-1.75,1.52-3.46,3.08-5.08,4.73-.04.04-.04.12-.05.17l.05-.04Z"/>
      <path class="cls-1" d="M51.67,87.14c-1.09.54-2.21,1.02-3.42,1.34-1.79.48-3.61.9-5.33,1.6-2.28.59-4.52,1.33-6.88,1.53-1.09.28-2.21.32-3.33.35-1.18.04-2.33.32-3.5.47-.98.13-1.96.33-2.94.47-.34.04-.59-.12-.68-.46.09-.25.29-.42.54-.44.49-.05.99-.04,1.49-.07.37-.02.76,0,1.11-.11,1.57-.43,3.17-.53,4.79-.6.81-.04,1.6-.13,2.39-.32.9-.22,1.84-.27,2.75-.46,1.14-.25,2.31-.5,3.4-.91,1.68-.65,3.42-1.09,5.16-1.5,1.03-.24,2.04-.53,3-.96.4-.18.81-.31,1.24-.36.16-.02.18,0,.2.42Z"/>
      <path class="cls-1" d="M124.62,66.54c-.07.36-.12.85-.25,1.31-.18.66-.13,1.29.02,1.96.24,1.05.49,2.11.48,3.2,0,.29.02.62.14.89.44,1,.64,2.07.91,3.12.16.6.49,1.11.87,1.58.23.29.49.54.73.82.24.27.21.59-.05.78-.23.16-.56.07-.8-.22-.23-.29-.43-.59-.68-.85-.69-.73-1.13-1.57-1.33-2.55-.09-.47-.18-.96-.4-1.38-.46-.9-.59-1.83-.56-2.8,0-.35-.05-.72-.16-1.06-.29-1.01-.32-2.04-.12-3.04.16-.83.28-1.66.3-2.5,0-.12.03-.25.1-.34.06-.09.17-.15.27-.19.14-.06.25,0,.3.13.02.06.07.1.08.16.05.3.08.59.13,1.01Z"/>
      <path class="cls-1" d="M150.33,63.84c-.06-.56-.1-.97-.13-1.31-.23-.53-.81-.69-.91-1.22.05-.1.09-.22.17-.31.17-.21.49-.24.66-.09.18.17.39.32.49.53.32.65.58,1.32.99,2.23.16.15.51.48.88.8.29.26.64.35,1.03.35.43,0,.87,0,1.3-.02.84-.03,1.57-.31,2.16-.9.17-.17.32-.36.59-.4.36.23.43.47.26.7-.64.81-1.54,1.18-2.53,1.38-.3.06-.62.05-.92.12-1.05.23-1.95.06-2.69-.76-.36-.4-.84-.7-1.33-1.1Z"/>
      <path class="cls-1" d="M124.44,45.78c-.34-.44-.67-.45-.88-.01-.04.08-.03.24.02.3.06.07.21.1.31.08.23-.05.42-.17.55-.37h0ZM125.88,45.39c-.13.65-.57,1.04-1.12,1.36-.49.29-1.02.4-1.6.35-.41-.04-.83-.51-.72-.89.1-.34.21-.7.39-1,.26-.41.64-.72,1.07-.97.23-.12.48-.15.72-.07.6.22,1.09.56,1.25,1.22Z"/>
      <path class="cls-1" d="M206.31,91.08c-.2.17-.44.2-.69.21-1.15.05-2.17-.35-3.15-.89-.65-.36-1.21-.81-1.73-1.33-.59-.61-1.24-1.17-1.86-1.76-.22-.21-.45-.42-.51-.73-.02-.1.03-.25.1-.31.07-.05.28-.06.32,0,.99,1.16,2.34,1.94,3.42,3,.66.64,1.49,1.04,2.44,1.19.48.07.96.23,1.43.36.09.03.14.17.21.25Z"/>
      <path class="cls-1" d="M168,57.43c-.3.18-.61.36-.86.51-.26.49.13.85.11,1.27-.11.46-.47.68-.9.78-.76.19-1.35-.32-1.28-1.08.03-.36.13-.7.35-1,.45-.62,1.09-.94,1.84-1.07.32-.06.61.16.74.6Z"/>
      <path class="cls-1" d="M178.91,40.94c.71-.03,1.26.38,1.42,1,.03.11.03.24,0,.35-.15.59-1,1.11-1.58.96-.36-.1-.69-.23-.98-.48-.38-.34-.43-.87-.09-1.28.34-.42.8-.53,1.22-.56Z"/>
      <path class="cls-1" d="M197.79,23.63c.75.38,1,1.01.98,1.76,0,.24-.15.45-.38.56-.22.1-.45.18-.68.24-.68.19-1.17-.07-1.43-.73-.1-.23-.1-.45,0-.69.11-.28.27-.53.52-.71.1-.07.19-.15.3-.19.22-.09.45-.16.69-.25Z"/>
      <path class="cls-1" d="M139.58,18.43c.15-.12.28-.24.41-.36.62-.54,1.32-.62,1.99-.2.26.16.43.41.52.7.07.25-.09.66-.31.78-.56.27-1.14.39-1.77.29-.3-.05-.59-.17-.79-.41-.19-.24-.41-.43-.72-.49-.14-.03-.18-.14-.13-.28.05-.13.15-.16.28-.13.17.04.35.07.53.09Z"/>
      <path class="cls-1" d="M190.25,38.15l.08.06v-.08s-.08.02-.08.02h0ZM188.96,38.06c.03-.15.05-.39.12-.62.21-.67.8-.9,1.46-.61.48.21.79.55,1.01,1,.16.31.03.74-.24.98-.29.25-.65.35-1,.45-.58.17-1.28-.33-1.33-.93,0-.06-.01-.12-.03-.27Z"/>
      <path class="cls-1" d="M136.68,59.44s.03-.1.02-.14c0-.04-.06-.06-.09-.09-.02.04-.06.09-.07.13,0,.04.02.09.03.14.03-.01.07-.02.1-.04h0ZM137.64,59.59c-.05.38-.32.75-.8.96-.3.14-.59.11-.86-.08-.43-.3-.66-.7-.55-1.22.1-.46.22-.92.34-1.38.05-.18.41-.34.61-.29.76.2,1.18.65,1.26,1.34.02.18,0,.35,0,.66Z"/>
      <path class="cls-1" d="M64.62,78.31c.06.09.18.2.16.25-.09.22-.21.43-.36.61-1.18,1.32-2.58,2.4-4.03,3.42-.3.22-.64.37-1.03.33-.11,0-.26-.07-.31-.15-.04-.06.02-.21.07-.31.02-.04.09-.09.14-.11,1.19-.43,2.07-1.28,2.98-2.08.73-.64,1.47-1.28,2.21-1.91.04-.04.12-.04.18-.05Z"/>
      <path class="cls-1" d="M49.86,81.63c-.51.29-1.04.58-1.58.88-.54.3-1.07.61-1.61.91-.71.39-1.5.58-2.25.85-.06.02-.13.04-.18.02-.16-.07-.33-.13-.46-.24-.11-.08,0-.39.15-.47.16-.08.33-.21.5-.22,1.28-.13,2.34-.76,3.4-1.38.53-.31,1.02-.69,1.63-.85.15-.04.3.06.4.27.02.05,0,.12,0,.23Z"/>
      <path class="cls-1" d="M158.42,6.63c-.07.12-.12.33-.25.41-.82.44-1.75.5-2.45.21-.35-.16-.52-.56-.36-.89.26-.55,1.03-1.02,1.62-.99.12,0,.25.03.35.09.38.19.73.43.96.8.06.1.08.23.13.38Z"/>
      <path class="cls-1" d="M231.7,45.72c-.08.13-.16.29-.26.43-.1.15-.13.3-.13.5,0,.54-.25.83-.7.83-.37,0-.74-.04-1.1-.11-.31-.06-.54-.29-.62-.6-.08-.31.02-.59.25-.82.55-.55,1.24-.76,2.02-.7.26.02.44.19.54.47Z"/>
      <path class="cls-1" d="M146.74,19.96l-.07.09h.1s-.04-.09-.04-.09h0ZM146.75,21.06c-.18-.04-.48-.1-.77-.19-.2-.06-.41-.39-.37-.57.11-.47.21-.94.33-1.4.09-.34.63-.47.92-.24.4.29.72.65,1,1.05.47.68.05,1.22-.61,1.32-.12.01-.24.02-.49.03Z"/>
      <path class="cls-1" d="M129.15,5.54c.64.26.73.82.84,1.34.03.13-.1.36-.23.46-.47.41-1.03.64-1.69.61-.44-.02-.78-.49-.61-.91.31-.77.85-1.31,1.69-1.5Z"/>
      <path class="cls-1" d="M197.06,65.16c-.12-.01-.24-.03-.36-.05-.41-.07-.7-.67-.45-.98.26-.33.54-.63.84-.92.47-.46.95-.42,1.39.11.11.13.2.29.28.45.24.5.06.89-.47,1.15-.39.2-.81.22-1.24.23Z"/>
      <path class="cls-1" d="M145.95,7.16c.72-.02,1.24.49,1.27,1.22.02.5-.48.98-1.06,1.01-.75.04-1.38-.46-1.35-1.12.03-.68.42-1.1,1.14-1.11Z"/>
      <path class="cls-1" d="M133.02,54.5c0-.68.29-1.04.96-1.18.16-.04.36,0,.52.06.35.13.59.41.74.75.14.29.11.58-.06.84-.2.31-.49.51-.84.65-.51.21-1.17-.14-1.27-.67-.03-.17-.04-.35-.05-.44Z"/>
      <path class="cls-1" d="M189.22,20.32c-.43,0-.85-.07-1.24-.26-.32-.16-.54-.5-.52-.87.01-.31.11-.57.29-.83.23-.33.73-.45.91-.15.31.51.86.65,1.28.99.16.12.25.44.18.65-.08.25-.29.36-.54.43-.12.03-.24.04-.36.05Z"/>
      <path class="cls-1" d="M33.4,84.47c.2.13.31.19.39.28.11.11.03.42-.08.47-.06.03-.1.08-.16.09-1.21.23-2.26.96-3.53,1.1-.12-.09-.28-.18-.4-.3-.15-.15-.02-.57.18-.61,1.02-.2,2.01-.52,2.99-.87.17-.06.36-.09.62-.16Z"/>
      <path class="cls-1" d="M155.73,54.31c-.45-.03-.78-.15-.96-.53-.16-.36-.12-.72.14-1.01.2-.22.45-.41.69-.59.25-.18.67-.09.81.17.14.27.27.54.41.81.24.5-.05.95-.6,1.1-.18.05-.37.04-.5.05Z"/>
      <path class="cls-1" d="M172.49,28.52c.5,0,.93.21,1.18.66.16.27.14.58-.02.86-.16.28-.41.44-.74.43-.44,0-.84-.12-1.18-.42-.33-.29-.37-.8-.08-1.11.22-.23.48-.38.83-.42Z"/>
      <path class="cls-1" d="M77.37,85.62c-.02.06-.02.13-.06.17-.35.24-.7.5-1.07.69-.92.48-1.87.94-2.8,1.39-.12.06-.26,0-.32-.12-.05-.1-.09-.23-.07-.34.03-.1.11-.23.21-.29.58-.33,1.16-.69,1.78-.95.68-.28,1.31-.69,2.07-.75.05,0,.12.03.16.06.04.03.06.08.09.12Z"/>
      <path class="cls-1" d="M167.78,12.25c0,.32-.1.54-.31.68-.3.21-.64.39-1.02.41-.25.01-.49-.04-.68-.23-.18-.18-.26-.47-.16-.66.3-.55.72-.96,1.34-1.16.09-.03.25.03.33.1.31.23.47.55.48.87Z"/>
      <path class="cls-1" d="M190.57,26.72c.11.03.25.05.34.11.09.06.19.17.2.27.03.43-.11.82-.29,1.2-.02.05-.08.09-.13.12-.42.37-1.34.21-1.62-.27-.22-.37-.08-.85.28-1.11.37-.26.78-.34,1.22-.33Z"/>
      <path class="cls-1" d="M197.54,50.66c.01.83-.7,1.28-1.4,1-.25-.1-.39-.29-.44-.53-.06-.3-.02-.59.16-.85.17-.25.41-.43.68-.58.33-.17.77,0,.88.37.07.23.1.46.12.58Z"/>
      <path class="cls-1" d="M129.92,78.88c.2.06.45.05.52.16.61.89,1.18,1.79,1.76,2.69.07.12.01.24-.11.31-.05.03-.11.06-.17.05-.12,0-.26,0-.34-.08-.36-.32-.73-.63-1.04-1-.39-.46-.63-1.01-.77-1.59-.03-.14.09-.33.15-.53Z"/>
      <path class="cls-1" d="M131.42,39.61c.37.14.61.4.81.7.18.27.2.61.04.83-.18.26-.43.44-.76.41-.57-.05-1.04-.32-1.3-.84-.05-.09-.03-.29.03-.32.39-.27.7-.65,1.17-.78Z"/>
      <path class="cls-1" d="M232.79,61.24c.42.1.82.25,1.15.55.15.13.25.46.18.66-.15.47-.66.8-1.13.75-.47-.05-.82-.39-.82-.83,0-.23.04-.47.09-.71.03-.18.06-.19.54-.42Z"/>
      <path class="cls-1" d="M161.53,13.17c.28.13.57.24.83.39.26.14.22.62-.07.75-.16.07-.35.13-.52.14-.54.02-.94-.25-1.26-.64-.28-.34-.27-.76.02-1.17.17-.23.46-.27.61-.08.14.2.27.4.4.6Z"/>
      <path class="cls-1" d="M168.51,50.69c.03.33-.3.66-.68.66s-.72-.14-1-.4c-.18-.17-.26-.4-.21-.65.06-.37.34-.65.72-.72.32-.06.6.04.83.27.22.22.32.5.33.84Z"/>
      <path class="cls-1" d="M47.49,91.77c-.14.1-.27.25-.44.29-.9.22-1.78.52-2.7.62-.12.01-.25-.01-.36-.05-.15-.04-.21-.13-.19-.24,0-.05.02-.13.05-.17.09-.08.18-.18.29-.22.93-.34,1.91-.51,2.88-.69.25-.05.46.14.48.45Z"/>
      <path class="cls-1" d="M218.56,46.4c-.37-.02-.65-.09-.88-.33-.28-.31-.28-.69.03-.94.61-.49,1.34-.41,1.74.2.26.38.06.87-.41.98-.18.04-.36.06-.49.09Z"/>
      <path class="cls-1" d="M131.43,18.23c-.11.24-.27.42-.52.5-.35.12-.71.16-1.09.11-.36-.05-.66-.41-.6-.77.08-.59.41-.85,1.01-.77.59.08,1.07.29,1.2.93Z"/>
      <path class="cls-1" d="M195.91,71.78c-.05.09-.1.28-.23.39-.33.29-.74.43-1.18.45-.19,0-.52-.2-.59-.38-.08-.2.02-.48.2-.65.32-.29.7-.48,1.13-.58.31-.07.74.36.67.77Z"/>
      <path class="cls-1" d="M181.35,72.18c-.04.32-.19.56-.48.71-.33.16-.6.16-.84-.04-.25-.21-.35-.52-.25-.8.02-.05.03-.11.06-.16.25-.54.62-.83.91-.72.48.19.5.63.61,1.02Z"/>
      <path class="cls-1" d="M178.47,50.07c0,.05.04.12.02.17-.13.32-.26.65-.42.96-.14.28-.71.31-.96.08-.34-.31-.38-.75-.1-1.1.19-.25.45-.38.74-.47.26-.08.7.16.73.38Z"/>
      <path class="cls-1" d="M139.6,32.33c.31.29.33.64.27,1-.05.31-.2.56-.44.76-.32.28-.9.11-1.04-.31-.02-.05-.03-.12-.02-.17.16-.52.41-.98.9-1.27.09-.05.23,0,.33,0Z"/>
      <path class="cls-1" d="M224.62,69.33c-.17-.08-.35-.14-.5-.24-.28-.22-.36-.53-.21-.8.09-.15.19-.31.31-.44.32-.32.77-.41.98-.22.25.23.29.53.21.82-.05.23-.16.46-.31.64-.11.12-.32.16-.49.24Z"/>
      <path class="cls-1" d="M205.1,43.32c-.01.29-.04.59-.23.84-.22.3-.65.4-.96.19-.15-.1-.28-.23-.38-.37-.16-.19-.14-.47-.02-.67.16-.26.41-.43.69-.55.43-.19.9.1.9.55Z"/>
      <path class="cls-1" d="M87.28,84.46c-.09-.07-.22-.14-.25-.23-.03-.09,0-.25.08-.31.58-.53,1.24-.97,1.94-1.32.08-.04.25.02.32.08.07.07.08.21.09.32,0,.05-.04.11-.08.15-.47.57-1.06.98-1.75,1.27-.1.05-.23.02-.35.03Z"/>
      <path class="cls-1" d="M195.66,45.45c-.36-.05-.68-.2-.81-.57-.03-.1-.02-.23.03-.33.12-.29.4-.42.67-.55.4-.2.68-.2.83,0,.2.26.16.54.09.83-.1.35-.47.65-.8.63Z"/>
      <path class="cls-1" d="M145.56,32.16c-.06-.01-.12-.03-.18-.04-.23-.04-.44-.35-.31-.52.23-.3.33-.61.34-.97,0-.21.37-.31.59-.2.28.14.48.35.62.62.08.17.07.34-.02.5-.23.38-.6.56-1.04.61Z"/>
      <path class="cls-1" d="M226.84,87.6c.43.12.9.23,1.37.38.17.05.32.17.47.26.05.03.1.09.11.14.02.11.05.24,0,.33-.05.09-.19.19-.28.18-.55-.05-1.09-.17-1.56-.47-.15-.1-.25-.25-.37-.39-.03-.04-.05-.13-.02-.17.06-.09.16-.15.29-.26Z"/>
      <path class="cls-1" d="M188.82,72.21c-.03.25-.17.44-.38.57-.22.14-.44.16-.68.03-.22-.12-.37-.3-.4-.54-.02-.1.02-.24.08-.33.28-.39.95-.41,1.25-.03.07.08.09.21.13.31Z"/>
      <path class="cls-1" d="M216.17,74.51c-.03.11-.02.24-.08.33-.17.27-.42.43-.75.45-.18.01-.36,0-.49-.17-.14-.17-.16-.49-.02-.65.29-.33.73-.43,1.15-.23.09.05.13.18.19.28Z"/>
      <path class="cls-1" d="M122.4,20.08c.09-.14.13-.27.21-.34.25-.21.51-.18.79.07.27.25.36.55.21.78-.21.33-.64.38-.89.06-.14-.17-.22-.4-.32-.57Z"/>
      <path class="cls-1" d="M228.34,69.65c-.02.1-.05.28-.12.45-.08.23-.39.42-.57.35-.25-.09-.41-.28-.46-.52-.05-.24.05-.48.2-.67.12-.14.29-.21.49-.18.24.04.44.28.46.57Z"/>
      <path class="cls-1" d="M172.01,24.41c.26.02.48.11.65.31.27.29.18.7-.19.9-.35.18-.81.06-.97-.23-.14-.26-.08-.56.19-.81.09-.07.21-.11.32-.16Z"/>
      <path class="cls-1" d="M70.37,87.12c-.45.22-.92.47-1.41.7-.06.03-.24-.06-.29-.14-.05-.09-.03-.23.02-.33.05-.1.15-.2.26-.24.39-.15.79-.31,1.2-.4.2-.04.27.16.23.41Z"/>
      <path class="cls-1" d="M145.38,60.98c.05.4-.35.83-.77.82-.21,0-.5-.27-.5-.45,0-.49.59-.86,1.05-.63.09.05.15.17.22.26Z"/>
      <path class="cls-1" d="M225.4,51.32c-.29-.14-.47-.36-.54-.67-.06-.23.04-.47.28-.58.05-.03.13-.05.17-.03.38.15.53.47.54.84,0,.28-.17.41-.45.44Z"/>
      <path class="cls-1" d="M97.28,80.13c.11.05.25.07.31.14.21.26.18.56.08.86-.05.15-.26.3-.42.29-.15,0-.38-.15-.43-.29-.13-.34,0-.73.3-.96.04-.03.11-.03.17-.04Z"/>
      <path class="cls-1" d="M175.84,31.37c.02.31-.15.56-.39.62-.19.04-.36-.03-.48-.17-.17-.19-.23-.41-.12-.65.14-.31.51-.42.74-.18.12.12.19.29.25.38Z"/>
      <path class="cls-1" d="M230.29,53.61c-.03.3-.24.53-.54.6-.14.03-.38-.1-.44-.23-.08-.21,0-.46.18-.62.2-.17.43-.2.63-.04.08.06.11.19.16.29Z"/>
      <path class="cls-1" d="M178.45,67.33c-.07.18-.17.31-.38.34-.19.02-.35-.02-.48-.17-.18-.2-.18-.43-.12-.66.06-.2.4-.32.6-.23.28.14.45.46.38.72Z"/>
      <path class="cls-1" d="M211.76,75.72c.01.25-.15.47-.38.5-.29.05-.57-.21-.55-.51.01-.22.25-.44.47-.44s.44.23.46.45Z"/>
      <path class="cls-1" d="M131.8,20.3c.06.26-.15.55-.35.57-.18.02-.47-.24-.47-.43,0-.18.3-.48.46-.42.15.05.26.2.35.28Z"/>
      <path class="cls-1" d="M171.42,59.42c.1.05.24.07.3.16.09.13-.06.36-.24.36-.1,0-.23-.07-.29-.15-.1-.14.04-.34.23-.37Z"/>
      <path class="cls-1" d="M234.86,57.89c.05.19-.06.33-.29.36-.21.03-.34-.07-.38-.28-.04-.2.05-.31.29-.37.19-.05.31.04.38.28Z"/>
      <path class="cls-1" d="M278.76,92.84c.05.14-.06.34-.22.42-.17.09-.34-.01-.39-.22-.03-.14,0-.24.14-.3.19-.09.42-.04.47.1Z"/>
      <path class="cls-1" d="M249.41,79.05c.01.21-.19.47-.41.54-.54.15-.96,0-1.28-.42-.14-.19-.16-.48-.02-.66.15-.19.31-.36.49-.51.23-.2.61-.14.8.1.23.29.41.59.41.96Z"/>
      <path class="cls-1" d="M233.52,79.37c.49.51.64,1.09.85,1.64.05.12-.04.22-.16.23-.05,0-.13-.02-.17-.06-.38-.33-.61-.75-.67-1.23-.02-.16.08-.33.15-.58Z"/>
      <path class="cls-1" d="M242.64,73.07c.05.28-.27.59-.52.49-.09-.04-.17-.16-.19-.26-.04-.17,0-.34.18-.44.22-.14.49-.03.53.21Z"/>
      <path class="cls-1" d="M266.65,83.64c.05-.22.11-.45.18-.74-.15-.27-.33-.57-.52-.9.11-.13.22-.25.32-.37.15.02.29,0,.38.06.52.31,1.04.62,1.53.96.2.14.3.37.26.63-.06.48-.2.92-.47,1.34-.26.4-.97.41-1.25,0-.06-.1-.11-.21-.16-.31-.1-.22-.19-.44-.29-.67Z"/>
      <path class="cls-1" d="M265.29,89.78c-.19-.11-.4-.21-.59-.34-.31-.24-.28-.65.03-.91.19-.16.41-.23.66-.25.33-.02.61.13.74.4.15.31.04.74-.28.93-.15.09-.34.11-.56.18Z"/>
      <path class="cls-1" d="M257.84,83.96c.35,0,.56.21.58.46.02.25-.12.52-.32.59-.24.09-.5.13-.72-.01-.14-.1-.26-.25-.34-.4-.08-.18.11-.46.36-.54.17-.06.36-.08.44-.1Z"/>
    </g>
  </g>
</svg>