<?xml version="1.0" encoding="UTF-8"?>
<svg id="Layer_2" data-name="Layer 2" xmlns="http://www.w3.org/2000/svg" viewBox="0 0 524.25 47.45">
  <defs>
    <style>
      .cls-1 {
        fill: #753d22;
        fill-rule: evenodd;
      }
    </style>
  </defs>
  <g id="Layer_2-2" data-name="Layer 2">
    <g>
      <g>
        <path class="cls-1" d="M441.08,24.88c3.17,1.45-5.43,1.14-4.49-1.3.46-1.19,3.55.86,4.49,1.3h0ZM434.59,21.99l-.45,1.31-6.08-2.62c.27-1.45,5.66.96,6.54,1.31h0ZM431.29,22.26l-.38-.85c-.1.35.08.72.38.85h0ZM424.59,19.59c1.12,0,.52,1.4-.45,1.38h0s-11.48,2.2-11.48,2.2c-.72-2.07,10.22-3.6,11.48-3.6h0s.45.01.45.01h0ZM408.26,24.39c1.15-.53.85,1.12-.05,1.54-10.11,4.67-17.64,6.46-27.63,2.33l.45-1.3c9.89,4.07,17.2,2.07,27.23-2.58h0ZM376.31,24.86c.95.44.1,1.56-.76,1.16-7.29-3.37-6.01-4.29.76-1.16h0ZM363.91,20.1l-.25,1.37c-9.98-2.14-19.26,4.87-28.66,8.04l-.38-1.33c9.65-3.26,18.98-10.31,29.29-8.08h0ZM328.15,29.56c1.52-.07-.07,1.43-1.12,1.43h0c-2.93,0-6.81-1.99-1.73-1.48.55.05,1.13.09,1.73.09h0s1.12-.03,1.12-.03h0ZM311.43,24.8c1.02.47,0,1.52-.87,1.11-34.2-15.85-29.84,16.2-64.71.02-34.38-15.95-29.7,16.26-64.74,0-12.31-5.71-18.34-6.21-30.05-.84-1.83.84-1.39-1.61,6.75-4.21,14.99-4.81,25.78,8.71,39.74,8.71,19.74,0,20.12-18.26,48.81-4.95,13.04,6.06,18.82,6.06,31.86,0h0c2.42-2.62,14.96-6.91,24.89-3.4l8.31,3.55h0ZM147.08,25.42c-.82.38-5.77,1.91-5.4,3.04.8,2.47,9.85-5.05,5.4-3.04h0ZM133.46,29.59c1.27-.02.37,1.41-.65,1.41h0c-1.48,0-13.65-2.03-12.86-4.18.43-1.15,5.97,1.6,6.89,1.86,1.98.57,3.98.92,5.96.92h0s.65,0,.65,0h0ZM117.34,24.86c1.03.47,0,1.51-.88,1.11-7.44-3.44-5.62-4.11.88-1.11h0ZM96.18,20.05l.24,1.38c-1.08.22-7.06,2.73-7.42,1.73-.5-1.46,6.18-2.9,7.18-3.11Z"/>
        <path class="cls-1" d="M3.32,16.15c-.65,0-1.24-.29-1.66-.75-.42-.46-1.66-1.1-1.66-1.8s1.24-1.34,1.66-1.8c.43-.45,1.02-.75,1.66-.75,2.46,0,4.98-.6,7.54-1.5,2.55-.9,5.14-2.1,7.72-3.3,0,0,0,0,.01,0,.01,0,.02,0,.03,0,2.8-1.3,5.61-2.6,8.45-3.58,2.84-.97,5.84-2.37,8.76-2.37s4.7,2.15,7.54,3.13c2.85.98,6.62,1.53,9.43,2.83h0s0,0,0,0h0c2.58,1.19,5.17,2.4,7.72,3.3,2.55.9,5.08.75,7.53.75s4.98.15,7.54-.75c2.55-.9,5.14-2.1,7.72-3.3,0,0,.02,0,.03,0,0,0,.02,0,.02,0,2.8-1.3,7.41-2.6,10.25-3.58,2.83-.97,4.04-2.67,6.96-2.67s5.67,1.7,8.51,2.68c2.84.98,5.65,2.28,8.46,3.58,2.59,1.2,5.16,2.4,7.72,3.3,2.55.9,5.07,1.5,7.54,1.5s4.15-1.5,6.7-2.39c2.55-.9,5.97-1.21,8.55-2.41.01,0,.02,0,.03,0,0,0,.02,0,.02,0,2.8-1.3,5.6-2.6,8.44-3.58,2.84-.97,5.71-1.62,8.63-1.62,2.33.77,4.49,2.34,8.63,1.63,2.94-.5,5.65,2.28,8.46,3.58,2.58,1.2,4.9,1.8,7.45,2.7,2.55.9,5.02,2.52,7.48,2.52s5.33-1.02,7.89-1.91c2.55-.9,5.14-2.1,7.72-3.3,2.81-1.3,5.62-2.61,8.46-3.58,2.85-.98,5.72-2.39,8.65-2.39s5.8,1.41,8.64,2.39c2.84.98,5.66,2.28,8.46,3.58,2.59,1.2,5.17,2.4,7.72,3.3,2.55.9,5.08,1.5,7.54,1.5s4.57-1.05,7.13-1.95c10.01-3.52,8.15-2.86,8.15-2.86.01,0,4.03-1.57,4.04-1.57,2.8-1.31,1.6-1.05,4.43-2.02,6.36-2.18,11.98-3.5,17.68-1.6,2.58.87,5.19,3.95,7.89,5.19,2.69.85,5.71,2.61,8.41,3.46l3.27.19,3.58,1.15c5.22,0,10.59-2.55,15.44-4.8,2.9-1.65,6.3-4.39,9.2-5.29,3.72-1.16,6.95-.21,10.67.14,6.1.59,11.11,2.89,16.75,5.53,2.21,1.03,4.94,2.89,7.22,3.54l3.77-.12c2.64.29,2.28,2.41,11.32-1.22l16.68-7.73,12.73.9c6.84,1.7,13.9,4.39,17.97,6.18,6.79,2.99,7.26,4.68,20.59-1.31,13.86-6.23,22.14-6.13,29.01-3.46,7.77,3.04,13.73,9.19,23.89,9.19,3.43,0,5.75,9.33-17.96-1.68-27.26-12.65-26.8,5.22-47.64,5.22-8.15,0-15.47-4.79-22.92-7.79-3.58-1.44-.65-1.34-7.6-2.12l-7.48.03c-2.57.73-15.07,8.33-24.56,9.77-6.49.97-11.51-1.98-16.23-5.03-1.57-1.02-4.16-1.07-5.36-2.29-3.15-3.21-8.6-2.38-12.96-2.59-1.76-.08-3.79.74-6.2,1.04-3.05.38-3.3,1.6-4.9,2.68-1.24.83-2.59,1.71-4.32,2.38-8.1,3.18-21.63,4.94-28.46,2.65-6.11-2.04-7.17-7.6-12.69-9.54-4.29-1.52-9.97.29-15.63,2.27-2.53.88-5.09,2.08-7.65,3.26-.03,0-.05.02-.08.04-.02.01-.05.02-.08.03-2.81,1.31-5.62,2.61-8.46,3.59-2.85.97-5.72.88-8.66.88s-5.8.1-8.64-.88c-2.84-.98-5.79-1.53-8.59-2.84-2.59-1.2-5.03-3.15-7.59-4.05-2.55-.9-5.08-1.5-7.55-1.5s-4.99,1.51-7.54,2.4c-2.56.9-5.14,1.2-7.73,2.4-2.81,1.31-5.63,2.61-8.46,3.59-2.84.97-5.44,1.33-8.37,1.33s-6.08-.35-8.92-1.33c-2.84-.98-5.65-2.28-8.46-3.59-2.58-1.2-5.17-2.4-7.72-3.3-2.56-.9-5.08-.75-7.54-.75s-4.94-.16-7.47.72c-3.76,1.33-7.14,2.53-7.16,2.55-.02,0-1.99.77-2.01.78-2.82,1.31-4.24,2.61-7.08,3.59-2.84.97-5.71,1.63-8.65,1.63s-5.67-1.25-8.51-2.23c-2.85-.98-5.79-1.68-8.6-2.99-2.59-1.2-5.17-2.4-7.73-3.3-2.55-.9-5.08-1.5-7.54-1.5s-4.93.59-7.47,1.47c-2.52.89-5.08,2.08-7.64,3.26-.02,0-.05.02-.07.04-.02.01-.06.02-.08.03-2.81,1.31-5.62,2.61-8.47,3.59-2.84.97-5.44,1.03-8.37,1.03s-6.09-.06-8.93-1.03c-2.84-.97-4.68-1.53-7.49-2.84l-.97-.75h0c-2.58-1.2-5.17-2.39-7.72-3.29-2.55-.89-5.07-1.5-7.54-1.5s-4.94.59-7.46,1.47c-2.52.89-5.08,2.08-7.64,3.26-.02,0-.05.02-.08.04-.02.01-.05.02-.07.03-2.6,1.53-5.46,2.79-8.47,3.59-2.89.77-5.71,1.63-8.65,1.63Z"/>
        <path class="cls-1" d="M483.58,11.91c1.48-.35,1.99,2.12.52,2.47-.99.23-15.72,7.6-14.18,3.42.75-2.03,11.98-5.49,13.65-5.89h0ZM467.02,18.66l-5.22,1.82c-3.2.85-3.4,3.29-1.31,2.9,9.92-1.87,8.77-5.64,6.53-4.72h0ZM455.21,21.18c2.26.17,2.46,5.3-11.26-.67-6.25-2.71-5.57-5.17.88-2.35l3.51,1.41,6.87,1.61h0ZM435.3,13.87c1.42.58.58,2.96-.84,2.38l-5.22-1.79h0c-9.1-3.93-33.26,12.05-30.33,5.88.52-1.1,20.6-9.95,28.06-8.9l2.81.56h0l5.52,1.88h0ZM393.86,21.11l-4.03.02c-3.67-.4-4.51,1.75-2.4,2.18,8.82,1.78,8.65-2.46,6.43-2.2h0ZM378.96,17.66c1.43.64,1.58,3.5-3.83,1-13.27-6.15-18.21-6.12-31.47.01-9.1,4.2,6.26-12.04,24.11-5.87l11.19,4.85h0ZM333.34,20.19l-4.28.93c-2.69.31-3.51,2.71-1.33,2.64,8.59-.3,7.77-4.21,5.61-3.57h0ZM180.91,18.67c-2.64-1.23-5.28-2.45-7.91-3.37-2.63-.92-5.24-1.53-7.81-1.53s-5.2.61-7.83,1.53c-2.62.92-5.26,2.14-7.9,3.37h0s0,0-.01,0h0s-.02,0-.03.02c-.01,0-.02.01-.03.01-17.65,8.86-23.27,3.46-39.63-2.86-.61-.23-3.82-4.69,7.35.49,23.2,10.78,25.58,0,31.44,0h0s8.28-3.51,8.28-3.51c2.77-.96,5.55-1.6,8.37-1.6s5.59.64,8.37,1.6c2.76.96,5.52,2.23,8.28,3.51,34.2,15.87,29.33-16.42,64.74,0,23.24,10.78,25.57,0,31.44,0h0c2.59-2.79,15.58-6.79,25.05-3.51,13.28,4.61,11.56,7.79,7.38,5.87-13.29-6.13-18.21-6.19-31.5-.03h0c-5.9,0-9,11.28-33.3,0-34.21-15.87-29.33,16.42-64.74,0h0ZM278.86,18.7l-1.46-.71,1.46.71h0ZM149.38,18.7l-1.46-.71,1.46.71h0ZM106.04,11.97l-6.15-.74h0s-1.32.43-1.32.43c-2.11,2.44,3.72,2.19,4.39,2.28,5.49.74,4.39-1.64,3.08-1.97h0ZM87.87,14.48c.61-.27,6.8.5-9.37,6.93-9.32,3.7-8.21-.27-6.68-.57l16.05-6.36h0ZM67.68,21.23l-4.53-.66c-2.85-.72-4.26,1.38-2.16,2.02,9.1,2.76,8.69-1.32,6.69-1.36h0ZM41.75,12.09c2.32.63.31,2.62-1.97,2.13-1.06-.23-8.12-.2-6.15-2.54l1.41-.45h0s6.71.86,6.71.86Z"/>
      </g>
      <path class="cls-1" d="M88.33,32.73c-3.16,1.46,5.43,1.14,4.49-1.3-.46-1.18-3.56.87-4.49,1.3h0ZM94.83,29.85l.45,1.31,6.08-2.62c-.26-1.44-5.65.96-6.53,1.32h0ZM98.13,30.12l.38-.86c.09.35-.07.72-.38.86h0ZM104.83,27.44c-1.12.02-.52,1.41.45,1.39h0s11.49,2.2,11.49,2.2c.71-2.06-10.23-3.59-11.49-3.59h0s-.45,0-.45,0h0ZM121.15,32.25c-1.15-.54-.85,1.11.05,1.54,10.11,4.68,17.65,6.45,27.64,2.33l-.45-1.3c-9.89,4.08-17.2,2.07-27.24-2.57h0ZM153.11,32.71c-.94.44-.1,1.56.76,1.17,7.29-3.37,6.02-4.29-.76-1.17h0ZM165.51,27.95l.25,1.37c9.98-2.14,19.26,4.87,28.66,8.04l.38-1.33c-9.65-3.26-18.98-10.31-29.3-8.08h0ZM201.26,37.41c-1.51-.07.08,1.43,1.13,1.43h0c2.93,0,6.8-1.98,1.73-1.48-.55.05-1.13.09-1.73.09h0s-1.13-.04-1.13-.04h0ZM217.99,32.65c-1.03.47-.01,1.53.87,1.12,34.19-15.85,29.84,16.2,64.7.02,34.39-15.95,29.7,16.26,64.74,0,12.32-5.7,18.34-6.21,30.05-.84,1.83.85,1.38-1.61-6.75-4.21-14.99-4.81-25.79,8.72-39.74,8.72-19.75,0-20.12-18.26-48.81-4.95-13.04,6.06-18.83,6.05-31.87,0h0c-2.42-2.62-14.96-6.9-24.89-3.41l-8.31,3.55h0ZM382.33,33.27c.82.37,5.77,1.91,5.41,3.04-.8,2.47-9.85-5.05-5.41-3.04h0ZM395.96,37.44c-1.27-.03-.37,1.4.64,1.4h0c1.48,0,13.65-2.03,12.86-4.18-.43-1.15-5.97,1.61-6.89,1.87-1.98.56-3.97.91-5.96.91h0s-.64,0-.64,0h0ZM412.07,32.71c-1.03.48,0,1.52.88,1.11,7.45-3.44,5.62-4.11-.88-1.11h0ZM433.25,27.91l-.25,1.37c1.07.22,7.07,2.73,7.42,1.73.51-1.45-6.18-2.9-7.17-3.1Z"/>
      <path class="cls-1" d="M442.76,41.34c3.16,1.45-5.42,1.14-4.49-1.29.46-1.19,3.56.86,4.49,1.29h0ZM436.26,38.45l-.45,1.31-6.08-2.63c.27-1.44,5.65.96,6.54,1.32h0ZM432.95,38.72l-.38-.86c-.1.35.07.72.38.86h0ZM426.26,36.05c1.13,0,.52,1.4-.44,1.38h0l-11.48,2.19c-.72-2.06,10.23-3.59,11.48-3.59h0s.44.02.44.02h0ZM409.94,40.85c1.14-.53.85,1.12-.06,1.54-10.11,4.68-17.64,6.46-27.64,2.33l.46-1.3c9.89,4.08,17.2,2.07,27.23-2.57h0ZM377.98,41.31c.95.44.1,1.56-.76,1.17-7.28-3.37-6-4.28.76-1.17h0ZM365.58,36.56l-.25,1.37c-9.98-2.15-19.26,4.86-28.66,8.04l-.38-1.33c9.65-3.27,18.98-10.31,29.3-8.08h0ZM329.82,46.02c1.51-.07-.07,1.44-1.12,1.44h0c-2.93,0-6.8-1.99-1.73-1.48.55.05,1.13.08,1.73.08h0s1.12-.04,1.12-.04h0ZM313.1,41.26c1.02.47.01,1.52-.87,1.11-34.19-15.86-29.85,16.19-64.71.02-34.38-15.95-29.7,16.26-64.74,0-12.31-5.71-18.34-6.21-30.05-.83-1.84.84-1.39-1.61,6.75-4.22,14.99-4.81,25.79,8.72,39.74,8.72,19.74,0,20.12-18.26,48.81-4.95,13.04,6.05,18.82,6.05,31.86,0h0c2.43-2.62,14.96-6.91,24.9-3.41l8.31,3.56h0ZM148.75,41.87c-.81.37-5.76,1.91-5.4,3.05.8,2.46,9.84-5.06,5.4-3.05h0ZM135.13,46.04c1.26-.02.37,1.41-.65,1.41h0c-1.47,0-13.64-2.03-12.85-4.18.42-1.15,5.97,1.6,6.89,1.87,1.99.56,3.97.92,5.96.92h0s.65-.01.65-.01h0ZM119.02,41.31c1.03.49,0,1.52-.89,1.11-7.44-3.44-5.62-4.12.89-1.11h0ZM97.84,36.51l.24,1.38c-1.07.22-7.06,2.74-7.41,1.72-.51-1.45,6.17-2.89,7.17-3.1Z"/>
    </g>
  </g>
</svg>