<?xml version="1.0" encoding="UTF-8"?>
<svg id="Layer_2" data-name="Layer 2" xmlns="http://www.w3.org/2000/svg" viewBox="0 0 472.23 148.18">
  <defs>
    <style>
      .cls-1 {
        fill: #5c3827;
        fill-rule: evenodd;
      }
    </style>
  </defs>
  <g id="_Layer_" data-name="&amp;lt;Layer&amp;gt;">
    <g>
      <path class="cls-1" d="M82.38,102.68c-.27.1-.27.23,0,.34.04.02.14-.1.2-.16-.06-.06-.13-.13-.19-.19h0ZM82.82,67.63l.12.1.03-.17-.14.07h0ZM306.17,43.03c.08-.05.15-.09.23-.14-.07-.06-.13-.16-.2-.16-.24-.02-.36.08-.26.23.04.05.16.05.24.08h0ZM329.45,51.21c-.06.15-.15.3-.18.45-.01.04.12.18.16.17.18-.06.25-.22.17-.41-.03-.08-.1-.14-.15-.21h0ZM209.53,22.63c-.06-.1-.08-.21-.14-.22-.16-.04-.43-.11-.48-.04-.15.21-.26.47-.3.72-.02.15.12.32.19.48.14-.07.32-.11.39-.22.14-.22.23-.48.33-.71h0ZM158.34,82.31c-.12,0-.21-.02-.28,0-.33.11-.47.29-.4.56.06.21.22.26.41.2.28-.09.39-.31.41-.58,0-.06-.11-.13-.15-.18h0ZM273.27,102c-.09-.12-.13-.22-.2-.25-.07-.02-.21,0-.25.05-.19.28-.37.57-.55.87-.03.05.01.21.02.21.15,0,.38.05.44-.03.21-.26.36-.57.52-.84h0ZM308.25,46.31c-.08-.2-.14-.46-.28-.67-.07-.1-.32-.15-.45-.11-.19.06-.25.27-.13.45.13.23.31.42.49.62.03.03.16.03.19,0,.06-.06.1-.15.18-.29h0ZM160.05,77.52c-.97-.31-1.59-.02-2.16.47-.03.02-.03.14,0,.16.06.06.15.12.23.12.68.06,1.2-.3,1.94-.74h0ZM326.78,58.98c-.06-.21-.2-.28-.41-.2-.46.17-.57.6-.73.99-.06.17.01.31.21.38.08.03.18.05.26.02.53-.17.75-.55.67-1.19h0ZM83.95,62.59q.84-2.07.68-3.64c-.51.59-.79,1.19-.81,1.9-.02.58-.37,1.19.13,1.74h0ZM162.16,84.28c-.14-.11-.22-.21-.28-.2-.79.13-1.56.33-2.27.7-.13.07-.19.29-.28.44.03.08.05.17.1.24.5.66,1.06.77,1.54.26.42-.46.79-.96,1.19-1.44h0ZM358.02,43.36c-.08-.05-.15-.14-.23-.14-.63-.05-1.36.35-1.52.87-.18.6-.31,1.21-.45,1.82-.02.07.06.19.11.24.05.03.18.03.22-.01.8-.73,1.38-1.61,1.89-2.55.03-.05-.02-.14-.03-.22h0ZM317.31,65.38c-.46-.93-.88-1.84-1.5-2.65-.17-.22-.35-.44-.56-.59-.1-.07-.34,0-.46.09-.24.17-.33.54-.2.74.3.46.61.9.93,1.38.03.43.04.88.1,1.33.08.55.86.8,1.3.4.19-.17.26-.45.39-.7h0ZM82.93,83.37c.26-1.93.4-3.91.33-5.9,0-.09,0-.2-.06-.27-.09-.14-.2-.28-.34-.37-.14-.1-.62.16-.66.35-.06.35-.16.71-.15,1.06.05,1.72.33,3.41.86,5.13h0ZM279.45,93.61c-.15.1-.26.13-.29.21-.75,1.76-1.5,3.53-2.22,5.29-.06.16-.06.36-.02.53.03.17.13.34.24.48.23.29.8.26.92-.05.3-.76.63-1.52.84-2.3.3-1.15.53-2.31.74-3.47.04-.2-.12-.44-.2-.68h0ZM310.77,56.86c.44.79.87,1.6,1.32,2.38.14.23.35.41.54.6.18.18.54.17.74-.02.44-.42.55-1.06.22-1.47-.29-.35-.61-.67-.92-1.01-.38-.42-.59-.9-.65-1.46-.04-.35-.1-.71-.21-1.05-.05-.13-.28-.19-.47-.3-.38.74-.43,1.54-.56,2.33h0ZM75.79,97.91c-.17.21-.4.4-.49.63-.17.42-.3.87-.37,1.31-.26,1.55-.77,3.01-1.44,4.42-.24.49-.42,1.01-.59,1.53-.03.09.14.25.21.37.93-.6,1.84-1.2,2.78-1.81.09-.56.25-1.09.26-1.63.02-1.46,0-2.92-.04-4.39,0-.13-.18-.26-.32-.43h0ZM361.6,50.82c-.06-.12-.11-.26-.15-.26-.15,0-.36,0-.42.09-1.2,1.49-2.25,3.08-3.62,4.43-.51.5-.94,1.12-1.33,1.72-.49.76-.93,1.56-1.36,2.35-.14.24-.09.61.06.77.14.14.51.05.69-.19,1.22-1.59,2.45-3.16,3.61-4.78.79-1.11,1.71-2.14,2.26-3.4.11-.24.17-.5.25-.73h0ZM403.94,103.58c-2.23,1.09-3.68,2.43-5.02,3.91-.32.36-.45.82-.17,1.25.43.69.44,1.35.06,2.05-.07.16-.11.34-.14.52-.01.07.05.17.11.23.03.04.15.05.18.02.69-.48,1.05-1.24,1.51-1.91,1.24-1.78,2.49-3.57,3.48-6.08h0ZM170.36,80.4c-.09.15-.16.34-.28.47-2.3,2.31-4.49,4.73-6.62,7.21-.35.41-.75.78-1.14,1.15-.23.23-.79.04-.88-.29-.16-.55-.17-1.09.19-1.56.61-.79,1.24-1.56,1.88-2.33,1.28-1.54,2.58-3.04,4.51-3.84.66-.27,1.17-.86,1.91-1,.13-.02.29.12.44.19h0ZM81.04,102.35c-.33-1.45-.06-2.69.28-3.92.15-.53.18-1.07,0-1.62-.33-1.06-.33-2.14-.29-3.02.29-.89.94-1.4.87-2.21-.37-.81-.75-1.63-1.14-2.44-.02-.04-.13-.06-.19-.04-.08.02-.19.07-.23.14-.12.24-.29.48-.31.74-.07.72-.11,1.45-.09,2.18.06,1.56.02,3.09-.37,4.61-.2.79-.21,1.63-.22,2.45-.01,1.18.03,2.36-.24,3.53-.02.06.3.29.4.26.42-.13.82-.34,1.53-.65h0ZM409.49,102.37c-.21.44-.43.94-.69,1.43-1.15,2.18-2.3,4.36-3.47,6.55-.77,1.45-1.54,2.91-2.31,4.35-.2.37-.52.49-1.04.28-.16-.31-.39-.7-.55-1.12-.32-.82-.27-1.62.22-2.36.25-.39.53-.75.8-1.12.98-1.33,1.92-2.67,2.93-3.97.98-1.24,1.79-2.54,2.1-4.11.1-.48.49-.72,1.01-.75.47-.03.64.1.99.82h0ZM354.82,68.18c-.38.08-.61,0-.68-.32-.06-.27-.12-.56-.06-.81.21-.9.17-1.8.11-2.64.83-1.73,2.13-3.04,3.22-4.5,1.14-1.53,2.43-2.95,3.66-4.41.06-.06.14-.14.22-.15.17-.03.34-.03.51-.01.06,0,.14.1.16.17.28,1.09.3,2.15-.42,3.12-.82,1.1-1.57,2.24-2.4,3.32-1.22,1.59-2.43,3.19-3.48,4.9-.28.46-.59.91-.84,1.31h0ZM355.96,54.35c-.13-.1-.23-.15-.23-.2-.03-.27-.08-.54-.05-.8.07-.54.28-1.07.28-1.6,0-.44-.18-.88-.29-1.35.72-1.82,1.9-3.34,3.07-4.84.68-.88,1.29-1.75,1.71-2.77.11-.25.24-.49.36-.73.09-.18.52-.35.71-.25.16.07.31.19.42.32.11.14.17.32.2.5.04.27.06.55.04.82-.2,2.32.17,2.08-1.47,4.59-1.44,2.22-3.09,4.27-4.75,6.32h0ZM176.97,77.68c-.87,1.38-1.99,2.58-3.08,3.8-1.77,1.97-3.49,3.99-5.14,6.07-1.81,2.29-3.72,4.51-5.58,6.77-.12.14-.27.27-.43.33-.15.05-.34.03-.5,0-.06-.01-.12-.14-.14-.22-.12-.46.03-.9.14-1.34.1-.35.17-.71.24-1.04.65-1.26,1.54-2.29,2.47-3.3,1.6-1.76,3.11-3.61,4.78-5.29,1.86-1.88,3.86-3.62,5.82-5.41.26-.24.6-.41.92-.58.19-.1.36-.01.51.22h0ZM354.63,74.76c.32-.12.62-.13.75-.29,1.59-2.01,3.16-4.04,4.71-6.08.83-1.1,1.7-2.16,2.74-3.05.36-.3.66-.63.83-1.14-.17-.93-.32-1.92-.55-2.89-.05-.21-.35-.36-.52-.53-.21.13-.41.19-.51.33-1.13,1.44-2.29,2.85-3.36,4.33-.75,1.04-1.62,1.98-2.21,3.14-.57,1.14-1.22,2.25-1.83,3.38-.08.16-.1.35-.18.67.04.59.08,1.31.13,2.15h0ZM364.43,66.87c-1.01.52-1.48,1.33-2.13,1.95-2.06,1.95-3.77,4.2-5.45,6.46-.11.14-.22.29-.33.44-.92,1.25-1.22,2.62-.77,4.13.08.29.36.63.51.56.16-.06.35-.11.45-.23,2.79-3.24,5.58-6.48,8.36-9.73.24-.28.47-.57.63-.89.12-.22.12-.51.17-.78-.27-.4-.52-.77-.79-1.14-.16-.21-.34-.41-.65-.77h0ZM57.88,121.28c.59-.23,1.21-.41,1.77-.7,1.26-.65,2.18-1.63,2.73-2.95.09-.21.11-.36-.08-.47-.06-.04-.18-.03-.25,0-1.03.45-1.83,1.19-2.54,2.03-.53.62-1.05,1.24-1.56,1.87-.05.05,0,.18-.01.27-.06.03-.13.07-.18.11.04-.06.08-.11.13-.17h0ZM178.91,75.04c.28.07.54,0,.77-.16.93-.73,1.86-1.47,2.78-2.21.04-.03,0-.16,0-.31-.16-.11-.37-.25-.61-.42-.95.59-1.93,1.08-2.73,1.74-.08.25-.17.41-.18.58-.02.27,0,.55.01.82-.07.04-.16.05-.22.11-.03.03-.01.11-.02.17.17,0,.23-.1.19-.32h0ZM82.69,69.63c-.26.12-.43.33-.44.61-.05,1.43-.09,2.86-.12,4.3,0,.09.18.2.29.27.02.02.18-.1.19-.16.15-1.15.35-2.29.08-3.45-.12-.51-.05-1.07-.07-1.61.12-.11.27-.2.34-.34.1-.2,0-.34-.17-.32-.03,0-.08.15-.09.22-.02.17-.01.34-.02.5h0ZM162.95,81.09c.18.02.37.1.54.06.92-.18,1.73-.56,2.38-1.25.04-.04.03-.13.04-.2-.08-.04-.16-.12-.24-.12-1.05.06-1.92.48-2.6,1.29-.05.06-.04.17-.06.26-.09.03-.18.04-.25.09-.03.03-.03.12-.03.18.2.03.28-.07.23-.32h0ZM71.65,108.12c-.09,0-.2-.02-.26.03-.9.57-1.68,1.28-2.22,2.21-.03.06-.04.17,0,.22.11.16.29.19.47.08.68-.41,1.28-.93,1.77-1.57.23-.3.28-.64.21-1,.2-.04.54.01.23-.35-.06.13-.12.26-.18.4h0ZM204.81,28.83c.56-.19.86-.64,1-1.17.06-.22-.05-.5-.09-.85-.94.52-1.07,1.23-.85,2.08-.07,0-.15,0-.21.03-.04.02-.06.09-.08.14.08-.08.15-.15.23-.23h0ZM294.5,70.65c-.08.08-.16.16-.24.24.02-.05.04-.12.08-.14.06-.03.15-.03.22-.04.19-.99.63-1.8,1.61-2.22.07-.63.44-1,1.04-1.17,0-.39.21-.69.43-.98,1.08-1.49,2.15-2.97,3.23-4.46.21-.3.41-.61.6-.91.23-.36.09-.96-.27-1.22-.35-.26-1.04-.27-1.29,0-.81.87-1.65,1.74-2.14,2.84-.79,1.79-2.01,3.28-3.22,4.77-1.84,2.28-3.68,4.56-5.44,6.91-.65.89-1.33,1.75-2.07,2.57-1.23,1.36-2.31,2.84-3.42,4.3-1.89,2.48-3.77,4.96-5.67,7.43-.67.87-1.39,1.7-2.32,2.32-.92.61-1.66,1.44-2.31,2.33-.43.59-.86,1.19-1.3,1.77-.45.61-1.05,1.01-1.85,1.25-.5,1.21-.87,2.53-1.68,3.66-.75,1.04-1.44,2.12-2.06,3.24-.67,1.23-1.7,2.15-2.56,3.22-.79.99-1.79,1.82-2.64,2.66-.26.1-.44.24-.6.23-1.13-.13-1.91.35-2.57,1.23-1.53,2.06-3.24,3.98-4.97,5.88-2.34,2.57-4.67,5.17-7,7.76-.31.34-.61.68-.94,1-2.02,2-4.05,3.99-5.92,6.14-.24.28-.5.53-.91.54l.07-.08c-.03.18,0,.4-.1.53-.85,1.08-1.71,2.14-2.58,3.21-.05.06-.16.07-.25.1-2.03-.36-4.66-1.45-5.75-2.43.4-.49.8-.98,1.2-1.48,3-3.71,6.07-7.35,9.35-10.81.57-.6,1.09-1.24,1.64-1.86,1.93-2.21,3.88-4.4,5.79-6.63,1.55-1.81,3.06-3.66,4.56-5.51.98-1.21,1.69-2.61,2.45-3.96.14-.25,0-.72-.35-.96-.35-.23-.77-.26-1.01-.04-.13.13-.29.23-.4.37-.22.29-.42.6-.62.91-2.25,3.36-4.71,6.55-7.35,9.6-2.22,2.56-4.4,5.16-6.61,7.73-1.01,1.18-2.06,2.34-3.11,3.48-2.42,2.63-4.61,5.46-6.91,8.2-.23.28-.5.53-.78.76-.3.24-.67.31-1.04.21-.35-.09-.7-.23-1.04-.36-.33-.14-.5-.64-.33-.92.1-.16.16-.33.28-.47,2.01-2.25,3.84-4.67,6.01-6.79,1.44-1.4,2.76-2.94,4.12-4.42,2.05-2.23,4.06-4.48,6.14-6.69,1.27-1.34,2.19-2.93,3.22-4.44.09-.14.09-.35.12-.53.06-.53-.61-1.08-1.1-.9-.25.1-.54.19-.72.37-.63.66-1.31,1.3-1.81,2.05-1.46,2.23-3.13,4.29-4.85,6.32-2.37,2.8-4.81,5.54-7.31,8.21-1.88,2.01-3.82,3.96-5.53,6.12-.29.35-.59.7-1.11.92-.2-.02-.49.01-.73-.08-1.71-.67-3.5-1.07-5.26-1.58-.36-.11-.64-.32-.66-.89.47-.65.99-1.4,1.55-2.11.62-.79,1.27-1.56,1.93-2.33,1.2-1.39,2.42-2.76,3.6-4.16.23-.26.36-.63.45-.98.06-.25-.03-.54-.28-.72-.23-.16-.48-.24-.77-.15-.45.15-.85.41-1.09.8-1.01,1.54-2.36,2.79-3.53,4.2-1.12,1.33-2.21,2.69-3.31,4.04-.23.28-.47.56-.6.71-1.09.24-1.82-.16-2.46-.68-.92-.75-1.77-1.59-2.65-2.38-.14-.12-.16-.63-.03-.77.61-.68,1.24-1.34,1.85-2.03,2.05-2.34,4.09-4.7,6.14-7.05,1.03-1.17,2.08-2.32,3.11-3.48.24-.27.45-.58.67-.87.13-.17.13-.65-.05-.76-.22-.14-.48-.3-.73-.3-.47,0-.9.19-1.24.51-.46.44-.91.91-1.32,1.4-2.41,2.88-4.81,5.78-7.23,8.64-.77.91-1.62,1.75-2.45,2.6-.19.19-.43.33-.62.47-.22,0-.41.02-.57-.03-1.06-.34-1.95-.99-2.85-1.44-.18-.36-.17-.62.02-.85,3.2-3.78,6.51-7.46,10.16-10.81.94-.86,1.83-1.8,2.72-2.72,2.06-2.09,4.11-4.19,6.46-5.97.87-.66,1.6-1.5,2.35-2.3.23-.26.36-.63.47-.97.08-.25.04-.54-.2-.74-.24-.21-.8-.26-1.01-.08-.07.06-.18.08-.23.15-.79,1.16-1.94,1.92-2.97,2.83-1.78,1.58-3.45,3.29-5.17,4.94-1.12,1.08-2.24,2.16-3.36,3.24-.59.57-1.21,1.13-1.77,1.73-2.39,2.54-4.76,5.09-7.15,7.63-.75.8-1.54,1.56-2.17,2.21-.63.28-1.09.27-1.53.12-.44-.14-.86-.32-1.28-.49-.68-.28-.83-.95-.34-1.57.29-.36.59-.71.89-1.05,2.65-2.92,5.4-5.73,8.16-8.55,3.21-3.27,6.42-6.54,9.65-9.8.65-.65,1.35-1.24,2.02-1.87,1.74-1.64,3.44-3.3,4.81-5.27.16-.23.3-.46.45-.69.18-.29.12-.73-.14-1.01-.31-.34-.93-.46-1.24-.21-.42.34-.81.73-1.22,1.09-1.05.9-1.94,1.91-2.7,3.09-.54.84-1.27,1.57-1.96,2.3-2.59,2.72-5.16,5.47-7.82,8.13-3.64,3.62-7.15,7.37-10.7,11.08-.76.79-1.48,1.63-2.25,2.41-.34.34-.84.47-1.28.29-1.77-.75-3.65-1.24-5.34-2.17-.32-.17-.59-.42-.89-.63-.16-.12-.23-.58-.11-.76.19-.31.37-.64.59-.92.97-1.21,1.93-2.45,2.96-3.62,1.57-1.79,3.21-3.52,4.81-5.29.62-.68,1.25-1.35,1.83-2.06,2.19-2.71,4.65-5.18,7.17-7.59,1.26-1.2,2.46-2.46,3.46-3.9.26-.37.56-.73.55-1.23-.09-.15-.16-.33-.28-.45-.29-.3-.74-.4-.99-.25-1.85,1.18-3.75,2.3-5.47,3.68-.28.22-.48.53-.72.81.21.45.4.84.62,1.31-.2.27-.39.57-.63.84-2.48,2.82-4.94,5.66-7.47,8.44-2.28,2.51-4.49,5.08-6.69,7.67-.48.56-.98,1.09-1.52,1.59-.18.17-.49.19-.79.3-.52-.38-1.04-.75-1.54-1.15-.13-.11-.18-.3-.27-.46.04-.17.04-.38.14-.52,1.87-2.49,3.87-4.87,5.95-7.2.91-1.03,1.8-2.08,2.67-3.14.81-1,1.74-1.89,2.69-2.75,1.62-1.49,3.22-3,4.77-4.56.7-.71,1.26-1.57,1.86-2.38.1-.13.11-.35.1-.52-.02-.28-.14-.52-.4-.67-.25-.14-.52-.18-.77-.04-1.21.7-2.26,1.62-3.03,2.75-.63.92-1.37,1.71-2.12,2.51-2.59,2.72-5.16,5.46-7.55,8.36-1.8,2.19-3.77,4.25-5.67,6.37-.18.2-.42.35-.6.5-.77.08-1.24-.34-1.71-.84,0-.16-.07-.39.01-.5,1.38-2.06,2.9-4.01,4.54-5.86,2.01-2.26,3.92-4.61,5.96-6.85,2.04-2.23,4.15-4.39,6.28-6.54.9-.91,1.94-1.68,3.06-2.33.23-.13.43-.33.64-.5.16-.12.25-.55.15-.76-.12-.27-.3-.43-.59-.5-.38-.09-.74-.03-1.06.15-.89.47-1.77.99-2.47,1.73-1.77,1.85-3.75,3.5-5.31,5.57-.99,1.31-2.19,2.47-3.28,3.71-1.81,2.06-3.63,4.13-5.42,6.22-1.07,1.25-2.09,2.55-3.13,3.83-.23.29-.45.58-.68.87-.32.39-.85.48-1.22.22-.37-.27-.74-.55-1.11-.82-.74-.55-1.48-1.09-2.21-1.63-.22-.17-.41-.35-.45-.64l.07.08c-.79.04-1.4-.34-1.9-.91-.1-.12-.09-.34-.13-.53.55-.94,1.22-1.81,1.95-2.64,3.03-3.44,5.98-6.95,9.13-10.28.5-.54,1.02-1.06,1.47-1.64.96-1.24,2.09-2.28,3.34-3.24,1.16-.88,2.2-1.94,3.25-2.97.38-.38.64-.89.91-1.36.07-.12,0-.37-.09-.49-.1-.12-.31-.23-.46-.23-.26,0-.56.05-.78.17-1.45.8-2.67,1.93-3.99,2.92-.28.21-.47.55-.64.88-.29.58-.63,1.09-1.09,1.56-2.02,2.01-3.89,4.14-5.76,6.28-1.87,2.14-3.73,4.29-5.59,6.44-1.02,1.18-2.03,2.37-3.05,3.54-.3.35-.65.64-1.26.64-.23-.14-.56-.31-.85-.53-.29-.21-.54-.48-.77-.68.03-.57.26-.97.53-1.33.55-.74,1.08-1.49,1.68-2.18,2.4-2.77,4.72-5.61,7.34-8.2,1.43-1.41,2.82-2.86,4.35-4.19,1.94-1.67,3.73-3.52,5.56-5.32.32-.31.56-.71.79-1.1.07-.12.03-.35-.04-.5-.1-.25-.47-.38-.69-.31-.89.28-1.65.78-2.37,1.35-.71.57-1.44,1.13-2.3,1.82-1.17,2.23-3.1,4.07-4.89,6.03-1.54,1.69-3.11,3.36-4.67,5.04-.06.07-.13.13-.17.21-1.27,2.27-3.38,3.84-4.92,5.89-.11.15-.25.28-.39.39-.36.29-.74.54-1.08.84-.33.3-.35.86-.96,1.05-1.5-.58-2.78-1.56-3.83-2.88-.3-.38-.28-.82.09-1.24.3-.34.71-.63.89-1.03.71-1.52,1.81-2.75,2.85-4.02,2.85-3.47,5.73-6.93,8.68-10.3.61-.69,1.18-1.4,1.92-1.95.36-.28.67-.63.99-.95,1.57-1.53,3.14-3.08,4.72-4.6.53-.51,1.09-.99,1.37-1.8-.05-.27-.12-.63-.21-1.07.51-1.48,1.38-2.9,2.07-4.38.62-1.33,1.27-2.65,1.8-4.01.54-1.37,1.17-2.69,1.81-4,.73-1.5,1.66-2.85,2.8-4.06.44-.47.87-.94,1.29-1.44.85-1,1.88-1.72,3.14-2.12.35-.11.72-.21,1.01-.42,1.19-.85,2.43-1.65,3.5-2.62,1.14-1.04,2.15-2.25,2.85-3.67.2-.4.3-.88.82-1.13.07.25.17.48.2.72.08.54.09,1.09.2,1.63.04.26.22.5.34.74.15.28.69.51.94.35.22-.13.46-.34.54-.57.12-.34.12-.72.12-1.09.02-1.83.03-3.67.03-5.5,0-1.56,0-3.12.41-4.64.15-.52.18-1.09.21-1.63.11-1.74.66-3.41.82-5.14.03-.33.29-.66.5-.95.08-.12.33-.18.48-.15.13.02.28.2.33.33.05.17.03.36,0,.54-.03.37-.09.73-.14,1.09-.25,2.09-.53,4.18-.72,6.27-.11,1.18-.21,2.36.1,3.56.15.6.09,1.27.05,1.91-.1,1.37-.28,2.73-.37,4.1-.05.72-.01,1.47.07,2.19.04.34.25.68.45.98.15.23.41.37.71.32.28-.04.51-.18.62-.46.07-.17.17-.34.18-.51.1-3.39.46-6.76.27-10.16-.06-1.09.1-2.19.2-3.29.1-1.09.32-2.18.35-3.28.06-2.5.7-4.89,1.33-7.27.3-1.14.67-2.27,1.06-3.39.08-.23.35-.4.6-.67.09.33.25.6.2.81-.47,1.78-.53,3.61-.71,5.44-.18,1.91-.53,3.81-.78,5.71-.12.91-.16,1.83-.24,2.74-.06.73-.04,1.48-.19,2.19-.29,1.37-.25,2.74-.11,4.1.07.74.05,1.45,0,2.18-.08,1.18-.06,2.38-.06,3.57,0,.47.24.9.61,1.19.19.15.52.25.74.2.22-.06.44-.32.56-.54.12-.23.15-.53.15-.8-.06-4.31.06-8.62.22-12.92.05-1.27.26-2.55.5-3.8.34-1.71.71-3.41.93-5.13.07-.54.26-1.07.41-1.59.18-.62.45-1.21.58-1.83.21-1.02.18-2-.62-2.82-.17-.17-.24-.44-.35-.68.79-.86,1.64-1.54,2.61-2.09,1.35-.77,2.61-1.7,4.17-2.06.43-.1.87-.34,1.21-.63.78-.65,1.65-1.15,2.54-1.63.71-.39,1.35-.93,2.03-1.39.18-.13.35-.08.53.15-.53.83-1.35,1.45-1.96,2.25-.16.21-.27.47-.37.72-.07.18.03.34.23.43.08.04.2.07.27.04.8-.43,1.62-.83,2.17-1.6.97-1.36,2.27-2.39,3.52-3.45,1.19-1,2.43-1.95,3.65-2.92,1.08-.85,2.15-1.71,3.4-2.33.49-.24.91-.62,1.37-.9.39-.23.8-.42,1.16-.61.26.15.35.37.19.5-1.22.96-2.43,1.94-3.7,2.84-2.11,1.48-3.93,3.3-5.87,4.97-.13.12-.22.29-.31.45-.04.07-.05.17-.06.26-.03.3.11.53.31.73.17.18.54.18.75,0,.69-.61,1.34-1.25,2.06-1.82,2.02-1.58,4.06-3.15,6.35-4.33.99-.51,1.89-1.13,2.71-1.87.21-.49.41-.98.6-1.43.91-.2,1.72-.14,2.53.1.05.01.1.12.11.18,0,.09,0,.22-.06.26-1.8,1.26-3.29,2.91-5.11,4.16-.52.36-.97.84-1.41,1.3-.25.27-.33.63-.25,1.02.08.34.54.68.81.54.33-.16.7-.29.96-.53,1.44-1.29,2.99-2.42,4.55-3.55,1.06-.76,1.95-1.65,2.37-2.95,1.15-.21,2.25-.19,3.32,0,1.35.25,2.71.46,4.07.66.38.06.63.32.8.86-.16.11-.36.3-.6.43-.48.26-.99.48-1.47.75-.32.18-.61.39-.91.61-.53.41-.69,1.09-.35,1.43.46.44,1.05.54,1.49.24.6-.41,1.17-.89,1.81-1.23.85-.45,1.43-1.11,1.86-1.88.38-.25.74-.29,1.09-.16.69.23,1.37.5,2.01.73,0,.27.06.48-.01.6-.23.39-.52.74-.77,1.12-.12.18.08.62.27.7.84.34,1.63.22,2.29-.38.39-.35.67-.83,1.01-1.26,1.56.07,2.91.56,4.08,1.45.51-.06.96-.12,1.49-.19,1.56.56,3.21,1.12,4.83,1.75.85.32,1.71.67,2.4,1.3.35.32.49.77.31,1.22-.03.08-.08.17-.12.24-.3.5-.41,1.03-.18,1.57.27.61.74,1.07,1.36,1.28.51.18,1.08.2,1.6.36.22.07.38.35.56.53-.35.49-1.07.38-1.27.99-.14.45-.2.89-.03,1.34.15.38.48.53.91.71.36-.1.79-.25,1.23-.36.74-.19,1.23.13,1.55.79-.05.28-.07.56-.15.82-.12.42.12.69.35.97.05.07.14.13.22.15,1.71.45,2.76,1.73,3.85,2.98.17.19.15.49-.23.63-.45-.24-.92-.51-1.35-.74-.58.12-.86.47-.86.96,0,1.3.7,1.81,1.59,1.82,1.1,0,2.2-.05,3.3-.08.89.46.88.47,1.32,1.27-.14.09-.27.23-.42.27-.72.16-1.44.29-2.16.42-.47.09-.9.23-1.01.77-.15.68.04.94.97,1.39,1.24-.27,2.5-.55,3.75-.82.73-.16,1.24.16,1.61.76.1.15.16.33.25.54-.19.16-.37.38-.59.5-.73.37-1.51.67-2.23,1.06-.19.11-.31.44-.36.69-.06.3.4.73.71.71.54-.03,1.12,0,1.62-.17.8-.26,1.59-.44,2.42-.39.26.02.52.14.77.23.07.02.17.12.17.19,0,.17,0,.42-.11.48-.46.29-.95.53-1.44.77-.32.16-.67.27-.99.44-.36.19-.53.79-.36,1.21.15.39.47.56.83.61.27.03.56,0,.81-.08.69-.24,1.37-.52,1.94-.74.77.05,1.4.08,2.04.13.59.06,1.01.37,1.3.95-.14.19-.26.47-.48.59-1.06.59-1.96,1.35-2.85,2.15-.19.18-.3.45-.42.69-.13.26.05.8.33.97.24.15.52.22.77.07.39-.23.79-.46,1.13-.76.77-.68,1.63-1.2,2.54-1.64.34-.16.71-.15,1.02.12-.08.16-.12.4-.24.46-1.7.77-3.03,2.04-4.41,3.24-.13.12-.29.26-.34.42-.06.25-.13.58-.02.77.12.19.49.37.69.32.43-.1.84-.34,1.24-.55.57-.29.97-.86,1.63-.99.15-.03.38.03.49.13.1.1.19.36.12.47-.22.39-.51.75-.77,1.12-.37.52-.25.8.51,1.21.49-.23.99-.46,1.43-.67.93.56.93.55,1.51,1.9.03.4-.19.71-.43.98-1,1.09-1.94,2.21-2.74,3.44-.24.38-.44.8-.61,1.22-.06.15.02.35.07.53.06.2.47.27.73.17.45-.17.79-.47,1.06-.83.56-.73,1.06-1.49,1.65-2.2.28-.35.67-.61,1.02-.9.16-.14.59-.02.71.19.53.77.88,1.6.83,2.56-.02.46,0,.92-.02,1.37-.06,1.28-.14,2.56-.22,3.99-.26.32-.59.75-.94,1.16-1.23,1.37-2.42,2.76-3.7,4.08-2.11,2.18-3.97,4.56-5.76,7-2.12,2.87-4.12,5.84-6.17,8.76-.32.46-.67.87-1.11,1.21-.2.16-.33.42-.52.69.19.41.37.83.56,1.23-.09.16-.14.38-.28.46-1.64,1.03-3.41,1.75-5.25,2.34-.14.05-.39-.04-.48-.15-.06-.08,0-.37.11-.46,1.36-1.25,2.38-2.77,3.49-4.22,2.9-3.79,5.94-7.46,9.07-11.05.6-.69,1.18-1.4,1.77-2.09,1.5-1.74,2.92-3.53,4.57-5.13,1.39-1.35,2.46-2.95,3.38-4.65.12-.24.22-.5.31-.76.19-.5-.08-1.11-.6-1.38-.34-.18-.94-.03-1.24.3-.18.2-.38.41-.53.63-.26.38-.5.77-.73,1.17-1.84,3.19-4.17,6.02-6.55,8.81-.17.2-.42.32-.64.48-.29.89-.35.97-1.19,1.02-.04.25-.01.55-.14.74-.41.57-.84,1.13-1.49,1.46h0ZM286.81,80.05c-.46.15-.68.53-.91.9-.12.18-.08.35.09.45.04.03.14,0,.19-.05.44-.35.7-.78.57-1.37.08,0,.16,0,.23-.02.04-.02.06-.09.09-.14-.09.08-.17.16-.26.23h0ZM301.66,70.11c.67-.36,1.08-.88,1.06-1.67q.46-.07.57-.54c.25-.07.53-.09.77-.22.39-.22.74-.5,1.09-.75.21.14.4.22.48.35.08.14.12.37.06.5-.17.32-.39.62-.61.91-1.61,2.12-3.22,4.22-4.37,6.64-.59,1.24-1.26,2.44-2.17,3.49-.23.26-.19.68.2,1,.47-.22,1-.4,1.45-.7,2.05-1.39,4.35-2.33,6.34-3.82,1.91-.8,3.35-2.21,4.71-3.7.43-.48.77-1.02,1.21-1.48.51-.52,1.08-.98,1.59-1.49.07-.07.02-.38-.06-.46-.11-.09-.35-.11-.49-.05-.24.12-.46.3-.65.49-.85.83-1.69,1.68-2.53,2.53-.4.4-.84.7-1.37.89-.29.1-.52.03-.74-.17-.22-.22-.29-.53-.13-.74.33-.43.67-.86,1.03-1.27,1.29-1.42,2.72-2.72,3.78-4.27,0-.16,0-.26-.03-.33-.24-.45-.56-.55-.83-.28-1.39,1.35-2.48,2.94-3.6,4.5-1.44,2.02-3.06,3.88-4.63,5.79-.23.27-.54.5-.84.69-.12.07-.37.05-.49-.03-.13-.09-.22-.29-.25-.46-.1-.38.07-.72.29-1.01,1.41-1.81,2.67-3.72,4.03-5.57,1.36-1.84,2.6-3.78,4.25-5.39.25-.25.43-.58.63-.89.25-.39.07-.98-.42-1.47-.3-.3-.76-.21-1.18.24-.24.27-.48.55-.74.82-1.25,1.34-2.48,2.69-4.04,3.71-.6.39-1.07.99-1.57,1.53-.11.11-.09.34-.13.51-.38-.02-.53.2-.56.55-.72.32-1.13.85-1.07,1.68-.4-.06-.54.18-.59.52-.22.14-.5.24-.65.44-2.6,3.52-5.19,7.05-7.79,10.58-.11.15-.17.32-.23.48-.03.08-.04.23,0,.25.15.08.35.21.47.17.67-.29,1.31-.63,1.97-.93.71-.32,1.2-.86,1.51-1.53,1.34-2.91,3.01-5.63,4.48-8.47.08-.16.17-.33.2-.5.04-.17,0-.36,0-.54.41.06.52-.21.59-.53h0ZM41.4,127.96c-.08,0-.16,0-.23.03-.04.02-.06.09-.09.14.14.06.22-.01.27-.23.06-.03.14-.05.19-.09.03-.02.04-.08.06-.12-.06.09-.12.18-.19.27h0ZM251.05,125.19c-.07.03-.16.05-.23.09-.03.03-.03.1-.04.16.15,0,.22-.1.21-.32.08-.02.16-.03.23-.06.04-.02.06-.09.08-.14-.08.08-.16.17-.24.26h0ZM258.78,120.81q-.47.01-.6.48c-.74.11-.97.72-1.28,1.26-.02.04.03.16.08.2.06.04.18.06.23.03.54-.34,1.01-.74.98-1.47.39.02.5-.22.52-.56.23-.13.27-.2.12-.17-.03,0-.04.15-.06.23h0ZM269.72,108.6c.07-.03.16-.03.22-.08.04-.03.04-.1.05-.15-.07.1-.14.19-.21.29-.26.08-.32.17-.18.16.04,0,.08-.14.11-.22h0ZM265.31,110.24c-.03.08-.04.24-.08.25-.15.02-.11-.06.14-.19.04-.04.08-.08.12-.13-.06.02-.13.05-.19.07h0ZM283.51,84.48c-.18.18-.37.36-.56.54-.74.68-1.36,1.46-1.92,2.3.15.11.29.3.38.27.34-.09.67-.25,1-.4.37-.17.53-.5.55-.88.02-.45-.04-.91-.06-1.36.19-.18.38-.35.56-.53l.15-.11-.1.15h0ZM323.72,64.68c-.46.15-.73.53-1.01.89-.61.8-1.21,1.61-1.83,2.41-.16.21-.32.47-.53.61-1.21.78-1.89,1.99-2.56,3.18-.72,1.28-1.61,2.44-2.71,3.68-.74.37-1.65.79-2.54,1.26-.82.42-1.62.86-2.41,1.32-1.35.79-2.66,1.6-3.89,2.58-2.11,1.66-4.48,2.83-7.19,3.23-1.08.16-2.16.38-3.18.56-.23.11-.4.17-.55.27-2.03,1.41-4.19,2.6-6.45,3.61-1.17.53-2.33,1.09-3.37,2.19-.28.45-.63,1.08-1.06,1.67-.67.91-1.19,1.83-1.07,3.02.04.38-.33.64-.69.77-.42.15-.87.24-1.39.38-.15.41-.35.83-.44,1.26-.32,1.62-.83,3.2-1.45,4.72-.66,1.6-1.52,3.13-2.34,4.66-1.3,2.42-2.56,4.85-3.64,7.37-1.26,2.95-2.87,5.72-4.97,8.18-1.91,2.24-3.51,4.7-4.93,7.27-.49.88-1,1.75-1.53,2.61-1.29,2.11-2.59,4.22-3.86,6.33-.24.39-.38.83-.59,1.24-.12.24-.27.48-.44.69-.29.38-.69.62-1.18.53-.39-.07-.64-.33-.71-.77.51-2.02.79-2.56,1.73-3.9.78-1.13,1.57-2.27,2.18-3.48.66-1.32,1.4-2.57,2.2-3.8,1-1.54,1.93-3.12,2.91-4.66.74-1.16,1.55-2.27,2.51-3.26,1.81-1.86,3.12-4.06,4.09-6.46.97-2.39,2.29-4.58,3.48-6.85.93-1.79,1.96-3.52,2.68-5.4.03-.07-.01-.22-.05-.23-.15-.03-.37-.1-.47-.03-.97.72-1.76,1.6-2.24,2.73-.36.84-.77,1.66-1.14,2.5-.55,1.27-1.23,2.43-2.25,3.41-1.9,1.85-3.75,3.77-5.65,5.61-1.71,1.65-3.13,3.52-4.39,5.52.15.12.29.06.49-.01.92-.35,1.4-.02,1.33.92-.03.35-.13.71-.24,1.05-.05.17-.19.31-.3.46-1.43,1.8-2.54,3.82-3.66,5.8-1.31,2.31-2.74,4.55-4.14,6.8-.72,1.17-1.37,2.38-2.07,3.56-.47.78-.98,1.54-1.49,2.31-.15.22-.34.43-.52.63-.62.7-1.48.66-2.14-.08-.06-.07-.12-.15-.16-.22-.17-.28-.14-.84.05-1.04.06-.07.1-.16.18-.21,1.32-.8,2.01-2.13,2.7-3.4,2-3.72,4.43-7.17,6.56-10.79.46-.79.86-1.61,1.27-2.42.09-.18,0-.35-.22-.49-.2.16-.44.3-.61.51-1.17,1.4-2.33,2.83-3.49,4.24-.35.42-.7.85-1.07,1.25-1.78,1.86-3.3,3.92-4.72,6.06-.45.68-.97,1.33-1.49,1.96-1.11,1.33-2.37,2.55-3.3,4.04-.14.22-.37.4-.56.59-.28.28-.97.31-1.27.06-.35-.3-.54-.87-.41-1.24.35-.96.92-1.79,1.57-2.56.59-.7,1.25-1.34,1.81-2.06,1.8-2.31,3.58-4.64,5.34-6.98.15-.2.12-.52.17-.77.37,0,.55-.19.56-.55.35-.01.56-.17.54-.55.27-.06.34-.12.19-.16-.02,0-.08.14-.13.22-.33.04-.5.23-.54.55-.32.04-.5.23-.56.54-1.26.58-2.3,1.47-3.33,2.36-.36.31-.55.73-.71,1.16-.2.53-.52.99-1.04,1.23-1.39.64-2.32,1.76-3.2,2.94-.49.66-.98,1.33-1.44,2.01-1.28,1.9-2.75,3.66-4.13,5.48-.28.37-.63.67-1.1.77-.28.07-.54.03-.77-.13-.26-.19-.28-.47-.26-.74.04-.47.28-.86.58-1.22,1.3-1.55,2.35-3.27,3.59-4.86.13-.17.07-.37-.1-.48-.05-.04-.17-.01-.24.02-.7.26-1.27.72-1.8,1.23-.87.83-1.88,1.43-2.96,1.97-1.21.61-2.47,1.19-3.41,2.26-.46.52-1.15.51-1.8.32-.7-.2-1.17-1.02-1.02-1.73.08-.38.29-.67.59-.89,1.2-.85,2.45-1.61,3.76-2.28.57-.3,1.17-.56,1.56-1.09.08-.11.08-.36.02-.5-.07-.15-.23-.29-.39-.37-.91-.43-1.83-.84-2.97-1.36-1.02-.23-2.29-.2-3.52-.06-.57-.06-.78-.52-1.14-.78-.82-.59-1.71-1.05-2.72-1.26-.53-.11-1.04-.33-1.57-.45-1.26-.29-2.29-1.18-3.58-1.35-1.38-.17-2.64-.75-3.99-1.01-1.25-.24-2.49-.57-3.76-.86-.96-.82-2-1.59-2.88-2.5-.84-.87-1.98-1.31-2.8-2.19-.24-.25-.61-.4-.95-.53-1.35-.56-2.65-1.24-4.16-1.37-.52-.05-1.08-.3-1.5-.62-1.4-1.08-3.06-1.63-4.6-2.42-1.79-.92-3.66-1.69-5.45-2.62-1.54-.8-3.08-1.61-4.48-2.67-1.17-.88-2.44-1.63-3.63-2.48-1.49-1.07-2.95-2.17-4.4-3.29-.44-.34-.84-.77-1.37-.88-1.74-.36-3.16-1.44-4.78-2.05-1.62-.61-3.16-1.44-4.72-2.21-1.13-.56-1.13-.58-2.01.44-.25.29-.54.48-.91.56-.46-.16-.74-.46-.92-.93-.38-.98-.27-1.99-.26-2.89-.32-.88-.59-1.65-.9-2.42-.4-.97-.48-1.94-.2-2.96.1-.34.16-.74.07-1.07-.39-1.34.11-2.8-.48-4.07-.51-1.09-.74-2.26-1.23-3.34-.1-.21-.34-.36-.59-.62-.08.36-.21.64-.18.88.18,1.27.5,2.53.58,3.8.08,1.27-.1,2.56-.07,3.84.04,1.46.2,2.92.26,4.39.02.44-.12.9-.2,1.34-.04.21-.43.47-.64.43-.17-.04-.36-.1-.48-.21-.35-.32-.52-.75-.6-1.21-.41-2.17-.57-4.36-.58-6.56-.02-1.74.04-3.48-.41-5.19-.16-.61-.09-1.27-.11-1.91-.03-.91-.04-1.83-.05-2.63-.86-1.35-1.61-2.6-2.44-3.8-.76-1.1-1.32-2.34-2.24-3.67-.15,1.39-.02,2.48.18,3.56.1.54.18,1.08.29,1.62.3,1.54.38,3.08.37,4.65-.02,2.38.02,4.76.58,7.11.11.44.03.91.08,1.36.1,1,.16,2.02.36,3,.38,1.83.19,3.65.11,5.47-.02.35-.22.69-.36,1.03-.24.55-.96.59-1.33.07-.15-.22-.28-.47-.34-.73-.07-.26-.07-.54-.05-.82.15-2.76-.09-5.48-.43-8.22-.38-3-.83-5.99-.67-9.03.07-1.27-.02-2.57-.41-3.81-.05-.17-.09-.35-.1-.54-.03-2.02-.46-4-.62-6.01-.1-1.19-.15-2.37-.42-3.54-.12-.53-.12-1.1-.09-1.64.1-1.77-.18-3.45-.68-5.15-.51-1.75-.84-3.56-1.27-5.41-.4-.73-1.64-.86-1.63-2.02-.07-.67.43-1.15.66-1.73.18-.46.1-.93-.21-1.29-.53-.63-1.06-1.28-1.81-1.67-.2-.11-.5-.02-.83-.02-.07.38-.17.73-.18,1.09-.09,2.76.14,5.48.86,8.16.43,1.59.87,3.18.83,4.86.49,2.42.52,4.92,1.21,7.31.15.52.22,1.08.24,1.62.06,1.56.11,3.11.13,4.67.01.92.04,1.82.19,2.74.13.8.1,1.64.08,2.46-.01.36-.24.68-.51.94-.24.23-.76.34-1.01.14-.2-.16-.35-.4-.47-.62-.08-.15-.08-.36-.08-.54-.03-2.01.06-4.04-.12-6.04-.18-2.09-.26-4.19-.76-6.26-.43-1.77-.78-3.58-.8-5.43,0-.73-.16-1.45-.31-2.17-.26-1.25-.47-2.53-.88-3.74-.39-1.16-.56-2.32-.49-3.51.06-1.2.07-2.38-.28-3.54-.13-.43-.14-.91-.19-1.36-.08-.65.05-1.25.35-1.86.31-.62.12-.93-.59-1.25-.16-.07-.35-.08-.59-.12-.09.22-.27.45-.27.69,0,1.01.06,2.02.05,3.02,0,.36-.11.72-.2,1.07-.12.43-.74.82-1.06.69-.36-.14-.62-.39-.74-.75-.09-.26-.15-.53-.14-.8.08-1.85-.38-3.64-.53-5.47-.03-.47-.35-.83-.75-1.09-.39-.25-.81-.45-1.28-.44-.16,0-.32.14-.48.22-.27.32-.2.69-.16,1.05.11,1,.27,2,.36,3,.05.55-.01,1.09-.24,1.62-.19.44-.63.77-1.05.74-.39-.03-.86-.49-.9-.9-.04-.36-.07-.73-.08-1.09-.02-.46,0-.91,0-1.22-.32-.94-.56-1.72-.84-2.5-.28-.75-.59-1.5-.89-2.26-.61.55-.85,1.25-1.22,1.82-.06,1.44-.13,2.81-.15,4.19,0,.63,0,1.3.17,1.91.53,1.99.24,4.01.26,6.02,0,.64-.5,1.01-1.3,1.07-.53-.42-.79-1-.83-1.66-.05-.83-.06-1.65-.09-2.48-.03-.55.01-1.12-.12-1.64-.56-2.36-.21-4.75-.36-7.13-.02-.26.04-.56.16-.79.31-.61.31-1.22.06-1.79.43-.45.79-.83,1.14-1.19-.28-.51-.69-.71-1.16-.77-.38-.05-.67.07-.86.48-.14.33-.39.33-.58.1-.24-.28-.45-.58-.69-.85-.18-.21-.62-.19-.71.02-.18.42-.42.84-.48,1.27-.1.81-.21,1.66-.08,2.46.26,1.66.07,3.29-.11,4.92-.15,1.37-.11,2.75-.1,4.12,0,.64.09,1.3.28,1.9.62,1.94.83,3.93.8,5.96,0,.83.04,1.65.03,2.47,0,.57-.25,1.06-.64,1.48-.14.15-.59.33-.74.23-.22-.15-.51-.31-.6-.53-.15-.42-.24-.89-.24-1.33-.01-1.38,0-2.75.06-4.12.04-.94-.09-1.82-.39-2.7-.15-.43-.21-.89-.38-1.32-.31-.79-.41-1.59-.37-2.43.07-1.64,0-3.3.3-4.93.09-.54.13-1.1.1-1.64-.1-1.84.05-3.66.16-5.49.04-.63-.03-1.27-.05-1.72-.32-.73-.92-.86-1.33-1.2-.34-.29-.7-.55-1.03-.81-.22.15-.47.23-.49.36-.47,2.44-.57,4.9-.16,7.37.13.81.21,1.63.31,2.45.08.64.1,1.29.24,1.91.21.9.24,1.81.37,2.71.29,2.09.39,4.17.07,6.27-.04.27-.03.55,0,.83.16,2.83-.06,5.68.25,8.51.05.45-.01.91-.06,1.37-.15,1.55-.21,3.11-.19,4.67.03,1.56.03,3.12-.16,4.67-.09.72-.03,1.46-.04,2.2,0,.74.12,1.46.39,2.15.45,1.1.88,2.21,1.37,3.29.38.85.72,1.7.72,2.63,0,.66.16,1.28.4,1.87.77,1.87,1.08,3.87,1.73,5.78.41,1.21.87,2.4,1.33,3.6.18.45.83.52,1.13.14.17-.21.33-.44.48-.67.1-.15.2-.31.31-.45.19-.24.69-.35,1-.23.43.15.72.65.6,1.1-.09.35-.17.72-.35,1.03-.86,1.51-1.78,3-2.96,4.3-.56.62-1.03,1.28-1.46,1.99-.38.62-.8,1.23-1.25,1.8-2.07,2.57-3.98,5.26-6.13,7.78-.71.83-1.3,1.76-1.95,2.65-.25.54-.12,1.07.01,1.68.24-.1.49-.18.72-.3.16-.08.31-.19.46-.29.4.06.64.31.74.69.17.65.09,1.27-.34,1.82-.62.79-1.21,1.61-1.87,2.37-1.02,1.18-1.91,2.46-2.77,3.76-.32.47-1.09.36-1.34-.19-.08-.16-.1-.35-.14-.52-.05-.18-.09-.36-.12-.53.59-.19.53-.68.53-1.14.17-.04.4-.03.49-.13,1.15-1.39,2.22-2.85,3.12-4.4-.19-.21-.39-.26-.53-.1-.85.95-1.69,1.91-2.52,2.89-.44.51-.58,1.13-.5,1.79-.43.26-.54.67-.54,1.13-.18-.01-.36-.02-.55-.03-.78-.06-1.23-.56-1.09-1.2.06-.27.12-.54.21-.79.48-1.3,1.15-2.5,2-3.59.56-.73,1.14-1.41,1.36-2.34.1-.41.48-.76.77-1.11,1.36-1.62,2.74-3.21,4.09-4.82.29-.35.52-.74.79-1.15-.18-.26-.3-.51-.49-.66-.46-.38-.67-.86-.7-1.44-.07-1.27-.13-2.55-.21-4,.15-.35.33-.87.62-1.34.11-.17.48-.31.7-.27.23.04.47.28.59.5.13.22.17.52.18.79.06,1.01.09,2.01.15,3.02.01.27.06.55.14.8.06.16.19.34.33.4.12.05.34,0,.47-.09.15-.09.27-.24.39-.38,1.69-2.18,3.16-4.49,4.51-6.81-.09-.25-.1-.48-.22-.57-.52-.4-.95-.86-1.15-1.5-.45-1.39-1.15-2.69-1.46-4.14-.27-1.25-.54-2.52-1.04-3.7-.5-1.2-.71-2.46-1.12-3.67-.02-.07-.14-.12-.22-.16-.13-.06-.31.04-.32.27-.03.72-.05,1.46.01,2.19.1,1.28.15,2.56.13,3.84-.02,1-.05,2.01.22,3.01.13.46-.05.9-.26,1.31-.18.36-.47.54-.89.54-.85-.26-.78-1.13-1.09-1.76-.17.04-.39.02-.48.12-1.74,2-3.52,3.98-5.19,6.04-2.08,2.56-4.08,5.18-6.11,7.78-.23.29-.5.55-.88.62-.15.03-.34-.08-.5-.15-.19-.09-.27-.26-.22-.46.04-.18.06-.37.15-.52.34-.54.67-1.09,1.06-1.61,1.54-2.05,3.1-4.09,4.65-6.14,1.32-1.76,2.63-3.53,3.94-5.29.28-.36.52-.76.79-1.12.8-1.07.96-1.19,2.49-2.06.27-.4.45-.84.34-1.3-.43-1.81-.29-3.64-.27-5.47.02-2.02-.12-4.03-.18-6.05-.02-.82-.04-1.65-.03-2.47.01-1.01-.03-2-.18-3.01-.16-1.07-.16-2.2-.04-3.28.16-1.37.15-2.75.21-4.11.09-1.83.03-3.67.56-5.46.08-.26.1-.54.1-.82-.06-2.38.14-4.77-.27-7.14-.07-.45-.1-.91-.08-1.36.06-1.27.15-2.55.23-3.82.01-.18.06-.38,0-.55-.45-1.41-.36-2.9-.65-4.34-.18-.9-.36-1.81-.35-2.72.01-1.4-.48-2.7-.61-4.07-.08-.79-.48-1.54-.77-2.44-.08.35-.19.58-.19.81,0,.92.06,1.84.03,2.75-.08,2.93-.01,5.86.03,8.79.01,1.37-.09,2.75-.14,4.12-.02.36,0,.74-.09,1.09-.47,1.98-.39,4.01-.45,6.02-.03.91.06,1.85.29,2.73.37,1.45.34,2.91.32,4.37-.03,1.47-.35,2.9-.53,4.35-.02.17-.41.45-.62.48-.33.05-.84-.22-.91-.47-.09-.36-.2-.71-.19-1.07.01-1.47.05-2.93.11-4.4.06-1.48-.02-2.94-.3-4.38-.25-1.28-.26-2.56-.03-3.83.32-1.73.37-3.46.3-5.2-.05-1.28-.04-2.56.24-3.83.14-.62.19-1.29.11-1.91-.23-1.83-.19-3.66-.22-5.49-.02-1.38,0-2.75-.17-4.12-.11-1-.08-2.01-.11-3.01-.21-.34-.47-.6-.89-.41-.42.18-.86.36-1.2.64-.93.76-1.95,1.35-3.04,1.86-.58.27-1.11.65-1.69.93-.94.46-1.64,1.11-2.01,2.13-.21.57-.72.72-1.35.69-1.07-.05-1.53.29-1.89,1.21-.85,2.15-1.29,4.39-1.44,6.69-.08,1.19-.2,2.36-.46,3.54-.28,1.26-.35,2.55-.23,3.83.14,1.52-.38,2.89-.83,4.27-.08.24-.32.44-.51.63-.22.22-.8.13-.97-.14-.14-.23-.33-.49-.34-.73,0-.82.04-1.64.1-2.46.05-.54.24-1.08.23-1.62-.05-1.75.1-3.48.49-5.19.08-.35.1-.73.13-1.09.11-1.56.24-3.1.52-4.64.06-.34-.03-.72-.06-1.07,0-.05-.1-.13-.16-.14-.09,0-.21.02-.26.07-.19.19-.39.39-.52.62-.54.96-.97,1.97-1.21,3.05-.44,1.96-.99,3.91-1.35,5.89-.27,1.53-.32,3.09-.46,4.64.26.83,0,1.63-.1,2.45-.08.63-.1,1.28-.14,1.92-.1,1.64-.04,3.3-.49,4.91-.02.09-.05.18-.04.27.1,1.86-.47,3.63-.63,5.45-.03.37-.11.73-.21,1.07-.08.26-.25.49-.4.72-.17.28-.73.32-.97.11-.36-.32-.58-.72-.62-1.19-.03-.36-.02-.73.04-1.09.26-1.63.58-3.25.81-4.88.14-.99.14-2.01.24-3.01.27-2.64.57-5.28.52-7.94,0-.74.06-1.46.25-2.18.03-.09.06-.17.07-.26.23-2.85,1.02-5.58,1.67-8.34.01-.06-.09-.16-.16-.2-.07-.03-.18-.05-.25-.02-.6.26-1.09.71-1.37,1.28-.41.81-.73,1.65-.87,2.58-.53,3.44-1.22,6.85-2.02,10.23-.47,1.97-.69,3.97-.63,6,.02.73.04,1.48-.1,2.19-.17.82-.26,1.61-.07,2.44.07.33-.08.71-.12,1.07-.03.27-.15.58-.06.81.47,1.25-.04,2.55.22,3.8.05.26.08.57,0,.82-.32,1.17-.28,2.37-.34,3.55-.16,3.12-.49,6.21-1.01,9.28-.23,1.36-.19,2.74.15,4.1.38,1.51.72,3.03,1.08,4.54.19.8.39,1.59.55,2.27-.06.83-.48,1.33-.9,1.81-.16.18-.48.22-.69.31-.55-.24-1.05-.45-1.6-.69-.56.25-1.14.5-1.69.74-.56-.19-1.07-.36-1.54-.52-.33.2-.36.49-.25.74.67,1.6,2.38,2.29,3.83,1.54.57-.29,1.1-.65,1.65-1,.48-.3,1.01-.39,1.58-.36.45.01.89.35,1.02.78.12.39-.12,1-.49,1.18-1.08.5-2.16.99-3.24,1.49-.33.16-.65.33-1.04.52-.15.29-.36.6-.46.95-.77,2.73-1.53,5.47-2.26,8.21-.18.7-.18,1.45-.33,2.17-.12.53-.3,1.06-.51,1.56-.27.66-1.09.7-1.56.11-.3-.37-.5-.8-.38-1.27.48-1.86.81-3.75,1.34-5.6.6-2.1,1.08-4.25,1.6-6.33-.98-.97-1.29-1.17-3.04-2.05-1.32.62-2.14,1.89-3.11,2.52-.43.89.17,1.32.14,1.86,0,.49-.23.89-.49,1.26-.78,1.13-1.48,2.32-2.45,3.31-.77.79-1.36,1.73-1.93,2.66-.38.62-.86,1.18-1.31,1.75-.12.15-.62.11-.75-.07-.2-.3-.37-.61-.53-.87.6-1.66,1.41-3.08,2.39-4.42.08-.11.01-.33.01-.5-.07-.02-.16-.09-.2-.07-1.72.93-3.17,2.17-4.31,3.76-.26.37-.47.84-.83,1.08-1.08.71-1.92,1.68-2.86,2.59-.39-.03-.75-.09-1.11-.08-.45,0-.92.02-1.35.12-.53.13-1.03.38-1.56.53-1.29.39-2.22,1.15-2.96,2.3-.73,1.15-1.68,2.17-2.5,3.27-.39.51-.73,1.05-1.06,1.6-1.95,3.21-3.94,6.4-6.05,9.51-.36.53-.58,1.14-.91,1.68-.13.23-.37.4-.58.57-.18.15-.57.12-.76-.03-.49-.4-.69-.98-.5-1.45.1-.25.19-.53.33-.75,1.1-1.69,2.23-3.36,3.33-5.05.6-.92,1.12-1.89,1.74-2.8.87-1.29,1.8-2.54,2.7-3.81.43-.6.84-1.2,1.25-1.8.13-.19.07-.35-.16-.43-.08-.03-.2-.01-.27.03-.23.14-.49.27-.66.47-1.67,1.95-3.14,4.05-4.65,6.13-.21.3-.35.64-.52.96-.78,1.56-1.72,3.03-2.67,4.48-.92,1.4-2.08,2.56-3.23,3.74-.19.19-.45.32-.68.46-.43.26-1,.08-1.4-.45-.05-.07-.07-.16-.14-.35.14-.25.23-.66.49-.86,1.25-.97,2.11-2.29,3.16-3.44.73-.8,1.27-1.8,1.76-2.77.9-1.83,1.97-3.51,3.22-5.1.17-.21.26-.48.37-.73.03-.07.03-.21,0-.23-.15-.09-.31-.18-.48-.18-.48,0-.88.24-1.23.55-.34.3-.62.67-.91,1.03-1.57,1.91-3.13,3.84-4.69,5.75-.76.92-1.54,1.82-2.49,2.56-.51.4-.92.88-1.29,1.42-.62.92-1.47,1.61-2.39,2.23-.53.36-1.27.11-1.6-.57-.13-.25-.14-.53,0-.78.09-.16.18-.32.31-.45,1.86-1.9,3.74-3.78,5.6-5.68.38-.38.71-.82,1.03-1.28.14-.2.15-.47.23-.72-.23-.02-.42-.09-.56-.04-1.12.38-2.24.78-3.35,1.2-.62.23-1.05.71-1.45,1.23-1.86,2.38-3.9,4.62-5.66,7.1-.27.38-.53.75-.97.94-.25.11-.52.14-.78-.01-.31-.19-.47-.67-.3-.95.18-.31.35-.64.58-.92.75-.92,1.44-1.88,2.01-2.91-.14-.18-.32-.22-.48-.07-.67.62-1.32,1.27-1.98,1.91-.4.38-.78.78-1.19,1.14-.2.17-.46.29-.69.44-.28.16-.8.05-.99-.23-.2-.31-.36-.63-.56-1-.24.1-.5.16-.71.29-.84.55-1.66,1.14-2.51,1.69-.64.4-1.35.51-2.14.34-.25-.46-.49-.92-.77-1.45-.55.26-1.09.42-1.52.74-.74.55-1.39,1.19-2.08,1.8-.49.42-.97.84-1.47,1.24-.29.23-.63.36-1.01.17-.29-.14-.38-.52-.25-.96.08-.26.19-.5.27-.7-.17-.64-.52-1.03-1.21-1.23-.56.3-1.19.66-1.83.99-.57.29-1.15.56-1.74.81-.67.29-1.35.57-2.04.82-.25.09-.54.06-.81.07-.39,0-.88-.44-.96-.85-.11-.64.17-1.33.73-1.66.71-.42,1.41-.85,2.15-1.22,2.22-1.09,4.43-2.19,6.68-3.22,2.33-1.07,4.66-2.12,7.21-2.56,2.48-.93,5.02-1.74,7.25-3.25,1.6-1.08,3.36-1.87,5.1-2.68,1.5-.7,2.82-1.72,4.4-2.25.33-.12.62-.39.89-.64,1.62-1.52,3.54-2.62,5.42-3.72,2.06-1.21,4.14-2.36,5.98-3.89.86-.72,1.84-1.23,2.87-1.59.71-.25,1.33-.58,1.93-1.01.59-.43,1.19-.86,1.79-1.28.75-.53,1.54-.94,2.48-1.12,1.17-.24,2.29-.63,3.27-1.36.36-.27.79-.49,1.21-.65,2.07-.77,3.92-1.98,5.9-2.93.85-.4,1.56-.94,2.24-1.55,1.67-1.5,2.95-3.25,3.48-5.47.49-2.05,1.03-4.07,2.08-5.94.35-.62.47-1.38.68-2.08.33-1.06.8-2.04,1.45-2.95.58-.82,1.13-1.67,1.77-2.61.56-2.75,1.01-5.64,1.3-8.56.19-2.01.5-4,.75-6,.08-.63.15-1.27.17-1.91.04-.91.05-1.83.07-2.75.02-1.11.12-2.2.53-3.24.37-.95.56-1.94.56-2.95,0-1.02.17-2,.47-2.97.47-1.5.67-3.04.66-4.61,0-.46.01-.92.04-1.37.06-1.24.49-2.35,1.36-3.23,2.2-2.22,4.53-4.27,7.48-5.49,1.18-.49,2.28-1.17,3.39-1.79,1.36-.76,2.73-1.5,4.04-2.34,1.78-1.13,3.51-2.32,5.35-3.36,1.93-1.08,3.69-2.42,5.14-4.1.71-.82,1.55-1.25,2.58-1.41.81-.12,1.44.16,1.86.87.14.24.25.49.44.86.36.23.8.56,1.27.83,1.68.94,3.37,1.86,5.06,2.78.96.53,1.91,1.1,2.89,1.59,1.14.58,2.29,1.15,3.48,1.63,1.03.42,2.02.88,2.93,1.49.77.52,1.59.89,2.48,1.15.7.21,1.4.45,2.07.74,1.67.73,3.38,1.41,4.75,2.71.46.43,1,.8,1.55,1.13,1.19.69,2.29,1.52,3.39,2.34.8.6,1.7,1.08,2.7,1.71.8,1.96,1.72,4.05,2.09,6.33.1.63.26,1.26.27,1.9.06,2.34.75,4.51,1.77,6.58.41.83.73,1.69.88,2.59.18,1.11.57,2.11,1.11,3.08.54.96,1.03,1.94,1.58,2.89.12.2.42.3.59.42.73-.09,1.3-.4,1.85-.71,1.22-.69,2.54-1.05,3.89-1.3.45-.09.91-.14,1.35-.24,1.69-.41,3.38-.79,5.03-1.36,1.55-.53,3.17-.89,4.79-1.21,1.55-.31,3.01-.78,4.31-1.69.6-.42,1.26-.76,1.91-1.09,1.01-.53,1.74-1.33,2.3-2.3.41-.71.81-1.44,1.17-2.18.91-1.91,2.03-3.68,3.38-5.31.4-.49.75-1.05.99-1.64.82-1.97,2.16-3.61,3.33-5.35.2-.3.47-.57.75-.8,2.04-1.71,4.04-3.45,6.43-4.68,1.22-.63,2.42-1.32,3.4-2.31.26-.26.48-.55.66-.76.69-1.83.84-3.66.8-5.49-.03-1.56-.01-3.12.39-4.64.03-2.96,1.43-5.46,2.77-7.96.35-.64.81-1.23,1.15-1.87,1.09-2.12,2.8-3.61,4.79-4.81,1.72-1.04,3.5-1.99,5.25-2.99.24-.14.49-.26.71-.42,1.86-1.33,3.71-2.68,5.58-4,.44-.32.91-.64,1.42-.82,1.58-.57,2.88-1.59,4.24-2.53,1.21-.83,2.38-1.71,3.53-2.61,1.66-1.31,3.23-2.72,4.6-4.33.73-.85,1.56-1.12,2.64-1.17,1.28-.06,2.55.19,3.83.11,1.19-.07,2.38-.03,3.57.08,1.09.1,2.21.03,3.25.45,2.12.03,4.16.59,6.25.85,1.73.22,3.44.49,5.11,1,1.31.4,2.65.72,4.01.92,2.18.34,4.27,1.04,6.43,1.42.54.1,1.08.2,1.61.33.44.1.88.23,1.3.4.77.3,1.51.67,2.28.95.86.32,1.7.65,2.52,1.09.89.47,1.83.83,2.79,1.16.51.18,1.07.19,1.74.3.49.37,1.06.81,1.59,1.22.1.35.21.61.24.88.18,1.98,1.03,3.68,2.16,5.28.53.74,1,1.53,1.51,2.29,1.39,2.06,3.05,3.89,4.9,5.55.62.55,1.27,1.06,1.78,1.71.17.21.33.44.55.62,1.88,1.49,3.45,3.27,4.95,5.13.41.5.88.93,1.34,1.39,1.54,1.57,3.09,3.13,4.63,4.7.26.26.54.52.72.83.57.97,1.43,1.67,2.2,2.45.45.45.9.91,1.32,1.39.37.42.64.89.62,1.48,0,.38.11.73.38,1,.49.48.69,1.05.71,1.72.06,1.39.43,2.7,1.08,3.93.69,1.29,1.36,2.6,2.02,3.91.32.65.67,1.31.88,2.01.56,1.83,1.81,3.16,3.02,4.54.39.44,1.34.43,1.77.03.21-.19.41-.37.57-.59.41-.61.87-1.2,1.16-1.86.99-2.27,2.3-4.38,3.18-6.7.29-.75.81-1.43,1.28-2.11.89-1.27,1.86-2.49,2.6-3.87.29-.57.75-1.03,1.33-1.35.4-.22.78-.5,1.09-.84,1.5-1.64,3.37-2.8,5.24-3.96.16-.1.34-.16.47-.28,1.31-1.21,2.93-1.85,4.6-2.34.8-.23,1.54-.57,2.25-.99,1.01-.6,2.07-.65,3.31-.09.69,1.01,1.59,2.04,2.56,3.01.94.94.93.96,2.4,1.53,2.74.19,5.17-.68,7.6-1.48.7-.23,1.37-.53,2.06-.78.97-.35,1.79-.1,2.48.62.67,1.8.2,3.64.3,5.45.09,1.75-.06,3.47-.52,5.2.33.97.53,1.95.41,2.97-.15,1.22.13,2.36.81,3.45-.07.43-.14.88-.23,1.33-.11.56-.03,1.11.13,1.63.3.97.53,1.94.58,2.96.03.44.22.88.37,1.31.21.6.45,1.2.69,1.79.18.42.37.84.59,1.23.23.39.58.73.77,1.14.85,1.84,2.44,2.93,4.03,4.03.29.2.62.42.97.49,1.31.25,2.32,1.06,3.38,1.77,1,.65,1.89,1.44,2.62,2.22.09.22.13.3.15.39.55,3.35,1.57,6.57,2.62,9.79.4,1.21.86,2.41.9,3.72,0,.35.19.7.34,1.03.3.67.63,1.32.95,1.98.77,1.56,1.8,2.98,2.4,4.63,1.35,1.74,1.93,3.95,3.42,5.61.42.47.62,1.13,1.01,1.63.45.58,1,1.08,1.82,1.06,6.4-5.84,8.03-6.1,11.72-8.06.92-.18,1.81-.03,2.68.29,2.06.77,4.22,1.21,6.32,1.88,1.21.38,2.48.67,3.73.89.92.16,1.77.47,2.61.81.34.13.69.31,1.05.31,1.51.02,2.79.85,4.21,1.21.33.08.65.35.9.61.39.38.75.81,1.07,1.25.92,1.24,1.85,2.48,3,3.55.4.37.66.88,1.03,1.29.36.4.73.84,1.18,1.12.72.44,1.32,1,1.85,1.63.6.71,1.33,1.26,2.08,1.78.45.31.9.64,1.3,1.01.75.7,1.58,1.22,2.58,1.52.69.21,1.36.51,2,.74.66.44,1.13,1.01,1.59,1.59.6.76,1.37,1.21,2.36,1.24.65.03.97.38,1.08,1,.06.37.24.69.55.92.15.11.27.25.43.34,1.34.79,2.67,1.59,4.03,2.36.4.22.83.36,1.21.52.6-.12,1.13-.23,1.63-.32.42.14.6.44.71.82-.15.52-.31,1.04-.46,1.57.41,1.43.96,2.77,1.85,3.96.38.51.65,1.09.99,1.64.18.31.31.69.59.9.74.58,1.23,1.35,1.83,2.04,1.01,1.18,2.04,2.35,3.11,3.48.43.47.96.85,1.46,1.24.21.17.51.25.68.45,1.57,1.73,3.52,2.91,5.6,3.88.22.1.32.41.47.61-.25.86-.9,1.41-1.38,2.06-.18.24-.73.27-1,.07-.29-.22-.6-.43-.87-.68-1.42-1.32-3.14-2.19-4.58-3.51-.81.75-1.46,1.38-2.12,1.99-.22.21-.79.06-.97-.24-.19-.32-.31-.69-.14-1.03.26-.49.59-.92.87-1.39.13-.23.24-.49.28-.74.02-.15-.1-.38-.22-.47-.12-.08-.41-.08-.49,0-.48.54-.94,1.11-1.38,1.69-.4.51-.74,1.06-1.15,1.54-.23.27-.57.45-.86.67-.29-.13-.57-.21-.77-.37-.41-.34-.5-.8-.33-1.23.21-.52.47-1,.86-1.4.77-.78,1.44-1.66,2.01-2.57q-.1-.95-1.16-1.68c-.18.03-.38.02-.51.12-.58.45-1.12.94-1.69,1.41-.43.37-.71.82-.88,1.36-.12.33-.34.64-.57.92-.24.29-.59.42-.97.46-.76.08-1.42-.75-1.16-1.45.26-.69.62-1.33,1.15-1.85.65-.64,1.33-1.25,1.98-1.9.24-.25.44-.56.61-.78-.01-.99-.59-1.63-.94-2.36-.07-.15-.22-.31-.36-.39-.15-.08-.41-.12-.51-.05-.36.29-.72.59-.98.95-1.18,1.64-2.71,2.99-3.85,4.66-.09.13-.29.2-.45.3-.26.17-.79-.01-.95-.3-.23-.43-.27-.89-.1-1.32.14-.33.35-.65.59-.92,1.45-1.65,2.76-3.43,4.4-4.9.4-.36.44-.74.19-1.23-.21-.4-.37-.85-.79-1.09-.14-.08-.38-.09-.51-.03-.24.12-.47.29-.64.5-1,1.31-1.99,2.63-3,3.94-.22.29-.46.58-.74.8-.21.16-.5.23-.77.09-.24-.13-.46-.31-.46-.61,0-.27-.03-.59.1-.8.44-.69.91-1.37,1.41-2.01.9-1.16,1.83-2.3,2.72-3.45.1-.14.12-.34.19-.52-.29-1.02-1.16-1.33-2.07-1.71-.2.12-.49.2-.63.39-.43.59-.81,1.22-1.2,1.83-.45.69-.91,1.39-1.57,1.89-.22.16-.51.24-.78.12-.24-.12-.46-.32-.44-.62,0-.36-.02-.76.13-1.06.36-.73.82-1.43,1.26-2.12.29-.46.61-.9.85-1.26-.02-.65-.3-.98-.74-1.2-.25-.13-.59-.08-.77.07-.69.62-1.12,1.44-1.63,2.2-.3.45-.63.89-.95,1.33-.17.22-.56.34-.72.21-.2-.17-.41-.36-.52-.6-.23-.52-.21-1.08.04-1.6.2-.41.48-.78.71-1.17.35-.54.7-1.08,1.05-1.62-.15-.28-.22-.58-.41-.74-1.28-1.05-2.56-2.06-3.86-3.08-.22-.16-.47-.29-.72-.4-1.28-.56-2.3-1.48-3.39-2.33-1.22-.95-2.45-1.91-3.66-2.89-.42-.34-.82-.72-1.19-1.12-1.63-1.74-3.17-3.57-4.54-5.52-.78-1.12-1.86-1.73-3.11-2.12-.17-.05-.36-.11-.53-.11-1.41-.06-2.67-.63-3.9-1.24-1.5-.74-3.16-.85-4.77-1.17-.34-.07-.71.07-1,.1-.2.19-.38.28-.47.43-1.38,2.26-2.94,4.42-4.05,6.85-.72,1.58-1.42,3.18-2.37,4.65-.39.61-.62,1.33-.86,1.89.01.76.41,1.13.92,1.39.12.06.39.03.5-.07.18-.18.35-.42.44-.67.89-2.31,2.05-4.5,3.2-6.69.56-1.05,1.02-2.15,1.66-3.16.19-.31.42-.6.68-.85.33-.32.71-.61,1.21-.42.38.14.5.5.61,1.03-.35,1.01-1.17,1.91-1.69,2.98-.48.99-.96,1.98-1.44,2.97-.52,1.07-1.08,2.12-1.56,3.21-.44,1-.77,2.05-1.1,2.93-.05.55.11.88.34,1.17.47.59.63,1.31.88,2,.08.22.36.37.63.64.26-.69.48-1.28.7-1.88.62-1.82,1.22-3.64,1.87-5.46.18-.51.45-1,.71-1.48.35-.65,1.09-.67,1.55-.05.11.14.15.33.25.6-.19.61-.33,1.35-.63,2-.68,1.51-1.16,3.08-1.63,4.67-.42,1.4-.93,2.78-1.38,4.18-.26.81-.27,1.63.13,2.41.13.25.31.4.7.35.14-.28.34-.59.45-.93.76-2.36,1.72-4.63,2.64-6.93.51-1.28,1-2.56,1.53-3.83.18-.41.42-.81.7-1.17.28-.37.65-.67,1.17-.53.4.1.54.45.7.9-.15.54-.25,1.18-.5,1.77-.65,1.61-1.31,3.22-2.07,4.79-1.04,2.15-1.71,4.45-2.64,6.63-.31.75-.37,1.6-.54,2.41.41,1.23.89,2.4,1.62,3.56.33-.27.63-.39.7-.59.84-2.62,1.64-5.24,2.46-7.86.41-1.31.78-2.64,1.26-3.92.38-1.03.85-2.03,1.34-3,.19-.39.57-.71.87-1.04.15-.16.57-.2.77-.09.33.17.6.64.51.89-.03.08-.03.18-.07.26-1.57,3.31-2.69,6.8-3.74,10.32-.57,1.93-1.21,3.84-1.81,5.76-.09.26-.16.52-.23.79-.26,1.03-.02,1.61.98,2.31.17.12.37.08.47-.08.1-.16.18-.32.24-.49.85-2.51,1.72-5.03,2.53-7.55.34-1.06.85-2.02,1.36-3,.08-.15.24-.27.35-.41.23-.27.73-.37,1-.19.31.21.49.52.5.91,0,.09,0,.18-.03.27-.06.27-.12.54-.24.79-1.14,2.31-1.78,4.8-2.67,7.2-.63,1.71-1.1,3.49-1.64,5.24-.17.53-.36,1.04-.57,1.54-.11.24-.3.45-.47.67-.19.25-.71.35-1,.17-.38-.24-.74-.51-1.09-.74-.55.07-.83.44-1.13.78-.59.71-1.11,1.47-1.88,1.98-.25.16-.81.05-.99-.22-.22-.32-.31-.67-.2-1.04.11-.34.24-.7.43-1,.38-.62.83-1.21,1.22-1.82.09-.13.03-.35.01-.53,0-.08-.07-.2-.13-.22-.15-.04-.36-.09-.47-.01-.72.47-.88,1.36-1.46,1.9-.06.62-.12,1.15-.18,1.66-.6.8-1.45,1.15-2.3,1.51-.4.17-.89-.18-1.01-.66-.13-.47-.09-.92.11-1.33.2-.41.44-.81.69-1.19.54-.85,1.18-1.62,1.43-2.65.07-.32.41-.59.62-.89.31-.45.65-.88.92-1.35.46-.82.29-1.51-.51-2.17-.1-.08-.33-.04-.49-.03-.08.01-.16.09-.22.16-1.35,1.73-2.7,3.46-4.01,5.21.12.51.22.94.32,1.4-.47.95-1.3,1.47-2.3,1.79-.17.06-.36.05-.54.06-.4.02-.9-.44-.95-.84-.06-.47-.01-.94.24-1.33.59-.93,1.19-1.85,1.85-2.72,1.43-1.91,2.9-3.78,4.34-5.68.3-.4.26-.85,0-1.29-.24-.39-.47-.8-1.15-.71-1.2,1.38-2.47,2.83-3.71,4.29-.59.69-1.13,1.44-1.71,2.15-1.02,1.29-2.05,2.59-2.52,4.21-.16.53-.41,1.01-.86,1.38-.18.14-.55.24-.77.12-.24-.12-.47-.28-.54-.56-.08-.37-.09-.74.07-1.08.9-1.8,1.74-3.64,2.99-5.25,1.85-2.39,3.61-4.85,5.78-6.99.12-.12.2-.3.3-.46q-.08-1.09-.6-2.03c-.07.03-.18.03-.23.08-2.08,2.18-4.31,4.24-6.1,6.69-.38.51-.78,1.02-1.23,1.49-2.2,2.35-4.09,4.94-5.71,7.72-.42.71-.86,1.41-1.3,2.1-.21.32-.52.51-.88.59-.67-.57-.77-.84-.53-1.36.18-.41.37-.84.6-1.23,1.19-2.07,2.43-4.1,3.95-5.96,1.57-1.91,3.13-3.84,4.66-5.78,1.2-1.5,2.36-3.04,3.55-4.54.52-.65,1.09-1.24,1.62-1.87.18-.2.28-.46.44-.74-.32-.04-.58-.06-.83-.11-.77-.15-1.15-.65-.99-1.34.08-.35.22-.7.3-1.06.12-.48.02-.91-.35-1.25-.48-.43-.98-.83-1.35-1.14-.77-.34-1.4-.31-2.04-.29-.15.09-.37.16-.44.29-1.03,1.86-2.3,3.52-3.88,4.96-.6.55-1.06,1.26-1.59,1.9-1.85,2.27-3.72,4.53-5.57,6.81-1.95,2.43-3.89,4.87-5.83,7.32-1.14,1.44-2.3,2.87-2.92,4.63-.02.09-.1.16-.14.23-.09.15-.53.29-.75.24-.2-.04-.51-.38-.53-.58-.01-.18-.05-.36-.02-.54.08-.64.3-1.24.68-1.78.73-1.06,1.44-2.12,2.22-3.15.83-1.09,1.71-2.15,2.59-3.2,3.6-4.28,6.89-8.8,10.4-13.16,1.08-1.36,2.1-2.77,2.93-4.32.3-.56.72-1.05,1.05-1.6.07-.11-.02-.35-.1-.49-.13-.22-.55-.21-.72,0-.69.85-1.38,1.7-2.05,2.57-.78,1.02-1.51,2.07-2.31,3.08-2.04,2.59-4.1,5.17-6.16,7.74-2.65,3.28-5.32,6.54-7.98,9.81-.52.64-1,1.31-1.53,1.94-1.01,1.2-1.95,2.44-2.48,3.93-.16.44-.48.78-.91.99-.24.12-.51.21-.77.03-.32-.22-.59-.7-.49-.92.17-.42.31-.87.55-1.24.76-1.15,1.53-2.3,2.37-3.38,1.24-1.59,2.44-3.21,3.84-4.67.44-.46.83-.97,1.24-1.48,2.26-2.89,4.52-5.77,6.79-8.65,2.08-2.68,4.19-5.34,6.27-8.01.84-1.08,1.43-2.33,2.11-3.43-.03-.48-.2-.79-.48-1.05-.2-.19-.57-.21-.75-.06-.71.59-1.27,1.31-1.81,2.06-1.57,2.14-3.18,4.26-4.75,6.41-1.03,1.41-2.13,2.75-3.24,4.1-2.92,3.53-5.66,7.2-8.28,10.97-1.2,1.73-2.37,3.48-3.58,5.21-.26.37-.63.66-.96.97-.16.15-.58.16-.77.03-.29-.19-.48-.74-.33-.97.91-1.38,1.83-2.74,2.75-4.11.2-.31.47-.57.65-.88,2.2-3.61,4.89-6.86,7.5-10.17,1.36-1.73,2.72-3.46,4.05-5.21,1.62-2.11,3.25-4.21,4.81-6.36.87-1.18,1.62-2.44,2.4-3.69.33-.53-.22-1.11-1.1-1.1-.57.87-1.12,1.81-1.98,2.54-.61.53-1.09,1.23-1.61,1.88-2.15,2.74-4.33,5.46-6.43,8.23-1.83,2.41-3.65,4.83-5.44,7.26-2.4,3.24-4.6,6.63-6.9,9.95-.47.68-.87,1.4-1.16,2.17-.17.44-.47.8-.88,1.03-.22.12-.53.15-.78.13-.27-.02-.52-.54-.47-.88.03-.18.03-.37.11-.54.1-.25.22-.5.37-.73,2.04-3.05,4.04-6.12,6.13-9.13,1.62-2.33,3.34-4.6,5.02-6.88.71-.96,1.42-1.91,2.14-2.86,1-1.32,1.95-2.66,3-3.94,2.22-2.7,4.3-5.48,6.2-8.4.4-.61.85-1.2,1.07-1.94-.15-.23-.24-.55-.44-.65-.89-.4-1.45-1.09-1.9-1.91-.18-.31-.44-.58-.68-.86-.2-.24-.79-.28-1-.08-.26.25-.55.49-.78.77-.83.97-1.67,1.94-2.45,2.96-1.9,2.47-3.77,4.96-5.64,7.45-2.42,3.23-4.8,6.48-7.25,9.69-1.89,2.48-3.71,5.01-5.55,7.53-2.26,3.12-4.47,6.27-6.54,9.52-.24.38-.54.74-.86,1.07-.18.19-.44.33-.67.45-.28.13-.53.02-.77-.12-.19-.13-.33-.55-.26-.74.1-.25.17-.53.32-.75.39-.62.79-1.23,1.24-1.82,2.8-3.74,5.51-7.56,8.18-11.39,1.2-1.73,2.52-3.37,3.8-5.05,3.42-4.53,6.8-9.1,10.02-13.79,1.3-1.89,2.67-3.72,4.01-5.58.37-.52.77-1.03.98-1.65.16-.46.59-.68,1-.89.16-.08.26-.24.39-.36-.02-.17,0-.38-.09-.53-.72-1.27-1.47-2.54-2.19-3.81-.18-.3-.71-.33-.94-.04-.35.42-.69.86-1.05,1.28-.23.28-.49.53-.75.79-.29.28-.71.3-.99.06-.31-.27-.4-.63-.31-.99.19-.72.62-1.32,1.05-1.91.48-.66,1.17-1.17,1.47-1.95,0-.8-.44-1.39-.85-1.99-.26-.41-.85-.48-1.17-.14-1.39,1.48-2.62,3.07-3.63,4.83-.18.32-.34.65-.53.96-.31.51-.95.59-1.4.14-.18-.19-.28-.45-.4-.66.97-2.56,1.42-3.16,5.84-7.52.12-.77-.08-1.42-.79-1.9-.22.15-.47.27-.65.46-1.49,1.62-2.97,3.26-4.45,4.88-.18.19-.41.37-.64.5-.26.14-.52.04-.76-.11-.22-.14-.37-.54-.27-.71.28-.47.53-.96.86-1.4,1.39-1.83,2.9-3.55,4.57-5.11.34-.32.68-.62.82-1.14-.21-.94-.44-1.92-1.02-2.76-.07-.1-.32-.08-.48-.07-.08,0-.17.07-.23.14-2.67,3.02-5.19,6.16-7.71,9.31-.63.79-1.28,1.55-1.93,2.32-.21.25-.73.24-1,.03-.2-.15-.37-.57-.28-.73.27-.47.51-.97.85-1.4,1.6-2.01,3.23-4,4.84-5.99.24-.29.46-.57.69-.86,1.54-1.92,2.83-4.04,4.64-5.63-.36-2-.34-2.01-1.12-2.56-.25.22-.57.42-.78.69-.79,1-1.55,2.04-2.34,3.05-.4.5-.78,1.02-1.25,1.46-1.81,1.71-3.24,3.73-4.75,5.69-.61.79-1.29,1.55-1.94,2.31-.25.28-.77.2-.92-.14-.08-.16-.16-.36-.12-.5.28-.89.88-1.61,1.43-2.33,1.29-1.67,2.61-3.32,3.96-4.94,1.17-1.42,2.29-2.86,3.3-4.4.66-1,1.32-1.98,2.15-2.85.37-.38.19-.82-.37-1.03-.35-.13-.7-.23-1.14-.37-.25.17-.59.33-.84.57-1.37,1.35-2.69,2.75-4.07,4.09-2.04,1.98-3.85,4.17-5.73,6.31-.47.54-.84,1.19-1.26,1.79-.18.24-.75.33-1.01.19-.4-.22-.61-.84-.4-1.18.19-.31.38-.63.62-.9,2.54-2.89,5.07-5.79,7.64-8.67.91-1.03,1.79-2.08,2.55-3.16-.08-.24-.08-.48-.2-.57-.36-.27-.75-.53-1.17-.69-.21-.08-.57,0-.76.16-.34.29-.61.68-.89,1.03-1.16,1.43-2.29,2.86-3.43,4.3-.17.22-.35.43-.54.62-1.16,1.17-2.26,2.41-3.26,3.72-.33.43-.77.78-1.17,1.16-.31.28-.65.12-1.08-.5,1.5-1.94,2.99-3.9,4.56-5.81,1.16-1.41,2.24-2.9,3.33-4.38.37-.51.71-1.08.79-1.73.04-.27.04-.57-.2-.76-.13-.09-.33-.09-.57-.15-.83.92-1.62,1.94-2.58,2.78-.98.86-1.56,2.02-2.5,2.91-.92.88-1.7,1.92-2.51,2.92-.8.98-1.57,2-2.4,3.07.12.86.24,1.76.35,2.66.12,1,.22,2,.36,3,.14.91.33,1.8.54,2.86-.16.44-.36,1.05-.61,1.64-.18.42-.82.53-1.18.27-.39-.28-.69-.63-.75-1.1-.08-.63.05-1.31-.12-1.92-.41-1.52-.47-3.07-.57-4.63-.04-.54-.22-1.08-.42-1.59-.47-1.19-.96-2.36-1.48-3.54-.04-.09-.41-.15-.45-.11-.64,1-1.57,1.77-2.23,2.76-.69,1.02-1.14,2.1-1.3,3.29-.24,1.82-.53,3.62-.97,5.41-.07.26-.03.54-.04.82,0,.2.46.47.63.36.31-.19.6-.41.92-.6.24-.13.48-.26.75-.33.16-.04.35.02.52.08.18.06.4.51.33.7-.13.34-.23.7-.45.98-.56.73-1.17,1.41-1.76,2.11-1.19,1.4-2.23,2.9-3.13,4.51-.12.24-.3.45-.46.67-.15.21-.48.31-.73.24-.31-.09-.61-.56-.53-.86.1-.36.16-.73.32-1.05.39-.73.83-1.43,1.24-2.14.23-.39.47-.78.69-1.14-.27-.87-.63-1.56-1.46-1.97-.96.8-1.59,1.83-2.18,2.84-.74,1.27-1.52,2.5-2.41,3.67-.33.43-.59.93-.89,1.38-.26.38-.83.32-1.14-.12-.1-.15-.12-.33-.2-.51,0-.68.4-1.21.76-1.73.95-1.36,1.77-2.78,2.62-4.2.46-.78,1.04-1.51,1.6-2.22.22-.27.54-.46.81-.68.5.13.92.25,1.33.36.13-.15.33-.27.34-.4.2-1.92.57-3.8.95-5.69.07-.36.17-.72.17-1.09.01-1.43.64-2.65,1.3-3.86.35-.64.74-1.27,1.19-1.85,1.3-1.67,1.73-3.62,1.9-5.64.18-1.92.34-3.84.02-5.76-.06-.36-.02-.75-.14-1.09-.43-1.18-.28-2.34-.12-3.53.33-2.36.8-4.69,1.32-7.01.16-.71.27-1.44.39-2.16.04-.18.08-.37.06-.55-.23-2.54-.24-5.14-1.74-7.49-.41-.21-.92-.42-1.37-.72-.4-.27-.6-.72-.51-1.2.12-.62.34-1.22.49-1.73-.1-.29-.13-.5-.23-.63-.61-.69-1.23-1.35-1.85-2.03-.06-.06-.18-.06-.27-.09-.38.11-.58.41-.73.74-.41.91-.81,1.84-1.18,2.78-1.08,2.73-2.14,5.46-3.19,8.19-.33.85-.69,1.7-.82,2.62-.05.35-.26.67-.43.99-.16.29-.65.53-.93.44-.37-.11-.63-.34-.78-.71-.18-.45-.14-.9.01-1.34.41-1.12.83-2.23,1.28-3.33.51-1.27,1.05-2.54,1.58-3.81.21-.51.41-1.02.57-1.55.65-2.2,1.38-4.36,2.44-6.39.03-.06-.17-.33-.28-.35-.39-.08-.74.09-1.02.32-1.07.87-2.06,1.82-2.81,3-1.08,1.71-1.92,3.53-2.56,5.45-.59,1.83-1.14,3.66-1.83,5.47-.81,2.16-1.93,4.15-2.91,6.21-.08.16-.22.29-.34.43-.35.46-1,.46-1.43.03-.28-.28-.37-.61-.35-1.11.45-.78.95-1.65,1.43-2.53,1.69-3.06,2.87-6.34,4-9.63.18-.52.36-1.04.5-1.56.04-.15-.09-.34-.16-.58-.89.51-1.65,1.15-2.35,1.85-.53.51-1.06,1.03-1.54,1.57-.62.7-.96,1.56-1.28,2.42-.31.86-.53,1.75-.82,2.63-.63,2.01-1.15,4.06-2.29,5.87-.41,1.71-1.44,3.16-2.07,4.78-.33.85-.75,1.68-1.22,2.46-1.11,1.9-2.02,3.9-3.1,5.82-1.12,2.01-2,4.1-2.74,6.27-.55,1.64-1.32,3.22-2.03,4.81-.89,2.01-1.81,4.01-2.71,6.02-.25.58-.51,1.17-.97,1.64-.41.42-.98.44-1.45,0-.13-.12-.22-.29-.36-.5.04-.22.04-.5.16-.73.83-1.84,1.68-3.66,2.54-5.48,1.24-2.65,2.43-5.33,3.32-8.13.36-1.13.85-2.23,1.55-3.21.71-.97,1.24-2.03,1.75-3.11.55-1.16,1.13-2.3,1.73-3.44.22-.42.28-.86.32-1.31.59-.37.81-.95.86-1.6,0-.14-.13-.34-.26-.41-.19-.1-.41,0-.42.18-.05.63-.08,1.26-.12,1.89Z"/>
      <path class="cls-1" d="M286.69,95.76s-.03.29-.12.53c-1.59,4-3.34,7.92-5.24,11.79-.4.82-.74,1.67-1.11,2.51-1.5,3.34-3.14,6.61-4.99,9.77-.6,1.03-1.17,2.07-1.7,3.14-1.29,2.63-2.82,5.13-4.37,7.61-.48.77-.87,1.61-1.29,2.42-.93,1.79-1.92,3.53-3.3,5.04-.86.94-1.58,2.01-2.21,3.14-.21.38-.82.49-1.22.27-.56-.3-.87-.85-.71-1.33.12-.34.26-.69.47-.97.56-.73,1.16-1.42,1.74-2.12,1.34-1.64,2.51-3.39,3.42-5.31.19-.41.41-.82.66-1.2,2.43-3.67,4.42-7.6,6.54-11.45,1.06-1.92,2.29-3.76,3.16-5.78.43-1.01.97-1.98,1.32-3.02.68-2.01,1.65-3.88,2.6-5.75.75-1.47,1.45-2.96,2.08-4.48.7-1.69,1.47-3.36,2.22-5.03.2-.44.58-.68,1.07-.76.44-.07,1.01.34.97.98Z"/>
      <path class="cls-1" d="M372.41,104.06c-.11.3-.17.68-.35.98-.94,1.56-1.89,3.12-3.12,4.49-.62.68-1.14,1.42-1.65,2.18-1,1.53-2.1,2.99-3.12,4.5-2.12,3.1-4.19,6.22-6.3,9.32-1.49,2.19-3.01,4.37-4.55,6.53-1.97,2.75-3.69,5.67-5.48,8.53-.39.62-.83,1.2-1.29,1.77-.16.2-.43.31-.67.45-.17.09-.6,0-.73-.22-.14-.21-.23-.48-.27-.74,0-.15.11-.35.21-.5,1.16-1.75,2.36-3.48,3.48-5.25,2.26-3.55,4.67-7,7.1-10.42,3.07-4.34,5.98-8.76,8.89-13.19,1.51-2.29,2.99-4.6,4.46-6.92.54-.86,1.21-1.59,2.1-2.11.5-.3.77-.2,1.29.59Z"/>
      <path class="cls-1" d="M377.35,105.05c.56.51.56,1.14.16,1.71-.65.89-1.32,1.76-2.07,2.55-3.41,3.59-6.32,7.57-9.11,11.64-2.06,3.01-4.1,6.05-6.12,9.1-1.57,2.36-3.11,4.74-4.62,7.14-.59.92-1.1,1.9-1.57,2.89-.47,1-1.06,1.91-1.84,2.7-.13.13-.29.23-.42.34-.15.12-.65.13-.77-.03-.16-.21-.34-.48-.33-.71.02-.35.16-.72.33-1.03,1.64-2.74,3.29-5.49,5.05-8.16,1.91-2.9,3.77-5.84,5.73-8.71,2.82-4.16,5.63-8.32,8.73-12.29,1.48-1.87,3.09-3.62,4.44-5.57.31-.44.73-.82,1.14-1.18.35-.3.77-.5,1.28-.42Z"/>
      <path class="cls-1" d="M361.9,103.33c.75.52.92.89.6,1.34-.89,1.27-1.78,2.56-2.75,3.77-.69.86-1.37,1.72-1.9,2.69-.17.32-.36.63-.59.93-.49.66-1.05,1.27-1.5,1.96-3.27,4.98-6.54,9.97-9.76,14.98-2.24,3.47-4.24,7.07-5.94,10.84-.19.42-.41.82-.65,1.21-.14.23-.35.41-.55.61-.14.16-.58.19-.75.07-.19-.14-.35-.52-.29-.73.05-.18.06-.37.14-.53,3.01-6.4,6.51-12.52,10.52-18.34.72-1.06,1.4-2.15,2.11-3.22,2.22-3.37,4.44-6.74,6.65-10.11.71-1.07,1.34-2.19,2.05-3.26.35-.53.78-1.03,1.25-1.44.4-.34.93-.54,1.36-.77Z"/>
      <path class="cls-1" d="M109.37,92.38c-.6.13-1.21.28-1.83.39-.39.07-.86-.5-.79-.92.08-.48.31-.85.71-1.12.23-.15.47-.29.73-.38.59-.22,1.19-.41,1.72-.58.32-.36.34-.74.3-1.1-.14-1.31.21-2.54.52-3.79.04-.17.17-.32.25-.48.15-.27.68-.5.95-.39.35.14.61.4.72.77.06.17.09.37.04.54-.3.98-.24,1.99-.27,3-.02.64-.03,1.28-.07,1.92-.09,1.64-.22,3.29.27,4.9.05.17,0,.37,0,.55-.04.79-.53,1.31-1.36,1.41-.18.02-.37,0-.54.03-.09,0-.17.07-.25.1-.17.09-.23.25-.12.46.5.97.13,1.8-.51,2.5-.68.73-1.39,1.49-2.23,2.03-1.68,1.12-2.58,2.8-3.51,4.48-.18.31-.36.62-.57.92-.25.36-.85.34-1.16-.05-.11-.14-.16-.32-.24-.48.8-2.32,1.33-3.39,2.49-4.82.7-.85,1.44-1.65,2.15-2.49.17-.2.28-.45.48-.77-.32-.06-.54-.12-.77-.16-.36-.05-.72-.05-1.07-.13-.41-.1-.6-.85-.3-1.14.26-.25.53-.5.84-.68,1.27-.71,2.62-1.24,3.96-1.69.25-1.74.24-1.83-.56-2.83Z"/>
      <path class="cls-1" d="M268.49,142.77c-.43.02-.91-.38-1-.77-.09-.47-.07-.94.12-1.35,1.17-2.49,2.01-5.11,3.47-7.47,1.39-2.26,2.67-4.59,3.99-6.9.27-.48.48-.98.73-1.48.4-.82.75-1.68,1.22-2.46.99-1.66,1.78-3.41,2.53-5.18.46-1.09,1.09-2.11,1.71-3.13.55-.91,1.44-1.38,2.45-1.65.17-.05.6.13.72.29.18.23.24.5.13.76-.1.24-.24.5-.41.7-1.51,1.63-2.68,3.47-3.44,5.56-.16.43-.35.85-.56,1.25-.69,1.3-1.3,2.62-1.87,3.98-.53,1.27-1.18,2.49-1.93,3.64-1,1.53-1.84,3.17-2.78,4.74-1.56,2.6-2.76,5.37-3.79,8.21-.09.26-.21.51-.36.73-.22.3-.52.51-.92.51Z"/>
      <path class="cls-1" d="M386.66,108.94c.22.07.42.09.56.19.47.33.64.73.5,1.16-.14.43-.25.89-.47,1.28-.55.95-1.1,1.91-1.76,2.79-1.8,2.42-3.51,4.91-5.37,7.29-1.81,2.3-3.42,4.75-5.15,7.12-2.59,3.55-4.97,7.25-7.37,10.92-.56.84-1.12,1.68-1.51,2.62-.1.24-.31.45-.51.63-.2.18-.44.31-.75.23-.3-.09-.59-.54-.53-.86.06-.27.07-.56.21-.79.62-1.12,1.24-2.24,1.94-3.32,1.29-2,2.63-3.97,3.95-5.95.61-.92,1.21-1.83,1.85-2.73,1.44-2.01,2.95-3.97,4.35-6.01,2.07-3.01,4.22-5.98,6.41-8.9.93-1.24,1.58-2.68,2.34-4.02.23-.4.44-.81.71-1.17.16-.21.42-.33.61-.47Z"/>
      <path class="cls-1" d="M354.21,106.74c.54.56.43,1.18.03,1.74-1.06,1.49-2.14,2.97-3.27,4.41-1.07,1.36-2.06,2.8-3.23,4.09-.61.67-1.07,1.48-1.58,2.24-1.33,1.98-2.63,3.97-3.97,5.94-.56.83-1.21,1.61-1.77,2.44-1.22,1.83-2.43,3.66-3.36,5.65-.2.42-.44.82-.9,1-.15.06-.35.07-.52.04-.22-.04-.47-.42-.45-.62,0-.18-.01-.37.06-.54.24-.59.47-1.2.81-1.73,1.22-1.93,2.4-3.89,3.76-5.73,1.09-1.46,2.13-2.98,3.09-4.54,2.36-3.81,4.94-7.47,7.41-11.21.77-1.15,1.71-2.14,2.85-2.94.3-.21.64-.33,1.03-.24Z"/>
      <path class="cls-1" d="M403.99,123.93c-.03.07-.1.44-.28.74-.63,1.12-1.48,2.08-2.36,3-1.75,1.8-5.71,6.48-7.08,8.35-.64.88-1.29,1.76-1.94,2.64-1.34,1.85-2.54,3.77-3.39,5.92-.12.32-.41.6-.67.83-.2.16-.51.19-.77.02-.23-.16-.42-.35-.44-.65-.02-.17-.03-.38.03-.54.29-.67.54-1.36.89-1.99.68-1.19,1.36-2.38,2.14-3.5,2.3-3.29,4.71-6.49,7.29-9.58.93-1.12,1.84-2.27,2.68-3.45.7-.98,1.53-1.82,2.47-2.54.14-.11.33-.15.49-.23.39-.18.97.25.93.98Z"/>
      <path class="cls-1" d="M135.78,124.49c.59-.35,1.28-.79,1.99-1.19.27-.16.53-.03.76.13.23.17.37.42.33.7-.04.26-.1.55-.24.77-.59.93-1.25,1.79-2,2.6-2.43,2.61-4.71,5.34-6.7,8.31-1.02,1.52-2.12,2.97-3.16,4.48-.78,1.12-1.53,2.27-1.89,3.63-.09.33-.37.61-.59.9-.19.25-.76.32-1,.08-.18-.18-.3-.44-.37-.69-.05-.16,0-.38.08-.53.48-.98.9-2.01,1.5-2.92,1.83-2.73,3.65-5.48,5.64-8.09,1.43-1.89,2.71-3.89,4.26-5.69.58-.67.89-1.57,1.39-2.48Z"/>
      <path class="cls-1" d="M295.79,102.33c-.1.42-.13.79-.27,1.12-.25.59-.53,1.17-.86,1.71-1.69,2.73-2.87,5.69-4.01,8.67-.36.94-.69,1.88-1.06,2.81-.35.86-.85,1.61-1.69,2.08-.26.14-.56.13-.76-.05-.2-.16-.44-.42-.44-.64,0-1.2.32-2.36.89-3.41,1.05-1.93,1.77-4,2.58-6.03.57-1.44,1.14-2.87,2-4.19.49-.76.84-1.61,1.24-2.43.16-.34.41-.59.72-.79.4-.26.94-.19,1.2.21.19.3.32.64.46.94Z"/>
      <path class="cls-1" d="M346.84,110.34c-.06.17-.12.65-.34,1.02-.71,1.17-1.42,2.35-2.24,3.43-2.5,3.26-4.69,6.73-7.01,10.12-.57.84-.94,1.77-1.41,2.65-.22.41-.5.79-.95.93-.23.07-.58.03-.76-.1-.17-.14-.35-.52-.28-.7.24-.68.54-1.36.91-1.98,1.25-2.02,2.56-3.99,3.81-6,1.4-2.24,2.95-4.39,4.25-6.7.67-1.18,1.52-2.27,2.28-3.4.05-.07.12-.14.19-.19.3-.21.64-.34,1.02-.22.3.1.55.49.52,1.14Z"/>
      <path class="cls-1" d="M284.71,124.54s0,.39-.11.73c-.13.44-.32.85-.5,1.27-.92,1.98-1.88,3.95-2.76,5.95-.74,1.67-1.59,3.27-2.52,4.85-.56.93-1.02,1.93-1.53,2.9-.18.33-.85.55-1.21.42-.48-.17-.91-.85-.82-1.29.19-.91.62-1.7,1.11-2.47.54-.85,1.07-1.7,1.6-2.55.92-1.48,1.45-3.14,2.18-4.71.73-1.56,1.39-3.16,2.11-4.74.19-.41.44-.8.74-1.13.16-.18.47-.26.73-.31.43-.09.94.32.98,1.08Z"/>
      <path class="cls-1" d="M130.11,103.85c.25.14.42.21.56.32.33.26.41.69.25.97-.51.89-1.22,1.61-1.94,2.3-2.07,1.95-3.93,4.1-5.89,6.15-.44.46-.82.98-1.22,1.48-.34.43-.63.9-1.02,1.29-1.17,1.18-2.15,2.5-3.06,3.88-.24.37-.61.67-.93.99-.14.14-.65.14-.77-.02-.15-.2-.35-.48-.33-.7.03-.35.18-.72.38-1.01.69-.97,1.38-1.94,2.14-2.86,1.87-2.26,3.78-4.48,5.68-6.72.95-1.12,1.87-2.26,2.86-3.34.74-.8,1.56-1.55,2.38-2.27.26-.23.63-.32.9-.46Z"/>
      <path class="cls-1" d="M290.59,125.3c0,.09.02.19,0,.27-.05.17-.09.35-.18.51-2.55,4.45-4.72,9.1-7.04,13.67-.37.73-.78,1.45-1.19,2.16-.26.45-1.11.5-1.43.07-.15-.2-.28-.5-.25-.74.06-.44.2-.9.38-1.31.5-1.08.99-2.17,1.57-3.21,1.48-2.64,2.75-5.37,4.03-8.11.39-.83.79-1.65,1.25-2.44.42-.74,1.04-1.26,1.86-1.54.41-.14,1.04.27,1,.66Z"/>
      <path class="cls-1" d="M129.67,143.43c-.19-.21-.4-.39-.51-.61-.07-.13-.03-.36.01-.53.29-1.16.77-2.23,1.43-3.23,1-1.53,2.05-3.01,3.22-4.41,1.88-2.23,3.71-4.5,5.55-6.77.52-.63,1.02-1.28,1.73-1.73.39-.24.96-.17,1.2.23.09.14.09.34.1.51,0,.08-.03.19-.08.25-1.09,1.34-1.99,2.82-3.2,4.08-1.57,1.65-3.03,3.4-4.46,5.18-1.38,1.7-2.51,3.58-3.53,5.52-.21.4-.42.81-.71,1.15-.15.18-.47.23-.75.35Z"/>
      <path class="cls-1" d="M127.92,121.77c.23.1.42.13.54.25.11.11.23.34.18.47-.11.34-.25.69-.47.97-.74.93-1.51,1.84-2.29,2.73-1.69,1.94-3.18,4.02-4.5,6.22-1.42,2.35-2.77,4.74-4.17,7.11-.18.31-.42.6-.67.84-.11.1-.34.12-.51.1-.26-.02-.48-.32-.44-.59.05-.36.05-.74.19-1.06.29-.67.64-1.33,1-1.96,1.05-1.82,2.12-3.63,3.18-5.45,1.59-2.7,3.55-5.11,5.5-7.54.7-.87,1.55-1.55,2.46-2.09Z"/>
      <path class="cls-1" d="M133.06,146.43c-.46-.15-.79-.32-.86-.72-.04-.26-.04-.57.07-.79,1.78-3.41,3.63-6.77,6.08-9.76,1.51-1.84,2.89-3.78,4.34-5.67.22-.29.49-.54.77-.78.13-.11.32-.16.49-.23.29-.11.8.06.96.34.14.24.24.5.11.77-.16.33-.3.68-.53.95-1.18,1.4-2.4,2.77-3.57,4.17-1.59,1.89-3.07,3.86-4.33,6-.97,1.65-2.06,3.23-2.8,5.02-.12.3-.5.49-.73.7Z"/>
      <path class="cls-1" d="M151.17,130.49c-.18.36-.36.79-.61,1.15-1.9,2.69-4.06,5.17-6.29,7.59-1.55,1.68-3.03,3.42-4.34,5.29-.26.37-.57.71-.87,1.05-.27.3-.64.3-.98.03-.25-.21-.38-.52-.27-.71.32-.55.59-1.13.98-1.64,1.82-2.39,3.6-4.83,5.61-7.08,1.15-1.29,2.16-2.71,3.2-4.1.55-.73,1.12-1.44,1.86-2,.21-.16.46-.29.72-.38.27-.09.54,0,.72.24.11.14.16.32.27.56Z"/>
      <path class="cls-1" d="M132.12,124.69c0,.28.06.48,0,.63-.39.83-.87,1.6-1.47,2.3-2.85,3.35-5.26,7.02-7.76,10.63-.42.6-.76,1.25-.99,1.95-.09.26-.23.49-.36.73-.21.37-.92.65-1.17.44-.3-.26-.43-.61-.35-.98.1-.44.21-.91.44-1.28,1.65-2.63,3.22-5.31,5.14-7.77,1.75-2.23,3.42-4.53,4.84-6.99.18-.32.6-.44.95-.32.37.13.69.45.72.64Z"/>
      <path class="cls-1" d="M290.24,138.86c-.71.08-1.21-.72-1.16-1.1.04-.27.08-.54.15-.8.99-3.44,2.39-6.73,3.82-10,.32-.76.64-1.52.99-2.26.45-.96,1.17-1.62,2.18-1.97.23-.08.55,0,.74.23.19.23.28.52.13.75-1.68,2.65-2.65,5.62-3.94,8.45-.88,1.92-1.59,3.9-2.08,5.95-.04.16-.16.35-.29.45-.21.16-.46.26-.54.3Z"/>
      <path class="cls-1" d="M59.54,128.21c.02.38-.06.72-.32,1.01-1.22,1.36-2.32,2.82-3.4,4.3-.37.52-.83,1.01-1.06,1.59-.49,1.2-1.46,2.08-1.97,3.27-.46,1.09-1.11,2.09-1.71,3.12-.18.31-.44.57-.68.84-.23.26-.76.32-1,.13-.3-.25-.44-.58-.4-.96.01-.18.05-.37.12-.54.1-.25.23-.5.37-.73,1.22-2.04,2.36-4.12,3.64-6.11.89-1.38,1.76-2.78,2.62-4.17.44-.71.94-1.35,1.59-1.86.29-.22.62-.39.94-.56.46-.24,1.19.15,1.27.68Z"/>
      <path class="cls-1" d="M293.14,118.29c-.78-.21-1-.82-.86-1.48.23-.98.54-1.94.92-2.87.34-.85.69-1.69.97-2.57.7-2.27,1.64-4.46,2.55-6.66.28-.69.74-1.25,1.38-1.67.32-.21.71-.23,1.01-.02.35.23.44.58.45.95,0,.18-.05.37-.12.53-.49,1.08-1,2.16-1.5,3.24-.23.5-.48.99-.67,1.5-.73,1.98-1.5,3.93-2.32,5.87-.29.67-.42,1.4-.67,2.09-.19.53-.54.95-1.14,1.08Z"/>
      <path class="cls-1" d="M422.39,146.85c-.31,0-.74-.46-.69-.73,0-.09-.01-.19.02-.27.54-1.64,1.07-3.29,1.68-4.91.85-2.31,1.74-4.59,2.64-6.88.23-.59.53-1.15.83-1.71.12-.23.34-.42.53-.62.28-.3,1-.15,1.12.27.1.34.2.73.13,1.06-.12.62-.33,1.23-.57,1.82-1.29,3.2-2.61,6.4-3.89,9.61-.21.5-.32,1.04-.5,1.56-.15.43-.77.8-1.31.8Z"/>
      <path class="cls-1" d="M104.65,117.82c.98-1.69,1.95-3.23,3-4.72,1.21-1.71,2.4-3.42,3.47-5.23.51-.86,1.08-1.68,1.65-2.5.09-.14.29-.22.44-.31.16-.1.63.05.73.22.33.58.44,1.19.22,1.83-.3.86-.76,1.65-1.32,2.37-.73.93-1.45,1.87-2.22,2.77-1.31,1.52-2.54,3.09-3.64,4.76-.36.54-.77,1.01-1.33,1.35-.25.15-.45.08-.99-.56Z"/>
      <path class="cls-1" d="M63.79,132.82c-2.03,1.81-3.71,3.84-5.24,6-.74,1.03-1.53,2.04-2.03,3.23-.18.41-.5.75-.89,1-.26.17-.82.03-.94-.27-.15-.34-.21-.7-.11-1.06.04-.17.08-.36.17-.52,1.96-2.96,3.88-5.96,6.17-8.7.17-.21.39-.39.61-.54.38-.27.82-.39,1.29-.37.38.02.74.15.93.48.11.21.04.51.05.74Z"/>
      <path class="cls-1" d="M112.59,135.5c-.39-.48-.36-1.05-.16-1.55.41-1.01.83-2.04,1.4-2.96.82-1.3,1.67-2.61,2.72-3.77.61-.68,1.14-1.43,1.76-2.1.62-.66,1.29-1.29,1.96-1.9.19-.17.48-.25.73-.35.29-.12.74.26.75.58.01.39-.12.73-.35,1.01-1.24,1.45-2.47,2.93-3.77,4.33-1.06,1.15-1.94,2.42-2.64,3.81-.46.89-.93,1.77-1.44,2.64-.21.36-.57.4-.96.26Z"/>
      <path class="cls-1" d="M123.43,119.87c-.49-.15-.76-.49-.7-.84.07-.35.12-.76.32-1.02.52-.63,1.11-1.2,1.7-1.78,1.36-1.35,2.73-2.68,4.08-4.04.58-.58,1.12-1.2,1.63-1.85.87-1.08,1.97-1.88,3.13-2.6.25-.16.77.15.82.49.02.18.05.37-.02.52-.11.24-.25.49-.44.68-.64.65-1.29,1.29-1.94,1.93-.45.45-.93.88-1.36,1.35-1.34,1.49-2.67,2.98-4.24,4.25-.92.75-1.61,1.72-2.36,2.63-.14.18-.46.2-.62.26Z"/>
      <path class="cls-1" d="M86.19,129.26c-.35-.16-.65-.41-.69-.79-.03-.35.03-.73.14-1.06.12-.34.32-.66.55-.94.76-.91,1.54-1.8,2.32-2.7,1.27-1.44,2.55-2.87,3.83-4.3.12-.13.29-.22.43-.33.21-.16.77-.12,1.03.07.28.19.42.67.34.98-.23.81-.68,1.5-1.23,2.11-.49.54-1.03,1.04-1.57,1.53-1.58,1.41-3.03,2.91-4.01,4.82-.15.29-.38.39-1.15.59Z"/>
      <path class="cls-1" d="M153.71,134.12c-.07.21-.09.51-.24.72-.52.74-1.06,1.48-1.63,2.18-.52.63-1.07,1.24-1.65,1.82-1.6,1.64-3.02,3.41-4.02,5.48-.2.41-.44.8-.86,1.03-.14.07-.35.09-.51.07-.27-.03-.45-.31-.5-.56-.07-.38.03-.72.18-1.05.67-1.52,1.58-2.89,2.67-4.11,1.27-1.43,2.44-2.94,3.62-4.44.45-.57.96-1.09,1.47-1.61.12-.12.31-.19.48-.24.27-.07.55-.06.74.18.11.13.15.31.25.52Z"/>
      <path class="cls-1" d="M303.78,140.93c-.49-.05-.96-.63-.89-.99.02-.09,0-.19.02-.27.83-2.42,1.64-4.86,2.89-7.11.67-1.2,1.14-2.51,2.06-3.56.12-.14.23-.29.37-.39.14-.11.33-.16.49-.23.22-.09.65.04.73.24.06.16.14.37.09.5-.31.76-.62,1.53-1,2.25-1.41,2.58-2.58,5.25-3.47,8.05-.14.44-.29.89-.66,1.18-.2.16-.47.24-.64.33Z"/>
      <path class="cls-1" d="M91.69,129.44c-.3-.05-.61-.56-.52-.85.36-1.15,1-2.15,1.74-3.09.62-.79,1.26-1.57,1.92-2.32,1.03-1.16,2.12-2.27,2.98-3.57.14-.22.39-.37.6-.55.27-.23.75-.26,1.03-.07.33.22.52.55.49.92-.05.55-.24,1.07-.64,1.48-.7.72-1.37,1.47-2.1,2.17-1.46,1.4-2.74,2.93-3.91,4.58-.31.44-.69.84-1.09,1.22-.1.1-.34.06-.51.08Z"/>
      <path class="cls-1" d="M338.16,112.72c.45.13.79.25.93.64.13.36.1.73-.06,1.07-.49,1.08-1.14,2.07-1.87,3.01-.67.86-1.37,1.7-2.05,2.56-.5.64-.96,1.33-1.48,1.96-.35.41-.75.78-1.17,1.13-.35.29-.83.23-.98-.01-.21-.33-.31-.66-.15-1.02.06-.17.14-.34.25-.48.75-.93,1.44-1.88,1.99-2.94.04-.08.08-.17.14-.23,1.2-1.39,2.14-2.94,3.08-4.51.14-.23.31-.46.52-.63.27-.23.6-.4.84-.55Z"/>
      <path class="cls-1" d="M295.99,138.33c.29-1.18.53-2.44.91-3.65.45-1.48,1-2.93,1.54-4.39.29-.78.76-1.46,1.43-1.98.14-.11.29-.27.46-.28.25-.02.57,0,.76.13.17.14.36.5.3.69-.23.69-.48,1.38-.83,2.02-1.25,2.27-1.89,4.72-2.36,7.24-.05.27-.1.55-.21.79-.12.23-.3.45-.48.64-.41.41-1.15.21-1.31-.35-.08-.26-.12-.53-.18-.88Z"/>
      <path class="cls-1" d="M334.61,100.91c.07-.32.1-.78.25-1.2.21-.6.47-1.19.77-1.75,1.04-1.93,2.09-3.84,3.16-5.76.26-.48.61-.9,1.07-1.22.32-.22.68-.25,1.01-.09.28.14.49.62.31.96-.49.98-.98,1.95-1.52,2.91-.68,1.19-1.39,2.36-2.11,3.52-.58.94-1.07,1.9-1.28,3-.03.17-.15.33-.25.48-.17.24-.42.32-.71.32-.21,0-.59-.3-.61-.47-.03-.18-.06-.36-.11-.67Z"/>
      <path class="cls-1" d="M330.98,101.21c-.2-.13-.49-.23-.61-.43-.23-.41-.19-.89-.07-1.33.05-.17.11-.35.21-.5,1.77-2.77,3.56-5.54,5.34-8.3.05-.08.12-.14.18-.21.24-.31.7-.48.95-.34.31.16.47.59.35.94-.37,1.03-.76,2.06-1.35,2.99-.29.46-.59.92-.89,1.39-.99,1.53-1.99,3.06-2.98,4.6-.19.3-.39.62-.62.89-.11.13-.31.18-.51.31Z"/>
      <path class="cls-1" d="M128.95,119.68c-.41.16-1.05-.53-.98-1.05.03-.27.09-.55.23-.77.43-.69.82-1.44,1.39-2,1.17-1.16,2.19-2.42,3.27-3.64.66-.75,1.39-1.44,2.12-2.12.26-.25.62-.39,1-.35.27.03.53.1.68.36.14.25.23.53.06.76-.37.51-.75,1.03-1.19,1.48-1.2,1.24-2.44,2.44-3.67,3.66-.84.84-1.6,1.71-1.88,2.93-.11.45-.55.7-1.04.74Z"/>
      <path class="cls-1" d="M152.06,145.08c-.43.06-.93-.26-1.06-.67-.15-.46-.12-.91.13-1.32.19-.31.41-.61.66-.87,1.49-1.49,2.99-2.95,4.5-4.42.19-.19.41-.36.63-.53.45-.36.95-.38,1.21-.04.22.29.24.66,0,1-.37.52-.73,1.05-1.17,1.51-.76.79-1.56,1.53-2.37,2.28-.74.69-1.41,1.41-1.71,2.43-.1.35-.44.56-.83.62Z"/>
      <path class="cls-1" d="M63.42,142.3c.79-2.22,2.1-4.18,3.74-5.93.5-.53,1.04-1.03,1.57-1.53.28-.27.64-.33,1.01-.36.37-.02.73.23.86.54.12.29.02.55-.11.78-.13.23-.31.46-.51.64-1.81,1.7-3.35,3.62-4.63,5.75-.19.3-.47.55-.72.82-.23.24-.71.18-.95-.15-.1-.14-.15-.32-.25-.56Z"/>
      <path class="cls-1" d="M66.15,134.67c-.04.17-.04.38-.13.52-.5.77-.93,1.6-1.55,2.26-1.01,1.07-1.9,2.21-2.72,3.43-.24.36-.62.65-.95.95-.18.16-.58.14-.73-.07-.15-.21-.33-.48-.31-.71.02-.35.17-.71.33-1.02,1.15-2.21,2.67-4.14,4.32-5.99.11-.13.31-.19.47-.28.37-.21.96-.03,1.16.38.08.16.09.35.12.53Z"/>
      <path class="cls-1" d="M427.86,143.48c.24-2.21,1.15-4.18,2.07-6.14.27-.56.73-1.03,1.13-1.51.1-.13.29-.21.47-.24.16-.03.35-.02.5.05.15.07.27.23.37.34.13.6-.1,1.11-.32,1.59-.83,1.91-1.64,3.82-2.18,5.84-.06.24-.26.46-.41.69-.22.34-.89.39-1.21.07-.19-.18-.3-.45-.43-.68Z"/>
      <path class="cls-1" d="M100.9,126.27c-.65.04-1.26-.8-.96-1.35.62-1.12,1.26-2.22,1.95-3.3.44-.69.94-1.35,1.46-1.98.24-.29.63-.44.99-.3.44.16.81.47.84.99.02.35-.03.73-.15,1.06-.12.34-.35.64-.57.94-.8,1.11-1.61,2.22-2.45,3.31-.28.37-.64.65-1.13.64Z"/>
      <path class="cls-1" d="M78.45,132.31c-.44-.04-.78-.54-.69-.82.05-.17.07-.38.17-.52,1.39-1.94,2.65-3.97,4.21-5.77.17-.2.42-.33.65-.49.25-.18.8,0,.95.3.17.35.22.71.07,1.06-.22.5-.42,1.04-.76,1.45-1.29,1.54-2.64,3.05-3.99,4.54-.15.17-.47.2-.61.25Z"/>
      <path class="cls-1" d="M351.74,96.21v-.86c0-.82.26-1.17,1-1.38.61-.17,1.36.4,1.32,1.03-.02.35-.04.75-.2,1.06-.33.65-.69,1.29-1.16,1.85-.81.99-1.57,2.01-2.18,3.14-.08.16-.24.27-.35.41-.37.45-1.06.45-1.4-.06-.13-.2-.23-.55-.16-.76.15-.42.4-.82.66-1.18.81-1.1,1.65-2.18,2.47-3.25Z"/>
      <path class="cls-1" d="M302.23,107.48c-.03.18-.01.37-.08.53-.5,1.26-.95,2.54-1.2,3.88-.04.25-.23.49-.38.71-.39.56-1.52.61-1.92.07-.15-.2-.23-.48-.24-.74-.02-.27.02-.55.12-.79.53-1.35,1.07-2.69,1.63-4.03.06-.16.22-.28.34-.42.18-.22.69-.33,1-.23.44.15.79.63.75,1.02Z"/>
      <path class="cls-1" d="M328.8,120.37c.08-.28.16-.63.29-.96.47-1.19,1.2-2.23,1.91-3.29.36-.54.89-.91,1.48-1.17.21-.1.53-.08.76,0,.26.09.44.68.36.96-.02.09,0,.19-.05.26-.84,1.72-1.76,3.39-3.07,4.79-.06.06-.13.12-.21.18-.29.27-.89.18-1.19-.19-.1-.14-.16-.32-.28-.56Z"/>
      <path class="cls-1" d="M110.44,114.4c.37.12.62.36.71.9-.56,1.71-1.43,3.39-2.54,4.95-.26.36-.64.64-.98.92-.23.19-.78.14-1.01-.06-.29-.26-.42-.59-.35-.97.05-.26.15-.53.28-.76.77-1.33,1.57-2.66,2.36-3.98.3-.51.46-.6,1.53-1Z"/>
      <path class="cls-1" d="M88.74,87.15c-.04.72-.03,1.45-.15,2.16-.08.53-.31,1.04-.51,1.53-.13.33-.56.57-.86.53-.39-.06-.68-.3-.83-.63-.14-.33-.29-.71-.23-1.04.21-1.26.24-2.51.2-3.78-.02-.54.22-1.06.67-1.43.28-.24.6-.43.97-.29.35.13.64.42.67.79.05.72.01,1.44.01,2.17h.06Z"/>
      <path class="cls-1" d="M71.97,142.32c-.48-.02-.97-.74-.8-1.21.15-.42.28-.87.52-1.25.78-1.23,1.76-2.31,2.81-3.3.41-.38.93-.52,1.51-.44.44.06.76.65.53,1.02-.14.23-.26.48-.44.68-1.17,1.26-2.35,2.51-3.19,4.03-.18.33-.55.44-.93.47Z"/>
      <path class="cls-1" d="M138.55,114.42c-.25.93-.83,1.62-1.57,2.19-.87.66-1.76,1.29-2.47,2.15-.06.07-.15.11-.22.17-.31.23-.98.23-1.29-.01-.41-.31-.5-1.1-.19-1.49.11-.15.21-.3.36-.42,1.23-.95,2.4-1.97,3.47-3.1.06-.06.15-.1.23-.15.33-.2.68-.26,1.05-.15.4.12.55.44.63.81Z"/>
      <path class="cls-1" d="M310.21,141.4c-.34-.14-.65-.31-.78-.68-.14-.35-.19-.72-.06-1.07.22-.6.45-1.19.75-1.75.74-1.36,1.57-2.66,2.69-3.75.1-.1.33-.11.51-.08.27.02.47.31.45.58-.03.26-.03.55-.14.79-.26.58-.56,1.14-.85,1.71-.54,1.05-1.13,2.07-1.4,3.25-.06.25-.27.46-.43.68-.05.07-.14.12-.22.16-.17.07-.34.12-.52.17Z"/>
      <path class="cls-1" d="M155.51,144.1c.13-.27.22-.65.45-.91,1.11-1.34,2.26-2.65,3.39-3.96.06-.07.14-.12.21-.18.14-.12.6-.15.78-.04.3.18.48.67.34.95-.12.24-.21.5-.36.73-.25.38-.53.74-.81,1.11-.46.58-.74,1.22-.9,1.96-.19.88-1.17,1.42-2.13,1.31-.52-.07-.78-.43-.95-.97Z"/>
      <path class="cls-1" d="M321.9,142.14c0-1,.14-1.88.62-2.69.5-.86.92-1.77,1.62-2.49.18-.19.42-.35.67-.44.13-.06.35-.01.49.07.13.09.24.27.28.43s.01.36-.04.53c-.18.51-.3,1.06-.57,1.51-.57.96-.9,1.96-.92,3.08,0,.36-.26.66-.53.91-.4.37-1.18.25-1.4-.22-.11-.24-.16-.51-.22-.69Z"/>
      <path class="cls-1" d="M80.96,138.4c-.03.18-.02.38-.11.52-.14.23-.32.44-.53.62-1.11.95-2.15,1.95-2.8,3.3-.09.2-.43.32-.68.38-.26.07-.7-.3-.82-.61-.26-.64-.21-1.31.22-1.81.94-1.1,1.96-2.16,3.24-2.89.22-.13.51-.15.78-.19.32-.05.72.36.7.68Z"/>
      <path class="cls-1" d="M91.91,77.08c.04-.38.03-.75.13-1.1.23-.79.49-1.57.79-2.33.09-.24.31-.44.5-.63.21-.23.75-.32,1.02-.13.2.14.41.38.46.61.08.34.06.72.02,1.08-.11,1.09-.53,2.12-.55,3.24,0,.23-.23.48-.4.69-.24.31-.61.42-.98.34-.37-.08-.65-.35-.76-.71-.11-.34-.15-.71-.23-1.06Z"/>
      <path class="cls-1" d="M317.22,141.41c-.19-.16-.43-.3-.59-.51-.22-.31-.2-.7-.11-1.06.33-1.27,1-2.36,1.9-3.29.49-.52,1.1-.95,1.68-1.4.13-.11.33-.17.5-.16.16,0,.36.11.47.23.11.12.16.32.14.48,0,.17-.09.36-.2.5-1.14,1.43-2.16,2.95-2.88,4.64-.1.22-.1.22-.92.57Z"/>
      <path class="cls-1" d="M137.38,120.5c-.17-.05-.37-.07-.51-.16-.56-.36-.7-.91-.39-1.38.05-.07.07-.17.13-.24,1.14-1.29,2.39-2.46,3.83-3.42.08-.05.18-.09.26-.07.17.04.36.09.48.2.12.11.22.31.2.46-.09.64-.45,1.18-.88,1.64-.86.93-1.74,1.83-2.63,2.73-.12.12-.32.16-.48.24Z"/>
      <path class="cls-1" d="M75.45,129.4c0,.09,0,.19-.04.27-.11.25-.19.52-.35.73-.93,1.22-1.85,2.45-2.52,3.84-.1.21-.48.32-.72.25-.29-.08-.44-.31-.53-.57-.06-.17-.09-.36-.05-.53.39-1.86,1.33-3.36,2.92-4.43.15-.09.34-.13.51-.19.26-.08.83.38.78.62Z"/>
      <path class="cls-1" d="M88.9,139.07c.72.5.86.81.58,1.28-.6,1.02-1.15,2.06-1.46,3.21-.04.16-.21.29-.32.42-.29.36-.9.38-1.19.03-.3-.36-.56-.76-.45-1.24.38-1.66,1.13-3.06,2.84-3.71Z"/>
      <path class="cls-1" d="M161.35,146.57c-.14-.07-.4-.17-.61-.32-.3-.21-.47-.73-.37-.96.39-.92.79-1.84,1.2-2.75.07-.17.2-.3.3-.45.19-.29.62-.44.96-.34.3.09.65.51.65.8,0,.09.03.19,0,.28-.25.96-.48,1.94-.75,2.9-.13.48-.77.87-1.39.85Z"/>
      <path class="cls-1" d="M330.92,66.07c-.04.16-.04.47-.17.68-.55.85-.92,1.77-1.31,2.69-.06.16-.18.34-.33.43-.23.14-.48.26-.74.3-.28.05-.71-.33-.77-.66-.06-.26-.15-.58-.07-.8.41-1.01.86-2,1.34-2.98.12-.24.37-.39.57-.58.26-.23.74-.29,1.02-.12.34.21.47.53.47,1.03Z"/>
      <path class="cls-1" d="M435.4,142.3c.21.14.39.21.5.34.3.38.38.84.24,1.29-.33.95-.69,1.88-1.05,2.81-.06.17-.2.3-.3.46-.21.3-.63.47-.94.39-.4-.11-.61-.42-.69-.78-.08-.35-.16-.76-.04-1.07.41-1.1.82-2.23,1.62-3.12.17-.17.46-.22.66-.31Z"/>
      <path class="cls-1" d="M437.8,145.3c.23-1.28.84-2.39,1.66-3.39.19-.25.7-.39,1-.27.29.12.59.58.55.86-.04.27-.07.54-.14.8-.26.87-.53,1.75-.82,2.61-.12.35-.38.61-.77.71-.4.11-.86-.09-1.13-.56-.14-.23-.22-.5-.34-.77Z"/>
      <path class="cls-1" d="M92.66,144.34c-.43.03-1.15-.62-.86-1.29.07-.16.11-.35.2-.5.52-.84,1.06-1.66,1.59-2.5.2-.32.7-.27.87.09.12.23.26.49.27.75.07,1.12-.39,2.09-1.04,2.97-.21.29-.55.44-1.04.48Z"/>
      <path class="cls-1" d="M306.03,109.57c-.4.98-.99,1.89-1.81,2.64-.18.16-.49.21-.75.24-.3.02-.65-.36-.73-.72-.08-.37-.06-.75.14-1.06.53-.76,1.13-1.43,1.93-1.91.25-.14.78-.05.99.24.1.14.13.33.22.56Z"/>
      <path class="cls-1" d="M357.34,96.76c.1.47-.05.9-.33,1.26-.54.71-1.13,1.39-1.71,2.07-.22.26-.71.29-.98.09-.29-.22-.47-.66-.38-.94.06-.17.07-.36.18-.5.65-.98,1.44-1.83,2.46-2.44.31-.19.73.07.75.47Z"/>
      <path class="cls-1" d="M329.48,139.37c.09.97-.24,2.18-.77,2.87-.1.14-.27.24-.41.35-.34.25-.93.13-1.18-.25-.27-.4-.35-.84-.21-1.29.27-.88.78-1.61,1.55-2.14.12-.08.37-.09.51-.02.22.12.38.34.52.47Z"/>
      <path class="cls-1" d="M84.68,141.44c0,.09,0,.21-.03.27-.2.3-.36.65-.63.88-.82.71-1.68,1.4-2.55,2.05-.18.13-.5.13-.75.09-.25-.03-.38-.7-.21-.97.19-.3.37-.63.62-.89.75-.82,1.68-1.39,2.69-1.81.15-.06.37-.04.52.03.14.06.23.24.34.36Z"/>
      <path class="cls-1" d="M99.47,140.56c.19.07.43.07.51.18.57.85.54,1.86-.13,2.46-.46.41-.98.78-1.52,1.1-.32.19-.69.14-1-.12-.2-.17-.3-.53-.19-.72.04-.08.06-.18.12-.24.74-.89,1.48-1.79,2.21-2.66Z"/>
      <path class="cls-1" d="M64.48,126.9c0,.27.05.47,0,.62-.32.96-.84,1.77-1.71,2.33-.08.05-.17.12-.24.12-.25-.03-.56,0-.74-.15-.18-.14-.24-.44-.33-.68-.03-.07.03-.18.06-.26.37-1.05,1.02-1.88,1.99-2.43.13-.08.38-.1.5-.03.2.12.35.34.47.47Z"/>
      <path class="cls-1" d="M169.87,143.64c-.08.48-.38.8-.79,1.03-.36.21-.75.21-1.01.01-.44-.34-.64-.76-.47-1.15.14-.33.33-.63.53-.93.14-.21.5-.25.74-.14.51.24.88.62,1,1.18Z"/>
      <path class="cls-1" d="M446.45,144.86c.03.67-.12,1.26-.73,1.66-.33.21-.67.24-1.04.09-.29-.12-.56-.6-.51-.89.14-.77.6-1.3,1.23-1.72.25-.18.81.02.91.33.06.17.09.35.13.53Z"/>
      <path class="cls-1" d="M378.73,102.55c-.2,0-.29-.07-.28-.21.04.02.12.02.14.05.04.06.04.14.07.21l.06-.06Z"/>
      <path class="cls-1" d="M378.67,102.61c.1.07.19.15.28.23-.06-.02-.12-.02-.16-.06-.04-.07-.04-.15-.06-.23l-.06.06Z"/>
      <path class="cls-1" d="M222.15,85.87c-.04.47-.24.87-.53,1.24-1.09,1.36-2.28,2.65-3.59,3.8-2.42,2.12-4.48,4.59-6.71,6.9-.76.79-1.44,1.67-2.19,2.46-1.26,1.33-2.55,2.64-3.84,3.94-2.12,2.15-4.31,4.24-6.25,6.58-1.28,1.55-2.69,3-4.07,4.47-.31.33-.72.56-1.1.8-.28.18-.77.04-.97-.26-.12-.18-.16-.64-.05-.78.22-.29.43-.6.68-.86,1.46-1.52,2.93-3.03,4.39-4.55.63-.67,1.24-1.35,1.87-2.02.88-.94,1.73-1.9,2.63-2.8,2.53-2.53,5-5.11,7.29-7.87,1.05-1.27,2.22-2.43,3.34-3.65.1-.55.2-1.08.31-1.65.85-.93,1.8-1.8,2.78-2.62,1.05-.89,2.07-1.8,3.08-2.73.41-.38.84-.7,1.35-.93.68-.31.92-.25,1.58.54Z"/>
      <path class="cls-1" d="M238.42,131.71c-.4,0-.66.27-.92.52-.72.7-1.45,1.4-2.18,2.1-.15.15-.61.15-.77.02-.17-.14-.32-.57-.24-.74.04-.08.05-.18.1-.26.09-.16.17-.33.28-.47,4.65-5.3,8.97-10.87,13.51-16.26,1.65-1.96,3.19-4,4.8-6,1.32-1.64,2.63-3.29,3.98-4.9.95-1.12,1.86-2.26,2.68-3.48.32-.48.74-.8,1.24-1.06.4-.21.87-.12,1.24.25.2.2.27.55.14.74-.43.58-.85,1.18-1.32,1.74-1.94,2.31-3.92,4.6-5.85,6.91-.93,1.12-1.77,2.33-2.71,3.46-2.56,3.1-5.16,6.18-7.73,9.28-1.99,2.4-3.95,4.81-5.93,7.21-.24.29-.41.6-.39.99l.07-.08Z"/>
      <path class="cls-1" d="M218.12,42.14c.02-1.64,0-3.27.24-4.91.21-1.44.13-2.92.19-4.38.03-.64,0-1.29.15-1.9.3-1.26.31-2.53.35-3.81.05-1.92.04-3.83.48-5.72.21-.91.61-1.71,1.2-2.43.27-.32.66-.47.95-.32.33.16.61.59.52.88-.85,2.82-.91,5.76-1.28,8.65-.22,1.71-.19,3.46-.27,5.19-.02.55,0,1.1-.09,1.64-.59,3.9-.56,7.82-.24,11.74.02.27,0,.56-.07.81-.07.26-.24.46-.53.55-.3.1-.56,0-.76-.16-.2-.17-.38-.42-.44-.67-.22-.98-.44-1.96-.41-2.97.02-.73,0-1.47,0-2.2Z"/>
      <path class="cls-1" d="M174.56,105.93c.03-.27.05-.54.08-.91,1.65-2.2,3.48-4.36,5.43-6.41,3.02-3.17,6.12-6.28,9.12-9.48,1.62-1.74,3.42-3.29,5.11-4.95.38-.37.9-.61,1.39-.83.45-.21.89-.12,1.22.3.09.38-.05.7-.27,1-1.1,1.46-2.35,2.8-3.73,4-2.33,2.05-4.72,4.04-6.97,6.17-2.12,2.01-4.2,4.06-5.97,6.41-.99,1.3-2.18,2.45-3.07,3.84-.55.85-1.4,1.14-2.4.78l.07.08Z"/>
      <path class="cls-1" d="M288.31,71.13c-.05.18-.06.38-.16.51-1.81,2.41-3.6,4.83-5.45,7.22-2.63,3.39-5.32,6.73-7.93,10.14-1.22,1.59-2.31,3.29-3.47,4.93-.27.38-.56.75-1,.9-.23.08-.54.07-.78,0-.29-.08-.45-.68-.32-.95.04-.08.04-.19.09-.25,1.38-1.7,2.34-3.7,3.85-5.32.44-.47.79-1,1.16-1.53,1.97-2.75,4.07-5.39,6.24-7.98,1.05-1.26,1.96-2.64,2.9-3.98.63-.9,1.18-1.85,1.82-2.74.42-.59.92-1.13,1.42-1.65.45-.47,1.33-.19,1.56.46.02.08.02.17.05.26Z"/>
      <path class="cls-1" d="M163.58,98.06c.37-.48.68-.93,1.04-1.34,1.62-1.87,3.18-3.78,4.89-5.57,2.47-2.58,4.95-5.14,7.37-7.76,1.68-1.81,3.47-3.52,5.53-4.91.23-.15.48-.27.71-.4.28-.15.76-.03.98.26.16.2.23.62.12.76-.28.35-.53.75-.87,1.05-1.89,1.73-3.77,3.48-5.72,5.14-1.47,1.25-2.85,2.56-4.14,4-.91,1.02-1.91,1.96-2.87,2.95-.38.39-.78.77-1.13,1.19-.77.91-1.49,1.86-2.28,2.75-.67.75-1.23,1.56-1.66,2.49-.41.91-1.26.84-1.87-.09-.05-.07-.04-.17-.12-.52Z"/>
      <path class="cls-1" d="M226.03,25.84c-.08,1.37-.17,2.65-.22,3.92-.07,1.83-.11,3.66-.17,5.48-.03.73-.01,1.48-.16,2.19-.49,2.41-.07,4.73.58,7.03.18.62.37,1.22.59,1.92-.08.28-.15.64-.29.97-.17.41-.55.66-.83.58-.36-.09-.77-.26-.84-.62-.44-2.04-1.23-4.01-1.22-6.16.01-1.92-.09-3.84.11-5.75.06-.54.05-1.1.05-1.65,0-1.19.03-2.37.19-3.55.15-1.09.12-2.19.19-3.28.03-.56.21-1.07.53-1.54.35-.5.98-.5,1.33.04.09.15.14.33.17.4Z"/>
      <path class="cls-1" d="M265.37,92.67c-.15-.09-.35-.16-.42-.29-.07-.14-.09-.38,0-.52.23-.39.51-.75.77-1.12,2.12-3,4.29-5.94,6.75-8.67,1.05-1.16,2-2.38,2.87-3.68.71-1.06,1.55-2.04,2.36-3.02.16-.19.46-.31.72-.36.38-.08.71.06.97.37.22.26.28.76.09,1.02-.76,1.03-1.49,2.09-2.32,3.06-1.5,1.73-2.96,3.49-4.59,5.12-1.56,1.56-2.83,3.37-4.15,5.13-.77,1.03-1.53,2.07-2.54,2.87-.12.1-.34.08-.51.11Z"/>
      <path class="cls-1" d="M221.79,128.33c-.22.05-.42-.01-.46-.22-.06-.26-.13-.56-.05-.79.16-.42.38-.83.64-1.2,1.9-2.58,3.83-5.14,5.75-7.7.88-1.17,1.77-2.33,2.65-3.5.61-.81,1.27-1.56,2.07-2.19.37-.29.82-.38,1.29-.16.42.2.64.8.4,1.16-.16.22-.29.47-.48.66-1.33,1.39-2.54,2.88-3.73,4.39-2.38,3.02-4.74,6.05-7.21,8.99-.23.28-.49.55-.87.55Z"/>
      <path class="cls-1" d="M226.85,36.94c-.03-1.73-.07-3.46-.09-5.19,0-.45,0-.91.04-1.36.06-.67.38-1.2.88-1.64.44-.39,1.15-.23,1.32.34.05.17.13.35.13.53-.05,2.64-.13,5.28-.15,7.92,0,1-.2,1.98-.12,2.99.07.98-.13,1.99-.24,2.98-.03.27-.13.53-.21.79-.09.29-.66.47-.92.32-.33-.2-.57-.47-.64-.84-.07-.35-.07-.72-.07-1.09,0-1.91,0-3.82,0-5.73.02,0,.05,0,.07,0Z"/>
      <path class="cls-1" d="M193.73,58.62c-1.18,2.32-2.25,4.53-3.4,6.69-.94,1.77-1.78,3.57-2.33,5.5-.07.26-.18.52-.3.76-.17.34-.46.54-.85.6-.83-.38-.93-1.11-.72-1.84.29-1.05.68-2.08,1.09-3.08.84-2.02,1.71-4.02,2.59-6.02.41-.92.85-1.82,1.33-2.69.17-.3.49-.53.78-.74.47-.35.96-.27,1.46.21.12.12.18.31.35.61Z"/>
      <path class="cls-1" d="M191.89,71.67c.32-1.65.55-3.27.95-4.85.52-2.02,1.03-4.05,1.79-6.01.06-.17.15-.33.25-.48.1-.15.21-.29.35-.41.29-.26.63-.32,1.01-.22.29.08.63.54.6.83-.08.9-.12,1.81-.44,2.68-.47,1.28-.87,2.58-1.3,3.88-.46,1.38-.85,2.79-.87,4.26,0,.27-.1.53-.17.79-.1.38-.62.82-1.01.79-.37-.03-.71-.19-.87-.55-.12-.24-.21-.5-.29-.71Z"/>
      <path class="cls-1" d="M220.82,115.51c-.1.28-.14.58-.29.79-.61.79-1.19,1.62-1.89,2.33-2.12,2.14-4.05,4.43-5.84,6.84-.16.22-.37.4-.56.6-.22.22-.76.28-1.02.12-.27-.17-.48-.68-.38-.95.09-.25.16-.54.32-.74,1.36-1.7,2.62-3.49,4.15-5.06,1.01-1.04,1.87-2.23,2.84-3.32.42-.47.91-.88,1.42-1.25.17-.12.56-.08.77.03.21.11.32.41.48.63Z"/>
      <path class="cls-1" d="M261.84,90.86c-.19-.1-.36-.16-.49-.27-.21-.19-.35-.45-.23-.74.14-.33.32-.66.53-.95,1.51-2.07,3.04-4.13,4.55-6.2.81-1.11,1.59-2.24,2.39-3.36.16-.22.32-.46.53-.62.21-.17.47-.32.72-.35.24-.03.53.05.76.15.26.12.35.7.24,1-.3.78-.83,1.41-1.34,2.06-.8,1-1.67,1.95-2.4,3-1.41,2.04-3.16,3.8-4.62,5.79-.16.21-.43.32-.64.47Z"/>
      <path class="cls-1" d="M201.89,71.44c-.07-2.23.48-4.34,1.24-6.4.15-.41.47-.77.75-1.12.1-.13.31-.18.49-.23.52-.15,1.14.42,1.02.95-.16.71-.29,1.43-.53,2.12-.67,1.9-1.12,3.85-1.22,5.87-.02.34-.2.69-.37,1-.07.14-.27.22-.44.29-.14.06-.63-.21-.68-.37-.09-.25-.23-.5-.26-.76-.04-.46,0-.91,0-1.37Z"/>
      <path class="cls-1" d="M216.73,66.02c0,.1.03.2,0,.28-.74,2.06-1.32,4.15-1.55,6.34-.04.34-.25.68-.4,1-.13.27-.69.52-.94.38-.23-.13-.49-.31-.58-.53-.13-.33-.2-.71-.16-1.06.18-1.63.38-3.25.86-4.83.25-.83.74-1.45,1.33-2.03.45-.43.89-.37,1.35.21.05.07.06.17.09.24Z"/>
      <path class="cls-1" d="M199.33,68.78c0,.99,0,2.26,0,3.52,0,.27-.08.53-.14.8-.09.4-.71.67-1.1.49-.54-.24-.92-.66-.94-1.23-.05-2.09-.02-4.17.48-6.21.1-.42.4-.8.64-1.18.17-.27.7-.38.98-.25.3.14.63.58.59.84-.15.98-.31,1.97-.51,3.23Z"/>
      <path class="cls-1" d="M231.18,39.72c-.03-.42-.17-1.32-.18-2.23,0-.65.22-1.26.79-1.66.13-.09.33-.12.5-.14.22-.02.54.27.58.49.05.27.11.54.12.8.03.91.14,1.81.25,2.71.15,1.26.1,2.54.13,3.81,0,.09-.04.18-.06.26-.07.37-.62.8-1,.79-.41,0-.69-.25-.85-.58-.15-.32-.25-.69-.26-1.04-.04-.91-.02-1.82-.02-3.22Z"/>
      <path class="cls-1" d="M210.65,64.34c.17.14.37.31.55.46.03.24.09.43.06.59-.6,2.3-1.19,4.6-1.54,6.96-.06.36-.32.64-.63.86-.27.19-.89.09-.94-.2-.11-.53-.33-1.09-.26-1.61.19-1.54.45-3.08.79-4.6.14-.61.51-1.17.83-1.72.24-.4.62-.67,1.16-.74Z"/>
      <path class="cls-1" d="M256.42,90.75c-.18-.14-.36-.22-.43-.35-.17-.33-.19-.71-.03-1.05.16-.33.35-.63.57-.92,1.03-1.38,2.28-2.59,3.22-4.05.04-.07.13-.12.2-.19.27-.27.95-.35,1.27-.15.33.2.5.84.28,1.22-.27.47-.53.97-.88,1.36-1.14,1.3-2.31,2.56-3.5,3.81-.16.18-.47.22-.69.31Z"/>
      <path class="cls-1" d="M222.4,65.8c.21-.04.56.24.58.47.02.18.08.38.03.54-.37,1.13-.59,2.29-.7,3.48-.08.81-.35,1.6-.55,2.39-.07.28-.59.54-.89.48-.29-.06-.47-.27-.61-.5-.05-.08-.09-.16-.1-.25-.14-1.37-.11-2.74.01-4.1.04-.47.22-.9.54-1.24.37-.4.77-.77,1.19-1.13.12-.1.34-.09.51-.14Z"/>
      <path class="cls-1" d="M254.94,5.11c-.02.18,0,.38-.07.52-.13.23-.29.49-.51.62-1.39.88-2.79,1.74-4.2,2.59-.23.14-.53.08-.77-.09-.27-.2-.47-.75-.34-.98.19-.31.35-.66.62-.89,1.28-1.06,2.7-1.88,4.25-2.48.33-.13.92.29,1.02.71Z"/>
      <path class="cls-1" d="M235.9,66c.36.15.68.41.65.79-.1,1.27-.27,2.54-.41,3.8-.01.09-.06.17-.09.25-.11.35-.71.76-1.07.72-.39-.04-.68-.26-.87-.58-.13-.23-.25-.52-.23-.77.06-.91.1-1.83.3-2.71.19-.86.76-1.44,1.72-1.5Z"/>
      <path class="cls-1" d="M250.49,45.17c-.02.18-.03.82-.13,1.44-.08.47-.43.79-.9.92-.44.12-.98-.09-1.15-.49-.11-.25-.26-.52-.24-.77.08-1.09.18-2.17.33-3.25.05-.36.3-.64.63-.85.6-.37,1.42-.04,1.46.63.04.63,0,1.27,0,2.35Z"/>
      <path class="cls-1" d="M242.25,45.8c-.62.11-1.24-.4-1.24-.92.01-1.47.26-2.88,1.04-4.15.05-.08.12-.13.18-.2.19-.21.73-.29,1.01-.15.31.15.59.58.54.87-.16,1.07-.3,2.15-.51,3.22-.06.34-.26.67-.47.96-.15.2-.42.3-.55.38Z"/>
      <path class="cls-1" d="M235.69,41.9c0-.95-.03-1.41,0-1.86.02-.27.13-.53.22-.78.16-.44.82-.55,1.14-.23.4.41.67.9.7,1.45.06.91.02,1.83.02,2.74,0,.09-.06.17-.09.26-.09.37-.64.73-1.06.7-.41-.03-.9-.49-.93-.87-.02-.18-.06-.36-.05-.54.02-.46.06-.92.06-.88Z"/>
      <path class="cls-1" d="M225.83,69.51c.16-.65.32-1.27.82-1.71.19-.17.45-.28.7-.34.14-.03.4.06.46.17.18.3.38.64.41.97.13,1.26-.05,2.51-.51,3.69-.16.41-.8.52-1.14.22-.28-.25-.5-.54-.54-.9-.09-.71-.14-1.43-.2-2.11Z"/>
      <path class="cls-1" d="M239.27,72.06c-.47-.07-.85-.3-1.01-.76-.09-.24-.14-.53-.11-.78.13-.81.46-1.56.86-2.27.08-.14.27-.23.42-.31.38-.2,1.02.15,1.05.56.06.91.05,1.8-.27,2.67-.17.45-.48.75-.94.91Z"/>
    </g>
  </g>
</svg>