<?xml version="1.0" encoding="UTF-8"?>
<svg id="Layer_2" data-name="Layer 2" xmlns="http://www.w3.org/2000/svg" viewBox="0 0 228.7 88.29">
  <defs>
    <style>
      .cls-1 {
        fill: #753d22;
        fill-rule: evenodd;
      }
    </style>
  </defs>
  <g id="Layer_2-2" data-name="Layer 2">
    <g>
      <path class="cls-1" d="M129.59,36.28s-.08-.09-.12-.09c-.17,0-.33,0-.5.02-.04,0-.07.05-.11.08.08.02.16.05.23.05.17,0,.33-.04.5-.05h0ZM118.68,3.68c-.08.03-.2.03-.24.09-.21.29-.41.57-.57.89-.04.09.1.28.19.38.04.05.18.04.25,0,.56-.25.8-.83.55-1.28-.03-.05-.12-.06-.19-.09h0ZM144.68,68.51c-1.09-.24-1.81.07-2.5.56-.07.05-.1.15-.16.23.14.08.3.23.44.22.74-.06,1.37-.42,2.22-1.01h0ZM81.48,57.39c2.49.6,2.78.62,4.03.28-1.29-.43-2.52-.66-4.03-.28h0ZM116.48,10.27c-1.22.02-2.5-.12-3.78.16-.08.02-.15.11-.22.17.11.09.22.28.33.27,1.29-.1,2.57-.25,3.86-.37-.04-.05-.08-.1-.18-.23h0ZM100.33,63.4c3.08-.06,3.51-.14,5.26-.99-1.72-.33-3.3-.19-5.26.99h0ZM151.62,53.68c.94.62,1.75.88,2.62.07.43-.4.99-.51,1.55-.6,1.9-.31,3.81-.64,5.71-.96-.75-.12-1.49-.18-2.22-.08-1.75.24-3.5.51-5.25.84-.78.15-1.53.46-2.41.73h0ZM113.5,12.24c-4.34-.09-7.05.4-9.37,1.72.17.06.33.16.51.16,2.71-.02,5.32-.88,7.99-1.24.33-.04.73-.22.87-.64h0ZM80.09,39.52c-2.22-.04-4.43-.28-6.67.04-.27.04-.54.14-.8.23-.06.02-.12.12-.13.19-.02.09-.03.21.02.26.11.14.25.29.41.34,2.39.64,4.76.28,7.12-.51.06-.02.03-.31.06-.56h0ZM86.56,31.06c2.87-.38,5.36-.69,7.84-1.05.67-.1,1.21-.51,1.67-1,.06-.07.12-.2.1-.25-.07-.13-.19-.35-.28-.34-1.39.11-2.8.12-4.16.42-1.53.35-3.02.97-4.52,1.5-.14.05-.25.27-.64.72h0ZM106.28,16.15c0,.06,0,.12.01.17.84-.04,1.68-.07,2.52-.12.54-.02.82-.42,1.04-.85.07-.14.06-.39-.02-.51-.09-.12-.33-.22-.47-.19-1.92.5-3.9.51-5.84.84-.76.13-1.49.19-2.21-.02-.48-.14-.92.01-1.33.29-.31.21-.64.39-.92.65-.12.1-.2.36-.15.5.03.12.29.23.43.21,1.11-.13,2.23-.3,3.34-.45,1.2-.18,2.41-.36,3.61-.53h0ZM102.99,19.29v-.19c1.67-.08,3.34-.13,5.02-.25.2-.01.43-.3.57-.52.14-.2-.1-.54-.39-.58-.73-.1-1.46-.25-2.19-.23-1.4.03-2.79.07-4.17.45-.8.22-1.66.25-2.5.38-.27.04-.55.11-.82.17-.2.05-.52.56-.4.67.12.12.27.28.41.27,1.49-.04,2.98-.12,4.47-.19h0ZM81.48,37.92c.15-.33.33-.65.44-1,.16-.57-.1-.99-.59-.96-.36.02-.74.02-1.1.09-1.64.29-3.29.59-4.92.92-.45.09-.89.26-1.33.44-.14.06-.31.25-.32.38,0,.12.17.33.31.34.35.07.73.09,1.09.08,2.11-.09,4.23-.2,6.42-.29h0ZM75.25,43.22c-.21-.44-.54-.57-.92-.6-1.02-.05-2.05-.05-3.06-.17-.75-.1-1.47,0-2.21.14-.92.19-1.86.41-2.77.38-1.61-.05-3.14.44-4.71.69-.18.03-.36.14-.5.25-.13.11-.25.28-.3.44-.01.06.22.26.33.25,3.82-.21,7.64-.43,11.46-.69.91-.06,1.81-.26,2.67-.69h0ZM107.02,24.27c-.23-.07-.4-.17-.57-.17-2.41-.02-4.81.18-7.22.49-1.1.14-2.2.41-3.3.62-.65.11-.95.56-1.15,1.11-.06.16-.05.36-.04.54.01.2.37.37.66.32,2.94-.48,5.87-.98,8.81-1.45.84-.13,1.66-.3,2.38-.77.2-.13.28-.44.42-.69h0ZM90.06,31.91c-2.08.09-4.12.14-6.15.29-1.21.08-2.48.11-3.6.52-1.86.66-3.63,1.6-5.42,2.44-.12.06-.23.32-.22.46.02.11.25.28.37.27,2.76-.49,5.53-1.01,8.3-1.5,2.22-.39,4.3-1.35,6.45-2.01.11-.04.17-.27.28-.46h0ZM97.73,20.86c-.25.25-.43.36-.5.52-.29.6-.55,1.21-.8,1.81-.09.22.21.6.45.56,2.7-.32,5.39-.65,8.08-.99.75-.1,1.48-.26,2.22-.4.54-.1.77-.52.96-.96.12-.27,0-.63-.23-.68-.36-.07-.72-.15-1.09-.19-3.07-.27-6.13.04-9.08.33h0ZM146.13,48.48c.45-.82.87-1.56,1.28-2.3.79-1.41,1.6-2.8,1.97-4.39.12-.53.74-.9,1.31-.88.37,0,.74.08,1.1.09,1.12.03,2.23.06,3.35.05.61,0,1.01-.42,1.18-1.04.27-1.11.32-2.22.19-3.34-.07-.52-.38-.8-.82-1-.17-.08-.34-.15-.51-.19-2-.42-3.86-1.17-5.66-2.11-.64-.34-1.35-.56-2.05-.79-1.07-.33-2.15-.42-3.3-.13-1.18.29-2.38.53-3.59.73-.86.15-1.41.65-1.59,1.43-.27,1.18-.41,2.39-.58,3.59,0,.1.24.34.34.31.64-.13,1.27-.32,1.9-.5.36-.1.73-.2,1.09-.29.28-.06.8.31.83.59.04.31-.12.56-.38.67-.6.27-1.21.52-1.84.72-1.16.38-2.34.71-3.51,1.08-.16.05-.29.23-.41.37-.05.06-.08.18-.06.27.01.06.1.16.14.16.36,0,.74.04,1.09-.04,1-.2,2.01-.46,3.01-.67.37-.08.78.26.78.56,0,.33-.18.53-.44.65-.78.35-1.57.62-2.41.78-1.1.21-2.19.55-3.27.83-.06.01-.1.14-.12.21-.05.2.06.41.26.37,1.67-.27,3.34-.51,5.02-.53.46,0,.94,0,1.38.1.22.06.4.35.51.59.04.1-.12.41-.23.45-.8.26-.68,1.04-1.09,1.78-1.82-.1-3.67.47-5.97,1.14,1.37.08,2.31.16,3.18-.27,1.16-.57,2.38-.49,3.57-.61.78-.08,1.45.13,1.9.85.58.93,1.5.85,2.42.69h0ZM135.59,38.83c-.87-.2-1.79-.35-2.49-1.01.1-.17.16-.34.27-.45.39-.39.5-.76.18-1.23-.14-.21-.19-.5-.23-.76-.15-.87-.4-1.09-1.2-1-1.12.12-2.23.26-3.35.36-.26.02-.54-.07-.8-.14-.06,0-.15-.13-.14-.17.03-.16.08-.39.19-.45.78-.43,1.65-.29,2.47-.45.54-.1,1.07-.31,1.61-.5.22-.08.37-.53.25-.71-.1-.14-.21-.35-.35-.37-.45-.06-.92-.12-1.38-.07-.93.08-1.86.23-2.78.33-.36.04-.66-.29-.69-.71-.03-.34.3-.82.6-.86.47-.06.93-.11,1.39-.16.83-.08,1.67-.15,2.5-.27.13-.02.27-.23.35-.38.1-.18-.14-.64-.34-.67-.35-.07-.72-.16-1.08-.16-1.03.01-2.05.08-3.08.1-.29,0-.51-.17-.61-.46-.11-.31.12-.79.45-.92.35-.14.7-.3,1.06-.37.65-.12,1.3-.19,1.95-.27.36-.04.75-.07,1.11-.11.28-.04.52-.38.41-.59-.08-.15-.17-.38-.3-.4-.53-.11-1.08-.21-1.63-.23-.82-.02-1.66.08-2.5.06-.28,0-.46-.29-.45-.58.01-.27.01-.6.33-.72.35-.13.71-.26,1.07-.29.95-.08,1.86-.29,2.73-.65.17-.08.34-.2.44-.34.1-.14.17-.36.13-.51-.04-.14-.21-.3-.35-.34-.83-.25-1.66.19-2.5.14-.12-.01-.25-.18-.34-.3-.04-.05-.02-.21.03-.26.74-.87,1.47-1.75,2.24-2.59.28-.3.68-.33,1.04-.18.85.34,1.7.69,2.53,1.06,1.92.86,3.83,1.76,5.76,2.59.92.39,1.9.68,2.84,1.04.83.3,1.36.8,1.42,1.79.07,1.2.34,2.38.47,3.57.08.71-.35,1.23-1.12,1.41-1.19.28-2.38.52-3.58.78-.45.1-.93.17-1.36.33-.54.2-1,.57-1.18,1.16-.22.72-.41,1.45-.62,2.18-.32,1.09-.63,2.18-.98,3.25-.05.16-.23.29-.38.47h0ZM59.98,57.46c1.25-2.55,1.67-3.13,3.21-4.5.44-.39.9-.71,1.5-.75,1.06-.07,2-.46,2.89-1.07.8-.55,1.7-.8,2.65-.9,1.02-.1,2.04-.24,3.07-.4.58-.09,1.06-.41,1.33-.96.51-1.01.93-2.06,1.09-3.19.01-.12-.17-.35-.3-.38-.35-.09-.72-.13-1.09-.12-4.19.19-8.39.39-12.58.59-.38.02-.75.05-1.12.09-1,.12-1.39.5-1.64,1.63-.03.13.1.38.21.42.25.09.54.14.8.11,1.49-.2,2.97-.44,4.45-.64.38-.05.73.02,1.03.28.18.16.23.59.04.73-.23.15-.46.38-.71.42-.92.14-1.85.22-2.79.33-1.02.11-2.04.19-3.06.34-.49.08-.81.44-1,.92-.16.38.05.86.4.81.83-.11,1.67-.25,2.5-.34.57-.06,1.11.07,1.53.46.11.1.16.33.13.48-.03.15-.19.38-.31.4-.83.11-1.66.15-2.5.26-.74.1-1.49.19-2.2.4-.54.16-.99.54-1.19,1.14-.13.43-.01.78.35.87.53.12,1.14-.09,1.59.33.12.11.26.3.25.45,0,.15-.17.34-.32.43-.24.14-.52.27-.79.29-2.97.2-5.95.58-8.93.27-1.62-.16-3.17.14-4.29,1.6-.06.07-.11.22-.08.26.09.12.23.3.34.28,1.02-.12,2.04-.24,3.05-.44,1.1-.24,2.18-.59,3.28-.83.2-.04.48.2.66.37.16.15-.01.57-.23.71-.67.4-1.4.56-2.15.69-2.22.38-4.44.76-6.66,1.16-.36.07-.71.23-1.05.37-.06.03-.14.17-.12.22.06.14.19.38.26.37,1.2-.18,2.4-.43,3.6-.6.45-.06.92.01,1.37.08.13.02.3.24.3.38,0,.15-.14.39-.28.44-.43.18-.88.32-1.34.41-1.56.3-3.13.56-4.71.85-.87.16-1.6.58-2.08,1.35-.13.21-.13.49-.22.84.72.04,1.37.05,2.01.11.27.03.55.09.79.22.11.06.15.29.19.45,0,.04-.09.17-.15.19-.54.13-1.09.24-1.63.38-1,.25-2,.49-2.98.8-.2.07-.33.43-.44.68-.08.19.24.48.54.47.93,0,1.89.11,2.78-.09,1.76-.4,3.52-.57,5.29-.79,3.03-.39,3.06-.42,4.48-3.18.48-.93.93-1.86,1.44-2.78.49-.85,1.22-1.48,2.11-1.86.95-.41,1.93-.83,2.93-1,1.5-.25,2.87-.89,4.46-1.34h0ZM109.42,62.36c.24-.28.38-.58.55-.62.64-.13,1.3-.2,1.95-.23,2.33-.12,4.66-.21,6.99-.31.28,0,.57.01.84-.05.24-.07.52-.2.67-.39.2-.27.02-.58-.2-.72-.47-.32-.84-.6-.72-1.31.09-.46-.41-.9-.83-.9-.93,0-1.86-.05-2.79.08-1.48.2-2.95.51-4.43.79-.16.03-.35.18-.45.32-.09.14-.11.34-.12.53,0,.06.12.14.21.16.36.06.71.14,1.07.13.92-.01,1.85-.25,2.84-.11-.32.37-.67.29-.98.3-1.3.08-2.61.17-3.91.18-.21,0-.53-.24-.6-.45-.39-1.15-.4-2.36-.16-3.57.05-.22.35-.51.57-.56,1.01-.2,2.02-.36,3.04-.47.74-.08,1.49-.07,2.23-.12.25-.02.53-.38.46-.6-.05-.17-.13-.38-.26-.44-.34-.14-.7-.28-1.06-.27-1.02.03-2.05.15-3.07.23-.37.03-.74.02-1.1,0-.06,0-.14-.09-.16-.15-.02-.08-.02-.19.02-.27.31-.55.83-.79,1.39-.9,1.38-.27,2.77-.48,4.15-.74.27-.05.53-.17.78-.28.08-.03.19-.15.18-.19-.05-.17-.1-.38-.22-.47-.22-.15-.49-.29-.74-.28-.75.04-1.49.17-2.23.23-.12,0-.26-.12-.39-.19.11-.15.19-.37.33-.44.68-.33,1.37-.64,2.06-.95.46-.21.92-.15,1.34.06,1.31.65,2.63,1.28,3.92,1.96.97.52,1.85,1.19,2.6,1.99.39.42.57.93.43,1.52-.04.18-.06.38-.15.55-.96,1.87-.09,3.25,1.09,4.47,1.72,1.77,3.9,2.65,6.42,2.74,1.49.06,2.97.08,4.38.58.61.22,1.2.46,1.82.62,1.05.28,1.72.98,2.34,1.8.58.78.88,1.6.43,2.58-.04.08-.06.18-.07.27-.25,1.89-.55,2.04-2.29,2.2-.65.06-1.3.12-1.96.15-.95.05-1.92-.05-2.71-.47-1.53-.81-3.25-1.29-4.68-2.3-1.34-.96-2.86-1.6-4.46-2.05-2.58-.72-5.16-1.38-7.86-1.6-1.31-.11-2.6-.11-3.89.25-2.19.62-4.43.73-6.66,1.01-2.04.25-4.08.58-6.12.89-.5.08-.86.39-.94.91-.06.31-.21.56-.48.64-.83.23-1.59.58-2.28,1.11-.3.22-.76.16-.76-.04.01-.18-.02-.37.06-.51,1.99-3.45,2.22-3.35,5.44-3.81,1.58-.23,3.15-.49,4.72-.71,1.94-.27,3.91-.27,5.87-.41.36-.02.74-.09,1.09-.14.25-.04.34-.2.24-.41-.07-.16-.12-.36-.25-.44-.23-.13-.5-.23-.77-.25-.55-.07-1.11-.08-1.81-.12h0ZM140.77,63.61c.33-.17.64-.42.98-.48.92-.17,1.86-.25,2.78-.39,1.58-.24,3.14-.52,4.71-.78.09,0,.2-.06.24-.13.09-.14.21-.31.2-.45-.02-.16-.14-.35-.28-.41-.24-.11-.53-.18-.79-.17-.55.02-1.11.09-1.67.16-1.57.24-3.15.51-4.72.76-.92.14-1.89.48-2.76.35-1.35-.21-2.78-.23-4.09-.96,2.89-.92,5.77-1.06,8.66-1.2,1.12-.05,2.23-.03,3.35-.1.98-.05,1.83-.41,2.32-1.38.23-.43.62-.7,1.06-.91,1.52-.75,3.02-1.62,4.78-1.29,2.43-.2,4.85-.22,7.26-.01.83.06,1.67.02,2.51.01.56,0,1.12-.05,1.68-.06,1.06-.02,1.38.25,1.42,1.22.03.75,0,1.49.02,2.23,0,.37-.03.77.09,1.1.55,1.66,1.02,3.35,1.75,4.92.57,1.24,1.35,2.38,1.64,3.75.04.18.18.32.3.46.16.2.32.46.66.33.17-.07.35-.18.43-.32.22-.42.4-.86.59-1.28-.29-1.14-.82-2.1-1.37-3.04-.6-1.03-1.13-2.08-1.25-3.32-.05-.54-.35-1.04-.52-1.56-.16-.53-.38-1.05-.43-1.59-.05-.64,0-1.31.46-1.87.28-.35,1.36-.24,2.06.29,1.24.93,2.44,1.91,3.62,2.84.71.27,1.34-.08,1.96-.25,1.27-.35,2.54-.7,3.85-.83.55-.06,1.09-.26,1.64-.38.55-.1,1.1-.23,1.66-.26,1.18-.1,1.74.41,1.8,1.54.06,1.12.08,2.23.17,3.35.05.71.47,1.18,1.11,1.44.25.11.52.2.78.25,1.81.38,2.82,1.57,3.33,3.27.02.06-.04.16-.06.27-2.02.36-4.02.96-6.09.96-.87,0-1.66.34-2.41.75-.77.41-1.57.62-2.42.72-.65.07-1.29.24-1.93.36-1.4.24-2.79.35-4.18.14-.28-.04-.55-.13-.83-.1-2.58.28-4.66-.9-6.77-2.01-.49-.26-.96-.55-1.44-.8-1.3-.71-2.68-1.15-4.18-1.34-1.1-.14-2.18-.39-3.26-.61-2.92-.58-5.85-.89-8.85-.2-.36.08-.77.2-1.1.13-1.87-.4-3.71,0-5.55.33-.27.05-.55.03-.83.02-.05,0-.14-.1-.14-.15.01-.09.07-.21.14-.24.33-.19.65-.41,1-.5,1.82-.5,3.67-.81,5.53-1.05.45-.06.92-.12,1.27-.52.17-.18.2-.33.02-.49-.2-.17-.41-.42-.64-.45-.54-.05-1.12-.07-1.66.04-1.84.38-3.67.8-5.49,1.26-.87.21-1.44-.06-1.86-.76-.09-.16-.15-.34-.26-.6h0ZM81.37,42.52c.74-1.45,1.37-2.72,2.04-3.98.93-1.77,2.32-2.95,4.26-3.52,1.54-.45,3.06-.95,4.65-1.14.37-.04.75.02.95.41.28.5.71.79,1.24,1.01,2.57,1.04,4.71,2.78,6.89,4.41.17.13.31.56.22.74-.71,1.32-1.32,2.73-2.53,3.74-.15.12-.33.21-.44.36-.12.14-.28.32-.27.47.08,1.18-.64,2.16-.88,3.25-.14.63-.19,1.29-.22,1.94-.04.84,0,1.67-.05,2.51-.05.84-.54,1.36-1.43,1.48-2.14.26-4.25.67-6.31,1.42-.72.26-1.46.32-2.21.18-.73-.12-1.46-.26-2.19-.35-1.2-.15-2.4-.22-3.62-.03-.77.12-1.45.41-2.06.9-.8.65-1.58,1.34-2.37,2q-.01,2.53-.76,4.95c-.25.8-.37,1.67-.75,2.41-.34.65-.97,1.17-1.46,1.74-.19.21-.36.42-.6.7-1.19-.22-2.27-.67-3.32-1.23-.72-.39-1.45-.78-2.21-1.08-1.38-.54-2.82-.78-4.35-.61-1.3.14-2.62.14-3.92.19-.37.01-.76.05-1.12,0-2.02-.35-4.04-.4-6.08.16-.07.01-.19-.06-.23-.13-.08-.15-.13-.31-.16-.48-.01-.08.04-.19.09-.26.77-1.33,1.8-2.46,2.95-3.46.34-.29.83-.46,1.26-.59.45-.12.93-.19,1.39-.17,1.42.04,2.76-.54,4.15-.68.39-.05.68-.34.85-.7.21-.42.36-.87.53-1.31.28-.72.63-1.37,1.16-1.95.79-.86,1.66-1.54,2.86-1.74.83-.14,1.64-.44,2.47-.58.83-.14,1.67-.17,2.5-.25,1.24.51,2.38-.23,3.55-.44.41-.07.7-.38.76-.76.16-1.23.61-2.35,1.12-3.49.35-.77.5-1.62.85-2.4.33-.75.33-1.44.02-2.15-.11-.27.22-.85.51-.92.72-.2,1.44-.36,2.26-.57h0ZM148.71,56.23c-.6.17-.96.35-1.32.36-2.45.08-4.76,1.02-7.14,1.51-3.4.7-6.81,1.35-10.29,1.31-1.05-.01-2.04-.21-2.98-.55-.5-.19-.98-.53-1.36-.9-.53-.53-.77-1.23-.63-2.03.05-.28.16-.55.21-.82.45-2.25.44-2.32-1.4-3.73-1.23-.95-2.47-1.86-3.92-2.48-1.01-.43-1.86-1.13-2.55-1.61-.32-.62-.14-.96.01-1.3.22-.52.45-1.05.64-1.57.53-1.45.8-2.89.36-4.4-.18-.61-.18-1.28-.26-1.92-.13-1.03,0-2.04.38-3.04.34-.88.62-1.79.89-2.68.28-.91.03-1.43-.95-1.57-1.98-.31-3.63-1.25-5.28-2.23-1.56-.92-2.56-2.29-3.1-4.02-.06-.21-.24-2.8-.19-3.02.26-1.09.52-2.19.78-3.29.19-.84.56-1.6,1.07-2.3.72-.99,1.67-1.54,2.87-1.62.46-.04.94,0,1.39-.06.76-.1,1.46-.38,2.07-.87.46-.37.89-.79.91-1.38.13-2.37,1.1-4.57,1.54-6.88.05-.27.21-.52.32-.78.1-.21.55-.38.73-.28,1.8,1.1,3.51,2.29,4.75,4.05.42.6.85,1.19,1.3,1.76.99,1.25,1.51,2.69,1.64,4.31.05.56-.03,1.17.17,1.65.91,2.2-.55,3.52-1.92,4.84-.61.59-1.37,1.02-2.05,1.54-.57.44-.85,1.02-.77,1.72.34,3.13.32,6.31.97,9.41.26,1.24.1,2.6.14,3.89.01.59.38,1.08.93,1.21.63.13,1.27.33,1.91.3,1.46-.06,2.72.43,3.96,1.03.41.2.83.4,1.23.61.38.2.53.82.25,1.22-.88,1.26-1.5,2.64-2.07,4.04-.3.75-.34,1.53.32,2.05.64.51.66,1.28.92,1.94.17.43.7.78,1.1.63,2.4-.88,4.81-.62,7.2-.39,2.12.2,4.21.61,6.3.96.37.06.63.38.74.75.11.35.19.71.22,1.08.09,1.11.02,2.22-.06,3.53h0ZM97.3,33.99c-.65.14-1.06-.23-1.38-.67-.13-.19-.13-.52-.1-.78.04-.32.34-.45.62-.49,1.86-.24,3.72-.45,5.58-.7.36-.04.73-.16,1.07-.32.11-.05.17-.29.2-.45.02-.07-.06-.19-.12-.24-.57-.38-1.22-.4-1.87-.32-.75.09-1.48.28-2.22.38-.36.06-.73.04-1.13.06.1-.22.14-.44.27-.5.65-.39,1.29-.85,1.98-1.09,1.68-.6,3.33-1.34,5.15-1.43.64-.03,1.29-.27,1.91-.48.51-.17,1-.44,1.56-.7.25.35.48.63.64.95.75,1.43,1.93,2.4,3.37,3.08,1.48.71,2.93,1.46,4.39,2.19.18.47.05.92-.14,1.36-1.01,2.26-1.04,4.58-.54,6.88.36,1.65.01,3.13-.83,4.58-.28.49-.56.99-.85,1.48-.44.76-1.01,1.42-1.8,1.79-1.59.74-2.67,2.13-4.06,3.13-.22.15-.44.39-.55.64-.6,1.28-1.24,2.55-1.06,4.04.13,1,.08,2.04.07,3.06,0,.47-.42.9-.89.94-.93.08-1.87.15-2.8.15-1.04,0-2.03.2-3.01.62-4.18,1.78-3.29.79-5.99,4.83-.74,1.1-1.35,2.3-2.02,3.45-.3.52-.73.92-1.3,1.05-1.01.23-2.03.38-3.04.55-.19.03-.38-.01-.56-.01-1.86-.02-3.72-.04-5.74-.05.77-.62,1.6-.19,2.23-.6.08-.05.19-.14.19-.2-.01-.17-.03-.4-.14-.48-.2-.16-.46-.31-.72-.33-.74-.05-1.48-.05-2.23-.02-1.21.04-2.42.12-3.63.16-.79.03-.79,0-2.05-.65.55-1.19,1.2-1.79,2.19-1.92.83-.11,1.68-.17,2.52-.25,2.51-.26,5.03-.51,7.54-.79.36-.04.73-.18,1.07-.33.14-.06.23-.29.3-.45.07-.18-.25-.6-.46-.6-.46,0-.93-.03-1.39.02-1.49.2-2.97.46-4.45.64-1.21.15-2.42.24-3.63.32-1.01.07-1.46-.44-1.43-1.54,0-.32.36-.8.63-.87.18-.05.36-.1.55-.11,2.7-.16,5.39-.65,8.11-.64.84,0,1.68-.01,2.46-.45.13-.08.24-.31.24-.46,0-.16-.13-.34-.27-.45-.12-.11-.32-.18-.5-.19-.36-.04-.74-.05-1.11,0-1.03.11-2.04.26-3.07.36-1.86.16-3.72.31-5.58.45-.3.03-.68-.41-.65-.74,0-.28.04-.56.11-.84.12-.49.54-.92.96-.93,1.29-.04,2.61-.11,3.91-.05,3.25.14,6.52.09,9.78-.06.56-.03,1.13-.03,1.61-.41.13-.11.23-.31.22-.47,0-.14-.14-.37-.25-.39-.44-.1-.9-.19-1.35-.18-1.02,0-2.04.08-3.08.13-.16-.31.12-.44.32-.52.44-.17.89-.35,1.35-.41,1.95-.25,3.9-.52,5.86-.47,1.49.04,2.98,0,4.48-.03.28,0,.56-.05.83-.13.15-.05.27-.21.38-.36.13-.17-.09-.63-.27-.7-.89-.31-1.83-.28-2.75-.3-.38-.01-.74-.06-1.03-.38.19-.58.38-1.19.59-1.85,1.13-.35,2.25-.25,3.36-.35.74-.06,1.47-.14,2.21-.27.13-.03.29-.26.33-.42.03-.14-.01-.38-.12-.47-.35-.31-.79-.45-1.28-.39-1.31.13-2.61.29-3.91.43-1,.11-1.25-.03-1.67-1.01-.1-.24-.18-.52-.19-.79,0-.16.12-.38.25-.46.23-.15.52-.26.78-.29,2.05-.24,4.09-.46,6.15-.4.55.01,1.13,0,1.61-.38.14-.12.3-.3.3-.45,0-.15-.17-.34-.32-.42-.23-.12-.5-.23-.77-.25-1.59-.06-3.16.09-4.75.34-.73.11-1.48.13-2.22.19-.23.01-.41-.39-.32-.64.26-.66.67-1.18,1.4-1.29,1.21-.16,2.41-.29,3.63-.38.74-.06,1.49-.04,2.23-.06.28-.01.56-.07.83-.11.3-.05.76-.56.66-.8-.1-.24-.27-.52-.49-.6-.32-.14-.72-.18-1.09-.15-1.3.09-2.61.21-3.9.34-.29.02-.56.04-.65-.28-.09-.31.15-.51.33-.73.31-.37.67-.7,1.17-.75.83-.1,1.67-.17,2.51-.22.75-.05,1.5-.04,2.24-.09.28-.02.59-.07.8-.23.2-.13.33-.42.42-.67.02-.06-.23-.3-.38-.31-1.66-.05-3.33-.05-5-.1-.09,0-.17-.25-.22-.39-.02-.05.06-.2.12-.22.27-.08.54-.18.81-.2.65-.05,1.31-.07,1.96-.12.28-.04.56-.1.82-.19.26-.09.5-.23.59-.54.06-.22-.15-.42-.52-.44-.46-.02-.93-.04-1.4-.05-.56,0-1.12.03-1.68,0-1.02-.05-2.04-.12-3.05-.23-.58-.06-1.03-.39-1.34-.86-.09-.13-.07-.34-.1-.59.37-.05.73-.14,1.09-.16,1.31-.08,2.61-.12,3.92-.2.27-.02.56-.11.79-.24.13-.07.18-.3.23-.46.02-.06-.04-.19-.11-.22-.32-.16-.63-.38-.98-.42-1.2-.17-2.41-.06-3.62.13-1.01.16-2.04.25-3.06.36-.39.04-.72-.11-.94-.44-.21-.19-.41-.38-.61-.57h0ZM174.06,52.39c-1.67.18-3.36.26-5.01.68-.83.21-1.66.39-2.38.88-.58.41-1.23.5-1.88.48-.74,0-1.49-.04-2.23-.1-1.11-.1-2.21-.23-3.86-.41,1.39-.15,2.24-.25,3.09-.33.84-.07,1.68-.15,2.52-.18.76-.03,1.49-.18,2.17-.54.16-.09.33-.21.43-.36.1-.13.16-.35.13-.5-.02-.16-.17-.37-.3-.4-.45-.08-.91-.12-1.37-.12-.39,0-.71-.09-.97-.39-.57-.71-1.36-.83-2.25-.71-3.34.42-6.69.84-9.98,1.69-.36.09-.74.1-1.11.1-.25,0-.33-.16-.24-.37.03-.09.05-.21.1-.25.91-.57,1.93-.77,2.94-.93,1.48-.23,2.97-.36,4.46-.54.84-.1,1.67-.2,2.5-.33.45-.06.73-.35.77-.69.05-.4-.37-.7-.99-.68-.37,0-.75.02-1.11.06-2.53.21-5.04.54-7.48,1.33-.18.06-.36.09-.55.12-.58.13-1.14-.12-1.09-.48.04-.37.47-.77,1.01-.83,1.49-.15,2.98-.27,4.47-.41.56-.05,1.11-.13,1.66-.21.3-.05.71-.63.58-.85-.14-.22-.33-.42-.54-.58-.13-.1-.35-.13-.53-.13-.47,0-.94-.03-1.4.07-2.01.46-4.08.56-6.07,1.19-.07.02-.17-.06-.25-.1.07-.12.11-.33.21-.38.34-.15.7-.26,1.07-.35,1.09-.27,2.19-.52,3.29-.8.26-.08.52-.23.77-.35.21-.11.41-.53.27-.71-.15-.2-.41-.5-.58-.46-1.1.2-2.19.48-3.28.74-.18.05-.4.12-.54.07-.13-.04-.31-.28-.28-.38.11-.45.22-.93.48-1.31.18-.29.57-.57.88-.62,1.11-.15,2.25-.33,3.32.05,1.03.37,1.8-.14,2.51-.77,1.11-.14,2,.44,2.97.67,1.97.47,3.92,1.01,5.88,1.54.35.1.73.19,1.02.39.29.2.6.48.69.79.2.71.33,1.45.35,2.19.04.83.4,1.39,1.04,1.84.14.1.24.27.38.46-.02.23-.06.5-.09.77-.07.9.35,1.31,1.1.89,1.34-.75,2.29-.23,3.23.58.36-.02.76-.12,1.09-.04,1.15.27,2.26.67,3.26,1.3.12.08.14.31.18.47,0,.03-.11.13-.18.14-1.83.23-3.66.46-5.5.69-.08,0-.2-.02-.25-.07-.1-.13-.16-.3-.28-.5.46-.13.91-.24,1.35-.37.38-.12.54-.42.5-.89-.03-.27-.09-.53-.13-.79h0ZM180.19,56.06c-1.66-.22-3.32-.14-4.99.21-.06.01-.14.11-.16.19-.03.08-.03.21.01.27.68.77,1.57,1.22,2.53,1.56.23.09.62-.13.57-.36-.16-.71.24-1.04.82-1.26.42-.16.94-.13,1.18-.65.16.01.32.05.49.03.24-.03.3-.16.13-.32-.05-.04-.18-.04-.23,0-.13.1-.24.22-.36.34h0ZM115.2,8.55c.53.21,1.09.18,1.64.06.28-.06.54-.15.8-.24.33-.11.69-.78.65-1.17-.03-.24-.45-.44-.91-.42-1.21.06-1.58.38-2.14,1.81l-.15.1.11-.14h0ZM125.35,68.59c-.14-.08-.29-.17-.44-.24-.04-.01-.11.06-.17.08.22.04.44.08.66.11-.02.59.46.71.83.93.05.03.18-.01.24-.05.05-.02.07-.15.05-.18-.3-.37-.69-.57-1.16-.64h0ZM224.77,70.17c-1-.79-2.16-1.29-3.43-1.61-1.93-.46-3.83-.6-5.78.1-.44.16-.9.3-1.35.4-1.88.43-3.56,1.27-5.05,2.52-1.26,1.04-2.66,1.82-4.07,2.61-.51.28-1.02.47-1.6.51-.47.04-.95.05-1.39.17-2.21.59-4.25.08-6.26-.63-1.13-.39-2.25-.82-3.32-1.33-.87-.41-1.76-.48-2.7-.42-1.97.11-3.88.34-5.8,1-2.05.7-4.18,1.15-6.35,1.04-.27-.02-.57-.04-.83.02-1.96.45-3.66-.28-5.39-.88-1.13-.39-2.24-.81-3.36-1.23-.52-.19-1.04-.37-1.53-.61-2.9-1.42-5.95-2.38-9.11-3.1-1.46-.33-2.94-.33-4.43-.22-.65.04-1.32.2-1.91.46-1.13.51-2.3.84-3.5,1.1-1.01.22-2.01.53-2.95.96-1.72.81-3.47,1.44-5.27,2.02-1.62.52-3.3.76-4.91,1.3-.63.22-1.3.12-1.93-.06-1.42-.38-2.85-.76-4.27-1.16-.35-.1-.68-.25-1.01-.4-2.65-1.26-5.29-2.54-7.93-3.79-3.64-1.72-7.46-1.89-11.41-.77-1.18.34-2.35.73-3.48,1.21-2.63,1.11-5.41,1.66-8.08,2.64-.26.1-.54.18-.82.2-2.16.17-4.22.9-6.34,1.29-3.1.57-6.14.53-9.15-.17-1.16-.27-2.32-.57-3.47-.89-.44-.12-.89-.26-1.29-.47-1.78-.93-3.6-1.82-5.32-2.85-1.62-.98-3.35-1.46-5.24-1.55-1.39-.07-2.79-.11-4.18-.15-2.71-.1-5.39.5-8.09.7-.45.04-.91.24-1.35.38-2.26.7-4.55,1.21-6.86,1.66-2.02.41-4.03.98-6.01,1.58-.73.22-1.45.38-2.2.42-.84.04-1.68.05-2.52.12-1.51.13-2.97-.09-4.42-.42-2.79-.62-5.55-1.38-8.38-1.83-4.38-.71-8.8-1.28-13.32-.45-.55.1-1.16.13-1.63.39-1.56.88-3.26.77-4.91,1.05-.17.04-.35-.08-.53-.12-.19-.05-.41-.52-.29-.68.22-.3.42-.67.71-.85,1.14-.71,2.39-1.14,3.67-1.48.73-.19,1.47-.38,2.14-.71,1.5-.73,3.06-.93,4.66-.89,1.77.04,3.51.32,5.25.64.74.13,1.43.28,2.19-.04.36-.15.73,0,1.05.19,2,1.22,4.31,1.54,6.58,1.95,1.27.23,2.58.29,3.87.39.67.05,1.26-.16,1.79-.66,1.12-1.05,2.08-2.15,2.76-3.58,1.07-2.24,2.71-4.14,4.57-5.82.99-.89,2.02-1.74,3.04-2.61.43-.37.95-.68,1.28-1.13.86-1.14,1.82-1.5,3.17-1.08.88.28,1.85,0,2.77-.25.83-.23,1.5-.75,2.1-1.41,1.86-2.07,3.47-4.3,4.74-6.77.35-.67.69-1.32,1.39-1.75.61-.37.69-1.1.93-1.71.19-.48.55-.79,1.05-.85,2.23-.3,4.46-.61,6.68-.88.94-.11,1.85-.33,2.74-.65.35-.12.58-.41.55-.86-.03-.38-.1-.7.28-.98.3-.22.61-.48.81-.79.63-.95,1.31-1.89,1.79-2.91.67-1.41,1.79-2.19,3.14-2.73,1.14-.45,2.31-.86,3.46-1.26.72-.25,1.51-.33,2.14-.72,1.17-.71,2.36-1.13,3.71-1.18.53-.02,1.06-.38,1.59-.57.44-.16.87-.42,1.32-.46,1.19-.11,2.15-.71,3.03-1.45.8-.66,1.58-1.38,2.33-2.11.77-.75,1.38-1.7,1.5-2.71.21-1.7,1-3.23,1.26-4.89.14-.93.58-1.55,1.5-1.88.34-.12.65-.39.92-.65,1.15-1.07,2.54-1.65,3.99-2.1.63-.2,1.26-.4,1.86-.67.78-.35,1.59-.56,2.41-.81,2.08-.62,4.13-1.31,5.88-2.75.67-.55,1.29-1.1,1.73-1.87.57-.99,1.21-1.94,1.8-2.91.56-.91,1.25-1.68,2.07-2.36.95-.78,1.97-.91,2.8-.17,1.32,1.18,2.81,2,4.49,2.56.41.13.84.42,1.11.75.66.87,1.35,1.74,1.82,2.72.36.74.69,1.48,1.17,2.16.69.98,1.04,2.14,1.38,3.28.16.53.24,1.09.4,1.61.38,1.25,1.27,1.98,2.48,2.36.08.03.17.06.26.06,3.43.32,6.29,1.96,9.2,3.5.81.43,1.64.81,2.46,1.22.61.31.94.84,1.13,1.48.02.09.07.18.07.27-.02,1.76.8,3.19,1.62,4.62.54.96,1.03,1.94,1.48,2.95.79,1.8,2.18,2.61,4.17,2.5,1.02-.06,2.06-.06,3.08-.06,2.56,0,3.01.45,3.17,3.06.07,1.11.11,2.23.23,3.34.09.9.62,1.52,1.5,1.79,1.67.49,3.36.95,5.02,1.48.96.31,1.89.72,2.81,1.12.34.15.56.47.63.86.15.81.11,1.66.43,2.46.36.89.82,1.61,1.79,1.93.43.14.84.36,1.24.59.89.5,1.85.83,2.89.86,1.66.05,3.04.68,4.26,1.71.07.05.15.1.22.16.87.7,1.81,1.18,3,1.23.83.03,1.65.24,2.45.44.54.14,1.1.45,1.17,1.04.25,1.86,1.02,3.53,1.45,5.32.06.27.05.56.12.82.1.38.37.65.74.75.97.27,1.97.47,2.94.76.75.23,1.3.72,1.33,1.57.05,1.41.87,2.4,1.68,3.38.23.28.56.47.87.65.47.27.99.48,1.47.75.73.41,1.38.91,1.68,1.73.12.31.38.39.64.44,2.27.32,4.46-.09,6.6-.97.43-.18.87-.39,1.28-.62,2.54-1.39,5.28-2.1,8.03-2.73,1.91-.43,3.9-.52,5.86-.57,1.31-.04,2.51.54,3.58,1.29.59.42,1.16.87,1.74,1.31.35.25.63.73.49.89-.2.2-.43.36-.66.51-.33.21-.7.28-1.07.16-.26-.08-.52-.21-.78-.25-.17-.02-.36.06-.53.11-.26.08-.53.19-.85.31Z"/>
      <path class="cls-1" d="M70.66,78.03c.5.25.8.49,1.13.56.98.2,1.96.41,2.96.47.9.05,1.82-.08,2.73-.14.05,0,.16-.14.15-.16-.08-.14-.17-.38-.29-.39-.91-.06-1.82-.12-2.73-.09-1.01.03-2-.03-2.96-.35-.22-.08-.52.04-1,.1h0ZM9.43,75.06c2.51.35,5.41.03,7.76,1.81.43.32.97.54,1.5.67,2.25.51,4.52.92,6.89.4,1.19-.26,2.4-.44,3.6-.62,3.9-.57,7.75-1.41,11.58-2.45,4.38-1.19,8.79-2.06,13.3-2.15,1.87-.04,3.71.06,5.52.47,3.42.78,6.85,1.49,10.22,2.41,3.22.88,6.55,1.12,9.93.78,1.77-.19,3.54-.27,5.31-.36,1.13-.05,2.22-.22,3.31-.6,2.42-.84,4.92-1.22,7.42-1.67,3.07-.55,6.14-.59,9.21-.9,1.42-.14,2.78.12,4.17.22,2.23.17,4.41.51,6.6.88,1.12.18,2.12.58,3.11,1.07,1.39.69,2.82,1.31,4.22,1.98.85.41,1.73.54,2.69.51,2.62-.07,5.21-.35,7.73-1.27,2.42-.87,4.95-1.12,7.44-1.59.55-.11,1.13-.12,1.66-.28,2.95-.85,5.93-.85,8.91-.85,1.87,0,3.7.3,5.48.82,2.3.67,4.59,1.37,6.71,2.47.65.34,1.32.64,2.01.9,2.19.8,4.45,1.03,6.83.67,2.15-.32,4.22-.92,6.3-1.53,2.54-.76,5.08-1.5,7.71-1.58,1.12-.04,2.23,0,3.34.07,1.42.09,2.7.6,3.86,1.35.31.19.6.42.91.61,1.12.67,2.34,1.03,3.69.96.75-.03,1.49-.09,2.23-.11,1.14-.04,2.23-.27,3.26-.82,1.52-.81,3.14-1.3,4.76-1.82,1.07-.34,2.11-.82,3.15-1.28.87-.39,1.75-.72,2.71-.7,1.13.01,2.22-.34,3.33-.49,3.27-.42,6.31.07,8.82,2.27.44.4.27,1.04-.35,1.34-.36.18-.73.23-1.07.05-.32-.17-.64-.36-.92-.58-1.04-.81-2.19-1.2-3.56-1.31-1.3-.1-2.54-.09-3.86.12-2.33.37-4.61.82-6.74,1.96-1.75.42-3.39,1.17-5,1.98-.17.09-.34.17-.52.22-.72.22-1.46.62-2.16.6-2.06-.05-4.06.86-6.12.54-.74-.12-1.45-.28-2.07-.71-.45-.31-.98-.52-1.4-.86-2.18-1.75-4.81-1.81-7.41-1.36-2.95.5-5.91,1.03-8.78,2.06-1.7.61-3.48.75-5.23,1.06-.96.17-1.85-.06-2.76-.16-1.96-.2-3.79-.69-5.53-1.59-2.1-1.11-4.32-1.99-6.64-2.63-1.34-.36-2.69-.61-4.07-.78-2.42-.31-4.81-.31-7.21.33-1.88,0-3.71.54-5.55.88-2.21.41-4.39,1.05-6.57,1.69-1.46.43-2.91.74-4.42.76-.74,0-1.49.06-2.23.19-2.03.37-3.99.07-5.67-.88-1.87-1.05-3.92-1.54-5.93-2.14-1.49-.45-3.05-.72-4.59-1.01-.63-.12-1.29-.15-1.94-.14-2.6.02-5.21.08-7.82.07-1.13,0-2.21.14-3.33.38-2.12.46-4.24.86-6.29,1.58-.18.06-.37.07-.55.13-1.61.57-3.32.44-4.92,1.19-1.45.69-2.98,1.21-4.52,1.67-1.43.42-2.92.66-4.39.98-.27.05-.56.08-.83.04-1.92-.24-3.89-.32-5.73-.94-2.44-.81-4.84-1.75-7.13-2.9-1.91-.96-3.94-1.49-6.04-1.81-1.1-.16-2.2-.3-3.31-.4-1.86-.19-3.71-.05-5.58.27-2.31.4-4.59.99-6.86,1.59-1.19.32-2.38.59-3.56.89-.73.19-1.46.37-2.16.62-1.71.59-3.42,1.09-5.18,1.4-.76.13-1.48.3-2.12.74-.77.53-1.6.49-2.43.3-1.26-.28-2.49-.64-3.8-.76-1.11-.1-2.2-.31-3.33-.25-.65.05-1.28-.11-1.86-.41-3.5-1.76-7.2-2.09-11.1-1.12-.63.15-1.29.26-1.93.3-.19,0-.49-.27-.55-.49-.06-.21.05-.54.19-.75.14-.23.4-.41.64-.54.97-.54,4.39-1.57,5.6-1.65Z"/>
      <path class="cls-1" d="M14.35,84.84c2.65.7,5.3.22,7.89.28,2.13.04,4.3-.09,6.43-.42,1.94-.29,3.86-.77,5.82-1.03.28-.03.55-.13.81-.24,2.91-1.2,5.99-1.66,8.96-2.58,1.46-.45,2.95-.55,4.45-.66.36-.03.76-.02,1.11.05,2.77.64,5.67.88,8.26,2.17.73.36,1.58.44,2.38.68,1.23.37,2.51.65,3.67,1.16,1.62.7,3.29,1.16,5.01,1.49,1.18.23,2.35.49,3.53.7,1.48.27,2.98.04,4.46-.19,1.47-.23,2.92-.59,4.36-1.15,3.34-1.31,6.73-2.49,10.1-3.72,1.52-.55,3.07-.91,4.66-1.09,1.21-.14,2.41-.35,3.62-.54,2.07-.34,4.08-.32,6.07.32,1.04.34,2.16.51,3.26.65,2.97.38,5.77,1.21,8.47,2.41,1.51.68,3.12,1.05,4.76,1.34,3.89.7,7.59-.11,11.24-1.67,2.61-1.11,5.24-2.22,7.99-2.9,1.28-.32,2.57-.54,3.86-.79.18-.04.38-.04.56-.03,3.49.44,7.03.6,10.33,1.89,1.62.63,3.31,1.09,4.88,1.86,1.58.77,3.3,1.12,5,1.56.45.11.91.15,1.38.16,3.4.07,6.7-.65,9.94-1.73.62-.21,1.18-.62,1.79-.87,1.04-.44,2.09-.89,3.17-1.23,1.57-.49,3.13-.47,4.66.1,2.32.87,4.65,1.69,6.99,2.52.61.21,1.25.33,1.84.59,2.51,1.11,5.09.72,7.66-.03,1.44-.41,2.84-1.02,4.25-1.57.88-.35,1.73-.8,2.62-1.1,2.25-.76,4.49-1.26,6.88-.73,1.71.38,3.4.8,5.11,1.21.17.04.34.13.47.25.13.11.28.28.29.44,0,.15-.12.36-.25.47-.55.47-1.17.57-1.84.38-1.06-.32-2.12-.63-3.18-.94-2.21-.62-4.41-.45-6.58.43-1.23.49-2.45.99-3.68,1.47-.62.25-1.24.48-1.85.73-2.04.86-4.16,1.19-6.32,1.28-1.51.06-2.94-.1-4.37-.61-2.94-1.04-5.94-1.95-8.82-3.14-1.23-.51-2.52-.55-3.81,0-.53.22-1.07.4-1.58.65-3.46,1.66-7.15,2.38-10.86,3.03-2.98.53-5.73-.13-8.42-1.16-1.63-.62-3.25-1.27-4.84-1.97-1.6-.71-3.32-1.06-5.01-1.49-1.07-.26-2.16-.49-3.29-.46-.19.01-.39.05-.56,0-2.74-.94-5.34.2-7.94.93-1.72.48-3.38,1.21-5.04,1.91-1.84.78-3.73,1.35-5.64,1.86-.81.22-1.67.29-2.5.38-3.12.33-6.13-.22-9.08-.96-1.32-.33-2.58-.95-3.86-1.43-1.74-.64-3.55-.98-5.35-1.37-1.63-.35-3.26-.62-4.89-.95-1.38-.28-2.73-.38-4.15.03-.89.25-1.85.36-2.78.37-1.33.02-2.61.31-3.85.78-2.29.88-4.66,1.49-6.92,2.52-2.06.93-4.26,1.53-6.41,2.28-.17.06-.36.13-.54.14-1.87.15-3.69.74-5.56.76-.46,0-.96.05-1.38-.09-1.93-.62-3.96-.87-5.94-1.27-.54-.11-1.08-.28-1.56-.52-1.91-.94-3.95-1.48-6.04-1.89-.71-.14-1.43-.39-2.04-.76-1.54-.89-3.24-1.28-5-1.46-1.76-.19-3.53-.29-5.29-.12-1.11.1-2.21.39-3.3.68-1.37.35-2.7.86-4.1,1.08-.36.06-.73.18-1.09.31-1.06.39-2.09,1-3.17,1.16-1.1.17-2.23.23-3.33.43-.46.08-.93.2-1.38.34-1,.33-2,.51-3.04.43-.1,0-.19,0-.28,0-1.39.16-2.79.47-4.18.45-1.39-.02-2.77-.11-4.18-.06-1.76.07-3.53-.11-5.28-.23-.23-.01-.46-.27-.64-.47-.13-.16.2-.81.5-.92.51-.22,1.04-.38,1.49-.55Z"/>
      <path class="cls-1" d="M97.85,34.6c-.19-.19-.39-.38-.58-.56.26-.27.49-.6.8-.76.41-.22.89-.38,1.34-.43,1.67-.16,3.34-.27,5.02-.36.38-.02.74.13.91.48.06.12.02.37-.07.47-.11.13-.32.22-.49.24-.93.11-1.86.26-2.79.24-1.42-.02-2.78.26-4.13.67Z"/>
    </g>
  </g>
</svg>