<?xml version="1.0" encoding="UTF-8"?>
<svg id="Layer_2" data-name="Layer 2" xmlns="http://www.w3.org/2000/svg" viewBox="0 0 114.21 103.76">
  <defs>
    <style>
      .cls-1 {
        fill: #753d22;
      }

      .cls-1, .cls-2 {
        fill-rule: evenodd;
      }

      .cls-2 {
        fill: #e7a952;
      }
    </style>
  </defs>
  <g id="Layer_2-2" data-name="Layer 2">
    <g>
      <path class="cls-2" d="M67.46,70.39c-.31.21-.6.41-.9.61-.57.35-1.12.71-1.75.93-.14.05-.29.11-.42.18-1.41.81-2.95,1.38-4.47,1.94-.96.34-1.93.64-2.91.93-1.46.43-2.97.66-4.47.94-.7.14-1.41.22-2.13.23-1.26.03-2.54.07-3.81-.13-.95-.15-1.93-.05-2.89-.24-.29-.06-.6-.08-.89-.17-1.01-.34-2.1-.44-3.05-.95-.17-.09-.4-.1-.6-.13-.7-.13-1.39-.29-1.97-.75-.17-.12-.37-.17-.56-.22-.98-.3-1.94-.61-2.92-.88-.49-.14-.98-.25-1.5-.21-.25.03-.52,0-.76-.03-.83-.1-1.63,0-2.43.19-.9.21-1.8.32-2.71.38-.94.07-1.83-.05-2.72-.29-.64-.17-1.26-.4-1.89-.59-.3-.09-.58-.19-.89-.22-.71-.09-1.42-.18-2.13-.2-.61-.02-1.21.04-1.82.21-.97.28-1.96.53-2.95.77-1.69.42-3.41.53-5.15.51-.3,0-.6-.08-.9-.13-1-.18-2-.39-3.01-.54-1.35-.21-2.5-.81-3.59-1.6-.39-.27-.63-.66-.73-1.12-.03-.1-.03-.21-.05-.31-.74-2.84-.61-3.32.32-5.93.11-.34.21-.69.34-1.01.06-.13.18-.24.28-.36.11-.12.48-.08.55.06.12.22.22.45.32.68.12.28.22.56.34.85.1.2.44.31.67.19.21-.13.43-.28.61-.45.21-.21.38-.47.58-.71.16-.2.32-.38.5-.58.37-.02.72-.02,1.07-.07.14-.02.28-.1.39-.2.05-.04.06-.23.02-.27-.46-.34-1.02-.47-1.56-.57-.71-.11-1.38-.36-2.02-.67-.54-.26-1.08-.59-1.54-.98-.87-.72-1.31-1.68-1.26-2.82.01-.4.02-.82.08-1.22.16-.93.62-1.72,1.28-2.39.95-.97,2.14-1.53,3.44-1.85.2-.05.41-.12.6-.12,1.21-.02,1.92-.81,2.61-1.63.16-.19.24-.44.38-.65.34-.52.71-1.01,1.2-1.39.23-.19.47-.38.67-.61.3-.35.59-.71.83-1.1.23-.37.05-.8.02-1.2-.08-1.51.22-2.94.89-4.28.15-.32.29-.66.52-.94,1.11-1.4,2.25-2.73,3.79-3.73,2.36-1.54,4.93-2.38,7.7-2.7.65-.08,1.31-.2,1.95-.34.39-.08.78-.2,1.05-.56.14-.21.42-.27.68-.3.45-.05.87-.25,1.29-.43,1.16-.52,2.26-1.15,3.33-1.82,1.53-.95,2.87-2.13,4.28-3.2,1.01-.77,1.96-1.62,2.98-2.38.56-.43,1.19-.78,1.82-1.12,1.17-.63,2.38-1.14,3.71-1.4.64-.12,1.27-.34,1.89-.57,1.54-.55,3.13-.87,4.77-.86.99,0,1.95-.2,2.82-.59,1.01-.45,1.96-1.1,2.64-2.03.42-.57.85-1.15,1.22-1.76.56-.92.89-1.94,1.11-2.99.13-.7.22-1.41.34-2.11.15-.86.09-1.72-.09-2.58-.29-1.29-.58-2.58-1.18-3.78-.08-.14-.01-.34.12-.38.14-.04.33-.09.43-.04.25.15.52.35.7.57.49.61,1.16.72,1.79.5.78-.26,1.6-.29,2.36-.58.86-.33,1.73-.62,2.59-.94.83-.31,1.51-.78,2.11-1.45.5-.57,1.12-1.03,1.7-1.53.16-.13.35-.21.62-.14.05.32.1.67.14,1-.32.61-.65,1.2-.93,1.79-.23.47-.36.95-.02,1.44.06.08.11.19.11.28.04,1.08.77,1.72,1.48,2.38.11.1.29.11.48.19.19-.23.38-.45.57-.68.34-.44.67-.9,1.02-1.33.12-.16.29-.29.47-.39.12-.06.28-.07.42-.04.05,0,.1.15.13.24.1.42.01.81-.16,1.19-.25.5-.48,1.01-.74,1.5-.29.57-.18,1.09.12,1.6.31.53.75.95,1.22,1.34.16.14.34.23.52.34,1.19.71,1.09.9,2.12-.24.56-.62,1.24-1.05,2.05-1.28.11-.03.33.1.34.23.04.4.06.78-.14,1.18-.87,1.9-1.42,3.91-2,5.92-.12.45-.19.89-.02,1.35.14.38.33.71.7.94.44.27.84.56,1.3.77.98.44,1.9.97,2.88,1.42.6.27,1.23.48,1.86.67,1.46.44,2.94.86,4.39,1.28.1.02.21.05.3.09,1.01.51,2.11.71,3.16,1.08.54.2,1.03.46,1.55.65,1,.37,1.94.89,2.94,1.27,1,.38,1.87,1.01,2.78,1.56.22.14.43.28.65.41.14.08.47.06.58-.05.31-.32.65-.64.92-1.01.85-1.22,1.53-2.53,1.8-4.01.05-.25.12-.49.17-.74.05-.2.28-.34.47-.3.19.03.39.21.41.39.04.3.12.62.08.9-.1.91.22,1.7.65,2.47.64,1.12,1.42,2.1,2.55,2.85.16-.13.34-.23.46-.38.22-.28.4-.59.61-.88.05-.07.15-.13.25-.16.09-.03.21-.03.28.01.09.03.18.15.17.22-.05.29-.1.6-.22.88-.18.42-.42.82-.6,1.23-.06.13-.09.33-.04.44.53.93.87,1.95,1.5,2.83.02.04.06.08.09.11.2.27.5.33.8.16.22-.13.42-.26.65-.38.16-.07.43.16.41.32-.04.47-.2.91-.53,1.24-.37.36-.42.79-.37,1.26.13,1.27.29,2.52.82,3.71.1.25.3.38.6.37.21,0,.41,0,.6,0,.23,0,.31.23.2.45-.12.23-.25.44-.49.56-.23.11-.46.21-.69.32-.45.23-.9.46-1.35.7-.13.07-.27.16-.38.26-.21.17-.34.39-.35.66,0,.25,0,.51.04.76.19,1.53-.05,3.04-.2,4.56-.05.55-.18,1.11-.31,1.65-.08.35-.19.7-.34,1.02-.59,1.23-1.27,2.43-2.01,3.58-.82,1.29-1.78,2.46-2.67,3.7-.6.83-.98,1.77-1.41,2.7-.53,1.11-.83,2.29-1,3.51-.02.15-.05.3-.08.45-.13.8-.31,1.6-.37,2.41-.05.76-.03,1.53.04,2.28.13,1.38.39,2.72,1.32,3.84.1.11.2.23.24.37.32.83.87,1.49,1.45,2.14.64.73,1.22,1.49,1.82,2.25.19.24.38.49.5.77.8,1.78,1.42,3.62,1.31,5.59-.11,2.13-.27,4.26-1.12,6.28-.59,1.42-1.25,2.76-2.2,3.99-.65.84-1.31,1.68-1.97,2.5-1.13,1.38-2.38,2.65-3.84,3.69-1.46,1.04-2.99,1.93-4.7,2.49-.38.14-.75.34-1.13.47-.23.08-.49.11-.74.14-.26.03-.61-.4-.53-.62.23-.57.47-1.13.68-1.67.12-1.12-.16-2.14-.56-3.15-.34-.85-.72-1.69-.97-2.57-.22-.77-.38-1.59-.43-2.39-.17-2.37.11-4.68,1.1-6.86.07-.13.07-.29.1-.44-.13,0-.23-.01-.3.03-.22.13-.45.26-.62.44-1.14,1.25-2.53,2.2-3.85,3.23-.85.65-1.71,1.29-2.59,1.89-1.86,1.24-3.91,1.94-6.18,1.89-1.17-.02-2.33-.09-3.51.03-.7.07-1.43.01-2.07.43-.1.07-.3.06-.43.03-.53-.11-1.02.06-1.47.29-.63.32-1.24.71-1.85,1.06-.15.08-.31.06-.42-.06-.09-.11-.16-.25-.2-.39-.03-.09,0-.21.05-.29.13-.27.25-.55.43-.81,1.15-1.71,1.92-3.59,2.62-5.5.8-2.22,1.94-4.25,3.32-6.15.21-.29.43-.57.47-.95.02-.32.29-.52.48-.75.2-.23.12-.46-.18-.58-.52-.21-1.03-.45-1.56-.63-1.38-.48-2.54-1.3-3.6-2.25-.76-.68-1.45-1.42-2.14-2.18-.56-.61-.95-1.3-1.07-2.16-.09-.65-.29-1.29-.45-1.93-.04-.12-.19-.22-.31-.36Z"/>
      <g>
        <path class="cls-1" d="M61.4,6.02s.05-.08.05-.11c0-.02-.04-.04-.07-.07-.02.04-.05.08-.05.12,0,.02.05.04.08.06h0ZM92.56,55.27s-.01-.08-.03-.11c-.14-.17-.31-.19-.5-.11-.04.01-.05.05-.07.08.11.07.21.17.34.21.07.03.17-.04.25-.06h0ZM68.04,11.34c-.05.07-.15.14-.17.22s.02.19.03.28c.06-.07.14-.13.17-.21.02-.09-.03-.19-.03-.29h0ZM99.85,53.61c0-.14.02-.28-.02-.31-.13-.08-.25,0-.35.09-.09.1-.09.21.02.24.11.03.23-.02.34-.03h0ZM97.53,55.42c-.05-.1-.08-.2-.13-.22-.09-.04-.21-.04-.29-.01-.08.04-.17.13-.17.21,0,.06.12.18.19.17.14-.02.26-.1.41-.15h0ZM94.86,53.97c-.21.03-.35.05-.35.24-.01.18.08.29.22.28.15-.02.3-.08.29-.24,0-.1-.11-.2-.16-.28h0ZM61.68,38.3s.03.08.06.12c.08-.04.16-.08.23-.14.05-.05.07-.14.1-.22-.08,0-.17,0-.23.03-.08.05-.11.14-.16.22h0ZM90.94,69.9c-.23,0-.47.22-.5.45,0,.04.05.12.07.12.13-.02.3-.02.38-.1.08-.08.1-.24.13-.38,0-.02-.06-.06-.08-.09h0ZM90.9,68.79c.19.04.28.02.54-.16.04-.03.1-.09.1-.1-.04-.07-.08-.16-.15-.19-.18-.08-.38-.09-.53.07-.05.06-.04.17-.04.26,0,.04.05.07.08.11h0ZM98.97,51.08s.1-.03.12-.06c.22-.17.28-.39.18-.64-.03-.07-.14-.14-.22-.15-.08-.02-.22,0-.26.05-.18.2-.2.44-.05.67.04.07.14.09.23.13h0ZM88.92,72.03c.22,0,.36-.13.47-.28.12-.17.09-.47-.05-.52-.15-.05-.38.07-.46.26-.1.19-.08.37.04.54h0ZM61.64,56.82s-.05-.1-.09-.11c-.3-.06-.56.06-.76.28-.04.04,0,.18,0,.27,0,.03.06.07.11.07.3,0,.56-.12.73-.38.02-.03.02-.08.02-.13h0ZM110.72,41.07c.11.03.16.06.19.06.31-.09.55-.26.69-.54.02-.03-.09-.18-.15-.19-.32-.06-.61.05-.8.31-.05.08.04.26.07.36h0ZM92.58,51.97c-.03-.1-.04-.21-.1-.25-.05-.04-.21-.03-.25.02-.2.27-.49.5-.52.86,0,.09.03.22.09.26.06.03.2,0,.28-.04.32-.19.4-.54.51-.86h0ZM57.44,57.92c-.56-.07-.82.21-.72.7,0,.04.03.12.06.13.19.06.38.05.58-.05.19-.11.31-.27.29-.48-.03-.12-.15-.22-.21-.3h0ZM98.7,52.94c-.01-.05,0-.11-.03-.15-.05-.09-.1-.17-.18-.24-.08-.07-.15-.03-.2.1-.11.36-.35.6-.7.76-.04.02-.04.16-.05.25,0,0,.08.05.12.04.34-.11.67-.22.93-.48.06-.07.07-.19.11-.28h0ZM59.84,57.63c-.06-.07-.1-.2-.18-.22-.36-.1-.69-.05-.94.26-.11.12-.12.27-.06.41.02.05.06.11.09.11.42.02.79-.09,1.07-.42.03-.03.01-.09.02-.14h0ZM65.03,48.04s-.08-.05-.12-.04c-.41.08-.78.24-1,.6-.04.06,0,.2.05.27.06.06.19.12.25.1.36-.19.69-.42.89-.8.01-.02-.04-.08-.07-.13h0ZM91.27,50.69c.63-.29.87-.71,1.01-1.22,0-.04-.14-.15-.2-.14-.6.07-.69.17-.76.74-.01.14-.02.3-.05.62h0ZM57.76,42.96c-.04.1-.08.2-.11.29-.02.04-.02.1,0,.15,0,.05.02.12.05.13.08.02.2.04.27,0,.29-.14.43-.38.34-.61-.13-.32-.29-.64-.44-.96-.05-.12-.3-.12-.38.01-.06.07-.08.23-.06.25.26.18.52.35.33.73h0ZM53.01,59.54c.12-.03.28-.01.37-.09.25-.19.36-.45.29-.76-.01-.07-.14-.17-.19-.16-.4.03-.7.38-.68.78,0,.07.12.13.21.23h0ZM107.62,30.96c-.15.07-.3.12-.4.22-.27.28-.54.57-.78.88-.09.12-.02.28.12.39.1.09.3.08.4-.03.36-.45.45-.62.67-1.46h0ZM27.25,50.49c.11-.01.25,0,.3-.04.31-.37.56-.79.62-1.28,0-.04-.03-.1-.07-.11-.04-.02-.1-.02-.14,0-.65.27-.8.78-.71,1.43h0ZM54.74,59.39c.67-.01.97-.23.97-.87,0-.21-.19-.37-.41-.31-.47.1-.78.48-.76.98,0,.07.13.13.2.2h0ZM60.04,39.93c.12.26.22.49.35.7.03.06.21.11.24.07.34-.3.6-.67.63-1.14,0-.12-.11-.26-.21-.36-.04-.05-.21-.05-.27,0-.25.22-.5.47-.76.73h0ZM61.95,50.41c.72-.12,1.03-.35,1.22-.89.06-.16-.12-.44-.3-.44-.45,0-.81.22-.91.61-.07.23-.14.48-.01.72h0ZM105.26,27.24c-.13.43-.24.86-.4,1.28-.17.46-.4.91-.59,1.38-.03.07-.01.19-.01.28,0,.05.04.13.06.13.09,0,.22.01.27-.03.12-.15.25-.31.31-.5.3-.8.4-1.64.36-2.54h0ZM110.54,35.01c-.43.15-.81.39-1.13.71-.07.06-.12.15-.18.24-.1.16.02.52.22.65.17.1.29,0,.38-.1.34-.36.63-.76.79-1.24.02-.06-.06-.16-.09-.25h0ZM89.88,51.84c-.13-.06-.22-.16-.3-.15-.4.06-.79.14-1.19.23-.39.08-.6.36-.74.7-.02.08.02.19.03.28.01.03.08.04.12.04.83-.1,1.5-.5,2.07-1.11h0ZM59.88,41.58c-.04-.36-.16-.69-.44-.94-.06-.05-.2-.05-.26,0-.14.06-.26.17-.38.27-.21.17-.33.38-.24.66.08.24.18.47.29.7.07.17.37.2.52.05.13-.15.29-.29.41-.46.05-.07.07-.18.11-.28h0ZM58.43,51.91c0-.21.02-.46.01-.7,0-.05-.14-.15-.19-.14-.86.14-1.19.66-.93,1.48.04.15.19.21.34.19.25-.04.49-.12.6-.38.06-.13.1-.28.17-.45h0ZM67.93,10.55s.1-.03.11-.07c.08-.13.17-.26.19-.4.25-1.4.68-2.76,1.09-4.12.03-.1.06-.2.05-.3,0-.06-.07-.12-.11-.18-.04.03-.1.06-.12.1-.13.38-.23.79-.4,1.15-.56,1.17-.74,2.42-.87,3.68,0,.04.04.1.05.14h0ZM90.47,50.35c0-.12.02-.25-.02-.31-.25-.24-.52-.47-.78-.69-.04-.03-.23.03-.26.09-.27.47-.52.96-.77,1.45-.01.03.02.1.06.12.07.05.17.13.25.12.46-.03.89-.19,1.25-.46.12-.09.19-.23.28-.33h0ZM60.86,49.97c-.49.07-.95.24-1.34.56-.1.08-.18.25-.19.39-.03.29-.02.59,0,.89,0,.06.13.16.19.15.42-.04.75-.28,1.07-.53.07-.06.15-.15.17-.24.1-.38.29-.76.1-1.23h0ZM73.11,13.71c.07,0,.13.02.19.03.21-1.09.43-2.18.63-3.27.02-.09-.03-.2-.08-.28-.05-.08-.14-.17-.22-.19-.07-.01-.19.07-.21.14-.34,1.02-.45,2.07-.4,3.14,0,.15.05.28.08.42h0ZM31.17,49.26c0-.15-.02-.3-.04-.45-.01-.04-.05-.1-.08-.11-.09-.01-.2-.03-.28,0-.09.04-.17.12-.21.2-.47.78-.93,1.56-1.39,2.35-.04.06-.01.22.04.27.04.05.2.05.26.01.9-.5,1.31-1.36,1.69-2.27h0ZM44.23,66.66s-.01-.09-.04-.13c-.02-.03-.07-.09-.1-.08-.9.18-1.68.64-2.42,1.14-.04.03-.07.07-.1.12-.09.16-.28.29-.23.53.03.16.29.28.64.28.09,0,.19,0,.3,0,.28-.03.53-.19.5-.44-.03-.56.17-.85.73-.93.19-.02.36-.15.54-.25.07-.05.12-.16.18-.23h0ZM54.44,53.38c.56.12,1.1,0,1.65-.16.23-.06.38-.29.37-.58,0-.2-.02-.41-.06-.61-.01-.07-.15-.2-.21-.19-.5.09-.98.18-1.47.31-.08.01-.15.13-.2.22-.16.32-.3.65-.08,1.01h0ZM95.54,49.31c-.08-.24-.12-.49-.23-.69-.14-.24-.65-.29-.8-.12-.45.53-.9,1.06-1.17,1.72-.01.04-.01.11.01.13.07.06.15.17.22.15.6-.08,1.17-.27,1.62-.69.14-.13.23-.32.35-.51h0ZM101.85,51.5c-.33.21-.37.53-.46.81-.07.2,0,.4.14.54.18.18.37.34.58.47.24.16.65.1.83-.12.19-.22.36-.47.49-.74.04-.09-.01-.35-.1-.38-.49-.22-1-.4-1.48-.58h0ZM107.8,29.51c-.57.67-1.26,1.25-1.99,1.78-.13.1-.41.05-.55-.1-.1-.1-.21-.26-.19-.38.08-.38.2-.77.34-1.15.1-.28.27-.54.38-.82.11-.28.16-.58.25-.91.2.2.05.35.03.5-.05.35-.12.69-.16,1.04-.01.07.07.19.13.22.07.02.22,0,.25-.05.19-.3.34-.61.53-.91.02-.05.19-.08.25-.04.32.16.55.43.72.82h0ZM98.85,54.73q1.05-.22,1.81-.93.36-.35.89-.04s.08.06.12.09c.35.25.74.32,1.15.19.14-.04.3-.06.45-.07.13-.02.28.18.21.31-.07.13-.12.29-.23.38-.19.15-.41.28-.64.4-.38.2-.6.13-.89-.27-.12-.15-.21-.34-.33-.5-.15-.2-.52-.11-.61.14-.11.28-.17.58-.3.86-.08.16-.24.31-.39.45-.14.14-.41.12-.55,0-.32-.26-.55-.59-.68-.99h0ZM102.1,28.79c.12-.19.23-.42.38-.61.64-.8,1.16-1.66,1.61-2.58.08-.17.12-.18.52-.22-.09,1.23-.33,2.41-.77,3.56-.07.18-.19.36-.32.51-.09.1-.24.16-.41.1-.39-.14-.74-.33-1-.75h0ZM109.16,32.44c.07.11.17.2.16.25-.04.2-.12.38-.19.57-.1.27-.06.52.07.54.16.04.27-.06.38-.16.07-.06.14-.15.21-.22.17-.14.34-.1.5.09.03.04.05.08.08.12.11.2.08.43-.08.53-.52.31-1.04.62-1.57.94-.15-.11-.3-.16-.38-.27-.25-.32-.46-.66-.7-1-.13-.22-.2-.48-.07-.71.34-.67.7-1.34,1.07-1.99.02-.04.17-.03.26-.01.03,0,.06.09.05.14-.03.14-.06.3-.14.41-.32.47-.48,1-.6,1.54-.01.07.06.17.1.26.08-.05.2-.07.24-.14.21-.28.4-.58.61-.89h0ZM64.1,65.51c.03.22.03.42.07.62.1.6-.06,1.1-.52,1.52-.08.06-.15.14-.19.23-.03.09-.03.21.02.28.04.06.17.11.24.09.99-.28,1.64-1,2.13-1.86.09-.17.13-.38.12-.59-.01-.58-.24-1.09-.71-1.45-.07-.05-.29-.02-.29-.02-.08.55-.52.83-.89,1.17h0ZM57.51,45.47c-.14-.05-.24-.07-.33-.12-.05-.02-.12-.07-.12-.08.02-.1.03-.23.1-.27.25-.16.52-.3.79-.42.32-.15.68-.23.96-.43.23-.17.34-.48.55-.7.17-.19.38-.34.59-.47.17-.11.38-.12.57,0,.15.1.26.34.2.52-.05.14-.12.28-.2.41-.14.26-.09.48.11.67.15.14.3.26.34.47.01.12-.07.36-.16.39-.05.01-.09.06-.13.06-1.11.11-2.22.03-3.26-.04h0ZM61.88,6.84c-.08.08-.18.14-.18.19,0,.15.04.3.09.45.5,1.46.76,2.95.42,4.49-.02.15-.04.3-.06.46-.03.97-.26,1.9-.47,2.85-.2.94-.32,1.9-.47,2.85,0,.03.04.1.06.1.05,0,.13,0,.14-.03.22-.45.4-.93.67-1.36.41-.68.54-1.44.61-2.18.2-1.92.19-3.86-.15-5.78-.12-.7-.31-1.38-.65-2.04h0ZM49.94,64.77c.01.34-.01.65.05.94.05.22.23.44.37.64.1.14.39.1.47-.09.12-.33.31-.51.67-.46.05.01.1.02.15.02.55-.02.86-.31.87-.81,0-.15,0-.31-.05-.44-.16-.41,0-.67.31-.91.08-.06.14-.15.19-.24.1-.14-.04-.41-.22-.48-.25-.1-.52-.15-.74-.02-.58.39-1.16.79-1.71,1.24-.18.14-.25.42-.37.62h0ZM61.43,37.03c-.04.21-.02.39-.1.47-.61.61-1.24,1.21-1.88,1.79-.45.41-.92.79-1.38,1.2-.54.47-1.11.88-1.8,1.12-.22.08-.55-.11-.58-.35-.11-.7.15-1.25.73-1.54.18-.09.38-.17.57-.22.97-.31,1.85-.81,2.69-1.4.53-.38,1.06-.77,1.75-1.06h0ZM38.08,70.35c.12.04.2.09.3.11.64.2,1.3.16,1.97.07.2-.03.3-.29.21-.48-.63-1.23-1.81-1.57-3.02-1.8-.59-.11-1.22-.03-1.79.24-.14.06-.24.26-.17.36.38.49.85.87,1.35,1.21.16.12.37.18.56.23.2.04.41.04.59.05h0ZM74.41,12.79c-.05.35-.28.78-.16,1.24,0,.04.07.1.1.1.09,0,.23-.02.24-.07.07-.19.08-.39.14-.58.03-.06.15-.09.23-.1.04,0,.08.04.14.05.16.05.31,0,.38-.14.13-.28.23-.56.36-.83.07-.12.2-.21.32-.31.1-.08.19-.07.27.03.05.08.14.15.16.24.01.09,0,.21-.04.29-.65,1.2-1.23,2.44-1.69,3.73-.12.33-.34.62-.53.92-.1.16-.51.25-.7.17-.2-.08-.34-.24-.37-.45-.03-.25-.08-.53.01-.75.42-.99.38-2.08.67-3.1-.05-.69.31-1.26.56-1.86.01-.04.12-.07.12-.06.06.06.12.15.11.21-.09.4-.2.79-.32,1.28h0ZM73.67,87.62c-.02.08-.03.13-.04.18,0,.05.01.1.02.15.08,0,.19,0,.21-.03.54-.74,1.1-1.46,1.58-2.24.89-1.44,2.04-2.65,3.39-3.68.24-.18.46-.4.68-.6.1-.09.06-.32-.08-.38-.27-.12-.56-.25-.84-.34-.23-.08-.55.03-.66.26-.23.52-.54.96-1.06,1.24-.22.11-.39.33-.54.54-1.05,1.55-2.08,3.13-2.66,4.9h0ZM63.18,54.92c-.19.33-.53.43-.83.56-1.3.6-2.63,1.12-4.02,1.43-1.2.26-2.39.48-3.59.72-.17.03-.38.03-.49-.26.29-.11.57-.2.85-.33.28-.12.55-.26.83-.39.28-.14.52-.29.66-.59.14-.31.42-.46.74-.5,1.86-.25,3.72-.5,5.59-.75.08,0,.17.07.28.11h0ZM104.22,52.99c.02.43.04.48.22.67.27.26.55.32.81.14.64-.45,1.16-.97,1.22-1.82,0-.1.05-.19.09-.28.05-.13.39-.31.51-.25.18.09.35.2.54.28.49.25.78-.11.93-.46.13-.29.08-.59.05-.9,0-.23.11-.42.3-.47.39-.12.57-.37.65-.75.25-1.04.32-2.1.41-3.17,0-.04-.02-.12-.07-.13-.07-.04-.17-.08-.24-.06-.21.05-.35.21-.4.42-.13.65-.35,1.26-.85,1.74-.16.15-.24.45-.26.7-.05.71-.34,1.29-.94,1.64-.61.36-1,.8-1.06,1.53,0,.19-.17.36-.26.54-.31.56-.74.81-1.38.62-.09-.03-.2.02-.29.02h0ZM49.36,62.08c2.35-.24,2.56-.28,3.14-.64q-.69-1.29-.77-2.29c-.13.01-.26.04-.4.03-.23,0-.34-.15-.31-.41,0-.09.08-.19.08-.29,0-.07-.07-.16-.12-.22-.03-.03-.11-.03-.15,0-.21.13-.45.25-.62.43-.23.26-.41.58-.62.86-.17.24-.44.17-.58-.12-.06-.13-.1-.26-.14-.38-.34.03-.65.06-.95.11-.21.03-.35.21-.38.41-.06.66.18,1.2.66,1.63.34.29.71.56,1.14.89h0ZM47.26,65.43c.36.05.85.12,1.35.17.08,0,.22-.08.23-.15.17-.69.5-1.31.77-1.95.03-.09-.17-.33-.27-.33-.14,0-.3,0-.43.05-.32.14-.59.15-.79-.17-.1-.15-.24-.19-.4-.16-.83.22-1.68.41-2.5.69-.81.27-1.95,1.16-2.54,1.86-.07.08-.11.17-.16.26-.02.04-.03.11-.02.13.08.05.18.15.23.13.52-.2,1.04-.39,1.55-.63.73-.34,1.47-.3,2.22-.13.2.05.39.12.73.23h0ZM59.33,68.24c.31-.14.58-.26.84-.41.65-.4,1.07-.93.97-1.75-.03-.26-.02-.51.19-.7.47-.44.66-1,.75-1.62.04-.27.29-.4.58-.37.6.03,1.03.38,1.42.79.08.07.05.34-.04.42-.12.09-.24.19-.38.23-.19.06-.4.04-.6.08-.23.03-.42.2-.43.37,0,.16.05.29.19.38.13.08.27.16.37.27.33.34.28.94-.13,1.19-.25.16-.55.27-.8.41-.19.1-.24.32-.13.53.11.18.24.33.33.5.03.07-.03.22-.08.26-.4.22-.8.45-1.22.62-.66.25-1.34.46-2.02.67-.09.03-.23.02-.29-.04-.12-.11-.08-.26-.03-.41.17-.42.31-.86.51-1.41h0ZM51.13,53.05c.13-.05.29-.08.39-.18.24-.25.46-.53.69-.8.16-.17.42-.11.43.12,0,.34.17.43.47.42.09,0,.18.04.27.06.03,1.6.11,1.8,1.3,2.95-.1.1-.18.22-.29.29-1.6.9-3.32,1.52-5,2.21-.14.05-.29.11-.44.13-.09.01-.21-.02-.25-.08-.04-.05-.04-.21,0-.25.75-.62,1.5-1.22,2.44-1.51.46-.15.78-.45,1.03-.86.12-.18.06-.44-.13-.52-.37-.14-.76-.27-1.13-.43-.73-.31-1.24-.85-1.61-1.54-.03-.07-.02-.22.02-.29.06-.06.18-.07.27-.08.04,0,.09.04.13.07.23.19.42.16.66-.04.34-.31.36-.29.63.16.02.04.07.08.11.14h0ZM106.79,45.9c.26-.22.52-.4.71-.62.32-.34.49-.77.37-1.25-.1-.45-.23-.88-.35-1.31.67-1.05.68-1.04.87-2.55.07-.45.26-.75.59-1.02.03-.03.15.04.22.09.04.03.07.09.08.13.21.89.37,1.78.48,2.64-.15.22-.26.39-.38.58.05.13.08.3.17.41.37.44.33.94.29,1.45-.02.26-.32.57-.58.65-.06,0-.1.02-.16.03-.28.05-.62-.14-.83.2-.17.25,0,.48.03.73.01.1.03.21.03.31-.01.43-.12.8-.58.98-.14.05-.28.12-.31.14-.27.51-.1.91-.08,1.31.03.71-.72,1.29-1.44,1.12-.1-.02-.19-.08-.3-.08-.17-.03-.44.2-.4.35.04.2.12.38.16.59.08.41.04.81-.12,1.2-.12.29-.46.42-.75.26-.09-.05-.19-.1-.24-.19-.08-.12-.21-.31-.17-.38.42-.78.57-1.62.71-2.47.01-.1.1-.18.17-.32.34-.12.74-.22,1.11-.37.45-.2.7-.58.76-1.07.02-.24,0-.51-.01-.76,0-.25-.04-.5-.06-.75h0ZM93.25,58.81c-.46.16-.94.31-1.42.48-.26.1-.42.47-.35.77.02.1.06.2.08.29.15.54.49.76,1.04.55.14-.05.29-.12.43-.11.14,0,.31.05.41.15.14.13.21.33.34.49.21.26.51.31.82.15.27-.15.48-.34.65-.62.16-.26.37-.47.59-.69.03-.05.23-.05.27,0,.19.23.35.5.53.74.38.49.93.63,1.5.4.29-.11.55-.28.74-.52.22-.28.42-.57.64-.86.43-.56.67-.55.98.04.08.13.12.28.2.42.15.27.5.34.79.18.59-.33,1.07-.77,1.35-1.4.18-.39.45-.64.91-.69.24-.03.33-.48.15-.63-.74-.65-.75-.76-1.45-.02-.21.22-.42.44-.64.66-.57.54-.79.56-1.63.16-.09-.05-.18-.07-.28-.11-.25.08-.37.34-.55.5-.19.17-.38.35-.61.46-.45.2-.93.49-1.44.38-.38-.08-.7-.37-1.06-.57-.03,0-.08,0-.13.02-.1.04-.19.08-.27.12-.85.39-1.58.28-2.21-.42-.09-.11-.23-.2-.38-.32h0ZM55.81,43.08c-.01-.13.01-.26-.04-.32-.15-.19-.32-.38-.51-.55-.43-.43-.59-.92-.46-1.52.1-.49.21-.98.31-1.47-.12-.04-.23-.1-.3-.07-.23.09-.45.21-.66.35-.9.56-1.89.65-2.93.57-.23-.02-.47-.12-.74.03.07.13.11.3.22.38.45.3.9.64,1.48.75.1.01.19.05.29.08.34.12.4.37.19.72-.2.35-.47.64-.8.9-.55.44-1.03.96-1.45,1.54-.19.26-.26.54-.29.85v.15c0,.13.17.27.3.24.96-.18,1.82-.64,2.7-1.01.98-.43,1.89-.96,2.72-1.6h0ZM53.68,45.35c.31.04.43.27.44.53,0,.19-.08.39-.13.59-.22.85-.03,1.62.51,2.29.31.4.66.76,1.02,1.16-.13.12-.22.25-.34.31-1.19.46-2.37.93-3.57,1.35-.53.18-1.09.27-1.64.38-.21.04-.4-.04-.53-.27.27-.53.65-.99,1.16-1.35.57-.42,1.07-.92,1.51-1.46-.12-.29-.36-.4-.58-.52-.49-.27-.95-.59-1.32-1.01-.12-.14-.18-.36-.19-.55,0-.12.1-.29.21-.36.27-.15.54-.21.86-.03.44.23.45.2.76-.13.13-.15.26-.3.4-.44.46.07.09.74.64.71.41-.25.41-.85.81-1.17h0ZM81.72,81.77c-.19.21-.39.44-.61.65-1.57,1.47-2.82,3.21-4.07,4.94-.29.41-.56.86-.88,1.24-.86,1.01-1.56,2.13-2.16,3.31-.12.23-.21.46-.35.68-.13.23-.32.4-.58.46-.44.12-.87.25-1.31.38-.05.01-.13,0-.15-.03-.04-.07-.11-.19-.09-.26.08-.24.17-.49.3-.7.6-1,1.22-2,1.82-2.99,1.07-.98,1.64-2.33,2.6-3.4.33-.37.55-.84.87-1.23.3-.34.69-.61.97-.96.58-.73,1.39-1.19,2.11-1.75.11-.09.28-.16.42-.15.4.03.54-.48.94-.43.04,0,.08.03.12.06.02.04.03.08.07.16h0ZM95.36,68.17c-.17.09-.31.13-.42.23-.55.52-1.18.78-1.94.68-.36-.06-.72.06-1.02.27-.1.08-.23.26-.21.36.15.54.4,1.04.74,1.49.18.23.63.31.83.13.33-.31.65-.64.97-.96.16-.17.41-.16.52.03.22.34.42.69.65,1.03.21.3.67.33.94.08.12-.1.23-.21.32-.32.19-.24.36-.49.55-.73.18-.21.49-.23.66-.03.12.16.23.34.34.5.14.16.34.25.55.18.75-.23,1.37-.63,1.7-1.39.29-.65.63-1.28.91-1.92.1-.21,0-.39-.26-.46-.2.13-.39.29-.61.42-.31.18-.62.35-.95.48-.3.13-.59.1-.84-.14-.07-.07-.15-.16-.24-.17-.14-.02-.32-.03-.42.04-.24.17-.44.42-.69.59-.41.28-.86.31-1.3.09-.27-.13-.51-.3-.77-.46h0ZM68.07,15.96c.13-.05.32-.07.41-.17.1-.09.1-.27.12-.43.02-.09,0-.2-.01-.3-.29-2.47.15-4.86.84-7.23.13-.44.28-.87.43-1.3.05-.17.23-.23.34-.16.14.1.23.23.21.38-.09.45-.22.89-.32,1.32-.08.35-.16.7-.04,1.06.01.02.08.03.12.04.06,0,.12,0,.14-.02.07-.07.14-.15.16-.24.14-.38.24-.78.37-1.16.11-.34.39-.37.72-.12.35.27.54.6.41,1.05-.03.1-.04.2-.06.31-.56,1.8-.87,3.66-1.2,5.51-.11.61-.29,1.19-.45,1.78-.04.14-.11.28-.18.42-.41.81-1.05.89-1.7.2-.24-.26-.25-.28-.32-.94h0ZM95.32,66.81c-.12.13-.27.28-.39.43-.13.16-.25.33-.36.47-.07.03-.11.07-.15.08-.49.03-.99.05-1.51.07-.09-.19-.17-.37-.25-.54-.15-.34-.3-.38-.58-.23-.23.12-.44.27-.67.34-.42.16-.87-.16-.84-.6.02-.65.06-1.32.11-1.97.01-.19.08-.39.12-.57.34.02.46.27.63.44.45.48.97.72,1.65.5.14-.05.3-.05.46-.07.17.1.34.2.51.32.58.39,1.16.32,1.71-.05.21-.14.37-.35.65-.37.03.04.08.06.11.1.61.69.85.7,1.73.24.18-.09.37-.21.5-.36.45-.6.96-.8,1.68-.46.45.22.89-.1,1.32-.24.03,0,.09.02.11.04.03.04.07.11.06.13-.4.54-.64,1.14-.86,1.77-.23.61-.68.98-1.26,1.25-.21.1-.54-.02-.63-.26-.1-.24-.15-.48-.24-.72-.1-.28-.26-.46-.39-.38-.12.07-.27.15-.35.26-.26.38-.49.78-.75,1.15-.15.21-.38.32-.64.38-.22.04-.42,0-.56-.16-.17-.19-.3-.41-.43-.62-.1-.18-.21-.34-.46-.39h0ZM97.33,62.27c.69-.02,1.19-.27,1.65-.58.25-.18.48-.38.71-.57.17-.13.36-.17.56-.03.12.09.24.19.36.27.18.11.38.16.58.07.42-.19.82-.4,1.24-.59.04-.02.12-.02.14,0,.05.06.13.15.12.21-.05.25-.14.49-.19.74-.17.91-.77,1.52-1.45,2.06-.23.18-.66.11-.82-.12-.11-.17-.18-.37-.29-.53-.25-.36-.48-.31-.75-.03-.24.25-.41.58-.62.86-.18.25-.34.5-.54.72-.28.29-.87.19-1.05-.18-.11-.23-.19-.47-.25-.71-.06-.2-.16-.44-.36-.41-.17.02-.36.19-.47.34-.25.32-.45.69-.7.99-.12.15-.34.2-.56.14-.21-.06-.35-.19-.41-.39-.04-.15-.04-.3-.04-.45,0-.22-.08-.43-.29-.48-.1-.04-.26.1-.39.17-.09.05-.14.14-.21.21-.77.84-1.2.45-1.7-.21-.15-.2-.25-.44-.4-.64-.12-.16-.27-.3-.42-.47.06-.31.12-.61.2-.89.02-.07.17-.17.23-.15.48.18.95.33,1.48.17.2-.06.38.05.53.22.33.39.76.44,1.24.36.62-.1,1.13-.41,1.56-.76.54.1.83.49,1.3.65h0ZM51.45,71.47c.55-.45,1.24-.76,1.37-1.45,1.39-.43,1.72-.33,2.32-2.14.35-.18.76-.38,1.16-.6.52-.29.84-.71.95-1.31.05-.29.13-.59.21-.99.3-.2.71-.4,1.04-.69.32-.25.54-.6.8-.89.46-.02.91-.04,1.37-.06.04-.01.09,0,.14.02.3.03.55.35.49.66-.09.53-.32.96-.89,1.11-.14.04-.29.1-.4.2-.06.05-.1.19-.08.27.03.15.12.27.18.42.23.48.18.73-.18,1.07-.27.25-.57.43-.91.53-.3.09-.59.15-.89.23-.2.05-.29.3-.21.48.04.1.08.19.14.27.19.29.16.6-.01.87-.38.62-.91,1.09-1.62,1.33-.24.08-.49.13-.74.19-1.03.23-2.08.46-3.12.67-.3.06-.6.05-.91.05-.06,0-.11-.11-.2-.22h0ZM99.59,57.28c-.32.26-.52.61-.68.98-.22.51-.66.75-1.14.96-.25.11-.67-.01-.8-.27-.18-.36-.3-.74-.46-1.11-.04-.1-.33-.14-.4-.05-.1.11-.22.21-.31.33-.15.21-.28.42-.44.62-.27.33-.76.31-1.08,0-.25-.25-.48-.53-.58-.88-.03-.1-.04-.2-.09-.29-.17-.42-.28-.45-.66-.21-.09.05-.16.15-.25.17-.08.02-.19-.03-.26-.07-.12-.07-.07-.32.05-.4.37-.28.79-.51,1.25-.46.47.04.91-.03,1.34-.18.64-.23,1.26-.34,1.92-.08.25.1.5,0,.73-.14.22-.12.43-.25.63-.37.36.06.52.36.76.53.49.35.78.37,1.23,0,.28-.22.55-.44.76-.62.19,0,.3-.04.39,0,.74.29,1.39.06,1.99-.36.26-.17.51-.35.75-.53.16-.12.34-.22.56-.2.44.04.76-.17,1.09-.44.52-.43.92-.95,1.27-1.51.07-.1.31-.12.41-.02.11.1.2.25.11.39-.4.58-.63,1.29-1.29,1.67-.16.09-.24.31-.35.48-.34.51-.66,1.03-1,1.53-.09.12-.22.22-.33.32-.23.23-.61.21-.8-.04-.09-.12-.16-.26-.25-.38-.08-.13-.14-.27-.23-.39-.2-.29-.57-.31-.76-.04-.12.17-.21.35-.32.51-.27.37-.53.75-.82,1.11-.4.5-.79.5-1.27.02-.17-.18-.35-.36-.53-.53-.03-.03-.09-.02-.14-.04h0ZM57.19,49.9c-.45-.41-.8-.92-1.46-1.06-.13-.03-.25-.16-.35-.27-.67-.83-.67-2.01,0-2.83.06-.05.18-.07.28-.08.05,0,.11,0,.15.01,1.39.61,2.85.71,4.34.66.81-.03,1.62.04,2.44-.02,1.22-.09,2.42-.24,3.6-.56.07,0,.21.05.25.12.04.05.01.18-.03.25-.05.09-.14.16-.22.22-.15.12-.31.26-.49.35-1.62.87-3.17,1.84-4.88,2.52-1.18.48-2.34,1-3.51,1.49-.06.03-.19-.04-.26-.09-.09-.08-.07-.18,0-.27.03-.04.06-.09.07-.13.03-.1.04-.2.07-.29h0ZM100.1,46.88c.09.55.15,1,.23,1.46.02.1,0,.21.06.29.02.06.13.08.21.1.03,0,.09-.06.1-.1.04-.15.1-.3.08-.45-.01-.2-.08-.39-.12-.6-.1-.45.04-.61.54-.68.05,0,.1.01.15,0,.8-.04,1.02-.5,1.13-1.02.06-.31.06-.61-.06-.89-.08-.19-.13-.38-.19-.58-.03-.13.07-.33.21-.37.14-.03.29-.06.44-.07.35,0,.55-.2.67-.52.17-.5.14-1-.1-1.48-.17-.37-.35-.74-.51-1.11-.12-.26.07-.51.35-.52.31,0,.61.01.91,0,.22-.02.38-.19.43-.39.06-.24.11-.51.05-.75-.07-.34-.23-.67-.37-.99-.11-.28-.31-.53-.26-.91.14-.08.31-.22.48-.28.41-.13.53-.43.61-.8.08-.37,0-.71-.23-1-.16-.2-.34-.38-.51-.57-.55-.62-.52-.74.35-1.1.37-.16.49-.55.27-.87-.19-.31-.47-.53-.76-.73-.16-.11-.4-.2-.47-.36-.31-.66-.89-.95-1.51-1.21-.26.19-.11.47-.13.7-.04.31-.08.62-.31.84-.41.38-.42.77-.1,1.21.11.17.19.36.25.55.17.47.15.89-.28,1.23-.11.09-.17.24-.26.38.35.63.69,1.25,1.02,1.87.19.36.32.75.32,1.17,0,.37-.2.69-.54.85-.27.13-.62.04-.85.43.1.42.21.91.34,1.39.11.43.04.79-.27,1.12-.21.21-.5.37-.53.71.53,1.16.56,1.33.5,2.18-.04.42-.16.8-.49,1.09-.27.23-.53.47-.86.77h0ZM106.27,41.83c-.13.22-.13.43-.02.61.18.31.39.58.58.89.13.22.25.44.32.68.1.3.02.61-.22.83-.24.23-.52.31-.84.15-.13-.06-.27-.11-.41-.16-.19.12-.35.26-.25.5.1.23.21.45.34.68.11.23.26.43.35.67.3.73-.25,1.46-1.06,1.39-.21-.01-.39-.09-.58-.14-.57-.13-.71.02-.61.63.06.4.13.8.17,1.2.04.36-.05.7-.22,1.03-.22.42-.77.61-1.17.39-.32-.17-.62-.37-.91-.56-.13-.08-.26-.15-.4-.22-.15-.08-.47.11-.47.28,0,.15.01.3.03.45.08.65-.32,1.01-.91,1.22-.08.03-.19,0-.29-.04-.13-.03-.25-.29-.19-.37.22-.27.53-.51.6-.87.13-.57.41-1.03.87-1.38.33-.27.51-.62.57-1.04.04-.3.08-.59.11-.85.08-.07.11-.13.15-.13,1.03-.3,1.44-1.05,1.51-2.05.01-.2,0-.4,0-.64.39-.5.83-.99.99-1.66.16-.68-.05-1.3-.2-1.88.12-.14.17-.24.25-.27,1.04-.38,1.09-1.25,1.04-2.14-.02-.4-.16-.79-.25-1.18.19-.27.37-.51.52-.77.42-.71.5-1.43.05-2.17-.12-.21-.22-.45-.33-.64.17-.27.3-.48.44-.7.08-.11.33-.11.41-.02.34.44.69.87,1.03,1.31.25.33.45.67.22,1.11-.04.1.03.3.11.42.15.26.35.5.53.75.25.34.34.73.32,1.15-.02.32-.19.52-.56.61-.1.03-.2,0-.3.03-.19.06-.36.3-.3.46.04.14.07.31.14.43.31.54.2,1.08.03,1.62-.07.2-.22.34-.45.35-.25,0-.51,0-.73,0h0ZM44.5,71.94c.03-.08.06-.19.12-.22.32-.16.65-.29.96-.45.41-.2.79-.46,1.04-.87.13-.23.32-.41.58-.44,1.04-.17,1.72-.8,2.25-1.68.24-.05.48-.12.73-.18.67-.15,1.21-.5,1.66-1.01.2-.23.42-.44.66-.62.62-.46.91-1.09.95-1.83.02-.36.11-.69.25-1.02.1-.23.17-.49.05-.74-.27-.48-.08-.87.23-1.24.03-.04.05-.09.1-.18-.29-.25-.59-.5-.96-.82.32-.11.54-.2.77-.27.99-.23,1.98-.45,2.97-.68.35-.09.69-.08,1.05-.05.39.04.66.22.87.54.31.45.22.86-.27,1.14-.26.15-.55.25-.81.39-.24.12-.23.48,0,.62.08.06.19.08.27.13.51.29.59.67.26,1.11-.19.25-.41.45-.69.57-.42.17-.86.31-1.29.47-.26.09-.33.34-.17.6.05.09.14.15.18.24.2.33.14.75-.12.96-.45.35-.95.59-1.53.64-.09,0-.2-.02-.3,0-.38.04-.57.26-.47.59.04.14.14.28.17.43.07.29-.1.63-.35.78-.41.23-.83.42-1.26.03-.14-.14-.33-.22-.55-.24-.17,0-.44.21-.39.36.03.1.06.2.1.29.12.27.37.49.22.83-.13.3-.41.45-.66.61-.04.03-.09.05-.12.07-.54.28-1.04.33-1.59,0-.45-.26-.74,0-.69.56.02.09.07.19.07.29.03.22-.11.38-.34.39-1.01.07-2.02.18-3.04.02-.3-.05-.61.05-.89-.12h0ZM98.7,32.13c.16-.31.33-.62.46-.94.26-.58.05-1.25-.47-1.62-.29-.19-.61-.37-.89-.58-.06-.03-.09-.18-.07-.27.06-.31.28-.53.43-.74.17.01.28-.01.35.03.48.28.98.55,1.42.88.67.47,1.27,1.03,1.53,1.85.15.45-.14.92-.65,1.01-.1.01-.21,0-.31,0s-.2,0-.3.01c-.19.02-.33.33-.21.47.26.31.56.59.82.9.15.2.28.41.41.63.11.21,0,.56-.21.67-.13.06-.28.11-.42.16-.56.19-.62.41-.2.83.63.6,1.14,1.3,1.51,2.09.06.14.1.29.14.43.08.23-.1.52-.35.58-.3.06-.6.1-.9.14-.14.03-.29.07-.44.11-.11.03-.23.28-.18.37.12.22.23.46.36.66.25.34.41.7.51,1.1.09.4-.1.84-.51.98-.24.08-.5.08-.75.14-.27.05-.4.36-.23.57.25.32.52.62.79.92.41.45.5,1,.39,1.56-.09.44-.45.67-.85.81-.18.06-.39.04-.6.09-.23.05-.39.38-.3.61.18.47.36.95.53,1.42.04.14.06.3.08.45.08.53-.24.85-.83.8-.2-.02-.39-.09-.59-.11-.43-.06-.65.19-.56.65.06.3.14.59.17.89.07.47-.34.81-.86.76-.11,0-.2-.04-.3-.04-.27,0-.49.21-.41.5.12.41.04.68-.34.89-.13.06-.21.23-.34.29-.13.06-.31.11-.45.08-.24-.05-.47-.17-.71-.27-.65-.27-.8-.16-.8.53,0,.15.02.31-.02.45-.04.14-.1.29-.28.32-.52.1-1,.05-1.46-.26,1.23-1,1.22-1,1.74-2.55.08-.23.39-.27.63-.36.33-.12.66-.24.99-.41.7-.34,1.11-.87,1.05-1.69-.03-.25.03-.5.06-.75.38-.23.72-.44,1.06-.66.46-.32.64-.78.57-1.32-.05-.4-.14-.79-.23-1.18.08-.09.12-.2.21-.24.7-.38.78-1.03.68-1.71-.04-.34-.19-.68-.29-1.03.14-.16.28-.3.42-.45.48-.48.62-1.04.39-1.68-.08-.24-.16-.48-.25-.71-.19-.42-.21-.78.25-1.04.23-.13.37-.35.46-.59.16-.39.19-.8.02-1.19-.15-.33-.33-.63-.5-.95-.1-.19-.08-.38.05-.57.05-.08.11-.17.17-.25.31-.42.25-.88.08-1.31-.18-.42-.45-.8-.7-1.21h0ZM90.65,46.02c.44-.36.83-.68,1.21-1.01.3-.25.39-.6.32-.96-.07-.39-.19-.78-.3-1.19.75-.89.89-1.82.04-2.72.23-.44.41-.79.61-1.15.16-.29.17-.58.17-.89-.02-.37-.11-.69-.4-.95-.14-.13-.27-.29-.38-.42-.05-.47.16-.84.24-1.23.16-.82-.06-1.51-.66-2.08-.18-.17-.38-.32-.58-.5.04-.32.08-.62.13-.91.09-.59-.09-1.11-.47-1.56-.4-.46-.84-.88-1.43-1.1-.13-.05-.25-.15-.37-.23.11-1.6.09-1.64-1.19-3.09-.07-.53-.12-1.04-.19-1.54-.01-.16.12-.34.24-.31,1.29.24,2.62.32,3.83.93.36.18.42.56.22.91-.1.17-.25.31-.39.45-.62.59-.6.77.2,1.17.1.04.19.08.29.11.05.03.1.04.14.06.52.3.73.86.51,1.45-.1.29-.26.55-.4.82-.07.17.05.45.22.5.3.09.59.16.88.25.46.12.85.36,1.2.65.29.24.44.55.41.94-.05.64-.25,1.19-.86,1.52-.12.08-.24.19-.35.28-.12.09-.11.33.01.38.33.11.67.22,1.01.32.52.16.87.49,1.09.99.08.18.05.42-.1.56-.12.1-.25.17-.37.28-.3.26-.33.52-.09.77.18.18.39.33.55.53.12.15.21.35.26.54.18.71-.04,1.14-.73,1.46-.14.06-.28.1-.42.17-.18.09-.24.39-.12.52.14.14.31.26.44.42.26.28.3.64.25,1-.04.27-.21.48-.44.59-.32.15-.66.25-.99.38-.19.07-.29.34-.19.5.03.05.04.1.08.13.31.3.53.64.4,1.08-.16.57-.5,1-1.08,1.2-.05.02-.1,0-.15.02-.71.24-.77.31-.38.91.27.43.13,1.02-.3,1.33-.52.37-1.1.54-1.73.5-.03,0-.08-.05-.1-.08-.02-.04-.05-.1-.04-.13.14-.38.38-.74.43-1.12.04-.44-.08-.91-.15-1.46h0ZM88.22,68.24c.06-.09.11-.13.11-.18.03-1.08.21-2.13.58-3.14.08-.23.14-.49.14-.74.07-1.49.44-2.91.98-4.3.13-.34.24-.68.32-1.02.33-1.34-.05-2.1-1.08-2.73-.36-.23-.73-.32-1.16-.23-.69.13-1.39.32-2.09.34-.69,0-1.16.3-1.57.78-.34.37-.66.77-1.01,1.14-1.01,1.06-1.87,2.28-3.11,3.13-.56.39-.35.74.08.89.68.24,1.29.58,1.89.98.34.22.71.39,1.05.61,1.68,1,3.2,2.17,4.35,3.77.16.23.33.46.51.71h0ZM95.19,80.35c.07.04.13.1.18.16.62.32,1.19.16,1.72-.21.36-.26.49-.64.42-1.07-.02-.12-.17-.27-.3-.29-.12-.04-.33.02-.41.11-.15.2-.21.46-.36.65-.08.11-.27.18-.4.17-.13-.01-.29-.14-.35-.26-.09-.17-.1-.39-.18-.58-.07-.2-.26-.29-.49-.24-.15.04-.29.12-.44.16-.18.04-.42-.12-.49-.29-.16-.39-.21-.78-.04-1.17.04-.04.08-.09.12-.1.5-.08,1-.15,1.5-.22.05.03.1.05.12.08.71.79,1.54.67,2.37.29.45-.2.73-.55.85-1.02.03-.1.04-.2.03-.3-.02-.15-.07-.32-.23-.35-.13-.02-.33,0-.41.08-.17.19-.26.43-.41.64-.18.25-.42.41-.74.5-.32.07-.63,0-.8-.28-.07-.13-.11-.28-.18-.42-.25-.48-.35-.52-.83-.27-.23.11-.44.26-.67.33-.41.13-.83-.07-1.03-.43-.09-.18-.15-.38-.26-.54-.08-.13-.21-.23-.38-.17-.23.07-.47.38-.42.56.05.14.1.3.17.42.15.26.33.51.5.76-.1.46-.2.9-.3,1.37-1.1-.08-2.06-.51-2.84-1.26-.91-.86-1.46-1.95-1.55-3.22-.01-.18.09-.42.23-.54.62-.52,1.27-1.01,1.91-1.51.27-.2.58-.22.87-.13.29.09.56.24.83.38.3.15.6.13.89,0,.23-.09.45-.22.67-.34.41-.22.47-.21.8.08.12.1.21.23.33.31.52.35,1.09.35,1.56-.02.2-.15.37-.35.56-.51.17-.13.38-.18.56-.02.35.32.72.3,1.13.14.86-.37,1.65-.81,2.11-1.67.1-.18.25-.32.5-.35.07,1.03.38,1.98.89,2.89.1.18.23.36.26.55.08.71.49,1.2.98,1.66.34.31.63.67.93,1,.37.37.7.75.98,1.17.28.42.61.82.95,1.2.41.47.69,1,.91,1.58.81,2.03,1.1,4.12.69,6.29-.03.2-.05.4-.08.61-.25,2.28-1.06,4.34-2.26,6.26-1.44,2.3-3.09,4.42-5.12,6.23-.8.71-1.23.98-2.28,1.46-.01-.09-.07-.22-.03-.27.12-.15.27-.3.43-.42.59-.49,1.14-1.01,1.62-1.61.38-.47.82-.92,1.25-1.35.59-.57,1.08-1.21,1.51-1.91,1.05-1.71,1.86-3.51,2.32-5.45.38-1.64.59-3.3.5-4.99-.03-.41,0-.81-.03-1.22-.01-.31-.03-.62-.1-.91-.42-1.63-.94-3.23-1.79-4.69-.38-.67-.75-1.34-1.06-2.03-.19-.42-.42-.86-.98-.84-.54.03-.74.5-.94.9-.31.64-.58,1.3-.87,1.96-.07.13-.16.26-.22.4-.04.09-.07.2-.06.29.01.1.06.19.11.27.07.1.35.11.42.02.22-.28.45-.55.61-.85.3-.53.48-1.13.87-1.59.23.04.4.18.46.38.18.54.49.99.77,1.47.54.92.99,1.89,1.28,2.93.49,1.74.64,3.5.45,5.29-.04.45-.08.9-.1,1.37-.01.51-.08,1.01-.29,1.49-.08.19-.16.38-.17.58-.1,1.38-.79,2.52-1.42,3.68-.61,1.12-1.27,2.2-2.17,3.13-.32.33-.58.7-.87,1.06-1.09,1.31-2.4,2.35-3.9,3.14-.39.22-.8.41-1.27.65-.07-.25-.16-.44-.19-.62-.04-.26,0-.52.21-.7.63-.59,1.26-1.19,1.92-1.75,1.1-.93,2.09-1.93,2.87-3.15.33-.51.74-.98,1.14-1.43.58-.65,1.01-1.4,1.42-2.16.1-.18,0-.55-.2-.68-.07-.05-.2-.06-.27-.02-.08.04-.13.15-.18.24-.58,1.2-1.32,2.3-2.18,3.29-.65.76-1.39,1.48-2.24,2.05-.39.26-.69.58-.98.95-.43.56-.91,1.09-1.37,1.62-.07.09-.37.05-.41-.05-.08-.24-.21-.47-.22-.72-.03-.56.08-1.12.41-1.6,1.13-1.57,2.12-3.23,3.33-4.75.41-.51.78-1.07,1.43-1.33.03-.01.05-.19.01-.27-.04-.08-.15-.17-.23-.17-.14,0-.34,0-.42.1-.45.48-.92.96-1.31,1.49-.73.98-1.41,2-2.11,2.99-.44.62-.88,1.24-1.33,1.85-.05.08-.17.1-.27.14-.09.03-.25-.11-.3-.27-.03-.1-.09-.2-.08-.29.06-.86.1-1.73.21-2.58.04-.34.22-.68.41-.98.63-1.05,1.28-2.08,1.95-3.1.41-.64.85-1.24,1.29-1.86-.34-.18-.56-.2-.67-.02-.21.29-.38.59-.59.89-1.09,1.65-2.25,3.27-3.07,5.2-.13-.21-.23-.31-.25-.42-.14-.71-.01-1.42,0-2.13,0-.14.09-.28.15-.42.1-.22.28-.44.31-.69.1-.91.56-1.62,1.16-2.27.14-.14.28-.3.4-.45.6-.85,1.33-1.54,2.37-1.85.03,0,.03-.16.03-.25,0-.04-.06-.09-.11-.1-.41-.13-.82-.06-1.14.21-.34.3-.65.64-.94,1-.46.54-.91,1.08-1.47,1.55-.03-.11-.08-.2-.06-.27.09-.35.16-.7.28-1.03.29-.72.71-1.35,1.22-1.93.43-.49.96-.93,1.07-1.63.23-.27.47-.54.73-.85-.13-.06-.25-.14-.38-.16-.08-.01-.19.05-.28.11-.2.15-.38.34-.59.48-.55.37-1.12.7-1.66,1.09-.52.39-1.01.84-1.59,1.31,0-.25-.02-.4.02-.52.46-.97.87-1.95,1.53-2.8.08-.12.17-.28.17-.41s-.09-.27-.18-.38c-.08-.11-.35-.06-.41.05-.1.17-.22.34-.3.53-.49,1.28-1.02,2.54-1.54,3.81-.3.76-.78,1.29-1.42,1.73-.04.03-.1,0-.14,0-.12,0-.18-.07-.16-.2.03-.2.05-.41.12-.6.46-1.29.73-2.65,1.21-3.93.03-.09.04-.21.01-.29-.02-.08-.11-.14-.19-.18-.03-.03-.1-.02-.14,0-.24.14-.32.39-.36.63-.19,1.01-.49,1.97-.86,2.93-.31.75-.44,1.56-.46,2.4-.69.59-1.38,1.21-2.17,1.67-.1.06-.27,0-.41,0,.1-.49.16-.94.3-1.38.43-1.41.91-2.8,1.38-4.2.08-.23.17-.47.25-.71.01-.03-.03-.11-.07-.13-.08-.04-.18-.08-.26-.05-.1.02-.21.09-.24.17-.13.33-.26.67-.35,1.01-.43,1.51-.85,3.03-1.28,4.55-.13.44-.26.88-.44,1.3-.09.24-.24.48-.43.62-.75.54-1.53,1.02-2.42,1.27-.09.02-.22,0-.28-.07-.06-.06-.1-.2-.07-.28.33-1.01.68-2.01,1.04-3.02.16-.43.38-.83.53-1.26.25-.67.53-1.32.98-1.89.24-.32.44-.68.52-1.09.03-.15-.04-.34-.18-.36-.16-.03-.31.03-.38.17-.38.72-.83,1.42-1.08,2.18-.35,1.07-.85,2.07-1.27,3.1-.33.8-.57,1.63-.85,2.45-.11.32-.34.5-.66.56-.25.05-.5.07-.76.07-.45.01-.91-.02-1.38,0-.61.04-.81-.03-.52-.74.8-1.99,1.97-3.79,2.98-5.66.26-.49.61-.93,1.02-1.32.25-.25.53-.49.62-.86.03-.08.01-.21-.03-.26-.04-.05-.21-.07-.26-.02-.64.58-1.18,1.25-1.61,2-.59,1.06-1.12,2.17-1.7,3.24-.58,1.07-1.21,2.12-1.81,3.18-.14.24-.34.39-.61.42-.85.06-1.71.12-2.57.16-.05,0-.17-.17-.16-.21.33-.86.65-1.7,1.32-2.39.36-.35.63-.79.93-1.2.45-.62.83-1.29,1.39-1.82.08-.07.14-.15.19-.24.67-1.4,1.96-2.32,2.84-3.56.31-.43.72-.73,1.17-.96.5-.25.85-.79,1.43-.85.5-.06,1.01-.04,1.53-.03,1.39.04,2.72-.2,4.03-.67.96-.36,1.92-.68,2.89-1.01.34-.12.61-.33.83-.62.19-.28.41-.28.59-.03.32.45.71.7,1.24.81.18.03.32.24.46.37h0ZM94.17,46.27c.09.04.19.11.28.11.51,0,.69.29.79.75.08.37.33.49.66.42.46-.11.85-.32,1.17-.68.18-.2.24-.43.18-.71-.07-.3-.19-.57-.43-.78-.15-.13-.31-.26-.45-.41-.15-.15-.08-.45.09-.51.34-.1.69-.18,1.02-.28.29-.08.47-.39.47-.72-.02-.32-.12-.6-.36-.8-.22-.2-.48-.37-.7-.57-.04-.04-.03-.24.01-.27.22-.11.46-.2.69-.29,1.07-.4,1.07-1.1.75-1.8-.2-.42-.52-.74-.81-1.1-.1-.13-.01-.46.15-.54.23-.1.47-.18.69-.29.69-.32.84-1.05.32-1.64-.24-.26-.53-.47-.78-.72-.1-.1-.19-.23-.25-.36-.03-.09,0-.26.06-.28.22-.12.46-.2.69-.29.27-.1.36-.34.39-.6.04-.33-.08-.61-.33-.81-.27-.22-.57-.42-.85-.63-.22-.17-.22-.48,0-.64.17-.12.35-.21.52-.32.22-.16.33-.39.38-.64.08-.36-.11-.74-.44-.87-.66-.26-1.37-.41-1.98-.86.06-.14.09-.31.19-.38.28-.22.6-.39.87-.61.24-.19.2-.65-.07-.78-1.15-.56-2.28-1.13-3.44-1.64-.99-.43-1.09-.25-1.41.7-.04.14-.06.29-.1.49.15.17.33.35.5.53.47.53.68,1.12.5,1.83-.02.1-.05.2-.06.3-.01.21.07.4.25.52.46.31.94.61,1.39.93.6.43.78,1.04.67,1.75-.03.2-.1.39-.18.57-.11.27-.26.52-.42.82.5.25.89.56,1.2.97.45.59.59,1.17.13,1.82-.03.03-.02.09-.05.22.08.16.22.38.33.6.36.79.4,1.56-.15,2.3-.15.19-.36.37-.37.63.01.12.03.22.05.32.2,1.45.2,1.47-.85,2.6-.12.91-.18,1.89-.86,2.67-.16.11-.33.21-.47.34-.1.1-.18.22-.22.36-.01.08.04.17.09.26,0,0,.08-.01.12-.03.38-.21.52-.55.45-.97h0ZM87.68,80.32c.05-.06.09-.16.15-.19.07-.02.18.02.23.07.06.05,0,.12-.14.12-.09,0-.17-.03-.27-.05-.07.07-.13.17-.21.19-.79.2-1.59.33-2.41.21-.39-.06-.81,0-1.22.01-.92.04-1.83-.01-2.73-.22-1.18-.28-2.37-.53-3.49-1.08-.87-.42-1.77-.77-2.68-1.11-.53-.19-1.01-.46-1.45-.82-.08-.07-.15-.14-.24-.19-1.23-.69-2.09-1.76-2.97-2.81-.55-.63-.93-1.33-1.09-2.15-.32-1.49-.76-2.96-.97-4.47-.07-.5-.21-1-.32-1.49,0-.03.04-.09.07-.12.07-.09.16-.09.24,0,.79.89,1.4,1.87,1.51,3.09.11,1.23.68,2.34.98,3.52.06.19.18.38.3.52.45.56.89,1.13,1.39,1.62.65.64,1.33,1.25,2.08,1.79.69.51,1.46.92,2.21,1.34,1.29.73,2.65,1.3,4.12,1.56.3.05.6.12.9.2,1.54.4,3.1.52,4.68.28.46-.06.91-.07,1.34.15h0ZM40.82,71.3c-.08.05-.15.1-.23.14,0-.04-.02-.08-.03-.11.1,0,.19,0,.29,0,0-.17.1-.27.24-.35.46-.24.83-.57,1.04-1.07.15-.35.42-.54.78-.65.42-.13.71-.39.8-.83.08-.38.26-.65.6-.82.53-.28.81-.73.99-1.29.11-.37.31-.45.68-.45.78.01,1.51.19,2.21.54.4.21.87.3,1.17.67.06.06.06.19.06.28,0,.02-.07.06-.11.06-.3-.01-.6-.04-.89-.04-.07,0-.18.13-.19.2,0,.2.01.4.05.59.05.36-.15.59-.41.76-.46.27-.95.29-1.47.17-.3-.06-.46.08-.53.39-.03.14-.03.3-.07.45-.07.26-.22.46-.45.6-.91.51-1.85.81-2.9.5-.32-.1-.57-.03-.8.24-.24.28-.53.23-.82.04h0ZM29.08,47.23c-.26.38-.65.43-1.06.43-.31.25-.63.49-.94.74-.79.65-1.62,1.21-2.57,1.6-.62.24-1.25.42-1.92.49-.5.06-1.02.04-1.51.15-1.3.29-2.53.04-3.75-.38-.72-.24-1.43-.52-2.14-.81-.87-.36-1.55-.95-2.03-1.77-.47-.81-.85-1.62-.89-2.57-.01-.5-.08-1.01-.12-1.52-.03-.41.06-.8.21-1.19.17-.37.32-.75.44-1.14.09-.24.21-.45.39-.64.2-.23.38-.49.49-.77.51-1.22,1.46-2.06,2.43-2.89.58-.5,1.23-.92,1.93-1.23.19-.08.38-.15.55-.26,1.24-.8,2.64-1.02,4.08-1.11,1.21-.08,2.43.04,3.65.13.24.01.5.1.75.09,1.05,0,2.01.27,2.95.7.18.09.39.11.6.13.07,0,.19-.07.22-.14.04-.08.02-.21-.03-.27-.09-.12-.21-.24-.34-.29-.89-.36-1.79-.71-2.79-.69-.41.01-.8-.09-1.21-.15.05-.13.06-.25.11-.28.64-.33,1.33-.52,2.03-.66.09-.02.2-.02.3,0,.7.1,1.4.2,2.1.33.25.05.46.22.7.31.06.02.22-.06.24-.12.04-.13.07-.31,0-.42-.07-.12-.23-.22-.36-.26-.45-.11-.9-.2-1.34-.29,0-.14-.02-.28.01-.3.96-.56,1.97-.81,3.05-.54.05.01.14-.03.14-.06.02-.08.03-.19,0-.25-.04-.1-.14-.17-.21-.22-.19-.15-.46-.26-.36-.59.08-.27.27-.42.49-.56.41-.25.86-.33,1.32-.2.29.08.56.23.85.32.08.03.21-.01.25-.07.04-.06.04-.22-.01-.27-.3-.26-.62-.5-.93-.73.14-.36.43-.5.65-.69.38-.32.79-.44,1.28-.24.14.06.29.13.43.12.12,0,.23-.14.39-.24-.2-.15-.37-.26-.53-.4-.19-.16-.19-.37-.04-.51.44-.46,1.01-.68,1.59-.86.51-.17,1,.02,1.49.16.05.02.16-.08.22-.15.08-.1.05-.19-.05-.27-.12-.09-.25-.19-.33-.31-.05-.06-.04-.2,0-.28.03-.09.13-.16.21-.21.26-.17.53-.3.79-.47.77-.52,1.6-.62,2.47-.36.14.04.29.1.44.12.08,0,.17-.05.24-.1.09-.07.03-.3-.12-.39-.18-.11-.37-.19-.53-.31-.05-.04-.09-.2-.05-.26.32-.42.78-.62,1.29-.73.04,0,.11,0,.14.04.2.19.43.25.69.19.58-.14,1.1.01,1.6.32.22.12.43.26.65.38.03.01.1-.05.12-.08.03-.04.07-.1.05-.12-.05-.14-.1-.3-.21-.38-.23-.19-.49-.35-.75-.51-.22-.13-.44-.24-.74-.41.26-.12.44-.3.61-.29.57.03,1.04-.44,1.62-.34.5.09.99.22,1.49.32.04.01.13-.04.13-.04,0-.09-.02-.19-.06-.27-.08-.12-.19-.23-.27-.34-.02-.03.01-.12.05-.14.08-.06.17-.11.25-.13,1-.19,1.91-.02,2.74.59.22.17.3.1.4-.3,0-.05.02-.11.05-.14.01-.03.07-.05.11-.05.24,0,.51.08.75-.05.75-.39,1.46-.29,2.16.16.07.05.19.03.29.02.04,0,.08-.05.1-.09.03-.04.06-.11.05-.14-.18-.24-.37-.48-.54-.72,0-.04,0-.11.03-.13,1.03-1.13,1.88-2.4,2.79-3.62.17-.24.34-.51.49-.77.41-.71.68-1.46.85-2.27.39-1.8.58-3.61.35-5.45-.03-.24.03-.5.05-.75-.07-.05-.18-.09-.2-.16-.03-.06.01-.17.07-.23.05-.06.13,0,.13.14,0,.09-.03.19-.05.28.04.03.11.05.13.08.63,1.53.91,3.1.61,4.75-.27,1.44-.55,2.89-.8,4.34-.1.55-.18,1.1-.25,1.66-.03.25,0,.51.03.76.05.44.31.74.71.92.78.35,1.58.34,2.38.11.4-.11.72-.37.98-.7.35-.44.62-.91.8-1.45.38-1.12.53-2.28.64-3.44.13-1.31.21-2.63.36-3.94.14-1.16.29-2.32.74-3.41.42-1.03.89-2.05,1.36-3.05.08-.18.25-.32.41-.45.06-.05.18-.02.28-.03.02-.15.04-.3.09-.44.02-.06.11-.09.16-.14,0,.09.04.19.01.27-.03.14-.12.27-.29.27.03.59-.23,1.09-.44,1.6-.52,1.28-.94,2.58-1.31,3.91-.32,1.13-.33,2.31-.33,3.48,0,.81.04,1.63,0,2.45-.02.6.11,1.21.19,1.81.1.65.48,1.11,1.02,1.45.17.11.35.19.55.27.62.27,1.24.11,1.62-.43.53-.76.94-1.59,1.1-2.5.15-.85.41-1.68.4-2.56,0-.34.03-.71.3-1.06.05.59.06,1.14,0,1.7-.13,1.17-.01,2.33.04,3.5.03.54.28.97.63,1.35.19.19.43.31.68.3.35-.02.71-.08,1.05-.19.18-.05.35-.22.46-.38.2-.29.38-.61.52-.92.23-.51.43-1.04.65-1.55.43-1.09,1.08-2.08,1.65-3.1.19-.34.54-.6.83-.88.04-.04.17-.03.26,0,.01,0,.05.09.03.13-.17.64-.35,1.28-.52,1.92-.17.64-.31,1.28-.58,1.89-.15.32-.25.67-.34,1.02-.16.63-.42,1.27-.11,1.93.44.93.87,1.87,1.89,2.31.33.14.65.32.88.6.53.63,1.28,1.01,1.92,1.49.16.11.35.21.54.26,1.08.29,2.1.8,3.25.8.27,0,.48.17.63.37.12.15.23.34.31.52.15.29.17.59-.02.86-.09.13-.21.23-.29.36-.15.23-.08.49.18.64.25.16.54.28.78.46.23.19.44.42.63.65.25.33.22.79-.06,1.13-.15.2-.33.38-.46.59-.04.05,0,.23.05.27.3.21.65.31,1,.33.73.05,1.21.5,1.64,1.01.26.33.28.95,0,1.29-.19.24-.41.45-.6.68-.12.14-.04.45.14.52.28.09.58.16.87.25.61.19.98.78.91,1.42-.07.57-.24,1.1-.71,1.47-.11.09-.24.19-.34.3-.17.16-.12.43.1.48.29.06.59.11.89.18.05,0,.1.03.15.04.21.06.44.39.4.59-.11.51-.25.99-.81,1.2-.09.03-.19.07-.27.12-.26.15-.33.45-.12.62.25.25.54.46.78.73.3.32.27.83-.07,1.09-.32.25-.67.46-1,.69-.16.11-.16.41.02.52.22.13.45.22.66.35.3.19.38.7.16.94-.38.42-.79.8-1.34.98-.23.08-.5.14-.69.29-.23.18-.01.47-.08.71-.01.04-.07.08-.12.09-.03.01-.1.01-.14,0-.16-.13-.29-.32-.22-.53.08-.23.25-.44.34-.67.21-.53.26-1.09.23-1.65,0-.2-.07-.4-.13-.59-.09-.29-.43-.45-.41-.79.01-.31.11-.61.14-.9.02-.25-.03-.51,0-.76.03-.48-.1-.9-.38-1.29-.08-.12-.13-.26-.18-.35.08-.39.15-.75.23-1.09.12-.55-.03-1.01-.45-1.37-.34-.3-.7-.57-1.04-.84.1-.48.21-.93.29-1.37.12-.66-.12-1.22-.63-1.63-.32-.25-.68-.43-1.04-.64-.41-.25-.43-.33-.32-.87.03-.15.09-.29.1-.45.02-.26-.05-.52-.25-.69-.42-.37-.85-.71-1.27-1.07-.16-.37.03-.71.07-1.05.07-.49-.08-.91-.39-1.27-.17-.19-.37-.35-.56-.51-.26-.22-.39-.45-.2-.78.2-.35.14-.67-.14-.97-.64-.68-1.36-1.23-2.33-1.35-.14-.02-.29.04-.43.07-.12.04-.16.28-.08.38.18.23.42.28.67.31.59.07,1.05.37,1.46.77.24.24.25.56-.03.79-.86.66-.8,1.02.35,1.25.15.04.29.1.42.18.63.33.8,1.18.33,1.68-.14.15-.3.29-.43.44-.18.21-.08.5.2.6.33.13.68.23,1.01.38.22.1.45.23.64.39.16.14.23.34.2.55-.02.15-.08.29-.12.44-.1.32-.58.53-.35.93.19.32.61.31.94.44.34.13.67.25.99.4.34.18.54.49.56.86.05.58-.05,1.12-.54,1.52-.15.13-.27.29-.4.44-.08.09,0,.36.1.4.19.08.38.15.56.22.3.11.59.16.87.29.5.23.72.73.57,1.27-.13.46-.35.83-.7,1.16-.36.34-.26.54.27.69.05.01.11.02.15.03.54.08.65.32.64.85,0,.1,0,.2,0,.31.01.61-.2,1.09-.79,1.34-.1.04-.19.1-.26.16-.12.11-.21.22-.18.4.03.17.23.32.47.32.19,0,.39-.04.6-.04.26-.01.48.19.54.43.11.52.04,1.02-.16,1.5-.07.18-.22.34-.36.46-.23.2-.5.35-.75.53-.15.11-.13.44.03.52.09.04.19.08.28.11.3.07.58.15.69.5.15.45.28.95-.04,1.32-.47.56-.69,1.22-.99,1.86-.28.6-.67,1.13-1.03,1.7-.11-.09-.21-.13-.24-.2-.11-.28-.14-.6-.3-.86-.28-.45-.24-.86,0-1.3.25-.47.19-.99.19-1.5,0-.27-.13-.48-.3-.69-.1-.11-.18-.24-.29-.4.02-.13.05-.28.09-.42.33-.95.08-1.69-.8-2.2-.09-.04-.13-.15-.23-.28.02-.3.05-.66.09-1.01.05-.49-.1-.91-.41-1.27-.2-.23-.42-.43-.65-.67.21-.28.4-.52.54-.78.48-.78.36-1.51-.33-2.19-.14-.14-.29-.28-.41-.41.53-1.76.2-2.57-.73-3.67.1-.39.23-.77.28-1.16.06-.43-.09-.82-.4-1.11-.37-.35-.77-.68-1.12-1-.18-.39.04-.72.07-1.06.03-.64-.22-1.1-.78-1.37-.19-.09-.38-.14-.56-.22-.19-.07-.38-.15-.54-.21-.19-.45.02-.84.03-1.23.01-.93-.36-1.55-1.23-1.9-.19-.08-.38-.15-.48-.2-.31-.24-.23-.51-.27-.76-.08-.44-.29-.75-.71-.92-.19-.07-.38-.15-.55-.26-.19-.1-.3-.25-.24-.5.1-.38-.06-.69-.32-.96-.44-.45-.95-.79-1.51-1.04-.48-.22-.98-.23-1.49-.15-.08.01-.14.13-.18.22-.06.12.05.34.17.36.4.08.8.14,1.2.21.46.1.85.31,1.2.62.17.16.21.52.05.69-.24.26-.49.52-.73.77-.1.11.06.47.21.48.25.02.5.04.76.03.36,0,.71.02,1.05.16.23.09.36.39.22.63-.1.18-.23.33-.33.5-.13.22.04.54.31.56.35.04.71.07,1.07.12.2.03.39.09.58.16.25.11.42.29.46.56.11.63.12,1.22-.41,1.69-.12.11-.19.24-.27.37-.06.08.04.36.14.39.24.08.48.15.73.2.39.08.8.11,1.2.2.4.09.58.63.41,1-.18.39-.52.62-.78.92-.18.21-.06.54.21.6.2.04.41.07.6.1.16.04.31.04.45.1,1.04.46,1.59,1.21.57,2.21-.2.21-.52.34-.57.67-.01.09.03.25.08.26.23.08.47.17.72.19.54.06.82.36.91.87.03.14.07.3.08.46.04.37-.07.71-.32.99-.2.23-.46.4-.67.63-.08.08-.09.27-.07.4,0,.07.14.15.22.16.3.06.6.09.91.14.56.12.84.8.56,1.32-.2.36-.45.67-.78.94-.16.12-.3.28-.43.42-.08.08-.02.37.08.41.27.12.57.2.84.33.47.2.7.57.67,1.09-.03.41-.12.8-.41,1.12-.17.19-.42.31-.43.6,0,.08.08.24.12.24.35.02.7,0,1.05.02.44.03.72.39.68.84-.04.43-.19.78-.61.98-.18.09-.34.2-.51.32-.09.07,0,.33.09.4.27.21.59.11.88.17.32.07.55.33.55.63,0,.52-.13,1.01-.36,1.47-.06.12-.2.22-.31.31-.2.15-.42.28-.63.42-.03.02-.04.11-.02.15.03.08.07.21.13.23.24.06.49.07.74.12.2.04.39.23.4.41.05.46.09.91-.17,1.33-.14.23-.19.46-.23.72-.03.19-.12.38-.25.54-.16.24-.45.43-.57.7-.59,1.25-1.78,1.94-2.69,2.88-.02.02-.11.02-.12,0-.06-.07-.15-.18-.13-.24.23-.67.58-1.31.62-2.04.02-.65.02-1.31.05-1.99.17-.23.35-.47.51-.73.46-.78.41-1.32-.2-2.08-.06-.08-.17-.14-.19-.23-.04-.14-.08-.32-.03-.43.13-.27.35-.5.47-.78.34-.76.36-1.48-.34-2.08-.08-.06-.14-.14-.21-.21-.03-.04-.05-.09-.1-.16.01-.13.01-.28.05-.42.18-.72-.05-1.3-.62-1.76-.31-.26-.63-.51-.94-.75-.03-.46.39-.59.56-.89.19-.34.24-.69,0-1-.31-.39-.66-.77-1.01-1.14-.29-.32-.32-.46-.1-.79.06-.08.14-.15.19-.23.64-.98.3-1.66-.29-2.18-.45-.4-.97-.73-1.51-1.12-.14-.23.11-.42.21-.63.22-.49.08-.9-.27-1.26-.2-.21-.47-.38-.72-.55-.21-.14-.43-.27-.65-.4-.21-.12-.43-.26-.61-.37-.02-.4.25-.59.4-.85.37-.63.31-1.27-.08-1.87-.32-.47-.71-.86-1.2-1.15-.22-.13-.41-.29-.64-.46.09-.28.18-.52.23-.76.06-.29.11-.61.11-.9.01-.67-.27-1.18-.89-1.48-.1-.04-.19-.07-.29-.1-.66-.16-.66-.46-.42-1.02.05-.14.09-.28.12-.44.18-.86-.12-1.38-.94-1.65-.34-.12-.68-.2-1.02-.31-.24-.09-.48-.18-.62-.42.03-.09.06-.19.1-.29.19-.37.1-.71-.17-.97-.25-.25-.53-.49-.85-.63-.71-.29-1.43-.54-2.15-.77-.13-.04-.31.05-.42.12-.04.03-.07.23-.03.26.17.12.32.25.52.29.65.13,1.28.36,1.88.62.14.06.24.16.37.26.15.11.21.44.09.55-.22.21-.47.4-.67.62-.09.1-.12.27-.14.41-.03.17.17.33.41.38.29.05.6.1.9.14.45.05.91.06,1.36.15.3.06.56.24.68.56.12.38.02.92-.28,1.12-.33.23-.69.42-1.04.63-.07.05-.08.17-.12.26-.04.12,0,.2.12.24.3.1.59.19.88.26.39.1.8.14,1.2.25.52.15.81.63.75,1.18-.05.46-.15.9-.59,1.19-.12.08-.2.22-.28.34-.06.09,0,.35.09.42.07.05.15.14.24.18.34.11.67.21,1.02.33.61.21.99.69,1.27,1.24.12.24.08.5-.02.74-.13.33-.32.62-.62.84-.24.19-.47.38-.71.57-.1.09-.02.51.12.54.34.1.68.2,1.02.24.52.08.99.25,1.42.54.12.09.22.2.33.31.15.16.18.52.03.71-.21.29-.43.57-.63.85-.12.17-.04.46.14.51.15.04.3.06.43.12.39.14.76.29,1.15.44.13.06.26.14.39.23.69.49.74,1.26.09,1.8-.2.16-.43.28-.63.43-.19.13-.17.55.03.67.52.32,1.04.63,1.45,1.1.25.29.26.73-.01.96-.35.29-.73.55-1.09.83-.14.1-.1.48.05.53.29.11.57.21.87.29.4.12.74.33,1.06.59.46.38.49.94.05,1.32-.22.2-.49.36-.75.53-.03.03-.06.07-.1.11-.11.11-.16.27-.08.41.04.08.14.17.22.19.41.03.81.02,1.21.05.35.03.61.41.57.77-.05.48-.23.89-.6,1.2-.31.26-.65.47-.97.73-.07.05-.1.18-.09.27.01.08.08.2.15.21.35.08.7.13,1.05.21.29.07.49.4.45.7-.08.58-.33,1.06-.81,1.42-.12.09-.26.16-.4.22-.25.09-.5.2-.44.52.05.21.26.26.49.27.23,0,.37.2.38.4.05,1-.13,1.93-.77,2.73-.12.16-.25.33-.36.49.01.16.01.31.03.45.04.23-.02.42-.19.56-.94.7-1.97,1.27-3.04,1.73-.57.24-1.2.17-1.79-.02-.06-.02-.13-.18-.1-.25.05-.13.15-.25.23-.37.19-.24.42-.46.58-.7.36-.59.51-1.22.25-1.89-.11-.29-.22-.57-.32-.8.08-.38.4-.51.58-.74.25-.31.31-.66.16-1.01-.22-.51-.49-1-.74-1.49.09-.17.13-.32.21-.44.51-.61.56-1.29.29-2.01-.06-.14-.11-.29-.16-.42.05-.1.07-.21.14-.27.43-.39.79-.84.86-1.4.07-.67-.08-1.32-.39-1.93-.15-.32-.34-.63-.55-.91-.13-.25.06-.46.16-.68.08-.19.07-.39.03-.59-.09-.52-.31-.97-.68-1.35-.29-.29-.61-.54-.88-.84-.09-.09-.11-.29-.08-.42.02-.14.14-.27.2-.4.38-.9.22-1.54-.53-2.17-.19-.16-.41-.29-.62-.44-.15-.12-.19-.35-.12-.55.07-.13.17-.26.21-.4.24-.68.17-1.31-.39-1.82-.13-.14-.27-.29-.4-.41-.07-.33.17-.49.31-.69.27-.38.41-.82.41-1.29,0-.43-.19-.79-.58-1-.22-.12-.46-.2-.71-.27-.6-.16-.8-.37-.34-.92.02-.04.06-.08.08-.13.43-.72.32-1.37-.35-1.86-.28-.21-.62-.36-.93-.51-.27-.13-.55-.25-.76-.55.19-.31.38-.59.54-.91.2-.4.16-.81-.14-1.14-.27-.3-.59-.54-.9-.81-.3-.25-.34-.43-.2-.8.08-.19.17-.37.25-.56.23-.58.05-.98-.57-1.16-.54-.16-1.09-.26-1.63-.37-.36-.08-.71-.11-1.07-.17-.24-.04-.41-.26-.34-.56.17-.65-.12-1.08-.61-1.44-.65-.49-1.38-.64-2.16-.49-.19.03-.37.15-.45.36-.04.1.05.36.14.39.3.12.6.04.9-.01.37-.07.71-.01,1.03.16.13.07.24.19.35.3.13.13.17.42.05.56-.14.19-.32.38-.49.57-.29.35-.15.65.32.77.45.12.9.17,1.36.12.56-.06,1.12.03,1.66.15.15.03.29.09.43.14.26.09.38.39.25.62-.16.25-.32.52-.5.77-.08.13-.19.24-.26.37-.16.24-.08.54.16.62.24.08.49.14.73.23.19.07.37.17.54.27.44.28.6.64.2,1.16-.31.4-.69.74-1.05,1.1-.08.09-.04.36.06.4.14.05.28.12.43.15.5.12,1,.23,1.49.36.19.05.39.12.57.2.37.17.56.67.37,1.05-.14.26-.31.53-.52.75-.23.25-.53.46-.79.71-.06.06-.12.2-.09.26.07.12.17.26.3.3.24.07.5.13.75.1.41-.04.8,0,1.2.11.33.09.52.37.47.67-.1.7-.37,1.26-1.04,1.59-.18.08-.36.19-.51.31-.06.05-.08.18-.07.27.01.09.07.2.14.26.26.19.58.15.89.16.28,0,.52.12.65.33.22.37.26.78.01,1.15-.14.21-.33.38-.5.57-.14.14-.27.29-.4.44-.06.08.02.37.11.39.34.1.68.19,1.03.28,1,.24,1.38,1.22.64,2.12-.13.15-.32.25-.46.4-.28.27-.18.71.19.86.23.09.48.16.73.25.39.14.7.41.97.72.27.31.27.81,0,1.12-.17.19-.36.36-.52.55-.2.22-.15.48.1.63.13.08.26.15.4.21.56.25.85.7,1,1.27.25,1-.13,1.58-.8,1.92-.22.11-.5.16-.63.39-.05.08-.09.23-.05.28.15.2.34.37.5.56.12.16.22.35.27.54.1.32-.1.77-.38.93-.28.14-.56.23-.84.35-.17.07-.19.4-.04.53.14.13.31.25.48.36.38.27.61.67.81,1.08.12.24-.02.69-.27.79-.29.11-.58.17-.87.28-.12.05-.24.16-.33.27-.09.13.02.38.2.53.21.14.43.27.62.43.29.26.38.6.31.98-.1.53-.37.94-.82,1.23-.34.23-.68.45-1.04.64-.12.07-.29.11-.43.09-1.02-.16-1.77-.48-1.17-2,.09-.23.18-.47.23-.71,0-.07-.07-.2-.14-.25-.07-.05-.19-.09-.28-.08-.1,0-.19.05-.27.11-.41.33-.71.73-.8,1.26-.2,1.18.17,1.71,1.31,2.28.36.18.77.26,1.16.34,1.1.23,2.2.41,3.31.63.29.06.58.16.87.25.17.06.25.4.13.51-.68.64-1.43,1.15-2.42,1.09-.45-.03-.62.29-.82.57-.04.06-.01.19.02.29.06.16.2.21.36.22.05,0,.11,0,.15-.02,1.38-.55,2.77-1.05,3.95-1.97.22-.17.45-.24.71-.16,1.17.35,2.28.83,3.25,1.56-.02.15,0,.26-.05.33-.49.76-1.18,1.27-2.05,1.5-.73.2-1.47.39-2.25.37-.2,0-.4.08-.57.17-.07.03-.12.16-.12.25,0,.08.05.2.12.24.26.17.58.21.88.14.74-.16,1.49-.34,2.23-.52.77-.19,1.4-.59,1.93-1.16.24-.26.41-.6.79-.69,1.17.62,2.63,1.77,3.31,2.65.18.24.31.52.42.8.06.14.02.32-.12.41-1.12.61-2.28,1.16-3.54,1.38-.59.1-1.21.06-1.82.04-.41-.01-.8-.1-1.22-.12-1.03-.04-2.01-.25-2.97-.66-.17-.08-.38-.1-.58-.13-.12-.02-.2.05-.2.16,0,.1,0,.22.04.29.09.12.21.25.34.3.43.15.87.34,1.32.37.81.06,1.61.22,2.41.37,1.69.33,3.33.05,4.94-.53.38-.14.75-.3,1.12-.48.71-.34.86-.16,1,.59.19.97.08,1.93-.11,2.88-.08.42-.36.75-.81.82-.69.11-1.41.22-2.12.23-.81.03-1.62.01-2.41-.2-1.09-.29-2.2-.47-3.22-.94-1.35-.61-2.7-1.21-3.77-2.27-.05-.06-.17-.09-.27-.09-.09,0-.17.06-.25.11-.03.03-.05.11-.04.15.08.17.14.38.28.52.63.61,1.35,1.09,2.14,1.45,1.99.93,4.07,1.62,6.25,1.92.71.1,1.41.12,2.12,0,.65-.11,1.31-.2,1.96-.29.2-.03.44.09.5.27.23.61.45,1.23.7,1.9-.15.08-.27.18-.39.19-1.98.23-3.95.37-5.93.03-.3-.05-.6-.11-.9-.19-.15-.04-.29-.11-.44-.14-1.31-.24-2.49-.8-3.67-1.42-1.09-.59-2.03-1.32-2.88-2.22-.62-.68-1.1-1.46-1.8-2.07-.2-.2-.3-.52-.43-.8-.12-.27-.21-.56-.34-.84-.02-.08-.14-.12-.23-.18-.05.08-.17.16-.16.24.02.67.19,1.29.59,1.85.92,1.22,1.8,2.47,3,3.44.31.26.65.5.99.71,1.22.75,2.51,1.36,3.89,1.71.3.08.59.17.87.3.62.27,1.28.43,1.92.47,1.17.1,2.33.25,3.5.15.25-.02.52-.08.76-.05.63.05,1.21-.08,1.77-.36.13-.06.29-.09.46-.15.26.24.51.48.76.72.23.2.48.38.71.57.03.03.06.1.04.13-.06.08-.13.2-.19.2-1.07-.04-2.14.01-3.2.06-.36.01-.71-.08-1.07-.12-.71-.08-1.42-.16-2.12-.22-1.57-.16-3.13-.28-4.69-.58-.92-.19-1.75-.52-2.56-.96-.76-.42-1.5-.87-2.23-1.32-1.16-.7-2.04-1.67-2.71-2.84-.67-1.16-1.31-3.07-1.64-4.58-.3-1.46-.85-2.83-1.67-4.07-.34-.5-.8-.91-1.23-1.35-.22-.22-.46-.4-.68-.62-.46-.47-.92-.95-.95-1.68-.01-.16-.16-.23-.33-.25-.19-.02-.29.1-.37.22-.05.08-.09.19-.11.28-.04.3-.04.61.1.89.14.28.31.53.46.8.08.18.14.36.23.59-.21-.05-.38-.04-.51-.11-.76-.47-1.61-.61-2.47-.71-.76-.09-1.52-.15-2.28-.16-.36,0-.71.09-1.05.19-.19.06-.27-.03-.37-.15-.13-.17-.2-.38-.12-.57.07-.18.23-.32.35-.47.29-.36.33-.76.16-1.16-.14-.38-.34-.73-.54-1.14.18-.11.34-.24.52-.3,2.25-.76,4.15-2.14,6.06-3.5.49-.36.91-.81,1.36-1.22.17-.36.36-.73.51-1.09.02-.08-.01-.23-.08-.28-.11-.08-.29-.18-.38-.14-.42.18-.8.42-1.21.62-.27.13-.56.26-.87.11-.07.22-.27.29-.47.33-.93.23-1.87.46-2.83.57-.86.1-1.71.21-2.56.36-1.31.23-2.63.26-3.95.21-.08,0-.17-.1-.24-.16-.1-.1,0-.27.19-.32.05,0,.1-.03.15-.04.1-.02.19-.05.29-.07,1.79-.25,3.44-.91,5.02-1.73,1.12-.58,2.14-1.37,3.2-2.06.22-.14.42-.29.64-.41.14-.08.29-.03.41.09.13.13.18.47.07.57-.11.1-.22.21-.35.27-.5.27-.57.53-.19.94.16.18.17.33.08.54-.13.34,0,.59.31.75.09.05.17.11.25.18,0-.28.21-.45.32-.67.14-.27.24-.56.16-.87-.07-.25-.1-.51.05-.74.25-.36.25-.76.14-1.16-.08-.24-.2-.46-.11-.74.05-.07.1-.16.17-.23.47-.45.97-.89,1.46-1.32.04-.04.1-.04.17-.07.27.2.56.42.83.62-.07.47-.54.42-.78.68-.11.14-.12.43.03.55.04.03.07.06.12.09.04.03.08.06.13.07.24.08.5.13.53.45.04.28-.06.52-.22.71-.19.22-.44.4-.66.61-.13.12-.1.44.05.55.12.09.26.14.38.22.38.23.54.69.34,1.03-.27.44-.56.85-1.11.95.08.23.17.47.26.71.27.67.14,1.11-.46,1.58-.17.12-.33.24-.46.39-.05.06-.1.22-.06.28.08.1.23.24.34.23.43-.02.8-.23,1-.6.25-.43.5-.9.61-1.38.16-.65.32-1.29.57-1.9.19-.48.22-.98.08-1.5-.08-.25-.14-.49-.19-.7.14-.32.26-.59.38-.87.13-.29.12-.59,0-.89-.11-.25-.11-.49,0-.74.11-.3.06-.61-.08-.89-.12-.29-.29-.53-.59-.67-.57-.26-.4-.57-.09-.94.56-.66,1.12-1.32,1.67-1.98.05-.06.08-.23.03-.27-.1-.1-.24-.23-.36-.22-.19,0-.41.05-.57.15-.98.57-2.03.92-3.09,1.15-.39-.11-.46-.44-.62-.7-.09-.17-.13-.38.06-.56.07-.07.14-.14.2-.22.45-.54.45-1.12.12-1.7-.15-.26-.38-.47-.57-.71-.11-.13-.1-.3,0-.42.22-.28.49-.52.71-.79.13-.16.17-.38.09-.58-.14-.38-.32-.75-.47-1.11-.08-.19-.01-.43.17-.54.21-.14.46-.24.65-.4.38-.3.57-.68.57-1.19-.01-.57-.04-1.12-.46-1.57-.1-.1-.12-.27-.21-.44.15-.31.32-.62.45-.95.1-.23.16-.48.22-.73.04-.25-.02-.52-.19-.71-.21-.23-.44-.43-.66-.63-.32-.32-.37-.44-.12-.77.31-.39.46-.78.26-1.27-.18-.41-.53-.59-.94-.7-.39-.11-.77-.23-1.16-.36-.07-.02-.14-.18-.12-.25.1-.29.25-.55.33-.85.05-.19.05-.4.03-.6-.05-.45-.33-.75-.75-.87-.19-.06-.4-.06-.59-.09-.2-.03-.39-.08-.56-.11-.04-.15-.11-.27-.09-.34.15-.67-.15-1.09-.7-1.36-.41-.2-.85-.33-1.31-.51-.03-.12-.11-.26-.12-.39-.04-.48-.31-.79-.74-.87-1-.17-2-.39-3.03-.17-.09.02-.18.08-.28.12-.13.05-.24.26-.17.37.07.11.17.3.28.31.4.03.81,0,1.21-.02.41-.01.82-.04,1.22-.04.1,0,.2.05.29.09.08.05.14.14.21.22-.13.27-.28.53-.4.8-.06.16.12.47.29.48.35.02.7.04,1.05.05.36.01.71.05,1.04.23.2.12.28.52.12.66-.23.2-.47.38-.69.59-.11.1,0,.44.15.51.39.17.79.14,1.2.12.35-.02.71-.05,1.07-.04.27.01.52.38.48.67-.03.26-.12.49-.33.66-.28.22-.58.4-.88.6-.1.07-.16.33-.09.42.06.08.12.19.2.21.29.07.6.16.9.15.52,0,1.01.04,1.51.16.14.04.29.11.42.17.25.12.33.63.11.8-.2.15-.42.28-.63.43-.11.09-.22.21-.32.31-.12.12-.04.47.11.55.33.14.67.26.97.42.53.28.68.71.44,1.28-.09.23-.25.44-.4.63-.12.16-.3.28-.43.42-.13.13-.12.45,0,.56.2.16.39.32.6.46.49.36.55,1.03.36,1.53-.06.18-.23.33-.39.45-.16.12-.35.21-.53.28-.19.08-.4.13-.58.21-.4.17-.5.54-.22.85.23.26.47.53.69.8.18.24.13.65-.08.85-.3.29-.61.54-1,.68-.14.04-.26.13-.38.21-.15.09-.12.46.04.54.23.1.47.16.69.29.22.12.43.27.6.45.33.33.25.95-.14,1.22-.08.06-.17.1-.26.15-.84.45-.84.47-.18,1.09.11.1.19.23.26.37.07.1-.03.34-.14.38-.19.06-.38.14-.58.17-.45.07-.91.09-1.33.14-.52-.25-.38-.83-.69-1.18-.18-.19-.12-.47-.09-.74.06-.47-.04-.93-.35-1.29-.36-.39-.23-.72.01-1.09.91-1.42,1.65-2.92,2.36-4.45.27-.61.44-1.25.45-1.92,0-.12-.1-.3-.21-.36-.1-.07-.31-.07-.41-.01-.22.12-.41.31-.61.45-.29.19-.52.49-.89.57-.25-.18-.12-.46-.19-.69-.05-.19-.08-.39-.12-.6-.08-.36-.27-.65-.58-.86-.38-.24-.76-.47-1.14-.71.03-.48.09-.94.09-1.39,0-.49-.18-.89-.67-1.1-.23-.1-.44-.25-.69-.4.05-.22.08-.41.12-.6.18-.98-.22-1.74-1.09-2.1-.32-.13-.68-.21-.98-.29-.19-.23-.01-.41,0-.6.04-.31.06-.61.06-.9,0-.34-.19-.59-.51-.69-.38-.12-.77-.22-1.18-.3-.3-.06-.6-.07-.85-.1-.34-.23-.29-.58-.41-.85-.18-.4-.47-.64-.9-.74-.92-.21-1.72.04-2.44.58-.08.05-.07.27-.05.41.03.14.26.26.36.22.23-.11.45-.23.68-.33.23-.1.46-.21.71-.26.31-.07.61.01.84.26.23.26.25.53.09.84-.07.13-.13.27-.19.41-.05.11.1.33.21.35.15.02.31.06.45.05.36-.03.7-.11,1.06-.14.25-.02.5-.02.75.01.52.08.8.53.64,1-.09.24-.22.46-.32.69-.06.13-.11.27-.17.41-.05.1.09.35.2.37.25.03.5.06.75.1.3.04.6.08.89.16.41.1.77.63.76,1.04,0,.14-.04.31-.12.43-.16.25-.36.49-.53.74-.15.2-.39.39-.22.65.17.24.46.17.71.18.2,0,.41-.06.6-.06.43,0,.78.36.76.79,0,.25-.05.51-.13.74-.11.28-.27.54-.41.81-.06.11.05.36.16.38.34.07.71.09,1.04.2.97.29,1.05.88.71,1.81-.16.47-.47.89-.73,1.33-.08.12-.18.26-.29.34-.34.22-.68.43-1.11.69-.19-.35-.34-.69-.54-.96-.17-.23-.44-.43-.68-.65.03-.13.04-.29.11-.4.17-.28.27-.54.16-.86-.14-.4-.35-.75-.77-.9-.14-.06-.29-.1-.43-.16-.55-.21-.57-.27-.43-.76.03-.1.1-.19.12-.28.16-.56-.05-1.01-.6-1.24-.32-.14-.67-.23-1-.36-.19-.06-.25-.34-.14-.51.24-.33.49-.65.69-1,.25-.4,0-.97-.45-1.13-.19-.07-.4-.11-.59-.16-.39-.09-.79-.17-1.2-.25-.19-.14-.13-.34-.08-.54.1-.36.07-.7-.11-1.03-.26-.48-.61-.81-1.17-.87-.31-.03-.61.01-.91-.03-.11-.02-.21-.19-.27-.32-.04-.09.01-.2,0-.3,0-.72-.14-.87-.83-1.03-.66-.14-1.32-.14-1.98-.11-.3.02-.58.16-.87.26-.14.05-.24.25-.19.37.08.22.27.35.46.31.29-.08.58-.15.87-.26.39-.17.79-.13,1.19-.04.6.13.78.43.5.99-.16.32-.37.6-.56.9-.02.03,0,.11.02.14.06.07.16.18.22.17.45-.06.9-.18,1.34-.25.35-.06.72-.08,1.05.06.25.1.44.25.52.52.07.2.11.41,0,.59-.19.3-.41.57-.61.87-.05.06-.03.2,0,.28s.15.15.24.16c.71.03,1.43.04,2.13.08.14,0,.31.06.41.16.1.1.19.31.14.4-.12.27-.31.51-.49.75-.2.29-.44.56-.64.85-.11.14.02.48.17.52.4.08.8.15,1.2.25.2.04.39.12.57.21.27.12.37.56.17.79-.19.24-.4.46-.6.68-.13.15-.3.28-.42.44-.06.07-.07.21-.04.28.03.08.15.16.21.16.36-.02.71-.1,1.07-.09.3,0,.61.06.89.15.39.12.56.68.32,1.02-.21.29-.45.56-.66.84-.11.14.03.45.2.49.15.04.31.04.45.08.15.03.29.09.42.15.26.12.41.53.28.79-.19.39-.46.67-.93.65-.06-.35-.11-.69-.19-1.02-.06-.23-.42-.41-.62-.31-.46.22-.91.47-1.35.71-.31.16-.57.4-.93.43-.19-.34-.33-.67-.53-.96-.17-.24-.42-.44-.62-.64-.14-.43.27-.64.34-.99.08-.37.12-.69-.19-.98-.26-.24-.5-.49-.72-.71-.12-.4.11-.63.22-.91.32-.88.03-1.45-.91-1.73-.2-.05-.4-.08-.59-.14-.43-.12-.52-.33-.31-.81.05-.14.13-.28.19-.41.18-.49-.04-.97-.52-1.1-.24-.06-.49-.1-.74-.16-.24-.05-.49-.12-.67-.16-.28-.31-.22-.63-.31-.92-.17-.54-.55-.85-1.12-.85-.21,0-.41.04-.61.05-.25.03-.5.04-.8.06-.08-.31-.14-.6-.24-.88-.13-.34-.61-.67-.95-.66-.67.03-1.3.2-1.85.61-.16.12-.23.36-.14.54.12.23.44.34.65.21.26-.16.5-.35.76-.5.12-.07.3-.08.44-.08.25-.01.52.29.43.52-.11.28-.26.55-.34.84-.04.12.04.29.08.48.37-.09.71-.17,1.05-.26.39-.1.78-.23,1.18-.29.55-.09.99.42.84.96-.05.19-.18.36-.23.56-.04.14-.05.3-.01.43.04.17.2.19.37.16.36-.06.7-.14,1.05-.17.2-.02.41.02.61.05.31.04.5.4.36.7-.19.42-.39.82-.58,1.24-.06.13.16.47.3.47.5,0,1.01-.02,1.51.11.42.12.66.53.48.95-.12.28-.29.53-.47.78-.11.16-.28.3-.41.45-.11.13.01.47.17.5.15.03.3.04.45.06.33.03.57.2.78.43.17.19.19.54.02.7-.29.28-.59.56-.87.84-.11.1-.06.49.09.56.32.12.66.22.98.36.19.08.31.25.37.46.09.43-.18.84-.62.87-.83.06-1.62-.11-2.34-.54-.27-.16-.43-.4-.51-.72-.12-.52-.03-1.02,0-1.52,0-.14-.05-.3-.12-.42-.03-.07-.17-.12-.25-.12-.1,0-.21.02-.27.08-.07.05-.13.15-.17.25-.19.48-.27,1-.21,1.5.17,1.35.62,2.57,1.78,3.41.21.15.4.3.6.47.04.02.04.08.08.17-1.04.71-2.06,1.44-3.28,1.9-.9.34-1.78.73-2.67,1.11-.02,0-.04.08-.03.1.03.04.07.08.11.11.31.1.6.04.9-.05,1.57-.47,3.09-1.04,4.43-2.01.16-.12.34-.21.53-.32.02.12.09.23.06.28-.14.27-.27.56-.49.77-.71.68-.93,1.56-1.11,2.47-.04.24-.04.51,0,.76.08.56.3,1.07.79,1.43.16.11.3.27.45.41.08.07.07.36-.02.41-.17.12-.32.25-.5.33-1.22.52-2.44,1.03-3.66,1.55-.07.04-.12.14-.16.23-.03.09.2.23.35.2.44-.11.89-.23,1.32-.37.34-.1.68-.22,1.01-.33.04-.01.11.02.15.04.02.03.08.1.07.12-.12.33-.25.67-.38.99-.18.45-.16.89,0,1.34.18.49.41.93.75,1.33.23.27.48.52.75.8-.09.11-.15.29-.26.32-1.26.41-2.46.96-3.78,1.21-.09.01-.17.09-.24.16-.04.02-.07.09-.07.13s.05.09.1.1c.14.04.3.1.43.08.56-.06,1.11-.15,1.65-.23.11.08.12.17.05.27-.27.37-.52.75-.8,1.11-.35.47-.5.98-.38,1.57.07.3.1.61.12.9,0,.06-.11.2-.18.2-.19.03-.4,0-.61,0-.96-.06-1.92-.13-2.88-.19-.1,0-.2.05-.28.1-.04.03-.06.09-.08.13-.01.04,0,.1.01.12.08.06.17.12.26.14.69.17,1.38.32,2.11.3.15,0,.3.05.49.09-.08.14-.12.31-.22.37-.89.53-1.58,1.29-2.38,1.92-.65.51-1.14,1.16-1.56,1.86-.23.38-.46.76-.68,1.13-.34-.09-.43-.34-.56-.55-.23-.39-.42-.82-.79-1.11-.07-.05-.19-.04-.29-.04-.1,0-.24.26-.19.37.28.53.56,1.08.85,1.61.1.18.21.34.13.56-.43.05-.79-.14-1.15-.33-.52-.28-1.04-.34-1.62-.29-.45.05-.91.07-1.36.08-.07,0-.19-.14-.18-.21.02-.2.09-.4.18-.58.32-.69.65-1.38.96-2.08.08-.17.06-.39.08-.58,0-.04-.05-.12-.08-.12-.1,0-.23,0-.29.05-.1.09-.19.22-.25.36-.47,1.13-.93,2.26-1.42,3.38-.05.14-.2.23-.3.33-.03.03-.1,0-.15.01-.1,0-.18-.05-.17-.18,0-.53.26-.98.42-1.46.21-.63.41-1.25.6-1.89.04-.14.04-.31,0-.45-.01-.08-.12-.15-.2-.21-.11-.09-.32.02-.33.17-.1,1.36-.71,2.55-1.2,3.77-.37.91-.96,1.68-1.89,2.12-.04.02-.12.01-.15-.01-.05-.06-.14-.16-.12-.22.04-.2.08-.41.19-.58.49-.79.67-1.71.96-2.56.02-.04.02-.11,0-.14-.05-.07-.12-.17-.2-.2-.07-.02-.21,0-.26.07-.23.23-.27.54-.34.83-.22,1-.62,1.94-1.16,2.81-.44.7-1.01,1.28-1.82,1.55-.03.01-.1,0-.11-.03-.03-.03-.07-.1-.04-.14.27-.48.56-.96.83-1.44.15-.27.26-.55.36-.84.03-.07-.04-.18-.09-.26-.07-.1-.35-.07-.41.03-.26.49-.52.99-.79,1.48-.14.27-.29.54-.47.78-.21.28-.38.6-.74.75-.03-.07-.11-.16-.09-.21.13-.33.29-.65.41-.98.05-.13.05-.3.03-.45-.01-.08-.1-.18-.18-.21-.07-.03-.21.01-.25.07-.12.21-.24.44-.32.68-.17.56-.54.97-1.01,1.31-.21.16-.47.19-.72.07-.07-.03-.15-.18-.12-.24.12-.32.29-.63.43-.96.02-.06-.05-.2-.12-.24-.08-.04-.2-.04-.27,0-.1.03-.18.1-.23.17-.1.12-.16.27-.25.39-.09.12-.17.25-.26.37-.22.27-.46.34-.82.23-.13-.05-.27-.14-.41-.2-.12-.06-.16-.3-.07-.39.34-.38.68-.74,1.01-1.12.04-.05,0-.21-.06-.27-.05-.06-.21-.1-.27-.06-.25.17-.5.35-.7.57-.29.31-.57.58-.96.74-.25.1-.5.12-.74-.01-.07-.04-.11-.14-.19-.24,1.55-1.05,2.92-2.34,4.37-3.54.06-.04.08-.19.04-.24-.04-.07-.16-.12-.25-.14-.1-.02-.21,0-.3.04-.14.06-.29.13-.38.24-.85.96-1.95,1.63-2.89,2.48-.15.14-.32.26-.49.36-.27.14-.55.26-.8.39-.26-.35.16-.59.05-.87-.03-.08-.11-.15-.18-.2-.03-.02-.11-.02-.14,0-.17.12-.34.23-.47.38-.21.22-.37.5-.59.7-.23.2-.51.35-.78.46-.12.05-.31.02-.43-.04-.19-.1-.08-.27-.01-.39.06-.14.16-.27.19-.41.01-.08-.05-.2-.12-.25-.07-.05-.21-.07-.28-.03-.12.08-.24.18-.32.3-.22.34-.41.7-.61,1.07-.58.25-1.16.37-1.83.42.02-.3.04-.54.05-.79,0-.2-.11-.35-.23-.31-.13.05-.28.12-.35.22-.11.17-.15.38-.22.56-.21.63-.65.88-1.29.87-.17,0-.31-.14-.25-.28.14-.27.31-.53.41-.81.04-.1-.05-.34-.14-.37-.1-.05-.28.03-.41.1-.08.05-.13.14-.19.22-.1.18-.2.36-.31.53-.08.13-.17.26-.25.38-.44.52-.98.69-1.64.42-.03-.01-.06-.06-.09-.11.08-.23.19-.45.26-.7.01-.07-.06-.2-.12-.25-.06-.05-.2-.07-.27-.04-.14.06-.27.15-.37.26-.22.28-.41.58-.58.83-.3.09-.54.03-.79-.05-.23-.07-.3-.19-.28-.46,0-.2.04-.4.02-.59-.01-.04-.17-.12-.24-.1-.2.04-.32.22-.44.39-.41.56-.53.59-1.13.4-.23-.08-.32-.19-.33-.45,0-.15.04-.32,0-.45-.05-.12-.18-.22-.3-.3-.03-.01-.17.1-.21.18-.09.19-.11.41-.22.57-.07.1-.24.17-.38.18-.22.02-.46-.17-.47-.32-.02-.14,0-.29.01-.44.02-.15.09-.3.09-.44,0-.06-.13-.12-.22-.17-.04-.03-.12-.03-.14,0-.08.06-.14.14-.2.23-.14.27-.26.59-.65.46-.53-.16-.68-.37-.71-.84,0-.05.01-.1.01-.15,0-.31-.04-.36-.31-.39-.15-.02-.29-.02-.44-.02-.09-.26-.2-.5-.24-.74-.05-.32-.41-.69-.02-.96.27-.19.6.03.84.21.54.4,1.16.29,1.77.32.48.03.9-.14,1.29-.39.22-.13.44-.29.67-.38.18-.06.4-.09.59-.08.32.02.58.14.75.45.22.4.43.8.68,1.19.13.21.31.4.5.57.45.39,1.22.44,1.71.1.75-.55,1.35-1.24,1.69-2.12.08-.19.16-.38.23-.56.05-.11.14-.14.26-.08.04.01.09.05.11.08.08.24.16.47.25.71.12.35.36.61.65.83.52.41,1.05.36,1.47-.17.24-.32.46-.67.68-1.01.29-.42.59-.83,1.02-1.12.25-.17.41-.17.64.07.04.04.05.09.09.12.24.27.5.54.89.54.51,0,1.04-.07,1.4-.48.44-.49.85-1.01,1.26-1.53.22-.28.4-.59.6-.88.16-.23.39-.32.66-.26.14.03.29.09.44.14.37.12.7.03,1.02-.17.95-.61,1.51-1.5,1.85-2.54.14-.43.2-.89.28-1.34.05-.34-.11-.59-.35-.79-.22-.19-.46-.21-.71-.09-.22.11-.42.27-.64.41-.22.13-.42.28-.65.39-.23.11-.49.13-.74.03-.1-.04-.2-.06-.29-.12-.62-.44-1.25-.32-1.89-.06-.52.22-1,.49-1.42.89-.14.13-.32.23-.46.33-.49-.1-.68-.51-1.01-.73-.26-.17-.67-.17-.85.06-.37.48-.72.99-1.09,1.47-.08.11-.24.15-.39.25-.23-.3-.42-.6-.65-.86-.66-.78-1.64-.94-2.46-.38-.38.26-.71.57-1.05.88-.23.2-.4.45-.62.67-.32.35-.54.34-.88-.02-.31-.34-.62-.68-.91-1.02.19-.3.5-.3.78-.38.54-.15,1.08-.3,1.56-.6.17-.12.31-.26.35-.47.01-.09-.01-.21-.07-.27-.05-.07-.17-.14-.24-.14-.33-.01-.57.2-.83.35-.33.18-.65.26-1.02.18-.19-.05-.41-.05-.6.01-.8.25-1.62.15-2.43.18-.51.01-1.01-.1-1.47-.34-.23-.12-.46-.22-.69-.32-1.09-.45-1.83-1.27-2.37-2.29-.32-.61-.41-1.25-.03-1.88.08-.14.15-.27.21-.41.79-1.78,2.31-2.48,4.11-2.75.15-.02.31-.02.46.01.5.08,1,.16,1.5.25.3.06.58.21.71.52.41,1.01,1.34,1.37,2.23,1.7,1.12.42,2.3.37,3.47.11.04-.01.1-.03.12-.07.07-.07.12-.16.15-.24.04-.1-.12-.35-.23-.36-.19-.01-.4-.06-.59-.01-1.05.18-2.03-.06-3-.37-.45-.13-.83-.42-.8-.98.01-.27-.08-.5-.25-.7-.13-.16-.28-.3-.39-.47-.16-.22-.15-.47-.04-.71.02-.04.07-.09.11-.1.03-.01.09.01.12.04.12.16.26.31.35.48.32.61.85,1,1.38,1.39.04.03.17-.05.25-.1.03-.01.05-.1.03-.14-.11-.17-.21-.37-.36-.49-.79-.67-1.09-1.56-1.24-2.54,0-.04.05-.1.08-.11.08,0,.22-.03.26.01.21.29.41.58.6.87.64,1.02,1.55,1.75,2.58,2.32.22.11.47.22.73.11.04-.02.08-.06.09-.11.02-.04.03-.11.01-.13-.5-.35-1-.7-1.5-1.06-.98-.71-1.61-1.68-2.01-2.81-.03-.09-.03-.22,0-.29.08-.11.2-.22.33-.28.06-.03.22.01.26.08.3.42.57.84.84,1.27.29.48.67.89,1.06,1.3.46.5,1,.87,1.61,1.12.89.38,1.81.69,2.8.7.12,0,.21-.06.19-.19,0-.09-.07-.18-.13-.23-.08-.06-.18-.13-.27-.13-.78-.02-1.47-.39-2.2-.6-.5-.14-.91-.44-1.29-.8-.56-.52-1.1-1.06-1.5-1.72-.27-.43-.55-.85-.8-1.29-.03-.05.05-.2.11-.24.08-.05.24-.06.27-.01.29.42.56.85.82,1.29.42.74,1.04,1.29,1.77,1.64,1.27.62,2.56,1.23,3.97,1.54,1.17.25,2.33.23,3.48-.04.72-.18,1.4-.15,2.12-.14.67.01,1.31.13,1.92.42.46.21.95.38,1.41.58.73.3,1.47.42,2.25.28.85-.16,1.68-.44,2.27-1.12.75-.86,1.66-1.12,2.74-1.04.24.02.5.02.75,0,.09,0,.21-.08.25-.16.04-.06.02-.22-.04-.28-.24-.25-.49-.51-.78-.7-.25-.17-.56-.24-.84-.36-.24-.1-.42-.28-.54-.51-.07-.13-.15-.27-.21-.41-.31-.78-.92-1.03-1.71-.96-.5.04-1.01.1-1.52.15-.25.02-.49,0-.76.02l.07-.04h0ZM110.61,37.06c.04-.14.07-.28.13-.4.03-.06.15-.11.22-.1.06,0,.17.12.16.16-.01.08-.08.19-.16.22-.11.05-.27.05-.39.06-.05.19-.11.38-.13.58-.01.08.03.19.08.26.41.46.41.46.45,1.08.18.08.36.16.53.26.03.02.01.19-.03.23-.24.22-.55.21-.85.19-.12,0-.3-.13-.34-.23-.16-.52-.29-1.06-.41-1.51.16-.43.42-.65.74-.8h0ZM63.14,7.55c-.05,0-.13,0-.15-.01-.35-.6-.64-1.22-.79-1.9-.01-.08.15-.23.27-.31.05-.04.19.04.27.08.05.02.09.06.11.11.19.67.45,1.34.26,2.06.33.54.46,1.09.17,1.7.19.06.39.13.59.2.05-.13.17-.28.16-.41-.04-.45-.08-.91-.2-1.35-.2-.7-.16-1.42-.26-2.12-.02-.12.07-.28.13-.42.02-.05.08-.11.11-.1.1.01.24.03.26.09.08.18.15.38.16.58.02.4-.02.81,0,1.21,0,.16.08.3.24.36.1.04.24-.14.24-.31,0-.35-.02-.71,0-1.06.03-.35.1-.71.17-1.05.03-.12.14-.16.23-.12.04.02.1.05.11.08.05.25.1.5.17.74.02.08.13.12.22.17,0,0,.08-.06.1-.11.04-.14.1-.28.12-.43.13-.8-.01-1.1,1.34-1.28.09.2.03.4-.04.59-.25.62-.47,1.24-.74,1.84-.37.85-.55,1.75-.68,2.65-.12.86-.23,1.72-.27,2.58-.07,1.27-.26,2.53-.48,3.78-.12.7-.32,1.38-.53,2.06-.11.33-.31.64-.5.94-.3.45-.77.62-1.31.62-.43.01-.65-.27-.52-.69.11-.34.2-.68.34-1.01.73-1.71,1-3.51,1-5.36,0-.92-.04-1.83-.07-2.74-.15-.55-.47-1.09-.19-1.68h0ZM67.46,70.39c-.31.21-.6.41-.9.61-.57.35-1.12.71-1.75.93-.14.05-.29.11-.42.19-1.41.81-2.95,1.38-4.47,1.94-.96.34-1.93.64-2.91.93-1.46.44-2.97.66-4.47.94-.7.14-1.41.22-2.13.23-1.26.03-2.54.07-3.81-.13-.95-.15-1.93-.05-2.89-.24-.29-.06-.6-.08-.89-.17-1.01-.34-2.1-.44-3.05-.95-.17-.09-.4-.1-.6-.13-.7-.13-1.39-.3-1.97-.75-.17-.12-.38-.17-.56-.22-.98-.3-1.94-.61-2.92-.88-.49-.14-.98-.25-1.5-.21-.25.03-.52,0-.77-.03-.82-.1-1.62,0-2.42.19-.9.21-1.8.32-2.71.38-.94.07-1.83-.05-2.72-.29-.64-.17-1.26-.4-1.89-.59-.29-.09-.58-.19-.89-.22-.71-.09-1.42-.17-2.13-.2-.61-.02-1.21.04-1.82.21-.97.28-1.96.53-2.95.77-1.69.42-3.41.53-5.15.51-.3,0-.6-.08-.9-.13-1.01-.18-2-.39-3.01-.54-1.35-.21-2.5-.81-3.59-1.6-.39-.27-.63-.66-.73-1.12-.03-.1-.03-.21-.05-.31-.74-2.84-.61-3.32.32-5.93.11-.34.21-.69.35-1.01.05-.13.17-.24.27-.36.11-.12.48-.09.55.06.11.22.22.45.32.68.12.28.22.56.34.85.1.2.44.31.67.19.21-.13.43-.28.61-.45.21-.21.38-.47.58-.71.16-.2.32-.38.5-.58.37-.02.72-.02,1.07-.07.14-.02.28-.1.39-.2.05-.04.06-.23.02-.27-.46-.34-1.02-.47-1.56-.57-.71-.11-1.38-.36-2.02-.67-.54-.26-1.08-.59-1.54-.98-.87-.72-1.31-1.68-1.26-2.82.02-.4.02-.82.08-1.22.16-.93.61-1.72,1.28-2.39.95-.97,2.14-1.53,3.44-1.85.2-.05.4-.12.6-.12,1.21-.02,1.92-.81,2.61-1.63.16-.19.24-.44.38-.65.34-.52.71-1.01,1.19-1.39.24-.19.47-.38.67-.61.3-.35.59-.71.83-1.1.23-.37.05-.8.02-1.2-.08-1.51.22-2.94.89-4.28.15-.32.3-.66.52-.94,1.1-1.4,2.25-2.73,3.79-3.73,2.36-1.54,4.93-2.38,7.7-2.7.65-.08,1.31-.2,1.95-.34.39-.08.78-.2,1.05-.56.14-.21.42-.27.68-.3.45-.05.87-.25,1.29-.43,1.16-.52,2.26-1.15,3.33-1.82,1.53-.95,2.87-2.13,4.28-3.2,1.01-.77,1.96-1.62,2.98-2.38.56-.43,1.19-.78,1.82-1.12,1.17-.63,2.38-1.14,3.71-1.4.64-.12,1.27-.34,1.89-.57,1.54-.55,3.13-.87,4.78-.86.98,0,1.95-.2,2.82-.59,1.01-.45,1.96-1.1,2.64-2.03.42-.57.85-1.15,1.22-1.76.56-.92.89-1.94,1.11-2.99.13-.7.22-1.41.34-2.11.15-.86.09-1.72-.09-2.58-.29-1.29-.58-2.58-1.18-3.78-.07-.14-.01-.34.12-.38.14-.04.33-.09.43-.04.25.15.52.35.7.57.49.61,1.16.72,1.79.5.78-.26,1.6-.29,2.36-.58.86-.33,1.73-.62,2.59-.94.83-.31,1.51-.78,2.11-1.45.5-.57,1.12-1.03,1.7-1.53.16-.13.35-.21.62-.14.05.32.1.67.14,1-.32.61-.65,1.2-.93,1.79-.23.47-.36.95-.02,1.44.06.08.11.19.11.28.04,1.08.77,1.72,1.48,2.38.11.09.28.11.48.19.19-.23.38-.45.57-.68.34-.44.67-.9,1.02-1.33.12-.15.29-.29.47-.38.12-.06.28-.07.42-.04.05,0,.1.15.13.24.1.42.01.81-.16,1.19-.25.5-.48,1.01-.74,1.5-.29.57-.18,1.09.12,1.6.32.53.75.95,1.22,1.34.16.14.34.23.52.34,1.19.71,1.09.89,2.12-.24.56-.62,1.24-1.05,2.05-1.28.11-.03.33.1.34.23.04.4.06.78-.14,1.18-.87,1.9-1.42,3.91-2,5.92-.12.45-.19.89-.02,1.35.14.38.33.71.7.94.44.27.84.56,1.3.77.98.44,1.91.97,2.88,1.42.6.27,1.23.48,1.86.67,1.46.44,2.94.86,4.4,1.28.1.02.2.05.29.09,1.01.51,2.11.71,3.16,1.08.54.2,1.03.46,1.55.65,1,.37,1.94.89,2.94,1.27,1,.37,1.87,1.01,2.78,1.56.22.14.43.28.65.41.14.08.47.06.58-.05.31-.32.65-.64.92-1.01.85-1.22,1.53-2.53,1.8-4.01.05-.25.12-.49.17-.74.05-.2.28-.34.47-.3.19.03.39.21.41.39.04.3.12.62.08.91-.1.91.22,1.69.65,2.46.64,1.12,1.42,2.1,2.55,2.85.16-.13.34-.23.46-.38.22-.28.4-.59.61-.88.05-.07.15-.13.25-.16.09-.03.2-.03.28.01.09.03.18.15.17.22-.05.29-.1.6-.22.88-.18.42-.42.82-.6,1.23-.06.13-.09.33-.04.43.53.94.87,1.96,1.5,2.84.02.04.06.08.09.11.2.27.52.33.8.16.22-.13.42-.26.65-.38.16-.07.43.16.41.32-.05.47-.2.91-.53,1.24-.37.36-.42.79-.38,1.26.14,1.27.3,2.52.83,3.71.1.25.3.38.6.37.21,0,.41,0,.6,0,.23,0,.31.23.2.45-.11.23-.25.44-.49.56-.23.12-.46.21-.69.32-.45.23-.9.46-1.35.7-.13.07-.27.15-.38.25-.21.17-.34.39-.35.66,0,.25,0,.51.04.76.19,1.53-.05,3.04-.2,4.56-.05.55-.18,1.11-.31,1.65-.08.35-.19.7-.34,1.02-.59,1.23-1.27,2.43-2.01,3.58-.82,1.29-1.78,2.46-2.67,3.7-.6.83-.98,1.77-1.41,2.7-.52,1.11-.82,2.29-.99,3.51-.02.15-.05.3-.08.45-.13.8-.31,1.6-.37,2.41-.05.76-.03,1.53.04,2.28.13,1.38.39,2.72,1.32,3.84.1.11.2.23.24.37.32.83.87,1.49,1.45,2.14.64.73,1.22,1.49,1.82,2.25.19.24.38.49.5.77.8,1.78,1.42,3.62,1.31,5.59-.11,2.13-.27,4.26-1.12,6.28-.59,1.42-1.25,2.76-2.2,3.99-.65.84-1.31,1.68-1.97,2.5-1.13,1.38-2.38,2.64-3.84,3.68-1.46,1.05-3,1.94-4.7,2.5-.38.14-.75.34-1.13.47-.23.08-.49.12-.74.14-.26.03-.61-.39-.53-.62.23-.57.47-1.13.68-1.67.12-1.12-.16-2.14-.56-3.15-.34-.85-.72-1.69-.97-2.57-.22-.77-.38-1.59-.43-2.39-.17-2.37.11-4.68,1.1-6.86.07-.13.07-.29.1-.44-.13,0-.23-.01-.3.03-.22.13-.45.26-.62.44-1.14,1.25-2.53,2.2-3.85,3.23-.85.65-1.71,1.29-2.59,1.89-1.86,1.24-3.91,1.94-6.18,1.89-1.17-.02-2.33-.09-3.51.03-.7.07-1.43.01-2.07.43-.1.07-.3.06-.43.03-.53-.11-1.02.06-1.47.29-.64.32-1.24.71-1.85,1.06-.15.08-.31.06-.42-.06-.09-.11-.16-.25-.2-.39-.03-.09,0-.21.05-.29.13-.27.25-.55.43-.81,1.15-1.71,1.92-3.59,2.62-5.5.8-2.22,1.94-4.25,3.32-6.15.21-.29.43-.57.47-.95.02-.32.29-.52.48-.75.2-.23.12-.46-.18-.58-.52-.21-1.03-.45-1.56-.63-1.37-.48-2.53-1.3-3.6-2.25-.76-.68-1.45-1.42-2.14-2.18-.56-.61-.95-1.3-1.07-2.16-.09-.65-.29-1.29-.45-1.93-.04-.12-.19-.22-.31-.36Z"/>
        <path class="cls-1" d="M27.07,48.4c-.6.09-1.19.25-1.76.46-.09.03-.21.02-.29-.01-.09-.03-.18-.1-.24-.18-.08-.09-.03-.35.05-.41.12-.08.24-.2.38-.25.81-.33,1.52-.82,2.19-1.38.78-.67,1.71-1.11,2.63-1.54.47-.22.97-.28,1.49-.25.58.04,1.07.25,1.44.74.36.48.75.96,1.12,1.44.14.17.11.41-.08.52-.19.12-.45.13-.56,0-.27-.31-.52-.63-.79-.93-.45-.49-.98-.68-1.65-.54-.82.17-1.54.47-2,1.22l.07-.04c-.48-.16-.76.17-1.06.43-.31.25-.63.49-.94.74Z"/>
        <path class="cls-1" d="M95.37,80.5c-.05.14-.07.3-.16.41-.07.1-.22.2-.34.21-.16.01-.23-.15-.28-.3-.05-.17.05-.27.2-.33.14-.05.27-.1.41-.15.07.04.13.1.18.16Z"/>
        <path class="cls-1" d="M70.05,39.42c.33.31.62.57.92.84.07.07.13.16.19.23.18.2.33.48.23.7-.25.58.06.92.41,1.32.36.44.49.99.38,1.57-.1.55-.23,1.09-.34,1.59,1.34,1.62,1.05,2.89-.08,4.1-.03.33.19.57.29.85.07.19.15.38.23.56.44,1.07.2,2.09-.72,2.88-.16.13-.34.23-.49.37-.1.1-.17.26-.21.4-.04.14-.04.3-.05.45-.06.93-.47,1.65-1.31,2.09-.13.08-.25.18-.43.3-.03.27-.09.56-.11.86-.04.67-.35,1.15-.96,1.45-.23.11-.46.22-.7.27-.12.02-.28-.08-.4-.17-.15-.13-.14-.44.03-.53.14-.07.28-.11.41-.19.17-.09.36-.19.52-.31.28-.22.37-.66.22-.97-.13-.27-.29-.52-.42-.79-.02-.06.06-.22.12-.24.19-.07.38-.14.58-.14.63,0,1.05-.33,1.39-.81.22-.31.3-.64.14-1-.08-.18-.2-.36-.22-.56-.01-.12.07-.31.17-.37.17-.1.39-.1.57-.18.23-.1.48-.21.65-.38.97-.91.96-2.12-.05-3.06-.18-.17-.4-.31-.59-.48-.12-.1-.05-.46.1-.54.26-.14.56-.26.81-.43.66-.46.88-1.48.45-2.17-.1-.16-.29-.29-.45-.38-.27-.14-.59-.17-.81-.41-.13-.13-.2-.44-.06-.55.48-.35.75-.82.89-1.38.16-.67,0-1.08-.58-1.42-.16-.1-.37-.17-.54-.26-.17-.09-.26-.37-.16-.53.14-.21.32-.4.44-.62.11-.19.05-.4-.07-.57-.18-.27-.44-.41-.75-.46-.36-.04-.72-.03-1.06-.09-.12-.02-.23-.18-.31-.3-.1-.15,0-.3.09-.41.29-.28.6-.55.88-.84.14-.14.24-.33.32-.51.14-.32-.1-.79-.44-.84-.29-.03-.61-.02-.9-.08-.19-.04-.37-.2-.38-.42-.01-.14.04-.3.12-.4.13-.16.31-.27.45-.4.1-.09.1-.34,0-.41-.16-.13-.33-.24-.48-.37-.18-.14-.22-.43-.11-.55.12-.13.38-.19.56-.11.63.29,1.17.66,1.09,1.46-.04.34.08.58.38.74.09.05.18.1.25.17.21.17.34.4.3.67-.05.39-.14.79-.23,1.18-.04.19-.11.37-.17.57Z"/>
        <path class="cls-1" d="M36.79,59.92c.12-.13.25-.28.39-.43,1.3-1.5,1.99-3.27,2.3-5.21.06-.41.01-.81-.18-1.18-.07-.14-.13-.27-.2-.41-.4-.87-1-1.52-1.91-1.85-.25-.09-.47-.19-.61-.43-.04-.07-.04-.19-.01-.26.04-.08.13-.16.22-.19.08-.04.2-.04.28,0,.5.23,1.01.47,1.51.73.09.04.17.11.24.18.8.82,1.32,1.8,1.57,2.91.06.24,0,.51-.03.75-.27,1.96-1.09,3.68-2.23,5.27-.14.2-.34.37-.52.55-.16.14-.36.21-.56.12-.21-.1-.24-.3-.26-.54Z"/>
        <path class="cls-1" d="M43.07,29.73c.43.05.82.09,1.21.15.62.11,1.01.43,1.09,1.09.01.14.07.29.1.4.25.25.5.13.74.1.51-.05,1.01-.06,1.51.08.35.1.56.41.48.82-.05.31-.12.61-.36.82-.06.05-.19.09-.27.07-.08-.02-.16-.12-.18-.2-.03-.09,0-.2,0-.3.03-.56-.13-.71-.66-.68-.46.03-.9.15-1.32.36-.27.13-.54.26-.82.37-.07.03-.21-.04-.26-.1-.06-.06-.09-.19-.08-.27.12-.38.29-.75.4-1.14.08-.27-.19-.63-.46-.69-.46-.09-.91-.06-1.35.09-.29.11-.58.17-.88.21-.07.02-.19-.06-.24-.14-.05-.06-.1-.21-.06-.27.14-.26.32-.51.46-.77.09-.15-.03-.44-.22-.48-.19-.04-.42-.1-.59-.05-.33.1-.63.31-.96.42-.11.04-.28-.06-.4-.13-.12-.06-.13-.16-.07-.26.05-.09.1-.19.17-.24.76-.57,1.6-.6,2.46-.29.2.08.34.22.38.44.05.19.11.38.17.59Z"/>
        <path class="cls-1" d="M39.67,32.5c.16.02.36.06.56.08.42.03.8.17,1.07.49.22.25.45.39.77.43.25.03.5.09.74.15.45.12.79.6.75,1.03-.05.47-.19.9-.48,1.27-.05.06-.18.07-.27.07-.1,0-.24-.23-.26-.33-.03-.29.19-.46.28-.69.14-.35-.12-.75-.51-.74-.34.02-.7.05-1.05.13-.29.07-.58.19-.87.3-.14.05-.33-.03-.38-.16-.07-.16-.03-.3.08-.41.1-.12.21-.22.31-.34.15-.19.06-.4-.17-.46-.5-.13-1-.12-1.5-.03-.14.03-.3-.01-.45-.03-.11-.01-.24-.28-.17-.37.15-.2.31-.39.46-.59.19-.23.1-.49-.16-.6-.31-.11-.6-.1-.87.07-.21.14-.41.29-.63.41-.07.03-.22,0-.27-.05-.08-.11-.21-.3-.18-.38.21-.43.49-.78,1.02-.8.3-.01.61,0,.91.03.52.03.88.37,1.05.94.04.14.05.29.1.44,0,.05.06.08.12.15Z"/>
        <path class="cls-1" d="M27.51,60.74c-.29,1.11-.58,1.98-1.24,2.66-.13.14-.3.26-.46.38-.17.11-.42.05-.54-.12-.09-.13-.12-.28,0-.42.23-.33.49-.65.69-.99.56-.95.82-1.96.69-3.07-.04-.38-.15-.69-.55-.82-.09-.03-.22-.08-.25-.15-.37-.73-1.06-1.05-1.76-1.36-.11-.04-.18-.24-.2-.37-.05-.25.29-.52.49-.42.46.2.95.38,1.32.74.15.13.28.3.45.41,1.4.92,1.55,2.26,1.36,3.53Z"/>
        <path class="cls-1" d="M13.37,41.88c.44-1.94,1.55-3.31,2.96-4.44,1.43-1.16,3.09-1.9,4.85-2.45.1-.03.22-.04.3.01.12.06.23.18.31.29.06.1-.08.32-.21.36-.58.18-1.16.36-1.73.56-1.86.67-3.36,1.84-4.63,3.34-.42.5-.76,1.06-.96,1.71-.12.37-.35.72-.54,1.07,0,.02-.09.05-.12.03-.08-.05-.19-.1-.21-.17-.04-.14-.01-.29-.01-.31Z"/>
        <path class="cls-1" d="M16.82,49.57c-.29-.14-.67-.3-1.01-.5-.49-.28-.95-.59-1.41-.9-.31-.21-.5-.5-.56-.87,0-.08.07-.19.14-.26.07-.05.19-.07.27-.06.1.01.21.08.25.15.41.62,1.08.93,1.65,1.34.21.14.46.25.71.29.99.18,1.97.46,3,.43.92-.03,1.83-.07,2.73-.23.2-.03.41-.09.6-.08.13.01.26.12.39.18-.06.12-.11.31-.21.36-.51.24-1.04.39-1.61.41-1.16.05-2.33.13-3.49-.09-.45-.09-.91-.11-1.45-.16Z"/>
        <path class="cls-1" d="M29.32,61.15c-.13.91-.64,1.75-1.08,2.61-.07.12-.19.23-.29.34-.21.22-.53.27-.66.09-.13-.18-.17-.38-.06-.57.18-.31.38-.6.55-.91.47-.87.71-1.8.8-2.77.04-.46-.03-.9-.19-1.34-.12-.33-.22-.68-.3-1.02-.03-.14.03-.3.18-.4.11-.06.32,0,.39.11.73,1.17,1.04,2.42.67,3.85Z"/>
        <path class="cls-1" d="M37.88,36.59c-.06.31-.19.57-.5.72-.12.05-.35.05-.41-.04-.05-.09-.11-.2-.09-.27.06-.25.16-.48.23-.71.07-.24-.22-.52-.46-.47-.5.1-.99.21-1.47.31-.08.01-.2-.07-.24-.14-.05-.07-.06-.22-.02-.28.22-.27.47-.51.71-.78.05-.07.1-.22.06-.28-.08-.12-.2-.27-.31-.28-.3,0-.6.04-.9.09-.29.05-.58.14-.88.19-.06,0-.17-.1-.21-.18-.03-.08-.04-.22,0-.28.09-.12.21-.22.34-.29.46-.24.98-.27,1.48-.27s.88.23,1.21.56c.1.09.15.28.14.42-.01.32.14.43.42.52.8.26,1.03.66.89,1.47Z"/>
        <path class="cls-1" d="M28.44,45.02c-.26-.25-.35-.47-.24-.62.32-.48.78-.79,1.31-1.01.56-.24,1.16-.36,1.77-.42.95-.11,1.66.3,2.25,1.01.1.11.16.25.06.41-.1.15-.41.29-.52.22-.18-.1-.35-.21-.52-.33-.53-.37-1.12-.46-1.74-.26-.67.21-1.36.41-1.97.79-.13.08-.26.14-.4.21Z"/>
        <path class="cls-1" d="M42.14,54.48c-.1.41-.13.62-.23.79-.1.16-.25.3-.41.43-.11.1-.34.08-.41-.03-.05-.09-.13-.19-.12-.27.04-.24.13-.48.2-.72.14-.49.17-.98.11-1.5-.08-.85-.41-1.54-1.08-2.08-.27-.22-.56-.44-.82-.67-.11-.1-.21-.23-.3-.34-.07-.09-.01-.35.11-.4.08-.03.21-.06.27-.02.94.54,1.73,1.25,2.19,2.23.42.88.64,1.8.46,2.57Z"/>
        <path class="cls-1" d="M21.56,48.41c-.04-.06-.1-.14-.14-.22-.04-.12.08-.34.19-.38.2-.04.4-.1.59-.11,1.46-.12,2.72-.73,3.88-1.6.25-.18.5-.34.76-.49.08-.05.2-.06.29-.04.09.02.19.08.23.16.05.07.06.19.04.28-.03.09-.09.19-.17.24-.91.73-1.88,1.38-3,1.76-.82.28-1.66.43-2.52.48-.04,0-.1-.04-.17-.07Z"/>
        <path class="cls-1" d="M33.54,51.8c0,.1,0,.16-.01.21-.34.69-.83,1.25-1.53,1.6-.87.43-1.81.56-2.78.47-.14-.01-.27-.12-.38-.21-.07-.06-.11-.19-.1-.27.02-.08.1-.19.18-.2.19-.05.4-.08.58-.05.45.07.89.08,1.35-.05.7-.19,1.3-.51,1.67-1.18.12-.21.3-.39.48-.56.06-.06.21-.09.28-.05.11.07.19.21.26.28Z"/>
        <path class="cls-1" d="M31.21,55.29c-.07-.06-.15-.13-.21-.2-.06-.11-.01-.2.1-.26.05-.02.08-.07.13-.09,1.31-.2,2.21-.94,2.85-2.07.05-.09.13-.19.22-.2.12-.04.29-.03.41.02.06.02.08.18.09.27.01.04,0,.1-.02.14-.53,1.04-1.3,1.81-2.38,2.26-.38.16-.79.2-1.2.11Z"/>
        <path class="cls-1" d="M37.93,56.27c-.01.08-.01.19-.05.28-.34.62-.67,1.24-1.04,1.84-.23.4-.6.69-1.05.83-.08.02-.23-.03-.26-.1-.06-.12-.12-.34-.07-.4.89-.73,1.4-1.71,1.8-2.76.04-.1.26-.2.37-.18.11.03.19.21.27.32.03.04.02.1.03.17Z"/>
        <path class="cls-1" d="M18.93,53c1.04.47,2.1.67,3.01,1.26.11.06.18.22.26.35.02.03.01.11,0,.14-.03.03-.09.07-.14.07-.09,0-.21.02-.28-.02-.93-.56-1.98-.78-3-1.04-.2-.05-.38-.14-.56-.23-.03,0-.06-.09-.04-.13.01-.09.04-.24.09-.25.23-.08.47-.11.66-.14Z"/>
        <path class="cls-1" d="M20.13,55.68c-.17-.06-.41-.13-.65-.24-.59-.29-1.22-.47-1.9-.46-.14.01-.29-.06-.42-.13-.12-.08-.23-.19-.22-.36.01-.13.17-.31.29-.31.15,0,.29-.03.45,0,1.01.15,1.96.49,2.82,1.05.09.06.1.26.11.4,0,.03-.16.07-.25.09-.05,0-.1-.01-.23-.03Z"/>
        <path class="cls-1" d="M19.01,38.17c-.03.1-.06.24-.1.25-1.1.26-1.8,1.03-2.42,1.9-.03.04-.09.05-.12.08-.09.08-.33-.02-.37-.14-.02-.1-.07-.21-.03-.29.14-.26.26-.56.47-.75.58-.56,1.26-.98,1.99-1.35.22-.11.54.05.58.29Z"/>
        <path class="cls-1" d="M2.43,56.34c-.27-.04-.48-.29-.48-.44,0-.7.71-1.6,1.4-1.76.05-.02.1,0,.14,0,.12,0,.29.19.26.32-.15.65-.38,1.25-.88,1.71-.13.11-.35.14-.44.18Z"/>
        <path class="cls-1" d="M22.65,66.8c-.07-.08-.19-.17-.25-.29-.04-.07,0-.2.04-.27.05-.09.13-.17.21-.21.58-.31,1.16-.61,1.74-.9.09-.04.2-.08.3-.07.08,0,.17.07.25.12.1.08.12.17.03.27-.13.15-.23.35-.39.44-.51.32-1.04.6-1.57.89-.08.04-.19.02-.34.03Z"/>
        <path class="cls-1" d="M25.68,45.67s0,.13-.02.14c-.84.44-1.68.9-2.66.99-.04,0-.11,0-.14-.05-.07-.07-.15-.15-.15-.23-.01-.08.03-.23.09-.25.8-.29,1.61-.57,2.41-.85.21-.07.46.08.47.24Z"/>
        <path class="cls-1" d="M21.44,52.58c.91.25,1.79.61,2.57,1.18.06.03.06.2.02.25-.05.06-.19.11-.25.09-.29-.09-.56-.22-.85-.32-.67-.23-1.33-.47-1.99-.7-.18-.06-.25-.2-.19-.32.08-.15.22-.19.37-.2.09,0,.19.02.31.03Z"/>
        <path class="cls-1" d="M5.25,56.55c-.1.25-.2.57-.36.88-.05.11-.23.18-.36.22-.14.04-.4-.16-.44-.33-.04-.14-.1-.3-.07-.43.13-.48.36-.92.88-1.12.08-.02.2-.02.27.02.07.05.14.15.14.23,0,.15-.03.29-.06.53Z"/>
        <path class="cls-1" d="M25.63,53.24s-.06.09-.08.1c-.1.01-.22.05-.29,0-.46-.31-.96-.55-1.47-.76-.1-.04-.16-.23-.17-.38,0-.15.32-.33.47-.28.63.23,1.16.6,1.53,1.17.02.04.02.1.02.14Z"/>
        <path class="cls-1" d="M33.64,55.6s-.08-.08-.09-.12c0-.1-.03-.23.02-.28.35-.35.72-.69,1.11-1.01.08-.07.32-.04.4.04.08.08.13.3.08.41-.25.61-.73.95-1.39.99-.05,0-.1-.02-.13-.03Z"/>
        <path class="cls-1" d="M58.68,20.76c-.36-.16-.58-.26-.8-.37-.13-.06-.17-.43-.03-.52.1-.09.28-.18.38-.14.42.18.75.47.97.88.04.07.05.21,0,.27-.03.05-.18.05-.25.03-.14-.05-.27-.14-.27-.14Z"/>
        <path class="cls-1" d="M39.93,58.7c-.05-.09-.18-.22-.17-.33.04-.42.26-.73.62-.98.1-.07.18-.09.27,0,.05.07.15.15.16.23.02.43-.2.77-.53,1.02-.07.05-.19.03-.35.04Z"/>
        <path class="cls-1" d="M22.44,37.2s-.05.09-.08.12c-.22.23-.51.3-.8.36-.07.01-.19-.07-.25-.14-.05-.07-.1-.2-.07-.27.16-.43.77-.61,1.1-.34.06.06.06.18.09.27Z"/>
        <path class="cls-1" d="M35.88,55.69c-.05.28-.39.54-.76.58-.04,0-.11-.02-.12-.05-.06-.12-.18-.3-.14-.38.14-.25.34-.46.67-.52.15-.03.38.21.35.38Z"/>
        <path class="cls-1" d="M24.1,35.77c-.09.03-.2.11-.26.08-.12-.04-.21-.15-.32-.23.06-.07.11-.17.17-.21.15-.09.29-.04.36.1.05.08.04.18.05.27Z"/>
        <path class="cls-1" d="M94.15,74.41c-.19.02-.31,0-.4.04-.88.35-1.68.04-2.5-.24-.18-.07-.34-.21-.49-.35-.29-.29-.28-.58,0-.94.15-.18.39-.24.52-.1.24.26.47.52.82.65.26.1.44.44.8.37.35-.08.67-.21.92-.49.14-.14.3-.27.46-.37.06-.03.23.01.26.07.14.32.25.65.39.97.13.29.38.47.7.53.37.06.71,0,.97-.32.12-.15.22-.34.34-.5.41-.57.79-.65,1.08.05.05.14.12.28.2.4.18.27.55.37.8.21.21-.14.43-.29.58-.48.26-.31.45-.67.56-1.07.04-.19.18-.35.28-.52.07-.11.29-.15.41-.07.08.05.14.13.19.22.03.08.05.21.03.3-.19.94-.67,1.69-1.54,2.16-.48.27-.96.29-1.45.02-.13-.08-.24-.19-.38-.24-.14-.04-.3-.03-.44,0-.08.02-.15.13-.23.18-.93.59-1.63.55-2.49-.14-.12-.09-.23-.19-.41-.34Z"/>
        <path class="cls-1" d="M103.32,88.17c-.14.4-.29.82-.45,1.25-.1.23-.45.33-.65.19-.07-.05-.16-.17-.15-.23.1-.29.23-.56.34-.84.25-.66.51-1.33.31-2.05-.02-.04.01-.11.04-.14.06-.07.13-.17.22-.18.08-.02.23.02.26.08.1.17.22.36.21.54,0,.45-.07.9-.12,1.39Z"/>
        <path class="cls-1" d="M100.32,88.39c-.1.49-.21.82-.5,1.06-.12.1-.32.13-.39.03-.04-.08-.12-.19-.1-.27.17-.57.35-1.13.54-1.69.03-.04.18-.09.24-.07.08.03.18.12.18.2.02.29.02.59.02.74Z"/>
        <path class="cls-1" d="M102.79,83.04c.09.04.2.06.25.14.24.34.29.73.26,1.14-.02.14-.25.33-.44.37-.15.02-.34-.1-.35-.21-.02-.62-.01-.69.28-1.44Z"/>
        <path class="cls-1" d="M99.31,85.56c-.11.19-.22.28-.39.23-.14-.05-.19-.19-.13-.35.07-.19.21-.27.32-.16.1.08.15.2.21.29Z"/>
        <path class="cls-1" d="M69.79,11.14c-.05.16-.08.26-.11.35-.05.15-.24.25-.35.17-.08-.06-.16-.14-.17-.21-.01-.26.04-.49.2-.71.08-.1.16-.14.27-.06.04.02.09.05.09.09.04.15.05.29.07.38Z"/>
      </g>
    </g>
  </g>
</svg>