<?xml version="1.0" encoding="UTF-8"?>
<svg id="Layer_2" data-name="Layer 2" xmlns="http://www.w3.org/2000/svg" viewBox="0 0 51.23 25.84">
  <defs>
    <style>
      .cls-1 {
        fill: #753d22;
        fill-rule: evenodd;
      }
    </style>
  </defs>
  <g id="Layer_2-2" data-name="Layer 2">
    <g>
      <path class="cls-1" d="M21.9,24.91l-.09.03.09.02v-.05h0ZM40.05,18.1s0-.06-.02-.07c-.03-.01-.08-.03-.1-.01-.09.04-.08.09.03.11.03,0,.07-.02.09-.03h0ZM39.51,23.52s.06-.04.1-.06c-.03-.03-.05-.08-.08-.08-.11-.01-.16.03-.12.1.01.03.07.03.11.04h0ZM40.68,17.02c-.03.06-.1.12-.1.17,0,.1.09.12.16.05.03-.05.03-.12.03-.19,0,0-.06-.02-.1-.03h0ZM20.81,24.57c-.04-.06-.07-.11-.11-.17-.06.04-.14.07-.19.13-.04.05-.05.17-.03.19.06.04.15.06.21.04.05-.03.07-.12.11-.18h0ZM21.59,22.63c.21.05.32.1.43.11.07,0,.15-.05.22-.07-.07-.04-.13-.1-.19-.1-.12,0-.24.03-.46.06h0ZM21.29,19.85c.23.04.33.08.45.08.06,0,.12-.06.2-.09-.07-.03-.14-.08-.21-.08-.11,0-.22.04-.43.08h0ZM38.51,19.03c.42.15.59.23.78.23.03,0,.08-.04.09-.07.02-.1-.02-.16-.11-.17h-.75ZM22.28,20.9c-.29-.19-.49-.15-.69-.15-.16,0-.31.04-.58.08.46.18.79.16,1.27.07h0ZM22.01,18.68s0-.09-.03-.11c-.18-.15-.39-.16-.6-.1-.05.02-.1.12-.12.19-.01.03,0,.09.03.12.17.17.49.18.69.01.02-.03.02-.07.04-.11h0ZM11.81,24.23c.49.04.98.08,1.47.11.04,0,.08-.01.11-.03.03-.03.07-.05.09-.08-.03-.03-.05-.08-.09-.09-.52-.11-1.04-.15-1.59.09h0ZM37.21,21.99c.59-.04.96-.06,1.34-.1.08,0,.16-.05.23-.09.02-.01.02-.08.02-.12,0-.03-.02-.08-.04-.09-.27-.15-.58-.12-.87-.09-.5.06-.99.21-1.5.14-.02,0-.08.07-.07.09.01.07.05.19.09.2.33.03.67.04.8.05h0ZM19.93,21.21c-.08.02-.17.02-.24.07-.55.38-1.12.75-1.65,1.16-.3.23-.54.53-.8.81-.15.16-.15.37-.03.58.22.38.43.5.82.42.49-.1.99-.19,1.48-.29.22-.05.38-.19.47-.38.1-.23.18-.48.23-.71.16-.59.1-.89-.3-1.65h0ZM31.08,17.44c.1-.1.19-.2.28-.29,0-.17.03-.33.02-.5-.01-.18-.25-.29-.38-.19-.1.08-.22.14-.3.23-.41.45-.66.97-.77,1.57-.08.45-.24.49-.72.27,0-.36.17-.64.35-.94.2-.32.4-.64.58-.98.03-.05-.02-.16-.05-.23-.06-.11-.24-.16-.33-.1-.11.07-.24.12-.31.21-.45.56-.89,1.14-.95,1.9-.01.21-.25.29-.49.2-.07-.03-.14-.13-.13-.18.04-.16.09-.32.17-.46.31-.51.64-1,.94-1.5.04-.05,0-.16-.02-.24-.03-.08-.26-.15-.34-.09-.13.09-.29.18-.39.31-.43.58-.87,1.15-1.13,1.84-.1.26-.37.31-.63.14-.12-.07-.18-.22-.11-.32.27-.43.55-.86.81-1.29.05-.1.09-.23.09-.36,0-.07-.06-.17-.12-.2-.06-.04-.17-.04-.23,0-.42.25-.65.65-.9,1.05-.13.21-.22.46-.34.68-.09.17-.32.24-.56.17-.18-.05-.3-.24-.24-.38.18-.43.42-.82.74-1.18.14-.15.26-.33.36-.52.03-.05,0-.16-.04-.23-.03-.09-.25-.15-.33-.11-.11.06-.24.11-.32.2-.37.35-.69.74-.91,1.21-.11.23-.25.44-.39.65-.02.03-.09.05-.11.04-.06-.04-.15-.12-.14-.17.03-.16.07-.34.15-.47.29-.43.6-.82.89-1.24.07-.1.12-.22.13-.35,0-.06-.07-.16-.13-.18-.17-.08-.34-.05-.47.08-.47.49-.91,1-1.2,1.63-.07.15-.15.31-.28.42-.08.06-.23.07-.34.06-.14,0-.26-.16-.21-.25.23-.4.47-.79.71-1.19.1-.18.22-.36.32-.54.05-.09-.07-.26-.19-.26-.09,0-.18,0-.25.02-.15.08-.29.17-.43.26l-.03.03.05-.02c.03-.33.08-.67.1-1,0-.07-.06-.16-.11-.21-.07-.08-.29-.04-.34.05-.1.19-.21.37-.3.56-.19.42-.27.89-.53,1.3-.22-.27-.12-.56-.17-.84-.06-.38-.11-.75-.2-1.12-.02-.11-.16-.22-.3-.19-.11.03-.23.1-.3.19-.15.17-.17.4-.13.61.24,1.19.09,2.38.12,3.56.02.38-.14.66-.42.88-.46.37-.93.73-1.41,1.08-.84.6-1.52,1.36-2.18,2.14-.24.29-.27.59-.09.94.1.18.16.39.22.57-.07.08-.11.18-.18.2-.58.2-1.17.16-1.74-.03-.05-.02-.11-.16-.08-.2.42-.74.93-1.42,1.54-2.01.33-.33.67-.65,1-.98.21-.21.41-.43.61-.65.29-.35.37-.73.24-1.19-.31-1.14-.5-2.32-.85-3.46-.06-.19-.08-.41-.06-.63.01-.23-.03-.41-.18-.58-.08-.1-.13-.21-.17-.34-.12-.38-.3-.67-.67-.88-.25-.15-.41-.43-.63-.62-.08-.07-.25-.1-.34-.05-.1.04-.2.18-.21.29-.03.21.01.42.01.62,0,.11-.08.14-.17.14-.16,0-.27-.09-.24-.21.03-.12.08-.24.13-.36.04-.12.09-.24-.04-.33-.13-.11-.35-.13-.47-.04-.2.16-.38.34-.56.52-.17.16-.34.15-.58-.01-.12-.08-.15-.22-.07-.32.08-.09.17-.18.26-.28.17-.17.46-.32.31-.62-.11-.2-.37-.13-.58-.11-.09,0-.17-.02-.25-.02,0,.03,0,.06,0,.09.01-.03.02-.05.03-.07-.04-.12-.07-.23-.14-.33-.08-.11-.22-.15-.33-.08-.2.14-.39.31-.57.47-.1.08-.17.18-.26.26-.09.09-.28.07-.32-.04-.02-.07-.03-.17,0-.21.14-.2.32-.38.47-.57.09-.11-.03-.37-.18-.38-.08,0-.16,0-.24.01-.17.03-.32.07-.48.11.01.18-.09.29-.23.38-.09.06-.15.05-.18-.06,0-.04,0-.08.02-.11.1-.14.24-.2.41-.19.23-.25.47-.49.68-.73.05-.06.05-.16.07-.23.02-.1-.14-.27-.23-.26-.08.02-.17.02-.24.05-.27.13-.53.26-.79.4-.05.06-.09.14-.15.18-.05.04-.13.04-.2.05.01-.04.02-.08.04-.1.03-.03.07-.05.11-.06.08-.02.15-.03.24-.05-.05-.16-.06-.34-.14-.47-.08-.15-.25-.25-.43-.22-.16.04-.32.1-.48.16-.8.29-1.57.64-2.39.88-.84.24-1.7.54-2.62.29-.12-.04-.26-.07-.37-.04-.74.2-1.32-.21-1.92-.51-.36-.18-.55-.51-.6-.92-.02-.22.08-.45.27-.54,1.32-.57,2.51-1.42,3.83-1.99.12-.05.23-.11.34-.18,1.92-1.06,3.82-.97,5.67.17.8.49,1.57,1.01,2.36,1.51.64.42,1.3.81,2,1.12.74.34,1.51.56,2.34.53,1.1-.06,2.2,0,3.3-.25.28-.06.59-.03.89-.06.34-.02.68-.03,1.01-.09.58-.11,1.1.04,1.6.27.34.16.71.34.98.6.86.82,1.94,1.21,3.02,1.57,1.84.59,3.73.78,5.65.68.26-.01.51-.07.76-.11,1.46-.26,2.94-.41,4.39-.77.24-.06.51-.04.76,0,.66.14,1.32.3,1.98.47.54.14,1.07.23,1.63.24.25,0,.51.05.76.09.22.05.42.04.62-.02.57-.16,1.14-.32,1.71-.49.37-.11.69-.32.99-.55.33-.26.68-.51,1.04-.74.1-.07.24-.07.36-.1v-.09s-.02.06-.02.06c-.21.42-.41.84-.64,1.25-.08.14-.24.25-.43.17-.36-.14-.67,0-.97.16-.22.12-.32.45-.18.66.11.18.25.34.37.49.06.21-.07.34-.18.46-.38.42-.83.72-1.36.93-.15.05-.3,0-.4-.2-.05-.11-.07-.26-.15-.34-.08-.08-.21-.14-.32-.16-.12-.01-.35.2-.34.33.01.21.06.41.08.62,0,.07-.03.17-.08.23-.1.1-.23.09-.34.03-.08-.03-.15-.09-.22-.14-.38-.29-.78-.29-1.13,0-.27-.12-.1-.32-.15-.46-.03-.07-.07-.17-.13-.18-.11-.03-.26-.05-.36,0-.11.04-.2.16-.27.26-.16.25-.3.51-.47.8h-.86c-.16-.28-.38-.46-.69-.53-.25-.04-.59.06-.65.28-.13.57-.57.93-.88,1.38-.68.97-1.42,1.89-2.24,2.76-.18.18-.34.39-.46.61-.46.82-.65,1.65-.1,2.52.06.11.1.23.14.34.01.04,0,.09-.01.16-.2.03-.41.08-.62.07-1.19-.05-2.38.07-3.56.11-.56.02-1.11.02-1.66.03-.12,0-.24-.03-.36-.05.05-.09.08-.19.14-.21.15-.07.32-.12.48-.14.89-.08,1.77-.22,2.66-.18.29.01.59-.07.89-.1.34-.02.51-.25.64-.54.07-.16.09-.34,0-.49-.15-.25-.31-.52-.5-.73-.42-.48-.87-.93-1.31-1.39-.29-.31-.57-.62-.85-.95-.15-.18-.14-.52.01-.71.45-.57.92-1.12,1.49-1.57.3-.23.58-.5.86-.76.05-.05.09-.14.13-.21.05-.09-.02-.31-.12-.32-.43-.07-.85-.02-1.18.3-.53.49-1.04.99-1.57,1.48-.09.1-.19.19-.28.28-.03.07-.05.13-.08.18.03-.04.06-.1.1-.16h0ZM47.16,11.29c.14-.03.23-.11.24-.26.28,0,.47-.18.66-.34.56-.44,1.12-.9,1.54-1.51.57-.83.75-1.78.8-2.76.09-1.51-.5-2.73-1.62-3.69-.95-.81-2.07-1.31-3.24-1.73-.31-.11-.66-.13-1-.13-1.21,0-2.33.37-3.39.94-.15.08-.3.18-.43.28-.85.73-1.38,1.61-1.25,2.77.08.65.3,1.23.85,1.65.09.06.23.07.38.11,0-.24,0-.46,0-.66,0-.38-.02-.76.03-1.14.08-.59.24-1.18.69-1.61,1.04-.95,2.24-1.33,3.64-.9.32.1.63.24.96.34,2.12.63,3.32,3.46,2.92,5.22-.04.16-.09.33-.15.48-.12.32-.25.64-.41.93-.32.6-.65,1.19-.98,1.77-.14.02-.24.1-.26.24l-.04.03.03-.04h0ZM23.2,23.89c.09.22.32.26.49.39.21.15.34.37.45.6.06.13.02.36-.11.46-.14.1-.28.22-.43.25-1.04.24-2.08.38-3.15.08-.57-.16-1.16-.25-1.73-.4-.34-.09-.67-.13-1-.04-.59.16-1.18.13-1.77.13-.76,0-1.53.03-2.29-.05-1.06-.12-2.11-.21-3.17-.25-.59-.02-1.18-.13-1.77-.2-.08,0-.17-.03-.25-.05-.2-.04-.36-.24-.37-.46,0-.16.1-.33.27-.39.54-.23,1.1-.45,1.7-.52.76-.09,1.52-.17,2.28-.22.43-.03.85-.02,1.28-.02.22,0,.41-.09.56-.25.03-.03.06-.06.09-.09.76-.91,1.55-1.81,2.41-2.63.24-.23.27-.48.24-.81-.12-1.02-.44-1.99-.73-2.96-.07-.24-.18-.48-.29-.71-.08-.2-.23-.36-.43-.44-.55-.22-1.09-.52-1.66-.64-1.48-.32-2.78-1.01-4.07-1.76-.11-.06-.21-.14-.32-.21-.47-.29-.91-.63-1.5-.6-.39-.25-.78-.22-1.21-.14-1.01.19-2.02.2-3.05.16-.51-.02-1.01-.12-1.49-.29-.28-.1-.55-.25-.85-.28-.66-.07-.95-.49-1.09-1.07-.09-.37-.15-.75-.21-1.12-.04-.28.1-.5.31-.66.1-.07.21-.14.33-.19,1.64-.7,3.17-1.62,4.74-2.45.82-.44,1.67-.61,2.56-.66.59-.04,1.17.06,1.75.25,1.07.34,2.02.86,2.95,1.48.17.11.34.26.51.38.91.63,1.89,1.13,2.9,1.56.6.26,1.22.37,1.86.39.25.01.51.02.76,0,1.53-.13,3.05-.2,4.57-.42.53-.08,1.02.05,1.47.3.67.36,1.36.71,1.97,1.17.96.69,2.04,1.03,3.16,1.27.74.16,1.51.22,2.27.32.55.07,1.1.07,1.65,0,.3-.03.59,0,.89-.02.38-.03.77-.04,1.13-.13.5-.14.99-.22,1.51-.27.33-.03.67-.09,1-.19.45-.14.91-.19,1.38-.25.35-.05.67-.02,1,.08.65.19,1.32.32,1.97.52.67.21,1.34.19,2.02.16.26,0,.5-.11.69-.29.38-.34.77-.67,1.14-1.02.79-.75,1.27-1.7,1.61-2.72.05-.16.06-.33.09-.49.15-1.12-.62-3.11-2.02-3.7-.23-.1-.46-.22-.68-.35-.66-.36-1.38-.41-2.1-.3-.61.1-1.12.4-1.52.87-.15.19-.26.44-.32.68-.16.64-.12,1.26.15,1.87.11.23.25.45.33.69.04.15.01.33-.02.48-.06.21-.33.34-.51.28-.47-.19-.97-.33-1.41-.59-.72-.43-1.2-1.09-1.37-1.91-.26-1.28-.02-2.45.89-3.44.67-.73,1.43-1.32,2.4-1.61,1.07-.32,2.13-.58,3.26-.4.29.04.59.09.86.21,1.03.49,2.08.97,3.02,1.63.32.23.58.49.81.8,1.1,1.43,1.45,3.04,1.19,4.8-.18,1.22-.5,2.41-1.04,3.53-.57,1.2-1.23,2.33-2,3.4-.45.63-1.05,1.1-1.76,1.43-1.01.46-2.04.86-3.14,1-.25.03-.5.08-.8.13-.17.21-.36.43-.53.67-.38.57-.76,1.13-1.22,1.62-.54.58-.57,1.3-.52,2.03,0,.21.09.42.13.62.08.39.27.71.56.99.28.27.55.53.83.79.14.14.15.31.09.47-.08.2-.22.39-.45.39-.5.02-1.02.02-1.53-.04-.72-.08-1.43-.11-2.15-.03-.63.07-1.27-.01-1.91,0-1.91.02-3.82.04-5.73.07-.77,0-1.53-.04-2.28-.21-.12-.03-.24-.08-.36-.12-.1-.04-.23-.32-.21-.43.08-.4.27-.7.65-.89.51-.26,1.05-.37,1.59-.4.98-.07,1.93-.33,2.91-.31.08,0,.17-.03.23-.08.06-.05.11-.13.12-.21,0-.08-.01-.19-.06-.24-.47-.6-.96-1.19-1.53-1.69-.2-.18-.43-.27-.69-.29-.8-.07-1.61-.14-2.41-.19-.42-.04-.85.03-1.24-.2-.92-.12-1.85-.25-2.77-.37-.2-.02-.31.14-.23.33.16.44.32.88.5,1.31.14.38.1.75-.09,1.1-.25.45-.49.9-.72,1.35-.14.27-.19.56-.14.86Z"/>
      <path class="cls-1" d="M6.29,7.38c.15.04.27.06.39.11.31.12.43.6.19.83-.15.14-.34.25-.53.31-.45.16-.93-.31-.82-.79.04-.16.14-.3.31-.36.15-.05.32-.07.46-.1Z"/>
      <path class="cls-1" d="M46.24,13.43c.23,0,.38.13.5.32.07.1.13.2.07.33-.01.03-.04.07-.07.1-.22.23-.54.2-.74-.05-.15-.2-.1-.46.14-.64.03-.03.07-.05.1-.06Z"/>
    </g>
  </g>
</svg>