<?xml version="1.0" encoding="UTF-8"?>
<svg id="Layer_2" data-name="Layer 2" xmlns="http://www.w3.org/2000/svg" viewBox="0 0 30.69 33.82">
  <defs>
    <style>
      .cls-1 {
        fill: #753d22;
        fill-rule: evenodd;
      }
    </style>
  </defs>
  <g id="Layer_2-2" data-name="Layer 2">
    <g>
      <path class="cls-1" d="M4.7,31.7c.11-.02.33-.07.55-.11.13-.03.23-.28.15-.42-.1-.2-.19-.43-.36-.56-.93-.79-1.96-.78-3.01-.23-.2.1-.21.43-.01.56.77.53,1.63.77,2.68.77h0ZM13.84,32.63c.46.04.87-.17,1.25-.42.23-.15.47-.32.53-.63.03-.2-.28-.54-.68-.67-.26-.08-.56-.16-.82-.12-.38.06-.76.21-1.13.34-.15.06-.27.19-.41.3-.38.33-.33.71.09.93.37.2.74.27,1.16.25h0ZM20.04,29.77c-.03-.7-.08-1.32-.33-1.91-.38-.89-.81-1.75-1.06-2.69-.05-.22-.54-.32-.75-.16-.12.11-.26.23-.33.38-.24.47-.29.99-.17,1.5.1.44.25.87.41,1.3.12.32.29.62.41.94.16.43,0,.89-.42,1.17-.09.06-.21.09-.3.15-.19.11-.18.43,0,.58.17.17.38.28.61.23.5-.1.99-.24,1.49-.38.25-.06.36-.27.4-.5.04-.22.04-.45.05-.61h0ZM6.41,4.57c0,.08.07.28,0,.41-.05.11-.26.24-.4.22-.15-.01-.29-.15-.41-.28-.38-.4-.43-.91-.5-1.43-.01-.11-.25-.2-.41-.26-.09-.03-.23.01-.33.05-.89.31-1.1.76-.73,1.56.12.26.28.5.42.75.32.55.48,1.14.54,1.79.09,1.1.47,2.12,1.02,3.07.23.41.39.81.38,1.28,0,.23,0,.45.01.68.17,1.57.62,3.03,1.73,4.22.32.34.69.58,1.13.75.45.16.96.08,1.25-.28.18-.22.35-.45.46-.72.65-1.53,1.01-3.15,1.43-4.76.06-.22.07-.46.05-.69-.04-.59.14-1.12.37-1.66.44-1.01.98-1.94,1.76-2.72.28-.28.54-.59.82-.88.35-.38.6-.84.76-1.33.07-.22.1-.44-.04-.65-.12-.17-.53-.24-.79-.08-.29.18-.57.38-.81.62-.2.2-.31.48-.49.7-.06.08-.22.16-.29.13-.15-.05-.32-.15-.39-.28-.09-.13-.15-.33-.12-.48.15-.84-.32-1.31-.99-1.61-.57-.25-1.18-.44-1.78-.61-.51-.14-1.04-.07-1.5.14-.58.26-1.13.56-1.65.91-.45.31-.69.77-.5,1.43h0ZM19.66,23.41l-.03.08.06-.04c-.05-.16-.08-.34-.16-.48-.04-.07-.22-.14-.29-.11-.21.07-.42.17-.59.31-.42.32-.93.42-1.43.52-.07.02-.22-.11-.23-.19-.03-.22-.04-.45,0-.67.07-.39.24-.77.27-1.16.07-1.14.17-2.28.39-3.41.18-.92.03-1.82-.41-2.67-.04-.08-.18-.12-.28-.15-.13-.04-.36.16-.37.3-.01.28-.02.56-.02.85,0,.51.07,1.04-.01,1.54-.2,1.41-.3,2.85-.65,4.23-.05.23-.14.45-.12.68.12,1.76-.37,3.54.13,5.39.2.15.47.35.73.54,0,.05.03.13.01.14-.3.25-.61.52-.94.73-.12.07-.34.06-.49,0-.57-.22-1.12-.18-1.68,0-.65.2-1.29.4-1.94.6-.56-.54-.78-1.19-.94-1.85-.34-1.35-.48-2.71.01-4.05.22-.59.45-1.18.64-1.77.09-.27.12-.55.14-.83.01-.09-.08-.26-.15-.28-.15-.03-.38-.05-.46.03-.2.2-.36.44-.47.7-.16.36-.19.78-.54,1.07-.15-.44-.3-.87-.43-1.3-.19-.61-.54-1.13-.96-1.6-.14-.16-.46-.24-.63-.16-.2.11-.3.51-.17.76.06.1.1.21.17.3.47.73.84,1.49.96,2.37.03.28.2.53.28.81.05.15.12.36.06.47-.25.42-.19.89-.25,1.34-.21,1.35-.53,2.69-.96,3.99-.13.41-.41.67-.81.82-.3.12-.57,0-.61-.32-.04-.56-.28-.97-.76-1.27-.29-.18-.57-.39-.89-.53-.66-.28-.99-.73-.94-1.45.02-.23,0-.46,0-.7.06-1.55.12-1.79-.51-3.35-.15-.36-.23-.77-.25-1.16-.14-1.83-.14-3.66.07-5.49.17-1.55.58-3.03,1.07-4.49.02-.07.17-.17.23-.15.1.02.21.12.23.21.08.28.14.55.18.84.19,1.54.94,2.8,1.84,4.01.46.61,1.05,1.05,1.79,1.25.82.24,1.83.09,2.44-.78.23-.33.44-.67.56-1.06.31-1.04.67-2.07.96-3.12.44-1.59.83-3.21,1.28-4.81.09-.32.28-.63.5-.88.41-.47.88-.9,1.33-1.34.72-.71,1.16-1.56,1.3-2.55.04-.28.03-.57-.01-.85-.11-.67-.89-1.22-1.52-1.09-.34.07-.66.18-1,.25-.58.13-1.08-.13-1.39-.72-.03-.05.06-.21.13-.24.2-.09.42-.19.65-.21,1.15-.1,2.3-.05,3.41.22,1.07.25,2.04.78,2.88,1.48,1.01.83,1.98,1.72,2.74,2.82.69.98,1.5,1.86,2.49,2.58.64.47,1.2,1.06,1.76,1.64,1.03,1.07,1.5,2.42,1.7,3.86.02.11,0,.24-.06.34-.25.38-.22.73,0,1.12.19.35.33.73.45,1.11.17.5.18,1.01-.05,1.51-.12.26-.2.54-.3.81-.11.29-.1.55.03.82.16.32.16.66.07,1.01-.37,1.38-.87,2.72-1.71,3.91-.42.61-.84,1.22-1.25,1.84.09.18.13.35.24.47.19.23.3.48.3.78,0,.23.03.46,0,.69-.11,1.08-.21,2.16-.33,3.24-.03.3-.23.52-.47.69-.14.1-.29.2-.45.24-1.13.25-2.25.29-3.35-.15-.03,0-.05-.1-.05-.16,0-.04.06-.11.1-.11.45-.01.9-.02,1.35-.03.25,0,.47-.16.51-.37.08-.41-.07-.77-.39-.83-.39-.07-.79-.12-1.19-.15-.22-.02-.46.02-.68,0-.17-.02-.33-.13-.31-.33.01-.15.08-.32.16-.45.02-.03.21,0,.3.06.24.14.47.32.72.45.07.03.22-.03.29-.1.07-.07.12-.21.09-.3-.07-.21-.17-.41-.29-.61-.29-.49-.65-.95-.88-1.46-.73-1.57-.88-1.31-.38-2.92.05-.16.08-.36.03-.49-.24-.62.17-.97.52-1.34.1-.11.24-.09.28.03.11.38.24.76.29,1.15.11,1.01.63,1.83,1.25,2.59.31.38.75.53,1.23.36.1-.03.21-.12.24-.2.04-.09.02-.26-.04-.32-.27-.29-.61-.53-.85-.84-.57-.74-.88-1.6-.98-2.53-.02-.17,0-.34-.03-.52-.12-1,.08-1.9.61-2.78.95-1.58,1.12-3.35,1.09-5.14,0-.16-.08-.33-.17-.47-.05-.07-.19-.15-.28-.15-.1,0-.21.09-.28.16-.07.08-.13.2-.14.3-.03.4-.03.8-.05,1.2-.08,1.7-.65,3.25-1.63,4.63-.59.84-1.25,1.64-1.88,2.46-.19.23-.42.37-.74.35h0ZM1.97,29.01c.06-.08.1-.12.13-.17.71-.87.76-1.87.54-2.92-.19-.89-.36-1.79-.54-2.68-.05-.28-.13-.56-.13-.85.01-2.11-.19-4.23.29-6.32.11-.5.18-1.02.3-1.51.16-.61.23-1.23.24-1.87,0-.45.07-.91.12-1.37.1-.91.29-1.8.83-2.53-.25-1.18-.53-2.28-1.12-3.28-.35-.59-.5-1.27-.3-1.98.14-.48.36-.84.81-1.04.63-.3,1.29-.52,1.99-.42.72.09,1.38-.09,1.96-.48,1.22-.82,2.51-1.05,3.95-.56.37-.14.75-.27,1.11-.43C13.15.1,14.22.01,15.31,0c1.73-.02,3.25.5,4.65,1.48,1.28.89,2.45,1.88,3.4,3.11.77,1,1.62,1.92,2.56,2.76.24.21.5.25.78.09.34-.2.65-.14.95.11.72.58,1.24,1.32,1.68,2.13.27.5.13.87-.12,1.28.19.77.36,1.55.57,2.32.13.49.24.99.6,1.41.32.36.34.85.28,1.3-.04.4-.14.79-.23,1.18-.24,1.11-.48,2.24-.44,3.4.02.46-.09.89-.27,1.32-.7,1.63-1.37,3.27-2.06,4.9-.21.49-.36.97-.23,1.5.14.56.09,1.12-.02,1.7-.11.55-.13,1.13-.18,1.7-.07.8-.43,1.4-1.12,1.82-.3.18-.61.31-.96.31-.92,0-1.84-.01-2.75-.02-.6,0-1.12-.23-1.54-.64-.24-.24-.42-.54-.64-.81-.15-.19-.38-.25-.61-.22-.56.06-1.09.33-1.68.3-.51-.02-1.02.06-1.54.09-.27.21-.54.43-.82.62-1.15.76-2.35.81-3.57.16-.2-.11-.41-.22-.57-.37-.17-.15-.38-.34-.41-.53-.09-.71-.49-1.27-.73-1.91-.24-.64-.46-1.29-.74-2.03-.28.48-.39.9-.48,1.33-.15.73-.3,1.45-.47,2.18-.09.38-.37.59-.74.5-.35-.09-.68-.07-1.01.04-.65.23-1.34.28-2.03.3-.94.03-1.82-.13-2.67-.52-.52-.23-1.02-.49-1.6-.6-.48-.08-.71-.83-.42-1.28.19-.28.43-.55.69-.74.36-.27.78-.47,1.15-.67Z"/>
      <path class="cls-1" d="M8.83,13.13c.31-.02.79.41.83.82.04.48-.1.91-.33,1.3-.14.25-.41.39-.69.46-.17.05-.54-.06-.6-.21-.19-.47-.39-.95-.52-1.43-.04-.13.04-.35.14-.46.29-.29.64-.47,1.18-.49Z"/>
      <path class="cls-1" d="M6.28,7.38c.1.02.27,0,.3.06.25.38.47.76.68,1.15.1.2-.24.61-.48.59-.56-.04-1.08-.54-1.11-1.1-.02-.27.26-.6.62-.71Z"/>
      <path class="cls-1" d="M11.49,8.84c-.09.24-.17.45-.26.65-.09.19-.37.3-.57.25-.24-.05-.54-.38-.52-.59.03-.39.13-.77.41-1.07.13-.14.51-.16.6,0,.14.24.23.5.33.75Z"/>
    </g>
  </g>
</svg>