<?xml version="1.0" encoding="UTF-8"?>
<svg id="Layer_2" data-name="Layer 2" xmlns="http://www.w3.org/2000/svg" viewBox="0 0 113.97 30.37">
  <defs>
    <style>
      .cls-1 {
        fill: #753d22;
      }
    </style>
  </defs>
  <g id="Layer_2-2" data-name="Layer 2">
    <g>
      <path class="cls-1" d="M113.8,25.38c-1.67-.06-3.33-.04-5.01.02-1.76-.11-3.52-.17-5.29-.23-.83-.21-1.76-.22-2.61-.33-.99-.11-1.97-.24-2.95-.45-.97-.22-1.93-.46-2.9-.7-.88-.39-1.86-.55-2.77-.91-1.02-.4-1.99-.92-2.89-1.54-1.62-1.11-2.98-2.67-4.95-3.18-1.07-.27-2.14-.14-3.22-.16-1.08-.01-2-.31-2.93-.84-.76-.43-1.48-.94-2.28-1.29-.58-.26-1.13-.32-1.71-.31-1.08-1.43-2.16-2.85-3.25-4.27-.67-.87-1.34-1.73-2.02-2.6-.56-.72-1.1-1.53-1.83-2.09-.61-.47-1.43-.78-2.19-.49-.05.02-.13.07-.21.12-.2-.35-.42-.69-.68-.98-.44-.49-1.07-.92-1.36-1.52-.34-.69-.28-1.46-.83-2.08-.46-.52-1.06-.74-1.69-.82-.1-.04-.18-.07-.28-.09-.19-.05-.38-.07-.57-.06-.21-.39-.64-.67-1.1-.56-1.9.43-3.84.7-5.8.74-1.92.04-3.87-.17-5.79.13-1.78.28-3.58,1.02-5.21,1.78-.42.19-.84.39-1.25.6-.67.17-1.32.45-1.95.74-1.54.76-2.94,1.91-4.08,3.21-.23.24-.47.49-.68.74-1.17,1.33-2.09,3.07-3.63,4.04-.72.46-1.53.74-2.23,1.22-.7.46-1.35,1.07-1.97,1.64-.11.1-.2.21-.31.31-.06.04-.11.06-.17.1-1.27.79-2.02,1.98-3.06,2.97,0-1.36-.02-2.72-.1-4.07.02,0,.05-.01.06-.02,0,0,.01,0,.02-.01.02,0,.03,0,.04-.02-.01,0-.02,0-.02.01.08-.03.16-.07.22-.12.08-.06.13-.13.17-.22.05-.09.08-.17.09-.28.01-.2-.03-.41-.17-.56-.04-.04-.1-.07-.15-.1.54-.36.73-1.1.7-1.75-.05-.95-.5-1.88-1.05-2.63-.05-.07-.12-.07-.17-.05-.11-.22-.21-.44-.27-.69-.06-.24-.4-.17-.38.07.06.62.06,1.21-.22,1.78-.26.52-.65.98-.81,1.55-.14.46-.15.99.13,1.41.1.15.28.32.47.41,0,0,0,.01-.01.02-.03.03-.09.14-.1.19-.05.13-.05.19-.05.31,0,.07,0,.13.04.21,0,.02.01.05.02.08,0,.04-.03.08-.04.13,0,.13,0,.26-.01.39-.02.28-.02.57-.02.85v1.64c-.02.86-.02,1.72-.02,2.59-.97.41-2.04.64-3.01.96-1,.34-2,.81-2.75,1.54-1-.04-1.99-.08-2.99-.11-1.93-.06-3.82,0-5.74.13-1.97.12-3.95.1-5.92.27-.18.01-.15.26,0,.29,1.98.27,3.98.36,5.96.58,1.97.23,3.9.38,5.88.42,2.88.06,5.74.08,8.61-.06.14.01.27.03.4.03.8.04,1.61.04,2.41.03,1.82.73,3.91.29,5.93.38,1.53.07,2.83.69,4.25,1.2,1.52.54,3.08.69,4.69.69,3.45-.03,6.9-.14,10.36-.14s6.99.18,10.46-.21c.28-.03.24-.45-.02-.49-2.58-.35-5.19-.39-7.79-.42,0-1.64.01-3.29-.1-4.93.06-.07.13-.13.16-.23l.06-.12c.03-.07.04-.15.03-.23,0-.05,0-.11-.03-.16-.02-.08-.05-.14-.1-.2-.04-.03-.06-.05-.09-.08-.02-.04-.03-.07-.05-.11.58-.22.95-.99.78-1.59-.14-.54-.42-1.06-.63-1.57-.24-.56-.51-1.11-.74-1.68-.06-.13-.24-.04-.19.1.21.42-.13.96-.36,1.3-.25.37-.52.76-.65,1.19-.23.76-.13,1.72.44,2.31,0,0,.01,0,.02,0-.02.04-.05.07-.06.11h0c-.07.11-.12.23-.14.37,0,.04.02.07.02.11,0,.05,0,.11.02.16.03.13.09.25.17.37.02.01.05.03.08.05-.06,1.61-.1,3.2-.14,4.8-.22,0-.44,0-.66,0-1.09-.02-2.19-.07-3.28-.1.19-.69-.25-1.31-.53-1.93-.33-.69-.67-1.38-.97-2.08-.54-1.24-.65-2.54-1.03-3.82-.16-.54-.37-1.03-.7-1.49-.34-.47-.73-.71-1.2-1.04-.71-.49-.44-1.08-.21-1.78.16-.49.27-.97.18-1.49-.03-.22-.4-.22-.39.02.03,1.08-1.06,2.02-.64,3.13.19.52.66.84.98,1.28,0,.01.01.03.02.05-.18-.12-.37-.2-.63-.23-.83-.11-1.76.26-2.46.68-1.6.97-2.68,2.52-4.4,3.34-1.02.5-1.83,1.09-2.64,1.88-.59.59-1.18,1.08-1.9,1.33-.1,0-.2,0-.3,0-1.58-.41-3.24-.4-4.9-.33-1.02.04-2.05.09-3.07.23-.28.04-.56.11-.83.16-.97-.09-1.94-.19-2.91-.26,1.63-.31,3.33-.43,4.81-1.24,1.4-.78,2.19-2.03,3.19-3.23.49-.59,1.05-1.1,1.65-1.61.46-.4.88-.84,1.3-1.28.75-.35,1.51-.69,2.23-1.09-.74,1.47-1.52,2.9-2.6,4.16-.07.09.05.2.14.13,2.83-2.19,4.18-5.61,6.18-8.47,1.1-1.57,2.4-2.7,4.14-3.51.54-.26,1.11-.44,1.68-.6.27-.05.55-.11.81-.2.17-.06.33-.12.49-.17.77-.22,1.53-.45,2.26-.84.01,0,.02-.02.03-.03.74-.29,1.48-.55,2.23-.76,2.11-.58,4.29-.29,6.45-.34,1.13-.03,2.25-.15,3.36-.31.29.07.57.13.87.21.47.15.94.32,1.38.53.05.02.1.04.16.08.74,1.2,2.04,2.08,3.26,2.85.87.54,1.68,1.11,2.48,1.7.08.21.15.42.23.62.2.58.48,1.12.77,1.67.56,1.02,1.13,1.95,2.19,2.5.15.07.23-.14.13-.23-.88-.76-1.13-1.78-1.28-2.86.69.63,1.35,1.3,1.97,2.05,1.83,2.22,3.38,4.64,5.2,6.86.94,1.14,1.91,2.18,3.09,3.07,1.08.81,2.3,1.51,3.45,2.22-.09,0-.18-.02-.26-.03-1.5-.14-2.93-.17-4.19-1.09-1.13-.81-2.17-1.81-3.22-2.73-1.17-1.02-2.1-2.22-2.95-3.53-.16-.23-.55.03-.42.27.79,1.37,1.66,2.68,2.52,4,.79,1.22,1.75,2.34,2.89,3.26-.94-.08-2.02-.06-2.88-.43-.86-.37-1.37-1.34-1.9-2.06-.72-.95-1.32-1.98-1.95-2.99-.12-.2-.45-.06-.33.16.6,1.12,1.22,2.25,1.7,3.42.35.84.72,1.79,1.4,2.43-2.13-.04-4.27-.09-6.4-.07-.23,0-.27.32-.04.35,6.11,1.18,12.23,1.54,18.43,1.66,3.01.05,5.99.04,8.99-.16,1.52-.1,3.03-.19,4.55-.29.25-.03.51-.04.76-.06.03,0,.05,0,.07,0,.48.06.96.09,1.44.12-5.31.28-10.57.87-15.87,1.23-.21.01-.19.37.01.37,5.32.04,10.58.18,15.89-.2,4.39-.31,8.82-.48,13.16-1.19.51-.04,1.02-.06,1.54-.12.12-.01.17-.09.18-.19.38-.08.75-.15,1.14-.23.21-.05.21-.38-.02-.39ZM50.76,24.42c-.16,0-.32,0-.47,0-.04-1.55-.08-3.1-.13-4.64.02,0,.04.04.07.05.15.05.29.06.43.04.05-.01.08-.03.13-.04.03,0,.05-.01.07-.02-.09,1.54-.09,3.09-.09,4.62ZM50.04,15.84c.22-.39.51-.74.64-1.18.02-.05,0-.11.02-.17.23.61.45,1.22.69,1.83.15.39.34.82.11,1.22-.19.32-.53.42-.87.49-.05-.14-.1-.28-.12-.44-.04-.38.04-.77.25-1.09.09-.16-.13-.32-.23-.16-.27.36-.41.8-.41,1.26,0,.17.04.35.08.53-.05.02-.1.03-.15.07-.01,0-.02.02-.03.03-.31-.78-.43-1.61.01-2.37ZM32.54,21.6c.85-.65,1.78-.91,2.72-1.4.79-.42,1.48-1.01,2.15-1.62.62-.56,1.24-1.16,1.96-1.6.22-.12.82-.53,1.1-.42.22.08.37.74.47,1.03.07.18.11.37.17.55-.65.31-1.31.62-1.94.99-.4.23-.89.45-1.24.76-.15.12-.24.23-.41.34-.2.12-.37.24-.5.45-.15.26-.38.45-.56.71-.22.3-.38.63-.54.97-.09.17-.18.35-.29.54-.01,0-.02.03-.03.03-.17.12-.27.3-.32.48-.09.1-.19.18-.29.25-.22-.05-.45-.09-.66-.17-1-.34-1.96-.77-2.98-1.04.44-.27.85-.57,1.19-.82ZM21.69,18.67c-.19.14-.38.26-.58.38,0-.77,0-1.54,0-2.31v-1.71c-.01-.24-.01-.48-.03-.72,0-.05,0-.09,0-.14,0,0,.02.01.03.01t.01.01c.07,0,.14.03.21.04.08,0,.17,0,.25,0,.01,0,.03,0,.03,0h.09s.07,0,.11,0c-.09,1.48-.1,2.96-.1,4.45ZM21.98,11.49c-.04.22-.12.43-.22.64-.04.08-.08.17-.14.24-.04.05-.1.09-.15.14-.02.04-.05.08-.07.12h-.04c-.14,0-.11,0-.24.04,0,.01-.02.03-.04.04-.08-.06-.16-.11-.23-.18-.14-.14-.25-.34-.29-.53-.11-.5.17-1.02.39-1.45.23-.42.47-.83.58-1.3.04-.16.03-.31.04-.46.29.53.64,1.03.82,1.62.1.33.09.68,0,1.01.03-.47-.07-.92-.31-1.33-.03-.04-.11-.03-.1.03.1.45.1.94,0,1.38ZM83.57,22.38c-1.52-.71-2.96-1.59-4.49-2.3-.73-.33-1.48-.64-2.14-1.12-.24-.29-.49-.58-.73-.86-.07-.1-.14-.2-.22-.3-.07-.19-.1-.4-.14-.61.04.03.09.06.12.09.2.12.39.26.59.38.14.2.28.41.45.59.45.51,1,.76,1.67.81.21.03.4.03.6.04.52.17,1.05.29,1.62.31.14,0,.27,0,.4,0,.03.01.05.01.08.03.88.37,1.7.92,2.52,1.4,1.33.8,2.69,1.56,4.03,2.34-1.51-.04-2.94-.13-4.35-.8ZM83.83,19.51c.21.04.42.08.63.16,1.43.53,2.54,1.63,3.71,2.62-1.5-.83-2.96-1.75-4.34-2.78Z"/>
      <path class="cls-1" d="M59.25,26.97c-2.43-.13-4.87-.1-7.3-.16-2.41-.04-4.87-.28-7.27.13-.08,0-.1.14-.01.17,2.24.72,4.64.86,6.98.95,2.55.11,5.12.15,7.68.09,5.03-.12,10.08-.06,15.1-.3.1,0,.09-.16,0-.17-5.05-.37-10.12-.45-15.17-.72Z"/>
      <path class="cls-1" d="M38.66,27.66c-1.44-.15-2.88-.38-4.33-.43-1.39-.05-2.8-.08-4.19.03-1.41.12-2.89.13-4.27.41-.08.01-.1.14-.02.16,1.31.3,2.68.34,4.01.52,1.48.2,3.01.24,4.5.25,1.39,0,2.77-.12,4.15-.19,1.49-.07,2.99-.05,4.48-.11.13,0,.11-.22-.01-.23-1.44-.17-2.89-.24-4.33-.4Z"/>
      <path class="cls-1" d="M57.21,29.52c-.5,0-1.01,0-1.51,0-.51.02-1.02.04-1.53.06-.53.02-1.04.13-1.57.16-.16.02-.15.28,0,.29.5.05,1,.16,1.5.2.52.04,1.04.07,1.56.1.5.02,1.02.04,1.52.03.47,0,1.03,0,1.47-.22.12-.07.17-.29.02-.37-.44-.23-.98-.25-1.48-.26Z"/>
      <path class="cls-1" d="M64.46,16.02c.12-.37.28-.87.24-1.24-.03-.47-.19-.91-.35-1.34-.33-.84-.83-1.7-1.4-2.38-.56-.67-1.36-1.13-2.11-1.57-.81-.48-1.63-1.08-2.29-1.76-.11-.11-.29.03-.19.17.5.74,1.16,1.25,1.77,1.88.59.6.92,1.37,1.35,2.08.42.71.86,1.39,1.19,2.15.16.38.31.76.51,1.12.19.34.52.67.79.97.13.16.41.12.48-.08Z"/>
      <path class="cls-1" d="M62.11,14.7c-.14-.13-.27-.28-.42-.39-.14-.13-.26-.29-.41-.41-.06-.04-.15,0-.13.08.04.19.14.35.19.54.03.16.1.32.13.48.06.38.23.72.31,1.09.16.77.56,1.49.92,2.21.05.1.14.19.25.25.13.19.26.38.44.51.12.1.32.04.36-.11.07-.22.06-.45.05-.69.05-.11.08-.22.05-.34-.19-.84-.44-1.71-1-2.35-.25-.29-.45-.63-.74-.89Z"/>
      <path class="cls-1" d="M50.97,5.89c-.02-.66-.89-.87-1.42-1.03-.28-.08-.55-.15-.85-.15-.26,0-.5.01-.76.05-.5.06-1.03-.04-1.53-.02-.49.01-1.05.02-1.52.18-.12.04-.11.24.01.27.23.06.48.08.72.13.24.05.48.09.72.13.45.09.97.14,1.38.37.19.1.38.2.57.31.27.13.51.22.79.3.49.16,1.21.5,1.64.08h0c.1.02.21-.02.29-.06.09-.05.16-.16.13-.26-.03-.1-.06-.16-.12-.25-.01-.04-.03-.05-.04-.02,0-.01-.01-.03-.01-.03Z"/>
      <path class="cls-1" d="M53.99,7.15s-.03-.02-.05-.04c-.05-.02-.1-.06-.15-.09-.11-.07-.23-.1-.35-.12-.03,0-.05-.01-.08-.01h0s-.08-.02-.12-.03c-.16-.04-.3-.05-.44,0-.05,0-.11-.02-.16-.03-.12-.02-.24.07-.26.19-.03.13.03.23.15.29.03.02.06.04.09.05.02.03.02.09.06.12.03.03.05.05.08.07.03.03.07.06.1.1.02.02.01.01,0,0,0,.01.01.02.01.03.07.12.14.23.22.33,0,0,.03.04.05.05.02.03.05.09.04.07.03.05.06.09.09.13.05.07.11.14.16.22,0,0,.01.02.02.03.03.06.07.11.1.17,0-.01-.01-.01,0,.02.01.02.02.04.04.06.02.04.05.08.07.13.06.13.16.25.27.34.07.12.12.24.19.36.13.26.47.22.59-.03.08-.17.11-.36.12-.54.14-.3.01-.68-.12-.97-.1-.24-.27-.46-.44-.66-.09-.1-.2-.17-.31-.23.03.02.07.04.02,0Z"/>
    </g>
  </g>
</svg>