<?xml version="1.0" encoding="UTF-8"?>
<svg id="Layer_2" data-name="Layer 2" xmlns="http://www.w3.org/2000/svg" viewBox="0 0 58.54 26.61">
  <defs>
    <style>
      .cls-1 {
        fill: #753d22;
        fill-rule: evenodd;
      }
    </style>
  </defs>
  <g id="Layer_2-2" data-name="Layer 2">
    <path class="cls-1" d="M25.94,13.09c1.85-.49,2.37-1.81,3.25-2.75,1.06-1.12,2.04-1.1,2.92.2,1.18,1.74,2.21,3.59,3.37,5.35.3.46.85.76,1.34,1.18,1-1.38.96-2.74,1.07-4.04.15-1.71,1.96-1.91,2.97-3.09-2.13-2.6-4.71-4.39-7.42-6.02-.86-.51-1.79-.53-2.64-.02-2.71,1.6-5.35,3.31-7.44,6.05.89,1.08,1.7,2.07,2.58,3.14h0ZM46.15,16.22c.68.77,1.34,1.55,2.05,2.29.73.76,1.54,1.45,2.26,2.22,1.08,1.18,1.38,2.45.68,2.7-1.12.39-1.68-.52-2.28-1.15-1.99-2.11-3.92-4.27-5.88-6.4-.33-.37-.72-.68-1.5-1.43.11,2.35,1.37,3.59,2.09,5.05.73,1.46,2.32,2.49,2.43,4.27-.81.68-1.44.35-1.87-.12-1.32-1.45-2.56-2.98-4-4.68-.81.49-.76,1.54-1.25,2.2-.47.63-1.13,1.16-1.43,1.86-.36.82-.33,1.81-.64,2.66-.14.39-.69.62-1.04.91-.3-.4-.8-.78-.85-1.21-.14-1.31-.08-2.63-.16-3.95-.06-.87.29-1.86-.64-2.5-.92-.05-1.09.69-1.27,1.25-.49,1.63-.83,3.33-1.35,4.96-.11.36-.72.56-1.11.84-.22-.43-.67-.9-.61-1.29.39-2.34.88-4.66,1.38-6.98.25-1.14.77-2.26.06-3.41-.83-.27-1.27.26-1.59.82-1.38,2.4-2.7,4.84-4.05,7.26-.44.79-.9,1.57-1.55,2.7-.43-.58-.98-1.01-.9-1.26.34-1.12.84-2.2,1.32-3.27.47-1.04,1.15-2.01,1.32-3.71-3.83,2.09-4.96,6.06-8.11,9.05-.27-2.8,1.03-4.18,1.96-5.65.9-1.45,1.91-2.82,2.85-4.19-.56-.77-1.03-.36-1.37-.03-2.35,2.31-4.64,4.69-7.01,6.97-1.3,1.26-2.32,2.88-4.04,3.59-.89-.69-.43-1.27,0-1.73,2.85-3.11,5.74-6.19,8.62-9.28.79-.85,1.59-1.7,2.31-2.48-.34-.9-.85-.82-1.31-.55-1.26.72-2.54,1.42-3.72,2.25-4.62,3.29-9.21,6.64-13.81,9.95-.51.37-1.09.63-2.05,1.17,0-.97-.23-1.73.05-2.07.82-1,1.76-1.96,2.8-2.72,4.88-3.61,9.84-7.12,14.73-10.71,3.4-2.5,6.72-5.11,10.12-7.62,1.36-1,2.84-1.86,4.28-2.8,3.2,1.51,5.88,3.44,8.29,5.65,3.8,3.46,7.46,7.09,11.03,10.79,2.38,2.46,4.5,5.17,6.74,7.77.17.2.38.44.39.67.02.48.09,1.14-.18,1.42-.27.28-1.11.42-1.38.21-1.03-.81-1.99-1.72-2.86-2.7-1.93-2.17-3.77-4.42-5.68-6.6-.51-.58-1.13-1.04-1.71-1.56-.19.19-.38.38-.57.58Z"/>
  </g>
</svg>