<?xml version="1.0" encoding="UTF-8"?>
<svg id="Layer_2" data-name="Layer 2" xmlns="http://www.w3.org/2000/svg" viewBox="0 0 18.73 26.08">
  <defs>
    <style>
      .cls-1 {
        fill: #714226;
        fill-rule: evenodd;
      }
    </style>
  </defs>
  <g id="Layer_2-2" data-name="Layer 2">
    <path class="cls-1" d="M6.07,5.45s0-.06-.02-.09c-.25-.57-.57-.94-.34-1.61.22-.64.61-1.15,1.17-1.52.2-.13.43-.23.63-.37.29-.19.61-.38.87-.61.62-.57,1.3-1,2.13-1.18,1.6-.35,3.06.69,3.23,2.32.05.49.06.97.09,1.46.52.44.87.99,1,1.68.1.53.5.95.86,1.32,1.05,1.1.98,1.76.06,2.93-.04.04-.07.09-.1.14.03,0,.07,0,.1,0,.84-.02,1.53.33,2.19.81.84.6,1.02,1.4.54,2.32-.2.38-.48.73-.79,1.04-.16.16-.33.29-.5.42.07.1.13.21.2.31.74,1.08.74,2.55-.07,3.6-.23.3-.59.53-.95.65-.39.13-.82.19-1.23.14-1.03-.12-2.04.44-2.98.76-.05.03-.09.13-.11.18-.3,1.25-.73,2.55-.58,3.85.02.22.05.44.04.66-.03.7-.43,1.17-1.12,1.3-.36.07-.71.11-1.08.13-1.09.06-1.63-.45-1.62-1.54,0-1.37.08-2.73.11-4.1,0-.12.06-.37.05-.56-.93.45-1.89.28-2.87-.13-.66-.28-1.31-.59-1.9-1.01-1.15-.82-1.4-1.84-.95-3.16.05-.15.11-.3.15-.45-.14-.03-.27-.07-.41-.12-.38-.15-.77-.3-1.06-.61-1.27-1.36-1.01-2.74.4-3.86.29-.23.63-.32.9-.52.41-.31.77-.58.81-1.13.09-1.07.94-1.72,1.94-1.87.59-.09.79-.34.94-.9.06-.25.17-.45.27-.67h0ZM14.19,8.24c-.5-.78-.99-1.55-1.48-2.32-.17-.02-.31,0-.48-.05-.86-.2-1.24-.83-.88-1.66.18-.43.44-.92.37-1.41-.09-.63-.31-1.01-.95-.65-.98.55-1.73,1.24-2.81,1.62-.03.03-.04.06-.08.09-.21.21-.26.26-.1.52.43.72.44,1.43.05,2.16-.06.1-.09.23-.1.36-.08,1.07-.8,1.81-1.86,1.93-.82.1-1.05.49-1.12,1.28-.02.26-.12.36-.21.57l-.07.14-.13.08c-.57.37-1.14.74-1.71,1.12-.15.1-.32.22-.44.36-.14.17-.08.41.13.47.51.15,1.05.18,1.57.32.93.25,1.3,1.19.83,2.01-.14.26-.35.48-.49.73-.31.54-.28.84.25,1.2,1.07.7,2.03,1.17,3.17.31.82-.63,1.82-.62,2.75-.23.29.12.59.2.87.36.47.28.84.22,1.31,0,.63-.29,1.31-.32,1.98-.43.33-.05.61,0,.93,0,.17,0,.24-.1.29-.26.1-.27.14-.54-.04-.8-.16-.24-.34-.47-.5-.72-.38-.58-.35-1.25.04-1.81.22-.31.49-.52.75-.79.18-.19.37-.37.52-.58,0-.02-.05-.04-.07-.05-.18-.12-.36-.08-.56-.04-1.08.27-1.63-.38-2.19-1.16-.53-.74-.44-1.55.11-2.24.11-.14.23-.28.34-.41Z"/>
  </g>
</svg>