<?xml version="1.0" encoding="UTF-8"?>
<svg id="Layer_2" data-name="Layer 2" xmlns="http://www.w3.org/2000/svg" viewBox="0 0 68.22 36.44">
  <defs>
    <style>
      .cls-1 {
        fill: #753d22;
        fill-rule: evenodd;
      }
    </style>
  </defs>
  <g id="Layer_2-2" data-name="Layer 2">
    <path class="cls-1" d="M32.05,16.52c-.12.07-.25.14-.38.2-.32.12-.62,0-.68-.28-.06-.28-.12-.56-.13-.84,0-.13.07-.29.16-.36.09-.07.25-.06.38-.06.06,0,.12.08.19.11.18.12.35.25.52.37.32.24.3.61-.06.86h0ZM52.3,9.92c.09.13.39.27.77.23.37-.04.68-.18.84-.56.09-.22-.01-.64-.21-.76-.46-.29-.95-.26-1.42-.08-.22.08-.27.72.02,1.17h0ZM28.77,25.97h0c-.35.26-.7.52-1.06.78-.2.14-.58.08-.77-.15-.59-.72-.95-1.23.33-1.41.87-.12,1.73-.32,2.59-.47.03,0,.11.1.13.17.02.05.03.16,0,.19-.4.31-.81.61-1.22.9h0ZM44.26,15.81c-.01.2.04.43-.05.54-1.47,2-3.55,2.34-5.83,2.08-.08,0-.17-.18-.23-.29,0-.04.05-.15.1-.16,1.97-.72,3.95-1.43,6.01-2.17h0ZM33.54,15.56c.32-.15.59-.26.83-.42.39-.24.51-.61.29-.91-.86-1.17-1.74-2.34-2.61-3.51-.04-.05-.12-.07-.18-.11-.06.03-.15.05-.19.1-.55.64-.62,1.44-.68,2.24,0,.19.11.45.25.58.75.69,1.53,1.34,2.31,2.02h0ZM34.43,12.2c-.42-.56-.59-.81-.76-1.04-.45-.58-.78-1.24-1.01-1.94-.18-.52-.11-1.01.22-1.45.13-.18.25-.36.39-.53.25-.3.7-.31.94.01,1.32,1.75,2.45,3.62,3.41,5.6.06.12.08.29.06.42-.01.13-.08.31-.18.37-.96.58-1.26.59-1.88-.13-.47-.55-.97-1.08-1.18-1.32h0ZM38.43,2.26c.12-.08.25-.16.37-.24.49-.32.86-.49,1.3.13.3.41.6.83.89,1.26,1.02,1.42,2.04,2.84,3.02,4.28,1.54,2.29,1.56,2.03-1.06,3.31-.21.1-.45.04-.57-.17-1.62-2.52-3.12-5.1-4.33-7.85-.04-.11.02-.29.09-.41.07-.12.19-.21.29-.32h0ZM38.73,12.62c-1.24-2.07-2.49-4.15-3.74-6.22-.08-.13-.17-.26-.19-.39-.02-.21-.02-.44.04-.63.07-.21.19-.41.34-.56.29-.33.61-.63.92-.94.29-.28.72-.23.95.08,1.33,1.86,2.43,3.86,3.45,5.9.26.52.51,1.05.74,1.58.04.1-.03.32-.12.39-.56.49-1.19.87-1.95.93-.13,0-.28-.08-.43-.12h0ZM44.12,18.75c1.54-1.18,2.89-2.21,4.21-3.25.06-.04.04-.34-.03-.38-.64-.35-1.31-.66-1.95-1.01-.39-.21-.7-.55-.84-.99-.06-.18-.03-.42.03-.61.03-.1.23-.21.33-.19.2.05.42.15.56.3.5.56,1.13.92,1.85,1.12.16.04.37-.06.56-.1-.05-.12-.08-.29-.18-.38-.46-.35-.99-.63-1.29-1.18-.14-.27-.22-.53-.14-.84.04-.16.38-.38.5-.28.28.23.58.45.83.71.42.44.94.7,1.5.91.88.35,1.66.3,2.45-.36,1.29-1.1,2.68-2.06,3.95-3.17,2.17-1.88,4.43-3.62,6.73-5.33-.27-.32-.57-.21-.81-.12-1.9.78-3.8,1.57-5.69,2.38-1.08.46-2.14.97-3.22,1.43-1.83.77-3.69,1.47-5.49,2.28-1.21.53-2.41,1.09-3.53,1.79-.99.62-2.09,1.07-3.15,1.59-2.24,1.09-4.53,2.08-6.72,3.29-.2.1-.42.17-.59.29-2.64,1.9-5.69,3.07-8.46,4.72-.64.38-1.31.69-1.93,1.09-.69.45-1.39.78-2.21.92-.42.06-.84.28-1.22.47-2.16,1.13-4.46,1.88-6.77,2.62-.97.31-1.93.6-2.87.88-2.08.44-4.15,1.08-6.27,1.42-.49.08-1.79.28-1.35.89.57.78,3.17.36,3.74,1.14.19.26-.44,3.61.11,3.51.15,0,.5-.15.59-.24.91-.85,1.75-1.78,2.74-2.55,1.62-1.26,3.19-2.6,5.02-3.58.39-.2.8-.38,1.16-.62,2.83-1.88,6.03-2.62,9.32-3.12,3.19-.49,6.36-1.11,9.48-1.97,2.34-.65,4.62-1.45,6.84-2.46.25-.12.5-.28.81-.45-.7-.17-1.23.21-1.8.24-.73.05-1.46.16-2.19.15-.66-.02-1.32-.12-1.97-.25-.65-.13-1.28-.32-1.82-.64-.21-.56,0-.94.47-1.11,1.93-.68,3.88-1.33,5.82-2,.83-.29,1.65-.62,2.48-.89.27-.09.58-.05.87-.07.17-.01.26.08.32.25.08.27.1.54.3.8.5.67.48.71-.05,1.27-.4.43-.8.84-1.03,1.67h0ZM5.26,31.58c0,.42.03.78-.01,1.13-.13.98-.09,1.76.17,2.69.08.28.26.52.42.76.17.26.75.38,1.01.2.24-.16.49-.32.69-.52.73-.72,1.47-1.45,2.16-2.21,1-1.09,2.15-1.99,3.33-2.86.77-.56,1.67-.95,2.36-1.62.2-.2.52-.27.78-.41.46-.22.95-.41,1.37-.69,1.86-1.3,4.03-1.74,6.15-2.3.45-.12.85.03,1.15.46.5.72,1.03,1.42,1.55,2.12.14.19.59.3.82.19.26-.12.53-.24.77-.4.54-.39,1.05-.81,1.57-1.22,1.55-1.24,3.3-2.19,4.98-3.24.31-.18.69-.26,1.04-.34,2.66-.62,5.13-1.79,7.64-2.81.61-.24,1.19-.61,1.74-.97.6-.4,1.16-.88,1.86-1.15.26-.11.46-.35.68-.55.22-.2.38-.47.62-.62,2.53-1.53,4.54-3.71,6.92-5.42,1.41-1.52,3.17-2.63,4.75-3.93,2.15-1.78,4.38-3.45,6.79-4.88.44-.26.92-.45,1.37-.68.27-.14.35-.58.2-.98-.09-.24-.46-.54-.66-.53-.81.06-1.59.28-2.34.59-3.67,1.5-7.38,2.91-10.97,4.61-2.25,1.06-4.61,1.92-6.92,2.87-.38.15-.95.01-1.19-.32-.6-.84-1.19-1.67-1.77-2.51-1.3-1.87-2.59-3.75-3.89-5.62-.08-.11-.21-.22-.33-.28-.12-.07-.27-.11-.41-.11-.14,0-.3.04-.42.11-1.4.96-2.79,1.91-4.16,2.88-.36.26-.68.58-.94.93-.84,1.11-1.66,2.24-2.48,3.37-.25.36-.47.75-.65,1.15-.58,1.35-1.02,2.75-1.35,4.19-.3,1.3-.28,2.62-.09,3.94.04.29.14.58.12.86-.01.2-.14.46-.3.55-1.73.98-3.45,1.97-5.22,2.87-.98.49-2.03.85-3.18.62-.29-.05-.58-.04-.88-.02-.42.02-.91-.14-1.22.27-.26.31-.09.7-.09,1.06,0,.42-.29.67-.65.8-1.73.62-3.45,1.28-5.2,1.84-2.66.85-5.38,1.5-8.13,1.98-1.53.27-3,.68-4.41,1.33-.48.22-.58.97-.17,1.29.65.52,1.35.87,2.18.99.87.13,1.89.39,2.83.54Z"/>
  </g>
</svg>