<?xml version="1.0" encoding="UTF-8"?>
<svg id="Layer_2" data-name="Layer 2" xmlns="http://www.w3.org/2000/svg" viewBox="0 0 38.06 29.92">
  <defs>
    <style>
      .cls-1 {
        fill: #753d22;
      }
    </style>
  </defs>
  <g id="Layer_2-2" data-name="Layer 2">
    <g>
      <g>
        <path class="cls-1" d="M13.47,25.02c2.48,1.01,5.76,1.62,9.38,1.62,7.41,0,13.46-2.57,13.91-5.82.03-.05.05-.11.05-.19,0-.97,0-1.94.01-2.9.02-.14.05-.3.05-.45,0-.87-.42-1.68-1.14-2.42,0-.71,0-1.43,0-2.13,1.25-.87,2.05-1.88,2.2-2.97.03-.05.05-.11.05-.18,0-.98,0-1.94.01-2.91.03-.15.05-.3.05-.45,0-3.43-6.27-6.21-13.99-6.21s-13.66,2.64-13.96,5.94c.48-.32.98-.64,1.5-.9,1.11-2.49,6.26-4.36,12.47-4.36,7.01,0,12.7,2.4,12.7,5.37s-5.69,5.37-12.7,5.37c-1.34,0-2.63-.1-3.85-.26-.02.33-.07.67-.13,1,1.26.17,2.59.28,3.97.28,2.28,0,4.42-.25,6.33-.68-.02.41-.03.81-.03,1.22v.91c-.34.09-.7.15-1.04.22v-.34c0-.4-.03-.79-.06-1.19,0-.1-.17-.11-.17,0-.02.39-.05.78-.05,1.18,0,.14,0,.27,0,.41-.68.12-1.38.21-2.07.28,0-.08,0-.18,0-.27,0-.31.02-.62.05-.93,0-.1-.14-.12-.16-.03-.06.32-.1.63-.13.95,0,.1,0,.21-.01.3-.54.05-1.07.05-1.6.06v-.16c0-.15,0-.31-.02-.45-.02-.16-.07-.3-.11-.46-.01-.05-.1-.05-.11.01-.02.15-.05.3-.05.45-.01.14-.01.29-.02.43,0,.06,0,.13,0,.19-.25.01-.52.04-.76.04-.42,0-.84,0-1.26-.02,0-.06,0-.13,0-.2.01-.17.02-.34.05-.5,0-.05-.07-.08-.09-.03-.06.16-.12.33-.13.5,0,.08,0,.15,0,.22-1.01-.04-2.06-.13-3.09-.29-.17.48-.36.96-.57,1.43.91.1,1.88.16,2.87.16,1.4,0,2.73-.12,3.96-.3,2.65-.14,5.07-.62,7.04-1.33-2.19,1.61-6.28,2.69-11,2.69-1.16,0-2.27-.07-3.34-.2-.15.33-.31.65-.46.96,1.21.16,2.48.25,3.8.25,2.28,0,4.42-.25,6.33-.68-.01.4-.03.81-.03,1.22v.91c-.34.08-.69.16-1.04.22,0-.11,0-.23,0-.34,0-.39-.03-.79-.05-1.18,0-.1-.16-.11-.17,0-.02.38-.05.78-.06,1.17v.42c-.69.12-1.38.21-2.07.27,0-.09,0-.18,0-.27,0-.31.02-.62.04-.94,0-.1-.14-.13-.15-.03-.06.32-.1.63-.13.96,0,.1-.01.2-.02.31-.54.05-1.07.05-1.6.07v-.17c0-.15,0-.31-.02-.45-.02-.15-.07-.3-.1-.44-.01-.05-.11-.04-.11,0-.01.15-.04.3-.05.44-.01.14,0,.3-.02.43,0,.07,0,.13-.01.2-.25,0-.52.03-.76.03-.42,0-.84,0-1.26-.02,0-.07,0-.14,0-.21.02-.17.02-.33.05-.49.01-.05-.07-.08-.09-.04-.06.17-.12.34-.13.51,0,.07,0,.15,0,.22-1.09-.04-2.21-.14-3.31-.32-.15.3-.3.61-.45.91,1.8.5,3.97.81,6.33.81,5.17,0,9.5-1.42,10.77-3.34.8-.58,1.38-1.22,1.72-1.91.13.3.21.62.21.94,0,2.96-5.69,5.36-12.7,5.36-2.53,0-4.87-.31-6.85-.86-.17.31-.34.62-.53.91,2.14.6,4.65.96,7.37.96,2.28,0,4.43-.25,6.32-.68,0,.41-.03.81-.03,1.22v.91c-.34.09-.69.15-1.04.21,0-.11,0-.22,0-.33,0-.4-.03-.8-.05-1.19,0-.1-.17-.12-.17-.01-.02.39-.05.79-.06,1.18,0,.14,0,.29,0,.42-.68.12-1.37.21-2.06.28,0-.09,0-.17,0-.27,0-.32.01-.62.04-.94.01-.1-.13-.12-.16-.02-.05.31-.09.63-.13.96,0,.1-.01.2-.02.3-.54.05-1.06.05-1.59.07v-.16c0-.15,0-.3-.02-.45-.02-.14-.07-.3-.11-.45-.01-.06-.1-.04-.11,0-.01.15-.04.29-.05.44-.01.14-.01.29-.02.43,0,.07,0,.13-.02.2-.25,0-.51.03-.76.03-.41,0-.84-.01-1.26-.03,0-.07,0-.13,0-.2.01-.17.02-.33.05-.5,0-.05-.07-.08-.09-.03-.07.16-.12.34-.13.51,0,.07,0,.14,0,.21-2.4-.1-4.93-.45-7.16-1.37-.25.28-.51.54-.78.79ZM31.52,18.09c-.38.21-.78.39-1.19.56v-.04c0-.21,0-.41-.01-.62-.01-.21-.04-.42-.06-.62-.03-.21-.1-.4-.15-.61-.02-.08-.13-.04-.13.03,0,.12-.01.22-.02.33,0,.09,0,.2,0,.29,0,.2,0,.4,0,.61,0,.2,0,.41-.02.61,0,.05,0,.1-.01.15-.49.19-.99.34-1.5.47v-.83c0-.42-.01-.85-.02-1.28,1.13-.27,2.17-.6,3.08-1,0,.49,0,.97.01,1.45,0,.16,0,.32.01.48ZM34.71,14.09c-.27,1.17-.79,2.24-1.78,3.09v-.1c0-.34,0-.68-.01-1.02,0-.08-.14-.08-.14,0-.03.34-.08.67-.1,1.02,0,.11-.01.21-.02.32-.11.09-.21.18-.33.25-.16.11-.33.19-.49.28,0-.11-.01-.22-.02-.33-.03-.51-.07-1.01-.12-1.5,1.28-.57,2.31-1.24,3.02-1.99ZM33.78,12.62c-.38.2-.78.39-1.19.55v-.04c0-.2,0-.41-.01-.62-.01-.2-.03-.41-.06-.62-.03-.21-.1-.39-.16-.6-.02-.08-.13-.04-.13.03,0,.11-.01.22-.02.34,0,.1,0,.19,0,.29,0,.2,0,.4,0,.6,0,.21,0,.42-.02.62,0,.05,0,.1-.01.14-.49.18-.99.34-1.5.47v-.82c0-.42-.01-.86-.03-1.28,1.13-.27,2.16-.61,3.09-1,0,.48,0,.96,0,1.44,0,.16.01.33.02.49ZM35.19,11.7v-.1c0-.34,0-.69-.01-1.02,0-.09-.14-.1-.14,0-.04.34-.08.68-.1,1.02,0,.11-.02.21-.02.32-.11.08-.21.17-.33.26-.16.1-.33.17-.5.28,0-.12-.01-.24-.02-.36-.02-.49-.08-.99-.12-1.5,1.28-.56,2.31-1.23,3.02-1.99-.28,1.18-.78,2.25-1.78,3.09ZM32.76,21.67c1.28-.56,2.31-1.24,3.03-1.99-.28,1.17-.79,2.24-1.78,3.09,0-.04,0-.08,0-.11,0-.33,0-.67-.02-1.01,0-.09-.13-.09-.14,0-.03.33-.08.67-.1,1.01,0,.11-.01.22-.02.32-.11.09-.21.18-.33.25-.16.1-.34.19-.5.28,0-.11-.01-.24-.02-.35-.02-.5-.07-.99-.12-1.49ZM29.49,22.74c1.13-.27,2.17-.6,3.08-.99,0,.48,0,.96.01,1.44,0,.17.01.33.01.49-.38.21-.78.39-1.18.56v-.04c0-.2,0-.4-.01-.62-.01-.21-.04-.42-.06-.62-.03-.21-.1-.4-.16-.6-.02-.07-.13-.04-.13.03,0,.11-.01.22-.02.34,0,.09,0,.2,0,.29,0,.2,0,.4,0,.61,0,.2-.01.4-.02.61,0,.04-.01.1-.01.15-.49.18-1,.33-1.5.47v-.82c0-.43-.01-.86-.03-1.29Z"/>
        <path class="cls-1" d="M20.15,9.3c1.21.2,2.52.31,3.92.31,5.1,0,9.3-1.44,10.02-3.32-.72-1.87-4.92-3.32-10.02-3.32-3.39,0-6.37.64-8.21,1.62-.26-.11-.54-.2-.82-.25,2.02-1.13,5.3-1.86,9.02-1.86,4.33,0,8.06.99,9.91,2.44-.97-1.76-5.04-3.08-9.91-3.08-4.28,0-7.94,1.02-9.42,2.46-.36-.04-.72-.02-1.09.04,1.54-1.74,5.66-2.99,10.51-2.99,6.17,0,11.17,2.01,11.17,4.5s-5,4.5-11.17,4.5c-1.34,0-2.63-.1-3.83-.28-.01-.26-.04-.52-.09-.77Z"/>
      </g>
      <g>
        <path class="cls-1" d="M16.9,4.49c-.16-.17-.34-.31-.53-.43-2.92-1.79-8.57,2.09-12.62,8.67C-.3,19.31-1.21,26.11,1.71,27.9c.13.08.28.14.42.2.83.5,1.65,1,2.47,1.5.07.05.13.06.19.06,3.01,1.32,8.37-2.48,12.25-8.8,4.04-6.57,4.94-13.34,2.02-15.14-.2-.12-.41-.21-.63-.29l-1.53-.94ZM4.33,13.08C8,7.11,13.03,3.53,15.55,5.08c1.35.82,1.71,2.95,1.2,5.65,0,0,0,0,0,.01-.03.04-.03.1-.03.14-.46,2.34-1.56,5.09-3.24,7.82-3.67,5.97-8.7,9.57-11.22,8-2.52-1.55-1.59-7.65,2.08-13.63ZM8.83,27.6c.09.05.19.12.28.19-.16.1-.33.2-.5.28-.13.06-.25.1-.39.15-.1-.05-.19-.1-.29-.16-.3-.16-.61-.29-.92-.45-.08-.04-.14.08-.07.13.29.17.57.37.86.55.03,0,.05.03.08.04-1.24.41-2.42.28-3.55-.1,1.01-.21,2.12-.73,3.27-1.53.41.3.8.61,1.22.89ZM11.32,25.17l.7.43c-.38.36-.77.71-1.19,1.03-.04-.02-.09-.04-.13-.07-.18-.1-.36-.2-.53-.31-.18-.1-.34-.2-.51-.31-.08-.06-.16-.11-.25-.16-.1-.06-.2-.1-.3-.16-.05-.04-.14.04-.09.1.15.15.27.31.43.45.16.14.32.26.49.38.17.12.34.22.52.33.01,0,.02.01.04.02-.35.25-.72.5-1.09.72-.13-.09-.27-.18-.41-.28-.4-.27-.81-.52-1.22-.76.81-.58,1.64-1.29,2.46-2.11.35.23.71.47,1.08.69ZM19.67,10.1c.05,3.12-1.22,6.26-2.76,8.99-.07-.03-.12-.07-.19-.11-.16-.07-.33-.11-.5-.15-.06-.01-.07.07-.02.1.16.06.31.14.45.21.06.04.12.08.18.11-.21.37-.43.73-.64,1.09-.13.21-.29.42-.42.62-.06-.02-.12-.06-.17-.09-.13-.06-.25-.13-.38-.21-.13-.07-.28-.12-.41-.18-.04-.03-.1.04-.06.09.1.11.21.23.32.32.11.1.25.18.38.26.05.03.09.05.14.09-.29.44-.57.88-.89,1.32-.09-.05-.18-.1-.27-.14-.29-.15-.58-.27-.88-.4-.1-.04-.15.1-.06.15.28.13.56.29.82.45.08.04.15.09.23.14-.42.55-.85,1.1-1.32,1.62-.12-.07-.24-.14-.35-.21-.34-.21-.69-.38-1.03-.57-.09-.05-.17.09-.09.15.33.23.65.46.99.67.09.06.19.12.28.18-.24.26-.47.53-.73.77l-.78-.48c-.34-.21-.7-.4-1.05-.61,1.36-1.39,2.7-3.09,3.89-5.03,1.62-2.64,2.74-5.31,3.31-7.68l.22.15c.36.23.72.45,1.08.67.09.04.18-.06.1-.13-.33-.28-.66-.54-1-.81-.1-.08-.21-.16-.31-.24.08-.34.12-.66.17-.98.08.05.17.11.25.16.26.16.51.33.76.49.1.06.19-.07.11-.14-.22-.21-.45-.41-.67-.62-.11-.1-.22-.2-.33-.3-.02,0-.03-.03-.05-.04.05-.46.08-.89.09-1.31,0,0,.02,0,.02.01.12.09.23.18.34.27.12.09.24.17.37.26.09.05.21-.05.14-.14-.1-.13-.19-.25-.31-.35-.1-.1-.21-.2-.32-.29-.08-.08-.16-.14-.25-.21-.01-.7-.09-1.35-.26-1.91,1.08.99,1.84,2.22,1.87,4Z"/>
        <path class="cls-1" d="M12.57,18.15c3.23-5.26,4.14-10.57,2.02-11.87-2.12-1.31-6.45,1.9-9.68,7.15-3.23,5.26-4.13,10.57-2.02,11.87,2.12,1.31,6.46-1.9,9.68-7.15ZM11.94,17.77c-2.67,4.34-6.11,7.17-8.07,6.79-1.23-1.59-.26-5.93,2.41-10.27,2.67-4.35,6.11-7.17,8.08-6.79,1.22,1.6.25,5.93-2.42,10.28ZM5.32,13.7c2.55-4.15,5.81-6.92,7.81-6.83-2.2.82-5,3.49-7.26,7.16-2.27,3.69-3.38,7.39-3.11,9.72-1-1.75.01-5.91,2.56-10.06Z"/>
      </g>
    </g>
  </g>
</svg>