<?xml version="1.0" encoding="UTF-8"?>
<svg id="Layer_2" data-name="Layer 2" xmlns="http://www.w3.org/2000/svg" viewBox="0 0 49 26.87">
  <defs>
    <style>
      .cls-1 {
        fill: #eeb460;
      }

      .cls-1, .cls-2 {
        fill-rule: evenodd;
      }

      .cls-2 {
        fill: #753d22;
      }
    </style>
  </defs>
  <g id="Layer_2-2" data-name="Layer 2">
    <g>
      <path class="cls-1" d="M25.55,18.28c-.28.96-.48,1.68-.69,2.38-.34,1.13-.83,2.19-1.45,3.17-.95,1.52-2.23,2.68-4.1,2.98-.76.12-1.49.04-2.2-.15-1.03-.28-1.99-.72-2.84-1.38-.51-.39-.91-.89-1.27-1.41-.14-.21-.21-.49-.23-.74-.08-.95-.15-1.9-.08-2.85.04-.68.03-1.38.02-2.06,0-.2-.08-.42-.13-.62-.08-.24-.43-.39-.65-.25-.46.29-.84.65-1.06,1.15-.25.59-.51,1.17-.69,1.77-.44,1.49-1.2,2.81-2.05,4.11-.69,1.05-1.76,1.48-2.87,1.86-.14.05-.32.05-.47.05-1.23-.02-2.24-.46-3.08-1.38-.85-.93-1.41-1.97-1.63-3.21-.1-.64-.06-1.26.06-1.89.03-.1.08-.2.12-.29.08-.19.31-.34.5-.33.16,0,.41.24.41.42.02.27.02.53.02.79,0,.66.24,1.24.62,1.77.32.45.76.7,1.31.8,1.49.29,2.59-.32,3.46-1.45.35-.46.64-.98.73-1.57.21-1.38.78-2.64,1.12-3.97.26-.98.72-1.88,1.35-2.69.95-1.19,2.21-1.76,3.67-2.01.2-.03.42.01.62.07.25.07.49.19.74.29,1.85.66,2.51,2.68,2.31,4.1-.04.27-.09.52-.13.79-.14.89-.27,1.78-.21,2.68.04.52-.08,1.06-.08,1.59.01,1.02.62,1.65,1.49,2.06.3.14.62.14.91-.02.33-.19.64-.39.96-.57,1.45-.81,1.99-2.15,2.02-3.71,0-.84-.13-1.69-.26-2.52-.06-.35-.25-.7-.43-1.02-1.02-1.89-1.27-3.9-.88-6,0-.05.02-.1.03-.15.28-1.32.18-1.36,1.47-2.32.89-.66,1.89-.71,2.87-.38.74.25,1.43.68,2.11,1.08,1.39.82,2,2.14,2.24,3.66.06.35-.02.73-.07,1.1-.14.95-.22,1.89-.19,2.85,0,.15,0,.32,0,.48.11,1.39,1.57,2.42,2.82,2.08,1.15-.3,2.01-.92,2.63-1.9.14-.21.22-.47.25-.74.08-.91.09-1.79-.27-2.65-.37-.89-.76-1.75-1.13-2.63-.2-.49-.4-.98-.57-1.49-.26-.81-.1-1.58.38-2.26.24-.34.55-.65.87-.92.53-.45,1.07-.88,1.63-1.26.54-.36.97-.8,1.38-1.3.3-.36.64-.7.97-1.04.55-.58,1.24-.79,2.01-.78.91.01,1.8.15,2.64.48.55.22,1.07.46,1.6.7.96.45.96.45,1.78-.32.39-.36.75-.75,1.16-1.09.14-.12.38-.16.58-.2.08-.01.21.09.24.17.12.29.04.69-.17.87-.35.32-.72.62-1.07.95-.07.06-.13.2-.11.28.02.08.14.17.23.19.58.08,1.15.16,1.69.39.28.11.43.3.49.57.07.27-.17.55-.43.5-.67-.14-1.34-.28-2.01-.4-.21-.04-.43-.05-.63-.01-.14.03-.31.13-.38.25-.14.22-.22.47-.33.7-.77,1.63-2.12,2.32-3.85,2.3-1.22-.02-2.43.08-3.63.24-.56.07-.95.48-1.03,1.05-.04.26-.06.53-.02.79.05.36.12.73.24,1.08.53,1.51.81,3.06.96,4.65.24,2.75-.87,4.82-3.09,6.37-.13.09-.28.15-.41.25-1.32,1-2.88,1.27-4.47,1.41-.89.07-1.67-.28-2.41-.68-.53-.29-.81-.82-1.05-1.37-.2-.49-.37-.99-.56-1.49-.08-.18-.16-.37-.33-.79Z"/>
      <g>
        <path class="cls-2" d="M27.91,14.25l-.06.08.05.03v-.11h0ZM25.51,15.43c.38-1.19.3-2.36-.11-3.5-.07-.19-.24-.34-.39-.47-.06-.06-.21-.12-.28-.08-.12.07-.23.19-.3.31-.05.08-.04.21-.01.3.3,1.11.61,2.22.91,3.33,0,.04.08.05.18.11h0ZM8.56,18.7c-.02.12-.06.23-.05.32,0,.08.06.16.1.24.09-.04.22-.06.26-.13.38-.57.75-1.16,1.11-1.73.24-1,.93-1.78,1.26-2.72.19-.52.59-.87,1.05-1.16.44-.27.89-.29,1.37-.09.52.23.84.64.96,1.19.1.52.14,1.05.21,1.57.13,1.1.25,2.21.4,3.3.02.13.16.33.27.35.17.04.19-.17.19-.31.02-1.16.09-2.33.33-3.46.18-.76.02-1.48-.23-2.18-.08-.24-.25-.47-.43-.66-.45-.46-1.02-.75-1.67-.83-.2-.03-.43-.04-.63.01-1.55.43-2.8,1.23-3.35,2.84-.4,1.15-.77,2.31-1.16,3.45h0ZM27.79,13.63c-.11-.69-.18-1.05-.23-1.41-.07-.36-.14-.72-.19-1.09-.08-.59-.31-1.11-.73-1.55-.29-.31-.58-.62-.86-.92-.38-.42-.88-.59-1.41-.67-.68-.1-1.24.15-1.64.72-.66.94-.75,1.94-.37,3,.26.75.53,1.49.78,2.24.35,1.08.46,2.17.09,3.29-.07-.06-.16-.1-.18-.16-.06-.31-.1-.63-.14-.94-.08-.58-.24-1.13-.56-1.64-.72-1.15-.95-2.46-1.03-3.79-.03-.57-.03-1.16.04-1.74.14-1.02,1.21-1.95,2.24-1.87,1.85.14,3.34.92,4.24,2.63.28.52.42,1.09.36,1.68-.06.63-.12,1.26-.41,2.22h0ZM36.82,15.01c-.1.01-.25,0-.28.04-.28.5-.57,1-.79,1.54-.17.39-.38.75-.67,1.06-.32.35-.65.7-.98,1.04-.54.55-1.2.87-1.97.9-1.21.04-2.3-.24-3.11-1.23-.14-.15-.28-.31-.43-.46-.76-.69-1.33-1.5-1.59-2.5-.03-.08-.04-.3-.26-.21-.02.54-.06,1.06-.06,1.58,0,1.08.24,2.11.69,3.07.4.85,1.05,1.43,2.06,1.55.75.09,1.45.1,2.18-.15,1.42-.46,1.42-.43,2.69-1.28.14-.09.27-.17.4-.27,1.05-.78,1.77-1.8,2.01-3.11.1-.52.19-1.04.12-1.58h0ZM35.84,12.5c0,.3-.18.59.01.89.11-.3.14-.58-.05-.87.16-.64.12-1.27-.09-1.88-.24-.7-.47-1.4-.76-2.09-.35-.87-.19-1.65.28-2.42.2-.33.51-.52.9-.59.3-.05.49.15.69.31.04.03.1.04.23.08.73-.26,1.55-.34,2.41-.25.74.07,1.48.04,2.22,0,.41-.03.83-.14,1.23-.27.78-.26,1.19-.86,1.34-1.64.05-.27-.02-.53-.23-.73-.11-.11-.22-.25-.35-.32-1.02-.56-2.08-1.04-3.27-1.12-.9-.05-1.67.13-2.25.88-.29.38-.63.72-.92,1.06,0,.25.04.46.02.67-.03.4-.32.73-.71.7-1.13-.08-1.9.52-2.56,1.33-.33.4-.42.85-.27,1.34.12.35.22.71.36,1.05.5,1.23,1.01,2.44,1.53,3.66.04.08.14.14.21.21h0ZM13.84,17.62c.08.12.23.25.22.38-.04.65.17,1.25.38,1.84.09.25.2.51.38.7.47.52.84,1.08,1.08,1.73.05.15.14.29.24.41.86,1.08,1,1.38,2.65,1.38.7,0,1.37-.1,1.97-.49.26-.18.56-.29.83-.46.55-.34.99-.79,1.25-1.39.17-.39.38-.77.46-1.18.22-1.1.7-2.09,1.07-3.16.17.19.06.37.06.54,0,.15-.02.31-.05.46-.3,1.69-.88,3.28-1.75,4.74-.66,1.12-1.57,1.99-2.86,2.38-.87.26-1.75.36-2.63-.03-.63-.28-1.28-.5-1.88-.86-.52-.31-.9-.72-1.22-1.22-.2-.32-.31-.66-.33-1.04-.04-1.58.04-3.17.15-4.75-.22-.42-.44-.83-.66-1.25-.23-.42-.56-.59-1.05-.48-.17.04-.27-.15-.22-.32.14-.4.32-.78.65-1.06.25-.21.64-.19.83.09.12.16.27.36.3.55.1.67.17,1.36.23,2.04.01.15-.07.3-.11.46h0ZM3.84,24.82c-.05-.37-.33-.49-.64-.55-.04,0-.12.05-.12.08,0,.08.01.23.05.25.24.08.49.14.73.2.05.17.17.27.34.28,1.44.12,2.57-.45,3.36-1.66.35-.52.65-1.09.95-1.64.06-.11.02-.25.02-.43-.84.89-1.62,1.74-2.41,2.59-.49.52-1.07.86-1.8.86-.16,0-.32.02-.47.04h0ZM26.07,10.78l.05.03-.08-.02c0-.15.06-.35-.01-.45-.29-.37-.59-.74-.95-1.04-.76-.65-1.49-.43-1.8.54-.1.33-.23.68.02,1.02.26-.05.32-.28.44-.44.31-.38.67-.47,1.12-.35.47.11.87.36,1.21.7h0ZM33.18,18.23c-.02-.12.02-.19.12-.17,0,.02,0,.07,0,.08-.04.03-.09.04-.13.06-.21.14-.4.31-.62.41-.18.08-.39.07-.51-.17.37-.17.73-.38,1.15-.21h0ZM36.27,6.54l.04-.09-.03.06s-.05.07-.08.1c-.06.04-.11.08-.16.11,0-.04,0-.11,0-.12.07-.03.16-.04.24-.06h0ZM25.55,18.28c-.28.96-.48,1.68-.69,2.38-.34,1.12-.83,2.19-1.45,3.17-.95,1.51-2.23,2.68-4.11,2.99-.75.12-1.48.04-2.19-.16-1.03-.28-1.99-.71-2.84-1.38-.51-.39-.91-.89-1.27-1.41-.14-.21-.21-.49-.23-.74-.08-.95-.15-1.9-.08-2.85.05-.68.03-1.38.03-2.06,0-.2-.09-.41-.14-.62-.08-.25-.43-.39-.65-.26-.46.29-.84.65-1.05,1.15-.25.58-.52,1.17-.7,1.77-.45,1.49-1.2,2.82-2.05,4.11-.69,1.05-1.76,1.48-2.87,1.86-.14.05-.32.05-.47.05-1.23-.02-2.24-.46-3.08-1.38-.85-.93-1.41-1.97-1.63-3.21-.11-.64-.06-1.26.06-1.89.02-.1.08-.19.12-.29.08-.19.31-.34.5-.33.16,0,.41.23.42.42,0,.27.01.53.01.79,0,.66.24,1.24.62,1.77.32.45.76.7,1.31.8,1.49.29,2.59-.32,3.46-1.45.35-.46.64-.98.73-1.57.21-1.37.78-2.63,1.12-3.96.25-.97.72-1.88,1.35-2.68.94-1.2,2.21-1.77,3.67-2.02.2-.03.42.01.62.07.25.07.49.19.74.29,1.84.67,2.51,2.68,2.31,4.1-.04.26-.09.52-.13.79-.14.89-.27,1.78-.21,2.68.04.52-.08,1.06-.08,1.59.01,1.02.62,1.65,1.49,2.06.29.14.62.14.92-.02.32-.19.63-.39.96-.57,1.45-.81,1.99-2.15,2.02-3.71,0-.84-.13-1.69-.26-2.52-.06-.35-.25-.7-.43-1.02-1.02-1.89-1.27-3.9-.88-6,0-.05.02-.1.03-.15.28-1.32.18-1.36,1.47-2.32.88-.66,1.89-.71,2.87-.38.74.25,1.43.68,2.11,1.08,1.39.81,2,2.13,2.24,3.66.06.35-.02.73-.07,1.1-.14.95-.22,1.89-.19,2.85,0,.16,0,.32,0,.48.1,1.39,1.56,2.42,2.81,2.08,1.14-.3,2.01-.92,2.63-1.89.14-.21.23-.49.25-.74.08-.9.09-1.8-.27-2.66-.37-.88-.76-1.75-1.13-2.62-.2-.49-.4-.98-.57-1.48-.27-.81-.1-1.58.38-2.26.24-.34.55-.65.87-.92.53-.45,1.07-.88,1.63-1.26.54-.36.98-.81,1.38-1.29.31-.37.64-.71.97-1.05.55-.58,1.24-.79,2.01-.78.91,0,1.8.15,2.64.48.55.21,1.07.46,1.6.7.96.45.95.45,1.78-.32.39-.37.75-.75,1.16-1.09.15-.12.38-.16.58-.2.07-.01.21.09.23.17.13.29.05.68-.17.87-.35.32-.72.62-1.07.95-.07.06-.12.2-.11.28.02.07.14.17.23.19.58.08,1.15.16,1.69.39.28.11.43.3.49.57.07.27-.17.55-.43.5-.67-.13-1.35-.28-2.01-.4-.21-.04-.43-.05-.63-.01-.14.03-.31.13-.38.25-.14.22-.22.47-.34.71-.76,1.62-2.12,2.31-3.84,2.28-1.22,0-2.43.09-3.64.25-.55.07-.95.48-1.02,1.05-.04.26-.06.53-.02.79.05.36.12.73.24,1.08.54,1.51.81,3.07.95,4.65.25,2.75-.87,4.83-3.09,6.37-.13.09-.28.15-.41.25-1.32,1-2.88,1.26-4.47,1.41-.89.07-1.67-.28-2.41-.68-.53-.29-.82-.82-1.05-1.37-.21-.49-.38-.99-.56-1.48-.08-.19-.16-.38-.33-.79Z"/>
        <path class="cls-2" d="M39.83,4.5c-.28-.05-.5-.17-.63-.43-.1-.17-.03-.48.13-.57.39-.23.79-.29,1.21-.13.17.06.35.29.35.49,0,.23-.11.39-.3.52-.24.14-.5.17-.76.13Z"/>
      </g>
    </g>
  </g>
</svg>