<?xml version="1.0" encoding="UTF-8"?>
<svg id="Layer_2" data-name="Layer 2" xmlns="http://www.w3.org/2000/svg" viewBox="0 0 68.03 34.66">
  <defs>
    <style>
      .cls-1 {
        fill: #753d22;
      }
    </style>
  </defs>
  <g id="Layer_2-2" data-name="Layer 2">
    <g>
      <path class="cls-1" d="M1.14,34.66c-.25,0-.52-.09-.73-.26-.49-.4-.55-1.12-.16-1.6l1.84-2.23c4.48-5.44,10.05-12.22,14.68-16.52,2.45-2.29,4.73-2.39,6.4-2.46,1.82-.09,2.65-.12,3.48-2.38,1.26-3.39,4.8-4.44,8.9-5.64,2.58-.76,5.5-1.61,8.14-3.19.67-.4,1.44-.49,2.21-.28,3.13.85,6.51,6.57,11.7,15.89,3.49,6.28,7.11,12.77,10.02,15.28.47.4.53,1.12.13,1.59-.42.48-1.13.54-1.61.13-3.22-2.78-6.94-9.45-10.53-15.9-3.69-6.63-7.87-14.15-10.3-14.81-.24-.06-.36-.02-.46.04-2.89,1.72-5.96,2.62-8.66,3.42-3.66,1.07-6.55,1.92-7.41,4.24-1.36,3.66-3.56,3.77-5.5,3.86-1.53.07-3.12.14-4.96,1.86-4.52,4.2-10.04,10.91-14.47,16.3l-1.84,2.23c-.23.28-.55.41-.87.41Z"/>
      <g>
        <path class="cls-1" d="M21.79,21.42c-2.54,0-4.98-.06-7.35-.11-.86-.03-1.72-.04-2.58-.05-.16,0-.29-.14-.29-.3,0-.16.14-.29.3-.29.88.02,1.73.04,2.59.06,2.66.06,5.42.12,8.3.11,1.35,0,4.29-.02,5.89-.02h.42c.16,0,.3.13.3.29s-.13.29-.3.29h-.42c-1.6,0-4.54,0-5.89.02h-.97ZM54.04,21.41c-.17,0-.29-.13-.29-.29,0-.16.12-.29.29-.3.72,0,1.46-.02,2.21-.03.95-.02,1.92-.04,2.92-.05.17,0,.3.13.3.29,0,.16-.13.29-.3.3-.99,0-1.97.03-2.92.05-.75.02-1.49.03-2.21.04h0Z"/>
        <path class="cls-1" d="M42.71,5.35c-.83-.02-1.72-.05-2.63-.08-1.56-.06-3.18-.11-4.66-.12-.16,0-.3-.13-.29-.3,0-.16.13-.29.3-.29,1.49,0,3.11.07,4.68.12.91.03,1.79.06,2.61.08,1.37-.02,2.66-.06,3.95-.11.92-.02,1.84-.06,2.77-.08.17-.04.3.13.3.29s-.12.3-.29.31c-.93.02-1.84.05-2.76.08-1.29.04-2.59.09-3.97.1Z"/>
        <path class="cls-1" d="M30.27,30.52c-2.58,0-7.33-.18-11.91-.35-3.65-.14-7.11-.27-9.07-.3-1.47,0-2.98-.03-4.49-.04-.17,0-.3-.14-.3-.3s.13-.29.3-.29c1.51,0,3.01.03,4.5.04,1.97.03,5.42.15,9.08.29,4.58.17,9.31.35,11.89.35.35,0,.49.13.49.3s-.14.29-.3.29h-.19ZM64.8,30.13c-.46,0-.92-.02-1.37-.04-.41-.03-.8-.05-1.2-.06-.15,0-.28-.15-.28-.31,0-.15.14-.28.3-.28.41.03.8.04,1.22.07.44.03.88.04,1.33.04.17,0,.3.13.29.3,0,.17-.14.29-.3.29Z"/>
        <path class="cls-1" d="M51.12,13.13c-.89,0-1.75-.06-2.65-.11-.66-.04-1.35-.08-2.09-.11-.17,0-.29-.14-.29-.3,0-.15.17-.28.3-.29.75.02,1.44.07,2.11.11,1.46.09,2.85.18,4.39.02.38-.04.76-.07,1.13-.11.16-.02.31.11.32.28.02.16-.11.3-.26.31-.38.03-.75.07-1.13.11-.63.06-1.24.09-1.84.09ZM24.32,12.86h-.49c-.16,0-.3-.13-.3-.3s.13-.3.3-.3c1.97.02,4.08-.06,6.1-.13,1.8-.06,3.66-.13,5.45-.13.65,0,1.43-.06,2.18-.13.65-.05,1.32-.11,1.91-.12.16,0,.29.13.29.29,0,.16-.12.29-.29.3-.56,0-1.2.06-1.86.12-.76.06-1.55.12-2.23.12-1.78,0-3.64.08-5.43.14-1.87.07-3.79.13-5.63.13Z"/>
        <path class="cls-1" d="M26.58,29.54c-.38,0-1.32-.08-2.42-.19-1.28-.11-2.87-.26-3.25-.22-3.03.3-5.79.12-9.28-.1l-1.29-.09c-1.16-.07-2.42-.04-3.64-.02-.4,0-.8.02-1.2.03-.15-.02-.3-.13-.3-.29,0-.16.13-.3.29-.3.4,0,.79-.02,1.19-.02,1.23-.03,2.51-.05,3.7.02l1.28.08c3.47.22,6.21.39,9.19.1.43-.04,1.92.09,3.37.22,1.07.1,2.1.2,2.39.19.13,0,.3.13.31.29,0,.17-.13.3-.3.3h-.04ZM64.18,29.17c-1.07-.01-2.12-.03-3.15-.06-.17,0-.3-.14-.29-.3,0-.16.17-.27.31-.29,1.03.02,2.07.04,3.14.05.17,0,.3.14.29.3,0,.16-.14.29-.3.29Z"/>
        <path class="cls-1" d="M14.9,20.55c-.77,0-1.56-.01-2.37-.05-.16,0-.3-.14-.29-.3,0-.17.14-.28.31-.28,2.95.11,5.51.02,8.3-.28.9-.1,1.89-.05,2.93,0,.48.03.97.05,1.45.06.85.01,1.7,0,2.56,0,.18-.02.3.13.3.29,0,.16-.12.3-.29.3-1.01.02-1.84.02-2.58,0-.49-.01-.98-.04-1.46-.06-1.02-.05-1.99-.1-2.84,0-2.04.22-3.97.33-6.01.33ZM58.63,20.5c-1.75-.04-5.26-.07-7.06-.1-.16,0-.3-.13-.3-.29,0-.16.14-.3.3-.3,1.81.02,5.33.05,7.07.09.16,0,.29.14.29.31,0,.16-.14.29-.3.29Z"/>
        <path class="cls-1" d="M38.08,4.28c-.16,0-.3-.13-.3-.29s.13-.3.3-.3h.34c2.29,0,4.66-.04,7.01-.07l3.32-.04c.16,0,.29.13.29.29,0,.17-.13.3-.29.3l-3.31.04c-2.34.03-4.72.06-7.01.06h-.34Z"/>
        <path class="cls-1" d="M26.4,22.63s-1.06-.04-1.06-.04c-1.59-.07-3.23-.14-5.26-.14-.59-.02-1.19.01-1.81.03-.66.02-1.31.02-1.97.03-1.83-.01-3.67-.03-5.51-.05-.16,0-.3-.14-.3-.3,0-.17.14-.29.3-.3,1.84.03,3.68.04,5.51.06.64,0,1.29-.01,1.95-.03.62-.02,1.24-.01,1.83-.03,2.04,0,3.69.07,5.28.14l1.05.05c.16,0,.29.14.28.31-.01.16-.14.28-.3.28ZM54.88,22.56c-.16,0-.3-.13-.3-.29,0-.17.12-.3.29-.3l2.28-.03c.91,0,1.84,0,2.79,0,.16,0,.29.13.29.3s-.13.29-.29.29c-.95-.01-1.87-.01-2.78,0l-2.28.03h0Z"/>
        <path class="cls-1" d="M37.03,6.5c-1.46,0-2.88,0-4.42-.06-.12,0-.46,0-.84,0-.15-.03-.3-.13-.3-.29,0-.16.13-.3.3-.3.39,0,.74,0,.87,0,1.81.06,3.46.06,5.2.06h1.06c3.77,0,7.47-.05,11.26-.12.17,0,.3.13.3.29,0,.17-.13.3-.29.3-3.79.06-7.5.12-11.17.12h-1.96Z"/>
        <path class="cls-1" d="M65.6,31.31s-1.42-.05-1.42-.05c-.17,0-.29-.13-.29-.29,0-.16.13-.29.3-.29,0,0,1.42.04,1.42.04.17,0,.29.14.29.3,0,.16-.13.29-.29.29ZM22.99,31.28c-.63,0-2.1-.04-3.53-.06-1.3-.03-2.57-.05-3.16-.06-4.64-.02-8.7-.08-12.39-.16l-.03-.29v-.3c3.73.08,7.78.14,12.42.16.58,0,1.86.03,3.17.06,1.43.03,2.89.06,3.52.06.16,0,.29.13.29.29s-.13.3-.29.3Z"/>
        <path class="cls-1" d="M36.81,14.2c-1.38,0-2.73,0-4.2-.06-.22,0-1.09,0-1.77.01-.38,0-.71.01-.84.01-1.73,0-3.17-.07-4.7-.13-1.58-.07-3.21-.14-5.22-.14h-.58c-.16,0-.29-.13-.29-.29s.13-.3.29-.3h.58c2.03,0,3.66.07,5.25.14,1.52.06,2.95.13,4.67.13.12,0,.45,0,.83,0,.69-.01,1.57-.02,1.8-.02,1.8.06,3.43.06,5.17.06h.83c.17,0,.29.13.29.29s-.13.3-.29.3h-.83c-.34,0-.66,0-.99,0ZM46.37,14.13c-.16,0-.3-.13-.3-.29,0-.16.13-.3.29-.31l8.32-.12c.17,0,.3.13.3.29,0,.16-.13.29-.29.29l-8.32.13h0Z"/>
        <path class="cls-1" d="M63.39,27.94c-1.27-.02-2.53-.03-3.79-.04-.16,0-.3-.14-.3-.3,0-.16.14-.29.3-.29,1.27.01,2.53.02,3.79.04.16,0,.29.14.29.3,0,.16-.13.29-.3.29ZM20.56,27.94c-.74,0-1.2-.02-1.64-.04-.56-.03-1.14-.06-2.27-.04-2.57.03-5.36-.04-8.05-.11l-2.11-.04c-.17,0-.29-.14-.29-.3,0-.16.12-.32.3-.29l2.11.05c2.7.06,5.49.14,8.04.1,1.14-.01,1.73.01,2.3.04.6.03,1.17.06,2.32.04.19-.01.3.13.3.29,0,.16-.13.29-.29.3-.26,0-.5,0-.71,0Z"/>
        <path class="cls-1" d="M53.31,11.69h-1.59c-1.85-.02-2.66-.03-4.81-.08-.17,0-.29-.13-.29-.3s.13-.29.3-.29c2.15.05,2.96.06,4.81.07h1.59c.16,0,.3.14.3.31,0,.16-.14.29-.3.29ZM26.86,11.45c-.16,0-.29-.14-.3-.3,0-.16.13-.29.3-.3,2.36-.03,5.15-.07,8.05-.06h.99c1.29,0,2.5,0,3.77.02.16,0,.29.13.29.3-.01.16-.12.26-.31.29-1.26-.02-2.47-.02-3.75-.02h-.99c-2.87-.02-5.68.04-8.04.07h0Z"/>
        <path class="cls-1" d="M53.83,19.38c-.41,0-.81,0-1.2-.01-.16,0-.29-.13-.29-.3,0-.17.11-.29.3-.29.38,0,.77,0,1.2,0,.57,0,1.16-.01,1.75-.03.65-.02,1.29-.03,1.92-.03h.39c.16,0,.29.14.29.3,0,.17-.13.29-.3.29,0,0-.39,0-.39,0-.61,0-1.26.02-1.9.03-.6.02-1.19.03-1.76.03ZM15.29,19.3c-.55,0-1.1,0-1.67,0-.16,0-.29-.13-.29-.29,0-.16.13-.3.3-.3,1.03.01,2.04.02,3.01,0,1.98-.02,3.96-.05,5.94-.08,1.99-.04,3.97-.06,5.95-.09.17,0,.3.13.3.3,0,.16-.13.3-.29.3-1.98.03-3.96.06-5.94.09-1.98.03-3.97.06-5.95.08-.45,0-.9,0-1.36,0ZM33.89,19.08c-.17,0-.3-.13-.3-.3s.13-.3.3-.3h2.03c.16,0,.3.13.3.3s-.14.29-.3.29h-2.03Z"/>
        <path class="cls-1" d="M47.52,2.94c-1.12-.04-2.34-.09-3.71-.09-.11,0-.47,0-.87,0-.41,0-.87.01-1.23.01-.16,0-.3-.13-.3-.29s.13-.29.3-.29c.36,0,.82,0,1.22-.02.39,0,.75.01.88,0,1.37,0,2.6.04,3.73.09.16,0,.29.14.28.3-.01.16-.14.28-.3.28Z"/>
        <path class="cls-1" d="M57.94,23.8l-1.74-.1h-.44c-.16,0-.3-.13-.3-.29,0-.16.13-.29.29-.29h.46s1.74.1,1.74.1h2.79c.16,0,.3.12.3.29,0,.17-.13.3-.3.3h-2.8ZM25.81,23.67l-15.99-.13c-.16,0-.29-.13-.29-.29s.13-.29.3-.29l15.98.13c.17,0,.3.13.3.3s-.13.3-.3.3Z"/>
        <path class="cls-1" d="M45.28,7.58h-1.08c-.16-.01-.3-.14-.3-.31,0-.17.13-.29.3-.29,0,0,1.08,0,1.08,0l5.55-.06c.17,0,.3.13.3.29,0,.16-.13.3-.29.3l-5.56.07ZM42.15,7.56l-12.16-.1c-.16,0-.3-.14-.3-.29s.13-.29.3-.29l12.16.1c.16,0,.3.13.29.29,0,.16-.13.29-.3.29Z"/>
        <path class="cls-1" d="M66.38,32.43c-.16,0-.3-.12-.3-.29s.12-.3.29-.3c.18,0,.31.13.31.3s-.13.29-.3.29ZM31.26,32.38l-28.28-.24c-.16,0-.29-.13-.29-.3s.13-.29.3-.29l28.28.24c.16,0,.29.13.29.29s-.13.3-.29.3Z"/>
        <path class="cls-1" d="M46.88,15.26c-.16,0-.29-.13-.3-.3,0-.16.13-.3.3-.3l1.81-.04c.18,0,.3.13.3.29,0,.17-.12.3-.29.3l-1.82.04h0ZM38.3,15.22l-20.22-.17c-.17,0-.3-.13-.3-.3,0-.17.13-.3.3-.3,0,0,20.23.17,20.23.17.16,0,.3.13.29.29,0,.17-.13.3-.3.3ZM50.62,15.21c-.17,0-.29-.13-.29-.29,0-.16.12-.29.29-.3l4.76-.06c.17,0,.3.13.3.3,0,.16-.12.29-.29.29l-4.75.06h0Z"/>
        <path class="cls-1" d="M62.69,26.83l-4.22-.03c-.17,0-.29-.13-.29-.3s.13-.29.3-.29l4.22.03c.17,0,.3.14.3.3,0,.16-.13.3-.3.3ZM17.6,26.69l-1.75-.1-8.5.02c-.17,0-.3-.13-.3-.29s.13-.3.3-.3l8.51-.02,1.74.1,5.52-.08c.16,0,.29.13.3.3,0,.16-.13.29-.29.29l-5.53.08Z"/>
        <path class="cls-1" d="M52.6,10.5l-7.47-.06c-.16,0-.29-.13-.29-.29,0-.17.13-.3.3-.3l7.47.06c.16,0,.3.13.3.3s-.13.29-.3.29ZM40.11,10.4l-11.57-.1h-.99c-.17.04-.3-.12-.3-.28,0-.16.13-.3.29-.3h1s11.57.08,11.57.08c.17,0,.3.14.3.3,0,.16-.13.3-.3.3Z"/>
        <path class="cls-1" d="M57.2,18.23l-5.21-.04c-.16,0-.29-.13-.29-.3,0-.16.13-.29.29-.29,0,0,5.21.04,5.21.04.16,0,.3.13.3.3-.01.17-.13.3-.3.3ZM17.6,18.13l-1.75-.1h-1.09c-.16,0-.3-.13-.3-.29s.13-.3.3-.3h1.11l1.74.1,10.92-.13h.76c.16,0,.3.14.29.3,0,.17-.13.29-.29.29h-.75s-10.94.13-10.94.13ZM37.38,18.07s-4.4-.04-4.4-.04c-.16,0-.29-.13-.29-.29s.13-.3.3-.3l4.39.04c.17,0,.3.13.3.29,0,.16-.14.29-.3.29Z"/>
        <path class="cls-1" d="M46.47,1.89l-2.37-.03c-.17,0-.3-.13-.3-.29,0-.17.13-.3.3-.3l2.37.02c.16,0,.3.13.3.29,0,.17-.14.3-.3.3Z"/>
        <path class="cls-1" d="M61.42,24.86c-1.62-.04-3.22-.06-4.79-.08-.17,0-.29-.13-.29-.29,0-.16.14-.29.29-.29,1.58.01,3.18.04,4.8.07.16,0,.29.14.29.3,0,.16-.13.29-.3.29ZM10.91,24.68c-.39,0-.72-.1-1.03-.2-.25-.07-.5-.14-.74-.16-.17-.02-.29-.16-.28-.32.01-.16.16-.3.32-.27.31.02.59.11.86.19.29.08.56.16.84.17.32,0,.76-.07,1.19-.14.45-.08.91-.17,1.28-.15,4.03.04,8.07.09,11.98.14.17,0,.3.14.29.3,0,.16-.13.29-.29.29-3.91-.05-7.96-.1-11.98-.14-.34-.03-.76.07-1.18.14-.44.07-.89.15-1.26.15Z"/>
        <path class="cls-1" d="M44.71,8.66c-.16,0-.3-.13-.3-.29s.13-.3.3-.3c1.79,0,3.52-.04,5.25-.07l1.5-.02c.17,0,.29.13.3.29,0,.17-.13.3-.29.3l-1.5.03c-1.73.03-3.47.06-5.25.07h0ZM41.22,8.49c-2.79-.04-5.86-.08-9.09-.12l-3.41-.05c-.17,0-.3-.14-.29-.29,0-.17.1-.31.3-.3l3.41.05c3.23.05,6.3.08,9.09.11.16,0,.29.14.29.3s-.13.3-.29.3Z"/>
        <path class="cls-1" d="M42.14,33.48c-1.08-.01-6.25-.1-11.93-.18-7.31-.11-15.47-.24-16.86-.25-.36,0-.82-.03-1.27-.05-.43-.02-.86-.04-1.2-.05-.38-.01-.75,0-1.11,0-.24,0-.48.01-.74.02-2.29.01-4.55.03-6.73.04-.16,0-.29-.13-.29-.3s.13-.29.29-.29c2.17,0,4.43-.02,6.72-.04.25,0,.5,0,.73,0,.37,0,.73,0,1.13,0,.35,0,.78.03,1.23.05.44.02.89.05,1.24.05,1.39.01,9.55.14,16.86.25,5.69.09,10.86.17,11.93.18.17,0,.3.13.3.29,0,.17-.14.29-.3.29Z"/>
        <path class="cls-1" d="M47.44,16.33c-.16,0-.29-.13-.3-.29,0-.16.13-.3.29-.3l1.8-.03c.17,0,.3.13.3.29,0,.16-.13.29-.3.29l-1.8.04h0ZM51.18,16.27c-.16,0-.29-.13-.3-.29,0-.16.13-.3.29-.3,1.53-.03,3.1-.05,4.65-.04.34,0,.48.13.48.29s-.13.29-.29.29c-1.75-.02-3.29.01-4.83.05h0ZM38.01,16.14s-6.73-.1-6.73-.1h-.28c-4.43-.06-9.15-.12-13.91-.18-.16,0-.29-.14-.29-.3,0-.16.13-.29.3-.29,4.77.05,9.48.12,13.91.18.28,0,7.01.1,7.01.1.17,0,.3.13.29.29,0,.16-.13.3-.3.3Z"/>
        <path class="cls-1" d="M60.49,26s-2.8-.03-2.8-.03c-.17,0-.3-.14-.3-.3s.13-.29.3-.29l2.77.03c.35,0,.78-.08,1.2-.14l.33-.05c.18-.03.32.08.34.24.02.17-.09.31-.24.34l-.33.05c-.44.07-.89.15-1.26.15ZM18.35,25.61h-.37c-2.87,0-5.89-.08-8.82-.15l-.89-.02c-.17,0-.3-.14-.29-.3,0-.16.13-.29.3-.29,0,0,.9.02.9.02,2.92.07,5.95.14,8.8.15,2.08.02,4.15-.03,6.13-.07h.66c.16,0,.3.12.3.28,0,.16-.13.3-.29.3h-.66c-1.87.04-3.81.08-5.77.08Z"/>
        <path class="cls-1" d="M52.11,9.65s-7.16-.1-7.16-.1c-.16,0-.29-.13-.29-.3,0-.16.15-.32.3-.29l7.15.09c.16,0,.29.14.29.31,0,.16-.14.29-.29.29ZM40.57,9.5c-3.41-.05-6.61-.09-9.47-.12-.14,0-.31-.05-.49-.09-.12-.03-.28-.07-.35-.07-.69,0-1.38,0-2.06.01-.17,0-.3-.13-.3-.3,0-.16.13-.29.3-.3.68,0,1.37,0,2.06,0,.14,0,.32.05.5.1.12.03.28.07.35.07,2.86.03,6.06.07,9.47.12.17,0,.3.14.29.3,0,.16-.14.29-.3.29Z"/>
        <path class="cls-1" d="M9.28,34.11c-1.86-.04-3.66-.09-5.43-.12-.78-.01-1.55-.02-2.33-.02-.16,0-.3-.14-.3-.3s.13-.3.3-.3c.78,0,1.55,0,2.33.02,1.77.03,3.59.07,5.4.12.16,0,.31.14.31.3,0,.16-.12.29-.28.29Z"/>
        <path class="cls-1" d="M56.71,17.4s-5.09-.06-5.09-.06c-.17,0-.3-.14-.29-.31,0-.16.14-.29.29-.29l5.09.06c.16,0,.29.14.29.3,0,.17-.13.29-.3.29ZM37.69,17.15c-1.91-.03-3.73-.05-5.44-.07-.17,0-.3-.14-.3-.3,0-.16.16-.28.3-.29,1.71.02,3.53.04,5.44.07.16,0,.29.14.29.3,0,.16-.14.29-.29.29ZM18.35,17.04c-.89,0-1.78,0-2.69-.01-.16,0-.29-.14-.29-.3,0-.17.14-.31.3-.29.9,0,1.79.01,2.68.01,1.95,0,3.86-.03,5.71-.07,1.95-.04,3.98-.09,6.04-.07.17,0,.3.13.3.3s-.13.29-.3.29h-.25c-1.98,0-3.91.04-5.79.07-1.85.03-3.77.07-5.72.07Z"/>
      </g>
    </g>
  </g>
</svg>