<?xml version="1.0" encoding="UTF-8"?>
<svg id="Layer_2" data-name="Layer 2" xmlns="http://www.w3.org/2000/svg" viewBox="0 0 389.58 70.92">
  <defs>
    <style>
      .cls-1 {
        fill: #753d22;
        fill-rule: evenodd;
      }
    </style>
  </defs>
  <g id="Layer_2-2" data-name="Layer 2">
    <g>
      <path class="cls-1" d="M312.86,39.74c.15-.05.32-.09.46-.17.03-.02.11-.09.14-.14-.03-.1-.11-.3-.18-.34-.26-.11-.54-.11-.75.12-.06.07-.1.18-.12.27,0,.07.17.21.24.22.07.01.14.03.21.04Z"/>
      <path class="cls-1" d="M316.44,34.56c-.44.5-.65,1-.43,1.57.02.05.13.1.19.11.41-.48.53-.97.45-1.49,0-.05-.13-.15-.17-.19-.02,0-.03,0-.04,0Z"/>
      <path class="cls-1" d="M323.78,27.46c-.79.12-1.29.53-1.73,1-.1.1-.14.31-.15.45-.02.41,0,.8.03,1.2,0,.1.08.25.1.35.02.06.17.18.23.18.1-.04.18-.11.25-.19.03-1.11.36-1.93,1.43-2.28.05-.01.12-.15.14-.2.01-.04.03-.17,0-.21-.08-.12-.2-.21-.31-.3Z"/>
      <path class="cls-1" d="M350.63,24.44c-.04-1.11-.11-2.07.08-3.03,0-.67,0-1.35-.01-2.04,0-.16-.08-.34-.17-.47-.03-.03-.19-.05-.24-.04-.2,1.54-.35,3.04-.47,4.54-.03.37.15.71.41.96.07.07.27.08.39.08Z"/>
      <path class="cls-1" d="M355.45,18.62c-.1.1-.25.24-.26.29-.05.31-.08.64-.02.95.21,1.29.26,2.6.32,3.89,0,.07.03.13.03.19.03.15.26.28.41.25.14-.02.32-.27.31-.41-.07-.88-.14-1.77-.2-2.65-.04-.61-.05-1.22-.1-1.84,0-.15-.05-.35-.15-.47-.05-.07-.21-.14-.33-.2Z"/>
      <path class="cls-1" d="M353.49,19.47c0-.48,0-.97,0-1.46-.01-.06-.17-.16-.22-.17-.07.03-.19.09-.23.15-.06.08-.08.22-.09.32-.21,1.34-.2,2.69-.05,4.04.05.47.14.92.24,1.38.03.04.18.1.22.12.05,0,.19-.09.2-.14,0-.47.01-.95,0-1.42-.04-.88-.1-1.76-.16-2.65v-.18s.08,0,.08,0Z"/>
      <path class="cls-1" d="M347.22,21.51c-.02.34-.06.67-.06,1.01.04,1.09.08,2.18.15,3.28,0,.23.14.48.25.68.33-.2.37-.38.35-.56-.23-1.51-.19-3.04-.01-4.55.16-1.35-.01-2.7-.22-4.04-.01-.1-.1-.24-.14-.34-.02-.06-.17-.16-.22-.14-.06.05-.17.14-.19.22-.03.09-.03.21,0,.31.27,1.38.19,2.76.1,4.14Z"/>
      <path class="cls-1" d="M343.71,43.14c-.1,0-.1-.18-.1-.18,0-1.44,0-2.88,0-4.33,0-.32-.11-.66-.17-.97-.01-.06-.19-.18-.21-.2-.09.05-.2.12-.26.2-.2.24-.21.55-.17.84.32,2.2.27,4.41.27,6.62,0,.68.05,1.37.12,2.04.01.14.12.31.19.45.25-.22.32-.48.33-.74.01-1.25,0-2.5,0-3.74Z"/>
      <path class="cls-1" d="M339.85,42.9c-.26,2.5-.14,4.78.18,7.26.04.32.14.63.25.94.04.03.19.08.23.1.06.02.17-.13.17-.2,0-.09.04-.27.02-.35-.29-1.15-.23-2.32-.33-3.5-.08-.89-.07-1.79-.05-2.68.04-.97.12-1.93.23-2.88.14-1.22-.05-2.42-.21-3.62-.17-.06-.26,0-.29.05-.25.38-.19.86-.18,1.3.02,1.09.15,2.54-.02,3.59Z"/>
      <path class="cls-1" d="M337.44,46.11c0-.97,0-1.95,0-2.91,0-.25-.07-.5-.13-.75-.07,0-.16.01-.18.03-.1.11-.22.29-.24.43-.22,1.96-.42,3.94-.32,5.92.08,1.66,0,3.33-.39,4.95-.02.08-.04.22,0,.29.06.16.16.32.29.45.03.02.14.03.18.02.05-.01.15-.08.16-.12.12-.95.14-1.91.32-2.85.23-1.2.23-2.43.21-3.65-.02-.54,0-1.1,0-1.64,0-.17.12-.17.12-.17Z"/>
      <path class="cls-1" d="M81.31,48.16c-.04-.14-.06-.28-.14-.41-.02-.04-.12-.08-.16-.08s-.16.04-.18.07c-.27.52-.3,1.09-.2,1.65.01.06.18.15.27.2.05-.03.12-.1.15-.13.28-.34.24-.87.27-1.3Z"/>
      <path class="cls-1" d="M67.49,31.01c.15,1.49.3,2.99.45,4.5.01.1.08.24.12.34.03.05.22.15.27.15.04-.02.16-.09.18-.11.05-.31.1-.63.08-.96-.15-2.04-.32-4.07-.5-6.11,0-.11-.07-.24-.1-.34-.02-.08-.07-.07-.14-.06-.07,0-.12,0-.15.07-.05.17-.14.36-.15.54-.01.61,0,1.22,0,1.82,0,.16-.04.17-.04.17Z"/>
      <path class="cls-1" d="M57.53,55.49c.11,1.53.1,2.9.12,4.27,0,.32.08.64.17.95.03.11.15.18.27.16.12-.03.27-.16.33-.27.07-.14.04-.37.04-.51-.04-.48-.12-.95-.13-1.43-.06-2.45-.09-4.9-.14-7.36,0-.13-.04-.26-.06-.39,0-.05-.16-.18-.2-.19-.04.02-.17.08-.2.12-.09.3-.18.63-.18.95-.02,1.23,0,2.47,0,3.7Z"/>
      <path class="cls-1" d="M81.89,29.75c.67-.07,1.34-.13,2.01-.24.04-.03.09-.16.12-.19,0-.06-.1-.2-.15-.21-.25-.02-.53-.07-.79-.05-2.04.17-4.02-.27-5.91-1.03-.83-.33-1.66-.62-2.5-.9-.17-.06-.37-.06-.54-.06-.16,0-.24.12-.29.25-.07.15.04.25.13.36.07.07.16.15.25.19,1.16.41,2.32.85,3.49,1.21,1.36.42,2.74.79,4.17.68Z"/>
      <path class="cls-1" d="M234.46,53.64c0,.14.01.29.04.42.09.26.31.48.41.43.1-.07.24-.2.28-.32.09-.35,0-.7-.17-1.02-.04-.07-.19-.16-.27-.12-.05.03-.18.1-.19.14-.07.14-.07.31-.1.46Z"/>
      <path class="cls-1" d="M292.51,20.81c-.06-.35-.11-.71-.18-1.05-.11-.02-.27.04-.29.06-.28.67-.23,1.36-.03,2.04.03.05.21.1.3.12.14-.45.16-.82.19-1.18Z"/>
      <path class="cls-1" d="M299.43,33.99c-.05-.3-.08-.6-.17-.9-.02-.04-.13-.09-.17-.09-.38.64-.47,1.27-.3,1.92.01.04.16.13.2.16.06.02.22-.06.24-.12.07-.32.14-.65.21-.97Z"/>
      <path class="cls-1" d="M101.69,32.19c0-.11.02-.22,0-.33-.1-.66-.17-1.33-.32-1.99-.01-.07-.18-.19-.25-.19-.09,0-.24.18-.29.26-.07.13-.07.34-.05.48.07.61.17,1.2.27,1.8.01.09.05.2.11.27.05.05.15.1.21.1s.15-.06.19-.1c.05-.05.09-.21.12-.3Z"/>
      <path class="cls-1" d="M293.89,40.6c.02.19.04.39.05.6.05,0,.2.03.23.02.11-.09.26-.24.29-.37.15-.66.26-1.33.35-1.99.03-.18,0-.38-.02-.57,0-.06-.17-.2-.23-.19-.05,0-.21.04-.24.09-.1.12-.21.29-.23.45-.09.66-.14,1.33-.2,1.97Z"/>
      <path class="cls-1" d="M329.99,4.26c-.34-.71-.67-1.45-.8-2.24-.13-.75-.65-1.22-1.31-1.55-.74-.36-1.5-.52-2.31-.47-2.61.13-5.12.79-7.52,1.82-3.28,1.42-6.54,2.88-9.71,4.52-.83.43-1.66.75-2.58.86-1.08.14-2.13.45-3.14.84-1.49.57-3.02,1.01-4.62,1.2-1.22.15-2.43.4-3.63.67-1.75.39-3.52.69-5.29.95-.89.13-1.77.3-2.67.36-1.22.09-2.43.25-3.58.71-.26.1-.55.12-.81.2-1.01.3-2.05.3-3.07.5-2.02.42-4.08.65-6.13.87-2.61.28-5.22.33-7.83.48-1.36.08-2.73.11-4.08.33-1.23.19-2.47.31-3.71.36-2.12.06-4.26.18-6.36.44-2.19.28-4.38.62-6.58.72-.41.02-.82.1-1.22.14-.75.08-1.51.21-2.27.23-2.41.05-4.79.4-7.19.6-1.51.12-3.02.23-4.54.27-.95.03-1.92-.02-2.86.12-2.54.42-5.09.32-7.65.29-.83,0-1.66-.04-2.49-.15-2.32-.32-4.65-.44-6.97-.39-1.74.04-3.48-.06-5.18-.39-1.76-.33-3.53-.31-5.31-.24-2.47.1-4.94.18-7.42.27-1.03.04-2.06.11-3.09.14-.83.03-1.66.11-2.49.05-1.37-.11-2.73-.11-4.1-.03-1.73.11-3.46.19-5.18-.05-.67-.1-1.36-.04-2.04-.04-1.51-.02-3.03-.02-4.54-.05-.5,0-.99,0-1.48-.09-1.62-.33-3.26-.29-4.9-.29-1.38,0-2.76-.05-4.14-.27-1.89-.3-3.77-.72-5.7-.67-.3,0-.56-.1-.85-.16-1.33-.29-2.7-.45-4.06-.46-.56,0-1.12-.04-1.67-.14-1.82-.35-3.66-.62-5.48-.95-2.3-.42-4.59-.93-6.87-1.46-1.8-.41-3.62-.68-5.47-.84-.49-.04-.98-.02-1.46-.13-2-.46-4.02-.8-6.08-.82-.63,0-1.23-.18-1.85-.25-1.15-.14-2.3-.45-3.46-.42-1.53.04-3.01-.35-4.52-.55-1.37-.17-2.71-.53-4.06-.81-.89-.19-1.79-.4-2.59-.84-1.08-.6-2.26-.91-3.45-1.16-1.56-.34-3.11-.69-4.59-1.3-.43-.18-.9-.25-1.37-.31-1.17-.18-2.3-.48-3.42-.9-1.02-.38-2.05-.7-3.14-.83-1.03-.13-2.04-.4-3.03-.7-2.88-.88-5.88-1.34-8.9-1.29-.79.01-1.55.08-2.31-.2-.14-.05-.34-.07-.47-.02-.76.28-1.53.25-2.31.26-1.39,0-2.62.49-3.77,1.24-.5.32-.95.73-1.26,1.23-.11.17-.26.45-.25.65.05.8.17,1.59.26,2.4.47.68.43,1.42.53,2.21.17,1.23.4,2.45.58,3.66.1.62.22,1.24.2,1.87-.03,1.09-.03,2.19.09,3.27.05.46-.26.76-.65.96-.44.22-.88.21-1.33.02-1.96-.83-4.07-1.13-6.16-1.43-.96-.14-1.93-.24-2.87-.53-1.31-.39-2.65-.49-4.01-.38-2.35.19-4.69.29-7.04.09-.96-.09-1.91.02-2.86.05-.83.04-1.65.08-2.47.12-.75.04-1.51.06-2.26.14-1.58.16-3.18.23-4.76.2-.54-.02-1.09-.02-1.62.05-1.71.23-3.44.33-5.17.32-1.92,0-3.81.16-5.63.81-.33.13-.68.22-1.03.28-1.29.19-2.47.7-3.63,1.28-1.35.68-2.64,1.47-3.94,2.23-.47.28-.92.59-1.38.89-.45.3-.62.73-.63,1.27,0,.43.41.9.85.78.8-.21,1.58-.47,2.38-.67.48-.12.98-.22,1.47-.22,1.82.01,3.61.16,5.34.8,1.17.43,2.38.75,3.44,1.44.4.25.83.45,1.26.61.76.26,1.35.73,1.97,1.21.63.48,1.03,1.06,1.02,1.87,0,.17.09.38.12.54.03.05.19.11.23.09.14-.12.29-.25.41-.39.32-.38.74-.43,1.15-.15.18.11.36.22.52.36.73.61,1.5,1.17,2.37,1.57.32.15.6.36.89.56,1.91,1.35,4.04,2.28,6.24,3.01.45.15.91.31,1.37.45,1.71.51,3.43,1.01,5.15,1.51.41.12.84.17,1.21.39.64.39,1.37.59,2.06.85.58.22,1.14.5,1.7.77.56.27,1.11.56,1.65.85.32.17.63.33.91.55,1.08.86,2.14,1.74,3.2,2.62.22.18.41.41.57.64.1.14.07.33.04.49-.04.24-.17.24-.38.22-1.11-.11-2.21-.26-3.26-.67-1.02-.4-2.09-.63-3.16-.83-.81-.15-1.65-.28-2.43-.56-1.16-.42-2.36-.52-3.58-.4-1.44.12-2.87.31-4.32.4-1.58.11-3.08.47-4.5,1.16-1.48.71-3.04,1.03-4.68,1-1.23-.02-2.47-.05-3.7.02-2.47.13-4.93.39-7.38.7-1.97.25-3.91.64-5.8,1.26-.73.24-1.47.4-2.21.57-.61.14-1.22.26-1.84.33-1.1.13-2.19.25-3.29.33-1.36.09-2.68.12-3.93-.51-.27-.13-.62-.21-.92-.22-.84-.02-1.68-.12-2.48-.35-.25-.07-.52.2-.6.41-.08.18-.09.41.08.56.92.77,1.53,1.78,2.29,2.67.76.89,1.67,1.53,2.75,1.96.38.16.77.29,1.15.43.78.29,1.58.52,2.33.87.8.37,1.65.53,2.52.63,1.6.18,3.18.39,4.63,1.16,1.02.56,2.13.76,3.29.81,1.18.04,2.35.13,3.51.36.72.14,1.49.08,2.23.11,1.1.05,2.2.08,3.29.16.83.07,1.64.23,2.46.3,1.58.12,3.16.23,4.73.29.86.03,1.67.2,2.47.51.77.3,1.56.52,2.34.77.39.13.78.26,1.18.4,1.74.64,3.48,1.29,5.22,1.95.45.18.89.39,1.33.59,1.94.88,3.81,1.91,5.8,2.64,1.1.4,2.2.8,3.29,1.22.64.24,1.27.53,1.9.81,1.23.57,2.45,1.15,3.83,1.25.76.06,1.51.27,2.25.44,1.88.42,3.75.86,5.63,1.25,2.36.48,4.72.94,7.08,1.38.46.08.94.08,1.4.06,1.84-.06,3.7-.06,5.52-.37,1.68-.29,3.37-.58,5.01-1.06.8-.23,1.59-.46,2.4-.64,1.46-.34,2.85-.92,4.17-1.64.67-.37,1-.93.88-1.71-.27-1.62-.56-3.24-.95-4.84-.43-1.73-.68-3.51-1.02-5.27-.04-.22,0-.43,0-.65,0-.38.38-.75.77-.64.21.06.42.1.62.2,1.15.61,2.38.92,3.68.94.93.01,1.82.25,2.66.62.81.35,1.66.57,2.53.74,1.21.23,2.43.48,3.63.77.6.14,1.2.27,1.81.38,1.42.26,2.87.39,4.27.81.85.25,1.74.34,2.61.44,1.1.12,2.21.26,3.28.55,1.39.37,2.81.54,4.25.65,1.99.16,3.99.3,5.96.65.54.1,1.09.1,1.62.14.36.03.71-.01,1.06.08,1.4.35,2.85.4,4.27.57,1.02.12,2.04.19,3.07.21.77.02,1.53.1,2.28.26,1.47.31,2.95.56,4.45.66,1.94.12,3.88.2,5.77.63.32.06.65.1.97.05,1.18-.14,2.34.04,3.52.07.83.02,1.63.25,2.45.29,1.86.1,3.71.25,5.55.43,2.39.23,4.77.6,7.18.54.14,0,.3.01.45.05,2.08.43,4.22.37,6.34.38,1.65,0,3.31.07,4.96.19.67.04,1.36.09,2.03.03,2.47-.26,4.95-.28,7.43-.37.67-.02,1.35-.09,2.01-.21,1.71-.32,3.42-.54,5.16-.56.47,0,.95-.13,1.42-.16,2.23-.19,4.43-.43,6.62.21.84.24,1.73.31,2.61.36,1.58.08,3.16.25,4.73.34.54.03,1.07-.02,1.6-.11,1.03-.18,2.07-.26,3.11-.23,1.29.04,2.59-.02,3.86-.28.76-.14,1.51-.22,2.27-.29,3.22-.32,6.44-.65,9.67-.92,3.11-.26,6.23-.27,9.29.4,1.54.33,3.1.36,4.67.29.61-.03,1.19-.11,1.77-.29,1-.31,2.04-.52,3.09-.53.54-.01,1.07-.15,1.6-.24,1.21-.22,2.39-.57,3.53-1.01.6-.23,1.22-.47,1.88-.41,1.02.1,2.01-.15,2.99-.41,2.42-.62,4.92-.87,7.41-.78.35,0,.69.03,1.02.03,1.5,0,3-.09,4.47-.44,1.59-.38,3.18-.8,4.7-1.42.96-.39,1.9-.79,2.88-1.13,1.83-.63,3.65-1.24,5.5-1.81,1.37-.42,2.69-.98,3.96-1.64.5-.25,1.01-.45,1.53-.66.89-.38,1.77-.75,2.67-1.11.26-.11.52-.27.81-.3.22-.02.63.22.65.46.05.48.03.97-.01,1.46-.1,1.23-.27,2.46-.34,3.7-.06,1.04-.25,2.06-.46,3.07-.06.33-.21.66-.24.99-.04.47-.03.93,0,1.4.03.31,1.49,2.86,1.74,3.08.36.31.74.62,1.11.91.29.23.63.45,1.01.44.86-.03,1.67.23,2.47.51.71.24,1.45.3,2.19.33,1.84.07,3.69.21,5.52-.04.49-.06.98-.04,1.47-.01,1.65.09,3.26-.46,4.91-.49.31,0,.64-.15.9-.28.69-.34,1.43-.52,2.17-.74,1.51-.45,2.99-.99,4.48-1.51.25-.09.49-.23.72-.36,1.89-.98,3.77-1.97,5.67-2.95.49-.26.96-.57,1.47-.77.89-.35,1.73-.82,2.59-1.24,1.59-.79,3.16-1.63,4.66-2.59.12-.07.25-.13.37-.2,1.53-.85,3.21-1.01,4.92-.75.94.14,1.88.28,2.83.26.49-.01,1.01,0,1.49.15.78.25,1.58.27,2.4.27.49,0,.98,0,1.47.08.5.07,1.07.34,1.55.31.62-.04,1.24,0,1.86-.03.76-.02,1.51-.16,2.27-.14,2.06.05,4.08-.18,6.05-.78,1.07-.01,1.93-.75,3.02-.71,1.4-.38,2.85-.42,4.28-.6,2.43-.31,4.84,0,7.23.37.96.14,1.89.41,2.83.61.12.03.26.05.4.07.41.05.89-.43.85-.85-.06-.74-.36-1.37-.92-1.86-.57-.51-1.21-.95-1.69-1.56-.63-.81-1.42-1.41-2.31-1.92-.42-.24-.85-.47-1.25-.76-.71-.54-1.52-.8-2.4-.93-1.9-.27-3.74-.9-5.67-.96-.22,0-.43-.08-.64-.13-1.97-.45-3.81-1.25-5.6-2.18-.91-.48-1.83-.94-2.78-1.33-1.4-.59-2.78-1.24-4.08-2.04-1.11-.68-2.25-1.29-3.46-1.75-.72-.27-1.35-.71-2.03-1.07-1.43-.79-2.89-1.53-4.53-1.75-.22-.03-.1.03-.28-.12-.15-.12-.13-.1-.12-.29,0-.19-.07-.16.14-.32,1.16-.85,2.36-1.65,3.48-2.55,1.82-1.46,3.52-3.02,4.69-5.06,1.02-1.77,2.38-3.29,4.1-4.4.63-.41,1.26-.82,1.9-1.24.89-.58,1.86-.99,2.9-1.21,1.95-.43,3.85-1.09,5.85-1.28.68-.06,1.34-.22,2.01-.36.93-.19,1.83-.46,2.66-.93,1.21-.67,2.46-1.25,3.68-1.88.24-.12.46-.27.68-.42,1.19-.83,2.34-1.71,3.55-2.48,1.41-.91,2.3-2.26,3.15-3.67.41-.69.6-1.48.65-2.28.02-.31-.16-.53-.41-.68-.2-.13-.4-.12-.61-.02-.43.23-.82.5-1.25.72-.31.17-.63.31-.97.42-2.57.81-5.24,1.21-7.9,1.61-1.3.2-2.61.26-3.9.4-1.17.12-2.32.32-3.49.39-1.64.1-3.29.11-4.93.34-.29.04-.58.08-.87.03-1.97-.26-3.95-.29-5.93-.16-1.24.08-2.48-.09-3.72-.1-2.61,0-5.22-.14-7.8.27-1.62.26-3.22.61-4.77,1.16-1.1.4-2.18.84-3.27,1.25-1.16.44-2.29.98-3.5,1.29-2.33.61-4.55,1.49-6.74,2.47-.45.21-.76.48-1.29.34-.5-.53-.49-1.11-.51-1.71-.08-1.86.17-3.72.44-5.57.34-2.3.78-4.51,1.84-6.6h0ZM280.55,57.66c.35-.52.89-.44,1.43-.6.22-.06.25,0,.36.18.11.19.07.23-.08.37-.45.4-.96.41-1.51.41-.2.03-.62,0-.62,0l.31-.28.11-.08ZM322.59,20.88c.06-.16.21-.23.39-.13.24.08.13.37-.03.45-.06.07-.44.04-.44.04l.08-.36ZM147.07,61.27c-.29.02-.59.03-.89.03-.32-.01-.52-.26-.27-.51.16-.17.11-.11.3-.11.35-.02.68.03.98.24.17-.04.27-.07.38-.07,1.02.06,2.05.13,3.07.21.15.01.17.32.17.32-1.24.22-2.22.31-3.31.1-.13-.02-.21-.1-.31-.17l-.13-.04ZM289.39,13.78c-.21,0-.66,0-.66,0l.28-.18-.17-.17h.41c.73-.45,1.52-.4,2.3-.6.19-.05.32.25.38.4.04.13-.07.31-.18.37-.14.07-.29.14-.45.15-.64.02-1.28.02-1.91.04h0ZM50.32,61.23c-.19-.09-.37-.17-.56-.26-.07-.01-.14-.02-.2-.03-.19-.12-.25-.14-.32-.16l-.19-.06c.03-.07-.28-.21-.28-.21.06,0-.46-.2-.46-.2.03.14-.23-.09-.23-.09-.06-.02-.11-.03-.15-.1-.42-.05-.75-.12-.88-.56l-.06-.2.2-.03c.4-.06.73.03.92.37.19.23.89.84.89.84.14,0-.12-.24-.12-.24l.35.11.09-.17.16.15s.09.09.14.14c.54.12.8.16.96.42.65-.01,1.21.13,1.77.35,1.52.59,3.05,1.17,4.6,1.68.77.26,1.58.35,2.37.54.28.06.55.18.8.3.32.17.44.48.45.83.01.38-.35.77-.75.62-2.06-.74-4.12-1.43-6.15-2.22-1.13-.44-2.23-.94-3.16-1.71l-.19-.12ZM74.06,17.96c.14,0,.19.17.19.17l.16.15c-.12.01,0,.54,0,.54l-.48-.49c-.21.01-.37-.02-.48-.25-.1-.22.24-.38.39-.28.08.05.15.11.21.17h0ZM6.04,50.29s1.09.36,1.09.36l-1.14-.02c-.17,0-.36,0-.36,0-.05-.2-.11-.26-.17-.32-.16-.17-.12-.27.03-.42.23-.22.52-.13.56.19,0,.08,0,.14-.01.22h0ZM44.15,58.41c-.15-.04-.24-.16-.21-.34.09-.21.32-.21.43-.07.13.15.67.58.67.58l-.67-.12-.21-.05ZM386.05,12.08l-.14.19-.18-.12c-.09-.05.07-.37.07-.37.08-.1.16-.19.28-.15.27.21.19.38-.03.45h0ZM106.07,35.03c-.06.18-.14.38-.13.55.03,1.03.03,2.06.14,3.08.14,1.29.38,2.58.57,3.87.05.35.08.7.09,1.05.03,2.06.36,4.09.75,6.11.11.54.17,1.1.2,1.66.08,1.51-.11,1.84-1.66,1.49-.32-.08-.65-.17-.98-.18-1.63-.06-1.67-.43-1.79-1.94-.03-.42-.11-.84-.08-1.26.09-1.57-.14-3.13-.41-4.68-.16-.95-.26-1.9-.43-2.85-.07-.39-.22-.75-.37-1.11-.03-.04-.18-.06-.23-.08-.06,0-.22.12-.24.17,0,.39-.05.81.01,1.2.08.61.2,1.21.35,1.8.54,2.23.55,4.53.65,6.8,0,.16-.04.29-.07.44-.05.36-.46.66-.81.59-.8-.19-1.53-.23-2.25-.68-.46-1.34-.7-2.62-.79-3.93-.12-1.99-.37-3.97-.56-5.95-.04-.48-.08-.96-.12-1.44-.1-1.09-.2-2.19-.31-3.29-.03-.35-.1-.69-.12-1.04-.11-3.09-.65-6.15-.83-9.24,0-.05,0-.12,0-.18-.53-2.59-.4-5.23-.4-7.86,0-1.37-.09-2.74-.21-4.1-.13-1.38-.14-2.76-.19-4.13,0-.16.08-.35.19-.48.11-.14.3-.31.49-.28.6.08,1.15.3,1.56.75.15.17.27.39.32.62.07.28.05.56.07.85.03.54,0,1.1.1,1.62.48,2.71.47,5.49,1.07,8.18.13.61.09,1.24.17,1.86.08.61.21,1.21.34,1.81.02.14.16.19.29.21.18.02.28-.21.28-.36-.01-.34-.02-.68-.06-1.01-.25-1.98-.52-3.96-.79-5.94-.19-1.36-.39-2.72-.59-4.08-.14-.9-.19-1.81-.06-2.72.05-.3.4-.67.71-.69.86-.05,1.69.13,2.49.43.33.13.56.39.62.73.11.68.21,1.37.29,2.05.14,1.23.28,2.46.4,3.7.07.69.11,1.38.14,2.07.05,1.37.12,2.73.37,4.08.02.15.12.3.21.42.3-.17.32-.41.29-.62-.2-1.78-.27-3.57-.32-5.37-.01-.82-.19-1.63-.25-2.45-.08-1.17-.12-2.33-.16-3.5,0-.2.15-.3.24-.44.29-.1.42-.15.58-.12,3,.56,2.75.15,3.19,3.27.03.18.03.39.09.57.19.09.31.04.34,0,.08-.14.15-.33.16-.48.01-.48-.02-.96-.03-1.44,0-.36.3-.68.66-.73.65-.08,1.26.05,1.89.19.51.11.78.43.99.88.21.43.29.32.6,0,.22-.24.43-.47.79-.48.78-.02,1.55.06,2.29.36.41.17.74.7,1.15.67.41-.03.79-.21,1.2-.26.29-.04.59.04.87.1.44.08.73.37.85.79.07.27.12.52.2.78.03.04.18.05.22.03.31-.42.41-.83.73-1.02.5-.31,1.03-.08,1.53.09.21.06.41.13.6.23.68.31,1.38.46,2.12.39.36-.04.7.04,1.06.08.33.04.65.35.71.67.03.21.06.42.08.62.1,1.09.2,2.19.31,3.29,0,.05.04.24.06.27.15-.06.16-.21.18-.34.04-.4.08-.81.08-1.21,0-.68-.04-1.38-.05-2.06,0-.41.2-.9.65-.96.64-.09,1.1.37,1.16.98.03.34.05.69.07,1.04.12,1.92.23,3.84.35,5.77.01.2.07.41.11.62.11-.07.22-.13.25-.18.08-.13.11-.34.1-.49-.02-.75-.04-1.5-.12-2.25-.16-1.44-.16-2.89-.12-4.35.01-.36.34-.7.7-.71.28,0,.56,0,.85.05.34.05.65.34.7.69.21,1.43.4,2.87.45,4.32.06,1.86.21,3.71.28,5.56.05,1.51.04,3.03.06,4.55,0,.33.06.64.1.97.07-.02.14-.05.19-.08.06-.05.1-.16.11-.25.05-.82.13-1.64.1-2.46-.08-2.75-.21-5.5-.34-8.24-.05-.89-.18-1.78-.25-2.66-.03-.42-.03-.84-.03-1.25.02-.78.64-1.12,1.36-.99.63.12,1,.41,1.1,1.06.08.54.11,1.1.17,1.65.15,1.37.3,2.72.47,4.09.19.06.38,0,.41-.04.07-.29.12-.63.05-.92-.35-1.37-.29-2.75-.33-4.14,0-.23.06-.46.15-.67.07-.15.25-.31.41-.34.68-.16,1.34,0,1.89.42.19.14.32.38.38.6.14.46.21.94.34,1.4,0,.05.17.17.21.2.04.03.2,0,.22-.01.03-.47.05-.94.09-1.42.02-.35.33-.68.69-.7.35-.02.71-.07,1.07-.02,1.02.14,2.06.25,3.07.51.72.18,1.44.3,2.19.32.63,0,1.25.09,1.87.17,1.21.15,2.43.26,3.65.19,2.15-.14,4.31.02,6.4.56.59.15,1.18.21,1.79.21,1.66-.01,3.33.05,4.96.38.37.08.79.14,1.17.09,1.46-.23,2.89.05,4.35.09.42.02.91.11,1.27.35.55.38.95.3,1.44-.13.25-.23.63-.26.95-.16.15.04.33.15.42.3.29.49.12.96.23,1.46.03.15.12.31.2.45.17-.07.23-.16.25-.25.08-.4.12-.81.21-1.21.12-.48.61-.79,1.08-.84.82-.08,1.47.15,1.93.88.09.14.29.12.36-.02.1-.19.12-.39.23-.59.26-.42.66-.65,1.15-.7.55-.06.99.17,1.12.73.08.33.13.66.23.98.02.04.12.11.17.11.3-.43.42-.81.55-1.2.12-.34.5-.59.86-.48,1.12.32,2.28.31,3.43.3.56-.01,1.14-.04,1.69.11,1.6.43,3.26.18,4.89.26.24.02.52.02.75-.06,1.09-.38,2.2-.27,3.32-.27,2.06-.02,4.11-.09,6.17-.2,1.19-.06,2.36.03,3.53.21.59.09.82.44.85,1.01.03.55.02,1.1.08,1.64.03.22.19.48.31.69.24-.28.26-.59.27-.89.01-.62,0-1.24,0-1.85,0-.39.43-.61.78-.62.3,0,.57.15.65.45.12.47.23.95.26,1.44.06,1.17.06,2.35.09,3.52.03,1.86.07,3.69.12,5.55.15.05.24-.03.27-.08.05-.08.08-.22.08-.3.05-.61.11-1.22.1-1.84-.01-2.47-.05-4.95-.08-7.43,0-.29.08-.58.17-.85.05-.17.26-.3.42-.35.54-.14,1.07-.04,1.52.28.19.13.35.39.38.62.05.48.05.97.05,1.46,0,1.17-.03,2.34-.03,3.51,0,.25.09.52.14.76.01.05.16.15.2.16.03-.04.17-.14.19-.17.03-.4.06-.81.03-1.21-.08-1.38.13-2.76.22-4.14.01-.23.11-.4.18-.61,1.07-.28,1.15-.2,2.03.17.18.66.23,1.18.33,1.69.4-.35.47-.75.56-1.14.1-.42.45-.74.89-.75,1.59-.02,3.17-.04,4.75-.03,1.17,0,2.34-.09,3.51-.08,1.15,0,2.31-.31,3.44-.46,1.28-.17,2.53-.25,3.81-.13.28.28.43.48.58.69.05.07.28.37.36.37.12-.11.21-.29.29-.44.1-.17.17-.35.28-.53.07-.12.23-.12.35-.1.13.02.32.04.34.21.05.41.14.82.14,1.24,0,1.64.14,3.28.49,4.88.04.21.2.44.31.64.05,0,.12-.05.18-.08,0-.38-.02-.76-.08-1.13-.31-1.71-.33-3.45-.26-5.18.04-.64.56-1.04,1.19-.95.28.04.56.23.59.53.05.62.04,1.24.08,1.86.02.33.08.63.16.95.03.04.17.08.21.09.13-.3.2-.56.22-.82.03-.55.02-1.1.06-1.65.03-.48.46-.98.94-1.01.83-.06,1.65-.11,2.48-.12.83,0,1.66.04,2.48.04,1.09,0,2.18-.05,3.26-.21,1.23-.2,2.47-.13,3.7-.3,1.24-.17,2.43-.53,3.68-.59.42-.03.83-.12,1.25-.12,1.57,0,3.11-.32,4.64-.65,1.5-.32,3.03-.62,4.56-.39.46.07.9-.1,1.35-.2.78-.18,1.46-.54,2.27-.25.93-.14,1.87-.25,2.79-.41,1.3-.22,2.59-.47,3.91-.47.88,0,1.76-.23,2.63-.36,1.15-.16,1.27,0,2.09.72.3-.19.59-.38.92-.53,1.1-.52,1.56-.26,1.82.91.04.18.06.39.14.55.03.03.19.08.23.1.14-.25.19-.44.23-.63.03-.21.03-.41.06-.62.05-.32.38-.67.73-.68.56,0,1.12,0,1.68.01.35.64.52,1.13.74,1.65.03.02.14.02.19.02.08,0,.18-.1.24-.14.03-.18.03-.23.04-.29.06-.48-.05-.9.37-1.26.36-.31.78-.39,1.24-.46.34-.05.67-.13,1.01-.19.45-.07.85.27.94.7.07.33.09.66.18.99.03.03.18.1.22.12.15-.15.22-.27.25-.38.03-.12.03-.25.04-.38.05-.75.53-1.13,1.25-1.15.14,0,.28,0,.42,0,.26,0,.61.26.61.53,0,.47-.01.96,0,1.44,0,.32.02.65.12.96.02.07.2.16.3.2.04-.03.11-.1.12-.14.11-.22.22-.47.26-.71.06-.4.08-.81.08-1.2.02-1.93.3-1.98,2.17-2.35.08-.02.15,0,.23-.01.43-.02.88.22.95.67.08.48.16.96.18,1.46.03,1.04.08,2.07.01,3.11-.17,2.68-.4,5.35-.6,8.03-.08.96-.15,1.91-.2,2.87-.01.15.1.36.16.5.08,0,.17-.02.2-.04.1-.12.21-.29.22-.44.16-1.5.29-3.01.42-4.51.03-.41.02-.83.08-1.25.41-2.99.41-6.02.33-9.04v-.42c.02-1.12.54-1.37,1.57-1.6.23-.05.57.26.64.47.1.34.1.7.12,1.06.08,1.44.13,2.88.25,4.32.12,1.38.1,2.77.03,4.14-.11,2.13-.18,4.27-.34,6.4-.2,2.61-.28,5.23-.65,7.82-.38,2.72-.67,5.46-1,8.19-.09.75-.21,1.5-.34,2.25-.09.57-.73.89-1.26.89-.18,0-.42-.17-.47-.35-.07-.28-.14-.58-.09-.87.32-2.11.41-4.23.38-6.36,0-.56.13-1.1.19-1.64.01-.19,0-.39-.02-.58,0-.13-.31-.34-.43-.36-.12-.01-.31.24-.31.37-.02.96-.06,1.92-.04,2.88.02,1.45-.06,2.91-.28,4.35-.11.68-.12,1.37-.19,2.04-.04.42-.23.76-.6.99-.62.38-1.27.64-1.99.73-.35.04-.79-.29-.77-.65.07-.89.15-1.78.21-2.67.02-.41.02-.81.01-1.22,0-.08-.14-.18-.22-.17-.14.02-.24.09-.25.23-.12.88-.21,1.77-.31,2.65-.05.41-.12.82-.16,1.23-.05.52-.31.88-.79,1.08-.57.24-1.12.53-1.71.73-.34.12-.69.14-1.05.17-.4.04-.72-.33-.67-.72.05-.37.11-.76-.09-1.09-.04-.06-.12-.17-.19-.19-.05-.01-.16.01-.2.05-.06.05-.12.15-.13.23-.05.33-.1.66-.1,1-.02.69-.34,1.17-1,1.4-1.3.45-2.6.9-3.89,1.35-.07.02-.14.03-.19.05-2.42,1.03-4.99,1.59-7.51,2.28-1.58.43-3.21.74-4.76,1.31-.59.21-1.24.26-1.86.33-1.09.12-2.11.43-3.1.9-.72.34-1.48.49-2.28.47-.88-.02-1.75.08-2.58.34-.61.19-1.23.24-1.85.34-1.36.22-2.72.41-4.08.64-1.57.27-3.16.3-4.74.38-.89.05-1.77.09-2.63.3-.75.19-.99-.15-1.23-.82-.11-.31-.21-.62-.37-.92-.04-.03-.2-.06-.24-.08-.12.23-.15.43-.17.63-.03.21-.02.43-.08.64-.04.16-.16.38-.33.44-.63.24-1.29.32-1.92.03-.21-.09-.38-.44-.37-.67.02-.36.16-.68.22-1.03.03-.18.05-.37.01-.55-.16-.14-.27-.11-.31-.06-.12.13-.21.29-.27.45-.12.32-.2.65-.3.97-.35,1.21-.91,1.34-2.05.93-.14-.4-.13-.68-.19-.94-.02-.03-.11-.09-.15-.1-.05-.01-.17.01-.2.05-.12.13-.23.29-.29.46-.21.51-.63.68-1.16.67-.59,0-.87-.19-1.09-.75-.08-.23-.15-.47-.26-.68-.25.19-.37.41-.48.62-.18.33-.47.47-.84.46-.45,0-.79-.2-.96-.64-.11-.29-.23-.58-.35-.87-.27.18-.32.37-.36.56-.11.56-.24.91-.86.97-.63.05-1.25.14-1.87.13-1.65-.05-3.29.1-4.92.25-.49.04-.98.05-1.46.05-2.41,0-4.82,0-7.22.01-.45,0-.93.03-1.35.19-.76.29-1.51.33-2.3.25-.75-.08-1.51-.1-2.25-.12-.85-.04-1.68-.06-2.5-.31-.36-.11-.8-.07-1.18-.1-.38-.03-.53-.27-.75-.52-.22-.26-.36-.21-.56.03-.19.21-.34.45-.56.63-.14.12-.35.06-.52.04-.13-.02-.24-.19-.24-.32,0-.47,0-.95,0-1.43,0-.4-.04-.81-.08-1.22,0-.08-.14-.19-.21-.16-.12.03-.26.1-.29.25-.07.75-.12,1.5-.18,2.25-.04.41-.41.82-.82.85-3.09.27-6.13.88-9.23,1.01-1.24.05-2.49.03-3.73-.04-2.47-.13-4.93-.35-7.4-.45-1.93-.08-3.85,0-5.78-.03-1.38-.02-2.75-.06-4.12-.12-.54-.02-.92-.32-1.06-.84-.08-.32-.17-.64-.29-.95-.03-.04-.18-.09-.23-.11-.07-.02-.2.11-.21.19-.05.28-.08.54-.13.82-.07.34-.41.63-.75.62-.42,0-.83-.02-1.25-.06-.49-.05-.93-.47-.98-.95-.08-.69-.09-1.38-.16-2.05-.04-.4-.11-.78-.21-1.17-.03-.03-.18-.09-.22-.11-.1.3-.15.56-.16.82-.02.7,0,1.38,0,2.07,0,.83-.5,1.12-1.29,1-.15-.02-.32-.06-.45-.15-.13-.09-.26-.22-.33-.36-.08-.14-.12-.32-.12-.48.11-2.9-.29-5.8.14-8.68-.05-.23-.19-.37-.24-.38-.13.03-.33.1-.41.21-.1.12-.14.32-.14.47-.03.83-.05,1.65-.04,2.47.02,1.79.06,3.58.08,5.37,0,.29-.01.58-.08.86-.07.28-.28.46-.56.52-.46.1-.89,0-1.31-.2-.38-.19-.66-.5-.69-.93-.08-1.17-.13-2.33-.21-3.51-.04-.58-.02-1.19-.33-1.71-.04-.03-.18-.04-.24-.04-.04.05-.15.2-.15.26,0,.61.01,1.22.05,1.83.06,1.03.15,2.06.22,3.09.02.45-.4.85-.83.85-.42,0-.84,0-1.26-.05-1.08-.17-2.17-.39-3.25-.54-.71-.11-1.12-.46-1.25-1.16-.03-.12-.28-.13-.35-.03-.08.1-.14.21-.2.32-.21.39-.53.61-.97.61-.64.02-1.27-.03-1.9-.19-.7-.18-.87-.43-.96-1.14-.03-.34-.06-.68-.12-1.01-.02-.14-.09-.23-.24-.26-.16-.03-.29.24-.29.37-.01.05-.02.12-.02.18.08,1.75-.12,1.71-1.8,1.7-.29,0-.57-.03-.85-.1-.18-.05-.38-.27-.39-.45-.05-.62-.05-1.24-.1-1.85-.03-.32-.1-.65-.17-.97-.02-.05-.17-.17-.24-.17-.06.04-.3.2-.32.27-.05.47,0,.95-.02,1.43-.02.42-.05.84-.14,1.25-.05.22-.31.48-.54.53-.78.15-1.57.06-2.32-.25-.28-.11-.45-.45-.59-.7-.14-.25-.12-.69-.36-.84-.25.09-.32.28-.37.44-.24.78-.47,1.05-1.32.95-1.02-.12-2.04-.26-3.06-.42-.23-.04-.45-.13-.64-.27-.39-.27-.82-.19-1.25-.13-.56.06-1.14.05-1.69-.06-1.07-.2-2.16-.26-3.25-.26-1.53-.01-3.05-.16-4.54-.5-.6-.13-1.2-.28-1.8-.37-.55-.08-.99-.29-1.35-.71-.21-.24-.41-.22-.63,0-.16.16-.43.29-.65.3-.42,0-.84-.05-1.26-.12-.44-.08-.71-.39-.84-.81-.11-.39-.21-.79-.34-1.17-.02-.05-.17-.13-.21-.15-.06,0-.22.11-.24.16-.05.27-.08.54-.13.81-.06.3-.27.51-.58.52-.36,0-.71.02-1.06-.02-1.2-.13-1.57-.43-1.81-1.62-.3-1.48-.59-2.96-.89-4.44-.02-.09-.12-.21-.15-.3-.05.01-.21.05-.24.07-.08.13-.16.32-.15.47.03.47.09.94.19,1.4.17.81.39,1.6.56,2.41.06.28.03.57.03.85,0,.37-.38.71-.74.68-.35-.03-.71-.02-1.05-.12-1.49-.41-1.71-.43-1.88-2.01-.22-1.91-.44-3.83-.67-5.73-.03-.25-.08-.51-.18-.74-.03-.04-.13-.07-.17-.07-.21.23-.25.42-.24.59.08,1.1.17,2.2.26,3.29.09,1.03.19,2.06.28,3.09.04.64-.4.9-.98.87-.22,0-.43-.02-.64-.06-.35-.07-.65-.26-.75-.62-.15-.53-.34-1.06-.39-1.63-.23-2.53-.89-5.02-.98-7.57-.03-.96-.25-1.9-.37-2.85-.21-1.71-.53-3.42-.5-5.16,0-.14-.12-.33-.21-.44l-.16-.04ZM69.77,27.32c-.31.18-.47.38-.61.6-.1.16-.21.4-.09.58.49.76.56,1.57.66,2.44.06.46.19.91.34,1.35.04.12.21.13.32.12.12-.02.23-.09.23-.22-.04-.75-.12-1.5-.17-2.25-.03-.28.35-.66.63-.56.26.09.53.17.78.28.34.13.69.43,1.06.39.05,0,.18-.05.21-.1.01-.04-.03-.16-.05-.2-.04-.08-.17-.18-.24-.25-.14-.14-.28-.27-.43-.4-.07-.27-.12-.42-.1-.58.08-.68.16-1.36.25-2.04.05-.38.48-.64.84-.53.86.24,1.72.49,2.56.76,1.45.45,2.9.89,4.34,1.36.64.21,1.29.29,1.97.26.63-.02,1.24.01,1.86.03.36,0,.72.33.68.71-.05.41-.09.83-.17,1.22-.06.34-.38.66-.71.69-.21.02-.41.03-.62.03-1.37.05-2.74.03-4.07.36-.92.22-1.85.09-2.73-.23-.05,0-.15.07-.2.1-.03.06.03.23.08.27.39.36.86.52,1.39.53.67,0,1.36-.02,2.02-.14.96-.2,1.93-.23,2.91-.23,1.5,0,3.02.06,4.5-.19.31-.05.63.24.61.55-.02.22-.06.51-.23.67-.22.19-.53.38-.83.39-1.48.09-2.9.39-4.35-.1-.17.03-.44.13-.5.23-.06.1-.05.3,0,.41.11.27.34.45.63.45.82,0,1.64-.04,2.46-.09.68-.04,1.36-.12,2.04-.18.37-.03.73.29.74.66.01.63.19,1.21-.37,1.69-.46.39-.98.27-1.52.19-.09-.02-.24.03-.34.04-.04.03-.09.2-.08.24.09.1.24.31.36.34.32.1.66.11.99.14.81.09,1.04.81.65,1.48-.11.2-.35.38-.57.43-.77.19-1.53.36-2.33.15-.04,0-.24.09-.29.11-.06.03-.13.22-.1.28.04.07.11.23.17.28.4.3.58.71.57,1.21-.04,2.82-.05,5.64-.13,8.46-.04,1.16-.08,2.32.05,3.48.19,1.64.23,3.29.42,4.94.28,2.38.43,4.79.82,7.16.04.22.04.47-.03.69-.07.22-.23.49-.46.58-.69.24-1.41.24-2.11.11-.18-.03-.37-.22-.42-.39-.13-.47-.29-.95-.33-1.43-.19-2.12-.36-4.26-.5-6.38-.06-.9-.03-1.79-.07-2.7,0-.31-.02-.65-.12-.96-.01-.07-.2-.15-.3-.19-.04.04-.11.12-.13.15-.05.09-.09.2-.09.31-.04.4-.08.81-.06,1.21.09,1.65.21,3.3.3,4.94.09,1.65.16,3.3.23,4.95,0,.4-.4.82-.78.9-.71.14-1.42.17-2.14,0-.22-.29-.38-.45-.42-.68-.05-.36-.02-.7-.03-1.05-.02-1.1,0-2.19-.1-3.28-.06-.8.16-1.65-.09-2.4-.02-.04-.16-.07-.2-.1-.07.09-.28.29-.29.4-.08.6-.13,1.21-.13,1.82,0,1.45.04,2.89.06,4.33,0,.22-.02.45-.09.66-.05.17-.23.33-.4.39-.63.19-1.28.19-1.92.08-.25-.05-.54-.35-.51-.62.04-.33.1-.65.11-.98-.01-.05-.1-.13-.14-.15-.06-.03-.18,0-.25.01-.08.03-.19.1-.23.17-.14.23-.23.49-.35.73-.36.71-.77.87-1.54.69-.2-.05-.4-.11-.61-.18-.19-.06-.38-.12-.56-.18-.43-.44-.43-.86-.43-1.36,0-.33.04-.67.01-1.01-.19-.12-.38-.08-.42-.02-.13.19-.17.5-.24.73-.09.26-.16.52-.24.78-.12.38-.6.47-.93.33-.32-.13-.56-.34-.66-.67-.29-.95-.38-1.92-.4-2.91-.02-1.15-.05-2.32-.3-3.45-.04-.17-.15-.35-.21-.52-.05,0-.22.03-.24.05-.08.12-.19.31-.19.45.06,1.17.12,2.33.21,3.5.05.62.15,1.23.19,1.85.01.22-.08.41-.13.62-.87.23-1.39-.07-2.03-.29-.57-.21-.88-.61-.97-1.2-.27-1.85-.45-3.71-.39-5.58.02-.66-.03-1.33-.08-1.99-.04-.04-.15-.08-.19-.08-.04.02-.2.15-.21.2-.09.38-.18.78-.17,1.18.04,1.5.11,3.02.19,4.52.02.55.09,1.1.12,1.65.03.48-.52.81-.96.68-.2-.06-.4-.13-.59-.2-.55-.19-.9-.56-1.04-1.13-.23-.95-.34-1.92-.37-2.9-.04-1.31-.1-2.61-.17-3.92,0-.16-.09-.33-.18-.47-.03-.02-.18-.03-.22-.04-.06.14-.17.35-.17.51,0,.68.04,1.37.06,2.05.03,1.31.05,2.62.06,3.93,0,.29-.11.54-.17.8-1.09.32-1.83,0-2.7-.31-2.2-.79-4.42-1.53-6.62-2.32-.4-.15-.83-.23-1.18-.48-1.06-.76-2.29-1.2-3.47-1.71-.38-.16-.76-.34-1.13-.52-.98-.49-1.18-.72-1.23-1.88-.08-1.57-.29-3.14-.48-4.7-.11-.98-.15-1.95-.05-2.93.11-1.02.18-2.05.28-3.08.07-.59.46-.87,1.04-.85.28,0,.56.04.83.08.45.06.76.46.74.91-.05,1.65-.11,3.3-.16,4.95-.03.87-.05,1.74.26,2.57.22-.04.29-.16.31-.27.03-.26.05-.53.06-.8.04-1.44.06-2.89.13-4.33.04-.83.14-1.65.24-2.47.05-.45.6-.73,1.01-.63.27.06.53.14.8.23.68.21.9.51.87,1.23-.13,2.61.16,5.21.24,7.82.01.33.07.67.1,1,.02.06.18.14.23.13.03-.02.17-.1.19-.13.06-.25.09-.51.09-.77-.04-1.86-.11-3.72-.12-5.57,0-.83.1-1.65.19-2.48.05-.48.63-.68,1.04-.54.62.21.83.33.83,1.01,0,1.58.01,3.17-.02,4.75-.04,2.13.23,4.25.39,6.37,0,.06.05.17.11.2.43-.27.43-.64.38-1.01-.23-1.71-.25-3.44-.28-5.16-.02-1.31.02-2.62.04-3.93.01-.29.07-.57.12-.85.18-.87.85-1.11,1.64-.82.16.06.3.19.39.33.08.14.13.32.13.49-.03,2.68-.07,5.36-.12,8.04-.01.69-.05,1.38-.07,2.07,0,.19.15.56.38.53.17-.02.3-.28.31-.44.01-.41.03-.81.04-1.23.07-2.48.15-4.95.24-7.43.01-.42.11-.83.17-1.25.06-.35.53-.6.86-.52.27.07.55.12.81.22.97.33,1.95.69,2.91,1.02.19.06.38.13.56.17.3.04.55-.05.73-.3.13-.18.19-.38.09-.59-.13-.31-.28-.61-.46-.89-.57-.85-.91-1.76-1-2.77-.04-.5-.15-.42-.62-.31-.35.08-.8.02-.84-.42-.08-.95-.13-1.91-.22-2.86-.03-.31-.09-.62-.18-.91-.05-.02-.12-.02-.18-.03-.07.16-.16.34-.19.52-.09.61-.14,1.23-.23,1.84-.02.2-.31.25-.47.29-.13.03-.23-.07-.32-.14-.06-.06-.1-.13-.15-.2-.05-.09-.11-.16-.11-.27-.06-1.16-.38-2.29-.64-3.41-.21-.96-.39-1.92-.38-2.9,0-.19-.03-.38-.08-.57-.03-.15-.13-.23-.28-.25-.1-.02-.18.12-.19.21-.09.87-.07,1.75.12,2.61.19.88.39,1.75.55,2.62.04.23-.08.59-.29.7-.21.11-.53.04-.74-.05-.65-.31-1.11-.78-1.19-1.52-.1-.89-.25-1.77-.36-2.66-.06-.54-.08-1.1-.12-1.65,0-.16-.09-.24-.23-.29-.14-.05-.21.29-.22.38,0,.2,0,.41,0,.61.02.76.05,1.52.05,2.27,0,.34-.07.68-.1,1.03-1.07.07-1.87-.23-2.1-1.16-.06-.21-.12-.43-.1-.66.05-.96-.48-1.77-.9-2.6-.21-.03-.3.06-.34.12-.04.07-.07.19-.05.27.13.87.28,1.75.41,2.62-.23.25-.35.39-.54.34-.54-.15-1.09-.27-1.59-.52-.99-.48-2.04-.72-3.1-.96-1.41-.32-2.8-.71-4.2-1.08-.27-.08-.54-.18-.8-.3-.65-.28-1.12-.77-1.28-1.47-.15-.68-.28-1.37-.36-2.05-.23-2.04-.45-4.1-.67-6.15,0-.07-.03-.13-.03-.19-.02-.05-.18-.17-.2-.19-.04.02-.17.12-.19.15-.21,1.07-.05,2.16.08,3.23.18,1.43.41,2.86.6,4.29.03.21,0,.43,0,.64,0,.26-.43.59-.68.48-.68-.26-1.25-.7-1.71-1.27-.23-.28-.32-.69-.38-1.04-.21-1.36-.39-2.72-.58-4.08-.05-.33-.12-.64-.23-.95-.03-.04-.12-.06-.17-.06-.21.28-.3.55-.28.79.07.68.19,1.35.28,2.03.08.62.17,1.23.22,1.85.01.18-.14.33-.27.44-.1.09-.28.08-.4.03-1.01-.49-1.56-1.27-1.66-2.39-.11-1.3-.28-2.6-.45-3.89-.02-.15-.11-.31-.21-.44-.04-.02-.2-.02-.23-.01-.05.14-.16.36-.15.51.05.75.13,1.5.2,2.25.03.41.08.82.1,1.23.02.28-.39.62-.66.53-.54-.18-.99-.42-1.19-.98-.07-.21-.17-.41-.19-.62-.18-1.58-.36-3.15-.52-4.72-.06-.61.38-1.1.97-1.2.07-.01.14-.04.22-.04,2.68-.23,5.38-.32,8.06-.11.47.04.8.3.85.78.21,1.79.46,3.56.45,5.36,0,1.02.21,2.04.34,3.04.02.17.1.34.2.48.02.04.21.09.25.11.12-.25.23-.57.19-.77-.45-1.9-.35-3.85-.47-5.78-.04-.61-.19-1.22-.23-1.84-.02-.3.12-.56.19-.84.14-.55,1.2-.69,1.55-.32.12.12.23.26.27.42.06.28.1.56.1.85.02,1.51.17,3.01.38,4.51.14.95.19,1.9.29,2.86.02.04.13.12.18.14.08.04.19-.04.2-.12.05-.38.16-.79.13-1.17-.12-1.3-.3-2.6-.42-3.89-.08-1.03-.11-2.07-.14-3.1-.01-.55.4-.91.92-1.01.27-.05.55-.08.83-.1.74-.06,1.01.22,1.14.93.24,1.38.3,2.76.28,4.15-.03,1.71.15,3.42.4,5.11.01.12.06.23.1.34.07.14.17.22.32.23.11,0,.2-.1.2-.21,0-.19.03-.39,0-.58-.32-2.19-.43-4.4-.43-6.61,0-.82-.05-1.64-.07-2.47,0-.23.04-.45.12-.67.05-.17.19-.34.35-.41.51-.2,1.04-.17,1.54.07.15.07.3.22.36.39.1.27.19.55.21.83.09,1.03.14,2.06.23,3.09.07.82.17,1.63.27,2.45.02.18.09.36.19.5.02.04.18.08.23.1.06,0,.21-.12.21-.18,0-.4.01-.81-.05-1.2-.24-1.5-.29-3.03-.33-4.55,0-.21-.01-.42-.01-.63,0-.33.08-.66.35-.88.36-.28,1.29-.13,1.6.19.11.12.24.26.27.42.08.48.12.96.2,1.43,0,.09.07.19.13.24.05.04.15.1.22.09.19-.53.19-1.01.21-1.48.01-.35.28-.66.61-.76.36-.11.93-.05,1.13.32.13.24.2.5.34.74.06.12.32.16.4.04.17-.22.26-.48.43-.7.11-.13.34-.22.51-.2.17.01.37.14.45.29.11.2.19.42.21.64.14,1.38.44,2.74.34,4.14,0,.19-.03.39.02.57.21.95.25,1.91.31,2.89,0,.1.11.21.21.21.14,0,.26-.08.31-.21.08-.23.12-.5.12-.74-.03-1.5-.11-3.01-.33-4.5-.11-.7-.23-1.4-.06-2.12.04-.16.2-.29.35-.36.25-.14.67.05.75.32.09.27.19.53.22.82.06.56.06,1.1.08,1.66.02.47,0,.95.08,1.42.39,2.24.64,4.52.75,6.79,0,.19.07.38.12.57.04.14.19.16.32.18.07,0,.24-.15.25-.2,0-.12.05-.25.03-.37-.05-.62-.14-1.24-.16-1.86-.02-.75-.11-1.49-.23-2.23-.3-1.91-.57-3.83-.55-5.77,0-.22.06-.46.15-.66.08-.17.34-.3.52-.27.76.11,1.51.61,1.57,1.43.14,1.72.49,3.42.47,5.16,0,.47.03.95.08,1.42.29,2.87.53,5.75.91,8.61.11.82.16,1.65.23,2.47.03.27.06.54.1.81.02.15.26.35.41.36.13,0,.36-.2.36-.33,0-.47.04-.96-.05-1.42-.14-.74-.1-1.51-.26-2.24-.37-1.69-.35-3.42-.64-5.12-.06-.35-.15-.69-.15-1.05,0-2.68-.42-5.34-.59-8.01,0-.16.02-.34.09-.49.08-.15.21-.3.37-.37.6-.2,1.43.19,1.52.85,0,.08.03.14.03.21.15,2.13.3,4.26.46,6.38.03.41.07.82.11,1.23.36,3.06.67,6.14,1.12,9.2.19,1.29.32,2.6.41,3.9.09,1.23.32,2.45.49,3.66.08.09.23.21.29.21.04,0,.15-.04.17-.08.08-.13.16-.32.16-.47-.06-.82-.17-1.64-.25-2.46-.08-.75-.17-1.51-.25-2.26-.02-.21-.02-.4-.04-.61-.38-3.21-.78-6.42-1.16-9.63-.13-1.1-.22-2.19-.32-3.29-.16-1.78-.3-3.55-.45-5.34-.04-.5.48-.92.93-.66.96.54,2.01.83,3.05,1.16.72.23,1.42.55,2.12.86.32.15.5.47.54.8.06.81.09,1.62,0,2.43-.61.32-1.01.24-1.31-.2-.19-.26-.33-.55-.52-.81h0ZM315.06,45.89c-.12.06-.25.11-.3.17-.09.13-.12.34-.14.49-.05.48-.06.96-.1,1.44-.1,1.16-.19,2.33-.29,3.5-.18,2.12-.38,4.25-.53,6.37-.11,1.64-.17,3.29-.26,4.94-.02.29-.08.61-.2.86-.1.21-.33.39-.55.47-.5.18-1.02.11-1.53-.04-.22-.07-.48-.3-.53-.53-.08-.42-.08-.85-.08-1.27,0-1.8.33-3.57.57-5.34.05-.34.16-.67.19-1.01.18-3.23.9-6.4,1.12-9.62.11-1.65.21-3.29.31-4.94,0-.05-.11-.17-.18-.2-.07.05-.16.11-.21.18-.06.08-.11.2-.12.3-.03.19-.06.39-.07.59-.03.68-.04,1.37-.05,2.06-.02.91-.07,1.81-.29,2.7-.12.46-.12.94-.19,1.41-.19,1.42-.43,2.84-.56,4.28-.23,2.4-.75,4.75-1.08,7.14-.1.81-.16,1.64-.25,2.46-.03.28-.09.57-.19.84-.06.17-.24.3-.4.36-.51.2-1.33-.2-1.35-.78-.02-.55,0-1.11.01-1.66,0-.21.06-.42.09-.62.29-2.33.4-4.66.94-6.93,0-1.74.33-3.42.53-5.14.04-.25,0-.52-.04-.76-.19-.12-.29-.06-.34-.03-.07.05-.13.15-.15.24-.15.8-.32,1.61-.4,2.43-.22,2.19-.5,4.38-.85,6.55-.28,1.69-.39,3.41-.57,5.11-.04.38-.37,1-.83.81-.35-.13-.54-.47-.49-.85.24-1.64.18-3.3.61-4.92.34-1.25.49-2.54.5-3.83,0-1.17.1-2.35.23-3.51.18-1.55.4-3.13.23-4.69-.06-.56,0-1.07.36-1.53.27-.12.45-.19.65-.25,1.51-.43,1.51-.2,1.64-1.86.02-.29.12-.58.25-.85.17-.36.18-.71.13-1.09-.07-.56-.02-1.12,0-1.67.02-.3.39-.7.69-.74.48-.06.96-.1,1.43-.15.62-.07.81-.3.94-.89.03-.13.04-.26.05-.38.04-.55.28-1,.67-1.38.09-.09.18-.29.25-.45-.2-.32-.4-.64-.57-.97-.25-.5.03-1.32.59-1.45,1.34-.32,2.68-.61,4.01-.93.23-.05.5-.13.68-.27.08-.07.12-.31.13-.42,0-.1-.29-.33-.38-.33-.56,0-.96.47-1.62.32-.28-.07-.19-.09-.25-.26-.07-.18-.14-.21.05-.39.17-.15.32-.33.53-.4,2.27-.78,4.51-1.64,6.74-2.54.32-.13.66-.2.98-.32.5-.2.89-.04,1.3.25.42.29.43.2.62-.27.2-.54.52-.91,1.06-1.1.33-.11.65-.22.98-.33.57-.2,1.17-.34,1.72-.62,1.73-.88,3.56-1.52,5.44-2.04.24-.07.52-.13.74-.24.71-.39,1.29-.84,1.24-1.73-.01-.29,0-.59.07-.87.05-.23.21-.48.41-.59.69-.39,1.41-.69,2.2-.75.56.61.6,1.23.27,1.81-.25.42-.24.73.09,1.09.32.35.37.82.39,1.28.03,1.17.02,2.34.05,3.51.01.32.05.63.12.96.19.05.29.02.32,0,.1-.21.21-.46.21-.69,0-1.3-.03-2.61-.03-3.91,0-.5-.02-.98.05-1.46.06-.32.1-.61-.01-.92-.2-.55-.25-1.13-.17-1.71.11-.78,1.19-1.31,1.87-.9.14.09.29.23.34.4.08.28.14.56.15.85.02.76.09,1.53,0,2.29-.2,1.57.15,3.13.2,4.7,0,.11.06.25.09.36.04.15.29.32.43.3.17-.01.29-.23.24-.38-.34-1.22-.38-2.47-.38-3.73-.01-1.51.08-3.02.13-4.54,0-.33.31-.69.64-.75.54-.11,1.08-.23,1.64-.3.94-.12,1.86-.24,2.7-.73.37-.22.85-.25,1.27-.27.83-.03,1.66-.03,2.5,0,.35,0,.73.04,1.06.19.38.15.67.13,1.05,0,.4-.15.86-.15,1.28-.12,1.17.07,2.33.17,3.5.28.52.05,1.06.12,1.57-.03,1.23-.36,2.49-.25,3.75-.18.7.04,1.4.09,2.1.14.25.29.38.4.41.64.16,1.19-.04,2.37-.25,3.53-.04.23-.27.41-.44.56-.36.3-1.03.12-1.12-.35-.08-.41-.12-.81-.17-1.22-.05-.41-.08-.8-.16-1.19-.03-.04-.17-.09-.21-.11-.05,0-.18.1-.19.16-.02.47-.03.96-.06,1.43-.02.54-.05,1.08-.08,1.61-.28.26-.48.42-.7.51-.43.17-.99-.04-1.04-.53-.03-.4-.03-.82-.07-1.23-.03-.32-.06-.66-.17-.97-.04-.11-.23-.21-.34-.25-.1,0-.26.26-.25.37.01.21.04.41.05.61.03.47.05.95.11,1.43.12.97-.33,1.57-1.21,1.95-.46.19-.97-.04-.97-.58,0-1.18.05-2.35.23-3.51,0-.08-.17-.26-.23-.31-.11-.08-.37.07-.41.19-.1.3-.23.62-.24.93-.01.62.07,1.23.08,1.85.01.49-.03.97-.05,1.46-.04.71-.35,1.28-.92,1.71-.24.17-.48.36-.72.54l-.22.17-.06-.27c-.16-.8-.32-1.56-.25-2.38.09-1.01-.03-2.04-.08-3.05,0-.08-.08-.19-.14-.26-.03-.04-.13-.12-.19-.12-.06,0-.16.08-.2.13-.05.07-.1.18-.1.27-.01.96-.04,1.92-.02,2.87.03,1.08.1,2.14.69,3.07-.18.44-.34.71-.55.93-.66.68-1.14,1.48-1.42,2.39-.21.7-.59,1.29-1.06,1.83-.96,1.11-1.98,2.16-3.2,2.98-1.26.85-2.5,1.7-3.75,2.56-.84.59-1.68,1.19-2.51,1.79-.32.23-.43.55-.39.93.24,2.47.08,4.96.14,7.45,0,.54.03,1.09.08,1.63,0,.09.08.19.13.24.04.04.15.12.21.11.13-1.25.16-2.42.18-3.59.04-1.31.06-2.61.1-3.92,0-.14.03-.28.05-.43.07-.55.43-.91,1-.89.44.03.83.31.89.76.08.68.18,1.37.21,2.06.03,1.04.01,2.07.02,3.1.01,1.3.07,2.6.28,3.88.15.89.17,1.79.23,2.69.03.43-.3.83-.7.94-2.19.62-4.36,1.29-6.56,1.84-2.2.56-4.22,1.58-6.27,2.54-.37.18-.72.41-1.11.57-.22.08-.48.03-.71.03-.19-.67-.21-1.16-.21-1.66-.01-2.2,0-4.4-.03-6.6,0-.61-.07-1.23-.14-1.84-.01-.17-.12-.37-.19-.53-.02-.06-.19-.16-.25-.14-.04.03-.19.11-.21.13-.06.46-.14.93-.12,1.38.06,1.24.22,2.47.25,3.71.05,1.92.03,3.85.03,5.79,0,.52-.26.9-.72,1.14-.55.29-1.09.59-1.65.86-.16.09-.37.01-.55.01-.18-.65-.19-1.13-.19-1.6,0-2.47-.02-4.96-.03-7.43,0-.11-.03-.24-.07-.36-.04-.15-.14-.22-.29-.26-.08-.02-.21.09-.21.18-.01.13-.05.26-.05.39v2.47c.01,1.52.04,3.04.03,4.55,0,.69-.11,1.38-.16,2.07-.06.77-.56,1.19-1.25,1.47-.26.1-.69-.19-.7-.47-.02-.96-.03-1.92-.07-2.88,0-.26-.07-.52-.14-.76-.18-.1-.29-.05-.31,0-.09.13-.18.3-.19.47-.02.48.02.96.02,1.44,0,.76-.01,1.52-.05,2.27-.01.36-.21.64-.52.81-1.11.58-2.32.9-3.51,1.28-.37.12-.76-.26-.78-.62-.03-.61-.04-1.21-.1-1.82-.21-.07-.31-.02-.36.03-.06.06-.1.18-.12.26-.09.54-.15,1.09-.24,1.64-.17.95-.65,1.27-1.59,1.3-.45.01-.84-.36-.85-.8-.03-.98-.05-1.96.15-2.92.09-.46.16-.93.17-1.4.07-2.04.12-4.09.16-6.14-.04-.03-.11-.07-.19-.12-.35.62-.46,1.28-.46,1.99.02,2.63-.38,5.22-.55,7.83,0,.06-.02.13-.02.2-.09,1.48-.41,1.79-1.94,1.83-.34.01-.7.02-1.04-.02-.18-.02-.34-.19-.42-.35-.08-.14-.12-.32-.12-.48-.02-3.72.11-7.45.59-11.15.27-2.04.25-4.1.28-6.16l-.07-.14ZM359.03,49.61c-.14,0-.12-.19-.12-.19.08-1.02.15-2.05.24-3.07.09-.96.2-1.91.31-2.87.04-.38.46-.68.83-.55.8.29,1.54.66,2.21,1.19,1.4,1.1,2.85,2.13,4.27,3.2.48.36,1,.6,1.6.71.71.12.97.4.99,1.11.02.54-.03,1.09.06,1.62.2,1.29-.3,1.62-1.5,1.72-.69.06-1.37.11-2.06.15-.76.05-.89-.23-1.14-.9-.05-.11-.1-.22-.16-.32-.04-.03-.2-.01-.23.02-.1.18-.15.37-.27.55-.12.19-.26.43-.49.5-.56.17-1.15.16-1.71.01-.18-.04-.38-.25-.39-.44-.06-.68-.08-1.37-.13-2.05-.03-.33-.08-.65-.17-.96-.02-.04-.12-.09-.16-.1-.28.23-.42.48-.44.71-.06.76-.05,1.51-.08,2.26-.01.3-.28.63-.61.54-.21-.05-.41-.14-.58-.26-.14-.1-.25-.31-.25-.48,0-.7,0-1.4,0-2.1h0ZM87.66,42.61c.3,1.23.23,2.48.33,3.73.16,1.99.27,3.98.4,5.97.17,2.6.34,5.2.53,7.81.1,1.42.08,2.88.48,4.26.08.28.07.6.02.89-.04.23-.21.46-.39.59-.38.28-.83.35-1.28.34-.43,0-.84-.34-.89-.77-.19-1.57-.37-3.13-.55-4.71-.04-.33,0-.69-.08-1.01-.33-1.49-.38-3.01-.54-4.52-.17-1.65-.24-3.3-.23-4.96.01-2.06.01-4.12.02-6.19,0-.35,0-.69.02-1.04.04-.74.54-.96,1.22-.81.28.06.55.19.82.28l.12.12ZM33.66,50.55c0,.7.01,1.39,0,2.09-.01.59-.45.89-1.02.85-1.02-.09-2.05-.2-3.08-.3-.34-.03-.68-.09-1.02-.13-1.64-.16-3.28-.32-4.92-.45-.7-.05-1.36-.25-2.04-.45-.26-.07-.5-.26-.55-.54-.21-1.13-.1-2.26.27-3.33.12-.33.41-.59.77-.61.35-.02.71,0,1.05.06.3.05.52.31.5.62-.03.41-.11.81-.15,1.22-.03.33-.03.67-.01,1.01,0,.15.1.23.23.28.09.03.21-.07.23-.16.13-.6.25-1.2.38-1.81.04-.22.05-.44.16-.65.11-.2.3-.45.54-.49.62-.12,1.23-.18,1.85-.23.3-.03.56.18.64.46.09.29.1.57.11.86.03.96.03,1.92.07,2.88,0,.12.13.28.22.36.17-.22.23-.45.25-.68.05-.97.03-1.95.27-2.91.06-.22.08-.44.2-.63.13-.2.34-.38.55-.44.5-.15,1.03-.14,1.52.04.16.06.33.21.38.38.08.21.1.43.11.65.03.69.03,1.37.08,2.06.01.15.04.36.13.48.07.09.21.15.33.19.1-.53.1-.94.1-1.35.01-.56-.02-1.11.05-1.67.04-.36.22-.68.37-1,.15-.32.65-.52.96-.32.19.12.39.34.44.56.08.42.1.84.11,1.26.01.56,0,1.11,0,1.66l-.05.18ZM95.12,25.87c-.46-1.14-.47-1.21.09-2.37l.2-.39.13.41c.06.2.17.4.19.6.13.96.3,1.92.33,2.88.04,1.03.13,2.05.3,3.05.18,1.09.23,2.19.34,3.29.15,1.64.17,3.29.51,4.9.03.14.03.29.04.43.19,2.81.36,5.62.57,8.43.05.75.22,1.49.32,2.23.03.28.04.57.03.86-.02.17-.12.31-.19.47l-.1.25-.18-.19c-.15-.16-.41-.3-.45-.53-.12-.76-.25-1.51-.25-2.28-.02-1.17-.15-2.32-.32-3.46-.34-2.31-.7-4.62-1.06-6.93-.07-.47-.2-.92-.32-1.38-.03-.05-.22-.12-.26-.12-.03.03-.18.12-.19.16-.05.31-.12.65-.08.96.2,1.28.42,2.57.69,3.85.38,1.82.68,3.68.66,5.55-.01.67.18,1.35.25,2.02.03.35.02.7,0,1.04-.02.27-.24.43-.5.38-.78-.15-1.29-.47-1.39-1.29-.12-.96-.23-1.92-.27-2.89-.08-1.44-.08-2.89-.13-4.33-.03-.75-.11-1.5-.17-2.25-.14-1.79-.36-3.58-.18-5.37.03-.34.02-.67.01-1.01-.03-1.73.24-3.46.56-5.16.06-.34.13-.7.28-1.03.14-.29.36-.53.55-.78h0ZM303.59,21.24c-.03-2.55-.06-5.1-.1-7.65,0-.21-.02-.42-.01-.62,0-.83.84-1.22,1.57-.96.15.06.3.19.39.33.08.15.14.33.13.49-.03,1.1-.04,2.2-.11,3.29,0,.29-.15.57-.27.84-.12.26-.28.5-.44.73-.48.69-.51,1.45-.4,2.24.05.42.19.81.23,1.22.21,1.99.14,4-.03,6-.23,2.6-.47,5.19-.66,7.8-.19,2.46-.28,4.93-.46,7.39-.1,1.3-.3,2.6-.48,3.89-.03.23-.21.46-.39.61-.18.14-.45.24-.67.22-.32-.04-.47-.35-.45-.64.03-.62.05-1.24.12-1.86.18-1.57.4-3.13.58-4.7.32-2.65.63-5.32.94-7.97,0-.06,0-.13,0-.19.17-3.48.34-6.97.52-10.45h0ZM90.35,46.37c.09,1.23.19,2.46.21,3.7.05,2.33.47,4.62.75,6.92.26,2.18.53,4.36.8,6.53.02.23.11.43.07.66-.06.28-.17.57-.34.81-.28.39-.71.47-1.16.36-.7-1.35-.93-2.74-.98-4.11-.1-2.88-.64-5.72-.64-8.62,0-1.16-.22-2.31-.28-3.48-.05-1.02-.02-2.06-.02-3.09,0-.53.48-.74.95-.63.17.04.36.14.44.29.1.19.18.42.19.65h0ZM76.52,23.93c.31.1.62.2.93.29.88.24.91,1,.66,1.73-.06.18-.32.34-.51.32-.42-.03-.85-.05-1.25-.19-1.62-.58-3.31-.93-4.87-1.7-.42-.21-.87-.34-1.33-.47-1.27-.36-2.48-.85-3.65-1.46-.89-.47-1.85-.82-2.85-.92-.36-.04-.69-.2-1.01-.34-.54-.23-.73-.96-.5-1.48.09-.21.41-.46.65-.42.55.08,1.09.21,1.62.37,1.85.57,3.72,1.04,5.42,2,.64.36,1.41.5,2.1.76.77.28,1.54.59,2.3.88.38.15.59.43.8.77.27.43.32.43.76.2.2-.11.39-.22.59-.33h.14ZM218.79,63c-1.45-.05-2.91-.09-4.36-.17-.54-.03-1.05-.05-1.46-.44-.12-.12-.14-.29-.18-.45-.06-.27.12-.48.39-.48.68-.02,1.37-.04,2.05-.03.74,0,1.46,0,2.16-.27.46-.18.97-.18,1.46-.2.54-.03,1.1.02,1.64,0,1.38-.09,2.76-.13,4.13,0,.87.08,1.76-.06,2.64-.1,1.3-.06,2.6-.14,3.9-.19.21-.01.43.02.63.04.28.03.59.4.5.68-.08.2-.21.4-.37.55-.12.12-.32.15-.48.16-1.77.16-3.53.46-5.28.72-1.72.25-3.44.45-5.17.25-.67-.08-1.37-.02-2.04-.02l-.17-.03ZM351.72,39.33c.25,1.7.42,3.41.32,5.13-.03.54.02,1.08.04,1.62.03,1.64.06,3.28.08,4.92,0,.47-.4.78-.84.79-.66.03-1.33-.28-1.37-1.02-.14-2.47-.59-4.91-.47-7.39.05-1.3-.03-2.59-.05-3.89,0-.49.43-.82.9-.71.43.1.85.26,1.27.39l.12.14ZM334.28,60.3c-.05-.29-.13-.6-.16-.89-.03-.33.06-.67.32-.9.8-.7,1.58-1.37,2.56-1.79,1.9-.82,3.8-1.64,5.82-2.13,1.93-.47,3.84-1.04,5.76-1.57,1.15-.31,2.33-.38,3.53-.33.75.03,1.5,0,2.25,0,.69,0,1.03.4,1.03,1.08,0,.22-.03.46-.11.67-.07.17-.25.23-.39.32-.17.11-.06.13-.31.09-1.5-.25-3.03-.11-4.52-.47-.5-.12-1.06-.1-1.57-.03-1.14.14-2.29.3-3.39.67-.59.2-1.2.34-1.79.5-1.39.36-2.71.89-3.91,1.68-1.36.92-2.78,1.76-4.04,2.82-.23.19-.57.29-.84.42l-.2.1-.04-.23h0ZM355.4,46.15c-.1,1.57-.18,3.14-.29,4.7-.06.75-.47.93-1.17.91-.16,0-.33,0-.48-.09-.2-.11-.41-.26-.5-.46-.11-.21-.11-.45-.11-.68-.04-3.23-.08-6.46-.12-9.69,0-.15.03-.29.04-.43.03-.26.38-.54.64-.52.35.04.7.05,1.04.17.4.13.7.46.76.88.09.62.23,1.25.18,1.88-.09,1.11-.19,2.19.02,3.33h0ZM356.03,46.29c0-1.38,0-2.75,0-4.13,0-.22.05-.45.13-.66.07-.17.34-.32.52-.27.34.09.66.22.97.38.76.37,1.12.98,1.05,1.82-.05.55,0,1.1-.08,1.65-.23,1.48-.31,2.97-.28,4.47,0,.55-.01,1.1-.03,1.65-.03.87-.56,1.07-1.33.9-.63-.14-1-.44-1.04-1.11-.02-.55,0-1.1,0-1.65.02-.81.05-1.63.08-2.45v-.59h0ZM81,4.62c.59.1,1.18.16,1.77.3.82.2,1.33.65,1.45,1.51.18,1.22.47,2.42.67,3.63.08.49.03.98,0,1.47-.01.18-.27.4-.45.4-.28,0-.57-.05-.85-.12-2.07-.53-2.07-.72-2.58-2.7-.3-1.14-.35-2.32-.5-3.48-.05-.38.05-.69.33-.96l.15-.05ZM84.99,6.73c.01-.1.04-.23.04-.34.01-.36.39-.75.76-.64.52.15,1.03.34,1.55.52.63.22.96.72,1.07,1.37.22,1.27.43,2.55.64,3.83.1.6.21,1.21.28,1.82.02.19-.24.37-.41.43-.16.05-.36.05-.52-.01-.5-.21-1-.45-1.5-.68-.59-.27-.95-.73-1.04-1.37-.1-.61-.23-1.21-.34-1.81-.1-.53-.21-1.07-.3-1.6-.09-.49-.16-.98-.23-1.46v-.06ZM40.32,50.75c-.18-2.01-.22-3.96.08-5.97.03-.22.18-.54.4-.63.33-.14.69-.19,1.04-.21.19-.02.37.17.47.31.08.14.12.32.12.48,0,.56.06,1.12,0,1.67-.2,2.12-.03,4.25.04,6.37.01.4.12.81.15,1.21.04.42.05.83.06,1.24.01.52-.43.76-.9.71-.21-.02-.43-.06-.63-.12-.34-.1-.62-.32-.69-.69-.06-.41-.1-.83-.11-1.25-.02-1.05-.03-2.09-.04-3.12h0ZM93.25,51.62c-.06.32-.08.62-.17.93-.05.19-.11.45.02.63.42.56.47,1.19.48,1.86,0,.75.14,1.47.31,2.19.3,1.27.57,2.54.81,3.82.12.62.14,1.23.16,1.85.01.53-.72,1.07-1.21,1.01-.19-.02-.33-.17-.43-.31-.1-.13-.17-.29-.19-.45-.32-2.3-.64-4.6-.95-6.9-.24-1.76-.47-3.52-.69-5.28-.05-.46.23-.78.62-.97.4-.2,1,0,1.08.46.06.37.1.75.16,1.12v.05ZM90.2,14.22c-.28-1.47-.57-2.95-.83-4.43-.08-.41-.11-.83-.15-1.24-.07-.95.29-1.43,1.28-1.14.47.14.93.31,1.37.52.21.1.45.36.47.6.25,2.26.57,4.52.42,6.79-.02.27-.44.56-.69.45-.07-.04-.14-.04-.21-.08-.63-.37-1.19-.78-1.62-1.38l-.03-.08ZM262,16.44c-1.43.56-2.91.91-4.45.97-2.05.08-4.08.44-6.12.64-1.5.14-3,.38-4.5.47-1.03.06-2.07-.06-3.1-.11-.17,0-.35-.09-.47-.2-.13-.11-.23-.31-.22-.48.02-.17.16-.38.32-.45.44-.19.91-.15,1.34.06.41.21.76.24,1.13-.08.37-.31.8-.37,1.26-.41.68-.06,1.35-.16,2.04-.24.48-.05.97-.13,1.46-.11,2.45.11,4.92-.12,7.38-.23.61-.03,1.21-.16,1.81-.25.73-.12,1.42-.17,2.12.07l.45.16-.44.18h0ZM36.78,51.13c-.11.52-.03,1.08-.06,1.6-.01.35-.07.69-.15,1.03-.04.17-.26.32-.43.34-.46.07-.91-.07-1.28-.36-.18-.14-.34-.38-.38-.61-.08-.41-.17-.86-.08-1.28.14-.59.09-1.17.01-1.76-.11-.9-.07-1.8.05-2.69.16-1.07.75-1.5,1.79-1.7.24-.04.64.23.66.49.04.68.08,1.36.12,2.05-.04.96-.05,1.93-.26,2.88h0ZM93.4,12.73c-.04-.7-.08-1.39-.1-2.09,0-.48.04-.96.08-1.45.03-.44.63-.7,1.02-.57.33.11.63.33.67.7.08.68.12,1.37.16,2.05.07,1.3.11,2.6.19,3.9.06,1.03.16,2.05.22,3.07.01.22-.03.43-.06.65-.03.21-.04.2-.24.26-.15.05-.23.14-.39-.07-.39-.56-.8-1.11-1.16-1.7-.14-.26-.17-.58-.2-.87-.1-1.23-.17-2.46-.25-3.69v-.18h.05ZM39.28,54.81c-.47.12-.73-.04-1.14-.18-.43-.14-.67-.48-.67-.94-.01-.62.02-1.23.03-1.85.04-1.5.05-3.01.12-4.51.02-.62.11-1.23.23-1.84.08-.42.42-.69.81-.81.26-.09.68.1.71.39.03.34.09.68.1,1.03.06,2.05.12,4.1.14,6.15,0,.81.03,1.66-.2,2.44l-.12.12ZM260.94,60.51c-.1-.03-.2-.08-.3-.11-.25-.07-.4-.27-.31-.53.05-.16.12-.37.3-.43,1.38-.47,2.8-.81,4.26-.85.95-.03,1.85-.22,2.71-.63,1.02-.48,2.09-.77,3.22-.85.88-.06,1.73-.29,2.54-.61.33-.12.67-.18,1.01-.26.33-.08.69.33.79.61.11.32-.02.81-.37.92-.26.08-.53.18-.81.22-1.82.24-3.63.58-5.39,1.13-1,.31-2.02.48-3.06.61-1.02.12-2.01.39-3.02.57-.5.1-1,.15-1.5.21h-.09ZM181.71,62.67c-.1.12-.2.23-.29.35-.26.34-.58.57-1.03.52-1.02-.13-2.04-.27-3.05-.45-.29-.05-.54-.28-.76-.47-.14-.12-.15-.39-.1-.56.05-.17.2-.38.39-.41.41-.06.84-.14,1.26-.09,1.76.21,3.54.23,5.31.21.76,0,1.52.06,2.27.12.73.06.99.63.68,1.27-.1.2-.34.47-.57.48-.96.03-1.93.03-2.88.01-.35,0-.6-.23-.8-.49-.13-.17-.28-.33-.42-.49h0ZM36.62,18.11c1.3-.04,2.61.04,3.89.16.18.03.31.23.38.38.13.28-.05.48-.32.53-.15.03-.27.09-.43.09-1.78-.04-3.56-.08-5.34-.13-.39,0-.81-.09-1.2-.02-2.02.32-4.1.26-6.1.7-.29.07-.59.04-.88,0-.18-.04-.28-.23-.37-.37-.16-.25.04-.68.33-.75.27-.07.54-.16.82-.17,1.77-.09,3.55-.1,5.31-.37.35-.05.72-.04,1.07,0,.96.12,1.88.07,2.84-.06h0ZM79.9,10.4c-.6.05-1.34-.2-1.48-.87-.29-1.4-.55-2.8-.81-4.2-.04-.22,0-.46.05-.67.04-.17.16-.34.3-.44.47-.31,1.47-.05,1.68.49.08.21.16.41.18.63.2,1.45.38,2.9.57,4.37,0,.13,0,.25-.06.38-.08.14-.26.31-.43.32h0ZM33.35,55.04c-1.22-.03-2.52.03-3.71-.2-.52-.1-1.07-.07-1.6-.09-1.85-.06-3.71-.11-5.56-.18-.35,0-.71-.09-1.04-.19-.31-.09-.39-.38-.37-.68.02-.27.31-.57.58-.55.62.04,1.24.08,1.85.15,2.44.3,4.89.63,7.35.75.98.05,1.69.21,2.57.65l.7.35-.78-.02h0ZM318.88,6.79c.31.2.44.5.42.85-.02.75-.07,1.51-.12,2.26-.03.35-.25.65-.58.78-.45.17-.9.33-1.36.48-.71.23-1.15-.11-1.12-.87.01-.27.04-.54.07-.82.13-2.04.2-2.07,2.16-2.66.15-.05.28-.04.44-.05l.1.02ZM20.29,49.59c-.04.7-.05,1.25-.14,1.79-.06.35-.34.59-.66.69-.44.12-.88.13-1.31-.04-.21-.09-.43-.32-.49-.56-.25-1.1-.11-2.21.21-3.29.07-.23.32-.41.52-.51.5-.24,1.04-.22,1.53.02.2.1.42.38.43.61.01.43-.04.86-.08,1.28h0ZM315.26,8.52c.17,1.03.25,1.76-.08,2.76-.13.38-.38.7-.76.85-.38.15-.78.29-1.18.4-.48.13-.91-.27-.89-.75.02-.68.05-1.37.12-2.05.04-.36.29-.63.62-.75.65-.25,1.29-.49,1.97-.6l.18-.03.03.17h0ZM303.93,60.49c.1-.89.21-1.79.31-2.69.19-1.56.4-3.12.57-4.69.08-.76.19-1.51.44-2.23.09-.26.33-.34.57-.23.11.05.23.19.22.32-.09,2.13.08,4.27-.58,6.34-.31.96-.41,1.98-.39,2.98,0,.42-.11.83-.21,1.24-.04.19-.32.22-.48.25-.24.04-.29-.09-.32-.29-.06-.32-.1-.64-.14-.97v-.04ZM194.56,62.24c1.05.06,2.03,0,3.05-.2.55-.11,1.11-.16,1.67-.17.89-.01,1.75-.09,2.61-.32.81-.21,1.66-.13,2.5-.18.21-.01.4.1.34.33-.04.14-.1.35-.28.38-.87.17-1.76.3-2.63.47-1.43.3-2.88.43-4.33.47-1.37.04-2.74.21-4.1.31-.29.02-.56-.06-.85-.11-.23-.04-.21-.19-.2-.33,0-.2-.06-.16.13-.32.13-.1.28-.2.44-.22.55-.05,1.1-.08,1.65-.11h0ZM334.31,20.98c-.04.13-.06.27-.11.4-.1.23-.07.14-.25.22-1.34.51-2.65,1.1-3.93,1.73-.69.35-1.47.41-2.21.57-.21.04-.45-.37-.38-.54.08-.21.21-.46.41-.57.58-.34,1.24-.57,1.82-.95,1.19-.77,2.52-1.09,3.84-1.55.32-.11.76.3.82.59v.08ZM369.62,16.93c.03-.47.05-.94.09-1.41.05-.55.46-.84.99-.89.21-.03.43,0,.65.02.34.05.66.39.66.73,0,.62-.02,1.23-.06,1.84-.07,1.25-.63,1.6-1.79,1.88-.26.06-.68-.25-.66-.53.04-.55.09-1.1.14-1.64h0ZM258.3,59.66c.18,0,.45-.01.61.06.19.1.38.22.51.4.19.25-.09.86-.36.97-.14.05-.26.12-.41.15-.67.13-1.34.25-2.01.37-.67.12-1.34.23-2.01.35-.67.12-1.13-.3-1.09-.98.01-.28.12-.54.4-.64.08-.04.13-.08.23-.09,1.37-.2,2.74-.4,4.14-.59h0ZM309.01,12.42c-.05-.59-.05-1,.01-1.41.03-.23.21-.39.34-.57.14-.2.08-.12.29-.17.63-.11,1.04-.7,1.79-.32.41.66.13,1.15.08,1.75-.02.2-.08.39-.09.6-.07.86-.59,1.33-1.38,1.55-.13.04-.26.08-.39.12-.27.08-.64-.23-.65-.51,0-.35,0-.7,0-1.05h0ZM289.53,52.86c.03-.22.01-.39.09-.6.07-.21.2-.49.42-.59.96-.42,1.94-.77,2.97-.92.19-.03.45.17.49.36.16.69-.07,1.68-.75,2.01-.83.39-1.65.82-2.6.78-.27-.01-.54-.3-.57-.55-.01-.16-.02-.32-.04-.5h0ZM26.87,25.24c-.3-.71-.52-1.44-.52-2.23,0-.54,0-1.08,0-1.62,0-.34.36-.64.67-.71.23-.05.63.1.72.33.03.09.09.1.1.22.15,1.17.29,2.36.43,3.55-.02.23-.01.52-.08.75-.05.16-.23.33-.39.37-.17.03-.38-.03-.52-.14-.16-.14-.34-.32-.43-.53h0ZM297.64,49.86c-.01.4-.01.83-.07,1.23-.05.42-.32.77-.72.92-.65.21-1.31.39-1.96.57-.39.11-.77-.32-.7-.71.05-.27.1-.54.16-.8.14-.68.56-1.09,1.25-1.18.61-.07,1.22-.15,1.84-.22l.21-.02v.21h-.01ZM75.48,6.13c0-.51-.02-1.01,0-1.52.01-.17.21-.44.4-.45.22,0,.45.05.65.15.17.08.28.29.31.46.25,1.35.55,2.71.61,4.09.02.43-.42.66-.8.5-.54-.22-.85-.66-.95-1.22-.12-.66-.16-1.32-.22-2h0ZM321.99,8c0,.27,0,.54,0,.82-.03.69-.6,1.11-1.26,1.15-.17.01-.41-.11-.49-.26-.1-.21-.16-.43-.16-.66-.02-.76-.03-1.51-.01-2.27,0-.63.51-.99,1.09-1.08.25-.04.65.17.69.43.02.07.06.11.07.21.03.55.05,1.09.08,1.65h0ZM186.2,18.13c1.83-.4,3.7-.58,5.57-.44.24.02.43.36.5.57.12.33-.13.82-.49.87-.35.05-.7.12-1.06.11-1.3-.07-2.61-.16-3.9-.25-.41-.03-.66-.26-.74-.66l.13-.21ZM377.36,15.12c0,.32.02.66,0,.97-.05.89-.62,1.32-1.47,1.48-.32.06-.79-.19-.85-.53-.12-.7-.04-1.41.1-2.11.16-.8.93-1.07,1.66-.89.17.03.38.19.43.35.07.24.09.46.13.72h0ZM306.27,13.12c.03-.41.04-.8.09-1.21.08-.62.77-1.06,1.38-1.05.18,0,.44.19.47.37.07.47.16.95.12,1.44-.05.62-.21,1.22-.36,1.82-.12.48-.52.76-.96.92-.24.09-.71-.16-.72-.43v-1.86h0ZM115.51,55.31c.44.09.68.95.49,1.32-.08.14-.21.29-.36.35-.15.07-.27.05-.42.07-.94-.13-1.84-.27-2.73-.39-.28-.05-.54-.41-.44-.69.08-.2.16-.39.25-.58.17-.33.38-.6.79-.53.81.14,1.62.29,2.42.46h0ZM330.27,62.6c-.23-.2-.2.05-.32-.32-.21-.62-.12-1.27.45-1.65.56-.38,1.15-.74,1.74-1.08.52-.3,1.02.11,1.13.64.1.48,0,.99-.44,1.27-.69.43-1.43.78-2.15,1.16-.11.06-.19.03-.29.03l-.12-.05ZM346.94,15.03c-.28-.02-.55-.04-.82-.06-.47-.02-.72-.44-.73-.88,0-.32.21-.73.54-.81.72-.17,1.45-.33,2.18-.48.43-.08.81.39.87.78.08.55-.21,1.2-.8,1.3-.4.06-.8.09-1.23.14h0ZM195.68,19.07c-.71.08-1.25.08-1.79.08-.25,0-.54-.32-.56-.57-.02-.3.14-.8.49-.84,1.16-.14,2.32-.27,3.48-.05.35.06.61.3.7.64.05.18-.06.46-.21.55-.19.11-.43.17-.65.19-.49.02-.97.01-1.46,0h0ZM374.33,16.22c0,.36.02.72-.01,1.08-.05.45-.38.71-.79.83-.32.1-.89-.1-.89-.48.01-.75,0-1.52.06-2.27.04-.44.4-.71.79-.85.33-.12.87.1.88.49,0,.34,0,.68,0,1.03l-.03.18ZM364.14,12.88c.9-.15,1.82-.19,2.71.04.4.09.7.02,1.07-.13.22-.09.15-.1.35.02.14.08.38.19.38.38,0,.23-.03.51-.19.67-.17.17-.45.26-.68.27-.67.03-1.34,0-2.01,0-.43-.03-.87-.05-1.3-.08-.17-.02-.34-.11-.47-.22-.12-.12-.23-.31-.22-.48.01-.18.17-.44.36-.47h0ZM88.25,29.12c-.04.26-.06.51-.12.75-.1.41-.36.73-.79.82-.34.08-.68.1-1.02.11-.45.02-.8-.44-.74-.88.04-.27.09-.54.14-.8.24-1.14,1.11-1.26,2.11-.95.17.05.29.25.35.41.06.15.06.33.08.49v.05ZM23.52,22.29c.02-.73.4-1.38,1.21-1.26.22.04.55.24.6.47.15.67.24,1.36.35,2.03.05.29.02.9-.39.91-.28,0-.59-.01-.86-.12-.38-.15-.65-.49-.74-.89-.09-.38-.12-.74-.18-1.14h0ZM286.14,54.84c-.47-.49-.37-.94-.29-1.53.02-.18.15-.39.31-.46.38-.19.75-.36,1.16-.48.44-.12.84-.56,1.28,0,.36.44.09.84.02,1.3-.06.43-.34.74-.76.86-.52.14-1.03.24-1.55.36l-.16-.05ZM248.11,61.33c.03-.14.03-.29.08-.41.09-.2.06-.17.31-.21,1.15-.13,2.3-.26,3.44-.38.35-.04.7.33.74.66.03.34-.18,1.01-.59,1.04-.35.02-.7.07-1.05.01-.93-.14-1.87-.33-2.8-.5l-.14-.2ZM83.3,27.5c-.29-.03-.59-.06-.88-.1-.26-.04-.53-.43-.47-.68.07-.26.16-.52.24-.78.08-.28.34-.47.62-.47.61-.02,1.23.02,1.84.05.34.02.63.43.64.75.01.38-.19.94-.61,1.01-.45.08-.9.14-1.35.21h-.04ZM16.99,49.65c-.05.49-.1.99-.16,1.48-.05.35-.3.66-.66.7-.33.04-.65,0-.89-.25-.12-.12-.23-.31-.21-.49.07-.8.16-1.61.28-2.41.05-.36.34-.54.64-.68.24-.12.7-.02.76.28.08.44.16.87.23,1.31v.05ZM104.56,53.45c1.05.08,2.06.35,3.04.72.3.11.36.4.35.69,0,.26-.28.57-.54.58-.17.01-.3.06-.47.01-.98-.32-1.95-.64-2.91-.97-.17-.06-.27-.35-.25-.53.02-.16.16-.34.31-.42.15-.08.29-.07.48-.09h0ZM73.06,5.24c.02-.07.05-.15.07-.22.07-.34.5-.58.82-.55.29.02.53.21.59.5.16.81.28,1.62.41,2.43.03.15,0,.29,0,.44-.01.27-.33.61-.61.55-.21-.04-.56-.1-.64-.32-.37-.88-.65-1.82-.64-2.78v-.05ZM12.06,50.34c.15-1.01.58-1.83,1.73-1.65.17.03.39.18.44.35.27.87.1,1.47-.13,2.32-.45.11-.72.1-.99.06-.57-.11-1.16-.41-1.05-1.08h0ZM308.93,8.59c-.02-.58.19-1.07.77-1.28.45-.15.91-.27,1.37-.38.37-.1.73.32.73.67,0,.4-.11.81-.46,1.03-.39.27-.83.48-1.26.69-.71.35-1.17.05-1.15-.73h0ZM158.68,17.79c.15-.08.3-.2.47-.2.82,0,1.65,0,2.47.06,1.22.07,2.44.19,3.65.07.16-.02.3.03.45.07.25.06.41.28.32.54-.06.15-.22.37-.4.37-.55,0-1.13.05-1.67-.1-.92-.25-1.85-.25-2.79-.23-.62.02-1.24-.02-1.86-.05-.22,0-.42-.13-.63-.19l-.41-.14.39-.19h0ZM92.28,6.44c-.15.12-.24.32-.47.33-.85.03-1.63-.28-2.4-.57-.29-.1-.53-.62-.42-.9.12-.32.55-.83.94-.72.64.2,1.28.39,1.9.64.47.18.54.65.52,1.1l-.06.13ZM189.21,63.62c-.35,0-.73.02-1.08,0-.45-.04-.69-.35-.87-.74-.12-.26.06-.66.34-.73,1.13-.28,2.25-.21,3.32.26.17.07.26.34.24.52,0,.17-.15.44-.34.47-.53.09-1.07.14-1.62.22h0ZM326.54,63.51c0,.42-.17.78-.56.97-.57.29-1.15.5-1.79.56-.46.04-.86-.47-.68-.91.09-.21.18-.43.35-.58.54-.48,1.2-.71,1.89-.86.48-.11.83.37.8.81h0ZM118.81,57.49c-.4-.06-.8-.12-1.18-.2-.53-.11-.74-.61-.73-1.11,0-.17.14-.42.31-.47.78-.24,1.55-.12,2.26.26.31.16.48.5.45.86-.02.22-.19.48-.39.6-.21.12-.46.06-.72.07h0ZM100.25,7.7c.75,0,1.45.16,2.11.49.2.1.34.29.48.47.23.29.03.9-.35.95-.94.11-1.82-.08-2.67-.48-.29-.13-.41-.66-.32-.94.09-.28.3-.43.58-.48.05,0,.11,0,.18-.01h0ZM160.92,60.23c.34.04.67.05.99.12.23.04.47.14.64.3.17.15.24.4.29.61.08.31-.31.62-.6.59-.75-.08-1.51-.16-2.26-.24-.2-.02-.14.06-.31-.12-.14-.17-.37-.34-.37-.58,0-.25.26-.55.48-.6.36-.09.74-.06,1.13-.08h0ZM90.63,34.24c-.01.19-.02.38-.05.56-.06.61-.46.94-1,1.12-.41.14-.92-.11-1.01-.55-.09-.42-.07-.85.07-1.27.17-.58.7-.82,1.28-.8.34.02.67.33.68.67,0,.08.01.16.02.27h0ZM313.03,7.98c-.14-.15-.3-.25-.38-.46-.07-.22-.06-.46-.03-.68.04-.34.17-.67.52-.79.45-.16.9-.29,1.35-.43.3-.09.8.06.9.39.1.33.03.93-.27,1.13-.6.43-1.2.76-1.95.89l-.16-.05ZM315.84,65.14c.44-.05.71-.05.98-.05.29,0,.62.25.56.56-.03.21-.11.42-.22.6-.09.14-.27.25-.43.29-.74.2-1.5.26-2.26.16-.29-.04-.5-.26-.53-.56-.03-.31.12-.75.43-.87.14-.05.26-.13.43-.13.34-.02.69-.01,1.04-.01h0ZM279.12,56.49c-.3-.23-.47-.51-.36-.89.09-.33.32-.57.65-.67.51-.17,1.03-.31,1.55-.45.28-.07.84-.03.94.3.11.35-.12,1.12-.47,1.29-.14.06-.25.14-.41.17-.59.1-1.18.19-1.77.29l-.13-.04ZM373.93,50.29c.01.1,0,.25,0,.36,0,.14-.04.28-.07.42-.06.29-.47.59-.76.62-.36.04-.69-.27-.77-.6-.15-.65-.02-1.26.09-1.89.08-.5.56-.61,1-.55.29.04.52.23.54.53.04.33-.02.77-.05,1.1h0ZM371.62,50.42c-.01.32-.01.65-.06.96-.04.3-.24.51-.54.55-.33.06-.79-.22-.82-.58-.03-.68-.04-1.37-.07-2.05,0-.2-.08-.18.12-.33.16-.14.35-.34.58-.34s.58.21.63.44c.09.44.11.88.15,1.35h0ZM78.89,25.88c.05-.22.03-.42.17-.61.13-.18.38-.35.6-.38.23-.04.42.08.64.13,1.08.22,1.13.82.72,1.72-.09.21-.41.46-.65.43-.41-.05-.8-.19-1.18-.34-.17-.07-.26-.29-.3-.45-.04-.16,0-.32,0-.51h0ZM362.88,55.67c-.99-.02-1.33-.57-1.29-1.51,0-.18.13-.38.28-.47.53-.32,1.12-.4,1.71-.17.21.09.42.29.51.48.1.2.11.45.11.67.01.55-.35.92-.89.97-.14.01-.27.01-.42.02h0ZM146.4,17.25c-.96-.19-1.85-.17-2.72-.7-.16-.1-.25-.34-.22-.52.02-.17.21-.41.39-.41.72-.03,2.63.3,3.27.6.17.09.27.36.24.54-.02.17-.2.33-.34.4-.16.07-.38.07-.55.1h-.06ZM309.46,65.67c.05.47-.09,1.06-.66.98-.22-.02-.42-.05-.63-.12-.39-.13-.75-.32-.8-.78-.07-.47.1-.91.47-1.22.38-.33,1.1-.15,1.33.29.15.29.2.53.3.85h0ZM110.1,54.39c.12,0,.24.01.36.03.73.08,1.17.89.95,1.56-.06.18-.32.29-.49.29-.57.03-1.12-.11-1.65-.33-.29-.12-.56-.48-.52-.8.03-.3.36-.68.67-.72.07,0,.13-.03.21-.03.15,0,.31,0,.47,0h0ZM357.56,55.17c-.19-.01-.39-.02-.57-.04-.41-.06-.77-.37-.83-.79-.03-.27-.02-.55,0-.82.02-.33.43-.71.76-.65.33.07.68.15.98.29.51.25.76,1.26.36,1.68-.2.21-.38.2-.61.31l-.08.02ZM333.85,17.94c.06.08.13.11.15.22.08.32,0,.76-.31.91-.72.38-1.43.74-2.16,1.09-.14.08-.34.09-.5.06-.17-.04-.36-.14-.44-.29-.08-.16-.07-.41.01-.55.12-.19.28-.39.48-.49.79-.37,1.59-.71,2.4-1.06.12-.04.18.01.27.04l.09.06ZM103.94,9.25c.12-.1.19-.22.34-.27.15-.05.35-.05.5-.02.74.18,1.46.36,2.19.56.11.03.13.08.2.12.24.1.43.44.35.71-.09.29-.38.5-.68.42-.8-.2-1.59-.39-2.39-.63-.23-.06-.36-.26-.52-.42-.11-.1-.05-.21-.05-.33l.05-.13ZM324.02,7.31c-.03.29-.05.57-.1.86-.03.19-.2.28-.32.39-.21.2-.71.11-.81-.17-.3-.82-.3-1.67-.06-2.52.06-.18.29-.29.45-.32.28-.07.54.03.72.26.12.15.12.04.12.28.01.4,0,.8,0,1.23h0ZM88.45,43.41c0-.7.24-1.22.98-1.31.34-.04.76.21.79.58.02.34.05.69.02,1.03-.06.54-.46.77-.93.94-.26.09-.64-.12-.7-.4-.06-.27-.1-.54-.15-.84h0ZM361.36,14.27c-.36-.05-.74-.09-1.1-.14-.31-.05-.74-.47-.6-.81.09-.2.3-.49.54-.51.62-.05,1.23-.05,1.85-.04.18,0,.29.11.43.2.23.13.36.54.23.78-.09.14-.2.32-.36.36-.31.08-.62.11-.94.16h-.05ZM326.48,3.42c-.02.17-.02.42-.1.57-.1.19-.23.38-.4.52-.28.22-.76.02-.96-.24-.51-.65-.39-1.73.28-2.22.08-.06.14-.06.22-.09.25-.11.69.06.75.34.08.36.14.71.21,1.08v.05ZM335.23,21c-.06-.07-.12-.11-.16-.2-.23-.53-.16-1.22.45-1.42.45-.15.9-.3,1.38-.38.23-.04.5.18.63.35.2.24.14.59-.09.79-.53.47-1.15.8-1.86.93-.09.02-.15,0-.24,0l-.11-.06ZM305.22,9.08c.5.46.44.97.22,1.54-.25.64-1.33.84-1.87.48-.14-.1-.25-.3-.27-.46-.07-.49.13-1,.59-1.22.14-.06.27-.1.41-.14.25-.08.5-.16.76-.24l.17.04ZM316.72,6.55c-.34-.22-.52-.5-.46-.91.03-.34.21-.63.53-.79.58-.27,1.19-.49,1.84-.47.18.01.46.14.5.34.04.21,0,.45-.06.66-.05.16-.21.31-.37.38-.6.27-1.21.52-1.81.79h-.17ZM365.95,55.49c-.46.02-.97-.28-1.01-.77-.02-.35.2-.91.57-1.02.33-.09.67-.16,1.01-.2.46-.06.88.15.92.65.05.52-.08.98-.6,1.17-.14.05-.27.09-.41.12-.16.03-.31.04-.47.05h0ZM309.51,38.34c-.03.17-.06.31-.1.48-.11.38-.6.63-.99.58-.33-.04-.64-.34-.67-.69-.02-.34-.02-.67,0-1.01.03-.46.5-.69.92-.67.44,0,.82.28.85.74.01.18,0,.36,0,.57h0ZM311.71,33.56c-.37.02-.79.02-.99-.35-.33-.63-.16-1.39.6-1.54.14-.03.27-.05.41-.08.97-.13,1.36.48,1.04,1.35-.08.21-.3.39-.5.49-.2.1-.34.08-.56.12h0ZM22.07,21.41c.19.1.34.13.48.31.29.38.35.83.3,1.29-.03.29-.41.54-.69.45-.32-.12-.66-.22-.97-.38-.37-.19-.6-.67-.47-1.08.11-.36.4-.51.74-.6.16-.04.35-.02.52-.03l.1.03ZM96.34,6.57c.64.11,1.24.3,1.78.66.28.19.43.74.17,1-.16.16-.41.34-.65.31-.42-.05-.83-.17-1.22-.3-.52-.17-.7-.76-.54-1.24.06-.17.19-.24.29-.36l.16-.06ZM311.87,34.24c.17.04.39.01.52.15.15.15.33.4.31.63-.06.62-.5.97-1.1,1.05-.64.07-1.15-.09-1.27-.79-.09-.55.42-.91.91-.99.19-.04.39-.04.58-.06h.05ZM109.05,10c.83.24,1.66.48,2.48.74.16.06.29.31.3.48,0,.17-.17.44-.36.45-.85.04-1.66.03-2.44-.35-.58-.28-.46-.76-.19-1.24l.21-.08ZM128.62,57.89c-1.17.18-2.29.2-3.46.03-.23-.03-.43-.2-.58-.36-.12-.13-.16-.39-.1-.55.06-.16.24-.29.4-.33.16-.05.33-.03.49,0,1.09.28,2.19.57,3.28.85l.82.21-.83.13h0ZM320.01,18.57c0,.74-.27,1.14-1,1.33-.31.09-.83-.12-.85-.48-.03-.34-.06-.69,0-1.03.08-.43.42-.67.81-.78.43-.12.92.07.98.54.02.14.03.27.05.42h0ZM131.2,13.02c.52-.02.87.21,1.02.7.23.78-.13,1.36-.98,1.27-.23-.02-.46-.07-.66-.19-.31-.18-.49-.48-.46-.85.02-.36.18-.65.52-.79.19-.08.35-.1.56-.14h0ZM323.35,17.11c-.12.25-.17.58-.39.78-.31.27-.68.46-1.04.65-.57.3-1.03-.19-.97-.78.02-.22.08-.49.25-.65.43-.4.96-.66,1.56-.64.23,0,.4.29.55.44l.04.2ZM86.99,27.36c-.2-.11-.45-.18-.6-.35-.3-.36-.01-1.25.46-1.33.41-.07.84-.09,1.26-.07.24.03.45.31.54.51.13.31-.05.82-.37.94-.38.13-.78.22-1.17.32l-.13-.02ZM310.31,66.05c.1-.69.33-1.01,1.07-.96.34.02.67.08,1,.12.36.07.51.5.52.81,0,.3-.17.55-.46.62-.35.07-.73.07-1.1.1-.29-.06-.52-.11-.75-.17-.26-.08-.32-.28-.28-.52h0ZM74.74,20.99c-.14.08-.27.23-.45.18-.7-.17-1.31-.53-1.79-1.06-.16-.17-.16-.48-.14-.7.01-.18.24-.42.43-.42.97-.03,1.86.68,2.07,1.62.03.1,0,.16-.02.26l-.1.12ZM137.75,15.92c-.3-.06-.56-.08-.85-.21-.31-.14-.52-.43-.56-.76-.03-.34.22-.75.57-.8.59-.08,1.1.13,1.64.34.29.12.43.63.38.91-.06.34-.45.57-.78.56-.12-.01-.25-.02-.4-.04h0ZM321.38,15.97c-.12-.11-.34-.21-.36-.39-.1-.59.09-1.09.64-1.37.25-.13.52-.2.78-.28.35-.1.76.07.85.44.08.28-.03.79-.31.93-.46.24-.94.47-1.41.7l-.19-.03ZM89.16,28.86c.04-.19.06-.38.11-.57.17-.53.9-.86,1.41-.62.16.07.3.24.35.4.13.49.06.96-.37,1.29-.23.17-.49.27-.74.39-.26.12-.7-.1-.73-.39-.01-.15-.02-.31-.02-.5h0ZM102.47,53.58c-.1.14-.16.35-.36.36-.78.06-1.54-.06-2.24-.4-.25-.12-.36-.56-.23-.79.08-.15.21-.34.39-.37.92-.12,1.74.09,2.36.8.08.08.08.14.11.24l-.03.16ZM122.24,57.92c-.31-.07-.59-.1-.9-.21-.32-.13-.59-.43-.58-.79,0-.22.19-.6.43-.64.65-.1,1.32-.08,1.91.24.21.11.34.38.39.61.1.34-.34.75-.66.77-.18.01-.36.02-.54.03h-.04ZM62.08,64.51c.44.13.88.24,1.32.39.43.13.57.74.4,1.12-.07.16-.25.38-.44.36-.42-.04-.82-.11-1.23-.21-.36-.09-.56-.37-.63-.72-.08-.41.09-.7.45-.91l.14-.02ZM84.79,67.19c.31.04.63.06.95.14.17.05.23.28.29.43.06.22.03.26-.16.36-.76.48-1.55.67-2.42.37-.26-.1-.43-.48-.32-.74.07-.15.2-.33.37-.37.41-.09.83-.13,1.25-.19h.05ZM227.67,19.34c-1.42.24-2.85.29-4.29.24-.18,0-.25-.15-.36-.25l-.15-.14.16-.13c.12-.11.19-.24.37-.28.98-.2,1.94-.26,2.91.02.44.12.91.13,1.36.2l1.12.15-1.12.19h0ZM139.65,60.38c-1.09.11-3.08.22-4.06-.33-.13-.08-.09-.2-.09-.31,1.72-.24,2.73-.21,4.19.3l.75.26-.79.08h0ZM311.93,24.63c.32.07.63.11.95.2.31.1.38.39.37.68,0,.28-.27.56-.54.58-.6.04-1.17-.03-1.68-.37-.14-.1-.22-.35-.19-.52.03-.17.18-.37.34-.43.21-.08.47-.09.69-.13h.07ZM337.62,17.03c-.02.16.02.34-.1.47-.45.47-.99.81-1.62,1-.17.05-.39-.03-.53-.14-.12-.12-.24-.33-.21-.51.09-.5.27-.94.8-1.07.4-.1.8-.18,1.22-.22.19-.02.29.21.4.33l.04.14ZM90.33,40.28c-.03.71-.57,1.1-1.26,1.07-.17,0-.38-.13-.46-.28-.41-.67-.17-1.46.61-1.69.66-.2,1.14.21,1.11.89h0ZM66.66,67.21c-.44-.1-.88-.21-1.33-.32-.21-.06-.17,0-.28-.22-.08-.19-.18-.37-.21-.58-.04-.31.29-.56.58-.55.07,0,.13-.02.21,0,.66.06,1.22.35,1.73.75.14.11.16.32.17.49.04.47-.55.51-.88.44h0ZM171.67,62.58c-.44-.06-.87-.12-1.29-.2-.34-.05-.58-.46-.58-.79,0-.17.14-.44.31-.47.73-.18,1.44-.06,2.09.27.2.1.32.37.38.57.1.33-.28.57-.56.57-.1,0-.22.02-.36.03h0ZM134.23,15.33c-.76-.04-1.13-.64-.9-1.36.09-.28.31-.47.61-.45.28.01.56.03.83.1.42.1.64.62.57,1.01-.05.33-.34.63-.67.67-.14.02-.28.02-.43.03h0ZM313.05,27.73c-.06.15-.06.3-.19.42-.54.5-1.18.59-1.85.31-.29-.12-.35-.39-.36-.66,0-.32.19-.73.5-.82.58-.17,1.15-.11,1.68.19.16.1.16.29.22.44v.13ZM85.62,3.66c.74-.02,1.44.12,2,.62.13.12.17.39.12.55-.05.16-.22.26-.36.33-.21.1-.13.04-.33-.02-.58-.18-1.18-.35-1.75-.55-.17-.06-.31-.31-.3-.48,0-.18.18-.29.3-.39.11-.08.2-.05.32-.06h0ZM92.66,42.58c-.07.3-.13.6-.22.91-.09.3-.35.38-.62.41-.29.02-.58-.24-.59-.53-.01-.4-.04-.81,0-1.22.02-.23.22-.42.38-.58.26-.28.87-.11.96.27.04.23.08.45.11.67v.07ZM164.86,62.19c-.26-.07-.5-.08-.75-.21-.21-.11-.32-.35-.43-.56-.12-.25.14-.7.41-.74.61-.1,1.17.03,1.69.36.21.13.47.59.25.8-.11.11-.23.22-.39.26-.22.06-.48.06-.71.09h-.06ZM296.71,12.57c-.11-.07-.3-.15-.27-.32.02-.16.05-.38.2-.47.58-.38,1.2-.68,1.9-.74.23-.02.54.2.62.41.08.22-.05.46-.12.66-.08.23-.08.16-.26.22-.64.23-1.31.3-1.97.27l-.1-.03ZM308.29,8.91c.03.81-.67,1.33-1.46,1.15-.17-.04-.34-.2-.41-.36-.32-.78.17-1.46.98-1.54.45-.04.87.3.88.76h0ZM319.44,66.24c-.36.02-.8-.05-.94-.43-.14-.41.09-.9.5-1.05.2-.07.41-.12.6-.17.43-.1.91-.05,1.05.44.13.49-.16,1.04-.68,1.15-.17.03-.33.05-.52.06h0ZM61.2,19.44c-.04.51-.37.95-.92.74-.32-.12-.64-.26-.93-.44-.38-.21-.32-.94.01-1.19.42-.33.87-.25,1.33-.04.35.18.56.53.51.92h0ZM323.76,25.36c-.12-.05-.3-.07-.3-.25,0-.15,0-.37.15-.45.7-.4,1.4-.79,2.11-1.15.16-.09.38.02.52.11.29.16.26.58.06.79-.12.12-.16.26-.33.33-.68.29-1.39.55-2.13.63l-.08-.02ZM81.32,2.7c.73.05,1.43.11,2.02.6.14.11.14.32.15.48,0,.15-.2.29-.35.29-.76-.06-1.52-.13-2.23-.44-.18-.07-.29-.36-.26-.53.03-.17.22-.27.35-.36.1-.06.19-.04.32-.05h0ZM375.76,13.27c-.15-.11-.3-.18-.44-.32-.24-.24.07-.85.34-.96.08-.04.15-.07.25-.07.33-.01.67-.02,1-.01.27,0,.59.43.47.69-.08.19-.22.37-.38.51-.12.11-.3.14-.46.16-.22.03-.45.03-.67.04l-.11-.03ZM174.71,61.39c.23.06.45.1.67.19.16.07.28.28.3.45.05.28-.02.56-.29.71-.5.28-1.04.25-1.51-.09-.18-.14-.27-.4-.3-.62-.06-.37.22-.48.51-.56.17-.05.38-.05.55-.06h.06ZM320.19,21.28c-.25.6-.86.9-1.45,1.06-.18.06-.46-.13-.51-.31-.07-.21-.13-.49-.03-.7.3-.63,1.1-.94,1.75-.73.32.1.32.4.23.68h0ZM328.14,63.78c-.48,0-1-.36-.87-.88.14-.56.47-.97,1.08-1.04.17-.02.42.07.51.22.25.43.3.92-.03,1.32-.19.22-.38.24-.6.37l-.09.02ZM80,68.74c-.25-.04-.49-.08-.73-.13-.27-.06-.35-.3-.26-.55.08-.18,0-.16.2-.24.81-.33,1.65-.28,2.48-.03.13.05.16.2.17.32.02.12.02.27-.09.35-.12.09-.27.19-.44.2-.43.05-.86.05-1.33.08h0ZM316.15,20.77c-.15-.13-.4-.23-.42-.47-.05-.52,0-1.04.3-1.48.13-.19.45-.34.68-.3.23.03.5.25.57.47.21.63.04,1.21-.47,1.64-.14.11-.33.12-.5.17l-.17-.04ZM90.73,31.26c.04.94-.78,1.42-1.61,1.08-.41-.17-.43-.85-.19-1.17.3-.37.69-.53,1.15-.61.24-.05.44.03.53.28.04.13.08.26.12.42h0ZM312.13,29.33c.17.05.41.07.54.17.12.09.25.26.26.42.03.18,0,.43-.16.54-.57.41-1.2.49-1.85.2-.15-.06-.26-.26-.29-.43-.06-.29.05-.6.35-.69.34-.1.7-.14,1.06-.22h.07ZM376.73,50.19c.04-.21.04-.42.13-.63.07-.16.33-.29.5-.28.36.04.66.19.78.56.15.47.11,1-.32,1.32-.28.2-.89.07-.98-.29-.05-.2-.08-.41-.12-.62v-.06ZM90.31,37.35c-.01.82-.76,1.38-1.53,1.15-.17-.06-.32-.26-.35-.43-.11-.43.02-.81.36-1.09.34-.25.74-.39,1.13-.22.23.1.25.32.36.5l.03.09ZM157.48,59.79c.32.02.62.27.75.55.08.14.12.34.07.49-.06.16-.24.32-.41.35-.45.07-.88.01-1.26-.26-.22-.15-.37-.35-.34-.64.04-.31.26-.46.56-.49.19-.02.43,0,.63,0h0ZM309.54,35.25c.02.33-.16.61-.45.76-.3.17-.64.14-.93-.04-.14-.09-.28-.3-.28-.47,0-.22.05-.46.14-.66.15-.32.4-.56.78-.55.49.02.73.53.74.95h0ZM341.08,15.94c-.03.1-.02.16-.09.25-.33.44-.79.56-1.25.79-.3.15-.87.05-.94-.32-.06-.3.24-.71.51-.84.47-.22.97-.32,1.49-.21.1.02.14.08.22.15l.06.18ZM350.41,14.11c-.16-.14-.35-.24-.45-.43-.19-.32.1-.8.43-.91.42-.14.85-.14,1.29-.05.25.05.59.44.44.7-.08.14-.17.31-.33.37-.4.14-.8.23-1.21.34l-.16-.03ZM152.51,59.44c.86-.05,1.7-.03,2.51.29.15.07.31.25.34.42.02.18-.11.51-.31.52-.68.05-2.01-.34-2.6-.71-.12-.08-.09-.21-.1-.33l-.02-.18h.18ZM276.29,57.31c-.12-.19-.33-.37-.36-.59-.06-.58.19-.97.78-1.06.15-.02.31-.01.46,0,.3.04.56.21.56.54,0,.22-.06.55-.25.68-.29.21-.65.33-.98.48l-.22-.06ZM295.32,12.65c-.08.16-.12.38-.28.48-.35.2-.72.38-1.1.53-.17.06-.43.02-.56-.11-.15-.15-.29-.36-.33-.57-.04-.19.14-.46.31-.52.45-.16.9-.31,1.37-.39.24-.04.4.24.55.37l.04.21ZM141.35,16.4c-.31-.05-.62-.1-.93-.16-.36-.07-.54-.55-.45-.88.1-.34.43-.59.78-.56.46.04.89.19,1.22.51.17.16.2.45.2.68,0,.2-.28.29-.43.36-.1.04-.23.04-.34.05h-.05ZM86.76,41.44c-.18-.04-.34-.07-.51-.13-.32-.11-.65-.48-.5-.83.09-.21.26-.45.47-.52.27-.09.58-.1.86-.06.45.07.67.58.58,1-.1.4-.5.57-.9.54h0ZM374.63,50.12c.06-.25.1-.51.2-.76.07-.17.31-.3.49-.29.17.01.37.15.45.3.34.58.26,1.18-.12,1.71-.1.15-.38.2-.54.16-.16-.04-.33-.2-.39-.36-.07-.21-.07-.46-.1-.67v-.07ZM300.3,49.51c0,.38-.14.73-.38,1.02-.21.27-.87.54-1.15.28-.26-.25-.28-.57-.22-.9.12-.74.69-1.06,1.4-.85.17.05.22.22.32.35l.03.11ZM308.76,31.7c.43,0,.81.29.87.72.05.38-.08.89-.48,1.04-.21.07-.53.07-.71-.05-.45-.31-.52-1.11-.15-1.5.12-.12.27-.14.42-.19h.05ZM240.9,18.6c-.17-.03-.41-.03-.56-.12-.14-.08-.21-.24-.28-.38-.09-.23-.04-.25.12-.38.5-.38,1.07-.46,1.66-.3.18.06.32.31.32.48,0,.19-.15.41-.32.47-.29.1-.58.15-.87.23h-.08ZM302.27,10.81c-.06.16-.09.38-.21.51-.41.4-.94.52-1.49.37-.17-.05-.32-.24-.37-.41-.05-.16-.01-.42.11-.54.4-.38.9-.55,1.45-.51.23.02.33.25.47.39l.04.19ZM319.91,15.86c-.03.65-.83,1.16-1.42.9-.3-.13-.49-.68-.33-.96.2-.35.48-.6.88-.7.45-.11.89.29.87.75h0ZM380.89,12.8c-.15-.1-.4-.18-.45-.36-.05-.21-.12-.57.06-.73.44-.43,1.02-.59,1.62-.49.17.03.29.18.4.31.19.23.04.7-.22.8-.41.18-.83.32-1.25.48h-.16ZM309.2,28.3c-.52.04-.97-.39-.96-.91.01-.34.34-.64.67-.69.45-.07.86.2.93.65.07.42-.19.91-.64.95h0ZM359.98,53.31c.19.1.37.14.52.3.32.3.35.7.28,1.11-.06.3-.29.52-.6.52-.22,0-.53-.07-.67-.25-.32-.39-.3-.88-.14-1.33.06-.18.28-.24.43-.33h.18ZM170.48,18.21c.63-.25,1.26-.28,1.91-.1.26.07.4.3.26.56-.08.13-.16.32-.33.37-.49.16-1.01.13-1.48-.05-.22-.08-.3-.34-.43-.51l-.13-.19.2-.09h0ZM321.87,3.9c-.04.17-.03.33-.16.46-.2.2-.43.37-.67.52-.25.15-.6.18-.78-.12-.11-.19-.19-.5-.11-.71.21-.52.87-.84,1.4-.67.19.06.23.25.32.4l.02.13ZM11.3,50.16c0,.39-.16.71-.58.77-.33.05-.65.02-.91-.21-.13-.12-.23-.36-.19-.53.15-.58.94-.88,1.43-.52.15.11.15.27.22.42l.02.07ZM168.82,61.68c-.06.15-.06.29-.19.42-.3.34-.71.33-1.11.16-.34-.14-.57-.36-.57-.74,0-.11-.02-.24.08-.33.39-.33,1.12-.32,1.53-.06.16.09.17.25.24.4v.14ZM309.2,41.33c-.05.16-.05.3-.14.44-.19.3-.48.46-.85.42-.36-.03-.63-.4-.61-.76.01-.21.06-.43.12-.64.12-.35.53-.48.86-.43.36.04.62.37.62.73,0,.07,0,.15-.01.24h0ZM378.04,15.03c.12-.27.24-.53.37-.79.12-.24.67-.3.84-.1.49.58.25,1.49-.42,1.8-.41.19-.83-.04-.8-.5,0-.1,0-.22,0-.33l.02-.08ZM342.98,15.7c-.14-.11-.33-.2-.4-.36-.07-.15-.03-.38.06-.53.27-.39.69-.56,1.14-.64.31-.05.51.15.64.4.12.25.08.62-.18.76-.34.21-.74.34-1.13.39l-.13-.04ZM325.28,21.99s.1-.08.16-.11c.13-.07.27-.14.41-.21.22-.12.5-.12.6.16.05.17-.01.46-.18.54-.61.31-1.23.59-1.85.88-.14.06-.3.09-.45.11-.2.02-.39-.06-.36-.29.04-.15.06-.35.21-.43.46-.24.95-.46,1.45-.65h0ZM324.15,3.69c-.03.4-.32.86-.79.81-.41-.05-.75-.43-.75-.84,0-.58.34-.91.91-.9.49.02.66.5.63.93h0ZM70.33,4.88c-.11.22-.19.43-.34.64-.09.14-.3.22-.47.24-.33.03-.48-.21-.58-.48-.19-.51.03-.9.38-1.26.3-.29.78-.15.91.24.05.16.08.34.1.51v.11ZM116.04,12.1c-.1.12-.19.35-.39.32-.68-.11-1.35-.24-2.03-.38-.18-.04-.24-.27-.3-.42-.06-.21.12-.37.34-.34.71.09,1.38-.05,2.07.24.17.07.21.22.31.35v.22ZM92.74,45.71c-.01.56-.31.89-.87.95-.21.03-.16.09-.34-.07-.23-.23-.34-.53-.32-.85.01-.36.17-.64.51-.78.54-.23,1.04.19,1.02.75h0ZM18.79,52.92c.24.04.49.07.72.13.35.08.65.48.52.84-.1.27-.32.46-.62.45-.42-.03-.83-.08-1.24-.16-.17-.04-.33-.25-.36-.43-.02-.17.05-.43.21-.53.22-.13.44-.2.67-.29h.09ZM125.82,14.27c-.18-.05-.36-.09-.54-.15-.29-.09-.41-.59-.19-.8.47-.46,1.25-.41,1.7.05.21.21.05.71-.22.8-.08.03-.14.06-.22.07-.16.01-.31.02-.47.03h-.06ZM121.25,12.7c.71-.11,1.42-.07,2.07.28.16.08.22.3.3.45l.12.22-.24.04c-.81.13-1.55-.04-2.3-.36-.11-.05-.19-.19-.19-.31-.03-.21.02-.29.25-.32h0ZM315.18,27.11c.21.05.42.1.63.15.27.08.38.29.27.54-.07.17.02.14-.16.24-.56.33-1.13.36-1.67,0-.19-.11-.1-.08-.15-.25-.09-.25.01-.47.28-.54.24-.05.49-.1.74-.15h.08ZM358.25,13.78c-.69.11-1.31.12-1.96-.18l-.2-.1.14-.18c.13-.16.23-.42.45-.49.5-.19,1.03-.16,1.53.01.17.05.27.23.35.38.13.26-.02.5-.3.55h0ZM16.15,53.84c-.33-.09-.66-.19-.99-.28-.29-.09-.17-.31-.17-.35,0-.15-.05-.2.15-.31.5-.25,1.02-.19,1.51.02.16.07.3.29.32.46.01.17-.17.3-.3.39-.1.07-.34.07-.46.07h-.07ZM370.83,12.66c.22.03.44.04.65.12.16.06.26.23.33.39.11.25-.04.46-.29.53-.43.14-.87.18-1.3.04-.16-.05-.32-.27-.33-.44,0-.17.12-.41.27-.47.2-.1.39-.11.6-.16h.07ZM129.42,13.89c0,.35-.3.66-.65.69-.42.03-.83-.26-.89-.69-.07-.46.35-.8.78-.8.47,0,.76.33.76.8h0ZM94.4,7.55c-.09,0-.15.02-.25,0-.62-.14-.81-.7-.71-1.28.04-.27.31-.53.59-.5.57.04.81.43.86.96.01.15,0,.33-.07.47-.07.15-.19.2-.31.31l-.11.04ZM91.51,25.64c-.13.68-.5.93-1.18.96-.17,0-.36-.08-.47-.21-.2-.22-.17-.49-.02-.74.27-.43.69-.62,1.19-.52.23.04.29.22.43.35l.05.16ZM315.73,29.72c-.05.16-.05.37-.22.44-.31.13-.63.22-.96.29-.33.07-.58-.19-.6-.5-.02-.29.05-.53.33-.66.35-.17.72-.17,1.09-.04.17.05.22.2.32.31l.04.17ZM96.4,52.13c-.14.13-.23.35-.47.35-.59,0-1-.5-1-1.07,0-.18.19-.46.38-.46.6.01,1.07.43,1.13,1.03l-.05.14ZM326.02,12.59c.07.15.19.26.16.44-.06.61-.47.94-1.04,1.09-.3.07-.58-.31-.56-.58.05-.66.51-.89,1.06-1.07.11-.04.16,0,.26.03l.12.1ZM314.55,24.72c.41-.06.68.15.78.54.09.35-.03.74-.39.88-.44.16-.93-.17-.95-.64-.01-.37.17-.72.56-.78h0ZM318.22,25.83c-.37,0-.72-.36-.63-.73.14-.53.8-.9,1.31-.71.32.12.44.65.29.93-.21.4-.56.52-.98.51h0ZM87.98,23.29c-.07.09-.08.18-.22.21-.15.04-.34.1-.5.01-.47-.32-.67-.8-.59-1.36.02-.2.41-.31.56-.23.43.21.71.56.79,1.03.02.1,0,.16-.01.25l-.04.09ZM322.23,64.12c.14.08.3.11.38.27.27.55-.04,1.12-.61,1.3-.17.05-.44-.12-.5-.29-.14-.39-.11-.78.2-1.08.11-.11.23-.14.35-.21h.17ZM149.74,17.51c-.28-.08-.54-.16-.82-.25-.28-.12-.14-.34-.14-.36.01-.19-.03-.11.1-.26.15-.16.09-.18.32-.16.39.04.79.08,1.18.16.19.04.32.27.35.43.03.19-.2.35-.35.41-.16.05-.41.03-.59.05h-.05ZM75.56,16.48c.67-.06,1.31.4,1.37,1.09.03.31-.37.59-.66.49-.45-.16-.85-.4-.99-.89-.07-.21.07-.38.13-.57l.15-.12ZM321.47,12.32c-.11-.06-.22-.08-.25-.21-.04-.16-.09-.4.05-.52.42-.34.88-.59,1.43-.51.24.04.23,0,.31.22.06.2.05.14-.1.34-.33.45-.8.6-1.33.69l-.11-.02ZM234.8,61.25c-.03.1-.01.16-.11.24-.43.37-1.14.39-1.47-.1-.1-.15-.09-.44.03-.57.39-.4,1.14-.35,1.5.06.08.11.05.19.06.3v.07ZM306.65,64.81c-.13.17-.23.36-.41.49-.25.19-.56.1-.76-.12s-.23-.49-.1-.75c.15-.3.59-.63.9-.34.16.14.25.34.37.51v.21ZM368.9,54.72c-.43.01-.84-.37-.67-.79.14-.32.36-.55.71-.62.21-.03.1-.09.32.04.27.16.36.78.18,1.02-.14.17-.29.21-.46.32l-.09.03ZM199.67,18.84c-.16-.03-.32-.05-.47-.1-.14-.04-.32-.07-.27-.33.04-.16.08-.33.21-.45.5-.4,1-.28,1.51.02.2.11.11.09.16.26.08.27-.08.45-.34.5-.24.04-.49.08-.74.11h-.06ZM309.91,25.15c-.02.09-.01.16-.08.25-.2.29-.67.33-.95.17-.29-.17-.47-.59-.32-.9.09-.2,0-.13.23-.23.47-.19,1.02.16,1.12.65v.07ZM71.51,9.05c.54.15,1.03.41,1.4.85.12.15.15.22,0,.37-.12.15-.13.21-.36.14-.42-.18-.85-.35-1.27-.56-.16-.09-.15-.33-.15-.5,0-.14.12-.19.21-.27l.16-.03ZM76.18,13.35c-.09.13-.13.3-.31.36-.17.06-.36.02-.52-.05-.39-.17-.74-.38-.76-.85,0-.19.21-.42.38-.45.52-.07.94.15,1.19.61.06.1.03.17.04.28l-.03.11ZM72.04,13.19c.55.04.98.3,1.33.71.12.14.24.24.06.42-.11.12-.24.26-.41.27-.6.02-1.02-.31-1.28-.83-.11-.21-.09-.14,0-.34.05-.1.11-.12.18-.2l.13-.04ZM86.28,17.13c.08,0,.15,0,.23.03.4.13.58.46.7.84.05.17-.03.41-.16.52-.13.11-.39.15-.54.07-.45-.25-.66-.66-.54-1.17.03-.12.1-.15.16-.23l.15-.06ZM92.84,48.09c.04.46-.24.86-.72.87-.35.01-.78-.23-.75-.62.02-.43.31-.75.72-.87.39-.11.72.26.75.61h0ZM308.9,29.31c.38-.04.69.26.73.63.04.38-.17.72-.56.77-.36.04-.72-.1-.84-.47-.15-.46.22-.88.67-.94h0ZM22.39,20.15c-.34.43-.89.63-1.4.42-.21-.09-.16-.12-.19-.29-.02-.16-.1-.18.1-.34.36-.29.74-.5,1.21-.38.25.05.17.03.26.21.06.1.04.16.04.25l-.03.13ZM319.58,12.82c.07.35-.15.69-.47.83-.29.13-.83.07-.95-.27-.06-.15-.04-.35.02-.5.14-.34.43-.47.77-.52.3-.04.58.18.63.46h0ZM313.84,21.7c-.08-.06-.15-.06-.21-.16-.34-.57-.22-1.26.34-1.64.22-.15.45-.09.59.13.31.52.29,1.04-.13,1.51-.12.13-.28.12-.43.18l-.16-.02ZM92.42,39.53c-.02.31-.13.58-.41.74-.11.06-.23.12-.35.06-.14-.08-.35-.18-.36-.35-.02-.28-.02-.56.02-.84.04-.31.3-.51.6-.51.34,0,.44.27.5.55.02.1,0,.23,0,.34h0ZM131.09,57.83c.65-.19,1.27-.09,1.9.06l.81.2-.82.14c-.63.12-1.27.13-1.89-.08l-.54-.18.54-.15h0ZM119.24,12.77c-.49.34-.96.21-1.48.06-.17-.05-.21-.3-.23-.46-.02-.15.14-.31.29-.32.56-.09,1.04.05,1.45.45l.14.14-.17.12h0ZM81.59,19.72c-.08.16-.12.4-.3.47-.17.06-.42-.04-.54-.16-.16-.15-.27-.34-.37-.54-.13-.26,0-.67.29-.76.3-.1.55.05.72.3.13.18.14.36.21.57v.12ZM88.07,67.91c-.11-.09-.24-.18-.32-.3-.08-.12,0-.33.1-.42.38-.29.8-.44,1.27-.27.13.05.29.05.26.31-.03.16-.06.41-.24.47-.3.11-.61.16-.92.24l-.15-.04ZM24.15,20.07c-.13-.07-.26-.1-.38-.21-.25-.22-.03-.67.23-.77.2-.08.41-.13.61-.16.31-.04.64.29.56.59-.03.15-.14.27-.24.38-.16.17-.1.09-.28.12-.13.03-.27.04-.41.05h-.1ZM373.19,13.46c-.09-.14-.26-.27-.21-.45.04-.2.16-.44.33-.57.29-.2.72-.2.95.1.11.13.15.38.07.53-.21.41-.57.43-.97.47l-.17-.08ZM322.2,23.79c0,.1.02.17-.03.27-.29.52-.77.75-1.35.68-.21-.03-.34-.41-.27-.58.25-.62.71-.74,1.34-.67.13.01.17.09.25.15l.08.15ZM316.23,17.47c-.16-.04-.38-.21-.4-.38-.05-.45.2-.83.64-.96.2-.06.13-.1.34.05.3.19.27.69.13.98-.14.27-.42.39-.72.32h0ZM69.49,67.95c-.18-.06-.36-.09-.54-.2-.14-.09-.25-.31-.23-.48s.2-.34.36-.39c.34-.1.66.01.89.28.1.13.19.37.1.53-.09.16-.29.19-.45.25h-.13ZM327.26,4.62c-.07-.13-.17-.21-.17-.37,0-.4.03-.79.08-1.18.03-.3.32-.37.56-.23.19.11.12.02.2.24.06.15.14.29.11.46-.05.45-.13.85-.5,1.15l-.17.13-.1-.19h0ZM92.35,66.53c-.03.16,0,.3-.1.43-.25.37-.63.47-1.05.4-.28-.06-.46-.54-.3-.77.24-.33.59-.49.99-.51.19,0,.27.17.4.28l.06.16ZM72.5,6.93c-.05.26-.21.59-.53.42-.51-.25-.71-1.02-.29-1.45.13-.13.55-.08.61.11.09.28.15.55.22.84v.08ZM72.43,15.26c.57.09,1.08.28,1.44.76.05.07.23.28.01.43-.13.09-.27.21-.45.18-.51-.1-.9-.38-1.23-.77-.14-.16-.17-.1-.12-.33.03-.13.13-.16.23-.23l.13-.03ZM13.91,53.11c-.08.08-.11.15-.23.19-.47.11-.9-.01-1.25-.36-.17-.18-.16-.15-.09-.36.04-.13.2-.26.33-.24.33.04.66.07.98.16.19.05.21.28.29.42l-.03.2ZM71.49,2.67c.11.02.19-.01.29.08.35.32.35.71.15,1.11-.11.22-.06.13-.24.2-.26.11-.54,0-.55-.31-.03-.26,0-.53.01-.81.02-.13.12-.16.2-.23l.14-.04ZM69.98,14.92c-.24-.68-.13-1.3-.14-1.99l-.03-1.21.37,1.15c.31.97.4,1.08.13,2.03l-.15.53-.18-.52h0ZM354.29,13.77c-.17-.02-.39,0-.54-.08-.15-.08-.21-.24-.27-.38-.1-.22-.05-.23.11-.37.34-.31,1-.37,1.33-.02.13.13.1.49-.04.6-.17.13-.32.16-.5.24h-.09ZM72.21,11.15c.29.14.58.28.86.45.15.1.24.37.19.55-.05.18-.38.35-.55.27-.31-.14-.61-.33-.89-.53-.14-.1-.12-.32-.11-.47,0-.18.23-.21.36-.27h.14ZM314.7,17.65c.03.34-.07.63-.33.86-.22.19-.68.1-.78-.19-.11-.32-.13-.67.11-.93.15-.16.43-.21.64-.21.2,0,.26.26.34.4l.02.07ZM10.02,51.72c.41-.07.78.02,1.09.32.14.12.22.19.09.38-.1.13-.19.3-.36.34-.4.09-.76-.06-1.09-.3-.16-.12-.22-.22-.09-.4.08-.11.18-.19.27-.28l.1-.05ZM77.53,68.5c-.58.37-1.09.19-1.71.17-.13,0-.17-.08-.25-.15l-.16-.11.13-.15c.09-.11.13-.25.31-.28.6-.08,1.16-.13,1.69.23l.22.15-.23.13h0ZM377.73,52.26c.13.14.3.21.34.42.08.33-.19.54-.48.59-.15.03-.35.03-.49-.05-.14-.08-.27-.28-.28-.45-.01-.17.1-.37.24-.45.14-.1.34-.1.5-.13l.16.06ZM325.3,7.45c-.15-.07-.38-.08-.43-.27-.12-.4-.06-.8.22-1.12.13-.15.32-.23.46-.03.12.18.25.34.3.55.07.35-.09.67-.38.86h-.17ZM94.14,64.84c.1.02.19,0,.28.08.34.34.02,1.12-.41,1.25-.18.05-.49-.16-.51-.34-.06-.43.16-.76.52-.97l.13-.02ZM324.36,16.18c0-.5.32-.87.82-.95.19-.03.47.22.44.4-.08.44-.51.86-.96.88-.16,0-.19-.13-.27-.23l-.03-.11ZM148.64,59.54c.73-.35,1.2-.28,1.94-.11l.49.11-.45.22c-.7.33-1.18.12-1.9.11h-.74s.67-.33.67-.33h0ZM370.7,54c-.1-.17-.23-.28-.25-.5-.04-.35.46-.77.78-.6.19.11.38.33.41.54.06.36-.48.68-.8.64l-.14-.09ZM168.14,18.79c-.17-.04-.34-.08-.52-.14-.14-.03-.24-.24-.19-.37.05-.15.11-.37.28-.42.39-.1.77-.05,1.11.16.19.12.1.07.16.23.1.26-.07.46-.32.5-.15.03-.32.03-.48.05h-.06ZM306.73,26.67c-.04.15-.03.29-.15.43-.1.12-.29.13-.44.14-.14,0-.32-.18-.31-.32.03-.26.07-.53.15-.79.06-.17.28-.2.42-.23.27-.08.3.2.31.3.02.13.02.28.03.41v.06ZM78.89,3.1c-.13.08-.21.19-.37.22-.29.05-.56-.05-.68-.32-.1-.2-.11-.21.05-.38.25-.27.71-.23.98.02.09.09.07.17.1.28l-.07.18ZM314.5,14.72c-.03.16-.02.3-.14.44-.11.12-.29.14-.45.17-.23.02-.26-.08-.31-.27-.04-.15-.08-.3-.04-.46.04-.15.16-.29.28-.38.31-.22.63.15.67.46v.05ZM74.09,2.81c0,.1,0,.16-.06.26-.2.32-.6.43-.92.23-.15-.09-.26-.35-.23-.52.09-.38.5-.58.86-.42.15.06.2.19.3.3l.04.14ZM85.93,14.53c.11-.02.23-.08.34.03.18.19.36.38.49.61.1.16,0,.44-.13.55-.13.11-.37.15-.53.09-.43-.16-.58-.59-.45-1.01.03-.11.1-.14.17-.21l.11-.06ZM266.08,15.65c.04.06.09.13.14.19l.19.24-.31.04c-.46.05-.93.12-1.4.15-.18,0-.26-.16-.38-.25l-.15-.14.15-.13c.09-.07.14-.16.27-.16.45-.01.89,0,1.33,0l.14.07ZM318.68,27.27c-.26.3-.58.5-1,.45-.19-.02-.3-.05-.3-.29,0-.15,0-.4.18-.48.25-.11.51-.16.77-.22.23-.04.19-.02.33.14.08.09.05.16.06.26l-.04.13ZM76.45,20.96c.65-.21,1.13.28,1.04.93-.19.2-.29.37-.46.34-.45-.05-.92-.54-.84-1.01.04-.24.07-.2.26-.26h0ZM87.64,20.61c-.05.09-.06.17-.14.23-.17.13-.1.12-.32.07-.33-.07-.61-.23-.76-.55-.08-.18-.12-.11-.01-.33.06-.12.21-.25.34-.22.41.07.75.25.9.66v.14ZM8.13,51.52c-.07.08-.09.19-.23.21-.44.09-.74-.16-1.03-.45-.14-.14-.14-.23-.01-.38.14-.14.05-.14.3-.14.43,0,.77.2.99.56l-.02.2ZM321.04,26.46c-.06-.06-.13-.12-.19-.18l-.17-.15.19-.13c.22-.15.43-.33.67-.44.18-.08.34.07.49.13l.22.1-.16.18c-.06.07-.08.14-.18.2-.22.11-.45.21-.67.32l-.19-.03ZM306.14,46.72c.13.09.33.14.35.33.03.27.03.54-.01.81-.03.17-.23.33-.39.38-.17.04-.42-.17-.45-.34-.03-.27-.03-.55,0-.81.02-.17.18-.24.29-.34l.23-.02ZM92.33,34c-.04.14-.07.28-.12.41-.07.17-.19.29-.38.18-.14-.08-.32-.17-.33-.35,0-.21.02-.44.1-.64.06-.17.21-.22.33-.32l.19-.16.09.23c.04.13.1.25.13.38.03.09,0,.16,0,.28h0ZM305.41,35.97c-.24-.43-.17-.86,0-1.29l.17-.4.16.4c.18.44.21.88-.03,1.29l-.16.27-.15-.27h0ZM92.32,36.6c-.03.17-.02.31-.12.44-.1.14-.34.24-.5.18-.28-.1-.41-.41-.3-.69.08-.19.24-.37.41-.48.33-.21.53.26.52.56h0ZM82.62,15.34c.07.17.16.32.19.51.01.18-.11.28-.18.41l-.09.16-.16-.1c-.14-.08-.27-.11-.36-.25-.19-.26-.17-.56.08-.75.09-.07.21-.07.32-.09l.2.11ZM174.91,18.87c-.18.05-.33.11-.52.11s-.38-.25-.37-.42c.01-.17.18-.34.34-.39.14-.05.3-.03.44,0,.23.04.2.01.28.23.04.12-.02.22-.05.33l-.12.13ZM76.27,18.89c.34.02.63.15.81.45.11.17.13.14.04.34-.08.17-.02.17-.29.21-.35.04-.59-.14-.85-.35-.07-.06-.1-.12-.15-.19l-.12-.14.17-.11c.09-.06.19-.12.29-.19l.1-.03ZM80.26,14.21c.14.16.29.29.37.48.08.16-.05.43-.2.53-.14.09-.46.06-.56-.09-.11-.17-.17-.39-.19-.58-.01-.19.22-.27.34-.36l.23.03ZM153.85,17.24c-.4.27-.72.28-1.18.24-.12-.01-.16-.08-.25-.14l-.17-.12.14-.15c.07-.07.1-.17.24-.17.38,0,.75.02,1.11.02h.55s-.45.32-.45.32h0ZM83.02,19.88c.11,0,.19-.04.3.04.33.25.38.54.25.91-.05.15-.24.29-.41.16-.14-.16-.31-.31-.41-.51-.08-.18.05-.33.11-.49l.16-.11ZM73.22,68.11c-.69.25-.73.24-1.42-.03l-.33-.13.31-.18c.49-.28.95-.16,1.44.02l.44.17-.44.15h0ZM211.57,61.9c-.11.11-.17.28-.35.29-.21.03-.43-.02-.62-.06-.26-.06-.39-.31-.28-.55.07-.15.16-.33.34-.37.32-.08.63.04.87.26.1.1.08.19.09.29l-.05.14ZM208.4,62.09c-.16-.11-.29-.16-.4-.33-.18-.28.25-.66.52-.67.3-.02.54.14.61.44.1.39-.29.58-.62.59l-.11-.04ZM76.09,15.41c-.34.37-.55.05-.84,0-.25-.07-.38-.26-.31-.51.04-.14.23-.26.36-.22.25.08.5.16.73.26.16.07.11.23.11.36l-.05.12ZM380.68,14.78c-.08-.06-.18-.11-.23-.2-.17-.28-.1-.58.17-.76.14-.1.39-.13.54-.04.15.09.32.41.2.58-.13.17-.3.28-.46.41h-.22ZM316.57,21.8c.32,0,.57.29.5.6-.07.33-.46.71-.8.55-.16-.07-.29-.27-.32-.43-.07-.43.2-.72.62-.72h0ZM70.22,18.35c.06-.12.1-.31.28-.3.15.01.33.03.42.16.11.19.2.39.23.6.03.18-.11.29-.19.43-.38-.02-.54-.05-.62-.22-.08-.19-.08-.37-.12-.55v-.11ZM381.9,52.4c.16.1.32.16.46.29.26.25.08.7-.28.7-.21.01-.43-.04-.61-.14-.16-.09-.23-.38-.16-.54.07-.17.27-.22.41-.3h.18ZM81.04,17.45c-.13.09-.23.22-.4.19-.33-.05-.57-.26-.72-.55-.12-.23-.05-.49.22-.57.5-.13,1.04.27.99.8l-.08.13ZM306.12,31.15c.05.22.15.52.14.73,0,.17-.1.27-.17.4l-.14.29-.17-.27c-.09-.13-.22-.23-.21-.4.02-.23.14-.53.21-.76l.19-.68.14.69h0ZM373.28,52.85c.11.09.26.13.3.3.09.34-.34.66-.65.48-.14-.09-.26-.33-.23-.5.04-.19.23-.22.37-.3l.2.02ZM302.43,48.55c.03.34-.45.67-.76.59-.22-.05-.2-.04-.26-.27-.09-.43.34-.66.72-.6.12.02.16.09.24.16l.06.12ZM58.1,18.82c0,.31-.28.62-.6.51-.27-.1-.47-.31-.41-.62.03-.16.21-.3.37-.37.32-.13.62.18.63.48h0ZM379.73,53.2c-.16-.11-.33-.19-.44-.36-.19-.27.06-.7.39-.67.29.02.52.21.53.51.01.17-.13.32-.22.46l-.09.18-.17-.12h0ZM238.81,18.17c-.06.14-.08.31-.25.38-.17.06-.29-.05-.44-.1l-.18-.06.08-.18c.07-.14.08-.31.25-.38.16-.08.3.05.45.11l.17.08-.08.16h0ZM379.13,11.99c.09.11.21.19.23.35.05.37-.35.64-.65.42-.14-.1-.24-.36-.18-.53.06-.17.24-.2.38-.29l.23.04ZM375.18,53.36c-.31-.05-.56-.39-.36-.67.1-.13.27-.22.43-.24.31-.03.58.4.4.66-.1.13-.23.15-.36.22l-.11.02ZM145.68,59.48c-.24.04-.54.13-.77.13-.16,0-.28-.08-.42-.14l-.41-.15.4-.18c.14-.06.23-.15.4-.15.25,0,.55.09.79.13l.95.17-.94.18h0ZM75.31,10.43c.07.04.13.05.2.1.24.17.42.51.16.75-.12.11-.36.14-.51.1-.3-.1-.48-.36-.36-.67.06-.16.22-.18.35-.26h.16ZM79.01,18.76s-.08.1-.12.16l-.12.15-.14-.13c-.16-.14-.33-.25-.44-.44-.12-.17.07-.56.27-.59.32-.03.54.2.58.51.02.1,0,.16,0,.25l-.04.1ZM306.95,34.62c.06.15.17.29.16.46,0,.21-.05.43-.09.63l-.07.43-.25-.36c-.27-.39-.24-.74-.08-1.16l.16-.43.16.43h0ZM325.49,20.03c-.16.11-.29.24-.49.3-.17.05-.34-.11-.45-.21-.22-.2.02-.4.03-.4.14-.24.38-.41.67-.31.16.05.21.24.3.38l-.06.24ZM310.41,19.61c.1,0,.17-.04.25.04.14.12.18.05.17.3-.01.26-.02.52-.06.77-.02.14-.18.28-.32.27-.26-.01-.21-.07-.29-.23-.18-.38-.16-.76.12-1.09l.13-.05ZM316.09,14.34c-.07-.07-.12-.1-.17-.19-.12-.29-.03-.57.22-.74.15-.11.44.05.52.19.18.28.07.55-.17.75-.1.09-.17.04-.28.04l-.12-.05ZM75.79,3.04c-.13-.06-.26-.08-.37-.21-.26-.28.22-.56.54-.49.17.04.23.15.34.24l.21.18-.24.12c-.11.06-.22.11-.33.16h-.16ZM92.78,27.96c-.05.11-.11.21-.17.32l-.15.31-.16-.31c-.07-.13-.16-.22-.16-.39s.09-.26.16-.39l.15-.3.16.29c.05.11.11.21.16.31v.16ZM203.58,18.36c-.01.12,0,.27-.16.28-.19.03-.38.06-.58.06-.14,0-.18-.1-.26-.18l-.22-.22.3-.07c.19-.05.37-.11.56-.14.14-.03.19.05.28.1l.09.16ZM98,52.97c-.27.09-.5-.05-.49-.34,0-.15.06-.26.1-.4l.08-.24.2.15c.12.09.23.13.32.25.16.23.05.46-.2.57h0ZM92.27,21.92c-.02.1-.02.17-.08.25-.11.17-.31.18-.43,0-.08-.11-.14-.24-.19-.37-.1-.23.13-.33.3-.34.27-.02.41.18.41.46h0ZM328.76,20.65c.09.07.19.09.2.23.04.32-.41.64-.71.59-.13-.02-.27-.17-.27-.3,0-.29.18-.49.45-.55.09-.03.14,0,.23,0l.1.04ZM309.21,21.39c-.06.11-.11.21-.16.32l-.15.3-.16-.3c-.07-.13-.18-.21-.18-.38,0-.17.1-.27.17-.4l.14-.29.17.28c.05.1.12.21.17.31v.16ZM84.49,17.14c-.1-.01-.17,0-.27-.06-.28-.22-.23-.53.14-.55.12-.01.28.07.33.18.07.11,0,.19-.02.29l-.19.13ZM92.35,30.85c-.01.17-.1.25-.16.39l-.19.4-.13-.41c-.05-.14-.12-.25-.11-.41,0-.16.09-.25.15-.38l.19-.39.14.4c.05.14.13.25.12.41h0ZM306.73,41.18c-.05.14-.06.27-.16.4-.24.32-.6-.11-.52-.51.03-.16.13-.25.21-.38l.17-.29.14.31c.05.11.11.23.16.35v.13ZM312.52,22.13c0,.18-.11.28-.18.42l-.18.34-.14-.36c-.06-.15-.15-.27-.15-.45,0-.16.12-.28.19-.42l.18-.34.14.37c.06.15.15.26.15.44h0ZM18.77,21.19c-.1-.06-.21-.13-.31-.19l-.28-.17.29-.15c.14-.07.25-.18.43-.18s.27.12.41.21l.27.17-.28.14c-.12.06-.23.11-.35.17h-.17ZM312.44,19.24c0,.17-.1.26-.19.4l-.17.31-.14-.32c-.07-.15-.17-.25-.17-.42,0-.17.12-.27.2-.4l.17-.3.14.33c.06.14.15.25.14.42h0ZM155.84,17.76c-.13,0-.26,0-.38,0-.2,0-.17-.17-.17-.29v-.19s.18.01.18.01c.13,0,.25,0,.37.02.19,0,.18.17.18.28,0,.18-.17.18-.17.18h0ZM69.56,8.5c.04.17.08.34.11.52.02.14-.09.2-.17.28-.32-.04-.43-.07-.44-.22,0-.19.01-.37.04-.54.01-.23.47-.26.47-.03h0ZM384.35,52.87c.26.11.36.37.16.59-.1.12-.23.15-.36.22l-.2.1-.06-.21c-.04-.15-.14-.29-.08-.46.07-.17.25-.18.4-.24h.13ZM325.45,10.44c-.09-.06-.17-.07-.22-.18-.15-.29.29-.61.56-.58.23.03.2.04.28.24.14.37-.21.57-.54.54l-.07-.02ZM379.72,50.05c.1.1.21.17.29.3.13.25-.03.46-.28.52-.12.03-.29.06-.37-.07-.08-.13-.17-.28-.15-.43,0-.18.17-.23.27-.32h.24ZM79.86,13.06c-.12-.06-.24-.1-.35-.18-.11-.08-.09-.17-.12-.28l-.05-.17.17-.04c.14-.03.25-.1.4-.08.27.03.41.28.32.53-.04.11-.1.13-.17.2l-.2.03ZM83.93,22.89c-.02.1-.01.17-.1.24-.27.22-.75-.05-.66-.39.05-.17.15-.31.35-.22.12.05.22.11.33.18l.08.19ZM8.17,49.99c-.13.05-.23.14-.4.12-.16-.02-.25-.12-.37-.19l-.32-.2.35-.12c.14-.05.24-.13.41-.11.16.01.24.11.37.19l.31.19-.34.13h0ZM79.05,21.08c-.12-.13-.25-.25-.36-.39-.13-.17.16-.47.33-.48.33,0,.5.24.47.55,0,.13-.1.2-.17.29l-.12.16-.14-.14h0ZM236.12,60.81c.12-.05.24-.11.37-.14.16-.03.34.17.33.32,0,.15-.19.34-.34.3-.14-.03-.25-.1-.37-.15l-.36-.18.37-.14h0ZM304.39,63.6c-.09.05-.13.12-.26.11-.31-.03-.5-.29-.23-.52.17-.14.13-.13.36-.05.11.05.12.12.18.2l.12.16-.18.1h0ZM219.25,19.08c.05.13.14.32.14.32l-.21.05c-.11.03-.21.1-.33,0-.3-.22-.11-.47.23-.48l.17.1ZM177.48,18.83c-.05.09-.07.17-.2.17-.08,0-.12-.02-.19-.04l-.22-.06.11-.2c.05-.09.07-.2.21-.19.08,0,.12.03.19.04l.21.07-.11.19h0ZM42.91,18.95c-.08.03-.13.07-.23.06-.11-.01-.14-.08-.21-.14l-.22-.19.28-.1c.08-.03.14-.08.24-.06.1.01.14.08.21.13l.25.21-.3.1h0ZM55.31,18.64c-.13-.09-.32-.23-.32-.23l.18-.14c.2-.15.42-.13.55.08l.12.18-.21.08-.32.03ZM53.57,18.59c-.08.01-.13.04-.21.03-.13,0-.15-.1-.19-.2l-.1-.19.21-.06c.08-.03.14-.05.22-.04.15,0,.16.12.21.22l.08.2-.21.04h0ZM83.08,17.88c.04.12.1.24.12.37.02.16-.1.21-.2.28l-.19.17-.08-.25c-.04-.12-.1-.23-.12-.37-.02-.15.1-.2.2-.28l.19-.16.09.23h0ZM157.27,17.37c.09-.03.13-.06.23-.04.32.08.38.37.08.5-.2.08-.16.04-.31-.03-.1-.05-.1-.12-.12-.21l-.05-.17.17-.04ZM312.46,15.58h-.62s.32-.85.32-.85l.3.85h0ZM287.48,13.85c0,.1.02.19-.1.26-.17.11-.08.12-.32.06-.11-.03-.13-.1-.21-.16l-.16-.15.19-.12c.08-.05.11-.11.22-.12.11-.02.17.02.25.05l.12.19ZM78.22,14.27c-.07.08-.09.13-.2.17-.33.11-.49-.33-.34-.61.05-.09.12-.1.2-.14l.17-.09.08.18c.04.11.08.21.12.31l-.03.18ZM306.32,44.01c-.1-.04-.22-.07-.22-.2,0-.09.02-.14.05-.21l.07-.18.17.08c.09.04.2.06.2.2,0,.09-.02.12-.05.21l-.06.18-.16-.07h0ZM306.05,28.66c.1.05.19.08.19.21,0,.08-.02.14-.04.22l-.06.23-.2-.13c-.09-.05-.19-.08-.19-.21,0-.09.02-.14.04-.22l.05-.21.2.1h0ZM79.33,22.24c.1.05.2.1.3.13l.22.1-.16.18c-.08.08-.13.19-.29.16-.12-.03-.22-.08-.32-.13l-.22-.1.16-.17.32-.18ZM81.15,21.45c.1-.04.16-.1.28-.05.31.1.37.4.07.57-.2.12-.22.09-.38-.06-.1-.09-.08-.17-.09-.28l.11-.19ZM324.89,18.44l-.25-.71.7.1-.45.62h0ZM206.42,62.22l-.29-.7.71.06-.42.64h0ZM89.03,22.2l-.21-.74.64.11-.43.63h0ZM70.96,16.38l-.69.28.1-.71.6.43h0ZM322.57,19.37s.58-.91.58-.91l-.26,1.22c-.21-.02-.5-.06-.5-.06l.18-.24h0ZM284.55,54.14c0-.2.34-.21.34-.21.03.44-.32.48-.34.21Z"/>
    </g>
  </g>
</svg>