<?xml version="1.0" encoding="UTF-8"?>
<svg id="Layer_2" data-name="Layer 2" xmlns="http://www.w3.org/2000/svg" viewBox="0 0 45.86 27.51">
  <defs>
    <style>
      .cls-1 {
        fill: #753d22;
        fill-rule: evenodd;
      }
    </style>
  </defs>
  <g id="Layer_2-2" data-name="Layer 2">
    <g>
      <path class="cls-1" d="M26.25,21.08c.06.25,0,.38-.18.39-.19.01-.4,0-.59-.03-.05,0-.08-.07-.12-.11.15-.14.28-.34.45-.39.13-.04.32.1.44.14h0ZM27.22,19.94c.13-.36.43-.62.63-.6.28.03.48.63.28.89-.14.19-.39.22-.58.11-.14-.1-.24-.28-.33-.39h0ZM13.59,14.42c-.42-.01-.83-.36-.75-.55.07-.19.19-.41.35-.51.4-.25.85-.1,1.13.34.1.15.08.31-.08.4-.25.14-.52.25-.65.32h0ZM40.65,3.01c-.58.2-1.6,1.05-2.36,1.48-.81.46-1.41,1.22-1.94,1.6-3.35,2.46-5.7,2.58-11.35,4.2-.89.1-1.88.47-2.7.86-2.23,1.05-4.49,2.03-6.6,3.33-1.52.94-3.17,1.68-4.64,2.72-3.18,2.26-6.16,4.74-8.66,7.77-.09.11-.14.26-.23.38-.14.22.08.66.34.7.15.03.3.04.54.09,1.61-.24,3.34-.14,5.03-.53.65-.14,1.32-.25,1.99-.34,2.6-.34,5.1-1.1,7.61-1.84,1.8-.54,3.47-1.35,5.22-1.98,1.52-.54,2.65-1.67,3.83-2.7.57-.48,1.09-1.02,1.62-1.54.6-.57,1.15-1.17,1.59-1.87.63-1.01,1.38-1.95,2.04-2.94.36-.56.91-1.06,1.21-1.67.31-.51.8-1.1,1.49-1.42,2.86-1.31,7.81-1.23,6.82-2.14-.47-.44-3.23-.16-3.86-.06-.48-1.13,3.3-2.12,3-4.1h0ZM16.28,10.26c.12-.34.67-.52.91-.28.41.42.81.86,1.2,1.29.14.17.24.37.08.58-.12.14-.47.2-.61.08-.52-.42-1.02-.83-1.52-1.27-.08-.07-.04-.27-.05-.41h0ZM15.34,13.42c.34-.16.74-.31,1.13-.51.36-.18.39-.64.1-.89-.35-.29-.75-.44-1.19-.51-.4-.06-1.03.41-.78,1.02.14.33.29.67.74.89h0ZM29.34,17.65c.71-.96,1.26-1.76,1.86-2.52.8-.99,1.6-2.19,2.5-3.09.9-.91,1.17-1.67,2.46-1.92,2.34-.46,4.83-.94,7.21-.74.45.04.91.06,1.34-.02.35-.07.68-.3,1-.47.16-.08.21-.44.09-.61-.17-.23-.33-.5-.56-.67-.89-.7-1.82-1.33-2.9-1.7-.54-.19-.75-.63-.57-1.25.29-1.01.42-2.05.9-3.01.1-.2.11-.43.16-.65.09-.45-.08-.87-.35-.96-.32-.11-.63-.04-.84.17-1.06,1.08-2.52,1.61-3.64,2.61-1.35,1.2-2.92,2.66-4.57,3.41-.74.34-1.25.45-1.99.82-1.46.76-3.07,1.24-4.65,1.72-2.15.64-4.33,1.37-6.58,2.18-.82-.39-1.58-1.08-2.23-1.91-.23-.29-.44-.61-.72-.84-.14-.1-.41-.05-.62-.06-.07,0-.14.05-.2.1-1.83,1.98-3.68,3.94-5.49,5.94-.8.89-1.55,1.81-1.92,3-.1.34-.4.62-.64.9-.14.17-.33.31-.51.44-2.29,1.6-4.17,3.64-6.18,5.55-.67.62-1.2,1.33-1.59,2.15-.06.12-.08.28-.09.43-.03.2.28.69.46.71.52.05,1.05.18,1.56.12,1.93-.23,3.88-.09,5.81-.41.66-.12,1.33-.22,2-.27,1.44-.1,2.73-.8,4.14-1.03.07-.01.14-.07.21-.09,2.5-.54,4.83-1.58,7.25-2.32,1.44-.44,2.89-.75,4.39-.8.97-.03,1.94-.15,2.91-.27.64-.08,1.02-.67.92-1.32-.09-.58-.24-1.17-.31-1.76-.06-.52,0-1.04,0-1.57Z"/>
      <path class="cls-1" d="M12.74,20.22c-.5-.17-.98-.36-1.49-.48-.28-.06-.6-.03-.88.01-.11.02-.26.17-.29.28-.04.12-.01.31.07.41.14.15.33.29.53.38.39.21.83.36,1.22.58.54.29.97.69,1.07,1.35.04.28.17.57.31.83.05.1.24.16.38.19.2.05.42-.17.41-.42-.02-.37-.04-.74-.09-1.11-.03-.22-.15-.44-.13-.64.02-.21.1-.48.26-.59.71-.53,1.45-1.07,2.22-1.52,3.12-1.79,6.23-3.58,9.38-5.32,1.17-.65,4.14-2.68,5.36-3.25.27-.12,1.83-1.11,2.06-1.29.09-.07.17-.31.12-.37-.11-.18-.28-.33-.46-.42-.11-.05-1.53,1.03-1.66,1.08-.28.12-.63.21-.89.35-1.18.65-4.01,2.76-5.23,3.35-1.69.81-3.27,1.81-4.91,2.72-2.16,1.19-4.34,2.35-6.52,3.52-.25.13-.55.22-.84.35Z"/>
      <path class="cls-1" d="M8.1,23.58c.54.07.95-.09,1.31-.39.33-.28.35-.91.03-1.2-.66-.63-1.55-.63-2.19.03-.13.13-.21.42-.17.61.12.56.55.9,1.02.95Z"/>
    </g>
  </g>
</svg>