<?xml version="1.0" encoding="UTF-8"?>
<svg id="Layer_2" data-name="Layer 2" xmlns="http://www.w3.org/2000/svg" viewBox="0 0 28.17 25.68">
  <defs>
    <style>
      .cls-1 {
        fill: #753d22;
        fill-rule: evenodd;
      }
    </style>
  </defs>
  <g id="Layer_2-2" data-name="Layer 2">
    <path class="cls-1" d="M1.32,10.74h.14s-.03-.1-.03-.1l-.1.1h0ZM16.07,8.31c.02-.09.09-.19.07-.28-.01-.09-.09-.19-.17-.23-.38-.19-.78-.15-1.18-.05-.03.01-.08.08-.08.11,0,.1.02.25.06.27.38.11.78.19,1.17.27.03,0,.08-.05.11-.09h0ZM18.51,10.13c-.3-.45-.61-.9-.93-1.35-.04-.04-.19-.06-.26-.03-.05.02-.11.16-.09.22.23.6.73.92,1.29,1.16h0ZM13.44,7.81c-.12-.04-.26-.12-.38-.11-.44.09-.84.31-1.2.58-.05.04-.08.19-.05.25.04.07.17.16.23.14.47-.15.96-.25,1.36-.55.05-.04.03-.18.04-.31h0ZM10.95,14.36c-.37.03-.72.06-1.06.09q.07.41.5,1.05c.08.11.12.29.33.18.11-.43.31-.84.23-1.32h0ZM7.96,15.06c.1.17.15.26.2.34.1.15.39.12.5-.06.19-.3.17-.8-.08-1.1-.05-.06-.18-.1-.27-.1-.35,0-.57.29-.47.6.04.14.1.27.12.32h0ZM10.06,9.27c-.14.14-.39.39-.63.63-.09.09.01.36.14.36.15,0,.32.04.44-.01.38-.17.67-.44.81-.84.03-.07-.03-.2-.08-.26-.05-.05-.17-.07-.26-.06-.1,0-.18.08-.42.18h0ZM15.74,18.45c.24-.16.38-.23.49-.33.06-.06.1-.15.12-.24.03-.07-.27-.18-.4-.13-.51.19-1.03.38-1.54.57-.03.01-.06.09-.04.14.01.09.04.22.1.25.12.06.3.12.42.08.33-.11.65-.26.84-.34h0ZM9.68,17.75c.34-.14.43-.43.34-.72-.06-.23-.22-.44-.36-.65-.1-.15-.36-.16-.53-.06-.17.1-.24.33-.16.52.15.38.34.71.71.92h0ZM9.04,11.41c-.21-.2-.71-.14-.84.09-.23.45-.43.92-.44,1.44,0,.04.04.09.08.1.04.02.11.03.15.01.67-.29.94-.89,1.11-1.54,0-.04-.04-.08-.06-.1h0ZM12.98,19.04c.02-.08.08-.17.07-.27-.01-.22-.17-.39-.34-.46-.42-.15-.86-.26-1.3-.38-.09-.02-.2.02-.29.03-.15.01-.38.25-.36.43.02.13.1.3.2.36.54.29,1.12.44,1.74.38.1,0,.19-.06.29-.1h0ZM13.6,12.38c-.38-.33-.66-.55-.9-.81-.24-.26-.42-.57-.63-.86-.13-.17-.38-.22-.54-.14-.98.5-1.47,1.36-1.81,2.34-.02.06.08.23.14.23.4.04.81.02,1.21.08.59.09,1.1-.02,1.6-.33.25-.17.53-.29.93-.51h0ZM15.8,10.02c.15,0,.31,0,.45-.04.37-.06.58.14.71.43.05.11.03.35-.05.41-.74.53-1.56.73-2.45.6-.36-.05-.66-.26-.92-.51-.34-.33-.55-.72-.69-1.17-.04-.12.07-.3.19-.37.2-.1.41-.14.58-.03.34.19.61.2.96-.07.34-.26.76-.06.98.34.08.13.16.26.23.39h0ZM16.5,16.06c.78-.32,1.14-.84,1.53-1.3.56-.67.53-1.4.19-2.16-.09-.2-.25-.32-.47-.35-1.04-.14-2,.57-2.07,1.56-.03.45,0,.92.04,1.37.02.31.18.59.41.8.07.06.18.1.27.1.1,0,.19-.06.1-.02h0ZM13.51,13.7c.13-.08.26-.16.4-.23.64-.35.81-.27.81.45,0,.92.01,1.84.49,2.67.08.13-.09.42-.27.48-.19.06-.38.16-.58.17-.35.03-.71,0-1.07.02-.57.04-.95-.21-1.22-.72-.39-.74-.3-1.46.31-2.09.11-.11.22-.22.35-.3.25-.17.52-.32.78-.48,0,0,0,.01,0,.01h0ZM2.39,11.65c.53-.08.96-.38,1.42-.59.57-.26,1.16-.37,1.78-.32.41.02.81.07,1.22.1.33.03.45-.04.6-.35.23-.46.18-.62-.21-.9-.9-.66-1.92-.91-3.02-.93-.62-.01-1.22.12-1.73.52-.06.05-.11.21-.08.25.21.29.19.56-.03.83-.19.24,0,.34.14.48.25.23.23.24,0,.62-.04.07-.06.16-.1.28h0ZM20.03,15.86c-.44.39-.45.39-.48.59-.06.33.23.4.42.55.32.26.65.49.95.77.59.54,1.31.8,2.06.96.93.2,1.83.14,2.61-.5.11-.1.24-.23.26-.37.05-.35.06-.7.06-1.06,0-.07-.13-.17-.21-.19-.19-.05-.41-.11-.59-.08-.45.07-.89.23-1.34.3-.34.06-.71.12-1.05.06-.76-.13-1.51-.27-2.15-.76-.16-.12-.36-.19-.53-.27h0ZM8.71,23.16c.37-.15.69-.31,1.03-.39.1-.02.27.12.36.22.04.05.01.2-.01.29-.04.1-.08.19-.15.27-.1.11-.22.2-.33.31-.11.11-.21.22-.31.33-.02.03-.01.12.02.14.07.04.19.1.22.08.27-.22.48-.58.89-.47.57.15.98-.09,1.38-.45.22-.2.41-.44.64-.64.49-.43.71-1,.78-1.61.09-.95-.08-1.15-.93-1.14-.35,0-.71-.07-1.13.12-.58.65-1.2,1.39-1.99,1.96-.2.14-.34.38-.46.6-.05.09,0,.25,0,.4h0ZM15.08,6.55c.64.13,1.13.24,1.62.34.21.05.36-.12.34-.37-.02-.31-.05-.61-.08-.91-.05-.73.12-1.41.46-2.05.12-.22.26-.44.37-.67.09-.18.21-.37.22-.55.01-.29.24-.58.06-.88-.34.04-.66.31-1.02.06-.18-.12-.38-.09-.57,0-.42.21-.76.49-.99.91-.44.83-.66,1.7-.57,2.64.04.45.09.9.15,1.47h0ZM24.24,7.62c.2.62.41,1.25,1.02,1.62.07.04.1.17.11.27,0,.09,0,.23-.06.29-.21.25-.5.35-.82.29-.27-.04-.46-.21-.56-.46-.26-.7-.31-.76-.57-1-.21-.18-.39-.21-.52-.04-.58.78-1.38,1.19-2.31,1.4-.19.05-.38.15-.54.26-.06.04-.11.21-.07.27.1.23.23.45.38.66.12.19.32.25.54.16,1.06-.43,2.16-.59,3.29-.58.15,0,.31,0,.46,0,.33,0,.59-.14.77-.42.19-.31.38-.61.54-.93.14-.27.07-.63-.15-.85-.36-.36-.75-.7-1.22-.9-.08-.04-.2,0-.29,0-.09-.08-.13-.08-.09,0,0,0,.06-.02.1-.03h0ZM18.22,16.2c-.04.27-.21.45-.44.58-.06.03-.16-.02-.24-.03.03-.04.05-.1.08-.13.21-.14.42-.28.64-.4.04-.08.08-.16.12-.23-.02.04-.03.07-.06.1-.03.04-.06.08-.1.12h0ZM19.62,13.62l-.05.05v-.06c.14-.25.07-.46-.08-.68.04-.02.09-.05.11-.09.01-.02-.02-.1-.03-.1-.09.01-.1.08-.04.2-.13.25-.04.46.09.67h0ZM6.81,12.06c-.7-.35-1.39-.45-2.09-.24-.54.16-1.06.38-1.57.61-.38.16-.77.28-1.18.31C.91,12.83-.06,11.92,0,10.86c.08-1.03.54-1.86,1.48-2.35.22-.12.45-.23.68-.34.75-.38,1.55-.54,2.38-.42.76.1,1.51.29,2.25.45.46.11.79.45,1.18.7.28.17.58.21.86,0,.85-.56,1.7-1.13,2.61-1.58.46-.23.92-.46,1.44-.51,1.17-.09,1.08-.17,1.02-1.19,0-.05,0-.1,0-.15-.08-2-.07-2.05.81-3.8.14-.28.34-.52.59-.69.6-.4,1.24-.71,1.98-.77.35-.03.72-.05,1.06-.14.54-.16.89-.05,1.06.52.02.09.1.17.19.23.49.34.48.86.47,1.38,0,.14-.12.27-.19.41-.02.04-.07.08-.11.1-1.7.89-1.94,2.38-1.64,4.06.15.81.47,1.56.98,2.23.13.17.3.27.53.22.29-.07.6-.14.89-.22.51-.14.94-.4,1.27-.8.23-.27.47-.55.7-.82.14-.15.27-.3.43-.43.8-.64,1.54-.67,2.39-.08.42.3.83.6,1.21.94.22.2.38.47.53.74.15.28.17.6.04.89-.17.37-.37.72-.56,1.09-.41.8-1.05,1.21-1.97,1.21-.56,0-1.12.05-1.68.12-.56.06-1.1.19-1.6.48-.23.14-.4.33-.45.6-.06.35-.11.71-.12,1.06-.04.96.13,1.26.99,1.69.62.31,1.28.35,1.95.25.25-.04.51-.09.74-.2.89-.43,1.87-.46,2.81-.69.3-.07.61-.03.87.19.14.12.14.44-.03.52-.22.11-.45.2-.69.29-.1.29.18.32.31.43.25.22.33.5.12.63-.35.23-.58.53-.78.91-.59,1.15-1.58,1.68-2.85,1.75-1.48.06-2.84-.24-4.01-1.21-.28-.23-.58-.41-.87-.62-.09-.06-.16-.13-.24-.19-.22-.15-.45-.14-.69.08-1.08.96-2.31,1.67-3.71,2.08-.2.05-.35.21-.35.45-.01.56,0,1.12-.16,1.67-.09.35-.21.68-.46.96-.31.34-.55.75-.89,1.05-.96.89-2.05,1.53-3.37,1.67-.73.08-1.32-.26-1.7-.83-.38-.57-.45-1.24-.21-1.91.2-.54.5-1.01.92-1.4.3-.28.62-.54.9-.82.22-.22.42-.45.57-.71.07-.1.04-.33-.04-.43-.26-.31-.55-.6-.85-.87-1.29-1.12-1.97-2.58-2.39-4.19-.09-.33-.05-.71-.02-1.06.04-.45.14-.9.21-1.39Z"/>
  </g>
</svg>