<?xml version="1.0" encoding="UTF-8"?>
<svg id="Layer_2" data-name="Layer 2" xmlns="http://www.w3.org/2000/svg" viewBox="0 0 303 229.97">
  <defs>
    <style>
      .cls-1 {
        fill: #753d22;
        fill-rule: evenodd;
      }
    </style>
  </defs>
  <g id="Layer_2-2" data-name="Layer 2">
    <path class="cls-1" d="M290.65,53.75c-.1.11-.26.22-.28.34-.01.12.12.26.18.39.1-.11.25-.21.27-.33.01-.13-.11-.27-.17-.4h0ZM127.63,148.92c-1.15,2.59-2.31,5.18-3.59,8.03-1.3-.56-2.29-1.01-3.16-1.39,0-.5-.07-.75.01-.83,2.14-2.07,3.5-5.05,6.81-5.73-.48-.66-.84-1.52-1.49-1.91-.42-.27-1.38-.02-1.89.32-1.57,1.02-3.04,2.19-4.71,3.44-1.67-.95-1.88-2.58-2.06-4.38,1.87-1.2,3.91-1.26,5.94-1.35.68-.03,1.43.07,2.02-.19.5-.21.89-.82,1.12-1.35.05-.14-.61-.84-.99-.89-1.7-.18-3.41-.21-5.12-.28-.68-.02-1.36,0-1.97,0-.82-1.31-.12-2.17.74-2.68.64-.39,1.66-.62,2.35-.41,2.14.63,4.18,1.3,6.52.7.74-.18,1.8.72,2.65,1.25.79.49,1.51.77,2.45-.07-.32-1.03-.66-2.14-.99-3.22.24-.29.42-.63.69-.77,2.7-1.42,5.41-2.1,8.22-.22.24.15.88-.29,1.61-.55-.61-1.29-1.15-2.46-1.63-3.49,1.99-4.58,6.3-2.91,9.64-3.81,0-3.26-3.23-2.06-4.33-3.55-.43-3.1,3.12-2.76,4.06-4.6.03-1.2-.73-1.53-1.63-1.51-1.15.02-2.29.21-3.46.33-.83-2.18-.83-3.89.99-5.28.52-.41.96-.94,1.38-1.46.37-.47-.26-1.56-.89-1.48-1,.13-1.98.58-2.96.54-.92-.04-1.8-.53-3.11-.95,1.04-1.61,1.9-2.82,2.62-4.11.18-.32.05-1.06-.22-1.32-.29-.27-1.04-.43-1.35-.24-1.01.61-1.95,1.38-2.86,2.14-.83.7-1.65,1.28-2.75.67-.82-.44-.84-1.65-.08-3.21.43-.91.9-1.79,1.28-2.55-.67-1.23-1.51-1.33-2.21-.66-1.09,1.07-1.95,2.38-3.02,3.47-.64.64-1.52.74-2.57-.28.91-2.15,1.88-4.46,3.02-7.13-.9-.13-1.66-.48-2-.23-.66.46-1.15,1.21-1.59,1.93-.8,1.31-1.44,2.73-2.29,4-.78,1.16-1.9,1.36-3.27.49-.64-2.04,1.42-3.27,1.75-5.05-.44-1.26-1.33-1.72-2.26-.68-1.24,1.37-2.21,2.99-3.25,4.42-1.55.02-2.08-1.03-1.82-2.01.49-1.79,1.25-3.54,2.13-5.17.63-1.19,1.69-2.14,2.44-3.29.22-.32.17-1.23-.05-1.35-.51-.27-1.34-.5-1.77-.27-1.13.63-2.12,1.53-3.19,2.35-1.43-1.28-1.34-2.61-.73-3.9.72-1.54,1.69-2.97,2.44-4.5.18-.35,0-1.25-.22-1.33-.55-.21-1.49-.36-1.8-.06-1.06,1.06-1.93,2.32-3,3.66-2.2-.76-2.93-2.37-2.7-4.37.18-1.69.75-3.33,1.1-5,.17-.82.31-1.66.34-2.49.02-.26-.33-.74-.55-.76-.45-.04-1.13-.02-1.34.27-.5.67-.78,1.49-1.12,2.28-.54,1.23-1.06,2.46-1.53,3.55-1.56.2-2.41-.45-2.46-1.58-.08-1.53.14-3.08.35-4.6.59-4.35.11-8.53-1.62-12.57-.47-1.1-.91-2.22-1.24-3.38-1.17-4.27-.43-8.11,2.61-11.47,2.19-2.44,4.47-4.71,7.3-6.44,1.49-.91,1.47-1.33.56-3.55-2.68.36-4.43,2.37-6.25,4.02-2.02,1.82-3.93,3.88-5.42,6.14-1.37,2.09-2.12,4.59-3.09,6.79-.32.13-.5.29-.62.25-4.54-1.25-9.09-1.02-13.73-.67-3.83.3-7.32-1.34-10.51-3.54-1.81-1.26-3.71-2.48-5.71-3.34-2.46-1.06-5.06-.75-7.47.39-.45.21-.9,1.15-.78,1.6.13.49.92,1.07,1.45,1.11,1.18.08,2.38-.27,3.57-.28,2.48-.05,4.6.72,6.5,3.03-1.25.63-2.14,1.05-2.99,1.53-3.74,2.08-7.47,4.17-11.19,6.29-.43.25-.96.58-1.11,1-.21.58-.35,1.43-.07,1.86.27.4,1.18.63,1.72.53.62-.11,1.14-.7,1.73-1.06,2.18-1.36,4.34-2.74,6.56-4.05,4.44-2.63,9.06-3.81,14.25-2.34,1.92.55,4.07.3,6.11.34,2.22.04,4.49-.26,6.67.03,3.17.41,5.95,1.62,7.12,5.04.32.95,1.04,1.76,1.5,2.66,1.18,2.36,1.71,4.92,1.28,7.49-.45,2.69-1.29,5.31-2.04,7.95-.27.93-1.17,1.36-2.04,1.17-.51-.11-1-.76-1.29-1.29-.22-.42-.09-1.02-.16-1.52-.12-.91-.56-1.87-1.51-1.66-.65.14-1.41,1.01-1.61,1.71-.46,1.58-.61,3.26-.87,4.73-1.17.41-1.62-.1-1.83-.78-.31-.96-.41-2-.78-2.94-.12-.29-.84-.35-1.23-.49-1.58,1.48-.52,3.4-1.16,4.94-.14.35-.8.74-1.15.68-.36-.05-.94-.69-.89-.99.23-1.51.69-2.98.93-4.5.06-.36-.33-1.04-.67-1.19-.34-.14-1.1.06-1.31.36-.88,1.24-1.61,2.57-2.38,3.86-2.79-1.04-3.13-1.34-3.03-3.28.07-1.2.4-2.38.46-3.57.02-.38-.39-1.01-.74-1.14-.34-.13-1.11.11-1.26.42-.55,1.04-.83,2.23-1.34,3.29-.62,1.28-1.65,1.62-3.18.77-.2-1.3-.43-2.76-.73-4.67-.87.52-1.64.7-1.83,1.15-.48,1.08-.54,2.34-1.06,3.38-.39.81-1.21,1.42-2.02,2.31-.87-1.28-1.5-2.22-2.07-3.07-1.34-.05-1.77.74-1.76,1.6.01,1.33.27,2.67.41,3.86-1,.9-1.29.14-1.69-.36-.64-.8-1.32-1.85-2.46-1.08-.8.53-.51,1.51-.13,2.34.44.92.89,1.86,1.16,2.85.09.34-.34.81-.57,1.3-2.56-1.13-.98-3.89-2.4-5.34-1.39-.59-2.03.28-2.05,1.38-.04,1.53.35,3.05.45,4.58.1,1.58-.85,2.05-2.25,2.04-1.57-2.33-.23-4.74-.34-6.93-1.02-.93-1.84-.56-2.14.31-.44,1.27-.6,2.64-.78,3.99-.14,1.14-.14,2.3-.21,3.47-3.16-.43-3.86-1.12-3.26-3.3.54-1.95,1.3-3.84,1.93-5.64-.89-1.18-1.63-.75-2.25-.12-.7.69-1.28,1.49-1.92,2.26-1.75-1.37-2.04-2.91-1.13-4.6.63-1.2,1.49-2.27,2.27-3.38.46-.66.96-1.3,1.65-2.24-3.98-1.27-4.63,2.54-6.7,3.64-2.56-.91-3.07-1.64-2.24-3.46.49-1.09,1.3-2.03,1.74-3.12.19-.48.02-1.5-.34-1.71-.43-.26-1.36-.13-1.81.19-.68.47-1.18,1.23-1.66,1.93-.57.83-1.04,1.72-1.69,2.82-.74-.35-1.51-.47-1.82-.91-.46-.65-.94-1.59-.8-2.3.34-1.82,1.01-3.57,1.53-5.29-.59-1.1-1.41-1.1-2.08-.38-.69.73-1.22,1.64-1.7,2.52-.57,1.03-1.01,2.13-1.49,3.15-3.02-.67-3.76-1.39-3.44-3.47.17-1.17.7-2.28.92-3.45.06-.38-.3-1.06-.62-1.2-.36-.15-1.16.03-1.33.32-.85,1.46-1.5,3.04-2.32,4.52-.22.4-.85.95-1.12.86-.54-.18-1.16-.64-1.4-1.14-.36-.74-.33-1.68-.67-2.44-.15-.35-.78-.48-1.54-.9-.33,1.32-.63,2.43-.87,3.53-.2.93-.35,1.86-.7,3.8-1.18-2.27-1.9-3.66-2.67-5.13-.88.37-1.5.61-2.13.87.23,1.33.54,2.65.64,3.99.05.56-.32,1.17-.53,1.74-.01.03-.43.02-.47-.06-.25-.59-.71-1.23-.63-1.77.21-1.3.69-2.56,1.06-3.84-1.89-1.22-2.68-1.22-3.16.24-.69,2.08-1.16,4.25-1.73,6.45-.47.1-.99.38-1.44.29-1.31-.26-1.99-1.2-1.5-2.13.7-1.36,1.56-2.63,2.39-3.92.45-.68.98-1.3,1.42-1.89-1.64-2.44-3.16.58-4.83-.21.78-2.26,2.52-3.58,4.35-4.25,1.8-.66,3.93-.44,5.87-.6.89-1.79-1.81-1.96-1.35-3.82.46-.05,1.07-.23,1.62-.12.92.19,1.81.56,3.3,1.06-.21-1.17-.13-1.9-.45-2.32-.74-.93-1.73-1.65-2.52-2.54-1.07-1.21-1-2.46.36-3.89,1.35.61,2.8,1.27,4.72,2.14,0-1.07.21-1.77-.03-2.24-.62-1.18-1.45-2.25-2.16-3.31,2.12-2.48,2.81-2.6,4.53-.91.69.67,1.31,1.41,2.39,2.61.55-1.82.9-3,1.24-4.13,2.47-.78,2.17,2.51,4.18,2.5,1.77-.8-.06-2.93,1.27-4.03,3.08-1.81,4.32,1.61,6.24,2.53,2.04-.71.71-2.67,1.95-3.69.32,0,.87-.14,1.3.02,1.42.53,2.79,1.19,4.21,1.73.2.07.67-.22.81-.46.14-.24.17-.74.02-.94-.52-.66-1.15-1.24-1.71-1.87-.77-.87-1.51-1.78-2.45-2.88,1.13-1.19,2.1-2.22,3.07-3.23-1.53-2.26-3.8-.51-5.36-1.59-1.22-3.18-.36-4.65,2.72-4.42,1.35.1,2.66.62,4,.86.61.1,1.25-.04,2.24-.09-1.62-3.33-5.07-3.1-7.31-4.71,1.57-2.3,1.92-2.52,3.49-1.94.9.34,1.76.82,2.51,1.18,1.49-1.12.15-2.08.31-3,1.68-.58,2.52-.47,2.83.51.4,1.29.65,2.63,1.03,4.26,1.09-.26,1.99-.48,3.02-.74,1.35.73,1.15,2.11,1.31,3.47.15,1.35-.52,3.65,1.55,3.67,1.75.02,1.1-2.16,1.33-3.4.22-1.2.92-1.7,2.27-2.26.31,1.74.55,3.14.88,5.01.82-.54,1.55-.78,1.75-1.22.63-1.41.98-2.92,1.55-4.35.47-1.17,1.26-2.03,2.73-1.92,1.46,1.39-.25,2.89.12,4.29.11.39.56.78.95.99.17.11.64-.12.86-.33,1.08-.99.89-2.95,2.57-3.65,1.45,2.91-.74,4.97-1.36,7.11.57,1.21,1.37,1.04,2.26,1.01,1.48-.05,1.47.07,2.82,2.37.2,2.28-2.97,3.48-1.93,6.01.05.13.25.2.66.5,1.1-.71,2.3-1.49,3.48-2.26,1.07,1.45.4,2.51.05,3.65-.34,1.11-.43,2.29-.54,3.45-.01.2.41.56.69.64.27.07.78,0,.92-.19.9-1.23,1.7-2.54,2.6-3.77.14-.19.63-.28.9-.21.29.08.74.38.76.61.08,1.35-.03,2.72.15,4.06.07.55.68,1.02,1.05,1.53.48-.42,1.12-.75,1.41-1.28.56-1.04.87-2.21,1.4-3.27.34-.69,1.84-.62,2.23.1.49.89.76,1.92,1.36,2.72.28.38,1.08.37,1.53.49,1.58-2.05-.72-5.37,2.66-6.31q3.93,2.8,5.88,2.72c-.6-1.61-1.15-3.13-1.66-4.5.55-1.33,1.43-1.77,2.54-1.29.92.41,1.68,1.19,2.62,1.58.5.21,1.2-.04,2.31-.13-1.17-1.99-2.09-3.54-3.07-5.21,1.22-1.18,2.71-.45,3.9-.86.58-.2,1.31-.72,1.42-1.22.09-.42-.51-1.26-1-1.47-.92-.39-1.99-.41-2.97-.7-1.15-.34-1.73-1.94-1.08-2.94.36-.57.9-1.03,1.39-1.5.63-.61,1.33-1.32.52-2.11-.39-.37-1.33-.47-1.89-.29-1.12.38-2.15,1.03-3.22,1.57-1.33.66-2.62.67-3.84-.22-.52-.98.06-1.63.64-2.26.81-.87,1.69-1.68,2.47-2.58.16-.19.17-.77,0-.94-.33-.33-.97-.79-1.22-.67-1.51.76-2.89,1.75-4.41,2.47-.46.22-1.45.04-1.74-.33-.3-.37-.29-1.43.02-1.77,1.15-1.24,2.53-2.28,3.73-3.48.29-.28.43-1.02.25-1.35-.19-.35-.9-.74-1.25-.63-1.6.49-3.15,1.15-5.04,1.88-.2-2.22-.63-4.3-.06-6.77,1.06-.04,2.04-.11,3.02-.13,1-.02,2,0,2.84,0,1.15-2.21-1.46-2.16-1.61-3.45,2.14-1.4,2.86-1.44,3.77-.08.66.98,1.16,2.09,1.86,3.05.24.33.94.58,1.33.48.37-.08.77-.63.88-1.05.18-.63.11-1.32.17-2.37.95.16,1.78.15,2.46.46.91.43.83,1.32.72,2.23-.1.75.12,1.54.23,2.82,1.39-.75,2.34-1.26,3.22-1.74,3.15,2.31.56,5.53,1.42,8.38,2.29-.29,4.39-3.17,6.77.28.06,1.18.14,3.01.22,4.95,3.06.16,2.34-3.27,4.78-3.99,1,.82-.23,3.38,2.19,3.85.27-.42.73-.9.89-1.48.38-1.31.44-2.73.97-3.96.39-.94,1.34-1.55,2.82-.78.23,1.63.46,3.44.69,5.13,1.22.53,1.93.13,2.12-.86.29-1.51.26-3.08.59-4.57.27-1.2.94-2.24,2.89-1.59-.15,1.08-.33,2.2-.44,3.34-.07.68-.19,1.43.02,2.03.18.53.75,1.01,1.26,1.3.16.09.93-.46,1.05-.84.42-1.3.64-2.66,1.01-3.97.34-1.22,1.32-1.73,2.33-1.32,1.02.42,1.47,1.32,1.11,2.51-.45,1.47-1.07,2.9-1.47,4.38-.14.54.1,1.2.24,2.51,1.02-1.02,1.64-1.52,2.12-2.12.52-.64.9-1.38,1.29-1.99,1.61.19,1.83,1.17,1.79,2.23-.07,1.69-.27,3.38-.35,5.07,0,.22.44.69.62.66.45-.06,1.12-.24,1.24-.55.83-2.02.71-4.44,2.52-6.03,1.64-.07,1.32,1.28,1.6,2.14.32.97.85,1.42,2.08,1.09.87-2.22.11-4.64.37-6.98.18-1.56.85-2.54,2.69-2.64,1.54,1.24,1.34,3.36,2.23,4.95.14.26.58.56.78.5.44-.13,1.08-.42,1.15-.76.28-1.29.36-2.63.61-4.7.63,2.15,1.02,3.59,1.5,5.01.09.25.57.59.77.54.45-.12,1.11-.39,1.2-.73.26-.98.21-2.04.45-3.03.14-.61.58-1.14,1.08-2.08.94,1.13,1.63,1.96,2.53,3.05.5-.57,1.09-.95,1.29-1.49.59-1.59.96-3.28,1.59-4.87.17-.42.96-.61,2.11-1.3-.67,2.85-1.21,4.93-1.61,7.03-.05.3.5.8.87,1.05.19.13.67,0,.92-.17.27-.18.43-.53.6-.81.34-.58.66-1.17,1.14-2,1.72,1.41,1.83,2.89,1.06,4.57-.77,1.67-2.36,2.96-2.54,5.08.53.19,1.13.6,1.37.45.85-.54,1.52-1.38,2.37-1.92.49-.31,1.31-.53,1.8-.33.88.35,1.05,1.25.74,2.16-.37,1.13-.83,2.24-1.08,3.39-.07.32.44.77.73,1.24,2.19-.51,2.28-3.1,4.47-3.87.25.44.66.91.79,1.46.22.81.14,1.71.41,2.5.12.38.74.82,1.13.82s.98-.42,1.18-.8c.37-.76.4-1.68.79-2.42.48-.96,1.26-1.62,2.77-1.08.25,1.29.53,2.73.78,4.05,1.31.47,1.88-.04,2.18-.95.43-1.28.8-2.56,1.15-3.7,1.61-.59,2.18.39,2.53,1.3.37.94.27,2.05.61,3,.18.5.86.81,1.7,1.55.47-1.37.73-2.31,1.11-3.2.78-1.79,2.33-2.07,3.6-.65.57.63.95,1.44,1.56,2,.27.25,1.02.29,1.34.09.34-.22.72-.95.59-1.27-.63-1.57-1.41-3.08-2.16-4.6-.38-.76-.9-1.49-.08-2.46,1.83.14,1.76,3.58,4.25,2.65,1.12-1.6-.41-2.9-.5-4.37-.09-1.28.02-2.4,1.76-2.7.32,1.43.64,2.83,1.06,4.71.84-.57,1.55-.8,1.79-1.28.47-.89.56-1.98,1.05-2.86.26-.47,1-.88,1.56-.93.75-.07,1.12,1.14.65,2.06-.63,1.21-1.38,2.36-1.94,3.61-.15.33.11,1.09.42,1.31.32.23,1.06.2,1.39-.03,1.07-.76,2.02-1.67,3.03-2.53,2.41,3.07,2.42,3.13.92,5.46-.64.99-1.29,1.98-1.86,3.01-.11.2.09.68.29.9.21.21.68.42.89.33,1.2-.58,2.36-1.25,3.44-1.83,1.2.51,1.86,1.29,1.42,2.46-.48,1.28-1.26,2.46-1.67,3.75-.21.68.06,1.52.17,2.98,1.22-1.11,2-1.69,2.62-2.42.99-1.15,1.77-2.5,2.83-3.57.34-.34,1.31-.27,1.9-.09.32.1.67.84.64,1.26-.16,1.52-.62,3.03-.68,4.55-.03.67.62,1.36,1.28,2.69.81-1.65,1.33-2.66,1.81-3.7.43-.94.7-1.97,1.28-2.79.32-.46,1.18-.89,1.69-.79.52.09,1.22.81,1.3,1.34.2,1.34-.03,2.73.17,4.06.07.47.81.96,1.35,1.18.21.09.9-.49,1.04-.88.32-.96.32-2.05.71-2.98.29-.68.98-1.2,1.49-1.8,1.97,1.52-.26,4.58,2.89,5.38.35-.64.86-1.3,1.09-2.05.36-1.13.34-2.4.83-3.46.58-1.28,1.59-2.24,3.6-1.41-.09,1.06-.29,2.19-.23,3.32.02.58.38,1.44.83,1.65,1.01.47,1.52-.44,1.85-1.22.59-1.41.97-2.94,1.68-4.27.31-.58,1.24-.83,1.92-1.25,1.17,1.81-.05,3.3.16,4.76.09.67.67,1.27,1.03,1.9,1.72-.94,1.71-2.44,2.23-3.67.59-1.41,1.19-2.85,2.04-4.1.63-.92,1.7-1.1,2.82.06-.53,1.46-1.14,3.01-1.6,4.61-.1.35.28,1.07.62,1.23.34.17,1.1.02,1.35-.27,1-1.17,1.82-2.48,2.8-3.67,1.06-1.31,1.93-1.07,3.61.97-1.07,1.45-2.21,2.92-3.23,4.47-.19.29-.01,1.07.26,1.32.29.25,1.08.35,1.35.14,1.74-1.34,3.4-2.78,5.54-4.56.52.55.96,1.01,1.18,1.24-.35,2.4-2.09,2.81-3.1,3.89-.92.99-1.81,2.01-2.64,3.08-.12.16.06.67.25.9.19.24.65.56.83.47,1.39-.6,2.74-1.29,4.32-2.05.32.41.69.9,1.02,1.35-.33.41-.51.85-.75.88-5.24.86-9.7,3.15-13.39,7.02-1.58,1.65-2.94,3.43-3.59,5.56-.97,3.22-2.63,5.53-6.12,6.15-.46.09-.96.43-1.26.8-.28.35-.52.94-.42,1.34.1.39.62.94,1,.96,1.5.1,3.02.05,4.64.05,1.22,1.23.45,2.85.57,4.31.11,1.36-.11,2.76.04,4.1.06.53.71,1.32,1.17,1.38.5.07,1.24-.46,1.61-.93.4-.5.59-1.24.66-1.9.11-1,.15-2.06.02-3.07-.67-5.1.86-9.85,2.57-14.46.66-1.79,2.48-3.21,3.94-4.59,1.42-1.35,3.1-1.97,5.19-1.4.87.23,1.99-.21,2.92-.54,1.44-.53,2.8-1.29,4.24-1.84.52-.19,1.19-.03,2.32-.03-1,1.95-2.79,2.25-3.54,3.51-.29.49-.33,1.22-.23,1.79.03.19.96.44,1.35.3,1.59-.57,3.15-1.28,4.83-1.98.82,1.23-.65,1.72-.63,2.6.04.83-.39,1.73-.17,2.47.26.92.98,1.71,1.46,2.46-.52,1.34-1.4,1.64-2.54,1.38-.96-.2-1.91-.42-2.8-.62-1.8,2.66,1.94,3.06,1.47,5.55-.5,1.46-2.61,1.18-3.98,2.04-.85.54-1.95.74-2.02,2.01-.05.86,1.11,1.2,3,.9.83-.13,1.7-.24,2.52-.11.35.05.62.7.87,1.01-.33,2.52-3.97,3.74-2.36,7.06,2.65-.53,3.71-4.92,7.56-3.08-.75,1.37-1.41,2.51-2.01,3.68-.41.81-.5,1.79.41,2.22.38.19,1.24-.26,1.69-.63.65-.55,1.06-1.36,1.68-1.93,1.97-1.8,3.34-1.65,5.11.57.3.38.39.93.63,1.56-.9.54-1.83.99-2.62,1.6-.31.25-.53.92-.43,1.3.11.38.62.84,1.04.94.82.18,1.7.08,2.54.21,1.85.3,3.04,1.93,2.63,3.69-.19.82-.55,1.62-.96,2.37-1.12,1.99-2.41,2.16-4.06.54-.72-.71-1.36-1.54-2.16-2.16-.28-.22-1.05-.15-1.35.09-.32.26-.58.94-.47,1.33.21.79.65,1.55,1.08,2.28.43.72.95,1.4,1.47,2.16-.95,1.9-2.59,2.02-4.63,2.15-.65-1.59-1.23-3.16-1.94-4.66-.18-.37-.97-.85-1.14-.74-.52.32-1.18.88-1.22,1.4-.09.99.18,2.02.33,3.04q.34,2.5-3.14,3.98c-.54-.94-1.02-1.99-1.71-2.88-.35-.46-1.12-.95-1.6-.85-.41.09-.98.97-.95,1.46.09,1.35.45,2.67.74,4.2-.42.4-.83,1.01-1.41,1.27-2.71,1.24-3.59.89-4.78-1.8-.48-1.09-.88-2.22-1.46-3.25-.18-.32-1.04-.66-1.25-.51-.47.33-1.05,1-1,1.47.15,1.35.65,2.65.91,3.98.18.91-.08,1.84-.99,2.12-.73.22-1.75.28-2.37-.08-.85-.5-1.4-1.48-2.16-2.16-.63-.58-1.45-1.11-2.23-.34-.73.72-.39,1.58.05,2.35.59.99,1.19,1.99,1.77,2.96-1.19,2.1-3.22,2.8-4.76,4.52-.97-.93-1.71-1.56-2.38-2.27-.94-.98-1.77-2.07-2.75-2.99-.21-.2-.92,0-1.31.19-.21.11-.39.63-.31.91.17.64.45,1.27.76,1.86.75,1.34,1.55,2.65,2.35,4.01-.48,2.47-1.76,4.41-3.25,6.57-1.05-.54-1.89-1.12-2.83-1.42-.54-.17-1.44-.12-1.8.22-.79.75-.2,1.57.41,2.18.6.62,1.33,1.09,1.93,1.7.47.46.82,1.04,1.22,1.55-.23.62-.3,1.15-.58,1.56-2.24,3.19-3.27,3.35-6.16,1.01-.78-.62-1.51-1.33-2.18-1.92-1.59.51-1.68,1.6-1.03,2.48,1,1.35,2.29,2.48,3.58,3.83-.68,1.87-2.07,2.66-3.94,2.41-1.86-.24-3.68-.73-5.71-1.14l-.35-.64-.71,3.41c.96.63,2.23.93,4.67,1.53,0,.56.21,1.3-.05,1.8-.38.69-1.02,1.37-1.73,1.72-.72.38-1.71.23-2.47.57-.51.22-.83.89-1.22,1.35.48.41.91.97,1.46,1.15.95.33,1.98.4,3.02.59,1.21,2.03,2.03,4,1.68,6.62-1.65.34-3.28.61-4.86,1.04-.37.11-.81.76-.83,1.18-.01.4.41,1.09.77,1.19,1.28.35,2.61.51,3.99.76.56,2.17-.08,3.89-.95,5.84-1.08.19-2.22.38-3.37.56-.89.14-1.79.4-1.89,1.39-.12,1.04.73,1.39,1.62,1.55.98.19,1.93.42,2.97.64.27,2.09.52,3.89-.75,5.58-2.18-.08-3.51-1.52-5.13-2.37-.47-.24-1.47-.13-1.77.23-.32.36-.34,1.42-.03,1.78,1.07,1.28,2.35,2.37,3.53,3.52-2.44,3.1-3.23,3.42-5.93,2.56-1.29-.42-2.58-.92-3.91-1.14-.52-.08-1.41.38-1.63.84-.19.38.19,1.36.6,1.65,1.11.75,2.36,1.28,3.64,1.95-.15,3.76,1.09,7.64-2.56,10.94-.56-1.01-1.09-1.8-1.44-2.66-.24-.62-.1-1.4-.38-1.98-.17-.37-.82-.71-1.24-.71-.43.02-1.16.43-1.22.76-.21,1.15-.25,2.33-.22,3.51,0,.47.37.94.58,1.41.55,1.18,2.06,2.16,1.17,3.66-1.09,1.82-2.85,2.28-4.91,1.8-1.36-2.11-.54-4.4-.84-6.55-.08-.52-.76-1.28-1.21-1.31-.45-.04-1.26.63-1.38,1.12-.43,1.82-.63,3.69-.91,5.57-3.07,1.23-4.24.69-4.47-2.14-.09-1.2.13-2.44-.13-3.58-.12-.6-.97-1.03-1.64-1.69-1.41,2.23-.73,4.37-1.03,6.35-.21,1.4-1.47,2.07-2.62,1.26-2.52-1.82-4.88-3.86-6.36-6.62-1.65-3.09-1.63-6.24.55-9.19.81-1.1,1.6-2.22,2.37-3.35,2.98-4.38,2.62-8.74-.26-12.96-1.16-1.68-2.48-3.3-3.94-4.73-2.57-2.54-2.86-5.31-1.29-8.43.31-.61.62-1.22.85-1.86.44-1.23.06-2.4-.8-2.63-1.04-.24-1.68.4-2.03,1.16-.65,1.39-1.12,2.87-1.66,4.3-.22.6-.46,1.2-.71,1.86-1.79-.26-2.55-1.44-3.09-2.64-.47-1.04-.69-2.26-.77-3.43-.05-.81.48-1.67.45-2.49-.03-.57-.48-1.23-.94-1.63-.53-.46-1.58.21-1.96,1.1-1.07,2.52-1.02,4.97.27,7.43,1.3,2.46,3.1,4.5,5.38,6.11,2.69,1.88,5.12,4.03,6.97,6.76.66.99,1.22,2.05,1.74,3.12,1.05,2.17.96,4.29-.39,6.33-.86,1.28-1.7,2.57-2.56,3.85-3.33,4.88-3.36,9.42.03,14.29.97,1.39,2.15,2.67,3.39,3.85,1.58,1.48,1.89,3.22,1.32,5.15-.38,1.28-.99,2.5-1.67,4.15-1.04-.77-1.74-1.44-2.57-1.84-.51-.25-1.43-.34-1.79-.04-.36.29-.53,1.3-.31,1.75.53,1.07,1.38,1.94,2.02,2.95.83,1.32.17,2.79-1.33,3.2-2.21.6-3.61-.03-4.53-2.17-.61-1.41-1-2.92-1.67-4.3-.22-.46-.97-.67-1.47-.99-1.77,2.21-.16,4.17-.14,6.42-.47.23-1.08.8-1.58.72-.75-.12-1.63-.54-2.11-1.12-.74-.9-1.11-2.09-1.79-3.07-.22-.31-1.07-.58-1.29-.43-.47.34-1.01.99-1.01,1.52,0,.8.45,1.6.7,2.41.2.65.6,1.32.53,1.94-.06.59-.54,1.23-1.02,1.62-.24.2-.89-.05-1.35-.12-.14-.04-.28-.2-.39-.33-.72-.78-1.52-1.65-2.52-.55-.8.89-.34,1.94.17,2.86.17.29.4.55.58.85,2.95,4.79,2.2,7.23-3.05,10.05-1.04-.37-.99-1.28-.95-2.11.04-1.02.29-2.05.28-3.07,0-.42-.43-1.22-.63-1.21-.61.03-1.4.21-1.75.63-.51.63-.8,1.49-1,2.29-.22.83-.16,1.71-.33,2.54-.29,1.39-1.29,2.14-2.54,2-1.5-.16-2.9-1.33-2.68-2.58.32-1.83.77-3.68,1.5-5.37.68-1.55,1.82-2.89,2.72-4.35.42-.69.76-1.44,1.08-2.05-1.07-1.4-2.05-1.05-2.74-.2-1.28,1.59-2.4,3.3-3.72,5.15-2.13-.9-2.01-3.02-2.99-4.64.87-1.55,1.75-2.98,2.47-4.49.15-.31-.12-1.04-.43-1.29-.32-.25-1.08-.38-1.37-.17-1.09.79-2.01,1.84-3.13,2.57-.41.26-1.3.05-1.83-.22-.29-.15-.5-.95-.38-1.32.44-1.25,1.04-2.42,1.55-3.56-1.43-1.46-2.38-.65-3.21.26-.8.87-1.49,1.86-2.39,2.99-.96-.36-2.04-.49-2.75-1.06-2.02-1.63-1.75-3.79.62-4.84,2.04-.89,4.22-1.42,6.26-2.28.47-.18.85-1.01.93-1.6.11-.75-1-1.43-1.89-1.2-1.79.47-3.56,1-5.47,1.55.78-3.41,3.07-5.35,5.85-5.23,1.87.08,3.74.26,5.6.19.46-.03,1.22-.86,1.24-1.34.02-.47-.64-1.25-1.16-1.42-1.09-.38-2.28-.44-3.4-.62-.02-1.51.71-2.19,1.81-2.34,1.53-.19,3.09-.08,4.6-.32.5-.08,1.02-.78,1.25-1.32.1-.24-.44-1.04-.8-1.13-1.47-.37-2.98-.59-4.49-.82-.95-.15-1.57-.59-1.76-1.56-.21-1.09.3-2.09,1.41-2.39.98-.27,2.02-.37,3.01-.59.8-.19,1.58-.44,2.67-.75-1.76-3.2-4.87-1.23-7.12-2.58-.21-.37-.69-.91-.86-1.55-.46-1.69.1-2.81,1.64-3.15,1.15-.26,2.37-.22,3.55-.36.79-.09,1.58-.24,2.6-.41-.73-3.11-4-1.83-5.27-3.71,1.85-3.59,5.16-4.57,9.33-4.6-.33-.9-.47-1.47-.75-1.97-.15-.28-.56-.38-.8-.62-1.84-1.75-1.75-3.14.25-4.45.8-.53,2.07-.5,2.21-1.82.08-.85-1.13-1.36-2.98-1.22-.51.03-1,.2-1.52.27-.49.08-.99.12-1.45.18-1.88-2.13-1.99-2.71-.66-4.25.78-.91,1.79-1.63,2.5-2.57.31-.41.14-1.19.18-1.8-.63,0-1.45-.27-1.87.04-1.4.97-2.67,2.12-3.96,3.25-1.18,1.03-2.4,1.12-3.68.43-.92-2.07,1.53-4.06-.25-6.06-2.9.23-1.68,3.88-4.14,4.89-.54-1.06-1.11-2.18-1.62-3.2-1.2-.22-1.93.29-2.03,1.22-.2,1.87-.12,3.76-.29,5.63-.07.73-.5,1.43-1.09,3.02-.81-2.28-1.31-3.68-1.8-5.02-1.42-.62-2.16.05-2.12,1.28.08,2.03.44,4.04.71,6.31-.58,1.26-1.73,2.1-3.33,2.24-.3-.32-.69-.54-.72-.79-.26-2.03-.41-4.08-.72-6.1-.05-.35-.7-.82-1.09-.85-.39-.02-1.06.38-1.18.73-.31.95-.54,1.98-.52,2.96.01,1.36.33,2.71.42,4.09.09,1.33-.86,2.22-2.22,2.21-1.39-.01-2.49-.9-2.33-2.14.16-1.34.52-2.67.91-3.97.44-1.45,1-2.85,1.43-4.05-.65-1.35-1.55-1.02-2.37-.94h0ZM36.54,36.27c-.75-1.93-2.15-3.62-2.05-6.06.27-6.89,4.04-11.08,9.93-13.71,2.94-1.31,5.68-.08,8.23,1.45.57.33.96.96,1.44,1.45,3.32,3.35,4.96,3.86,9.03,1.78,2.47-1.27,4.88-1.45,7.45-1.05,4.17.66,6.38,3.75,5.55,8.08-.21,1.14-.12,1.99.45,2.88,1.19,1.87,2.37,3.76,3.63,5.59,2.32,3.37,6.14,4.55,9.9,2.88,2.5-1.1,4.86-2.51,7.27-3.84,1.42-.78,2.32-1.97,2.52-3.65.17-1.38-.32-2.35-1.56-2.9-.31-.14-.64-.26-.97-.32-5.13-.96-7.55-5.01-10.01-8.93-.61-.97-.95-2.25-1.02-3.41-.19-2.91-.18-5.82-.21-8.73-.01-1.67.76-3.06,2.14-3.88,2.2-1.32,4.48-2.5,6.8-3.6.71-.33,1.72-.39,2.49-.21,2.82.7,5.62,1.5,8.39,2.38,2.36.75,4.21,2.27,5.7,4.22.94,1.22,1.96,2.41,2.72,3.74,1.83,3.25,4.61,3.75,7.91,2.99,2.16-.5,4.32-1.06,6.49-1.58,1.49-.35,3.01-.66,4.51-1.04,5.25-1.33,9.41.15,12.48,4.66.46.67,1.17,1.16,1.74,1.7,2.04-1.63,3.81-3.2,5.73-4.57,2.5-1.79,5.39-2.4,8.31-1.5,2.83.87,4.87.29,6.81-1.96,2.1-2.45,4.81-3.02,7.91-1.63,1.95.88,3.12,2.07,2.9,4.29-.21,2.3.37,4.41,1.41,6.44,1.9,3.69,5.88,5.4,9.95,4.15,1.62-.5,3.13-1.48,4.94-.93.98.3,1.94.68,2.92.98.8.25,1.63.44,2.43.65.5-.38,1.15-.61,1.26-1,.91-2.98,2.73-5.04,5.6-6.3,1.07-.47,1.95-1.39,2.95-2.05,3.4-2.24,6.34-2.17,9.32.65,1.72,1.62,3.11,3.62,4.5,5.57,1.2,1.66,2.21,3.46,3.25,5.23,1,1.72,2.38,2.96,4.35,3.34,3.69.7,7.4,1.37,11.12,1.88,1.15.16,2.48.02,3.54-.44,4.93-2.13,10.35-2.06,15.44-3.58,3.29-.99,6.81-.65,9.99,1.1,1.2.66,2.45,1.24,3.66,1.88,4.08,2.14,6.85,5.11,6.4,10.13-.04.5.08,1.02.16,1.92,1.3.96,2.82,2.03,4.25,3.2,2.26,1.82,4.61,3.59,6.66,5.63,1.81,1.8,1.88,3.94.45,6.11-.84,1.27-1.92,2.4-2.99,3.5-1.62,1.62-2.73,3.52-3.36,5.69-.57,1.96-.08,3.32,1.72,4.35,1.78,1.01,3.63,1.96,5.54,2.67,2.06.76,3.63,2.04,4.52,3.95,1.29,2.75,3.53,5,3.84,8.3.21,2.2.02,4.17-1.31,5.82-3,3.75-6.11,7.3-11.19,8.54-2.78.68-5.45,2.06-7.98,3.49-3.46,1.95-7.05,3.43-10.94,4.26-3.28.68-5.85,2.74-8.44,4.7-.54.41-.93,1.03-1.48,1.43-3.93,2.77-6.43,6.41-7.71,11.11-.56,2.03-2.08,3.93-3.55,5.55-2.28,2.54-4.86,4.82-7.35,7.18-1.32,1.24-2.01,2.57-1.79,4.53.19,1.67.12,3.34.41,5.05.4,2.33.45,4.78.18,7.13-.52,4.56-1.43,9.08-2.04,13.64-.38,2.84-1.31,5.27-3.6,7.12-2.4,1.93-4.71,3.95-7.37,6.2-.08.25-.42.9-.43,1.55-.05,4.49-2.04,8.14-4.38,11.85-2.8,4.44-6.72,5.43-11.44,5.07-2.22-.17-4.44-.43-6.65-.36-1.31.05-2.63.62-3.89,1.09-1.18.43-1.92,1.32-2.33,2.56-.59,1.79-1.46,3.47-1.97,5.28-.97,3.39-3.24,5.16-6.62,5.48-1.85.18-3.75.2-5.6.03-1.78-.16-3.4.13-4.97.93-1.29.66-2.36,1.65-2.29,3.15.18,4-2.34,6.68-4.45,9.56-1.17,1.6-2.83,2.46-4.81,2.63-1.71.16-3.42.28-5.12.49-3.58.43-5.94-.83-7.26-4.2-.86-2.22-1.8-4.51-2.14-6.84-.51-3.55-2.8-5.31-5.64-6.73-1.68-.83-3.4-1.64-5.14-2.34-2.75-1.12-3.81-3.33-3.96-6.07-.2-3.78,1.07-7.08,3.63-9.86,1.51-1.63,3.13-3.16,4.76-4.68,1.61-1.5,2.39-3.21,2.12-5.49-.37-3.37.17-6.82-1.06-10.16-.68-1.85.05-3.79,1.13-5.37,1.63-2.41,3.45-4.67,5.25-6.96.74-.92,1.64-1.72,2.54-2.65-.5-2.74-2.52-4.49-4.04-6.48-1.27-1.68-5.4-1.54-7.03,0-.5.47-1,.97-1.34,1.55-1.71,2.88-4.25,4.85-6.98,6.69-1.73,1.17-3.53,1.88-5.54,2.48-3.09.91-5.63.63-8.2-1.33-1.33-1.02-3.05-1.52-4.53-2.37-2.45-1.38-4.49-3.02-4.66-6.26-.08-1.48-.91-2.92-1.39-4.38-1.17-3.64.43-9.43,3.4-11.71.74-.55,1.92-.86,2.85-.77,1.5.17,2.97.77,4.3,1.15,3.46-1.37,6.81-2.65,10.11-4.01,3.34-1.39,5.35-4.19,7.24-7.07.35-.53.53-1.31.45-1.94-.29-2.2-.51-4.43-1.16-6.54-.43-1.42-1.24-3.08-2.41-3.81-3.42-2.18-6.71-4.81-11.11-4.96-1.87-.06-3.74-.41-5.58-.81-1.48-.34-3-.77-4.33-1.47-2.11-1.1-3.26-2.89-3.22-5.42.02-1.68-.29-3.37-.52-5.04-.63-4.53-3.97-7.48-6.49-10.88-1.19-1.59-3.15-2.08-5.13-1.59-1.83.46-3.61,1.07-5.41,1.61-3.44,1.04-6.88,2.12-10.32,3.14-1.85.55-3.21.01-4.49-1.53-1.18-1.42-2.65-2.7-4.23-3.63-3.38-1.99-6.63-1.4-9.31,1.38-.36.37-.71.75-.98,1.19-2.98,4.85-7.98,6.88-12.89,8.8-5.47,2.14-9.53-.53-11.18-5.08-.17-.48-.45-.94-.54-1.44-.86-4.59-3.73-7.47-7.7-9.67-3.45-1.91-6.87-3.86-10.67-5.01-2.42-.73-4.61-.66-6.78,1.01-3.52,2.72-7.68,3.71-12.07,3.66-3.13-.04-5.34-1.63-5.89-4.68-.43-2.32-.35-4.77-.22-7.14.08-1.56.93-2.93,2.22-3.93,1.09-.83,2.15-1.71,3.25-2.52,2.56-1.88,4.33-4.06,4.82-7.49.32-2.25,1.74-4.46,3.04-6.44,1.86-2.81,4.58-4.71,8.03-4.97,2.27-.17,4.37-.72,6.47-1.5.95-.35,1.99-.71,2.97-.66,2.25.11,3.94-.86,5.63-2.42Z"/>
  </g>
</svg>