<?xml version="1.0" encoding="UTF-8"?>
<svg id="Layer_2" data-name="Layer 2" xmlns="http://www.w3.org/2000/svg" viewBox="0 0 141.5 71.71">
  <defs>
    <style>
      .cls-1 {
        fill: #753d22;
      }

      .cls-1, .cls-2 {
        fill-rule: evenodd;
      }

      .cls-2 {
        fill: #e7a952;
      }
    </style>
  </defs>
  <g id="Layer_2-2" data-name="Layer 2">
    <g>
      <path class="cls-2" d="M104.15,54.98l.19-.07c.46-.15.87-.42,1.23-.75.29-.26.56-.52.85-.79.39-.36.8-.67,1.32-.85.83-.32,1.45-.94,2.1-1.51.14-.13.26-.28.39-.43.43-.52.96-.78,1.64-.76.19,0,.4-.02.55-.11,1.07-.57,2.26-.81,3.37-1.29.53-.23,1.07-.41,1.55-.76.27-.2.6-.31.87-.5.77-.56,1.66-.75,2.55-.94.9-.18,1.82-.22,2.71-.44,1-.25,2.01-.11,3.01-.1.43,0,.86.07,1.29.11.19.02.4.04.56.12.85.47,1.77.34,2.67.33.82,0,1.63.01,2.45.1.86.09,1.73.02,2.51-.47.65-.41,1.4-.63,2.03-1.09.75-.54,1.45-1.11,1.9-1.94.21-.38.45-.74.69-1.1.38-.59.52-1.23.57-1.92.05-.64-.24-1.13-.73-1.48-.35-.25-.75-.42-1.19-.66-.13-.19-.29-.42-.45-.66-.54-.81-1.2-1.5-1.92-2.14-.14-.14-.31-.25-.48-.32-.12-.04-.31-.03-.4.04-.1.08-.17.25-.17.38,0,.18.04.39.13.55.4.7.51,1.44.5,2.18-.11.25-.31.27-.5.27-.97,0-1.92-.15-2.84-.44-.23-.07-.46-.15-.79-.27-.2-.19-.48-.45-.78-.7-.25-.21-.52-.23-.75.03-.27.31-.54.36-.88.17-.34-.19-.68-.37-1.01-.54,0-.11-.03-.25,0-.28.44-.29.89-.57,1.34-.85.12-.08.25-.15.38-.2.83-.37,1.26-.32,1.73.42.06.08.12.15.19.22.26.26.72.17.84-.15.05-.13.09-.28.12-.41.13-.62.51-1.02,1.08-1.26.27-.1.55-.19.8-.32.42-.24.85-.47,1.21-.78.61-.52.89-1.25,1.02-2.02.17-1.02.09-2.02-.31-2.98-.32-.76-.88-1.25-1.65-1.51-.09-.03-.19-.07-.28-.08-.78-.11-1.45-.41-2.1-.88-.67-.49-1.51-.62-2.34-.58-.62.03-1.25.08-1.87.11-.18,0-.37-.04-.53-.06q-1.17-1.66-3.42-2.66c-.09-.1-.2-.24-.33-.39-.12-.15-.23-.3-.33-.42.38-2.38.24-2.95-1.18-5.21-.08-.06-.14-.13-.21-.2-1.39-1.23-3.08-1.74-4.86-2.06-.82-.15-1.63-.1-2.44-.04-.57.05-1.14.16-1.72.23-.43.05-.86.1-1.25.14-.3-.15-.58-.25-.82-.41-1.21-.79-2.58-1.01-3.97-1.21-.14-.02-.3-.03-.43,0-.8.19-1.62.18-2.41.45-.87.29-1.76.5-2.63.77-1.16.37-2.22.94-3.22,1.59-1.74,1.12-3.5,2.22-5.19,3.39-1.31.91-2.73,1.61-4.06,2.49-.12.08-.25.14-.38.21-1.08.54-2.15,1.08-3.22,1.62-.26.12-.53.22-.82.35-.1-.13-.22-.23-.24-.35-.27-1.45-.96-2.74-1.7-3.97-.7-1.16-1.63-2.13-2.77-2.9-1.2-.82-2.5-1.44-3.81-2.06-.57-.27-1.16-.48-1.79-.56-.81-.1-1.62-.23-2.42-.32-.11-.01-.28.13-.32.24-.04.1,0,.28.08.38.07.12.2.21.32.27.21.1.44.17.65.25-.01.11.01.23-.03.3-.35.6-.88,1.01-1.4,1.33-.42.1-.72-.02-1.03-.16-.85-.37-1.76-.5-2.67-.55-.12,0-.25.11-.35.2-.1.11-.05.44.06.53.15.12.3.24.47.32.45.19.86.43,1.23.74.31.27.36.67.11,1.03q-.72,1.02-1.9,1.91c-.19.14-.36.3-.46.38-.37.1-.58-.02-.8-.1-.68-.25-1.35-.49-2.04-.72-.12-.04-.29.02-.41.09-.2.1-.2.31-.18.55.58.65,1.44,1.08,1.91,1.89.08.34.02.68-.13.98-.36.73-.71,1.47-1.34,2.04-.75.68-1.46,1.4-2.2,2.09-.3.27-.66.38-1.07.23-.36-.14-.73-.25-1.1-.35-.19-.04-.39-.03-.53.14-.13.15-.14.34-.06.59.26.21.57.44.85.67.38,1.97.34,3.93.22,5.86-.83.8-1.74,1.43-2.65,2.06-1.74,1.22-3.59,2.23-5.4,3.33-1.19.73-2.39,1.44-3.7,1.95-1.25.49-2.53.93-3.87,1.12-.57.08-1.14.22-1.69.38-.47.14-.94.2-1.42.21-.38.01-.76.05-1.15.07-.53.03-1.05.08-1.56-.11.03-.86.14-1.34.64-2.16.23-.38.36-.78.46-1.2.07-.31-.04-.59-.31-.74-.22-.11-.44-.18-.61-.37-.26-.28-.52-.57-.81-.81-.29-.26-.62-.46-.94-.7-.04-.34-.07-.67-.11-1-.15-.06-.28-.1-.41-.15-.16.2-.31.39-.5.61-1.3-.19-2.6-.66-3.92-.41-.3-.11-.32-.38-.45-.57-.13-.17-.29-.22-.49-.17-.18.27-.1.56-.04.84.18,1,.37,1.99.55,2.98.04.18.05.38.04.57-.01.13-.11.25-.16.37-.12-.02-.23,0-.3-.04-1.09-.81-2.07-1.73-2.9-2.8-.06-.08-.11-.16-.18-.23-1.25-1.13-1.9-2.64-2.53-4.16-.17-.41-.33-.8-.57-1.17-.47-.71-.64-1.49-.64-2.33-.01-1.4.03-2.79.49-4.13.2-.59.29-1.2.55-1.79.21-.49.31-1,.27-1.55-.02-.38,0-.77,0-1.15.01-1.02-.36-1.88-1.02-2.63-.1-.11-.19-.22-.29-.32-1.12-1.18-1.82-2.57-2.2-4.15-.34-1.41-.68-2.8-.81-4.25-.02-.24-.04-.48-.04-.72-.03-1-.02-2.01-.04-3.02-.02-.95.08-1.92.29-2.86.15-.7.24-1.42.36-2.13.03-.2-.07-.37-.26-.47-.22-.12-.46-.02-.6.22-.02.05-.07.07-.08.12-.22.8-.83,1.41-1.15,2.16-.05.12-.16.28-.28.32-.47.15-.65.55-.9.91-.42.6-.95,1.08-1.58,1.45-.21.12-.42.24-.62.38-.72.49-1.48.88-2.32,1.13-1.11.34-2.2.7-3.33.92-.56.12-1.13.25-1.69.38-.85.2-1.71.3-2.55.2-.9-.41-1.77-.81-2.66-1.19-.16-.07-.37-.09-.56-.09-.2,0-.39.11-.45.31-.04.12-.05.29,0,.39.09.16.25.29.41.39.54.32,1.09.61,1.63.94.25.14.48.31.71.48.2.16.29.39.29.64-.01.54-.08,1.06-.34,1.54-.18.33-.31.7-.43,1.06-.17.56-.44,1.06-.86,1.48-.2.2-.36.44-.57.7-.34-.05-.72-.1-1.1-.16-.67-.1-1.34-.14-2.01-.07-.24.03-.48.08-.7.17-.18.07-.31.22-.33.43-.02.17.12.39.3.44.37.1.75.19,1.12.29.56.15,1.11.3,1.67.47.39.12.65.4.83.77.34.7.48,1.46.62,2.22.13.7.16,1.43.22,2.15.03.24.03.48.02.71-.03.34-.11.67-.12,1,0,.28.05.56.08.82-.13.07-.21.15-.3.15-.43.01-.87,0-1.3,0-.29,0-.58-.03-.86,0-.11.01-.22.17-.29.28-.09.16.02.43.17.5.13.06.26.14.4.17.28.05.57.08.85.13,1.82.3,3.56.82,5.25,1.56.31.13.63.24.94.39.35.16.7.29,1.1.29.24,0,.48.05.71.12.71.19,1.41.31,2.14.14.79.16,1.52-.09,2.25-.36.13-.05.27-.14.41-.15.28-.01.59-.02.84.16.62.46,1.17.99,1.45,1.75.46,1.19.64,2.42.73,3.67.2,2.6.48,5.18,1.03,7.72.1.47.24.94.37,1.4.26.97.51,1.96.81,2.92.24.83.55,1.65.84,2.46.04.14.08.29.18.4.48.55.66,1.27,1,1.9.31.59.64,1.18,1.06,1.71.45.57.9,1.12,1.3,1.72.77,1.17,1.68,2.23,2.61,3.27.99,1.11,2.1,2.12,3.35,2.96.76.51,1.5,1.05,2.25,1.56.32.21.64.44.99.58.73.3,1.4.67,1.75,1.41.56-.02,1,.18,1.42.41,1.39.8,2.91,1.26,4.44,1.7.41.12.83.21,1.29.14l.13-.11.39.19,4.49.71,6.74-.18,2.36-.32c.58.07,1.35-.1,1.94-.03.81.09,1.73-.02,2.56-.11.38-.04.76.05,1.16.07.96.05,1.91,0,2.86-.23.84-.21,1.7-.34,2.56-.43.82-.1,1.61-.31,2.37-.63.18-.08.36-.13.56-.05.04.27-1.17,2.05-1.11,2.33.04.19,1.69-1.15,1.85-1.25.12-.07.24-.15.35-.24.45-.35.81-.78,1.12-1.23h.43s0,.03,0,.03c-.04.1.09.34.18.35.05.01.1.05.14.03.66-.2,1.22.14,1.8.36.13.05.29.13.35.25.21.38.59.44.94.6.16.08.29.25.45.4-.04.29-.12.58-.13.86,0,.36-2.13,4.26-1.91,4.38.25.12,1.77-1.56,2.51-2.14.43-.33.7-.79.95-1.26.22-.43.44-.86.64-1.25.63-.45,1.31-.43,1.98-.35.82.1,1.6.32,2.36.66.08.04.16.11.24.16.14.09.23.35.17.52-.21.49-.94,2.25-.88,2.29.32.24,1.2-.89,1.38-1.12.08-.11.19-.22.25-.34.76-1.45,1.48-2.92,2.06-4.46.09-.23.15-.47.27-.67.21-.34.38-.7.51-1.07l4.66-1.92,3.86-1.72,6.36-3.68Z"/>
      <g>
        <path class="cls-1" d="M136.07,37.6s-.1.01-.12.01c-.93-.01-1.85-.14-2.74-.42-.24-.08-.47-.17-.7-.25-.24-.22-.49-.45-.73-.65-.4-.36-.91-.35-1.27.06-.16.18-.23.2-.43.09-.23-.12-.45-.25-.68-.37.34-.22.69-.44,1.05-.66.1-.07.21-.13.33-.18.63-.27.89-.31,1.28.29.07.1.14.2.23.29.43.43,1.23.3,1.44-.29.05-.15.11-.3.14-.46.11-.5.39-.8.86-.99.29-.12.57-.21.84-.36.44-.25.88-.48,1.27-.81.68-.57,1-1.38,1.15-2.24.18-1.08.09-2.16-.33-3.18-.36-.85-1-1.42-1.87-1.71-.12-.04-.22-.09-.35-.1-.73-.1-1.34-.39-1.93-.81-.75-.55-1.67-.7-2.58-.66-.63.04-1.24.09-1.87.12-.1,0-.21-.01-.31-.03-1.2-1.69-1.43-1.75-3.41-2.61-.09-.12-.17-.21-.26-.32-.08-.1-.15-.19-.22-.29.36-2.45.1-3.13-1.26-5.3l-.03-.04-.03-.03c-.07-.07-.15-.14-.22-.2-1.43-1.29-3.18-1.82-5.04-2.16-.85-.15-1.69-.11-2.54-.03-.58.04-1.16.15-1.74.23-.38.05-.76.09-1.15.13-.23-.11-.47-.21-.68-.34-1.26-.81-2.66-1.06-4.12-1.27-.19-.03-.38-.04-.57,0-.81.19-1.63.19-2.44.46-.87.29-1.76.5-2.63.78-1.18.37-2.28.96-3.31,1.63-1.74,1.12-3.5,2.22-5.2,3.41-1.3.9-2.73,1.6-4.05,2.47-.11.07-.23.13-.34.18-1.08.54-2.14,1.08-3.22,1.63-.17.08-.36.16-.54.23-.28-1.48-.98-2.79-1.75-4.07-.73-1.21-1.7-2.22-2.87-3.01-1.21-.83-2.53-1.47-3.86-2.09-.6-.29-1.22-.51-1.89-.59-.81-.1-1.62-.23-2.43-.33-.28-.03-.6.21-.69.47-.1.22-.03.52.1.72.11.18.29.31.48.4.13.06.25.11.39.16-.29.44-.7.77-1.14,1.05-.28.05-.5-.03-.75-.14-.89-.38-1.84-.53-2.8-.57-.24-.02-.47.14-.63.31-.25.27-.19.86.1,1.08.18.14.34.28.56.36.42.17.79.4,1.14.68.17.14.17.35.04.53-.69.98-.84,1.09-1.82,1.83-.15.11-.28.22-.41.34-.2.03-.32-.04-.51-.12-.68-.24-1.36-.5-2.05-.72-.23-.07-.48,0-.68.1-.37.19-.41.54-.38.91v.12s.09.1.09.1c.56.62,1.4,1.07,1.84,1.78.04.23,0,.47-.11.69-.34.68-.68,1.4-1.26,1.92-.75.68-1.46,1.4-2.2,2.09-.21.19-.42.25-.69.15-.37-.14-.75-.25-1.13-.35-.34-.09-.68-.03-.9.25-.24.28-.24.61-.13.95l.04.1.09.06c.25.19.5.39.74.58.34,1.81.31,3.65.2,5.49-.77.72-1.64,1.32-2.5,1.92-1.73,1.21-3.58,2.22-5.39,3.32-1.17.71-2.35,1.42-3.64,1.91-1.23.48-2.48.91-3.79,1.1-.59.08-1.18.22-1.75.4-.43.13-.87.18-1.32.2-.39,0-.77.05-1.16.07-.38.02-.78.06-1.16-.01.04-.65.17-1.05.57-1.68.25-.41.4-.85.5-1.32.11-.46-.07-.92-.5-1.15-.15-.08-.39-.16-.51-.29-.27-.29-.54-.59-.84-.85-.26-.22-.55-.42-.83-.62-.03-.28-.06-.56-.09-.84l-.02-.23-.21-.08c-.14-.05-.27-.1-.41-.15l-.24-.09-.17.2c-.12.15-.25.3-.37.45-1.25-.2-2.42-.59-3.7-.4-.08-.09-.17-.32-.23-.41-.21-.29-.53-.4-.88-.31l-.13.04-.07.11c-.25.38-.18.7-.1,1.11.18.99.37,1.99.55,2.98.03.14.05.29.04.44-1.01-.76-1.93-1.63-2.71-2.63-.08-.1-.13-.19-.22-.27-1.19-1.09-1.83-2.56-2.44-4.03-.17-.43-.35-.85-.6-1.23-.42-.64-.58-1.36-.58-2.13,0-1.36.03-2.72.47-4.02.2-.58.29-1.2.53-1.76.24-.55.35-1.13.31-1.73-.02-.37,0-.75,0-1.12.02-1.1-.39-2.05-1.11-2.88-.1-.11-.2-.22-.3-.33-1.08-1.13-1.74-2.47-2.11-3.98-.33-1.38-.67-2.77-.8-4.2-.02-.23-.04-.46-.04-.69-.03-1.01-.02-2.02-.04-3.02-.01-.94.08-1.87.28-2.78.15-.71.24-1.44.36-2.15.06-.37-.13-.69-.45-.85-.42-.22-.87-.04-1.09.36-.06.08-.09.11-.12.21-.2.74-.82,1.39-1.13,2.11-.01.03-.05.1-.05.11-.58.18-.77.59-1.09,1.04-.39.56-.88,1.01-1.46,1.35-.22.13-.43.25-.64.4-.69.47-1.42.84-2.22,1.08-1.09.34-2.18.7-3.3.92-.57.12-1.13.26-1.7.38-.77.19-1.57.29-2.37.21-.87-.39-1.74-.8-2.61-1.17-.22-.1-.48-.12-.71-.12-.36.01-.68.22-.78.56-.08.23-.09.51.04.71.13.21.33.38.54.5.54.33,1.09.62,1.63.94.23.13.46.29.67.46.11.08.15.2.15.34-.02.48-.07.95-.29,1.38-.19.36-.34.74-.46,1.13-.15.51-.39.95-.77,1.33-.17.17-.32.37-.47.56-.3-.04-.58-.08-.88-.12-.7-.11-1.41-.14-2.11-.08-.27.03-.54.09-.79.19-.32.12-.53.4-.56.74-.04.35.22.74.56.84.37.1.75.2,1.12.29.55.15,1.11.3,1.66.47.29.08.47.3.6.57.32.66.45,1.4.58,2.12.13.7.16,1.41.22,2.11.02.22.03.44.01.66-.02.34-.1.68-.12,1.03,0,.21.02.41.06.62-.4,0-.8,0-1.19,0-.31,0-.6-.04-.91,0-.25.04-.44.26-.56.47-.19.34-.02.85.34,1.01.16.08.3.15.48.19.29.06.58.09.87.13,1.78.29,3.5.81,5.16,1.54.31.14.63.25.93.38.41.19.8.33,1.27.32.2,0,.42.06.61.1.75.19,1.48.32,2.24.17.84.14,1.58-.11,2.37-.39.06-.02.25-.12.3-.12.18-.01.44-.04.59.08.58.43,1.08.9,1.34,1.59.44,1.14.61,2.35.71,3.56.2,2.61.48,5.21,1.03,7.77.1.48.25.94.37,1.42.27.98.52,1.97.81,2.93.25.84.56,1.65.84,2.48.07.19.11.36.25.51.44.51.63,1.25.94,1.84.33.61.67,1.22,1.1,1.77.44.56.89,1.1,1.28,1.7.77,1.19,1.71,2.26,2.64,3.31,1.01,1.14,2.15,2.17,3.42,3.02.76.51,1.5,1.05,2.25,1.56.34.23.68.47,1.06.62.64.26,1.24.58,1.56,1.23l.1.22h.24c.46-.02.83.13,1.22.36,1.42.81,2.96,1.28,4.52,1.73.48.14.95.24,1.45.16h.09s.03-.04.03-.04l.23.11,4.58.72,6.79-.18,2.34-.32c.63.07,1.28-.1,1.89-.03.87.1,1.78-.01,2.64-.11.34-.04.74.05,1.09.07,1.01.05,2,0,2.98-.24.83-.21,1.66-.33,2.51-.43.8-.09,1.58-.3,2.32-.6-.35.64-1,1.55-.91,1.97.21.97,2.06-.8,2.4-1.01.13-.08.26-.17.39-.27.4-.32.74-.69,1.04-1.1.09.16.22.28.38.32.12.04.2.07.33.03.53-.17,1.09.17,1.57.34.04.01.13.05.15.08.27.5.65.55,1.1.76.05.02.14.1.21.19-.04.24-.1.47-.1.71-.08.39-.74,1.6-.95,2.02-.24.5-.48,1-.71,1.51-.13.31-.49.98-.05,1.2.61.31,2.41-1.79,2.9-2.18.47-.36.77-.86,1.04-1.38.2-.39.4-.78.6-1.16.51-.33,1.07-.31,1.65-.24.78.09,1.53.31,2.24.64.06.02.13.08.19.12.02.01.03.06.03.06-.15.35-.3.71-.45,1.08-.12.3-.68,1.38-.31,1.65.63.46,1.55-.76,1.89-1.19.1-.14.21-.25.29-.41.76-1.46,1.49-2.95,2.07-4.5.08-.2.14-.43.25-.61.19-.31.34-.64.47-.98l4.52-1.87,3.88-1.73,6.35-3.68.15-.05c.51-.17.96-.47,1.35-.82.29-.26.57-.53.86-.79.36-.33.73-.61,1.19-.78.88-.33,1.52-.96,2.21-1.58.16-.14.29-.3.43-.47.35-.43.78-.64,1.34-.62.25,0,.52-.04.74-.15,1.05-.56,2.24-.8,3.34-1.27.56-.25,1.12-.43,1.62-.81.26-.2.59-.3.87-.5.71-.52,1.57-.71,2.41-.88.9-.18,1.82-.22,2.72-.45.95-.24,1.95-.1,2.92-.09.42,0,.84.07,1.25.12.11.02.33.03.43.08.93.52,1.85.38,2.86.38.8,0,1.6.01,2.4.11.96.11,1.9,0,2.74-.53.66-.41,1.4-.64,2.06-1.1.8-.58,1.53-1.18,2.01-2.07.2-.37.44-.72.67-1.08.41-.64.58-1.34.63-2.09.06-.76-.28-1.37-.88-1.8-.35-.26-.76-.44-1.15-.65-.13-.19-.26-.39-.39-.58-.55-.84-1.24-1.55-1.98-2.22-.17-.16-.38-.3-.6-.38-.23-.09-.55-.05-.75.1-.2.15-.31.43-.31.67,0,.25.06.51.18.73.34.58.44,1.22.44,1.89h0ZM104.15,54.98l-6.36,3.68-3.86,1.72-4.66,1.92c-.13.37-.3.73-.51,1.07-.12.2-.19.44-.27.67-.58,1.53-1.3,3-2.06,4.46-.07.12-.17.23-.25.34-.18.23-1.06,1.36-1.38,1.12-.06-.04.67-1.8.88-2.29.07-.17-.02-.42-.17-.52-.08-.05-.15-.12-.24-.16-.75-.34-1.54-.56-2.36-.66-.67-.09-1.35-.1-1.98.35-.2.39-.42.82-.64,1.25-.25.47-.52.93-.95,1.26-.74.58-2.25,2.26-2.51,2.14-.22-.11,1.91-4.02,1.91-4.38,0-.28.08-.56.13-.86-.16-.15-.29-.32-.45-.4-.34-.15-.73-.22-.94-.6-.06-.12-.22-.2-.35-.25-.58-.21-1.14-.56-1.8-.36-.04.01-.09-.02-.14-.03-.09-.01-.22-.25-.18-.35v-.02s-.42-.01-.42-.01c-.32.45-.67.89-1.12,1.23-.11.09-.23.17-.35.24-.16.09-1.8,1.44-1.85,1.25-.06-.27,1.15-2.05,1.11-2.33-.2-.09-.38-.04-.56.05-.76.32-1.54.53-2.37.63-.86.1-1.72.22-2.56.43-.95.23-1.9.28-2.86.23-.39-.01-.78-.11-1.16-.07-.83.09-1.75.2-2.56.11-.58-.06-1.35.1-1.94.03l-2.36.32-6.74.18-4.49-.71-.39-.19-.13.11c-.45.07-.88-.03-1.29-.14-1.53-.44-3.05-.91-4.44-1.7-.42-.24-.86-.44-1.42-.41-.36-.74-1.02-1.11-1.75-1.41-.35-.14-.68-.37-.99-.58-.76-.52-1.5-1.05-2.25-1.56-1.25-.84-2.35-1.85-3.35-2.96-.92-1.04-1.84-2.1-2.61-3.27-.4-.61-.86-1.16-1.3-1.72-.42-.53-.75-1.12-1.06-1.71-.34-.64-.52-1.35-1-1.9-.1-.11-.13-.26-.18-.4-.29-.82-.59-1.63-.84-2.46-.3-.96-.55-1.95-.81-2.92-.13-.46-.27-.93-.37-1.4-.55-2.55-.83-5.13-1.03-7.72-.09-1.25-.27-2.48-.73-3.67-.29-.76-.83-1.28-1.45-1.75-.25-.18-.56-.17-.84-.16-.14,0-.27.1-.41.15-.73.27-1.45.51-2.25.36-.73.17-1.43.04-2.14-.14-.23-.06-.47-.12-.71-.12-.4,0-.75-.13-1.1-.29-.31-.14-.63-.26-.94-.39-1.69-.74-3.43-1.27-5.25-1.56-.29-.04-.57-.07-.85-.13-.14-.03-.27-.11-.4-.17-.15-.07-.26-.34-.17-.5.07-.11.18-.27.29-.28.28-.04.57,0,.86,0,.43,0,.86,0,1.3,0,.08,0,.17-.08.3-.15-.03-.26-.09-.54-.08-.82.01-.34.09-.67.12-1,.01-.23,0-.48-.02-.71-.06-.71-.09-1.45-.22-2.15-.14-.75-.28-1.52-.62-2.22-.17-.37-.44-.65-.83-.77-.55-.17-1.11-.32-1.67-.47-.37-.1-.75-.19-1.12-.29-.18-.05-.32-.28-.3-.44.03-.21.16-.36.33-.43.22-.09.46-.15.7-.17.67-.07,1.35-.03,2.01.07.38.06.76.11,1.1.16.21-.26.36-.5.57-.7.42-.42.69-.92.86-1.48.12-.37.25-.73.43-1.06.26-.48.32-1,.34-1.54,0-.25-.09-.48-.29-.64-.22-.18-.46-.34-.71-.48-.54-.33-1.09-.61-1.63-.94-.16-.1-.32-.23-.41-.39-.06-.1-.05-.28,0-.39.06-.2.25-.3.45-.31.19,0,.39.02.56.09.89.38,1.76.78,2.66,1.19.85.1,1.7,0,2.55-.2.56-.13,1.12-.26,1.69-.38,1.13-.23,2.23-.58,3.33-.92.84-.25,1.6-.64,2.32-1.13.2-.14.41-.26.62-.38.63-.37,1.16-.85,1.58-1.45.25-.35.43-.76.9-.91.11-.04.23-.19.28-.32.32-.75.94-1.36,1.15-2.16.01-.05.06-.07.08-.12.14-.25.38-.34.6-.22.19.1.29.27.26.47-.12.71-.21,1.43-.36,2.13-.21.95-.3,1.92-.29,2.86.02,1.01.01,2.02.04,3.02,0,.24.02.48.04.72.13,1.44.47,2.84.81,4.25.38,1.58,1.08,2.98,2.2,4.15.1.1.2.21.29.32.66.75,1.04,1.62,1.02,2.63,0,.38-.02.77,0,1.15.04.55-.06,1.06-.27,1.55-.26.58-.35,1.2-.55,1.79-.46,1.35-.5,2.74-.49,4.13,0,.84.18,1.62.64,2.33.24.37.41.76.57,1.17.63,1.51,1.28,3.02,2.53,4.16.07.06.12.15.18.23.83,1.07,1.81,1.99,2.9,2.8.07.04.18.03.3.04.05-.12.15-.24.16-.37.02-.19,0-.39-.04-.57-.18-1-.37-1.99-.55-2.98-.06-.28-.14-.57.04-.84.2-.05.36,0,.49.17.13.19.15.47.45.57,1.33-.25,2.63.23,3.92.41.19-.22.34-.41.5-.61.13.05.26.09.41.15.04.33.07.66.11,1,.32.23.65.44.94.7.29.25.55.53.81.81.17.19.4.26.61.37.27.14.38.43.31.74-.1.42-.22.82-.46,1.2-.5.82-.61,1.3-.64,2.16.51.19,1.04.13,1.56.11.38-.02.77-.06,1.15-.07.48-.01.95-.06,1.42-.21.55-.17,1.12-.31,1.69-.38,1.35-.19,2.62-.63,3.87-1.12,1.31-.51,2.51-1.22,3.7-1.95,1.8-1.1,3.66-2.11,5.4-3.33.91-.63,1.82-1.25,2.65-2.06.12-1.93.16-3.89-.22-5.86-.29-.23-.59-.46-.85-.67-.09-.25-.07-.44.06-.59.14-.17.35-.18.53-.14.37.1.74.21,1.1.35.41.15.77.04,1.07-.23.74-.69,1.45-1.4,2.2-2.09.62-.57.97-1.31,1.34-2.04.16-.3.21-.64.13-.98-.47-.81-1.33-1.24-1.91-1.89-.02-.24-.02-.45.18-.55.12-.06.29-.12.41-.09.69.23,1.36.48,2.04.72.22.08.43.21.8.1.1-.08.28-.24.46-.38q1.18-.89,1.9-1.91c.24-.36.2-.76-.11-1.03-.38-.3-.78-.55-1.23-.74-.17-.07-.32-.2-.47-.32-.11-.09-.16-.42-.06-.53.09-.09.23-.21.35-.2.92.05,1.82.18,2.67.55.31.13.62.26,1.03.16.53-.32,1.05-.74,1.4-1.33.04-.08.01-.19.03-.3-.21-.08-.44-.15-.65-.25-.12-.06-.25-.15-.32-.27-.07-.11-.12-.28-.08-.38.04-.11.21-.25.32-.24.81.09,1.62.22,2.42.32.63.08,1.22.29,1.79.56,1.31.62,2.6,1.24,3.81,2.06,1.14.78,2.07,1.75,2.77,2.9.74,1.23,1.43,2.52,1.7,3.97.02.11.15.21.24.35.29-.12.56-.22.82-.35,1.07-.54,2.15-1.09,3.22-1.62.13-.07.26-.13.38-.21,1.33-.88,2.75-1.58,4.06-2.49,1.7-1.18,3.46-2.27,5.19-3.39,1.01-.66,2.07-1.22,3.22-1.59.87-.27,1.77-.48,2.63-.77.79-.26,1.61-.26,2.41-.45.14-.03.29-.02.43,0,1.38.2,2.76.42,3.97,1.21.24.15.52.26.82.41.4-.04.83-.09,1.25-.14.58-.07,1.15-.18,1.72-.23.82-.07,1.63-.11,2.44.04,1.78.32,3.47.83,4.86,2.06.07.06.13.14.21.2,1.42,2.26,1.55,2.83,1.18,5.21.09.12.21.27.33.42.12.14.24.29.33.39q2.25,1,3.42,2.66c.16.02.35.06.53.06.63-.03,1.25-.08,1.87-.11.84-.04,1.67.09,2.34.58.65.47,1.32.78,2.1.88.09.01.19.05.28.08.77.26,1.33.75,1.65,1.51.41.96.48,1.96.31,2.98-.13.77-.41,1.5-1.02,2.02-.37.31-.8.54-1.21.78-.25.13-.53.22-.8.32-.57.24-.95.64-1.08,1.26-.03.14-.08.28-.12.41-.12.33-.58.42-.84.15-.07-.07-.13-.14-.19-.22-.47-.74-.9-.79-1.73-.42-.14.05-.26.12-.38.2-.45.28-.9.56-1.34.85-.04.03,0,.17,0,.28.33.17.67.35,1.01.54.34.19.61.15.88-.17.23-.27.5-.25.75-.03.29.25.57.52.78.7.33.12.56.2.79.27.92.29,1.87.43,2.84.44.19,0,.39-.01.5-.27,0-.74-.1-1.49-.5-2.18-.09-.16-.12-.36-.13-.55,0-.13.07-.3.17-.38.09-.07.28-.08.4-.04.18.06.34.18.48.32.71.65,1.38,1.33,1.92,2.14.16.24.32.47.45.66.44.24.84.41,1.19.66.49.35.78.84.73,1.48-.05.69-.2,1.33-.57,1.92-.24.36-.48.72-.69,1.1-.45.83-1.15,1.4-1.9,1.94-.63.46-1.38.68-2.03,1.09-.78.49-1.65.56-2.51.47-.82-.09-1.63-.11-2.45-.1-.9,0-1.82.14-2.67-.33-.16-.09-.37-.1-.56-.12-.43-.05-.86-.11-1.29-.11-1,0-2.01-.14-3.01.1-.89.22-1.81.26-2.71.44-.89.19-1.78.38-2.55.94-.27.2-.61.3-.87.5-.47.36-1.02.54-1.55.76-1.1.48-2.3.71-3.37,1.29-.16.09-.37.12-.55.11-.68-.02-1.21.24-1.64.76-.12.15-.25.3-.39.43-.65.58-1.27,1.2-2.1,1.51-.52.19-.93.49-1.32.85-.28.27-.56.53-.85.79-.36.33-.77.59-1.23.75l-.19.07Z"/>
        <path class="cls-1" d="M73.63,57.38c.08.91.08,1.56.03,2.21-.05.74,0,1.5-.27,2.23-.13-.06-.24-.07-.29-.13-.28-.31-.3-.68-.23-1.07.17-.89.33-1.78.5-2.66.02-.11.1-.22.26-.58h0ZM129.75,41.23c-.11-.06-.23-.11-.34-.16.02-.04.03-.1.07-.11.16-.06.3-.01.34.12.01.04-.03.08-.06.16h0ZM120.13,39.14c0-.09-.01-.19.03-.25.03-.04.17-.06.22-.02.13.09.12.28,0,.31-.07.02-.16-.02-.25-.04h0ZM122.87,39.14c.12.07.25.11.34.2.06.05.06.15.08.23-.08,0-.16.03-.22,0-.18-.07-.3-.19-.19-.43h0ZM111.64,46.95c.01-.08,0-.19.04-.24.07-.08.31-.03.33.08.02.08,0,.18-.05.25-.08.11-.25.06-.33-.09h0ZM126.17,36.37c.12-.23.3-.29.49-.24.19.04.32.18.36.37.02.09.05.19.04.28-.01.08-.05.19-.11.21-.07.04-.21.04-.25-.01-.19-.2-.36-.41-.53-.6h0ZM110.51,46.78c.24.3.44.51.59.76.05.08-.02.26-.09.38-.03.05-.18.08-.26.06-.51-.06-.84-.42-1.16-.78-.08-.09,0-.33.12-.34.24-.03.47-.04.79-.07h0ZM114.31,28.65c-.09.31-.17.63-.28.93-.02.05-.15.07-.24.09-.03,0-.1-.02-.12-.05-.2-.42-.4-.84-.59-1.26-.02-.04,0-.11.03-.14.07-.05.15-.12.22-.12.34.02.63.16.97.55h0ZM108.05,46.62c.21.23.44.48.65.73.25.27.61.44.73.82-.06.06-.12.15-.2.19-.45.17-.85.03-1.17-.29-.56-.58-1.09-1.18-1.62-1.79-.02-.02,0-.09,0-.12.03-.02.08-.06.11-.05.49.16.98.33,1.49.52h0ZM110.71,30.75c-.1.15-.17.33-.27.36-.17.06-.38.06-.54,0-.17-.05-.34-.19-.44-.33-.32-.43-.47-.91-.51-1.44-.02-.29.14-.57.43-.67.22-.08.44-.17.74,0,.05.32.08.69.18,1.05.1.36.28.69.42,1.03h0ZM36.89,42.52c-.13-.67-.25-1.37-.11-2.1.3-1.45.34-1.59.72-2.16.6.12.98.56,1.38.98.3.32.49.71.46,1.24-.38.76-.63,1.64-1.03,2.47-.52-.05-1.01-.01-1.43-.43h0ZM33.09,40.91c0-.39.03-.82.01-1.24-.02-.38-.12-.76-.14-1.14-.04-.4-.23-.81-.15-1.2.65.02,1.25-.28,1.88-.1.6.16,1.23.2,1.85.59-.2,1.27-.59,2.51-.79,3.77.05.14.1.28.14.42.03.13-.13.31-.24.27-.82-.28-1.62-.61-2.33-1.1-.08-.05-.12-.14-.22-.25h0ZM5.33,17.6c.09-.02.21-.07.28-.04,1.32.58,2.61,1.2,3.8,2.04.75.53,1.5,1.05,2.22,1.61.72.56,1.41,1.16,2.1,1.75.11.1.2.22.27.34.16.26.19.54.04.82-.12.21-.25.41-.47.53-.46.28-.98.38-1.51.41-.72.04-1.44.08-2.16.09-.48,0-.97-.04-1.44-.09-.24-.03-.48-.08-.69-.2-.57-.33-1.13-.7-1.68-1.07-.04-.03-.01-.16,0-.25,0-.03.07-.06.11-.06.09,0,.2,0,.28.03.45.16.9.34,1.35.49.13.04.27-.01.3-.24-.54-.36-1.1-.72-1.65-1.11-.15-.11-.28-.25-.41-.4-.17-.19-.1-.51.17-.74.24.11.49.24.76.36.13.06.26.11.4.16.04.01.12-.02.13-.05.03-.07.06-.2.03-.23-.55-.46-1.11-.91-1.7-1.39-.18-.86-.37-1.75-.55-2.64,0-.04.03-.08.04-.13h0ZM7.63,10.72c-.05.21-.1.34-.12.48-.06.42-.23.83-.16,1.31.32.27.65.54.97.82.05.05.05.19.01.25-.02.04-.16.06-.23.04-.36-.08-.67-.37-1.08-.35-.16.18-.09.36.06.48.45.37.91.71,1.36,1.06.15.12.3.24.42.38.04.03-.02.14-.03.24-.65-.32-1.29-.64-1.94-.95-.03-.01-.09,0-.12.02-.08.09-.07.19.02.25.23.17.46.34.68.52.15.11.28.25.4.36-.03.16-.1.23-.2.19-.49-.18-.98-.38-1.47-.56-.07-.03-.2,0-.26.05-.05.04-.07.15-.08.23,0,.04.03.1.06.12.17.1.32.23.5.29,1.86.55,3.5,1.57,5.17,2.51.76.42,1.5.85,2.27,1.25.47.24.97.43,1.45.62.22.09.46.13.7.18.34.08.69.08.95-.18.33-.33.16-.73.04-1.08-.17-.51-.46-.96-.84-1.33-.67-.68-1.32-1.4-2.11-1.96-.83-.58-1.6-1.23-2.38-1.87-.22-.18-.41-.4-.62-.6-1.05-.98-2.15-1.9-3.44-2.81h0ZM14.13,10.45l-.02.02c.26-.04.41.14.55.31.02.03.03.11.02.12-.07.03-.17.1-.22.08-.24-.09-.32-.29-.33-.53-.14,0-.31.05-.4,0-.65-.42-1.37-.7-1.95-1.22-.09-.09-.26-.1-.39-.14-.03,0-.09.03-.11.06-.02.04-.03.11-.01.13.16.18.32.36.5.51,1.03.86,2.06,1.72,3.09,2.58.17.14.24.37.13.36-.13,0-.28-.02-.37-.09-.71-.51-1.41-1.02-2.07-1.56-.72-.58-1.49-1.06-2.32-1.44-.17-.08-.37-.12-.55-.11-.1,0-.2.13-.35.25.33.23.61.41.88.6.23.17.45.36.69.53,1.49,1.05,2.8,2.33,4.28,3.4.78.56,1.53,1.15,2.24,1.81.71.66,1.58,1.07,2.51,1.38.18.06.51-.18.52-.38.01-.2.01-.39-.02-.57-.2-1.04-.44-2.07-.62-3.11-.09-.52-.14-1.05-.16-1.57-.03-1.01-.08-2.01-.17-3.02-.08-.96.01-1.91.23-2.86.04-.18.13-.36-.04-.52-.04-.01-.11-.05-.13-.03-1.02.87-2.29,1.39-3.35,2.29.04.15.1.32.11.5,0,.05-.14.17-.18.16-.28-.09-.53-.23-.8-.31-.25-.06-.47.01-.63.31.42.43.85.87,1.27,1.33.04.05,0,.17,0,.26-.09-.01-.18,0-.25-.03-.12-.06-.24-.15-.35-.24-.29-.24-.58-.49-.89-.72-.19-.14-.4-.29-.62-.35-.22-.07-.47-.05-.7-.04-.19.02-.36.12-.44.33.16.38.51.56.79.82.24.22.56.38.65.74l.02-.02h0ZM74.15,17.28c-.12-.4-.46-.54-.81-.63-.03.03-.08.09-.08.09.25.25.5.55.92.52.15.44.55.66.9.91,1.01.71,1.68,1.69,2.25,2.77.65,1.2,1.11,2.45,1.18,3.83,0,.14.07.28.09.42.12.97.08,1.92-.2,2.86-.05.17-.18.33-.3.47-.05.06-.17.06-.26.06-.12,0-.3-.18-.29-.28.04-.33.07-.66.13-.99.45-2.41-.29-4.56-1.38-6.65-.06-.13-.16-.24-.24-.36-1.24-1.73-2.93-2.89-4.79-3.84-.12-.06-.28-.06-.43-.07-.1,0-.15.07-.14.23,1.05.86,2.03,1.85,3.01,2.84,1.62,1.61,2.52,3.5,2.26,5.84-.03.29-.02.58-.07.87-.14.85-.29,1.71-.47,2.55-.06.28-.22.53-.32.8-.09.27-.14.56-.2.79-.11.09-.17.18-.25.21-.31.12-.51.08-.65-.11-.14-.19-.09-.38.03-.53.44-.6.68-1.29.82-1.99.25-1.23.42-2.46.41-3.73,0-.43-.05-.86-.18-1.28-.25-.84-.56-1.64-1.23-2.25-.14-.13-.22-.32-.35-.46-.65-.64-1.3-1.28-1.96-1.91-.14-.14-.35-.01-.54.32.12.12.23.28.38.4.98.8,1.77,1.77,2.5,2.78.08.11.14.24.19.38.01.03-.03.09-.07.12-.03.02-.11.04-.13.01-.12-.08-.25-.15-.34-.25-.37-.44-.71-.92-1.09-1.35-.51-.58-1.08-1.1-1.8-1.41-.16-.06-.37.03-.46.23-.04.08-.01.19-.02.33.11.1.26.22.4.36.41.41.83.8,1.21,1.23.08.08.05.25.08.44-.18-.09-.32-.13-.43-.22-.53-.41-1.05-.84-1.58-1.25-.15-.12-.32-.23-.53-.17-.28.23-.67.37-.75.76.03.07.05.12.08.15.25.22.5.45.77.65,1.3.95,2.05,2.28,2.56,3.75.48,1.43.69,2.9.85,4.39.04.43,0,.87-.04,1.3-.01.13-.09.28-.17.39-.05.07-.16.12-.24.12-.08,0-.18-.05-.23-.11-.19-.24-.19-.54-.18-.83.05-1.61-.28-3.16-.73-4.69-.58-2.03-.75-2.24-2.34-3.71-.25-.23-.48-.47-.74-.69-.41-.34-.87-.6-1.47-.67.01.15-.02.31.04.39.5.65,1,1.29,1.52,1.93.87,1.05,1.49,2.24,1.99,3.5.13.31.23.64.27.97.09.76.16,1.53.2,2.3.03.53-.04,1.06-.29,1.55-.21.43-.36.89-.38,1.38,0,.12-.13.24-.19.37-.46-.13-.48-.12-.52-.23-.05-.14-.11-.3-.07-.42.13-.46.31-.91.44-1.38.09-.32.19-.65.21-.98.04-.87.04-1.74-.11-2.6-.04-.23-.08-.48-.16-.7-.5-1.32-1.17-2.54-2.09-3.61-.09-.1-.23-.17-.34-.24-.4.04-.48.27-.45.56.62.71,1.22,1.4,1.81,2.1.12.14.2.32.29.49.02.04,0,.14,0,.14-.08.01-.19.05-.22,0-.31-.3-.6-.62-.9-.92-.41-.41-.76-.87-1.32-1.08-.29.25-.36.42-.22.57.46.49.92.98,1.39,1.46.2.21.4.42.47.71.02.11,0,.24-.01.37-.1-.01-.16-.01-.19-.04-.3-.32-.6-.63-.87-.96-.35-.42-.77-.73-1.22-1.01-.19-.12-.42-.04-.63.2-.05.07-.04.18-.06.26.35.34.7.66,1.02,1,.09.1.12.25.17.39.01.04,0,.11-.04.13-.07.04-.19.1-.23.07-.19-.14-.37-.3-.55-.45-.29-.24-.51-.59-.9-.7-.79.41-1.2.84-1.45,1.54.32.25.65.53,1,.78.52.37.96.8,1.37,1.28.77.89,1.22,1.95,1.51,3.08.1.38.04.77-.1,1.13-.03.08-.14.19-.2.19-.13-.01-.29-.06-.38-.14-.09-.1-.16-.26-.16-.4,0-.74-.26-1.41-.53-2.09-.13-.35-.31-.71-.55-1-.73-.9-1.58-1.68-2.6-2.25-.12-.07-.19-.01-.19.06.6.98,1.16,1.93,1.76,2.85.69,1.09,1.09,2.24,1.14,3.53.02.38.13.76.04,1.15-.07.3-.29.41-.66.26-.08-.03-.13-.13-.22-.23-.02-.54-.05-1.12-.05-1.69,0-.9-.23-1.71-.75-2.44-.33-.47-.66-.95-.87-1.49-.12-.3-.33-.57-.64-.72-.06.08-.16.14-.16.22-.08,1.35-.14,2.69-.22,4.03-.02.34-.04.67-.09,1-.11.66-.24,1.32-.36,2.04-.34.41-.68.88-1.1,1.27-.92.84-1.88,1.64-3.08,2.09-.13.05-.28.1-.39.19-.82.62-1.86.79-2.68,1.4-1.05.36-1.98.99-3.05,1.31-1.52.46-3,1.05-4.54,1.44-1.13.28-2.23.54-3.4.5-.29,0-.57.03-.87.05-.24.02-.48.06-.71.04-.96-.07-1.92-.13-2.88-.24-.96-.11-1.9-.31-2.75-.82-.54-.33-1.13-.5-1.76-.62-.47-.09-.94-.23-1.36-.46-.98-.52-1.91-1.13-2.71-1.9-1.11-1.08-2.11-2.25-3.03-3.49-1.03-1.39-1.98-2.84-2.97-4.27-.05-.07-.1-.17-.1-.26,0-.08.04-.19.1-.23.07-.05.19-.07.27-.03.29.1.48.32.63.56.59,1,1.3,1.92,1.94,2.87.73,1.08,1.54,2.09,2.39,3.08.89,1.03,1.88,1.94,3.02,2.67.53.33,1.09.62,1.71.73,1.05.19,2.03.61,3.01,1.01.45.18.9.34,1.38.41,2.49.4,4.98.46,7.45-.17.23-.06.47-.09.71-.16.65-.19,1.3-.36,1.93-.58.77-.27,1.53-.56,2.29-.86.99-.39,1.98-.78,2.93-1.22.92-.42,1.78-.96,2.72-1.36,1.03-.44,1.91-1.08,2.77-1.79.7-.58,1.16-1.28,1.38-2.15.04-.14-.02-.26-.3-.28-1.17,1.15-2.75,1.8-4.11,2.79-.16.12-.35.17-.52.26-1.22.67-2.45,1.32-3.66,2.02-1.59.92-3.21,1.75-5.05,2.05-.14.02-.28.06-.42.11-.96.33-1.95.52-2.95.69-.96.16-1.92.13-2.87.28-1,.15-1.89-.28-2.83-.45-.23-.05-.47-.1-.7-.17-1.19-.38-2.4-.7-3.49-1.34-.36-.22-.8-.31-1.14-.42-.39-.38-.71-.73-1.08-1.02-1.17-.94-2.25-1.95-3.16-3.15-.11-.15-.24-.3-.38-.43-.65-.65-1.12-1.43-1.53-2.26-.53-1.08-.96-2.21-1.53-3.27-.33-.6-.47-1.25-.42-1.95.07-.96.13-1.92.22-2.88.02-.28.09-.56.18-.85.28-.92.56-1.84.88-2.74.34-1,.34-1.98,0-2.98-.24-.7-.64-1.29-1.13-1.86-.14-.08-.3-.2-.48-.27-.54-.21-.79-.63-1.01-1.15-.67-1.66-1.19-3.36-1.4-5.13-.18-1.53-.45-3.05-.23-4.6.05-.33.03-.67.01-1.01-.04-.68-.06-1.35.05-2.02.02-.12-.08-.26-.13-.41-.09.1-.18.15-.21.23-.21.64-.43,1.28-.59,1.93-.2.8-.33,1.61-.28,2.43.07,1.25.17,2.49.24,3.74.03.58.1,1.15.24,1.71.21.84.38,1.7.58,2.53.1.44.08.86-.1,1.27-.22.51-.74.8-1.29.7-.14-.03-.28-.06-.41-.13-1.08-.53-2.15-1.08-3-1.97-.23-.24-.47-.5-.76-.66-1.04-.62-1.74-1.68-2.85-2.19-.04-.02-.08-.06-.11-.1-.54-.7-1.32-1.11-2.03-1.6-.15-.1-.35-.12-.53-.18-.03-.32-.23-.49-.52-.57-.03,0-.08.01-.09.04-.02.03-.05.09-.03.11.15.24.34.42.66.38.4.73,1.04,1.24,1.66,1.76,1.21,1.02,2.44,2.03,3.67,3.02.64.51,1.2,1.09,1.73,1.72.38.45.64.96.77,1.53.06.27.06.57.04.86-.03.36-.23.62-.56.78-.58.28-1.17.43-1.81.22-.41-.13-.85-.21-1.23-.4-1.16-.58-2.29-1.21-3.44-1.82-.54-.56-1.36-.69-1.91-1.24-.1-.1-.24-.17-.38-.21-.47-.11-.87-.38-1.28-.63-.25-.15-.52-.26-.79-.33-.17-.04-.37.03-.56.04-.27-.35-.66-.46-1.09-.44-.02,0-.04.08-.05.13.34.22.71.41,1.15.28.05.21.23.29.39.39q3.33,1.79,5.42,3.3c.78.56,1.53,1.16,2.3,1.75.57.43.82,1.06.99,1.72.04.16-.01.39-.11.54-.48.71-1.12,1.2-1.98,1.32-.42.06-.86.11-1.29.12-1.3.02-2.6.03-3.89-.14-.07-.01-.16.08-.29.16.52.21,1.02.38,1.5.61.92.44,1.86.76,2.88.88,1.35.18,2.68.3,3.98-.23.18-.07.36-.12.55-.16.59-.11,1.17-.02,1.65.33.59.42,1.12.93,1.38,1.64.39,1.09.74,2.18.76,3.37.01.77.09,1.53.15,2.3,0,.07.11.13.17.19.23-.06.3-.39.59-.33.22.06.36.21.31.42-.13.56-.28,1.12-.47,1.66-.21.6-.23,1.22-.24,1.85,0,.18.03.38.23.49.13-.26.11-.56.14-.84.03-.33.07-.67.14-1,.04-.19.15-.36.24-.53.09-.19.25-.31.46-.27.12.02.21.17.32.25-.03.17-.02.32-.09.44-.28.47-.34.99-.38,1.52-.09.96-.05,1.92-.26,2.87-.06.27.05.57.11.85,0,.06.11.11.22.2.25-.5.31-1.03.4-1.54.09-.52.23-1.03.34-1.53.38-.02.47.01.5.17.01.09.06.19.05.28-.12.76-.19,1.53-.41,2.26-.17.57-.24,1.12-.21,1.7.02.43-.1.87.03,1.29.09.28.16.55.25.83.09.27.02.58.26.86.06-.14.15-.25.15-.36-.06-1.4.17-2.79.29-4.17.04-.38.04-.78.32-1.1.38.04.5.13.48.35-.03.29-.07.57-.11.86-.16,1.34-.35,2.66-.32,4.02.03,1.08.22,2.11.5,3.13.17.66.6,1.18,1.02,1.72.02.03.15-.03.31-.07-.36-1.06-.46-2.16-.51-3.27,0-.19-.06-.38-.1-.57-.2-.9-.18-1.82-.12-2.73,0-.14.07-.28.1-.42.02-.11.26-.23.34-.18.07.05.17.13.18.2.03.19.02.38.02.57,0,.68-.08,1.36,0,2.02.2,1.62.46,3.24.73,4.85.09.52.27,1.02.42,1.53.04.13.12.28.22.37.1.08.24.11.44.19-.04-.3-.08-.53-.12-.77-.16-.85-.29-1.71-.27-2.58,0-.67-.02-1.34-.11-2.02-.04-.28-.06-.58,0-.86.1-.57.15-1.15.11-1.72,0-.06.11-.13.18-.22.1.11.22.19.28.31.21.4.29.82.17,1.26-.16.63-.15,1.25-.05,1.86.1.63.09,1.24.07,1.88-.02.76.02,1.54.29,2.27.08.23.18.47.18.7,0,.67.34,1.19.64,1.74.22.37.4.76.86,1.05.12-.61.02-1.18.02-1.75,0-.53-.07-1.06-.1-1.59-.03-.58-.06-1.15-.1-1.73-.03-.53-.07-1.06-.12-1.58-.05-.56-.28-1.11-.13-1.67.27-.05.44.05.51.24.06.18.08.38.11.56.27,1.91.41,3.84.45,5.75.02.95.29,1.81.62,2.66.23.59.64,1.07,1.19,1.42.41.25.8.54,1.2.8.11.07.25.06.38.09,0-.34-.19-.57-.3-.83-.19-.44-.42-.87-.59-1.32-.67-1.88-.99-3.81-1-5.8,0-.54.09-1.05.27-1.55.02-.07.15-.13.22-.13s.2.07.22.13c.05.19.1.38.06.56-.17.77-.17,1.53-.02,2.29.02.14.05.29.05.43-.02,1.38.38,2.66.79,3.95.14.46.35.88.6,1.3.38.67.88,1.26,1.19,1.97.13.32.43.52.86.42-.19-1.04-.28-2.09-.68-3.09-.23-.58-.4-1.19-.57-1.79-.45-1.62-.32-3.24.08-4.85.01-.05.16-.11.23-.11.08,0,.16.09.21.17.04.08.07.18.06.27-.03.43-.04.87-.14,1.29-.23,1.07-.16,2.11.17,3.14.26.83.5,1.66.77,2.49.15.5.32,1,.36,1.54.05.57.21,1.13.5,1.62q1.03.86,1.61.86c-.02-.13-.01-.28-.06-.4-.21-.59-.43-1.18-.62-1.78-.16-.5-.36-1-.43-1.53-.27-1.97-.17-3.94.16-5.89.01-.1.05-.19.1-.27.09-.13.2-.2.36-.18.13.02.27.19.25.31-.1.86-.2,1.71-.32,2.57-.18,1.26-.14,2.52.17,3.73.4,1.53.88,3.05,1.83,4.33q1.24.58,1.73.5c0-.1,0-.2-.03-.28-.13-.31-.28-.62-.44-.91-.5-.9-.83-1.86-1.03-2.85-.19-.89-.24-1.81-.39-2.71-.12-.67-.06-1.34-.01-2.01,0-.07.1-.14.17-.2.08-.07.32.06.35.17.02.1.07.19.08.28.03.29.07.58.05.86-.07,1.41.25,2.78.51,4.15.1.56.31,1.13.6,1.62.41.7.73,1.44,1.05,2.21l1.15.17.15-.25c-.08-.24-.14-.47-.23-.69-.31-.76-.63-1.51-.95-2.27-.35-.86-.47-1.75-.43-2.73.18.05.36.05.42.13.11.14.2.34.21.53.04.83.29,1.6.56,2.38.32.91.61,1.83,1.04,2.7.05.1.08.21.09.3l1.35.1s-.01-.04-.01-.06c-.11-.82-.38-1.57-.76-2.31-.15-.3-.22-.63-.34-.94-.2-.49-.3-1-.31-1.54-.01-.72-.04-1.44-.23-2.13-.02-.08,0-.19.03-.27.03-.07.12-.16.2-.17.07-.01.21.03.23.09.1.21.21.43.24.66.09.56.17,1.14.19,1.71.03.78.23,1.51.5,2.23.1.27.18.55.27.82.02,0,.04-.01.06-.02.22.66.44,1.33.65,1.99l1.25.09c-.09-.11-.19-.2-.22-.3-.51-1.39-1.01-2.78-1.37-4.22-.15-.61-.23-1.22-.18-1.85.02-.18.1-.37.19-.53.02-.05.16-.05.25-.05.04,0,.1.03.12.07.05.08.11.18.11.26-.12,1.71.31,3.3.96,4.86.2.48.33.99.5,1.5l-.26.27,1.3.1.97-.09s-.07-.03-.09-.06c-.59-.98-1.21-1.96-1.59-3.05-.21-.58-.39-1.18-.59-1.78-.01,0-.02.01-.03.01-.27-.66-.53-1.34-.81-1.99-.15-.36-.25-.73-.23-1.12,0-.14.05-.29.11-.4.04-.07.15-.14.23-.15.07,0,.21.09.21.14.04.68.36,1.28.56,1.92.33.99.73,1.97,1.07,2.97.35,1,.76,1.96,1.37,2.84.08.11.14.25.17.38.02.08-.03.18-.09.26h0s1.21-.1,1.21-.1c-.24-.41-.36-.89-.43-1.53.08.05.17.08.23.14.41.36.58.87.8,1.33l.83-.08c0-.21.24-.42.08-.73-.81-1.15-1.51-2.54-1.9-4.04-.27-1.02-.43-2.07-.64-3.1-.01-.04,0-.1.03-.13.06-.07.13-.12.2-.17.03-.02.11,0,.14.02.1.09.25.19.29.3.09.23.13.46.17.7.2,1.14.41,2.28.81,3.36.47,1.28,1.1,2.46,2.05,3.41.13.04.22.08.32.08.25.03.48,0,.54-.31-.3-.66-.63-1.31-.89-1.97-.46-1.16-.9-2.34-1.33-3.51-.13-.36-.23-.74-.32-1.11-.02-.08.02-.2.07-.27.05-.05.18-.11.22-.09.12.08.25.18.3.29.41,1.08.83,2.17,1.21,3.25.45,1.27.85,2.56,1.74,3.66.13.03.27.05.42.08l2.69-.14h-.01c-.15-.05-.33-.09-.51-.13-.96-.23-1.81-.61-2.25-1.59-.28-.61-.59-1.21-.94-1.79-.43-.71-.66-1.49-.87-2.29-.04-.13-.01-.28-.01-.43,0-.11.06-.19.18-.18.09,0,.19.01.24.07.23.2.3.48.37.76.35,1.48,1.09,2.78,1.88,4.04.12.2.32.35.51.54.33.01.66.03,1,.04.03,0,.06-.05.1-.08-.01-.1,0-.2-.05-.28-.79-1.33-1.31-2.79-1.94-4.19-.24-.53-.38-1.09-.44-1.67-.01-.12.06-.26.1-.43.16.07.31.11.4.2.1.09.2.23.21.36.06.58.22,1.13.45,1.67.35.79.67,1.6,1.04,2.38.31.65.64,1.3,1.13,1.84.2.23.46.33.76.33.21,0,.37-.07.38-.37-.14-.2-.3-.44-.46-.67-.55-.8-.98-1.66-1.23-2.6-.23-.84-.48-1.67-.77-2.49-.3-.87-.42-1.78-.54-2.68-.01-.08.05-.17.08-.25.21-.04.39.02.47.22.1.27.2.54.26.82.08.38.1.77.21,1.13.42,1.39.83,2.77,1.29,4.14.31.92.85,1.72,1.54,2.42.1.1.21.21.34.26.13.06.28.08.42.08.2-.02.38-.1.46-.37-.08-.12-.16-.29-.27-.44-.6-.88-1.07-1.82-1.5-2.79-.36-.8-.56-1.63-.56-2.52,0-.82-.08-1.63-.11-2.45-.02-.48-.01-.97-.01-1.45,0-.09.04-.2.1-.26.05-.06.16-.12.24-.12.08,0,.17.08.22.14.06.07.09.17.09.27.07,1.15.2,2.31.16,3.46-.07,2.16.89,3.91,2.04,5.59.11.16.33.17.53.12.28-.07.43-.27.36-.52-.06-.23-.13-.46-.21-.69-.29-.93-.58-1.84-.86-2.76-.21-.7-.27-1.42-.22-2.14,0-.14.04-.29.1-.42.04-.07.15-.13.23-.13.08,0,.21.05.23.11.08.17.17.36.16.54-.1,1.99.65,3.77,1.3,5.51.12.06.16.09.2.11.09.02.18.07.27.07.56.02.84-.33.68-.81-.34-1.05-.69-2.11-1.01-3.17-.17-.55-.31-1.11-.27-1.7.01-.23.16-.41.32-.39.18.02.33.19.36.38.02.19.03.38.05.57.11,1.01.32,2,.59,2.97.12.42.25.82.56,1.16.09.1.27.1.37-.04.04-.06.05-.16.04-.25,0-.04-.07-.06-.1-.1-.42-.38-.42-.41-.17-.82.1-.16.2-.32.31-.48-.18-.77-.36-1.52-.53-2.27-.05-.23-.07-.47-.06-.71,0-.12.11-.25.2-.35.08-.1.39.01.48.19.07.12.1.27.14.41,0,.19-.02.38.03.56.08.26.07.56.3.77-.12-.45-.24-.9-.36-1.35.17.01.27-.08.32-.23.08-.21.14-.44.21-.64.23-.04.41-.07.58-.11.53-.96,1.04-1.89,1.37-2.89.01-.06.16-.11.23-.09.08.02.18.12.19.19.01.19.01.39-.04.56-.1.32-.24.63-.35.95-.02.06.04.2.11.23.07.04.2.04.26,0,.07-.04.08-.18.15-.24.06-.05.17-.11.24-.09.07.01.17.13.17.19-.03.48-.07.96-.12,1.43-.07.72-.14,1.44-.2,2.15,0,.06.1.17.18.19.06.02.21-.04.23-.1.1-.42.19-.84.26-1.26.08-.52.12-1.05.18-1.54.35-.12.49-.09.5.08,0,.14.02.29,0,.42-.09.86-.19,1.72-.29,2.58-.03.29-.07.57-.05.86.01.15.19.17.38.09.13-.63.28-1.29.42-1.95.11-.44.34-.78.73-1,0-.07.02-.12.01-.16-.13-.37-.29-.71-.39-1.08-.06-.22-.04-.47-.04-.71,0-.16.24-.34.41-.37.16-.01.43.11.48.25.05.14.11.27.14.41.44,1.9.53,3.81.29,5.74-.06.42-.3.95-.33,1.38,0,.08-1.19,2.56-1.12,2.6.06.02,1.39-1.64,1.37-1.46.53-.86,1.32-2.79,1.47-3.82.15-1,.41-1.98.59-2.97.12-.67.48-1.14,1.03-1.49.56-.35,1.09-.3,1.59.13.23.2.4.42.48.71.18.65.41,1.28.4,1.97,0,.91.06,1.83.09,2.74.04,1.39.04,2.79-.15,4.18-.03.23-.24.59-.22.83.03.49-.71,2.49-.85,2.96-.03.12,0,.2.12.23.08-.11.16-.22.22-.35.47-.95,1.6-3.61,1.86-4.65.28-1.13.48-2.25.34-3.42-.03-.23-.04-.49,0-.72.31-1.43.14-2.88.3-4.32.08-.71.13-1.43.26-2.14.14-.73.43-1.38.79-2,.32-.56.8-.95,1.4-1.2.53-.21,1.02-.19,1.51.14,1.67,1.09,2.46,2.71,2.52,4.63.09,2.3.03,4.62-.24,6.92-.03.28-.09.7-.09.99,0,.07-.85,3.05-.75,3.17.13-.23,1.23-3.46,1.31-3.67.79-2.04,1.32-4.13,1.18-6.34-.01-.14,0-.29,0-.43.06-1.03-.17-2.01-.52-2.96-.29-.77-.57-1.53-1.01-2.23-.16-.26-.07-.56.12-.8.17-.23.61-.25.76-.03.11.16.22.32.28.5.27.82.54,1.65.79,2.48.15.51.3,1.01.43,1.53.16.67.53,1.23.99,1.73.3.32.61.62.92.91.49.46,1,.9,1.49,1.37.11.11.21.24.29.38l2.78-1.22.72-.3c-.16-.1-.32-.19-.5-.26-.78-.32-1.35-.89-1.88-1.54-.81-.98-1.31-2.12-1.78-3.28-.02-.04-.02-.1-.02-.14,0-.14.04-.32.19-.36.12-.03.32,0,.38.07.14.18.27.39.34.62.25.74.64,1.4,1.06,2.04.63.99,1.39,1.85,2.56,2.23.13.05.26.1.37.14.37-.05.7-.12.97-.33-.02-.09-.02-.21-.08-.25-1.32-1.08-2.33-2.43-3.32-3.8-.17-.22-.28-.5-.4-.77-.03-.08-.03-.19,0-.28.03-.08.09-.16.17-.2.07-.03.22-.04.26,0,.24.3.48.6.67.92.87,1.41,2.02,2.57,3.21,3.7.13.13.3.23.46.34.32-.2.6-.37.88-.57.14-.1.31-.23.24-.51-.26-.22-.56-.45-.85-.71-.9-.81-1.77-1.63-2.43-2.65-.1-.15-.16-.34-.21-.53-.02-.08.02-.24.08-.26.12-.04.29-.05.39,0,.12.06.23.19.29.31.71,1.23,1.78,2.13,2.83,3.05.22.19.47.32.74.49.31-.15.59-.29.89-.44-.04-.1-.05-.21-.12-.26-.92-.72-1.64-1.62-2.44-2.46-.06-.06-.12-.14-.18-.23-.05-.07-.12-.17-.12-.25,0-.14-.01-.32.06-.41.07-.09.24-.07.32-.09.73.8,1.4,1.54,2.09,2.28.32.35.67.69,1.17.8.03,0,.08-.01.1-.04.02-.04.04-.11.02-.13-.6-.63-1.09-1.34-1.46-2.12-.03-.07,0-.21.05-.26.05-.06.18-.12.25-.1.17.07.37.15.47.29.21.32.34.69.55,1.01.16.23.38.42.61.6.16.12.36.11.55.01.47-.26.52-.55.16-1.03-.05-.08-.14-.14-.17-.22-.03-.09-.02-.19-.01-.28.02-.11.24-.2.37-.14.22.09.43.19.64.29.23-.23.39-.46.37-.78-.7-.19-1.4-.36-2.09-.57-.51-.16-1-.3-1.55-.21-.31.05-.67-.04-.99-.12-.61-.14-1.22-.26-1.85-.29-.74-.03-1.39-.37-2.07-.63-.2-.08-.22-.33-.04-.46.11-.08.23-.14.39-.23-.14-.18-.25-.32-.37-.46-.22-.26-.46-.5-.66-.77-.2-.27-.32-.59-.29-.95.01-.17.13-.24.28-.29.16-.05.3.02.36.15.14.3.22.64.4.92.51.77,1.25,1.32,1.93,1.92.07.06.18.06.27.09.05.01.1.02.14.01.05,0,.12-.02.13-.06.04-.07.09-.2.06-.23-.74-.84-1.27-1.82-1.85-2.75-.13-.2-.22-.43-.29-.65-.02-.06.04-.2.1-.23.07-.04.19-.03.27,0,.09.03.19.08.24.15.4.6.82,1.19,1.18,1.81.45.76,1.07,1.36,1.7,1.94.14.13.33.22.51.26.23.05.48.06.63-.23-1.25-1.45-2.25-3.09-3.41-4.61.23-.28.44-.35.59-.22.07.06.16.12.21.19.83,1.12,1.66,2.25,2.47,3.38.47.65,1.09,1.08,1.82,1.36.08.03.2,0,.28-.05.05-.04.05-.15.09-.24-.54-.54-1.08-1.09-1.61-1.64-.41-.42-.78-.87-.98-1.42-.17-.46-.46-.84-.78-1.21-.1-.1-.19-.21-.24-.34-.03-.07,0-.2.04-.26.05-.05.19-.08.26-.06.14.04.28.09.38.19.38.31.65.69.88,1.13.22.42.41.89.72,1.24.64.72,1.32,1.4,2.03,2.05.31.29.73.46,1.11.66.11.05.28.02.41,0,.13-.03.07-.27-.13-.47-.37-.39-.74-.76-1.11-1.15-.29-.32-.63-.61-.85-.97-.35-.59-.76-1.1-1.36-1.46-.3-.17-.55-.44-.66-.76-.25-.73-.69-1.37-1.07-1.96,0-.17-.02-.27.01-.35.24-.63.46-1.27.74-1.88.2-.44.54-.79.97-1.04.12-.06.27-.08.41-.11.17-.04.38.21.33.37-.07.18-.12.37-.23.52-.21.3-.26.62-.22.96.04.28.12.56.17.78.22.15.37.26.53.37.3,1.91.95,2.72,2.46,3.05,0-.09.01-.2-.03-.27-.29-.5-.6-.99-.89-1.49-.17-.3-.27-.62-.24-.97.02-.14.07-.29.14-.39.04-.07.15-.13.24-.14.08,0,.21.04.24.1.12.3.23.63.32.95.26.85.75,1.55,1.34,2.21.27.29.59.49.98.57.39.09.56.05,1.46-.24-.68-.65-1.41-1.2-1.92-1.96-.51-.76-.99-1.54-1.24-2.42.25-.29.45-.34.56-.14.23.42.47.84.69,1.27.72,1.36,1.75,2.4,3.15,3.1.33-.02.67-.03,1-.08.11-.02.2-.12.3-.18-.16-.27-.41-.33-.62-.45-.46-.27-.92-.54-1.28-.93-.84-.94-1.54-1.98-2.13-3.08-.1-.2-.12-.46-.15-.7,0-.06.09-.16.17-.19.07-.03.19-.01.26.02.08.04.16.12.19.2.3.78.8,1.43,1.23,2.12.57.93,1.32,1.66,2.3,2.12.31.15.59.32.82.59.05.06.17.07.27.11.36-.04.76.05,1.13-.22-.17-.13-.32-.25-.47-.35-1.35-.88-2.06-2.25-2.76-3.63-.02-.05.04-.19.1-.23.07-.05.19-.07.26-.04.12.05.27.14.34.25.41.6.81,1.19,1.18,1.81.35.6.83,1.04,1.43,1.38.37.21.72.47,1.11.71q.43.05.72-.06c-.46-.78-1.04-1.49-1.4-2.32.02-.06.02-.12.05-.15.18-.21.48-.25.6-.07.28.44.56.9.84,1.35.62,1.01,1.44,1.81,2.45,2.4.29.18.63.23.93-.13-.12-.14-.23-.28-.35-.43-.35-.46-.72-.91-1.05-1.38-.13-.19-.19-.43-.27-.66,0-.04.02-.1.05-.13.08-.04.17-.1.25-.1.08,0,.19.04.25.11.19.22.34.47.52.69.39.49.77.99,1.21,1.44.58.62,1.3.78,2.1.43.07-.03.13-.13.22-.24-.24-.34-.5-.67-.75-1.03-.07-.11-.12-.26-.13-.4-.01-.14.03-.29.19-.35.14-.06.29-.04.38.1.13.2.24.41.37.62.32.51.81.81,1.32,1.1.33.19.7.2,1.51.13.02-.22-.15-.33-.25-.48-.14-.2-.28-.39-.39-.6-.04-.06-.01-.19.04-.26.05-.06.17-.1.25-.11.09,0,.2.04.26.1.17.16.35.33.49.52.3.39.67.69,1.09.93.64.37,1.22.46,2.05.33-.04-.26-.29-.35-.43-.53-.21-.26-.41-.53-.59-.8-.04-.06,0-.19.02-.27.04-.1.31-.16.38-.1.15.11.32.22.43.37.43.54.95.95,1.61,1.21.18-.02.37-.03.55-.08.17-.04.36.17.56-.08-.17-.32-.56-.49-.71-.84.14-.27.34-.4.5-.3.2.13.39.27.59.41.47.33.92.7,1.43.98.29.18.63.14.87-.2-.19-.22-.38-.44-.6-.69.15-.08.28-.2.36-.19.28.08.54.2.79.34.18.09.35.17.53.03.21-.16.09-.32-.02-.48-.04-.07-.07-.17-.08-.27-.03-.17.21-.38.38-.33.13.04.28.08.4.16.16.1.3.24.52.19.51-.38.52-.38.45-.65-.25-.18-.52-.37-.78-.56.08-.35.24-.53.43-.46.31.11.62.26.94.34.14.04.25-.13.28-.26.02-.08,0-.22-.04-.26-.28-.17-.58-.32-.87-.49-.12-.06-.16-.29-.07-.37.08-.05.16-.14.24-.13.24.03.46.12.7.16.19.03.38.04.57.04.16,0,.23-.22.15-.4-.06-.12-.11-.25-.15-.36.15-.34.53-.48.56-.86-.15-.45-.38-.62-.69-.48-.26.11-.51.26-.75.42-.32.21-.62.44-.94.65-.06.03-.17-.03-.25-.07-.03-.02-.05-.1-.04-.13.07-.17.11-.37.23-.52.26-.34.66-.56.91-.96-.08-.7-.6-1.17-1-1.69-.07-.09-.24-.11-.42-.19.06.58.1,1.11.18,1.63.11.68-.12,1.23-.64,1.67-.48.4-.97.79-1.47,1.17-.4.31-.85.44-1.43.32-.14-.17-.39-.35-.52-.6-.33-.64-.76-1.23-.98-1.93-.07-.22-.2-.44-.32-.64-.03-.05-.16-.04-.3-.07-.02.33-.06.66-.07.99-.02.91-.4,1.68-.92,2.39-.36.5-.96.68-1.54.47-.27-.1-.53-.22-.79-.35-.64-.31-1.28-.39-1.95-.05-.16.09-.35.12-.45.15-.99-.05-1.81-.32-2.52-.85-.74-.54-1.57-.69-2.45-.67-1.5.04-2.85-.36-4-1.37-.07-.06-.16-.11-.23-.18-.45-.35-.62-.8-.62-1.38,0-.74.19-1.33.94-1.61.22-.08.42-.22.55-.29.2.02.3,0,.38.04.4.16.76.1,1.09-.14.12-.09.23-.18.35-.26.42-.29.89-.37,1.38-.25.42.1.84.21,1.25.35.75.26,1.49.33,2.25,0,.21-.09.47-.11.71-.1.76.04,1.54.09,2.3.17.51.05.96-.07,1.38-.34.36-.24.71-.5,1.04-.77.23-.18.47-.34.77-.38.63-.07,1.25-.13,1.82.23.11.06.27.05.35.07.35-.33.6-.73.98-.9.47-.23.69-.64.97-1.02.47-.15.92-.29,1.38-.46.12-.04.22-.18.3-.3.04-.07.05-.19.02-.27-.04-.07-.15-.15-.22-.15-.29.03-.56.08-.85.12-.24.03-.47.06-.7.08-.11,0-.17-.07-.16-.2,0-.04,0-.1.01-.12.11-.1.2-.21.34-.26.49-.18,1-.33,1.5-.52.12-.05.25-.17.3-.29.15-.36-.21-.78-.58-.77-.44,0-.81.34-1.25.21-.02-.05-.05-.1-.04-.14.01-.09.02-.21.08-.24.25-.14.5-.26.77-.38.22-.09.48-.07.62-.3-.1-.49-.25-.65-.59-.64-.34.02-.67.07-.97.24-.21.12-.4.26-.61.38-.13.07-.26.13-.41.15-.07.01-.15-.06-.21-.12-.02-.02-.02-.1,0-.14.14-.33.44-.5.73-.66.18-.1.29-.23.17-.44-.33-.11-.66-.14-1-.04-1.09.31-2.02.89-2.87,1.62-.21.18-.34.46-.48.71-.12.21-.18.45-.33.64-.06.08-.25.12-.38.1-.21-.03-.4-.23-.38-.37.03-.19.06-.39.13-.56.29-.63.75-1.11,1.33-1.48.65-.41,1.32-.8,1.97-1.2.1-.06.22-.16.08-.3-.94.05-1.58.9-2.51.97-.05-.27.05-.44.21-.55.35-.25.73-.48,1.08-.73.07-.04.09-.15.13-.23-.09,0-.18-.05-.26-.03-.55.18-1.08.39-1.57.71-.48.31-1.01.56-1.51.83-.05.03-.2-.02-.22-.06-.03-.08-.01-.21.03-.27.15-.19.34-.33.5-.51.09-.1.13-.23.22-.39-.66.05-1.13.42-1.62.71-.51.31-.9.71-1.03,1.33-.04.18-.13.37-.25.51-.08.1-.23.16-.36.19-.13.03-.33-.23-.33-.4,0-.1-.02-.2,0-.29.25-.86.68-1.59,1.5-2.03.29-.16.6-.32.88-.49.25-.15.27-.51.05-.75-.09-.1-.23-.17-.36-.2-.13-.02-.29,0-.42.06-.53.22-1.08.42-1.54.79-.11.09-.25.13-.39.18-.04.01-.13,0-.13-.02-.02-.08-.05-.19-.02-.24.25-.48.76-.71,1.13-1.11-.98.11-.97.12-1.42.51-.59.52-1.07,1.11-1.25,1.9-.03.14-.09.27-.17.4-.07.12-.18.21-.35.2-.19-.02-.39-.19-.38-.36,0-.19,0-.39.06-.57.23-.76.67-1.39,1.24-1.92.45-.41.95-.77,1.43-1.15-.22-.31-.46-.58-.85-.66-.36.12-.49.47-.73.69-.28.27-.58.5-.86.78-1,.98-2.16,1.76-3.32,2.52-.73.48-1.53.81-2.3,1.06-.33.37-.48.79-.87,1.04-.32.21-.52.56-.56.96-.08.73-.52,1.2-1.08,1.62-.67.51-1.46.72-2.23,1.01-1.35.49-2.63.37-3.88-.33-.08-.04-.19-.06-.26-.12-.6-.5-1.31-.8-1.99-1.15-.26-.13-.26-.38-.13-.61.55-.4,1.06-.85,1.64-1.18,1.27-.71,2.6-1.28,4.08-1.34.64-.03,1.23-.19,1.87-.38.68.29,1.4.21,2.1,0,.65-.19,1.29-.41,1.92-.64.31-.12.63-.26.89-.46.22-.16.34-.45.49-.66q1.21-.27,1.72-.93c-.04-.08-.08-.18-.13-.26-.11-.16-.21-.32-.08-.52.13-.2.3-.22.63-.06.04.02.08.06.12.08.43.2.52.14.65-.37-.14-.13-.28-.25-.42-.38-.03-.21.05-.41.28-.41.38.01.75.07,1.08.11.37-.29.63-.55.68-1-.11-.05-.24-.17-.35-.16-.34.04-.66.14-.99.2-.18.03-.37.03-.6.04.07-.2.07-.38.16-.45.2-.14.42-.23.65-.3.41-.14.83-.25,1.25-.38.32-.1.45-.35.48-.66.01-.18-.03-.37-.05-.52-.24-.13-.43-.11-.6-.02-.42.23-.83.48-1.24.73-.17.1-.35.16-.58.07.03-.13.01-.3.09-.38.36-.32.74-.62,1.11-.91.26-.21.62-.28.8-.58.08-.31-.03-.56-.2-.81-.08-.11-.29-.18-.38-.12-.16.1-.33.19-.48.31-.43.38-.85.77-1.3,1.14-.14.12-.33.2-.58.1.09-.17.15-.36.27-.5.48-.54.98-1.06,1.46-1.59.06-.06.06-.18.11-.29-.18-.42-.5-.64-1.02-.58-.1.16-.21.32-.29.49-.38.74-.84,1.41-1.34,2.06-.12.16-.33.23-.35.13-.03-.13-.05-.29,0-.4.18-.38.4-.76.59-1.15.19-.39.36-.79.53-1.19.08-.2-.21-.5-.44-.44-.12.04-.28.12-.33.23-.31.6-.59,1.21-.89,1.81-.28.56-.57,1.12-.87,1.67-.07.12-.2.21-.4.07.16-1.33,1.05-2.43,1.35-3.71-.3-.41-.63-.42-1-.23-.19.27-.18.57-.26.84-.15.51-.29,1.03-.64,1.44-.08.1-.15.12-.23.06-.03-.02-.06-.08-.05-.11.04-.19.07-.38.13-.56.17-.52.19-1.04.2-1.57,0-.22-.19-.44-.46-.46-.23-.02-.48-.09-.65.12-.13.78-.24,1.54-.38,2.29-.02.14-.12.25-.19.38-.01.03-.08.05-.11.04-.04-.01-.1-.05-.11-.09-.15-.62.06-1.24,0-1.86-.02-.19-.04-.39-.12-.55-.05-.1-.23-.16-.36-.18-.06-.01-.17.09-.2.17-.06.12-.11.28-.1.41.02.29.1.57.14.85.09.66-.14,1.23-.59,1.71-.04.06-.18.1-.24.08-.06-.03-.13-.16-.12-.23.11-.37.23-.73.34-1.04-.16-.48-.29-.89-.43-1.3,0-.02-.05-.02-.09-.05.06.34.11.67.16.98-.08.21-.15.38-.22.56-.51,1.34-1.47,2.23-2.81,2.72-.18.07-.36.13-.54.2-.72.26-1.44.53-2.16.8-.09-.04-.2-.05-.25-.11-.26-.28-.2-.71.1-.85.13-.06.26-.13.4-.16,1.73-.41,2.92-1.62,4.11-2.81.1-.1.16-.24.22-.38.03-.08.06-.19.05-.28-.08-.64-.29-1.22-.92-1.53-.26-.13-.54-.23-.77-.39-.28-.19-.5-.44-.73-.65-.73-.18-1.43-.33-2.19-.16.05.15.08.29.14.41.15.29.33.58.48.89.12.27.13.56.02.85-.2.56-.52,1.03-.97,1.41-.13.12-.41.06-.49-.12-.05-.12-.1-.3-.05-.4.13-.25.33-.46.5-.7.25-.36.22-.73,0-1.08-.2-.35-.5-.59-.9-.68-.42-.1-.84-.18-1.25-.27-1.86.28-3.51,1.03-5.11,1.96-1.04.61-2.03,1.29-2.99,2.01-.26.21-.54.4-.83.58-1.34.84-2.7,1.67-4.03,2.53-1.82,1.18-3.7,2.25-5.71,3.07-.49.2-.92.51-1.32.73-.26.39-.47.72-.69,1.03-.05.07-.13.14-.22.18-.08.03-.19.04-.26,0-.07-.03-.16-.14-.15-.22,0-.14.04-.28.1-.41.5-1.04.54-2.12.24-3.23-.28-1.04-.72-1.98-1.31-2.88-.37-.57-.76-1.12-1.28-1.56-1.52-1.29-3.2-2.31-5.08-2.99-.03,0-.07.02-.11.03,0,.05-.04.12-.03.14.16.18.3.38.48.53,1.49,1.09,2.71,2.46,3.9,3.84.28.33.54.69.69,1.09.37.94.66,1.91.62,2.94-.01.53-.02,1.06-.03,1.59-.02.9-.38,1.67-.9,2.39-.08.1-.3.15-.38.07-.06-.06-.13-.14-.15-.23-.07-.24.02-.47.11-.7.21-.48.48-.95.53-1.48.08-.82.15-1.64.07-2.46-.07-.83-.3-1.62-.74-2.32-.75-1.18-1.72-2.19-2.73-3.17-.49-.46-1.02-.87-1.53-1.32-.4-.36-.84-.64-1.32-.87-.14-.07-.25.02-.35.31.28.25.57.5.86.75.32.29.64.58.95.88.1.1.16.23.23.36.02.03-.01.1-.03.13-.02.03-.08.04-.11.03-.17-.1-.32-.2-.48-.3-.52-.35-1.04-.71-1.55-1.06-.08-.05-.18-.06-.27-.1-.28-.11-.45.03-.52.44.21.43.73.63.87,1.16-.18.02-.34.04-.51.05h0ZM104.15,54.98l.19-.07c.46-.15.87-.42,1.23-.75.29-.26.56-.52.85-.79.39-.36.8-.67,1.32-.85.83-.32,1.45-.94,2.1-1.51.14-.13.26-.28.39-.43.43-.52.96-.78,1.64-.76.19,0,.4-.02.55-.11,1.07-.57,2.26-.81,3.37-1.29.53-.23,1.07-.41,1.55-.76.27-.2.6-.31.87-.5.77-.56,1.66-.75,2.55-.94.9-.18,1.82-.22,2.71-.44,1-.25,2.01-.11,3.01-.1.43,0,.86.07,1.29.11.19.02.4.04.56.12.85.47,1.77.34,2.67.33.82,0,1.63.01,2.45.1.86.09,1.73.02,2.51-.47.65-.41,1.4-.63,2.03-1.09.75-.54,1.45-1.11,1.9-1.94.21-.38.45-.74.69-1.1.38-.59.52-1.23.57-1.92.05-.64-.24-1.13-.73-1.48-.35-.25-.75-.42-1.19-.66-.13-.19-.29-.42-.45-.66-.54-.81-1.2-1.5-1.92-2.14-.14-.14-.31-.25-.48-.32-.12-.04-.31-.03-.4.04-.1.08-.17.25-.17.38,0,.18.04.39.13.55.4.7.51,1.44.5,2.18-.11.25-.31.27-.5.27-.97,0-1.92-.15-2.84-.44-.23-.07-.46-.15-.79-.27-.2-.19-.48-.45-.78-.7-.25-.21-.52-.23-.75.03-.27.31-.54.36-.88.17-.34-.19-.68-.37-1.01-.54,0-.11-.03-.25,0-.28.44-.29.89-.57,1.34-.85.12-.08.25-.15.38-.2.83-.37,1.26-.32,1.73.42.06.08.12.15.19.22.26.26.72.17.84-.15.05-.13.09-.28.12-.41.13-.62.51-1.02,1.08-1.26.27-.1.55-.19.8-.32.42-.24.85-.47,1.21-.78.61-.52.89-1.25,1.02-2.02.17-1.02.09-2.02-.31-2.98-.32-.76-.88-1.25-1.65-1.51-.09-.03-.19-.07-.28-.08-.78-.11-1.45-.41-2.1-.88-.67-.49-1.51-.62-2.34-.58-.62.03-1.25.08-1.87.11-.18,0-.37-.04-.53-.06q-1.17-1.66-3.42-2.66c-.09-.1-.2-.24-.33-.39-.12-.15-.23-.3-.33-.42.38-2.38.24-2.95-1.18-5.21-.08-.06-.14-.13-.21-.2-1.39-1.23-3.08-1.74-4.86-2.06-.82-.15-1.63-.1-2.44-.04-.57.05-1.14.16-1.72.23-.43.05-.86.1-1.25.14-.3-.15-.58-.25-.82-.41-1.21-.79-2.58-1.01-3.97-1.21-.14-.02-.3-.03-.43,0-.8.19-1.62.18-2.41.45-.87.29-1.76.5-2.63.77-1.16.37-2.22.94-3.22,1.59-1.74,1.12-3.5,2.22-5.19,3.39-1.31.91-2.73,1.61-4.06,2.49-.12.08-.25.14-.38.21-1.08.54-2.15,1.08-3.22,1.62-.26.12-.53.22-.82.35-.1-.13-.22-.23-.24-.35-.27-1.45-.96-2.74-1.7-3.97-.7-1.16-1.63-2.13-2.77-2.9-1.2-.82-2.5-1.44-3.81-2.06-.57-.27-1.16-.48-1.79-.56-.81-.1-1.62-.23-2.42-.32-.11-.01-.28.13-.32.24-.04.1,0,.28.08.38.07.12.2.21.32.27.21.1.44.17.65.25-.01.11.01.23-.03.3-.35.6-.88,1.01-1.4,1.33-.42.1-.72-.02-1.03-.16-.85-.37-1.76-.5-2.67-.55-.12,0-.25.11-.35.2-.1.11-.05.44.06.53.15.12.3.24.47.32.45.19.86.43,1.23.74.31.27.36.67.11,1.03q-.72,1.02-1.9,1.91c-.19.14-.36.3-.46.38-.37.1-.58-.02-.8-.1-.68-.25-1.35-.49-2.04-.72-.12-.04-.29.02-.41.09-.2.1-.2.31-.18.55.58.65,1.44,1.08,1.91,1.89.08.34.02.68-.13.98-.36.73-.71,1.47-1.34,2.04-.75.68-1.46,1.4-2.2,2.09-.3.27-.66.38-1.07.23-.36-.14-.73-.25-1.1-.35-.19-.04-.39-.03-.53.14-.13.15-.14.34-.06.59.26.21.57.44.85.67.38,1.97.34,3.93.22,5.86-.83.8-1.74,1.43-2.65,2.06-1.74,1.22-3.59,2.23-5.4,3.33-1.19.73-2.39,1.44-3.7,1.95-1.25.49-2.53.93-3.87,1.12-.57.08-1.14.22-1.69.38-.47.14-.94.2-1.42.21-.38.01-.76.05-1.15.07-.53.03-1.05.08-1.56-.11.03-.86.14-1.34.64-2.16.23-.38.36-.78.46-1.2.07-.31-.04-.59-.31-.74-.22-.11-.44-.18-.61-.37-.26-.28-.52-.57-.81-.81-.29-.26-.62-.46-.94-.7-.04-.34-.07-.67-.11-1-.15-.06-.28-.1-.41-.15-.16.2-.31.39-.5.61-1.3-.19-2.6-.66-3.92-.41-.3-.11-.32-.38-.45-.57-.13-.17-.29-.22-.49-.17-.18.27-.1.56-.04.84.18,1,.37,1.99.55,2.98.04.18.05.38.04.57-.01.13-.11.25-.16.37-.12-.02-.23,0-.3-.04-1.09-.81-2.07-1.73-2.9-2.8-.06-.08-.11-.16-.18-.23-1.25-1.13-1.9-2.64-2.53-4.16-.17-.41-.33-.8-.57-1.17-.47-.71-.64-1.49-.64-2.33-.01-1.4.03-2.79.49-4.13.2-.59.29-1.2.55-1.79.21-.49.31-1,.27-1.55-.02-.38,0-.77,0-1.15.01-1.02-.36-1.88-1.02-2.63-.1-.11-.19-.22-.29-.32-1.12-1.18-1.82-2.57-2.2-4.15-.34-1.41-.68-2.8-.81-4.25-.02-.24-.04-.48-.04-.72-.03-1-.02-2.01-.04-3.02-.02-.95.08-1.92.29-2.86.15-.7.24-1.42.36-2.13.03-.2-.07-.37-.26-.47-.22-.12-.46-.02-.6.22-.02.05-.07.07-.08.12-.22.8-.83,1.41-1.15,2.16-.05.12-.16.28-.28.32-.47.15-.65.55-.9.91-.42.6-.95,1.08-1.58,1.45-.21.12-.42.24-.62.38-.72.49-1.48.88-2.32,1.13-1.11.34-2.2.7-3.33.92-.56.12-1.13.25-1.69.38-.85.2-1.71.3-2.55.2-.9-.41-1.77-.81-2.66-1.19-.16-.07-.37-.09-.56-.09-.2,0-.39.11-.45.31-.04.12-.05.29,0,.39.09.16.25.29.41.39.54.32,1.09.61,1.63.94.25.14.48.31.71.48.2.16.29.39.29.64-.01.54-.08,1.06-.34,1.54-.18.33-.31.7-.43,1.06-.17.56-.44,1.06-.86,1.48-.2.2-.36.44-.57.7-.34-.05-.72-.1-1.1-.16-.67-.1-1.34-.14-2.01-.07-.24.03-.48.08-.7.17-.18.07-.31.22-.33.43-.02.17.12.39.3.44.37.1.75.19,1.12.29.56.15,1.11.3,1.67.47.39.12.65.4.83.77.34.7.48,1.46.62,2.22.13.7.16,1.43.22,2.15.03.24.03.48.02.71-.03.34-.11.67-.12,1,0,.28.05.56.08.82-.13.07-.21.15-.3.15-.43.01-.87,0-1.3,0-.29,0-.58-.03-.86,0-.11.01-.22.17-.29.28-.09.16.02.43.17.5.13.06.26.14.4.17.28.05.57.08.85.13,1.82.3,3.56.82,5.25,1.56.31.13.63.24.94.39.35.16.7.29,1.1.29.24,0,.48.05.71.12.71.19,1.41.31,2.14.14.79.16,1.52-.09,2.25-.36.13-.05.27-.14.41-.15.28-.01.59-.02.84.16.62.46,1.17.99,1.45,1.75.46,1.19.64,2.42.73,3.67.2,2.6.48,5.18,1.03,7.72.1.47.24.94.37,1.4.26.97.51,1.96.81,2.92.24.83.55,1.65.84,2.46.04.14.08.29.18.4.48.55.66,1.27,1,1.9.31.59.64,1.18,1.06,1.71.45.57.9,1.12,1.3,1.72.77,1.17,1.68,2.23,2.61,3.27.99,1.11,2.1,2.12,3.35,2.96.76.51,1.5,1.05,2.25,1.56.32.21.64.44.99.58.73.3,1.4.67,1.75,1.41.56-.02,1,.18,1.42.41,1.39.8,2.91,1.26,4.44,1.7.41.12.83.21,1.29.14l.13-.11.39.19,4.49.71,6.74-.18,2.36-.32c.58.07,1.35-.1,1.94-.03.81.09,1.73-.02,2.56-.11.38-.04.76.05,1.16.07.96.05,1.91,0,2.86-.23.84-.21,1.7-.34,2.56-.43.82-.1,1.61-.31,2.37-.63.18-.08.36-.13.56-.05.04.27-1.17,2.05-1.11,2.33.04.19,1.69-1.15,1.85-1.25.12-.07.24-.15.35-.24.45-.35.81-.78,1.12-1.23h.43s0,.03,0,.03c-.04.1.09.34.18.35.05.01.1.05.14.03.66-.2,1.22.14,1.8.36.13.05.29.13.35.25.21.38.59.44.94.6.16.08.29.25.45.4-.04.29-.12.58-.13.86,0,.36-2.13,4.26-1.91,4.38.25.12,1.77-1.56,2.51-2.14.43-.33.7-.79.95-1.26.22-.43.44-.86.64-1.25.63-.45,1.31-.43,1.98-.35.82.1,1.6.32,2.36.66.08.04.16.11.24.16.14.09.23.35.17.52-.21.49-.94,2.25-.88,2.29.32.24,1.2-.89,1.38-1.12.08-.11.19-.22.25-.34.76-1.45,1.48-2.92,2.06-4.46.09-.23.15-.47.27-.67.21-.34.38-.7.51-1.07l4.66-1.92,3.86-1.72,6.36-3.68h0ZM90.36,59.69c-.03-.05-.06-.11-.09-.17-.08-.15-.09-.37-.07-.55,0-.12.11-.24.2-.33.03-.03.19.03.25.08.25.2.49.43.75.63l-1.05.34h0ZM92.13,59.11c-.06-.1-.11-.2-.19-.27-.5-.51-1.07-.96-1.5-1.49q-.06-1.06.18-1.45c.41.42.8.83,1.21,1.23.38.36.78.71,1.18,1.07.17.14.33.28.51.4l-.59.26-.8.26h0ZM87.15,59.82c.05.23.13.46.14.7.01,1.49-.33,2.95-.6,4.41-.06.32-.19.64-.3.96-.03.09-.09.17-.14.24-.03.03-.11.07-.12.06-.07-.05-.19-.14-.17-.2.19-.93.37-1.86.59-2.79.16-.65.34-1.3.32-1.98,0-.48.12-.94.33-1.38-.06-.19-.09-.37-.16-.54-.02-.06-.15-.07-.23-.08-.03,0-.08.05-.11.1-.13.21-.15.45-.13.69.02.29.06.57-.08.85-.41.83-.5,1.75-.68,2.64-.11.56-.22,1.13-.35,1.69-.04.19-.15.35-.24.52-.06.11-.16.14-.23.07-.05-.06-.11-.17-.09-.24.53-1.75.78-3.56.98-5.38.04-.43.08-.86-.03-1.28-.04-.15-.19-.19-.38-.07-.11,1.65-.41,3.3-.76,4.94-.13.62-.31,1.21-.62,1.76-.03.06-.15.1-.23.13-.11.02-.23-.18-.21-.32.02-.14.05-.28.08-.43.14-.71.29-1.41.41-2.12.08-.47.12-.95.15-1.43,0-.11-.11-.24-.21-.44-.12.23-.26.39-.29.56-.14.71-.27,1.42-.39,2.13-.1.57-.28,1.11-.53,1.63-.02.06-.15.08-.23.09-.03,0-.09-.04-.11-.08-.11-.2-.2-.41-.3-.62-.19.03-.33.05-.47.07,0,.13,0,.26-.01.39,0,.03-.05.09-.08.09-.11,0-.12-.06-.1-.18.03-.13.07-.24.23-.28-.01-.18-.09-.39-.03-.55.33-.97.4-1.97.43-2.98.02-.77.03-1.53.08-2.3.09-1.34.19-2.68.3-4.02.07-.81.2-1.62.48-2.39.22-.62.6-1.08,1.13-1.45.21-.14.44-.16.69-.12.29.04.56.17.76.39.36.38.74.76,1.04,1.19.58.81.76,1.77.78,2.72.03,1.24-.03,2.49-.04,3.73,0,.32,0,.68-.28.92h0ZM75.48,62.69c.82-1.42,1.42-2.93,1.64-4.58.06-.43.12-.86.24-1.28.08-.27.24-.52.4-.76.15-.24.59-.24.76-.03.06.07.13.14.17.22.45,1.02.81,2.06.59,3.21-.08.43-.17.84-.03,1.28.07.21.02.48,0,.72-.05.38-.02.76.02,1.14.09.71.01,1.44-.33,2.1-.01.02-.08.04-.11.02-.04-.01-.1-.05-.11-.08-.04-.23-.1-.47-.08-.71.09-.96.2-1.92.29-2.88.02-.24.04-.48-.16-.68-.07.04-.16.06-.19.11-.2.4-.26.82-.3,1.26-.05.58-.13,1.14-.22,1.72-.04.23-.15.44-.24.69-.19-.06-.35-.06-.44-.15-.09-.1-.17-.26-.15-.39.07-.52.18-1.04.25-1.56.02-.18-.06-.37-.1-.55,0-.04-.08-.09-.11-.09-.08.02-.2.06-.22.11-.09.32-.16.65-.23.98-.05.23-.06.48-.25.68-.14-.09-.29-.2-.45-.31-.08.05-.15.11-.22.16l-.42-.36h0ZM96.75,23.47c.16-.09.25-.13.33-.17.04-.03.09-.05.13-.07.04-.01.1-.04.14-.03.09.01.19.03.27.05.11.03.09.28-.03.36-.73.47-1.45.93-2.19,1.39-.53.33-1.07.65-1.61.97-.25.15-.49.31-.76.4-.57.17-1.04.5-1.54.78-.33.19-.67.38-1.03.52-1.02.41-1.93,1.07-2.99,1.41-.18.06-.34.19-.5.28-.3.16-.58.36-.89.47-.55.21-1.04.5-1.51.83-.75.53-1.55.95-2.37,1.36-.78.39-1.53.81-2.34,1.12-.17.07-.34.17-.5.28-.85.64-1.83,1.07-2.75,1.58-.25.14-.53.25-.75.43-1,.84-2.22,1.34-3.28,2.11-.23.17-.51.28-.81.26-.09,0-.17-.06-.24-.12-.09-.07-.06-.31.04-.38.32-.21.64-.44.97-.63,1.06-.58,2.07-1.23,3.08-1.87,1.22-.78,2.5-1.45,3.75-2.16.17-.1.35-.16.53-.24,1.4-.64,2.8-1.29,4.09-2.14.2-.13.41-.25.63-.36,1.18-.64,2.34-1.31,3.58-1.85,1.27-.56,2.54-1.14,3.73-1.88.21-.13.43-.23.65-.32.98-.41,1.88-.97,2.76-1.56.48-.32.95-.63,1.42-.82h0ZM94.49,31.49c.06,0,.24-.01.43-.01.1,0,.27.22.24.31-.03.14-.04.29-.11.42-.47.84-.53,1.74-.39,2.66.06.38.19.75.29,1.11.1.37.23.74.32,1.11.07.31-.34.68-.65.6-.18-.05-.37-.11-.52-.21-.87-.56-1.43-1.43-2.07-2.19-.46-.54-.31-1.79.2-2.29.62-.61,1.28-1.18,2.26-1.49h0ZM88.35,32.44c.2.07.4.1.56.19.36.19.5.46.42.82-.07.33-.18.65-.25.97-.13.59-.1,1.14.27,1.65.31.42.58.88.87,1.32.13.2.27.39.39.6.17.27.1.72-.13.93-.23.23-.51.23-.8.14-.09-.03-.18-.06-.27-.11-.62-.3-1.11-.75-1.47-1.34-.33-.53-.66-1.05-1.01-1.61-.08-.59-.22-1.24.09-1.81.34-.61.44-1.41,1.33-1.78h0ZM55.63,48.86c.1-.17.14-.34.23-.37.63-.25,1.26-.47,1.83-.86.12-.08.25-.13.4-.18.87-.28,1.73-.6,2.49-1.13.08-.05.17-.08.27-.11.84-.23,1.58-.7,2.39-1.02,1.76-.7,3.27-1.85,4.93-2.71.21-.11.42-.25.59-.41.91-.8,1.95-1.41,2.93-2.1.31-.22.64-.45.99-.59.76-.33,1.45-.74,2.11-1.24.14-.11.35-.17.54-.17.12,0,.28.09.35.19.09.12,0,.28-.11.36-.28.18-.56.36-.86.51-1.49.79-2.95,1.63-4.32,2.62-.91.65-1.8,1.29-2.74,1.89-1.3.83-2.64,1.58-4.08,2.15-.58.23-1.14.52-1.71.78-.92.42-1.82.89-2.75,1.27-.98.4-1.99.74-2.99,1.09-.12.04-.27.03-.49.04h0ZM102.29,15.73c.4-.14.62-.24.86-.27.12-.02.27.07.36.16.11.11.02.43-.13.49-.17.08-.36.14-.54.2-1.61.55-3.11,1.31-4.51,2.24-.68.45-1.33.95-1.99,1.43-.51.37-1.02.7-1.61.95-.62.27-1.18.63-1.71,1.06-.52.41-1.07.83-1.64,1.17-1,.58-2.02,1.11-3.04,1.65-.51.27-1.04.49-1.57.73-.13.06-.27.06-.38-.05-.08-.07-.02-.29.11-.36.55-.31,1.09-.61,1.64-.91,1.43-.8,2.93-1.46,4.21-2.51.37-.3.77-.57,1.2-.79,1.07-.56,2.05-1.24,3.05-1.92.99-.68,2.02-1.31,3.02-1.97.89-.59,1.87-.98,2.68-1.31h0ZM23.48,31.95c-.1.03-.23.11-.35.09-.25-.04-.41-.23-.47-.48-.27-1.12-.35-2.26-.14-3.42.17-.9.42-1.77.76-2.61.34-.85.69-1.7.8-2.61.11-.8.17-1.62.24-2.43.02-.26-.11-.46-.33-.6-.16-.1-.34-.17-.51-.26-.17-.09-.34-.16-.5-.27-.06-.04-.11-.17-.08-.24.01-.06.13-.15.2-.15.92.05,1.65.41,2.1,1.25-.06.61-.16,1.18-.16,1.75,0,1.12-.27,2.18-.65,3.22-.16.45-.31.91-.49,1.35-.66,1.7-.83,3.44-.37,5.21.01.04-.01.09-.03.19h0ZM106.35,27.84c-.12-.02-.23,0-.3-.06-.27-.19-.31-.54-.11-.74.06-.07.13-.14.2-.21.62-.48,1.33-.76,2.11-.87,1.14-.17,2.27-.42,3.44-.37.37.01.76-.08,1.14-.12.57-.07,1.15-.08,1.7-.24,1.24-.37,2.49-.76,3.53-1.57.15-.12.31-.24.49-.29.1-.04.26.05.37.13.05.04.08.18.06.26-.04.13-.09.28-.19.38-.37.38-.82.66-1.31.88-.79.35-1.65.53-2.42.93-.16.09-.37.11-.56.13-1,.13-2,.32-3.01.37-1.01.05-2,.22-3,.37-.68.09-1.31.32-1.82.8-.1.09-.23.15-.33.22h0ZM102.71,17.28c.28-.07.55-.15.84-.22.09-.02.19,0,.27.04.08.04.16.12.19.19.02.07-.02.2-.07.24-.11.08-.25.14-.39.18-1.37.36-2.53,1.15-3.71,1.88-.78.47-1.49,1.08-2.28,1.53-1.38.78-2.62,1.79-3.95,2.66-.48.32-.97.62-1.46.92-.45.27-.92.52-1.38.78-.59.34-1.23.54-1.89.67-.09.01-.2,0-.28-.04-.08-.04-.17-.12-.19-.19-.01-.07.01-.2.07-.23.21-.11.43-.2.65-.29.4-.15.84-.25,1.21-.46,1.51-.85,3.01-1.71,4.39-2.77.38-.29.77-.58,1.18-.83,1.75-1.09,3.45-2.28,5.25-3.3.51-.29,1-.58,1.56-.76h0ZM60.61,40.13c-.05.07-.1.18-.17.22-.83.48-1.64,1.01-2.51,1.42-.65.3-1.29.63-1.9,1.02-1.35.86-2.81,1.46-4.31,1.97-1.55.53-3.11,1-4.67,1.5-.23.07-.47.13-.71.13-.49,0-.96.08-1.41.22-.38.12-.77.13-1.13,0-.11-.04-.17-.2-.24-.29.15-.27.37-.36.62-.36,1.45,0,2.86-.27,4.23-.74,1-.35,2-.7,3-1.03,1.55-.54,3.07-1.12,4.42-2.08.19-.14.4-.28.62-.36,1.22-.46,2.32-1.16,3.45-1.79.08-.04.18-.07.27-.09.22-.04.35.07.43.27h0ZM73.94,33.66c-.04.11-.06.29-.15.36-.71.49-1.44.95-2.16,1.43-.83.56-1.66,1.14-2.5,1.71-.55.38-1.09.78-1.65,1.16-1.58,1.09-3.25,2.07-4.74,3.29-.22.17-.46.35-.71.49-1.29.74-2.59,1.48-3.88,2.21-.08.04-.19.08-.27.05-.12-.03-.21-.13-.35-.22.36-.25.67-.48.98-.69.08-.06.17-.1.26-.13,1.2-.41,2.2-1.19,3.23-1.87,1.24-.82,2.41-1.75,3.66-2.56.72-.47,1.34-1.08,2.1-1.51.12-.06.23-.17.32-.28.23-.26.52-.41.82-.58.33-.18.67-.39.96-.63.45-.38.91-.71,1.42-.99.21-.11.39-.28.58-.41.47-.33.94-.66,1.42-.98.24-.16.45-.08.65.16h0ZM45.48,49.95c-.03-.33,0-.41.17-.47,1.04-.41,2.14-.56,3.22-.74,1.44-.23,2.8-.7,4.13-1.24.93-.37,1.87-.75,2.82-1.1.68-.25,1.36-.48,2.02-.77,1.1-.48,2.18-1,3.28-1.49.04-.02.1-.03.14,0,.12.06.25.12.34.22.03.03-.02.17-.07.24-.22.28-.55.38-.86.51-.58.24-1.18.43-1.74.71-.95.49-1.93.88-2.95,1.17-.38.11-.73.26-1.1.37-1.24.38-2.44.9-3.7,1.22-1.77.45-3.53.93-5.3,1.39-.13.04-.28,0-.43-.01h0ZM85.01,35.29c0,.29,0,.43-.01.57-.11,1,.12,1.9.76,2.69.09.12.16.24.21.38.03.09.03.2,0,.28-.17.5-.93.76-1.32.45-.65-.52-1.18-1.13-1.48-1.92-.07-.18-.11-.37-.13-.56-.06-.64.08-1.24.24-1.85.1-.37.57-.61.93-.47.26.09.49.27.8.43h0ZM27.79,40.41c-.23.1-.31.26-.19.46.09.16.22.31.36.44.67.61,1.34,1.23,2.05,1.8.33.27.72.47,1.09.69.58.33,1.17.65,1.77.96.34.18.68.36,1.03.51.88.37,1.77.73,2.66,1.09.13.05.27.04.41.06.18-.28.08-.5-.14-.62-.54-.29-1.09-.63-1.67-.81-.74-.22-1.43-.54-2.1-.91-.38-.21-.74-.46-1.13-.62-.86-.36-1.56-.94-2.25-1.52-.51-.44-1-.89-1.52-1.32-.11-.09-.24-.14-.35-.21h0ZM43.55,48.29c-.43.23-.89.37-1.38.38-1.54.05-3.07.05-4.58-.35-.88-.24-1.77-.44-2.66-.67-.8-.19-1.57-.45-2.25-.94-.31-.22-.69-.34-1.02-.54-.21-.12-.39-.27-.57-.43-.05-.05-.09-.17-.06-.24.03-.08.12-.17.2-.18.13-.03.31-.06.42,0,.63.35,1.23.74,1.86,1.11.25.14.49.32.76.39.79.2,1.54.53,2.34.71,1.51.33,3.01.65,4.55.65.62,0,1.25-.03,1.87-.06.2,0,.38,0,.52.16.31-.25.7-.32,1.08-.38,2.19-.37,4.28-1.07,6.38-1.74.86-.28,1.7-.63,2.57-.92.27-.09.5-.28.75-.42.42-.22.86-.41,1.32-.41.23.29.26.55.08.62-.26.1-.56.15-.8.28-1.29.67-2.67,1.06-4.03,1.54-1.81.65-3.72.98-5.57,1.5-.52.14-1.04.17-1.57.1-.08-.01-.14-.11-.21-.17h0ZM79.45,38.31c.37-.11.63-.26.93-.14.08.03.17.12.19.2.02.06-.05.16-.09.23-.03.03-.08.06-.12.07-1.25.38-2.3,1.2-3.57,1.53-.1.02-.19.07-.26.13-.48.43-1.09.6-1.68.81-.59.22-1.16.47-1.55,1-.11.16-.31.23-.52.2-.09-.01-.18-.05-.26-.1-.09-.06-.09-.3,0-.39.38-.46.86-.77,1.39-1.01.92-.4,1.83-.84,2.78-1.2.73-.27,1.43-.55,2.07-1,.23-.16.51-.26.68-.33h0ZM91.38,52.27c-.01-.12-.05-.31-.04-.5,0-.07.09-.16.16-.2.07-.03.18-.02.26.02.08.04.16.12.2.19.19.34.34.7.55,1.02.54.85,1.12,1.69,1.53,2.61.16.36.46.6.82.78.25.13.49.28.73.43.03.02.04.1.02.14-.04.08-.11.19-.16.19-.75,0-1.47-.22-1.88-.87-.77-1.22-1.45-2.5-2.19-3.81h0ZM35.42,49.22c.03-.11.11-.17.22-.14.92.25,1.86.5,2.78.76.46.14.93.21,1.42.19.91-.05,1.82.04,2.72-.15.29-.06.58.02.8.25.05.06.06.16.07.25,0,.03-.04.09-.08.11-.08.05-.17.1-.26.11-.53.04-1.06.03-1.57.12-.63.12-1.24-.23-1.86,0-.04.02-.1.02-.14,0-.09-.01-.19-.03-.28-.06-1.24-.36-2.5-.67-3.68-1.23-.06-.03-.09-.14-.13-.22h0ZM98.22,27.27c-.14.08-.3.2-.47.26-.82.28-1.64.55-2.47.81-1.06.34-2.06.81-2.99,1.42-.44.29-.89.57-1.35.84-.12.07-.26.12-.41.14-.05,0-.14-.08-.19-.12-.02-.03,0-.1.02-.14.22-.42.7-.49,1.04-.75,1.12-.84,2.33-1.52,3.67-1.97.73-.25,1.45-.52,2.19-.76.18-.06.37-.1.56-.12.22-.01.35.12.41.38h0ZM77.47,42.87c.34-.16.56-.14.64.04.06.12.14.25.17.38.28,1.07.62,2.12,1.06,3.13.2.47.26,1.01.38,1.53.02.09.02.21-.02.28-.08.11-.2.2-.32.25-.04.01-.17-.1-.2-.17-.27-.82-.52-1.65-.8-2.46-.25-.77-.54-1.54-.79-2.32-.07-.22-.09-.45-.12-.67h0ZM109.67,25.34c-1.21-.18-1.21-.17-2.09,0-.47.09-.92.25-1.34.5-.16.09-.34.18-.52.21-.12.02-.27-.05-.37-.13-.14-.11-.13-.4-.03-.52.07-.07.12-.16.2-.21.81-.4,1.68-.64,2.56-.88.23-.06.48-.07.71-.06.19,0,.39.05.55.15.16.09.29.26.36.42.05.11,0,.27-.03.52h0ZM86.31,46.48c-.22-.13-.29-.38-.36-.6-.46-1.41-.75-2.86-1.05-4.31-.03-.13,0-.28,0-.42,0-.05.03-.09.04-.14.02-.11.26-.18.36-.12.37.22.5.57.52.97.03.91.22,1.8.46,2.67.14.5.23,1.02.33,1.54.04.22-.09.36-.29.42h0ZM84.64,47.13c-.11-.15-.22-.25-.27-.38-.59-1.52-1.06-3.08-1.43-4.67-.03-.13-.01-.29.02-.42.03-.13.11-.25.29-.27.16-.01.27.05.36.18.05.08.1.17.1.26,0,.74.21,1.42.41,2.11.24.77.49,1.55.73,2.33.05.18.09.37.06.56-.01.1-.15.19-.26.3h0ZM81.2,42.21c.27-.02.52.08.55.34.1.95.39,1.86.59,2.79.1.46.25.92.34,1.38.04.17.06.37-.13.51-.13.09-.3-.03-.4-.29-.03-.09-.05-.18-.09-.26-.55-1.29-.79-2.65-1.08-4-.04-.21.06-.36.22-.47h0ZM79.3,42.73c.34-.3.65-.28.73-.02.1.27.17.55.24.82.12.47.21.94.34,1.4.17.6.38,1.19.55,1.79.07.22.14.45,0,.68-.1,0-.22.03-.26-.01-.13-.14-.24-.31-.31-.47-.59-1.33-.95-2.72-1.3-4.19h0ZM76.4,46.39s-.03.01-.05.02c-.19-.6-.4-1.19-.58-1.78-.07-.23-.1-.47-.12-.7,0-.06.1-.14.17-.2.09-.08.18-.06.26.02.06.07.15.13.18.22.42,1.27.84,2.55,1.25,3.83.05.18.04.38.03.57,0,.08-.08.17-.12.25-.02.03-.08.06-.11.06-.09-.02-.23-.03-.24-.09-.23-.72-.44-1.46-.66-2.2h0ZM48.95,55.74c.11.15.23.24.27.36.07.18.11.37.13.56.09,1.42.57,2.72,1.11,4.01.13.31.25.63.35.95.02.04-.08.14-.14.19-.02.02-.11,0-.12-.02-.15-.24-.32-.47-.44-.73-.36-.84-.68-1.7-1.03-2.54-.32-.77-.39-1.58-.36-2.4,0-.12.13-.23.23-.38h0ZM74.46,44.31c.1.17.21.33.3.5.5,1.04.68,2.18,1.06,3.25.04.12,0,.29-.03.42-.02.06-.12.14-.19.15-.08.01-.17-.06-.24-.1-.03-.03-.05-.08-.07-.12-.43-1.26-.87-2.52-1.29-3.79-.03-.07.03-.18.05-.29.13-.01.27-.01.42-.02h0ZM24.22,35.84c.11.09.27.15.33.27.49.99,1.1,1.89,1.83,2.72.02.03.04.09.02.13-.02.09-.03.2-.1.24-.06.05-.19.06-.25.02-.13-.05-.25-.14-.34-.25-.74-.82-1.36-1.71-1.83-2.7.11-.14.2-.24.35-.43h0ZM75.77,32.74c.02-.13,0-.3.08-.38.15-.17.34-.33.55-.45.79-.44,1.59-.86,2.38-1.28.12-.06.26-.1.41-.11.07,0,.18.06.21.12.04.07.03.2,0,.26-.08.12-.19.22-.31.28-1,.54-2,1.07-3.01,1.59-.07.04-.18-.02-.3-.04h0ZM88.68,45.15c-.11-.04-.24-.05-.27-.11-.35-.74-.71-1.47-1.02-2.23-.16-.39-.26-.82-.34-1.24-.03-.17.08-.36.13-.54.02-.08.29-.21.36-.16.09.04.17.09.23.16.05.08.12.18.11.26-.14.81.16,1.5.46,2.21.17.39.28.81.39,1.23.03.12-.03.27-.06.41h0ZM45.82,51.28c.97-.03,1.92-.16,2.87-.14.09,0,.19.04.26.09.07.05.14.14.15.22.01.08-.03.18-.09.23-.06.06-.17.1-.26.11-.91.07-1.81.14-2.72.19-.1,0-.27-.14-.31-.25-.04-.1.05-.25.1-.45h0ZM29.81,44.52c-.08.01-.2.08-.25.04-.5-.37-1.01-.74-1.49-1.13-.33-.28-.63-.59-.92-.91-.1-.09-.15-.24-.19-.37-.02-.08.01-.18.05-.27.03-.08.33-.11.39-.04.49.59,1.07,1.09,1.68,1.56.3.23.52.56.76.86.04.05-.01.18-.02.27h0ZM73.84,48.27c-.21.06-.38,0-.45-.21-.33-.84-.55-1.71-.66-2.61,0-.04,0-.1.02-.13.05-.07.11-.14.18-.19.09-.06.31.02.36.12.02.04.05.08.07.13.19.73.45,1.45.53,2.21.02.23.09.47-.03.69h0ZM114.29,37.59c-.14-.48-.08-1.2.36-1.88.04-.07.16-.1.24-.13.13-.05.33.07.32.19-.01.18-.01.36-.05.54-.1.43-.09.85.08,1.25.05.13.09.27.12.41.04.18-.14.37-.33.37-.3,0-.54-.18-.75-.75h0ZM64.64,46.4c.1-.09.15-.18.24-.21.79-.3,1.61-.57,2.33-1.04.14-.09.36-.07.54-.06.07,0,.17.11.19.18.02.07-.02.19-.08.24-.86.61-1.85.94-2.82,1.29-.08.03-.23,0-.26-.05-.07-.11-.09-.25-.13-.36h0ZM89.94,44.45c-.12.08-.27.15-.36,0-.53-.93-.67-1.97-.78-3.01,0-.04.03-.09.03-.14.02-.16.24-.29.45-.23.08.03.14.11.25.19,0,.3-.03.64,0,.96.05.38.18.74.25,1.12.07.37.24.73.16,1.12h0ZM113.87,37.5c-.1.26-.26.38-.46.37-.13,0-.28-.07-.38-.15-.55-.5-.65-1.12-.45-1.81.03-.11.17-.23.29-.27.12-.04.26.05.42.08.06.33.08.67.18.97.1.31.28.58.4.82h0ZM80.79,29.87c.6-.86,1.54-1.14,2.41-1.51.2-.08.35.07.44.27-.02.04-.03.1-.06.13-.72.65-1.73.8-2.51,1.41-.12-.12-.29-.27-.29-.29h0ZM66.65,41.56c-.1.04-.14.04-.19.06-.14.06-.47-.05-.48-.19,0-.12.03-.31.12-.36.65-.39,1.32-.75,1.98-1.11.08-.04.2-.03.27.01.07.03.14.13.14.21,0,.08-.04.19-.11.24-.59.39-1.18.78-1.73,1.14h0ZM90.63,41.06c.14.09.31.13.38.23.36.56.58,1.18.66,1.85.02.19-.03.38-.2.5-.08-.04-.19-.06-.22-.13-.25-.51-.49-1.02-.71-1.54-.07-.17-.12-.37-.11-.55,0-.12.12-.23.21-.36h0ZM68.7,54.83c-.2-.09-.32-.26-.24-.45.31-.75.65-1.49.99-2.23.03-.05.18-.08.24-.05.08.04.12.13.17.22.02.03.02.09.01.14-.19.79-.52,1.54-.92,2.25-.04.07-.16.09-.25.13h0ZM95.57,45.95c.15.05.28.09.4.13.26.41.51.81.76,1.2.11.19.08.3-.19.58-.05,0-.1,0-.14-.02-.69-.27-.98-.84-1.04-1.53,0-.11.13-.23.21-.36h0ZM53.89,49.98c-.46.32-.97.5-1.56.42-.12-.02-.26-.2-.23-.31.03-.1.05-.21.11-.25.37-.23.77-.37,1.21-.36.27.01.43.15.47.5h0ZM41.07,46.96c-.6.22-1.18.2-1.78-.07-.1-.04-.2-.25-.13-.36.05-.07.12-.14.2-.19.03-.03.09-.05.13-.04.51.07,1.02.14,1.54.22.07,0,.14.12.16.2.01.07-.06.15-.1.23h0ZM71.3,46.1c.09.07.22.1.24.18.17.54.33,1.1.47,1.65.05.21-.09.36-.34.44-.42-.58-.68-1.23-.64-1.97,0-.11.18-.2.27-.31h0ZM79.35,19.95c-.42-.39-.91-.65-1.32-1.04-.1-.09-.17-.22-.22-.35-.03-.07-.02-.2.03-.26.05-.06.16-.07.24-.09.04,0,.1.02.13.05.41.38.81.77,1.22,1.16.06.06.1.17.1.26,0,.06-.08.13-.18.26h0ZM93.44,46.74c-.02-.11-.04-.2-.05-.29-.02-.16.03-.28.16-.36.1-.06.32-.03.39.08.23.37.46.73.68,1.09.07.11.02.35-.08.38-.09.02-.2.04-.28.02-.46-.14-.67-.52-.83-.92h0ZM67.49,52.76c.16-.54.47-.96.77-1.4.13-.19.41-.26.49-.12.06.11.11.3.05.39-.28.49-.53,1.02-1.03,1.4-.1-.1-.19-.19-.28-.28h0ZM70.12,48.05c-.15-.07-.3-.09-.38-.18-.27-.29-.36-.65-.38-1.02,0-.12.09-.26.18-.36.09-.09.38.04.46.19.22.43.31.87.12,1.37h0ZM68.22,46.66c.22.4.36.81.42,1.23.01.07-.05.23-.1.24-.13.02-.32.02-.38-.05-.26-.28-.42-.64-.44-1.02,0-.13.04-.31.12-.38.09-.06.26-.01.38-.01h0ZM79.58,36.04q-.38.6-1.4.75c.01-.14-.03-.32.03-.38.29-.23.59-.44.92-.61.19-.1.34.06.44.23h0ZM50.92,53.74c.1-.04.2-.11.26-.08.49.24.74.87.5,1.29-.04.08-.15.13-.23.13-.08,0-.2-.06-.22-.13-.13-.4-.34-.78-.31-1.21h0ZM57.72,51.67c.26-.11.61.08.68.36.06.23-.05.52-.26.61-.17.09-.44-.07-.54-.34-.05-.13-.06-.28-.04-.41,0-.08.11-.14.17-.21h0ZM92.47,41.2c.45,0,.62.12.63.52.01.2-.03.38-.23.48-.14.07-.32-.07-.39-.3-.07-.23-.12-.46-.01-.7h0ZM61.06,51.5c-.01-.09-.03-.19-.03-.27,0-.22.13-.4.29-.4.17,0,.36.13.41.3.08.24.01.45-.16.63-.09.07-.31.06-.37-.02-.05-.07-.09-.15-.14-.23h0ZM62.49,48.01c-.21.29-.47.43-.84.26-.01-.38.03-.48.28-.54.25-.08.46-.04.56.29h0ZM40.93,52.53c.09.04.19.04.25.1.13.14.16.32.08.51-.06.13-.16.25-.31.19-.11-.05-.24-.16-.27-.27-.04-.12,0-.28.05-.39.02-.06.13-.09.2-.13h0ZM92.27,47.26c-.24-.06-.45-.16-.52-.42-.02-.08,0-.21.04-.27.05-.06.18-.1.25-.07.13.04.25.12.35.21.19.19.16.31-.13.55h0ZM67.1,47.29c.13.12.28.2.31.31.04.11-.03.27-.1.38-.01.04-.17.03-.25,0-.13-.05-.24-.18-.19-.34.04-.12.14-.21.24-.35Z"/>
      </g>
    </g>
  </g>
</svg>