<?xml version="1.0" encoding="UTF-8"?>
<svg id="Layer_2" data-name="Layer 2" xmlns="http://www.w3.org/2000/svg" viewBox="0 0 57.28 36.32">
  <defs>
    <style>
      .cls-1 {
        fill: #753d22;
        fill-rule: evenodd;
      }
    </style>
  </defs>
  <g id="Layer_2-2" data-name="Layer 2">
    <path class="cls-1" d="M9.04,19.14c-.12-.1-.22-.18-.32-.25-.01,0-.08.04-.09.07-.08.15-.02.29.14.31.08,0,.15-.07.28-.14h0ZM44.3,21.32c.45,0,.74.12.96.41.1.13.01.42-.16.47-.34.1-.67.08-.93-.17-.09-.08-.14-.23-.16-.36-.03-.16.2-.35.29-.35h0ZM42.35,22.76c-.28-.07-.69-.17-1.11-.27-.05,0-.08-.05-.12-.07-.14-.06-.28-.3-.24-.46.03-.16.26-.34.42-.31.52.08,1.02.17,1.54.27.04,0,.09.04.13.05.15.06.32.34.24.45-.08.11-.19.19-.3.28-.03.03-.09.04-.14.04-.09.01-.19.02-.42.03h0ZM26.62,15.83c-.49,0-.63-.14-.63-.27,0-.09.01-.21.07-.26.14-.13.29-.29.46-.32.76-.13,1.52-.23,2.28-.33.14-.02.29.01.42.06.07.02.15.12.17.2.01.08-.01.18-.06.25-.05.07-.14.13-.23.16-.91.36-1.87.43-2.48.5h0ZM35.93,24.01c-.06-.04-.21-.07-.21-.12-.03-.13-.03-.28.03-.38.17-.31.45-.51.78-.6.77-.23,1.56-.41,2.39-.4.08,0,.21.09.21.16.01.13,0,.3-.08.38-.12.13-.31.25-.49.28-.79.17-1.56.4-2.33.68-.08.03-.19,0-.29,0h0ZM38.66,16.75c-.2-.05-.48-.1-.75-.2-.36-.13-.73-.28-1.07-.45-.44-.23-.89-.37-1.37-.43-.19-.03-.27-.33-.13-.46.11-.09.22-.22.35-.24.23-.04.5-.09.7,0,.89.37,1.77.78,2.64,1.18.04.02.08.06.1.1.04.08.09.18.07.26-.01.07-.1.15-.18.19-.08.03-.19.03-.37.06h0ZM30.28,12.55c.43.03.85.06,1.28.1.12,0,.17.09.14.2-.03.08-.06.21-.13.23-.62.25-1.29.31-1.96.38-.24.03-.5-.04-.72.02-.84.23-1.7.3-2.55.4-.47.06-.9.33-1.36.47-.22.07-.46.1-.71.1-.13,0-.27-.09-.32-.25-.03-.13.04-.33.14-.38.89-.37,1.78-.72,2.76-.8.34-.02.68-.05,1-.15.79-.23,1.59-.35,2.42-.34h0ZM13.71,13.83c-.12-.12-.21-.26-.31-.28-.54-.1-.92.14-1.09.65-.05.17.09.41.24.43.35.04.67-.02.91-.29.11-.13.16-.32.25-.51h0ZM15.25,14.4v.29c.01.74-.34,1.29-.92,1.7-.58.4-1.21.57-1.91.27-.22-.09-.47-.12-.7-.17-.52-.11-.84-.45-1.09-.89-.29-.52-.26-1.05.12-1.48.42-.46.86-.91,1.33-1.32.46-.41,1.05-.46,1.64-.4.19.02.37.11.53.21.2.13.37.32.55.47.28.23.41.53.42.88,0,.14.02.29.03.43h0ZM30.19,22.34c-1.46.28-2.85.45-4.18-.22-.04-.02-.1,0-.14-.02-.13-.02-.39.15-.45.31-.08.19-.03.43.09.54.32.31.72.47,1.16.56,1.35.25,2.7.21,4.05.02.83-.12,1.57-.49,2.36-.72,1.54-.46,2.76-1.37,3.82-2.54.33-.37.53-.8.69-1.26.05-.14-.1-.44-.25-.47-.14-.05-.28-.09-.42-.09-2.03-.03-4.07-.04-6.1-.05-.83,0-1.64-.07-2.45-.28-.42-.11-.85-.18-1.29-.25-.14-.02-.3-.02-.42.04-.12.07-.2.2-.25.33-.03.07.04.19.08.27.05.08.13.16.21.19.91.32,1.84.61,2.82.63,1.84.04,3.68.15,5.52.09.23-.01.48,0,.68.18.04.03.08.09.07.11-.04.08-.1.21-.14.21-.92-.06-1.83.1-2.74.16-1.64.11-3.29.24-4.91-.23-.24-.07-.47-.08-.69.07-.08.05-.18.29-.12.37.05.08.1.17.17.22.5.33,1.09.46,1.66.49,1.45.08,2.9.19,4.35-.09.32-.06.67-.03,1.01-.03.03,0,.08.05.08.08,0,.04,0,.11-.03.14-.45.41-.99.59-1.59.56-1.07-.05-2.13-.1-3.18-.28-.38-.07-.77-.09-1.15-.09-.11,0-.25.13-.33.23-.1.13.05.41.23.47.23.08.45.16.69.21.38.06.76.1,1.13.14h0ZM23.15,12.02c.23,0,.35-.12.33-.24-.02-.14-.18-.25-.3-.19-.11.06-.19.18-.3.27.1.06.21.13.27.16h0ZM10.04,10.99s0-.1-.03-.13c-.02-.03-.07-.07-.11-.07-.32.05-.64.11-.82.44-.01.03-.01.09,0,.11.03.03.08.06.11.06.34-.02.61-.18.84-.42h0ZM31.13,32.37c-.02-.13-.02-.27-.05-.41-.01-.07-.08-.19-.12-.19-.08,0-.21.06-.23.12-.11.26-.21.53-.29.8-.01.05.08.15.14.21.02.02.1.01.14,0,.22-.1.43-.21.43-.52h0ZM14.95,9.28c-.05-.16-.13-.29-.23-.37-.05-.03-.21,0-.27.04-.21.19-.41.4-.59.62-.03.04,0,.16.04.24.01.04.08.07.12.07.3,0,.58-.07.79-.27.09-.09.16-.27.14-.35h0ZM20.2,27.07c-.55-.23-.76-.34-.98-.41-.5-.12-1.01-.23-1.52-.32-.13-.02-.33-.09-.43.12.82.33,1.46.47,2.93.61h0ZM50.73,25.18c-.75-.16-1.5-.36-2.28-.28-.25.03-.46.25-.42.48.14.93.49,1.76,1.12,2.46.11.12.3.18.38.11.07-.07.17-.13.19-.21.13-.83.5-1.55.95-2.25.04-.07.04-.18.06-.32h0ZM19.02,24.89c.08.04.22.08.34.13.49.21.97.44,1.47.62.68.25,1.38.38,2.12.18.28-.07.57-.08.86-.09.47,0,.89.48.83.98-.01.14-.06.27-.11.41-.08.2-.23.31-.44.3-.19,0-.41.02-.56-.07-1.49-.81-3.11-1.29-4.72-1.79-.09-.03-.17-.09-.25-.14-.1-.07-.11-.15-.06-.25.1-.19.25-.28.52-.3h0ZM52.42,20.4c.05-.13.12-.31.16-.49,0-.05-.12-.17-.17-.17-1.11.26-1.98.95-2.84,1.65-.14.12-.26.28-.39.42-.09.1-.07.31.03.39.12.08.22.2.35.24.95.33,1.91.65,2.87.97.03,0,.1,0,.12-.03.04-.08.11-.18.09-.25-.3-.87-.5-1.76-.22-2.73h0ZM28.13,27.12c-.74.92-1.16,2.01-1.85,2.93-.02.04-.04.09-.02.13.03.09.05.21.12.24.06.04.21.02.25-.03.32-.29.6-.62.92-.91.13-.12.32-.2.5-.27.07-.03.18.02.27.05.11.04.16.27.1.38-.07.13-.12.27-.21.38-.22.26-.45.5-.67.76-.6.7-.47,1.04.45,1.22.09.02.19.02.29.04.39.04.67-.12.8-.47.28-.72.59-1.42.81-2.16.15-.51.2-1.04.23-1.57.02-.23-.08-.47-.17-.69-.04-.12-.17-.22-.28-.31-.09-.07-.28.05-.44.28-.05.08-.08.18-.14.25-.18.23-.39.26-.62.09-.11-.09-.21-.19-.33-.31h0ZM37.54,10.43c0,.06,0,.11,0,.16.03.19.09.4.29.46.18.04.42.07.55-.02.35-.24.68-.53.99-.84,1.06-1.07,2.09-2.15,3.13-3.22.1-.1.21-.22.25-.34.04-.12.05-.31,0-.41-.14-.25-.34-.47-.54-.68-.16-.19-.46-.17-.64,0-.35.34-.58.77-.8,1.2-.08.16-.23.3-.36.43-.05.04-.19.04-.26,0-.07-.03-.13-.14-.15-.22-.02-.09-.02-.2,0-.28.2-.55.42-1.08.81-1.53.09-.1.18-.23.23-.36.02-.08-.01-.18-.04-.27-.03-.12-.27-.12-.36.01-.69.92-1.4,1.84-1.97,2.85-.08.12-.13.25-.2.39-.09.2-.04.37.14.49.19.13.21.33.16.51-.08.34-.25.64-.65.68-.37.04-.49.26-.52.58-.02.14-.05.29-.07.41h0ZM41.95,17.84c-.05,0-.1,0-.14,0-.25-.01-.5-.03-.61.26-.08.22.06.39.19.52.48.47.98.93,1.5,1.36.13.11.36.16.54.16.24,0,.47-.06.68.11.74.61,1.66.75,2.54,1,.35.1.67-.04.97-.22.16-.1.28-.28.45-.36.21-.09.46-.12.69-.17.03,0,.09.03.12.06.02.02.04.09.03.11-.19.21-.4.42-.59.63-.17.18-.33.36-.48.54-.17.21-.1.63.11.79.47.34.99.6,1.54.79.32.11.65.17.94.37-.02.2-.17.16-.28.14-.43-.05-.86-.13-1.3-.17-.48-.04-.96-.06-1.45-.06-.3,0-.54.2-.63.51-.04.14-.11.29-.08.42.17.76.32,1.53.57,2.25.13.4.42.75.65,1.12.19.28.38.56.56.84,0,.02-.06.11-.07.1-.09-.02-.19-.05-.25-.11-.84-.75-1.51-1.63-1.95-2.7.07-.17.15-.34.22-.52.06-.15,0-.32-.12-.37-.51-.21-.91-.55-1.28-.93-.1-.11-.22-.19-.34-.28-.84-.62-1.73-.97-2.82-.93-1.76.08-3.17.8-4.36,2.03-.23.23-.38.56-.5.86-.29.73-.31,1.52-.36,2.29,0,.12-.1.24-.17.36,0,.02-.12.01-.13,0-.18-.54-.34-1.1-.51-1.65-.13-.42-.23-.84-.39-1.24-.2-.48-.67-.73-1.18-.68-.6.06-1.15.26-1.52.76-.38.5-.72,1.03-1.08,1.55-.11.16-.17.34-.41.4-.03-.13-.09-.28-.1-.42-.11-1.22-.96-1.71-1.99-2-.5-.14-.94-.02-1.37.28-.92.62-1.45,1.55-1.91,2.51-.21.43-.38.89-.57,1.33-.1.22-.23.42-.37.66-.04-.14-.1-.23-.08-.31.13-.57.33-1.11.62-1.62.38-.66.54-1.33.28-2.08-.08-.22-.06-.47-.09-.71-.06-.5-.12-.56-.65-.48-.2.03-.38.05-.56-.03-.51-.24-1.02-.22-1.56-.11-.53.11-1.07.08-1.59-.05-.41-.11-.85-.2-1.07-.66.11-.1.19-.23.32-.3.6-.32,1.2-.65,1.81-.92.41-.18.81-.34,1.14-.63.33-.28.67-.36,1.08-.25.04.01.1,0,.14-.03.11-.08.25-.15.3-.27.08-.14-.04-.27-.15-.35-.07-.05-.18-.07-.28-.09-.2-.07-.34-.19-.36-.4-.12-1.26-.38-2.49-.83-3.67-.1-.27-.1-.56-.17-.85-.03-.14-.36-.29-.49-.22-.29.16-.52.4-.85.53-.28.1-.35.52-.19.75.17.24.34.47.54.69.56.6.79,1.31.76,2.12-.01.31-.1.56-.38.73-.87.53-1.73,1.06-2.61,1.57-1.26.73-2.48,1.51-3.58,2.48-.71.61-1.54.97-2.51.98-.58,0-1.15.12-1.73-.05-.83-.23-1.49-.69-1.99-1.37l-.05-.04.03.05c.83-.25,1.66-.51,2.46-.75.5.29.96.56,1.42.83.38.22.74.16,1.09-.06.58-.36,1.08-.81,1.53-1.33,1.16-1.34.71-1.08,2.53-1.84.87-.36,1.62-.87,2.16-1.65.11-.15.17-.35.19-.54.04-.43.01-.87-.14-1.29-.28-.72-.42-1.48-.49-2.26-.02-.28-.17-.55-.28-.81-.03-.06-.16-.1-.25-.08-.08,0-.2.06-.23.13-.08.17-.14.37-.14.55.03.77.09,1.54.34,2.28.09.28.17.56.23.85.08.41-.04.75-.33,1.06-.28.28-.59.5-.95.66-.4.17-.8.34-1.19.52-.73.31-1.33.78-1.84,1.39-.33.4-.7.8-1.08,1.18-.32.32-.63.34-1.06.11-.12-.07-.21-.19-.31-.27.04-.23.19-.36.34-.47.52-.36,1.05-.7,1.54-1.09.52-.41,1.03-.88,1.51-1.35.35-.33.4-.76.23-1.21-.18-.46-.38-.91-.86-1.12-.12-.05-.29-.04-.42,0-.15.03-.28.36-.24.49.03.09.03.2.08.28.1.16.22.31.32.48.18.32.15.5-.12.77-.96.98-2.1,1.72-3.29,2.38-.8.44-1.69.71-2.59.91-.38.09-.77.13-1.14-.04-.13-.06-.28-.14-.42-.12-.81.09-1.52-.23-2.22-.54-.18-.07-.37-.12-.56-.15-1.26-.22-2.35-.85-3.44-1.48-.47-.27-.85-.64-1.22-1.02-.29-.31-.25-.84.07-1.18.06-.06.17-.12.25-.11.23.07.46.15.67.27.91.46,1.79.96,2.71,1.39,1.41.66,2.88,1.1,4.44,1.29,1.35.17,2.59-.11,3.81-.65.49-.22.96-.46,1.43-.7.27-.13.46-.36.53-.66.02-.09.02-.2-.03-.27-.08-.1-.23-.24-.33-.23-.33.07-.66.17-.96.31-.47.22-.93.19-1.4,0-.5-.2-1-.37-1.47-.61-1.81-.93-3.61-1.87-5.41-2.82-.38-.2-.74-.45-1.09-.7-.17-.12-.16-.51.01-.64.07-.06.15-.16.23-.16.79-.01,1.35-.46,1.89-.96.11-.1.21-.21.33-.29.17-.09.35-.19.53-.2.95-.05,1.79-.4,2.59-.85.81-.45,1.68-.72,2.58-.92,1.51-.33,3.03-.65,4.5-1.15.52-.17.98-.38,1.39-.75.29-.27.59-.51.99-.57.05,0,.19.08.19.13,0,.19,0,.38-.05.57-.13.46-.3.92-.43,1.39-.14.48.06,1.03.49,1.26.65.33,1.29.67,2.02.77.14.02.3,0,.43.06,1.25.49,2.49.14,3.7-.12.8-.17,1.54-.5,2.23-.98.83-.59,1.71-1.11,2.45-1.81.09-.08.26-.08.42-.13.03.43.04.81.08,1.19.03.33.33.63.65.7.44.1.88.1,1.28-.12,1.02-.56,2.03-1.13,2.77-2.08.3-.38.62-.73.96-1.12.06.12.12.2.11.26-.13.61-.3,1.22-.42,1.84-.12.66.41,1.37,1.08,1.49.44.08.87.05,1.24-.25.34-.27.67-.56,1.02-.82.1-.07.27-.05.41-.07v-.12l-.02.09c-.31.55-.59,1.11-.7,1.73-.08.44-.16.86,0,1.29.01.03-.01.12-.04.12-.08.02-.19.05-.24.01-.57-.47-1.19-.82-1.94-.91-.94-.47-1.93-.52-2.96-.34-.28.05-.58-.02-.87,0-.08,0-.22.08-.22.14-.01.12,0,.29.08.38.08.1.23.17.36.21.18.05.38.05.57.05.24,0,.48-.02.72-.04.59-.05,1.16,0,1.69.27.26.12.54.2.82.29.8.24,1.51.64,2.1,1.24.2.2.43.39.67.54.34.21.62.45.81.8.08.15.26.29.43.36.4.16.43.47.41.82l.07.03-.04-.05h0ZM43.98,8.85s.05-.06.08-.09c-.03.02-.07.05-.1.06.05.19.09.38.16.55.11.26.35.32.58.16.08-.05.14-.14.21-.2.26-.22.63-.29.87.09.29.44.57.88.78,1.38-.1.14-.16.28-.26.36-.97.79-1.92,1.62-2.97,2.31-.36.23-.67.54-1.02.81-.5.39-.8.34-1.23-.15-.16-.19-.3-.38-.43-.58-.18-.25-.2-.54-.09-.83.05-.12.17-.21.25-.31.03-.03.09-.04.14-.04.56,0,.87-.35,1.11-.8.12-.23.09-.36-.15-.45-.09-.03-.2-.02-.28-.06-.07-.04-.16-.13-.15-.19.02-.14.08-.28.17-.39.22-.31.34-.7.72-.9.07.19.11.36.17.53.04.11.31.15.37.06.16-.23.32-.48.47-.72.15-.25.3-.49.59-.61h0ZM32.06,29.18c.2-.12.4-.28.62-.37.1-.05.27-.01.39.04.13.05.16.26.08.38-.19.28-.37.56-.57.82-.43.55-.63,1.19-.7,1.87-.02.25.22.46.47.35.36-.13.69-.35,1.06-.44.42-.1.8.25,1.25.21.69-.05.97-.07.73-.95-.08-.28-.11-.57-.1-.86.05-.98-.2-1.91-.35-2.86-.06-.41-.32-.69-.65-.9-.25-.16-.41-.1-.65.29.21.19.5.32.5.66,0,.2-.05.38-.22.5-.13.09-.36.03-.51-.15-.12-.14-.21-.3-.33-.45-.63.73-.72.9-.98,1.88-.03.02-.05.05-.09.07.02-.03.04-.06.06-.11h0ZM32.92,8.21l-.02.08.02-.05c.11-.15.21-.32.33-.47.03-.04.13-.05.2-.05.02,0,.06.08.06.12,0,.14,0,.28,0,.41.53-.06.66-.15.78-.48.15-.4.29-.81.46-1.21.07-.17.22-.3.33-.46.13.14.21.27.32.35.12.1.31.08.39-.02.41-.59.82-1.18,1.26-1.82.61-.18,1.23-.46,1.91-.42.07,0,.15.08.2.14.02.03.01.1,0,.14-.04.09-.1.16-.16.24-.12.15-.24.3-.37.44-.45.5-.9,1-1.38,1.48-.58.59-1.13,1.18-1.61,1.86-.71,1.01-1.71,1.68-2.78,2.23-.12.06-.28.07-.42.08-.17,0-.27-.1-.31-.25-.03-.14-.03-.28-.02-.43.02-.15.09-.24.28-.2.13.03.28,0,.43,0,.33-.31.47-.73.65-1.11.07-.17.04-.38.04-.57-.2-.02-.4-.04-.6-.05h0ZM45.73,12.94c-.09.11-.19.2-.28.3-.14.04-.3.05-.41.12-.17.1-.29.25-.46.36-.92.61-1.72,1.39-2.73,1.89-.21.1-.25.31-.18.63.02.09.08.17.12.23.64.04,1.1-.22,1.44-.77.34-.52.78-.97,1.23-1.41.35-.33.63-.72.95-1.09.1-.09.2-.19.31-.29l.05-.05-.05.07h0ZM44.29,7.42l-.05.03.03-.05c.14-.05.17-.1.08-.1-.01,0-.04.08-.05.12h0ZM7.72,19.16c-.06-.22-.11-.45-.18-.69-.06-.22-.28-.28-.43-.12-.1.1-.18.23-.29.32-.18.14-.53.01-.57-.22-.05-.28-.08-.56-.11-.85-.35-.03-.38.39-.65.46-.17.04-.44-.03-.49-.19-.03-.14-.08-.28-.08-.42,0-.19.03-.38.04-.57-.13-.01-.26-.06-.29-.02-.16.18-.29.38-.42.57-.14.2-.31.28-.48.21-.2-.07-.41-.4-.37-.56.03-.15.08-.28.13-.42.05-.13.15-.25.19-.39.05-.14,0-.28-.15-.36-.36-.2-.39-.53-.32-.88.11-.54.41-.97.8-1.36.19-.18.42-.25.66-.26.57-.02,1.03-.27,1.38-.7.38-.45.87-.75,1.41-.92.06-.19.09-.33.15-.46.5-1.2,1.39-1.82,2.69-1.83.17,0,.38.1.52.22.25.22.47.48.68.7.52,0,.87-.2,1.13-.59.59-.9,1.3-1.7,2.12-2.37.11-.09.24-.16.37-.23.17-.1.55.1.57.3.03.34.04.67.07,1.01.01.14.05.29.08.43.04.16.3.35.44.3.75-.2,1.48-.43,2.11-.92.38-.29.78-.56,1.19-.83.12-.08.26-.12.4-.16.31-.1.71.1.84.4.16.38.2.76.12,1.15-.06.32-.17.65-.26.98.14.31.27.62.41.91.22.46.47.72.97.27.52-.45,1.2-.6,1.84-.82.12-.04.29.02.42.06.08.04.16.12.19.2.04.13.07.29.06.43-.06,1.05-.07,1.08.97.87,1.54-.3,2.76-1.13,3.91-2.12.92-.79,1.65-1.77,2.41-2.71.22-.26.4-.58.39-.92,0-.47.21-.83.48-1.18.61-.81,1.22-1.63,1.83-2.44.16-.21.44-.28.64-.17.24.14.32.35.3.61-.01.14-.06.29-.08.43-.01.14,0,.27,0,.41.04.03.09.06.13.08.04.02.1.03.14.02,1.19-.21,2.38-.42,3.56-.65.37-.07.74-.21,1.21-.35.69-.75,1.45-1.56,2.21-2.38.13-.14.27-.29.43-.38.17-.11.36-.11.55,0,.15.1.18.32.09.53-.25.53-.6,1-1,1.42-.31.31-.61.63-.9.95-.14.15-.13.39-.01.52.32.35.76.55,1.02.99.21.37.57.65.87.97.03.03.08.04.16.09.53-.39,1.07-.79,1.62-1.18.15-.11.34-.19.52-.21.12-.01.27.08.37.17.05.04.07.17.05.26-.09.38-.32.7-.57,1-.22.25-.42.52-.63.77.35.85.67,1.66,1.15,2.4,1.18,1.81.7,1.8,2.67.7.55-.3,1.13-.56,1.71-.81.16-.08.38-.09.56-.07.12.02.24.13.32.23.04.06.03.2-.01.27-.1.17-.21.34-.35.46-.37.31-.74.62-1.14.89-.63.45-1.25.92-1.85,1.4-1.15.9-2.1,2-3.16,2.99-.64.61-1.1,1.35-1.53,2.1-.33.57-.26,1.13.17,1.61.53.58,1.19.99,1.91,1.29.21.08.48.07.71.02.63-.13,1.22-.35,1.68-.81.47-.46,1.04-.7,1.66-.84.19-.04.39-.06.56-.15.78-.34,1.58-.41,2.42-.26.58.11,1.15.09,1.72-.11.17-.07.41-.12.56-.06.65.26,1.33.18,2,.23.09,0,.22.09.23.14.03.13.04.3-.03.41-.21.34-.53.58-.94.59-.65.02-1.23.22-1.8.5-.28.14-.48.32-.59.62-.44,1.18-.47,2.36,0,3.53.07.17.2.33.33.47.29.31.61.62.9.93.1.11.14.24.06.39-.1.19-.26.29-.45.32-.14.02-.29,0-.43-.05-.23-.07-.45-.19-.67-.26-.3-.11-.57-.04-.83.14-.56.39-.98.91-1.29,1.53-.37.75-.51,1.56-.76,2.33-.03.09-.03.19-.04.29-.03.34.29.65.12.98-.16.34-.12.65-.06.99.06.32-.09.56-.37.72-.17.09-.44.08-.55-.03-.14-.14-.27-.28-.39-.43-.78-.99-1.62-1.93-2.51-2.82-.58-.59-1.12-1.2-1.55-1.91-.43-.71-1-1.3-1.77-1.67-.57-.27-1.09-.63-1.67-.86-1.08-.43-2.09-.14-3.03.47-.15.1-.29.27-.36.45-.14.3-.24.63-.33.95-.14.51.01,1.04-.19,1.56-.17.44-.14.95-.15,1.44-.02,1.64-.02,3.29-.03,4.94,0,.19.01.39-.03.57-.05.18-.16.35-.28.49-.21.25-.62.21-.73-.07-.13-.36-.25-.73-.36-1.1-.1-.32-.18-.65-.29-.96-.13-.36-.38-.53-.78-.5-.67.05-1.36-.07-1.99.3-.11.06-.29.04-.43.01-.78-.14-1.43.2-2.01.65-.3.24-.52.56-.96.59-.07,0-.16.11-.2.19-.11.22-.19.45-.28.67-.1.23-.26.4-.49.51-.26.12-.52.24-.78.38-.16.08-.3.03-.39-.08-.08-.1-.16-.27-.14-.39.11-.47.25-.93.38-1.39.09-.33.21-.65.28-.98.02-.11-.08-.32-.17-.35-1.17-.33-2.34-.56-3.61-.27-.14.22-.32.45-.45.71-.43.84-1.14,1.43-1.84,2.03-.11.09-.25.14-.38.21-.19.1-.41.05-.52-.11-.12-.17-.16-.36-.05-.54.39-.61.78-1.23,1.19-1.82.25-.36.45-.75.57-1.17.29-.93.6-1.84.9-2.76.05-.18.04-.37.06-.54-.08-.05-.12-.09-.16-.1-.91-.1-1.82-.26-2.72-.38-1.69-.22-3.33-.63-4.94-1.14-.67-.21-1.29-.34-1.98-.13-.36.11-.77.1-1.14.17-1.11.2-2.11-.11-3.08-.61-.47-.25-.92-.54-1.35-.84-.8-.55-1.59-1.11-2.39-1.66-.63-.44-1.33-.79-2.02-1.13-.96-.47-1.88-1-2.81-1.51-.25-.14-.49-.32-.72-.49-.56-.45-.95-.98-.73-1.75-.14-1.05.36-1.87.98-2.63.11-.13.32-.2.5-.27.14-.06.45.08.51.2.02.04.06.09.06.13.06.71.55,1.08,1.09,1.46.76.54,1.57.95,2.45,1.24.62.2,1.24.2,1.85,0,.08-.02.14-.12.22-.2Z"/>
  </g>
</svg>