<?xml version="1.0" encoding="UTF-8"?>
<svg id="Layer_2" data-name="Layer 2" xmlns="http://www.w3.org/2000/svg" viewBox="0 0 46.46 33.12">
  <defs>
    <style>
      .cls-1 {
        fill: #753d22;
        fill-rule: evenodd;
      }
    </style>
  </defs>
  <g id="Layer_2-2" data-name="Layer 2">
    <g>
      <path class="cls-1" d="M15.54,26.01l-.09-.04v.06s.09-.01.09-.01h0ZM8.26,22.67l-.11.03.11.04v-.06h0ZM11.36,20.97c-.08,0-.15,0-.22.02-.04.02-.08.07-.12.11.03.03.06.05.09.06.07.01.14.02.22.02.14,0,.27-.1.22-.13-.05-.04-.12-.06-.19-.08h0ZM42.74,16.57s-.07.03-.08.06c-.01.03-.01.07,0,.09.2.29.46.51.75.69.04.02.13-.04.2-.06.01,0,.01-.08,0-.09-.25-.23-.5-.45-.76-.68-.03-.02-.08,0-.11-.02h0ZM10.23,8.22c-.08.34.08.57.2.79.04.08.18.1.28.15.03,0,.07-.01.11-.02.08-.04.09-.1.06-.19-.12-.28-.33-.5-.64-.73h0ZM10.56,21.89c-.23.01-.42.17-.41.29.02.31.05.6.09.9,0,.02.07.05.09.04.26-.1.46-.28.59-.52.1-.17.09-.39-.05-.55-.09-.1-.25-.14-.32-.17h0ZM12.77,7.79c-.09.42-.14.84-.09,1.27.02.16.1.29.27.34.19.06.36.13.56.18.06.02.14-.03.2-.05.02-.01.03-.07.03-.1-.15-.57-.4-1.09-.73-1.57-.03-.05-.14-.04-.23-.06h0ZM17.94,13.09c-.07-.08-.13-.21-.22-.24-.33-.1-.68-.16-1.02-.23-.03,0-.09,0-.1.04-.03.06-.05.15-.03.19.09.17.21.33.3.5.09.17.14.36.23.53.08.14-.01.36.19.46.32-.37.5-.8.65-1.26h0ZM15.8,16.35c.07-.03.11-.05.12-.08.29-.43.41-.92.46-1.42.05-.48-.04-.93-.33-1.34-.21-.28-.41-.56-.63-.84-.12-.15-.24-.32-.47-.3-.11,0-.08.26.04.54.19.43.44.82.75,1.18.13.14.22.31.3.5.13.31-.24.72-.57.68-.17-.03-.33-.21-.54,0,.31.35.52.77.87,1.08h0ZM17.24,15.05c.75.95.93,1.28,1.09,2.05-.22.07-.44.13-.65.21-.23.09-.39.32-.37.55.04.34.1.69.15,1.03.05.42.12.85.16,1.28.04.36-.23.58-.6.5-.5-.12-.98-.27-1.46-.42-.19-.05-.36-.14-.55-.2-.24-.07-.46,0-.66.14-.13.1-.23.21-.25.38-.06.39-.05.78.08,1.16.09.27.1.54.05.81-.02.14-.21.27-.34.24-.58-.14-1.1-.41-1.55-.8-.06-.06-.07-.24,0-.32.54-.54.83-1.21,1.06-1.93.08-.26.13-.54.43-.73.26.08.56.16.89.26.27-.09.56-.18.85-.27.38.12.75.25,1.12.37.12.03.32-.08.39-.2.09-.18.14-.38.08-.56-.1-.3-.22-.58-.33-.88-.17-.45-.22-.92-.06-1.38.15-.43.16-.91.49-1.27h0ZM15.72,25.16c-.68-.05-1.3-.24-1.82-.7-.14-.13-.32-.23-.48-.33-.21-.13-.44-.15-.66-.01-.19.12-.36.06-.54-.05-.49-.34-.56-.8-.38-1.33.27-.07.46.09.65.21.46.29.96.51,1.48.69.31.1.64-.05.77-.37.2-.47.33-.96.17-1.48-.05-.18-.04-.38-.06-.57,0-.1.13-.24.23-.22.11.02.23.02.34.04.38.1.76.2,1.13.31.34.1.69.13,1.04.09.23-.03.45-.17.67-.16.22,0,.43.15.65.19.14.03.31,0,.46-.04.06,0,.12-.08.16-.14.05-.07-.03-.26-.13-.3-.22-.06-.44-.14-.67-.2-.1-.03-.21-.05-.32-.08-.1-.76-.2-1.49-.3-2.22-.02-.21.07-.37.29-.46.1-.05.23-.06.33-.12.38-.18.61-.71.44-1.09-.23-.5-.49-.97-.74-1.46-.08-.14-.16-.27-.23-.41-.1-.19-.1-.38-.03-.57.15-.36.32-.71.46-1.08.07-.18.11-.37.14-.56.04-.19-.08-.42-.25-.48-.25-.1-.52-.19-.78-.26-.38-.09-.76-.15-1.14-.24-.73-.18-1.44-.38-2-.91-.05-.04-.08-.12-.11-.19-.03-.06.14-.17.27-.18.03,0,.08-.01.12-.01.86-.02,1.72-.04,2.73-.06.1,0,.23.23.43.34.17.1.35.19.5.3.43.3.73.68.89,1.2.2.65.3,1.29.26,1.97-.02.31-.04.62-.04.94,0,.11.04.22.08.33.05.16.33.31.48.27.34-.11.65-.29.85-.6.46-.74.75-1.54.78-2.43.01-.31-.06-.61-.14-.92-.21-.71-.38-1.43-.56-2.16.26-.21.53-.37.73-.59.31-.35.59-.72.84-1.12.14-.22.2-.5.18-.78-.08-.86-.08-1.72,0-2.58.02-.19-.02-.38-.05-.58-.12-.74-.05-1.48,0-2.22.01-.12.19-.29.32-.3.15,0,.32-.02.46.02.1.03.24.11.26.2.09.29.2.6.19.91-.02,1.37.25,2.71.26,4.09,0,.2.06.38.19.54.08.09.3.13.43.07.13-.05.28-.26.25-.35-.42-1.57-.4-3.18-.5-4.76,0-.08.02-.15.04-.23.02-.11.23-.25.36-.24.3.03.54.18.61.47.17.68.32,1.36.3,2.08-.03.86.06,1.72.21,2.57.03.14.11.29.21.41.07.08.2.12.32.07.1-.05.19-.12.2-.26,0-.04.02-.08,0-.11-.24-.64-.2-1.31-.23-1.97-.04-.78,0-1.56-.17-2.33-.02-.1.03-.22.06-.36.44.09.82.3,1.2.49.14.07.23.21.23.38,0,.51.01,1.01-.06,1.52-.13.92-.23,1.86-.14,2.8.01.19.06.38.12.57.02.06.11.09.18.13.08.05.16.03.19-.05.04-.11.12-.21.11-.32-.05-.95,0-1.88.17-2.8.05-.27.03-.54.06-.81,0-.12.05-.23.07-.34.03-.15.25-.26.36-.2.43.22.78.52,1.02.98-.16.43-.32.86-.46,1.3-.2.63-.38,1.27-.56,1.91-.05.19-.07.39.05.56.05.06.12.11.19.12.06,0,.17-.01.2-.06.08-.13.16-.28.18-.42.12-.87.44-1.66.83-2.43.05-.1.14-.17.21-.26.26.07.37.29.52.46.13.16.17.36.08.55-.18.39-.38.77-.56,1.15s-.4.77-.44,1.21c-.01.1,0,.23.05.33.02.05.11.09.19.12.02,0,.08-.03.1-.05.09-.13.18-.25.25-.38.25-.49.49-.98.74-1.46.04-.07.16-.12.29-.21-.11.8-.07,1.53.1,2.25.16.67.51,1.22,1.09,1.6.23.15.46.3.68.46.8.58,1.7.92,2.69,1.05.42.06.86-.03,1.25.14.16.16.03.3,0,.44-.13.51-.03,1.01.15,1.49.04.1.2.18.29.14.07-.03.17-.06.19-.11.16-.36.31-.72.66-1.01.14.09.29.2.45.29.17.09.41,0,.5-.18.08-.18.12-.38.04-.56-.11-.29-.39-.49-.41-.82.14-.23.38-.27.59-.36.62-.26,1.2-.57,1.77-.9.78-.45,1.3-1.12,1.67-1.9.15-.31.29-.64.43-.96.4.13.61.43.73.74.25.66.58,1.28.73,1.97.08.4.03.54-.38.72-.54.23-1.08.46-1.63.66-.44.17-.86.37-1.22.68-.11.09-.19.24-.23.38-.02.09.03.24.1.31.07.06.21.07.32.06.06,0,.13-.07.19-.13.52-.43,1.12-.7,1.76-.89.22-.07.44-.16.66-.24.41-.14.55-.02.54.44,0,.43-.1.85-.24,1.25-.07.2-.21.29-.46.26-.62-.05-1.24-.11-1.86-.15-.11,0-.24,0-.34.06-.09.05-.17.16-.22.25-.07.13.03.36.17.38.16.02.31.04.46.05.5.04,1.01.09,1.51.14.14.02.25.22.2.36-.14.45-.35.86-.68,1.19-.34,0-.5-.26-.69-.43-.28-.23-.55-.45-.89-.56-.11-.04-.23-.05-.34-.07-.12-.02-.34.12-.37.24-.05.22-.08.46-.14.68-.06.21,0,.4.12.54.2.24.43.45.66.66.11.1.25.17.39.27-.15.3-.41.37-.67.41-.06,0-.14-.04-.21-.08-.03-.02-.07-.05-.08-.09-.24-.82-.92-1.22-1.58-1.64-.65-.41-1.38-.54-2.12-.56-.55,0-1.08.17-1.59.36-.34.12-.62.34-.82.64-.23.36-.48.73-.62,1.12-.58,1.62-1.6,2.95-2.77,4.17-1.11,1.15-2.35,2.16-3.68,3.07-.42.29-.87.53-1.37.65-.26.06-.53.14-.79.22-.22-.36-.2-.49.1-.63.66-.33,1.33-.66,1.99-.99.14-.07.29-.12.42-.22.52-.4,1.15-.66,1.53-1.24.12-.19.35-.31.52-.46.13-.12.16-.31.08-.42-.1-.11-.22-.11-.32-.05-.21.09-.47.18-.59.35-.34.51-.88.77-1.36,1.09-.48.32-1.01.59-1.53.86-.17.09-.37.12-.56.16-.14.04-.33-.09-.36-.22-.1-.37,0-.56.36-.69.26-.09.52-.19.74-.33.37-.22.71-.47,1.07-.72.17-.12.2-.29.1-.38-.11-.12-.23-.13-.43-.04-.2.11-.4.24-.61.34-.32.15-.64.28-.97.4-.1.04-.25,0-.29-.13-.12-.32-.31-.49-.67-.54-.9-.13-1.75-.43-2.56-.8-.38-.17-.75-.42-1.13-.62-.1-.05-.33.04-.41.15-.1.15-.1.34,0,.45.08.08.16.17.25.22.34.19.69.37,1.04.53.35.17.73.27,1.02.55.52-.04.99.11,1.44.36.17.09.26.27.26.48,0,.16-.16.32-.28.26-.57-.24-1.09-.55-1.4-1.12-.08-.02-.16-.04-.23-.03-.33.06-.47.34-.3.59.09.13.18.27.29.36.38.34.77.67,1.23.89.14.07.27.14.41.21.19.1.31.27.29.47-.04.39-.05.79-.18,1.15-.12.31-.13.61-.13.91,0,.18-.08.28-.17.25-.1-.05-.21-.09-.28-.16-.61-.69-1.01-1.48-1.34-2.32-.16-.4-.32-.79-.49-1.19-.08-.17-.21-.33-.32-.48-.04-.06-.12-.1-.17-.15-.1-.08-.34-.09-.45,0-.1.08-.17.32-.08.42.44.56.67,1.23.95,1.87.38.9.82,1.77,1.48,2.51.55.61.57,1.24.21,1.93-.09.17-.14.36-.4.41-.52-.95-.95-1.95-1.25-2.99-.17-.6-.4-1.18-.62-1.76-.32-.85-.61-1.69-.91-2.54-.21-.58-.41-1.18-.63-1.76-.03-.08-.18-.14-.28-.16-.1-.03-.3.22-.29.32,0,.03.01.08.02.11,0,.04,0,.08.02.11.5,1.56.97,3.13,1.59,4.64.17.4.28.81.39,1.22.2.75.44,1.49.78,2.2.23.49.42,1,.62,1.51-.1.32-.37.49-.62.67-.09.06-.26.03-.31-.05-.17-.34-.38-.68-.51-1.05-.4-1.18-.95-2.3-1.4-3.46-.17-.44-.32-.88-.45-1.33-.32-1.05-.79-2.04-1.25-3.02-.01-.04-.05-.05-.08-.09-.06-.08-.23-.13-.31-.07-.09.06-.18.16-.22.24-.03.11-.02.24,0,.35.06.22.14.44.21.66l.05.03-.04-.03c-.16-.1-.33-.2-.49-.31-.17-.12-.35-.18-.54-.05-.23.14-.44.11-.65-.05-.12-.1-.25-.19-.37-.28-.07-.04-.13-.08-.2-.13-.18-.11-.44-.08-.52.07-.07.12-.02.32.08.43.38.42.85.74,1.4.78.61.05,1.1.39,1.7.4.08.21.16.39.2.58,0,.03-.09.16-.13.15-.15,0-.3-.04-.45-.08-.14-.04-.3-.11-.44-.11-.1,0-.23.09-.27.17-.03.09.01.22.06.32.03.07.11.12.17.15.28.16.55.29.87.31.15.01.3.06.45.09.08.02.17.21.12.29-.03.07-.09.12-.14.18-.03.02-.08.04-.11.04-1.13-.05-2.25-.13-3.25-.76-.02,0-.02-.07-.03-.1-.09-.02-.18-.04-.27-.06.02,0,.05-.02.07-.01.07.03.12.06.18.09.2.02.39.04.58.03.27,0,.35-.2.19-.49-.05-.09-.09-.14,0-.16.19-.04.39-.06.57-.11.05-.01.11-.12.11-.19,0-.06-.02-.17-.07-.2-.14-.07-.29-.12-.43-.16-.64-.19-1.26-.4-1.76-.87-.08-.08-.27-.05-.32.03-.05.11-.1.22-.09.33.03.3.29.44.49.62l.04.04-.03-.05h0ZM2.13,15.79c.18.06.36.14.54.19.18.05.38.13.53-.03.09-.1.1-.28.14-.42-.36,0-.65-.17-.93-.37-.09-.06-.13-.18-.19-.28-.02-.03-.01-.07,0-.1.03-.09.12-.13.19-.07.31.27.61.55.92.83.87.79,1.85,1.42,2.86,2.01.77.45,1.55.89,2.33,1.34.21.12.33.32.35.57.01.19.04.39.08.58.03.17.38.26.49.12.09-.11.2-.24.24-.38.14-.48.25-.98.38-1.49-.09-.06-.17-.16-.27-.18-.23-.03-.32-.16-.38-.37-.08-.25-.21-.28-.44-.13-.07.04-.11.12-.18.14-.06.04-.17.07-.21.04-.05-.03-.08-.14-.07-.2.04-.19.12-.37.17-.55.03-.11.03-.23.04-.34,0-.09-.17-.2-.25-.17-.25.06-.42.21-.49.44-.04.15-.07.3-.11.45-.46-.12-.56-.23-.54-.59,0-.15.04-.31.05-.46,0-.14-.24-.27-.36-.17-.15.11-.29.25-.43.38-.08.07-.26.04-.3-.05-.03-.07-.08-.13-.1-.2-.03-.15-.04-.31-.09-.46-.06-.2-.26-.29-.46-.15-.06.04-.12.1-.19.13-.11.06-.23.06-.3-.04-.07-.09-.14-.2-.15-.3-.02-.11.03-.23.06-.34.04-.15.12-.29.12-.44,0-.09-.08-.2-.17-.27-.03-.04-.16-.03-.21.01-.18.16-.33.33-.5.49-.02.03-.09.03-.11.01-.06-.04-.14-.1-.13-.15.02-.23.06-.46.08-.69.01-.12-.04-.22-.16-.28-.12-.06-.23-.02-.32.06-.09.07-.14.17-.23.25-.09.08-.23.07-.31-.02-.19-.21-.14-.51.11-.55.46-.08.92-.14,1.39-.17.39-.02.77-.11,1.14-.21.11-.03.22-.08.32-.13.22-.1.29-.28.22-.57-.07-.32-.07-.32.3-.47l.04-.07-.06.05c.05.1.09.22.16.31.08.12.23.13.3.05.1-.12.2-.23.3-.36.24-.25.45-.53.71-.76.45-.42.99-.62,1.61-.5.32.06.62-.01.91-.11.17-.06.29-.21.25-.34-.05-.17-.19-.22-.36-.23-.08,0-.15,0-.23,0,0-.02,0-.05.01-.05.19,0,.38,0,.64,0,.06.09.16.21.24.34.15.24.35.41.62.51.21.08.43.18.65.25.16.05.3.12.38.26.17.34.49.5.81.64.35.15.53.41.65.77.12.37.31.71.45,1.07.02.04-.05.17-.1.17-.23.02-.46,0-.69.03-.14,0-.28.19-.27.34.03.19.04.39.12.55.13.24.3.47.49.65.34.33.63.69.85,1.11.14.28.2.28.69.19.05.06.12.1.12.16.07.33.12.67.18,1-.19.12-.33.05-.46-.04-.31-.18-.52-.45-.71-.76-.08-.14-.25-.17-.42-.13-.17.04-.26.15-.3.31-.03.11-.03.23-.04.33-.26.12-.52.21-.75.37-.28.2-.54.44-.79.68-.08.08-.14.19-.18.29-.07.14-.12.29-.17.44-.17.49-.52.76-1.04.8-.27.02-.54.06-.81.1-.25.04-.44.18-.55.4-.14.27-.24.57-.36.86-.09.2-.37.35-.58.33-.11-.01-.23-.02-.34-.06-.42-.15-.83-.14-1.25.04-.24.11-.46.02-.64-.16-.13-.14-.29-.27-.4-.43-.07-.08-.11-.21-.1-.31.03-.26-.05-.46-.23-.63-.14-.14-.28-.28-.41-.42-.2-.19-.42-.34-.72-.36-.11,0-.23-.05-.32-.12-.88-.66-1.75-1.3-2.61-1.98-.36-.29-.65-.67-.96-1.02-.12-.13-.1-.28,0-.42.09-.12.22-.16.3-.11.13.09.26.18.37.28.18.15.34.32.52.46.1.08.21.06.32,0,.1-.06.14-.2.08-.31-.08-.13-.17-.26-.24-.4-.05-.1-.09-.21-.12-.32l-.07-.03.04.03h0ZM1.83,13.95v-.47c0-.19.11-.32.25-.36.74-.23,1.44-.56,2.23-.64.19-.02.39-.09.53-.2.49-.39,1.01-.76,1.42-1.23.69-.81,1.57-1.26,2.54-1.59.18-.07.36-.13.55-.2.17-.06.26-.2.22-.36-.23-.68-.15-1.39-.19-2.09,0-.03.01-.07.02-.11.02-.11.28-.22.39-.18.19.07.32.21.44.37.45.59.89,1.19,1.34,1.77.07.08.19.13.28.2.3-.6.31-1.22.28-1.85-.01-.34.11-.54.3-.56.22-.04.38.06.52.21.44.45.79.97,1.06,1.53.12.25.23.49.33.75.2.5.61.71,1.1.74.43.03.86,0,1.29-.06,1.94-.25,3.7-.92,5.16-2.27.03-.02.05-.06.1-.14.05-1.12.23-2.29.07-3.46-.07-.51-.01-1.02-.03-1.53-.01-.47-.07-.94-.07-1.4,0-.19.05-.38.12-.56.08-.21.4-.32.59-.21.1.06.21.12.29.2.34.38.74.41,1.17.21.16-.07.32-.08.43.04.29.28.65.41,1.02.54.73.27,1.46.54,2.18.84.89.36,1.63.9,2.34,1.52.52.47,1.02.95,1.48,1.5.35.43.66.87.96,1.32.22.35.31.7.27,1.1-.03.43-.01.86,0,1.29.03.48.2.93.54,1.27.77.73,1.6,1.38,2.65,1.66.8.21,1.62.25,2.44.21.12,0,.23-.03.34-.07.79-.34,1.58-.67,2.37-1.03.58-.26,1.04-.69,1.43-1.19.46-.59.79-1.25.78-2.04,0-.15.03-.31.06-.46.04-.23.36-.37.55-.25.58.35,1.05.84,1.34,1.44.31.63.64,1.26.83,1.93.35,1.22.43,2.46.12,3.71-.24.95-.56,1.87-1.08,2.71-.21.33-.38.68-.6,1.01-.43.62-.96,1.13-1.62,1.49-.32.16-.62.33-.93.5-.22.12-.51,0-.58-.22-.06-.19-.12-.38-.15-.56-.07-.5-.38-.87-.76-1.14-.98-.68-2.06-.9-3.23-.55-.38.11-.69.34-.93.68-.26.38-.5.79-.67,1.22-.34.88-.79,1.7-1.41,2.41-.05.06-.11.12-.15.18-.81,1.17-1.85,2.1-3,2.94-.19.13-.35.3-.54.45-1.03.85-2.12,1.58-3.44,1.94-.22.06-.44.15-.65.27-.1.05-.19.16-.22.26-.11.37-.19.75-.29,1.13-.15.56-.28,1.13-.48,1.68-.41,1.13-1.12,2.05-2.13,2.71-.13.08-.28.14-.42.2-.11.05-.34-.02-.43-.12-.38-.41-.59-.91-.75-1.44-.27-.9-.57-1.79-.98-2.64-.07-.13-.12-.3-.22-.41-.1-.11-.23-.23-.37-.27-.25-.08-.53-.13-.8-.16-1.32-.16-2.61-.46-3.81-1.07-.76-.19-1.44-.59-2.17-.87-.7-.26-1.32-.67-1.89-1.15-.39-.32-.76-.66-1.26-.83-.25-.09-.46-.29-.67-.46-.17-.13-.34-.19-.54-.18-.03,0-.08,0-.12.01-1.09.17-1.98-.27-2.76-.99-.49-.45-.94-.93-1.39-1.42-.45-.49-.94-.94-1.47-1.34-.53-.4-1.05-.8-1.58-1.2-.5-.38-.95-.81-1.36-1.29-.07-.09-.16-.18-.22-.28-.23-.31-.29-.66-.07-.98.26-.39.54-.77.83-1.13.27-.33.57-.63.86-.96Z"/>
      <path class="cls-1" d="M28.1,11.35c-.17,1.11-.39,2.18-1.13,3.04-.24.29-.71.37-1.07.17-.2-.1-.36-.38-.32-.58.03-.2.07-.39.12-.57.13-.5.13-1,.11-1.51,0-.19-.03-.41-.12-.56-.35-.52-.11-.96.11-1.42.21-.42.78-.59,1.21-.36.5.27.88.65.97,1.24.03.19.08.38.12.56Z"/>
      <path class="cls-1" d="M24.64,12.3c-.03.43-.04.86-.1,1.28-.03.2.01.37.06.56.07.28-.05.43-.34.5-.11.03-.23.05-.34.07-.75.1-1.08-.29-1.15-.98-.03-.34-.01-.7.02-1.05.06-.71-.04-1.4-.23-2.07-.05-.19-.09-.38-.13-.57-.06-.3.06-.49.35-.65.47-.27.9-.17,1.31.12.12.09.22.23.26.37.14.45.25.9.25,1.38,0,.35,0,.69,0,1.04.01,0,.03,0,.04,0Z"/>
      <path class="cls-1" d="M28.39,13.92c0-.12,0-.33.04-.51.15-.66.1-1.32.14-1.98.01-.27.05-.54.21-.78.09-.14.21-.23.37-.26.16,0,.31-.04.46,0,.58.05.93.37,1.05.93.08.35.08.71.01,1.04-.18.89-.54,1.71-1.14,2.41-.08.09-.17.16-.26.23-.11.1-.31.1-.43,0-.3-.21-.51-.48-.47-.88,0-.04,0-.08.01-.19Z"/>
      <path class="cls-1" d="M30.9,13.36c.04-.18.12-.52.2-.86.21-.79.1-1.19,1.33-.86.14.04.31,0,.46,0,.12,0,.3.24.25.34-.25.61-.34,1.28-.56,1.9-.1.32-.33.52-.69.54h-.23c-.55,0-.78-.23-.76-.79v-.28Z"/>
      <path class="cls-1" d="M25.35,15.98c-.39,0-.7,0-1.01,0-.05,0-.11-.09-.14-.15-.02-.07-.01-.16.01-.23.03-.06.1-.12.16-.17.2-.13.43-.22.66-.19.81.09,1.64.02,2.44.19.61.13,1.24.17,1.86.28.25.03.46-.06.69-.09.28-.04.55.01.76.22.04.05.06.15.04.21,0,.07-.07.18-.12.18-.61.06-1.19.29-1.83.16-.72-.15-1.46-.23-2.2-.32-.46-.05-.93-.05-1.31-.08Z"/>
      <path class="cls-1" d="M34.86,13.74c.01.11.05.27.04.41-.01.1-.08.21-.15.3-.19.22-.46.28-.73.33-.4.07-.69-.13-.72-.55-.04-.38-.04-.78-.03-1.16.01-.29.19-.5.46-.63.19-.08.37-.09.56,0,.43.21.66.53.62,1.02-.01.08-.02.15-.04.28Z"/>
      <path class="cls-1" d="M32.21,21.55s-.06-.06-.07-.1c-.02-.08-.05-.16-.03-.22.02-.11.05-.24.12-.32.8-1,1.44-2.1,2.13-3.17.03-.06.1-.13.17-.16.1-.04.24-.08.32-.04.08.04.14.19.14.29,0,.1-.03.23-.1.33-.74,1.09-1.41,2.21-2.28,3.21-.07.08-.19.12-.29.18-.03.02-.07,0-.11,0Z"/>
      <path class="cls-1" d="M41.39,12.42c-.04-.1-.13-.2-.13-.3,0-.1.07-.23.14-.31.11-.11.24-.2.37-.27.27-.15.54-.3.83-.44.5-.24.93-.56,1.27-1,.11-.15.26-.29.41-.41.09-.07.21-.12.32-.12s.24.05.29.12c.06.08.07.26.02.31-.66.72-1.35,1.41-2.22,1.86-.35.17-.7.35-1.05.51-.07.04-.15.02-.25.04Z"/>
      <path class="cls-1" d="M21.34,18.39c-.07-.04-.16-.06-.2-.11-.03-.05-.02-.16.01-.22.06-.09.14-.17.23-.24.52-.34,1.07-.61,1.68-.73.45-.09.9-.2,1.36-.29.07-.01.15,0,.22.03.06.02.12.1.14.16.02.06,0,.16-.04.2-.06.09-.15.19-.25.22-.25.1-.5.2-.77.23-.66.07-1.28.3-1.86.61-.17.08-.34.17-.55.14Z"/>
      <path class="cls-1" d="M36.37,12.75c.29-.01.63.22.69.49.06.26.12.52.17.78.03.14-.07.31-.21.37-.47.22-.8.16-1.12-.2-.1-.12-.21-.24-.26-.38-.05-.14-.08-.32-.03-.44.11-.3.34-.5.64-.61.04-.01.08,0,.12-.01Z"/>
      <path class="cls-1" d="M20.77,17.01c-.4,0-.51-.24-.42-.36.09-.12.19-.3.32-.32.66-.09,1.26-.38,1.9-.53.06-.02.16.02.21.06.05.04.1.12.1.19,0,.17-.11.31-.25.36-.5.2-1.01.4-1.53.57-.18.06-.38.04-.32.04Z"/>
      <path class="cls-1" d="M29.18,17.46c-.17-.01-.32-.03-.48-.04-.13,0-.25-.26-.15-.36.1-.11.23-.26.35-.28.5-.03,1-.02,1.51-.01.05,0,.12.1.14.17.01.06,0,.18-.05.2-.21.1-.41.21-.63.26-.23.05-.47.04-.68.06Z"/>
      <path class="cls-1" d="M32.75,16.48c-.07-.03-.25-.08-.42-.15-.06-.02-.13-.13-.12-.18.03-.11.09-.26.17-.28.48-.09.97-.16,1.46-.21.08,0,.19.1.27.17.07.06.06.14,0,.21-.05.05-.09.14-.15.17-.35.16-.7.32-1.22.28Z"/>
      <path class="cls-1" d="M30.68,21.1c-.09.03-.15,0-.17-.1-.02-.08-.07-.16-.06-.22.12-.56.43-.98,1-1.17.07-.02.15-.02.22,0,.11.03.22.09.23.22,0,.07,0,.19-.04.21-.44.27-.71.69-1.07,1.04-.02.02-.07.01-.11.02Z"/>
      <path class="cls-1" d="M26.7,17.05c-.23-.01-.45-.01-.68-.03-.12-.01-.2-.09-.23-.21-.04-.14.04-.31.2-.36.1-.04.21-.1.32-.1.42-.02.83.06,1.19.32.05.04.12.15.1.18-.05.1-.13.22-.22.23-.22.03-.45.01-.68.01v-.04Z"/>
      <path class="cls-1" d="M33.25,16.74c.05.02.17.03.27.08.06.03.12.11.13.17.01.06-.01.16-.06.2-.17.17-.38.25-.63.22-.19-.02-.36-.23-.33-.39.03-.14.18-.26.32-.28.08,0,.15,0,.29,0Z"/>
      <path class="cls-1" d="M16.49,22.15s-.03.07-.06.09c-.27.21-.72.11-.9-.2-.04-.09,0-.26.09-.31.27-.16.76,0,.9.3,0,.03-.02.07-.02.11Z"/>
      <path class="cls-1" d="M35.08,15.43c.05.06.14.14.16.23.03.15-.13.29-.27.27-.11-.02-.22-.13-.22-.23,0-.14.15-.28.34-.28Z"/>
      <path class="cls-1" d="M10.88,14.95c-.38.17-.58.27-.79.36-.1.04-.23.04-.34.08-.07.02-.12.09-.18.13-.03.03-.06.08-.05.1.03.05.08.12.13.12.52.03.85-.28,1.23-.79h0ZM9.01,12.76c-.44.06-.61.35-.43.71.06.1.19.16.28.13.22-.1.36-.25.45-.47.07-.17-.1-.37-.3-.36h0ZM10.55,13.23l-.04-.06.06.04v.44s.04.06.06.09c.04-.06.11-.12.11-.17.02-.16,0-.3-.19-.34h0ZM7.47,13.61c.01-.65.5-1.33,1.11-1.55.19-.07.38-.09.56-.16.78-.3,1.91.16,2.33.9.08.13.16.26.24.39.22.38.3.79.17,1.23-.05.19-.09.38-.15.56-.1.3-.25.57-.52.76-.24.19-.5.37-.75.55-.34.24-.71.29-1.11.21-.59-.13-1.06-.48-1.46-.91-.08-.08-.13-.2-.17-.3-.19-.56-.24-1.14-.27-1.69Z"/>
    </g>
  </g>
</svg>