<?xml version="1.0" encoding="UTF-8"?>
<svg id="Layer_2" data-name="Layer 2" xmlns="http://www.w3.org/2000/svg" viewBox="0 0 31.88 18.85">
  <defs>
    <style>
      .cls-1 {
        fill: #753d22;
        fill-rule: evenodd;
      }
    </style>
  </defs>
  <g id="Layer_2-2" data-name="Layer 2">
    <path class="cls-1" d="M20.16,12.65s.1,0,.12-.04c.58-.79,1.16-1.57,1.73-2.38.1-.14.21-.4.14-.54-.23-.56-.04-1.1-.07-1.65,0-.12-.06-.24-.12-.42-1.29,2.93-1.61,3.83-1.82,5.03h0ZM22.55,11.21c.22.38.07.66-.02.93-.23.71-.5,1.4-.98,1.98-.56.66-1.32,1.01-2.07,1.38-.13-.04-.17-.11-.08-.21.85-.95,1.57-2.02,2.32-3.05.25-.35.5-.7.83-1.03h0ZM11.29,9.71c-.01.15-.06.29-.04.42.1.87.35,1.7.73,2.49.13.28.29.55.48.79.58.73,1.18,1.44,1.78,2.16.03.03.08.06.12.09.04.02.1.05.14.03.11-.03.13-.12.06-.23-.35-.58-.93-.98-1.2-1.62-.27-.61-.56-1.21-.85-1.82-.25-.56-.51-1.12-.76-1.68-.11-.23-.2-.47-.47-.62h0ZM25.93,7.52c-.41.25-.54.62-.71.96-.52,1.11-1.03,2.22-1.52,3.36-.24.58-.42,1.21-.62,1.81,0,.03.03.1.07.12.03.02.09.04.12.02.38-.13.74-.3.94-.66.49-.89,1.08-1.74,1.19-2.82.02-.2.12-.38.14-.57.1-.73.36-1.43.38-2.23h0ZM25.47,15.86c-.73.6-1.37,1.12-2.02,1.67.63.35.69.35,1.01.34.7,0,1.4-.05,2.1,0,1.01.07,1.87-.23,2.67-.76.05-.04.04-.16.05-.24-.09-.04-.18-.1-.28-.1-1-.11-1.97-.47-2.98-.27-.05.02-.18-.08-.24-.15-.1-.12-.17-.26-.31-.48h0ZM15.9,5.43c.01.21.05.36.02.5-.52,2.68-.36,5.37.16,8.08.02.16.08.3.09.45.01.1.02.22-.02.3-.07.11-.18.22-.3.29-.04.02-.19-.08-.23-.16-1.25-2.16-1.49-4.41-.89-6.71.22-.81.57-1.57.87-2.35.05-.13.17-.23.29-.39h0ZM19.36,3.71c.57.92.62,1.69.75,2.42.12.7.12,1.41.04,2.11-.25,2.25-.97,4.36-2.08,6.29-.12.22-.28.39-.54.48-.04.01-.1.03-.14,0-.04-.02-.08-.09-.08-.13,0-.14,0-.29.04-.44.18-.46.35-.91.54-1.37.71-1.7,1.15-3.48,1.37-5.32.1-.84.07-1.7.09-2.55.01-.4,0-.8,0-1.48h0ZM8.24,17.6c.31-.04.66-.08,1-.13.03,0,.05-.07.05-.11s-.01-.1-.04-.13c-.59-.4-1.2-.79-1.73-1.29-.23-.23-.53-.31-.85-.32-.34-.02-.71-.08-1.05-.05-.95.07-1.88.23-2.73.67-.3.16-.6.35-.78.65-.08.12-.15.28-.13.4.02.07.23.14.37.16.14.02.3,0,.44-.03,1.53-.3,3.09-.21,4.65.04.25.05.5.09.79.13h0ZM18.44,17.36c0-.13-.03-.25.01-.3.24-.25.58-.43.93-.34.54.12.99,0,1.43-.24.73-.39,1.46-.79,2.19-1.22,1.53-.89,2.92-1.97,4.08-3.31.34-.4.75-.77,1.16-1.12.14-.12.36-.17.52.09-1.47,1.69-2.94,3.38-4.64,4.87-.99.85-2.14,1.37-3.42,1.63-.73.15-1.49.02-2.25-.05h0ZM13.22,16.41c-.12.09-.23.24-.33.22-1.68-.25-3.25-.83-4.49-2.1-.47-.48-.91-1-1.29-1.54-.79-1.12-1.22-2.37-1.29-3.71-.01-.07.06-.2.11-.22.09,0,.22.04.28.1.96,1.07,1.93,2.14,2.87,3.23.64.75,1.32,1.45,2.06,2.1.7.6,1.37,1.26,2.08,1.92h0ZM13.58,12c-.3-.32-.46-.7-.36-1.1.1-.35.08-.69.02-1.04-.19-1.31-.44-2.61-.53-3.9-.09-1.25.01-2.49.67-3.61.09.11.19.16.2.23.09.5.18,1,.24,1.5.09.8.25,1.59.53,2.36-.15.53-.35,1.04-.45,1.58-.19.98-.38,1.95-.31,2.97.03.35-.02.7-.05,1.04.04.01.07.02.11.03l-.08-.05ZM23.01,7.68c.27-.14.4-.21.54-.26.27-.08.43,0,.6.3.06.09.1.18.17.31.1-.1.23-.17.28-.28.35-.71.7-1.42,1.04-2.13.17-.36.33-.72.51-1.06.1-.18.23-.32.46-.31.2,0,.42.23.51.51.12.35.13.71.08,1.05-.12.74-.25,1.48-.4,2.21-.21,1.03-.44,2.04-.66,3.06,0,.04.04.09.08.17.12-.08.27-.13.36-.22.27-.29.52-.59.78-.89.41-.49.96-.69,1.6-.6.45.06.89.21,1.33.33.15.04.29.28.29.49,0,.26-.02.53-.27.65-.55.26-.96.69-1.36,1.12-.87.93-1.72,1.89-2.57,2.84-.05.07-.09.19-.08.27.01.06.12.17.19.17,1.16.17,2.31.3,3.46.5.49.09.97.3,1.45.48.13.05.24.19.35.3.12.11.19.44.09.56-.09.11-.21.21-.33.26-.14.05-.3.04-.45.03-.31-.03-.6.04-.86.19-.09.05-.18.09-.26.14-2,1.12-2.1,1.02-4.12.97-.25,0-.51-.04-.76-.02-.81.1-1.61-.03-2.41-.2-.6-.14-1.19-.18-1.8-.16-.76.03-1.51-.02-2.28-.04-.24,0-.51-.05-.74,0-.52.14-.99.35-1.6.16-.47-.15-1-.07-1.5-.09-.95-.05-1.91-.23-2.86-.03-.04,0-.1.03-.14.01-.81-.3-1.59-.01-2.39,0-.75.02-1.52.02-2.26-.11-2.1-.36-4.12-.11-6.12.36-.19.05-.38.07-.58.09-.2.01-.45-.42-.36-.58.07-.13.13-.27.23-.38.3-.39.65-.74.9-1.16.51-.86,1.32-1.3,2.25-1.57.91-.25,1.82-.51,2.79-.49.15,0,.28-.19.21-.3-.85-1.49-1.3-3.12-1.77-4.74-.29-.99-.23-2-.07-3,.02-.09.1-.17.16-.25.14-.19.52-.2.67-.03.03.04.08.08.1.12.36.87,1.09,1.49,1.61,2.24.49.68,1.09,1.26,1.76,1.74.63.46,1.31.83,1.78,1.76.08-.4.13-.52.11-.63-.12-.7-.25-1.4-.39-2.1-.16-.88.03-1.71.24-2.52.03-.11.2-.23.33-.25.12-.02.34.04.41.13.21.28.37.59.55.9.24-.16.15-.38.15-.55,0-.8-.03-1.62-.05-2.42-.04-1.25.29-2.38.9-3.41.25-.43.54-.82.83-1.22.1-.14.43-.09.54.08.09.17.21.36.23.55.04.41.03.8.03,1.21,0,.91.02,1.81.39,2.73.12-.06.27-.09.34-.19.24-.37.44-.77.68-1.14.1-.16.25-.29.4-.42.11-.1.49,0,.53.15.08.29.19.59.18.89-.03.6-.14,1.19-.21,1.79-.04.3-.09.6-.15.89-.44,1.98-.19,4,.02,6.02,0,.08.09.18.16.21.07.02.17-.04.25-.09.04-.02.04-.09.06-.13.86-2.13,1.36-4.35,1.38-6.7.01-1.06.06-2.12.08-3.18,0-.61-.03-1.2-.03-1.82,0-.15,0-.31.07-.43.06-.12.18-.26.3-.28.12-.02.28.08.39.16.07.05.11.17.14.26.07.14.12.29.17.44.27.87.54,1.76.82,2.63.26.83.35,1.69.52,2.53,0,.08.13.13.22.19.02.01.08-.02.11-.05.03-.04.06-.07.08-.11.31-.79.52-1.61.64-2.46.12-.79.2-1.59.3-2.38.02-.15.07-.31.15-.42.08-.11.24-.23.35-.21.12.01.3.16.33.28.07.29.12.6.1.9-.09,1.4-.01,2.82-.21,4.21-.05.44-.04.9-.07,1.49Z"/>
  </g>
</svg>