<?xml version="1.0" encoding="UTF-8"?>
<svg id="Layer_2" data-name="Layer 2" xmlns="http://www.w3.org/2000/svg" viewBox="0 0 37.89 13.36">
  <defs>
    <style>
      .cls-1 {
        fill: #753d22;
        fill-rule: evenodd;
      }
    </style>
  </defs>
  <g id="Layer_2-2" data-name="Layer 2">
    <g>
      <path class="cls-1" d="M4.1,11.76c-.4.4-3.65,1.79-4.05,1.38-.4-.39,1.34-2.04,1.74-2.44,1.35-1.35,3.75-2.84,5.58-4.24,2.3-1.76,4.77-3.46,6.86-4.82,5.43-3.54,8.39-.86,13.6,3.32,2.17,1.75,4.79,4.36,8.02,6.3.48.3,2.28,1.38,1.99,1.86-.29.48-2.3-.43-2.78-.72-3.33-2.01-5.94-4.11-8.18-5.9-4.5-3.62-6.33-5.63-10.53-2.89-2.04,1.33-4.47,3-6.73,4.73-1.75,1.34-4.22,2.11-5.53,3.41Z"/>
      <path class="cls-1" d="M8,7.34c-.16,0-.29-.15-.29-.31,0-.16.14-.29.31-.28.81.03,1.6.05,2.34.06.73.01,1.43,0,2.08-.04.92-.05,1.87-.08,2.82-.09.95-.01,1.91,0,2.87,0,.16,0,2.08.14,2.08.3,0,.17-1.92.3-2.08.3-.96,0-1.92-.02-2.86,0-.94.01-1.87.04-2.79.09-.65.04-1.37.05-2.12.04-.76,0-1.55-.04-2.35-.06h0ZM1.11,12.85c-.17,0-.3-.12-.31-.28,0-.17.12-.3.29-.31,2.03-.08,4.47.11,6.65.29,1.66.13,3.17.25,4.21.23l10.99-.2c.17,0,2.08.12,2.08.29s-1.91.31-2.07.31l-10.99.2c-1.09.02-2.61-.1-4.27-.23-2.17-.17-4.61-.36-6.59-.28h0ZM9.73,6c-.16,0-.29-.15-.28-.32,0-.16.15-.29.32-.27.43.03.82.05,1.18.06.36.01.7.02,1,.01h.02l7.49-.14c.17,0,2.08.12,2.08.29s-1.91.3-2.07.3l-7.51.14h0c-.32,0-.66,0-1.03-.01-.38,0-.79-.04-1.2-.06h0ZM2.94,11.37c-.16,0-.29-.14-.28-.31,0-.16.15-.29.31-.28,1.32.08,2.62.17,3.91.26,2.98.21,5.96.43,8.96.43h3.97c.16,0,2.08.14,2.08.3s-1.92.3-2.08.3h-3.97c-3,0-6-.22-9-.43-1.31-.09-2.63-.19-3.91-.26h0ZM11.58,4.65c-.17,0-.29-.14-.28-.31,0-.16.14-.29.31-.28.72.04,1.42.07,2.12.09.68.02,1.39.03,2.12.03h4.3c.17,0,2.08.13,2.08.3s-1.92.3-2.08.3h-4.3c-.68,0-1.4-.01-2.13-.04-.72-.02-1.43-.05-2.13-.09h0ZM5.98,8.93c-.17,0-.29-.14-.29-.3,0-.16.14-.3.3-.29,1.62.04,3.24.05,4.86.05,1.57.01,3.15.03,4.72.06h.02c.25,0,.52,0,.77,0h.79c.16,0,2.08.13,2.08.3s-1.92.29-2.08.29h-.79c-.27,0-.54,0-.8,0h0c-1.57-.04-3.15-.04-4.71-.06-1.63,0-3.26-.02-4.87-.05h0ZM16.18,1.77c-.17,0-.3-.13-.3-.3,0-.16.14-.3.3-.3,1.02.01,2.07,0,3.1-.02h.76c.16-.01.3.12.3.28s-.13.3-.29.31h-.76c-1.04.03-2.08.04-3.12.03h0ZM4.72,9.94c-.16-.01-.29-.15-.28-.31,0-.17.15-.29.31-.29.98.05,1.96.12,2.92.18,2.23.14,4.43.28,6.4.27.56,0,1.13,0,1.7,0h1.71c.16.01,2.08.14,2.08.31s-1.92.29-2.08.29h-1.71c-.56,0-1.13,0-1.7,0-2,.01-4.21-.12-6.44-.27-.98-.06-1.97-.12-2.92-.17h0ZM13.87,3.1c-.16,0-.3-.13-.3-.29,0-.17.13-.3.3-.3h.19c1.83-.01,3.68,0,5.54.02h1.57c.16.02,2.08.15,2.08.31,0,.17-1.91.29-2.08.29l-1.58-.02c-1.85-.02-3.71-.04-5.53-.02h-.19Z"/>
    </g>
  </g>
</svg>