<?xml version="1.0" encoding="UTF-8"?>
<svg id="Layer_2" data-name="Layer 2" xmlns="http://www.w3.org/2000/svg" viewBox="0 0 164.56 63.65">
  <defs>
    <style>
      .cls-1 {
        fill: #753d22;
        fill-rule: evenodd;
      }
    </style>
  </defs>
  <g id="Layer_2-2" data-name="Layer 2">
    <path class="cls-1" d="M48.47,19.81c-2.1,2.18-4.16,4.41-6.33,6.52-1.92,1.88-3.38,4.01-3.96,6.66-.15.68-.46,1.3-.7,1.96-.19.52-.53,1.08-.55,1.64-.08,2.07-.86,3.87-1.55,5.79-.95,2.69-1.78,5.36-1.87,8.25-.04,1.32-.42,2.58-.76,3.85-.12.44-.57.76-.92,1.02-.44.34-1.45-.19-1.48-.74-.03-.36,0-.72.07-1.07.46-2.67.93-5.32,1.4-7.99-.26-.19-.48-.25-.65.09-.61,1.22-1.17,2.46-1.76,3.7-.22.47-.44.95-.75,1.37-.36.52-1.01.68-1.51.24-.31-.28-.64-1-.46-1.41.81-1.88,1.66-3.76,2.66-5.55.47-.84,1.23-1.51,1.92-2.15,1.6-1.47,2.95-3.03,3.13-5.29.07-.8.5-1.48.75-2.23.16-.48.29-.97.42-1.47-1.71.22-3.56.89-4.48,2.42-.85,1.42-2.02,2.57-3.14,3.78-1.4,1.5-2.53,3.21-3.65,4.91-.39.6-.48,1.46-.64,2.14-.14.59-.05,1.24-.31,1.82-.69,1.56-.53,3.21-.16,4.83.3,1.34.44,2.71.48,4.07.02.64-.34,1.2-.63,1.74-.15.27-.72.29-1,.21-.28-.08-.73-.36-.8-.66-.14-.53-.18-1.08-.19-1.64-.02-.89.22-1.65-.27-2.46-.5-.16-.57.13-.82.49-.59.85-1.08,1.75-1.71,2.56-.4.52-1.14.45-1.58.02-.26-.26-.49-.77-.42-1.13.08-.45.39-.8.61-1.19.9-1.55,1.88-3.05,2.68-4.65.56-1.12,1.06-2.31,1.29-3.55.3-1.64.77-3.22,1.69-4.63.12-.19.24-.53.34-.83-.35.1-.79.24-.92.35-1.13.95-2.29,1.86-3.32,2.91-1.57,1.61-3.01,3.32-4.55,4.95-1.04,1.09-2.23,2.14-2.85,3.54-.15.33-.4.62-.67.87-.45.42-.9.6-1.49.31-.62-.3-.85-1.15-.45-1.72.89-1.27,1.77-2.55,2.8-3.7,2.06-2.32,4.24-4.54,6.33-6.83,1.44-1.58,3.09-2.71,5.14-3.37,2.35-.76,4.6-1.84,5.81-4.11.78-1.46,2.15-2.44,3.63-3.11.93-.42,1.81-1.04,2.53-1.77,1.55-1.56,3.17-3.13,4-5.22.26-.66.82-1.25,1.26-1.82-.66-.19-1.15.02-1.8.27-.8.31-1.39.88-1.67,1.69-.61,1.79-1.84,3.13-3.15,4.44-1.5,1.5-3.68,2.08-5.61,2.82-1.58.61-2.96,1.41-4.09,2.68-1.15,1.3-2.39,2.52-3.67,3.7-1.13,1.04-2.5,1.49-4.03,1.27-1.1-.16-1.78.23-2.44,1.07-2.13,2.69-4.29,5.36-6.45,8.04-.49.61-.96,1.23-1.51,1.79-1.43,1.45-2.79,2.98-3.41,4.96-.11.35-.33.69-.6.93-.22.2-.68.26-.96.15-.27-.1-.64-.46-.68-.75-.07-.46-.04-.93.07-1.38.4-1.55,1.15-2.95,2.29-4.08,2.81-2.79,5.11-6,7.48-9.16.88-1.17,1.87-2.26,2.84-3.36.73-.83,1.64-1.13,2.72-.84,1.43.38,2.36-.14,3.38-1.07,1.4-1.29,2.79-2.6,4.14-3.95,1.2-1.19,2.57-1.99,4.2-2.46,1.88-.54,3.69-1.36,5.03-2.81.8-.87,1.5-1.8,1.88-2.94.78-2.37,2.62-3.48,5.02-3.71,1.5-.15,2.74-.72,3.94-1.59,1.95-1.42,3.71-3.06,4.75-5.27.33-.71.78-1.38,1.32-1.95,1.39-1.46,3.22-1.17,4.75-.08.6.43,1.11.95,1.62,1.46.88.89,1.93,1.33,3.18,1.29.39,0,.78.01,1.17-.03,1.96-.21,3.48.63,4.7,2.13.5.64.98,1.28,1.44,1.94,1.68,2.47,3.74,4.52,6.37,5.98.64.36,1.23.79,1.86,1.18,1.34.85,2.42,1.99,2.73,3.58.28,1.43,1,2.38,2.25,3.11.46-.46.93-.9,1.38-1.36.67-.68,1.3-1.4,2-2.04.97-.88,1.95-1.28,3.27-.9.87.25,1.46-.05,1.96-.75.64-.91,1.22-1.86,1.88-2.76,1.18-1.59,2.3-3.22,3.6-4.71,1.31-1.51,2.77-2.77,4.61-3.59,1.95-.87,3.41-2.25,4.31-4.19.86-1.87,2.27-3.34,3.96-4.5,1.07-.74,1.91-1.63,2.51-2.78.59-1.15,1.2-2.28,1.89-3.36.65-1.03,1.79-.73,2.52.03,1.13,1.18,1.9,2.55,2.52,4.05.33.78.64,1.6.83,2.44.33,1.53,1,2.57,2.4,3.35,1.21.67,2.12,1.75,2.45,3.1.33,1.29,1.25,2.1,2.39,2.72,1.96,1.07,3.52,2.56,4.76,4.4.61.9,1.24,1.81,1.96,2.63,1.32,1.5,2.38,3.19,2.79,5.16.29,1.39,1.11,2.39,2.32,3.12.36.21.68.49,1.04.7,3.47,2.15,6.16,5.06,8.64,8.27,1.41,1.82,2.88,3.32,5.07,4.17,1.84.71,3.17,2,3.92,3.82.59,1.41,1.21,2.8,1.66,4.26.43,1.37,1.19,2.34,2.41,3.12,2.01,1.3,3.78,2.92,5.33,4.75.32.37.76.78.92,1.25.15.41.15,1.04-.15,1.38-.44.49-1.25.23-1.61-.22-1.99-2.47-4.59-4.37-7.14-6.23-1.34-.98-1.84-2.3-2.32-3.8-.37-1.16-.77-2.32-1.23-3.44-.58-1.43-1.64-2.44-3.13-2.9-2.16-.66-3.51-2.08-4.88-3.78-1.64-2.04-3.31-4.05-5.03-6.03-.51-.6-1.21-1.09-1.86-1.53-1.12-.74-2.24-1.5-3.45-2.11-1.66-.85-2.79-2.09-3.09-3.96-.6-3.76-3.59-6.74-6.03-9.47-.79-.88-1.99-1.51-2.99-2.13-1.16-.73-2.17-1.66-2.55-3.02-.38-1.4-1.34-2.29-2.61-2.94-1.58-.8-2.64-1.98-2.66-3.82-.02-1.06-.21-1.77-1.06-2.43-.4.26-.97.52-1.24.89-2.1,2.9-4.16,5.83-5.1,9.34-.52,1.91-1.22,3.77-1.92,5.61-.28.74-.74,1.39-1.21,2.02-1.49,1.98-2.63,4.16-3.53,6.46-.69,1.75-1.43,3.49-2.24,5.19-.59,1.23-1.27,2.44-2.03,3.59-.98,1.47-2.2,2.83-2.67,4.58-.08.29-.23.61-.49.76-.4.22-.86.44-1.33.42-.78-.04-.98-.94-.85-1.58.32-1.49.85-2.87,1.96-3.96,1.65-1.65,2.75-3.62,3.59-5.78.96-2.47,1.85-5.03,3.32-7.25,2.34-3.58,3.99-7.5,5.38-11.53.2-.6.46-1.18.71-1.77-.32-.19-.26.06-.47.33-.98,1.19-1.9,2.44-2.91,3.61-1.24,1.42-2.27,2.94-2.73,4.79-.45,1.79-1.35,3.38-2.53,4.8-1.15,1.4-1.99,2.91-2.3,4.7-.31,1.8-1.19,3.31-2.58,4.49-1.46,1.25-2.36,2.82-2.79,4.68-.47,2.01-1.02,4.01-1.56,6.01-1.08,3.98-2.48,7.88-4.3,11.58-.2.4-.62.71-1.01.93-.27.14-.78.03-1.03-.12-.25-.16-.56-.56-.53-.87.04-.45.19-.88.39-1.28,2.2-4.46,3.77-9.19,4.82-14.04.2-.93.52-1.83.77-2.74.19-.65.35-1.3.52-1.95-.33-.02-.77-.05-1,0-1.8.47-2.95,1.64-3.92,3.15-.87,1.36-1.52,2.85-2.21,4.3-1.17,2.45-2.3,4.91-2.88,7.58-.19.85-.81,1.61-1.4,2.23-1.18,1.24-2.24,2.53-2.51,4.27-.05.37-.25.78-.56,1.01-.3.22-.81.25-1.16.19-.29-.05-.63-.55-.64-.84-.05-1.45.22-2.87,1.12-4.04.62-.81,1.34-1.56,1.92-2.41.47-.69.84-1.45,1.16-2.22.06-.15-.03-.51-.09-.76-2.19-.07-3.46,0-4.53,2.11-1.1,2.15-2.45,4.16-4.09,5.94-.63.69-1.08,1.54-1.66,2.27-.34.42-.74.79-1.18,1.09-.25.16-.79.04-1.03-.12-.24-.16-.52-.58-.48-.89.06-.44.21-.89.46-1.27.72-1.07,1.41-2.17,2.26-3.14,1.46-1.67,2.72-3.48,3.63-5.51.69-1.55,2-2.35,3.63-2.68,2.4-.49,4.45-1.62,5.34-4.01.93-2.47,2.63-4.45,4.4-6.37.74-.8,1.62-1.42,2.62-1.88,1.89-.87,3.7-1.9,5.59-2.76,1.3-.59,2.14-1.59,2.2-3.04.07-1.52.78-2.63,1.62-3.82.79-1.11,1.54-2.26,2.29-3.4.47-.72.72-1.46.72-2.31-1.32.62-1.78.94-2.67,2.24-1.07,1.55-2.05,3.15-3.09,4.71-.43.65-.88,1.29-1.39,1.88-.84.96-1.85,1.43-3.15,1.18-1.19-.22-2.03.14-2.87.95-.5.48-.95.99-1.42,1.5-1.7,1.83-3.44,3.63-5.09,5.5-.95,1.09-1.82,2.25-2.6,3.47-.72,1.12-1.61,2.07-2.69,2.87-1.1.81-2.24,1.16-3.62.85-1.07-.23-1.89,0-2.72.67-1.56,1.27-3.44,2.4-4.22,4.36-.13.34-.32.76-.68.92-1.54.74-1.81,2.24-2.51,3.63-1.04,2.06-2.17,4.08-3.32,6.08-.31.53-.76.99-1.22,1.39-.22.21-.77.15-1.02.02-.25-.15-.59-.57-.55-.87.06-.53.18-1.07.44-1.54.59-1.04,1.32-2,1.89-3.05.68-1.27,1.32-2.56,1.86-3.89.61-1.53,1.53-2.88,2.48-4.21,1.64-2.29,4.02-3.82,6.05-5.72.93-.87,1.98-1.03,3.12-.43,1.06.54,1.83.38,2.69-.36.43-.37.91-.78,1.17-1.28,1.24-2.39,3.18-4.29,4.93-6.31.36-.42.67-.91.99-1.38-1.38-1.08-2.22-2.45-2.62-4.16-.25-1.07-1.01-1.83-1.9-2.42-1.12-.75-2.23-1.53-3.37-2.25-2.04-1.28-3.83-2.82-5.06-4.92-.54-.93-1.34-1.75-2.07-2.54-.42-.46-1.08-.91-1.74-.77-2.57.53-4.88-.24-7.02-1.64-.29.3-.74.7-.85,1.03-.7,2.11-1.39,4.22-1.93,6.39-.62,2.49-1.81,4.76-3.76,6.45-1.97,1.71-2.81,3.87-3.19,6.4-.22,1.48-.5,2.94-1.25,4.26-.86,1.5-1.01,3.27-1.02,4.96-.01,1.71-.27,3.35-1.17,4.83-.43.7-.5,1.63-.82,2.39-.36.87-.79,1.71-1.28,2.51-.33.55-1.02.59-1.54.29-.55-.31-.76-.85-.54-1.43.64-1.69,1.24-3.38,1.92-5.04.56-1.35.89-2.77.76-4.24-.15-1.74.23-3.36,1.08-4.87.8-1.42,1.2-2.98,1.42-4.58.17-1.21.56-2.36.87-3.54.33-1.27,1.29-2.08,2.22-2.92,2.14-1.94,3.63-4.25,4.08-7.13.03-.17.03-.34.03-.51h0ZM100.56,45.03c.7.51,1.02,1.03.89,1.92-.42,2.57-.82,5.13-1.23,7.7-.1.6.08,1.07.59,1.41.54.35,1.48.15,1.76-.46.29-.63.54-1.29.62-1.99.22-1.72.18-3.49.54-5.18.37-1.75.23-3.3-.7-4.86-.45-.76-.74-1.58-.45-2.45.38-1.1.18-2.13-.57-3.04-.78-.94-.73-1.78-.27-2.85.24-.54.55-1.04.84-1.56,1.58-2.93,3.15-5.86,4.74-8.78,1.22-2.25,1.78-4.73,1.93-7.27.02-.3.01-.62-.13-.89-.14-.27-.45-.57-.74-.67-.26-.09-.87-.06-.99.23-.34.88-.71,1.75-.85,2.69-.2,1.33-.29,2.74-.96,3.93-1.83,3.27-3.58,6.59-5.45,9.84-1.45,2.51-1.94,4.63,0,7.06-.25,1.25-.77,2.37-1.71,3.25-2.83,2.67-3.72,6.28-5.12,9.75-.3.73-.26,1.62-.23,2.4.02.37.64.77.95.9.28.13.72-.04.96-.22.24-.18.43-.48.45-.78.19-2.63,1.71-4.77,2.53-7.21.45-1.33,1.35-2.26,2.6-2.87h0ZM107.94,44.18c-.07,1.6-.24,3.19-.2,4.79.06,2.09-.49,4.04-1.26,5.96-.13.33-.29.63-.38.98-.16.65.5,1.34,1.06,1.56.54.21,1.15.18,1.51-.33.26-.36.44-.78.55-1.22.73-2.91,1.64-5.51,1.04-8.57-.06-.32-.09-.67-.03-1,.53-3.02-.59-6.09-1.56-8.9-.31-.89-.5-1.81-.14-2.73.7-1.79,1-3.82,2.16-5.4.17-.24.32-.57.27-.87-.06-.36-.23-.89-.56-1.07-.32-.18-1-.14-1.27.12-.55.55-1.12,1.16-1.42,1.88-.8,1.99-1.46,4.02-2.18,6.04-.25.71-.22,1.37.23,1.99,1.54,2.13,1.34,4.44,2.2,6.75h0ZM48.64,33.42v-.06l-.04-.05c-.26-.32-.31-.55-.7-.82-.69-.46-1.26.26-1.4.9-.08.35-.16.7-.17,1.06-.02,2.18-.54,4.22-1.31,6.26-.54,1.44-.57,3.01-.35,4.52.14.98.11,1.97.23,2.95.18,1.48-.06,2.85-1.15,3.93-.26.26-.48.6-.56.96-.07.29.08.78.34.94.32.21.83.38,1.21.33.39-.06.75-.32,1-.61.85-.94,1.49-2.03,1.58-3.31.13-1.69.24-3.39.03-5.08-.2-1.62-.2-3.29.43-4.83.93-2.25.96-4.71.86-7.11h0ZM121.61,43.53c-.04-.54-.06-1.08-.12-1.61-.05-.45-.9-.83-1.27-.58-.29.19-.74.41-.82.78-.41,1.83-.52,3.47.67,5.08.86,1.17,1.24,2.36,1.23,3.79,0,.88-.04,1.76-.05,2.63,0,.38-.11.74.04,1.12.14.34.53.79.89.89.34.1.98-.06,1.16-.39.68-1.28.47-2.76.58-4.15.11-1.52-.15-2.82-1.13-4.03-.86-1.06-1.16-2.19-1.17-3.53h0ZM52.03,47.73c0-.16,0-.32-.1-.48-.15-.25-.37-.57-.66-.69-.29-.11-.69-.08-.97.05-.27.13-.57.41-.6.71-.31,2.86-.6,5.73-.82,8.6-.03.36.6.88.92.97.36.1.87-.12,1.13-.37.28-.26.43-.66.47-1.04.29-2.52.55-5.03.82-7.56l.02-.18-.17-.03s-.02,0-.03,0h0ZM50.16,41.19v.08s.06.05.06.05c.35.34.49.64.97.9.59.32,1.39-.33,1.47-.93.06-.35.05-.72.05-1.08-.02-1.51-.05-3.01-.08-4.52,0-.22-.03-.46-.17-.63-.18-.24-.43-.54-.72-.64-.25-.09-.86-.08-.99.2-.32.7-.7,1.41-.75,2.2-.09,1.44.09,2.94.15,4.38h0ZM135.24,52.64c.07.62.13,1.26.24,1.89.12.65.86,1.18,1.51,1.19.69.01,1.3-.34,1.33-1.07.07-1.55-.56-3.03-1.42-4.29-.32-.48-.94-.87-1.52-.59-.34.16-.57.62-.56.98.02.6.27,1.3.41,1.88h0ZM114.3,51.48c.02-.12.01-.29-.05-.51-.16-.58-.5-1.1-1.18-1.06-.36.02-.88.29-1,.65-.48,1.49-.61,3-.26,4.53.05.21.18.38.28.56.27.46,1.25.76,1.61.3.28-.34.6-.73.64-1.19.08-1.08,0-2.21-.05-3.29h0ZM87.81,54.67l.05.03h.06c.21,0,.46.06.65-.06.65-.39,2.43-4.63,2.38-5.42-.03-.45-.78-.88-1.19-.72-.26.1-.66.18-.79.46-.68,1.44-1.32,2.9-1.92,4.38-.12.28.1.68.24.93.11.19.35.27.53.4h0ZM52.01,27.39l-.02-.11-.1-.04c-.28-.11-.78-.49-1.07-.36-1.42.64-2.17,1.8-2.21,3.35-.01.36.53.78.82.95.25.14.83.05.99-.2.59-.91,1.12-1.86,1.64-2.81.11-.2-.02-.56-.05-.78h0ZM114.56,35.61v-.09s-.06-.07-.06-.07c-.22-.22-.42-.54-.71-.67-.26-.12-.77-.19-1.01,0-1.07.86-1.33,2.09-1.19,3.4.03.3.43.71.71.77.33.08.98.14,1.23-.13.85-.88.92-2.07,1.02-3.21h0ZM130.52,52.87c-.02-.1-.04-.19-.05-.28-.17-.73-.68-1.46-1.47-1.59-.88-.14-1.08.93-1.01,1.58.01.1.02.19.04.28.12.76.68,1.89,1.63,1.7.82-.16.98-.96.86-1.69h0ZM127.2,42.84v.04s0,.05,0,.05c.15.35.17.69.45,1,.24.28.76.6,1.14.59.36-.01.87-.36.92-.74.07-.54-.06-1.13-.22-1.64-.19-.58-.62-1.07-1.29-.94-.37.07-.66.42-.85.72-.16.25-.12.63-.15.93h0ZM114.96,32.7l.13.19.16-.16c.92-.93,1.38-1.89,1.12-3.2-.08-.36-.56-.72-.87-.88-.25-.14-.79.07-.93.31-.79,1.34-.46,2.51.4,3.74h0ZM135.23,46.37l.1-.05v-.12c0-.7-.61-1.52-1.36-1.44-.35.04-.8.34-.88.7-.16.67.67,1.35,1.3,1.31.39-.03.54-.25.83-.41Z"/>
  </g>
</svg>