<?xml version="1.0" encoding="UTF-8"?>
<svg id="Layer_2" data-name="Layer 2" xmlns="http://www.w3.org/2000/svg" viewBox="0 0 32.33 30.22">
  <defs>
    <style>
      .cls-1 {
        fill: #753d22;
        fill-rule: evenodd;
      }
    </style>
  </defs>
  <g id="Layer_2-2" data-name="Layer 2">
    <path class="cls-1" d="M18.44,28.17l.05-.07h-.08s.03.07.03.07h0ZM20.49,23.29c-.02-.38.12-.71.53-.84.3-.1.56-.36.89-.17.26.14.3.54.12,1.02-.13.35-.27.7-.54.97-.15.15-.57.12-.73-.05-.23-.26-.28-.57-.28-.94h0ZM23.78,22.01c-.1-.02-.23-.01-.3-.07-.18-.11-.34-.26-.49-.4-.17-.17-.18-.44-.02-.57.45-.37.91-.73,1.38-1.07.08-.06.2-.06.3-.08.25-.06.57.19.55.44-.02.21-.04.45-.15.61-.29.44-.67.83-1.13,1.11-.05.03-.1.03-.15.04h0ZM21.41,15.18c.29,0,.53.19.57.38.03.16.09.32.08.47-.03.5-.15.96-.41,1.38-.05.09-.12.2-.21.23-.14.06-.3.1-.45.08-.07,0-.15-.16-.16-.26-.02-.15-.01-.32.02-.47.07-.39-.1-.6-.45-.73-.09-.03-.16-.14-.23-.21-.11-.14-.03-.46.12-.57.38-.25.8-.28,1.12-.3h0ZM24.52,16.16c-.2-.09-.39-.16-.56-.26-.08-.05-.2-.17-.19-.23.02-.14.08-.33.19-.4.32-.2.67-.34,1.06-.33.27,0,.53.06.76.22.16.11.29.38.25.55-.19.7-.57,1.26-1.17,1.68-.16.11-.45.08-.58-.07-.11-.12-.19-.27-.12-.44.11-.24.23-.47.36-.73h0ZM11.67,23.87c.32.06.58.09.84.15.17.05.31.38.24.54-.23.56-.6,1-1.09,1.33-.09.06-.37,0-.43-.11-.1-.19-.23-.37-.28-.56-.16-.73-.29-1.46-.43-2.19-.03-.19.14-.44.33-.49.17-.05.41.09.49.3.11.31.19.61.33,1.03h0ZM16.85,24.77c.25,0,.36-.18.48-.37.15-.21.32-.42.5-.62.12-.12.45-.08.58.08.11.13.17.28.08.44-.32.51-.64,1-.97,1.49-.06.08-.16.14-.25.22-.29.25-.81.22-1-.09-.29-.46-.54-.93-.77-1.42-.09-.2.02-.44.21-.57.11-.07.36-.1.43-.03.26.26.47.57.7.86h0ZM16.88,13.74c-.4.26-.74.5-1.1.71-.06.04-.21-.03-.29-.09-.07-.07-.14-.2-.13-.28.02-.16.08-.32.17-.45.38-.53.87-.95,1.44-1.27.19-.11.39-.18.59-.26.14-.06.49.1.55.26.05.14.13.31.11.46-.07.63-.17,1.26-.29,1.9-.03.12-.22.24-.36.28-.2.06-.47-.1-.52-.28-.07-.31-.11-.62-.17-.99h0ZM22.3,12.16c-.29-.05-.53-.09-.77-.16-.16-.04-.3-.17-.27-.34.03-.14.1-.33.21-.39.56-.31,1.17-.52,1.81-.58.16-.01.31.04.47.06.23.05.44.39.37.62-.06.2-.12.42-.23.59-.44.67-1.02,1.23-1.64,1.73-.08.07-.3.04-.43-.01-.2-.07-.27-.36-.16-.54.11-.18.25-.34.37-.52.09-.13.16-.28.27-.47h0ZM19.39,9.21c-.34.03-.5.26-.72.41-.18.12-.36.25-.56.3-.12.03-.3-.08-.4-.17-.06-.04-.04-.2-.04-.3,0-.05.02-.11.05-.15.48-.6,1.04-1.09,1.76-1.37.19-.07.42-.07.63-.06.43.02.68.37.59.77-.15.74-.39,1.45-.77,2.11-.08.13-.3.23-.41.14-.11-.09-.24-.22-.28-.35-.09-.33.09-.62.19-.93.04-.12-.02-.27-.04-.41h0ZM15.21,9.08c-.13.28-.24.55-.39.8-.04.07-.19.12-.27.1-.09-.01-.19-.11-.23-.2-.06-.15-.12-.31-.1-.46.04-.31.08-.64.2-.94.29-.7.69-1.32,1.2-1.89.14-.15.42-.24.58-.17.21.09.33.28.36.5.03.15.06.32.02.47-.15.63-.18,1.27-.21,1.91,0,.1-.08.19-.14.28-.06.11-.34.2-.43.12-.2-.16-.39-.35-.61-.53h0ZM9.83,9.88c.16.03.28.02.38.06.67.26,1,.92.78,1.56-.2.57-.42,1.11-.84,1.56-.24.26-.6.32-.88.12-.76-.54-.99-1.31-.63-2.12.16-.35.35-.69.67-.91.17-.12.38-.2.52-.27h0ZM11.46,18.47h0c.03.16.03.32.09.47.06.14.19.26.26.4.12.2.07.42,0,.62-.09.26-.28.28-.51.25-.23-.02-.42.06-.58.22-.16.16-.17.46-.01.58.09.06.17.16.26.18.73.19,1.46.37,2.19.54.09.03.21-.04.31-.07.05-.02.11-.05.13-.09.26-.34.59-.28.85-.08.88.66,1.92.68,2.93.76.5.04.98-.14,1.2-.65.15-.35.3-.7.35-1.06.09-.7.13-1.4.14-2.11,0-.37-.08-.75-.16-1.11-.1-.46-.39-.76-.83-.91-.31-.1-.63-.19-.95-.19-.7-.02-1.4.02-2.1.04-.74.34-1.48-.18-2.22-.03-.37.07-.71.22-1.07.34-.17.2-.24.43-.25.69-.02.42-.04.84-.06,1.26,1.19-.34,2.31.11,3.46.29.57.08.96.41,1.36.77.15.13.38.17.57.28.13.09.26.2.35.31.06.07.06.19.07.29.02.2-.14.3-.29.32-.32.03-.63,0-.95,0-.12-.07-.25-.16-.38-.23-.03-.03-.12-.02-.15,0-.11.09-.08.17.09.18.15,0,.31,0,.46.02.03.04.04.11.08.14.51.25,1.02.23,1.51-.01.26-.14.29-.43.3-.7,0-.24-.1-.43-.3-.52-.34-.15-.74-.18-.98-.5-.38-.5-1.04-.55-1.48-.93-.49-.42-1.1-.37-1.65-.54-.3-.09-.63-.11-.94-.16-.58-.1-.69-.24-.78-.99l-.03.04c.11-.8.37-1.58.7-2.31.3-.64.46-1.32.6-2.01.17-.86.15-1.72-.01-2.57-.09-.46-.43-.73-.83-.92-.27-.13-.75.18-.71.46.08.48.17.95.27,1.42.21.89.06,1.73-.46,2.47-.47.67-.8,1.4-1.08,2.15-.17.46-.43.87-.76,1.24-.56.65-1.12,1.31-1.86,1.77-.18.11-.32.29-.45.45-.06.08-.12.21-.09.29.1.32.31.58.63.68.08.04.23,0,.29-.06.68-.68,1.36-1.38,2.04-2.06.06-.05.17-.06.25-.09.02.05.05.11.04.14-.42.68-.64,1.46-1.14,2.1-.03.04-.04.1-.04.15.03.09.06.22.12.28.06.07.19.13.28.12.52-.05.89-.37,1.2-.73.27-.33.48-.72.71-1.07h0ZM13.36,19.61l.11.04-.12.03v-.06h0ZM16.13,17.31c.63-.06,1.19,0,1.67.36.09.07.06.29.08.44,0,.03-.08.11-.1.1-.61-.12-1.16-.41-1.64-.9h0ZM26.16,7.93l.08.05v-.09s-.08.03-.08.03h0ZM22.44,26.5s-.08-.1-.1-.1c-.12.04-.15.13-.1.25.02.03.06.07.1.11.04-.09.07-.17.11-.26h0ZM10.42,3.81c-.05.07-.11.14-.15.22,0,.02.07.12.08.11.09-.03.17-.08.25-.13-.06-.07-.12-.13-.18-.2h0ZM29.74,19.93c-.07.02-.15.03-.15.04,0,.09-.02.21.03.25.11.09.25.16.39.2.05.01.13-.09.19-.16.01-.02-.03-.11-.06-.13-.13-.08-.27-.14-.38-.21h0ZM29.63,18.59c.21.33.51.42.79.53.17.06.44-.11.45-.32,0-.14-.07-.28-.11-.44-.39.08-.75.16-1.13.23h0ZM20.61,3.38c.54-.58.63-1.14.65-1.72,0-.05-.11-.12-.18-.17-.02,0-.1.04-.11.07-.21.53-.44,1.06-.36,1.82h0ZM21.71,4.42c.05-.02.13-.03.15-.07.29-.51.59-1.02.86-1.54.04-.08,0-.2-.03-.3-.01-.04-.07-.1-.11-.11-.1-.01-.25-.04-.28.01-.38.53-.61,1.13-.72,1.77,0,.07.09.16.13.24h0ZM24.47,3.77c-.01.05,0,.11-.04.16-.26.59-.62,1.1-1.09,1.53-.08.08-.32.05-.43,0-.11-.07-.25-.25-.23-.37.12-.7.47-1.28,1-1.75.12-.11.28-.13.44-.05.19.1.39.36.36.48h0ZM8.04,15.45c-.03.15-.04.32-.08.47-.02.1-.07.21-.14.28-.45.39-1.28.34-1.6-.11-.21-.31-.38-.66-.57-.98-.37-.65-.7-.8-1.48-.66-.27.05-.53.12-.79.18-.47.12-.73.41-.81.9-.13.83-.01,1.62.31,2.38.15.37.19.71.03,1.09-.09.21-.02.42.04.63.27.89.68,1.71,1.32,2.39.4.44.79.89,1.18,1.34.49.59,1.05,1.08,1.73,1.46.47.26.93.55,1.4.82.89.53,1.86.85,2.88,1.04.49.1.96.2,1.45.16.52-.04.89.39,1.39.4.54,0,1.09.05,1.62-.01,1.33-.16,2.65-.37,3.91-.95,2.06-.94,3.9-2.26,5.33-4.08.4-.51.83-.99,1.28-1.46.28-.3.66-.39,1.05-.25.35.13.68.32,1,.52.27.18.5.41.76.61.1.08.22.05.28-.07.02-.03,0-.1-.04-.13-.28-.25-.58-.47-.84-.73-.32-.31-.51-.69-.51-1.15,0-.43-.05-.86-.08-1.29-.03-.43.21-.68.69-.7.32,0,.65,0,.97,0,.5-.02.95-.21,1.36-.46.03-.02.07-.09.07-.13-.02-.1-.04-.22-.11-.27-.37-.25-.8-.34-1.23-.25-.58.11-1.16.26-1.74.39-.2.04-.57-.21-.62-.42-.05-.21-.08-.43-.09-.65-.06-1.19-.22-2.36-.48-3.52-.27-1.18-.8-2.23-1.5-3.2-.16-.22-.37-.39-.65-.46-.29-.06-.45-.25-.58-.5-.12-.23-.31-.44-.51-.61-.38-.3-.81-.55-1.19-.85-1.12-.87-2.34-1.53-3.68-2-.73-.26-1.45-.4-2.21-.42-.46-.01-.84.08-1.1.52-.11.19-.38.17-.56.02-.08-.07-.15-.15-.22-.23-.2-.22-.46-.32-.73-.22-1.73.58-3.5,1.1-5.03,2.17-.57.4-1.2.73-1.81,1.08-.42.25-.84.49-1.23.77-.11.07-.17.26-.2.41-.02.15.02.33.07.48.21.6-.07,1.05-.44,1.47-.22.23-.62.23-.87,0-.08-.07-.11-.18-.19-.26-.21-.23-.37-.24-.53-.06-.14.16-.31.31-.43.49-.28.39-.54.81-.79,1.22-.1.17.03.46.24.52.78.21,1.56.41,2.38.5.74.08,1.32.46,1.66,1.15.05.09.12.18.15.29.13.49.5.67.95.77.09.02.17.13.25.21h0ZM8.85,27.29c.58.16.7.35.47.71-.04.07-.18.1-.27.12-.02,0-.08-.05-.1-.08-.03-.04-.06-.1-.07-.15,0-.21,0-.42,0-.63l-.1-.06.07.08h0ZM5.8,6.76c.02-.67.04-1.32.07-1.96,0-.16.03-.34.11-.47.08-.13.22-.27.36-.29.13-.02.33.04.43.14.19.19.31.44.47.65.1.13.22.25.36.32.14.06.34.11.45.06.54-.28.99-.67,1.21-1.25.14-.35.25-.71.4-1.06.08-.2.22-.37.35-.54.18-.23.67-.25.88-.03.15.15.29.32.41.49.15.23.26.47.4.7.07.12.32.18.43.1.21-.16.44-.31.62-.51.28-.32.52-.69.79-1.03.1-.12.23-.22.35-.33.13-.12.49-.11.59.04.22.3.43.62.65.92.12.16.6.2.76.06.2-.18.38-.37.57-.56.19-.19.38-.39.58-.57.23-.2.74-.06.8.23.07.32.1.64.17.96.03.15.12.29.31.33.23.04.44.01.58-.17.55-.75,1.08-1.5,1.29-2.41.04-.15.1-.33.2-.42.1-.1.32-.2.42-.14.44.19.9.38,1.28.66.7.52,1.4,1.01,2.19,1.37.05.03.1.05.14.08,1.4.92,1.62,1.09.63,2.7-.2.32-.42.63-.62.95-.22.35-.24.56-.08.73.26.28.54.57.96.51.32-.04.61-.19.92-.29.21-.06.41-.13.62-.18.52-.13.99.32.88.84-.03.16-.06.32-.12.47-.1.2-.2.39-.34.56-.46.56-.27,1.1.08,1.64.13.2.29.31.53.3.38-.02.75-.07,1.13-.08.53,0,.88.56.66,1.04-.12.24-.26.47-.44.67-.29.32-.63.59-.92.9-.26.28-.19.91.37.99.15.02.32.02.48.05.35.08.48.32.43.74-.01.15-.05.31-.1.46.38.34.84.17,1.25.28,1.49.36,1.7.6,1.54,2.11-.05.48-.2.95-.32,1.42-.31,1.21-.8,2.35-1.48,3.4-.12.18-.25.35-.39.51-.24.28-.75.35-1.04.15-.5-.33-.97-.69-1.46-1.03-.29-.2-.61-.14-.86.17-.12.16-.26.36-.29.56-.04.37,0,.75-.02,1.13-.03.37-.08.75-.17,1.11-.05.2-.2.38-.32.55-.1.14-.45.23-.59.13-.22-.15-.43-.33-.64-.49-.28-.21-.65-.16-.84.14-.12.18-.22.38-.28.58-.14.52-.25,1.05-.41,1.56-.05.2-.2.38-.32.55-.19.26-.62.32-.87.1-.28-.25-.52-.54-.78-.81-.16-.18-.36-.2-.58-.11-.35.15-.65.37-.8.75-.17.39-.34.79-.54,1.18-.09.19-.2.38-.32.56-.18.27-.64.29-.85.05-.27-.34-.52-.7-.78-1.02-.23-.27-.51-.41-.86-.37-.21.02-.43.04-.65.09-.32.08-.58.25-.76.56-.15.28-.31.57-.49.83-.13.21-.57.22-.72.04-.35-.41-.69-.84-1.03-1.25-.18-.21-.41-.34-.69-.38-.37-.05-.75-.12-1.12-.16-.22-.01-.44.09-.55.28-.23.37-.41.77-.64,1.13-.18.25-.4.5-.61.74-.12.13-.5.08-.59-.07-.13-.24-.27-.47-.36-.73-.15-.46-.24-.94-.38-1.4-.15-.52-.25-1.07-.49-1.54-.26-.51-.9-.56-1.33-.88-.3-.22-.64-.39-.95-.61-.17-.12-.37-.25-.48-.43-.35-.62-.85-1.12-1.34-1.62-.5-.51-.87-1.1-1.1-1.78-.19-.55-.44-1.1-.64-1.66-.21-.62-.45-1.21-.6-1.85-.16-.68-.38-1.36-.67-2-.37-.82-.29-1.68-.21-2.54.02-.19.16-.42.31-.54.62-.47,1.02-1.11,1.45-1.72,1.1-1.56,2.36-2.95,3.96-4.02Z"/>
  </g>
</svg>