<?xml version="1.0" encoding="UTF-8"?>
<svg id="Layer_2" data-name="Layer 2" xmlns="http://www.w3.org/2000/svg" viewBox="0 0 34.15 26.52">
  <defs>
    <style>
      .cls-1 {
        fill: #753d22;
        fill-rule: evenodd;
      }
    </style>
  </defs>
  <g id="Layer_2-2" data-name="Layer 2">
    <path class="cls-1" d="M1.27,14.04s-.04-.09-.06-.13c-.03.02-.08.04-.08.06,0,.09.02.18.04.28.03-.03.07-.04.08-.07.02-.04.01-.09.02-.14h0ZM23.13,11.39c-.26-.1-.42-.39-.34-.65.11-.37.3-.69.67-.86.05-.03.14-.05.16-.04.07.07.16.17.16.25.02.44-.15.85-.36,1.22-.03.06-.19.05-.29.08h0ZM15.18,12.06c.1.01.17,0,.21.03.14.15.33.29.41.47.32.79.61,1.59.89,2.38.03.09-.01.2-.03.31-.02.05-.06.12-.1.12-.1.01-.21.02-.29-.02-.09-.04-.17-.12-.22-.22-.41-.87-.78-1.75-.98-2.69-.03-.11.09-.26.13-.39h0ZM31.2,13.58c.22,0,.41.21.38.39-.04.26-.28.44-.54.43-.19,0-.4-.23-.39-.41.01-.23.26-.42.55-.42h0ZM22.85,17.82c.16-.02.24-.12.28-.28-.16.03-.23.14-.28.28h0ZM23.2,17.46c.4-.3.79-.62,1.2-.9.19-.13.41-.06.57.11-.03.1-.03.23-.09.3-.47.56-.96,1.13-1.44,1.69-.21.23-.47.2-.84-.06-.04-.03-.06-.06-.09-.09-.05,0-.12,0-.15.03-.47.43-.78.99-1.12,1.53-.08.12-.14.31-.11.45.16.58-.25.87-.56,1.22l-.08.07.06-.1c.45-.02.83-.21,1.22-.4,1.07-.52,2.14-1.03,3.2-1.58.96-.49,1.96-.92,2.79-1.63.67-.57,1.43-.98,2.2-1.35.73-.36,1.44-.75,2.17-1.12.33-.17.44-.46.44-.81,0-.65-.09-1.29-.27-1.92-.23-.84-.55-.95-1.24-.42-.38.31-.71.66-.98,1.07-.09.13-.21.25-.34.34-.07.04-.2,0-.29-.03-.04-.01-.1-.08-.1-.12,0-.16-.02-.34.05-.47.32-.57.76-1.05,1.27-1.46.25-.2.51-.4.76-.61.14-.12.15-.37.04-.6-.09-.19-.36-.2-.55,0-.69.75-1.44,1.47-2.04,2.3-.71.97-1.56,1.79-2.41,2.62-.03.04-.1.05-.14.06-.05,0-.13,0-.16-.02-.06-.07-.15-.16-.15-.25,0-.36.28-.58.48-.82,1.03-1.19,2.07-2.36,3.1-3.54.32-.37.61-.75.92-1.14.06-.08.1-.19.14-.29.09-.2-.07-.57-.28-.69-.17-.09-.32-.04-.46.05-.5.34-.9.78-1.25,1.26-.42.57-.83,1.13-1.23,1.71-.71,1.03-1.47,2.01-2.3,2.94-.61.69-1.17,1.42-1.73,2.15-.11.14-.14.34-.2.52h0ZM22.51,18.47c.02-.23.06-.46.3-.59-.02.23-.08.45-.3.59h0ZM11.45,14.72c.05.01.11,0,.15.02.34.2.57.49.69.87.04.12-.07.34-.22.38-.1.02-.23.04-.3,0-.39-.25-.58-.62-.55-1.08,0-.06.15-.11.23-.17h0ZM18.84,19.28c-.03-.09-.07-.17-.1-.26-.04.08-.12.16-.13.25,0,.08.06.16.1.25.04-.08.09-.16.13-.24h0ZM19.11,4.18c.12-.76.1-1.4.17-2.03.02-.15,0-.32-.01-.47,0-.04-.09-.12-.1-.11-.07.03-.18.08-.19.14-.13.78-.23,1.56.13,2.47h0ZM18.94,24.22c.38.21.76.36,1.2.38.16,0,.32,0,.47-.05.05-.02.13-.17.11-.24-.05-.15-.13-.29-.22-.42-.24-.36-.42-.4-.8-.22-.29.13-.58.26-.76.56h0ZM21.4,23.25c.23.66.58,1.27,1.07,1.78.14.14.37.21.57.27.08.03.2-.03.3-.07.12-.04.17-.28.1-.43-.28-.66-.72-1.21-1.29-1.64-.23-.17-.5-.18-.75.09h0ZM15.86,23.22c-.13-.14-.21-.29-.34-.37-1.22-.68-1.31-.65-2.08.38-.19.26-.39.51-.56.77-.03.05.02.19.05.26.02.04.1.07.14.06.26-.03.53-.03.78-.11.7-.24,1.37-.57,2.01-.99h0ZM18.81,7.79c0-.23,0-.45,0-.66,0-.26-.09-.32-.42-.35-.1,0-.21,0-.37,0-.03-.71-.06-1.4-.09-2.13.46.29.84.75,1.11,1.36.02.05.07.1.12.12.09.04.19.07.29.08.04,0,.1-.07.11-.11.23-.89.36-1.8.41-2.72.04-.54.04-1.09.3-1.57.03-.07.17-.12.25-.12.09.01.21.09.23.17.08.26.1.53.17.79.03.09.14.16.22.21.17.09.3-.02.4-.16.06-.09.11-.22.19-.26.07-.03.22.04.27.1.18.23.14.52.1.78-.12.8-.25,1.61-.39,2.41-.17,1.01-.36,2.02-.53,3.04-.23,1.38-.47,2.76-.76,4.14-.28,1.32-.69,2.62-.93,3.94-.06.32-.2.62-.33.92-.03.08-.14.18-.21.17-.08,0-.19-.09-.23-.17-.07-.14-.11-.31-.11-.47-.05-.98-.21-1.94-.44-2.88-.19-.75-.17-1.51-.17-2.27,0-.14.07-.38.17-.42.45-.17.5-.52.5-.91,0-.44,0-.87.01-1.3.01-.26.18-.37.4-.44.06-.02.11-.04.15-.06.3-.22.34-.59.08-.84-.15-.14-.34-.25-.51-.37h0ZM16.91,6.6c0-.92,0-1.84,0-2.76,0-.71-.02-1.41-.04-2.12,0-.14-.17-.32-.3-.32-.21,0-.43-.02-.65.01-.26.05-.54.1-.76.24-.28.16-.13.49-.18.75,0,.05,0,.12-.04.15-.06.07-.14.16-.23.19-.09.02-.23,0-.29-.05-.19-.19-.34-.42-.52-.62-.13-.15-.41-.16-.58-.02-.14.12-.19.29-.13.43.19.51.4,1,.6,1.5.08.2.15.4.23.6.04.11-.12.34-.26.36-.1.01-.24,0-.29-.06-.16-.22-.31-.44-.44-.67-.25-.48-.49-.97-.75-1.44-.04-.07-.18-.08-.27-.11-.03.09-.12.22-.09.28.54,1.12,1.09,2.23,1.63,3.36.19.39.46.78.5,1.19.08.78.4,1.45.67,2.16.1.25.14.52.2.78,0,.03-.05.12-.1.12-.1.01-.25.01-.27-.03-.45-.97-1.21-1.81-1.25-2.96,0-.15-.09-.31-.17-.46-.61-1.14-1.23-2.29-1.87-3.42-.1-.19-.24-.37-.42-.47-.1-.06-.3,0-.45.02-.14.03-.2.28-.1.4.82.96,1.3,2.12,1.81,3.25.2.44.41.89.64,1.32.45.8.81,1.64,1.11,2.52.34,1.02.72,2.03,1.14,3.03.56,1.29,1.13,2.58,2.02,3.69.03.04.11.06.14.04.07-.05.17-.12.18-.2.03-.15.05-.32.03-.48-.14-1.62-.29-3.23-.43-4.85-.03-.37-.1-.76-.06-1.13.2-1.4.04-2.81.04-4.22h0ZM19.9,19.77c.12-.1.28-.18.37-.3.78-1.04,1.55-2.08,2.32-3.13.49-.65.91-1.37,1.46-1.94,1.02-1.07,1.86-2.26,2.66-3.49.56-.87,1.15-1.71,2.01-2.32.17-.12.3-.31.44-.47.13-.15.14-.43.03-.61-.78-1.13-1.84-1.97-2.99-2.86-.11.16-.23.28-.29.43-.17.4-.3.81-.47,1.21-.32.75-.65,1.49-.98,2.23-.06.11-.36.22-.42.13-.08-.12-.18-.29-.15-.42.04-.26.16-.52.26-.77.38-1.01.76-2.03,1.14-3.04.04-.1.04-.21.04-.32,0-.04-.06-.12-.09-.12-.1-.01-.24-.04-.29.02-.15.15-.29.33-.38.53-.41.94-.89,1.86-1.08,2.88-.07.36-.21.68-.61,1.01.15-1.41.34-2.68.79-3.9.13-.35.23-.71.32-1.08.02-.07-.08-.19-.16-.26-.12-.11-.34-.05-.4.08-.32.81-.5,1.66-.59,2.52-.06.65-.14,1.29-.22,1.93-.09.7-.18,1.39-.27,2.1-.01.1-.04.24.02.32.34.49.17,1.05.18,1.57,0,.15.08.33.18.43.14.15.38.21.34.55-.22.59-.47,1.24-.69,1.83-.12.06-.17.09-.22.11-.05.02-.1.04-.15.06-.52.18-.53.18-.81-.42.23-.19.26-.45.25-.72,0-.07-.09-.13-.19-.27-.01.39-.02.71-.03,1.02-.04.03-.12.04-.14.07-.28.64-.41,1.31-.48,1.99,0,.07.08.16.14.22.02.02.11,0,.15-.03.13-.09.25-.2.39-.28.12-.08.38.08.36.2-.04.21-.05.43-.13.62-.16.46-.4.87-.93,1.01-.13.04-.26.18-.34.31-.26.42-.41.87-.33,1.38l-.03-.03h0ZM7.85,17.53s-.02-.12-.06-.15c-.85-.64-1.68-1.29-2.7-1.7-.64-.26-1.24-.64-1.86-.95-.19-.1-.38-.18-.58-.27-.04,0-.12.02-.13.05-.03.09-.09.26-.05.28.52.38,1.02.79,1.59,1.09,1.09.57,2.22,1.07,3.34,1.59.14.06.32.03.48.04.09.12.17.28.29.36.5.33,1.01.63,1.52.93.38.23.78.37,1.24.29.33-.05.64.08.91.26.35.25.69.51,1.04.76.18.13.34.29.52.38.83.41,1.66.8,2.49,1.18.07.03.19-.05.34-.11-.23-.25-.43-.52-.67-.72-1.04-.86-2.06-1.76-3.16-2.54-1.11-.79-2.11-1.69-3.09-2.63-.5-.48-1.02-.97-1.61-1.35-.84-.53-1.52-1.21-2.2-1.91-.57-.58-1.21-1.09-1.83-1.61-.06-.05-.2-.05-.3-.03-.25.06-.48.61-.34.82.1.13.19.26.32.37.49.43.99.83,1.48,1.25.06.05.07.22.03.3-.04.08-.17.15-.26.15-.21-.01-.43-.04-.62-.13-.39-.19-.75-.42-1.14-.63-.02,0-.1.04-.12.09-.02.04-.03.12,0,.15.2.17.39.37.61.49,1.21.71,2.45,1.38,3.65,2.12.91.57,1.78,1.22,2.66,1.84.06.04.07.2.06.3-.01.13-.25.27-.37.23-.1-.03-.2-.07-.31-.1-.4-.15-.73-.47-1.19-.49h0ZM12.67,22.34c.04-.15.06-.3.12-.45.03-.08.11-.14.18-.19.02-.02.1.02.13.05.14.12.12.27.01.39-.1.11-.23.19-.35.28-.13.24-.26.46-.38.69-.12.23-.29.46-.35.71-.04.19.06.4.1.66-.65.2-1.27.29-1.92.15-.13-.03-.2-.13-.13-.24.65-.94,1.43-1.72,2.57-2.07h0ZM24.5,24.31s-.13,0-.15-.03c-.38-.51-.77-1.03-1.13-1.55-.1-.15-.03-.31.1-.43.11-.1.34-.06.41.08.28.64.63,1.25.75,1.95.2.18.31.4.26.67,0,.04-.06.08-.11.09-.02,0-.08-.02-.09-.04-.12-.25-.1-.5-.03-.75h0ZM26.07,3.21c.45.02.83.22,1.12.54.1.1.12.27.19.42.23,0,.33.12.3.36.23-.04.41.06.58.19.74.55,1.31,1.24,1.8,2.01.03.03.01.13,0,.13-.09.02-.23.07-.27.03-.76-.74-1.49-1.51-2.09-2.39-.17-.05-.32-.13-.32-.34-.28.02-.5-.1-.68-.29-.21-.22-.41-.46-.61-.69-.14-.05-.3-.09-.44-.14-.04-.01-.08-.09-.07-.13.03-.13.1-.14.23-.05.13.09.25.18.24.36h0ZM9.15,24.06c.12-.11.24-.23.36-.34.09-.23.18-.47.26-.7.55-.59.99-1.28,1.68-1.73.2-.13.41-.12.6,0,.07.05.1.18.16.32-.71.25-1.34.66-1.88,1.19-.16.15-.36.23-.59.2,0,.27-.03.52-.27.7-.12.11-.24.23-.36.34,0,.1-.01.2-.03.31,0,.05-.03.14-.05.14-.14-.01-.19-.1-.1-.22.05-.08.14-.14.23-.21h0ZM6.87,10.04c-.04-.18-.12-.33-.35-.32-.04-.15-.04-.33-.12-.44-.29-.38-.6-.73-.91-1.08-.06-.07-.19-.1-.28-.13-.03-.01-.12.07-.12.08.34.66.76,1.24,1.46,1.55.01.22.13.32.34.32.03.2.14.3.34.33,0,.21.13.31.32.32.03.19.14.29.32.34-.04.37.22.6.43.84.58.63,1.18,1.26,1.77,1.9.03.03.02.11,0,.16-.06.12-.16.15-.26.08-.89-.71-1.8-1.38-2.56-2.26-.82-.94-1.83-1.69-2.8-2.48-.05-.04-.21,0-.29.04-.14.05-.19.32-.09.43.14.16.28.32.43.47.51.49,1.02.98,1.53,1.46.63.61,1.24,1.22,2.01,1.65.23.13.43.33.63.51.77.69,1.51,1.4,2.28,2.08.32.29.66.56,1.02.81.12.09.3.11.45.1.21,0,.42-.13.59-.03.69.59,1.35,1.14,2.02,1.7.34.28.65.56.79,1.01.08.23.3.44.48.63.23.23.49.43.74.63.11.09.25.13.38.18.09.03.08-.26-.02-.45-.64-1.08-1.28-2.14-1.9-3.22-.16-.28-.3-.58-.44-.88-.88-1.8-1.63-3.66-2.22-5.58-.11-.36-.24-.72-.43-1.05-.69-1.23-1.27-2.52-1.84-3.81-.13-.29-.25-.62-.46-.86-1.04-1.17-1.18-1.31-2.31-.24-.3.28-.75.47-.8,1.01.09.16.2.35.3.54.08.14.16.29.22.43.06.13-.03.42-.14.43-.1,0-.23.02-.31-.03-.21-.16-.4-.36-.59-.54-.12-.1-.32-.09-.43.03-.11.13-.17.28-.1.44.07.14.16.29.25.42.66.93,1.31,1.85,1.97,2.79.19.27.08.49-.35.7-.1-.11-.21-.22-.32-.33-.1-.11-.21-.22-.32-.33-.11-.11-.22-.22-.33-.33h0ZM34.15,15.24c-.26.55-.64,1.08-1.06,1.57-.24.27-.57.51-.89.68-1.4.72-2.72,1.58-4.17,2.19-.35.15-.67.34-1.01.53-.6.35-1.21.71-1.81,1.06-.28.16-.42.52-.32.84.19.63.46,1.22.87,1.74.27.35.42.75.58,1.15.26.63-.41,1.53-1.07,1.52-.7-.02-1.41-.03-2.1-.12-1.35-.15-2.68-.4-3.97-.83-.36-.13-.73-.2-1.1-.3-.47-.14-.93-.29-1.5-.46-.56.17-1.23.38-1.9.61-.52.16-1.04.28-1.59.26-.71-.03-1.39.07-2.09.21-.96.18-1.93.28-2.9.38-.37.04-.76.02-1.13-.01-.52-.04-.87-.51-.78-1.04.03-.21.08-.44.19-.61.24-.36.48-.73.79-1.03.64-.6,1.15-1.28,1.6-2.03.22-.38.49-.72.72-1.08.1-.15.02-.46-.16-.56-.09-.06-.19-.11-.28-.16-1.71-.84-3.4-1.69-5.11-2.5-.69-.33-1.4-.6-2.1-.87-.57-.21-1-.56-1.41-1.03-.46-.53-.54-1.04-.27-1.64.36-.79.74-1.56,1.13-2.34.25-.48.54-.94.78-1.43.14-.28.24-.6.29-.91.05-.45.27-.68.7-.76.15-.02.29-.13.42-.22.08-.06.14-.16.2-.25,1.32-1.96,3.17-3.41,4.85-5.02.41-.39.99-.65,1.53-.9.69-.32,1.43-.5,2.06-.95.12-.08.32-.12.46-.1.62.1,1.18-.05,1.75-.23.83-.25,1.68-.4,2.56-.44.76-.03,1.51-.11,2.27-.16.21-.02.44-.03.65,0,1.07.17,2.15.22,3.21.48,1.12.28,2.18.63,3.12,1.31.44.32.97.53,1.35.9.92.91,1.99,1.67,2.82,2.68.76.93,1.38,1.95,1.91,3.02.39.78.51,1.65.69,2.5.22,1.06.41,2.13.6,3.19.06.34.25.59.51.8.07.06.08.19.15.34Z"/>
  </g>
</svg>