<?xml version="1.0" encoding="UTF-8"?>
<svg id="Layer_2" data-name="Layer 2" xmlns="http://www.w3.org/2000/svg" viewBox="0 0 47.78 21.71">
  <defs>
    <style>
      .cls-1 {
        fill: #753d22;
        fill-rule: evenodd;
      }
    </style>
  </defs>
  <g id="Layer_2-2" data-name="Layer 2">
    <path class="cls-1" d="M21.17,10.68c1.51-.4,1.93-1.49,2.66-2.25.87-.91,1.66-.89,2.38.17.97,1.42,1.8,2.92,2.75,4.36.25.38.69.62,1.09.96.81-1.13.78-2.24.87-3.3.12-1.39,1.6-1.56,2.42-2.52-1.74-2.12-3.84-3.59-6.06-4.91-.7-.42-1.46-.43-2.15-.02-2.21,1.32-4.37,2.71-6.07,4.95.72.88,1.38,1.69,2.1,2.56h0ZM37.67,13.23c.55.62,1.09,1.27,1.67,1.86.6.63,1.26,1.19,1.84,1.82.89.96,1.13,2,.57,2.2-.92.33-1.38-.42-1.87-.93-1.62-1.72-3.2-3.49-4.8-5.22-.27-.3-.58-.56-1.22-1.17.08,1.92,1.11,2.93,1.71,4.12.6,1.19,1.9,2.03,1.98,3.47-.66.56-1.17.29-1.52-.09-1.08-1.19-2.09-2.43-3.27-3.82-.67.39-.62,1.24-1.02,1.79-.38.52-.92.95-1.17,1.52-.29.68-.27,1.48-.52,2.18-.11.31-.56.5-.86.75-.24-.33-.65-.65-.69-.98-.12-1.07-.07-2.15-.13-3.22-.04-.71.23-1.52-.52-2.05-.76-.04-.9.57-1.04,1.03-.4,1.34-.68,2.71-1.11,4.05-.09.29-.59.46-.9.68-.17-.35-.55-.74-.5-1.05.32-1.9.72-3.8,1.13-5.7.2-.93.63-1.84.05-2.78-.68-.22-1.04.22-1.3.68-1.12,1.96-2.2,3.95-3.31,5.92-.36.65-.74,1.28-1.27,2.2-.35-.48-.8-.83-.73-1.03.28-.92.68-1.79,1.08-2.68.38-.85.94-1.63,1.08-3.02-3.13,1.71-4.05,4.95-6.62,7.39-.22-2.29.84-3.41,1.6-4.62.74-1.18,1.56-2.3,2.33-3.42-.46-.62-.85-.29-1.12-.02-1.92,1.89-3.79,3.82-5.73,5.69-1.05,1.03-1.88,2.35-3.29,2.94-.72-.57-.35-1.04,0-1.42,2.33-2.54,4.69-5.06,7.04-7.58.65-.69,1.29-1.39,1.88-2.02-.27-.75-.7-.67-1.07-.45-1.03.58-2.08,1.15-3.04,1.84-3.76,2.68-7.51,5.41-11.27,8.11-.43.31-.9.52-1.67.96,0-.79-.19-1.41.03-1.69.67-.82,1.44-1.6,2.29-2.23,3.99-2.94,8.03-5.8,12.02-8.74,2.77-2.04,5.48-4.17,8.25-6.22,1.11-.81,2.32-1.52,3.5-2.28,2.61,1.23,4.79,2.8,6.76,4.61,3.1,2.83,6.08,5.79,9,8.8,1.95,2.01,3.68,4.21,5.5,6.33.14.16.32.36.32.55.01.39.07.93-.15,1.15-.21.23-.9.34-1.12.17-.84-.66-1.62-1.4-2.33-2.2-1.57-1.77-3.08-3.6-4.64-5.38-.41-.47-.92-.86-1.39-1.27-.16.16-.31.31-.46.47Z"/>
  </g>
</svg>