<?xml version="1.0" encoding="UTF-8"?>
<svg id="Layer_2" data-name="Layer 2" xmlns="http://www.w3.org/2000/svg" viewBox="0 0 60.69 35.6">
  <defs>
    <style>
      .cls-1 {
        fill: #753d22;
      }

      .cls-1, .cls-2 {
        fill-rule: evenodd;
      }

      .cls-2 {
        fill: #e7a952;
      }
    </style>
  </defs>
  <g id="Layer_2-2" data-name="Layer 2">
    <g>
      <path class="cls-2" d="M18.86,16.31c.04.14.1.23.09.32-.1.63.17,1.09.63,1.49.34.3.72.48,1.16.43.85-.09,1.69.16,2.54.14.25,0,.44.13.63.29,1.07.93,2.08,1.92,3.02,2.99.22.25.46.51.54.81.15.57.53.87.99,1.13.1.05.12.22.18.35-.13.03-.22.08-.31.08-.8-.03-1.6-.05-2.4-.1-.57-.04-1.13-.03-1.69,0-2.41.15-4.82.17-7.23.13-.38,0-.76,0-1.13,0-1.04.01-2.08.04-3.1-.15-.42-.08-.85-.08-1.27-.02-.61.09-1.22.08-1.84-.04-.41-.09-.84-.1-1.26-.13-.99-.08-1.98-.16-2.83-.75-.1-.07-.27-.11-.4-.09-.5.1-.92-.11-1.36-.29-.3-.13-.62-.24-.93-.34-.07-.02-.19.02-.25.06-.13.09-.14.23-.11.38.04.24.16.45.35.6.15.11.31.21.48.29.53.22.97.55,1.41.92,1.23,1.02,2.52,1.98,3.79,2.96.18.13.41.26.62.3.52.11.98.35,1.43.61.85.5,1.7,1.01,2.58,1.48,1.42.76,2.85,1.46,4.39,1.94,2.21.69,4.46,1.21,6.73,1.68,1.81.37,3.63.58,5.48.61.42.01.85.07,1.26.11.76.06,1.51.07,2.27-.03.74-.11,1.5-.13,2.26-.16,1.28-.05,2.54-.16,3.75-.48.29.14.53.29.8.38.22.06.47.03.7.08,1.42.29,2.9.37,4.29.85.27.09.56.12.84.14,1.08.05,2.16.16,3.24.25,1.18.09,2.35.17,3.52-.07,1.19.07,2.35-.15,3.53-.21.86-.05,1.69-.2,2.53-.32.7-.1,1.22-.47,1.74-.88.23-.18.28-.67.09-.91-.27-.33-.55-.65-.84-.96-.74-.79-1.46-1.6-2.23-2.36-.74-.74-1.49-1.45-2.28-2.12-.54-.46-1.09-.9-1.55-1.45-.42-.52-.95-.91-1.56-1.19-.91-.42-1.67-1.06-2.46-1.67-.14-.11-.26-.29-.33-.45-.51-1.38-1.38-2.58-2.15-3.82-.82-1.33-1.83-2.52-2.79-3.75-.93-1.19-1.87-2.37-2.82-3.55-.3-.37-.6-.74-.95-1.05-1.51-1.36-3.1-2.62-4.78-3.77-1.64-1.12-3.37-2.08-5.04-3.17-.14-.09-.35-.1-.53-.14-.11-.03-.28.14-.29.25-.04.3.04.57.19.81.29.43.6.85.9,1.27.87,1.23,1.67,2.51,2.38,3.85.82,1.54,1.42,3.18,2.09,4.79.03.07,0,.2-.04.24-.06.05-.16.04-.25.04-.04,0-.09-.03-.13-.04-2.63-1.16-5.35-2.12-8.04-3.15-.4-.15-.81-.25-1.22-.38-1.13-.34-2.26-.68-3.39-1.02-.81-.25-1.63-.49-2.43-.76-.49-.17-.98-.34-1.45-.56-.77-.37-1.53-.75-2.27-1.14-.25-.14-.47-.32-.68-.5-.11-.09-.19-.21-.29-.32-1.44-1.5-2.87-3-4.31-4.51-.29-.31-.59-.6-1.02-.73-.28-.08-.46-.32-.62-.57-.17-.28-.32-.57-.5-.85-.08-.12-.18-.23-.29-.3-.12-.08-.28-.11-.4-.01-.1.09-.21.24-.2.35.03.23.12.46.2.67.18.45.31.89.22,1.38-.04.24.08.46.2.66.23.37.36.75.41,1.19.06.76.35,1.45.67,2.15.34.72.62,1.48.92,2.22.05.13.09.29.06.41-.03.12-.14.27-.25.31-.17.05-.37.05-.56.04-.9-.03-1.79-.18-2.65-.42-.74-.21-1.48-.28-2.24-.23-.43.03-.85,0-1.26-.06-.7-.12-1.38-.28-2.1-.27-.27,0-.54-.15-.82-.21-.18-.04-.37-.04-.56-.05-.16,0-.33.27-.25.41.09.17.17.37.31.46.43.29.87.55,1.32.82.04.02.08.05.13.05,1.09.09,1.87.86,2.78,1.34.92.47,1.75,1.1,2.71,1.52.3.13.55.37.83.54.56.35,1.16.61,1.83.72.98.16,1.95.38,2.93.56.32.06.65.08.98.14.52.07,1.03.16,1.54.22,1.23.15,2.39.52,3.48,1.33Z"/>
      <g>
        <path class="cls-1" d="M18.77,31.32s-.06.02-.09.02c-.02,0-.03-.04-.04-.05.03-.01.06-.03.1-.03,0,0,.02.03.03.05h0ZM31.11,14.25c.13,0,.16.04.08.1-.02.01-.07-.01-.11-.02,0-.02.02-.05.03-.07h0ZM29.9,15.77c.07-.02.13-.07.2-.08.02,0,.09.06.09.07-.03.06-.07.11-.11.17-.06-.05-.12-.11-.18-.16h0ZM29.37,14.57c.07.03.16.04.21.1.07.07.03.18-.07.19-.07,0-.17-.03-.21-.08-.03-.04.04-.14.07-.21h0ZM29.17,21.69c.03-.08.05-.15.08-.23.05.07.12.13.14.2.03.09.04.18.03.27,0,.08-.05.16-.07.24-.05-.07-.12-.14-.14-.21-.03-.09-.02-.18-.03-.27h0ZM42.93,32.79s.03-.07.06-.1c.06-.08.29-.08.37,0,.18.16.23.38.22.61-.01.03-.04.08-.07.11-.02.01-.08.01-.11,0-.21-.16-.43-.32-.47-.62h0ZM44.31,21.03s-.09.03-.12.02c-.27-.08-.53-.2-.68-.46-.03-.06,0-.17.02-.25,0-.02.08-.05.11-.04.33.09.55.31.7.61.01.03-.03.08-.04.12h0ZM27.83,21.04c-.25-.24-.52-.43-.58-.76-.01-.06.05-.19.12-.22.05-.03.21.02.22.07.08.29.37.53.24.92h0ZM25.52,18.27s-.09-.04-.11-.08c-.15-.38-.31-.77-.43-1.15-.02-.06.03-.2.08-.23.07-.03.17,0,.25.04.04,0,.08.05.1.08.03.03.08.07.08.11.04.36.04.72.17,1.06,0,.02-.02.08-.05.11-.02.03-.07.04-.1.05h0ZM40.79,19.08c.55-.13,1.02-.03,1.41.4.02.03.04.1.02.13-.01.04-.08.07-.12.07-.44.02-.83-.12-1.19-.37-.06-.05-.08-.14-.13-.23h0ZM24.62,13.15c.63-.09,1.24-.25,1.74.31q-1.1.13-1.74-.31h0ZM21.64,14.74c.13.27.22.43.29.6.02.07-.02.17-.05.25,0,0-.08,0-.12,0-.41-.2-.83-.41-1.1-.8-.03-.04-.04-.11-.03-.12.05-.06.13-.15.18-.14.27.05.53.14.83.22h0ZM21.08,17.78c-.24-.05-.52-.1-.78-.19-.19-.07-.28-.25-.31-.44-.02-.17.22-.39.36-.35.38.12.65.37.91.65.02.03.04.1.03.12-.05.07-.12.11-.21.21h0ZM11.18,11.28c-.59-.04-.89-.01-1.15-.09-.8-.22-1.45.06-2.04.56-.39-.14-.74-.27-1.09-.4-.36-.13-.62-.41-.85-.71-.04-.05-.05-.2-.01-.25.04-.07.15-.1.23-.13.3-.1.54.1.8.19.35.12.58-.29.94-.19.14.04.28.04.41.09.4.13.8.27,1.2.41.44.15.88.3,1.56.54h0ZM12.3,11.37c-.08.23.14.21.22.29.09.1.2.21.25.33.03.06,0,.19-.05.25-.05.07-.16.14-.23.13-.55-.1-1.1-.25-1.65-.34-.42-.07-.84-.1-1.26-.11-.26,0-.54-.08-.78.1.05.08.09.18.17.21.75.42,1.56.63,2.41.73,1.31.14,2.61.32,3.94.31.47-.01.94.1,1.4.13.04,0,.14-.14.13-.19-.05-.22-.16-.43-.19-.66-.01-.11.1-.27.21-.33.1-.06.29-.07.4-.02.16.08.32.21.42.36.2.31.36.66.54.99.14.26.38.42.66.48.07.02.16-.05.24-.09.01-.01,0-.1-.02-.13-.16-.23-.34-.44-.5-.67-.1-.16-.25-.34-.24-.5.07-.6-.43-1.02-.47-1.59-.02-.29-.27-.48-.6-.49-.29-.01-.55-.08-.72-.36-.07-.12-.17-.23-.28-.31-.52-.33-1.04-.63-1.56-.95-.1-.06-.19-.02-.22.1-.02.08-.03.21.02.26.17.16.37.28.55.43.14.11.29.24.4.38.05.06.05.19.02.26-.04.07-.16.13-.23.12-.18-.03-.36-.09-.52-.17-.54-.28-1.04-.65-1.64-.81-.06-.01-.15.06-.21.11-.02.02-.01.1,0,.14.07.12.14.24.23.35.37.45.84.74,1.38.96.12.05.21.18.3.28.02.03.03.1.02.12-.05.08-.11.19-.18.2-.13.03-.29.04-.41-.01-.63-.25-1.29-.26-1.93-.28h0ZM23.23,15.84q-.05.75.68,1.12c-.16-.45-.29-.87-.71-1.1.03-.09.06-.19.1-.27.14-.26.36-.39.56-.3.43.18.88.35,1.29.58.5.27,1.01.5,1.54.7.4.15.79.31,1.17.49,2.51,1.21,5.01,2.45,7.53,3.63,1.07.5,2.17.92,3.26,1.39,1.73.76,3.38,1.68,4.97,2.7.4.26.75.57.94,1.04.03.07,0,.19-.06.25-.05.06-.15.07-.24.09-.03,0-.09-.03-.12-.06-1.81-1.39-3.77-2.5-5.91-3.31-1.23-.47-2.42-1.05-3.63-1.59-1.58-.72-3.17-1.46-4.75-2.2-.59-.29-1.17-.62-1.76-.9-.47-.22-.96-.39-1.44-.57-.03-.01-.11,0-.13.03-.04.08-.1.18-.07.24.11.26.24.52.38.76.12.23.31.36.56.38.42.02.72.21.9.58.23.46.58.72,1.07.86.3.08.49.3.59.57.14.35.24.71.34,1.08.08.27.11.56.19.83.04.13.12.3.22.34.59.19.88.69,1.22,1.14.06.07.14.11.21.18.09.07.33.04.38-.05.09-.17.17-.34.27-.5.07-.12.28-.16.37-.09.11.09.23.17.32.27.14.2.31.34.56.4.13.04.3.09.37.19.4.62,1.07.76,1.68.97,1.33.48,2.66.96,3.91,1.66.33.19.64.4.94.62.11.08.18.21.25.33.09.13.05.27-.03.39-.09.14-.23.18-.36.12-.22-.09-.41-.22-.62-.33-.22-.12-.45-.18-.68-.08-.3.12-.56.03-.8-.11-.21-.12-.42-.24-.59-.4-.61-.55-1.37-.83-2.12-1.1-1.11-.4-2.26-.66-3.42-.9-1.34-.29-2.7-.42-4.07-.44-.71,0-1.4-.22-2.11-.18-1.13.07-2.26.09-3.4.13-.57.02-1.13.05-1.69.02-.75-.03-1.5.03-2.36,0,.17.16.21.26.28.27,1.57.38,3.15.62,4.77.57,1.09-.03,2.17-.16,3.22-.4.24-.05.47-.07.7,0,.17.05.35.27.3.41-.05.12-.16.28-.27.29-2.62.47-5.25.64-7.88.11-.51-.11-1.01-.25-1.51-.38-.32-.09-.46-.29-.43-.62,0-.06-.08-.18-.15-.19-.18-.05-.37-.08-.56-.07-2.36.17-4.72-.11-7.07-.21-.28-.01-.55-.1-.84-.14-.32-.05-.65-.08-1.01-.11.06.12.09.2.14.27.03.04.07.06.11.08.9.42,1.62,1.18,2.59,1.45.91.25,1.8.57,2.7.85.75.22,1.54.43,2.41.38-.11-.13-.16-.24-.23-.27-.78-.31-1.5-.79-2.38-.87-.14-.02-.28-.22-.4-.36-.11-.14.02-.42.2-.43.14-.02.28-.05.42-.03.14,0,.28.05.41.1.18.05.35.14.53.21,2.87,1.19,2.32.86,4.9,1.3.6.1,1.23.12,1.84.11,1.56-.02,3.11.14,4.66.31.66.07,1.32.08,1.98.04,1.37-.08,2.74-.11,4.11-.16.33-.01.66-.07.98-.09.14,0,.29-.01.42.03.07.02.14.12.16.21.02.08,0,.21-.05.25-.14.11-.31.24-.47.27-.42.05-.85.07-1.27.08-.89,0-1.79.02-2.68.16-.93.15-1.89.16-2.83.04-1.65-.22-3.3-.22-4.95-.28-1.19-.04-2.35-.21-3.5-.45-.33-.07-.65-.11-.98,0,.06.21.26.21.42.26.26.09.53.18.81.22,1.4.23,2.8.37,4.18.74,1.33.03,2.63.22,3.91.57.41.11.85.06,1.28.06,1.08,0,2.17.02,3.25,0,.52-.01,1.04-.05,1.55-.13.98-.16,1.97-.19,2.96-.19.1,0,.19,0,.28.02.26.02.43.17.36.32-.07.13-.14.23-.3.25-.8.08-1.59.18-2.4.24-.66.05-1.3.21-1.95.28-.59.07-1.21-.13-1.82-.15-.75-.03-1.51.03-2.27.03-.42,0-.88.07-1.27-.06-.87-.29-1.77-.28-2.66-.39-.89-.11-1.77-.19-2.65-.4-.73-.18-1.49-.21-2.24-.33-.37-.06-.75-.12-1.1-.25-.85-.31-1.73-.47-2.62-.59-.71-.09-1.39-.23-2.05-.53-.15-.07-.36-.04-.55-.05,0-.04-.02-.09-.03-.12-.1.03-.08.07.06.1.04.27.24.41.45.5,1.43.6,2.87,1.2,4.39,1.56,1.79.42,3.61.7,5.41,1.05,1.3.25,2.63.29,3.92.55.14.03.28.05.42.04,1.41-.06,2.83.09,4.23-.21.65-.14,1.3-.24,1.96-.33.32-.04.66-.03.98-.05.52-.02,1.04-.01,1.56-.08,1.59-.19,3.18-.41,4.77-.62.14-.02.28,0,.42,0,.17,0,.41.22.36.35-.04.12-.13.29-.23.32-.45.14-.91.28-1.37.34-1.08.14-2.17.16-3.24.35-1.63.29-3.3.17-4.92.52-.28.06-.55.11-.83.16-.18.04-.37.12-.55.11-1.36-.08-2.74.2-4.09-.18-.13-.04-.28-.07-.41-.06-.81.03-1.59-.16-2.38-.31-1.16-.23-2.33-.37-3.49-.54-.07,0-.15.04-.26.08.76.35,1.54.52,2.33.68,1.34.28,2.68.5,4.05.66,1.78.19,3.56.43,5.35.53.14,0,.29.05.42.03,1.78-.17,3.59,0,5.37-.29,1.86-.32,3.72-.67,5.42-1.54.21-.11.43-.2.65-.28.41-.14.79.04.87.46.13.65.35,1.26.62,1.86.03.07.15.1.23.14.03-.08.09-.16.09-.25,0-.09,0-.2-.05-.27-.31-.59-.49-1.21-.58-1.88-.04-.32-.21-.63-.28-.95-.02-.11.07-.27.16-.35.12-.11.29-.04.39.04.2.19.38.42.57.62.19.21.36.43.56.64.06.06.16.1.29.18,0-.15.04-.29,0-.39-.25-.66-.52-1.32-.77-1.98-.16-.39-.25-.81-.18-1.24.04-.23.14-.45.23-.66.03-.07.15-.12.23-.15.21-.09.55.1.53.31-.04.48.02.93.12,1.4.28,1.33.9,2.47,1.89,3.41.48.45.99.87,1.51,1.28.49.39,1.05.61,1.69.64.66.01,1.32.06,1.98.07.33,0,.67,0,.98-.09.91-.26,1.86-.33,2.78-.51.46-.09.91-.22,1.37-.36.19-.05.31-.41.21-.59-.37-.73-.89-1.34-1.47-1.88-.52-.49-1.02-.98-1.56-1.44-.5-.43-1-.88-1.56-1.21-.98-.59-1.83-1.35-2.74-2.01-.69-.5-1.37-1-2.14-1.38-.85-.41-1.66-.9-2.47-1.38-.36-.22-.73-.4-1.13-.55-.57-.21-1.09-.55-1.63-.85-.44-.24-.89-.28-1.36-.16-.04,0-.08.04-.09.07-.01.04,0,.12.02.14.31.21.62.42.95.61.85.49,1.73.96,2.59,1.45.32.19.63.42.93.65.1.08.19.21.25.33.04.07.05.22.01.26-.09.1-.22.19-.34.2-.13,0-.27-.07-.38-.15-2.18-1.6-4.58-2.82-7-4-.13-.06-.23-.16-.34-.23-.09-.06-.05-.3.03-.38.16-.13.36-.15.54-.1.35.13.71.28,1.02.48.37.23.71.18,1.07,0,.08-.04.16-.1.28-.18-.39-.38-.87-.56-1.38-.63-.42-.05-.84-.07-1.26-.11-.16-.02-.28-.22-.25-.44.05-.37.02-.47-.19-.56-.35-.16-.69-.31-1.08-.23-.37.07-.75.12-1.12.19-.08-.23-.37-.45-.02-.71.11-.08,0-.29-.15-.32-.23-.05-.46-.13-.69-.12-.76.05-1.49-.11-2.21-.33.08-.34.5-.41.61-.73-.16-.08-.33-.18-.5-.26-.09-.03-.18-.07-.27-.08-.6-.08-1.21-.16-1.81-.23-.32-.04-.65-.04-.95-.05-.05.09-.08.12-.09.16-.06.2.12.48-.19.61-.2.08-.36-.05-.51-.16-1.03-.85-2.19-1.46-3.35-2.08-.17-.09-.34-.17-.51-.23-2.14-.7-4.28-1.4-6.43-2.11-.11-.04-.22-.02-.23.08-.01.09.02.19.06.26.09.18.21.31.41.36.31.09.63.19.95.24.27.04.56.03.79.04.53.52.76,1.13,1.06,1.72.1.2.17.44.44.51h0ZM19.82,11.6c.76-.09,1.44.29,2.27.41-1.16.11-1.4.07-2.2-.31-.03-.02-.04-.08-.05-.13-.12.01-.25.05-.34-.08.03-.01.08-.05.09-.04.08.04.15.1.22.15h0ZM38.23,17.57c.5-.09.86.17,1.2.48.03.02.04.09.02.13-.01.03-.06.08-.09.08-.44.06-.79-.11-1.06-.45-.05-.06-.04-.17-.05-.26-.11-.03-.12-.06-.05-.08,0,.03.02.06.02.1h0ZM12.99,8.48c-.34,0-.64-.1-.89-.33-.06-.05-.1-.15-.12-.23-.01-.04,0-.08.03-.12.02-.03.08-.08.1-.06.38.14.78.28.86.77.11.03.21.07.31.1-.03.01-.08.05-.1.03-.07-.05-.13-.11-.19-.16h0ZM46.19,33.16c.18.19.37.38.54.57,0,.02,0,.08-.02.1-.03.02-.09.01-.11-.01-.21-.17-.34-.4-.39-.67l-.07-.03.05.04h0ZM34.53,7.39s-.01-.06-.02-.1c.01.03.03.05.04.08.24.24.47.49.81.6.09.3.33.46.55.62,1.09.83,2.04,1.81,3.04,2.75,1.93,1.8,3.52,3.92,5.26,5.89.94,1.06,1.65,2.3,2.36,3.51.22.38.48.69.86.91.04.03.1.04.13.03.11-.04.14-.11.1-.21-.1-.21-.19-.44-.31-.63-.84-1.31-1.67-2.62-2.66-3.82-1.16-1.42-2.28-2.88-3.42-4.32-.24-.3-.47-.6-.75-.85-1.45-1.34-2.92-2.67-4.57-3.76-.15-.11-.35-.14-.52-.21-.2-.35-.52-.49-.91-.48h0ZM35.69,16.42c-.23-.03-.46-.03-.57-.29-.18-.02-.37-.01-.53-.08-.24-.11-.51-.19-.57-.5-.34.06-.65.02-.93-.21-.1-.08-.13-.14-.04-.21.03-.02.08-.04.12-.04.32.08.61.21.84.48.41.12.82.23,1.09.59.22.03.47.01.57.28.24,0,.45.08.6.27.44-.04.79.13,1.1.43-.6.13-.67.11-1.07-.46-.23-.03-.5.03-.6-.27h0ZM12.42,6.79c-.14-.05-.24-.14-.26-.31-.39-.15-.65-.39-.53-.86-.11-.09-.22-.19-.32-.28-.04-.02-.08-.03-.11-.04-.02-.02-.02-.05-.03-.08.04.05.07.1.11.14.1.09.21.19.32.28.27.23.53.46.53.86.21,0,.29.11.26.31.04,0,.08-.01.12,0,.03,0,.04.05.06.07-.05-.03-.1-.06-.15-.09h0ZM38.8,12.44c.1.11.19.21.29.31.14.23.3.44.56.56.36.49.71.99,1.08,1.47.94,1.19,1.88,2.36,2.62,3.68.36.64.97,1.01,1.5,1.48.03.03.15,0,.24-.02.01,0,.02-.08.01-.12,0-.04-.02-.09-.04-.13-.7-1.18-1.54-2.25-2.47-3.25-.35-.38-.69-.76-1.01-1.18-.46-.6-.96-1.16-1.45-1.73-.13-.14-.31-.21-.5-.17-.08-.46-.1-.48-.56-.56-.1-.1-.2-.21-.29-.32-.1-.09-.19-.19-.29-.28-.09-.1-.19-.19-.28-.28-.1-.1-.19-.19-.29-.28-.1-.1-.19-.19-.28-.29-.1-.09-.2-.18-.3-.27.01-.17-.07-.28-.25-.3-.04-.12-.06-.29-.15-.38-.26-.26-.55-.52-.85-.75-1.05-.79-2.07-1.64-2.96-2.57-.15,0-.22.06-.17.16,1.06,1.78,2.01,3.62,2.75,5.57.24.66.59,1.28.87,1.94.21.49.59.85.97,1.19.34.32.76.58,1.28.44v.08s-.01-.05-.01-.05c-.36-.38-.71-.75-1.06-1.13-.04-.05-.03-.18-.01-.26.03-.11.25-.19.36-.14.17.08.35.15.5.26.57.43,1.08.92,1.43,1.55.35.61.84,1,1.51,1.18.14.04.26.1.4.13.03,0,.09-.03.11-.07.02-.04.03-.1.02-.12-.15-.24-.28-.49-.44-.71-1.31-1.79-2.7-3.51-4.21-5.12-.19-.2-.38-.43-.55-.65-.1-.12-.05-.27.04-.38.06-.08.14-.13.21-.19,0,.16.14.22.25.29.1.09.2.18.3.27.09.1.19.19.28.29.1.09.19.19.29.28.1.09.19.19.28.28.09.1.19.19.29.28h0ZM18.86,16.31c.04.14.1.23.09.32-.1.63.17,1.09.63,1.49.34.3.72.48,1.16.43.85-.09,1.69.16,2.54.14.25,0,.44.13.63.29,1.07.93,2.08,1.92,3.02,2.99.22.25.46.51.54.81.15.57.53.87.99,1.13.1.05.12.22.18.35-.13.03-.22.08-.31.08-.8-.03-1.6-.05-2.4-.1-.57-.04-1.13-.03-1.69,0-2.41.15-4.82.17-7.23.13-.38,0-.76,0-1.13,0-1.04.01-2.08.04-3.1-.15-.42-.08-.85-.08-1.27-.02-.61.09-1.22.08-1.84-.04-.41-.09-.84-.1-1.26-.13-.99-.08-1.98-.16-2.83-.75-.1-.07-.27-.11-.4-.09-.5.1-.92-.11-1.36-.29-.3-.13-.62-.24-.93-.34-.07-.02-.19.02-.25.06-.13.09-.14.23-.11.38.04.24.16.45.35.6.15.11.31.21.48.29.53.22.97.55,1.41.92,1.23,1.02,2.52,1.98,3.79,2.96.18.13.41.26.62.3.52.11.98.35,1.43.61.85.5,1.7,1.01,2.58,1.48,1.42.76,2.85,1.46,4.39,1.94,2.21.69,4.46,1.21,6.73,1.68,1.81.37,3.63.58,5.48.61.42.01.85.07,1.26.11.76.06,1.51.07,2.27-.03.74-.11,1.5-.13,2.26-.16,1.28-.05,2.54-.16,3.75-.48.29.14.53.29.8.38.22.06.47.03.7.08,1.42.29,2.9.37,4.29.85.27.09.56.12.84.14,1.08.05,2.16.16,3.24.25,1.18.09,2.35.17,3.52-.07,1.19.07,2.35-.15,3.53-.21.86-.05,1.69-.2,2.53-.32.7-.1,1.22-.47,1.74-.88.23-.18.28-.67.09-.91-.27-.33-.55-.65-.84-.96-.74-.79-1.46-1.6-2.23-2.36-.74-.74-1.49-1.45-2.28-2.12-.54-.46-1.09-.9-1.55-1.45-.42-.52-.95-.91-1.56-1.19-.91-.42-1.67-1.06-2.46-1.67-.14-.11-.26-.29-.33-.45-.51-1.38-1.38-2.58-2.15-3.82-.82-1.33-1.83-2.52-2.79-3.75-.93-1.19-1.87-2.37-2.82-3.55-.3-.37-.6-.74-.95-1.05-1.51-1.36-3.1-2.62-4.78-3.77-1.64-1.12-3.37-2.08-5.04-3.17-.14-.09-.35-.1-.53-.14-.11-.03-.28.14-.29.25-.04.3.04.57.19.81.29.43.6.85.9,1.27.87,1.23,1.67,2.51,2.38,3.85.82,1.54,1.42,3.18,2.09,4.79.03.07,0,.2-.04.24-.06.05-.16.04-.25.04-.04,0-.09-.03-.13-.04-2.63-1.16-5.35-2.12-8.04-3.15-.4-.15-.81-.25-1.22-.38-1.13-.34-2.26-.68-3.39-1.02-.81-.25-1.63-.49-2.43-.76-.49-.17-.98-.34-1.45-.56-.77-.37-1.53-.75-2.27-1.14-.25-.14-.47-.32-.68-.5-.11-.09-.19-.21-.29-.32-1.44-1.5-2.87-3-4.31-4.51-.29-.31-.59-.6-1.02-.73-.28-.08-.46-.32-.62-.57-.17-.28-.32-.57-.5-.85-.08-.12-.18-.23-.29-.3-.12-.08-.28-.11-.4-.01-.1.09-.21.24-.2.35.03.23.12.46.2.67.18.45.31.89.22,1.38-.04.24.08.46.2.66.23.37.36.75.41,1.19.06.76.35,1.45.67,2.15.34.72.62,1.48.92,2.22.05.13.09.29.06.41-.03.12-.14.27-.25.31-.17.05-.37.05-.56.04-.9-.03-1.79-.18-2.65-.42-.74-.21-1.48-.28-2.24-.23-.43.03-.85,0-1.26-.06-.7-.12-1.38-.28-2.1-.27-.27,0-.54-.15-.82-.21-.18-.04-.37-.04-.56-.05-.16,0-.33.27-.25.41.09.17.17.37.31.46.43.29.87.55,1.32.82.04.02.08.05.13.05,1.09.09,1.87.86,2.78,1.34.92.47,1.75,1.1,2.71,1.52.3.13.55.37.83.54.56.35,1.16.61,1.83.72.98.16,1.95.38,2.93.56.32.06.65.08.98.14.52.07,1.03.16,1.54.22,1.23.15,2.39.52,3.48,1.33Z"/>
        <path class="cls-1" d="M31.75,21.5c-.08.03-.17.06-.25.11-.07.04-.06.3.03.38.13.13.26.33.42.35,1.81.23,3.4,1.09,5.06,1.73.53.2,1.03.45,1.55.68.82.37,1.61.79,2.34,1.29.16.11.33.2.5.26.07.03.17-.02.26-.05.1-.05.13-.27.05-.38-.08-.11-.15-.25-.26-.33-.26-.2-.53-.41-.82-.55-2.36-1.18-4.73-2.32-7.23-3.17-.53-.18-1.07-.36-1.66-.32Z"/>
        <path class="cls-1" d="M36.83,19.25c-.14,0-.29.04-.41-.01-.94-.38-1.89-.77-2.74-1.35-.28-.04-.56-.1-.84-.11-.12,0-.25.08-.38.12.06.11.09.27.19.33.32.2.65.38.99.54,1.48.7,2.96,1.4,4.43,2.1.19-.14.28-.28.14-.48-.22-.32-.54-.52-.86-.71-.19-.11-.45-.16-.52-.43Z"/>
        <path class="cls-1" d="M51.12,30.61c-.05-.24-.08-.48-.17-.7-.25-.62-.75-.78-1.24-.6-.09.03-.18.06-.27.09-.31.13-.49.47-.43.8.08.43.28.8.6,1.09.22.2.5.26.78.22.25-.03.45-.16.55-.39.08-.17.12-.35.18-.53Z"/>
      </g>
    </g>
  </g>
</svg>