<?xml version="1.0" encoding="UTF-8"?>
<svg id="Layer_2" data-name="Layer 2" xmlns="http://www.w3.org/2000/svg" viewBox="0 0 45.41 39.4">
  <defs>
    <style>
      .cls-1 {
        fill: #eeb460;
      }

      .cls-1, .cls-2 {
        fill-rule: evenodd;
      }

      .cls-2 {
        fill: #753d22;
      }
    </style>
  </defs>
  <g id="Layer_2-2" data-name="Layer 2">
    <g>
      <path class="cls-1" d="M25.55,27.75c.13.09.26.11.27.18.2.74.39,1.47.57,2.21.05.23.07.47.08.7.03,1.05.05,2.09.1,3.14.01.48.04.95.08,1.43.04.58.21,1.12.56,1.59.1.15.26.31.29.48.11.92.87,1.31,1.5,1.79.13.1.36.14.54.12.33-.04.65-.13.97-.22.24-.07.41-.24.51-.46.06-.12.1-.27.17-.4.19-.38.09-.75-.12-1.08-.32-.47-.69-.92-1.14-1.27-.28-.22-.41-.5-.48-.85-.13-.61-.16-1.21-.02-1.83.08-.37.13-.75.15-1.12.03-.48.04-.96,0-1.43-.12-1.56-.26-3.12-.4-4.69-.08-.85-.18-1.7-.27-2.56-.03-.32.07-.53.38-.69.93-.48,1.87-.93,2.79-1.42.64-.33,1.26-.68,1.88-1.04.21-.12.41-.25.58-.41,1.16-1.09,2.15-2.29,2.66-3.83.19-.58.38-1.18.58-1.76.26-.78.37-1.58.4-2.39.03-.47.06-.95.11-1.43.05-.48.29-.68.75-.64.28.02.57.01.85.09,1.03.27,2.07.27,3.12.22.28-.01.58-.07.83.1.26.16.51.24.79.06.33-.21.61-.47.69-.86.18-.77.04-1.51-.25-2.23-.05-.13-.14-.25-.24-.35-.35-.32-.68-.67-1.06-.95-.62-.45-1.25-.86-1.9-1.26-.65-.4-1.26-.85-1.81-1.38-1.37-1.29-1.31-1.34-3.4-1.43-.28,0-.56-.03-.81-.04-.42-.52-.78-1-1.19-1.46-.15-.17-.38-.27-.6-.38-.17-.09-.54.05-.61.23-.13.31-.23.63-.36.94-.14.38-.35.49-.78.42-.32-.06-.65-.14-.98-.2-.28-.05-.57.14-.67.42-.23.7-.26,1.4.03,2.08.31.71.47,1.46.52,2.22.12,1.67.09,3.32-.61,4.89-.2,1.21-1.1,1.84-2.03,2.44-.04.02-.08.06-.12.07-1.29.45-2.6.53-3.91.12-.23-.07-.43-.21-.65-.29-.53-.21-.85-.6-.98-1.14-.3-1.15-.59-2.3-.88-3.46-.05-.18-.06-.38-.11-.56-.49-1.85-2.09-2.76-3.69-2.8-.23-.01-.47.06-.68.16-1.6.76-2.64,1.99-3.07,3.71-.1.42-.14.84-.23,1.27-.13.65-.36,1.28-.71,1.85-.33.52-1.33.47-1.62.04-.16-.23-.31-.48-.4-.75-.23-.67-.43-1.36-.65-2.04-.14-.4-.28-.81-.44-1.2-.2-.46-.57-.74-1.04-.93-1.24-.49-2.31-.18-3.38.83-.28.26-.46.62-.45,1.02.01.66-.12,1.32,0,1.99.14.86-.16,1.59-.78,2.19-1.03,1.01-1.83,2.18-2.49,3.46-.16.29-.35.57-.59.8-.67.66-1.08,1.44-1.29,2.34-.1.42-.21.83-.31,1.25-.1.42-.13.84,0,1.27.07.22.08.47.08.7.04,1.14.12,2.28.38,3.4.04.18.09.39.03.55-.38,1-.08,1.97.1,2.95.05.23.16.46.38.58.11.06.3.12.38.08.63-.37,1.08-.92,1.42-1.55.14-.25.13-.55.09-.84-.07-.48-.3-.9-.5-1.33-.19-.42-.65-.54-.99-.88-.03-.19-.08-.42-.13-.64-.11-.38-.11-.75.02-1.12.14-.41.25-.83.38-1.23.03-.07.12-.12.2-.18.08-.07.23.02.31.21.34.79.67,1.58,1,2.37.38.87.76,1.74,1.15,2.61.54,1.19.8,2.42.71,3.74-.02.33,0,.67.08.98.08.39.1.75-.03,1.12-.08.21-.05.47-.02.71.09.8.2,1.6.29,2.4.04.34.15.64.31.95.22.4.52.64.99.71.67.09,1.33.13,1.98-.06.67-.21,1.31-.13,1.94.19.12.06.25.12.39.17.83.31,1.51.2,2.27-.68.14-.16.03-.53-.19-.59-.13-.04-.28-.04-.41-.02-.41.06-.54-.01-.6-.32-.04-.23-.08-.47-.12-.7-.03-.28-.03-.57-.1-.85-.35-1.41-.36-1.41.05-2.92.05-.18.09-.38.06-.56-.09-.68.08-1.32.22-1.97.18-.88.26-1.78.39-2.68.03-.19.06-.38.14-.54.05-.12.2-.2.32-.25.08-.03.19,0,.28.02,1.16.24,2.28.03,3.38-.25,1.33-.35,2.65-.74,3.91-1.3.21-.09.42-.21.7-.11.21.45.13.92.03,1.38-.11.55-.29,1.1-.44,1.65-.06.18-.14.36-.2.53-.35,1.14-.57,2.26-.29,3.5.29,1.3.5,2.62.79,3.92.11.5.22,1.02.57,1.44.16.19.42.33.62.23.75-.35,1.53-.5,2.34-.54.34-.02.64-.17.92-.35.23-.15.34-.47.28-.75-.08-.34-.27-.61-.57-.78-.17-.09-.36-.13-.53-.2-.32-.12-.59-.32-.75-.63-.18-.33-.36-.67-.52-1.01-.11-.22-.12-.46-.07-.69.05-.19.1-.37.15-.55.52-1.68,1.18-3.3,1.9-4.91Z"/>
      <g>
        <path class="cls-2" d="M20.94,8.47l.02-.09.02.09h-.04ZM11.79,25.4c.02-.08.03-.15.06-.23,0-.01.09,0,.11.01.07.05.13.11.15.19,0,.03-.09.14-.13.14-.07,0-.14-.08-.2-.12h0ZM2.58,20.59c0-.07.06-.15.09-.22.05.07.11.14.12.21,0,.07-.06.15-.1.22-.04-.07-.11-.14-.11-.21h0ZM1.74,28.04s.09.05.1.1c.02.03.02.11,0,.13-.15.13-.49.11-.43-.01.06-.12.18-.22.33-.22h0ZM34.16,1.26c.09.06.22.11.3.21.15.19.13.44-.03.47-.12.01-.28,0-.38-.08-.17-.11-.11-.52.1-.6h0ZM1.63,20.59c-.01.22-.01.46-.04.69,0,.09-.06.19-.12.23-.07.05-.17.06-.26.06-.03,0-.08-.06-.09-.1-.04-.53.1-1.02.34-1.49.01-.03.08-.05.12-.06.02,0,.05.06.06.09,0,.19,0,.38,0,.58h0ZM9.02,34.69c0,.61,0,.9,0,1.18,0,.19-.03.38-.07.56-.02.08-.09.17-.17.2-.07.04-.2.02-.24-.03-.22-.24-.44-.5-.64-.75-.15-.2-.21-.43-.21-.67,0-.48.03-.95.21-1.4.12-.31.23-.62.37-.92.32-.61.43-1.24.37-1.92-.03-.42.01-.85.03-1.27,0-.03.07-.07.1-.08.02,0,.09.04.09.05,0,.42,0,.85-.05,1.27-.07.57-.06,1.13.05,1.7.14.8.19,1.59.17,2.07h0ZM9.18,27.71c.08-.23.11-.38.17-.5.09-.22.2-.43.28-.66.28-.76.67-.69,1.21-.4.12.07.24.16.35.24.38.33.56.71.5,1.26-.1.9-.23,1.78-.45,2.66-.07.28-.21.55-.21.83,0,1.01-.27,1.98-.42,2.95-.15,1.06-.17,2.09.34,3.07.02.04.04.09.06.13.07.23.14.46-.01.68-.1.15-.46.05-.75-.19-.23-.2-.36-.45-.37-.75-.01-.48-.03-.95,0-1.43.06-.76.04-1.52-.08-2.27-.08-.51-.08-1.04-.08-1.56,0-.81,0-1.62.01-2.42,0-.44-.09-.84-.35-1.21-.08-.11-.13-.25-.21-.43h0ZM28.09,34.79c.2.38.46.74.57,1.13.13.47.35.88.6,1.29.1.16.19.33.27.5.04.08.08.18.08.27,0,.09-.03.2-.1.25-.06.04-.18.05-.26.02-.53-.18-.85-.61-1.14-1.03-.12-.18-.04-.48-.15-.68-.51-.87-.52-1.81-.52-2.77s-.03-1.9-.08-2.85c-.02-.38-.1-.76-.18-1.12-.28-1.25-.58-2.5-.87-3.74-.04-.13-.07-.28-.08-.42-.04-.55.11-1.05.61-1.35.32-.19.59-.48,1.04-.54.12.35.28.7.33,1.06.13.85.3,1.68.27,2.55-.03.66.02,1.33.16,1.98.11.56.14,1.13.17,1.7.05,1.3-.21,2.55-.71,3.76h0ZM4.78,27.11c-.01-.12-.03-.23-.05-.34-.01.03-.05.06-.04.09.03.08.08.15.12.22.45,1.15.95,2.28,1.33,3.45.18.56.3,1.1.09,1.67-.1.27-.1.55-.08.83.06.57.1,1.14.13,1.71.01.23.03.49-.05.69-.19.43-.11.83-.04,1.26.19,1.15.41,1.55,1.99,1.17.02,0,.04-.07.07-.13-.29-.35-.59-.71-.9-1.07-.45-.53-.65-1.12-.61-1.84.05-.87.29-1.69.63-2.48.21-.49.31-.97.3-1.5,0-1.95.49-3.75,1.44-5.45.54-.96.89-1.99,1.26-3.02.12-.33.08-.65.04-.99-.01-.13.02-.27.08-.39.03-.06.21-.11.24-.09.13.12.3.26.35.42.19.66.2,1.31-.06,1.96-.07.17-.09.37-.12.55-.01.11.19.29.3.24.35-.16.64-.09.91.16.39.35.78.69,1.16,1.07.12.12.21.32.24.49.07.3.27.37.52.39.14.01.29,0,.42-.04.06-.02.16-.14.14-.19-.06-.17-.12-.36-.24-.51-.38-.47-.79-.95-1.19-1.42-.09-.11-.19-.22-.25-.34-.04-.08-.01-.18,0-.27.02-.09.28-.16.38-.11.4.19.66.54.94.86.41.45.81.93,1.23,1.38.12.14.28.26.44.36.07.04.18.02.27.01.22-.01.35-.23.24-.39-.41-.52-.83-1.04-1.25-1.55-.15-.18-.33-.35-.46-.54-.05-.06-.03-.18-.02-.27.01-.09.29-.16.38-.11.16.1.33.19.46.32.34.34.67.68.99,1.03.29.3.57.63.88.94.25.26.47.2.8-.22-.38-.41-.78-.81-1.15-1.24-.11-.14-.17-.32-.24-.5,0-.03.02-.09.04-.13.04-.12.13-.15.23-.08.45.35.9.7,1.34,1.05.22.17.43.36.67.52.11.07.26.11.4.11.08,0,.18-.07.23-.13.04-.06.07-.21.03-.25-.31-.36-.63-.71-.96-1.06-.16-.17-.32-.34-.47-.53-.09-.1-.07-.33.03-.37.08-.03.18-.09.25-.06.27.08.53.19.8.29.16.35.4.63.75.79.03,0,.09-.03.11-.06.02-.03.03-.09.01-.11-.22-.31-.49-.57-.91-.6-.1-.35-.5-.4-.67-.67-.04-.07-.08-.21-.04-.26.09-.09.23-.21.33-.19.22.05.41.18.63.27.21.08.43.15.65.23l.04.1-.07-.08c-.32-.35-.64-.7-.93-1.06-.09-.1-.12-.25-.18-.38-.01-.04-.02-.11,0-.14.07-.05.16-.13.24-.13.13.01.29.04.4.12.55.38,1.09.76,1.62,1.16.11.08.24.21.25.33.1.71.66,1.15.93,1.75.1.22.15.43.1.68-.15.7-.3,1.4-.36,2.1-.06.77-.23,1.51-.49,2.22-.17.45-.32.9-.47,1.35-.19.6-.22,1.22-.07,1.83.22.88.33,1.78.45,2.67.08.61.25,1.21.39,1.81.08.31.34.47.64.43.14-.02.28-.03.42-.05.38-.07.75-.14,1.12-.22,0-.1.04-.23,0-.25-.22-.18-.48-.31-.7-.48-.21-.16-.43-.11-.67-.1-.11,0-.28-.1-.34-.2-.35-.61-.41-1.27-.28-1.94.17-.79.37-1.57.68-2.32.33-.79.63-1.6.95-2.39.41-1.02.72-2.06.97-3.13.21-.93.53-1.83.84-2.73.14-.39.39-.76.57-1.11.66-.27,1.28-.5,1.9-.75.39-.16.38-.16.34-.74,0-.08.02-.2.08-.25.06-.05.19-.08.25-.05.14.04.26.11.38.19.16.11.3.23.46.34.21.14.43.18.67.07.13-.05.27-.08.41-.14.18-.06.23-.21.15-.46-.03-.09-.08-.17-.1-.25-.03-.12.15-.3.26-.27.19.04.36.11.54.15.19.04.37.1.56.1.25,0,.46-.1.59-.33.13-.21,0-.36-.12-.5-.12-.15-.29-.26-.26-.48,0-.07.1-.16.17-.18.25-.06.44.14.66.21.23.08.46.12.7.06.1-.03.24-.26.18-.33-.29-.32-.58-.63-.88-.94-.12-.13-.26-.27-.36-.43-.03-.04.02-.15.05-.24.01-.03.08-.07.12-.06.13.03.29.04.4.1.36.23.7.49,1.07.71.23.14.58.02.73-.24.1-.15.08-.44-.03-.53-.33-.27-.67-.53-1-.8-.04-.05-.07-.19-.03-.25.03-.06.16-.13.23-.11.18.04.36.1.54.17.22.09.43.19.65.27.07.02.19-.05.23-.12.05-.05.07-.17.05-.25-.02-.08-.08-.17-.15-.23-.28-.25-.57-.5-.85-.76-.09-.08-.1-.32-.01-.37.08-.05.19-.1.25-.07.26.11.52.24.77.37.3.14.5.09.6-.14.1-.23.05-.43-.19-.63-.7-.56-1.41-1.12-2.1-1.7-.06-.04-.07-.18-.05-.25.03-.13.23-.25.33-.21.26.12.53.22.76.38.43.28.85.6,1.27.9.09.06.29-.08.31-.2.04-.2,0-.4-.13-.54-.2-.19-.44-.35-.67-.52-.35-.25-.71-.49-1.04-.74-.05-.03-.06-.19-.02-.25.04-.06.17-.14.23-.12.31.1.62.21.93.33.22.09.43.2.65.27.05.03.15-.05.22-.11.01-.01,0-.11-.03-.13-.17-.16-.33-.34-.53-.46-.44-.27-.91-.52-1.36-.77-.11-.07-.2-.32-.13-.35.12-.06.26-.11.39-.1.14,0,.28.06.41.12.32.11.62.25.93.36.13.05.28.07.42.1l-.02.02c-.05-.25-.25-.39-.46-.51-.61-.37-1.19-.79-1.64-1.35-.05-.06-.08-.19-.05-.26.01-.06.13-.12.21-.13.18-.02.37.07.53-.09.19-.21.41-.21.63-.07.29.16.56.39.86.51,1.01.41,2.02.84,3.09,1.09.84.2,1.68.25,2.54.06.37-.08.76-.11,1.12-.21.48-.12.69-.77.4-1.17-.14-.19-.3-.36-.47-.53-.63-.59-1.33-1.09-2.08-1.49-.89-.48-1.68-1.08-2.41-1.76-.66-.62-1.45-.89-2.32-.96-.52-.05-1.04,0-1.57-.02-.54-.02-.92.11-.97.73-.01.18-.33.26-.46.14-.57-.54-1.25-.84-1.99-1.04-.17-.05-.37.11-.42.29-.08.29-.04.57.07.84.31.8.51,1.63.49,2.5-.01.27.1.56.2.82.16.41.19.84.13,1.26-.11.9-.25,1.79-.5,2.67-.16.56-.44,1.04-.89,1.42-.15.12-.3.24-.42.38-.99,1.12-2.25,1.69-3.72,1.9-1.02.15-2,0-2.97-.22-.61-.13-1.12-.54-1.52-1.02-.17-.21-.28-.49-.35-.77-.2-.78-.37-1.56-.58-2.34-.03-.11-.19-.29-.26-.28-.48.09-.69-.19-.85-.57,0-.04-.08-.04-.12-.07-.09.31.03.68-.25.93-.06.05-.17.06-.26.07-.04,0-.07-.05-.1-.08-.03-.03-.07-.08-.07-.12,0-.79-.32-1.47-.59-2.18-.09-.23,0-.48.28-.55.3-.08.35-.29.45-.49.07-.15.03-.29-.08-.38-.21-.2-.45-.34-.75-.39-.69-.09-1.31.04-1.88.47-.66.51-1.12,1.17-1.57,1.84-.1.51-.26,1.02-.3,1.54-.06.77-.32,1.48-.63,2.17-.06.14-.13.26-.2.39-.24.44-.59.72-1.09.86-.83.23-1.66-.05-2.11-.76-.1-.16-.2-.33-.26-.51-.2-.54-.58-.83-1.15-.88-.17.08-.33.18-.5.25-.1.05-.33-.07-.35-.17-.13-.6-.17-1.21-.23-1.82,0-.06.11-.18.18-.2.27-.07.55-.1.81-.15.1-.23.03-.42-.08-.56-.37-.53-1.03-.8-1.62-.65-.23.06-.46.13-.68.23-.73.31-1.05.91-.92,1.73.03.17.14.36.27.48.25.24.44.49.48.85.06.34.02.66-.29.89-.15.11-.29.24-.4.39-.21.32-.37.67-.59.97-.2.27-.46.49-.7.75-.06.66.03,1.31.13,1.97.03.18.02.38-.01.56-.01.07-.12.14-.2.18-.08.02-.2.02-.25-.03-.1-.09-.21-.2-.25-.33-.09-.27-.12-.56-.2-.83-.02-.08-.11-.17-.19-.2-.06-.02-.18.03-.23.09-.18.22-.35.46-.3.77-.11,0-.15.05-.11.12,0,0,.08,0,.09-.02.01-.03,0-.07.01-.11.25.21.55.39.57.77.04.58.31,1.09.45,1.64.03.14.07.28.06.42,0,.09-.06.18-.12.24-.06.07-.34.03-.39-.05-.1-.15-.22-.31-.29-.48-.19-.43-.35-.88-.54-1.31-.02-.04-.15-.04-.24-.04-.02,0-.08.06-.08.1-.02.14-.05.29-.02.42.17.84.37,1.67.75,2.44.14.27.17.53-.03.8-.13.17-.1.36-.03.54.21.59.57,1.1.89,1.62.1.15.22.38.17.52-.17.52.09.93.3,1.34.27.5.56.99.82,1.5.1.21.17.44.22.67.01.07-.05.18-.11.24-.08.08-.32.06-.39-.02-.12-.15-.23-.3-.34-.44-.14-.19-.28-.37-.43-.54-.02-.03-.09-.01-.14-.01h0ZM3.11,22.79c.14.23.29.46.43.69.06.1.03.21-.07.22-.06,0-.17-.08-.19-.14-.07-.26-.1-.53-.15-.8-.05-.07-.28-.05-.12-.23.03.09.05.17.09.26h0ZM25.55,27.75c.13.09.26.11.27.18.2.73.39,1.47.57,2.21.05.23.07.47.08.7.03,1.05.05,2.09.09,3.14.02.48.05.95.08,1.43.04.58.21,1.12.56,1.59.1.15.26.31.29.48.11.92.87,1.31,1.5,1.79.13.1.36.14.54.12.33-.04.65-.13.96-.22.25-.07.41-.24.52-.46.06-.13.1-.27.17-.4.19-.38.09-.75-.12-1.08-.32-.47-.69-.92-1.14-1.27-.28-.22-.41-.5-.48-.85-.13-.61-.16-1.21-.02-1.83.08-.37.13-.75.15-1.12.03-.48.04-.96,0-1.43-.12-1.56-.26-3.12-.4-4.69-.08-.85-.18-1.7-.27-2.56-.03-.32.07-.53.38-.69.93-.48,1.87-.94,2.79-1.42.64-.33,1.26-.68,1.88-1.04.21-.12.41-.25.58-.41,1.16-1.08,2.15-2.28,2.66-3.82.19-.58.38-1.18.58-1.76.26-.78.37-1.58.4-2.39.03-.47.06-.95.11-1.43.05-.48.29-.68.75-.64.28.01.57.01.85.09,1.03.27,2.07.27,3.12.22.28,0,.58-.07.84.1.25.16.51.24.79.06.33-.21.61-.47.69-.86.18-.77.04-1.51-.25-2.23-.05-.13-.15-.25-.24-.35-.35-.32-.68-.67-1.06-.95-.62-.45-1.25-.86-1.9-1.26-.65-.4-1.26-.85-1.81-1.38-1.37-1.29-1.31-1.34-3.4-1.43-.28,0-.56-.03-.81-.04-.41-.52-.78-1-1.19-1.46-.15-.17-.38-.27-.6-.38-.17-.09-.54.05-.61.23-.13.31-.23.62-.36.94-.14.38-.35.49-.78.42-.32-.06-.65-.14-.98-.2-.28-.05-.57.14-.67.42-.23.7-.26,1.4.03,2.08.31.71.47,1.46.52,2.22.12,1.67.09,3.32-.61,4.89-.2,1.21-1.1,1.84-2.03,2.44-.04.02-.08.06-.12.07-1.29.45-2.6.53-3.91.12-.23-.07-.43-.21-.65-.29-.53-.21-.85-.6-.98-1.14-.3-1.15-.59-2.3-.88-3.46-.05-.18-.06-.38-.11-.56-.49-1.85-2.09-2.76-3.69-2.8-.23-.01-.47.06-.68.16-1.6.76-2.64,1.99-3.07,3.71-.1.42-.14.84-.23,1.27-.13.65-.36,1.28-.71,1.85-.33.52-1.33.47-1.63.04-.16-.23-.31-.48-.4-.75-.23-.67-.43-1.36-.65-2.04-.14-.4-.28-.81-.45-1.2-.2-.46-.56-.74-1.03-.93-1.24-.49-2.31-.18-3.38.83-.28.26-.46.62-.45,1.02.01.66-.12,1.32,0,1.99.14.86-.16,1.59-.78,2.19-1.03,1.01-1.83,2.18-2.49,3.46-.16.29-.35.57-.59.8-.67.66-1.08,1.44-1.3,2.34-.1.42-.21.83-.31,1.25-.1.42-.13.84,0,1.27.07.22.08.47.08.7.04,1.14.12,2.28.38,3.4.04.18.09.39.03.55-.38,1-.08,1.97.1,2.95.05.23.16.46.38.58.11.06.3.12.38.08.63-.37,1.08-.92,1.42-1.55.14-.25.12-.55.08-.84-.07-.48-.3-.9-.5-1.33-.19-.42-.65-.54-.99-.88-.03-.19-.08-.42-.13-.64-.11-.38-.11-.75.02-1.12.14-.41.25-.83.38-1.23.03-.07.12-.12.2-.18.08-.07.23.02.31.21.34.79.67,1.58,1,2.36.38.88.76,1.75,1.15,2.62.54,1.19.8,2.42.71,3.74-.02.33,0,.67.08.98.08.39.1.75-.03,1.12-.08.22-.05.47-.02.71.09.8.2,1.6.29,2.4.04.34.15.64.31.95.22.4.52.64.99.71.67.09,1.33.13,1.98-.06.67-.21,1.31-.13,1.94.19.12.06.25.12.39.17.83.31,1.51.2,2.27-.68.14-.16.03-.53-.19-.59-.13-.04-.28-.04-.41-.02-.41.06-.54-.01-.6-.32-.04-.23-.08-.47-.12-.7-.03-.28-.03-.57-.1-.85-.35-1.41-.36-1.41.05-2.92.05-.18.09-.38.06-.56-.1-.68.08-1.32.22-1.97.18-.88.26-1.78.39-2.68.03-.18.06-.38.14-.54.05-.12.2-.2.32-.25.08-.03.19,0,.28.02,1.16.24,2.28.03,3.38-.25,1.33-.35,2.65-.74,3.91-1.3.21-.09.42-.21.7-.11.21.45.13.92.03,1.38-.11.55-.29,1.1-.44,1.65-.06.18-.14.36-.2.53-.35,1.14-.57,2.26-.29,3.5.29,1.3.5,2.62.79,3.92.11.5.22,1.02.57,1.44.16.19.42.33.62.23.74-.35,1.53-.5,2.34-.54.34-.02.64-.17.92-.35.23-.15.34-.47.28-.75-.08-.34-.27-.61-.57-.78-.17-.09-.36-.13-.53-.2-.32-.12-.59-.32-.75-.63-.18-.33-.36-.67-.52-1.01-.11-.22-.12-.46-.07-.69.05-.19.1-.37.15-.55.52-1.68,1.18-3.3,1.9-4.91Z"/>
        <path class="cls-2" d="M16.84,9.88c-.06.23-.12.46.08.65.03.03.08.05.12.05.33,0,.52-.19.64-.46.05-.13.09-.27.14-.41.37.24.16.7.4.98.05.06.16.12.23.12.08,0,.17-.07.24-.12.04-.03.07-.07.08-.11.17-.86.09-1.69-.36-2.46-.06-.11-.21-.17-.34-.23-.12-.06-.31.1-.4.31-.02.04,0,.1-.03.13-.18.27-.41.5-.53.79-.12.25-.07.56-.29.78l.02-.03Z"/>
        <path class="cls-2" d="M37.67,3.71c-.19-.04-.48.22-.49.42-.02.39.11.74.26,1.09.06.13.33.25.5.21.19-.05.36-.13.42-.34.13-.49-.12-1.09-.55-1.36-.04-.02-.09-.02-.13-.03Z"/>
        <path class="cls-2" d="M16.82,9.91c-.06-.22-.11-.45-.18-.67-.08-.22-.29-.35-.43-.26-.11.06-.23.18-.25.29-.07.37-.11.74-.12,1.11,0,.1.16.22.27.28.04.04.19-.04.24-.11.17-.21.32-.44.48-.67l-.02.03Z"/>
        <path class="cls-2" d="M7.67,10.9c.03.2.03.43.1.65.03.11.16.22.27.28.13.07.38-.07.44-.23.03-.08.07-.17.07-.26.02-.34-.12-.64-.34-.88-.07-.08-.25-.1-.37-.09-.05,0-.11.13-.13.22-.03.09-.01.19-.03.31Z"/>
      </g>
    </g>
  </g>
</svg>