<?xml version="1.0" encoding="UTF-8"?>
<svg id="Layer_2" data-name="Layer 2" xmlns="http://www.w3.org/2000/svg" viewBox="0 0 64.52 32.54">
  <defs>
    <style>
      .cls-1 {
        fill: #753d22;
        fill-rule: evenodd;
      }
    </style>
  </defs>
  <g id="Layer_2-2" data-name="Layer 2">
    <g>
      <path class="cls-1" d="M27.51,7.5c.62.81.96,1.26,1.28,1.68-.11.34-.11.7-.29.87-3.74,3.39-7.5,6.76-11.24,10.13-1.77,1.59-3.49,3.24-5.29,4.79-.49.42-1.19.61-1.79.89-.72-1.33.1-1.9.69-2.47,3.42-3.31,6.87-6.59,10.29-9.89.62-.59,1.19-1.23,2.38-2.45-3.89,1.53-5.95,4.11-8.45,6.08-2.46,1.93-4.79,4.02-7.2,5.99-2.49,2.02-4.77,4.31-7.79,6.43,0-1.02-.22-1.71.04-2.08.82-1.22,1.71-2.45,2.78-3.44C11.19,16.31,19.99,9.22,29.35,2.85c.86-.59,1.78-1.08,2.64-1.65,2.54-1.69,5.1-1.54,7.52.1,2.08,1.41,4.13,2.92,5.98,4.62,2.3,2.11,4.35,4.48,6.54,6.7,3.34,3.39,6.73,6.73,10.05,10.14.91.94,1.72,2.01,2.4,3.13.18.3-.2,1.09-.53,1.48-.17.2-.86.12-1.21-.05-.53-.24-1-.64-1.43-1.05-2.28-2.13-4.61-4.21-6.79-6.44-3.74-3.82-7.34-7.79-11.11-11.6-1.45-1.46-3.12-2.75-4.83-3.92-1.86-1.28-3.91-1.34-5.88-.13-1.64,1.01-3.25,2.07-5.18,3.3Z"/>
      <path class="cls-1" d="M13.61,30.08c-.43-.26-.76-.34-.88-.55-.13-.22-.18-.62-.06-.83,2.22-4.29,5.08-8.01,9.43-10.34.27-.14.94.04,1.15.29.17.21.06.95-.16,1.12-3.48,2.44-5.81,5.89-8.28,9.23-.32.44-.83.75-1.2,1.08Z"/>
      <path class="cls-1" d="M19.75,29.78c-.1-.37-.43-.9-.29-1.14,2.12-3.42,4.7-6.43,7.95-8.84.22-.16.56-.23.83-.21.27.03.59.17.75.37.15.2.28.69.18.78-3.19,2.81-5.29,6.69-8.9,9.1-.09.06-.27-.03-.52-.05Z"/>
      <path class="cls-1" d="M33,23.84c.01.29.15.66.02.85-1.23,1.84-2.46,3.69-3.82,5.44-.23.31-1.27.44-1.47.22-.31-.34-.5-1.23-.27-1.57,1.13-1.71,2.38-3.35,3.67-4.95.23-.29.79-.38,1.21-.42.21-.02.44.28.67.44Z"/>
      <path class="cls-1" d="M3.91,32.54c-.29-.54-.71-1.01-.61-1.2.32-.62.76-1.22,1.3-1.63,1.13-.89,2.47-.94,2.6-.22.2,1.09-.7,1.5-1.35,1.99-.54.41-1.21.67-1.94,1.05Z"/>
      <path class="cls-1" d="M37.88,26.55c-.32.9-.43,1.7-.85,2.23-.27.35-1.11.54-1.54.38-.39-.16-.83-.9-.78-1.33.09-.68.47-1.4.93-1.92.32-.37,1.04-.71,1.46-.6.36.09.55.84.77,1.23Z"/>
      <path class="cls-1" d="M28.53,12.63c.15.25.55.6.53.92-.08.89-1.17,1.64-1.91,1.35-.21-.08-.43-.44-.45-.69-.05-.93.74-1.66,1.83-1.58Z"/>
      <path class="cls-1" d="M43.69,28.04c-.93.37-1.46.78-1.82.67-.42-.13-.93-.69-.97-1.1-.03-.32.73-1.04.95-.97.54.18.97.7,1.83,1.4Z"/>
    </g>
  </g>
</svg>