<?xml version="1.0" encoding="UTF-8"?>
<svg id="Layer_2" data-name="Layer 2" xmlns="http://www.w3.org/2000/svg" viewBox="0 0 39.78 36.15">
  <defs>
    <style>
      .cls-1 {
        fill: #753d22;
        fill-rule: evenodd;
      }
    </style>
  </defs>
  <g id="Layer_2-2" data-name="Layer 2">
    <path class="cls-1" d="M24.04,23.6l-.07.11h.11s-.04-.11-.04-.11h0ZM26.77,9.02c0,.05.03.12,0,.17-.33.7-.65,1.4-.98,2.1-.07.14-.3.22-.46.15-.22-.09-.42-.37-.36-.55.23-.82.57-1.56,1.28-2.1.04-.03.11-.04.16-.05.06-.01.14-.04.17,0,.08.08.13.19.19.29h0ZM19.88,14.39c-.09.08-.2.22-.34.29-.08.04-.22-.03-.33-.06-.05-.02-.1-.07-.12-.12-.54-1.19-1.36-2.24-1.72-3.52-.16-.57-.44-1.1-.65-1.67-.05-.17,0-.36.15-.48.16-.12.47-.03.59.2.26.47.55.93.75,1.43.3.78.6,1.54,1.09,2.23.27.38.4.86.57,1.3.04.1,0,.23,0,.41h0ZM6.34,10.87c.25.05.49.07.69.17.96.48,1.91.99,2.87,1.48.26.13.55.22.81.37.14.09.25.28.14.46-.08.13-.23.31-.36.32-.23.02-.49,0-.69-.12-1.22-.63-2.43-1.28-3.64-1.93-.08-.05-.17-.22-.14-.29.05-.15.19-.28.32-.46h0ZM17.26,18.71c-.1.16-.14.26-.22.34-.03.03-.11.03-.17.03-.05,0-.12-.01-.17-.04-.66-.51-1.36-.97-1.87-1.63-.42-.54-.93-.9-1.55-1.16-.43-.19-.89-.35-1.17-.78-.11-.17-.11-.33,0-.49.11-.17.32-.21.47-.13.65.29,1.28.62,1.9.96.21.1.41.25.58.41.62.63,1.25,1.28,1.86,1.93.15.16.23.39.33.57h0ZM8.45,20.63h.09s-.03-.11-.03-.11l-.06.11h0ZM18.87,30.94v-.08s-.12.03-.12.03l.12.05h0ZM23.86,31.64c-.1.06-.26.1-.28.17-.03.17-.03.38.05.51.28.47.69.81,1.15,1.09.05.03.12.04.17.02.05-.02.12-.09.12-.12-.22-.63-.58-1.17-1.05-1.63-.03-.04-.11-.03-.16-.05h0ZM26.21,32.23c-.06.18-.1.28-.13.38-.1-.06-.24-.09-.3-.18-.38-.6-.76-1.21-1.11-1.83-.08-.14-.09-.34-.08-.51,0-.1.09-.25.18-.29.08-.03.24.01.32.08.13.12.25.26.32.42.28.65.55,1.32.8,1.92h0ZM27.74,27.35c1,.44,1.96.9,3.07.8.06-.01.17-.05.16-.06-.02-.1-.03-.23-.09-.29-.54-.53-1.21-.76-1.94-.83-.41-.05-.84-.02-1.2.39h0ZM21.83,14.29c.14-.42.2-.53.2-.64,0-1.63-.31-3.2-.72-4.79-.86-3.27-2.67-5.23-5.49-6.98-.07-.05-.24,0-.32.06-.33.22-.4.7-.11.92.62.47,1.22.95,1.66,1.6.56.79,1.1,1.57,1.77,2.27.24.24.4.6.5.93.18.58.4,1.11.8,1.58.3.36.5.82.71,1.24.54,1.09.79,2.25.99,3.8h0ZM27.27,23.02c.36,0,.71,0,1.07,0,.36,0,.74-.1,1.09-.03,1.53.29,3.12.21,4.64.64.22.06.51.05.7-.04.98-.46,1.95-.95,2.91-1.44.38-.2.62-.56.8-.95.38-.8.09-1.62-.72-1.93-.9-.35-1.8-.66-2.66-1.1-.27-.13-.6-.11-.87.03-.12.06-.17.24-.27.4.6.11,1.14.2,1.67.31.17.03.34.12.51.19.17.06.29.32.18.43-.08.08-.17.2-.27.2-.36,0-.72,0-1.07-.03-1.2-.09-2.28.14-3.11,1.09-.03.04-.11.04-.19.07-.26-.08-.54-.16-.81-.24-.12.04-.25.05-.35.1-.82.38-1.64.75-2.44,1.17-.41.22-.83.5-.77,1.15h0ZM26.96,4.27c-.45-.31-.45-.3-.65-.26-.23.07-.44.18-.57.4-.26.43-.3.9-.37,1.38-.04.23-.12.46-.22.66-.04.08-.21.13-.31.12-.1-.01-.26-.09-.28-.17-.07-.34-.1-.7-.16-1.06,0-.04-.07-.11-.1-.11-.11,0-.26,0-.33.06-.13.11-.25.26-.32.42-.08.22-.1.47-.16.69-.05.18-.27.31-.41.24-.1-.05-.24-.12-.27-.21-.08-.22-.1-.46-.15-.7-.1-.53-.4-.81-.97-.85-.08,0-.24.13-.24.2.01.23.03.48.13.69.61,1.25.89,2.61,1.34,3.91.12.33.14.7.18,1.05.17,1.61.32,3.22.49,4.89.16-.08.36-.1.43-.21.71-1.11,1.43-2.21,2.1-3.35,1.33-2.23,2.27-4.63,2.83-7.16.01-.06,0-.12,0-.18.02-.16-.21-.42-.45-.51-.21-.08-.5.08-.56.3-.15.59-.28,1.17-.45,1.75-.05.16-.16.32-.28.45-.07.06-.23.09-.32.06-.1-.02-.22-.13-.24-.22-.04-.16-.04-.36-.02-.53.1-.59.21-1.17.32-1.75h0ZM14.32,5.3c-.04.48.35.73.54,1.09.08.14.17.35.12.49-.13.49-.06.96,0,1.44.02.1-.06.22-.09.33-.04.14-.36.22-.47.12-.08-.09-.2-.15-.25-.25-.12-.27-.21-.56-.34-.83-.12-.27-.41-.44-.54-.33-.17.14-.13.31-.06.48.02.05.06.11.07.16.12.47-.05.7-.53.6-.32-.07-.58-.08-.84.13-.51.43-1.05.81-1.75.85-.04,0-.12.07-.11.09.03.11.06.27.13.31,1.08.51,2.17,1.03,3.14,1.75.77.57,1.55,1.13,2.32,1.71,1.86,1.37,3.07,2.89,4.02,4.96.07.15.23.26.35.39.23-.29.16-.59.11-.88-.07-.35-.22-.69-.27-1.04-.01-.14.12-.38.25-.43.12-.06.36,0,.49.09.14.09.28.26.32.42.12.53.16,1.07.29,1.6.12.46.04.81-.37,1.09-.12.08-.21.33-.18.46.25.86.53,1.7.89,2.87.11-1.51.2-2.69.28-3.86,0-.12-.02-.25-.05-.36-.3-1.4-.43-2.85-.97-4.2-.09-.22-.16-.47-.16-.7.02-.99-.38-1.87-.71-2.77-.25-.68-.55-1.32-1.07-1.85-.2-.21-.38-.51-.41-.79-.07-.65-.37-1.13-.84-1.54-.13-.11-.24-.26-.34-.42-.41-.59-.89-1.13-1.13-1.83-.04-.12-.28-.2-.42-.28-.04-.03-.12-.04-.17-.01-.14.04-.15.15-.04.27.17.18.35.35.24.62-.09.23-.41.3-.78.19-.22-.05-.41-.29-.67-.13h0ZM4.62,19.06c1.6.19,3.22.19,4.84.04.91-.08,1.8,0,2.69.14,1.32.2,2.59.58,3.74,1.24,1.04.59,2.07,1.18,2.83,2.18.55.72,1.07,1.44,1.35,2.31.09.29.23.55.36.82.01.03.11.03.17.01.05-.01.12-.06.12-.1-.07-1.32-.37-2.6-.78-3.85-.05-.16-.19-.3-.41-.25-.32.06-.6-.04-.82-.28-.56-.58-.86-1.29-.97-2.09-.02-.16.05-.35.13-.5.12-.22.24-.44.13-.67-.09-.21-.22-.43-.39-.59-.45-.39-.93-.75-1.4-1.14-.38-.31-.7-.65-.74-1.19,0-.24-.15-.43-.36-.59-.81-.62-1.6-1.27-2.44-1.86-.58-.41-1.2-.79-1.85-1.12-.91-.45-1.86-.83-2.8-1.24-.45-.2-.92-.25-1.41-.23-.31.02-.59.12-.79.36-.19.23-.39.46-.53.72-.36.68-.33,1.42-.03,2.09.23.5.83.41,1.29.52.3.06.6.07.89.12.12.02.24.08.32.15.08.08.13.21.12.31,0,.1-.09.24-.17.29-.15.09-.33.15-.5.16-.48.04-.96.04-1.44.06-.14,0-.27.25-.22.41.06.24.19.43.46.49.29.06.59.12.86.22.09.03.16.18.19.29.07.2-.05.34-.22.43-.15.09-.32.16-.49.21-.29.08-.58.12-.87.18-.19.35-.36.66-.53.98-.16.29-.54.51-.34.97h0ZM35.79,13.79c-.23.05-.47.08-.69.18-.33.13-.64.34-.97.46-.15.05-.35,0-.51-.06-.06-.02-.13-.24-.09-.29.66-.79,1.56-1.29,2.4-1.86.79-.19,1.14-.82,1.47-1.48.08-.15,0-.38-.15-.46-.47-.28-1.04-.24-1.32.11-.31.37-.59.75-.9,1.13-.14.18-.34.14-.49.07-.14-.08-.3-.24-.32-.38-.04-.22.04-.47.06-.71.02-.25-.14-.46-.38-.54-.24-.08-.48-.08-.68.09-.14.11-.25.26-.36.4-.33.43-.64.87-.99,1.28-.11.14-.34.19-.48.06-.12-.1-.29-.32-.25-.43.14-.45.36-.89.55-1.33.08-.2-.05-.46-.29-.58-.05-.03-.11-.06-.16-.08-.32-.12-.5-.09-.65.12-.2.3-.4.6-.57.92-.89,1.64-1.71,3.31-2.66,4.92-.3.5-.41,1.12-.59,1.69-.03.11-.05.25-.02.36.05.15.12.32.22.44.03.04.23-.03.32-.09.91-.68,1.81-1.39,2.74-2.07.29-.21.63-.44.97-.47.66-.05,1.29-.23,1.94-.3.09-.01.23.09.29.17.06.09.09.25.05.33-.22.52-.63.88-1.12,1.12-.13.07-.39.06-.5-.02-.47-.36-.88-.24-1.31.07-1.08.78-2.12,1.59-3.07,2.52-.42.4-.85.63-1.45.47-.19-.05-.33.1-.42.26-.06.11-.09.23-.14.33-.16.34-.28.66.05.99.18.18.15.42.16.67,0,.38-.11.77.09,1.24.33-.47.54-.91.87-1.25.79-.83,1.57-1.69,2.47-2.38,1.33-1.02,2.61-2.14,4.12-2.92.83-.42,1.47-1.03,2-1.78.24-.34.54-.65.81-.97l.04-.08-.05.11h0ZM15.24,31.5c1.17-.94,1.94-2.2,2.75-3.44.04-.07-.02-.21-.04-.32-.09.02-.21,0-.26.06-.72.93-1.44,1.87-2.15,2.82-.18.23-.28.51-.42.77-.59.41-.99,1-1.41,1.57-.01.02.03.12.07.14.03.03.12.05.15.03.61-.4,1.01-.97,1.31-1.63h0ZM23.89,20.67c-.56-.01-.89.27-.97.83-.08.55-.08.62.1,1.32.4-.73.77-1.4.84-2.19.28-.64.57-1.29.87-1.94.15-.33.22-.67.16-1.04.27-.06.34-.3.43-.52.47-1.18,1.1-2.28,1.72-3.38.23-.42.51-.81.73-1.25.66-1.34,1.32-2.7,1.96-4.06.22-.46.23-.93-.01-1.39-.04-.07-.17-.09-.22-.11-.39.95-.74,1.9-1.18,2.82-.82,1.74-1.76,3.42-2.84,5.03-.33.5-.76.94-.9,1.54.14.45.57.82.35,1.35q-.88,1.27-1.04,2.97h0ZM22.45,28.26c-.32.27-.47.65-.61,1.04-.05.15-.06.36,0,.51.05.15.19.29.33.36.15.07.47-.28.43-.45-.06-.22-.13-.44-.22-.65-.12-.29-.1-.57.03-.84.24-.25.49-.5.74-.75.74-.22,1.38-.68,2.18-.81.76-.12,1.45-.54,2.2-.75.84-.25,1.63-.38,2.45,0,.22.1.46.1.68-.06.31-.23.65-.27,1.02-.18.53.12,1.05.25,1.58.35.16.02.33-.08.48-.13v-.22c-.09-.9-.26-.99-.92-1.07-1.19-.14-2.39-.32-3.59-.34-1.19-.02-2.4-.02-3.58.32-.28.08-.58.18-.81.35-.64.46-1.18,1.03-1.57,1.72-.15.27-.18.56-.1.86-.41.09-.76.25-.73.76h0ZM23.51,17.38c.02-.05.04-.11.05-.16.12.04.09.09-.09.13-.02.09-.04.19-.07.29-.12-.15.08-.17.1-.25h0ZM19.17,19.88l-.07-.05.09.04c.03.08.07.16.12.29-.06-.13-.1-.21-.15-.29h0ZM19.53,27.07c-.25-.16-.34-.42-.37-.7-.27-.3-.43-.69-.9-.82-.33-.1-.61-.37-.93-.53-1.02-.52-2.11-.83-3.27-.86-1.5-.04-2.98,0-4.46.38-.93.23-1.89.3-2.83.46-.55.09-1.09.03-1.6-.12-.63-.18-1.26-.38-1.86-.65-.66-.29-1.24-.71-1.55-1.41-.35-.19-.24-.52-.27-.81-.19-.09-.28-.25-.24-.43.15-.65.65-.96,1.23-1.19,1.25.02,2.52-.2,3.76.11.06.01.12.04.17.07.04.04.09.09.1.14,0,.04-.03.11-.07.13-1.02.33-2.02.73-3.13.68-.41-.01-.84.06-1.24.16-.21.05-.4.23-.61.36.14.23.28.45.42.68.78-.05,1.52-.29,2.32-.25.73.04,1.42-.25,2.08-.49.52-.19,1.02-.33,1.58-.2.67.15,1.31-.06,1.93-.25.3-.09.39-.46.16-.72-.11-.14-.27-.24-.44-.38.18-.04.33-.08.48-.08.42,0,.83.02,1.23.03.07.34-.16.48-.27.67-.11.2.08.52.27.58.59.16,1.19.05,1.79.04.16,0,.31-.17.45-.26.14-.09.29-.18.44-.28.26.54.32,1.15.97,1.46.6.28,1.14.26,1.74.09.15-.04.33.16.3.34-.01.06-.07.11-.08.17-.08.57.12.97.56,1.17.06.02.11.06.17.07,1.13.08,1.51.81,1.56,1.81,0,.06,0,.12.01.19.21.01.28.17.32.35.03.12.04.23.05.35.07.08.19.15.19.21,0,.1-.08.05-.09-.11,0-.05-.04-.09-.06-.14h0ZM33.26,27.46c-.11,0-.22.03-.32,0-.07-.02-.1-.13-.15-.2.09-.02.21-.07.29-.04.08.04.11.17.15.25.14-.02.19.03.15.13,0,0-.1,0-.11-.02-.02-.04-.01-.09-.02-.14h0ZM18.42,29.3l.05-.06-.08.05c-.03.27-.03.57-.32.74-.06.47-.3.89-.57,1.28-.21.31-.49.51-.88.51-.06.04-.11.08-.17.11.02-.03.03-.07.06-.08.04-.02.09,0,.13,0,.24-.86.63-1.34,1.45-1.78-.03-.31.04-.57.32-.75h0ZM26.04,18.84l-.08.04.04-.07s.05-.07.08-.1c-.02.04-.03.09-.05.13h0ZM16.54,26.11c-.24-.14-.43-.3-.64-.38-1.16-.42-2.35-.46-3.56-.31-.89.11-1.78.28-2.67.43-.65.11-1.31.19-1.95.34-1.88.45-3.58-.14-5.22-.93-.88-.42-1.52-1.18-2.04-1.99C.12,22.75,0,22.15,0,21.54c0-1.01.48-1.71,1.33-2.19.11-.05.22-.12.33-.15,1.58-.43,2.25-1.7,2.81-3.06.09-.21.09-.47.05-.71-.1-.53-.25-1.06-.36-1.58-.08-.35-.16-.71-.19-1.07-.11-.98.05-1.91.61-2.76.23-.36.44-.72.67-1.07.17-.26.43-.44.74-.46.78-.05,1.56-.1,2.34-.15.36,0,.73.02,1.09,0,.8-.02,1.55-.16,2.03-.93.12-.19.39-.29.54-.47.14-.18.29-.42.29-.62-.02-.51.16-.91.41-1.34.36-.62.69-1.28.87-1.97.18-.67.52-1.21.9-1.74.95-1.33,2.61-1.65,3.99-.76.45.29.85.68,1.22,1.07.37.38.63.87,1.24.97.14.03.29.21.39.35.27.34.58.61,1.03.67.54.07,1.08.11,1.57-.2.21-.12.42-.23.63-.35,1.26-.69,2.61-.87,4.02-.67.57.08,1.04.29,1.36.78.3.45.62.89.89,1.36.15.25.25.54.33.82.12.41.23.82.28,1.24.18,1.42.25,1.48,1.85,1.6.6.05,1.2.06,1.8.07.8,0,1.55.2,2.29.47.95.34,1.44,1.09,1.61,2.01.2,1.12-.09,2.16-.93,2.98-.21.21-.46.38-.67.6-.52.52-.9,1.12-1.11,1.83-.22.71-.07,1.01.68,1.12.6.08,1.2.19,1.73.49.25.14.51.36.64.6.91,1.76.42,3.62-.65,4.68-.35.35-.78.55-1.24.71-.58.21-1.09.49-1.25,1.17-.03.15-.21.29-.34.4-.31.28-.32.63-.23.99.08.29.2.57.25.86.17,1.04-.14,1.9-.98,2.55-.24.19-.5.33-.81.36-.18.01-.37,0-.54.05-1.37.43-2.61.04-3.84-.5-.67-.29-1.33-.57-2-.83-.16-.07-.36-.07-.53-.04-.09,0-.23.14-.23.22.05.78.11,1.56.5,2.26.49.89.47,1.86.41,2.81-.02.4-.22.81-.39,1.19-.38.78-.95,1.05-1.77.86-.35-.08-.71-.16-1.03-.32-.32-.15-.64-.33-.89-.58-.52-.5-.98-1.05-1.46-1.59-.21-.22-.41-.45-.63-.64-.49-.39-1.05-.57-1.68-.46-.78.15-1.51.42-2.14.9-.67.51-1.35,1-2.05,1.47-.4.27-.84.47-1.27.69-.1.06-.22.09-.34.12-1.13.29-2.05-.47-2-1.62.05-1.18.43-2.25,1-3.25.56-1,1.2-1.95,1.99-2.79.53-.56,1.04-1.15,1.42-1.91Z"/>
  </g>
</svg>