<?xml version="1.0" encoding="UTF-8"?>
<svg id="Layer_2" data-name="Layer 2" xmlns="http://www.w3.org/2000/svg" viewBox="0 0 70.99 40.2">
  <defs>
    <style>
      .cls-1 {
        fill: #753d22;
        fill-rule: evenodd;
      }
    </style>
  </defs>
  <g id="Layer_2-2" data-name="Layer 2">
    <path class="cls-1" d="M29.56,2.18s-.08-.03-.11-.02c-.03,0-.07.04-.1.06.04,0,.08.04.11.03.03-.01.06-.04.1-.06h0ZM51.87,26.08c-.37.14-.62.05-.85-.16-.14-.14-.1-.4.09-.48.34-.15.7-.04.83.31.04.09-.05.24-.07.33h0ZM43.16,25.7c-.27,0-.5-.12-.64-.33-.04-.07-.05-.2-.02-.28.04-.08.13-.18.2-.18.36-.03.65.25.65.62,0,.12-.09.17-.19.16h0ZM59.52,28.57c-.41.12-.76-.04-1.1-.25-.13-.09-.17-.22-.13-.37.04-.19.25-.29.45-.24.4.12.67.36.85.73h0c.19.02.4.02.57.08,1.02.36,2.03.74,3.04,1.12,1.15.43,2.23,1.02,3.3,1.59.74.39,1.49.75,2.23,1.12-.09-.11-.17-.26-.28-.33-1.72-1.18-3.53-2.19-5.47-2.98-1.09-.46-2.17-.98-3.22-1.51-1.22-.62-2.44-.9-4-.82-.2-.21-.43-.13-.66-.06-.04-.02-.08-.04-.12-.06.04,0,.09.01.13.02.2.2.43.14.66.07.09.21.31.22.47.32.17.1.33.21.48.33.1.07.02.33-.1.37-.09.03-.19.09-.28.08-.94-.11-1.83-.41-2.72-.73-.04-.02-.09-.05-.12-.09-.06-.08-.14-.19-.12-.24.12-.32,0-.54-.17-.81-.23-.39-.53-.55-.94-.64-.68-.13-1.35-.27-2.03-.42-.53-.12-1.04-.27-1.57-.41.03.18.09.36.08.54-.01.12-.17.31-.26.31-.55,0-1.07-.12-1.52-.47-.09-.07-.11-.35-.01-.4.21-.1.43-.19.64-.28-.23-.44-.62-.58-1.1-.51-.14.02-.28.09-.43.13-1.2.37-2.38.21-3.47-.33-.79-.4-1.53-.93-1.82-1.86-.1-.33-.33-.59-.52-.88-.61-.9-1.2-1.82-1.73-2.77-.32-.56-.64-1.11-1.01-1.69-.11.13-.26.23-.27.34-.09.58-.14,1.18-.2,1.77-.04.45-.3.7-.71.85-.61.22-1.23.36-1.87.44-.42.06-.6.39-.42.76.19.4.42.79.62,1.18.12.22.25.43.36.64.1.21,0,.53-.21.66-.17.11-.33.21-.51.31-.66.33-1.33.65-1.99.98-.04.01-.08.08-.07.1.06.08.12.2.19.2.49.03.99.01,1.48.04.19,0,.39.05.56.15.1.05.16.23.19.37,0,.06-.11.18-.18.2-.24.05-.49.09-.73.1-.35.02-.69,0-1.04.02-.03,0-.06.07-.09.13.13.09.24.16.37.23.63.35,1.27.44,1.99.22.81-.25,1.67-.2,2.52-.16.14,0,.29.05.43.1.14.06.25.16.26.32.01.17-.18.36-.38.38-.1,0-.2.01-.3.01-.64.02-1.29.05-1.92.05-1.08,0-1.84.65-2.62,1.26-.26.21-.23.54-.31.82-.03.12.12.27.27.28.36.01.54-.1.58-.45.04-.32.18-.54.46-.7,1.02-.54,2.1-.5,3.2-.4.66.06,1.27.22,1.6.9.07.15.41.17.53.05.58-.58,1.28-.92,2.04-1.18,1.05-.34,2.05-.21,3.04.23.52.22.88.62,1.19,1.08.62.9,1.47,1.46,2.54,1.65.15.03.3.06.44.08.85.11,1.65.37,2.43.68.6.23,1.2.51,1.71.88.96.69,1.89,1.44,2.62,2.4.3.4.65.75.99,1.11.37.4.83.68,1.34.91,1.12.52,2.28.64,3.49.54,1.74-.13,3.42-.49,5.07-1.08,1.04-.37,1.94-.98,2.85-1.56.08-.05.15-.13.22-.2.25-.25.31-.79.09-1.11-.16-.25-.36-.47-.7-.48.19.29.38.58.54.84-.07.43-.29.69-.69.7-2.33.06-4.65.13-6.97-.19-.1-.02-.19-.06-.28-.09-.16-.04-.32-.28-.23-.47.1-.23.08-.39-.16-.45-.29-.08-.58-.12-.87-.16-.19-.04-.39-.05-.58-.1-.08-.02-.19-.13-.19-.19,0-.13.05-.3.14-.38.1-.1.27-.15.41-.15.39.03.79.06,1.17.15.47.11.79.39.78.93,0,.04.05.08.11.16.46.04.95.14,1.44.11.46-.02.98.29,1.4-.17-.23-.5-.75-.64-1.17-.85-.62-.31-1.28-.53-1.91-.82-.17-.08-.3-.23-.45-.36-.03-.03-.05-.11-.03-.14.05-.08.12-.18.19-.19.41-.09.77.1,1.15.21,1.22.34,2.33.89,3.16,1.85.37.42.79.55,1.31.51.2-.02.38-.06.58-.1.04,0,.11-.06.1-.09,0-.08-.01-.19-.07-.23-.16-.11-.33-.21-.51-.29-.66-.34-1.33-.67-1.98-1.02-1.49-.79-2.98-1.56-4.58-2.12-.37-.14-.74-.29-.98-.64h0ZM60.17,30.2c-.47.17-.78.04-1.05-.17-.06-.05-.1-.16-.1-.25-.01-.16.06-.28.22-.33.44-.12.74.01.97.42.06.1-.02.32-.03.33h0ZM37.93,20.7s-.1.02-.14.01c-.33-.11-.57-.32-.68-.67-.05-.16.07-.42.22-.48.14-.05.28-.04.39.07.25.24.44.51.39.87,0,.07-.11.13-.17.2h0ZM50.12,27.29s-.09.05-.14.05c-.4-.03-.75-.19-1.09-.38-.13-.08-.2-.21-.15-.37.05-.15.18-.23.34-.25.36-.03.68.08.95.32.1.09.16.25.19.38.02.07-.05.17-.09.26h0ZM55.59,32.22c-.13.04-.23.09-.32.08-.4-.06-.75-.23-1.03-.52-.08-.09-.12-.34-.03-.41.11-.08.26-.18.38-.15.4.09.75.29.98.62.07.09.02.26.02.39h0ZM47.68,24.12c.36-.11.65.11.96.25-.36.05-.68,0-.96-.25h0ZM58.26,33.41s-.1.04-.14.04c-.54-.06-1.07-.16-1.56-.41-.1-.05-.19-.23-.2-.35-.02-.16.25-.34.41-.32.54.07,1.08.16,1.54.46.13.09.18.23.13.38-.03.08-.13.14-.19.21h0ZM54.3,28.48s-.03-.11-.01-.14c.05-.08.12-.2.19-.2.86-.04,1.66.19,2.38.65.04.03.07.08.1.11.1.09.14.34.05.41-.07.05-.19.12-.25.11-.76-.23-1.51-.47-2.26-.72-.08-.03-.12-.14-.19-.21h0ZM27.91,27.43c.05-.08.09-.14.13-.21-.04-.01-.09-.05-.13-.04-.08.01-.17.03-.25.07-.03.01-.05.07-.08.11.12.03.23.05.33.07h0ZM15.06,26.43c.23-.06.25-.27.32-.45.01-.04.01-.1,0-.14-.07-.1-.14-.08-.23,0-.15.14-.27.27-.27.48,0,.03.03.08.07.09.03.02.09.01.13.02h0ZM18.17,21.96s.02-.1.01-.14c-.1-.3-.35-.45-.65-.49-.07,0-.16.08-.23.14-.01,0,0,.09.03.11.2.23.45.36.73.43.03,0,.06-.04.1-.05h0ZM30.42,19.81c.08-.03.16-.06.25-.09-.04-.07-.06-.19-.11-.21-.3-.13-.61-.25-.93-.36-.11-.04-.2.03-.2.13,0,.09.01.2.06.27.05.07.15.13.23.14.23.05.47.08.7.12h0ZM43.8,22.5c-.76-.08-1.38-.23-1.81-.78-.04-.06-.03-.17-.02-.26,0-.03.07-.08.1-.08.58-.04,1.16-.03,1.75.12.02.16.05.31.05.45,0,.15-.03.29-.07.54h0ZM41.7,29.15c.08-.06.15-.16.23-.16.44-.03.88-.07,1.32-.02.45.05.83.29,1.06.71.02.04.04.11.02.13-.06.08-.13.17-.21.18-.14.04-.3.06-.43.04-.64-.11-1.24-.33-1.79-.66-.08-.04-.12-.14-.19-.22h0ZM24.86,16.49c.13-.11.24-.16.26-.24.03-.06-.02-.19-.08-.25-.52-.44-1.04-.89-1.67-1.18-.05-.02-.21.04-.23.1-.05.13-.12.31-.07.41.27.54.67.97,1.28,1.14.17.05.38.01.51.01h0ZM24.23,5.74c-.09-.58-.23-.89-.49-1.14-.54-.52-1.04-1.06-1.6-1.55-.9-.79-1.95-1.36-3.07-1.78-.9-.35-1.82-.44-2.78-.3-1.38.21-2.74.38-4.12.59-.43.06-.87.18-1.3.28-.06.02-.11.12-.14.2,0,.03.03.1.07.12.67.35,1.4.49,2.12.64.12.03.28-.04.42-.09.23-.06.47-.17.7-.2.64-.08,1.29-.19,1.92-.17.78.03,1.59.03,2.27.56.22.17.54.22.83.29.72.18,1.47.28,2.06.8.71.21,1.43.35,2.09.72.41.23.72.51,1,1.05h0ZM55.63,25.72c.25-.33.57-.16.84-.21,1.12-.19,2.26-.29,3.37-.5,1.33-.25,2.56.03,3.77.52.83.33,1.56.85,2.26,1.4.08.06.16.12.22.2.74,1.1,1.64,2.1,2.22,3.31.02.04.01.14,0,.14-.08.03-.17.04-.25.05-.05,0-.1-.03-.14-.05-1.49-.99-3.1-1.74-4.76-2.41-1.09-.44-2.15-.99-3.2-1.55-.54-.29-1.08-.47-1.67-.55-.68-.1-1.38-.15-2.06-.24-.19-.02-.38-.08-.59-.13h0ZM21.37,22.76h.09s-.05-.02-.08-.04c-.41.26-.86.18-1.3.16-.44-.03-.63-.16-.66-.64-.05-.72-.46-1.18-1.02-1.53-.25-.16-.54-.26-.81-.36-.44-.15-.86-.15-1.22.25-.17.19-.63.06-.77-.18-.12-.2-.25-.43-.31-.66-.24-.89-.86-1.42-1.68-1.75-.14-.05-.28-.11-.42-.16-.55-.19-1.07-.18-1.52.25-.07.06-.17.09-.26.13-.1,0-.21.03-.29,0-.68-.32-1.41-.43-2.16-.47-.29-.01-.59-.05-.89-.05-1.23.04-2.2-.47-3.01-1.35-.06-.07-.08-.18-.12-.27-.05-.02-.1-.04-.16-.06.03,0,.08-.02.09-.01.03.03.04.08.05.11.09-.03.19-.09.28-.08.2,0,.4.01.59.07,1.33.48,2.72.41,4.11.37.44-.01.9,0,1.33-.08.6-.11,1.18,0,1.77,0,1.83,0,3.49.64,5.1,1.4,2.51,1.19,4.94,2.52,7.5,3.59.77.33,1.53.72,2.26,1.12.58.33,1.21.42,1.86.44.39.01.79,0,1.19-.04.34-.03.69-.1.94-.38.18-.19.38-.29.64-.29.34,0,.68-.04,1.04-.08-.03.09-.03.21-.09.23-.3.17-.61.32-.91.49-.48.25-.95.54-1.44.76-.62.27-.9.73-.83,1.41,0,.04-.05.06-.11.12-.5-.13-1.03-.27-1.56-.4-.47-.12-.96-.22-1.44-.34-.26-.06-.43-.23-.5-.49-.06-.24-.11-.48-.2-.71-.12-.31-.54-.52-.85-.43-.1.02-.21.03-.28.09-.77.52-1.52.17-2.28,0-.12-.04-.24-.18-.33-.29-.15-.19-.25-.43-.41-.61-.37-.45-.89-.57-1.48-.34-.18.08-.34.19-.49.32-.06.05-.1.17-.09.26.01.08.09.2.17.22.19.05.38.07.57.09.15.02.29.06.36.21h0ZM35.82,18.11c-.15.43-.51.41-.86.38-.09,0-.2-.09-.22-.15-.23-.72-.8-1.12-1.41-1.47-.43-.25-.88-.46-1.31-.7-.81-.47-1.63-.95-2.42-1.46-.45-.29-.87-.65-1.21-1.11.02-.14.01-.29.06-.43.2-.67-.04-1.19-.63-1.5-.69-.37-.88-1.03-1.06-1.69-.04-.14-.04-.3-.03-.45.03-.5-.06-.98-.28-1.44-.06-.13-.14-.29-.11-.42.14-.62-.12-1.17-.22-1.75,0-.04.02-.1.03-.16.11-.07.23-.15.37-.2.81-.32,1.26-.92,1.39-1.77.02-.15,0-.32.08-.44.07-.11.21-.23.34-.24.24-.02.49.04.74.04.74,0,1.35-.26,1.71-.97.07-.13.13-.28.23-.38.14-.13.3-.29.48-.32.78-.14,1.55-.24,2.36-.22,1.88.06,3.61.6,5.26,1.42.58.29,1.2.46,1.82.63.13.03.24.14.4.22-.79.46-1.57.4-2.34.16-.42-.12-.82-.34-1.23-.52-.5-.21-1.01-.42-1.51-.63-1.06-.44-2.12-.42-3.21-.15-.1.03-.19.05-.28.08-2.27.78-2.77,1.25-3.96,3.51-.69,1.99-.64,3.89.69,5.63.39.52.88.96,1.2,1.52.26.45.59.74.99,1.04,1.02.78,2,1.62,2.97,2.46.21.18.44.42.39.76-.03.23-.15.48.13.66.23.14.48.09.72.06,0-.04,0-.07,0-.11-.01.03-.02.06-.03.09h0ZM6.16,22.29c.13.71.5,1.28,1.04,1.75,1.48,1.29,3.23,1.93,5.16,2.02,1.32.06,1.25.34,2.08-1.14-.07-.06-.13-.19-.2-.19-.4-.02-.79-.05-1.19-.01-.9.09-1.77-.01-2.66-.14-1.17-.15-2.17-.63-3.09-1.37-.38-.29-.69-.7-1.17-.89l-.05-.02h.07ZM29.98,37.73c-.09-.12-.16-.26-.27-.34-.4-.32-.88-.43-1.38-.49-1.53-.2-3.06-.21-4.59-.14-.79.04-1.58.03-2.37-.08-.23-.04-.48-.1-.71.05-.04.25-.02.49.17.68.18.18.42.29.67.28.64-.04,1.28-.05,1.91-.23.43-.12.87-.17,1.31-.22,1.24-.16,2.46-.05,3.68.26.38.1.77.19,1.16.26.14.02.29-.03.43-.05.03.02.06.04.09.05-.03,0-.08-.02-.1-.02h0ZM36.45,28.3c.09-.01.18-.02.27-.03-.09.13-.17-.03-.26,0-.65.16-1.29.46-2.04.26.85-.34,1.15-.37,2.03-.23h0ZM30.86,26.38c-.24.1-.47.05-.71-.03-.44.11-.89.06-1.33.03-.44-.03-.9-.09-1.33,0-.69.13-1.35.25-2.05.05-.08-.03-.19.01-.28.05-.24.1-.47.09-.72,0-.52-.17-1.04-.31-1.57-.45-.72-.2-1.46-.25-2.21-.29-1.57-.06-2.76.66-3.75,1.78-.2.22-.33.5-.44.77-.36.94-.48,1.9-.43,2.91.1,1.7.78,3.04,2.17,4.04.44.32.88.64,1.31.97.16.11.31.23.46.34-.15.32-.27.58-.4.84-.93.06-1.45-.11-1.99-.7-.17-.19-.33-.38-.58-.43-.33-.07-.52-.26-.6-.58-.02-.1-.05-.19-.08-.29-.13-.4-.38-.7-.78-.83-.45-.15-.76-.43-.96-.86-.1-.21-.28-.4-.46-.57-.16-.16-.52-.12-.52-.42,0-.17.17-.34.25-.53.11-.24.02-.4-.28-.57-.13-.07-.25-.14-.36-.21.03-.23.08-.42.28-.52.26-.12.53-.25.79-.38.11-.06.09-.32-.03-.39-.13-.06-.26-.12-.4-.16-.44-.14-.54-.35-.41-.77.1-.29.22-.55.48-.74.25-.16.48-.37.58-.65.1-.28.29-.37.56-.38.57-.02.89-.37,1.07-.88.15-.42.27-.85.41-1.29.31-.06.59-.1.88-.17.55-.13,1.04-.33,1.3-.89.14-.3.43-.41.74-.4,1.14.05,2.28-.07,3.4.21.38.1.77.16,1.13.31,1.33.54,2.7.97,4.1,1.31.62.15,1.24.36,1.85.56.08.02.13.13.19.2.24-.06.48-.08.71.02.33-.04.66-.12.95.14-.14.23-.37.27-.6.22-.19-.04-.33-.18-.34-.39h0ZM27.29,17.88c-.14-.06-.28-.12-.41-.17-.2,0-.4,0-.59.02-.16.02-.32.36-.22.47.5.55,1,1.09,1.72,1.38.45.19.93.32,1.25.76.07.1.25.16.38.19.19.06.39.1.59.12.76.14,1.47.12,2.04-.53.18-.2.55-.15.65.06.13.26.23.54.33.81.04.1-.14.3-.25.3-1.57,0-3.16.12-4.73-.2-2.04-.42-3.86-1.23-5.36-2.7-.35-.34-.74-.66-1.08-1.02-1.73-1.88-3.75-3.4-6.01-4.55-2.3-1.17-4.72-2.05-7.31-2.37-.09,0-.18-.06-.27-.1l-.07-.04.06.07c.35-.21.73-.29,1.13-.24,2.31.26,4.62.45,6.88,1.03.43.12.85.28,1.27.4.34.11.58.31.82.59.66.81,1.46,1.48,2.38,1.96.17.1.35.19.53.26.32.12.74.04.94.35.15.24.14.57.25.84.46,1.12,1.62,1.87,2.81,1.83.14,0,.28-.07.42-.13.22-.09.33-.44.61-.33.25.11.47.33.7.52.07.05.09.17.13.26.14.07.27.12.42.18.34.13.67.27.85.61.12.04.25.04.36.1.1.05.09.15,0,.22-.03.02-.1.03-.12.01-.1-.08-.18-.18-.26-.27-.44-.05-.66-.34-.81-.71h0ZM30.2,16.23c-.19.07-.32.01-.4-.17-.06.08-.13.15-.18.24-.16.29-.12.46.09.66.32.32.71.53,1.13.69.74.28,1.49.54,2.23.81.03,0,.06.08.07.12,0,.04-.02.09-.05.12-.52.4-1.11.4-1.68.19-.65-.24-1.28-.54-1.9-.84-1.16-.58-2.19-1.33-3.17-2.19-.97-.85-2.02-1.58-3.04-2.38-.35-.27-.72-.53-1.03-.84-1.12-1.14-2.48-1.97-3.79-2.86-1.32-.9-2.78-1.5-4.27-2.07-.55-.21-1.13-.37-1.72-.44-1.72-.2-3.45-.29-5.19-.2-.3.02-.59.06-.89.08-.23.02-.47.17-.74-.01.62-.38,1.28-.58,1.96-.7.68-.12,1.37-.2,2.06-.28,1.04-.13,2.08-.03,3.1.16.63.12,1.26.22,1.9.33.98.17,1.94.4,2.84.83.44.21.91.4,1.38.53,1.46.43,2.71,1.22,3.82,2.23.76.7,1.56,1.36,2.49,1.86.48.25.91.59,1.27,1.01.91,1.05,1.93,1.99,3.1,2.75.08.05.12.15.19.22.14.06.27.12.4.18.17.08.34.17.51.26.03.02.09.09.08.11-.05.1-.13.09-.24.03-.17-.1-.29-.24-.33-.43h0ZM27.48,28.5c-.24.05-.47.1-.7-.05-.36,0-.74.01-1.02-.29-.14.03-.29.1-.43.07-1.46-.23-2.88-.64-4.21-1.31-.02,0-.05-.07-.04-.1.01-.04.06-.1.1-.1.55-.02,1.08.02,1.6.21.92.34,1.84.7,2.76,1.06.08.03.14.13.21.2.39-.1.74-.02,1.02.3.24-.06.48-.14.7.06.14-.03.27-.07.41-.11.19-.04.37-.07.52.09.76-.24,1.51-.47,2.32-.46.07,0,.15.08.21.14.07.08-.08.34-.2.35-.77.04-1.55.25-2.31-.06-.31.12-.62.21-.93,0h0ZM12.79,18.76c.04.21.18.25.37.2.08.18.21.23.39.18.02.04.04.08.08.1.01.01.05,0,.08,0-.05-.02-.12-.04-.18-.06-.06-.19-.17-.27-.37-.21-.06-.2-.2-.23-.38-.17-.02-.03-.04-.06-.08-.08-.02,0-.05,0-.08.01.05.01.11.03.16.04h0ZM26.67,4.27v.06s.04-.04.04-.04c0-.04,0-.09,0-.13-.01.04-.03.08-.04.12h0ZM18.23,10.95c-.12-.15-.2-.36-.36-.45-1.17-.75-2.39-1.41-3.67-1.95-.65-.27-1.32-.43-2.01-.5-1.48-.14-2.97-.25-4.45-.12-1.52.14-3.07.23-4.53.73-.24.08-.49.01-.71-.13-.21-.14-.25-.52-.04-.63,1.25-.69,2.39-1.58,3.78-2.04,1-.34,2.03-.45,3.06-.54,1.24-.11,2.48-.07,3.7.19.53.1,1.08.17,1.61.28.58.12,1.18.2,1.74.38,1.4.48,2.8.99,4.19,1.52,1.17.46,2.16,1.21,3.07,2.05.4.37.83.7,1.28,1.02.09.08.26.04.41.05.02-.45-.11-.82-.41-1.1-.41-.38-.68-.83-.96-1.31-.32-.56-.71-1.07-1.21-1.5-.26-.22-.5-.48-.73-.74-.75-.81-1.72-1.33-2.65-1.89-.51-.31-1.12-.37-1.73-.37-.94,0-1.88.01-2.82-.03-1.04-.06-2.07-.14-3.08-.42-1.31-.37-2.53-.89-3.62-1.69-.36-.27-.74-.5-1.13-.7-.12-.07-.23-.19-.34-.29-.12-.11-.16-.43-.04-.55.1-.1.23-.21.36-.21.24,0,.5.03.71.13.27.12.52.29.76.46.25.18.53.28.83.31.54.04,1.08.07,1.62-.02,1.66-.28,3.33-.52,4.99-.77,1.41-.22,2.77-.08,4.05.58.62.31,1.24.63,1.84.97.87.5,1.57,1.2,2.23,1.95.26.3.52.59.8.87.04.04.18,0,.28,0,.04-.01.09-.05.11-.09.62-.93,1.47-1.6,2.29-2.31.3-.27.64-.46,1-.62,2.69-1.18,5.45-1.42,8.28-.63.48.13.94.31,1.4.49.69.28,1.36.6,2.06.87,1.03.4,2.03.42,2.96-.29.08-.06.17-.09.26-.12.2-.05.39,0,.55.13.14.12.21.38.14.54-.33.75-.84,1.35-1.57,1.72-1.45.72-2.94.83-4.45.17-.68-.3-1.35-.61-2.05-.88-1.68-.64-3.21-.18-4.68.66-.17.1-.32.23-.46.38-1.3,1.4-1.81,3.04-1.45,4.93.1.49.29.95.58,1.36.52.72,1.05,1.44,1.72,2.04,1.07.97,2.04,2.03,3.2,2.88.35.26.66.59,1.04.93.09-.16.19-.26.21-.38.07-.34.11-.68.3-.98.25-.39.8-.56,1.16-.3.28.2.57.41.77.69.3.38.56.82.76,1.26.43.96,1.08,1.78,1.64,2.65.3.49.79.74,1.36.8.64.08,1.28.17,1.92.2.56.03,1.06.16,1.52.51.28.21.59.44.91.48.76.1,1.16.47,1.25,1.22.01.12.17.25.3.29.78.3,1.56.65,2.37.85,1.24.32,2.51.6,3.8.71.64.06,1.28.06,1.93-.04,1.27-.19,2.55-.31,3.82-.56.84-.17,1.69-.1,2.51.11,1.46.38,2.8.99,3.95,1.99.33.29.65.59.89.97.38.59.83,1.12,1.23,1.68.2.29.38.58.53.9.4.91.84,1.79,1.47,2.57.12.15.23.32.29.51.12.34.15.71-.09.99-.32.38-.65.76-1.03,1.06-.77.63-1.63,1.14-2.55,1.51-1.89.76-3.88,1.19-5.91,1.4-1.42.14-2.76-.13-4.07-.67-.7-.28-1.87-1.2-2.42-1.9-.5-.62-1.05-1.19-1.63-1.73-1.71-1.6-3.74-2.38-6.05-2.5-.44-.02-.89.03-1.33.08-1.3.13-2.57.04-3.78-.51-.54-.24-1.13-.41-1.64-.7-.54-.3-1.09-.39-1.69-.44-1.71-.15-3.36.18-5.01.5-.54.1-1.07.21-1.6.3-.56.1-1.11.03-1.55-.33-.25-.21-.5-.29-.8-.3-.19,0-.39,0-.59,0-1.89-.02-3.74-.34-5.58-.79-1.02-.25-1.95-.71-2.94-1.05-.27-.1-.55-.21-.82-.35-.55-.29-1.01-.22-1.5.17-.53.41-.87.91-1.09,1.55-.42,1.23-.32,2.44.08,3.65.12.38.32.74.61,1.01.47.44.94.88,1.44,1.29.58.48,1.26.73,2.03.8,1.04.1,2.07.17,3.11.1,1.34-.09,2.67.03,4,.17,1.27.13,2.25.71,2.96,1.76.31.45.62.89.91,1.36.1.16.13.37.18.56.07.26-.18.52-.42.46-.19-.05-.38-.1-.56-.18-.14-.05-.25-.16-.37-.25-2.09-1.65-4.47-2.01-7.03-1.56-.58.1-1.17.21-1.75.3-1.04.16-2.06.1-3.1-.13-1.37-.31-2.65-.79-3.82-1.59-.61-.42-1.23-.83-1.83-1.27-.45-.33-.76-.78-.9-1.33-.16-.62-.35-1.24-.48-1.87-.06-.28-.06-.59-.04-.88.05-.74.16-1.48.19-2.22.02-.52.15-.97.45-1.39.08-.12.14-.26.17-.41.01-.08-.03-.2-.1-.25-.07-.05-.18-.06-.28-.08-1.03-.13-2.05-.35-3.05-.65-1.01-.31-1.92-.8-2.74-1.46-.55-.44-1.01-.95-1.35-1.56-.48-.87-1.01-1.7-1.67-2.46-.33-.38-.68-.72-1.11-.98-.81-.49-1.61-.98-2.5-1.31-.1-.04-.2-.24-.19-.36,0-.11.13-.25.24-.33.21-.15.48-.15.71-.07.42.16.83.34,1.22.55.66.35,1.3.71,1.95,1.09.98.58,1.95,1.19,2.74,2.03.24.25.53.45.78.68,1.31,1.22,2.9,1.68,4.65,1.61,1.09-.05,2.18-.17,3.25.12.09.02.21.02.3,0,.56-.17,1.14-.33,1.63-.68.1-.07.1-.32,0-.39-1.41-1.01-2.82-2.03-4.38-2.79-.97-.48-1.98-.92-3.02-1.24-.75-.23-1.56-.25-2.35-.34-.25-.03-.5-.01-.74-.03-.6-.04-1.16-.22-1.66-.59-.84-.61-1.68-1.23-2.55-1.8-.67-.44-1.29-.93-1.89-1.45-.3-.26-.56-.55-.84-.84-.11-.11-.11-.39,0-.55.12-.19.31-.28.5-.24.09.03.2.03.29.08,1.06.54,2.21.87,3.22,1.51.17.1.34.22.53.27,1.44.36,2.86.84,4.37.71.89-.07,1.78-.14,2.67-.13,1.09.01,2.18.1,3.26.2.39.04.78.17,1.14.31,1.24.5,2.51.92,3.67,1.61.13.07.27.13.41.17.08.02.18,0,.27,0-.01-.09.01-.22-.04-.27-.39-.38-.76-.79-1.19-1.12-1.19-.89-2.35-1.81-3.64-2.56-.82-.47-1.64-.92-2.55-1.19-.62-.18-1.22-.43-1.82-.65-1.84-.67-3.75-.91-5.7-.73-.45.04-.89.09-1.33.1-.19,0-.38-.07-.58-.12-.12-.04-.26-.24-.22-.34.03-.09.07-.19.13-.25.07-.07.16-.13.25-.16,1.31-.44,2.61-.92,4.01-1.09.69-.08,1.38-.13,2.07-.04,1.52.18,3.05.36,4.56.61.88.14,1.74.4,2.6.62.44.11.86.24,1.29.37l.06.02h-.07Z"/>
  </g>
</svg>