<?xml version="1.0" encoding="UTF-8"?>
<svg id="Layer_2" data-name="Layer 2" xmlns="http://www.w3.org/2000/svg" viewBox="0 0 311.69 452.66">
  <defs>
    <style>
      .cls-1 {
        fill: #e9e8f7;
      }

      .cls-2 {
        fill: #120b3a;
      }

      .cls-3 {
        fill: #433e6d;
      }
    </style>
  </defs>
  <g id="_Ñëîé_1" data-name="Ñëîé 1">
    <g>
      <g>
        <path class="cls-3" d="M311.66,176.02c-.96-17.65-1.98-35.37-4.45-52.85-1.26-8.93-5.52-17.47-8.68-26.09-8.81-24.13-25.37-44.72-31.94-69.89-3.31-12.7-12.33-20.79-24.21-23.75C231.14.62,219.09-.33,207.46.1c-17.25.62-34.43,3.18-46.05,4.35-23.61-2.02-41.23-1.86-57.61,7.16-2.46,1.36-5.81.99-8.62,1.83-19.03,5.76-36.44,13.62-45.64,33.16-2.1,4.45-5.73,8.29-9.13,11.99-12.51,13.61-19.64,29.24-20.26,47.98-.91,27.48-1.61,55.01-3.93,82.39-2.49,29.35-3.13,58.95-13.33,87.42-3.81,10.64-2.83,23.29-2.64,35,.2,12.16,1.93,24.32,3.28,36.45.69,6.25-.02,14.1,3.45,18.32,8.19,9.96,10.16,22.06,15.02,33.14,1.67,3.8,3.97,7.54,6.74,10.62,11.76,13.07,25.29,23.91,42.28,29.29,13.68,4.33,27.69,7.6,41.49,11.56,10.52,3.02,20.71,2.24,31.24-.55,9.76-2.58,19.91-3.67,29.89-5.42,29.74-5.21,60.11-7.75,87.84-21.35,14.33-7.02,26.83-16.32,35.56-29.68,3.01-4.6,5.52-11.28,4.62-16.36-3.31-18.75-.52-37.18,1.89-55.46,4.99-37.75,8.66-75.4,3.9-113.46-.66-5.27,1-10.85,1.76-16.26.76-5.41,2.74-10.85,2.45-16.18Z"/>
        <path class="cls-2" d="M161.41,4.44c11.62-1.17,28.8-3.72,46.05-4.35,11.62-.42,23.68.53,34.92,3.33,11.88,2.96,20.9,11.05,24.21,23.75,6.57,25.17,23.13,45.77,31.94,69.89,3.15,8.63,7.41,17.16,8.68,26.09,2.47,17.48,3.49,35.2,4.45,52.85.29,5.33-1.69,10.77-2.45,16.18-.76,5.41-2.41,10.99-1.76,16.26,4.76,38.07,1.08,75.71-3.9,113.46-2.41,18.28-5.2,36.71-1.89,55.46.9,5.09-1.61,11.76-4.62,16.36-8.74,13.36-21.24,22.65-35.56,29.68-27.73,13.6-58.1,16.14-87.84,21.35-9.98,1.75-20.13,2.83-29.89,5.42-10.53,2.79-20.72,3.56-31.24.55-13.8-3.96-27.81-7.23-41.49-11.56-16.99-5.37-30.53-16.21-42.28-29.29-2.77-3.08-5.07-6.81-6.74-10.62-4.86-11.07-6.82-23.18-15.02-33.14-3.47-4.21-2.76-12.06-3.45-18.32-1.35-12.13-3.08-24.28-3.28-36.45-.19-11.71-1.17-24.36,2.64-35,10.19-28.47,10.84-58.07,13.33-87.42,2.32-27.38,3.02-54.91,3.93-82.39.62-18.74,7.75-34.37,20.26-47.98,3.4-3.69,7.03-7.54,9.13-11.99,9.21-19.53,26.62-27.4,45.64-33.16,2.81-.85,6.16-.48,8.62-1.84,16.38-9.02,34-9.18,57.61-7.16ZM45.12,414.52l.2.56.02-.34-.62-.12s.41-.08.4-.1ZM273.5,389.52c.83-.85,1.67-1.69,2.5-2.54,11.82-3.43,13.31-13.64,15.33-23.47.16-.75-.17-1.6-.27-2.41-.83.6-2.01,1.01-2.44,1.82-4.21,8.05-8.3,16.17-12.42,24.27-.83.85-1.66,1.7-2.5,2.55-.39.26-.78.52-1.17.78.23-.03.57.02.66-.11.18-.25.21-.59.3-.9ZM62.65,427.57l-.18.18c-1.55-.9-3.1-1.81-4.66-2.68,0,0,.25-.11.25-.11,1.53.87,3.06,1.75,4.59,2.61ZM227.5,424.97c-.68.24-1.39.45-2.04.75-.19.09-.25.47-.37.71.74-.57,1.47-1.13,2.22-1.68.72-.34,1.44-.68,2.16-1.02-.66.41-1.32.82-1.98,1.24ZM30.09,376.6l-.43.03.66-.26c.62,10.94,4.4,14.88,17.42,18.19l.23.45.05-.28c-5.97-6.06-11.93-12.12-17.93-18.13ZM47.04,86.85c2.55-8.7,5.16-17.38,7.58-26.11.25-.92-.65-2.16-1.02-3.25-.91.79-2.49,1.48-2.63,2.39-1.38,9.03-2.51,18.1-3.7,27.17-.24.28-.56.53-.71.85-.09.2.06.52.1.78.13-.61.25-1.22.38-1.83ZM251.2,38.44l-.48.27.7-.47c.86,10.92,10.31,14.87,17.05,21.01l.35.43-.56-.21c-2.67-9.46-8.71-16.21-17.07-21.04ZM73.56,406.85c-1.18-.34-2.35-.76-3.55-.98-1.59-.29-3.21-.42-4.82-.63,1.65.54,3.27,1.24,4.97,1.57,1.17.23,2.44-.07,3.67-.13.6,1.02,1.02,2.75,1.81,2.94,17.72,4.3,35.48,8.44,53.23,12.63l-.07.21c-17.17-9.53-36.02-13.18-55.24-15.61ZM50.75,406.63l-.54.36.77-.27c-1.21,6.81,4.34,8.39,8.56,10.8,6.2,3.55,13.51,5.77,18.63,10.44,9.36,8.54,20.3,12.4,32.19,12.53,17.17.19,34.36-1.12,51.54-1.95,1.36-.07,2.67-1.33,4-2.04-1.57-.34-3.13-.73-4.71-1-17.82-3.08-35.96-4.91-53.37-9.53-19.37-5.14-38.07-12.8-57.08-19.35ZM42.97,116.19c-1.66,9.43-3.73,18.8-4.9,28.29-3.67,29.67-5.85,59.43-14.98,88.36-8.9,28.21-12,57.69-12.74,87.3-.04,1.62,1.51,3.28,2.32,4.92.55-1.45,1.27-2.86,1.61-4.36,4.3-18.91,9.16-37.71,12.67-56.77,4.88-26.47,9.76-53.02,12.71-79.75,2.5-22.58,2.25-45.46,3.19-68.24.24-.77.52-1.53.7-2.31.06-.25-.12-.56-.19-.84-.13,1.14-.25,2.28-.38,3.41ZM27.19,342.47c.38.1.76.21,1.15.31.84,7.51-.46,16.22,2.94,22.3,9.45,16.86,22.4,30.8,42.73,34.79,22.85,4.49,45.09,10.58,66.64,19.82,20.71,8.88,42.32,14.8,64.62,3.62,3.68-1.84,8.18-1.99,12.27-3.07,22.1-5.85,40.51-16.58,50.87-38.16,1.45-3.01,3.36-5.95,5.62-8.4,9.52-10.32,11.72-22.57,12.12-36.24.75-25.72,2.92-51.4,4.61-77.09.8-12.22,2.61-24.43,2.65-36.65.11-29.08-3.06-58.1,2.18-87.23,1.59-8.83-1.87-19.26-5.18-28.14-7.46-19.99-19.96-36.95-34.92-52.17-5.59-5.69-9.97-12.59-15.7-18.11-3.29-3.17-7.94-5.82-12.37-6.71-7.8-1.56-15.9-1.78-23.89-2.22-13.79-.76-27.59-1.54-41.39-1.77-8.42-.14-17.47,2.85-25.18.68-16.69-4.7-30.95.66-44.97,7.61-5.73,2.84-11.12,7.57-15.03,12.68-16.46,21.52-16.65,48.33-21.23,73.26-6.33,34.42-9.41,69.44-13.83,104.21-4.94,38.89-9.82,77.79-14.72,116.68ZM23.35,190.56c-.1,0-.21,0-.31-.01v7.54c1.07-2.43,2.24-4.81,3.15-7.3.42-1.15.3-2.5.46-3.75,3.44-28,6.89-56.01,10.33-84.01.82-6.69,1.78-13.38,2.27-20.1.19-2.56-.77-5.2-1.2-7.8-1.83,2.14-4.62,4.02-5.31,6.48-2.37,8.46-5.17,17.06-5.71,25.73-1.73,27.71-2.52,55.48-3.68,83.22ZM222.74,5.99c-5.95,0-8.95-.32-11.83.12-1.84.28-3.5,1.68-5.24,2.58,1.51,1.22,2.85,2.79,4.55,3.61,13.25,6.38,26.55,12.68,39.9,18.85,3.94,1.82,8.11,3.13,12.18,4.67-1.5-4.68-1.81-10.4-4.78-13.8-4.55-5.21-10.4-10.06-16.69-12.74-6.38-2.72-13.96-2.62-18.08-3.28ZM263.91,414.85c2.66-1.24,4.48-1.6,5.6-2.69,8.03-7.79,15.95-15.69,23.77-23.69.62-.63.22-2.32.11-3.49-.01-.11-1.64-.44-2-.11-9.2,8.45-18.37,16.94-27.4,25.57-.62.59-.08,2.39-.08,4.41ZM304.56,160.68c-.2-4.15-.15-6.71-.52-9.2-.21-1.4-1.14-2.69-1.74-4.03-.88,1.3-2.36,2.54-2.53,3.92-1.05,8.79-1.95,17.61-2.56,26.45-.16,2.3.88,4.67,1.37,7.01,1.09-2.33,2.66-4.56,3.17-7.01,1.28-6.18,2.07-12.47,2.81-17.14ZM17.98,339.3c.26,2.25.52,5.57,1.12,8.84.18.98,1.31,1.78,2,2.66.3-.74.82-1.46.87-2.22.93-12.98,1.83-25.95,2.63-38.94.07-1.11-.65-2.27-1-3.41-.53,1.07-1.38,2.09-1.55,3.21-1.38,9.55-2.63,19.13-4.07,29.86ZM301.49,238.77c-.05,0-.1,0-.15,0,0-2.92.13-5.84-.05-8.74-.1-1.58-.7-3.13-1.08-4.69-.4,1.59-1.03,3.16-1.15,4.78-.42,5.4-.75,10.81-.9,16.22-.05,1.54.6,3.1.93,4.64.8-1.57,2.03-3.07,2.3-4.73.39-2.44.1-4.98.1-7.48ZM186.97,19.45c2.63-1.04,4.32-1.71,6.01-2.38-1.75-.8-3.46-2.13-5.27-2.28-2.73-.23-5.53.37-8.31.61,2.62,1.4,5.24,2.8,7.57,4.05ZM301.64,289.31c-.5-1.64-.97-3.2-1.43-4.75-.55,1.42-1.54,2.85-1.54,4.27,0,2.03.74,4.05,1.17,6.07.59-1.83,1.18-3.66,1.81-5.59ZM30.32,397.75c-.38.9-.9,1.57-.74,1.83.63,1.02,1.41,1.99,2.29,2.8.19.18,1.05-.37,1.61-.59-.98-1.25-1.96-2.5-3.16-4.04ZM10.74,349.79c-.25.29-.71.59-.7.86.04.76.29,1.51.45,2.27.25-.29.72-.59.71-.86-.05-.76-.29-1.51-.46-2.27Z"/>
      </g>
      <path class="cls-1" d="M212.51,306.81c-.05,3.59-2.4,6.71-5.14,8.82-3.02,2.33-6.18.66-8.45-1.8-2.37-2.57-4.94-4.83-7.5-7.21-9.49-8.84-18.95-17.7-28.5-26.47-9.4-8.63-18.92-17.13-28.33-25.74-6.96-6.37-14.24-12.47-20.57-19.42-2.7-2.97-5.24-7.11-5.09-11.27.17-4.66,4.18-6.79,7.7-8.97,4.06-2.51,8.01-5.22,11.8-8.12,6.73-5.14,13.13-10.72,19.68-16.1,10.39-8.53,20.81-17.01,31.17-25.57,7.18-5.93,14.3-11.94,21.43-17.93,2.71-2.28,9.23-10.42,12.36-4.36,1.02,1.98,2.43,4.47,1.87,6.78-.71,2.95-3.7,5.58-6.15,7.85-8.36,7.72-16.87,15.29-25.43,22.79-7.78,6.81-15.68,13.5-23.6,20.15-5.31,4.46-10.65,8.89-15.97,13.33-4.4,3.67-8.85,7.28-13.29,10.9-.52.42-1.05.86-1.42,1.42-1.07,1.64-.03,3.43,1.2,4.59,2.2,2.09,4.51,4.08,6.76,6.12,5.05,4.59,10.13,9.14,15.17,13.73,8.99,8.18,17.9,16.44,26.89,24.62,7.87,7.16,15.99,14.07,23.94,21.15,2.15,1.91,4.41,3.69,6.46,5.71,1.31,1.28,3.04,3.06,3.01,5Z"/>
    </g>
  </g>
</svg>