<?xml version="1.0" encoding="UTF-8"?>
<svg id="Layer_2" data-name="Layer 2" xmlns="http://www.w3.org/2000/svg" viewBox="0 0 360.36 427.42">
  <defs>
    <style>
      .cls-1 {
        fill: #e9e8f7;
      }

      .cls-2 {
        fill: #120b3a;
      }

      .cls-3 {
        fill: #433e6d;
      }
    </style>
  </defs>
  <g id="_Ñëîé_1" data-name="Ñëîé 1">
    <g>
      <g>
        <path class="cls-3" d="M5.97,324.56c2.86,21.1,3.72,43.44,19.52,58.38,1.43,1.36,1.94,4.5,2.42,6.95,2.07,10.58,7.96,17.38,15.98,20.11,8.83,3.01,18.12,4.15,27.25,5.7,10.81,1.83,21.76,2.59,32.49,4.93,22.49,4.91,44.74,10.79,67.74,3.06,7.59-2.55,16.12-3.71,23.85-2.37,22.22,3.86,43.69.34,65.47-4.74,18.46-4.3,32.86-15.28,45.09-31.64,15.05-20.12,30.29-40.06,44.72-60.83,4.12-5.93,6.68-14.16,8.28-21.85,4.83-23.25-1.88-43.33-12.91-62.04-9.21-15.62-16.26-32.13-16.25-52.33,0-18.44-1.53-36.87-2.07-55.32-.3-10.09-1.04-19.58-9.58-24.82,0,.02,0,.05,0,.07-4.46-4.33-8.48-9.97-13.56-12.51-9.7-4.85-19.91-8.49-30.14-11.46-30.43-8.81-61.08-16.56-89.83-32.32-10-5.48-20.06-11.72-30.64-14.51-20.51-5.4-39.24-15.4-57.74-26.86C76.87-1.72,57.75-7.05,40.92,16.13c-.55.76-1.3,1.32-2,1.89C8.81,42.16-1.68,75.95,2.75,119.02c2.29,22.22,2.97,45.43.39,67.5-5.43,46.45-3.38,92.23,2.83,138.04Z"/>
        <path class="cls-2" d="M317.97,107.76c8.54,5.24,9.28,14.73,9.58,24.82.54,18.45,2.07,36.88,2.07,55.32,0,20.2,7.04,36.71,16.25,52.33,11.03,18.71,17.73,38.79,12.91,62.04-1.6,7.69-4.16,15.92-8.28,21.85-14.43,20.77-29.67,40.7-44.72,60.83-12.23,16.35-26.63,27.33-45.09,31.63-21.78,5.08-43.25,8.6-65.47,4.74-7.73-1.34-16.26-.18-23.85,2.37-23,7.72-45.25,1.84-67.74-3.06-10.73-2.34-21.68-3.1-32.49-4.93-9.13-1.54-18.42-2.69-27.25-5.7-8.01-2.73-13.91-9.52-15.98-20.11-.48-2.45-.98-5.6-2.42-6.95-15.81-14.94-16.67-37.28-19.52-58.38C-.24,278.75-2.29,232.96,3.14,186.52c2.58-22.07,1.9-45.28-.39-67.5C-1.68,75.94,8.81,42.16,38.91,18.02c.7-.57,1.45-1.13,2-1.89C57.75-7.04,76.87-1.72,96.06,10.17c18.5,11.46,37.23,21.46,57.74,26.86,10.59,2.79,20.64,9.03,30.64,14.51,28.76,15.76,59.4,23.5,89.83,32.32,10.23,2.96,20.44,6.61,30.14,11.46,5.17,2.59,9.25,8.42,13.81,12.78-11.53-4.89-11.41-4.9-10.02,10.29.65,7.09.63,14.27,1.14,21.38,1.21,16.79,2.2,33.68,9.85,48.54.84,1.63,1.88,3.09,2.83,4.63.5-1.65,1.53-3.35,1.42-4.95-1.75-26.75-3.63-53.49-5.49-80.23ZM41.28,34.01c.71-1.3,1.43-2.6,2.14-3.9,8.75-4.51,17.52-8.92,26.2-13.63,1.13-.61,1.69-2.74,2.52-4.16-1.57-.52-3.19-1.68-4.69-1.46-10.63,1.54-18.64,8.04-23.85,19.49-.71,1.15-1.41,2.3-2.11,3.44l-.55.28s.35-.05.35-.04ZM63.19,29.9c-1.6,1.15-3.2,2.31-4.8,3.46-3.16,1.4-6.43,2.53-9.47,4.25-10.08,5.69-15.92,14.86-15.3,28.94.06,1.49.5,2.96.76,4.43,1.15-1.15,2.57-2.06,3.42-3.47,6.85-11.41,13.6-22.91,20.39-34.37,1.6-1.15,3.2-2.29,4.83-3.41,1.97-.81,3.93-1.62,5.9-2.44,5.6-1.3,11.2-2.6,16.8-3.9-.3-.73-.78-2.14-.88-2.1-5.27,2.01-10.5,4.14-15.74,6.26-1.97.78-3.94,1.56-5.91,2.34ZM132.29,43.03l-.11-.54.34.28c6.04,2.83,12.08,5.66,18.12,8.49.11-.77.38-2.19.32-2.21-6.21-2.08-12.45-4.05-18.68-6.02ZM343.17,249.56c-1.18-2.97-2.25-6.02-3.65-8.82-.23-.47-2.45-.35-2.82.29-1.78,3.11,2.36,8.12,6.68,8.19-.31,8.7-1.26,17.61,5.12,24.2.93.96,2.04,1.66,3.06,2.48.41-1.76,1.6-3.99,1.1-5.2-2.95-7.18-6.29-14.13-9.5-21.15ZM39.03,359.99l-.49.27.77-.21c-1.2,23.25,8.66,38.89,27.53,43.64.79.2,1.62.21,2.42.32-.21-1.25-.09-2.82-.68-3.69-1.31-1.94-2.75-4.06-4.53-5.17-12.29-7.64-19.39-20.59-25.01-35.15ZM332.56,329.21c12.63-10.43,15.29-25.56,13.14-42.6-.41-3.21-2.65-6.08-4.04-9.1-1.57,2.69-4.19,5.18-4.55,8.09-1.77,14.54-2.94,29.18-4.28,43.82l-.27-.21ZM30.56,251.35c.16.02.32.03.47.05,0,8.22.53,16.51-.09,24.66-2.49,32.89,1.97,63.5,18.64,90.54,14.01,22.73,30.13,40.19,55.94,36.3,19.3-2.91,38.62-5.91,58-7.49,12.57-1.02,25.69-1.9,37.81,1.32,19.84,5.28,39.51,5.95,59.25,2.61,24.98-4.22,43.1-20.3,51.24-50.18,5.05-18.52,9.59-37.28,13.55-56.18,1.51-7.23,2.1-15.51.8-22.7-5.7-31.44-13.05-62.45-18.2-94.01-3.54-21.68-11.06-40.87-20.1-59.39-3.09-6.33-7.99-11.8-12.91-16.3-17.86-16.33-39.88-19.33-60.59-25.92-20.82-6.63-42.38-9.83-63.28-16.16-11.29-3.42-23.01-8.18-32.58-15.91-21.22-17.16-52.97-11.57-67.68,13.81-11.19,19.29-14.33,41.68-15.52,64.15-2.3,43.54-3.25,87.18-4.77,130.78ZM13.34,225.79c2.35,24.58,4.44,46.91,6.7,69.21.23,2.31,1.47,4.47,2.25,6.7.16-2.03.41-4.05.45-6.09.71-33.84,1.61-67.68,1.91-101.53.08-8.6-2.26-17.19-2.62-25.84-.46-11.11-2.66-23.54.5-33.17,8.4-25.66,3.9-51.81,5.12-77.69.08-1.65-1.14-3.38-1.76-5.08-1.41.93-3.62,1.46-4.1,2.87-3.03,8.74-7.93,17.63-8.07,26.57-.79,48.68-.37,97.38-.37,144.05ZM5.27,242.64c1.14,17.03,1.58,31.93,3.26,46.63,2.49,21.84,5.78,43.54,8.97,65.25.3,2.06,2.32,3.74,3.54,5.6.55-2.16,1.71-4.41,1.53-6.48-.7-8.14-1.35-16.36-2.88-24.3-5.39-27.99-11.04-55.88-10.93-84.93.02-6.03-1.04-12.06-1.6-18.09-.71,6.13-1.41,12.26-1.88,16.32ZM303.97,124.1c-1.01-4.79-1.19-12.11-4.02-17.3-2.68-4.91-8.04-7.78-12.46-11.07-.88-.66-2.86.86-4.33,1.37.53,1.33.96,2.74,1.6,3.99,4.68,9.03,9.36,18.07,14.16,27.01,1.04,1.93,2.57,3.47,3.87,5.18.31-2.43.63-4.87,1.18-9.19ZM320.95,214.78c1.94,13.33,3.56,27.03,6.1,40.48.86,4.55,4.04,8.44,6.15,12.64-.22-5-.07-10.07-.74-14.98-1.03-7.58-2.58-15.07-3.96-22.58-1.02-5.49-2.02-11-3.29-16.41-.28-1.21-1.65-2.05-2.52-3.06-.49,1.09-.97,2.19-1.74,3.91ZM138.92,413.44c-3.23.92-7.37,2.09-11.5,3.26,3.96,1.07,7.92,3.01,11.87,2.99,5.54-.03,11.06-1.52,16.6-2.38-5.26-1.2-10.52-2.4-16.97-3.88ZM185.19,407.45c4.15-.79,8.38-1.59,12.61-2.39-4.37-1.22-8.71-3.16-13.13-3.44-3.31-.21-6.7,1.72-10.06,2.7,3.42,1.01,6.83,2.02,10.57,3.13Z"/>
      </g>
      <path class="cls-1" d="M215.73,182.01c.01.34,0,.68-.02,1.02-.29,3.76-3.26,6.08-6.07,8.18-2.82,2.11-5.44,4.38-8.13,6.66-6.21,5.28-12.42,10.56-18.77,15.67-5.61,4.51-11.63,8.51-17.37,12.84-.4.3-.8.61-1.08,1.02-1.64,2.46,4.55,4.91,5.97,5.57,4.04,1.86,8.02,3.82,12.06,5.68,5.3,2.45,10.62,4.86,16.1,6.89,2.82,1.05,5.69,2.05,8.61,2.79,6.02,1.52,12.72,4.91,12.82,12.06.08,5.73-4.56,7.96-8.52,10.97-10.58,8.07-21.34,15.76-32.16,23.49-10.08,7.23-20.17,14.46-30.04,21.98-6.09,4.64-14.18,5.41-17.42-2.82-2.48-6.31-2.01-13.08-1.15-19.66,1.35-10.3,1.19-20.72.93-31.08-.26-10.24-.28-20.47-.21-30.72.07-11.04.14-22.09-.15-33.14-.27-10.35-.86-20.68-1.49-31.01-.62-10.15-1.91-20.57-1.3-30.74.22-3.69,4.04-5.57,6.77-3.11,14.78,13.33,33.54,19.3,50.94,27.73,6.02,2.91,12.34,5.11,18.52,7.64,2.91,1.19,5.55,2.22,7.72,4.55,1.85,1.99,3.31,4.7,3.42,7.51ZM147.26,208.88c.1,2.26.17,4.54.17,6.83,0,1.1.49,2.2,1.81,1.96.53-.1,1-.4,1.45-.69,4.15-2.71,8.34-5.37,12.39-8.24,10.16-7.21,20.24-14.52,30.32-21.85,1.76-1.28,2.57-2.76.06-3.7-7.98-2.99-15.41-7.19-23.03-10.98-7.93-3.95-15.87-7.9-23.81-11.83-1.3-.64-3-1.48-2.99.65.02,8.13.88,16.22,1.66,24.31.77,7.92,1.6,15.67,1.96,23.54ZM147.88,293.51c-.02.41-.05.82-.08,1.23-.09,1.34.36,2.99,2.05,2.49.5-.15.94-.44,1.37-.73,8-5.41,15.96-10.86,23.88-16.38,6.69-4.65,13.34-9.36,19.94-14.12,1.74-1.25,3.31-2.63.02-4.25-5.39-2.67-10.37-5.88-15.91-8.27-4.63-1.99-9.5-3.93-14.16-6.03-4.75-2.14-8.94-4.77-13.39-7.43-2.43-1.45-3.73-.79-3.68,2.12.08,4.72.24,9.43.26,14.15.04,12.45.43,24.8-.3,37.23Z"/>
    </g>
  </g>
</svg>