<?xml version="1.0" encoding="UTF-8"?>
<svg id="Layer_2" data-name="Layer 2" xmlns="http://www.w3.org/2000/svg" viewBox="0 0 331.9 399.26">
  <defs>
    <style>
      .cls-1 {
        fill: #e9e8f7;
      }

      .cls-2 {
        fill: #120b3a;
      }

      .cls-3 {
        fill: #433e6d;
      }
    </style>
  </defs>
  <g id="_Ñëîé_1" data-name="Ñëîé 1">
    <g>
      <g>
        <path class="cls-3" d="M23.95,330.94c2.8,12.72,7.55,25.36,13.57,36.91,3.86,7.41,10.57,15.09,17.93,18.54,11.77,5.51,25.01,9.9,37.87,10.69,27.94,1.71,56.4,3.76,83.97.28,32.83-4.15,64.75-15.02,97.44-20.86,16.86-3.01,29.62-10.44,38.21-24.08,5.64-8.96,9.15-19.54,12.12-29.83,10.93-37.91,6.38-76.45,2.56-114.68-1.8-17.97-4.55-35.64-3.45-53.87.96-15.92.3-32-.7-47.95-1.13-17.94-3.46-35.81-5.24-53.71-1.62-16.39-11.93-27.52-22.92-38.33-7.61-7.48-16.6-9.03-26.7-7.42-2.29.36-4.82-.1-7.12-.66C237.93.26,214.51-1.48,190,1.3c-24.13,2.73-48.81.6-73.24.6,0,.31,0,.61,0,.91-19.66,0-39.34-.49-58.98.18-11.77.4-23.21,3.07-30.29,14.3-6.41,10.18-13.51,19.97-19.38,30.44-9.57,17.08-12.46,35.09,1.31,49.12,14.24,14.51,20.65,32.18,24.55,51.28,2.25,11,4.08,22.08,6.07,33.14,4.44,24.68,2.44,48.58-7.3,71.96-10.38,24.93-14.65,51.06-8.79,77.7Z"/>
        <path class="cls-2" d="M116.76,1.9c24.44,0,49.11,2.14,73.24-.6,24.51-2.78,47.93-1.04,71.5,4.67,2.3.56,4.83,1.03,7.12.66,10.1-1.61,19.09-.06,26.7,7.42,10.99,10.81,21.3,21.94,22.92,38.33,1.77,17.9,4.11,35.77,5.24,53.71,1,15.94,1.66,32.03.7,47.95-1.1,18.23,1.65,35.9,3.45,53.87,3.83,38.23,8.37,76.77-2.56,114.68-2.97,10.29-6.48,20.87-12.12,29.83-8.59,13.65-21.35,21.07-38.21,24.08-32.69,5.84-64.61,16.71-97.44,20.86-27.57,3.48-56.03,1.43-83.97-.28-12.87-.79-26.1-5.17-37.87-10.69-7.36-3.45-14.07-11.13-17.93-18.54-6.02-11.55-10.77-24.19-13.57-36.91-5.86-26.64-1.6-52.77,8.79-77.7,9.74-23.39,11.75-47.28,7.3-71.96-1.99-11.05-3.82-22.14-6.07-33.13-3.9-19.1-10.31-36.77-24.55-51.28-13.77-14.04-10.89-32.05-1.31-49.12,5.87-10.48,12.97-20.26,19.38-30.44,7.08-11.24,18.52-13.9,30.29-14.3,19.64-.67,39.32-.18,58.98-.18,0-.3,0-.61,0-.91ZM303.84,341.95c.8-1.68,1.61-3.36,2.4-5.03l.13-.36s-.25.47-.25.47c-.74,1.57-1.48,3.15-2.21,4.71l-.33.4.26-.19ZM279.28,14.01l.27-.49-.05.37c3.33,2.73,6.65,5.45,9.98,8.18.25-.68.9-1.56.68-2.01-2.18-4.56-5.38-7.46-10.88-6.04ZM62.66,380.18l.42.61-.65-.36c-3.47-3.26-6.94-6.52-10.41-9.78-.55.8-1.11,1.6-1.66,2.4,4.1,2.38,8.21,4.76,12.31,7.14ZM41.11,121.91l1.01,1.79-1.2-1.64c-.94-5.11-1.83-10.23-2.84-15.33-2.47-12.54-4.98-25.07-7.5-37.6-.43-2.14-.94-4.26-1.42-6.38-1.39,2.18-3.5,4.19-4.07,6.57-4.95,20.6,2.14,37.66,16.02,52.59ZM299.2,132.99c.42-.08.84-.16,1.26-.24-2.22-20.29-4.25-40.6-6.77-60.85-.79-6.33-4.74-12.75-3.97-18.7,1.51-11.6-5.2-16.18-13.65-19.55-6.95-2.77-14.3-5.36-21.66-6.09-33.55-3.3-67.12-6.68-100.77-8.55-31.72-1.76-63.49-.79-94.14,9.16-4.57,1.48-9.43,4.86-12.13,8.76-7.99,11.55-11.57,24.75-9.47,38.84,3.75,25.1,11.78,48.98,21.45,72.38,16.87,40.79,17.76,81.94,1.7,123.17-6.4,16.42-13.81,32.46-20.04,48.94-7.4,19.58-1.2,41.39,21.31,46.7,23.77,5.6,47.65,10.78,71.52,15.96,2.21.48,4.86.09,7.03-.67,6.8-2.39,13.34-5.55,20.21-7.69,32.17-10.03,64.26-21.48,98.66-10.6,7.41,2.34,13.82-.02,18.93-4.71,5.87-5.39,11.38-11.44,15.85-18.03,17.81-26.25,24.02-54.29,14.82-85.76-7.41-25.33-15.06-50.9-12.78-78.01,1.25-14.79,1.78-29.65,2.64-44.47ZM66.74,212.59c-2.4-14.58-4.74-29.18-7.27-43.74-.23-1.31-1.65-2.42-2.52-3.62-.28,1.46-.8,2.92-.79,4.38.06,7.98,1.14,16.08.15,23.92-1.19,9.48-4.96,18.64-6.07,28.11-2.45,20.97-9.75,40.39-16.38,60.19-3.58,10.69-3.16,22.76-4.14,34.24-.16,1.91,1.72,4,2.66,6.01,1.19-1.97,2.66-3.83,3.53-5.94,4.41-10.75,8.45-21.66,13.02-32.34,9.71-22.69,17.29-45.83,17.81-71.21ZM92.7,8.89s0-.07,0-.11c-11.25,0-22.51-.28-33.75.09-9.82.32-19.25,2.18-25.26,11.31-6.4,9.71-13.31,19.13-19.05,29.22-6.7,11.78-11.21,24.3-3.65,37.62.83,1.46,2.81,2.27,4.25,3.39.47-1.4,1.47-2.85,1.32-4.18-1.89-16.4,6.85-28.91,13.98-42.54,10.44-19.93,27.65-26.96,47.92-29.11,17.15-1.82,34.43-2.29,51.65-3.45,1.53-.1,3.02-.81,4.52-1.24-1.52-.33-3.05-.93-4.57-.94-12.46-.08-24.91-.04-37.37-.04ZM229.54,365.43c-26.65.31-51.22,8.82-75.62,17.88-1.53.57-2.47,2.71-3.69,4.12,1.78,1.29,3.55,3.63,5.36,3.67,4.34.09,8.73-.78,13.06-1.47,13.8-2.21,27.67-4.11,41.35-6.89,12.89-2.62,25.6-6.15,38.35-9.43,1.34-.34,2.43-1.65,3.63-2.51-1.19-.82-2.29-2.13-3.58-2.37-6.25-1.16-12.56-2.03-18.85-3ZM321.95,287.46c-2.37,9.34-4.67,18.2-6.83,27.09-.29,1.2.07,2.56.13,3.84.75-.93,1.87-1.74,2.19-2.79,1.85-6.11,4.18-12.18,5.1-18.44,3.5-23.59,1.14-47.19-2.46-70.45-2.55-16.5-7.89-32.57-12.2-48.78-.41-1.55-2.36-2.69-3.59-4.02-.57,1.44-1.6,2.88-1.63,4.33-.17,7.56-1.08,15.3.13,22.66,2.26,13.77,5.76,27.33,8.82,40.97,3.4,15.18,6.88,30.35,10.33,45.59ZM318.43,148.83c.95-.08,1.91-.16,2.86-.24-1.89-17.45-3.76-34.89-5.71-52.33-.12-1.09-.85-2.11-1.29-3.17-.57.99-1.51,1.94-1.66,2.99-1.05,7.55-2.3,15.1-2.82,22.7-1.41,20.76-4.04,41.68,4.86,61.63.55,1.23,1.92,2.08,2.91,3.11.28-1.13.8-2.25.81-3.38.06-10.43.04-20.87.04-31.31ZM216.38,5.52c-4.73.91-9.15,1.76-13.56,2.61,4.83,1.63,9.64,3.29,14.49,4.87.74.24,1.59.17,2.39.17,16.2-.04,31.96,2.12,46.93,8.85,2.3,1.03,5.33.43,8.03.59-1.9-2.15-3.53-4.67-5.79-6.33-1.84-1.36-4.39-1.92-6.71-2.43-9.75-2.14-19.52-4.26-29.33-6.1-5.48-1.03-11.07-1.51-16.45-2.22ZM107.14,394.27c.29-.64.59-1.28.88-1.93,3.94-.46,7.91-.78,11.82-1.43,1.47-.25,2.81-1.26,4.21-1.92-1.34-1.17-2.52-3.09-4.04-3.41-12.82-2.66-25.69-5.07-38.57-7.4-1.38-.25-2.94.46-4.42.72.69,1.35,1.06,3.46,2.13,3.92,9.25,3.98,18.64,7.67,27.98,11.45ZM309.85,69.95c-2.6-5.11-5.52-11.12-8.78-16.95-.6-1.07-2.57-1.38-3.9-2.04-.38,1.72-1.34,3.57-1.02,5.15,1.18,5.86,2.66,11.67,4.25,17.43,1.42,5.12,3.14,10.16,4.73,15.23,1.45-5.77,2.89-11.54,4.72-18.83ZM313.72,49.58c-5.92-8.44-10.42-15.15-15.35-21.53-.65-.84-3.5.03-5.32.1.1,1.46-.36,3.36.38,4.32,4.78,6.18,9.79,12.17,14.86,18.12.3.35,1.77-.29,5.44-1.01ZM50.13,174.92c.37-.11.73-.22,1.1-.33-2.28-8.01-4.52-16.03-6.91-24-.31-1.03-1.4-1.83-2.13-2.73-.23,1.05-.79,2.15-.63,3.13,1.61,9.44,3.3,18.87,5.11,28.28.2,1.04,1.33,1.9,2.03,2.84.48-1.19,1.12-2.35,1.38-3.59.24-1.15.05-2.39.05-3.59Z"/>
      </g>
      <path class="cls-1" d="M185.12,116.91c1.77,9.3,1.34,19.08,1.81,28.51.49,9.91.93,19.83,1.31,29.75.24,6.35.2,12.71.18,19.06-.02,6.53,5.2,9.67,8.81,13.83,6.63,7.63,13.27,15.24,20.07,22.71,5.23,5.75,11.33,10.64,16.62,16.34,3.08,3.32,2.47,9.03-1.21,12.22-3.67,3.19-7.86,2.76-11.25-.82-5.12-5.41-10.42-10.66-15.51-16.11-4.72-5.05-8.85-10.87-14.08-15.41-2.21-1.91-2.29,1.29-2.29,2.79,0,4.94-.08,9.88-.16,14.83-.13,8.11-.43,16.19-.07,24.28.11,2.5.32,5.19-.34,7.63-.96,3.54-4.01,5.28-7.53,5.5-4.68.29-7.42-1.79-7.6-6.35-.26-6.95-.34-13.91-.44-20.86-.12-8.24-.1-16.49-.03-24.73.03-4.12.08-8.24.13-12.37.04-3.67.44-7.55-.53-11.14-.98-3.59-3.96-6.75-6.45-9.78-5.17-6.3-10.61-12.38-15.94-18.55-6.31-7.3-12.68-14.56-18.92-21.92-2.91-3.44-5.92-6.81-8.62-10.43-2.44-3.26-5.22-7.9-1.86-11.65,3.82-4.27,9.48-3.23,13.03,1.14,7.4,9.11,15.02,18.04,22.59,27.01,4.78,5.58,9.15,11.45,14.3,16.72,1.17,1.19,2.05.16,2.03-1.24-.27-13.34-.64-26.69-.91-40.03-.15-7.57-.56-15.24-.17-22.8.16-3.14,1.93-7.76,5.59-8.1,4.27-.39,5.93,3.95,6.83,7.28.24.88.44,1.77.61,2.66Z"/>
    </g>
  </g>
</svg>