<?xml version="1.0" encoding="UTF-8"?>
<svg id="Layer_2" data-name="Layer 2" xmlns="http://www.w3.org/2000/svg" viewBox="0 0 383.34 399.96">
  <defs>
    <style>
      .cls-1 {
        fill: #e9e8f7;
      }

      .cls-2 {
        fill: #120b3a;
      }

      .cls-3 {
        fill: #433e6d;
      }
    </style>
  </defs>
  <g id="_Ñëîé_1" data-name="Ñëîé 1">
    <g>
      <g>
        <path class="cls-3" d="M13.23,273.34c3.05,21.66,4.92,43.49,7.66,65.19,2.8,22.12,12.66,39.1,35.2,46.5,14.81,4.86,29.2,12.43,44.35,14.39,14.7,1.9,30.13-1.73,45.23-3.1,17.2-1.57,34.36-4.12,51.59-4.8,21.47-.84,42.99-.2,64.49-.2,15.39,2.85,28.82-1.92,41.86-10.1,14.2-8.91,26.38-19.71,36.29-32.97,22.35-29.89,44.62-59.76,43.4-100.17-.28-9.27-2.33-17.11-6.28-25.28-4.72-9.76-8.42-20.1-11.63-30.47-2.61-8.43-2.29-18.02-5.98-25.8-8.69-18.3-8.25-37.74-9.69-57.03-.44-5.9-.19-11.85-.7-17.74-1.02-11.82-4.16-22.27-16.36-27.95-4.44-2.06-7.51-6.88-11.77-9.54-6.69-4.17-13.54-8.46-20.88-11.15-30.9-11.31-62.12-21.73-92.99-33.12-13.7-5.05-27.41-7.91-42.06-7.82-19.01.11-38.21.6-57.01-1.72-25.61-3.16-42.39,10.13-57.71,27.02-7.06,7.79-12.35,17.17-19.1,25.28-6.09,7.33-9.81,15.71-7.52,24.57,3.65,14.15.01,26.51-5.43,39.12-3.34,7.73-5.98,15.78-8.66,23.78-10.58,31.57-12.92,63.44-4.12,95.93,3.31,12.21,6.07,24.66,7.83,37.17Z"/>
        <path class="cls-2" d="M261.75,391.32c-21.5,0-43.02-.64-64.49.2-17.23.68-34.39,3.23-51.59,4.8-15.09,1.37-30.53,5-45.23,3.1-15.15-1.96-29.54-9.53-44.35-14.39-22.54-7.39-32.4-24.37-35.2-46.5-2.74-21.71-4.61-43.53-7.66-65.19-1.76-12.51-4.52-24.96-7.83-37.17-8.8-32.49-6.46-64.37,4.12-95.93,2.68-8,5.32-16.05,8.66-23.78,5.44-12.6,9.08-24.96,5.43-39.12-2.28-8.86,1.43-17.24,7.52-24.57,6.75-8.11,12.04-17.49,19.1-25.28C65.56,10.59,82.34-2.69,107.95.47c18.79,2.32,37.99,1.83,57.01,1.72,14.64-.08,28.36,2.77,42.06,7.83,30.87,11.39,62.09,21.81,92.99,33.12,7.35,2.69,14.19,6.98,20.88,11.15,4.26,2.66,7.33,7.48,11.77,9.54,12.2,5.68,15.33,16.13,16.36,27.95.51,5.89.25,11.84.7,17.74,1.44,19.28,1,38.72,9.69,57.03,3.7,7.78,3.37,17.37,5.98,25.8,3.21,10.38,6.91,20.72,11.63,30.47,3.95,8.17,6,16.02,6.28,25.28,1.22,40.4-21.05,70.27-43.4,100.17-9.91,13.26-22.09,24.06-36.29,32.97-13.03,8.18-26.46,12.95-41.86,10.1ZM303.3,63.33l-.28.07c-.67-.95-1.35-1.89-2.02-2.84-.82-.94-1.64-1.87-2.45-2.81-1.7-.63-3.39-1.26-5.09-1.9-.99-.94-1.98-1.89-2.97-2.83-.74-.86-1.47-1.71-2.21-2.57-1.8-2.11-3.19-5.25-5.46-6.14-8.23-3.2-16.69-5.84-25.19-8.25-2.65-.75-5.7-.12-8.57-.13,2.63,1.78,5.04,4.27,7.94,5.2,10.4,3.33,20.97,6.12,31.47,9.12.75.86,1.49,1.72,2.25,2.58.98.93,1.95,1.87,2.93,2.8,1.7.63,3.4,1.25,5.09,1.89.82.95,1.63,1.9,2.45,2.85.69,1,1.38,1.99,2.1,2.96ZM203.77,17.99c.22,0,.45,0,.67,0-.31,0-.62,0-.92-.01-4.62-2.63-9.16-5.41-13.91-7.75-1-.49-2.79.6-4.22.96.94.77,1.76,1.9,2.83,2.24,5.13,1.65,10.33,3.08,15.54,4.57ZM49.73,372.65l-.1.2c-2.96-3.43-5.82-6.95-8.95-10.22-.97-1.01-2.67-1.32-4.04-1.95.26,1.49,0,3.72.88,4.35,3.89,2.79,8.12,5.11,12.21,7.62ZM361.57,245.38c7.39-9.88,5.55-20.32,1.78-30.82-.34-.95-1.56-1.6-2.37-2.38-.16.78-.48,1.57-.45,2.34.38,10.35.8,20.7,1.23,31.06-.5,1.13-1.2,2.21-1.44,3.4-.25,1.17-.04,2.44-.04,3.66.52-1.19,1.28-2.33,1.51-3.57.21-1.18-.12-2.45-.22-3.69ZM354.9,181.94c.33,1.04.66,2.09.99,3.13-.39-.99-.78-1.98-1.18-2.97-1.41-22.28-12.33-40.93-22.9-59.69-.44-.78-2.31-1.52-2.99-1.2-.82.39-1.59,2.01-1.48,2.99.24,2.07.79,4.2,1.69,6.08,5.8,12.16,11.67,24.29,17.66,36.36,2.57,5.18,5.47,10.19,8.2,15.3ZM46.98,358.05l-.4-.38.21.26c8.88,8.2,17.54,16.65,26.7,24.53,7.1,6.11,15.76,4.43,24.08,3.18,1.05-.16,1.97-1.13,2.96-1.73-.74-.88-1.3-2.15-2.25-2.59-17.08-7.82-34.2-15.55-51.3-23.28ZM356.51,308.69c.76-.26,1.82-.29,2.25-.83,15.66-19.6,17.43-42.99,17.91-66.67.03-1.41-1.4-2.84-2.15-4.27-1.09,1.46-2.82,2.77-3.18,4.39-5.03,22.51-9.87,45.06-14.72,67.63l-.13.95.02-1.21ZM301.03,50.46c-.61-.28-1.23-.56-1.84-.84.69.19,1.38.38,2.06.57,4.77,7.29,10.35,14.2,14.15,21.96,8.35,17.04,15.76,34.54,23.68,51.79.61,1.33,2.24,2.18,3.4,3.26.57-1.39,1.7-2.8,1.63-4.15-.73-13.5-1.12-27.06-2.83-40.45-.58-4.55-3.71-9.7-7.25-12.75-7.28-6.29-15.46-11.59-23.6-16.79-2.62-1.68-6.25-1.77-9.41-2.59ZM152.76,22.24c-4.06,0-11.25.13-18.43-.02-28.95-.63-47.85,18.58-68.32,34.62-1.58,1.24-2.93,3.3-3.48,5.24-7,24.77-14.36,49.46-20.52,74.45-3.82,15.51-5.57,31.53-8.61,47.25-2.32,12-6.41,23.76-7.59,35.84-2.93,29.93.11,59.84,1.08,89.78.7,21.6,8.69,32.78,25.86,42.71,25.15,14.54,49.97,28.58,80.46,26.34,3.74-.27,7.55.84,11.35,1.08,12.64.82,25.3,2.31,37.93,2.08,15.14-.27,30.26-2.07,45.38-3.16,32.23-2.32,64.22-5.22,87.01-32.69.8-.96,1.9-1.68,2.89-2.47,20.35-16.14,34.78-35.35,34.24-63.01-.17-8.84,1.06-17.74,2-26.58,4.18-39.27-4.56-75.45-24.49-109.47-4.5-7.67-7.18-17.25-7.87-26.16-2.49-32.15-22.76-63.17-59.39-69.61-9.36-1.64-18.47-6.13-27.02-10.61-24.97-13.1-50.94-20.44-82.49-15.59ZM4.31,195.66c2.39,12.74,4.66,25.5,7.28,38.19.55,2.66,2.37,5.05,3.61,7.56.67-2.59,1.66-5.15,1.95-7.78,1.89-17.14,3.05-34.39,5.56-51.43,2.64-17.89,6.71-35.57,9.72-53.41.74-4.41-.01-9.12-.42-13.65-.13-1.46-1.38-2.81-2.11-4.21-1.29,1.37-3.11,2.52-3.79,4.14-10.76,25.72-21.1,51.56-21.79,80.6ZM124.33,6.86c-.05.32-.09.64-.14.96-5.05,0-10.28-.82-15.11.23-5,1.08-10.39,3.02-14.23,6.23-10.3,8.62-19.19,18.99-29.85,27.07-18.87,14.3-25.17,32.95-22.54,55.57.16,1.4.85,2.74,1.29,4.11.64-1.45,1.51-2.85,1.88-4.37,1.37-5.73,2.52-11.52,3.85-17.26,3.27-14.14,7.25-27.82,20.78-36.17,6.81-4.2,13.42-8.76,19.93-13.41,12.44-8.89,26.07-13.29,41.48-13,9.24.17,18.5-1.02,27.74-1.71,1.17-.09,2.29-.85,3.44-1.29-1.14-.99-2.19-2.69-3.44-2.85-11.67-1.52-23.37-2.77-35.06-4.1ZM54.1,40.54c.73-.4,1.56-.68,2.19-1.21,8.99-7.65,18.02-15.25,26.83-23.1,1.24-1.1,1.31-3.51,1.92-5.32-1.99.16-4.72-.46-5.86.61-8.9,8.33-17.51,16.96-26.15,25.57-.51.51-.76,1.59-.62,2.32.09.47,1.09.76,1.69,1.14ZM261.6,385.25c.19.58.38,1.16.57,1.73,9.08-2.88,18.2-5.67,27.21-8.77,1.22-.42,1.89-2.43,2.82-3.7-1.21-.16-2.53-.72-3.62-.43-10.98,2.92-21.92,5.98-32.86,9.03-.75.21-1.4.75-2.1,1.14.97.33,1.93.86,2.92.95,1.67.16,3.37.04,5.05.04ZM128.73,388.68c-.01-.1-.02-.21-.03-.31-6.2.68-12.41,1.28-18.58,2.11-1.03.14-1.94,1.27-2.9,1.94,1.02.51,2.08,1.53,3.05,1.45,6.62-.56,13.24-1.24,19.82-2.13,3.96-.53,7.85-1.51,11.78-2.29-3.96-.29-7.92-.59-11.88-.87-.41-.03-.83.06-1.24.1ZM36.03,63.3c-.11-.75-.22-1.49-.33-2.24-.97.33-2.6.43-2.81,1.02-1.18,3.37-2.03,6.86-2.89,10.34-.03.11,1.63.74,1.64.72,1.38-2.87,2.69-5.78,3.98-8.69.16-.37.27-.77.4-1.15Z"/>
      </g>
      <path class="cls-1" d="M187.35,159.15c.05,5.77.1,11.54.09,17.31-.01,8.37-.01,16.73.05,25.1.07,8.27.6,16.53.66,24.8.07,10.33-.26,20.66-.15,30.99.08,7.17.53,14.34.97,21.5.33,5.35-3.66,9.47-8.94,9.63-7.04.21-7.88-8.02-7.91-13.11-.15-20.55.9-41.24.89-61.84,0-9.99-.29-19.97-.25-29.96.04-9.77.71-19.44,1.42-29.18.03-.42.06-.84-.07-1.24-.5-1.58-1.87-.22-2.41.56-3.82,5.6-7.49,11.33-11.3,16.91-3.17,4.66-8.05,8.35-10.71,13.34-2.04,3.82-3.64,6.85-7.2,9.54-4.59,3.48-17.14,9.16-15.25-1.7.86-4.95,2.96-9.62,5.88-13.68,2.62-3.65,5.98-6.72,9-10.04,5.9-6.49,11.45-13.37,16.6-20.47,4.26-5.92,7.63-12.42,11.77-18.43,1.73-2.51,3.39-5.09,6.71-5.33,2.86-.21,5.69,1.2,7.9,2.9,4.2,3.23,6.55,7.94,9.77,12.01,3.22,4.07,7.21,7.41,11.12,10.78,6.43,5.54,12.52,11.47,18.57,17.42,3.72,3.67,7.69,7.09,11.2,10.97,3.14,3.48,7.7,8.59,5.94,13.69-1.62,4.69-9.42,7.57-13.05,3.49-7.03-7.88-14.04-15.77-21.19-23.53-5.59-6.08-11.18-12.5-17.39-17.95-1.87-1.64-2.75.39-2.74,2.15,0,1.12.02,2.25.03,3.37Z"/>
    </g>
  </g>
</svg>