<?xml version="1.0" encoding="UTF-8"?>
<svg id="Layer_2" data-name="Layer 2" xmlns="http://www.w3.org/2000/svg" viewBox="0 0 322.76 454.98">
  <defs>
    <style>
      .cls-1 {
        fill: #e9e8f7;
      }

      .cls-2 {
        fill: #120b3a;
      }

      .cls-3 {
        fill: #433e6d;
      }
    </style>
  </defs>
  <g id="_Ñëîé_1" data-name="Ñëîé 1">
    <g>
      <g>
        <path class="cls-3" d="M293.86,170.16c.95-9.92,2.08-20.71-.77-29.91-5.95-19.22-12.13-39.08-22.54-56.02-12.83-20.88-22.06-45.33-45.11-58.61-4.87-11.66-17.33-12.62-26.37-18.28C192.86,3.46,185.37,1.64,181.23,0c-21.3,3.3-39.67,4.37-56.95,9.25-25.78,7.28-49.84,18.73-68.35,39.44-5.31,5.94-11.81,10.84-17.94,16-13.65,11.5-23.69,25.17-26.91,43.15-4.06,22.67-4.94,45.28.91,67.82,2.79,10.77,3.13,21.41,1.08,32.59-4.48,24.52-9.74,49.14-11.1,73.92C-.2,321.8.61,361.59,0,401.31c-.21,13.45,5.93,23.63,17.37,28.17,17.24,6.84,34.62,13.36,51.58,20.85,9.31,4.11,18.45,5.78,28.33,3.83,45.56-9.03,91.23-17.53,136.64-27.28,27.01-5.8,50.17-19.82,70.68-38.25,14.34-12.88,20.07-29.09,17.61-47.81-1.08-8.21-3.83-16.42-7.07-24.1-12.75-30.24-19.37-62.09-25.61-94.06-1.2-6.14-2.21-12.64-1.5-18.77,1.32-11.32,4.75-22.4,5.83-33.73Z"/>
        <path class="cls-2" d="M181.23,0c4.14,1.64,11.63,3.46,17.84,7.34,9.04,5.65,21.5,6.61,26.37,18.28,23.06,13.28,32.29,37.73,45.11,58.61,10.41,16.94,16.59,36.8,22.54,56.02,2.85,9.2,1.71,20,.77,29.91-1.08,11.32-4.52,22.41-5.83,33.72-.71,6.13.3,12.63,1.5,18.77,6.25,31.96,12.87,63.82,25.61,94.06,3.24,7.68,5.99,15.89,7.07,24.1,2.46,18.73-3.27,34.93-17.61,47.81-20.52,18.43-43.67,32.45-70.68,38.25-45.4,9.75-91.08,18.26-136.64,27.28-9.88,1.96-19.02.29-28.33-3.83-16.95-7.49-34.34-14.01-51.58-20.85C5.93,424.94-.2,414.76,0,401.31c.6-39.72-.2-79.51,1.97-119.14,1.36-24.78,6.62-49.4,11.1-73.92,2.04-11.18,1.71-21.82-1.08-32.59-5.85-22.54-4.97-45.15-.91-67.82,3.22-17.98,13.27-31.65,26.91-43.15,6.13-5.17,12.63-10.06,17.94-16,18.51-20.71,42.57-32.16,68.35-39.44,17.29-4.88,35.65-5.95,56.95-9.25ZM228.12,36.51c.96.93,1.93,1.87,2.89,2.8,1.36.68,2.72,1.36,4.07,2.05-1.43-.61-2.86-1.21-4.29-1.83-.97-.94-1.93-1.88-2.9-2.82l-.15-.52s.37.32.38.32ZM311.71,326.7c-.29-.61-.58-1.23-.87-1.84.36.55.72,1.11,1.08,1.66-1.79,20.14-4.79,39.88-17.65,56.6-.9,1.17-.94,2.99-1.38,4.51,1.44-.45,3.1-.58,4.29-1.4,17.84-12.26,24.56-39.98,14.52-59.52ZM278.97,387.06c-19.64,7.56-39.11,15.59-58.98,22.48-8.95,3.11-18.74,5.8-28.06,5.5-25.11-.79-49.72,1.42-74.01,7.62-1.36.35-2.57,1.31-3.85,1.98,1.5.58,2.96,1.52,4.5,1.7,12.97,1.48,26.01,2.45,38.93,4.28,25.04,3.53,48.82-3.31,72.1-10.12,19.37-5.67,34.89-19.36,49.63-33.16,1.64-1.09,3.28-2.19,4.92-3.28-.39-.46-.78-.91-1.18-1.37-1.34,1.46-2.67,2.91-4.01,4.37ZM186.3,406.17c.08.6.16,1.21.24,1.81,6.26,0,13.16,1.73,18.67-.3,22.55-8.34,44.86-17.41,66.88-27.09,10.88-4.78,18.1-14.15,21.33-25.56,9.86-34.76,7.25-67.33-15.69-97.3-20.8-27.17-24.85-59.63-24.36-92.61.47-31.34.03-62.08-11.82-92.08-12.57-31.82-36.57-46.1-68.48-50.53-12.08-1.68-24.88-5.86-36.24-3.52-27.45,5.64-53.42,16.35-73.83,36.71-5.84,5.83-11.77,12.83-14.35,20.42-8.29,24.35-15.15,49.2-22.23,73.95-1.13,3.94-1.02,8.45-.56,12.59,2.32,20.51,4.88,41,7.49,61.47,6.24,48.83,7.29,97.92,1.32,146.63-2.2,17.94,3,28.16,16.75,36.5,4.64,2.82,9.53,5.59,14.68,7.13,16.46,4.91,33.05,5.11,50.11,2.03,23.22-4.19,46.7-6.91,70.07-10.26ZM289.54,155.42c-.11-1.79-.09-3.07-.28-4.32-3.62-24.61-18.06-45.24-25.27-68.53-.12-.39-.36-.82-.68-1.06-1.88-1.38-3.8-2.7-5.71-4.04-.47,2.32-1.58,4.72-1.32,6.95,2.02,16.77,4.08,33.53,6.56,50.24,3.59,24.19,7.46,48.34,11.38,72.48,2.34,14.42,1.24,29.75,10.85,42.33,1.72,2.25,3.19,4.68,4.78,7.03-.25-3.09.05-6.35-.84-9.25-7.39-23.9-9.83-47.86-2.57-72.34,1.9-6.42,2.16-13.32,3.1-19.5ZM30.71,308.49c0-8.02.03-16.05,0-24.07-.04-6.74-.09-13.48-.3-20.21-.05-1.59-.77-3.17-1.18-4.75-1.33,1.46-3.04,2.73-3.89,4.43-1.11,2.24-1.49,4.83-2.27,7.24-6.77,21.05-10.49,42.65-9.52,64.73.99,22.3,1.6,44.86,11.19,65.69,1.61,3.5,4.78,6.84,8.09,8.81,2.34,1.39,6.13.33,9.28.36-1.73-2.22-3.03-5.15-5.28-6.54-8.08-5-12.16-12.16-10.46-21.27,4.6-24.68,5.95-49.44,4.35-74.42ZM115.07,439.99c.1-.74.21-1.48.31-2.22,8.03,0,16.05.03,24.08-.03,1.24,0,2.47-.4,3.71-.62-1.34-.6-2.63-1.52-4.04-1.75-18.25-2.92-36.69-3.74-54.67-9.47-13.9-4.44-28.99-5.21-43.58-7.35-1.67-.25-4.8.8-5.1,1.85-.45,1.63.44,4.28,1.7,5.58,1.65,1.69,4.12,3.18,6.42,3.54,23.7,3.63,47.44,7.02,71.16,10.48ZM268.54,212.18c.53-.1,1.06-.19,1.6-.29-2.68-14.45-5.31-28.9-8.1-43.33-.27-1.4-1.54-2.6-2.35-3.89-.18,1.24-.66,2.53-.49,3.72,2.88,19.45,5.82,38.9,8.87,58.33.16,1,1.41,1.83,2.15,2.75.21-1.2.73-2.45.57-3.6-.63-4.58-1.48-9.13-2.25-13.69ZM208.47,24.67c-1.77-2.2-2.38-3.36-3.33-4.07-10.19-7.61-22.21-5.89-33.77-6.45-.59-.03-1.21.56-1.82.85.69.36,1.34.86,2.08,1.07,10.35,2.89,20.7,5.78,31.09,8.54,1.46.39,3.11.05,5.75.05ZM21.86,422.97c.48-.19,2.35-.45,2.49-1.09.33-1.49.45-3.75-.43-4.67-3.99-4.19-8.28-8.11-12.7-11.85-.45-.38-3.59,1.08-3.64,1.81-.4,6.33,7.73,15.53,14.28,15.8ZM24.5,116.45c.72,2.61,1.23,4.47,1.74,6.32.96-1.75,2.27-3.4,2.83-5.28,1.91-6.35,3.65-12.76,5.21-19.21.29-1.2-.6-2.68-.95-4.03-.87.85-2.18,1.54-2.53,2.56-2.26,6.65-4.32,13.37-6.3,19.63ZM88.86,449.64c6.49-1.19,10.58-1.94,14.66-2.69-4.15-1.1-8.29-2.2-12.44-3.29-.4-.11-.84-.2-1.25-.18-4.96.31-9.91.64-14.87.97,5.21,1.95,10.41,3.89,13.89,5.19ZM16.58,135.82c-.04-.4-.07-.8-.11-1.2-.11.77-.21,1.53-.32,2.3.14-.37.29-.73.43-1.1Z"/>
      </g>
      <path class="cls-1" d="M201.45,301.67c-2.11-5.39-8.91-9.41-13.18-12.44-6.07-4.31-11.99-8.25-15.76-15.16-3.01-5.52-8.02-9.97-14.69-8.62-4.83.98-9.26,3.57-13.35,6.21-10.58,6.82-20.86,14.09-31.28,21.16-1.32.9-2.17.95-2.03-.9.78-10.21,1.53-20.42,1.96-30.66.9-20.87,1.67-41.81,1.85-62.7.08-9.63-.28-19.37.87-28.95.1-.83.51-1.94,1.55-1.83.36.04.7.21,1.03.37,4.73,2.42,9.47,4.81,14.21,7.23,7.83,4,15.63,8.07,23.3,12.36,5.78,3.24,11.36,3.38,15.55-1.73,8.65-10.55,17.14-21.23,25.6-31.92,2.68-3.39,2.23-7.33-.79-9.68-4.28-3.34-8.99-.76-12.4,2.4-3.97,3.68-7.73,7.58-11.13,11.79-2.23,2.77-4.09,5.71-5.97,8.71-1.06,1.7-2.46,3.88-4.34,4.77-2.19,1.03-4.85.02-6.84-.99-4.39-2.23-8.95-4.13-13.43-6.2-10.14-4.69-20.36-9.2-30.36-14.17-6.42-3.19-10.43-1.21-10.47,5.81-.08,12.77.17,25.55-.32,38.31-.83,21.71-2.02,43.4-3.24,65.09-.73,12.91-1.11,26.1-3.39,38.94-.47,2.66-1.08,6.4.26,8.93.93,1.76,3.05,3.09,4.82,3.82,4.2,1.74,9.59,1.59,13.44-.97,7.31-4.87,14.71-9.61,22.16-14.26,5.84-3.64,11.7-7.23,17.59-10.78,1-.6,2.01-1.21,3.15-1.46,3.04-.67,5.89,2.07,8.1,3.74,6.66,5.01,12.3,10.94,17.92,17.06,2.88,3.15,5.81,6.76,9.85,8.44,5.69,2.37,11.03-4.02,10.35-9.47-.1-.77-.29-1.51-.58-2.23Z"/>
    </g>
  </g>
</svg>