<?xml version="1.0" encoding="UTF-8"?>
<svg id="Layer_2" data-name="Layer 2" xmlns="http://www.w3.org/2000/svg" viewBox="0 0 314.52 447.65">
  <defs>
    <style>
      .cls-1 {
        fill: #e9e8f7;
      }

      .cls-2 {
        fill: #120b3a;
      }

      .cls-3 {
        fill: #433e6d;
      }
    </style>
  </defs>
  <g id="_Ñëîé_1" data-name="Ñëîé 1">
    <g>
      <g>
        <path class="cls-3" d="M4.6,195.48c-5.1,21.96-6.54,44.11-1.33,66.16,5.24,22.21,6.9,44.32,3.27,67.01-1.51,9.42-.44,19.27-.46,28.92,0,3.99.8,8.09.2,11.97-5.24,33.71,21.63,58.26,48.27,68.47,27.57,10.56,56.06,13.2,85.07,4.13,8.71-2.72,18.22-2.87,27.33-4.39,4-.67,8.35-1.03,11.81-2.88,19.45-10.38,36.66-25.15,59.81-28.03,30.53-3.79,48.68-22.75,57.13-50.96,6.11-20.4,10.71-41.32,14.72-62.25,3.93-20.45,5.83-41.15,2.07-62.04-4.08-22.7-7.74-45.49-11.24-68.29-2.08-13.59-1.85-27.78-5.67-40.81-4.21-14.36-4.05-28.23-.49-41.93,4.01-15.43,2.77-30.34-2.85-44.43-3.83-9.61-9.24-21.52-17.4-25.79-11.97-6.27-25.74-12.49-40.78-9.59-11.62,2.24-23.33,4.04-34.99,6.03-.16-.9-.31-1.8-.47-2.7-21.57,2.59-43.16,5.06-64.69,7.88-3.89.51-7.99,1.82-11.31,3.87-21.33,13.17-45.43,17.4-69.39,22.35C27.86,43.4.94,79.8,2.84,105.64c.26,3.52,1.31,6.99,1.97,10.49,4.24,22.44,10.03,44.81,2.95,67.75-1.18,3.83-2.26,7.7-3.17,11.6Z"/>
        <path class="cls-2" d="M199.07,6.76c11.67-1.99,23.37-3.79,34.99-6.03,15.04-2.9,28.81,3.32,40.78,9.59,8.16,4.27,13.57,16.18,17.4,25.79,5.62,14.09,6.86,29,2.85,44.43-3.56,13.7-3.72,27.57.49,41.93,3.82,13.04,3.58,27.22,5.67,40.81,3.5,22.8,7.15,45.59,11.24,68.29,3.76,20.89,1.85,41.59-2.07,62.04-4.02,20.93-8.61,41.86-14.72,62.25-8.45,28.21-26.6,47.17-57.13,50.96-23.14,2.88-40.36,17.65-59.81,28.03-3.47,1.85-7.81,2.21-11.81,2.88-9.11,1.52-18.62,1.66-27.33,4.39-29.01,9.07-57.5,6.43-85.07-4.13-26.64-10.21-53.52-34.76-48.27-68.47.6-3.88-.21-7.98-.2-11.97.02-9.65-1.05-19.5.46-28.92,3.63-22.69,1.98-44.79-3.27-67.01-5.21-22.06-3.77-44.21,1.33-66.16.91-3.9,1.99-7.77,3.17-11.6,7.07-22.94,1.29-45.31-2.95-67.75-.66-3.5-1.71-6.96-1.97-10.49-1.9-25.84,25.02-62.24,50.36-67.48,23.97-4.96,48.06-9.18,69.39-22.35,3.32-2.05,7.42-3.36,11.31-3.87,21.54-2.82,43.12-5.29,64.69-7.88l.47,2.7ZM278,370.95c1.55-1.18,3.11-2.37,4.66-3.55-.27-.29-.53-.58-.8-.87-1.29,1.56-2.58,3.13-3.83,4.73l.23.53-.26-.84ZM102.85,416.75c-1.19-.36-2.36-.81-3.58-1.06-.78-.17-1.62-.06-2.44-.07.84.43,1.66,1.12,2.54,1.23,1.22.15,2.49-.14,3.74-.24.71.5,1.35,1.22,2.14,1.45,1.13.32,2.36.29,3.54.4-1.16-.27-2.33-.5-3.47-.83-.83-.24-1.62-.6-2.48-.87ZM291.38,339.06c1.97-4.87,4.77-9.58,5.76-14.64,3.66-18.78,7.76-37.57,9.64-56.57,1.26-12.68-.89-25.71-1.76-38.56-.08-1.23-1.96-2.34-3-3.5-.6,1.06-1.58,2.07-1.74,3.2-1.94,13.18-4.54,26.33-5.45,39.59-1.63,23.53-2.22,47.13-3.21,70.72-.17.36-.38.71-.48,1.09-.06.24.05.52.08.79.06-.7.12-1.41.18-2.11ZM203.94,412.32c-10.74,2.54-21.95,3.89-32.13,7.87-21.86,8.54-43.75,8.87-66.69,5.77-16.66-2.25-33.56-10.13-50.74-1.8-1.53.74-3.08,1.44-4.62,2.16,1.3,1.03,2.44,2.57,3.91,3.03,25.42,7.99,50.71,17.45,77.89,7.48,2.44-.89,5.27-.66,7.9-1.09,22.95-3.75,44.7-10.76,64.28-23.63l.2.21ZM24.72,346.77c-.43,5.64-.09,12.95-1.72,19.79-2.27,9.47.85,16.65,7.15,22.94,5.35,5.33,10.37,12.16,16.95,14.8,9.97,4,21.51,7.7,31.75,6.43,11.25-1.39,21.99-2.23,32.92.09,22.56,4.8,44.98,5.64,67.15-1.8,36.74-12.33,65.02-36,88.29-66.27,1.82-2.36,3.1-5.38,3.84-8.29,4.53-17.64,8.32-35.47,13.37-52.95,3.52-12.17,1.39-22.72-5.17-33.03-3.32-5.22-6.64-10.53-9.16-16.16-8.57-19.18-5.94-39.37-3.85-59.19,1.3-12.35-1.79-21.95-8.94-32.11-17.44-24.78-27.17-51.93-19.38-82.98,1.5-5.98,2.15-12.28,2.36-18.46.35-10.32.12-9.99-10.49-8.29-25.57,4.09-50.92,7.65-75.88-4.49-10.8-5.26-22.91-2.4-33.65,2.5-24.4,11.14-46.49,26.12-67.31,42.87-10.77,8.66-21.77,18.38-24.39,32.52-2.66,14.32-3.22,29.18-3.2,43.81.04,28.9,1.79,57.79,1.6,86.68-.24,35.82-9.69,71.45-2.28,107.47.18.85.02,1.78.02,4.13ZM274.07,109.18c.18,0,.36,0,.54-.01-.24,3.54-.81,7.1-.67,10.63.72,17.53-1.38,36,15.02,48.69,1.29,1,2.84,1.66,4.27,2.49.17-1.26.59-2.55.46-3.79-1.38-13.25-.76-27.16-4.79-39.56-5.54-17.04-3.65-32.94-1.09-49.87,1.81-11.99.66-24.87-1.64-36.88-1.49-7.8-7.42-14.75-11.36-22.08-1.3,8.38-2.63,16.76-3.87,25.15-.19,1.3.04,2.67.11,4,1,20.41,2.01,40.82,3.02,61.23ZM266.97,82.68c-1.35,0-2.71,0-4.06,0,0-16.82.18-33.65-.18-50.46-.06-2.68-2.02-6.96-4.05-7.62-4.11-1.35-9.09-1.12-10.34,4.97-.53,2.59-1.03,5.19-1.32,7.81-1.15,10.53-1.58,21.19-3.44,31.59-4.44,24.89,4.6,46.03,17.39,66.23.94,1.48,3.32,2.04,5.03,3.03.33-1.69.93-3.37.94-5.06.07-16.83.04-33.66.04-50.49ZM295.56,209.92c.8-15.47-5.04-28.64-13.6-40.87-1.16-1.66-3.31-2.64-5-3.94-.84,1.81-2.38,3.61-2.42,5.44-.35,17.63-1.41,35.33-.14,52.86.49,6.81,6.21,13.33,9.95,19.75.86,1.48,3.38,2,5.14,2.96.66-1.54,1.69-3.03,1.91-4.64,1.48-10.51,2.79-21.04,4.16-31.56ZM286.12,331.21c-.61-.37-1.23-.75-1.84-1.12-.68-2.18-1.36-4.35-2.04-6.53-.57,2.08-.93,4.25-1.73,6.23-2.63,6.49-4.22,13.84-8.4,19.15-8.22,10.46-17.87,19.79-27,29.52-3.5,3.73-7.21,7.25-10.82,10.87,5.09-1.12,10.36-1.74,15.21-3.5,6.07-2.2,14.73-3.8,17.13-8.36,7.77-14.76,13.18-30.75,19.5-46.27ZM6.97,229.5c.41.07.82.13,1.23.2,0,.44-.04.89,0,1.33.63,5.75,1.28,11.5,1.92,17.25,1.22-5.56,2.87-11.07,3.56-16.69,1.79-14.47,3.23-29,4.59-43.52.13-1.38-1.31-2.9-2.02-4.35-.9,1.28-2.39,2.46-2.62,3.85-2.34,13.96-4.47,27.95-6.66,41.93ZM190.8,27.93c6.64-3.31,15.3-7.56,23.87-12,1.36-.71,2.28-2.27,3.4-3.44-1.66.13-3.37.06-4.98.41-10.83,2.34-21.6,5.01-32.48,7.04-4.83.9-9.9.57-14.86.8,5.24,2.04,10.42,4.22,15.73,6.03,2.05.7,4.39.58,9.32,1.15ZM26.68,83.06c1.9-2.31,3.47-3.84,4.62-5.65,6.66-10.49,16.01-17.63,27.27-22.57,3.24-1.42,6.39-3.16,9.32-5.15,1.58-1.07,2.6-2.97,3.88-4.49-2.08.05-4.68-.68-6.17.28-12.87,8.36-25.68,16.84-38.13,25.8-1.96,1.41-2.19,5.43-2.84,8.33-.17.76,1.05,1.84,2.05,3.44ZM45.11,414.86c-.36-.75-.54-1.71-1.12-2.21-6.93-6.04-13.9-12.05-21.01-17.89-.3-.25-2.98,1.27-3.01,2.01-.3,9.1,15.22,21.99,23.3,19.5.69-.21,1.23-.93,1.84-1.42ZM218.85,27.25c2.82-.3,4.77-.07,6.32-.75,4.34-1.9,8.53-4.14,12.71-6.4.22-.12-.36-2.3-.41-2.29-4.57.56-9.15,1.13-13.67,1.99-1.7.32-3.41,1.16-4.85,2.15-1.36.94-2.36,2.38-3.52,3.61,1.4.7,2.8,1.39,3.42,1.7ZM9.97,100.63c1.07,2.47,1.86,4.28,2.65,6.09,2.02-2.97,4.91-5.73,5.72-9,.5-2.01-2.2-4.81-3.46-7.25-1.64,3.4-3.29,6.8-4.91,10.16ZM252.79,11.64c-2,1.35-3.63,2.46-5.26,3.56,1.41.58,2.89,1.77,4.2,1.6,1.88-.25,3.63-1.5,5.44-2.32-1.35-.87-2.69-1.75-4.38-2.84ZM186.79,13.04c-.13-1.02-.25-2.18-.29-2.18-1.67.11-3.33.32-4.99.52.08.55.12,1.58.23,1.59,1.66.1,3.32.07,5.05.07ZM239.68,398.55c.79-.23,1.57-.47,2.36-.7-.34-.47-.64-1.29-1.04-1.34-.75-.1-1.57.25-2.35.41.34.54.68,1.08,1.03,1.64Z"/>
      </g>
      <path class="cls-1" d="M183.63,237.29c-.07-8.78-.34-17.52-.77-26.3-.71-14.16-.24-28.34-.73-42.51-.23-8.23-.63-16.46-1.13-24.68-.12-1.96-.12-4.35,1.5-5.73,4.54-3.88,11.23,0,11.63,5.43.69,9.29,1.89,18.55,2.47,27.85,1.06,17.05,2.11,34.12,2.62,51.19.56,18.85.47,37.71.77,56.57.08,5.19.58,10.37.83,15.56.36,7.54-3.98,12.3-11.37,12.24-4.63-.04-5.34-7.63-5.61-10.92-.59-7.17.04-14.38-.52-21.55-.16-2.08-2.09-4.27-3.69-5.94-6.7-6.99-13.49-14.2-20.75-20.74-7.52-6.77-15.35-13.19-23.09-19.7-3.67-3.09-7.52-6.26-11.11-9.54-3.68-3.36-6.94-7.2-10.77-10.39-3.49-2.91-3.73,1.41-3.49,4.13.94,10.42,1.05,20.88,1.26,31.33.2,10.32.79,20.62,1.3,30.94.33,6.66.64,13.32.87,19.98.08,2.26-.26,4.86-1.54,6.83-1.61,2.46-5.26,3.5-8.05,3.09-5.46-.81-4.75-7.9-5.03-11.92-1.4-20.12-2.12-40.39-2.53-60.64-.27-13.44-.5-26.88-.7-40.32-.12-8.11.3-16.22.43-24.33.07-3.91.17-7.87-.08-11.77-.24-3.81-1.6-9.01-.3-12.69,1.09-3.1,4.6-3.48,7.27-2.33,5.74,2.48,6.82,5.18,6.56,11.64-.39,9.84-.29,19.69-.3,29.54,0,1.45-.07,3.03.8,4.27.51.73,1.21,1.31,1.9,1.89,7.67,6.41,15.32,12.84,23.05,19.18,4.63,3.79,9.58,7.49,14.22,11.38,4.82,4.04,9.33,8.42,14.19,12.42,5.32,4.37,10.77,8.64,16.49,12.46.89.59,2.69,1.66,3.27.12.13-.36.14-.75.14-1.13,0-1.63,0-3.25-.02-4.87Z"/>
    </g>
  </g>
</svg>