<?xml version="1.0" encoding="UTF-8"?>
<svg id="Layer_2" data-name="Layer 2" xmlns="http://www.w3.org/2000/svg" viewBox="0 0 90.4 177.48">
  <g id="Layer_1-2" data-name="Layer 1">
    <g>
      <path d="M64.98,140.27c-.21-.04-.48-.08-.68-.12-.22-.21-.32-.33-.35-.49-.07-.28-.18-.44-.52-.53-.1-.03-.2-.05-.27-.15-.19-.23-.37-.22-.56-.29-.16-.16-.33-.33-.49-.51-.15-.05-.29-.09-.43-.14-.07-.16.05-.21.05-.32,0-.33-.09-.72-.3-1.11-.07-.13-.22-.26-.23-.42.09-.09.19-.18.28-.29.02-.02-.02-.09-.04-.16-.23-.24-.49-.5-.77-.79-.1-.03-.24-.08-.39-.14-.08-.27-.16-.54-.24-.81-.19-.09-.23.02-.32.07-.09.05-.28-.07-.39-.21-.13-.16-.12-.28-.17-.43-.06-.14-.23-.32-.34-.35-.18-.05-.37-.1-.55-.15-.15.15-.29.3-.43.43-.21-.06-.39-.11-.58-.17-.05-.19-.1-.38-.16-.61.08-.08.19-.17.27-.28.02-.03-.04-.15-.06-.21-.15-.07-.3-.1-.43-.2-.14-.11-.26-.23-.41-.24l-.14.14c-.19-.06-.38-.11-.57-.16-.09-.08-.17-.16-.26-.25-.04-.14-.08-.28-.13-.43l-.25-.25-.43-.14c-.17-.17-.34-.34-.47-.48-.36-.11-.69-.22-1.02-.32-.06.06-.1.1-.15.15-.15-.04-.28-.07-.43-.1-.14.15-.29.29-.38.38-.55-.16-1.02-.29-1.54-.44-.11-.12-.28-.29-.43-.44-.07-.02-.12-.04-.16-.05-.11-.01-.19-.06-.23-.13-.06-.11-.03-.17.04-.21.08-.06.15-.14.23-.23-.09-.13-.18-.27-.26-.39-.27-.13-.5-.2-.7-.2-.03.03-.07.04-.07.08,0,.17.01.33.02.49-.07.07-.15.15-.24.24-.39-.1-.8-.22-1.23-.33-.09.09-.19.19-.28.28-.15-.04-.28-.07-.43-.1-.14.15-.29.29-.4.4-.38-.09-.7-.17-1-.24-.36-.39-.36-.39-.19-.62.13.03.26.06.41.1.04-.04.09-.09.15-.15-.05-.17-.11-.36-.19-.6-.13-.13-.29-.3-.49-.51-.1-.03-.24-.08-.39-.14-.08-.07-.16-.15-.26-.25l-.82-.26c-.1-.09-.18-.17-.27-.26-.24-.07-.47-.12-.71-.21-.08-.03-.19-.13-.26-.21-.06-.08-.08-.18-.11-.27l.14-.14c.28.07.57.2.79.2.11-.11.21-.21.26-.26-.05-.26-.08-.44-.1-.58-.3-.31-.55-.57-.8-.82-.2-.06-.4-.14-.57-.16-.11-.01-.11.2-.29.09-.17-.11-.11-.25-.19-.41-.14-.14-.3-.31-.47-.48-.05-.15-.1-.3-.15-.45-.07-.08-.15-.16-.24-.26l-.82-.26c-.11-.32.15-.31.22-.48.13.03.27.06.41.1.1-.09.12-.1.32-.1.27.27.57.56.83.81.14.04.26.04.33.1.29.29.55.35.82.42.03,0,.06-.01.06-.04,0-.04,0-.11-.04-.14l-1.53-1.57-2.12-.6s-.08,0-.11,0c-.06.03-.11.08-.18.1-.09.02-.19-.05-.27-.17-.07.07-.12.15-.21.2-.04.02-.18-.03-.21-.07-.07-.1-.06-.18,0-.22.05-.03.11-.06.17-.07.08-.01.17.06.25.16.07-.07.15-.15.23-.24-.08-.13-.17-.26-.24-.37-.08-.05-.13-.08-.17-.1l-1.7-.49-.16.13-.4-.1c.03.14.06.28.09.41-.06.05-.11.09-.17.13l-.57-.16-.5-.52c-.14-.05-.29-.09-.4-.13-.27-.28-.52-.54-.77-.8-.03-.03-.03-.09-.05-.16.18-.19.38-.38.59-.6.14.04.33.09.51.14.12.04.28.2.34.35.04.1.05.19.08.29.23.14.44.19.64.19.22-.22.44-.43.65-.67.04-.04,0-.16,0-.24-.11-.13-.29-.24-.29-.41.02-.01.04-.04.06-.04.43.12.85.24,1.3.37.04.13.09.26.15.43.23.23.48.49.73.75.03.03.09.05.14.05.03,0,.07-.02.06-.04l-.31-1.16c.19-.19.39-.39.64-.65.2.09.49.21.73.32.14-.26.49-.26.39-.69-.18-.03-.36-.07-.59-.11-.01,0-.07.04-.16.1-.23-.07-.51-.15-.78-.23-.16.06-.16.33-.45.25-.2-.18-.42-.38-.61-.55-.12-.03-.21-.06-.33-.09-.24-.25-.49-.5-.75-.77l-.85-.26c-.11-.13-.28-.24-.29-.44.08-.08.17-.17.29-.29.09.02.23.05.37.08.05-.04.1-.08.16-.13.13.03.27.08.41.1.04,0,.05-.04.07-.07-.17-.17-.33-.34-.51-.52-.1-.1-.17-.18-.16-.28,0-.06.09-.05.2,0,.05.02.09.03.18.05.13-.13.27-.28.42-.42.05-.05-.08-.29-.2-.4-.09-.08-.17-.11-.28-.15-.38-.14-.38-.15-.52-.53-.02-.05-.02-.1-.04-.14-.06-.13-.24-.29-.36-.34-.1-.04-.26.05-.24.15.03.14.06.27.08.36-.12.12-.21.21-.3.3-.53-.13-.54-.12-.42.41-.07.25-.4.27-.4.58.17.41.73.63.84,1.07-.04.05-.09.1-.15.18.06.17.12.36.2.61.19.25.23.33.33.63.15.24.45.39.55.66,0,.04.02.1,0,.12-.29.29-.58.58-.82.83-.26-.06-.45-.1-.62-.14-.27-.28-.53-.54-.77-.79-.15-.05-.29-.1-.44-.15-.25-.26-.5-.52-.73-.75-.17-.06-.31-.11-.42-.15-.37-.36-.68-.73-.98-.99-.2-.09-.36-.13-.48-.23-.14-.11-.26-.22-.4-.23-.05.04-.1.08-.1.08-.53-.15-1-.28-1.48-.42.03-.09.06-.18.09-.28.29.08.56.15.83.22-.03-.14-.05-.26-.07-.37.21.05.39.1.57.14.18.19.35.36.52.53q.35.02.24-.47c.04-.05.08-.11.15-.19-.06-.16-.13-.35-.21-.59-.08-.03-.2-.08-.33-.13-.11-.19-.14-.37-.16-.53-.02-.12.08-.19.09-.3,0-.08-.05-.19-.08-.31.12.03.24.05.37.08.08.02.16.07.24.11.03.1.05.2.08.29.25.33.53.63.86.87.09.03.19.04.28.08.31.14.38-.18.71,0,.03.02.08,0,.11-.01.09-.06.13-.16.05-.32-.09-.09-.17-.17-.25-.25-.15-.05-.29-.09-.44-.14-.42-.43-.84-.87-1.3-1.33-.1.03-.2.06-.34.11-.07-.02-.21-.05-.35-.09l-.14.14c-.14-.04-.28-.07-.42-.11l-.14.14c-.2-.06-.38-.11-.57-.16-.12-.47-.24-.94-.37-1.46.06-.07.16-.16.24-.25.16-.02.28.11.41.23.18.17.36.08.55.27.04.04.09.09.09.09.49.14.96.27,1.45.41-.01-.07-.04-.2-.07-.34.04-.04.09-.09.14-.14.13.03.27.07.4.1.05-.05.1-.1.11-.11-.13-.52-.24-1-.36-1.49-.14-.1-.27-.2-.41-.3-.11.11-.21.21-.3.31-.14-.03-.28-.07-.43-.1-.09.09-.19.19-.28.28l-.42-.11s-.09.09-.13.14c-.15-.04-.28-.07-.41-.1-.06.05-.12.09-.17.12l-.57-.16-.42-.12c-.19-.05-.39-.14-.56-.15-.24-.02-.45-.4-.69-.38-.09.09-.19.19-.28.28-.34-.1-.67-.2-1-.29-.03-.01-.08-.08-.13-.13-.07.07-.11.16-.2.19-.09.03-.22,0-.38-.13-.06.04-.11.02-.15,0-.03-.01-.08-.04-.1-.06-.07-.12-.05-.16.04-.14.09.02.17.06.24.17.01.02-.03.05-.03.03.1-.1.15-.19.24-.22.09-.03.22,0,.34.16.07-.07.15-.15.29-.3-.08-.19-.21-.49-.27-.64.05-.22.08-.32.1-.42-.28-.29-.54-.55-.81-.84-.16-.04-.35-.08-.58-.14-.07.07-.17.17-.26.26-.14-.03-.28-.06-.43-.09.06.27.13.54.19.8-.15.15-.3.3-.44.44-.2-.06-.39-.11-.58-.17l-.24-.25c-.15-.05-.29-.09-.43-.14-.13-.12-.23-.29-.43-.29-.06.05-.14.11-.21.18-.13.13-.1.24.11.46.12.13.25.29.35.35.16.1.32.04.41.19.13.19-.05.21-.1.29-.09-.04-.19-.07-.27-.13-.43-.3-.51-.34-.88-.25-.12.03-.26-.03-.38-.05-.17-.02-.19.2-.44.05-.07-.07-.15-.16-.23-.24-.15-.05-.29-.1-.42-.14-.09-.1-.21-.2-.24-.27-.1-.32-.21-.68-.3-.97.09-.08.14-.12.2-.16l1.56.45.16-.13c.05-.23-.37-.45-.35-.68l.15-.15c.22-.02.44.41.67.36l.13-.16s-.01-.1-.04-.14c-.1-.11-.14-.16-.23-.27-.03-.04-.05-.09-.06-.14-.03-.09-.05-.19-.08-.3l-.24-.25c-.12-.43-.24-.86-.36-1.27-.25-.21-.41-.52-.69-.55-.05.05-.1.1-.11.11-.65-.19-1.26-.36-1.87-.53-.33-.34-.66-.68-1-1.03-.03-.03-.03-.09-.04-.14.04-.05.08-.11.12-.16.2-.04.37.26.52.3.26.07.46.21.68.44.27.29.32.28.54.11.14.03.28.06.38.09.18-.15.33-.28.49-.41.02-.02.09.02.15.04.16.17.33.34.51.52.04.13.08.27.12.41.08.09.17.17.25.25.15.05.29.09.45.15.41.42.84.85,1.26,1.29.03.03.09.03.14.04.03-.02.06-.03.09-.05.09-.09.09-.24-.01-.34-.21-.22-.41-.43-.63-.66-.07-.08-.09-.18-.14-.28l.14-.14c-.03-.14-.06-.28-.09-.41.14.03.27.06.43.1.03-.1.06-.2.09-.33-.28-.08-.51-.15-.73-.21-.19-.07-.37-.13-.56-.19-.17-.22-.36-.27-.54-.31-.33-.31-.64-.41-.94-.43-.21.11-.21.47-.6.37-.09-.08-.17-.17-.26-.25-.04-.14-.08-.28-.13-.43l-.75-.77c-.04-.15-.09-.29-.13-.43-.35-.34-.36-.35-.58-.17.07.27.13.55.2.83-.08.06-.11.19-.33.07-.14-.14-.3-.31-.5-.51-.41-.12-.83-.24-1.23-.35-.11-.1-.19-.19-.25-.24-.36-.11-.69-.21-1-.31-.08.08-.17.15-.23.23-.05.06-.11.08-.33-.04-.18-.03-.31-.55-.64-.5.02.13.04.25.06.37-.27-.08-.5-.14-.74-.21-.05.04-.11.08-.17.13-.12-.03-.26-.06-.41-.1-.09.09-.19.19-.28.28l-.42-.11c-.09.09-.19.19-.28.28-.15-.04-.28-.07-.41-.1-.06.05-.12.09-.12.09l-.34-.08.12,2.59.08-.75c.16.03.26.05.35.07,0,.07,0,.11,0,.16l-.05.29c.38-.2.39-.2.49-.72.21-.23.32-.63.66-.66-.02.1-.05.21-.05.29,0,.2.13.24.33.15.23-.28.46-.57.69-.85.14-.06.28-.12.41-.17q.37-.46.63-.63l-.13.85c.05.04.1.09.15.12-.02.15-.04.29-.06.46l.3.06c.18-.22.33-.41.5-.61.03-.13.06-.27.09-.42l.22-.27c.03-.15.06-.29.09-.43.38-.14.42.21.65.31.12-.04.25-.08.29-.1.29-.03.27.28.54.18.31-.28.56-.6.86-1.08.1-.58.22-1.26.34-1.98.08-.1.19-.23.34-.27.14-.03.27-.13.4-.32.13-.38.17-.75.2-1.1-.05-.07-.09-.12-.09-.12.02-.25.03-.43.04-.61.22-.09.4-.16.59-.23.05.04.1.08.17.14.17-.08.35-.16.61-.27.17-.2.39-.47.62-.76.06-.07.17-.08.26-.12.1.08.2.17.29.24.14-.04.26-.08.38-.11-.07.42-.14.81-.21,1.22.2.17.41.35.62.52.05.04.32-.16.37-.28.03-.06.05-.1.07-.14.04-.25.08-.49.13-.76.1-.12.21-.26.32-.4q.2-.24.44-.16s.07.01-.02,0c.44-.13.75-.23,1-.3.15-.16.23-.25.29-.32.2-.08.38-.16.55-.23.23.18.23.18.31.08.11-.15.08-.27.12-.42.14-.17.29-.36.45-.56.21-.09.44-.23.63-.21.15.06.18.34.49.14l.22-.28c.05-.19.02-.37.22-.59.14-.15.08-.29.15-.44.08-.19.2-.38.29-.56-.07-.06-.12-.1-.23-.19.44-.45.36-.84.47-1.27l.22-.27c.06-.18.02-.27-.08-.32-.17-.08-.22-.25-.09-.63-.42.29-.66.66-.92,1.02.02.24-.13.48-.31.72l-.13.74s-.07.1-.1.14l-.23.28c-.14.18-.28.27-.36.22-.05-.03-.13-.09-.12-.16.04-.33.11-.68.16-.98.1-.14.21-.25.23-.33.06-.2.08-.4.11-.56-.06-.11-.22-.1-.13-.33.15-.22.32-.45.47-.67.02-.13.04-.22.06-.34.22-.27.45-.55.68-.84.06-.3.11-.59.17-.87.08-.1.16-.19.23-.28.27-.13.51-.14.72-.32.07-.23.12-.44.17-.6-.07-.08-.12-.13-.14-.15.05-.37.09-.7.14-1.03.35-.14.67-.27.99-.39.11.09.21.18.32.26.02.01.09-.03.14-.05.12-.25.14-.46.13-.67-.08-.24-.41.07-.56,0l-.39-.33s-.02-.07-.03-.11l.05-.29c-.04-.05-.08-.1-.13-.17-.12.04-.25.08-.41.14-.06-.05-.14-.12-.22-.18-.03-.02-.08-.03-.07-.07,0-.09.02-.19.07-.28.18-.29.36-.32.45-.24l.71.6c.14-.05.27-.1.39-.14.22.18.43.36.63.52-.02.16-.03.3-.05.46.1.02.21.03.31.05.1-.12.18-.22.27-.33.31-.11.63-.23.97-.35.04.03.09.06.15.1.07.22-.33.49-.29.71.05.04.11.09.18.15-.1.18-.2.37-.3.56-.13.74-.25,1.47-.38,2.21,0,.03.05.05.07.07l.35-.43c.12-.68.24-1.37.35-2.07.22-.27.45-.56.67-.83.16-.61.18-1.17.34-1.71.19-.24.34-.42.47-.58.12-.05.21-.08.31-.12.07-.07.11-.18.07-.24-.08-.11-.2-.18-.3-.26.04-.22.07-.42.11-.62.13-.06.27-.12.39-.17.08-.1.16-.19.23-.28.09-.55.19-1.09.28-1.64.41-.17.44.26.67.28.23-.08.41-.14.57-.2.1-.12.17-.21.24-.3.1-.32-.25-.35-.06-.73-.05-.05-.09-.1-.15-.15.04-.28.09-.56.13-.84-.16-.14-.32-.27-.44-.37-.3.03-.59.25-.83.25-.14-.15-.34-.22-.43-.43l.05-.3c-.19-.35-.61-.43-.78-.78.04-.21.08-.41.12-.6.16-.2.31-.38.46-.56.02-.2.05-.37.22-.6.09-.12.1-.29.17-.5.4-.57.95-1.12,1.36-1.74.02-.14.04-.24.06-.35.26-.11.53-.22.78-.33.08-.1.16-.19.23-.28.07-.3.06-.57.21-.93.1-.08.23-.18.34-.27.12.1.23.19.35.29-.1.18-.2.37-.3.56l-.13.73c-.09.15-.26.27-.25.44,0,.03,0,.07.03.1.1.13.32.14.24.45-.07.29.19.37.06.72-.06.15-.06.29-.08.44.32-.12.64-.25.99-.39.02-.18.03-.36.06-.62.01.03,0,0-.02-.03-.13-.22-.13-.22.07-.47.14-.18.35-.35.35-.61-.06-.05-.14-.12-.21-.18-.13-.12-.11-.21.09-.48.11-.14.21-.28.24-.31.11-.44.19-.79.26-1.08-.08-.09-.12-.14-.17-.19l.1-.59c.12-.12.2-.32.42-.34.16.11.35.25.55.4l1.51-.61c.08.14.34.11.27.42-.03.05-.07.1-.1.14l-.23.28c-.23.29-.22.45.04.49.03,0,.09-.03.14-.05.3-.37.61-.75.92-1.13.03-.03.09-.04.15-.07.27.08.41.34.65.47.05.03.16-.03.24-.05.1-.14.26-.27.24-.49-.15-.12-.33-.27-.51-.43-.18-.15-.38-.3-.55-.47-.04-.04.01-.17.02-.26.15-.18.3-.35.47-.54.03-.03.09-.04.15-.06.2.17.41.34.62.52.14-.05.27-.09.42-.14.1.08.2.17.31.25.02.02.09-.02.13-.04.08-.05.13-.15.09-.23-.15-.29-.15-.28.08-.57l.11-.14c.21-.27.23-.37.09-.48-.18-.15-.37-.31-.53-.44-.16.05-.28.08-.35.11.02-.21.03-.4.05-.57.17-.08.3-.14.43-.19q1.25-1.54,1.53-1.75c.06.04.11.08.17.12-.02.14-.04.28-.06.43l.23.2.58-.71c.06-.34.12-.68.18-1.04-.05-.04-.1-.08-.15-.13l-.39.14-.16-.13c.03-.2.07-.4.1-.59.29-.39.29-.39.54-.29.03.01.07.01.04,0,.25-.08.43-.13.57-.17.19-.23.34-.42.52-.64l-.11-.29c.08-.48.17-.97.27-1.54.15-.18.38-.46.6-.75.08-.1.28-.09.33-.02.06.1-.02.27,0,.39.02.18.13.24.35.11.08-.09.15-.18.22-.26.13-.06.26-.12.38-.18.07-.41.14-.81.21-1.2.03-.05.07-.1.1-.14l.23-.28c.22-.28.22-.36-.02-.49-.14.04-.27.08-.39.11-.11-.11-.2-.2-.28-.28.03-.15.04-.25.06-.35l-.31-.39c.25-.5.7-.85.97-1.31.09-.54.19-1.08.28-1.64.18-.06.36-.12.56-.19-.01.11-.02.23-.04.37.12-.04.25-.09.38-.13.09.04.11.19.3.07.15-.31.12-.56.2-.85l.68-.84c.06-.3.11-.59.17-.87.13-.16.24-.29.25-.45,0-.14.05-.29.07-.44l-.16-.13.1-.59c.08-.03.18-.1.22-.08.12.06.21.16.3.23-.05.29-.09.54-.14.78.01.03.02.07.05.09.15.13.47-.04.52-.3.05-.26.14-.48.35-.76.08-.51.16-1.04.24-1.57.3-.16.33.1.51.18-.05.31-.11.64-.17.99-.05.38-.18.79-.16,1.13.17.21.47-.04.76-.17-.05-.11-.09-.2-.16-.36.03-.1.08-.3.14-.56.13-.17.27-.42.25-.68.14-.17.28-.36.44-.54.05-.05.14-.05.21-.08-.01.14-.02.28-.03.4.17.07.2.34.49.16.08-.1.16-.19.22-.28.03-.16.06-.3.1-.46.23-.28.46-.56.71-.88-.04-.1-.08-.19-.14-.33,0-.07.03-.22.05-.37l-.15-.13c.02-.15.04-.29.06-.43l-.17-.12q-.36.13-.34-.04l.22-.29.09-.43.4-.17c.18-.35.43-.29.59-.42.19-.24.34-.42.46-.57.07-.18,0-.29.16-.44.17-.06.35-.13.51-.19.08.04.13.08.19.11.19-.07.37-.14.55-.21.08-.1.16-.2.23-.29.13-.29-.23-.26-.04-.62.09-.08.21-.19.32-.29.06.02.09.04.12.05.2.09.29.05.31-.19.03-.26.31-.48.33-.74.01-.27.09-.58.14-.88,0-.05.01-.1.02-.14.08-.1.16-.2.24-.29.08-.01.19-.06.23-.03.09.06.18.08.32,0,.16-.2.31-.39.43-.54.07-.38.14-.72.21-1.06-.06-.05-.11-.09-.16-.14.03-.2.07-.4.1-.59.07-.09.14-.19.22-.3.03-.14.06-.3.09-.43.01-.04.07-.09.08-.17-.04-.06-.03-.11-.02-.15,0-.03.03-.09.05-.1.11-.08.15-.06.14.03,0,.09-.04.18-.14.25-.01.01-.06-.03-.03-.03.11.1.19.16.27.23.14-.05.32-.17.39-.13.25.13.24.15.57-.23.03-.14.06-.28.09-.43.26-.11.52-.22.77-.33.04-.16.07-.29.11-.42.21-.07.39-.12.55-.38.12-.3.12-.58.18-.87.07-.09.15-.19.23-.28.26-.1.52-.21.75-.31.13-.26-.03-.25-.1-.36.04-.16.08-.36.14-.59.16-.21.28-.45.27-.68.07-.1.14-.19.22-.3.26-.11.53-.22.79-.33.24-.3.47-.58.72-.89-.04-.1-.07-.19-.11-.3-.29.11-.56.21-.82.3-.05-.05-.11-.09-.18-.15.1-.18.2-.38.3-.57l.13-.74.23-.28c.14-.06.27-.12.41-.17.08-.1.15-.2.21-.28.04-.16.07-.3.11-.46.15-.19.3-.37.42-.52.05-.19.09-.33.12-.48.27-.28.5-.55.49-.87,0-.03.05-.1.08-.14.19-.22.23-.38.09-.48-.08-.06-.16-.13-.21-.18.04-.24.07-.43.1-.62.14-.06.28-.12.39-.17.24-.3.47-.58.69-.86.07-.41.14-.8.21-1.19l.2-.29c.14-.57.14-.61-.03-.91.09-.49.19-1.03.29-1.57-.05-.05-.1-.1-.14-.14.02-.15.03-.29.05-.44-.1-.09-.21-.17-.3-.25.01-.07.02-.13.03-.17.08-.3-.21-.37-.06-.72.01-.03-.01-.08-.04-.09-.16-.07-.06-.3-.04-.48-.05-.05-.09-.1-.14-.15.02-.13.04-.28.06-.42-.05-.04-.1-.08-.16-.13l.38-2.21s.04-.1-.07.16c.23-.45.3-.6.37-.73-.07-.06-.12-.1-.17-.14l.06-.44-.31-.26c.09-.28.06-.47-.08-.59l.28-1.61c-.05-.05-.11-.09-.16-.13.02-.15.04-.29.06-.46-.29.02-.05-.37-.13-.58-.07-.06-.17-.14-.26-.22.02-.13.04-.22.06-.32-.07-.17-.19-.28-.38-.3l-.28.11-.1-.03c-.21-.09-.23-.08-.45.18-.11.14-.22.28-.32.4-.41.06-.63.43-.85.78-.02.1-.03.2-.05.3-.14.26-.36.47-.54.71-.21.29-.48.53-.63.85-.02.1-.03.2-.05.31-.14.18-.29.36-.45.55l-.09.45c-.15.18-.3.37-.46.57-.06.38-.13.78-.2,1.17,0,.02-.05.07-.08.11-.17.05-.35.12-.53.39-.03.11-.06.26-.1.43-.13.17-.29.35-.45.56-.12.05-.25.11-.39.17l-.68.84c-.03.15-.06.3-.09.42-.32.39-.62.77-.91,1.13-.15.07-.29.13-.43.2-1.68,2.08-3.37,4.16-5.03,6.21-.15.1-.27.06-.39.23l-.13.74c-.07.1-.14.19-.22.29-.13.06-.27.11-.41.17l-.45.56c-.14.06-.28.12-.39.17-1.01,1.25-2.01,2.48-2.99,3.7-.07.31-.06.58-.21.91-.14.17-.3.35-.42.49-.14.05-.23.09-.34.13-.21.26-.44.54-.7.86-.02.1-.06.25-.09.41-.06.08-.14.18-.21.28-.26.11-.53.22-.79.33-.04.16-.07.31-.09.41-.41.51-.79.98-1.16,1.43-.12.05-.21.08-.33.13-.34.37-.67.78-.96,1.19-.02.14-.04.24-.07.38-.2.25-.43.53-.65.81-.27.33-.53.66-.8,1-.22.28-.49.53-.63.85-.02.1-.03.2-.05.31-.15.18-.3.37-.45.55l-.09.45c-.3.37-.61.75-.91,1.12-.03.15-.06.3-.09.42-.17.21-.32.39-.45.56-.16.07-.29.14-.41.19-.4.49-.78.96-1.13,1.39-.52.21-.55.25-.65.66-.04.17-.12.3-.22.42-.05.3-.09.59-.12.81-.23.28-.38.47-.53.65-.03.15-.06.3-.09.42-.17.35-.42.3-.62.49l-.05.3c-.26.46-.7.81-.95,1.28-.02.1-.03.2-.05.31-.75.93-1.52,1.87-2.28,2.82-.03.16-.07.3-.1.46-.91,1.12-1.83,2.26-2.74,3.39-.03.15-.06.3-.09.45-.23.28-.46.56-.68.84-.03.16-.06.3-.1.46-.38.47-.76.94-1.12,1.39-.04.17-.08.32-.11.44-.4.49-.78.96-1.1,1.37-.06.22-.1.37-.13.48-.26.31-.46.64-.79.66-.03.14-.06.28-.1.43-.06.08-.14.17-.21.26-.03.16-.06.3-.09.45-.53.66-1.07,1.32-1.6,1.97-.03.16-.06.3-.1.46l-2.06,2.55c0,.25-.1.49-.33.73-.08.08-.13.19-.2.28-.02.1-.03.2-.05.31-.25.4-.59.75-.88,1.12-.27.34-.53.66-.8,1-.29.38-.64.72-.87,1.12-.02.12-.04.22-.06.34-.13.06-.25.12-.39.18-.29.36-.6.74-.91,1.12,0,.04-.02.09-.03.14-.02.1-.04.2-.06.29-.08.1-.16.19-.23.28-.1.04-.19.08-.28.11-.05.03-.09.05-.13.07-.27.37-.27.37-.17.51.12.18.11.21-.11.48-.11.13-.23.27-.33.38-.52.22-.54.25-.66.82-.14.17-.29.36-.47.58-.24.1-.51.21-.78.32-.08.1-.16.19-.22.27-.03.16-.07.31-.1.46-.15.19-.3.37-.44.54-.05.26-.09.51-.14.81-.25.1-.51.2-.77.3l-.45.56c-.14.06-.27.12-.4.17-.03.15-.07.3-.1.45-.15.19-.3.37-.44.55.02.4-.29.69-.59.98-.09.04-.18.07-.28.11-.03.08-.08.18-.08.25,0,.17-.13.3-.25.45-.13.06-.26.11-.4.17-.13.29.22.26.07.56q-.37.45-.62.62l.04-.4s-.07.01-.11.03c-.04.02-.09.05-.13.09l-.35.43c-.25.33-.56.63-.76.99-.02.1-.03.2-.06.35-.5.62-1.04,1.28-1.57,1.94-.03.04-.08.06-.13.09l-.27.11c-.08.09-.16.18-.27.31-.01.16-.03.34-.04.57.07-.02.19-.05.31-.09,0,.02.03.05.01.09-.1.24-.29.47-.32.73-.02.19-.23.38-.44.43-.15-.13-.31-.26-.47-.39-.02-.02-.09.03-.18.07l-.14.83-.23.28-.13.74c-.02.1-.08.15-.2.17-.17-.04-.19-.31-.46-.21-.27.23-.47.53-.7.81-.26.33-.56.63-.83,1.12-.07.43-.16.96-.25,1.48-.2.02-.2.01-.29-.05-.08-.06-.17-.1-.25-.14-.31.28-.31.28-.39.55-.11.39-.14.42-.48.58-.04.02-.09.04-.16.06-.29.36-.59.73-.93,1.14-.02.11-.06.25-.09.41-.06.08-.14.18-.21.27-.15.31.2.28.07.57-.16.19-.31.38-.46.57q-.35.06-.28-.44c-.21.07-.24.08-.79.8l-.31.4c-2.53,3.32-2.11,8.03.82,10.87.11.1.24.23.4.38.09.03.19.05.29.08.51.39.89.96,1.4,1.35.19.03.38.09.54.31.28.07.56.14.78.2.85.87,1.61,1.65,2.37,2.43.15.05.29.1.44.14.42.43.84.87,1.24,1.28.17.06.31.11.46.16.22.29.52.5.72.8l.08.29s.05.1.09.14l1.02,1.05c.08.08.14.18.23.29.09.36.19.74.28,1.11.19.19.35.36.52.53.19.06.38.11.6.17.18-.18.38-.38.57-.57.02-.02.08.01.13.02.3.19.51.49.77.73.3.29.57.62.9.88.05.01.1.04.14.04.12.01.19.06.22.14.02.05.04.11.02.13-.09.1-.19.2-.27.28-.17-.04-.3-.07-.45-.1-.04.18-.32.17-.19.48.59.6,1.18,1.21,1.78,1.83l.83.26c.2.32.44.24.6.37.08.23.15.42.21.58-.2.23-.2.24.14.61.04.13.09.27.13.43.07.08.16.16.25.25.16.08.22,0,.32-.03.09-.04.25.02.42.04.07-.07.16-.17.26-.26.14.03.27.07.42.1.11.02.2.06.24.13.07.12.05.19-.04.22-.08.03-.11.11-.02.22.04.06.16.09.24.12.05.02.09.03.14.04.04.04.09.08.13.11.16.16.24.32.18.39-.04.05-.1.12-.17.1-.39-.11-.76-.21-1.13-.32,0,.04,0,.08.02.12.02.04.04.1.08.14.09.09.17.17.25.26.35.33.65.71,1.01,1,.11.03.2.06.3.09.42.32.72.79,1.14,1.08.11.03.21.06.31.09.16.16.33.33.49.51l.43.14c.16.17.33.34.5.51.14.05.29.09.41.13.35.36.69.71,1.01,1.04.05.16.1.3.15.46.25.26.5.52.74.76.11.41.21.79.32,1.19.24.25.5.51.75.77l.13.44.25.25c.14.05.28.09.42.13.09.1.17.18.24.26.05.15.1.29.15.46.13.09.27.19.39.27.06-.06.11-.11.16-.16l-.09-.41c.05-.05.1-.1.16-.16.13.09.26.18.38.26.28.08.56.16.77.22.43.44.77.79,1.11,1.13l.15.58c-.17.22-.23.21-.51-.05-.09-.08-.17-.19-.26-.26-.08-.06-.18-.1-.28-.15-.05.05-.1.1-.15.16.05.18.11.37.18.6.56.57,1.15,1.18,1.74,1.78.05.15.1.3.14.45.07.08.15.17.24.26.14.04.28.09.42.13.34.35.68.7,1.01,1.04l.13.44c1.1,1.13,2.21,2.26,3.3,3.38.07.25.13.49.2.74.19.23.37.46.37.71.16.16.33.33.52.54.1.04.24.08.39.13.04.13.08.27.13.42.08.08.16.17.24.25.05.15.09.29.13.41.19.19.36.36.5.51.16.06.3.11.4.14.21.21.37.38.5.51.07.19.12.33.16.44.27.3.56.53.77.86,0,.16.08.35.31.54.12.04.26.09.41.14.32.33.66.68,1.01,1.03.04.13.08.28.13.43.59.61,1.19,1.22,1.77,1.82.05.15.09.3.14.45.25.26.5.52.73.75.06.17.1.31.15.43.4.41.79.81,1.17,1.2.04.04.06.09.09.14.16.52.18.54.73.72.75.77,1.51,1.55,2.3,2.36.03.11.08.25.13.41.24.25.49.51.75.77.13.04.27.09.42.14.34.34.68.69.94.97.35.21.59.15.88.35l.08.29c.29.19.54.18.81.29.08.08.16.17.27.28.04.17.08.36.14.6,0,.09-.22.1-.04.36l1.13.32s.09.07.13.11c.13.16.28.23.38.18.09-.05.15-.14.33-.05.08.08.16.17.25.26.04.14.09.28.13.42.09.09.17.18.25.26.39.11.76.22,1.14.33.04.03.1.07.13.1q.31.25.55.1l.57.16.13.43c.09.09.17.17.25.24.15.05.29.1.44.15.93.96,1.86,1.91,2.68,2.75.44.16.77.28,1.08.4.17-.17.31-.31.45-.46.27.13.45.1.58-.02.24.07.47.14.73.21-.07-.27-.13-.55-.2-.81l.14-.15c.52.15,1.04.3,1.56.45.08.02.2-.15.15-.25-.05-.09-.12-.19-.19-.27-.21-.21-.46-.11-.68-.4-.05-.06-.18-.1-.27-.13-.18-.05-.38-.11-.57-.16-.06-.26-.06-.26.23-.46.24.04.42.08.58.11.2.21.37.38.48.5.38.13.71.24,1.04.35-.06-.22-.11-.42-.17-.62-.16-.17-.33-.34-.51-.52-.13-.04-.27-.09-.41-.13l-.15-.58c.04-.05.08-.11.13-.17-.03-.13-.06-.27-.1-.42.14-.14.29-.29.44-.44-.05-.18-.09-.37-.17-.57-.03-.08-.15-.18-.22-.26-.23-.1-.47-.19-.67-.17-.22.17-.34.43-.61.54-.19-.06-.37-.12-.55-.17-.02-.07-.06-.14-.04-.16.19-.2.38-.39.59-.6.1.03.24.06.38.1l.14-.14c.14.04.28.07.41.11l.13-.16c-.05-.19-.1-.38-.16-.58l-.25-.25c-.01-.09-.05-.19-.02-.25.03-.06.1-.1.18-.09.18.03.37.1.56.16.18.18.35.35.5.51.07.02.11.03.16.05.09.04.16.08.24.12.03.1.04.2.08.3.13.28.42.43.55.29.07-.07.14-.14.21-.21-.06-.22-.11-.41-.16-.6-.19-.2-.2-.21-.31-.44.14-.17.3-.34.43-.5-.04-.15-.08-.25-.09-.34,0-.19.18-.23.36-.1.09.07.2.22.25.22.32.03.55.3.81.56.13.13.26.15.35.06l.65-.67s-.01-.09-.04-.14c-.01-.03-.07-.07-.1-.08-.09-.03-.19-.06-.31-.09-.15-.15-.32-.32-.48-.5-.04-.05-.03-.14-.04-.19.19.04.38.08.55.12.11.11.19.2.3.31l.3-.08c-.03-.16-.06-.3-.09-.44.13.03.26.06.4.1l.14-.14c.14.03.27.06.4.09-.06-.21-.11-.4-.16-.59l-.25-.26-.42-.13c-.12-.13-.28-.25-.29-.44.37-.38.76-.76,1.15-1.15-.03-.15-.06-.29-.1-.45.32.11.65.21.98.32.01.05.06.16.04.2-.06.12-.16.22-.24.33-.01.02.02.09.03.14l.26.26c.19.05.37.11.58.16.09-.09.18-.18.29-.29.27.08.55.16.83.24l.14.04c.15.05.39.38.33.49-.04.09-.15.14-.07.32.08.08.16.17.25.27.04.14.08.28.13.42.19.05.38.11.6.17.28-.28.57-.57.85-.87.02-.02,0-.08-.01-.15-.17-.2-.36-.42-.55-.64-.07-.24-.12-.48-.2-.73-.03-.08-.14-.18-.23-.28-.13-.04-.27-.09-.42-.14-.08-.07-.16-.16-.25-.24l-.41-.13c-.04-.14-.09-.29-.13-.42-.09-.1-.17-.19-.25-.28l-.08-.29c-.03-.09-.1-.14-.22-.15l-.29.29q-.37-.17-.51-.54l.43-.43q-.09-.39.08-.34l.24.25c.43.13.85.26,1.14.34.26.18.4.27.52.35.11-.11.21-.21.3-.31.14.04.28.07.4.1.1-.1.2-.2.29-.29-.05-.2-.11-.4-.16-.59-.08-.08-.16-.17-.24-.24-.33-.1-.66-.19-1.03-.29-.07.02-.08.18-.26.09-.09-.04-.18-.13-.26-.21-.12-.13-.24-.26-.34-.4-.03-.04-.03-.09-.04-.14.05-.09.23-.1.1-.29-.1-.15-.25-.11-.37-.17-.09-.08-.17-.16-.28-.26-.26-.08-.55-.17-.83-.26-.25-.26-.5-.52-.75-.76-.15-.05-.29-.1-.42-.14-.33-.37-.33-.38-.15-.58.27.07.54.14.81.21-.19-.38-.2-.38-.67-.75l-.29.11-.71-.2c-.06.04-.11.07-.18.12-.12-.03-.26-.06-.39-.1-.31-.09-.39-.16-.52-.53-.06-.16-.14-.28-.26-.42-.05-.06-.05-.16-.08-.24.09.03.18.05.28.08.12.03.24-.08.22-.17-.06-.24-.13-.48-.19-.73.08.02.17.02.23.07.17.16.34.34.47.48.47.13.89.25,1.32.38.04.01.08,0,.14,0,.02-.09.04-.19.06-.29-.28-.29-.54-.55-.93-.95-.16-.02-.43-.04-.56-.06-.28-.19-.41-.29-.54-.37-.11.11-.21.21-.32.32-.18-.06-.37-.12-.57-.19-.19-.24.04-.25.05-.38-.06-.24-.13-.48-.2-.75.12.02.24.05.4.08.05-.05.12-.12.19-.19.11-.11.1-.11-.13-.47-.06-.09-.11-.19-.13-.28-.03-.12-.06-.19-.14-.24-.18-.03-.36-.09-.56-.34-.04-.11-.08-.25-.14-.44-.17-.03-.35-.06-.59-.1,0,0-.06.04-.12.07-.3-.02-.64-.16-.97-.24-.24-.27,0-.27.02-.39-.22-.35.1-.43-.01-.73-.16-.17-.33-.34-.56-.57-.13-.03-.31-.06-.5-.12-.24-.08-.47-.16-.7-.24-.17-.22-.36-.26-.54-.31-.33-.33-.64-.4-.94-.43-.06.04-.11.07-.09.06-.41-.08-.72-.14-.99-.19-.16-.27-.02-.29.04-.38.14.03.27.07.41.11l.51-.51c-.13-.13-.25-.26-.46-.47ZM62.89,143.68s-.08-.04-.1-.06c-.07-.12-.05-.16.04-.14.09.02.17.06.24.17.01.02-.03.05-.06.06.36-.03.39.08.38.08-.06,0-.13,0-.2-.03-.14-.08-.16-.16-.05-.17.05,0,.14.05.22.09-.38.04-.43.03-.47.01ZM39.99,57.42c-.12-.11-.1-.22.08-.45l.21-.26-.24-.2c.03-.19.07-.39.11-.59.23-.19.28-.05.35.06-.09.25.01.45-.22.73.02.02.07.03.07.06-.04.22-.08.44-.11.65,0,.03-.06.08-.1.13,0,.3-.11.34-.11.33,0-.06-.02-.14.01-.21.06-.15.14-.18.16-.06,0,.05-.03.15-.06.23-.05-.33-.1-.37-.15-.41ZM24.43,83.02c.03-.19.07-.39.11-.59.32-.45.37-.46.58-.22.01.16-.14.29-.23.42-.1.21,0,.38-.21.59.06.22.06.22-.08.71-.29.03-.3.02-.24-.31l.32-.4-.24-.2ZM24.06,85.1l.79-.29c-.08.35-.33.58-.59.8-.03.03-.09.04-.12.03-.06-.03-.11-.07-.17-.1-.1.01-.18.07-.25.17l-.23.28c-.24.28-.31.29-.5.09.03-.19.07-.39.1-.59.07-.09.15-.18.21-.25.1-.22,0-.38.21-.6l-.23-.19.06-.42-.15-.13.1-.57c.11-.22.25-.38.45-.4l.14.14c-.09.52-.18,1.04-.29,1.64.11.09.29.24.47.39ZM23.74,89.12s.09-.02.13-.05c.03-.02.07-.07.07-.1.04-.24.09-.49.13-.73l.22-.28c.08-.02.2-.09.24-.06.17.11.37.2.23.58.18.18.13.5,0,.86-.04.05-.07.09-.11.14-.04.04-.1.11-.12.11-.31,0-.6.55-.92.56-.07,0-.17.05-.25.08l.13-.73c-.04-.09-.1-.18-.13-.28-.03-.09.03-.19.14-.29-.08-.09-.07-.14-.06-.18,0-.03.03-.09.05-.1.11-.08.15-.06.14.03,0,.09-.04.18-.14.25-.01.01-.06-.03-.07-.06.15.13.22.2.31.25ZM63.54,147.06c-.04-.13-.09-.27-.13-.41l-1.13-.32c-.23-.17-.44-.37-.59-.62-.06-.27.2-.26.25-.43-.03-.15-.06-.29-.09-.42.06-.04.12-.08.17-.12l.71.2c.21-.09.29-.09.6-.02.06-.06.13-.13.2-.2.1-.09.22-.09.33,0,.13.12.25.25.27.41,0,.04.02.1.04.15.29.21.53.18.81.3.24.25.49.51.76.78.32.09.65.2.97.27.07.02.11-.07.18-.11-.03-.13-.06-.26-.09-.41.04-.05.08-.1.14-.16.46.14.93.3,1.41.45.03.1.07.24.12.38l.5.51c.05.2.1.39.16.59-.19.19-.38.38-.59.59-.25-.07-.53-.14-.79-.21-.05.05-.1.1-.14.15.01.06.01.12.04.15.25.27.47.51.73.79.05.06.04.15.06.23-.38-.11-.75-.22-1.15-.33-.09.09-.18.18-.29.29-.18-.05-.36-.09-.55-.16-.08-.03-.19-.13-.26-.21-.06-.08-.08-.18-.12-.26.14.03.27.07.4.1.05-.06.09-.11.13-.17l-.16-.58-.25-.25c-.24-.14-.26.08-.43.05-.13-.02-.26-.08-.38-.05-.37.09-.38.07-.87-.25-.05-.03-.08-.05-.13-.09-.12-.07-.25,0-.36-.18-.05-.09-.06-.19-.09-.3l-.4-.14ZM23.68,113.77c-.09-.03-.19-.05-.3-.09-.26.1-.38.37-.6.52-.05.03-.16,0-.24-.01l-.51-.52c-.06-.13-.05-.19.03-.18.13.02.29.12.37.04.02-.02.05-.05.08-.08-.03-.13-.06-.26-.09-.42l.13-.13c0-.15-.12-.28-.22-.42-.1-.13-.13-.28-.22-.51-.07-.12-.26-.27-.42-.44-.1-.11-.21-.11-.34-.03l-.08.05c-.25-.11-.45-.11-.56.02-.2-.05-.38-.1-.56-.14-.18-.19-.35-.36-.52-.53-.13-.31.13-.32.22-.49.39.11.81.22,1.21.33-.03-.14-.06-.28-.09-.41.17-.21.16-.21-.02-.45-.29-.37-.26-.48.13-.45.08.08.17.17.26.26.65.18,1.31.37,1.97.55l1.27,1.3c.15.05.29.1.43.15.08.07.16.16.25.25.13.04.27.09.41.13.13.31-.14.31-.2.49-.41-.08-.84-.24-1.25-.34l-.73.73c.05.27.19.56.17.8ZM11.12,99.53c.06-.05.09-.1.04-.22-.04-.08-.12-.12-.23-.13-.04,0-.09-.03-.14-.04-.21-.24-.58-.39-.59-.73.19.05.38.11.57.16l.24.25.42.13.5.51c.14.04.28.09.42.13.09.09.17.18.24.26.05.15.09.29.13.42.09.1.17.19.25.28l.15.57s-.09.1-.18.18c.08.24.19.53.28.77-.24.19-.24.19-.47,0-.27-.22-.27-.22-.45-.12-.03.01-.06.02-.08.03-.2-.05-.39-.1-.56-.15-.26-.27-.52-.53-.77-.78-.14-.04-.28-.09-.41-.13-.43-.44-.85-.87-1.3-1.33.02-.1.04-.2.07-.31.51.14.97.1,1.47.64.17-.17.28-.3.41-.41ZM11.73,96.76c-.19.38.14.41.06.73-.07.09-.15.18-.25.31-.15.05-.33.11-.55.18-.12-.06-.26-.15-.53.07-.14-.12-.27-.23-.4-.34q-.14-.12.09-.48s.06-.1.04-.07c.06-.26.11-.45.15-.64-.12.02-.2.09-.28.17-.32.31-.32.31-.5.1.02-.29.34-.47.51-.86.09-.3.07-.69.22-1.14.06-.02.13-.07.14-.05.42.35.84.7,1.28,1.06-.04.26-.08.55-.13.83.05.05.1.1.15.15ZM33.06,117.59c.14.42-.24.4-.35.62-.33-.03-.7-.16-1.07-.3-.18-.23-.36-.28-.57-.32-.37-.34-.74-.72-1.03-1.05-.09-.21-.12-.36-.22-.49-.11-.14-.22-.26-.22-.4l.29-.29c.28.04.44.35.69.55.11.04.25.09.42.15.23.23.48.49.78.8.23.04.5.09.72.13.24.24.4.41.57.59ZM45.72,55.24c-.1.11-.22.1-.32.02l-.23-.2s-.09-.1-.13-.15c.02-.1.03-.19.05-.29,0-.03-.02-.05-.04-.07l-.68.26c-.11-.02-.2-.06-.19-.2,0-.1.06-.19.15-.29.04-.04.08-.09.11-.14.07-.09.14-.19.21-.27.03-.15.06-.3.1-.44.15-.19.3-.37.43-.53.04-.16.07-.29.1-.42.3-.13.32.13.48.19-.02.14-.04.28-.06.43l.46.39s0,.1-.01.14l-.22,1.31c-.07.09-.13.2-.21.28ZM15.06,99.44c.04.15.1.34.15.52-.02.03-.02.07-.04.06-.24-.07-.47-.13-.7-.2-.05.04-.11.08-.17.12-.12-.03-.26-.06-.41-.1-.04.04-.09.09-.15.15-.17-.06-.36-.13-.62-.22-.22-.15-.42-.46-.67-.66-.14-.27-.2-.49-.2-.69.05.01.11.01.14.04.26.26.5.49.77.76.1.09.18.08.2.02-.06-.24-.13-.48-.2-.76.08-.08.16-.19.28-.26.04-.02.15.04.22.06q.11.38.44.47c.14.04.28.08.44.13.15.16.32.33.52.53ZM68.98,150.14l.56.16c.08.08.17.16.32.3.26.05.58.11,1.02.19.09-.08.26-.23.42-.37q.23.12.42.33s.05.12.03.14c-.12.16-.25.32-.39.51.02.08.04.22.07.36-.12.19-.24.39-.5.45-.05-.02-.1-.02-.14-.06-.09-.08-.16-.17-.23-.25-.05-.15-.09-.29-.13-.4-.19-.19-.35-.36-.51-.52-.2-.06-.39-.11-.59-.17-.09.09-.17.21-.29.28-.07.04-.18-.03-.22-.1-.03-.05-.05-.12-.04-.14.09-.1.19-.2.28-.29l-.1-.41ZM39.32,61.07c-.06,0-.06-.07-.02-.2.01-.05.02-.1.03-.15l.08-.44s-.1-.09-.14-.15c-.06-.09.03-.21.21-.29l.31.26s.09-.02.13-.05c.28-.21.45-.55.69-.77.04-.12.08-.22.11-.31.09-.34.12-.39.47-.56l.31.26c-.03.2-.07.39-.1.6-.14.17-.29.36-.46.57-.11.05-.24.11-.39.17-.14.17-.29.36-.44.55l-.41.17c-.11.12-.2.31-.36.33ZM49.07,51.42c-.32.12-.63.25-.95.37.09-.48.18-.96.27-1.48.02-.03.09-.12.17-.24.16-.07.34-.14.51-.21.2-.04.24.13.35.18.09.31-.14.76-.11,1.06-.11.14-.18.23-.26.32ZM27.81,109.82c.13.1.28.12.46.2.13.13.3.31.53.55.05.26.12.59.19.95-.12-.03-.29-.07-.45-.11-.1-.08-.19-.14-.27-.22l-1.02-1.05s-.06-.09-.1-.15c-.09-.29.23-.23.23-.43.18.02.3.15.44.26ZM62.36,142.83c-.08.09-.18.18-.27.27.03.12.07.22.08.31.02.14-.06.25-.19.2-.27-.11-.39,0-.57.03-.03,0-.08-.04-.12-.05.06-.27-.37-.56-.41-.84.24-.24.48-.48.74-.75.15.06.34.13.55.2.13.2.15.4.18.64ZM52.21,43.79c-.06-.05-.12-.1-.17-.14.02-.21.15-.44.34-.5.24-.08.42-.3.63-.45.04-.03.08-.03.12-.04l.47.39c-.13.43-.49.74-.77,1.06-.2.08-.37.16-.54.23-.06-.05-.11-.09-.18-.15.03-.13.06-.27.09-.4ZM43.62,52.57s-.06.09-.09.13c-.2.29-.18.52.04.49.08-.01.19-.09.27-.1.18-.02.25.08.19.31-.08.09-.15.19-.23.29-.43.1-.48-.35-.8-.4.01-.16.02-.29.04-.45q-.16-.28.13-.69c.03-.19.06-.38.1-.58.01-.12.04-.2.1-.25.11-.08.17-.05.22,0,.06.08.15.13.23.2-.06.34-.12.68-.18,1.02ZM65.26,144.54c-.13-.03-.27-.07-.41-.11l-.28.28c-.35-.13-.35-.13-.52-.51l.43-.43c-.03-.13-.06-.27-.1-.42.04-.04.09-.09.14-.14.13,0,.25.09.38.23.14.14.27.11.41.18.21.11.34.28.38.48l-.43.43ZM47.87,52.05c-.02.19-.07.36-.03.46.03.1.16.12.08.34-.17.21-.36.44-.54.67q-.2.24-.44.15s-.04-.06-.04-.1c.1-.59.2-1.17.31-1.84.4-.06.44.28.66.31ZM25.76,115.14c.08.09.16.17.27.29-.02.09-.05.19-.11.41.05.14.16.43.24.66-.09.09-.14.14-.19.19-.19-.05-.37-.11-.58-.17-.04-.13-.09-.26-.14-.42-.1-.11-.23-.23-.35-.36-.24-.25-.24-.49,0-.48.08,0,.19.05.32.09.21-.11.21-.38.53-.21ZM68.07,151.56c.06-.05.11-.09.15-.13.34.09.66.18.99.27,0,.09.04.2,0,.25-.1.14-.24.25-.36.37-.16.06-.5-.2-.56.04-.22-.03-.44-.07-.72-.23-.07-.11-.15-.25-.23-.37.11-.11.21-.21.3-.31.14.04.28.07.41.11ZM59.69,140.31c.03.13.07.28.1.42l-.58.58s-.09-.01-.14-.04c-.08-.05-.12-.13-.1-.23,0-.04.05-.05.07-.08.1-.14.09-.15-.21-.49-.1-.24-.18-.47-.17-.68.02-.02.04-.07.07-.07.32-.03.69.16,1.04.26.1.21-.02.24-.08.33ZM57.98,135.29l.14-.14c.28.04.55.48.82.42.09.08.17.16.27.25.13.04.26.09.4.13.08.16.03.24-.03.31-.07.08.04.26.04.38,0,.18-.11.24-.33.14-.09-.09-.17-.17-.24-.25-.05-.15-.09-.29-.13-.43-.09-.09-.18-.17-.26-.25-.28-.1-.54-.12-.87-.3-.07-.11-.15-.25-.24-.39.17.04.3.08.44.12ZM58.05,37.22q-.13.4-.47.56c-.05-.04-.11-.08-.16-.11-.14.05-.27.09-.37.12-.12-.1-.22-.19-.32-.27.04-.21.07-.41.1-.6.26-.19.29.17.58-.05.14-.17.29-.36.44-.54.14-.09.19-.08.17.02l-.13.73.16.13ZM46.99,49.91c.03-.17.04-.36.1-.55.02-.08.11-.21.18-.28.07-.07.17-.1.25-.14l.16.13c-.02.1-.03.2-.05.3,0,.05,0,.08,0,.15.15.12.3.25.45.37.01.18-.13.32-.3.54-.12.04-.3.09-.48.14-.1.03-.21-.07-.2-.2,0-.09.03-.2.05-.29-.04-.05-.09-.1-.15-.17ZM16.69,106.11c-.05-.18-.11-.36-.16-.53.05-.12.23.03.33.01.14-.02.2-.17.43-.07.14.06.28.1.38.13.2.2.36.37.5.52.11.22-.02.25-.07.33-.23.04-.44-.38-.67-.37l-.14.15c-.19-.05-.38-.11-.59-.17ZM65.86,23.47c-.17.21-.32.39-.46.57-.15.08-.23.04-.32-.01-.09-.06-.24.05-.37.09-.02,0-.04-.03-.04-.06,0-.04,0-.1.03-.14l1.12-1.38s.08-.05.19-.1c-.06.39-.11.72-.15,1.03ZM17.46,103.51l.14-.14c.3.06.6.12.92.44.03.03.09.04.13.04.11.01.18.05.22.13.06.11.03.17-.04.21-.08.06-.14.14-.23.22-.17-.06-.35-.12-.63-.21-.2-.25-.49-.42-.53-.69ZM18.69,105.38c-.17-.06-.36-.12-.58-.19-.24-.17-.46-.45-.7-.69-.07-.07-.09-.18-.13-.27.3.05.6.13.92.43.07.06.18.04.27.09.09.05.19.13.25.21.06.08.09.18.13.27-.05.05-.09.09-.15.15ZM58.09,33.71q-.16.06-.11-.34c-.1-.08-.2-.17-.33-.27.04-.18.09-.38.15-.6.17-.14.36-.19.55-.22-.02.1-.06.22-.04.29.02.11.11.17.12.29,0,.17-.03.37-.04.51-.14.16-.22.25-.29.34ZM24.44,107.59c.11.11.23.23.35.34.29.3.29.33.09.54-.18-.05-.37-.11-.57-.16-.11-.11-.23-.23-.35-.34-.29-.3-.29-.33-.09-.54.18.05.37.11.57.16ZM54.57,133.58c.17.01.37.1.6.16-.02.12-.03.22-.05.31-.11-.01-.19,0-.28-.03-.28-.08-.56-.16-.8-.23-.35-.42-.39-.47-.14-.59.17-.08.42.35.67.37ZM45.31,50.13c-.15.24-.32.46-.52.63-.19.12-.21-.03-.29-.07,0-.14.08-.27.19-.42.12-.15.09-.28.13-.42,0-.03.05-.09.07-.1.17-.08.35-.15.53-.23-.04.22-.07.41-.1.6ZM55.93,34.76c.31-.4.31-.4.36,0,0,.04.02.07.04.09.13.1.13.24-.08.48-.14.16-.11.29-.14.44-.02.09-.11.17-.2.15-.07,0-.11-.08-.16-.13l.18-1.03ZM43.22,58c.1-.12.18-.22.25-.31.32-.06.32-.06.31.27l-.67.83c-.33.1-.32.09-.33-.24.13-.05.26-.11.41-.17.01-.13.03-.27.04-.39ZM49.08,47.18c.07-.04.18-.12.21-.1.17.11.31.25.47.38-.13.39-.13.39-.47.56l-.31-.26c.03-.19.07-.38.1-.58ZM21.04,89.01s-.1.05-.13.05c-.06,0-.05-.08-.02-.21.07-.3.06-.56.21-.92.1-.08.22-.17.36-.28-.07.38-.12.72-.18,1.07l-.23.29ZM59.86,30.1c-.08-.16.07-.43.06-.6.1-.12.17-.21.24-.29.21-.1.33-.05.33.13,0,.17-.05.36-.07.55-.19.08-.37.14-.55.22ZM31.63,77.99c.06-.28.33-.45.48-.69.11-.07.2-.09.19-.02-.06.33-.11.65-.17.98-.28.03-.28.04-.5-.27ZM60.41,30.86l-.45.56q-.33.08-.32-.26l.45-.56q.33-.07.32.26ZM66.46,23.74c.09.2-.06.48-.04.67-.14.17-.26.39-.43.34.06-.35.12-.67.18-1.03.11,0,.22.01.29.02ZM18.98,103c-.28-.09-.33-.15-.51-.53.27.08.53.16.81.24.12.03.18.06.22.14.05.11.03.17-.04.2-.03.01-.05.05-.07.07-.14-.04-.27-.08-.41-.12ZM21.87,91.53s-.04.09-.08.18c-.1.08-.21.18-.41.34.08-.39.15-.72.22-1.05,0-.03.05-.07.07-.09.1-.08.17-.07.21,0,.01.03.05.04.1.09-.03.15-.08.35-.12.53ZM53.96,131.89c-.22-.26-.02-.27.04-.37.14.04.28.08.41.12.27.09.33.15.5.52l-.95-.27ZM61.12,144.3c-.12-.13-.24-.24-.37-.38-.1-.09-.16-.17-.17-.27,0-.07.06-.07.18-.03.14.05.27.07.38.1.11.12.19.2.28.28q.03.33-.29.29ZM38.45,62.59l-.39.14c-.27.1-.31.06-.3-.28.07-.09.15-.18.29-.36.23.12.48.12.4.5ZM31,76.38c.12-.15.22-.28.34-.43.08-.11.15-.18.24-.2.07-.01.07.05.04.18-.03.14-.04.28-.06.4-.1.13-.18.22-.25.31-.27.12-.36,0-.32-.26ZM67.05,160.89q-.35-.16-.51-.52l.14-.14q.35.15.51.52l-.14.14ZM22.88,109.03c.16.01.35.08.53.13.09.24.03.36-.15.34-.16-.01-.35-.08-.53-.13-.09-.24-.03-.36.15-.34ZM55.43,134.75c.08-.05.1-.22.28-.09.15.1.11.24.16.36.02.05.03.09.04.14l.02.12c-.36-.17-.36-.17-.49-.53ZM44.78,57.39c-.11.12-.21.33-.35.32-.12-.01,0-.21,0-.33,0-.04.01-.09.02-.14l.04-.13c.31-.05.32-.06.29.28ZM22.62,85.12c-.13.04-.25.07-.38.13-.11.05-.18.07-.18,0,0-.1.04-.19.14-.28.04-.04.07-.09.11-.14.27-.12.37-.03.32.29ZM24.89,85.63c.03-.08.11-.12.21-.13l.31.26s0,.1-.03.14c-.03.08-.11.12-.21.13l-.31-.26s0-.1.03-.14ZM9.59,103.88c.13.16.37.29.27.46l-.55-.16c-.09-.29.03-.36.28-.31ZM25.17,83.95c.24-.25.26-.04.36,0-.04.29-.21.46-.46.58.03-.2.07-.39.1-.58ZM34.15,119.6c-.1-.13-.3-.24-.27-.38.03-.12.21.02.32.03.04,0,.09.02.14.04l.13.05c.02.32.02.32-.31.27ZM46.78,131.51c.14.04.28.1.41.13.11.02.18.06.22.14.05.11.03.17-.04.21-.03.01-.05.05-.07.07-.35-.16-.36-.16-.52-.54ZM27.75,129.26s-.07-.05-.09-.08c-.1-.16.06-.33.23-.25.03.01.06.06.09.08.1.17-.06.33-.24.25ZM25.61,109.99c.11.06.13.21.04.3-.02.02-.04.06-.07.07-.03,0-.09-.01-.13-.04-.07-.04-.12-.13-.11-.22,0-.04.04-.05.07-.07.02-.08.09-.1.21-.03ZM24.94,80.03c0-.16.25-.47.38-.46.02,0,.05.02.05.05,0,.04,0,.1-.03.14-.07.1-.14.19-.22.27-.03.03-.09.04-.13.05-.02-.02-.05-.03-.05-.05ZM66.4,26.57c.04-.29.19-.47.46-.57-.04.29-.19.47-.46.57ZM59.32,30.9c-.27.12-.38.03-.32-.27.27-.12.38-.03.32.27ZM43.63,126.66c.06.12.06.19,0,.18-.04,0-.12-.02-.13-.04-.06-.12-.05-.18,0-.18.04.01.12.03.13.04ZM45.42,130.56c-.06-.12-.06-.19,0-.18.04,0,.12.02.13.04.06.12.05.18,0,.18-.04-.01-.12-.03-.13-.04ZM17.57,118.43s.08.01.13.04c.07.04.12.12.12.22,0,.01-.08-.02-.13-.04-.07-.04-.12-.12-.12-.22ZM14.24,95.88s.01-.12.02-.13c.11-.07.18-.08.18-.01,0,.04-.01.09-.02.14-.11.07-.18.07-.18,0ZM11.75,91.42s.01-.12.02-.13c.11-.07.18-.08.18-.01,0,.04-.01.09-.02.14-.11.07-.18.07-.18,0ZM14.85,90.27c-.01-.1.03-.19.1-.23.04-.03.12-.06.12-.05.01.1-.03.18-.09.23-.04.02-.12.06-.12.05ZM42.38,60.84s0-.09.02-.13c.03-.08.1-.13.2-.14.01,0-.01.09-.02.13-.03.08-.1.13-.2.14ZM20.01,87.67s.08-.04.12-.05c.06,0,.07.06.02.18,0,.01-.08.03-.12.05-.06,0-.07-.06-.02-.18ZM40.28,58.36s.08-.04.12-.05c.06,0,.07.06.02.18,0,.01-.08.03-.12.05-.06,0-.07-.06-.02-.18ZM54.52,40.87s.01-.12.02-.13c.11-.07.18-.08.18-.01,0,.04-.01.09-.02.14-.11.07-.18.07-.18,0ZM26.08,83.92s0-.09.02-.13c.03-.08.1-.13.2-.14.01,0-.01.09-.02.13-.03.08-.1.13-.2.14ZM58.3,38.87c.01.1-.03.19-.1.23-.04.03-.12.06-.12.05-.01-.1.03-.18.09-.23.04-.02.12-.06.12-.05ZM60.13,34.59s.01-.12.02-.13c.11-.07.18-.08.18-.01,0,.04-.01.09-.02.14-.11.07-.18.07-.18,0ZM26.22,120.35s.03.09.03.13c0,.07-.06.07-.18,0-.01,0-.02-.09-.04-.13,0-.06.06-.07.18,0ZM23.76,77.46s.08-.04.12-.05c.06,0,.07.06.02.18,0,.01-.08.03-.12.05-.06,0-.07-.06-.02-.18ZM30.83,115.45s.08.01.13.04c.07.04.12.12.12.22,0,.01-.08-.02-.13-.04-.07-.04-.12-.12-.12-.22Z"/>
      <path d="M85.64,166.03c.14-.15.29-.29.42-.43.15.03.29.06.38.09.16-.16.31-.31.42-.43-.05-.24-.09-.42-.13-.6-.1-.1-.18-.19-.26-.27-.09-.29-.12-.56-.29-.9-.11-.07-.25-.16-.37-.24-.06.06-.11.11-.16.16l-.57-.16-.13-.11c-.28-.24-.33-.25-.46-.12-.07.08-.13.15-.17.21.05.23.09.42.14.6.27.28.52.53.77.8.03.03.03.09.05.19-.4-.1-.82-.25-1.22-.33-.14.14-.29.29-.42.42-.15-.03-.29-.06-.41-.09-.08.16-.34.16-.22.48.16.17.33.34.49.51.47.14.94.27,1.43.41.09-.09.18-.18.28-.28l.42.11ZM85.93,164.43c.09.29-.01.38-.29.29-.09-.29.01-.38.29-.29Z"/>
      <path d="M45.04,120.86c.11-.11.21-.21.29-.3.17,0,.28.18.42.27.13.09.28.11.44.17.32.33.66.67,1.01,1.03.17.28-.18.28-.03.56.08.09.17.17.25.26.14.05.28.09.42.13.35.38.35.38.17.58-.05.05-.1.1-.19.19-.23-.1-.52-.22-.73-.31-.15.15-.25.25-.36.36-.12-.08-.26-.17-.37-.25-.16-.33-.19-.61-.28-.89-.14-.05-.28-.09-.41-.13-.09-.09-.17-.18-.2-.21-.15-.53-.29-1.01-.42-1.46Z"/>
      <path d="M86.59,167.47c.32.33.65.67.98,1.01.14.05.28.09.42.13.09.09.18.17.26.25.3.12.3-.14.45-.22.2.02.41.06.64.2.01.05.05.12.03.14-.24.24-.48.48-.74.76-.28-.1-.61-.21-1.02-.35-.27-.23-.58-.6-.95-.96-.11-.04-.25-.09-.42-.16-.13-.13-.29-.3-.49-.5-.1-.2-.16-.41-.16-.59.33.1.66.19,1,.29Z"/>
      <path d="M77.86,160.65c.12.27.25.58.06.77-.05.05.03.23.06.34-.13-.04-.22-.06-.34-.1.02.12.06.24.07.36,0,.17-.21.25-.35.1-.19-.19-.35-.28-.54-.32-.15-.03-.25-.23-.39-.29-.14-.07-.28-.08-.41-.17-.14-.09-.25-.25-.26-.4.23-.24.47-.48.71-.72.46.14.92.28,1.4.43Z"/>
      <path d="M17.69,98.85c-.08.51-.15.99-.23,1.48-.3.16-.33-.11-.53-.18.09-.26.19-.57.29-.88-.3.12-.48.19-.67.26-.08.09-.16.18-.25.28-.05.28-.11.57-.17.87-.12.13-.21.31-.37.33,0-.03-.03-.05-.03-.08.08-.49.17-.98.26-1.5-.05-.15-.17-.26-.1-.54.05-.17-.2-.17-.09-.42.08-.1.15-.19.22-.28q.17-.06.12.33c.1.08.2.17.32.27.21.02.39-.42.61-.43.21.18.42.35.61.51Z"/>
      <path d="M37.26,73.24c-.13-.11-.26-.22-.4-.34.04-.18.08-.37.13-.6.1-.05.22-.11.37-.18.2-.25.42-.52.68-.84.02-.1.06-.25.11-.44.08-.09.19-.23.3-.36.2-.25.31-.29.44-.18l.08.07.14.14s0,.1-.03.14c-.12.16-.2.27-.31.42-.06.09-.14.19-.17.28-.06.18.09.18.13.28,0,.04,0,.1-.03.14-.15.2-.28.38-.48.64-.22.06-.48.13-.71.19-.13.27-.03.43-.24.64Z"/>
      <path d="M29.75,83.18l-1.03,1.27c-.08.02-.19.08-.24.05-.15-.09-.27-.21-.42-.34-.1.03-.23.06-.37.1q-.32-.2-.31-.45c.08-.1.15-.19.22-.28.19-.07.37-.14.58-.23.09.08.19.18.31.24.03.02.14-.06.21-.1.1-.51.1-.52.49-.73l.55.46Z"/>
      <path d="M40.56,67.19l-.23.28-.09.44c-.08.09-.15.19-.22.27-.03.16-.06.3-.09.44-.09.1-.16.19-.24.28-.27.13-.32-.1-.45-.19-.03-.02,0-.19.04-.25.23-.29.45-.56.65-.82.06-.37.12-.71.18-1.04l-.16-.13c.03-.19.07-.39.11-.59.07-.03.18-.11.21-.09.12.06.21.16.31.24-.09.29-.07.49.08.59l-.1.58Z"/>
      <path d="M88.94,167.88c-.54-.16-1.01-.29-1.49-.43-.17-.28-.42-.2-.56-.32-.09-.24-.16-.43-.23-.6.37.1.7.18,1.01.27.1.1.18.19.26.27.19.06.38.11.57.16.05-.04.1-.09.21-.17.12.05.32.12.5.19.02,0,.07.07.08.1.02.05.04.11.02.13-.14.15-.29.29-.39.39Z"/>
      <path d="M29.83,83.25c.09-.54.15-.88.21-1.26-.14-.11-.29-.24-.44-.37-.02-.02-.01-.07-.02-.15.08-.11.17-.24.25-.36.31-.16.33.1.5.16-.01.12-.03.26-.04.42.14.12.29.24.43.36.02.32-.09.67-.14,1,0,.03-.04.07-.06.09-.19.08-.37.16-.54.23-.09-.07-.16-.13-.16-.13Z"/>
      <path d="M73.48,161.05c.24.06.37.09.5.12.06-.05.09-.14.16-.12.47.13.92.25,1.34.36.12.13.21.21.32.33-.02.1-.04.2-.06.29-.28,0-.57-.13-.84-.19-.05.04-.1.08-.16.13-.13-.03-.26-.06-.41-.1-.04.04-.07.11-.14.13-.08.02-.21-.05-.22-.1-.02-.27-.28-.54-.5-.83Z"/>
      <path d="M17.4,96.33c-.05.04-.1.09-.17.14-.45-.14-.92-.29-1.39-.44,0-.03-.05-.14-.03-.19.02-.06.09-.11.17-.1.23.05.47.13.7.19.05-.04.11-.08.19-.13.38.11.8.23,1.2.34.06-.05.12-.1.17-.14l.56.16c.11.24.04.38-.14.32-.26-.08-.37.04-.57.03-.21-.01-.46-.12-.7-.19Z"/>
      <path d="M43.07,118.98c.09.11.27.22.27.38,0,.06-.08.06-.2,0-.05-.02-.12-.05-.14-.04-.18.22-.52.04-.87-.1-.15-.15-.31-.32-.43-.44-.19-.08-.36-.1-.46-.2-.2-.2-.36-.24-.55-.3-.07-.02-.11-.13-.1-.22.1-.1.2-.2.29-.29.41.1.57.58.92.77.43.22.82.25,1.26.43Z"/>
      <path d="M78.93,169.38l.42.13.75.77q.04.34-.29.3c-.33-.34-.67-.69-1.01-1.03l-.41-.13-.5-.51q-.03-.33.29-.3l.75.77Z"/>
      <path d="M49.14,127.1c.1-.1.19-.2.28-.28.29.06.45.37.75.61.2.04.47.09.68.13.15.15.23.24.32.33.06.13.05.2-.03.18-.57-.16-1.13-.33-1.68-.49-.07-.02-.19-.14-.25-.23-.05-.08-.06-.17-.08-.25Z"/>
      <path d="M74.16,173.67l-.42-.11-.28.29c-.06-.02-.11-.02-.15-.05-.21-.12-.4-.39-.31-.49.1-.12.09-.27.02-.47.02-.02.03-.06.05-.05.33.1.64.14.98.32q.3.37.12.56Z"/>
      <path d="M72.15,166.59c.09.22.04.36-.14.33-.3-.05-.63-.15-.91-.23-.13-.13-.21-.22-.29-.3-.07-.17-.05-.29.06-.31.14-.02.34.06.46.02.1-.03.17-.1.32-.02l.49.5Z"/>
      <path d="M33.4,108.46l.26.26c.05.19.1.38.16.6l-.52-.13c-.3-.21-.53-.49-.77-.75-.06-.06-.08-.17-.11-.26l.99.28Z"/>
      <path d="M90.4,165.9c-.09.1-.19.19-.3.3-.12-.04-.26-.09-.37-.13-.1.06-.11.22-.3.12-.21-.11-.36-.29-.37-.48,0-.07.09-.1.13-.15l.41.11.28-.29q.35.15.51.52Z"/>
      <path d="M65.44,140.74l.22-.22c.18.05.37.09.56.17.08.03.17.15.26.23.1.24.16.47.18.71-.11.02-.21.04-.31.05-.32-.33-.62-.64-.92-.94Z"/>
      <path d="M47,127.45c-.01-.08-.06-.19-.03-.24.04-.1.14-.13.3-.07.14.05.28.08.41.12.08.08.17.17.28.28.03.12.06.25.09.39.07.28.03.32-.3.28l-.74-.76Z"/>
      <path d="M54.29,129.16l-.14.15c-.13-.04-.27-.08-.4-.12-.28-.09-.34-.15-.5-.52.09-.09.19-.19.3-.3.16.06.35.13.56.2.15.19.12.38.19.59Z"/>
      <path d="M24.81,103.36c.1,0,.2.05.22.12.05.18.08.36.29.55.06.06.08.17.11.26l-.14.14c-.14-.04-.28-.09-.41-.12-.15-.03-.28-.13-.39-.27-.06-.08-.07-.18-.1-.26l.42-.43Z"/>
      <path d="M70.91,169.9c-.12-.03-.25-.06-.37-.09-.1-.1-.18-.19-.27-.27-.08-.28.01-.38.29-.29.08.09.17.17.27.27.12.03.25.06.37.08.15.15.27.28.39.4.1.09.16.17.17.27,0,.07-.06.07-.18.02-.14-.05-.27-.07-.38-.1-.11-.12-.2-.2-.3-.3Z"/>
      <path d="M29.69,107.04c-.14-.33.12-.33.17-.48.2-.05.45.09.66.13l.24.25c.09.22.04.36-.14.33-.3-.05-.62-.16-.93-.24Z"/>
      <path d="M48.72,124.9c.13.05.27.1.39.14.06-.06.11-.11.16-.16.2.04.36.18.47.39.09.19-.06.2-.12.29-.13-.05-.27-.1-.39-.14-.06.06-.11.11-.16.16-.2-.04-.36-.18-.47-.39-.09-.19.06-.2.12-.29Z"/>
      <path d="M83.46,158.63s.08.09.12.12c.11.08.16.17.17.27,0,.13-.06.22-.18.2-.17-.02-.36-.1-.55-.15-.16-.16-.33-.33-.48-.5-.04-.05-.03-.14-.04-.21.32.09.64.18.96.28Z"/>
      <path d="M79.75,166.23c-.18-.05-.37-.1-.58-.17-.04-.12-.09-.25-.14-.41-.13-.24-.54-.41-.55-.74l.14-.14q.4.19.55.67c.14.28.55.46.58.78Z"/>
      <path d="M75.2,165.12s.09-.1.15-.15c.12.04.26.09.38.13.06-.06.11-.11.16-.16.28.06.44.24.51.52-.05.05-.09.1-.15.15-.12-.04-.26-.09-.38-.13-.06.06-.11.11-.16.16-.28-.06-.44-.24-.51-.52Z"/>
      <path d="M36.84,114.06l.22-.22c.19.05.37.11.57.17.41.37.43.43.16.61-.19-.05-.38-.11-.56-.16l-.38-.39Z"/>
      <path d="M43.35,123.58c.06-.06.11-.11.16-.16.12.04.26.08.4.12.28.09.34.15.51.54-.14-.05-.28-.09-.4-.14-.08.08-.16.14-.22.23-.04.07-.1.09-.2.04-.08-.04-.11-.11-.13-.22-.03-.13-.08-.28-.12-.4Z"/>
      <path d="M77.43,171.4c.14.05.28.09.4.13.06-.06.1-.1.16-.16.12.04.27.09.4.12.12.02.18.06.22.14.05.11.02.16-.04.21-.08.06-.14.14-.23.23-.16-.05-.34-.1-.53-.17-.08-.03-.18-.13-.25-.21-.06-.08-.09-.18-.13-.28Z"/>
      <path d="M17.16,101.02c-.22.27-.44.54-.67.82-.04.05-.14.05-.21.07l.1-.58c.07-.09.14-.18.28-.34.12-.04.29-.09.46-.14.07-.02.08.05.04.18Z"/>
      <path d="M21.43,98.99l.14-.14c.34.06.51.39.73.64.1.2-.05.2-.1.29-.14-.01-.27-.11-.4-.25-.15-.17-.36-.32-.37-.53Z"/>
      <path d="M82.56,167.77c.16.16.28.29.4.41.1.09.16.17.16.27,0,.07-.06.06-.18.02-.14-.05-.27-.07-.38-.09-.16-.16-.28-.29-.4-.41-.1-.09-.16-.17-.17-.27,0-.07.06-.06.18-.02.14.05.27.07.38.09Z"/>
      <path d="M18.62,96.76c-.04.28-.19.47-.46.57-.05-.04-.1-.09-.17-.15.02-.12.06-.26.09-.4.06-.3.11-.36.47-.58-.03.15-.06.29-.09.42.06.05.11.09.16.14Z"/>
      <path d="M79.33,167.42l-.25-.25c-.02-.33.01-.36.29-.29.13.03.27.06.38.09.12.12.2.2.28.29.03.04.04.1.04.14,0,.06-.08.05-.19.01-.08-.03-.16-.02-.23-.01-.03,0-.04.06-.07.06-.07,0-.16-.02-.24-.03Z"/>
      <path d="M78.5,167.47c.12.13.24.24.37.38.1.09.16.17.17.27,0,.08-.05.07-.17.03-.14-.05-.27-.07-.39-.1-.1-.11-.19-.19-.27-.27q-.04-.33.29-.3Z"/>
      <path d="M14.72,102.31c.17.02.27.03.35.04.05.22-.04.47-.08.7-.11.12-.19.31-.35.32-.06,0-.06-.06-.03-.19.03-.1.04-.19.05-.28.02-.17.03-.35.06-.59Z"/>
      <path d="M81.56,166.75c-.1-.13-.29-.23-.29-.39,0-.18.11-.28.32-.15.17.1.33.32.49.49.04.05.03.14.04.21-.19-.05-.37-.11-.56-.16Z"/>
      <path d="M80.29,163.37c-.12-.35.14-.37.29-.48.16,0,.26.18.39.28.01.09.05.19.03.25-.04.1-.14.13-.3.07-.14-.05-.28-.08-.41-.12Z"/>
      <path d="M48.23,125.91c-.05.05-.1.1-.15.15-.37-.17-.37-.17-.49-.53.07-.07.15-.13.21-.22.04-.07.1-.09.21-.03.07.04.1.12.12.23.03.14.07.27.1.4Z"/>
      <path d="M49.99,124.15c.28.07.44.25.51.52-.05.05-.1.1-.16.16-.12-.04-.26-.09-.4-.12-.12-.02-.18-.06-.22-.14-.05-.11-.02-.16.04-.21.08-.06.14-.14.22-.21Z"/>
      <path d="M44.07,120c-.12-.15-.36-.28-.25-.45l.55.16c.11.15.36.28.25.45l-.55-.16Z"/>
      <path d="M82.02,171.22l-.14.14q-.36-.15-.51-.52l.14-.14q.35.16.51.52Z"/>
      <path d="M81.07,155.59l.14-.14q.36.15.51.52l-.14.14q-.35-.15-.51-.52Z"/>
      <path d="M73.04,147.85c.02-.14.04-.24.05-.32.21-.07.47.11.7.11-.02.14-.04.24-.05.32-.21.07-.47-.11-.7-.11Z"/>
      <path d="M14.5,98.57c.04-.28.2-.46.48-.58-.03.15-.07.3-.08.44-.01.12-.04.19-.11.23-.1.06-.17.05-.2-.02-.02-.03-.05-.04-.08-.07Z"/>
      <path d="M73.99,162.69c.19.06.37.11.56.16.22.26.02.27-.04.37-.28-.07-.43-.26-.52-.53Z"/>
      <path d="M86.75,169.56c-.27-.06-.44-.24-.52-.55.14.05.28.1.41.13.11.03.18.06.22.13.05.11.04.18-.04.21-.03.01-.05.05-.07.07Z"/>
      <path d="M32.03,113.72c.27.06.44.24.52.55-.14-.05-.28-.1-.41-.13-.11-.03-.18-.06-.22-.13-.05-.11-.04-.18.04-.21.03-.01.05-.05.07-.07Z"/>
      <path d="M28.06,105.8c.21.02.35.22.52.38.13.13.23.26.25.4-.21-.02-.35-.22-.52-.38-.13-.13-.23-.26-.25-.4Z"/>
      <path d="M74.7,172.59c-.35-.14-.35-.14-.51-.51.13.03.25.07.39.1.11.02.19.05.23.13.06.11.05.18-.03.21-.03.01-.05.05-.07.07Z"/>
      <path d="M13.22,102.95c-.3.12-.4.03-.34-.26.11-.12.19-.3.35-.33.07-.01.06.06.04.18-.03.14-.04.27-.05.41Z"/>
      <path d="M77.24,170.23s.07.06.08.09c.08.18-.09.34-.25.24-.03-.02-.07-.06-.08-.09-.02-.05-.04-.11-.03-.13.03-.06.08-.11.14-.14.02-.01.09.02.13.03Z"/>
      <path d="M76.7,166.2c-.09.09-.23.07-.29-.05-.06-.12-.05-.18.03-.21.03-.01.04-.06.07-.07.1,0,.18.04.22.11.02.05.04.1.04.14,0,.03-.04.05-.07.07Z"/>
      <path d="M49.43,123.42c-.09-.29.01-.38.29-.29.09.29-.01.38-.29.29Z"/>
      <path d="M48.54,122.51c.11.08.17.17.16.27,0,.09-.16.03-.31-.13-.04-.04-.09-.08-.12-.13-.03-.04-.04-.1-.04-.14,0-.06.07-.06.19,0,.04.02.08.08.12.12Z"/>
      <path d="M46.38,124.15c.16.16.22.31.12.32-.09,0-.18-.05-.26-.16-.03-.05-.1-.08-.12-.13-.07-.12-.06-.19,0-.19.04,0,.09.01.14.04s.08.08.12.12Z"/>
      <path d="M43.62,121.76c-.28-.07-.45-.24-.51-.52.28.07.45.24.51.52Z"/>
      <path d="M14.97,99.75c-.15.11-.33-.02-.27-.21.01-.03.05-.08.07-.1.15-.11.33.03.27.21-.01.03-.05.07-.07.1Z"/>
      <path d="M66.35,169.36c.28.07.45.24.51.52-.28-.07-.45-.24-.51-.52Z"/>
      <path d="M75.31,149.97c.16.16.22.31.12.32-.09,0-.18-.05-.26-.16-.03-.05-.1-.08-.12-.13-.07-.12-.06-.19,0-.19.04,0,.09.01.14.04s.08.08.12.12Z"/>
      <path d="M71.89,146.17c.28.07.45.24.51.52-.28-.07-.45-.24-.51-.52Z"/>
      <path d="M73.6,168.28c.11.08.17.17.16.27,0,.09-.16.03-.31-.13-.04-.04-.09-.08-.12-.13-.03-.04-.04-.1-.04-.14,0-.06.07-.06.19,0,.04.02.08.08.12.12Z"/>
      <path d="M75.32,166.8c-.09-.29.01-.38.29-.29.09.29-.01.38-.29.29Z"/>
      <path d="M70.75,172.7c-.09-.29.01-.38.29-.29.09.29-.01.38-.29.29Z"/>
      <path d="M79.47,163.33s-.12-.03-.13-.04c-.06-.12-.06-.19,0-.18.04,0,.12.02.13.04.06.12.05.18,0,.18Z"/>
      <path d="M77.54,177.35s.04.13.03.13c-.1,0-.18-.05-.21-.12-.02-.05-.05-.13-.03-.13.1,0,.17.05.22.12Z"/>
      <path d="M26.75,105.99s-.12-.03-.13-.04c-.06-.12-.06-.19,0-.18.04,0,.12.02.13.04.06.12.05.18,0,.18Z"/>
      <path d="M80.94,171.09c-.07-.04-.12-.12-.12-.22,0-.01.08.01.13.04.07.04.12.12.12.22,0,.01-.08-.02-.13-.04Z"/>
      <path d="M22.5,105.52c-.07-.04-.12-.12-.12-.22,0-.01.08.01.13.04.07.04.12.12.12.22,0,.01-.08-.02-.13-.03Z"/>
      <path d="M87.73,161.93s.12.03.13.04c.06.12.06.19,0,.18-.04,0-.12-.02-.13-.04-.06-.12-.05-.18,0-.18Z"/>
      <path d="M47.02,57.86s-.11.05-.11.04c0-.06-.02-.14.01-.21.06-.15.14-.18.16-.06,0,.05-.03.15-.06.23Z"/>
      <path d="M74.21,163.7c.07.04.12.12.12.22,0,.01-.08-.01-.13-.04-.07-.04-.12-.12-.12-.22,0-.01.08.02.13.04Z"/>
      <path d="M31.46,82.99s-.11.05-.11.04c0-.06-.02-.14.01-.21.06-.15.14-.18.16-.06,0,.05-.03.15-.06.23Z"/>
      <path d="M37.26,73.53s-.11.05-.11.04c0-.06-.02-.14.01-.21.06-.15.14-.18.16-.06,0,.05-.03.15-.06.23Z"/>
      <path d="M13.18,94.43s0-.02.01-.03l.42,9.2h0s0,0,0,0h0s0,0,0,0h0s0,0,0,0l-.42-9.22s.08-.01.16.03c.01,0,.03.09.03.13,0,.07-.06.07-.18,0-.01,0-.02-.09-.04-.13Z"/>
      <path d="M64.19,146.13c.19.05.37.11.56.16.22.26.02.27-.04.37-.28-.07-.43-.26-.52-.53Z"/>
      <path d="M22.84,111.55c.16.16.22.31.12.32-.09,0-.18-.05-.26-.16-.03-.05-.1-.08-.12-.13-.07-.12-.06-.19,0-.19.04,0,.09.01.14.04.04.03.08.08.12.12Z"/>
    </g>
  </g>
</svg>