<?xml version="1.0" encoding="UTF-8"?>
<svg id="Layer_2" data-name="Layer 2" xmlns="http://www.w3.org/2000/svg" viewBox="0 0 83.8 175.03">
  <g id="Layer_1-2" data-name="Layer 1">
    <g>
      <g>
        <path d="M25.58,146.09c-.13-.13-.29-.31-.42-.44-.01-.23,0-.35.09-.46.15-.19.18-.34,0-.57-.06-.07-.11-.14-.1-.23.02-.23-.11-.32-.21-.46v-.55c-.07-.11-.14-.21-.22-.31.07-.13.19-.09.27-.15.24-.18.45-.44.57-.77.04-.11.02-.26.13-.35.13,0,.27,0,.41,0,.03,0,.05-.06.09-.11v-.85c-.05-.07-.11-.18-.19-.29.13-.19.27-.38.4-.57-.07-.15-.18-.12-.28-.14-.1-.02-.15-.19-.14-.32.02-.16.12-.22.18-.33.06-.11.06-.3,0-.38-.1-.13-.2-.26-.3-.39h-.63c-.11-.14-.21-.28-.31-.41.1-.13.2-.27.32-.42.12,0,.26.01.4,0,.04,0,.07-.11.1-.15-.06-.12-.15-.22-.17-.34-.02-.13-.02-.27-.13-.35h-.2c-.1-.14-.2-.27-.3-.4,0-.09,0-.18-.01-.28.07-.1.14-.2.21-.3v-.27c-.07-.1-.14-.21-.22-.31v-.52c-.19-.26-.35-.5-.52-.73h-.21c-.08-.1-.16-.19-.24-.29h-.54c-.29-.39-.54-.72-.82-1.08v-.47s-.06-.09-.09-.12c-.07-.07-.1-.14-.07-.2.04-.09.1-.11.18-.09.1.02.21,0,.34,0,.03-.12.06-.24.09-.35-.11-.22-.22-.38-.37-.49-.04,0-.08-.02-.11,0-.11.09-.22.18-.34.28-.11,0-.21,0-.35,0-.21-.27-.43-.56-.66-.85h-.41c-.08-.1-.16-.19-.24-.29h-.58c-.21-.26-.39-.47-.56-.68.01-.41.01-.41.3-.44.07.09.15.18.23.28h.22c.08-.12.18-.26.29-.43v-.54c-.05-.07-.12-.18-.19-.29,0-.08,0-.17-.01-.27-.14-.19-.28-.4-.42-.59,0-.1,0-.19-.01-.28-.12-.17-.26-.32-.37-.5-.04-.06-.05-.18-.04-.25.01-.08.07-.14.11-.21h.21c.16.19.28.42.44.54h.38c.15-.16.26-.28.34-.37v-.88c-.11-.14-.19-.3-.31-.4-.08-.07-.23.05-.28-.11-.05-.15.1-.19.16-.33v-.52c.07-.11.14-.21.21-.32,0-.08,0-.17.01-.27-.14-.19-.28-.39-.42-.59.14-.23.33-.09.5-.14.07.09.15.18.23.28.14,0,.16.01.3.12,0,.29.02.61.03.89.07.1.17.16.17.23,0,.31.16.49.31.68.02.02.05.03.07.01.03-.02.07-.06.07-.1,0-.56,0-1.12,0-1.69-.37-.49-.74-.99-1.12-1.49-.02-.03-.06-.04-.09-.06-.07-.01-.14-.01-.2-.04-.08-.04-.1-.13-.08-.24-.1,0-.2.02-.29,0-.04-.01-.11-.11-.1-.16.02-.09.09-.13.15-.12.06.01.12.02.18.06.07.04.09.12.07.22h.34c.03-.11.07-.23.09-.33-.03-.07-.03-.12-.06-.15-.3-.4-.6-.8-.9-1.2-.07,0-.14,0-.21-.01-.07-.09-.15-.18-.22-.27-.08.09-.15.19-.22.28-.08,0-.14-.01-.21-.02-.1-.13-.2-.27-.3-.4v-.56c-.07-.1-.14-.21-.2-.29,0-.3,0-.58,0-.86,0-.03.05-.07.08-.11h.86c.08.1.18.22.27.36.06.09.06.26,0,.38-.04.08-.1.13-.15.2.07.2.19.34.33.46.32,0,.64,0,.95,0,.06,0,.11-.09.17-.13.02-.13-.04-.29.08-.38.02,0,.06,0,.07.02.23.3.45.6.69.91-.06.09-.12.19-.2.31,0,.25,0,.53,0,.81,0,.04.04.08.06.1.02.02.06.03.07.01.2-.26.4-.53.6-.8h.93c.08.15.21.38.31.57.29-.06.54.13.77-.16-.11-.12-.21-.23-.35-.38-.01,0-.08-.01-.19-.04-.12-.16-.27-.36-.41-.55-.16-.06-.35.09-.51-.11-.02-.21-.04-.43-.05-.64-.06-.08-.11-.15-.17-.23v-.83c-.15-.2-.29-.4-.43-.6.01-.13-.04-.29.1-.39h.42c.05.06.13.15.21.25.06,0,.13.01.21.02.07.09.14.19.22.28.02.02.07,0,.1,0,0-.19,0-.38,0-.56,0-.11,0-.19.08-.24.05-.03.1.02.15.11.02.04.05.07.09.13.19,0,.4,0,.61,0,.08,0,.15-.2.14-.33-.01-.09-.05-.15-.1-.23-.17-.28-.17-.29,0-.58.02-.04.05-.06.07-.1.05-.1.04-.29-.02-.38-.05-.08-.22-.11-.29-.05-.08.08-.15.18-.2.24h-.43c-.29-.36-.31-.36-.6,0-.23.1-.48-.07-.71.1-.17.32.09.74-.15,1.04-.07,0-.14,0-.23.01-.08.12-.17.26-.29.44-.04.24-.07.31-.21.52-.06.21.05.46-.07.66-.03.02-.06.06-.09.06-.42,0-.84,0-1.2,0-.15-.18-.25-.3-.35-.41v-.85c-.08-.11-.14-.21-.22-.32v-.81c-.08-.13-.15-.23-.2-.31-.02-.4.03-.77-.02-1.07-.08-.16-.17-.27-.19-.39-.02-.14-.03-.26-.13-.34-.07,0-.14,0-.13,0-.28-.38-.53-.7-.78-1.04.08-.03.18-.07.27-.1.16.2.31.39.45.57.08-.09.15-.17.21-.24.12.14.22.27.32.39v.57q.24.21.51-.13c.07,0,.14-.01.24-.02.07-.11.16-.26.26-.43-.03-.06-.09-.15-.15-.25.05-.16.16-.28.26-.38.07-.07.19-.06.28-.11.06-.04.1-.13.16-.21.07.08.14.16.21.25.04.05.06.13.1.19-.05.07-.1.14-.15.2-.05.32-.06.63,0,.94.05.07.11.12.15.2.12.24.41.11.51.39.01.03.06.05.09.05.11.02.2-.02.27-.14v-.27c-.07-.11-.14-.21-.22-.32v-1.43c-.09-.04-.19-.07-.33-.13-.04-.05-.11-.14-.2-.24h-.2c-.08-.1-.15-.19-.24-.29h-.2c-.1-.14-.2-.27-.3-.4.25-.32.5-.64.77-1h.36c.13.08.12.21.13.35.01.19.21.24.21.45,0,.05,0,.09,0,.1.26.35.51.67.77,1.01.04-.04.11-.13.19-.22h.2c.07.09.15.18.22.27h.16c.28-.35.54-.67.8-1.01-.03-.13-.05-.26-.08-.39h-.44c-.08-.1-.16-.19-.24-.29h-.41c-.08-.1-.16-.19-.24-.29h-.2c-.08-.1-.16-.19-.23-.28-.08-.01-.15-.02-.22-.03-.1-.13-.2-.27-.3-.4-.07-.1-.15-.2-.22-.3-.1-.13-.19-.29-.3-.39-.16-.14-.04-.46-.23-.58h-.4c-.18-.24-.35-.47-.52-.7-.02-.02,0-.09,0-.14-.1,0-.2.02-.28,0-.09-.03-.16-.12-.18-.28-.07-.01-.1-.05-.12-.08-.01-.02-.03-.07-.03-.09.04-.1.08-.11.13-.06.05.06.08.13.05.22,0,.01-.06.01-.04,0,.14,0,.24-.02.33,0,.09.03.16.12.14.27h.43c.08-.15.2-.38.26-.49.19-.09.28-.13.37-.17v-.9c-.09-.11-.19-.24-.32-.39h-.38c-.08-.1-.16-.19-.25-.28-.14.18-.29.37-.43.54h-.63c-.11-.14-.2-.27-.31-.41v-.27c-.07-.11-.14-.21-.21-.31-.01-.13.04-.29-.1-.39-.08,0-.18-.02-.28-.02-.19,0-.25.08-.25.31,0,.14-.03.29,0,.38.05.14.2.2.17.33-.04.17-.18.09-.28.11-.04-.07-.09-.14-.11-.22-.1-.4-.13-.46-.46-.62-.11-.05-.16-.16-.24-.24-.11-.1-.28,0-.36-.22v-.25c-.07-.11-.14-.21-.21-.31,0-.1-.01-.22.02-.28.16-.25.33-.49.47-.69.12,0,.19.01.26.02.27.36.55.73.82,1.09.07,0,.14.01.21.02.2-.1.05-.45.23-.56h.21c.18.11.03.46.23.56.07,0,.14,0,.21-.01.02-.03.06-.06.07-.1.02-.09.01-.18.03-.27,0-.04.03-.08.05-.11.05-.07.1-.13.15-.2v-.27c.22-.3.44-.6.64-.89-.03-.25.07-.5-.11-.68h-.16c-.35-.46-.67-.89-.98-1.31,0-.36,0-.73,0-1.11,0-.03.05-.07.07-.1.07,0,.14-.01.2-.02.17.09.08.34.17.45.14.18.19.36.18.61,0,.3.03.33.31.36.08.1.16.19.22.26.23.02.44.03.65.05.03,0,.05.06.08.1v.56c-.06.09-.14.19-.21.29v.27c.07.11.14.21.22.32,0,.46,0,.92,0,1.39,0,.03.05.07.07.1.03,0,.07.02.1.02.13,0,.23-.08.23-.19,0-.23,0-.47,0-.7,0-.08.06-.15.1-.23h.21c.08-.09.15-.18.22-.27.08.09.15.18.24.29.09-.04.18-.08.31-.13-.15-.19-.27-.35-.39-.52-.09-.13-.18-.27-.27-.41.03-.22-.07-.34-.18-.47-.02-.35-.17-.57-.38-.75-.23-.05-.49.14-.7-.13,0-.09,0-.18-.01-.28.07-.1.14-.2.21-.3v-.83c.07-.1.14-.21.21-.3-.01-.38-.01-.38-.3-.41-.14.18-.3.37-.45.56-.1-.01-.21.05-.29-.14v-.55c-.21-.29-.43-.58-.64-.86,0-.12,0-.21-.01-.27-.18-.25-.35-.49-.51-.72-.12,0-.23,0-.33,0-.08,0-.14-.01-.21-.2-.11-.11.16-.47-.11-.62-.07.08-.15.16-.21.23-.14-.19-.27-.35-.39-.52-.07,0-.14-.02-.21-.03-.07-.08-.15-.18-.23-.28h-.41c-.08-.1-.16-.19-.24-.29h-.41c-.08-.1-.16-.19-.23-.28-.08,0-.15-.02-.15-.02-.22-.25-.4-.46-.62-.71.14-.06.24-.1.32-.13.05.04.08.06.1.09.05.06.1.13.15.2.18-.31.18-.31-.07-.66.02-.24-.16-.53.1-.71.05.07.09.15.15.2.13.12.26.08.36-.08v-.84c.07-.1.14-.2.21-.3,0-.45,0-.45.09-.69.15.19.29.37.44.56h.2c.08.1.16.19.25.3.09-.04.18-.07.28-.11v-.61c-.06-.09-.13-.19-.2-.29v-.27c-.07-.1-.14-.2-.21-.3.22-.27.47-.08.72-.13.07-.08.14-.17.17-.2.21-.16.4.03.55-.16.07-.32.06-.63-.02-1.06-.29-.39-.64-.85-1-1.33,0-.1,0-.23.1-.32.09-.09.13-.21.11-.39-.14-.29-.35-.53-.55-.74-.08-.02-.15-.03-.15-.03-.15-.16-.26-.27-.36-.38.12-.16.22-.29.32-.43h.22c.09-.13.18-.27.31-.46,0-.2,0-.48,0-.76,0-.07.08-.13.13-.2h.39c.09-.1.16-.17.23-.25.21.28.41.55.62.83.27,0,.55,0,.83,0,.07,0,.15-.25.12-.35-.01-.04-.02-.08-.04-.12-.12-.17-.25-.33-.39-.52,0-.12,0-.26,0-.39q0-.24.25-.31s.06-.02-.02,0c.27-.3.45-.5.6-.67.01-.17.02-.26.03-.33.1-.15.2-.28.29-.41.3,0,.3,0,.29-.1,0-.15-.11-.2-.18-.31v-.55c.11-.16.2-.35.36-.44.16-.04.36.11.47-.16,0-.09,0-.18,0-.27-.08-.14-.22-.22-.2-.45.01-.16-.12-.21-.16-.33-.06-.15-.09-.32-.13-.48h-.31c.06-.48-.25-.68-.45-.98v-.27c-.07-.14-.16-.17-.27-.15-.19.03-.34-.04-.48-.33-.15.38-.1.72-.08,1.06.16.13.2.35.22.58.13.17.25.33.37.5,0,.04.01.09.02.13,0,.09,0,.19,0,.28,0,.18-.05.3-.14.31-.07,0-.15.01-.2-.04-.18-.22-.35-.45-.5-.66-.01-.13,0-.25-.03-.31-.08-.15-.19-.27-.27-.38-.12-.04-.24.05-.31-.13-.02-.2-.04-.43-.05-.63-.06-.08-.11-.15-.17-.23v-.83c-.15-.2-.29-.4-.43-.6v-.28c.13-.21.32-.34.37-.54-.1-.17-.18-.32-.25-.43-.11,0-.18-.02-.21-.02-.2-.24-.38-.46-.56-.68.19-.25.36-.49.53-.72.14,0,.28,0,.42,0,.03,0,.05-.06.08-.1-.06-.21-.19-.34-.32-.46-.22-.1-.28.24-.44.28-.18,0-.35,0-.53,0-.03,0-.06-.03-.09-.05-.05-.07-.1-.13-.15-.2-.07-.01-.13-.02-.21-.03-.07.08-.15.17-.24.28h-.29s-.08.02-.1,0c-.05-.06-.11-.12-.12-.2-.04-.26.08-.37.21-.36.32.01.63,0,.95,0,.08-.1.15-.19.22-.27h.84c.09.1.17.19.25.3.09-.04.19-.08.27-.12v-.32c.17-.22.35-.44.54-.69.05,0,.12,0,.18-.01.2.1.05.45.23.56.07,0,.14,0,.24,0,.04.15.08.32.12.48.37.5.75,1,1.12,1.49.02.02.07,0,.1,0v-.42c-.35-.46-.7-.93-1.05-1.4v-.82c-.27-.44-.61-.78-.84-1.18v-.57c.07-.09.12-.15.17-.22,0-.07-.02-.16-.1-.17-.14-.02-.28,0-.4,0-.11-.15-.21-.28-.31-.42.07-.1.14-.2.2-.3v-.28c-.28-.37-.55-.73-.83-1.11.22-.31.51-.06.71-.17.13-.16.24-.29.33-.4v-.3c-.13-.24-.43-.08-.51-.4-.07,0-.14-.01-.22-.02-.14-.18-.29-.37-.44-.56h-.59c-.22.16-.31.44-.51.56-.21-.02-.42.04-.62-.04-.05-.07-.1-.13-.15-.2-.37-.11-.76.05-1.12-.08-.1-.15-.2-.28-.29-.41v-.56c-.11-.13-.2-.24-.21-.46,0-.11-.11-.22-.19-.38-.05-.53.03-1.13-.03-1.7-.07-.09-.12-.16-.18-.24.14-.2.28-.39.41-.58v-.28c-.14-.21-.32-.37-.43-.65.03-.1.06-.22.1-.33h.47c.04.15.08.32.12.48.12.17.25.33.37.49.02.13-.03.29.08.39.02.01.05.04.08.05.16.03.34-.07.48.15.13.21.39.13.51.4.05.12.15.2.22.3.17-.23.35-.46.54-.71-.1-.11-.21-.23-.35-.39.03.01,0,0-.03-.01-.25-.07-.24-.07-.25-.31,0-.18.05-.38-.11-.53-.08,0-.18,0-.29,0-.18,0-.23-.07-.23-.33,0-.14-.01-.27-.01-.3-.2-.31-.36-.56-.49-.77-.12-.02-.19-.02-.26-.03-.1-.13-.2-.27-.3-.4.02-.13-.05-.29.11-.41.2-.01.44-.02.7-.04.27-.37.54-.73.81-1.1.16.04.35-.1.48.12,0,.05.01.09.01.13,0,.09,0,.19,0,.28,0,.29.12.37.34.27.03-.01.05-.06.08-.1,0-.37,0-.74,0-1.12,0-.03.04-.07.07-.11.27-.09.55,0,.82-.04.06,0,.11-.09.16-.15-.01-.13.04-.28-.13-.41h-.68c-.25,0-.49,0-.74,0-.05,0-.1-.11-.15-.17,0-.18,0-.36.02-.55,0-.04.05-.07.08-.11h.83c.08-.1.16-.19.24-.29.13,0,.27,0,.41,0,.03,0,.06-.05.08-.09.03-.06,0-.16-.08-.18-.3-.1-.31-.09-.31-.38,0-.05,0-.09,0-.14-.01-.26-.06-.33-.24-.33-.24,0-.49,0-.7,0-.1.11-.17.19-.21.24-.12-.14-.23-.25-.33-.36.09-.13.15-.23.22-.32q0-1.52.09-1.79c.07,0,.14-.01.21-.02.07.09.15.19.23.28h.31v-.7c-.17-.23-.35-.46-.53-.7h-.21c-.07.09-.15.18-.22.27h-.21c-.1-.14-.2-.27-.3-.4-.02-.37-.02-.37.24-.44.03,0,.06-.03.03-.01.15-.17.25-.29.34-.38v-.63c-.09-.04-.18-.08-.27-.12-.24-.33-.49-.65-.78-1.04,0-.18,0-.46,0-.74,0-.1.16-.19.25-.17.11.03.16.17.24.24.13.1.26.07.35-.11,0-.09,0-.18,0-.26.07-.1.13-.2.19-.3-.21-.28-.41-.54-.61-.81,0-.04-.01-.09-.01-.13,0-.09,0-.19,0-.28,0-.28-.06-.32-.33-.28-.09.1-.17.18-.24.26-.15-.01-.29-.02-.4-.03-.08-.1-.13-.17-.18-.23-.17-.02-.33-.05-.5-.07-.12-.42,0-.85-.07-1.25-.27-.36-.55-.73-.83-1.11.1-.12.21-.25.32-.39.06.07.13.15.21.24.07-.08.14-.17.22-.27.09-.02.21.06.28-.1-.08-.26-.26-.39-.39-.6v-.83c-.15-.2-.29-.4-.43-.6,0-.16,0-.29-.09-.39-.08-.09-.15-.2-.22-.29-.07,0-.14,0-.21,0-.1-.13-.2-.27-.3-.4.04-.05.08-.15.12-.16.14-.02.27,0,.39,0,.15.2.27.36.4.53.03.01.06.03.1.03.21,0,.35-.26.22-.44-.12-.18-.2-.35-.21-.62-.27-.34-.54-.7-.82-1.05.14-.24.33-.1.52-.15.16.21.33.45.5.67.2.25.36.56.59.75.27.04.34-.25.49-.47-.11-.04-.2-.07-.36-.13-.04-.07-.13-.22-.25-.4-.01-.16-.06-.38-.24-.53,0-.17,0-.35,0-.53,0-.06.08-.1.11-.15.08.09.16.18.23.25.18-.04.37.1.49-.15v-.27c-.07-.11-.14-.21-.22-.32v-.87c-.09-.04-.19-.07-.33-.13-.04-.05-.12-.14-.2-.24h-.2c-.08-.1-.15-.19-.23-.28-.07,0-.14,0-.21.01q-.2.26-.3.14c0-.09,0-.18,0-.28-.07-.1-.14-.2-.21-.3.07-.1.14-.2.21-.3-.08-.3.16-.39.2-.54v-.56c-.06-.14-.19-.17-.16-.34.1-.12.2-.25.29-.36.09-.01.16-.02.22-.03.1-.14.21-.27.3-.39v-.29c-.09-.24-.35-.04-.43-.35.02-.09.05-.22.07-.33.06-.01.09-.02.13-.03.22-.04.26-.11.13-.27-.14-.17-.06-.44-.21-.6-.17-.17-.3-.39-.45-.59-.02-.03-.05-.06-.07-.09v-.29c.06-.05.11-.13.17-.13.11,0,.2-.04.25-.16v-.53c-.19-.26-.35-.5-.52-.73h-.22c-.1-.14-.2-.27-.3-.4,0-.09,0-.18-.01-.28-.07-.09-.14-.19-.21-.3-.02-.03,0-.09-.05-.14-.07-.01-.1-.05-.12-.08-.01-.02-.03-.07-.03-.09.04-.1.08-.11.13-.06.05.06.08.13.05.22,0,.01-.06.01-.04,0,.15,0,.26,0,.36,0,.08-.1.15-.26.23-.27.28-.04.29-.03.31-.41-.06-.1-.13-.2-.2-.3.13-.19.27-.39.4-.57-.07-.11-.13-.21-.18-.3.12-.15.23-.27.19-.49-.1-.24-.28-.4-.42-.61v-.28c.14-.19.28-.38.4-.55-.07-.22-.19-.14-.31-.16-.07-.11-.17-.25-.27-.42,0-.2-.07-.4-.22-.54,0-.09,0-.18-.02-.29.14-.19.28-.4.42-.59v-.88c-.09-.04-.18-.08-.28-.12-.16.2-.31.4-.46.58h-.24c-.04-.16-.08-.32-.13-.48-.12-.17-.25-.33-.37-.5,0-.09,0-.19,0-.28.07-.1.14-.2.21-.3,0-.1,0-.19-.01-.27-.07-.11-.14-.21-.21-.32v-.51c-.08-.13-.15-.24-.21-.34.03-.3.04-.57-.17-.76-.02-.02-.03-.08-.02-.12,0-.23-.06-.34-.24-.33-.1,0-.21,0-.28,0-.12-.16-.22-.29-.32-.42.07-.1.14-.21.2-.29v-.85c-.21-.27-.41-.54-.6-.81,0-.09-.02-.18-.02-.27-.25-.41-.29-.43-.6-.52-.24-.33-.51-.7-.78-1.07-.07,0-.14,0-.2-.01-.08-.1-.16-.19-.24-.28h-.4s-.06-.08-.09-.11c-.13-.22-.4-.12-.51-.4-.01-.03-.06-.04-.09-.03-.17.03-.24-.15-.34-.27-.07,0-.14-.01-.21-.02-.07-.09-.15-.18-.23-.28h-.21c-.37-.5-.74-.99-1.12-1.49-.02-.03-.03-.08.05.13-.11-.38-.14-.5-.18-.61h-.23c-.08-.1-.15-.19-.23-.29h-.41c-.11-.21-.25-.31-.45-.31-.27-.36-.54-.73-.81-1.09h-.21c-.08-.1-.16-.19-.25-.3-.22.15-.27-.2-.48-.28h-.35c-.06-.08-.11-.15-.16-.22-.17-.06-.33-.08-.5,0-.05.07-.1.13-.15.2-.03,0-.06.02-.1.03-.22.05-.24.07-.24.32,0,.14,0,.27,0,.39-.29.24-.22.56-.18.88.05.07.1.13.15.2.05.22.01.46.03.69.02.27-.04.55.04.81.05.07.1.14.16.21v.54c.07.11.14.21.22.31v.57c.2.26.4.52.59.79.01.02,0,.06,0,.1-.1.12-.21.24-.16.49.05.08.12.18.2.3v.55c-.06.09-.13.19-.2.29v.83c.07.1.14.2.21.29v1.12c-.08.12-.14.22-.22.33v6.15c-.06.13-.18.17-.16.33.12.17.25.33.37.5,0,.09,0,.18.01.28-.07.1-.14.2-.21.3v.55c-.07.1-.14.21-.21.29v3.66c.14.22.32.37.42.64,0,.17-.01.35-.02.5-.07.1-.12.17-.19.25v.85c.05.07.12.18.19.29,0,.08,0,.17.01.27-.14.19-.28.39-.41.58.07.11.14.22.19.29v1.42c-.06.08-.11.15-.18.24-.03.39-.03.8,0,1.18.07.09.12.16.19.26v.8c0,.33,0,.66,0,.98,0,.27-.05.55.05.81.05.07.1.14.16.21v.55c.07.11.14.21.22.31v1.11c.07.11.14.21.2.29v.55c-.08.12-.15.22-.2.31,0,.49,0,.95,0,1.38-.28.38-.28.42-.09.71.08.12.1.23.09.35.16.2.31.39.42.54v.64c.07.11.14.21.2.29.09.29-.15.39-.18.59.05.07.1.13.15.2.09.4-.03.83.07,1.23.05.07.1.13.16.21v2.79c.07.11.14.21.22.32v3.35c.07.11.14.21.22.31v.83c.07.11.14.21.22.32v1.37c.08.12.15.23.2.31,0,.49,0,.95,0,1.35.1.16.16.27.21.35,0,.31.04.6-.2.78.07.1.13.2.2.31v.26c.07.11.14.21.22.31v1.95c.07.11.14.21.22.32v2.52c.16.15.23.34.21.6,0,.09.02.18.03.26.05.07.1.13.16.21.06.36.01.73.02,1.1,0,.33,0,.66,0,.98.01.37-.05.74.03,1.09.06.08.11.15.17.23-.06.1-.13.19-.2.3v1.11s.04.06.06.1c.05.07.1.13.14.2v.28c-.05.07-.1.13-.15.2-.02.03-.04.07-.06.11.02.35.02.35.19.39.21.05.22.07.23.34,0,.14-.01.27-.02.39-.27.39-.27.41,0,.81v.57c-.13.18-.27.38-.41.58v.27c.08.11.14.21.22.32v.54c.13.18.26.34.41.55-.14.18-.28.37-.42.56v.55c-.07.1-.14.2-.2.3.07.11.14.21.21.32v.54c.27.23.21.55.17.87-.05.07-.1.13-.15.2.03.06.05.15.1.19.1.1.09.24.09.39-.07.1-.14.2-.21.3.08.24.34.04.42.3q0,.45-.09.67c-.08-.09-.15-.17-.22-.26-.02.02-.05.04-.07.07-.02.03-.04.08-.04.12,0,.14,0,.28,0,.42.01.32-.03.65.03.96.05.07.1.14.18.24,0,.62,0,1.27,0,1.92,0,.04-.03.08-.05.11-.05.07-.1.13-.15.2,0,.09,0,.18-.02.32.09.1.2.22.33.36.04-.05.11-.12.19-.2.02.01.06.02.07.04.08.19.07.42.22.59.11.12.06.33-.08.47-.2,0-.41,0-.62,0-.03,0-.05.06-.1.13.14.19.28.37.42.56v.28c.12.17.25.33.37.5.05.07.03.13-.05.2-.16.06-.35-.09-.5.1-.07.27-.03.55-.03.82,0,.32-.04.65.06,1.07.22.29.49.65.75,1-.15.11-.15.1-.26.11-.1,0-.2.03-.29.04-.07.32-.07.32.05.52.16.28.16.32,0,.58-.02.04-.05.07-.09.11v1.13c.05.08.12.18.19.29,0,.08,0,.17,0,.27.08.26.34.06.42.3v.56q-.24.21-.51-.12c-.14.17-.14.17-.09,1.28.05.07.1.13.15.2.09.49-.04,1.01.06,1.5.12.13.21.26.18.46.16.19.31.38.43.53v2.61c.07.11.14.21.22.32v1.37c.08.12.15.23.22.34-.05.27.02.56-.04.83-.05.07-.1.13-.15.2-.01.04-.03.08-.03.12,0,.38,0,.75,0,1.13,0,.09-.03.17-.04.28-.19.24-.39.51-.59.75v.57c.1.14.2.27.31.42.27,0,.55,0,.83,0,.03,0,.05.05.08.08.08.26.03.54.04.82.01.32-.03.65.03.97.03.03.05.07.08.1.08.07.1.14.06.2-.02.03-.05.08-.08.08-.14,0-.28,0-.4,0-.09-.11-.17-.2-.26-.3-.16.08-.35-.08-.49.16v1.97c.14.2.28.4.42.59-.09.28.15.37.17.53-.1.17-.19.31-.27.43-.31.02-.32.02-.33.4-.06.09-.13.2-.21.31v.27c.06.13.16.13.26.16.09.03.17.15.28.26h.38c.08.1.15.2.23.28.07.07.1.14.08.2-.04.1-.1.13-.18.1-.08-.03-.16,0-.17.1,0,.06.05.13.09.2.02.04.05.07.07.1,0,.04.02.09.02.13,0,.18-.05.3-.14.31-.07,0-.16.01-.2-.04-.21-.25-.4-.53-.6-.79-.02.03-.05.05-.07.08-.02.03-.04.08-.04.12,0,.09,0,.19,0,.28.02.37-.04.74.03,1.1.06.08.11.14.16.21.08.4-.04.83.07,1.21.06.08.11.14.17.22v.55c.07.11.14.21.22.31v.55c.07.1.14.21.21.3v1.12c-.08.12-.14.22-.22.33v.82c-.21.28-.41.55-.62.82v.83c-.07.11-.14.21-.22.31v.27c.07.1.14.2.21.3,0,.1,0,.19-.01.27-.07.11-.14.21-.22.33.03.12.06.25.09.36h.24c.07-.09.15-.18.22-.27h.24c.03.12.06.24.09.35.15.2.3.39.41.54v1.22c-.1.13-.2.27-.3.4-.28.03-.32-.01-.33-.31,0-.09.01-.19,0-.28-.02-.08-.06-.15-.1-.23h-.22c-.09.12-.18.26-.3.43v1.92c-.07.11-.14.21-.21.32,0,.08,0,.17-.01.27.07.1.14.2.21.3v1.12c-.07.11-.14.21-.22.31v3.64c-.13.18-.26.34-.38.51-.03.22-.06.45-.23.59v.58c.05.08.12.18.19.29-.06.09-.13.19-.2.3v.27c-.07.11-.14.21-.2.29v.55c.08.12.15.23.19.29v.55c-.08.14-.15.24-.2.32-.02.31.03.59-.05.89-.12.08-.19.23-.16.46.06.09.13.19.2.3v1.11c-.07.1-.14.2-.21.3v1.96c-.07.11-.14.21-.22.32v.81c-.08.12-.15.23-.2.32,0,.45,0,.87,0,1.29,0,.04-.02.08-.03.12-.26.37-.26.39.02.79v2.54c-.05.08-.12.18-.2.29v.83c.07.1.14.2.21.3v1.04c.11.31.32.41.39.67-.05.07-.1.13-.15.2.07.26.26.39.39.6v.3c-.09.11-.2.24-.33.4-.07.04-.23-.06-.28.17.2.26.4.53.6.79,0,.04.02.09.02.13-.02.16.04.28.15.31.1.03.21,0,.28.15v.28c-.07.1-.14.2-.2.3v.28c.2.27.4.54.6.8,0,.04.02.08.03.13q.05.31.33.36c.1.13.2.27.3.4-.07.1-.14.2-.21.3,0,.09,0,.19,0,.27.07.11.14.21.21.32v2.96c.2.33.36.58.51.81h.66c.11.22.26.3.44.31.13.17.25.33.39.52.15-.18.29-.37.43-.55h.21c.28.37.55.73.82,1.1.04.05.25.02.28-.05.03-.08.05-.17.05-.25,0-.23-.26-.31-.22-.59,0-.06-.06-.15-.11-.22-.1-.14-.2-.27-.3-.4.14-.17.14-.18.49-.12.14.15.25.27.35.37v.53c.19.28.35.52.51.76.12-.15.21-.29.32-.43v-.56c-.06-.09-.13-.2-.2-.3.1-.13.2-.27.3-.4.07,0,.14-.01.21-.02.07-.09.15-.18.23-.28h.64c.09-.13.2-.25.28-.4.03-.06.02-.18.03-.27-.1-.18-.21-.36-.36-.46-.28-.03-.56.05-.83-.04-.1-.14-.19-.27-.28-.39.04-.05.06-.11.09-.11.28,0,.56,0,.86,0,.06.07.13.17.21.26h.2c.08.1.15.19.23.28.07,0,.14-.01.21-.02.1-.13.2-.27.3-.4v-.27c.06-.05.1-.13.16-.15.06-.02.15,0,.19.05.11.11.2.26.29.39v.55s.06.08.08.11c.03.06.06.13.09.19-.05.07-.11.13-.15.21-.1.22,0,.46.2.46.1,0,.21,0,.3,0,.11-.15.21-.28.31-.42,0-.21,0-.23.09-.41.22-.01.46-.02.67-.03.08-.1.12-.18.18-.23.13-.1.3-.03.34.15.02.08,0,.23.03.26.21.19.19.47.19.75,0,.14.08.22.21.22.32,0,.63,0,.95,0,.03,0,.06-.06.07-.1,0-.02,0-.07-.02-.1-.05-.07-.1-.13-.16-.22,0-.16,0-.35,0-.53,0-.05.08-.09.11-.12.11.13.22.25.31.36v.33c.09.04.18.08.28.12.09-.11.17-.2.25-.29.07.09.15.18.22.27h.2c.08.09.15.18.23.27.11-.14.21-.27.31-.41v-.28c-.07-.1-.14-.2-.21-.3,0-.14-.03-.29.1-.39h1.66c.08-.1.16-.19.25-.3.16.23.32.47.49.71-.03.03-.07.12-.12.13-.13.03-.27.03-.41.05-.03,0-.05.06-.08.1v.28c.1.13.2.26.31.41h.42c.14.19.29.39.44.58.03.03.05.07.07.1.08.11.01.42-.11.45-.1.03-.21-.01-.28.13,0,.09,0,.18-.01.28-.07.1-.14.2-.21.3.1.13.2.26.31.42.4,0,.82,0,1.24,0,.03,0,.05-.05.1-.09.02-.21.04-.43.06-.65.13-.17.26-.33.37-.51.04-.06.02-.17.03-.28-.06-.09-.13-.2-.2-.31,0-.08,0-.17-.01-.27-.07-.1-.14-.2-.21-.3.07-.1.14-.2.21-.3,0-.1.01-.19.02-.29.05-.07.1-.13.15-.2.05-.06.03-.13-.06-.2h-.42q-.15-.29.01-.57h.62q.21-.26.31-.14v.27c.22.3.44.6.59.81.07.24.1.36.13.47h.44c.08.1.15.19.22.28h.42c.1-.14.2-.27.31-.41v-.26c-.18-.23-.35-.46-.54-.72-.06-.03-.19.05-.25-.09-.03-.07-.04-.17-.04-.25,0-.14.01-.27.03-.4,0-.04.05-.07.07-.1.1-.02.24.07.28-.1.03-.14-.1-.2-.15-.3,0-.09-.01-.18-.02-.29-.14-.19-.28-.39-.42-.6v-.82c-.08-.11-.14-.21-.21-.31.02-.38.02-.39.31-.4.15.18.29.37.44.56.13-.31.13-.32.04-.77-.1-.03-.19-.07-.29-.1-.12-.17-.25-.33-.37-.5-.07-.01-.13-.02-.22-.03-.07-.08-.15-.17-.22-.27-.16-.22-.17-.3,0-.57.07-.12.09-.23.1-.37,0-.06.07-.12.12-.17.05.07.1.14.15.2.07.08.23.09.28.02.13-.16.25-.33.38-.5.04.05.11.1.12.16.02.18,0,.37,0,.52.25.33.47.63.7.92.02.03.06.04.11.08.08-.04.17-.08.25-.12v-1.02c-.11-.1-.28-.26-.37-.34-.07-.26-.1-.38-.13-.5h-.46c-.09-.13-.18-.27-.28-.42.03-.23.2-.11.31-.18.12-.16.25-.33.39-.52.07.08.14.15.24.26.07,0,.18,0,.28,0,.16,0,.15,0,.24-.33.02-.08.05-.17.1-.22.07-.08.1-.14.07-.21-.11-.12-.2-.25-.16-.49.05-.08.12-.18.21-.31-.1-.11-.21-.22-.35-.38,0,0-.07-.01-.14-.03-.21-.17-.35-.44-.53-.66.02-.28.19-.15.3-.2.09-.31.38-.18.51-.4v-.62c-.08-.09-.19-.2-.28-.34-.12-.16-.23-.34-.35-.51.03-.22-.08-.34-.18-.46,0-.36-.18-.56-.38-.75-.07-.01-.13-.02-.1-.02-.24-.27-.43-.47-.59-.64.07-.24.19-.17.3-.19.07.09.15.19.23.28h.74v-.51ZM21.61,146.8s-.03-.07-.03-.09c.04-.1.08-.11.13-.06.05.06.08.13.05.22,0,.01-.06.01-.09,0,.29.18.23.26.22.25-.05-.03-.1-.07-.12-.13-.04-.12,0-.18.09-.12.04.03.07.1.1.16-.31-.18-.33-.22-.35-.25ZM11.65,52.57c-.17,0-.22-.08-.23-.3,0-.09,0-.17,0-.26h-.32c-.1-.13-.19-.26-.29-.4.06-.23.19-.17.32-.14.09.19.3.26.3.54.03,0,.07-.02.09,0,.11.14.22.29.33.44.02.02,0,.08,0,.12.19.18.13.26.13.25-.05-.03-.1-.07-.12-.13-.04-.12,0-.18.09-.12.04.03.07.1.1.16-.25-.17-.32-.17-.38-.17ZM15.75,75.37c-.1-.13-.19-.26-.29-.4-.03-.42,0-.46.31-.42.11.09.08.24.09.36.05.17.24.22.21.46.19.1.19.1.4.46-.21.16-.23.16-.4-.06v-.39h-.32ZM16.8,76.78c.15-.18.29-.37.44-.56.17.24.11.5.05.76,0,.03-.05.07-.08.07-.07.02-.13.02-.2.02-.07.06-.1.13-.09.23,0,.09,0,.18,0,.28,0,.28-.06.33-.33.3-.1-.13-.2-.26-.3-.4v-.25c-.06-.18-.24-.22-.22-.46h-.31c-.07-.09-.15-.19-.22-.28-.07,0-.14,0-.21,0-.1-.13-.2-.26-.29-.39-.05-.18-.05-.35.1-.46.07,0,.13,0,.2.01.26.35.53.7.83,1.11h.63ZM19.13,79.31s.06-.06.07-.09c0-.02,0-.08,0-.1-.12-.17-.25-.33-.37-.5,0-.09,0-.18-.01-.27.05-.05.1-.15.15-.15.2-.02.42-.07.56.23.26.02.43.23.56.5,0,.05,0,.09,0,.14,0,.04,0,.11-.02.12-.25.15-.12.62-.37.78-.06.04-.1.11-.15.17-.12-.16-.25-.33-.37-.49-.09-.03-.19-.06-.28-.1-.08-.04-.1-.13-.07-.24-.12-.02-.14-.05-.16-.08-.01-.02-.03-.07-.03-.09.04-.1.08-.11.13-.06.05.06.08.13.05.22,0,.01-.06.01-.09,0,.2,0,.3,0,.41,0ZM19.67,149c.06-.09.13-.19.2-.29-.2-.26-.4-.53-.6-.8-.04-.22-.06-.44,0-.66.15-.18.34-.03.49-.09.08-.1.16-.19.23-.28.08.01.15.02.21.03.12.17.25.33.37.5.22.07.28.11.45.32.08,0,.19,0,.29,0,.14,0,.23.07.24.19.01.14,0,.27-.1.37-.03.03-.05.07-.08.1.06.27.25.39.38.6v.84c.17.22.34.46.52.68.04.05.13.03.21.04.07-.08.15-.17.23-.27.06,0,.13,0,.22-.02.23.33.47.67.71,1.01-.05.07-.12.17-.19.27v.55c-.1.14-.2.27-.31.41h-.85c-.14-.17-.29-.36-.43-.55h-.21s-.07.07-.08.1c-.01.28-.01.55-.03.83,0,.06-.08.11-.12.16-.2-.27-.4-.53-.61-.81h-.41c-.1-.13-.21-.25-.29-.39-.04-.06-.05-.17-.04-.25.01-.08.07-.14.1-.21.08.09.15.19.22.27.08,0,.14-.01.21-.02.1-.13.2-.26.3-.4v-.27c-.07-.21-.25-.1-.35-.2-.08-.08-.14-.19-.24-.24-.33-.15-.33-.17-.46-.62-.01-.04-.02-.08-.03-.12-.04-.1-.19-.13-.13-.3.03-.08.1-.13.15-.21-.06-.1-.13-.19-.19-.29ZM14.25,109.13c-.05-.07-.1-.13-.16-.21-.26-.09-.54,0-.81-.04-.06,0-.11-.09-.16-.14v-.56c.05-.1.1-.13.15-.08.08.08.12.23.25.22.04,0,.07,0,.12,0,.07-.08.15-.18.23-.28h.19c.11-.08.11-.21.13-.35.02-.12.11-.22.2-.4.03-.1,0-.29,0-.47,0-.12-.07-.17-.23-.2-.03,0-.07-.01-.1-.02-.11-.2-.25-.31-.42-.3-.11-.14-.21-.26-.3-.38v-.57c.13-.24.32-.1.51-.15.21.27.43.56.65.84.08-.09.15-.19.22-.27.27-.02.27-.03.3-.25.05-.36.15-.4.42-.17v.28c.35.46.7.92,1.05,1.38v1.4c.07.11.14.21.21.32,0,.08,0,.17.01.27.07.1.14.2.21.3-.13.24-.32.09-.49.16-.24-.26-.44-.59-.67-.86-.35,0-.7,0-1.05,0-.15.17-.26.41-.45.53ZM15.22,94.52c.08,0,.14,0,.18-.1.03-.06,0-.13-.08-.2-.03-.03-.05-.06-.07-.1.01-.24-.15-.53.09-.72.1.13.2.26.3.4v.27c.07.1.14.2.21.3v.55c.07.1.14.2.21.3,0,.1,0,.19,0,.27-.07.11-.14.21-.2.3,0,.11-.01.2-.02.29-.1.13-.2.26-.3.4h-.26c-.11.18-.24.39-.35.57-.31-.03-.31-.03-.34-.25-.04-.26-.04-.26-.25-.31-.03,0-.06-.02-.08-.03-.11-.14-.21-.27-.31-.39v-.84c-.07-.1-.14-.2-.21-.3v-1.43c.08-.04.18-.09.27-.13.27.36.63.58.61,1.15.24,0,.42,0,.59,0ZM14.49,89.75c.09.32.38.18.51.4v.3c-.09.11-.19.23-.32.38-.13.02-.31.04-.38.31-.19,0-.36,0-.54,0q-.19,0-.24-.33s-.02-.08-.01-.06c-.12-.18-.21-.32-.29-.45-.08.07-.1.15-.12.24-.05.34-.06.34-.34.3-.17-.18-.03-.44-.14-.76-.12-.22-.39-.44-.56-.79.03-.04.06-.1.08-.1.56,0,1.12,0,1.7,0,.14.17.29.37.43.55.08,0,.14.01.21.02ZM18.39,116.33c-.2.31-.46.09-.7.15-.22-.2-.4-.47-.57-.75.04-.22-.06-.35-.19-.49-.03-.39-.03-.79,0-1.14.08-.16.17-.26.19-.38.02-.14.03-.26.12-.34h.42c.18.18.07.43.11.68.05.08.12.18.2.31v.87c.14.15.3.32.43.47v.63ZM14.8,48.45c-.01.11-.11.17-.24.17-.1,0-.21,0-.31,0-.07,0-.13-.02-.2-.02-.05-.07-.1-.13-.15-.19-.02-.02-.05-.02-.07-.02-.12.16-.25.33-.37.49-.1.04-.19.06-.28-.03-.06-.06-.08-.14-.06-.24,0-.04,0-.09,0-.14,0-.09,0-.18,0-.26-.07-.11-.14-.21-.21-.31v-.53c-.07-.11-.13-.21-.19-.3.15-.22.34-.08.5-.13.07.09.15.18.23.28h.62s.06.06.08.09c.22.29.44.59.66.88,0,.09.02.18.01.27ZM18.17,96.63c-.07.11-.17.24-.26.37-.03,0-.07.03-.08.01-.13-.16-.25-.33-.37-.49-.07,0-.13-.02-.21-.03-.07-.08-.14-.17-.23-.27h-.22c-.08-.13-.17-.27-.3-.46-.05-.2.02-.48-.02-.73.09-.23.21-.37.35-.48.03.03.07.07.07.1,0,.28,0,.56.02.83,0,.1.08.14.13.12.12-.16.25-.33.39-.52.12,0,.25-.01.39,0,.04,0,.08.1.12.16q-.19.26-.01.5c.07.1.15.2.23.31v.57ZM21.46,153.65c.1.13.2.26.3.39,0,.09.01.18.02.34.16.17.34.38.61.66.12,0,.36.02.58.03q.08.19.08.41s-.05.09-.07.09c-.2.02-.41.04-.65.06-.05.05-.13.14-.21.23-.22.04-.46.08-.69-.03-.02-.04-.06-.07-.06-.11,0-.09,0-.18,0-.26.07-.11.14-.21.19-.29v-.56c-.11-.14-.2-.27-.31-.41-.13,0-.27.02-.41,0-.08-.01-.11-.11-.09-.18.01-.04.05-.09.07-.1.14,0,.28,0,.42,0,.07-.09.15-.18.22-.27ZM13.46,55.05s-.1-.01-.15-.11c-.02-.04-.05-.07-.07-.1-.07-.1-.15-.2-.22-.3-.07,0-.14,0-.2-.02-.1-.03-.11-.14-.02-.28h.41s.06-.06.08-.09c.09-.26,0-.54.05-.8-.04-.09-.07-.17-.12-.24-.15-.24-.16-.29.01-.56h.42c.1.14.2.27.31.41v.56c-.06.08-.12.18-.2.29v.54c-.07.1-.14.2-.21.3-.01.13.04.28-.07.37ZM15.01,44.55c-.17.23-.34.46-.52.69-.24-.33-.48-.65-.74-1.01,0-.03,0-.12-.01-.23.09-.12.18-.25.27-.37.13-.12.27-.04.4-.07.27.14.38.51.6.68v.31ZM20.09,109.24c.02.12.12.22.19.36v.59c-.15.17-.34.38-.54.62-.06-.08-.16-.2-.25-.31-.02-.09-.04-.18-.04-.27,0-.38,0-.75,0-1.13,0-.04.02-.08.03-.13.14-.21.34,0,.47-.11.12.11.11.25.14.38ZM21.83,146.05h-.39c-.06.08-.1.16-.16.21-.09.09-.22.11-.28,0-.12-.21-.29-.21-.44-.29-.02-.01-.03-.06-.05-.1.24-.12.13-.5.3-.68h1.08c.07.11.16.26.26.41-.05.18-.18.3-.32.44ZM12.59,38.49h-.22c-.12-.14-.16-.34-.06-.46.14-.17.14-.38.21-.58.01-.04.05-.06.08-.08h.62c.17.32.09.68.07,1-.1.14-.2.28-.29.4h-.24c-.06-.09-.12-.19-.18-.28ZM11.41,47.91s0,.08.01.12c.03.27.19.4.34.27.06-.05.09-.15.15-.19.13-.1.26-.07.35.09v.29c-.28.27-.6.03-.89.16-.09-.1-.17-.19-.26-.28q-.31-.08-.34-.47c-.1-.13-.19-.27-.3-.39-.06-.08-.1-.14-.08-.2.04-.1.1-.11.18-.1.1.02.21,0,.32,0,.17.23.34.46.51.69ZM22.73,148.57c-.07-.09-.15-.18-.22-.28h-.41q-.16-.27-.02-.56h.62c.07-.09.15-.18.23-.28h.2c.09.07.12.19.12.33,0,.15.12.21.17.32.08.17.05.34-.07.47h-.63ZM14.46,45.51c.11.12.18.24.27.29.09.04.21,0,.29.16,0,.2,0,.44,0,.67q0,.24-.25.31s-.07-.01-.09-.04c-.3-.39-.6-.79-.94-1.24.28-.23.53-.05.72-.14ZM14.8,111.01c0,.09,0,.18-.01.31-.08.04-.18.08-.37.16-.06.1-.19.32-.3.49h-.27c-.1-.13-.2-.26-.3-.41.06-.09.12-.19.2-.31,0-.11,0-.25,0-.39,0-.26.18-.4.35-.26.06.05.1.13.17.22.23.05.43-.09.54.18ZM19.78,153.92c.08,0,.14.01.2.01.18.23.36.46.53.69-.06.05-.11.13-.17.14-.17.02-.35,0-.52,0-.16-.06-.22-.38-.44-.28-.14-.14-.27-.28-.36-.52.03-.1.06-.22.1-.33h.44c.08.1.15.19.22.28ZM21.68,143.22c-.07.09-.15.19-.22.28-.28,0-.56,0-.84,0-.03,0-.06-.06-.07-.09-.02-.07,0-.14.09-.18.03-.02.07,0,.1,0,.17-.03.17-.03.2-.38.1-.18.21-.36.36-.46.04,0,.08-.02.11,0,.25.16.39.46.57.71-.08.17-.19.12-.29.13ZM24.01,139.57h.2c.17.17.06.56.3.68,0,.09.01.18.02.28.06.09.13.19.2.29-.05.13-.14.15-.25.15-.11,0-.16.17-.24.23-.13.1-.26.07-.34-.1v-.27c.07-.11.14-.21.21-.3,0-.1,0-.19-.01-.28-.14-.2-.31-.36-.42-.64.03-.1.06-.22.1-.35.09.11.17.21.24.3ZM13,31.73q.15.3-.01.56c-.07,0-.14,0-.2.01-.08.1-.16.19-.22.26h-.43c-.11-.14-.21-.28-.31-.41.09-.24.34-.04.43-.32v-.53c.05-.12.1-.14.15-.07.12.17.25.33.37.5h.21ZM12.37,44.68c-.09-.11-.19-.23-.28-.37-.04-.06-.05-.18-.04-.25.01-.08.07-.14.11-.21h.21c.05.07.1.14.15.2.02.03.05.05.1.09h.59c.13.1.1.25.11.47-.07.08-.18.2-.29.32-.06.07-.21.06-.28-.02-.05-.06-.1-.13-.15-.2-.07,0-.14-.02-.22-.03ZM14.6,101.14c.09-.13.18-.25.27-.38.13-.04.15.14.23.19.12.07.27.02.36.2.06.11.13.2.18.28v.55c-.08.18-.19.13-.29.14-.19-.1-.05-.45-.23-.56h-.21c-.1-.13-.2-.26-.31-.41ZM10.36,19.76v.57c-.07.12-.16.14-.26.15-.11,0-.16.15-.24.23-.01.01-.05,0-.07-.01-.03-.02-.06-.06-.06-.1,0-.46,0-.91,0-1.37,0-.03.04-.07.09-.15.21.26.38.48.54.68ZM17.02,100.15h.2c.17.2.35.39.36.74,0,.03.04.07.07.1.07.07.1.13.07.19-.04.09-.1.11-.18.1-.1-.02-.2,0-.32,0-.08-.12-.18-.26-.32-.46.03-.25-.06-.49.11-.66ZM16.59,101.84c-.09-.12-.18-.26-.29-.42-.05-.22-.02-.49-.02-.76,0-.07.06-.15.09-.22.18.19.34.4.36.74,0,.07.1.12.13.2.03.07.04.17.03.25-.01.08-.07.14-.1.22-.07,0-.14,0-.22,0ZM10.77,29.63q-.09.11-.3-.15h-.44c-.08-.13-.17-.27-.27-.43.04-.17.16-.29.3-.4.05.07.09.16.15.19.09.05.2.04.28.11.12.1.21.23.29.32,0,.17,0,.26-.01.35ZM19.22,106.18c0,.12.01.25.01.38,0,.32-.02.34-.32.34-.1-.13-.19-.26-.3-.4,0-.12-.01-.25-.01-.38,0-.32.02-.34.32-.34.1.13.19.26.3.4ZM22.74,136.77c.12.1.2.26.32.42-.1.05-.18.1-.26.14-.07-.07-.13-.11-.18-.17-.15-.19-.29-.39-.42-.56.04-.42.05-.47.32-.4.18.05.06.42.23.57ZM11.18,45.64c.03.22.05.43,0,.63-.07.16-.19.08-.28.1-.09-.08-.11-.2-.12-.34,0-.15-.11-.21-.17-.31-.01-.02-.02-.07,0-.09.09-.14.18-.27.27-.4.11.15.21.28.31.41ZM9.73,31.32c-.01-.39,0-.39.29-.18.03.02.06.03.09.03.17,0,.26.08.25.32,0,.16.1.23.17.33.04.06.02.15-.06.19-.06.03-.14,0-.21,0-.17-.23-.35-.46-.52-.7ZM14.59,51.32v-.3q.22-.2.42,0v.82c-.2.22-.2.22-.42.02.07-.1.14-.19.22-.3-.08-.09-.15-.17-.22-.25ZM12.29,42.04c.03-.06.07-.16.1-.16.2-.02.41,0,.61,0,.15.3.15.3-.01.56h-.41c-.1-.13-.19-.26-.3-.39ZM16.91,80.58s-.05.08-.08.1c-.05.03-.09-.02-.15-.11-.13-.21-.32-.36-.42-.65.03-.1.07-.21.11-.34.19.26.37.49.54.72v.28ZM9.86,26.63c-.17-.06-.22-.29-.34-.38v-.29c.1-.16.23-.19.35-.09.11.1.2.24.29.36-.11.14-.2.27-.3.4ZM18.25,68.84c-.13-.19-.03-.43-.07-.64.04-.1.1-.15.14-.1.17.21.33.44.5.66-.2.16-.2.16-.57.09ZM10.78,26.81v.55q-.21.2-.42,0v-.55q.21-.21.42,0ZM11.02,19.61c.2.07.26.31.4.41,0,.17.04.36-.12.42-.18-.23-.34-.46-.52-.7.09-.05.18-.1.25-.13ZM18.5,100.71c-.14-.2-.14-.26,0-.57.14.19.28.39.43.57.06.08.09.13.06.19-.04.08-.1.11-.18.09-.03,0-.07,0-.1,0-.07-.09-.14-.19-.21-.29ZM19.2,81.66s.03.07.05.14c-.03.09-.06.21-.11.4-.19-.27-.34-.5-.5-.73-.01-.02-.01-.07,0-.09.03-.1.09-.12.17-.1.03.01.07,0,.14,0,.07.11.16.24.25.37ZM23.49,135.52c.03-.26.18-.16.29-.18.07.1.15.19.21.29.14.2.14.26,0,.56-.17-.22-.33-.44-.5-.67ZM19.87,146.18c0-.14,0-.27,0-.41,0-.1,0-.18.07-.24.05-.04.09,0,.15.08.07.1.15.19.21.26v.31q-.21.2-.42,0ZM13.75,56.38c-.07.09-.15.18-.22.27-.15.19-.21.19-.42-.01v-.36c.26-.04.47-.17.64.1ZM16.7,68.2c0-.15,0-.29,0-.42,0-.1,0-.18.07-.24.05-.04.09,0,.15.08.07.1.15.19.21.26v.31c-.14.2-.28.18-.42,0ZM12.37,158.43q-.14-.28,0-.56h.21c.15.27.15.28,0,.56h-.21ZM17.05,106.11c.11.1.2.24.29.36-.11.18-.24.21-.36.1-.11-.1-.2-.24-.29-.36.11-.18.24-.21.36-.1ZM22.52,137.87c.09.02.22-.07.27.1.04.14-.09.19-.14.28-.02.04-.05.07-.07.1-.02.03-.05.05-.07.07-.14-.29-.14-.29.02-.55ZM15.43,50.19c-.01.12.05.3-.07.36-.1.05-.14-.12-.21-.19-.03-.03-.05-.06-.07-.1-.02-.03-.04-.06-.06-.1.21-.19.21-.19.42.02ZM15.66,77.5c-.07.09-.16.17-.22.27-.06.09-.1.13-.15.09-.07-.05-.09-.13-.07-.23,0-.04,0-.09,0-.14.14-.21.28-.2.43.01ZM17.79,76.68c-.02-.06,0-.13.08-.18h.41s.06.06.07.1c.02.06,0,.13-.08.18h-.41s-.06-.06-.07-.1ZM11,96.05c-.02.16.06.36-.13.4-.1-.13-.19-.26-.29-.39.14-.2.28-.18.42-.01ZM16.94,75.55c.03-.26.18-.16.29-.18.15.19.13.38,0,.57-.1-.13-.2-.26-.29-.39ZM17.76,118.01c.01-.12-.05-.3.07-.36.1-.05.14.12.21.19.03.03.05.06.07.1.02.03.04.06.06.1-.21.19-.22.19-.42-.02ZM18.5,131.39c.07.1.13.21.21.29.07.08.09.13.06.19-.04.09-.1.11-.18.09-.03,0-.07,0-.1,0-.15-.28-.15-.28,0-.57ZM6.17,119.76s-.01-.07,0-.09c.05-.14.28-.15.35,0,.01.02,0,.06,0,.09-.05.14-.28.15-.35,0ZM18.36,108.13c.04.1-.05.18-.18.19-.03,0-.07.01-.1,0-.03-.02-.06-.06-.07-.09-.03-.06,0-.13.08-.18.03-.02.07,0,.1,0,.08-.03.14,0,.17.1ZM14.23,73.35c-.11-.09-.1-.4,0-.46.02-.01.05,0,.07,0,.03.02.06.06.07.1,0,.09,0,.18,0,.27,0,.04-.04.06-.07.1-.02,0-.05,0-.07,0ZM12.79,21.32c-.15-.19-.15-.38,0-.56.15.19.15.38,0,.56ZM9.94,27.37c-.14.2-.28.2-.42,0,.14-.2.28-.2.42,0ZM19.66,127.03c-.04.1-.09.13-.14.09-.03-.02-.07-.08-.07-.09.04-.1.09-.13.14-.1.02.03.07.08.07.09ZM18.19,130.13c.04-.1.09-.13.14-.1.03.02.07.08.07.09-.04.1-.09.13-.14.1-.02-.03-.07-.08-.07-.09ZM6.45,108.32s.05.05.07.09c.03.06,0,.13-.07.18,0,0-.04-.06-.07-.09-.02-.06,0-.13.07-.18ZM15.93,87.99s-.07-.08-.07-.09c.04-.1.09-.13.14-.1.03.02.05.06.07.09-.05.09-.1.13-.14.09ZM11.07,86.58s-.07-.08-.07-.09c.04-.1.09-.13.14-.1.03.02.05.06.07.09-.05.09-.1.13-.14.09ZM12.79,84.38c-.07-.05-.1-.12-.07-.18.02-.04.06-.1.07-.09.07.05.1.12.07.18-.02.03-.06.09-.07.09ZM15.75,53.41s-.05-.05-.07-.09c-.03-.06,0-.13.07-.18,0,0,.04.06.07.09.02.06,0,.13-.07.18ZM15.23,80.3s.04-.07.07-.09c.04-.04.1,0,.14.1,0,.01-.04.06-.07.09-.05.03-.1,0-.14-.1ZM12.48,52.99s.04-.07.07-.09c.04-.04.1,0,.14.1,0,.01-.04.06-.07.09-.05.03-.1,0-.14-.1ZM12.55,35.63s-.07-.08-.07-.09c.04-.1.09-.13.14-.1.03.02.05.06.07.09-.05.09-.1.13-.14.09ZM17.65,75.08s-.05-.05-.07-.09c-.03-.06,0-.13.07-.18,0,0,.04.06.07.09.02.06,0,.13-.07.18ZM14.27,32.58c.07.05.1.12.07.18-.02.04-.06.1-.07.09-.07-.05-.1-.12-.07-.18.02-.03.06-.09.07-.09ZM12.97,29.15s-.07-.08-.07-.09c.04-.1.09-.13.14-.1.03.02.05.06.07.09-.05.09-.1.13-.14.09ZM11.41,114.09s-.04.07-.07.09c-.04.04-.1,0-.14-.1,0-.01.04-.06.07-.09.05-.03.1,0,.14.1ZM11.63,72.41s.04-.07.07-.09c.04-.04.1,0,.14.1,0,.01-.04.06-.07.09-.05.03-.1,0-.14-.1ZM18.29,113.95s.05.05.07.09c.03.06,0,.13-.07.18,0,0-.04-.06-.07-.09-.02-.06,0-.13.07-.18Z"/>
        <path d="M22.32,171.39h.61c.09.1.17.19.22.26h.61c.13-.16.23-.28.33-.4v-.29c.14-.21.32-.37.43-.65-.03-.1-.06-.22-.09-.33h-.23c-.1-.13-.2-.27-.3-.4,0-.04-.01-.09-.02-.13-.03-.28-.06-.32-.25-.32-.1,0-.2.01-.27.02-.13.15-.23.28-.33.4,0,.3,0,.58,0,.86,0,.03-.05.07-.09.13-.22-.27-.42-.58-.66-.85h-.61c-.09-.1-.17-.19-.24-.28-.17.05-.37-.1-.5.14v.55c.25.33.5.66.75,1.01h.4c.08.1.15.19.23.29ZM23.68,170.67c-.14.2-.28.2-.42,0,.14-.2.28-.2.42,0Z"/>
        <path d="M24.84,124.65h.43c.12.1.08.25.11.37.03.12.12.21.2.33v1.11c-.07.25-.33.05-.42.29,0,.09,0,.19,0,.27.07.1.14.2.21.3-.01.4-.02.4-.29.41-.07,0-.14,0-.27,0-.1-.18-.22-.4-.32-.57h-.53c-.03-.11-.06-.24-.09-.34.12-.27.29-.43.43-.64-.07-.1-.14-.2-.2-.3v-.23c.26-.37.5-.71.73-1.02Z"/>
        <path d="M21.99,172.68v1.08c.07.1.14.2.21.3,0,.1,0,.19.01.28.13.23.32.08.48.13.13.12.26.25.33.45-.03.03-.05.09-.07.1-.35,0-.69,0-1.09,0-.14-.21-.3-.45-.5-.75-.04-.27,0-.64-.01-1.04-.05-.08-.11-.18-.2-.32v-.54c.07-.16.18-.31.31-.41.18.23.35.46.53.7Z"/>
        <path d="M20.46,164.21c-.1.22-.24.45-.51.45-.07,0-.14.14-.2.22-.07-.09-.12-.15-.18-.24-.07.08-.13.17-.21.23-.12.1-.33.02-.33-.14,0-.21-.06-.34-.17-.47-.09-.1-.02-.26-.07-.37-.05-.11-.15-.2-.18-.32-.03-.12,0-.27.1-.36h1.03c.24.33.47.66.72.99Z"/>
        <path d="M20.58,88.04c.27.34.52.66.77.99-.14.24-.33.1-.54.15-.1-.2-.22-.43-.34-.66-.16.22-.26.35-.36.48,0,.09-.01.18-.02.29.14.19.28.39.42.6,0,.13.03.28-.08.38-.02-.01-.06-.01-.07-.04-.25-.33-.5-.66-.76-1.01-.14-.06-.31-.07-.43-.27-.07-.13-.27,0-.34-.21v-.28q.1-.12.31.14h.43c.18-.09.04-.44.21-.56h.81Z"/>
        <path d="M19.66,63.27h-.54c-.08-.12-.18-.26-.28-.42.05-.08.1-.17.18-.29v-.83c-.05-.07-.11-.17-.2-.31,0-.09,0-.23,0-.36,0-.25.06-.32.23-.33.03,0,.07,0,.1,0,.07,0,.14,0,.2.01.02.03.07.06.07.1.01.13.01.27.03.4,0,.08.02.18.05.25.07.13.19.06.28.1.02.03.07.06.07.1.02.18.02.36.03.62-.14.14-.3.31-.44.46.07.22.25.27.22.5Z"/>
        <path d="M20.08,72.84c0,.42,0,.84,0,1.26-.05.05-.1.14-.16.15-.17.02-.35,0-.55,0-.06.07-.14.15-.23.24q-.39.04-.54-.11v-.27c.1-.14.2-.27.31-.42.12,0,.26.01.4,0,.04,0,.07-.11.11-.16-.25-.35-.25-.35-.08-.67h.73Z"/>
        <path d="M18.39,58.06v.28c.07.1.14.2.21.3v.26c.07.11.14.21.21.3,0,.1,0,.19-.01.29-.14.21-.32.1-.48.11-.04,0-.13-.11-.13-.17-.01-.27,0-.55,0-.8-.19-.25-.36-.48-.53-.71h-.21c-.1-.13-.19-.26-.29-.4.04-.05.07-.15.11-.16.14-.02.27,0,.4,0,.12.22.25.32.44.31.1.13.2.26.3.39Z"/>
        <path d="M23.41,174.19c-.29-.38-.53-.71-.78-1.05.08-.25-.17-.33-.18-.48.1-.18.19-.32.26-.45.2.25.38.48.55.7v.29c.1.14.2.27.3.4.07,0,.14.01.27.02.06.09.15.23.23.38.01.02,0,.07-.01.1-.02.03-.05.08-.08.08-.21,0-.42,0-.56,0Z"/>
        <path d="M20.19,72.84c-.28-.37-.45-.59-.64-.84-.18,0-.39,0-.59,0-.03,0-.06-.04-.11-.08-.01-.1-.02-.23-.03-.33.15-.25.33-.1.5-.15.07.08.15.17.24.27h.58c.22.18.36.44.54.66.01.02.01.06.01.08-.1.14-.19.27-.28.4-.12,0-.22,0-.21,0Z"/>
        <path d="M16.97,162.03c.13.16.21.25.28.34.08,0,.17-.02.21.02.26.31.5.63.73.93v.35c-.08.04-.18.08-.25.12-.2-.15-.32-.38-.47-.56-.07,0-.13-.01-.21-.02-.07-.09-.14-.18-.23-.28-.06,0-.13.02-.19,0-.08-.03-.12-.14-.08-.17.18-.16.18-.45.23-.72Z"/>
        <path d="M22.1,96.22c-.07,0-.14,0-.23-.02-.23-.32-.46-.66-.7-1,.02-.02.06-.1.12-.12.06-.02.15,0,.19.04.13.15.25.32.37.49.07,0,.13.02.23.03.2.27.42.56.63.84.09,0,.15.01.22.02.1.13.2.26.3.4-.08.19-.24.23-.33.1-.13-.18-.3-.18-.44-.29-.14-.12-.25-.32-.38-.48Z"/>
        <path d="M24.73,122.55c-.01.11.05.27-.07.36-.04.03-.1-.01-.15-.1-.02-.04-.05-.1-.07-.09-.29.02-.41-.26-.56-.53v-.48c-.08-.14-.19-.25-.19-.36,0-.21-.1-.33-.19-.46-.03-.05.01-.13.08-.18h.42c.23.27,0,.63.12.92.15.35.42.58.61.92Z"/>
        <path d="M15.01,169.54c.07.1.14.2.21.3v.83q-.21.21-.42,0v-1.11c-.07-.1-.14-.2-.21-.3v-.55q.21-.2.42,0c0,.28,0,.55,0,.83Z"/>
        <path d="M23.38,130.28h.41c.17.19.06.44.11.74.12.13.28.3.41.44,0,.16,0,.26,0,.35-.05.1-.1.14-.15.08-.3-.39-.6-.78-.88-1.19-.04-.05-.04-.18-.02-.26.02-.07.08-.13.12-.18Z"/>
        <path d="M8.46,169.26c-.08-.1-.15-.19-.23-.29h-.41s-.06-.07-.08-.11c-.07-.18-.01-.43.12-.44.16,0,.26-.1.35-.24.03,0,.06-.01.08,0,.17.24.37.43.49.71q-.04.36-.31.37Z"/>
        <path d="M12.05,164.32c-.09.17-.23.22-.34.1-.19-.19-.35-.43-.5-.62v-.32c.07-.13.17-.18.26-.13.12.06.21.22.33.26.09.04.19.04.25.16v.54Z"/>
        <path d="M25.16,111.55v.28c-.1.13-.2.26-.31.41-.1-.12-.19-.24-.29-.36-.07-.28-.03-.56-.03-.83,0-.07.07-.14.11-.2.17.23.35.46.52.7Z"/>
        <path d="M25.9,173.91h-.43c-.06-.09-.12-.19-.18-.28-.12-.02-.24.05-.3-.1-.07-.18-.06-.35.07-.46.05-.04.13,0,.2,0,.07.09.15.19.22.28h.41c.15.27.15.28,0,.56Z"/>
        <path d="M25.58,146.6h.32c.1.13.2.25.29.4.03.06.02.17.03.27-.1.19-.22.34-.37.48-.09-.05-.18-.1-.27-.14v-1.01Z"/>
        <path d="M21.56,129.3c.05-.05.09-.13.15-.15.1-.03.19,0,.27.12.06.11.14.2.22.29v.31c-.06.08-.14.17-.21.26-.15.19-.21.19-.42-.01,0-.27,0-.55,0-.82Z"/>
        <path d="M25.68,134.21c-.07,0-.14,0-.21,0-.07-.09-.14-.19-.21-.29-.14-.2-.14-.27,0-.56h.43c.08.12.16.26.26.42-.03.18-.19.27-.28.43Z"/>
        <path d="M22.51,104.09c.07.06.11.13.07.19-.09.13-.19.24-.18.45,0,.06-.07.14-.11.21-.07,0-.14,0-.21,0-.07-.1-.14-.2-.22-.29-.09-.1-.12-.22-.09-.36.01-.07.07-.13.11-.2h.62Z"/>
        <path d="M8.77,165.44c-.07-.08-.14-.17-.21-.25v-.29c.14-.2.28-.2.42,0v.29c.07.08.14.17.21.25,0,.16,0,.3,0,.43,0,.1,0,.18-.07.24-.05.04-.09,0-.15-.08-.07-.1-.15-.18-.21-.26v-.33Z"/>
        <path d="M23.46,108.75c.14-.26.32-.11.46-.17.19.08.26.3.39.44v.27c-.09.17-.23.22-.34.1-.19-.19-.34-.43-.51-.64Z"/>
        <path d="M24.64,128.86c.06.1.13.2.18.29h.23c.12.13.14.3.07.47-.06.15-.18.07-.29.1-.06-.1-.13-.2-.18-.29h-.23c-.12-.13-.14-.3-.07-.47.07-.15.18-.07.29-.1Z"/>
        <path d="M26,166.17s0,.09,0,.14c.02.1,0,.18-.07.24-.09.08-.2.09-.27.01-.11-.11-.19-.25-.29-.38,0-.18,0-.36,0-.54,0-.05.08-.09.12-.14.17.23.34.45.51.68Z"/>
        <path d="M17.87,168.28c-.1-.13-.19-.26-.3-.4.06-.09.11-.18.19-.3.07-.2-.1-.52.13-.7h.2q.15.32-.08.66c-.1.23.08.55-.14.74Z"/>
        <path d="M15.33,165.18h.22c.06.09.13.19.18.28h.23c.16.19.15.37,0,.56h-.22c-.06-.09-.13-.19-.18-.28h-.23c-.16-.19-.15-.37,0-.56Z"/>
        <path d="M23.68,116.48h.32c.1.13.19.26.3.4.04.43,0,.46-.31.42-.1-.13-.2-.26-.3-.39v-.42Z"/>
        <path d="M21.65,125.2h.24c.06.09.13.19.2.28.14.2.14.27,0,.57-.07-.1-.14-.2-.2-.29-.12,0-.22-.01-.32,0-.08.01-.14,0-.18-.09-.03-.06,0-.12.06-.19.08-.09.14-.2.2-.28Z"/>
        <path d="M12.47,169.81c.07.1.14.2.2.29h.23c.06.09.13.2.21.28.07.08.09.13.06.19-.04.09-.1.1-.18.09-.1-.01-.2,0-.33,0-.08-.11-.18-.24-.26-.38-.03-.06-.04-.17-.03-.25.01-.08.06-.14.1-.23Z"/>
        <path d="M21.56,89.59c0,.27,0,.54,0,.82,0,.05-.08.1-.12.14-.1-.13-.2-.26-.29-.39v-.34c.07-.08.17-.2.28-.31.04-.05.1-.01.14.09Z"/>
        <path d="M23.15,99.87h.2c.2.22.09.49.08.74-.07.16-.18.08-.28.1-.1-.09-.12-.21-.11-.35,0-.18-.03-.37.11-.49Z"/>
        <path d="M18.82,170.65c0,.17,0,.31,0,.44,0,.1,0,.18-.07.24-.05.04-.09,0-.15-.09-.07-.1-.15-.18-.21-.26,0-.17,0-.31,0-.44,0-.11,0-.18.07-.24.05-.04.09,0,.15.09.07.1.15.18.21.26Z"/>
        <path d="M19.98,86.35c.15.19.15.38,0,.56h-.23c-.05-.08-.12-.18-.19-.28-.14-.2-.14-.27,0-.58.07.1.14.2.2.29h.22Z"/>
        <path d="M16.7,168.69v-.27c.22-.19.27-.19.42,0,.07.09.15.18.21.25,0,.13,0,.22,0,.31,0,.04-.04.07-.07.09-.04.03-.09-.02-.15-.1-.04-.06-.1-.1-.16-.13-.03-.02-.07.01-.1,0-.06-.04-.1-.1-.15-.15Z"/>
        <path d="M16.06,168.26c0,.14,0,.27,0,.41,0,.1,0,.18-.07.24-.05.05-.09.01-.15-.08-.07-.1-.15-.19-.21-.27v-.3q.21-.2.42,0Z"/>
        <path d="M20.45,91.55c.15-.07.24-.11.31-.15.18.11.27.3.39.45-.01.12.04.28-.07.36-.05.03-.09,0-.14-.1-.04-.07-.09-.13-.14-.19-.1-.12-.2-.23-.34-.38Z"/>
        <path d="M18.82,169.55c.01-.13-.04-.28.07-.37.13-.1.28-.09.34.1.05.15.02.35,0,.53,0,.05-.08.09-.12.13-.1-.13-.2-.26-.29-.39Z"/>
        <path d="M20.3,167.01c.16-.26.37-.12.56-.1.12.09.06.24.08.36-.05.06-.1.14-.16.15-.1.03-.19,0-.27-.12-.06-.1-.14-.19-.22-.29Z"/>
        <path d="M23.57,129.14h-.21c-.15-.3-.15-.3.02-.56.1,0,.21.01.31,0,.08-.01.14,0,.17.1.02.06-.01.12-.08.19-.08.09-.15.18-.21.27Z"/>
        <path d="M26.11,129.15c.15.19.14.38,0,.56h-.23c-.06-.09-.13-.2-.2-.28-.07-.08-.09-.13-.06-.2.04-.08.1-.1.18-.09.1.01.2,0,.31,0Z"/>
        <path d="M24.73,123.65c.02-.14-.06-.35.14-.38.1.13.19.26.29.38-.02.14.06.35-.14.38-.1-.13-.19-.26-.29-.38Z"/>
        <path d="M15.96,172.22h-.21c-.15-.27-.15-.28,0-.56h.21q.14.28,0,.56Z"/>
        <path d="M26.42,163.21h.21c.15.27.15.28,0,.56h-.21c-.15-.27-.15-.28,0-.56Z"/>
        <path d="M26.07,154.62c.12-.06.2-.11.27-.15.2.08.26.31.44.44-.12.06-.2.11-.27.15-.2-.08-.26-.31-.44-.44Z"/>
        <path d="M17.86,89.45c-.15-.19-.14-.37,0-.58.08.11.14.21.21.3.07.08.09.13.06.19-.04.09-.1.11-.18.09-.03,0-.07,0-.1,0Z"/>
        <path d="M16.17,163.21c.1.13.2.26.29.39-.03.26-.18.16-.29.18-.15-.19-.13-.38,0-.57Z"/>
        <path d="M20.61,173.91c-.15-.18-.15-.37,0-.58.07.1.13.21.2.3.06.08.09.13.07.19-.04.09-.1.12-.18.09-.03-.01-.07,0-.1,0Z"/>
        <path d="M20.4,113.66c.15.18.15.37,0,.58-.07-.1-.13-.21-.2-.3-.06-.08-.09-.13-.07-.19.04-.09.1-.12.18-.09.03.01.07,0,.1,0Z"/>
        <path d="M23.15,107.19c.14.12.1.31.11.49,0,.14-.01.27-.11.35-.14-.12-.1-.31-.11-.49,0-.14.01-.27.11-.35Z"/>
        <path d="M9.62,168.97c-.16-.27-.16-.27-.01-.56.07.09.14.19.21.27.07.07.1.13.07.19-.04.1-.09.12-.17.1-.03-.01-.07,0-.1,0Z"/>
        <path d="M19.67,92.67c-.16.22-.3.22-.44.01.01-.13-.04-.27.07-.37.05-.04.09,0,.15.09.07.1.15.18.22.27Z"/>
        <path d="M13.17,169.07s0,.07,0,.09c-.07.14-.3.14-.35,0,0-.03,0-.07,0-.09.02-.04.05-.08.07-.09.07-.01.14-.01.2,0,.03,0,.05.06.07.09Z"/>
        <path d="M15.65,166.59c-.13,0-.22-.09-.18-.19.04-.1.1-.12.17-.1.03.01.07-.01.1,0,.08.05.1.12.08.18-.02.04-.04.08-.07.09-.03.02-.07,0-.1,0Z"/>
        <path d="M26.21,128.44c.14-.2.28-.2.42,0-.14.2-.28.2-.42,0Z"/>
        <path d="M26.21,127.46c.02.1,0,.18-.07.23-.07.05-.14-.07-.14-.24,0-.05,0-.1,0-.13.01-.04.04-.07.07-.1.05-.03.1,0,.14.11.01.04,0,.09,0,.13Z"/>
        <path d="M23.47,127.17c0,.17-.07.29-.14.24-.07-.05-.09-.13-.07-.23,0-.04,0-.1,0-.13.04-.1.09-.14.14-.11.03.02.06.06.07.1.01.04,0,.09,0,.13Z"/>
        <path d="M23.15,124.36c-.15-.19-.15-.38,0-.56.15.19.15.38,0,.56Z"/>
        <path d="M18.99,89.92c-.05.14-.28.15-.35,0-.01-.02-.01-.07,0-.09.05-.14.28-.15.35,0,.01.02,0,.06,0,.09Z"/>
        <path d="M5.82,162.65c.15.19.15.38,0,.56-.15-.19-.15-.38,0-.56Z"/>
        <path d="M26.21,157.01c0,.17-.07.29-.14.24-.07-.05-.09-.13-.07-.23,0-.04,0-.1,0-.13.04-.1.09-.14.14-.11.03.02.06.06.07.1.01.04,0,.09,0,.13Z"/>
        <path d="M26.42,153.08c.15.19.15.38,0,.56-.15-.19-.15-.38,0-.56Z"/>
        <path d="M11.89,166.03c.02.1,0,.18-.07.23-.07.05-.14-.07-.14-.24,0-.05,0-.1,0-.13.01-.04.04-.07.07-.1.05-.03.1,0,.14.11.01.04,0,.09,0,.13Z"/>
        <path d="M14.21,166.16c.14-.2.28-.2.42,0-.14.2-.28.2-.42,0Z"/>
        <path d="M6.65,166.87c.14-.2.28-.2.42,0-.14.2-.28.2-.42,0Z"/>
        <path d="M19.73,166.54s-.07-.08-.07-.09c.04-.1.09-.13.14-.1.03.02.07.08.07.09-.04.1-.09.13-.14.1Z"/>
        <path d="M8.31,173.11s-.06.09-.07.09c-.07-.05-.1-.12-.07-.18.02-.04.06-.1.07-.09.07.05.1.12.07.18Z"/>
        <path d="M22.06,106.58s-.07-.08-.07-.09c.04-.1.09-.13.14-.1.03.02.07.08.07.09-.04.1-.09.13-.14.1Z"/>
        <path d="M15.26,171.56c-.02-.06,0-.13.07-.18,0,0,.05.05.07.09.03.06,0,.13-.07.18,0,0-.04-.06-.07-.09Z"/>
        <path d="M19.27,103.99c-.02-.06,0-.13.07-.18,0,0,.05.05.07.09.03.06,0,.13-.07.18,0,0-.04-.06-.07-.09Z"/>
        <path d="M26.78,170.3s.07.08.07.09c-.04.1-.09.13-.14.09-.03-.02-.07-.08-.07-.09.04-.1.09-.13.14-.1Z"/>
        <path d="M17.52,49.36s-.05.09-.06.08c-.05-.03-.1-.07-.12-.13-.04-.12,0-.18.09-.12.04.03.07.1.1.16Z"/>
        <path d="M15.61,163.87c.02.06,0,.13-.07.18,0,0-.05-.05-.07-.09-.03-.06,0-.13.07-.18,0,0,.04.06.07.09Z"/>
        <path d="M21.33,71.88s-.05.09-.06.08c-.05-.03-.1-.07-.12-.13-.04-.12,0-.18.09-.12.04.03.07.1.1.16Z"/>
        <path d="M19.85,63.43s-.05.09-.06.08c-.05-.03-.1-.07-.12-.13-.04-.12,0-.18.09-.12.04.03.07.1.1.16Z"/>
        <path d="M20.37,92.87s.1,0,.14.1c0,.01-.04.07-.07.09-.04.04-.1,0-.14-.1,0-.01.04-.06.07-.09Z"/>
        <path d="M20.82,148.85c.1.13.2.26.29.39-.03.26-.18.16-.29.18-.15-.19-.13-.38,0-.57Z"/>
        <path d="M15.22,107.46c0,.17-.07.29-.14.24-.07-.05-.09-.13-.07-.23,0-.04,0-.1,0-.13.04-.1.09-.14.14-.11.03.02.06.06.07.1.01.04,0,.09,0,.13Z"/>
      </g>
      <g>
        <path d="M82.11,134.05c-.15-.15-.33-.34-.48-.49-.01-.26,0-.4.1-.52.17-.21.2-.38,0-.65-.06-.08-.12-.15-.11-.26.03-.26-.13-.36-.24-.52,0-.2,0-.41,0-.62l-.25-.34c.07-.14.21-.1.3-.17.27-.21.5-.5.63-.87.04-.13.02-.3.15-.4.14,0,.3,0,.46,0,.03,0,.06-.07.1-.13,0-.29,0-.61,0-.96-.05-.08-.13-.2-.22-.32.15-.21.3-.43.45-.65-.08-.17-.21-.13-.32-.15-.12-.03-.17-.21-.16-.36.02-.18.13-.25.19-.37.07-.13.06-.34,0-.43-.11-.14-.23-.29-.34-.43-.25,0-.48,0-.71,0-.12-.16-.24-.31-.35-.46.11-.15.22-.3.35-.48.13,0,.29.01.45-.01.05,0,.08-.12.11-.17-.07-.13-.17-.24-.2-.38-.03-.15-.03-.3-.15-.4-.07,0-.15,0-.22,0l-.34-.45c0-.1-.01-.21-.02-.32.08-.11.15-.23.24-.34v-.31s-.25-.35-.25-.35c0-.21,0-.42,0-.59-.21-.29-.41-.56-.59-.82-.09,0-.17,0-.24,0-.1-.11-.18-.22-.27-.32-.24,0-.47,0-.61,0-.33-.43-.62-.8-.93-1.21,0-.14,0-.35,0-.53-.04-.06-.07-.1-.1-.13-.08-.08-.12-.15-.08-.22.04-.1.11-.12.21-.11.12.02.24,0,.38,0,.03-.14.07-.28.1-.4-.12-.24-.25-.43-.43-.55-.04,0-.09-.02-.12,0l-.38.32c-.12,0-.24,0-.39,0-.24-.3-.5-.62-.76-.95-.15,0-.31,0-.46,0-.09-.11-.18-.22-.27-.32-.24,0-.47,0-.65,0-.24-.29-.45-.53-.64-.76,0-.46.01-.47.34-.5.08.1.17.2.26.31.07,0,.15,0,.25,0,.09-.14.2-.3.33-.49,0-.16,0-.36,0-.61-.05-.08-.13-.2-.21-.32,0-.09-.01-.19-.02-.31l-.48-.66c0-.12-.01-.22-.02-.32-.14-.19-.29-.36-.42-.56-.04-.07-.06-.2-.04-.29.01-.09.08-.16.12-.24.08,0,.16,0,.23,0,.18.21.32.47.5.6.19,0,.34,0,.42,0,.17-.19.29-.32.38-.43,0-.37,0-.69,0-.99-.12-.16-.22-.33-.35-.45-.09-.08-.26.06-.31-.12-.05-.17.11-.22.17-.37,0-.17,0-.38,0-.58.08-.13.16-.24.24-.37,0-.09,0-.19.01-.3l-.48-.66c.16-.27.37-.1.57-.16.08.1.17.2.26.31.16,0,.18.01.34.13.01.33.03.69.04,1.01.08.11.19.18.19.26,0,.35.18.55.35.76.02.02.06.03.08.02.03-.02.08-.07.08-.11v-1.91s-1.29-1.67-1.29-1.67c-.02-.03-.07-.04-.1-.07-.07-.01-.15-.01-.22-.05-.09-.04-.11-.14-.09-.27-.11,0-.22.02-.33,0-.05-.01-.13-.13-.12-.17.02-.1.1-.15.17-.13.07.01.14.03.2.06.08.04.1.14.08.25.12,0,.24,0,.38,0,.03-.13.07-.26.1-.38-.03-.08-.04-.13-.07-.16l-1.02-1.34c-.08,0-.16,0-.24-.01l-.25-.31c-.08.11-.17.21-.25.31-.09,0-.16-.01-.24-.02l-.34-.45v-.63c-.09-.12-.17-.23-.24-.33,0-.34,0-.65,0-.97,0-.04.05-.08.09-.13.3,0,.62,0,.97,0,.09.11.2.26.31.4.07.1.08.3,0,.43-.04.09-.11.15-.17.23.08.23.22.39.38.51l1.07-.02c.06,0,.13-.1.19-.15.02-.15-.05-.32.08-.43.03,0,.06,0,.08.02.26.34.51.67.78,1.02-.07.11-.14.22-.22.35,0,.28,0,.59.01.91,0,.04.04.09.07.12.02.02.07.03.08.02l.67-.91c.31,0,.63,0,1.05-.01.1.17.24.43.36.64.32-.07.62.14.87-.19-.12-.13-.24-.26-.4-.43-.01,0-.09-.02-.22-.04-.14-.18-.31-.4-.47-.62-.19-.06-.39.11-.57-.12-.02-.24-.05-.49-.07-.72-.07-.09-.13-.17-.2-.26,0-.3,0-.61,0-.93l-.5-.68c.01-.15-.04-.32.11-.45.13,0,.28,0,.47,0,.06.07.15.17.24.28.07,0,.15.01.23.02.08.1.16.21.26.31.02.03.08,0,.12,0,0-.21,0-.42,0-.63,0-.12,0-.22.09-.27.05-.03.11.02.17.12.02.04.06.07.11.14.21,0,.45,0,.68,0,.09,0,.17-.23.15-.37-.01-.1-.06-.17-.11-.26-.2-.32-.19-.32-.01-.65.02-.04.06-.07.08-.11.05-.11.04-.33-.03-.43-.05-.08-.25-.13-.32-.06-.09.09-.17.2-.23.27-.19,0-.35,0-.48,0-.34-.41-.35-.41-.68,0-.26.12-.55-.07-.8.12-.19.36.11.84-.16,1.18-.08,0-.16.01-.26.02-.09.14-.19.3-.32.5-.04.27-.07.35-.24.59-.07.24.06.52-.08.75-.03.03-.07.07-.1.07-.47,0-.94.01-1.35.02-.17-.2-.29-.33-.4-.46,0-.34,0-.66,0-.96-.09-.12-.17-.24-.25-.36,0-.31,0-.63,0-.91-.09-.14-.17-.26-.23-.35-.02-.45.02-.87-.03-1.21-.1-.18-.19-.3-.22-.43-.03-.16-.04-.3-.15-.38-.08,0-.15,0-.15,0-.32-.42-.6-.78-.89-1.16.09-.04.2-.08.3-.12.18.23.35.44.52.64.09-.1.17-.19.24-.28.13.16.25.3.36.44,0,.23,0,.44,0,.65q.28.23.58-.15c.08,0,.15-.02.27-.03.08-.13.18-.29.29-.49-.04-.06-.11-.17-.18-.28.05-.18.18-.31.29-.43.08-.08.22-.07.31-.13.07-.04.11-.14.18-.24.08.09.16.18.24.28.05.06.07.14.11.22-.06.08-.11.16-.17.23-.05.36-.06.71.02,1.06.06.07.12.14.17.22.14.28.46.12.58.44.01.03.06.05.1.06.12.02.23-.02.3-.17,0-.11,0-.21,0-.31l-.25-.35c0-.53,0-1.05-.02-1.61-.11-.04-.21-.08-.37-.14-.04-.05-.13-.16-.22-.27-.07,0-.15,0-.23,0l-.27-.32h-.22c-.12-.15-.23-.3-.34-.45.28-.37.55-.73.86-1.13.11,0,.26,0,.4,0,.15.08.14.24.15.4.02.21.23.27.24.5,0,.05,0,.11,0,.11.3.39.58.75.87,1.14.04-.05.12-.15.21-.26.07,0,.15,0,.23,0l.25.31c.08,0,.16,0,.18,0,.31-.4.6-.77.89-1.14-.03-.15-.06-.29-.1-.43-.18,0-.34,0-.5,0-.09-.11-.18-.21-.27-.32-.15,0-.31,0-.46,0l-.27-.32c-.07,0-.15,0-.22,0-.1-.11-.18-.22-.26-.31-.09-.01-.17-.02-.24-.03l-.34-.45-.26-.33c-.11-.15-.21-.32-.34-.44-.18-.16-.05-.52-.27-.65-.15,0-.3,0-.46,0-.2-.27-.4-.53-.6-.79-.02-.03,0-.1,0-.16-.11,0-.22.03-.32,0-.1-.03-.18-.14-.21-.31-.08-.01-.11-.05-.13-.09-.02-.03-.04-.08-.03-.1.04-.12.09-.13.15-.06.06.07.09.14.06.25,0,.02-.07.01-.05,0,.16,0,.27-.03.37,0,.1.03.18.14.16.31.12,0,.24,0,.48,0,.08-.17.22-.43.28-.56.22-.1.32-.15.42-.2,0-.35,0-.67,0-1.01-.1-.12-.22-.26-.37-.44-.12,0-.27,0-.43,0-.09-.11-.18-.21-.28-.32-.16.21-.32.42-.48.62-.25,0-.49,0-.72,0-.12-.16-.23-.31-.35-.46v-.3c-.09-.12-.17-.23-.25-.35-.01-.15.04-.32-.12-.44-.09,0-.2-.01-.32-.02-.21,0-.28.09-.28.36,0,.15-.03.33.01.43.06.16.23.22.19.37-.04.19-.2.1-.31.12-.04-.08-.1-.16-.12-.25-.12-.45-.15-.52-.53-.69-.12-.06-.19-.18-.28-.26-.12-.11-.32,0-.41-.24,0-.09,0-.19,0-.29-.09-.12-.16-.24-.24-.34,0-.12-.02-.25.02-.31.17-.29.36-.55.52-.78.14,0,.22.01.29.02l.94,1.23.23.02c.23-.11.05-.51.25-.64h.24c.2.12.04.52.26.63l.23-.02s.07-.07.08-.11c.01-.14.02-.18.03-.3,0-.05.03-.09.06-.13.05-.07.11-.15.17-.23v-.3c.24-.34.48-.68.71-1.01-.04-.28.07-.57-.13-.76-.08,0-.16,0-.18,0-.39-.52-.76-.99-1.12-1.47,0-.41,0-.83,0-1.25,0-.04.05-.08.08-.11.08,0,.15-.02.22-.02.19.09.1.39.19.51.16.2.21.41.21.69,0,.34.04.37.36.4.09.11.18.21.25.29.26.02.5.03.73.05.03,0,.06.07.09.11,0,.2,0,.41,0,.63-.07.1-.15.22-.23.33,0,.11,0,.21,0,.31.08.12.16.23.26.36,0,.51.01,1.04.02,1.57,0,.04.05.07.08.11.04,0,.07.02.11.02.15,0,.26-.1.26-.22,0-.26-.01-.53,0-.79,0-.09.07-.17.11-.26h.23c.09-.11.17-.21.25-.31.09.1.18.21.28.32.1-.04.21-.09.34-.15-.17-.22-.31-.4-.44-.58-.11-.16-.21-.31-.31-.46.03-.24-.08-.38-.2-.52-.03-.39-.2-.65-.44-.84-.26-.05-.55.16-.79-.13,0-.1-.01-.21-.02-.32.08-.11.15-.23.24-.34v-.94c.07-.12.15-.23.23-.34-.02-.43-.02-.43-.35-.46-.16.21-.33.42-.5.64-.11-.01-.24.05-.33-.15,0-.17,0-.38,0-.62-.25-.32-.5-.65-.74-.97,0-.13-.01-.23-.02-.3-.21-.29-.4-.55-.58-.8-.14,0-.26,0-.37,0-.09.01-.16-.02-.24-.22-.13-.13.18-.53-.13-.7-.08.09-.16.18-.24.27-.16-.21-.3-.4-.45-.58-.08,0-.15-.02-.24-.03-.08-.09-.17-.2-.26-.31-.15,0-.31,0-.46,0l-.27-.32c-.15,0-.31,0-.46,0-.09-.11-.18-.22-.26-.31-.09-.01-.17-.02-.17-.02-.25-.28-.46-.52-.7-.8.16-.07.27-.11.36-.15.05.05.09.07.11.1l.17.22c.2-.35.2-.35-.09-.75.02-.27-.18-.6.1-.81.06.08.11.16.17.22.15.13.29.09.4-.09,0-.32,0-.64,0-.95.08-.12.16-.23.24-.34,0-.51,0-.51.1-.77l.51.63c.08,0,.15,0,.22,0,.09.11.18.22.28.33l.31-.13c0-.24,0-.45,0-.68-.07-.1-.15-.21-.23-.33v-.3s-.24-.34-.24-.34c.24-.3.53-.1.81-.16.08-.09.16-.2.19-.23.23-.18.45.03.61-.19.07-.36.06-.72-.03-1.2-.33-.44-.73-.95-1.14-1.49,0-.11,0-.26.11-.37.1-.1.15-.23.12-.44-.16-.32-.4-.58-.63-.84-.09-.02-.17-.04-.17-.04-.17-.22-.29-.37-.41-.53.13-.24.24-.43.36-.63.07,0,.15-.01.25-.02.1-.2.2-.41.34-.71,0-.3,0-.68,0-1.12,0-.1.09-.2.14-.33.15-.03.3-.06.44-.08.1-.17.18-.3.25-.43.25.4.47.78.71,1.17.31-.04.62-.09.94-.13.08-.01.17-.44.13-.6-.02-.08-.03-.13-.04-.2-.14-.25-.29-.49-.45-.77,0-.19,0-.42,0-.64,0-.39,0-.39.28-.58.04-.02.07-.06-.02.02.29-.58.5-.99.67-1.32.01-.3.02-.45.03-.58l.26-.66-.02-.13c.33-.13.33-.14.22-.26-.17-.19-.34-.23-.53-.35-.19-.23-.39-.48-.6-.75-.06-.26-.18-.58-.09-.78.13-.14.5-.03.32-.46l-.32-.38c-.24-.15-.48-.19-.72-.52-.16-.23-.36-.23-.53-.36-.23-.18-.44-.39-.65-.58-.09.06-.16.1-.3.19-.46-.7-.97-.76-1.47-1.02-.1-.12-.2-.24-.29-.36-.2-.13-.32-.11-.4,0-.11.21-.4.12-.71-.01.14.45.61.95.96,1.33.29.06.55.31.8.6l.88.42c.05.06.11.12.15.16l.3.37c.19.23.26.42.18.48-.06.04-.15.1-.24.06-.42-.2-.81-.38-1.17-.55-.14-.16-.24-.31-.34-.37-.23-.14-.46-.22-.64-.31-.15.03-.18.21-.43.04-.21-.24-.45-.49-.66-.72-.14-.06-.25-.1-.37-.16-.21-.27-.44-.54-.66-.83-.27-.07-.54-.15-.8-.22-.07-.09-.13-.17-.19-.24-.04-.28.04-.52-.06-.74-.21-.08-.38-.15-.53-.2-.1.07-.16.11-.19.13-.35-.07-.66-.13-.96-.19-.01-.36-.03-.69-.04-1.01l.37-.31s0-.09,0-.14c-.2-.14-.41-.16-.61-.17-.27.07-.07.41-.19.56l-.47.38s-.07.01-.11.02l-.27-.07c-.07.04-.13.08-.21.12,0,.12,0,.26-.01.42-.07.06-.17.14-.26.21-.03.03-.06.08-.09.07-.08-.01-.18-.03-.24-.09-.22-.2-.19-.38-.07-.47l.83-.68c0-.14,0-.28,0-.4.26-.21.5-.41.73-.6.15.03.28.05.43.08.05-.1.1-.21.15-.31-.09-.11-.15-.19-.23-.28,0-.32,0-.64,0-.99.04-.04.09-.09.15-.15.24-.06.36.36.6.33.06-.05.12-.1.21-.17.14.11.29.22.44.33.68.17,1.35.33,2.03.5.03,0,.06-.05.09-.07l-.3-.37c-.63-.16-1.26-.31-1.9-.47-.19-.24-.39-.48-.57-.72-.55-.19-1.08-.24-1.56-.43-.16-.21-.29-.36-.4-.5,0-.13,0-.22,0-.31-.04-.07-.13-.12-.21-.08-.14.08-.25.19-.36.28-.21-.05-.39-.1-.57-.14-.01-.14-.02-.28-.03-.41-.07-.09-.13-.17-.19-.24-.5-.12-1-.25-1.5-.37-.02-.43.41-.42.51-.66,0-.24,0-.42,0-.59-.08-.1-.15-.18-.21-.26-.28-.11-.43.24-.73.02-.06.04-.13.09-.2.14-.26-.06-.52-.12-.77-.17-.19.16-.38.31-.52.43-.08.3.04.61-.05.85-.19.13-.34.33-.57.41l-.27-.07c-.4.17-.63.59-1.04.74-.19-.05-.37-.1-.55-.15-.14-.17-.27-.33-.39-.49-.19-.03-.35-.07-.51-.25-.08-.1-.25-.12-.44-.2-.41-.43-.77-1.02-1.22-1.46-.13-.03-.22-.05-.32-.08-.02-.27-.03-.54-.05-.81-.07-.09-.13-.17-.19-.24-.27-.08-.54-.1-.83-.26-.04-.11-.1-.24-.15-.36.14-.12.27-.22.41-.34.14.11.29.22.44.33l.67.17c.11.1.17.27.34.28.03,0,.08,0,.11-.02.16-.09.25-.31.53-.22.26.09.43-.17.73-.02.13.07.27.07.4.1-.01-.33-.02-.65-.03-1.01-.17-.03-.34-.05-.59-.09.03-.01,0,0-.04.01-.26.12-.26.12-.44-.09-.13-.15-.22-.37-.47-.39-.07.06-.16.13-.25.21-.16.13-.25.1-.44-.12-.1-.11-.2-.23-.22-.26-.4-.13-.71-.23-.97-.32-.12.07-.18.12-.25.16l-.54-.13c-.08-.13-.24-.22-.19-.44.17-.15.37-.33.58-.53l-.07-1.55c.17-.07.23-.34.51-.24.04.04.08.08.11.11l.2.25c.21.25.36.24.49,0,.02-.03,0-.09,0-.15l-.78-.98s0-.09-.01-.15c.17-.27.48-.4.69-.63.04-.05.03-.16.04-.24-.1-.11-.17-.28-.4-.27-.17.14-.38.32-.6.49-.22.18-.42.36-.65.52-.05.03-.16-.02-.25-.04-.12-.16-.23-.32-.36-.5-.02-.03,0-.09,0-.15.24-.19.48-.4.73-.6,0-.14,0-.28,0-.43.11-.09.23-.2.35-.3.02-.02.01-.09,0-.13-.02-.08-.1-.14-.2-.11-.33.13-.33.14-.54-.11l-.1-.12c-.19-.22-.28-.25-.44-.12-.21.18-.43.35-.62.51,0,.16-.02.28-.02.36-.2-.03-.38-.05-.54-.08-.02-.17-.03-.31-.04-.44q-1.07-1.34-1.18-1.64c.06-.05.11-.11.17-.17.13.03.26.06.4.08l.27-.23-.5-.62c-.31-.08-.63-.15-.95-.23-.06.05-.12.1-.18.15v.4s-.19.15-.19.15c-.19-.05-.37-.09-.55-.14-.28-.31-.28-.31-.1-.56.02-.03.04-.07.02-.04.01-.25.02-.44.03-.58-.16-.2-.29-.36-.44-.55l-.32.1c-.44-.11-.89-.22-1.41-.35-.13-.16-.32-.4-.52-.65-.07-.09,0-.28.1-.33.12-.06.26.04.38.03.19,0,.28-.12.23-.35-.06-.08-.12-.16-.18-.24-.01-.14-.03-.27-.04-.4-.38-.09-.74-.18-1.1-.27-.04-.04-.08-.08-.11-.11l-.2-.25c-.2-.24-.28-.24-.48,0-.01.15-.02.28-.03.39-.14.1-.27.19-.37.26-.14-.03-.23-.06-.32-.08l-.49.29c-.4-.28-.59-.75-.94-1.04-.5-.12-.99-.25-1.51-.37,0-.18,0-.36.01-.57.1.02.22.04.35.06,0-.12,0-.26,0-.39.07-.08.23-.1.17-.29-.25-.17-.5-.15-.76-.24l-.59-.73c-.27-.07-.54-.15-.79-.22-.11-.14-.2-.26-.35-.28-.13-.02-.27-.06-.4-.1l-.19.15-.54-.13c0-.08-.04-.19,0-.23.1-.12.23-.2.33-.28.27.07.5.12.72.18.04-.01.08-.02.11-.04.18-.15.12-.47-.11-.54-.23-.07-.43-.16-.62-.39-.47-.11-.97-.22-1.46-.33-.05-.31.22-.32.35-.51.29.07.59.14.91.22.35.07.71.23,1.05.23.27-.16.12-.47.1-.77-.12.04-.23.08-.41.14-.09-.03-.27-.09-.5-.17-.13-.14-.31-.29-.58-.29-.12-.15-.26-.3-.37-.47-.04-.05,0-.15,0-.21.14.02.26.04.38.06.13-.17.4-.18.33-.49-.07-.09-.13-.17-.19-.24-.14-.04-.27-.08-.41-.12-.2-.24-.39-.49-.61-.76-.11.04-.22.07-.38.12-.07-.01-.2-.04-.34-.07-.06.05-.12.1-.18.14l-.4-.09-.18.16q0,.37-.16.34l-.2-.24-.39-.11-.03-.41c-.28-.2-.14-.45-.21-.61-.17-.21-.29-.37-.39-.49-.15-.08-.28-.02-.38-.19,0-.18,0-.36,0-.52.07-.07.12-.13.17-.18,0-.19,0-.38,0-.56-.07-.09-.14-.17-.2-.25-.24-.15-.33.22-.62,0-.05-.1-.11-.23-.17-.34.04-.06.07-.09.09-.12.16-.2.15-.29-.07-.33-.24-.04-.36-.34-.61-.37-.26-.03-.54-.13-.81-.19-.04,0-.09-.02-.13-.03-.07-.09-.14-.17-.2-.25.02-.08,0-.19.05-.24.09-.09.15-.18.1-.32-.14-.17-.27-.34-.37-.47-.35-.09-.66-.18-.97-.26-.07.06-.13.11-.19.16-.19-.05-.37-.09-.55-.14-.07-.08-.14-.15-.21-.24-.13-.03-.26-.06-.39-.11-.03-.01-.07-.08-.14-.09-.07.04-.12.03-.16.02-.03-.01-.08-.04-.08-.06-.04-.12,0-.16.08-.14.09.01.16.05.2.15,0,.02-.05.06-.04.03.13-.11.23-.18.32-.26,0-.14-.05-.33,0-.4.22-.24.23-.23-.02-.58-.12-.04-.26-.08-.39-.12-.02-.26-.03-.53-.05-.79-.14-.05-.25-.09-.37-.13,0-.22.02-.4-.18-.57-.26-.13-.52-.15-.79-.23l-.2-.25c-.01-.26-.02-.53-.04-.77-.21-.14-.26.02-.39.08-.15-.05-.33-.1-.53-.17-.14-.18-.34-.3-.57-.31-.07-.08-.14-.15-.21-.24-.01-.27-.03-.55-.04-.81-.21-.26-.4-.5-.62-.77-.11.03-.22.06-.33.1,0,.29,0,.57,0,.84-.06.05-.12.1-.21.17-.15-.11-.3-.22-.45-.33l-.68-.17-.19-.24c0-.14-.02-.28-.03-.42-.07-.08-.14-.16-.2-.23-.14-.04-.27-.09-.41-.13-.13-.16-.26-.32-.36-.45-.17-.06-.3-.1-.43-.15-.18-.28-.37-.53-.68-.54-.03,0-.08-.05-.11-.09-.15-.2-.29-.25-.44-.12-.09.07-.18.15-.25.21-.22-.05-.4-.09-.57-.14,0-.14-.02-.28-.03-.4-.21-.26-.41-.51-.6-.74-.37-.09-.73-.18-1.1-.27l-.21-.22c-.51-.18-.55-.17-.9-.02-.45-.12-.94-.25-1.44-.37-.07.05-.13.09-.19.13-.14-.03-.27-.05-.41-.08-.12.1-.24.2-.35.29-.07-.02-.12-.03-.16-.04-.27-.1-.44.19-.73.02-.03-.02-.08,0-.1.04-.12.15-.31.04-.49.01-.06.04-.13.09-.2.14-.12-.03-.26-.05-.4-.08-.06.05-.12.1-.18.15l-2.03-.51s-.08-.05.14.08c-.36-.25-.48-.34-.58-.41-.08.07-.14.12-.2.17l-.41-.09-.36.3c-.24-.11-.44-.09-.61.05L4.58.05c-.06.05-.13.1-.18.15-.14-.03-.27-.06-.43-.09-.08.29-.38.03-.61.1-.08.06-.2.16-.31.25-.12-.03-.21-.05-.3-.07-.19.06-.34.17-.43.36v.28s-.06.09-.06.09c-.16.21-.16.23.02.46.1.12.19.24.27.34-.08.41.2.65.46.9.09.02.18.04.28.07.2.16.33.39.5.58.21.23.35.51.61.68.1.02.19.05.29.07.12.15.25.32.38.48l.41.12c.13.16.26.32.4.5.35.09.72.17,1.07.26.02,0,.05.06.07.09,0,.18-.01.36.2.55.1.03.23.07.38.12.12.14.25.31.39.49,0,.12.02.26.03.4l.59.73c.14.04.27.08.39.11.27.34.54.67.78.98.01.16.03.3.04.45,1.45,1.81,2.89,3.61,4.32,5.39.04.16-.04.28.09.41l.68.17c.07.08.14.15.21.24,0,.13.02.27.03.42l.39.48c0,.14.02.28.03.4.87,1.08,1.72,2.15,2.57,3.21.28.09.54.09.82.26.11.15.24.32.33.45,0,.14,0,.23.01.35.18.23.38.47.6.75.09.03.23.07.37.12.06.07.13.15.2.23.02.27.03.54.05.81.14.05.28.09.37.12.35.44.68.85.99,1.24,0,.12,0,.21.01.34.25.36.53.72.83,1.03.13.03.22.05.35.09.17.22.37.46.56.7.23.29.46.57.69.86.2.23.35.52.61.68.1.02.19.05.29.07.13.16.26.32.39.48l.41.12.78.98c.14.04.27.08.38.11.14.18.27.34.39.49.02.16.03.3.04.42.34.43.67.83.97,1.21.03.53.05.57.42.69.15.05.25.14.33.24.28.06.54.12.75.17.2.24.33.41.45.56.14.04.27.08.38.11.29.19.14.44.26.65l.27.07c.36.29.55.75.93,1.02.09.02.18.04.29.07.65.81,1.3,1.63,1.96,2.44.14.04.27.08.42.13.78.97,1.57,1.96,2.36,2.94l.41.12c.2.24.39.49.58.73.14.04.27.08.41.12.33.41.66.82.97,1.2.16.05.29.09.4.13.34.43.67.83.95,1.18.2.07.33.12.43.16.21.27.46.5.37.83.13.04.25.08.39.12.05.07.12.15.18.22.14.04.27.08.41.12.46.57.92,1.15,1.37,1.71.14.04.27.08.41.12l1.77,2.21c.25.01.44.13.6.38.05.08.14.14.21.21.09.02.18.04.28.07.3.27.52.63.79.95.24.29.46.57.7.86.27.31.48.68.79.93.11.03.2.05.31.08.01.13.03.26.04.41.25.31.51.64.78.97.04.01.08.03.12.04.09.02.18.05.26.07.07.09.13.17.2.24,0,.1,0,.2.01.29,0,.04.02.09.03.14.26.3.26.29.44.2.22-.11.25-.1.44.13.09.12.18.24.26.35.04.53.05.55.58.71.12.15.25.31.4.5.01.25.03.53.05.8.07.09.13.17.19.24.14.04.28.08.42.13.13.16.26.32.38.47.24.06.47.12.75.19,0,.26.02.52.02.79l.39.49c.01.14.02.28.03.41.14.04.27.08.41.13.08.1.16.2.23.29.3-.12.33.02.36.15l-.1.16s.09,0,.14,0c.12-.03.14.02.18.06-.04.07-.09.14-.13.21.14.02.35-.18.49-.14.11.14.11.14.08.26l-.29.04s-.04.04-.05.06c-.01.02-.02.04-.01.05.03.04.06.08.1.12.09.09.11.2.26.27h.19s.05,0,.05,0c0,.24,0,.5,0,.75,0,.01-.03.04-.05.06l-.17.11s0,.07-.02.12c.1.02.23.05.37.08.05-.03.13-.07.21-.11.02,0,.06,0,.08,0,.09.07.08.17.25.22.12.04.07.14-.08.21-.23.02-.47.04-.7.05-.03,0-.06.03-.11.06l.48.2v.19s.43.56.43.56c.06.07.04.15-.05.22-.18.07-.4-.1-.56.12-.07.31-.03.62-.03.93,0,.36-.04.73.08,1.21.25.32.56.73.86,1.12-.17.12-.17.12-.29.13-.11,0-.22.03-.32.05-.07.36-.07.36.06.58.18.32.18.36,0,.65-.03.03-.06.08-.1.13,0,.4,0,.82.01,1.28.06.09.14.2.22.32,0,.09,0,.2.01.3.09.29.38.07.48.34,0,.22,0,.43,0,.64q-.27.24-.58-.13c-.15.19-.16.19-.09,1.45.06.07.11.15.18.23.11.55-.03,1.14.09,1.69.13.14.24.29.2.52.18.22.35.43.49.6.01,1.05.02,2.01.03,2.95l.25.36c0,.53.01,1.05.01,1.55.09.14.17.25.25.38-.05.31.03.63-.04.93l-.17.23s-.03.09-.03.14v1.27c0,.1-.02.19-.04.32-.21.28-.44.57-.65.86,0,.23,0,.44,0,.65.12.15.23.3.36.47.3,0,.62,0,.93,0,.03,0,.06.06.09.09.09.3.04.61.06.92.02.36-.02.73.04,1.09.03.04.06.08.09.11.09.08.12.15.07.22-.02.04-.06.09-.09.09-.16,0-.31,0-.45,0-.11-.12-.2-.22-.29-.34-.18.09-.4-.09-.55.18,0,.73.01,1.47.02,2.22l.48.67c-.1.32.18.42.2.6-.12.19-.21.35-.29.49-.35.02-.36.03-.37.46-.07.11-.15.22-.23.35,0,.09,0,.2,0,.31.07.14.18.14.3.18.1.03.19.16.32.29.11,0,.27,0,.43,0,.09.11.18.21.27.32.08.08.12.15.09.22-.04.11-.11.15-.2.11-.09-.03-.18,0-.19.12,0,.06.06.15.1.22.02.04.06.08.08.11,0,.05.02.1.02.15,0,.2-.06.34-.16.35-.07,0-.18.01-.22-.04-.24-.3-.46-.59-.69-.89-.03.03-.06.05-.08.09-.02.04-.04.09-.04.13,0,.11,0,.21,0,.32.02.42-.03.84.04,1.24.07.09.12.16.18.24.1.45-.03.93.09,1.37.07.09.12.16.19.25,0,.2,0,.41,0,.61l.25.35c0,.2,0,.41,0,.62.08.12.16.23.24.33,0,.44,0,.86.01,1.26-.09.13-.16.25-.24.37,0,.31,0,.63,0,.92-.23.32-.46.62-.69.93,0,.3,0,.62,0,.93l-.24.35c0,.1,0,.2,0,.31.08.12.16.23.24.34,0,.11,0,.22-.01.31-.08.12-.16.24-.24.38.04.14.07.28.11.41.1,0,.18,0,.27,0l.25-.31c.08,0,.16,0,.27,0,.04.13.07.27.1.39.17.22.34.44.47.6,0,.53,0,.95.01,1.38l-.33.45c-.32.04-.37,0-.38-.34,0-.11.01-.22,0-.32-.02-.09-.07-.17-.11-.26-.08,0-.16,0-.25,0-.1.14-.2.3-.33.48,0,.69.01,1.43.02,2.17-.08.12-.16.24-.24.36,0,.09,0,.2,0,.31l.24.34c0,.42,0,.84.01,1.26l-.24.36c.01,1.37.03,2.75.04,4.11-.15.2-.29.39-.42.58-.03.25-.06.51-.26.66,0,.2,0,.41,0,.65.06.09.14.2.22.32-.07.11-.15.22-.23.34,0,.1,0,.2,0,.3-.08.12-.16.24-.22.33,0,.23,0,.44,0,.62.09.14.17.25.22.33,0,.26,0,.46,0,.62-.09.16-.16.28-.22.37-.02.35.04.67-.05,1-.14.09-.21.27-.17.53.07.1.14.21.23.34,0,.4,0,.83.01,1.26-.07.11-.15.22-.23.34,0,.74.01,1.48.02,2.21l-.24.36c0,.31,0,.63,0,.91-.09.14-.16.26-.23.36,0,.5,0,.98.01,1.46,0,.05-.02.09-.03.14-.29.42-.29.45.03.9,0,.93.02,1.88.03,2.86-.06.09-.14.21-.22.33,0,.3,0,.62,0,.94.08.11.16.22.24.34,0,.42,0,.84.01,1.17.12.34.37.45.45.76l-.17.23c.09.29.3.44.44.67,0,.1,0,.2,0,.34-.1.13-.22.27-.37.46-.07.05-.26-.07-.31.2l.68.89s.02.1.02.15c-.02.18.05.31.17.35.11.03.23,0,.31.17,0,.1,0,.2,0,.31l-.23.34c0,.11,0,.21,0,.31.23.3.46.6.69.9.01.05.02.1.03.14q.06.35.38.4l.34.45-.23.34c0,.11,0,.21.01.3l.24.36c.01,1.16.02,2.32.03,3.34.23.36.41.65.58.91.27,0,.51,0,.74,0,.12.25.3.33.5.34.14.19.29.37.44.58l.48-.63c.08,0,.16,0,.24,0l.94,1.23c.05.06.28.02.32-.06.03-.09.06-.19.05-.28-.01-.26-.29-.34-.25-.66,0-.07-.07-.17-.12-.24-.11-.14-.23-.3-.34-.45.16-.2.16-.2.56-.14.16.17.29.3.4.42,0,.26,0,.46,0,.6.22.31.4.58.59.85.13-.17.24-.33.36-.48,0-.2,0-.41,0-.63-.07-.11-.15-.22-.23-.33l.33-.45c.08,0,.15-.02.24-.03.08-.1.16-.21.25-.32.23,0,.47,0,.72,0,.1-.14.22-.29.32-.46.04-.07.02-.2.03-.3-.12-.2-.24-.41-.42-.51-.32-.03-.63.06-.94-.03-.11-.15-.21-.3-.32-.44.04-.05.07-.12.1-.13.32,0,.63,0,.97-.01.07.08.15.19.24.29h.23c.09.11.18.21.26.31.08,0,.16-.01.24-.02.11-.15.22-.3.34-.46v-.31c.06-.06.11-.15.18-.17.07-.02.16,0,.22.05.12.13.22.29.33.44,0,.22,0,.43,0,.62.04.05.07.08.1.13.04.08.07.15.1.22-.06.08-.13.15-.17.23-.12.25,0,.52.23.52.12,0,.23,0,.34,0,.13-.17.24-.32.35-.47,0-.24,0-.25.09-.47.25-.02.52-.03.76-.05.08-.11.13-.21.2-.26.14-.12.33-.04.38.16.02.1,0,.26.03.29.24.21.22.53.22.84,0,.16.1.25.24.25l1.07-.02s.06-.07.08-.11c0-.03,0-.08-.02-.11-.05-.07-.11-.15-.19-.25,0-.18-.01-.39,0-.6,0-.06.09-.11.12-.14.13.14.25.28.36.41,0,.13,0,.24,0,.38l.31.13c.1-.12.18-.22.27-.33.08.1.17.2.25.3.07,0,.15,0,.22,0,.09.1.17.2.26.3.12-.16.23-.31.34-.46v-.31s-.24-.34-.24-.34c0-.16-.03-.33.11-.45.61,0,1.24-.01,1.88-.02.09-.11.18-.21.28-.34.18.26.37.53.56.8-.03.04-.08.14-.13.15-.15.04-.31.04-.46.06-.03,0-.06.07-.08.11v.32c.12.15.23.29.36.46.14,0,.3,0,.47,0,.16.21.33.43.5.65l.09.11c.09.13.02.47-.12.51-.11.03-.24,0-.31.15,0,.1,0,.2-.01.32-.07.11-.15.22-.23.34.11.15.23.29.36.47.45,0,.93-.01,1.4-.02.03,0,.06-.05.11-.1.02-.23.04-.48.06-.73.14-.19.29-.37.41-.57.04-.07.02-.2.03-.32-.07-.11-.15-.22-.23-.34,0-.09,0-.2-.01-.31l-.24-.33c.08-.11.16-.23.23-.34,0-.12,0-.22.01-.32l.17-.23c.05-.07.03-.15-.07-.23h-.47q-.18-.33,0-.64h.7q.23-.3.35-.17c0,.1,0,.2,0,.3.25.34.5.67.67.91.08.27.12.41.15.53.18,0,.34,0,.5,0,.09.11.18.21.25.31.17,0,.33,0,.48,0,.12-.16.23-.31.34-.47,0-.1,0-.2,0-.3-.2-.26-.4-.52-.62-.81-.07-.03-.21.06-.29-.1-.04-.08-.05-.19-.05-.29,0-.15.01-.31.03-.46,0-.04.05-.08.08-.11.11-.02.27.07.32-.12.04-.15-.12-.22-.18-.33,0-.1-.02-.2-.03-.33-.15-.21-.32-.44-.49-.67,0-.31,0-.63,0-.93-.09-.13-.17-.24-.24-.35.02-.43.02-.44.34-.45l.51.62c.14-.35.14-.36.04-.87l-.32-.11-.43-.56c-.08-.01-.15-.02-.25-.03-.08-.09-.17-.2-.25-.3-.18-.24-.19-.33,0-.65.08-.13.1-.26.11-.42,0-.07.08-.13.13-.2.06.07.11.14.17.22.08.09.27.1.32.02l.42-.57c.05.06.13.11.13.18.02.2.01.41.01.59.28.37.54.7.8,1.04.03.03.06.05.12.08.08-.04.19-.1.28-.14,0-.35,0-.67-.01-1.15-.12-.11-.32-.29-.42-.38-.08-.29-.11-.43-.15-.56-.18,0-.34,0-.52,0-.1-.15-.21-.3-.32-.47.04-.26.23-.13.35-.2.14-.19.28-.37.43-.59.08.09.16.17.27.29.08,0,.2,0,.31,0,.18,0,.17,0,.27-.37.02-.09.06-.19.11-.25.07-.09.11-.15.07-.24-.12-.13-.23-.27-.19-.55.06-.09.14-.21.23-.36-.12-.12-.24-.25-.4-.42,0,0-.08-.01-.16-.03-.24-.19-.4-.49-.61-.74.02-.32.21-.17.33-.23.1-.35.42-.21.58-.46,0-.2,0-.41,0-.7-.09-.1-.21-.23-.32-.38-.14-.2-.26-.38-.4-.57.03-.24-.09-.38-.21-.52-.01-.41-.21-.63-.44-.84-.08-.01-.15-.02-.12-.02-.28-.3-.49-.52-.68-.72.08-.27.21-.19.33-.21l.26.32h.83c0-.17,0-.33,0-.58ZM77.65,134.9s-.04-.08-.03-.1c.04-.12.09-.13.15-.06.06.07.09.14.06.25,0,.02-.07.01-.1,0,.32.2.26.29.25.28-.05-.04-.12-.08-.14-.14-.05-.13,0-.2.1-.13.05.03.08.12.11.18-.35-.21-.38-.24-.4-.28ZM47.08,36.76c-.15.11-.25.09-.41-.1l-.18-.23-.28.23c-.18-.05-.35-.09-.54-.14-.11-.24.05-.28.18-.35.21.1.44.01.64.26.03-.02.05-.07.08-.06.2.04.4.09.6.15.03,0,.06.07.09.11.3.02.3.13.29.13-.06,0-.14.01-.2-.02-.12-.07-.12-.15,0-.17.06,0,.13.04.2.08-.34.03-.4.08-.46.13ZM66.75,53.86c-.19-.07-.39-.13-.59-.2-.33-.36-.33-.4-.02-.6.16,0,.24.15.33.25.19.14.4.06.57.32.25-.03.25-.03.75.22-.05.31-.07.32-.42.19l-.33-.41-.29.22ZM68.93,54.68l-.08-.89c.38.17.56.5.73.83.02.04.01.1,0,.13-.05.06-.12.1-.18.14-.02.1.02.2.11.3l.25.31c.24.32.23.39-.08.51-.21-.09-.43-.17-.64-.26-.07-.09-.15-.19-.21-.27-.21-.15-.43-.1-.6-.36l-.3.19-.45-.15-.2.13-.59-.2c-.19-.15-.31-.31-.27-.52l.19-.12c.52.18,1.05.36,1.7.62.14-.08.37-.23.61-.38ZM73.73,56.45s0-.09-.01-.15c-.01-.03-.07-.1-.1-.12-.29-.15-.59-.3-.89-.45l-.28-.33c0-.09-.04-.23,0-.27.2-.12.37-.3.82.01.3-.1.69.09,1.12.39.05.06.09.12.15.18.04.06.12.15.11.17-.07.19.13.46.27.71-.03.22-.07.42-.18.57-.06.08-.11.22-.17.33l-.4-.63-.05-.02c-.14,0-.27.01-.42,0-.12-.01-.24-.12-.32-.26-.15.03-.21,0-.26-.03-.04-.02-.1-.07-.11-.09-.06-.14-.02-.17.09-.13.12.05.21.12.27.24,0,.02-.06.04-.1.04.22-.08.35-.12.45-.18ZM75.48,137.39c.07-.11.14-.22.22-.33l-.68-.89c-.05-.25-.07-.5,0-.75.17-.2.38-.04.55-.11.09-.11.18-.22.26-.31.09.01.16.02.24.03l.43.56c.25.07.32.12.52.36.09,0,.21,0,.33,0,.16,0,.26.07.27.21.01.16,0,.31-.1.42-.03.03-.06.07-.09.12.07.31.29.44.43.68,0,.3,0,.61,0,.95.19.25.38.52.59.76.05.05.15.03.24.04.08-.09.16-.2.26-.31.07,0,.15-.01.24-.02.26.37.54.75.81,1.13-.05.08-.13.19-.21.31v.62c-.11.15-.22.3-.34.47-.31,0-.62,0-.96,0-.16-.19-.33-.41-.49-.61-.09,0-.16,0-.24,0-.03.04-.08.08-.08.12,0,.32-.02.6-.03.94,0,.07-.09.12-.13.18-.23-.3-.45-.59-.69-.9-.14,0-.3,0-.47,0-.11-.14-.23-.28-.33-.43-.04-.07-.06-.2-.05-.29.01-.09.07-.16.11-.24.09.1.17.21.26.31.09,0,.16-.02.24-.03l.33-.45v-.31c-.09-.23-.28-.11-.4-.23-.09-.09-.16-.21-.28-.26-.37-.17-.38-.19-.52-.69-.01-.05-.02-.08-.04-.14-.05-.12-.21-.15-.15-.33.03-.09.11-.15.17-.24l-.22-.33ZM68.93,92.46c-.06-.07-.11-.15-.18-.24-.3-.1-.61,0-.92-.04-.07,0-.13-.1-.19-.15v-.63c.05-.12.11-.15.16-.09.09.09.14.25.28.25.04,0,.08,0,.13,0,.08-.1.16-.2.26-.31.07,0,.14,0,.21,0,.12-.1.12-.24.15-.4.02-.14.12-.25.22-.45.03-.11,0-.32,0-.53,0-.13-.09-.19-.26-.22l-.11-.02c-.12-.22-.28-.34-.48-.33-.12-.15-.24-.3-.35-.43,0-.23,0-.44,0-.65.15-.27.36-.12.57-.17.24.31.5.63.75.94.09-.11.17-.21.25-.31.31-.03.31-.03.34-.29.05-.41.16-.46.47-.2,0,.1,0,.21,0,.32.4.51.8,1.03,1.2,1.54l.02,1.58.24.36c0,.09,0,.19.02.31.08.11.16.22.24.33-.14.27-.36.11-.55.18-.28-.29-.51-.66-.77-.97h-1.19c-.17.21-.29.47-.5.62ZM69.87,75.97c.09,0,.16,0,.2-.11.03-.07,0-.15-.09-.22-.03-.03-.06-.07-.09-.11.01-.28-.17-.59.1-.81l.34.45v.3s.25.34.25.34v.62c.09.11.17.23.25.34,0,.11,0,.21,0,.31-.08.12-.16.24-.22.34,0,.12-.01.22-.02.32l-.33.45c-.08,0-.16,0-.29,0-.12.2-.26.44-.39.65-.35-.02-.35-.03-.39-.28-.05-.3-.05-.3-.28-.35-.04-.01-.07-.02-.09-.03-.12-.15-.24-.3-.35-.44,0-.33,0-.64,0-.95-.08-.11-.16-.23-.24-.33,0-.53-.01-1.06-.02-1.61.09-.05.2-.1.3-.15.31.4.72.65.7,1.29.27,0,.47-.02.67,0ZM69,70.59c.1.36.43.19.58.45,0,.1,0,.2,0,.34-.1.12-.22.26-.36.43-.15.03-.35.05-.43.35-.22,0-.41,0-.61,0q-.21,0-.27-.37s-.02-.09-.02-.07c-.13-.2-.24-.36-.34-.51-.09.08-.12.17-.13.27-.06.39-.06.39-.38.35-.19-.21-.04-.5-.17-.86-.14-.25-.45-.49-.64-.88.03-.05.06-.12.09-.12.63,0,1.27-.02,1.92-.02.16.2.33.41.5.62.09,0,.16.01.24.02ZM73.68,100.55c-.22.35-.52.1-.79.18-.26-.22-.46-.53-.66-.84.04-.25-.07-.39-.22-.55-.04-.44-.04-.89-.02-1.28.09-.18.19-.3.21-.43.02-.15.03-.3.13-.38.16,0,.32,0,.47,0,.2.2.09.49.13.76.06.09.14.21.23.34,0,.28,0,.59,0,.98.16.17.34.36.49.52,0,.29,0,.5,0,.71ZM46.95,30.89c.07.11.03.22-.09.32l-.27.22-.19.12c-.09-.02-.17-.04-.27-.06-.03,0-.05.02-.08.03l.02.69c-.06.11-.12.2-.27.18-.09-.01-.17-.07-.23-.17-.03-.04-.06-.08-.1-.12-.07-.08-.13-.15-.19-.22l-.4-.12c-.13-.16-.26-.32-.37-.46-.14-.05-.26-.09-.38-.13-.02-.31.24-.31.35-.47.13.03.26.05.4.08l.54-.44s.09.01.13.02l1.2.3c.07.08.15.15.2.23ZM73.22,78.32c-.08.12-.19.27-.29.42-.03,0-.07.03-.09.01l-.43-.55c-.08,0-.15-.02-.24-.03-.08-.09-.17-.19-.26-.31-.07,0-.14,0-.24,0-.1-.14-.2-.3-.34-.51-.06-.23.02-.54-.03-.82.1-.26.23-.42.39-.55.03.04.08.07.08.11,0,.32.02.6.03.94,0,.12.09.16.15.14.14-.19.28-.37.44-.59.13,0,.29-.02.44,0,.05,0,.09.11.14.17q-.21.3-.01.56c.08.11.17.22.27.35,0,.19,0,.4,0,.65ZM77.55,142.62l.34.44c0,.1.01.2.03.38.18.19.39.42.69.74.14,0,.4.02.65.03q.09.22.09.46s-.05.1-.08.11c-.23.02-.46.05-.73.07-.05.06-.14.16-.24.27-.25.05-.52.09-.78-.02-.02-.04-.06-.08-.07-.12,0-.1,0-.2,0-.3.08-.12.15-.24.22-.33,0-.24,0-.44,0-.64-.12-.16-.23-.31-.35-.46-.15,0-.31.02-.46,0-.09-.02-.13-.12-.1-.2.02-.04.05-.11.08-.11h.47s.25-.32.25-.32ZM50.41,37.64c-.02.06-.09.06-.2.01-.04-.02-.09-.02-.13-.03l-.4-.1c-.06.04-.12.1-.19.13-.11.05-.19-.04-.21-.23l.36-.3s.02-.09,0-.14c-.11-.3-.38-.48-.52-.73-.1-.05-.19-.1-.27-.13-.3-.1-.34-.14-.38-.5l.36-.3c.18.05.36.09.56.14.12.15.25.31.4.49,0,.11.02.25.03.4.12.15.25.31.38.48l.02.42c.08.12.24.22.2.38ZM44.39,27.32c.01.33.02.65.03.97-.44-.11-.87-.23-1.36-.35-.02-.02-.09-.1-.17-.19,0-.17-.02-.35-.03-.52.03-.2.21-.23.31-.35.34-.08.69.18,1,.16.09.12.16.2.22.27ZM75.52,92.52c.03.14.13.25.22.4,0,.16,0,.37,0,.66-.17.2-.37.44-.6.7-.07-.09-.18-.22-.29-.35-.02-.11-.05-.2-.05-.3v-1.27s0-.09.02-.15c.16-.24.38,0,.53-.13.14.12.13.28.16.43ZM77.89,134.05c-.14,0-.29,0-.44,0-.07.09-.12.18-.18.24-.1.1-.25.12-.31,0-.13-.23-.33-.23-.5-.32-.03-.01-.04-.07-.06-.11.27-.13.14-.57.33-.77.39,0,.78,0,1.21-.01.08.13.19.29.3.46-.05.2-.2.34-.36.5ZM38.01,23.75c-.08.06-.14.11-.19.16-.2-.03-.38-.18-.37-.36,0-.25-.14-.44-.22-.66-.01-.04,0-.08,0-.13.18-.15.36-.3.55-.45.38.16.55.53.77.83.01.2.02.38.03.56-.07.06-.13.11-.21.17-.11-.04-.24-.08-.36-.12ZM43.6,32.86s.06.07.1.1c.21.22.45.21.49-.01.02-.08-.02-.19,0-.28.04-.19.17-.25.37-.17.07.08.13.16.2.25-.06.44-.51.46-.67.78-.15-.02-.28-.04-.42-.06q-.33.15-.63-.17c-.18-.04-.35-.08-.54-.13-.11-.02-.18-.05-.21-.12-.04-.11,0-.17.09-.22.1-.06.19-.15.28-.22.31.08.62.16.94.24ZM78.93,136.88c-.08-.1-.17-.21-.25-.31h-.46q-.19-.29-.02-.63c.23,0,.46,0,.7,0,.08-.1.16-.21.25-.32.07,0,.15,0,.23,0,.11.08.14.21.14.37,0,.17.14.23.19.36.09.19.07.38-.07.53-.23,0-.47,0-.71,0ZM44.59,28.56c.18.03.33.09.44.06.11-.03.18-.15.36-.06.14.18.31.38.47.58q.17.21,0,.45s-.07.04-.11.03c-.54-.13-1.08-.27-1.69-.42.08-.4.42-.42.54-.65ZM69.57,94.58c0,.1,0,.21,0,.35-.09.04-.2.09-.42.19-.07.12-.21.36-.33.56-.15,0-.22,0-.31,0-.11-.15-.22-.3-.35-.46.07-.11.14-.22.22-.35,0-.13,0-.29,0-.44,0-.3.2-.45.39-.29.07.05.11.14.19.25.26.06.48-.11.61.19ZM75.65,142.95c.08,0,.16,0,.23.01.21.26.41.52.61.77-.07.06-.13.15-.19.15-.2.02-.39.01-.59.01-.18-.06-.25-.43-.5-.31-.15-.15-.31-.31-.41-.58.03-.11.07-.25.11-.37.18,0,.34,0,.5,0,.09.11.17.21.26.31ZM77.68,130.86l-.25.32h-.95s-.07-.06-.08-.1c-.03-.07,0-.15.1-.2.03-.02.08,0,.12,0,.19-.03.2-.03.22-.43.11-.21.23-.4.4-.53.04,0,.09-.02.12,0,.29.17.45.52.66.8-.08.2-.21.14-.33.15ZM80.27,126.7c.08,0,.16,0,.23,0,.2.2.07.63.34.76,0,.1.01.2.02.32.07.1.15.22.23.33-.06.15-.16.17-.28.17-.13,0-.17.19-.27.26-.15.11-.29.08-.39-.11,0-.11,0-.21,0-.3.08-.12.16-.24.23-.34,0-.11-.01-.22-.02-.32-.16-.23-.36-.4-.48-.72.03-.11.07-.25.11-.39.1.13.19.23.28.34ZM33.63,17.53q.34.15.38.5c-.06.05-.11.11-.17.15,0,.14,0,.28,0,.38-.14.12-.26.21-.37.31-.2-.05-.38-.09-.56-.14-.09-.27.27-.29.15-.58-.12-.15-.25-.31-.37-.47-.04-.14,0-.2.08-.17l.67.17.18-.15ZM42.18,29.33c-.16-.04-.33-.06-.51-.13-.07-.03-.17-.12-.21-.2-.04-.08-.04-.18-.05-.26l.18-.15c.1.02.18.04.28.07.04,0,.08,0,.15,0,.17-.14.35-.29.52-.43.19,0,.26.15.42.33,0,.13-.02.31-.03.49,0,.1-.14.21-.26.19-.09-.01-.18-.04-.27-.06-.07.04-.13.08-.22.14ZM69.23,83.45l.3-.43c.14-.04.17.16.26.21.13.08.3.02.41.22.07.12.15.23.21.31,0,.25,0,.45,0,.63-.09.2-.22.15-.33.16-.22-.12-.06-.51-.26-.63h-.24c-.11-.15-.23-.29-.35-.46ZM22.9,8.93c.14.18.27.34.4.5.03.16-.04.24-.13.32-.09.08-.03.25-.04.37,0,.02-.04.04-.07.04-.04,0-.1-.01-.12-.04l-.96-1.2s-.02-.09-.03-.2c.36.08.67.14.96.21ZM71.96,82.3h.23c.2.22.4.44.41.83,0,.04.05.08.08.11.08.08.11.15.08.22-.04.1-.11.12-.2.11-.11-.02-.23,0-.36,0-.1-.14-.2-.29-.36-.52.03-.28-.07-.55.12-.75ZM71.49,84.21c-.1-.14-.2-.29-.33-.47-.06-.25-.03-.56-.03-.86,0-.08.07-.17.1-.25.21.21.39.45.42.83,0,.08.12.13.15.22.03.08.05.19.04.28-.01.09-.07.16-.11.24-.08,0-.15,0-.25,0ZM30.2,17.29q0,.17-.37.09c-.12.1-.24.2-.38.31-.16-.05-.33-.11-.53-.18-.08-.18-.06-.37-.02-.56.09.02.19.07.27.06.11-.02.21-.11.32-.11.17,0,.35.05.48.07.11.15.17.23.23.31ZM74.51,89.08c0,.13.01.28.02.43,0,.37-.01.38-.35.39-.11-.14-.22-.29-.35-.45,0-.13-.01-.28-.02-.43,0-.37.01-.38.35-.39.11.14.22.29.34.45ZM78.8,123.56c.13.11.23.29.37.47-.11.06-.2.12-.29.16-.08-.07-.15-.12-.21-.19-.17-.22-.34-.44-.48-.63.04-.47.05-.53.35-.45.21.05.07.48.26.64ZM41.8,31.02c.18.17.34.34.44.56.05.19-.1.21-.17.29-.14,0-.24-.09-.34-.22-.1-.13-.24-.11-.37-.15-.03,0-.07-.05-.07-.08-.01-.18-.03-.36-.04-.54.21.05.38.09.55.14ZM30.47,19.52c-.28-.33-.28-.33.12-.37.04,0,.08-.02.11-.04.14-.13.28-.11.44.1.11.15.25.12.38.17.08.03.12.12.08.21-.03.07-.12.11-.18.16l-.95-.23ZM48.78,33.55c-.09-.11-.15-.19-.21-.27.05-.33.05-.33.38-.29l.58.72c-.02.33-.02.33-.35.32,0-.13-.01-.27-.02-.42-.13-.02-.26-.04-.36-.06ZM40.24,27.08c0-.07-.05-.19-.02-.22.17-.16.35-.3.53-.45.34.15.34.15.39.5l-.36.3c-.18-.04-.35-.09-.53-.13ZM71.62,59.1c-.03.05-.05.12-.08.16-.05.05-.11,0-.17-.11-.15-.25-.36-.39-.48-.74l.08-.36-.05-.11.16.07.54.7v.4ZM27.29,15.32c-.19.07-.39-.09-.57-.09-.08-.1-.14-.18-.2-.26-.03-.21.06-.33.24-.33.16,0,.34.07.51.1,0,.2.01.38.02.56ZM64.3,46.28c-.25-.07-.33-.35-.51-.52-.03-.12-.02-.2.05-.19.31.07.6.15.9.22-.06.28-.06.28-.44.49ZM28.23,14.81l.39.48q-.04.33-.37.3l-.39-.48q.04-.33.37-.3ZM23.37,8.34c.23-.08.45.09.64.07.12.15.29.28.18.45-.32-.08-.62-.15-.95-.23.05-.11.09-.22.12-.29ZM73.63,82.92c-.16-.22-.16-.29,0-.64.16.21.32.42.49.64.07.09.1.14.07.22-.05.1-.11.13-.2.1-.04-.01-.08,0-.11,0l-.24-.32ZM74.21,60.07s.03.11.06.22c-.03.16-.06.35-.12.67-.21-.39-.39-.72-.57-1.05-.01-.03-.01-.1,0-.14.04-.16.1-.22.19-.2.04,0,.08-.02.15-.03.08.15.19.35.29.53ZM79.65,122.14c.03-.29.2-.18.32-.2l.25.32c.16.22.16.3,0,.63l-.57-.75ZM75.68,134.21c0-.15,0-.31,0-.46-.01-.12,0-.2.07-.27.05-.05.1,0,.17.09.08.11.17.21.24.29,0,.14,0,.24,0,.35q-.24.22-.48,0ZM51.6,38.59v.4c0,.27-.06.31-.38.29-.06-.08-.13-.16-.25-.31.2-.23.29-.48.63-.38ZM62.49,46.83c-.11-.13-.2-.26-.3-.37-.08-.09-.12-.16-.11-.26.01-.07.07-.07.19-.03.13.04.26.06.37.08.09.11.15.19.22.27.02.28-.12.36-.36.31ZM67.35,148.11q-.17-.31-.01-.64h.23q.18.31.01.63h-.23ZM72.06,89.03c.12.11.23.27.34.4-.12.2-.26.24-.4.12-.13-.11-.23-.27-.34-.4.12-.2.26-.24.4-.12ZM78.58,124.81c.11.02.25-.08.3.11.04.16-.1.22-.16.32-.02.04-.05.07-.08.11l-.08.09c-.16-.32-.16-.32.01-.62ZM48.73,31.95c.08.12.25.23.19.37-.06.12-.21,0-.32-.01-.04,0-.09-.02-.13-.03l-.12-.04c.06-.32.06-.32.38-.28ZM68.41,56.1c0,.13-.02.26,0,.39.01.12,0,.18-.08.17-.11-.02-.19-.08-.26-.2-.03-.05-.07-.09-.11-.14-.03-.28.11-.36.45-.23ZM69.81,53.97c-.08-.06-.11-.15-.09-.26l.4-.25c.05.02.11.04.16.07.08.06.12.16.1.27l-.4.25c-.05-.02-.11-.04-.16-.07ZM65.12,77.75c-.02.18.08.41-.15.45l-.33-.43c.16-.23.31-.21.48-.02ZM67.98,53.24c-.21-.31.02-.3.1-.4.31.11.46.34.52.64-.21-.08-.42-.16-.62-.24ZM72.99,102.45c.01-.14-.06-.34.08-.41.12-.06.16.14.24.21.03.03.06.07.08.11l.06.11c-.24.21-.24.22-.47-.02ZM73.97,117.54c.08.11.15.23.24.33.08.08.11.14.07.22-.05.1-.11.13-.2.1-.04-.01-.08,0-.11,0-.17-.31-.17-.32,0-.65ZM59.93,104.56s-.02-.08,0-.11c.05-.16.31-.17.39-.01.01.03,0,.07,0,.11-.05.16-.31.17-.39.01ZM73.56,91.29c.04.11-.05.21-.2.21-.04,0-.08.01-.11,0-.03-.02-.06-.06-.08-.11-.03-.07,0-.15.09-.21.03-.02.08,0,.11,0,.09-.04.16,0,.2.11ZM63.95,53.11c-.16,0-.37-.28-.32-.41,0-.02.04-.05.07-.04.04,0,.1,0,.13.04.07.07.14.15.19.24.02.03,0,.09,0,.13-.02.02-.04.04-.07.04ZM26.13,8.55c-.27-.06-.4-.22-.4-.49.27.06.4.22.4.49ZM27.88,15.91c.02.28-.11.38-.37.3-.02-.28.11-.38.37-.3ZM75.23,112.61c-.04.11-.1.15-.15.11-.03-.03-.08-.09-.08-.1.04-.11.1-.15.15-.11.03.04.08.09.08.1ZM73.6,116.12c.04-.11.1-.15.15-.11.03.03.08.09.08.1-.04.11-.1.15-.15.11-.03-.04-.08-.09-.08-.1ZM60.13,91.64s.06.06.08.1c.03.07,0,.14-.08.21,0,0-.05-.06-.08-.1-.03-.07,0-.15.08-.21ZM70.6,68.6s-.08-.09-.08-.1c.04-.11.1-.15.15-.11.03.03.05.07.08.1-.05.11-.11.15-.16.11ZM65.1,67.06s-.08-.09-.08-.1c.04-.11.1-.15.15-.11.03.03.05.07.08.1-.05.11-.11.15-.16.11ZM67.02,64.55c-.08-.06-.11-.13-.08-.19.02-.04.07-.1.07-.1.08.06.11.13.08.19-.03.03-.07.1-.08.1ZM51.26,34.55s-.08-.01-.12-.03c-.07-.03-.09-.11-.07-.21,0-.01.08.02.12.03.06.04.09.11.06.21ZM69.72,59.3s.04-.1.07-.14c.05-.06.11-.04.15.07,0,.01-.05.09-.07.14-.05.06-.11.04-.16-.08ZM48.1,36.53s-.01-.09,0-.13c.01-.06.08-.07.19-.01.01,0,0,.08,0,.13-.02.06-.08.07-.19.01ZM35.97,21.27s-.12-.02-.12-.03c-.03-.12-.01-.18.05-.18.04,0,.08.02.13.03.02.12,0,.18-.06.18ZM68.19,52.22s-.09-.03-.14-.06c-.08-.06-.1-.13-.08-.23,0-.01.08.02.12.03.06.04.12.14.1.25ZM35.34,17.36c.1,0,.17.04.19.11.01.04.02.13,0,.13-.1,0-.17-.04-.19-.11,0-.04-.01-.13,0-.13ZM31.79,15.29s-.12-.02-.12-.03c-.03-.12-.01-.18.05-.18.04,0,.08.02.13.03.02.12,0,.18-.06.18ZM65.79,98.09s-.04.08-.08.1c-.05.04-.11,0-.15-.11,0-.01.05-.07.07-.1.05-.04.11,0,.16.11ZM61.01,54.16s-.01-.09,0-.13c.01-.06.08-.07.19-.01.01,0,0,.08,0,.13-.02.06-.08.07-.19.01ZM73.54,97.86s.06.06.08.1c.03.07,0,.14-.08.21,0,0-.05-.06-.08-.1-.03-.07,0-.15.08-.21Z"/>
        <path d="M78.71,162.62c.24,0,.47,0,.69,0,.1.12.19.22.25.29.27,0,.5,0,.69,0,.15-.18.26-.32.37-.45,0-.13,0-.23,0-.33.16-.24.35-.42.48-.74-.03-.11-.07-.25-.11-.38-.11,0-.18,0-.26,0l-.34-.45-.02-.15c-.04-.32-.07-.36-.28-.35-.12,0-.23.02-.31.02-.14.17-.26.32-.37.46,0,.33,0,.65,0,.97,0,.04-.05.08-.11.15-.25-.31-.48-.65-.75-.95-.23,0-.47,0-.69,0-.1-.12-.19-.22-.27-.31-.2.05-.41-.11-.56.16,0,.2,0,.42,0,.62.29.37.57.74.86,1.13.14,0,.3,0,.45,0l.27.32ZM80.23,161.81c-.16.23-.32.23-.48,0,.16-.23.32-.23.48,0Z"/>
        <path d="M81.04,109.86c.18,0,.34,0,.48,0,.13.11.09.28.13.42.04.14.14.24.23.37,0,.4,0,.82.01,1.25-.08.28-.37.06-.47.33,0,.11,0,.21,0,.31.08.12.16.23.24.34-.01.45-.01.45-.32.46-.08,0-.16,0-.3,0-.11-.2-.26-.45-.36-.63-.25,0-.41,0-.59,0-.04-.13-.07-.27-.11-.38.13-.31.32-.49.48-.73-.08-.11-.16-.23-.23-.33,0-.11,0-.21,0-.25.29-.42.56-.8.81-1.16Z"/>
        <path d="M78.35,164.09c0,.4,0,.81.01,1.22.08.12.16.23.24.33,0,.11,0,.22.01.32.15.25.36.09.55.14.15.13.29.28.37.51-.03.04-.06.11-.08.11-.39,0-.78.01-1.23.02-.16-.23-.34-.5-.57-.84-.05-.31,0-.72-.02-1.17-.06-.09-.13-.21-.22-.36,0-.16,0-.37,0-.61.08-.18.2-.35.34-.46.2.26.4.52.6.79Z"/>
        <path d="M76.54,154.55c-.12.25-.26.51-.57.52-.08,0-.15.16-.23.25-.08-.1-.13-.17-.21-.27-.07.09-.15.19-.23.26-.13.11-.37.03-.37-.15,0-.23-.07-.38-.19-.52-.1-.11-.03-.29-.09-.42-.06-.13-.17-.22-.21-.35-.04-.14,0-.3.11-.41.38,0,.77,0,1.17-.01.27.37.54.74.82,1.11Z"/>
        <path d="M75.85,68.6c.3.38.59.74.88,1.1-.15.27-.37.12-.61.18-.12-.22-.25-.48-.39-.74-.18.25-.29.4-.4.55,0,.1-.01.2-.02.32.16.22.32.44.49.67,0,.15.04.32-.09.43-.03-.01-.06-.01-.08-.04-.29-.37-.57-.74-.87-1.13-.16-.07-.35-.08-.49-.3-.09-.14-.31,0-.39-.23,0-.11,0-.21,0-.31q.11-.14.35.15c.15,0,.31,0,.48,0,.2-.11.04-.5.24-.63.32,0,.64,0,.92,0Z"/>
        <path d="M61.62,40.37c-.15.12-.3.25-.47.39-.16-.05-.34-.1-.54-.16-.01-.1-.03-.22-.05-.38-.17-.21-.36-.45-.58-.73-.09-.03-.22-.07-.4-.13-.06-.08-.16-.2-.25-.32-.17-.22-.18-.33-.03-.45l.09-.07.19-.13s.1,0,.13.04c.12.13.19.21.31.33.07.07.14.15.22.18.15.07.2-.08.32-.11.04.01.1,0,.13.03.15.17.27.3.46.51-.02.22-.04.49-.07.72.22.15.41.06.55.28Z"/>
        <path d="M68.71,48.46l.88,1.1c-.01.08,0,.2-.04.24-.14.14-.3.26-.48.4,0,.1-.02.23-.03.38q-.31.31-.55.29c-.07-.08-.13-.16-.19-.24,0-.19-.01-.38-.02-.59.11-.09.24-.18.34-.29.03-.03-.01-.14-.02-.22-.47-.12-.47-.13-.54-.54l.64-.53Z"/>
        <path d="M56.85,36.72l.19.24.4.11c.06.08.13.16.19.23.14.04.27.08.4.12.07.09.13.17.19.26.03.28-.21.32-.35.44-.04.03-.19,0-.23-.05-.21-.23-.39-.48-.57-.7-.34-.08-.65-.16-.96-.24l-.19.15c-.17-.04-.35-.09-.54-.14,0-.07-.05-.18-.01-.22.1-.12.23-.2.35-.29.25.11.45.1.6-.04l.54.13Z"/>
        <path d="M79.97,165.78c-.33-.43-.61-.79-.9-1.17.08-.28-.19-.37-.21-.53.11-.2.21-.37.29-.51.23.29.43.54.63.78,0,.12,0,.23,0,.33l.34.45c.08,0,.15.01.31.02.06.1.17.27.27.42.01.02,0,.08-.01.11-.02.04-.06.09-.09.09-.24,0-.47,0-.64.01Z"/>
        <path d="M68.81,48.38c-.5-.12-.81-.2-1.16-.28-.16.13-.34.28-.52.42-.03.02-.08,0-.15.01-.08-.08-.18-.18-.26-.27-.05-.32.22-.33.34-.49.12.02.24.04.4.07.16-.13.34-.28.51-.42.32,0,.63.13.93.19.03,0,.05.05.07.06.01.19.02.38.03.55-.1.08-.19.15-.19.15Z"/>
        <path d="M72.57,152.13c.15.18.24.28.31.38.09,0,.19-.03.23.02.29.36.57.71.83,1.04,0,.16,0,.26,0,.4-.1.05-.2.1-.28.14-.23-.17-.37-.43-.54-.63-.08,0-.15-.01-.24-.02-.08-.1-.17-.2-.26-.31-.06,0-.15.02-.22,0-.09-.04-.14-.16-.1-.19.2-.18.2-.51.25-.82Z"/>
        <path d="M77.65,77.81c-.08,0-.15,0-.25-.01-.26-.36-.53-.74-.8-1.12.02-.03.07-.12.13-.13.07-.02.17-.01.22.04.15.17.29.36.43.55.08,0,.15.02.26.03.23.3.48.63.72.94.1,0,.17.01.25.01l.34.44c-.09.22-.27.26-.37.12-.15-.21-.34-.2-.5-.33-.16-.14-.29-.36-.43-.54Z"/>
        <path d="M80.9,107.49c-.01.12.06.3-.08.4-.05.04-.11-.01-.17-.12-.02-.04-.06-.11-.08-.11-.32.03-.46-.29-.64-.59,0-.18,0-.39,0-.54-.09-.16-.21-.28-.22-.4,0-.24-.11-.37-.22-.52-.04-.06.01-.14.09-.2.16,0,.32,0,.47,0,.26.31.01.71.15,1.04.17.4.48.66.7,1.03Z"/>
        <path d="M70.44,160.62l.24.33v.94q-.22.24-.47,0c0-.42,0-.83-.01-1.25l-.24-.33v-.62q.23-.22.47,0v.94Z"/>
        <path d="M79.46,116.23c.16,0,.32,0,.46,0,.2.22.08.5.13.84.13.14.32.34.47.5,0,.19,0,.29,0,.39-.05.12-.12.16-.17.09-.34-.45-.68-.89-1.01-1.33-.04-.06-.04-.2-.02-.29.02-.08.09-.14.13-.2Z"/>
        <path d="M63.04,160.38l-.27-.32c-.16,0-.31,0-.46,0-.04-.05-.07-.08-.09-.12-.08-.2-.02-.48.13-.49.18-.01.29-.11.39-.28.03,0,.07-.02.08,0,.19.26.42.48.56.79q-.05.41-.35.42Z"/>
        <path d="M67.04,154.76c-.1.2-.26.25-.39.12-.21-.21-.4-.48-.57-.69,0-.16,0-.26,0-.36.07-.15.19-.21.3-.15.13.07.24.24.37.29.11.04.22.04.29.18v.61Z"/>
        <path d="M81.26,95.08v.32c-.11.15-.22.3-.34.47l-.33-.4c-.08-.31-.04-.63-.05-.94,0-.08.08-.15.12-.23l.6.78Z"/>
        <path d="M82.77,165.43c-.16,0-.31,0-.49,0-.07-.1-.14-.22-.2-.31-.13-.02-.27.06-.34-.11-.09-.2-.07-.4.08-.52.05-.05.15,0,.23-.01l.25.32h.47c.18.3.18.31.01.63Z"/>
        <path d="M82.12,134.62c.12,0,.24,0,.36,0,.11.14.23.28.33.45.04.07.02.2.03.3-.11.21-.24.39-.41.55-.11-.05-.21-.11-.3-.16,0-.4,0-.77-.01-1.14Z"/>
        <path d="M77.4,115.15c.06-.06.11-.15.17-.17.11-.04.22,0,.3.14.07.12.16.22.25.33,0,.1,0,.21,0,.34-.07.09-.15.19-.24.3-.17.22-.23.22-.47,0v-.93Z"/>
        <path d="M82.1,120.64c-.08,0-.15,0-.24,0l-.24-.32c-.16-.22-.16-.3,0-.63.15,0,.31,0,.49,0,.09.13.19.29.3.47-.03.21-.21.31-.31.49Z"/>
        <path d="M78.2,86.69c.08.07.13.15.09.21-.1.15-.22.27-.2.51,0,.07-.08.16-.12.23h-.23c-.08-.11-.16-.22-.25-.32-.1-.11-.13-.25-.11-.4.01-.08.08-.15.13-.23h.69Z"/>
        <path d="M63.36,156.06c-.08-.09-.16-.19-.24-.28,0-.13,0-.23,0-.33.16-.23.32-.23.48,0,0,.1,0,.21,0,.33.08.09.17.19.24.28,0,.18,0,.34,0,.49.01.12,0,.2-.07.27-.05.05-.1,0-.17-.09-.08-.11-.17-.21-.24-.29,0-.14,0-.24,0-.37Z"/>
        <path d="M79.32,91.94c.15-.29.36-.13.52-.2.21.09.3.33.45.49v.3c-.1.19-.25.25-.38.12-.21-.21-.39-.48-.58-.71Z"/>
        <path d="M80.87,114.62c.07.11.15.22.21.32.1,0,.18,0,.25,0,.14.15.16.33.08.53-.07.17-.21.09-.33.11-.07-.11-.15-.22-.21-.32-.1,0-.18,0-.25,0-.14-.15-.16-.33-.08-.53.07-.17.21-.09.33-.11Z"/>
        <path d="M82.81,156.7c0,.05,0,.1,0,.15.02.12,0,.2-.07.27-.1.09-.22.1-.31.01-.12-.12-.22-.28-.33-.43,0-.2-.01-.4,0-.61,0-.06.09-.11.14-.16.2.26.39.51.58.76Z"/>
        <path d="M73.65,159.17c-.11-.14-.22-.29-.35-.45.06-.1.13-.21.21-.34.08-.23-.12-.59.13-.79h.23q.18.36-.08.75c-.11.26.09.62-.14.84Z"/>
        <path d="M70.75,155.7c.08,0,.16,0,.25,0,.07.1.14.22.21.32.1,0,.18,0,.25,0,.18.21.18.42,0,.64-.08,0-.16,0-.25,0-.07-.1-.14-.22-.21-.32-.1,0-.18,0-.25,0-.18-.21-.18-.42,0-.64Z"/>
        <path d="M79.65,100.65h.36s.34.44.34.44c.04.48.01.52-.35.47l-.34-.44v-.48Z"/>
        <path d="M77.46,110.52c.1,0,.18,0,.27,0,.07.1.15.21.23.32.16.22.16.3,0,.64-.08-.12-.16-.23-.22-.33-.13,0-.25-.01-.36,0-.09.01-.15,0-.2-.1-.03-.07,0-.13.07-.22.08-.1.15-.22.22-.32Z"/>
        <path d="M67.58,160.96c.08.11.16.23.23.33.09,0,.17,0,.26,0,.07.1.15.22.24.32.08.08.11.14.07.22-.05.1-.11.12-.2.1-.11-.02-.23,0-.37,0-.09-.13-.21-.27-.3-.43-.04-.07-.05-.19-.04-.28.01-.09.07-.16.12-.26Z"/>
        <path d="M76.97,70.34c0,.31,0,.6,0,.92,0,.06-.09.11-.13.16l-.34-.44c0-.1,0-.2,0-.38.08-.09.19-.22.31-.36.05-.05.11-.01.16.1Z"/>
        <path d="M78.87,81.92h.23c.23.24.11.55.1.84-.08.18-.21.09-.31.12-.11-.1-.14-.23-.13-.4,0-.2-.04-.42.12-.56Z"/>
        <path d="M74.75,161.83c0,.2,0,.35,0,.5.01.12,0,.2-.08.27-.05.04-.1,0-.17-.1-.08-.11-.17-.21-.24-.29,0-.2,0-.35,0-.5-.01-.12,0-.2.08-.27.05-.04.1,0,.17.1.08.11.17.21.24.29Z"/>
        <path d="M75.15,66.7c.17.21.17.42,0,.64-.08,0-.15,0-.26,0-.06-.09-.14-.2-.22-.32-.16-.23-.16-.3,0-.65.08.12.16.23.23.33.09,0,.17,0,.25,0Z"/>
        <path d="M72.34,159.64v-.31c.25-.22.3-.22.47,0,.08.1.17.2.24.28,0,.14.01.25,0,.35,0,.04-.05.08-.08.11-.05.04-.1-.02-.17-.11-.05-.07-.12-.11-.18-.15-.03-.02-.08.02-.11,0-.06-.04-.12-.11-.18-.16Z"/>
        <path d="M71.62,159.17c0,.15,0,.31,0,.46.01.12,0,.2-.07.27-.06.05-.1.01-.17-.09-.08-.12-.17-.21-.24-.3,0-.13,0-.23,0-.33q.23-.23.48,0Z"/>
        <path d="M75.73,72.56c.17-.08.27-.13.34-.17.2.12.31.33.44.5-.01.14.05.31-.08.41-.05.04-.1,0-.16-.11-.05-.08-.1-.15-.16-.21-.11-.12-.23-.25-.38-.42Z"/>
        <path d="M74.74,160.59c.01-.14-.05-.32.07-.42.15-.11.32-.11.39.1.06.17.03.4.01.6,0,.06-.09.1-.14.15-.11-.15-.22-.29-.34-.44Z"/>
        <path d="M76.38,157.71c.18-.29.41-.14.63-.12.14.1.07.27.1.41-.06.06-.11.15-.17.17-.11.04-.22,0-.3-.14-.07-.12-.16-.22-.25-.33Z"/>
        <path d="M79.66,114.94c-.09,0-.16,0-.24,0-.17-.33-.17-.33.01-.63.12,0,.23.01.35,0,.09-.02.16,0,.2.11.03.07-.01.14-.08.22-.09.11-.16.21-.24.3Z"/>
        <path d="M82.53,114.92c.17.21.16.42.01.64-.09,0-.17,0-.26,0-.07-.1-.14-.22-.23-.32-.08-.09-.11-.15-.07-.22.05-.09.11-.11.2-.1.11.01.23,0,.35,0Z"/>
        <path d="M80.92,108.74c.02-.16-.08-.4.15-.43l.33.43c-.02.16.08.4-.15.43l-.33-.43Z"/>
        <path d="M71.55,163.64h-.23c-.18-.31-.18-.31-.01-.63h.23q.17.31.01.63Z"/>
        <path d="M83.25,153.36h.23q.18.31.01.63h-.23q-.18-.31-.01-.63Z"/>
        <path d="M82.76,143.66c.13-.07.23-.13.3-.17.23.08.3.35.5.5-.13.07-.23.13-.3.17-.23-.08-.3-.35-.5-.49Z"/>
        <path d="M72.8,70.22c-.17-.21-.16-.42,0-.65.09.12.16.24.25.33.08.08.11.14.07.22-.05.1-.11.13-.2.1-.04-.01-.08,0-.12,0Z"/>
        <path d="M71.68,153.46c.12.15.22.29.34.44-.03.3-.2.18-.33.2-.17-.21-.15-.42,0-.64Z"/>
        <path d="M76.81,165.49c-.18-.2-.18-.41,0-.65.08.11.15.23.23.33.07.09.11.15.08.22-.04.1-.11.13-.2.11-.04-.01-.08,0-.11,0Z"/>
        <path d="M75.92,97.51c.18.2.18.41,0,.65-.08-.11-.15-.23-.23-.33-.07-.09-.11-.15-.08-.22.04-.1.11-.13.2-.11.04.01.08,0,.11,0Z"/>
        <path d="M78.95,90.18c.16.14.12.35.13.55,0,.16-.01.3-.12.4-.16-.14-.12-.35-.13-.55,0-.16.01-.3.12-.4Z"/>
        <path d="M64.36,160.04c-.18-.3-.18-.3-.02-.63.08.1.16.2.24.3.07.08.11.15.09.22-.04.11-.11.14-.19.11-.04-.01-.08,0-.11,0Z"/>
        <path d="M74.87,73.84c-.18.25-.33.25-.49.02.01-.14-.05-.31.07-.42.05-.05.1,0,.16.1.08.11.17.2.25.3Z"/>
        <path d="M68.37,160.12s0,.08,0,.11c-.08.16-.34.16-.39,0,0-.03,0-.08,0-.11.02-.04.05-.09.08-.1.08-.01.15-.02.23,0,.03,0,.06.07.08.1Z"/>
        <path d="M71.13,157.29c-.15,0-.25-.1-.21-.21.04-.11.11-.14.2-.11.04.01.08-.02.11,0,.09.05.12.13.09.2-.02.04-.05.09-.08.11s-.08,0-.11,0Z"/>
        <path d="M82.64,114.13c.16-.23.32-.23.48,0-.16.23-.32.23-.48,0Z"/>
        <path d="M82.63,113.02c.03.12,0,.21-.08.26-.08.06-.16-.07-.16-.27,0-.05-.01-.11,0-.15.01-.04.05-.08.08-.11.05-.04.11,0,.15.12.02.04,0,.1,0,.15Z"/>
        <path d="M79.52,112.72c0,.2-.07.33-.15.27-.08-.05-.11-.14-.09-.26,0-.05-.01-.11,0-.15.04-.11.1-.16.15-.12.03.02.07.06.08.11.01.04,0,.1,0,.15Z"/>
        <path d="M79.14,109.55c-.17-.21-.18-.42,0-.64.17.21.18.42,0,.64Z"/>
        <path d="M74.08,70.73c-.05.16-.31.17-.39.01-.01-.03-.02-.08,0-.11.05-.16.31-.17.39-.01.01.03,0,.07,0,.11Z"/>
        <path d="M60,152.95c.17.21.18.42,0,.64-.17-.21-.18-.42,0-.64Z"/>
        <path d="M82.95,146.36c0,.2-.07.33-.15.27-.08-.05-.11-.14-.09-.26,0-.05-.01-.11,0-.15.04-.11.1-.16.15-.12.03.02.07.06.08.11.01.04,0,.1,0,.15Z"/>
        <path d="M83.14,141.92c.17.21.18.42,0,.64-.17-.21-.18-.42,0-.64Z"/>
        <path d="M66.88,156.69c.03.12,0,.21-.08.26-.08.05-.16-.07-.16-.27,0-.05-.01-.11,0-.15.01-.04.05-.08.08-.11.05-.04.11,0,.15.12.02.04,0,.1,0,.15Z"/>
        <path d="M69.51,156.82c.16-.23.32-.23.48,0-.16.23-.32.23-.48,0Z"/>
        <path d="M60.99,157.7c.16-.23.32-.23.48,0-.16.23-.32.23-.48,0Z"/>
        <path d="M75.74,157.19s-.08-.09-.08-.1c.04-.11.1-.15.15-.11.03.03.08.09.08.1-.04.11-.1.15-.15.11Z"/>
        <path d="M62.92,164.72s-.07.11-.08.1c-.08-.06-.11-.14-.08-.2.02-.04.07-.11.07-.1.08.06.11.13.08.21Z"/>
        <path d="M77.71,89.5s-.08-.09-.08-.1c.04-.11.1-.15.15-.11.03.03.08.09.08.1-.04.11-.1.15-.15.11Z"/>
        <path d="M70.74,162.9c-.03-.07,0-.15.08-.21,0,0,.06.06.08.1.03.07,0,.14-.08.21,0,0-.05-.06-.08-.1Z"/>
        <path d="M74.54,86.62c-.03-.07,0-.15.08-.21,0,0,.06.06.08.1.03.07,0,.14-.08.21,0,0-.05-.06-.08-.1Z"/>
        <path d="M83.73,161.35s.08.09.08.1c-.04.11-.1.15-.15.11-.03-.03-.08-.09-.08-.1.04-.11.1-.15.15-.11Z"/>
        <path d="M49.98,29.72s.01.11,0,.11c-.06,0-.14.01-.2-.02-.12-.07-.12-.15,0-.17.06,0,.13.04.2.08Z"/>
        <path d="M71.06,154.22c.03.07,0,.15-.08.21,0,0-.06-.06-.08-.1-.03-.07,0-.14.08-.21,0,0,.05.06.08.1Z"/>
        <path d="M69.13,46.72s.01.11,0,.11c-.06,0-.14.01-.2-.02-.12-.07-.12-.15,0-.17.06,0,.13.04.2.08Z"/>
        <path d="M61.9,40.39s.01.11,0,.11c-.06,0-.14.01-.2-.02-.12-.07-.12-.15,0-.17.06,0,.13.04.2.08Z"/>
        <path d="M75.66,74.06c.05-.04.11,0,.16.11,0,.01-.04.08-.08.1-.05.04-.11,0-.15-.11,0-.01.05-.07.07-.1Z"/>
        <path d="M76.77,137.21c.12.15.22.29.34.44-.03.3-.2.18-.33.2-.17-.21-.15-.42,0-.64Z"/>
        <path d="M70.01,90.58c0,.2-.07.33-.15.27-.08-.05-.11-.14-.09-.26,0-.05-.01-.11,0-.15.04-.11.1-.16.15-.12.03.02.07.06.08.11.01.04,0,.1,0,.15Z"/>
      </g>
    </g>
  </g>
</svg>