<?xml version="1.0" encoding="UTF-8"?>
<svg id="Layer_2" data-name="Layer 2" xmlns="http://www.w3.org/2000/svg" viewBox="0 0 61.11 64.44">
  <defs>
    <style>
      .cls-1 {
        fill: #633b0d;
      }
    </style>
  </defs>
  <g id="Layer_1-2" data-name="Layer 1">
    <g>
      <g>
        <g>
          <path class="cls-1" d="M31.99,48.23c-.34-.29-.75-.06-.94.27-.02.04-.05.07-.06.1-.12.25-.05.56.16.75.13.12.28.15.42.12,0,0,0,0,.01,0,0,.03,0,.05-.01.07-.03.09-.04.2-.04.3-.03.24-.05.49-.03.72,0,.08,0,.16,0,.23s.07.11.13.09c.2-.07.39-.17.61-.19.12-.01.23-.1.23-.23,0-.19-.19-.42-.26-.58-.09-.2-.18-.41-.29-.6.28-.27.41-.77.07-1.05Z"/>
          <path class="cls-1" d="M19.81,47.37s0-.03,0-.04c-.04-.17-.13-.32-.24-.45-.13-.32-.33-.65-.47-.94-.32-.66-.66-1.31-1.05-1.93-.58-.92-1.29-1.93-2.41-2.19-.95-.21-1.71.41-1.99,1.28-.17.52-.17,1.41.07,2.07.02.15.07.31.13.45,1,.32,2.03.54,3.04.82.99.26,1.95.6,2.92.92ZM15.24,45.54c.08,0,.15.02.22.03.65.11,1.46.32,2.12.22.05,0,.07-.11.02-.09-.01,0-.02,0-.03,0-.02-.01-.05.02-.04.04.03.09-.27-.13-.38-.18-.36-.15-.73-.29-1.1-.42-.05-.02-.11-.04-.17-.06.13.02.27.04.4.05.02,0,.04-.03.03-.04-.06-.11-.21-.13-.32-.19-.21-.12-.44-.21-.65-.3-.37-.17-.8-.36-1.22-.4,0-.02,0-.04-.01-.07-.02-.12-.03-.24-.04-.36.37.17.94.19,1.31.25.54.09,1.11.26,1.65.2.03,0,.06-.07.01-.07-.58,0-1.17-.29-1.72-.45-.41-.11-.83-.34-1.25-.26.01-.19.05-.37.13-.55.66.23,1.38.41,2.08.39.08,0,.14-.15.04-.17-.66-.17-1.37-.34-2.06-.34.11-.19.31-.46.55-.63.01-.01.03-.02.05-.02.55-.13,1.21.05,1.7.46.79.66,1.32,1.57,1.84,2.45.34.58.67,1.18.98,1.79h0s0,0-.01,0c-.06-.03-.12-.06-.18-.08-.04-.01-.07-.02-.11-.02-.32-.14-.68-.23-1-.33-.52-.16-1.04-.34-1.57-.49-.42-.13-.84-.23-1.26-.36Z"/>
          <path class="cls-1" d="M21.05,51.55s-.01-.01-.02-.02h0s0,0,0,0c-.04-.03-.08-.07-.12-.1-.23-.08-.46-.17-.68-.27-.41-.2-.82-.4-1.23-.6-.39-.16-.78-.31-1.17-.48-.53-.22-1.05-.48-1.58-.71-.09-.04-.18-.08-.27-.12-.27-.09-.55-.16-.81-.28-.03-.01-.06-.03-.09-.04.25.72.43,1.46.62,2.2.23.93.52,1.84.78,2.75.2.69.4,1.38.59,2.08.02.06.03.11.05.17.07.22.15.45.23.67.1.32.23.64.33.96.03.1.06.2.09.31.92.38,1.86.72,2.78,1.11.62.26,1.23.53,1.85.79,0-.01,0-.03,0-.04-.02-.65-.25-1.36-.36-2-.15-.91-.31-1.82-.45-2.74-.12-.79-.23-1.58-.36-2.37-.07-.38-.09-.78-.18-1.15.02-.04.02-.08,0-.11ZM20.86,51.73c.03.34.06.68.11,1.01.12.85.26,1.69.38,2.53.21,1.42.52,2.83.75,4.25-.06-.02-3.84-1.73-4.04-1.79-.03-.07-.05-.15-.07-.22.35.2.73.32,1.12.43.57.16,1.12.39,1.69.53.03,0,.06-.04.05-.06,0-.01,0-.02-.01-.03-.01-.04-.06,0-.06.03,0-.2-1.03-.65-1.29-.77-.54-.24-1.09-.46-1.66-.62-.08-.26-.16-.52-.25-.77.45.24,1.01.33,1.5.44.67.15,1.33.42,2.01.56.02,0,.04-.03.02-.04-.52-.23-1.06-.39-1.59-.58-.63-.24-1.3-.51-1.97-.62-.01,0-.03,0-.04,0-.2-.6-.38-1.21-.55-1.81.01,0,.02,0,.04,0,.35.06.69.18,1.04.27.74.19,1.51.56,2.29.56,0,0,.02-.02,0-.02-.67-.12-1.36-.48-2-.72-.47-.17-.98-.32-1.47-.42-.03-.09-.05-.17-.08-.26-.05-.19-.11-.37-.16-.56.16.06.33.09.49.14.27.08.55.13.82.23,0,0,.02-.01,0-.02-.43-.24-.91-.4-1.37-.57-.17-.6-.35-1.2-.52-1.79,1.02.38,2.08.67,3.11,1.03.02,0,.04-.03.02-.04-1.03-.43-2.07-.79-3.11-1.2-.03-.01-.05,0-.08.02-.14-.52-.28-1.08-.58-1.53.01,0,.03.02.04.02.21.12.44.22.66.31.55.22,1.08.48,1.62.71.55.23,1.09.48,1.66.69.27.1.53.22.79.34.17.07.51.16.68.31,0,0,0,.02,0,.03Z"/>
          <path class="cls-1" d="M14.24,43.92s-.1.09-.06.12c.33.28.86.3,1.27.42.48.14.98.25,1.48.32,0,0,.01-.01,0-.02-.9-.26-1.78-.63-2.69-.84Z"/>
          <path class="cls-1" d="M22.36,61.38c.05.02.1.04.16.06.35.12.71.24,1.06.36.8-.35,11.92-4.27,13.06-4.66.82-.28,1.64-.54,2.46-.81.68-.23,1.37-.42,2.02-.72,0-.15.01-.31.01-.46-.01,0-.03,0-.04,0,.07-.66-.02-1.34-.05-2.01-.04-.89-.04-1.79-.08-2.68-.04-.88-.04-1.78-.16-2.65-.09-.68-.21-1.39-.25-2.08-.02-.08-.03-.16-.05-.25h0c-.02-.06-.04-.12-.07-.17-.05-.11-.13-.21-.21-.31-.16-.16-.34-.29-.51-.44-.32-.26-.62-.55-.94-.82-.11-.09-.21-.19-.32-.29-.23-.23-.55-.58-.87-.76.07-.03.13-.05.2-.08.46-.17.91-.35,1.37-.53.17-.08.33-.15.5-.23.21-.1.47-.15.64-.32.04-.04.06-.1.06-.16,0-.01,0-.02,0-.04,0,0,0-.02,0-.02,0,0,0,0,0,0-.02-.18-.05-.36-.07-.53,0-.06-.02-.11-.03-.17,0-.03-.02-.07-.02-.09-.22-1.5-.86-2.86-1.61-4.16-.4-.7-.81-1.34-1.3-1.92-.08-.08-.16-.15-.24-.22-.39-.34-.83-.64-1.29-.89-.02,0-.04-.02-.06-.03-.43-.27-.88-.48-1.37-.58-.26-.08-.52-.15-.79-.2-.32.1-.65.19-.98.27-3.53,1.15-7.04,2.39-10.49,3.77-2.27.91-7.52,3.33-7.83,3.67-.2.21-.38.47-.54.73-.25.33-.46.74-.61,1.1-.15.33-.28.68-.34,1.04-.22,1.15.11,2.24.46,3.37,0,0,0,.02,0,.03,0,.01,0,.02,0,.03,0,.02-.01.04,0,.05,0,0,0,.01,0,.02-.01.03-.01.05.01.07.01.07.03.14.06.2.37,1.72,3.02,9.79,3.27,10.5,0,.01,0,.03.01.04.01,0,.03,0,.04.03.12.25.55,1.36.67,1.66,0,0,.05.14.09.21.14.05.28.11.41.18.33.17.65.32.99.47.58.25,1.16.51,1.75.75.61.23,1.21.46,1.82.68ZM40.14,45.55c.17.01.51,6.13.59,8.72-.12.03-.23.09-.34.14-.25.12-.52.23-.78.32-.02,0-.04.07,0,.07.2,0,.4-.02.59-.05-.27.08-.53.2-.76.27-.73.24-1.46.46-2.18.73-.72.27-1.44.53-2.15.8-.7.26-1.45.73-2.18.84-.02,0-.04.04,0,.04.57.02,1.26-.23,1.82-.37.48-.12.95-.25,1.43-.38-1.36.48-2.71.97-4.06,1.43-1.64.56-3.26,1.17-4.85,1.87-.8.35-1.6.72-2.41,1.07-.29.13-.58.27-.87.4-.29-2.24-.84-4.45-1.15-6.7,0,0,0-.02,0-.02,0,0,0-.01,0-.02-.03-.88-.25-1.75-.32-2.63-.02-.29-.09-.57-.14-.85-.03-.17-.15-.47-.2-.71.08-.02.15-.05.23-.08,1.04-.34,2.1-.64,3.15-.95.84-.25,1.67-.49,2.51-.74.05.22.38,1.11.46,1.37-.96.16-3.84,1.13-4.35,1.26-.23.06-.56.07-.75.24,0,0,.12.75.29,1.77.02.22.04.45.06.68.1.87.21,1.73.39,2.59.08.42.2.83.3,1.24.1.41.16.84.29,1.25.04.23.07.36.08.36.43-.06,2.75-1.04,3.48-1.27,1.39-.43,2.8-.81,4.19-1.25,1.39-.45,2.77-.95,4.16-1.4.63-.2,2.19-.75,2.34-.81.13-.06.26-.12.4-.19.02-.24.02-.49.01-.73,0-.04-.01-.07-.02-.11,0-.14,0-.29,0-.43-.05-.75-.18-1.51-.28-2.25.13-.24.11-.53-.04-.75.22-.03.42-.13.53-.3.28-.33.4-.9.12-1.24-.14-.16-.3-.24-.47-.26.4-.34.28-1.05-.16-1.3-.16-.09-.32-.11-.47-.09.28-.25.46-.63.29-.98-.04-.09-.11-.16-.18-.21.82-.22,1.43-.37,1.43-.37ZM21.76,48.66s.04,0,.06,0c0,.02,0,.04,0,.06.02.06,0,.12-.02.18-.02.07-.07.12-.12.17-.05.05-.07.11-.13.13-.04.02-.08.06-.1.11-.03-.02-.06-.03-.09-.05.06-.04.11-.09.16-.14.13-.12.25-.27.24-.46,0,0,0-.01,0-.02ZM21.65,48.67c-.07.1-.09.21-.15.3-.06.08-.14.2-.24.26-.49-.25-.99-.5-1.5-.71-.49-.2-.97-.4-1.46-.58-.04-.01-.08-.03-.12-.04.58.12,1.16.24,1.74.39.55.15,1.16.27,1.75.36,0,0-.02.01-.03.02ZM19.15,48.57c.27.13.54.24.82.36.67.33,1.38.73,2.09.85,0,0,.01,0,.02,0,0,0,.01,0,.02,0,.28.12.67-.12.95-.2.43-.13.86-.27,1.29-.41.58-.17,1.17-.35,1.74-.54.93-.3,1.9-.5,2.84-.78.51-.15,1.01-.3,1.52-.42.21-.05.51-.1.68-.23.02-.01.04-.04.06-.07.22.14.56.11.79-.02.12-.06.19-.16.24-.26.26.3.7.3,1,.01,0,0,.01-.01.02-.02,0,.04.02.09.03.13-4.51,1.22-9.6,2.61-10.15,2.83-.34.14-.67.29-1,.42-.13-.1-.32-.16-.48-.2-.05-.01-.11-.02-.16-.03-.04-.02-.07-.04-.11-.06-.31-.17-.67-.28-1-.41-.82-.33-1.63-.71-2.44-1.07-.77-.34-1.55-.68-2.34-.98-.33-.13-.68-.26-1.03-.38.17.03.35.06.52.1.65.15,1.29.31,1.94.45.7.32,1.43.6,2.12.92ZM23.66,48.87c.26-.06.48-.03.7.02-.38.11-.76.22-1.14.33-.13.04-.28.1-.43.16.23-.29.48-.44.87-.52ZM23.55,48.29c.49-.21.99-.42,1.48-.62-.18.34-.45.54-.83.67-.12.04-.26.03-.38.03-.03,0-.16-.04-.27-.08ZM28.98,46.95c.1,0,.19,0,.28-.02.14-.03.26-.13.36-.25-.01.07-.01.15,0,.23.03.14.1.25.19.33-.4.09-.79.2-1.18.32-.07-.05-.14-.08-.22-.11.26-.13.47-.3.56-.5ZM28.63,46.26c.3-.12.59-.23.89-.35.07.13.11.25.08.4-.04.21-.22.37-.42.41-.05.01-.1.01-.15,0-.01-.05-.08-.06-.12-.03h0c-.2-.07-.37-.25-.28-.44ZM28.56,46.68s.02.03.03.04c-.44.45-1.86,1.01-2.32.47.51-.2,1.02-.4,1.54-.6.25-.1.51-.2.77-.3-.06.12-.06.25,0,.39ZM30.91,46.79c-.05.21-.22.35-.43.4-.23.05-.53-.07-.65-.26,0,0,0,0,0,0-.07-.1-.09-.21-.07-.31.02,0,.05-.03.06-.06.07-.14.15-.29.31-.33.15-.04.3-.03.45,0,0,0,0,0,0,0,.02,0,.04,0,.05.01.18.06.25.18.25.31.03.07.05.15.03.24ZM30.38,56.33c.76-.13,1.48-.41,2.2-.66.88-.29,1.75-.57,2.64-.82.77-.22,1.52-.5,2.29-.71.35-.09.69-.21,1.02-.34.16-.06.3-.09.44-.14.03.29.06.58.09.87-.18.07-.36.14-.54.21-.56.2-1.13.39-1.7.59-1.26.43-2.51.84-3.76,1.29-2.48.9-5.1,1.38-7.54,2.41-.15.06-.33.12-.47.21-.02,0-.04.01-.06.01-.1-.67-.19-1.34-.29-2.01.43-.08.87-.26,1.27-.4.74-.27,1.46-.58,2.19-.88,1.39-.57,2.8-1.08,4.2-1.63.08-.03.11-.19.02-.19.63-.18,1.28-.32,1.89-.48.94-.25,1.91-.53,2.81-.9.12.22.32.33.59.16.06.02.12.04.18.05.04.01.07.02.11.02.35.05.69-.08.91-.34.02.26.05.51.07.77-1.27.34-2.5.76-3.74,1.17-.75.24-1.49.5-2.23.77-.85.32-1.71.72-2.6.92-.02,0-.03.04,0,.04ZM33.9,52.71c-1.86.55-3.72,1.11-5.55,1.74-.84.29-1.69.58-2.55.8-.33.09-.71.22-1.01.38-.09.05-.19.09-.28.13-.05-.36-.11-.72-.16-1.08-.05-.34-.1-.68-.15-1.02.21-.1.49-.14.69-.21.34-.12.69-.29,1.03-.43.66-.29,1.32-.57,2-.81.01,0,.02-.03,0-.03-.74.18-1.46.43-2.18.67-.44.15-1.17.24-1.57.55-.02-.17-.05-.34-.07-.51,0-.02,0-.05-.01-.07.52-.1,1.03-.37,1.51-.56.58-.22,1.16-.44,1.75-.62.02,0,.03-.05,0-.04-.54.07-1.06.18-1.58.35-.57.18-1.2.35-1.74.63-.02-.08-.03-.16-.05-.24-.02-.11-.04-.21-.06-.31,0-.06-.02-.12-.03-.18.01-.08,0-.11-.04-.11,0,0,0-.01.01-.02.02-.03.02-.07,0-.1.41-.09.82-.2,1.23-.33,1.15-.35,2.29-.78,3.44-1.11.02.06.04.12.06.18.1.33.21.64.31.97.04.13.13.61.27.67.24.11.76-.13,1.01-.21.74-.21,1.49-.39,2.23-.62.68-.21,1.37-.41,2.06-.61.05-.01.1-.03.15-.04.1-.02.3-.04.48-.1,0,.12,0,.22.03.29.04.14.11.25.2.35-.32.07-.64.11-.96.18-.41.1-.82.23-1.23.35-.98.3-1.96.6-2.92.97-.07.03-.09.17,0,.14.92-.25,1.83-.59,2.74-.89.46-.15.92-.31,1.39-.46.34-.1.68-.15,1.02-.25.13.12.29.2.45.21,0,.17.04.35.09.49.16.46.6.6,1.02.5.01.08.03.16.05.25-.87.19-1.72.43-2.56.74-.94.34-1.95.55-2.83,1.05,0,0-.01.02-.01.03-1.16.37-2.31.79-3.45,1.23-.67.26-1.33.54-1.99.81-.32.13-.64.27-.96.41-.17.08-.34.15-.51.22-.05-.35-.1-.7-.15-1.06.16-.07.38-.08.53-.13.36-.13.7-.24,1.08-.34.81-.22,1.62-.51,2.41-.8,1.78-.64,3.56-1.29,5.35-1.89.07-.02.09-.16,0-.13ZM34.78,50.21s.03-.06.03-.09c0,0,0,0,0,0,0-.08-.02-.17-.03-.25,0-.02.02-.05.02-.07.03.18.05.38.01.4h0s-.02,0-.04.01ZM35.21,46.84c.55-.14,1.28-.33,2.02-.53-.29.34-.32.95-.11,1.29-.36.1-.72.2-1.09.27-.14.04-.27.07-.41.12-.02,0-.06.02-.1.03.1-.12.17-.26.19-.41.07-.43-.18-.69-.5-.76ZM37.26,51.8c-.06.03-.13.06-.2.07-.12,0-.24-.02-.36-.05-.01,0-.02,0-.04-.02-.11-.07-.19-.18-.22-.32,0,0,0,0,0,0-.09-.24-.04-.55.13-.73.21-.23.61-.12.83.03.07.04.12.12.16.2.02,0,.03,0,.04.03.05.12.05.25.02.36-.15.11-.28.26-.36.42ZM36.48,49.84s.03,0,.04,0c.11.1.17.24.12.41-.09.29-.49.44-.78.38-.21-.14-.34-.43-.37-.7.09-.16.26-.25.47-.28.15-.02.35.03.5.13,0,0-.02,0-.03,0,.03.01.05.04.06.06ZM36.77,50.41s.01-.02.02-.03c.13-.21.11-.43,0-.6.23-.05.46-.11.68-.17.09-.03.19-.05.28-.08,0,.08.04.16.1.25.06.08.15.04.21-.03.02.11.06.21.12.29-.27.09-.47.33-.53.63-.03-.04-.07-.08-.11-.11-.22-.19-.53-.22-.79-.14ZM37.8,49.29c-.06.03-.12.05-.18.07-.3.1-.61.22-.91.32-.14-.17-.36-.28-.59-.29.33-.28.42-.79.17-1.14-.04-.06-.08-.1-.13-.14.21-.06.42-.12.62-.17.18-.05.36-.1.54-.15.04.02.09.04.14.04-.02.17-.01.34.01.5.06.42.24.49.55.52-.07.15-.17.29-.23.44ZM35.73,48.22s.07,0,.11.01c.49.1.5.66.21.98-.28.31-.79.21-.95-.15-.02-.11-.04-.22-.07-.33,0-.12.02-.24.07-.34.06-.03.12-.07.18-.1.14-.02.29-.05.44-.08ZM35.29,49.67s-.04-.1-.05-.15c.04.02.08.03.12.04-.03.03-.05.07-.07.1ZM38.28,52.71s-.08.02-.13.03c-.09.01-.18,0-.27,0-.01,0-.03-.01-.04-.02,0-.05-.01-.09-.07-.1-.04-.01-.09-.02-.13-.03-.05-.05-.08-.1-.11-.16-.02-.05-.03-.11-.04-.17,0-.02,0-.04,0-.06,0-.15.04-.29.12-.41,0,0,0,0,0,0,0-.01,0-.02,0-.04.06-.1.14-.17.23-.23,0,0,.02-.01.03-.02,0,0,0,0,0,0,.34-.2.8-.13.96.3,0,.02.02.05.02.07.15.43-.19.79-.59.85ZM38.63,51.23s0,0,0,0c-.17.08-.39.07-.55-.06,0,0,0,0-.01,0-.01,0-.03-.02-.04-.02,0,0,0,.02,0,.03-.05-.04-.09-.09-.12-.15-.05-.07-.08-.15-.09-.24.01-.04.03-.08.05-.11,0-.02,0-.04.01-.06.07-.23.28-.43.54-.36.02,0,.03.02.03.04.23-.01.47.15.51.39.04.27-.12.47-.33.55ZM38.46,49.84s.02.04.03.05c-.04-.03-.07-.07-.1-.1-.09-.11-.11-.23-.08-.35,0,.02,0,.03.01.05,0-.24.18-.43.37-.56.03-.02.07-.04.1-.06,0,0,0,0,0,0,.02,0,.03,0,.05-.02.16-.08.35-.13.47,0,.31.1.41.45.33.74h0c-.02.09-.06.18-.14.25-.03.03-.06.05-.1.08-.04.04-.08.07-.12.09-.04.01-.09.02-.13.02-.23.06-.5,0-.67-.19ZM38.4,48.9c.03-.06.05-.12.07-.18,0,0,.02,0,.02,0,0,.02,0,.05,0,.08-.04.03-.07.07-.1.1ZM38.51,48.57c0-.07-.04-.15-.11-.17-.08,0-.16.01-.24.02-.15-.14-.18-.35-.13-.55,0-.03,0-.05,0-.08.01-.01.02-.03.03-.04,0,0,0-.01,0-.02.13-.28.59-.51.84-.28.12.05.21.15.27.26,0,0,.01.01.02.02.24.5-.22.89-.68.84ZM38.27,47.1c-.32.16-.65,0-.74-.34-.03-.11-.02-.22.01-.33.02,0,.04-.01.05-.03.06-.12.18-.22.3-.27.06-.02.12-.04.18-.04.05-.01.1-.03.15-.04.14,0,.28.07.4.21.25.3-.09.71-.36.84ZM37.83,45.75c-.14.04-.29.08-.45.12-.19-.04-.3-.21-.32-.4,0-.03,0-.06,0-.1.08-.18.21-.3.42-.38.2-.06.65-.07.67.21.02.2-.13.41-.31.54ZM37.03,44.9c-.14.24-.45.3-.7.21,0,0,0-.02-.01-.03-.06-.05-.11-.09-.18-.13-.12-.08-.12-.25-.1-.38,0,0,0-.02,0-.03.15-.29.43-.42.76-.35.38.08.4.42.23.71ZM36.56,43.66c-.12.36-.56.55-.92.52-.11,0-.19-.05-.25-.11,0-.02,0-.04,0-.06,0-.05-.04-.06-.07-.05-.02-.04-.03-.09-.04-.15,0,0,.01-.01.02-.02.08-.12.16-.24.26-.32.16-.06.32-.13.49-.19.23,0,.63.04.52.37ZM35.59,45.29c.04-.07.09-.11.14-.17.04-.05.08-.1.13-.14.14.16.29.28.5.34.04.01.05.09,0,.1-.3.1-.61.16-.91.24,0,0,0,0,0,0,0-.03.02-.08.03-.1.04-.09.06-.19.11-.28ZM35.56,45.9c.42-.13.97-.2,1.34-.46,0,.02,0,.04,0,.06,0,.02.01.03.03.04,0,.09,0,.16.03.22.02.08.06.14.12.19-.71.19-1.49.4-2.32.62.02-.17-.02-.32-.12-.44.31-.05.62-.14.92-.24ZM35.49,47.37c.11.24-.01.46-.21.61-.1.12-.24.19-.41.2-.21,0-.45-.1-.54-.3-.16-.36.1-.7.42-.79h0c.28-.08.62,0,.74.28ZM34.58,46.8c-.07.28-.34.46-.62.46-.23,0-.42-.12-.5-.33,0,0,0,0,0,0-.04-.08-.06-.17-.07-.26.05-.08.09-.18.11-.27.08-.12.18-.21.4-.23.09,0,.18,0,.26,0,.01-.01.03-.02.06-.01.05.02.1.05.15.08.07.04.13.09.16.16.08.11.11.24.07.39ZM33.7,47.72c-.11.04-.23.06-.32.1-.04,0-.08.01-.09.02-.03,0-.06.03-.08.06-.12.04-.24.08-.33.19-.03.04-.06.12,0,.15.27.08.58-.06.87-.09.02,0,.03.01.05.02-.2.05-.39.17-.58.23-.03.01-.05.08,0,.07.13,0,.26-.02.4-.04-.01,0-.03,0-.04.01-.31.09-.59.29-.87.43-.05.02-.06.13,0,.12.28.04.56-.06.84-.07.22,0,.44-.04.6-.16.05.11.1.22.15.33,0,0,0,0,0,.01-.51.14-1.01.39-1.49.61-.01,0-.03.04,0,.04.45-.09.9-.13,1.36-.18.07,0,.16-.03.24-.06.01.05.03.1.04.16-.15.06-.29.14-.43.21-.13.06-.26.13-.39.18-.07.03-.2.1-.24.16,0-.01,0-.03-.01-.03-.04,0-.05.02-.07.05,0,.02,0,.05.02.05.22.02.45,0,.66-.05.22-.04.41-.05.58-.16.01.05.03.1.05.15,0,.01,0,.02.02.03-.16.05-.33.1-.49.15-.06.02-.13.03-.19.04-.58.16-1.17.3-1.75.46-.53.15-1.05.32-1.59.42-.22.05-.43.13-.65.18-.36.08-.48.12-.58-.24-.16-.56-.32-1.11-.5-1.66-.1-.31-.19-.69-.35-.99,1.16-.33,2.33-.66,3.5-.97.04-.01.09-.02.13-.03-.04.02-.08.04-.11.06-.06.03-.1.2,0,.18.29-.04.57-.02.85-.06.25-.03.53-.08.79-.08ZM33.28,46.34c-.02.07-.04.13-.05.2-.02.04-.04.07-.07.11-.18.21-.46.22-.68.09-.17-.09-.21-.27-.18-.45,0,0,.01-.01.02-.02.19-.23.32-.35.63-.3.21.04.33.18.33.35ZM32.26,45.45s0,.02,0,.03c-.22.02-.44.07-.67.06-.17,0-.68.04-.84-.15.57-.23,1.13-.46,1.7-.69-.29.25-.46.56-.2.75ZM32.13,46.68c-.01.11-.08.21-.19.28-.22.15-.59.15-.76-.07-.06-.08-.09-.16-.09-.25,0-.04.02-.09.02-.13.02-.06.04-.12.08-.18,0,0,.02,0,.03-.02.23-.22.47-.23.74-.07.09.05.13.17.16.27h0c0,.06,0,.12.01.17ZM23.74,51.66c-.06.07-.09.18-.09.3-.03-.16-.05-.27-.03-.27.04,0,.08-.02.12-.03ZM38.21,43.92c.5.45,1,.9,1.52,1.33-.39.1-.93.25-1.58.42.04-.05.08-.11.11-.18,0,0,0-.02,0-.04.04-.12.06-.24,0-.36-.02-.04.02-.08.06-.08.07,0,.14-.01.21-.04-.03-.03-.07-.06-.11-.1-.26-.27-.54-.54-.78-.83-.18-.2-.6-.82-.93-1.01.13-.05.27-.1.4-.15.09.14.24.23.35.34.25.24.51.46.77.69ZM40,40.63s0,.02,0,.03c.03.16.12.39.08.55,0,.01,0,.02-.01.03-.02-.2-.04-.41-.07-.61ZM23.16,36.5c2.21-.87,4.44-1.69,6.69-2.44.65-.22,1.3-.43,1.95-.64,0,0,0,0,0,0-.14.07-.28.14-.41.2-.56.24-1.11.47-1.67.7-.6.25-1.19.53-1.78.81-.49.23-1.09.64-1.64.7-.04,0-.07.09-.02.09.42,0,.88-.24,1.27-.39.65-.26,1.32-.5,1.98-.73.56-.2,1.13-.39,1.69-.59.4-.14.86-.28,1.26-.48.08.04.15.09.22.14-.36.16-.73.31-1.1.46-.95.4-1.88.85-2.82,1.27-1.93.84-3.82,1.88-5.8,2.61,0,0-.01.03,0,.02,1.88-.53,3.66-1.43,5.47-2.15.96-.38,1.91-.79,2.87-1.18.59-.25,1.18-.48,1.74-.77.12.09.23.17.34.26.06.04.12.09.17.14-.2.08-.4.17-.6.26-.44.18-.88.5-1.36.56-.03,0-.06.07-.01.07.41,0,.84-.2,1.21-.35.32-.13.69-.18,1-.34.39.35.75.72,1.1,1.11-.2.08-.41.17-.6.28-.29.15-.6.28-.9.42-.24.11-.47.31-.73.38-.02,0-.03.05,0,.04.55-.11,1.14-.45,1.66-.68.22-.1.47-.18.72-.28.05.06.1.11.14.17.21.25.41.51.6.78-.33.12-.65.24-.98.38-.64.27-1.28.55-1.91.86-.58.29-1.15.61-1.73.91-.71.37-1.39.82-2.13,1.14-.04.02-.05.1,0,.08.68-.24,1.32-.59,1.98-.87.7-.29,1.38-.63,2.08-.92.69-.29,1.4-.55,2.09-.83.28-.11.58-.21.85-.35.15.25.29.5.43.76-.42.17-.83.33-1.24.51-.82.36-1.59.81-2.42,1.14-.01,0-.02.04,0,.03.93-.24,1.78-.64,2.65-1.02.38-.16.76-.28,1.13-.44.08.16.14.32.2.49-.02.01-.04.02-.06.03-.22.1-.42.23-.64.32-.01,0-.01.03,0,.03.25-.08.49-.18.75-.25.06.16.12.33.18.5.08.23.11.51.21.74-.18.09-.35.17-.52.28,0,0,0,0-.01,0-1.54.62-3.05,1.36-4.56,2.08-.95.41-1.9.82-2.84,1.25-1.41.65-2.82,1.31-4.21,2.01-.63.32-1.3.73-1.97.95-.09.03-.25.1-.36.19-.12-.27-.22-.54-.33-.81-.01-.02-.02-.05-.03-.08,0-.01-.01-.03-.02-.04.18-.11.31-.29.48-.4.01,0,.02-.04,0-.03-.02.01-.05.02-.07.03,0,0,0,0,0,0-.14.07-.28.15-.42.24,0,0-.01,0-.02,0,0,0-.02.01-.03.02-.06-.17-.12-.34-.2-.51-.05-.12-.1-.24-.16-.36.72-.35,1.46-.64,2.18-.98.82-.4,1.62-.83,2.42-1.27,1.62-.89,3.32-1.64,4.95-2.51.05-.03.05-.14-.02-.1-1.68.75-3.36,1.5-4.98,2.36-.81.43-1.61.86-2.42,1.27-.36.18-.72.36-1.08.54-.35.17-.83.33-1.09.62-.1-.21-.2-.41-.31-.61-.07-.14-.14-.29-.21-.43-.21-.39-.4-.78-.62-1.16.27-.16.65-.26.91-.39.43-.2.86-.4,1.3-.61.88-.41,1.75-.85,2.62-1.29,1.84-.92,3.73-1.77,5.56-2.7.07-.03.07-.18-.02-.14-1.88.82-3.75,1.66-5.59,2.58-.93.46-1.86.95-2.8,1.41-.43.21-.86.43-1.28.66-.24.13-.52.24-.73.42-.12-.2-.25-.41-.39-.61,0-.01-.02-.02-.03-.04.22-.19.52-.33.76-.46.35-.2.71-.43,1.04-.66,0,0,0-.02,0-.02-.38.21-.79.41-1.18.59-.23.11-.52.23-.73.39-.29-.38-.59-.76-.89-1.12-.09-.11-.18-.22-.28-.33-.09-.1-.17-.2-.26-.3.81-.35,1.64-.73,2.39-1.19.01,0,.01-.03,0-.02-.49.22-1.05.38-1.55.56-.36.13-.77.24-1.07.47-.01-.01-.03-.02-.04-.03-.3-.26-.68-.55-1.07-.66-.19-.05-.34-.06-.49-.06,2.03-.96,4.07-1.88,6.16-2.71ZM14.79,40.17c.27-.13.53-.25.8-.36.36-.14.71-.29,1.06-.45.31,0,.59.03.93.15.5.19.97.69,1.34,1.06.81.79,1.38,1.85,1.98,2.81.06.12.12.24.18.36.56,1.15,1.04,2.33,1.56,3.5.02.04.06.05.1.04.07-.02.13-.05.19-.1.28-.03.65-.26.87-.36.07-.03.15-.07.23-.11.65-.26,1.28-.62,1.9-.91,1.34-.64,2.68-1.28,4.04-1.88,1.4-.62,2.82-1.23,4.22-1.84.76-.33,1.52-.67,2.29-.96.51-.2,1.04-.34,1.5-.63-.11-.64-.24-1.26-.42-1.88-.07-.25-.14-.49-.21-.74,0-.02-.02-.05-.03-.07-.37-.98-.87-1.94-1.5-2.78-.12-.16-.25-.32-.39-.47-.4-.51-.89-.94-1.49-1.21-.27-.12-.59-.22-.92-.28,0-.02-.02-.03-.03-.04.1-.04.2-.07.3-.1.77.19,1.5.73,2.11,1.2.76.58,1.45,1.41,2.02,2.17,1.18,1.56,1.77,3.35,2.24,5.21-.01.03-.01.06,0,.1-.16.06-.33.11-.45.14-.39.11-.78.22-1.17.33-.64.24-1.27.51-1.9.77-.74.31-1.48.63-2.22.96-.92.36-1.85.73-2.75,1.13-1.59.7-3.22,1.32-4.83,1.98-.76.31-1.52.61-2.27.93-.38.16-.76.31-1.14.44-.2.07-.38.16-.56.26-.03-.01-.05,0-.08,0,0-.01-.02-.02-.03-.02-.03,0-.05,0-.08-.01-.05-.12-.1-.24-.14-.35-.31-.74-.68-1.46-1.05-2.17-.72-1.39-1.54-2.65-2.59-3.8-.87-.95-1.98-1.88-3.32-1.96-.16,0-.31.01-.45.06.06-.05.12-.09.19-.12ZM13.43,46.3s-.01-.03-.03-.04c-.2-.62-.37-1.25-.45-1.87-.1-.76.06-1.54.37-2.24.11-.24.23-.5.38-.75.11-.16.23-.31.33-.45.25-.26.55-.45.95-.47.63-.04,1.29.34,1.81.66.6.37,1.08.9,1.53,1.43.92,1.05,1.64,2.23,2.31,3.46.32.58.64,1.17.96,1.75.11.2.26.45.4.71-.02,0-.04,0-.05,0-.64-.11-1.29-.27-1.92-.42-.8-.2-1.6-.41-2.4-.59-.81-.18-1.61-.38-2.41-.57-.33-.08-.66-.13-1-.19-.22-.04-.46-.12-.69-.14-.03-.09-.06-.18-.08-.27ZM18.04,59.38c-.16-.05-.33-.11-.49-.18-.18-.53-.43-1.03-.62-1.56-.22-.63-.43-1.26-.64-1.9-.39-1.2-.81-2.37-1.18-3.57-.21-.68-.47-1.33-.68-2.01-.2-.66-.34-1.35-.54-2.01-.12-.39-.23-.79-.32-1.19,0-.02.01-.04.02-.06.51.22,1.03.4,1.57.6.9.33,1.77.75,2.65,1.13.71.31,1.43.63,2.14.93.43.18.88.33,1.31.53.15.07.28.15.42.23.12.31.17.68.25.98.04.13.08.27.12.4.09.42.2.82.27,1.25.16.95.33,1.9.48,2.86.15.97.23,1.96.45,2.92.21.89.38,1.82.5,2.74-1.14-.48-2.29-.9-3.45-1.3-.76-.27-1.5-.55-2.27-.78Z"/>
          <path class="cls-1" d="M46.61,57.63s-.03-.06-.05-.09c-.04-.08-.11-.15-.19-.21-.07-.06-.15-.11-.25-.15-.43-.2-1.06-.3-1.59-.25-1.14.1-2.02.91-1.72,1.5,0,.04.02.09.03.14.03.18.09.35.28.48.66.44.47.45,1.77.31.65-.07,1.36-.33,1.63-.72.23-.32.27-.7.08-1.01ZM43.21,58.99s-.09-.09-.12-.14c-.03-.07-.06-.14-.09-.21.04.04.09.08.15.12.01.02.03.05.03.07.02.05.04.11.05.16,0,0-.01,0-.01,0ZM43.32,59.06s-.02-.09-.04-.13c0-.03-.03-.07-.04-.11.01,0,.03.02.04.03.03.04.05.08.07.12.03.05.05.12.1.17-.05-.02-.09-.05-.13-.07ZM43.39,58.8s-.01,0-.02,0h0s-.1-.05-.14-.08c0,0-.01,0-.02-.01-.07-.05-.13-.1-.18-.15-.04-.05-.08-.09-.1-.14-.01-.09-.04-.29-.06-.29.05-.45.66-.92,1.41-1.1.53-.12,1.14-.07,1.61.1,0,0,0,0,0,0,.82.35.81,1.14-.1,1.61-.67.35-1.53.37-2.14.17h0s0,0-.01,0c-.09-.03-.17-.06-.25-.1,0,0,0-.01,0-.01ZM43.46,58.93c.06.03.12.05.19.07.01.08.03.15.05.22,0,0,0,0,.01.01-.06-.02-.11-.03-.16-.06.01,0,.02,0,.02-.02,0-.08-.06-.15-.1-.23ZM43.71,59.23s.06,0,.06-.01c0-.07-.04-.14-.07-.21.06.02.12.04.19.05.03.08.07.16.13.23-.1-.01-.2-.04-.3-.07ZM44.09,59.31c0-.08-.08-.16-.14-.23.06.01.11.02.16.03.03,0,.05,0,.08.01,0,.02.02.03.03.05.03.05.05.1.09.15,0,0,0,0,.02.01-.08,0-.16,0-.23-.02ZM44.36,59.29s-.04-.06-.06-.09c-.01-.02-.04-.05-.06-.07.07,0,.15.01.22.01,0,0,0,.02.01.03.01.04.03.09.05.12,0,.01.01.02.03.03-.07,0-.15.01-.22,0,0,0,0,0,0,0,0-.01.02-.02,0-.03ZM45.08,59.25c-.17.03-.33.05-.48.06.01,0,.02-.01.02-.02-.01-.03-.03-.06-.05-.09,0-.01-.02-.02-.03-.04,0,0-.01-.02-.02-.03.07,0,.14,0,.21-.01,0,.01,0,.03,0,.03.01.04,0,.09.04.12,0,0,.03.01.05,0,.06-.03.03-.07.02-.1-.01-.02-.02-.05-.04-.08.07,0,.14-.02.21-.03,0,.01.01.03.01.04,0,.04,0,.08.04.11,0,0,.01,0,.03,0,0,0,0,0,0,0ZM45.39,59.18c-.09.02-.18.05-.28.07,0,0,0,0,0,0,.04-.06,0-.12-.04-.17.1-.02.2-.04.29-.07,0,.03.01.05.02.08,0,.03,0,.06,0,.09ZM45.68,58.98s0,.07,0,.11c-.06.02-.13.05-.2.07,0-.01,0-.02-.01-.03-.01-.03-.02-.05-.03-.07,0-.02-.02-.04-.03-.05.09-.02.18-.05.27-.09,0,.02,0,.05,0,.07ZM45.75,59.05s0-.02-.01-.04c-.01-.04-.04-.08-.04-.12.04-.02.09-.03.13-.05.01,0,.02,0,.03-.01,0,.02,0,.03.01.04.02.03,0,.07.04.09-.05.03-.11.06-.17.08ZM46.07,58.81s0,.06,0,.09c-.03.01-.06.03-.09.05,0-.02-.01-.04-.02-.06-.01-.02-.02-.05-.04-.07.05-.02.09-.05.14-.07,0,.02,0,.04,0,.07ZM46.23,58.77s-.05.04-.07.05c0-.04-.03-.08-.06-.12.04-.02.07-.05.1-.07,0,.01,0,.02.01.04.01.03.01.06.02.09ZM46.36,58.65s-.04.04-.07.06c0,0,0-.01,0-.01,0-.03-.03-.06-.05-.09.05-.04.09-.07.13-.11.02.05,0,.1,0,.15ZM46.49,58.5s-.04.06-.06.08c0,0,0,0,0,0-.01-.03-.02-.06-.05-.09.1-.1.17-.21.22-.32,0,.11-.03.22-.11.33Z"/>
          <path class="cls-1" d="M45.82,58.59c.56-.28.55-.68.4-1.01-.15-.33-.7-.54-1.29-.54-.64,0-1.22.2-1.63.52-.2.16-.29.37-.32.55-.02.13.05.23.14.33.02.03.05.06.08.09.02.02.05.03.07.05.01.01.02.02.03.03,0,0,.02,0,.03,0,.16.09.36.16.57.22.58.14,1.37.03,1.92-.24ZM43.14,58.04c.04-.34.56-.68,1.08-.84.36-.11.77-.13,1.13-.08.31.06.55.2.71.37.12.13.15.3.16.45.01.2-.13.35-.34.52-.43.33-1.12.37-1.7.36-.28,0-.6-.14-.78-.24-.21-.12-.26-.35-.25-.54Z"/>
          <path class="cls-1" d="M23.1,62.07s-.03.02-.01.02c.15.09.21.26.25.43-.04-.07-.1-.13-.18-.19-.07-.06-.15-.11-.24-.15-.43-.2-1.06-.3-1.59-.25-1.14.1-2.02.91-1.72,1.5,0,.05.02.09.03.14.03.17.09.35.28.47.66.44.47.46,1.77.31.61-.07,1.26-.3,1.57-.65,0,0,.02,0,.03,0,.32-.06.51-.47.49-.77,0-.2-.19-.45-.3-.61-.09-.13-.23-.25-.39-.28ZM20,63.99s-.09-.09-.12-.14c-.03-.07-.06-.14-.09-.21.05.04.1.08.15.12.01.02.02.05.03.07.02.05.04.1.05.16h-.01ZM20.1,64.07s-.02-.09-.03-.14c0-.03-.03-.07-.05-.11.02,0,.03.02.05.02.03.04.05.09.07.12.03.05.06.12.1.17-.04-.02-.09-.05-.13-.07ZM20.33,64.18s.02,0,.02-.02c-.01-.08-.06-.16-.11-.23.06.03.12.05.19.07,0,.07.03.15.05.22,0,0,0,0,0,.01-.06-.02-.11-.03-.16-.05ZM20.44,63.92s0,0-.01,0c-.09-.03-.17-.07-.25-.1,0,0,0,0,0-.01,0,0-.02,0-.02,0h0s-.09-.05-.14-.08c0,0-.01,0-.02,0-.07-.05-.13-.1-.18-.15-.04-.05-.08-.09-.1-.14-.01-.09-.04-.29-.06-.29.05-.45.66-.92,1.41-1.1.53-.12,1.15-.07,1.6.1,0,0,0,0,.01,0,.83.36.81,1.14-.1,1.61-.67.35-1.53.37-2.14.17,0,0,0,0,0,0ZM20.51,64.24s.05,0,.05-.01c0-.07-.04-.14-.07-.21.06.02.12.04.19.05.04.08.07.16.13.23-.1-.01-.2-.03-.29-.06ZM20.87,64.31c0-.08-.08-.16-.14-.23.05.01.11.02.16.03.03,0,.06,0,.08.01,0,.02.02.03.03.05.03.05.05.1.09.15,0,0,0,0,.02,0-.08,0-.16,0-.23-.02ZM21.15,64.29s-.04-.06-.06-.09c-.02-.02-.04-.05-.06-.07.07,0,.15.01.22.01,0,0,0,.02,0,.03.02.04.03.09.05.12,0,.01.02.03.04.03,0,0,0,0,0,0-.08,0-.16,0-.23,0,0,0,0,0,0-.01,0-.01.02-.02,0-.03ZM21.86,64.26c-.16.03-.33.05-.48.06.01,0,.02-.01.02-.02-.01-.03-.03-.06-.05-.09,0-.01-.02-.02-.03-.04,0,0-.01-.02-.03-.03.07,0,.14,0,.21,0,0,.01,0,.02,0,.03.01.04,0,.09.04.12,0,0,.03.01.05,0,.06-.02.03-.07.01-.1-.01-.02-.02-.05-.04-.08.07,0,.14-.02.21-.03,0,.01.01.03.01.04,0,.04,0,.08.04.11,0,0,.02,0,.03,0,0,0,0,0,0,0ZM22.17,64.18c-.09.02-.18.05-.28.07,0,0,0,0,0,0,.04-.06,0-.12-.04-.17.1-.02.2-.04.29-.07,0,.03.01.06.01.08,0,.03,0,.06,0,.09ZM22.46,63.98s0,.07,0,.1c-.06.03-.13.05-.2.07,0-.01,0-.02-.01-.03-.01-.03-.02-.05-.03-.07,0-.02-.02-.04-.03-.05.09-.03.19-.06.27-.09,0,.02,0,.05,0,.07ZM22.54,64.06s0-.03-.01-.04c-.01-.04-.04-.08-.04-.12.04-.02.09-.03.13-.05.01,0,.02,0,.04-.01,0,.02,0,.03.01.04.02.03,0,.07.04.09-.05.03-.11.05-.17.08ZM22.85,63.81s0,.06,0,.08c-.03.02-.06.04-.09.05,0-.02,0-.04-.02-.06-.01-.02-.02-.05-.04-.07.05-.03.09-.05.14-.08,0,.02,0,.05,0,.07ZM23.02,63.78s-.05.04-.07.05c0-.04-.03-.08-.06-.12.04-.02.07-.05.1-.07,0,.01,0,.03.01.04.01.03.01.06.02.09ZM23.14,63.66s-.04.04-.06.06c0,0,0,0,0-.01-.01-.03-.03-.06-.05-.09.04-.04.09-.07.13-.11.02.05,0,.1,0,.15ZM23.28,63.5s-.04.05-.06.08c0,0,0,0,0,0-.01-.03-.02-.06-.05-.09.1-.1.17-.21.22-.32,0,.11-.03.22-.11.34Z"/>
          <path class="cls-1" d="M23,62.58c-.15-.33-.7-.54-1.29-.54-.64,0-1.22.2-1.63.52-.2.16-.29.37-.32.55-.02.13.05.23.14.33.02.03.05.06.08.09.02.02.05.03.07.05.01,0,.02.02.03.03,0,0,.02,0,.03,0,.16.1.35.16.57.22.58.14,1.37.03,1.92-.24.56-.28.55-.68.4-1.01ZM20.95,63.82c-.28,0-.6-.14-.78-.24-.21-.12-.26-.35-.25-.54.03-.33.56-.68,1.08-.83.36-.11.77-.13,1.13-.08.31.07.55.2.71.37.12.12.15.3.16.45.01.2-.12.35-.34.52-.43.34-1.12.37-1.7.36Z"/>
          <path class="cls-1" d="M30.37,60.71s-.06,0-.06.03c-.02.15-.07.36-.15.52-.01-.11-.04-.21-.1-.3-.01-.03-.03-.05-.04-.08-.04-.07-.1-.13-.17-.19-.06-.05-.14-.1-.22-.13-.38-.18-.95-.27-1.43-.23-1.02.09-1.81.82-1.54,1.35,0,.04.02.09.03.12.02.16.08.32.25.43.59.4.42.41,1.59.28.44-.05.9-.19,1.21-.41.18.03.38-.3.46-.38.2-.22.31-.73.18-1h0ZM27.01,62.17s-.08-.08-.11-.12c-.02-.06-.05-.12-.08-.18.04.04.09.07.14.1,0,.02.02.04.03.06.01.04.04.09.04.14,0,0,0,0-.01,0ZM27.1,62.24s-.02-.08-.03-.12c0-.03-.02-.06-.04-.09.01,0,.03.02.04.02.03.04.05.08.06.11.03.05.05.11.09.15-.04-.02-.08-.04-.12-.06ZM27.3,62.34s.02,0,.02-.02c-.01-.07-.05-.14-.09-.21.05.02.11.04.17.06,0,.07.03.13.04.2,0,0,0,0,0,.01-.05-.01-.1-.03-.15-.05ZM27.46,62.39s.04,0,.04-.01c0-.07-.04-.13-.07-.19.06.02.11.03.17.05.03.07.07.15.12.21-.09-.01-.18-.04-.26-.06ZM27.79,62.46c0-.08-.07-.14-.13-.21.05.01.1.02.15.03.02,0,.05,0,.07.01,0,.01.02.03.03.04.03.04.05.09.08.13,0,0,0,0,.01,0-.07,0-.14,0-.21-.01ZM28.04,62.44s-.04-.06-.05-.08c-.01-.02-.03-.04-.05-.06.07,0,.13,0,.2,0,0,.01,0,.02,0,.03.01.04.03.08.05.11,0,.01.01.02.03.03,0,0,0,0,0,0-.07,0-.14,0-.21,0,0,0,0,0,0,0,0-.01.02-.02,0-.03ZM28.68,62.41c-.15.03-.29.05-.43.06.01,0,.02-.02.02-.02-.01-.03-.03-.05-.05-.08,0-.01-.02-.02-.03-.03,0,0-.01-.02-.02-.03.06,0,.12,0,.19-.01,0,.01,0,.02,0,.03.01.04,0,.08.04.11,0,0,.03.01.05,0,.05-.02.02-.06.01-.08,0-.02-.02-.04-.03-.07.06,0,.13-.01.19-.03,0,.01.01.03.01.04,0,.04,0,.07.04.1,0,0,.01,0,.02,0,0,0,0,0,0,0ZM28.96,62.34c-.08.02-.16.04-.25.06,0,0,0,0,0,0,.04-.05,0-.1-.04-.15.09-.02.18-.04.26-.06,0,.03.01.05.01.08,0,.02,0,.05,0,.08ZM29.22,62.16s0,.06,0,.09c-.05.02-.12.04-.18.06,0,0,0-.02-.01-.03-.01-.02-.02-.04-.03-.07,0-.02-.02-.03-.03-.04.08-.02.17-.05.25-.08,0,.02,0,.05,0,.07ZM29.29,62.23s0-.02-.01-.03c-.01-.03-.03-.07-.04-.11.04-.01.08-.03.12-.04,0,0,.02,0,.03-.01,0,.01,0,.03.01.04.01.03,0,.06.04.09-.05.02-.1.05-.15.07ZM29.56,62.01s0,.05,0,.08c-.03.02-.05.03-.08.05,0-.02,0-.04-.02-.05-.01-.02-.02-.05-.04-.07.04-.02.08-.04.12-.07,0,.02,0,.04,0,.06ZM29.33,61.96c-.61.32-1.37.33-1.92.15,0,0,0,0,0,0,0,0,0,0,0,0-.08-.03-.15-.06-.22-.09,0,0,0,0,0-.01,0,0-.01,0-.01,0,0,0,0,0,0,0-.04-.02-.08-.05-.12-.07,0,0-.01,0-.02,0-.06-.04-.12-.09-.16-.14-.04-.04-.07-.08-.09-.12-.01-.09-.03-.26-.05-.26.05-.4.59-.83,1.26-.99.47-.11,1.03-.06,1.44.09,0,0,0,0,0,0,.74.32.72,1.02-.09,1.45Z"/>
          <path class="cls-1" d="M28.54,60.42c-.58,0-1.09.17-1.46.47-.18.14-.26.33-.29.49-.02.11.04.21.13.29.02.03.04.06.07.08.02.01.04.03.06.04,0,0,.02.02.03.03,0,0,.02,0,.03,0,.14.08.32.15.51.19.52.13,1.23.03,1.72-.21.5-.25.49-.61.36-.9-.13-.3-.63-.48-1.15-.48ZM29.69,61.23c0,.18-.11.31-.3.47-.39.3-1.01.33-1.53.32-.25,0-.54-.13-.7-.22-.19-.11-.24-.32-.22-.48.03-.3.5-.61.97-.75.33-.09.69-.12,1.01-.07.27.06.5.18.64.33.11.12.13.27.14.4Z"/>
          <path class="cls-1" d="M42.04,55.05s.02.08.02.12c.02.15.08.3.24.4.39.26.86.34,1.5.27.55-.06,1.15-.28,1.38-.61.19-.27.23-.59.07-.85-.01-.02-.02-.05-.04-.08-.04-.07-.09-.13-.16-.18-.06-.05-.13-.09-.21-.12-.36-.17-.9-.25-1.35-.21-.96.09-1.71.77-1.45,1.27ZM42.37,55.52s-.08-.08-.11-.12c-.02-.06-.05-.12-.08-.17.04.03.08.07.13.1,0,.02.02.04.03.06.01.04.03.09.04.13,0,0,0,0-.01,0ZM42.46,55.58s-.02-.08-.03-.12c0-.03-.02-.06-.04-.09.01,0,.02.01.04.02.02.04.04.07.06.1.03.05.05.1.08.15-.04-.02-.08-.04-.11-.06ZM42.58,55.47c.05.02.1.04.16.06,0,.06.02.12.04.19,0,0,0,0,0,0-.05-.02-.09-.03-.14-.04.01,0,.02,0,.02-.02,0-.07-.05-.13-.09-.2ZM42.8,55.73s.05,0,.05-.01c0-.06-.04-.12-.06-.18.05.02.1.03.16.04.03.07.06.14.11.2-.09-.01-.17-.03-.25-.05ZM43.11,55.79c0-.07-.07-.13-.12-.19.04,0,.09.02.14.03.02,0,.05,0,.07.01,0,.01.02.03.02.04.03.04.04.08.07.13,0,0,0,0,.01,0-.07,0-.13,0-.2-.01ZM43.34,55.77s-.03-.05-.05-.08c-.01-.02-.03-.04-.05-.06.06,0,.12,0,.19,0,0,0,0,.02,0,.02.01.04.03.07.05.11,0,0,.01.02.03.02-.06,0-.12,0-.18,0,0,0,0,0,0,0,0-.01.02-.02,0-.03ZM43.95,55.74c-.14.03-.27.04-.41.05.01,0,.02-.01.02-.02-.01-.02-.03-.05-.05-.07,0-.01-.02-.02-.03-.03,0,0-.01-.01-.02-.03.06,0,.12,0,.18,0,0,0,0,.02,0,.03.01.03,0,.08.04.11,0,0,.03.01.04,0,.05-.02.02-.06.01-.08,0-.02-.02-.04-.03-.06.06,0,.12-.01.18-.03,0,.01,0,.03.01.04,0,.03,0,.07.03.09,0,0,.01,0,.02,0,0,0,0,0,0,0ZM44.21,55.68c-.07.02-.15.04-.23.05,0,0,0,0,0,0,.04-.05,0-.1-.04-.14.08-.02.17-.03.25-.06,0,.02.01.05.01.07,0,.02,0,.05,0,.07ZM44.46,55.51s0,.06,0,.09c-.05.02-.11.04-.17.06,0,0,0-.02-.01-.03,0-.02-.02-.04-.02-.06,0-.02-.02-.03-.03-.04.08-.02.16-.05.23-.08,0,.02,0,.04,0,.06ZM44.52,55.57s0-.02,0-.03c-.01-.03-.03-.07-.03-.1.04-.02.07-.03.11-.04.01,0,.02,0,.03-.01,0,.01,0,.03.01.04.01.03,0,.06.04.08-.05.02-.09.05-.14.07ZM44.78,55.36s0,.05,0,.07c-.02.02-.05.03-.07.05,0-.02-.01-.03-.02-.05,0-.02-.02-.04-.03-.06.04-.02.08-.04.11-.06,0,.02,0,.04,0,.06ZM44.93,55.33s-.04.03-.06.05c0-.04-.03-.07-.05-.1.03-.02.06-.04.09-.06,0,.01,0,.02.01.03,0,.03,0,.05.01.08ZM45.04,55.24s-.04.03-.05.05c0,0,0,0,0-.01,0-.02-.03-.05-.05-.08.04-.03.07-.06.11-.09.01.04,0,.08,0,.13ZM45.14,55.1s-.03.05-.05.07c0,0,0,0,0,0,0-.03-.02-.05-.04-.07.08-.09.15-.18.19-.27,0,.09-.03.19-.09.28ZM44.65,53.95c.7.3.68.97-.09,1.37-.57.3-1.29.31-1.81.14h0s0,0-.01,0c-.08-.03-.14-.05-.21-.09,0,0,0,0,0,0,0,0-.01,0-.01,0h0s-.08-.04-.12-.07c0,0,0,0-.01,0-.06-.04-.11-.08-.15-.13-.04-.04-.07-.08-.09-.12,0-.08-.03-.25-.05-.25.04-.38.55-.78,1.19-.93.45-.11.97-.06,1.36.08,0,0,0,0,0,0Z"/>
          <path class="cls-1" d="M42.44,54.31c-.17.14-.25.31-.27.47-.02.11.04.2.12.28.02.03.04.05.07.08.02.01.04.03.06.04,0,0,.02.02.03.02,0,0,.02,0,.02,0,.14.08.3.14.48.18.49.12,1.16.03,1.62-.2.47-.24.46-.57.34-.85-.13-.28-.59-.45-1.09-.46-.54,0-1.03.16-1.38.44ZM44.17,53.94c.26.05.47.17.6.31.1.11.13.25.13.38,0,.16-.11.29-.29.44-.36.29-.95.31-1.44.3-.24,0-.51-.12-.66-.21-.18-.1-.22-.3-.21-.46.03-.29.47-.58.91-.71.31-.09.65-.11.95-.07Z"/>
          <path class="cls-1" d="M41.11,53.33s.01.05.02.08c.02.1.05.2.16.28.27.18.59.23,1.03.18.38-.04.79-.19.95-.42.13-.19.16-.41.05-.58,0-.02-.02-.03-.03-.05-.02-.05-.06-.09-.11-.12-.04-.03-.09-.06-.14-.09-.25-.12-.62-.17-.93-.15-.66.06-1.17.53-1,.88ZM41.34,53.66s-.05-.05-.07-.08c-.01-.04-.03-.08-.05-.12.03.02.05.05.09.07,0,.01.01.03.02.04,0,.03.02.06.03.09h0ZM41.4,53.7s-.01-.05-.02-.08c0-.02-.01-.04-.02-.06,0,0,.02,0,.02.01.02.02.03.05.04.07.02.03.03.07.06.1-.03-.01-.05-.03-.08-.04ZM41.48,53.62s.07.03.11.04c0,.04.02.08.03.13,0,0,0,0,0,0-.03,0-.06-.02-.09-.03,0,0,.01,0,.01,0,0-.05-.03-.09-.06-.14ZM41.63,53.8s.03,0,.03,0c0-.04-.02-.08-.04-.12.04,0,.07.02.11.03.02.05.04.09.08.14-.06,0-.12-.02-.17-.04ZM41.85,53.84s-.05-.09-.08-.13c.03,0,.06.01.1.02.02,0,.03,0,.05,0,0,0,.01.02.02.02.02.03.03.06.05.09,0,0,0,0,.01,0-.05,0-.09,0-.14-.01ZM42.01,53.83s-.02-.04-.04-.06c0-.01-.02-.03-.04-.04.04,0,.09,0,.13,0,0,0,0,.01,0,.02,0,.03.02.05.03.07,0,0,0,.01.02.01-.04,0-.09,0-.13,0,0,0,0,0,0,0,0,0,.01-.01,0-.02ZM42.43,53.81c-.1.02-.19.03-.28.04,0,0,.01,0,0-.01,0-.02-.02-.04-.03-.05,0,0-.01-.02-.02-.02,0,0,0,0-.02-.02.04,0,.08,0,.12,0,0,0,0,.01,0,.02,0,.02,0,.05.02.07,0,0,.02,0,.03,0,.04-.01.02-.04,0-.06,0-.02-.01-.03-.02-.04.04,0,.08-.01.12-.02,0,.01,0,.02,0,.03,0,.02,0,.04.02.06,0,0,0,0,.02,0h0ZM42.61,53.76c-.05.02-.1.03-.16.04t0,0s0-.07-.02-.1c.06-.01.11-.03.17-.04,0,.02,0,.03,0,.05,0,.02,0,.04,0,.05ZM42.77,53.65s0,.04,0,.06c-.03.01-.08.03-.12.04,0,0,0-.01,0-.02,0-.02-.01-.03-.02-.04,0-.01,0-.02-.02-.03.05-.02.11-.04.16-.05,0,.01,0,.03,0,.04ZM42.82,53.69s0-.01,0-.02c0-.02-.02-.04-.02-.07.02,0,.05-.02.08-.03,0,0,.01,0,.02,0,0,0,0,.02,0,.03,0,.02,0,.04.03.05-.03.02-.07.03-.1.05ZM43,53.55s0,.04,0,.05c-.01.01-.03.02-.05.03,0-.01,0-.02-.01-.03,0-.01-.01-.03-.02-.04.03-.01.05-.03.08-.04,0,.01,0,.03,0,.04ZM43.06,53.56s-.02-.05-.04-.07c.02-.01.04-.03.06-.04,0,0,0,.01,0,.02,0,.02,0,.04.01.06-.01,0-.03.02-.04.03ZM43.17,53.46s-.03.03-.04.04c0,0,0,0,0,0,0-.02-.02-.04-.03-.05.02-.02.05-.04.07-.07,0,.03,0,.06,0,.09ZM43.25,53.37s-.02.03-.04.05c0,0,0,0,0,0,0-.02-.01-.04-.03-.05.06-.06.1-.12.13-.18,0,.06-.02.13-.06.19ZM42.91,52.58c.48.21.47.66-.06.94-.39.2-.89.22-1.25.1h0s0,0,0,0c-.05-.02-.1-.04-.14-.06,0,0,0,0,0,0,0,0,0,0,0,0h0s-.06-.03-.08-.05c0,0,0,0,0,0-.04-.03-.08-.06-.11-.09-.02-.03-.04-.05-.06-.08,0-.06-.02-.17-.03-.17.03-.26.38-.54.82-.64.31-.07.67-.04.94.06,0,0,0,0,0,0Z"/>
          <path class="cls-1" d="M41.2,53.14c-.01.07.03.13.08.19.01.02.03.04.04.05.01,0,.03.02.04.03,0,0,.01.01.02.02,0,0,.01,0,.02,0,.09.05.21.09.33.12.34.08.8.02,1.12-.14.33-.17.32-.4.23-.59-.09-.2-.41-.31-.75-.31-.37,0-.71.11-.95.3-.12.09-.17.21-.19.32ZM42.58,52.57c.18.04.32.12.42.21.07.08.09.17.09.26,0,.11-.07.21-.2.3-.25.2-.65.22-.99.21-.16,0-.35-.08-.45-.14-.13-.07-.16-.21-.14-.31.02-.2.33-.4.63-.49.21-.06.45-.08.66-.05Z"/>
          <path class="cls-1" d="M43.92,60.14c-.04-.08-.11-.15-.19-.21-.07-.06-.15-.11-.25-.15-.19-.09-.43-.16-.67-.21,0-.13-.05-.26-.12-.38-.01-.03-.03-.06-.05-.09-.04-.08-.11-.15-.19-.21-.07-.06-.15-.11-.24-.15-.43-.2-1.06-.3-1.59-.25-.58.05-1.1.29-1.42.59-.3-.06-.63-.08-.92-.05-.08,0-.15.02-.23.03-.02-.06-.05-.13-.08-.19-.01-.03-.03-.06-.05-.09-.04-.08-.11-.15-.19-.21-.07-.06-.15-.11-.24-.15-.43-.21-1.06-.3-1.59-.25-1.13.1-2.02.91-1.72,1.5.01.05.02.09.03.14.03.17.09.35.28.48.46.31,1.02.4,1.77.31.1-.01.21-.03.31-.05,0,.04.02.08.03.12.03.17.09.35.28.48,0,0,.02,0,.03.01-.43.33-1.12.37-1.7.35-.28,0-.6-.14-.78-.24-.21-.12-.26-.35-.25-.53.02-.16.13-.31.3-.45-.03-.02-.06-.04-.09-.07-.02.01-.04.02-.05.04-.2.16-.29.37-.32.55-.02.13.05.23.14.33.02.03.04.06.08.08.02.02.04.04.07.05,0,.01.02.02.03.03,0,0,.02,0,.03,0,.16.09.36.16.57.22.58.14,1.37.03,1.91-.24.04-.02.08-.04.12-.07-.02-.02-.05-.03-.07-.05.08.06.17.1.27.14-.02,0-.05-.01-.07-.02-.08.06-.17.11-.26.16-.67.35-1.52.37-2.14.17t0,0s0,0-.01,0c-.09-.03-.17-.06-.25-.1,0,0,0,0,0-.01,0,0-.01,0-.01,0h0s-.1-.05-.14-.08c0,0,0,0-.02-.01-.07-.04-.13-.1-.18-.15-.04-.05-.08-.09-.1-.14-.01-.09-.04-.29-.06-.29.02-.22.18-.45.43-.64-.02-.02-.04-.05-.05-.08-.4.3-.6.7-.43,1.02.01.05.02.09.03.14.03.18.09.35.28.48.46.31,1.02.39,1.77.31.6-.07,1.25-.3,1.56-.64.33.08.71.09,1.15.04.54-.06,1.12-.25,1.46-.54.01,0,.03,0,.04,0,0,.03.02.07.04.1.01.05.02.09.03.14.03.17.09.35.28.48.46.31,1.02.39,1.77.31.65-.07,1.36-.33,1.63-.72.23-.32.27-.7.08-1.01-.01-.03-.03-.06-.05-.09ZM34.24,61.69s-.09-.09-.12-.14c-.03-.07-.06-.14-.09-.21.05.04.1.08.15.12,0,.02.02.04.03.07.02.05.04.1.05.16h-.02ZM34.34,61.76s-.02-.09-.04-.14c0-.03-.03-.07-.04-.11.01,0,.03.02.04.02.03.04.05.09.07.12.03.05.05.12.1.17-.05-.02-.09-.05-.13-.07ZM34.49,61.63c.06.03.12.05.19.07,0,.08.03.15.05.22,0,0,0,.01,0,.01-.05-.02-.11-.03-.16-.05.01,0,.02,0,.02-.02-.01-.08-.06-.15-.11-.23ZM34.75,61.93s.06,0,.06-.01c0-.07-.04-.14-.08-.21.06.02.12.03.19.05.03.08.07.16.13.24-.11-.01-.2-.04-.3-.06ZM35.12,62.01c0-.08-.08-.16-.14-.23.05.01.11.02.16.03.03,0,.05,0,.08,0,0,.02.02.03.03.05.03.05.05.1.09.15,0,0,0,0,.01,0-.08,0-.16,0-.23-.02ZM35.38,62.02s0,0,0,0c0-.01.02-.02,0-.03-.03-.03-.04-.06-.06-.09-.02-.02-.04-.05-.06-.07.07,0,.15.01.22.01,0,0,0,.02.01.03.01.04.03.08.05.12,0,.01.02.03.04.03h.01s0,0,0,0c-.08,0-.16,0-.24,0ZM36.11,61.95c-.16.03-.33.05-.48.06.02,0,.03-.01.02-.02-.01-.03-.03-.06-.05-.09,0-.01-.02-.02-.03-.04,0,0-.01-.02-.02-.03.07,0,.14,0,.21-.01,0,.01,0,.02,0,.03.01.04,0,.09.04.12,0,0,.03.01.05,0,.06-.02.03-.07.01-.1-.01-.02-.02-.05-.04-.08.07,0,.14-.02.21-.03,0,.01.01.03.02.05,0,.04,0,.07.04.11,0,0,.01,0,.03.01,0,0,0,0,0,0ZM36.42,61.88c-.09.03-.18.05-.28.07,0,0,0,0,0,0,.04-.05,0-.11-.04-.17.1-.02.2-.04.29-.07,0,.03.01.06.01.08,0,.03,0,.06,0,.09ZM36.71,61.68s0,.07,0,.1c-.06.03-.13.05-.2.07,0-.01,0-.02-.01-.03-.01-.02-.02-.05-.03-.07,0-.02-.02-.04-.03-.05.09-.03.18-.06.27-.09,0,.02,0,.05,0,.07ZM36.78,61.75s0-.02-.01-.04c-.01-.04-.04-.08-.04-.12.04-.02.09-.03.13-.05.01,0,.02,0,.03-.01,0,.01,0,.03.01.04.02.03,0,.07.04.1-.05.03-.11.05-.17.08ZM37.09,61.5s0,.06,0,.08c-.03.02-.06.04-.09.05,0-.02-.01-.04-.02-.06-.01-.02-.02-.05-.04-.07.05-.02.09-.05.14-.07,0,.02,0,.05,0,.07ZM40.16,60.87c0-.08-.08-.16-.14-.23.05,0,.11.02.16.03.03,0,.05,0,.08.01,0,.02.02.03.03.05.03.05.05.1.09.15,0,0,0,0,.02,0-.08,0-.16,0-.23-.01ZM39.79,60.79s.06,0,.05,0c0-.07-.04-.14-.07-.21.06.02.12.04.19.05.04.08.07.16.13.23-.11-.01-.2-.04-.3-.07ZM39.54,60.49c.06.03.12.05.19.07,0,.07.03.15.05.22,0,0,0,.01,0,.01-.05-.01-.11-.03-.16-.05.01,0,.02,0,.02-.02,0-.08-.06-.15-.1-.23ZM40.64,60.88c-.07,0-.15.01-.21.01,0,0,0,0,0,0,0-.01.02-.02,0-.03-.03-.03-.04-.06-.06-.09-.02-.02-.04-.04-.06-.07.07,0,.15.01.22.01,0,.01,0,.02.01.03.01.04.03.08.05.12,0,.01.01.02.03.03ZM40.84,60.84s.03.01.05,0c.06-.03.03-.07.01-.1-.01-.02-.02-.05-.04-.07.07,0,.14-.02.21-.03,0,.02.01.03.02.04,0,.04,0,.08.04.11,0,0,.02,0,.03.01,0,0,0,0,0,0-.16.03-.32.05-.48.06.01,0,.02-.01.02-.02-.01-.03-.03-.06-.05-.09,0-.01-.02-.02-.03-.04,0,0-.01-.02-.02-.03.07,0,.14,0,.21-.01,0,.01,0,.02,0,.03.01.04,0,.09.04.12ZM40.98,60.92c.65-.07,1.35-.33,1.63-.72.1-.14.16-.29.19-.45.26.07.47.19.61.34.12.13.15.3.16.45.01.2-.13.35-.34.52-.43.34-1.12.37-1.7.36-.28,0-.6-.14-.78-.24-.1-.06-.16-.14-.2-.23.14,0,.29,0,.45-.03ZM41.15,60.64c.1-.02.2-.04.29-.07,0,.03.01.06.02.09,0,.03,0,.06,0,.09-.09.02-.18.05-.28.07,0,0,0,0,0,0,.04-.06,0-.11-.04-.17ZM41.49,60.55c.09-.03.18-.06.27-.09,0,.02,0,.05,0,.07,0,.03,0,.07,0,.1-.06.03-.13.05-.2.07,0-.01-.01-.02-.01-.03-.01-.02-.02-.05-.03-.07,0-.02-.02-.03-.03-.05ZM41.78,60.46s.09-.03.13-.05c0,0,.02,0,.03-.01,0,.01,0,.03.01.04.02.03,0,.07.05.09-.05.03-.11.06-.17.08,0-.01,0-.03-.01-.04-.01-.04-.04-.08-.04-.12ZM41.99,60.37s.09-.05.14-.07c0,.02,0,.05,0,.07,0,.03,0,.06,0,.08-.03.02-.06.04-.09.05,0-.02-.01-.04-.02-.05-.01-.02-.02-.05-.04-.08ZM42.17,60.27s.07-.05.1-.07c0,.01,0,.03.01.04,0,.03.01.06.02.09-.02.02-.05.04-.07.05,0-.04-.03-.08-.06-.12ZM42.31,60.18s.09-.08.12-.11c.02.05,0,.1,0,.15-.02.02-.04.04-.06.06,0,0,0-.01,0-.01-.01-.03-.03-.06-.05-.09ZM42.57,60.06s-.04.05-.06.08c0,0,0,0,0,0-.01-.03-.02-.06-.05-.09.1-.1.17-.21.22-.32,0,.11-.03.22-.11.33ZM41.97,58.69s0,0,.01,0c.82.35.81,1.14-.11,1.61-.67.35-1.53.37-2.14.17h0s0,0-.01,0c-.09-.03-.17-.06-.25-.1,0,0,0,0,0-.01,0,0-.01,0-.01,0h0s-.09-.05-.14-.08c0,0-.01,0-.02,0-.07-.05-.13-.1-.18-.15-.04-.04-.08-.09-.1-.14-.01-.09-.04-.29-.06-.29.05-.45.66-.92,1.41-1.1.53-.13,1.14-.07,1.6.1ZM36.76,60.24c.09-.03.18-.06.27-.09,0,.02,0,.05,0,.07,0,.03,0,.07,0,.1-.06.02-.13.05-.2.07,0-.01,0-.02-.01-.03-.01-.02-.02-.05-.03-.07,0-.02-.02-.04-.03-.05ZM37.88,59.89c.14-.19.2-.41.2-.61.32-.08.67-.09.98-.05-.21.25-.29.53-.16.77,0,.05.02.09.03.14.03.18.09.35.28.48.05.03.11.07.16.09-.42.2-.98.23-1.47.22-.28,0-.6-.14-.78-.24-.09-.05-.16-.13-.19-.21.41-.13.78-.32.96-.58ZM37.05,60.14s.09-.03.13-.05c.01,0,.02,0,.03-.01,0,.01,0,.03.01.04.02.03,0,.07.05.1-.05.03-.11.06-.17.08,0,0,0-.02-.01-.04-.01-.04-.04-.08-.04-.12ZM37.27,60.06s.09-.05.14-.07c0,.02,0,.04,0,.07,0,.03,0,.06,0,.08-.03.02-.06.04-.09.05,0-.02-.01-.04-.02-.05-.01-.02-.02-.05-.04-.08ZM37.45,59.96s.07-.04.1-.07c0,.01,0,.03.01.04,0,.03,0,.07.02.1-.02.02-.05.04-.07.05,0-.04-.03-.08-.06-.12ZM37.59,59.86s.09-.07.13-.12c.02.05,0,.11,0,.16-.02.02-.04.04-.07.06,0,0,0,0,0-.01-.01-.03-.03-.06-.05-.09ZM39.07,60.21s.1.08.15.12c0,.02.02.04.03.07.02.05.04.1.05.16,0,0-.01,0-.02,0-.05-.04-.09-.09-.12-.14-.03-.07-.06-.14-.09-.21ZM39.39,60.62s-.02-.09-.04-.14c0-.03-.03-.07-.04-.11.01,0,.03.02.04.03.03.04.05.08.07.12.03.05.06.12.1.17-.05-.02-.09-.05-.13-.07ZM39.17,59.11s-.05.05-.07.07c-.14-.02-.28-.04-.43-.04-.2,0-.4.02-.59.06,0-.03,0-.05-.01-.08.35-.08.75-.08,1.1-.01ZM37.84,59.75s-.04.05-.06.08c0,0,0,0,0,0-.01-.03-.02-.06-.05-.09.1-.1.17-.21.22-.32,0,.11-.03.22-.11.33ZM34.56,60.24c-.05-.04-.09-.09-.13-.14-.03-.07-.06-.14-.09-.21.05.04.1.08.15.12.01.02.02.05.03.07.02.05.04.1.05.16,0,0-.01,0-.01,0ZM34.67,60.31s-.02-.09-.04-.14c0-.03-.03-.07-.04-.11.01,0,.03.02.04.03.03.04.05.08.07.12.03.05.05.12.1.17-.04-.02-.09-.05-.13-.07ZM34.74,60.05s-.02,0-.02,0c0,0,0,0,0,0-.05-.03-.09-.05-.14-.08,0,0,0,0-.02-.01-.07-.05-.13-.1-.18-.15-.04-.05-.08-.09-.1-.14-.01-.09-.04-.29-.06-.29.05-.45.66-.92,1.41-1.1.53-.12,1.14-.07,1.61.1,0,0,0,0,0,.01.82.35.81,1.13-.1,1.61-.67.35-1.52.37-2.14.17h0s0,0-.01,0c-.09-.03-.17-.06-.25-.1,0,0,0,0,0-.01ZM34.81,60.18c.06.03.12.05.19.07,0,.07.03.15.05.22,0,0,0,0,.01.01-.06-.01-.11-.03-.16-.05.01,0,.02,0,.02-.02,0-.08-.06-.15-.1-.23ZM35.07,60.48s.06,0,.06-.01c0-.07-.04-.14-.07-.21.06.02.12.03.19.05.04.08.07.16.13.23-.1-.01-.2-.04-.3-.06ZM35.44,60.56c0-.09-.08-.16-.14-.23.05.01.11.02.16.03.03,0,.05.01.08.01,0,.01.02.03.03.05.03.05.05.1.09.15,0,0,0,0,.02,0-.08,0-.16,0-.23-.01ZM35.71,60.54s-.04-.06-.06-.09c-.02-.02-.04-.05-.06-.07.07,0,.15.01.22.01,0,0,0,.02,0,.03.02.04.03.09.05.13,0,0,.01.02.04.03-.07,0-.15,0-.22,0,0,0,0,0,0,0,0-.01.02-.02,0-.03ZM36.43,60.5c-.16.03-.32.05-.48.06.01,0,.02-.01.02-.02-.01-.03-.03-.06-.05-.09,0-.01-.02-.02-.03-.03,0,0-.01-.02-.02-.03.07,0,.14,0,.21,0,0,.01,0,.02,0,.03.01.04,0,.09.04.12,0,0,.03.01.05,0,.06-.02.03-.07.01-.1-.01-.02-.02-.05-.04-.07.07,0,.14-.02.21-.03,0,.01.01.03.02.04,0,.04,0,.08.04.11,0,0,.02,0,.03,0,0,0,0,0,0,0ZM36.46,60.49s0,0,0,0c.04-.05,0-.12-.04-.17.1-.02.2-.04.29-.07,0,.03.01.06.02.09,0,.03,0,.06,0,.09-.09.03-.18.05-.28.07ZM36.95,61.09s-.09-.09-.12-.14c-.03-.07-.06-.14-.09-.21.05.04.1.08.15.12,0,.02.02.05.03.07.02.05.04.1.05.16,0,0,0,0-.01,0ZM37.01,61.03s-.03-.07-.04-.11c.01,0,.03.02.04.02.03.04.05.08.07.12.03.05.06.12.1.17-.05-.02-.09-.05-.13-.07,0-.05-.02-.09-.04-.13ZM37.28,61.28s.02,0,.02-.02c0-.08-.06-.15-.1-.23.06.03.12.05.19.07.01.07.03.15.05.22,0,0,0,.01,0,.01-.06-.02-.11-.03-.16-.05ZM37.26,61.47s-.05.04-.07.05c0-.04-.03-.08-.06-.12.04-.02.07-.04.1-.07h0s0,.03.01.04c0,.03.01.06.02.09ZM37.33,61.42s0,0,0-.01c0-.01-.01-.03-.02-.04.02,0,.04.01.06.02,0,0-.02.02-.03.03ZM37.45,61.34s.05,0,.05-.01c0-.07-.04-.14-.07-.21.06.02.12.04.19.05.03.08.07.16.13.24-.1-.01-.2-.04-.3-.07ZM37.82,61.41c0-.09-.08-.16-.14-.23.05.01.11.02.16.03.03,0,.05,0,.08.01,0,.02.02.03.03.05.03.05.05.1.09.15,0,0,0,0,.02.01-.08,0-.16,0-.23-.02ZM38.08,61.43s0,0,0,0c.01-.01.02-.02,0-.03-.03-.03-.04-.06-.06-.09-.02-.02-.04-.04-.06-.07.07,0,.15.01.22.01,0,.01,0,.02.01.03.01.04.03.08.05.12,0,.01.02.03.04.03,0,0,0,0,.01,0,0,0,0,0,0,0-.08,0-.16,0-.24,0ZM38.81,61.36c-.16.03-.33.05-.48.06.02,0,.02-.01.02-.02-.01-.03-.03-.06-.05-.09,0-.01-.02-.02-.03-.04,0,0-.01-.01-.03-.03.07,0,.14,0,.21-.01,0,.01,0,.02,0,.03.01.04,0,.09.04.12,0,0,.03.01.05,0,.06-.02.03-.07.01-.1-.01-.02-.02-.05-.04-.08.07,0,.14-.02.21-.03,0,.01.01.03.02.04,0,.04,0,.08.04.11,0,0,.02,0,.03,0,0,0,0,0,0,0ZM37.39,61.02h0s0,0-.01,0c-.09-.03-.17-.07-.25-.1,0,0,0,0,0-.01,0,0-.01,0-.01,0,0,0,0,0,0,0-.05-.03-.1-.05-.14-.08,0,0,0,0-.01,0-.07-.05-.13-.1-.18-.15-.04-.04-.07-.09-.09-.13.05-.01.09-.02.14-.04.01.02.03.03.04.04.02.03.04.06.08.09.02.02.05.03.07.05,0,0,.02.02.03.03,0,0,.02,0,.03,0,.16.09.35.16.57.21.54.14,1.27.05,1.81-.19.05.02.11.05.17.07-.02.01-.05.03-.07.04-.67.35-1.53.37-2.14.17ZM39.13,61.28c-.09.02-.18.05-.28.06,0,0,0,0,0,0,.04-.06,0-.11-.04-.17.1-.02.2-.04.29-.07,0,.03.01.06.01.08,0,.03,0,.06,0,.09ZM39.41,61.08s0,.07,0,.1c-.06.02-.13.05-.2.07,0-.01,0-.02-.01-.03-.01-.02-.02-.05-.03-.07,0-.02-.02-.03-.03-.05.09-.03.19-.05.27-.09,0,.03,0,.05,0,.08ZM39.49,61.16s0-.02-.01-.04c-.01-.04-.04-.08-.04-.12.04-.01.09-.03.13-.05.01,0,.02,0,.03-.01,0,.02,0,.03.01.04.01.03,0,.07.04.09-.05.03-.11.05-.17.08ZM39.8,60.99s-.06.04-.09.05c0-.02-.01-.04-.02-.06-.01-.02-.02-.05-.04-.08.04-.02.07-.04.1-.05.01,0,.03,0,.04.01,0,.01,0,.02,0,.04,0,.03,0,.06,0,.09ZM39.89,60.93s0-.03-.01-.04c.02,0,.03,0,.05.01-.01,0-.03.02-.04.03ZM40.56,61.59c-.05-.04-.09-.09-.12-.14-.03-.07-.06-.14-.09-.21.05.04.1.08.15.12,0,.02.02.05.03.07.02.05.04.1.05.15h-.01ZM40.67,61.66s-.02-.09-.04-.14c0-.03-.03-.07-.04-.11.01,0,.03.02.04.03.03.04.05.09.07.12.03.05.05.12.1.17-.05-.02-.09-.05-.13-.07ZM40.74,61.4s-.02,0-.01,0t0,0s-.1-.05-.14-.08c0,0,0,0-.02,0-.07-.05-.13-.1-.18-.15-.04-.04-.08-.09-.1-.14,0-.02,0-.05,0-.08.04,0,.08,0,.12,0,.02.03.05.06.08.09.02.03.04.06.08.09.02.02.05.03.07.05.01.01.02.02.03.03,0,0,.02,0,.03,0,.16.09.36.16.57.21.58.14,1.37.04,1.92-.24.56-.28.54-.68.4-1.01-.1-.23-.4-.4-.76-.48,0-.03,0-.06,0-.09.16.03.3.07.44.12,0,0,0,0,0,0,.82.35.81,1.14-.1,1.61-.67.35-1.53.37-2.14.17,0,0,0,0,0,0,0,0,0,0-.01,0-.09-.03-.17-.07-.25-.1,0,0,0,0,0-.01ZM40.81,61.53c.06.03.12.05.19.07,0,.07.03.15.05.22,0,0,0,0,0,.01-.05-.02-.11-.03-.16-.05.01,0,.02,0,.02-.02-.01-.08-.06-.15-.1-.23ZM41.07,61.83s.06,0,.06-.01c0-.07-.04-.14-.07-.21.06.02.12.04.19.05.04.08.07.16.13.23-.11-.01-.21-.04-.3-.07ZM41.44,61.91c0-.08-.08-.16-.14-.23.05,0,.11.02.16.03.03,0,.05,0,.08,0,0,.02.02.03.03.05.03.05.05.1.09.15,0,0,0,0,.01,0-.08,0-.16,0-.23-.02ZM41.71,61.89s-.04-.06-.06-.09c-.01-.02-.04-.05-.06-.07.07,0,.15,0,.22,0,0,0,0,.02.01.03.02.04.03.09.05.13,0,0,.02.02.04.03,0,0,0,0,0,0-.08,0-.15,0-.23,0,0,0,0,0,.01,0,0-.01.02-.02,0-.03ZM42.43,61.85c-.17.04-.33.05-.48.06.02,0,.03-.01.02-.02-.01-.03-.03-.06-.05-.09,0-.01-.02-.02-.03-.04,0,0-.01-.02-.02-.03.07,0,.14,0,.21,0,0,.01,0,.02,0,.03.01.04,0,.09.04.12,0,0,.03.01.05,0,.06-.02.03-.07.01-.1-.01-.02-.02-.05-.04-.07.07,0,.14-.02.21-.03,0,.01.01.03.01.04,0,.04,0,.08.04.11,0,0,.02,0,.03.01h0ZM42.74,61.78c-.09.02-.18.04-.28.06,0,0,0,0,0,0,.04-.05,0-.11-.04-.17.1-.02.2-.04.29-.07,0,.03.01.06.02.08,0,.03,0,.06,0,.09ZM43.03,61.58s0,.07,0,.1c-.06.02-.13.04-.2.07,0-.01,0-.02-.01-.03-.01-.03-.02-.05-.03-.08,0-.02-.02-.03-.03-.05.09-.03.18-.06.27-.09,0,.03,0,.05,0,.07ZM43.11,61.65s0-.02-.01-.04c-.01-.04-.04-.08-.04-.12.04-.02.09-.03.13-.05.01,0,.02,0,.04-.01,0,.02,0,.03.01.04.02.03,0,.07.04.09-.05.03-.11.05-.17.08ZM43.42,61.41s0,.06,0,.08c-.03.02-.06.04-.09.05,0-.02,0-.04-.02-.06-.01-.02-.02-.05-.04-.08.05-.02.09-.05.14-.07,0,.03,0,.05,0,.07ZM43.58,61.37s-.05.04-.07.05c0-.04-.03-.09-.06-.12.04-.02.07-.05.1-.07,0,.01,0,.03.01.04,0,.03.01.06.02.09ZM43.71,61.26s-.04.04-.06.06c0,0,0,0,0-.01-.01-.03-.03-.06-.06-.09.05-.04.09-.07.13-.12.02.05,0,.1,0,.16ZM43.84,61.1s-.04.05-.06.08c0,0,0,0,0,0-.01-.03-.02-.06-.05-.09.1-.1.17-.21.22-.32,0,.11-.03.22-.11.33Z"/>
          <path class="cls-1" d="M39.2,60s.05.06.08.09c.02.02.05.03.07.05.01,0,.02.02.03.03,0,0,.02,0,.03,0,.16.09.36.16.57.21.58.15,1.37.04,1.92-.24.56-.28.55-.68.4-1.01-.15-.34-.7-.54-1.28-.54-.64,0-1.22.2-1.63.52-.2.16-.29.37-.32.55-.02.13.05.23.14.33ZM39.21,59.6c.03-.34.56-.68,1.08-.83.36-.11.77-.13,1.13-.08.31.06.55.2.71.37.12.13.15.3.16.45.01.2-.12.35-.34.52-.43.34-1.12.37-1.7.36-.28,0-.6-.14-.78-.24-.21-.12-.26-.35-.25-.54Z"/>
          <path class="cls-1" d="M37.17,59.84c.56-.28.55-.68.4-1.01-.15-.33-.7-.54-1.29-.54-.64,0-1.22.19-1.63.52-.2.16-.29.37-.32.55-.02.13.05.23.14.33.02.03.05.06.08.09.02.02.05.04.07.05.01,0,.02.02.03.03,0,0,.02,0,.03,0,.16.09.35.16.57.21.58.15,1.37.03,1.92-.24ZM34.49,59.29c.03-.34.56-.68,1.08-.84.36-.1.77-.13,1.13-.08.31.06.55.2.71.37.12.13.15.3.16.45,0,.19-.13.35-.34.52-.43.33-1.12.37-1.7.36-.28,0-.6-.14-.78-.24-.21-.12-.26-.35-.25-.54Z"/>
          <path class="cls-1" d="M41.26,44.41c.12.14.25.3.34.47.02-.23.08-.5.18-.73.02-.04.04-.09.06-.12.05-.1.12-.2.19-.29-.1-.05-.19-.12-.26-.18-.22-.21-.43-.47-.58-.74,0,.26-.12.53-.24.73-.08.13-.21.32-.36.44.24.11.48.23.66.43ZM41.29,43.16c.03.07.08.31.54.7-.15.19-.23.43-.27.67-.15-.28-.38-.52-.67-.64.23-.06.35-.42.4-.72Z"/>
          <path class="cls-1" d="M41.46,40.36c.07.08.15.18.2.28.02-.14.05-.3.11-.44,0-.03.02-.06.04-.08.03-.06.07-.12.12-.17-.06-.03-.11-.07-.16-.11-.13-.13-.26-.28-.35-.45,0,.16-.07.32-.15.44-.05.08-.12.19-.21.27.15.07.29.14.4.26ZM41.48,39.6s.05.19.33.42c-.09.11-.14.26-.16.4-.09-.17-.23-.31-.4-.39.14-.04.21-.26.24-.44Z"/>
          <path class="cls-1" d="M13.42,48.49c-.21-.2-.4-.44-.54-.7,0,.24-.11.5-.23.68-.08.12-.19.3-.33.41.23.1.45.22.61.41.11.13.23.28.32.43.02-.21.08-.46.17-.68.02-.05.04-.08.05-.12.05-.1.11-.19.18-.26-.09-.05-.18-.11-.24-.17ZM13.21,49.4c-.14-.26-.36-.48-.63-.6.21-.06.33-.4.37-.68.03.06.08.29.51.65-.13.17-.21.4-.25.62Z"/>
          <path class="cls-1" d="M32.64,60.33c-.17-.16-.33-.36-.45-.58,0,.2-.09.41-.19.57-.06.1-.16.25-.27.34.19.09.37.18.51.34.09.11.19.23.26.36.02-.18.07-.38.14-.57.01-.04.03-.07.04-.1.04-.08.09-.16.15-.22-.08-.04-.15-.09-.2-.14ZM32.46,61.09c-.11-.22-.3-.4-.52-.5.18-.05.27-.33.31-.56.02.05.07.24.42.54-.11.14-.18.33-.21.52Z"/>
          <path class="cls-1" d="M42.84,50.79c.07.08.15.18.2.28.01-.14.05-.3.11-.44.01-.03.02-.05.04-.08.03-.06.07-.12.12-.17-.06-.03-.12-.07-.16-.11-.13-.13-.26-.28-.35-.45,0,.16-.07.32-.15.44-.05.08-.12.19-.21.26.14.07.29.14.4.26ZM42.85,50.04s.05.19.33.42c-.09.11-.14.26-.17.4-.09-.17-.23-.31-.4-.39.14-.04.21-.26.24-.44Z"/>
        </g>
        <g>
          <path class="cls-1" d="M38.41,12.44c.92-.64,2.81-1.47,3.77-2.04.07-.04-3.22-.63-3.77-.77-.85-.21-1.76-.56-2.63-.43.12-.35,1.13-2.16,1.06-2.17-.33-.05-.66-.03-.99-.02-.15,0-1.11-.12-1.24.03.27-.29.49-.6.68-.96.2-.38,1.29-1.51,1.15-1.5-.24,0-1,.34-1.21.41.1-.33.12-.69.25-1.01.21-.5.46-.98.78-1.42.2-.28.49-.42.7-.68.07-.08.05-.22-.08-.23-.88-.03-1.71.12-2.47.53.18-.33.56-.63.81-.84.39-.33.89-.76,1.39-.91.1-.03.2-.25.05-.29-1.12-.31-2.45-.03-3.54.25-1.53.38-2.9,1.12-4.21,1.97-1.3.84-2.34,2.09-3.6,2.99-1.47,1.05-3.14.69-4.77.42-1.24-.2-2.61-.49-3.85-.17-1.35.35-2.68.95-3.7,1.91-.45.42-.92.83-1.25,1.35-.46.75-.98,1.34-1.62,1.94-.65.61-1.37,1.06-2.19,1.4-.34.14-.69.28-1.04.4-.31.11-.65.29-.99.37-.03-.11-.1-.21-.19-.29-.04-.36-.1-.72-.16-1.07-.1-.54-.07-1.13-.14-1.69.06-.29.1-.58-.03-.89-.37-.88-1.9-.25-2.38.1-.67.49-.78,1.36-.11,1.89.57.46.56,1.13.7,1.82.02.1.04.19.06.29-.01.01-.03.02-.04.03-.15-.29-.41-.7-.48-.75-.47-.28-.94-.37-1.49-.39-.31-.01-2.08.14-1.51.91.55.75,1.45,1.48,2.42,1.48.19,0,.35-.02.48-.07-.14.08-.27.16-.38.26-.3.28-.51.69-.66,1.07-.11.29-.26,1.51.35,1.39.58-.11,1.02-.74,1.29-1.22.19-.33.31-.66.36-.99,0,0,0,0,0,0,.03.16.05.32.08.48.21,1.43,2.8,13.54,2.92,14.14-.01-.01-.02-.02-.03-.03-.1-.76-.61-1.41-1.34-1.72-.27-.11-.75-.38-1.06-.26-.25.09-.14.43-.12.61.1.87.49,1.72,1.37,2.02.11.04.28.07.46.08-.17.06-.34.14-.5.27-.27.21-.46.51-.63.8-.14.25-.75,1.31-.22,1.45.27.07.75-.1,1.02-.18.33-.1.63-.26.87-.52.32-.34.41-.91.38-1.42.01,0,.02,0,.03,0,.54,4.1,7.1,31.46,7.2,31.74.23.65.79.99,1.5.98.62,0,1.42-.29,1.59-.97.19-.74-.13-1.49-.48-2.14-.58-1.08-1.05-2.06-1.33-3.26-.52-2.22-1.19-4.42-1.82-6.61-1.09-3.78-4.91-17.94-4.95-18.3-.08-.68-.21-1.36-.33-2.03,0-.02.01-.04.02-.06,1.32.69,2.88.54,4.3.21,1.7-.4,3.53-.28,4.93-1.39,1.36-1.08,2.54-2.69,3.95-3.72.28-.21.57-.31.89-.42,0,0,.02,0,.03,0,.05-.02.1-.04.16-.05.17-.06.28.01.41-.12.08-.09.08-.17.06-.29-.02-.15-.03-.3-.05-.45.08.35.18.68.43.74.23.05.55-.31.7-.43.39-.31.74-.69,1.14-1.01.87-.69,1.89-.75,2.91-1.04.4-.11.79-.24,1.17-.41.56-.26.99-.3,1.58-.15.09.02.16-.08.18-.15.11-.5-.47-1.03-.89-1.41,1.34.06,2.65.86,4,.36,1.23-.46,2.63-2.49,3.62-3.26.08-.06-1.75.22-2.11.2.2-.2.38-.4.52-.66.29-.54,1.25-1.64,1.07-1.62-.43.03-.86.12-1.26.28.16-.4.32-.81.52-1.19.34-.63.98-1.07,1.55-1.47ZM37.14,11.29c.08-.07.16-.12.24-.17.11-.11.22-.21.36-.27.08-.04.31-.16.39-.08.12.11.01.34-.04.46-.08.19-.1.49-.26.63-.18.15-.37.2-.6.18-.16-.01-.39-.09-.4-.29,0-.23.15-.32.31-.46ZM2.06,13.95c-.57-.15-1.21-.74-1.57-1.18-.24-.3.73-.3.82-.3.41,0,.83.05,1.23.17.32.09.55.3.73.57-.01,0-.02,0-.04-.01-.2-.08-.39-.11-.61-.11-.13,0-.25,0-.38-.03-.09-.02-.15-.06-.24-.06-.04,0-.06.06-.04.09,0,0,0,0,0,0,.25.28.59.4.9.62.1.07.21.15.33.2-.2.21-1.05.08-1.14.05ZM3.6,14.64c-.01.33-.13.64-.32.97-.04.07-.79,1.06-.85.63-.07-.51.22-1.06.54-1.43.06-.07.13-.14.2-.21-.01.03-.02.07-.03.1-.06.2-.16.44-.11.66,0,0,0,.01.02.01,0,0,.01,0,.02,0,.02,0,.04-.02.04-.04,0,0,0,0,0-.01,0,0,0,0,0,0,.02-.02.04-.04.05-.06.02-.07.04-.13.07-.19.07-.13.14-.26.21-.39.06-.11.11-.21.17-.32,0,.06,0,.12,0,.19,0,.03.01.06.02.08ZM6.75,31.62c-.19.52-.98.59-1.42.66-.41.07-.3-.22-.2-.5.09-.26.2-.51.34-.75.26-.45.66-.66,1.09-.87.03,0,.06,0,.09,0-.1.12-.18.24-.23.32-.26.34-.54.8-.65,1.22,0,.04.03.02.04,0,.18-.37.53-.73.84-1,.08-.07.17-.14.27-.21,0,.38-.01.75-.16,1.13ZM5.43,28.47c.29.23.54.48.81.73.18.16.36.43.56.6-.01.05-.01.09,0,.13-.42.23-1.42-.55-1.59-.75-.17-.21-.33-.42-.42-.68-.02-.05-.24-.85-.12-.84.61.06,1.23.39,1.64.83.22.23.38.51.51.8,0,0,0,.02.01.03-.15-.12-.32-.23-.46-.32-.31-.19-.61-.39-.93-.56-.01,0-.02.01-.01.02ZM3.61,11.17c-.04-.28-.44-.47-.65-.62-1.14-.83.44-1.27.75-1.44.4-.22,1.07-.32,1.35.07.08.5-.04.99-.08,1.51-.04.49-.05.95-.03,1.45,0,.13.01.27.02.41-.22.05-.45.14-.61.2-.14.05-.27.11-.4.17-.13-.58-.26-1.16-.36-1.75ZM7.44,29.82s-.02-.1-.03-.14c.15-.06.32-.12.49-.16,0,.02,0,.04.01.06,0,.03,0,.06.02.1-.15.06-.33.12-.48.14ZM7.95,29.91c0,.06.02.12.03.18-.04.02-.09.04-.13.05-.1.04-.22.07-.33.08-.01-.06-.03-.12-.04-.19.15-.03.31-.07.47-.12ZM4.04,13.25s0,0,.01,0c.12-.05.22-.09.33-.15.19-.06.38-.11.57-.14.02,0,.03,0,.05,0,.01.14.02.29.04.43-.29.13-.59.27-.9.22,0,0-.02,0-.02,0-.03-.12-.05-.23-.07-.34ZM5.07,13.73c.01.15.03.29.05.44-.09.05-.17.08-.19.09-.21.08-.45.09-.67.1-.02-.12-.04-.24-.07-.36.29.01.59-.15.88-.27ZM7.13,28.5c-.26-1.18-1.22-6.1-1.34-6.57-.27-1.08-.59-2.17-.79-3.27-.23-1.27-.47-2.53-.67-3.81.11-.01.2-.02.26-.03.18-.02.38-.09.57-.18.05.37.1.73.16,1.08.36,2.28.76,4.55,1.15,6.82.37,2.14.93,4.24,1.3,6.38.02.08.03.17.05.25-.09.02-.19.05-.27.06-.07.01-.15.04-.23.08-.06-.27-.13-.54-.19-.81ZM10.63,40.92c.62,2.2,1.29,4.38,1.9,6.59.59,2.15,1.22,4.3,1.88,6.43.65,2.08.88,4.29,1.98,6.2.27.48,1.35,2.85-1,2.52-.66-.1-1.09-2.75-1.27-3.34-.64-2.02-1.07-4.1-1.63-6.14-.62-2.24-1.13-4.51-1.61-6.79-.93-4.41-1.93-8.81-2.92-13.21h0c-.11-.62-.14-1.29-.27-1.92-.03-.25-.07-.51-.12-.76.06,0,.13-.02.19-.04.07-.02.17-.05.26-.09.03.2.07.4.11.61.23,1.12.51,2.23.76,3.34.5,2.21,1.12,4.41,1.73,6.59ZM10.17,26.34c-.26.68-.68,1.28-1,1.93-.13.27-.21.75-.44,1.02-.03-.11-.12-.17-.25-.19-.02,0-.04,0-.07,0-.03-.15-.05-.31-.08-.46-.34-2.23-.9-4.43-1.26-6.66-.37-2.36-.81-4.7-1.14-7.06-.04-.27-.07-.53-.1-.8,0,0,.02-.02.02-.03.07-.11.09-.2.08-.27.94,1.04,1.99,1.99,2.96,3,.52.54,1.04,1.15,1.5,1.75.59.77.64,1.77.88,2.68.48,1.81-.5,3.48-1.12,5.11ZM12.95,13.85c-1.01-.16-.64-1.36-.05-1.85-.35-.63-.38-1.1.22-1.62.5-.44,1.11-.27,1.29.35.1.34-.3,1.03.17,1.16.49.13.99.23,1.48.34.06.01.1.05.12.1.04.01.07.06.04.15-.1.38-.17.96-.46,1.22-.05.04-.13.09-.19.04-.37-.26-.76-.42-1.16-.61-.39-.19-.3-.15-.55.2-.2.29-.52.58-.91.52ZM18.72,19.37c-.26.21-1.87,1.62-1.64,1.85.3.29.47.82.13,1.17-.24.25-.78.56-1.06.15-.12-.17-.19-.33-.21-.54,0,0-.26.21-.35.27-.75.53-1.32-.88-.87-1.39.17-.2.39-.39.67-.4.47-.02.67-.07,1-.49.43-.56.93-1.25,1.45-1.71.05-.04.12-.08.19-.04.13.08.24.19.35.32.2.17.38.38.43.58.02.09-.03.17-.1.23ZM25.47,18.37c.07.43-.27.81-.75,1.12-.54.43-1.38.77-2.15.88-.21.04-.41.05-.59.04-.18,0-.35-.03-.5-.07-.59-.16-1.35-1.11-.84-1.66.24-.25.77.36.87-.03.04-.17.11-.43.31-.47.25-.05.91.22,1.05-.12.07-.18.13-.31.26-.45.25-.25.51,0,.78.05.23-.07.62-.59.88-.74.04-.02.1-.05.14-.01.29.25.44.64.46,1.05.03.15.06.3.08.42ZM25.66,15.87c0,.38-.11.65-.52.67-.07,0-.41-.15-.48-.27,0,0-.02,0-.03-.01-.08.18-.16.42-.28.58-.06.13-.15.23-.26.27-.08.03-.16.03-.24.03-.23.04-.48-.03-.7-.17-.15.02-.28.07-.34.24-.05.14-.09.3-.16.44-.07.14-.19.3-.37.29-.2.03-.42-.2-.58-.4-.03-.01-.05-.02-.08-.01-.17.44-.25.91-.92.62-.19-.08-.47-.26-.62-.16-.19.46-.65,1.3-1.06.83-.23-.27-.18-.94-.17-1.26,0-.34.14-.88,0-1.22-.32,0-.57-.11-.86-.23-1.58-.66-2.23-2.44-1.44-3.97.7-1.36,2.34-2.83,3.91-3.01,1.48-.18,3.36.31,4.19,1.67.37.61.64,1.48.51,2.2-.06.36-.17.71-.38,1.01-.06.08-.12.2-.2.26-.04.03-.07.05-.09.07.33.4,1.2.93,1.19,1.52ZM24.42,9.69c-.07-.01-.12-.08-.06-.2.24-.52.92-1.07,1.44-1.31-.02,0-.09-.79-.05-.9.06-.2.22-.35.36-.5.3-.33,1.12-.4,1.41-.02.33.43.07.78-.24,1.12.02-.03.59.24.74.33.13.08.16.34.13.46-.11.42-.38.92-.9.78-.24-.07-.3-.18-.51-.27-.11-.05-.63.51-.75.63-.19.2-.34.56-.57.71-.35.23-.84-.57-1-.84ZM30.14,15.03c.01.2-.44.85-.42.87.53.76.25,1.62-.77,1.47-.57-.08-.3-1-.8-1.1-.66-.13-1.36-.14-2-.28-.07.03-.15,0-.15-.1,0-.17.03-.34.07-.51,0-.02,0-.04,0-.06.01-.16.02-.3.12-.43,0,0,.01-.02.02-.02.02-.05.05-.09.11-.1,0,0,0,0,.01,0,.04-.03.08-.05.13-.04.35.08,1.98.56,2.18.18.17-.33.39-.56.77-.6.44-.05.71.34.74.71ZM34.06,18c-.05.26-.35.61-.58.73-.14.07-.44.22-.57.05-.17-.23-.16-.58-.12-.84.05-.31.04-.71.23-.98.06-.08.17-.09.18,0,.22-.07.46.22.6.35.2.19.32.43.26.71ZM32.18,6.19c-.13-.4-.31-.77-.51-1.15-.06-.12.02-.38.14-.65.02,0,.04-.02.06-.04.24-.35.5-.66.76-.98.02-.02.02-.03.02-.04,0,.01.03.03.09.05.3.11.24.37.15.62-.24.71-.45,1.48-.72,2.19ZM32.71,6.31c-.05-.2.08-.43.18-.6.06-.11.13-.21.2-.31.17-.29.59-.84.8-.48.09.16-.09.5-.15.64-.11.25-.18.55-.33.78-.07.12-.24.36-.4.37-.18,0-.27-.26-.3-.4ZM35.94,12.85c-.34.61-.8,1.47-1.37,1.9-.04.02-.08.03-.11,0-.38-.18-.26-1.36-.24-1.69.02-.35.08-.72.23-1.03.02-.22.06-.44.2-.56.25-.23.52-.21.85-.23.21-.01.72-.13.91,0,.43.29-.32,1.34-.47,1.6Z"/>
          <path class="cls-1" d="M17.33,14.33c-.21-.28-.3-.6-.17-.93.11-.28.31-.5.58-.64.04-.02.04.04.02.06-.4.38-.39.89-.27,1.39.01.07-.09.21-.15.12ZM19.47,15.83c-1.08-.17-1.98-.98-1.77-2.16.04-.22.13-.38.27-.51.03-.04.07-.09.12-.13.06-.05.14-.11.21-.15,0,0,.02-.01.03-.02,0,0,0,0,.01,0,.12-.07.26-.11.4-.1.35-.08.75-.12,1.03.06.45.29.85.78,1.02,1.29.33.97-.22,1.9-1.32,1.73ZM22.63,10.47c.18-.13.67-.07.83.08.23.22.42.51.44.84,0,.07-.09.21-.17.14-.2-.15-.24-.41-.4-.6-.1-.12-.22-.22-.37-.29-.08-.04-.25-.15-.33-.14-.03,0-.01-.03,0-.04ZM22.68,16.31c-.15.27-.73.57-1.03.46-.31-.11-.42-.5-.44-.85-.08-.33-.09-.69.08-.96.25-.37.83.15,1.04.33.3.26.57.63.35,1.02ZM23.24,14.55c-.35.34-.75.36-1.2.21-.5-.16-.68-.66-.8-1.12-.2-.81.02-2.02.83-2.44.49-.25,1.15-.07,1.46.39.58.88.47,2.22-.29,2.95Z"/>
        </g>
      </g>
      <g>
        <g>
          <path class="cls-1" d="M51.67,47.84c-.13-.17-.38-.24-.62-.27-.09-.04-.18-.04-.27-.03h0s-.01,0-.02,0c-.06.01-.11.02-.16.04-.04.02-.07.04-.11.05-.11.05-.21.13-.28.25-.41.68-.03,1.39.59,1.74.64.36,1.19-.09,1.21-.76.01-.35-.12-.75-.33-1.03Z"/>
          <path class="cls-1" d="M53.46,47.38c-.6.07-1.01.77-1.07,1.32-.04.31-.04.66.23.88.25.19.5.27.79.14.64-.28,1.02-1.08.86-1.76-.08-.36-.45-.62-.81-.58Z"/>
          <path class="cls-1" d="M50.43,47.38s.03-.04,0-.04c-.19.02-.37.12-.5.26-.16.18-.17.4-.11.62.02.07.11,0,.12-.04.04-.33.15-.65.49-.8Z"/>
          <path class="cls-1" d="M52.12,49.52c-.17.13-.25.35-.27.57-.07.22-.09.48.08.63.16.14.59.09.74-.05.22-.19.14-.48.02-.71-.09-.16-.33-.62-.56-.44Z"/>
          <path class="cls-1" d="M57.59,47.87c-.13-.17-.38-.24-.62-.27-.08-.04-.18-.04-.27-.03,0,0,0,0,0,0,0,0-.01,0-.02,0-.06,0-.11.03-.16.05-.04.01-.07.03-.11.05-.11.05-.21.13-.28.25-.41.68-.03,1.39.59,1.74.64.36,1.19-.08,1.21-.76.01-.35-.12-.75-.33-1.03Z"/>
          <path class="cls-1" d="M56.35,47.42s.03-.05,0-.04c-.19.02-.37.12-.5.26-.16.18-.17.4-.11.62.02.07.12,0,.12-.04.05-.33.15-.65.49-.79Z"/>
          <path class="cls-1" d="M58.04,49.55c-.17.13-.25.35-.27.57-.07.22-.09.49.08.63.16.14.59.09.74-.04.22-.19.14-.48.02-.71-.08-.16-.33-.62-.56-.44Z"/>
          <path class="cls-1" d="M59.84,51.59s-.06-.03-.09-.03c-.19.03-.55.27-.71.26-.15-.09-.26-.31-.47-.21-.12.06-.18.12-.27.22-.16.18-.51-.14-.68-.17-.13-.02-.23.13-.3.22-.15.22-.34-.28-.55-.18-.44.22-.19.98.14,1.22.08.06.18.11.28.15.07.06.15.1.26.14.14.04.28.04.43.03.43.05.88.02,1.23-.1.36-.08.66-.24.72-.52.02-.08.04-.18.05-.28.08-.25.08-.53-.04-.75ZM57.64,52.8s-.06-.04-.09-.06c.13,0,.26,0,.39.01-.08.01-.2.04-.3.05ZM58.48,52.45c-.35.05-.69.11-1.03.2-.04-.04-.09-.08-.13-.13-.1-.1-.21-.17-.3-.27-.1-.09-.12-.21-.16-.33.09.06.2.22.25.26.03.02.07,0,.1,0,.14-.05.22-.12.29-.26.07-.13.4.24.53.21.18-.04.28-.09.41-.22.21-.2.29-.06.4.04-.11,0-.21.03-.32.06-.03,0-.08.08-.02.08.08,0,.17.05.25.06-.08.05-.16.09-.25.1-.03,0-.07.06-.03.08.07.03.16.05.24.06-.08.02-.16.03-.22.04Z"/>
          <path class="cls-1" d="M46.91,41.01s.03-.04,0-.04c-.19.02-.37.12-.5.26-.16.18-.17.4-.11.62.02.07.11,0,.12-.04.04-.33.15-.65.49-.79Z"/>
          <path class="cls-1" d="M48.41,44.34c.16.14.59.09.74-.04.22-.19.14-.48.02-.71-.08-.16-.33-.62-.56-.44-.17.12-.25.35-.27.57-.07.22-.09.49.08.63Z"/>
          <path class="cls-1" d="M49.68,35.14c-.4.68-.03,1.39.59,1.74.64.36,1.19-.09,1.21-.76,0-.35-.12-.75-.33-1.03-.13-.17-.38-.24-.62-.27-.08-.03-.18-.04-.27-.03,0,0,0,0,0,0,0,0-.01,0-.02,0-.06,0-.11.02-.16.04-.04.02-.07.03-.1.05-.11.05-.21.13-.28.25Z"/>
          <path class="cls-1" d="M52.1,36.82c.25.19.5.27.79.14.64-.28,1.02-1.08.86-1.76-.08-.36-.45-.62-.81-.58-.6.07-1.01.77-1.07,1.32-.03.31-.04.66.24.88Z"/>
          <path class="cls-1" d="M49.9,34.63s.03-.05,0-.04c-.19.02-.37.12-.5.26-.16.18-.17.4-.11.62.02.07.11,0,.12-.04.04-.33.15-.65.49-.79Z"/>
          <path class="cls-1" d="M53.95,36.98c.2-.14.35-.33.47-.54.25-.42.28-1.01.19-1.48-.2-1.03-1.25-1.76-2.21-2-1.02-.25-2.36.28-3.11.96-.83.76-.84,2.01-.02,2.78.15.14.29.26.48.34-.15.18-.19.41-.23.64-.02.04-.04.08-.05.11-.08.2-.27.6-.18.82.15.38.62-.03.84-.27.12-.03.25.14.35.24.35.33.5.07.71-.17.02,0,.03.01.04.03.06.16.14.35.27.38.11.05.22-.02.3-.09.08-.07.13-.16.2-.23.08-.09.17-.09.26-.07.1.14.24.23.4.26.05.02.1.04.16.04.08,0,.16-.04.22-.11.12-.08.22-.2.31-.3h.01c.01.1.19.28.23.29.15.04.25.02.33-.06.1.02.26-.15.22-.27-.01-.04-.03-.08-.05-.12,0-.35-.32-.78-.41-1.06.02,0,.04-.01.07-.02.07-.02.13-.08.18-.11ZM52.73,37.26c.08,0,.16,0,.25-.02.01,0,.03,0,.05,0-.05.04-.09.09-.12.15-.03.07,0,.13.08.15.08.02.17.02.26.03-.04.03-.06.06-.08.11-.06.13.04.21.16.23.26.07.39.26.49.48-.03.02-.06.04-.09.02-.11-.05-.18-.2-.25-.28-.05-.06-.14-.07-.21-.04-.11.05-.15.18-.2.27-.12.2-.3.19-.47.11-.16-.16-.35-.4-.49-.31-.04.06-.09.12-.13.18-.03.04-.07.1-.11.16,0,0-.01,0-.02,0-.3.21-.27-.4-.52-.4-.18,0-.29.13-.38.27-.18.28-.47-.27-.67-.27-.15,0-.28.16-.41.29h0c.06-.13.21-.26.29-.35.13-.14.3-.25.41-.4.06-.08.1-.26,0-.29.06-.04.13-.06.19-.06.05,0,.1-.08.04-.1-.18-.04-.44.1-.6.19-.01,0-.03.02-.04.02,0,0,0-.02,0-.03,0,.05.05-.11.07-.14,0,0,0,0,0,0,.02-.05.03-.11.01-.17,0-.02.01-.04.02-.05.01-.03-.03-.03-.04-.01,0,0,0,0,0,0-.03-.05-.07-.07-.12-.08-.38-.2-.66-.42-.92-.8-.54-.76-.11-1.8.59-2.26.8-.53,1.84-.8,2.76-.57-.24,0-.48.03-.7.05-.59.06-1.02.23-1.5.57-.02.01-.01.04,0,.03.51-.22,1.01-.3,1.53-.31-.55.14-1.07.38-1.41.63-.03.02-.03.09.02.07.58-.33,1.26-.45,1.92-.43.26.01.47.09.67.19-.44-.03-.9.05-1.28.16-.04.01-.07.09,0,.08.53-.08,1.03-.01,1.52.2.23.1.38.32.54.51,0,.07.03.13.06.19,0,.02.02.02.04.02.03.26.03.52-.01.79,0,.05.01.07.04.08-.02.05-.04.1-.07.15-.16.29-.41.51-.63.75-.2.04-.44.15-.52.2-.02,0-.03.05,0,.05Z"/>
          <path class="cls-1" d="M51.4,37.97c.16.14.59.09.74-.04.22-.19.14-.48.02-.71-.09-.16-.33-.62-.56-.44-.17.12-.25.35-.27.57-.07.22-.09.48.08.63Z"/>
          <path class="cls-1" d="M52.9,41.43c.01.07.11,0,.12-.04.07-.33.2-.64.54-.76.02,0,.03-.04,0-.04-.19.01-.38.09-.52.23-.17.17-.2.39-.15.61Z"/>
          <path class="cls-1" d="M61.06,47.75c-.2-1.02-1.23-1.75-2.19-1.99.14-.07.25-.22.33-.36.04-.08.06-.25,0-.32-.08-.08-.4-.34-.42-.33.25-.17.47-.35.34-.68-.12-.29-.66-.38-.9-.22-.11.07-.24.15-.31.26-.04.07-.12.59-.11.58-.15.03-.32.08-.49.16.08-.05.14-.14.19-.25.17-.35-.21-.91-.3-1.24.02,0,.04-.01.07-.02.07-.02.14-.07.19-.1.21-.13.37-.31.51-.51.27-.4.35-.99.29-1.46-.13-1.04-1.12-1.84-2.07-2.14-.84-.27-1.96,0-2.76.47,0-.02,0-.05.01-.07.08-.25.08-.53-.04-.75-.02-.03-.06-.03-.09-.02-.19.03-.55.27-.71.26-.15-.09-.26-.31-.47-.21-.12.05-.18.12-.27.22-.16.18-.51-.14-.68-.17-.13-.02-.23.13-.3.22-.15.22-.34-.28-.55-.18-.25.13-.28.43-.19.71-.24-.12-.48-.21-.73-.27-1.02-.25-2.36.28-3.11.96-.83.76-.84,2.01-.02,2.78.15.14.29.26.48.34,0,.22-.15.48-.25.68-.16.28-.27.6-.32.89,0,.04,0,.07,0,.11-.15.01-.31.02-.45.03-.35.03-.46-.05-.68-.27-.13-.13-.32-.15-.49-.15-.45,0-.88.91-.29,1.04.07.02.29.04.29.05-.09.1-.14.21-.17.34-.05.22.11.34.3.41-.45.24-.85.55-1.14.87-.75.84-.62,2.09.28,2.77.16.12.31.23.51.29.04.24-.14.56-.2.78-.05.2-.2.62-.09.83.19.37.61-.1.81-.36.12-.04.26.12.37.2.38.29.51.01.69-.24.02,0,.03,0,.05.02.07.15.18.34.31.35.11.04.22-.05.28-.12.07-.08.12-.17.17-.25.07-.1.16-.11.25-.1.12.13.27.21.42.22.05.01.11.02.16.02.08,0,.15-.06.21-.13.11-.09.19-.22.27-.33,0,0,0,0,.01.01.02.08.22.24.26.25.05,0,.09,0,.12,0,.01,0,.02,0,.03.01.18.04.36-.18.38-.34.02-.2-.09-.39-.2-.55-.13-.24-.31-.47-.4-.64.02,0,.04-.02.07-.03.06-.03.12-.09.17-.13.19-.16.31-.37.41-.58.2-.44.17-1.04.03-1.49-.14-.45-.45-.83-.83-1.11,0,0,.01,0,.02,0,.5.11,1.1.1,1.53-.05.05-.01.1-.02.14-.04-.82.76-.83,2-.01,2.77.15.14.29.26.48.34,0,.24-.2.54-.28.75,0,0,0,0,0,.01-.14-.1-.35-.12-.56,0-.47.24-.52.54-.4,1-.46.21-.89.92-.27,1.18.24.1.49-.03.66-.19.21-.19.16-.23.38-.04.22.19.45.36.64.58.03.04.09.02.13,0,.12-.06.21-.19.3-.34.04.04.07.08.11.11.08.06.18.11.3.16.11.05.23.09.37.11.5.11,1.1.1,1.53-.05.36-.08.66-.24.72-.52,0-.03.01-.07.02-.1.35.16.75.27,1.1.45.31.15-.02.69.33.83.63.26.95-.24.73-.81,0-.02.39-.36.41-.49.04-.24-.07-.53-.36-.57-.25-.04-.43.08-.59.26-.19.21-1.15-.36-1.36-.47-.03-.01-.06,0-.09,0,0,0,0,0,0,0-.03,0-.06.02-.08.04,0,0-.01,0-.02.01,0,0,0,0-.01.01-.02-.07-.04-.13-.07-.19-.02-.03-.06-.03-.09-.03-.19.03-.55.27-.71.26-.15-.09-.26-.3-.47-.21-.12.06-.18.12-.27.22-.16.18-.51-.14-.68-.17-.13-.02-.23.13-.3.22-.15.22-.34-.28-.55-.18-.15.07-.22.21-.23.36-.17-.08-.33-.17-.5-.26-.1-.06-.12-.14-.1-.23.2,0,.48-.26.64-.43.12-.02.25.14.35.24.35.33.5.07.71-.17.02,0,.03.01.04.03.06.16.14.35.27.38.11.05.22-.02.29-.09.08-.07.13-.16.2-.23.08-.09.17-.09.26-.07.1.14.24.23.4.27.05.02.1.03.16.03.08,0,.16-.04.22-.11.11-.07.22-.2.31-.3,0,0,0,0,.01.01.01.09.19.26.23.28.08.02.14.03.19.01,0,0,.02.01.03.02.09.05.21-.06.23-.14.02-.07.03-.14.02-.2.12-.33-.22-.82-.36-1.14.07-.05.13-.11.19-.17.01,0,.03-.02.04-.03.2-.14.35-.33.47-.54.11-.19.18-.43.21-.67.08.36.27.69.56.97.15.14.29.26.48.34,0,.25-.2.54-.28.75-.08.2-.27.6-.18.82.15.38.62-.03.84-.27.12-.03.25.14.35.24.35.33.5.07.71-.17.02,0,.03.01.04.03.06.16.14.35.27.38.1.05.22-.02.29-.09.08-.07.13-.16.2-.23.08-.09.17-.09.26-.07.11.14.24.23.4.26.05.02.1.04.16.04.08,0,.16-.04.22-.11.11-.07.22-.2.31-.3,0,0,0,.01.01.01.01.09.19.26.23.28.26.08.38-.06.48-.3.12-.32-.18-.77-.33-1.09.17-.11.32-.25.41-.43.1-.11.19-.23.27-.36.25-.42.28-1.01.19-1.48ZM54.04,52.09c.02-.06.05-.12.08-.18.25.14.54.3.81.37.17.05.47.26.66.15.04-.02.07-.06.09-.09.67-.76.52.3.32.42-.09.05-.15.13-.14.24,0,.05.06.17.08.21-.48.24-.66.17-.53-.2,0-.02,0-.03,0-.04-.06-.19-.34-.25-.5-.32-.26-.11-.57-.3-.85-.35-.04,0-.04-.1,0-.2ZM53.55,51.86s.05-.03.07-.04c.07-.02.11,0,.12.02-.02,0-.04,0-.07,0h0s-.04,0-.05.01c-.04.01-.09.03-.13.04.02-.01.04-.02.07-.04ZM50.98,51.92c.08.07.17.19.22.23.03.02.07,0,.1,0,.14-.05.22-.12.29-.26.07-.13.4.24.53.21.18-.04.28-.09.41-.22.3-.29.34.13.57.13,0,0,.01,0,.02,0-.11.04-.38.15-.48.1-.07-.04-.17.09-.12.15.09.09.28.09.4.07.03,0,.06,0,.09-.01-.01.03-.02.05-.02.08,0,.05,0,.09,0,.11-.17.03-.33.07-.5.14-.08.03-.14.13-.11.22.02.05.05.09.08.12-.07,0-.14,0-.21,0-.17,0-.34-.02-.5-.05,0-.03-.01-.05-.04-.07-.11-.06-.2-.13-.28-.21-.08-.08-.12-.2-.19-.29-.07-.09-.13-.18-.19-.27-.04-.06-.05-.13-.07-.2,0,0,0,0,0,0ZM50.65,52.29c.01.06.03.11.05.16-.07.1-.15.19-.21.3-.15-.15-.3-.27-.46-.41-.08-.06-.21-.24-.33-.23-.08,0-.14.05-.19.12-.13.17-.55.54-.77.12-.14-.26.27-.59.45-.65.06-.02.12-.09.09-.15-.1-.24-.24-.53.04-.74.22-.16.47-.15.6,0-.07.19-.14.42-.08.56.01.04.03.06.05.08-.05.13-.1.27-.04.32.24.21.54.34.81.51ZM57.65,44.97c.08-.02.15-.04.21-.05.14-.03.19-.07.25-.18.03-.05,0-.13,0-.18-.06-.34.06-.57.46-.55.27.01.46.4.19.55-.07.04-.12.07-.18.12-.03.03-.06.08-.04.13.05.12.15.17.24.25.38.37-.06.76-.4.31-.16-.22-.66.2-.79.27-.12.06-.25.15-.35.25-.03,0-.05.02-.08.03-.05-.12-.25-.48-.28-.54,0,0,.46-.23.78-.4ZM58.42,45.7c-.25-.01-.5.01-.75.07.13-.08.49-.31.55-.27.09.07.12.13.2.2ZM56.9,46.01c-.07.03-.15.07-.22.1,0-.01.01-.03.02-.04.02-.08.04-.18.07-.28,0,0,0-.02,0-.03.04.09.08.17.13.24ZM56.09,39.42c-.08,0-.16-.01-.24-.01-.09-.03-.18-.05-.27-.07.17.01.34.04.51.08ZM53.46,39.85c.37-.21.79-.36,1.21-.45-.4.12-.78.34-1.12.63-.01,0,0,.03,0,.02.39-.28.77-.41,1.15-.44-.4.13-.82.34-.88.61,0,.03.03.01.04,0v-.02s0,0,0,0c.48-.19,1.04-.38,1.61-.42.28-.02.56.04.82.13-.5-.03-1.19.09-1.38.5-.01.03.03.03.04,0,.24-.33.78-.26,1.22-.1-.47.08-.94.26-1.29.5,0,0,0,.01,0,.01.61-.15,1.23-.15,1.79.02-.03,0-.06,0-.09,0-.6.03-1.06.7-1.16,1.24-.06.31-.08.66.17.89.23.21.48.31.78.2.66-.23,1.09-1.01.98-1.7-.03-.19-.14-.35-.29-.47.06.03.11.05.16.09.08.1.15.19.22.28,0,.03.01.05.02.07,0,.06,0,.11,0,.17-.02.35-.1.68-.23.99-.29.34-.62.52-.99.75-.15.09-.25.42,0,.45.06,0,.12,0,.18,0,0,.04.01.07.04.11.12.14.34.04.42.22.09.21.17.34.3.52-.02.01-.05.02-.07,0-.1-.05-.17-.21-.23-.29-.05-.07-.13-.08-.21-.05-.11.04-.16.17-.22.26-.13.19-.31.17-.48.07-.15-.17-.32-.42-.47-.34-.05.05-.09.11-.14.16-.04.04-.08.1-.12.15,0,0-.01,0-.02,0-.32.19-.24-.42-.49-.44-.18-.01-.3.11-.39.24-.2.27-.45-.3-.65-.31-.16,0-.32.16-.46.3-.08.06-.16.12-.27.14,0,0,0,0-.02,0-.07-.06.05-.38.06-.4,0,0,0-.02,0-.03.07-.16.16-.31.24-.45.07-.12.13-.25.21-.37,0,0,0,0,0,0,.04.07.09.18.17.2.14.04.25.01.37-.07.1-.07.17-.22.16-.34,0-.02,0-.03-.01-.04.46.08.84-.29.89-.83.04-.35-.07-.76-.26-1.05-.12-.18-.37-.26-.6-.31-.08-.04-.18-.05-.27-.05h0s-.01,0-.02,0c-.06,0-.11.02-.17.03-.04.01-.08.03-.11.05-.11.04-.21.12-.3.23-.44.63-.14,1.34.42,1.74-.02,0-.04,0-.06.01-.06.01-.14-.02-.2-.04,0,0,0,0-.01,0-.3-.21-.52-.43-.73-.77-.37-.6-.17-1.32.26-1.81.18-.08.32-.19.38-.34.04-.02.07-.05.11-.07ZM50.67,39.4s.07,0,.09,0c.15-.05.22-.12.29-.26.07-.14.41.24.53.21.18-.04.28-.09.41-.22.3-.29.34.13.57.13.08,0,.15-.01.21-.03,0,0,0,0,0,0,.04.64-.71.76-1.17.73-.52-.03-.99-.1-1.24-.61-.01-.02-.04-.02-.05,0,0-.04,0-.07,0-.1,0-.34.27.08.36.15ZM46.65,42.99s-.03-.01-.04,0c-.16-.14-.31-.29-.45-.5-.54-.75-.11-1.8.59-2.26.74-.49,1.69-.76,2.56-.61-.72.02-1.49.32-1.88.72-.03.03,0,.07.03.04.69-.55,1.57-.53,2.37-.28-.09,0-.18-.01-.26-.01-.3,0-1.04-.04-1.19.29-.02.04.04.04.06.01.19-.31,1.26-.03,1.53.04.25.07.43.23.62.38.01.01.02.02.03.03-.5-.18-1.03-.19-1.56-.26-.02,0-.05.04-.03.05.36.13.73.22,1.08.37-.05,0-.11,0-.16,0-.6.07-1.01.77-1.07,1.32-.04.31-.04.66.23.87.25.2.5.27.79.14.64-.28,1.02-1.08.86-1.76-.02-.09-.06-.18-.12-.25.17.14.29.32.4.51.1.19.06.38.28.47.02,0,.03,0,.05,0-.11.44-.4.8-.82,1-.02,0-.03.02-.05.03,0,0,0,0,0,0-.1.03-.2.07-.3.11-.16.06-.33.17-.49.19-.04,0-.09.08-.04.1.01,0,.03,0,.04,0-.09.06-.14.26.02.22.04,0,.18-.04.32-.07-.01,0-.03.01-.04.02-.06.05-.13.19-.03.23.12.05.25.03.38.01.05.1.15.17.21.28.06.11.1.21.16.32,0,0-.01,0-.02,0-.11-.05-.18-.2-.25-.28-.05-.06-.14-.07-.21-.03-.1.05-.15.18-.2.27-.12.2-.3.19-.47.11-.16-.16-.35-.4-.49-.31-.04.06-.09.12-.13.17-.03.04-.07.1-.11.16,0,0-.01,0-.02,0-.3.21-.27-.4-.52-.4-.18,0-.29.13-.38.27-.18.28-.47-.27-.66-.27-.11,0-.22.09-.31.19.04-.23.1-.46.15-.69.02-.1.05-.18.08-.27.02.03.05.05.08.06.26.12.55-.11.58-.38h0c.37-.07.62-.42.64-.88.01-.35-.12-.75-.33-1.03-.13-.17-.39-.24-.62-.27-.09-.04-.18-.04-.27-.03h0s-.01,0-.02,0c-.06,0-.11.02-.17.04-.04.01-.07.03-.1.05-.11.05-.21.13-.28.25-.34.56-.14,1.15.3,1.53-.14.01-.31.02-.33-.07ZM51.17,41.16s.06,0,.08,0c.02.04.03.08.05.12-.04-.04-.09-.08-.13-.12ZM44.79,45.84s.03-.05.01-.07c-.11-.23-.79.03-.54-.52.16-.35.6-.32.85.01.03.04.08.07.12.09.37.09.87-.04,1.25-.04.2,0,.4-.01.6-.02-.02,0-.02.36-.01.51,0,.02,0,.03,0,.03-.42-.04-.83-.08-1.25-.06-.14,0-.36-.03-.47.04-.03.02-.07.06-.08.1-.01.12-.04.24-.07.35-.53,0-.66-.14-.4-.41ZM47.09,46s.04,0,.06,0c.04.12.1.24.16.33-.25-.09-.51-.16-.76-.19-.36-.05-.76,0-1.14.12.03-.08.05-.16.06-.25,0-.22,1.41-.06,1.63-.02ZM48.79,48.37c.12.65-.15,1.27-.69,1.59-.02.01-.03.02-.04.03-.02.03-.03.07-.01.09.02.04.05.08.07.12-.02-.02-.04-.03-.06-.05-.02-.02-.05.01-.05.03.02.28.04.55.1.82,0,.04.02.09.03.13-.06-.05-.14-.05-.2,0-.1.06-.13.19-.17.29-.09.21-.28.22-.46.16-.18-.14-.39-.36-.52-.26-.04.06-.08.13-.11.19-.03.05-.06.11-.09.17,0,0-.01,0-.02.01-.28.24-.31-.38-.56-.34-.18.02-.28.16-.35.3-.15.3-.49-.22-.69-.2-.16.02-.29.22-.4.38-.07.07-.14.14-.24.18,0,0-.01,0-.02,0-.08-.05-.02-.38-.01-.41,0,0,0-.02,0-.03.04-.17.1-.33.16-.49.08-.25.18-.5.27-.75-.44-.17-.75-.36-1.08-.72-.62-.69-.3-1.78.35-2.31.44-.36.97-.64,1.52-.79-.14.11-.27.26-.38.38-.28.29-.67.55-.86.91-.01.03.02.05.04.02.22-.27.58-.48.85-.71.02-.02.04-.03.06-.05-.09.2-.08.38.11.44.01,0,.04-.02.02-.03-.19-.13-.03-.36.1-.5.03.08.07.16.1.22.06.11.11.23.16.35.04.12.06.29.17.37.05.03.12-.03.11-.08h0c-.05-.19-.07-.38-.11-.56.11-.01.23-.06.33-.08.18-.04.36-.1.54-.16.03-.01.04-.07,0-.06-.29.03-.63-.01-.92.07,0-.01,0-.02,0-.04-.02-.06-.04-.18-.07-.27.12-.08.26-.14.39-.21.03-.02.07-.06.08-.1.57-.01,1.13.14,1.62.52.48.38.84.82.95,1.44ZM49.56,45.96c-.03.16-.12.33-.1.5,0,.05.03.08.05.1-.06.01-.11.03-.17.04-.04,0-.09.01-.14.02-.16.01-.32.03-.48.03-.1,0-.19,0-.29-.02.01-.06,0-.13-.02-.2.03-.04.06-.08.09-.12.08-.09.17-.17.23-.28.04-.08-.02-.16-.1-.09-.13.1-.21.23-.27.38-.08-.14-.22-.26-.35-.28,0,0-.03.02-.01.02.12.09.13.24.15.38,0,.04,0,.09.01.14-.21-.05-.41-.13-.56-.26-.09-.09-.16-.19-.22-.3-.04-.09-.06-.19-.07-.28.01-.07.02-.14.02-.22.07-.08.27.21.34.27.03.02.07,0,.1,0,.14-.05.22-.12.29-.26.07-.14.41.24.53.21.18-.04.28-.09.41-.22.3-.29.34.14.57.14.02,0,.03,0,.05,0-.03.1-.04.22-.06.32ZM49.6,45.41c-.15-.09-.26-.31-.47-.21-.12.05-.18.12-.27.22-.16.18-.51-.14-.68-.17-.13-.02-.23.13-.3.22-.15.22-.34-.27-.54-.19,0-.04,0-.08-.01-.12,0-.05-.06-.07-.1-.07-.13-.01-.26-.02-.4-.02.02-.03.04-.07.06-.1.1-.08.19-.17.26-.24.12-.03.25.14.35.24.35.33.5.07.71-.17.02,0,.03.01.04.03.06.16.14.35.27.38.11.05.22-.02.3-.09.08-.07.13-.16.2-.23.08-.09.17-.09.26-.07.1.14.24.23.4.26.05.02.1.04.16.04.08,0,.16-.04.22-.11.12-.08.22-.2.31-.3h.01c.01.1.19.28.23.29.26.08.38-.06.48-.3.14-.35-.24-.85-.37-1.18.02-.01.03-.03.05-.06,0,0,0,0,.01,0,.07-.02.13-.08.18-.11.2-.14.35-.33.47-.54.25-.42.28-1.01.19-1.48-.07-.35-.24-.67-.46-.94.47.1,1.01.09,1.43-.03-.45.7-.39,1.63.22,2.3.14.15.27.28.46.37,0,.25-.24.53-.33.74-.09.19-.31.58-.24.8.12.39.62.01.86-.21.12-.02.24.16.33.26.32.36.5.1.72-.12.02,0,.03.02.04.03.05.16.12.36.24.4.1.06.22,0,.3-.07.08-.06.14-.15.21-.22.08-.09.17-.08.27-.05.09.14.23.25.38.29.05.02.1.04.16.04.08,0,.16-.03.23-.09.12-.07.23-.19.33-.28,0,0,0,0,.01.01,0,.09.17.28.21.29.09.03.17.04.24.02-.15.07-.3.16-.42.26-.01-.04-.02-.08-.04-.12-.01-.03-.06-.03-.09-.03-.19.02-.57.23-.73.21-.15-.1-.24-.32-.45-.24-.12.05-.19.11-.28.2-.18.17-.5-.17-.66-.21-.13-.03-.24.11-.31.2-.17.21-.32-.31-.53-.22-.31.13-.32.53-.19.86-.21-.04-.42-.06-.62-.08-.8-.18-1.79.11-2.54.57,0-.02.02-.04.02-.07.02-.08.03-.18.05-.28.08-.25.08-.53-.04-.75-.02-.03-.06-.03-.09-.02-.03,0-.06.02-.1.03-.07-.01-.15.03-.21.09-.15.07-.31.14-.4.14ZM54.16,49.64s-.06.03-.09.04c-.02,0-.03.02-.05.03-.02.03-.04.06-.02.09,0,0,0,0,0,0-.07.04-.14.08-.21.11-.07.03-.15.2-.03.2.09,0,.17-.02.26-.05.01.23.01.46.05.68.02.09.03.19.05.29-.05-.06-.09-.13-.13-.17-.05-.06-.14-.07-.21-.03-.11.05-.15.18-.2.27-.12.2-.3.19-.47.11-.16-.16-.35-.4-.5-.31-.04.06-.09.12-.13.17-.03.04-.07.1-.11.16,0,0-.01,0-.02,0-.31.21-.27-.4-.52-.4-.18,0-.29.13-.38.27-.18.28-.47-.27-.67-.27-.16,0-.31.18-.44.33-.07.06-.15.12-.24.15.05-.11.1-.22.1-.32,0-.08-.02-.16-.05-.22.05-.12.11-.24.16-.35.11-.24.23-.48.35-.72-.42-.21-.71-.44-.99-.84-.54-.76-.11-1.8.59-2.26.18-.12.37-.22.57-.31-.08.07-.15.15-.2.23,0-.01,0-.02-.02-.01,0,0-.02.01-.03.02-.02,0-.02.04,0,.04.47-.05.87-.29,1.36-.31.16,0,.33,0,.5.02-.27.08-.52.21-.75.4-.08.07-.27.19-.26.31,0,.02.03,0,.04,0,.03-.08.28-.16.36-.2.4-.2.9-.19,1.32-.12.26.04.46.14.63.28-.48-.08-1.02-.02-1.47.09-.03,0-.05.07,0,.07.54-.04,1-.05,1.52.17.05.02.09.04.13.07.48.7.59,1.57.19,2.31ZM53.83,45.87c-.04-.07-.08-.13-.12-.21-.04-.13-.05-.27-.05-.39.02-.34.27.09.35.18.02.02.07.01.1,0,.15-.04.22-.11.3-.25.08-.13.39.27.51.24.18-.03.29-.07.42-.19.32-.27.33.16.56.17.19.01.3-.03.47-.12.03-.01.05-.03.07-.03.2-.03.14.12.12.3-.06.57-.44.72-.95.78-.04,0-.09,0-.14,0-.16,0-.32,0-.48,0-.13-.01-.25-.03-.38-.06-.21-.22-.5-.37-.8-.45ZM55.15,47.77s0,0,0-.01c-.03-.31-.11-.62-.22-.95-.03-.09-.07-.16-.11-.24.39.06.8.05,1.13-.03.01,0,.02,0,.03,0-.08.06-.16.12-.23.19-.32.3-.52.66-.6,1.05ZM60.41,49.02c0,.1-.03.2-.07.3-.38.33-.74.71-1.16.99h0s-.04.06,0,.07c.12.03.24-.02.35-.05.13-.04.25-.08.37-.13.03.08.04.16.06.21.02.09.05.17.07.26.03.16.03.41.18.51,0,0,0,0,0,0-.02,0-.03,0-.05,0-.11-.05-.18-.19-.25-.28-.05-.06-.14-.07-.21-.03-.1.05-.15.18-.2.27-.12.2-.3.19-.47.11-.16-.16-.34-.4-.49-.31-.04.06-.09.12-.13.17-.03.04-.07.1-.11.16,0,0-.01,0-.02,0-.3.2-.27-.41-.52-.4-.18,0-.29.13-.38.27-.18.28-.47-.27-.67-.27-.16,0-.31.19-.44.33-.08.06-.16.13-.26.16,0,0-.01,0-.02,0-.07-.05.02-.38.03-.4,0,0,0-.02,0-.03.06-.16.14-.32.21-.47.11-.24.23-.48.35-.72-.42-.21-.71-.44-.99-.84-.54-.75-.11-1.8.59-2.26.69-.45,1.55-.72,2.36-.64-.3,0-.6.04-.9.15-.33.12-1.24.45-1.25.89,0,.03.04.01.04,0,.18-.39,1.05-.57,1.41-.64.15-.03.3-.04.45-.04-.56.16-1.09.46-1.43.84-.03.04,0,.09.04.05.52-.45,1.4-.63,2.06-.59.13,0,.26.04.37.09-.52.04-1.07.25-1.4.55-.03.03,0,.07.03.04.41-.3.92-.34,1.42-.33.4.01.61.21.8.46,0,0,0,0,0,.01-.34-.21-.77-.27-1.22-.25-.03,0-.07.06-.02.07.16.02.31.06.46.11,0,0-.02,0-.03,0-.6.07-1.01.77-1.07,1.32-.03.31-.04.66.23.88.25.19.5.27.79.14.63-.27,1-1.05.87-1.72.03.05.05.1.08.15.1.24.14.58.13.84Z"/>
          <path class="cls-1" d="M54.84,44.07c.15.15.58.13.74,0,.24-.17.17-.47.07-.71-.07-.16-.28-.64-.53-.48-.18.11-.27.33-.31.55-.08.22-.12.48.03.63Z"/>
          <path class="cls-1" d="M45.96,49.37c-.03-.35-.2-.73-.44-.99-.15-.16-.41-.2-.65-.21-.09-.03-.18-.02-.27,0h0s-.01,0-.02,0c-.06.02-.11.04-.16.06-.04.02-.07.04-.1.06-.1.06-.19.15-.25.28-.33.72.12,1.38.78,1.67.67.29,1.17-.21,1.12-.89Z"/>
          <path class="cls-1" d="M47.25,47.73c-.59.14-.93.87-.93,1.42,0,.31.03.66.33.85.27.17.52.22.8.06.61-.34.9-1.18.67-1.84-.12-.35-.51-.57-.87-.49Z"/>
          <path class="cls-1" d="M44.23,48.06s.03-.05,0-.04c-.19.04-.36.15-.47.31-.14.19-.13.41-.04.62.03.07.11,0,.11-.06,0-.33.08-.66.4-.84Z"/>
          <path class="cls-1" d="M47.72,47.35s-.02.02,0,.03c.05,0,.15.11.19.14.08.07.14.15.19.24.07.14.06.32.16.45.04.05.12-.02.13-.06.04-.21-.03-.43-.14-.61-.08-.12-.38-.24-.52-.19Z"/>
          <path class="cls-1" d="M46.14,50c-.16.14-.21.38-.21.6-.04.23-.04.49.14.62.18.12.59.03.73-.12.2-.21.09-.5-.06-.71-.1-.15-.39-.58-.61-.38Z"/>
          <path class="cls-1" d="M48.22,51.9s-.02,0-.03,0c-.01-.02-.03-.04-.04-.07-.02-.03-.07-.02-.09-.01-.18.05-.52.32-.68.33-.16-.08-.29-.28-.49-.16-.11.07-.17.14-.24.25-.14.19-.52-.09-.69-.1-.13,0-.22.15-.27.25-.13.24-.37-.25-.56-.12-.42.27-.08,1,.27,1.2.09.05.2.09.31.12.11.04.24.07.38.08.51.06,1.1-.02,1.52-.21.35-.12.63-.31.66-.59,0-.08.01-.18.02-.28.02-.1.03-.21.02-.31.09-.13.14-.34-.07-.36ZM47.12,53.38c-.16.03-.32.06-.47.08-.41.04-.84,0-1.15-.2-.1-.08-.18-.17-.25-.28-.06-.12-.1-.26-.12-.37-.04-.33.28.04.38.11.03.02.07,0,.09-.01.14-.07.2-.15.26-.29.05-.14.43.19.55.15.17-.06.27-.12.39-.26.24-.29.33.02.52.07-.12.08-.23.19-.36.24-.03,0-.05.06,0,.07.14.02.28-.03.42-.07,0,0-.01.01-.02.02-.07.09-.15.28,0,.34.08.03.14.03.22,0,0,.03,0,.07,0,.1-.05.05-.09.13-.1.19-.07.03-.13.05-.21.07-.04.01-.09.02-.13.04Z"/>
        </g>
        <path class="cls-1" d="M51.53,35.09c-.14-.21-.34-.38-.58-.47-.17-.07-.38-.12-.54-.02-.02,0-.01.04,0,.03.19-.07.4.09.54.19.16.11.28.26.44.37.06.04.16-.05.12-.11Z"/>
      </g>
    </g>
  </g>
</svg>