<?xml version="1.0" encoding="UTF-8"?>
<svg id="Layer_2" data-name="Layer 2" xmlns="http://www.w3.org/2000/svg" xmlns:xlink="http://www.w3.org/1999/xlink" viewBox="0 0 2154.6 427.04">
  <defs>
    <style>
      .cls-1 {
        fill: url(#_횁책챌청챙첼챠챠청챕_찾챨횪채챔책챠챵_13-27);
      }

      .cls-2 {
        fill: url(#_횁책챌청챙첼챠챠청챕_찾챨횪채챔책챠챵_13-14);
      }

      .cls-3 {
        fill: url(#_횁책챌청챙첼챠챠청챕_찾챨횪채챔책챠챵_13-9);
      }

      .cls-4 {
        fill: url(#_횁책챌청챙첼챠챠청챕_찾챨횪채챔책챠챵_13-20);
      }

      .cls-5 {
        fill: url(#_횁책챌청챙첼챠챠청챕_찾챨횪채챔책챠챵_13-15);
      }

      .cls-6 {
        fill: url(#_횁책챌청챙첼챠챠청챕_찾챨횪채챔책챠챵_13-32);
      }

      .cls-7 {
        fill: url(#_횁책챌청챙첼챠챠청챕_찾챨횪채챔책챠챵_13-28);
      }

      .cls-8 {
        fill: url(#_횁책챌청챙첼챠챠청챕_찾챨횪채챔책챠챵_13-34);
      }

      .cls-9 {
        fill: url(#_횁책챌청챙첼챠챠청챕_찾챨횪채챔책챠챵_13-25);
      }

      .cls-10 {
        fill: url(#_횁책챌청챙첼챠챠청챕_찾챨횪채챔책챠챵_13-18);
      }

      .cls-11 {
        fill: url(#_횁책챌청챙첼챠챠청챕_찾챨횪채챔책챠챵_13-17);
      }

      .cls-12 {
        fill: url(#_횁책챌청챙첼챠챠청챕_찾챨횪채챔책챠챵_13-39);
      }

      .cls-13 {
        fill: url(#_횁책챌청챙첼챠챠청챕_찾챨횪채챔책챠챵_13-49);
      }

      .cls-14 {
        fill: url(#_횁책챌청챙첼챠챠청챕_찾챨횪채챔책챠챵_13-22);
      }

      .cls-15 {
        fill: url(#_횁책챌청챙첼챠챠청챕_찾챨횪채챔책챠챵_13-6);
      }

      .cls-16 {
        fill: url(#_횁책챌청챙첼챠챠청챕_찾챨횪채챔책챠챵_13);
      }

      .cls-17 {
        fill: url(#_횁책챌청챙첼챠챠청챕_찾챨횪채챔책챠챵_13-21);
      }

      .cls-18 {
        fill: url(#_횁책챌청챙첼챠챠청챕_찾챨횪채챔책챠챵_13-44);
      }

      .cls-19 {
        fill: url(#_횁책챌청챙첼챠챠청챕_찾챨횪채챔책챠챵_13-41);
      }

      .cls-20 {
        fill: url(#_횁책챌청챙첼챠챠청챕_찾챨횪채챔책챠챵_13-23);
      }

      .cls-21 {
        fill: url(#_횁책챌청챙첼챠챠청챕_찾챨횪채챔책챠챵_13-36);
      }

      .cls-22 {
        fill: url(#_횁책챌청챙첼챠챠청챕_찾챨횪채챔책챠챵_13-11);
      }

      .cls-23 {
        fill: url(#_횁책챌청챙첼챠챠청챕_찾챨횪채챔책챠챵_13-10);
      }

      .cls-24 {
        fill: url(#_횁책챌청챙첼챠챠청챕_찾챨횪채챔책챠챵_13-2);
      }

      .cls-25 {
        fill: url(#_횁책챌청챙첼챠챠청챕_찾챨횪채챔책챠챵_13-16);
      }

      .cls-26 {
        fill: url(#_횁책챌청챙첼챠챠청챕_찾챨횪채챔책챠챵_13-13);
      }

      .cls-27 {
        fill: url(#_횁책챌청챙첼챠챠청챕_찾챨횪채챔책챠챵_13-12);
      }

      .cls-28 {
        fill: url(#_횁책챌청챙첼챠챠청챕_찾챨횪채챔책챠챵_13-40);
      }

      .cls-29 {
        fill: url(#_횁책챌청챙첼챠챠청챕_찾챨횪채챔책챠챵_13-43);
      }

      .cls-30 {
        fill: url(#_횁책챌청챙첼챠챠청챕_찾챨횪채챔책챠챵_13-29);
      }

      .cls-31 {
        fill: url(#_횁책챌청챙첼챠챠청챕_찾챨횪채챔책챠챵_13-31);
      }

      .cls-32 {
        fill: url(#_횁책챌청챙첼챠챠청챕_찾챨횪채챔책챠챵_13-26);
      }

      .cls-33 {
        fill: url(#_횁책챌청챙첼챠챠청챕_찾챨횪채챔책챠챵_13-3);
      }

      .cls-34 {
        fill: url(#_횁책챌청챙첼챠챠청챕_찾챨횪채챔책챠챵_13-7);
      }

      .cls-35 {
        fill: url(#_횁책챌청챙첼챠챠청챕_찾챨횪채챔책챠챵_13-33);
      }

      .cls-36 {
        fill: url(#_횁책챌청챙첼챠챠청챕_찾챨횪채챔책챠챵_13-47);
      }

      .cls-37 {
        fill: url(#_횁책챌청챙첼챠챠청챕_찾챨횪채챔책챠챵_13-46);
      }

      .cls-38 {
        fill: url(#_횁책챌청챙첼챠챠청챕_찾챨횪채챔책챠챵_13-48);
      }

      .cls-39 {
        fill: url(#_횁책챌청챙첼챠챠청챕_찾챨횪채챔책챠챵_13-42);
      }

      .cls-40 {
        fill: url(#_횁책챌청챙첼챠챠청챕_찾챨횪채챔책챠챵_13-45);
      }

      .cls-41 {
        fill: url(#_횁책챌청챙첼챠챠청챕_찾챨횪채챔책챠챵_13-19);
      }

      .cls-42 {
        fill: url(#_횁책챌청챙첼챠챠청챕_찾챨횪채챔책챠챵_13-8);
      }

      .cls-43 {
        fill: url(#_횁책챌청챙첼챠챠청챕_찾챨횪채챔책챠챵_13-38);
      }

      .cls-44 {
        fill: url(#_횁책챌청챙첼챠챠청챕_찾챨횪채챔책챠챵_13-24);
      }

      .cls-45 {
        fill: url(#_횁책챌청챙첼챠챠청챕_찾챨횪채챔책챠챵_13-30);
      }

      .cls-46 {
        fill: url(#_횁책챌청챙첼챠챠청챕_찾챨횪채챔책챠챵_13-35);
      }

      .cls-47 {
        clip-path: url(#clippath);
      }

      .cls-48 {
        fill: url(#_횁책챌청챙첼챠챠청챕_찾챨횪채챔책챠챵_13-37);
      }

      .cls-49 {
        fill: url(#_횁책챌청챙첼챠챠청챕_찾챨횪채챔책챠챵_13-5);
      }

      .cls-50 {
        fill: url(#_횁책챌청챙첼챠챠청챕_찾챨횪채챔책챠챵_13-4);
      }
    </style>
    <clipPath id="clippath">
      <path d="M134.17,120.09l75.97,13.33,19.99,33.59,47.18,8.53-12.26-15.73,20.26,10.4,13.59,16.53,36.79,8.79,19.19,30.39h69.31l67.71-23.19-23.46-9.06-49.32,6.66-23.72-16-26.39-3.73-36.79-18.66,6.67.8,31.99,10.26,24.79,1.46-3.2-19.73-19.46-18.93-8.27-18.39-65.31-8.53-10.13-8.53-101.56-15.46-5.06-3.2,110.36,12.79,12.79,7.47,62.64,7.2,33.59,41.32,35.92,27.45,38.72-5.05-35.18-28.26,8.53-16.53-31.99-17.59-.53-8.53-31.72-20.26h5.33l32.79,17.33,2.13,5.6,40.25,22.92-6.66,12.53,84.5,55.44,45.85,5.34,79.97-37.59-31.46-29.06-78.1-25.32,3.73-1.87,72.77,14.4,17.06-17.33-75.17-39.72h31.72l-5.07-13.86L531.88,3.86h4.27l77.04,40.78,18.13,28.79,33.32,15.19,44.78-16.79,10.66,2.13,33.59-6.93,3.73,1.33-39.19,13.06-10.4.27-20.26,15.46,9.86,8,54.11,5.6-12.79,4.13h-58.38l-15.73,12.66,36.79,24.26,21.59-1.6,44.78-31.99,69.31-22.92,25.86-4.26-53.85,22.66-26.12,25.86-5.86,14.4,74.91,5.07,63.98-39.19,6.93-14.93-8.53-21.86,31.99-18.39-18.93,20.53,8.53,12.26-2.66,12,18.39,4,39.99-4.8-35.19,11.73-25.86,2.93-25.32,26.92-12.26,25.06,45.85,34.92,94.1,7.46,11.73-8.27-66.37-22.12,72.77,14.13,17.06-13.86-23.72-4.26-5.33-4.53,17.59-1.6-15.19-10.93-57.31-16.53,63.47,3.98,13.03-7.45-21.33-29.06,2.4-8-44.52-36.25,4.26-.8,58.11,42.78-4.53,6.53,37.59,34.39,30.92,3.2,13.06,3.47,38.12-22.93,31.45-.53,17.06-12.8-94.37-27.46,14.13.8,83.44,9.33-7.47-20.79-34.38-16.26,4.8-27.19,13.06-10.4-27.73-28.52,38.65,29.59-11.99,14.66v12.26l33.05,10.66,15.99-13.86,60.25-18.39-62.38,34.12,2.4,11.73,25.32,11.73,132.34-30.9,14.84-14.51,4.22-22.5,41.05-30.32,4.55,1.71-36.14,29-.23,18.8,20.66-7-42.33,39.74-28.01,18.92,25.82,26.45,57.06-16.46,25.5-.98,52.54-15.84-55.26,25.35-23.56,1.63-38.09,22.79,29.87,18.63,25.44-.08,37.37-16.75-22.74,17.8,35.7,2.14,48.18-38.67-18.99-11.89.07-16.12,25.6-23.54,39.67-10.34-6.77,5.33-27.47,9.99-19.67,17.27,1.69,10.67,26.47,4.39,89.34-26.64-3.84,4.25-84.36,32.56-7.7,14.94-34.38,35.56,63.49-1.2,130.15-46.29,9.34-15.38,82.34-13.87-8.2,5.42-64.85,17.96-6.99,12.12-36.17,14.67,20.83,11.1,33.68-11.95-24.77,15.71,33.82.6,62.8-13.61-70.14,25.53-40.32.27-43.89-11.95-102.1,41.7-31.61,4.37,30.84,23.35,92.81-15.21,15.05-14.86,57.8-4.95-54.18,16.27-6.04,8.06-25.09,21.06,36.44,13.65h71.47l21.32-20.76,13.79-32.67,60.85-11.04,28.1-29.48,78.91-22.32-67.53,29.8-10.34,17.11,210.19,11-4.67,3.3-275.21,12.86-12.88,29.5,129.16,9.01,10.92,9.07,175.26,1.92,5.69,3.74-192.46,7.08-16.91-10.69-106.79,3.44-66.39,28.62,25.55,30.91,54.75,1.14,16.52,11.38h37.74l13.04,9.5,33.49,1.29,31.35,20.87,39.24,8.81-41.25-2.12-29.82-19.53-37.83-2.45-13.11-8.49-41.81,1.25-11.23-6.94-74.74.71-3.79,15.36,10.5,12.99,101.41,26.69-107.15-17.54-25.97-27,8.53-22.78-12.13-15.78-70.72-12.66-13.16-7.6-57.89,36.29,24.11,10.22,18.39,24.93,60.6,34.99-68.67-25.8-16.96-21.8-19.86-6.39-23.88-17.02,31.26-25.35-16.98-18.57-43.73-14.63-64.99-6.59,53.58-3.23-21.49-17.95-100.88-11.61-35.52-31.14-50.88-12.74-15.25,6.43,52.04,40.21,21.78,55.05,61.38,4.04,4.67-3.3,33.36,26.19,22.08,8.13,5,24.13,38.82,24.72-6.8-.23-40.03-19.42-8.93-21.32-14.9-5.37-28.13-20.86-65.07.75,30.57,19.03,24.17,42.12-8.62-2.66-3.69,4.79,9.54,41.06-5.39-2.65-13.6-42.02,4.69-6.53-10.66-22.31-44.72-24.9-18.59-36.59-39.74,26.46,18.25,12.38-76.72-11.05-15.94,14.81,21.98,30.7-2.09,14.03,28.4,37.17-7.43-1.52-32.75-30.45.67-17.16-27.72-33.55,30.1-32.95,47.93,7.36,38.6-37.27-12.79-22.63-47.48-29.72-19.05,1,3.69,7.21-9.73,12.85-41.45,19.01-4,6.92-23.94-4.12-25.36,4.75-2.03,9.91-37.95,8.33-11.8,9,42.19,1.8-3.8,2.2-45.98,3.2-44.58,29.99,11.79,25.39-6.8,12.6,5.8,15.79,89.56,8.59,16.8,19.8,26.39,9.79-6.6,1.6-21.59-5-21.79-19.39-47.38,2.8,6.2,22.19-1.6,5.2-15.19-26.59s-36.39-1.6-35.79-1.6-22.79-29.99-22.79-29.99l9.8-10.2-6.8-12.19-30.99-4.6-23.79,22.39.4,18.19-34.39,11.4-4.2,8.2-43.78,17.79-2.8-1.6,34.59-17.79,7.4-12.79,29.19-11.2-3-15.79,14.59-25.79-52.78-13.99-17.19-14.8-5.4-19.39-23.19-21.99-23.19,2.6-14,17.19,34.99,54.18-5.6,49.58-2.2-3.2-2.8-41.58-25.19-24.99-30.79,10.59-3,30.59s-41.98,20.19-41.98,19.59-3.2,7.8-3.2,7.8l-32.19,14.19-3.4,13-58.58,25.99-4.4-1.2,52.58-27.19,3.2-12.6-28.19,5.2,57.98-25.19,5.2-10.39,32.79-17.39-6.2-20.39-63.38,1.4,4.8-3.6,73.17-10.59,22.19-19.79-15.2-17.6,19.79-24.19-75.97-32.39-107.96,36.99-5.8,21.99,13.59,9.2,67.97-1.8-2.6,2.6-80.37,13.4-12.6,17.39-1.4,37.38-15.4,25.99v-4.4l6.6-18.99-4.2-15.2-26.79,6-22.39,21.99-64.17,17.99,3.2-4.2,54.58-18.79,15.19-19.19-41.59,8.4,3.2-3.2,52.38-17.59,26.19-35.59-47.38-2.2,4-2.6,44.98-3.8,7-7-47.98-16.19-43.78,2.8,23.59-9.2-26.79-11.39-74.57,28.99,21.19,13.4-9.4,25.19-21.24,9.47-2.12,6.93-77.89,38.03,43.68-30.12,2.12-6.93,42.13-22.34-2.69-10.88-17.25-14.14-48.63,21.2-29.12-1.13s-12.44,10.74-12.72,11.31c-.28.56-47.89,18.06-47.89,18.06l-5.09,11.88-103.48,26.01,85.39-28.84,10.18-12.44-37.32-11.88,45.24,3.4,49.2-17.53,7.07-10.46,38.17-3.11,27.14-20.92-68.42-19.79-57.11,11.31-43.54,3.39-29.12,29.12-68.7,21.77-41.56-1.41,39.02-3.39,62.49-23.47,12.72-16.68-15.55-7.07,27.42-9.33-17.25-4.24-37.61,1.41-31.38-11.03-22.34-.85-22.9,5.37L0,230.27l78.6,2.26,20.64-6.5-28.84-12.51,42.13,6.01,50.33,14.13h49.2l31.38,8.2,68.99-14.14,6.79-6.79-8.2-13.29-17.53-3.39-18.38-15.55-35.62-2.26-24.88-11.88-50.61-4.81-51.18-10.46,53.15,4.52,46.35-3.05-10.44-22.12-57.39-12.72-10.31-5.86Z"/>
    </clipPath>
    <linearGradient id="_횁책챌청챙첼챠챠청챕_찾챨횪채챔책챠챵_13" data-name="횁책챌청챙첼챠챠청챕 찾챨횪채챔책챠챵 13" x1="632.08" y1="235.03" x2="632.08" y2="162.75" gradientUnits="userSpaceOnUse">
      <stop offset="0" stop-color="#000"/>
      <stop offset=".28" stop-color="#252525"/>
      <stop offset=".58" stop-color="#464646"/>
      <stop offset=".83" stop-color="#5b5b5b"/>
      <stop offset="1" stop-color="#636363"/>
    </linearGradient>
    <linearGradient id="_횁책챌청챙첼챠챠청챕_찾챨횪채챔책챠챵_13-2" data-name="횁책챌청챙첼챠챠청챕 찾챨횪채챔책챠챵 13" x1="425.91" y1="256.99" x2="425.91" y2="202.65" xlink:href="#_횁책챌청챙첼챠챠청챕_찾챨횪채챔책챠챵_13"/>
    <linearGradient id="_횁책챌청챙첼챠챠청챕_찾챨횪채챔책챠챵_13-3" data-name="횁책챌청챙첼챠챠청챕 찾챨횪채챔책챠챵 13" x1="504.77" y1="224" x2="504.77" y2="140.08" xlink:href="#_횁책챌청챙첼챠챠청챕_찾챨횪채챔책챠챵_13"/>
    <linearGradient id="_횁책챌청챙첼챠챠청챕_찾챨횪채챔책챠챵_13-4" data-name="횁책챌청챙첼챠챠청챕 찾챨횪채챔책챠챵 13" x1="607.23" y1="301.01" x2="607.23" y2="275.89" xlink:href="#_횁책챌청챙첼챠챠청챕_찾챨횪채챔책챠챵_13"/>
    <linearGradient id="_횁책챌청챙첼챠챠청챕_찾챨횪채챔책챠챵_13-5" data-name="횁책챌청챙첼챠챠청챕 찾챨횪채챔책챠챵 13" x1="589.19" y1="328.93" x2="589.19" y2="291.47" xlink:href="#_횁책챌청챙첼챠챠청챕_찾챨횪채챔책챠챵_13"/>
    <linearGradient id="_횁책챌청챙첼챠챠청챕_찾챨횪채챔책챠챵_13-6" data-name="횁책챌청챙첼챠챠청챕 찾챨횪채챔책챠챵 13" x1="535.59" y1="263.07" x2="535.59" y2="253.3" xlink:href="#_횁책챌청챙첼챠챠청챕_찾챨횪채챔책챠챵_13"/>
    <linearGradient id="_횁책챌청챙첼챠챠청챕_찾챨횪채챔책챠챵_13-7" data-name="횁책챌청챙첼챠챠청챕 찾챨횪채챔책챠챵 13" x1="285.38" y1="244.32" x2="285.38" y2="220.94" xlink:href="#_횁책챌청챙첼챠챠청챕_찾챨횪채챔책챠챵_13"/>
    <linearGradient id="_횁책챌청챙첼챠챠청챕_찾챨횪채챔책챠챵_13-8" data-name="횁책챌청챙첼챠챠청챕 찾챨횪채챔책챠챵 13" x1="255.62" y1="189.34" x2="255.62" y2="166.5" xlink:href="#_횁책챌청챙첼챠챠청챕_찾챨횪채챔책챠챵_13"/>
    <linearGradient id="_횁책챌청챙첼챠챠청챕_찾챨횪채챔책챠챵_13-9" data-name="횁책챌청챙첼챠챠청챕 찾챨횪채챔책챠챵 13" x1="196.36" y1="172.19" x2="196.36" y2="159.68" xlink:href="#_횁책챌청챙첼챠챠청챕_찾챨횪채챔책챠챵_13"/>
    <linearGradient id="_횁책챌청챙첼챠챠청챕_찾챨횪채챔책챠챵_13-10" data-name="횁책챌청챙첼챠챠청챕 찾챨횪채챔책챠챵 13" x1="202.34" y1="264.33" x2="202.34" y2="249.5" xlink:href="#_횁책챌청챙첼챠챠청챕_찾챨횪채챔책챠챵_13"/>
    <linearGradient id="_횁책챌청챙첼챠챠청챕_찾챨횪채챔책챠챵_13-11" data-name="횁책챌청챙첼챠챠청챕 찾챨횪채챔책챠챵 13" x1="191.83" y1="285.88" x2="191.83" y2="265.8" xlink:href="#_횁책챌청챙첼챠챠청챕_찾챨횪채챔책챠챵_13"/>
    <linearGradient id="_횁책챌청챙첼챠챠청챕_찾챨횪채챔책챠챵_13-12" data-name="횁책챌청챙첼챠챠청챕 찾챨횪채챔책챠챵 13" x1="384.83" y1="286.15" x2="384.83" y2="265.04" xlink:href="#_횁책챌청챙첼챠챠청챕_찾챨횪채챔책챠챵_13"/>
    <linearGradient id="_횁책챌청챙첼챠챠청챕_찾챨횪채챔책챠챵_13-13" data-name="횁책챌청챙첼챠챠청챕 찾챨횪채챔책챠챵 13" x1="419.33" y1="193.19" x2="419.33" y2="145.12" xlink:href="#_횁책챌청챙첼챠챠청챕_찾챨횪채챔책챠챵_13"/>
    <linearGradient id="_횁책챌청챙첼챠챠청챕_찾챨횪채챔책챠챵_13-14" data-name="횁책챌청챙첼챠챠청챕 찾챨횪채챔책챠챵 13" x1="378.69" y1="182.38" x2="378.69" y2="169.1" xlink:href="#_횁책챌청챙첼챠챠청챕_찾챨횪채챔책챠챵_13"/>
    <linearGradient id="_횁책챌청챙첼챠챠청챕_찾챨횪채챔책챠챵_13-15" data-name="횁책챌청챙첼챠챠청챕 찾챨횪채챔책챠챵 13" x1="451" y1="297.26" x2="451" y2="270.89" xlink:href="#_횁책챌청챙첼챠챠청챕_찾챨횪채챔책챠챵_13"/>
    <linearGradient id="_횁책챌청챙첼챠챠청챕_찾챨횪채챔책챠챵_13-16" data-name="횁책챌청챙첼챠챠청챕 찾챨횪채챔책챠챵 13" x1="424.7" y1="317.23" x2="424.7" y2="304.07" xlink:href="#_횁책챌청챙첼챠챠청챕_찾챨횪채챔책챠챵_13"/>
    <linearGradient id="_횁책챌청챙첼챠챠청챕_찾챨횪채챔책챠챵_13-17" data-name="횁책챌청챙첼챠챠청챕 찾챨횪채챔책챠챵 13" x1="645.2" y1="138.78" x2="645.2" y2="104.08" xlink:href="#_횁책챌청챙첼챠챠청챕_찾챨횪채챔책챠챵_13"/>
    <linearGradient id="_횁책챌청챙첼챠챠청챕_찾챨횪채챔책챠챵_13-18" data-name="횁책챌청챙첼챠챠청챕 찾챨횪채챔책챠챵 13" x1="600.04" y1="77.09" x2="600.04" y2="61.72" xlink:href="#_횁책챌청챙첼챠챠청챕_찾챨횪채챔책챠챵_13"/>
    <linearGradient id="_횁책챌청챙첼챠챠청챕_찾챨횪채챔책챠챵_13-19" data-name="횁책챌청챙첼챠챠청챕 찾챨횪채챔책챠챵 13" x1="695.65" y1="181.83" x2="695.65" y2="127.49" xlink:href="#_횁책챌청챙첼챠챠청챕_찾챨횪채챔책챠챵_13"/>
    <linearGradient id="_횁책챌청챙첼챠챠청챕_찾챨횪채챔책챠챵_13-20" data-name="횁책챌청챙첼챠챠청챕 찾챨횪채챔책챠챵 13" x1="768.21" y1="153.45" x2="768.21" y2="101.76" xlink:href="#_횁책챌청챙첼챠챠청챕_찾챨횪채챔책챠챵_13"/>
    <linearGradient id="_횁책챌청챙첼챠챠청챕_찾챨횪채챔책챠챵_13-21" data-name="횁책챌청챙첼챠챠청챕 찾챨횪채챔책챠챵 13" x1="708.12" y1="117" x2="708.12" y2="97.16" xlink:href="#_횁책챌청챙첼챠챠청챕_찾챨횪채챔책챠챵_13"/>
    <linearGradient id="_횁책챌청챙첼챠챠청챕_찾챨횪채챔책챠챵_13-22" data-name="횁책챌청챙첼챠챠청챕 찾챨횪채챔책챠챵 13" x1="647.59" y1="107.99" x2="647.59" y2="69.17" xlink:href="#_횁책챌청챙첼챠챠청챕_찾챨횪채챔책챠챵_13"/>
    <linearGradient id="_횁책챌청챙첼챠챠청챕_찾챨횪채챔책챠챵_13-23" data-name="횁책챌청챙첼챠챠청챕 찾챨횪채챔책챠챵 13" x1="817.04" y1="213.99" x2="817.04" y2="150.69" xlink:href="#_횁책챌청챙첼챠챠청챕_찾챨횪채챔책챠챵_13"/>
    <linearGradient id="_횁책챌청챙첼챠챠청챕_찾챨횪채챔책챠챵_13-24" data-name="횁책챌청챙첼챠챠청챕 찾챨횪채챔책챠챵 13" x1="810.13" y1="283.88" x2="810.13" y2="243.46" xlink:href="#_횁책챌청챙첼챠챠청챕_찾챨횪채챔책챠챵_13"/>
    <linearGradient id="_횁책챌청챙첼챠챠청챕_찾챨횪채챔책챠챵_13-25" data-name="횁책챌청챙첼챠챠청챕 찾챨횪채챔책챠챵 13" x1="804.43" y1="317.33" x2="804.43" y2="285.29" xlink:href="#_횁책챌청챙첼챠챠청챕_찾챨횪채챔책챠챵_13"/>
    <linearGradient id="_횁책챌청챙첼챠챠청챕_찾챨횪채챔책챠챵_13-26" data-name="횁책챌청챙첼챠챠청챕 찾챨횪채챔책챠챵 13" x1="765.9" y1="361.54" x2="765.9" y2="337.45" xlink:href="#_횁책챌청챙첼챠챠청챕_찾챨횪채챔책챠챵_13"/>
    <linearGradient id="_횁책챌청챙첼챠챠청챕_찾챨횪채챔책챠챵_13-27" data-name="횁책챌청챙첼챠챠청챕 찾챨횪채챔책챠챵 13" x1="1059.7" y1="274.3" x2="1059.7" y2="187.52" xlink:href="#_횁책챌청챙첼챠챠청챕_찾챨횪채챔책챠챵_13"/>
    <linearGradient id="_횁책챌청챙첼챠챠청챕_찾챨횪채챔책챠챵_13-28" data-name="횁책챌청챙첼챠챠청챕 찾챨횪채챔책챠챵 13" x1="1038.84" y1="290.87" x2="1038.84" y2="209.38" xlink:href="#_횁책챌청챙첼챠챠청챕_찾챨횪채챔책챠챵_13"/>
    <linearGradient id="_횁책챌청챙첼챠챠청챕_찾챨횪채챔책챠챵_13-29" data-name="횁책챌청챙첼챠챠청챕 찾챨횪채챔책챠챵 13" x1="916.37" y1="278.59" x2="916.37" y2="174.81" xlink:href="#_횁책챌청챙첼챠챠청챕_찾챨횪채챔책챠챵_13"/>
    <linearGradient id="_횁책챌청챙첼챠챠청챕_찾챨횪채챔책챠챵_13-30" data-name="횁책챌청챙첼챠챠청챕 찾챨횪채챔책챠챵 13" x1="1054.47" y1="175.5" x2="1054.47" y2="146.08" xlink:href="#_횁책챌청챙첼챠챠청챕_찾챨횪채챔책챠챵_13"/>
    <linearGradient id="_횁책챌청챙첼챠챠청챕_찾챨횪채챔책챠챵_13-31" data-name="횁책챌청챙첼챠챠청챕 찾챨횪채챔책챠챵 13" x1="1179.19" y1="230.18" x2="1179.19" y2="126.22" xlink:href="#_횁책챌청챙첼챠챠청챕_찾챨횪채챔책챠챵_13"/>
    <linearGradient id="_횁책챌청챙첼챠챠청챕_찾챨횪채챔책챠챵_13-32" data-name="횁책챌청챙첼챠챠청챕 찾챨횪채챔책챠챵 13" x1="1110.73" y1="229.52" x2="1110.73" y2="148.51" xlink:href="#_횁책챌청챙첼챠챠청챕_찾챨횪채챔책챠챵_13"/>
    <linearGradient id="_횁책챌청챙첼챠챠청챕_찾챨횪채챔책챠챵_13-33" data-name="횁책챌청챙첼챠챠청챕 찾챨횪채챔책챠챵 13" x1="1341.64" y1="180.25" x2="1341.64" y2="62.25" xlink:href="#_횁책챌청챙첼챠챠청챕_찾챨횪채챔책챠챵_13"/>
    <linearGradient id="_횁책챌청챙첼챠챠청챕_찾챨횪채챔책챠챵_13-34" data-name="횁책챌청챙첼챠챠청챕 찾챨횪채챔책챠챵 13" x1="1339.1" y1="235.14" x2="1339.1" y2="193.77" xlink:href="#_횁책챌청챙첼챠챠청챕_찾챨횪채챔책챠챵_13"/>
    <linearGradient id="_횁책챌청챙첼챠챠청챕_찾챨횪채챔책챠챵_13-35" data-name="횁책챌청챙첼챠챠청챕 찾챨횪채챔책챠챵 13" x1="1257.58" y1="155.52" x2="1257.58" y2="74.77" xlink:href="#_횁책챌청챙첼챠챠청챕_찾챨횪채챔책챠챵_13"/>
    <linearGradient id="_횁책챌청챙첼챠챠청챕_찾챨횪채챔책챠챵_13-36" data-name="횁책챌청챙첼챠챠청챕 찾챨횪채챔책챠챵 13" x1="1218.71" y1="119.95" x2="1218.71" y2="59.21" xlink:href="#_횁책챌청챙첼챠챠청챕_찾챨횪채챔책챠챵_13"/>
    <linearGradient id="_횁책챌청챙첼챠챠청챕_찾챨횪채챔책챠챵_13-37" data-name="횁책챌청챙첼챠챠청챕 찾챨횪채챔책챠챵 13" x1="1206.63" y1="122.36" x2="1206.63" y2="103.07" xlink:href="#_횁책챌청챙첼챠챠청챕_찾챨횪채챔책챠챵_13"/>
    <linearGradient id="_횁책챌청챙첼챠챠청챕_찾챨횪채챔책챠챵_13-38" data-name="횁책챌청챙첼챠챠청챕 찾챨횪채챔책챠챵 13" x1="1398.1" y1="185.31" x2="1398.1" y2="101.16" xlink:href="#_횁책챌청챙첼챠챠청챕_찾챨횪채챔책챠챵_13"/>
    <linearGradient id="_횁책챌청챙첼챠챠청챕_찾챨횪채챔책챠챵_13-39" data-name="횁책챌청챙첼챠챠청챕 찾챨횪채챔책챠챵 13" x1="1444.32" y1="214.13" x2="1444.32" y2="144.11" xlink:href="#_횁책챌청챙첼챠챠청챕_찾챨횪채챔책챠챵_13"/>
    <linearGradient id="_횁책챌청챙첼챠챠청챕_찾챨횪채챔책챠챵_13-40" data-name="횁책챌청챙첼챠챠청챕 찾챨횪채챔책챠챵 13" x1="1517.2" y1="214.21" x2="1517.2" y2="160.86" xlink:href="#_횁책챌청챙첼챠챠청챕_찾챨횪채챔책챠챵_13"/>
    <linearGradient id="_횁책챌청챙첼챠챠청챕_찾챨횪채챔책챠챵_13-41" data-name="횁책챌청챙첼챠챠청챕 찾챨횪채챔책챠챵 13" x1="1476.4" y1="199.66" x2="1476.4" y2="157.24" xlink:href="#_횁책챌청챙첼챠챠청챕_찾챨횪채챔책챠챵_13"/>
    <linearGradient id="_횁책챌청챙첼챠챠청챕_찾챨횪채챔책챠챵_13-42" data-name="횁책챌청챙첼챠챠청챕 찾챨횪채챔책챠챵 13" x1="1590.84" y1="272.87" x2="1590.84" y2="208.81" xlink:href="#_횁책챌청챙첼챠챠청챕_찾챨횪채챔책챠챵_13"/>
    <linearGradient id="_횁책챌청챙첼챠챠청챕_찾챨횪채챔책챠챵_13-43" data-name="횁책챌청챙첼챠챠청챕 찾챨횪채챔책챠챵 13" x1="1596.09" y1="212.18" x2="1596.09" y2="169.98" xlink:href="#_횁책챌청챙첼챠챠청챕_찾챨횪채챔책챠챵_13"/>
    <linearGradient id="_횁책챌청챙첼챠챠청챕_찾챨횪채챔책챠챵_13-44" data-name="횁책챌청챙첼챠챠청챕 찾챨횪채챔책챠챵 13" x1="1743.26" y1="166.35" x2="1743.26" y2="146.91" xlink:href="#_횁책챌청챙첼챠챠청챕_찾챨횪채챔책챠챵_13"/>
    <linearGradient id="_횁책챌청챙첼챠챠청챕_찾챨횪채챔책챠챵_13-45" data-name="횁책챌청챙첼챠챠청챕 찾챨횪채챔책챠챵 13" x1="1734.39" y1="291.76" x2="1734.39" y2="242.53" xlink:href="#_횁책챌청챙첼챠챠청챕_찾챨횪채챔책챠챵_13"/>
    <linearGradient id="_횁책챌청챙첼챠챠청챕_찾챨횪채챔책챠챵_13-46" data-name="횁책챌청챙첼챠챠청챕 찾챨횪채챔책챠챵 13" x1="1647.99" y1="247.18" x2="1647.99" y2="214.15" xlink:href="#_횁책챌청챙첼챠챠청챕_찾챨횪채챔책챠챵_13"/>
    <linearGradient id="_횁책챌청챙첼챠챠청챕_찾챨횪채챔책챠챵_13-47" data-name="횁책챌청챙첼챠챠청챕 찾챨횪채챔책챠챵 13" x1="1873" y1="265.47" x2="1873" y2="239.67" xlink:href="#_횁책챌청챙첼챠챠청챕_찾챨횪채챔책챠챵_13"/>
    <linearGradient id="_횁책챌청챙첼챠챠청챕_찾챨횪채챔책챠챵_13-48" data-name="횁책챌청챙첼챠챠청챕 찾챨횪채챔책챠챵 13" x1="1933.45" y1="206.12" x2="1933.45" y2="184.33" xlink:href="#_횁책챌청챙첼챠챠청챕_찾챨횪채챔책챠챵_13"/>
    <linearGradient id="_횁책챌청챙첼챠챠청챕_찾챨횪채챔책챠챵_13-49" data-name="횁책챌청챙첼챠챠청챕 찾챨횪채챔책챠챵 13" x1="986.3" y1="291.59" x2="986.3" y2="204.21" xlink:href="#_횁책챌청챙첼챠챠청챕_찾챨횪채챔책챠챵_13"/>
  </defs>
  <g id="_Layer_" data-name="&amp;lt;Layer&amp;gt;">
    <g>
      <path d="M134.17,120.09l75.97,13.33,19.99,33.59,47.18,8.53-12.26-15.73,20.26,10.4,13.59,16.53,36.79,8.79,19.19,30.39h69.31l67.71-23.19-23.46-9.06-49.32,6.66-23.72-16-26.39-3.73-36.79-18.66,6.67.8,31.99,10.26,24.79,1.46-3.2-19.73-19.46-18.93-8.27-18.39-65.31-8.53-10.13-8.53-101.56-15.46-5.06-3.2,110.36,12.79,12.79,7.47,62.64,7.2,33.59,41.32,35.92,27.45,38.72-5.05-35.18-28.26,8.53-16.53-31.99-17.59-.53-8.53-31.72-20.26h5.33l32.79,17.33,2.13,5.6,40.25,22.92-6.66,12.53,84.5,55.44,45.85,5.34,79.97-37.59-31.46-29.06-78.1-25.32,3.73-1.87,72.77,14.4,17.06-17.33-75.17-39.72h31.72l-5.07-13.86L531.88,3.86h4.27l77.04,40.78,18.13,28.79,33.32,15.19,44.78-16.79,10.66,2.13,33.59-6.93,3.73,1.33-39.19,13.06-10.4.27-20.26,15.46,9.86,8,54.11,5.6-12.79,4.13h-58.38l-15.73,12.66,36.79,24.26,21.59-1.6,44.78-31.99,69.31-22.92,25.86-4.26-53.85,22.66-26.12,25.86-5.86,14.4,74.91,5.07,63.98-39.19,6.93-14.93-8.53-21.86,31.99-18.39-18.93,20.53,8.53,12.26-2.66,12,18.39,4,39.99-4.8-35.19,11.73-25.86,2.93-25.32,26.92-12.26,25.06,45.85,34.92,94.1,7.46,11.73-8.27-66.37-22.12,72.77,14.13,17.06-13.86-23.72-4.26-5.33-4.53,17.59-1.6-15.19-10.93-57.31-16.53,63.47,3.98,13.03-7.45-21.33-29.06,2.4-8-44.52-36.25,4.26-.8,58.11,42.78-4.53,6.53,37.59,34.39,30.92,3.2,13.06,3.47,38.12-22.93,31.45-.53,17.06-12.8-94.37-27.46,14.13.8,83.44,9.33-7.47-20.79-34.38-16.26,4.8-27.19,13.06-10.4-27.73-28.52,38.65,29.59-11.99,14.66v12.26l33.05,10.66,15.99-13.86,60.25-18.39-62.38,34.12,2.4,11.73,25.32,11.73,132.34-30.9,14.84-14.51,4.22-22.5,41.05-30.32,4.55,1.71-36.14,29-.23,18.8,20.66-7-42.33,39.74-28.01,18.92,25.82,26.45,57.06-16.46,25.5-.98,52.54-15.84-55.26,25.35-23.56,1.63-38.09,22.79,29.87,18.63,25.44-.08,37.37-16.75-22.74,17.8,35.7,2.14,48.18-38.67-18.99-11.89.07-16.12,25.6-23.54,39.67-10.34-6.77,5.33-27.47,9.99-19.67,17.27,1.69,10.67,26.47,4.39,89.34-26.64-3.84,4.25-84.36,32.56-7.7,14.94-34.38,35.56,63.49-1.2,130.15-46.29,9.34-15.38,82.34-13.87-8.2,5.42-64.85,17.96-6.99,12.12-36.17,14.67,20.83,11.1,33.68-11.95-24.77,15.71,33.82.6,62.8-13.61-70.14,25.53-40.32.27-43.89-11.95-102.1,41.7-31.61,4.37,30.84,23.35,92.81-15.21,15.05-14.86,57.8-4.95-54.18,16.27-6.04,8.06-25.09,21.06,36.44,13.65h71.47l21.32-20.76,13.79-32.67,60.85-11.04,28.1-29.48,78.91-22.32-67.53,29.8-10.34,17.11,210.19,11-4.67,3.3-275.21,12.86-12.88,29.5,129.16,9.01,10.92,9.07,175.26,1.92,5.69,3.74-192.46,7.08-16.91-10.69-106.79,3.44-66.39,28.62,25.55,30.91,54.75,1.14,16.52,11.38h37.74l13.04,9.5,33.49,1.29,31.35,20.87,39.24,8.81-41.25-2.12-29.82-19.53-37.83-2.45-13.11-8.49-41.81,1.25-11.23-6.94-74.74.71-3.79,15.36,10.5,12.99,101.41,26.69-107.15-17.54-25.97-27,8.53-22.78-12.13-15.78-70.72-12.66-13.16-7.6-57.89,36.29,24.11,10.22,18.39,24.93,60.6,34.99-68.67-25.8-16.96-21.8-19.86-6.39-23.88-17.02,31.26-25.35-16.98-18.57-43.73-14.63-64.99-6.59,53.58-3.23-21.49-17.95-100.88-11.61-35.52-31.14-50.88-12.74-15.25,6.43,52.04,40.21,21.78,55.05,61.38,4.04,4.67-3.3,33.36,26.19,22.08,8.13,5,24.13,38.82,24.72-6.8-.23-40.03-19.42-8.93-21.32-14.9-5.37-28.13-20.86-65.07.75,30.57,19.03,24.17,42.12-8.62-2.66-3.69,4.79,9.54,41.06-5.39-2.65-13.6-42.02,4.69-6.53-10.66-22.31-44.72-24.9-18.59-36.59-39.74,26.46,18.25,12.38-76.72-11.05-15.94,14.81,21.98,30.7-2.09,14.03,28.4,37.17-7.43-1.52-32.75-30.45.67-17.16-27.72-33.55,30.1-32.95,47.93,7.36,38.6-37.27-12.79-22.63-47.48-29.72-19.05,1,3.69,7.21-9.73,12.85-41.45,19.01-4,6.92-23.94-4.12-25.36,4.75-2.03,9.91-37.95,8.33-11.8,9,42.19,1.8-3.8,2.2-45.98,3.2-44.58,29.99,11.79,25.39-6.8,12.6,5.8,15.79,89.56,8.59,16.8,19.8,26.39,9.79-6.6,1.6-21.59-5-21.79-19.39-47.38,2.8,6.2,22.19-1.6,5.2-15.19-26.59s-36.39-1.6-35.79-1.6-22.79-29.99-22.79-29.99l9.8-10.2-6.8-12.19-30.99-4.6-23.79,22.39.4,18.19-34.39,11.4-4.2,8.2-43.78,17.79-2.8-1.6,34.59-17.79,7.4-12.79,29.19-11.2-3-15.79,14.59-25.79-52.78-13.99-17.19-14.8-5.4-19.39-23.19-21.99-23.19,2.6-14,17.19,34.99,54.18-5.6,49.58-2.2-3.2-2.8-41.58-25.19-24.99-30.79,10.59-3,30.59s-41.98,20.19-41.98,19.59-3.2,7.8-3.2,7.8l-32.19,14.19-3.4,13-58.58,25.99-4.4-1.2,52.58-27.19,3.2-12.6-28.19,5.2,57.98-25.19,5.2-10.39,32.79-17.39-6.2-20.39-63.38,1.4,4.8-3.6,73.17-10.59,22.19-19.79-15.2-17.6,19.79-24.19-75.97-32.39-107.96,36.99-5.8,21.99,13.59,9.2,67.97-1.8-2.6,2.6-80.37,13.4-12.6,17.39-1.4,37.38-15.4,25.99v-4.4l6.6-18.99-4.2-15.2-26.79,6-22.39,21.99-64.17,17.99,3.2-4.2,54.58-18.79,15.19-19.19-41.59,8.4,3.2-3.2,52.38-17.59,26.19-35.59-47.38-2.2,4-2.6,44.98-3.8,7-7-47.98-16.19-43.78,2.8,23.59-9.2-26.79-11.39-74.57,28.99,21.19,13.4-9.4,25.19-21.24,9.47-2.12,6.93-77.89,38.03,43.68-30.12,2.12-6.93,42.13-22.34-2.69-10.88-17.25-14.14-48.63,21.2-29.12-1.13s-12.44,10.74-12.72,11.31c-.28.56-47.89,18.06-47.89,18.06l-5.09,11.88-103.48,26.01,85.39-28.84,10.18-12.44-37.32-11.88,45.24,3.4,49.2-17.53,7.07-10.46,38.17-3.11,27.14-20.92-68.42-19.79-57.11,11.31-43.54,3.39-29.12,29.12-68.7,21.77-41.56-1.41,39.02-3.39,62.49-23.47,12.72-16.68-15.55-7.07,27.42-9.33-17.25-4.24-37.61,1.41-31.38-11.03-22.34-.85-22.9,5.37L0,230.27l78.6,2.26,20.64-6.5-28.84-12.51,42.13,6.01,50.33,14.13h49.2l31.38,8.2,68.99-14.14,6.79-6.79-8.2-13.29-17.53-3.39-18.38-15.55-35.62-2.26-24.88-11.88-50.61-4.81-51.18-10.46,53.15,4.52,46.35-3.05-10.44-22.12-57.39-12.72-10.31-5.86Z"/>
      <g class="cls-47">
        <g>
          <path class="cls-16" d="M674.43,197.75c.43,3.33.86,6.66,1.2,10.01.19,1.88.78,6.86-.59,8.19-1-1.28-1.41-3.2-2.01-4.7-1.61-4.06-3.68-7.87-5.08-11.98-1.29-3.78-2.27-7.69-4.12-11.26-.84-1.62-5.16-7.87-6.02-3.79-.78,3.71,1.18,7.44.63,11.1-.29,1.94-1.34,2.23-2.87,1.11-1.84-1.35-2.34-3.63-4.83-4.36-3.16-.93-1.44,3.9-1.34,5.36.29,4.69.35,9.58.34,14.32,0,2.31-.17,4.59-.32,6.89-.08,1.26.16,3.9-.8,4.98-2.54,2.87-5.63-5.75-6.23-7.32-1.85-4.89-3.11-9.87-4.57-14.88-.89-3.07-2.2-9.5-5-11.44-.25,5.86,1.79,11.22,3.09,16.79,1.15,4.92-.24,10.96,2.45,15.49.39-.88.18-2,.62-2.76,1.67,3.1,2.28,6.2,2.56,9.69.09,1.18.75,4.49-.22,5.45-1.64,1.62-3.27-1.99-3.8-3.1-3.41-7.19-6.61-14.78-8.93-22.4-1.25-4.11-2.3-12.69-7.15-14.53-.54.79-.04,1.85.23,2.78.71,2.44,1.54,4.79,2.09,7.29.81,3.69,1.43,7.22,1.43,10.99,0,2.48.16,5.13,0,7.58-.2,3.25-2.1.09-2.81-1.45-1.5-3.26-2.4-6.6-3.51-10-.85-2.62-2.04-5.11-3.06-7.67-.49-1.24-.93-3.16-1.81-4.21-1-1.19-1.32-1.05-1.82.29-.63,1.7-.09,1.83-1.8,3.11-1.62,1.22-2.64,1.85-3.04,4-.4,2.17.42,10.46-3.04,10.27-1.31-.08-2.64-2.78-3.34-3.63-1-1.19-2.09-2.01-3.2-3.02-1.84-1.67-4.09-3.99-5.53-6.04-.86-1.21-1.54-2.3-2.41-3.42-.38-.49-.96-.96-1.24-1.55-1.42-2.92,1.87-3.59,3.89-4.54,4.29-2,8.25-4.71,12.23-7.25,7.12-4.55,14.22-8.26,22.04-11.49,6.74-2.78,13.44-6.03,20.35-8.33,3.98-1.32,8.09-2.28,12.1-3.5,2.66-.81,6.33-2.57,9.16-1.9,2.96.69,2.43,6.77,2.75,9.23,1.1,8.54,2.21,17.08,3.32,25.62Z"/>
          <path class="cls-24" d="M491.9,202.72s2.81,14.53,4.06,21.98c.54,3.24.94,6.97,1.26,10.27.11,1.18.83,4.57-1.2,4.79-1.08.12-1.91-1.46-2.2-2.17-.85-2.09-.85-4.55-1.78-6.71-.81-1.89-2.06-3.35-3.13-5.07-1.17-1.89-2.11-5.61-4.09-6.7-.23,2.02,2.34,8.53,0,9.31-.92.31-4.85-1.75-6.13-1.91-2.3-.29-2.46-.5-3.83-2.45-.91-1.31-1.91-3.68-3.49-4.13-.39,3.51,1.29,7.71,2.04,11.1.43,1.98,1.06,8.42,3.33,9.18.71-2.24-.62-5.32.24-7.43,1.09,1.68,3.57,13.89.83,14.3-2.95.44-5.4-10.19-6.1-11.89-1.38-3.35-3.82-7.39-6.9-9.47-.64-.43-2.78-1.76-3.65-1.36-1.35.63-.14,1.12-.2,2.35-.08,1.73-1.02,1.96-1.66,3.39-.88,1.96.25,3.48.05,5.46-.42,4.11-2.63.52-3.89-1.07-1.5-1.88-5.47-8.42-8.35-8.01-1.01,2.53.84,5.4-.61,8.17-.99,1.88-1.51,4.01-2.48,5.79-2.13-.55-3.43-4.06-4.72-5.7-1.16-1.49-3.54-5.52-5.27-6.32-1.93-.89-.96.7-2.27,1.33-1.12.53-2.56-.72-3.66-.88-.1.45-.56.78-.66,1.04-1.12-.73-1.55-1.9-2.43-2.69-1.07,1.03-1.35,2.85-1.21,4.23.35,3.5,1.99,6.63,2.14,10.3.21,5.01-2.48,4.47-5.82,1.35-4.13-3.85-6.74-8.71-11.71-11.56-2.98-1.71-9.04-3.56-9.14,2.08-.02,1.46,1.09,3.46,1.51,4.9.87,2.94.71,9.15,3.08,11.22,1.55-2.01-.68-5.82.79-8.04,2.09,1.82,1.94,5.21,2.23,7.74.17,1.51,2.3,6.13,1.32,7.33-1.76,2.13-8.42-11.54-9.32-13.23-.96-1.8-2.12-3.5-3.05-5.31-1.12-2.16-2.04-6.57-4.26-7.81-2.06-1.15-1.23,1.31-1.78,2.69-1.16,2.94-3.36,1.35-5.45-.3-2.39-1.89-3.14-3.24-6.18-2.61-2.37.49-2.63,1.01-2.95,3.42-.39,2.97.13,5.78-3.33,3.75-2.82-1.66-3.95-5.29-6.58-6.75-.61-.34-1.74-.83-2.46-.63-1.97.57-1.31,6.75-1.05,8.8.23,1.83.66,6.41-.4,7.7-1.72-1.68-2.72-6.03-3.51-8.37-.69-2.05-1.47-4.04-2.11-6.08-.84-2.69-1.28-5.46-1.37-8.29,2.72,2.03,8.19.45,11.22.32,8.35-.36,16.77.83,25.11.09,6.39-.57,12.46-.68,18.89-.7,4.03-.02,8.23.51,12.23-.02,3.93-.53,7.5-2.32,11.14-3.78,6.52-2.62,12.91-5.72,19.55-7.98,6.98-2.38,13.9-5.7,21.04-7.46,5.21-1.28,12.97-1.76,18.34-1.49Z"/>
          <path class="cls-33" d="M459.65,140.08l2.56,13.41c.95,1.54.04,3.79,1.66,5.08,2.72,2.17,1.63-3.83,2.9-5.11,2.3,1.4,2.12,2.94,3.29,5.15,1.64-1.54,5.62-1.1,7.44-.54,1.91,4.95,5.51,8.98,7.5,13.95,1.25,3.12,2.13,6.94,4.29,9.59,3.4,4.2,3.08-1.79,2.79-4.23-.19-1.64-1.48-10.66,2.69-7.62,1.36,1,3.19,3.93,3.9,5.45,1.1,2.35,1.12,5.2,2.26,7.58.63,1.33,2.93,3.49,2.5,5.12-.69,2.63-2.46-.22-3.08-1.47-.31-.63-.87-3.48-1.93-2.2-1.71,2.08,3.09,9.25,4.13,11.32.4.79,2.3,6.06,3.55,5.98,2.82-.18,2.1-9.39,1.89-11.14-.32-2.73-1.63-5.36.96-7.1,2.76-1.85,3.91,1.32,5.23,3.75.9,1.66,1.79,4.22,3.21,5.53,1.48,1.36.84.99,2.16.2,3.05-1.82,2.79-2.87,5.04.3,1.96,2.75,2.71,5.02,3.87,8.22.72,2,1.75,3.79,2.76,5.65.91,1.67,1.49,4.27,2.81,5.59.77-1.73,2.71-13.58,5.62-7.12,2.24,4.97,4.06,9.95,6.62,14.83.43.82,1.37,3.16,2.32,3.59,2.37,1.05.9-3.22.55-4.55-1.05-3.97-1.42-7.99-2.27-11.98-.72-3.43-1.29-6.83-2.19-9.99-.24-.85-.6-2-1.02-2.82-1.46-2.88-4.96-5.12-7.38-7.09-8.01-6.49-15.57-13.28-24.26-18.88-12.03-7.75-22.8-17.16-35.98-22.98-4.43-1.96-11.5-5.48-16.37-5.48Z"/>
          <path class="cls-50" d="M608.99,275.89s.84,7.2,2.08,13.41c.4,2,2.06,8.33,1.25,10.54-1.77,4.83-4.79-6.81-6.01-8.6-.56,1.34-.02,3.27.17,4.67-2.35-1.73-2.86-7.61-3.7-10.38-.58-1.94-1.48-3.29-.29-4.92,1.22-1.66,5.71-2.67,6.5-4.72Z"/>
          <path class="cls-49" d="M600.39,291.49c1.77,8.79,3.22,18.52,4.05,22.86.2,1.03,2.56,9.51.91,9.54-1.31.02-3.29-7.67-3.77-8.89-.61-1.58-1.5-6.08-3.33-6.43-.21,2.3.81,4.48.57,6.77-1.7.04-3.44-3.16-4.53-1.31-.65,1.1.69,8.86,1.81,9.42.41-1.24.6-2.63.7-3.93,1.25,1.38,2.05,10.43-1.23,9.3-2.04-.71-3.37-7.17-3.78-8.95-.45-1.99-.77-4.6-3.12-5.25-.98,1.2-.42,11-3.3,6.63-1.51-2.28-.9-5.52-1.49-7.72-.72.28-1.25-.09-1.57-.84-1.85,4.38-1.88,8.98-3.25,13.52-1.45,4.82-3.43-.08-5.65,2.19-1.53-1.81-1.08-3.88-.02-5.63,2.43-4.02,4.83-8.37,7.87-11.98,2.45-2.91,4.49-5.97,6.68-9.09,1.97-2.8,3.66-6.24,6.38-8.45.94-.77,5.38-1.97,6.05-1.78Z"/>
          <path class="cls-15" d="M540.81,253.3s.69,1.61,1.31,3.69c.27.89.62,1.92.6,2.99-.88-.07-1.37-1.24-2.01-1.86-.95-.91-2.04-1.55-3.37-1.62-.36.86-.08,1.17-.64,1.77-.08.08-.71-.35-1.1.11-.48.57.06,2.07.16,2.67.49,2.98-.77,2.22-2.53.54-1.25-1.19-2.18-2.66-3.52-3.69-1.6-1.23-1.83-1.48.27-2.28,1.45-.56,2.94-.92,4.4-1.4,1.61-.52,4.74-.93,6.44-.92Z"/>
          <path class="cls-34" d="M319.21,220.94c2.42,9.56,4.29,18.26,4.29,18.26.49,1.31.58,2.71.19,4.01-5.26-.17-4.06-10.51-8.55-11.11.49,2.29,1.48,5.49.6,7.71-3.34-1.33-2.56-1.5-3.65,1.64-1.7,4.9-3.09,2.69-5.99-.4-1.54-1.64-5.59-5.92-8.17-5.28-2.99.74-.73,4.64-5.15,4.98-4.5.35-9.67-2.15-14.34-2.12-3.24.02-7.64-.73-10.79-.01-2.13.48-3.33,1.68-5.57,1.76-2.15.08-4.58-.98-6.69-1.28-2.85-.4-5.8-.26-8.57.04,1.76-3.66,10.79-5.42,14.45-6.24,10.15-2.28,20.16-4.97,30.5-6.29,8.53-1.09,19.6-2.1,27.42-5.67Z"/>
          <path class="cls-42" d="M277.32,175.53c1.05,3.94,2.81,10.15,2.91,10.56.17.68.49,1.94.32,2.65-.4,1.64-1.8-.6-2.29-1.27-1.25-1.69-2.07-3.75-3.62-5.19-1.09-1.02-2.37-2.83-3.85-3.22-.2.67.55,2.29-.11,2.69-.81.49-2.12-1.25-2.85-1.45-1.81-.5-1.79,1.6-3.22,2.08-1.13.38-1.89-.52-2.59-1.3-1.65-1.85-3.31-3.59-5.4-4.96-.89-.59-1.79-1.22-2.74-1.71-.13-.06-.84-.46-.96-.42-.55.16-.04.23-.33.62-.38.5.19.58-.5.82-.41.15-1.07-.3-1.41-.47-1.56-.78-2.99-2.13-4.75-2.48-1.77-.35-3.31,1.31-5.24,1.1-1.63-.18-2.29-2.52-3.64-3.51-.83-.61-1.73-1.08-2.66-1.49-.55-.24-1.16-.62-1.75-.73-.25-.05-.78.12-.96.03-.39-.19-.79-.9-1.02-1.22.98-.38,2.78.06,3.81.15,3.34.31,6.73.53,10.06.97,7.07.95,14.22,2.34,21.14,4.08,3.43.86,8.38,2.4,11.66,3.67Z"/>
          <path class="cls-3" d="M212.32,160.78c1.17,3.73,2.17,7.69,2.56,9.08.14.49,1.05,2.73-.08,2.26-.44-.18-.77-1.04-.96-1.4-.53-1.03-1.11-1.9-1.87-2.77-.87-.99-1.78-2.56-3.06-3.06.05.86.79,3.04-.86,2.19-1.3-.67-2.37-1.93-3.83-2.34-.61-.17-.58-.38-.76.32-.22.84.52,2.37.77,3.17.11.34.27,1.44.84,1.11.21-.12.2-.95.27-1.15.35.57.95,2.12.57,2.78-.73,1.27-2.03-1.19-2.43-1.71-.69-.9-1.73-2.39-2.79-2.91-1.43-.69-.91,1.34-1.01,2.21-.04.31-.03,1.23-.3,1.41-.59.37-1.57-1.38-1.82-1.76-.56-.85-1.1-2.16-2.06-2.68-.62-.33-1.05-.06-1.72-.17-.76-.12-1.13-.46-1.91-.15-.79.31-1.33,1-2.26.96-.99-.04-1.49-.91-2.26-1.43-.84-.56-1.88-.89-2.9-.85-1.07.05-1.59.35-2.62-.07-.66-.27-1.31-.61-2.01-.79-.75-.2-1.8-.06-2.44-.46.28-.2.69-.2,1.05-.28,1.24-.27,2.42-.66,3.68-.86,5.54-.88,11.22-1.39,16.82-1.66,3.11-.15,6.13-.11,9.23.14,1.03.08,2.13.08,3.09.41.18.06.91.41,1.09.46Z"/>
          <path class="cls-23" d="M213.75,249.5s1.88,5.23,3.02,8.54c.53,1.55,1.47,3.31,1.87,4.98.6,2.53-1.16.85-1.99-.38-1.51-2.23-3.13-4.72-5.5-6.17-.35-.21-1.25-.78-1.71-.48-.76.49.38,2.08-.2,2.66-.92.93-4.22-2.53-3.25.92.25.88,2.41,6.03-.23,3.94-2.12-1.68-4.41-4.95-7.23-5.47-1.02-.19-.82.28-1.58.63-.77.35-1.36.08-2.12-.11-1.42-.37-3.14-.44-4.62-.52-1.31-.06-3.08.44-4.29.01.26-.78,1.19-1.14,1.9-1.43,2.3-.94,4.83-1.25,7.21-1.93,3.8-1.08,7.27-3.07,11.19-3.6,1.64-.23,7-1.42,7.53-1.58Z"/>
          <path class="cls-22" d="M201.87,265.9c.57,1.67,1.18,3.34,1.71,5.02.57,1.79,1.98,4.24,1.28,6.16-1.23-.27-2.34-1.9-3.15-2.83-.45-.52-1.39-2.32-1.7-1.14-.18.66.48,1.27.2,2.01-.13.34-.62.71-.81,1.07-.51.94-.43,2.03-.87,2.96-.78,1.64-1.18.55-2.16-.22-1.18-.93-1.2-.28-1.78.69-.91,1.54-3.16,2.57-4.72,3.38-1.42.74-2.82,1.68-4.4,2.09-1.19.31-2.44-.17-3.68.05-.79.14-4.19,1.75-2.92-.25,1.01-1.59,3.52-2.76,5.03-3.71,3.06-1.91,5.76-3.55,8.2-6.25,2.24-2.48,4.54-4.96,6.87-7.37.61-.63,1.17-1.49,2.04-1.76.23.1.58.06.84.1Z"/>
          <path class="cls-27" d="M396.11,265.05s2.02,6.86,2.95,10.27c.47,1.72,1.24,3.36,1.54,5.12.22,1.26.08,3.33-1.29,1.41-1.42-1.99-1.45-4.69-2.97-6.67-.58-.76-2.04-2.34-3.09-2.43-1.06-.09-.78.64-1.31,1.21-.2.22-.65.1-.9.37-.34.37-.33.88-.33,1.35,0,.74.36,3.61,1.49,3.48,1.01-.12.58-1.87.84-2.56.95,1.5,1.32,3.99,1.8,5.7.2.72.38,1.9-.52,2.26-1.05.42-1.99-1.25-2.49-1.96-.4-.55-2.04-4-3.08-3.87-.81.1-.66,1.2-.68,1.82-.03,1.51.33,2.34-1.18,2.75-.91.25-.8-.01-1.29.81-.53.88-.58,1.38-1.57.52-.94-.82-2.5-5.36-4.23-4.03-.65.5-.97,1.81-1.61,2.43-1.09,1.05-2.12.9-3.48.67-1.7-.28-1.61.51-2.75,1.48-1.35,1.14-1.79,1.06-3,.78,1.83-3.08,2.55-4.95,5.52-6.94,2.44-1.64,4.86-3.31,6.94-5.42,1.83-1.87,3.56-4.06,5.75-5.54,1.25-.84,2.56-1.04,3.96-1.45.75-.22,1.33-.72,2.04-.97.53-.19,2.56-.69,2.94-.6Z"/>
          <path class="cls-26" d="M437.99,177.92l1.97,12.83c.12.53.02.7,0,1.28-.05,1.83-1.02,1.21-1.97.02-1.91-2.38-2.85-5.51-4.35-8.15-.71-1.26-1.73-3.71-3.14-4.35-.09.9.52,2.89-.4,3.46-.79-.24-1.14-1.51-1.75-2.08-.94-.88-.58-.19-1.2.3-1.83,1.45-3.99-5.07-4.44-6.03-.62-1.33-1.97-4.91-3.88-5.1-1.1-.11-.94,2.51-.93,3.33.01.84-.15,2.19.16,2.97.23.6.02.29.5.55,1.01.54.65-.24,1.3-.4.9-.23,1.05,3.56,1.07,4.21.03,1.02-.46,5.84-2.17,3.98-1.35-1.47-1.87-4.67-2.34-6.56-.46-1.84-.66-3.68-1-5.54-.27-1.46-.8-2.58-1.48-3.88-.34-.63-.59-1.64-1.17-2.04-.24.73-.23,3.97-1.16,4.02-1.41.07-1.86-4.13-2.87-4.97-.26-.22-.44-.47-.78-.62-.38.43-.44,1.73-.93,1.94-1,.43-1.96-2.68-2.17-3.27-1.29-3.69-1.43-7.91-3.34-11.38-.48-.87-.86-1.47-1.05-2.49-.17-.94-.38-1.87-.77-2.75-.29-.65-1.03-1.34-1.05-2.06,1.93.84,3.63,2.98,5.21,4.31,3.13,2.63,6.43,5.17,9.74,7.57,5.42,3.93,11.31,7.31,16.51,11.53,2.32,1.89,4.6,4.18,6.43,6.55.45.58,1.25,2.15,1.45,2.84Z"/>
          <path class="cls-2" d="M395.67,174.46c.31,1.46.62,2.93.83,4.4.15,1.01.64,2.56.05,3.51-.5-.21-.8-1.17-1.01-1.64-.55-1.24-1.13-2.55-2.01-3.61-1.88-2.25-.62.75-1.65,1.36-.98.58-1.09-1.51-1.98.11-.34.62-.4,1.09-1.27.76-1.28-.47-2.07-2.17-3.22-2.9-.79-.5-1.58-.62-2.44-.24-1.26.55-1.87.76-3.32.56-1.04-.15-1.98-.12-2.98-.17-.94-.04-1.45-.62-2.17-1.2-.45-.36-.89-.78-1.49-.81-.49-.03-.86.33-1.32.32-.45-.01-.76-.33-1.13-.55-.87-.52-.91-.36-1.78-.16-2.12.48-2.63-1.55-4.03-2.64-.91-.7-4.02-1.22-4.23-2.47,4.28.45,8.43,1.92,12.74,2.36,2.57.26,5.04-.32,7.6-.27,2.31.05,4.38.83,6.6,1.34,2.03.47,4.12.65,6.16,1.06.59.12,1.16.23,1.69.54.18.1.31.11.36.33Z"/>
          <path class="cls-5" d="M439.45,270.89s1.59,9.92,3.45,14.11c.54,1.21,3.07,6.32,4.42,5.13,2.25-1.99-2.55-6.78-.4-9.34,1.23.67,1.65,2.06,2.51,3.11,1.41,1.72.98.47,2.36.49,2.41.02,2.76,2.74,3.38,4.54.76,2.22,1.36,4.33,2.1,6.63,1.19,3.68,2.95.59,3.81-1.87.99-2.82,2.08-6.26,1.07-9.23-.88-2.58-4.75-4.05-7.04-5.2-3.01-1.51-5.97-3.2-8.83-4.98-1.81-1.13-4.76-3.39-6.82-3.39Z"/>
          <path class="cls-25" d="M437.92,304.52s1.19,5.01,1.53,6.72c.18.88.11,1.54-.29,2.32-2.55-.57-3.65-4.03-5.74-4.38-.33,1.04.14,2.31-.91,2.85-.59.3-1.49-.2-2.26.21-2.43,1.29-1.31,4.65-4.83,3.5-1.17-.38-2.07-1.07-3.33-.56-1.41.57-1.8,1.88-3.6,1.63-1.73-.24-2.51-.92-4.38-.54-1.24.25-3.06,1.21-4.26.88.63-2.15,4.02-4.19,5.73-5.34,3.9-2.63,8.49-3.96,12.76-5.86,1.55-.69,8.02-2.81,9.59-1.43Z"/>
          <path class="cls-11" d="M653.97,104.09c1.82,9.43,3.26,19.99,4.3,24.13.74,2.95,2.88,7.64,1.46,10.56-2.21-.47-3.37-6.74-4.11-8.65-1.23-3.15-1.77-7.07-4.39-9.48-1.9-1.74-3.12-1.37-2.66,1.37.24,1.39.46,2.79.86,4.15.12.39,1.33,3.59,2.08,2.57.26-.36-.06-1.36-.07-1.78,0-.38-.02-.87.15-1.22,1.24.39,1.56,2.91,1.71,3.95.18,1.32.55,2.6.63,3.94.02.26-.2,3.76-.83,3.48-1.66-.71-2.08-4.25-2.92-5.8-.82-1.5-1.94-3.16-3.3-4.16-1.53,2.2-.47,2.31-3.11.72-3.01,4.77-3.8-.88-5.37-3.33-.8-1.25-1.65-1.97-2.93-2.59-2.03-.98-3.39-2.21-5.29-3.41.68-.67,1.59-.79,2.45-1.21,1.97-.99,3.54-2.62,5.24-4.02,2.78-2.28,5.75-5.14,8.82-7.02,1.41-.87,5.71-2.35,7.28-2.21Z"/>
          <path class="cls-10" d="M610.52,64.37c.64,2.42,1.22,4.9,1.95,7.27.2.63,2.32,5.69.43,5.43-1.28-.17-3.44-5.52-4.06-6.57-.85-1.46-1.98-3.06-3.7-3.51-.22,1.29.45,2.77.31,4.16-.53-.06-2.04-1.47-2.53-1.24-.77.36-.03,1.21-.52,1.72-1.32,1.36-3.39-2.67-4.21-3.65-.69-.83-1.64-2-2.71-2.4-.9-.33-1.6-.09-2.6-.56-1.2-.56-2.21-1.27-3.53-1.61-.98-.25-2.18-.14-2.98-.61,2.61-1.61,8.16-.94,11.07-.93,2.58,0,5.1-.41,7.63.23,1.65.42,3.03,1.36,4.58,1.79.18.05.7.38.85.48Z"/>
          <path class="cls-41" d="M668.17,128.48c2.98,1.4,3.89,1.19,7.03,2.64,7.74,3.59,13.82,8.27,20.8,13.04,8.03,5.5,17.56,3.24,26.83,3.77.19,3.45.2,6.89.91,10.2,1.11,5.19,5.09,15.12,1.38,19.53-1.72-3.21-1.44-7.44-3.48-10.26-1.86,1.89.68,6.11-1.48,8.09-1.15-2.05-5.17-20.67-7.99-18.41-.75.6-.97,1.33-1.9,1.73-.78.35-1.15.05-1.67.89-.63,1.02-.3,2.81-.32,3.94-.03,2.37-.03,4.79-.32,7.14-.09.74-.35,4.68-1.31,4.76-.68.06-1.63-4.48-1.77-5-.77-2.87-1.15-5.82-2.04-8.67-.3-.98-.95-4.27-2.05-4.78-1.77-.81-2.08,2.32-2.81,2.99-.85-.36-1.12-1.57-2.08-.84-.99.74-.97,3.72-1.04,4.81-.22,3.58.37,7.16.59,10.73.12,1.81.7,5.86-1.05,7.02-1.79-1.31-2.17-5.5-3.08-7.43-.66-1.39-1.36-2.75-1.93-4.17-.33-.84-.49-1.92-1-2.68-3,2.05.64,7.81-1.97,10.15-1.13-.65-1.34-2.99-1.67-4.17-.64-2.28-1.2-4.56-1.74-6.86-1.07-4.47-2.86-8.79-3.58-13.34-.16-1.03-.24-1.61.83-1.05,1.36.71,1.87,3.31,2.25,4.62.35,1.22,1.5,5.9,3.31,5.82,1.01-.05.93-1.28.91-2.04-.09-4.7-3.3-8.4-4.96-12.63-.81-2.07-1.3-4.65-3.91-4.4-.93.09-1.71.41-2.46-.19-1.13-.91-1.64-3.15-2.39-4.36-.33-.53-1.4-2.43-2.18-1.77-.68.57.16,3.09.27,3.75.08.5,1.24,6.84-.57,6.62-.69-.09-1.64-2.82-1.81-3.59-.83-3.68-4.09-16.56-4.09-16.56.45-.32,3.01.69,3.54.94Z"/>
          <path class="cls-4" d="M811.89,102.14c-.13-.04-.7.65-1.32,1.13-1.75,1.34-3.53,1.81-5.42,2.83-2.19,1.17-2.34,3.06-3.91,4.67-1.04,1.07-1.82.89-3.17,1.35-2.87.98-3.04,3.69-5.16,5.52-1.41,1.21-2.76.84-4.36,1.26-.28-.78-1.63-3.66-2.95-3.28-1.8.51-.57,8.41-.51,9.71.18,3.96-2.33,4.63-3.42.71-.54-1.94-.26-5.37-2.43-6.42-.67,1.63-.38,1.72-1.9,1.94-1.39.2-1.73-.91-3.11.62-1.51,1.68-1.17,3.78-.97,5.85.2,2.17-.62,6.12,1.45,7.46.95-.87.95-2.72,1.45-3.94.56,1.7.91,14.24-2.3,11.13-1.61-1.57-2.37-16.11-7.25-12.81-2.35,1.59-.93,7.33-.85,9.65.12,3.62.04,8.54-1.04,12.03-1.7,5.54-3.23-2.58-3.48-4.55-.36-2.82-1.05-5.57-3.16-7.62-2.16,1.76-1.38,7.67-4.08,2.47-1-1.92-2.71-4.3-5.3-3.09-1.35.63-1.39,2.19-2.29,3.21-1.09,1.23-2.76,1.58-4.03,2.6-2.28,1.81-3.06,5.56-6.26,4.74-1.77-.45-3.23-1.59-5.16-1.88-2.18-.32-4.21-.46-6.42-.61,7.48-6.3,15.14-13.07,23.27-18.69,4.57-3.16,9.5-5.84,13.99-9.13,2.87-2.1,5.61-3.91,9.17-4.61,9.31-1.83,17.67-6.01,26.71-8.9,3.92-1.25,10.36-4.92,14.23-3.36Z"/>
          <path class="cls-17" d="M687.56,97.16c1.15,6.01,1.77,9.32,2.39,11.19.28.83,1.38,2.8,2.45,2.08.6-.4.17-4.2.28-4.96,1.61,0,1.86,2.18,2.85,3.12,2.56-2.13,3.56,3.39,3.95,4.72.35,1.21.84,3.69,2.27,3.69,3.19,0,1.02-4.69,1.99-6.09.4-.58,3.44-2.22,4.44-2.11,2.07.22,1.86,1.82,3.93,1.26,1.14-.31,1.94-.98,3.32-1.13,1.3-.14,2.66-.05,3.94-.3,3.39-.66,5.69-2.16,9.32-1.75-5.55-2.28-12.2-2.15-18.08-3.43-4.56-.99-9-2.46-13.52-3.58-2.48-.62-7.37-1.38-9.51-2.69Z"/>
          <path class="cls-14" d="M630.01,69.17c.5,1.32,1.15,2.77,1.61,4.16.52,1.57.4,3.24.9,4.81.22.7.8,2.35,1.8,2.23,1.17-.14.66-2.18,1.78-2.34,1.41-.21,1.19,1.89,1.99,2.47.57.42,1.47-.09,2.21.34,1.03.6,1.14,1.9,1.35,2.93.48,2.4,1.05,5.2,2.51,7.21,2.87,3.95,1-6.35,1.85-6.91,1.93-1.27,2.21,3.11,2.02,4.09-.2.99-.33,5.88.95,6.26,1.69.5.79-3.59.91-4.13.32-1.46,1.61-2.69,2.8-1.2,1.06,1.32,1.62,5.11,1.06,6.63-.91-.28-.92-1.87-1.65-2.47-.95,2.19.78,5.72,2.62,6.97.73-1.21,1.32-2.64,1.63-4.03.31-1.41-.05-3.55,1-4.66,1.95,1.13,2.08,5.11,2.95,6.93,1.47,3.07,2.48,6.57,4.08,9.53,1.02-3.02.12-6.21.29-9.29.14-.04.27-.02.42-.05.34-3.71-.41-7.27-.59-10.87-.06-1.22-.05-1.43-.89-2.17-.6-.53-1.54-.7-2.26-1.01-1.76-.75-3.38-1.64-5.06-2.55-5.33-2.9-10.93-5.24-16.31-8.06-3.31-1.73-7.14-3.12-9.96-4.81Z"/>
          <path class="cls-20" d="M852.03,159c1.58,13.11,3.75,37.05,4.69,43.72.32,2.28.69,9.91-1.45,11.27-2.59-1.61-2.87-5.23-3.46-7.97-1.18-5.59-2.11-11.21-3.34-16.8-.94-4.26-2.04-11.22-6.07-13.69-.68,2.27.87,6.99-1.21,8.34-1.74-1.92-5-2.22-6.2.24-1.51,3.09,4.64,17.88.11,19.36-3.74,1.22-8.18-30.71-11.62-34.19-2.87,2.38-2,7.8-2.2,11.15-.13,2.25-1.3,5.81-.88,7.86.88,4.25,3.81,3.38,5,0,2.26,1.78,1.41,10.19,1.19,12.91-.19,2.29-.78,6-3.89,4.75-3.88-1.57-4.06-9.32-5.19-12.56-1.21-3.46-3.24-5.31-4-9.65-.46-2.62-1.37-16.29-5.84-15.56.14,4.86.22,8.98-.6,13.83-.72,4.23.97,10.3-2.15,13.7-2.66-1.14-2.82-5.55-3.5-8.26-1.14-4.55-2.17-9.17-3.42-13.69-.94-3.42-2.35-7.67-5.54-9.65-1.26,3.62.46,7.59-.65,10.99-.33-.45-1.22-.78-1.58-1.18-2.94,2.44,1.59,19-1,19.56-2.46.54-2.43-6.14-4.28-6.51-2.27-.45-1.97,2.95-1.85,4.28-2.87-4.44-2.67-12.06-3.39-17.28-.52-3.71-.52-7.87-1.28-11.49-1.24-5.9-1.33-8.55-1.33-8.55l34.77-3.25,40.14,8.32Z"/>
          <path class="cls-44" d="M818.71,243.51c1.02,7.37,2.12,14.74,3.23,22.1.42,2.75.54,5.56.89,8.27.42,3.2,2.25,6.75.99,10-3.17-.74-4.6-8.37-5.37-11.12-1.2-4.31-2.53-11.05-6.15-14.07-3.01,1.8,1.35,6.3-.16,8.65-.48.74-2.95.86-3.82,1.1.14,1.49.65,3,.53,4.58-.29.08-.55,0-.84.07-.46,3.38,1.48,6.68,1.14,10.17-1.61-.59-2.53-2.82-3.6-4.24-1.36-1.81-2.15-2.14-3.8-3.17-2.62-1.64-5.12-2.49-5.59-5.44-.51-3.22.3-8.61,1.21-11.67,1.37-4.66,5.61-6.05,9.36-8.51,3.26-2.14,6.93-5.64,10.56-6.69.14-.04,1.07-.13,1.43-.04Z"/>
          <path class="cls-9" d="M814.11,285.29c1.15,7.17,2.23,13.69,2.7,17.73.16,1.36.8,5.88-1.48,4.25-1.5-1.07-1.43-6.59-2.12-8.35-.53-1.35-1.32-3.23-2.75-3.81-.27,2.04,1.41,4.85-1.1,5.76-.68.25-1.2-.29-1.75.42-.42.55,0,1.41-.43,2.01-4.33-3.6-4.97,6.87-5.34,8.85-1.7-1.48-.94-5.11-2.73-6.16-2.1-1.23-1.31,1.7-1.56,2.83-.24,1.08-.76,1.57-.75,2.92.02,1.74.83,4.08-.18,5.59-2.47-1.58-2.65-6.54-3.46-9.19-.66-2.17-2.14-4.2-.76-6.23,3.35-4.94,8.41-7.63,12.95-11.29,2.29-1.84,6.12-4.12,8.75-5.33Z"/>
          <path class="cls-32" d="M783.52,338.27c.29,2.12.56,4.24.95,6.33.39,2.08.98,4.77-.26,6.69-.78-.94-3.29-8.44-5.13-7.89-1.19.36.12,2.82-.59,3.42-.84.71-1.4-.71-2.19-.62-.41.05-2.41,1.77-2.68,2.15-1.51,2.08.14,5.13-.96,7.46-2.19-.11-3.1-8.7-6.21-5-.49.58-.1,1.1-.94,1.51-.59.28-1.45-.19-2.1-.08-1.94.34-2.2,2.23-3.57,3.46-1.12,1.01-2.25,2.02-3.74,1.83-1.55-.19-2.57-1.44-4.22-.64-1.1.53-1.85,1.86-2.79,2.61-.81.64-1.6,1.23-2.22,2.03.76-3.01,1.73-6.17,3.81-8.61,2.04-2.39,5.32-4.33,7.87-6.14,3.52-2.49,7.31-4.83,11.27-6.52,2.63-1.12,6.88-3.04,9.86-2.8.94.08,2.15.77,2.68.64.16.06.97.14,1.18.16Z"/>
          <path class="cls-1" d="M1068.21,187.52c-.07,3.02-.15,6.04-.24,9.06-.19,6.51.22,13.52-.82,19.87-.56,3.45-.62,6.71-.65,10.21-.04,3.9-.27,7.81-.43,11.7-.08,1.86.12,5.05-1.54,6.26-1.51-4.74-.45-10.91-.9-15.86-.27-2.95-.59-5.83-1.27-8.72-.33-1.42-.6-3.59-1.78-4.61-.85,1.43-.62,3.44-.76,5.04-.33,3.8-.65,7.59-.97,11.39-.62,7.25-1.49,14.17-3.22,21.22-.92,3.76-1,7.93-1.1,11.8-.06,2.23.7,7.87-1.06,9.41-.63-8.31.3-16.82.29-25.15,0-8.3.39-16.63.04-24.92-.25-5.61-.12-11.42-.96-16.94-.28-1.81-.99-3.53-1.4-5.19-.48-1.9-.39-3.23,1.11-4.66,2.26-2.15,5.03-4.37,7.62-6.1,2.03-1.36,4.19-3.04,6.48-3.37.24-.04,1.33-.36,1.56-.43Z"/>
          <path class="cls-7" d="M1044.76,209.38c-.46,2.79-.78,19.1-1.09,26.24-.24,5.39.92,10.13.41,15.51-.26,2.75-.42,5.49-.41,8.26,0,1.33.5,4.66-.9,5.37-1.74-3.33.07-8.34-1.89-11.71-1.63,1.7-1.46,6.52-1.68,8.74-.58,5.92-1.06,11.52-2.28,17.36-.45,2.17-1.19,4.25-1.65,6.4-.37,1.76-.29,3.62-.89,5.31.13-7.33-.34-14.74-.18-22.1.16-6.97.38-13.91.45-20.88.07-6.86-.06-13.59-.77-20.39-.21-2.01-.15-4.15-.46-6.09-.29-1.86-1.07-4.4.18-6.13,1.61-2.23,5.33-4.26,7.42-5.27.74-.36,3-.36,3.73-.62Z"/>
          <path class="cls-30" d="M894.71,174.81c.79.85,2.37,1.37,3.52,1.76,5.37,1.82,9.66,5.3,14.09,8.81,6.41,5.07,12.73,10.23,18.72,15.78,2.02,1.88,6.9,4.85,7.77,7.59.47,1.48-.17,4.58,0,6.27.35,3.53.95,7.13.83,10.71-.12,3.64-.62,7.16-1.04,10.76-.47,4.02.03,9.14-1.7,12.85-3.26-1.68-1.53-8.71-3.91-11.42-.74,1.47-.79,3.29-1,4.98-.42,3.36-1.27,6.65-1.82,9.99-.91,5.58-1.05,11.22-1.91,16.8-.41,2.7-.61,6.79-2.5,8.9-1.88-2.01-1.47-6.22-1.78-8.79-.81-6.8-1.1-13.41-1.51-20.25-.14-2.32-1.01-6.27.03-8.48,1.41,1.75.85,4.92,1.85,7.02,3.56-1.86,1.92-9.46,2.03-12.84.16-4.92-.46-11.27-2.12-15.9-2.58,5.03-.79,10.72-2.48,15.88-1.59-1.21-1.45-5.82-1.97-7.91-.48-1.88-.61-5.87-2.13-7.01-1.19,1-.62,3.44-.62,4.87,0,4.03-.22,8.04-.21,12.08,0,4.82-.44,9.63-.67,14.45-.18,3.78.11,8.29-1.04,11.92-4.06-5.91-3.97-14.94-5.12-21.76-1.26-7.44-3.07-14.79-4.32-22.22-.74-4.43-.81-10.29-3.14-14.25-1.07,1.02-.93,3.02-1.08,4.48-.35,3.43-.61,6.84-.78,10.28-.21,4.15.67,9.63-.65,13.64-4.28-1.29-3.88-10.43-4.11-13.88-1.04-15.94-2.87-44.68-2.87-44.68.41,0,1.21-.46,1.63-.46Z"/>
          <path class="cls-45" d="M1060.75,146.21c0,9.52,1.33,19.89-.42,29.3-1.86-2.72-1-7.93-1.47-11.11-.35-2.33-.63-6.18-2.62-7.76-1.13,1.41.15,4.72-1.39,5.89-.8-.49-1.13-1.61-1.76-2.33-1.26,1.98-.85,6.01-.72,8.29-2.88-2.45-2.73-6.41-3.28-9.9-.22-1.43-1.53-3.85-1.38-5.19.19-1.69,4.41-3.21,5.89-4.08,1.71-1,3.31-1.87,4.96-2.98.4-.27,1.67-.37,2.17-.13Z"/>
          <path class="cls-31" d="M1223.36,126.22c.43,18.26-1.43,37.31-3.29,48.59-.46,2.82-.83,5.21-2.48,7.56-3.12-1.48-1.9-13.65-2.35-16.92-.54-4.03-.96-11.39-3.8-14.43-.38,4.71,1.32,13.33-1.99,17.01-1.62-1.5-2.77-4.99-3.99-7.02-1.7-2.85-1.85-5.49-2.16-8.76-.19-1.98-.34-5.78-2.18-6.88-1.87,2.49-3.95-.33-5.61-1.52-3.85-2.75-4.97-.73-8.94-.33-2.63.26-3.83-1.79-5.31,1.06-.91,1.75-.46,5.21-.62,7.15-.26,3.02-.64,6.9,1.23,9.52,1.81-.39,1.63-2.66,2.73-3.75,1.56,4.06,1.09,8.62.39,12.78-.41,2.44-.31,8.45-2.81,9.61-1.73-4.68-.34-9.97-2.78-14.38-1.86-3.36-2.9-5.61-2.79-9.86.06-2.46.91-10.13-1.81-11.15-1.35,10.7-1.61,22.3-1.61,33.14,0,7.38-.07,14.59-1.58,21.84-1,4.81-.79,12.69-3.79,16.69-1.18-2.08-.4-4.93-.15-7.24.67-6.19.48-11.87-.2-18.06-.49-4.51,1.21-13.53-1.64-17.21-2.46.56-2.32,3.74-4.08,4.91-.15-2.5.55-5.99-.83-8.19-2-3.18-3.19-1.14-3.91,1.8-1.64,6.63-1.42,14.25-2.12,21.03-.43,4.12-.9,17.19-5.33,19.54-1.71-2.72-1.35-7.03-1.52-10.15-.3-5.37-.76-10.72-1.4-16.06-.48-3.98.35-13.47-2.69-16.37-1.21,1.04-1.45,2.65-2.43,3.75-.35-.13-.67-.3-.96-.54-1.55,2.61-.8,7.05-.96,10.03-.31,6.26-1.2,12.49-1.51,18.76-.4,8.03,1.36,20.74-2.74,28-.65-21.59-.59-43.69,1.2-65.05.19-2.3.13-5.4,1.24-7.45,2.45-4.51,11.05-8.35,15.15-10.93,5.77-3.62,11.4-7.56,17.17-11.12,4.8-2.96,9.92-2.81,15.37-3.41,5.3-.58,14.87-3.11,19.7-.48,3.24,1.77,6.65-1.37,9.87-2.87,1.76-.82,7.01-1.55,8.33-2.66Z"/>
          <path class="cls-6" d="M1090.25,148.51c4.61,9.25,1.5,20.3,3.25,30.27,1.27,7.24,1.16,14.24,1.8,21.56.22,2.48-.54,6.88.93,9,3.87-2.15,3.61-14.66,3.96-18.58.44-4.87-.28-12.43,3.19-16.37.64,1.28.61,2.96,1.13,4.17,1.3-1.22,2.34-4.07,4.13-4.6,3.97-1.18,3.08,5.75,3.19,8.22.3,6.42,1.34,13.06,1.08,19.48-.11,2.6-.12,8.78-2.17,10.59-2.76-5.42-1.2-12.83-4.34-17.98-2.47,3.67,1.48,14.37,1.99,18.42.7,5.49.68,11.51,1.94,16.85,5.22-6.69,4.31-19.09,6.25-27.14,1.98-8.17.65-15.95,1.78-24.04.47-3.38,1.12-8.12,3.56-10.43,2.97-2.81,1.79-.42,2.87,2.58,1.26-2.25,1.53-4.81,2.72-7.07.94-1.8,2.51-3.36,3.69-4.91-8.91-1.44-18.25-2.75-26.91-5.4-3.21-.98-10.87-1.83-14.05-4.6Z"/>
          <path class="cls-35" d="M1408.48,67.33c-4.87,7.27-16.05,8.1-18.12,15.55-.74,2.66-1.99,4.99-4.57,6.28-1.61-2.36.34-14.16-4.74-12.11-4.35,1.76.09,12.14-6.34,6.69-.18.89-1.12,1.71-1.32,2.34-4.56-6.16-8.31,2.09-9.13,6.56-1.09,5.87.17,11.76-1.01,17.7-.62,3.13-2.96,8.62-.64,11.46,4.58-2.05,4.17-10.01,5.48-14.06,2.36,3.31.26,11.48-1.41,15.33-2.73,6.3-4.19,11.44-5.38,18.21-5.08-3.92-2.09-19.53-2.93-25.61-.51-3.67-1.77-26.27-7.51-19.99-1.93,2.11-1.46,12.85-5.53,12.48-2.96-.27-1.6-5.37-5.8-2.87-7.89,4.71-.59,25.04-9.23,28.98-2.26-3.52-.96-10.58-1.46-14.72-.39-3.16-1.08-15.39-4.65-17.12-4.95-2.39-3.84,14.52-8.41,16.48-.63-2.34-.68-19.15-6.17-15.52-3.78,2.5-1.45,13.13-4.53,16.71-2.57-.84-2.82-5.88-3.84-8.25-2.25,1.51-2.7,4.7-3.14,7.32-1.16,7.06-1.33,14.13-3.28,21.07-1.42,5.04-2.36,9.71-3.01,14.88-.38,3.08-.48,7.5-2.82,9.73-1.44-4.49-.46-9.67-2.65-14.04-9.11,3.07.44,24.28-6.47,29.41-2.82-12.16-3.33-25.86-2.46-38.29.6-8.65,2.53-17.14,1.68-25.81-.44-4.44.1-8.58-1.26-12.9-.46-1.46-3.1-5.53-3.01-6.69.38-4.85,16.16-7.61,19.76-9.19,16.83-7.4,34.44-10.08,51.95-15.32,14.06-4.21,27.92-9.83,42.83-9.81,4.9,0,14.43,4.41,19.13,5.08Z"/>
          <path class="cls-8" d="M1312.39,193.77c-.03,4.3-.34,8.58-.78,12.85-.3,2.88-.62,5.69-.36,8.53.11,1.18.28,2.27.65,3.4.46,1.41.75,3.69,2.56,2.95,2.05-.83,2.35-4.12,2.98-5.94.51-1.47,1.46-5.07,3.01-5.87,1,.69,1.04,2.65,1.22,3.75.22,1.36.13,1.46,1.38,1.3.53-.07.8-.4,1.29,0,.6.5.59,1.97.79,2.64.18.63.34,1.55,1,1.88.42.21.82-.11,1.22.2.5.38.62,1.72.74,2.25.33,1.48.54,2.99.96,4.46.47,1.64.97,3.03,2.18,1.04.75-1.24,3.59-8.91,5.81-5.1.71-.31.88,1.5,1.08,2.02.47,1.24.44,2.75.94,3.94.44,1.04.66.87,1.6.33.78-.44,1.55-1.05,2.14-1.73.54-.63.99-2.02,1.8-2.39,1.98-.88,3.03,3.26,4.66,3.66.69.17,1.37-.45,2.06-.5.85-.07,1.73.31,2.5.62,1.91.78,3.06,2.86,4.95,3.46,1.18.37,2.25.15,3.49.68,1.8.77,3.18,1.86,4.77,2.93-1.02-1.85-2.84-3.55-4.24-5.17-4.44-5.12-9.5-9.33-14.87-13.44-8-6.12-15.93-11.92-24.84-16.62-2.69-1.42-4.98-2.98-7.43-4.72-.97-.69-2.12-1.16-3.26-1.42Z"/>
          <path class="cls-46" d="M1248.41,74.77c-.5,13.08-1.95,25.51-1.74,35.65.11,5.45-1.79,12.07,1.01,16.83,2.33-1.57,1.96-7.41,2.15-9.93.33-4.19.05-8.14,1.02-12.26,1.75,1.28.79,7.2.69,9.27-.3,5.9-.22,11.55-.1,17.46.11,5.33-.21,10.67-.22,16,0,2.38-.38,5.49.46,7.74,2.99-3.76,2.9-11.25,3.59-15.77.99-6.46,1.4-12.8,1.54-19.32.11-5.34.61-10.46,1.82-15.67.39-1.67.78-6.44,3.17-6.56.7,1.18.48,2.83.87,4.16,2.12-2.6,1.74-9.77,6.35-8.74-.55-2.99-7.51-5.47-9.94-6.85-2.11-1.2-3.21-2.99-4.54-4.93-1.37-2-4.6-5.22-6.12-7.07Z"/>
          <path class="cls-21" d="M1234.55,72.9c.13,12.61-1.07,25.21.94,37.71.37,2.29,1.07,7.64-1,9.34-1-6.84-1.06-13.83-2.57-20.6-.78-3.47-1.22-6.92-1.71-10.44-.33-2.34-.33-6.8-2.4-8.36-1.2,1.34.99,3.85-.18,5.09-1.7,1.8-2.83-2.23-3.14-3.17-.65-1.94-1.42-7.68-3.66-8.54-.44-.17-1.44.53-2.12.37-1.24-.3-1.67-1.8-2.66-2.37-4.3-2.48-2.76,10.09-6.51,4.09-2.19-3.5-2.91-5.67-7.16-6.01-.15-2.44.96-6.13-.88-8.25.58-.57,1.19-1.66,1.87-2.09,2.6-1.64,6.41,1.48,8.91,2.42,4.73,1.78,10.11,1.78,14.64,3.87,3.15,1.45,5.1,3.09,7.12,5.52.3.36.51.97.51,1.41Z"/>
          <path class="cls-48" d="M1226.55,108.89c.14,4.84.28,7.43,0,10.12-.08.81-.14,1.91-.58,2.61-1.24,1.97-2.25-.51-2.5-1.79-.46-2.31-.37-4.6-1.63-6.7-.88-1.47-1.29-1.34-1.86.18-.7,1.85-.99,1.38-2.4.32-1.51-1.13-1.6-.4-2.71.72-.7.7-1.6,2.68-2.61,2.78-.99.1-1.71-1.22-2.18-1.85-1.16-1.54-2.15-3.19-3.38-4.67-.36-.43-.94-1.45-1.54-1.53-.69-.1-1.12.56-1.74.74-1.63.46-3.95-.62-5.28-1.42-1.99-1.18-3.76-2.58-6.11-2.95-1.69-.26-3.16-.24-4.68-1.21-.93-.59-1.12-.78-.2-1.08.72-.24,2.12.03,2.85.1,1.89.17,3.77.38,5.66.53,6.8.53,13.5.71,20.23,1.87,3.36.57,7.72,1.68,10.67,3.23Z"/>
          <path class="cls-43" d="M1387.1,101.16s-3.58,32.45-3.79,44.87c-.06,3.71-.39,9.02,1.44,12.68,1.32-.94,1.18-3.17,1.31-4.68.29-3.44.65-6.78,1.39-10.17.67-3.08,1.4-6.18,2.28-9.21.5-1.71.81-4.62,2.28-5.78,2.28,3.12-.02,8.81,1.1,12.34,1.85-1.85,3.54-4.58,5.16-1.43,2.06,4,.75,9.86.48,14-.5,7.67.05,15.53.28,23.2.08,2.47-.19,6.26,1.52,8.32,1.5-1.56,1.5-4.58,1.97-6.63.99-4.32,1.7-8.37,2.04-12.79.34-4.43.46-9.53,2.21-13.69.52,1.72-.28,3.79.18,5.64,3.45-3.01,3.02-9.06,3.69-13.27.44-2.76.53-5.51.82-8.27.34-3.33,1.18-6.82,1.46-9.94.24-2.72-1.42-3.26-3.3-5.46-3.81-4.48-7.21-9.78-11.56-13.77-1.79-1.64-4.19-2.83-6.42-3.75-1.09-.45-4.14-1.45-4.54-2.22Z"/>
          <path class="cls-12" d="M1431.1,144.11s-2.63,28.1-3.78,41.2c-.32,3.59-.19,7.91.96,11.34,2.3,6.82,3.36-7.35,3.58-8.92.42-3.1.93-6.18,1.45-9.26.28-1.66.55-5.08,1.86-6.34,3.8-3.64,2.3,9.87,2.4,11.65,1.42-.34,2.85-3.95,4.5-3.55,2.02.48,1.51,5.94,1.91,7.61,1.22,5.15,1.51,10.18,1.67,15.49.06,2.05-.74,9.51,1.21,10.8,3.44-5.84,5.54-13.61,6.33-20.27.38-3.18.78-6.37,1.13-9.55.18-1.58.17-4.06,1.25-5.35.43.83.42,1.85.81,2.69,3.28-4.91,4.16-9.02,4.15-14.81,0-1.49,1.24-4.66.85-5.9-.2-.63-1.98-1.32-2.45-1.61-2.47-1.49-4.63-3.33-6.99-4.98-3.51-2.46-7.21-4.54-11.03-6.44-2.48-1.23-7.88-1.73-9.82-3.79Z"/>
          <path class="cls-28" d="M1497.59,207.1c.13,1.56-.27,5.25,1.08,6.35,1.96-1.13,2.22-5.91,2.66-7.93,1.33-6.06,2.93-11.93,4.67-17.89.25-.85,1.49-7.25,2.97-6.31,1.48.93-.79,7.95-.23,9.68,2.08-2.4,3.81-5.02,6.89-6.32,3.15-1.33,2.9,1.86,2.89,4.74-.01,4.47-1.09,8.97-1.24,13.47-.09,2.58-1.1,9.46,1.24,11.31,3.9-3.17,5.15-10.68,6.42-15.29,1.06-3.86,1.45-9.23,4.56-12.13.67.61.98,1.69,1.44,2.52,1.9-.83,2.28-5.96,2.7-7.79.6-2.58,1.45-5.11,1.76-7.75.26-2.24.59-4.5,1.13-6.71.47-1.91,1.21-2.47-.4-3.44-.63-.38-2.55-.48-3.32-.71-2.03-.62-4.07-1.2-6.17-1.57-3.09-.54-6.36-.54-9.48-.39-3.17.16-6.1,1.09-9.03,2.01-3.38,1.06-6.61-1.24-7.38,3.19-.78,4.5-1.25,9.09-1.83,13.62-1.17,9.05-2.09,18.21-1.31,27.34Z"/>
          <path class="cls-19" d="M1487.04,160.11c.71,5.99-.4,12.87-1.13,18.83-.52,4.22-.59,8.31-.74,12.54-.09,2.5-.07,6.35-2.03,8.17-1.2-2.03-.04-7.09-.02-9.32.02-3.44-.03-6.88,0-10.33.01-1.99-.18-6.68-2.43-7.47-.53,1.04-.75,4.75-1.7,5.24-1.45.76-1.57-3.55-1.7-4.03-1.58-5.73-4.16,1.83-5.35,3.71-1.71-.63-1.54-7.21-2.11-9.12-.9-3.01-3.35-5.06-4.28-7.83,1.68-1.12,4.44-1.01,6.38-1.44,2.66-.59,5.72-1.93,8.48-1.83,1.99.07,4.98,1.32,6.64,2.87Z"/>
          <path class="cls-39" d="M1571.96,208.81s-3.14,21.89-4.38,32.25c1.11.24-1.39,11.04,2.67,9.64,2.57-.88,2.89-10.57,3.33-12.71.52-2.54.8-10.84,3.37-12.07,2.21,2.47,1.16,7.73.72,10.65-.69,4.61-1.14,9.24-.99,13.91.12,3.98,1.06,7.31.03,11.04.3.02.55.19.78.23-.38,1.05-2.02,3.47-3.51,2.67-2.2-1.18.25-6.81-.97-8.66-1.09,1.69-.99,4.58-1.07,6.5-.11,2.19-.74,8.26.8,10.04,3.26,3.79,9.26-13.15,10.43-15.39.97-1.86,1.72-3.83,2.38-5.83.54-1.62.86-5.42,2.26-6.62,3.49-3.02,2.04,5.46,2.03,6.8-.01,1.11-.24,3.95.9,4.65,1.1.68,1.76-.65,2.64-.38,1.64.5.98,2.98,1.68,4.14,1.86-5.76,1.92-11.83,4.21-17.49.34-.84,1.21-3.74,2.17-4.15,1.1-.47,1.49.59,2.39,1.33,1.51,1.23,1,1.45,2.35-.64,1.1-1.71,2-3.43,3.28-5,1.39-1.71,3.25-2.64,4.65-4.25-1.5-.53-3.36.34-5.03.14-4.23-.51-9-3.7-12.57-6.01-4.16-2.69-7.78-6.42-12.2-8.67-2.85-1.45-5.85-2.48-8.66-3.93-.94-.49-2.93-1.5-3.68-2.22Z"/>
          <path class="cls-29" d="M1564.58,173.61c-2.28,16.2-2.9,27.69-3.21,33.6-.09,1.81-.29,3.36.67,4.97,2.84-1,3.51-4.29,4.07-6.93,1.25-5.85,2.37-11.41,4.57-17,.51-1.3,2.02-7.26,3.77-4.92,1.27,1.7-.37,6.7.21,8.93,3.74-1.12,6.34-7.87,10.33-7.15,2.53.45,4.57,4.53,5.88,6.26,2.96,3.93,4.52.37,7.48-2.74,1.03-1.08,2.59-1.75,3.4-2.49,1.35-1.23,2.1-3.15,3.38-4.54,1.86-2.02,4.43-3.42,7.17-2.34,4.05,1.61,3.02,3.74,7.3.64,3.97-2.87,9.13-5.34,11.32-9.91-7.57.96-16.18,1.78-23.9,1.38-7.76-.4-14.86-1.75-22.67-.82-3.81.45-7.88.75-11.48.92-1.42.07-7.12,1.66-8.28,2.14Z"/>
          <path class="cls-18" d="M1734.62,147c2.8.57,10.82,3.79,11.7,4.31,2.89,1.71,5.09,4.19,8.33,5.32-.19,2.49-1.13,9-4.69,8.82-1.75-.09-2.54-4.25-3.36-5.57-2.45-3.95-5.29-.54-8,1.23-.73-1.47.3-4.84-1.22-5.76-1.25,2.24-.95,5.21-2.06,7.62-.64,1.39-1.62,2.38-2.53,3.36-2.06-1.68-.12-6.53.11-8.69.37-3.52.4-7.09.76-10.62.01-.16.37-.16.96-.04Z"/>
          <path class="cls-40" d="M1683.15,242.53s-4.09,23.06-5.64,33.62c-.19,1.33-1.33,16.6,3.36,10.66,1.28-1.63,1.27-5.67,1.9-7.69,1.04-3.39,2.4-6.68,3.68-9.98.74-1.92,1.76-6.83,4.37-6.73.46,3.57-2.38,8.21-1.17,11.61,1.5,4.23,4.34.2,6.51-1.85,2.77-2.62,3.62-3.29,6.86-1.92,1.07.46,3,1.68,3.54,2.6,2.01,3.43-3.78,23.68,5.3,17.87,8.25-5.27,7.11-22.21,17.15-24.09.98,2.51-.51,6.02,1.36,8.24,3.7-1.6,5.01-3.88,8.98-3.31,1.6.23,1.2,1.11,3.38.53,1.89-.5,4.24-2.46,5.93-3.52,1.11-.71,4.32-3.73,5.87-3.52,2.09.3,1.22,1,1.56,2.88.71,3.9-.15,11.12,5.2,9.86,5.5-1.29,8.42-9.06,13.09-11.26,1.99-.94,4.64-.43,7.05-.32,4.65.23,6.49-.78,8.39-5.24.45-1.07,2.13-5.54,1.66-6.36-.6-1.04-3.77-.61-4.87-.71-7.29-.7-14.77-1.8-21.98-3.06-6.55-1.14-13.05-3.03-19.68-3.65-4.47-.42-8.95.02-13.42-.24-4.42-.25-8.62-1.23-13.07-1.22-3.47,0-7.04.8-10.46.64-4.48-.2-8.98-2.15-13.31-3.07-2.6-.55-9.5,1.09-11.49-.76Z"/>
          <path class="cls-37" d="M1696.46,214.97c-.66,1.59-1.8,4.8-3.18,5.86-2.08,1.61-1.12.19-2.54.1-2.27-.14-2.36-.16-4.76.8-1.78.72-2.95,1.05-4.89,1.01-4.77-.09-5.5.67-9.03,4.16-3.57,3.54-7.66,6.04-10.71,10.12-1.62,2.17-3.27,5.86-6.54,5.27-1.23-3.17,3.17-9.92-2.05-11.42-1.74-.49-3.12.79-4.58,1.49-2.65,1.27-3.95,1.15-6.78,1.01-6.04-.3-7.83,3.22-10.79,8.34-2.66,4.6-6.02,8.78-8.21,1.64-2.12-6.9-4.13-9.26-11.7-8.83-2.83.17-5.12,1.71-7.89.63-1.19-.46-2.49-1.76-3.3-2.47,2.11-2.81,7.12-3.65,10.27-4.67,8.57-2.76,17.25-5.23,26.23-5.97,14.02-1.15,27.31-5.93,41.41-6.73,4.81-.27,12.88-2.27,19.02-.35Z"/>
          <path class="cls-36" d="M1831.78,255.81c-.2,1.45-.24,2.93-.41,4.36-.17,1.43-1.2,3.29-.46,4.68.99,1.87,2.88-1,3.7-2.28,1.9-2.98,2.82-7.69,5.91-9.8,2.79-1.91,1.67,2.93,4.25,2.55,1.14-.17,2.29-2.39,3.15-3.11,1.14-.97,2.28-1.43,3.72-1.67,1.29-.22,4.88-2.1,5.9-1.49,1.26.75.43,5.63.36,6.96-.05.93-.43,5.95-2.12,4.47-1.31-1.15.49-4.19-.36-5.19-1.17-1.38-1.68,3.8-1.69,4.39-.04,1.7-.1,3.31,1.59,4.07,2.42,1.09,3.61-.51,4.7-2.41.43-.75,1.3-3.26,2.11-3.52,1.16-.37.35.18,1.38.49,1.22.36.96.67,2.08-.3,1.61-1.4,2.5-3.51,4.23-4.85,3.67-2.83,4.7-1.18,7.82,1.01,2.44,1.71,5.29.4,8.07.04,3.06-.4,6.08-1.66,9.15-1.63,2.7.03,5.1-.48,7.68-1.32,2.43-.79,4.94-1.53,7.49-1.65,1.73-.08,3.64.09,5.3-.5-.83-.54-1.89-.65-2.83-.91-3.97-1.12-7.7-2.2-11.83-2.71-10.65-1.32-21.18-3.84-31.85-4.87-8.3-.81-17.23-1.79-25.41.36-2.08.54-4.13,1.18-6.21,1.71-1.16.29-2.55.35-3.36,1.36-.99,1.23-.91,3.51-1.12,4.98-.33,2.26-.65,4.52-.96,6.78Z"/>
          <path class="cls-38" d="M1916.15,186.84c-.28,2.24-.58,4.48-.89,6.72-.27,1.9-.55,3.8-.85,5.69-.14.86-.16,1.72-.33,2.56-.21,1.04-.74,1.98-.76,3.06-.03,1.68,1.06,1.51,2.02.44,2.2-2.43,3.25-5.33,4.91-8.09.29-.49,1.05-2.02,1.92-1.71.8.29.59,1.81.7,2.45.58,3.26,3.63-1.09,5.05-1.63.71-.27,1.02.1,1.67.04,1.48-.13,2.28-1.61,3.6-2.08,2.73-.96,1.42,2.67,1.47,4.16.03.91,0,3.1,1.09,3.58.85.38,2.11-.44,2.79-.85,1.6-.96,2.58-2.17,3.65-3.66.6-.84,1.16-1.69,2.09-2.2.64-.35,1.28-.4,1.87-.86.77-.59,1.17-2,2.16-1.43.52.3.34,1.15,1.05,1.27.71.13,1.53-1.03,1.87-1.5.36-.5,2.62-3.87,2.32-4.64-.29-.76-2.52-.84-3.14-.93-4.65-.64-9.29-1.35-13.96-1.73-4.04-.33-8.23-1.78-12.26-.86-1.7.39-3.46.45-5.04.83-.88.21-1.62.93-2.41,1.03-.15.02-.46.24-.59.33Z"/>
          <path class="cls-13" d="M1033.73,211.87c1.02,2.16-3.29,4.74-6.27,6.27-2.43,1.25-4.99,2.69-5.57,5.37-.71,3.29.54,7.39.07,10.88-.64,4.79-1.67,9.68-2.5,14.45-.71,4.1-2.33,14.94-5.92,6.19-3.57-8.71-2.03-18.87-5.56-27.4-2.21-5.34-6.72-3.72-7.22,1.48-.3,3.2,1.03,6.68,1.01,9.94-.02,3.93-1.04,7.62-1.6,11.48-.79,5.42-2.59,13.28,0,18.43,2.66-.64,3.47-5.63,4.44-8.04,4.08,3.31,1.87,13.96,1,18.35-.57,2.85-3.05,15.81-7.29,11.4-2.89-3.01-2.08-12.26-2.25-16.03-.25-5.42-.43-10.79-.96-16.2-.24-2.4-.65-20.54-6.05-18.42-1.65.65-1.43,5.37-1.66,6.76-.46,2.81-1.19,3.7-2.45,5.64-2.94,4.54-1.9,11.24-2.45,16.74-.21,2.05.48,10.6-2.48,10.63-2.85.02-2.98-6.2-3.27-7.88-1.29-7.43-1.09-14.54-1.13-22.01-.02-3.86-3.34-11.97.69-14.68,1.15,1.76,2.11,12.01,5.5,9.98,2.93-1.76,1.97-12.89,1.95-15.79-.02-2.9.38-5.42-1.89-7.19-3.63-2.84-5.14-.09-7.14,2.36-2.94,3.59-5.77,1.23-9.04-.98-8.45-5.7-3.32,6.95-9.47,8.82-5.8,1.76-7.7-10.62-9.08-13.85-1.02-2.41-3.06-3.57-4.75-5.41-1.24-1.35-2.92-3.12-3.35-4.96-.47-2.02-.52-2.3,1.14-3.44,1.84-1.26,6.7-.05,8.66.13,6.15.57,12.24,1.69,18.41,1.95,11.6.49,23.22-1.22,34.79.4,6.38.89,12.5,2.86,18.87,3.75,2.81.39,9.52-.24,12.86.85Z"/>
        </g>
      </g>
    </g>
  </g>
</svg>