<?xml version="1.0" encoding="UTF-8"?>
<svg id="Layer_2" data-name="Layer 2" xmlns="http://www.w3.org/2000/svg" xmlns:xlink="http://www.w3.org/1999/xlink" viewBox="0 0 2126.4 362.11">
  <defs>
    <style>
      .cls-1 {
        fill: url(#_횁책챌청챙첼챠챠청챕_찾챨횪채챔책챠챵_13-53);
      }

      .cls-2 {
        fill: url(#_횁책챌청챙첼챠챠청챕_찾챨횪채챔책챠챵_13-27);
      }

      .cls-3 {
        fill: url(#_횁책챌청챙첼챠챠청챕_찾챨횪채챔책챠챵_13-14);
      }

      .cls-4 {
        fill: url(#_횁책챌청챙첼챠챠청챕_찾챨횪채챔책챠챵_13-9);
      }

      .cls-5 {
        fill: url(#_횁책챌청챙첼챠챠청챕_찾챨횪채챔책챠챵_13-20);
      }

      .cls-6 {
        fill: url(#_횁책챌청챙첼챠챠청챕_찾챨횪채챔책챠챵_13-15);
      }

      .cls-7 {
        fill: url(#_횁책챌청챙첼챠챠청챕_찾챨횪채챔책챠챵_13-32);
      }

      .cls-8 {
        fill: url(#_횁책챌청챙첼챠챠청챕_찾챨횪채챔책챠챵_13-28);
      }

      .cls-9 {
        fill: url(#_횁책챌청챙첼챠챠청챕_찾챨횪채챔책챠챵_13-34);
      }

      .cls-10 {
        fill: url(#_횁책챌청챙첼챠챠청챕_찾챨횪채챔책챠챵_13-25);
      }

      .cls-11 {
        fill: url(#_횁책챌청챙첼챠챠청챕_찾챨횪채챔책챠챵_13-18);
      }

      .cls-12 {
        fill: url(#_횁책챌청챙첼챠챠청챕_찾챨횪채챔책챠챵_13-17);
      }

      .cls-13 {
        fill: url(#_횁책챌청챙첼챠챠청챕_찾챨횪채챔책챠챵_13-39);
      }

      .cls-14 {
        fill: url(#_횁책챌청챙첼챠챠청챕_찾챨횪채챔책챠챵_13-49);
      }

      .cls-15 {
        fill: url(#_횁책챌청챙첼챠챠청챕_찾챨횪채챔책챠챵_13-22);
      }

      .cls-16 {
        fill: url(#_횁책챌청챙첼챠챠청챕_찾챨횪채챔책챠챵_13-6);
      }

      .cls-17 {
        fill: url(#_횁책챌청챙첼챠챠청챕_찾챨횪채챔책챠챵_13);
      }

      .cls-18 {
        fill: url(#_횁책챌청챙첼챠챠청챕_찾챨횪채챔책챠챵_13-55);
      }

      .cls-19 {
        fill: url(#_횁책챌청챙첼챠챠청챕_찾챨횪채챔책챠챵_13-21);
      }

      .cls-20 {
        fill: url(#_횁책챌청챙첼챠챠청챕_찾챨횪채챔책챠챵_13-44);
      }

      .cls-21 {
        fill: url(#_횁책챌청챙첼챠챠청챕_찾챨횪채챔책챠챵_13-41);
      }

      .cls-22 {
        fill: url(#_횁책챌청챙첼챠챠청챕_찾챨횪채챔책챠챵_13-23);
      }

      .cls-23 {
        fill: url(#_횁책챌청챙첼챠챠청챕_찾챨횪채챔책챠챵_13-36);
      }

      .cls-24 {
        fill: url(#_횁책챌청챙첼챠챠청챕_찾챨횪채챔책챠챵_13-11);
      }

      .cls-25 {
        fill: url(#_횁책챌청챙첼챠챠청챕_찾챨횪채챔책챠챵_13-58);
      }

      .cls-26 {
        fill: url(#_횁책챌청챙첼챠챠청챕_찾챨횪채챔책챠챵_13-50);
      }

      .cls-27 {
        fill: url(#_횁책챌청챙첼챠챠청챕_찾챨횪채챔책챠챵_13-10);
      }

      .cls-28 {
        fill: url(#_횁책챌청챙첼챠챠청챕_찾챨횪채챔책챠챵_13-2);
      }

      .cls-29 {
        fill: url(#_횁책챌청챙첼챠챠청챕_찾챨횪채챔책챠챵_13-16);
      }

      .cls-30 {
        fill: url(#_횁책챌청챙첼챠챠청챕_찾챨횪채챔책챠챵_13-13);
      }

      .cls-31 {
        fill: url(#_횁책챌청챙첼챠챠청챕_찾챨횪채챔책챠챵_13-12);
      }

      .cls-32 {
        fill: url(#_횁책챌청챙첼챠챠청챕_찾챨횪채챔책챠챵_13-40);
      }

      .cls-33 {
        fill: url(#_횁책챌청챙첼챠챠청챕_찾챨횪채챔책챠챵_13-43);
      }

      .cls-34 {
        fill: url(#_횁책챌청챙첼챠챠청챕_찾챨횪채챔책챠챵_13-29);
      }

      .cls-35 {
        fill: url(#_횁책챌청챙첼챠챠청챕_찾챨횪채챔책챠챵_13-31);
      }

      .cls-36 {
        fill: url(#_횁책챌청챙첼챠챠청챕_찾챨횪채챔책챠챵_13-26);
      }

      .cls-37 {
        fill: url(#_횁책챌청챙첼챠챠청챕_찾챨횪채챔책챠챵_13-3);
      }

      .cls-38 {
        fill: url(#_횁책챌청챙첼챠챠청챕_찾챨횪채챔책챠챵_13-7);
      }

      .cls-39 {
        fill: url(#_횁책챌청챙첼챠챠청챕_찾챨횪채챔책챠챵_13-33);
      }

      .cls-40 {
        fill: url(#_횁책챌청챙첼챠챠청챕_찾챨횪채챔책챠챵_13-47);
      }

      .cls-41 {
        fill: url(#_횁책챌청챙첼챠챠청챕_찾챨횪채챔책챠챵_13-46);
      }

      .cls-42 {
        fill: url(#_횁책챌청챙첼챠챠청챕_찾챨횪채챔책챠챵_13-54);
      }

      .cls-43 {
        fill: url(#_횁책챌청챙첼챠챠청챕_찾챨횪채챔책챠챵_13-48);
      }

      .cls-44 {
        fill: url(#_횁책챌청챙첼챠챠청챕_찾챨횪채챔책챠챵_13-42);
      }

      .cls-45 {
        fill: url(#_횁책챌청챙첼챠챠청챕_찾챨횪채챔책챠챵_13-45);
      }

      .cls-46 {
        fill: url(#_횁책챌청챙첼챠챠청챕_찾챨횪채챔책챠챵_13-19);
      }

      .cls-47 {
        fill: url(#_횁책챌청챙첼챠챠청챕_찾챨횪채챔책챠챵_13-8);
      }

      .cls-48 {
        fill: url(#_횁책챌청챙첼챠챠청챕_찾챨횪채챔책챠챵_13-38);
      }

      .cls-49 {
        fill: url(#_횁책챌청챙첼챠챠청챕_찾챨횪채챔책챠챵_13-24);
      }

      .cls-50 {
        fill: url(#_횁책챌청챙첼챠챠청챕_찾챨횪채챔책챠챵_13-56);
      }

      .cls-51 {
        fill: url(#_횁책챌청챙첼챠챠청챕_찾챨횪채챔책챠챵_13-51);
      }

      .cls-52 {
        fill: url(#_횁책챌청챙첼챠챠청챕_찾챨횪채챔책챠챵_13-30);
      }

      .cls-53 {
        fill: url(#_횁책챌청챙첼챠챠청챕_찾챨횪채챔책챠챵_13-35);
      }

      .cls-54 {
        clip-path: url(#clippath);
      }

      .cls-55 {
        fill: url(#_횁책챌청챙첼챠챠청챕_찾챨횪채챔책챠챵_13-52);
      }

      .cls-56 {
        fill: url(#_횁책챌청챙첼챠챠청챕_찾챨횪채챔책챠챵_13-37);
      }

      .cls-57 {
        fill: url(#_횁책챌청챙첼챠챠청챕_찾챨횪채챔책챠챵_13-5);
      }

      .cls-58 {
        fill: url(#_횁책챌청챙첼챠챠청챕_찾챨횪채챔책챠챵_13-4);
      }

      .cls-59 {
        fill: url(#_횁책챌청챙첼챠챠청챕_찾챨횪채챔책챠챵_13-57);
      }
    </style>
    <clipPath id="clippath">
      <path d="M1937.09,227.87l-42.5-18.93,60.56-34.32,107.63-5.05,6.11-2.53-117.31-2.52-90.33,31.04h-25.7l-11.45-7.07,20.61-8.58-31.04,2.02-14.76-13.63,110.18-34.82v-3.03l-112.21,23.21-71,2.78-.51-11.61,33.34-22.96,39.44-5.81,7.38-14.64,74.3-23.97s3.05-3.53,2.8-3.53-91.35,22.71-91.35,22.71l-7.12,11.1-31.55,4.54-44.78,28.52-2.8,12.61-23.41,14.89h-51.4l-11.96-9.08-3.05-20.19,37.91-22.96,60.31-28.01-2.29-1.51-43,14.64-24.68.76-50.38,22.96-17.3,22.46-10.18,2.52-129.52-16.15-7.89-5.81,75.83-31.04,125.19,3.03-17.05-10.6,8.14-13.37,17.56-5.81,20.61-15.64,39.7-10.85,1.78-3.03-45.29,8.58-18.83,13.37-26.72,7.07-10.69,16.65-81.93-6.05-10.94-26.25,37.66-21.95-47.07-4.29-7.12,1.01,33.33,6.81-31.81,16.91,3.56,32.05-84.99,25.24-29.01,16.65-45.55-28.77-9.67-29.27-36.39-20.44-2.29-3.78,54.71-11.36,3.31-2.02-74.81,3.53-18.57-19.68-1.78-10.6-1.78-4.04-1.27,10.35-8.14,6.56-22.65-9.09-5.6-1.01,25.44,15.39,9.67,21.45-35.62,1.77-33.33-9.84-5.34.5,39.7,15.39,22.14,2.27,55.22,21.95-10.18,13.12-13.99,4.29-137.41-37.09,6.87-14.89-22.9-20.44-39.19-3.03-26.21-12.61,25.7,17.41,31.55,3.53,10.18,11.86-11.96,12.37-25.44-.5-4.83,1.77,11.96,3.28,16.54,6.31-11.71,15.14-52.67-.25-5.34,1.26,69.46,6.56,67.69,23.72-7.89,12.11-26.21,6.31-40.97-3.28-32.06,6.56-62.85-36.08-6.36-2.27,50.13,43.66-61.83,18.17-64.89-31.04-48.35-49.21,77.1-23.97,65.65-4.29,14.25-4.04-106.87-4.04-9.92,5.05-90.59,18.93-32.83-10.35-42.49-36.09L648.52,0h-8.9l81.93,19.43,9.92,17.67-13.49,2.78-7.89,10.6-22.14-1.51-30.54-15.64-46.05-6.06-5.85.25,44.78,12.37,14,7.06-1.78,9.59-52.16,7.32-29.26-9.34-20.87-19.18-72.01-10.6,2.04-4.29-73.79-13.12h-7.12l72.01,18.17,1.78,4.79,57.76,16.4,4.32,11.35-20.1,14.89v5.81l-14.25,2.27-70.74-14.13h-5.34l72.27,23.97,10.18,8.58-1.02,12.11-43,32.55-16.28-.75-26.46-19.93-23.66,1.76-18.32-11.61,4.33-5.55-11.71.25-18.83-13.88-49.87-2.27-19.34-11.86-51.91-3.54-5.85,1.26,49.62,8.08,28.5,16.4,39.19,4.54,46.31,35.08,29.26,9.08-10.18,6.31-76.85,1.26-27.74-13.38-1.78,10.35-49.62,7.82-36.9-34.32-19.59-3.53-18.83-27.5-52.93-8.33,48.09,16.15,18.83,28.26,17.56,2.77,30.02,31.8-17.56,4.54-89.57-17.66-20.61-19.43-53.18-5.8-7.12,1.26,54.46,12.11,19.34,20.44,68.19,14.89-6.87,8.08-18.32,4.04-36.39-7.57-73.79-.76-8.14,2.28,63.87,6.31,45.04,10.09-15.01,11.36-38.68,15.4-40.71,6.56-67.94,15.39s-3.69,2.74-5.25,3.4c7.38-1.29,81.34-11.22,81.34-11.22l19.59,4.8-38.68,22.71-1.02,4.29,119.34-46.43,53.44,4.04,57.76-29.02,21.37,4.54-22.9,24.23,42.75-20.94,95.93,12.11,8.4,14.89-90.84,42.9-84.23-1.77-11.71,7.57-45.55,15.65-1.78,3.28,56.74-13.38,71.5,4.55-10.68,16.65-55.47,18.93,28.24-2.53,44.02-14.89,14.25-18.93,70.99-23.97-18.83,22.71,87.02-56.28,23.66-4.54-1.78-6.06,16.29-28.77,44.53-8.83-28.75-2.02,24.94-36.84,50.63,22.71,15.52,15.9-16.54,4.8,21.37.5,8.4,6.81-16.54,32.55,4.07,13.88-13.74,8.58-26.21-5.55-38.68,25.99-35.12,9.34-5.6,2.78,37.66-2.27,6.11,9.08-15.02,14.64-23.41,10.35-11.96,12.36-21.88,9.09-1.78,3.02,27.23-8.33,12.21-10.35,29.77-9.59,20.1-20.19-5.6-13.38,26.46-17.66,30.54,7.57,26.72-20.95,12.47,1.77,28.75,47.19-14.76,24.48,25.7-25.74-23.15-54.51-22.65-13.37,17.56-31.8,14.51-4.54-15.78-4.04-11.2-15.14,8.91-2.53-23.66-11.1,29.52-13.63,37.15,1.51,24.68-5.3,38.42,34.95,52.16-2.15,23.66,15.39,1.78,10.34-89.31,13.12-5.85,2.27,106.36-4.29,16.54,10.09-5.34,5.55,36.9,17.41-28.5,45.42s20.86,17.91,20.61,18.67c-.25.75-38.42,23.21-38.42,23.21l-93.89,2.27,110.43,11.1,25.95-13.62,14,.75,7.89,5.05-12.47,11.1,32.57,9.34-19.59-11.61,16.79-16.4-4.07-9.08,56.49,4.04,22.9,7.57-8.14-10.34,11.45-2.27,48.35,6.56-51.14-12.62-23.41,2.27-52.93-14.13-23.41-18.17,23.92-30.53,21.88-12.11,22.39,1.77,26.72,27.76,80.92,7.32,26.46,12.36,12.21,19.43s28.17,10.57,28.24,9.84c-.04.57-.5,14.89-.5,14.89l11.96-16.15-33.59-15.65-10.43-18.67-9.54-7.57,23.28-23.72,43.51-2.27,22.9-12.62,30.54,13.12,2.54,15.9-4.07,11.1,20.61,23.46-1.02,10.85,21.63,25.23s-2.29,16.15-1.78,15.14c.51-1.01,10.94-13.88,10.94-13.88l-21.88-28.51,3.05-9.34-17.81-28.26,14.25-13.88-12.21-17.92-37.91-23.72-9.67-16.4,66.41-28.52,15.52,2.78,15.78,20.19-28.5,9.34,41.73,1.01,19.59,12.36,3.56,13.12,48.09,14.64,10.18,7.57-34.61,9.08,11.2,5.81,50.38-.51,32.57,18.17,25.7,4.29,107.12,53.5s5.85.25,5.09,0c-.76-.25-42.49-27-42.49-27l3.05-4.8,64.38,4.29,18.32,10.6,61.07,3.28,3.56-1.77-59.8-8.58-17.3-11.1-68.45-7.57-39.7-23.97,12.98-10.35,20.61-5.8,3.05-1.76-59.29,5.8-41.22-5.3-50.38-37.6,22.14-17.41,67.43.25,21.37,13.12,106.87,26.25,16.54,28.01,101.02,11.36,4.58-1.01-24.43-7.82,68.19,1.51,3.82-2.02-132.57-15.65-13.23-19.93-78.12-31.04,20.87-9.84,76.85,25.24,58.27-31.29,39.7-1.01s55.22,36.09,54.45,36.09,35.88-6.81,35.88-6.81l58.02,16.65,195.68,2.02,7.89-1.26-189.31-13.63ZM1183.64,242l-40.97.5-29.26,29.27-75.32-10.85-15.27-22.46,35.12-14.89,22.39-21.2,49.87,2.78,52.42,9.59,14.76,20.19-13.74,7.06Z"/>
    </clipPath>
    <linearGradient id="_횁책챌청챙첼챠챠청챕_찾챨횪채챔책챠챵_13" data-name="횁책챌청챙첼챠챠청챕 찾챨횪채챔책챠챵 13" x1="194.15" y1="217.93" x2="194.15" y2="179.16" gradientUnits="userSpaceOnUse">
      <stop offset="0" stop-color="#000"/>
      <stop offset=".28" stop-color="#252525"/>
      <stop offset=".58" stop-color="#464646"/>
      <stop offset=".83" stop-color="#5b5b5b"/>
      <stop offset="1" stop-color="#636363"/>
    </linearGradient>
    <linearGradient id="_횁책챌청챙첼챠챠청챕_찾챨횪채챔책챠챵_13-2" data-name="횁책챌청챙첼챠챠청챕 찾챨횪채챔책챠챵 13" x1="161.14" y1="226.59" x2="161.14" y2="201.62" xlink:href="#_횁책챌청챙첼챠챠청챕_찾챨횪채챔책챠챵_13"/>
    <linearGradient id="_횁책챌청챙첼챠챠청챕_찾챨횪채챔책챠챵_13-3" data-name="횁책챌청챙첼챠챠청챕 찾챨횪채챔책챠챵 13" x1="93.24" y1="257.81" x2="93.24" y2="247.3" xlink:href="#_횁책챌청챙첼챠챠청챕_찾챨횪채챔책챠챵_13"/>
    <linearGradient id="_횁책챌청챙첼챠챠청챕_찾챨횪채챔책챠챵_13-4" data-name="횁책챌청챙첼챠챠청챕 찾챨횪채챔책챠챵 13" x1="106.47" y1="241.51" x2="106.47" y2="222.61" xlink:href="#_횁책챌청챙첼챠챠청챕_찾챨횪채챔책챠챵_13"/>
    <linearGradient id="_횁책챌청챙첼챠챠청챕_찾챨횪채챔책챠챵_13-5" data-name="횁책챌청챙첼챠챠청챕 찾챨횪채챔책챠챵 13" x1="234.97" y1="205.52" x2="234.97" y2="167.63" xlink:href="#_횁책챌청챙첼챠챠청챕_찾챨횪채챔책챠챵_13"/>
    <linearGradient id="_횁책챌청챙첼챠챠청챕_찾챨횪채챔책챠챵_13-6" data-name="횁책챌청챙첼챠챠청챕 찾챨횪채챔책챠챵 13" x1="196.56" y1="131.58" x2="196.56" y2="95.78" xlink:href="#_횁책챌청챙첼챠챠청챕_찾챨횪채챔책챠챵_13"/>
    <linearGradient id="_횁책챌청챙첼챠챠청챕_찾챨횪채챔책챠챵_13-7" data-name="횁책챌청챙첼챠챠청챕 찾챨횪채챔책챠챵 13" x1="287.67" y1="193.6" x2="287.67" y2="154.73" xlink:href="#_횁책챌청챙첼챠챠청챕_찾챨횪채챔책챠챵_13"/>
    <linearGradient id="_횁책챌청챙첼챠챠청챕_찾챨횪채챔책챠챵_13-8" data-name="횁책챌청챙첼챠챠청챕 찾챨횪채챔책챠챵 13" x1="390.25" y1="197.13" x2="390.25" y2="151.15" xlink:href="#_횁책챌청챙첼챠챠청챕_찾챨횪채챔책챠챵_13"/>
    <linearGradient id="_횁책챌청챙첼챠챠청챕_찾챨횪채챔책챠챵_13-9" data-name="횁책챌청챙첼챠챠청챕 찾챨횪채챔책챠챵 13" x1="347.15" y1="121.53" x2="347.15" y2="89.52" xlink:href="#_횁책챌청챙첼챠챠청챕_찾챨횪채챔책챠챵_13"/>
    <linearGradient id="_횁책챌청챙첼챠챠청챕_찾챨횪채챔책챠챵_13-10" data-name="횁책챌청챙첼챠챠청챕 찾챨횪채챔책챠챵 13" x1="400.84" y1="141.39" x2="400.84" y2="112.5" xlink:href="#_횁책챌청챙첼챠챠청챕_찾챨횪채챔책챠챵_13"/>
    <linearGradient id="_횁책챌청챙첼챠챠청챕_찾챨횪채챔책챠챵_13-11" data-name="횁책챌청챙첼챠챠청챕 찾챨횪채챔책챠챵 13" x1="453.13" y1="184.4" x2="453.13" y2="120.89" xlink:href="#_횁책챌청챙첼챠챠청챕_찾챨횪채챔책챠챵_13"/>
    <linearGradient id="_횁책챌청챙첼챠챠청챕_찾챨횪채챔책챠챵_13-12" data-name="횁책챌청챙첼챠챠청챕 찾챨횪채챔책챠챵 13" x1="502.23" y1="177.23" x2="502.23" y2="98.37" xlink:href="#_횁책챌청챙첼챠챠청챕_찾챨횪채챔책챠챵_13"/>
    <linearGradient id="_횁책챌청챙첼챠챠청챕_찾챨횪채챔책챠챵_13-13" data-name="횁책챌청챙첼챠챠청챕 찾챨횪채챔책챠챵 13" x1="529.74" y1="116.06" x2="529.74" y2="56.02" xlink:href="#_횁책챌청챙첼챠챠청챕_찾챨횪채챔책챠챵_13"/>
    <linearGradient id="_횁책챌청챙첼챠챠청챕_찾챨횪채챔책챠챵_13-14" data-name="횁책챌청챙첼챠챠청챕 찾챨횪채챔책챠챵 13" x1="614.72" y1="126.33" x2="614.72" y2="29.79" xlink:href="#_횁책챌청챙첼챠챠청챕_찾챨횪채챔책챠챵_13"/>
    <linearGradient id="_횁책챌청챙첼챠챠청챕_찾챨횪채챔책챠챵_13-15" data-name="횁책챌청챙첼챠챠청챕 찾챨횪채챔책챠챵 13" x1="705.98" y1="112.64" x2="705.98" y2="35.43" xlink:href="#_횁책챌청챙첼챠챠청챕_찾챨횪채챔책챠챵_13"/>
    <linearGradient id="_횁책챌청챙첼챠챠청챕_찾챨횪채챔책챠챵_13-16" data-name="횁책챌청챙첼챠챠청챕 찾챨횪채챔책챠챵 13" x1="801.05" y1="139.93" x2="801.05" y2="9.96" xlink:href="#_횁책챌청챙첼챠챠청챕_찾챨횪채챔책챠챵_13"/>
    <linearGradient id="_횁책챌청챙첼챠챠청챕_찾챨횪채챔책챠챵_13-17" data-name="횁책챌청챙첼챠챠청챕 찾챨횪채챔책챠챵 13" x1="920.58" y1="198.94" x2="920.58" y2="72.13" xlink:href="#_횁책챌청챙첼챠챠청챕_찾챨횪채챔책챠챵_13"/>
    <linearGradient id="_횁책챌청챙첼챠챠청챕_찾챨횪채챔책챠챵_13-18" data-name="횁책챌청챙첼챠챠청챕 찾챨횪채챔책챠챵 13" x1="661.34" y1="201.34" x2="661.34" y2="162.24" xlink:href="#_횁책챌청챙첼챠챠청챕_찾챨횪채챔책챠챵_13"/>
    <linearGradient id="_횁책챌청챙첼챠챠청챕_찾챨횪채챔책챠챵_13-19" data-name="횁책챌청챙첼챠챠청챕 찾챨횪채챔책챠챵 13" x1="672.39" y1="206.7" x2="672.39" y2="177.2" xlink:href="#_횁책챌청챙첼챠챠청챕_찾챨횪채챔책챠챵_13"/>
    <linearGradient id="_횁책챌청챙첼챠챠청챕_찾챨횪채챔책챠챵_13-20" data-name="횁책챌청챙첼챠챠청챕 찾챨횪채챔책챠챵 13" x1="677.45" y1="284.34" x2="677.45" y2="228.28" xlink:href="#_횁책챌청챙첼챠챠청챕_찾챨횪채챔책챠챵_13"/>
    <linearGradient id="_횁책챌청챙첼챠챠청챕_찾챨횪채챔책챠챵_13-21" data-name="횁책챌청챙첼챠챠청챕 찾챨횪채챔책챠챵 13" x1="612.63" y1="269.31" x2="612.63" y2="241.95" xlink:href="#_횁책챌청챙첼챠챠청챕_찾챨횪채챔책챠챵_13"/>
    <linearGradient id="_횁책챌청챙첼챠챠청챕_찾챨횪채챔책챠챵_13-22" data-name="횁책챌청챙첼챠챠청챕 찾챨횪채챔책챠챵 13" x1="549.21" y1="289.36" x2="549.21" y2="273.2" xlink:href="#_횁책챌청챙첼챠챠청챕_찾챨횪채챔책챠챵_13"/>
    <linearGradient id="_횁책챌청챙첼챠챠청챕_찾챨횪채챔책챠챵_13-23" data-name="횁책챌청챙첼챠챠청챕 찾챨횪채챔책챠챵 13" x1="408.01" y1="267.21" x2="408.01" y2="223.25" xlink:href="#_횁책챌청챙첼챠챠청챕_찾챨횪채챔책챠챵_13"/>
    <linearGradient id="_횁책챌청챙첼챠챠청챕_찾챨횪채챔책챠챵_13-24" data-name="횁책챌청챙첼챠챠청챕 찾챨횪채챔책챠챵 13" x1="641.68" y1="250.84" x2="641.68" y2="198.47" xlink:href="#_횁책챌청챙첼챠챠청챕_찾챨횪채챔책챠챵_13"/>
    <linearGradient id="_횁책챌청챙첼챠챠청챕_찾챨횪채챔책챠챵_13-25" data-name="횁책챌청챙첼챠챠청챕 찾챨횪채챔책챠챵 13" x1="841.36" y1="212.34" x2="841.36" y2="196.18" xlink:href="#_횁책챌청챙첼챠챠청챕_찾챨횪채챔책챠챵_13"/>
    <linearGradient id="_횁책챌청챙첼챠챠청챕_찾챨횪채챔책챠챵_13-26" data-name="횁책챌청챙첼챠챠청챕 찾챨횪채챔책챠챵 13" x1="902.65" y1="301.07" x2="902.65" y2="244.85" xlink:href="#_횁책챌청챙첼챠챠청챕_찾챨횪채챔책챠챵_13"/>
    <linearGradient id="_횁책챌청챙첼챠챠청챕_찾챨횪채챔책챠챵_13-27" data-name="횁책챌청챙첼챠챠청챕 찾챨횪채챔책챠챵 13" x1="884.44" y1="341.12" x2="884.44" y2="308.41" xlink:href="#_횁책챌청챙첼챠챠청챕_찾챨횪채챔책챠챵_13"/>
    <linearGradient id="_횁책챌청챙첼챠챠청챕_찾챨횪채챔책챠챵_13-28" data-name="횁책챌청챙첼챠챠청챕 찾챨횪채챔책챠챵 13" x1="967.47" y1="322.02" x2="967.47" y2="284.6" xlink:href="#_횁책챌청챙첼챠챠청챕_찾챨횪채챔책챠챵_13"/>
    <linearGradient id="_횁책챌청챙첼챠챠청챕_찾챨횪채챔책챠챵_13-29" data-name="횁책챌청챙첼챠챠청챕 찾챨횪채챔책챠챵 13" x1="1014.04" y1="212.34" x2="1014.04" y2="127.16" xlink:href="#_횁책챌청챙첼챠챠청챕_찾챨횪채챔책챠챵_13"/>
    <linearGradient id="_횁책챌청챙첼챠챠청챕_찾챨횪채챔책챠챵_13-30" data-name="횁책챌청챙첼챠챠청챕 찾챨횪채챔책챠챵 13" x1="1047.29" y1="274.6" x2="1047.29" y2="238.41" xlink:href="#_횁책챌청챙첼챠챠청챕_찾챨횪채챔책챠챵_13"/>
    <linearGradient id="_횁책챌청챙첼챠챠청챕_찾챨횪채챔책챠챵_13-31" data-name="횁책챌청챙첼챠챠청챕 찾챨횪채챔책챠챵 13" x1="1098.04" y1="283.34" x2="1098.04" y2="264.82" xlink:href="#_횁책챌청챙첼챠챠청챕_찾챨횪채챔책챠챵_13"/>
    <linearGradient id="_횁책챌청챙첼챠챠청챕_찾챨횪채챔책챠챵_13-32" data-name="횁책챌청챙첼챠챠청챕 찾챨횪채챔책챠챵 13" x1="1167.79" y1="253.54" x2="1167.79" y2="233.92" xlink:href="#_횁책챌청챙첼챠챠청챕_찾챨횪채챔책챠챵_13"/>
    <linearGradient id="_횁책챌청챙첼챠챠청챕_찾챨횪채챔책챠챵_13-33" data-name="횁책챌청챙첼챠챠청챕 찾챨횪채챔책챠챵 13" x1="1141.87" y1="313.79" x2="1141.87" y2="279.94" xlink:href="#_횁책챌청챙첼챠챠청챕_찾챨횪채챔책챠챵_13"/>
    <linearGradient id="_횁책챌청챙첼챠챠청챕_찾챨횪채챔책챠챵_13-34" data-name="횁책챌청챙첼챠챠청챕 찾챨횪채챔책챠챵 13" x1="1247.95" y1="262.16" x2="1247.95" y2="204.61" xlink:href="#_횁책챌청챙첼챠챠청챕_찾챨횪채챔책챠챵_13"/>
    <linearGradient id="_횁책챌청챙첼챠챠청챕_찾챨횪채챔책챠챵_13-35" data-name="횁책챌청챙첼챠챠청챕 찾챨횪채챔책챠챵 13" x1="1106.29" y1="66.52" x2="1106.29" y2="31.6" xlink:href="#_횁책챌청챙첼챠챠청챕_찾챨횪채챔책챠챵_13"/>
    <linearGradient id="_횁책챌청챙첼챠챠청챕_찾챨횪채챔책챠챵_13-36" data-name="횁책챌청챙첼챠챠청챕 찾챨횪채챔책챠챵 13" x1="1091.77" y1="80.19" x2="1091.77" y2="60.57" xlink:href="#_횁책챌청챙첼챠챠청챕_찾챨횪채챔책챠챵_13"/>
    <linearGradient id="_횁책챌청챙첼챠챠청챕_찾챨횪채챔책챠챵_13-37" data-name="횁책챌청챙첼챠챠청챕 찾챨횪채챔책챠챵 13" x1="1114.98" y1="172.82" x2="1114.98" y2="106.96" xlink:href="#_횁책챌청챙첼챠챠청챕_찾챨횪채챔책챠챵_13"/>
    <linearGradient id="_횁책챌청챙첼챠챠청챕_찾챨횪채챔책챠챵_13-38" data-name="횁책챌청챙첼챠챠청챕 찾챨횪채챔책챠챵 13" x1="1231.62" y1="144.79" x2="1231.62" y2="64.95" xlink:href="#_횁책챌청챙첼챠챠청챕_찾챨횪채챔책챠챵_13"/>
    <linearGradient id="_횁책챌청챙첼챠챠청챕_찾챨횪채챔책챠챵_13-39" data-name="횁책챌청챙첼챠챠청챕 찾챨횪채챔책챠챵 13" x1="1226.96" y1="54.96" x2="1226.96" y2="38.95" xlink:href="#_횁책챌청챙첼챠챠청챕_찾챨횪채챔책챠챵_13"/>
    <linearGradient id="_횁책챌청챙첼챠챠청챕_찾챨횪채챔책챠챵_13-40" data-name="횁책챌청챙첼챠챠청챕 찾챨횪채챔책챠챵 13" x1="1273.75" y1="58.3" x2="1273.75" y2="12.34" xlink:href="#_횁책챌청챙첼챠챠청챕_찾챨횪채챔책챠챵_13"/>
    <linearGradient id="_횁책챌청챙첼챠챠청챕_찾챨횪채챔책챠챵_13-41" data-name="횁책챌청챙첼챠챠청챕 찾챨횪채챔책챠챵 13" x1="1341.91" y1="206.99" x2="1341.91" y2="44.24" xlink:href="#_횁책챌청챙첼챠챠청챕_찾챨횪채챔책챠챵_13"/>
    <linearGradient id="_횁책챌청챙첼챠챠청챕_찾챨횪채챔책챠챵_13-42" data-name="횁책챌청챙첼챠챠청챕 찾챨횪채챔책챠챵 13" x1="1501.28" y1="206.94" x2="1501.28" y2="126.83" xlink:href="#_횁책챌청챙첼챠챠청챕_찾챨횪채챔책챠챵_13"/>
    <linearGradient id="_횁책챌청챙첼챠챠청챕_찾챨횪채챔책챠챵_13-43" data-name="횁책챌청챙첼챠챠청챕 찾챨횪채챔책챠챵 13" x1="1445.29" y1="269.68" x2="1445.29" y2="223.73" xlink:href="#_횁책챌청챙첼챠챠청챕_찾챨횪채챔책챠챵_13"/>
    <linearGradient id="_횁책챌청챙첼챠챠청챕_찾챨횪채챔책챠챵_13-44" data-name="횁책챌청챙첼챠챠청챕 찾챨횪채챔책챠챵 13" x1="1395.93" y1="269.89" x2="1395.93" y2="255.36" xlink:href="#_횁책챌청챙첼챠챠청챕_찾챨횪채챔책챠챵_13"/>
    <linearGradient id="_횁책챌청챙첼챠챠청챕_찾챨횪채챔책챠챵_13-45" data-name="횁책챌청챙첼챠챠청챕 찾챨횪채챔책챠챵 13" x1="1305.82" y1="208.3" x2="1305.82" y2="198.26" xlink:href="#_횁책챌청챙첼챠챠청챕_찾챨횪채챔책챠챵_13"/>
    <linearGradient id="_횁책챌청챙첼챠챠청챕_찾챨횪채챔책챠챵_13-46" data-name="횁책챌청챙첼챠챠청챕 찾챨횪채챔책챠챵 13" x1="1548.11" y1="310.25" x2="1548.11" y2="279.42" xlink:href="#_횁책챌청챙첼챠챠청챕_찾챨횪채챔책챠챵_13"/>
    <linearGradient id="_횁책챌청챙첼챠챠청챕_찾챨횪채챔책챠챵_13-47" data-name="횁책챌청챙첼챠챠청챕 찾챨횪채챔책챠챵 13" x1="1607.64" y1="239.05" x2="1607.64" y2="211.31" xlink:href="#_횁책챌청챙첼챠챠청챕_찾챨횪채챔책챠챵_13"/>
    <linearGradient id="_횁책챌청챙첼챠챠청챕_찾챨횪채챔책챠챵_13-48" data-name="횁책챌청챙첼챠챠청챕 찾챨횪채챔책챠챵 13" x1="1646.54" y1="203.58" x2="1646.54" y2="138.77" xlink:href="#_횁책챌청챙첼챠챠청챕_찾챨횪채챔책챠챵_13"/>
    <linearGradient id="_횁책챌청챙첼챠챠청챕_찾챨횪채챔책챠챵_13-49" data-name="횁책챌청챙첼챠챠청챕 찾챨횪채챔책챠챵 13" x1="1696.33" y1="186.43" x2="1696.33" y2="137.6" xlink:href="#_횁책챌청챙첼챠챠청챕_찾챨횪채챔책챠챵_13"/>
    <linearGradient id="_횁책챌청챙첼챠챠청챕_찾챨횪채챔책챠챵_13-50" data-name="횁책챌청챙첼챠챠청챕 찾챨횪채챔책챠챵 13" x1="1519.65" y1="94.75" x2="1519.65" y2="53.17" xlink:href="#_횁책챌청챙첼챠챠청챕_찾챨횪채챔책챠챵_13"/>
    <linearGradient id="_횁책챌청챙첼챠챠청챕_찾챨횪채챔책챠챵_13-51" data-name="횁책챌청챙첼챠챠청챕 찾챨횪채챔책챠챵 13" x1="1594.44" y1="97.57" x2="1594.44" y2="65.93" xlink:href="#_횁책챌청챙첼챠챠청챕_찾챨횪채챔책챠챵_13"/>
    <linearGradient id="_횁책챌청챙첼챠챠청챕_찾챨횪채챔책챠챵_13-52" data-name="횁책챌청챙첼챠챠청챕 찾챨횪채챔책챠챵 13" x1="1759.07" y1="197.63" x2="1759.07" y2="144.22" xlink:href="#_횁책챌청챙첼챠챠청챕_찾챨횪채챔책챠챵_13"/>
    <linearGradient id="_횁책챌청챙첼챠챠청챕_찾챨횪채챔책챠챵_13-53" data-name="횁책챌청챙첼챠챠청챕 찾챨횪채챔책챠챵 13" x1="1806.03" y1="205.75" x2="1806.03" y2="167.97" xlink:href="#_횁책챌청챙첼챠챠청챕_찾챨횪채챔책챠챵_13"/>
    <linearGradient id="_횁책챌청챙첼챠챠청챕_찾챨횪채챔책챠챵_13-54" data-name="횁책챌청챙첼챠챠청챕 찾챨횪채챔책챠챵 13" x1="1831.35" y1="226" x2="1831.35" y2="188.46" xlink:href="#_횁책챌청챙첼챠챠청챕_찾챨횪채챔책챠챵_13"/>
    <linearGradient id="_횁책챌청챙첼챠챠청챕_찾챨횪채챔책챠챵_13-55" data-name="횁책챌청챙첼챠챠청챕 찾챨횪채챔책챠챵 13" x1="1888.11" y1="223.24" x2="1888.11" y2="173.19" xlink:href="#_횁책챌청챙첼챠챠청챕_찾챨횪채챔책챠챵_13"/>
    <linearGradient id="_횁책챌청챙첼챠챠청챕_찾챨횪채챔책챠챵_13-56" data-name="횁책챌청챙첼챠챠청챕 찾챨횪채챔책챠챵 13" x1="1915.85" y1="231.74" x2="1915.85" y2="207.99" xlink:href="#_횁책챌청챙첼챠챠청챕_찾챨횪채챔책챠챵_13"/>
    <linearGradient id="_횁책챌청챙첼챠챠청챕_찾챨횪채챔책챠챵_13-57" data-name="횁책챌청챙첼챠챠청챕 찾챨횪채챔책챠챵 13" x1="1687.28" y1="278.47" x2="1687.28" y2="259.53" xlink:href="#_횁책챌청챙첼챠챠청챕_찾챨횪채챔책챠챵_13"/>
    <linearGradient id="_횁책챌청챙첼챠챠청챕_찾챨횪채챔책챠챵_13-58" data-name="횁책챌청챙첼챠챠청챕 찾챨횪채챔책챠챵 13" x1="305.52" y1="220.91" x2="305.52" y2="207.23" xlink:href="#_횁책챌청챙첼챠챠청챕_찾챨횪채챔책챠챵_13"/>
  </defs>
  <g id="_Layer_" data-name="&amp;lt;Layer&amp;gt;">
    <g>
      <path d="M1937.09,227.87l-42.5-18.93,60.56-34.32,107.63-5.05,6.11-2.53-117.31-2.52-90.33,31.04h-25.7l-11.45-7.07,20.61-8.58-31.04,2.02-14.76-13.63,110.18-34.82v-3.03l-112.21,23.21-71,2.78-.51-11.61,33.34-22.96,39.44-5.81,7.38-14.64,74.3-23.97s3.05-3.53,2.8-3.53-91.35,22.71-91.35,22.71l-7.12,11.1-31.55,4.54-44.78,28.52-2.8,12.61-23.41,14.89h-51.4l-11.96-9.08-3.05-20.19,37.91-22.96,60.31-28.01-2.29-1.51-43,14.64-24.68.76-50.38,22.96-17.3,22.46-10.18,2.52-129.52-16.15-7.89-5.81,75.83-31.04,125.19,3.03-17.05-10.6,8.14-13.37,17.56-5.81,20.61-15.64,39.7-10.85,1.78-3.03-45.29,8.58-18.83,13.37-26.72,7.07-10.69,16.65-81.93-6.05-10.94-26.25,37.66-21.95-47.07-4.29-7.12,1.01,33.33,6.81-31.81,16.91,3.56,32.05-84.99,25.24-29.01,16.65-45.55-28.77-9.67-29.27-36.39-20.44-2.29-3.78,54.71-11.36,3.31-2.02-74.81,3.53-18.57-19.68-1.78-10.6-1.78-4.04-1.27,10.35-8.14,6.56-22.65-9.09-5.6-1.01,25.44,15.39,9.67,21.45-35.62,1.77-33.33-9.84-5.34.5,39.7,15.39,22.14,2.27,55.22,21.95-10.18,13.12-13.99,4.29-137.41-37.09,6.87-14.89-22.9-20.44-39.19-3.03-26.21-12.61,25.7,17.41,31.55,3.53,10.18,11.86-11.96,12.37-25.44-.5-4.83,1.77,11.96,3.28,16.54,6.31-11.71,15.14-52.67-.25-5.34,1.26,69.46,6.56,67.69,23.72-7.89,12.11-26.21,6.31-40.97-3.28-32.06,6.56-62.85-36.08-6.36-2.27,50.13,43.66-61.83,18.17-64.89-31.04-48.35-49.21,77.1-23.97,65.65-4.29,14.25-4.04-106.87-4.04-9.92,5.05-90.59,18.93-32.83-10.35-42.49-36.09L648.52,0h-8.9l81.93,19.43,9.92,17.67-13.49,2.78-7.89,10.6-22.14-1.51-30.54-15.64-46.05-6.06-5.85.25,44.78,12.37,14,7.06-1.78,9.59-52.16,7.32-29.26-9.34-20.87-19.18-72.01-10.6,2.04-4.29-73.79-13.12h-7.12l72.01,18.17,1.78,4.79,57.76,16.4,4.32,11.35-20.1,14.89v5.81l-14.25,2.27-70.74-14.13h-5.34l72.27,23.97,10.18,8.58-1.02,12.11-43,32.55-16.28-.75-26.46-19.93-23.66,1.76-18.32-11.61,4.33-5.55-11.71.25-18.83-13.88-49.87-2.27-19.34-11.86-51.91-3.54-5.85,1.26,49.62,8.08,28.5,16.4,39.19,4.54,46.31,35.08,29.26,9.08-10.18,6.31-76.85,1.26-27.74-13.38-1.78,10.35-49.62,7.82-36.9-34.32-19.59-3.53-18.83-27.5-52.93-8.33,48.09,16.15,18.83,28.26,17.56,2.77,30.02,31.8-17.56,4.54-89.57-17.66-20.61-19.43-53.18-5.8-7.12,1.26,54.46,12.11,19.34,20.44,68.19,14.89-6.87,8.08-18.32,4.04-36.39-7.57-73.79-.76-8.14,2.28,63.87,6.31,45.04,10.09-15.01,11.36-38.68,15.4-40.71,6.56-67.94,15.39s-3.69,2.74-5.25,3.4c7.38-1.29,81.34-11.22,81.34-11.22l19.59,4.8-38.68,22.71-1.02,4.29,119.34-46.43,53.44,4.04,57.76-29.02,21.37,4.54-22.9,24.23,42.75-20.94,95.93,12.11,8.4,14.89-90.84,42.9-84.23-1.77-11.71,7.57-45.55,15.65-1.78,3.28,56.74-13.38,71.5,4.55-10.68,16.65-55.47,18.93,28.24-2.53,44.02-14.89,14.25-18.93,70.99-23.97-18.83,22.71,87.02-56.28,23.66-4.54-1.78-6.06,16.29-28.77,44.53-8.83-28.75-2.02,24.94-36.84,50.63,22.71,15.52,15.9-16.54,4.8,21.37.5,8.4,6.81-16.54,32.55,4.07,13.88-13.74,8.58-26.21-5.55-38.68,25.99-35.12,9.34-5.6,2.78,37.66-2.27,6.11,9.08-15.02,14.64-23.41,10.35-11.96,12.36-21.88,9.09-1.78,3.02,27.23-8.33,12.21-10.35,29.77-9.59,20.1-20.19-5.6-13.38,26.46-17.66,30.54,7.57,26.72-20.95,12.47,1.77,28.75,47.19-14.76,24.48,25.7-25.74-23.15-54.51-22.65-13.37,17.56-31.8,14.51-4.54-15.78-4.04-11.2-15.14,8.91-2.53-23.66-11.1,29.52-13.63,37.15,1.51,24.68-5.3,38.42,34.95,52.16-2.15,23.66,15.39,1.78,10.34-89.31,13.12-5.85,2.27,106.36-4.29,16.54,10.09-5.34,5.55,36.9,17.41-28.5,45.42s20.86,17.91,20.61,18.67c-.25.75-38.42,23.21-38.42,23.21l-93.89,2.27,110.43,11.1,25.95-13.62,14,.75,7.89,5.05-12.47,11.1,32.57,9.34-19.59-11.61,16.79-16.4-4.07-9.08,56.49,4.04,22.9,7.57-8.14-10.34,11.45-2.27,48.35,6.56-51.14-12.62-23.41,2.27-52.93-14.13-23.41-18.17,23.92-30.53,21.88-12.11,22.39,1.77,26.72,27.76,80.92,7.32,26.46,12.36,12.21,19.43s28.17,10.57,28.24,9.84c-.04.57-.5,14.89-.5,14.89l11.96-16.15-33.59-15.65-10.43-18.67-9.54-7.57,23.28-23.72,43.51-2.27,22.9-12.62,30.54,13.12,2.54,15.9-4.07,11.1,20.61,23.46-1.02,10.85,21.63,25.23s-2.29,16.15-1.78,15.14c.51-1.01,10.94-13.88,10.94-13.88l-21.88-28.51,3.05-9.34-17.81-28.26,14.25-13.88-12.21-17.92-37.91-23.72-9.67-16.4,66.41-28.52,15.52,2.78,15.78,20.19-28.5,9.34,41.73,1.01,19.59,12.36,3.56,13.12,48.09,14.64,10.18,7.57-34.61,9.08,11.2,5.81,50.38-.51,32.57,18.17,25.7,4.29,107.12,53.5s5.85.25,5.09,0c-.76-.25-42.49-27-42.49-27l3.05-4.8,64.38,4.29,18.32,10.6,61.07,3.28,3.56-1.77-59.8-8.58-17.3-11.1-68.45-7.57-39.7-23.97,12.98-10.35,20.61-5.8,3.05-1.76-59.29,5.8-41.22-5.3-50.38-37.6,22.14-17.41,67.43.25,21.37,13.12,106.87,26.25,16.54,28.01,101.02,11.36,4.58-1.01-24.43-7.82,68.19,1.51,3.82-2.02-132.57-15.65-13.23-19.93-78.12-31.04,20.87-9.84,76.85,25.24,58.27-31.29,39.7-1.01s55.22,36.09,54.45,36.09,35.88-6.81,35.88-6.81l58.02,16.65,195.68,2.02,7.89-1.26-189.31-13.63ZM1183.64,242l-40.97.5-29.26,29.27-75.32-10.85-15.27-22.46,35.12-14.89,22.39-21.2,49.87,2.78,52.42,9.59,14.76,20.19-13.74,7.06Z"/>
      <g class="cls-54">
        <g>
          <path class="cls-17" d="M202.2,179.16c3.29,10.66,6.74,25.72,8.77,31.47.54,1.52,1.99,5.72.92,7.3-1.42-.37-1.97-2.21-2.47-3.43-1.16-2.8-2.72-5.22-4.22-7.84-1.75-3.04-2.6-6.31-3.82-9.54-.8,3.09,2.37,7.78.84,10.85-1.05-.1-1.4-1.85-1.77-2.68-.95-2.2-2.01-4.36-3.1-6.5-.78-1.53-1.35-3.47-2.86-4.48-1.75-1.18-1.13-.5-1.77.62-1.79,3.15-4.35-.75-6.93-1.24-3.78-.71-1.4,4.94-1.05,6.92.89,4.96-2.51,1.23-3.73-.85-1.15-1.96-2.62-3.86-3.52-5.94-.48-1.11-1.28-2.86-1.44-4.04-.33-2.44,4.73-3.24,6.76-3.73,2.73-.65,5.52-.74,8.16-1.71,2.05-.75,3.93-1.89,5.91-2.76,1.41-.61,3.66-2.15,5.32-2.43Z"/>
          <path class="cls-28" d="M167.6,201.62c2.66,7.07,3.61,10.25,5.25,13.9.68,1.51,1.49,4.45,3.12,5.27.22-1.58-1.65-3.59-1.09-5.04.98,1.08,1.72,3.25,2.28,4.63.13.33,1.49,3.11,1.21,3.4-.47.49-3.53-2.92-3.91-3.39-.8-.98-1.22-2.08-1.75-3.21-.59-1.27-1.29-2.29-2.16-3.38-.37-.46-1.21-1.98-1.84-2.1-.96-.19-.32,1.04-.2,1.64.68,3.45-1.8.57-3.13-.16-.49-.27-1.51-.92-2.06-.47-.53.42.08,1.47-.71,1.71-1.04.32-3.06-4.35-3.92-2.42-.22.5.34,1.71.51,2.18.43,1.19.92,2.36,1.36,3.54.55,1.45.93,3.46,1.88,4.73.94,1.25.95-.1.79-1.04-.19-1.17-1.08-2.68-.8-3.87,1.52.05,2.58,4.49,3.04,5.64.39.97,2.01,4.38-.44,3.11-2.87-1.47-3.8-5.45-6.63-6.9-2.15-1.1-.92,1.79-2.69,1.48-1.04-.18-1.8-1.56-2.43-2.27-.73-.84-1.66-1.64-2.57-2.29-.45-.32-.75-.52-1.29-.56-.79-.06-1.23-.11-2.06-.37-.95-.3-1.17.08-2.06.34-.47.13-1.35.29-1.41-.3-.09-.82,1.96-1.74,2.45-2.02,1.93-1.1,4.03-1.91,5.87-3.16,1.6-1.1,3.23-2.19,4.74-3.4.94-.76,1.79-1.54,2.87-2.11,1.17-.62,2.4-1.78,3.71-2.04.47-.09,1.23-.24,1.77-.39.47-.13,1.82-.65,2.3-.7Z"/>
          <path class="cls-37" d="M100.93,247.3c1.48,3.66,3.15,7.18,3.15,7.18.35,1,.05,1.44-1.05.83-1.48-.82-2.83-4.38-4.89-3.51-.2,1.51.29,2.27-1.47,1.84-1.71-.42-1.61.88-1.26,2.36.2.84.74,1.63-.44,1.8-.84.12-1.21-.62-1.67-1.15-1.32-1.52-1.75-.95-3.27-.67-1.44.27-2.51-.47-3.9.45-.73.49-3.54,1.97-3.85.3-.31-1.66,4.94-3.91,5.95-4.48,2.44-1.38,4.94-3.01,7.71-3.68,1.21-.29,3.78-1.11,4.99-1.28Z"/>
          <path class="cls-58" d="M127.15,222.69c-1.35,1.34-3.5,1.72-4.87,3.18-.89.95-2.04,2.11-2.66,3.26-.58,1.08-.23,1.18-1.34,1.27-.79.06-.91-.36-1.52.41-.51.65-.53,1.73-.41,2.49.19,1.21.88,2.33,1.16,3.52.18.77.92,3.74.26,4.45-.73.79-1.4-.72-1.77-1.38-1.1-1.98-1.77-4.17-3.33-5.89-.47-.52-1.84-1.85-2.65-1.18-.64.53.22,1.58-.51,1.89-.6.26-2.38-1.01-2.9-1.25-.66-.3-1.86-.98-2.58-.49-.51.35-.41,1.22-1.04,1.61-.94.59-2.22-.04-3.1-.47-1.49-.72-2.95-1.91-4.63-2.12-1.28-.16-2.62-.03-3.91-.2-1.15-.15-2.02-.42-3.18-.31-.78.07-1.69.17-2.38-.21,3.33-2.14,8.6-1.87,12.42-2.13,5.39-.36,10.11-1.85,15.23-3.31,3.08-.88,6.26-1.49,9.36-2.32,1.14-.3,2.53-1.19,4.35-.83Z"/>
          <path class="cls-57" d="M248.26,168.82c2.48,8.43,5.2,23.13,6.35,26.96.53,1.77,1.17,3.52,1.76,5.29.3.88,1.08,2.98.51,3.96-.63,1.07-1.43.14-1.88-.59-1.1-1.8-1.69-4.06-2.53-6-.98-2.26-1.75-4.6-2.63-6.9-.75-1.96-1.62-3.81-2.62-5.66-.44-.81-1.06-2.42-2.09-2.69-1.03,1.22,1.83,8.85-1.32,7.82-.8-.26-1.44-1.63-2.24-1-.67.52-.55,3.1-.52,3.82.03.87.63,3.64-.94,2.95-1.59-.7-2.61-4.84-3.16-6.27-1.19-3.07-2.41-5.95-4.1-8.78-.66-1.1-1.66-3.54-3.22-3.54-.36.55.14,2.17-.82,2.27-.94.09-2.54-2.73-2.98-3.36-.97-1.38-1.82-2.88-3.25-3.85-.87-.59-1.27-.51-2.19-.56-1.15-.05-2.75-.39-3.55-1.21-.88-.9-1.33-1.93-2.44-2.62-.5-.31-1.46-.51-1.51-1.12.59-.28,1.41.04,2.02.18,2.34.53,4.66,1.23,7.02,1.7,2.38.47,4.76,1.03,7.2.7,2.29-.31,4.59-.91,6.86-1.35,2.75-.54,5.36-.96,8.15-1.09,1.06-.05,3.23.33,4.15.94Z"/>
          <path class="cls-16" d="M185.82,95.78c2.06,2.4,2.38,6.89,3.13,9.86.7,2.75,1.96,5.18,3.01,7.8.55,1.38,1.23,5.63,2.72,6.25.17-.94-.2-4.51.34-4.87,1.26,1,1.9,3.2,2.47,4.63.74,1.86,1.48,3.7,2.2,5.56.37.97,1.04,3.22,2,3.79,1.31.78.63-2.19,2.51-1.09,1.35.78,1.64,3.46,3.12,3.87-.01-1.69-.71-4.02-1.44-5.55-.47-1-.97-2.04-1.27-3.15-.68-2.59-1.49-3.99-3.23-6.14-4.04-5.01-7.4-10.5-11.38-15.56-1.35-1.72-2.36-3.9-4.17-5.4Z"/>
          <path class="cls-38" d="M311.62,155.7c.73,7.06,1.84,14.06,2.67,21.11.19,1.6,2.81,11.22.57,11.63-1.79.33-2.78-8.22-3.01-9.07-1.01-3.7-2.18-8.51-4.63-11.58-2.12-2.66-2.58-.96-2.77,1.31-.05.65-.02,2.24-.78,2.55-.72.3-1.02-.54-1.54-.58-.87-.08-.52-.55-.98.47-.39.88.06,2.85.13,3.79.2,2.77-.16,7.79,2.04,9.86,1.92-.98.5-5.52,1.64-7.31,1.05.54.99,2.76,1.1,3.78.33,2.95.78,5.98.59,8.96-.11,1.68-.24,3.88-2.28,2.6-2.38-1.49-2.89-6.88-3.84-9.22-.65-1.59-.79-1.4-1.86-1.9-.87-.4-.96-.07-1.76-1.2-1.09-1.53-1.79-3.41-2.51-5.13-.78-1.85-2.63-6.99-5.11-7.38-2.33-.36-1.37,3.25-1.44,4.81-.07,1.58-.13,6.9-1.77,7.85-2.14,1.24-4.63-4.63-5.47-5.89-.74-1.1-2.91-4.5-4.75-3.81-.63.25-.5,1.08-1,1.38-.74.45-1.62-.15-2.21.2-1.64.96.04,4.81,0,6.29-.09,2.83-1.58,2.14-2.8.14-.87-1.41-1.64-3.14-2.19-4.7-.16-.45-.4-1.62-.84-1.88-1.16-.69-.36,1.33-1.27,1.38-1.22.07-2.05-4.1-2.34-4.9-1.23-3.4-2.26-6.82-3.64-10.16.76.09,1.53.55,2.31.76,2.28.61,4.33.13,6.58-.31,6.36-1.24,12.85-2.14,19.26-3.19,5.85-.96,11.52-1.47,17.44-1.47,1.04,0,3.22.21,3.84-.16.81.21,1.93.39,2.63.96Z"/>
          <path class="cls-47" d="M341.14,158.72c3.63,5.36,5.84,11.15,8.29,17.07,1.79,4.32,2.18,10.3,5.35,13.92,2.98,3.4,1.84-3.6,1.62-5.21-.46-3.27-.83-6.42-1-9.71-.09-1.69-.88-5.29.17-6.84,2.31-3.41,5.34,4.38,6.8,5.9.46-1.36.92-5.16,3.36-4.93,1.84.18,1.44,2.86,2.84,3.56,1.32.67.81-.36,2.1-.31,5.07.17,8.52,6.2,10.59,10.05,1.45,2.71,2.85,7.36,5.36,9.34,2.57-2.68.34-10.5-.06-13.71-.24-1.91-1.79-11.41,2.2-8.52.92.67,2.22,4.24,3.62,3.9.78-.2,2.7-4.06,3.36-4.79,3.39-3.73,6.61-3.61,10.4-.26,2.06,1.82,3.88,4.73,6.69,2.79,2.16-1.49,2.92-3.28,5.81-3.73,7.33-1.14,8.65,6.99,10.72,12.34,1.38,3.57,2.69,7.17,3.99,10.77.63,1.74,1.66,6.02,3.85,6.67,5.01,1.49-.08-14.75-.49-16.85-.97-4.95-.55-10.06-2.37-14.79-.8-2.08-2.06-6.18-2.67-7.91-1.46-4.14-3.48-6.33-3.48-6.33,0,0-6.54,3.84-13.43,4.46-6.89.62-66.18.22-73.59,3.11Z"/>
          <path class="cls-4" d="M310.71,89.52c2.34.89,3.27,5.35,6.43,5.3.83-.02,1.58-.66,2.6-.65,1.52.02,2.72.61,4.12,1.09,2.86-.96,4.72-.81,7.12.97,1.59,1.18,3,2.56,4.55,3.79.84.67,1.8,1.67,2.89,1.15,1.69.28,1.06-.89,1.1-2.34.05-2.49,2.57-3.58,3.91-1.19.44.79.75,2.72,1.94,2.51.88-.15,1.3-2.22,2.29-2.58,1.27-.47,1.5.76,2.47.79.96.03,1.69-1.24,2.69-1.48,4.98-1.2,6.31,4.6,8.07,7.79.58,1.05,3.36,6.71,4.16,3.49.47-1.92-2.81-8.09-.62-8.73,1.65-.48,4,2.1,4.74,3.22,1.23,1.84,1.16,4.59,3.07,5.95,1.28.92,2.28.11,3.57.77,1.66.84,2.4,3.32,3.05,4.85.99,2.31,2.16,6.05,4.51,7.32.91-1.67-1.32-5.54-1.64-7.42-.28-1.65-.48-3.35-.4-5.04.04-.94.41-2.16.08-3.02-.5-1.27-2.56-2.56-3.48-3.46-2.2-2.13-4.54-4.09-7.01-5.91-1.76-1.29-3.57-2.51-5.33-3.79-.63-.46-1.26-1.35-2.03-1.53-.88-.21-2.5.26-3.41.32-3.49.23-6.96.13-10.46,0-10.18-.39-20.44-.52-30.53-1.82-2.8-.36-5.82.03-8.45-.35Z"/>
          <path class="cls-27" d="M391.19,112.5c-.52.29-2.55.27-2.94.96-.6,1.05,1.2,3.67,1.54,4.54.87,2.21,2.12,4.22,2.78,6.52.59,2.07,1.05,6.1,3.83,6.48.66-2.23-.62-5.06.59-7.19,1.39.59,1.47,2.44,2.48,3.41,1.07,1.02,1.37.17,2.67.48,3.77.92,5.63,7.84,7.55,10.66.52.77,1.89,3.19,3.13,3.02,1.29-.18.62-1.1.14-2.12-1.12-2.31-2.05-4.65-3.12-6.97-.98-2.14-1.87-4.29-2.7-6.48-.25-.67-.91-1.61-1.03-2.26-.11-.57.39-1.01.19-1.59-.28-.83-1.76-1.76-2.4-2.23-2.62-1.92-5.7-3.28-8.44-5.05-.94-.6-2.43-2.01-4.25-2.19Z"/>
          <path class="cls-24" d="M427.5,121.66c.61.92,1.74,1.35,2.37,2.33.72,1.13,1.01,2.46,1.73,3.57.72,1.08,1.6,1.93,2.17,3.14,1.25,2.66,1.49,5.64,2.12,8.46.71,3.17,2.2,1.9,2.1-.64-.05-1.03-1.08-5.4,1.27-3.74.93.66,1.19,3.21,1.48,4.17.53,1.79,1.18,3.46,1.95,5.17,1.06,2.32,2.02,4.53,2.77,6.96.42,1.35,1.03,4.21,2.22,5.06.85-1.45.41-5.49,2.24-6.23,1.85-.75,2.19,2.44,2.72,3.55,3.82-2.4,8.88,23.33,12,25.35,1.44-5.4-.26-11.93-.65-17.42-.08-1.17-.37-9.81,1.95-5.69,1.43,2.54,1.97,5.62,2.63,8.42.8,3.4,2.19,6.34,3.62,9.51,1.08,2.4,1.96,4.87,2.83,7.36.37,1.06.89,3.59,2.51,3.39,3.22-.39-.95-11.33-1.33-13.12-.94-4.44-1.08-8.97-1.68-13.44-.25-1.86-.39-3.73-.8-5.57-.25-1.09-.9-2.36-.93-3.47-.07-2.11,1.03-4.33.72-6.48-2.63,1.53-7.05-.54-9.73-1.1-2.59-.54-5.47-.3-7.77-1.69-2.84-1.71-5.35-4.48-7.75-6.72-3.23-3-6.68-6.18-10.34-8.67-1.51-1.03-8.88-4.86-10.43-2.48Z"/>
          <path class="cls-31" d="M514.26,98.37c1.54.86,2.96.49,3.84,2.19,1.06,2.06.4,4.76.65,6.97.37,3.29.94,6.9,2.19,9.98,2.08,5.12,3.9,10.38,4.41,15.94.17,1.8,2.81,9.75,1.25,10.71-2.75-1.84-2.81-7.93-3.99-10.75-.72-1.74-1.99-5.72-3.82-6.61-.57,1.67.2,3.72.58,5.4.68,3.02,1.13,6.05,1.94,9.04.81,3.02,1.5,5.92,1.91,9.02.18,1.33.31,3.74,1.53,4.49.9-1.02.25-4.99,1.25-5.22.78-.17,2.57,10.56,2.8,11.54.35,1.53,1.57,8.88-1.18,4.29-1.79-2.99-2.25-6.64-4.24-9.47-.36.84-1.08,1.6-1.34,2.46-.67,2.15.99,4.56-.25,6.61-1.94-1.32-2.25-6.52-2.68-8.66-.84-4.25-2.34-8.1-3.69-12.19-1.4-4.23-2.55-10.23-6.48-13-.93,1.36-.39,3.49-.16,5.03.45,2.95,1.26,5.73,2.04,8.6,1.18,4.33,2.09,9.02,2.32,13.51.09,1.69-.14,4.6-2.15,2.47-1.44-1.53-2.03-4.18-2.72-6.08-.82-2.24-1.64-4.49-2.58-6.7-1.18-2.76-2.57-5.32-4.51-7.63-.87-1.04-1.81-2.95-3.07-3.41-.65,2.06,1.37,4.72.59,6.53-.66,1.54-1.78.73-1.6,3.07.24,3.08,1.79,5.92,2.41,8.91.58,2.8,1.68,7.12,1,9.9-1.43-.59-2.31-3.29-2.85-4.6-1.04-2.54-1.86-5.18-2.87-7.73-.68-1.71-1.95-7.75-4.13-8.09-1.22,3.44,2.72,7.56,1.35,10.97-.86.14-1.56-.81-2.2-1.28-.38,1.24.21,3.28.4,4.55.53,3.56,1.43,7.12,1.64,10.71.08,1.35.62,6.18-.7,7.16-1.62,1.21-2.5-2.53-2.94-3.75-2.27-6.43-2.67-13.05-4.49-19.55-.39-1.39-2.32-9.11-4.39-9.26-1.29-.09-1.09,2.02-2.19-.27-.46-.96-.44-2.04-1.1-2.93-.05-.07-.96-.66-.9-.5-.59-1.8,3.52-3.47,4.66-4.18,6.28-3.86,11.65-9.26,17.12-14.15,5.51-4.92,11.19-8.83,14.68-15.51,1.01-1.92,3.53-6.47,2.65-8.53Z"/>
          <path class="cls-30" d="M503.93,77.72c.73.04,2.53,1.46,3.41,1.98,1.8,1.08,4.14,1.88,5.69,3.32,1.36,1.27,1.9,6.31,3.87,6.6,2.2.33,1.63-4.1,2.16-5.32.87-2.02,1.62-.7,3.05-.4.39.08.7-.5,1.12-.42,1.22.21,2.05,1.77,2.52,2.71,1.41,2.83,2.02,6.02,3.31,8.91,1.39,3.1,2.73,6.18,3.9,9.37,1.45,3.96,3.37,7.94,5.45,11.6-.72-7.64-1.9-14.96-4.09-22.33-.93-3.14-2.25-6.35-2.21-9.67.01-1.32.05-4.45,1.39-5.13,1.3.95,1.37,3.03,2.69,3.94.88-1.52.64-4.36.99-6.1.27-1.37.52-4.58,1.72-5.38,2.95,2.46,4.29,7.57,5.53,10.98,2.58,7.07,5.35,15.06,9.71,21.19,1.9-1.37,1.45-.69,1.24-3.88-.22-3.41-.83-6.7-1.64-10.03-.52-2.13-1.21-4.2-1.84-6.3-1.18-3.91-2.57-7.85-3.61-11.79-.54-2.04-.22-4.25-.72-6.19-.46-1.77-1.19-3.18-1.48-5.05-.18-1.18-.48-2.66-1.25-3.61-1.22-1.5-1.91-.22-3.37.75-3.75,2.49-7.36,4.92-11.38,6.99-4.25,2.18-9.35,2.15-13.53,4.34-1.95,1.03-3.63,2.55-5.4,3.84-2.4,1.77-5,2.43-7.19,5.09Z"/>
          <path class="cls-3" d="M553.88,31.6c1.41-.09,3.37.99,4.44,1.77,3.96,2.89,5.55,9.58,6.19,14.03.54,3.73.9,7.39,1.84,11.06.99,3.86,2.37,7.56,3.23,11.46,1.05,4.76,1.76,11.07,4.36,15.28,1.17-2.16.81-5.52.59-7.9-.39-4.16-1.8-8.2-2-12.4-.09-1.99.32-4.58,2.19-1.88,1.73,2.49,1.47,6.29,2.38,9.15,1.06-2.18,2.18-3.39,3.53-.37,1.9,4.25,1.97,9.68,3.07,14.17,2.01,8.2,3.35,16.65,5.81,24.71.86,2.79,1.26,8.23,3.52,10.38,1.36-1.7.65-6.21.62-8.26-.06-5.6-.45-11.22-1.18-16.77-.57-4.32-1.32-8.68-1.48-13.03-.08-1.93-.45-5.65.78-7.32,2.47,2.28,2.61,7.37,3.13,10.44.73,4.36,2.61,8.46,3.36,12.81.91,5.27,1.96,10.48,3.3,15.66.83,3.21,1.78,9.54,4.49,11.75,1.36-3.99-5.16-44.42-1.29-44.74,1.61-.14,4.37,7.99,5.12,9.68,2.78,6.24,2.57,13.41,4.72,19.82.68-9.42-1.49-18.28-2.42-27.56-.42-4.12-.94-8.25-1.42-12.35-.12-1.04-.74-2.54-.19-3.56,1.13-2.09,1.93,1.98,2.96,2.83,1.85-.95.97-4.42,4-4.54,1.16-.05,1.92,1.18,3.04,1.02,1.42-.21,1.84-1.64,3.53-1.68,1.69-.04,1.64-.16,3.03-.82,1.14-.55.97-.64,1.87.25,2.3,2.3,3.52,7.6,4.61,10.53.86,2.31,1.92,7.09,4.21,8.42,1.8-4.26.45-8.88,1.35-13.26.15-.75.75-3.5,1.74-3.84.92-.31,1.6.96,2.23,1.44,1.71-.65,1.52-4.22,3.64-1.99,1.04,1.1,1.61,3.6,3.44,2.7,1.56-.76,1.42-4.37,4.02-1.56,2.16,2.35.53,9.3,3.53,10.66.88-1.85.62-4.13,1.49-5.98,3.39.58,3.74,12.1,4.25,14.72.49,2.52,1.75,6.95.68,9.46-3.56-.98-1.33-8.28-4.3-10.33-.4,4.54,1.6,8.87,2.79,13.16,1.08,3.88.81,10.09,3.23,13.35,2.74-1.15.75-8.11.72-10.36-.02-1.74-.53-7.32.88-8.47,2.06,2.51,2.3,6.02,2.79,9.06.66,4.13,1.73,8.25,2.53,12.38.41,2.12.58,4.6,1.43,6.61,2.4-4.62.91-11.64.44-16.5-.81-8.24-1.54-16.8-3.06-24.95-.91-4.89-2.39-9.83-2.8-14.8-.15-1.79.97-4.51,2.02-1.56-.37-2.69-1.46-5.19-2.21-7.8-.56-1.95-1.14-4.1-2.12-5.9-.86-1.6-2.06-3.43-4.22-2.82-1.4.39-2.74,1.91-3.78,2.85-1.96,1.77-3.31,2.17-5.92,2.52-9.42,1.27-18.71,3.16-28.24,3.27-4.4.05-8.79.45-13.18.47-3.42.02-7.02.44-10.41-.21-3.15-.6-5.93-2.1-8.56-3.85-3.85-2.56-7.82-4.81-11.75-7.24-4.79-2.96-7.96-7.07-12.21-10.61-2.38-1.99-4.73-3.59-7.85-4.04-2.68-.39-5.29-1.1-6.53,1.41Z"/>
          <path class="cls-6" d="M679.45,42.62c2.85,2.04,5.91,3.52,7.63,6.74,2.19,4.1,3.48,9.06,4.41,13.57.71,3.42.75,7.37,2.21,10.59.72,1.58,1.3,2.12,2.05.31,1.08-2.6.29-6.66.1-9.38-.05-.81-.99-5.46.5-5.69,1.29-.19,1.58,3.16,1.89,3.9.98-1.11,2.01-3.48,4.03-2.54,1.78.82,2.58,3.96,3.06,5.61.97,3.34,1.83,6.72,2.7,10.08,2.16,8.32,3.71,16.78,5.76,25.12.74,3,1.13,9.91,4.09,11.71,2.51-2.76,1.76-8.49,1.48-11.8-.49-5.72-1.66-11.37-2.22-17.08-.49-4.96-1.13-9.93-1.42-14.91-.1-1.79-.86-5.68.68-7,1.52,2.23.86,6.39,2.82,8.09.4-1.44.75-2.89.9-4.4.14-1.38-.35-3.8.66-4.91,2.37,1.37,2.59,7.48,2.9,9.83.62,4.75,1.3,9.45,2.12,14.16.77,4.44,1.7,8.86,2.46,13.31.47,2.79,1.03,5.56,1.8,8.28.4,1.45.75,4.45,2.01,5.5.73-1.43.48-3.69.47-5.3-.02-3.83-.48-7.64-.71-11.46-.43-7.34-.54-14.6-1.69-21.88-.8-5.1-1.96-10.17-2.48-15.3-.15-1.54-.79-4.32.75-5.34,1.05,1.65,1.16,4.1,1.64,5.95.5,1.93,1.24,3.81,1.71,5.75.25,1.02.18,2.32.9,3.01,1.12-2.07.35-5.39.19-7.59-.12-1.71-.8-4.76.03-6.37,1.09.72,1.06,3.35,1.65,4.61.85-1.74.35-3.8-.04-5.64-.53-2.55-1.04-5.13-1.61-7.68-.47-2.12-.37-4.83-1.29-6.81-.74-1.59-2.25-1.5-4-1.68-6.71-.71-13.64-.71-20.35-.13-5.01.44-9.83,1.47-14.78,2.27-3.83.61-7.22.37-11.06.04-1.73-.15-4.49-1.3-4.45.81.02,1.14,1.11,2.88,2.49,3.66Z"/>
          <path class="cls-29" d="M735.4,11.1c4.62-.08,6.5,5.96,7.27,9.34,1.13,4.93,1.94,9.98,3.18,14.88.45,1.76,1.23,6.05,3.29,6.65,1.14-3.15-.85-7.05.85-9.91,1.58,1.2,1.83,4.33,2.31,6.13,1.28,4.77,1.88,9.91,2.17,14.84.39,6.49,1.19,12.84,1.81,19.3.27,2.88,1.53,8.3-.23,10.84-1.88-3.84-1.86-9.37-2.93-13.55-.6-2.34-.82-7.25-2.66-8.84-.99,2.41-.03,5.39.42,7.82,1.02,5.43,1.89,10.82,3.3,16.17,1.78,6.8,2.36,13.69,3.01,20.66.37,3.99.28,10.63,2.39,14.2,1.64-1.19,1.96-4.38,2.3-6.16,1.15-5.93,1.04-11.94.9-17.94-.23-9.67-.53-19.31-.48-28.99.01-2.38-.94-15.94,3.75-15.53,3.97.35,3.83,11,6.34,13.32.78-.95,1.51-3.61,2.67-3.98,1.67-.54,1.77.79,3.07,1.73.79-.7,1.19-1.86,1.96-2.55,2.82,3.01,3.87,8.53,4.74,12.33,1.79,7.86,1.89,15.98,2.82,23.95,1.1,9.41,3.3,18.56,4.92,27.88.62,3.56,1.31,7.06,2.16,10.58.44,1.83.58,4.29,1.97,5.68,2.2-3.22,2.15-9.61,2.38-13.32.48-7.89-.32-15.76-.94-23.62-.51-6.47-1.34-12.97-1.4-19.47-.03-2.8-.63-7.68,1.68-9.9,3.6.6,3.13,8.88,4.4,11.39,1.44-1.34,2.31-14.02,5.78-8.98,1.59,2.31,1.94,6.04,2.5,8.69.82,3.85,1.84,7.65,2.91,11.44,1.35,4.79,2.77,9.61,4.57,14.25.69,1.78,1.9,7.38,4.04,8.18,2.45-2.48,2.23-9.67,2.4-12.88.37-6.88.03-13.78.12-20.67.03-2.67-.8-11.7,1.51-13.58,1.83-1.49,2.3.4,4.1.79,1.12-2.25,2.41-5.02,4.84-6.11,3.3-1.49,4.44,3.97,6.65,5.79,2.65-2.46,3.01-8.57,4.83-11.86,1.82-3.29,3.71-1.93,6.52-3.52,2.4-1.36,4.08-3.68,6.58-5.05,1.13-.62,7.4-3.09,6.41-4.59-.83-1.25-4.42.49-5.34.72-5.07,1.26-10.42,1.84-15.63,2.12-9.49.53-19.05.81-28.52,1.65-8.17.73-14.82.8-22.31-2.95-13.07-6.54-24.7-15.63-35.81-24.98-5.6-4.71-11.03-11.14-18.36-13.07-1.81-.48-4.26-1-5.22.68Z"/>
          <path class="cls-12" d="M867.34,72.18c-4.59-.49-3.83,3.25-3.4,7.07.82,7.29,2.43,14.39,2.58,21.76.09,4.62.27,9.23.41,13.84.06,2.16-.49,5.67.83,7.56,2.02-1.93,1.11-7.78,1-10.37-.13-2.93-.84-7.49,1.07-10.03,3.27,2.38,3,10.24,3.21,13.7.48,8.24,1.42,16.45,1.83,24.68.43,8.57,1.69,16.77,2.81,25.25.44,3.31-.23,9.35,2.45,11.88,1.77-1.49,1.75-5.46,1.9-7.62.48-6.82-.33-13.77-.66-20.58-.32-6.52-.19-13.09,0-19.62.05-1.58-.65-10.89,1.7-12,5.98-2.82,4.67,14.63,8.66,14.36,1.36-.1,2.1-2.69,3.39-3.16.92-.34,1.81.13,2.77-.39,1.35,1.41,1.57,3.88,2.23,5.76,1.39,3.98,2.26,7.87,2.83,12.09.76,5.64,1.5,11.28,2.3,16.92.27,1.94.32,8.79,2.33,9.98,5.62-8.65,1.99-21.29,4.44-30.84.44-1.71,2.03-6.08,4.61-4.57,2.38,1.39,2.11,6.66,3.58,8.84,1.3-.46,1.63-1.99,2.93-2.68,1.97-1.05,3.38-.12,4.54,1.44,3.04,4.11,2.38,10.65,3.32,15.45,1.82,9.24,2.22,18.73,4.19,27.93.43,1.98,1.98,11.74,5.34,9.86,2.08-1.17,1.85-7.23,1.98-8.94.4-5.14.77-10.22,1.39-15.34.31-2.59,1.21-18.34,5.92-16.51,3.24,1.26,2.51,12.42,6.13,6.2,1.14-1.95,3.62-5.49,5.91-6.2,1.71,2.32,3.15,4.94,4.78,7.34,1.87,2.75,3.07,6.06,3.81,9.27.69,2.97.63,6.39,1.89,9.2,2.56-3.02,2.64-8.52,3.22-12.26.53-3.39,1.48-6.89,1.58-10.3.07-2.33,1.05-8.19-.33-9.6-1.63-1.67-5.45-3.32-7.47-4.41-4.79-2.58-9.96-4.93-14.98-7.03-9.09-3.8-17.9-8.6-25.85-14.41-6.17-4.52-12.94-7.65-17.75-13.81-5.56-7.11-12.17-13.96-18.75-20.18-6.09-5.76-12.44-11.48-19.38-16.22-1.69-1.16-3.5-2.03-5.3-3.31Z"/>
          <path class="cls-11" d="M656.69,162.24c-1.05.68-2.83.69-4.1,1.03-2.51.68-2.4.97-1.43,3.63,1.41,3.88,1.23,7.32,1.83,11.34.34,2.31.39,8.21,2.82,9.42,2.5-2.05-.9-7.49,1.31-9.29,1.27.9,1.17,2.85,1.5,4.23.49,2.03,1.32,3.96,1.84,5.98,1.04,4.13.14,8.79,1.94,12.77,2.09-7.55-1.2-15.49-.65-23.14.24.25.54.33.74.58.68-2.14.46-4.03,2.15-5.26,1.79-1.29,4.96-1.22,7.52-1.36-2.07-3.21-7.69-5.05-11.07-6.8-1.22-.63-3.46-1.7-4.39-3.13Z"/>
          <path class="cls-46" d="M669.01,177.35c-2.83-.63-3.44.77-2.89,3.59.85,4.33.81,8.32,1.19,12.65.27,3.07,1.19,5.98,1.29,9.1.04,1.28-.36,2.87.24,4.01,3.44-3.42-.18-10.74,2.46-14.47,2.1,1.77,3.41,4.68,5.35.75.64-1.29,2.31-3.33,2.18-4.46-.18-1.62-3.71-4.06-4.74-5.35-.52-.66-.98-1.38-1.49-2.05-.94-1.23-1.8-2.68-3.6-3.77Z"/>
          <path class="cls-5" d="M666.72,228.28c-1.39,2.21-4.05,2.34-5.42,4.15-1.54,2.04,1.23,6.76,1.77,9.27.42,1.96.5,3.8.73,5.75.14,1.2-.17,2.41,1.49,1.62,2.25-1.07-.05-5.67,1.56-6.83,1.23-.88,1.54,1.57,2.4,2.21,1.97-4.75,6.91,6.73,7.3,7.63,1.3,3.01,2.34,6.11,3.65,9.11,1.22,2.79,1.7,6.3,3.25,8.85,1.55-3.94-2.15-10.78.35-14.22,2.2,4.5,4.11,8.95,5.49,13.77,1.3,4.57,1.57,10.81,4.35,14.74,1.37-2.34-.82-8.2-1.32-10.84-.75-3.91-1.27-7.8-1.82-11.74-.63-4.54-1.44-11.01-3.74-15.02-2.83-4.93-9.18-8.03-13.49-11.52-2.39-1.93-3.95-5.4-6.52-6.93Z"/>
          <path class="cls-19" d="M632.27,241.95c3.15,3.33,4.27,6.31,4.6,10.76.09,1.28,1.54,7.53.26,8.35-1.03.66-2.57-6.19-4.44-6.68-.93,1.2.11,2.91-.82,4.09-2.14-1.56-1.22,2.35-1.15,3.28.14,1.93.73,6.14-.73,7.57-2.61-2.08-1.92-7.38-5.39-8.92-.31,1.27-.39,2.59-.69,3.87-1.6-.04-1.6-1.49-3.11-.7-1.02.53-.07,1.56-1.84,1.52-1.08-.03-2.83-1.64-3.53-2.34-2.28-2.29-4.04-4.48-7.07-5.9-2.13-1.01-2.41-.74-4.03.58-2.06,1.67-2.7,1.93-4.61-.46-1-1.25-1.71-3.28-3.44-3.64-1.31-.27-2.8.78-3.94,1.17-1.54.51-3.13.58-4.7.9,1.05-4.34,4.17-7.46,8.32-9.11,7.9-3.13,13.68,3.04,21.16,3.57,3.69.26,8.11-.87,10.69-3.55,1.09-1.13,2.24-3.06,4.48-4.34Z"/>
          <path class="cls-15" d="M562.12,273.62c-2.68,2-4.42,3.26-3.77,6.88.46,2.57,2.87,6.27,1.89,8.85-2.19-1.68-2.88-8.28-5.81-8.66-1.6-.21-.79.62-1.72,1.43-1.66,1.44-1.91.65-3.74.34-2.28-.39-3.36,1.35-5.64.8-2.52-.61-4.36-1-7.03-.92,3.45-4.21,9.92-3.91,14.6-5.97,2.47-1.08,8-4.31,11.21-2.74Z"/>
          <path class="cls-22" d="M427.05,223.32c2.38-.79,3.95,5.47,4.59,7.01,1.01,2.44,2.97,4.04,4.5,6.11,2.2,2.98,1.52,6.69,2.1,10.27.54,3.32,1.84,6.32,3.02,9.44.74,1.96,2.39,5.28,1.06,7.21-1.48-.77-7.41-20.62-11.08-17.39-1.35,1.18,2.48,4.76-1.1,4.72-1.91-.02-3.24-2.64-5.49-2.32-2.75.39-.22,2.27-1.04,4.56-1.08,3.04-4.09-1.68-6.38-.61-1.54.72-1.39,4.99-1.46,6.48-.1,2.32.75,6.63-.97,8.43-2.77-1.42-6.46-13.96-11.43-11.39-1.83.94.02,2.57-2.61,2.9-.98.13-1.98-.44-2.96-.2-.85.21-1.4,1.01-2.27,1.2-1.92.42-2.28-.2-3.95,1.09-2.52,1.96-4.29,2.69-7.54,2.87-3.57.19-7.32,1.22-10.84,1.21,1.01-4.29,7.28-7.42,10.78-9.17,10.52-5.27,23.03-6.86,32.45-14.3,4.37-3.45,8.99-9.24,9.16-15,.04-1.33-.3-2.58,1.46-3.11Z"/>
          <path class="cls-49" d="M642.71,198.47c1.89,1.57,4.87,1.7,6.39,3.6,1.6,2.01.79,5.25,1.48,7.77,1.34,4.92,2.65,9.71,2.54,14.85-1.11-1.63-2.04-3.65-2.9-5.47-.6-1.29-.93-3.57-2.3-4.24-1.78,1.86,1.01,7.27,1.49,9.37.72,3.11,1.29,6.24.64,9.33-2.76-1.62-2.55-6.55-4.83-8.77-.18.29-.87.65-1.04.93-2.4-3.78-1.2,5.72-1.03,6.37,1.01,3.83,2.61,7.45,3.54,11.32.45,1.87,2.09,5.54.98,7.31-3.1-.97-4.58-9.65-5.8-12.32-1.02-2.23-2.18-7.27-4.6-8.38-.76,1.04-.57,2.44-1.44,3.37-2.16-1.24-3.82-1.54-4.8-4.02-1.71-4.27-.43-7.5,1.98-11.08,2.79-4.16,5.18-8.56,6.84-13.24.73-2.08,2.31-4.27,2.87-6.71Z"/>
          <path class="cls-10" d="M855.65,196.19c1.97,2.08,1.73,6.09,2.28,8.71.43,2.02,2.75,5.69,1.07,7.44-2.34-.58-2.74-4.01-5.04-4.91-1.16,2.85-2.88.3-5.08,1.08-.81.29-1.2,1.54-2.2,1.88-1.96.67-2.99-.77-4.67-1.54-3.27-1.49-5.95.96-9.31.81-3.31-.16-6.27-1.86-9.6-1.91.52-1.45,4.3-2.18,5.69-2.47,5.52-1.11,11.89-.71,17.14-2.89,3.43-1.42,5.07-6.45,9.72-6.2Z"/>
          <path class="cls-36" d="M904.5,244.85c2.81,1.48,6.26,2.62,9.4,3.11,1.34.21,2.3.04,3.28.88,1.45,1.25,1.03,3.39,1.09,5.03.14,4.19.14,8.39.63,12.56.28,2.43,1.77,6.33.87,8.67-2.84-1.25-1.77-6.42-3.91-7.69-2.37-1.41-1.74,1.66-1.6,3.25.28,3.44.19,6.86.68,10.28.57,3.96,2.45,10.26.19,13.97-3.95-.97-4.8-19.78-9.13-18.23-1.03.37-1.01,2.65-1.62,3.35-.3.35-1.26-.27-1.62.07-.68.66-.46,1.97-.55,2.81-.23,2.07-.18,2.42-1.55,3.57-.11.1-1.45.43-1.74.59-.41.23-.82.95-1.28,1.26-1.19.8-2.28.9-3.21,2.04-.95,1.17-1.92,2.88-2.82,4.16-1,1.43-3.59,10.47-5.7,4.56-2.73-7.64,3.68-17.61,6.85-24.16,3.41-7.04,6.45-14.21,8.22-21.86.68-2.96.74-6.14,3.54-8.22Z"/>
          <path class="cls-2" d="M904.09,308.41c1.71,1.11,4.68,2.73,6.02,4.19,1.43,1.55,1.49,4.35,1.49,6.24-.02,3.39,2.5,7.71,1.64,10.9-2.87.4-3.51-5.65-4.35-7.34-2.51-5.06-2.56-.78-3.64,1.94-1.37,3.46-3.03-.72-3.86,2.89-.44,1.92,1.18,7.23-.63,8.31-1.47-2.72-.18-7.32-2.92-9.28-3.8-2.71-2.63,3.31-4.59,4.5-.8.48-2.44-.09-3.41.43-1.81.98-1.81,3.2-3.11,4.57-3.01,3.19-4.7-1.61-7.59-.97-1.91.42-3.63,3.86-5.01,5.08-2.42,2.14-2.78,1.17-4.9-.49-2.02-1.59-4.27-1.79-6.52-2.46-2.36-.71-4.92-1.45-7.26-2.18,3.42-1.82,7.4-1.77,11.2-2.67,6.76-1.61,12.72-5.48,18.67-8.89,5.45-3.12,9.49-6.9,14.06-11.05,1.12-1.01,3.05-2.88,4.71-3.73Z"/>
          <path class="cls-8" d="M933.73,284.6c-1.19.16-2.75,1.59-3.55,2.53-1.07,1.28-.85,1.01-.53,2.64.95,4.78,3.03,8.94,3.43,13.9.23,2.85.11,8.1,2.73,9.93,3.02-3.49-2.15-12.82,1.26-14.97,1.62,1.68,2.07,5.16,2.85,7.39,1.7,4.83.62,11.75,3.5,16.01,3.79-2.19,1.45-8.54,3.36-11.55,2.17-3.42,3.29,2.11,5.07,3.45,2.07-1.43,2.09-1.5,4.46-.29,1.88.97,5.22,3.02,7.36,2.86,2.42-.18,3.84-2.99,6.43-2.3,1.93.51,3.26,2.59,4.74,3.75,2.31,1.79,4.72.3,7.51.8,3.25.59,5.1,1.23,8.53.8,2.64-.33,5.19-.79,7.88-.58,2.26.17,4.51,1.14,6.77,1.01-1.01-1.32-3.75-2.14-5.27-2.78-6.19-2.6-12.35-5.26-18.53-7.86-11.01-4.64-22.02-9.18-32.91-14.08-4.7-2.11-13.74-4.76-15.1-10.65Z"/>
          <path class="cls-34" d="M1026.01,127.25c2.34,2.64,5.41,4.52,8.78,5.65,1.45.49,3.2.68,4.42,1.75,2.37,2.09.68,6.49,1.1,9.44.62,4.36,1.7,8.52,2.12,12.96.27,2.9.96,7.2-.8,9.8-2.46-1.85-2.83-8.94-3.46-11.81-.52-2.35-1.01-6.27-3.62-7.31-.84,1.37.01,4.2-.02,5.87-.05,2.77.09,5.34.46,8.14.58,4.48.64,9.05,1.28,13.51.35,2.48,1.1,9.44,3.75,10.6,2.85-2.62,1.1-8.14,3.33-11.18,1.27,3.11.95,6.91,1.07,10.23.15,3.87.87,7.73,1.42,11.57.6,4.21,2.66,12.19-.44,15.87-3.38-1.01-5.15-8.62-5.98-11.47-1.48-5.04-3.73-9.85-5.17-14.87-1.46-5.07-1.18-10.51-2.84-15.54-.68-2.06-2.32-6.83-4.81-7.25-.56,2.2,1.74,11.41-1.3,12.3-2.74.8-5.06-6.75-6.74-8.13-1.68,1-1.16,5.29-1.31,7.03-.46,5.43-1.31,10.81-1.79,16.24-.13,1.48-.04,9.22-2.52,9.08-3.02-.16-3.99-10.82-4.36-12.81-1.81-9.64-3.37-22.7-9.86-30.62-4.57-5.58-3.45,3.58-7.17,2.03-1.35-.56-2.07-3.25-3.07-4.3-.75-.8-2.17-2.02-3.18-2.46-1.18-.51-2.67.46-3.46,0-1.33-.76-.83-3.41-.09-4.4,1.08-1.46,3.71-1.98,5.3-2.52,4.09-1.39,8.15-2.84,12.2-4.34,4.69-1.74,9.3-3.61,13.85-5.68,2.52-1.15,6.14-2.1,8.17-4.06,1.07-1.04,1.28-3.97,4.72-3.33Z"/>
          <path class="cls-52" d="M1026.84,238.63c-1.33,0-2.72-.35-3.93-.17-.28,3.55,1.36,6.95,2.07,10.38.45,2.18.3,13.46,3.66,13.34.79-3.02-.29-6.56.74-9.46,2.22.49,2.37,6.26,2.82,8.12.42,1.71,1.12,6.8,2.56,8.05,1.28,1.11,1.86-.43,3.3.76,1.36,1.12.99,3.53,1.67,4.95.03-3.42,5.3-.91,7.33-1-.57-1.85-1.54-6.82.32-8.21.83-.61,2.09-.14,2.87.14,1.48.54,2.37.74,3.92,1.08,1.2.26,1.75.94,3.12.79,1.56-.16,3.07-1.15,4.63-1.45,3.27-.62,6.56.8,9.77.39-.34-4.44-10.6-4.38-13.59-4.82-7.9-1.14-16.29-3.67-19.7-11.21-2.26-4.99-6.46-8.43-11.58-11.68Z"/>
          <path class="cls-35" d="M1080.71,265.75c.95,1.38,3.23.76,4.7,1.01,3.61.63,7.31,2.31,9.93,4.79,1.52,1.44,1.8,2.34,3.75,1.97.83-.16,1.29-.99,2.25-.92.64.05,1,.83,1.58.9,1.39.17,2.18-.39,3.68.52.96.57,2.34,1.47,3.17,2.17,2.2,1.84,2.76,6.16,5.56,7.15.33-3.49-1.67-6.43-1.8-9.73-.04-.88.56-2.3.15-3.19-.93-2.01-4.44-1.99-6.33-2.23-6.13-.79-12.1-2.33-18.21-3.27-2.73-.42-5.94.45-8.44.83Z"/>
          <path class="cls-7" d="M1135.4,245.05c3.92-3.35,7.43-3.85,10.45,1.01,1.57,2.52,2.16,3.5,4.77,2.11,1.16-.62,2.21-1.79,3.63-1.88,1.39-.1,2.34.92,3.72.74,1.93-.26,4.06-1.57,6.08-1.98,3.45-.69,4.85,1,7.49,3.22,2.93,2.46,4.34,2.67,7.48.62,1.27-.83,1.94-1.7,3.58-1.53,3.69.39,3.98,4.73,6.67,6.17,1.22-2.79,1.52-5.65,2.49-8.46.59-1.73,1.03-2.66,2.52-1.39.87.74,1.25,2.21,2.21,3.04.89.78,2.5,2.53,3.64,2.66,1.04-1.99-.42-3.73-1.06-5.63-.62-1.85-.85-3.63-1.04-5.53-.31-3.07-1.6-4.63-5.24-4.24-2.26.25-4.48,1.26-6.75,1.61-3.35.52-6.78.5-10.16.76-4.35.34-8.33.95-12.71.21-3.53-.6-6.98-1.67-10.54-2.08-3.05-.35-6.69.11-9.43,1.66-1.8,1.03-3.32,2.98-5.1,4.15-2.02,1.33-3.78,2.29-2.71,4.77Z"/>
          <path class="cls-39" d="M1134.04,280.15c-2.02-.46-4.18-.35-4.29,2.17-.08,1.83,1.07,4.18,1.23,6.1.07.83-.47,4.23,1.29,4.02,1.78-.21-.16-5.96,2.77-4.51,1.21.6.81,2.5,1.25,3.47.45.99.91,1.18,1.47,2.07,1.03,1.65.75,8.56,2.45,9.08,1.37.41.95-3.14,1.24-4.07,2.95,1.84,2.66,6.52,4.39,9.07.65.95,1.68,1.42,2.35,2.4.89,1.29.99,3.02,2.42,3.84.3-2.42-.96-5.26.44-7.5.68-1.09,2.02-1.35,2.61-2.43,1.2-2.16-1.13-4.79-2.32-6.37-2.24-2.98-3.99-6.54-6.48-9.3-2.47-2.73-4.91-5.77-8.36-7.23-.65-.28-1.54-.6-2.46-.82Z"/>
          <path class="cls-9" d="M1220.79,205.1c-.83-.06-2.88-.74-3.5-.38-2.66,1.54.5,6.85.97,8.6,1.33,4.85,2.14,10.21,3.13,15.17.42,2.09.37,5.63,1.96,7.18,1.48-2.71.91-6.11,1.18-9.07.14-1.55.42-3.46,1.61-1.51.54.9-.13,2.15.29,2.97.33.65.84.47,1.24.98.67.86,1.25,1.11,1.68,2.24.62,1.61.24,3.71,1.82,4.69,1.08-.85,1.2-4.41,2.66-4.7,1.87-.37,2.63,3.95,3.02,5.08.93,2.68,1.42,5.51,2.54,8.06,2.86-1.88-1.7-7.65.58-9.27,2.84-2.02,6.21,9.42,4.97,11.77-1.09-1.13-1.02-3.68-2-4.75-.1,1.76.22,8.34,3.27,7.61.41-1.1.62-3.18,1.97-3.3,1.19-.1,1.52,1.53,2.2,2.07.55.43,1.16.54,1.61.85,1.93,1.35,2.98,2.69,3.87,5.32.62,1.85.9,5.36,2.51,6.55,1.88-2.8.43-15.46,6.8-7.62,2.02,2.48,3.7,5.57,6.78,6.91.57-5.33,5.36.3,7.68,1.6.21-1.32-.57-2.35-1.25-3.42-1.75-2.76-3.41-5.62-5.26-8.33-5.81-8.48-12.83-15.66-21.63-21.12-9.8-6.09-25.66-11.4-30.7-24.2Z"/>
          <path class="cls-53" d="M1103.88,31.6c2.24,1.98,4.06,3.84,6.74,5.33,2.75,1.52,2.54,2.72,3.33,5.87,1.23,4.91.51,9,.37,13.9-.09,3.26.21,6.61.01,9.82-2.4-2.97-2.08-8.67-2.52-12.25-.21-1.74-2.15-9.01-3.93-4.12-.5,1.36.24,2.3-.64,3.42-.51.65-1.17-.16-1.66.77-1.18,2.22,1.76,5.74.39,8.16-1.06-1.22-.8-3.46-1.67-4.84-.28.38-.73.49-.87,1.22-1.84-2.12-1.74-4.37-2.52-6.84-.49-1.57-1.57-2.27-2.37-3.76-1.75-3.26.8-7.83,1.84-11.16.62-1.96,1.51-3.22,3.5-5.51Z"/>
          <path class="cls-23" d="M1090.52,60.58c2.09-.14,4.96,1.04,6.84.24.97.81.85,1.67.84,2.87-.01,2.8-.19,5.01.26,7.82.3,1.88,1.33,5.73-.21,7.26-2-1.74-.18-5.89-3.17-6.4-2.95-.5-3.09,2.21-3.71,4.13-.45,1.38-1.51,4.8-3.64,3.35-.98-.67-.58-2.54-.96-3.61-.59-1.71-2.29-2.92-2.29-4.88,0-2.68,2.57-4.99,3.89-7.15.54-.89.9-1.9,2.16-3.61Z"/>
          <path class="cls-56" d="M1156.07,106.96c2.17,1.29,5.95.28,8.44.4,1.13.05,1.98-.75,2.45,1.21.24.98-.55,2.27-.66,3.3-.31,3,.94,6,1.83,8.79,2.3,7.18,3.36,14.61,3.4,22.14.02,4.11.98,10.55-.87,14.41-3.13,6.54-4.06-10.4-4.15-11.65-.33-4.41-.97-8.81-2.13-13.09-.56-2.08-1.41-6.02-3.31-7.3-1.73,1.01-.81,3.86-2.49,4.96-3.47-2.69-3.22,5.53-3.11,7.13.11,1.66.94,3.87.17,5.47-.2.42-1.23.73-1.53,1.16-.59.85-.69,1.86-.88,2.84-.4,2.05-1.07,11.19-3.65,5.87-1.56-3.22-.97-7.76-1.73-11.22-.58-2.67-1.21-7.55-3.6-9.35-1.7,1.26-1.45,6.02-1.65,7.84-.42,3.68-.75,7.36-1.16,11.03-.34,3.06.36,14.46-3.29,15.72-1.81-1.87-1.09-5.6-1.08-8,0-4.26.35-8.65-.04-12.89-.21-2.31-.31-8.17-2.47-9.74-2.4,2.66-1.29,8.46-1.97,11.82-.33,1.63-2,5.03.32,5.93.38-.83.98-1.59,1.84-1.99-.23,4.32-.29,8.78-.65,13.16-.08.92,0,7.69-1.47,7.89-1.73.24-1.4-3.14-1.62-4.36-.62-3.46-1.73-6.81-2.3-10.27-.63-3.83-.39-7.58-.41-11.43-.01-3.26,2.27-11.46-1-13.7-.63,1.64-.58,5.09-2.86,5.19-1.47.06-3.25-2.89-4.72-2.52-1.59.39-2.63,7.04-3.26,8.46-.91,2.06-1.77,6.16-3.76,7.42-1.96-1.01-2.32-6.8-2.8-8.57-.9-3.32-2.08-6.67-4.08-9.51-1.5-2.13-2.64-3.44-5.03-3.25-.69.06-.87.75-1.74.72-.94-.05-1.73-.94-2.54-1.33-5.27-2.54-5.09.99-7.24,4.8-2.44,4.32-4.42,2.48-7.25-.11-2.41-2.2-5.18-2.42-8.19-3.26-1.46-.41-3.27-1.18-4.8-1.03-1.72.17-1.58.65-3.32.13-1.01-.31-1.91-.81-2.97-1.09-1.51-.4-3.01-.69-4.56-.65-.75-4.66,15.41-6.69,18.34-7.36,6.77-1.54,12.7-3.39,19.75-3.4,7.21-.01,14.33,1.37,21.44,2.4,9.37,1.36,21.58.68,29.66-4.94,2.07-1.44,3.86-3.24,5.35-5.24.7-.94,1.05-2.32,3.33-2.96Z"/>
          <path class="cls-48" d="M1174.03,67.41c3.55.88,8.24,2.99,10.85,5.54,1.72,1.67,4.23,10.73,7.15,9.98,3.42-.88.53-4.74,4.92-3.1,2.73,1.03,3.84-.34,5.05,3.2,2.16,6.28,3.11,12.84,3.76,19.42.18,1.81.78,10.48,3.23,5.76,2.88-5.56-.59-12.66,1.37-18.42.39-1.14,1.49-3.58,2.97-2.66,1.52.95.74,4.58,1.63,5.8,2.75-2.56,6.96-4.24,10.21-1.51,1.97,1.65,1.76,1.46,4.12,1.66,1.37.12,2.3.13,3.27,1.25,1.32,1.53,1.39,4.35,1.68,6.23.34,2.16,1.16,4.38,1.33,6.52.23,2.9.77,8.1-1.02,10.58-2.21-4.05-2.02-9.21-4.39-13.3-1.24,1.61.01,5.64.27,7.56.59,4.45.06,9.01.82,13.39.41,2.36,1.7,8.75,4.35,9.71,3.89,1.41,4.46-7.32,4.81-9.51.79-4.89,1.37-9.9,1.45-14.85.04-2.71.82-4.06,1.71-6.5,1.43-3.9,2.68-2.82,3.3.81.65,3.77.11,9.8,2.28,13.02,1.16-2.16,2.18-4.92,4.3-6.37,1.49-1.03,2.21-.84,3.01-2.6,1.02-2.22.51-2.82,2.67-3.74,1.01-.43,1.74.5,2.18-1.01,1.3.75,1.58,3.22,1.95,4.58,1.38,5.05,2.32,10.17,3.04,15.35.59,4.33,1.28,8.61,2.09,12.92.46,2.44.61,5.4,1.66,7.68,1.9-2.96,1.57-9.17,1.77-12.66.37-6.6-.68-13.04-.65-19.61,0-1.43.44-7.4,2.62-7.45,2.02-.05,2.37,7.54,3.11,8.73.12-2.41,3-18.42,6.4-10.92,2.27,5.01.97,12.78,1.47,18.19.34,3.65-.38,10.29,2.24,13.27,2.12-1.26,2.19-6.94,2.18-9.06-.02-5.03-1.21-10.08-1.63-15.09-.49-5.88-1.38-12.55.02-18.37.36-1.5.91-2.42,1.04-3.89.2-2.31-.74-4.72-.84-7.03-.1-2.24.62-4.25-1.41-4.99-2.08-.75-5.4.47-7.41.88-5.83,1.18-11.35,1.06-17.28,1.2-5.69.13-11.31,1.01-17.02.5-6.74-.61-13.6-2.1-20.21-3.54-13.58-2.96-26.51-8.2-40.41-9.8-3.47-.4-7.55-.42-10.02,2.27Z"/>
          <path class="cls-13" d="M1239.79,39.67c1.37,1.91,3.47,3.08,5.41,4.35-.98,3.12.25,7.55-.01,10.95-2.3-.78-2.98-2.9-3.93-5.06-.27-.62-.88-2.79-1.67-2.97-1.08-.25-.65.59-1.24.76.37-.11-1.77,1.01-1.41.72-.62.51-.71.25-1.32,1.1-.57.79.24,2.08-1.12,2.19-.94.07-1.4-1.29-1.82-1.89-1.46-2.07-2.41-2.71-4.97-3.16-2.94-.52-4.38.92-7.06,1.07-2.54.15-5.36-1.88-7.95-2.26-1.32-.2-2.71-.1-3.97-.44,1.09-5.41,14.11-3.65,17.71-3.91,2.47-.17,9.75-3.62,13.36-1.44Z"/>
          <path class="cls-32" d="M1251.27,12.34c-.9.92.97,4.66,1.27,5.97,1.17,5.2-.13,12.19,2.89,16.8,2.98-1.04.1-8.68,1.61-8.84,1.47-.16,1.64,2.29,2.21,3.06.73,1,1.52,1.48,2.34,2.36,6.83,7.28,2.22,18.87,7.43,26.61,2.7-3.95,1.12-10.44,1.87-14.89.65-3.85,1.81-3.07,3.56-.65.9-1.56,1.52-4.3,3.13-5.32,1.26-.8,2.56-.14,4.16-.46,2.51-.51,3.54-2.19,5.64-3.37,1.93-1.09,7.02-3.19,9.11-2.22-1.24.6-3.66.14-5.11.05-4.46-.25-8.86-.46-13.29-1.09-6.16-.86-9.62-2.46-13.98-6.84-3.75-3.76-7.12-9.16-12.84-11.18Z"/>
          <path class="cls-21" d="M1289.06,44.64c-1.04-.21-2.17-.49-3.31-.38.4,3.67,3.03,7.08,3.12,10.95.07,2.8-.61,5.14.1,7.95.33,1.3.58,4,1.29,4.87.68-1.26,1.09-2.8,1.32-4.21.21-1.27-.34-4.35.59-5.36,1.09-1.17,1.65-.02,2.82.57.56.28,1.04.68,1.61.91.11.05.46-.57.76-.43,4.14,1.97,8.18,18.77,4.13,21.13-3.69-2.05-.27-9.32-3.04-11.58-.64,1.59-.06,3.8.21,5.46.5,3.02.76,5.99.94,9.04.19,3.27.85,11.26,4.48,12.71,2.44-2.52,2.16-8.27,2.5-11.48.41-3.91.31-7.89,1.1-11.74.27-1.3.62-4.12,2.36-4.2.54-.02.8.94,1.31.99.6.06,1.12-.55,1.61-.47,4.14.68,3.61,8.96,5.49,12.3.75,1.32,1.58,2.1,2.11,3.73.89,2.77,1.29,7.51,3.38,9.58.56-1.71.37-4.43,1.86-5.64,2.47,1.27,2,6.6,2.39,8.94.81,4.91,1.68,9.76,1.98,14.74.41,7.05,1.53,14.03,2.33,21.05.6,5.3-.73,14.95,3.18,19.28,2.37-.8.75-4.6,1.41-6.27,7.49,1.63,2.16-9.67,4.23-12,3.55,1.32,3.38,9.28,3.61,12.19.5,6.59.91,13.13,2.18,19.64,1.33,6.88,2.59,13.82,4.08,20.67.77,3.55,1.66,7.05,2.19,10.65.31,2.17.19,4.61,1.04,6.64,2.54-.91,1.8-7.18,1.65-9.17-.43-5.63-1.25-10.95-.35-16.59.85-5.35.89-10.43,1.02-15.84.06-2.7,2.14-9.68-.23-11.56-1.97,1.89-1.73,6.51-2.08,9.12-.27,2.01-.28,8.17-2.47,8.83-2.43-5.15-1.55-12.04-1.73-17.55-.18-5.33-1.65-10.74-1.12-16.05.25-2.5.59-4.72.33-7.23-.28-2.73-1.24-5.58-1.06-8.34.07-1.07.46-3.58,1.96-2.69,1.49.9,1.17,6.96,1.37,8.19.55,3.45.67,9.25,2.71,12.16,3.19-3.37-.78-8.52,1.67-12.14,3.67,1.83,3.39,7.3,4.19,11.25,1.3,6.46.65,12.84,1.24,19.34.35,3.9.93,7.83,1.48,11.7.24,1.67.06,4.32,1.43,5.49.95-3.42,1.34-7.59,1.48-11.15.08-2.12-1.12-9.63,1.44-10.81,1.03,3.12.84,6.98,1.04,10.24.31,5.01.4,10.04.82,15.04.81,9.81,1.54,20.2,3.44,29.84,2.05-2,1.88-8.75,2.02-11.37.35-6.65.12-12.88,1.58-19.42,1.49-6.7-1.46-17.45,3.04-23.23,3.21,2.36.17,8.4,2.45,11.14,2.35-.94,2.08-10.62,2.32-13.01.45-4.56.8-9.07,1.39-13.61.24-1.8.29-3.58,1.13-5.23,1-1.95,2.82-2.77,4.19-4.34,1.38-1.58,8.78-13.28,7.09-14.37-1-.65-2.24.29-3.16.56-7.72,2.26-12.02,2.53-19.88-.88-16.38-7.1-26.51-20.2-34.45-35.47-3.14-6.05-6.9-12.23-12.43-16.43-4.91-3.73-11.24-6.28-16.95-8.55-5.76-2.29-11.97-3.01-17.48-5.87-1.35-.7-2.85-1.84-4.41-2.27Z"/>
          <path class="cls-44" d="M1433.52,126.83c-1.38.73-3.13.38-4.61.94-2.89,1.11-2.02,3.3-.74,6.24.88,2.04,1.96,4.05,2.28,6.27.35,2.44-.16,4.98.05,7.45.42,4.81,2.11,9.35,2.46,14.16.44,6.1.55,12.27,1.03,18.34,5.51-7.36.54-18.87,1.63-27.43.18-1.44.6-4.7,2.53-4.87,3.72-.33,2.11,8.94,3.5,11.19,3.08-2.08,5.02-6.55,8.17-8.11,4.02,2.82.77,13.23.5,17.01-.38,5.34.14,11.23.58,16.58,3.17-5.2,2.82-12.81,4.17-18.73.75-3.25,2.12-6.28,3.05-9.48.77-2.66,1.21-5.52,2.75-7.91,3.71-5.75,4.16,1.87,3.92,4.87-.23,2.93.99,17.68-2.89,17.95-1.07-1.72-.2-4.71-.87-6.79-3.14,2.64-1.03,10.71-.78,14.03.43,5.68-.51,11.32-.18,16.96,4.7-4.58,4.69-13.49,5.49-19.56.39-2.92,1.48-19.72,5.35-19.72.45,2.21-.66,5.01.24,7.26,2.38-5.01,4.58-11.1,8.71-15.08,1.51-1.45,2.98-3.16,4.28-.78,2.06,3.78-.52,9.19,1.3,13.16.21-.22.93-1.34,1.25-1.46.58-.22,1.37.02,1.88-.23,2-.96,3.39-3.69,5.29-4.39,1.51-.56,2.21.36,3.78-.62,1.96-1.22,3.26-3.02,5.4-4.14,8.04-4.22,6.49,7.98,6.31,12.92-.2,5.41-.45,10.97-.27,16.39.08,2.46,0,6,1.09,8.19,2.03-2.82,2.92-7.18,4.31-10.4,1.6-3.7,3.09-7.37,4.23-11.24.33-1.14.63-5.71,2.08-6.26,1.59-.6,1.16,1.58,1.65,2.72,1.45-1.3,3.01-6.61,5.67-6.24,3.55.49.5,12.91.18,15.03-.25,1.64-3.17,17.35-5.92,12.78-1.64-2.73,2.44-10.65-.32-12.32-2.06,3.93-2.19,11-2.05,15.4.13,3.9.89,7.81.78,11.71-.08,2.58-1.16,5.87.04,8.29,5.26-1.99,7.71-13.53,9.06-17.99,1.25-4.12,2-8.39,3.45-12.44.68-1.9,1.5-4.81,3.16-6.02,1.32,3.39.72,9.19.19,12.74-.47,3.16-1.75,6.1-.47,9.06.54,1.25,1.11,2.41,1.52,3.71.75,2.38.45,7.62,1.91,9.27,3.67-1.9,4.46-9.74,5.39-13.19.88-3.26,1.71-6.49,2.3-9.83.3-1.71,1.87-6.92.48-8.3-2.81,3.21-.81,8.98-5.24,11.51-1.89-1.39.2-8.07.58-10.03.72-3.67,1.39-7.19,1.62-10.93.27-4.29,1.39-9.81,5.74-12,.59,1.13-.2,2.61-.47,3.84-.53,2.36-.62,4.65-.72,7.06-.09,2.02-.62,4.76-.15,6.68,3.65-3.04,2.26-11.74,7.38-13.28,1.5,1.38-.31,6.76,2.23,6.94,2.65.19,4.39-5.93,6.9-5.24,2.25.61.95,11.41.87,12.82-.24,4.02-1.33,10.28.64,13.86,3.48-6.03,3.98-14.1,5.62-20.79,1.22-4.96,1.78-9.57,2.08-14.64.07-1.18.94-3.72.65-4.78-.39-1.42-1.22-1.27-2.77-1.57-4.86-.92-9.89-.49-14.77-1.26-8.77-1.38-17.37-3.11-25.9-5.57-16.66-4.8-32.87-4.47-49.98-5.28-11.26-.53-22.42-1.95-33.68-2.19-3.54-.08-6.59.26-9.95-.73-1.67-.49-3.19-1.22-4.93-1.54Z"/>
          <path class="cls-33" d="M1419.96,223.73c-1.42.92-3.75.77-4.65,2.43-.6,1.12-.51,3.5-.33,4.77.2,1.39.93,2.67.95,4.11.03,2.09-.77,4.24-.97,6.32-.1,1.08-1.92,11.75-.52,12.37,1.45.65,3.1-14.93,4.46-16.5,2.55,1.41.7,6.16.86,8.38,1.99-.19,2.78-2.54,5.27-2.19,2.13.31,3.07,1.73,3.74,3.51.77,2.05.11,2.83-.68,4.95-1,2.68-.92,6.63-2.72,8.88-1.28-2.7-.06-6.31-1.23-9.09-2.65.77-.91,8.43-.89,10.42.02,2.13-.59,3.86.72,5.71,2.91-2.5,2.64-8.57,6.29-10.93.1.33.65.85.74,1.25,2.08-1.97,2.15-5.64,4.18-7.67,2.18-2.17,4.11-1.41,4.91,1.34.51,1.75.02,8.8,2.62,8.79.8,0,1.71-1.47,2.5-1.74,1.33-.46,2.12-.21,3.45.19,1.65.5,4.55,1.47,5.65,2.83,1.46,1.81-.08,2.53,2.61,2.2,1.56-.19,2.46-.79,3.97.75,1.22,1.23,1.51,3.28,1.92,4.88.85-.76.51-1.94.83-2.99.66-2.23,1.88-2.91,4.13-3.17,1.69-.19,7.77.86,8.74-1.02.83-1.6-1.66-1.45-2.7-1.66-4.81-.95-9.32-3.42-13.4-6.03-7.77-4.99-14.55-11.21-22.35-16.18-4.3-2.74-9.34-5.64-13.17-9-2.22-1.94-2.85-4.8-4.92-5.92Z"/>
          <path class="cls-20" d="M1403.46,255.61c1.68,1.79,4.88-.03,6.03,2.19.91,1.77-.84,4.09-1.33,5.91-.56,2.08-1.09,4.48-2.35,6.18-.18-1.49-.53-7.49-2.17-7.69-1.99-.24-1.29,1.93-2.24,2.66-1.03.79-2.34-.11-3.54.6-1.56.92-1.52,2.88-3.32,3.66-1.93.84-4.1-.18-6.08.27-.57-.91.02-2.14-.04-3.21-.13-2.13-1.07-4.44-3.32-5.07-.77-.22-3.41.56-2.92-1.14.36-1.25,4.45-1.8,5.47-2.07,3.87-1.04,7.38-1.95,11.4-2.08,1.33-.04,3.51-.85,4.42-.21Z"/>
          <path class="cls-45" d="M1312.23,198.26c.77.19,2.17.37,2.66,1.09.84,1.23-.24,1.8-.48,3.16-.2,1.12.87,5.04-.71,5.71-1.81.76-2.45-3.81-3.55-4.72-1.54,1.22-2.79,1.09-4.3,1.58-.55.17-.68.89-1.51,1.06-.66.13-1.28-.21-1.89-.37-1.84-.47-4.29-.84-6.01-1.51,3.45-.21,6.19-3.11,9.3-4.22,1.35-.48,4.74-1.88,6.49-1.77Z"/>
          <path class="cls-41" d="M1533.32,279.42c-.72.59-2.06.88-2.92,1.26-.53.24-1.1.43-1.39.93-.74,1.29,0,3.86-.08,5.21-.08,1.46-.56,2.85-.81,4.29-.3,1.7-.21,3.42-.43,5.13-.15,1.09-1.07,3.64-.53,4.7.85,1.65,2.03-2.23,2.22-2.87.57-1.96.95-3.98,1.46-5.96.22-.85.45-2.48,1.34-2.89.66,1.5.23,3.4,1.05,4.91.67-.2,1.04-1.38,1.74-1.17.43.13.71,1.29.8,1.63.41,1.71.11,3.67-.22,5.36-.21,1.06-.3,3.74-1.29,4.39-1.56-1.41-.25-4.24-1.24-5.76-.83.56-.42,1.99-.36,2.82.11,1.68-.22,3.2-.27,4.85-.03.81-.1,3.98,1.36,4.01.97.02,1.57-2.31,1.78-2.85.59-1.56,1.04-3.18,1.67-4.73.45-1.11,1.06-2.15,1.54-3.24.41-.94.91-3.26,2.18-3.38.73,1.13.28,3.01.44,4.32.14,1.15.06,1.79,1.15,1.31.94-.41,1.37-1.76,2.42-2,.65-.15,1.18.27,1.79,0,1.5-.63,1.93-2.47,3.87-2.47,2.22,0,2.29,1.96,2.73,3.73.44,1.75.99,4.7,3.2,3.57.95-.49,1.62-1.06,2.74-1.11,1.09-.04,2.03.53,3.09.56,1.47.04,2.47-.61,3.94-.35.95.16,2.11.9,2.94.94-.04-1.91-2.89-3.71-4.26-4.61-3.35-2.21-6.97-4.07-10.4-6.18-3.91-2.41-7.59-5.45-11.72-7.48-1.38-.68-2.92-.94-4.32-1.6-1.36-.63-2.58-1.52-3.34-2.84-.53-.92-.68-1.35-1.88-2.43Z"/>
          <path class="cls-40" d="M1584.68,211.31c-2.05.15-4.84.28-6.65.86-.19,2.28.71,4.41.61,6.7-.11,2.71-2.38,7.47-1.08,10.08,1.96,3.93,4.76-9.77,6.72-9.73.35,1.19-.03,2.53.37,3.65,1.73-1.87,3.55-1.67,5.4-1.01.14.05.13.7.49.81.62.19,1.03-.34,1.55-.3,1.1.09,2.49-.19,3.46.81,2.04,2.09.93,7.12,1.18,9.77.14,1.4.53,2.66.7,4,2.06-.05,7.08.83,8.54,2.1.97-2.44.14-5.5,1.25-8.14.53-1.25,1.27-2.33,2.06-3.25-.68-.43-2.99-2.28-3.62-2.07-1.15.38-1.48,3.75-2.21,4.73-2.27-2.49-1.97-7.51,1.96-6.49,1.76.46,4.89,1.19,6.16,2.45,3.01,2.98.88,7.5,1.85,10.84,2.68-.73,2.91-6.3,6.07-6.16,2.37.11,1.82,3.81,2.39,5.61,2.2-2.87,3.99-3.37,7.58-3.09,1.29.1,2.53.09,3.82.4,1.47.34,3.41,1.62,4.83,1.29-3.71-6.89-13.45-7.97-19.83-11.23-6.56-3.36-12.37-6.98-19.67-8.27-4.74-.84-9.11-2.22-13.96-4.35Z"/>
          <path class="cls-43" d="M1618.08,139.05c-4.23-1.66-4.1,4.5-3.94,7.06.2,3.14-.27,5.92-.97,9-1.05,4.57-1.74,8.79-2.11,13.47-.27,3.58-.48,7.15-.49,10.74,0,1.62-.58,4.57.36,5.95,2.09-4.77,3.23-9.52,4.02-14.63.32-2.03.82-6.04,2.94-6.96,1.48,1.58.04,4.56-.23,6.37-.37,2.5.31,4.34.65,6.68.81,5.5-3.13,12.76-.65,18,2.55-4.48,4.03-10.14,5.25-15.12.8-3.25,1.45-6.16,3.77-8.65.11.76-.14,1.68.16,2.46,2.71-1.15,1.51,5.27,1.46,6.61-.13,3.28.23,8.85-1.81,11.63-.37-1.57-.64-3.21-1.04-4.75-.91,2.16-2.85,16.77-.02,16.68.98-.03,3.22-7.4,3.52-8.22,1.16-3.17,2.06-6.38,2.92-9.64.8-3.03,2.97-11.6,7.08-12.06,1.1,2.43-.42,5.32,0,7.85,4.36-.15.56,18.33,1.47,21.32.91-1.11,1.36-2.9,1.84-4.36.93-2.85,1.99-5.48,3.21-8.22,1.58-3.56,2.17-8.11,5.59-10.02,1.22-.68,1.92-1.21,3.06-2.15.79-.66,1.12-1.54,2.39-1.13,2.22.73.35,7.68,1.86,9.8,1.43-.4,1.89-2.43,2.73-3.58,1-1.36,2.23-2.38,3.61-3.35,1.05-.74,5.5-4.54,6.58-4.34,3.62.69,1.84,11.36,1.96,13.46,3.72-1.71,4.44-9.72,6.01-13.3,1.36-3.11,4.45-7.39,3.16-10.93-2.54,1.43-5.21,1.5-8.14,1.32-6-.37-11.92-.57-17.65-2.44-4.37-1.42-8.53-2.79-13.11-3.38-3.65-.47-7.75-.2-11.18-1.64-5.51-2.31-7-9.11-9.96-13.72-1.34-2.08-2.71-3.9-4.28-5.81Z"/>
          <path class="cls-14" d="M1707.64,137.6c-2.56,4.95-2.29,8.4-2.3,13.83,0,4.3-2.53,8.69-3.62,12.78-1.13,4.22-2.18,8.42-3.42,12.61-.67,2.27-1.19,8.47-3.58,9.6-1.64-2.31,1.6-9.99,2.06-12.71.4-2.34,1.82-6.6.43-8.78-1.49.6-1.51,3.12-2.51,4.3-.66-.92-.94-3.72-2.5-3.72-.71,0-.86,1.27-1.26,1.25-.71-.02-.49-.56-1.04-.83-.98-.47-1.37-1.26-2.51-1.39-.63-.07-1.86.94-2.3.07-.71-1.4,3.68-4.72,4.49-5.44,3.3-2.92,6.66-5.99,9.09-9.67,2.15-3.25,3.79-6.57,5.64-9.93.59-1.07,1.12-1.92,3.33-1.99Z"/>
          <path class="cls-26" d="M1509.52,53.34c-1.27-.51-3.42.22-4,1.23-1.3,2.27-.09,6.13-.16,8.67-.11,3.77-.79,7.47-1.12,11.22-.24,2.78-.5,5.53-.83,8.28-.09.74-.64,3.07.07,3.64,2.17,1.75,3.75-11.73,4.95-12.95.29.69.36,1.48.25,2.24.14-.39.46-.65.64-1,2.06,1.04.13,9.24.54,11.49.8,4.43,2.17.82,4.68.51,1.07,2.48.22,5.83,1.73,8.08,3.18-2.4,3.62-10.5,8.52-11.06,1.59-.18,2,.55,3.65-.24,1.1-.53,1.86-1.39,3.05-1.8,1.54-.55,3.32-.03,4.72-.75-.86-1.56-3.51-2.03-5.06-2.5-3.25-.97-7.5-1.44-10.45-3.14-3.84-2.21-4.39-8.41-5.94-12.2-1.42-3.47-3.11-6.38-5.22-9.72Z"/>
          <path class="cls-51" d="M1608.79,66.72c.11.16.21.36.28.59.61,1.86-1.04,6.29-1.84,7.95-2.16,4.47-1.63,9.71-3.62,14.12-.88-1.2.25-3.11-.4-4.56-3.59,2.37-.46,9.78-5.34,11.56-.85-1.27-2.39.62-3.39,1.19-.2-2.72,3.13-5.54,1.43-8.26-.71-1.13-.84-.95-1.94-1.08-.19-.02-1.07.5-1.56.48-.8-.03-1.33-.9-2.2-.82-2.34.21-2.78,3.54-4.43,4.52-2.75,1.64-2.12-2.31-2.62-3.97-.64-2.11-2.61-2.39-3.47-4.05,2.91-1.46,7-.58,10.22-1.23,4.54-.92,8.49-2.26,10.55-6.75,1.36-2.98,1.61-7.26,4.31-9.48,1.23-1.01,3.15-1.54,4.04-.21Z"/>
          <path class="cls-55" d="M1728.93,144.22c-1.38.59-2.78-.52-3.92.82-.62.74-.33,1.08-.46,2.07-.46,3.34-.37,6.58-1.25,9.92-1.61,6.08-2,11.67-2.35,17.93-.19,3.36-.68,6.35-1.43,9.59-.35,1.52-.75,3.22-.58,4.79,4.02-1.65,3.76-10.66,4.25-14.09.49-3.44,1.91-9.03,4.93-11.22.86,3.16-2.43,6.95-1.5,10.01,2.42-3.05,2.27,3.42,2.17,4.62-.25,2.98.35,11.54-2.38,13.21-.7-2.03.35-4.32-.22-6.45-1.97,1.13-2.49,17.19,1.7,10.63,1.57-2.46,1.94-5.74,3.13-8.42,1.53-3.43,2.34-6.66,3.35-10.27.82-2.97,1.62-5.85,2.28-8.85.39-1.77,1.13-5.44,3.08-6.08,1.03,2.74-1.94,6.54-.54,9.05,2.22-1.97,3.98-4.57,6.92-5.56,1.89-.63,4.27-.83,6.2-.98.95,1.97.5,4.86.91,7.02.47,2.53,1.18,5.04.93,7.63-.22,2.32-.51,9.67,2.97,5.49,2.24-2.7,1.88-6.28,2.66-9.48.44-1.8.61-6.02,2.57-6.81,1.05-.42,1.03.93,2.46.09,1.85-1.1,2.01-4.7,3.58-6.16,3.65-3.36,2.09,4.99,2.91,6.72,1.93-1.84,2.66-4.67,4.91-6.41,1.42-1.1,3.33-2.74,5.04-3.3,3.01-.98,2.37,1.51,4.47,2.49,1.32-1.17,2.52-3.74,3.99-4.46,1.67-.82,3.37.69,4.8.36.76-.17,4.77-5.14,4.75-5.84-1.17-.48-2.57-.06-3.78-.02-2.76.08-5.55-.14-8.31-.16-6.22-.04-12.19-1.31-18.35-1.81-7.61-.61-14.67.6-22.16.98-6.25.32-12.85-.4-17.71-7.06Z"/>
          <path class="cls-1" d="M1804.72,168.03c-1.31.11-4.76-.35-5.8.28-.21.73.22,8.38-.25,11.89-.54,3.98-.35,7.96-.6,11.97-.06.92-1,5.92.16,6.57,2.23,1.27,4.12-15.19,6.04-17.44.3,3.98-.91,8.07-.61,12,.23-.18.64-.28.86-.43,2.34,3-3.42,9.58-.43,12.87,2.25-2.21,3.75-6.32,4.78-9.26.49-1.42.61-3.04,1.29-4.38.31-.63.67,0,.84-.35,1.06-2.23,1.19-5.67,1.71-8.14.24-1.12.47-2.02.91-3.05.78-1.85,1.43-1.32-.25-3.18-2.73-3.03-5.98-5.5-8.65-9.35Z"/>
          <path class="cls-42" d="M1827.88,188.77c-.06-.02-.12-.04-.18-.06-2.5-.78-4.14.26-4.25,2.95-.09,2.22.3,4.3-.18,6.51-.56,2.54-1.47,5.16-2.26,7.65-1,3.15-3.39,8.11-2.05,11.48,2.53-1.37,4.52-7.51,5.62-10.15.88-2.12,1.64-6.64,4.13-7.46.87,1.73-.57,4.5-.79,6.38.45-1.07,1.58-3.11,3.11-2.87,2.2.34,1,3.23.53,4.59-.96,2.78-2.02,5.5-2.73,8.36-.33,1.31-.25,3.85-1.57,4.46-1.42-1.56.33-5.78.38-7.76-1.77,2.3-1.37,7.27-1.59,10.07-.15,1.9-.34,2.55,1.56,3.08,1.08-1.97,1.71-3.75,3.19-5.48,1.36-1.58,2.94-3.22,3.81-5.14,1.4-3.04.7-8.96,3.88-10.89.17.22.03.24.24.43,3.16-2.73,3.01-7.64,5.42-10.75-2.86-1.23-5.95-1.5-9.02-2.54-2.46-.83-4.83-2.07-7.25-2.85Z"/>
          <path class="cls-18" d="M1856.28,195.16c3.17-2.08,7.33.59,6.76,4.23-.75,4.79-2.72,10.76-.88,15.59,5.03-4.09,2.42-14.91,8.28-17.98.69.71.74,1.96,1.32,2.84,2.34-1.04,5.3-4.95,4.84.4-.13,1.45-.71,11.36-2.6,11.58-1.61.19-.85-4.48-1.23-5.41-1.75,2.16-1.34,7.43-1.48,10.19-.08,1.55.27,9.32,3.04,5.7,1.51-1.97,2.07-5.62,3.22-7.93.91-1.83,1.87-3.63,2.66-5.52.86-2.06,1.51-3.9,2.61-5.81.81-1.39,1.45-4.12,2.84-4.76.47,1.78.13,3.65.28,5.47,2.8-4.42,4.4-9.48,7.69-13.76.75-.97,2.44-4.69,3.79-4.82,2.61-.25,1.44,3.33,4.8,1.49,4.11-2.25,7.32-5.99,11.64-8.06,2.19-1.05,7.63-2.17,7.97-5.06-1.13-.72-2.49-.16-3.77.07-3.12.56-6.26.95-9.41,1.3-7.65.86-15.29,1.59-22.98,1.97-8.04.39-15.95,1.76-23.62,4.15-2.1.65-5.23.6-6.52,2.59-.85,1.31-1.1,4.32-1.17,5.87-.09,1.99.04,3.87,1.89,5.67Z"/>
          <path class="cls-50" d="M1900.75,207.99c-2.77,2.54-6.28-.45-6.9,4.25-.27,2.06-3.24,15.9.78,14.42,3.91-1.45,2.09-9.22,5.89-10.62,4.28,3.11-3.65,12.38,1.1,15.71,2.35-2.23,2.65-7.16,5.61-8.64,1.51,1.77,2.61-2.28,4.6-1.38,1.12.5.82,2.36,1.43,3.09,1.45,1.74,1.75-.15,3.88-.43,2.38-.31,2.89,1.62,4.47,3.06,3.21,2.92,6.86.62,10.78,1.06,2.42.27,4.32-.79,6.77-1.51-3.19-2.54-7.68-4.02-11.45-5.63-5.39-2.31-10.52-4.82-15.45-7.99-3.3-2.12-7.3-2.53-11.51-5.38Z"/>
          <path class="cls-59" d="M1670.11,259.54c.83,1.3.28,2.52-.03,3.93-.67,2.96-2.19,6.45-2.09,9.5.07,2.16,1.76,2.17,2.57.22.99-2.4.62-5.37,3.17-6.9.13.48.36,1.06.56,1.43,1.49-1.52,2.39-1.72,4.45-1.47,2,.23,2.84.66,2.52,2.87-.45,3.16-1.96,6.12-1.87,9.36,1.91-1.56,4.22,1.33,5.69-.9,1.6-2.41.46-7.73,3.05-9.61,1.67-1.21,2.28,1.22,2.99,2.46,1.27-.93,1.71-2.6,3.63-2.51,1.31.06,1.79.95,3.07.66,1.36-.31,2.67-1.39,4.06-1.77,1.47-.4,3.17-.45,4.7-.4-4.76-2.2-9.8-2.38-14.9-3.26-4.47-.77-8.72-2.43-13.14-3.24-2.77-.51-5.45-.32-8.42-.34Z"/>
          <path class="cls-25" d="M308.52,207.68c2.08.91,4.24-1.82,5.47.54.54,1.03.27,2.41.54,3.51.29,1.17,1.1,1.92,1.59,2.95.34.73.49,1.52.65,2.3-2.47.15-3.25-2.36-4.81-3.68-.61.71-.09,1.74-.59,2.44-.6.85-1.15.37-1.86,1.08-.72.72-.11,3.9-1.44,4.08-.71.1-1.47-1.37-1.88-1.72-1.08-.91-2.55-1.48-4.01-1.4-2.37.12-5.61,2.9-7.89,2.11,2.34-5.99,9.8-7.6,14.24-12.2Z"/>
        </g>
      </g>
    </g>
  </g>
</svg>