<?xml version="1.0" encoding="UTF-8"?>
<svg id="Layer_2" data-name="Layer 2" xmlns="http://www.w3.org/2000/svg" xmlns:xlink="http://www.w3.org/1999/xlink" viewBox="0 0 711.91 366.56">
  <defs>
    <style>
      .cls-1 {
        fill: url(#_횁책챌청챙첼챠챠청챕_찾챨횪채챔책챠챵_13-53);
      }

      .cls-2 {
        fill: url(#_횁책챌청챙첼챠챠청챕_찾챨횪채챔책챠챵_13-27);
      }

      .cls-3 {
        fill: url(#_횁책챌청챙첼챠챠청챕_찾챨횪채챔책챠챵_13-61);
      }

      .cls-4 {
        fill: url(#_횁책챌청챙첼챠챠청챕_찾챨횪채챔책챠챵_13-14);
      }

      .cls-5 {
        fill: url(#_횁책챌청챙첼챠챠청챕_찾챨횪채챔책챠챵_13-9);
      }

      .cls-6 {
        fill: url(#_횁책챌청챙첼챠챠청챕_찾챨횪채챔책챠챵_13-20);
      }

      .cls-7 {
        fill: url(#_횁책챌청챙첼챠챠청챕_찾챨횪채챔책챠챵_13-15);
      }

      .cls-8 {
        fill: url(#_횁책챌청챙첼챠챠청챕_찾챨횪채챔책챠챵_13-32);
      }

      .cls-9 {
        fill: url(#_횁책챌청챙첼챠챠청챕_찾챨횪채챔책챠챵_13-28);
      }

      .cls-10 {
        fill: url(#_횁책챌청챙첼챠챠청챕_찾챨횪채챔책챠챵_13-34);
      }

      .cls-11 {
        fill: url(#_횁책챌청챙첼챠챠청챕_찾챨횪채챔책챠챵_13-25);
      }

      .cls-12 {
        fill: url(#_횁책챌청챙첼챠챠청챕_찾챨횪채챔책챠챵_13-62);
      }

      .cls-13 {
        fill: url(#_횁책챌청챙첼챠챠청챕_찾챨횪채챔책챠챵_13-18);
      }

      .cls-14 {
        fill: url(#_횁책챌청챙첼챠챠청챕_찾챨횪채챔책챠챵_13-17);
      }

      .cls-15 {
        fill: url(#_횁책챌청챙첼챠챠청챕_찾챨횪채챔책챠챵_13-39);
      }

      .cls-16 {
        fill: url(#_횁책챌청챙첼챠챠청챕_찾챨횪채챔책챠챵_13-49);
      }

      .cls-17 {
        fill: url(#_횁책챌청챙첼챠챠청챕_찾챨횪채챔책챠챵_13-63);
      }

      .cls-18 {
        fill: url(#_횁책챌청챙첼챠챠청챕_찾챨횪채챔책챠챵_13-22);
      }

      .cls-19 {
        fill: url(#_횁책챌청챙첼챠챠청챕_찾챨횪채챔책챠챵_13-6);
      }

      .cls-20 {
        fill: url(#_횁책챌청챙첼챠챠청챕_찾챨횪채챔책챠챵_13);
      }

      .cls-21 {
        fill: url(#_횁책챌청챙첼챠챠청챕_찾챨횪채챔책챠챵_13-55);
      }

      .cls-22 {
        fill: url(#_횁책챌청챙첼챠챠청챕_찾챨횪채챔책챠챵_13-21);
      }

      .cls-23 {
        fill: url(#_횁책챌청챙첼챠챠청챕_찾챨횪채챔책챠챵_13-44);
      }

      .cls-24 {
        fill: url(#_횁책챌청챙첼챠챠청챕_찾챨횪채챔책챠챵_13-41);
      }

      .cls-25 {
        fill: url(#_횁책챌청챙첼챠챠청챕_찾챨횪채챔책챠챵_13-23);
      }

      .cls-26 {
        fill: url(#_횁책챌청챙첼챠챠청챕_찾챨횪채챔책챠챵_13-36);
      }

      .cls-27 {
        fill: url(#_횁책챌청챙첼챠챠청챕_찾챨횪채챔책챠챵_13-11);
      }

      .cls-28 {
        fill: url(#_횁책챌청챙첼챠챠청챕_찾챨횪채챔책챠챵_13-58);
      }

      .cls-29 {
        fill: url(#_횁책챌청챙첼챠챠청챕_찾챨횪채챔책챠챵_13-50);
      }

      .cls-30 {
        fill: url(#_횁책챌청챙첼챠챠청챕_찾챨횪채챔책챠챵_13-10);
      }

      .cls-31 {
        fill: url(#_횁책챌청챙첼챠챠청챕_찾챨횪채챔책챠챵_13-2);
      }

      .cls-32 {
        fill: url(#_횁책챌청챙첼챠챠청챕_찾챨횪채챔책챠챵_13-16);
      }

      .cls-33 {
        fill: url(#_횁책챌청챙첼챠챠청챕_찾챨횪채챔책챠챵_13-13);
      }

      .cls-34 {
        fill: url(#_횁책챌청챙첼챠챠청챕_찾챨횪채챔책챠챵_13-12);
      }

      .cls-35 {
        fill: url(#_횁책챌청챙첼챠챠청챕_찾챨횪채챔책챠챵_13-40);
      }

      .cls-36 {
        fill: url(#_횁책챌청챙첼챠챠청챕_찾챨횪채챔책챠챵_13-43);
      }

      .cls-37 {
        fill: url(#_횁책챌청챙첼챠챠청챕_찾챨횪채챔책챠챵_13-29);
      }

      .cls-38 {
        fill: url(#_횁책챌청챙첼챠챠청챕_찾챨횪채챔책챠챵_13-31);
      }

      .cls-39 {
        fill: url(#_횁책챌청챙첼챠챠청챕_찾챨횪채챔책챠챵_13-26);
      }

      .cls-40 {
        fill: url(#_횁책챌청챙첼챠챠청챕_찾챨횪채챔책챠챵_13-3);
      }

      .cls-41 {
        fill: url(#_횁책챌청챙첼챠챠청챕_찾챨횪채챔책챠챵_13-7);
      }

      .cls-42 {
        fill: url(#_횁책챌청챙첼챠챠청챕_찾챨횪채챔책챠챵_13-33);
      }

      .cls-43 {
        fill: url(#_횁책챌청챙첼챠챠청챕_찾챨횪채챔책챠챵_13-47);
      }

      .cls-44 {
        fill: url(#_횁책챌청챙첼챠챠청챕_찾챨횪채챔책챠챵_13-59);
      }

      .cls-45 {
        fill: url(#_횁책챌청챙첼챠챠청챕_찾챨횪채챔책챠챵_13-46);
      }

      .cls-46 {
        fill: url(#_횁책챌청챙첼챠챠청챕_찾챨횪채챔책챠챵_13-54);
      }

      .cls-47 {
        fill: url(#_횁책챌청챙첼챠챠청챕_찾챨횪채챔책챠챵_13-48);
      }

      .cls-48 {
        fill: url(#_횁책챌청챙첼챠챠청챕_찾챨횪채챔책챠챵_13-42);
      }

      .cls-49 {
        fill: url(#_횁책챌청챙첼챠챠청챕_찾챨횪채챔책챠챵_13-45);
      }

      .cls-50 {
        fill: url(#_횁책챌청챙첼챠챠청챕_찾챨횪채챔책챠챵_13-19);
      }

      .cls-51 {
        fill: url(#_횁책챌청챙첼챠챠청챕_찾챨횪채챔책챠챵_13-8);
      }

      .cls-52 {
        fill: url(#_횁책챌청챙첼챠챠청챕_찾챨횪채챔책챠챵_13-38);
      }

      .cls-53 {
        fill: url(#_횁책챌청챙첼챠챠청챕_찾챨횪채챔책챠챵_13-24);
      }

      .cls-54 {
        fill: url(#_횁책챌청챙첼챠챠청챕_찾챨횪채챔책챠챵_13-56);
      }

      .cls-55 {
        fill: url(#_횁책챌청챙첼챠챠청챕_찾챨횪채챔책챠챵_13-60);
      }

      .cls-56 {
        fill: url(#_횁책챌청챙첼챠챠청챕_찾챨횪채챔책챠챵_13-51);
      }

      .cls-57 {
        fill: url(#_횁책챌청챙첼챠챠청챕_찾챨횪채챔책챠챵_13-30);
      }

      .cls-58 {
        fill: url(#_횁책챌청챙첼챠챠청챕_찾챨횪채챔책챠챵_13-35);
      }

      .cls-59 {
        clip-path: url(#clippath);
      }

      .cls-60 {
        fill: url(#_횁책챌청챙첼챠챠청챕_찾챨횪채챔책챠챵_13-52);
      }

      .cls-61 {
        fill: url(#_횁책챌청챙첼챠챠청챕_찾챨횪채챔책챠챵_13-37);
      }

      .cls-62 {
        fill: url(#_횁책챌청챙첼챠챠청챕_찾챨횪채챔책챠챵_13-5);
      }

      .cls-63 {
        fill: url(#_횁책챌청챙첼챠챠청챕_찾챨횪채챔책챠챵_13-4);
      }

      .cls-64 {
        fill: url(#_횁책챌청챙첼챠챠청챕_찾챨횪채챔책챠챵_13-57);
      }
    </style>
    <clipPath id="clippath">
      <path d="M666.1,172.42l-13.94-2.58-12.47.96-36.37-5.42-2.45-8.88-14.07-4.26-14.73-13.51-8-4.72-2.12-2.46-.13-.16,7.07-8.28,17.53-8.24,25.83-1.43,12.85,4.3,13.5-.08,18.5-1.38,14.74-1.15-35.66-2.71-17.15-.18-14.79-4.29,32.98-11.19,9.79-6.65,13.72-6.49,29.48-1.34,21.71-5.45-37.45,3.29-15.68-.24-13.51,3.32-8.05,4.58-12.93,3.92-14.33,5.09-15.42,1.19-21.88-2.75-7.31-8.9-5.35-13.65-7.89-6.52-6.97-7.74-9.9-10.92,25.17-9.71,20.25-1.94,13.97.31,31.86,1.15,25.73-.34,5.21.46-14.22-4.13-17.17.05-27.83-1.21-21.16-2.16-16.45.98-15.69-2.7-1.99,4.42-6.03,1.93-15.89,1.67-11.48-1.54,8.08,8.2-17.09,3.84-16.61,1.01-14.08-8.02-7.2-7.89-4.36-4.35,39.46,5.9-19.2-5.95-14.08-3.96-12.59-1.25-1.98-5.61-3.74-2.17-1.11-5.66,16.76-2.63-32.5-.62-17.51,1.27,25.49,5.21,1.59,4.96,5.96,5.13-16.75,6.28-22.22,4.79-12.87-2.03-10.67-4.73-1.57-10.37,4.24-2.74-5.11-6.74-7.7-6.62,5.2,7.75,2.49,3.03-8.38,6.91-18.96,2.22-28.5-3.13.41,4.7-4.77,2.55-4.13,4.47-15,6.97-18.52-2.12-13.52,1.55-14.84-1.13-18.5.97-1.41-.47-3.93-.62.07-.04-1.79-.24-2.1-.34-.08.05-52.59-6.94-20.01-11.09-40.46-8.27,32.45,10.44,6.71,5.66,40.02,13.49,10.15,6.95-14.52,4.99-15.34,4.63-23.95-.47-14.56-2.61,3.19,3.4,5.46,3.55,13.43,6.61,10.32,11.64,11.4,6.78-3.17,5.27-5.05,5.98-4.62,8.02-13.24,5-4.94,2.94-7.23,2.41-27.84,6.71-22.92-7.64-8.21-6.34-11.23-4.64-14.08-6.65-17.29-3.82-20.65-8.07-10.94-4.61,17.6,11.45,28.86,8.14,34.93,23.6-19.57-2.1-11.37-3.32-9.46-.69,17.59,8.11,14.02,3.26,13.59,3.65,29.8,4.91,31.11,11.96,13.73,11.18-14.04,4.28-12.24,4.28-6.77,2.38-12.12-5.25-6.24-6.25-6.99-3.26-8.65-5.26,4.45-2.88.14-2.53-1.26-5.51-2.19,7.12-6.96,2.39-19.03.3-8.88-.51-14.12-3.91-26.16-3.79,25.2,7.26,9.46,4.26,15.11,1.62,30.01,5.49,6.14,6.29,7.45,7.25.1,12.11-7.3,3.87-2.69,2.61-6.29,2.91-25.76-1.71-24.04-6.4-4.32-5.93-14.4-3.15-15.44-1.9-19.21-5.95,4.32,4.25,7.34,2.12,19.52,3.98,8.52,2.87,6.14,5.82,1.5,7.13-20.49,1.21,12.43,1.88,16.05-1.43,8.85-.6,9.38,2.05,9.74,2.95,10.57,1.3,16.52,4.82-2.4,6.67-7.84,5.79-17.55-2.08-10.57-.59-8.92-1.43-13.41-3.12-8.73.17,18.56,4.64,10.46,1.69,16.9,2.44,12.32,3.36,12.1,5.08,4.57,7.74,3.27,8.95-3.88,5.81-5.88,4.03-4.74,1.91-6.76-1.43-7.44-2.56-9.13-.15-15.13-2.37-5.23-8.2,1.63,5.35-2.48,2.7-2.06,1.58-3.42.17-8.25.79-6.54-1.96-7.34,1.48-15.89-2.05,11.71,4.41,13.61-.48,11.16,1.07,7.17-.84,8.44,1.44,17.93,1.06,9.04,2.4,7.81,2.87-.27,4.1-3.81,2-14.06,3.14-7.02,1.91-7.02,2.45-6.94,1.81,17.26-2.5,18.73-1.08,22.04-4.85,7.53-6.17,7.04-1.32,7.52-2.13,14.57-.14,13.16,4.17,7.76,1.38,11.85,1.48,19.31,5.72,27.93,2.61,21.81,6.5,7.55,7.61-4.09,2.61-4.73,1-5.21,1.71-8.52,3.2-8.52,2.41-14.77,3.42-7.21,2.84-9.76,1.51-23.27,4.46,5.04-.12,10.75-.72,10.02-.62,9.56-2.28,6.74-1.45,6.66-1.16,9-3.25,11.35-.55,14.28-4.53,22.73.42,5.92,4.3,3.81,4.09-5.95,5.25,7.1,8.36-6.03,4.53-7.54,5.18-12.55,4.98-18.73,5.01-7.41-1.92-20.48,1.63-13.5-.67-16.01.94-17.83,2.1,22.45,1.25,16.46.66,10.62,4.79.62,3.57-10.41.54-11.68,2.67-6.94,4.89-8.79,2.38-15.97,2.37-14.11,2.59,15.26-.15,16.9-.29,11.59-3.88,16.09-5.86,19.13.28,8.9-.76-3.28-4.47,7.64-4.58,37.41-7.66,17.69-6.89,12.25-7.79,21.66,2.12,21.91.51,25.14,3.48,21.93,9.22,26.84,5.09,17.8,2.13,11.97,3.08,12.32,2.42,9.6,4.06,18.09,3.28-19.16-8.2-2.32-3.92,5.72-1.2-12.04-2.16-23.28-3.71-20.32-4.62-8.36-3.01-13-2.88.39-7.28,9.12-5.74,19.88-8.42,10.07-5.54,11.45-.54,11.19-1.3,17.83-1.94,4.28.23,5.12-2.04,19.85-4.94,20.79.51,14.86-3.43,12.17-4.09,17.45-.47,25.1-1.2,5.07-1.65-13.92-.95-21.02-.7-7.93,1.13-7.3-3.2-7.58-5.57-2.05-4.99-3.76-5.74,23.15-3.77,29.63-6.67,20.73-2.14,17.5-.66,28.9,3.07-14.53-4.3-14.44-3.67-10.32-5.36-.08,5.7-16.46,1.77-41.79,8.04-28.5,1.58-19.12.03-22.31-6.92-14.65-8.04-7.03-4.37-1.37-2.81,2.35-2.87,8.68-9.4,18.71-1.79,19.22.43,11.98-.92,20.01,4.12,23.03-3.52,23.94,7.4,16.67,6.97-8-8.17,14.14-4.89-13.1-.7-12.44-1.18-31.55-12.03-7.64-5.04,1.42-14.22,7.53-7.35,10.69-6.32,8.95-2.63,33.28,3.45,14.64-2.2,33.56.96,14.92-1.66-14.32-.3-16.52.42ZM563.51,97.4l11.74,1.08,14.06,2.62,6.13,2.37-11.94,4.77-8.23,6.19-11.01,4.38-7.19,5.38-8.03,4.97-3.9,1.05-12.39-.09-23.17.47-28.31-.45-22.47-4.16-5.01-7.1-.81-1.26,1.48-1.51,5.98-1.65,16.41-2.06,19.25-2.8,21.82-2.83,19.63-2.17,11.8-4.23,14.14-2.94ZM317.46,112.83l8.86,4.82,4.01,12.34-8.01,1.64-21.11.26-40.75-8.48-6.18-3.69,1.63-.95,16.32-10.33,11.9-1.36,13.36-2.32,10.19,2.99-.48.24,10.25,4.84ZM312.46,180.05l.72-.94,23.86-2.81,21.88-.58,14.81.51,21.88,8.09,11.92,5.35-1.34,5.36-11.04,8.38-12.63,3.2-9.03-1.79-8.7-2.82-27.15-5.41-18.31-3.58-7.44-2.17-.52-.33-.17-3.21,1.28-7.27ZM399.81,178.17l-13.44-19.98,41.52-6.88,16.94,13.04,6.15,7.62.12.78-.46,1.15-7.1,7.61-43.73-3.34ZM427.1,132.82l-6.31,2.63-11.93,7.42-9.76,1.7-9.16,1.9-7.21.46-16.08-3.67-29.72-7.77,1.96-11.51,3.55-4.62,11.43-5.04,7.83-4.84,8.26,1.96,9.83,2.55,23.56.11,14.47-1.19.77.03.33.16,4.28,6.68,8.49,11.43-4.58,1.59ZM422.07,108.71l-3.06,1.22-11.97.17-23.91,1.73-14.93-5.3,5.37-3.79,16.06-8.41,11.89-7.22,4.58-1.12,7.19,2.27,15.67,11.58-6.89,8.86ZM386.29,89.62l-19.61,9.09-6.16,1.74-11.55-3.92-14.38-10.4-6.69-5.92-4.94-5.26,10.74-1.1,24.38-3.57,4.77-.52,15.49,5.29,14.24,4.38,2.68,5.79-8.99,4.39ZM329.05,90.76l-1.34.29-8.94.53-15.56,2.86-18.48-8.93,13.8-6.91,6.03-2.49,5.67-1.17,2.6.95,5.82,3.78,10.4,11.07ZM291.9,75.8l-13.77,6.37-15.5.29-17.85-2.56-18.75-2.41-8.14-2.66-3.1-9.88-1.74-5.48,12.11.69,23.66,4.79,29,2.25,17.55,1.28,4.95.96-8.42,6.38ZM213.11,78.17l4.99,3.42,11.09.82,14.76.59,16.79,3.3,8.25.02,5.1,1.55,13.66,7.28,8.96,3.67-14.12,3.7-17.79,5.19-16.64,6.44-8.31,5.84-1.58.82-1.1.15-14.39-1.5-12.97-6.09-4.91-2.48-7.89-1.81-10.57-3.93-5.98-4.19,1.24-4.51,2.27-6.91,4.49-5.26,14.25-4.73,10.4-1.39ZM231.39,140.64l.23-.41,5.09-5.37,5.62,2.55,6.74,5.97,6.38,7.34,3.92,8.84-1.2,1.56-3.1.04-20.84-1.18-16.03-.6-12.59-2.76-5.41-4.16,6.74-4.27,18.8-3.61,5.66-3.95ZM227.93,193.52l12.75-.71,15.64-.06,12.37.08,12.36,2.14,13.5,1.51,6.18,2.86,1.01,7-10.07,4.59-11.02,3.86-6.02,3.69-3.12.79-8.03-3.38-16.9-6.84-8.96-2.92-8.59-2.26-3.98-6.29,2.89-4.06ZM285.62,216.95l8.37-1.9,7.21-2.84,11.28-3.69-2.98-5.15-.82-3.8.03-.52,5.13-2.17,16.3,2.56,17,4.24,21.29,3.63,9.35,4.34-4.08,4.54-9.94,3.22-18.94,3.35-18.5,4.25-17.34,8.49-10.7,1.38-1.04-.18-1.15-.7-5.97-5.29-7.39-5.03-5.61-3.63,8.5-5.09ZM313.92,239.01l13.03-6.87,18.04-5.4,23.45-3.8,29,4.76,27.87,6.98-9.98,11.37-14.94,4.65-5.65-.31-6.63-1.89-2.58,5.67-11.85,4.51-10.61,1.51-8.3,1.64-7.49,1.6-18.87,3.17-8.46-4.18-6.01-9.28-6.41-6.91,6.38-7.2ZM418.45,228.86l-26.92-5.77-4.29-3.91-.58-5.32,13.28-7.86,17.95-11.05,7.83-5.28,14.8,5.82,9.5,8.05,9.19,3.9.84,6.43-10.33,10.65-15.47,9.44-1.02-.35-6.21-3.12-8.57-1.63ZM450.88,153.39l-6.15-13.02,7.04-3.16,5.75-4.26,13.43-.13,30.8.86,24.8,1.44-1.05,2-4.61,4.77-10.48,6.17-7.18,4.23-1.81.57-9.17.74-23.55.05-17.83-.26ZM494.26,56.6l22.48-5.45,8.88-.48,10.83,8.21,9.09,6.67,6.19,7.03,6.14,6.78.02,3.64,1.22,4.93-4.72,4.11-25.53-5.33-24-7.79-9.11-4.48-2.99-7.39,1.5-10.45ZM397.83,37.76l3.69-.99,13.09-.88,33.45-4.86,13.41,9.8,2.95,8.85,10.18,13.41,4.05,10.16-12.82,8.01-23.12,3.96-24.76-1.81-9.47-4.78-14.77-4.17-11.85-5.26-5.72-5.08-1.78-.96.06-.34,7.77-7.07,10.72-14.62,4.93-3.39ZM175.29,70.99l-.43-2.06-3.11-4.84-1.77-4.4,11-2.97,15.19-2.92,8.67,6.13,2.21,7.18,3.96,5.38.17,1.26-4.12,1.75-11.3,2.41-8.78,1.76-5.83-3.16-5.85-5.51ZM160.64,139.04l-17.01-5.89-11.27-6,3.62-7.66,3.38-4.09,8.28-1.17,9.29-2.06,7.72-3.88,21.42,2.38,22.28,7.07,10.46,2.86,6.48,3.59-.64,9.07-4.04,7.67-11.82,3.68-11.61,2.24-19.16-.43-17.37-7.4ZM118.77,189.95l12.75-10.96,8.36-6.07,11.67-3.88,11.53-2.84,8.7-.63,18.22,1.78,10.86,1.05.42.48,2.72,7.6-.04,4.64,3.15,3.96-3.52,4.54,4.91,6.29-.61,5.07-4.92,2.65-5.74,2.97-8.7.04-15.68.33-15.24,1.79-16.74-2.58-17.31.09-10.18-6.68,5.39-9.63ZM156.15,253.14l-16.47-3.34-6.7-6.84-2.28-4.84-7.21-6.28-6.45-5.97-1.19-6.6,6.81-5.77,7-1.78,19.93.82,13.21,6.12,9.03,5.34,8.65,6.03,6.39,9.99-.46,2.73-.67,1.36-.85.76-9.08,4.5-19.66,3.77ZM289.67,280.82l-3.71-1.06-14.35.02-20.53-5.33-25.27-5.4-34.78-7.18-15.35-3.75-3.42-1.09,5.53-3.56,11.39-8.02,9.32,2.36,20.48-1.37,9.88.19,10.25-.66,7.16,2.11,11.77,2.41,18.74,1.54,16.98-.38,5.19.83,1.62,2.48,3.78,4.15,4.52,5.54.61,4.54-8.4,5.01-11.4,6.61ZM427.84,307.54l-9.92,4.58-17.35,10.65-14.49-.84-17.29-3.88-21.08.08-16.85-5.77-7.93-7.6-8.67-10.7-5.46-7.95,12.2-5.44,16.64-6.93,5.33-.84,32.2-4.29,17.26,2.35,8.7,6.5,10.87,4.31,15.76,6.98,13.11,4.72.32,8.29-13.36,5.78ZM477.39,294.46l-9.57,1.28-9.16-1.15-4.53-.41-6.28-2.14-7.97-2.83-21.57-7.75-15.89-10.91-.68-9.56,14.3-6.08,5.22-1.84,16.37,4.79,18.63,7.41,18.54,9.5,14.51,11.22,1.27,6.07-13.18,2.39ZM512.47,254.29l25.62,8.11,8.71,7.92-.87,5.75-4.94,6.56-2.43,3.44-23.53,2.19-11.28,1.26-9.7-4.99-12.63-12.14-36.35-26.36,6.51-1.11,18.33-5.37,15.35,2.17,27.21,12.57ZM547.68,205.64l-4.78,5.15-14.24,1.1-25.26-7.55-31.43-8.79-9.87-10.73-1.15-15.85,1.66-2.98,4.84-5.95,7.83-1.28,9.96-1.78,15.06,2.4,2.98,1.19,8.8,5.41,19.58,11.87,15.58,8.14,12.25,3.1.68,9.67-12.49,6.88ZM581.12,171.22l-10,7.91-5.38.93-5.04,4.14-4.74.09-6.58-2.05-11.36-5.97-7.65-5.23-9.83-5.11-9.87-3.56-.61-.29-6.18-7.58.05-.09,8.58-4.02.73-.44,15.34-11.28,9.83-2.33,18.7-.35.31.04,9.24,6.57,8.19,11.07,2.77,3.51,10.69,5.9-7.19,8.14Z"/>
    </clipPath>
    <linearGradient id="_횁책챌청챙첼챠챠청챕_찾챨횪채챔책챠챵_13" data-name="횁책챌청챙첼챠챠청챕 찾챨횪채챔책챠챵 13" x1="230.28" y1="60.58" x2="230.28" y2="8.21" gradientUnits="userSpaceOnUse">
      <stop offset="0" stop-color="#000"/>
      <stop offset=".28" stop-color="#252525"/>
      <stop offset=".58" stop-color="#464646"/>
      <stop offset=".83" stop-color="#5b5b5b"/>
      <stop offset="1" stop-color="#636363"/>
    </linearGradient>
    <linearGradient id="_횁책챌청챙첼챠챠청챕_찾챨횪채챔책챠챵_13-2" data-name="횁책챌청챙첼챠챠청챕 찾챨횪채챔책챠챵 13" x1="352.62" y1="58.05" x2="352.62" y2="10.21" xlink:href="#_횁책챌청챙첼챠챠청챕_찾챨횪채챔책챠챵_13"/>
    <linearGradient id="_횁책챌청챙첼챠챠청챕_찾챨횪채챔책챠챵_13-3" data-name="횁책챌청챙첼챠챠청챕 찾챨횪채챔책챠챵 13" x1="434.78" y1="10.1" x2="434.78" y2="3.62" xlink:href="#_횁책챌청챙첼챠챠청챕_찾챨횪채챔책챠챵_13"/>
    <linearGradient id="_횁책챌청챙첼챠챠청챕_찾챨횪채챔책챠챵_13-4" data-name="횁책챌청챙첼챠챠청챕 찾챨횪채챔책챠챵 13" x1="413.47" y1="48.7" x2="413.47" y2="20.72" xlink:href="#_횁책챌청챙첼챠챠청챕_찾챨횪채챔책챠챵_13"/>
    <linearGradient id="_횁책챌청챙첼챠챠청챕_찾챨횪채챔책챠챵_13-5" data-name="횁책챌청챙첼챠챠청챕 찾챨횪채챔책챠챵 13" x1="487.67" y1="68.81" x2="487.67" y2="27.7" xlink:href="#_횁책챌청챙첼챠챠청챕_찾챨횪채챔책챠챵_13"/>
    <linearGradient id="_횁책챌청챙첼챠챠청챕_찾챨횪채챔책챠챵_13-6" data-name="횁책챌청챙첼챠챠청챕 찾챨횪채챔책챠챵 13" x1="525.17" y1="103.21" x2="525.17" y2="62.7" xlink:href="#_횁책챌청챙첼챠챠청챕_찾챨횪채챔책챠챵_13"/>
    <linearGradient id="_횁책챌청챙첼챠챠청챕_찾챨횪채챔책챠챵_13-7" data-name="횁책챌청챙첼챠챠청챕 찾챨횪채챔책챠챵 13" x1="426.03" y1="121.93" x2="426.03" y2="62.84" xlink:href="#_횁책챌청챙첼챠챠청챕_찾챨횪채챔책챠챵_13"/>
    <linearGradient id="_횁책챌청챙첼챠챠청챕_찾챨횪채챔책챠챵_13-8" data-name="횁책챌청챙첼챠챠청챕 찾챨횪채챔책챠챵 13" x1="423.02" y1="117.31" x2="423.02" y2="99.81" xlink:href="#_횁책챌청챙첼챠챠청챕_찾챨횪채챔책챠챵_13"/>
    <linearGradient id="_횁책챌청챙첼챠챠청챕_찾챨횪채챔책챠챵_13-9" data-name="횁책챌청챙첼챠챠청챕 찾챨횪채챔책챠챵 13" x1="358.64" y1="114.16" x2="358.64" y2="74.94" xlink:href="#_횁책챌청챙첼챠챠청챕_찾챨횪채챔책챠챵_13"/>
    <linearGradient id="_횁책챌청챙첼챠챠청챕_찾챨횪채챔책챠챵_13-10" data-name="횁책챌청챙첼챠챠청챕 찾챨횪채챔책챠챵 13" x1="308.67" y1="103.5" x2="308.67" y2="85.88" xlink:href="#_횁책챌청챙첼챠챠청챕_찾챨횪채챔책챠챵_13"/>
    <linearGradient id="_횁책챌청챙첼챠챠청챕_찾챨횪채챔책챠챵_13-11" data-name="횁책챌청챙첼챠챠청챕 찾챨횪채챔책챠챵 13" x1="280.07" y1="88.67" x2="280.07" y2="69.52" xlink:href="#_횁책챌청챙첼챠챠청챕_찾챨횪채챔책챠챵_13"/>
    <linearGradient id="_횁책챌청챙첼챠챠청챕_찾챨횪채챔책챠챵_13-12" data-name="횁책챌청챙첼챠챠청챕 찾챨횪채챔책챠챵 13" x1="228.14" y1="80.41" x2="228.14" y2="59.77" xlink:href="#_횁책챌청챙첼챠챠청챕_찾챨횪채챔책챠챵_13"/>
    <linearGradient id="_횁책챌청챙첼챠챠청챕_찾챨횪채챔책챠챵_13-13" data-name="횁책챌청챙첼챠챠청챕 찾챨횪채챔책챠챵 13" x1="185.9" y1="86.43" x2="185.9" y2="59.69" xlink:href="#_횁책챌청챙첼챠챠청챕_찾챨횪채챔책챠챵_13"/>
    <linearGradient id="_횁책챌청챙첼챠챠청챕_찾챨횪채챔책챠챵_13-14" data-name="횁책챌청챙첼챠챠청챕 찾챨횪채챔책챠챵 13" x1="185.86" y1="54.49" x2="185.86" y2="42.16" xlink:href="#_횁책챌청챙첼챠챠청챕_찾챨횪채챔책챠챵_13"/>
    <linearGradient id="_횁책챌청챙첼챠챠청챕_찾챨횪채챔책챠챵_13-15" data-name="횁책챌청챙첼챠챠청챕 찾챨횪채챔책챠챵 13" x1="157.83" y1="111.77" x2="157.83" y2="80.79" xlink:href="#_횁책챌청챙첼챠챠청챕_찾챨횪채챔책챠챵_13"/>
    <linearGradient id="_횁책챌청챙첼챠챠청챕_찾챨횪채챔책챠챵_13-16" data-name="횁책챌청챙첼챠챠청챕 찾챨횪채챔책챠챵 13" x1="95.9" y1="128.87" x2="95.9" y2="92.89" xlink:href="#_횁책챌청챙첼챠챠청챕_찾챨횪채챔책챠챵_13"/>
    <linearGradient id="_횁책챌청챙첼챠챠청챕_찾챨횪채챔책챠챵_13-17" data-name="횁책챌청챙첼챠챠청챕 찾챨횪채챔책챠챵 13" x1="73.25" y1="124.89" x2="73.25" y2="113.55" xlink:href="#_횁책챌청챙첼챠챠청챕_찾챨횪채챔책챠챵_13"/>
    <linearGradient id="_횁책챌청챙첼챠챠청챕_찾챨횪채챔책챠챵_13-18" data-name="횁책챌청챙첼챠챠청챕 찾챨횪채챔책챠챵 13" x1="171.39" y1="163.21" x2="171.39" y2="126.23" xlink:href="#_횁책챌청챙첼챠챠청챕_찾챨횪채챔책챠챵_13"/>
    <linearGradient id="_횁책챌청챙첼챠챠청챕_찾챨횪채챔책챠챵_13-19" data-name="횁책챌청챙첼챠챠청챕 찾챨횪채챔책챠챵 13" x1="77.91" y1="151.85" x2="77.91" y2="140.62" xlink:href="#_횁책챌청챙첼챠챠청챕_찾챨횪채챔책챠챵_13"/>
    <linearGradient id="_횁책챌청챙첼챠챠청챕_찾챨횪채챔책챠챵_13-20" data-name="횁책챌청챙첼챠챠청챕 찾챨횪채챔책챠챵 13" x1="124.69" y1="176.11" x2="124.69" y2="147.04" xlink:href="#_횁책챌청챙첼챠챠청챕_찾챨횪채챔책챠챵_13"/>
    <linearGradient id="_횁책챌청챙첼챠챠청챕_찾챨횪채챔책챠챵_13-21" data-name="횁책챌청챙첼챠챠청챕 찾챨횪채챔책챠챵 13" x1="82.62" y1="201.5" x2="82.62" y2="170.52" xlink:href="#_횁책챌청챙첼챠챠청챕_찾챨횪채챔책챠챵_13"/>
    <linearGradient id="_횁책챌청챙첼챠챠청챕_찾챨횪채챔책챠챵_13-22" data-name="횁책챌청챙첼챠챠청챕 찾챨횪채챔책챠챵 13" x1="97.16" y1="221.38" x2="97.16" y2="205.13" xlink:href="#_횁책챌청챙첼챠챠청챕_찾챨횪채챔책챠챵_13"/>
    <linearGradient id="_횁책챌청챙첼챠챠청챕_찾챨횪채챔책챠챵_13-23" data-name="횁책챌청챙첼챠챠청챕 찾챨횪채챔책챠챵 13" x1="160.99" y1="227.01" x2="160.99" y2="195.7" xlink:href="#_횁책챌청챙첼챠챠청챕_찾챨횪채챔책챠챵_13"/>
    <linearGradient id="_횁책챌청챙첼챠챠청챕_찾챨횪채챔책챠챵_13-24" data-name="횁책챌청챙첼챠챠청챕 찾챨횪채챔책챠챵 13" x1="151.19" y1="258.25" x2="151.19" y2="220.01" xlink:href="#_횁책챌청챙첼챠챠청챕_찾챨횪채챔책챠챵_13"/>
    <linearGradient id="_횁책챌청챙첼챠챠청챕_찾챨횪채챔책챠챵_13-25" data-name="횁책챌청챙첼챠챠청챕 찾챨횪채챔책챠챵 13" x1="97.13" y1="268.72" x2="97.13" y2="241.67" xlink:href="#_횁책챌청챙첼챠챠청챕_찾챨횪채챔책챠챵_13"/>
    <linearGradient id="_횁책챌청챙첼챠챠청챕_찾챨횪채챔책챠챵_13-26" data-name="횁책챌청챙첼챠챠청챕 찾챨횪채챔책챠챵 13" x1="91.16" y1="272.21" x2="91.16" y2="262.16" xlink:href="#_횁책챌청챙첼챠챠청챕_찾챨횪채챔책챠챵_13"/>
    <linearGradient id="_횁책챌청챙첼챠챠청챕_찾챨횪채챔책챠챵_13-27" data-name="횁책챌청챙첼챠챠청챕 찾챨횪채챔책챠챵 13" x1="248.08" y1="242.24" x2="248.08" y2="195.18" xlink:href="#_횁책챌청챙첼챠챠청챕_찾챨횪채챔책챠챵_13"/>
    <linearGradient id="_횁책챌청챙첼챠챠청챕_찾챨횪채챔책챠챵_13-28" data-name="횁책챌청챙첼챠챠청챕 찾챨횪채챔책챠챵 13" x1="292.31" y1="247.14" x2="292.31" y2="221.97" xlink:href="#_횁책챌청챙첼챠챠청챕_찾챨횪채챔책챠챵_13"/>
    <linearGradient id="_횁책챌청챙첼챠챠청챕_찾챨횪채챔책챠챵_13-29" data-name="횁책챌청챙첼챠챠청챕 찾챨횪채챔책챠챵 13" x1="327.7" y1="277.38" x2="327.7" y2="244.24" xlink:href="#_횁책챌청챙첼챠챠청챕_찾챨횪채챔책챠챵_13"/>
    <linearGradient id="_횁책챌청챙첼챠챠청챕_찾챨횪채챔책챠챵_13-30" data-name="횁책챌청챙첼챠챠청챕 찾챨횪채챔책챠챵 13" x1="371.76" y1="266.09" x2="371.76" y2="249.14" xlink:href="#_횁책챌청챙첼챠챠청챕_찾챨횪채챔책챠챵_13"/>
    <linearGradient id="_횁책챌청챙첼챠챠청챕_찾챨횪채챔책챠챵_13-31" data-name="횁책챌청챙첼챠챠청챕 찾챨횪채챔책챠챵 13" x1="408.36" y1="260.63" x2="408.36" y2="234.97" xlink:href="#_횁책챌청챙첼챠챠청챕_찾챨횪채챔책챠챵_13"/>
    <linearGradient id="_횁책챌청챙첼챠챠청챕_찾챨횪채챔책챠챵_13-32" data-name="횁책챌청챙첼챠챠청챕 찾챨횪채챔책챠챵 13" x1="229.53" y1="188.16" x2="229.53" y2="151.91" xlink:href="#_횁책챌청챙첼챠챠청챕_찾챨횪채챔책챠챵_13"/>
    <linearGradient id="_횁책챌청챙첼챠챠청챕_찾챨횪채챔책챠챵_13-33" data-name="횁책챌청챙첼챠챠청챕 찾챨횪채챔책챠챵 13" x1="237.07" y1="131.64" x2="237.07" y2="108.76" xlink:href="#_횁책챌청챙첼챠챠청챕_찾챨횪채챔책챠챵_13"/>
    <linearGradient id="_횁책챌청챙첼챠챠청챕_찾챨횪채챔책챠챵_13-34" data-name="횁책챌청챙첼챠챠청챕 찾챨횪채챔책챠챵 13" x1="292.27" y1="182.25" x2="292.27" y2="119.08" xlink:href="#_횁책챌청챙첼챠챠청챕_찾챨횪채챔책챠챵_13"/>
    <linearGradient id="_횁책챌청챙첼챠챠청챕_찾챨횪채챔책챠챵_13-35" data-name="횁책챌청챙첼챠챠청챕 찾챨횪채챔책챠챵 13" x1="373.48" y1="163.19" x2="373.48" y2="132.24" xlink:href="#_횁책챌청챙첼챠챠청챕_찾챨횪채챔책챠챵_13"/>
    <linearGradient id="_횁책챌청챙첼챠챠청챕_찾챨횪채챔책챠챵_13-36" data-name="횁책챌청챙첼챠챠청챕 찾챨횪채챔책챠챵 13" x1="421.9" y1="148.4" x2="421.9" y2="129.51" xlink:href="#_횁책챌청챙첼챠챠청챕_찾챨횪채챔책챠챵_13"/>
    <linearGradient id="_횁책챌청챙첼챠챠청챕_찾챨횪채챔책챠챵_13-37" data-name="횁책챌청챙첼챠챠청챕 찾챨횪채챔책챠챵 13" x1="418.99" y1="198.12" x2="418.99" y2="158.03" xlink:href="#_횁책챌청챙첼챠챠청챕_찾챨횪채챔책챠챵_13"/>
    <linearGradient id="_횁책챌청챙첼챠챠청챕_찾챨횪채챔책챠챵_13-38" data-name="횁책챌청챙첼챠챠청챕 찾챨횪채챔책챠챵 13" x1="474.34" y1="175.9" x2="474.34" y2="140.33" xlink:href="#_횁책챌청챙첼챠챠청챕_찾챨횪채챔책챠챵_13"/>
    <linearGradient id="_횁책챌청챙첼챠챠청챕_찾챨횪채챔책챠챵_13-39" data-name="횁책챌청챙첼챠챠청챕 찾챨횪채챔책챠챵 13" x1="469.2" y1="131.59" x2="469.2" y2="117.13" xlink:href="#_횁책챌청챙첼챠챠청챕_찾챨횪채챔책챠챵_13"/>
    <linearGradient id="_횁책챌청챙첼챠챠청챕_찾챨횪채챔책챠챵_13-40" data-name="횁책챌청챙첼챠챠청챕 찾챨횪채챔책챠챵 13" x1="544.3" y1="133.86" x2="544.3" y2="112.85" xlink:href="#_횁책챌청챙첼챠챠청챕_찾챨횪채챔책챠챵_13"/>
    <linearGradient id="_횁책챌청챙첼챠챠청챕_찾챨횪채챔책챠챵_13-41" data-name="횁책챌청챙첼챠챠청챕 찾챨횪채챔책챠챵 13" x1="614.95" y1="103.84" x2="614.95" y2="79.9" xlink:href="#_횁책챌청챙첼챠챠청챕_찾챨횪채챔책챠챵_13"/>
    <linearGradient id="_횁책챌청챙첼챠챠청챕_찾챨횪채챔책챠챵_13-42" data-name="횁책챌청챙첼챠챠청챕 찾챨횪채챔책챠챵 13" x1="585.26" y1="112.7" x2="585.26" y2="102.97" xlink:href="#_횁책챌청챙첼챠챠청챕_찾챨횪채챔책챠챵_13"/>
    <linearGradient id="_횁책챌청챙첼챠챠청챕_찾챨횪채챔책챠챵_13-43" data-name="횁책챌청챙첼챠챠청챕 찾챨횪채챔책챠챵 13" x1="583.16" y1="166.33" x2="583.16" y2="130.48" xlink:href="#_횁책챌청챙첼챠챠청챕_찾챨횪채챔책챠챵_13"/>
    <linearGradient id="_횁책챌청챙첼챠챠청챕_찾챨횪채챔책챠챵_13-44" data-name="횁책챌청챙첼챠챠청챕 찾챨횪채챔책챠챵 13" x1="624.13" y1="172.06" x2="624.13" y2="164.26" xlink:href="#_횁책챌청챙첼챠챠청챕_찾챨횪채챔책챠챵_13"/>
    <linearGradient id="_횁책챌청챙첼챠챠청챕_찾챨횪채챔책챠챵_13-45" data-name="횁책챌청챙첼챠챠청챕 찾챨횪채챔책챠챵 13" x1="565.57" y1="195.91" x2="565.57" y2="162.62" xlink:href="#_횁책챌청챙첼챠챠청챕_찾챨횪채챔책챠챵_13"/>
    <linearGradient id="_횁책챌청챙첼챠챠청챕_찾챨횪채챔책챠챵_13-46" data-name="횁책챌청챙첼챠챠청챕 찾챨횪채챔책챠챵 13" x1="602.92" y1="223.32" x2="602.92" y2="194.21" xlink:href="#_횁책챌청챙첼챠챠청챕_찾챨횪채챔책챠챵_13"/>
    <linearGradient id="_횁책챌청챙첼챠챠청챕_찾챨횪채챔책챠챵_13-47" data-name="횁책챌청챙첼챠챠청챕 찾챨횪채챔책챠챵 13" x1="511.28" y1="220.91" x2="511.28" y2="181.33" xlink:href="#_횁책챌청챙첼챠챠청챕_찾챨횪채챔책챠챵_13"/>
    <linearGradient id="_횁책챌청챙첼챠챠청챕_찾챨횪채챔책챠챵_13-48" data-name="횁책챌청챙첼챠챠청챕 찾챨횪채챔책챠챵 13" x1="437.76" y1="243.33" x2="437.76" y2="207.72" xlink:href="#_횁책챌청챙첼챠챠청챕_찾챨횪채챔책챠챵_13"/>
    <linearGradient id="_횁책챌청챙첼챠챠청챕_찾챨횪채챔책챠챵_13-49" data-name="횁책챌청챙첼챠챠청챕 찾챨횪채챔책챠챵 13" x1="375.68" y1="214.62" x2="375.68" y2="196.63" xlink:href="#_횁책챌청챙첼챠챠청챕_찾챨횪채챔책챠챵_13"/>
    <linearGradient id="_횁책챌청챙첼챠챠청챕_찾챨횪채챔책챠챵_13-50" data-name="횁책챌청챙첼챠챠청챕 찾챨횪채챔책챠챵 13" x1="280.89" y1="298.04" x2="280.89" y2="264.02" xlink:href="#_횁책챌청챙첼챠챠청챕_찾챨횪채챔책챠챵_13"/>
    <linearGradient id="_횁책챌청챙첼챠챠청챕_찾챨횪채챔책챠챵_13-51" data-name="횁책챌청챙첼챠챠청챕 찾챨횪채챔책챠챵 13" x1="345.66" y1="324.37" x2="345.66" y2="286.17" xlink:href="#_횁책챌청챙첼챠챠청챕_찾챨횪채챔책챠챵_13"/>
    <linearGradient id="_횁책챌청챙첼챠챠청챕_찾챨횪채챔책챠챵_13-52" data-name="횁책챌청챙첼챠챠청챕 찾챨횪채챔책챠챵 13" x1="294.82" y1="314.87" x2="294.82" y2="304.51" xlink:href="#_횁책챌청챙첼챠챠청챕_찾챨횪채챔책챠챵_13"/>
    <linearGradient id="_횁책챌청챙첼챠챠청챕_찾챨횪채챔책챠챵_13-53" data-name="횁책챌청챙첼챠챠청챕 찾챨횪채챔책챠챵 13" x1="270.8" y1="341.25" x2="270.8" y2="316.16" xlink:href="#_횁책챌청챙첼챠챠청챕_찾챨횪채챔책챠챵_13"/>
    <linearGradient id="_횁책챌청챙첼챠챠청챕_찾챨횪채챔책챠챵_13-54" data-name="횁책챌청챙첼챠챠청챕 찾챨횪채챔책챠챵 13" x1="223.54" y1="346.31" x2="223.54" y2="335.54" xlink:href="#_횁책챌청챙첼챠챠청챕_찾챨횪채챔책챠챵_13"/>
    <linearGradient id="_횁책챌청챙첼챠챠청챕_찾챨횪채챔책챠챵_13-55" data-name="횁책챌청챙첼챠챠청챕 찾챨횪채챔책챠챵 13" x1="219.95" y1="355.29" x2="219.95" y2="347.5" xlink:href="#_횁책챌청챙첼챠챠청챕_찾챨횪채챔책챠챵_13"/>
    <linearGradient id="_횁책챌청챙첼챠챠청챕_찾챨횪채챔책챠챵_13-56" data-name="횁책챌청챙첼챠챠청챕 찾챨횪채챔책챠챵 13" x1="415.48" y1="333.71" x2="415.48" y2="293.76" xlink:href="#_횁책챌청챙첼챠챠청챕_찾챨횪채챔책챠챵_13"/>
    <linearGradient id="_횁책챌청챙첼챠챠청챕_찾챨횪채챔책챠챵_13-57" data-name="횁책챌청챙첼챠챠청챕 찾챨횪채챔책챠챵 13" x1="446.56" y1="342.86" x2="446.56" y2="325.24" xlink:href="#_횁책챌청챙첼챠챠청챕_찾챨횪채챔책챠챵_13"/>
    <linearGradient id="_횁책챌청챙첼챠챠청챕_찾챨횪채챔책챠챵_13-58" data-name="횁책챌청챙첼챠챠청챕 찾챨횪채챔책챠챵 13" x1="464.52" y1="300.25" x2="464.52" y2="284.35" xlink:href="#_횁책챌청챙첼챠챠청챕_찾챨횪채챔책챠챵_13"/>
    <linearGradient id="_횁책챌청챙첼챠챠청챕_찾챨횪채챔책챠챵_13-59" data-name="횁책챌청챙첼챠챠청챕 찾챨횪채챔책챠챵 13" x1="520.32" y1="296.33" x2="520.32" y2="270.38" xlink:href="#_횁책챌청챙첼챠챠청챕_찾챨횪채챔책챠챵_13"/>
    <linearGradient id="_횁책챌청챙첼챠챠청챕_찾챨횪채챔책챠챵_13-60" data-name="횁책챌청챙첼챠챠청챕 찾챨횪채챔책챠챵 13" x1="464.81" y1="273.52" x2="464.81" y2="245.6" xlink:href="#_횁책챌청챙첼챠챠청챕_찾챨횪채챔책챠챵_13"/>
    <linearGradient id="_횁책챌청챙첼챠챠청챕_찾챨횪채챔책챠챵_13-61" data-name="횁책챌청챙첼챠챠청챕 찾챨횪채챔책챠챵 13" x1="569.42" y1="282.87" x2="569.42" y2="262.16" xlink:href="#_횁책챌청챙첼챠챠청챕_찾챨횪채챔책챠챵_13"/>
    <linearGradient id="_횁책챌청챙첼챠챠청챕_찾챨횪채챔책챠챵_13-62" data-name="횁책챌청챙첼챠챠청챕 찾챨횪채챔책챠챵 13" x1="530.06" y1="48.47" x2="530.06" y2="30.29" xlink:href="#_횁책챌청챙첼챠챠청챕_찾챨횪채챔책챠챵_13"/>
    <linearGradient id="_횁책챌청챙첼챠챠청챕_찾챨횪채챔책챠챵_13-63" data-name="횁책챌청챙첼챠챠청챕 찾챨횪채챔책챠챵 13" x1="571.33" y1="34.98" x2="571.33" y2="24.84" xlink:href="#_횁책챌청챙첼챠챠청챕_찾챨횪채챔책챠챵_13"/>
  </defs>
  <g id="_Layer_" data-name="&amp;lt;Layer&amp;gt;">
    <g>
      <path d="M666.1,172.42l-13.94-2.58-12.47.96-36.37-5.42-2.45-8.88-14.07-4.26-14.73-13.51-8-4.72-2.12-2.46-.13-.16,7.07-8.28,17.53-8.24,25.83-1.43,12.85,4.3,13.5-.08,18.5-1.38,14.74-1.15-35.66-2.71-17.15-.18-14.79-4.29,32.98-11.19,9.79-6.65,13.72-6.49,29.48-1.34,21.71-5.45-37.45,3.29-15.68-.24-13.51,3.32-8.05,4.58-12.93,3.92-14.33,5.09-15.42,1.19-21.88-2.75-7.31-8.9-5.35-13.65-7.89-6.52-6.97-7.74-9.9-10.92,25.17-9.71,20.25-1.94,13.97.31,31.86,1.15,25.73-.34,5.21.46-14.22-4.13-17.17.05-27.83-1.21-21.16-2.16-16.45.98-15.69-2.7-1.99,4.42-6.03,1.93-15.89,1.67-11.48-1.54,8.08,8.2-17.09,3.84-16.61,1.01-14.08-8.02-7.2-7.89-4.36-4.35,39.46,5.9-19.2-5.95-14.08-3.96-12.59-1.25-1.98-5.61-3.74-2.17-1.11-5.66,16.76-2.63-32.5-.62-17.51,1.27,25.49,5.21,1.59,4.96,5.96,5.13-16.75,6.28-22.22,4.79-12.87-2.03-10.67-4.73-1.57-10.37,4.24-2.74-5.11-6.74-7.7-6.62,5.2,7.75,2.49,3.03-8.38,6.91-18.96,2.22-28.5-3.13.41,4.7-4.77,2.55-4.13,4.47-15,6.97-18.52-2.12-13.52,1.55-14.84-1.13-18.5.97-1.41-.47-3.93-.62.07-.04-1.79-.24-2.1-.34-.08.05-52.59-6.94-20.01-11.09-40.46-8.27,32.45,10.44,6.71,5.66,40.02,13.49,10.15,6.95-14.52,4.99-15.34,4.63-23.95-.47-14.56-2.61,3.19,3.4,5.46,3.55,13.43,6.61,10.32,11.64,11.4,6.78-3.17,5.27-5.05,5.98-4.62,8.02-13.24,5-4.94,2.94-7.23,2.41-27.84,6.71-22.92-7.64-8.21-6.34-11.23-4.64-14.08-6.65-17.29-3.82-20.65-8.07-10.94-4.61,17.6,11.45,28.86,8.14,34.93,23.6-19.57-2.1-11.37-3.32-9.46-.69,17.59,8.11,14.02,3.26,13.59,3.65,29.8,4.91,31.11,11.96,13.73,11.18-14.04,4.28-12.24,4.28-6.77,2.38-12.12-5.25-6.24-6.25-6.99-3.26-8.65-5.26,4.45-2.88.14-2.53-1.26-5.51-2.19,7.12-6.96,2.39-19.03.3-8.88-.51-14.12-3.91-26.16-3.79,25.2,7.26,9.46,4.26,15.11,1.62,30.01,5.49,6.14,6.29,7.45,7.25.1,12.11-7.3,3.87-2.69,2.61-6.29,2.91-25.76-1.71-24.04-6.4-4.32-5.93-14.4-3.15-15.44-1.9-19.21-5.95,4.32,4.25,7.34,2.12,19.52,3.98,8.52,2.87,6.14,5.82,1.5,7.13-20.49,1.21,12.43,1.88,16.05-1.43,8.85-.6,9.38,2.05,9.74,2.95,10.57,1.3,16.52,4.82-2.4,6.67-7.84,5.79-17.55-2.08-10.57-.59-8.92-1.43-13.41-3.12-8.73.17,18.56,4.64,10.46,1.69,16.9,2.44,12.32,3.36,12.1,5.08,4.57,7.74,3.27,8.95-3.88,5.81-5.88,4.03-4.74,1.91-6.76-1.43-7.44-2.56-9.13-.15-15.13-2.37-5.23-8.2,1.63,5.35-2.48,2.7-2.06,1.58-3.42.17-8.25.79-6.54-1.96-7.34,1.48-15.89-2.05,11.71,4.41,13.61-.48,11.16,1.07,7.17-.84,8.44,1.44,17.93,1.06,9.04,2.4,7.81,2.87-.27,4.1-3.81,2-14.06,3.14-7.02,1.91-7.02,2.45-6.94,1.81,17.26-2.5,18.73-1.08,22.04-4.85,7.53-6.17,7.04-1.32,7.52-2.13,14.57-.14,13.16,4.17,7.76,1.38,11.85,1.48,19.31,5.72,27.93,2.61,21.81,6.5,7.55,7.61-4.09,2.61-4.73,1-5.21,1.71-8.52,3.2-8.52,2.41-14.77,3.42-7.21,2.84-9.76,1.51-23.27,4.46,5.04-.12,10.75-.72,10.02-.62,9.56-2.28,6.74-1.45,6.66-1.16,9-3.25,11.35-.55,14.28-4.53,22.73.42,5.92,4.3,3.81,4.09-5.95,5.25,7.1,8.36-6.03,4.53-7.54,5.18-12.55,4.98-18.73,5.01-7.41-1.92-20.48,1.63-13.5-.67-16.01.94-17.83,2.1,22.45,1.25,16.46.66,10.62,4.79.62,3.57-10.41.54-11.68,2.67-6.94,4.89-8.79,2.38-15.97,2.37-14.11,2.59,15.26-.15,16.9-.29,11.59-3.88,16.09-5.86,19.13.28,8.9-.76-3.28-4.47,7.64-4.58,37.41-7.66,17.69-6.89,12.25-7.79,21.66,2.12,21.91.51,25.14,3.48,21.93,9.22,26.84,5.09,17.8,2.13,11.97,3.08,12.32,2.42,9.6,4.06,18.09,3.28-19.16-8.2-2.32-3.92,5.72-1.2-12.04-2.16-23.28-3.71-20.32-4.62-8.36-3.01-13-2.88.39-7.28,9.12-5.74,19.88-8.42,10.07-5.54,11.45-.54,11.19-1.3,17.83-1.94,4.28.23,5.12-2.04,19.85-4.94,20.79.51,14.86-3.43,12.17-4.09,17.45-.47,25.1-1.2,5.07-1.65-13.92-.95-21.02-.7-7.93,1.13-7.3-3.2-7.58-5.57-2.05-4.99-3.76-5.74,23.15-3.77,29.63-6.67,20.73-2.14,17.5-.66,28.9,3.07-14.53-4.3-14.44-3.67-10.32-5.36-.08,5.7-16.46,1.77-41.79,8.04-28.5,1.58-19.12.03-22.31-6.92-14.65-8.04-7.03-4.37-1.37-2.81,2.35-2.87,8.68-9.4,18.71-1.79,19.22.43,11.98-.92,20.01,4.12,23.03-3.52,23.94,7.4,16.67,6.97-8-8.17,14.14-4.89-13.1-.7-12.44-1.18-31.55-12.03-7.64-5.04,1.42-14.22,7.53-7.35,10.69-6.32,8.95-2.63,33.28,3.45,14.64-2.2,33.56.96,14.92-1.66-14.32-.3-16.52.42ZM563.51,97.4l11.74,1.08,14.06,2.62,6.13,2.37-11.94,4.77-8.23,6.19-11.01,4.38-7.19,5.38-8.03,4.97-3.9,1.05-12.39-.09-23.17.47-28.31-.45-22.47-4.16-5.01-7.1-.81-1.26,1.48-1.51,5.98-1.65,16.41-2.06,19.25-2.8,21.82-2.83,19.63-2.17,11.8-4.23,14.14-2.94ZM317.46,112.83l8.86,4.82,4.01,12.34-8.01,1.64-21.11.26-40.75-8.48-6.18-3.69,1.63-.95,16.32-10.33,11.9-1.36,13.36-2.32,10.19,2.99-.48.24,10.25,4.84ZM312.46,180.05l.72-.94,23.86-2.81,21.88-.58,14.81.51,21.88,8.09,11.92,5.35-1.34,5.36-11.04,8.38-12.63,3.2-9.03-1.79-8.7-2.82-27.15-5.41-18.31-3.58-7.44-2.17-.52-.33-.17-3.21,1.28-7.27ZM399.81,178.17l-13.44-19.98,41.52-6.88,16.94,13.04,6.15,7.62.12.78-.46,1.15-7.1,7.61-43.73-3.34ZM427.1,132.82l-6.31,2.63-11.93,7.42-9.76,1.7-9.16,1.9-7.21.46-16.08-3.67-29.72-7.77,1.96-11.51,3.55-4.62,11.43-5.04,7.83-4.84,8.26,1.96,9.83,2.55,23.56.11,14.47-1.19.77.03.33.16,4.28,6.68,8.49,11.43-4.58,1.59ZM422.07,108.71l-3.06,1.22-11.97.17-23.91,1.73-14.93-5.3,5.37-3.79,16.06-8.41,11.89-7.22,4.58-1.12,7.19,2.27,15.67,11.58-6.89,8.86ZM386.29,89.62l-19.61,9.09-6.16,1.74-11.55-3.92-14.38-10.4-6.69-5.92-4.94-5.26,10.74-1.1,24.38-3.57,4.77-.52,15.49,5.29,14.24,4.38,2.68,5.79-8.99,4.39ZM329.05,90.76l-1.34.29-8.94.53-15.56,2.86-18.48-8.93,13.8-6.91,6.03-2.49,5.67-1.17,2.6.95,5.82,3.78,10.4,11.07ZM291.9,75.8l-13.77,6.37-15.5.29-17.85-2.56-18.75-2.41-8.14-2.66-3.1-9.88-1.74-5.48,12.11.69,23.66,4.79,29,2.25,17.55,1.28,4.95.96-8.42,6.38ZM213.11,78.17l4.99,3.42,11.09.82,14.76.59,16.79,3.3,8.25.02,5.1,1.55,13.66,7.28,8.96,3.67-14.12,3.7-17.79,5.19-16.64,6.44-8.31,5.84-1.58.82-1.1.15-14.39-1.5-12.97-6.09-4.91-2.48-7.89-1.81-10.57-3.93-5.98-4.19,1.24-4.51,2.27-6.91,4.49-5.26,14.25-4.73,10.4-1.39ZM231.39,140.64l.23-.41,5.09-5.37,5.62,2.55,6.74,5.97,6.38,7.34,3.92,8.84-1.2,1.56-3.1.04-20.84-1.18-16.03-.6-12.59-2.76-5.41-4.16,6.74-4.27,18.8-3.61,5.66-3.95ZM227.93,193.52l12.75-.71,15.64-.06,12.37.08,12.36,2.14,13.5,1.51,6.18,2.86,1.01,7-10.07,4.59-11.02,3.86-6.02,3.69-3.12.79-8.03-3.38-16.9-6.84-8.96-2.92-8.59-2.26-3.98-6.29,2.89-4.06ZM285.62,216.95l8.37-1.9,7.21-2.84,11.28-3.69-2.98-5.15-.82-3.8.03-.52,5.13-2.17,16.3,2.56,17,4.24,21.29,3.63,9.35,4.34-4.08,4.54-9.94,3.22-18.94,3.35-18.5,4.25-17.34,8.49-10.7,1.38-1.04-.18-1.15-.7-5.97-5.29-7.39-5.03-5.61-3.63,8.5-5.09ZM313.92,239.01l13.03-6.87,18.04-5.4,23.45-3.8,29,4.76,27.87,6.98-9.98,11.37-14.94,4.65-5.65-.31-6.63-1.89-2.58,5.67-11.85,4.51-10.61,1.51-8.3,1.64-7.49,1.6-18.87,3.17-8.46-4.18-6.01-9.28-6.41-6.91,6.38-7.2ZM418.45,228.86l-26.92-5.77-4.29-3.91-.58-5.32,13.28-7.86,17.95-11.05,7.83-5.28,14.8,5.82,9.5,8.05,9.19,3.9.84,6.43-10.33,10.65-15.47,9.44-1.02-.35-6.21-3.12-8.57-1.63ZM450.88,153.39l-6.15-13.02,7.04-3.16,5.75-4.26,13.43-.13,30.8.86,24.8,1.44-1.05,2-4.61,4.77-10.48,6.17-7.18,4.23-1.81.57-9.17.74-23.55.05-17.83-.26ZM494.26,56.6l22.48-5.45,8.88-.48,10.83,8.21,9.09,6.67,6.19,7.03,6.14,6.78.02,3.64,1.22,4.93-4.72,4.11-25.53-5.33-24-7.79-9.11-4.48-2.99-7.39,1.5-10.45ZM397.83,37.76l3.69-.99,13.09-.88,33.45-4.86,13.41,9.8,2.95,8.85,10.18,13.41,4.05,10.16-12.82,8.01-23.12,3.96-24.76-1.81-9.47-4.78-14.77-4.17-11.85-5.26-5.72-5.08-1.78-.96.06-.34,7.77-7.07,10.72-14.62,4.93-3.39ZM175.29,70.99l-.43-2.06-3.11-4.84-1.77-4.4,11-2.97,15.19-2.92,8.67,6.13,2.21,7.18,3.96,5.38.17,1.26-4.12,1.75-11.3,2.41-8.78,1.76-5.83-3.16-5.85-5.51ZM160.64,139.04l-17.01-5.89-11.27-6,3.62-7.66,3.38-4.09,8.28-1.17,9.29-2.06,7.72-3.88,21.42,2.38,22.28,7.07,10.46,2.86,6.48,3.59-.64,9.07-4.04,7.67-11.82,3.68-11.61,2.24-19.16-.43-17.37-7.4ZM118.77,189.95l12.75-10.96,8.36-6.07,11.67-3.88,11.53-2.84,8.7-.63,18.22,1.78,10.86,1.05.42.48,2.72,7.6-.04,4.64,3.15,3.96-3.52,4.54,4.91,6.29-.61,5.07-4.92,2.65-5.74,2.97-8.7.04-15.68.33-15.24,1.79-16.74-2.58-17.31.09-10.18-6.68,5.39-9.63ZM156.15,253.14l-16.47-3.34-6.7-6.84-2.28-4.84-7.21-6.28-6.45-5.97-1.19-6.6,6.81-5.77,7-1.78,19.93.82,13.21,6.12,9.03,5.34,8.65,6.03,6.39,9.99-.46,2.73-.67,1.36-.85.76-9.08,4.5-19.66,3.77ZM289.67,280.82l-3.71-1.06-14.35.02-20.53-5.33-25.27-5.4-34.78-7.18-15.35-3.75-3.42-1.09,5.53-3.56,11.39-8.02,9.32,2.36,20.48-1.37,9.88.19,10.25-.66,7.16,2.11,11.77,2.41,18.74,1.54,16.98-.38,5.19.83,1.62,2.48,3.78,4.15,4.52,5.54.61,4.54-8.4,5.01-11.4,6.61ZM427.84,307.54l-9.92,4.58-17.35,10.65-14.49-.84-17.29-3.88-21.08.08-16.85-5.77-7.93-7.6-8.67-10.7-5.46-7.95,12.2-5.44,16.64-6.93,5.33-.84,32.2-4.29,17.26,2.35,8.7,6.5,10.87,4.31,15.76,6.98,13.11,4.72.32,8.29-13.36,5.78ZM477.39,294.46l-9.57,1.28-9.16-1.15-4.53-.41-6.28-2.14-7.97-2.83-21.57-7.75-15.89-10.91-.68-9.56,14.3-6.08,5.22-1.84,16.37,4.79,18.63,7.41,18.54,9.5,14.51,11.22,1.27,6.07-13.18,2.39ZM512.47,254.29l25.62,8.11,8.71,7.92-.87,5.75-4.94,6.56-2.43,3.44-23.53,2.19-11.28,1.26-9.7-4.99-12.63-12.14-36.35-26.36,6.51-1.11,18.33-5.37,15.35,2.17,27.21,12.57ZM547.68,205.64l-4.78,5.15-14.24,1.1-25.26-7.55-31.43-8.79-9.87-10.73-1.15-15.85,1.66-2.98,4.84-5.95,7.83-1.28,9.96-1.78,15.06,2.4,2.98,1.19,8.8,5.41,19.58,11.87,15.58,8.14,12.25,3.1.68,9.67-12.49,6.88ZM581.12,171.22l-10,7.91-5.38.93-5.04,4.14-4.74.09-6.58-2.05-11.36-5.97-7.65-5.23-9.83-5.11-9.87-3.56-.61-.29-6.18-7.58.05-.09,8.58-4.02.73-.44,15.34-11.28,9.83-2.33,18.7-.35.31.04,9.24,6.57,8.19,11.07,2.77,3.51,10.69,5.9-7.19,8.14Z"/>
      <g class="cls-59">
        <g>
          <path class="cls-20" d="M133.76,9.16c5.39,3.07,12.65,3.1,18.33,6.2,4.6,2.51,8.86,5.67,13.35,8.31,3.41,2,7.43,4.1,11.19,5.04,3.58.89,6.87,2.67,10.35,3.87,1.75.6,3.53.86,5.3,1.33,1.67.44,2.46.04,4.19-.06,1.62-.09,2.6.57,3.92,1.47.98.67,1.54,1.1,2.65,1.23,1.39.17,1.74-.25,2.94,1.1,2.79,3.14,2.63,8.33,6.05,11.05,3.27,2.6,3.1-3.92,3.38-5.94.2-1.45.19-3.13,1.88-3.54,1.46-.35,2.87.98,4.28,1.16,2.83.36,3.95-1.19,6.46,1.22,1.05,1.01,2.19,2.64,3.67,2.99,1.56.37,3.15-.51,4.82-.07,5.78,1.52,4.56,8.88,8.19,12.32,3.52,3.33,4.13-3.92,4.44-5.71.17-.97.43-3.09,1.47-3.63,1.06-.56,1.44.54,2.38.54,2.13.02,2.81-3.94,5.5-1.98,1.46,1.07,1.77,3.52,2.24,5.12.35,1.18,1.37,6.37,2.97,6.78,1.99.51,2.35-7.96,5.13-8.68,1.01-.26,2.19.04,3.27-.15,1.53-.27,2.05-.44,3.34.62,1.1.9,2.04,2.61,3.69,2.53,1.11-.05,2.32-.99,3.48-1.18,1.53-.25,2.14-.23,3.28-1.38,1.02-1.04,1.69-2.28,3.36-2.32,4.8-.15,3.55,7.77,6.66,9.59,3.92,2.29,3.57-9.63,5.35-10.98,1.45-1.1,2.38.27,3.51.86,2.07,1.09,1.92-.88,3.73-1.05,4.48-.43,3.56,13.02,6.6,14.76,2.67-3.89,1.99-10.34,2.51-14.85.19-1.69,1.13-7.41,3.9-4.6.79.8,1.31,2.63,1.77,3.7,1.64,3.83,2.01,7.76,2.8,11.85.93-1.23.64-4.1.58-5.61-.09-2.26-.1-4.49.05-6.75.36-5.54-1.25-10.88-1.76-16.35-.2-2.17-.38-4.22-.8-6.33-.43-2.15-1.71-4.61-3.86-5.46-1.25-.5-2.12-.12-3.32.16-1.58.37-3.41.23-5.03.29-8.64.35-14.66,5.48-22.7,7.8-24.79,7.15-50.68,4.21-75.37-.98-12.08-2.53-24.43-3.53-36.17-7.44-8.41-2.8-16.46-4.81-25.16-6.35-4.53-.8-8.65-.96-13.21-1.12-2.14-.07-4.84-1-5.6.62Z"/>
          <path class="cls-31" d="M325.99,15.53c.65.13,1.21.56,1.8.9,2.12,1.21,4.28,2.01,6.63,2.68,2.19.62,4.39,1.17,6.56,1.86,1.57.5,3.68.68,5.06,1.61,1.91,1.29,1.84,3.51,2.44,5.58.7,2.41,1.92,4.48,2.98,6.74,1.87,4,1.73,8.33,3.01,12.45,5.97-.53-.74-17.16,2.53-20.77,1.38.79,1.62,3.8,1.88,5.3.55,3.11.66,6.33.65,9.48-.02,5.31-.28,11.69,1.69,16.71,1.95-2.08,2.12-6.97,2.52-9.65.71-4.72.3-9.49.69-14.24.2-2.44.38-4.69,1.77-6.72.67-.97,1.19-2.65,1.97-3.35,1.15.73,1.25,2.87,1.71,4.03.64-2.49,2.99-3.45,3.84-5.98.69-2.03,1.73-3.84,2.72-5.71.97-1.85,2.89-3.78,2.79-5.99-1.89-.58-3.54.07-5.34.69-3.93,1.38-7.53,2.78-11.76,2.7-3.85-.07-7.67-.65-11.53-.64-2.53,0-4.92.59-7.41.94-3.12.43-6.06.86-9.2.61-2.57-.21-5-.51-8.01.79Z"/>
          <path class="cls-40" d="M450.44,5.02c.02.21-4.23.7-4.46.72-1.84.14-3.63.5-5.4,1.02-1.01.3-1.67.21-2.45.98-.45.45-.47,1.97-1.1,2.23-1.82.77-2.69-2.11-3.68-3.11-2.05-2.06-3.02-.28-5.43-.38-1.66-.07-3.07-.89-4.69-1.21-1.33-.27-2.96-.07-4.11-.66,2.85-1.7,7.94-.74,11.05-.42,3.68.37,7.38.62,11.07.46,1.7-.07,3.37-.23,5.04-.5,1.42-.23,3.07-.24,4.16.88Z"/>
          <path class="cls-63" d="M439.49,21.37c.56-.25,1.13-.46,1.73-.57,1.04-.19,3.17-.13,3.39,1.25.12.77-.24,1.76-.09,2.63.13.81.44,1.59.5,2.41.09,1.27-.34,2.16-.88,3.25-.6-1.29-.88-2.77-1.35-4.15-.92-2.75-1.24.32-2.19,1.08-1.09.86-2.69.03-3.94.97-.85.64-2.1,2.55-3.42,2-.55-.22-.61-1.12-1.32-1.29-.67-.16-.96.26-1.5.59-1.58.99-3.39,1.42-4.95,2.41-1.42.89-1.8,1.01-3-.12-.64-.6-1.13-.67-1.96-.61-1.13.08-1.9.44-2.87.91-1.42.69-3.11.69-4.59,1.31-1.59.66-2.42.59-4.08.6-.99.01-1.63.11-2.33.66-.6.47-.96,1.13-1.87.51-.68-.46-.54-1.44-1.55-1.44-.25,0-.26.39-.4.4-.45.02-.65-.06-1.09-.19-1.27-.36-1.11-.38-2.12.43-1.42,1.15-2.27,1.52-3.73.3-.75-.63-1.97-2.46-3.01-2.19-1,.26-2.25,3.33-2.49,4.06-.61,1.83-1.28,4.42-3.51,4.96-.1-2.25.7-5.69-.64-7.69-2.12.34-1.52,7.06-1.64,8.48-.17,2.03-.1,4.78-1.67,6.35-1.61-1.04-.83-5.91-.7-7.52.21-2.58.69-5.22.49-7.82-.17-2.3-.19-4.47-.2-6.76,0-.69-.19-2.05.24-2.65.7-.95,2.35-.08,3.21.2,2.65.87,5.25,1.87,7.93,2.66,2.39.71,4.76,1.45,7.26,1.59,1.96.11,3.92.12,5.87.34,2.39.27,4.61.43,6.95-.23,2.04-.57,4.02-1.42,6.07-1.87,1.91-.42,3.85-.63,5.79-.94,3.88-.62,7.66-1.2,11.19-3.04.81-.42,1.61-.91,2.46-1.29Z"/>
          <path class="cls-62" d="M462.64,29.45c-1.06-.96-3-1.77-4.44-1.74-.18,1.38.64,2.83.72,4.21.09,1.52-.13,3.13-.1,4.67.46-.16,1.14-.35,1.45-.75.28-.35.24-1.79.76-1.93.64-.17.85,1.1.94,1.45.22.89.1,1.08.74,1.36.63.27,1.28-.02,1.91.38.56.35.79,1.12,1.26,1.57.43.42,1.03.62,1.38,1.13.93,1.33.87,3.56,1.12,5.1.31,1.91.28,3.86.62,5.77.22,1.24.61,2.51,1.66,1.09,1.07-1.44.91-3.76,1.49-5.41.52-1.48,1.4-1.83,2.18-.35.57,1.09.45,2.21,1.24,3,1.11,1.1,1.49,2.1,1.85,3.85.62,3.01.69,6.15,1.07,9.19.23,1.79.17,4.43.93,6.08.93,2.01,1.37-.91,1.53-1.82.55-3.1.46-6.1.56-9.21.04-1.21-.36-4.14.68-5.02,1.04-.88.95.54,1.76.78.87-1.18,1.38-1.37,1.81.34.48,1.89.13,4.94,1.42,6.51.85-.6.99-2.56,1.31-3.49.47-1.39,1.11-2.75,1.99-3.94,1.02-1.39,2.74-1.95,4.34-2.43.97-.29.8-.36,1.68.31.79.6,1.43.94,2.49.71,1.41-.3,2.52-3.11,4.11-2.31,1.82.92,1.19,3.53,3.51,1.29,1.62-1.56,3.17-3.25,5.24-4.17,1.06-.47,1.93-1.06,2.92-1.64.74-.42,1.77-.39,2.38-.83-.63-.66-2.41-.77-3.28-.93-3.39-.62-6.39-.41-9.78.03-3.91.5-7.71.05-11.6-.46-3.31-.44-6.74-.34-9.96-1.26-4.93-1.4-8.21-4.9-12.41-7.58-2.05-1.3-5.11-1.5-7.5-3.57Z"/>
          <path class="cls-19" d="M502.36,67.07c-1.09-.84-1.72-2.15-2.86-2.93-.75-.51-2.14-1.48-3.07-1.44-1.99.08-4.19,2.91-4.7,4.65-.32,1.09.28,2.58.48,3.62.48,2.43.07,4.65-.06,7.09-.3,5.6-.45,11.22-.72,16.83-.11,2.25-.53,5.04.2,7.22.88,2.64,1.83-.11,2.22-1.45,1.06-3.58,1.39-7.12,1.52-10.84.08-2.2.04-4.42,1.21-6.38,1.07-1.8,1.77-1.82,2.21.23.15.71.05,1.87.48,2.45.55.75.29.58,1.06.16.98-.53,1.23-1.28,2.46-1.22,1,.05,1.98.2,2.4,1.07.37.78.11,2.25.07,3.12-.09,1.99-.22,3.96-.2,5.96.01,1.34-.53,5.85.71,6.82,1.45-1.12,2.02-3.98,2.47-5.61.62-2.22.49-5.19,1.49-7.29.58-1.2,1.08-.94,2.21-.9.96.03,2.16-.3,3.06.03,2.17.81,1.99,5.46,4.94,3.28,1.01-.75,1.71-1.82,2.77-2.52.43-.28,1.7-1.22,2.23-1.09.65.17,1.02,1.13,1.65,1.48.73.4,1.1.17,1.58,1.04.75,1.33.34,8.56,1.89,8.65.91.05,2.32-3.12,2.71-3.73.69-1.1,2.04-3.66,3.58-3.41.94.16.96.66,2.1.53,1.18-.13,1.78-.2,2.89.32,1.7.79,1.52,2.03,2.22,3.62.61,1.41.95.95,1.82-.21.5-.67.95-1.59,1.67-2.06.73-.48.9-.27,1.69-.26,1.15.02,2.45-.95,3.58-.62,1.08.32,1.14,1.31,1.7,2.12,1.17,1.71,2.12-.15,2.69-1.46.5-1.15.67-2.39,1.13-3.54.24-.6,1.06-1.24,1.22-1.77.47-1.63-1.67-1.28-2.65-1.14-2.9.41-5.45.72-8.38.17-4.45-.84-8.51-3.15-12.76-4.65-3.61-1.28-7.33-1.92-10.95-3.07-4.49-1.44-8.57-4.1-12.5-6.63-3.14-2.02-6.5-3.93-9.46-6.21Z"/>
          <path class="cls-41" d="M478.17,74.9c-.78,2.58-.96,5.72-1.34,8.37-.42,2.91-.17,5.88-.42,8.81-.08.98.05,2.6-.81,3.2-1.25-1.16-.02-5.25-.03-6.71,0-1.59.06-5.57-1.55-6.54-.75.39-.59,1.28-1.05,1.88-.54.7-.97.4-1.67.6-1.92.56-1.64,3.24-2.21,4.84-.3.85-.8,1.01-1.34,1.63-.79.91-.89,1.83-.98,3.02-.15,2.03-.31,4.08-.62,6.09-.17,1.08-.34,2.9-1.32,3.65-.75-.33-.85-1.76-.98-2.47-.46-2.41-.58-4.85-.77-7.28-.16-2.02-.25-4.06-.55-6.05-.1-.69-.14-2.48-.79-2.94-1.59-1.15-2.19,3.3-2.54,4.24-.6,1.58-1.18,2.2-2.83,2.3-1.48.09-1.78.36-2.09,1.91-.3,1.45-.27,2.97-.52,4.44-.28,1.7-.85,3.29-1.37,4.92-.9,2.83-1.63,5.76-2.74,8.52-.86,2.13-1.91,4.12-2.39,6.39-.17.8-.26,4.07-1.41,4.21-1.36.17-1.51-5.44-1.55-5.93-.48-7.15,1.11-14.72-.94-21.74-.2-.69-.69-3.36-1.77-2.68-.99.62-.47,2.81-2.02,2.98-1.62.17-3.09-2.44-3.75-3.58-1.23,1.3-.08,4.18-1.25,5.61-1.84,2.26-3.2-4.05-3.5-4.86-.4-1.1-.91-2.46-2.11-2.85-.91-.3-1.42-.25-2.27-.86-.84-.6-1.76-1.16-2.85-1.02-1.32.17-2.3,1.34-3.64,1.47-2.37.22-5.39-1.77-6.97-3.35-.78-.79-1.63-1.8-2.61-2.35-.86-.48-1.9-.43-2.79-.84-1.83-.85-2.66-2.17-4.61-.61-.75.6-1.58,2.69-2.45,2.79-.78-1.47-1.19-3.14-2.1-4.54-.29-.45-.57-1.04-1.16-1.07-.5-.02-.8.64-1.33.57-1.07-.15-1.88-2.16-3.04-2.62-1.09-.42-2.31-.75-3.46-.96-1.08-.2-2.29.02-3.25-.59-1.77-1.12-3.3-3.78-5.64-3.43-1.12.17-2.37,1.21-3.47.83-1.44-.51-1.55-2.45-1.74-3.68-.12-.81-.17-1.75-.72-2.42-.32-.39-1.04-.6-1.15-1.13-.03-.14.52-1.89.64-2,.33-.33.54-.19.98-.15,1.97.2,4.49,1.35,6.23,2.24,3.73,1.89,6.77,4.84,10.57,6.57,4.42,2.01,9.65,2.09,14.39,2.84,2.87.46,5.79.88,8.6,1.67,2.88.81,5.66,1.98,8.56,2.74,5.2,1.37,10.25.37,15.52.38,4.76,0,9.62.67,14.35-.19,3.1-.56,6.07-1.81,9.15-2.52,3.85-.89,7.62-1.59,11.15-3.4,1.25-.64,2.23-1.76,3.56-.92,1.04.66,1.13,1.42.78,2.59Z"/>
          <path class="cls-51" d="M427.65,99.95c.58.02.79-.41,1.22.17.61.82-.53,3.06-.81,3.81-.91,2.5-.48,5.15-.96,7.74-.18.99-.06,5.56-1.54,5.64-.51-.91-.43-5.14-1.49-5.37-.98-.22-.95,2.08-1.18,2.67-1.72-.04-.91-3.47-2.1-4.13-.49-.27-1.5.14-2.14-.21-.49-.27-1.11-1.13-1.37-1.59-.48-.86-.43-.93.55-1.77,1.84-1.57,3.85-2.82,5.57-4.54,1.19-1.19,2.92-1.52,4.24-2.43Z"/>
          <path class="cls-5" d="M324.13,75.3c-1.21-1.27-1.05,1.14-.98,1.72.18,1.45-.44,2.92-.57,4.38-.05.56-.26,1.49,0,1.97,1.8-.14.98-1.99,1.92-2.79,1.25-1.07.92,1.3,1.27,1.81.25.36,1.1.39,1.46.75.71.69.55,1.46.44,2.39-.06.54-.38,1.34-.24,1.89.19.7.39.47.84.92.41.41.95,2.03,1.38,2.18.89.29,1.4-1.65,1.89-1.84,1.12-.46,2.41,1.1,2.61,1.96.31,1.36.05,3.21,0,4.59-.09,2.61-.33,5.12-.1,7.74.25,2.86.07,5.91.5,8.72.24,1.57,1.45,3.57,2.86,1.73,1.84-2.4,1.17-7.08,1.57-9.91.21-1.49.7-4.63,2.4-5.25.67,1.32.42,4.23,2.31,3.82.76-.17,1.42-.91,2.29-1.07,1.01-.19,1.51.11,2.43.37,1.32.39,2.13-.21,2.72,1.45.8,2.25-.34,4.93.76,7.1.81,1.59,1.76.79,2.65-.37,1.15-1.52,1.48-3.24,3.09-4.29.3-.19,1.19-1.19,1.48-1.21.88-.07.97,1.64,2.1,1.49,1.33-.18,2.19-1.91,3.38-2.42,1.45-.62,2.62.31,4.06-.2.49-.17.86-.5,1.38-.6.52-.1,1,.07,1.51-.12,1.58-.6,2.17-2.88,2.95-4.16.73-1.22,2.21-3.29,3.81-3.35,1.44-.05,2.22,1.64,3.56,1.13,1.29-.49,2.13-2.57,3.24-3.44,2.07-1.63,4.3-3.28,6.6-4.54.92-.5,2.71-1.86,3.1-2.88-1.13-.57-2.6.13-3.72.41-4.49,1.12-8.99,2.44-13.54,3.33-5.3,1.04-10.63,2.23-16.05,2.25-5.61.02-11.66.08-16.93-2.12-4.4-1.84-7.89-5.39-11.92-7.88-1.81-1.12-3.49-2.19-5.07-3.62-.94-.85-2.06-1.64-3.47-2.02Z"/>
          <path class="cls-30" d="M325.48,89.28c.39.19.7.53,1.11.7.45.19,1.07.09,1.45.36,1.04.71.15,1.01-.56,1.42-.93.54-1.37.84-2.5.82-.91-.01-2.16-.56-2.93.1-.85.73-.74,2.75-1.78,3.34-1.47.82-1.36-1.47-2.17-2.07-1-.73-1.19.48-2.23.63-.54.08-.96-.42-1.51-.25-.67.2-.95,1.13-1.25,1.67-1.08,1.91-1.75,3.62-2.36,5.72-.61,2.11-2.36,2.5-3.38.34-.54-1.13-.38-5.13-1.77-5.63-1.05-.38-1.37,1.45-1.96,2.16-1.04,1.24-1.96,1.65-2.84-.02-1.14-2.17-1.2-3.77-3.46-5.05-.56-.31-1.09-1.01-1.6-1.24-.53-.25-.72-.04-1.23-.09-1.9-.22-2.45-1.54-3.54-2.94-.47-.6-2.4-1.7-2.13-2.54.33-1.03,2.91-.83,3.62-.8,2.86.13,5.71.51,8.49,1.17,2.78.65,5.47,1.7,8.38,1.56,2.17-.11,4.25-.41,6.43-.3,2.49.13,4.99.35,7.44.37.95,0,1.75.29,2.28.57Z"/>
          <path class="cls-27" d="M297.11,69.92c.87-.11,2.56.06,3.18-.4.71,1.39-1.33,2.18-1.84,3.1-.64,1.16-.05,3.43-1.61,4.02-.57-.8-.38-1.22-1.37-1.14-.48.04-1.77.61-2.17.98-.86.78-.98,2.21-1.56,3.16-.71,1.16-.86.8-1.65-.07-.96-1.05-1.32-.68-2.62-.33-1.39.38-1.75.97-2.92,1.68-1.46.9-1.86,1.44-2.44,3.13-.33.99-.94,4.12-2.09,4.53-1.95.68-1.82-2.62-2.07-3.56-.47-1.72-.72-.67-1.99-.72-1.12-.04-1.92-1.08-3.09-1.01-1.06.07-2.07.75-3.17.72-1.58-.04-2.75-1.39-4.36-1.54-1.45-.13-2.87-.16-4.3-.46-.7-.14-1.85-.44-1.14-1.28.43-.51,2.6-.15,3.23-.15,2.44,0,4.85.14,7.24-.4,2.28-.51,4.41-1.47,6.66-2.09,2.17-.6,4.42-.84,6.59-1.42,3.32-.88,6.15-3.09,9.22-4.54,1.46-.69,2.84-1.48,4.25-2.2Z"/>
          <path class="cls-34" d="M213.57,59.78s-.14.07-.21.43c-.17.91.24,1.74.31,2.67.13,1.75-.05,3.71-.13,5.47-.04.99-.46,2.93.41,3.65.33-.34.47-1.8,1.17-1.79.73.02.59,1.56.72,1.97.18.61.47.75.74,1.3.47.98.41,2.41.57,3.48.17,1.24.02,4.09,1.81,2.81,1.13-.81,2.81-1.8,4.24-.84,1.25-1.82,2.65.57,3.68,1.15,1.6.91,3.75-.33,5.41-.41,1.73-.08,3.38-.51,5.12-.53,1.26-.01,4.7.48,5.55-.49-.24-.89-2.63-.99-3.41-1.18-2.44-.59-4.96-.85-7.45-1.18-2.62-.35-5.24-1.23-7.6-2.43-2.03-1.02-2.74-2.83-3.98-4.61-1.15-1.64-2.33-3.17-3.33-4.91-.56-.98-1.09-1.94-1.84-2.78-.46-.51-1.26-1.04-1.78-1.78Z"/>
          <path class="cls-33" d="M172.27,60.5c-.31-.25-1.4-.85-1.78-.81-1.11.14-.52,1.82-.3,2.6.53,1.83.51,2.93.34,4.79-.15,1.57.08,3.23.49,4.74.75,2.85,1.22-1.32,1.67-2.13.91.36,1.09,1.62,1.44,2.44.45,1.06.71,1.21,1.59,1.75,1.04.65,1.55,1.56,2.42,2.39.58.54,1.26.69,1.75,1.3.81,1.02.6,2.98.83,4.19.16.83.45,3.8,1.15,4.47,1.33,1.27,2.73-4.1,3.84-4.63,1.28-.62,3.14-.5,4.48-.53.97-.02,1.68-.19,2.39-.9.99-.99,1.19-1.28,2.58-1.64,1.07-.28,1.82-.84,2.79-1.33,1.03-.52,2.98-.68,3.75-1.59,1.12-1.31-1.53-1.81-2.51-1.85-3.09-.1-5.78,1.52-8.87.6-5.59-1.66-10.18-5.08-13.24-10.03-1.03-1.67-2.65-3.1-4.8-3.85Z"/>
          <path class="cls-4" d="M197.22,42.18c.99-.17,2.24.84,3.29,1,.34.06,1.4-.07,1.62.03,1.08.52-.03,2.55-.1,3.33-.11,1.34,0,2.75-.05,4.11-.03.81.24,1.88-.19,2.59-1.92-.56-1.21-4.34-3.02-4.76-.43.6-.11,1.09-.83,1.19-.85.12-1.51-.81-2.48-.25-.83.49-.88,1.5-1.95,1.67-1.21.19-2.18-.89-3.29-1.12-1.16-.25-2.15.26-3.21.62-.92.32-2.47.34-3.22.9-1.15.85-1.44,3.93-3.5,2.71-.81-.48-1.18-1.48-2.2-1.73-.52-.13-1.25-.04-1.78.05-1.33.23-2.37,1.04-3.73.73-.92-.21-3.76-.61-3.4-2.05.25-1,2.6-.74,3.33-.83,3.16-.37,6.27-1.49,9.03-3.07,3.65-2.08,8.04-4.31,12.27-5.01,1.12-.19,2.39.32,3.43-.12Z"/>
          <path class="cls-7" d="M172.89,80.79c1.04.66,3.18.62,4.43.85.85,1.55-.4,2.53-.78,3.87-.22.8.12,1.69.26,2.46.23,1.25.23,2.46.23,3.72,0,1.63.35,4.54-.51,6-1.59-.91-.57-3.85-1.79-4.77-1.25-.95-1.07,1.82-1.35,2.71-.65,2.09-.97,4.02-1.23,6.22-.09.79-.06,4.58-1.52,3.14-.85-.84-.99-4.31-2.59-3.81-.98.3-1.69,2.54-2.23,3.32-.45.65-1.34,1.4-2.22,1.38-1.25-.03-2.23-1.77-3.55-1.06-.7.38-.72,1.04-1.67,1.29-1.03.26-2.03-.1-3.03.4-.87.43-1.6,1.21-2.41,1.74-.79.51-1.69.81-2.45,1.34-1.08.75-1.68,2.28-3.21,2.2-1.25-.07-2.15-1.22-3.48-1.37-1.22-.14-1.8.11-2.91.49-1.07.38-3.06.59-2.82-.96.19-1.28,2.46-2.55,3.36-3.08,2.13-1.27,4.54-2.04,6.94-2.59,5.01-1.15,9.6-2.58,13.46-6.08,2.43-2.21,4.37-4.73,5.72-7.7.86-1.91,1.8-3.92,2.86-5.73.57-.98.83-1.79,1.24-2.79.21-.53.52-1.12,1.24-1.16Z"/>
          <path class="cls-32" d="M133.15,111.03c-.18.53-.68,1.07-1.02,1.32-1.84,1.35-3.67,2.47-5.34,4.08-1.61,1.55-1.98,2.24-4.1,1.33-1.88-.81-1.86.4-3.43.82-1.23.32-2.09-.31-3.26.55-1.5,1.1-2.31,2.73-2.87,4.45-.26.82-1.09,5.08-2.2,5.28-1.41.25-1.91-2.78-2.11-3.69-.37-1.71-.55-4.24-2.2-5.29-1.08-.69-1.83-.05-2.99-.88-1.15-.81-2.01-1.64-3.27-.65-.56.44-.69,1.24-1.5,1.39-1.05.21-1.94-1-2.55-1.64-1.36-1.43-2.73-2.79-4.64-3.39-1.66-.52-3.37-.68-5.03-1.12-1.54-.41-2.91-.8-3.85-2.14-1.05-1.49-1.31-3.53-2.95-4.53-1.21-.74-2.57-.45-3.9-.75-2.73-.62-4.41-2.57-6.34-4.41-1.84-1.77-3.64-3.97-5.86-5.27-1.46-.86-4.41-1.82-5.17-3.46.71-.39,2.05.26,2.79.48,2.77.81,5.54,1.81,8.26,2.79,6.62,2.37,12.5,6.05,18.78,9.14,5.21,2.56,10.25,6.04,16.01,7.26,4.86,1.02,9.8,1.06,14.65.11,3.36-.66,6.55-2.06,9.96-2.48.69-.09,3.37-.7,3.92-.2.28.26.3.59.19.93Z"/>
          <path class="cls-14" d="M79.41,115.58c1.1-.13,2.91,1.47,3.86,2.05.94.57,1.88,1.02,2.91,1.41.93.35.96.29,1.22,1.42.31,1.36.43,3.09.09,4.44-.9-.28-1.55-1.67-2.08-2.41-.23-.33-.75-1.26-1.17-1.42-.35-.14-.53.09-.82.03-1.6-.34-2.91-1.36-3.42.89-.11.51.04,1.76-.45,2.04-.31.17-1.67-.3-2-.37-1.51-.33-3.21-.48-4.66-1.03-1.04-.39-.83-.65-.92-1.62-.05-.53-.3-2.12-1.03-2.29-.34-.08-.73.44-1.15.51-.96.15-1.59-.74-2.61-.21-.54.28-.77,1.17-1.44,1.23-.84.06-1.52-1.16-1.84-1.75-.63-1.15-.95-2.02-2.06-2.84-.94-.69-2.06-1.03-3.05-1.62,1.11-.98,4.57-.13,5.92-.08,3.31.13,6.49.81,9.77,1.12,1.41.13,3.92-.03,4.92.51Z"/>
          <path class="cls-13" d="M135.31,126.23c-1.21,0-2.58.03-3.07,1.33-.49,1.31.41,2.77.69,4.03.34,1.51-.64,4.74,1.92,4.01,1.34-.38,1.84-2.47,3.18-2.73,1.39-.26,1.88,1.45,2.97,1.92,1.83.79,4.06.36,5.08,2.46.38.78.59,2.96,1.42,3.37.91.45,1.78-1.13,2.18-1.72.83-1.22,1.37-1.56,2.76-.86.66.34,1.18.8,1.92.97.52.12,1.02,0,1.54.16,2.04.64,2.32,2.25,2.62,4.08.21,1.25.84,1.94,1.54,2.96.47.69.55,1.35,1.44,1.25,1.1-.12,1.8-1.49,2.93-1.66.78-.12,1.94.33,2.7.5,1.56.36,2.12,1.99,2.43,3.49.58,2.77.89,5.51,1.67,8.26.38,1.34.89,5.32,2.81,5.14,2.68-.25,2.73-4.61,2.78-6.47.04-1.4-.46-6.82,2.43-5.06,1.84,1.13,2.08,3.08,4.44,3.48,1.5.25,2.72.35,3.8-.88,1.2-1.37,1.39-2.9,3.4-2.93,1.19-.02,2.33.09,3.54-.1,1-.16,2.22-.25,3.12-.75.97-.54,1.39-1.48,2.46-1.9.99-.39,1.95-.5,2.89-1.03.97-.55,1.88-1.13,2.92-1.56,1.28-.52,3.08-.8,4.21-1.58,1.64-1.14-.11-1.75-1.28-1.73-2.02.03-4.1.58-6.1.84-5.79.74-11.99.06-17.73-.89-5.87-.97-12.14-1.68-17.78-3.61-5.71-1.96-11.38-4.07-16.87-6.6-2.74-1.26-5.34-3-8.11-4.15-1.94-.8-4.27-2.08-6.41-2.06h-.41Z"/>
          <path class="cls-50" d="M56.23,141.04c-.02,1.04,3.11,2.53,3.83,3.1,1.34,1.07,2.73,2.37,4.46,2.77.66.15,1.44-.04,2.06.14.62.18,1.09.72,1.64,1.03,1.67.93,3.5.76,5.34.73,2.18-.03,4.24-.78,6.42-.74,1.01.02,1.99.24,2.99.31,1.04.08,2.13-.15,3.13.21,1.35.49,2,2.02,3.48,2.27,1.51.26,2.64-1.17,4.02-.29,1.55.99,2.17,2.34,3.11-.11.6-1.58.36-3.47,1.43-4.87.4-.52,1.71-1.26,1.4-2.08-.37-.99-3.52.34-4.3.55-3.26.9-6.4.64-9.73.91-3.3.27-6.8-.12-10.1-.41-4.02-.34-8.08-.95-11.99-1.93-.68-.17-7.15-3.07-7.18-1.6Z"/>
          <path class="cls-6" d="M103.28,147.09c-.18-.02-.36-.04-.54-.05-.35-.01-2.75.2-2.82.53-.14.65.25,1.25.4,1.87.33,1.36.27,2.74.71,4.09.49-.09,1.48.09,1.87-.14.89-.5.28-2.14,1.54-1.81,1.13.29,1.69,1.76,2.97,2.05.47.1.89-.03,1.41.12.88.27,1.7.92,2.4,1.49,1.02.84,1.75,1.7,2.45,2.8.77,1.21,1.76,2.09,2.3,3.45.53,1.31.74,4.18,1.95,5.05,1.44,1.04,1.17-.91,2.17-1.32,1.13-.48,2.34,1.1,2.99,1.79.95,1.01,2.1.71,2.99,1.71,1.06,1.2,1.32,7.57,3.75,7.39,1.83-.14,1.94-5.15,3.52-5.15.89,0,.99,1.65,2.09,1.55.87-.08,1.92-2.14,2.44-2.77,1.53-1.87,3.37-2.88,5.49-3.96,1.16-.6,2.2-.96,3.22-1.78,1.02-.83,2.37-1.25,2.89-2.55-3.04-2.37-9.16-.74-12.68-.85-6.21-.2-12.8-2.96-18.25-5.86-2.79-1.49-5.6-2.94-8.4-4.4-2.11-1.11-4.43-2.93-6.88-3.25Z"/>
          <path class="cls-22" d="M118.59,170.59c.42-.14.85-.08,1.2.43.46.67.09,1.84.09,2.59,0,1.35.14,2.55.42,3.86.37,1.78.26,3.42.46,5.19.1.9.51,2.52-.05,3.31-1.07-.39-1.2-2.13-2.39-.88-.73.77-.47,1.01-1.56,1.51-1.06.48-1.68.9-2.12,2.07-.37,1-.54,5.39-2.1,4.78-1.12-.44-2.16-3.09-3.6-1.41-.49.57-.66,1.89-.9,2.6-.39,1.14-.35,2.12-.38,3.3-.04,1.41-.77,5.08-2.47,2.88-1.18-1.54-1.7-3.49-2.91-5-.89-1.1-1.13-.96-2.13-.27-.85.59-1.52.65-2.53.82-1.21.21-2.21.87-3.39,1.1-3.68.7-5.87-3.65-9.47-3.72-.78-.02-1.54.17-2.32.13-.69-.04-1.51-.4-2.2-.25-1.17.25-1.55,1.21-2.92,1.14-.62-.03-.56.18-1.15.21-.83.04-2.17-.88-2.47-1.68-.27-.72.07-1.24-.27-1.94-.26-.54-1.17-1.4-1.77-1.58-1.06-.31-1.5.42-2.25.86-1.39.81-2.5-.14-3.66-1.09-1.13-.93-1.88-1.73-3.45-1.41-.93.19-1.91.58-2.83.83-1.32.36-3.32,2.63-4.69,1.98-.85-.4-1.43-2.15-2-2.87-.69-.89-1.68-1.7-2.26-2.66-1.06-1.78-.84-4.27-1.8-6.18-.99-1.96-3-2.62-4.52-4.05,2.28-.25,5.47.6,7.68,1.26,3.22.96,5.47,2.79,8.14,4.71,1.99,1.42,4.08,2.25,6.42,2.89,6.76,1.84,13.53,3.2,20.51,3.77,3.82.31,7.73.82,11.56.65,2.54-.12,4.69-.94,7.01-1.91,3.26-1.38,7.49-3.45,9.08-6.83,1.23-2.61.69-6.03,2.77-8.26.32-.34.75-.72,1.19-.87Z"/>
          <path class="cls-18" d="M107.16,205.53c1.04-.36,2.47-.02,3.39-.4.04.76.16,1.54.14,2.31-.05,1.52-.74,2.88-.9,4.38-.22,2.03.63,3.51,1.07,5.38.3,1.3-.14,2.06-.91,3.1-.78-.6-2.9-6.85-4.24-4.15-.24.49-.07,1.13-.26,1.65-.18.49-.52.78-.78,1.22-.45.73-.48,1.67-.93,2.35-.69-.23-1.26-.94-2.02-1.01-.74-.07-.77.36-1.37.48-1.75.35-4.11-1.56-5.75-2.02-2.16-.6-3.93-1.47-5.96-2.41-1.7-.78-3.59-.81-5.27-1.48.3-.75,1.71-.84,2.42-.95,2.69-.43,5.51-.3,8.22-.28,3.6.03,7.7.91,10.09-2.41,1.06-1.47,1.67-4.19,3.06-5.77Z"/>
          <path class="cls-25" d="M116.68,198.18c-1.29.29-2.59.32-3,1.55-.26.77-.1,1.36.17,2.15.37,1.09.7,2.18.99,3.3.3,1.16.33,2.67.85,3.75.52,1.09,1.72.83,2.35-.3.3-.55.18-2.02.79-2.28.78-.33,1.83,1.19,2.16,1.66.64.92,1.31,3.17,2.58,3.32.88.1,1.5-.79,2.17-1.2.97-.59,1.19-.25,2.23-.14.86.1,1.38-.26,2.22-.48,1.07-.28,2.13-.25,3.22-.2,2.54.12,4.45-.73,7,.1,1.54.5,3.31,1.59,4.4-.01.46-.68.36-1.13,1.28-1.29.98-.16,1.58.48,2.26,1.04,1.79,1.47,2.91.58,4.94.69.93.05,1.76.59,2.68.65.81.05,1.48-.34,2.28-.04,2.59,1.01,3.36,4.6,5.63,6.09,3.43,2.25,3.97-2.53,4.88-4.71.94-2.27,2.87-2.57,4.17-.37.84,1.41,1.32,3.17,2.04,4.64.78,1.61,1.19,3.53,2.2,5.01.97,1.42,1.64.52,2.24-.79.94-2.06.7-4.27.57-6.46-.07-1.11-.28-3.04.89-3.67,1.07.69.51,2.33,1.86.93.88-.91,1.44-1.41,2.7-1.71,1.17-.28,2.23-.12,3.36-.32.46-.08,1.06-.71,1.53-.56.74.23.79,1.8.85,2.35.23,2.22-2.23,16.97,1.56,16.09,3.06-.71,3.06-6.53,3.3-8.88.19-1.82.22-5.38,2.23-6.36.42,1.32.98,3.27,2.28,1.48,1.15-1.58,1.47-3.6,2.66-5.17.49-.64,1.21-1.64,2.15-1.18.99.48.66,2.18,1.71,2.67,2.06-1.82.91-6.49,1.23-8.96.16-1.25.54-4.88-1.4-4.88-1.15,0-2.48,1.63-3.27,2.31-2.35,2.02-4.76,2.91-7.85,3.08-3.68.21-7.32.47-11,.75-3.58.28-7.12-.44-10.67-.75-7.81-.68-15.59-.26-23.4.24-6.48.42-13.13,1.61-19.62,1-3.75-.35-7.9-.95-11.3-2.65-.96-.47-1.85-1.43-3.1-1.51Z"/>
          <path class="cls-53" d="M123.45,224.02c-.83-.86-6.92-6.66-6.63-2.55.12,1.74-.02,3.61.26,5.33.28,1.71,1.06,3.31,1.4,5.02.26,1.33.32,4.25,1.3,5.25,1.79-.4.38-3.98,2.2-3.82.69.06,1.8,1.38,2.33,1.9,1.73,1.68.6,4.07,1.55,6.19.54,1.2,1.17,2.18,1.48,3.48.28,1.19.23,2.79.81,3.89-.32-.62.17-4.48,1.18-4.58,1.5-.14.8,2.15,1.32,2.8.73.91,1.79-.34,2.58.43.75.74.65,2.26.69,3.22.06,1.42.21,2.71.57,4.1.19.74.68,3.22,1.65,3.52,1.4.42,1.52-1.72,1.59-2.62.05-.6.07-2.66.72-2.98,1.16-.56,1.11,2.38,1.67,2.94,1.31,1.32,2.69-1.27,4.02-1.23,1.03.03,1.45.35,2.5,0,1.04-.34,1.85-.76,2.98-.59,1.76.26,2.31,1.23,3.38,2.38,1.18,1.25,2.65,1.22,4.02.37.92-.57,1.6-1.37,2.73-1.55,1-.17,1.73-.08,2.72-.43.86-.31.86-.61,1.67.08.73.61.88,1.64,2,1.73,2.14.17,3.33-3.27,4.72-4.4.57-.46,1.16-.87,1.84-.46.52.31.37,1.27,1.02,1.39.33.06.97-.49,1.3-.59.67-.21.92-.17,1.58-.59,1.32-.87,2.02-1.79,2.99-2.98.96-1.18,2.06-.88,3.26-1.6.9-.54,1.75-1.58,2.33-2.44.41-.62.55-.68.28-1.28-.53-1.2-3.23-1.39-4.24-1.35-5.13.19-10.2,1.95-15.35,2.24-2.75.16-5.52,0-8.28.11-2.67.12-5.2.07-7.81-.57-3.12-.77-5.68-2.81-8.23-4.67-2.39-1.74-4.81-3.43-7.15-5.25-1.91-1.48-3.96-2.74-5.75-4.38-1.84-1.68-3.45-3.65-5.19-5.44Z"/>
          <path class="cls-11" d="M116.68,241.97c.54.63,1.56,1.26,1.94,1.97.56,1.03.87,2.96.79,4.12-.17,2.71-.36,5.39-.36,8.11,0,1.37.69,4.7-.14,5.84-1.08,1.47-1.83-.56-1.96-1.57-.26-1.99-.15-4.92-1.71-6.43-.49.29-.44.98-.67,1.44-.58-.12-1.21-.91-1.82-.73-.69.2-.71,1.61-.75,2.14-.08,1.23.08,2.41-.32,3.6-.38,1.14-.83,1.97-.9,3.21-.07,1.27.34,3.36-.49,4.46-.81,1.06-1.45.58-1.94-.44-.81-1.7-.83-3.78-1.52-5.54-.32-.82-1.04-2.93-2-3.19-.17.41-.21.86-.56,1.13-1.04-.47-1.63-1.71-2.72-2.2-.95-.43-1.64-.05-2.6-.07-.74-.01-1.74-.22-2.42-.52-1.05-.47-1.42-1.41-2.26-2.11-.55-.46-1.45-1-2.18-1.01-.88-.02-1.42.7-2.25.83-1.03.16-2.05-.54-3.01-.8-1.02-.28-1.45.09-2.42.17-1.92.16-3.1-2.15-4.75-2.87-.93-.42-4.96-.6-4.83-1.87.09-.93,3.27-1.09,3.89-1.13,3.65-.23,7.67.34,11.23,1.14,5.05,1.13,10.46,3.79,15.56,1.51,3.48-1.56,6.35-4.32,8.51-7.41.76-1.1,1.27-2.75,2.66-1.78Z"/>
          <path class="cls-39" d="M101.88,262.26c.68.1,1.03-.28,1.57.02,1.21.67.59,3.3.71,4.48.05.45.91,2.93.5,3.38-.96,1.04-2.46-1.73-3.08-2.1-.12.18-.27.74-.42.84-.46.31-.5.01-1.01.21-1.12.43-.93,1.5-1.82,2-.73.41-2.49-.15-3.25-.3-1.07-.21-2.38-.76-3.43-.21-.96.5-1.17,1.38-2.39,1.44-1.07.06-2.23-.31-3.25-.58-1.63-.43-2.99-.38-4.61.11-1.23.37-2.63,1.18-3.83.25.71-1.96,4.21-2.4,5.86-2.67,3.63-.59,7.04-1.68,10.54-2.79,1.81-.57,7.55-1.04,7.92-4.06Z"/>
          <path class="cls-2" d="M227.75,195.18c-.72,1.03-2.09,1.51-2.86,2.49-.77.98-.4,2.09-.14,3.27.43,1.96.15,3.33-.46,5.24-.67,2.11-.79,4.25-.86,6.45-.07,2.04-.19,4.09-.14,6.13.03.99,0,2.43.62,3.24.82-.45,1.04-1.75,1.25-2.59.6-2.43.59-4.85.99-7.29.06-.33.11-1.32.47-1.52.32-.18.44.12.72.07.28-.05.49.06.83-.05.49-.17.75-.78,1.27-.91,1.62-.42,3.22,1.09,3.88,2.32.84,1.56,1.04,1.22,2.51,1.67.74.23.88.37,1.65.17.78-.2,1.38-.84,2.18-.2,1.13.91,1.26,4,1.41,5.28.44,3.7.52,7.58.44,11.3-.03,1.38-.87,4.75.04,5.98.94,1.27,2.61-.04,3.36-.9,3.65-4.25,2.62-10.99,6.48-15.11.98-1.04,1.41-.95,2.07.18.67,1.14.59,1.5,1.83.95,2.16-.97,2.66.02,4,1.68,1.37,1.71.6,4.76.36,6.88-.28,2.51-.8,5.02-.92,7.55-.05.92-.49,4.07.51,4.68,1,.62,2.64-1.31,3.12-1.92,1.84-2.33,2.55-5.13,3.31-7.94.76-2.82,1.57-5.96,3.14-8.46.67-1.07,1.34-2.3,2.1-3.25.65-.8,2.43-2.4,1.9-3.41-.73-1.39-5.52-1.32-6.79-1.6-4.44-1-8.4-3.17-12.46-5.16-5.31-2.59-10.71-5.15-16.13-7.49-2.45-1.06-4.69-2.16-6.27-4.38-.53-.75-.92-1.52-1.62-2.12-.45-.39-.96-.63-1.76-1.19Z"/>
          <path class="cls-9" d="M279.58,222.08c-1.09-.27-2.04-.08-2.56,1-.7,1.47.39,3.95.58,5.43.42,3.28-1.07,5.87-1.41,9.03-.16,1.46-.91,12.48,2.88,8.31,2.49-2.73,1.53-7.03,2.93-10.23.94-2.13,1.35-.59,2.48.22.4-.24.85-1.16,1.34-1.22.75-.09,1.21,1.23,1.48,1.71.52.96,1.03,1.79,1.37,2.84.25.78.39,2.34,1.09,2.81.84-.69,1.35-2.02,2.75-1.39,1.24.56,1.09,2.62,1.29,3.79.18,1.05.15,3.51,1.55,2.56,1.44-.98,1.71-3.81,2.6-5.24.8-1.28,1.28-1.59,2.64-1.53,1.43.06,1.72-.45,2.71-1.45,1.4-1.41,3.45-3.28,5.31-3.97-.16-.78-2.02-1.13-2.65-1.32-2.1-.63-4.2-.56-6.36-.47-5.98.23-10.04-3.29-14.23-7.12-.9-.81-3.61-3.2-5.78-3.75Z"/>
          <path class="cls-37" d="M312.12,244.25c-.11-.08-3.16,1.56-3.96,1.87-.47.18-.55-.13-.93.55-.77,1.38.86,3.56.85,5.09-.02,2.21-.39,4.39-.3,6.62.1,2.4,1.52.75,2.14-.61.52-1.13.97-3.49,2.32-1.67.27.36.28.89.61,1.21.29.29.87.49,1.22.78,1.28,1.08,1.52,2.48,2.17,3.91.61,1.32,1.58.71,2.11,2.27.92,2.67.43,5.95.53,8.73.06,1.57.04,5.55,2.64,4.06,1.19-.68,1.61-2.17,1.98-3.37.23-.75.43-2.36,1.16-2.82,1.18-.75,1.87.81,3,.72,1.36-.1,1.07-1.24,2.12.16,1.28,1.7,1.44.87,2.41-.88.75-1.35,1.66-3.45,3.48-3.54.75-.04,1.21.26,1.98.07.67-.16,1.44-.39,2.1-.6,1.56-.47,2.85-1.53,4.34-2.17,1.42-.6,3.09-1.24,4.3-2.18-1.08-.96-3.51-.76-4.84-.88-2.85-.25-5.55-.06-8.39-.05-2.37.02-4.83.23-7.13-.48-2.45-.76-4.35-2.26-6.02-4.18-2.85-3.28-5.02-7.02-7.82-10.34-.64-.75-1.42-1.85-2.06-2.29Z"/>
          <path class="cls-57" d="M385.62,249.63c.24.53,0,1.04-.08,1.61-.19,1.41.11,2.81.04,4.23-.11,2.14-.86,3.86-1.4,5.9-.36,1.36-.1,3.63-.9,4.73-1.48-.95-2.21-6.41-4.21-5.46-.99.48-.79.94-1.91.99-.92.04-1.39-.3-2.15.53-.81.88-1.1,3.29-2.43,3.64-1.43.38-2.12-1.76-2.94-2.53-1.52-1.43-4.84-2.33-6.8-2.72-.76-.15-5.12.34-5.05-.78.06-.94,3-.97,3.5-1.05,3.03-.47,6.06-.92,9.1-1.38,2.83-.43,5.66-1.26,8.09-2.84,1.43-.92,2.24-2.18,3.33-3.43.62-.71,2.62-2.89,3.8-1.44Z"/>
          <path class="cls-38" d="M391.7,248.05c-.02.31.1.67.42,1.09,1.31,1.73,1.75,2.76,1.6,5.05-.12,1.84-.36,4.11.69,5.77,1.24,1.97,2.17-.97,2.49-2.12.17-.61.25-1.81.69-2.31.27-.3.59-.11.86-.38.83-.87.77-1.65,1.87-2.15.45-.21,2.01-1.1,2.42-.94,1.17.46.46,3.36,1.71,3.97.94-.84,1.45-2.22,2.35-3.17.52-.55,1.09-1.19,1.8-1.48.52-.2,1.1-.1,1.59-.32,1.09-.5,1.57-1.85,2.91-1.87,1.03-.01,1.62.86,2.7.65,1.16-.22,1.5-1.12,1.92-2.1.58-1.38.92-2.38,2.15-3.28,1.87-1.38,2.96-2.58,3.71-4.83.29-.87.51-1.77.85-2.62.15-.37.55-.77.58-1.2.05-.78-.1-.92-.87-.79-.27.04-1,.79-1.22.94-1.36.92-2.95,1.3-4.39,2.02-1.41.71-2.63,1.67-3.92,2.58-2.25,1.58-4.44,3.53-7.12,4.37-4.24,1.33-8.66.47-12.93,1.41-1.16.25-2.78.7-2.86,1.71Z"/>
          <path class="cls-8" d="M203.53,151.91c-.46.22-1.17.48-1.66.5-.42.02-1.12-.38-1.5-.09-.84.62.3,2.17.63,2.82,1.28,2.54,1.04,5.76,1.31,8.54,1.21-1.29,1.34-5.11,3.33-2.31.74,1.04.38.89,1.45.66,1.26-.26,2.2-.41,3.45.13,1.43.62,1.67,1.3,2.08,2.8.59,2.16,1.45,4.24,1.95,6.42.77,3.39,1.07,6.9,1.6,10.33.27,1.74.46,5.09,1.78,6.43,1.19-.66,1.5-3.39,1.7-4.57.43-2.52.35-5.02.27-7.57-.06-2.1-.54-6.85,1.11-8.48.39.71.68,2.45,1.72,2.38.84-.05,1.22-1.54,2.1-1.55.77,0,.78.94,1.37,1.16.49.19.82-.35,1.34-.21.94.27,1.58,2.67,1.86,3.39.79,2.06,1.33,4.19,1.9,6.32.65,2.43,1.09,5.22,2.16,7.51.55,1.16.86,1.47,1.82.42,3.63-4,.6-11.35,1.17-16.1.12-.99,1.63-7.11,3.32-4.25.92,1.55.84,3.95,1.34,5.7.38,1.33,1.38,2.88,1.27,4.3-.06.79-.37,1.77-1.26,1.32-.65-.33-.9-2.29-1.25-2.93-.54.95-.09,2.52.05,3.57.39,2.75.51,5.5.84,8.24.2,1.68.93,1.8,2.09.51,2.2-2.44,1.81-6.88,1.94-9.87.04-.88-.17-2.61.58-3.31.45-.43.98-.18,1.45-.47,1.64-1.02,2.23-4.21,3.37-5.75,2.99-4.04,3.8,4.05,5.47,4.85,4,1.9,2.4-9.15,2.96-11.26.13-.52.59-1.46.32-2-.33-.64-.52-.35-1.4-.34-3.35.02-6.86-.09-10.18-.48-4.87-.57-9.49-2.06-14.4-2.4-7.86-.54-15.65-1.38-23.36-2.9-1.36-.27-2.71-.11-4.02-.61-.62-.23-1.15-.58-2.02-.83Z"/>
          <path class="cls-42" d="M219.16,115.78c.67-.15,1.47,1.53,2.05,1.98.75.58,1.7.81,2.55,1.21,1.17.55,2.09,1.24,3.01,2.14.94.9,2.15,1.77,2.52,2.96.31.99.24,2.19.55,3.23.29.96.79,3.3,1.64,4.02,1.63,1.37,1.64-2.12,1.66-3.1.01-.49-.38-2.78.26-3.13.61-.32.86.44,1.44.47,1.18.07,1.49-1.43,2.62.02.74.95,1.35,5.39,2.63,5.63,1.44.27,2.23-3.68,2.43-4.53.43-1.8.99-2.77,2.09-4.15,1.72-2.15,3.42-4.38,4.97-6.67.71-1.05,1.28-1.93,2.25-2.78.78-.68,3.92-1.94,3.86-3.05-.14-2.77-6.22-.25-7.33.28-3.96,1.87-7.36,3.58-11.74,4.26-3.17.49-6.54,1.01-9.68.08-1.71-.51-3.38-1.07-5.2-.94-1.4.1-4.83.77-2.6,2.08Z"/>
          <path class="cls-10" d="M257.36,119.09c-.86,0-2.1-.16-2.69.62-.35.46-.33.67-.05,1.35.36.85.95,1.51,1.2,2.45.32,1.19.34,2.42.5,3.63.16,1.21.56,3.77,2.09,1.83.42-.53.29-1.47.78-1.93.62-.57.51-.14,1.19-.05,1.04.13,1.97-.03,2.68.87.69.87.88,2.02,1.02,3.08.3,2.11.53,4.19,1.03,6.28,1.07,4.51,1.47,8.97,2.09,13.54.45,3.24,1.23,6.32,1.32,9.59.03.94-.33,4,.46,4.62,1.93,1.53,1.5-4.56,1.51-5.06.03-3.87.38-7.74.41-11.62.01-1.54.08-9.62,2.57-9.8,1.98-.14,1.33,3.21,2.53,3.72.25.1,1.13-.14,1.48-.11,1.2.08,1.86.53,2.65,1.39.82.91,1.03,1.87,2.2,1.05.76-.54,1.13-2.21,1.44-3.04.48-1.28,1.22-5.96,3.18-5.15,1.72.71,1.91,4.64,2.07,6.05.34,3.12.35,6.26.61,9.39.25,3.07.55,6.16.43,9.24-.04,1.1.08,4.86-1.2,5.41-.83-.67-.99-2.45-1.21-3.44-.44-1.95-.78-3.98-1.04-5.96-.16-1.25-.14-5.01-1.6-5.56-.38.8.18,1.89.39,2.68.44,1.64.77,3.3,1.08,4.98.78,4.18,1.23,8.29,1.8,12.49.5,3.69,1.33,7.83,3.97,10.63,1.55-4.39,1.55-9.95,1.56-14.56.02-5.25.62-10.12,1.38-15.3.42-2.88.67-5.53,2.24-8.02.45-.71.95-1.68,1.82-.98.68.56.41,1.9.96,2.55,1.04-1.55,2-3.14,3.14-4.62,1.01-1.31,1.96-3.67,3.54-4.3.69-.28,1.4-.24,2.09-.55.36-.16.88-.8,1.34-.6.95.4.94,3.14.99,3.78.2,2.46.12,4.95.45,7.4.15,1.09.52,6.54,2.53,4.74,1.04-.93,1.56-2.99,1.89-4.3.53-2.12.86-4.37,1.73-6.39.79-1.83,1.52-1.33,2.89-2.3,1.32-.93,2.45-1.98,4.08-2.37.84-.2,1.61-.16,2.28-.85.73-.76.74-1.85,1.24-2.75.4-.73,1.1-1.23,1.47-1.91.4-.74.42-1.22-.19-1.72-.77-.63-2.74-.63-3.64-.76-1.79-.26-3.52-.35-5.32-.21-6.84.49-13.17-.95-19.89-1.92-6.34-.91-12.77-1.46-19.14-2.11-4.66-.47-9.19-1.67-13.78-2.54-2.37-.45-4.71-1.16-7.09-1.53-1.27-.2-2.88-.27-3.44-1.03Z"/>
          <path class="cls-58" d="M338.73,132.24c-.87.91-1.91,2.82-2.06,4.05-.16,1.3.66,2.99.78,4.28.2,2.05-.08,4.13-.15,6.17-.08,2.26-.08,4.53-.13,6.78-.02,1.13-.27,3.01.43,3.99,1.29-.13,1.75-3.27,1.93-4.15.52-2.57.42-5.22.93-7.79.12-.6.36-2.52.98-2.8,1.04-.47,1.72,1.84,2.31,2.56,1.9,2.33,2.6-.39,4.88.25.82.23,1.17,1.28,1.97,1.38.77.1,1.57-.66,2.38-.62,4.5.2,5.05,19.51,9.3,16.54,2.87-2,1.39-7.97,5.71-8.58,1.21-.17,2.03-.24,3.21-.67,1.8-.66,2.26-.01,3.52,1.24,1.71,1.69,2.61.56,3.9-1.15.99-1.32,3.23-4.26,5.09-4.38,1.31-.09,2.16,1.15,3.12,1.81.84.59,1.37.53,2.31.65.79.1,1.64.48,2.45.29,1.34-.31,2.29-1.88,3.36-2.67,2.13-1.59,4.72-2.17,7.1-3.29,1.92-.9,3.94-1.6,5.89-2.42,1.28-.54,3.85-2.21,1.33-3.08-2.01-.69-4.77.14-6.78.41-3.97.54-7.94.35-11.94.31-4.84-.06-9.73-.02-14.57-.29-4.03-.23-7.89-1.29-11.87-1.87-5.89-.86-11.54-1.83-17.08-4.04-1.87-.74-3.79-1.32-5.65-2.06-.97-.39-2-.74-2.63-.85Z"/>
          <path class="cls-26" d="M427.85,129.55c.69.73,2.81,1.6,3.81,1.57.08,1.07.38,2.15.39,3.24.03,3.06-.28,5.7.35,8.79.12.59,1.57,6.62-.56,4.97-.45-.35-.58-1.29-.79-1.8-.48-1.24-1.03-2.43-1.66-3.6-.63-1.18-1.41-2.81-2.46-3.7-.67.29-.63,1.2-1.37,1.49-.86.34-1.79-.57-2.72-.15-.94.42-2.55,4.43-3.51,3.89-.52-.29-1.07-2.27-1.48-2.79-.46-.58-1.06-1.29-1.68-1.72-1.42-.97-2.98-.12-4.5-.76-1.87-.79-.4-2.05.74-2.84,2.37-1.65,4.89-3.23,7.37-4.71,1.6-.95,3.52-1.36,5.36-1.59.75-.09,1.93-.44,2.69-.28Z"/>
          <path class="cls-61" d="M388.21,158.64c-.5-.27-.96-.66-1.53-.6-.85,1.33.66,3.71,1.03,5.03.97,3.43.36,7.26,1.11,10.7,1.28-1.01,1.5-3.81,2.85-1.76.44.67.77,1.7,1.52,2.06.31.15.81-.02,1.17.1.69.24,1.08.76,1.46,1.34.76,1.16.91,2.58,1.55,3.8.52.98,1.09,1.73,1.44,2.79.62,1.86,1.22,2.97,2.77.98.63-.81,1.04-1.6,2.1-1.88,1.13-.3,2.36.18,3.51.1,1.36-.09,2.62-.39,3.76.64,1.46,1.32,1.73,3.94,1.71,5.76-.01,1.29-.43,3.2.37,4.35,1.07,1.53,2.55.42,3.32-.79,1.21-1.9,1.42-4.59,3.2-6.12,1.44-1.24,2.56-.57,4.21-.27,1.52.28,2.05-.46,3.37-1.06,1.43-.65,3.13-.64,4.65-.34,1.91.37,4.54,1.21,6.04,2.48.81.68,1.42,1.56,1.93,2.47.3.54.65,1.7,1.32,1.89,2.04.6,2.2-5.04,4.95-1.75,1.32,1.58,1.63,3.67,2.06,5.61.2.91.73,3.77,1.95,3.95,2.8.42.9-9.43.79-10.72-.31-3.58.5-7.03.53-10.57,0-1.17.18-2.64-.11-3.79-.65-2.55-3.57-1.09-5.23-.4-10.19,4.2-22.23,1.42-32.11-2.43-6.72-2.62-13.56-5.35-19.95-8.71-1.36-.71-2.79-1.29-4.05-2.01-.58-.33-1.25-.71-1.7-.83Z"/>
          <path class="cls-52" d="M446.9,141.14c-.4-.45-1.54-.78-2.16-.81-.34.54-.16,1.16-.07,1.8.36,2.51.88,4.79.88,7.34,0,1.41.06,2.79.11,4.2.02.71-.19,2.05.19,2.69,1.34,2.29,1.71-1.66,1.93-2.29,1.04.41,1.43,1.97,2.48,2.55,1.44.81,1.96,1.62,2.21,3.35.43,2.9.79,5.66,1.52,8.53.53,2.09.6,5.66,1.99,7.41.42-.43.52-1.25.66-1.85.53-2.24.84-4.53,1.38-6.77.5-2.07.84-6.77,2.76-8.19,1.67-1.24,2.45,1.64,3.86.07.54-.6.67-1.44,1.3-1.97.65-.55,1.53-.62,2.34-.78,1.26-.24,2.55-.43,3.82-.57,1.38-.15,2.59.33,3.99.06,1.38-.27,2.49-1.09,3.82-1.49,1.52-.45,3.21-.39,4.78-.39,2.81,0,6.35,1.24,9.05.09,1.07-.46,1.45-.83,2.63-.48,1.24.37,1.92.88,3.2.17,1-.55,1.64-1.6,2.5-2.34.7-.61,2.46-1.44,1.97-2.58-.9-2.07-7.13-1.36-8.63-1.29-6.8.32-13.44.93-20.26.6-6.79-.33-13.57-1.07-20.16-2.79-2.01-.53-4.01-1.25-5.73-2.44-.78-.54-1.31-1.3-2.36-1.83Z"/>
          <path class="cls-15" d="M454.87,117.13c-.61.25-1.27.25-1.95.54,0,3.06.62,5.91.08,9.02-.09.52-.72,3.19.3,3.18,1.18,0,1.24-3.41,1.79-4.16.94.16,1.17,1.32,1.64,1.98,1.23-1.82,3.27,2.6,3.8,3.27,1.5,1.89,3.23-1.09,5.12-1.33,2.18-.27,4.56.59,6.76.63,2.16.04,4.35-.63,6.51-.91,1.26-.16,8.1.4,6.48-2.43-1.12-1.96-5.95-1.86-7.77-2.02-3.64-.31-7.33-.65-10.88-1.57-3.68-.96-7.19-3.01-10.32-5.16-.56-.39-.92-.69-1.56-1.06Z"/>
          <path class="cls-35" d="M573.81,113.09c1.07.42-.24,1.82-.66,2.29-1.53,1.71-3.97,1.61-5.27,3.4-.94,1.29-2.36,2.4-3.08,3.84-.47.94-.96,4.19-2.33,2.57-.67-.79-.77-2.33-1.65-.87-.73,1.23-.47,3.04-1.08,4.37-.29.63-1,3.31-1.68,3.46-1,.21-2.2-3.08-3.06-3.68-1.14.47-1.79,1.61-2.79,2.22-.52.32-.93.35-1.26.92-.53.91.11,1.27-1.12,1.09-.79-.12-1.24-.74-2.11-.45-.73.25-1.07,1.1-1.76,1.4-.83.35-2.01.13-2.89.17-.97.05-1.87.16-2.77-.34-.88-.5-1.33-1.77-2.36-2.05-.94-.26-.81.19-1.52.62-1.1.69-1.7.13-2.92.13-.96,0-1.38.53-2.18.91-1.1.51-2,.16-3.07-.36-1.25-.6-2.41-1.37-3.69-1.91-1.27-.53-2.25-.51-3.59-.65-2.07-.22-4.64-.5-6.61-1.17,1.36-1.45,5.46-1.24,7.32-1.41,4.87-.44,9.73-.27,14.61-.43,4.28-.13,8.33-.75,12.26-2.5,3.22-1.44,6.1-3.28,8.97-5.33,3.92-2.8,7.72-4.39,12.28-5.82,1.3-.41,2.89-.97,4.01-.41Z"/>
          <path class="cls-24" d="M577.62,94.23c.14,2.08,7.02,2.81,8,3.01,1.88.38,3.64,1.07,5.49,1.51,1.84.44,4.76-.6,6.28.61.76.6,1.12,1.65,1.53,2.49.17.34.59,1.78.98,1.93.86.34,1.7-1.02,2.08-1.76.19-.37.38-1.75.71-1.93.61-.33.72.42,1.3.54,1.07.24,1.77-1.07,2.94-1.22,1.68-.22,2.26,1.21,3.56,1.96,3.62,2.09,5.65-2.2,8.06-4.03.91-.69,1.92-.59,2.85-1.13.91-.52,1.45-2.5,2.7-1.76.94.56.8,2.11,2.18,2.09,1.45-.02,3.16-2.35,3.94-3.32.96-1.2,2.08-3.42,3.83-3.43.53,0,.99.33,1.52.31.64-.02,1.36-.34,1.98-.49,2.93-.67,4.42-2.9,6.96-4.26,1.21-.65,2.3-1.49,3.45-2.24.75-.48,1.43-1.02,2.25-1.39.69-.3,1.45-.39,2.06-.83-2.07-1.81-5.89-.68-8.19-.14-5.87,1.37-11.75,2.76-17.61,4.15-6.41,1.53-12.26,4.71-18.64,6.38-5.38,1.41-10.88,2.31-16.44,2.35-2.76.02-5.56-.07-8.31-.32-1.15-.1-4.34-1.14-5.2.1-.2.3-.28.57-.27.82Z"/>
          <path class="cls-48" d="M590.59,103.05c1.05.69,2.37.67,3.56.63.57-.02,1.37-.34,1.62.4.2.58-1,2.23-1.16,2.85-.18.66.14,3.66-.69,3.58-1.2-.12-.32-2.39-.8-2.8-.6-.51-1.56.59-2.02,1-.43.38-.55.65-1.09.86-.59.23-.9-.09-1.45.37-.74.63-.96,2.76-2.33,2.34-.96-.29-1.28-2.02-2.26-2.48-.94-.45-1.1-.11-1.75.54-1.4,1.4-3.31,1.6-5.2,1.84-.37.05-1.81.67-2.08.5-.72-.45.59-2.4.83-2.79,2-3.28,6.42-4.65,9.83-5.88,1.47-.53,3.63-1.26,4.98-.96Z"/>
          <path class="cls-36" d="M564.66,130.57c-1.04-.25-2-.03-2.72.97-.46.63-.32.71-.03,1.49.35.94.84,1.77,1.09,2.77.21.85.21,1.89.68,2.66.7-.5,1.08-1.55,1.86-1.98.44.5.66,1.11.83,1.74,1.27-.3,3.06.65,4.04,1.49,1,.85,1.11,1.73,1.53,2.89.36,1,.82,1.2,1.65,1.84,2.43,1.87,2.61,4.49,3.42,7.21.17.58.78,3.11,1.56,3.24,1.07.17,1.09-1.42,1.16-2.06.09-.8,0-3,1.13-3.2,1.21-.22,1.67,1.58,2.4,2.14.34.26,1,.48,1.43.77.79.54,1.39,1.38,2.13,1.88,1.8,1.22,3.96-.03,5.13,2.17.8,1.49,1.29,3.28,1.66,4.92.33,1.47.32,3.6,1.23,4.83,1.5-2.08,1.02-7.3,4.35-7.89,1.42-.25,1.83,1.31,2.59,2.26.56.71,1.39,2,2.26,1.36,2.07-1.53-1.26-7.8-3.01-8.66-1.53-.75-3.75-.45-5.4-.89-3.77-1.02-7.35-3.45-10.62-5.5-4.73-2.97-8.97-6.19-12.79-10.27-1.15-1.24-4.68-5.48-7.55-6.17Z"/>
          <path class="cls-23" d="M604.77,164.26c-.63-.02-1.13.1-1.34.44-.55.86.32,2.27.44,3.15.07.5-.11,2.02.5,2.18,1.13.31,1.59-2.25,2.39-2.6.78-.35,2.39.29,3.28.28,1.5-.02,2.82.67,4.23,1.18,1.59.57,2.57,1.5,3.95,2.47,1.68,1.18,1.82.7,3.28-.26,2.29-1.5,5.42-.28,7.89-.05,1.16.11,2.33.4,3.48.57,1.15.16,1.67.13,2.74-.09.66-.13,1.37-.02,2.05-.13,1.17-.19,2.28-.71,3.44-.97.76-.17,3.58,0,3.89-.91.57-1.7-6.96-1.48-7.49-1.5-6.29-.2-12.41-1.32-18.66-1.92-1.92-.18-3.84-.47-5.76-.62-1.29-.1-2.66,0-3.92-.28-.74-.17-2.91-.91-4.39-.95Z"/>
          <path class="cls-49" d="M584.38,162.67c.93,1.1,3.2.09,3.93.46,1.15.59.3,2.96.2,3.85-.08.75.66,4.73.12,4.78-1.15.12-.75-2.56-2.13-1.83-.64.34-.46,1.11-.78,1.66-.46.8-.58.55-1.44.61-1.85.13-2.92,2.05-3.73,3.64-.53,1.03-1.06,4.51-2.59,4.22-1.25-.23-1.58-2.24-3.01-2.38-1.16-.12-1.05.56-1.29,1.5-.36,1.42-1.43,2.46-1.87,3.89-.28.9-.61,1.54-1.09,2.33-.78,1.3-.78,2.32-.83,3.82-.04,1.25-.51,7.83-2.77,6.5-1.38-.81-1.86-3.22-2.22-4.62-.27-1.05-.43-3.38-1.37-4.11-.26-.21-1.38-.28-1.67-.26-.32.02-.44.37-.94.33-.83-.07-1.54-.96-2.22-1.36-1.29-.76-2.59-.23-4.05-.14-2.17.13-2.76-1.23-4.43-2.3-.44-.28-.92-.29-1.36-.51-.72-.37-1.23-1.1-1.84-1.63-1.51-1.29-3.41-2.07-4.79-3.51,1.71-.71,4.67.15,6.31.62,3.06.87,5.69,1.93,8.88.98,3.26-.97,5.32-2.91,7.84-5.01,2.4-1.99,5.41-2.2,8.29-2.98,3.12-.84,6.93-3.42,8.64-6.22.42-.68.83-2.75,2.18-2.32Z"/>
          <path class="cls-45" d="M575.15,194.25c-.1.04-.2.11-.32.22-1.19,1.09-.75,3.49-1.17,4.91-.65,2.2-1.52,4.41-1.78,6.7-.28,2.43-.44,4.58-.44,7.04,0,1.57-.24,3.04-.53,4.57-.12.66-.55,1.64-.11,2.22,2.06-1.13,2.68-4.91,3-6.96.1-.62-.05-2.58.84-2.74.88-.15,1.13,1.41,1.77,1.56.67.16.41-.4,1.02-.51.82-.14,1.32.72,1.67,1.31.53.88.58,1.93,1.05,2.82.51.97.5.97,1.37.55,2.11-1.01,2.69-3.02,5.29-1.5,1.21.71,2.73,1.72,4.12,1.99.87.16,1.38-.34,2.2-.54.99-.24,2.28-.17,3.28-.08,2.75.25,4.01,1.9,6.21,3.21,1.27.75,2.62,1.32,3.89,2.11,1.33.83,2.49,1.45,4.07,1.06,1.09-.27,1.4-.1,2.49.11,1,.2,1.59-.06,2.54-.18,1.69-.2,3.07,1.15,4.83,1.21,1.44.05,2.78-.69,4.02-1.35,2.16-1.16,3.5-1.83,6.05-1.84,1.22,0,2.67.22,3.81-.36,1.19-.61,1.23-1.41.09-2.03-1.71-.94-4.76-.63-6.64-.82-5.24-.55-10.38-1.65-15.57-2.53-8.74-1.48-17.58-2.54-25.24-7.34-3.81-2.39-8.97-6.28-10.58-10.75-.2-.55-.4-2.39-1.24-2.03Z"/>
          <path class="cls-43" d="M558.08,190.73c.31,1.16.21,2.38.47,3.54.27,1.23.91,2.33,1.4,3.48.42.98.56,1.51.31,2.58-.71,3.07-1.21,6.09-1.6,9.25-.15,1.17.38,10.4-2.39,7.42-1.73-1.86-.81-5.22-2.66-6.96-1.31-1.22-1.48.62-2.65.81-.48.08-1.06-.55-1.53-.36-.6.24-.51,1.05-.65,1.58-.35,1.35-1.34,1.73-2.28,2.65-.7.69-1.2,1.41-2.23.95-1.19-.53-1.21-1.62-2.54-.61-1.31,1-1.9,2.03-3.63,2.39-2.27.46-3.9-.04-5.7-1.51-1.61-1.32-2.6-2.08-4.72-1.71-1.89.33-4.42-.34-6.08.7-1.4.88-1.87,2.56-3.76,2.8-1.9.25-3.15-2.02-4.16-3.27-1.86-2.29-3.44-4.57-6.51-4.69-1.06-.04-1.89-.46-2.93-.6-.97-.13-1.82.19-2.76.39-3.29-1.06-3.79,8.2-7.76,6.02-1.36-.75-1.32-2.95-1.74-4.23-.42-1.27-1.2-4.01-2.33-4.89-.72-.56-.94,0-1.7-.21-1.37-.38-2.11-2.63-3.52-3.27-4.17-1.87-3.66,4.37-4.16,6.67-.33,1.53-.92,2.96-1.42,4.42-.61,1.82-.43,4.68-1.61,6.18-2.4,3.06-3.45-5.69-3.51-6.72-.15-2.32-.15-4.6-.63-6.89-.28-1.35-.59-3.59-1.99-4.13-.32-.12-.53.15-1.02-.11-.66-.34-1.13-1.32-1.79-1.74-.51-.33-1.13-.42-1.64-.77-1.12-.78-1.39-2.2-1.74-3.43-.68-2.36-1.58-4.77-1.88-7.2-.15-1.16-.34-2.28-.6-3.4-.24-1.04-.46-3.07.24-3.96.72-.92,2.24-.54,3.15-.21,1.63.59,3.09,1.68,4.47,2.7,2.42,1.79,4.77,3.48,7.47,4.86,3.65,1.87,7.5,3.5,11.53,4.33,4.71.98,9.29,1.65,13.88,3.21,7.76,2.64,15.4,5.24,23.37,7.2,2.86.71,5.74,1.22,8.66.62,3.26-.67,6.3-2.21,9.2-3.78,3.93-2.12,7.1-4.62,9.89-8.1.44-.55,3.36-3.63,3.79-2Z"/>
          <path class="cls-47" d="M456.43,208.22c.91.05,2.03-.77,2.84-.41.51.22.46.5.58.94.2.77-.05,1.78.02,2.58.07.96.28,1.9.35,2.86.08,1.12-.27,2.01-.36,3.11-.15,1.78.46,3.49.34,5.28-.16,2.35-.17,4.69-.06,7.05.05.96.66,4.81-.84,5.22-1.82-2.23.57-7.34-2.36-9.12-.38.33-.36.81-.61,1.25-.38.64-.72.76-1.27,1.18-1.76,1.36-1.2,3.57-1.78,5.56-.26.89-1.22,4.08-2.28,3.73-1.47-.48-1.52-3.03-3.26-2.3-.41.17-.84.71-1.28.93-.6.3-1.27.39-1.85.74-1.77,1.07-1.97,2.94-2.63,4.71-2.09,5.51-6.13-3.19-7.9-4.06-.38.68-.34,2.11-1.11,2.5-1.16.59-1.99-1.06-2.31-1.86-.98-2.51-2.16-4.19-3.95-6.19-.75-.84-1.63-.74-2.64-1.12-1.07-.4-1.98-.83-3.11-1.07-1.59-.34-5.69-.86-5.71-3.14-.03-3.17,12.09.48,13.45.76,2.57.53,5.22,1.19,7.78.27,2.66-.96,4.99-3.11,7.22-4.8,3.91-2.95,6.65-6.52,9.57-10.39.87-1.16,1.91-3.46,3.18-4.21Z"/>
          <path class="cls-16" d="M400.94,197.15c-1.16,3.01-4.73,3.59-6.59,5.86-1.05,1.29-1.38,3.21-2.98,3.97-1.14.55-2.41.22-3.56.61-2.99,1.02-2.97,4.44-4.76,6.49-2.15,2.47-3.91-4.29-5-5.37-1.38-1.37-3.05-.34-4.65-1.07-1.15-.52-1.86-1.73-3.12-2.11-.99-.3-2.14-.34-3.16-.6-1.45-.36-3.14-.26-4.53-.75-1.4-.5-2.13-1.98-3.24-2.9-1.43-1.18-3.04-1.3-4.77-1.79-1.18-.33-3.39-.8-4.16-1.83,1.24-1.44,4.72-.95,6.36-.84,4.05.27,8.26.84,12.2,1.83,3.97,1,7.96,3.28,12.16,2.93,2.58-.21,5.11-1.17,7.42-2.31,3.27-1.62,6.11-2.42,9.74-2.59.83-.04,1.7-.22,2.63.46Z"/>
          <path class="cls-29" d="M306.32,264.02c.9.52,1.71.68,2.49,1.55,1.33,1.49,1.31,2.09.94,3.97-.35,1.76-.27,3.95-.2,5.73.06,1.45.16,2.84.11,4.3-.02.72.18,1.74-.24,2.35-2.3-.19-1.93-5.8-5.01-3.16-1.6,1.38-1.12,3.48-2.24,4.97-.48.64-1,.48-1.59.91-.88.66-.99,1.84-1.17,2.85-.28,1.57-.42,3.17-.54,4.76-.1,1.41.15,3.85-.6,5.06-1.72,2.75-4.16-3.1-4.68-4.43-.54-1.38-2.16-5.85-4.25-5.37-.55.13-.78.66-1.45.69-1.03.03-1.89-.84-2.72-1.32-2-1.16-2.35.54-3.17,2.14-1.46,2.85-3.2,1.42-4.85-.66-1.87-2.36-3.02-4.35-5.72-5.88-2.12-1.2-4.43-1.24-6.45-2.6-1.79-1.2-3.69-2.45-5.6-3.45-2.06-1.07-5.79-.9-7.24-2.85-2.06-2.76,6.66-1.4,7.62-1.29,3.34.37,6.58,1.02,9.78,2.03,3.86,1.21,7.56,2.75,11.66,2.76,7.64.03,14.4-3.19,19.58-8.73,1.11-1.18,3.28-4.16,5.55-4.34Z"/>
          <path class="cls-56" d="M312.74,286.9c-1.29-.66-2.84-.9-4.13-.59.04,2.31.57,4.69.74,7.01.29,3.84-.9,7.6-.75,11.47.05,1.34-.01,5.53,1.2,6.5,1.48,1.18,1.89-1.56,2.14-2.65.41-1.79,1.31-6.67,3.68-4.02.19-.25.45-.63.73-.84,3.36,1.95,2.68,7.8,3.33,11.03.24,1.18.66,4.34,2.39,4.39,1.6.05,1.49-2.57,2.64-3.27,1.4-.85,2.33.85,3.28,1.63,1.19,1,1.5.34,2.71.72,1.41.45,2.26,2.37,3.36,3.27,1,.81,1.52.61,2.65.19,3.08-1.16,5.68-1.2,8.19,1.03,1.57,1.39,3.63,2.21,5.6,1.05,1.31-.78,2.02-1.31,3.61-1.19,1.61.13,2.37.09,3.79-.74,1.88-1.09,5.39-2.45,7.59-2.12,1.35.2,2.53,1.15,3.88,1.34,1.4.2,2.83-.39,4.11-.88,1.82-.68,3.31-.8,5.24-.51.81.12,3.41,1.05,4.02.34-1.69-3.6-6.95-6.28-10.43-7.54-6.11-2.21-12.63-.91-18.94-1.77-7.42-1.01-15.33-3.38-21.92-6.98-4.43-2.42-7.54-6.07-10.37-10.16-1.9-2.74-5.3-6.11-8.33-6.72Z"/>
          <path class="cls-60" d="M295.57,304.54c1.42-.18,2.77.34,2.58,2.08-.17,1.58.16,3.15-.06,4.7-.09.66-.36,1.21-.23,1.89.11.58.57,1.08.68,1.65-1.31-.48-1.53-2.4-2.24-3.42-.66-.94-.48-.41-1.07-.53-1-.2-3.78-.87-4.13-1.97-.23-.73,1.45-2.66,1.94-3.2.55-.62,1.55-1.07,2.52-1.2Z"/>
          <path class="cls-1" d="M294.63,316.3c.77.33,1.59,1.24,2.4,1.69.55.31,1.55.55,1.96,1,.78.88.15,2.72-.03,3.78-.27,1.59-.41,3.15-.37,4.77.04,1.59.49,3.28.36,4.85-.28,3.5-3.1-.88-3.83-1.79-2.13-2.65-2.31.68-4.45,1.42-1.46.51-2.25.38-3.4,1.54-.87.88-1.7,1.66-2.82,2.22-1.07.54-2.13.77-3.09,1.52-.74.58-.81,1.04-1.6.42-.97-.77-1.19-2.23-2.35-2.96-.9-.56-1.66-.53-2.62-.07-2.51,1.2-4.52,3.31-6.97,4.55-2.71,1.37-6.2,1.04-9.14,1.06-2.14,0-4.04.96-6.15.94-1.85-.02-2.04-.68-3.17-1.87-1.16-1.23-2.71-1.73-4.32-2.05-.91-.18-2.98-.07-2.79-1.55.11-.85,1.16-1.13,1.81-1.3,2.51-.67,5.33-.49,7.91-.6,7.61-.33,15.24-2.72,22.17-5.73,3-1.3,6.15-2.5,8.78-4.48,1.61-1.21,3.13-2.59,4.7-3.86,1.42-1.15,2.74-2.83,4.55-3.28.75-.19,1.95-.57,2.46-.23Z"/>
          <path class="cls-46" d="M239.45,336.28c2.22,1.47-3.98,2.14-4.29,2.26-1.74.63-1.95,2.24-2.14,3.91-.13,1.12.23,2.95-.41,3.87-1.91-1.05-2.28-4.6-4.62-5.06-1.83-.36-3.13,1.15-4.79,1.18-1.32.02-2.59-1.3-3.61-2.01-1.24-.86-2.54-1.35-4-1.72-2.55-.64-6.08.31-8.43-.89.36-3.42,6.84-1.73,8.66-1.31,4.17.97,8.42,1.23,12.69.81,3.44-.34,7.06-3.04,10.95-1.04Z"/>
          <path class="cls-21" d="M226.1,347.66c.29,0,.55.08.84.09.57.04,1.4-.31,1.86-.24,1.99.32,1.3,3.51,1.64,4.82.12.48,1.85,2.93.85,2.88-.7-.02-1.48-1.48-2.03-1.83-1.07-.68-.59-.19-1.49.25-.78.38-1.45-.07-2.29-.04-1.08.04-2.25.76-3.25,1.13-1.02.38-1.92.77-3,.44-1.05-.31-1.49-1.2-2.38-1.7-1.64-.92-3.67-1.1-5.49-.83-.62.09-2.46.43-2.9-.17-.62-.87,1.17-1.56,1.83-1.85,3.71-1.65,8.41-3.17,12.51-2.8.55.05,2.57-.25,3.32-.15Z"/>
          <path class="cls-54" d="M388.72,321.37c2.62-.5,6.2.17,8.81,1.45,1.41.69,1.64,1.36,1.95,2.82.25,1.21.79,2.2,1.23,3.34.45,1.18.41,4.55,2.2,4.71,1.88.17.69-5.84,1.33-7.18,1.23.13.88,1.55,2.11.31,1.18-1.18,1.86-3.09,3.08-4.16.84-.73,1.65-.26,2.31-1.28.39-.61.49-1.4.8-2.06.81-1.76,2.61-3.03,4.33-3.92,1.9-.98,4.08-1.2,6.09-1.84,2.06-.66,3.4-2.33,5.28-3.19,1.64-.73,3.5-.74,5.16-1.55,1.76-.86,3.46-2.04,5.36-2.58.85-.24,1.17-.26,1.84.31.28.23.51,1.11.9,1.14,1.12.08,1.26-2.8,1.27-3.44.09-2.81-.66-5.28-1.27-7.95-.22-.97-.45-1.9-1.42-2.37-2.09-.99-4.69,2.18-6.13,3.28-5.47,4.21-11.1,6.53-17.86,7.95-6.43,1.36-13.25,1.2-19.49,3.41-2.84,1.01-4.01,2.56-4.74,5.37-.41,1.55-.97,2.2-1.86,3.42-.58.79-.84,1.78-1.36,2.63-.27.44-.9.33.1,1.34Z"/>
          <path class="cls-64" d="M417.98,325.59c-.05.02-.1.05-.15.09-1.36.88-2.24,4.03-2.69,5.51-.61,2.01.29,3.68.96,5.54.36,1,.32,1.84.38,2.86.77-.71,1.14-1.94,1.5-2.91.3-.82.42-2.9,1.42-3.1.93-.19,1.82,1.41,2.58,1.69.76.28,1.48-.14,2.27.21,1.54.67,1.69,2.14,2.47,3.39.78,1.26,1.26.99,2.41.34,1.15-.65,1.94-1.14,3.29-.8,1.34.34,2.46,1.21,3.8,1.55,2.5.64,5.27,1.42,7.87,1.18,1.79-.17,3.08-.47,4.91-.08,1.94.42,3.85,1,5.79,1.41,1.63.34,3.34.67,4.94,0,1.77-.73,3-1.06,4.94-1.03,2.45.03,4.86.51,7.31.54,1.53.01,5.15.39,6.21-.95-.51-.91-1.92-1.29-2.81-1.7-2.24-1.03-4.59-1.74-6.96-2.38-6.16-1.66-12.38-1.19-18.62-2.19-4.83-.77-9.34-2.53-14.01-3.9-3.62-1.07-7.22-2.19-10.78-3.43-2-.69-4.82-3.07-7.01-1.83Z"/>
          <path class="cls-28" d="M439.17,286.86c.48.35,1.07.6,1.47.71,1.31.35,2.29.62,3.4,1.52,2.83,2.3,3.42,5.79,5.06,8.82.83,1.53,1.54.29,2.66-.57.59-.45,1.07-.94,1.85-.85.78.09,1.26.94,2.1.99.81.05,1.58-.45,2.39-.51.56-.04,1.23,0,1.78.06,1.48.14,3.11.68,4.57,1.03,1.73.41,2.81,2.09,4.63,2.18,2.41.13,3.99-1.87,6.05-2.69,1.9-.75,4.09-.37,6.07-1.14,2.08-.82,3.34-1.73,5.42-.23.94.68,3.35,2.22,4.04.22.25-.73-.21-1.89-.28-2.65-.07-.78.22-1.86-.04-2.59-.31-.89-1.19-1.07-1.99-1.38-4.19-1.62-8.28-1.44-12.73-1.44-3.15,0-6.32.11-9.47-.11-4-.28-7.96-.9-11.95-1.24-4.05-.34-7.62-1.26-11.54-2.16-.95-.21-4.03-1.2-4.37.45-.13.62.3,1.16.85,1.57Z"/>
          <path class="cls-44" d="M544.99,271.16s.04-.01.06-.02c.21-.09.67-.57.8-.59.38-.06.24-.32.64-.07.3.19.48,1.29.52,1.62.08.73-.08,1.48.02,2.24.13.99.58,1.88.7,2.87.15,1.23.09,2.53-.05,3.76-.19,1.59-.78,3.16-.79,4.78,0,1,.69,2.51.22,3.4-2.13-.84-1.37-4.42-2.6-5.98-1.32.34-1.3,2.3-1.84,3.32-.69,1.31-1.77.95-2.67,2.02-1.25,1.48-2.68,2.69-4.66,1.72-1.46-.72-2.76-1.01-4.37-.56-1.25.35-2.67,1.37-4,1.06-1.13-.26-1.67-1.43-2.82-1.57-.48-.06-.95.1-1.47,0-.77-.14-1.44-.47-2.23-.54-1.53-.14-2.97.38-4.5.17-1.12-.14-2.24-.28-3.37-.28-1.35,0-1.73.48-2.89.85-.59.19-1.25,0-1.79.34-.63.4-.77,1.3-1.15,1.89-1.11,1.75-4.2,3.06-5.55,1.03-.55-.83-.45-1.5-1.18-.78-.63.62-.95,2.1-1.42,2.85-.46.74-1.5,2.13-2.47,1.39-.81-.61-.87-3.41-.98-4.3-.17-1.41.02-2.79-.09-4.19-.08-1.01-.5-1.58-.92-2.48-.41-.91-1.97-3.11-.97-3.82.57-.4,2.36.24,2.96.4,1.14.31,1.97.83,3.01,1.33,2.2,1.05,4.51.77,6.84.61,2.92-.21,5.86-.24,8.74-.77,5.6-1.04,11.55-1.39,16.99-3.16,2.16-.71,3.81-1.8,5.35-3.48.9-.97,1.59-1.97,2.69-2.72,1.37-.93,2.58-1.83,4.21-2.21.33-.08.72-.04,1.04-.16Z"/>
          <path class="cls-55" d="M449.28,246.52c-1.12-.54-2.49-.2-3.5-.92-.3.24-.37.3-.73.42.12.34-.04.6-.02.98.07,1.24.51,2.37.74,3.58.28,1.51.2,3.05.12,4.57-.03.56-.22,2.24.49,2.57,1.99.92,2.46-4.44,4.4-2.46.49.5.63,1.46,1.25,1.83.5.3.65.01,1.1.1,1.14.22,2.22.97,3.17,1.67,1.34.99,1.6,2.1,2.4,3.45.46.78.65,1.05,1.47,1.08.93.03,1.79-.42,2.82-.24,1.77.31,3.08,1.46,4.61,2.29,2.72,1.47,6.04,1.68,8.86,3.02,2.73,1.31,4.92,4.35,7.94,5.03,1.02-1.17-2.47-4.66-3.07-5.31-2.27-2.47-4.93-4.26-7.73-6.07-5.3-3.44-10.7-6.68-15.91-10.27-1.9-1.3-3.98-2.25-5.84-3.57-.73-.52-1.58-1.29-2.58-1.78Z"/>
          <path class="cls-3" d="M558.18,262.78c-.39-.21-1.33-.41-1.95-.61-.17,3.16,1.27,5.93.73,9.13-.39,2.32-.01,4.58-.02,6.91,0,1.01-.21,2.73.32,3.6,1.12-.63,1.59-3.02,1.84-4.13.16-.69.11-2.4,1.12-2.46,2-.11,1.11,3.11,1.49,4.02.67,1.59,2.22.1,3.46.75.81.43,1.21,1.4,2.07,1.82.57.28,1.23.46,1.81.74,1.44.69,2.07.07,3.53-.17,1.17-.19,2.18.56,3.26.49.36-.02.69-.31,1.01-.45.65-.27,1.1-.31,1.78-.48,1.52-.39,2.5-1.95,3.97-2.42-.51-.61-1.94-.9-2.72-1.07-3.32-.72-5.82-1.1-8.62-3.31-3.59-2.83-7.42-5.75-10.59-9.06-.81-.84-1.14-1.54-1.64-2.48-.23-.43-.35-.73-.85-.82Z"/>
          <path class="cls-12" d="M516.83,34.75c0,.08,0,.16.02.25.16.88,1.29,1.07,1.84,1.73,1.24,1.49.84,4.06,2.64,5.19,1.4.88,3.33.06,4.9,1.35,1.16.95,1.26,2,1.9,3.36,2.25,4.77,2.67-.93,3.07-3.42.16-.99.56-4.59,1.98-4.88,1.33-.28.87,2.66.91,3.46,1.19-1.05,2.78,0,3.95-.87.56-.41.85-1.75,1.69-1.79.81-.04,1.22,1.01,1.92,1.24.91-1.75.86-4.01,1.11-5.87.34-2.41,1.76-5.79-2.07-3.34-5.53,3.53-11.9.92-18.08,1.66-1.2.14-5.76.05-5.78,1.96Z"/>
          <path class="cls-17" d="M546.59,26.76c1.31,1.47,3.98,2.79,5.72,3.65,1.65.81,3.64.17,5.11,1.54,1.05.97.85,2.39,2.41,2.89,2.15.7,4.18-1.51,6.42-1.2,2.47.34,4.38.78,6.84-.09,2.03-.72,3.65-1.53,5.85-1.87,3.08-.49,6.34-.17,9.52-.21,1.89-.02,6.32.95,7.6-1-1.73-3.05-9.78-1.49-12.64-1.67-7.98-.48-15.61-3.14-23.6-3.61-2.68-.15-11.02-1.3-13.24,1.56Z"/>
        </g>
      </g>
    </g>
  </g>
</svg>