<?xml version="1.0" encoding="UTF-8"?>
<svg id="Layer_2" data-name="Layer 2" xmlns="http://www.w3.org/2000/svg" viewBox="0 0 117.71 75.74">
  <defs>
    <style>
      .cls-1 {
        fill: #5c2f1c;
        fill-rule: evenodd;
      }
    </style>
  </defs>
  <g id="_Layer_" data-name="&amp;lt;Layer&amp;gt;">
    <g>
      <path class="cls-1" d="M64.95,72.3c0,.14-.29.28-.29.28-.28,0-.56,0-.71.14h-.42c-1.7,0-3.54.43-5.24.71-.14,0-.28.14-.56.14h-1.27c-.84-.28-1.56-.56-2.26-.85l-1.27-.57,1.27-.14c.57,0,.99-.14,1.55-.14,2.27-.28,4.53-.7,6.8-.85,1.41,0,2.83-.14,4.24-.14l1.55-.14-1.42.71c-.14.14-.28.29-.56.43-.43.14-.86.28-1.42.43h0ZM65.22,52.07c.14,1.7.28,3.11.43,4.39.14.14,0,.28-.15.42,0,0-.42,0-.42-.28-.13-.14-.28-.29-.28-.43-.14-.42-.14-.71-.29-.99-.28-3.4-.42-6.65-.14-9.91.14-.7.14-1.56.28-2.26,0-.28.14-.42.29-.71.13-.14.28-.14.42-.14,0,0,.13.14.13.28,0,.99,0,1.98-.13,2.97-.42,2.41-.14,4.67-.14,6.65h0ZM43.86,54.9c0,.43,0,.7-.14.99,0,0-.14.14-.29.28,0,0-.28-.14-.42-.28,0-.14-.14-.29-.14-.29-.14-.56-.14-1.13,0-1.69.14,0,.14-.14.14-.14.14,0,.29-.14.42-.14.14,0,.29.14.29.28,0,.28.14.7.14.99h0ZM47.67,46.4c0-.56,0-.85.43-1.13,0,0,.14-.14.29,0,.13,0,.28.14.28.14.14.43,0,.85-.14,1.13-.13.15-.42.29-.56.15-.14,0-.29-.15-.29-.29h0ZM49.38,39.33c0,.14-.13.42-.29.57,0,.14-.14.14-.28.14s-.29,0-.29-.14c-.28-.42-.13-.71.14-1.13.14,0,.29-.14.42-.14.15.14.15.28.29.42v.29h0ZM60.55,32.68s.15.14.29.14c0,.29-.13.42-.13.56,0,.29-.29.29-.43.29-.29-.14-.42-.29-.29-.56,0-.43.29-.57.57-.43h0ZM65.08,30.13s.29.14.29.29c.13.28-.14.71-.42.71s-.43-.28-.43-.43c0-.28.29-.57.56-.57h0ZM43.86,46.97s-.14,0-.14-.14v-.29c.14-.28.43-.42.57-.28.14.14.14.43,0,.56-.14.14-.29.14-.43.14h0ZM91.68,69.9h-.7c-1.84.28-3.54.28-5.24.14h-1.13c-2.12,0-4.25,0-6.23.14-1.13,0-2.12.14-3.11.14h-1.13l.85.71c.57.28.99.71,1.55.99h12.6c.84-.43,1.7-1.13,2.4-1.42.13,0,.42-.14.42-.14.57-.14.99-.14,1.7-.14.14,0,.28-.28.28-.28.99-2.12,1.7-3.25,2.97-5.23.14-.14.14-.43.29-.56.28-.29.28-1.56.14-1.84-.14-.28-.57-.56-.85-.43-2.55.43-5.09.14-7.64,0-.43,0-.56-.14-.71-.42-.71-1.27-1.42-2.55-2.12-3.68-1.27-2.41-2.69-4.67-3.81-7.21-1.28-1.98-2.27-4.11-3.25-6.22-.71-1.56-1.42-3.11-2.27-4.53-.71-1.7-1.42-3.26-2.4-4.82-.57-.99-1-2.12-1.56-3.25-.71-1.13-.85-2.41-.71-3.68.15-1.41.29-2.69.43-4.1.14-4.24,1.13-8.21,2.55-12.31.28-.14.57-.28.99-.42.29-.14.56-.28.71-.71.14-.57.85-.99,1.13-1.56.14-.42.14-.85,0-1.13-.28-.43-.85-.57-1.27-.43-1.55.71-3.25,1.42-4.67,2.4-2.26,1.42-4.53,2.69-6.92,3.82-.29.14-.57.29-1,.43-.99.56-2.12,1.13-3.11,1.7-.13,0-.29,0-.29-.14-.28-.99-.42-2.13-.14-3.11.29-.56.14-.99,0-1.42-.13-.28-.13-.56-.28-.7-.14-1.28-.28-2.69-.14-3.96.14-1.14.14-2.27.29-3.26,0-.57,0-.99-.14-1.56,0-.14-.14-.28-.28-.42-.29-.29-.85-.14-1.14.14-.13.28-.28.56-.42.84-.14.14-.28.14-.42.14-.29,0-.42-.14-.71-.29-1.7-.28-3.4-.42-4.96-1.13-.28-.14-.56-.14-.84-.14-.71-.14-1.27-.14-1.98-.28-.56-.14-1.13-.14-1.55-.14-.71-.14-1.27-.14-1.84-.14-.85-.14-1.56-.14-2.27-.28-.29,0-.42,0-.71.14-.56,0-.85.99-.42,1.41.14.14.28.28.57.42.84.57,1.84.85,2.55,1.42,1.7,1.28,3.68,1.98,5.52,2.83,1.13.42,2.27.85,3.4,1.42,1.13.42,2.26.99,3.25,1.84.14.99,0,1.84-.14,2.69-.42.57-.85.99-1.27,1.41-1.13.99-2.12,2.13-3.11,3.26-1.14,1.13-2.26,2.12-3.4,2.98-1.7,1.13-3.25,2.54-4.81,3.96-.84.7-1.7,1.41-2.55,2.26-.29.15-.56.29-.71.57-.71.99-1.7,1.84-2.69,2.55-1.98,1.27-3.82,2.83-5.52,4.53-.99,1.13-2.12,2.12-3.54,2.97-.42.29-.85.71-1.27,1.13-1.84,1.7-3.81,3.39-5.79,5.09-.85.71-1.7,1.56-2.55,2.13-.99.71-1.98,1.41-2.98,2.26-2.12,1.84-4.38,3.68-6.51,5.52-.7.71-1.55,1.28-2.26,1.99-.42-.15-.7-.15-1-.29-.99-.56-2.12-1.13-3.25-1.7-.71-.42-1.42.14-1.42.99-.13.71.14,1.27.99,1.56,1.7.56,3.4,1.27,4.96,2.12.99.56,1.97.99,3.11,1.27.99.43,1.97.85,2.83,1.56.85.71,1.7,1.13,2.69,1.27.71.14,1.42.56,1.98.85.71.28,1.41.57,2.12.85.42.14.7.57.84,1,.57,1.27,1.14,2.54,2.12,3.53,1,1.27,1.99,2.4,2.98,3.4.85.42,1.42.85,1.98,1.27.99.42,1.84.57,2.83.99.72.29,1.42.71,2.27.85h.85l.84-.14c.71-.14,1.28-.28,1.84-.56.43-.14.85-.28,1.42-.56l1.56-.71-2.55.14h-5.8c-.71,0-1.13-.29-1.55-.71-.14-.14-.29-.29-.29-.43.14,0,.29,0,.42.14.57,0,1.28.14,1.98,0,1.13,0,2.12-.14,3.25,0,1.42,0,2.97-.14,4.39,0h.56c.71-.14,1.56-.28,2.26-.28l.29-.14c.98-.29,1.97-.85,2.96-.85.85,0,1.56.29,2.27.56,1.98,0,3.68,0,5.52-.14h.85c1.7-.28,3.4-.28,5.24-.28,2.12-.14,4.38,0,6.65,0h3.25c.57-.14,1.14-.14,1.7-.14h1.7c1.42,0,2.69.14,4.11,0,.42-.14.84-.14,1.12-.14,1.98,0,3.96-.14,5.95-.14.57,0,1.27-.14,1.84-.14,1.42-.29,2.98-.14,4.38,0l-.14.14ZM47.83,58.86c-.29-.14-.43-.28-.43-.56-.14-.85-.28-1.56.14-2.26.13-.28.42-.43.56-.43.29,0,.57.29.71.43.14.43.14.7.14,1.13s0,.85-.14,1.13c1.13-.29,2.27-.56,3.53-.71.29,0,.57-.14.85-.14q-.14,0-.28-.14c-.14-.15-.29-.43-.29-.57-.29-.7-.43-1.27-.43-1.83-.13-.71-.13-1.42-.13-2.26,0-.57.13-1.27.13-1.84.14-.29.29-.56.43-.71.29-.14.56-.28.85-.14.13.14.42.29.42.56v.71c-.29,1.13-.14,2.26,0,3.39.14.71.29,1.28.29,1.84.14.28.14.42,0,.56,0,.14-.14.29-.14.29,1.56-.15,3.26-.29,4.95-.29-.14-.14-.14-.29-.29-.42q0-.14-.13-.29c-.14-1.84-.29-3.54-.43-5.24,0-.99-.14-1.98-.28-3.11.28-1.56.42-3.25.57-4.81.14-.56.28-1.13.7-1.56.15-.14.43-.14.57-.14.42,0,.84.43.7.71v.85c-.56,2.12-.7,4.24-.56,6.37,0,1.27,0,2.55.28,3.82.14.99.14,2.12.14,3.26,0,.14-.14.42-.29.56,2.27,0,4.53.29,6.8.71.71.14,1.27.28,1.97.42h.29c-.14-.56-.29-1.13-.42-1.55-.71-1.99-1.13-3.96-1.28-5.95,0-1.13-.14-2.41-.14-3.68,0-.28.14-.71.29-.99,0-.28.28-.43.42-.43.42-.28.71,0,.84.43v.56c0,1.99.43,3.82.43,5.66,0,.28.14.57.14.71.57,1.98,1.13,3.96,2.12,5.66.14.43.42.57.85.71.71.43,1.55.7,2.26.99-.14-.71-.56-1.27-.84-1.84-.57-.71-1-1.56-1.13-2.55-.42-1.56-.85-3.25-1.27-4.81-.42-1.55-.85-3.25-.85-4.81-.14-.57-.14-1.13-.29-1.7-.14-1.84-.42-3.68-.56-5.66,0-.43,0-.99-.14-1.56-.43-2.12-.29-4.39-.14-6.51.28-2.97.7-5.81.99-8.77.14-.42.28-1,.43-1.42.14-.99.28-1.98.42-2.97,0-.71.14-1.42.28-2.26.14-.28.29-.71.29-1.13,0,.14-.14.28-.14.43-.28.57-1,.43-1.42,0,0-.14-.14-.14-.14-.14-.28.14-.42.43-.56.71-.85,1.84-1.7,3.68-1.98,5.79-.29,1.42-.57,2.83-.85,4.39-.14.42-.28.71-.42,1.13-.14.28-.43.42-.57.28-.29,0-.43,0-.57-.28-.13-.28-.28-.57-.13-.85.28-1.56.56-3.11.84-4.67.29-1.83.85-3.53,1.55-5.23,0,0,.15-.14.29-.28-1.14.28-1.98.85-2.41,1.98,0,.43-.28.71-.42,1.13-.71,2.4-1.56,4.82-2.26,7.22-.15.29-.15.56-.29.99-.29.85-.57,1.7-.85,2.69-.14.14-.42.29-.7.29-.29,0-.57-.14-.72-.29,0-.28-.13-.56-.13-.84.13-.71.42-1.42.56-1.98,1-3.12,1.98-6.09,2.83-9.06.14-.14.14-.28.14-.28-.14,0-.28.14-.28.14-.57.29-1.14.71-1.7.99-.7.28-1.13.85-1.27,1.41-.71,1.42-1.27,2.69-1.7,4.11-.85,2.55-1.56,5.09-2.12,7.64-.7,2.97-1.42,5.95-1.84,8.91,0,.14-.14.42-.28.57-.14.14-.43.28-.57.14-.28,0-.56-.14-.56-.43-.28-.85-.14-1.7,0-2.55.56-2.12.99-4.1,1.42-6.23,0-.28,0-.56.14-.85.84-2.69,1.42-5.52,2.4-8.07.29-1.13.71-2.12,1-3.11-1.14.56-2.12,1.27-3.25,1.83-.43.14-.57.43-.85.85-.14.42-.42.99-.57,1.55-.29,1.14-.71,2.27-1,3.26-.28.7-.42,1.41-.56,1.98-.57,1.84-.99,3.68-1.42,5.52,0,.15-.14.29-.28.43-.14,0-.29.14-.42.14-.29.14-.57,0-.71-.42,0-.15-.14-.28-.14-.43,0-.42.14-.85.28-1.27.85-2.97,1.42-6.09,2.41-9.06,0-.14.14-.42.14-.56-.72.28-1.14.71-1.7,1.13-.28.57-.42.99-.57,1.42-.71,1.27-1.13,2.83-1.55,4.25-.57,2.83-1.27,5.52-1.84,8.34-.29,1-.57,1.98-.57,3.12-.14.43-.28.99-.28,1.41-.14.43-.56.56-.84.43-.29-.14-.43-.43-.43-.71s0-.71.14-1c.43-.99.57-1.98.57-3.11-.14-.42,0-.85.14-1.27.7-3.39,1.27-6.93,2.26-10.19-2.68,3.12-2.83,3.26-3.82,7.22-.14,1.13-.42,2.26-1,3.26-.13.42-.28.7-.28,1.13-.29,1.27-.71,2.55-.84,3.82-.57,2.97-1,6.08-1.14,9.2,0,.71-.14,1.27-.28,1.98,0,.85,0,1.56.14,2.4,0,.71.14,1.56.14,2.41.14.85.29,1.84.56,2.69.14.28.42.7.57.99h.28c.57-.57,1.27-.99,1.84-1.56,0-.43,0-.71.14-1.13,0-.28.28-.42.42-.56.28-.14.71,0,.99.28.28.28.28.43.7.28.29-.14.57-.28.85-.56.56-.28.99-.56,1.56-.71h0ZM28.01,68.48c2.56.14,4.96.29,7.51.29.7,0,1.42,0,2.12.14.85.29,1.7.29,2.55.14,1.27,0,2.55,0,3.96.14,1.27.14,2.68.14,4.1-.14,1.27-.14,2.55-.14,3.82,0h.28-1.13c-.14,0-.42,0-.57.14-2.12,0-4.38.14-6.5.28-2.41.29-4.68.14-7.08.14-.99,0-1.97.14-2.83.14-.43,0-.85.14-1.13,0-1.13-.14-2.41-.14-3.53-.29-.72,0-1.14-.42-1.57-.99h0ZM64.66,68.34c1.27,0,2.55,0,3.68.14-1.13,0-2.4-.14-3.68-.14h0ZM72.44,68.34h2.12-2.12ZM58.15,6.08v.71c-1.7-.85-3.26-1.27-4.95-1.98-1.55-.7-3.25-1.41-4.95-2.12-.29-.14-.42-.28-.71-.43.29-.14.56-.14.71,0,1.13.14,2.26.29,3.4.56,1.41.57,2.97.57,4.53,1,.42.28.84.28,1.41.28.43.14.43.28.43.7v1.27h.14ZM48.95,67.21c-.85,0-1.7.14-2.55.28h-.85c-1.27-.14-2.69-.28-3.96-.43,0,0-.14-.14-.14-.28s-.14-.42,0-.71c.7-.28,1.27-.28,1.55.29.14.14.29.28.42.42.43.57,1.14.57,1.42-.14v-.28c0-.14.14-.29.29-.29.7,0,1.42,0,1.98-.14.56,0,.84.14,1.13.56.14.28.28.42.57.71h.14ZM49.66,67.21c.13-.14.28-.29.28-.43v-.42c.14-.14.14-.29.29-.29.99-.14,2.12-.28,3.26-.14,0,0,.13,0,.13.14v.99h-.28c-1.27,0-2.55,0-3.68.14h0ZM71.59,65.51c.57,0,1,.14,1.56.14l.14.28c0,.29-.14.56-.42.56-.85.14-1.84.14-2.69.14-.28,0-.42-.28-.56-.57,0-.14.14-.42.29-.42.57,0,1.13-.14,1.7-.14h0ZM39.62,67.06c0,.14-.15.14-.15.14-.56,0-1.13-.14-1.84-.14-.99,0-1.27-.42-1.55-1.41.99.14,2.26.28,3.25.14q.13.14.13.28c.15.29.15.71.15.99h0ZM61.69,66.78c-.29,0-.71,0-1.14-.14q-.14,0-.28-.14c-.14-.28-.14-.56,0-.85.13-.14.28-.14.43-.14.56-.14.99,0,1.41-.14,1.13,0,1,.28.85,1.27-.42,0-.85,0-1.27.14h0ZM66.64,65.65h.7c.43,0,.57.28.57.71-.14.14-.28.14-.28.14-.85.14-1.7.14-2.41.14-.28-.14-.42-.42-.42-.57,0-.28.14-.56.57-.56.13,0,.29,0,.56.14h.71ZM56.31,67.06s-.28-.14-.42-.14-.43-.14-.43-.28c-.14-.28-.14-.71,0-.99.15,0,.43-.14.57,0,.56,0,1.13.14,1.7.14.56.14.71.43.71.99-.57,0-1.42.14-2.12.28h0ZM76.26,66.64c-.14,0-.57,0-.85-.14-.14,0-.29,0-.29-.14-.13-.14.14-.43.14-.57.85-.14,1.85-.14,2.69-.14.14,0,.29.42.14.57-.57.28-1.27.28-1.84.42h0ZM81.63,66.36h-1.27c-.28,0-.28-.29-.28-.57,0,0,.13-.14.13-.28.85,0,1.7,0,2.56.14.13.14.13.42.13.57,0,0,0,.14-.13.14h-1.14ZM86.58,65.37c.29,0,.71.14,1.14.14,0,.14.13.42,0,.56-.85.29-1.7.29-2.55.15-.14,0-.29-.29-.29-.43s.14-.28.29-.28c.57-.14.99-.14,1.41-.14h0ZM57.45,16.83c0,.29-.14.57-.14.85-.14.14-.29.42-.43.42-.28.29-.7.56-.99.71-.28.14-.57.29-.71.57.71-.85,1.42-1.7,2.27-2.55h0ZM34.37,66.92c-.42,0-.7-.14-1.12-.14-.72,0-.72-.28-.85-.99.29,0,.71-.14.99-.14.57-.14.71-.14.85.42.13.29.29.57.29.99,0-.14-.15-.14-.15-.14h0ZM91.54,65.93h-1.42c-.29,0-.42-.14-.42-.42.42-.14.84-.14,1.27-.14.14,0,.14.14.28.28,0,.14.14.14.29.28h0ZM93.1,65.51c.14-.14.14-.29.14-.29,0,0,0,.14-.14.29h0ZM30.7,66.64c-.42.14-.84,0-1.27,0,0-.28-.14-.71-.14-.99.57-.14.85,0,1.14.28.14.29.28.56.28.71h0ZM43.43,63.53c.57-.29,1.14-.71,1.7-.99.85-.57,1.84-1.13,2.83-1.55,1.7-.85,3.54-1.42,5.52-1.56.56,0,1.27-.14,1.97-.14l.15.14v3.4c.13.28.28.42.56.42.28.14.56,0,.7-.28.14-.29.43-.57.43-1,.14-.7.14-1.41.14-2.12v-.28c.14.71.14,1.56.28,2.4,0,.29.14.57.29.85.14.28.42.28.57.42-2.27,0-4.67.29-6.93.42-.43,0-.85.15-1.14.15-2.12-.28-4.1-.28-6.22-.28h-.86ZM59,63.1c.13,0,.42-.28.42-.43v-.85c0-.85,0-1.56-.14-2.26,0-.43.14-.56.57-.56.99-.14,1.98,0,2.97.14,1.13.14,2.12.43,3.25.43,1,.14,1.98.56,2.97.85,1.98.28,3.82,1.27,5.66,2.26-.28-.14-.57-.14-.85-.14-1.41.14-2.96,0-4.38.14-3.4.43-6.8.29-10.19.43h-.29ZM77.68,62.25c-.43-1.27-1.14-2.27-1.28-3.4-.13-.28-.28-.56-.42-.71-.99-1.42-1.42-3.11-2.13-4.67-.13-.28-.13-.71-.13-.99-.14-.42-.14-.71-.29-1.13-.42-1.27-.57-2.55-.71-3.68,0-1.13-.28-2.26-.42-3.25,0-.14,0-.29-.13-.42-.15-2.27-.43-4.53-.57-6.8,1.27,2.69,2.69,5.8,3.96,8.77.29.71.56,1.41.84,2.12.43,1.13,1,2.26,1.56,3.4.57,1.27,1.27,2.55,1.98,3.68.99,1.69,1.84,3.39,2.69,5.23.14.57.42.99.28,1.56v.29h-5.23ZM10.47,55.46c.14.14.29.14.43.29,1.55.71,3.25,1.41,4.95,2.12,1.55.57,1.42.57,2.69-.42.42-.43.84-.85,1.27-1.28.99-1.41,2.12-2.69,3.53-3.82.14-.14.29-.28.43-.57.98-.99,1.83-2.12,2.83-3.11.84-.99,1.7-1.84,2.55-2.69.85-1.13,1.98-2.12,2.83-3.12,3.26-3.82,6.5-7.5,9.76-11.32.14-.14.29-.28.42-.56.57-.57.71-1.13.85-1.84,0-.14-.28-.42-.28-.56-1.14.85-1.99,1.7-2.98,2.4-1.97,1.27-3.81,2.83-5.38,4.53-.28.28-.56.57-.84.85-.57.7-1.13,1.28-1.98,1.7-.42.28-.99.57-1.42.99-1.97,1.84-4.1,3.54-6.08,5.24-.28.29-.42.42-.57.56-.99,1-1.98,1.7-3.11,2.4-.85.57-1.56,1.14-2.26,1.7-2.55,2.12-5.09,4.25-7.65,6.37v.14ZM19.24,59c1.7-1.7,2.97-3.54,4.53-5.09,1.7-1.56,3.11-3.4,4.66-5.09,1.42-1.56,2.98-3.11,4.25-4.67,2.55-2.83,4.94-5.66,7.5-8.49.42-.57.85-1.13,1.27-1.56-.14.85-.29,1.56-.57,2.26-1.27,3.25-1.84,6.65-2.26,10.04-.29,2.26-.57,4.39-.71,6.51-.29,1.98-.13,3.82.14,5.8.14,1.42.14,2.97.71,4.39,0,.14.14.28.14.43h-.42c-.7,0-1.55,0-2.27-.14-1.41-.14-2.96-.28-4.38-.28-1.7-.14-3.4-.57-5.09-.99-2.55-.99-4.95-1.98-7.36-2.97,0,0-.14,0-.14-.14h0ZM25.6,65.37h.57c.84,0,.99.14,1.27,1.13-.42-.14-.84-.14-1.27-.43-.29-.14-.43-.42-.57-.7h0ZM51.5,20.8c-.57.56-1.14,1.13-1.7,1.56-.42.43-.84.57-1.27.71.72-.57,1.56-1.27,2.4-1.84.15-.15.43-.28.57-.43h0ZM73.85,37.92c.71,1.27,1.27,2.55,1.85,3.82,1.13,2.12,1.98,4.25,3.1,6.37,1.28,2.4,2.55,4.81,3.68,7.22,1.56,2.12,2.4,4.39,3.68,6.51v.28c-.14,0-.42.14-.57.14-.85,0-.85-.14-.85-.99,0-.43,0-.71-.28-1.13-.71-1.42-1.42-2.83-2.12-4.1-1.42-2.26-2.55-4.52-3.68-6.93-1.7-3.68-3.11-7.5-4.82-11.18h0ZM79.65,72.72c2.4-.14,4.82-.14,7.36-.42l2.12-.14-1.98.85c-1.42.56-2.83,1.13-4.53,1.13l-1.14-.42h-1.27c-.28-.14-.42-.14-.7-.29l-1.56-.56,1.7-.14Z"/>
      <path class="cls-1" d="M0,69.75c1.13,0,2.12.71,3.11.99.99.43,2.12.85,3.12,1.28.98.43,1.84.99,2.83,1.27.99.28,1.84.56,2.68.56,1,0,1.56-.56,2.55-.85.85-.43,2.12-.57,3.11-.99.99-.43,1.98-.85,3.12-1.28.99-.28,2.12-.56,3.11-.56.85.29,1.7.85,3.11.56,1.13-.14,2.12.85,3.11,1.28.99.43,1.84.7,2.83.99.84.42,1.84.99,2.68.99s1.99-.42,2.83-.7c.99-.28,1.98-.85,2.83-1.27,1.12-.43,2.12-.85,3.11-1.28.99-.28,2.12-.84,3.1-.84,1.14,0,2.12.57,3.26.84.99.43,1.98.85,3.11,1.28.85.43,1.84.99,2.83,1.27.85.28,1.84.56,2.68.56,1,0,1.7-.43,2.7-.71,3.53-1.27,2.97-1.13,2.97-1.13l1.42-.57c.99-.42.56-.28,1.7-.71,2.26-.84,4.38-1.27,6.37-.56.99.29,1.98,1.42,2.97,1.84.99.43,1.98.99,2.97,1.27l1.27.14,1.28.43c1.97,0,3.96-.99,5.65-1.84,1.14-.57,2.27-1.56,3.4-1.84,1.27-.42,2.55-.14,3.82,0,2.27.29,4.11.99,6.23,1.98.7.43,1.69,1.13,2.55,1.27h1.41c1,.14.85.85,4.1-.42l6.23-2.83,1.55.14v1.7h-1.41c-1,.28-5.52,3.11-8.91,3.68-2.41.28-4.25-.85-5.95-1.84-.57-.43-1.55-.43-1.98-.85-1.13-1.27-3.11-.85-4.81-.99-.57,0-1.42.28-2.27.43-1.13.14-1.13.57-1.7.99-.57.29-.99.57-1.7.85-2.98,1.13-7.93,1.84-10.33.99-2.27-.85-2.69-2.83-4.66-3.54-1.56-.57-3.68.14-5.67.85-1,.28-1.97.71-2.83,1.13-1.12.57-2.12.99-3.11,1.41-1.13.29-2.12.29-3.25.29-.99,0-2.12,0-3.1-.29-1.14-.42-2.12-.56-3.11-1.13-1-.42-1.84-1.13-2.83-1.41-1-.28-1.84-.56-2.83-.56-.84,0-1.7.56-2.68.85-1,.43-1.84.43-2.83.85-1,.57-2.12.99-3.11,1.41-1,.29-1.98.43-2.97.43-1.13,0-2.27-.14-3.4-.43-.99-.42-1.98-.84-2.98-1.41-.98-.43-1.97-.85-2.83-1.13-.99-.28-1.97-.28-2.83-.28s-1.84,0-2.69.28c-1.42.43-2.69.85-2.69.85l-.71.29c-.99.57-1.55.99-2.55,1.41-1.13.29-2.12.57-3.25.57-.99,0-1.97-.43-3.11-.85-.99-.28-2.12-.56-3.11-1.13-.85-.43-1.84-.85-2.83-1.13-.84-.28-1.84-.56-2.68-.56v-2.26Z"/>
    </g>
  </g>
</svg>