<?xml version="1.0" encoding="UTF-8"?>
<svg id="Layer_2" data-name="Layer 2" xmlns="http://www.w3.org/2000/svg" viewBox="0 0 515.39 348.06">
  <defs>
    <style>
      .cls-1 {
        fill: #6d442f;
        fill-rule: evenodd;
      }
    </style>
  </defs>
  <g id="_Layer_" data-name="&amp;lt;Layer&amp;gt;">
    <g>
      <g>
        <path class="cls-1" d="M327.51,144.58c-.06-.08-.14-.16-.19-.24-.08.07-.22.13-.22.21,0,.07.11.16.18.24.07-.07.16-.14.23-.2h0ZM327.31,147.43l-.14.19.22.03-.08-.22h0ZM327.53,150.66c-.06-.08-.12-.21-.18-.22-.07,0-.15.11-.23.17.07.08.12.2.19.22.06,0,.15-.1.23-.17h0ZM105.66,193.06l.18.13.03-.2-.21.07h0ZM317.44,216.57l.14-.29-.23-.03.09.32h0ZM341.17,209.31c.11-.27.03-.47-.25-.53-.08-.02-.27.15-.26.18.06.2.17.38.26.57.08-.08.17-.15.25-.22h0ZM352.39,207.17c.03-.1.08-.2.07-.3,0-.04-.14-.06-.22-.1-.02.1-.06.2-.06.3,0,.04.13.07.2.1h0ZM150.55,205.27c-.08-.05-.15-.14-.23-.16-.09-.02-.19.04-.28.07.08.06.15.15.23.16.09.01.18-.04.28-.07h0ZM296.87,276.18l.11.3.09-.29h-.2ZM352.2,242.74l.15.02-.05-.25-.1.23h0ZM327.61,163.92c.16-.38.07-.72-.26-.98-.03-.03-.21.06-.25.13-.22.33-.2.67.02.99.06.07.2.14.25.12.1-.05.19-.16.24-.26h0ZM327.45,168.38c-.03-.23.33-.58-.2-.66,0,.22,0,.44,0,.66h.21ZM238.38,254.29c-.23.1-.48.14-.63.29-.27.28-.19.94.05.9.22-.03.46-.16.61-.32.13-.15.17-.4.19-.6,0-.08-.14-.17-.21-.26h0ZM271.42,239.6c-.08-.2-.13-.52-.26-.55-.17-.05-.42.12-.62.19.1.19.17.43.33.55.23.2.45.09.56-.19h0ZM309.37,253.57c-.15-.14-.3-.29-.31-.28-.25.24-.53.47-.72.75-.07.13.04.38.06.57.2-.06.5-.04.59-.17.18-.26.26-.6.37-.88h0ZM311.54,207.69c-.12.32-.32.6-.25.72.17.28.43.55.71.69.23.11.5-.5.3-.82-.16-.24-.48-.38-.76-.59h0ZM82.47,179.33c.12-.03.3-.04.33-.11.14-.31.26-.64.35-.97.02-.08-.11-.27-.19-.28-.31-.05-.72.58-.72,1.1,0,.09.15.17.23.26h0ZM100.98,183.93c-.09-.37-.12-.62-.2-.86-.04-.11-.16-.25-.25-.26-.09,0-.25.11-.29.21-.09.23-.19.49-.14.71.07.35.26.68.4,1.02.18-.3.35-.6.48-.82h0ZM302.61,195.18c-.1-.28-.18-.63-.35-.9-.1-.15-.39-.18-.59-.26-.07.2-.27.46-.22.6.12.31.36.57.59.83.05.06.22.09.29.05.1-.04.16-.17.28-.32h0ZM323.76,129.14c0-.12.06-.25.03-.36-.06-.23-.15-.45-.23-.66-.1.21-.22.42-.29.64-.04.11-.03.25,0,.36.06.23.14.45.2.68.1-.22.2-.44.29-.66h0ZM327.16,154.02c-.07.33-.18.66-.17.99,0,.2.23.4.34.6.14-.18.4-.36.4-.54,0-.33-.13-.67-.23-1,0-.03-.17-.03-.34-.05h0ZM324.42,125.48c.05-.36.11-.73-.22-1.03-.08.32-.21.65-.24.98,0,.12.21.26.32.39.05-.11.12-.22.13-.34h0ZM294.74,241.67c-.22-.26-.46-.51-.7-.76-.08.08-.25.21-.23.23.17.29.35.56.57.82.04.05.22.04.28-.01.06-.06.12-.24.08-.29h0ZM306.04,258.84c.52-.35.89-.8.89-1.47,0-.09-.09-.22-.18-.27-.06-.04-.22-.03-.29.02-.52.37-.88.82-.69,1.51.02.08.17.14.28.21h0ZM95.15,186.4c0-.08-.13-.23-.23-.26-.39-.13-1,.33-1.1.78-.02.08.07.22.14.26.36.2.72.13.98-.14.14-.15.17-.42.2-.64h0ZM272.73,243.73c-.08.1-.23.19-.23.29-.02.62.61,1.17,1.22,1.03.17-.04.41-.33.39-.46-.1-.62-.75-.99-1.38-.85h0ZM276.97,304.7c-.11.03-.26.02-.34.09-.5.41-.69.93-.48,1.58.09.3.66.4.89.16.49-.5.43-1.06.18-1.63-.04-.08-.17-.13-.25-.19h0ZM318.66,181.11c-.17-.26-.32-.6-.57-.84-.12-.12-.48-.14-.63-.04-.17.11-.34.42-.29.6.07.33.26.67.48.92.11.12.48.14.64.03.17-.1.23-.39.37-.68h0ZM335.24,219.29c-.06-.36-.03-.68-.16-.81-.24-.22-.57-.38-.89-.46-.07-.02-.31.34-.36.56-.06.22-.05.49.03.7.11.34.3.74.74.6.28-.1.47-.42.65-.59h0ZM328.13,159.4c-.07-.23-.07-.52-.21-.69-.13-.17-.39-.25-.61-.34-.04-.02-.21.15-.22.24-.04.48-.06.96-.06,1.44,0,.11.15.31.19.3.22-.06.49-.12.64-.28.15-.16.17-.44.26-.66h0ZM234.92,259.65c.11-.05.27-.06.33-.15.32-.49.66-.98.95-1.5.13-.23-.02-.44-.31-.5-.11-.02-.29-.01-.35.06-.41.56-1,1.06-.87,1.86.01.09.16.15.25.23h0ZM275.76,241.91c-.21-.64-.72-.95-1.35-1.05-.14-.02-.45.23-.46.38-.12.69.67,1.36,1.44,1.22.15-.03.24-.35.37-.55h0ZM332.98,289.09c0-.11.02-.24-.04-.31-.06-.08-.22-.18-.3-.15-.56.22-1.11.44-1.64.74-.11.06-.14.47-.05.62.08.13.44.23.58.16.55-.25,1.15-.46,1.44-1.06h0ZM321.27,183.5c-.14.19-.38.35-.4.55-.08.7.32,1.16.89,1.51.27.16.79-.19.79-.54.02-.69-.27-1.2-.91-1.47-.11-.05-.25-.04-.37-.06h0ZM287.03,234.13c0-.11.07-.22.05-.31-.23-.75-.76-1.21-1.45-1.52-.09-.04-.3-.03-.34.04-.13.16-.31.4-.27.57.17.74.56,1.36,1.38,1.49.2.03.43-.17.64-.27h0ZM325.83,44.03c.21-1.97.19-3.13-.19-4.27-.18,1.16-.21,2.31.19,4.27h0ZM285.76,250.91c.67-.19,1.23-.93,1.14-1.59,0-.12-.39-.3-.59-.28-.81.12-1.2.7-1.06,1.52.03.14.34.23.51.35h0ZM326.43,188.59c-.21-.72-.53-1.18-1.21-1.31-.33-.07-.69.3-.67.67.04.51.25.93.66,1.22.17.12.51.23.63.14.26-.19.42-.5.58-.72h0ZM325,32.11c-.14,1.38-.43,2.77.1,4.91.35-2.14.04-3.52-.1-4.91h0ZM345.02,264.57c-.25-.09-.62-.37-.86-.28-.62.19-1.09.61-1.14,1.33,0,.11.02.24.07.33.06.1.18.22.29.24.98.15,1.87-.65,1.64-1.62h0ZM346.98,251.03c.69-.05,1.21-.45,1.32-1.09.06-.5.06-1.01-.31-1.41-.2-.22-.81.11-1.16.65-.19.31-.4.63-.55.98-.07.2-.09.53.02.66.14.15.45.15.68.22h0ZM291.52,238.56c0-.12.06-.28,0-.34-.58-.65-1.15-1.31-1.78-1.91-.09-.09-.43.02-.63.09-.07.03-.16.2-.16.31.09,1.04,1.09,1.95,2.29,2.06.09,0,.19-.14.28-.21h0ZM336.88,213.52c-.21.1-.46.15-.6.31-.44.5-.46,1.09-.21,1.68.07.17.32.37.48.38.2,0,.46-.14.59-.31.42-.49.49-1.09.25-1.68-.07-.17-.34-.25-.52-.38h0ZM347.19,239.78c.32,0,.56,0,.8,0,.42,0,.65-.27.76-.63.14-.45-.26-.9-.8-.97-.65-.09-1.19.1-1.63.57-.21.22-.05.81.24.88.23.05.46.11.62.15h0ZM279.83,244.76c.07-.59-.36-1.19-1.05-1.24-.31-.03-.68.2-.94.41-.09.08,0,.5.11.67.22.29.5.54.8.73.43.28,1-.04,1.08-.57h0ZM315.54,213.53c.19-.12.49-.21.55-.39.29-.81.04-1.44-.72-1.88-.19-.11-.56-.17-.69-.06-.27.21-.59.56-.59.85,0,.69.72,1.32,1.46,1.47h0ZM314.96,178.12c-.06-.33,0-.63-.14-.77-.5-.51-1.05-.96-1.59-1.42-.08-.07-.3-.11-.34-.06-.16.16-.36.37-.36.57.02,1.02.63,1.87,1.6,2.13.23.06.57-.29.83-.44h0ZM85.29,186.03c-.83,1.15-1.01,2.3-.88,3.53.02.15.31.39.41.36.21-.06.47-.23.55-.43.13-.33.2-.71.19-1.07-.04-.74-.16-1.47-.26-2.4h0ZM285.24,227.07c0-.12,0-.26-.04-.37-.24-.62-.71-1.01-1.37-1.07-.56-.05-.91.34-1.15.79-.17.35-.17.74.16.99.29.22.64.38.98.52.51.2,1.31-.31,1.41-.86h0ZM315.86,185.79c.58-.13,1.17-1.07,1.07-1.71-.08-.52-.88-1.05-1.38-.93-.79.2-1.29.97-1.05,1.6.22.58.94,1.12,1.36,1.03h0ZM327.08,299.05c-.15-.25-.19-.39-.29-.45-.08-.05-.28-.05-.34.01-1.14,1.04-1.79,2.38-2.4,3.75-.04.09,0,.24.06.34.14.28.34.29.58.03,1-1.13,1.7-2.46,2.39-3.69h0ZM328.42,295.83c.33-.09.79-.07.98-.29.56-.63,1.03-1.35,1.48-2.07.11-.16.07-.44.06-.66,0-.23-.57-.21-.99-.04-1.16.45-1.63,1.41-1.93,2.5-.04.13.23.34.39.57h0ZM242.49,258.84s-.06-.04-.1-.06c.13-.21.25-.43.4-.63.19-.26.19-.53-.08-.61-.18-.05-.5.04-.64.19-1.13,1.18-1.94,2.57-2.57,4.08-.03.06.08.24.17.29.09.05.28.04.33-.01.84-1.07,1.66-2.15,2.48-3.23h0ZM282.28,246.04c-.6.07-.99.9-.63,1.4.28.39.61.77.98,1.07.28.23.65.3,1,.06.44-.3.7-.84.58-1.24-.23-.84-1.06-1.39-1.94-1.3h0ZM100.57,197.48c1.54,1.66,2.21,1.27,2.7-.22.12-.34.31-.68.41-1.03.09-.34.27-.81-.15-1-.27-.12-.79-.09-.99.09-.71.67-1.33,1.44-1.97,2.16h0ZM310.55,179.11c-.25.14-.47.24-.65.38-.06.06-.09.24-.06.33.43,1.04,1.07,1.9,2.21,2.23.17.04.47-.16.62-.32.15-.16.32-.47.25-.64-.43-1.1-1.28-1.72-2.38-1.98h0ZM309.71,185.67c-1.03-.72-1.55-1.85-2.13-2.92-.08-.15.05-.46.17-.65.17-.3.7-.33.97-.08.55.5,1.11.99,1.63,1.51.57.57.49,1.03-.25,1.91-.08.09-.21.13-.39.23h0ZM103.06,190.14c.1.02.25.09.32.05.82-.49,1.65-.98,2.43-1.53.16-.1.27-.47.21-.64-.11-.31-.32-.67-.6-.81-.28-.15-.83-.21-1.02-.04-.81.72-1.52,1.56-1.61,2.72,0,.07.16.17.26.26h0ZM268.21,243.7c-.23.06-.51.06-.68.2-1.1.99-1.09,2.15.15,3.03.39.28,1.02.17,1.23-.28.21-.44.4-.89.5-1.35.13-.65-.54-1.48-1.21-1.59h0ZM294.16,211.85c.99-.4,1.74-1.57,1.64-2.63-.04-.5-.3-.94-.78-1.15-.18-.09-.53-.12-.66-.02-.89.76-1.25,1.76-1.16,2.91.02.22.19.47.35.62.16.14.41.18.61.26h0ZM289.74,231.12c-.03-.32.04-.63-.09-.79-.46-.58-.97-1.12-1.5-1.64-.36-.35-.93-.28-1.36.07-.39.32-.52.93-.21,1.32.45.59.9,1.18,1.43,1.71.25.25.68.37,1.02.09.28-.23.49-.53.71-.77h0ZM328.36,290.1c-.17-.23-.33-.67-.58-.74-.73-.21-1.52-.2-2.17.23-.39.25-.64.72-.9,1.14-.16.26.2.9.45.9,1,0,1.98-.13,2.79-.79.18-.15.24-.42.42-.74h0ZM340.37,272.01c.57-.11,1.17-.19,1.75-.35.84-.22,1.46-1.35,1.29-2.34-.04-.19-.27-.46-.45-.49-.35-.08-.77-.13-1.07.02-1.15.58-1.87,1.5-1.8,2.87,0,.09.17.17.29.29h0ZM274.33,311.25c-.13-.21-.3-.47-.49-.7-.26-.31-.86-.06-1.22.5-.39.62-.75,1.27-1.09,1.92-.03.06-.05.11-.05.18l-2.5,1.67-4.79,1.9,1.18-1.76c1.34-1.99,2.69-3.98,3.71-6.17,1.18-2.54,2.9-4.74,4.39-7.07,1.1-1.7,2.2-3.4,3.33-5.08,2.4-3.56,4.81-7.12,7.22-10.67,3.55-5.23,7.42-10.22,10.77-15.59.46-.75.89-1.52,1.33-2.29,1.13-1.97,2.19-3.98,3.62-5.78.46-.59.81-1.26,1.22-1.9,1.15-1.81,2.3-3.62,3.47-5.43,1.15-1.81,2.43-3.55,3.45-5.43,1.95-3.55,4.13-6.95,6.33-10.34,2.07-3.2,3.54-6.68,5.02-10.17.08-.21,0-.49,0-.74.49.02.71-.31.87-.71.17-.18.38-.34.5-.55,2.81-4.95,5.9-9.71,9.05-14.44.84-1.26,1.67-2.54,2.34-3.9,1.24-2.48,2.44-4.99,4.02-7.28.4-.59.27-1.22-.12-1.77-.28-.41-.63-.77-.98-1.14-.22-.25-.78-.22-1.02.03-.35.36-.74.69-1.05,1.09-1.23,1.6-2.43,3.22-3.62,4.85-.45.61-.9,1.23-1.25,1.9-1.94,3.82-4.12,7.54-5.65,11.55-.38.99-.94,1.74-1.9,2.24-.75.38-1.15,1.14-.84,1.9.76,1.83.61,3.71.59,5.6-.46.03-.69.34-.87.71-1.47,1.04-2.98,1.34-4.56.24-.2-.14-.46-.22-.68-.33-.39-.19-1.14-.03-1.38.32-1.44,2.07-2.91,4.12-3.89,6.47-.25.6-.24,1.24-.05,1.86.39,1.2.86,2.38,1.2,3.59.53,1.92.28,3.75-.9,5.41-.54.75-1.54,1.1-2.34.68-.77-.41-1.5-.92-2.24-1.38-.54-.33-1.28-.21-1.69.32-.69.9-1.41,1.79-2.01,2.75-.23.38-.28,1-.15,1.44.27.97.75,1.87,1.06,2.83.45,1.37.46,2.74-.35,4.02-.53.85-1.06,1.71-1.67,2.5-.47.62-1.47.71-2.04.25-.49-.4-.93-.85-1.41-1.26-.72-.61-1.23-.51-1.82.35-.14.21-.3.41-.43.63-2.72,4.55-5.41,9.12-8.2,13.63-1.46,2.37-2.81,4.77-3.9,7.34-.6,1.38-1.53,2.61-2.36,3.87-1.96,2.94-3.5,6.15-5.77,8.89-.24.29-.45.62-.63.95-2.62,4.92-5.96,9.38-8.96,14.05-1.64,2.55-3.29,5.09-4.79,7.73-.75,1.32-1.49,2.66-2.21,4l-1.68.66-2.54.19c.4-.81.83-1.6,1.32-2.34,1.76-2.63,3.57-5.21,5.35-7.82.71-1.04,1.44-2.07,2.15-3.12,1.48-2.2,2.95-4.41,4.42-6.61.7-1.05,1.42-2.09,2.07-3.18,3.04-5.09,6.08-10.19,9.11-15.3,2.12-3.58,4.26-7.16,6.36-10.77.81-1.41,1.5-2.91,2.25-4.36,1-1.9,1.95-3.83,2.98-5.71,1.15-2.1,2.39-4.15,3.6-6.23.22-.39.17-1.09-.12-1.42-.68-.74-1.31-1.54-2.42-1.98-1.29,1.32-2.5,2.78-3.42,4.41-1.43,2.53-2.96,4.99-4.59,7.39-1.06,1.56-1.87,3.29-2.82,4.93-.95,1.64-1.97,3.23-2.93,4.87-1.08,1.85-2.11,3.73-3.19,5.59-.63,1.09-1.3,2.16-1.96,3.24-.87,1.39-1.79,2.75-2.63,4.16-2.33,3.9-4.77,7.73-6.75,11.84-.49,1.02-1.2,1.92-1.76,2.92-1.24,2.19-2.59,4.33-3.57,6.67-.44,1.04-.89,2.1-1.5,3.06-2.03,3.21-3.62,6.64-5.38,10l-3,.22c1.37-2.59,2.78-5.15,4.26-7.68,1.21-2.06,2.3-4.21,3.42-6.33,2.98-5.57,5.82-11.21,8.93-16.7,2.87-5.05,5.57-10.2,8.79-15.04,2.81-4.21,5.32-8.59,7.92-12.92,1.49-2.49,2.92-5.02,4.37-7.54.26-.45.35-.93.17-1.44-.11-.31-.33-.44-.58-.27-.31.19-.64.4-.85.69-.79,1.14-1.55,2.31-2.31,3.47-.23.35-.84.51-.93.26-.08-.21-.2-.5-.12-.68.7-1.62,1.4-3.24,2.36-4.74.43-.67.26-1.41-.36-2.06-.26-.27-.57-.51-.86-.73-.38-.29-1.09-.23-1.37.16-.68.91-1.32,1.85-1.98,2.77-.37.52-.7,1.06-1.12,1.52-.24.25-.64.35-.96.51l.06.06c.05-1.03.46-1.95.9-2.85.5-1.01,1.03-2.01,1.52-3.02.38-.78.21-1.26-.62-1.9-.56-.43-1.26-.39-1.64.14-2.1,2.81-3.91,5.82-5.71,8.84-.38.65-.74,1.3-1.19,1.9-.21.28-.58.43-.87.64l.06.06c-.11-.92.2-1.75.63-2.53,1.14-2.11,2.3-4.21,3.45-6.32.24-.44.56-.87.68-1.34.07-.32-.03-.76-.2-1.05-.48-.77-1.44-.77-1.8,0-.95,2.08-2.29,3.92-3.57,5.79-.99,1.46-2.01,2.9-3.06,4.34-.36.5-.73,1.04-1.43,1.14l-.06-.06c.34-1.66,1.48-2.88,2.3-4.28.58-.98,1.27-1.88,1.86-2.85.63-1.05.37-2.17-.69-3-.16-.12-.54-.13-.69-.02-.4.29-.79.63-1.08,1.04-2.7,3.8-5.41,7.6-7.51,11.79-.05.1,0,.25,0,.43,2.9,2.51,5.75,5.14,8.9,7.4.9.66,1.69,1.51,2.43,2.36,1.12,1.26,1.25,2.76.39,4.19-.58.97-1.26,1.88-1.85,2.77.15.3.2.6.37.7.68.4.78.94.46,1.59-.9,1.8-1.73,3.65-2.74,5.39-1.4,2.39-2.95,4.7-4.45,7.02-.09.15-.47.24-.65.17-.15-.06-.3-.41-.26-.59.1-.48.28-.96.48-1.42.32-.69.73-1.34,1-2.04.13-.33.08-.73.11-1.11.28-.26.56-.52.84-.78l.17-.08-.09.16c-.29.26-.57.51-.86.77-.69.55-1.36,1.12-2.08,1.61-.56.38-1.21.32-1.8,0-.32-.17-.62-.42-.92-.65-.4-.31-.74-.7-1.17-.95-3.19-1.82-6.04-4.13-9.13-6.08-.61-.38-1.15-.26-1.59.42-.62.95-1.21,1.91-1.8,2.89-1.36,2.27-2.7,4.55-4.06,6.86.27.34.44.75.74.88,1.75.82,2.93,2.36,4.51,3.43,2.18,1.49,4.25,3.14,6.37,4.74.4.3.79.63,1.15.97.57.54.72,1.42.37,2.09-.17.34-.33.69-.54,1-2.41,3.4-4.08,7.26-6.58,10.61-.75,1-1.23,2.19-1.87,3.28-.38.65-.81,1.28-1.25,1.9-.19.27-.38.48-.58.63l-4.1-1.52c-.76-.52-1.52-1.03-2.28-1.54-1.68-1.12-3.38-2.22-5.06-3.33-.34-.23-1.11-.03-1.35.34h0s-3.58-2.67-3.58-2.67l2.96-5.21c2.8-4.94,5.46-9.95,8.19-14.94.6-1.1,1.23-2.2,1.87-3.29,2.63-4.45,5.33-8.88,7.9-13.37,1.63-2.84,3.1-5.77,4.63-8.68.23-.43.31-.94.46-1.42.65-.37.7-.99.67-1.65.22-.04.48,0,.64-.12.36-.29.42-.91.16-.85-.2.04-.39.22-.5.39-.12.19-.15.44-.22.66-.45.46-.66,1.01-.69,1.64-.32.18-.74.29-.92.56-.73,1.03-1.45,2.07-2.05,3.18-1.76,3.22-3.62,6.35-5.73,9.36-3.73,5.26-7.25,10.66-10.76,16.06-2.12,3.28-4.3,6.54-5.91,10.14-.26.57-.68,1.06-.99,1.61-1.08,1.86-2.14,3.73-3.2,5.59-.18.33-.37.66-.57.99l-.41.67-4.25,1.42c.48-.82.98-1.63,1.5-2.43,2.09-3.16,3.69-6.61,5.81-9.76,2.96-4.4,5.67-8.97,8.66-13.35,2.92-4.28,5.7-8.64,8.49-13.01.87-1.38,1.89-2.67,2.76-4.07,2.99-4.83,5.94-9.69,8.39-14.84.48-1.02,1.09-1.99,1.63-2.99,1.19-2.23,2.36-4.46,3.55-6.69,1.08-2,2.22-3.97,3.26-5.99,1.27-2.46,2.96-4.69,4-7.28.03-.07-.07-.23-.15-.3-.08-.07-.25-.14-.31-.1-.3.2-.66.39-.86.68-3.43,5-6.82,10.03-10.27,15.02-3.87,5.62-7.4,11.46-10.98,17.27-3.12,5.05-6.2,10.12-9.16,15.27-1.45,2.52-3.16,4.87-4.45,7.49-.38.78-1.09,1.39-1.57,2.13-1.02,1.59-2,3.22-3,4.83-.46.75-.89,1.53-1.44,2.23-2.74,3.48-5.11,7.22-7.31,11.05-1.25,2.15-2.42,4.35-3.61,6.54l-.28.09-3.33.81c.95-1.71,1.9-3.41,2.88-5.1,1.64-2.85,3.24-5.71,4.96-8.5,2.39-3.87,4.88-7.68,7.31-11.52.46-.75.91-1.52,1.26-2.33.1-.25-.07-.82-.31-.97-3.31-2.12-6.26-4.69-9.29-7.18-.59-.48-1.14-1-1.78-1.42-2.73-1.82-5.52-3.56-8.22-5.42-2.08-1.43-4.13-2.92-6.09-4.51-1.78-1.43-3.56-2.81-5.55-3.96-1.09-.63-2.16-1.32-3.17-2.07-4.48-3.3-9.22-6.21-13.88-9.24-.53-.35-1.06-.7-1.56-1.08-2.64-1.96-5.37-3.77-8.24-5.39-1.64-.92-3.21-2.03-4.65-3.25-3.97-3.34-8.09-6.46-12.45-9.28-1.06-.68-2.06-1.46-3.07-2.23-2.21-1.69-4.53-3.2-6.83-4.76-5.74-3.9-11.6-7.65-16.97-12.09-3.02-2.5-6.2-4.78-9.48-6.94-1.79-1.18-3.51-2.48-5.28-3.69-1.97-1.37-3.96-2.72-5.95-4.05-.52-.34-1.34-.03-1.59.54-.62,1.4-1.08,2.84-1.1,4.38-.02,1.39-.03,2.78.08,4.16.12,1.53.13,3.04-.28,4.52-.28,1.01-.26,2.01-.1,3,.3,1.9.22,3.77-.26,5.64-.22.85-.28,1.75-.5,2.6-.23.88-.33,1.75-.16,2.63.49,2.52.22,5.04.06,7.56-.16,2.53-.21,5.05.22,7.56.11.61.06,1.26.02,1.88,0,.14-.27.3-.44.38-.07.04-.26-.06-.33-.15-.52-.61-.65-1.37-.68-2.12-.09-2.52-.2-5.05-.2-7.57.01-2.4.19-4.79-.31-7.18-.17-.83.02-1.76.14-2.62.13-.87.33-1.74.6-2.58.52-1.61.61-3.24.25-4.86-.26-1.15-.2-2.25.07-3.37.42-1.74.53-3.52.33-5.28-.28-2.41-.24-4.78.33-7.15.3-1.24.22-2.5-.04-3.75-.09-.44-.85-.83-1.2-.6-.42.27-.86.53-1.24.86-3.55,3.04-7.11,6.07-10.61,9.17-2.46,2.17-4.87,4.41-7.25,6.67-2.56,2.44-5.1,4.91-7.58,7.42-4.54,4.59-9.43,8.77-14.25,13.05-3.68,3.27-7.55,6.33-11.02,9.85-1.94,1.97-4.22,3.61-6.38,5.37-.38.31-.87.52-1.34.64-.48.12-1,.05-1.4-.35-.39-.39-.51-.89-.4-1.39.11-.48.29-.97.55-1.4,1.16-1.96,2.39-3.86,3.85-5.63,1.28-1.55,2.46-3.19,3.68-4.8.04-.06-.02-.23-.09-.31-.06-.07-.23-.15-.29-.12-1.82.88-3.62,1.78-5.44,2.67-.68.33-1.35.69-2.05.96-.96.38-2.09-.3-2.28-1.36-.09-.49-.15-1-.15-1.5,0-.65.22-1.25.72-1.69,1.6-1.43,3.23-2.83,4.82-4.27.93-.85,1.87-1.71,2.72-2.65,4.49-4.99,9.48-9.46,14.29-14.13,4.08-3.96,8.43-7.63,12.65-11.45,3.46-3.13,6.89-6.31,10.35-9.45,1.07-.97,1.74-2.15,2.15-3.5.33-1.09.6-2.2.86-3.3.18-.79.09-1.49-.73-1.94-.43-.24-.97-.48-1.21-.87-1.18-1.89-3.04-3.03-4.78-4.26-3.41-2.4-6.86-4.74-10.37-6.99-3.1-1.99-6.01-4.18-8.73-6.65-1.58-1.44-3.24-2.85-5.02-4.04-2.12-1.41-3.94-3.17-5.94-4.7-.19-.15-.31-.4-.46-.6-.19-.23-.11-.88.13-1.04.77-.51,1.6-.86,2.47-.34,1.62.98,3.19,2.04,4.82,3.01,1.3.78,2.59,1.6,3.99,2.16,2.12.86,4.14,1.89,6.04,3.15,1.8,1.2,3.73,2.12,5.71,2.94.1-.2.32-.47.26-.59-.35-.66-.78-1.28-1.16-1.93-.22-.38.12-1.07.61-1.2.48-.12.99-.24,1.46-.19.49.05,1.06.19,1.41.5,1.18,1.08,2.71,1.31,4.11,1.88.84.34,1.7.44,2.53-.14.3-.21.69-.32,1.04-.43.9-.28,1.75-.22,2.47.46,1.28,1.23,2.71,2.28,4.21,3.21.62.39,1.29.33,1.65-.26.67-1.09,1.54-1.99,2.43-2.89.53-.53,1.07-1.13,1.33-1.8.46-1.17,1.23-1.89,2.35-2.29,1.45-.52,2.7-1.35,3.86-2.36.47-.41,1.02-.73,1.56-1.07.52-.32,1.24-.21,1.77.2.61.47,1.1,1.03,1.35,1.77.45,1.32.77,2.67.86,4.07.23,3.53.47,7.06.71,10.59.04.59.5.82,1.06.51,2.33-1.28,4.48-2.83,6.58-4.46,3.58-2.8,7.13-5.65,10.68-8.49,1.08-.87,2.06-1.87,3.18-2.69,1.01-.74,2.2-1.24,3.22-1.96,4.54-3.21,9.03-6.49,13.58-9.68,4.24-2.98,8.55-5.85,12.79-8.82,4.55-3.19,9.07-6.43,13.59-9.67,2.98-2.13,5.92-4.3,8.89-6.45,1.84-1.34,3.63-2.75,5.54-3.97,2.55-1.63,5-3.42,7.71-4.81,1.64-.83,3.08-.77,4.65.16,2.02,1.19,2.22,1.95.91,3.9-.79,1.18-1.89,2.03-2.91,2.96-.97.88-1.58,1.89-1.75,3.24-.17,1.37-.61,2.7-.93,4.06-1.25,5.3-1.8,10.69-2.03,16.13-.07,1.61-.52,3.22-.82,4.82-.02.09-.23.23-.29.2-.19-.08-.37-.21-.52-.36-.07-.08-.09-.24-.09-.36.09-3.01-.45-6.05.46-9.03.21-.68.11-1.5,0-2.24-.16-1.02-.05-1.98.18-2.99.58-2.59,1.09-5.19,1.6-7.8.07-.35.03-.74-.02-1.11-.03-.28-.28-.37-.58-.25-.23.09-.48.19-.67.34-3.3,2.74-6.86,5.17-9.91,8.21-.71.71-1.58,1.25-2.37,1.88-1.87,1.5-3.73,3.02-5.6,4.53-.29.24-.55.53-.86.74-3.39,2.22-6.13,5.26-9.48,7.53-.41.28-.75.67-1.13,1-1.43,1.23-2.88,2.44-4.3,3.69-1.7,1.5-3.37,3.06-5.07,4.56-1.33,1.17-2.7,2.29-4.03,3.44-2.29,1.99-4.55,4.01-6.86,5.98-3.65,3.12-7.32,6.21-10.98,9.31-.38.32-.79.64-1.12,1.01-.11.13-.06.44-.02.65.01.07.22.18.32.16,4.47-.85,8.88-1.9,13.24-3.22,7.85-2.38,15.73-4.68,23.69-6.72,4.03-1.03,7.97-2.44,11.78-4.15,1.84-.82,3.7-1.64,5.63-2.23,6.65-2.05,13.12-4.55,19.48-7.36,7.06-3.11,14.12-6.16,21.08-9.44,3.89-1.83,7.63-3.94,11.63-5.53,2.34-1.54,4.96-2.48,7.53-3.52,2.7-1.09,5.27-2.44,7.76-3.96,2.47-1.51,5.05-2.88,7.6-4.26,2.22-1.21,4.47-2.36,6.71-3.52.79-.41,1.55-.91,2.39-1.14,2.71-.76,5.11-2.17,7.6-3.39,2.83-1.39,5.66-2.79,8.47-4.26,3.93-2.06,7.5-4.67,10.96-7.43,1.68-1.34,3.35-2.68,5.01-4.04,1.46-1.21,2.94-2.4,4.34-3.67,2.71-2.47,5.58-4.74,8.66-6.74,2.97-1.94,5.8-4.05,8.39-6.49.77-.73,1.27-1.53,1.29-2.62.02-1.26.17-2.53.13-3.79-.11-2.54.13-5.05.24-7.57.1-2.4.04-4.8.06-7.19,0-.63-.07-1.27-.02-1.9.69-7.94.37-15.91.69-23.86.18-4.29.34-8.58.52-12.87,0-.13,0-.25.03-.38.65-4.39.45-8.82.69-13.23.23-4.42.69-8.81.69-13.24,0-.62.13-1.26.29-1.86.18-.65.69-1.04,1.3-1.27.12-.04.25-.06.37-.07,3.56-.24,4-.14,5.1,3.52.55,1.81.59,3.77.35,5.64-.24,1.91-.15,3.77.1,5.66.11.88.23,1.76.26,2.64.33,8.71,1.08,17.4,1.74,26.09.13,1.63.25,3.27.36,4.9.03.51.13,1.05,0,1.51-.56,1.87-.28,3.76-.29,5.65-.02,2.9-.12,5.81-.07,8.72.12,5.81.39,11.61.48,17.42.11,6.19.11,12.38.11,18.58,0,4.8-.06,9.6-.13,14.41-.02,1.13-.17,2.27-.2,3.4-.1,2.52-.17,5.05-.23,7.57-.06,2.59,1.04,4.62,3.1,6.15.31.23.63.44.91.68.71.59,1.2,1.29,1.21,2.26.03,1.63.41,3.22.24,4.9-.17,1.73.18,3.51.24,5.27.07,1.77.07,3.54.12,5.3.05,2.15.1,4.29.18,6.43.03.76.28,1.52.19,2.26-.25,2.21.41,4.25,1,6.3.22.72.58,1.39.9,2.07.56,1.13,1.13,2.26,1.71,3.37.63,1.19.73,2.35.21,3.63-.57,1.4-.25,2.73.65,3.92.07.11.14.21.22.31,1.73,1.98,2.15,4.23,1.37,6.72-.25.83.09,1.48.57,2.09.86,1.09,1.71,2.2,2.62,3.24,2.28,2.58,4.16,5.4,5.68,8.47.4.83,1.03,1.44,1.77,1.93,1.44.94,2.35,2.28,2.97,3.84.76,1.87,1.79,3.63,2.22,5.63.13.6.5,1.15.76,1.72.27.57.61,1.12.79,1.71,1.3,4.1,2.51,8.21,3.29,12.44.81,4.36,1.15,8.77,1.24,13.19.03,1.39.07,2.77.33,4.14.28,1.5.3,3.03,0,4.53-.8,3.96-1.57,7.93-2.48,11.86-.94,4.06-2.37,7.95-3.99,11.8-1.78,4.22-4.13,8.09-6.36,12.03-4.42,7.81-8.35,15.74-13,23.39-1.51,2.49-3.29,6.52-4.9,8.93l-1.92-4.51c1.75-2.7,3.5-5.4,5.23-8.11,2.4-3.72,4.48-7.62,6.3-11.66,1.09-2.42,2.33-4.75,3.65-7.06,1.43-2.52,2.59-5.19,3.81-7.83.85-1.84,1.55-3.73,2.36-5.58,2.72-6.2,3.79-12.82,5.08-19.39.07-.37.09-.75.1-1.13.19-5.94.45-11.88,0-17.81-.15-1.88-.44-3.77-.81-5.62-1.12-5.47-2.87-10.73-5.47-15.69-1.4-2.69-2.7-5.43-4.05-8.14-.28-.57-.47-1.2-.86-1.69-1.92-2.5-3.51-5.25-5.37-7.79-3.2-4.39-6.52-8.68-9.94-12.9-1.9-2.35-4.08-4.46-5.75-7.01-.4-.63-1.01-1.13-1.56-1.64-2.96-2.76-5.82-5.62-9.1-8.02-1.12-.82-2.16-1.75-3.24-2.61-.39-.32-.96-.26-1.37.09-.89.74-1.61,1.6-1.91,2.75-.03.1,0,.25.06.33.06.08.23.18.29.15.35-.14.69-.3,1.02-.48.61-.33,1.21-.4,1.76.08,2.27,2.01,4.55,4,6.76,6.09.62.58,1.04,1.43,1.42,2.21.51,1.05,1.15,1.92,2.19,2.52.54.31,1.14.72,1.4,1.24.83,1.65,2.29,2.68,3.6,3.85,4.26,3.83,7.86,8.18,10.75,13.13,1.47,2.51,2.89,5.05,4.91,7.18.35.36.7.78.85,1.24.8,2.39,2.19,4.54,2.72,7.05.37,1.72.98,3.4,1.59,5.05.72,1.89,1.44,3.76,1.75,5.78.11.72.43,1.5.87,2.08.99,1.28,1.19,2.75,1.34,4.27.07.75.13,1.52.28,2.25.54,2.59,1.33,5.14,1.07,7.84-.05.48.23.98.3,1.47.17,1.12.43,2.26.39,3.38-.11,3.15.06,6.3-.54,9.43-.59,3.09-1.04,6.22-1.69,9.31-.82,3.85-2.03,7.57-3.26,11.27-1.42,4.31-3.12,8.54-4.76,12.78-1.51,3.9-3.53,7.55-5.78,11.06-3.46,5.4-6.93,10.8-10.38,16.2l-2.16,1.02,2.31-3.44c.28-.42.62-.82.81-1.28.9-2.26,2.4-4.14,3.7-6.15,1.71-2.65,3.56-5.21,5.04-8,1.3-2.46,2.72-4.85,4.02-7.3.77-1.45,1.4-2.97,2.1-4.46.44-.94.58-1.93.51-2.95.11-.07.25-.12.3-.22,1.16-2.44,2.24-4.93,3.11-7.5.32-.96.39-1.92.35-2.91.19-.29.47-.57.57-.89.13-.48.11-.99.17-1.49.94-.46.79-1.35.83-2.15.18-.29.43-.56.54-.87.06-.16-.1-.4-.16-.6-.1.15-.27.3-.29.46-.05.35-.02.7-.03,1.06-.57.14-.69.6-.75,1.08-.05.36-.05.72-.06,1.08-.67.66-.53,1.58-.73,2.38-.21.31-.48.59-.6.92-.71,2.13-1.52,4.21-2.81,6.08-.76,1.11-.74,2.35-.37,3.59-1.09.35-2.1.84-2.73,1.85-.46.74-.98,1.48-.76,2.46.21.98-.21,1.85-.97,2.31-2.53,1.53-3.52,4.22-5.08,6.48-.5.73-.68,1.63-.58,2.54.12,1.01-.36,1.74-1.18,2.2-1.05.59-1.67,1.51-2.27,2.49-.46.76-.88,1.51-.82,2.47.06.85-.41,1.46-1.1,1.84-1.41.76-2.3,1.97-2.93,3.37-.52,1.16-1.23,2.18-1.96,3.21-.94,1.35-1.9,2.67-2.83,4.03l-10.15,3.56-13.49.53-.05-.14c-.15-.6.08-1.05.59-1.2.9-.27,1.57-.78,2.02-1.59.61-1.1,1.2-2.22,1.78-3.33.23-.44.36-.96.66-1.34,2.41-3.11,4.21-6.59,6.2-9.96,2.04-3.48,4.09-6.96,6.13-10.45,1.21-2.07,2.34-4.19,3.63-6.2.76-1.19.64-2.08-.39-2.94-.06-.06-.02-.24-.04-.37.21-.12.41-.33.61-.33,1.37-.05,2.39-.61,3.06-1.85.48-.88,1.13-1.68,1.28-2.72.07-.53.44-.87.77-1.26.49-.56.98-1.15,1.35-1.8,1.38-2.41,2.72-4.84,4.06-7.27,1.83-3.32,3.6-6.67,5.46-9.96,1.86-3.3,3.93-6.48,5.7-9.83,1.76-3.35,4.25-6.26,5.68-9.79.14-.33.51-.55.74-.86.46-.6.92-1.2,1.3-1.85.16-.28.13-.68.18-1.07-1.4-.31-2.73-.59-4.1-.88-1.13,1.11-1.9,2.42-2.6,3.75-2.02,3.79-4,7.59-6.03,11.37-3.27,6.12-6.6,12.21-9.86,18.34-1.72,3.23-3.47,6.44-5.44,9.54-1.63,2.55-3.13,5.18-4.65,7.81-2.34,4.04-4.44,8.22-7.21,12-.3.41-.51.87-.78,1.3-2.96,4.84-6.08,9.6-8.63,14.68-.17.34-.4.65-.58.98-1.07,1.97-2.75,3.63-3.12,5.99-.03.21-.24.43-.43.57-.31.24-.58.51-.83.79l-1.16.05-.59-.25c1.69-2.84,3.38-5.67,5.06-8.52,1.79-3.04,3.49-6.15,5.31-9.18,1.9-3.13,3.91-6.2,5.86-9.31.81-1.28,1.66-2.55,2.36-3.89,2.35-4.48,4.95-8.81,7.68-13.07,2.45-3.84,4.5-7.9,6.66-11.91,2.86-5.34,5.78-10.66,8.65-16,.9-1.67,1.8-3.34,2.6-5.06,1.9-4.14,4.26-8.03,6.71-11.86.54-.85,1.09-1.7,1.62-2.56.46-.73.46-1.41-.17-2.06-.25-.27-.42-.62-.72-1.08.6-.11,1.06-.2,1.54-.27,1.67-.27,2.11-.92,1.67-2.6-.13-.48-.39-.92-.64-1.35-.17-.32-1.09-.46-1.38-.22-.31.22-.66.43-.86.73-.76,1.16-1.57,2.3-2.17,3.55-1.52,3.19-3.3,6.24-5.15,9.27-1.32,2.16-2.49,4.38-3.37,6.77-.51,1.41-1.29,2.74-2,4.08-1.51,2.92-3.1,5.78-4.57,8.72-1.91,3.85-4.1,7.54-6.29,11.23-2.38,4.02-4.94,7.92-7.57,11.79-1.49,2.19-3.08,4.33-4.58,6.51-5.58,8.12-10.78,16.49-15.86,24.94-1.83,3.03-3.6,6.09-5.74,8.92l-.12.16-1.48-.61c.64-.97,1.28-1.93,1.96-2.88,2.03-2.88,3.69-6.03,5.5-9.07.39-.65.72-1.34,1.14-1.97,5.01-7.44,9.38-15.3,14.62-22.59,5.08-7.09,9.77-14.45,14.02-22.06,2.03-3.64,3.91-7.36,5.73-11.11,1.5-3.06,3.17-6.04,4.31-9.27.05-.12.09-.23.16-.35,1.77-3.2,3.51-6.42,5.32-9.6,1.43-2.53,2.94-5.01,4.41-7.51.13-.21.24-.47.26-.71.06-.97.63-1.55,1.34-2.16,1.16-1,1.06-2.2-.16-3.15-.2-.15-.45-.24-.67-.35-.46-.22-1.14,0-1.3.41-.14.35-.3.69-.35,1.06-.12.77-.41,1.44-.85,2.08-.92,1.36-1.8,2.75-2.71,4.11-1.47,2.21-2.84,4.48-4,6.88-.59,1.25-1.34,2.43-2.01,3.64-.38.66-.8,1.29-1.14,1.97-2.93,6.03-6.27,11.83-9.46,17.71-.78,1.44-1.73,2.79-2.63,4.16-1.93,2.97-3.72,6.02-5.6,9.01-2.95,4.71-5.91,9.41-8.66,14.25-.69,1.21-1.53,2.32-2.3,3.49-2.29,3.48-4.57,6.98-6.9,10.44-2.04,3.03-4.16,6.02-6.23,9.05-1.64,2.4-3.28,4.79-4.86,7.23-.98,1.53-1.96,3.06-2.94,4.59l-1.15-1.43c.63-.89,1.25-1.77,1.88-2.66.74-1.02,1.53-2.01,2.23-3.05,2.05-3.02,4.33-5.87,6.23-8.99,1.37-2.25,2.74-4.54,4.32-6.64,3.79-5.05,6.78-10.6,10.23-15.85,4.36-6.62,8.02-13.68,12.49-20.24.77-1.13,1.54-2.31,1.7-3.75,1.08-.34,1.41-1.36,1.93-2.18,2.47-3.9,4.54-8.04,6.6-12.16,1.11-2.21,2.19-4.47,2.89-6.87,1.32-1.67,2.26-3.58,3.31-5.41.17-.31.25-.72.23-1.07-.04-.69-.55-1.09-1.08-1.44-.09-.06-.25-.06-.37-.05-.33.02-.53.61-.41,1.27.09.49.25.97.34,1.46.1.6-.42.99-1.22.94-1.16-.07-1.65.4-1.43,1.43.22.98.46,1.95.7,2.92-.86-.12-1.7-.24-2.56-.35-1.08,1.06-1.56,2.27-1.09,3.78.11.34.06.75.06,1.12,0,.44-.63.81-1.14.64-.35-.12-.7-.26-1.05-.39-.93.87-1.04,1-.97,1.5.08.5.24.98.32,1.47.1.64-.27,1.06-1.09,1.25-.35.08-.72.12-1.21.21-.1.62-.22,1.23-.26,1.84-.08.87-.11,1.75-.16,2.62-.02.3-.59.58-.9.44-.22-.1-.42-.25-.61-.41-.29-.24-.57-.51-.95-.19-.17.16-.34.39-.39.62-.28,1.26-.16,2.52.18,3.75.33,1.1.48,2.22.4,3.36-1.38-.02-1.39-.04-1.69-.95-.23-.71-.49-1.41-.75-2.11-.03-.07-.18-.15-.27-.14-.11.01-.24.1-.31.19-.38.54-.52,1.18-.37,1.79.21.85.56,1.67.8,2.51.11.41-.15.73-.5.9-.19.09-.51.13-.69.03-.33-.16-.59-.45-.88-.67-.35-.28-.75-.29-.95-.04-.75.91-1.26,1.87-.81,3.1.17.47.34.96.37,1.45,0,.32-.19.69-.38.97-.06.09-.47-.02-.69-.12-.22-.1-.39-.31-.6-.43-.41-.24-1.14.07-1.15.49-.02.37-.06.75,0,1.11.12.61.33,1.21.45,1.81.09.42-.29,1.03-.72,1.21-.39.16-.68,0-.96-.31-.23-.26-.57-.44-.89-.68-.58.6-1,1.21-1.04,1.99-.03.88.04,1.76.02,2.63,0,.24-.09.52-.23.7-.13.16-.48.35-.61.28-.43-.22-.8-.54-1.26-.88-1.23.86-1.91,1.91-1.39,3.5.15.47.21.98.28,1.47.06.44-.38,1.08-.76,1.18-.41.1-.68-.08-.94-.4-.23-.27-.56-.47-.84-.69-1.96,2.54-2.08,2.91-1.71,5.52.07.5.26.98.3,1.48.02.36,0,.84-.22,1.08-.84.96-1.09,2.23-1.8,3.25-.11.16-.44.27-.64.24-.21-.03-.51-.22-.58-.41-.3-.81-.49-1.66-.75-2.48-.14-.42-.91-.58-1.3-.34-.82.5-1.08,1.35-1.42,2.15l.06-.09c-1.32.75-1.56,2.18-2.26,3.29.22.59.42,1.05.55,1.53.46,1.59.73,3.2.38,4.85-.07.35-.21.72-.42,1.01-.12.15-.46.24-.65.2-.19-.04-.46-.28-.49-.46-.06-.49.03-1.01-.05-1.5-.11-.74-.29-1.47-.5-2.19-.03-.09-.49-.16-.65-.07-.59.34-.87.96-.8,1.59.14,1.25.41,2.49.59,3.73.12.76.04,1.52-.3,2.21-.09.18-.35.37-.56.39-.19.02-.56-.13-.59-.27-.25-.96-.42-1.95-.67-2.91-.04-.15-.4-.32-.59-.3-.17.02-.4.26-.46.45-.1.36-.18.76-.13,1.11.15.87.35,1.72.57,2.57.2.74.37,1.49.12,2.23-.11.31-.43.58-.69.8-.29.23-.69-.02-.82-.48-.17-.6-.29-1.22-.5-1.8-.06-.18-.35-.37-.55-.38-.15-.01-.46.25-.46.39.02,1.25.1,2.51.13,3.76.02.78-.23,1.52-.79,2.07-.22.23-.65.31-.99.35-.29.03-.59-.51-.53-.88.09-.49.24-.97.34-1.46,0-.09-.11-.28-.19-.28-.21-.01-.53-.04-.64.08-.52.57-.86,1.24-.87,2.03-.03,1.13,0,2.27-.1,3.4-.17,1.59-.78,2.91-2.56,3.3-.09.02-.17.17-.35.38l.04.43-1.98,1.33h0ZM339.72,264.76c-.38.05-.89.07-1.38.18-.69.15-1.44,1.49-1.21,2.12.04.1.17.22.27.26,1.34.35,2.56-.06,3.3-1.15.13-.2.17-.46.24-.7.07-.28-.06-.48-.36-.55-.24-.06-.49-.09-.86-.16h0ZM344.69,229.55c.3.24.55.59.86.64.46.08.98.03,1.45-.09.92-.23,1.22-.7,1.09-1.62-.07-.6-.07-1.23-.6-1.68-.33-.27-.7-.07-1.43.88-.45.59-.87,1.2-1.37,1.87h0ZM95.76,172.14c-.07,1.71-.13,3.21-.18,4.71-.03.88-.03,1.76-.03,2.64,0,.12.05.24.06.37.05.47.58.77,1.14.67.65-.11,1.17-.38,1.39-1.18-1.3-.5-1.88-1.55-1.92-2.92-.02-.63-.05-1.26-.08-1.89-.04-.73.19-1.5-.39-2.41h0ZM228.92,268.54c-.32.22-.52.32-.67.47-.04.04.02.28.11.34,1.56,1.23,3.24,2.25,5.17,2.81.17.05.52-.13.59-.3.08-.17.02-.56-.12-.66-1.11-.78-2.23-1.57-3.41-2.24-.52-.29-1.18-.31-1.66-.42h0ZM78.47,180.94c1.06-2.38,1.6-4.48,3.06-6.1.07-.08-.08-.49-.23-.62-.15-.12-.44-.09-.67-.08-.11,0-.21.13-.31.21-1.03.84-1.4,2.07-1.84,3.23-.35.93-.58,1.92-.02,3.37h0ZM303.11,189.13c-.11.04-.23.07-.34.13-.55.33-.85,1.13-.55,1.59.46.72.97,1.42,1.48,2.12.2.27.73.24.98-.03.98-.99,1.04-1.65.18-2.52-.43-.43-.92-.8-1.4-1.19-.08-.07-.23-.07-.35-.1h0ZM308.38,187.64c-.36-.97-1.12-1.63-1.89-2.29-.47-.4-1.38-.14-1.52.49-.12.47-.23,1.03-.07,1.45.26.69.71,1.31,1.14,1.93.28.4.9.35,1.34-.03.48-.42.91-.87,1-1.55h0ZM215.75,237.22c1.28.78,1.28.77,1.74.29.5-.54.97-1.12,1.52-1.6.98-.84,1.59-1.89,2-3.09.1-.29-.32-.69-.7-.62-.23.04-.56.05-.68.2-1.26,1.53-2.5,3.09-3.89,4.82h0ZM341.09,275.23c-.22-.15-.32-.29-.41-.29-2.48.06-3.79,1.49-4.4,3.74-.03.11.27.43.45.45,1.24.15,2.19-.48,2.9-1.36.6-.76.98-1.7,1.46-2.54h0ZM325.12,293.53s-.65.02-1.25.15c-.34.08-.7.27-.95.52-.59.63-1.09,1.35-1.15,2.25,0,.19.17.54.31.57,2.11.41,3.49-.4,4.3-2.47.2-.5-.14-1-1.26-1.02h0ZM292.8,236.66c-.23-.08-.52-.1-.67-.25-.5-.53-1-1.08-1.41-1.68-.41-.6-.23-1.35.37-2.01.34-.39.98-.56,1.32-.29.67.53,1.34,1.07,1.97,1.66.5.47.46.97-.1,1.61-.23.28-.49.55-.79.76-.18.13-.46.14-.69.21h0ZM334.96,276.57c-2.08-.51-2.96-.25-3.79,1.18-.3.53-.49,1.11-.72,1.68-.11.26.33.73.66.75.89.07,1.77-.05,2.39-.72.74-.81,1.34-1.75,1.46-2.9h0ZM319.08,307.17c-.14-.17-.27-.48-.42-.49-.74-.05-1.48-.08-2.21,0-.33.03-.69.25-.95.49-.6.62-1.14,1.31-1.26,2.21-.03.17.19.54.32.55,1.27.14,2.46-.19,3.5-.87.61-.4.97-1.11,1.02-1.89h0ZM256.81,236.21c-.06-.11-.09-.24-.19-.33-.16-.18-.33-.39-.55-.49-.9-.43-1.85-.77-2.72-1.26-.97-.54-1.85-1.22-2.8-1.79-.11-.07-.48.13-.62.3-.23.3-.35.76-.02,1,1.4,1.04,2.84,2.04,4.27,3.05.85.6,1.66.26,2.42-.18.1-.05.13-.2.2-.3h0ZM342.88,258.94c-1.12-.09-2,.24-2.54,1.21-.36.64-.69,1.3-.98,1.97-.06.15.14.58.27.59,1.12.18,2.24.03,3.01-.85.55-.63.87-1.46,1.24-2.23.06-.11-.17-.44-.34-.55-.18-.12-.46-.11-.66-.15h0ZM210.2,225.67c.48-.15.86-.19,1.14-.37.29-.2.6-.5.73-.82.53-1.33.46-2.68,0-4.03-.23-.68-1.44-1.2-2.23-.96-.3.1-.5.76-.37,1.33.18.73.43,1.44.53,2.18.13.84.13,1.71.19,2.67h0ZM311.21,225.12c-.11-.09-.18-.2-.29-.24-.1-.05-.3-.1-.35-.05-2.19,1.96-3.47,4.51-4.51,7.2-.06.13.17.48.35.57.17.09.57.04.65-.09,1.4-2.21,2.78-4.44,4.14-6.68.1-.17,0-.46.02-.71h0ZM155.28,209.64c-.19.2-.49.42-.66.72-.21.35-.07.77.24.99.81.58,1.64,1.13,2.49,1.63.98.56,1.72.39,2.7-.47.4-.35.35-1.03-.12-1.23-1.38-.56-2.77-1.1-4.16-1.63-.11-.04-.25,0-.49,0h0ZM337.34,281.97c-.14-.19-.24-.49-.42-.54-1.23-.39-2.38-.04-2.92.92-.59,1.07-1.13,2.19-1.65,3.31-.08.17,0,.5.13.66.13.16.45.29.63.24,2.22-.57,3.75-2.25,4.23-4.59h0ZM342.48,256.8c1.76.37,1.97.38,3,.14,1.36-.32,2.02-1.09,2.17-2.66.02-.18-.19-.52-.37-.56-2.39-.66-3.16-.36-4.26,1.69-.22.43-.35.92-.53,1.39h0ZM298.19,211.12c.12.03.27,0,.35.08.54.5,1.09,1,1.58,1.55.13.15.2.55.1.7-.69,1.03-1.41,2.03-2.15,3.03-.28.37-.99.27-1.28-.17-.28-.41-.56-.84-.72-1.29-.11-.33-.18-.79-.03-1.08.43-.88.97-1.72,1.5-2.55.11-.16.44-.17.66-.25h0ZM223.98,270.72c2.18,2.01,4.76,3.54,7.26,5.16.32.21.72.02.96-.33.23-.33.34-.69.04-1-.34-.36-.7-.7-1.12-.97-.95-.61-1.95-1.13-2.88-1.76-.92-.63-1.77-1.34-2.63-2-.67.06-1.29.09-1.62.9h0ZM327.74,287.47c1,.08,1.9-.2,2.41-1.28.58-1.25,1.22-2.48,1.78-3.74.06-.14-.15-.43-.27-.63-.05-.08-.22-.12-.32-.11-1.41.24-2.67.7-3.31,2.14-.25.58-.58,1.12-.87,1.68-.11.22-.19.46-.29.69-.32.71,0,1.22.88,1.24h0ZM333.19,274.14c.22.14.32.26.44.27,1.62.21,2.96-.28,3.76-1.76.53-.97.93-2.01,1.37-3.03.11-.26-.35-.78-.66-.76-1.43.12-2.64.59-3.32,1.98-.53,1.11-1.08,2.21-1.6,3.3h0ZM314.31,311.81c-1.12-.19-2.25.67-3.1,2.04-.39.63-.73,1.28-1.06,1.94-.13.26,0,.56.3.56.74,0,1.48-.06,2.2-.16,1.17-.17,2.08-.78,2.69-1.81.3-.54.56-1.1.82-1.66.13-.28-.21-.81-.52-.83-.24-.01-.49-.03-1.33-.08h0ZM195.98,216.44c-1.06-.15-1.9-.32-2.75-.37-.49-.03-.98.2-1.23.67-.29.54-.55,1.1-.79,1.67-.27.63-.01,1.27.55,1.55,1.11.57,2.28.93,3.56.85.31-.02.67-.38.67-.72v-3.66h0ZM182.76,216.73c1.39.69,2.95,1.1,4.45,1.64.39.14,1.11-.13,1.32-.49.24-.43.46-.88.66-1.34.25-.58-.07-1.39-.63-1.51-1.34-.28-2.68-.52-4.02-.76-.55-.1-.94.22-1.25.63-.37.5-.66,1.04-.53,1.81h0ZM326.9,276.9h0c-.63,0-1.26-.05-1.89.01-.35.03-.78.16-1.02.4-.72.7-1.36,1.49-1.49,2.54-.02.19.15.53.31.58,1.48.51,2.98.29,4.45-.02.23-.04.46-.22.63-.38.65-.62,1.11-1.37,1.36-2.23.08-.32-.18-.89-.46-.9-.63-.01-1.26,0-1.89,0h0ZM323.42,299.35c-2.71-.62-3.06-.51-4.19,1.26-.53.85-1.05,1.71-1.54,2.59-.18.31-.26.69-.35,1.04-.03.09.04.23.1.32.07.09.21.19.31.2,1.16.12,2.38.04,3.15-.85,1.13-1.32,2.07-2.81,2.53-4.55h0ZM323.54,5.44c-.11.22-.32.42-.34.65-.21,2.12-.39,4.26-.56,6.39-.12,1.51-.36,3.03-.26,4.52.16,2.28,0,4.52-.36,6.76-.03.13.24.31.37.46.14-.18.41-.36.42-.55.06-1,.09-2.01.04-3.01-.05-.97.24-1.72,1.01-2.3.44-.33.59-.84.51-1.34-.18-1.24-.42-2.47-.4-3.74.05-2.01-.02-4.03-.05-6.04,0-.62.07-1.26-.38-1.79h0ZM267.18,220.67c.23-.1.49-.15.68-.3,1.08-.83,1.1-1.83.06-2.39-1.98-1.07-3.98-2.1-5.98-3.1-.16-.08-.48.08-.67.21-.2.14-.33.38-.45.59-.45.76-.41,1.29.15,1.63,1.81,1.1,3.64,2.19,5.48,3.26.19.11.48.07.73.09h0ZM163.45,212.7c-2.51,1.87-1.72,2.57-.16,3.34,1.11.55,2.25,1.05,3.41,1.51.32.13.78.14,1.09,0,1.04-.47,1.95-1.1,1.99-2.48-1.87-1.33-4.1-1.68-6.33-2.36h0ZM277.86,203.6c.83-.26,1.25-.88,1.62-1.54.27-.46.15-1.07-.27-1.33-1.7-1.05-3.41-2.09-5.12-3.14-.6-.36-1.15-.21-1.61.42-.08.1-.15.2-.21.31-.53.81-.46,1.44.18,1.98.19.16.37.36.57.48,1.62.95,3.23,1.89,4.83,2.81h0ZM235.27,268.17c.22-.08.53-.1.65-.26.45-.59.86-1.2,1.23-1.84.29-.52.03-1.37-.46-1.66-.54-.31-1.08-.71-1.66-.8-1.12-.17-2.18-.44-3.22-.91-.64-.29-1.3.16-1.74,1.03-.3.6-.17,1.3.38,1.64,1.49.91,2.98,1.81,4.48,2.71.1.06.23.06.35.1h0ZM305.26,218.19c-.73-1.34-1.7-2.27-2.8-3.11-.24-.19-.8-.11-1.03.15-.23.28-.51.55-.7.86-1.52,2.4-1.5,3.06.14,5.41.48.69,1.32.7,1.89-.02.85-1.07,1.66-2.18,2.5-3.3h0ZM247.01,251.63c-.13-.22-.24-.64-.51-.81-1.81-1.09-3.64-2.12-5.48-3.17-.1-.06-.25-.12-.35-.09-.23.06-.52.11-.63.28-.69.98-.67,2.47.08,3.09,1.15.96,2.35,1.84,3.74,2.42.33.14.72.18,1.09.21.89.07,2-.92,2.07-1.93h0ZM174.88,221.64c.39-.19.85-.26,1.03-.52.58-.82,1.06-1.71,1.55-2.58.22-.4,0-1.18-.39-1.33-1.04-.43-2.1-.86-3.15-1.26-.52-.2-1.05-.07-1.38.32-.65.76-1.26,1.57-1.78,2.42-.15.23-.07.81.12,1.02,1.08,1.15,2.56,1.51,4,1.92h0ZM301.71,242.29c-.92,1.49-1.69,2.79-2.51,4.05-.38.6-1.12.5-1.5-.21-.17-.31-.24-.65.2-.96.94-.67,1.05-.88.59-1.4-.89-.99-.96-1.97-.34-3.1.11-.2.05-.49.06-.74.03-.36-.43-.77-.71-.65-.12.04-.23.09-.35.14-1.26.65-1.75.62-2.16-.12-.43-.77-.2-1.63.63-2.32.29-.24.69-.41,1.04-.15,1.9,1.45,3.57,3.15,5.04,5.45h0ZM307.02,220.41c-.23.1-.48.16-.68.29-1.94,1.25-2.48,3.37-3.31,5.31-.07.17.06.5.21.69.31.39.65.75,1.03,1.09.41.38,1.06.32,1.31-.09.33-.53.57-1.14.97-1.61.72-.86,1.53-1.65,2.31-2.47.56-.59.57-1.31-.03-2.01-.32-.37-.7-.71-1.1-1.01-.17-.13-.46-.13-.69-.19h0ZM283.88,180.25c-.37.45-.65.71-.85,1.02-.79,1.32-.69,1.85.55,2.35,1.52.62,2.95,1.35,4.11,2.55.48.5,1.25.4,1.65-.14.37-.5.72-1.02,1.03-1.56.31-.55.09-1.33-.41-1.67-1.78-1.22-3.73-2.01-6.08-2.55h0ZM233.97,234.56c-1.75-.08-3.09.58-3.51,1.98-.44,1.41-1.29,2.38-2.32,3.29-.08.06-.13.28-.08.35.13.18.3.41.48.45,1.09.24,2.23-.13,3.33.3.54.21.99-.19,1.25-.61.87-1.36,1.7-2.76,2.54-4.14.21-.36-.09-1.08-.52-1.24-.47-.17-.94-.3-1.15-.38h0ZM220.46,238.69c.43.51,1.04.87,1.65.72,1.69-.44,3.4-.89,4.83-1.97.53-.4.81-.96.73-1.63-.06-.49-.19-.98-.32-1.46-.34-1.23-2.84-1.93-3.77-.67-.06.1-.17.18-.24.29-.96,1.47-1.9,2.93-2.85,4.41-.05.08-.02.21-.03.32h0ZM306.87,312.57v-.06c-.74,0-1.49.04-2.24,0-1.12-.06-1.89.41-2.41,1.39-.4.77-.86,1.52-1.27,2.28-.21.41.19,1.07.67,1.06,1.6-.06,3.22-.14,4.82-.26.34-.03.75-.26.95-.53.76-.98,1.47-2,2.18-3.02.17-.25-.15-.84-.46-.84-.75,0-1.49,0-2.24,0h0ZM93.83,172.8c.25-2.4.43-4.02.56-5.63.01-.11-.31-.28-.51-.37-.06-.03-.25.07-.28.14-.47,1.42-.95,2.84-1.36,4.27-.56,1.94-.9,3.92-.32,5.91.24.81.21,1.46-.33,2.08-.65.75-.55,1.62-.42,2.5.08.54.56.74,1.13.52.91-.35,1.42-.99,1.5-1.96.04-.5.03-1,.03-1.5,0-2.25,0-4.5,0-5.97h0ZM312.01,189.31c-1.02.54-1.99.48-2.54,1.32-1.39,2.1-2.84,4.17-4.25,6.25-.14.2-.23.46-.28.7-.06.25-.16.52-.09.74.1.33.26.75.52.91.34.21.76-.02.97-.35,1.66-2.7,3.73-5.07,5.66-7.57.85-1.1,1.61-2.26,2.39-3.41.26-.38-.12-1.06-.82-1.52-.45-.3-.96-.18-1.31.26-.33.42-.5.86-.42,1.39.06.37.11.75.18,1.26h0ZM263.92,223.46c.07-.86-.57-1.56-1.15-1.62-.93-.09-1.81.08-2.36.89-1.28,1.87-2.55,3.77-3.75,5.69-1.4,2.22-1.32,2.46.87,3.86.22.14.44.26.66.38.39.21,1.11.02,1.34-.39,1.41-2.67,2.82-5.35,4.22-8.04.17-.32.17-.72.17-.77h0ZM218.87,220.94c-1.02-.9-2.13-.89-3.27-.71-.43.07-.7.39-.72.75-.06,1.87-.07,3.75-.64,5.57-.07.24.35.74.69.78.75.1,1.5.26,2.23.21,1.67-.1,3-1.85,2.66-3.46-.24-1.09-.65-2.15-.95-3.14h0ZM270.49,205.03c-.11-.16-.18-.27-.25-.38-.09.07-.21.13-.29.22-1.05,1.08-2.23,2.09-2.77,3.54-.52,1.4-.91,2.85-1.33,4.2.85,1.48,1.94,2.48,3.34,3.16.43.2,1.1.15,1.4-.2.49-.57,1.1-1.11,1.36-1.78,1.01-2.71,2.59-5.12,3.98-7.62-.39-.52-.93-.63-1.26-.18-1.56,2.12-3.06,4.29-4.57,6.45-.23.3-.41.64-.68.89-.15.14-.5.21-.66.12-.43-.24-.79-.53-1.34-.54-.33,0-.58-.54-.46-.87.2-.59.38-1.2.67-1.75.93-1.78,1.92-3.53,2.87-5.27h0ZM71.52,171.15c.78,1.73,1.56,3.29,3,4.42.31.24.4.72.14.98-.22.23-.67.34-1.01.33-.35-.01-.72-.2-1.05-.37-.89-.46-1.75-.99-2.66-1.42-.44-.21-.96-.29-1.45-.35-.16-.02-.37.18-.52.31-.03.03.06.24.14.33,1.21,1.33,2.8,2.12,4.29,3.06.83.52,1.44,1.78,2.46,1.53,1.21-.29.67-1.74,1.07-2.61.47-1.03.99-2.04,1.49-3.05.34-.68.21-1.28-.44-1.57-1.49-.67-2.99-1.32-4.51-1.91-.23-.09-.6.18-.95.29h0ZM191.28,227.79c1.62.38,4.18-.99,4.88-2.71.17-.4.03-1.13-.36-1.33-.89-.44-1.76-.93-2.69-1.26-.93-.32-1.96-.74-2.88-.62-1.1.14-1.16,1.47-1.65,2.32-.38.64-.87,1.21-1.28,1.83-.37.54-.02,1.31.65,1.4,1.11.14,2.22.25,3.33.38h0ZM187.2,221.36c-.25-.39-.37-.8-.65-.98-1.39-.91-3-1.27-4.59-1.67-.98-.25-1.71.07-2.24.94-1.9,3.13-1.57,3.98,1.92,5.13.48.16.98.27,1.48.31,1.06.08,2.08-.25,2.71-1.07.6-.77.93-1.76,1.38-2.65h0ZM294.54,164.04c1.62,1.5,3.19,2.95,5.05,4.01.91.52,1.74.39,2.36-.39,1.8-2.26,1.78-2.65-.21-4.29-1.08-.88-2.04-1.88-3.09-2.81-.8-.71-1.65-.61-2.24.27-.69,1.03-1.5,2.01-1.88,3.21h0ZM152.18,205.99c1.24.93,2.68,1.38,4.09,1.89,2.73.99,5.46,1.97,8.2,2.94,2.02.71,4.02,1.55,6.16,1.84,1.16.15,2.17.54,3.16,1.16,1.4.89,2.99,1.34,4.59,1.72.24.06.5.03.75.03.51,0,1.23-.69,1.28-1.22.04-.4-.39-.95-.89-1.08-.98-.25-1.96-.48-2.94-.72-3.19-.77-6.41-1.43-9.56-2.36-4.48-1.31-8.9-2.83-13.34-4.25-.47-.15-.97-.32-1.49.05h0ZM200.3,225.17c-.56-.04-1.06.06-1.42.44-1.13,1.18-2.23,2.39-3.33,3.6-.31.33-.45.86-.23,1.01.19.13.42.33.63.31,1.78-.16,3.5.06,5.23.49.45.12,1.02.01,1.47-.15.81-.31,1.63-.67,2.39-1.12.41-.25.71-.69,1-1.09.35-.47.11-1.46-.39-1.64-1.78-.63-3.57-1.24-5.34-1.85h0ZM198.73,218.78c0,.55-.05.93,0,1.3.24,1.6.96,2.82,2.67,3.25,1.09.27,2.16.66,3.25.92.47.12.99.11,1.49.13.87.03,1.65-1.06,1.3-1.84-.4-.92-.97-1.78-1.24-2.72-.28-.99-.89-1.5-1.79-1.7-1.59-.34-3.2-.61-4.78-.91-.29-.05-.79.34-.82.62-.04.37-.07.75-.09.95h0ZM204.37,233.33c1.08.45,2.03.8,2.92,1.23,1.47.71,2.89.76,4.29-.12.76-.48,1.52-.79,2.47-.55.65.16,1.2-.22,1.69-.64,1.39-1.17,1.33-2.06-.24-2.72-1.62-.68-3.25-1.3-4.9-1.92-.64-.23-1.31-.1-1.71.43-1.15,1.53-2.57,2.72-4.24,3.64-.07.05-.09.21-.29.66h0ZM324.42,287.15c-2,.93-3.68.36-5.27.61-.33.05-.46.24-.34.55.08.21.2.48.37.57.34.15.72.23,1.08.27.63.09,1.26.1,1.89.18.62.09.85.86.46,1.49-.34.55-.72,1.06-1.43,1.11-.87.07-1.76.16-2.63.08-.93-.08-2.18.5-2.7-.66-.42-.91.56-1.57.98-2.31.94-1.64,1.92-3.26,2.82-4.91.66-1.21,1.5-1.95,2.99-1.77.99.12,2.01.06,3.02.1.5.02.88.64.65,1.09-.64,1.22-1.3,2.44-1.91,3.61h0ZM313.81,206.53c.27-.21.62-.4.84-.69,2.93-3.95,5.85-7.91,8.74-11.89.44-.6.75-1.32,1.03-2.02.25-.65-.04-1.22-.51-1.7-.39-.39-1.01-.41-1.32-.02-3.39,4.08-6.38,8.46-9.25,12.92-.27.42-.53.88-.66,1.35-.17.62-.08,1.27.44,1.73.17.15.42.2.69.33h0ZM236.36,222.84c.52,2.69.55,5.4-.33,8.09-.24.75.46,1.34,1.36,1.27.66-.06,1.19-.33,1.6-.84,1.72-2.15,3.44-4.29,5.14-6.45.23-.29.38-.65.56-.98.23-.4-.12-1.08-.58-1.17-2.34-.45-4.7-.49-7.08-.36-.21.01-.4.26-.66.44h0ZM310.66,202.38c.41-.46.95-.98,1.39-1.58,2.73-3.74,5.44-7.5,8.16-11.26.22-.3.37-.65.55-.98.29-.55.11-1.2-.45-1.66-.52-.43-1.21-.44-1.71-.01-.51.44-.71.95-.59,1.66.16.97.1,1.07-.79,1.07-.69,0-1.21.21-1.63.72-.87,1.06-1.69,2.18-2.6,3.21-1.84,2.08-3.47,4.29-4.58,6.84-.1.21-.06.48-.11.92.75.2,1.19,1.12,2.36,1.07h0ZM221.16,228.86c3.02.82,5.8,1.59,8.59,2.31.59.16,1.23.2,1.86.21.66,0,1.21-.28,1.62-.82,1.15-1.5,1.6-3.1.71-4.91-.33-.67-.63-1.38-.79-2.11-.26-1.23-1.11-1.59-2.18-1.69-2.75-.26-5.52-.27-8.24-.83-.3-.07-.79.38-.75.67.06.49.11.99.22,1.48.35,1.67.21,3.25-.69,4.73-.13.21-.18.47-.34.95h0ZM312.85,306.89c-.93-.17-1.91-.3-2.87-.55-.3-.08-.56-.44-.75-.73-.17-.26.24-.59.72-.56,1.01.05,2.02.04,3.01.2,1.02.16,1.75-.16,2.26-.98.8-1.28,1.56-2.59,2.28-3.92.15-.27.02-.7.02-1.1-1.18-.13-2.29-.25-3.4-.39-.33-.05-.41-.29-.28-.55.06-.11.11-.26.2-.29.34-.15.69-.34,1.05-.38.99-.11,2-.14,3-.22.68-.05,1.22-.35,1.54-.94.35-.65.65-1.34.91-2.03.05-.13-.18-.52-.34-.54-1.99-.31-3.97-.33-5.91-.13-.31.38-.59.65-.78.97-2.84,4.77-5.65,9.53-8.46,14.31-.18.32-.34.69-.38,1.04-.03.18.2.52.36.56,1.87.45,3.74.33,5.59-.08.34-.07.71-.34.93-.62.62-.77,1.27-1.55,1.43-2.59.02-.12-.06-.24-.12-.48h0ZM337.74,181.27c.07-.69-.45-1.09-.77-1.58-.34-.53-.69-1.05-1.01-1.59-1.22-2.03-1.83-4.14-.83-6.47.09-.22.04-.49.06-.74-.08-.23-.11-.52-.27-.69-1.69-1.93-2.2-4.16-1.93-6.68.11-.98.08-2.04-.16-2.99-.78-3.1-.8-6.22-.74-9.38.06-3.27.06-6.55-.05-9.82-.05-1.63-.35-3.25-.57-4.87-.04-.23-.15-.5-.31-.67-.15-.16-.4-.25-.62-.34-.29-.11-.51,0-.57.32-.09.49-.19.98-.18,1.47.06,4.4.14,8.81.23,13.22.07,3.91,0,7.82.29,11.71.26,3.52.57,7.02.32,10.56-.07,1.18.28,2.19,1.07,3.11,1.72,2.02,3.76,3.71,5.71,5.48.05.05.2-.02.33-.03h0ZM324.03,121.01c.99-1.78,1.18-3,1.26-4.27.13-2.01.39-4.01.55-6.03.31-3.9.69-7.79.88-11.7.17-3.4.16-6.81.16-10.22,0-5.05-.09-10.09-.14-15.14-.06-6.05-.09-12.12-.18-18.17-.03-2.14-.2-4.28-.36-6.41-.03-.3.12-.9-.66-.9-.03,1.16-.07,2.29-.08,3.42-.04,4.16-.05,8.32-.1,12.49-.07,5.18-.43,10.33-.8,15.49-.15,2.01.05,4.05-.23,6.04-.57,4.15-.43,8.31-.37,12.46.04,2.14.07,4.28.08,6.43,0,4.79,0,9.59,0,14.38v2.13h0ZM342,253.85c-.54.95-.8,1.9-1.42,2.44-1.23,1.05-1.68,2.43-2.21,3.84-.31.81-.8,1.59-1.34,2.28-.55.72-.89,1.46-1.15,2.33-.67,2.12-.82,2.2-3.27,3.31.28.54.56,1.07.84,1.62-.46,1.6-1.37,2.98-2.22,4.37-.41.67-1.03,1.1-1.86,1.14-.26.01-.51.03-.76.03-3.08.06-3.5-.15-1.9-2.99,4.03-7.15,7.82-14.43,12.03-21.48,1.49-2.49,3.02-4.96,4.49-7.47.68-1.16,1.64-1.49,2.88-1.26.62.11,1.23.27,1.82.44.49.14.71.84.44,1.22-.61.81-1.27,1.6-2.21,2.02-.97.42-1.25,1.12-1.23,2.1.02.92-.56,1.66-1.02,2.4-.43.69-1.03,1.07-1.87,1.07-.5,0-1.01,0-1.5.09-.19.04-.41.29-.48.5-.07.2-.06.57.07.68.47.4,1.01.72,1.87,1.29h0ZM294.33,203.48c.68-1.76,1.18-3.05,2.1-4.12.14-.15.41-.2.67-.32,1.33,1.12,2.69,2.24,4,3.41,2.17,1.92,4.25,3.94,5.96,6.31.8,1.12,1.81,2.09,2.72,3.13,1.49,1.7,2.91,3.47,4.13,5.39.6.96,1.33,1.83,2,2.75.82,1.12,1.58,2.28,1.89,3.67.14.63.13,1.26-.17,1.84-.41.78-1.54,1.33-2.07.34-.44-.79-.91-1.49-1.84-1.77-.76-.23-1.23-.84-1.73-1.41-1.41-1.61-2.81-3.24-4.25-4.81-1.89-2.03-3.8-4.03-5.73-6.02-1.06-1.08-2.23-2.04-2.92-3.44-.21-.43-.62-.8-1.02-1.08-1.45-1.06-2.27-2.67-3.73-3.86h0ZM286.86,216.1c.31.36.57.75.91,1.05.48.41,1.01.75,1.51,1.13,3.22,2.44,6.32,5,9.02,8.04,2.18,2.45,4.51,4.77,6.37,7.48.28.4.72.92.65,1.31-.23,1.33.4,2.01,1.33,2.86,1.42,1.29,1.52,3.09,1.01,4.91-.16.56-1.12.83-1.57.43-.38-.33-.74-.67-1.09-1.03-2.33-2.48-4.7-4.93-6.97-7.47-1.59-1.79-3.62-3.14-5.03-5.12-.58-.81-1.73-.9-2.47-1.67-1.32-1.35-2.81-2.53-4.25-3.76-.95-.82-1.92-1.62-2.89-2.43.88-2.74,1.47-3.7,3.46-5.72h0ZM268.69,226.19c.12.03.25.03.36.08,2.8,1.44,5.59,2.88,8.14,4.79,3.04,2.28,5.95,4.67,8.67,7.31,2,1.92,4.21,3.62,6.35,5.4.77.65,1.55,1.28,2.05,2.2.43.8,1.07,1.39,1.8,1.91.65.46,1.01,1.11,1.09,1.9.09.86.63,1.3,1.35,1.67.79.39.96,1.14.76,1.94-.16.61-.4,1.19-.61,1.78-.09.29-.74.46-.97.25-.82-.78-1.7-1.51-2.43-2.37-1.23-1.45-2.57-2.78-4.02-4-1.82-1.55-3.6-3.13-5.9-3.97-.72-.27-1.32-.74-1.71-1.42-.43-.73-1.08-.97-1.88-1.06-1.04-.12-1.96-.56-2.48-1.52-.41-.76-1.07-1-1.85-1.12-1.36-.19-2.35-.88-2.8-2.23-.23-.69-.73-.98-1.39-1.07-.75-.09-1.03-.68-1.29-1.24-.31-.63-.75-.93-1.47-.96-.34,0-.8-.19-.98-.45-.46-.67-1.13-.93-1.81-1.26-.66-.31-1.22-.89-1.73-1.43-.23-.23-.39-.79-.27-1.02.72-1.32,1.52-2.61,2.32-3.88.1-.15.45-.15.68-.22h0ZM276.04,226.69c-.23,0-.38.04-.47,0-1.55-.84-3.2-1.51-4.51-2.73-.56-.52-.71-1.1-.34-1.66,1.76-2.62,3.46-5.28,5.31-7.83,3.47-4.81,6.35-10,9.5-15,1.27-2.02,2.26-4.22,3.54-6.25,3.18-5,6.24-10.08,9.47-15.04,1.71-2.64,3.69-5.11,5.57-7.64.38-.51,1.21-.61,1.7-.23.79.62,1.56,1.27,2.32,1.93.48.42.52,1.07.12,1.71-.81,1.28-1.55,2.62-2.47,3.81-1.17,1.51-2.07,3.16-2.93,4.84-.86,1.68-1.81,3.31-2.69,4.99-3,5.69-6.21,11.27-9.53,16.77-1.96,3.24-4.23,6.28-6.14,9.54-2.42,4.14-5.13,8.09-7.73,12.12-.18.29-.51.5-.71.69h0ZM322.75,27.05c.15,1.97.33,3.1.32,4.23-.04,4.31.58,8.56,1.21,12.81.13.87.16,1.76.19,2.64.08,2.77-.35,5.52-.32,8.3.03,2.4-.21,4.8-.25,7.19-.07,3.79-.21,7.57-.56,11.35-.33,3.52-.46,7.06-.69,10.58-.04.63,0,1.27-.1,1.89-.48,3.65-.38,7.32-.2,10.98.14,2.78.31,5.55.45,8.33.03.5.08,1.01.03,1.51-.37,3.39-.39,6.79-.37,10.19,0,.76,0,1.53-.55,2.15-1.64,1.87-1.38,3.93-.66,6.05.07.24.2.46.33.68.4.69.43,1.42.34,2.2-.56,4.66-.41,9.33-.45,14.01,0,1.51-.16,3.03-.34,4.53-.34,3.01-.71,6.02-.56,9.07.06,1.13-.14,2.27-.2,3.4-.09,1.51-.15,3.03-.26,4.54-.02.21-.22.42-.35.63-.31-.18-.72-.3-.91-.57-.19-.29-.24-.72-.22-1.08.07-2.02.07-4.05.32-6.05.62-5.15,1.09-10.3,1.33-15.47.03-.76.11-1.52.09-2.27-.09-2.28.07-4.54.29-6.81.11-1.12.02-2.25.02-3.36-.69-.14-.96.3-1.06.77-.55,2.47-.86,4.97-.95,7.5-.05,1.38-.05,2.78-.16,4.16-.31,3.9-.66,7.8-1,11.69-.04.38-.06.76-.14,1.13-.48,2.34-1.09,4.66-1.35,7.05,0,.08-.43.23-.58.17-.75-.29-1.26-.83-1.37-1.65-.06-.37-.09-.75-.08-1.13.07-2.91.23-5.81.86-8.66.11-.49.11-1.02.28-1.49.72-2.08.11-4.31.66-6.38.53-1.98.84-3.93.7-5.98-.06-.74.17-1.5.26-2.25.14-1.13.33-2.25.4-3.38.14-2.91.57-5.77,1.22-8.6.14-.61.23-1.25.22-1.87-.05-4.18.29-8.32.69-12.47.46-4.77.73-9.57,1.05-14.36.06-.88,0-1.76-.03-2.65-.07-3.04-.13-6.06.48-9.06.28-1.35.25-2.77.26-4.15.06-5.81.03-11.62.1-17.43.05-2.9.29-5.8.37-8.71.14-5.05.07-10.11.45-15.15.21-2.64,0-5.31.79-8.73h0ZM223.86,265.46c-.1-.06-.25-.11-.29-.2-.09-.21-.26-.55-.17-.66,1.71-2.07,2.67-4.55,3.94-6.86,1.64-2.99,3.47-5.87,5.3-8.74.53-.83,1.45-1.4,2-2.23.55-.83.77-1.87,1.29-2.73,3.39-5.62,6.12-11.62,9.7-17.14.96-1.47,1.75-3.07,3.24-4.16.37-.27.65-.77.8-1.23.46-1.48,1.32-2.71,2.18-3.97,1.85-2.72,3.64-5.47,5.45-8.2.49-.74.94-1.5,1.46-2.21,3.36-4.6,6.21-9.52,9.06-14.44.37-.65.81-1.28,1.25-1.9,1.6-2.27,3.27-4.5,4.48-7.02,3.31-4.48,5.45-9.66,8.53-14.29.06-.11.11-.23.18-.34,1.65-2.39,3.41-4.71,4.9-7.19,1.44-2.39,2.89-4.75,4.7-6.87.49-.58.99-1.15,1.5-1.7.36-.38.85-.65,1.35-.43.58.26,1.09.72,1.09,1.42,0,.62,0,1.29-.22,1.86-.42,1.05-.98,2.05-1.53,3.04-2.59,4.64-5.54,9.05-8.74,13.29-2.37,3.13-4.31,6.53-6.34,9.88-2.34,3.89-4.48,7.92-7.13,11.62-.15.21-.29.42-.42.63-2.06,3.33-4.18,6.62-6.55,9.75-1.13,1.5-2.03,3.19-3.04,4.79-.06.11-.12.22-.19.33-3.65,5.76-7.26,11.55-10.98,17.26-2.74,4.24-5.66,8.37-8.44,12.59-1.6,2.42-3.06,4.94-4.63,7.38-1.56,2.44-3.21,4.85-4.81,7.27-1.8,2.74-3.66,5.46-5.39,8.25-.82,1.33-1.96,2.27-3.16,3.19-.06.06-.23-.02-.36-.03h0ZM299.99,155.84c.23-.97.43-1.7.54-2.45.16-1.06-.2-1.98-.92-2.78-.77-.86-1.72-1.44-2.71-2.03-1.28-.76-2.44-.52-3.51.33-.68.54-1.32,1.19-1.82,1.9-1.48,2.05-2.89,4.14-4.3,6.24-.64.95-1.18,1.95-1.82,2.89-3.95,5.73-7.51,11.69-10.97,17.72-1.64,2.84-3.26,5.71-5.17,8.38-.81,1.12-1.53,2.32-2.21,3.53-2.35,4.2-4.98,8.21-7.75,12.14-2.92,4.14-5.67,8.37-8.34,12.66-1.13,1.82-2.38,3.57-3.57,5.36-.46.69-1.13,1.02-1.93.99-3.54-.12-7.07-.25-10.61-.4-1.26-.06-2.51-.25-3.77-.3-4.17-.17-8.29-.83-12.43-1.26-8.2-.85-16.15-2.91-24.2-4.48-3.71-.72-7.39-1.63-11.16-2.01-.87-.09-1.73-.39-2.59-.59-4.05-.95-8.14-1.78-12.16-2.9-4.74-1.31-9.43-2.85-14.12-4.34-3.5-1.1-6.96-2.28-10.45-3.42-.72-.23-1.45-.47-2.19-.62-4.59-.97-9.01-2.46-13.35-4.23-4.09-1.67-8.18-3.36-12.26-5.06-1.16-.49-2.34-.96-3.26-1.88-.48-.47-.53-1.19-.07-1.67,1.42-1.5,3.06-2.65,5.11-3.07,1.48-.31,2.9-.81,4.42-1.05,2.61-.41,5.17-1.12,7.75-1.75,1.96-.48,3.91-1.02,5.86-1.53.49-.13,1-.2,1.46-.39,3.74-1.58,7.73-2.35,11.59-3.55,3.01-.94,6.03-1.89,9.1-2.56,3.97-.86,7.72-2.34,11.54-3.63.71-.24,1.44-.49,2.11-.83,2.84-1.42,5.87-2.3,8.87-3.27,3.13-1,6.21-2.12,9.27-3.31,5.17-2.01,10.31-4.12,15.33-6.53,2.39-1.15,4.82-2.21,7.25-3.26,4.98-2.18,9.96-4.34,14.95-6.48,2.32-.99,4.67-1.92,7.01-2.86,5.16-2.08,10.19-4.43,15.16-6.94,4.62-2.34,9.25-4.65,13.81-7.11,3.45-1.87,6.87-3.78,10.17-5.89.31-.2.62-.43.96-.62,5.18-2.91,10-6.4,14.99-9.62.32-.2.66-.38.95-.61,4.43-3.56,9.26-6.62,13.43-10.51.56-.52,1.16-.98,1.76-1.45,2.67-2.11,5.36-4.23,8.05-6.31.7-.53,1.45-.99,2.21-1.42.09-.06.4.21.58.37.07.06.12.23.11.34-.11,2.78-.23,5.55-.34,8.33-.12,3.02-.27,6.03-.7,9.04-.55,3.86-.56,7.8-.92,11.7-.21,2.38-.64,4.75-.98,7.12-.12.88-.32,1.75-.36,2.63-.27,5.69-1.44,11.27-1.9,16.94-.14,1.76-.44,3.51-.73,5.25-.09.47-.36.95-.66,1.33-1.17,1.49-2.39,2.94-3.6,4.4-.3.38-.97.47-1.37.16-.88-.71-1.79-1.4-2.62-2.17-.83-.77-1.57-1.63-2.49-2.59h0ZM103.92,182.81c.06.05.12.1.18.16-.08-.04-.16-.07-.23-.1.55-.84.92-1.78,1.7-2.49,2.55-2.29,5.34-4.24,8.25-6.02.55-.34,1.16-.44,1.8-.16.49.22.99.15,1.43-.16,1.54-1.11,3.05-2.24,4.6-3.34,2.38-1.67,4.76-3.33,6.83-5.4.26-.26.61-.46.95-.59.2-.08.48,0,.71.05.26.06.43.76.27,1-.28.41-.51.9-.88,1.21-1.66,1.37-3.34,2.71-5.05,4-2.72,2.06-5.47,4.08-8.22,6.09-1.73,1.27-3.5,2.47-5.25,3.73-.82.59-1.61,1.2-2.39,1.84-.12.1-.11.39-.12.59,0,.03.22.11.33.11,1.28-.08,2.47-.37,3.51-1.22,1.27-1.04,2.67-1.93,3.89-3.02,1.99-1.78,4.16-3.28,6.44-4.64,1.96-1.17,3.75-2.56,5.36-4.19,1.06-1.07,2.27-2,3.42-3,3.05-2.65,6.1-5.3,9.15-7.96.28-.25.6-.5.8-.81,1.06-1.63,2.63-2.71,4.13-3.86,1.1-.85,2.24-1.66,3.26-2.6,3.16-2.91,6.7-5.38,9.73-8.44.61-.62,1.37-1.13,2.09-1.63,3.31-2.32,6.63-4.62,9.56-7.44.54-.52,1.17-.97,1.75-1.45,1.74-1.47,3.46-2.95,5.22-4.39,1.95-1.6,3.93-3.17,5.91-4.74.44-.35.95-.34,1.39,0,.59.46,1.16.46,1.7,0,1.05-.91,2.08-1.83,3.08-2.79.35-.34.58-.8.84-1.21.06-.09.03-.26-.03-.35-.06-.1-.19-.19-.31-.2-1.33-.18-2.47.39-3.54,1.06-1.82,1.15-3.6,2.35-5.36,3.58-1.97,1.37-3.89,2.81-5.84,4.2-3.91,2.8-7.82,5.58-11.72,8.37-4.12,2.93-8.14,6-12.36,8.77-6.97,4.58-13.64,9.58-20.5,14.31-.52.35-1.01.76-1.47,1.2-1.2,1.14-2.52,2.1-3.95,2.93-1.97,1.15-3.74,2.58-5.5,4.02-.88.72-1.73,1.48-2.64,2.16-4.03,3.04-7.84,6.37-12.05,9.18-.31.21-.65.42-.9.69-.24.27-.52.6-.55.94-.09.72-.25,1.52.57,2.01h0ZM319.28,204.05c.5,0,1.02-.03,1.51.04.86.12,1.46-.24,1.94-.89.46-.61.93-1.2,1.34-1.84.95-1.49,1.83-3.02,2.79-4.51.94-1.48,1.94-2.94,2.88-4.35-.16-.33-.23-.58-.39-.75-.55-.57-1.25-.61-1.62-.14-.16.2-.33.39-.46.6-2.5,3.5-4.99,6.99-7.46,10.51-.27.38-.3.93-.45,1.4-1.21.45-1.65,1.51-1.86,2.61-.11.59.25,1.21.78,1.63.24.18.79.12,1.01-.1.57-.58.88-1.25.7-2.04-.18-.73-.46-1.43-.71-2.15h0ZM281.42,188.96c-.23.07-.54.06-.68.22-1.54,1.67-2.72,3.58-3.73,5.6-.23.45-.12,1.01.27,1.39.36.34.76.66,1.19.89.74.41,1.64.27,2.04-.34,1.63-2.52,3.42-4.95,4.66-7.7.1-.22.13-.5.08-.73-.06-.21-.23-.52-.39-.56-.17-.04-.46.14-.62.29-.17.16-.27.42-.35.64-.93,2.34-2.21,4.48-3.65,6.54-.1.16-.48.28-.64.21-.17-.07-.32-.41-.3-.62.08-1.03.69-1.85,1.21-2.71.58-.98,1.04-2,.86-3.19.1-.02.21-.03.29-.08.04-.03.04-.21.03-.21-.21-.05-.31.07-.26.35h0ZM357.93,262.4c.23-.26.62-.48.69-.79.47-1.82.88-3.67,1.31-5.5,1.14-4.82,1.38-9.69.72-14.6-.21,1.37-.31,2.75-.41,4.13-.17,2.01-.32,4.03-.5,6.03-.3,3.13-.85,6.22-1.61,9.28-.12.49-.09,1-.14,1.51-.18.31-.41.6-.51.94-.06.17.11.4.17.61.09-.17.23-.34.25-.52.05-.36.02-.73.02-1.1h0ZM134.98,201.84c.89-.06,1.72.18,2.54.5,1.5.59,3,1.21,4.52,1.74,1.24.43,2.16,1.19,2.86,2.27,2.46-.19,4.69.52,6.79,1.75.16.1.25.4.28.62.04.32-.42.67-.78.63-.37-.04-.78,0-1.1-.17-1.68-.83-3.33-1.7-4.98-2.57-.09-.04-.1-.23-.14-.35-.37,0-.79.1-1.1-.04-2.82-1.27-5.63-2.57-8.44-3.88-.18-.08-.27-.37-.4-.57-1.77.19-3.1-.76-4.52-1.69.24-.13.46-.32.58-.28,1.16.46,2.31.95,3.45,1.47.19.09.3.37.45.56h0ZM251.93,241.39c-.13.01-.29-.02-.37.05-1.28,1.21-2.38,2.55-2.89,4.28-.57.46-1.15.91-1.76,1.39-.12-.34-.31-.61-.25-.76.37-.79.76-1.58,1.22-2.32.88-1.38,1.83-2.72,2.73-4.09.13-.19.22-.47.19-.69-.04-.2-.23-.4-.39-.57-.06-.06-.3-.06-.36,0-.27.25-.54.52-.75.83-.81,1.27-1.6,2.57-2.42,3.84-.34.5-.46,1.19-1.21,1.35-.48.1-.5.11.33-1.65.28-.59.5-1.15.43-1.8l.24-.17-.17.23c-1.33.66-1.81,1.92-2.2,3.21-.1.33-.04.75.07,1.08.46,1.37,1.38,2.3,2.78,2.71.19.06.5-.03.67-.17.71-.57,1-1.36,1.01-2.27,1.51-1.19,2.35-2.81,3-4.56.14-.17.29-.34.41-.53.03-.04-.12-.23-.13-.23-.39.2-.26.52-.2.84h0ZM117.59,180.57c.96-.22,1.72-.8,2.43-1.43.24-.21.35-.58.51-.88.53.04.94-.22,1.3-.56.09-.09.25-.18.24-.26-.02-.31-.21-.34-.48-.1-.35.32-.92.41-1.01.98-1.35.3-2.4.98-2.93,2.31-.23.05-.46.1-.69.15.03.06.05.13.08.2.18-.14.37-.28.55-.42h0ZM110.69,195.79c0-.74-.55-1.03-1.09-1.29-.14-.07-.41.13-.62.21.05.1.08.22.15.3.44.47.99.67,1.62.72.48.86,1.23,1.35,2.14,1.65.71,1.19,1.65,2.06,3.1,2.21.04.11.05.24.13.31.06.05.26.04.28,0,.12-.25,0-.39-.33-.39-.15-.32-.23-.73-.48-.93-.73-.62-1.47-1.27-2.48-1.44-.56-.89-1.32-1.42-2.42-1.33h0ZM302.67,263.3c-.91.49-1.46,1.23-1.52,2.28-.61,0-.73.56-1.03.9-.22.26-.17.46.12.51.09,0,.21-.11.3-.19.39-.33.57-.76.53-1.27.97-.45,1.38-1.28,1.52-2.28.69-.06.95-.61,1.26-1.1.14-.24.03-.48-.25-.57-.06-.02-.19.1-.28.17-.47.41-.69.93-.66,1.55h0ZM355.01,271.67c-.65.61-.75,1.4-.74,2.23-.19.12-.38.24-.55.39-.04.03.06.29.08.29.47-.06.32-.46.39-.75.82-.55.61-1.45.74-2.23.75-.3.68-.98.75-1.6q1.2-1.42,1.21-3.13c-.79.97-1.15,2.02-1.14,3.2-.59.38-.6,1.01-.75,1.6h0ZM81.94,182.14c-.64.1-.74.6-.72,1.1,0,.21.22.41.34.61.07-.1.18-.19.19-.29.06-.49.08-.98.12-1.48.15-.12.32-.24.46-.39.03-.03-.07-.24-.08-.24-.41.08-.33.4-.3.69h0ZM320.83,232.13c.64-.33.63-.97.74-1.55.68-.31.78-.88.71-1.54.88-.18.83-.84.78-1.5.8-.22.83-.83.77-1.5,1.02-.4,1.35-1.29,1.55-2.26,1.85-2.02,3.61-4.48,5.38-7.55.55-.97,1.29-1.84,1.49-2.99.13-.2.26-.4.38-.6-.07-.02-.16-.03-.25-.05-.02.24-.04.48-.06.72-.56-.12-.98.16-1.25.59-1.77,2.84-3.53,5.68-5.25,8.54-.24.4-.26.93-.38,1.41-1.01.42-1.41,1.24-1.55,2.26-.71.26-.7.9-.77,1.5-.69.28-.7.91-.77,1.51-.62.34-.7.93-.71,1.55-.72.29-.76.91-.75,1.55-.1.02-.21.01-.29.06-.06.03-.06.13-.08.21.1-.11.2-.22.31-.33h0ZM183.49,237.54c0-.48-.32-.7-.71-.87-.43-.48-.98-.65-1.6-.68-.17-.18-.14-.77-.63-.3.23.07.47.15.7.22.33.71.96.71,1.6.68-.06.52.27.74.7.87.33.59.95.56,1.49.69l.09.15-.13-.1c-.41-.44-.91-.69-1.53-.66h0ZM264.72,243.52c.14-.16.3-.31.42-.49.03-.03-.06-.15-.1-.24-.36.18-.26.5-.24.8-.5-.01-.7.33-.87.72-.77.56-1.26,1.3-1.46,2.24l-.18.15.12-.22c.88-.5,1.41-1.21,1.45-2.25.46-.04.71-.32.86-.72h0ZM197.2,247.31c.31.74.94.74,1.6.71.09.21.13.52.3.63.82.56,1.65,1.1,2.52,1.59,1.95,1.12,3.99,2.08,5.83,3.33,2.48,1.69,5.15,3.03,7.72,4.55.51.3,1.16.36,1.76.54.06.06.13.12.19.17-.08-.03-.17-.07-.27-.1-1.26-1.64-3.03-2.63-4.75-3.64-3.6-2.1-7.25-4.09-10.9-6.1-.76-.42-1.53-.89-2.46-.91-.37-.61-.95-.73-1.6-.71-.24-.77-.88-.73-1.5-.74-.03-.1-.03-.2-.07-.29-.03-.05-.11-.06-.17-.09.11.1.21.2.32.3.29.65.87.72,1.49.74h0ZM254.89,258.71c.41-.44.69-.94.69-1.55.69-.31.71-.94.71-1.56.82-.21.66-.89.73-1.47.29-.25.59-.51.86-.76.84-.51,1.23-1.33,1.49-2.22l.14-.14-.12.17c-.75.58-1.47,1.18-1.43,2.26-.29.25-.58.51-.86.76-.53.35-.67.89-.74,1.46-.63.34-.74.92-.72,1.56-.84.23-.67.93-.7,1.53l-.18.06.12-.09h0ZM238.18,259.45c.15-.15.34-.28.45-.46.16-.28.04-.44-.26-.4-.06,0-.12.19-.13.29,0,.22,0,.43,0,.65-.39.01-.48.09-.29.23.07-.1.15-.21.22-.31h0ZM345.84,260.94c.2-.08.46-.12.56-.27.08-.12-.03-.37-.05-.56-.15.08-.38.14-.42.26-.08.19-.02.42-.02.64-.09,0-.19,0-.27.04-.05.02-.05.13-.07.2.09-.1.18-.2.28-.31h0ZM202.44,270.21l-.03-.18.07.11c.41.49.9.77,1.57.67.09.22.13.52.29.65,4.96,4.04,9.9,8.12,15.34,11.52,1.59,1,3.09,2.16,4.63,3.23.19.13.45.21.68.27.09.02.23-.07.3-.15.06-.07.1-.24.05-.29-1.04-1.28-2.4-2.18-3.75-3.07-3.24-2.15-6.39-4.43-9.48-6.81-2.09-1.61-4.26-3.1-6.4-4.64-.51-.37-1.04-.71-1.72-.64-.28-.8-.91-.76-1.56-.66h0ZM321.61,307.23c.16-.15.33-.28.47-.44.03-.03-.09-.25-.11-.25-.43.12-.32.46-.29.77-.1.01-.19,0-.27.04-.06.02-.07.1-.12.16.11-.09.21-.18.32-.27h0ZM295.03,173.68l-.07.17.14-.11c.23-.5.45-1,.68-1.5l.14-.11-.18.09c-.23.48-.46.97-.7,1.45h0ZM292.01,174.51c-.62.36-.84.88-.71,1.56-.43.12-.55.45-.58.84-.05.5-.08,1-.13,1.51-.73-.42-1.43-.89-2.19-1.21-.23-.1-.68.17-.97.36-.32.2-.29.68.03.91.58.43,1.19.84,1.81,1.2.36.22.88-.08,1.11-.61.09-.22.09-.48.14-.71.24-.78.48-1.55.72-2.33.72-.31.79-.91.7-1.58.11,0,.23.02.32-.02.06-.02.08-.14.12-.23-.13.11-.25.22-.37.32h0ZM292.78,177.5c.52-.35.57-.93.72-1.46l.14-.13-.11.16c-.51.37-.6.92-.68,1.48l-.14.08.08-.13h0ZM122.85,198.84c.57.1,1.16.18,1.56.68.82.32,1.7.53,2.44.98,2.06,1.25,4.25,2.22,6.47,3.13,3.04,1.24,6.03,2.58,8.95,4.09,1.8.92,3.65,1.73,5.49,2.56,2.18.99,4.33,2.05,6.42,3.23,3.09,1.72,6.25,3.3,9.4,4.91,2.69,1.38,5.43,2.69,8.1,4.11,3.9,2.08,7.97,3.79,12.08,5.41.7.28,1.4.58,2.09.89,3.45,1.58,6.99,2.92,10.6,4.06,4.34,1.37,8.57,3.02,12.81,4.63,4.96,1.88,10.05,3.38,15.16,4.74,1.58.42,3.13.95,4.68,1.49.45.16.82.53,1.34.89-2.45,4.51-4.84,8.94-7.26,13.36-.11.2-.37.32-.58.48-1.15-.23-1.09-1.65-2.05-2.07-.92-.4-1.86-.78-2.75-1.24-.55-.29-1.02-.74-1.55-1.07-2.04-1.25-3.92-2.78-6.14-3.73-.34-.15-.69-.34-.98-.57-3.21-2.47-6.86-4.25-10.3-6.35-2.58-1.58-5.1-3.27-7.64-4.92-3.72-2.41-7.61-4.5-11.52-6.54-8.96-4.68-17.59-9.91-26.21-15.17-.75-.46-1.44-1.02-2.18-1.5-.63-.4-1.27-.86-1.96-1.1-2.18-.74-4.1-1.94-6.04-3.13-5.48-3.38-11.02-6.65-16.7-9.69-.66-.35-1.27-.83-1.86-1.29-.16-.12-.17-.43-.25-.66-.64.05-1.2-.08-1.56-.68-.09-.05-.19-.09-.28-.14.07.07.14.14.21.21h0ZM325.42,204.09c.12-.19.25-.37.38-.56-.09-.02-.16-.03-.23-.05-.03.23-.05.46-.07.68-.52-.05-.75.25-.86.71-1.37.64-1.38,1.9-1.43,3.14-1.2-.03-1.82.76-2.26,1.69-.57,1.24-1,2.54-1.71,3.73-.03.05.09.24.19.29.08.06.29.06.33,0,1.52-1.7,2.36-3.8,3.37-5.8.35-.48.71-.95,1.05-1.44.34-.51.49-1.07.4-1.69.49.01.69-.34.85-.72h0ZM117.52,203.4c.59.07,1.22.06,1.56.69.97.19,1.83.54,2.24,1.54.5,0,1.12.2,1.49-.02,1.09-.65,2.06-.69,3.15-.03.53.32,1.17.59,1.78.61,1.86.07,3.36,1,4.89,1.87,1.43.81,2.91,1.53,4.31,2.38,2.27,1.37,4.48,2.82,6.63,4.39,3.58,2.6,7.25,5.06,11.04,7.34,1.3.78,2.58,1.61,3.8,2.5,2.36,1.71,4.9,3.12,7.44,4.52,2.44,1.34,4.82,2.76,6.9,4.64,1.12,1.01,2.38,1.88,3.62,2.75,2.7,1.87,5.43,3.69,8.14,5.54,4.48,3.08,9.16,5.83,13.96,8.39,2.9,1.54,5.76,3.13,8.47,5.01,2.48,1.72,5.19,3.12,7.81,4.65.77.45,1.57.82,2.34,1.25q1.93,1.06,4.11.03c-.33,1.16-.69,2.22-.9,3.31-.69,3.51-.47,3.31-3.66,1.47-5.05-2.91-9.81-6.25-14.35-9.88-4.35-3.49-9.02-6.49-13.7-9.49-2.35-1.5-4.66-3.04-6.8-4.82-3.01-2.51-6.19-4.79-9.46-6.95-4.64-3.06-9.22-6.22-13.98-9.09-4.11-2.48-8.17-5.04-12.26-7.56-.2-.12-.48-.21-.72-.19-.22.02-.5.15-.63.33-.12.17-.15.47-.11.69.04.23.17.51.35.65.7.54,1.41,1.07,2.16,1.53,3.65,2.26,7.32,4.5,10.98,6.75,3.66,2.25,7.28,4.55,10.91,6.86,4.8,3.06,9.33,6.48,13.82,9.97,1.98,1.55,4.15,2.88,6.27,4.25,3.82,2.47,7.54,5.08,11.16,7.85,4.71,3.61,9.49,7.13,14.61,10.18,5.1,3.04,9.89,6.58,14.52,10.31.97.78.98,1.5-.02,2.55-.2.22-.75.37-1,.26-.9-.43-1.78-.95-2.62-1.49-1.5-.95-2.93-2.01-4.44-2.9-3.72-2.2-7.11-4.82-10.41-7.57-2.04-1.7-4.11-3.36-6.24-4.94-3.85-2.87-7.76-5.65-11.62-8.5-1.73-1.27-3.39-2.64-5.11-3.94-1.6-1.22-3.23-2.43-4.88-3.6-.27-.19-.71-.16-1.07-.18-.36-.02-.73.52-.56.79.26.42.46.94.83,1.21,6,4.2,11.54,9.04,17.8,12.87.54.33,1.01.76,1.5,1.15.49.4.95.86,1.47,1.2,4.44,2.94,8.18,6.75,12.42,9.95,1.31.99,2.63,1.95,4.11,2.7,2.72,1.37,5.1,3.27,7.58,5.01.17.12.27.4.35.63.05.1.04.29-.04.36-.16.16-.38.4-.56.38-.36-.04-.75-.17-1.04-.36-2.64-1.72-5.31-3.42-7.9-5.23-3.42-2.39-6.76-4.89-10.14-7.33-.72-.52-1.45-1.02-2.22-1.46-4.05-2.34-7.89-5-11.69-7.74-6.15-4.44-12.34-8.82-18.5-13.24-1.44-1.03-2.91-2.03-4.25-3.18-5.01-4.28-10.47-7.93-16.17-11.23-6.14-3.55-11.98-7.51-17.46-12.03-2.64-2.17-5.38-4.19-8.25-6.03-.85-.55-1.66-1.2-2.55-1.64-3.09-1.5-5.84-3.51-8.68-5.41-1.79-1.2-3.49-2.49-5.13-3.89-1.53-1.31-3.24-2.42-4.87-3.62-.71-.52-1.43-1.03-2.11-1.58-.15-.12-.18-.45-.17-.68,0-.29.59-.5.92-.34.69.31,1.38.63,2.05.98,2.02,1.07,3.75,2.56,5.55,3.95.7.54,1.34,1.17,2.08,1.64,3.11,1.96,5.96,4.26,8.89,6.46,1.92,1.44,3.87,2.83,6.13,3.73.58.23,1.13.57,1.65.91,3.05,2.03,6.1,4.06,9.12,6.13,3.33,2.29,6.63,4.63,9.96,6.93.62.43,1.31.75,1.99,1.08.21.1.5.12.73.06.21-.06.45-.25.54-.44.08-.19.08-.52-.03-.68-.21-.3-.51-.56-.81-.77-.94-.63-1.89-1.27-2.87-1.84-4.36-2.56-8.53-5.42-12.77-8.17-1.37-.89-2.67-1.91-4.03-2.84-1.14-.79-2.29-1.58-3.48-2.29-3.28-1.92-6.38-4.09-9.22-6.62-.37-.33-.81-.63-.81-1.21-1.16.08-1.94-.38-2.24-1.54-.65.07-1.19-.11-1.55-.69-.11-.06-.21-.11-.31-.17.08.08.16.16.24.24h0ZM307.94,203.37c-.12-.38-.21-.45-.26-.18,0,.01.21.07.33.12.02.22.02.45.06.67.02.1.13.27.18.27.29-.04.4-.26.23-.5-.11-.17-.35-.25-.53-.37h0ZM351.14,204.84c.08.04.16.09.24.13-.1-.02-.21-.04-.31-.06-.06-.27-.13-.54-.2-.81-.03.07-.09.17-.07.21.1.19.23.35.34.53h0ZM272.26,205.6c-.23.5-.46,1-.69,1.5l-.12.1.07-.16c.7-.31.59-.96.66-1.53.11,0,.22.02.32,0,.06-.02.1-.11.15-.17-.13.09-.26.17-.39.26h0ZM269.28,210.91c0-.24.59-.33.19-.68-.05.23-.1.46-.14.7l-.17.09.13-.11h0ZM355.73,214.68c.08.06.16.11.24.17-.11-.03-.21-.06-.31-.1-.16-.16.2-.6-.31-.58.12.17.25.34.38.51h0ZM256.34,225.36c-.36.46-.75.92-.67,1.57-1.1.27-1.35,1.35-1.94,2.1-.18.24-.09.49.22.59.09.04.28-.03.34-.11.6-.8,1.15-1.62,1.32-2.63.63-.36.53-1.02.66-1.58-.09.14.4-.31.07.07h0ZM319.33,176.72c-.25-.25-.51-.5-.77-.75-.42-.26-.92-.46-1.25-.81-1.95-2.13-3.85-4.3-5.78-6.47-.22-.25-.16-.49.14-.6.09-.04.27-.03.34.03,1.61,1.4,3.26,2.77,4.81,4.23,1.02.97,1.57,2.25,1.66,3.69.26.25.52.51.77.75.37.17.7.37.79.81,1.79.37,1.98.56,2.18,2.3l.28.03-.2-.09c-.86-.65-1.83-1.17-2.18-2.29-.26-.27-.52-.55-.78-.83h0ZM290.59,173.09c-.56-.13-.79.15-.85.66-.42-.03-.63.24-.75.57-.06.17.02.39.03.59.19-.06.48-.07.53-.18.13-.31.14-.65.2-.98.51.02.67-.32.77-.72.32-.23.34-.34.08-.27-.03,0,0,.21,0,.33h0ZM294.31,171.54c.05-.1.09-.21.14-.31-.07.08-.14.16-.21.24l-.08.15.15-.07h0ZM108.45,204.11c.43.08.76.25.73.76,1.46.16,2.44.95,3.02,2.27.47.05.76.26.76.77,1.32.34,2.35,1.09,3.05,2.27.67-.02,1.22.3,1.72.67,2.54,1.87,5.32,3.35,8.03,4.94,2.93,1.73,5.76,3.6,8.43,5.72,1.47,1.18,3.03,2.24,4.54,3.38.39.29.77.64.78,1.21,1.09-.02,1.7.72,2.3,1.46.24.27.48.53.71.79.39.17.68.42.77.85.6.02,1.14.15,1.55.63.24.29.49.58.74.87.6.02,1.18.09,1.56.65.4.13.75.32.73.83,1.08.02,1.87.48,2.29,1.5,1.58.22,2.9.89,3.8,2.25,1.59.2,2.89.92,3.91,2.16,1.53.33,2.76,1.13,3.67,2.41,1.08,0,1.82.51,2.23,1.51l.19.14-.12-.2c-1.05-.05-1.92-.36-2.27-1.48-1.67-.05-2.89-.91-3.91-2.15-1.44-.27-2.57-1.07-3.59-2.06-.07-.07-.06-.22-.1-.33-1.73-.35-2.61-.88-3.76-2.3-1-.14-1.82-.54-2.28-1.51-.47-.08-.8-.28-.72-.83-.65.09-1.19-.07-1.55-.66-.38-.17-.68-.41-.74-.87-.6-.02-1.14-.15-1.56-.63-.26-.28-.51-.56-.76-.84-.44-.09-.69-.35-.71-.8-1.05-.04-1.86-.46-2.32-1.45-.36-.09-.78-.1-1.06-.3-3.75-2.56-7.47-5.15-11.21-7.71-1.14-.78-2.3-1.54-3.52-2.19-2.34-1.25-4.52-2.74-6.67-4.28-.5-.36-1.04-.74-1.03-1.47-1.4-.23-2.36-1.06-3.04-2.26-.47-.04-.77-.25-.76-.77-1.37-.28-2.52-.85-3.04-2.26-.48-.04-.76-.26-.7-.79-.51-.03-.75-.32-.77-.81-.63.07-1.13-.23-1.58-.61l-.08-.11.04.18c.59.03,1.18.05,1.55.62.26.27.52.54.78.81h0ZM44.72,241.97c.42-.07.7-.29.74-.75.71,0,1.13-.4,1.44-.98.05-.1.04-.26,0-.37-.14-.29-.35-.33-.59-.14-.51.39-.92.83-.78,1.54-.49.02-.69.31-.72.76-.07.06-.14.12-.2.17.04-.08.09-.16.13-.24h0ZM154.74,149.51c-.49.01-.79.22-.76.76-1.41.23-2.36,1.06-3.03,2.27-.46.06-.75.27-.76.77-.23.05-.51.03-.69.15-1.44,1.04-2.93,2.04-3.87,3.62-.43.08-.74.28-.77.76-.46-.03-.75.2-.88.64-.23.08-.52.1-.7.25-1.35,1.1-2.74,2.17-3.73,3.64-.26.27-.52.53-.78.8-.39.11-.63.35-.67.76-.27.27-.54.55-.81.81-.26.26-.52.5-.78.75-.25.26-.5.51-.75.76l-.18.08.13-.13c.25-.26.5-.51.75-.76.25-.26.51-.51.76-.77.27-.27.55-.54.82-.81.38-.11.63-.34.67-.76.46-.07.75-.3.78-.8.35-.06.76-.03,1.04-.21,1.43-.9,2.74-1.96,3.65-3.42.44-.12.72-.36.65-.86.53,0,.8-.24.74-.79.12,0,.26.04.36,0,1.76-.85,3.19-2.07,4.2-3.76.49-.03.79-.23.76-.77,1.34-.31,2.42-.98,3.04-2.26.48-.03.75-.27.75-.77.5-.01.81-.21.76-.77,1.42-.21,2.3-1.14,3.03-2.27.48-.03.78-.24.76-.77,1.6-.61,2.58-1.4,3.79-3.01.45-.1.74-.34.73-.84.62.02,1.12-.25,1.6-.61l.09-.14-.04.2c-.58.05-1.16.11-1.57.62-.38.16-.71.37-.74.84-1.72.42-2.94,1.48-3.79,3-.48.03-.8.23-.76.77-1.45.17-2.43.96-3.04,2.26-.47.04-.75.27-.76.77h0ZM338.99,211.7c-.07-.07-.14-.13-.21-.2.06.08.1.15.15.23l.19.03-.12-.06h0ZM162.28,244.25c.27.28.54.56.81.84.62.69,1.18,1.49,2.27,1.46,1.06,1.26,2.2,1.93,3.8,2.26.4,1.01,1.31,1.29,2.23,1.53l.12.12-.16-.1c-.54-.81-1.22-1.42-2.25-1.49-1.09-1.33-2.08-1.93-3.78-2.28-.3-1.21-1.21-1.45-2.29-1.44-.27-.28-.55-.56-.82-.84-.05-.06-.1-.13-.14-.19.07.04.14.08.21.13h0ZM330.66,188.24l-.08-.23.15.16c.08.43.34.67.78.72.27.25.54.5.81.75l.06.16-.14-.09c-.26-.25-.53-.5-.8-.74-.07-.44-.27-.75-.77-.73h0ZM173.73,251.86c.23.29.45.58.68.87.2.05.4.09.59.13-.29.25-.33-.18-.52-.2-.23-.27-.46-.54-.69-.82l-.21-.07.15.08h0ZM324.58,182.21l-.03-.19.08.12c.25.25.5.5.76.75.77.78,1.54,1.56,2.32,2.33.06.06.19.04.29.05.02-.22.13-.52.03-.64-.72-.83-1.46-1.69-2.71-1.67-.03-.47-.25-.74-.74-.75h0ZM259.42,284.47l-.12.13.16-.11.07-.14-.11.12h0ZM112.26,177.63l.09-.19-.14.13-.11.15.17-.09h0ZM68.23,220.75c.48-.04.75-.26.74-.77.5,0,.78-.23.76-.76.49.07.76-.18.86-.64.46-.09.7-.37.67-.85.5-.02.73-.3.74-.78.49-.02.73-.27.73-.75.46-.07.71-.35.77-.81.46-.04.72-.29.75-.76.49-.02.7-.31.76-.76.45-.05.69-.33.77-.76.47-.02.75-.24.76-.74.54.05.98-.18,1.37-.51,4.67-4.05,9.35-8.1,14.02-12.15.67-.59,1.29-1.2,1.6-2.07.27-.76.86-1.17,1.64-1.41.44-.14.92-.49,1.17-.88.75-1.17,1.34-2.43,1.5-3.85.02-.12.05-.27,0-.38-.15-.32-.29-.68-.54-.92-.12-.11-.51-.06-.7.05-.54.32-1.06.68-1.55,1.07-.89.7-1.73,1.48-2.63,2.16-4.33,3.28-8.59,6.64-12.37,10.56-.09.08-.21.17-.33.18-.23.02-.52.06-.67-.06-.17-.13-.35-.47-.29-.63.17-.46.39-.95.73-1.27,1.73-1.65,3.51-3.27,5.28-4.88.83-.76,1.83-1.36,2.36-2.41.39-.14.71-.33.73-.8.5-.04.78-.29.77-.81.64.09,1.09-.28,1.55-.63.25-.26.5-.51.75-.77.24-.26.49-.52.73-.79l.2-.1-.13.17c-.24.26-.48.53-.72.8-.25.25-.51.51-.77.76-.55.12-1.16.09-1.54.63-.26.27-.52.54-.78.81-.4.12-.62.41-.72.8-.5.02-1.02.14-1.49.04-1.67-.36-1.74-.41-2.38.08-1.88,1.48-3.81,2.92-5.6,4.5-3.03,2.66-6.18,5.19-8.98,8.11-.26.27-.55.52-.84.76-6.62,5.65-13.17,11.39-19.22,17.67-.35.36-.71.72-1.09,1.05-3.14,2.75-5.94,5.83-8.78,8.87-.35.37-.48.88-.25.92.23.04.5.09.7.02,1.55-.59,2.93-1.47,4.28-2.4,2.59-1.79,5.17-3.61,7.75-5.43.43-.3.91-.54,1.38-.26.28.17.4.6.6.9.35.54.72.61,1.21.19,2.01-1.72,3.98-3.5,6.04-5.17,2.16-1.76,4.1-3.74,6.05-5.71,3.72-3.78,7.44-7.54,11.28-11.2,4.83-4.62,10.06-8.82,14.66-13.69.34-.35.8-.59,1.21-.87.21-.14.92.06,1,.31.07.23.14.49.1.71-.04.23-.17.5-.34.66-2.43,2.39-4.84,4.79-7.32,7.12-2.76,2.59-5.62,5.08-8.39,7.65-.82.76-1.74,1.47-2.19,2.55-.41.09-.66.35-.75.75-.26.25-.51.51-.77.76-.39.12-.66.35-.76.76-.39.12-.66.35-.76.76-.4.12-.69.36-.78.79-.46.04-.75.25-.74.75-.5-.01-.77.22-.79.74-.49-.03-.75.23-.83.69-.46.09-.67.38-.66.84-.48.03-.75.27-.75.76-.49.01-.75.26-.75.76-.48.06-.72.34-.76.81-.43.04-.66.3-.72.72-.37.13-.67.33-.76.75-.26.25-.52.49-.78.74-.24.26-.49.53-.73.79-.41.13-.71.38-.8.83-.83-.11-1.42.38-1.99.86-2.86,2.4-5.74,4.8-8.56,7.25-1.03.9-1.95,1.93-2.86,2.95-.2.23-.13.69-.19,1.04l-.06-.05c.22-.12.46-.19.65-.35,3.01-2.6,6.03-5.18,8.99-7.84,1.38-1.23,2.64-2.61,3.95-3.93.26-.27.53-.55.8-.83.25-.26.49-.53.73-.79.26-.24.52-.49.77-.74.26-.25.51-.5.76-.75.24-.24.48-.48.72-.72.39-.13.7-.35.77-.79Z"/>
        <path class="cls-1" d="M277.03,263.44c-.06.24-.04.54-.17.72-1.66,2.05-2.84,4.4-4.15,6.65-.32.53-.63,1.1-1.27,1.31-.09.03-.23.03-.31-.02-.09-.07-.22-.22-.19-.3.19-.71.37-1.44.66-2.12.39-.92.94-1.77,1.3-2.69.74-1.84,1.94-3.18,3.8-3.89.11.11.23.23.34.34Z"/>
        <path class="cls-1" d="M272.15,260.71c.02.23.15.53.05.69-.52.82-1.09,1.61-1.67,2.37-.09.12-.49.11-.66.01-.17-.1-.35-.4-.32-.59.16-1.29.79-2.27,2.03-2.76.14-.05.38.18.58.28Z"/>
        <path class="cls-1" d="M275.26,254.07c.05.64-.06,1.22-.55,1.7-.24.24-.43.28-.59.01-.05-.09-.09-.27-.03-.33.4-.45.82-.88,1.23-1.31l-.06-.07Z"/>
        <path class="cls-1" d="M262.47,257.99c-.04.22-.05.45-.12.66-.03.09-.17.14-.26.2-.08-.19-.27-.43-.21-.56.07-.17.35-.25.53-.37l.06.06Z"/>
        <path class="cls-1" d="M267.72,257.89c-.03.09-.06.17-.09.26.05-.07.1-.14.15-.2l-.06-.06Z"/>
        <path class="cls-1" d="M276.69,263.1c.17-.15.31-.4.48-.43.38-.07.34.21-.14.78-.11-.11-.23-.23-.34-.34Z"/>
        <path class="cls-1" d="M166.36,236.19c.44.14.85.16,1.12.37,2.38,1.85,4.94,3.41,7.5,4.99.18.11.31.41.32.64.01.2-.11.52-.27.61-.59.32-1.23.2-1.8-.08-2.61-1.27-5-2.86-7.05-4.92-.17-.17-.35-.46-.31-.66.06-.32.3-.61.49-.95Z"/>
        <path class="cls-1" d="M135.16,159.41c.12.17.41.41.46.7.09.52-.3.84-.89.85-.37.01-.69-.3-.67-.68.02-.55.33-.84,1.1-.86Z"/>
        <path class="cls-1" d="M74.76,208.25c-.06.32-.03.62-.15.8-.87,1.24-2.05,2.14-3.39,2.81-.22.11-.78-.1-.94-.32-.16-.23-.14-.78.03-1,.92-1.2,2.12-2.08,3.51-2.65.23-.09.63.24.93.36Z"/>
        <path class="cls-1" d="M289.5,199.05c.2.15.46.26.57.46.57,1.05,0,2.3-1.17,2.61-.58.15-1.34-.48-1.24-1.03.19-.91.71-1.57,1.51-2.01.09-.05.22-.03.33-.04Z"/>
        <path class="cls-1" d="M279.14,216.75c-.44-.04-.93-.62-.85-1.04.09-.48.2-.97.44-1.39.15-.3.48-.53.78-.71.23-.13.92.59.97.98.11.78-.08,1.47-.67,2-.15.14-.45.12-.67.17Z"/>
        <path class="cls-1" d="M275.98,219.69c.46-.07.96.32,1.02.81.12.86-.32,1.62-.97,1.67-.52.04-1.23-.49-1.33-1.01-.14-.64.48-1.37,1.27-1.48Z"/>
        <path class="cls-1" d="M285.05,205.77c.25.03.39.02.5.06.32.14.6.85.53,1.29-.09.54-.44.91-.95,1-.51.1-.96-.12-1.22-.6-.24-.45-.17-.96.28-1.32.28-.22.63-.33.86-.44Z"/>
        <path class="cls-1" d="M299.23,186.76c-.12.85-.82,1.41-1.5,1.2-.41-.13-.71-.68-.64-1.18.08-.61.69-1.12,1.29-1.05.44.04.9.61.85,1.03Z"/>
        <path class="cls-1" d="M304.08,178.04c0,.46-.45,1-.9,1.08-.46.08-1.03-.35-1.06-.81-.03-.65.48-1.29,1.05-1.32.41-.01.92.58.91,1.05Z"/>
        <path class="cls-1" d="M294.21,192.65c.47-.08.95.22,1.14.75.2.55-.22,1.24-.88,1.41-.46.11-.97-.24-1.13-.77-.2-.64.19-1.27.87-1.39Z"/>
        <path class="cls-1" d="M307.29,173.07c.03.53-.31.98-.76,1.02-.66.07-1.12-.39-1.09-1.07.03-.46.47-.87.95-.87.46,0,.88.42.9.92Z"/>
        <path class="cls-1" d="M292.7,280.82c.21-.13.41-.29.63-.39.57-.27,1.36.03,1.49.56.36,1.45.46,2.93.23,4.41-.04.22-.19.46-.36.62-.17.15-.44.3-.64.28-.17-.02-.46-.26-.48-.43-.29-1.7-.54-3.42-.81-5.13l-.06.09Z"/>
        <path class="cls-1" d="M262.26,222.66c.06.09.17.18.2.29.23.64.07,1.25-.26,1.78-1.2,1.89-2.44,3.76-3.69,5.61-.11.14-.48.21-.65.13-.17-.07-.36-.41-.32-.57.17-.59.37-1.19.68-1.72.92-1.62,1.89-3.22,2.87-4.81.19-.29.53-.49.82-.7.07-.05.22,0,.35,0Z"/>
      </g>
      <g>
        <path class="cls-1" d="M373.04,314.85c-7.73,5.14-14.93,6.3-24.04,7.97-8.38,1.54-14.34-2.41-20.94-8.86-14.13,7.49-15.16,6.45-33.43,6.46-5.88,0-10.03-.11-15.06-5.28-2.74-2.82-2.47-2.77-5.9.09-7.59,6.32-23.89,7.82-34.37,7.64-13.1-.23-13.35-9.37-17.82-6.09-10.63,7.8-41.25,8.45-50.43.33-3.34-2.96-11.36,7.08-19.01,7.44-11.65.54-10.39-.6-22.94-3.85-6.44-1.67-9.49-3.51-15.12-7.55-.52.1-.98.04-1.15.25-5.08,5.96-20.93,10.34-29.39,9.73-6.74-.49-20.44-2.51-26.41-7.82-.88-.78-1.81-1.47-2.59-2.1-3.11.72-11.05,8.87-21.31,11.25-8.28,1.92-10.17,2.53-19.24.63-4.68-.98-12.35-7.86-13.47-9.97-1.35-2.54.46-5.05,7.34,1.58,12.33,11.89,39.4.21,43.86-9.38,1.95-4.19,5.88,4.76,12.68,7.48,5.47,2.19,17.03,5.23,22.44,4.09,7.67-1.61,19.78-3.23,24.07-10.39,3.02-5.04,5.24,1.67,9.24,4.22,6.72,4.28,14.22,4.14,21.38,5.88,20.01,4.86,28.85-15.2,32.16-7.57,2.78,6.42,12.89,6.29,17.95,6.77,10.12.95,24.17-.89,30.88-8.33,4.14-4.6,4.94,4.74,11.97,8.41,6.48,3.39,27.35-1.27,32.45-4.19,5.64-3.24,10.46-12.56,12.74-7.62,1.97,4.29,3.05,6.39,7.24,9.15,3.81,2.51,18.79,1.13,22.65.47,11.89-2.04,15-7.21,19.69-9.78,2.75-1.5,3.84,2.79,3.69,4.74-.45,5.98,10.97,9.07,14.8,8.46,8.13-1.3,18.46-2.31,23.78-8.92,4.48-5.57,5.79,3.85,9,6.16,9.8,7.03,25.99,5.17,33.24-1.88,10.2-9.92,6.6-6.25,12.76.69,9.57,10.8,37.79,2.66,42.99-5.54,1.73-2.72,4.65-4.67,5.75.76,1.06,5.18,6.81,6.49,10.76,7.16,8.07,1.36,21.85-2.72,24.77-9.07,3.4-7.36,8.22,1.49.77,5.62-11.18,6.19-14.73,9.57-29.06,7.03-13.69-2.42-6.67-10.83-15.12-3.62-4.87,4.17-32.45,9.57-38.63,4.9-10.13-7.64-6.46-10.1-16.12-2.54-4.94,3.85-14.91,5.11-21.44,4.79-10.53-.53-12.74-5.33-18.05-9.78Z"/>
        <path class="cls-1" d="M330.61,325.4c14.18,13.49,28.23,11.02,43.87.79.34-.22.74-.2,1.05.06,5.06,4.23,9.02,7.49,13.74,9.19.3.11.61.05.86-.15.25-.21.38-.5.36-.84l-.02-.61c-.03-.44-.3-.81-.71-.92-2.77-.76-5.41-1.94-7.71-3.6-3.8-2.72-4.13-10.8-7.81-6.23-5.47,6.81-15.8,7.84-24.24,9.19-4.5.72-16.56-2.82-16.05-9.69.6-7.93-7.03,0-9.29,1.47-3.73,2.44-7.88,3.9-12.17,4.69-.47.09-.81.55-.76,1.07l.12,1.5c.03.29.15.53.37.71.21.17.46.24.73.18,4.88-1.04,9.28-3.06,16.62-6.95.34-.19.73-.13,1.03.15h0ZM307.03,329.56c-26.95,3.15-26.76-10.78-29.66-11.93-1.48-.59-7.02,6.72-10.84,8.91-5.64,3.23-23.71,7.91-30.39,4.42-7.51-3.93-7.65-12.2-10.95-8.54-3.95,4.39-15.97,8.38-27.37,9.16-.49.03-.87.47-.87.99v1.27c0,.54.41.99.92,1,1.7.02,3.21-.04,4.42-.16,18.33-1.86,20.52-8.62,23.49-7.63,3.4,1.14,5.52,7.58,15.85,7.76,10.23.17,22.82-2.44,30.29-8.67,2.02-1.69,3.73-2.68,4.76-2.5,3.08.53,5.63,9.68,18.92,9.67,4.83,0,8.54-.05,11.7-.3.26-.02.47-.14.64-.35.17-.21.24-.46.21-.73l-.12-1.45c-.02-.28-.13-.51-.34-.68-.19-.18-.43-.25-.69-.22h0ZM395.13,336.67c1.39.1,2.88.09,4.49-.04.27-.02.49-.15.66-.37.17-.22.23-.48.2-.76l-.1-.72c-.06-.52-.48-.89-.97-.86-1.38.07-2.8.05-4.19-.06-.28-.02-.52.07-.71.28-.2.21-.3.47-.28.76l.04.82c.02.51.39.91.86.95h0ZM405.24,335.82c3.97-.8,7.71-2.08,10.04-3.9,10.16-7.95,5.63-3.33,17,1.89,4.16,1.91,8.91,2.5,13.59,2.29.5-.02.89-.48.88-1.02l-.02-.69c0-.28-.11-.52-.29-.71-.19-.19-.42-.28-.68-.26-7.21.36-14.05-1.12-17.93-5.48-5.74-6.47-2.94-8.76-11.42-.52-2.82,2.75-6.98,4.75-11.6,5.77-.48.1-.8.59-.74,1.11l.09.67c.04.28.16.51.37.67.22.16.46.22.71.17h0ZM451.52,335.47c4.51-.78,8.68-2.14,11.89-3.57.41-.18.63-.63.56-1.1l-.1-.59c-.05-.31-.2-.55-.46-.7-.25-.15-.53-.17-.8-.05-3.41,1.49-7.36,2.66-11.38,3.35-.46.08-.8.51-.78,1.01v.69c.02.3.14.55.35.74.21.19.47.26.74.22h0ZM468.69,328.97c6.49-3.98,5.79-.25,11.31,2.15.33.14.68.08.95-.17.27-.25.38-.62.3-.99-.69-3.13-4.04-2.86-4.95-7.37-1.11-5.45-6.04,2.01-8.72,4.2-.29.23-.42.59-.35.97l.09.52c.06.33.24.58.52.72.29.14.58.13.86-.04h0ZM485.9,332.59c.48.07.97.13,1.44.18.26.03.5-.05.7-.23.2-.19.32-.43.33-.71v-.17c.03-.51-.31-.94-.77-1.02-.45-.08-.92-.17-1.38-.27-.28-.06-.53,0-.75.19-.21.18-.34.43-.35.73l-.02.27c-.02.52.34.97.82,1.04h0ZM192.34,331.69c-8.16-.25-15.2-2.52-17.56-7.96-1.37-3.16-8.35,3.27-10.17,4.37-11.35,6.88-31.81,4.7-42.89-2.36-2.45-1.56-5.75-8.24-8.04-4.41-2.42,4.04-6.27,6.72-10.82,8.38-.48.17-.74.73-.58,1.25l.11.37c.09.29.27.5.52.61.26.12.53.11.78-.03,3.62-1.96,11.41-8.33,12.78-7.35,10.78,7.75,32.14,15.9,44.68,8.54,2.76-1.62,9.22-7.38,12.48-4.5,3.9,3.45,11.72,5.24,18.61,5.91.27.03.51-.06.71-.26.2-.19.3-.45.3-.74v-.83c0-.54-.4-.98-.9-1h0ZM97.58,331.14c-6.01,1.14-12.67.97-18.71.07-.47-.07-.91.25-1.03.74l-.09.4c-.07.28-.03.55.12.79.15.24.36.39.62.44,6.54,1.19,13.38,1.32,19.58.06.27-.06.48-.22.63-.47.14-.26.17-.53.08-.82l-.16-.53c-.14-.48-.59-.76-1.05-.67h0ZM73.44,330.17c-2.73-.64-5.2-1.41-7.29-2.24-6.88-2.75-10.36-10.57-11.63-7.85-.99,2.12-2.79,4.09-4.97,5.83-.35.28-.47.77-.29,1.2l.03.06c.11.28.32.47.58.55.27.09.53.05.77-.12,2.08-1.45,3.88-2.64,5.46-3.15.29-.09.57-.04.81.15,4.16,3.27,9.81,5.94,16.04,7.69.25.07.49.03.71-.11.22-.14.36-.34.43-.61l.05-.19c.06-.27.03-.53-.11-.77-.14-.24-.34-.39-.59-.45h0ZM44.91,329.03c-1.58.9-3.2,1.69-4.76,2.36-.45.19-.69.72-.54,1.22l.09.33c.08.28.25.49.5.61.25.12.51.13.76,0,1.77-.82,3.4-1.75,4.9-2.7.41-.26.57-.8.38-1.26l-.04-.09c-.11-.26-.29-.45-.55-.54-.25-.09-.5-.07-.74.06h0ZM34.97,333.27c-.83.24-1.7.47-2.61.68-.48.11-.8.59-.73,1.11l.04.28c.03.28.17.51.38.67.22.17.46.22.72.16.92-.2,1.84-.41,2.75-.65.26-.07.46-.23.59-.48.13-.25.16-.51.08-.79l-.09-.32c-.15-.51-.65-.81-1.13-.66Z"/>
        <path class="cls-1" d="M328.78,337.15c13.1,12.37,29.36,10.22,43.87.8.35-.22.75-.2,1.06.07,2.76,2.34,5.03,4.56,7.56,6.27.23.16.5.2.77.11.27-.09.46-.28.58-.56l.1-.25c.17-.44.04-.94-.34-1.21-3.47-2.57-7.17-11-9.96-7.53-5.48,6.81-15.8,7.84-24.24,9.19-4.5.72-16.55-2.82-16.04-9.69.59-7.93-7.03-.01-9.29,1.47-3.89,2.55-8.1,3.99-12.83,4.8-31.78,5.45-28.49-9.77-31.57-11-1.47-.59-7,6.72-10.83,8.91-4.23,2.43-17.07,5.53-26.04,5.46-.51,0-.91.41-.94.94l-.04.82c-.02.28.08.53.26.74.17.2.41.31.68.31,10.16-.12,24.31-3.66,31.48-9.62,8.1-6.76,4.41,7.42,22.13,7.4,16.61-.01,18.52-.1,32.62-7.57.35-.18.73-.12,1.02.15h0ZM236.32,343.38c-4.59-1.72-10.78-11.62-12.94-9.22-7.55,8.38-44.37,15.26-50.41,1.33-1.37-3.16-8.35,3.27-10.17,4.37-8.97,5.44-23.63,5.22-34.85,1.4-.26-.08-.5-.06-.74.08-.23.14-.38.35-.45.63l-.02.09c-.11.49.13.98.57,1.16,10.65,4.42,23.41,6.67,32.02,1.62,2.76-1.62,9.22-7.38,12.47-4.5,6.15,5.44,21.6,5.78,28.23,5.11,18.33-1.86,21.41-8.86,24.38-7.87,2.83.94,4.77,6.57,11.31,8.52.28.09.56.03.79-.15.24-.18.37-.44.39-.76l.04-.83c.02-.45-.22-.85-.62-1h0ZM123.51,339.48c-2.97-1.4-9.77-9.52-11.64-6.39-5.86,9.8-21.63,12.32-34.83,10.39-.29-.04-.56.05-.77.27-.21.22-.31.5-.28.81l.04.47c.04.49.4.85.85.89,13.89,1.24,29.74-2.61,35.44-9.3,1.48-1.73,6.98,2.28,9.68,4.04.26.17.55.2.83.07.29-.13.48-.37.55-.69l.13-.56h0ZM71.43,342.35c-.54-.14-1.08-.29-1.6-.45-.26-.08-.5-.04-.73.1-.23.15-.37.36-.43.64l-.17.8c-.11.53.2,1.06.69,1.19.63.16,1.27.31,1.91.44.3.06.58-.02.8-.24.23-.22.33-.51.3-.83l-.07-.78c-.04-.43-.31-.77-.7-.87h0ZM64.66,339.94c-.84-.4-1.64-.83-2.38-1.29-.25-.15-.52-.18-.79-.07-.27.11-.46.32-.55.61l-.31.96c-.15.46.03.95.43,1.19.84.51,1.73.97,2.66,1.39.26.12.54.11.79-.03.25-.14.42-.37.48-.67l.2-.97c.1-.47-.12-.93-.53-1.13h0ZM57.75,335.02c-.76-.74-1.44-1.45-2.04-2.05-.33-.34-.83-.37-1.19-.08-.36.29-.48.81-.28,1.24.52,1.11,1.16,2.13,1.93,3.07.23.28.55.39.88.32.34-.07.59-.31.7-.66l.26-.8c.12-.38.03-.79-.26-1.06h0ZM386.6,346.84c7.4,2.19,20.03,1.54,25.75-2.93,9.48-7.41,7.1-6.34,15.06.14.23.19.52.25.8.17.28-.08.49-.27.62-.56l.18-.45c.18-.46.04-.99-.36-1.25-7.15-4.74-4.3-12.29-14.05-2.78-5.91,5.74-17.6,8.21-27.33,5.3-.45-.14-.91.1-1.1.57l-.17.44c-.11.28-.11.56,0,.83.12.27.33.45.59.53h0ZM432.85,346.84c3.27.56,7.94.38,12.79-.24l-.14-.67c-.09-.48-.5-.81-.96-.78-3.89.25-7.69-.02-11-.98-.45-.13-.9.11-1.09.56l-.3.73c-.11.29-.1.6.04.88.15.28.38.46.67.51h0ZM449.33,346.05c2.3-.39,4.57-.85,6.69-1.37l-.08-.52c-.04-.29-.18-.52-.41-.68-.23-.16-.48-.2-.75-.13-1.55.44-3.16.82-4.78,1.11-.26.05-.46.19-.62.43-.15.23-.19.49-.13.77l.07.39h0ZM459.64,343.71c1.14-.34,2.2-.69,3.16-1.04.38-.14.62-.51.62-.95v-.2c0-.35-.16-.65-.43-.83-.27-.19-.58-.21-.88-.07-.66.32-1.35.62-2.05.91-.41.17-.65.61-.59,1.08l.17,1.1Z"/>
      </g>
    </g>
  </g>
</svg>