<?xml version="1.0" encoding="UTF-8"?>
<svg id="Layer_2" data-name="Layer 2" xmlns="http://www.w3.org/2000/svg" viewBox="0 0 464.07 278.08">
  <defs>
    <style>
      .cls-1 {
        fill: #6d442f;
        fill-rule: evenodd;
      }
    </style>
  </defs>
  <g id="_Layer_" data-name="&amp;lt;Layer&amp;gt;">
    <g>
      <g>
        <path class="cls-1" d="M200,189.34l-.28-.18-.04.29.31-.11h0ZM319.17,98.65l-.2-.13-.02.2.22-.07h0ZM292.12,165.05l.15-.21-.22-.03.07.25h0ZM177.95,148.29c.1-.06.25-.11.29-.2.04-.12.02-.3-.05-.38-.22-.23-.39-.13-.41.25,0,.1.11.22.17.33h0ZM168.67,124.65c-.03.12-.1.24-.07.35,0,.06.16.09.25.13.04-.12.12-.24.09-.35,0-.06-.17-.08-.27-.13h0ZM160.15,111.95c-.12-.04-.24-.12-.35-.1-.12.01-.23.12-.34.18.1.08.18.2.29.23.12.03.25-.02.36-.07.04-.02.02-.16.03-.24h0ZM321.82,77.71l.26-.07-.26-.06v.13h0ZM314.44,74.42l.02-.16-.29.05.27.11h0ZM134.29,71.7c.09-.03.27-.07.27-.11,0-.12-.06-.25-.1-.38-.08.03-.23.07-.24.11,0,.12.05.25.07.37h0ZM131.1,44.71c-.03-.1-.05-.21-.08-.31-.08.03-.21.06-.21.09,0,.1.05.21.06.31.07-.03.15-.06.23-.09h0ZM298.7,213.11l.09.26.1-.27h-.19ZM300.6,218.13l-.16-.02.06.3.1-.28h0ZM180.32,119.72c-.06-.08-.11-.23-.17-.23-.25-.02-.5,0-.75.03-.06,0-.09.14-.14.22.11.05.22.16.34.15.24-.03.47-.11.71-.17h0ZM160.25,135.14c-.04.25-.1.49-.1.74,0,.12.1.23.16.35.08-.1.23-.19.24-.3,0-.25-.03-.51-.07-.76,0-.03-.15-.03-.23-.04h0ZM288.8,213.05c-.19-.17-.29-.31-.41-.35-.32-.1-.59.03-.64.36-.03.25.1.51.16.77.29-.25.57-.5.89-.78h0ZM291.28,161.84c-.12-.3-.33-.4-.63-.25-.09.05-.19.18-.21.29-.06.31.12.55.39.47.18-.05.29-.33.45-.51h0ZM167.21,119.62c-.09.23-.2.46-.3.68.23.09.47.27.7.26.34-.02.48-.33.27-.6-.14-.18-.44-.23-.67-.33h0ZM156.63,109.77c.27-.17.59-.35.9-.56.29-.21.29-.43,0-.57-.11-.05-.27-.09-.35-.04-.32.2-.62.42-.9.65-.05.05-.09.22-.05.28.06.09.2.13.39.23h0ZM293.34,205.27c-.13.02-.34,0-.37.06-.13.35-.24.71-.3,1.08-.02.09.15.31.2.3.45-.06.67-.41.74-.8.03-.19-.17-.42-.26-.64h0ZM293.63,201.34c-.06-.1-.15-.29-.22-.29-.24.03-.51.06-.7.19-.51.35-.58.81-.17.85.24.03.53.02.72-.11.17-.13.25-.42.37-.64h0ZM91.51,112.58c0-.14.04-.37,0-.39-.36-.13-.72-.24-1.09-.31-.1-.02-.24.11-.35.18.14.22.24.49.43.63.45.33.84.25,1.01-.11h0ZM170.63,90.81c-.5-.01-.98.29-.83.51.2.28.54.48.85.67.08.06.3.06.37,0,.17-.15.31-.34.41-.55.04-.08-.03-.28-.1-.32-.22-.13-.46-.2-.7-.29h0ZM284.61,214.41c-.68-.09-1.51,1.01-1.23,1.66.08.18.42.35.63.34.84-.04,1.28-.94.87-1.72-.06-.11-.18-.19-.27-.28h0ZM310.82,101.73c.02-.74-.52-1.19-.95-1.7-.04-.05-.22-.04-.27.01-.1.09-.16.23-.18.35-.07.71.04,1.35.79,1.67.09.04.25.02.34-.04.1-.06.17-.18.26-.29h0ZM319.43,75.02c-.58-.48-1.19-.76-1.9-.76-.14,0-.28.05-.39.12-.03.03-.02.25.04.29.69.46,1.37.87,2.26.35h0ZM289.55,157.98c.08.1.23.3.24.29.67-.4,1.33-.82,1.98-1.25.07-.06.09-.2.15-.31-.24-.05-.54-.22-.7-.13-.58.29-1.1.66-1.63,1.03-.06.04-.03.24-.04.36h0ZM199.33,114.4c-1.37-.05-2.46-.1-3.56-.02-.12,0-.25.09-.37.17,0,0,.04.13.1.34.91,0,1.88.02,2.84-.02.24,0,.48-.22.99-.47h0ZM289.2,208.54c-.11-.25-.23-.65-.47-.98-.14-.2-.46-.37-.69-.35-.21.02-.45.29-.55.5-.29.67-.24,1.35.14,1.99.17.3.42.37.72.23.63-.28.94-.71.86-1.4h0ZM135.99,76.22c-.12.1-.26.17-.31.29-.42.99-.05,1.82.59,2.57.08.09.29.18.36.14.19-.1.47-.24.51-.42.22-.98.14-1.88-.82-2.47-.11-.06-.25-.08-.34-.11h0ZM194.91,138.26c-.31-.17-.67-.53-.98-.49-.96.12-1.75.61-2.2,1.51-.05.09-.03.26.02.36.06.11.22.26.3.24.88-.26,1.78-.52,2.64-.86.14-.05.14-.44.23-.76h0ZM194.86,208.56c-.43-.17-.67-.34-.91-.34-1.38.02-2.66.47-3.86,1.08-.12.06-.13.42-.13.65,0,.06.22.2.31.18,1.57-.27,3.09-.72,4.6-1.58h0ZM148.18,65.86c-.17.17-.52.35-.51.52.06,1.24.8,2.01,1.92,2.4.19.06.49-.15.72-.28.06-.04.09-.25.06-.35-.29-.99-1.06-1.6-1.79-2.23-.08-.08-.26-.04-.39-.06h0ZM232.02,191.91c-.11.05-.24.06-.29.14-.08.1-.15.28-.11.35.69,1.18,1.39,2.35,2.11,3.5.05.09.32.17.37.13.17-.16.38-.36.42-.57.05-.25,0-.56-.1-.8-.45-1.21-1.39-2.01-2.41-2.74h0ZM284.11,225.76c-.18-.19-.33-.4-.52-.54-.08-.06-.29-.02-.4.05-1.09.6-1.52,1.56-1.46,2.77,0,.12.07.33.16.35.22.07.51.16.68.07,1.04-.58,1.67-1.44,1.54-2.7h0ZM140.6,118.77c-2.02-.94-3.84-1.55-6.61-.67,2.58.47,4.42.91,6.61.67h0ZM225.1,192.8c-.32-.18-.54-.41-.7-.38-1.66.32-2.91,1.41-4.22,2.37-.07.05-.08.32-.05.33.24.11.55.32.73.24,1.49-.67,2.92-1.45,4.25-2.56h0ZM164.93,83.13c-.27-.34-.6-.76-.94-1.15-.28-.31-.85-.27-1.08.06-.4.55-.78,1.12-1.09,1.72-.08.17.02.55.17.71.15.16.49.29.71.23.65-.17,1.29-.4,1.9-.69.16-.08.18-.46.33-.87h0ZM164.07,140.36c.11.74.22,1.57.36,2.39.05.27.2.52.3.78.13.37.82.68,1,.43.17-.21.41-.52.36-.72-.27-1.07-.6-2.12-.96-3.17-.16-.51-.74-.87-.84-.6-.08.26-.15.52-.24.88h0ZM282.56,221.22c0,.2-.07.35-.02.46.15.33.31.89.53.91.33.04.77-.22,1.05-.48.78-.71.8-1.67.74-2.65-.03-.39-.52-.63-.88-.46-1,.44-1.39,1.24-1.41,2.21h0ZM267.6,235.48c-.1-.13-.19-.31-.28-.32-.26-.02-.57-.06-.77.06-1.03.61-1.34,1.62-1.43,2.74-.03.42.22.85.57.94.47.12.78-.17,1.04-.46.76-.85.88-1.9.87-2.96h0ZM301.61,214.58c.27-1.48.57-2.95.79-4.44.1-.66.28-1.36-.06-2.03q-1.3,2.1-.73,6.47h0ZM302.2,192.27c-1.32,4.73-1.47,6.46-.68,7.87.3-2.51,1.13-4.91.68-7.87h0ZM140.94,100.42c.75,0,1.24-.52,1.78-.92.45-.32.84-.71,1.25-1.08.09-.09.14-.23.19-.36.19-.44.03-.8-.25-1.13-.27-.3-.91-.39-1.13-.17-.66.7-1.36,1.38-1.93,2.14-.34.45-.33,1.04.09,1.51h0ZM86.63,48.1c-.14-.05-.27-.16-.4-.15-1.37.12-2.75.24-4.13.37-.35.03-.51.23-.44.58.02.09.12.22.2.25,1.24.27,2.49.29,3.71-.01.46-.12,1.04-.35,1.06-1.03h0ZM153.04,70.96c-.21.14-.51.24-.59.43-.54,1.42.54,3.02,2.15,3.19.23.03.54-.15.69-.34.14-.18.21-.53.14-.74-.37-1.05-1.01-1.92-2-2.49-.11-.06-.26-.03-.39-.05h0ZM304.6,76.22c0,.06,0,.13,0,.2.97-.07,1.93-.09,2.89-.22.38-.05.76-.29,1.08-.52.15-.11.16-.43.17-.65,0-.07-.21-.19-.33-.22-1.01-.23-1.9.11-2.78.58-1.06.56-2.1.56-3.17-.03-.34-.2-.78-.25-1.18-.33-.09-.02-.26.11-.33.22-.03.05.05.23.14.3.33.24.65.61,1.01.66.82.1,1.66.03,2.48.03h0ZM197.13,140.45c-.86.68-1.75,1.3-2.52,2.04-.2.19-.2.83-.03,1.1.18.27.75.57,1.01.48.87-.36,1.7-.86,2.52-1.35.43-.25.49-.99.1-1.45-.25-.3-.62-.49-1.07-.82h0ZM293.79,179.27c-.11.57-.29.97-.25,1.36.16,1.9.39,3.8.6,5.7.02.12.13.27.24.33.22.11.5.27.71.22.2-.06.53-.37.5-.52-.18-1.06-.48-2.11-.67-3.17-.17-.94-.18-1.91-.36-2.84-.06-.34-.44-.62-.77-1.06h0ZM276.82,220.46c.13.03.29.12.38.08,1.12-.49,2.27-.98,3.05-1.99.16-.21.29-.49.3-.74.02-.24-.06-.55-.22-.73-.16-.17-.52-.33-.7-.26-.87.35-1.78.7-2.55,1.22-.55.37-.9,1.05-.72,1.79.06.23.29.42.46.62h0ZM162.01,148.73c.12-.08.29-.14.33-.24.75-2.32.34-4.57-.42-6.79-.04-.1-.17-.2-.29-.25-.12-.05-.28-.09-.4-.06-.1.02-.22.15-.22.25-.16,1.78.14,3.84,1,7.1h0ZM227.54,194.92c-.05.12-.06.29-.15.35-1.87,1.12-3.74,2.22-5.62,3.32-.27.16-.55,0-.65-.31-.04-.11.03-.3.11-.38,1.66-1.67,3.7-2.73,5.9-3.49.08-.03.25.08.31.17.06.09.06.23.09.35h0ZM194.52,215.4c-.14-.07-.28-.21-.36-.18-2.31.8-4.34,2.32-6.81,2.74-.06.01-.08.46-.06.7,0,.09.18.24.29.25.27.03.58.08.81-.02,1.99-.92,3.97-1.88,5.94-2.86.14-.07.13-.42.19-.63h0ZM175.4,142.22c.05-.12.17-.26.14-.34-.82-2.03-1.8-3.96-3.51-5.42-.08-.08-.29-.11-.39-.06-.32.13-.4.38-.21.67,1.08,1.73,2.18,3.47,3.28,5.18.06.09.25.11.38.11.1,0,.2-.09.32-.14h0ZM165.62,89.6c.72-.09,1.47-.47,2.5-1.26.33-.26.49-.8.22-1.08-.26-.28-.57-.66-.9-.72-.96-.15-1.89.07-2.7.66-.4.29-.58.94-.33,1.45.23.51.84.99,1.21.94h0ZM271.04,229.49c.99-.1,1.65-.57,2.19-1.18.26-.29.48-.65.61-1.02.21-.66.17-1.34-.31-1.9-.25-.3-1.27,0-1.79.51-1.08,1.06-1.31,2.24-.7,3.6h0ZM194.75,212.09c-.26-.21-.46-.51-.64-.5-1.96.16-3.7.95-5.25,2.13-.15.11-.12.49-.11.75,0,.08.19.18.32.23.12.05.27.09.39.06,1.62-.36,3.14-.97,4.61-1.72.31-.16.46-.63.68-.95h0ZM178.02,94.79c-.43.13-1.21.36-1.98.62-.08.03-.15.22-.17.34-.02.11,0,.3.06.34,1.2.7,2.54,1.04,3.91,1.21.38.05.8-.09,1.17-.22.28-.1.02-.95-.37-1.44-.59-.74-1.41-.79-2.63-.85h0ZM304.06,172.78c-.97,3.43-1.53,6.98-1.51,9.56,0,.13.29.25.54.46.79-3.26,1.51-6.43.97-10.02h0ZM341.93,74.96c-2.1-.05-4.14-.13-6.19-.14-.53,0-1.05.18-1.58.31-.05.01-.06.22-.08.34,0,.13,0,.35.07.37,1.71.66,3.5.4,5.24.26.86-.08,1.92-.02,2.54-1.13h0ZM190.73,135.61c-.14-.4-.15-.73-.33-.89-1.11-1.01-2.26-1.99-3.43-2.95-.15-.12-.56-.13-.69-.02-.17.15-.33.56-.24.71.76,1.29,1.55,2.56,2.42,3.79.17.25.79.43,1.07.31.46-.19.83-.65,1.19-.95h0ZM270.32,236.28c.36-.14.76-.24,1.1-.44.34-.2.67-.46.95-.75.81-.84,1.1-2.79.51-3.38-.07-.08-.23-.12-.34-.1-1.35.22-2.25,1.02-2.47,2.33-.13.76-.43,1.59.25,2.34h0ZM159.43,81.14c.68-.22,1.2-.66,1.55-1.28.11-.2.12-.58,0-.75-.74-1-1.52-1.98-2.7-2.49-.2-.09-.6-.03-.76.12-.29.26-.7.69-.66.97.27,1.38.9,2.6,2.16,3.37.11.06.27.04.42.06h0ZM279.23,227.98c-.25-.08-.57-.31-.71-.23-.73.38-1.48.77-2.09,1.31-.9.77-1.19,1.82-1.04,3,.07.57.71.87,1.21.63,1.81-.89,2.55-2.44,2.75-4.33,0-.12-.08-.24-.11-.37h0ZM142.37,106.33c.27,0,.6.1.77-.02.79-.53,1.56-1.09,2.29-1.7.79-.67.89-1.47.45-2.6-.22-.54-.91-.77-1.31-.46-1.37,1.03-2.21,2.38-2.46,4.07-.03.22.18.48.27.71h0ZM280.19,222.29c-.21-.15-.46-.47-.62-.43-1.21.31-2.34.81-3.13,1.83-.44.56-.57,1.24-.48,1.96.05.4.54.82.85.66.74-.37,1.48-.73,2.18-1.15,1.11-.65,1.25-1.73,1.21-2.88h0ZM193.79,117.79c-1.3,0-2.27.08-3.21-.04-2.42-.32-4.65.44-6.9,1.06-.1.03-.23.26-.21.31.12.18.33.48.45.46,2.18-.4,4.4-.49,6.62-.58.68-.03,1.38-.1,2.05-.27.34-.09.61-.46,1.2-.93h0ZM142.79,92.07c-.26-.45-.56-1.06-.96-1.61-.1-.15-.57-.22-.73-.11-.91.65-1.66,1.49-2.08,2.52-.26.64-.17,1.38.36,1.92.17.17.53.34.71.28,1.09-.35,1.97-1,2.51-2.03.13-.22.1-.53.17-.99h0ZM223.01,201.29c.33-.04.76,0,1.1-.16,1.87-.86,3.73-1.76,5.57-2.67.36-.18.72-.41.99-.7.16-.16.27-.6.18-.71-.25-.27-.62-.44-.96-.61-.09-.05-.27.06-.38.12-1.92,1.07-3.86,2.13-5.76,3.22-.34.2-.62.52-.91.81-.08.09-.16.25-.14.37,0,.1.15.18.3.35h0ZM262.32,202.37c0-.58.07-.88,0-1.13-.51-1.74-1.04-3.48-1.6-5.21-.07-.25-.28-.47-.45-.68-.07-.08-.27-.15-.35-.11-.22.1-.57.22-.62.41-.12.38-.19.84-.09,1.22.38,1.62.82,3.24,1.27,4.85.08.26.18.55.35.74.16.18.45.29.69.36.35.09.81-.39.81-.46h0ZM138.56,82.71c-1.74,1.93-1.75,1.93-1.38,3.91.09.53.23,1.06.36,1.58.07.32.69.56,1,.37.46-.29.93-.58,1.34-.93.45-.37.68-.93.5-1.46-.33-1.03-.75-2.04-1.2-3.02-.08-.2-.41-.3-.62-.44h0ZM213.72,201.02c-.23-.11-.49-.35-.69-.3-3.1.8-5.87,2.24-8.16,4.53-.09.1.05.48.14.7.03.08.26.15.34.11,2.93-1.45,5.94-2.77,8.36-5.05h0ZM284.6,158.2c-.27.25-.8.54-.78.78.08.79.46,1.55.53,2.34.07.86.32,1.55.87,2.23.6.74,1.02,1.61,1.55,2.41.22.33.53.61.81.91.24.25.8.24,1.1-.08.16-.17.33-.54.24-.68-1.3-2.26-2.31-4.66-3.36-7.03-.11-.24-.35-.41-.55-.6-.09-.09-.23-.15-.42-.26h0ZM286.66,187.75c-.21-1.2-.45-2.69-.73-4.16-.08-.44-1.09-.6-1.42-.22-.26.3-.63.69-.6,1.02.11,1.92.29,3.83.55,5.74.03.26.61.62.93.61.34-.01.87-.34.97-.64.2-.64.18-1.35.3-2.34h0ZM164.46,152.49c-1.14.07-1.81.72-1.96,1.78-.2,1.5-.1,3.01.26,4.47.42,0,.68.04.94-.01.41-.09.8-.24,1.19-.37.58-.18.97-.67.95-1.17-.08-1.68-.27-3.32-1.38-4.7h0ZM167.42,148.19c-.35-.11-.51.01-.61.34-.77,2.59.65,4.81,1.22,7.18.09.34.59.52,1.05.43.99-.2,1.5-.91,1.2-1.72-.74-1.92-1.48-3.85-2.26-5.76-.08-.2-.4-.31-.6-.47h0ZM256.9,238.41l1.3-.67c1.49-.77,1.7-2.06,1.46-3.54-.09-.52-.77-.98-1.22-.75-.86.45-1.72.9-2.52,1.42-.6.4-.9,1.03-.9,1.78,0,.28,0,.54.04.8l-.91-.47-2.94-2.02c.68-.35,1.34-.72,1.84-1.35.45-.56,1.08-.87,1.79-.97,2.01-.29,3.68-1.29,5.11-2.67.63-.6,1.26-1.06,2.14-1.22,1.69-.29,3.16-1.15,4.54-2.11,1.6-1.12,3.27-2.12,5.05-2.94.62-.29,1.19-.73,1.74-1.16.46-.37.59-.91.5-1.5-.08-.47-.49-.88-.82-.75-.65.24-1.32.45-1.94.75-7.27,3.61-14.34,7.56-21.08,12.11-3.89,2.63-8.08,4.77-12.21,6.99l-7.17,1.74.35-.2c4-2.31,8.11-4.4,12.14-6.65,2.44-1.36,4.86-2.78,7.21-4.29,6.83-4.39,13.82-8.48,21.16-11.96,2.28-1.07,4.46-2.33,6.71-3.46,1.32-.66,2.31-1.44,2.49-3.08.11-.94.98-1.14,1.95-.66.25.12.46.32.7.45.12.06.27.06.4.09.3.06.96-.3.98-.61.05-.54.09-1.1,0-1.63-.1-.55-.81-.98-1.27-.83-.66.21-1.36.38-1.95.73-2.54,1.47-5.04,3.02-7.56,4.51-1.57.92-3.17,1.78-4.76,2.66-2.67,1.5-5.34,3.03-8.04,4.5-2.7,1.47-5.43,2.88-8.15,4.32-.98.52-2.01,1-2.95,1.59-4.42,2.72-9.18,4.73-13.82,7.03-5.62,2.79-11.23,5.63-16.67,8.78l-2.83-.63.21-.15c.12-.08.24-.16.35-.23,6.49-3.57,12.94-7.22,19.71-10.25,3.32-1.49,6.64-2.95,9.73-4.88,1.41-.89,2.95-1.58,4.47-2.29,3.29-1.54,6.49-3.26,9.57-5.2,2.01-1.26,4.14-2.32,6.26-3.39,3-1.52,5.97-3.09,8.74-4.97.34-.23.64-.53.97-.82-.27-.12-.54-.36-.69-.3-1.17.43-2.36.87-3.5,1.39-3.69,1.66-7.39,3.32-11.05,5.05-2.15,1.01-4.24,2.15-6.35,3.25-.61.32-1.2.74-1.86.96-3.22,1.1-6,2.99-8.73,4.95-1.7,1.23-3.4,2.45-5.43,3.1-.27.09-.51.24-.76.36-5.04,2.43-10.08,4.85-15.12,7.27-2.27,1.09-4.47,2.28-6.61,3.64-.97.63-1.96,1.23-2.96,1.83l-4.49-1-2.48-2.01c2.74-1.43,5.49-2.83,8.23-4.25,6.35-3.25,12.86-6.15,19.02-9.77,5.9-3.47,11.98-6.63,18.01-9.88,1.72-.92,3.54-1.65,5.31-2.51,1.38-.67,2.81-1.29,4.08-2.13,2.46-1.62,5.06-2.97,7.64-4.38,2.95-1.61,5.9-3.22,8.56-5.29,1.46-1.14,3.13-1.82,4.83-2.47,3.53-1.35,7.07-2.64,10.61-3.97.65-.25,1.31-.49,1.9-.86.32-.2.62-.6.73-.97.11-.37.09-.9-.11-1.19-.19-.28-.76-.55-1.06-.46-2.28.64-4.62,1.04-6.77,2.13-4.62,2.33-9.28,4.56-13.92,6.84-5.03,2.46-10.02,4.97-14.82,7.84-.48.29-.98.55-1.49.78-3.07,1.38-6.01,2.98-8.8,4.85-.58.39-1.21.71-1.85.99-6.75,3.06-13.1,6.91-19.82,10.05-2.27,1.06-4.4,2.43-6.6,3.66-1.58.89-3.16,1.76-4.83,2.49-2.17.94-4.25,2.11-6.29,3.33-1.7,1.02-3.4,2.05-5.09,3.08l-1.24-1-8.01,3.57c1.66-1.09,3.3-2.19,4.92-3.32.35-.24.69-.5,1.06-.68,6.15-3.03,11.87-6.86,18.08-9.78,2.66-1.25,5.2-2.73,7.81-4.07,3.35-1.73,6.73-3.43,10.08-5.16.6-.31,1.26-.59,1.59-1.5-.38-.59-.85-1.25-1.26-1.96-.49-.85-.92-1.73-1.38-2.59-.4-.74-.79-1.48-1.2-2.21-.36-.63-1.05-.89-1.79-.75-.83.17-1.61.43-2.29.97-.45.37-.8.88-.69,1.44.41,2.05.37,4.18,1.21,6.14.16.37.24.8.24,1.21,0,.23-.23.59-.41.64-.22.05-.59-.1-.74-.29-.4-.56-.79-1.14-1.04-1.78-.57-1.43-1.03-2.89-1.56-4.33-.17-.46-.59-.56-1.03-.48-.52.09-1,.78-.87,1.25.33,1.21.7,2.41,1,3.63.06.2-.12.51-.26.71-.19.25-.97.21-1.14-.04-.55-.8-1.08-1.61-1.62-2.41-.34-.49-.94-.78-1.45-.6-.92.32-1.85.64-2.71,1.07-.51.25-.81.81-.74,1.41.1.82.24,1.65.46,2.44.19.66.53,1.28.79,1.89-.45.58-.93.73-1.43.26-1.06-.98-1.46-2.37-2.18-3.56-.38-.63-1.03-.76-1.81-.37-.25.13-.5.26-.73.41-.63.43-.99,1.05-.83,1.78.32,1.36.76,2.68,1.09,4.04.05.18-.17.57-.35.63-.23.08-.62,0-.77-.15-.47-.5-.92-1.04-1.27-1.62-.36-.59-.53-1.31-.92-1.87-.19-.28-.73-.46-1.1-.46-1.16,0-2.15.58-3.03,1.28-.29.23-.57.72-.54,1.06.12,1.52.37,3.03.53,4.55.03.2-.2.55-.39.6-.22.07-.65-.02-.75-.19-.64-1.07-1.22-2.18-1.81-3.27-.26-.49-.91-.75-1.43-.51-.51.23-1.06.45-1.46.81-.27.25-.49.76-.44,1.11.13.96.46,1.89.64,2.85.04.2-.18.57-.36.65-.22.08-.6,0-.78-.15-.42-.36-.78-.79-1.1-1.23-.43-.55-.75-1.19-1.63-1.5-1.59.7-2.85,1.98-3.96,3.39-.31.38-.19,1.07-.31,1.62-.06.33-.69.58-1.02.41-.25-.12-.47-.3-.7-.46-.49-.36-1.02-.43-1.58-.19-.51.22-1.03.45-1.51.72-.8.45-1.24,1.1-1.02,2.07.07.27.16.54.2.82.06.43-.04.86-.46,1.03-.22.09-.56,0-.77-.12-.35-.21-.64-.54-.97-.79-.46-.36-.96-.58-1.54-.29-.78.4-1.42.93-1.39,1.89.02.55.26,1.12.18,1.64-.04.23-.75.6-.97.5-.74-.35-1.39-.88-2.08-1.34-1.08-.07-1.8.66-2.6,1.19-.7.47-.84.94-.61,1.8.14.53.32,1.05.39,1.58.02.12-.35.39-.57.42-.63.07-.98-.42-1.4-.78-1.5-1.32-1.51-1.32-3.24-.39-.24.13-.56.22-.71.42-.24.32-.54.74-.51,1.09.05.42.12.84.21,1.26l-8.56-1.07-1.67-.87c1.76-.77,3.5-1.55,5.23-2.37,2.03-.96,4.09-1.83,6.07-2.87,2.83-1.5,5.56-3.21,8.56-4.4,1.03-.41,1.95-1.1,2.9-1.69,4.4-2.71,8.8-5.43,13.21-8.14.83-.51,1.66-1.04,2.54-1.46,4.42-2.1,8.87-4.14,13.27-6.27,2.14-1.03,4.21-2.19,6.31-3.32,2.82-1.53,5.62-3.12,8.45-4.64,5.18-2.76,10.38-5.48,15.76-7.86,1.65-.74,3.29-1.55,4.98-2.19,3.42-1.31,6.64-2.96,9.58-5.15,1.36-1.02,2.81-1.84,4.39-2.39,2.27-.78,4.37-1.87,6.46-3,4.43-2.38,8.82-4.84,13.56-6.61,1.96-.73,3.77-1.82,5.66-2.73.75-.37,1.51-.86,2.3-.97,1.64-.24,2.71-1.3,4-2.15,1.64-1.08,2.2-2.4,1.82-4.27-.18-.92-.58-1.23-1.4-.86-.51.23-1.03.44-1.52.71-2.45,1.31-4.67,3-7.15,4.3-2.45,1.29-4.74,2.94-6.82,4.85-.7.64-1.62,1.09-2.51,1.49-3.45,1.55-6.92,3.02-10.17,4.97-.71.43-1.51.71-2.29,1.04-.64.27-1.36.42-1.94.78-1.06.65-1.98,1.6-3.1,2.07-1,.42-2.18.41-3.14,1.07-1.74,1.21-3.74,1.87-5.65,2.71-3.07,1.34-6.08,2.85-9.1,4.3-8.31,4.02-16.61,8.02-24.9,12.08-3.01,1.47-5.96,3.08-8.9,4.68-1.84,1-3.71,1.94-5.62,2.81-3.81,1.75-7.53,3.66-11.3,5.5-.88.43-1.74.91-2.64,1.27-1.83.75-3.57,1.57-4.78,3.27-.38.53-1.06.91-1.69,1.19-1.8.79-3.43,1.86-5.12,2.84-2.05,1.19-4.25,2.14-6.44,3.04-1.04.43-2.03.86-2.97,1.49-2.56,1.7-5.19,3.26-8.01,4.55-.41.19-.82.38-1.24.59l-3.02-1.57-2.54,1.02c1.76-.98,3.47-2.05,5.21-3.08,1.21-.7,2.43-1.37,3.63-2.08,1.91-1.14,3.98-2.05,5.54-3.79.06-.84.18-1.67.18-2.5-.02-5.45.05-10.91-.14-16.36-.12-3.49-.49-6.98-.99-10.44-.44-3.06-.64-6.11-.65-9.19,0-1.96.08-3.92-.52-5.83-.11-.39-.17-.83-.16-1.24.11-2.96-.48-5.85-.97-8.74-.48-2.9-1-5.79-.97-8.75-.87-4.39-.37-8.95-1.63-13.29-.07-.26-.12-.55-.12-.83-.06-6.33-1.51-12.46-2.68-18.64-.61-3.28-1.29-6.58-1.34-9.95-.02-.56-.54-1.04-1.07-1.08-4.46-.32-8.93-.57-13.38-.97-3.9-.34-7.76-.86-11.66-1.27-5.7-.59-11.32-1.71-16.97-2.72-4.38-.78-8.86-1.09-13.32-1.57-1.33-.15-2.05.52-2.07,1.97-.03,1.81-.02,3.64.15,5.44.22,2.36.58,4.72.92,7.07.18,1.24.36,2.51.75,3.69.75,2.29,1.08,4.66,1.19,7.02.18,3.79.97,7.47,1.59,11.2.09.55.25,1.09.29,1.65.32,3.76.65,7.52.89,11.29.12,1.82.08,3.63.6,5.41.11.36-.03.83-.17,1.21-.07.22-.37.43-.6.48-.22.05-.55-.03-.72-.19-.64-.6-.88-1.42-.97-2.26-.24-2.08-.53-4.17-.6-6.25-.12-3.78-.58-7.53-1.03-11.27-.2-1.66-.64-3.29-.87-4.95-.39-2.76-.86-5.52-.86-8.33,0-.69-.17-1.38-.32-2.07-.66-3-1.3-6-1.65-9.07-.39-3.47-.94-6.92-1.43-10.38-.15-1.08-.49-1.62-1.47-1.73-.99-.11-1.91-.37-2.8-.8-2.54.1-3.66-1.68-4.68-3.57-.35-.64,0-1.9.68-2.22,1.64-.8,3.31-1.51,5.18-1.45,1.12.04,2.27.01,3.35.23,4.14.82,8.35.73,12.53.84,3.5.08,6.99.21,10.48.48,3.75.29,7.53.49,11.28.92,3.86.44,7.79.48,11.85.7-.45-.71-.88-1.22-1.1-1.82-.28-.78-.48-1.62-.53-2.45-.34-5.34-2.02-10.4-3.2-15.57-.18-.81-.42-1.62-.56-2.45-1.04-6.2-2.77-12.26-3.96-18.43-.89-4.66-1.88-9.31-2.45-14.03-.12-.96-.65-1.5-1.66-1.57-2.93-.19-5.86-.47-8.79-.46-5.76.02-11.42-.91-17.07-1.77-2.37-.36-4.71-.6-7.09-.61-1.81-.01-3.63-.03-5.45-.03-1.95,0-3.91.02-5.86.03-.84,0-1.68.05-2.52,0-2.31-.12-3.73-2.16-3.11-4.43.24-.86.76-1.51,1.64-1.75.81-.22,1.63-.42,2.46-.5,2.09-.18,4.18-.35,6.28-.39,2.51-.06,5.03.15,7.53-.36.8-.17,1.67.02,2.51,0,2.79-.06,5.58-.12,8.38-.21.72-.02,1.37-.25,1.89-.77.3-.3.64-.55.92-.86,3.43-3.69,6.79-7.43,9.61-11.63.31-.46.6-.96.76-1.48.13-.38.12-.83.04-1.22-.08-.4-.32-.77-.51-1.14-2.9-5.74-5.82-11.47-8.72-17.21-.45-.87-.98-1.72-1.29-2.63-.46-1.34-1.13-2.54-1.93-3.7-.32-.45-.54-.97-.76-1.48-.29-.63-.1-1.49.35-1.93.54-.53,1.7-.66,2.34-.24.35.23.71.47.98.78.38.41.73.86,1.01,1.34,1.72,2.88,3.44,5.76,5.12,8.66,1.88,3.27,3.74,6.55,5.56,9.85.67,1.22,1.25,2.5,1.79,3.78.55,1.29,1.1,2.58,1.98,3.68.26.32.58.73.94.81,2.26.51,3.83,2.23,5.79,3.26,3.1,1.64,6.43,2.73,9.55,4.3,3.37,1.7,6.61,3.61,9.84,5.57.83.49,1.64,1.16,2.17,1.94.91,1.33,2.17,1.67,3.62,1.74,1.53.08,3.07.1,4.61.17,3.9.17,7.81.11,11.71.58,2.36.28,4.75.17,7.13.24,7.97.21,15.94.45,23.9.63,5.18.12,10.35.17,15.53.23,6.29.07,12.59.08,18.88.2,4.33.08,8.65.34,12.99.43,2.52.05,5.05.09,7.54-.13,6.71-.6,13.42-.44,20.14-.27,1.95.05,3.9-.01,5.86-.02,5.87-.03,11.75-.2,17.61.35,2.93.28,5.87.27,8.79-.23,3.04-.51,6.12-.58,9.2-.49,5.59.18,11.19.55,16.79.11.12-.01.3,0,.4.07.34.2.72.38.94.67.31.39-.05.98-.62,1.35-.74.48-1.52.8-2.36.72-4.88-.48-9.8.24-14.65-.71-1.62-.31-3.39-.27-5.01.04-5.15.98-10.33.83-15.48.59-5.87-.28-11.75-.1-17.62-.08-1.54,0-3.08.1-4.61.02-6.85-.35-13.69-.21-20.54.03-2.37.08-4.76.08-7.13.05-4.48-.05-8.96,0-13.43-.26-4.18-.25-8.37.09-12.56-.29-4.16-.37-8.38-.27-12.57-.33-8.25-.14-16.5-.26-24.75-.37-.42,0-.85.01-1.26.1-.55.13-1.04.4-1.2,1.01-.14.54-.25,1.09-.42,1.62-.22.7-.71,1.22-1.39,1.48-1.56.61-3.11,1.21-4.88.88-.95-.18-1.96-.04-2.92-.2-1.41-.24-2.81-.17-4.17.08-1.94.35-3.89.43-5.84.46-.7,0-1.44-.06-2.09.14-2.76.84-5.54.45-8.32.26-2.38-.16-4.76-.2-7.07.5-.11.03-.29.17-.28.21.07.26.13.6.3.72.47.28,1,.5,1.53.66,2.4.74,4.79,1.52,7.23,2.16,6.48,1.69,12.95,3.43,19.48,4.95,7.35,1.72,14.61,3.77,21.92,5.63,3.38.86,6.81,1.54,10.21,2.34,3.67.88,7.32,1.84,10.99,2.7,3.95.92,7.92,1.68,11.93,2.24,6.24.86,12.45,1.95,18.49,3.72,5.38,1.57,10.87,2.56,16.35,3.63,2.19.43,4.4.82,6.57,1.33,9.16,2.17,18.45,3.21,27.85,3.21,3.06,0,6.15-.17,9.19.44.41.08.85.02,1.26.07,2.15.26,3.8-.5,5.03-2.32,1.02-1.51,2.15-2.92,3.18-4.41.2-.27.1-.74.12-1.1-3.11-.73-6.14-1.05-9.24-.99-4.77.09-9.49-.39-14.18-1.23-3.33-.6-6.66-.75-10.02-.57-1.4.07-2.81-.01-4.2.17-2.2.3-4.11-.56-6.04-1.35-.8-.33-1.28-1.05-1.58-1.87-.37-.98.32-2.47,1.34-2.73.53-.14,1.09-.26,1.63-.25,4.62.08,9.22-.18,13.84.06,3.35.18,6.71-.08,10.06-.18,1.98-.06,3.86-.51,5.71-1.24,3.51-1.39,7.06-2.63,10.45-4.35,3.35-1.72,6.65-3.53,9.86-5.52,2.03-1.25,3.93-2.71,6.19-3.51,1.96-.69,3.29-2.08,4.36-3.77.82-1.3,1.66-2.61,2.32-3.99,1.73-3.66,4.27-6.9,5.65-10.74.05-.13.16-.23.22-.35.46-.79,1.51-1.06,2.16-.52.63.54,1.26,1.09,1.85,1.69.65.66.75,1.49.49,2.34-.21.67-.42,1.35-.77,1.95-1.45,2.55-3.01,5.04-4.4,7.61-1.14,2.08-2.08,4.26-3.17,6.38-2.11,4.1-4.27,8.18-6.43,12.34.29.28.56.71.89.78.94.21,1.92.27,2.9.39,3.19.4,6.38.8,9.56,1.2.15.02.29.06.43.06,6.43-.09,12.8,1.26,19.26.77,2.09-.15,4.18.13,6.25.59.81.18,1.38.92,1.45,1.83.21,2.31-.74,3.55-2.9,3.72-.96.08-1.94,0-2.92.03-1.21.03-1.68.54-1.76,1.85-.03.56-.06,1.12-.05,1.68.08,2.12-.37,4.18-.87,6.21-.51,1.91-.67,3.84-.71,5.81-.06,2.38-.25,4.74-.47,7.11-.14,1.54-.28,3.07.1,4.59.29,1.11.16,2.2.04,3.32-.28,2.63-.38,5.29-.65,7.93-.22,2.36-.52,4.72-.85,7.07-.05.35-.42.66-.66.97-.07.08-.35.12-.37.09-.12-.24-.31-.52-.28-.76.63-4.59.19-9.22.52-13.82.11-1.39-.03-2.8-.03-4.19s0-2.79.02-4.19c.03-2.1.05-4.19.15-6.29.09-1.81.22-3.63.47-5.42.37-2.36.49-4.73.37-7.11-.06-.98-.16-1.97-.42-2.9-.39-1.34-.84-1.9-2.33-2-.69-.05-1.39.02-2.09.02-1.12,0-2.25.11-3.36-.06-4.46-.7-8.92-.38-13.37.02-1.67.15-3.36.21-5.04.14-2.68-.12-5.29.45-7.91.81-.74.1-1.27.52-1.68,1.14-.06.12-.17.22-.23.35-1.15,3.16-3.09,5.94-4.44,8.99-1.01,2.29-1.98,4.6-3.31,6.75-.36.59-.12,1.42.53,1.81,1.55.95,3.05,1.92,4.25,3.36.42.52,1.07.9,1.69,1.19,2.49,1.16,4.2,3.21,6,5.16.24.28.4.77.38,1.15-.09,2.37-.07,4.76-.4,7.09-.42,2.9-1.12,5.76-1.73,8.62-.63,2.9-1.86,5.57-3.47,8.05-1.22,1.87-2.29,3.83-3.3,5.82-1.14,2.23-2.61,4.29-3.94,6.42-1.71,2.71-3.43,5.42-5.14,8.12-.46.7-.85,1.47-1.42,2.08-2.28,2.43-3.36,5.49-4.33,8.53-1.11,3.45-1.92,7-2.66,10.55-.48,2.31-.61,4.71-.86,7.06-.06.55.06,1.12.15,1.67.55,3.91.51,7.79-.08,11.69-.63,4.28-.92,8.62-1.61,12.89-.58,3.57-1.5,7.1-2.27,10.64-1.74,3.95-2.99,8.13-5.87,11.52-.96,1.12-1.78,2.35-2.62,3.57l-3.47,1.65-6.52,2.12.46-.38c1.92-1.61,3.69-3.39,5.52-5.09,2.39-3.75,4.68-7.56,6.32-11.71.56-1.41.86-2.93,1.21-4.42.16-.66.25-1.38-.13-2.04-.19.15-.45.26-.55.46-2.05,4.6-4.85,8.76-7.53,12.99-.45.7-.95,1.4-1.56,1.95-3.1,2.82-5.64,6.15-8.51,9.18l-.52.55-16.74.57-5.86-3.04h0ZM316.54,102.69c-.3.23-.64.45-.92.73-.93.95-.91,1.68.15,2.26.95.53,1.96.98,2.98,1.36.31.12.86.03,1.14-.18.63-.49,1.21-1.08,1.75-1.68.12-.14.1-.62-.04-.74-.28-.25-.74-.57-1.01-.5-.51.13-.91.56-1.38.82-.7.38-1.37.13-1.61-.59-.14-.39-.16-.83-.33-1.18-.09-.16-.44-.19-.72-.3h0ZM222.8,116.16c-1.16-.37-2.23-.4-3.28-.49-.96-.1-1.93-.05-2.89,0-.97.04-1.94.17-2.9.23-.86.05-1.6-.16-2.1-1.01-.29-.5-.86-.66-1.43-.67-.55,0-1.11,0-1.66.03-.63.03-1.06.52-.97,1.06.12.6.52,1.07,1.03,1.14,1.09.14,2.19.37,3.29.37,2.77-.02,5.53-.13,8.29-.25.82-.03,1.66.12,2.61-.4h0ZM267.43,198.85c-.57-1.66-1.15-3.48-1.83-5.27-.11-.26-.7-.49-1.03-.46-.35.04-.84.34-.97.64-.19.47-.29,1.1-.16,1.58.46,1.57,1.3,3.04,1.02,4.78,0,.08.41.32.64.34.72.06,1.36-.2,1.87-.71.17-.18.24-.47.46-.91h0ZM267.65,228.76c-.75-.14-1.32.32-1.92.62-.61.3-1.21.66-1.79,1.02-1.21.73-1.58,1.85-1.41,3.18.02.21.35.58.41.56,1.27-.49,2.53-.99,3.77-1.56.64-.29,1.17-.79,1.31-1.51.15-.8.28-1.63-.36-2.32h0ZM279.35,187.53c.19,1.35.47,3.39.8,5.42.05.29.35.35.68.23,1.19-.42,1.72-1.05,1.63-2.06-.15-1.93-.41-3.84-1.06-5.68-.11-.31-.71-.48-1.05-.3-.69.36-.96.95-1,2.39h0ZM255.53,185.33c0-.43.1-.75-.02-.96-.77-1.46-1.56-2.92-2.43-4.31-.16-.26-.75-.37-1.12-.35-1.25.09-1.98,1.15-1.65,2.31.38,1.35.59,1.54,1.94,1.69.27.03.55,0,.83.04.64.09.97.54.78,1.14-.12.38-.33.74-.48,1.12-.03.1.02.26.07.37.16.28.4.31.72.17.64-.29,1.27-.55,1.37-1.21h0ZM174.42,51.71c-6.45-1.75-12.42-1.4-18.46-1.14.5.58,1.09.37,1.6.47.68.13,1.37.2,2.04.4,2.99.91,6.02,1.03,9.1.78,1.66-.14,3.33-.3,5.72-.51h0ZM274.49,176.45c0-.15.05-.33,0-.42-1.16-1.74-2.31-3.48-3.51-5.19-.47-.68-1-1.35-1.61-1.89-.22-.19-.79-.08-1.15.04-.2.06-.33.4-.46.64-.06.11-.1.29-.06.4.54,1.52.52,3.38,2.53,4.01.29.09.58.64.63,1.01.19,1.15,1.21,1.46,1.94,2.05.32.24,1.18.02,1.54-.33.08-.09.11-.22.17-.32h0ZM288.38,185.08c.06.88.08,1.99.25,3.08.06.33.45.76.77.86.81.26,2.18-.61,2.26-1.35.18-1.94.17-3.88-.41-5.77-.08-.24-.3-.48-.52-.63-.2-.13-.51-.24-.73-.2-.73.13-1.33.53-1.45,1.29-.12.82-.12,1.66-.18,2.73h0ZM273.43,168.68c.7,1.55,1.18,2.84,2.3,3.73.08.07.26.08.36.04.12-.05.25-.18.27-.3.03-.26.09-.58-.02-.79-.62-1.22-.19-2.17.79-2.88,1-.73,2.12-1.3,3.15-1.99.57-.38,1.09-.82,1.58-1.29.13-.13.12-.54.02-.72-.11-.21-.39-.37-.63-.44-.25-.08-.58-.1-.82-.01-2.61.98-4.95,2.38-7,4.66h0ZM169.2,177.6c-.11-1.44-.16-2.13-.23-2.82-.15-1.31-.82-1.53-2.01-.88-1.82,1.01-2.6,2.4-2.06,4.47.17.67.24,1.36.37,2.05.11.51.82.81,1.34.55.5-.24,1-.49,1.46-.78.76-.47,1.19-1.17,1.17-2.08,0-.42-.06-.84-.04-.51h0ZM138.09,49.81c.05.27,0,.62.15.79.46.51.98.98,1.51,1.43.92.77,2.01.87,3.16.82.9-.04,1.54-.38,2.11-1.12.29-.38.96-.58,1.47-.65,1.25-.15,2.51-.16,3.77-.24.06,0,.17-.25.14-.35-.04-.11-.19-.26-.3-.27-3.18-.38-6.36-.73-9.56-.76-.81,0-1.68-.16-2.43.35h0ZM277.68,193c-.06-1.38-.2-3.03-.75-4.62-.09-.26-.2-.57-.41-.71-.31-.22-.72-.46-1.08-.43-1.37.07-2.17.95-1.85,2.15.52,1.9.54,3.82.52,5.76,0,.25.15.52.28.76.04.09.2.17.3.17,1.66-.02,2.97-1.26,2.98-3.08h0ZM254.04,199.38c-.11,2.33.48,3.97,1.79,5.36.48.52,1.2.65,1.88.3.74-.37,1.21-1.03,1.08-1.59-.45-2.04-1.08-4.02-2.06-5.86-.17-.3-.69-.65-.98-.59-.49.1-1.12.4-1.35.8-.32.57-.32,1.32-.37,1.58h0ZM272.16,195.84c.02-2.35-.3-4.23-1.21-5.99-.17-.32-.77-.53-1.06-.35-2.37,1.51-2.48,2.62-1.83,4.43.42,1.17.75,2.37,1.23,3.51.12.3.61.56.98.64.56.12,1.55-.54,1.66-1.02.12-.53.21-1.07.23-1.23h0ZM250.86,198.63c-.13.01-.28,0-.42.05-1,.31-1.53.89-1.5,1.72.05,2.23.25,4.44,1.24,6.49.18.37.45.71.73.99.18.17.5.3.74.29,1.04-.05,1.79-.69,2.49-1.36.14-.14.19-.6.08-.74-1.44-1.8-1.99-3.94-2.41-6.14-.05-.26-.18-.52-.35-.74-.15-.22-.39-.37-.6-.55h0ZM316.07,97.44c.36-.36.76-.58.91-.91.92-2.04,1.9-4.04,3.12-5.91.23-.35.49-.72.59-1.11.55-2.21,1.82-4.05,3.01-5.95.28-.45.4-1.03.52-1.56.03-.2-.18-.46-.32-.68-.02-.03-.27.06-.37.14-.96.65-1.53,1.63-2.01,2.64-.93,2.05-2.18,3.88-3.41,5.74-1,1.51-1.8,3.15-2.59,4.79-.28.59-.34,1.34-.32,2.01,0,.26.51.5.87.8h0ZM223.18,166.59c-.59.4-1.3.81-1.94,1.31-.87.68-1.7,1.4-2.51,2.15-.98.92-.99,1.47-.12,2.44.18.21.36.41.57.61,1.2,1.18,2.08,1.3,3.25.32,1.16-.98,2.27-2.02,3.39-3.05.36-.34.35-1.1,0-1.52-.72-.84-1.42-1.7-2.62-2.26h0ZM163.38,167h.02c.07.97.09,1.95.2,2.91.06.4.26.79.48,1.13.12.2.46.43.64.38.67-.16,1.35-.35,1.95-.67.92-.5,1.45-1.29,1.28-2.41-.32-2.06-.66-4.12-1.01-6.18-.05-.27-.15-.56-.32-.76-.14-.17-.51-.39-.63-.32-1.6.95-2.98,2.07-2.71,4.24.06.55.07,1.11.1,1.66h0ZM170.41,182.95c-.29,0-.63-.11-.81.02-.93.58-1.83,1.21-2.71,1.87-.7.53-1.01,1.28-.95,2.17.1,1.64.2,3.28.3,4.93.04.63.57.92,1.2.63,1.13-.52,2.25-1.04,3.36-1.59.66-.33.97-.9,1.02-1.66.11-2.26-.56-4.34-1.4-6.37h0ZM143.74,111.29c-.03-.3-.16-.66-.05-.81,2.27-2.88,4.94-5.29,8.37-6.73.39-.17.84-.23,1.16-.48,2.73-2.22,6.12-3.3,9.04-5.19,1.54-1,3.21-1.7,4.94-2.23.36-.11.8-.01,1.21.03.1.01.27.15.27.24,0,.12-.07.29-.17.37-.33.24-.65.54-1.03.67-2.8.96-5.28,2.53-7.7,4.17-2.2,1.49-4.39,2.96-6.78,4.15-1.11.55-2.11,1.35-3.1,2.12-1.15.89-2,1.96-1.57,3.58.04.14-.29.54-.47.55-1.39.06-2.78-.05-4.12-.43h0ZM204.4,155.49c1.1-1.07,1.9-1.84,2.7-2.61.29-.29.59-.58.88-.87.36-.39.37-1.07-.02-1.5-1.51-1.63-2.99-3.28-4.54-4.85-.86-.86-1.99-.98-3.08-.45-.75.36-1.41.86-2.09,1.32-.34.23-.49.84-.28,1.11,1.66,2.2,3.33,4.42,5.02,6.6.31.41.78.71,1.4,1.26h0ZM332.34,62.72c-.5-.55-1.11-.59-1.59-.36-1.75.86-3.44,1.81-5.16,2.74-2.45,1.33-4.88,2.66-7.3,4.02-1.18.65-2.71.73-3.41,2.11-.21.44.5.77,4.25.56,1.38-.08,2.76,0,4.13-.4.52-.15,1.17-.15,1.65.05,1.47.6,2.34.07,3.08-1.21,1.1-1.93,2.34-3.78,3.49-5.69.35-.59.6-1.24.87-1.83h0ZM151.82,100.18c-.26.99-.95,1.46-1.71,1.8-.2.09-.66.04-.73-.08-.4-.72-.73-1.49-1.07-2.25-1.31-2.92-2.51-5.88-3.17-9.03-.29-1.39-.95-2.62-1.61-3.83-1.06-1.97-1.89-4.03-2.68-6.11-1.37-3.64-2.74-7.28-4.09-10.93-.29-.77-.48-1.57-.7-2.31.21-.28.46-.27.65.05.94,1.7,1.92,3.38,2.76,5.13,1.79,3.76,3.51,7.56,5.24,11.36.23.5.48,1.03.55,1.56.14.97.25,1.91.65,2.83,1.16,2.67,2.16,5.43,3.41,8.06.64,1.36,1.67,2.53,2.5,3.74h0ZM236.77,206.25c.05.27.1.55.18.81.67,2.29,1.79,4.38,2.88,6.5.22.43.94.61,1.48.35,2.01-.97,4.01-1.95,6.02-2.94.36-.19.69-.45,1.04-.69.38-.26.65-1.06.48-1.51-.82-2.23-1.64-4.45-2.46-6.67-.05-.12-.16-.22-.23-.34-.28-.41-.75-.49-1.1-.36-.65.23-1.29.54-1.83.95-.27.21-.47.74-.44,1.08.13.97.4,1.91.62,2.86.22.95.46,1.9.64,2.86.07.4,0,.83-.06,1.24,0,.11-.16.28-.28.29-.24.02-.62.07-.74-.06-.35-.41-.75-.87-.88-1.37-.38-1.35-.76-2.68-1.55-3.87-.74-1.11-1.62-1.28-2.82-.45-.22.15-.45.34-.61.56-.16.22-.24.49-.35.75h0ZM169.14,161.69c.08.55.15,1.1.25,1.65.36,1.9.54,3.88,1.16,5.69.66,1.92.16,3.88.59,5.77.12.54.29,1.07.46,1.59.15.47.92.91,1.34.72.75-.33,1.55-.63,2.22-1.1,1.45-1.04,1.91-2.33,1.4-4.01-1.02-3.31-2.09-6.61-3.18-9.9-.31-.92-.72-1.8-1.11-2.69-.2-.44-.95-.57-1.46-.32-1.08.53-1.82,1.26-1.67,2.59h0ZM206.47,158.08c.23,1.29,1.04,2.1,1.78,2.88,2.29,2.4,4.08,5.25,6.63,7.43,1.52-.91,2.95-1.75,4.38-2.61.35-.21.7-.45,1.04-.69.46-.31.52-1,.1-1.44-3-3.09-5.99-6.17-9.02-9.24-.16-.17-.49-.16-.86-.27-1.54,1.09-2.72,2.65-4.06,3.94h0ZM111.57,44.31c.76.19,1.56.49,2.37.57,3.9.36,7.79.59,11.7.47.27,0,.58-.08.79-.23.17-.13.4-.48.34-.63-.41-1.03-.85-2.04-1.35-3.04-1.29-2.61-3.01-5.02-3.82-7.88-.05-.18-.43-.26-.66-.4-3.18,3.09-8.5,9.09-9.37,10.58-.05.1,0,.27,0,.56h0ZM89.55,48.2c4.04.92,7.19,1.39,10.42,1.27,1.54-.06,3.08-.05,4.58.31,2.07.5,4.19.51,6.24.26,2.15-.26,4.2-.1,6.23.4,2.06.52,4.12.61,6.22.58,1.53-.03,3.06.07,4.6.12.71.03,1.38-.12,1.95-.58.62-.5,1.82-.8,1.65-1.65-.26-1.2-1.58-.88-2.5-.94-1.25-.08-2.51-.07-3.76,0-2.67.16-5.31-.08-7.95-.36-4.45-.47-8.91-.5-13.37-.43-4.46.06-8.88.54-14.3,1.01h0ZM177.91,178.02c-1.61.79-3.02,1.7-4.37,2.66-.63.45-.85,1.12-.7,1.84.42,1.91,1.08,3.78,1.3,5.71.31,2.82,1.2,5.44,2.2,8.05.24.65.44,1.32.67,1.97.29.81.83,1.13,1.56.96,1.79-.41,3.46-1.11,4.98-2.12.55-.36.92-1.16.74-1.83-.57-2.01-1.1-4.04-1.78-6.01-1.14-3.29-2.38-6.56-3.61-9.82-.18-.49-.6-.88-.98-1.42h0ZM166.73,196.71c-.08,1.8-.06,3.35.29,4.83.46,2.07.5,4.16.62,6.24.05,1.12-.04,2.26.14,3.35.55,3.33.45,6.68.54,10.02.04,1.39.18,2.78.39,4.16.07.51.44.98.66,1.45,1.05-.08,1.71-.63,2.28-1.22,1.94-2.02,3.82-4.07,5.26-6.49.88-1.46,1.43-3.03,1.9-4.63.15-.5-.24-1.13-.78-1.29-1.07-.32-2.16-.56-3.21-.92-.81-.28-1.46-.81-1.91-1.56-1.41-2.34-1.6-5.79.6-8.18.46-.5.84-1.09,1.27-1.65-.54-2.11-1.06-4.13-1.6-6.15-.12-.45-.92-.8-1.4-.66-.39.12-.82.2-1.17.4-1.21.69-2.4,1.43-3.85,2.3h0ZM320.26,120.94c-.12-.77-.12-1.49-.34-2.13-.87-2.36-1.48-4.77-1.72-7.28-.03-.3-.63-.75-.93-.69-.26.05-.54.14-.74.29-.22.16-.39.4-.53.63-2.08,3.46-3.9,7.06-5.68,10.68-1.29,2.62-2.71,5.17-4.2,7.68-1.22,2.05-2.25,4.12-2.88,6.45-.37,1.38-.75,2.65-.27,4.05.34,1.01-.02,1.91-.58,2.75-.62.92-1.24,1.84-1.84,2.77-.05.08-.02.25.04.34.07.11.22.25.32.24,1.59-.24,3.03-.98,3.84-2.27,1.15-1.86,2.64-3.21,4.55-4.16.91-.45,1.52-1.18,2.07-2,3.26-4.88,5.81-10.14,8.29-15.43.28-.62.42-1.31.61-1.92h0ZM169.14,144.37c-.86-2.3-1.56-4.12-2.22-5.96-.07-.23,0-.54.08-.79.07-.21.57.13.78.59,1.06,2.28,2.08,4.57,3.18,6.83.61,1.25,1.31,2.47,2.02,3.67,3.14,5.28,6.15,10.64,9.09,16.03,1.94,3.55,4.01,7.03,5.59,10.76,3.14,4.82,5.22,10.18,7.94,15.22.29.54.1,1.19-.43,1.4-2.2.89-4.41,1.76-6.62,2.62-.61.24-1.47-.18-1.71-.84-.83-2.22-1.68-4.44-2.39-6.7-.97-3.07-2.14-6.04-3.38-9-.96-2.32-1.88-4.68-2.49-7.1-.99-3.94-2.48-7.7-3.88-11.5-1.06-2.88-2.3-5.69-3.43-8.55-.92-2.33-1.85-4.67-2.14-6.68h0ZM177.6,207.94c-1.38.09-1.93-.62-1.78-1.35.16-.72.51-1.35,1.12-1.7,3.76-2.13,7.48-4.35,11.36-6.28,4.36-2.18,8.86-4.09,13.32-6.11.12-.06.25-.11.38-.17,2.97-1.54,6.27-2.27,9.17-4.05,2.72-1.67,5.66-3.03,8.56-4.4,4.94-2.32,9.7-4.97,14.35-7.81,4.05-2.47,8.12-4.92,12.21-7.34,1.68-.99,3.44-1.87,5.15-2.82,1.21-.68,2.47-1.3,3.63-2.07,1.88-1.23,3.86-2.24,5.86-3.23,1.25-.62,2.43-1.37,3.62-2.08,1.68-1,3.31-2.1,5.04-2.99,2.98-1.55,5.99-3,8.85-4.78.23-.15.47-.3.73-.41,3.12-1.25,5.98-2.98,8.86-4.71,1.43-.86,2.9-1.62,4.19-2.73,1.49-1.28,3.24-2.17,5.17-2.58.23-.05.69.11.73.25.07.36.13.93-.08,1.11-.71.64-1.54,1.16-2.35,1.71-1.05.72-2.02,1.52-2.32,2.85-.19.9-.85,1.38-1.51,1.92-3.38,2.71-7.01,5.05-10.41,7.75-2.06,1.65-4.4,2.95-6.65,4.35-1.91,1.18-3.82,2.33-5.39,3.96-.29.3-.58.62-.95.83-3.86,2.22-7.37,5.04-11.54,6.75-2.98,1.21-5.86,2.64-8.79,3.94-3.82,1.71-7.68,3.33-11.48,5.12-4.17,1.96-8.42,3.75-12.6,5.67-4.31,1.98-8.46,4.31-12.69,6.45-2,1.01-3.99,2.04-6.06,2.87-3.24,1.31-6.36,2.86-9.42,4.51-.36.2-.72.5-1.11.57-2.96.47-5.4,2.23-8.2,3.11-1.45.46-2.79,1.27-4.18,1.92-1.26.59-2.51,1.22-3.8,1.76-.49.21-1.08.22-.98.21h0ZM233.37,172.6c-2.24-2.17-4.54-4.41-6.85-6.61-2.32-2.21-4.82-4.25-7.01-6.6-1.15-1.23-2.33-2.41-3.49-3.62-2.4-2.54-4.79-5.08-7.18-7.63-1.53-1.63-3.01-3.3-4.53-4.94-.47-.51-.96-1.06-1.54-1.41-2.08-1.23-3.68-3-5.42-4.59-1.76-1.61-3.52-3.19-5.52-4.5-.24-.15-.48-.29-.69-.48-2.74-2.39-5.24-5.03-7.52-7.86-.46-.57-.12-1.54.58-1.65,1.79-.29,3.59-.72,5.39-.79,2.41-.09,4.71-.6,7.01-1.18,1.51-.38,3.01-.54,4.56-.54,3.06,0,6.14-.02,9.2-.46.68-.1,1.39-.03,2.08,0,.84.04,1.72.32,2.5.14,2.11-.48,4.17.03,6.26.09,4.47.12,8.93.26,13.4.28,5.73.03,11.47-.1,17.19-.07,1.96,0,3.91.27,5.86.42.97.08,1.94.24,2.92.26,8.24.08,16.49.17,24.74.19,1.94,0,3.9-.21,5.83-.49,1.81-.25,3.62-.34,5.44-.26.72.03,1.1.81.74,1.54-.36.75-.75,1.5-1.14,2.24-1.13,2.09-2.28,4.17-3.41,6.26-.53.98-1.21,1.92-1.55,2.97-.92,2.83-2.89,5.09-4.08,7.77-.46,1.04-1.42,1.71-2.38,2.3-2.86,1.74-5.71,3.5-8.59,5.21-1.32.78-2.7,1.47-4.05,2.19-1.36.72-2.78,1.35-4.07,2.17-3.89,2.47-8,4.56-11.87,7.09-2.8,1.83-5.85,3.26-8.77,4.91-1.82,1.03-3.67,2.03-5.41,3.19-2.45,1.64-5.1,2.9-7.67,4.31-.22.12-.53.1-.95.16h0ZM248.46,118.04c.68-.89,1.11-1.4,1.47-1.95.75-1.11.42-2.58-.72-3.27-.47-.29-.98-.52-1.51-.71-1.32-.49-2.73-.55-4.13-.55-8.66-.01-17.32-.01-25.98-.03-5.18-.01-10.34-.02-15.51-.07-4.2-.04-8.38.05-12.57.52-1.51.17-3.06.15-4.6.08-2.51-.1-5.01-.3-7.52-.49-.39-.03-.81-.2-1.14-.42-.15-.1-.24-.57-.14-.73.96-1.4,2.29-2.42,3.62-3.42,1.24-.92,2.53-1.75,3.73-2.7.64-.52,1.24-1.14,1.68-1.84.35-.56.67-1.31.62-1.95-.19-2.52-.6-5.01-2.28-7.06-.55-.67-1.24-1.11-2.14-1.12-.57,0-1.14-.04-1.67.06-1.86.36-3.27-.37-4.48-1.68-2.28-2.46-4.6-4.88-6.82-7.38-2.31-2.61-4.44-5.38-7.16-7.63-1.27-1.05-2.22-2.5-3.38-3.71-2.03-2.12-4.1-4.2-6.18-6.27-1.6-1.59-2.91-3.36-3.86-5.57.46-.13.83-.33,1.16-.31.69.05,1.38.18,2.05.35,10.02,2.55,20,5.19,30.04,7.62,5.43,1.32,10.81,2.78,16.2,4.17,1.63.42,3.25.83,4.88,1.2,4.9,1.13,9.81,2.21,14.69,3.38,4.76,1.14,9.54,2.13,14.4,2.72,3.04.38,6.04,1.15,9.06,1.71,3.71.68,7.33,1.72,10.95,2.76,3.22.93,6.5,1.58,9.83,2.05,3.72.53,7.41,1.37,11.07,2.24,3.54.84,7.08,1.59,10.7,1.99,5.55.62,11.1,1.21,16.69,1.41,1.39.05,2.79.04,4.18.03,2.8-.03,5.59-.01,8.29.88.17.06.36.41.36.62,0,.24-.15.58-.34.7-.34.2-.77.25-1.15.41-.5.22-1.11.35-1.45.73-1.58,1.77-3.08,3.6-4.6,5.44-.58.72-.54,1.55.08,2.28.46.52,1.01.98,1.42,1.53.34.46.39,1.03.11,1.58-.13.25-.25.5-.4.73-1.67,2.44-3.05,5.02-4.06,7.79-.64,1.78-1.94,2.72-3.67,3.06-2.19.42-4.34,1.12-6.6,1.08-.7-.01-1.41.03-2.08.16-3.61.72-7.23.6-10.86.55-4.05-.06-8.11-.03-12.15-.17-5.86-.2-11.72-.52-18.14-.82h0ZM149.93,119.16c2.92.4,5.86.11,8.78.1.51,0,1.04-.31,1.51-.57.2-.11.36-.47.34-.71,0-.23-.21-.54-.42-.67-.34-.22-.75-.44-1.14-.46-2.08-.1-4.17-.19-6.27-.18-4.61.02-9.2-.36-13.78-.78-1.26-.11-2.52-.24-3.76-.14-6.58.52-13.09-.38-19.63-.74-1.24-.07-2.49-.42-3.65-.86-2.01-.75-4.05-.93-6.16-.91-2.09.02-4.18-.05-6.27-.18-.82-.05-1.63-.36-2.43-.58-.1-.03-.17-.2-.23-.32-.1-.23.05-.38.43-.44.13-.02.28-.03.41-.01,5.81.79,11.69.67,17.52.99,1.11.06,2.22.24,3.33.34,4.44.42,8.89.84,13.33,1.23,1.25.11,2.51.05,3.77.12,2.5.14,5.01.29,7.51.47,3.07.23,6.12.51,9.18.74.55.04,1.13.03,1.67-.06,1.53-.26,3.05-.06,4.58.09,1.8.18,3.62.31,5.42.48.53.05.95.9.63,1.28-.62.75-1.24,1.5-1.93,2.17-.28.26-.75.46-1.14.45-3.48-.07-6.98-.18-10.46-.33-.36-.01-.7-.39-1.07-.6-2.18.38-4.34-.12-6.56-.37.29-.09.58-.27.88-.27,1.22,0,2.46-.02,3.69.1.65.07,1.28.4,1.91.62h0ZM308.59,119.35c-1.35-.06-2.47.22-2.95,1.74-.33,1.06-.84,2.07-1.29,3.08-.74,1.65-1.52,3.29-2.29,4.94-.42.91-1.04,1.64-1.87,2.2-.11.08-.34.18-.37.15-.15-.19-.39-.44-.34-.62.36-1.49.96-2.91,1.75-4.22,1.03-1.68,1.81-3.45,2.29-5.37.23-.94.51-1.93,1.03-2.73,2-3.05,2.94-6.64,5.04-9.63.22-.33.35-.76.42-1.16.04-.24-.05-.59-.22-.74-.1-.09-.55,0-.69.16-1.31,1.46-2.44,3.04-3.17,4.89-.67,1.68-1.66,3.28-2.07,5.02-.48,2.1-2.43,3.01-3.29,4.74-.06.12-.15.24-.22.36-2.38,4.26-4.76,8.53-7.12,12.8-.34.6-.53,1.28-.76,1.93-.04.09.06.26.16.34.08.08.26.15.34.11,1.26-.61,2.47-1.29,3.74-1.84,1.26-.54,2.59-.96,3.92-1.44,1.12-1.98,2.38-3.85,3.27-5.88.97-2.18,2.12-4.24,3.3-6.3.48-.84.87-1.74,1.3-2.61.06-.11.09-.23.18-.31.27-.27.23-.44.06-.3-.15.13-.12.45-.17.68h0ZM130.53,36.14c.54.06,1.13,0,1.61.21,3.05,1.32,6.12,2.61,9.09,4.1,2.09,1.05,4.03,2.4,6.02,3.65.18.12.23.48.34.72-.25.08-.51.26-.74.23-1.49-.23-3.04-.37-4.49-.82-1.48-.46-2.92-.64-4.47-.68-3.68-.1-3.54-.09-5.62-3.3-.8-1.26-1.69-2.54-1.71-4.15-.32.04-.44-.07-.36-.3,0-.01.2,0,.23.04.06.08.06.21.08.32h0ZM197.68,214.01l-.11.18.17-.11c-.23-2.22.53-4.07,2.18-5.64-.27-1.45-.73-2.93-.26-4.46.06-.2.35-.42.57-.44.22-.03.57.1.68.28.31.45.62.94.74,1.46.3,1.23.3,2.47-.14,3.7-.09.24-.14.57-.04.78.18.35.44.71.75.91.34.22.86.24,1.15-.12,1.5-1.91,3.58-3.02,5.66-4.15,1.71-.92,3.42-1.86,5.15-2.73.38-.19.79.09,1.03.46.21.32.14.98-.12,1.14-.71.43-1.41.88-2.14,1.27-4.69,2.44-9.36,4.87-14.05,7.27-.35.17-.8.14-1.21.2h0ZM317.78,141.93c-.36.17-.8.28-1.07.54-.47.49-.87,1.07-1.27,1.64-1.26,1.84-2.72,3.44-4.69,4.63-1.16.7-2.15,1.76-3.03,2.82-1.08,1.28-1.8,2.78-1.8,4.55,0,.82-.11,1.67-.33,2.45-.45,1.51-.37,3.03-.32,4.55,0,.4.18.52.53.26.99-3.96,2.9-7.63,5.23-11.09,1-1.49,2.15-2.89,3.3-4.28,1.52-1.84,2.68-3.86,3.37-6.15.43-.35.91-.63,1.25-1.04,3.17-3.91,5.61-8.21,6.92-13.11.07-.28.27-.73-.44-.84-.54,1.09-1.11,2.18-1.64,3.31-1.71,3.62-3.34,7.29-5.68,10.58-.21.31-.23.77-.34,1.17h0ZM322.66,126.62c-.04.7.16,1.49-.79,1.79.14,1.01-.1,1.94-.54,2.83-.87,1.75-1.73,3.49-2.62,5.23-.56,1.1-6.41,8.28-7.38,9.03-.88.68-1.78,1.34-2.72,1.95-1.43.93-2.55,2.19-3.54,3.53-1.08,1.47-1.66,3.26-1.72,5.07-.09,2.93-.75,5.8-.65,8.73.03.97-.12,1.96-.36,2.9-.88,3.39-1.23,6.85-1.5,10.32-.05.56-.06,1.13-.23,1.65-.53,1.65-.51,3.28-.08,4.95.13.52.16,1.12.06,1.65-.23,1.35-.56,2.69-.96,4.51-.16-.85-.3-1.21-.29-1.56.06-4.32.04-8.65.27-12.96.2-4.04.24-8.07.27-12.12.03-3.34-.15-6.67-.31-10-.05-1.08.35-1.89,1.12-2.56.31-.28.62-.57.97-.79,2.99-1.82,5.62-4.1,8.21-6.45.82-.74,1.67-1.49,2.37-2.35,1.58-1.94,3.08-3.95,4.63-5.92,1.13-1.43,2.14-2.92,2.94-4.56.57-1.12,1.13-2.23,2.14-3.03.05-.69.33-1.28.79-1.78.74-2.86,1.14-5.74.74-8.71-.22-1.67-.58-3.29-1.16-4.87-.24-.66.22-1.39.93-1.6,1.77-.51,3.57-.48,5.37-.38.23.01.49.27.64.48.72.9.76,1.59.09,2.67-.1.19-.44.26-.68.33-.05.02-.23-.16-.27-.28-.08-.26-.04-.58-.16-.82-.68-1.33-2.06-1.47-3.02-.31-.26.32-.45.69-.65,1.06-.31.66-.02,1.41.67,1.71.49.21,1.01.36,1.45.52.24,1.87.02,3.49-.79,5.04-.69,1.37-1.27,2.79-1.98,4.15-.24.47-.58.95-1.25.93h0ZM291.77,223.3l-.12.08.19-.05c.06-.68-.04-1.43.21-2.03,2.1-5.01,3.42-10.27,5.03-15.44.33-1.05.55-2.16.65-3.25.13-1.53.42-3,1.27-4.53.1,2.22.3,4.27-.43,6.26-.14.39-.24.81-.26,1.22-.13,2.81-1,5.44-1.74,8.12-.97,3.54-2.62,6.69-4.79,9.61h0ZM177.49,224.03c1.36.16,2.36-.65,3.46-1.22,1.52-.8,2.79-1.7,2.71-3.76-.04-.9.56-1.83.86-2.75.54-1.71,1.08-3.43,1.13-5.24,0-.34-.58-.69-.93-.56-.66.27-1.25.64-1.42,1.39-.15.67-.2,1.37-.34,2.04-.35,1.63-.93,3.18-1.82,4.6-1.19,1.86-2.38,3.73-3.57,5.59-.37.2-.43.32-.17.29.04,0,.05-.24.08-.37h0ZM174.97,120.11q-2.41-2.3-2.59-4c3.34-1.46,6.82-.9,10.27-.63.67.05,1.39.17,1.77.89-.76.5-1.62.29-2.43.39-1.52.16-3.04.34-4.55.53-2.24.29-2.24.29-2.54,2.91.36-.06.74-.22,1.04.14-.09.06-.21.18-.26.15-.24-.1-.46-.25-.68-.38h0ZM238.83,193.87c.9.05,1.58-.49,2.31-.86,2.75-1.36,5.49-2.73,8.23-4.1.46-.23.63-.76.32-.96-.22-.14-.53-.35-.73-.28-1.17.41-2.41.76-3.47,1.38-2.05,1.19-4,2.54-5.96,3.87-.31.2-.43.67-.63,1.02l-.2.1.13-.17h0ZM244.73,183.04c-.87-.19-1.66.09-2.39.49-1.22.67-2.4,1.41-3.62,2.07-.97.53-2,.98-2.99,1.49-.37.19-.73.4-1.05.66-.19.17-.28.46-.41.7.35.15.78.51,1.02.41,3.35-1.38,6.53-3.06,9.24-5.5.08-.08.09-.26.13-.39.23-.02.47-.01.69-.06.1-.02.16-.15.24-.23-.2-.08-.46-.26-.58-.2-.15.07-.21.36-.3.56h0ZM329.44,75.52c.35-.18.83-.27,1.01-.55,1-1.47,1.79-3.06,2.49-4.51-.2-.98-.34-1.75-.47-2.53-.22.04-.42,0-.47.09-1,1.47-1.98,2.95-2.94,4.44-.32.5-.25,1.05-.07,1.59.16.52.35,1.04.53,1.55-.37.09-.42.19-.14.27.02-.11.05-.23.06-.34h0ZM245.55,186.39c-1.01-.14-1.93.11-2.81.61-1.68.98-3.38,1.94-5.07,2.92-.23.14-.46.31-.64.52-.17.2-.3.45-.41.69-.05.12-.06.35,0,.4.2.15.55.4.66.33,2.7-1.7,5.37-3.43,8.04-5.17.09-.06.1-.26.16-.38.32-.06.73.07.92-.36-.12-.03-.26-.13-.32-.09-.19.15-.36.35-.54.52h0ZM263.23,174.7c-.14,0-.29-.04-.42-.01-2.08.51-3.77,1.73-5.4,3.05-.43.35-.7.89-.63,1.47.03.26.16.58.34.71.16.11.61.07.71-.06.89-1.28,2.11-2.21,3.3-3.18.75-.61,1.61-1.12,2.01-2.07.1-.05.21-.09.28-.16.04-.03.03-.13.04-.19-.07.14-.16.29-.23.43h0ZM210.27,198.97l.12-.11-.19.04c-.03.14,0,.32-.11.4-1.47,1.31-3.16,2.23-5.02,2.86-.19.06-.58-.12-.7-.31-.1-.14-.03-.63.1-.69,1.87-.9,3.61-2.16,5.8-2.19h0ZM217.89,200.59c-.26.94-.12,1.86.17,2.75.06.16.41.32.6.3.21-.03.41-.26.58-.44.09-.09.15-.27.12-.38-.3-.87-.54-1.79-1.54-2.18.07-1.57-.57-2.9-1.37-4.18-.06-.09-.29-.17-.35-.14-.17.14-.47.41-.43.49.62,1.32.99,2.8,2.23,3.76h0ZM264.92,181.36c.49-.23.99-.44,1.48-.69.12-.06.24-.26.22-.34-.13-.31-.39-.35-.66-.1-.4.34-1.05.5-.96,1.23-.25-.01-.51-.02-.76-.03-.39-.02-.52.14-.3.42.04.05.25.02.35-.04.22-.12.43-.28.63-.43h0ZM138.2,57.83c-.87.01-1.05-.74-1.4-1.29-.05-.08,0-.26.07-.36.04-.06.23-.09.28-.05.57.44.86,1.06.97,1.77.66.41.84,1.03.78,1.76.28.27.67.5.83.83,2.03,4.13,4.06,8.26,6.04,12.41,1.56,3.27,3.23,6.46,5.32,9.44,2.42,3.43,4.27,7.2,6.33,10.84.54.95,1.07,1.9,1.57,2.79-.51.73-1.1,1.12-1.8,1.19-.38.04-.89-.05-1.15-.29-.48-.47-.9-1.06-1.21-1.66-.98-1.86-1.85-3.76-2.83-5.61-1.16-2.22-2.4-4.41-3.56-6.62-.6-1.11-1.14-2.24-1.67-3.38-.16-.38-.41-.83-.34-1.19.41-2.14-.87-3.69-1.73-5.42-1.89-3.88-3.67-7.83-5.46-11.76-.22-.48-.17-1.09-.25-1.64-.86-.33-.87-1.02-.76-1.77h0ZM194.37,205.71c-.24.06-.48.12-.74.17.05.08.1.16.13.23.18-.16.35-.32.53-.48.24-.02.48-.03.7-.08.1-.02.17-.15.25-.23-.2-.07-.46-.26-.58-.19-.16.1-.21.38-.31.58h0ZM230.37,186.33c-.61.18-1.25.31-1.65.88-.79.32-1.81.03-2.41.86-.67.1-1.4.03-1.75.82-.7,0-1.29.23-1.73.8-.3.15-.59.31-.88.45.11.03.29.12.34.07.18-.18.33-.4.48-.61.69-.02,1.47.17,1.74-.79.72.03,1.42-.01,1.73-.84.88-.07,1.79-.08,2.42-.87.64-.1,1.45.09,1.64-.87.35-.07.7-.15,1.05-.22-.09-.04-.22-.14-.28-.11-.24.11-.46.27-.7.41h0ZM340.41,57.04c.67-.38.69-1.05.79-1.69,1.37-1.44,2-3.22,2.52-5.08,1.41-1.36,2.2-3.13,3.08-4.85.23-.42.09-1.21-.17-1.12-.24.09-.52.18-.68.37-1.45,1.61-1.86,3.63-2.16,5.69-1.5,1.35-2.42,3-2.5,5.07-.76.31-.74,1.02-.8,1.67l-.07-.06h0ZM336.21,64.71c-.17.21-.86.25-.26.73.05-.27.13-.54.18-.81l.24-.14-.16.21h0ZM181.79,154.46c.38.54.78,1.07.72,1.78,1.08.21,1.27,1.26,1.83,1.95.51.63.84,1.36.73,2.21.33.21.79.36.97.66.72,1.19,1.38,2.43,2.03,3.66.79,1.49,1.71,2.87,3.15,3.8.08.05.26.03.35-.03.11-.07.27-.22.25-.32-.05-.4-.06-.83-.24-1.19-1.04-2.13-2.14-4.24-3.18-6.38-.98-2.01-2.07-3.96-3.39-5.77-.49-.67-1-1.36-1.36-2.1-.97-2.03-2.18-3.87-3.71-5.54-.91-1-1.23-2.46-2.23-3.45-.13-.13-.09-.56.02-.79.29-.69.29-1.38-.05-2.02-.59-1.1-1.24-2.18-1.86-3.27-.63-1.08-1.52-2.03-1.6-3.37-.12-.11-.23-.23-.35-.34.07.03.18.04.21.1.05.09.05.21.06.31,1.08.51,1.65,1.88,3.12,1.8.3-.02.71.41.94.73.77,1.15,1.48,2.33,2.25,3.57-.19.33-.33.7-.57,1-.36.45-.65.91-.44,1.49.22.59,1.03,1.08,1.66,1.03.66-.05,1.31-.57,1.97-.04.66.54,1.09,1.23,1.12,2.13.29.29.6.58.91.86.78.69,1.59,1.35,1.64,2.5.45.29,1,.51,1.31.9.78.96,1.49,1.99,2.15,3.04,2.57,4.09,5.16,8.16,7.63,12.31,1.34,2.24,2.46,4.62,3.67,6.94.32.62.49,1.28.33,1.99.24.11.57.15.72.34,1.19,1.55,2.01,3.29,2.57,5.15.12.38.04.82.04,1.23.2.13.41.25.59.4.04.04-.04.21-.06.32-.46-.09-.31-.53-.46-.8-.11-.07-.27-.12-.34-.21-1.24-1.91-2.32-4.27-3.01-6.49-1.51-1.26-2.52-2.91-3.41-4.62-1.04-1.98-2.16-3.9-3.45-5.73-.79-1.13-1.5-2.35-2.12-3.59-1.26-2.5-2.75-4.85-4.39-7.11-.56-.79-1.08-1.63-1.5-2.5-.22-.47-.17-1.07-.24-1.61-1.13-.47-1.46-1.44-1.6-2.54-.32-.28-.62-.57-.93-.85-.42.02-.84,0-1.25.06-.5.07-.95.9-.7,1.3,1.49,2.51,2.87,5.1,4.55,7.47,1.13,1.6,2.24,3.2,3.04,4.96,1.3,2.79,2.93,5.36,4.71,7.86,2.83,3.98,5.31,8.17,7.12,12.72.69,1.72,1.94,3.04,2.81,4.63.34.61.77,1.17.66,1.93-.03.13-.1.25-.15.37-.15.28-.38.34-.69.18-1.32-.65-2.1-1.78-2.72-3.06-1.03-2.12-2.04-4.27-3.13-6.36-.77-1.48-1.66-2.9-2.51-4.33-.37-.63-.98-.97-1.64-1.24-1.06-.44-1.93.15-1.93,1.34,0,.55.07,1.11.12,1.66.54,0,.81.32.92.81.35.21.81.34,1.02.64,1.26,1.81,2.47,3.64,3.64,5.49.29.45.4,1.01.56,1.54.03.08-.12.26-.23.32-.1.05-.3.07-.38,0-1.45-1.11-2.5-2.55-3.25-4.19-.56-1.24-1.29-2.45-1.28-3.89-.53-.03-.75-.38-.91-.83-1.08-2.06-2.17-4.12-3.27-6.18-1.1-2.07-2.23-4.13-3.36-6.2-.46-.85-.94-1.7-.89-2.72-1.46-1.01-1.94-2.62-2.54-4.16-.61-.42-.55-1.13-.76-1.72l-.22-.13.17.14h0ZM279.03,169.46c.7.02,1.39-.02,1.79-.75.28-.09.68.03.71-.43,0-.01-.26-.09-.29-.05-.13.17-.24.37-.35.57-.69.02-1.31.17-1.77.74-.11.07-.23.13-.32.21-.05.04-.02.16-.02.23.09-.17.16-.35.24-.53h0ZM283.37,170.51c-.7-.03-1.39-.04-1.72.77-1.59.2-2.73.98-3.37,2.47-.1.06-.21.1-.29.18-.04.04,0,.14-.02.21.08-.15.16-.31.24-.47,1.6-.17,2.76-.95,3.38-2.47.73.1,1.33-.1,1.7-.77.06-.07.11-.14.17-.2-.03.09-.07.19-.09.28h0ZM180.02,130.19c.61-.12.85.21.9.77.74.14,1.21.68,1.61,1.25,3.82,5.52,8.41,10.45,12.36,15.87.41.57.8,1.16,1.29,1.65,4.73,4.61,8.26,10.2,12.49,15.21,2.34,2.78,4.66,5.56,7.19,8.18,1.16,1.2,2.15,2.58,3.22,3.87.44.54.88,1.08,1.34,1.6.32.35,1.3.38,1.52,0,1.6-2.73,4.56-4.03,6.27-6.41,1.18.3,1.7.93,1.99,1.75.08.23.06.6-.07.78-.24.33-.58.6-.92.82-3.43,2.25-11.11,6.2-15.61,8.03-1.94-1.51-3.72-3.31-4.65-4.68-.7-1.04-1.37-2.1-2.15-3.08-1.05-1.32-1.95-2.71-2.61-4.28-.48-1.15-1.21-2.2-1.79-3.31-2.08-3.96-4.83-7.51-7.02-11.4-1.44-2.55-3.36-4.81-4.59-7.5-1.28-2.81-2.9-5.41-4.71-7.9-.49-.67-.86-1.44-1.22-2.19-1.13-2.4-2.22-4.82-3.7-7.04-.2-.31-.16-.8-.23-1.2-.57,0-.75-.35-.82-.84-.1-.13-.2-.26-.29-.38.07.04.19.07.22.13.03.1,0,.21,0,.32h0ZM183.41,128.5c-.04-.11-.05-.24-.11-.34-.04-.05-.15-.06-.23-.08.14.11.29.23.42.34l-.07.08h0ZM150.67,75.63c.5.02.74.35.88.79,1.58.98,2.65,2.46,3.77,3.86,1.55,1.96,2.94,4.05,4.26,6.18.8,1.29,1.38,2.67,2.58,3.74.94.84,1.07,2.19,1.61,3.41-.6.35-1.06.66-1.54.89-.44.21-.98.02-1.03-.36-.16-1.42-.74-2.62-1.6-3.77-.83-1.11-1.44-2.38-2.18-3.56-.58-.95-1.11-1.94-1.82-2.79-1.72-2.06-2.67-4.55-3.92-6.87-.12-.22-.04-.54-.05-.82-.57.05-.81-.28-.89-.78-.12-.11-.23-.22-.35-.33.06.03.17.05.18.1.05.09.07.2.1.3h0ZM261.52,180.56l-.19.08.1-.16c.42-.19.81-.41.82-.95.67-.02,1.43.17,1.65-.8.18-.16.64.21.64-.32-.18.14-.38.27-.57.4-.55.27-1.08.54-1.64.81-.27.32-.55.64-.81.95Z"/>
        <polygon class="cls-1" points="84.85 114.45 84.91 114.68 84.72 114.64 84.85 114.45"/>
      </g>
      <g>
        <path class="cls-1" d="M336.51,238.09c-6.31,4.63-12.64,5.68-20.65,7.18-7.35,1.39-13.23-2.18-20.02-7.99-11.77,6.75-12.83,5.81-29.31,5.83-5.3,0-9.06-.1-14.27-4.76-2.83-2.54-2.58-2.5-5.3.08-6.02,5.7-20.53,7.06-30,6.9-11.85-.21-13.25-8.45-16.86-5.49-8.57,7.04-36.09,7.62-45.43.3-3.39-2.67-9.32,6.39-16.17,6.71-10.44.49-9.45-.54-21.19-3.47-6.02-1.51-9.01-3.16-14.6-6.81-.46.09-.88.03-1.01.23-3.81,5.37-17.53,9.32-25.24,8.77-6.14-.44-18.77-2.26-24.83-7.05-.89-.7-1.82-1.33-2.6-1.89-2.71.65-8.82,8-17.76,10.14-7.22,1.73-8.84,2.28-17.27.57-4.34-.89-12.14-7.09-13.44-8.99-1.54-2.29-.24-4.55,6.82,1.43,12.65,10.72,35.55.19,38.33-8.45,1.22-3.78,5.92,4.29,12.4,6.74,5.23,1.97,16.04,4.71,20.77,3.69,6.71-1.45,17.41-2.91,20.35-9.37,2.08-4.54,4.95,1.51,8.88,3.8,6.61,3.86,13.36,3.74,20.04,5.3,18.67,4.38,24.04-13.71,28.01-6.83,3.34,5.79,12.44,5.67,17.07,6.1,9.25.86,21.67-.8,26.75-7.51,3.14-4.15,5.08,4.28,11.89,7.59,6.27,3.05,24.5-1.15,28.72-3.78,4.67-2.92,7.8-11.33,10.5-6.87,2.33,3.87,3.59,5.76,7.72,8.25,3.75,2.26,17.09,1.02,20.48.43,10.45-1.84,12.59-6.51,16.48-8.82,2.29-1.35,3.82,2.52,3.94,4.27.37,5.39,11.06,8.18,14.44,7.62,7.16-1.17,16.34-2.08,20.28-8.04,3.32-5.02,5.71,3.47,8.91,5.55,9.74,6.34,24.1,4.66,29.72-1.7,7.92-8.94,5.14-5.64,11.6.63,10.02,9.74,34.41,2.4,38.04-5,1.2-2.45,3.59-4.21,5.28.68,1.62,4.67,6.98,5.86,10.62,6.46,7.46,1.23,19.35-2.45,21.17-8.18,2.12-6.63,7.6,1.34,1.42,5.07-9.28,5.58-12.04,8.63-25.31,6.34-12.64-2.18-7.4-9.76-14.08-3.26-3.86,3.75-28.02,8.63-34.2,4.42-10.12-6.89-7.12-9.1-14.87-2.29-3.94,3.47-12.77,4.61-18.7,4.31-9.57-.48-12.18-4.8-17.56-8.81Z"/>
        <path class="cls-1" d="M299.62,247.6c14.54,12.16,26.88,9.94,39.65.71.28-.2.65-.17.97.06,5.1,3.81,9.08,6.75,13.57,8.28.29.1.55.05.75-.14.19-.19.28-.46.22-.76l-.11-.55c-.06-.4-.36-.73-.74-.82-2.6-.69-5.13-1.75-7.43-3.25-3.77-2.45-5.12-9.74-7.84-5.62-4.07,6.14-13.25,7.07-20.67,8.28-3.97.65-15.29-2.54-15.71-8.74-.5-7.15-6.35,0-8.2,1.33-3.04,2.2-6.6,3.51-10.35,4.22-.42.08-.66.5-.56.97l.31,1.35c.05.26.2.48.43.64.21.16.46.21.68.16,4.25-.94,7.96-2.76,14.08-6.27.29-.17.65-.11.95.13h0ZM278.9,251.35c-23.89,2.84-25.52-9.72-28.29-10.76-1.4-.53-5.45,6.06-8.61,8.03-4.67,2.91-20.36,7.13-26.84,3.98-7.29-3.54-8.47-11-10.97-7.7-3,3.96-13.32,7.55-23.49,8.26-.44.03-.72.42-.66.89l.17,1.15c.06.49.5.89.96.9,1.54.02,2.89-.03,3.96-.14,16.3-1.68,17.39-7.78,20.19-6.88,3.21,1.02,5.96,6.83,15.3,6.99,9.24.16,20.26-2.2,26.19-7.81,1.6-1.52,3.03-2.42,3.97-2.26,2.84.48,6.33,8.73,18.31,8.72,4.36,0,7.69-.05,10.51-.27.23-.02.41-.12.54-.31.12-.19.16-.41.11-.66l-.3-1.31c-.06-.25-.19-.46-.39-.62-.2-.16-.43-.23-.66-.19h0ZM359.26,257.76c1.27.09,2.61.08,4.04-.04.24-.02.42-.13.54-.33.13-.2.15-.43.08-.69l-.17-.65c-.12-.46-.55-.8-.98-.77-1.25.06-2.52.05-3.79-.05-.25-.02-.45.06-.61.25-.15.18-.2.42-.15.69l.14.74c.08.46.46.82.9.85h0ZM368.27,256.99c3.47-.72,6.68-1.87,8.55-3.51,8.14-7.17,4.64-3,15.57,1.7,4.01,1.72,8.36,2.26,12.55,2.07.45-.02.74-.43.67-.92l-.1-.62c-.05-.25-.17-.46-.36-.63-.19-.17-.41-.25-.64-.24-6.46.33-12.81-1-16.88-4.94-6.01-5.84-3.79-7.9-10.36-.47-2.19,2.48-5.68,4.28-9.72,5.2-.42.09-.64.53-.52,1l.17.6c.07.25.22.46.43.61.22.15.44.2.66.15h0ZM409.96,256.68c3.95-.7,7.54-1.93,10.25-3.22.34-.16.49-.57.36-.99l-.17-.53c-.09-.27-.26-.49-.51-.63-.25-.13-.51-.15-.73-.04-2.89,1.34-6.29,2.4-9.83,3.02-.4.07-.65.46-.58.91l.1.62c.05.27.18.5.4.67.22.17.46.24.7.2h0ZM424.59,250.82c5.32-3.59,5.19-.23,10.47,1.93.31.13.62.07.83-.15.22-.23.26-.55.14-.89-1.03-2.82-4.02-2.57-5.42-6.64-1.71-4.91-5.18,1.81-7.32,3.79-.23.21-.3.53-.18.87l.14.48c.09.29.3.53.57.65.28.13.55.11.77-.03h0ZM440.57,254.09c.45.06.89.11,1.32.16.24.03.45-.05.6-.21.16-.17.23-.38.2-.64l-.02-.15c-.05-.45-.41-.85-.83-.92-.42-.07-.85-.15-1.28-.24-.25-.05-.47,0-.65.17-.17.16-.25.39-.22.66l.02.24c.05.47.42.88.86.94h0ZM175.77,253.27c-7.39-.22-14.03-2.27-16.85-7.17-1.65-2.85-7.11,2.95-8.61,3.94-9.34,6.2-28.08,4.24-38.98-2.13-2.42-1.41-6.25-7.43-7.82-3.98-1.66,3.64-4.78,6.06-8.67,7.55-.41.16-.58.66-.36,1.13l.15.33c.11.26.31.44.55.55.25.1.49.09.7-.03,3.01-1.77,9.21-7.51,10.57-6.63,10.72,6.99,31.04,14.34,41.39,7.7,2.28-1.46,7.36-6.66,10.67-4.06,3.96,3.11,11.24,4.72,17.54,5.33.24.02.45-.06.6-.23.16-.18.22-.4.18-.66l-.11-.75c-.07-.49-.49-.89-.95-.9h0ZM90.26,252.77c-5.27,1.03-11.3.88-16.86.06-.44-.06-.79.22-.84.67l-.03.36c-.03.25.05.49.2.71.17.22.38.35.62.4,6.05,1.07,12.24,1.19,17.66.05.24-.05.41-.2.5-.43.1-.23.09-.48-.03-.73l-.21-.48c-.2-.43-.63-.69-1.03-.61h0ZM68.37,251.91c-2.54-.58-4.87-1.27-6.86-2.02-6.55-2.48-10.71-9.53-11.5-7.07-.62,1.92-1.98,3.69-3.73,5.26-.28.25-.33.69-.12,1.08l.04.06c.14.25.35.42.6.5.26.08.49.04.68-.11,1.69-1.31,3.16-2.39,4.52-2.84.25-.08.51-.03.75.14,4.17,2.94,9.62,5.36,15.46,6.93.23.06.43.03.62-.09.17-.13.28-.31.31-.55v-.17c.04-.25-.03-.48-.19-.69-.15-.22-.35-.35-.59-.41h0ZM42.5,250.87c-1.31.81-2.66,1.52-3.98,2.13-.38.17-.53.65-.34,1.1l.13.3c.11.25.29.44.53.55.24.11.47.11.68,0,1.5-.74,2.84-1.58,4.07-2.43.33-.23.42-.72.17-1.14l-.05-.09c-.13-.24-.32-.4-.56-.49-.24-.08-.46-.06-.66.06h0ZM34.08,254.69c-.72.22-1.47.43-2.26.61-.42.09-.64.53-.51,1l.06.25c.07.25.22.46.44.61.21.15.44.2.67.15.8-.18,1.61-.37,2.4-.59.22-.06.38-.21.46-.43.09-.23.08-.46-.03-.71l-.13-.29c-.19-.46-.69-.73-1.1-.6Z"/>
        <path class="cls-1" d="M299.5,258.19c13.4,11.15,27.79,9.22,39.66.72.28-.2.65-.17.97.06,2.79,2.11,5.12,4.11,7.61,5.66.24.14.48.17.72.1.23-.08.38-.25.44-.5l.06-.23c.1-.4-.09-.85-.45-1.09-3.48-2.32-7.89-9.92-9.96-6.8-4.06,6.14-13.24,7.07-20.67,8.29-3.97.65-15.29-2.54-15.73-8.74-.49-7.15-6.33-.01-8.19,1.33-3.17,2.3-6.78,3.6-10.95,4.33-27.94,4.91-26.94-8.81-29.88-9.92-1.4-.53-5.45,6.06-8.6,8.03-3.5,2.19-14.69,4.98-22.79,4.92-.45,0-.77.37-.73.85l.07.74c.03.26.13.48.33.67.19.18.42.28.65.28,9.16-.11,21.45-3.3,27.14-8.68,6.44-6.09,4.94,6.69,20.91,6.68,14.98,0,16.69-.09,28.44-6.82.29-.17.64-.11.94.13h0ZM216.95,263.82c-4.36-1.56-11.23-10.48-12.87-8.32-5.71,7.55-38.02,13.76-45.28,1.19-1.64-2.85-7.1,2.95-8.6,3.94-7.39,4.9-20.63,4.7-31.25,1.26-.23-.08-.46-.06-.65.07-.19.13-.3.32-.32.57v.09c-.05.44.24.89.65,1.05,10.17,3.98,21.98,6.02,29.08,1.46,2.28-1.46,7.35-6.65,10.67-4.05,6.25,4.91,20.22,5.22,26.1,4.61,16.3-1.68,18.16-7.99,20.97-7.1,2.68.85,5.15,5.92,11.3,7.69.26.07.5.03.69-.14.2-.16.28-.4.25-.68l-.06-.75c-.05-.4-.32-.76-.69-.89h0ZM114.72,260.29c-2.86-1.26-10.05-8.58-11.33-5.76-4.01,8.83-17.91,11.11-30.06,9.37-.27-.04-.49.05-.66.24-.16.2-.21.45-.15.74l.1.42c.1.44.46.77.88.81,12.69,1.12,26.48-2.35,30.75-8.39,1.12-1.56,6.59,2.05,9.25,3.64.25.15.52.17.76.06.24-.11.38-.33.4-.62l.05-.51h0ZM68.13,262.88c-.5-.13-1.01-.26-1.5-.4-.23-.07-.46-.04-.64.1-.18.13-.29.32-.3.57l-.05.72c-.04.48.3.95.77,1.07.58.15,1.18.28,1.78.4.27.06.51-.02.69-.22.17-.2.23-.46.17-.75l-.17-.7c-.09-.39-.38-.69-.75-.78h0ZM61.71,260.71c-.8-.36-1.59-.75-2.31-1.16-.24-.14-.49-.16-.71-.06-.23.1-.37.29-.42.55l-.15.86c-.07.41.15.86.53,1.07.82.46,1.69.87,2.58,1.25.25.11.49.1.71-.03.21-.13.32-.33.34-.6l.07-.87c.03-.42-.23-.84-.63-1.02h0ZM54.86,256.28c-.78-.66-1.49-1.3-2.11-1.85-.34-.3-.79-.33-1.08-.06-.29.26-.33.72-.09,1.12.6,1,1.33,1.92,2.14,2.77.24.25.54.35.84.29.29-.06.49-.28.55-.59l.12-.72c.06-.35-.07-.71-.36-.96h0ZM352.89,266.94c6.95,1.97,18.25,1.39,22.83-2.65,7.59-6.68,5.58-5.71,13.61.13.24.17.49.22.74.15.24-.07.41-.25.48-.51l.11-.4c.11-.41-.09-.89-.48-1.12-7.07-4.28-5.47-11.08-13.03-2.51-4.58,5.18-14.81,7.41-23.96,4.78-.42-.12-.81.1-.92.51l-.1.4c-.07.25-.02.5.12.74.15.24.35.4.6.48h0ZM394.58,266.93c3.03.51,7.21.34,11.5-.22l-.21-.61c-.15-.44-.56-.73-.97-.71-3.48.23-6.93-.02-10.05-.88-.42-.12-.8.1-.91.51l-.18.66c-.06.26-.02.54.15.79.16.25.39.41.66.46h0ZM409.34,266.22c2.03-.35,4.01-.77,5.85-1.23l-.14-.47c-.07-.26-.23-.47-.46-.61-.23-.14-.46-.18-.69-.11-1.34.4-2.75.73-4.17,1-.23.04-.4.17-.5.38-.1.21-.1.45-.02.69l.12.35h0ZM418.33,264.11c.99-.3,1.9-.62,2.71-.94.33-.13.5-.46.44-.85l-.03-.19c-.05-.31-.22-.58-.48-.75-.28-.17-.56-.19-.81-.06-.56.29-1.13.56-1.73.83-.35.15-.51.55-.39.98l.29.99Z"/>
        <path class="cls-1" d="M298.88,268.38c1.26,1.05,2.54,1.99,3.82,2.81.4.26.88.17,1.09-.2.21-.38.09-.92-.29-1.23-1.03-.84-1.83-2.01-1.97-3.92-.49-7.15-6.35,0-8.19,1.33-7.43,5.38-26.78,6.95-32.09,3.76-12.12-7.29-4.8-14.58-14.23-4.09-1.31,1.46-3.25,2.8-5.58,3.96l.26.63c.11.25.28.44.51.55.24.11.46.12.68.03,2.25-1.01,4.2-2.21,5.68-3.62,6.44-6.09,4.38,5.61,20.35,5.6,14.98,0,17.25.99,28.99-5.74.29-.17.65-.12.94.13h0ZM312.44,275.4c9.13,2.12,18.19-.63,26.1-6.3.28-.2.65-.17.97.06,2.97,2.25,5.43,4.37,8.12,5.95.23.14.46.17.69.09.23-.09.38-.25.45-.49l.06-.26c.12-.4-.08-.87-.46-1.11-3.67-2.32-8.44-10.03-10.44-7.03-4.06,6.15-16.51,9.46-24.67,8.07-.26-.05-.48.03-.65.21-.17.18-.23.42-.18.7l.02.13h0ZM352.8,277.27c7.11,1.81,17.22.61,22-3.67l-.16-.32c-.12-.25-.32-.43-.57-.52-.24-.09-.47-.08-.68.05-5.13,3.18-13.03,4.28-20.32,2.33-.42-.11-.8.1-.9.51l-.12.4c-.06.25-.02.51.13.76.15.25.36.41.61.48h0ZM377.36,271.54c6.85-4.88,5.92,2.23,14.37,5.02.25.08.48.05.68-.09.18-.13.29-.34.3-.6l.03-.9c.02-.42-.25-.83-.65-1-8.28-3.45-7.6-12.45-15.08-4.31-.24.25-.26.63-.08.99l.43.88h0ZM397.06,277.39c.6.02,1.21.02,1.86,0,.23,0,.42-.1.56-.28.13-.18.17-.4.13-.65l-.02-.1c-.08-.46-.46-.82-.88-.86-.58-.06-1.16-.13-1.74-.22-.46-.07-.82.25-.84.72v.32c-.02.27.07.52.26.73.2.21.43.32.68.33h0ZM238.5,272.1c-7.69,2.97-17.8,4.04-23.47,1.29-7.28-3.54-8.47-11-10.97-7.7-5.7,7.54-38.62,13.79-45.89,1.19-2.12-3.69-6.36,5.05-16.39,7.4-.41.1-.63.52-.52.98l.3,1.24c.07.29.24.52.49.66.24.15.5.18.73.09,4.36-1.78,11.65-8.59,14.98-5.97,9.27,7.28,36.85,5.84,44.74-.64,4.29-3.52,6.09,5.38,17.5,5.57,5.45.09,12.34-.69,18.3-2.49.21-.06.37-.21.46-.43.07-.22.06-.45-.03-.69l-.22-.5h0ZM137.02,274.84c-8,.15-22.43-2.35-28.52-7.69-3.31-2.9-4.43-5.3-5.73-2.44-1.11,2.44-3.23,4.19-5.83,5.5-.38.2-.5.71-.27,1.16l.16.32c.12.23.31.4.53.5.23.09.45.09.66,0,2.37-1.19,4.33-2.58,5.47-4.08.12-.15.25-.23.43-.26,3.63-.67,10.81,5.5,15.46,6.66,6.27,1.56,12.44,3.67,18.27,3.56.25,0,.44-.11.58-.3.13-.2.17-.43.11-.69l-.34-1.42c-.11-.46-.53-.81-.97-.8h0ZM92.56,271.95c-1.77.55-3.6.99-5.38,1.38-.23.05-.39.19-.48.4-.1.22-.1.46,0,.71l.19.5c.18.45.64.74,1.06.65,1.86-.39,3.73-.91,5.53-1.53.22-.08.37-.23.45-.47.07-.23.05-.48-.09-.72l-.2-.39c-.22-.43-.68-.66-1.08-.53h0ZM82.39,274.32c-.66.12-1.31.23-1.99.28-.45.03-.74.45-.64.94l.02.09c.09.48.52.85.97.85.7,0,1.45-.05,2.21-.12.25-.02.45-.15.57-.38.11-.23.12-.48,0-.75l-.1-.26c-.18-.45-.63-.73-1.04-.65Z"/>
      </g>
    </g>
  </g>
</svg>