<?xml version="1.0" encoding="UTF-8"?>
<svg id="Layer_2" data-name="Layer 2" xmlns="http://www.w3.org/2000/svg" viewBox="0 0 109.77 52.72">
  <defs>
    <style>
      .cls-1 {
        fill: #753d22;
      }
    </style>
  </defs>
  <g id="Layer_2-2" data-name="Layer 2">
    <g>
      <path class="cls-1" d="M73.4,26.2h0s0,0,0,0c0,.03,0,0,0,0h0Z"/>
      <path class="cls-1" d="M47.27,44.44c8.38.02,16.77,0,25.15,0,.74,0,.85-1.14.12-1.14-8.46,0-16.91,0-25.36.01-4.2.01-8.39,0-12.58.06-4.11.06-8.35-.06-12.44.45-.07,0-.06.1,0,.11,4.19.52,8.52.38,12.73.45,4.13.06,8.25.04,12.37.05Z"/>
      <path class="cls-1" d="M78.68,44.98h-22.27c-3.72,0-7.43.01-11.14.04-3.58.02-7.24-.04-10.79.34-.07,0-.06.12,0,.12,3.66.39,7.43.32,11.11.34,3.64.03,7.28.04,10.92.04h22.08c.56,0,.65-.88.08-.88Z"/>
      <path class="cls-1" d="M75.85,47.31c-2.76.02-5.52.04-8.29.2-.25.01-.23.43.02.45,2.73.15,5.46.17,8.19.2.55,0,.62-.85.08-.84Z"/>
      <path class="cls-1" d="M109.54,43.41c-1.03-.04-2.12,0-3.26.06-.53.03-1.04.07-1.57.12.22-.34.1-.77-.2-1.04-.43-.39-1.01-.35-1.56-.37-.14,0-.28,0-.42,0,0-.11.02-.22-.03-.34-.59-1.56-1.59-3.09-2.69-4.34-1.12-1.28-2.42-2.3-3.7-3.41-.15-.13-.44-.11-.59.03-1.82,1.59-3.61,3.42-4.88,5.51-.12-.14-.22-.28-.35-.42-.48-.64-.98-1.28-1.51-1.88-.05-.05-.1-.11-.15-.17-.25-.35-.5-.71-.77-1.05-.72-.94-1.36-1.88-1.97-2.9-.55-.93-1.43-1.95-1.48-3.08-.02-.68-.84-1.1-1.29-.48-1.42,1.93-2.73,3.94-3.95,6-.24.39-.45.8-.68,1.2-.27-.12-.6-.1-.81.12-.05.04-.08.11-.12.16h-.01s-.02.03-.03.05c-.1.12-.18.23-.28.35.1-1.13-.06-2.28-.3-3.38-.27-1.24-.69-2.46-1.06-3.67-.13-.45-.28-.9-.42-1.34-.1-.76-.23-1.51-.36-2.27.55-2.52.93-5.1,1.35-7.66.52-1.45,1.01-2.91,1.43-4.39.5-1.78.92-3.57,1.23-5.38.16-.97.29-1.93.38-2.9v-.02c.34-1.35.67-2.71.76-4.08,0-.02,0-.02,0-.03.05-.32.08-.63.11-.93.17-.31.24-.6.08-1.02-.01-.02-.04-.04-.04-.05,0-.05,0-.11,0-.16-.02-.32-.4-.31-.56-.1-.01,0-.02-.01-.02-.02-.03.04-.05.1-.08.13-.17.07-.32.19-.38.4h0c-.14.1-.25.26-.28.52,0,.06.03.12.07.17-.04.09-.09.19-.13.28-.31.43-.67.84-.88,1.14-.52.73-1.04,1.46-1.56,2.17-1.07,1.44-2.16,2.85-3.3,4.23-2.08,2.5-4.28,4.95-6.87,6.95-3.91,3.02-8.72,4.55-13.36,3.57,2.62-1.5,5.22-3.04,7.8-4.62,1.02-.62.34-2.09-.8-1.68-3.63,1.35-7.02,3.21-10.41,5.07-.21-.1-.42-.2-.63-.33-.08-.04-.18.05-.11.11.15.14.33.23.48.36-.11.05-.21.12-.31.17-.04.02-.08.04-.12.07-.18-.2-.35-.38-.54-.52-.12-.29-.24-.48-.38-.55-.12-.27-.52-.17-.55.11,0,.04,0,.09-.02.12-.05-.03-.11-.03-.16-.01.24-.53-.41-1.21-.89-.72-.56.56-.74,1.15-.8,1.93,0,.02.02.04.02.07-.23.58-.48,1.14-.71,1.72-.39.2-.78.41-1.17.61-.88.42-1.76.83-2.66,1.22-.99.42-2.07.71-3.03,1.22-.9.49-.32,1.69.52,1.55v.02s.01,0,.01,0c-.39.27-.78.53-1.14.81-.44.36-.09,1.2.48,1.04,1.88-.53,3.58-1.46,5.3-2.37-.07.16-.13.32-.2.48-.93,2.27-1.83,4.58-2.97,6.76-.02.03-.03.05-.05.08-1.75-1.94-3.51-3.89-5.25-5.85-.21-.23-.42-.48-.64-.71.44-.12.96-.17,1.29-.35.5-.27.88-.69,1.16-1.16.81-1.35,1.29-2.85,1.4-4.41.12-1.85.07-3.68-.04-5.53-.07-1.4-.11-2.97-.42-4.41.31-.53.62-1.08.88-1.64.36-.81-.91-1.48-1.38-.73-.2.33-.44.62-.64.95-.13.07-.22.17-.26.3-.01,0-.02,0-.03,0-.09.26-.14.54-.2.81-.36.71-.73,1.43-1.1,2.13-.1.19-.2.38-.3.57-.16-.02-.33.02-.48.21-1.42,1.83-2.38,4.17-3.47,6.21-.33.62-.67,1.26-1.01,1.88-.63-.71-1.27-1.41-1.89-2.12-.53-.59-1.06-1.2-1.59-1.81.12-.31.24-.62.36-.92.18-.47-.05-1.01-.49-1.24-.42-.23-.88-.1-1.2.22.06-.19.11-.37.17-.55.16-.45-.03-.95-.46-1.17-.39-.22-.96-.12-1.22.29-.01.03-.02.05-.04.07-.89-1.04-1.79-2.12-2.79-3.05-.67-.62-1.63.16-1.09.93.88,1.26,1.96,2.42,2.99,3.58-.02.04-.05.09-.08.12-.35.6-.73,1.18-1.01,1.81-.21.45.11.91.53,1.05,0,.29.05.57.29.78.26.25.77.38,1.1.17.26-.16.48-.36.73-.53.15.34.65.48.97.33.18-.09.32-.21.46-.34.39.43.76.87,1.15,1.3.77.86,1.55,1.72,2.32,2.58-.55,1.02-1.1,2.05-1.65,3.08-1.78,3.35-3.41,6.81-4.98,10.27l-.38.71c-.62,1.15-1.44,2.38-1.72,3.65-.02.1.11.15.17.1,1.01-1,1.65-2.46,2.33-3.68.07-.11.12-.22.19-.32-.32,1.03.36,1.89,1.35,2.25.41.16.91-.07,1.06-.49.55-1.5.94-3.06,1.23-4.65.02,0,.03.02.05.03.36.19.83-.03,1.06-.32,1.1-1.42,1.55-3.05,1.79-4.8.12-.87.13-1.75.2-2.63.05-.71.29-1.24.58-1.76.1.12.2.22.3.33.08.11.15.21.25.3.02.02.05.04.07.05.46.53.94,1.05,1.41,1.58-.35.99-.12,2.07-.19,3.09-.08,1.43-1.43,2.25-2.19,3.38-.97,1.46-1.74,3.03-2.64,4.53-.89,1.49-1.9,2.95-2.57,4.54-.15.35.33.54.55.29.68-.81,1.28-1.69,1.86-2.59,1.72,1.73,4.16,2.49,6.6,2.31,3.04-.21,5.74-1.93,7.76-4.12.21-.24.38-.5.58-.75.6.65,1.19,1.29,1.79,1.94-.1,1.11-.16,2.21-.16,3.32H.87v-.11c-.16,0-.32,0-.48,0-.47,0-.55.72-.07.74.76.01,1.53.01,2.29.03.02,0,.02.02.04.02,6.06.53,12.2.39,18.28.39h22.86c.33.23.78.25,1.06,0h23.07c.21.11.44.18.69.15.25-.03.5-.1.74-.15h4.16c-.11.03-.21.07-.3.12-.09.05-.1.19.01.23.19.08.44.08.65.11.21.03.42.06.63.07.46.03.94.04,1.41.05.95.03,1.92-.07,2.86-.14.33-.02.57-.41.5-.72,0,0,0-.01,0-.02,2.43,0,4.86,0,7.29.01.67,0,.78-1.05.1-1.05-2.04.01-4.07.01-6.1.01.18-.1.35-.22.51-.36.33-.3.2-.98-.31-.99-.22,0-.44.03-.66.04-.16-.06-.32-.09-.5-.09-.1,0-.18,0-.27-.01.02-.03.04-.05.07-.09.04-.07.26-.31.08-.11.34-.37.48-.85.18-1.3-.11-.17-.25-.29-.41-.36.4-.65.79-1.29,1.2-1.93.92-1.45,1.87-2.88,2.82-4.31-.02,1.59,1.25,3.38,2.01,4.53.68,1.04,1.34,2.08,1.88,3.2.29.59.45,1.21.62,1.85.07.28.15.58.29.84-1.53.13-3.05.33-4.55.74-.18.05-.19.34.02.34,2.03.1,4.06-.05,6.09-.12.62-.03,1.25-.03,1.87-.05-.1.18-.09.42.15.48.69.16,1.38.26,2.08.3-.5.05-1,.1-1.5.14-1.53.1-3.05.11-4.58.14-1.47.02-2.95.18-4.42.16-.15,0-.21.17-.1.28,1,.87,2.61.93,3.87,1,1.62.1,3.26.08,4.89,0,3.11-.12,6.42-.26,9.33-1.46.15-.06.21-.21.22-.36.14.01.29.03.43.04-.02.04-.06.07-.07.13-.02.25.18.53.45.53.71.03,1.41.11,2.13.16.73.04,1.46.09,2.19.1.64.02,1.3.05,1.92-.12.58-.17,1.15-.52,1.3-1.15.04-.15-.04-.35-.23-.36ZM23.71,36.39c-.21-.16-.38-.36-.51-.59-.1-.17-.31-.16-.43-.03.58-1.01,1.15-2.02,1.72-3.04-.21,1.23-.47,2.44-.79,3.65ZM28.05,26.85c-.44,1.23-.77,2.52-1.36,3.69,0-.04.01-.07.01-.11.04-.37-.16-.66-.44-.82.76-1.35,1.52-2.69,2.27-4.03-.17.43-.34.85-.49,1.28ZM52.21,20.16c3.28,1.08,7.16.56,10.22-.77,5.18-2.26,8.96-6.68,12.49-10.92.19-.22.35-.45.54-.67-.75,1.18-1.5,2.35-2.25,3.51-2.03,3.14-3.98,6.4-6.45,9.22-1.28,1.46-2.74,3.01-4.75,3.34-1.81.3-3.76-.26-5.51-.72-1.52-.4-3.01-.9-4.41-1.62-.38-.2-.75-.43-1.09-.67.41-.23.81-.47,1.22-.69ZM55.07,23.45c2.88.91,6.39,1.93,9.13.13,2.73-1.79,4.75-4.85,6.53-7.53,2.2-3.27,4.35-6.59,6.52-9.88.17-.26.35-.53.52-.79-.07.26-.14.52-.22.77-.66,2.15-1.27,4.32-1.88,6.5-.78,2.75-1.44,5.54-2.27,8.28-.32.26-.67.49-1.06.67,0,.02-.02.05-.02.08-.58.44-.98,1.36-1.16,1.9-.08.22-.14.45-.21.7-.42.46-.9.87-1.51,1.16-.86,1.05-1.69,2.12-2.49,3.2-.44.43-.83.88-1.19,1.36-1.13.92-2.25,1.84-3.37,2.77-.83.7-1.58,1.43-2.16,2.35-.01.02-.03.04-.04.06-.08-.23-.24-.46-.33-.62-.05-.11-.11-.21-.17-.31-.03.04-.07.08-.11.11-1.54-2.79-3.45-5.44-5.3-8-.71-.99-1.47-1.95-2.24-2.9-.42-.63-.83-1.25-1.26-1.88,1.33.85,2.87,1.44,4.27,1.87ZM73.36,26.29s-.04.08-.05.12c-.01.02-.04.04-.05.06,0,.02-.02.04-.03.06t0,.01c-.08.03-.15.08-.22.14-.54.53-1.02,1.04-1.66,1.45-.64.41-1.32.75-1.97,1.15-1.4.86-2.61,1.93-3.78,3.08-1.74,1.73-3.59,3.29-5.46,4.86.53-.9.99-1.86,1.7-2.63.75-.8,1.64-1.47,2.49-2.17.9-.74,1.8-1.48,2.7-2.22.92-.75,1.83-1.51,2.75-2.25.8-.67,1.63-1.32,2.4-2.01.32.3.86.38,1.27.14,0,.02-.03.03-.03.05,0,.02,0,.05-.01.06.04-.05.08-.11.11-.16-.06.04-.08.11-.11.17h0s0,0,0,0c0,.03-.03.04-.04.07ZM68.55,27.37c.62-.76,1.24-1.51,1.85-2.28.17-.21.33-.42.5-.63-.15.6-.32,1.2-.7,1.66-.37.45-.92.76-1.42,1.07-.08.05-.15.12-.23.17ZM47.1,18.34s0,.08.03.11c.08.1.14.19.22.29-.04.35-.09.7-.13,1.05-.37.2-.74.4-1.11.6.31-.7.63-1.39,1-2.04ZM30.68,22s-.03-.08-.05-.12c.51-.9,1.04-1.8,1.55-2.71-.42,1.04-.83,2.09-1.23,3.12-.09-.1-.18-.2-.27-.3ZM31.92,23.39c1.07-2.08,2.05-4.19,2.94-6.36.09-.22.18-.44.26-.66-.11,1.09-.23,2.17-.32,3.25-.06.89,0,1.73.09,2.61.05.57.12,1.17-.24,1.66-.36.51-1.06.52-1.6.77-.38-.43-.76-.86-1.14-1.28ZM41.15,35.89c-1.71,2.18-4.09,4.02-6.86,4.54-2.5.47-5.23-.14-7.11-1.87,1.25-2.04,2.38-4.17,3.86-6.03.89-1.11,1.89-1.7,2.11-3.2.09-.55-.06-1.43.02-2.18.17.19.33.38.5.57,1.83,2.03,3.69,4.03,5.54,6.04-.91,1.45-2,2.78-3.4,3.78-1.18.85-2.62,1.48-4.09,1.43-1.41-.05-2.43-.79-3.29-1.85-.12-.16-.34.01-.28.18.8,2.25,3.74,2.56,5.7,1.92,2.36-.76,4.2-2.58,5.56-4.59.08-.13.16-.26.23-.39.47.52.93,1.03,1.41,1.54.04.04.07.07.11.11,0,0,0,0,0,.01ZM43.96,35.3c-.06.43-.12.86-.18,1.29-.37-.39-.73-.79-1.09-1.19.66-.96,1.24-2,1.76-3.05-.19.98-.34,1.98-.49,2.95ZM42,34.65s-.07-.07-.1-.11c-.48-.54-.97-1.09-1.46-1.62.94-1.71,1.69-3.52,2.48-5.29.45-1.04.92-2.07,1.38-3.12.75-.4,1.5-.81,2.25-1.22-.38,1.4-.85,2.79-1.3,4.16-.82,2.5-1.8,4.98-3.25,7.19ZM48.39,41.82c-.2-.48-.56-.85-.95-1.26-.24-.26-.48-.52-.72-.78,0-.22-.01-.43-.02-.64-.02-.78-.04-1.56-.07-2.34-.04-1.57-.31-3.14-.34-4.71-.01-.28-.28-.39-.48-.35.05-.84.07-1.69,0-2.53.11-.29.23-.57.33-.85.64-1.72,1.25-3.46,1.73-5.22.28,2.12.59,4.22.89,6.34.58,4.12,1.17,8.28,2.12,12.33h-2.49ZM51.49,41.82c-.23-4.47-.87-8.94-1.49-13.36-.3-2.18-.6-4.36-.93-6.54.06-.03.12-.06.18-.09.14,1.06.35,2.14.49,3.13.28,1.95.55,3.89.81,5.84.28,1.95.53,3.89.78,5.84.23,1.71.37,3.48.7,5.17h-.55ZM53.49,41.58v.24h-.37c-.12-1.78-.5-3.59-.76-5.36-.3-1.94-.6-3.87-.9-5.81-.31-1.94-.62-3.88-.93-5.82-.1-.62-.19-1.29-.27-1.95.87,1.33,1.72,2.68,2.58,3.99.36.56.71,1.13,1.07,1.69,1.49,2.42,2.88,4.89,4.42,7.29.04.34.32.55.65.62.12.08.25.09.38.08,0,0,.02.02.03.03-.24.41-.49.81-.79,1.19-1.25,1.56-2.95,2.69-4.58,3.81h-.53ZM60.98,41.57l2.49-1.71c3.66-2.52,7.32-5.03,10.99-7.53.18-.13,0-.44-.17-.31-4.62,3.19-9.24,6.37-13.86,9.55-.66,0-1.32,0-1.98,0,2.24-1.54,4.49-3.08,6.73-4.62,3.05-2.09,6.09-4.19,9.11-6.35.37-.26.04-.89-.35-.63-5.72,3.8-11.38,7.68-17.03,11.6h-1.17c.83-.59,1.64-1.21,2.39-1.9.03-.02.05-.05.07-.07,2.98-1.75,5.56-4.12,8.02-6.51,1.26-1.22,2.53-2.16,4.12-2.9,1.23-.58,2.83-1.34,3.58-2.54.1.08.22.13.35.14.19,1.23.36,2.47.49,3.7.08.71.15,1.42.21,2.13-.2.14-.4.28-.59.41-.05,0-.11.03-.17.07-3.63,2.49-7.26,4.98-10.89,7.47h-2.33ZM74,36.85c-.22.16-.44.31-.66.46-.12.06-.23.12-.36.19-.29.14-.56.31-.83.47-1.08.65-2.27,1.07-3.32,1.77-.52.36-1.07.84-1.35,1.43-.04.08-.05.17-.08.25-.07.05-.14.1-.21.15h-2.41c3.27-2.25,6.54-4.5,9.81-6.75.23-.16.22-.45.09-.62.1-.07.2-.13.29-.2.03.41.07.81.09,1.23h0c-.08.03-.16.08-.18.17-.1.6-.46,1.07-.89,1.46ZM74.84,41.56c.15-.11.29-.23.43-.34.17-.18.36-.36.54-.53.14.21.38.34.64.38-.07.17-.13.33-.19.49h-1.42ZM89.56,42.4s-.09,0-.14,0c.17-.85-.69-1.96-1.04-2.6-.38-.68-.74-1.35-1.13-2.02.03.05.07.09.1.14.73.9,1.49,1.77,2.15,2.73.12.17.21.37.33.56.12.35.26.7.44,1.05.02.03.05.06.08.1-.26.02-.53.03-.78.04ZM94.96,42.14c-.5.02-1.06.07-1.61.15-.26,0-.52,0-.76,0-.2,0-.41,0-.61,0-.02-.29-.12-.58-.26-.87-.17-.47-.4-.87-.67-1.25.7-.82,1.38-1.66,2.11-2.46.73-.8,1.51-1.55,2.32-2.26,0,.09,0,.17,0,.26.03.32.05.63.11.96.12.63.28,1.25.49,1.87.2.59.4,1.18.6,1.78.19.59.35,1.24.62,1.8-.78,0-1.57,0-2.35.03ZM98.71,42.11c.04-.12.08-.25.04-.4-.13-.65-.43-1.3-.65-1.92-.2-.59-.41-1.18-.62-1.78-.21-.59-.45-1.16-.74-1.72-.07-.14-.16-.27-.24-.4.31.35.6.73.88,1.11.03.15.08.29.1.45.03.14.04.28.07.42.05.19.05.31.12.53.09.27.21.52.33.79,0,.02,0,.02,0,.02,0,.01,0,.02.02.05.03.11.07.21.11.31.07.13.14.26.2.39.29.54.58,1.07.93,1.57.13.21.31.42.5.62-.36,0-.71,0-1.07-.02Z"/>
      <path class="cls-1" d="M102.63,46.35c-.33-.03-.66-.07-.98-.12-.61-.09-1.28,0-1.88.05-.62.04-1.21.11-1.82.2-.65.1-1.28.28-1.92.4-.41.07-.42.78.03.76.61-.02,1.21.05,1.81.05h1.89c.62,0,1.28.05,1.88-.05.3-.05.59-.1.9-.12.3-.02.66,0,.94-.17.27-.18.36-.55.07-.76-.27-.2-.59-.21-.91-.24Z"/>
      <path class="cls-1" d="M30.92,45.73c-.57-.01-1.16.07-1.72.02-.56-.04-1.15.02-1.71.09-.57.06-1.14.1-1.72.16-.27.03-.53.03-.79.06-.34.03-.67.1-1.01.12-.21,0-.25.3-.03.34.31.04.61.1.92.15.31.05.62.05.93.07.57.05,1.15.04,1.73.03,1.17-.03,2.34-.29,3.44-.68.17-.06.12-.35-.06-.35Z"/>
      <path class="cls-1" d="M49.73,47.23c-.85-.3-1.92-.33-2.81-.34-1.05-.01-2.09.05-3.13.07-2.01.07-4.04.07-6.01.54-.25.05-.22.39.03.44,2,.39,4.06.3,6.09.29.99-.02,1.99,0,2.98-.05.92-.05,2-.13,2.87-.46.21-.09.18-.41-.02-.48Z"/>
      <path class="cls-1" d="M60.98,47.73c-.34-.04-.71.07-1.06.11.09,0,.17.01.25.02-.33-.08-.64.01-.97.05-.28.03-.57.09-.87.13-.27.03-.54.08-.82.1-.14,0-.28.05-.43.06-.07,0-.15,0-.22.04-.02.01-.04.02-.06.04-.03.06-.05.07-.05.03-.12.05-.12.24-.02.31.02.02.09.1.15.13.09.04.2.05.28.09.18.06.34.1.54.12.41.05.8.07,1.2.05.39,0,.86-.05,1.22-.22.17-.08.34-.15.51-.23.19-.08.38-.16.52-.31.18-.18.11-.5-.17-.53Z"/>
      <path class="cls-1" d="M86.9,48.11c-.7.06-1.39.15-2.07.26-.35.04-.69.12-1.03.21-.36.09-.71.28-1.08.33-.24.04-.23.43.01.43.38,0,.74.13,1.11.17.31.03.64.05.95.05.74.02,1.46-.03,2.19-.05,1.36-.06,2.86-.12,4.08-.77.19-.1.19-.38-.02-.46-1.31-.46-2.79-.29-4.15-.16Z"/>
      <path class="cls-1" d="M82.3,48.13c.08,0,.13.02.23.02.04,0,.09,0,.14,0,.12,0,.25,0,.36,0,.08,0,.14,0,.25,0s.21,0,.31,0c.08,0,.16,0,.24-.01.08,0,0,0,.08,0,.14,0,.27,0,.4-.01.38-.03.43-.64.07-.74-.48-.13-.97-.13-1.46-.05-.11.02-.21.05-.32.08-.05.01-.1.02-.14.04-.09.03-.16.07-.25.11-.19.09-.38.16-.56.25-.21.11-.11.41.11.38.18-.03.38-.06.55-.06Z"/>
      <path class="cls-1" d="M84.3,51.86c-.22-.04-.43-.06-.65-.07-.08,0-.2,0-.27,0-.1-.03-.18-.07-.3-.08-.43-.03-.89-.04-1.32,0-.82.08-1.64.12-2.43.4-.14.05-.12.28.02.32.8.29,1.65.31,2.5.3.42,0,.86-.08,1.27-.16.13-.02.22-.06.33-.11.1-.03.22-.05.32-.07.21-.04.4-.1.59-.18.18-.07.1-.31-.06-.34Z"/>
    </g>
  </g>
</svg>