<?xml version="1.0" encoding="UTF-8"?>
<svg id="Layer_2" data-name="Layer 2" xmlns="http://www.w3.org/2000/svg" viewBox="0 0 108.98 38.88">
  <defs>
    <style>
      .cls-1 {
        fill: #5c2f1c;
        fill-rule: evenodd;
      }
    </style>
  </defs>
  <g id="_Layer_" data-name="&amp;lt;Layer&amp;gt;">
    <g>
      <path class="cls-1" d="M33.48,20.22c-.18-.13-.34-.1-.49-.06.17.17.27.19.37.18l.12-.13ZM25.38,22.02c.27.49.55.55.84.58.34.05.69.03,1.01-.22.08-.29,0-.4-.14-.4-.52,0-1.03.02-1.71.04h0ZM29.71,23.35c.06.29.21.45.45.48.16.02.36.03.49-.06.51-.34.99-.7,1.49-1.07.12-.09.14-.21.05-.34-.91-.05-1.61.25-2.28.67-.09.06-.14.21-.21.31h0ZM32.43,24.46c.08.14.12.29.21.33.64.32,1.31.4,1.98-.08.7-.51,1.4-1.02,2.1-1.54.1-.08.1-.24,0-.33-.27-.25-.6-.34-.96-.23-1.2.35-2.26,1.08-3.31,1.85h0ZM36.01,14.55c.14.12.19.18.23.18.99.02,1.96-.21,2.93-.46.21-.21.3-.37.28-.45-.22-.72-.36-.93-1.05-1.73-1.04.42-1.77,1.27-2.38,2.46h0ZM40.38,25.32c-.88.42-1.6.74-2.3,1.11-.6.31-1.13.32-1.65-.07-.14-.1-.25-.23-.39-.36.61-.68.76-.82,1.97-1.36.72-.31,1.46-.55,2.34-.86.15-.02.4.12.66.28.23.14.29.46.1.63-.29.26-.57.51-.72.63h0ZM7.88,23.9c.12,0,.23.02.35-.02,2.12-.56,4.24-1.11,6.39-1.48.98-.17,1.96-.48,2.93-.73.12-.02.23-.08.32-.17.08-.07.16-.21.17-.33.02-.15-.08-.21-.21-.24-.35-.04-.7.06-1.03.2-1.3.61-2.64.61-3.98.72-.8-.21-1.62.13-2.43.11-.16,0-.36.07-.51.17-.66.45-1.32.92-1.97,1.42-.06.03-.02.22-.04.33h0ZM7.82,17.06c-.1.11-.15.26-.07.35.53.57,1.07,1.08,1.82,1.3.71.21,1.4.52,1.97,1.07.37.35.82.39,1.29.33.7-.1,1.38-.33,2.03-.67.07-.03.12-.18.14-.29-.29-.27-.49-.4-.71-.45-2.12-.68-4.26-1.31-6.47-1.63h0ZM68.74,9.04c-.48-.21-.82-.22-1.16-.05-.54.29-1.05.64-1.51,1.08-.11.1-.16.44-.06.54.33.33.7.61.84,1.15.1.36.39.43.69.44.86.03,1.72.06,2.58.08.28-.41.29-.61.22-.78-.4-.93-1-1.7-1.61-2.46h0ZM43.24,8.65c-.14,0-.27-.06-.37,0-.69.42-1.37.84-2.05,1.28-.21.13-.39.33-.58.49-.15.14-.27.54-.21.75.25,1.04.73,1.89,1.39,2.55.25.02.42.09.59.06,1.16-.13,2.32-.28,3.48-.44.39-.12.53-.53.39-.71-.67-.79-1.25-1.66-1.78-2.58-.28-.48-.58-.93-.86-1.4h0ZM76.45,4.79c-.74.17-1.43.29-2.12.47-.14.03-.24.25-.35.37.05.4.23.64.38.92.71,1.24,1.41,2.48,2.11,3.73.21.38.45.75.63,1.15.2.45.35.94.52,1.38.58.21,1.16.14,1.73.18.11,0,.23-.02.34-.07.1-.05.17-.15.26-.24.02-.56-.18-1.02-.42-1.46-.7-1.26-1.32-2.55-1.86-3.92-.35-.88-.78-1.71-1.22-2.52h0ZM72.51,6.42c1.21,1.85,2.43,3.7,3.64,5.55.07.1.14.22.16.33.02.12,0,.26-.04.38-.89.19-1.62.02-2.37-.03-.35-.04-.68-.11-1.03-.13-.62-.02-.94-.38-.98-1.08-.01-.2-.03-.4-.04-.48-.22-.3-.33-.54-.5-.7-.67-.63-1.02-1.53-1.42-2.38-.11-.22.02-.53.26-.65.59-.31,1.19-.62,1.8-.89.14-.06.33.04.51.06h0ZM3.27,30.32c.45-.11.89-.21,1.34-.33.17-.05.37-.1.49-.24.48-.49,1.04-.54,1.62-.66.33-.06.66-.29.99-.46,1.18-.65,2.26-1.56,3.5-2.08.9-.68,1.89-1.2,2.64-2.12-.75-.21-1.39-.16-2.01-.02-.64.14-1.26.37-1.89.56-.57.17-1.13.37-1.67.68-.37.21-.77.37-1.16.54-.2-.43-.24-.8-.29-1.18-.51.1-.51.11-.66.29-1.18,1.41-2.01,3.09-3,4.66-.04.06.06.22.1.37h0ZM45.67,26.19c-.09-.33-.3-.46-.51-.53-.91-.29-1.82-.32-2.73.22-.69.41-1.39.82-2.07,1.23-.26.16-.52.33-.74.47-.05.37,0,.6.22.75.24.17.47.37.74.48,1.03.4,1.97.98,2.94,1.53.49.29.98.31,1.51.16.17-.05.35-.1.51-.17,1.4-.58,2.79-1.19,4.19-1.78.17-.07.33-.16.47-.29.1-.06.15-.21.2-.32.05-.14-.16-.38-.32-.39-.34-.02-.69-.08-1.04-.06-1.51.1-3.02.23-4.51.76-.4.15-.8.27-1.2.38-.22.06-.46.08-.69.11-.32.04-.56-.31-.55-.8.29-.52.57-.76.94-.86.75-.21,1.49-.42,2.24-.65.14-.04.28-.17.41-.27h0ZM30,18.03c-1.16.41-2.2.63-3.25.68-1.28.06-2.55.2-3.84.34-.64.06-1.28.06-1.92.05-.46-.02-.92-.06-1.39-.03-.4.02-.8.11-1.17.17-.52-.21-.43-.96-.93-1.25-.86,0-1.72-.34-2.58-.68-1.29-.51-2.61-.89-3.95-1.25-1.88-.27-3.51-.93-5.22-1.07-.44-.36-.81-.74-1.09-1.29.14-.12.29-.32.41-.32,2.04-.02,4.03.29,5.96.88.78.24,1.55.48,2.31.73.38.12.77.25,1.12.45.57.3,1.1.67,1.75.7.11,0,.23.05.32.13.74.57,1.62.57,2.48.6.7.03,1.38.09,2.05.26.5.14,1.03.14,1.54.21.4.05.81.06,1.19.18.83.28,1.69.31,2.57.31,1.04,0,2.08.04,3.12.08.16,0,.32.1.48.17.08-.09.17-.25.26-.26,1.05-.15,2.08-.45,3.12-.69.97-.24.97-.21,2.05.08.31-.02.54-.25.78-.46.25-.21.54-.33.83-.33.95.02,1.86-.26,2.79-.48.81-.18,1.62-.38,2.43-.56,1.03-.23,2.09-.36,3.14-.4,1.51-.06,3.03-.41,4.54-.29,1.05-.17,2.09-.17,3.14-.44.8-.21,1.62-.29,2.44-.31.76,0,1.52-.13,2.28-.23.88-.12,1.75-.08,2.59.14.32.09.62.29.98.45.23-.13.51-.27.84-.45.23,0,.52,0,.81-.02.99,0,1.97.02,2.96,0,.98,0,1.97-.02,2.96-.02,1.04,0,2.09-.02,3.1.3,1.89.17,3.63.32,5.36.45.18,0,.35,0,.53,0,2.16.04,2.89.15,5.12.76.89.25,1.81.38,2.69.64.83.24,1.66.5,2.47.81.37.14.78.22,1.18.27,1.09.15,2.14.45,3.18.8.55.19,1.11.33,1.66.52.27.09.53.21.79.36.3.17.63.28.97.36,1.07.25,2.11.6,3.08,1.15.41.23.82.44,1.27.55.5.56,1.12.84,1.81,1.01,1.34.85,2.67,1.7,4,2.55.09.06.14.19.21.29.09.12.06.46-.05.57-.22.22-.44.49-.7.64-.86.48-1.7,1.02-2.64,1.26-.29.07-.56.21-.84.31-1.13.45-2.25.91-3.38,1.36-.68.28-1.35.46-2.07.34-.33-.05-.7.06-1.04.13-.69.14-1.38.27-2.08.3-1.04.05-2.09.17-3.14.35-1.8.29-3.61.6-5.42.53-.18,0-.34-.02-.58-.04-.25-.38-.52-.79-.78-1.19-.59-.25-1.17-.49-1.75-.73-.43-.18-.86-.34-1.28-.54-.31-.15-.6-.37-.89-.56-.16-.12-.18-.58-.04-.72,1.37-1,2.48-2.08,3.59-3.14.88-.84,1.71-1.74,2.54-2.65.21-.23.34-.57.46-.88.1-.25.04-.53-.12-.73-.16-.21-.38-.29-.62-.24-.43.08-.78.36-1.08.72-.47.54-.88,1.14-1.35,1.68-.25.29-.55.52-.82.77-1.33-.16-2.59.28-3.84.66-1.21.37-2.43.57-3.65.8-.93.17-1.85,0-2.79-.02-.64-.02-1.27-.03-1.91-.05-1.23-.05-2.43-.19-3.6-.54-.21-.07-.44-.14-.67-.18-1.19-.22-2.37-.43-3.53-.8-1.1-.35-2.23-.61-3.35-.86-.67-.15-1.36-.29-2.05-.36-2.42-.24-4.8-.72-7.18-1.16-1.19-.21-2.42-.27-3.63-.35-2.09-.14-4.17-.25-6.25-.4-1.33-.09-2.66-.21-3.98-.35-1.73-.18-3.47-.24-5.21-.31-.24-.02-.45-.07-.63-.25h0ZM36.21,20.53c-.08.11-.15.13-.21.06.3-.1.39-.25.47-.27.29-.03.58-.06.86,0,1.6.29,3.22.36,4.85.41,2.49.08,4.97.24,7.45.47.17.02.34.06.51.1.8.14,1.59.31,2.39.43,1.03.16,2.07.25,3.06.57,1.63.07,2.99.6,4.4.89,1.24.25,2.46.64,3.69.94,1.46.36,2.92.71,4.43.81.29.02.56.09.85.13.52.07,1.03.17,1.54.2.81.03,1.63-.03,2.44.02.93.07,1.86,0,2.79-.12.53-.07,1.04-.17,1.56-.33.56-.19,1.15-.26,1.73-.37-.38.73-.93.97-1.5,1.19-.22.09-.43.22-.64.35-.32.21-.53.89-.4,1.26.09.25.25.43.45.56,1.06.61,2.12,1.23,3.19,1.83.3.18.62.33.8.68-.07.09-.12.21-.21.25-.1.06-.23.07-.34.06-.35-.02-.69-.1-1.03-.1-1.16,0-2.35.15-3.49,0-1.1-.14-2.2-.14-3.3-.19-.46-.02-.92-.07-1.38-.14-1.77-.26-3.53-.55-5.32-.75-.46-.06-.95-.09-1.35-.28-1.01-.5-2.13-.49-3.19-.8-.66-.17-1.36-.27-2.05-.32-2.09-.16-4.08-.8-6.09-1.31-.22-.06-.43-.17-.64-.27-.21-.09-.4-.28-.62-.31-1.37-.25-2.59-.95-3.93-1.32-1.11-.32-2.2-.72-3.2-1.35-.34-.21-.72-.38-1.1-.53-.8-.33-1.62-.6-2.53-.41-.45.09-.92.02-1.41.02-.51-.82-1.25-1.24-2.12-1.46-.51-.12-1.02-.24-1.42-.61h0ZM63.93,11.89c.13.08.26.18.4.21.14.05.21-.05.19-.17-.15-.19-.26-.24-.35-.22-.09.02-.16.14-.23.22-.13.12-.06.08,0-.05h0ZM30.94,20.12c-.1-.06-.19-.13-.29-.18-.16-.08-.23-.02-.18.14.25.06.35,0,.46-.03.15-.14.08-.1.02.07h0ZM46.79,31.73c-.03.14-.1.28-.07.38.02.12.11.23.2.3,1.29,1.09,1.39,1.11,2.85.49.9-.37,1.79-.76,2.67-1.19.88-.45,1.78-.79,2.68-1.15.22-.08.47-.06.69-.03.24.02.41.21.48.49.09.31-.05.74-.29.89-.26.17-.53.33-.81.43-1.54.53-3,1.33-4.51,1.98-.16.06-.33.35-.3.48.04.11.08.23.15.33.08.09.18.17.26.24.19.15.39.27.58.41.52.37,1.07.41,1.66.09.49-.25.98-.51,1.46-.8,1.38-.82,2.77-1.66,4.15-2.5.26-.15.53-.31.81-.42.79-.33,1.58-.64,2.36-.92.29-.11.58-.05.81.18.38.38.32,1.11-.13,1.35-.6.32-1.19.68-1.81.88-1.27.42-2.4,1.22-3.57,1.9-.31.18-.56.53-.86.81-.3.13-.64.25-.98.4-.72.31-1.48.56-2.02,1.3-1,.78-2.07,1-3.19.71-.19-.06-.35-.33-.32-.62.02-.27.1-.53.11-.8,0-.28-.08-.54-.28-.68-.48-.33-.99-.63-1.55-.98-.22-.06-.5.07-.78.17-.62.21-1.25.43-1.87.62-.21.06-.46-.13-.53-.38-.08-.25-.02-.64.14-.74.36-.25.72-.48,1.09-.72.13-.08.17-.43.06-.54-.08-.08-.15-.19-.24-.25-1.19-.76-2.35-1.57-3.64-2.11-.21-.09-.46-.15-.61-.33-.46-.53-1.07-.7-1.64-.98-.88-.44-1.73-.95-2.58-1.47-.86-.53-1.74-.96-2.68-1.25-.77-.25-1.54-.45-2.2-1.01-.26-.21-.63-.29-.96-.38-.39-.1-.8-.14-1.22-.21-.27.12-.54.25-.83.36-.37.13-.7.03-.94-.29-.18-.23-.33-.52-.45-.73-.67-.41-1.4-.35-2.09-.59-.36-.22-.55-.77-1.1-.76-.28.02-.56-.1-.83-.22-.76-.31-1.55-.45-2.36-.48-.87-.03-1.74-.1-2.61-.15-.33.18-.67.33-.98.53-.98.67-2,1.29-2.91,2.08-.93.79-1.95,1.38-2.94,2-.79.49-1.58,1-2.37,1.49-1.15.72-2.3,1.5-3.55,1.97-.51.18-.98.51-1.48.7-.51.2-1.03.3-1.55.45-.52.15-1.03.32-1.54.48-.47.15-.93.13-1.39.06-.16-.02-.29-.17-.36-.37-.1-.33-.1-.66.05-.98.4-.85.84-1.68,1.38-2.43.63-.85,1.22-1.73,1.66-2.71.23-.49.55-.92.91-1.29.9-.93,1.73-1.94,2.69-2.79.48-.42.92-.9,1.33-1.32.14-.34.05-.58-.1-.78-.28-.41-.6-.79-1-1.04-.74-.48-1.38-1.13-2.03-1.75-.53-.49-1.03-.99-1.29-1.76-.08-.23-.24-.45-.4-.62-.49-.53-1.01-1.03-1.51-1.53-.43,0-.83,0-1.27,0-.1-.25-.21-.48-.25-.73-.05-.26.04-.53.25-.72.45-.37.94-.63,1.48-.64,2.1-.07,4.19-.14,6.24.34.67.16,1.37.2,2.05.31,2.06.35,4.02,1.06,5.92,1.93.9.41,1.84.65,2.82.8,2.22.35,4.47.55,6.69.97.4.08.8.14,1.21.13,1.51-.06,3.03-.09,4.54-.24.92-.09,1.85-.37,2.75-.68.09-.23.17-.41.22-.6.06-.19.1-.39.18-.68.9-1.19,1.85-2.44,2.85-3.73.1-.34.06-.72-.05-1.11-.1-.31-.18-.62-.21-.96-.02-.17.06-.4.15-.57.2-.44.81-.55,1.03-.18.22.37.4.78.59,1.18.08.16.08.17.61.37,1.03-.49,1.92-1.31,2.79-2.01.21-.57.03-1.02.04-1.48,0-.27.03-.53.07-.8.05-.42.65-.79.98-.61.1.05.2.15.23.26.11.37.19.76.29,1.13.09.31.41.48.71.33.49-.25.98-.53,1.47-.76.21-.1.45-.15.68-.18.27-.05.54.23.59.57.04.25-.08.6-.26.71-.42.26-.85.5-1.28.74-.27.14-.54.29-.81.44-.17.1-.29.5-.25.72.13.66.41,1.23.74,1.75.64.98,1.35,1.91,2.04,2.84.15.21.34.33.52.5.7.15,1.39.07,2.08-.1.14-.03.25-.34.16-.5-.12-.22-.22-.46-.36-.65-.61-.81-.92-1.78-1.06-2.86-.12-.92-.3-1.81-.56-2.69-.2-.68-.33-1.4-.56-2.07-.21-.61-.53-1.15-.78-1.74-.18-.41-.34-.83-.49-1.26-.08-.25-.04-.52.07-.78.05-.15.31-.33.43-.31.47.1.87.33,1.1.82.22.45.43.92.57,1.42.43,1.57.84,3.14,1.25,4.73.1.37.16.76.25,1.15.29,1.22.64,2.4,1.46,3.29.06.44.12.88.19,1.36,1.08-.13,2.12-.21,3.18-.36,1.81-.23,3.61-.34,5.41-.33.49,0,.93-.13,1.29-.58.21-.25.44-.48.66-.72.29-.3.44-.64.33-1.08-.07-1.01.47-1.43,1.12-1.1.25.13.49.3.68.42.2-.05.33-.04.42-.1.66-.49,1.31-.99,1.98-1.5-.03-.21-.02-.42-.1-.57-.11-.23-.3-.39-.41-.61-.29-.54,0-1.19.61-1.4.1-.03.22,0,.36,0,.23.33.47.71.72,1.05.27.37.69.43,1.11.16.57-.37,1.13-.78,1.64-1.11.16-.38.08-.61-.04-.84-.24-.44-.5-.86-.73-1.31-.18-.33.09-.84.45-.92.51-.11.92.1,1.23.49.26.33.45.75.69,1.1.18.27.46.42.76.33.51-.17,1.01-.39,1.51-.6.17-.07.23-.38.1-.49-.27-.23-.55-.44-.81-.68-.26-.25-.33-.72-.17-1.11.16-.41.43-.65.82-.68.18,0,.34.05.49.06.76.55,1.23,1.37,1.77,2.17.13.06.29.14.45.19.53.19.8.55.78,1.11-.01.33-.07.66-.1.88.48,1.08.9,2.07,1.34,3.06.13.29.25.6.42.85.34.53.59,1.11.8,1.71.08.25.2.48.32.69.21.39.44.76.62,1.16.16.34.25.72.36,1.04.13.1.21.22.31.24,1.75.39,3.46.92,5.23,1.22,1.56.63,3.07.74,4.49,1.23.38.14.78.22,1.17.3,1.02.21,1.95.74,2.97.93.27.05.51.26.77.41.46.25.91.54,1.45.54.84.38,1.75.6,2.57,1.04,1.03.55,2.05,1.11,3.1,1.62,1.3.64,2.55,1.41,3.79,2.19.79.5,1.2,1.33,1.17,2.38-.43.78-.96,1.32-1.63,1.69-.38.22-.72.5-1.09.73-.21.13-.43.29-.65.3-.61.06-1.13.39-1.68.65-.49.25-1,.45-1.51.62-.46.14-.91.3-1.34.55-.71.39-1.48.48-2.24.61-2.67.46-5.34.92-8.01,1.3-1.4.2-2.79.43-4.2.4-.86-.02-1.74.26-2.61.13-1.34.19-2.68.09-4.02.09-2.27.02-4.53,0-6.77-.23-1.55-.16-3.11-.31-4.65-.53-.17-.02-.35-.02-.53-.02-1.23,0-2.39-.26-3.57-.62-1.48-.45-3.01-.78-4.58-.88-1.04-.06-2.08-.14-3.03-.66-.35-.19-.77-.25-1.17-.29-1.15-.14-2.28-.33-3.38-.71-.23-.08-.39.08-.45.44-.02.52-.2.72-.43.81-.56.21-1.15.36-1.7.61-1,.47-1.97,1-2.94,1.49Z"/>
      <path class="cls-1" d="M90.85,21.24c.52.34.85.59.97,1.07.16.65.23,1.23-.41,1.79-.19.17-.35.38-.52.57-.41.45-.88.71-1.43.74-.46,0-.93.02-1.39,0-.48-.03-.83-.43-.9-.99-.08-.62.04-1.19.39-1.72.33-.51.75-.91,1.19-1.26.45-.36.98-.51,1.51-.44.27.03.53.2.6.23Z"/>
    </g>
  </g>
</svg>