<?xml version="1.0" encoding="UTF-8"?>
<svg id="Layer_2" data-name="Layer 2" xmlns="http://www.w3.org/2000/svg" viewBox="0 0 27.6 33.5">
  <defs>
    <style>
      .cls-1 {
        fill: #753d22;
        fill-rule: evenodd;
      }
    </style>
  </defs>
  <g id="Layer_2-2" data-name="Layer 2">
    <path class="cls-1" d="M19.33,9.48c.2.43.42.8.74,1.09.04.04.2.03.23,0,.4-.57.85-1.09,1.33-1.59.03-.03.07-.06.07-.11.03-.12.1-.27.07-.38-.09-.29-.21-.56-.33-.84-.04-.09-.26-.11-.35-.04-.69.52-1.29,1.13-1.76,1.86h0ZM14.77,25.21c.1.05.25.08.33.16.6.64,1.18,1.29,1.65,2.03.26.41.52.81.74,1.23.03.07-.08.23-.15.33-.04.05-.18.05-.24.03-.12-.05-.24-.11-.33-.21-.2-.23-.4-.47-.57-.72-.46-.64-.93-1.27-1.47-1.84-.14-.16-.25-.36-.32-.56-.03-.1.04-.25.11-.36.03-.05.14-.06.24-.1h0ZM4.47,12.08s.01-.12.02-.25c.03-.39.23-.62.61-.73.69-.21,1.05-.05,1.33.6.17.39.14.75-.14,1.09-.1.13-.21.29-.34.38-.14.08-.32.12-.49.12-.17,0-.33-.1-.48-.16-.33-.1-.55-.3-.54-.78,0-.04.01-.09.02-.26h0ZM21.55,16.37c-.06.38-.16.82-.42,1.17-.21.27-.53.44-.9.47-.15,0-.41-.29-.39-.46,0-.09.01-.17.04-.26.12-.55.25-1.11.36-1.66.07-.35.22-.67.44-.94.08-.09.22-.14.34-.15.14-.01.25.1.28.23.1.51.17,1.03.26,1.6h0ZM13.67,31.33c-.13.05-.24.12-.36.14-.07,0-.16-.04-.24-.09-.07-.04-.15-.1-.2-.16-.98-1.19-1.88-2.42-2.62-3.77-.04-.07-.07-.18-.05-.25.04-.11.12-.22.21-.31.05-.04.18-.02.24.01.11.07.21.17.28.27.56.84,1.11,1.68,1.68,2.51.3.43.65.82.96,1.25.07.09.06.24.1.39h0ZM8.35,19.76c-.19.06-.2.2-.14.3.44.79,1.1,1.42,1.72,2.07.03.02.11.04.12.02.04-.07.1-.16.08-.21-.48-.83-1.18-1.46-1.77-2.18h0ZM7.78,21.12c.71.6,1.28,1.3,1.76,2.08.06.1.08.25.1.37.03.17-.11.4-.23.42-.15.02-.24-.06-.32-.16-.12-.13-.22-.27-.32-.42-.1-.14-.19-.3-.26-.46-.26-.55-.51-1.11-.76-1.67-.01-.02.02-.07.04-.16h0ZM8.78,17.36c.04-.81.08-1.55.12-2.29.05-.88-.05-1.75-.24-2.61-.03-.15-.3-.22-.44-.12-.3.21-.5.5-.55.86-.02.21-.02.44,0,.65.1,1.05,0,2.11-.06,3.16-.06.93-.33,1.8-.73,2.65-.13.29-.3.53-.59.67-.43.22-.58.63-.72,1.04-.02.06.13.2.23.28.05.04.17.03.25.02.21-.05.43-.17.62-.14.28.05.36.36.48.58.23.43.44.87.66,1.29.38.76.93,1.38,1.55,1.94.03.03.07.05.11.05.08,0,.18,0,.24-.03.27-.16.44-.43.52-.74.16-.68.47-1.32.74-1.96.17-.41.29-.83.4-1.25.07-.26.02-.54-.13-.76-.25-.37-.51-.72-.79-1.04-.37-.44-.74-.88-.91-1.44-.12-.38-.38-.57-.76-.82h0ZM5.76,24.64c.35,0,.7.02,1.05.01.07,0,.2-.09.2-.14,0-.12-.03-.27-.1-.36-.12-.11-.29-.2-.45-.26-.24-.11-.52-.14-.74-.28-.38-.25-.75-.12-1.13-.03-1.05-.82-1.82-1.89-2.55-2.98-.12-.18-.22-.39-.29-.59-.44-1.3-.77-2.61-.69-3.99.02-.36.06-.71.3-.99.03-.05.19-.06.22-.03.94,1.04,2.04,1.92,2.92,3.02.18.22.86.62,1.21.71.03,0,.1-.01.12-.05.05-.06.11-.15.1-.22-.02-.13-.06-.25-.14-.36-.37-.54-.78-1.05-1.27-1.5-.64-.6-1.2-1.28-1.8-1.92-.27-.29-.54-.57-.8-.87-.14-.17-.16-.48,0-.61.67-.54.97-1.35,1.41-2.04.41-.65.91-1.19,1.51-1.63,1.17-.86,2.44-1.55,3.88-1.85.08-.02.18-.07.25-.04.12.04.26.11.31.2.13.27.24.57.32.86.25.85.38,1.71.48,2.58.11.96.25,1.91.37,2.87.06.45,0,.86-.3,1.24-.16.2.1.57.36.54.17-.02.35-.04.51-.1.49-.18.97-.39,1.51-.62.16-.4.28-.86.29-1.35.03-1.1-.04-2.19-.11-3.28-.08-1.28-.27-2.53-.68-3.74-.07-.22,0-.45.21-.57,1.33-.75,2.22-1.97,3.17-3.11.51-.61,1.01-1.22,1.65-1.69.17-.13.38-.22.58-.29.12-.04.27-.04.35.09.09.11.09.24,0,.35-.29.33-.58.65-.87.98-.68.74-1.37,1.48-2.04,2.23-.2.22-.35.49-.51.76-.03.05.02.16.06.23.06.11.26.15.34.06.12-.12.25-.23.37-.36.75-.81,1.49-1.62,2.23-2.42.14-.16.3-.32.47-.46.63-.57.81-.53,1.27.28-.08.13-.15.29-.26.42-.9.96-1.8,1.92-2.71,2.88-.54.56-1.2.67-1.92.47-.12-.04-.25-.08-.38-.11-.17-.04-.42.26-.37.45.03.12.07.25.12.37.13.28.28.54.39.83.24.62.38,1.25.26,1.93-.09.56-.17,1.13-.21,1.7-.1,1.18-.15,2.36-.07,3.54.03.39.07.79.11,1.18.03.29.23.4.56.4.41,0,.76-.21,1.13-.31.2-.16.17-.38.18-.6,0-.13.04-.27.09-.38.5-.92.58-1.92.61-2.93.04-1.5-.11-2.98-.45-4.43-.05-.21-.08-.43-.1-.65-.03-.22.01-.45.17-.61,1.02-1.03,2.05-2.05,3.07-3.07.1-.1.27-.09.36,0,.12.13.23.3.17.47-.05.15-.17.3-.29.43-.64.67-1.28,1.32-1.92,1.99-.19.19-.36.38-.41.66-.01.07.04.17.1.22.06.05.17.1.23.08.12-.04.25-.1.34-.19.4-.41.77-.84,1.17-1.24.3-.32.63-.62.94-.92.12-.11.38-.04.43.13.1.25.17.49.25.72,0,.27-.18.43-.33.57-.56.56-1.09,1.14-1.56,1.77-.05.07-.14.09-.23.15-.1-.06-.22-.12-.32-.2-.16-.11-.36-.14-.48-.01-.1.12-.13.33-.11.48.03.26.17.5.21.76.1.69.19,1.39.07,2.09-.14.86-.24,1.74-.34,2.6-.11.87-.31,1.73-.62,2.56-.05.16-.08.34.03.5.2.3.83.41,1.05.16.17-.2.35-.4.46-.64.31-.62.61-1.27.88-1.91.24-.56.46-1.13.67-1.71.24-.63.31-1.28.14-1.94-.02-.08.01-.17.01-.26.19-.17.4-.33.57-.52.15-.16.25-.36.41-.52.15-.15.33-.29.51-.39.05-.04.2,0,.24.04.24.28.28.73.07.96-.26.29-.54.57-.8.86-.17.2-.35.41-.36.69,0,.08.05.16.1.22.06.05.17.1.23.07.12-.04.24-.12.33-.2.23-.21.44-.43.66-.63.08-.07.3-.02.33.09.11.38.23.75.31,1.13.03.16,0,.36-.06.52-.14.37-.3.73-.48,1.08-.14.27-.32.53-.48.79-.26.44-.19.83.11,1.22.28.37.48.45.9.34.34-.09.67-.19,1.01-.26.05-.01.17.07.2.13.06.16.08.33.13.5.04.12.22.2.32.15.24-.12.47-.25.71-.35.15-.07.32-.11.48-.15.29.44.21.88.13,1.31-.02.1-.18.2-.31.17-.47-.1-.93-.26-1.42-.14-.27.07-.44.31-.37.59.02.09.05.17.08.25.04.12.09.24.14.36.41-.32.87-.38,1.35-.21.46.16.62.53.43,1.04,0,.03-.05.07-.08.07-.08,0-.18,0-.25-.04-.47-.29-.95-.6-1.43-.9-.12-.03-.26-.1-.38-.08-.12,0-.24.09-.33.19-.1.1-.04.39.08.48.28.21.55.43.84.62.25.17.53.31.79.47.47.29.66.69.47,1.23-.08.23,0,.57-.34.63-.23.04-.38-.19-.53-.34-.42-.45-.84-.89-1.16-1.43-.13-.22-.33-.41-.5-.6-.11-.11-.38-.1-.48.02-.06.07-.12.13-.16.21-.11.21-.27.33-.52.33-.41,0-.76.19-1.1.4-.23.14-.36.35-.44.62-.1.39-.14.77,0,1.16.11.29.2.58.28.88.1.34.12.7-.05,1.03-.01.04-.19.08-.21.05-.17-.19-.32-.41-.49-.61-.2-.23-.41-.45-.62-.68-.11-.11-.35-.1-.48,0-.12.1-.21.35-.13.47.11.19.23.37.36.54.29.38.6.75.88,1.14.24.34.23.46-.04.81-.05.07-.11.13-.17.2-.1.1-.28.11-.35.03-.34-.4-.68-.8-1.01-1.21-.4-.48-.85-.88-1.37-1.22-.08-.05-.25-.03-.36.02-.14.06-.22.34-.14.46.07.11.13.24.22.32.62.5,1.15,1.08,1.68,1.66.17.19.39.34.63.54-.77,1.04-1.8,1.75-2.91,2.34-.21.01-.3-.13-.42-.27-.24-.31-.47-.64-.75-.91-.67-.65-1.22-1.38-1.64-2.21-.06-.11-.16-.2-.24-.31-.1-.11-.35-.14-.49-.05-.15.1-.25.32-.2.45.05.12.1.25.16.36.43.72.94,1.38,1.52,1.98.36.38.71.77,1.06,1.17.15.17.1.43-.11.57-.6.36-1.2.72-1.82,1.06-.35.19-.7.12-.95-.17-.67-.75-1.4-1.46-1.86-2.37-.11-.23-.31-.43-.47-.63-.4-.46-.81-.92-1.22-1.38-.14-.16-.28-.35-.45-.48-.94-.72-1.69-1.65-2.52-2.48l-.03-.05.03.07h0ZM24.22,23.55l.03.06v-.08h-.08l.05.02h0ZM23.61,14.97c.16.2.34.2.51.15.45-.16.9-.35,1.34-.53.25-.1.49-.2.74-.27.24-.07.52.07.66.31.32.54.5,1.11.54,1.74.04.7.11,1.4.17,2.1.02.21.04.44.02.65-.08,1-.14,2.01-.27,3.01-.12,1.08-.66,1.98-1.32,2.82-.15.19-.36.25-.59.24-.87-.04-1.63-.37-2.2-1.02-.26-.29-.42-.66-.64-.99-.12-.18-.26-.35-.41-.51-.13-.13-.31-.16-.48-.09-.18.07-.33.35-.29.54.02.13.05.26.09.38.1.29.18.59.31.87.27.56.23,1.13-.06,1.64-.67,1.23-1.38,2.44-2.54,3.32-.63.48-1.18,1.05-1.77,1.57-.62.55-1.28,1.04-2.07,1.37-.56.24-1.06.61-1.58.94-.66.42-1.49.37-2.04-.19-.58-.59-1.13-1.22-1.67-1.86-.65-.77-1.27-1.57-1.91-2.34-.65-.77-1.3-1.54-1.97-2.29-.41-.45-.86-.87-1.31-1.29-.54-.51-1.11-.99-1.66-1.5-.22-.21-.41-.46-.61-.7-.19-.24-.35-.5-.56-.73-.92-.95-1.32-2.14-1.62-3.4-.23-.94-.36-1.89-.26-2.86.04-.49.06-.97.29-1.41.2-.39.11-.64-.28-.86-.21-.12-.23-.37-.14-.58.11-.3.29-.54.61-.64.08-.03.17-.05.26-.06.33-.04.56-.25.74-.5.34-.46.68-.92.96-1.41.59-1.02,1.46-1.75,2.43-2.36,1-.64,2-1.27,3.11-1.7.21-.08.4-.19.59-.29.38-.23.77-.4,1.22-.48.57-.1,1.08-.35,1.56-.67.25-.17.5-.36.78-.49,1.07-.48,1.91-1.24,2.58-2.18.62-.88,1.46-1.51,2.3-2.13.1-.08.22-.15.34-.2.42-.2.91-.1,1.18.25.56.73,1.11,1.48,1.53,2.29.56,1.09,1.15,2.17,1.55,3.33.12.33.3.64.43.96.24.57.52,1.12.69,1.7.2.68.46,1.32.83,1.92.38.62.5,1.31.38,2.02-.04.26-.11.52-.13.78-.04.3,0,.61-.07.91-.05.25-.2.47-.3.69Z"/>
  </g>
</svg>