<?xml version="1.0" encoding="UTF-8"?>
<svg id="Layer_2" data-name="Layer 2" xmlns="http://www.w3.org/2000/svg" viewBox="0 0 108.78 39.31">
  <defs>
    <style>
      .cls-1 {
        fill: #5c2f1c;
        fill-rule: evenodd;
      }
    </style>
  </defs>
  <g id="_Layer_" data-name="&amp;lt;Layer&amp;gt;">
    <path class="cls-1" d="M33.93,15.06c.16-.15.16-.31.16-.46.15-.15.15-.46.15-.62,1.07-1.38,2-2.61,2.92-3.69,0-.31,0-.62-.16-.92,0-.31-.15-.62-.15-1.08,0-.15,0-.46.15-.77.31-.61,1.38-.77,1.69-.15.31.46.46.77.61,1.23q.16,0,.31.16c.76-.47,1.69-1.23,2.46-1.84v-2.16c.15-.61.92-1.23,1.54-.76.15,0,.31.15.46.46.15.31.15.77.31,1.08q0,.15.16.15c.46-.31.92-.61,1.38-.77.31-.16.46-.16.77-.31.31,0,.62.15.77.46v-.46c-.31-.61-.61-1.23-.77-1.7-.31-.46-.46-.92-.61-1.23,0-.46,0-.77.15-1.07.16-.31.46-.62.77-.62.61.16,1.23.46,1.38,1.07.3.47.46.92.61,1.38.46,1.69.92,3.23,1.23,4.76.16.31.16.77.31,1.07.31,1.08.62,2.31,1.38,3.08.15.62.15.92.15,1.23.92-.15,1.85-.15,2.77-.31,1.84-.15,3.69-.3,5.38-.3.46,0,.77-.16,1.08-.46.15-.31.46-.46.61-.77.16-.16.31-.31.31-.62,0-.15-.16-.15-.16-.31,0-1.07.77-1.84,1.69-1.23.31,0,.46.16.61.31.77-.46,1.39-.92,2-1.39l-.15-.15c0-.16-.31-.46-.31-.62-.46-.76,0-1.69.77-2h.76c.31.61.46.92.77,1.23.16.15.31.15.61.15.46-.46.92-.77,1.39-1.07.15-.16.15-.31,0-.46-.15-.46-.46-.77-.77-1.23-.31-.62.15-1.38.77-1.54.61-.15,1.23.16,1.54.62.31.46.46.77.77,1.23,0,0,.16.15.31.15.46-.15.92-.46,1.54-.46-.3-.31-.61-.47-.92-.77-.31-.31-.47-.92-.16-1.38.16-.61.46-.92,1.07-.92h.62l.16.15c.77.47,1.23,1.23,1.69,2.16h.46c.62.3.92.77.92,1.54v.77c.31,1.08.77,2,1.23,2.92.15.31.15.62.3.77.46.61.62,1.23.92,1.85,0,.15.16.46.31.61.15.46.46.77.61,1.23.16.31.16.62.31.93,1.84.46,3.53.92,5.22,1.23q.15,0,.31.15c1.23.46,2.77.62,4.15,1.08.47.15.77.31,1.23.31.92.31,1.84.77,2.92.92.31.15.46.3.76.46.46.15.92.46,1.23.46.15,0,.3.16.3.16.77.31,1.7.46,2.46.92,1.08.61,2,1.07,3.08,1.69,1.39.62,2.61,1.38,3.84,2.15.92.61,1.38,1.54,1.38,2.61l-.15.15c-.46.92-.92,1.54-1.7,2-.46.16-.76.46-1.07.62-.3.15-.61.31-.92.46-.47,0-.92.31-1.54.46-.46.31-.92.47-1.54.77-.3,0-.77.15-1.23.46-.77.46-1.54.46-2.31.61-2.61.46-5.23.92-7.99,1.23-1.38.3-2.77.46-4.15.46-.92,0-1.69.31-2.61.16-1.39.15-2.61,0-4,0-2.31.15-4.46,0-6.77-.16-1.54-.16-3.07-.31-4.61-.62h-.46c-1.23,0-2.46-.15-3.69-.61-1.38-.46-2.92-.76-4.3-.76-1.23-.16-2.31-.16-3.23-.77-.3-.15-.76-.15-1.07-.15-1.07-.16-2.15-.46-3.38-.77v.31c0,.31-.15.76-.61.92-.61.16-1.07.31-1.69.61-.92.46-1.84.93-2.77,1.39,0,0,.15,0,.15.15q1.07.92,2.31.31c.92-.31,1.85-.77,2.61-1.08.92-.46,1.85-.77,2.77-1.23h.92c.3,0,.61.31.76.77.16.46-.15,1.08-.46,1.23-.3.31-.61.46-.92.46-1.54.61-2.92,1.38-4.46,2l.16.31c.31.16.46.31.61.46.46.31.77.31,1.23.16.46-.31.92-.62,1.38-.92,1.38-.77,2.77-1.54,4.15-2.46.3-.15.61-.31.92-.46.76-.31,1.53-.62,2.3-.92.46-.16.92,0,1.23.31.46.62.46,1.69-.15,2-.62.31-1.23.61-2,.92-1.23.3-2.3,1.23-3.38,1.84-.31.15-.62.46-.92.77-.31.15-.62.31-.93.46-.77.31-1.38.46-1.99,1.23-.92.77-2.15,1.08-3.38.77-.46-.16-.77-.62-.61-1.07v-1.07c-.62-.31-1.08-.62-1.54-.93l-.46.16c-.62.16-1.23.46-1.84.61-.46.16-.92-.15-1.08-.61-.16-.31,0-.92.31-1.23.31-.15.77-.46,1.07-.62l-.15-.15c-1.23-.77-2.3-1.54-3.53-2.15-.31,0-.61-.16-.77-.31-.46-.46-.93-.62-1.54-.92-.92-.46-1.69-.92-2.61-1.54-.77-.46-1.54-.92-2.46-1.23-.92-.16-1.69-.46-2.31-.92-.3-.31-.61-.31-.92-.31-.31-.15-.62-.15-.92-.31-.31.16-.62.31-.77.31-.61.31-1.07.15-1.38-.31-.15-.3-.31-.46-.46-.76-.62-.31-1.23-.31-2-.46-.3-.15-.61-.77-.77-.77-.46,0-.77,0-1.07-.15-.62-.31-1.39-.46-2.15-.46-.92,0-1.69-.15-2.46-.15-.31.15-.61.3-.92.46-.93.61-2,1.23-2.77,2-.92.77-2,1.39-3.08,1.99-.76.47-1.54.93-2.3,1.54-1.07.61-2.3,1.38-3.53,2-.62.15-.92.46-1.54.61-.47.16-1.08.31-1.54.46-.46.16-1.07.31-1.54.46-.46.16-1.07.16-1.54.16-.31-.16-.61-.31-.61-.77-.16-.31-.16-.77,0-1.23.46-.77.92-1.69,1.38-2.46.62-.77,1.23-1.69,1.69-2.61.15-.46.46-.92.92-1.38.92-.92,1.69-1.84,2.77-2.76.46-.46.77-.77,1.23-1.23q0-.15-.15-.31c-.16-.31-.46-.77-.92-.92-.77-.46-1.38-1.23-2-1.85-.62-.46-1.08-1.07-1.38-1.85,0-.15-.15-.3-.31-.46-.46-.46-.93-.93-1.38-1.39H.58v-.31c-.16-.31-.31-.46-.31-.76-.15-.46,0-.77.31-1.08.46-.46,1.07-.77,1.69-.77,2.15,0,4.31-.16,6.3.46.77.16,1.38.16,2,.31,2.15.31,4.15,1.08,5.99,1.84.92.47,1.85.62,2.77.77,2.15.31,4.45.62,6.61.93.31.15.77.15,1.07.15,1.54,0,2.92,0,4.46-.15.92-.16,1.69-.31,2.46-.62h0ZM90.34,21.37s-.31-.15-.62-.15c-.46,0-1.07.15-1.38.46-.46.31-.92.77-1.23,1.23-.31.46-.46,1.07-.46,1.69.15.62.46.92.92.92h1.38c.62,0,1.07-.15,1.38-.61.15-.31.31-.46.61-.61.61-.62.46-1.08.31-1.85,0-.46-.46-.61-.92-1.07h0ZM47.76,5.84c0,.31-.16.62-.46.77-.46.31-.92.61-1.23.77-.31.15-.61.31-.77.46-.15,0-.15.16-.15.31.15.62.31,1.07.61,1.54.77.92,1.38,1.85,2.16,2.77,0,.15.15.31.3.46.62.16,1.23,0,1.7-.15-.16-.15-.16-.31-.31-.47-.61-.92-.92-1.99-1.07-3.07-.15-.92-.31-1.69-.61-2.61,0-.16-.16-.46-.16-.77h0ZM37.93,21.06c.76.16,1.53.62,1.99,1.39h1.07c1.08-.31,1.84,0,2.77.31.46.3.77.46,1.23.61.92.61,2,1.07,3.07,1.38,1.23.3,2.46.92,3.84,1.23.31,0,.46.15.61.31.31.15.46.15.61.3,2,.47,4,1.08,6,1.23.61,0,1.38.15,2.15.31,1.07.31,2.15.31,3.23.92.31.16.77.16,1.07.16,1.84.15,3.54.46,5.38.76.46,0,.92.16,1.23.16,1.23,0,2.31,0,3.38.16,1.07.15,2.3,0,3.38,0,.3,0,.61,0,1.07.15-.16-.15-.31-.31-.46-.31-1.07-.61-2.15-1.23-3.23-1.85-.31-.15-.46-.46-.62-.77-.15-.46.16-1.38.62-1.69.16-.16.46-.31.62-.31.15-.15.46-.15.61-.3-.16,0-.31.15-.46.15-.61.15-1.07.31-1.69.31-.92.16-1.85.31-2.77.16h-2.46c-.46,0-1.07-.16-1.54-.16-.31-.16-.62-.16-.92-.16-1.39-.15-2.92-.46-4.31-.76-1.23-.31-2.46-.77-3.68-.92-1.39-.31-2.77-.92-4.15-.92h-.31c-.92-.31-1.99-.46-2.92-.61-.77-.16-1.54-.31-2.46-.46h-.46c-2.46-.31-4.92-.46-7.38-.46-1.38-.15-2.77-.15-4.15-.31h0ZM27.63,18.44h-1.08c-.92,0-1.84,0-2.77-.31-.31-.15-.61-.15-1.07-.15-.46-.16-1.08-.16-1.54-.31-.62-.15-1.38-.15-2-.15-.92,0-1.84,0-2.76-.77-.77,0-1.23-.31-1.85-.77-.3-.15-.77-.31-1.07-.31-.77-.31-1.54-.62-2.31-.77-1.84-.62-3.84-.93-5.68-.93.15.31.46.62.76.93,1.7.15,3.23.77,4.92.92,0,0,.16,0,.16.15,1.38.31,2.61.61,4,1.23.77.31,1.54.62,2.3.62.77.31.93,1.08,1.08,1.23.31,0,.77-.15,1.08-.15h3.22c1.23-.16,2.62-.31,3.84-.31.31,0,.61-.15.77-.15h0ZM31.78,18.13c1.38.16,2.77.16,4.15.31,1.23.15,2.61.3,3.84.3,2.15.16,4.15.31,6.3.47,1.23,0,2.46.16,3.53.31,2.46.46,4.77.92,7.07,1.08.77.15,1.38.31,2.15.46,1.07.31,2.31.46,3.38.77,1.07.46,2.3.61,3.38.76.31.16.46.16.77.31,1.07.31,2.31.46,3.38.46h2c.77,0,1.69.31,2.61.15,1.23-.31,2.46-.46,3.54-.92,1.23-.3,2.46-.76,3.84-.61.16-.15.46-.46.62-.61.46-.62.92-1.07,1.38-1.7.31-.3.77-.76,1.23-.76.46-.16.77,0,1.07.31.15.31.31.77.15,1.08-.15.46-.3.76-.61,1.07-.76.92-1.54,1.84-2.46,2.61-1.07,1.07-2.3,2.15-3.38,2.92l-.15.15c.15.31.46.46.77.62.47.3.77.46,1.23.61.61.15,1.23.47,1.69.77.46.47.77.77.92,1.08h.31c1.84.16,3.53-.16,5.38-.46,1.07-.16,2-.31,3.07-.31.77-.15,1.38-.15,2-.31.46-.15.77-.3,1.23-.15.61.15,1.23-.15,1.84-.31,1.07-.46,2.16-.92,3.38-1.38.31-.16.46-.31.77-.31.92-.31,1.84-.77,2.61-1.23.16-.16.46-.46.62-.62l-.16-.15c-1.23-.92-2.61-1.69-3.84-2.46-.76-.31-1.38-.61-1.84-1.07-.47-.15-.92-.31-1.23-.62-.92-.46-2-.77-2.92-1.08-.46,0-.77-.15-1.07-.3-.31-.16-.46-.31-.77-.46-.61-.16-1.07-.31-1.69-.46-.92-.31-2-.62-3.07-.77-.46,0-.77-.15-1.23-.3-.77-.31-1.54-.46-2.46-.77-.77-.31-1.69-.31-2.61-.61-1.85-.46-2.92-.77-4.92-.77h-.61c-1.7-.16-3.38-.31-5.08-.47h-.3c-.92-.3-2-.3-2.92-.3h-2.92c-1.07.15-2,0-2.92,0h-.77c-.16.15-.46.3-.77.46l-.15.15-.16-.15c-.31-.16-.61-.31-.92-.46-.76-.16-1.54-.16-2.46,0-.77,0-1.54.15-2.31.15s-1.53.15-2.3.31c-.92.31-2,.31-3.23.46-1.38-.15-2.92.16-4.46.31-.92,0-1.99.15-3.07.31-.76.15-1.54.46-2.3.61-.92.16-1.85.46-2.92.46-.15,0-.31.15-.46.15-.31.31-.62.62-1.23.62q-.92-.31-1.84-.16c-.46.16-1.08.31-1.69.46h0ZM45.15,26.28q-.15,0-.15-.16c-.92-.15-1.69-.15-2.46.31-.62.31-1.39.77-2,1.23-.16,0-.31.15-.62.3q0,.16.16.16c.15.15.46.31.61.46,1.07.46,2,.92,2.92,1.54.46.31.77.31,1.23.16.15,0,.31-.16.46-.16,1.38-.61,2.77-1.23,4.15-1.85.15,0,.31,0,.46-.15-.31,0-.61-.16-.92,0-1.54,0-2.92.15-4.46.62-.31.15-.77.3-1.08.46-.31,0-.62,0-.77.15-.77,0-1.07-.61-1.07-1.23,0-.16.15-.16.15-.46.31-.31.62-.62,1.07-.77.77-.15,1.54-.46,2.31-.61h0ZM3.96,29.97c.31-.15.62-.15.92-.3h.31c.46-.62,1.07-.62,1.69-.77.31-.15.62-.31.92-.46,1.23-.61,2.31-1.54,3.38-2,.77-.61,1.54-1.07,2.15-1.69-.31,0-.77.15-1.23.15-.61.15-1.07.46-1.69.61-.61.16-1.07.31-1.69.62-.31.16-.76.46-1.07.62q-.31,0-.61-.16l-.16-.15v-.77c-1.23,1.38-2,2.92-2.92,4.3h0ZM71.89,7.07c-.61.31-1.23.61-1.84.92.3.77.61,1.69,1.23,2.3.31.16.46.46.61.77v.61c.16.46.16.77.62.77s.77.15,1.08.15c.61,0,1.38.15,2,.15,0-.15-.15-.15-.15-.31-1.08-1.69-2.31-3.54-3.54-5.38h0ZM75.89,5.54c-.62.15-1.23.3-1.7.46,0,.31,0,.46.15.76.77,1.23,1.38,2.46,2.16,3.69.15.31.46.76.61,1.07.15.46.31.76.46,1.23.46.15.92.15,1.54.15,0-.46-.15-.92-.31-1.23-.77-1.23-1.38-2.61-1.84-3.84-.31-.76-.77-1.53-1.07-2.3h0ZM43,9.38c-.62.3-1.38.76-2,1.23-.15.16-.31.31-.46.46-.16,0-.16.31-.16.31.16.92.62,1.69,1.23,2.3h.31c1.23-.15,2.3-.3,3.38-.46-.46-.93-1.07-1.69-1.54-2.61-.31-.46-.61-.92-.76-1.23h0ZM68.21,9.68c-.16-.15-.46-.15-.77,0-.46.31-.92.62-1.38.92.46.46.77.77.92,1.39,0,.15.15.15.31.15.92,0,1.7,0,2.46.15v-.3c-.46-.92-.92-1.54-1.54-2.31h0ZM8.72,17.83c.31.31.77.62,1.23.77.77.15,1.54.46,2.15,1.07.31.31.61.31.92.31.62-.15,1.07-.31,1.69-.61q-.16,0-.31-.16c-1.85-.47-3.69-1.08-5.69-1.38h0ZM9.18,23.51c1.54-.46,3.08-.76,4.77-1.07h-.92c-.77-.15-1.69.15-2.3.15h-.31c-.46.31-.92.62-1.23.92h0ZM36.54,26.13q.15,0,.15.16c.46.3.77.15,1.23,0,.76-.46,1.53-.77,2.15-1.07.3-.16.46-.46.61-.62,0-.15-.31-.3-.31-.3-.76.3-1.54.61-2.15.92-.92.3-1.07.46-1.69.92h0ZM36.54,14.6c.92,0,1.69-.15,2.46-.31-.16-.77-.31-.92-.77-1.38-.61.31-1.23.92-1.69,1.69h0ZM33.01,24.75c.46.15.92.15,1.38-.16.62-.46,1.23-.92,1.85-1.38h-.31c-1.08.31-2,.92-2.92,1.54h0ZM30.24,23.51c.16.16.31.16.31.16.31-.31.62-.46.92-.77-.47.15-.77.46-1.23.61h0Z"/>
  </g>
</svg>