<?xml version="1.0" encoding="UTF-8"?>
<svg id="Layer_2" data-name="Layer 2" xmlns="http://www.w3.org/2000/svg" viewBox="0 0 121.85 49.46">
  <defs>
    <style>
      .cls-1 {
        fill: #753d22;
      }
    </style>
  </defs>
  <g id="Layer_2-2" data-name="Layer 2">
    <g>
      <path class="cls-1" d="M73.14,34.56s0-.02,0-.03c0-.02,0-.04,0-.06.02-.04.02-.01-.02.09Z"/>
      <path class="cls-1" d="M82.41,33.8h0s-.05.05-.07.08c.03-.03.04-.05.07-.08Z"/>
      <path class="cls-1" d="M121.69,38.11c-3.48-.15-6.93.12-10.39.39.08-.13.2-.25.27-.4.34-.75.35-1.72-.08-2.44-.83-1.39-2.83-1.31-3.87-.2-.31.33-.5.7-.61,1.15-.05.21-.13.43-.16.64,0,.06-.02.11-.02.17-1.83.39-3.52.78-5.45.44-2.29-.39-4.31-1.54-5.91-3.19-2.56-2.65-4.22-6-7.48-7.92-1.71-1.01-3.66-1.65-5.64-1.91.11-.15.22-.29.3-.45.08-.14.15-.27.21-.41.27-.61.44-1.24.55-1.88.85-.02,1.6.22,2.27.62.01.02.01.04.03.06.01.01.03.03.05.05,0,.01.01.01.02.03.04.05.06.06.11.11.05.04.09.07.13.11.05.05.1.1.19.16,0,.01.02.01.02.01.05.03.1.06.14.1,0,0,.02.01.03.03.09.11.19.19.31.23.07.04.15.06.23.08.61.57,1.16,1.25,1.71,1.9.1.13.21.26.32.39.01.04,0,.07.03.12.06.11.14.21.21.32.03.04.06.08.08.12,0,.01.01.03.03.05.07.12.14.21.23.3.06.06.1.09.16.14.11.07.2.15.3.22h0c.95,1.13,1.95,2.22,3.15,3.1,2.65,1.95,6.96,2.88,9.29-.1.06-.06.1-.16.14-.24.03-.03.06-.05.09-.09.06-.07.08-.16.07-.24.4-1.02.29-2.47-1.15-2.32-.83.08-1.14,1.09-1.88,1.41-.96.41-2.15.17-3.01-.35-1.89-1.13-2.58-3.6-3.36-5.52-.77-1.91-1.66-3.79-2.92-5.43-2.08-2.72-6.5-5.39-9.89-3.59-.31-.29-.65-.55-.99-.8.25-.25.44-.54.67-.84.54-.68,1.28-1.13,2.08-1.46,1.59-.65,3.33-.68,5.02-.82,2.14-.18,7.15-1.22,6.38-4.39.13-.33.22-.68.22-1.03.02-1.04-1.01-1.99-2.07-1.45-.62.32-1.32.65-1.84,1.12-.23.21-.41.46-.58.73-.12.18-.19.38-.21.59h0c-.66.41-1.4.65-2.16.77-3.74.6-7.37-1.4-11.12-.7-2.28.42-4.2,1.89-5.61,3.74-.09-1.29-.5-2.54-1.17-3.65-1.7-2.8-4.76-4.26-7.86-4.97-3.44-.79-7.38-1.18-10.75.11-2.76,1.07-5.05,3.37-6.19,6.09-.41.96-.67,2.02-.75,3.07-1-1.3-2.2-2.42-3.73-3.07-2.96-1.23-6.16-.04-8.67,1.66-3.39,2.31-6.03,5.39-10.22,6.27-3.41.72-11.79,0-10.24-5.46.13-.47-.23-1.07-.79-.93-2.62.64-3.49,3.27-2.72,5.69.4,1.28,1.13,2.41,2.05,3.36,0,.02-.01.03-.02.06,0,.01-.01.02-.01.04,0,.02,0,.05,0,.08-.02.12,0,.23,0,.35.02.26.18.5.35.69.07.07.13.15.22.2.09.05.19.1.28.15.06.03.13.05.19.06.12.04.25.07.38.08.19.02.42.02.59-.07t.01-.01c.5.33,1,.63,1.54.87.26.13.54.24.8.34-.04.08-.07.16-.06.25,0,.21.13.34.31.43,0,0-.02-.01-.03-.02.17.09.32.22.47.34.22.18.54.22.81.32.23.08.54.09.76-.03.07-.05.15-.1.22-.14.03-.03.05-.08.07-.11h.01c.04-.05.09-.1.13-.15.03-.04.03-.08.05-.12,0,0,0,0,0,0,.76.13,1.53.18,2.29.2.06.26.22.5.5.59.08.03.15.05.22.07.2.06.36.09.57.06.05,0,.1-.02.15-.02.19-.03.37-.06.56-.09.22-.03.43-.16.58-.33h.02c.16-.11.28-.21.36-.37.01-.03.02-.06.03-.08h.02c1.2-.19,2.37-.49,3.53-.85-1.68,1.49-3.15,3.24-4.48,5.06-1.57,2.17-3.09,4.46-5.16,6.2-1.89,1.58-5.4,2.86-7.03.32.12-.12.23-.24.35-.36.22.11.45.22.67.33.16.08.42.03.55-.1.89-.97.5-2.34-.62-2.97-1.22-.68-2.82-.27-3.74.72-1.21,1.31-1.05,3.36-.17,4.8.96,1.55,2.69,2.43,4.39,2.92,2.39.7,4.94.71,7.34.11.12.04.24.08.36.1.22.03.42-.04.62-.12.14-.07.29-.16.4-.26.06-.04.1-.11.15-.18.99-.37,1.94-.85,2.82-1.43.03.04.05.11.1.14.14.1.29.11.45.11.12,0,.25,0,.38-.02.28-.04.53-.22.74-.39.11-.09.18-.2.23-.33.02-.06,0-.12.01-.19.04-.09.08-.19.11-.3.04-.14.06-.26.02-.41-.02-.07-.04-.14-.07-.21.79-.7,1.53-1.45,2.28-2.19,0,0,0,.01,0,.02,0,.03-.01.04-.01.06-.03.19.08.38.22.48.14.1.29.1.44.06.07,0,.14,0,.22,0,.07,0,.21,0,.29-.02.18-.03.34-.11.49-.22.03-.02.05-.04.09-.06.02-.02.04-.03.06-.04.05-.03.1-.06.15-.09.08-.05.16-.1.23-.15.11-.09.19-.19.25-.32.02-.03.02-.06.04-.1.04-.05.09-.1.14-.15.07-.09.11-.19.12-.29.04-.18.03-.38-.05-.55-.06-.12-.16-.24-.28-.33-.11-.09-.26-.12-.41-.13.67-.57,1.37-1.09,2.1-1.6-.01.07-.03.14-.03.2-.02.16.02.31.11.45.09.13.2.21.34.28.18.08.37.12.57.09.14-.03.3-.1.43-.15.17-.06.33-.13.5-.2.08-.03.14-.08.21-.13.1-.08.18-.18.23-.3,0-.01,0-.02,0-.02.07-.07.12-.14.18-.21.04-.06.07-.12.1-.17.02-.07.03-.13.05-.21,0,0,0-.03,0-.04,1.84.92,4.78.49,5.47-1.57.2.01.4.02.59.05.48.06.95.2,1.4.41.86.38,1.61,1.02,2.12,1.82.53.8.8,1.77.77,2.74-.01.5-.09,1-.25,1.48-.08.22-.17.43-.25.65-.1.25-.26.49-.27.76,0,.07.02.15.05.21-.05.08-.09.16-.14.24-.58-1.03-1.55-2-2.16-2.6-1.48-1.43-3.28-2.5-5.36-2.44-.13,0-.26,0-.38.01h-.04c-.43.02-.87.06-1.3.16-1.28.28-2.75.85-4.14,1.64-.3.15-.6.32-.89.47-1.47.8-2.59,1.96-3.3,3.4-.41.7-.69,1.45-.79,2.23-.82-.05-1.64-.1-2.47-.14-.43-.03-.55.56-.12.67,4.18,1.17,8.55,1.25,12.85,1.18,2.16-.03,4.2.53,6.34.61.92.04,2.21.08,3.2-.31,1.06.24,2.07.23,3.12.15.51.04,1.02.07,1.54.11.07.03.14.03.22.02.76.06,1.51.13,2.26.17,1.61.07,3.18.31,4.79.37.82.03,1.64.08,2.46.08.81,0,1.55-.14,2.33-.25.16.06.33.03.46-.06,1.56-.2,3.1-.25,4.63-.64.21-.05.17-.41-.04-.43h0c.08-.34-.1-.59-.3-.9-.28-.46-.35-1.11-.45-1.63-.2-1.06-.32-2.13-.36-3.2-.03-.85.02-1.7.1-2.55.28-1.65.62-3.32,1.3-4.82,1.08-2.35,3.29-3.92,5.18-5.57,2.04-1.8,4.07-3.37,6.94-2.52.33.09.49-.43.18-.56-2.3-.96-4.43-.3-6.33,1.19-1.19.93-2.32,1.95-3.47,2.93-1.01.86-2.03,1.72-2.78,2.84-1.42,2.08-1.81,4.52-2.08,6.97-.14,1.33-.27,2.65-.58,3.96-.3,1.23-.8,2.4-1.04,3.65-.07,0-.13-.01-.21-.02-.02-.02-.05-.04-.08-.06.25-.71.33-1.58.4-2.14.21-1.61.17-3.22.21-4.84.04-1.51.25-3.07.74-4.5.47-1.39,1.06-2.68,1.64-4.03.05-.12-.11-.23-.2-.14-2.04,1.78-2.25,4.84-2.54,7.34-.19,1.6-.37,3.21-.56,4.81-.1.83-.19,1.67-.35,2.49-.02.12-.08.22-.12.33-.3-.28-.6-.53-.86-.85-.17-.23-.28-.47-.4-.72-.05-.16-.11-.31-.15-.48-.09-.41-.14-.82-.2-1.23.27-1.94.05-4.05-.29-5.74-.02-.13-.06-.27-.08-.39.02-.31.01-.62.05-.94.17-1.29.55-2.54.8-3.8.86-2.19,2.12-4.21,3.73-5.92,3.53-3.76,10.08-6.88,14.99-3.89,2.06,1.25,3.38,3.59,3.6,5.96.08.89.01,1.85-.26,2.73.08-.38.13-.78.12-1.18,0-.64-.12-1.3-.37-1.88-.12-.31-.27-.65-.48-.9-.21-.27-.47-.39-.8-.47-.1-.02-.21.07-.19.18.05.28.09.51.22.77.13.25.27.49.36.75.19.51.27,1.06.25,1.61-.02.52-.14,1.04-.35,1.52-.19.44-.65.91-.65,1.41-.21-.07-.36-.29-.38-.78-.03-.65.46-1.28.42-1.97-.1-1.98-2.3-3.11-4.08-2.72-2.15.45-2.95,3.14-4.67,4.28-1.58,1.05-2.68,2.22-3.38,3.47-.05-.05-.09-.09-.14-.12-.3-.15-.61-.04-.8.19-.08.1-.16.19-.23.29-.02.02-.01.02-.02.03h0s-.08.09-.12.13c-.11.11-.22.23-.32.36-.12.14-.2.31-.27.48-.09.22-.16.43-.21.65-.05.22-.1.41-.07.64.02.14.07.26.12.38.04.1.08.2.13.3.13.26.38.44.67.47.11,0,.23-.02.35-.06.02.57.11,1.15.25,1.73-.3,0-.61.16-.7.46-.06.18-.1.38-.14.57.02-.07.03-.14.05-.21-.07.2-.11.4-.16.6-.07.3.06.62.17.91.16.42.41.82.77,1.11.16.12.38.16.6.15.25.06.5.08.71-.1.06-.04.08-.11.1-.17.34.53.72,1.07,1.13,1.59.01.04.02.07.03.11.01.07.03.13.04.2,0,.04.01.07.01.11,0,0,0,.11,0,.07,0-.05,0,.07,0,.08,0,.03,0,.08,0,.11,0,.03,0,.05-.01.09,0,0,0,.02-.01.04-.02.05-.04.1-.06.17-.04.1.02-.04-.01.03-.01.02-.03.05-.05.07-.02.03-.03.05-.06.08,0,.02-.05.07-.02.04-.04.04-.09.09-.14.12-.07.06-.18.11-.27.16-.1.06-.23.06-.32.14,0,0,0,.02,0,.03-.38.07-.75.14-1.13.16-.2.01-.22.34,0,.36.61.05,1.2.22,1.81.32.52.08,1.04.13,1.56.19.57.08,1.11.21,1.68.32.56.12,1.18.07,1.74.08,1.14.03,2.33.13,3.46-.03,1.15-.16,2.25-.6,3.4-.79.03-.01.04-.02.06-.03.08,0,.15.01.23.01.13,0,.26-.01.4-.01.02.01.04.04.08.05.05.01.1.01.14.02.12.09.24.19.38.28.23.17.47.36.76.42.2.05.41.05.62.06.26,0,.43-.15.55-.36,1.43.21,2.87.32,4.31.43-4.66.08-9.32.2-13.97.29-10.73.23-21.45.53-32.16.94-.46.02-.55.73-.07.73,10.86,0,21.7-.09,32.56-.26,5.35-.08,10.7-.1,16.06-.25,2.72-.07,5.46-.12,8.2-.21-.18.08-.24.38-.01.43,1,.25,2,.55,3.03.57.5,0,1.01.04,1.51.04.31,0,.58-.08.88-.15.25-.06.54-.1.76-.24.24-.15.34-.51.06-.71-.22-.13-.47-.18-.71-.25.67-.04,1.35-.09,2.02-.16.22-.03.3-.22.28-.41.77-.11,1.54-.24,2.31-.36.94-.14,1.89-.28,2.82-.48,3.2-.27,6.37-.62,9.49-1.39.19-.04.2-.34-.01-.35ZM40.52,36.99s-.01-.08-.03-.12c-.06-.14-.13-.29-.21-.44-.17-.33-.36-.65-.57-.96-.41-.6-.89-1.06-1.44-1.53-1.07-.9-2.37-1.52-3.74-1.75-.19-.04-.25.26-.07.31,1.25.35,2.41,1.04,3.31,1.98.43.44.81.99,1.12,1.52.17.29.3.58.43.88.05.13.1.26.15.38-.28.03-.53.03-.8.07-.06-.12-.12-.23-.19-.34-.06-.1-.14-.17-.2-.26-.09-.23-.22-.44-.39-.61-.13-.12-.26-.22-.41-.3-.45-.41-.95-.76-1.47-1.05-.63-.33-1.33-.58-2.05-.69-.33-.05-.7-.11-1.04-.08-.18.02-.34.11-.52.16-.17.05-.34.08-.51.15-.15.05-.14.3.03.31.15,0,.3.04.44.06.15.03.29.11.43.15.31.09.64.12.95.2.3.08.6.2.89.34-.64.15-1.31.48-1.83.94-.06-.07-.11-.15-.19-.21-.12-.09-.26-.15-.43-.18-.15-.05-.31-.05-.47-.02-.21.03-.4.12-.56.27-.22.15-.37.47-.48.7-.02.04-.04.09-.06.13,0,.02-.02.05-.03.07-.02.08-.05.18-.06.27,0,.1.02.19.04.27,0,.04,0,.07,0,.12,0,.01,0,.03.01.05-1.98-.03-3.94-.12-5.91-.23.01-.06.04-.13.06-.19.01,0,.02,0,.03,0,.29-.05.46-.22.54-.5.54-1.89,1.87-3.23,3.6-4.1,1.62-.81,3.51-1.7,5.33-1.84,1.53-.13,2.73.52,3.81,1.41.11.11.23.21.33.33,1.1,1.25,1.5,2.79,2.21,4.22-.02.03-.04.06-.06.09ZM13.46,15.78c3.33,1.29,7.3.99,10.55-.38,3.8-1.6,6.32-5.12,10.05-6.79,2.28-1.02,4.14-.81,5.77.04-1.8-.59-3.89-.06-5.51.89-.12.08-.04.27.1.21,1.1-.5,2.32-.79,3.53-.77,1.18.01,2.17.43,3,1.27.73.75,1.33,1.64,1.87,2.53.22.36.44.72.65,1.09-.67-.13-1.36-.25-2.05-.32-1.63-1.36-4.71-1.36-6.58-1.07-3.17.5-5.74,2.57-8.67,3.74-3.15,1.24-6.82,2.03-10.2,1.43-2.67-.47-5.12-2.25-6-4.71.74,1.26,2.01,2.26,3.49,2.84ZM24.67,19.08c-2.42.7-4.97,1.11-7.49.78-2.13-.28-4.23-1.07-5.92-2.42-1.64-1.32-4.42-5.59-2.02-7.15-.01.47.07.9.18,1.33.09,1.95,1.09,3.79,2.62,5.08,2.36,1.98,5.62,2.39,8.59,2.06,3.68-.42,6.94-1.83,10.19-3.52,1.85-.96,3.74-1.69,5.86-1.63.15,0,.29.05.42.06-.17.03-.34.05-.52.09-1.48.33-2.81,1.01-3.93,1.95-.78.21-1.57.52-2.29.85-.47.21-.91.49-1.35.77-1.48.48-2.99,1.35-4.36,1.76ZM8.07,34.04c-1.02-.89-1.82-2.52-1.04-3.82.06-.09.01-.2-.06-.26.14-.1.3-.2.47-.26.31-.11.66-.19.99-.13.42.07,1.25.53,1.14,1.06l-.57-.28c-.17-.07-.42-.03-.55.11l-.93.94c-.17.17-.26.42-.14.66.96,1.87,3.09,2.71,5.12,2.35,2.67-.48,4.71-2.62,6.35-4.63,1.95-2.38,3.51-5.09,5.61-7.35,1.14-1.23,2.42-2.22,3.79-3.08.23-.08.45-.19.68-.28-.17.16-.34.3-.52.46-.54.48-1.05.99-1.53,1.52-.26.28-.48.57-.69.89-.21.33-.36.67-.56.99-.08.12.09.24.19.13.47-.55,1.06-1.04,1.57-1.56.5-.51,1.01-.99,1.55-1.44.27-.21.52-.45.84-.6.15-.08.3-.16.44-.23-.03.09-.1.18-.12.28-.47,1.43-.52,3.09-.11,4.6,0,0,0,0-.01,0-2.2.97-3.66,3.24-5.24,4.95-1.8,1.92-3.73,3.78-6.04,5.09-2.11,1.18-4.61,1.81-7.02,1.45-1.27-.2-2.58-.7-3.57-1.54ZM31.04,26.55c-.12.04-.22.09-.34.14,0-.02.01-.02.01-.03-.01-.11-.02-.19-.08-.28-.06-.09-.12-.13-.21-.18-.1-.05-.2-.03-.31-.03-.07,0-.15,0-.22,0-.18,0-.29.01-.45.08-.04.02-.06.04-.1.05-.12.06-.24.15-.37.23-.14.09-.29.18-.43.29-.11.08-.19.21-.25.32-.05.08-.1.14-.15.22-.12.18-.12.41,0,.59.03.05.09.08.14.11-1.21.94-2.29,2.08-3.33,3.11-2.03,2.02-4.12,3.93-6.9,4.86-1.87.64-3.96.85-5.97.57,1.26.1,2.54-.03,3.73-.34,2.88-.76,5.26-2.52,7.32-4.61,1.06-1.07,2.03-2.22,3.01-3.37,1.17-1.38,2.28-2.95,3.95-3.74.24.72.6,1.41,1.08,1.99-.06,0-.1-.02-.16,0ZM42.3,26.7h.02c.1-.1.17-.22.23-.33.02.02.04.04.05.06.02.02.04.05.06.07.06.07.13.1.2.13.1.04.25.02.33-.05.07-.08.12-.14.14-.24.02-.04.03-.09.04-.14,0-.07.01-.13.01-.19-.01-.11-.01-.22-.03-.33,0-.02,0-.06-.01-.09-.01-.06-.03-.14-.05-.2-.03-.06-.08-.11-.12-.17-.04-.06-.08-.12-.13-.18-.02-.03-.05-.05-.07-.07-.04-.05-.11-.11-.16-.14-.05-.04-.12-.07-.17-.1-.17-.07-.35-.11-.53-.13-.05,0-.1,0-.14,0-.08,0-.14.04-.2.08-.07.04-.11.11-.15.18-.05-.01-.09-.04-.15-.04-.13-.02-.27-.03-.41-.04-.04,0-.07,0-.1,0-.1-.01-.23-.01-.33.01-.06.02-.12.04-.18.06-.06.02-.12.04-.18.05-.12.03-.23.07-.33.13-.05.03-.06.08-.09.12-.06.04-.12.08-.17.14-.02.02-.02.04-.03.06-.23-.05-.45-.1-.68-.12-.2-.02-.41-.04-.62-.02-.09-.93-.82-1.79-1.82-1.77-.24,0-.58.24-.78.23-.41,0-.66-.13-.8-.36.28-.05.55-.12.81-.16.62-.1,1.22-.23,1.84-.29,1.2-.12,2.42,0,3.56.4.88.32,1.7.79,2.35,1.48.29.29.49.61.66.94,0,.04.02.09.03.13.22,1.34.18,2.65-.05,3.93-.15-.68-.4-1.33-.79-1.92-.28-.42-.63-.8-1.03-1.13ZM34.84,22.51c.14-.78.83-1.48,1.47-1.86,2.81-1.7,5.38-.05,6.8,2.35-.43-.29-.88-.54-1.36-.73-1.2-.48-2.56-.56-3.85-.45-.71.06-1.43.18-2.12.37-.29.08-.62.19-.93.31ZM48.56,36.61c-.18.59-.76,1.51-.79,2.26-.14-.01-.28-.02-.42-.04-.98-.14-1.96-.38-2.93-.65-.12-.04-.24-.08-.37-.1-.41-.12-.8-.25-1.2-.37-.06-.18-.08-.38-.01-.62.05-.2.12-.39.19-.58.26-.41.51-.84.74-1.28.19-.4.4-.82.54-1.24.08-.23.12-.45.13-.69.87-1.76,1.41-3.71,1.45-5.67,0,.12,0,.24.02.37.04.4.25.88.65,1.05h0c.23.27.61.25.78-.06,0,0,0-.01.01-.02.32-.26.44-.74.38-1.13-.01-.12-.03-.23-.05-.35-.03-.2-.08-.35-.17-.53-.07-.14-.14-.31-.23-.43-.03-.04-.07-.08-.1-.12-.01,0-.1-.12-.06-.05-.08-.12-.12-.27-.23-.37-.07-.07-.14-.14-.21-.22-.06-.06-.17-.06-.21.02-.04.09-.08.17-.13.24-.09.13-.12.27-.16.42t0,.02s-.01.01-.03.04c-.02.04-.05.09-.07.13-.06.14-.09.32-.14.47-.04.14-.04.27-.05.41.02-1.98-.41-3.94-1.41-5.63-1.27-2.16-3.44-3.6-5.99-3.54h0c.92-.28,1.88-.39,2.85-.19,1.11.22,2.14.8,2.74,1.79.58.96.95,1.78,1.84,2.51,1.05.87,1.77,1.6,2.3,2.88.51,1.24.87,2.54,1.05,3.87.34,2.48.03,5.04-.71,7.42ZM56.03,37.69s-.04.06-.07.09c-.19.23-.37.46-.55.7-.07,0-.13.01-.2.01.54-3.42.46-6.98-.03-10.39-.01-.12-.18-.09-.18.03.2,3.54-.16,6.98-.83,10.44-.15.01-.32.03-.47.04,0-.11.02-.21.01-.32,0-.54-.01-1.03.05-1.56.12-1,.22-2,.29-3,.13-1.97.17-3.99-.19-5.95-.01-.04-.08-.04-.08,0-.16,1.96-.15,3.93-.3,5.88-.08.97-.18,1.93-.32,2.89-.08.54-.21.99-.41,1.51-.08.21-.15.42-.19.64-.5.04-1,.09-1.51.12-.5.02-1,.05-1.5.08.49-.88.77-2.06.99-3.02.28-1.21.39-2.45.41-3.7.03-2.38-.39-4.83-1.25-7.05-.38-.98-.85-1.95-1.58-2.71-.88-.9-1.9-1.44-2.5-2.59-1.05-2.04-2.92-3.15-5.23-3.13-2.11.01-5.16,1.23-6.19,3.2-.08.13,0,.25.1.32-.44.49-.78,1.06-.98,1.73-.3,1.11-.14,2.41.88,3.1.37.24.83.39,1.28.36.25-.03.5-.21.73-.23.38-.33.57-.12.55.65-.21.4-.52.69-.93.84-1.82.81-3.49-.85-4.06-2.44-.54-1.52-.39-3.23.22-4.72,1.33-3.21,4.67-4.35,7.93-4.26,3.32.09,7.18,1,10.07,2.64,3.22,1.82,5.01,5.29,6.04,8.73.56,1.87.95,3.83,1,5.79.05,1.87-.52,3.52-.98,5.28ZM68.73,10.73c-.05.35-.18.68-.26,1.01-.14.35-.3.68-.48,1-1.9.88-3.65,2.1-5.09,3.51-2.04,2.02-3.63,4.55-4.59,7.27-.21.59-.39,1.19-.55,1.82-.67-1.99-1.6-3.89-2.89-5.54-2.08-2.66-4.91-4.12-8.06-5.07-.26-.37-.47-.75-.66-1.17-.38-.82-.62-1.71-.71-2.61-.12-1.2.05-2.37.4-3.48.26-.56.54-1.12.89-1.63,2.08-3.02,5.42-4.33,9.02-4.23,3.44.09,7.4.67,10.21,2.84,1.34,1.03,2.34,2.49,2.7,4.14.16.71.2,1.44.08,2.15ZM71.16,11.67c.14-.2.26-.39.41-.58.55-.69,1.17-1.3,1.86-1.84.69-.53,1.42-.96,2.21-1.32.79-.35,1.63-.6,2.44-.93.05-.03.03-.09-.02-.1-1.77-.15-3.62.79-5.03,1.79-.75.53-1.43,1.15-2.04,1.85-.27.31-.6.69-.88,1.09.07-.26.15-.53.18-.79,2.12-2.62,4.52-4.6,8.32-4.28,3.51.29,7.39,1.89,10.78.15.12.06.26.09.43.08-.15-.19-.09-.18.2.04.22.07.43.09.66.05.03,0,.06,0,.09-.01-.5.48-1.15.79-1.8.99-1.78.53-3.67.29-5.5.33-2.54.06-5.72.9-6.5,3.6-1.91-.57-3.88-.54-5.81-.12ZM78.75,12.58c-.3-.17-.59-.35-.91-.49-.05-.02-.11-.03-.16-.06.75-1.25,2.04-2.12,3.44-2.45.49-.12.99-.19,1.49-.21-.7.21-1.38.49-2,.88-.77.5-1.78,1.34-1.86,2.32ZM91.19,27.21c-.09-.11-.17-.22-.26-.33.04-.08.08-.16.1-.24.07-.2.12-.41.09-.62-.02-.11-.07-.22-.11-.32-.01-.04-.03-.08-.04-.12-.03-.07-.06-.14-.09-.2-.02-.04-.03-.06-.05-.1-.11-.21-.26-.38-.47-.49-.09-.05-.18-.09-.28-.13-.03-.01-.06-.01-.09-.03-.11-.03-.21-.05-.33-.04-.05,0-.1.03-.15.04h-.04c-.12-.02-.23.02-.33.09-.38-.47-.76-.95-1.18-1.39h0c.1-.15.16-.32.18-.49,0-.08,0-.18,0-.27-.03-.18-.11-.34-.23-.48-.05-.08-.11-.14-.17-.2-.09-.09-.19-.19-.29-.26-.02,0-.04-.02-.05-.04-.01,0-.02,0-.03-.01l-.24-.13c-.08-.03-.17-.04-.26-.06-.04,0-.08,0-.12,0-.12,0-.25,0-.37.02-.01,0-.03,0-.03,0h-.02c-.07.02-.15.05-.23.08-.08.04-.15.1-.22.14-.75-.42-1.58-.71-2.38-.58.02-.55-.02-1.1-.11-1.65,2.31.12,4.23,1.86,5.67,3.59.81.98,1.61,1.98,2.35,3,.76,1.03,1.34,2.18,2.13,3.18.27.34.58.65.94.92-1.29-.79-2.44-1.86-3.3-2.85ZM81.18,14.55c3.59-.66,6.79,1.05,8.9,4.17,1.11,1.64,1.88,3.48,2.58,5.31.64,1.64,1.3,3.36,2.59,4.61.97.95,2.3,1.49,3.66,1.42.62-.04,1.24-.21,1.77-.55.21-.14.38-.37.58-.49.27-.17.08-.38.41-.14.3.21-.03.58-.27.84-1.5.59-3.08.91-4.66.43-2.29-.69-3.14-2.65-4.47-4.43-2.08-2.79-5.07-7.07-8.97-6.8-.32-1.59-1.06-3.12-2.13-4.36ZM74.1,21.72c.19-.18.42-.36.68-.52h0s.05.05.08.06c.03.02.05.04.09.04.03.01.07.02.1.01.05,0,.1,0,.15-.01.01,0,.03-.02.05-.02h.09c.06,0,.12-.02.19-.04.03-.01.07-.02.1-.03.03,0,.07-.02.09-.03h.05c.07-.04.14-.07.2-.12.1-.07.17-.16.22-.27.03-.06.03-.13.03-.19.66-.1,1.3.06,1.73.74.25.41.21.86.1,1.34-.19-.09-.38-.14-.59-.13-.93.05-1.68,1.07-1.5,1.98.06.29.19.54.35.76-1.4.41-2.73,1.06-3.92,1.95,0-.01.01-.03.01-.04,0-.05.03-.1.04-.16.03-.14.01-.31.02-.46l-.02.3c.01-.2.01-.4.02-.6,0,.09-.01.18-.01.27,0-.13.01-.26,0-.39.01-.16.02-.32.07-.48.05-.2-.05-.43-.2-.56-.14-.11-.38-.18-.56-.11.58-1.22,1.34-2.35,2.33-3.29ZM82.9,36.2c-1.05-.53-2.21-.83-3.39-.87-.38-.02-.75,0-1.11.04-.05-.04-.09-.09-.14-.12-.16-.07-.32-.1-.49-.09-.17.03-.33.04-.48.12-.09.04-.18.09-.28.14-.08.04-.16.08-.23.14-.07.05-.12.11-.16.18-1.29.44-2.45,1.2-3.33,2.27-.04.06-.05.11-.05.17-.17,0-.34,0-.51.02-.11.02-.22.05-.33.06-.02-.05-.03-.09-.05-.13-.05-.09-.1-.18-.14-.27.29-.35.57-.71.87-1.04.53-.58,1.15-1.08,1.83-1.47,1.33-.79,2.89-1.22,4.44-1.09,2.3.19,4.32,1.52,5.56,3.4-.55-.62-1.29-1.09-2.02-1.46ZM86.83,39.01c-.1-.29-.26-.54-.39-.81.11,0,.24-.03.34-.08.07-.04.14-.09.21-.13l.16-.18c.07-.1.12-.22.14-.33.04-.12.05-.24.02-.37-.04-.14-.07-.25-.13-.36-.06-.1-.13-.2-.19-.3-.09-.14-.19-.25-.34-.36-.19-.14-.41-.26-.63-.35-.09-.03-.18-.02-.27-.02h0s-.08-.01-.11-.01h0s-.04,0-.05,0c-.02,0-.03.02-.05.03-.1,0-.19,0-.29.05-.1.05-.19.13-.26.24-.8-.85-1.75-1.55-2.82-2.03.08-.05.15-.11.23-.18,0-.01,0-.02.01-.02.09-.11.11-.31.09-.46-.02-.1-.07-.19-.12-.27,0-.01-.08-.13-.11-.14,0,0,.02.03.03.04-.07-.13-.17-.23-.28-.31-.07-.06-.13-.1-.2-.14-.11-.08-.23-.16-.36-.21-.14-.04-.29-.06-.45-.09-.16-.02-.32-.04-.49-.05-.39-.03-.88.03-1.23.25-.1.04-.19.08-.28.14-.15.1-.24.23-.3.4-.04.11-.04.22,0,.34-.92.02-1.83.17-2.68.48-.06-.18-.16-.36-.32-.46l-.19-.1c-.15-.05-.29-.06-.45-.04-.33.03-.67.14-.98.28-.17.08-.33.21-.47.34-.05.04-.1.09-.14.14-.07.08-.11.15-.16.24,0-.01,0-.01,0-.02-.02.03-.05.07-.07.11-.03.06-.07.11-.09.17-.01.05-.02.09-.03.14-.03.11-.05.21-.03.31,0,.13.04.26.15.34.07.04.14.03.21.04-.65.52-1.27,1.14-1.65,1.86-.1-.23-.21-.47-.3-.71.07,0,.14,0,.2-.03.09-.02.11-.05.17-.11.04-.03.07-.06.1-.1,0-.02.02-.04.03-.06l.04-.13c.01-.07.01-.15,0-.21,0-.05-.02-.1-.05-.13-.03-.06-.08-.12-.13-.16-.08-.07-.16-.14-.23-.21-.05-.04-.1-.07-.17-.09-.06-.02-.13-.03-.19-.02-.05.01-.09.02-.13.03-.01.01-.03.03-.04.03-.03-.09-.04-.19-.07-.29,1.45-3.97,6.7-6.45,10.68-5.04,2.3.81,4.09,2.57,5.38,4.6.69,1.08,1.26,2.24,1.69,3.46.1.31.19.7.31,1.09-.76,0-1.52.02-2.28.03ZM100.06,39.07s-.05-.06-.08-.07c-.89-.4-1.94-.17-2.88-.46-1.03-.31-1.72-1.13-2.43-1.89-1.62-1.72-3.23-3.42-4.89-5.07-.13-.12-.33.03-.21.17,1.6,2.03,3.25,4,4.92,5.97.34.39.67.79,1.04,1.13-1.45,0-2.91.08-4.39.12h-.46c-.22-.85-.9-1.8-1.19-2.39-.62-1.24-1.24-2.45-2.08-3.56-1.61-2.15-3.91-3.93-6.6-4.4-2.66-.47-5.57.55-7.64,2.22-.74.6-1.43,1.34-1.95,2.15.01-.05.03-.1.04-.15.03-.14.05-.28.07-.43.02-.14.02-.25,0-.38-.03-.12-.04-.25-.09-.37-.06-.12-.11-.25-.16-.38-.07-.16-.2-.27-.37-.31-.06,0-.12,0-.19.02,0-.92.07-1.83.24-2.72.09.05.18.08.29.11.02,0,.05-.01.08,0-.07.07-.16.14-.22.21-.21.23.05.56.31.38,2-1.46,4.25-2.37,6.53-2.76.15.04.31.1.46.12.72.11,1.48.05,2.18-.17.13-.04.26-.09.4-.14,3.77.16,7.44,1.8,10.08,5.04,2.12,2.61,3.92,5.51,7.03,7.04.86.43,1.85.72,2.87.94-.23,0-.46.03-.69.05ZM110.44,37.1c0,.07,0,.14,0,.21,0,.04-.01.08-.02.11v.04s0,0,0,.03c-.03.07-.05.14-.08.22-.02.04-.04.08-.05.11t-.01.03s-.01.02-.03.05c-.1.15-.2.29-.31.44-.03.03-.06.07-.08.1-.04.04.03-.03-.04.04-.06.06-.12.11-.17.17-1.04.08-2.07.17-3.11.24.38-.14.76-.3,1.12-.5.23-.14.3-.38.27-.62.08-.1.17-.2.22-.32.07-.14.11-.28.17-.42.02-.06.06-.12.08-.18,0-.01.02-.04.03-.05,0-.01.02-.04.02-.04.03-.05.11-.19.18-.26,0,0-.01.02,0,0,.03-.01.05-.04.07-.06.06-.05.11-.09.17-.14.02,0,0,0,0,0,.02-.01.04-.01.04-.01.05-.03.1-.06.15-.08.06-.03.12-.05.17-.07.02,0,.04-.01.07-.02.05-.02.12-.03.18-.03.03,0,.08,0,.1,0,.04,0,.09,0,.1,0,.02,0,.14.02.18.02.01,0,.04.02.06.02.04.01.08.04.11.05.02.01.04.03.07.04.02.02.03.03.05.04h0c.05.06.09.11.14.17h0s.03.04.03.05c.03.06.07.13.1.2.01.04.02.08.03.13.02.07.02.13.03.2h0s0,.07,0,.11Z"/>
      <path class="cls-1" d="M47.78,31.64c-.03-.08-.08-.18-.12-.24-.03-.04-.08-.05-.1-.08-.03-.04-.06-.08-.09-.12-.15-.18-.35-.29-.59-.27-.23.01-.43.16-.53.37,0,0,0,0,0,.01-.03.04-.08.07-.1.11,0,0,0,0,0,0-.12.2-.31.35-.4.56-.06.14-.12.27-.2.4-.05.06-.1.13-.13.2-.03.1-.06.19-.09.28-.04.16-.03.31.01.46.05.21.12.37.28.54.09.11.2.2.33.25.08.02.18.05.26.08.01,0,.03,0,.04,0,.21.03.41.02.62-.05.19-.07.35-.19.48-.34.25-.36.43-.73.52-1.16.06-.28-.02-.58-.12-.85-.01-.05-.04-.1-.06-.16Z"/>
      <path class="cls-1" d="M46.04,35.41c-.06-.12-.03-.08-.12-.18-.04-.05-.09-.09-.16-.12-.08-.06-.17-.1-.27-.11-.21-.05-.45.02-.61.13-.02,0-.05.03-.06.05-.04.02-.08.05-.12.07-.14.1-.29.21-.41.35-.04.07-.1.14-.14.22-.06.11-.09.25-.08.38,0,.02,0,.04,0,.06,0,.04,0,.07-.02.1,0,.08,0,.15,0,.22.01.08.03.15.05.22.03.07.07.13.1.2.06.09.14.16.24.21.05.04.12.07.19.09.07.04.14.05.21.04.08,0,.15,0,.23-.02.11-.02.21-.07.3-.14.03-.02.06-.04.1-.07.01-.01.03,0,.05-.01.08-.04.15-.08.21-.15.1-.07.18-.18.23-.3.04-.12.09-.25.11-.37,0-.06.02-.12.02-.17,0-.06.02-.11.02-.16,0-.04,0-.08,0-.13.01-.08,0-.15-.02-.22,0-.06-.03-.14-.07-.19Z"/>
      <path class="cls-1" d="M53.77,11.95c-.15-.23-.32-.42-.48-.58-.26-.26-.54-.49-.84-.69-.04-.03-.1-.04-.15-.08-.63-.57-1.27-1.18-1.96-1.67-.61-.44-1.37-.72-2.11-.45-.28.11-.59.29-.75.56-.12.19-.2.53-.05.72.02.03.06.03.09,0,.08-.09.11-.21.18-.3.07-.09.16-.18.25-.26.2-.17.46-.28.72-.29.63-.04,1.19.4,1.64.81-.06-.01-.11-.04-.17-.06-.15-.04-.32-.07-.47-.08-.47-.06-.89.09-1.19.56-.28.46-.37,1.07-.25,1.6.13.56.4,1.05.8,1.38.38.3.83.44,1.29.51.46.06.94-.16,1.34-.16.26.01.52.01.77-.02.02.01.03.03.04.04.29.21.62.35.96.3.33-.03.55-.36.62-.7.12-.04.22-.11.24-.27.05-.39-.24-.64-.52-.88Z"/>
      <path class="cls-1" d="M65.41,7.75c-.83-.12-1.62.23-2.29.7-.7.5-1.32,1.13-1.88,1.78-.37.41-.63.87-.84,1.35-.13.21-.24.42-.34.65-.3.66.06,1.49.67,1.38.87-.15,1.74-.48,2.54-.93.38-.22.74-.46,1.1-.73.21-.16.42-.33.62-.52.19-.17.32-.38.5-.57.2-.21.23-.57.14-.87-.21-.67-.66-.86-1.13-.8-.02-.01-.05-.03-.07-.04-.19-.07-.4-.05-.6-.02.36-.24.76-.43,1.2-.43.48,0,1.1.22,1.44.57.16.16.4.03.38-.18-.06-.78-.7-1.22-1.44-1.34Z"/>
      <path class="cls-1" d="M56.79,15.41c-.26.23-.46.52-.6.84-.04.1-.08.2-.08.31,0,.11,0,.21.02.32.02.16.06.34.12.49.07.15.24.24.4.23.16,0,.33-.11.38-.28,0-.03.02-.07.02-.1.03-.14.09-.28.15-.4-.02.04-.05.08-.06.12.03-.06.07-.12.09-.19,0-.02.01-.05.02-.07.03-.12.08-.24.13-.36.05-.08.1-.16.16-.24.08-.09.11-.27.08-.38-.02-.11-.08-.21-.16-.29-.19-.16-.48-.18-.67,0Z"/>
      <path class="cls-1" d="M59.57,16.32c-.01-.15-.03-.28-.05-.42h-.01s0-.06-.01-.09c-.02-.1-.06-.18-.13-.25-.11-.13-.3-.23-.46-.24-.18-.01-.38.04-.52.16-.04.05-.08.09-.12.13-.07.11-.11.21-.12.33v.19s-.04.06-.04.09v.35c0,.09,0,.18,0,.27,0,.03.01.05.02.08.02.09.05.17.11.25.03.04.09.04.14.06.03.05.06.1.11.14.05.03.11.05.15.08.09.04.19.05.28.04.07,0,.13,0,.19-.04.06,0,.12-.03.16-.07.05-.02.1-.06.13-.11.07-.06.11-.14.15-.22.03-.09.06-.18.06-.26.01-.09,0-.19,0-.28l-.03-.2Z"/>
      <path class="cls-1" d="M27.96,40.74c-1.31-.14-2.61-.25-3.92-.33-2.62-.16-5.26-.12-7.89-.04-.46.01-.55.73-.07.74,2.63.01,5.24.15,7.85.33,1.31.09,2.62.19,3.92.32,1.24.13,2.44.28,3.69.09.18-.03.18-.27.03-.33-1.17-.53-2.36-.66-3.62-.79Z"/>
      <path class="cls-1" d="M33.59,41.62c-.05,0-.06.09,0,.09.05,0,.06-.09,0-.09Z"/>
      <path class="cls-1" d="M45.75,43.57c-2.12-.34-4.35-.36-6.5-.38-2.18-.02-4.35-.04-6.53-.06-.3,0-.35.46-.05.48,2.21.12,4.42.24,6.63.36,2.13.12,4.33.22,6.46.01.25-.02.21-.39-.01-.43Z"/>
      <path class="cls-1" d="M71.46,42.72c-2.73-.21-5.47.33-8.21.41-1.36.04-2.73.1-4.09.1-1.31.01-2.68-.11-3.98.18-.1.02-.12.17-.01.21,1.26.54,2.7.59,4.06.68,1.36.09,2.71.12,4.07.05,2.75-.11,5.68-.21,8.21-1.35.14-.06.1-.27-.05-.28Z"/>
      <path class="cls-1" d="M96.32,42.56c-1.59.07-3.14.39-4.72.52-1.64.13-3.23-.01-4.87-.08-1.51-.06-3.03-.25-4.55-.21-.73.02-1.48,0-2.2.05-.78.06-1.51.36-2.29.4-.17.01-.14.28.01.3.86.14,1.64.51,2.52.61.71.08,1.46.11,2.19.12,1.51.04,3.05-.17,4.55-.31,1.68-.16,3.31-.47,5.02-.54,1.49-.06,2.96-.06,4.45-.3.36-.05.25-.57-.1-.55Z"/>
      <path class="cls-1" d="M55.3,45.46c-.52-.12-1.08-.1-1.62-.1-1.09-.02-2.19.04-3.27.14-.36.04-.34.65.02.65,1.06-.02,2.11.02,3.16.13.52.05,1.04.17,1.55.17.26,0,.52,0,.78,0,.26,0,.54.05.8,0,.24-.05.36-.42.12-.55-.45-.26-1.05-.33-1.55-.44Z"/>
      <path class="cls-1" d="M75.37,45.77c-.24-.05-.49-.1-.73-.16-.12-.08-.25-.14-.43-.16-.28-.02-.58-.04-.85-.02-.56.03-1.11.09-1.66.14-.53.04-1.08.04-1.59.17-.54.14-1.08.29-1.61.43-.25.06-.25.43.02.47.52.08,1.05.16,1.57.23.54.08,1.11.03,1.65,0,.54-.01,1.07-.02,1.6-.04.29-.01.56-.05.85-.1.21-.03.35-.11.48-.21.26-.09.53-.18.79-.28.27-.09.13-.44-.09-.49Z"/>
      <path class="cls-1" d="M59.48,48.62c-.56.04-1.11.1-1.66.15-.19.02-.31.23-.28.4.03.19.21.31.4.29.54-.08,1.08-.15,1.62-.22.54-.07,1.07-.2,1.6-.32.18-.04.19-.34-.01-.34-.56,0-1.11,0-1.66.04Z"/>
      <path class="cls-1" d="M10.62,40.61c-.76-.29-1.72-.18-2.52-.16-.92.02-1.83.04-2.75.06-1.76.03-3.49.16-5.25.34-.15,0-.13.23,0,.25,1.79.17,3.55.28,5.36.3.88.02,1.76.03,2.64.04.79.01,1.77.1,2.53-.2.28-.11.23-.53-.03-.63Z"/>
      <path class="cls-1" d="M53.18,2.83c-.62-.05-1.3.18-1.85.43-1.12.52-2.11,1.12-2.87,2.11-.1.12.07.26.18.18.85-.68,1.91-1.33,2.98-1.54.52-.11,1.08-.15,1.59-.29.55-.16,1.09-.24,1.66-.31.1-.01.1-.16.01-.19-.52-.23-1.14-.36-1.7-.41Z"/>
      <path class="cls-1" d="M56.38,2.97c-.14,0-.15.21-.02.21s.16-.21.02-.21Z"/>
      <path class="cls-1" d="M58.38,3.31c-.13,0-.15.21-.02.21s.15-.21.02-.21Z"/>
      <path class="cls-1" d="M60.2,3.88c.58.01,1.15.11,1.71.3.27.09.54.19.8.32.25.12.57.16.84.22.13.03.19-.15.12-.24-.17-.25-.41-.5-.7-.62-.3-.13-.61-.24-.93-.31-.61-.14-1.24-.17-1.86-.11-.24.03-.23.43.02.43Z"/>
      <path class="cls-1" d="M65.97,16.42c-1.43,1.08-2.68,2.47-3.37,4.15-.06.14.15.26.24.12.97-1.44,2.08-2.8,3.45-3.89.69-.54,1.43-1.01,2.22-1.4.74-.36,1.62-.5,2.3-.97.06-.05.01-.14-.05-.15-.85-.1-1.75.4-2.5.75-.81.38-1.58.85-2.29,1.39Z"/>
      <path class="cls-1" d="M72.38,13.73c-.07,0-.15.01-.22.04-.08.02-.14.05-.21.09-.14.06-.29.1-.42.16-.06.02-.03.11.03.1.13-.03.27-.05.41-.04.07,0,.14.01.21.02.07,0,.14,0,.21-.01.13,0,.26,0,.4,0,.14,0,.29,0,.43,0,.15,0,.22-.22.06-.27-.14-.04-.29-.09-.44-.09-.15-.01-.32,0-.47,0Z"/>
      <path class="cls-1" d="M21.17,28.78c.66-.81,1.34-1.62,2-2.43.66-.8,1.33-1.62,1.85-2.53.04-.07-.04-.15-.1-.09-.78.69-1.44,1.51-2.09,2.33-.66.84-1.32,1.66-1.98,2.5-.16.19.16.41.32.22Z"/>
      <path class="cls-1" d="M78.57,30.62s-.04-.02-.05-.03c-.19-.13-.41-.21-.62-.21s-.42,0-.64.03c-.14.01-.28.07-.41.1-.21.07-.38.12-.55.27-.09.09-.17.18-.25.28-.31.4-.09,1.03.37,1.2.12.04.28.09.41.1.15,0,.3-.01.45-.04.08-.02.16-.02.25-.05.15-.03.3-.09.45-.14-.08.03-.16.05-.23.08.11-.03.22-.07.33-.1.08-.03.15-.05.23-.07.06-.04.13-.08.19-.12.02-.02.04-.03.05-.04.07-.06.12-.13.17-.2.15-.13.26-.29.25-.5,0-.25-.17-.48-.41-.57Z"/>
      <path class="cls-1" d="M85.86,33.2s-.01-.02-.02-.04c-.02-.04-.04-.08-.07-.11-.03-.07-.08-.13-.14-.18-.03-.03-.07-.06-.11-.08-.07-.04-.13-.08-.21-.11-.01,0-.03-.01-.04-.02-.05-.03-.11-.06-.17-.08-.05-.02-.09-.03-.15-.04-.06-.02-.1-.02-.15-.03-.03,0-.06,0-.09,0-.28-.02-.57.1-.74.34-.08.12-.12.25-.14.39-.01.15,0,.29.08.43,0,.03.03.05.04.07.02.04.04.09.08.12.09.15.07.12.24.26.05.04.1.09.14.13.02.02.04.04.07.06.1.07.21.12.32.13.04.02.08.03.13.03h.04c.05,0,.12,0,.18,0,.14.01.27-.01.41-.07.12-.06.23-.16.3-.26.16-.23.19-.53.07-.79-.02-.05-.05-.1-.07-.15Z"/>
      <path class="cls-1" d="M54.02,23.3c-.13-.34-.28-.67-.44-1-.16-.32-.33-.65-.54-.92-.24-.29-.5-.57-.76-.84-.1-.1-.23.03-.16.14.2.29.37.6.51.93.14.32.32.6.46.92.14.3.26.62.37.93.05.17.1.34.17.51.06.14.1.35.22.47.11.1.29.09.35-.07.06-.15,0-.35-.02-.51-.03-.19-.09-.38-.15-.56Z"/>
    </g>
  </g>
</svg>