<?xml version="1.0" encoding="UTF-8"?>
<svg id="Layer_2" data-name="Layer 2" xmlns="http://www.w3.org/2000/svg" viewBox="0 0 82.15 70.98">
  <defs>
    <style>
      .cls-1 {
        fill: #753d22;
      }

      .cls-1, .cls-2 {
        fill-rule: evenodd;
      }

      .cls-2 {
        fill: #e7a952;
      }
    </style>
  </defs>
  <g id="Layer_2-2" data-name="Layer 2">
    <g>
      <path class="cls-2" d="M50.54,5.07c.48-.52.88-1.08,1.44-1.47.2-.14.52-.13.71.08.1.1.2.29.18.4-.08.35-.24.68-.33,1.04-.08.31-.07.63.06.92.34.76.68,1.52,1.25,2.16,1.15,1.28,2.23,2.62,3.35,3.93.65.77,1.22,1.56,1.56,2.52.14.41.19.8.11,1.23-.41,2.49-1.95,3.97-4.22,4.79-.89.32-1.83.45-2.78.34-1.35-.12-2.7-.26-4.04-.4-.8-.08-1.57-.08-2.26.41-.04.03-.09.09-.09.13,0,.03.05.11.08.11.26,0,.52.03.77-.01.25-.04.5-.17.74-.25.54-.15,1.04-.2,1.28.46.36.33.75.58,1.25.37.26-.09.51-.13.76-.04.44.15.87.33,1.31.49.03.28.06.53.09.81.16-.01.32.01.47-.02.21-.02.4,0,.58.14.29.22.58.43.87.66.26.19.43.44.47.78,0,.1,0,.21.05.3.13.3.32.59.66.62.93.07,1.25.83,1.7,1.44.05.07.04.21.03.31-.11.86-.11.86.46,1.54.24-.01.5-.03.79-.04.28.27.58.56.87.86.16.17.13.35.03.56-.2.38-.18.39.17.75.09-.04.2-.05.28-.12.78-.73.98-.39,1.41.3.02.05.03.1.06.14.31.61.5.69,1.08.53.15-.04.31-.09.43-.18.12-.09.25-.23.25-.35.01-.26-.04-.53.2-.71.3-.22.58-.44.97-.45.56.42,1.09-.03,1.63-.09.34-.04.56-.23.65-.58.06-.29.29-.43.56-.47.31-.03.63-.03.93-.03.23,0,.44.14.5.32.11.37.26.63.67.77.54.18,1.05.46,1.53.67.41.6.79,1.16,1.18,1.7.41.56.69,1.18.58,1.89-.07.48.06.93.17,1.38.09.36.2.71.29,1.06.05.2-.06.42-.24.52-.19.08-.51.01-.54-.16-.16-.72-.71-1.25-1-1.92-.36-.82-1.02-1.45-1.84-1.87-.61-.31-1.23-.26-1.8.07-.4.23-.75.56-1.1.87-.69.63-1.38,1.26-2.17,1.78-.89.59-1.86.95-2.94.94-.25,0-.52-.06-.74-.16-.57-.28-1.12-.56-1.66-.88-.5-.3-.91-.68-1.28-1.14-1-1.2-2.04-2.37-3-3.6-.16-.21-.3-.43-.45-.64-.18-.25-.34-.54-.56-.76-1.18-1.19-2.35-2.37-3.66-3.42-.49-.41-1.04-.66-1.67-.81-1.23-.27-2.23.04-3.13.94-1,.99-1.38,2.19-1.44,3.53-.02.44.16.81.56,1.06.17-.1.35-.21.53-.31.2-.1.48-.02.55.16.29.78.71,1.5,1.17,2.2.52.79,1.13,1.49,1.63,2.3.36.58.89,1.03,1.5,1.34.78.41,1.58.79,2.37,1.18.7.35,1.34.8,1.88,1.37.28.3.5.67.81.95.66.59.98,1.33,1.16,2.17.1.52.21,1.02.33,1.62.4.56.89,1.15,1.55,1.58.22.14.38.37.56.55,1.62,1.56,3.39,2.94,5.28,4.16.18.12.35.24.53.33.35.16.7.16,1.05-.03.64-.35,1.29-.68,1.95-1.01.72-.37,1.49-.46,2.29-.32.63.11,1.19.31,1.68.77.64.61,1.34,1.15,2.01,1.74.16.13.3.29.44.45,2.36,2.75,4.28,5.79,5.85,9.05.34.7.58,1.46.65,2.24.15,1.51,1,2.73,1.72,3.99.23.4.64.69.95,1.03.16.17.11.59-.1.68-.27.14-.56.31-.86.37-1.43.29-2.87.55-4.3.81-.31.06-.62.05-.93.08-.52.08-1.04.14-1.54.25-.52.12-1.03.19-1.55.15-1.56-.08-3.13-.04-4.67-.34-.16-.02-.32-.03-.46-.09-1.32-.48-2.69-.85-3.85-1.69-.8-.58-1.69-1.04-2.34-1.81-.3-.36-.61-.72-.89-1.09-.28-.38-.45-.82-.5-1.3-.03-.36-.09-.73-.15-1.08-.07-.37-.25-.69-.51-.95-.7-.7-1.39-1.4-2.22-1.96-1.08-.73-2.08-1.58-3.12-2.35-.42-.31-.86-.59-1.29-.89-.43-.29-.88-.56-1.3-.87-.64-.46-1.32-.85-2.08-1.04-1.02-.26-1.96-.71-2.89-1.18-.47-.23-.92-.48-1.44-.56-.42-.07-.78-.27-1.14-.5-1.2-.77-2.19-1.76-2.94-2.98-.31-.5-.54-1.02-.63-1.59-.03-.2-.07-.41-.12-.62-.08-.31-.24-.56-.5-.77-1.39-1.19-2.94-1.98-4.82-1.98-.1,0-.21-.01-.31-.03-.15-.01-.35-.26-.35-.47,0-.26.02-.52.04-.8-.52-.5-1.14-.65-1.86-.49-.67.14-1.08.54-1.32,1.19-.5,1.34-.62,2.74-.66,4.15,0,.21.02.4.05.62.11.66.23,1.34.33,2.01.2,1.33.78,2.47,1.68,3.47.24.27.51.52.74.81.63.81,1.54,1.25,2.41,1.7.66.32,1.4.42,2.14.45.84.03,1.67,0,2.5-.17,1.02-.21,2.08-.2,3.11-.28,1-.08,1.97.14,2.87.65,1.52.82,2.92,1.8,4.21,2.96.27.26.5.54.64.88.27.74.58,1.45.81,2.21.56,1.8.26,3.51-.71,5.1-.15.26-.41.48-.65.66-.61.42-1.31.65-2.02.82-.29.06-.62.02-.93,0-.67-.06-.84-.48-.45-1.09.08-.14.19-.25.27-.36-.09-.48-.17-.94-.26-1.4-.09-.48.1-.8.55-1,.13-.05.26-.14.44-.25-.09-.14-.15-.26-.23-.36-.35-.39-.45-.81-.22-1.3.02-.04.04-.1.07-.14.31-.47.12-.91-.11-1.31-.1-.19-.23-.37-.49-.29-.1.02-.21.03-.31.03-.89-.01-1.37-.34-1.49-1.26-.02-.21-.05-.42-.08-.62-.03-.18-.31-.35-.48-.32-.15.03-.3.07-.45.11-.25.06-.5.13-.75.2-.29-.17-.55-.34-.83-.5-.17-.09-.45.01-.52.2-.06.19-.08.41-.15.6-.03.08-.11.2-.2.22-.45.18-.9.25-1.34,0-.27-.16-.5-.36-.77-.55-.24.19-.44.36-.65.5-.55.37-1.05.34-1.58-.06-.12-.1-.22-.22-.34-.32-.47-.4-1-.53-1.59-.28-.14.05-.29.15-.44.16-.2.01-.42.01-.6-.06-.65-.28-1.16-.71-1.3-1.45-.03-.21-.31-.33-.49-.27-.15.05-.29.13-.44.17-.75.2-1.05.05-1.35-.65-.12-.29-.18-.6-.16-.91.03-.45-.2-.81-.5-1.11-.1-.1-.25-.2-.39-.21-.98-.05-1.32-.7-1.49-1.52-.04-.26-.05-.52-.08-.71-.19-.31-.45-.37-.67-.48-.53-.26-.76-.69-.71-1.27,0-.06.01-.1.03-.16.19-.75,0-1.31-.73-1.68-.46-.23-.62-.7-.59-1.19.01-.36.08-.73.12-1.05-.34-.31-.64-.59-.96-.84-.04-.04-.22.02-.26.07-.52.86-.77,1.8-.86,2.81-.13,1.69-.62,3.28-1.58,4.69-.09.13-.16.28-.26.39-.98,1.08-1.95,2.18-2.96,3.23-1.31,1.39-2.94,1.91-4.82,1.77-1.3-.1-2.6-.17-3.89-.42-.47-.09-.91-.2-1.34-.4-1.09-.52-2.15-1.05-3.15-1.72-.36-.23-.67-.49-.93-.83-.37-.44-.73-.89-1.11-1.31-.28-.31-.53-.62-.69-1.01-.15-.38-.43-.71-.68-1.05-.36-.47-.54-1-.62-1.58-.03-.22.1-.51.24-.51.22,0,.42.05.55.22.1.12.2.25.26.4.19.42.51.61.97.66.33.03.39.17.36.55-.05.59-.04.59.48.78.15.05.3.09.45.15.45.16.8.43,1.02.9.18.39.52.67.99.6.69-.09,1.22.11,1.61.71.18.27.47.38.83.3.21-.04.41-.04.62-.09.52-.14,1.02-.17,1.54.05.42.17.81.06,1.19-.14.42-.22.82-.45,1.25-.66.23-.11.49-.23.74-.22.71.06,1.05-.25,1.15-.94.04-.32.3-.55.57-.71.18-.1.38-.18.56-.28.79-.36.78-.36,1.26-1.06.16-.23.23-.47.14-.74-.03-.1-.07-.2-.09-.31-.06-.32,0-.62.21-.88.2-.25.4-.51.64-.7.45-.36.59-.83.62-1.38.02-.37.04-.72-.06-1.08-.12-.43-.05-.88.25-1.18.64-.63.69-1.51,1.04-2.26.1-.21.03-.51.02-.76-.05-.75.24-1.38.78-1.8.69-.53,1.17-1.18,1.54-1.94.32-.66.91-.97,1.63-1.07.56-.07,1.13-.17,1.69-.29.07-.01.17-.13.17-.21,0-.07-.05-.21-.12-.23-.19-.08-.4-.17-.59-.16-1.67.06-3.34.17-4.87.95-.56.29-1.15.51-1.71.78-.88.41-1.78.56-2.74.39-.62-.11-1.24-.18-1.86-.31-1.16-.23-2.12-.83-2.95-1.67-.07-.08-.14-.15-.22-.23-.96-.87-1.53-1.95-1.83-3.21-.12-.52-.21-1.01-.2-1.54.03-.99.03-1.98.19-2.96.1-.56.07-1.14.08-1.72,0-.21-.03-.41-.08-.62-.41-1.6-1.1-3.05-2.37-4.14-.19-.17-.43-.29-.67-.4-1.2-.57-2.49-.8-3.79-.85-.95-.04-1.86-.22-2.77-.45-.05-.02-.11-.03-.14-.06-.1-.12-.22-.23-.26-.37-.05-.14,0-.3.18-.38.48-.21.95-.44,1.44-.61.69-.22,1.4-.41,2.11-.59.67-.18,1.33-.18,2.01-.05,1.57.3,2.97.97,4.34,1.74.75.42,1.22,1.14,1.7,1.82.48.67.83,1.44,1.28,2.13.43.67.65,1.43.81,2.19.13.67.21,1.34.3,2.01.17,1.37.5,2.66,1.03,3.93.14.34.36.63.61.9.64.74,1.51.91,2.41.95.98.04,1.98,0,2.97-.04.31,0,.63-.06.93-.14,1.52-.37,3.06-.65,4.63-.71.09,0,.17-.1.23-.17.07-.09.03-.19-.1-.24-.44-.18-.81-.45-1.16-.78-.32-.3-.51-.64-.5-1.09,0-.32-.05-.63-.13-.93-.09-.35-.24-.68-.63-.84-.44-.18-.61-.51-.63-.98-.03-.59.05-1.13.33-1.67.18-.34.03-.75-.26-.97-.21-.16-.44-.28-.64-.45-.54-.47-.63-1.04-.28-1.69.05-.09.12-.17.18-.25.16-.25.12-.5.04-.75-.14-.4-.35-.75-.81-.88-.1-.03-.2-.06-.3-.09-.8-.36-1.23-.92-1.12-1.84.03-.31-.18-.51-.44-.51-.21,0-.42.05-.62.02-.42-.06-.81-.18-1.08-.55-.12-.16-.27-.31-.43-.45-.25-.22-.55-.3-.87-.17-.25.09-.49.19-.74.25-.33.08-.62-.02-.87-.24-.14-.15-.27-.32-.37-.5-.32-.57-.82-.82-1.44-.73-.96.14-1.61-.28-2.07-1.06-.17-.29-.38-.48-.75-.44-.15.03-.32.02-.46-.03-.36-.12-.64-.35-.7-.76-.03-.15-.02-.31-.02-.47,0-.28-.12-.5-.39-.62-.1-.05-.19-.09-.28-.14-.34-.2-.54-.48-.5-.9,0-.11.02-.21.03-.31.05-.45-.15-.79-.49-1.09-.3-.26-.4-.61-.27-1,.17-.52.05-1.03-.01-1.54-.08-.52-.09-1.04.12-1.54.05-.12.25-.22.38-.18.26.09.5.23.52.52.06,1.35.78,2.36,1.68,3.25.82.8,1.76,1.49,2.73,2.09.92.58,1.94,1,3.03,1.22,1.18.23,2.34.53,3.49.88.98.29,1.83.75,2.56,1.45.11.11.21.23.34.32,1.42,1.08,2.25,2.57,2.94,4.18.16.38.29.78.51,1.14.47.77.78,1.6.94,2.48.19,1.04.62,2,1.04,2.94.76,1.7,1.95,3.08,3.51,4.13.12.08.28.12.42.17.04,0,.1-.02.14-.06.02-.02.03-.09.02-.11-.2-.49-.44-.95-1-1.12-.44-.12-.67-.48-.82-.88-.11-.3-.19-.61-.29-.9-.12-.37-.1-.71.15-1.03.07-.08.12-.17.16-.27.12-.25.08-.56-.11-.72-.12-.11-.25-.19-.36-.29-.69-.6-.74-1.53-.1-2.2.14-.15.32-.27.46-.42.07-.07.12-.18.13-.28.05-.52.08-1.04-.22-1.51-.08-.14-.2-.26-.25-.4-.13-.35-.14-.72.08-1.05.17-.25.37-.5.56-.74.22-.26.26-.56.27-.88,0-.22-.06-.41-.25-.54-.22-.13-.47-.24-.66-.41-.37-.34-.45-.84-.23-1.28.13-.28.29-.56.46-.89-.17-.51-.43-1.03-.97-1.3-.45-.23-.74-.55-.94-.99-.06-.16-.13-.3-.23-.41-.21-.25-.43-.44-.8-.38-.25.04-.52.04-.78.04-.7-.01-.98-.26-1.16-1-.03-.1-.05-.21-.08-.3-.04-.14-.26-.17-.39-.06-.2.17-.37.38-.59.51-.17.11-.4.12-.59-.02-.56-.39-1.06-.85-1.24-1.55-.04-.16-.11-.29-.17-.44-.8-.38-1.57-.8-2.46-.93-.45-.06-.73-.38-.88-.8-.09-.3-.15-.61-.26-.9-.16-.4-.39-.74-.86-.84-.15-.03-.3-.1-.42-.2-.31-.21-.51-.54-.51-.92,0-.25,0-.54.11-.77.31-.67.3-1.3-.07-1.95-.14-.23-.08-.52.05-.75.39-.65.51-1.35.36-2.11-.05-.25,0-.52,0-.79.01-.21.18-.46.32-.46.23-.01.6.22.59.42-.02.7.32,1.3.5,1.95.36,1.42,1.26,2.5,2.12,3.62.24.32.6.58.96.78,1.12.68,2.21,1.38,3.45,1.84.63.25,1.22.59,1.81.92.86.49,1.72.98,2.56,1.51.48.31.94.67,1.35,1.07,1.14,1.09,2.07,2.34,2.63,3.84.19.52.56,2.31.58,2.91.05,1.87.11,3.75.14,5.62.03,1.75.45,3.41,1.18,4.99.72,1.58,1.64,3.03,3.06,4.1.1.07.19.07.26-.04.02-.04.05-.1.03-.13-.28-.61-.55-1.23-.86-1.83-.09-.17-.28-.3-.43-.42-.89-.75-1.08-1.44-.61-2.47.12-.26.14-.48.11-.74-.05-.42-.21-.8-.37-1.18-.1-.24-.17-.5-.2-.76-.05-.48,0-.97.34-1.32.38-.4.53-.86.61-1.39.08-.46.24-.9.61-1.25.51-.46.83-1.04.88-1.77.01-.26.2-.47.47-.57.46-.18.78-.49,1.06-.89.41-.6.91-1.13,1.17-1.83.16-.43.6-.53,1.06-.37.15.05.29.13.42.21.21.12.42.05.57-.09.19-.19.31-.43.5-.6.32-.31.71-.43,1.15-.36.47.06.93.16,1.34.41.55.34,1.18.52,1.79.5.96-.05,1.85.25,2.76.44.25.06.51.11.77.13.28.01.54-.08.63-.36.12-.37.35-.64.6-.91.47-.54.48-.66-.1-1.1-.5-.39-.76-.85-.78-1.46,0-.17.02-.33-.01-.47-.16-.5-.34-.98-.95-1.12-.61-.15-.77-.66-.8-1.21,0-.21.05-.41.11-.62.08-.3.14-.61-.02-.9-.13-.25-.37-.36-.61-.45-.25-.11-.41-.33-.49-.58-.09-.25-.14-.51-.18-.76-.03-.21,0-.45.19-.56.63-.4.68-1,.61-1.65Z"/>
      <g>
        <path class="cls-1" d="M24.15,12.22s-.08.04-.13.05c.04.05.06.09.09.11.13.03.2-.02.16-.09-.01-.04-.08-.05-.12-.07h0ZM30.79,18.6c.02.08.04.17.07.26.03-.03.08-.06.11-.1.07-.1.04-.19-.07-.24-.02,0-.07.05-.11.08h0ZM39.6,37.6c-.08.03-.17.05-.25.09.07.06.14.15.21.16.08.01.17-.06.25-.08-.08-.05-.14-.11-.22-.16h0ZM48.66,22.59c-.11-.01-.16-.03-.21-.01-.05.01-.1.04-.13.07-.02.02,0,.08.03.11.03.04.07.08.12.1.14.05.3.1.44-.02-.09-.09-.19-.19-.25-.24h0ZM20.52,52.13c-.03-.08-.05-.15-.08-.24-.05.07-.12.14-.16.22-.02.02.02.08.04.12.07-.04.13-.07.2-.11h0ZM6.8,57.92c-.02-.09-.01-.23-.08-.27-.06-.04-.2-.02-.27.03-.14.08-.08.27.1.31.07.02.16-.04.24-.08h0ZM63.49,32c-.12.07-.25.13-.38.21-.14.08-.17.26-.08.36.13.14.27.08.39.02.14-.08.25-.19.22-.35-.01-.06-.09-.14-.16-.23h0ZM24.8,41.5c.23.07.4-.01.53-.2.03-.04.08-.11.06-.13-.06-.09-.12-.18-.2-.2-.22-.06-.39.05-.53.22-.03.04-.09.12-.08.13.06.07.14.13.22.18h0ZM22.93,43.67c-.36.04-.47.32-.56.6-.02.08,0,.19.05.26.06.11.28.07.38-.04.21-.25.25-.52.13-.82h0ZM18.19,55.82s-.05-.09-.09-.12c-.04-.01-.1-.01-.15,0-.26.06-.43.25-.57.45-.08.11-.08.21.02.26.08.04.2.1.26.07.28-.13.48-.34.52-.67h0ZM56.96,30.94s0,.11.02.14c.2.22.42.42.77.35.13-.03.18-.1.12-.22-.18-.38-.49-.51-.84-.37-.03.01-.05.06-.07.1h0ZM51.94,24.22c-.08.05-.19.08-.24.15-.04.08-.05.21-.01.27.18.26.44.42.76.45.08,0,.21-.05.24-.11.05-.06.03-.21-.01-.27-.2-.23-.4-.46-.74-.49h0ZM54.37,27.54c0,.1-.03.21,0,.3.08.19.24.33.45.36.14.03.29.03.44,0,.13-.02.09-.28-.1-.5-.1-.12-.2-.23-.31-.33-.14-.12-.41,0-.49.19h0ZM60.15,32.7c-.11.03-.23.03-.29.09-.05.06-.09.21-.05.27.24.34.55.59.94.74.08.03.22-.02.28-.08.05-.06.07-.21.03-.28-.21-.36-.5-.64-.91-.74h0ZM28.76,39.78c-.17,0-.36-.02-.57,0-.14.01-.3.05-.44.09-.17.05-.24.38-.1.51.39.39.96.39,1.33-.02.07-.09.07-.27.04-.4,0-.07-.15-.11-.26-.19h0ZM75.46,62.42c.28.03.58.07.89.1.15,0,.31-.03.46-.04.2-.03.38-.27.33-.43-.08-.24-.24-.41-.4-.41-.05,0-.1-.03-.15-.02-.55.12-1.1.26-1.65.39-.04,0-.07.07-.09.1-.06.1-.01.18.12.22.14.04.3.05.48.09h0ZM42.09,50.25c.12-.06.3-.1.38-.21.23-.29.53-.47.88-.61.09-.03.2-.11.22-.19.03-.17-.12-.25-.25-.32-.5-.3-1.03-.47-1.61-.54-.26-.04-.47.24-.39.52.15.5.34.98.77,1.35h0ZM79.35,66.59c-.56-.03-1.03-.1-1.5-.07-.47.02-.85-.38-1.42-.27.16.25.32.43.53.52.94.44,1.89.86,2.84,1.28.04.02.13,0,.14-.02.04-.09.11-.2.08-.26-.2-.36-.41-.72-.68-1.17h0ZM77.26,64.32c.1.01.2.02.31.04.26.03.48-.26.38-.52-.11-.23-.21-.46-.36-.68-.08-.11-.24-.26-.36-.26-.67.03-1.34-.09-2,.11-.08.02-.17.12-.19.2-.02.09.03.21.09.28.05.08.14.15.23.19.61.28,1.23.54,1.9.65h0ZM68.06,51.02c-.17-.08-.32-.19-.45-.18-.85.08-1.6.44-2.24,1-.09.08-.13.3-.09.41.19.54.99.79,1.43.48.61-.43.95-1.08,1.36-1.72h0ZM77,64.67c.26.03.52.09.78.09.62-.02.94.36,1.15.87.03.09.07.2.1.29.05.12-.1.3-.25.29-.31-.05-.62-.07-.92-.14-.76-.21-1.45-.56-2.09-1.02-.11-.08-.19-.24-.25-.38-.02-.05.08-.22.12-.22.26.01.52.04.77.08.2.03.41.1.6.14h0ZM76.11,59.65s-.1-.04-.14-.03c-.76.16-1.48.38-2.1.88-.04.03-.05.09-.05.14-.02.29.35.79.62.8.61,0,1.22.06,1.83-.12.25-.08.44-.35.37-.59-.09-.29-.19-.59-.31-.86-.04-.1-.14-.15-.22-.22h0ZM43.26,51.37s-.01.11.01.14c.66.69,1.45,1.12,2.43,1.11.07,0,.19-.11.2-.18.03-.74-.16-1.42-.66-1.99-.08-.08-.32-.11-.43-.03-.52.32-1.04.63-1.56.95h0ZM74.45,56.42c-.1,0-.22-.04-.3,0-.81.34-1.61.7-2.41,1.06-.15.06-.25.21-.21.36.04.14.14.28.25.36.12.08.3.14.44.12.92-.12,1.83-.35,2.66-.79.07-.05.13-.17.14-.25,0-.29-.34-.79-.57-.87h0ZM75.3,57.92c.1.04.21.06.27.14.23.22.38.5.39.81,0,.13-.11.34-.22.38-.58.2-1.18.39-1.77.56-.59.18-1.02-.05-1.35-.72-.04-.06.02-.18.07-.27.02-.04.07-.07.12-.09.73-.26,1.46-.53,2.19-.79.1-.03.21,0,.3-.02h0ZM70.07,55.88c.73-.56,1.54-1.03,2.37-1.47.12-.07.35-.1.43-.02.44.37.84.78,1.11,1.29.03.07-.02.2-.05.29-.02.04-.06.1-.1.11-.89.46-1.78.89-2.81.89-.1,0-.22,0-.3-.06-.33-.26-.65-.52-.65-1.03h0ZM50.79,39.08c-.15-.02-.3-.04-.46-.06-.52-.05-.9.18-1.17.6-.15.22-.24.47-.19.73.08.41.18.81.28,1.2.04.14.26.27.37.19.83-.45,1.72-.69,2.65-.8.15-.02.29-.11.44-.17.1-.04.17-.3.11-.39-.46-.77-1.17-1.16-2.02-1.3h0ZM54.01,42.13c-.1.02-.21.01-.3.06-.95.56-1.95.96-3.04,1.1-.15,0-.25.23-.17.35.64.96,1.87,1.48,2.95,1.25.72-.17,1.02-.58.96-1.33-.03-.31-.05-.62-.11-.93-.03-.2-.07-.41-.28-.51h0ZM68.09,54.39c-.33-.29-.61-.52-.86-.78-.06-.06-.03-.19-.04-.29,0-.04.01-.11.04-.15.46-.62.91-1.25,1.38-1.87.2-.27.54-.32.85-.17,1.09.53,2.01,1.25,2.75,2.22.16.2.12.55-.11.69-.71.41-1.43.83-2.16,1.22-.23.12-.5.12-.75-.02-.25-.14-.36-.46-.18-.63.23-.21.46-.43.71-.61.37-.28.75-.55,1.13-.83.08-.06.13-.16.17-.25.02-.03-.01-.1-.04-.12-.03-.04-.09-.08-.11-.06-.23.11-.47.2-.68.34-.67.4-1.25.93-2.1,1.31h0ZM58.71,32.06c.22.22.12.43.1.63-.06.52.18.9.58,1.21.57.42,1.21.59,1.91.49.26-.04.5-.15.66-.37.13-.2.05-.4,0-.6-.02-.09.01-.18.02-.27.29.09.57.21.86.28.43.1.82-.04,1.17-.3.21-.16.38-.37.43-.63.06-.31.06-.63.11-.93.09-.56.69-.8,1.19-.49.09.05.16.14.25.2.59.38,1.17.38,1.75-.02.17-.12.34-.25.52-.34.23-.12.74.04.85.25.1.2.18.38.25.58.16.41.41.68.86.81.44.12.62.52.72.93.01.06-.1.14-.15.22-.47-.34-.92-.69-1.38-1.03-.97-.69-1.96-.59-2.94-.06-.65.36-1.19.84-1.73,1.34-.39.35-.76.71-1.18,1.03-.32.25-.7.45-1.07.64-.83.47-1.71.45-2.57.11-1.12-.46-2.12-1.12-2.85-2.12-.3-.43-.65-.82-.92-1.27-.58-.94-1.27-1.77-2.01-2.58-.56-.61-1.07-1.28-1.59-1.93-.7-.91-1.53-1.7-2.59-2.21-.71-.33-1.38-.72-2.16-.91-.57-.13-1.13-.15-1.7-.02-.84.18-1.6.47-2.14,1.19-.12.17-.28.3-.43.45-.43.4-.73.88-.88,1.45-.06.26-.16.51-.27.74-.03.07-.16.11-.25.17-.06-.14-.16-.28-.18-.43-.1-.73-.17-1.46-.27-2.17-.08-.6.05-1.14.36-1.72.32-.06.68-.11,1.02-.22.18-.06.35-.22.49-.36.05-.06.09-.2.05-.28-.03-.07-.14-.16-.22-.16-.15,0-.31.06-.46.06-.08,0-.2-.07-.23-.14-.03-.07-.03-.23.03-.27.31-.31.62-.36.97-.18.18.1.36.21.55.28.41.15.83.12,1.19-.13.34-.23.68-.48,1.03-.7.07-.04.21,0,.29.04.08.03.13.14.19.23.08.13.14.28.23.4.57.77,1.27,1,2.2.74.15-.04.3-.1.42-.2.28-.22.57-.3.86-.09.24.18.16.45.08.71-.1.32.01.61.2.88.46.65,1.06.98,1.87.88.26-.03.52-.07.77-.08.23,0,.39.17.47.35.06.13.07.32.01.44-.09.19-.26.32-.38.48-.24.34-.25.85,0,1.17.49.66,1.08,1.14,1.98.97.43-.08.69.13.88.47.07.13.09.29-.11.38-.1.04-.19.09-.26.16-.3.26-.35.72-.14.99.33.41.74.74,1.22.95.29.13.6.18.91.08.19-.05.37-.12.54-.16h0ZM26.58,40.56c1.24.94,1.35.95,2.84.51.56-.16,1.05-.42,1.32-.93,1.69.41,3.14,1.09,4.45,2.07.21.15.15.5-.09.65-.18.11-.37.2-.59.15-.56-.15-1.11-.28-1.66-.47-1.16-.4-2.36-.4-3.55-.27-1.43.15-2.52.95-3.4,2.03-.6.72-1,1.58-1.44,2.41-.14.27-.25.57-.42.82-.48.77-.73,1.61-.86,2.5-.12.72-.23,1.44-.37,2.16-.32,1.57-1.03,2.94-2.14,4.11-.29.29-.53.64-.8.95-.46.5-.93.98-1.38,1.49-.93,1.01-2.11,1.47-3.45,1.63-1.86.21-4.74-.27-6.39-1.1-.1-.05-.14-.16-.06-.26.41-.5.87-.65,1.35-.39.46.25.9.52,1.36.77.4.21.8.08,1.05-.35.48-.84.48-.84,1.28-.57.1.04.19.09.29.12.67.21,1.26-.03,1.59-.64.07-.13.1-.3.17-.44.23-.49.55-.66.98-.41,1.01.57,1.38.27,2.04-.42.34-.37.46-.82.25-1.3-.23-.5-.07-.91.25-1.3.17-.2.37-.35.65-.37.8-.06,1.16-.62,1.4-1.29.11-.31.11-.62,0-.92-.09-.23-.23-.46-.33-.7-.11-.25-.07-.51,0-.77.08-.32.23-.56.59-.65.2-.05.4-.11.57-.21.38-.24.5-.71.29-1.1-.13-.23-.26-.45-.43-.65-.29-.36-.33-.74-.24-1.18.08-.41.25-.66.71-.66.2,0,.41-.09.58-.17.47-.21.73-.6.76-1.1.03-.37.03-.73-.12-1.07-.07-.15-.08-.3-.11-.45-.03-.16.21-.46.35-.46.32,0,.63.01.94,0,.98-.02,1.38-.33,1.68-1.29.05-.15.08-.31.12-.46h0ZM38.5,37.56c-.64-.05-1.23-.3-1.83-.43q-.11-.03-.57.25c.06.34.12.69.18,1.03-.12.02-.24.04-.32.02-.19-.08-.37-.2-.54-.3-1.21-.84-2.56-1.39-3.83-2.13-.39-.23-.87-.34-1.32-.45-.46-.12-.89-.28-1.28-.55-1.31-.89-2.49-1.91-3.13-3.4-.33-.77-.57-1.56-.65-2.4-.05-.47-.16-.92-.28-1.37-.24-.9-.66-1.75-.57-2.73.01-.13-.11-.28-.19-.4-.13-.22-.32-.42-.41-.66-.34-.95-.99-1.71-1.55-2.52-.55-.8-1.26-1.38-2.17-1.72-.3-.11-.58-.23-.76-.51-.12-.19-.33-.2-.55-.19-.25,0-.53.02-.77-.05-1.88-.61-3.79-1.16-5.37-2.44-.79-.34-1.33-.98-1.88-1.61-.61-.67-.91-1.51-1.11-2.37,0-.03.07-.08.12-.1.03-.01.1.02.12.05.26.27.53.51.74.79.73,1,1.68,1.72,2.65,2.41.52.36,1.07.63,1.68.8,1.91.53,3.8,1.1,5.7,1.67.86.25,1.61.73,2.35,1.22.17.12.34.25.45.43.63.89,1.31,1.75,1.68,2.8.14.39.31.77.5,1.14.26.52.48,1.03.45,1.63,0,.42.13.81.31,1.2.12.23.25.48.27.73.05.65.36,1.2.69,1.72.53.84,1.02,1.71,1.66,2.46,1.29,1.52,2.79,2.8,4.65,3.61,1.39.61,2.78,1.18,4.16,1.8.25.11.58.19.7.56h0ZM49.04,68.27s.01-.3.11-.58c.43-1.2.27-2.35-.18-3.51-.47-1.19-1.17-2.2-2.25-2.94-.52-.34-1.03-.68-1.59-.97-.64-.33-1.31-.29-1.98-.41-.18-.03-.4.08-.59.14-.74.26-1.46.59-2.28.38-.13-.03-.3.06-.44.11-.25.07-.49.18-.74.22-.41.06-2.65-.22-3.08-.37-.44-.13-.9-.27-1.32-.46-.38-.17-.74-.39-1.08-.63-.3-.2-.56-.45-.86-.67-.3-.2-.69-.34-.89-.62-.48-.67-1.21-1.12-1.6-1.88-.28-.55-.69-1.05-1.02-1.57-.31-.49-.62-.97-.88-1.48-.36-.7-.69-1.41-1.02-2.12-.71-1.54-1.06-3.16-.99-4.86.03-.82.31-1.52,1.01-2.01.3-.21.6-.42.9-.62.72-.5,1.52-.66,2.38-.49.05.02.11.06.11.1,0,.08-.01.21-.07.24-1.33.77-1.7,2.05-1.79,3.45-.03.47-.02.93-.01,1.4,0,.26.03.52.09.78.29,1.32.7,2.62,1.14,3.91.08.25.18.5.31.71.84,1.32,1.7,2.62,2.86,3.69.83.77,1.85,1.17,2.87,1.55.83.02,1.66.21,2.5.1.93-.12,1.86-.21,2.79-.33,1.93-.25,3.74.09,5.41,1.09.54.32,1.08.64,1.55,1.05,1.49,1.32,2.54,2.89,2.55,4.99,0,.68.09,1.37-.07,2.03-.24.97-.79,1.69-1.78,2-.08.04-.22,0-.29-.05-.06-.05-.07-.18-.05-.27.05-.25.11-.51.25-1.1h0ZM29.26,13.78c-.44-.04-.81.1-1.14-.16-.25-.19-.58-.27-.82-.46-.7-.55-1.54-.84-2.31-1.28-.45-.24-.96-.4-1.29-.86-.08-.09-.26-.15-.4-.17-1.29-.23-2.3-.93-3.19-1.84-.2-.2-.25-.44-.24-.71,0-.22-.09-.39-.32-.47-.14-.04-.32-.12-.39-.23-.39-.62-.78-1.23-.77-2,0-.56-.25-1.12,0-1.68.09.05.21.06.27.13.16.2.31.43.44.64,1.2,2.09,2.98,3.61,4.97,4.88,1.05.67,2.17,1.22,3.37,1.62,2.22.75,3.03,1.34,4.52,3.19.83,1.03,1.42,2.17,1.56,3.52.13,1.25.25,2.48.23,3.74-.02,1.35.05,2.7.14,4.06.05.67.19,1.34.38,1.99.57,1.93,1.41,3.7,2.72,5.24.27.33.57.61.88.88.58.51,1.16,1.03,1.74,1.57.05.04.03.18.02.27,0,.02-.1.04-.14.03-.59-.19-1.17-.44-1.82-.46-.2,0-.4-.1-.59-.17-.65-.22-1.28-.47-1.92-.65-.52-.16-.96-.41-1.28-.84-.91-1.22-1.79-2.44-2.04-4-.04-.19-.09-.41-.17-.6-.34-.74-.37-1.52-.33-2.29.05-.95.18-1.88.11-2.81-.01-.21.01-.42.07-.63.25-1.06.25-2.16.38-3.25.03-.32.01-.62-.08-.93-.12-.39-.18-.81-.29-1.21-.07-.25-.17-.49-.29-.72-.28-.5-.59-.98-.86-1.49-.13-.23-.28-.44-.51-.57-.45-.28-.55-.71-.56-1.3h0ZM51.51,6.41s.12.04.13.08c.38.94.98,1.69,1.67,2.42,1.04,1.1,1.99,2.28,2.92,3.47,1.4,1.81,1.38,3.74.39,5.73-.14.29-.35.52-.62.7-1.4.93-2.9,1.37-4.6,1.05-.82-.15-1.64-.3-2.47-.41-1.31-.19-2.61.01-3.88.3-.82.19-1.54.62-2.13,1.24-.14.15-.26.33-.42.46-.78.68-1.22,1.54-1.43,2.55-.07.3-.19.6-.26.9-.07.31-.18.62-.16.92.08,1.29.03,2.61.46,3.87.15.44.3.89.44,1.33.32,1.01.65,1.98,1.2,2.88.31.52.39,1.07.32,1.66,0,.09-.09.2-.17.23-.08.03-.2,0-.29-.04-.05-.02-.09-.06-.12-.09-.78-.9-1.58-1.8-2.36-2.71-.69-.8-1.13-1.74-1.43-2.76-.34-1.2-.68-2.41-.64-3.67,0-.16-.02-.33.02-.47.29-1.26.63-2.53,1.24-3.7.19-.37.43-.7.62-1.07.52-1,1.29-1.77,2.18-2.42.34-.25.68-.48,1.03-.71,1.23-.8,2.57-1.14,4.03-.92.82.13,1.64.32,2.46.48.77.14,1.53.3,2.31.42.63.09,1.25.05,1.85-.19.86-.35,1.29-1.09,1.13-2-.1-.52-.3-1-.32-1.53,0-.19-.16-.37-.27-.55-.17-.28-.32-.54-.34-.87-.01-.14-.12-.27-.21-.39-.62-.9-1.29-1.77-1.53-2.87-.44-.72-.68-1.52-.89-2.33-.09-.36-.08-.7.15-1.02h0ZM5.55,21.21c1.64.29,2.94.96,4.18,1.91,1.28.98,2.05,2.19,2.42,3.7.2.81.5,1.6.49,2.46.39,1.5.57,3.07,1.02,4.56.31,1.01.91,1.75,1.82,2.24.36.2.74.37,1.12.55.42.2.86.29,1.34.34,1.73.19,3.43,0,5.12-.31,1.13-.21,2.27-.37,3.41-.48.88-.09,1.77-.01,2.64.2,1.83.45,3.59,1.09,5.19,2.1.52.33,1,.76,1.47,1.16.63.55,1.25,1.11,2.04,1.43.17.06.28.29.39.45.08.13-.03.35-.17.37-.47.06-.92.13-1.39.16-.2,0-.42-.04-.6-.14-.55-.29-1.1-.6-1.63-.93-.67-.41-1.36-.76-2.13-.97-.39-.12-.78-.29-1.16-.46-.95-.43-1.88-.9-2.83-1.32-1.11-.48-2.25-.72-3.5-.53-1.51.24-2.96.57-4.31,1.3-.46.24-.95.44-1.43.63-.9.38-1.81.43-2.75.17-.4-.12-.81-.21-1.22-.25-.54-.05-.99-.3-1.42-.59-.75-.49-1.35-1.15-2-1.75-.19-.17-.32-.42-.41-.66-.23-.58-.42-1.19-.61-1.77-.06-.2-.12-.41-.12-.62,0-1.09-.12-2.18.1-3.27.11-.56.16-1.13.12-1.71-.14-2.08-1.02-3.81-2.41-5.3-.4-.43-.9-.69-1.46-.87-1.29-.41-2.62-.71-3.96-.9-.2-.03-.39-.11-.58-.19-.03,0-.05-.08-.05-.12s0-.13.04-.14c1.07-.45,2.16-.78,3.22-.46h0ZM79.24,68.64c-.05.14-.05.29-.11.32-.69.37-1.38.42-2.06-.06-.25-.19-.51-.36-.78-.5-.05-.03-.15.04-.26.06.17.22.33.42.48.63.09.11,0,.36-.13.38-.3.07-.61.16-.91.19-.14.02-.32-.03-.44-.11-.35-.22-.67-.48-1.01-.71-.03-.03-.1-.01-.14.01-.03.01-.07.08-.06.11.07.19.16.38.23.57.05.12-.08.35-.19.38-.67.16-1.22-.02-1.68-.54-.23-.26-.25-.68-.62-.85-.42.41.22.91-.15,1.36-.48,0-1,.01-1.52.01-.1,0-.19-.07-.33-.12-.12-.37-.25-.76-.39-1.14-.02-.06-.14-.08-.22-.09-.03-.01-.09.06-.1.1-.05.25-.09.51-.16.75-.02.09-.14.17-.22.19-.15.03-.31.03-.46,0-1.56-.28-2.99-.88-4.3-1.78-.34-.23-.66-.51-1.03-.8-.01-.33-.02-.69-.04-1.06-.01-.2-.25-.32-.47-.19-.05.03-.07.08-.12.11-.27.15-.5.08-.61-.19-.02-.04-.07-.08-.08-.13-.07-.51-.19-1-.53-1.41-.03-.03-.02-.1-.03-.15-.05-.26.19-.52.44-.49.31.04.58.23.91.15.18-.04.36-.29.3-.46-.11-.3-.25-.59-.57-.7-.2-.07-.42-.1-.59-.2-.11-.06-.17-.23-.28-.41.27,0,.47,0,.68-.01.04,0,.11-.05.12-.08.01-.1.02-.21,0-.28-.04-.09-.14-.15-.23-.21-.47-.32-.97-.6-1.43-.94-1.35-.98-2.62-2.06-3.89-3.14-.28-.23-.59-.43-.88-.65-.32-.26-.64-.53-.94-.81-.3-.3-.59-.59-.98-.78-.18-.09-.37-.21-.5-.36-.74-.89-1.83-1.38-2.56-2.29-.14-.18-.36-.17-.57-.09-.14.05-.24.29-.15.37.36.3.7.63,1.08.9,1.08.74,2.02,1.64,3.04,2.46,1.22.97,2.41,1.99,3.66,2.93.8.58,1.55,1.23,2.31,1.86.11.1.15.26.23.39-.23.1-.44.06-.62-.04-.4-.26-.79-.51-1.17-.79-1.51-1.12-3-2.24-4.51-3.37-.21-.15-.45-.27-.63-.46-.52-.54-1.18-.87-1.85-1.14-.87-.36-1.72-.75-2.53-1.23-.31-.19-.68-.27-.99-.45-.12-.07-.24-.22-.27-.36-.08-.29-.14-.62-.12-.91.08-1.19-.43-2.11-1.22-2.94-.58-.6-1.26-1.1-1.98-1.52-.58-.35-1.21-.62-1.81-.92-.05-.03-.1-.04-.14-.06-.39-.18-.85.02-1.21-.26-.32-.24-.62-.54-.95-.79-.73-.54-1.58-.79-2.44-1.02-.56-.15-1.1-.32-1.65-.49-.1-.04-.12-.31-.05-.41.17-.29.43-.45.73-.56.74-.28,1.5-.47,2.29-.47.26,0,.52,0,.78-.02.27-.02.41-.33.28-.57-.28-.51-.65-.95-1.07-1.34-.65-.63-1.08-1.4-1.42-2.22-.04-.11.13-.34.24-.33.93.11,1.84.31,2.69.73.19.09.38.15.58.2.24.05.53-.27.45-.5-.06-.19-.1-.41-.21-.58-.5-.69-.4-1.48-.39-2.25,0-.14.37-.33.5-.26.23.13.44.28.66.42.49.3.96.62,1.46.9.1.06.3.01.44-.03.16-.04.32-.34.29-.51-.08-.41-.16-.82-.24-1.23-.16-.84-.08-1.65.24-2.45.12.06.25.07.29.14.23.41.44.83.68,1.23.58,1,1.29,1.89,2.2,2.62.32.26.65.53.95.81.16.13.26.34.15.56-.53,1.01-.37,2.02-.12,3.05.4,1.73,1.48,2.96,2.83,4.01.33.26.73.39,1.16.4.52.01,1.03.08,1.48.11,1.94,2.04,4.04,3.73,6.33,5.19.7.44,1.44.84,2.11,1.33,1.37,1.04,2.8,2,3.95,3.31.17.2.37.36.57.54.1.08.34-.04.34-.2,0-.15.01-.32-.04-.45-.06-.13-.08-.2.08-.24.05,0,.12,0,.14.02.93.9,1.91,1.76,2.78,2.72.85.92,1.64,1.9,2.36,2.92.66.93,1.21,1.95,1.8,2.93.1.17.12.38.17.59.01.04,0,.14-.02.15-.08.04-.19.11-.27.08-.15-.03-.29-.1-.43-.16-.47-.23-.91-.54-1.4-.7-.9-.29-1.7-.78-2.54-1.2-1.21-.6-2.31-1.4-3.56-1.93-.38-.16-.74-.4-1.08-.64-1.65-1.17-3.38-2.26-4.93-3.58-.35-.3-.72-.59-1.09-.88-.54-.42-1.02-.9-1.46-1.42-.64-.75-1.29-1.5-1.94-2.24-.11-.13-.44-.08-.56.07-.1.14-.08.29,0,.44.02.05.05.1.08.14,1.29,1.37,2.49,2.81,3.99,3.97,1.32,1.02,2.57,2.12,4.02,2.96.18.12.34.23.52.36,2.11,1.55,4.41,2.76,6.76,3.91.75.36,1.5.71,2.25,1.09.13.07.25.2.35.29.03.04.03.11.02.15,0,.04-.04.09-.07.1-.1.02-.2.05-.3.05-1.09-.1-2.17-.32-3.22-.65-.3-.08-.56-.25-.85-.37-.1-.04-.3.09-.36.24-.07.16-.04.35.08.42.58.36,1.19.65,1.85.81,1.27.3,2.55.57,3.87.42.59-.08,1.12.07,1.62.43,1.11.77,2.3,1.42,3.59,1.85h0ZM56.47,47.25c-.31-.75-.89-1.24-1.53-1.67-.17-.11-.23-.08-.41.31.46.39.91.8,1.4,1.17.15.12.38.11.58.16.01.09,0,.2.04.25.04.04.16,0,.24,0-.02-.04-.03-.1-.07-.11-.08-.05-.17-.08-.26-.11h0ZM64.9,53.55c.16.14.32.3.48.46.08.04.15.1.23.14.01.01.06-.03.08-.04-.09-.14-.23-.08-.35-.07.08-.21.02-.34-.21-.42-.09,0-.18-.02-.27-.04.09-.18.02-.28-.15-.32-.04-.01-.1.03-.14.05.02.04.03.09.06.1.09.06.18.09.27.14h0ZM61.47,51.04q-.04-.37-.53-.43c-.07-.11-.12-.28-.21-.31-.21-.08-.44-.09-.66-.14.01-.15-.05-.27-.19-.33-.13-.04-.27-.06-.41-.11-.04-.08-.07-.17-.12-.25,0-.02-.09,0-.13,0,.1.08.2.14.3.21.11.27.37.32.59.43.19.35.48.48.86.46-.03.4.28.38.54.44.06.08.12.16.19.22.02.02.08-.01.12-.03-.07-.17-.21-.14-.35-.17h0ZM50.54,5.07c.48-.52.88-1.08,1.44-1.47.2-.14.52-.13.71.08.1.1.2.29.18.4-.08.35-.24.68-.33,1.04-.08.31-.07.63.06.92.34.76.68,1.52,1.25,2.16,1.15,1.28,2.23,2.62,3.35,3.93.65.77,1.22,1.56,1.56,2.52.14.41.19.8.11,1.23-.41,2.49-1.95,3.97-4.22,4.79-.89.32-1.83.45-2.78.34-1.35-.12-2.7-.26-4.04-.4-.8-.08-1.57-.08-2.26.41-.04.03-.09.09-.09.13,0,.03.05.11.08.11.26,0,.52.03.77-.01.25-.04.5-.17.74-.25.54-.15,1.04-.2,1.28.46.36.33.75.58,1.25.37.26-.09.51-.13.76-.04.44.15.87.33,1.31.49.03.28.06.53.09.81.16-.01.32.01.47-.02.21-.02.4,0,.58.14.29.22.58.43.87.66.26.19.43.44.47.78,0,.1,0,.21.05.3.13.3.32.59.66.62.93.07,1.25.83,1.7,1.44.05.07.04.21.03.31-.11.86-.11.86.46,1.54.24-.01.5-.03.79-.04.28.27.58.56.87.86.16.17.13.35.03.56-.2.38-.18.39.17.75.09-.04.2-.05.28-.12.78-.73.98-.39,1.41.3.02.05.03.1.06.14.31.61.5.69,1.08.53.15-.04.31-.09.43-.18.12-.09.25-.23.25-.35.01-.26-.04-.53.2-.71.3-.22.58-.44.97-.45.56.42,1.09-.03,1.63-.09.34-.04.56-.23.65-.58.06-.29.29-.43.56-.47.31-.03.63-.03.93-.03.23,0,.44.14.5.32.11.37.26.63.67.77.54.18,1.05.46,1.53.67.41.6.79,1.16,1.18,1.7.41.56.69,1.18.58,1.89-.07.48.06.93.17,1.38.09.36.2.71.29,1.06.05.2-.06.42-.24.52-.19.08-.51.01-.54-.16-.16-.72-.71-1.25-1-1.92-.36-.82-1.02-1.45-1.84-1.87-.61-.31-1.23-.26-1.8.07-.4.23-.75.56-1.1.87-.69.63-1.38,1.26-2.17,1.78-.89.59-1.86.95-2.94.94-.25,0-.52-.06-.74-.16-.57-.28-1.12-.56-1.66-.88-.5-.3-.91-.68-1.28-1.14-1-1.2-2.04-2.37-3-3.6-.16-.21-.3-.43-.45-.64-.18-.25-.34-.54-.56-.76-1.18-1.19-2.35-2.37-3.66-3.42-.49-.41-1.04-.66-1.67-.81-1.23-.27-2.23.04-3.13.94-1,.99-1.38,2.19-1.44,3.53-.02.44.16.81.56,1.06.17-.1.35-.21.53-.31.2-.1.48-.02.55.16.29.78.71,1.5,1.17,2.2.52.79,1.13,1.49,1.63,2.3.36.58.89,1.03,1.5,1.34.78.41,1.58.79,2.37,1.18.7.35,1.34.8,1.88,1.37.28.3.5.67.81.95.66.59.98,1.33,1.16,2.17.1.52.21,1.02.33,1.62.4.56.89,1.15,1.55,1.58.22.14.38.37.56.55,1.62,1.56,3.39,2.94,5.28,4.16.18.12.35.24.53.33.35.16.7.16,1.05-.03.64-.35,1.29-.68,1.95-1.01.72-.37,1.49-.46,2.29-.32.63.11,1.19.31,1.68.77.64.61,1.34,1.15,2.01,1.74.16.13.3.29.44.45,2.36,2.75,4.28,5.79,5.85,9.05.34.7.58,1.46.65,2.24.15,1.51,1,2.73,1.72,3.99.23.4.64.69.95,1.03.16.17.11.59-.1.68-.27.14-.56.31-.86.37-1.43.29-2.87.55-4.3.81-.31.06-.62.05-.93.08-.52.08-1.04.14-1.54.25-.52.12-1.03.19-1.55.15-1.56-.08-3.13-.04-4.67-.34-.16-.02-.32-.03-.46-.09-1.32-.48-2.69-.85-3.85-1.69-.8-.58-1.69-1.04-2.34-1.81-.3-.36-.61-.72-.89-1.09-.28-.38-.45-.82-.5-1.3-.03-.36-.09-.73-.15-1.08-.07-.37-.25-.69-.51-.95-.7-.7-1.39-1.4-2.22-1.96-1.08-.73-2.08-1.58-3.12-2.35-.42-.31-.86-.59-1.29-.89-.43-.29-.88-.56-1.3-.87-.64-.46-1.32-.85-2.08-1.04-1.02-.26-1.96-.71-2.89-1.18-.47-.23-.92-.48-1.44-.56-.42-.07-.78-.27-1.14-.5-1.2-.77-2.19-1.76-2.94-2.98-.31-.5-.54-1.02-.63-1.59-.03-.2-.07-.41-.12-.62-.08-.31-.24-.56-.5-.77-1.39-1.19-2.94-1.98-4.82-1.98-.1,0-.21-.01-.31-.03-.15-.01-.35-.26-.35-.47,0-.26.02-.52.04-.8-.52-.5-1.14-.65-1.86-.49-.67.14-1.08.54-1.32,1.19-.5,1.34-.62,2.74-.66,4.15,0,.21.02.4.05.62.11.66.23,1.34.33,2.01.2,1.33.78,2.47,1.68,3.47.24.27.51.52.74.81.63.81,1.54,1.25,2.41,1.7.66.32,1.4.42,2.14.45.84.03,1.67,0,2.5-.17,1.02-.21,2.08-.2,3.11-.28,1-.08,1.97.14,2.87.65,1.52.82,2.92,1.8,4.21,2.96.27.26.5.54.64.88.27.74.58,1.45.81,2.21.56,1.8.26,3.51-.71,5.1-.15.26-.41.48-.65.66-.61.42-1.31.65-2.02.82-.29.06-.62.02-.93,0-.67-.06-.84-.48-.45-1.09.08-.14.19-.25.27-.36-.09-.48-.17-.94-.26-1.4-.09-.48.1-.8.55-1,.13-.05.26-.14.44-.25-.09-.14-.15-.26-.23-.36-.35-.39-.45-.81-.22-1.3.02-.04.04-.1.07-.14.31-.47.12-.91-.11-1.31-.1-.19-.23-.37-.49-.29-.1.02-.21.03-.31.03-.89-.01-1.37-.34-1.49-1.26-.02-.21-.05-.42-.08-.62-.03-.18-.31-.35-.48-.32-.15.03-.3.07-.45.11-.25.06-.5.13-.75.2-.29-.17-.55-.34-.83-.5-.17-.09-.45.01-.52.2-.06.19-.08.41-.15.6-.03.08-.11.2-.2.22-.45.18-.9.25-1.34,0-.27-.16-.5-.36-.77-.55-.24.19-.44.36-.65.5-.55.37-1.05.34-1.58-.06-.12-.1-.22-.22-.34-.32-.47-.4-1-.53-1.59-.28-.14.05-.29.15-.44.16-.2.01-.42.01-.6-.06-.65-.28-1.16-.71-1.3-1.45-.03-.21-.31-.33-.49-.27-.15.05-.29.13-.44.17-.75.2-1.05.05-1.35-.65-.12-.29-.18-.6-.16-.91.03-.45-.2-.81-.5-1.11-.1-.1-.25-.2-.39-.21-.98-.05-1.32-.7-1.49-1.52-.04-.26-.05-.52-.08-.71-.19-.31-.45-.37-.67-.48-.53-.26-.76-.69-.71-1.27,0-.06.01-.1.03-.16.19-.75,0-1.31-.73-1.68-.46-.23-.62-.7-.59-1.19.01-.36.08-.73.12-1.05-.34-.31-.64-.59-.96-.84-.04-.04-.22.02-.26.07-.52.86-.77,1.8-.86,2.81-.13,1.69-.62,3.28-1.58,4.69-.09.13-.16.28-.26.39-.98,1.08-1.95,2.18-2.96,3.23-1.31,1.39-2.94,1.91-4.82,1.77-1.3-.1-2.6-.17-3.89-.42-.47-.09-.91-.2-1.34-.4-1.09-.52-2.15-1.05-3.15-1.72-.36-.23-.67-.49-.93-.83-.37-.44-.73-.89-1.11-1.31-.28-.31-.53-.62-.69-1.01-.15-.38-.43-.71-.68-1.05-.36-.47-.54-1-.62-1.58-.03-.22.1-.51.24-.51.22,0,.42.05.55.22.1.12.2.25.26.4.19.42.51.61.97.66.33.03.39.17.36.55-.05.59-.04.59.48.78.15.05.3.09.45.15.45.16.8.43,1.02.9.18.39.52.67.99.6.69-.09,1.22.11,1.61.71.18.27.47.38.83.3.21-.04.41-.04.62-.09.52-.14,1.02-.17,1.54.05.42.17.81.06,1.19-.14.42-.22.82-.45,1.25-.66.23-.11.49-.23.74-.22.71.06,1.05-.25,1.15-.94.04-.32.3-.55.57-.71.18-.1.38-.18.56-.28.79-.36.78-.36,1.26-1.06.16-.23.23-.47.14-.74-.03-.1-.07-.2-.09-.31-.06-.32,0-.62.21-.88.2-.25.4-.51.64-.7.45-.36.59-.83.62-1.38.02-.37.04-.72-.06-1.08-.12-.43-.05-.88.25-1.18.64-.63.69-1.51,1.04-2.26.1-.21.03-.51.02-.76-.05-.75.24-1.38.78-1.8.69-.53,1.17-1.18,1.54-1.94.32-.66.91-.97,1.63-1.07.56-.07,1.13-.17,1.69-.29.07-.01.17-.13.17-.21,0-.07-.05-.21-.12-.23-.19-.08-.4-.17-.59-.16-1.67.06-3.34.17-4.87.95-.56.29-1.15.51-1.71.78-.88.41-1.78.56-2.74.39-.62-.11-1.24-.18-1.86-.31-1.16-.23-2.12-.83-2.95-1.67-.07-.08-.14-.15-.22-.23-.96-.87-1.53-1.95-1.83-3.21-.12-.52-.21-1.01-.2-1.54.03-.99.03-1.98.19-2.96.1-.56.07-1.14.08-1.72,0-.21-.03-.41-.08-.62-.41-1.6-1.1-3.05-2.37-4.14-.19-.17-.43-.29-.67-.4-1.2-.57-2.49-.8-3.79-.85-.95-.04-1.86-.22-2.77-.45-.05-.02-.11-.03-.14-.06-.1-.12-.22-.23-.26-.37-.05-.14,0-.3.18-.38.48-.21.95-.44,1.44-.61.69-.22,1.4-.41,2.11-.59.67-.18,1.33-.18,2.01-.05,1.57.3,2.97.97,4.34,1.74.75.42,1.22,1.14,1.7,1.82.48.67.83,1.44,1.28,2.13.43.67.65,1.43.81,2.19.13.67.21,1.34.3,2.01.17,1.37.5,2.66,1.03,3.93.14.34.36.63.61.9.64.74,1.51.91,2.41.95.98.04,1.98,0,2.97-.04.31,0,.63-.06.93-.14,1.52-.37,3.06-.65,4.63-.71.09,0,.17-.1.23-.17.07-.09.03-.19-.1-.24-.44-.18-.81-.45-1.16-.78-.32-.3-.51-.64-.5-1.09,0-.32-.05-.63-.13-.93-.09-.35-.24-.68-.63-.84-.44-.18-.61-.51-.63-.98-.03-.59.05-1.13.33-1.67.18-.34.03-.75-.26-.97-.21-.16-.44-.28-.64-.45-.54-.47-.63-1.04-.28-1.69.05-.09.12-.17.18-.25.16-.25.12-.5.04-.75-.14-.4-.35-.75-.81-.88-.1-.03-.2-.06-.3-.09-.8-.36-1.23-.92-1.12-1.84.03-.31-.18-.51-.44-.51-.21,0-.42.05-.62.02-.42-.06-.81-.18-1.08-.55-.12-.16-.27-.31-.43-.45-.25-.22-.55-.3-.87-.17-.25.09-.49.19-.74.25-.33.08-.62-.02-.87-.24-.14-.15-.27-.32-.37-.5-.32-.57-.82-.82-1.44-.73-.96.14-1.61-.28-2.07-1.06-.17-.29-.38-.48-.75-.44-.15.03-.32.02-.46-.03-.36-.12-.64-.35-.7-.76-.03-.15-.02-.31-.02-.47,0-.28-.12-.5-.39-.62-.1-.05-.19-.09-.28-.14-.34-.2-.54-.48-.5-.9,0-.11.02-.21.03-.31.05-.45-.15-.79-.49-1.09-.3-.26-.4-.61-.27-1,.17-.52.05-1.03-.01-1.54-.08-.52-.09-1.04.12-1.54.05-.12.25-.22.38-.18.26.09.5.23.52.52.06,1.35.78,2.36,1.68,3.25.82.8,1.76,1.49,2.73,2.09.92.58,1.94,1,3.03,1.22,1.18.23,2.34.53,3.49.88.98.29,1.83.75,2.56,1.45.11.11.21.23.34.32,1.42,1.08,2.25,2.57,2.94,4.18.16.38.29.78.51,1.14.47.77.78,1.6.94,2.48.19,1.04.62,2,1.04,2.94.76,1.7,1.95,3.08,3.51,4.13.12.08.28.12.42.17.04,0,.1-.02.14-.06.02-.02.03-.09.02-.11-.2-.49-.44-.95-1-1.12-.44-.12-.67-.48-.82-.88-.11-.3-.19-.61-.29-.9-.12-.37-.1-.71.15-1.03.07-.08.12-.17.16-.27.12-.25.08-.56-.11-.72-.12-.11-.25-.19-.36-.29-.69-.6-.74-1.53-.1-2.2.14-.15.32-.27.46-.42.07-.07.12-.18.13-.28.05-.52.08-1.04-.22-1.51-.08-.14-.2-.26-.25-.4-.13-.35-.14-.72.08-1.05.17-.25.37-.5.56-.74.22-.26.26-.56.27-.88,0-.22-.06-.41-.25-.54-.22-.13-.47-.24-.66-.41-.37-.34-.45-.84-.23-1.28.13-.28.29-.56.46-.89-.17-.51-.43-1.03-.97-1.3-.45-.23-.74-.55-.94-.99-.06-.16-.13-.3-.23-.41-.21-.25-.43-.44-.8-.38-.25.04-.52.04-.78.04-.7-.01-.98-.26-1.16-1-.03-.1-.05-.21-.08-.3-.04-.14-.26-.17-.39-.06-.2.17-.37.38-.59.51-.17.11-.4.12-.59-.02-.56-.39-1.06-.85-1.24-1.55-.04-.16-.11-.29-.17-.44-.8-.38-1.57-.8-2.46-.93-.45-.06-.73-.38-.88-.8-.09-.3-.15-.61-.26-.9-.16-.4-.39-.74-.86-.84-.15-.03-.3-.1-.42-.2-.31-.21-.51-.54-.51-.92,0-.25,0-.54.11-.77.31-.67.3-1.3-.07-1.95-.14-.23-.08-.52.05-.75.39-.65.51-1.35.36-2.11-.05-.25,0-.52,0-.79.01-.21.18-.46.32-.46.23-.01.6.22.59.42-.02.7.32,1.3.5,1.95.36,1.42,1.26,2.5,2.12,3.62.24.32.6.58.96.78,1.12.68,2.21,1.38,3.45,1.84.63.25,1.22.59,1.81.92.86.49,1.72.98,2.56,1.51.48.31.94.67,1.35,1.07,1.14,1.09,2.07,2.34,2.63,3.84.19.52.56,2.31.58,2.91.05,1.87.11,3.75.14,5.62.03,1.75.45,3.41,1.18,4.99.72,1.58,1.64,3.03,3.06,4.1.1.07.19.07.26-.04.02-.04.05-.1.03-.13-.28-.61-.55-1.23-.86-1.83-.09-.17-.28-.3-.43-.42-.89-.75-1.08-1.44-.61-2.47.12-.26.14-.48.11-.74-.05-.42-.21-.8-.37-1.18-.1-.24-.17-.5-.2-.76-.05-.48,0-.97.34-1.32.38-.4.53-.86.61-1.39.08-.46.24-.9.61-1.25.51-.46.83-1.04.88-1.77.01-.26.2-.47.47-.57.46-.18.78-.49,1.06-.89.41-.6.91-1.13,1.17-1.83.16-.43.6-.53,1.06-.37.15.05.29.13.42.21.21.12.42.05.57-.09.19-.19.31-.43.5-.6.32-.31.71-.43,1.15-.36.47.06.93.16,1.34.41.55.34,1.18.52,1.79.5.96-.05,1.85.25,2.76.44.25.06.51.11.77.13.28.01.54-.08.63-.36.12-.37.35-.64.6-.91.47-.54.48-.66-.1-1.1-.5-.39-.76-.85-.78-1.46,0-.17.02-.33-.01-.47-.16-.5-.34-.98-.95-1.12-.61-.15-.77-.66-.8-1.21,0-.21.05-.41.11-.62.08-.3.14-.61-.02-.9-.13-.25-.37-.36-.61-.45-.25-.11-.41-.33-.49-.58-.09-.25-.14-.51-.18-.76-.03-.21,0-.45.19-.56.63-.4.68-1,.61-1.65Z"/>
        <path class="cls-1" d="M43.68,45.03c.1.01.22,0,.3.03.14.08.26.18.38.27.64.52,1.21,1.15,1.95,1.55.05.02.08.06.12.09.85.85,1.76,1.61,2.67,2.39,1.5,1.29,2.95,2.63,4.43,3.94.93.83,1.89,1.64,2.82,2.47,1.05.94,2.18,1.76,3.33,2.57,1.02.71,2.04,1.45,3.05,2.18,1.28.91,2.6,1.72,4.04,2.36.23.1.43.27.64.42.04.03.06.1.05.15,0,.02-.07.05-.12.05-.05.03-.1.04-.15.03-1.07-.39-2.13-.8-3.08-1.46-1.03-.71-2.09-1.37-3.07-2.15-.65-.52-1.35-.97-2.05-1.42-1.04-.7-2.01-1.5-2.95-2.31-1.55-1.32-3.06-2.66-4.55-4.04-.99-.93-2.06-1.76-3.08-2.64-.59-.52-1.16-1.05-1.73-1.58-.84-.78-1.78-1.43-2.7-2.11-.16-.12-.33-.27-.46-.41-.04-.06,0-.2.02-.29.01-.03.09-.06.13-.08Z"/>
        <path class="cls-1" d="M63.75,54.6c-.02.23-.23.35-.35.27-.68-.46-1.36-.93-2.04-1.39-.84-.61-1.7-1.18-2.58-1.73-1.25-.75-2.37-1.67-3.45-2.65-.54-.49-1.08-.98-1.6-1.48-.14-.14-.25-.33-.35-.5-.03-.07,0-.2.04-.28.06-.11.17-.12.27-.05.36.3.72.6,1.07.9.78.69,1.55,1.38,2.33,2.06,1.02.9,2.19,1.57,3.34,2.28,1.1.69,2.12,1.5,3.17,2.24.1.07.12.26.16.33Z"/>
        <path class="cls-1" d="M51.93,46.55c.03.17-.03.3-.2.33-.14,0-.31,0-.45-.04-1.33-.5-2.52-1.23-3.6-2.14-.23-.19-.37-.49-.55-.74-.08-.12-.01-.3.13-.39.14-.09.34-.15.42-.03.95,1.39,2.39,2.11,3.84,2.79.09.05.19.08.29.12.04.01.08.06.12.1Z"/>
        <path class="cls-1" d="M49.15,47.53c.1,0,.22.03.29.1.9.95,1.97,1.69,3.04,2.43.1.08.15.24.21.38.04.11-.03.21-.16.2-.15-.02-.31-.04-.44-.11-1.03-.63-1.89-1.46-2.81-2.23-.15-.12-.25-.32-.36-.49-.07-.12-.02-.21.08-.25.05-.02.1-.04.15-.03Z"/>
        <path class="cls-1" d="M47.41,45.77c-.12.08-.23.18-.35.21-.09.03-.21-.04-.28-.1-.79-.68-1.55-1.39-2.4-1.98-.08-.06-.12-.18-.16-.26-.02-.04.01-.11.05-.14.08-.06.17-.14.25-.13.14.02.29.1.41.17.91.62,1.66,1.42,2.49,2.22Z"/>
        <path class="cls-1" d="M59.32,52.92c.05,0,.12-.01.15,0,.63.51,1.26,1.02,1.88,1.53.03.03.03.12,0,.15-.06.07-.13.16-.21.16-.14,0-.32,0-.44-.08-.54-.29-1.03-.65-1.44-1.12-.13-.16-.17-.36-.07-.56.02-.05.08-.06.12-.09Z"/>
        <path class="cls-1" d="M49.75,53.64c-.13.05-.28.16-.41.13-.36-.06-.67-.25-.84-.6-.03-.08-.03-.22.02-.29.04-.06.19-.11.25-.09.32.17.63.34.93.54.05.03.03.17.05.29Z"/>
        <path class="cls-1" d="M66.73,57.3c-.08.04-.18.12-.24.11-.38-.09-.61-.38-.77-.71-.03-.06,0-.21.07-.26.06-.05.21-.08.27-.04.24.19.47.39.67.61.05.06,0,.19,0,.29Z"/>
        <path class="cls-1" d="M65.74,63.89c.15.1.36.22.56.35.03.01.01.1,0,.14,0,.04-.03.09-.07.1-.42.13-.79,0-1.16-.19-.12-.07-.15-.15-.08-.26.06-.07.13-.16.21-.18.14-.01.3.01.53.03Z"/>
        <path class="cls-1" d="M69.14,57.8c.37.2.65.5.82.88.04.08,0,.2-.04.3-.04.11-.32.14-.41.05-.3-.3-.59-.6-.59-1.07,0-.03.05-.09.08-.11.03-.03.08-.04.14-.05Z"/>
        <path class="cls-1" d="M46.64,41.67c-.04.12-.28.18-.38.12-.31-.21-.53-.47-.48-.87,0-.09.07-.2.14-.24.07-.04.21-.05.26-.02.32.2.46.51.5.88,0,.04-.03.1-.05.14Z"/>
        <path class="cls-1" d="M66.92,68.61c-.08.04-.2.12-.32.14-.06,0-.18-.1-.2-.17-.07-.25-.04-.49.13-.7.07-.1.17-.11.25,0,.22.26.23.34.14.75Z"/>
        <path class="cls-1" d="M72.13,61.55s.14.14.22.25c.1.14.04.33-.09.38-.09.03-.2.04-.27,0-.19-.1-.28-.26-.26-.49.01-.15.19-.25.4-.12Z"/>
        <path class="cls-1" d="M65.93,57.62c.1.09.22.17.32.28.12.14.09.28,0,.41-.08.12-.29.12-.4-.02-.1-.12-.18-.26-.22-.39-.02-.07.07-.18.13-.25.02-.03.1-.03.18-.03Z"/>
        <path class="cls-1" d="M64.54,66.91c.26.11.35.33.38.61.02.14-.13.36-.22.32-.13-.06-.29-.15-.34-.26-.11-.25-.06-.5.18-.67Z"/>
      </g>
    </g>
  </g>
</svg>