<?xml version="1.0" encoding="UTF-8"?>
<svg id="Layer_2" data-name="Layer 2" xmlns="http://www.w3.org/2000/svg" viewBox="0 0 136.16 116.18">
  <defs>
    <style>
      .cls-1 {
        fill: #5c2f1c;
      }

      .cls-1, .cls-2 {
        fill-rule: evenodd;
      }

      .cls-2 {
        fill: #efc983;
      }
    </style>
  </defs>
  <g id="_Layer_" data-name="&amp;lt;Layer&amp;gt;">
    <g>
      <path class="cls-2" d="M68.92,43.91c-.21.71-.61,1.29-1.17,1.75-.27.23-.58.41-.87.62-.39.27-.81.51-1.16.82-.66.6-1.28,1.24-1.91,1.87-.25.25-.44.55-.6.88-.59,1.17-1.03,2.4-1.43,3.65-.11.34-.23.67-.37,1-.13.28-.34.49-.62.6-.27.12-.55.24-.83.31-.6.16-1.11.49-1.51.92-.81.88-1.53,1.82-1.9,2.99-.39,1.25-.86,2.47-1.15,3.74-.04.17-.14.32-.2.45-.43.31-.89.41-1.36.5-.49.09-.86.37-1.17.76-.11.14-.24.27-.32.43-.37.67-.97,1.02-1.68,1.25-.33.12-.68.19-1.01.33-.49.21-1.01.39-1.44.69-.4.28-.88.38-1.25.66-.39.31-.79.51-1.24.68-.22.08-.44.19-.62.35-.64.56-1.39.9-2.16,1.25-.54.24-1.03.56-1.5.95-.78.64-1.6,1.25-2.42,1.82-2.01,1.4-3.92,2.9-5.54,4.74-.55.62-1.16,1.21-1.86,1.66-.86.56-1.57,1.27-2.19,2.07-.33.43-.69.82-1.08,1.18-.25.25-.52.48-.76.75-1.14,1.3-2.27,2.6-3.52,3.8-.17.16-.33.35-.48.53-.76.91-1.54,1.81-2.29,2.73-.87,1.06-1.75,2.1-2.55,3.22-.93,1.31-1.99,2.52-2.69,3.98-.16.32-.41.59-.6.89-.64,1.07-1.28,2.15-1.91,3.22-.42.73-.69,1.51-.68,2.38,0,.23-.06.46-.08.63-.27.28-.56.35-.86.39-1.02.14-2.01-.14-3.01-.26-1.54-.21-2.96-.84-4.32-1.59-.96-.86-2.25-1.03-3.33-1.64-.32-.18-.69-.09-1,.15-.27.22-.33.72-.1.96.12.13.25.26.4.35,1.02.61,2.08,1.16,3.06,1.83.91.62,1.9,1,2.93,1.28,1.5.4,3.05.5,4.57.74,1.18-.07,2.34-.42,3.54-.33.17.02.35-.06.52-.1l.34-.11c.8-.19,1.61-.42,2.44-.49.29-.02.59-.09.88-.15,1.8-.39,3.57-.9,5.3-1.54.37-.14.73-.41,1.18-.34.62.25,1.14.65,1.54,1.18,1.01,1.32,2.4,2.11,3.87,2.79.81.38,1.64.72,2.46,1.05.88.37,1.77.7,2.63,1.09.63.28,1.27.31,1.92.17.64-.14,1.27-.3,1.89-.51.97-.32,1.95-.52,2.97-.5.3,0,.6,0,.89-.03,1.18-.17,2.36-.29,3.43-.87,1-.53,1.96-1.12,3.1-1.32.11-.02.21-.1.32-.16.62-.33,1.27-.65,1.88-1.03.81-.51,1.7-.83,2.47-1.26.2.04.35.03.42.1.59.5,1.21.97,1.74,1.54,1.55,1.67,3.43,2.68,5.67,3.16,1.45.3,2.91.56,4.35.94,1.21.32,2.47.33,3.69-.12.44-.17.92-.25,1.35-.46,1.62-.75,3.26-1.46,4.72-2.49.09-.06.22-.07.41-.12l.59.27c.42.21.82.53,1.27.66,1.58.48,3.13,1.08,4.79,1.34,2.09.32,4.13.27,6.18-.25,1.1-.28,2.16-.64,3.24-.97.29-.09.55-.24.85-.29.9-.14,1.68-.55,2.49-.94.42-.21.83-.48,1.32-.49.41.08.82.19,1.15.49.12.25.23.53.37.79.05.1.17.16.23.22.43,0,.85-.02,1.26,0,.19,0,.25.2.25.4-.17.22-.38.45-.53.69-.24.38-.1.68.44.73.27-.18.57-.37.86-.57.46-.33.97-.44,1.53-.35l1.05.19c.35.06.69.16,1.04.21,1.06.16,2.12.32,3.16.58.33.09.72.11,1.06.04,1.11-.21,2.21-.49,3.22-1,1.06-.54,2.15-1,3.43-1.45.41.2.8.35,1.16.56.68.39,1.43.56,2.17.79.45.14.94.14,1.4.26.76.19,1.54.15,2.31.09.53-.04,1.06-.15,1.59-.19.48-.04.93-.17,1.38-.35,1.43-.57,2.87-1.15,4.23-1.89,1.05-.57,2.05-1.19,2.9-2.06.41-.43.88-.8,1.48-.98.23-.07.45-.14.67-.45l.55-1.37c.1-.27-.09-.6-.4-.68-.17-.03-.36-.08-.53-.05-.4.07-.8.18-1.15.27-1.29,1.59-2.72,2.92-4.51,3.81-.16.08-.31.18-.46.27-1.55.93-3.2,1.53-5.02,1.66-1.41.1-2.71-.22-3.91-.96-.54-.33-.9-.78-.84-1.46.02-.24-.03-.47-.21-.68l-.7-.45c-.21-.36-.18-.73-.06-1.07.23-.68.47-1.34.41-2.08-.02-.17.04-.36.12-.52.35-.77.46-1.59.5-2.44.03-.41.06-.84.17-1.23.21-.74.2-1.52.39-2.28.18-.74.12-1.54.17-2.31.02-.3.06-.59.1-.89.23-1.65.35-3.31.33-4.97-.02-1.43-.06-2.86-.09-4.29-.02-.98-.31-2.57-.61-3.67-.24-.86-.49-1.72-.42-2.6l1.43-2.95c-.11-1.38.54-2.64.75-3.99.51-1.04.61-2.16.66-3.3.02-.47.08-.95.16-1.42.06-.37-.02-.7-.07-1.06-.11-.67-.53-1.19-.84-1.76-.42-.77-1.03-1.31-1.81-1.66-.9-.42-1.82-.55-2.76-.14-.16.07-.33.12-.46.16-.32-.16-.47-.42-.58-.7-.27-.67-.67-1.25-1.1-1.82-.16-.21-.4-.27-.64-.26-.41.02-.81.39-.88.76-.07.43,0,.83.15,1.23.25.69.29,1.39.14,2.12-.14-.07-.26-.1-.33-.17-.53-.54-.79-1.19-.66-1.95.21-1.22-.13-2.36-.43-3.51-.16-.65-.5-1.21-1.01-1.66-.35-.31-.68-.65-1.03-.98-.29-.11-.56-.23-.84-.33-1.01-.31-1.99-.24-2.92.29-.41.23-.85.43-1.27.64-1.54.79-3.09,1.54-4.5,2.55-.39.28-.79.52-1.26.65-.28.08-.56.19-.82.33-1.09.61-2.3.96-3.46,1.42-.68.27-1.36.42-2.09.42l-1.96-.02c-.36,0-.71-.04-1.07,0-.78.06-1.54,0-2.3-.18-.59-.14-1.17-.14-1.77-.05-.35.06-.71.11-1.06.13-1.2.06-2.35.33-3.5.63-.75.2-1.48.46-2.22.68-.23.07-.46.11-.68.15-.13.03-.35-.17-.37-.32-.1-.62.14-1.17.39-1.76.77-.78,1.37-1.73,2.03-2.66,1.77-2.49,2.75-5.25,2.86-8.31.02-.36.07-.71.1-1.07.05-.48.2-.93.49-1.32,1-1.33,1.85-2.77,2.77-4.15.64-.97,1.01-2.01,1.22-3.13.15-.76.25-1.53.42-2.28.2-.87.48-1.7.99-2.47.56-.83.97-1.77,1.71-2.49.08-.08.12-.2.2-.3.7-1.04,1.05-2.26,1.7-3.33.19-.92.44-1.66.4-2.46-.02-.65-.02-1.31-.02-1.96,0-.24,0-.48.24-.79.21-.17.67-.25.93-.72-.02-.76.33-1.41,1.03-1.88.51-.34.83-.85,1.13-1.36.18-.31.33-.64.52-.93.82-1.27,1.25-2.7,1.49-4.17.14-.84.37-1.6.68-2.38.46-1.13.43-1.21,1.58-2.55.35-.4.64-.86,1-1.26.97-1.09,1.56-2.38,2.05-3.72.15-.4.17-.82.09-1.23-.04-.23-.19-.42-.43-.53-.41-.2-.83-.14-1.13.21-.58.68-1.25,1.27-1.91,1.87-1.75,1.55-3.18,3.37-4.3,5.42-.15.26-.3.52-.42.79-.25.56-.66.99-1.13,1.36l-.99.76c-.64.45-1.15,1.02-1.66,1.62-.9,1.05-1.55,2.24-2.08,3.52-.23.56-.55,1.04-1.02,1.44l-2.01,1.73c-.88,1.64-.9,1.63-1.15,3.18-.2,1.18-.76,2.14-1.75,2.79-1.09.72-2.09,1.58-3.2,2.05l-1.82,2.12c-.75.86-1.32,1.84-1.79,2.87-.24.54-.45,1.09-.44,1.71,0,.37-.11.7-.25,1.03-.3.74-.78,1.33-1.38,1.83-.78.65-1.58,1.27-2.34,1.94-.67.58-1.31,1.21-1.96,1.82-.58.53-1,1.17-1.27,1.92-.22.61-.47,1.22-.65,1.84h0ZM52.5,108.76c.39-.25,1.22-.06,1.46.33.77,1.23,1.96,1.87,3.24,2.41.6.25,1.21.5,1.8.78.88.43,1.8.57,2.77.56.6-.01,1.19-.09,1.78-.12.58-.04,1.17.19,1.76.2,1.61.01,3.22-.01,4.82-.06.53-.02,1.07-.12,1.58-.25.92-.24,1.81-.55,2.73-.82.53-.16,1-.39,1.37-.79.33-.36.71-.64,1.21-.71.5.05.92.25,1.15.72.31.61.82.98,1.42,1.28.85.43,1.63,1,2.58,1.19.29.06.57.15.87.18.83.08,1.66.14,2.49.2.23.02.47-.02.71-.05.36-.04.72-.14,1.06-.11,1.38.11,2.56-.44,3.75-.99,1.14-.52,2.28-1.01,3.47-1.39.34-.11.68-.22.93-.5.36-.39.83-.43,1.31-.39.12,0,.24.04.45.07.68.42,1.23,1.16,2.05,1.56.75.37,1.42.87,2.17,1.23.8.39,1.64.71,2.44,1.05l1.44.14c1.26.14,1.86.07,3.31-.34.12-.03.23-.08.34-.1,1.31-.11,2.34-.81,3.3-1.62.28-.23.56-.43.91-.54.37-.1.71-.1.99.19.16.18.3.37.46.55.51.59,1.19.79,1.92.76.72-.03,1.42-.19,2.05-.56.31-.19.62-.35.94-.52.44-.22,1.01.21.93.72-.03.29-.12.58-.23.85-.12.28-.34.49-.64.57-.4.11-.81.2-1.21.27-.47.07-.96.05-1.41.18-.72.21-1.41.09-2.11-.1-.23-.06-.43-.18-.66-.28-.63-.27-1.27-.25-1.91-.03-.4.14-.77.32-1.15.51-1.41.68-2.92.99-4.46,1.15-1.01.1-2.02-.02-3.01-.28-.12-.03-.24-.04-.34-.1-1.37-.72-2.93-1.02-4.2-1.94-.73-.53-1.59-.8-2.42-1.14-.35-.14-.7-.13-1.04.03-.76.35-1.55.58-2.36.77-.81.19-1.58.53-2.31.93-1.39.76-2.88,1.09-4.46,1.01-.83-.04-1.66-.02-2.49-.19-.45-.1-.95-.08-1.42-.09-.48,0-.94-.1-1.37-.32-.54-.26-1.08-.5-1.62-.75l-2.26-1.06c-.53-.25-1.08-.23-1.55.04-1.32.76-2.82.9-4.24,1.32-.23.06-.47.09-.71.09-1.01,0-2.01.07-3.02.21-.35.05-.72.02-1.07-.02-1.66-.22-3.33-.23-4.99-.25-1.71-.02-3.29-.48-4.79-1.23-1.17-.59-2.4-1.05-3.49-1.79-.41-.28-.91-.29-1.37-.09-1.54.68-3.18,1.01-4.77,1.49-.63.19-1.27.33-1.88.58-1.11.46-2.28.65-3.43.94-.29.07-.59.11-.88.12-.59.02-1.19.04-1.77.18-.17.04-.36.03-.53,0-1.42-.17-2.85-.26-4.24-.54-1.1-.22-2.22-.35-3.31-.63-1.93-.48-3.68-1.31-5.27-2.51l-.28-.22c-.43-.31-.9-.32-1.35-.09-.43.21-.84.45-1.24.7-.71.46-1.45.81-2.27,1-.58.14-1.13.36-1.7.53-1.96.56-3.95.86-5.99.78-.41-.02-.83-.07-1.23-.14-1.65-.27-3.25-.72-4.81-1.31-1.06-.4-2.11-.82-3.14-1.26-.16-.07-.32-.15-.47-.25-.25-.18-.4-.43-.45-.74-.03-.19.24-.51.43-.48.83.12,1.62.35,2.4.63,1.4.5,2.8,1,4.19,1.5.4.15.79.25,1.2.33.94.18,1.87.37,2.83.16,2.61-.14,4.11-.47,6.59-1.32,1.33-.45,2.5-1.1,3.43-2.16.5-.57,1.56-.51,2.06.08l1.06,1.23c1.37.95,2.93,1.55,4.48,2.16.32.13.7.14,1.05.16.48.02.94.11,1.41.18,1.35.21,2.71.39,4.07.51,2.17.18,4.26-.27,6.32-.91.56-.18,1.13-.38,1.68-.6.66-.28,1.33-.49,2.04-.62.47-.09.91-.28,1.58-.49.63-.81,1.69-.98,2.54-1.53Z"/>
      <g>
        <path class="cls-1" d="M99.21,83.21c.1-.04.19-.07.28-.1-.23-.16-.32-.14-.37-.02l.09.12ZM96.33,87.4c-.26-.02-.35.04-.41.11-.08.1-.06.21.04.29.21-.17.29-.28.37-.4h0ZM85.98,37.64c-.08-.1-.14-.2-.21-.27-.61.5-.82,1.1-.84,1.77.67-.39.9-.93,1.05-1.5h0ZM81.98,40.94c-.18.1-.35.16-.48.26-.13.11-.22.26-.31.41-.06.1-.09.21-.1.33-.02.17,0,.35.02.51.02.09.12.17.2.23.49-.38.72-.78.8-1.25.03-.14-.08-.3-.14-.49h0ZM70.2,86.73c.1,0,.26.02.3-.04.3-.41.58-.84.86-1.27.07-.1.01-.21-.12-.27-.51.12-.75.37-.98.63-.25.29-.27.62-.07.95h0ZM75.62,86.66c-.1.04-.22.06-.28.13-.33.41-.57.88-.68,1.4-.07.29-.07.58.02.87.04.11.32.27.44.21.1-.05.25-.14.25-.21.02-.71.23-1.38.34-2.07.02-.1-.05-.21-.08-.33h0ZM72.39,107.7c-1.12.28-1.99.47-2.83.72-.47.14-.9.2-1.39.1-.2-.05-.45.1-.67.17.7.39,1.46.27,2.22.24.12,0,.23-.05.34-.09.66-.23,1.34-.47,2-.71.09-.04.15-.18.33-.44h0ZM80.18,86.88c.24-.24.45-.44.64-.66.35-.41.35-.86.12-1.32-.08-.15-.21-.27-.32-.4-.12.06-.25.1-.31.18-.42.53-.63,1.13-.48,1.81.03.14.21.24.36.39h0ZM77.16,87.55c-.1.9.27,1.21.85,1.1.46-.14.65-.45.57-.73-.17-.62-.38-1.23-.48-1.87-.21-.06-.34-.04-.42.03-.09.07-.17.17-.2.29-.14.5-.27,1.01-.32,1.19h0ZM73.85,86.13c-.13-.1-.2-.2-.3-.23-.1-.02-.26,0-.33.06-.41.42-.83.84-1.19,1.31-.22.28-.26.65-.26,1.01,0,.26.23.52.56.6.23.06.5-.06.58-.29.15-.38.27-.78.42-1.16.17-.44.35-.87.52-1.29h0ZM78.09,55c.1-.07.19-.13.28-.21,1.76-1.66,3.25-5.52,3.1-8.11,0-.18-.02-.36-.07-.53-.02-.1-.12-.18-.21-.25-.32.22-.37.41-.35.57.09.72.05,1.42-.13,2.12-.21.87-.44,1.72-.71,2.57-.21.68-.54,1.3-.98,1.88-.39.53-.83.99-1.31,1.44-.17.16-.06.43.21.53h.17ZM91.69,17.03c-.13.04-.27.05-.33.12-.3.43-.58.88-.82,1.24-.15.61-.3,1.13-.39,1.65-.06.34-.12.72-.04,1.05.21.93.25,1.87.35,2.81.08.28.33.47.47.45.17-.02.36-.07.44-.25.08-.16.16-.33.16-.49-.02-.83-.06-1.65-.1-2.48-.05-1.07-.05-1.07.73-2.05,0-.12.05-.25.02-.35-.16-.57-.33-1.13-.49-1.7h0ZM94.11,12.31c-.25,1.03-.47,1.95-.71,2.86-.19.7-.23,1.4-.05,2.11.05.21.23.23.44.28.51-.37.95-.85,1.35-1.36.43-.57.83-1.16,1.12-1.81.25-.54.41-1.12.47-1.71.04-.42.02-.83-.14-1.23-.08-.19-.4-.37-.58-.29-.67.26-1.24.68-1.89,1.16h0ZM118.84,91.43c-.09-.54-.14-1-.03-1.48.09-.47.12-.95.14-1.42.08-1.36.08-2.73.03-4.1-.06-1.74-.33-3.43-.65-5.13-.05-.23-.1-.47-.18-.69-.07-.19-.25-.2-.43-.19-.05.1-.14.21-.14.32,0,.53-.06,1.1.09,1.59.23.81.32,1.64.45,2.46.24,1.46.31,2.94.03,4.43-.14.76-.23,1.52-.25,2.29-.06,1.48-.42,2.94-.41,4.43,0,.17-.09.34-.12.52-.19,1.05-.46,2.09-.49,3.17-.03,1.01-.04,2.01-.34,3-.12.42-.11.9.12,1.41.27-.75.43-1.42.57-2.13.29-1.58.33-3.19.71-4.76.11-.46.25-.93.26-1.4.01-.8.29-1.51.67-2.33h0ZM109.24,88.56c-.34.68-.48,1.08-.71,1.41-.57.81-.79,1.74-.88,2.69-.15,1.47-.58,2.91-.46,4.42,0,.12-.02.24-.04.36-.11.82-.2,1.65-.35,2.47-.23,1.28-.44,2.58-1.11,3.73-.09.15-.15.33-.16.49-.02.5-.23.92-.45,1.34-.12.21-.19.43-.29.65-.05.13-.04.26.09.31.09.04.24.04.32,0,.44-.24.69-.63.92-1.06,1.11-2.07,1.64-4.32,2.19-6.57.15-1.66.65-3.27.68-4.94,0-.23.09-.47.12-.7.06-.53.13-1.06.17-1.6.05-.71.06-1.42.08-2.14,0-.18-.05-.35-.12-.86h0ZM88.11,20.53c.11.07.28.11.29.18.07.41.13.82.15,1.23.08,1.99.6,3.87,1.45,5.66.05.1.05.22.09.41-.21.7-.7,1.3-1.2,1.88-.19.23-.52.26-.83.23-.66-.06-.97.38-1.18.89-.17.39-.17.81-.12,1.23.09.77.1,1.54,0,2.31-.04.3-.14.58-.46.76-.1-.12-.28-.22-.32-.36-.25-.91-.52-1.83-.49-2.8.03-.89.02-1.77.17-2.66.12-.64.1-1.3.11-1.96.02-.85.25-1.64.64-2.38.54-1,.96-2.05,1.06-3.19.04-.35.21-.68.34-1.01.07-.16.19-.29.29-.44h0ZM83.09,38.46c.14-.09.34-.15.42-.28.55-.87.91-1.81.76-2.87-.04-.23-.07-.47-.12-.7-.27-1.24-.28-2.48-.02-3.72.1-.47.13-.94.06-1.41-.04-.29.01-.58.02-.89.01-.41.04-.83.03-1.25,0-.09-.1-.18-.17-.3-1.09.52-1.89,1.42-2.83,2.13-.17.13-.22.45-.12.66.1.21.23.41.33.59-.03.23-.04.41-.09.57-.19.75-.44,1.49-.6,2.24-.4,1.81-.47,3.65-.37,5.5,0,.12.05.23.09.34.21.1.37.09.41.02.39-.6.67-1.25.84-1.95.04-.17.11-.35.23-.47.11-.11.31-.21.45-.2.15.02.35.14.41.27.1.21.1.46.13.69.03.34-.14.69.11,1.04h0ZM114.75,81.87c.3-.53.6-.96,1.2-1.06.31.56.39,1.17.43,1.74.12,1.6.2,3.2.04,4.8-.11,1.12-.3,2.23-.45,3.35-.06.47-.15.94-.17,1.41-.08,2.5-.61,4.93-.98,7.39-.04.29-.09.58-.11.88-.04,1.33-.38,2.57-.92,3.77-.24.54-.45,1.09-.64,1.54-.57.55-1.15.84-1.77,1.06-.21.08-.47.07-.7.06-.06,0-.2-.18-.18-.24.09-.27.2-.55.34-.81.49-.88.87-1.81,1.11-2.8.18-.74.46-1.47.73-2.19.59-1.61,1.19-3.22,1.51-4.92.12-.7.37-1.37.51-2.07.2-.98.41-1.97.36-2.99,0-.29.02-.6.11-.88.22-.76.2-1.52.21-2.29.02-1.67-.18-3.31-.58-4.93-.07-.27-.05-.58-.06-.81h0ZM113.11,83.51c.1.06.21.11.28.19.07.09.13.21.13.32.11,1.72.25,3.43.07,5.16-.08.76-.1,1.54-.18,2.3-.18,1.72-.68,3.37-1.03,5.05-.21.99-.51,1.94-.82,2.9-.29.9-.58,1.8-.92,2.69-.19.49-.34,1.01-.53,1.51-.24.67-.52,1.32-.9,1.93-.28.45-.41.98-.66,1.45-.1.2-.3.41-.5.48-.38.14-.8.22-1.2.27-.19.02-.29-.17-.33-.41.72-.76,1.2-1.7,1.53-2.73.18-.56.43-1.11.65-1.66.68-1.79.99-3.66,1.32-5.53.07-.41.14-.82.26-1.21.11-.35.17-.69.17-1.05,0-.71.06-1.42.23-2.12.09-.34.09-.71.11-1.07.06-1.12.11-2.25.16-3.37,0-.12-.01-.24-.01-.35,0-.52-.25-.9-.66-1.19.34-1.05.6-1.37,2.83-3.56h0ZM77.67,37.1c.4-.47.61-.89.6-1.39-.02-.9.19-1.77.35-2.65.04-.22.21-.42.34-.61.04-.05.18-.05.27-.05.08.38.08.62.04.85-.1.53-.17,1.07-.34,1.56-.37,1.04-.36,2.12-.23,3.17.14,1.11.21,2.24.46,3.35.22.99.45,1.97.88,2.87-.13.43-.28.82-.35,1.22-.06.34-.02.71-.02,1.07,0,1.82-.52,3.52-1.21,5.17-.35.83-.87,1.55-1.6,2.1-.23.18-.62.06-.7-.24-.06-.23-.1-.47-.09-.7.02-.22.09-.48.21-.67.6-.9.91-1.93,1.44-2.86.26-.46.45-.96.42-1.5-.18-.2-.37-.32-.63-.25-.25.06-.44.2-.55.42-.14.26-.23.54-.37.81-.3.58-.62,1.15-.91,1.68-.29.06-.36-.12-.41-.27-.27-.68-.33-1.38,0-2.07.08-.15.1-.33.12-.43.02-.33-.14-.52-.25-.73-.14-.26-.3-.53-.33-.82-.14-1.35-.21-2.72-.15-4.09.04-.73.21-1.41.44-2.08.13-.4.31-.77.43-1.17.26-.9.82-1.42,1.74-1.57.12-.02.22-.08.38-.14h0ZM74.1,53.55c-.18-.78-.37-1.47-.47-2.17-.16-1.23-.45-2.46-.44-3.71,0-.24-.03-.48-.07-.71-.29-1.66-.25-3.31-.03-4.98.06-.47.08-.95.12-1.42-.17-.18-.3-.21-.38-.17-.53.3-.92.75-1.24,1.26-.25.4-.49.81-.74,1.25-.17.91-.48,1.81-.6,2.75-.05.34-.24.67-.4.99-.13.26-.31.5-.43.72-.06.65-.02,1.27-.19,1.83-.48,1.57-.18,3.21-.53,4.78-.03.11-.02.25.02.35.23.53.03,1.06.04,1.59,0,.24.1.33.45.37.19-.49.37-1,.58-1.49.1-.22.27-.39.49-.5.26-.14.64,0,.74.26.14.35.11.71-.01,1.05-.45,1.23-.9,2.46-1.35,3.68-.08.22-.14.45-.19.6.07.19.11.31.15.42.18.33.41.36.5.22.32-.51.58-1.03.66-1.64.04-.36.18-.68.4-.98.11-.15.46-.19.64-.06.2.15.33.33.33.6.02.54-.07,1.06-.31,1.56-.29.6-.44,1.24-.43,1.9,0,.31.15.56.44.72.2.11.38.29.65.19.88-.63,1.25-1.56,1.49-2.55.06-.23.08-.47.13-.7.03-.11.1-.21.15-.32.08-.17.41-.31.62-.23.23.08.44.21.48.47.09.53.12,1.07-.1,1.58-.14.33-.26.66-.39,1-.06.14-.01.23.17.23.15-.21.39-.44.48-.7.22-.67.52-1.33.54-2.05.02-.84.14-1.66.38-2.46.07-.23.05-.47-.1-.69q-1.27-1.03-2.25-2.8h0ZM102.15,77.7c-.46.1-.74.38-.87.81-.1.34-.15.7-.22,1.04-.07.35-.12.7-.2,1.05-.06.3-.37.5-.67.47-.23-.03-.47-.1-.7-.11-.35,0-.71.02-1.06.07-.84.11-1.24.88-1.21,1.52,0,.35.11.7.18,1.05.06.29.15.57.19.87.03.17,0,.35-.02.53-.02.23-.3.43-.52.36-.57-.17-1.13-.35-1.62-.49-.41.1-.65.29-.71.6-.14.76-.26,1.52-.35,2.29-.05.35,0,.71,0,1.07-.2.31-.44.58-.57.9-.14.33-.19.69-.24,1.04-.18,1.07-.51,2.07-1.05,3.01-.29.52-.58,1.04-.83,1.58-.27.6-.66,1.11-1.07,1.62-.09.03-.17-.03-.14-.19.25-1.94.32-3.9.89-5.81.23-.79.27-1.63.45-2.45.19-.87.48-1.71.81-2.52.45-1.09.88-2.2,1.42-3.27.19-.37.29-.78.45-1.16.14-.33.32-.64.6-.88.18-.16.41-.27.65-.23.52.1,1.04.21,1.56.32.61-.12.82-.66,1.16-1.06.1-.12.11-.34.1-.51-.01-.23-.07-.47-.13-.7-.13-.53-.14-1.05-.1-1.6,0-.15.22-.29.39-.25.17.05.34.15.5.16.17.02.39,0,.49-.12.34-.33.64-.7.93-1.03.17-.31.15-.61.12-.9-.06-.68.17-1.29.44-1.89.13-.31.63-.43.92-.21.23.18.45.39.65.6.21.21.4.43.61.63.1.1.39.07.5-.02.35-.24.61-.56.82-1.01-.14-1.13.06-2.3.43-3.44.13-.39.33-.76.53-1.12.08-.14.25-.23.35-.32.51-.03.79.33,1.16.51.37.19.73.39,1.17.4.45-.2.75-.55.97-1.05-.1-.35-.22-.74-.29-1.15-.06-.35-.07-.71-.1-1.07-.05-.62.1-1.18.49-1.68.07-.09.14-.19.2-.29.45-.68,1.07-.9,1.85-.72.18.04.35.09.51.17.62.31,1.14.21,1.6-.3.05-.05.2-.02.3,0,.15.63.13,1.11-.08,1.55-.32.7-.65,1.4-1.09,2.04-.22.32-.5.5-.88.53-.23.02-.47,0-.71.04-.39.05-.78.47-.8.85-.02.35,0,.71,0,1.07-.01.41-.12.56-.66.98-.39.06-.66-.22-.98-.35-.67-.27-1.35.25-1.47.88-.03.18-.05.36-.06.53-.02.36-.03.72-.05,1.15-.54,1.11-.95,2.36-1.74,3.43-.1.14-.18.32-.21.49-.1.7-.57,1.16-.97,1.68-.14.19-.39.26-.64.23-.47-.06-.94-.14-1.4-.21h0ZM110.19,57.38c-.14,1.24-.62,2.24-1.31,3.16-.35.47-.67.98-.96,1.5-.61,1.05-1.49,1.86-2.48,2.53-1.08.74-2.03,1.65-3.08,2.44-.33.25-.59.59-.88.88-.58.59-1.14,1.22-1.76,1.77-1.02.92-1.96,1.9-2.87,2.93-1.2,1.34-2.22,2.79-3.14,4.33-.34.55-.64,1.15-.87,1.75-.4,1.05-.9,2.07-1.2,3.17-.08.28-.21.55-.34.82-.49,1.03-.8,2.11-.94,3.24-.14,1.12-.37,2.23-.65,3.33-.39,1.5-.76,3-.75,4.56,0,.23-.05.48-.1.71-.16.76-.28,1.52-.29,2.3,0,.3-.02.61-.12.88-.27.81-.26,1.65-.26,2.48,0,1.13.03,2.26-.18,3.39.1.46.21.92.53,1.3.18.22.59.31.8.15.37-.3.72-.61,1.09-.91.13-.85.27-1.67.37-2.49.16-1.38.48-2.69,1.32-3.83.88-1.96,1.93-3.62,2.96-5.28.84-1.37,1.72-2.72,2.6-4.06.36-.54.9-.94,1.23-1.52.29-.52.66-.99,1.02-1.46.46-.61.92-1.25,1.43-1.83.83-.93,1.65-1.87,2.42-2.85.26-.34.59-.59.94-.81.63-.39,1.1-.92,1.43-1.56.19-.37.43-.71.69-1.03,1-1.26,2.05-2.48,2.8-3.92.31-.58.78-1.04,1.36-1.38.37-.23.64-.52.85-.89.27-.47.56-.92.84-1.38.31-.5.64-.99,1.05-1.43.36-.4.67-.84.98-1.27.16-.24.3-.52.39-.79.47-1.44,1.23-2.7,2.16-3.87.08-.1.12-.21.22-.37.02-.17.04-.4.1-.63.12-.52.59-.76,1.09-.57.76.29,1.32.78,1.67,1.58-.04.12-.09.29-.17.44-.09.16-.2.29-.33.47-.15.55.11,1.14-.04,1.73-.13.51-.03,1.07-.06,1.6-.06,1.22-.51,4.42-1.12,5.75-.05.11-.06.24-.11.34-.32.63-.7,1.24-.96,1.9-.24.61-.55,1.19-.84,1.77-.45.92-1.16,1.66-1.79,2.44-.37.47-.69.95-.99,1.46-.85.37-1.5.96-2.07,1.68-.62.79-1.33,1.51-1.98,2.29-.76.92-1.44,1.89-2.03,2.93-.72,1.3-1.44,2.6-2.34,3.8-.18.24-.31.51-.43.78-.09.22-.08.47.06.68.16.25.33.49.55.8.11,1.07.05,2.19-.1,3.3-.06.47-.16.95-.18,1.42-.06,1.56-.33,3.07-.86,4.54-.22.62-.41,1.24-.59,1.87-.22.76-.68,1.38-1.19,1.97-.07.08-.21.1-.32.14-.21.06-.54-.14-.55-.33,0-.24-.06-.49,0-.71.37-1.27.33-2.59.58-3.88.07-.34.06-.71.02-1.07-.08-.82-.19-1.65-.29-2.48-.03-.25-.17-.44-.34-.61-.26-.25-.76-.12-.87.23-.03.12-.09.24-.08.35.09.59.04,1.18-.07,1.77-.06.35-.05.71-.03,1.07.08,1.07-.06,2.14-.17,3.2-.01.15-.18.28-.31.47-.29-.34-.52-.66-.8-.94-.4-.4-1.05-.38-1.45.02-.86,1.23-2.03,1.7-3.18,2.2-.49.21-1,.37-1.49.58-.94.41-1.92.63-2.93.73-1.06.12-2.14.13-3.2.31-.39.07-.83-.06-1.24-.05-.35,0-.69.06-1.06,0-.98-.2-2-.24-2.97-.54-.93-.29-1.77-.68-2.54-1.44-.11-.37-.22-.83-.37-1.27-.08-.22-.26-.37-.49-.48-.54-.23-1.08-.25-1.54.1-1.02.76-2.18,1.2-3.38,1.55-.4.12-.77.32-1.16.47-.55.21-1.1.44-1.66.65-.96.35-1.94.52-2.98.46-1.01-.06-2.02-.02-3.03,0-.54.01-1.05-.08-1.58-.24-2.28-.7-2.75-.87-4.81-1.88-.8-.39-1.5-.96-2.23-1.54-.16-.34-.34-.71-.5-1.03.21-1.38.49-2.42.84-3.33.18-.44.35-.88.45-1.34.3-1.49.99-2.79,1.84-4.02.21-.29.4-.6.57-.91.72-1.34,1.75-2.4,2.91-3.35.27-.23.55-.45.8-.7.07-.06.07-.23.04-.33-.03-.1-.13-.22-.22-.25-.41-.14-.82,0-1.27.05-1.33.86-2.53,1.91-3.37,3.32-.49.81-.99,1.62-1.48,2.44-.18.3-.31.64-.51.94-.86,1.32-1.3,2.79-1.7,4.3-.09.34-.18.68-.28,1.02-.22.74-.49,1.46-.54,2.25-.04.5-.3.9-.76,1.15-.41.22-.83.45-1.26.65-.6.27-1.23.49-1.79.8-1.3.73-2.67,1.3-4.06,1.83-.77.29-1.56.56-2.36.81-.22.07-.47.06-.71.08-.53.02-1.07.01-1.6.04-.6.04-1.19.11-1.98.18-.56-.07-1.33-.14-2.09-.29-1.77-.33-3.46-.85-5-1.83-.37-.24-.49-.68-.29-1.09.7-1.11,1.07-2.19,1.59-3.19.08-.16.1-.34.11-.51,0-.1-.06-.21-.12-.32-.07-.11-.37-.17-.47-.09-.19.14-.42.26-.54.45-.47.76-.92,1.53-1.36,2.3-.18.31-.35.62-.53.92-.14.23-.58.3-.8.13-.41-.35-.82-.69-1.21-1.05-.36-.34-.45-.88-.25-1.32.08-.16.15-.33.25-.48.95-1.44,1.83-2.92,2.94-4.25.38-.45.72-.94,1.06-1.42.05-.06,0-.24-.05-.31-.07-.08-.22-.15-.31-.13-.22.06-.46.14-.66.25-.56.35-1.03.81-1.41,1.34-.6.82-1.18,1.65-1.77,2.47-.35.48-.7.96-1.06,1.45h-1.39c-.75.37-1.41.75-1.99,1.28-.62.56-1.36.97-2.2,1.09-.72.11-1.35.46-2.03.66-.86.25-1.72.49-2.62.47-.19-.18-.23-.32-.19-.39.63-.94,1.26-1.88,1.92-2.8.9-1.25,1.85-2.47,2.75-3.73,1.33-1.9,2.77-3.72,4.17-5.57.21-.28.47-.53.71-.8,1.4-1.54,2.8-3.08,4.21-4.62.36-.4.75-.76,1.12-1.15.71-.72,1.45-1.42,2.12-2.17.95-1.07,2.03-2.01,3.13-2.92,1.23-1.03,2.46-2.06,3.69-3.1.18-.15.33-.33.49-.51.1-.11.17-.4.06-.49-.12-.11-.32-.26-.44-.22-.39.1-.79.25-1.15.45-.36.19-.7.45-1.01.72-.95.8-1.9,1.62-2.84,2.44-2.2,1.93-4.14,4.11-6.17,6.2-1.78,1.83-3.46,3.76-5.18,5.66-.32.35-.61.73-.89,1.11-.68.91-1.35,1.82-2.02,2.72-.83,1.1-1.62,2.21-2.38,3.35-1.09,1.63-2.26,3.22-3.61,4.64-.13.13-.26.24-.4.36.21-1.62.64-2.54,1.6-3.58.41-.44.76-.93,1.04-1.44.76-1.42,1.74-2.69,2.68-3.99.18-.24.4-.45.59-.67.23-.27.49-.53.67-.83.84-1.54,2.09-2.74,3.23-4.03,1.06-1.21,2.21-2.34,3.19-3.61.07-.1.14-.19.23-.27,1.46-1.23,2.51-2.86,4.03-4.04.33-.25.59-.58.86-.9.31-.37.67-.66,1.06-.94.53-.38,1.07-.8,1.45-1.31.7-.92,1.57-1.61,2.53-2.22.25-.16.52-.32.72-.54.45-.49.92-.92,1.57-1.12.9-.68,1.92-1.2,2.82-1.87,1.34-1,2.79-1.82,4.17-2.75,1.04-.7,2.26-1.06,3.47-1.37.28-.07.59-.03.89-.02.46,0,.8-.24,1.04-.59.21-.29.35-.62.52-.93.33-.58.85-.8,1.49-.79.35,0,.69.2,1.16,0,.21-.22.49-.52.76-.8,0-.22.02-.39,0-.57-.16-1.41.15-2.71.86-3.93.27-.46.49-.95.74-1.42.25-.47.53-.93,1.02-1.2.07-.04.23.02.29.08.07.09.1.22.1.33,0,.3,0,.6-.04.9-.16,1.62.07,3.2.48,4.76.2.78.71,1.37,1.4,1.77.19.12.45.16.68.18.76.05,1.36-.33,1.93-.78.13-.1.19-.29.28-.45.11-.21.16-.44,0-.66-.19-.26-.47-.41-.77-.33-.4.1-.78.26-1.13.39-.29-.07-.5-.22-.56-.45-.24-.86-.47-1.72-.67-2.58-.05-.23-.04-.48,0-.71.14-.76.2-1.53.22-2.31.02-.62.25-1.15.79-1.51.09-.06.15-.18.24-.31.09-1.41.62-2.74,1.06-4.09.08-.22.22-.41.35-.62.27-.46.6-.89.82-1.37.35-.75.93-1.23,1.66-1.55.14-.06.4.07.4.23-.14,2.01-.06,3.86-.1,5.7-.02.72,0,1.42-.12,2.14-.08.47-.06.94.09,1.41.08.23.1.47.14.7.18.94.42,1.85.97,2.66.1.14.14.33.22.49.43.84.9,1.68,1.56,2.29.18.48.08.88-.07,1.27-.08.23-.16.47-.3.64-.59.72-.75,1.61-1.14,2.43.1.15.16.33.29.43.2.15.45.14.68.04.44-.19.86-.4,1.27-.59.87-.14,1.7-.06,2.51.15.52.13,1.04.25,1.56.38,1.34.32,2.33,1.15,3.23,2.13.19.21.3.51.38.8.21.69.23,1.4.25,2.12,0,.18-.03.36-.08.53-.3,1.09-.72,2.14-1.24,3.15-.11.21-.27.39-.41.59-.43.57-.86,1.14-1.24,1.66-.84.68-1.61,1.33-2.41,1.95-.75.58-1.54,1.12-2.3,1.69-2.31,1.7-4.46,3.56-6.46,5.61-.75.77-1.37,1.64-1.99,2.51-.72,1.02-1.42,2.07-2.22,3.02-1.27,1.51-2.01,3.21-2.22,5.11.12.63.21,1.22.33,1.8.04.23.14.45.23.67.23.46.66.52,1.05.27.1-.06.19-.14.29-.22.14-.11.27-.23.41-.33.03-.29.1-.52.08-.75-.06-.7.2-1.28.61-1.81.22-.28.48-.53.72-.8.09-.28.14-.58.27-.84.16-.32.32-.68.58-.89.82-.68,1.58-1.46,2.65-1.77.23-.06.44-.17.66-.26.96.04,1.91.05,2.85.22.41.07.82.14,1.23.25,1.41.41,2.8.45,4.19-.06.11-.04.23-.07.34-.09,1.13-.2,2.14-.68,3.16-1.17,1.01-.48,1.78-1.18,2.46-2.01.64-.78,1.21-1.62,1.77-2.46.57-.86.93-1.79.95-2.84,0-.65.08-1.3.13-1.98.08.05.18.07.21.12.27.67.41,1.36.41,2.09,0,.29,0,.59,0,.89.11,1.54-.37,2.94-1.07,4.26-.6,1.1-1.27,2.16-2.09,3.1-.47.54-.96,1.06-1.62,1.38-.15.08-.27.23-.41.35-.14.13-.17.47-.06.66.35.58,1.01.58,1.4.38.21-.11.41-.25.59-.41,1.98-1.87,3.52-4.02,4.31-6.66.5-1.68.56-3.4.35-5.13-.11-.9-.43-1.73-.99-2.46-.33-.44-.86-.37-1.12.16-.06.11-.07.23-.12.33-.23-.02-.39-.12-.46-.28-.33-.64-.75-1.21-1.14-1.81-.37-.56-.75-1.06-1.37-1.36-.33-.16-.57-.43-.76-.74-.13-.22-.17-.46-.04-.68.27-.46.57-.91.87-1.35.58-.84,1.02-1.74,1.34-2.8-.02-1.85-.76-3.5-1.94-4.98-.61-.76-1.48-1.19-2.23-1.76-.76-.57-1.64-.95-2.59-1.13-.4-.08-.79-.27-1.17-.43-.46-.2-.9-.28-1.37-.04-.16.08-.34.11-.52.15-.29.06-.6-.26-.5-.54.16-.51.33-1.01.69-1.4.49.08.95.17,1.42.22.54.06,1.09.05,1.59-.15.57-.23,1.15-.26,1.69-.22,1.05-.6,2.09-1.03,3.24-1.14.47-.04.91-.25,1.37-.41.45-.16.92-.26,1.4-.25,1.13.02,2.26.02,3.39.1.71.06,1.4.26,2.1.4.23.04.48.1.7.06.82-.14,1.67-.1,2.46-.43.21-.09.47-.16.7-.13.74.08,1.4-.2,2.09-.37.64-.15,1.27-.31,1.9-.48.47-.13.86-.39,1.19-.76.3-.34.32-.75,0-1.13-.18-.22-.38-.42-.58-.64.48-.35.8.25,1.24.17.26-.14.53-.26.79-.41,1.41-.88,2.92-1.58,4.39-2.36.21-.11.43-.22.65-.28.97-.3,1.89-.71,2.74-1.28.53-.35,1.12-.39,1.72-.21.4.12.79.25,1.13.37.79.52,1.2,1.21,1.3,2.18h0ZM79.33,90.09c-.03-.12.07-.26.11-.21.21.19.03.2-.13.2-.02.18,0,.37-.08.5-.17.24-.37.47-.6.65-.9.69-1.84,1.31-2.89,1.74-.27.12-.56.21-.85.25-.77.09-1.5.32-2.23.56-.47.16-.92.12-1.4,0-1.03-.25-2.07-.5-3.13-.55-.41-.02-.84-.05-1.23-.14-.81-.18-1.53.06-2.22.41-.26.14-.51.3-.76.45-.13.07-.44-.02-.48-.14-.03-.1-.08-.25-.04-.33,1.11-2.05,2.41-3.95,4.3-5.37.09-.06.23-.07.39-.12.14.14.32.29.48.45.47.46.92.93,1.4,1.37.35.33.79.52,1.27.61.88.16,1.76.28,2.61.53,1.46.43,2.81.09,4.16-.42.33-.13.64-.3.97-.43.1-.04.23-.01.35-.02h0ZM77.53,62.18c.29-.04.59-.07.87-.14.46-.12.91-.28,1.36-.41,1.97-.57,3.96-.72,5.99-.33.82.15,1.66.19,2.48.28.6.06,1.21.03,1.77-.15.58-.18,1.15-.27,1.74-.36.53-.08,1.05-.21,1.57-.33.52-.12,1.02-.3,1.48-.6.15-.11.25-.24.23-.44.1-.01.21-.02.31-.04.12-.18.02-.22-.09-.15-.08.05-.13.14-.2.22-.42-.11-.82.02-1.22.1-.82.18-1.65.24-2.47.16-1.59-.14-3.18-.12-4.77-.23-1.92-.13-3.76.25-5.58.81-.56.17-1.13.36-1.66.59-.64.27-1.31.52-1.79,1.07-.17.05-.21.1-.1.11l.06-.16ZM116.1,103.27q.35-.16.2-.54c-.16.16-.17.36-.16.57-.08.08-.18.14-.22.24-.06.13,0,.22.12.21.07-.26.07-.37.07-.49h0ZM116.3,107.58c-1.28.45-2.36.91-3.43,1.45-1.01.51-2.12.79-3.23,1-.34.07-.72.05-1.05-.04-1.04-.26-2.1-.42-3.16-.58-.35-.05-.69-.15-1.04-.21-.35-.07-.7-.14-1.05-.19-.55-.09-1.06.02-1.53.35-.29.21-.59.4-.86.57-.54-.06-.68-.35-.44-.73.16-.25.36-.47.53-.69,0-.2-.07-.39-.25-.4-.41-.03-.83,0-1.27,0-.06-.06-.18-.12-.23-.22-.14-.26-.25-.53-.37-.79-.33-.3-.73-.41-1.15-.49-.49,0-.9.28-1.32.49-.81.39-1.59.8-2.5.94-.29.05-.55.2-.84.29-1.08.33-2.14.69-3.24.97-2.05.52-4.09.57-6.18.25-1.66-.25-3.21-.86-4.79-1.34-.45-.13-.84-.44-1.27-.66-.21-.11-.42-.2-.59-.27-.18.05-.31.05-.41.12-1.46,1.03-3.1,1.74-4.72,2.5-.43.2-.91.28-1.35.45-1.22.45-2.47.44-3.69.12-1.44-.38-2.9-.63-4.35-.94-2.24-.47-4.11-1.48-5.67-3.15-.53-.57-1.15-1.03-1.74-1.54-.08-.06-.22-.05-.42-.1-.77.43-1.66.75-2.48,1.26-.6.39-1.25.69-1.87,1.03-.11.06-.21.14-.32.16-1.14.2-2.11.78-3.1,1.32-1.07.58-2.26.7-3.43.87-.29.04-.59.03-.89.03-1.02-.02-2.01.18-2.97.5-.62.21-1.25.37-1.89.51-.65.14-1.29.11-1.92-.17-.86-.39-1.76-.72-2.63-1.09-.82-.34-1.65-.67-2.46-1.05-1.46-.68-2.85-1.46-3.87-2.79-.4-.53-.92-.93-1.54-1.18-.45-.07-.8.2-1.18.34-1.73.65-3.5,1.15-5.3,1.54-.29.06-.59.13-.88.15-.84.06-1.64.29-2.44.49-.12.02-.23.08-.34.1-.17.05-.35.12-.52.11-1.2-.1-2.36.25-3.54.32-1.52-.23-3.08-.33-4.57-.74-1.03-.28-2.02-.66-2.93-1.28-.98-.67-2.04-1.22-3.06-1.83-.15-.09-.27-.22-.4-.35-.24-.23-.18-.74.1-.96.31-.24.68-.33,1-.15,1.08.61,2.38.78,3.33,1.64,1.36.75,2.78,1.38,4.32,1.58,1,.13,1.99.4,3.01.27.3-.04.58-.11.86-.39.02-.17.08-.4.08-.63,0-.86.26-1.64.68-2.38.63-1.07,1.27-2.15,1.91-3.22.19-.3.44-.57.6-.89.7-1.46,1.76-2.67,2.69-3.98.8-1.11,1.68-2.16,2.55-3.22.75-.92,1.53-1.82,2.29-2.73.15-.18.31-.37.48-.53,1.25-1.19,2.38-2.5,3.52-3.8.23-.26.51-.5.76-.75.39-.37.75-.76,1.08-1.18.62-.8,1.33-1.52,2.19-2.07.7-.45,1.31-1.03,1.86-1.66,1.62-1.85,3.53-3.35,5.54-4.74.83-.57,1.64-1.18,2.42-1.82.47-.39.96-.7,1.5-.95.76-.35,1.52-.69,2.16-1.25.17-.16.4-.27.62-.35.45-.18.86-.37,1.24-.68.36-.29.85-.38,1.25-.66.43-.31.94-.49,1.44-.69.33-.14.68-.21,1.02-.33.69-.23,1.3-.58,1.67-1.25.08-.16.21-.29.32-.43.3-.38.68-.67,1.17-.76.47-.08.93-.19,1.36-.5.06-.13.16-.28.2-.45.29-1.27.76-2.5,1.15-3.74.37-1.17,1.09-2.11,1.9-2.99.4-.43.91-.76,1.51-.91.29-.08.56-.2.83-.32.28-.12.5-.33.62-.6.14-.33.27-.66.37-1,.4-1.25.84-2.48,1.43-3.65.16-.33.35-.62.6-.88.63-.63,1.26-1.27,1.91-1.87.35-.32.78-.55,1.16-.82.29-.2.6-.39.87-.62.57-.46.96-1.04,1.18-1.75.18-.63.43-1.23.65-1.84.27-.74.69-1.38,1.27-1.92.65-.61,1.29-1.23,1.96-1.81.76-.66,1.56-1.29,2.34-1.94.6-.51,1.08-1.1,1.38-1.83.14-.34.25-.66.25-1.03-.02-.61.2-1.17.44-1.72.47-1.03,1.03-2,1.79-2.87.59-.67,1.16-1.35,1.82-2.12,1.11-.48,2.1-1.34,3.2-2.05.99-.65,1.55-1.61,1.75-2.79.25-1.54.27-1.54,1.15-3.18.66-.56,1.33-1.15,2.01-1.73.46-.4.78-.88,1.01-1.44.53-1.27,1.18-2.47,2.08-3.52.51-.6,1.02-1.17,1.66-1.62.33-.24.67-.5.99-.76.47-.37.88-.8,1.13-1.36.12-.27.27-.53.42-.79,1.12-2.05,2.55-3.87,4.3-5.42.66-.6,1.33-1.19,1.91-1.87.3-.35.72-.41,1.13-.21.23.11.39.3.43.53.08.41.06.84-.09,1.23-.5,1.35-1.09,2.64-2.05,3.72-.36.4-.65.86-1,1.26-1.16,1.35-1.13,1.42-1.58,2.55-.31.78-.55,1.54-.69,2.38-.23,1.47-.67,2.89-1.49,4.17-.19.3-.34.62-.52.93-.31.51-.62,1.02-1.13,1.36-.7.47-1.04,1.12-1.03,1.88-.26.46-.72.54-.93.72-.23.31-.24.55-.24.79,0,.65,0,1.31.02,1.96.04.79-.21,1.53-.34,2.29-.71,1.23-1.06,2.46-1.77,3.5-.06.1-.1.22-.19.3-.74.72-1.14,1.66-1.71,2.49-.51.76-.78,1.6-.99,2.47-.17.76-.27,1.52-.42,2.28-.21,1.11-.58,2.16-1.22,3.13-.91,1.39-1.76,2.82-2.77,4.15-.29.39-.45.84-.49,1.32-.03.35-.09.71-.1,1.07-.11,3.06-1.08,5.82-2.86,8.31-.66.92-1.26,1.88-2.03,2.66-.24.6-.48,1.14-.39,1.76.02.14.24.35.37.32.23-.05.46-.09.69-.16.73-.22,1.46-.48,2.21-.68,1.15-.3,2.3-.57,3.5-.63.35-.02.7-.07,1.06-.13.6-.1,1.18-.09,1.77.05.76.18,1.52.24,2.3.18.36-.03.72,0,1.07,0,.66,0,1.31.02,1.96.02.72,0,1.41-.16,2.09-.42,1.16-.46,2.36-.81,3.46-1.42.26-.14.55-.25.82-.33.47-.14.87-.37,1.26-.65,1.42-1,2.97-1.76,4.5-2.55.42-.21.86-.41,1.27-.64.94-.54,1.91-.6,2.92-.29.28.09.56.21.84.32.34.33.68.67,1.03.98.5.45.84,1.02,1,1.66.3,1.15.63,2.29.42,3.51-.13.76.13,1.41.66,1.95.07.08.19.1.33.17.15-.73.12-1.43-.14-2.12-.15-.39-.21-.8-.15-1.23.06-.37.46-.75.88-.76.24,0,.48.06.64.26.43.57.83,1.15,1.1,1.82.11.28.25.54.58.7.14-.04.3-.09.46-.15.94-.41,1.86-.28,2.75.14.78.35,1.39.9,1.81,1.66.31.57.73,1.09.84,1.76.06.35.13.69.07,1.06-.08.47-.14.94-.16,1.42-.05,1.13-.15,2.26-.66,3.3-.21,1.35-.86,2.6-.75,3.99-.49.99-.96,1.96-1.43,2.95-.07.88.18,1.73.42,2.59.31,1.11.58,2.7.61,3.68.04,1.43.08,2.85.09,4.29.02,1.66-.1,3.32-.33,4.97-.04.29-.08.58-.1.88-.06.77,0,1.57-.17,2.31-.19.76-.18,1.53-.39,2.28-.12.39-.15.82-.17,1.23-.05.84-.15,1.66-.51,2.43-.07.16-.13.35-.11.52.07.73-.18,1.4-.41,2.08-.11.33-.14.7.06,1.07.22.15.47.3.7.45.18.2.23.44.21.68-.05.68.3,1.12.84,1.46,1.2.74,2.5,1.07,3.91.96,1.82-.12,3.47-.72,5.02-1.66.15-.1.3-.2.46-.27,1.79-.89,3.22-2.22,4.51-3.81.35-.09.76-.2,1.15-.27.17-.03.36.02.53.05.31.07.51.41.4.68-.2.5-.4.99-.55,1.37-.22.32-.45.38-.67.45-.59.17-1.06.54-1.48.97-.84.87-1.85,1.49-2.9,2.06-1.36.74-2.79,1.31-4.23,1.89-.45.18-.9.31-1.38.35-.53.04-1.06.15-1.59.19-.77.06-1.54.11-2.31-.09-.46-.12-.95-.12-1.4-.26-.74-.22-1.49-.4-2.17-.79-.36-.21-.75-.36-1.16-.56Z"/>
        <path class="cls-1" d="M49.96,110.29c.63-.81,1.69-.98,2.54-1.53.39-.25,1.22-.06,1.46.33.77,1.23,1.96,1.87,3.24,2.41.6.25,1.21.5,1.8.78.88.43,1.8.57,2.77.56.59,0,1.18-.09,1.77-.12.58-.04,1.17.19,1.76.19,1.61.02,3.22,0,4.82-.06.53-.02,1.07-.12,1.58-.25.92-.24,1.81-.55,2.73-.82.53-.16,1-.39,1.37-.79.33-.36.71-.64,1.21-.71.5.05.92.25,1.15.72.31.61.82.98,1.42,1.28.85.43,1.63,1,2.58,1.19.29.06.57.15.87.18.83.08,1.66.14,2.49.2.23.02.47-.02.7-.05.36-.04.72-.14,1.07-.11,1.37.11,2.56-.44,3.74-.99,1.14-.52,2.28-1.01,3.47-1.39.34-.11.68-.22.93-.5.36-.39.83-.43,1.31-.4.12.01.24.04.45.07.68.42,1.23,1.16,2.05,1.56.75.37,1.42.86,2.17,1.23.8.39,1.64.71,2.44,1.05.49.05.96.1,1.44.15,1.26.14,1.87.07,3.31-.34.12-.03.23-.08.34-.1,1.31-.11,2.34-.81,3.3-1.62.27-.23.56-.43.92-.54.37-.1.71-.1.99.19.16.17.3.37.46.55.51.59,1.19.79,1.92.76.72-.03,1.42-.19,2.05-.56.31-.19.62-.35.94-.52.44-.22,1.01.21.93.72-.03.29-.12.58-.22.85-.12.28-.35.49-.64.57-.4.11-.81.2-1.22.27-.47.07-.96.05-1.41.18-.72.21-1.41.09-2.11-.1-.23-.06-.43-.18-.66-.28-.63-.27-1.27-.25-1.91-.03-.4.14-.77.32-1.15.51-1.41.68-2.91.99-4.46,1.15-1.01.1-2.02-.01-3.01-.27-.12-.03-.24-.04-.34-.1-1.37-.72-2.93-1.02-4.2-1.94-.73-.53-1.59-.8-2.42-1.14-.35-.14-.7-.13-1.04.03-.76.35-1.55.58-2.36.77-.81.19-1.58.53-2.32.93-1.39.76-2.88,1.09-4.46,1.01-.83-.04-1.66-.02-2.49-.19-.45-.1-.95-.08-1.42-.09-.48,0-.94-.11-1.38-.32-.53-.26-1.07-.5-1.62-.75-.75-.35-1.5-.7-2.26-1.06-.53-.25-1.08-.23-1.55.04-1.32.76-2.82.9-4.24,1.32-.22.06-.47.09-.71.09-1.01,0-2.01.07-3.02.21-.35.05-.72.02-1.07-.02-1.66-.22-3.33-.23-4.99-.25-1.71-.02-3.29-.48-4.78-1.23-1.17-.59-2.4-1.05-3.49-1.79-.41-.28-.91-.29-1.37-.09-1.53.68-3.17,1.01-4.76,1.49-.63.19-1.27.33-1.88.57-1.11.46-2.28.66-3.43.95-.29.07-.59.12-.88.12-.59.02-1.19.04-1.77.18-.17.04-.36.03-.53,0-1.42-.17-2.85-.26-4.24-.54-1.1-.22-2.22-.35-3.31-.63-1.93-.48-3.69-1.31-5.27-2.51-.09-.07-.18-.15-.28-.22-.43-.31-.89-.32-1.35-.09-.43.21-.84.45-1.24.7-.71.46-1.44.82-2.27,1-.58.14-1.14.36-1.7.53-1.96.56-3.95.86-5.99.78-.41-.02-.83-.07-1.23-.14-1.65-.27-3.25-.72-4.81-1.31-1.05-.4-2.1-.82-3.14-1.26-.16-.07-.32-.15-.47-.25-.25-.18-.4-.43-.45-.74-.03-.19.24-.51.43-.48.83.12,1.62.35,2.4.63,1.4.5,2.8.99,4.19,1.5.39.15.79.25,1.2.33.94.18,1.87.37,2.83.16,2.61-.14,4.11-.48,6.59-1.32,1.33-.45,2.5-1.1,3.43-2.16.5-.57,1.56-.51,2.06.08.34.41.7.81,1.06,1.23,1.37.95,2.93,1.55,4.48,2.16.32.12.7.14,1.05.16.48.02.94.11,1.41.19,1.34.21,2.71.39,4.07.51,2.17.19,4.26-.27,6.32-.9.56-.18,1.13-.37,1.68-.6.66-.28,1.33-.49,2.04-.62.47-.09.91-.28,1.58-.49Z"/>
        <path class="cls-1" d="M21.48,101.66c.94-2,2.12-3.85,3.41-5.64.45-.62.85-1.29,1.27-1.93.79-1.19,1.68-2.31,2.65-3.36.88-.96,1.7-1.99,2.55-2.98.42-.5.88-.97,1.31-1.46.69-.79,1.61-1.19,2.56-1.54.37.19.45.3.44.4,0,.11-.07.25-.15.3-1.33.93-2.41,2.11-3.46,3.34-1.28,1.48-2.55,2.98-3.76,4.52-1.32,1.69-2.48,3.49-3.62,5.3-.69,1.11-1.38,2.22-1.9,3.43-.29.45-.74.49-1.03.24q-.15-.12-.27-.62Z"/>
        <path class="cls-1" d="M87.38,66.18c-.11-.02-.29-.03-.46-.08-.24-.06-.42-.21-.56-.41-.13-.17-.05-.56.13-.61.18-.04.34-.1.52-.13,1.66-.21,3.25-.66,4.83-1.16.11-.04.22-.1.33-.12,1.18-.24,2.24-.74,3.29-1.32.2-.11.44-.17.67-.21.25-.05.59.19.68.46.09.25.02.47-.14.66-.1.14-.26.25-.41.33-.42.21-.84.44-1.29.59-1.46.49-2.92.99-4.39,1.44-1.36.42-2.17.54-3.21.56Z"/>
        <path class="cls-1" d="M83.37,98.15c-.23-.09-.41-.14-.56-.23-.39-.22-.47-.75-.17-1.05.13-.12.25-.25.4-.35.56-.37.92-.89,1.21-1.48.36-.74.72-1.48,1.1-2.21.07-.15.21-.27.33-.41.15-.16.46-.18.65-.04.26.17.46.54.39.73-.45,1.48-1.12,2.85-1.96,4.14-.3.46-.75.73-1.39.9Z"/>
        <path class="cls-1" d="M51.83,97.8c.05-.21.13-.61.25-1,.27-.84.56-1.68.87-2.51.29-.79.74-1.47,1.41-1.99.12-.1.33-.1.49-.1.22,0,.44.34.36.51-.07.17-.14.33-.22.49-.69,1.18-1.06,2.49-1.56,3.75-.19.48-.16,1.04-.23,1.57-.03.25-.18.43-.35.6-.21.21-.58.15-.77-.1-.23-.3-.25-.64-.25-1.21Z"/>
        <path class="cls-1" d="M67.02,62.01c.39.13.6.4.5.81-.21.8-.32,1.64-.68,2.4-.26.55-.29,1.15-.46,1.72-.05.18-.41.33-.6.25-.41-.15-.72-.6-.64-.95.04-.18.09-.35.15-.52.39-.99.79-1.98.98-3.05.06-.37.35-.6.75-.66Z"/>
        <path class="cls-1" d="M94.57,67.55c.12.02.24.03.35.05.26.06.4.23.5.46.08.18-.04.52-.21.62-.21.12-.42.29-.64.3-.79.03-1.5.34-2.24.54-.34.09-.69.15-1.04.21-.25.02-.45-.1-.61-.3-.14-.17-.12-.52.06-.64.19-.14.38-.29.6-.35.68-.2,1.37-.39,2.02-.7.38-.19.8-.19,1.22-.18Z"/>
        <path class="cls-1" d="M93.48,70.15c.44.18.54.39.56.64.01.25-.09.5-.29.62-.75.48-1.55.88-2.44,1.06-.24.05-.46-.04-.65-.22-.18-.18-.2-.5-.02-.63.1-.07.18-.16.28-.21.85-.42,1.7-.84,2.55-1.25Z"/>
      </g>
    </g>
  </g>
</svg>