<?xml version="1.0" encoding="UTF-8"?>
<svg id="Layer_2" data-name="Layer 2" xmlns="http://www.w3.org/2000/svg" viewBox="0 0 186.5 239.33">
  <defs>
    <style>
      .cls-1 {
        fill: #593826;
        fill-rule: evenodd;
      }
    </style>
  </defs>
  <g id="_Layer_" data-name="&amp;lt;Layer&amp;gt;">
    <path class="cls-1" d="M74.9,95.24c-.86.46-1.31,1.16-1.3,2.11,0,.26.2.59.41.76.29.24.89-.11,1.03-.56.22-.73.43-1.47-.14-2.31h0ZM72.95,108.15c-.25.11-.41.15-.53.25-.61.46-1.21.93-1.8,1.41-.75.61-.83,1.35-.19,1.94.9.83,1.88,1.57,2.76,2.4.89.83,1.71,1.73,2.57,2.59.08.08.35.09.44.02.19-.18.5-.48.45-.62-.82-2.46-1.56-4.96-2.73-7.28-.17-.33-.67-.5-.97-.7h0ZM83.33,116.56c.38-.53.41-1.15.33-1.76-.22-1.65.13-3.38-.68-4.94-.88-1.68-.21-3.64-1.02-5.35-.38-.8-.12-1.84-.85-2.54-1.04-.38-1.81.1-2.37.87-.87,1.19-1.12,2.51-.44,3.88.81,1.64,1.45,3.33,1.92,5.12.47,1.76,1.4,3.36,2.74,4.66.07.07.24.04.37.06h0ZM52.68,98.1c-.94-2.01-2.48-3.52-4.33-4.61-1.47-.86-2.76-1.91-4.01-3.02-.57-.5-1.1-1.13-1.77-1.44-1.98-.91-3.5-2.4-5.11-3.79-.27-.24-.64-.11-.73.18-.43,1.22-.15,2.43.36,3.53.23.5.8.96,1.32,1.18,1.13.47,2.28.88,3.28,1.61,1.48,1.08,3.02,2.09,4.4,3.27,1.77,1.51,3.82,2.49,5.91,3.42.3.14.56-.04.68-.33h0ZM85.93,65.79c-2.24,2.39-3.2,5.49-4.98,7.85-.15,1.3.17,2.31.48,3.34,1.12,3.81,1.75,7.71,1.97,11.68.05.91.16,1.83.4,2.7.1.34.63.55.94.8.65-.48.75-1.09.54-1.67-.65-1.73-1-3.52-1.08-5.36-.02-.45-.11-.91-.27-1.34-.52-1.36-.35-2.69-.04-4.05.2-.89.29-1.81.47-2.7.7-3.42.87-6.94,1.88-10.31.07-.23-.16-.55-.3-.95h0ZM130.27,120.46c.24-1.22.14-2.13-.46-2.87-.69-.85-1.63-1.35-2.73-1.5-2.2-.3-3.48.49-4.23,2.54-.31.86-.59,1.72-.58,2.65.04,2.73.22,5.44,1.12,8.22.43-.29.93-.44,1.06-.75.72-1.67,1.36-3.37,2.01-5.06.52-1.36,1.42-2.31,2.8-2.79.28-.1.54-.24,1.01-.44h0ZM87.89,103.83c-.07,2.14,0,3.97.48,5.76.39,1.49.54,3,.6,4.52.08,2.29.18,4.57.3,6.86.01.27.34.34.66.18.12-.07.27-.23.27-.35.12-2.72.52-5.42.4-8.16-.17-3.82.15-7.62.85-11.38.17-.9.21-1.82.3-2.73.14-1.4-.6-2.3-1.68-3.02-.34-.22-1.02-.21-1.27.03-1.18,1.12-1.88,2.44-1.4,4.09.44,1.49.67,2.97.49,4.21h0ZM22.94,76.15c.52,2.16,1.04,4.35,1.56,6.54.1.44.16.9.29,1.33.31.95,1,1.61,1.97,1.64,2.04.07,3.83.79,5.6,1.71.17.09.52-.16.79-.26-.15-2.96-.18-2.96-1.56-4.99-.44-.65-.65-1.35-.86-2.08-.25-.92-.81-1.67-1.7-2.01-1.15-.45-2.06-1.24-3.07-1.91-.92-.61-1.97-.73-3.02.03h0ZM28.95,46.64c0,.13-.07.29-.02.39,1.05,2.2,2.1,4.4,3.18,6.59.69,1.4,1.65,2.66,3.02,3.36,1.76.89,3.66,1.5,5.5,2.22.13.05.3-.03.45-.02.38.02.85-.49.84-.9-.02-1.29-.51-2.46-1.44-3.25-1.06-.91-1.27-2.01-1.36-3.25-.01-.14-.14-.26-.21-.4-.1-.11-.18-.26-.3-.33-2.66-1.5-5.33-2.99-7.99-4.48-.13-.07-.28-.13-.42-.17-.14-.04-.31-.12-.44-.08-.28.08-.54.21-.82.33h0ZM71.95,93.45c.17-.37.39-.74.52-1.13.32-1.02.72-2.02.86-3.06.54-3.96,1.66-3.41-.75-7.82-.51-.92-.72-2-1.17-2.96-.65-1.4-1.6-2.57-2.96-3.36-.31-.19-1.04.11-1.1.48-.11.59-.24,1.18-.29,1.78-.27,3.16-.02,6.36-.75,9.47,1.51,2.38,3.49,4.29,5.14,6.45.07.1.28.09.51.16h0ZM51.96,107.37c1.17.71,1.9,1.66,2.22,2.89.26,1,1.02,1.5,1.82,1.93.53.28,1.13.45,1.72.57.9.18,1.81.35,2.72.39,1.36.07,2.72.02,4.1.02-.06-.21-.06-.4-.16-.48-4.49-3.94-9.87-6.6-14.6-10.19-2.16-1.1-4.07-2.66-6.32-3.65-.46,1.35-1.12,4.59-1.04,5.36.03.27.23.58.45.75.35.29.75.61,1.17.7,2.67.57,5.23,1.65,7.93,1.71h0ZM40.82,97.45c-1.51.17-2.83.29-4.16.78-1.84.67-3.81,1.01-5.73,1.43-1.4.31-2.8.09-3.99-.63-2.36-1.42-5.17-1.85-7.4-3.55-.46-.36-1.11-.48-1.68-.7-.57-.21-1.17-.36-1.72-.61-3.28-1.53-5.68-4.05-7.63-7-.79-1.21-.32-3.73.89-4.61,1.4-1,2.31-2.42,3.44-3.55,1.26-.74,2.45-1.42,4.01-1.5,1.12.57,2.34,1.19,3.5,1.78.83,1.25.77,2.68,1.22,3.94-.31.83-.82,1.29-1.73,1.09-.59-.13-1.18-.32-1.78-.4-.91-.11-1.82-.2-2.73-.18-.78.02-1.46.36-2,.97-.73.84-.53,2.3.48,2.72.83.34,1.75.79,2.6.74,3.28-.2,6.31.92,9.43,1.61.74.16,1.44.53,2.19.65,1.7.28,3.22.92,4.62,1.91,1.13.8,2.34,1.39,3.68,1.79,1.47.43,2.83,1.15,3.99,2.18.26.24.33.7.51,1.12h0ZM132.57,130.18c.04.75.02,1.67.18,2.56.16.91,1.12,1.7,1.95,1.67,1.37-.05,2.75-.19,4.32.35.43.3,1.02.79,1.69,1.15,1.66.9,2.85,2.23,3.92,3.77,1.67,2.41,3,4.97,4.22,7.62.76,1.67,1.42,3.39,2.51,4.89.64.88,1.11,1.79,1.32,2.89.2,1.07.9,1.93,1.64,2.72.54.57,1.19,1,2.02.75.63-.19.98-.72,1.13-1.33.33-1.32.62-2.65.91-3.89-.24-.8-.46-1.53-.67-2.26-.41-1.47-.76-2.96-1.24-4.41-1.43-4.35-2.89-8.69-4.37-13.02-.07-.21-.43-.34-.67-.48-.03-.02-.29.24-.27.33.33,1.52.15,3.05-.03,4.56-.11.91-.29,1.81-.5,2.7-.17.7-.67.94-1.76.68.04-4.14-.81-8.32-1.16-12.54-.99-1.59-2.18-3.03-2.06-5.04.03-.59-.53-1.09-1.04-1.44-.37-.25-.79-.43-1.21-.61-.36-.16-1.03.25-1.05.6-.11,1.54.1,3.03.54,4.52.57,1.92.71,3.9.25,5.89-.07.3-.79.82-1.07.71-.27-.1-.59-.24-.74-.46-.26-.37-.53-.8-.57-1.23-.3-3.06-1.29-5.96-1.79-8.97-.15-.91-.28-1.82-.48-2.71-.24-1.1-.82-1.97-1.92-2.4-.43-.17-.85-.35-1.29-.46-.28-.07-.6-.03-.91-.03-.46,0-.9.46-.83.9.31,1.96.59,3.91,1.21,5.82.66,2.02.42,3.94-1.51,5.32-.23.17-.37.48-.67.87h0ZM88.44,82.53c.16.84.48,1.88.54,2.94.13,2.09,1.06,3.8,2.28,5.4.29.38.74.44,1.3.06.14-.62.3-1.36.46-2.09.16-.75.36-1.49.49-2.24.71-4.24,1.73-8.38,3.28-12.41,2.08-5.43,4.06-10.91,5.1-16.66.06-.3.15-.6.27-.88.99-2.24,1.96-4.48,3-6.7,1.42-3.05,3.12-5.97,4.68-8.95,2.06-3.93,3.99-7.93,6-11.89.55-1.09,1.14-2.18,1.83-3.18,2-2.9,4.06-5.75,6.08-8.64.34-.49.61-1.05.88-1.58.04-.08-.04-.27-.12-.37-.09-.11-.23-.23-.35-.24-.82-.06-1.49.36-2.06.86-2.08,1.81-4.13,3.65-5.91,5.23-.81,1.36-1.34,2.48-2.08,3.43-2.85,3.62-5.34,7.46-7.58,11.48-.37.66-.75,1.37-1.3,1.86-1.19,1.06-1.85,2.42-2.51,3.8-.66,1.38-1.18,2.85-2.04,4.1-1.4,2.01-2.27,4.33-3.83,6.26-.65.8-.92,1.92-1.27,2.93-.4,1.16-.67,2.35-1.03,3.52-.22.72-.46,1.46-.79,2.14-1.21,2.47-3.3,8.08-4.03,10.7-.37,1.34-.6,2.68-.68,4.06-.15,2.29-.37,4.57-.58,7.06h0ZM53.05,118.58c-.1-.13-.17-.3-.28-.33-2.23-.76-4.13-.2-5.13,1.64-1.02,1.88-1.9,3.84-2.88,5.74-.35.67-.79,1.29-1.27,1.87-.15.18-.58.27-.83.2-.23-.06-.47-.36-.57-.6-.32-.75-.15-1.52.1-2.24.49-1.44,1.12-2.85,1.57-4.3.1-.3-.28-.75-.42-1.09-.93-.02-1.63.29-2.31.63-.13.07-.22.21-.51.47-.14.37-.27.98-.56,1.49-1.68,2.96-2.63,6.16-3.35,9.46-.29,1.32-.91,2.57-1.4,3.84-.22.57-1.08.54-1.47-.09-.24-.38-.37-.82-.54-1.22.44-2.6.83-5.17,1.49-7.68.15-.59.19-1.21-.25-1.73-.66-.07-1.16.25-1.62.65-2.31,2.02-4.35,4.3-6.28,6.68-1.46,1.81-2.45,3.83-3.14,6.06-.65,2.1-.77,4.2-.63,6.34.05.76.2,1.52,0,2.27-.08.31-.73.82-1.05.7-.26-.1-.6-.24-.71-.46-.73-1.37-1.14-2.82-1.03-4.4.06-.88.26-1.82-.34-2.63-.28.1-.65.13-.83.33-.61.67-1.27,1.34-1.71,2.13-1.26,2.28-2.68,4.45-4.15,6.6-.6.88-1.06,1.85-1.53,2.81-.12.24-.02.58-.02,1,.58.09,1.17.25,1.76.24,2.29-.02,4.58-.1,6.87-.15,1.56-.04,3.03-.52,4.39-1.2,1.64-.82,3.15-1.83,4.46-3.18,2.03-2.09,3.86-4.34,5.79-6.51,1.12-1.26,2.25-2.46,3.09-3.96.74-1.32,1.81-2.46,2.78-3.64.39-.47.84-.97,1.37-1.19,2-.82,3.6-2.29,5.49-3.3,2.48-1.33,5.02-2.18,7.88-1.75.6.09,1.22.2,1.82.18,2.29-.08,4.23-.85,5.18-3.11.46-1.11,1.46-1.99,1.46-3.22-.15-.9-.62-1.48-1.33-1.84-.41-.21-.87-.31-1.29-.48-3.95-1.6-4.34-.68-5.86,2.62-.38.82-.58,1.73-.93,2.57-.3.71-1.4,1.2-1.86.91-.61-.39-1.15-1.37-1.02-1.93.1-.44.25-.88.35-1.32.31-1.33,1.27-2.45,1.27-3.87h0ZM70.46,102.6c-.84,1.27-1.97,1.78-3.04,2.35-.86.45-1.76.44-2.62-.08-1.59-.97-2.94-2.17-4.02-3.7-2.82-4.01-5.82-7.87-9.55-11.1-1.03-.9-1.88-2-2.98-3.19-2.23-.44-4.24-1.82-6.13-3.37-2.72-2.23-5.38-4.53-7.96-6.92-1.12-1.03-2.17-2.15-3.16-3.31-1.03-1.21-2.16-2.15-3.83-2.24-.95-.05-1.76-.54-2.49-1.1-4.38-3.34-8.97-6.4-13.21-9.92-2.25-1.86-4.18-4.02-5.99-6.51-.27-1.53-.57-3.18-.82-4.58.31-1.19.91-1.85,1.62-2.47,1.94-1.7,4.06-2.53,6.72-2.24,2.58.29,5.19.21,7.79.3.61.02,1.22.09,1.74.58.15.69.3,1.42.45,2.11.14.15.23.3.36.36.82.39,1.71.66,2.46,1.14,1.06.69,1.54,1.88,2.16,2.93.46.78,1.08,1.51,1.09,2.47,0,.24-.27.49-.43.75-.43-.15-.86-.3-1.29-.47-.42-.17-.84-.37-1.24-.55-1.7-.13-3.41-.09-5.03-.44-1.47-.31-2.85-1.06-4.12-1.55-.81.06-1.36.29-1.78.78-1.14,1.31-.62,3.32.98,3.66,1.64.34,3.3.66,4.96.9,1.07.15,2.07.45,3.06.89,2.38,1.05,4.83,1.93,7.19,3.01,1.8.83,3.58,1.67,5.17,2.94,1.54,1.23,3.3,2.21,5.02,3.19,1.49.84,2.88,1.79,3.95,3.1,1.76,2.14,3.86,3.92,5.84,5.84,1.66,1.6,3.31,3.18,4.5,5.18.38.65.92,1.22,1.43,1.79,1.32,1.49,2.59,3,3.63,4.72.79,1.29,1.81,2.48,2.9,3.54,1.57,1.52,2.67,3.35,3.72,5.21,1.03,1.86,1.89,3.82,2.94,6h0ZM111.53,48.43c-.39-.21-.56-.5-.41-.81,1.64-3.28,2.9-6.75,4.79-9.9.31-.52.69-1,1.02-1.48.65.29,1.21.53,1.72.76,1.95-1.23,6.1-4.64,7.44-6.12.27-.3.25-.92-.02-1.25-.32-.37-.73-.63-1.19-.51-1.98.5-3.61,1.61-5.09,2.98-.27.25-.6.12-.86-.28.57-.67,1.11-1.41,1.74-2.05.88-.89,1.54-1.89,2.04-3.02,1.46-3.28,3.52-6.09,6.49-8.18.82-.58,1.14-1.38.86-2.41-.27-.97.13-1.79.81-2.6.36-.08.8-.27,1.24-.26,1.38.06,2.45.92,2.6,2.11.12.91.12,1.83.18,2.74.27,3.87-.17,7.61-1.58,11.26-.54,1.41-.86,2.93-1.42,4.36-.28.71-.45,1.46-.64,2.19-.24.89-.42,1.79-.7,2.67-1.76,5.7-3.65,11.36-5.19,17.13-.12.44-.28.88-.48,1.29-.97,1.93-1.52,4.02-2.38,5.97-1.55,3.52-2.67,7.16-3.94,10.77-2.05,5.83-4.95,11.19-9.35,15.63-.43.44-.91.84-1.27,1.33-1.59,2.23-3.91,3.39-6.32,4.42-.7.3-1.46.49-2.2.59-.75.1-1.52.03-2.15.03-.66-.49-.85-1.07-.76-1.69.23-1.51.52-3.01.79-4.56,2.34-2.23,4.79-4.32,6.94-6.68,2.06-2.25,4.6-4.03,6.48-6.35-.66-1.39-1.27-1.72-2.06-1.28-2.04,1.12-3.77,2.62-5.39,4.25-1.19,1.2-2.33,2.45-3.82,3.29-.19.11-.55-.01-.81-.1-.1-.03-.21-.27-.2-.39.05-.76.06-1.53.21-2.27.12-.59.4-1.15.66-1.71.32-.69.69-1.36,1.11-2.18,1.15-.77,2.52-1.49,3.33-2.87,1.82-3.09,4.6-5.29,7.23-7.63,1.49-1.32,2.94-2.67,4.38-4.04.17-.17.16-.57.16-.86,0-.31-.78-.6-1.15-.46-.43.16-.86.32-1.29.49-1.31.5-2.36,1.4-3.43,2.27-1.43,1.15-2.85,2.33-4.29,3.47-.35.27-.79.42-1.2.64-.11-.34-.31-.65-.27-.91.59-3.16,1.79-6.15,2.65-9.01,1.33-1.16,2.52-2.12,3.63-3.17,2.9-2.74,6.01-5.22,9.25-7.53.61-.44,1.14-1,1.63-1.57.16-.18.12-.58.09-.87-.03-.33-.72-.74-1.07-.66-.44.1-.93.14-1.3.37-1.18.72-2.32,1.49-3.45,2.27-1.25.86-2.45,1.79-3.8,2.42h0ZM86,59.21c-1.87,2.12-2.92,4.86-4.42,7.34-.14.23-.44.36-.67.53-.26.19-.75-.2-.98-.78-.17-.43-.36-.85-.5-1.28-.68-2.19-1.35-4.38-2.08-6.77.96-3.06,1.98-6.26,2.98-9.47.22-.73.39-1.48.53-2.22.12-.63-.06-1.21-.5-1.68-.67-.1-1.21.13-1.51.73-.61,1.23-1.18,2.48-1.78,3.71-.06.12-.3.27-.37.24-.23-.11-.55-.26-.61-.46-.77-2.63-1.5-5.27-2.26-7.95.61-.73,1.3-1.37,1.74-2.15.44-.78.62-1.72.96-2.57,1.16-2.83,2.45-5.61,3.11-8.61.05-.22-.17-.61-.37-.75-.21-.14-.59-.16-.86-.09-.28.07-.59.26-.75.49-.52.75-1.11,1.49-1.42,2.33-.76,2.02-1.99,3.79-2.95,5.7-.23.46-.68.54-1.18.41-.88-1.1-1.15-2.43-1.32-3.82-.17-1.51-.43-3.01-.69-4.84.27-2.9,1.39-5.91,2.66-8.88.3-.7.63-1.39.6-2.19-.02-.39-.27-.88-.7-1.08-.35-.16-1.1-.01-1.24.28-.62,1.23-1.21,2.46-1.82,3.69-.27.56-.63,1.05-1.24,1.28-1.01-.64-1-1.8-1.42-2.75-.26-.58-.66-1.03-1.25-1.27-.44-.18-.88-.18-1.29.12-.83.59-1.24,1.45-1.04,2.39.58,2.68.89,5.43,2.04,7.98,1.32,2.95,2.28,5.99,2.57,9.24.14,1.52.55,3.01.92,4.5.18.73.48,1.46.82,2.13,1.12,2.21,1.78,4.55,2.22,6.98.25,1.35.57,2.7.77,4.06.57,3.95,1.54,7.81,2.7,11.61.77,2.51,1.18,5.06,1.55,7.64.26,1.82.55,3.64.79,5.46.08.6.01,1.2.01,1.75-.22.26-.43.19-.66-.15-.09-.12-.18-.25-.28-.36-1.34-1.66-1.74-3.88-3.42-5.4-1.58-1.43-2.83-3.21-4.25-4.82-1.21-1.38-2.64-2.54-3.49-4.23-.33-.66-1.02-1.13-1.53-1.71-.71-.8-1.4-1.61-2.16-2.47-1.12-4.42-2.18-8.86-2.44-13.48-.16-2.9-.71-5.77-1.12-8.65-.53-3.79-1.43-7.52-1.72-11.34-.06-.75-.34-1.49-.54-2.22-.38-1.33-.74-2.66-1.18-3.96-1-2.96-.89-6.04-1.01-9.1-.02-.6.07-1.27.33-1.79.75-1.5,1.59-2.95,2.47-4.39.22-.37.65-.66,1.06-.86.82-.41,1.68-.74,2.43-1.06.4-.04.71-.07,1.01-.09,3.29-.2,5.95.93,8.08,3.51,1.26,1.53,2.98,2.69,4.15,4.27,1.17,1.58,1.9,3.48,2.85,5.23.8,1.48,1.67,2.93,2.48,4.4.96,1.75,1.69,3.54,2.02,5.57.28,1.79,1.09,3.49,1.74,5.21.49,1.3.8,2.61.97,3.99.37,3.04.93,6.05,1.38,9.08.14.91.19,1.82.29,2.73.15,1.37.18,2.77.5,4.1.55,2.28.47,4.55.28,7.02h0ZM124.44,70.38c2.32-1.06,4.2-2.9,6.24-4.48,1.05-.82,1.87-2.04,2.55-3.21,1.61-2.82,3.64-5.26,5.87-7.6,2.01-2.11,4.08-4.14,6.33-6,.95-.79,1.93-1.49,3.01-2.09,3.07-1.72,6.22-3.29,9.03-5.46,1.08-.83,2.36-1.46,3.64-1.94,4-1.51,7.98-3.13,12.19-4.04,1.83.2,3.66.37,5.48.62,1.94.27,3.18,1.86,3.14,3.89-.02,1.27-.36,2.41-1.27,3.35-2.57,2.63-5.11,5.3-7.72,7.88-1.08,1.07-2.26,2.09-3.53,2.92-1.42.94-2.66,2.05-3.93,3.17-3.69,3.23-7.27,6.57-10.8,9.97-.77.74-1.56,1.49-2.45,2.07-1.56,1.03-2.87,2.32-3.93,3.83-1.33,1.89-2.92,3.54-4.46,5.25-1.53,1.7-3.22,3.28-4.3,5.36-.27.53-.71,1-1.15,1.42-2.23,2.14-4.06,4.6-5.7,7.19-1.52,2.4-3.66,4.11-5.88,5.71-1.59,1.14-3.27,2.22-5.32,2.58-1.36.24-2.45,1.23-3.46,2.18-.9.85-1.85,1.62-3.08,1.9-.34.08-.55-.14-.61-.61.74-1,1.57-2.1,2.38-3.21.64-.87,1.45-1.02,2.41-.65.13.05.3,0,.57-.02.27-.22.67-.45.96-.78,1.02-1.18,2.24-2.06,3.64-2.75,1.51-.75,2.97-1.59,4.42-2.44.67-.39,1.21-.97,1.45-1.72.08-.24-.02-.62-.18-.82-.17-.21-.55-.41-.78-.36-.88.21-1.75.49-2.6.81-1.13.44-2.24.95-3.36,1.4-.1.04-.29-.06-.39-.15-.09-.08-.19-.27-.15-.36.21-.56.36-1.2.72-1.66,1.11-1.46,2.3-2.87,3.47-4.28,1.07-1.3,2.39-2.46,3.19-3.9,1.14-2.05,2.88-3.12,4.93-3.87,1.43-.52,2.92-.87,4.39-1.3.64-1.06.61-1.48-.15-1.8-.57-.23-1.15-.43-1.71-.66-.13-.06-.24-.2-.31-.33-.06-.11-.1-.31-.05-.39,1.42-1.99,2.83-4,4.83-5.47.6-.45,1.33-.75,2.02-1.08,2.35-1.12,4.81-1.98,7.25-2.86.63-.23.96-.7.91-1.4-1.11-1.1-2.68-.09-3.87-.85.08-.86.69-1.37,1.31-1.8,1.52-1.03,3.08-2,4.56-2.95,1.26-.34,2.43-.76,3.63-.95,2.55-.41,4.46-1.91,6.32-3.52.47-.4.35-1.06-.35-1.97-.71.04-1.45.09-2.15.14-.26-.25-.25-.51.04-.78.44-.42.86-.88,1.37-1.19,1.04-.64,2.13-1.19,3.16-1.76.74-.93.92-1.96.89-3.06-.04-1.71-1.91-2.22-3.03-1.78-.28.11-.57.26-.79.45-.81.7-1.63,1.4-2.37,2.17-2.55,2.65-5.22,5.17-8.01,7.58-1.86,1.61-3.72,3.14-5.85,4.41-1.82,1.08-3.4,2.6-4.97,4.06-1.34,1.24-2.46,2.73-3.92,3.87-.36.27-.7.64-.89,1.04-1.69,3.52-4.51,6.17-7.01,9.04-2.32,2.66-4.56,5.37-6.74,8.13-2.18,2.76-4.27,5.6-6.22,8.54-1.27,1.91-2.81,3.63-4.21,5.45-.75.97-1.54,1.91-2.2,2.94-1.15,1.81-2.21,3.67-3.6,5.32-1.09,1.29-1.37,3.09-2.6,4.3-.16.16-.51.15-.78.15-.12,0-.26-.15-.35-.27-.09-.12-.17-.26-.21-.41-.93-3.73-.41-7.28,1.21-10.72.34-.71.81-1.36,1.52-1.67,2.03-.9,3.45-2.53,4.96-4.03,1.41-1.4,2.73-2.9,4.07-4.37.41-.45.78-.95,1.1-1.46,1.13-1.82,2.26-3.65,3.33-5.5.38-.65.73-1.38.85-2.11.27-1.7.98-3.2,1.74-4.71.82-1.63,1.43-3.37,2.33-5.55h0ZM86.21,138.3c.27.13.59.2.8.4.61.55,1.26.89,2.06.49.92-.48,1.45-1.68,1.26-2.72-.06-.3-.17-.59-.19-.9-.07-1.35-.95-2.52-.67-4.02.24-1.3-.13-2.72-.18-4.08-.02-.45.09-.91.2-1.35.07-.29.36-.38.79-.29.59,1.52,1.2,3.07,1.76,4.51.56.31.97.38,1.34-.02.65-.71.98-1.58.94-2.51-.04-.91-.27-1.81-.37-2.72-.07-.6-.17-1.23-.06-1.82.63-3.63.89-7.28.58-10.97-.05-.6-.02-1.22.02-1.83.16-2.6.34-5.19.5-7.71.59-1.42,1.61-2.29,3.09-2.83.28.24.75.44.91.79.38.85.51,1.79.23,2.69-.37,1.19-.48,2.37-.49,3.61-.02,1.04-.45,2.07-.71,3.16.8,1.77,2.13,2.9,4.05,3.37.57.14.85.99.54,1.52-1.54,2.64-2.45,5.6-4.23,8.12-.52.73-.82,1.63-1.1,2.5-.86,2.62-1.67,5.25-2.95,7.7-.9,1.71-1,3.52-.75,5.36.06.42.34.84.6,1.19.56.75,1.99.61,2.29-.22.31-.86.5-1.76.8-2.62.19-.56.45-1.12.76-1.63.1-.17.45-.21.7-.24.05,0,.21.25.21.38-.02.46,0,.94-.14,1.35-.83,2.47-1.64,4.94-2.58,7.37-.45,1.15-.76,2.3-.98,3.52-.51,2.88-.61,5.78-.79,8.69-.1,1.68-.33,3.35-.46,5.03-.19,2.45-.47,4.89-.49,7.34-.03,3.67-.03,7.35-.58,10.99-.02.15-.01.3-.02.46-.06,1.43.29,2.02,1.6,2.36.43.12.88.27,1.26.5.24.14.48.42.54.69.14.59.24,1.2.24,1.81-.02,4.44-.04,8.88-.13,13.32-.08,4.15.3,8.26,1.05,12.33.45,2.42.73,4.86.71,7.3-.03,2.96.56,5.76,1.4,8.55.17.58.32,1.18.44,1.77.18.9.22,1.83.5,2.68.22.69.72,1.29,1.13,1.98-.39.36-.68.85-1.06.92-3.59.76-7.19,1.5-10.9,1.08-.7-.08-1.34-.91-1.21-1.68.66-3.94.49-7.94.73-11.91.05-.76-.06-1.51-.46-2.21-.27-.47-1.21-.66-1.59-.28-.44.45-.78.96-.87,1.58-.44,3.03-.95,6.05-.88,9.12.03,1.23-.02,2.45-.07,3.67-.01.29-.16.58-.26.87-.12.34-.38.54-.7.45-.25-.08-.6-.25-.66-.45-.28-.89-.26-1.85.02-2.72.67-2.08.65-4.22.69-6.37.07-3.67.21-7.33.71-10.99.58-4.24.77-8.54,1.41-12.77.37-2.44.62-4.85.38-7.3-.06-.58-.32-1.18-.62-1.7-.22-.37-.66-.61-1.16-.6-.5,0-1.3.56-1.38,1.01-.08.45-.2.91-.17,1.36.04.76.15,1.53.31,2.27.22,1.07.18,2.12.04,3.19-.2,1.52-.32,3.04-.43,4.57-.13,1.68-.33,3.34-.58,5.01-.68,4.68-1.46,9.37-1.3,14.14.12,3.38-.43,6.72-1.06,10.03-.06.27-.26.56-.46.77-.58.59-1.32.75-2.11.69-.92-.07-1.85-.15-2.17-1.26.09-.3.12-.62.26-.87,2.66-4.81,3.39-10.08,3.87-15.45.39-4.42.95-8.82,1.01-13.27.88-3.58.58-7.31,1.5-10.89.23-.87.12-1.83.22-2.74.13-1.17.49-1.58,2.32-2.8.46.19,1.01.41,1.55.65,1.09.48,1.87-.3,2.19-1.06.6-1.48.43-2.99.21-4.5-.54-.45-1-.85-1.46-1.25-.34-.3-.66-.62-.92-.87-.1-.39-.25-.68-.25-.98,0-1.22.09-2.45.04-3.67-.07-1.84-.02-3.71-.41-5.49-.43-1.97-.61-3.92-.65-5.91-.05-2.3-.17-4.58-.75-6.83-.46-1.81-.49-3.63.51-5.35.65-1.1.36-2.39.51-3.73.43-.33.91-.68,1.38-1.06,1.22-.99,1.46-2.32,1.06-3.73-.38-1.32-1-2.56-1.41-3.88-.22-.71-.22-1.49-.33-2.24-.14-.05-.36-.06-.42-.16-.43-.78-.94-1.54-1.21-2.37-.27-.83-.38-1.75.19-2.56.16.25.38.48.45.76.34,1.31.64,2.63.94,3.96.03.14-.03.3-.04.45h0ZM56.85,72.89c.12.43.11.96.37,1.28,1.71,2.12,3.5,4.19,5.76,5.76.18.12.55-.03.96-.06.35-2.08.49-4.2-.29-6.23-.42-1.11-.34-2.04.2-3.02.07-.12.01-.3.01-.67-.82-1.78-2.38-3.25-3.71-4.88-.11-.14-.52-.07-.78-.03-.09.01-.24.24-.22.36.25,1.95.55,3.9.78,5.86.07.61-.16,1.19-.65,1.62-.65.57-1.34.56-2.07.15-.12-.07-.3-.04-.45-.05.21-3.24-.09-6.38-1.59-9.15.06-1.09.1-1.98.15-2.95-.43-.44-.79-.95-1.27-1.3-2.33-1.69-5.69-3.49-8.87-4.82-.14.41-.44.84-.38,1.21.29,1.8.65,3.59,1.05,5.37.13.58.4,1.16.7,1.67.93,1.6,2.05,3.07,3.76,3.88,1.44.68,2.46,1.73,3.35,3.01.69.99,1.53,1.89,2.35,2.78.16.18.55.15.84.22h0ZM75.23,123.48c-.27-.11-.61-.14-.81-.33-1.3-1.26-2.61-2.49-4.12-3.53-.88-.6-1.54-1.43-2.03-2.39-.17-.33-.15-.66.14-.77.24-.09.55-.04.82,0,.13.02.25.16.35.28.9,1,1.73,2.05,2.84,2.89.94.71,1.67,1.72,2.41,2.67.24.32.21.84.3,1.28.15.11.3.22.45.33-.07-.03-.16-.05-.21-.1-.07-.1-.1-.22-.15-.33h0ZM138.13,11.39c1.69,3.11,1.58,6.35,1.27,9.56-.31,3.19-.78,6.38-1.69,9.47-.13.44-.2.91-.4,1.31-1.17,2.33-1.54,4.97-2.7,7.31-.89,3.9-2.5,7.54-3.81,11.3-.55,1.58-.87,3.25-1.3,4.88-.51,1.92-1.04,3.83-1.53,5.75-.03.1.14.26.25.45.33-.3.73-.53.97-.88,2.4-3.58,5.11-6.87,8.38-9.7.58-.5,1.13-1.04,1.63-1.61,2.15-2.46,4.78-4.27,7.61-5.85,1.6-.89,3.12-1.93,4.7-2.87,2.9-1.71,5.8-3.42,8.75-5.06.93-.52,1.98-.83,3-1.14,2.78-.85,5.57-1.64,8.04-2.37,2.93.17,5.52.37,8.12.46,1.9.07,3.57.79,5.18,1.67.49.27.93.85,1.12,1.39.35,1,.61,2.06.7,3.11.12,1.37.03,2.75.03,3.91-.18.51-.24.82-.38,1.08-2.27,4.08-2.28,4.07-5.68,7.1-2.17,1.93-4.55,3.62-6.39,5.92-.47.58-1.1,1.11-1.76,1.46-1.79.95-3.18,2.38-4.7,3.66-1.99,1.68-3.9,3.45-6.06,4.91-.63.42-1.24.94-1.68,1.54-1.01,1.37-2.3,2.42-3.56,3.54-2.38,2.13-4.83,4.21-6.7,6.87-.97,1.37-2.13,2.61-3.3,3.82-1.61,1.66-3.03,3.45-4.42,5.28-1.29,1.71-2.37,3.58-3.93,5.08-.21.21-.39.48-.52.76-1.3,2.69-3.19,4.81-5.73,6.41-.62.39-1.14,1.05-1.52,1.7-.81,1.4-1.93,2.22-3.5,2.73-2.18.7-4.25,1.72-6.37,2.6-.14.06-.3.09-.42.18-3.02,2.32-6.39,4.25-8.62,7.49-1.06,1.55-1.64,3.28-1.87,5.12-.03.22.25.48.4.75,1.38-.44,2.07-1.77,3.19-2.54,1.27-.87,2.52-1.75,3.73-2.69,1.09-.84,2.11-1.75,3.2-2.66,1.93-.42,3.98-.19,5.83-1.03,3.08-.43,6.11-.45,9.04.81,1.41.6,2.85,1.13,4.25,1.73.56.24,1.09.54,1.61.86.91.55,1.78,1.2,2.73,1.7,2.92,1.54,5.18,3.77,7.06,6.45.7,1,1.45,1.96,2.19,2.94,1.67,2.2,3.11,4.52,3.97,7.19.7,2.18,1.61,4.29,2.43,6.44.22.57.45,1.14.64,1.72.91,2.76,1.81,5.52,2.8,8.52-.09.34-.23.93-.39,1.51-.21.76-.25,1.52.09,2.24.84,1.75.8,3.55.36,5.36-.79,1.15-1.54,2.3-2.34,3.41-1.18,1.63-2.59,2-4.46,1.51-1.79-.46-3.37-1.47-4.71-2.76-.43-.41-.83-.94-1.04-1.5-1.28-3.29-3.23-6.24-4.74-9.41-.72-1.52-1.88-2.81-2.12-4.55-.96-1.56-1.86-3.15-2.9-4.66-.93-1.34-2.29-2-3.95-1.92-1.22.06-2.43.15-3.59.66-.83.36-1.74.55-2.46.77-1.35-.34-1.92-1.21-2.26-2.28.14-1.51.3-3.02.4-4.54.03-.35-.24-.55-.54-.56-.15,0-.34-.01-.43.07-.22.21-.39.46-.57.7-.28.36-.51.77-.82,1.09-.83.86-2.52.89-3.36.1-.33-.31-.67-.63-.95-.99-2.06-2.8-3.08-5.95-3.2-9.41-.05-1.37.23-2.77-.31-4.09-.06-.15-.57-.29-.73-.2-1.35.79-2.28,2.01-3.26,3.2-.15.43-.32.86-.43,1.3-.27,1.09-.87,1.92-1.74,2.62-.83.68-1.61,1.38-2.64,1.79-1.19.47-1.92,1.47-2.55,2.55-2.53,4.39-4.55,9.03-6.15,13.82-.96,2.88-1.61,5.9-2.11,8.9-.35,2.1-.28,4.27-.32,6.41-.03,1.99.09,3.98.24,5.65.41,1.06,1.15,1.38,1.7,1.9.54.5.97,1.13,1.46,1.72-.22,1.14-.49,2.17-.61,3.22-.14,1.22-.21,2.45-.21,3.67,0,1.07.14,2.14.24,3.21.18,2.02-.43,3.95-.74,6.17,1.03,3.2.56,6.75.53,10.25-.02,3.08.04,6.12.81,9.12.15.59.25,1.21.26,1.81.03,2.93.57,5.79,1.06,8.66.67,3.92,1.19,7.86,1.94,11.77.15.75.29,1.51.45,2.25.12.6.22,1.21.44,1.78.27.7.67,1.36.94,1.9-.1.64-.14,1.1-.24,1.55-.21.96-.74,1.69-1.7,1.98-1.03.31-2.06.65-3.11.81-2.11.33-4.24.65-6.37.77-2.29.13-4.6.02-6.9.02-5.14-1.03-10.38-.43-15.53-.89-1.32-.51-2.46-1.25-3.55-2.1-.35-.27-.59-1.34-.36-1.71,1.02-1.7,2.04-3.4,3.1-5.07.76-1.18,1.27-2.42,1.59-3.79.34-1.49.91-2.92,1.26-4.41.5-2.08.97-4.15,1.1-6.32.17-2.74.23-5.5.88-8.21.35-1.47.35-3.05.34-4.57-.01-2,.23-3.97.42-5.95.14-1.52.2-3.05.3-4.57.07-1.07.04-2.16.25-3.2.33-1.67.46-3.32.15-5.01-.07-.43.07-.91.18-1.36.19-.78.58-1.39,1.45-1.6.43-.1.84-.28,1.2-.39.18-.36.4-.61.42-.89.42-3.69.14-7.36-.41-10.99-1.39-9.24-1.23-8.69-3.98-19.27.04-.86.45-1.52,1.21-1.81,1.3-.49,2.5-1.13,3.54-2.08.56-.52.83-1.38.56-2.08-1.21-3.16-2.75-6.15-4.68-8.92-.97-1.38-2.02-2.7-3.04-4.04-.28-.37-.54-.78-.9-1.04-1.52-1.06-2.69-2.48-4.04-3.73-.41-.38-1.29-.3-1.66.15-.38.47-.84.93-1.08,1.47-.85,1.87-2.17,3.32-3.82,4.56-2.97,1.13-5.99,2.18-9.2,2.65-1.06.15-2.09.39-3.18.33-1.94-.12-3.62.68-5.11,1.77-1.48,1.07-2.78,2.32-3.85,3.9-1.8,2.65-3.89,5.12-5.88,7.64-.38.48-.82.91-1.27,1.32-.8.72-1.67,1.35-2.42,2.1-.65.65-1.17,1.42-1.76,2.15-1.26.84-2.81,1.08-4.04,2.08-1.83,1.49-4.12,2.02-6.47,1.95-1.69-.06-3.36.23-5.03.22-1.68,0-3.35-.11-5.03.13-1.42.21-2.71-.34-3.95-.98-1.6-.82-2.14-2.8-1.16-4.29.08-.13.15-.27.25-.38,3.38-3.79,5.87-8.21,8.69-12.39,1.55-2.29,3.07-4.58,5.39-6.2.74-.52,1.38-1.22,1.99-1.9,1.33-1.48,2.73-2.92,3.87-4.54,1.98-2.82,4.62-4.89,7.32-6.89,1.6-1.18,3.24-2.32,4.95-3.34,3.18-1.9,6.5-3.43,10.28-3.67.64-.04,1.17-.28,1.25-1.02-2.04-1.09-4.28-1.61-6.52-2.03-1.34-.25-2.74-.13-4.11-.2-1.08-.05-1.95-1.03-1.91-2.17.03-.91.12-1.82.17-2.73.02-.31-.8-.73-1.09-.58-.4.22-.84.4-1.18.68-.7.58-1.27,1.34-2.37,1.64-.29-.09-.75-.15-1.13-.36-2.15-1.17-4.23-2.49-6.44-3.53-2.9-1.37-5.63-3.09-8.64-4.23-2.02-.76-3.88-1.79-5.42-3.37-.53-.54-1.13-1.06-1.8-1.4-1.57-.81-2.55-2.15-3.56-3.51-.96-1.31-1.34-2.76-1.2-4.33.12-1.37.41-2.72.61-3.93,1.29-2.16,3.12-3.59,4.71-5.24.65-.67,1.46-1.1,2.34-1.42,2.01-.72,4.04-1.41,6.04-2.17.84-.32,1.78-.58,2.19-1.67-.78-.65-1.62-1.3-2.39-2.01-.79-.73-1.49-1.55-2.28-2.27-.68-.61-1.39-1.22-2.17-1.69-2.13-1.28-3.99-2.86-5.46-4.85-.57-.77-1.25-1.31-2.11-1.7-.86-.38-1.5-1.04-2.08-1.77-.64-.8-.75-1.64-.28-2.55.14-.26.19-.56.28-.85-.12-.27-.16-.67-.36-.79-1.6-.91-2.38-2.32-2.77-4.35.15-.47.43-1.18.6-1.91.47-1.94,1.83-3.17,3.42-4.14,1.43-.88,2.95-1.61,4.44-2.4.84-.45,1.75-.58,2.67-.47,1.07.12,2.12.36,3.18.46,1.68.16,3.36.31,5.04.35,1.54.04,3.04.15,4.55.55,1.02.27,2.11.31,3.17.45,2,.26,3.88.78,5.54,2,.61.45,1.29.83,2,1.09,1.15.43,2.22,1.01,3.33,1.51,1.96.88,3.84,1.84,5.55,3.13.61.46,1.29.87,2,1.12,3.49,1.25,6.58,3.26,9.76,5.02.52-.05,1.02-.3.95-.77-.37-2.58-.61-5.17-.53-7.79.02-.75-.21-1.5-.3-2.26-.23-1.97-.32-3.97-.68-5.92-.36-1.95-1.11-3.82-1.46-5.77-.37-2.1-1.26-4.12-1.15-6.31.02-.3-.08-.62-.21-.89-1.22-2.69-1.48-5.61-2.12-8.44-.83-3.71-.38-7.3.75-10.85.43-1.35,1.25-2.47,2.4-3.29,1.25-.89,2.54-1.72,3.85-2.5C57.72.15,58.8-.03,59.88,0c1.53.04,3.06.1,4.59.18,1.74.09,3.27.7,4.63,1.8,2.03,1.65,3.92,3.43,5.64,5.39,2.83,3.21,2.82,3.22,4.75,7.24.99,2.06,1.91,4.15,3.05,6.15,1.04,1.84,1.55,3.98,2.28,6,.37,1.01.72,2.02,1.06,3.03.19.58.43,1.17.46,1.76.08,1.54.41,3,.77,4.5.32,1.32.53,2.68.91,4,.3,1.02.57,2.1.58,3.15,0,.95.23,1.8.5,2.68.4,1.32.61,2.61.45,4.05-.19,1.64.3,3.32.82,4.92.04.12.5.11.76.16.69-.69.84-1.64,1.09-2.5.61-2.08,1.57-3.97,2.72-5.8.49-.78.9-1.62,1.45-2.34,2.8-3.67,4.76-7.84,7.18-11.73.24-.39.48-.79.66-1.21,1.78-4.11,4.8-7.45,7.05-11.26.54-.91,1.34-1.67,2.09-2.44,2.34-2.42,4.79-4.71,7.51-6.72,2.17-1.6,4.71-2.13,7.27-2.63.44-.09.92-.02,1.37-.07,3.44-.41,6.33.69,8.62,3.06Z"/>
  </g>
</svg>