<?xml version="1.0" encoding="UTF-8"?>
<svg id="Layer_2" data-name="Layer 2" xmlns="http://www.w3.org/2000/svg" viewBox="0 0 11.68 32.5">
  <defs>
    <style>
      .cls-1 {
        fill: #753d22;
      }
    </style>
  </defs>
  <g id="Layer_2-2" data-name="Layer 2">
    <path class="cls-1" d="M11.25,17.24c-.16-.38-.38-.77-.66-1.08-.14-.17-.31-.34-.5-.48.32-.62.53-1.28.6-1.98.07-.74-.04-1.56-.34-2.24-.11-.25-.25-.47-.34-.71-.08-.2-.2-.38-.38-.49-.12-.07-.24-.16-.36-.23-.05-.03-.14-.04-.17-.09-.03-.07.03-.2.04-.28.13-.64.09-1.34-.1-1.96-.09-.29-.12-.54-.28-.8-.12-.19-.2-.4-.33-.59-.12-.17-.26-.26-.43-.38q-.08-.06-.19-.09c-.08-.02-.12,0-.19-.08.12-.22.18-.53.24-.78.09-.38.14-.79.14-1.19,0-.36-.1-.71-.21-1.06-.07-.2-.16-.38-.38-.45-.08-.02-.2.02-.27-.02-.12-.07-.06-.28-.06-.39,0-.37-.13-.7-.27-1.03-.15-.36-.38-.51-.73-.69-.31-.15-.58-.22-.92-.12-.42.13-.7.44-.9.81-.23.43-.49.84-.57,1.33-.02.16-.07.23-.12.35-.04.09.02.09-.04.15-.07.08-.2.06-.29.11-.12.08-.25.27-.33.39-.22.41-.29,1.02-.26,1.46.02.42.19.78.27,1.17.03.14.1.21-.01.33-.16.19-.32.28-.43.51-.15.33-.37.62-.5.97-.22.57-.31,1.19-.21,1.79-.3.24-.52.6-.66.93-.29.66-.51,1.38-.59,2.1-.09.78.03,1.83.56,2.46-.03.04-.06.08-.09.12-.35.48-.64,1.03-.78,1.62-.21.82-.17,1.92.34,2.66C.22,19.94.02,20.58,0,21.32c-.01.85.15,1.88.95,2.32.04.02.08.02.11.03.04.08.1.17.15.24.26.4.58.69,1.01.91.23.12.47.19.74.23.05.09.11.16.2.19.17.06.32.15.46.26.09.06.11.08.17.15,0,0,.03.04.05.07.01.03.02.07.03.11.02.04.04.09.07.13,0,.01,0,.02.01.03.01.07.03.21.03.22,0,.3-.01.61,0,.9.02.56-.05,1.13-.14,1.7-.09.59-.05,1.24-.33,1.79-.12.21-.33.36-.49.53-.24.25-.38.56-.59.83-.14.16-.3.32-.5.41-.1.04-.2.04-.27.13.16-.01.34.02.5,0,.26-.05.55-.21.78-.32.44-.21,1.09-.58,1.59-.41.3.1.6.11.9.17.33.07.7.33,1.04.29.2-.02.32-.14.35-.35.03-.24-.12-.41.17-.45,1.02-.14,1.96.56,2.97.28.43-.12-.21-.48-.35-.57-.42-.3-.84-.83-1.07-1.29-.21-.43-.49-.81-.71-1.23-.21-.38-.25-.8-.22-1.23.03-.33.09-.67.19-.99.05-.16.13-.33.16-.49.02-.13,0-.15.09-.23.05-.05.18-.08.26-.12.86-.44,1.53-1.17,1.95-2.03.23-.47.47-1.13.49-1.74.05-.06.1-.13.15-.2.43-.6.7-1.31.78-2.06.07-.79-.1-1.57-.41-2.3ZM10.19,19.55c-.06.29-.17.53-.3.79-.21.44-.43.88-.74,1.26-.14.18-.36.38-.54.52-.12.08-.41.16-.4.33.12.01.19.05.29.08.13.03.26-.02.38-.05.14-.04.26-.07.39-.15.08-.06.15-.16.25-.19.12.38-.12.79-.27,1.13-.23.52-.5.9-.97,1.22-.12.08-.25.15-.39.22-.21.1-.42.18-.62.26-.31.12-.72.2-1.04.2-.32,0-.64-.06-.93-.2-.19-.08-.38-.17-.57-.26.09-.04.16-.09.24-.13.16-.09.3-.16.4-.33.09-.13.2-.31.25-.46.04-.13.02-.2-.11-.18-.06,0-.14.1-.21.12-.1.03-.11.02-.21.06-.07.03-.13.07-.2.09-.38.12-.76-.01-1.13-.08-.22-.04-.43-.12-.66-.19-.25-.07-.54-.12-.76-.25-.52-.32-.82-.79-.96-1.38-.17-.73.07-1.54.43-2.18.18-.32.37-.65.65-.89.18-.15.37-.25.56-.39-.03-.27-1.09.1-1.15.3.03-.12-.05-.29-.07-.41-.04-.22-.14-.53-.11-.77.08-.77.24-1.58.67-2.23.17-.24.38-.47.57-.69.14-.16.17-.24.21-.43.07-.34.28-.75.17-1.12-.11-.01-.2.2-.25.27-.14.21-.32.39-.52.55-.12.09-.19.15-.34.16-.22.01-.24-.08-.33-.27-.27-.57-.14-1.37,0-1.96.09-.37.25-1.33.78-1.39.06.25-.03.47.11.71.06.11.15.18.22.29.04.08.04.13.11.19-.07-.08-.1-.35-.11-.46,0-.12.01-.23,0-.34,0-.16-.07-.29-.05-.44.04-.4.08-.81.13-1.21.06-.44.29-.89.45-1.3.26-.67.89-1.25,1.45-1.67.11-.08.38-.09.45-.2.09-.16-.18-.12-.26-.12-.15,0-.25,0-.39.07-.1.05-.21.09-.34.06-.08-.02-.08.02-.12-.06-.02-.03-.03-.15-.05-.2-.08-.29-.07-.51-.03-.8.06-.49.1-.96.26-1.44.16-.49.74-1.52,1.4-1.28.28.1.36.25.5.49.11.19.21.32.23.54.04.34.1.68.14,1.01.04.29-.02.63-.04.91-.04.49-.06.91.23,1.33.28.42.62.78.83,1.26.1.22.2.44.3.65.09.19.05.36.05.55,0,.52-.06,1.01-.14,1.52-.06.46-.2.85-.36,1.28-.11.27-.31.48-.41.75.1.05.14-.02.21-.05.23-.12.36-.31.53-.5.21-.23.41-.42.55-.7.08-.18.11-.38.16-.57.07.02.17.24.21.32.13.24.19.53.25.8.08.32,0,.64.06.96.06.38.01.71-.02,1.08-.03.34-.09.7-.17,1.02-.06.23-.1.55-.23.75-.17.27-.31.61-.52.84-.1.11-.23.19-.34.3-.07.07-.21.16-.24.23.22.07.48-.08.67-.18.19-.11.36-.2.52-.36.09-.09.18-.19.24-.3.04-.09.05-.18.11-.26.17.04.25.34.33.47.09.16.24.33.3.51.12.35.31.64.37,1.01.05.26.06.54.09.8.02.26-.07.51-.12.76Z"/>
  </g>
</svg>