<?xml version="1.0" encoding="UTF-8"?>
<svg id="Layer_2" data-name="Layer 2" xmlns="http://www.w3.org/2000/svg" viewBox="0 0 224.82 398.62">
  <defs>
    <style>
      .cls-1 {
        fill: #593826;
        fill-rule: evenodd;
      }
    </style>
  </defs>
  <g id="_Layer_" data-name="&amp;lt;Layer&amp;gt;">
    <g>
      <path class="cls-1" d="M70.67,110.63l.28.16v-.27s-.28.11-.28.11h0ZM188.74,80.55c-.17-.25-.42-.3-.71-.18-.42.17-.42.37-.04.59.29.15.55.13.73-.11.06-.07.06-.23.02-.3h0ZM94.74,320.49c.08-.08.21-.14.23-.23.04-.12.04-.3-.03-.39-.19-.26-.34-.16-.35.26,0,.12.1.24.15.36h0ZM54.79,196.76c-.09.04-.23.05-.25.11-.12.32-.05.54.18.65.06-.12.14-.24.15-.36.02-.13-.05-.26-.08-.39h0ZM148.63,187.25c0-.13.07-.27.03-.38-.03-.09-.17-.15-.26-.23-.06.11-.18.21-.18.33-.02.11.05.26.12.35.02.03.18-.04.29-.07h0ZM89.31,270.03c-.02-.13-.02-.29-.09-.38-.12-.17-.3-.3-.46-.44-.12.23-.24.45-.31.68-.04.11-.02.29.05.38.13.17.31.29.47.43.12-.22.24-.45.36-.68h0ZM54.71,192.74c-.75.61-.55,1.3-.14,2.03.69-.64.47-1.33.14-2.03h0ZM98.96,123.34c.21-.13.56-.25.58-.4.04-.4-.04-.82-.14-1.22-.08-.33-.34-.48-.61-.38-.25.08-.61.19-.67.37-.27.69.15,1.43.84,1.63h0ZM76.94,154.74c.05-.46-.37-.92-.72-.78-.2.09-.43.3-.51.51-.08.24-.03.54,0,.8.02.12.15.32.23.32.24,0,.53,0,.69-.14.17-.16.22-.47.3-.72h0ZM99.97,205.15c.24-.93.34-1.75.17-2.59-.02-.13-.15-.24-.22-.35-.16.17-.43.33-.45.51-.04.79-.19,1.61.51,2.43h0ZM77.79,144.29c-.09-.09-.21-.27-.27-.26-.53.17-.97.45-1.18,1-.04.12-.18.29-.15.35.16.26.45.33.69.12.39-.33.93-.57.91-1.22h0ZM95.9,207.84c-.07-.46-.12-.87-.2-1.26-.02-.11-.18-.29-.22-.27-.25.08-.57.15-.7.33-.57.87-.55,1.81-.15,2.75.05.11.18.3.24.29.24-.06.61-.13.67-.29.18-.51.25-1.06.36-1.55h0ZM93.03,202.71c.36-.27.82-.43.97-.74.5-1.06.46-2.15-.21-3.14-.14-.2-.43-.39-.66-.4-.15,0-.43.3-.45.49-.12,1.24,0,2.48.35,3.79h0ZM86.87,341.15c-.1,1.42-.2,2.8.19,4.28.4-.28.87-.44,1.04-.75.68-1.24.51-2.43-.45-3.47-.11-.12-.44-.04-.79-.06h0ZM99.79,137.68c-.58.61-.87,1.37-.99,2.2-.08.57.05,1.11.48,1.49.14.12.6.13.7,0,.65-.76.9-1.67.82-2.65-.05-.59-.37-.97-1.01-1.04h0ZM90.61,233.54c-.14.17-.41.34-.42.52-.04,1.25-.04,2.5-.04,3.75,0,.13.07.28.16.38.05.05.25.04.3-.01.68-.73,1.1-1.59,1.12-2.6.02-.72-.18-1.38-.73-1.88-.09-.09-.25-.1-.4-.16h0ZM158.48,37.27c.63.53,1.31.25,1.99.14.72-.13,1.29-.48,1.73-1.25-.12-.43-.24-.97-.42-1.49-.13-.38-.72-.51-1.03-.22-.71.67-1.41,1.34-2.07,2.05-.17.17-.15.51-.2.77h0ZM98.77,213.54c-.2,2.79-.79,4.81-.75,6.91,0,.4.1.77.48,1.03.36.24.85-.35.9-1.13.06-1.11.14-2.23.13-3.34,0-.96.14-1.95-.75-3.46h0ZM101.78,152.23c.43-1.97.34-3.94.87-5.78.11-.39.06-.84.04-1.26,0-.13-.12-.25-.24-.47-.32.19-.81.3-.94.58-1.07,2.12-1.17,4.32-.3,6.55.04.1.22.15.57.38h0ZM87.85,293.28c-.53,3.08-.55,4.83-.09,7.5q1.14-.95,1.81-4.47c-.23-.73-.47-1.55-.72-2.35-.05-.12-.16-.23-.26-.33-.1-.09-.21-.18-.33-.23-.13-.06-.27-.08-.41-.11h0ZM93.96,294.34c-.61.19-.89.72-1.01,1.24-.17.67-.31,1.41-.19,2.06.28,1.5.71,2.97,1.15,4.44.05.17.45.24.7.32.04.01.2-.17.21-.28.22-2.42-.01-4.48-.85-7.79h0ZM94.02,248.71c.23-.97.11-1.94.03-2.91-.13-1.66-.47-3.3-.27-4.98.02-.13-.36-.33-.59-.45-.05-.03-.27.06-.3.14-.36.91-.72,1.81-1.03,2.74-.13.39-.22.84-.16,1.23.25,1.52.67,2.98,1.86,4.08.09.08.27.09.45.15h0ZM103.36,103.75c-.11.24-.3.46-.31.7-.1,2.14-.7,4.19-1.07,6.28-.12.68-.71,1.25-.54,2.01.03.13.16.32.24.32.24,0,.65-.01.69-.14.26-.65.42-1.34.65-2.07.66-.83,1.37-1.7,2.12-2.66-.36-1.36-.7-2.71-1.09-4.04-.06-.19-.45-.27-.7-.4h0ZM94.02,186.37c.12-.05.27-.07.34-.15,1.04-1.19,1.68-2.61,2.36-4.01.31-.66.27-1.41,0-2.08-.41-1.06-.87-2.09-1.37-3.11-.12-.23-.4-.36-.61-.54-.12.2-.35.42-.34.61.12,2.27.04,4.54-.11,6.81-.05.83-.69,1.59-.28,2.47h0ZM131.39,97.33c-1.15.44-2.2.81-3.22,1.24-.8.33-1.39.93-1.8,1.7-.18.32-.07.97.24,1.13.5.24,1.03.44,1.52.66,1.02-.17,1.99-.35,2.73-1.06.7-.67,1.49-1.31,1.53-2.54-.3-.33-.66-.73-1.01-1.12h0ZM155.45,216.43c-.77.84-.59,1.75-.74,2.55-.44,2.36-.79,4.74-1.16,7.1-.08.51.54,1.03,1.12.99.8-.06,1.45-.53,1.56-1.18.06-.41.2-.86.13-1.25-.36-1.82-.32-3.66-.31-5.49,0-.84-.05-1.7-.59-2.71h0ZM79.52,108.16c.15-.36.4-.73.44-1.12.2-2.27.06-4.54-.27-6.8-.06-.41-.27-.8-.47-1.17-.31-.56-.82-.73-1.44-.59-.13.24-.37.48-.37.72,0,1.13-.12,2.32.15,3.39.32,1.27.35,2.52.43,3.79.02.28.12.55.2.82.18.62.63.9,1.32.95h0ZM122.46,92.57c-.54-.06-1-.25-1.26-.1-.84.49-1.58,1.15-2.41,1.67-.98.6-1.71,1.44-2.38,2.33-.93,1.24-1.63,2.6-2.11,4.06-.04.1.05.27.13.36.06.07.23.11.32.08,1.08-.39,1.9-1.12,2.67-1.96,1.78-1.98,3.36-4.11,5.03-6.43h0ZM96.38,197.07c.84-.45,1.09-1.26,1.17-2.11.19-2.4.39-4.79.83-7.16.06-.36-.12-.77-.21-1.31-.42.37-.82.58-1,.92-.94,1.75-1.49,3.66-2.06,5.56-.38,1.29,0,2.52.58,3.68.09.2.44.28.69.42h0ZM132.23,87.2c-.2.61-.34,1.33-.68,1.93-.33.61-.89,1.09-1.3,1.67-.33.45-.59.96-.86,1.46-.25.46-.05,1.17.45,1.48.48.3,1,.54,1.46.79.31-.14.69-.18.78-.36,1.22-2.39,2.37-4.82,3.1-7.42.06-.21-.19-.5-.31-.76-1.08-.09-1.87.46-2.64,1.21h0ZM99.23,177.76c-.28-.05-.61,0-.74-.15-.87-.99-1.3-2.19-1.44-3.47-.23-2.16.13-4.24,1.01-6.22.04-.08.21-.13.31-.12.13,0,.31.05.38.15.93,1.31,1.34,2.78,1.4,4.37.07,1.87-.41,3.64-.92,5.43h0ZM106.65,115.71c-.41,1.51-.59,2.89-.69,4.28,0,.07.19.24.29.23.88-.06,1.46-.79,2.28-1,1.09-.29,1.61-1.21,1.66-2.25.15-2.45.86-4.74,1.81-6.97.23-.52.35-1.08.49-1.63.03-.1-.06-.33-.1-.34-.25-.03-.59-.09-.73.03-.87.77-1.49,1.76-1.87,2.82-.68,1.91-1.82,3.51-3.14,4.83h0ZM98.3,381.98c-.39,0-.74-.11-.89.02-1.09.96-1.41,2.22-.9,3.39.39.89.81,1.78,1.18,2.68.18.43-.5,1.24-.95,1.13-.67-.16-1.31-.4-2.01-.62-.19.1-.48.19-.66.38-.49.56-.72,1.21-.35,1.93.28.56.84.74,1.4.73.99,0,1.97-.07,2.94-.18.4-.05.79-.28,1.17-.45.67-.3,1.06-1.05.9-1.72-.6-2.44-1.22-4.88-1.83-7.29h0ZM120.96,108.38c-.09-1.44.07-2.96.46-4.47.13-.51-.03-1.1-.15-1.63-.04-.13-.54-.31-.67-.23-.46.3-.97.62-1.26,1.07-1.61,2.48-2.84,5.16-4.03,7.87-.11.24-.13.54-.15.82,0,.12.06.31.14.36.22.12.58.34.72.25,1.65-1.03,3.53-1.79,4.93-4.03h0ZM60.75,162.18c1.94-.66,3.83-1.57,5.67-2.61.37-.21.72-.47,1.01-.78,1.57-1.63,3.1-3.29,4.23-5.26.05-.09.03-.32,0-.34-.25-.1-.58-.3-.76-.21-2.91,1.45-5.6,3.28-8.23,5.17-.9.65-1.75,1.44-2.3,2.45-.3.56-.21,1.07.39,1.58h0ZM88.49,307.33c1.32,2.85,2.44,5.29,3.57,7.73.06.12.17.22.24.34.25.44,1.08.52,1.47.15.56-.55.74-1.21.49-1.94-1.13-3.36-2.01-6.78-2.8-10.23-.06-.26-.24-.51-.4-.73-.07-.1-.25-.15-.39-.16-.1,0-.24.06-.33.14-.11.09-.21.19-.28.31-.75,1.38-1.07,2.91-1.58,4.39h0ZM86.91,327.76c-.08-.38-.25-.79-.23-1.2.12-4.22-.05-8.45.35-12.64.35-.04.71-.19.82-.08.99,1.04,1.52,2.35,2.01,3.67.34.92.59,1.88.94,3.04-.16.48-.32,1.16-.6,1.79-.73,1.67-1.5,3.34-2.29,4.99-.16.34-.49.62-1.01.43h0ZM90.51,347.5c-.37.16-.72.19-.86.38-.69.9-1.16,1.92-1.36,3.05-.14.71-.11,1.43.27,2.05,1.1,1.79,2.25,3.56,3.4,5.33.15.23.4.4.6.6.52.52,1.38.34,1.7-.41.27-.64.48-1.31.73-2-1.7-2.94-2.29-6.37-4.48-8.99h0ZM87.18,115.97c.55-2.85.33-4.98.74-7.09.64-3.33.87-4.61-3.4-6.62-.16.2-.43.38-.48.61-.19,1.11-.31,2.22-.44,3.34-.18,1.54-.48,3.08-.05,4.75.43.44.86,1.02,1.43,1.42,1.07.76,1.76,1.76,2.19,3.59h0ZM93.04,214.7c-.34,1.15-.1,2.2-.78,3.04-.94,1.16-1.14,2.56-1.06,3.99.1,1.68.31,3.36.41,5.04.08,1.45.61,2.73,1.34,3.94.25.41.68.38,1.28.31.54-1.88-.06-3.86.16-5.8.22-2.09.4-4.19.61-6.53-.41-1.09-.89-2.4-1.41-3.69-.03-.1-.23-.13-.56-.3h0ZM91.18,109.59c-.31,2.53-.28,4.93-.27,7.31.01,1.3-.2,2.51-.64,3.81.37.98.72,2.05,1.19,3.08.3.64.8,1.18,1.48,1.45.35.14.77.09,1.11.12.54-.86.39-1.73.45-2.57.06-.84.14-1.7.03-2.53-.39-2.94-.85-5.86-1.35-8.78-.09-.52-.44-1.04-.8-1.44-.22-.25-.69-.27-1.2-.45h0ZM97.51,262.24c.11-.12.26-.22.29-.34.45-3.51.84-7.02.88-10.57,0-.99.04-1.99.18-2.96.37-2.39.31-4.79.35-7.2.04-3.52-.35-7.04.03-10.56,0-.11-.12-.25-.18-.37-.18.12-.44.19-.54.36-.19.37-.36.78-.43,1.19-.35,1.95-.69,3.9-.97,5.86-.23,1.55-.18,3.1.25,4.63.23.81.48,1.69.39,2.49-.37,3.09-.12,6.22-.57,9.31-.37,2.52-.43,5.08-.06,7.62.02.2.26.36.39.55h0ZM94.02,261.23c-.59-2.23-.62-4.23-1.32-6.12-.67-1.83-.8-3.89-2.18-5.42-.66.24-1.03.65-1.08,1.26-.15,1.69-.21,3.39-.38,5.08-.34,3.25.75,6.12,2.22,8.91.25.49,1.09.47,1.42-.02.15-.24.37-.45.46-.71.3-.94.55-1.9.86-2.97h0ZM86.02,363.33c0-1.84-.02-3.68.02-5.52,0-.2.29-.49.49-.56.23-.07.59-.01.78.14,1.72,1.36,2.65,3.29,3.52,5.24.29.65.23,1.44-.09,2.08-1,2.03-2.06,4.03-3.13,6.03-.1.18-.49.33-.69.29-.24-.05-.53-.3-.61-.54-.19-.51-.37-1.08-.39-1.62-.05-1.84-.02-3.69-.02-5.53h.12ZM89.56,374.46c1.05,1.7,2.15,3.5,3.28,5.29.15.24.39.41.59.61.2.22.97.22,1.16-.02.53-.66,1.04-1.33,1.6-1.98.79-.92,1-1.99.92-3.17-.18-2.94-1.59-5.38-3.21-7.72-.13-.18-.5-.19-.76-.28-2,2.64-2.58,3.81-3.58,7.27h0ZM88.04,378.37c.23.3.52.6.74.96.99,1.54,1.98,3.09,2.92,4.66.3.48.37,1.09.18,1.64-.67,1.85-1.18,3.77-2.08,5.47-1.38.87-2.77.66-4.11.4-.56-.38-.76-.9-.72-1.49.16-2.11.28-4.22.54-6.32.21-1.69.79-3.29,1.7-4.75.13-.21.44-.32.84-.58h0ZM91.46,274.39c-.49-.13-.91-.06-1.15.32-1.35,2.09-1.7,4.46-1.86,6.88-.14,2.13-.14,4.23.83,6.22.49,1.01.83,2.1,1.29,3.13.17.36.53.64.86,1.01.37-.21.87-.33,1.05-.63.65-1.08,1.2-2.23,1.65-3.08.29-2.75-.01-5.11-.77-7.43-.3-.94-.51-1.91-.74-2.87-.3-1.23-.58-2.47-1.17-3.56h0ZM88.64,332.76c.81-2.09,1.55-4.08,2.35-6.03.26-.64.69-1.22,1.06-1.81.17-.27.45-.32.75-.18.12.05.27.12.33.23.99,1.9,1.68,3.85,1.47,6.07-.3,3.25.39,6.47.39,9.72,0,1.7.07,3.39.08,5.09,0,.39-.16.78-.24,1.16-.2-.02-.39.02-.48-.06-.95-.9-1.5-2.02-1.66-3.3-.06-.39.07-.85.24-1.22.35-.77.79-1.5,1.2-2.27-.24-.36-.46-.71-.64-.98-1.01-.6-1.61.47-2.4.43-.28-.15-.64-.22-.73-.42-.4-.9-.79-1.81-1.04-2.75-.29-1.09-.42-2.22-.69-3.66h0ZM98.56,155.45c0-.27.02-.55-.04-.8-.04-.18-.19-.34-.29-.52-.07.11-.16.2-.18.31-.02.12,0,.29.06.38.16.2.37.35.56.53.02.96-.25,1.95.3,2.85.65-1.14.61-1.33-.41-2.76h0ZM140.39,86.2c.69.06,1.04-.44,1.23-.95.8-2.13,1.89-4.13,2.78-6.22.79-1.85,1.88-3.5,2.76-5.28.53-1.1,1.5-1.67,2.62-2.02.56-.18,1.16-.16,1.63.19.31.24.47.68.73,1.09-1.05,2.34-2.03,4.7-3.68,6.7-.91,1.1-1.63,2.29-2.16,3.64-.52,1.31-1.35,2.49-1.95,3.78-.72,1.53-1.56,3.03-1.75,4.77-.05.47.67,1.17,1.12,1.02,1.5-.49,2.94-1.09,4.14-2.12.42-.36.77-.84,1.04-1.32,1.4-2.63,2.77-5.28,4.16-7.92.26-.51.5-1.02.76-1.52,1.52-2.89,3.4-5.58,4.79-8.56.18-.37.49-.73.82-.96.46-.31.99-.56,1.52-.68,1.05-.24,2.02.82,1.73,1.79-.8,2.6-1.77,5.08-3.84,7.01-.6.57-1.05,1.34-1.48,2.07-1.05,1.85-2.06,3.72-3.04,5.61-.18.36-.05.81.39,1.04,1.12-.07,1.76-.74,2.28-1.67,2.21-3.97,4.44-7.93,6.67-11.89.27-.5.5-1.04.85-1.48,1.36-1.66,2.45-3.47,3.33-5.43.23-.52.67-.91,1.23-1.11.55-.21,1.1-.23,1.65,0,.59.24.79.77,1.05,1.43-.78,2.34-1.65,4.72-3.69,6.47-.21.18-.41.41-.54.66-1.69,2.95-3.71,5.73-5.11,8.85-.09.22,0,.51,0,.78.11.05.25.17.36.15,1.83-.32,3.55-1.02,5.25-1.69,1.47-.58,2.72-1.53,3.61-2.88,1.1-1.66,2.23-3.3,3.36-4.93,1.07-1.51,2.17-2.99,3.24-4.5.74-1.04,1.5-2.08,2.15-3.17.9-1.49,2.07-2.71,3.35-3.83,1.02-.89,2.25-1.16,3.59-.77.59.17,1.05,1.25.73,1.75-.24.35-.44.76-.77,1-2.11,1.54-3.68,3.57-5.14,5.66-1.55,2.21-3.41,4.2-4.67,6.61-.12.22-.13.52-.12.79,0,.09.18.24.31.27.73.15,1.42-.05,2-.45.69-.48,1.36-1.03,1.94-1.64,1.77-1.86,3.38-3.87,4.64-6.1,1.56-2.75,3.6-5.09,5.6-7.45.96-.42,1.86-.88,2.79-1.18.32-.1.82.1,1.15.3.45.27.54,1.04.29,1.53-.2.37-.37.78-.62,1.11-.5.69-.96,1.45-1.6,1.99-2.1,1.78-3.53,4.06-5.05,6.29-.63.93-1.3,1.85-1.93,2.79-.06.09-.04.34.05.41.19.16.46.38.67.36.55-.07,1.09-.33,1.64-.38,1.87-.18,3.05-1.12,3.92-2.82,1.61-3.17,3.71-6.05,5.91-8.85.64-.81,1.4-1.39,2.37-1.73.72-.26,1.63-.11,1.92.41.4.68.33,1.4-.07,2.01-.46.71-1.01,1.38-1.58,2-1.46,1.57-2.68,3.32-3.83,5.11-.23.36-.4.75-.6,1.13-.18.36.13.9.53.92,1.42.1,2.82-.1,3.92-.4.85-.46.77-1.09.95-1.6.59-1.62,1.47-3.06,2.79-4.22,1.39-1.22,2.71-2.52,4.08-3.74.53-.48,1.15-.8,1.87-.98.9-.21,1.84.54,1.62,1.4-.25.96-.6,1.88-.91,2.82-.26.06-.6.04-.77.21-.79.77-1.53,1.58-2.28,2.39-.06.07-.07.26-.02.34.18.25.45.27.74.12.74-.4,1.4-.89,1.91-1.56.36-.47.47-.99.34-1.56,1.39-.34,2.8.09,3.98.02,1.76-1.09,3.32-2.09,4.9-3.02.48-.28,1.06-.41,1.61-.53,1.06-.23,2.25.85,2.25,2.01,0,.79-.36,1.42-1.05,1.71-2.82,1.16-5.04,3.18-7.41,4.98-.32.24-.53.65-.78.99-.26.36-.11,1.34.24,1.57.47.3.98.57,1.46.85,1.35.8,2.7,1.58,4.02,2.42.73.46,1.28,1.12,1.62,1.93.34.84.27,1.65-.33,2.39-.49.58-1.42.75-1.88.24-.54-.64-1.03-1.33-1.66-2.17-.76-.28-1.69-.57-2.6-.96-.77-.33-1.51-.76-2.24-1.13-.63.12-1.19.22-1.95.36-.61-.28-1.4-.59-2.14-.98-1.29-.68-2.65-1.02-4.11-.86-.48.05-.59.48-.47,1.03,1.2.62,2.46,1.27,3.72,1.91,1.92.98,3.61,2.26,5.13,3.79.39.39.66.91.95,1.4.37.65.07,1.72-.65,2.26-.2.15-.57.25-.78.16-.52-.21-1.09-.44-1.45-.83-2.31-2.47-5.28-3.78-8.35-4.96-.2-.08-.57.06-.75.22-.09.08,0,.51.13.66.89.93,1.84,1.79,2.7,2.73.27.29.34.75.49,1.1-.17.3-.28.58-.46.79-.42.48-1.15.64-1.51.37-.44-.35-.9-.69-1.31-1.07-1.38-1.25-2.87-2.33-4.63-2.99-1.5-.56-2.71-1.55-3.99-2.43-.47-.33-1.04-.54-1.61-.4-.4.09-.76.35-1.23.58.14.41.18.88.42,1.13.39.41.9.7,1.39.99,2.57,1.54,4.74,3.6,7.08,5.45.44.35.78.82,1.15,1.25.37.41.31,1.12-.11,1.54-.41.4-1.15.6-1.55.36-1.18-.77-2.37-1.54-3.53-2.36-.81-.57-1.56-1.22-2.36-1.83-2.07-1.56-4.32-2.7-6.85-3.33-1.64-.41-3.27-.96-4.89-1.48-.83-.26-1.7-.45-2.5-.12-1.15.47-2.25.11-3.27.03-2.47.5-4.33,2.33-7.06,2.49.44.52.65.93.97,1.08.49.25,1.07.34,1.62.47,3.07.78,5.92,2,8.56,3.73,1.19.79,2.25,1.73,2.84,3.1.18.42.15.83-.06,1.21-.22.42-1.05.66-1.52.46-.26-.11-.61-.16-.76-.35-1.46-1.91-3.6-2.77-5.72-3.56-2.79-1.03-5.65-1.89-8.52-2.72-1.21-.35-2.5-.55-3.79-.28-.36.07-.51.28-.42.55.04.13.07.31.17.37,1.71,1.04,3.55,1.78,5.42,2.44,1.9.67,3.5,1.86,5.04,3.11.31.26.52.68.7,1.06.2.4.1.82-.16,1.19-.22.33-.78.48-1.14.25-3.02-1.95-6.45-2.94-9.77-4.17-2-.74-4.15-.98-6.27-1.18-1.58-.15-3.16-.06-4.46,1-1.11.9-2.49.38-3.68.83-.31.12-.5.36-.38.66.08.22.3.42.48.58.09.08.27.09.41.1,3.14.2,6.13,1.19,9.21,1.71.53.09,1.02.48,1.49.78.46.29.78,1.06.66,1.46-.16.58-1.03,1.19-1.63,1.16-.29-.02-.59.04-.85-.05-1.36-.46-2.77-.51-4.18-.65-3.38-.35-6.76-.85-10.61-1.36-1.06.15-2.61.38-4.2.61-.74.63-1.49,1.27-2.15,1.84.07.83.44,1.18,1.11,1.15.42-.02.85-.07,1.25-.19,2.39-.75,4.79-.35,7.19-.08.27.03.52.23.77.36.4.21.79.99.74,1.44-.05.42-.69,1.07-1.13,1.15-.42.07-.85.19-1.27.19-2.13-.02-4.25.07-6.35.56-.95.22-1.99.09-2.97.12-1.42.04-2.85.05-4.26.13-1.51.09-2.68.82-3.58,2.04.27.15.51.41.68.37,1.39-.32,2.74-.71,4.13-1.06,1.52-.39,3.06-.59,4.64-.54,1.16.04,1.88,1.33,1.46,2.54-.16.42-.45.73-.87.85-.4.12-.85.22-1.26.17-1.76-.24-3.42.26-4.97.93-3.52,1.52-7.18,2.68-10.79,3.93-1.76.61-3.41,1.41-4.96,2.42-1.2.79-2.21,1.72-2.95,3.01-.55.97-1.39,1.77-2.12,2.67.19.15.4.42.54.39.41-.08.82-.24,1.2-.43,2.7-1.35,5.58-2.03,8.59-2.21.85-.05,1.71-.09,2.54-.27,1.39-.31,2.8-.39,4.22-.49,1.27-.08,2.51-.57,3.77-.56,1.26.01,2.5.6,3.76.61,2.69.01,5.39.59,8.08-.16,2.12.85,4.28,1.52,6.32,2.54,1.4.69,2.84,1.25,4.43,1.46,1.69.23,3.25.94,4.76,1.78,2.49,1.38,4.91,2.83,7.24,4.24.7-.09,1.27-.15,1.78-.22.91.25,1.47.92,2.06,1.52.89.91,1.74,1.88,2.64,2.78.95.94,2.06,1.48,3.47,1.15.79-.19,1.37.27,1.78.87.32.47.54,1,.81,1.5,1.21,2.18,3.64,5.06,5.75,6.75.68.54,1.33,1.11,1.68,1.9,1.56,3.54,3.9,6.58,6.11,9.58.3,1.4.33,2.71-.13,3.9-.54,1.39-.54,2.77-.43,4.19.16,2.27.25,4.55-.1,6.81-.14.92-.72,1.51-1.58,1.84-.82.33-1.79-.38-1.74-1.27,0-.14-.06-.3,0-.42.68-2.24.42-4.45.05-6.73-.55-3.25-1.44-6.36-2.74-9.38-.71-1.7-1.39-3.41-2.14-5.09-.15-.33-.61-.52-.95-.79-.11.36-.24.63-.26.9-.09,2.13-.17,4.26-.24,6.39-.05,1.56-.02,3.13-.1,4.69-.05.91-.57,1.56-1.47,1.88-.48.17-1.34-.15-1.45-.58-.14-.54-.31-1.1-.32-1.65-.03-2.7,0-5.4,0-8.1,0-2.57-.35-5.1-.81-7.62-.2-1.13-.66-2.17-1.34-3.1-.18-.23-.37-.46-.61-.58-.23-.12-.56-.22-.78-.13-.2.08-.41.4-.42.63-.04.41.04.84.11,1.26.15.83.39,1.66.48,2.5.21,1.69.4,3.39.52,5.08.08,1.13.08,2.27.06,3.4-.02.89-.78,1.57-1.67,1.58-.86.01-1.74-.61-1.92-1.39-.06-.27-.17-.55-.18-.82-.05-.71-.05-1.42-.05-2.13-.03-2.14-.24-4.25-.61-6.36-.25-1.39-.34-2.82-.44-4.23-.18-2.29-1.28-4.04-3.12-5.31-.92-.64-1.8-1.41-2.94-1.67-.15.22-.44.48-.39.62.49,1.32.97,2.66,1.58,3.93,1.22,2.49,1.67,5.12,1.77,7.85.06,1.56.17,3.12.21,4.67.04.98-.79,1.94-1.76,2.1-.49.08-1.26-.38-1.3-.82-.08-.7-.18-1.41-.19-2.11-.03-1.42-.17-2.81-.43-4.22-.37-1.97-.88-3.87-1.69-5.69-1.15-2.59-2.04-5.31-3.57-7.72-.69-1.1-1.51-2.06-2.69-2.64-.3-.15-.55-.09-.71.24-.06.12-.12.29-.07.4.55,1.3,1.11,2.6,1.69,3.88,1.13,2.5,1.58,5.15,1.69,7.86.05,1.09-.57,1.86-1.45,2.44-.57.38-1.55.01-1.69-.68-.11-.55-.22-1.11-.28-1.67-.27-2.71-.9-5.31-2.21-7.72-.67-1.25-1.34-2.51-1.88-3.83-1-2.39-2.74-3.93-5.14-4.79-1.19-.43-2.31-1.19-3.67-.94-.18.03-.42.36-.44.57-.03.25.09.56.24.79,2.48,4,4.26,8.32,6.07,12.6-.08.48-.12.9-.24,1.31-.15.55-.38,1.13-1.02,1.19-.75.07-1.39-.3-1.88-.84-.28-.31-.49-.71-.62-1.11-1.16-3.37-2.91-6.48-4.23-9.77-.37-.91-.95-1.74-1.5-2.7-.75-.52-1.55-1.1-2.37-1.66-1.5-1-3.15-1.35-4.89-.93-1.15.29-2.18.23-3.33-.12-.77-.25-1.67-.08-2.51-.02-.2.02-.4.33-.55.54-.06.09,0,.26,0,.55.61.43,1.29.93,2,1.39,1.44.94,2.64,2.14,3.91,3.29,2.05,1.87,3.4,4.17,4.55,6.63.18.36.18.82.19,1.24.04.68-.83,1.33-1.46,1.16-.71-.21-1.34-.55-1.76-1.13-.59-.8-1.07-1.68-1.65-2.49-.75-1.04-1.52-2.06-2.33-3.05-1.55-1.92-3.57-3.23-5.79-4.26-.79-.36-1.59-.64-2.46-.6-1.62.07-3.08-.46-4.59-1.13-.64.27-1.31.49-1.92.82-1.25.68-2.38,1.53-3.3,2.62-.13.15-.12.61.02.76,1.11,1.25,2.52,2.04,4.03,1.95,1.18-.07,1.92.31,2.45,1.27.55,1.02,1.32,1.8,2.25,2.51,1.36,1.03,2.59,2.21,3.91,3.37.94.2,1.89.41,2.9.63.53,1.05,1.03,2.06,1.55,3.09,2.1,1.67,4.2,3.35,6.49,5.17.9,1.69,1.86,3.58,2.91,5.44.84,1.47,1.64,3,2.71,4.31,1.92,2.35,2.85,5.23,4.45,7.74.22.36.36.77.49,1.18,1.2,3.79,2.77,7.45,4.27,11.13.32.78.43,1.64.66,2.46.65,2.32.97,4.74,1.98,6.96.06.13.13.26.15.4.69,4.36,2.62,8.42,3.28,12.76.47,3.07,1.51,6.08,1.27,9.21.37.84.75,1.6,1.04,2.39.24.66.46,1.36.52,2.05.32,4.1.59,8.21.89,12.32.06.85.06,1.71.2,2.55.33,2.15-.06,4.25-.42,6.35-.2,1.16-.77,2.12-1.87,2.7-.36.19-.65.54-1.04.87-.07.51-.2,1.06-.24,1.62-.29,4.13-1.19,8.14-2.44,12.08-.53,1.67-1.4,3.1-2.64,4.31-.2.2-.45.34-.68.51-.37.26-1.23.15-1.56-.21-.28-.3-.38-.84-.18-1.16,2.02-3.2,2.74-6.78,3.33-10.45.64-3.95.63-7.93,1.03-11.89.1-.98-.08-1.97-.23-3-.34.1-.69.12-.73.23-.8,2.45-2.14,4.63-3.53,6.78-.4.61-.89,1.12-1.59,1.34-.24.07-.57.04-.8-.07-.39-.18-.67-.81-.5-1.04,1.76-2.49,2.42-5.42,3.26-8.27.35-1.22.61-2.48.81-3.73.53-3.37,1.13-6.72,1.37-10.12.18-2.55.38-5.1.69-7.64.12-.95.6-1.87.99-3.03-.18-.9-.47-2-.67-3.11-.17-.97-.24-1.96-.37-2.99-.29.12-.6.15-.67.3-.49,1.05-.67,2.18-.7,3.32-.1,3.59-1.41,6.95-2,10.45-1.04,2.17-1.67,4.52-2.9,6.61-.2.35-.53.67-.86.89-.2.14-.58.16-.8.07-.21-.09-.44-.4-.46-.63-.04-.41-.03-.89.15-1.25.92-1.95,1.36-4.03,1.73-6.14.67-3.78,1.56-7.51,1.76-11.36.05-.85.26-1.68.39-2.53.29-1.84.27-3.68-.17-5.5-.03-.11-.15-.21-.26-.27-.32-.18-.58-.1-.67.23-.69,3.04-1.38,6.08-2.08,9.13-.19.83-.42,1.65-.66,2.47-.39,1.43-1.3,2.49-2.45,3.38-.31.23-.87.28-1.19.08-.54-.35-.91-1.06-.66-1.42,1-1.42,1.43-3.02,1.85-4.69.96-3.87,1.71-7.76,2.14-11.71.17-1.56.41-3.1.62-4.65.37-2.83.42-5.69.16-8.51-.19-2.23-.95-4.42-1.46-6.62-.04-.13-.13-.25-.22-.36-.07-.08-.19-.12-.29-.18-.54.38-.55.99-.62,1.53-.29,2.53-.42,5.1-.86,7.62-.42,2.37-1.3,4.65-1.45,7.08,0,.28-.04.57-.08.85-.17,1.06-.76,1.79-1.74,2.26-1.1.53-1.49.38-2.28-1.08.79-2.52,1.52-5.11,1.54-7.85,0-.56.14-1.13.28-1.67.45-1.66.56-3.36.65-5.06.07-1.56.07-3.16.4-4.67.5-2.34-.05-4.5-.69-6.68-.02-.09-.21-.22-.26-.2-.24.13-.57.25-.66.46-.21.51-.37,1.06-.43,1.62-.4,3.53-.75,7.07-1.15,10.6-.21,1.85-1.02,3.52-1.84,5.17-.09.2-.45.32-.71.39-.38.11-.89-.2-1.06-.52-.31-.52-.44-1.1-.26-1.63.62-1.77.66-3.62.8-5.46.16-1.98.44-3.95.59-5.93.14-1.84.21-3.69.25-5.54.05-2.41.03-4.83.02-7.25,0-1.96-.8-3.59-2.2-4.92-.28-.26-.7-.36-1.04-.53-.57.86-.35,1.73-.29,2.56.28,3.84.1,7.67-.09,11.51-.05,1.14-.17,2.27-.64,3.33-.23.54-.55,1-1.05,1.3-.21.12-.55.15-.78.08-.24-.07-.5-.3-.58-.53-.14-.39-.22-.83-.2-1.24.19-4.83-.28-9.66-.21-14.49.03-1.89-.48-3.66-.91-5.45-.38-1.6-1.43-2.75-2.87-3.52-.19-.1-.53.04-.77.13-.09.03-.16.23-.2.36-.03.13-.06.29-.02.42.86,2.73.7,5.62,1.24,8.41.35,1.86-.07,3.68-.9,5.37-.15.3-.67.49-1.06.6-.42.12-1.15-.5-1.22-.97-.08-.56-.24-1.13-.18-1.68.18-2.15-.07-4.24-.51-6.35-.44-2.08-.72-4.2-1.08-6.3-.29-1.7-.96-3.28-1.78-4.77-.31-.59-.9-1.12-1.48-1.48-.83-.53-1.77-.91-2.67-1.31-1.13-.49-2.24,0-2.82,1.16-.69,1.42-1.16,2.92-1.36,4.47-.41,3.1-.89,6.19-.86,9.33.03,2.42-.16,4.82-.62,7.2-.41,2.09-.64,4.21-.88,6.33-.11.99-.05,1.99-.06,2.98,0,1,0,1.99-.01,2.98,0,3.27-.2,6.51-.92,9.73-.52,2.33-.57,4.79-.77,7.19-.06.84,0,1.7.12,2.54.48,3.47.65,8.44.34,11.47-.02.14,0,.29-.04.42-.65,2.07-.53,4.22-.56,6.34-.07,4.97-.42,9.95.45,14.9.1.55.12,1.15,0,1.69-.67,3.22-.34,6.53-.86,9.76-.09.55-.01,1.13.06,1.69.26,1.98.24,3.97.27,5.96.01,1.57.14,3.08-.4,4.62-.32.91-.26,1.97-.29,2.96-.15,5.68-.5,11.37-.25,17.06.07,1.84.04,3.69.04,5.54,0,.42.02.86-.08,1.27-.77,3.22-.61,6.5-.72,9.77-.09,3.13-.07,6.25-.62,9.34-.2,1.11-.12,2.27-.15,3.41-.07,2.97,0,5.94-.68,8.9-.4,1.78-.54,3.67-.31,5.52.19,1.57.08,3.12-.12,4.68-.1.7-.32,1.43-.25,2.11.18,1.59-.32,3.1-.35,4.66-.03,2.27-.14,4.54-.19,6.82-.03,1.14.16,2.26.51,3.36.35,1.08.62,2.19.88,3.09-.12,1.6-.31,3.01-.32,4.42-.03,4.12,0,8.25,0,12.37,0,1.28.14,2.52.5,3.78.7,2.45,1.2,4.96,1.76,7.46.12.55.24,1.12.24,1.68.02,3.44.79,6.77,1.44,10.12.41,2.08.33,4.24,1.1,6.28.3.79.12,1.68-.3,2.48-.26.49-.42,1.04-.61,1.52.12.64.17,1.21.33,1.75.49,1.63,1.2,3.21,1.49,4.87.26,1.52.26,3.09.63,4.63.29,1.15-.93,2.21-2.09,2.06-1-.13-1.75-.96-2.82-.9-.99.06-2,.17-2.97.06-1.71-.21-3.39-.19-5.1.05-.83.12-1.7.03-2.55-.08-2.17-.3-4.24,0-6.24.87-.78.34-1.59.59-2.32.85-1.45-.14-2.12-1.03-2.28-2.24-.23-1.84-.31-3.71.22-5.51.57-1.93.72-3.9.81-5.9.02-.43-.06-.87.04-1.27.99-3.77.78-7.62.74-11.44,0-1.59.43-3.09.57-4.63-.43-.93-.87-1.82-1.22-2.75-.37-.95-.37-1.95,0-2.92.15-.4.35-.79.52-1.18.64-1.45.94-2.96.93-4.55-.03-2.42,0-4.83.38-7.23.12-.68-.02-1.41-.05-2.12-.03-.85-.18-1.72-.04-2.55.27-1.7.44-3.37.06-5.08-.08-.39.09-.84.13-1.26.08-.85.18-1.7.2-2.55.09-4.26.14-8.53.22-12.79.02-1.57.05-3.11-.51-4.63-.24-.63-.12-1.4-.14-2.1,0-.27.08-.56.14-.84.93-5.04,1.16-10.14,1.21-15.25.03-3.13.04-6.26.57-9.12-.29-3.05-.56-5.87-.85-8.96.1-.3.2-.87.47-1.35.49-.9.65-1.85.66-2.87.05-3.41.16-6.82.19-10.24.03-1.85.15-3.68.33-5.53.23-2.25.18-4.53.26-6.8.09-2.7.15-5.4.66-8.07.08-.41.09-.85.11-1.27.09-3.41.16-6.82.28-10.23.07-1.84.12-3.68.49-5.51.28-1.38.17-2.83.21-4.25.1-3.69.14-7.38.58-11.06.49-4.09.73-8.21,1.07-12.32.06-.71.08-1.42.11-2.12.07-2.13.11-4.26.23-6.39.25-4.11.52-8.22.79-12.34.21-3.26.45-6.51.69-9.77.04-.42-.02-.88.13-1.27.85-2.18.69-4.47.79-6.74.03-.57.03-1.15.18-1.69.55-1.94.59-3.92.67-5.91.05-.85.11-1.71.29-2.53.22-1,.28-1.96-.04-2.94-.08-.27-.15-.57-.12-.84.26-1.7.25-3.37-.17-5.05-.13-.52.01-1.14.15-1.68.16-.68.61-1.34.65-2.02.1-1.99.97-3.51,2.48-4.74.25-.2.17-.33-.49-.95-.9.4-1.78.86-2.71,1.2-.96.35-1.75.93-2.49,1.6-.52.47-.91,1.08-1.32,1.66-.33.46-.64.93-1.2,1.17-.64.27-1.3.54-1.59,1.26.16.24.29.5.48.7.77.78,1.03,1.66.63,2.72-.69,1.87-1.34,3.74-2.04,5.67.18.82.37,1.64.52,2.47.07.41.13.87.04,1.26-.09.39-.31.78-.59,1.07-.33.35-1.18.31-1.58-.02-.31-.27-.69-.56-.85-.92-.62-1.45-.98-2.94-.62-4.56.21-.96.26-1.97.32-2.96,0-.16-.31-.36-.53-.49-.08-.06-.3-.01-.4.06-1.02.79-1.71,1.85-2.26,2.9,0,.25-.06.42.01.51.32.46.67.9.99,1.3.49,1.34-.23,2.58-.16,3.85.08,1.42.06,2.84,0,4.26-.05,1.29.11,2.55.37,3.81.25,1.24.51,2.47.75,3.66-.36.57-.83.84-1.44.82-.75-.02-1.4-.31-1.8-.95-.31-.47-.62-.98-.73-1.52-.29-1.53-.67-3.05-.66-4.64,0-.84-.13-1.69-.21-2.53-.02-.31-.79-.6-1.03-.37-.3.29-.63.58-.83.94-.51.9-.67,1.9-.49,2.9.29,1.55.25,3.09.13,4.65-.13,1.7-.08,3.41-.12,5.12-.03,1.42-.04,2.82.49,4.2.31.82.12,1.67-.35,2.45-.46.76-1.58.86-2.16.18-.39-.44-.64-.93-.7-1.52-.24-1.97-.55-3.93-.68-5.91-.13-1.98-.07-3.98-.09-5.97-.02-.71-.07-1.42-.12-2.13,0-.13-.12-.25-.18-.38-.24,0-.56-.1-.71.02-.31.27-.6.61-.79.97-.46.88-.75,1.87-1.31,2.68-1.7,2.46-2.12,5.2-2.12,8.09,0,3.83-.21,7.68.84,11.44.33,1.22.73,2.43,1.1,3.57-.76,1.35-1.27,1.55-2.34,1-.67-.33-1.22-.79-1.41-1.51-.7-2.75-1.56-5.47-1.53-8.35,0-.56-.12-1.12-.19-1.71-.32.08-.68.06-.75.21-.4.74-.86,1.49-1.06,2.3-.55,2.2-1.3,4.35-1.47,6.63-.06.7-.25,1.39-.36,2.09-.09.56-.26,1.13-.21,1.68.28,2.67-.07,5.39.72,8.02.08.26,0,.56,0,.81-.79.78-1.64.95-2.21.43-.3-.28-.54-.64-.81-.96-.18-.22-.36-.45-.56-.63-.09-.09-.27-.09-.41-.13-.1.24-.27.48-.28.72-.05,2.42-.07,4.83-.07,7.25,0,.56.13,1.13.3,1.67.5,1.66.5,3.37.58,5.07.02.41-.15.83-.27,1.23-.15.51-.95,1.06-1.27.85-.34-.23-.7-.52-.87-.87-.25-.5-.37-1.07-.46-1.63-.43-2.95-1.18-5.85-1.42-8.83-.05-.65,0-1.38-.5-1.95-.75.31-.97,1.02-1.22,1.67-.29.79-.65,1.61-.71,2.43-.26,3.54-.43,7.09-.6,10.64-.03.55.08,1.12.14,1.68.1.85.24,1.69.31,2.54.16,1.85.37,3.68,1.22,5.37.32.64.35,1.36.23,2.08-.08.49-.53,1.04-1.07,1.2-.6.19-1.64-.19-1.86-.7-.33-.79-.62-1.59-.94-2.38-.2-.51-.11-1.15-.7-1.51-.14.18-.39.38-.38.56.03,1.27,0,2.57.22,3.82.36,2.24.88,4.45,1.33,6.68.09.42.14.84.16,1.27.1,1.88.62,3.63,1.5,5.28.7,1.3.35,2.47-.54,3.55-.45.56-1.44.54-1.83-.04-.7-1.07-1.45-2.13-1.6-3.45-.32-2.85-1.46-5.47-2.17-8.64-.3,1.34-.51,2.26-.75,3.34-.35.28-.77.65-1.23.96-1,.69-1.63,1.64-1.75,2.81-.22,2.12-1.02,4.14-1,6.3,0,.66-.42,1.34-.72,1.97-.25.52-.7.9-1.32.94-.58.03-1.35-.74-1.39-1.37-.04-.57-.09-1.14-.05-1.7.18-2.56.64-5.08,1.31-7.55.4-1.51.83-3.01,1.28-4.51.12-.41.25-.81.45-1.18.42-.74,1.01-1.4,1.08-2.29.19-2.25,1.28-4.38.97-6.7-.01-.12-.14-.22-.24-.38-.34.25-.74.44-.98.76-.78,1.01-1.56,2.04-2.22,3.13-2.01,3.27-3.96,6.57-5.97,9.84-.74,1.21-1.33,2.48-1.78,3.84-.53,1.61-1.34,3.13-2.07,4.67-.18.37-.53.66-.83.96-.56.53-1.75.56-2.38.08-.51-.39-.78-1.3-.55-1.92.15-.4.28-.8.46-1.19,2.38-5.17,5.52-9.92,8.42-14.81,1.01-1.7,2.33-3.22,3.51-4.82.67-.91,1.39-1.8,2.04-2.73,1.71-2.41,1.69-2.42,4.1-4.16,1.26-3.79,2.53-7.55,3.79-11.32.1-.31,0-.59-.3-.74-.08-.04-.25.03-.35.09-.11.07-.21.17-.3.28-1.36,1.82-2.72,3.65-4.08,5.47-.25.35-.52.68-.77,1.02-.59.79-1.5,1.27-2.02,2.17-1.04,1.85-2.21,3.64-3.25,5.37-.09,1.28-.15,2.41-.25,3.54-.05.63-1,1.12-1.66.92-.7-.22-1.27-.65-1.6-1.31-.25-.5-.35-1.07-.54-1.64,1.63-3.66,3.22-7.27,5.88-10.35,1.95-2.25,3.61-4.75,5.47-7.08.97-1.22,2.04-2.38,3.17-3.45,3.16-2.98,5.47-6.49,7.2-10.45,1.24-2.87,2.66-5.66,3.96-8.5.23-.5.26-1.09.34-1.64.01-.11-.09-.31-.2-.35-.24-.09-.61-.22-.72-.12-1.48,1.34-3.01,2.62-4.31,4.12-1.21,1.39-2.47,2.73-3.76,4.06-.98,1.02-1.91,2.09-2.81,3.19-1.39,1.72-2.18,3.65-1.88,5.92.03.28,0,.57-.03.85-.08.63-.49.99-1.04,1.23-1.09-.11-1.77-.79-2.23-1.73-.75-1.5-.71-2.98,0-4.51.77-1.7,1.81-3.24,3.02-4.63,2.14-2.47,4.23-5.02,6.64-7.2,2.84-2.56,5.65-5.18,8.99-7.16,3.66-2.19,3.72-2.44,4.67-6.79.67-.71,1.46-1.52,2.21-2.3-.19-.96-.27-1.06-.59-.87-3.17,1.88-6.46,3.56-9.32,5.95-1.49,1.25-2.56,2.64-2.73,4.62-.04.42-.16.83-.28,1.24-.26.82-1.52,1.17-2.11.54-.38-.4-.79-.87-.93-1.38-.4-1.41-.25-2.81.51-4.11.73-1.24,1.62-2.32,2.75-3.23,1.89-1.52,3.84-2.93,5.92-4.18.49-.3.97-.59,1.22-1.19.06-1.06-.85-1.68-1.26-2.55-.41-.86-.32-1.68.16-2.43.38-.58.84-1.15,1.38-1.6,3.07-2.54,6.13-5.06,9.89-6.57,1.58-.64,3.05-1.53,4.55-2.34.5-.27.95-.63,1.38-1,.2-.17.31-.46.47-.7-.15-.23-.27-.48-.45-.68-1.26-1.41-.79-2.33.07-3.41.97-1.26,2.36-2.02,3.86-2.55.67-.24,1.37-.4,2.05-.58,2.25-.57,4.3-1.49,5.92-3.2,1.1-1.17,2.6-1.71,3.92-2.54.91-.57,1.25-1.43,1.05-2.57-.12-.71-.35-1.37-.77-1.96-.35-.49-.79-.86-1.38-.89-2.41-.13-4.8-.42-7.2-.78-1.24-.18-2.55-.28-3.87.23-.76,1.01-.62,2.4-1.22,3.51-.11,1.76-.91,3.27-1.7,4.78-.46.88-.85,1.8-1.4,2.62-.42.61-1.14.81-1.89.7-.54-.07-1.12-.61-1.11-1.11,0-.56-.05-1.15.11-1.68.28-.95.66-1.88,1.06-2.79.58-1.3,1.18-2.58,1.84-3.84.4-.74.96-1.39,1.45-2.12-.08-.45-.49-.52-.89-.53-.71-.01-1.42-.03-2.29.65-1.32,2.47-2.35,5.45-4.26,7.97.13.75.28,1.44.36,2.13.04.27-.05.56-.13.83-.41,1.36-2.04,1.79-3.08.82-.79-.75-1.01-1.71-.87-2.73.07-.55.29-1.08.49-1.62.88-2.54,2.04-4.96,3.3-7.33.05-.08,0-.25-.07-.34-.09-.1-.24-.24-.35-.22-3.69.49-7.18,1.65-10.46,3.37-2.39,1.25-4.87,2.29-7.22,3.64-1.22.71-2.52,1.27-3.52,2.33-.29.3-.67.59-1.06.7-1.58.42-2.74,1.51-3.86,2.57-2.37,2.25-4.62,4.61-6.88,6.88-.36,1.04-.71,1.97-.99,2.92-.18.54-.12,1.18-.39,1.65-1.22,2.16-1.35,4.62-1.95,6.95-.51,1.94-.56,3.95-.4,5.94.09,1.11.55,2.18.77,3.28.2.96-.99,1.96-1.95,1.64-.39-.13-.79-.34-1.08-.63-.61-.61-1.04-1.37-1.11-2.25-.21-2.7-.3-5.39.27-8.07.2-.97.41-1.94.54-2.93.06-.39-.1-.82-.19-1.36-.44.19-.88.26-1.12.5-1.04,1.03-1.63,2.33-1.91,3.75-.17.84-.09,1.76-.41,2.52-1.37,3.2-1.42,6.65-2.05,9.99-.13.69-.12,1.42-.14,2.12-.07,1.56-.12,3.12-.16,4.68-.04,2,.02,3.97.62,5.91.22.68.05,1.4-.38,2.03-.28.42-1.05.89-1.42.7-.36-.18-.65-.5-.95-.79-.1-.09-.15-.24-.18-.37-1.12-4.17-1.3-8.41-.91-12.69.66-1.92.42-3.94.66-5.91.05-.38-.12-.79-.21-1.22-1.5,1.03-1.54,1.2-.96,3.4-.18,2.09-.39,3.91-.49,5.75-.12,1.98-.07,3.96-.54,5.93-.34,1.36-.16,2.8.06,4.23.39,2.52.68,5.07.86,7.61.08,1.19-.42,2.24-1.76,2.56-.61-.13-1.12-.42-1.24-1.03-.31-1.68-.57-3.36-.81-5.04-.16-1.08-.69-1.84-1.65-2.32-.51-.25-.99-.55-1.5-.82-.28-.15-.93.1-1.09.44-.32.78-.73,1.55-.93,2.36-.52,2.07-.92,4.16-1.8,6.12-.36.8-.38,1.65-.5,2.49-.12.84-.37,1.67-.63,2.47-.19.54-.62.94-1.14,1.22-.26.14-1.04-.15-1.06-.43-.06-.7-.24-1.4-.18-2.09.22-2.84.93-5.6,1.37-8.4.58-3.7,2.25-7.02,3.36-10.54.33-1.06.87-2.09,1.72-2.88.31.04.59.07.88.1.6-.85-.42-1.55-.25-2.37.32-1.7,1.1-3.21,1.85-4.74,1.12-2.29,2.27-4.58,3.46-6.83,1-1.89,2.12-3.7,3.62-5.24.79-.82,1.51-1.67,2.1-2.67.4-.72,1.03-1.36,1.66-1.91,1.83-1.59,3.49-3.34,5.13-5.11.67-.73,1.39-1.43,2.12-2.1,1.58-1.44,3.23-2.77,4.65-4.38.47-.53,1.08-.92,1.65-1.33,1.28-.92,2.61-1.74,3.43-3.14,1.65-1.33,3.28-2.7,4.97-3.99.89-.68,1.86-1.29,2.85-1.83.87-.48,1.79-.84,2.71-1.23,3.52-1.5,7.01-3.09,10.59-4.46,1.98-.76,4.07-1.3,6.16-1.66,1.66-.28,3.4-.13,5.1-.15,1.14-.01,2.27.06,3.41,0,.85-.04,1.75-.08,2.52-.39,1.92-.75,3.88-.75,5.87-.61.45.03.93-.07,1.05-.45.11-.36-.11-.81-.19-1.21-.03-.13-.15-.24-.23-.36-1.72-2.51-4.1-4.28-6.43-6.05-2.1.2-4.08.41-6.05.56-.99.07-1.99.08-2.98.03-1.43-.06-2.14-.88-2.31-2.52-.02-.28-.03-.56-.06-.95-1.55-.21-3.07,0-4.6.37-2.75.69-5.52,1.31-8.28,1.94-.61.14-1.32-.69-1.26-1.39.06-.6.29-1.13.74-1.48.55-.44,1.14-.91,1.79-1.13,1.21-.41,2.46-.84,3.71-.94,2.69-.22,5.3-1.04,8.03-.99.55.01,1.11-.13,1.58-.19.39-.43.51-.8.22-1.2-.16-.22-.36-.45-.58-.61-1.5-1.08-3.03-2.12-4.51-3.2-.82-.59-1.67-1.07-2.72-1.07-.07.12-.19.24-.19.37-.07,3.04-.22,3.1-3.24,3.97-3.68,1.05-7.31,2.28-10.97,3.42-.54.17-1.09.37-1.64.37-.55,0-1.13-.12-1.63-.33-.92-.4-1.03-1.94-.21-2.5.34-.24.69-.52,1.07-.67,1.47-.54,2.92-1.16,4.43-1.51,3.33-.77,6.49-2.06,9.72-3.1.1-.03.17-.18.26-.29,0-.13.06-.33-.01-.4-1.58-1.63-3.19-3.24-5.52-3.75-.21-.05-.61.14-.7.33-.23.5-.33,1.06-.49,1.6-.14.46-.15.46-1.16,1.12-3.33-1.17-3.33-1.18-6.5-.09-1.21.42-2.44.81-3.58,1.38-1.53.78-3.09,1.44-4.73,1.91-.98.28-1.77.85-2.54,1.51-.31.26-.74.38-1.14.54-.42.17-1.22-.18-1.45-.63-.34-.67-.38-1.38-.01-2.04.49-.89,1.19-1.59,2.16-1.98,2.76-1.12,5.51-2.27,8.3-3.33,1.72-.66,3.48-1.18,5.22-1.78.1-.03.23-.23.21-.3-.07-.25-.15-.65-.33-.7-1.2-.41-2.42-.74-3.33-1.01-1.1.09-1.58.66-2.2.99-.69.38-1.33.31-1.94-.26-.3-.29-.53-.66-.84-.95-.19-.19-.47-.29-.72-.44-.89.17-.54,1.18-1.08,1.61-.2.15-.42.37-.67.46-3.1,1.04-6.02,2.5-8.87,4.1-1.49.84-2.97,1.71-4.54,2.35-1.75.71-3.25,1.72-4.62,3-.51.48-1.05.94-1.61,1.38-.8.63-2.12.02-2.26-1.04-.08-.57-.02-1.15.33-1.63.34-.45.69-.93,1.13-1.27,1.25-.94,2.47-1.94,3.83-2.68,2.87-1.55,5.82-2.98,8.76-4.4,1.4-.67,2.86-1.21,4.31-1.81.17-.94.04-1.15-.65-1-.55.12-1.1.27-1.59.39-.34-.06-.66-.03-.88-.17-1.34-.9-2.79-1.39-4.78-1.09-2.56,1.37-5.54,2.7-8.01,4.93-.94.85-2.02,1.6-3.16,2.16-3.45,1.7-6.58,3.94-9.94,5.78-.24.13-.52.21-.79.32-.98.38-2.43-.78-2.27-1.88.05-.39.3-.81.56-1.1.28-.3.68-.51,1.08-.68,2.21-.99,4.19-2.38,6.31-3.53.49-.27.99-.56,1.44-.91,2.36-1.84,4.79-3.54,7.42-4.98.29-.15.4-.63.63-1.03-2.1-.28-4.06-.55-6.04-.78-.56-.06-1.14.07-1.7,0-.72-.08-1.4-.05-2.11.13-1.12.31-1.83-.32-2.29-1.39-.37-.88.27-2.17,1.2-2.4.41-.11.82-.22,1.24-.24,1.43-.05,2.85.06,4.25.34.44.09.75-.25.71-.79q-4.67-3.64-8.97-5.66c-.32.13-.75.22-1.07.47-.4.32-.81.35-1.12.06-.61-.58-1.18-1.22-1.69-1.9-.65-.85-.23-2.06.79-2.4.4-.13.82-.25,1.23-.27,1.3-.07,2.56.2,3.74.74.91.41,1.81.85,2.61,1.42,3.58,2.55,7.46,4.69,10.73,7.69,1.1,1.02,2.41,1.48,3.91,1.3.25-.03.49-.24.83-.42-.22-.5-.36-1.07-.7-1.5-1.38-1.8-2.55-3.76-4.15-5.37-2.49-2.52-4.82-5.22-7.65-7.4-.68-.52-1.3-1.11-1.56-1.94.18-.75.55-1.33,1.12-1.8.43-.36,1.21-.46,1.57-.14,1.39,1.22,2.81,2.41,4.12,3.7,1.43,1.39,2.77,2.87,4.13,4.31,2.16,2.27,4.13,4.7,5.79,7.36,1.06,1.68,2.09,3.41,4.09,4.64,1.8.38,3.83.71,5.77.07.18-.97-.07-1.48-.34-1.97-1.36-2.49-2.57-5.07-3.69-7.68-.51-1.17-1.1-2.3-1.68-3.45-.84-1.67-1.81-3.22-3.3-4.4-.31-.25-.59-.62-.77-.99-.25-.53-.22-1.1.12-1.61.31-.49.73-.88,1.33-.9.27,0,.58.08.8.23,1.43.96,2.55,2.25,3.59,3.6.18,1.68,1.49,2.69,2.33,3.97.38.58.61,1.27.88,1.93.31.79.48,1.67.93,2.37,1.83,2.77,2.77,5.9,3.81,8.99.3.87.91,1.44,1.79,1.64,1.24.28,2.49.51,3.62.75.54-.23.89-.52.85-.98-.07-.7-.2-1.4-.36-2.09-.68-2.75-1.37-5.5-2.1-8.25-.21-.82-.48-1.65-.84-2.41-.75-1.6-1.78-2.87-3.8-2.94-.75-.02-1.19-.75-1.19-1.52,0-1.07.39-1.92,1.38-2.46.67-.37,1.34-.42,2.03-.12,1.62.71,2.82,1.93,3.69,3.41.66,1.09,1.22,2.27,1.57,3.49,1.04,3.54,2.12,7.07,2.72,10.72.24,1.4.62,2.76.86,3.83,1,1.42,2.16,1.88,3.46,2.15.75.15,1.49-.43,1.34-1.16-.59-2.78-.79-5.62-1.58-8.37-.55-1.94-1.22-3.78-2.84-5.12-.21-.18-.35-.44-.52-.67-.42-.6-.16-1.85.49-2.3.84-.58,2.1-.62,2.78,0,.52.47,1.08.97,1.41,1.58.6,1.12,1.11,2.31,1.54,3.5.53,1.48,2.02,8.56,2.27,10.37.07.56.07,1.15.24,1.68.65,2.08,1.55,3.97,3.65,5,.63.31,1.17.78,1.82,1.22.33-.37.77-.64.83-.97.12-.69.12-1.42,0-2.11-.27-1.68-.65-3.34-.94-5.02-.19-1.12-.41-2.24-.46-3.37-.06-1.57-.2-3.1-.66-4.62-.19-.65-.12-1.4-.09-2.1.03-.63.79-1.26,1.47-1.3.72-.04,1.66.44,1.73.97.46,3.22,1.37,6.37,1.71,9.61.36,3.39.72,6.77,1.08,10.15.12,1.17.6,2.21,1.36,3.07.36.4.91.66,1.4.91.51.26,1.32-.15,1.32-.63,0-1.42.06-2.85-.06-4.26-.17-1.85-.55-3.66-1.98-5.05-.19-.19-.3-.47-.45-.72-.25-.41-.17-1.22.23-1.58.53-.46,1.08-.91,1.67-1.28.51-.33,1.13-.21,1.63.06.49.27.9.7,1.34,1.05,1.22.97,2.37,2.06,3.7,2.88,3.26,2.02,6.37,4.27,9.54,6.4.1.07.26.05.46.08.55-1.28.22-2.49-.36-3.64-.65-1.31-1.66-2.35-2.93-3.02-3.52-1.85-6.88-3.99-10.64-5.38-1.32-.48-2.55-1.25-3.76-1.97-.77-.45-1.18-1.21-1.33-2.09.25-.98.92-1.4,1.9-1.3.55.06,1.19.1,1.62.4,2.13,1.46,4.55,2.32,6.84,3.47,1.9.96,3.85,1.82,5.68,2.92.16.1.51-.1.77-.17.44-.54.12-1.11-.07-1.58-1.09-2.59-1.33-5.54-3.14-7.91-2.3-1.1-4.62-2.22-7.11-2.8-2.2-.51-4.48-.73-6.73-1.04-.71-.1-1.37-.27-1.99-.66-.92-.58-1.09-1.82-.3-2.51.11-.09.21-.19.34-.24.38-.18.77-.35,1.15-.52,4.12.54,8.13,1.31,11.9,2.89.3-.25.58-.39.68-.6.11-.24.09-.56.06-.84-.26-2-.99-3.85-1.87-5.64-.52-1.06-1.34-1.83-2.47-2.21-.67-.23-1.33-.51-2.02-.68-1.5-.39-3.05-.64-4.55-1.1-1.65-.52-3.28-.74-5.03-.53-1.07.13-1.94-.69-2.04-1.72-.11-1.15.89-2.1,2.21-1.99,1.97.18,3.96.18,5.87.89,1.43.53,2.97.78,4.43,1.14.57-.5.47-1.13.23-1.6-1-1.88-2.05-3.73-3.13-5.55-.28-.46-.77-.86-1.26-1.12-1.61-.89-3.22-1.79-5.03-2.28-1.5-.41-2.97-.97-4.61-1.52-.68.2-1.48.44-2.41.71-1.28-.55-2.23-1.52-2.73-2.87.38-1.42,1.6-1.55,2.69-1.9.26,0,.55-.05.82,0,2.21.5,4.39,1.11,6.51,1.95.26.11.52.21.79.3.44.15,1.13,0,1.15-.26.03-.26.09-.56,0-.78-.29-.64-.7-1.24-.97-1.89-.94-2.27-2.42-3.83-5.02-4-1.59-.6-3.24-1.09-4.76-1.83-2.04-1-3.99-2.17-5.97-3.3-.36-.21-.66-.54-.97-.83-.91-.86-.75-2.01.4-2.84.11-.08.25-.12.54-.24.4.16.96.3,1.44.57,1.22.71,2.43,1.48,3.63,2.23,1.58.98,3.24,1.78,5.01,2.34.22.07.53-.02.77-.09.26-.08.17-.69-.16-1.11-1.39-1.8-2.77-3.59-4.5-5.83-1.81-1.15-4.41-2-6.74-3.34-1.68-.27-3.28-.96-5.02-.9-.56.02-1.13-.09-1.69-.16-.67-.09-1.14-1.07-.79-1.66.62-1.08,1.54-1.74,2.8-1.53,2.1.35,4.2.72,6.22,1.45.35.12.79-.03,1.19-.06-.06-1.06-.93-1.46-1.32-2.19-.33-.63-.73-1.21-1.09-1.79-3.13-2-6.67-2.47-10.19-3.16-.58.42-1.15.84-1.74,1.22-.63.41-1.45.18-1.8-.48-.83-1.55-.03-3.3,1.64-3.62,1.57-.3,3.08-.28,4.63.2,2.3.72,4.68,1.15,6.91,2.12.37.16.84.18,1.26.18.26,0,.59-.1.75-.28.15-.15.24-.54.15-.72-1.17-2.43-2.36-4.85-3.86-7.11-1.33-2.01-2.55-4.11-3.28-6.43-.23-.7-.15-1.39.3-2.01.51-.69,1.74-.79,2.25-.16.18.22.42.43.5.69.72,2.33,2.22,4.26,3.32,6.39.39.76.91,1.46,1.22,2.24,1.03,2.65,2.81,4.89,3.78,7.7.35-.38.64-.57.63-.73-.08-1.7-.1-3.41-.33-5.09-.28-1.96-.77-3.89-1.17-5.84-.12-.57.14-1.14.65-1.43.66-.38,1.47-.26,1.95.22.62.63,1.09,1.37,1.22,2.21.39,2.52,1.01,5.01,1.12,7.59.15,3.55.72,7.06,1.45,10.54.32,1.55.78,3.01,1.59,4.37.3.48.49,1.02.78,1.64-.12.49-.3,1.02-.38,1.57-.24,1.44.49,2.41,1.65,3.13.1.07.27.04.41.06.3-.51.39-1.08.26-1.64-.88-3.8-.71-7.6-.28-11.43.26-2.26.22-4.54.34-6.81.03-.56.07-1.15.28-1.66.13-.35.54-.71.91-.8.35-.08.85.08,1.15.31.72.55,1,1.39.97,2.27-.09,2.7-.09,5.4-.37,8.09-.33,3.13-.22,6.24.08,9.35.04.43.2.85.2,1.27-.02,2.05.6,3.91,1.56,5.69.13.24.15.54.21.83.14,1.05-.72,1.82-.84,3.03.23,1.5,1.08,2.86,2.21,4.54.17-.8.31-1.09.27-1.35-.39-2.67-.19-5.37-.14-8.04.04-2.54.51-5.07.73-7.61.11-1.27.06-2.55.14-3.82.02-.4.23-.81.41-1.19.21-.46,1.02-.84,1.44-.64.36.18.77.46.93.8.23.5.36,1.09.36,1.65.01,3.12-.04,6.26-.55,9.35-.25,1.56-.38,3.1-.37,4.67.02,2.41-.26,4.83.12,7.24.16,1.01-.12,1.95-.54,2.89-.26.58.1,1.12.54,1.49.54.44,1.15.8,1.8,1.23.36-.36.67-.62.89-.94.15-.22.19-.53.23-.81.39-3.97,1.41-7.82,2.35-11.68.54-2.21.91-4.45,1.36-6.68.14-.69.9-1.21,1.58-1.12.69.1,1.38.75,1.46,1.35.04.28.13.57.08.84-.38,2.09-.44,4.23-1.19,6.27-.54,1.46-.78,3.02-1.2,4.52-1.02,3.57-1.63,7.2-1.75,10.91,0,.14-.01.28-.02.42-.13,1.78-.2,1.92-1.92,3.58,0,.75.3,1.38.81,1.91.29.3.63.58.99.81,2.79,1.78,2.11,2.12,1.35,4.53-.02,1.04.46,1.91,1,2.74.11.16.48.18.73.21.08.01.23-.17.24-.27.34-2.53.67-5.06.98-7.6.17-1.41.3-2.81.63-4.21.36-1.52.4-3.1.58-4.65.12-.99.33-1.96.8-2.86.18-.36.93-.68,1.49-.62.52.07,1.09.6,1.09,1.12.01.99.08,1.99-.05,2.96-.64,4.64-1.36,9.28-2.02,13.92-.29,1.96-.51,3.93-.79,6.03-.44.39-.96.86-1.56,1.4.08.34.11.79.31,1.11.37.6.84,1.13,1.27,1.67.1,1.19.16,2.33.31,3.45.05.39.35.76.57,1.12.05.09.26.11.39.11.1,0,.26-.09.27-.16.55-4.51,1.45-8.98,1.23-13.56-.07-1.41.05-2.83.1-4.25.01-.44.66-1.05,1.14-1.15.57-.13,1.64.37,1.8.87.13.4.29.81.33,1.23.23,3.41.11,6.78-.41,10.19-.65,4.36-1.68,8.64-2.39,12.98-.13.83-.43,1.64-.68,2.55.19.76.38,1.59.62,2.4.2.65.24,1.36.79,2,.29-.39.67-.69.75-1.05.63-3.06,1.24-6.12,1.76-9.2.19-1.11.11-2.27.2-3.4.03-.42.19-.83.33-1.22.29-.76,1.55-.99,2.16-.43.44.39.77.87.82,1.45.06.7.09,1.42.02,2.12-.21,1.97-.66,3.93-.55,5.93-.19.37-.46.72-.57,1.11-.66,2.47-1.19,4.97-1.96,7.4-.94,2.93-1.06,5.84-.33,8.81.2.82.39,1.64.55,2.38.54.33,1,.16,1.09-.24.62-2.91,1.31-5.8,1.36-8.8.02-.84,0-1.69,0-2.41.39-.63.68-1.11.98-1.59.3-.48.61-.97.43-1.85-.33-.65-.77-1.54-1.24-2.4-.43-.79-.39-1.64-.4-2.49.46.1.81-.13,1.17-.36.67-.41,1.4-.27,1.93.3.29.31.61.64.75,1.02.59,1.61,1.48,3.06,2.32,4.55.34.61.55,1.3.8,1.97.41,1.05.79,2.12,1.15,3.09.52.26.94.24,1.13-.21.67-1.6,1.01-3.25.59-4.99-.14-.55-.27-1.12-.3-1.68-.19-3.87-1.2-7.56-2.45-11.19-.14-.4-.26-.81-.36-1.22-.16-.69.53-1.8,1.32-1.97.37-.08.85.04,1.18.22.93.5,1.42,1.4,1.78,2.33.89,2.24,1.54,4.57,1.83,6.98.11.84.01,1.71.46,2.48.42.18.84.2,1.08-.22.36-.6.64-1.26.97-1.92-.24-.84-.56-1.64-.68-2.46-.13-.83-.05-1.7-.08-2.55-.03-.85,0-1.72-.17-2.55-.7-3.49-.39-7.1-1.36-10.55-.28-.97,1.08-2.11,2.24-2,.46.04.78.32,1.04.66.74.95.98,2.06.93,3.21-.11,3.15.74,6.2.96,9.31.02.19.31.42.54.52.3.14.56-.02.69-.34.1-.26.3-.51.31-.78.05-1.56.11-3.12.06-4.68-.07-2.7-.26-5.39-.33-8.09-.04-1.3-.32-2.54-.73-3.75-.22-.66-.53-1.29-.72-1.75.15-1.05.74-1.4,1.42-1.68,1.09-.45,1.98-.09,2.39.98.1.26.26.52.31.79.47,2.37.99,4.73.91,7.17-.03.84.12,1.69.19,2.53.03.31.71.68,1.02.52.62-.31,1.22-.67,1.7-.93.18-.46.36-.71.36-.97,0-2.7-.02-5.4-.03-8.1,0-.57,0-1.14.04-1.7.28-3.54.45-7.09.33-10.65-.03-.75.22-1.38.73-1.93.59-.63,1.37-.91,1.88-.63.53.28.87.72,1.01,1.3.46,1.82.43,3.66.18,5.51-.42,2.96-.58,5.94-.49,8.93.02.41.14.82.21,1.23.18-.03.36,0,.46-.08,1.42-1.04,2.07-2.65,3.03-3.88.04-5.83.34-11.48,1.81-17.01.22-.82.22-1.69.41-2.52.13-.57.57-.95,1.04-1.3.7-.5,1.79-.09,2.09.74.3.85.22,1.69.08,2.53-.34,1.96-.81,3.89-1.13,5.85-.22,1.39-.29,2.81-.4,4.22,0,.12.12.34.2.35.25.03.57.06.74-.08.7-.53,1.28-1.26,1.36-2.1.17-1.64,1.03-2.92,2.03-4.08-.17-3.4.37-6.63.72-9.87.3-2.85,1.12-5.57,1.98-8.27.31-.95.92-1.76,1.81-2.29.3-.17.97-.24,1.2.01.28.3.52.66.67,1.03.09.24.06.57,0,.83-.25.95-.54,1.91-.83,2.85-.62,2.04-1.16,4.09-1.34,6.23-.08,1.13-.35,2.25-.47,3.37-.02.15.3.37.5.51.08.06.3.03.39-.04,1.1-.94,2-2.05,2.65-3.31.44-.87.82-1.85.91-2.81.16-1.86.63-3.64,1.14-5.41.92-3.28,1.88-6.55,2.26-9.96.18-1.51,1.01-2.28,2.57-2.45.29.18.64.41,1.03.66.26,1.57.19,3.09-.27,4.62-.74,2.45-1.41,4.91-2.07,7.38-.08.36.12.79.19,1.31,2.25-1.25,3.54-3.09,3.9-5.42.54-3.53,1.59-6.91,2.76-10.26.61-1.74,1.08-3.53,1.63-5.28.13-.4.32-.79.52-1.16.48-.94,2.09-1.31,2.98-.63.29.23.54.72.53,1.09,0,.54-.23,1.1-.42,1.64-1.11,3.22-2.25,6.43-3.36,9.65-.19.52-.25,1.08.17,1.57,1.04-.24,1.62-1.13,2.43-1.72.77-1.03,1.18-2.21,1.42-3.48.61-3.23,1.97-6.22,2.93-9.34.5-1.61,1.45-3.08,2.27-4.57.36-.65,1.06-.89,1.79-1.02.96-.16,1.77.53,1.63,1.42-.06.42-.11.86-.26,1.24-.26.66-.52,1.35-.92,1.91-1.64,2.24-2.21,4.91-3.1,7.45-.14.39-.16.84-.16,1.26,0,.26.09.6.27.76.16.13.55.18.74.07,1.75-.99,3.3-2.2,4.52-3.83,1.71-2.29,3.81-4.22,5.9-6.14.52-.47,1.13-.87,1.74-1.23.36-.22.84-.23,1.2.05.44.34.9.69,1.25,1.11.28.33.3.83.03,1.18-.44.54-.94,1.05-1.47,1.51-.85.74-2.02,1.06-2.68,2.06-.06.11-.14.29-.09.37.12.23.27.59.46.63,1.97.4,3.94.26,5.91-.06,1.26-.21,2.52-.42,3.8-.49.91-.06,1.58.51,2.04,1.3.29.48.11,1.28-.34,1.46-.4.15-.79.36-1.2.45-2.5.54-5.01,1.13-7.54,1.15-2.49.01-4.73.76-7,1.55-.17.06-.23.46-.31.71,0,.05.18.17.31.23.12.07.26.16.39.15,1.7-.13,3.39-.27,5.09-.43,1.28-.13,2.49-.52,3.63-1.14.47-.25,1.09-.28,1.64-.31.99-.05,1.84,1.16,1.51,2.1-.09.27-.19.55-.35.77-.33.46-.7.88-1.01,1.25-2.07.35-4.01.72-5.98.99-1.96.27-3.94.41-5.94.4-1.39,0-2.79.43-4.07.65-.79.59-1.48,1.09-2.12,1.55-1.07.22-1.45-.85-2.25-1.09-.25.04-.56.02-.77.16-1.79,1.18-3.42,2.53-4.74,4.24-.07.09-.1.33-.05.41.16.18.36.4.58.44.26.04.55-.06.82-.14,2.73-.82,5.5-1.44,8.36-1.49.84-.02,1.68-.29,2.51-.42,1.83-.3,3.67-.47,5.52-.3.97.09,1.76,1.15,1.62,2.14-.1.64-.75,1.42-1.36,1.47-.84.08-1.72-.06-2.45.61-.29.6-.6,1.22-.88,1.8-.3.18-.52.39-.79.46-2.88.75-5.78,1.45-8.66,2.23-1.91.52-3.8,1.17-5.71,1.74-.94.28-1.88.65-2.86.75-1.78.18-3.27.86-4.56,2.08-.4.38-.87.71-1.24,1-.41-.07-.69-.09-.96-.16-1.28-.33-1.46-.27-2.08.7-.07.12-.16.24-.21.37-.48,1.07-1.24,1.89-2.23,2.52-.2.14-.3.45-.45.69.21.13.43.37.63.38,2.3.05,4.52-.49,6.73-1,.68-.16,1.36-.53,2.04-.53,2.6-.02,5.03-.77,7.46-1.6.4-.13.83-.14,1.26-.17,1.38-.08,2.52,1.09,1.74,2.51-.13.24-.35.43-.53.64-3.99,1.01-7.97,2.05-11.96,3.03-1.1.27-2.24.38-3.35.56-1.68.28-3.38.49-5.04.85-1.7.38-3.13,1.25-4.3,2.59-1.52,1.74-2.8,3.52-4.26,6.31.2.15.41.42.61.42.42-.02.84-.12,1.22-.29,3.26-1.41,6.6-2.62,10.02-3.55,1.27-.35,2.52-.44,3.8-.38,1.31.06,2.22,1.36,1.88,2.76-.07.36-.53.79-.89.79-.84.02-1.69.02-2.53,0-.87-.03-1.7.06-2.51.4-1.69.72-3.39,1.45-5.1,2.14-2.11.85-4.23,1.67-6.36,2.47-1.75.66-3.31,1.56-4.52,3.06-.6.75-1.51,1.24-2.24,1.9-.14.12-.16.51-.07.72.11.3.42.36.73.27.14-.04.29-.04.42-.08,2.84-.92,5.58-2.09,8.52-2.73,1.23-.27,2.37-.91,3.39-1.31.94.03,1.53.44,2.1.86.81.6.56,2.09-.39,2.46-.66.25-1.33.54-2.02.64-2.41.36-4.67,1.2-6.89,2.16-1.83.8-3.7,1.44-5.63,1.95-.68.18-1.39.31-2.04.58-1.59.66-3.07,1.5-4.05,3-.54.83-1.15,1.62-1.69,2.45-.79,1.18-1.56,2.37-2.31,3.58-.12.19-.17.57-.06.71.14.18.47.27.73.27s.55-.13.8-.25c3.47-1.62,6.94-3.27,10.44-4.85,1.15-.52,2.39-.83,3.65-1.25.66-.65,1.34-1.36,2.08-2.02.44-.39,1.56.03,1.8.6.3.68.32,1.4.06,2.08-.39,1.06-.93,2.07-1.31,3.14-.18.52-.14,1.11-.2,1.67-.85.29-.95.96-.85,1.72-.24.1-.6.12-.72.31-1.56,2.35-2.74,4.86-3.35,7.73.44.2.89.59,1.14.49,1.38-.58,2.41-1.66,2.37-3.17-.03-1.15.2-2.22.32-3.33.07-.7.12-1.39.17-2.08.95-.25.94-.97.84-1.73Z"/>
      <path class="cls-1" d="M40.86,141.9c.61-.9,1.23-1.67,2.14-2.14.39-.2.8-.18,1.18.06.38.24.65.61.61,1.03-.02.55-.14,1.13-.36,1.63-1.49,3.23-2.08,6.73-3.03,10.13-.45,1.61-.81,3.29-.36,5.02.09.36-.13.81-.25,1.21-.15.5-.82.85-1.36.75-.87-.17-1.63-.91-1.72-1.66-.02-.14-.09-.28-.09-.42.29-3.81.57-7.61,1.83-11.26.5-1.47.96-2.95,1.41-4.35Z"/>
      <path class="cls-1" d="M54.42,143.84c.52-3.92,2.22-7.2,3.6-10.59.26-.64.76-1.19,1.18-1.74.37-.47.9-.66,1.5-.67.89.33,1.36.98,1.33,1.93-.03,1-.24,1.96-.67,2.87-.49,1.02-.91,2.07-1.49,3.04-.87,1.48-1.54,3-1.61,4.76-.03.54-.3,1.08-.49,1.6-.36.95-1.84,1.24-2.45.44-.41-.54-.66-1.21-.91-1.66Z"/>
      <path class="cls-1" d="M48.99,150.44c-.44.4-.91.66-1.52.42-.84-.32-1.52-.82-1.66-1.75-.11-.68-.13-1.42,0-2.1.33-1.52.76-3.01,1.52-4.39.75-1.36,1.44-2.75,1.77-4.3.16-.71.71-1.21,1.24-1.67.78-.65,1.97-.55,2.66.25.17.2.26.5.3.77.03.27-.01.57-.11.82-.35.92-.72,1.85-1.13,2.74-1.26,2.7-2.36,5.43-2.73,8.42-.03.27-.22.52-.33.77Z"/>
    </g>
  </g>
</svg>