<?xml version="1.0" encoding="UTF-8"?>
<svg id="Layer_2" data-name="Layer 2" xmlns="http://www.w3.org/2000/svg" viewBox="0 0 211.96 397.8">
  <defs>
    <style>
      .cls-1 {
        fill: #593826;
        fill-rule: evenodd;
      }
    </style>
  </defs>
  <g id="_Layer_" data-name="&amp;lt;Layer&amp;gt;">
    <path class="cls-1" d="M38.27,71.3l-.25-.15-.02.24.27-.09h0ZM120.04,68.5c0-.35-.1-.44-.23-.22-.05.06.04.2.06.31.06-.03.11-.06.17-.09h0ZM102.49,228.97c0-.13.05-.27,0-.39-.04-.12-.21-.31-.25-.29-.28.12-.36.36-.25.66.04.12.15.21.22.32.09-.1.18-.2.27-.3h0ZM113.15,211.13c-.08-.25-.16-.5-.24-.76-.08.11-.25.22-.23.32.02.25.13.51.2.76.09-.1.17-.21.27-.31h0ZM117.7,234.46c-.08.25-.25.5-.25.75,0,.25.14.52.21.78.1-.25.26-.49.26-.75,0-.26-.14-.52-.22-.78h0ZM93.21,369.42s-.05-.24-.13-.29c-.09-.06-.26-.08-.37-.04-.29.11-.38.36-.27.65.04.09.22.22.24.21.19-.17.38-.33.53-.53h0ZM111.26,132.08c-.08-.09-.17-.25-.25-.25-.12,0-.29.07-.36.17-.14.23-.29.47-.33.73-.04.24,0,.54.1.77.09.2.63-.17.79-.63.07-.24.05-.52.06-.79h0ZM76.15,123.44c-1.21-.55-2.12-.29-2.82.81,1.18.47,2.17.46,2.82-.81h0ZM147.92,117.86c-.14-.02-.28-.08-.41-.06-.7.12-1.21.5-1.54,1.13-.12.24-.02.52.31.56,1.16.16,1.64-.08,1.89-.98.05-.17-.17-.43-.26-.65h0ZM106.46,146.43c-.54,1.23-.48,1.52.54,2.4.08.07.27.11.34.07.1-.06.22-.21.23-.34.05-.92-.31-1.64-1.11-2.14h0ZM112.88,96.18c-.4.86-.25,1.52-.07,2.18.03.13.11.31.2.34.23.06.48.09.71.07.1-.01.24-.17.26-.28.14-.89-.29-1.55-1.1-2.31h0ZM109.29,349.09c-.02-.28,0-.58-.08-.83-.08-.21-.29-.45-.49-.55-.31-.15-.54.03-.67.34-.29.68-.3,1.34.09,1.99.06.1.18.21.3.23.31.06.56-.08.66-.39.09-.25.13-.53.19-.79h0ZM93.04,135.53c.41.52.8,1.1,1.28,1.61.13.14.53.14.74.06.28-.1.31-.42.21-.73-.25-.68-.63-1.27-1.24-1.67-.19-.13-.58-.2-.71-.1-.17.14-.18.48-.29.82h0ZM154.59,119.89c-.13.46.17.74.51.83.5.15,1.03.2,1.57.2.3,0,.5-.28.39-.53-.09-.2-.3-.46-.5-.5-.66-.13-1.32-.28-1.97,0h0ZM112.23,167.66c.06-.42.16-.83.18-1.24.03-.57.05-1.13-.03-1.7-.02-.19-.31-.37-.53-.51-.07-.05-.3.04-.38.13-1.15,1.12-1.17,2.21-.04,3.25.14.13.47.05.79.07h0ZM21,61.77c-.22-.46-.25-.64-.34-.7-1.22-.65-2.46-1.29-3.7-1.92-.12-.06-.28-.1-.4-.07-.26.05-.54.11-.74.27-.06.04.06.51.21.61,1.38,1,2.95,1.47,4.96,1.82h0ZM112.92,188.16c-.32-1.68.1-3.37-.5-5.05-1.07.48-1.12.54-1.23,1.01-.26,1.14-.2,2.25.26,3.34.11.25.28.53.5.68.17.11.45.02.97.02h0ZM75.28,94.45c.12-.2.26-.33.25-.44-.16-1.85-.77-3.58-1.56-5.25-.07-.15-.38-.19-.59-.25-.03,0-.16.23-.17.36-.07,1.73.54,3.34,1.13,4.93.11.29.62.44.94.65h0ZM96.72,334.19c-.22.33-.53.62-.64.98-.4,1.22-.36,2.49-.15,3.76.02.09.15.22.24.23.13.02.3-.02.4-.1.87-.8,1.07-1.91,1.27-3-.2-.71-.41-1.39-1.12-1.87h0ZM119.92,70.65c-.08.11-.23.23-.23.34,0,1.82-.03,3.66.04,5.48.04.98.21,1.96.34,2.94,0,.09.19.25.24.24.25-.1.59-.18.68-.38.17-.36.33-.84.23-1.2-.6-2.35-.88-4.73-1.08-7.12-.02-.1-.15-.2-.22-.29h0ZM91.05,385.98c-.72.31-.95.96-1.04,1.67-.11.84-.23,1.68.2,2.48.06.12.2.21.32.27.8.43,1.61.47,2.39.02.34-.19.58-.77.48-1.07-.42-1.21-1.03-2.31-1.99-3.21-.1-.09-.29-.21-.37-.18h0ZM111.1,124.95c.14-.24.33-.46.42-.72,1.12-3.48,2.45-6.88,3.81-10.27.05-.12.05-.29.02-.42-.03-.13-.1-.26-.18-.36-.16-.21-.4-.18-.66.07-.72.72-1.09,1.64-1.37,2.58-.79,2.7-1.57,5.4-2.33,8.11-.06.24.04.55.08.82,0,.07.14.13.21.19h0ZM109.06,110.51c0,.41,0,.83.04,1.24,0,.11.14.25.24.33.27.18.58.17.66-.07.45-1.46.86-2.93,1.28-4.39.34-1.21.69-2.41,1.03-3.61.07-.27-.37-.85-.75-.89-.24-.03-.51.1-.75.2-.11.05-.26.17-.29.28-.55,2.28-1.49,4.49-1.46,6.91h0ZM101.06,259.16c-.49,5.22-.48,5.83.24,8.79.72-2.39,1.56-4.26,2.08-6.17-.73-2.14-.88-2.29-2.32-2.62h0ZM112.93,144.51c.18-.19.47-.35.53-.58.57-2.17,1.11-4.34,1.64-6.52.06-.27.07-.56.06-.84,0-.28-.05-.56-.1-.83-.03-.13-.15-.36-.2-.35-.23.01-.58.03-.67.18-.81,1.33-1.21,2.83-1.35,4.37-.15,1.51-.61,3.05.09,4.57h0ZM167.8,75.77c-.03-.73-.41-1.12-.97-1.25-.4-.09-.97-.15-1.21.05-1.3,1.13-2.97,1.49-4.5,2.15-.25.11-.54.16-.78.3-1.09.61-2.18,1.22-3.24,1.88-.14.09-.12.44-.14.68,0,.02.25.13.33.09,3.4-1.57,6.76-3.27,10.5-3.9h0ZM127.86,73.8c-.92.88-1.27,2.08-1.58,3.27-.03.12.36.5.47.48,1.62-.34,3.24-.67,4.7-1.47.5-.27.87-.67,1.05-1.22.04-.11.02-.3-.05-.4-.16-.2-.44-.54-.53-.51-1.36.64-2.69.23-4.07-.15h0ZM151.91,83.1c-.37.11-.82.13-1.11.36-1.43,1.09-2.83,2.22-4.19,3.39-.29.25-.4.72-.56,1.1-.05.1-.06.29,0,.37.18.27.46.32.76.2,1.54-.64,3.1-1.25,4.6-1.95.33-.16.65-.59.72-.95.17-.81.3-1.66-.21-2.52h0ZM115.73,111.71c1.75-2.03,2.78-4.29,3.6-6.66.11-.33-.1-.78-.17-1.21-.36.14-.67.19-.87.36-1.39,1.2-2.55,2.59-3.36,4.26-.26.52-.28,1.09-.03,1.63.24.51.52,1.01.82,1.61h0ZM117.43,231.67c.86-.47,1.04-1.03,1.04-1.58.02-1.69.02-3.38-.1-5.06-.15-2.11-.42-4.21-.66-6.32-.05-.4-.24-.77-.38-1.24-.13.35-.29.61-.3.87-.06,3.1-.15,6.2-.11,9.3,0,1.25.3,2.52.51,4.03h0ZM139.16,119.14c-.09-.1-.29-.24-.26-.29,1.61-3.51,2.95-5.11,5.51-6.6.35-.21.89-.14,1.16.15.31.34.4.77.26,1.18-.14.39-.33.77-.56,1.11-.15.22-.39.4-.61.56-1.14.83-2.27,1.64-3.41,2.45-.68.48-1.39.95-2.08,1.43h0ZM103.34,85.67c.21,1.3.51,2.4.57,3.5.07,1.43.56,2.74.99,4.08.06.2.35.39.57.46.32.1.57-.08.61-.39.18-1.52.44-3.03.49-4.56.04-1.42-.48-2.74-1.4-3.89-.19-.23-.78-.28-1.14,0-.21.16-.36.4-.69.8h0ZM102.66,174.39c.68-.39.83-1.12,1.1-1.74.9-2.05,1.73-4.11,2.56-6.19.1-.23,0-.55-.03-.83-.03-.37-.64-.7-.95-.49-.46.3-1.01.57-1.31,1-1.13,1.64-1.84,3.44-1.64,5.53.06.69-.06,1.41-.03,2.11,0,.21.19.41.31.62h0ZM141.49,79.67c-.25.16-.52.27-.7.46-.37.41-.76.83-1.04,1.31-1.52,2.57-2.12,5.43-2.4,8.38,0,.15.32.37.53.51.09.06.31.05.41-.02,1.08-.93,1.87-2.04,2.18-3.47.46-2.19.95-4.38,1.39-6.57.03-.16-.23-.39-.36-.59h0ZM103.15,162.81c.55.03.87-.37.81-.74-.18-1.29.17-2.46.46-3.68.46-1.85.04-3.65-.99-5.27-.52-.83-1.16-1.63-2.32-1.61-.07.12-.19.22-.22.35-.38,1.82-.15,3.64.35,5.41.54,1.87,1.27,3.7,1.9,5.54h0ZM133.47,89.92c-.43.24-.87.36-1.12.64-.54.64-.9,1.42-.98,2.28-.21,2.11-.76,4.13-1.34,6.15-.23.8-.27,1.66-.33,2.49-.02.19.25.4.38.61,1.91-1.79,2.39-2.48,3.21-4.28.49-1.06.48-2.18.51-3.3.04-1.12.12-2.25.1-3.38,0-.37-.26-.75-.43-1.22h0ZM82.04,125.23c.33,1.04.61,2.13,1.03,3.16.28.67.86,1.13,1.63,1.22.42.05.85.05,1.27.11.91.11,1.6.57,2.02,1.39.32.64.54,1.33.94,1.91.41.6,1.02.98,1.81.75.39-1.33.37-1.33.02-2.81-2.59-2.96-4.31-4.44-7.1-6.07-.23-.13-.56-.18-.81-.13-.25.04-.46.26-.79.47h0ZM126.78,92.65c.32-.77.61-1.41.84-2.07.09-.25.05-.56.05-.84.02-.42-.39-.78-.81-.79-.76-.02-1.37.29-1.93.73-1.33,1.02-2.36,2.43-4.1,2.89-.31.08-.56.61-.71.99-.43,1.19-.82,2.39-1.21,3.6-.13.4-.23.82-.22,1.23,0,.16.35.43.55.45.64.06,1.08-.39,1.4-.82.51-.67.9-1.43,1.3-2.16q1.45-2.65,4.84-3.2h0ZM123.05,85.93c1.58.71,2.98-.37,4.61-.39.69.25,1.47.54,2.34.85.29-.29.73-.53.81-.86.16-.67.06-1.41.18-2.09.15-.82.42-1.6.6-2.28-.34-.76-.86-.97-1.43-.79-.66.21-1.29.51-1.9.84-.73.39-1.42.87-2.14,1.3-.84.49-1.69.96-2.46,1.39-.42.67-.82,1.23-.6,2.02h0ZM113.3,154.6c-.79-.21-1.48-.39-2.16-.58-.86-.25-1.4-.95-2.07-1.47-.14-.11-.49,0-.73.08-.08.03-.15.24-.16.37-.02.42-.04.85-.02,1.27.03,1.2.4,2.21,1.59,2.8.2.1.3.43.5.73-.39.84-.86,1.69-1.2,2.6-.18.49-.19,1.07.38,1.54,1.1-.79,2.58-.96,3.64-1.93.17-1.6.33-3.13.48-4.66,0-.13-.08-.26-.25-.73h0ZM94.78,365.76c.21-.16.48-.28.61-.48.66-1.07,1.28-2.16,1.89-3.26.59-1.07.51-2.13-.14-3.2-.72-1.22-1.28-2.54-2.43-3.43-.27.16-.63.25-.7.45-.9,2.52-1.39,5.13-1.1,7.83.11,1.03.79,1.81,1.87,2.09h0ZM125.48,110.23c.03-.62.1-1.33.06-2.03-.1-1.98-.05-3.94.23-5.9.02-.1-.18-.34-.23-.33-.25.06-.59.12-.7.31-1.3,2.18-2.07,4.59-2.56,7.06-.49,2.47-.78,5-1.14,7.5-.06.4-.05.82-.04,1.23,0,.09.17.22.27.25.13.03.36.03.4-.05.62-1.09,1.39-2.14,1.75-3.31.51-1.62,1.38-3.06,1.96-4.73h0ZM159.48,72.4c.02-2.74.74-5.45,1.77-8.09.52-1.31.93-2.66,1.35-4.01.07-.22-.12-.52-.19-.79-.25.08-.6.08-.73.26-1.55,2.16-2.99,4.41-4.01,6.89-.54,1.3-1.12,2.58-1.63,3.89-.25.65-.44,1.34-.52,2.04-.04.36.21.76.34,1.16,1.32-.22,2.69.01,3.61-1.36h0ZM76.86,119.13c.27-.82.09-1.48-.34-2.09-.5-.71-1.09-1.43-1.94-1.62-1.51-.34-3.02-.83-4.48-.71-1.05.59-2.14.93-2.72,2.03.43.68.79,1.29,1.18,1.88,1.3,1.93,1.5,2.05,3.88,1.42,1.11-.29,2.21-.4,3.33-.49.4-.03.77-.29,1.08-.42h0ZM123.04,126.51c.88-.1,1.57-.17,2.4-.26,1.2-1.4,2.44-2.89,3.73-4.33,1.31-1.46,3.09-2.33,4.59-3.61.16.32.43.64.36.76-.9,1.57-1.83,3.1-2.54,4.3-.41.38-.5.5-.62.58-3.16,2.08-5.89,4.64-8.21,7.64-.25.33-.54.64-.87.89-.16.12-.44.12-.67.12-.05,0-.17-.23-.17-.36,0-.42-.04-.87.09-1.25.48-1.45.92-2.92,1.9-4.46h0ZM150.49,78.03c.23-.85.43-1.67.65-2.48.73-2.7,1.01-5.53,2-8.17.03-.07-.12-.26-.22-.31-.1-.05-.31-.04-.39.03-.79.79-1.57,1.57-2.3,2.4-1.79,2.02-3.05,4.35-3.67,6.99-.35,1.49-.56,3.03-.81,4.54-.02.1.11.27.21.34.09.06.27.09.37.05,1.79-.65,2.87-2.14,4.16-3.4h0ZM109.57,181.08c-.42-.17-.9-.23-1.13-.5-1.15-1.32-1.75-2.94-2.24-4.58-.15-.53-.13-1.12-.09-1.68.13-1.75.93-3.22,1.9-4.61.22-.31.82-.34,1.1-.01.82.98,1.66,1.95,2.45,2.97,1.07,1.39,1.17,2.81.28,4.34-.77,1.31-1.16,2.86-2.27,4.08h0ZM171.07,66.32c.58.2.86.39,1.1.37,1.37-.12,2.37-.88,3.08-1.99.98-1.54,1.96-3.09,2.82-4.7,1.14-2.14,2.64-3.97,4.4-5.61.5-.47.91-1.04,1.36-1.58.04-.05,0-.24-.07-.3-.1-.09-.27-.21-.37-.18-1.27.38-5.76,2.48-6.42,3.08-.52.46-1.07.96-1.38,1.56-1.54,3-3.17,5.95-4.51,9.36h0ZM111.4,297.63c.16-.18.41-.34.45-.54.35-1.64.61-3.3.57-5.01-.04-2.25.1-4.48.45-6.72.3-1.92.43-3.9.05-5.8-.54-.2-.99-.27-1.16.19-.91,2.34-1.89,4.67-2.61,7.07-1.29,4.35-1.79,3.48.57,8.41.42.87.72,1.87,1.68,2.41h0ZM107.38,185.76c-.08-.43-.07-.74-.2-.98-1.04-2.03-2.14-4.02-3.15-6.06-.3-.59-.66-1.23-1.4-1.44-.6.31-.69.9-.71,1.45-.04.84.16,1.71.05,2.53-.45,3.39-.13,6.79.02,10.19.02.41.13.85.3,1.23.09.24.35.49.58.58.2.07.54-.02.71-.17.3-.28.58-.62.76-.99,1.05-2.14,2.07-4.3,3.05-6.33h0ZM98.6,303.64c.49.09.99.1,1.16-.31,1.36-3.23,2.67-6.49,4-9.73.05-.13.08-.27.12-.4.29-1,.18-1.98-.33-2.89-.91-1.61-2-3.11-3.25-4.48-.07-.07-.24-.06-.4-.09-.75,1.55-.89,3.22-.85,4.93.04,1.99-.06,3.96-.53,5.9-.47,1.94-.36,3.93-.31,5.91,0,.4.26.8.39,1.17h0ZM94.97,373.16c-.31.38-.74.77-1.01,1.24-.49.85-.95,1.72-1.31,2.62-1.75,4.48-1.51,4.37,1.29,7.51.29.31.57.68.94.86.33.17.77.11,1.16.15,1.2-1.48,2.16-3.02,2.94-4.67.38-.79.43-1.65,0-2.45-.93-1.76-1.84-3.54-3.14-5.07-.14-.16-.51-.12-.89-.2h0ZM104.67,372.7c-.29.58-.42,1-.66,1.32-.84,1.11-1.68,2.23-2.78,3.07-.31-.09-.71-.09-.81-.26-1.45-2.28-3.01-4.5-3.82-7.19.5-1.92,1.57-3.56,2.55-5.25.3-.54.99-.49,1.38.09,1.33,2.03,2.49,4.17,3.43,6.4.23.52.42,1.06.72,1.82h0ZM150.98,49.1c-.42.1-.81.16-1.19.28-.92.31-1.83.82-2.78.94-1.29.17-2.49.56-3.57,1.19-1.42.82-2.91.9-4.48.75-.24-.03-.5.22-.79.36-.41.69-.84,1.41-1.26,2.14-.14.24-.31.51-.31.77,0,1.25-.56,2.38-.8,3.54.19.13.33.29.41.27,2.54-.79,5.06-1.6,7.33-2.56.29-.44.44-.67.58-.91.2-.36.37-.76.6-1.1.55-.82,1.75-1.1,2.63-.58.48.29.9.7,1.34,1.06,1.51-2.61,1.82-3.46,2.29-6.15h0ZM112.79,195.54c.38,1.6.27,3.29.34,4.98.1,2.07-.61,3.85-1.65,5.53-.24.39-.67.39-1.19.16-1.1-2.2-2.15-4.53-3.41-6.74-.92-1.63-.99-3.27-.52-4.9.47-1.6,1.12-3.16,2.11-4.53.22-.31.91-.36,1.09-.06,1.06,1.84,2.13,3.67,3.23,5.57h0ZM131.84,65.75c-.68,1.1-1.42,2.29-2.16,3.47-.38.6-.46,1.06-.18,1.1.25.03.54.11.75.02,1.03-.45,2.02-.95,3.04-1.43.98-.48,2-.16,2.5.83.32.64.54,1.32.86,1.95.11.2.41.31.64.48.35-.21.7-.43,1.07-.64,1.17-.64,1.58-.53,2.49.63.08.11.11.26.19.37.58.79.8.75,1.36-.28-.49-.65-.99-1.32-1.5-1.99.06-.75.02-1.48.17-2.15.45-2.06.65-4.17,1.28-6.19.07-.2-.1-.58-.29-.74-.18-.15-.51-.21-.76-.18-.27.03-.53.18-.78.31-2.86,1.46-5.73,2.93-8.67,4.43h0ZM108.72,356.33c-.52-1.48-1.06-2.47-1.78-3.37-.42-.54-1.4-.51-1.83.07-.17.22-.37.42-.51.67-.97,1.7-1.94,3.41-2.89,5.12-.52.93-.48,1.9.08,2.83,1.63,2.69,2.98,5.51,4.23,8.39.12.29.42.41.72.27.22-.11.51-.29.57-.51.32-1.07.7-2.14.67-3.3-.04-2.12.17-4.23.5-6.33.2-1.24.16-2.53.23-3.84h0ZM113.44,253.39c-.04-1.56-.05-3.12-.11-4.68-.02-.42-.18-.82-.3-1.23-.03-.08-.18-.16-.29-.16-.14,0-.29.04-.4.11-.12.07-.25.18-.3.29-1.4,3.53-2.83,7.06-4.19,10.59-.6,1.52-.57,3.05.31,4.51,1.28,2.09,2.05,4.4,3.09,6.6.24.51.54,1,.85,1.47.06.09.27.12.4.11.08,0,.22-.13.22-.21.05-1.27.08-2.54.11-3.81.05-1.7-.05-3.42.17-5.1.38-2.82.51-5.64.42-8.49h0ZM95.15,350.36c.47-2.04.85-4.25,2.05-6.21.73-1.18,1.26-2.5,1.87-3.76.18-.34.89-.38,1.05-.04,1.38,2.66,2.75,5.33,4.09,8.01.27.53.17,1.16-.13,1.64-1.34,2.15-2.73,4.26-4.13,6.36-.1.16-.5.14-.76.2-2.22-2.65-2.47-3.03-4.05-6.19h0ZM104.71,223.21c1.72-3.36,3.14-6.85,4.15-10.5.31-1.13.13-2.21-.42-3.28-.71-1.39-1.33-2.83-2-4.24-.42-.9-.85-1.8-1.35-2.67-.19-.34-.59-.58-.93-.9-.31.36-.7.62-.83.98-.85,2.4-1.33,4.86-1.23,7.44.12,3.11.17,6.22.26,9.32.02.56.11,1.12.15,1.56.59.97,1.06,1.86,2.2,2.29h0ZM110.55,216.38c.23.16.55.28.66.5.51,1.02.92,2.08,1.44,3.1.6,1.18.8,2.41.78,3.71-.03,1.41.1,2.83.14,4.24.09,2.97.17,5.95.22,8.92,0,.42-.06.85-.2,1.25-.07.23-.31.42-.53.57-.24.17-.53.09-.75-.16-.18-.21-.41-.43-.51-.68-1.21-2.91-2.75-5.65-4.26-8.41-.75-1.36-.85-2.72-.45-4.12.85-2.98,1.92-5.87,3.17-8.69.04-.1.18-.15.29-.23h0ZM96.48,326.19c.57,2.52,1.39,4.46,2.77,6.29.33-.28.74-.45.9-.76,1.66-3.23,3.3-6.47,4.92-9.73.24-.49.36-1.04.57-1.69-1.4-2.92-3.06-5.72-4.98-8.38-.21-.3-.96-.32-1.09-.03-1.02,2.17-1.7,4.43-1.88,6.84-.06.84-.06,1.69-.21,2.51-.29,1.65-.66,3.29-1,4.95h0ZM107.78,324.67c-.63-.31-1.09-.28-1.31.11-1.79,3.19-3.4,6.48-4.74,9.89-.31.8-.3,1.68.03,2.51,1.07,2.8,2.34,5.52,3.88,8.11.27.46,1.15.55,1.46.13.76-1,1.5-2.03,2.27-3.08.14-2.42.3-4.82.41-7.23.07-1.56.05-3.12.08-4.69.03-1.31-.32-2.54-.92-3.7-.39-.76-.83-1.49-1.15-2.05h0ZM106.1,287.35c-.69-.14-1.14-.51-1.43-1.01-1.07-1.86-2.13-3.74-3.16-5.62-.51-.92-.55-1.92-.31-2.91.95-3.98,2.04-7.93,3.43-11.78.12-.33.56-.55.95-.91,2.2,3.18,3.63,6.6,4.86,10.1.25.69.18,1.42-.05,2.1-.23.67-.5,1.32-.76,1.98-.89,2.23-1.75,4.46-2.67,6.67-.21.51-.58.95-.86,1.39h0ZM109.43,316.02c-.74.14-1.4.27-2.03.4-2.03-2.5-4.6-6.34-5.49-8.24-.31-.67-.33-1.38-.16-2.08.11-.41.21-.82.37-1.21,1-2.64,2-5.27,3.02-7.9.2-.54.53-.99,1.18-1.31.33.41.79.79,1.04,1.28,1.26,2.41,2.47,4.85,3.7,7.27.59,1.17.9,2.41.86,3.71,0,.14,0,.28,0,.43-.06,1.41.07,2.87-.18,4.24-.59,3.19-.35,6.52-1.39,9.64-1.05-.59-1.23-1.6-1.16-2.58.07-.83.46-1.63.58-2.46.06-.36-.22-.78-.35-1.19h0ZM111.04,243.53c-1.52,4.64-3.19,9.1-5.59,13.19-.36.04-.72.19-.88.08-1.16-.86-2.03-2-2.79-3.22-.22-.35-.39-.79-.42-1.2-.21-2.1-.73-4.21-.27-6.33.1-.41.12-.84.16-1.15.23-.69.84-.84,1.22-1.22.28-.28.64-.72.6-1.05-.34-2.59.55-5.04.71-7.57.06-1.09.56-2.15.9-3.35.48.27.98.39,1.13.67,1.83,3.71,4.06,7.23,5.24,11.15h0ZM105.1,133.38c-.99,1.43-2.12,2.72-2.58,4.39-.41,1.48-.77,2.97-1.17,4.51-.28-.21-.58-.32-.61-.48-.62-3.39-1.77-6.61-3.33-9.7-.44-.89-.79-1.84-1.15-2.76-.68-1.73-1.33-3.47-2-5.2-.41-1.07-.81-2.15-.83-3.31-.06-2.42-.11-4.83-.12-7.25,0-.23.23-.47.36-.7,1.15-.16,1.83.59,2.55,1.39.65,1.1-.1,2.53.79,3.64.45.54.7,1.26,1.46,1.61h2.22c1.75,1.2,2.24,3.44,3.55,5.11,1.08,2.72,1.42,5.51.86,8.75h0ZM104.39,385.88c-.11-.54-.18-1.1-.36-1.62-.42-1.19-.91-2.34-1.37-3.48.54-1.92,1.77-3.23,2.94-4.58.14-.15.51-.11.77-.16.47.58.67,1.27.58,1.96-.35,2.48-.78,4.94-1.18,7.41-.02.11-.16.2-.29.35h-1.2c.22.52.46,1.04.67,1.57.41,1.09.46,2.21.23,3.34-.11.51-.63,1.15-1.09,1.13-1.55-.06-3.1-.12-4.65-.27-.35-.04-.74-.42-1-.73-.67-.85-.9-1.86-.41-2.79.84-1.61,1.81-3.15,2.75-4.7.28-.47,1.08-.37,1.43.15.47.7.91,1.44,1.42,2.12.14.18.5.2.75.29h0ZM88.31,123.02c.06.42.21.84.62.27.13-.18-.21-.43-.54-.37-.04-.45-.24-.83-.63-1-1.03-.46-1.97-1.02-2.86-1.74-.97-.79-2.1-1.39-3.2-2.03-.17-.1-.56,0-.72.14-.17.15-.26.5-.21.72.11.57.49,1.01,1.03,1.25,2.02.93,4.06,1.85,6.1,2.76.11.05.27,0,.42,0h0ZM154.7,34.27c-.67-.1-1.36-.17-1.92.28-.29.24-.48.58.03.92.46-.21.97-.39,1.41-.66.19-.11.27-.42.39-.63.1-.03.22-.03.31-.08.07-.03.08-.12.12-.19-.11.12-.23.24-.34.35h0ZM150.46,116.09c.7.2,1.39.16,2.06-.07.31-.11.49-.32.36-.64-.08-.21-.34-.53-.48-.51-.82.11-1.67.25-1.86,1.3-.12.03-.26.04-.35.11-.05.04-.05.16-.07.25.26.05.37-.1.34-.43h0ZM137.33,100.74c.78.06,1.29-.48,1.89-.81,1.12-.61,2.13-1.42,3.32-1.85,2.55-.93,4.79-2.35,7.07-3.94,1.03-.21,2.12-.47,3.24-.62.39-.05.84.14,1.21.33.54.27.81.77.85,1.39-.28.68-.75,1.22-1.47,1.4-3.5.86-6.38,2.89-9.42,4.65-3.05,1.78-5.86,3.88-8.7,5.95-.79.58-1.45,1.33-2.22,1.95-1.38,1.11-2.2,2.52-2.43,4.3-.03.25-.28.48-.44.75-.62.21-1.27.44-2.03.7-.83,1.03-1.39,2.32-1.98,3.58-.05.09.05.27.13.36.06.06.26.07.32.02,2.19-1.75,4.37-3.53,6.85-4.89,1.36-.75,2.73-1.47,4.12-2.15,2.18-1.07,4.06-2.51,5.67-4.32.93-1.05,1.94-2.04,2.88-3.08,1.04-1.16,2.26-2.09,3.56-2.96,1.67-1.13,3.42-1.95,5.45-1.71,1.87-1.18,3.61-2.4,5.67-3,1.19-.35,2.25-.21,2.91,1,.02.82-.39,1.38-.97,1.81-.44.33-.94.61-1.44.86-3.09,1.53-5.7,3.61-7.67,6.44-.72,1.04-1.86,1.74-2.33,2.98-.1.28.28,1,.58,1.01.14,0,.29.05.42.03,2.25-.38,4.31-1.09,6.13-2.58,3.05-2.48,6.03-5.06,9.33-7.22,1.18-.77,2.32-1.6,3.51-2.34.98-.62,2.1-.82,3.25-.76.58.03,1.1.23,1.55.64.65.58.53,1.84-.23,2.15-.13.05-.25.15-.38.18-2.74.55-4.83,2.28-6.85,3.98-2.26,1.89-4.64,3.65-6.61,5.89-.81.93-2.01,1.5-3.02,2.26-.68.51-1.27,1.11-1.63,1.91-.14.31.08,1.02.39,1.1.96.27,1.87.53,2.92.32,3.57-.73,7.06-.05,10.5.99.41.12.78.36,1.16.56.58.31,1.06,1.27.91,1.81-.19.7-1.3,1.37-2.02,1.22-.28-.06-.59-.07-.82-.2-2.39-1.32-4.91-1.35-7.49-1.03-1.11.14-2.24.15-3.34.28-.18.02-.39.41-.42.65-.04.24.1.53.21.78.23.52.52,1.01.73,1.54.21.5-.12,1.25-.59,1.41-.93.33-1.89.64-2.87.18-1.21-.57-2.48-.67-3.75-.78-1.56-.12-3.13-.23-4.68-.46-2.02-.29-3.95,0-5.86.61-1.51.49-1.51.48-3.41.3-1.52.86-2.71,2.27-4.11,3.42-.13.1-.05.49,0,.73.02.08.26.19.36.17,1.93-.46,3.9-.63,5.9-.59,1.27.03,2.54-.1,3.79-.46,2.02-.6,4.21-.49,6.25-1.17.46-.15,1.12.09,1.63.3.54.23.87.73.92,1.34.06.59-.57,1.49-1.11,1.63-.28.06-.54.18-.82.2-2.98.16-5.88.78-8.79,1.39-2.36.49-4.75.78-7.12,1.21-1.41.25-2.72.74-3.69,1.88-.16.19-.49.23-.75.34-.82-.14-1.65-.28-2.48-.43-.38.31-.75.53-1.02.83-1.08,1.29-2.13,2.6-3.18,3.93-.21.27-.11.56.15.7.12.06.29.17.38.13,2.25-.9,4.68-.97,7.04-1.36,2.08-.34,4.24-.22,6.37-.31,1.41-.06,2.81-.19,4.21-.45,2.49-.45,5.04-.67,7.57.26.53.19,1.12.3,1.67.27,2.34-.11,4.48.71,6.66,1.37,1.24.37,2.46.8,3.71,1.05,3.57.72,6.74,2.31,9.72,4.37,1.65,1.15,3.26,2.31,5.11,3.16,1.83.84,3.42,2.13,4.65,3.77,1.12,1.51,2.46,2.79,3.93,3.91.55,1.23,1.1,2.4,1.61,3.58.52,1.18,1.05,2.33,1.83,3.4,1.28,1.77,1.98,3.82,2.27,5.96.42,3.11.54,6.24.31,9.37-.06.84-.29,1.66-.49,2.48-.06.25-.33.44-.53.65-.49.53-1.54.46-1.84-.16-.36-.77-.62-1.57-.98-2.52-.76-.39-1.63-.85-2.63-1.36-.13-.47-.36-1-.4-1.55-.04-.7.02-1.43.16-2.11.28-1.4.55-2.79.18-4.22-.65-2.62-.78-5.37-2.28-7.77-1.06-1.7-2.02-3.46-2.96-5.09-.59-.18-1.12-.1-1.04.37.34,2.1.89,4.19,1.18,6.29.45,3.13.18,6.23-.54,9.21-1.5,1.14-1.89,1.06-3.05-.55.15-1.25.4-2.5.42-3.75.03-1.7,0-3.42-.24-5.11-.28-1.97-.71-3.93-1.25-5.85-.42-1.5-1.09-2.94-1.75-4.68-.4-.32-.94-.79-1.52-1.23-.92-.71-1.66-1.57-2.23-2.59-.36-.64-.93-1.08-1.62-1.36-.11-.05-.28-.04-.4.02-.09.05-.23.24-.2.3.33.78.6,1.61,1.06,2.33,1.12,1.71,1.76,3.54,2.25,5.52,1.12,4.49,1.16,9.02,1.04,13.56-.03.9-.49,1.58-1.28,2.06-.82.51-1.73.07-2.04-.8-.15-.39-.24-.84-.2-1.25.06-.7.27-1.38.39-2.08.28-1.55.25-3.11-.11-4.66-.55-2.35-1.13-4.7-1.7-7.06-.1-.41-.23-.83-.42-1.21-.97-1.92-1.91-3.84-3.1-5.66-.41-.18-.79-.48-1.17-.5-1.54-.06-2.32-.93-2.7-2.31-.16-.55-.27-1.14-.84-1.42-.22-.11-.58-.19-.74-.08-.18.13-.33.51-.28.72.11.4.39.76.59,1.13.77,1.38,1.59,2.73,2.27,4.15,1.51,3.1,2.71,6.31,3.28,9.72.3,1.81,1.08,3.57.91,5.46-.05.42,0,.86-.11,1.27-.15.55-.48,1-.96,1.35-.74.54-1.92.19-2.07-.65-.12-.7-.22-1.4-.3-2.11-.12-1.27-.39-2.52-.66-3.78-.81-3.66-2.02-7.14-3.97-10.37-.16-.25-.32-.48-.43-.75-1.29-3.15-3.37-5.65-6.81-7.69-.94-.36-2.46-.77-4.05-.62-.22.02-.52.24-.59.45-.09.22-.06.6.08.78.45.55.91,1.13,1.5,1.53,1.56,1.09,2.71,2.55,3.85,4.03,2.05,2.62,3.72,5.44,4.99,8.51.67,1.62,1.09,3.25,1.06,4.98-.02,1.13-.04,2.27-.08,3.41-.02.47-.61.97-1.17,1.01-.75.06-1.44-.15-1.87-.79-.4-.59-.68-1.25-1.08-2,.17-.75.36-1.55.59-2.56-.61-2.63-1.69-5.25-3.36-7.63-2.16-3.06-4.34-6.09-7.82-7.85-.61-.31-1.08-.94-1.53-1.48-.36-.43-.61-.94-.81-1.26-1.15-.63-2.12-.4-3.1-.24-.33.05-.33.05-.54,1,2.52,2.55,4.56,5.45,6.15,8.72.86,1.79,1.9,3.51,2.85,5.28.94,1.81,1.42,3.74,1.57,5.75.06.72-.08,1.42-.52,2.01-.33.45-.7.89-1.37.83-.62-.05-1.47-.71-1.61-1.24-.07-.27-.23-.56-.2-.82.27-2.24-.6-4.19-1.67-6.09-.42-.75-.85-1.49-1.28-2.23-.29-.49-.69-.96-.85-1.48-.62-1.98-1.79-3.57-3.27-4.97-.92-1.78-2.6-2.6-4.23-3.49-.15-.65-.25-1.33-.45-1.97-.14-.46-.81-.69-1.4-.49-.19.06-.45.41-.41.55.35,1.14,1.06,1.87,2.35,1.8.17.68.23,1.42.53,2.05.86,1.81,1.85,3.57,2.73,5.36.96,1.92,1.89,3.85,2.79,5.8.73,1.57,1.24,3.21,1.3,4.94.02.41-.12.83-.22,1.24-.13.45-.92.81-1.4.7-.75-.18-1.38-.61-1.65-1.27-1.04-2.53-2.51-4.83-3.86-7.2-1.35-2.38-3.04-4.53-5.04-6.41-1.75-1.65-3.81-2.47-6.13-2.32-2.33,1.73-3.1,4.14-3.3,6.72-.25,3.11-.28,6.26.37,9.36.55,2.67.77,5.35.88,8.05.09,2.27.23,4.54.14,6.81-.07,1.69.07,3.43.38,5.1.58,3.12.65,6.22.37,9.34-.06.7-.13,1.42,0,2.1.38,1.99.26,3.95.06,5.94-.14,1.4-.11,2.84-.03,4.25.07,1.13.26,2.25.1,3.39-.07.55.03,1.14.11,1.7,1.17,7.78,1.28,15.58.88,23.39-.09,1.7-.34,3.38-.53,5.07-.29,2.83-.27,5.67.02,8.5.46,4.55.13,9.09.09,13.64-.02,2.82-.57,5.63-.89,8.44-.05.42-.18.83-.2,1.25-.19,3.68-.39,7.36-.56,11.04-.16,3.25.18,6.55-.7,9.73-.04.13-.03.28-.04.42-.23,4.39-.61,8.78-.65,13.17-.04,3.56-.28,7.08-.86,10.57-.22,1.4-.27,2.82-.47,4.22-.56,3.94-.69,7.89-.7,11.87,0,1.97-.39,3.95-.75,5.89-.7,3.76-.82,7.6-1.22,11.4-.19,1.83-.39,3.67-.55,5.5-.09.99-.23,1.98-.18,2.97.12,2.84-.3,5.67.03,8.52.06.56.06,1.15-.06,1.7-.58,2.94-.41,5.94-.45,8.91-.04,1.84,0,3.68-.39,5.51-.2.96-.12,1.97-.16,2.96-.05.99-.07,1.98-.1,2.81-.22.4-.3.72-.5.87-.99.72-1.4,1.75-1.64,2.88-.22,1.11-.32,2.24-.54,3.35-.18.93-1.37,1.81-2.23,1.57-2.93-.8-5.87-.87-8.87-.78-2.25.06-4.52-.36-6.98-.59-1,.38-2.18.84-3.23,1.25-1.08.01-1.76-.49-2.36-1.15-.72-.8-.95-1.76-.79-2.78.09-.55.24-1.11.46-1.62.56-1.3,1.08-2.59,1.06-4.06,0-.54.36-1.06.45-1.62.31-2.08,1.16-4.07.87-6.26-.06-.55.05-1.13.13-1.69.43-2.79.93-5.58,1.31-8.38.31-2.38.49-4.79.73-7.18.13-1.27.18-2.55.43-3.79.22-1.12.33-2.24.3-3.38-.06-1.72.16-3.38.54-5.06,1-4.42,1.47-8.92,1.85-13.45.28-3.39.53-6.78.62-10.19,0-.42.06-.85.04-1.28-.18-4.7.4-9.33.99-13.96.4-3.22.88-6.46.75-9.75-.03-.71.08-1.41.12-2.12.17-2.97.48-5.93.42-8.92-.04-1.56.06-3.13.32-4.66.25-1.54.33-3.09.41-4.65.15-3.12.39-6.23.56-9.34.1-1.84.17-3.69.24-5.53.02-.57-.06-1.15.05-1.7.71-3.65.38-7.35.38-11.04,0-1.28.04-2.56,0-3.84-.12-3.85.69-7.61.91-11.43.07-1.27.26-2.53,0-3.81-.11-.55-.09-1.12-.07-1.69.06-2.84.18-5.67.2-8.52.04-6.67-.09-13.35-.28-20.03-.07-2.55-.18-5.12.18-7.66.24-1.7.19-3.4-.16-5.1-.23-1.13-.17-2.24-.08-3.38.16-1.83.25-3.68.19-5.53-.12-3.7-.17-7.38-.04-11.08.08-2.54-.1-5.1-.04-7.65.02-.85.1-1.69.18-2.88-.39-1.3-1.32-2.76-1.85-4.4-.44-1.4-.77-2.72-.53-4.16.07-.41.05-.85.03-1.27-.05-.74-.38-1.36-.88-1.91-.79-.9-1.81-1.38-3.04-1.72-.37.42-.82.78-1.09,1.25-.77,1.34-1.43,2.74-2.19,4.09-.35.63-.91,1.05-1.63,1.26-.53.15-1.16,0-1.51-.51-.23-.33-.51-.82-.42-1.14.25-.95.61-1.87,1.03-2.76.42-.89.97-1.71,1.4-2.59.09-.2.02-.57-.12-.77-.13-.21-.43-.31-.71-.48-2.65,2.16-4.62,4.84-6,7.98-.34.77-.56,1.61-1.28,2.14-.19.14-.54.22-.79.16-1.19-.31-1.87-1.43-1.65-2.61.29-1.56.93-2.96,1.84-4.23.73-1.03,1.5-2.04,2.22-3.08.24-.33.41-.72.59-1.07-.23-.23-.39-.51-.59-.57-1.18-.33-2.26-.03-3.23.63-.94.64-1.76,1.41-2.31,2.42-1.22,2.21-2.73,4.27-3.5,6.72-.18.56-.62.93-1.2,1.13-1.15-.19-1.6-1.05-1.96-2.16.61-3.33,2.88-5.95,4.39-8.94-.86-1.14-1.95-1.22-3.08-.94-.34.08-.73.48-.85.83-.24.68-.51,1.3-.99,1.84-3.04,3.37-5.46,7.13-7.02,11.43-.24.66-.52,1.31-.69,1.99-.18.67-.23,1.38-.33,2.05-.43.27-.76.55-1.15.69-1,.35-2.12-.51-2-1.5.33-2.84,1.14-5.53,2.44-8.05.78-1.5,1.65-2.95,2.47-4.43.62-1.11,1.2-2.23,1.79-3.35.19-.34-.17-.97-.53-.96-1.27.06-2.54.12-3.82.2-.54.03-1.2.51-1.2,1.01-.02,1.51-.69,2.71-1.55,3.85-.59.79-1.12,1.63-1.74,2.39-2.43,2.98-4.18,6.32-5.33,10-.17.53-.39,1.08-.74,1.49-.23.27-.75.47-1.1.42-.36-.05-.83-.4-.96-.73-.18-.51-.24-1.13-.15-1.66.79-4.22,2.43-8.1,4.78-11.66.78-1.17,1.59-2.31,2.05-3.65.04-.12.03-.35-.05-.4-.22-.17-.49-.39-.73-.38-1.16.03-2.12.7-3.15,1.09-.33.13-.73.63-.72.96.06,1.87-.86,3.23-2.04,4.49-1.66,1.75-2.85,3.84-4.02,5.92-1.31,2.33-2.56,4.7-3.78,7.08-.44.87-.66,1.85-1.06,2.75-.23.5-.59.95-.91,1.4-.18.25-.91.44-1.16.24-.31-.26-.61-.59-.8-.94-.12-.22-.07-.57-.02-.83.44-1.78.71-3.64,1.4-5.31,1.39-3.38,2.81-6.76,5.09-9.69.86-1.11,1.59-2.32,2.35-3.5.14-.22.16-.53.27-.89-.4-.09-.84-.33-1.16-.23-2.02.61-4.03,1.3-6.03,1.98-.53.18-1.02.43-1.62.69.2.76.37,1.42.54,2.09-.07.89-.53,1.61-1.07,2.25-1.36,1.62-2.57,3.34-3.58,5.21-.2.37-.42.75-.67,1.07-2.45,3.05-3.57,6.66-4.18,10.47-.18,1.15-.44,2.21-1.45,2.89-.86-.11-1.27-.67-1.37-1.43-.31-2.89.11-5.69,1.16-8.33,1.15-2.87,2.49-5.68,3.73-8.51.38-.38.77-.75,1.13-1.14.36-.41.58-.89.47-1.47.41-.1.5-.21.24-.26-.03,0-.09.22-.15.35-.9.09-1.3.72-1.52,1.48-.1.36-.04.76-.06,1.15-.41.08-.95.03-1.2.27-1.4,1.37-2.83,2.73-4.07,4.24-2.53,3.06-4.34,6.53-5.5,10.36-.61,2.02-1.51,3.95-1.77,6.09-.11.84-.57,1.58-1.19,2.19-.3.3-.8.47-1.13.31-.41-.19-.72-.5-.79-.94-.06-.41-.11-.86-.03-1.26.34-1.66.79-3.3,1.1-4.97.19-.96.2-1.95.3-2.78-.53-.69-1.08-.66-1.65-.58-.58.08-1.12.31-1.43.79-.55.82-1.05,1.66-1.52,2.53-1.06,1.98-2.1,3.98-3.11,5.98-.9,1.77-1.34,3.69-1.51,5.52-1.5,1.31-1.76,1.28-2.82-.03-.04-.28-.14-.56-.1-.83.45-3.4,1.49-6.64,2.9-9.71,1.65-3.58,3.65-7,6.05-10.13,1.54-2.02,3.61-3.54,6-4.52.64-.26,1.37-.27,2.12-.41.91-1.09,1.9-2.11,2.65-3.28.78-1.22,1.8-2.15,2.9-3.03,2.3-1.87,4.81-3.43,7.5-4.69,1.27-.6,2.59-1.13,3.95-1.45,1.65-.39,3.25-.93,4.88-1.41,4.74-1.41,9.49-2.76,14.48-3.12.56-.04,1.12-.18,1.66-.31,1.52-.36,3.07-.49,4.64-.52,1.14-.02,2.26-.23,3.39-.3.7-.04,1.41-.07,2.11.04,1.85.3,3.7.39,5.52.1,2.73-.43,5.43-.13,8.05.54,4.82,1.25,9.62,2.67,14.34,4.54,1.35-.47,1.76-1.62,1.93-2.92.05-.33-.12-.56-.42-.68-.13-.05-.26-.17-.39-.17-2.46.15-4.81-.56-7.13-1.22-1.54-.44-3.03-.77-4.61-.64-.28.03-.56-.03-.84-.05-.81-.06-1.41-1.14-1.08-1.96.22-.54.54-1,1.07-1.24.52-.23,1.09-.32,1.59-.56.17-.09.26-.42.32-.66.03-.08-.14-.25-.26-.32-.51-.26-1.02-.5-1.64-.8-1.59.39-3.23.8-4.88,1.17-1.02.24-1.98.04-2.84-.6-.39-.29-.48-1.15-.26-1.56.42-.81,1.37-.92,1.99-1.56-.26-.32-.46-.75-.79-.96-.97-.61-1.96-1.21-3-1.67-1.21-.53-2.49-.6-3.73-.1-1.56.64-3.11,1.29-4.7,1.87-.57.21-1.1-.16-1.52-.56-.36-.35-.43-1.3-.14-1.59.4-.39.82-.74,1.25-1.11.42-.37.88-.69,1.24-1.1.12-.14,0-.49,0-.87-.66-.23-1.32-.48-2-.69-1.57-.5-3.07-.42-4.54.34-2.37,1.23-4.94,2.11-6.76,3.99-1.34.44-2.54.84-3.75,1.21-.4.12-.85.25-1.24.17-.38-.08-.77-.37-1.04-.67-.14-.15-.09-.55,0-.8.3-.85.96-1.39,1.75-1.73,2.22-.95,4.12-2.42,6.23-3.55.23-.12.44-.37.55-.61.09-.24.14-.59.03-.81-.33-.66-.9-1.08-1.63-1.29-.63-.18-1.17,0-1.41.55-.1.25-.07.59-.21.81-.23.33-.51.78-.85.85-1.51.33-3,.86-4.52,1.08-3.11.45-5.51,2.03-7.68,4.11-.3.29-.6.6-.93.85-.21.16-.5.25-.75.36-.58.24-1.51,0-1.96-.51-.4-.44-.41-1.51.02-1.97,1.44-1.55,2.92-3.02,4.79-4.08,2.12-1.19,4.34-1.99,6.74-2.36.21-.03.39-.3.55-.48.21-.24-.27-.71-.8-.79-.14-.02-.28-.07-.42-.08-.85-.07-1.7-.13-2.66-.2-.95.45-1.99.9-2.97,1.42-.79.41-1.62.49-2.48.35-1.26-.21-2.49-.5-3.79-.61-3.32-.27-6.5.31-9.7.94-1.25.25-2.48.54-3.78.51-.62-.02-1.08-.29-1.45-.77-.61-.78-.37-1.9.48-2.1,3.3-.78,6.58-1.65,10.04-1.61,1.7.02,3.39-.04,5.09-.14.45-.03.59-.51.63-1.02-1.16-1.1-2.64-1.69-4.18-1.97-1.89-.36-3.44-1.35-5.03-2.33-.22-.13-.36-.43-.53-.66-.2-.27-.15-.92.07-1.19.36-.46.79-.77,1.38-.9,1.02-.22,1.99-.07,2.92.37,1.42.67,2.93,1.23,4.24,2.07,1.94,1.24,4.17,1.9,6.07,3.2.71.49,1.61.58,2.38,0,.03-.81-.53-1.29-1.05-1.73-1.77-1.46-3.6-2.85-5.64-3.92-.76-.4-1.51-.82-2.24-1.28-.83-.51-1.26-1.47-1.01-2.16.31-.88,1.55-1.32,2.51-.82,2.04,1.04,4,2.23,5.9,3.53,2.52,1.72,4.49,4,6.55,6.2.58.62,1.2,1.23,1.88,1.75.31.24.79.28,1.19.36.42.08.89-.4.77-.76-.14-.4-.22-.84-.44-1.19-1.73-2.65-3.57-5.21-6.28-7-.69-.46-1.23-1.19-1.75-1.86-.26-.32-.3-.79-.09-1.21.24-.47.93-.88,1.39-.72.67.23,1.41.4,1.96.81,2.75,2.08,5.37,4.3,6.98,7.47.84,1.66,1.84,3.24,2.79,4.85.59,1.02,1.42,1.75,2.58,2.15,2,.7,4.07,1.06,6.07,1.58.45-.72-.02-1.2-.28-1.61-1.16-1.82-2.2-3.72-2.97-5.72-.67-1.75-1.49-3.39-2.48-4.98-.14-.22-.12-.54-.18-.81.31-.73.9-1.1,1.65-1.11.74,0,1.37.41,1.83.98.36.44.68.93.95,1.43.42.75.77,1.52,1.07,2.14.65.48,1.22.65,1.75.38,1.58-.8,3.3-.77,5-.76.7,0,1.43.11,2.1.31,2.46.75,4.95,1.39,7.25,2.64,1,.54,2.09.9,3.13,1.33.17-.28.45-.58.4-.72-.48-1.03-.93-2.09-1.57-3.03-.89-1.3-1.93-2.49-2.84-3.64-.98-.56-1.83-1.1-2.74-1.54-1.42-.71-2.91-1.14-4.53-.98-2.41.24-4.83-.42-7.22-.2-2.25.2-4.47.75-6.75.75-.91,0-1.66-.24-2.23-1.01-.45-.61-.41-1.38.1-1.91.62-.64,1.36-1.05,2.23-1.09,2.26-.1,4.54-.15,6.81-.17,2.98-.03,5.97,0,8.95-.03.18,0,.37-.32.49-.53.06-.08-.04-.29-.12-.4-.17-.23-.33-.48-.57-.62-.36-.21-.77-.34-1.17-.48-.4-.14-.79-.26-1-.32-.7-.47-.89-1.01-1.04-1.56-.23-.85-.73-1.55-1.3-2.2-.6-.67-1.32-1.18-2.17-1.31-2.82-.42-5.57-1.17-8.44-1.24-2.69-.06-5.39-.45-8.07-.72-1.03-.1-1.88-.61-2.67-1.27-.27-.22-.2-.93.08-1.12,1.61-1.05,3.4-1.38,5.28-.97,2.25.49,4.52.66,6.79.75.29,0,.56-.05.85-.06.34-.02.6-.69.38-1.02-.32-.47-.59-1-.99-1.39-1.44-1.4-2.9-2.79-4.42-4.1-.53-.46-1.22-.82-1.88-.99-1.8-.45-3.62-.79-5.45-1.11-1.71-.3-3.39-.1-5.04.39-1.7.51-3.12,1.3-3.73,3.1-.08.23-.36.4-.55.61-1.33-.58-1.84-1.75-2.09-3.03-.18-.92.3-1.66.94-2.24,1.16-1.07,2.56-1.75,4.12-2.04.97-.19,1.96-.26,2.95-.39.55-.07,1.11-.15,1.56-.21.3-.49.49-.88.08-1.22-.32-.27-.68-.57-1.07-.68-1.11-.31-2.23-.52-3-.7-2.32.2-4.3.51-6.27.52-2.2.01-4.19.47-6.03,1.64-.47.29-1.04.41-1.59.62-.4-.21-.83-.36-1.14-.62-.62-.55-.71-1.33-.3-1.92.32-.45.65-.94,1.06-1.29.64-.54,1.37-.97,2.15-1.51-.3-.28-.54-.7-.86-.79-2.22-.58-4.45-1.03-6.74-1.14-.43-.02-.86-.03-1.28-.08-1.32-.16-2.53.13-3.65.84-.35.22-.77.35-1.11.52-.98-.21-1.44-.9-1.85-1.69-.39-.78.07-2.47,1.33-2.71,1.11-.21,2.25-.28,3.38-.41.55-.07,1.12-.11,1.68-.19.11-.01.22-.12.42-.23-.25-.34-.42-.8-.75-.96-.77-.38-1.59-.64-2.41-.9-1.09-.34-2.2-.61-3.29-.95-2.05-.64-4.09-1.31-6.27-1.13-1.16.1-2.24-.38-3.36-.56-.41-.06-.84.01-1.26.08-.74.11-1.07.99-.63,1.61.32.45.71.88.99,1.36.17.28,0,.58-.28.72-.12.05-.27.05-.4.04-.14-.01-.31-.03-.4-.11-1.22-1.22-2.44-2.42-4.02-3.18-.13-.06-.2-.21-.31-.3-.61-.51-.55-1.84.1-2.26,1.06-.7,2.2-1.24,3.51-1.62,3.08,0,6.13.66,9.19,1.35.2.04.47-.16.66-.3.06-.04.02-.3-.05-.41-.23-.36-.44-.76-.77-1.03-.66-.56-1.39-1.02-2.06-1.55-.56-.44-1.12-.91-1.64-1.4-.41-.39-.84-.88-.69-1.47.21-.87.85-1.45,1.7-1.73.25-.09.56-.05.83.02.27.07.53.22.77.37,2.59,1.54,5.15,3.14,7.77,4.61,2.03,1.13,3.84,2.51,5.44,4.19,1.3,1.36,2.74,2.54,4.39,3.45.24.14.52.32.77.32.25,0,.5-.19.71-.35.09-.06.13-.27.1-.39-.08-.27-.18-.54-.33-.76-1.63-2.36-3.23-4.75-4.94-7.05-.77-1.03-1.79-1.86-2.66-2.81-.87-.94-1.9-1.22-3.1-.99-.13.03-.28-.05-.51-.1-1.05-.65-1.74-1.74-2.38-2.85-.12-.21-.03-.54-.04-.81,1.11-1.01,2.4-.93,3.63-.45,1.73.67,3.34,1.6,4.7,2.95,1.85,1.83,3.44,3.87,4.88,6.02,1.67,2.5,3.21,5.09,5.06,7.48.73.94,1.58,1.67,2.62,2.18,1.67.82,3.36,1.59,5.06,2.34.19.09.52-.09.76-.19.06-.03.12-.25.08-.34-.24-.68-.46-1.36-.76-2.01-1.21-2.59-2.42-5.18-3.29-7.91-.53-1.63-1.33-3.16-2.39-4.56-.6-.8-1.13-1.66-1.65-2.52-.43-.71-.2-1.66.51-2.28.4-.35,1.26-.39,1.57-.05,1.78,1.9,3.37,3.92,4.35,6.35,1.23,3.05,2.42,6.12,3.64,9.16.64,1.59,1.31,3.18,1.97,4.76.91,2.19,2.39,3.9,4.32,5.24.18.12.5.05.73-.01.09-.02.2-.22.2-.34,0-.42.04-.86-.06-1.27-1.17-4.88-2.94-9.55-5.18-14.05-.19-.39-.4-.76-.64-1.12-.73-1.09-1.6-1.95-2.94-2.36-1.13-.35-1.39-1.88-.63-2.85.37-.48.91-.71,1.49-.59.54.12,1.1.36,1.54.69,1.4,1.04,2.56,2.34,3.46,3.81,1.19,1.95,2.35,3.93,3.06,6.14.56,1.77,1.29,3.49,1.9,5.24.24.67.36,1.37.53,2.07.58,2.5,1.16,5,1.75,7.5.24,1.03.89,1.78,1.71,2.4.11.08.33.15.41.09.18-.14.46-.36.45-.53-.08-.85-.14-1.72-.4-2.52-1.28-3.94-2.18-8-4.21-11.68-.06-.12-.07-.28-.12-.41-.22-.59.18-1.42.84-1.77.41-.22,1.31-.09,1.6.23.28.32.62.63.79,1.01.99,2.22,2.1,4.42,2.85,6.71.86,2.57,1.43,5.23,2.05,7.87.45,1.94.79,3.91,1.15,5.62,1.02,1.93,2.37,3.2,4.01,4.15.19.11.52.02.81.02.65-2.62-.59-5.06-.84-7.58-.24-2.43-1.3-4.66-1.92-6.88.19-.37.27-.67.45-.86.77-.81,2.02-.67,2.53.24.2.37.42.75.53,1.15.78,2.6,1.52,5.19,2.3,7.86.37.14.75.36,1.15.42,1.09.18,1.87.8,2.29,1.76,1.19,2.75,2.49,5.47,3.04,8.45.31,1.7.44,3.39.46,5.1,0,1.48.44,2.82,1.34,3.99.88,1.13,1.81,2.22,2.72,3.32.06.08.27.07.41.07.27-.01.5-.21.45-.54-.34-2.69-1.16-5.28-2.01-7.86-.22-.67-.43-1.35-.62-2.04-.13-.47.31-1.15.82-1.3.49-.14,1.35.03,1.6.32.93,1.13,1.53,2.43,1.9,3.81.63,2.34,1.21,4.7,1.75,7.06.19.83.22,1.69.3,2.54.12,1.42.18,2.84.33,4.26.05.41.25.82.44,1.2.12.24.36.42.55.64.1-.21.3-.41.29-.61-.06-1.27-.02-2.56-.44-3.81-.09-.27-.17-.54-.21-.82-.2-1.03.82-2.07,1.77-1.77,1.09.33,2.16.72,3.56,1.18,1.92,1.41,3.87,3.33,6.05,4.96,1.36,1.02,2.37,2.49,3.55,3.75.29.3.66.52,1.06.84.4-1.53.08-2.93-.25-4.31-.19-.84-.49-1.64-.78-2.46-.49-1.39-1.36-2.41-2.61-3.3-2.36-1.66-4.8-3.14-7.34-4.48-.89-.46-1.93-.45-2.77-1.11-.79-.63-1.19-1.6-.84-2.64.19-.59.65-.88,1.24-1,3.98,1.27,7.35,3.76,10.99,5.75.15-.17.28-.26.32-.38.04-.12.05-.31-.03-.4-.46-.54-.88-1.13-1.42-1.57-2.79-2.25-5.33-4.82-8.43-6.67-.26-.16-.94.02-1.13.32-.21.35-.34.77-.62,1.07-.12.14-.64.16-.75.03-.75-.86-1.99-3.18-2.26-4.06-.11-.39.31-1.24.76-1.39.39-.14.8-.26,1.22-.3.86-.08,1.7.13,2.49.49,2.22,1.01,4.39,2.1,6.07,3.97.47.51,1.13.86,1.71,1.26.1.07.34.09.41.03.17-.18.43-.42.41-.63-.05-.85-.17-1.7-.33-2.54-.2-1.12-.5-2.22-.67-3.35-.2-1.34-.85-2.42-1.85-3.31-.54-.47-1.08-.99-1.71-1.3-2.45-1.18-4.91-2.36-7.58-2.96-.71-.16-1.41-.08-2.07.24-.38.18-.77.37-1.16.5-.92.29-2.02-.76-1.87-1.75.09-.59.34-1.1.8-1.43.93-.67,1.99-1.07,3.16-1.03,1.87.07,3.68.46,5.4,1.22,1.16.51,2.32,1.08,3.44,1.6.5-.31.55-.72.32-1.11-.21-.37-.52-.69-.83-.97-1.27-1.17-2.61-2.26-3.83-3.47-1.67-1.63-3.64-2.8-5.62-3.96-.62-.36-1.3-.61-1.99-.82-1.47-.45-2.81-.37-3.78,1.01-.07.1-.24.14-.42.22-1.12-.75-1.48-1.99-2-3.03-.09-.78.39-1.13.88-1.38.5-.25,1.06-.44,1.61-.49,2.92-.22,5.66.45,8.16,2.03,1.1.69,2.1,1.52,3.16,2.25.33.23.74.35,1.22.57.07-.49.3-.95.18-1.28-.92-2.4-1.87-4.8-2.89-7.16-.2-.47-.73-.97-1.22-1.15-1.87-.7-3.57-1.83-5.55-2.26-.96-.21-1.85-.75-2.78-1.14-1.38-.58-2.75-.69-4.13-.04-.23.11-.55.16-.8.11-.24-.05-.56-.22-.67-.43-.88-1.62-.06-3.28,1.64-3.51,2.17-.3,4.25-.04,6.24.97,1.02.52,1.92,1.3,3.09,1.46.22.03.49-.17.69-.32.07-.04.05-.26.03-.39-.49-1.79-1.73-2.93-3.35-3.68-.65-.3-1.38-.38-2.03-.65-1.87-.75-3.8-1.28-5.75-1.64-1.62-.3-2.94-1.06-4.26-1.91-.31-.2-.41-.72-.58-1.04.25-.59.5-1.1,1.08-1.32.54-.21,1.15-.3,1.65-.02,1.53.87,3.32.79,4.91,1.41.65.25,1.36-.61,1.14-1.33-.24-.82-.52-1.63-.82-2.42-.59-1.56-1.65-2.68-3.24-3.24-1.21-.43-2.43-.85-3.67-1.17-1.84-.46-3.5-1.27-5.01-2.39-.45-.34-.81-.79-1.19-1.22-.35-.41-.34-1.11,0-1.58.35-.5.85-.78,1.44-.67.54.1,1.1.32,1.6.58,1.02.52,1.99,1.12,3.01,1.62.17.08.48-.17.86-.31-.38-.63-.73-1.23-1.1-1.83-.65-1.05-1.57-1.62-2.82-1.71-2.84-.19-5.67-.35-8.48-.92-.57-.12-1.11-.27-1.52-.72-.3-.32-.51-.66-.45-1.13.06-.36.41-.83.77-.88.7-.1,1.4-.25,2.11-.24,1.14.02,2.27.17,3.41.21.55.02,1.11-.08,1.79-.13-.34-1.81-1.72-2.69-2.73-3.95-1.1-.25-2.2-.54-3.31-.75-1.19-.22-2.24-.07-2.97,1.08-.3.47-1.03.18-1.38-.39-.45-.76-.68-1.56-.68-2.44,0-.53.35-1.13.86-1.33.4-.15.81-.24,1.2-.39.39-.15.76-.35,1.07-.49.19-.72-.17-1.14-.57-1.55-.42-.43-.94-.75-1.51-.71-.83.06-1.66.27-2.5.42-.68.13-1.37.37-2.07.41-.57.03-1.06-.29-1.37-.85-.22-.44-.17-1.28.2-1.59.43-.35.9-.68,1.39-.92.63-.3,1.32-.48,1.98-.73.3-.12.47-.83.31-1.11-1.09-1.88-2.64-3.4-4.05-5.01-1.04-1.18-2.28-2.19-3.47-3.23-1.22-1.05-2.55-1.82-4.24-1.8-.79,0-1.23-.63-1.51-1.34-.02-.98.54-1.58,1.37-1.94.8-.34,1.68-.43,2.49-.05,1.69.8,3.27,1.78,4.55,3.2,2.61,2.87,5.44,5.54,7.45,8.91.53.87,1.24,1.59,2.29,1.77.19.03.45-.26.65-.45.07-.08.1-.3.06-.41-.74-1.55-1.46-3.11-2.27-4.63-.32-.62-.88-1.12-1.34-1.66-.83-.98-1.74-1.92-2.5-2.96-.3-.42-.4-1.06-.44-1.6-.07-.71.78-1.27,1.46-1.1.86.22,1.61.64,2.16,1.32,2,2.46,3.93,4.96,5.2,7.88,1.37,3.15,3.1,6.14,3.86,9.52.13.55.37,1.11.68,1.58.21.32.63.65.99.71.34.05.73-.25,1.16-.43-1.16-4.79-2.27-9.5-3.43-14.2-.2-.82-.62-1.6-.81-2.43-.16-.68-.19-1.4-.18-2.1,0-.65.75-1.3,1.41-1.33.73-.04,1.57.41,1.75,1,.29.95.48,1.93.79,2.88,1.57,4.76,2.49,9.66,3.57,14.53.49,2.21,1.34,4.37,2.05,6.54.31.95.68,1.88,1.01,2.75-.07.36-.06.66-.18.9-.68,1.41-.03,2.46.97,3.39.17.16.56.23.78.14.19-.07.38-.4.4-.64.04-.56.08-1.15-.06-1.7-.5-1.95-.63-3.94-.94-5.91-.34-2.1-.71-4.21-1.22-6.29-.29-1.24-.87-2.41-1.45-3.95.09-.63.19-1.61.36-2.57.09-.51.73-.93,1.25-.96.63-.04,1.2.23,1.45.73.43.89.81,1.85,1.01,2.81.56,2.79,1.18,5.57,1.76,8.35.2.97.19,1.98.29,2.97.19,1.84.41,3.68.61,5.52.15,1.41.35,2.83.42,4.25.06,1.47.42,2.79,1.26,4.03.7,1.05,1.3,2.18,1.98,3.3.18-.21.44-.37.45-.55.13-3.25.23-6.51.32-9.77.07-2-.09-3.97-.63-5.92-.22-.81-.26-1.69-.27-2.53,0-.76.45-1.3,1.1-1.67.69-.4,1.91.04,2.14.8.08.27.2.54.23.82.09.71.03,1.44.21,2.12.84,3.09.55,6.19.38,9.3-.22,4.11-.32,8.23-.04,12.35.02.28.12.55.19.83.17.23.3.51.51.68,1.07.86,1.67,1.96,1.8,3.3.06.72.17,1.42.62,2.01.27.36.61.5,1.11.11.02-.47.06-1.03.07-1.6.06-3.41.12-6.81.47-10.2.24-2.39.32-4.79-.47-7.18-.41-1.18.25-2.19,1.24-2.91.42-.3,1.24-.13,1.52.31.15.24.34.46.44.73.7,1.76,1.03,3.59.75,5.45-.57,3.94-.41,7.92-.64,11.88-.06.99-.15,1.97-.2,2.95-.16,2.69-.12,5.39-.15,8.09,0,.28.03.58.11.85.43,1.36.88,2.71,1.37,4.06.14.38.42.71.68,1.13.13-.29.3-.49.3-.69.11-4.97.17-9.94.3-14.91.05-1.58.02-3.09-.49-4.64-.45-1.37.25-2.42,1.66-2.95.49-.18,1.33.17,1.44.6.1.41.26.82.28,1.24.13,3.27.4,6.55.3,9.81-.16,5.26-.16,10.51.07,15.77.07,1.71.15,3.39-.36,5.05-.06.22.11.53.21.79.06.12.18.24.3.3.32.15.61.08.66-.21.26-1.24.52-2.49.72-3.74.51-3.21,1.01-6.43,1.44-9.65.1-.68-.04-1.4-.11-2.11-.09-1.05.16-1.96.92-2.69.41-.39,1.1-.57,1.56-.36.56.27.92.77.92,1.34,0,6.13-.73,12.16-2.28,17.98.25,1.05.8,1.57,1.84,1.43.13-.24.35-.47.36-.72.05-.99.02-1.98.05-2.98,0-.78.43-1.31,1.1-1.67.77-.42,1.83-.27,2.34.36,1.29,1.58,2.18,3.35,2.5,5.38.52,3.23,1.06,6.46,1.59,9.68.35,0,.78.08.81-.01.63-1.41,1.2-2.85,1.79-4.31-.26-1.26-.46-2.52-.79-3.74-.81-3.21-.99-6.47-1.09-9.75-.04-1.14-.07-2.29-.32-3.39-.31-1.42-.44-2.82-.29-4.23.08-.73-.06-1.39-.29-2.08-.38-1.25.17-2.19,1.03-3.01.39-.37,1.23-.21,1.44.31.27.66.46,1.35.75,2,.16.35.42.64.68,1.03.5-1.21.41-2.35.29-3.48-.13-1.13-.37-2.25-.54-3.38-.06-.38.46-1.14.91-1.33.54-.24,1.09-.23,1.62.08.52.31.91.78.99,1.35.22,1.83.41,3.68.54,5.52.14,1.85.18,3.7.3,5.54.05.85.23,1.69.87,2.35,1.43-1.89,1.79-2.71,2.62-5.87-.19-1.48-.42-2.88-.54-4.29-.21-2.26-.22-4.55-.78-6.78.15-2.12.33-4.24.44-6.36.07-1.13-.04-2.27.02-3.4.02-.4.32-.75.77-.9.48-.16,1.29.05,1.55.4.6.84.91,1.78.93,2.8.03,2.13.06,4.26.02,6.38-.03,1.98.28,3.93.68,5.87.02.07.19.15.3.15.13,0,.3-.03.39-.12.91-.94,1.47-2.06,1.52-3.38.06-1.28.05-2.56.02-3.84-.02-1.42-.09-2.84-.15-4.27-.07-2.28,0-4.53.38-6.78.3-1.81.29-3.67.42-5.51.05-.76.46-1.31,1.09-1.71.79-.49,1.9-.08,2.03.76.33,2.13.31,4.26-.16,6.35-.43,1.96-.45,3.94-.27,5.93.02.22.2.44.31.66.25-.15.54-.24.7-.45.58-.79,1.11-1.62,1.68-2.42,1.43-2,2.23-4.18,2.15-6.72-.04-1.69.27-3.38.43-5.26-.53-1.14-1.19-2.44-.68-3.9.14-.39.33-.77.56-1.11.52-.76,1.52-.85,2.23-.26.96.78,1.47,1.8,1.45,2.98-.02,1.7-.19,3.4-.26,5.09,0,.25.17.54.33.75.2.27.56.32.69.09.27-.48.63-1.01.62-1.52-.02-2.43.34-4.79.92-7.13.44-1.78.72-3.61,1.13-5.4.25-1.12.7-2.13,1.71-2.82.58-.4,1.44-.2,1.81.48.29.52.42,1.05.31,1.63-.4,2.08-.65,4.19-1.4,6.19-.29.78-.6,1.6-.46,2.48.07.34.28.51.55.47.14-.02.31-.02.39-.11.66-.76,1-1.67,1.21-2.65.89-4.15,1.79-8.28,2.7-12.45.18-.16.35-.39.59-.53.5-.3,1.04-.39,1.6-.09.59.32,1.05,1.12.92,1.79-.37,1.8-.49,3.65-1.08,5.4-.31.93-.57,1.9-.38,2.91.07.33.34.46.64.41,1.21-.21,2.1-.9,2.47-2.05.96-3.02,2.8-5.51,4.64-8,1.03-1.39,2.43-2.32,3.94-3.1.34-.18.81-.15,1.23-.14.49.01,1.11.81.95,1.23-.19.52-.35,1.1-.69,1.52-.63.76-1.39,1.39-2.06,2.11-1.93,2.06-3.69,4.26-4.69,6.95-.14.38-.15.82-.17,1.23,0,.1.17.22.32.41,1.41-.5,2.67-1.47,4.21-1.77.69-.13,1.34-.46,2.03-.57,1.21-.2,2.24.17,3,1.2.34.45.17,1.24-.33,1.43-.13.05-.27.11-.4.14-2.96.63-5.52,2.06-8.01,3.68-2.12,1.38-4.29,2.68-6.32,3.95-.09.4.1.62.44.52,2.42-.73,4.86-1.48,7.37-1.87,1.96-.3,3.94-.47,5.91-.6.69-.05,1.41.15,2.12.27.47.07.87.87.62,1.37-.18.36-.42.75-.75.97-.32.22-.79.32-1.2.35-5.85.53-11.35,2.3-16.8,4.25-1.31.47-2.53,1.23-3.75,1.93-.92.53-1.83.65-2.84.23-.39-.16-.8-.25-1.26-.39-.48.3-.99.56-1.43.89-1.49,1.13-1.91,2.7-1.7,4.51.08.67.84,1.27,1.53,1.18.56-.08,1.13-.15,1.67-.3,2.17-.63,4.22-1.58,6.25-2.58.62-.31,1.24-.64,1.74-.9,1.47.16,2.25.85,2.49,2.14.05.28.11.55.17.84-.75.35-1.5.72-2.25,1.06-.76.34-1.53.64-2.29.96.05.14.06.28.13.32,1.16.69,1.4,1.73,1.2,2.92-.09.55-.27,1.09-.45,1.61-.86,2.51-1.75,5.02-2.61,7.53-.18.53-.23,1.09.19,1.64,1.43-.17,1.94-1.38,2.79-2.59-.42-2.41.34-4.76,1.32-7.12.85-2.05,1.62-4.16,1.88-6.41.7-.03,1.4-.07,2.05-.1.99.4,1.43,1.12,1.27,2.06-.33,1.81-.79,3.58-1.15,5.38-.05.23.13.52.24.9.4-.46.8-.83,1.11-1.27,1.43-2.08,2.83-4.19,4.26-6.28,2.63-3.83,5.41-7.54,8.79-10.76.71-.67,1.4-1.39,2.47-1.53.24.14.53.24.73.43.54.51.69,1.47.33,1.92-.18.22-.32.47-.53.65-2.32,2.09-4.13,4.59-5.87,7.15-1.41,2.08-3.13,3.97-4.02,6.38-.04.09.06.26.15.35.07.07.26.15.32.11.48-.29,1-.54,1.39-.93,3.26-3.13,6.97-5.67,10.69-8.2,1.5-1.03,3.14-1.87,4.74-2.75,1.16-.63,2.44-.62,3.72-.35.34.07.8.57.78.91-.04.27-.03.62-.19.78-.5.48-1,1.07-1.63,1.29-3.11,1.12-5.68,3.03-8.19,5.11-1.84,1.52-3.74,2.96-5.64,4.4-1.03.77-1.91,1.65-2.64,2.7-1.69,2.41-3.36,4.84-4.91,7.08-.6,2.12-1.15,4.01-1.68,5.91-.19.67-.42,1.36-.49,2.06-.06.6.26,1.07.96,1.13.77-.4,1.42-.97,1.69-1.8,1.5-4.73,3.86-9.05,6.02-13.48.24-.51.47-1.02.73-1.52.41-.78.98-1.36,1.85-1.61,1.93-.54,3.52-1.76,5.34-2.5,1.69-.7,3.4-1.36,4.86-2.51.32-.25.77-.35,1.15-.53.95-.44,2.41.12,2.55,1.47.03.28,0,.56.02.91.52.2,1.04.37,1.51.6.66.33.88,1.29.46,1.84-.33.44-.66.92-1.08,1.28-.96.82-2,1.56-2.99,2.33-2.46,1.93-4.42,4.29-6,6.97-.15.24-.3.49-.35.76-.05.25,0,.54.06.8.06.26.83.5,1.14.38.27-.09.56-.15.77-.33.54-.46,1.06-.92,1.51-1.45.9-1.08,1.64-2.29,2.62-3.29,3.15-3.21,6-6.69,9.42-9.63,1.07-.92,2.16-1.79,3.48-2.33.42-.17.84-.04,1.21.18.44.27.66,1.06.49,1.52-.34.98-.99,1.74-1.83,2.24-1.73,1.02-3.08,2.45-4.48,3.83-.28.27-.43.69-.62,1.06-.05.09-.02.27.05.36.08.11.23.23.35.23,1.45.11,2.78-.35,4.14-.75,2.7-.8,5.41-1.56,8.15-2.29,1.51-.41,3.07-.45,4.58.18.24.1.43.35.61.56.17.21-.18.9-.48,1.04-.26.12-.5.27-.76.35-.67.22-1.34.48-2.04.59-3.37.55-6.51,1.85-9.74,2.86-2.15.67-4.28,1.42-6.41,2.14-.67.22-1.34.46-1.99.72-1.1.44-1.85,1.27-1.57,1.72.44.7,1.2.71,1.87.71,1.7,0,3.4-.09,5.1-.18,1.61-.09,3.1.34,4.57.94.7.29,1.09.89,1.41,1.55.2.42.17.87-.14,1.16-.28.27-.67.52-1.05.58-.4.06-.9,0-1.24-.21-1.17-.7-2.43-.7-3.72-.68-1.84.03-3.7.05-5.53-.04-1.44-.07-2.81-.01-4.17.57-.75.32-1.63.41-2.48.43-2.56.06-4.65,1.05-6.36,2.87-.29.31-.6.6-.92.87-.46.38-1.02.45-1.59.27-.27-.08-.5-.28-.77-.39-1.96-.8-3.63-.12-4.47,1.82-.17.4-.09,1.03.17,1.15.25.1.53.24.79.24.42,0,.87,0,1.26-.13,2.81-.95,5.78-1.26,8.56-2.31,1.22-.46,2.51-.19,3.67.57.76.49.78,1.66-.03,2.1-.48.27-1,.62-1.52.66-2.15.16-4.13.96-6.18,1.43-3.86.87-7.59,2.15-11.47,2.96-.27.06-.55.14-.79.27-1.6.88-3.2,1.75-4.77,2.67-.2.12-.26.48-.38.72.47.42,1.04.4,1.56.28.82-.18,1.63-.45,2.44-.68,1.11-.32,2.24-.37,3.37-.11.56.13,1,.51,1.33,1.01.29.46.16,1.36-.28,1.48-1.08.31-2.14.71-3.25.9-4.2.71-8.23,1.91-12.16,3.52-1.69.7-3.39,1.36-5.08,2.06-1.46.61-2.66,1.57-3.91,2.46-.34.24-.66.54-.89.89-.47.69-.76,1.55-1.58,1.92-.63.28-1.31.44-1.93.64-.56.71-1.09,1.37-.97,2.32-.19.09-.37.18-.56.27.08.08.16.15.24.23.08-.19.17-.38.25-.57Z"/>
  </g>
</svg>