<?xml version="1.0" encoding="UTF-8"?>
<svg id="Layer_2" data-name="Layer 2" xmlns="http://www.w3.org/2000/svg" viewBox="0 0 43.35 62.41">
  <defs>
    <style>
      .cls-1 {
        fill: #5c2f1c;
        fill-rule: evenodd;
      }
    </style>
  </defs>
  <g id="_Layer_" data-name="&amp;lt;Layer&amp;gt;">
    <path class="cls-1" d="M32.79,14.25c1.74.05,3.2-.42,4.6-1.11.32-.16.45-.33.33-.67-.1-.27-.3-.48-.62-.45-1.44.04-2.81.4-4.13.88-.38.14-.72.41-1.06.65-.1.08-.15.23-.23.35.13.08.25.19.38.22.28.08.57.1.74.13h0ZM18,26.31c-.55.17-1.04.44-1.45.83-.92.88-1.74,1.83-2.34,2.98-.39.75-.81,1.48-1.19,2.24-.06.12-.06.3-.02.42.14.39.36.45.61.21.6-.59,1.26-1.13,1.77-1.79,1.02-1.34,1.97-2.73,2.92-4.13.18-.26.02-.57-.29-.75h0ZM34.46,25.82c.16-1.51-.45-2.67-1.56-3.63-.23-.21-.47-.41-.74-.54-1.23-.6-2.46-1.19-3.69-1.77-.14-.06-.29-.06-.43-.11-.35-.14-.6-.06-.76.24-.12.25-.14.55,0,.83.3.55.76.96,1.24,1.33,1.72,1.27,3.39,2.6,5.01,4,.1.08.28.08.42.1.28.02.45-.16.51-.45h0ZM27.35,28.35c.16,2.05-.16,4.06-.31,6.08-.02.14-.1.26-.19.37-.03.04-.21.02-.24-.02-.14-.25-.3-.52-.39-.78-.64-1.98-1.05-4.01-1.76-5.97-.46-1.26-.68-2.58-.66-3.9,0-.28.1-.57.18-.83.14-.49,1.09-.68,1.45-.28.3.33.65.66.82,1.05.85,1.87,1.01,2.55,1.1,4.27h0ZM14.09,20.41c-.47.04-.91.04-1.34.11-2.75.47-5.31,1.37-7.51,3.03-.11.1-.18.22-.26.33-.09.12-.25.25-.23.35.08.25.36.36.66.2.77-.39,1.56-.74,2.46-.72,2.36.05,4.65-.46,7-.45.73.02,1.45-.16,2.16-.25.89-.11,1.64-.51,2.38-.96.3-.18.38-.4.15-.72-.08-.12-.18-.23-.3-.32-.39-.27-.83-.4-1.26-.33-.88.14-1.73.17-2.61-.1-.42-.13-.88-.11-1.3-.16h0ZM22.02,13.67c-.03-.45-.04-.89-.1-1.34-.06-.43-.13-.89-.28-1.31-.76-1.97-1.57-3.92-2.79-5.7-.26-.38-.54-.73-.95-.96-.13-.08-.31-.16-.42-.13-.1.03-.18.22-.19.34-.02.44-.09.89.02,1.31.65,2.47,1.01,4.97,1.23,7.47.05.58.21,1.17.33,1.76.03.14.11.29.19.41.49.78,1.05,1.49,1.91,1.89.24.12.55,0,.66-.32.38-1.1.46-2.27.4-3.45h0ZM19.5,33.57c-.41.73-.78,1.46-.94,2.32-.57,3.06-1,5.99-1.4,9.93-.06.57-.18,1.15-.26,1.72-.06.43-.15.87-.14,1.31.02,2.79.09,5.59-.18,8.35.15,1.07.49,2.04,1.58,2.58.27.13.55.24.83.33.35.12.91-.26.97-.61.21-1.17.07-2.36-.07-3.52-.27-2.22-.33-4.42-.47-6.63-.04-.74-.11-1.49,0-2.21.26-1.88.15-3.8.1-5.71,0-.45-.03-.88-.06-1.33-.09-1.77-.06-3.52.3-5.24.08-.41.06-.88-.23-1.29h0ZM9.56,11.56c-.13-.29-.34-.49-.65-.57-.14-.02-.33-.06-.41,0-.29.24-.18.41.27.45.29.02.57.02.85.02-.05.33,0,.62.25.81,1.59,1.21,2.96,2.63,4.1,4.28.17.25.42.45.65.64.36.28.78.47,1.23.53.33.04.58-.08.77-.3.17-.22.27-.51.14-.8-.18-.42-.41-.83-.71-1.16-1.45-1.63-3.25-2.76-5.17-3.69-.39-.19-.87-.14-1.31-.21h0ZM30.78,8.99c-.51.06-.81.34-.84.87-.62-.06-.81.32-.86.84-.14.03-.29.05-.4.11-.81.56-1.32,1.37-1.79,2.2-.21.37-.24.8-.2,1.23-.39.14-.47.26-.25.25.06,0,.1-.23.15-.35.45-.02.8-.24,1.09-.54.57-.62.94-1.37,1.23-2.16.1-.24.05-.56.06-.84.54-.03.77-.36.85-.85.37-.2.66-.49.84-.87.06-.08.13-.18.19-.26-.02.11-.06.25-.08.37h0ZM21.48,50.52c-.02,1.49.04,2.95.56,4.41.15.42.19.88.25,1.33.19,1.47.37,2.95.54,4.42.01.14-.06.29-.07.43-.03.52-.61,1.11-1.11,1.15-1.32.12-2.64.21-3.97.12-1.38-.07-1.93-.3-2.29-1.69-.27-1.02-.51-2.03-.39-3.08.08-.72.02-1.46,0-2.21-.07-2.8-.2-5.62.29-8.37.08-.44.11-.88.08-1.33-.13-2.24.36-4.38.71-6.54.28-1.72.68-3.42,1.02-5.13.06-.29,0-.6-.25-.82-.03-.04-.25.05-.34.14-.43.37-.82.78-1.26,1.15-.78.64-1.37,1.45-1.85,2.35-.27.5-.56,1-.88,1.47-.41.6-.96,1.05-1.58,1.43-.75.45-1.93-.16-2.01-1.07-.05-.44-.09-.89-.02-1.31.15-1.02.48-1.97.89-2.9,1.17-2.65,2.44-5.22,3.96-7.66.2-.33-.16-.94-.55-.97-.29-.02-.59-.08-.88-.08-.59,0-1.19.06-1.77.02-3.33-.22-5.49,1.53-7.28,3.91-.43.57-.68,1.27-1.27,1.73-.23.17-.5.25-.79.27-.39.03-.82-.25-1.01-.75-.1-.29-.21-.59-.19-.86.04-.59.1-1.18.25-1.73.34-1.27.9-2.44,1.48-3.59.72-1.44,1.79-2.59,3.14-3.47,1.93-1.25,4-2.26,6.3-2.77.33-.08.53-.79.36-1.11-.42-.84-.96-1.57-1.63-2.2-.33-.31-.69-.63-1.09-.84-1.76-.92-3.49-1.88-5.43-2.29-.44-.1-.85-.31-1.28-.46-.62-.24-.99-1.33-.6-1.91.15-.24.33-.5.56-.63.5-.28,1.04-.5,1.58-.7.54-.22,1.14-.25,1.74-.14,1.18.21,2.36.42,3.53.72,1.62.41,3.13,1.11,4.59,1.94.65.37,1.24.91,2.01.96.3.02.6-.19.6-.49,0-1.34-.39-2.64-.57-3.97-.16-1.19-.4-2.35-.84-3.49-.33-.84-.47-1.73-.45-2.63,0-.31.1-.56.27-.8.3-.42,1.14-.59,1.57-.3.25.16.54.29.77.48.95.78,1.89,1.58,2.83,2.34.73.6,1.29,1.32,1.71,2.13.47.96.93,1.92,1.37,2.88.63,1.4,1.06,2.83,1.16,4.33.03.4.24.57.51.47.14-.04.29-.1.37-.2.57-.82,1.1-1.67,1.69-2.48.51-.69,1.07-1.34,1.61-2.01.71-.91,1.54-1.69,2.45-2.4,1.24-.96,2.49-1.93,3.88-2.69.25-.14.54-.2.82-.28.5-.13,1.26.33,1.42.84.24.76.14,1.47-.22,2.11-.21.38-.49.72-.76,1.04-.83.99-1.82,1.81-2.54,2.9-.07.12-.16.28-.13.4.07.25.35.41.67.33,1.7-.47,3.45-.6,5.23-.53,1.36.05,2.65.41,3.88,1.08.12.06.23.2.31.33.53.91.11,2.28-.79,2.59-.27.1-.54.21-.82.29-.42.11-.87.15-1.27.29-1.5.53-2.95,1.2-4.5,1.6-1.54.39-3.18.5-4.72.97-.31.09-.47.32-.54.57-.09.32-.02.6.23.8.37.29.72.57,1.11.81.78.46,1.61.88,2.38,1.37,1.23.79,1.95,1.94,2.13,3.34.24,1.93.31,3.85.28,5.76,0,.92-.45,1.68-1.13,2.26-.23.2-1.05.03-1.2-.25-.29-.53-.62-1.04-.87-1.58-.72-1.56-1.82-2.8-3.16-3.87-.24-.19-.57-.21-.81-.11-.11.05-.2.22-.23.35-.07.29-.14.57-.15.86-.05,1.77-.11,3.53-.11,5.31.01,1.62.01,3.24-.24,4.83-.17,1.15-.08,2.36-.14,3.53-.04.76-.33,1.39-.84,1.94-.27.29-.78.29-1.16-.05-.24-.21-.43-.44-.51-.74-.08-.29-.17-.57-.2-.87-.18-1.63-.45-3.24-1.08-4.81-.42-2.06-1.02-4.08-1.6-6.1-.12-.42-.33-.52-.56-.29-.1.1-.2.21-.25.33-.28.68-.5,1.36-.53,2.11-.04,1.62-.1,3.24-.45,4.81-.09.41-.07.89-.02,1.33.29,2.24.06,4.43.05,6.65,0,1.31-.29,2.6.08,3.96.12.42,0,.88,0,1.31Z"/>
  </g>
</svg>