<?xml version="1.0" encoding="UTF-8"?>
<svg id="Layer_2" data-name="Layer 2" xmlns="http://www.w3.org/2000/svg" viewBox="0 0 38.41 25.82">
  <defs>
    <style>
      .cls-1 {
        fill: #5c2f1c;
        fill-rule: evenodd;
      }
    </style>
  </defs>
  <g id="_Layer_" data-name="&amp;lt;Layer&amp;gt;">
    <path class="cls-1" d="M13.69,10.35c.06.58.12,1.44.23,2.3.08.62.33,1.19.62,1.73.18.33.44.58.74.81.61.45,1.31.66,1.99.94.28.12.5.07.63-.17.12-.21.16-.46.06-.7-.87-2.04-1.99-3.96-3.1-5.87-.06-.1-.16-.19-.25-.26-.1-.07-.21-.13-.31-.16-.27-.08-.45.05-.49.37-.04.24-.06.49-.11,1.01h0ZM20.95,15.19c.25-.58.23-1.22.35-1.83.15-.74.33-1.46.48-2.2.06-.24.08-.49.1-.74.09-.87.21-1.74.24-2.61.03-.87.44-1.69.34-2.57-.02-.09-.18-.26-.22-.24-.36.14-.64.37-.82.72-1.11,2.12-1.82,4.36-2,6.75.25.72.49,1.43.73,2.13.04.12.12.22.19.32.17.22.37.3.61.26h0ZM17.54,20.27c.07.36.16.43.22.22,0-.02-.19-.1-.29-.15.08-1.02-.52-1.67-1.31-2.07-.88-.45-1.86-.72-2.86-.84-1.49-.17-2.98-.27-4.48-.18-.62.04-1.24.14-1.83.36-.35.13-.68.3-1.04.41-1.25.39-2.14,1.23-2.83,2.3-.06.09-.1.25-.06.31.14.23.4.31.64.16.54-.32,1.03-.71,1.56-1.02.99-.57,2.04-.94,3.18-1.01,2.65-.18,5.23.06,7.66,1.27.22.11.47.2.71.24.23.04.49,0,.73-.01h0ZM25.8,20.3c.62.01,1.25-.03,1.83-.25.94-.37,1.91-.49,2.91-.52,1.61-.03,3.22-.04,4.82-.08.12,0,.29-.06.33-.14.08-.17-.06-.37-.29-.51-.65-.4-1.33-.64-2.09-.68-2.54-.14-4.9.46-7.13,1.65-.21.11-.3.34-.29.62-.23,0-.45.02-.68.04-.36.04-.43.19-.19.38.06.05.22.01.33-.02.23-.09.38-.26.47-.49h0ZM23.47,17.23c.27.07.5.02.68-.13.88-.71,1.49-1.66,2.26-2.48.84-.91,1.85-1.66,2.61-2.65.19-.25.15-.41-.19-.51-.12-.03-.26-.02-.37,0-.48.16-.9.45-1.23.81-1.02,1.08-2.06,2.16-2.94,3.36-.21.3-.41.62-.56.96-.1.21-.11.48-.17.72-.09.06-.19.1-.26.18-.04.04-.01.14-.02.21.2-.03.26-.18.2-.46h0ZM5.53,21.43c-.47.36-.96.74-1.46,1.13-.82.6-1.5,1.33-2.02,2.2-.19.31-.46.58-.72.85-.18.19-.45.24-.7.19-.23-.05-.41-.22-.5-.48-.04-.12-.08-.24-.09-.36-.08-.63-.01-1.26.14-1.87.3-1.22.72-2.4,1.29-3.53.34-.69.82-1.25,1.38-1.76.95-.86,2.06-1.46,3.26-1.85,1.19-.38,2.42-.65,3.7-.58.87.04,1.75,0,2.62-.04.25-.01.42-.24.43-.51,0-.25,0-.51-.09-.74-.64-1.83-.64-3.71-.37-5.59.18-1.23.38-2.48.62-3.7.08-.38.32-.66.72-.77.25-.08.51-.08.68.16.21.29.49.62.56.96.27,1.39.88,2.6,1.68,3.74.29.41.5.87.86,1.23.25.24.46.25.58,0,.27-.56.56-1.13.75-1.71.23-.72.45-1.44.7-2.15.54-1.57,1.39-2.94,2.5-4.16.59-.65,1.09-1.38,1.81-1.9.22-.16.45-.21.71-.16.36.06.6.33.61.79,0,.37.04.76-.02,1.12-.05.37-.16.74-.29,1.09-.29.7-.5,1.42-.55,2.18-.1,1.25-.31,2.48-.65,3.7-.31,1.07-.23,2.24-.61,3.33-.12.34-.13.74-.16,1.11-.02.28.08.51.27.6.08.04.25-.05.34-.12.64-.43,1.02-1.1,1.51-1.67.66-.76,1.42-1.42,2.24-1.99,1.16-.8,2.44-1.31,3.88-1.25.25.02.49.06.74.12.43.08.83.6.85,1.09,0,.12,0,.25-.01.37-.03.52-.19,1.03-.62,1.31-1.9,1.27-3.46,2.9-5.05,4.5-.15.17-.18.45-.26.68.21.16.44.24.69.23.13,0,.25,0,.37-.03.24-.05.5-.1.72-.19.83-.33,1.69-.49,2.57-.5.87-.03,1.75-.07,2.63-.04,1.31.03,2.42.58,3.43,1.38.4.32.69.72.94,1.16.27.47.29.95.08,1.43-.1.22-.23.45-.42.62-.17.16-.42.34-.62.33-.88-.06-1.75-.18-2.62-.28-1.13-.14-2.26-.1-3.39-.04-1.91.1-3.69.66-5.4,1.51-.67.34-1.33.72-1.98,1.1-.55.32-.98.76-1.29,1.32-.12.21-.31.41-.51.53-.2.12-.46.2-.7.21-.52.03-1-.16-1.42-.43-.64-.39-1.26-.82-1.85-1.29-.29-.22-.51-.55-.7-.86-.64-1-1.59-1.6-2.63-2.05-.81-.34-1.66-.61-2.55-.67-.62-.04-1.25-.08-1.88-.12-1.01-.06-1.99.07-2.95.46-.58.24-1.18.42-1.81.64Z"/>
  </g>
</svg>