<?xml version="1.0" encoding="UTF-8"?>
<svg id="Layer_2" data-name="Layer 2" xmlns="http://www.w3.org/2000/svg" viewBox="0 0 33.76 48.9">
  <defs>
    <style>
      .cls-1 {
        fill: #5c2f1c;
        fill-rule: evenodd;
      }
    </style>
  </defs>
  <g id="_Layer_" data-name="&amp;lt;Layer&amp;gt;">
    <path class="cls-1" d="M11.27,8.15c-.76-.06-1.52-.11-2.29-.17-1.54-.13-3.1.06-4.65.51-.91.27-1.84.55-2.73.91-.43.18-.82.52-1.22.81-.37.26-.49.81-.27,1.24.14.29.43.43.77.32,1.37-.41,2.74-.87,4.11-1.28,1.24-.37,2.48-.46,3.7-.3.63.08,1.11.39,1.52.82.43.45.25,1.31-.34,1.54-1.2.48-2.41.92-3.54,1.59-.7.42-1.37.89-2.03,1.37-.75.54-.98,1.66-.56,2.52.17.34.88.37,1.19.05.21-.24.41-.49.6-.75.4-.55.9-.97,1.47-1.28,1.73-.92,3.53-1.64,5.39-2.1.15-.03.31,0,.46-.02.58-.06,1.16.68.93,1.2-.85,1.91-1.69,3.82-2.77,5.65-.93,1.58-1.27,3.27-1.02,4.97.06.37.29.5.6.46.32-.04.63-.18.8-.49.22-.42.42-.87.54-1.31.49-1.85,1.35-3.58,2.37-5.26.16-.27.39-.51.59-.76.12-.03.23-.06.35-.09,0,.45.07.91.02,1.37-.23,2.01-.33,4.01-.25,6,.11,2.44-.04,4.91-.33,7.38-.2,1.7-.29,3.4-.56,5.09-.22,1.39.12,2.72-.35,4.15-.39,1.2-.49,2.46-.72,3.69-.06.31-.1.62-.15.93-.14.78.29,1.45,1.07,1.69.14.04.27.12.42.15.9.15,1.8.24,2.75.06.53-.1,1.24-.76,1.31-1.28.31-2.32.64-4.64.32-6.9-.06-.45-.1-.91-.1-1.37.05-1.99.24-4-.06-5.95-.27-1.78.02-3.68-.2-5.49-.1-.74,0-1.53.02-2.3.06-2,.18-4,.02-5.98-.11-1.51.07-3.07.39-4.62.13-.62.87-1.03,1.44-.75.26.13.56.26.71.49.39.6,1.15.97,1.53,1.59.32.54,2.51,4.19,3.18,4.11.47-.06-.83-5.43-1.62-6.35-.66-.77-1.39-1.48-2.23-2.08-.33-.24-.38-.45-.15-.6.14-.08.29-.12.45-.14.16-.02.31-.02.46,0,1.5.29,2.84.89,4.07,1.72.47.33.93.71,1.3,1.15,1.18,1.47,2.3,2.99,3.06,4.76.41.94.77,1.92,1.49,2.66.22.23.53.28.78.13.31-.18.46-.49.44-.82-.02-.3-.04-.62-.16-.87-.65-1.32-1.31-2.62-2-3.91-.42-.77-.93-1.48-1.38-2.23-1.07-1.79-2.48-3.21-4.48-4.01-.33-.14-.33-.42-.02-.74.11-.11.25-.22.39-.28.29-.11.6-.23.91-.28.46-.06.92-.07,1.39-.1,1.22-.05,2,.37,2.2,1.66.1.68.8.77,1.45.33.27-.19.52-.39.77-.61.12-.1.22-.25.31-.38.36-.51.32-1.33-.03-1.7-.62-.65-1.41-1.03-2.31-1.19-1.66-.29-3.36-.25-5.09.24-1.07.31-2.15.61-3.25.62-.4,0-.8-.56-.6-.92.15-.28.27-.58.46-.84.38-.53.78-1.05,1.17-1.57.2-.28-.02-1.03-.33-1.19-.69-.35-1.62-.04-2.01.71-.53,1-1.04,2.01-1.57,3.02-.07.14-.18.31-.32.37-.29.14-.62.13-.82-.06-.2-.2-.33-.47-.45-.73-.51-1.23-.98-2.47-1.5-3.68-.3-.67-.69-1.29-1.24-1.79-.21-.19-.45-.36-.69-.53-.3-.21-1.09-.16-1.32.07-.47.48-.88.98-.78,1.66.04.29.21.54.48.68.39.19.83.31,1.21.53.25.14.47.35.63.59.59.84.99,1.78,1.19,2.83.02.14,0,.3-.02.45-.01.32-.15.62-.43.83-.08.06-.29-.02-.41-.09-.37-.23-.73-.49-1.07-.74-1.53-1.14-3.16-2.1-4.98-2.78-1.25-.46-2.47-1-3.72-1.46-.26-.1-.6-.04-.91-.02-.42.02-.83.49-.95.93-.24.85.45,1.57,1.06,1.65.15.02.29.09.44.11,2.34.19,4.3,1.13,6.06,2.46.1.07.08.28.12.42.1.05.19.1.29.14-.06-.08-.12-.16-.19-.24Z"/>
  </g>
</svg>