<?xml version="1.0" encoding="UTF-8"?>
<svg id="Layer_2" data-name="Layer 2" xmlns="http://www.w3.org/2000/svg" viewBox="0 0 225.05 182.59">
  <defs>
    <style>
      .cls-1 {
        fill: #593826;
        fill-rule: evenodd;
      }
    </style>
  </defs>
  <g id="_Layer_" data-name="&amp;lt;Layer&amp;gt;">
    <g>
      <path class="cls-1" d="M30.02,10.99c-.05.14-.11.28-.13.43,0,.06.09.14.16.18.03.02.15-.05.15-.1.01-.15,0-.29-.03-.44,0-.03-.1-.05-.15-.07h0ZM40.38,32.69c0-.09.03-.17,0-.25-.02-.08-.09-.14-.14-.21-.05.15-.12.3-.14.45,0,.06.08.14.13.21.05-.07.1-.13.15-.2h0ZM46.14,111.8l.1-.24-.12-.03.02.27h0ZM165.9,65.35c-.05-.14-.11-.28-.16-.42-.05.06-.12.11-.15.17-.08.17-.03.32.13.39.04.01.12-.09.18-.14h0ZM106.71,109.74c-.06.16-.15.32-.15.48,0,.16.08.34.12.51.06-.15.15-.31.15-.47,0-.17-.08-.34-.12-.52h0ZM39.63,41.09c-.14.08-.29.14-.4.24-.03.02.03.19.09.25.12.13.26.25.4.36.07.05.19.1.26.07.2-.08.26-.24.22-.43-.09-.37-.21-.47-.56-.49h0ZM131.52,135.48c-.07.03-.17.03-.23.08-.4.32-.36.76-.3,1.21.01.08.06.18.12.23.03.02.16-.02.2-.07.27-.36.43-.76.36-1.23,0-.08-.09-.15-.15-.23h0ZM175.51,49.3c.1,0,.22.03.29,0,.37-.21.5-.52.34-.91-.06-.14-.24-.34-.34-.33-.15.01-.36.16-.4.3-.08.24-.07.52-.06.78,0,.06.13.12.18.17h0ZM130.44,48.6c-.34.49-.31,1-.04,1.54.54-.02.7-.43.73-.85.03-.41-.3-.61-.69-.69h0ZM34.07,28.04c-.45-.91-.99-1.27-1.61-1.5-.23-.08-.51-.12-.62.22.55.5,1.13.97,2.23,1.28h0ZM30.26,18.74c-.15-.34-.27-.67-.43-.99-.08-.15-.21-.31-.36-.4-.12-.08-.36-.13-.43-.06-.11.1-.2.33-.16.47.12.46.45.8.84,1.05.1.06.31-.04.55-.08h0ZM37.91,28.32c.45-1.7.42-2.36-.17-3.19-.07.05-.17.08-.2.14-.08.15-.18.32-.2.49-.11.86,0,1.33.57,2.55h0ZM41.61,45.06c-.49.07-1.01.21-1.39.66.42.54.99.8,1.65.81.15,0,.3-.16.45-.24-.05-.48-.2-.91-.71-1.22h0ZM42.64,36.28c-.2.13-.52.22-.59.41-.26.68-.27,1.41-.07,2.13.07.24.28.46.45.67.04.05.16.08.25.08.06,0,.16-.05.17-.1.24-.97.3-1.94,0-2.93-.02-.08-.11-.15-.2-.27h0ZM131.8,147.12c.15-.02.25,0,.29-.04.53-.46.7-1.05.54-1.72-.11-.45-.31-.88-.46-1.31-.13-.42-.02-.9-.36-1.26-.22-.06-.37.02-.44.23-.03.09-.06.18-.05.27.16,1.28.32,2.55.48,3.83h0ZM172.4,114.15c-.06.07-.14.11-.15.17-.28,1.48-.15,2.95.29,4.4.04.13.27.22.42.31.03.02.15-.07.16-.12.22-1.08.44-2.16.65-3.25.09-.46-.11-.85-.61-1.13-.25-.14-.51-.25-.76-.38h0ZM138.96,168.73c-.26.7-.39.94-.44,1.2-.07.36-.1.73-.11,1.1-.01.46-.04.93.03,1.39.15,1.11.36,2.21.55,3.3.01.09.1.16.16.23.28,0,.59,0,.66-.33.07-.36.07-.73.07-1.09-.01-1.79-.59-3.51-.92-5.79h0ZM131.36,40.65c-.07.26-.18.44-.15.59.31,1.37.5,2.76.62,4.15.01.15.17.29.29.42.12.14.53-.06.67-.34.33-.66.67-1.32.94-1.99.09-.22,0-.52-.02-.95-1.16-.1-1.76-.97-2.36-1.89h0ZM20.69,131.55c.01.08,0,.17.04.23.89,1.22,1.79,2.44,2.6,3.72.71,1.1,1.63,2.07,2.48,3.09.09.11.31.12.47.17.03-.17.14-.4.07-.51-1.38-2.15-2.94-4.18-4.55-6.17-.18-.22-.41-.39-.64-.56-.17-.13-.35-.11-.49.03h0ZM61.46,100.24c-.37.67-.26,1.43-.27,2.13-.02,1.48,0,2.96-.19,4.42-.12,1-.05,2.04-.04,3.06,0,.36.09.73.15,1.11.05.3.36.6.54.52.15-.07.36-.13.42-.27.5-1.08.97-2.17,1.44-3.27.23-.53.24-1.09.01-1.62-.68-1.55-1.13-3.17-1.59-4.79-.12-.44-.06-.94-.47-1.3h0ZM164.84,158.37c-.35.75-.27,1.59-.5,2.36-.14.43-.14.91-.16,1.36-.14,2.87-.26,5.74-.4,8.61-.04.73-.11,1.47-.16,2.24.12.43.26.89.37,1.33.13.55.24,1.09.35,1.62.23,0,.4.02.57.03.33-.37.34-.85.42-1.29.09-.55.12-1.1.14-1.65.09-2.51.22-5,.24-7.51.02-1.94-.08-3.9-.17-5.84-.02-.45-.14-.93-.68-1.24h0ZM146.11,117.04c.27-.28.33-.64.27-1.02-.19-1.29-.46-2.58-.55-3.88-.28-4.18-.37-8.36-1.05-12.53-.22-1.37-.18-2.78-.42-4.17-.26-1.47.04-2.96-.08-4.44-.01-.18,0-.37-.03-.56-.01-.09-.11-.17-.19-.29-.19.98-.5,1.87-.5,2.77,0,1.58-.24,3.15-.02,4.73.09.64.07,1.3.08,1.95.04,1.77.09,3.53.1,5.3.02,1.85.64,3.68.38,5.54-.03.18.03.38.1.55.3.71.26,1.46.39,2.19.19,1.1.45,2.19.7,3.28.09.42.39.61.81.56h0ZM32.62,162.61c0,.89.04,1.81-.01,2.73-.06,1.01-.25,2.02-.31,3.03-.03.54.03,1.11.15,1.65.11.55.14,1.09.07,1.65-.08.64-.07,1.29-.06,1.93,0,.39.25.69.69,1.04.87.11,1.87.25,2.88.37.4.05.7-.37.52-.73-.26-.49-.54-.98-.81-1.47.19-.95.19-1.85-.1-2.78-.4-1.25-.66-2.54-1.06-3.79-.36-1.16-.8-2.3-1.24-3.43-.09-.24-.34-.4-.72-.23h0ZM168.44,127.31c-.22-.1-.52-.18-.52-.24.04-1.66.12-3.32.18-4.98.01-.28.09-.56.06-.83-.08-.93-.31-1.85-.18-2.79.25-1.83.43-3.68.85-5.47.25-1.1.33-2.19.42-3.3.01-.18.09-.34.13-.52.21-.03.39.03.47.22.07.16.19.36.16.52-.3,2.22-.07,4.46-.07,6.69,0,1.24.38,2.4.82,3.54.14.35.43.61.85.76.35-.15.73-.31,1.14-.48.34.79.3,1.51-.22,2.12-1.36,1.61-2.75,3.19-4.11,4.76h0ZM161.96,140.45c.52-.43.64-.88.79-1.31.48-1.39.87-2.82,1.46-4.15.89-1.99,1.21-4.03.99-6.21-.15-1.49-.05-2.97.18-4.44.12-.82.24-1.64.28-2.48.09-1.38.11-2.77.15-4.15,0-.07-.12-.21-.17-.21-.16.03-.42.05-.46.15-.61,1.34-1.06,2.73-1.21,4.23-.54,5.43-1.2,10.85-2.1,16.23-.12.72-.22,1.46.11,2.35h0ZM69.41,138.2c1.1-2.45,1.67-4.05,2.27-6.46.04-.16-.08-.35-.12-.54-.44-.34-.88-.69-1.34-1.05-.4-1.07-.79-2.12-1.18-3.17-.4-1.05-.79-2.1-1.19-3.16-.39-1.05-.74-2.13-1.18-3.16-.42-.99-.53-2.11-1.27-3.09-.13.35-.26.59-.32.85-.09.35-.15.72-.22,1.06.41.68.79,1.32,1.15,1.93-.1,2.1-.12,4.14.48,6.15.05.17.06.37.07.55.21,2.8.94,5.51,1.63,8.23.14.54.34,1.07.55,1.59.12.29.39.34.68.25h0ZM85.95,115.99c-1.03-4.15-1.49-8.14-1.7-12.15-.11-2.24-.52-4.45-.8-6.67-.01-.08-.11-.16-.2-.29-.08.29-.2.54-.21.79-.03.93.02,1.86-.19,2.78-.12.54-.1,1.11-.09,1.66.03,2.24,0,4.47.1,6.71.09,1.85.58,3.7.31,5.57-.03.17.07.36.1.55.09.65.24,1.29.27,1.94.16,3.27.69,6.5,1.05,9.75,0,.09.08.18.12.27.07,0,.16.03.2,0,.13-.12.31-.24.35-.39.78-2.66,1.55-5.32,2.29-7.99.16-.56.02-1.11-.46-1.53-.35-.31-.71-.63-1.13-1h0ZM175.84,118.86c.24-.02.47.03.6-.07,1.24-.94,2.49-1.85,3.94-2.48.45-.19.61-.67.62-1.16.07-2.52.46-4.99.87-7.46.27-1.64.59-3.27.87-4.91.23-1.37.43-2.74.62-4.12.06-.45.12-.93-.17-1.35-.41.04-.63.33-.78.66-1.3,2.85-2.58,5.7-3.54,8.69-.23.7-.48,1.4-.74,2.09-1.14,3.03-1.76,6.2-2.49,9.36-.05.23.13.51.2.76h0ZM89.67,156.33c-.43.39-.62.91-.66,1.47-.08.93-.23,1.83-.5,2.73-.24.78-.42,1.63-.43,2.45-.02,1.69-.46,3.3-.58,4.98-.07.92-.27,1.83-.38,2.75-.06.45-.07.92-.06,1.39,0,.73.04,1.48.07,2.19-.24.51-.66.68-1.15.53-.51-.16-1-.43-1.46-.64-.19.19-.41.3-.43.44-.06.45-.09.92-.07,1.38.02.48.45.94.88.96.65.02,1.32.12,1.94,0,1.48-.27,2.96-.25,4.45-.28.38,0,.75,0,1.12,0,.43-.02.9-.48.88-.91-.03-.74-.02-1.5-.17-2.22-.25-1.19-.48-2.39-.91-3.54-.29-.79-.51-1.63-.63-2.45-.37-2.69-.65-5.38-.99-8.07-.07-.55-.19-1.11-.35-1.64-.15-.51-.09-1.1-.55-1.51h0ZM36.82,147.78c.15-.04.43-.06.44-.11.06-.46.08-.92.07-1.38-.02-1.96-.35-3.91-.41-5.86-.12-3.35-.38-6.71-.57-10.07-.08-1.49-.17-2.98-.21-4.47-.09-2.98-.12-5.97-.21-8.95-.13-4.38-.36-8.76-.42-13.14-.03-2.25-.37-4.46-.66-6.68-.02-.12-.21-.22-.41-.41-.15.97-.31,1.87-.44,2.78-.08.55-.09,1.11-.13,1.67-.05.75-.06,1.49-.17,2.22-.18,1.2-.21,2.4-.18,3.62.03,1.31.04,2.61.04,3.91,0,.56,0,1.12-.1,1.67-.44,2.3-.37,4.6.25,6.9.15.54.2,1.11.23,1.66.05,1.02.06,2.05.08,3.07.02.75.13,1.47.35,2.2.45,1.52.85,3.07.49,4.66.12,1.39.2,2.79.38,4.19.12.93.28,1.85.03,2.77-.19.73-.18,1.49.02,2.22.27,1.01.31,2.02.26,3.05-.08,1.61.16,3.17,1.28,4.49h0ZM160.36,145.49c-.38,2.22-1.13,4.01-1.72,5.85-.89,2.81-1.88,5.59-2.52,8.48-.06.26-.22.5-.36.73-.04.07-.16.1-.25.11-.05,0-.15-.08-.16-.13-.02-.36-.07-.73-.01-1.09.15-1.02.2-2.02-.08-3.05-.34-1.26-.1-2.4.71-3.4.17-.21.27-.47.39-.67.1-1.06.2-2.08.29-3.09,0-.09.04-.19.03-.28-.05-.56-.14-1.12-.15-1.67-.01-.46.34-.86.06-1.6-.11-.07-.43-.28-.69-.45-.33-1.22-.34-2.33-.16-3.43.2-1.19.4-2.37.67-3.55.45-1.97.88-3.97,1.49-5.9.52-1.67.97-3.37,1.49-5.04.47-1.5.97-2.99,1.49-4.46.12-.32.21-.73.62-.88.08.12.24.26.24.38,0,1.21.03,2.43-.28,3.61-.07.26-.1.55-.11.83-.17,3.16-.8,6.25-1.23,9.36-.29,2.12-.6,4.23-.5,6.39.03.56.02,1.13.15,1.67.11.44.39.85.6,1.28h0ZM137.12,130.1c-.3-.79-.46-1.62-.39-2.45.1-1.11-.04-2.22.22-3.32.25-1.08.53-2.15.87-3.2.53-1.66,1.06-3.34,1.6-5,.11-.34.21-.71.65-.93.4,1.08.63,2.19.54,3.3-.2,2.42,0,4.84.24,7.44-.49,1.11-1.05,2.37-1.61,3.63-.52,1.18-1.01,2.37-1.58,3.53-.61,1.24-1.16,2.5-1.61,3.81-.43,1.21-.82,2.43-1.45,3.61-.5-.61-.3-1.18-.32-1.7-.04-.93.02-1.86-.01-2.79-.02-.47-.11-.93-.23-1.39-.09-.37-.35-.66-.66-.9-.48-.39-.96-.36-1.49.09-.14.12-.26.25-.38.38-.09-.15-.24-.29-.25-.44-.1-1.39-.27-2.8-.23-4.19.08-2.42-.04-4.85.02-7.26.06-2.23.24-4.45.27-6.69.02-1.02.27-2.02.33-3.04.06-.92-.02-1.86.19-2.83.1.17.22.29.24.41.1.83.23,1.67.25,2.51.03,1.12.1,2.24.42,3.33.08.27.09.55.11.84.21,2.42.46,4.83.86,7.23.19,1.13.15,2.21-.22,3.3-.49,1.47-.16,2.95.32,4.39.15.45.52.77.94,1.02.48.29,1.2.11,1.48-.33.45-.71.65-1.52.88-2.34h0ZM44.36,175.21c-.12.07-.26.23-.42.24-1.4.11-2.79-.03-4.14-.52-.45-1.06-.8-2.11-1-3.22-.47-2.57-1.07-5.12-2.07-7.58-.96-2.35-1.54-4.83-2.51-7.19-.24-.59-.2-1.28-.31-2.01-.35-.46-.83-.94-1.13-1.51-.45-.83-.84-1.7-1.12-2.59-.62-1.9-1.49-3.66-2.49-5.38-.47-.82-.83-1.69-1.22-2.55-.39-.85-.75-1.72-1.1-2.59-.04-.1.11-.29.21-.41.02-.03.2.02.26.08.68.67,1.35,1.33,2,2.01.47.48.76,1.08.95,1.72,1.03,1.05,1.44,2.41,1.99,3.71.33.78.71,1.55,1.15,2.28,1.02,1.7,1.92,3.46,3.02,5.12,1.19,1.81,2.04,3.83,2.89,5.82.44,1.03.64,2.18,1.45,3.05.76,1.93,1.6,3.83,2.24,5.79.61,1.87,1.22,3.76,1.35,5.74h0ZM98.37,176.32c-.21.14-.43.38-.66.39-.45.03-.92-.03-1.36-.16-.23-.06-.4-.35-.59-.55-.06-.06-.09-.18-.11-.26-.18-2.04-.79-4.04-.76-6.1.01-.56-.15-1.09-.32-1.64-.32-.98-.55-1.98-.81-2.98-.21-.81-.39-1.64-.56-2.46-.1-.45-.22-.92-.22-1.38,0-2.25-.63-4.43-1.06-6.63-.24-1.21-.38-2.39-.02-3.57.19-.63.23-1.3.02-1.93-.3-.93-.19-1.85-.04-2.76.21-1.28.45-2.55.7-3.81.07-.35.24-.7.58-.91.41.75.74,1.53.85,2.37.2,1.66.85,3.27.82,4.97.38,1.36.51,2.76.8,4.12.47,2.19,1.1,4.36,1.25,6.6.74,2.25.53,4.62,1.17,6.89.25.89.22,1.87.19,2.79-.07,2.05.03,4.09.18,6.14.02.27-.02.54-.03.87h0ZM118.45,126.4c-.22,1.08-.44,2.08-.62,3.08-.22,1.18-.42,2.37-.61,3.56-.15,1-.13,2.03-.32,3.03-.14.8-.02,1.67-.02,2.51,0,.84.09,1.7-.05,2.51-.38,2.11-.2,4.27-.54,6.38-.03.16.05.38.16.52.09.13.29.19.53.32.24-.81.49-1.6.69-2.4.2-.8.31-1.64.54-2.43.21-.72.28-1.44.34-2.18.17-2.13.28-4.28.64-6.37.38-2.2.43-4.42.55-6.64.13-2.32.21-4.64.48-6.94.08-.74.36-1.45.39-2.18.07-1.76.27-3.52.33-5.28.12-3.16.02-6.34-.44-9.49-.08-.57-.11-1.1-.09-1.67.03-.93-.07-1.85-.43-2.65-.4-.11-.66-.05-.81.21-.13.24-.23.5-.28.76-.46,2.37-.91,4.73-1.34,7.09-.46,2.55-.85,5.11-.94,7.72-.02.75-.15,1.48-.17,2.22-.04,1.3-.06,2.6-.05,3.91,0,.47.21.91.58,1.24.29.25.59.48.77.63.25.89.45,1.62.71,2.54h0ZM140.42,155.83c.77,2.31.84,4.69.35,7.1-.24,1.2-.09,2.42.2,3.6.21.83.34,1.65.47,2.49.32,2.02.74,4.05.88,6.1.01.17.11.36.22.51.11.15.25.28.41.36.65.31,1.38-.08,1.42-.77.02-.28.05-.55.04-.83-.04-1.96,0-3.91.27-5.84.23-1.65.39-3.31.58-4.96.23-1.93.52-3.85.68-5.79.17-2.03.48-4.05.42-6.11-.04-1.58-.04-3.16-.11-4.75-.12-2.69-.1-5.4-.41-8.09-.47.05-.64.35-.75.71-.69,2.29-1.34,4.6-2.09,6.88-1,3.06-1.92,6.15-2.57,9.4h0ZM59.48,163.45c-.19-1.46-.26-2.85.06-4.21.22-.92.3-1.82.25-2.76-.08-1.4.03-2.78.24-4.17.25-1.74.5-3.49.48-5.27-.02-1.87.13-3.72.36-5.56.14-1.1.39-2.19.51-3.29.12-1.02.21-2.03.53-3,.23-.71.33-1.44.32-2.2-.03-1.42.29-2.77.62-4.12.19-.79.42-1.56.63-2.35.41.26.48.64.55,1,.32,1.66.63,3.32.93,4.98.4,2.22.74,4.44,1.36,6.61.05,1.34.89,2.48,1.13,3.92-.06,1.86-.97,3.59-1.69,5.38-1.62,4.01-3.36,7.98-4.76,12.09-.3.87-.67,1.72-1.04,2.56-.06.14-.27.22-.48.39h0ZM83.4,134.02c-.36,1.94-.74,3.94-1.09,5.94-.25,1.46-.63,2.89-.7,4.38-.04.82-.14,1.66-.6,2.39-.53-.49-.77-1.13-.83-1.76-.09-.94-.53-1.8-.68-2.72-.11-.66-.32-1.27-.63-1.86-.13-.25-.27-.5-.38-.76-.97-2.27-1.01-2.55-.69-5.16.03-.27.03-.54.06-.81-.19-.25-.36-.47-.53-.69-.16-.22-.33-.45-.47-.63-.14-1-.05-1.93.09-2.84.39-2.56.82-5.12.8-7.74.57-2.73.62-5.53.93-8.29.15-1.28.45-2.55.65-3.83.1-.64.15-1.29.15-1.94,0-1.41.26-2.75.62-4.13.15.13.32.21.33.31.07.56.11,1.12.14,1.67.07,1.77.05,3.54.38,5.3.05.27.09.56.08.84-.11,2.89.45,5.76.56,8.64.04,1.03.16,2.04.36,3.06.21,1.01.27,2.04.34,3.06.15,2.43.54,4.82,1.11,7.56h0ZM194.22,113.19s.14.05.14.09c0,.27.06.55-.01.8-.72,2.48-1.52,4.93-2.18,7.42-.35,1.33-.71,2.68-.78,4.08-.02.37-.07.74-.15,1.1-.14.64-.36,1.28-.89,1.67-1.75,1.27-2.89,3.05-4.07,4.79-2.11,3.11-4.2,6.23-5.93,9.59-1.63,3.18-3.29,6.35-4.4,9.79-.11.33-.35.64-.59.91-.06.07-.37.02-.47-.08-.12-.11-.2-.33-.22-.5-.1-1.06.05-2.03.86-2.79.19-.18.28-.46.42-.7-.92-1.71-.68-3.4-.29-5.16.8-3.59,2.63-6.66,4.44-9.73.79-1.34,1.74-2.58,2.62-3.87.46-.68.94-1.35,1.38-2.05.73-1.17,1.47-2.33,2.39-3.35.24-.27.48-.56.67-.87,1.16-1.87,2.3-3.75,3.46-5.62.33-.55.67-1.09,1.02-1.63.85-1.3,1.71-2.59,2.57-3.89h0ZM54.29,155.35c-.4,1.12-.18,2.16-.11,3.18.21,3.64.3,7.27.32,10.92.01,1.86.18,3.72.27,5.59,0,.08.06.18.08.27.11.4.39.66.76.76.36.09.74.09,1.11.1.37,0,.76-.35.76-.67-.01-1.49,0-2.97-.05-4.46-.11-2.72-.27-5.41-.38-8.12-.05-1.4-.03-2.79.25-4.17.07-.36.15-.73.14-1.1-.06-1.96.23-3.89.4-5.84.14-1.57.34-3.14.39-4.72.13-4.1.6-8.14,1.25-12.18.64-3.93,1.42-7.83,2.24-11.72.23-1.09.43-2.18.61-3.28.03-.21-.11-.46-.19-.8-.24.32-.48.51-.56.76-.59,1.75-1.35,3.43-1.81,5.22-.25.98-.62,1.94-1.04,2.85-1.12,2.43-1.75,5.04-2.43,7.63-.21.8-.34,1.64-.63,2.4-.63,1.66-1.04,3.35-1.01,5.15,0,.46-.15.91-.21,1.37-.27,2.32-.27,4.64.31,6.95.06.23.43.47.65.4.34-.12.67-.26,1.08-.41.1.33.29.62.22.82-.34.97-.87,1.82-1.69,2.46-.29.22-.54.48-.72.64h0ZM171.99,137.13c-.19.17-.47.31-.55.53-.47,1.2-.81,2.47-1.36,3.62-.67,1.41-1.22,2.88-1.86,4.31-1.09,2.44-1.27,4.99-1.01,7.63.06.65.12,1.3.18,1.96.08,1.02.23,2.03.16,3.06-.04.83.19,1.67.22,2.51.04,1.21.03,2.42.03,3.63,0,2.61,0,5.23-.04,7.83,0,.65-.15,1.29-.21,1.94-.05.54-.07,1.11-.08,1.66,0,.34.37.73.71.77,1.22.15,2.42.08,3.61-.14.17-.04.31-.18.49-.3.15-.81.14-1.65-.29-2.42-.68-1.22-.85-2.51-.67-3.82.38-2.94.71-5.9,1.39-8.53-.12-1.16-.33-2.1-.29-3.01.1-2.42-.21-4.85.17-7.26.09-.54.04-1.12.02-1.68-.1-3.73-.2-7.47-.3-11.2,0-.36,0-.73-.3-1.09h0ZM73.39,162.49c.58,1.27.97,2.53,1.36,3.78.39,1.27.65,2.54.78,3.84.02.19.06.37.11.55.28.91.28,1.84.29,2.78.01.92.12,1.86.25,2.79.03.22.31.56.51.6,1.38.21,2.77.37,4.15.16.15-.02.32-.19.39-.33.12-.24.2-.51.24-.78.25-1.95.23-3.9.09-5.87-.17-2.32-.25-4.66-.58-6.98-.39-2.68-.72-5.37-1.11-8.06-.5-3.52-1.13-7.02-2.16-10.45-.27-.89-.69-1.75-1.06-2.61-.05-.12-.26-.17-.44-.28-.17,1.12-.34,2.21-.5,3.31-.05.37-.05.74-.09,1.11-.53,4.33-1.17,8.63-2.13,12.87-.1.45-.15.91-.16,1.37,0,.75.04,1.49.06,2.18h0ZM110.67,176.29c.43-2.47.8-5.12,1.43-7.72.06-.27.05-.55.09-.83.09-.66.06-1.29-.21-1.92-.48-1.08-.48-2.19-.25-3.3.06-.27.15-.54.15-.82.06-3.29.86-6.42,1.74-9.53.21-.73.28-1.45.31-2.19.11-2.42.12-4.85.39-7.24.34-3.07.22-6.14.14-9.22,0-.24-.16-.33-.5-.2-1.28,2.48-2.08,5.34-2.95,8.14-1.27,4.15-1.83,8.49-2.43,12.81-.01.09.02.18.04.38.31.57.68,1.23,1,1.81-.07.65-.24,1.21-.17,1.74.14.97-.36,1.58-.96,2.18-.19.19-.42.35-.67.47-.72.36-1.1,1-1.23,1.74-.23,1.27-.63,2.5-.59,3.84.03.74-.1,1.48-.18,2.22-.27,2.23-.09,4.47.07,6.71.03.33.28.67.42.99.88.24,1.69.52,2.51.68.66.12,1.31.04,1.86-.73h0ZM121.94,133.24c.3.06.39.2.48.39.28.62.33,1.27.36,1.93.23,5.5.63,11.01.38,16.5.2,2.07-.13,4.08-.45,6.09-.07.46-.1.92-.12,1.39-.07,1.58-.24,3.16-.27,4.73-.05,2.52-.31,5.01-.56,7.51-.12,1.2-.33,2.38-.55,3.57-.06.35-.26.68-.38.98-.21.11-.37.25-.54.26-1.85.21-3.72.19-5.59.18-.77,0-1.17-.44-1.19-1.25-.01-.38-.03-.75,0-1.12.11-1.67.38-3.32.72-4.95.13-.63.24-1.27.37-1.9.08-.46.15-.92.27-1.36,1.53-5.61,2.78-11.31,4.59-16.83.17-.53.31-1.06.41-1.61.56-3.1,1.18-6.19,1.47-9.33.08-.92.27-1.84.39-2.76.11-.79.02-1.62.2-2.41h0ZM153.89,175.6c.01-2.06-.08-4.2.21-6.32.02-.13-.19-.3-.32-.5h-1.94c-.42-.37-.61-.82-.35-1.13.84-1.03,1.24-2.23,1.39-3.54.26-2.28.4-6.67.13-8.91-.29-2.52-.53-5.02-.38-7.54.01-.18-.01-.37-.02-.56-.21-3.45-.42-6.9-.63-10.35-.03-.56-.06-1.12-.15-1.67-.5-3.24-1.1-6.46-1.39-9.72,0-.09-.06-.18-.08-.27-.06-.22-.2-.32-.43-.28-.08.02-.19.06-.21.12-.72,1.79-1.46,3.59-1.04,5.63-.23.42-.43.83-.67,1.22-.4.67-.46,1.38-.28,2.15.18.73.38,1.47.4,2.21.16,4.2.48,8.39.53,12.59.02,1.31.06,2.62.11,3.92.04,1.12.07,2.23-.19,3.33-.08.36-.15.73-.15,1.1.02,2.15-.65,4.22-.52,6.38.01.27-.03.56-.12.82-.39,1.26-.31,2.58-.41,3.87-.06.83-.07,1.66-.15,2.49-.14,1.39-.04,2.8.24,4.18.09.45.2.93.84,1.24,1.16.04,2.46.12,3.76.16.46,0,.93-.08,1.38-.17.15-.04.25-.25.43-.44h0ZM66.02,173.98c.11.54.43.87.92.95.67.12,1.33.04,1.8-.48.3-.33.56-.73.77-1.13.16-.33.23-.7.31-1.06.48-2.07,1.2-4.06,1.91-6.06.06-.16.21-.29.34-.44.47.61.7,1.31.81,2.04.43,2.77,1.14,5.52.8,8.39-.21.12-.42.32-.67.37-.35.08-.73.08-1.11.08-3.17-.04-6.34-.08-9.51-.12-.27,0-.56-.06-.83-.1-.18-.03-.54-.37-.57-.57-.07-.37-.17-.74-.19-1.1-.07-1.5-.13-2.98-.15-4.47-.01-1.23.22-2.41.64-3.54.54-1.48,1.12-2.93,1.66-4.4,1.28-3.45,2.53-6.91,4.03-10.28.6-1.33,1.05-2.75,1.71-4.06.12-.24.25-.51.27-.78.08-1.28.77-2.24,1.57-3.04.14-.82.21-1.57.4-2.27.19-.71.46-1.4.74-2.08.58-1.35,1.06-2.75,1.51-4.15.14-.43.37-.82.52-1.15.24-.13.36-.04.35.22-.05,3.17-.23,6.32-.56,9.46-.35,3.23-.82,6.43-1.48,9.6-.11.54-.08,1.11-.2,1.66-.15.74-.51,1.37-1.26,1.7-.42.18-.87.33-1.13.77.26.68.53,1.38.76,1.98,0,1.72-.52,3.21-.86,4.74-.57,2.53-1.28,5.01-2.51,7.3-.34.64-.73,1.28-.79,2.03h0ZM178.59,176.01c-.04-1.8.44-3.3.34-4.9-.08-1.31.14-2.59.5-3.84.56-1.95,1.06-3.92,1.55-5.89.21-.81.43-1.61.84-2.34.5-.89.85-1.84,1.13-2.82.72-2.49,1.62-4.91,2.61-7.3.91-2.22,1.97-4.36,3.26-6.37,2.09-3.24,4.14-6.52,6.22-9.77,1.28-2.01,2.63-3.98,4.3-5.7.19-.2.39-.39.55-.62.37-.52.71-1.06,1.03-1.53-.22-.42-.53-.38-.74-.23-2.41,1.69-4.83,3.35-7.19,5.1-1.25.93-2.42,1.98-3.34,3.26-1.28,1.79-2.53,3.61-3.79,5.42-.94,1.37-1.54,2.93-2.4,4.34-1.16,1.88-2.13,3.87-3.13,5.84-.37.74-.68,1.5-.95,2.29-.38,1.13-.7,2.3-1.18,3.39-1.3,2.96-2.18,6.06-3.05,9.18-.79,2.81-.91,5.67-.67,8.57.09,1.1.36,2.21.57,3.31.05.24.18.47.25.63h3.3ZM101.52,176.35c-.25-.89-.54-1.79-.73-2.69-.16-.73-.21-1.49-.02-2.22.15-.56.13-1.09-.04-1.64-.11-.36-.15-.75-.15-1.11,0-2.91-.7-5.74-1.3-8.58-.25-1.19-.35-2.41-.52-3.62.41-.53.79-1.03,1.23-1.6.06-1.24.06-2.54-.24-3.81-.14-.56-.17-1.09-.11-1.66.17-1.67.46-3.3.89-4.92.39-1.42.84-2.83.93-4.33.05-.73.31-1.45.5-2.16.68-2.49,1.4-4.98,1.94-7.51.3-1.35.85-2.63,1.18-3.98.62-2.51,1.31-5,1.86-7.52.53-2.43,1.35-4.79,2.04-7.19.58-2.04,1.16-4.08,1.32-6.22.04-.56.23-1.08.64-1.49.26.31.22.67.19,1.01-.23,2.77-.46,5.55-.72,8.31-.12,1.29-.28,2.59-.5,3.87-.66,3.93-.76,7.94-1.19,11.91-.02.18-.05.37-.04.56.16,2.16-.27,4.26-.33,6.4,0,.19,0,.38-.03.56-.58,3.66-.98,7.36-2.24,10.85-.31.87-.55,1.76-.68,2.68-.12.82-.35,1.62-.52,2.44-.52,2.63-1.1,5.24-1.46,7.91-.12.91-.3,1.84-.64,2.69-.59,1.5-.67,3.06-.64,4.65.04,2.24.09,4.47.12,6.71,0,.46-.04.93-.06,1.39-.01.24,0,.24-.68.31h0ZM96.7,95.7c.06.28.18.54.15.77-.1.73-.28,1.46-.39,2.18-.55,3.95-1.12,7.89-1.61,11.85-.29,2.3-.46,4.62-.69,6.93-.22,2.22-.49,4.43-.96,6.59-.51,2.35-.9,4.72-1.25,7.11-.22,1.46-.44,2.92-.57,4.4-.12,1.38-.46,2.73-.72,4.1-.35,1.82-.67,3.65-1.08,5.45-.65,2.79-1.29,5.59-2.17,8.31-.42,1.33-.72,2.66-.86,4.06-.1,1.11-.33,2.2-.57,3.28-.54,2.54-.89,5.11-1.17,7.69-.07.65-.13,1.3-.49,1.86-.07.11-.25.16-.39.23-.26-.73-.19-1.5-.24-2.23-.11-1.78-.17-3.55-.62-5.29-.11-.44-.03-.92-.04-1.33.48-.42.88-.78,1.31-1.15-.05-.29-.03-.59-.15-.82-.92-1.84-1.04-3.79-1.07-5.76-.01-.93,0-1.86.01-2.79,0-.19-.04-.39,0-.56.51-1.61.38-3.31.64-4.95.26-1.55.5-3.11.85-4.64.17-.72.36-1.43.4-2.18.08-1.52.39-2.95,1.34-3.92.06-.4.13-.59.1-.76-.32-1.73.26-3.33.64-4.93.46-1.98,1.1-3.91,1.68-5.86.16-.52.36-1.04.54-1.55.15-.44.38-.87.4-1.31.09-1.98.78-3.81,1.3-5.67.93-3.39,1.83-6.78,2.69-10.18.66-2.6,1.47-5.15,2.21-7.73.13-.44.32-.86.78-1.18h0ZM47.5,175.11c.15.12.3.31.46.31,1.11.06,2.23.07,3.34.08.29,0,.74-.38.8-.67.07-.36.17-.73.17-1.09-.04-2.33-.17-4.66-.15-6.98.03-3.08-.08-6.15-.21-9.23-.04-.93-.09-1.87-.08-2.79.03-4.2-.29-8.39-.57-12.58-.06-.83-.21-1.66-.33-2.49-.25-1.76-.61-3.51-.73-5.28-.21-2.8-.73-5.56-1.39-8.29-.66-2.74-1.03-5.52-1.51-8.27-.22-1.29-.48-2.58-.75-3.86-.03-.16-.2-.29-.36-.5-.1.26-.29.49-.28.71.15,2.52.03,5.02-.16,7.52-.03.46.01.93.02,1.4.03,1.77.07,3.54.09,5.31.01,2.23-.1,4.45.21,6.68.14,1.02.14,2.05.16,3.08.06,2.97-.08,5.94-.07,8.92,0,2.04,0,4.09,0,6.14,0,.65.09,1.33-.03,1.95-.31,1.57-.27,3.15-.22,4.73.09,2.88.19,5.77.27,8.67.02.65.14,1.27.37,1.9.51,1.4.93,2.85.89,4.35,0,.09.05.18.07.27h0ZM179.04,120.57c-.06-.22.11-.48.23-.39.43.35.06.37-.21.4,0,.73-.56,1.15-.95,1.63-.99,1.21-1.95,2.44-2.8,3.75-1.57,2.38-3.07,4.79-4.27,7.39-2,4.35-4,8.7-5.8,13.15-.31.77-.59,1.55-.8,2.36-.4,1.61-.79,3.24-1.1,4.87-.35,1.82-.62,3.66-.91,5.49-.33,2.02-.67,4.03-.57,6.1-.4,2-.23,4.08-.71,6.07-.35,1.46-.12,2.97.42,4.45-1.4.59-2.76.21-4.11.02-.18-.31-.44-.54-.46-.79-.11-1.4-.42-2.76-.45-4.16-.03-2.07.37-4.06.78-6.05.22-1.09.45-2.18.7-3.26.14-.63.3-1.26.5-1.87.74-2.19,1.42-4.39,2.03-6.61.39-1.43.91-2.81,1.38-4.21.09-.27.19-.52.27-.79.51-1.68.97-3.37,1.54-5.03.54-1.57,1.23-3.07,1.67-4.69.31-1.15.85-2.25,1.37-3.31.49-.99,1.12-1.9,1.55-2.93.21-.49.62-.91.95-1.35,1-1.31,2.04-2.6,3.01-3.94,1.1-1.49,2.4-2.78,3.73-4.04.79-.76,1.65-1.46,2.5-2.16.12-.09.35-.06.52-.09h0ZM198.98,60.1c0-.06-.26.2-.07-.07.13-.06.32-.09.37-.2.06-.12-.11-.24-.22-.14-.08.07-.06.26-.08.4h0ZM78.42,26.43c.1-.86-.11-1.67-.43-2.46-.28-.7-.6-1.39-.84-2.1-.19-.54-.24-1.1-.11-1.66.09-.36.58-.86.94-.91.35-.05,1,.33,1.15.7.14.35.27.7.38,1.06.45,1.53.89,3.05,1.38,4.73.31-.82.55-1.51.83-2.18.11-.24.31-.45.48-.65.25-.29.71-.4,1-.25.36.19.6.49.65.87.05.37.05.75-.02,1.11-.3,1.64-.6,3.28-.97,4.91-.26,1.18-.32,2.39-.36,3.6,0,.21.16.43.33.85.35-1.18.6-2.15.82-3.14.08-.36.27-.68.44-1,.23-.43.8-.65,1.17-.49.39.17.61.49.65.85.05.65.11,1.33-.01,1.95-.27,1.46-.53,2.93-1.03,4.32-.52,1.42-.48,2.91-.76,4.36-.01.09.18.25.3.34.04.03.2-.04.24-.11.13-.24.29-.47.35-.73.31-1.16.72-2.29,1.23-3.38.18-.38.82-.63,1.19-.46.46.21.76.57.83,1.07.04.27.03.57-.05.83-.37,1.24-.78,2.47-1.15,3.7-.21.71-.4,1.42-.56,2.14-.03.12.16.29.26.46.27-.04.54-.09.82-.11.69-.03,1.29.67,1.11,1.28-.07.27-.14.54-.27.78-.52.97-1.08,1.93-1.62,2.89-.22.4-.41.82-.59,1.16.17,1.29.34,2.49.5,3.69.05.37.06.75.15,1.11.66,2.65,1.05,5.33,1.27,8.04.17,2.14.51,4.28.88,6.4.45,2.6.4,5.22.58,7.82-.42,3.15-.15,6.33-.23,9.5-.02.74-.06,1.5.03,2.24.19,1.67-.15,3.34.08,5.01-.26,1.67-.04,3.35-.1,5.03-.07,1.67-.02,3.34-.31,5.01-.23,1.25-.31,2.59.29,3.71-.36,1.59-.7,3.03-1.02,4.47-.06.27-.1.55-.09.83,0,.13.14.26.22.39.14-.12.31-.22.4-.36.1-.15.14-.33.19-.51.19-.72.36-1.44.54-2.15.47-1.7,1.03-3.37,1.39-5.08.34-1.63.67-3.27,1.19-4.85.84-2.55,1.7-5.08,2.56-7.61.66-1.92,1.33-3.83,2-5.75.09-.26.17-.53.29-.78,1.16-2.41,2.1-4.91,3.42-7.25.23-.41.51-.75.94-.97.38-.21,1.07,0,1.2.38.25.71.48,1.42.73,2.16-.39,1.52-.73,3.04-1.27,4.53-.78,2.16-1.46,4.37-2.06,6.61-.36,1.33-.56,2.72-.7,4.1-.09.84-.21,1.64-.44,2.45-.3,1.07-.45,2.17-.55,3.29-.14,1.66-.34,3.33-.59,4.97-.51,3.39-.7,6.84-1.14,10.24-.35,2.67-.55,5.35-1.15,7.99-.48,2.15-.73,4.38-1.05,6.58-.15,1.02,0,2.05.17,3.07.08.46.24.96.14,1.38-.19.87.06,1.67.29,2.48.13.45.26.91.39,1.36.41,1.45.92,2.86,1.08,4.37.09.82.41,1.63.6,2.36.16.21.33.21.44-.02.13-.24.23-.51.28-.78.58-3.39,1.6-6.66,2.21-10.04.05-.27.1-.55.19-.81.24-.7.56-1.37.73-2.09.16-.72.24-1.46.37-2.19.32-1.84,1.09-3.53,1.46-5.35.07-.36.15-.73.18-1.09,0-.13-.15-.28-.27-.48-.58.61-1.15,1.2-1.73,1.78-.12.12-.29.24-.47.28-.16.03-.39.01-.52-.09-.12-.09-.2-.3-.23-.48-.06-.4.14-.73.35-1.02,1.7-2.26,2.54-4.9,3.11-7.63.45-2.08,1.06-4.13,1.04-6.31.58-3.39.65-6.84.9-10.27.26-3.53.52-7.05.92-10.56.07-.65.13-1.3.17-1.95.21-4.66.34-9.31.09-13.98-.11-2.15-.06-4.3-.2-6.44-.12-1.95-.11-3.92-.52-5.86-.15-.73-.13-1.49-.18-2.24-.17-2.71-.27-5.42-.52-8.12-.2-2.22-.47-4.45-.75-6.55-.54-.38-.81-.07-1.12.07-.53.23-.91-.02-.95-.6-.01-.28-.06-.56-.03-.83.04-.37.14-.73.23-1.09.23-.8.48-1.59.7-2.4.09-.35.13-.73.18-1.1-.37-.78-.72-1.54-1.11-2.37-.48-.19-1-.4-1.63-.64-.79-.8-1.69-1.64-2.73-2.31-.64-.4-.52-1.2.17-1.57.53-.27,1.06-.34,1.59.02.7.48,1.39.98,2.09,1.47.32.21.67.33,1.06.27.31-.98.3-.98-.09-2.12-.53-.19-1.06-.38-1.56-.57-1.67-1.32-3.22-2.7-4.46-4.37-.09-.59-.17-1.15-.26-1.76-1.03-.65-2.06-1.31-3.09-1.97-.49-.31-.87-.72-1.15-1.24-.22-.39-.12-.95.24-1.25.69-.57,1.32-.62,2.05-.18,1.89,1.14,3.52,2.58,4.81,4.38.72,1.01,1.52,1.92,2.49,2.7.06.05.18.06.24.03.18-.11.25-.29.17-.48-.06-.17-.16-.34-.27-.49-1-1.25-2.02-2.51-3.04-3.76-.96-1.19-1.97-2.3-3.36-3.02-.52-.27-.91-.68-1.15-1.21-.21-.47-.17-1.01.15-1.29.39-.33.84-.33,1.31-.19.17.06.35.15.51.26,1.67,1.12,3.15,2.42,4.25,4.13.2.31.52.54.8.79.06.05.18.05.27.05.19,0,.29-.13.31-.35.13-1.16-.31-2.21-.66-3.28-.08-.26-.27-.51-.45-.72-.43-.5-.84-1.05-1.34-1.47-1.55-1.28-2.66-2.95-3.99-4.43-.4-.45-.27-1.1.21-1.45.36-.26.92-.17,1.2-.72-.26-.53-.57-1.11-.84-1.71-.21-.48.27-1.21.81-1.2.53.01,1.06.12,1.68.19-.15-1.18-1.16-1.98-1.22-3.13.17-.5.57-.67,1.06-.73.42.21.83.42,1.24.63.24-.35.15-.71.11-1.08-.04-.46-.08-.93-.08-1.39,0-.34.52-.88.91-.93.39-.05.76.09,1.03.37.19.19.33.46.45.7.22.41.31.89.7,1.23.09-.12.26-.23.25-.34-.04-.47-.14-.92-.19-1.39-.03-.26.37-.75.63-.83.85-.27,1.83.33,1.91,1.17.11,1.21.12,2.42-.23,3.6-.37,1.24-.7,2.49-1.45,3.58-.39.57-.37,1.22-.08,1.87.02.05.12.1.19.1.09,0,.2-.03.25-.09.53-.55.67-1.3.87-2,.31-1.07.65-2.12,1.16-3.11.21-.4.51-.76.79-1.12.21-.28.68-.39,1.01-.26.37.13.72.36.81.73.11.45.13.93.07,1.38-.06.45-.24.89-.4,1.32-.34.86-.69,1.71-1,2.48.09.28.1.52.22.62.95.76,1.18,1.66.72,2.75-.75,1.78-1.22,3.68-2.04,5.43-.35.74-.48,1.58-.7,2.38-.02.06.08.18.15.23.04.03.15,0,.21-.04.41-.27.51-.74.73-1.14.4-.73.91-1.37,1.66-1.79.27-.15.81.04.96.35.26.55.27,1.11.08,1.64-.19.52-.45,1.01-.72,1.49-.66,1.21-1.34,2.41-2.01,3.62-.25.46-.14.71.45,1.12.74.51.96.93.78,1.6-.14.53-.32,1.06-.52,1.58-.45,1.21-.93,2.41-1.36,3.63-.15.42-.17.89-.26,1.38.44.42.84.81,1.27,1.23.28,1.26-.67,2.24-.83,3.77.04,1.33.1,3.01.42,4.67.12.64.16,1.3.23,1.95.15,1.68.28,3.35.54,5.02.23,1.48.26,2.98.33,4.48.12,2.8.16,5.61.64,8.39-.1,1.4.24,2.78.26,4.18.03,1.4.07,2.8.14,4.2.25,4.77-.03,9.52-.08,14.27-.02,1.3-.25,2.59-.3,3.89-.05,1.21-.03,2.43-.3,3.61-.02.09-.03.18-.03.28.06,2.06-.3,4.07-.46,6.11-.09,1.21-.17,2.41-.32,3.61-.15,1.28-.09,2.6-.1,3.91,0,.12.17.25.3.43.38-.79.59-1.59.72-2.4.32-1.92.66-3.83,1.27-5.68.23-.69.19-1.47.34-2.19.84-3.91,1.07-7.9,1.36-11.9.23-3.14.46-6.3,1.25-9.37.21-.8.3-1.64.48-2.46.09-.46.34-.84.67-1.18.53-.55,1.24-.41,1.53.32.21.53.39,1.06.59,1.59.03.09.04.19.05.24.18,1.84-.31,3.55-.62,5.27q-.7,3.79-.81,6.89c-.1,2.51-.12,5.03-.32,7.54-.18,2.23-.19,4.46-.32,6.69-.23,4-.32,8.01-.78,11.98-.37,3.13-.74,6.27-1.03,9.41-.25,2.68-.7,5.35-.56,8.07.02.37.07.73.11,1.15.22-.11.43-.13.48-.24.67-1.42,1.35-2.83,1.97-4.27.29-.68.48-1.4.29-2.18-.08-.36-.15-.76-.08-1.11.38-2.02.13-4.1.26-6.14.19-2.97.39-5.95.83-8.88.27-1.83.68-3.64.94-5.48.24-1.75.68-3.45,1.07-5.16.27-1.18.62-2.33.93-3.49.18-.63.36-1.25.52-1.88.46-1.79.82-3.61.69-5.47.69-1.46,1.13-2.96,1.39-4.52.01-.09.05-.18.08-.27.93-3.67,1.8-7.37,2.7-11.05.58-2.33,1.35-4.61,2.06-6.91.24-.79.51-1.58.76-2.38.03-.08.01-.18.03-.45-.39-1.07-1.03-2.24-1.38-3.52-.34-1.26-.89-2.48-1.34-3.72-.09-.26-.18-.54-.18-.82,0-.27.05-.54.14-.8.14-.41.84-.56,1.18-.31.7.53,1.24,1.17,1.54,2,.31.88.62,1.76.92,2.62.3.15.57.2.73-.09.18-.32.31-.67.43-.93-.05-.27-.03-.48-.11-.64-.45-.94-.85-1.88-1.14-2.89-.35-1.21-.41-2.41-.38-3.61.02-.84.09-1.68.24-2.49.12-.63.4-1.21.66-1.94-.09-.72-.22-1.55-.29-2.39-.06-.72.24-1.25.93-1.52.25-.1.46-.27.66-.39.02-.23.1-.44.04-.59-.61-1.5-.68-3.11-1.15-4.64-.11-.38.05-.73.34-1,.3-.28.96-.34,1.3-.09.37.27.7.6,1.09.86.18.12.39,0,.44-.16.08-.27.16-.54.15-.82-.05-1.12-.15-2.24-.2-3.36-.02-.47,0-.93.03-1.39.03-.44.49-.9.89-.92.43-.02,1.02.32,1.16.68.04.09.1.17.12.26.36,1.92,1.01,3.84.57,5.81-.15.66.1,1.29.12,1.94,0,.26.14.26.66,0,.03-2.02.58-4,.48-6.08,0-.09.02-.19.03-.27.06-.46.71-1,1.19-1,.36,0,.87.49.92.94.09.84.15,1.67.22,2.51.03.45-.03.92.29,1.32.43.1.73-.11.92-.43.85-1.44,1.95-2.67,3.17-3.79.27-.25.58-.43.92-.68.74.04,1.48.06,2.22.13.57.04,1.07.49,1.21,1.03.14.5-.06.91-.31,1.3-.1.15-.23.3-.39.39-1.39.77-2.44,1.93-3.5,3.13-.51.15-1.04.32-1.61.49-1.16,1.05-1.63,2.62-2.49,3.69-.3.81-.15,1.47-.06,2.11.1.72-.24,1.25-.63,1.78-.08.03-.17.04-.24.09-.03.02-.02.11-.03.17.19.01.25-.1.19-.33.36-.06.76-.04,1.09-.18.94-.38,1.83-.86,2.64-1.49.43-.34.97-.51,1.52-.6.67-.1,1.31.59,1.12,1.24-.08.26-.24.49-.35.71-1.44.88-2.85,1.74-4.28,2.59-1.19.7-2.45,1.25-3.81,1.28-.6.47-.83,1.07-.98,1.7-.11.46.38.94.85.8.36-.1.7-.24,1.06-.33.99-.24,1.98-.48,2.98-.66.35-.06.74.03,1.1.1.43.09.74.72.56,1.12-.33.73-.82,1.15-1.69,1.18-1.5.05-2.9.53-4.26,1.06-.07.03-.16.18-.14.21.07.13.19.33.29.33.84,0,1.67-.04,2.51-.04.77,0,1.41.67,1.43,1.46,0,.31-.34.81-.6.84-.27.03-.55.08-.82.07-.66-.03-1.3-.01-1.94.11-1.93.37-1.94.36-3.87.09-.67,1.28-1.2,2.64-1.45,4.11-.04.23.28.52.57.48.37-.05.73-.09,1.09-.17.72-.17,1.43-.37,2.15-.56.29-.07.79.21.91.53.1.27.11.56-.1.77-.25.26-.5.57-.82.71-1.58.73-3.13,1.55-4.89,1.8-.15.26-.33.48-.42.73-.39,1.13-.74,2.27-1.13,3.41-.54,1.56-1.18,3.08-1.32,4.78-.06.82-.43,1.61-.61,2.41-.55,2.44-1.23,4.83-1.86,7.24-.46,1.79-.6,3.65-1.2,5.41-.11.33-.08.74-.03,1.11.1.74.21,1.48.39,2.21.18.74.3,1.49.16,2.22-.2,1.02-.14,2.02.02,3.05.21,1.29.3,2.6.43,3.9.11,1.11.31,2.21.17,3.34-.08.64-.04,1.31.08,1.95.49,2.69.47,5.4.58,8.1.15,3.54.28,7.09.29,10.64,0,2.14.26,4.29.42,6.43.04.46.15.93.22,1.39.09.65.24,1.29.26,1.94.2,5.32.61,10.64.59,15.95,0,3.74-.21,7.45-.54,11.15-.23,2.5-.44,5-.66,7.5,0,.08-.04.18-.03.28.24,2.44-.2,4.8-.56,7.18-.05.34.29.75.64.8.19.03.37.09.55.09,2.04-.07,4.09.16,6.14-.04,1.48-.14,2.97-.16,4.46-.23.61-.03.88-.38.61-.89-.8-1.5-.9-3.03-.59-4.63.44-2.27.85-4.55,1.25-6.83.17-1,.3-2.02.39-3.03.39-4.27,1.14-8.45,2.59-12.47.4-1.13.66-2.31,1.01-3.46,1.2-3.88,2.41-7.76,3.61-11.64.19-.61.3-1.26.4-1.9.12-.82.19-1.66.29-2.55.42-.66.94-1.31,1.29-2.05.39-.83.67-1.72.93-2.61.7-2.4,1.73-4.66,2.83-6.89.21-.41.44-.81.59-1.25.09-.24,0-.54,0-.82-.05.09.3-.22.06.06-.2.18-.45.33-.6.54-.59.82-1.14,1.67-1.73,2.49-1.18,1.63-1.19,1.63-1.7,3.69-2.51,2.32-2.85,2.9-3.52,6.15-1.53,1.25-2.3,3.12-3.03,5.02-.2.51-.43,1.01-.62,1.53-.56,1.56-1.33,3.03-1.91,4.58-.59,1.54-.98,3.17-1.44,4.77-.39,1.33-.72,2.68-1.12,4-.15.53-.4,1.03-.65,1.51-.69,1.31-1.26,2.67-1.48,4.15-.01.09-.01.19-.05.27-.91,1.84-1.14,3.9-1.72,5.85-.79,2.65-1.38,5.36-2.05,8.06-.05,1.5-.43,2.93-.66,4.39-.1.66-.34,1.25-.73,1.78-.38.52-1.27.52-1.67-.07-.2-.3-.39-.67-.41-1.02-.04-.65-.02-1.31.1-1.95.39-2.09.76-4.19,1.36-6.23.5-1.68.88-3.4,1.34-5.1.51-1.87,1.05-3.73,1.53-5.43-.02-.64.04-1.13-.06-1.57-.49-2.12-.5-4.27-.72-6.41-.07-.74-.2-1.48-.28-2.22-.06-.65-.18-1.33-.08-1.95.13-.76-.18-1.49-.07-2.22.11-.75.07-1.48-.08-2.22-.06-.27-.06-.57,0-.83.22-1.11.11-2.23.09-3.35-.05-3.27-.13-6.53-.15-9.79-.01-1.68.09-3.35.15-5.03.01-.65.05-1.3.06-1.96.05-1.86.01-3.71.31-5.56.24-1.45.23-2.96.4-4.44.17-1.48.51-2.92.64-4.4.03-.27.07-.56.16-.82.96-2.7,1.33-5.59,2.29-8.28.46-1.3,1.02-2.57,1.61-3.81.19-.39.6-.69.96-.96.56-.42,1.38-.09,1.55.61.15.64.27,1.28.44,2.09-.3,1.11-.63,2.36-.98,3.6-.27.98-.55,1.95-.87,2.92-.91,2.75-1.22,5.6-1.1,8.51.1,2.24.19,4.48.37,6.72.13,1.57.42,3.15.64,4.72.01.08.09.14.14.21.16-.06.41-.08.47-.2.27-.58.64-1.16.71-1.78.14-1.43.9-2.61,1.25-3.95.33-1.25.76-2.47,1.28-3.65.23-.5.48-1.01.6-1.54.14-.65.39-1.23.77-1.75.56-.78.73-1.69.71-2.64-.02-1.87,0-3.73-.11-5.6-.16-2.72.03-5.4.47-8.07.44-2.65.94-5.28,1.76-7.85.34-1.05.47-2.17.78-3.24.77-2.66,1.59-5.31,2.39-7.96.17-.56.49-.98,1.01-1.24.4-.2,1.06-.04,1.25.33.32.68.61,1.37.95,2.15-.13.57-.25,1.2-.42,1.82-.28,1.07-.62,2.13-.86,3.21-.2.91-.45,1.79-.8,2.64-.42,1.02-.71,2.09-.72,3.23,0,.74-.18,1.47-.24,2.21-.16,2.04-.39,4.07-.42,6.12-.02,1.39.2,2.79.4,4.18.13.93.2,1.86.2,2.79,0,1.58.13,3.15.45,4.73.28,1.37.24,2.79.36,4.19.06.74-.08,1.49.24,2.23.13-.08.33-.13.36-.24.18-.62.35-1.25.46-1.88.45-2.56,1.02-5.08,1.97-7.5.57-1.46,1.03-2.96,1.54-4.44.52-1.48,1.11-2.93,1.8-4.34.65-1.32,1.15-2.72,1.76-4.06.91-2.01,1.85-4.01,2.8-6,.84-1.74,1.49-3.57,2.41-5.27.92-1.69,1.64-3.5,2.62-5.16.26-.45.1-.85-.21-1.27-.55-.76-.62-1.62-.05-2.34.94-1.19,1.27-2.64,1.76-4.02-.17-.75-.38-1.47-.5-2.2-.08-.49.17-.9.59-1.16.48-.3,1.15-.24,1.55.17.26.27.46.59.68.9.14.2.26.43.51.85.05-.79.14-1.35.11-1.9-.09-1.49-.24-2.98-.37-4.47-.06-.74.23-1.08,1.1-1.3.26-.06.51-.15.81-.23-.09-.78-.13-1.51-.25-2.24-.11-.64-.31-1.27-.48-1.91-.13-.52.03-.99.43-1.2.45-.24.89-.18,1.29.15.07.06.13.14.27.28.31,1.28.64,2.64.99,4.01.09.36.23.71.4,1.05.05.11.26.14.49.25.03-.69.03-1.34.07-1.99.05-1.02-.03-2.04.2-3.06.13-.63.1-1.3.08-1.95-.03-.55-.15-1.1-.23-1.58.17-.59.58-.77,1.18-.9.32.17.73.38,1.2.62.14-.22.37-.43.39-.66.13-1.67.3-3.34.07-5.03-.03-.28-.05-.56-.07-.84-.03-.59.43-1.1.98-1.09.56,0,1.16.45,1.27.95.06.27.14.55.15.82.03,1.03.07,2.06.05,3.07-.03,1.21-.13,2.42-.17,3.63,0,.16.11.36.24.49.11.1.37.22.46.17.66-.41,1.02-1.03,1.08-1.82.02-.19,0-.38-.02-.56-.27-2.25-.11-4.46.27-6.8-.02-.79-.54-1.66-.37-2.62.09-.53.49-1.01,1.05-1.15.43-.11,1.07.2,1.16.59.18.82.33,1.64.47,2.39-.33,1.63-.58,3.19-.23,4.79-.24.06-.29.13-.13.16.01,0,.05-.14.07-.22.13-.11.37-.2.39-.33.2-1.75.74-3.45.61-5.24-.01-.19,0-.38.04-.56.09-.48.33-.86.78-1.07.35-.16.98.01,1.3.32.5.47.84,1.03,1.01,1.67,0,.1-.02.19-.01.28.01.7-.53,1.41.11,2.1.75.08,1.19-.45,1.67-.85.72-.59,1.46-1.11,2.41-1.25.19.05.41.06.54.16.52.43,1.08.72,1.76.81.39.05.69.34.76.75.06.4-.16.7-.43.96-.13.13-.27.25-.42.36-1.45.97-2.91,1.94-4.46,2.98-.52.04-1.16.09-1.73.15-.71.5-1.01,1.16-1.19,1.93.15.21.31.43.48.66.67.07,1.32.09,1.96.23.68.14,1.18.56,1.3,1.31-.2.33-.48.54-.86.64-.18.05-.36.1-.55.09-2.11-.08-4.01.7-5.93,1.34-1.04.34-1.92,1.04-2.82,1.67-.1.07-.12.35-.07.5.05.14.24.32.38.34.47.07.93.04,1.4.1.59.07,1.04.41,1.4.88.32.43.38,1.04.14,1.29-.27.29-.64.38-1.02.32-.55-.1-1.09-.26-1.76-.43-.5.19-1.09.46-1.71.63-.53.15-1.09.19-1.54.27-1.02.84-1.67,1.83-2.17,2.93-.3.67-.73,1.27-1.07,1.92-.06.12.03.34.09.49.02.07.16.14.24.13.56-.04,1.11-.09,1.66-.17.55-.08,1.09-.24,1.64-.29.6-.06,1.08.2,1.45.7.28.38.15,1-.27,1.18-.17.07-.33.19-.5.22-1.56.25-3.08.62-4.58,1.12-.42.14-.91.09-1.37.14-.44.06-.58.38-.57.85.23.08.49.25.73.25.55-.03,1.11-.09,1.64-.24.61-.17,1.19-.46,1.75-.67.22.12.42.19.52.33.34.43.29.98-.08,1.22-.3.21-.6.43-.94.57-1.36.57-2.73,1.12-4.1,1.66-.6.24-1.21.45-1.73.65-.95,1.02-1.79,1.99-2.09,3.31-.02.09-.06.18-.09.26-.37.94-1.25,1.58-1.48,2.63-.19.92-.66,1.72-1.2,2.47-.16.22-.31.46-.39.72-.48,1.41-1.26,2.67-1.82,4.03-.98,2.39-2.09,4.71-3.18,7.05-.7,1.5-1.32,3.05-1.97,4.57-1.78,4.16-3.27,8.42-4.52,12.78-.52,1.84-.63,3.63-.13,5.49.21-.02.45.04.55-.05.78-.77,1.51-1.57,2.08-2.55,1.02-1.75,2.07-3.48,3.23-5.13,1.22-1.73,2.58-3.35,3.89-5,.11-.14.3-.21.45-.31.36-.25,1.03-.03,1.19.38.29.72.34,1.45.29,2.23-.11.22-.19.49-.34.72-1.74,2.6-3.32,5.29-5.24,7.77-.73.94-1.32,1.99-1.76,3.11-.98,2.49-2.06,4.94-3.29,7.31-.51.98-.98,1.98-1.31,3.04-.12.38-.06.83.3.99,1.02.46,1.29,1.31,1.39,2.28.03.28.04.56.04.84,0,1.78.24,3.54.51,5.3.17,1.02.21,2.05.31,3.07.08.74.01,1.5.33,2.2.3.14.59.08.64-.21.61-2.71,1.72-5.27,2.1-8.04.58-1.66,1.15-3.31,1.74-4.96.37-1.05.76-2.08,1.17-3.11.48-1.2.94-2.41,1.52-3.56.78-1.57,1.63-3.09,2.5-4.61.32-.55.76-1.03,1.17-1.52.11-.13.31-.18.51-.29.42.06.86.13,1.3.21.4-.67.47-1.43.54-2.15.19-2.14.86-4.18.95-6.33.02-.44.27-.87.48-1.28.34-.67.54-1.35.67-2.1.23-1.27.57-2.52.88-3.78.25-.99.52-1.96.56-3,.02-.55.2-1.09.3-1.64.23-1.37.59-2.71.72-4.11.09-1.01.45-1.98.67-2.98.28-1.22.99-2.17,1.85-3.01.17-.16.54-.27.75-.19.52.2,1.03.47,1.5.78.41.27.59,1.12.38,1.54-.53,1.07-1.06,2.15-1.62,3.2-.57,1.06-.96,2.2-1.15,3.39-.19,1.19-.68,2.33-.54,3.57-.65,2.24-.73,4.56-.94,6.88-.12,1.38-.43,2.75-.66,4.12-.25,1.47-.26,2.95-.08,4.51.19-.12.37-.15.41-.25.71-2.1,1.39-4.21,2.11-6.31.3-.87.63-1.73,1-2.57,1.6-3.63,3.27-7.22,4.79-10.88.64-1.54,1.44-2.98,2.13-4.49.95-2.09,1.91-4.2,3.05-6.19,1.91-3.36,3.76-6.75,5.83-10.01.79-1.24,1.44-2.55,2.1-3.73-.05-1.36-.03-2.57-.14-3.78-.08-.94-.03-1.85.17-2.77.17-.81.27-1.63.39-2.41.52-.63,1.15-.61,1.8-.37.47.17.76.58.88,1.05.08.36.14.75.11,1.11-.07.74-.21,1.47-.28,2.21,0,.11.18.26.3.36.06.04.19.02.27-.03.15-.1.31-.21.42-.35,1.68-2.19,3.51-4.25,5.44-6.22.06-.06.09-.16.18-.3-.08-.2-.15-.47-.29-.69-.26-.39-.61-.72-.86-1.12-.14-.22-.25-.52-.25-.79,0-1.12.12-2.23.68-3.23.24-.42.57-.7,1.06-.81.52.09.87.4.92.92.07.74.03,1.49.09,2.24.02.27.15.53.25.79.09.22.53.4.71.3,1.34-.74,2.42-1.74,2.61-3.33.21-1.68.88-3.2,1.3-4.81.06-.23.34-.42.55-.58.45-.37,1.35-.14,1.56.63.08.27.11.55.11.82,0,.55-.03,1.1-.04,1.57.18.23.33.22.48.04.66-.77,1.28-1.56,1.95-2.32.55-.62,1.17-1.18,1.92-1.55.76-.37,1.55-.59,2.42-.28.26.09.55.1.9.16,1.01-.37,1.89-1.01,2.7-1.77.53-.5,1.07-1.01,1.65-1.44.29-.21.68-.22,1.06-.02.37.2.57.51.62.89.08.57-.05,1.13-.39,1.58-.49.66-1.03,1.29-1.58,1.98-1.24.25-2.51.55-3,1.95.7.35,1.38.67,2.04,1.03.37.2.53.97.23,1.24-.76.7-1.21,1.59-1.63,2.51-.14.31-.54.49-.96.45-.09,0-.2,0-.27-.04-1.14-.59-2.16-.33-3.17.28-.94.57-1.92,1.09-2.88,1.61-.73.39-1.47.76-2.03,1.05-1.19.1-1.6-.9-2.47-1.19-1.23.26-1.78,1.45-2.71,2.15-.1.07-.07.34-.09.52.41.3.88.31,1.34.29,1.95-.06,3.91-.14,5.86-.21.53-.02,1,.3,1.09.71.13.64-.06,1.2-.51,1.46-.16.09-.31.2-.48.26-.96.35-1.94.61-3,.55-.19-.01-.37,0-.56-.02-1.16-.12-2.24.14-3.23.66-1.14.6-2.33,1.08-3.47,1.68-.33.17-.63.38-.7.78.42.31.91.14,1.35.27.44.14.88.31,1.28.55.56.33.78,1.14.51,1.74-.07.15-.23.33-.38.36-.36.07-.74.11-1.1.06-.87-.1-1.62.1-2.37.55-1.98,1.15-4.06,2.15-5.86,3.58-.28.23-.65.34-.98.5-.6.29-1.02.75-1.37,1.31-.72,1.18-1.49,2.32-2.21,3.49-.34.54-.63,1.12-.93,1.69-.17.33-.27.7-.48.99-1.91,2.71-3.38,5.69-4.81,8.67-1.43,2.98-2.93,5.94-4.04,9.08-.65,1.82-1.61,3.52-2.34,5.31-1,2.47-2.16,4.88-2.94,7.45-.51,1.68-1.11,3.33-1.36,5.09-.13.91-.34,1.82-.18,2.77.02.09.12.23.15.22.14-.03.37-.09.39-.18.93-3.49,2.19-6.87,3.55-10.2,1.08-2.64,2.11-5.31,3.46-7.83.65-1.22,1.18-2.5,1.76-3.75.97-2.09,1.94-4.17,2.93-6.25.24-.5.54-.97.83-1.43.09-.16.23-.3.38-.4.23-.13.48-.25.74-.33.26-.08.27-.06,1,.54.07.41.19.87.21,1.33.02.46.03.97-.14,1.37-.85,1.96-1.28,4.05-1.95,6.06-.11.35-.23.7-.35,1.05-.83,2.45-1.44,4.95-1.69,7.56-.2,2.12-.66,4.21-1.01,6.32-.36,2.19-.76,4.38-1.08,6.58-.09.63,0,1.3.04,1.95.02.35.53.58.87.41.74-.36,1.48-.75,2.23-1.1.25-.12.53-.15.8-.22.29-.07.81.32.82.62.03.55.05,1.11.03,1.67-.01.38-.19.76-.51.94-1.91,1.15-3.31,2.9-5.06,4.24-.43.33-.81.76-1.14,1.19-.85,1.08-1.65,2.21-2.49,3.3-.33.44-.67.89-1.06,1.26-1.43,1.35-2.23,3.14-3.18,4.81-.18.31-.32.69-.33,1.05-.04,1.86-.23,3.72.22,5.58.01.06.1.1.16.15.43-.08.56-.46.73-.76.87-1.52,1.71-3.06,2.57-4.58.27-.48.5-1,.88-1.39,1.41-1.47,2.29-3.33,3.5-4.94,1.15-1.55,2.17-3.19,3.27-4.78.99-1.44,1.94-2.91,2.91-4.35,1.55-2.29,2.94-4.66,4.39-7.01,1.54-2.51,3.12-5,4.88-7.35,1.93-2.58,3.92-5.1,5.89-7.64.34-.43.72-.85,1.25-1.06.54-.21,1.08-.3,1.5.29.07.82-.46,1.64.17,2.33-.21.39-.31.65-.48.85-1.32,1.54-2.37,3.27-3.45,4.99-.93,1.48-1.88,2.95-2.77,4.46-.65,1.11-1.24,2.25-1.84,3.39-.51.98-.87,2.02-1.19,3.1-.59,2.04-1.22,4.07-1.91,6.08-.54,1.59-.87,3.21-1.03,4.9.25.38.6.36.94.16.64-.37,1.28-.73,1.86-1.19,2.04-1.57,4.3-2.82,6.46-4.21,1.31-.85,2.76-1.47,4.22-2.04.33-.14.72-.16,1.09-.18.39-.01.71.18.97.6.02.67.05,1.4.07,2.13-.3.29-.54.58-.83.79-1.33.99-2.48,2.17-3.56,3.42-1.87,2.15-3.74,4.29-5.6,6.46-1.13,1.32-2.31,2.62-2.95,4.29-.1.25-.26.49-.43.7-1.24,1.49-2.22,3.14-3.18,4.82-.96,1.67-2.09,3.25-3.12,4.88-.24.38-.43.81-.61,1.23-.35.75-.68,1.51-1.02,2.26-.15.34-.36.65-.48,1-1.1,3.13-2.38,6.19-3.19,9.43-.15.63-.33,1.26-.58,1.85-1.09,2.57-1.54,5.31-1.94,8.06-.06.46-.11.92-.2,1.38-.25,1.35-.26,1.35.04,3.3.3.42.82.43,1.35.79.52.59,1.23,1.23,1.37,2.26-.58.87-1.7,1.07-2.14,1.88-3.36.06-6.53.12-9.7.18-1.68.64-3.54.12-5.1.61-.42.33-.57.66-.61,1.03-.06.45-.07.92-.13,1.39-.06.44-.6.73-1.08.57-.17-.06-.32-.2-.54-.34-.27-.93-.56-1.92-.8-2.76-.39-.42-.74-.55-1.12-.55-2.33-.03-4.67-.36-6.98.08-.18.04-.37.08-.56.06-2.8-.34-5.59.07-8.4-.13-1.12-.09-2.24-.03-3.36-.03-1.24,0-1.68.18-1.81,1.52-.03.37-.1.74-.2,1.08-.12.37-.41.6-.76.76-.6.27-1.45-.21-1.49-.85-.03-.55.02-1.11-.04-1.66-.03-.24-.25-.48-.4-.73-.59-.03-1.15-.11-1.7-.06-1.67.13-3.35.15-5.02.33-2.5.28-5.03.17-7.55.16-.47,0-.93,0-1.42,0-.48.23-.98.47-1.54.74-.31-.08-.71-.11-1.02-.3-.69-.39-1.39-.54-2.16-.53-1.86.06-3.72.07-5.53.11-.48.42-.88.78-1.22,1.07-1.07.31-1.59-.6-2.53-.98-1.31-.15-2.8-.05-4.26-.05-.2.07-.41.09-.55.19-.57.38-1.19.59-1.84.28-1.24-.59-2.53-.66-3.84-.59-1.21.06-2.42.09-3.63.14-.28,0-.56.05-.84.02-2.8-.31-5.6-.24-8.39-.08-.65.04-1.31,0-1.7,0-.82.24-1.1.75-1.52,1.1-.29.25-.67.34-1.03.14-.49-.28-.96-.6-1.59-1-.86-.11-1.88-.17-2.91-.22-1.49-.09-2.99-.3-4.48-.28-1.85,0-3.73-.36-5.58-.04-.36.06-.73.03-1.1.01-1.49-.06-2.99-.15-4.48-.19-.56,0-1.11.09-1.66.13-.27.03-.58.13-.82.06-1.1-.36-2.25-.14-3.34-.4-2.5-.59-5.02-.42-7.54-.53-1.67-.07-3.36.04-5.04.06-1.03.02-2.05-.04-3.06-.3-.72-.18-1.48-.21-2.23-.23-1.03-.04-2.06-.02-3.08,0-.37,0-.73.07-1.11.12-.32.35-.59.74-.95,1.01-.99.74-1.75.6-2.56,0-.32-.24-.54-.54-.63-.91-.08-.36-.13-.74-.15-1.11-.04-.65,0-1.31-.08-1.96-.12-1.01-.47-2.01-.17-3.05-.18-1.03-.09-2.04,0-3.06.12-1.49.24-2.97.35-4.45.05-.74.09-1.49.07-2.24-.06-1.87-.11-3.73,0-5.59.04-.84,0-1.67-.42-2.47-.17-.33-.3-.7-.34-1.07-.12-1.25-.67-2.34-1.3-3.4-.43-.74-.83-1.49-1.31-2.19-.76-1.1-1.44-2.23-1.71-3.55-.87-1.55-1.4-3.27-2.63-4.65-1.58-1.76-2.98-3.68-4.23-5.69-.8-1.29-1.63-2.55-2.47-3.82-.26-.39-.57-.76-.87-1.12-.18-.21-.41-.4-.62-.59-.77-.73-1-1.81-1.83-2.52-.71-.6-1.26-1.4-1.78-2-.15-.43-.25-.69-.33-.97-.58-1.96-1.76-3.53-3.28-4.88-.07-.06-.16-.11-.23-.18-1.58-1.66-3.37-3.05-5.45-4.04-.25-.12-.47-.32-.69-.5-.37-.31-.68-.68-.61-1.2.07-.6.44-1.01.97-1.24.63-.27,1.3-.24,1.91.07,1.94.99,3.9,1.95,5.28,3.76.11.15.27.27.4.41,1.87,2.04,3.93,3.85,6.3,5.27,1.18.71,1.94,1.81,2.8,2.8.25.29.43.63.64.94,1.34,1.95,2.68,3.89,4.48,5.49,1.13,1,2.08,2.19,2.95,3.46,1.07,1.56,2.36,2.97,3.27,4.64.14.25.34.46.53.67.89.98,1.79,1.96,2.71,2.92.09.09.31.06.47.07.04-.18.11-.36.11-.53-.04-3.93-.23-7.85-.51-11.77-.03-.46-.13-.93-.2-1.39-.12-.83-.28-1.67-.36-2.5-.21-2.14-.29-4.28-.62-6.42-.3-1.94-.22-3.92-.3-5.88-.01-.37-.03-.76.04-1.11.38-1.65.28-3.34.28-5.01,0-2.34.24-4.65.46-6.96.22-2.22.42-4.46,1-6.59.63-2.33.89-4.74,1.54-7.05.07-.27.11-.54.16-.82.11-.66.04-1.3-.23-1.92-.75-1.74-1.49-3.47-2.24-5.2-.49-1.13-1.01-2.24-1.38-3.41-.25-.8-.63-1.58-1.01-2.33-1.16-2.27-2.34-4.54-3.53-6.79-.3-.58-.58-.7-1.09-.38-.61.38-1.22.44-1.85.14-1.01-.48-1.99-.44-2.99-.08-.61.22-1.21.41-1.74.58-.7-.01-1.1-.5-1.61-.72-.43-.18-.87-.32-1.3-.47.02-.24-.03-.48.06-.57.54-.49,1.12-.94,1.67-1.38,1.81-.26,3.57-.35,5.35-.21.37.03.74-.02,1.01-.32q-.02-1.42-.81-2.19c-.4.23-.8.46-1.2.68-.08.04-.18.04-.33.07-.84-.23-1.74-.48-2.54-.7-.86.08-1.6.15-2.34.21-.88.08-1.66-.23-2.41-.67-.36-.2-.72-.89-.6-1.19.18-.46.51-.79,1-.85,1.48-.19,2.96-.24,4.45.21.99.3,2,.48,3.01.7.07.01.15-.09.23-.13.09-.39-.09-.72-.27-1.05-.26-.48-.64-.63-1.15-.5-.26.07-.52.2-.79.22-.36.03-.73-.02-1.12-.04-.63-.45-1.21-.95-1.85-1.34-1.04-.63-2.05-1.29-3.33-1.47-.95-.13-1.73-.76-1.85-1.82.32-.87,1.01-1.12,1.8-1.06.95.07,1.84.41,2.63.97.7.49,1.34,1.05,2.05,1.53.46.31.98.53,1.42.76.4-.17.46-.44.38-.7-.26-.83-.87-1.46-1.37-2.14-.45-.62-.96-.84-1.68-.44-.51.28-1.08.17-1.6-.16-.08-.05-.17-.09-.24-.15-1.84-1.39-3.83-2.43-6.09-2.9-.17-.03-.31-.21-.46-.31-.27-.19-.48-.74-.34-1.01.24-.49.52-.96.73-1.37.03-.75-.66-.99-.84-1.53,0-.83.65-1,1.27-1.24.95.2,1.67.82,2.37,1.46.83.78,1.63,1.59,2.47,2.36.19.18.48.26.73.37.04.01.2-.12.19-.18-.07-.48-.33-.89-.72-1.17-.46-.33-.97-.6-1.54-.95-.18-.35-.4-.76-.6-1.18-.42-.86-.99-1.61-1.68-2.27-.89-.85-1.8-1.69-2.68-2.56-.87-.87-1.75-1.74-2.39-2.81-.31-.52-.24-1.35.34-1.75.44-.3.9-.36,1.27-.03.43.37.84.77,1.26,1.15.25.22.66.3.71.15.1-.29-.01-.55-.17-.77-.44-.6-.91-1.19-1.31-1.72,0-.49.1-.83.37-1.11.42-.44,1.1-.49,1.5-.11.77.72,1.43,1.51,1.78,2.52.33.98.66,1.96,1.01,2.94.34.98.69,1.95,1.07,2.92.04.12.31.25.43.22.15-.03.3-.2.39-.34.1-.15.21-.36.16-.51-.33-1.19-.36-2.4-.51-3.61-.12-1.04-.53-2-.95-2.95-.4-.91-.18-1.61.61-2.18.46-.34,1.17-.21,1.48.27.15.23.33.47.41.73.33,1.08.63,2.16.93,3.25.08.28.43.44.66.29.23-.15.42-.35.65-.5.5-.33,1.16-.08,1.33.51.14.45.29.91.33,1.37.12,1.12.26,2.24.25,3.36-.01,2.06.18,4.11.3,6.16.08,1.32.4,2.59.77,3.85.09.28.4.35.74.28.06-.24.17-.5.16-.77-.04-2.24,0-4.48-.52-6.7-.09-.36-.06-.74-.06-1.12.02-.73.54-1.35,1.33-1.57.15-.04.41.02.5.14.23.29.47.61.57.95.37,1.27.68,2.53.52,3.87-.1.82.03,1.68.03,2.52,0,1.68-.01,3.36-.03,5.04,0,.64-.51,1.22-.14,1.9.41-.26.56-.7.57-1.12.04-1.5.43-2.94.6-4.41.07-.57.29-1.08.7-1.46.19-.18.48-.25.74-.32.19-.06.65.23.7.39.22.83.34,1.69.11,2.48-.49,1.71-.37,3.51-.73,5.23-.23,1.08-.32,2.2-.44,3.31-.02.26.07.55.19.79.07.13.3.19.46.25.04.01.17-.08.18-.14.08-.36.17-.71.21-1.07.13-1.21.34-2.4.89-3.47.16-.32.42-.6.67-.85.35-.36,1.29-.08,1.4.44.1.45.19.93.14,1.37-.13,1.21-.34,2.39-.5,3.59-.13.92-.26,1.84-.35,2.76-.13,1.12.07,2.24.26,3.34.06.36.22.73.41,1.04.81,1.3,1.28,2.73,1.88,4.12,1.01,2.34,2.03,4.68,2.97,7.04.21.53.42,1.06.92,1.4.54.13,1.07-.36,1.68.07.53.58.86,1.36,1.21,2.1-.04.86-.04,1.7-.14,2.52-.09.73-.29,1.45-.45,2.21.05,1.08.65,2.12.59,3.27-.02.34.21.72.33,1.07,1.17,3.38,2.27,6.78,2.94,10.29.24,1.28.64,2.55.97,3.82.26,1.01.33,2.03.31,3.06-.02.48-.2.9-.5,1.27-.17.21-.55.36-.73.23-.15-.1-.35-.23-.39-.37-.25-1-.52-2-.69-3.01-.36-2.22-2.14-8.51-3.05-10.55-.1-.22-.29-.39-.52-.68-.04.4-.12.68-.08.95.24,1.85.08,3.72.41,5.57.31,1.77.32,3.54.4,5.31.18,3.83.27,7.66.42,11.48.04,1.22.02,2.43-.15,3.63-.13.84-.17,1.67-.01,2.51.39,2.13.41,4.28.56,6.43.09,1.21.04,2.42.44,3.61.27.8.26,1.67.12,2.5-.29,1.75.15,3.53,0,5.28.7,2.87.48,5.77.62,8.65.07,1.39,0,2.81.67,4.13.12.24.13.55.17.82.47,3.39.79,4.41,2.45,7.7.03.07.17.08.25.12.08-.15.22-.29.22-.44.1-2.79.18-5.58.26-8.38.01-.37,0-.74,0-1.12,0-2.05-.26-4.12.18-6.14-.03-1.86-.11-3.74-.09-5.6.06-4.49-.4-8.97-.42-13.45,0-2.24-.05-4.48-.07-6.72,0-.28-.03-.56,0-.84.42-3.8.19-7.64.17-11.46-.02-3.72-.37-7.46-.58-11.19-.02-.47-.08-.93-.14-1.4-.08-.56-.25-1.11-.24-1.66.01-.65.17-1.28.26-1.87.33-.56.73-.91,1.37-.86.08.05.18.08.23.16.48.7.94,1.41,1.44,2.15-.08,1.67.22,3.33.5,4.99.28,1.66.24,3.36.72,5,.1.36.14.74.16,1.11.11,2.35.64,4.64,1.12,6.94.12.55.26,1.11.27,1.67.05,1.61.64,3.13.81,4.71.58,1.05.52,2.18.54,3.3.02,1.61.6,3.13.87,4.7.12.73.42,1.45.52,2.19.29,2.13.82,4.24.85,6.4,0,.55.07,1.12.16,1.67.06.36.2.73.57.95.1-.1.26-.19.3-.31.2-.71.38-1.43.56-2.15.41-1.61.71-3.26,1.33-4.8.16-.41.14-.9.2-1.28-.12-.17-.16-.27-.24-.31-1.31-.64-1.81-1.57-1.22-2.97.17-.41.15-.91.21-1.37.14-1.11.17-2.24.44-3.31.29-1.19.42-2.37.38-3.59-.03-.85.04-1.67.19-2.5.25-1.38.29-2.77.19-4.18-.09-1.21-.12-2.43-.2-3.64-.05-.65-.16-1.3-.25-1.95-.14-1.02-.38-2.04-.4-3.06-.05-2.26-.55-4.45-1.04-6.65-.1-.46-.25-.91-.32-1.37-.32-2.32-.59-4.64-.94-6.96-.19-1.29-.53-2.57-.78-3.86-.18-.92-.35-1.84-.5-2.76-.34-2.13-.67-4.26-1.01-6.39-.3-1.86-.77-3.67-1.47-5.43-.85-2.11-1.21-4.34-1.82-6.52-.15-.54-.13-1.11-.19-1.67-.09-.83-.17-1.67-.27-2.51-.04-.38-.46-.62-.83-.48-.16.06-.32.18-.49.24-.49.16-.9-.15-.88-.71.02-.65-.04-1.34.15-1.94.45-1.42.18-2.75-.44-4.16-.89-.53-1.91-.49-2.94-.45-.46.02-.92.13-1.37-.09-.07-.04-.14-.12-.15-.18-.02-.09,0-.21.05-.26.12-.12.28-.24.44-.31.32-.14.75-.08.93-.49-.81-.71-1.86-.86-2.79-1.3-.34-.15-.69-.3-1-.5-.35-.22-.48-.58-.48-.97,0-.41.45-.93.85-.96.55-.04,1.11-.03,1.65-.05,0-.24.05-.47-.03-.55-.47-.47-.94-.94-1.47-1.34-.84-.62-1.63-1.29-2.27-2.16,0-.28-.05-.57-.02-.83.13-.92-.41-1.38-1.25-1.58-1.01-.25-2.02-.38-3.05-.12-.36.09-.74.05-1.12-.21.06-.23.13-.48.2-.72.06-.18.15-.34.19-.52.07-.27.09-.55.16-.82.05-.18.12-.36.24-.5.16-.2.38-.36.61-.57,1.25.11,2.37.66,3.48,1.12,1.15.48,2.37.55,3.45.99.39-.33.47-.66.33-1.05-.1-.28-.27-.59-.54-.58-1.77.08-3.24-.75-4.75-1.54-1.26-.65-2.56-1.22-3.87-1.73-.73-.28-1.35-.67-1.92-1.18-.29-.26-.41-.62-.3-1.02.11-.39.4-.6.78-.7.45-.14.93-.09,1.37.07.71.26,1.39.6,2.1.85.43.15.91.18,1.37.26.03.09.03.21.09.26,1.01.91,2.1,1.58,3.59,1.4.07-.21.24-.46.21-.69-.07-.58-.33-1.07-1.08-1.42-.75.63-1.79.45-2.8.44,0-.31-.17-.52-.38-.72-1-.89-2.11-1.6-3.3-2.19-.93-.46-1.85-.96-2.76-1.47-.23-.13-.43-.36-.63-.55-.26-.25-.36-.75-.18-1.04.24-.39.53-.74.81-1.14.09-.63-.49-.95-.77-1.42-.4-.66-.32-1.19.26-1.74.18-.17.58-.24.78-.11.57.34,1.12.7,1.69,1.04,1.3.77,2.61,1.54,3.93,2.28.13.07.35.02.51-.03.19-.05.17-.52-.04-.74-.19-.2-.39-.41-.61-.58-.15-.11-.34-.18-.52-.21-2.12-.4-3.41-1.89-4.58-3.53-.05-.07-.04-.18-.08-.35.11-.37.24-.81.36-1.24-.06-.18-.07-.39-.18-.52-.59-.74-1.21-1.45-1.81-2.19-.46-.57-.22-1.53.49-1.91.14-.08.38-.11.53-.05.41.18.8.42,1.29.69.05-.46.11-.82.14-1.19.05-.59-.14-1.11-.61-1.5-.66-.54-1.35-1.05-2-1.59-.29-.24-.54-.53-.79-.81-.24-.27-.29-1.05-.04-1.32.37-.4.79-.76,1.2-1.15.36-.68.04-1.46.2-2.18.08-.38.26-.68.57-.91.26-.2.84-.11,1,.14.42.65.64,1.37.76,2.11.11.65.15,1.3.26,1.95.18.99.68,1.74,1.7,2.09.61-.17.6-.83.94-1.23.53-.62,1.47-.54,1.85.21.13.25.26.51.33.78.09.37.16.74.17,1.11.03,1.5.14,2.98.5,4.45.17.72.1,1.49.18,2.23.04.37.1.76.27,1.08.1.21.4.33.58.48.24-.11.42-.15.57-.26,1.15-.84,1.81-.61,2.26.79.21.64.31,1.27.23,1.93-.08.64-.12,1.29-.15,1.94,0,.13.11.28.17.42.38-.41.73-.83,1.12-1.21.11-.1.34-.07.52-.11.57.28.85.77.88,1.36.11,1.86.4,3.73.25,5.59-.05.56-.02,1.12.01,1.67,0,.16.13.31.2.47.11-.14.27-.26.32-.42.56-1.95,1.1-3.91.93-6.01-.04-.46-.02-.93,0-1.4.01-.51.27-.85.69-1.12.39-.25,1.06-.15,1.25.21.45.83.91,1.66,1.12,2.44,0,1.93-.5,3.59-1.08,5.25-.52,1.48-.96,2.99-1.07,4.58-.01.16.1.35.17.52,0,.01.16,0,.19-.04.44-.48.44-1.19.82-1.71.15-.21.39-.37.63-.5.31-.18.84.03.94.35.38,1.07.6,2.13.38,3.28-.33,1.82-.63,3.66-.59,5.53,0,.25.1.49.16.78.55-.5.66-1.15.91-1.74.11-.25.28-.47.44-.69.2-.29.69-.39,1-.23.36.18.65.59.62.87-.02.18-.03.37-.06.55-.34,1.91-.7,3.82-1.06,5.8.29.67.58,1.36.87,2.05-.15.74-.34,1.46-.42,2.19-.07.64.02,1.3-.19,1.93-.08.24-.02.55.05.82.88,3.08,1.25,6.25,1.73,9.39.22,1.39.56,2.76,1.12,4.07,1.1,2.54,1.62,5.21,1.94,7.91.21,1.86.77,3.67.89,5.54.03.36.2.72.33,1.08.31.89.49,1.78.55,2.73.11,1.58.41,3.15.77,4.7.28,1.19.25,2.42.76,3.57.11.25.1.55.12.83.21,2.33.57,4.64,1.12,6.93.22.91.29,1.85.35,2.78.15,2.14.22,4.29.6,6.42.22,1.19.32,2.41.05,3.62-.12.54-.12,1.12-.08,1.67.18,2.55-.2,5.02-.75,7.47-.08.36-.12.73-.14,1.1,0,.18.1.36.15.53.13-.12.31-.21.38-.35,1.14-2.32,1.8-4.83,2.62-7.17-.05-.29-.03-.51-.12-.65-.87-1.41-1.17-2.95-1.31-4.56-.3-3.46-.15-6.89.07-10.33.07-1.12.09-2.24.06-3.36-.06-2.33-.17-4.67-.24-7-.03-.84-.08-1.7.06-2.51.22-1.28.39-2.54.36-3.86-.01-1.01.29-2.01.46-3.02.17-1,.33-2.01.54-3.01.14-.64.45-1.22.95-1.65.2-.17.48-.27.73-.36.32-.11.85.13.97.39.49,1.04.85,2.1.6,3.26-.33,1.53-.1,3.17-.73,4.66-.13.32-.11.73-.1,1.1.06,2.8.14,5.6.21,8.4.02.76.19,1.47.4,2.2.62,2.07,1.15,4.17,1.75,6.24.06.21.37.36.56.54.43-.35.57-.79.73-1.22.22-.61.34-1.27.67-1.82,1.16-2,1.88-4.19,2.79-6.31.62-1.42,1.16-2.9,2.12-4.15.39-.5.6-1.13.9-1.7.63-1.23,1.24-2.47,1.91-3.68.33-.59.86-.93,1.65-.88.15.18.42.37.5.6.14.44.14.93.27,1.38.33,1.16.08,2.21-.48,3.21-.71,1.29-1.3,2.64-1.82,4.03-.45,1.21-.98,2.39-1.58,3.53-.6,1.15-1.09,2.34-1.49,3.57-.83,2.54-1.83,5.02-2.51,7.62-.19.71-.54,1.37-.85,2.04-.55,1.17-1,2.38-1.28,3.74.32.7.71,1.45,1.02,2.23.31.78.56,1.6.83,2.4.06.18.17.35.18.54.1,2,1.06,3.78,1.62,5.66.41,1.35.91,2.67,1.39,4,.05.15.26.3.41.34.12.01.3-.13.39-.25.1-.14.17-.33.2-.51.37-2,1.1-3.92,1.32-5.96.05-.46.23-.9.36-1.34.31-.98.47-1.98.56-3.01.12-1.29.34-2.58.46-3.86.26-2.69.45-5.38.74-8.06.24-2.12.59-4.23.89-6.34.1-.69.48-1.18,1.03-1.56.4-.28.91-.16,1.17.32.22.41.27.91.7,1.2.08.05.19.08.27.07.06,0,.14-.09.15-.15.06-.46.09-.91.14-1.38.06-.55.07-1.12.19-1.65.72-3.26,1.37-6.53,1.67-9.86.42-1.15.35-2.38.4-3.59.03-.67.25-1.27.61-1.81.15-.22.39-.38.61-.55.29-.21.84-.12,1,.18.4.74.79,1.5,1.09,2.07.02.58.08.96.03,1.32-.2,1.65-.44,3.31-.66,4.97-.02.18-.02.37-.04.55-.19,1.4.08,2.8.1,4.19.02,1.4-.11,2.79.29,4.18.24.82.19,1.67.1,2.51-.04.36-.01.76.11,1.09.15.43.04.96.51,1.27.05-.06.12-.11.12-.17.07-2.61.27-5.21.16-7.82-.09-2.15.08-4.28,0-6.42-.08-2.15-.1-4.3-.03-6.44.08-2.14.19-4.28.14-6.42-.03-.94-.07-1.86-.28-2.79-.13-.64-.21-1.29-.23-1.95-.08-1.59-.52-3.14-.71-4.72-.17-1.49-.17-2.99-.41-4.47-.23-1.37-.35-2.78-.79-4.05-.45-.29-.79-.17-1.15-.06-.46.14-1,.09-1.33-.24-1.01-1.03-2.22-1.76-3.44-2.49-.15-.09-.28-.26-.37-.42-.08-.15-.15-.35-.13-.53.07-.61.8-1.19,1.38-1.1.27.04.55.1.82.19.36.12.69.3,1.04.43.38.14.84-.01.96-.31.15-.36.16-.75-.09-1.06-1.08-1.28-2.33-2.24-3.89-2.07-.59-.22-.82-.53-.97-.88-.21-.46-.16-.92.15-1.31.31-.37.73-.59,1.22-.49,1.03.2,2,.53,2.83,1.22.29.24.61.42,1.01.31.34-.55.15-1.05-.21-1.56-.47-.07-.93-.15-1.54-.25-.41-.32-.91-.76-1.45-1.13-1.07-.72-2.2-1.09-3.44-.56-.16.07-.36.04-.55.06-.69-.18-1.16-.59-1.39-1.27.09-.87.61-1.34,1.44-1.4.74-.06,1.5-.04,2.23.05.45.06.9.28,1.31.5.75.39,1.43.93,2.29,1.07.09-.16.26-.3.26-.45,0-.78-.31-1.46-.8-2.07-.6-.73-1.21-1.46-1.92-2.31-2.92-2.02-2.76-1.73-5.61-1.45-.18-.15-.5-.3-.59-.52-.34-.89-.84-1.68-1.37-2.45-.45-.66,0-1.56.81-1.7.93-.17,1.85-.22,2.73.27.74.41,1.48.83,2.24,1.23.41.22.84.43,1.27.58.14.05.37-.03.49-.14.11-.11.15-.32.15-.48,0-.18-.07-.37-.15-.53-.6-1.08-1.21-2.14-1.86-3.29-.83-.31-1.71-.63-2.58-.97-.44-.17-.86-.36-1.21-.71-.41-.41-.43-1.16.04-1.47.3-.2.67-.3.98-.49.24-.14.4-.39.36-.69-.05-.36-.21-.72-.24-1.09-.03-.38.17-.7.45-.96.36-.33.91-.31,1.27-.03.77.61,1.13,1.52,1.75,2.23.1.12.32.14.48.2.06.26.02.58.16.78.41.6.88,1.17,1.36,1.72.07.08.32.04.47,0,.06,0,.13-.13.15-.21.08-.35.15-.7-.15-1.04-.81-.16-1.39-.73-2.04-1.22Z"/>
      <path class="cls-1" d="M198.6,46.6c.57-.13,1.37.34,1.52.99.1.45.17.92.19,1.38.03.93.16,1.83.52,2.72.32.81-.41,1.9-1.29,2.13-.34.09-1.07-.26-1.19-.59-.07-.18-.17-.35-.19-.52-.12-1.11-.25-2.21-.52-3.31-.15-.61-.03-1.29.02-1.93.03-.43.5-.82.94-.87Z"/>
      <path class="cls-1" d="M37.44,54.07c.12.12.27.22.33.36.13.3.01.81-.11.72-.13-.1-.24-.26-.33-.4-.1-.15-.18-.31-.24-.48-.02-.04.05-.14.11-.17.07-.03.16-.02.24-.03Z"/>
      <path class="cls-1" d="M38.51,56.71c.04.06.09.12.13.17-.02-.08-.05-.16-.07-.24l-.06.07Z"/>
      <path class="cls-1" d="M38.57,56.64c-.09-.06-.19-.12-.29-.17.04.01.09.02.12.06.05.06.07.12.1.19l.06-.07Z"/>
      <path class="cls-1" d="M67.88,160.2s.13,0,.14.02c.03.06.06.15.04.21-.02.07-.09.11-.13.18-.04-.07-.1-.13-.11-.2,0-.07.04-.14.06-.21Z"/>
    </g>
  </g>
</svg>