<?xml version="1.0" encoding="UTF-8"?>
<svg id="Layer_2" data-name="Layer 2" xmlns="http://www.w3.org/2000/svg" viewBox="0 0 22.92 38.03">
  <defs>
    <style>
      .cls-1 {
        fill: #753d22;
      }
    </style>
  </defs>
  <g id="Layer_2-2" data-name="Layer 2">
    <path class="cls-1" d="M22.25,30.92c-.05-.04-.11-.09-.17-.14-.23-.22-.34-.5-.56-.71-.11-.12-.25-.15-.37-.24-.11-.09-.19-.24-.27-.35-.11-.15-.18-.33-.31-.47-.17-.19-.23-.36-.32-.58-.08-.18-.22-.29-.3-.46-.09-.16-.09-.37-.16-.56-.12-.32-.38-.57-.54-.89-.15-.3-.29-.61-.36-.95-.03-.13-.04-.23-.1-.36-.03-.06-.1-.12-.11-.19.08.01.11.09.19.11.17.05.36-.1.49-.18.1-.06.12-.07.12-.19,0-.02-.05-.35-.02-.35.17,0,.33.08.5.09.19,0,.34-.04.52-.1.31-.1.61-.22.83-.47.13-.14.19-.32.21-.5,0-.04.08-.03.06-.1,0-.04-.1-.11-.13-.14-.07-.08-.14-.17-.22-.24-.27-.25-.45-.55-.69-.83-.26-.31-.58-.56-.89-.82-.15-.12-.22-.3-.35-.43-.07-.07-.16-.11-.21-.18-.03-.04-.07-.11-.11-.19-.03-.07-.06-.14-.07-.17-.04-.17.1-.24.1-.38.01-.23-.19-.31-.2-.51,0-.18.28-.14.44-.2.19-.06.38-.1.56-.2.3-.16.54-.33.66-.64.07-.16.25-.27.21-.44-.06-.24-.44-.36-.61-.49-.29-.23-.57-.43-.89-.63-.74-.47-1.24-1.34-1.62-2.11-.16-.32-.33-.64-.47-.97-.06-.14-.1-.28-.05-.46.26.08.47-.08.65-.26.08-.09.14-.17.24-.23.14-.1.27-.09.35-.29.19-.44-.89-.91-1.16-1.16-.74-.66-1.53-1.23-2.15-2.01-.25-.3-.78-.64-.62-1.11.05-.17.21-.3.42-.3.01-.1.02-.18.03-.27.24-.06.59.08.79-.14.18-.21-.02-.59-.19-.75-.11-.1-.27-.16-.39-.26-.18-.15-.28-.36-.46-.52-.19-.17-.33-.35-.52-.52-.19-.18-.3-.22-.43-.45-.13-.23-.29-.42-.47-.6-.18-.19-.39-.34-.52-.58-.15-.3-.3-.55-.48-.83-.2-.29-.41-.54-.63-.82-.13-.19-.24-.4-.3-.62-.08-.3-.2-.53-.34-.8-.1-.2-.1-.73-.33-.81-.38.45-.43,1.12-.69,1.64-.17.35-.38.71-.5,1.1-.12.4-.32.68-.51,1.04-.45.85-1.07,1.62-1.73,2.33-.23.26-.48.52-.71.79-.12.13-.2.34-.33.46.07.07.19.13.27.15.17.05.18,0,.36-.04.15-.03.3.03.44-.03.12-.05.16-.19.32-.17.09.38-.09.63-.25.96-.22.45-.54.82-.79,1.24-.08.13-.13.27-.21.39-.38.53-1.06.81-1.26,1.47.16.12.28.11.46.15.16.04.3.17.48.13.11-.03.13-.11.23-.14.09,0,.16.01.25.01.09-.01.17-.05.24-.1.43-.06.17.33.04.56-.28.5-.57.93-.92,1.38-.4.49-.86.76-1.33,1.2-.3.28-.52.54-.89.73-.36.18-.76.25-1.07.52-.33.29-.74.74-.47,1.06.21.25,1,.39,1.29.5.44.16.87.18,1.32.25.16.02.31.1.47.11.2,0,.41-.05.6,0-.08.15-.1.34-.17.52-.11.31-.24.54-.41.83-.27.45-.46.97-.8,1.38-.22.27-.46.52-.71.76-.3.29-.55.62-.88.89-.28.23-.49.53-.77.75-.19.16-.43.29-.6.46-.14.13-.14.18-.07.33.08.17.26.38.43.43.16.05.6-.12.68.08.03.05-.03.17-.02.22.02.13.07.21.16.3.2.21.38.23.66.14.26-.09.49-.2.69.05.05.06.07.14.12.2.11.13.4.23.54.08-.08.07-.03.21-.05.31-.06.32-.3.59-.45.87-.34.61-.74,1.17-1.2,1.71-.24.29-.45.6-.67.9-.13.18-.28.35-.4.54-.04.07-.08.17-.15.23-.34.28-.68.54-1.07.77-.15.09-.45.24-.52.42-.05.14.01.13.14.21.35.2.61.43.89.7.18.17.45.1.65.24.21.17.27.32.55.39.29.07.59.1.88.17.53.12,1.06.06,1.59.04.23,0,.28.1.47.21,1.11.7,2.63-.68,3.4.78.17.32.31.67.38,1.03.12.6.08,1.27-.31,1.76-.52.64-1.35.61-2.09.71-.89.12-1.88.2-2.68.66.23.09.49.04.72.09.61.13,1.17.2,1.87.11,1.78-.23,3.57-.17,5.37-.16,1.31,0,2.6-.15,3.9-.2.51-.02,1.07-.13,1.56-.21.28-.04.58-.24.87-.2-.29-.16-.75-.31-1.04-.37-.32-.06-.63-.03-.96-.04-.55-.02-1.04-.17-1.6-.16-.38,0-.87-.08-1.03-.49-.13-.33.07-.72.17-1.03.16-.49.22-.95.31-1.45.63.34.77-.38,1.35-.6.17-.07.31-.1.49-.11.03,0,.16-.05.19-.04.07.03.06.08.1.12.28.2.62-.18.89-.24.12-.04.17.02.31.04.19.02.38-.03.55-.11.16-.07.25-.12.42-.07.17.06.31.19.49.23.42.08.74-.21.95-.51.18-.24.44.03.68.04.14,0,.29-.01.41-.07.14-.07.19-.16.34-.13.27.05.34.21.58-.04.19-.21.27-.13.53-.16.24-.04.22-.3.43-.36.06,0,.14.04.17-.03.02-.06-.07-.15-.11-.2-.17-.21-.37-.35-.56-.52ZM16.25,29.76c-.31.1-.97-.1-1.19.22-.07.11-.01.22-.12.32-.14.15-.41.09-.58.04-.21-.05-.46-.41-.69-.27-.21.12-.21.44-.5.48-.26.04-.58-.14-.84-.17-.21-.03-.43-.01-.64.02-.53.09-.98.11-1.53.05-.38-.04-.61.11-.96.2-.37.1-.44-.17-.75-.26-.16-.05-.37.04-.52.1-.49.21-1.06.85-1.59.4-.26-.22-.31-.56-.7-.61-.41-.04-.86.13-1.28.11-.29-.01-.6-.08-.88-.12-.04-.21.17-.36.29-.51.19-.23.35-.47.52-.72.25-.33.43-.75.73-1.04.09-.09.2-.14.29-.21.27-.21.49-.47.74-.7.29-.26.39-.46.5-.84.08-.25.11-.53.31-.71.09-.08.21-.16.32-.24.17-.13.05-.1.25-.1.28,0,.34.02.58-.15.08-.06.14-.1.22-.15.34-.21.72-.33.98-.67.11-.14.35-.49.33-.67-.05-.39-1.14.21-1.34.25-.27.05-.66.08-.92-.04-.23-.11-.25-.29-.41-.45-.37-.36-.85.32-1.3.19-.27-.08-.26-.41-.51-.48-.16-.04-.56.18-.74.18-.42,0-.74-.06-1.14-.13,0-.18.13-.32.25-.45.27-.3.57-.59.88-.85.33-.28.59-.63.9-.93.33-.32.54-.7.84-1.04.28-.33.54-.64.78-1,.14-.23.22-.59.43-.76.13-.11.17-.05.33-.11.16-.07.27-.25.31-.4.04-.13,0-.23.16-.29.12-.05.37-.03.5,0,.11.02.17.1.29.11.11,0,.21-.07.32-.09.21-.05.29,0,.48.05.5.14.99-.23,1.29-.61.22-.28.47-.66.6-.99.04-.11.05-.27.13-.32-.07.07-.17.15-.26.2-.2.1-.2.06-.41.02-.3-.06-.54.12-.83.08-.1-.01-.16-.1-.26-.11-.12-.01-.18.06-.31.09-.23.05-.5.11-.72.09-.2-.02-.05-.11-.35-.06-.2.03-.38.11-.57.19-.28.11-.53.11-.83.1-.34,0-.23-.15-.47-.29-.2-.12-.78-.02-1.01-.02-.08,0-.55.06-.61-.02-.09-.12.2-.4.26-.49.21-.26.42-.54.65-.77.28-.28.59-.53.82-.85.25-.34.52-.65.8-.98.25-.29.29-.61.38-.96.08-.3.76-1.09.33-1.36-.22.07-1.56.74-1.18,0,.1-.2.32-.3.46-.49.13-.17.25-.36.32-.56.1-.29.19-.48.4-.68.13-.13.24-.28.33-.43.1-.16.14-.36.24-.52.09-.15.22-.27.31-.42.16.08.2.25.42.2.19-.05.68-.63.81-.11.08.01.47-.25.57-.3.13-.06.4-.16.43-.29-.32-.09-.51.08-.8.08-.2,0-.44.02-.64,0-.17-.02-.33-.14-.5-.12-.21.03-.21.13-.42.04-.09-.04-.11-.11-.22-.14-.19-.05-.56.04-.67-.22.1-.16.26-.29.38-.44.34-.45.52-.95.81-1.43.1-.16.22-.32.32-.48.14-.22.21-.46.33-.69.09-.17.21-.32.26-.52.04-.15.04-.41.21-.51.04.12.02.26.01.38,0,.37,0,.72.05,1.08.1.69.38,1.12.86,1.61.44.45,1.04.73,1.52,1.12-.2.16-.38.27-.6.41-.54.34.01.27-.09.7-.09.35-.52.52-.71.77-.11.14-.09.34-.17.5-.06.12-.13.15-.17.3-.06.25.07.48.02.75-.05.29-.23.54-.32.82-.13.39-.05.64.13.98.08,0,.11.05.11.13-.01.14-.05.26-.1.38.02.24.1.23.3.32.18.09.17.15.3.32.14.18.23.15.42.2.29.06.13.11.2.39.05.2.16.29.31.43.29.28.64.56.96.8.2.15.32.12.2.36-.19.38-.52.64-.55,1.11-.03.54.07,1.04-.41,1.42-.1.09-.21.11-.28.23-.13.23-.07.55-.21.79-.29.48-.94.62-.94,1.27,0,.14-.04.31.09.39.16.12.44-.17.62-.09.11.45-.06.95.03,1.41.03.17.12.54.25.65.1.09.23.08.33.19.24.26.23.73.45,1.04.18.24.47.61.8.64-.04.13-.37.05-.52.18-.16.15-.21.31-.2.53,0,.22.03.36.16.56.1.14.21.27.3.42.09.14.23.21.3.32.2.3.15.68.47.94.19.15.36.21.51.43.11.17.11.33.21.5.2.32.54.52.83.74.28.22.45.54.71.76-.07.15-.22.3-.39.36Z"/>
  </g>
</svg>