<?xml version="1.0" encoding="UTF-8"?>
<svg id="Layer_2" data-name="Layer 2" xmlns="http://www.w3.org/2000/svg" viewBox="0 0 156.08 179.17">
  <defs>
    <style>
      .cls-1 {
        fill: #593826;
        fill-rule: evenodd;
      }
    </style>
  </defs>
  <g id="_Layer_" data-name="&amp;lt;Layer&amp;gt;">
    <path class="cls-1" d="M43.69,94.12c-.41-.58-.82-1.16-1.24-1.73-.08-.11-.23-.17-.35-.25-.3-.21-.6-.23-.68.02-.06.21-.03.56.11.74.56.73,1.41.93,2.24,1.12.24.37.41.81.72,1.09,1.02.91,1.25,2.01,1,3.22-.23,1.13-.53,2.24-.79,3.31-.49.61-.87,1.24-1.39,1.71-.52.47-1.18.79-1.77,1.2-.46.32-.9.67-1.34,1.02-.23.18-.14,1.02.12,1.21,1.8,1.37,3.66,2.61,6.25,2.74.56-.25,1.46-.46,2.09-.98,1.54-1.29,3.3-1.61,5.28-1.45,2.2.18,4.4.21,6.57.76.14.03.29.02.43.04.58.07,1.06-.22,1.37-.85.21-.41-.33-1.11-.98-1.2-.73-.1-1.46-.11-2.19-.19-1.11-.13-1.9-.8-2.51-1.7-.48-.71-.27-1.82.37-2.37.7-.59,1.56-.9,2.42-.66,1.99.57,3.97,1.08,6.03,1.25,1.53.13,2.59,1.84,2.24,3.3-.44,1.83-1.05,3.58-2.02,4.98-1.23.55-2.33.94-3.31,1.51-1.07.63-2.21.78-3.36.39-2.02-.69-4.03-.87-6.08-.7q-3.27,1.54-8.21,2.41c-1.46-.39-2.79-1.02-3.9-2.1-.32-.31-.7-.56-1.06-.82-.62-.44-1.51-.44-2.04.02-.53.46-.97,1.11-1.59,1.39-2.75,1.23-5.52,2.42-8.35,3.49-1.37.52-2.57,1.26-3.7,2.13-.8.62-1.36,1.46-1.77,2.39-.55,1.24-.15,2.75,1.08,3.49,1.41.85,2.85,1.66,4.33,2.33,3.16,1.43,3.17,2.67,2.79,5.22-.05.28-.14.56-.25.83-.46,1.09-.54,2.24-.33,3.43.42,2.43-.2,4.63-1.12,6.77-.29.66-.67,1.27-.92,1.94-.08.21.1.54.18.9.78.3,1.61.59,2.43.92.96.39,1.91.81,3.06,1.31,2.04-.68,4.2.21,6.35.37,1.17-.74,1.2-.74,1.26-1.09.2-1.14.41-2.27.56-3.43.09-.72-.02-1.47.11-2.18.35-1.9,1.45-2.81,3.35-2.54,2.33.33,4.66.7,6.94,1.05,1.81.89,3.31,2.12,4.63,3.6.4.44.84.85,1.32,1.2.21.15.59.22.83.15,1.05-.29,2.01-1.55,1.89-2.6-.08-.71-.36-1.4-.53-2.04-.5-.3-.88-.53-1.25-.78-.5-.33-1.02-.64-1.46-1.02-.8-.71-1.03-1.97-.51-2.81.37-.61.87-1.13,1.21-1.75.22-.39,0-.83-.32-1.19-.32-.36-.7-.62-1.16-.53-.42.08-.8.28-1.18.46-.64.32-1.25.69-1.9.99-.77.36-1.81-.33-1.95-1.24-.21-1.25.1-2.29,1-3.15.97-.93,2.19-1.37,3.46-1.62,1.86-.37,3.53.16,4.72,1.78.89,1.2,1.59,2.52,2.45,3.75.42.6.95,1.15,1.52,1.62.61.5,1.36.59,2.09.36.4-.13.81-.33,1.15-.58,1.11-.81,2.43-.91,3.75-.87.87.03,1.75.2,2.61.37,1.16.23,2.3.53,3.3.76,1.28-.3,2.48-.23,3.48-.84.02-.16.11-.34.05-.45-.27-.52-.61-1.01-.85-1.54-.18-.39-.36-.84-.35-1.25.04-1.36,2.08-2.45,3.3-1.85,1.24.61,2.24,1.51,3.12,2.53,1.15,1.34,1.69,2.8.96,4.48-.22.52-.28,1.12-.48,1.66-.27.71-.82,1.15-1.56,1.34-2.42.64-4.95.14-7.42.31-1.19.08-2.31-.4-3.44-.81-1.29-.46-2.63-.49-3.91-.17-1.67.43-3.3.98-5.03,1.51-.18.9-.33,1.74-.5,2.58-.18.85-.34,1.7-.56,2.53-.67,2.4-2.11,4.06-4.6,4.62-1.12.25-2.29.36-3.42.52-1.42-.28-2.48-1.02-3.06-2.37-.18-.41-.3-.85-.52-1.23-.22-.39-.47-.79-.8-1.07-1.15-.99-2.43-1.73-3.92-2.05-1.06-.22-2.15.38-2.36,1.36-.36,1.7-.67,3.41-1.05,5.1-.12.55-.33,1.11-.59,1.61-.42.79-1.09,1.46-2.01,1.42-1.46-.05-2.91.14-4.34-.02-2.03-.23-4.05-.82-6.08-1.2-1.9-.37-3.72-.93-5.46-1.88-.77-.42-1.63-.66-2.27-.91-.52.1-.82.11-1.08.21-2.25.93-4.29,2.3-6.73,2.84-.34.08-.59.56-.84.81-.02,1.55,1.56,2.25,1.85,3.79-.26,1.58-.99,3.18-2.27,4.34-1.09,1-1.5,2.43-2.43,3.37-.2.16-.31.27-.43.33-2.98,1.39-4.96,3.8-6.69,6.47-.08.12-.12.26-.18.39-.32.59.24,1.7.88,1.71.88.02,1.77.06,2.62-.07.88-.14,1.64-.57,1.72-1.63.11-1.44.98-2.34,2.1-3.07,1.33-.87,2.89.39,3.06,1.5.09.58.01,1.17.05,1.75.1,1.44,1.16,1.97,2.47,1.23.62-.35,1.18-.96,1.84-1.06,1.34-.18,2.46-.81,3.68-1.26,1.56-.57,3.08-.71,4.67.11.23.12.57.01.88.01.82-.65.97-1.7,1.38-2.6,1.26-2.77,3.3-4.65,6.32-5.35,2.26-.53,4.52-1,6.8-1.41.93-.17,1.75.34,2.28,1.13.49.73.95,1.53.96,2.46-.36,1.43-1.06,2.67-2.13,3.67-.53.48-1.06.96-1.59,1.44-.96.86-1.12,1.96-.77,3.18.44,1.58,2.7,2.58,3.95,1.7,1.51-1.07,3.16-2.04,4.15-3.66,1.13-1.87,2.96-3.08,4.26-4.79,1.3-1.72,3.25-2.75,4.79-4.13,1.25.15,2.05.8,2.46,1.82.39.96.74,1.97.85,2.97.19,1.66,1,3.09,1.68,4.57.33.74,1.55,1.14,2.32.82.52-.22,1.06-.45,1.54-.75,1.23-.77,2.2-1.81,3.16-2.87.95-1.06,1.98-2.04,2.87-2.95.72-.26,1.3-.38,1.79-.66,1.7-.97,3.56-1.08,5.5-.83,1.02.13,2.05.22,3.07.28.73.04,1.47,0,2.32-.52.65-.81,1.39-1.87,2.28-2.77.89-.91,1.94-1.65,2.86-2.41-.14-1.54-1.33-1.55-2.32-1.95-1.09.12-2.24.33-3.4.35-1.15.02-2.32-.15-3.66-.25-.86.51-1.86,1.07-2.82,1.69-1.09.69-2.13,1.45-3.21,2.14-2.15,1.38-5.92,1.62-8.61-.79-1.37-1.23-2.41-2.65-3.17-4.3-.43-.95.61-2.48,1.74-2.45.4.01.92.18,1.19.46.93.97,1.74,2.04,2.65,3.04.41.46.99.67,1.59.71,1.04.06,2.04-.09,3.2-.63,1.09-.98,2.4-2.09,3.64-3.27,1.22-1.14,2.65-1.66,4.35-1.53,2.36.18,4.69.13,7-.16,1.06-.14,2.03.15,2.99.63.24.12.57.02.9.02.32-.22.7-.43,1.02-.71.45-.39.95-.62,1.57-.64,1.02.36,1.8,1.04,2.3,2,.27.51.39,1.13,1.17,1.43.72,0,1.59-.07,2.45.03.61.07,1.05.52,1.3,1.33-.14.82-.27,1.82-.47,2.79-.24,1.15-1.27,1.97-2.47,2.04-1.59.09-3.22-.17-4.6.12-1.85,1.89-3.54,3.62-5.29,5.41-.41.98-.87,2.03-1.29,3.11-.42,1.09-.52,2.24-.34,3.43.07.5.7,1.15,1.2,1.15,3.8,0,7.6.03,11.4,0,.89,0,1.69-.36,2.44-.81,2.11-1.23,4.04-2.69,5.77-4.35,1.06-.23,2.04-.45,2.87-.64.89.28,1.61.47,2.23,1.21.4.95.81,2.07,1.35,3.13.82,1.62,2.17,2.4,3.96,2.45,1.82.05,3.45-.39,5-1.58.15-.56.32-1.25.5-1.94.26-.97.48-1.97.83-2.9.2-.52.54-1.05.98-1.37,1.61-1.19,3.27-2.29,4.93-3.41.23-.16.53-.22.8-.32,1.42-.51,3.05.06,3.86,1.4.31.51.53,1.06.8,1.59.33.66.66,1.31.99,1.95,1.15.56,2.23,1.08,3.3,1.61,1.58.78,3.2.72,4.72.21,1.36-.45,2.64-1.18,3.08-2.85-.33-.77-.67-1.58-1.06-2.47-.83-.58-1.72-1.15-2.54-1.78-.59-.46-1.15-.97-1.64-1.53-.85-.96-1.23-2.03-.82-3.27.22-.68.43-1.38.59-2.08.25-1.12-.37-2.47-1.5-2.96-1.49-.66-2.96-1.36-4.3-2.34-.9-.66-1.94-.79-2.94-.37-1.22.5-2.46.84-4.06.49-.96-.56-2.11-1.24-3.27-1.92-1.59-.94-2.85-2.15-3.55-3.91-.27-.68-.58-1.38-1.35-1.77-1.21-.4-2.24.13-3.26.66-1.19.62-2.09,1.48-2.57,2.76-.24.67-.51,1.34-.83,1.98-.61,1.19-1.92,1.77-3.31,1.47-.86-.18-1.7-.51-2.55-.7-1.01-.23-2.03-.4-3.04-.6-1.15-.23-2.3-.47-3.2-.65-2.69-1.67-3.08-3.07-1.57-5.69.22-.37.43-.74.68-1.09.65-.93,1.58-1.15,2.69-.88.92.23,1.61.73,1.92,1.67.28.83.13,1.78.85,2.47.73.59,1.55.91,2.45.95.6.03,1.21-.07,1.57-.57.58-.81,1.06-1.69,1.66-2.49.43-.56.92-1.11,1.5-1.5,1.82-1.21,3.87-1.93,6.1-1.95,1.83-.02,3.49.56,4.67,2.16.53.72,1.05,1.46,1.56,2.19.35.49.68.99,1.04,1.47.56.75,1.36.91,1.81.27,1.63-2.31,3.83-3.79,6.52-4.65.25-.08.43-.34.72-.58-.16-.36-.23-.84-.51-1.12-1.69-1.69-3.6-3.17-5.03-5.12-.25-.35-.67-.6-1.02-.88-1.35-1.02-2.35-2.3-2.96-3.88-.16-.41-.35-.83-.58-1.21-.51-.82-1.24-1.29-2.2-1.3-3.07-.03-6.14-.14-9.18-.91-.52-.13-1.12.1-1.64.16-.81,1.33-1.55,2.55-2.29,3.77-.54.9-1.34,1.52-2.31,1.83-1.78.58-3.59,1.12-5.5,1.19-1.6.06-3.21.01-4.89.01-1.03-.52-2.12-1-3.15-1.61-1.37-.81-2.21-2.05-2.4-3.6-.16-1.31-.17-2.63-.21-3.95-.02-.75-.24-1.44-.54-2.13-.32-.72-.75-1.28-1.55-1.43-1.87.44-3.5,1.35-5.1,2.31-2.04,1.21-4.26,1.7-6.64,1.7-.88,0-1.76-.04-2.64-.07-.9-.02-1.71-.37-2.55-.72-1.54-.66-2.36-1.89-2.57-3.42-.22-1.6.04-3.19.62-4.68.1-.25.33-.46.53-.67,1.05-1.14,3-.61,3.55.94.25.72.38,1.43.21,2.16-.1.42-.24.83-.31,1.26-.08.48.51,1.15,1.03,1.28,1.18.3,2.35.34,3.47-.01,1.1-.35,2.18-.74,3.21-1.24,1.42-.7,2.77-1.5,4.13-2.29,1.13-.65,2.33-1.11,3.64-1.31,1.36-.2,2.73.4,3.45,1.56.95,1.53,1.69,3.12,1.96,4.92.28,1.88.81,3.74,1.21,5.54,1.57,1.32,3.19,1.86,5.03,1.51,1.14-.22,2.23-.58,3.24-1.17.9-.52,1.63-1.17,2.06-2.11.48-1.04.89-2.12,1.35-3.17.46-1.05,1.7-1.68,2.86-1.44,3.03.63,6.05,1.29,8.8,1.88,1.25-.41,2.21-.71,3.17-1.04.41-.14.79-.34,1.19-.51.59-.27.84-1.36.41-1.89-.37-.47-.76-.92-1.16-1.36-.5-.56-1.06-1.07-1.51-1.66-.89-1.18-1.07-2.45-.38-3.71.76-1.38,1.49-2.77,2.59-3.94.78-.83,1.46-1.76,2.17-2.66.54-.7.48-1.66-.06-2.46-.76-1.12-1.64-2.14-2.73-2.95-.18-.13-.54-.02-.79-.02-.66.95-1.3,1.88-1.86,2.7-1.91.73-3.45,1.85-5.36,1.98-1.19-.4-2.3-.87-3.44-1.15-.86-.21-1.76-.19-2.58.62-.35.76-.73,1.7-1.21,2.57-.34.61-.83,1.14-1.23,1.68-2.8.56-5.47,1.19-7.92,2.46-.12.07-.27.09-.41.13-1.5.48-2.97.06-3.92-1.27-.7-.98-1.36-1.94-2.34-2.71-.69-.55-1.25-1.29-1.86-1.94-1.03-1.09-2.27-1.35-3.61-.71-.64.31-1.24.71-1.81,1.04-1.19-.09-2-.71-2.66-1.59-.34-.46-.41-1.23-.11-1.64,1.13-1.6,2.56-2.67,4.68-2.58,1.17.05,2.35.09,3.52.15,1.1.06,2,.52,2.62,1.48.99,1.54,2.46,2.61,3.79,3.83.88.81,1.84.95,2.85.5,1.18-.53,2.34-1.1,3.5-1.66.12-.06.19-.21.46-.52.15-.87.3-2.02.56-3.12.22-.92.92-1.41,1.82-1.63.28-.07.57-.14.86-.13,2.5.06,4.99.16,7.31,1.48.24.14.56.13.83.18.63-.05,1.19-.3,1.43-.82.61-1.31.85-2.71.54-4.16-3.41-3.14-7.7-4.06-11.32-5.69-2.36.09-4.4.31-6.42.21-1.29-.06-2.58-.59-3.87-.9-.58-.14-1.15-.25-1.65-.35-1.7.21-3.19.71-4.58,1.52-.87.51-1.84.77-2.85.96-3.06.59-6.12,0-9.15-.56-1.39-.24-2.34-1.26-2.85-2.61-.39-1.01-.39-2.01-.14-3.02.37-1.43,1.11-2.65,2.04-3.74.74-.87,17.22,7.03,17.98,6.17.27-.32-15.18-9.4-14.95-9.76.17-.26-.01-.92-.23-1.24-.7-1.04-1.97-1.37-2.76-2.27-.72-.81-1.16-1.72-.97-2.83.38-2.19,1.69-3.59,3.65-4.45.97-.43,3,.31,3.5,1.33.48.98.61,1.98-.22,2.84-.3.3-.61.61-.82.98-.11.2-.12.63.03.79.61.66,1.22,1.35,1.94,1.85,1.81,1.26,2.02,2.86,1.37,4.66-.23.67-.64,1.26-.95,1.86-2.42.97-4.57,2.09-4.78,4.98,1.08.96,1.4,1.16,1.87,1.25,1.64.32,3.2.17,4.73-.38,1.48-.54,3.02-.98,4.49-1.56,2.1-.83,4.22-.84,6.44-.23,1.14.32,2.32.44,3.48.62.28.04.57-.05.86-.06.34,0,.8-.51.78-.88-.06-2.05-.17-4.1-.19-6.15-.02-1.69.5-2.32,2.1-2.78.41-.12.85-.18,1.26-.31.63-.21.98-1.23.63-1.83-.45-.77-.87-1.58-1.45-2.25-2.38-2.73-5.09-5.07-8.21-6.93-1.54-.91-3.03-1.91-4.41-2.78-.63-1.05-1.15-1.94-1.65-2.78-.35-.13-.63-.28-.91-.32-3.52-.39-6.63-1.48-8.43-4.95-.07-.13-.18-.24-.29-.35-.42-.46-.9-.8-1.52-.86-.44-.04-.88-.02-1.31-.08-1.07-.14-1.94-.7-2.7-1.46-.89-.89-.97-2.42-.11-3.15,1.1-.91,2.22-1.78,3.36-2.64.34-.25.76-.38,1.16-.56.72-.32,1.9.21,2.23.99.11.27.21.56.26.84.1.57.17,1.15.24,1.62.32.29.52.54.76.68,1.09.64,1.85,1.5,2.11,2.76.06.28.16.58.29.84.42.83,1,1.49,1.96,1.7.72.16,1.43.34,2.13.5.61-.14,1.17-.28,1.74-.4,1.45-.31,2.69-1,3.78-1.96.36-.32.38-1.25-.02-1.61-.78-.7-1.56-1.4-2.38-2.05-1.77-1.39-3.58-2.72-5.34-4.13-2.38-1.91-4.22-4.26-5.49-7.01-.46-1-.37-1.98.18-2.93.61-1.03,1.47-1.71,2.5-2.28,3.31-1.83,3.46-2.5.37-4.75-.36-.26-.7-.57-.99-.91-.3-.33-.63-.69-.78-1.09-.67-1.81-1.49-3.62-1.2-5.57.15-1.03,0-2-.2-3.02-.28-1.44-.5-2.92-.17-4.36.17-.73.07-1.42-.09-2.16-.26-1.15-.38-2.32-.59-3.48-.08-.42-.21-.86-.41-1.25-.12-.24-.42-.49-.66-.52-.22-.03-.51.18-.68.36-.19.2-.34.47-.43.73-.73,2.19-1.45,4.38-2.13,6.58-.21.68-.35,1.41-.42,2.12-.19,2.19-.75,4.29-1.48,6.32-.45,1.24-.66,2.5-.81,3.8-.58,4.98-.68,5.23-3.16,9.23.68.62,1.36.4,2.02.08.74-.37,1.4-.15,2.06.27.52.34.91.77,1.07,1.39-.13.97.06,2.05-.85,3.01-.52.12-1.22.48-1.9.42-1.88-.16-3.8-.01-5.6-.86-.13-.06-.26-.15-.4-.2-.47-.17-1.05,0-1.09.35-.05.42-.13.9.03,1.26.38.8.87,1.56,1.37,2.31.83,1.25.83,2.56.31,3.79-.5,1.18-1.21,2.27-1.89,3.37-.21.34-.59.65-.97.82-.78.37-1.59.84-2.42.89-2.36.14-4.36,1.5-6.75,1.52-.69,0-1.46.32-2,.73-1.37,1.03-2.72,2.09-3.74,3.5-.33.46-.38,1.16-.12,1.64.73,1.36,1.77,2.39,3.15,3.1,2.14,1.1,4.12,2.41,5.51,4.47.55.82,1.48,1.04,2.37.91,1.72-.25,3.42-.6,5.11-.91.22-.19.48-.35.63-.58.71-1.12.45-1.94-.76-2.42-.68-.27-1.45-.34-2.09-1-.17-.28-.42-.66-.61-1.06-.19-.4-.32-.83-.46-1.21.32-1.62,1.51-2.13,2.91-2.05,1.45.08,2.9.44,4.4.68.57.51,1.14,1,1.7,1.49.11.1.21.21.31.33.97,1.12,1.32,2.38.78,3.69-.65,1.59-1.44,3.12-2.11,4.54-.59.45-1.05.79-1.51,1.14-1.61,1.24-3.4,1.43-5.36.67-.27-.1-.57-.08-.78-.11-1.33.33-2.58.63-3.75.92-.76.97-1.21,2.02-1.98,2.9-1.49,1.71-2.85,3.56-4.14,5.44-.66.97-1.42,1.77-2.35,2.45-.69.5-1.4,1.02-1.96,1.65-1.08,1.23-2.38,2.01-3.97,2.42-.25.06-.45.33-.66.52-.24.24-.3.58-.06.76,1.54,1.17,3.15,2.25,4.77,3.29.45.29,1.17.37,1.69.27,1.43-.27,2.79-.76,3.98-1.58.48-.33.88-.73.98-1.19-.21-1.44-.46-2.73-.56-4.03-.06-.79.44-1.34,1.15-1.67.7-.33,1.41-.26,2.09.16.79.48,1.38,1.17,1.75,2,.36.81.61,1.67.94,2.62-.21,1.06-.38,2.21-.69,3.32-.28.99-.88,1.79-1.81,2.31-1.12.62-2.21,1.31-3.37,1.89-2.15,1.07-4.4,1.34-6.76.32-1.09-.47-2.19-.95-3.23-1.52-.98-.53-1.98-.58-3-.56-.9.02-1.7.35-2.46.76h0ZM131.27,113.9c1.58,2.48,3.73,4.76,3.67,8.19-.12.3-.29.85-.55,1.35-.81,1.6-.52,3.16.55,4.54,1.66,2.12,3.29,4.31,5.48,5.93,1.61,1.19,2.78,2.71,3.98,4.24,1.13,1.45,1.29,2.96.52,4.53-.19.39-.37.78-.57,1.21-.66.49-1.35.99-2.03,1.51-.27.21-.21.91.05,1.18.83.89,1.82,1.56,2.92,2.04,1.83.81,3.2,2.21,4.51,3.65.58.65.94,1.5,1.32,2.13-.15,1.76-.79,3.28-.28,5.02.97,1.03,2.07,2.06,3,3.21.84,1.03,1.49,2.22,2.22,3.32-.38,2.05-.43,4.12-1.74,6.07-.65.38-1.61.77-2.37,1.39-1.94,1.58-4.26,1.61-6.62,1.43-2.1-.16-4.03-.86-5.73-2.22-1.64-1.3-3.3-2.57-4.87-3.79-1.33-.28-2.07.39-2.55,1.31-.39.75-.61,1.61-.84,2.44-.32,1.11-.56,2.24-.9,3.34-.42,1.37-1.35,2.15-2.82,2.26-.87.06-1.76.06-2.6.24-.7.14-1.34.49-1.99.74-1.17-.22-2.31-.82-3.43-.12-1.19-.59-2.38-1.18-3.57-1.76-.81-.4-1.54-.92-2.15-1.61-.49-.56-.9-1.21-1.69-1.52-1.58-.18-1.93,1.47-3.53,2.38-.51.17-1.58.57-2.68.91-1.1.34-2.22.63-3.39.96-1.38-.29-2.83-.75-4.27-.83-1.15-.07-2.29.33-3.76.58-1.7-.43-3.73-.6-5.79-.58-1.78.01-3.09-.9-3.81-2.5-.42-1.15.26-2.06.27-3.07,0-.73.06-1.46.07-2.19.01-.7-.62-1.4-1.37-1.53-1.45-.25-2.91-.47-4.51-.18-2.09,1.06-3.95,2.58-5.41,4.57-.42.58-.85,1.17-1.37,1.65-.51.47-1.12.88-1.75,1.19-.63.32-1.37.43-2.02.74-1.67.78-3.41.63-5.13.05-1.48-.5-2.61-1.42-3.03-3.03-.19-.71-.39-1.43-.68-2.11-.16-.4-.49-.74-.77-1.09-.32-.4-1.27-.54-1.59-.2-1.69,1.73-3.68,3.16-5.03,5.22-.31.48-.64.95-1,1.39-.73.91-1.69,1.59-2.82,1.89-2.13.57-4.34.57-6.5-.13-1.31-.42-2.35-1.33-2.91-2.64-.52-1.23-.95-2.49-1.36-3.57.12-1.95.45-3.65,1.27-5.08-.3-.61-.76-.79-1.11-.6-.75.41-1.43.94-2.12,1.45-.84.61-1.45,1.46-1.58,2.48-.36,2.87-2.34,4.5-4.31,6.16-.43.36-1.57.36-2.09-.03-.97-.7-1.9-1.43-2.76-2.08-1.64.14-2.65,1.4-4.16,1.5-1.49.1-2.58,1.25-4.24,1.48-1.11-.15-2.41-.41-3.72-.48-1.31-.07-2.63.09-3.94.1-1.76,0-3.51.03-5.27-.07-3.17-.17-4.85-3.69-3.61-6.2.9-1.81,1.79-3.59,2.02-5.65.12-1.05.69-1.89,1.49-2.54.66-.54,1.33-1.1,2.09-1.47,1.82-.89,3.34-2.18,4.92-3.39.58-.44.71-1.08.28-1.94-1.46-2.9-.63-5.41.89-7.81.56-.88,1.49-1.35,2.42-1.72,1.2-.48,2.48-.78,3.71-1.17.96-.3,1.91-.62,2.72-.88.83-.85,1.51-1.58,2.23-2.27,1.21-1.15,1.86-2.63,1.69-4.28-.21-1.94,0-3.78.36-5.64.21-1.11-.33-2.02-1.21-2.7-.47-.35-1.03-.58-1.56-.85-2.35-1.19-4.21-2.83-5.04-5.67.1-.65.31-1.49.33-2.35.06-1.84.91-3.33,1.84-4.76.63-.97,1.62-1.61,2.67-2.1,2.33-1.09,4.67-2.16,7.01-3.22.96-.94.54-2.62,1.69-3.41.93-.64,1.97-1.13,2.95-1.72.49-.29,1.04-.56,1.4-.97,1.42-1.63,3.06-2.97,4.88-4.14.6-.39.87-1.11.84-2.1-.29-.31-.61-.85-1.09-1.16-1-.66-2.07-1.19-3.11-1.79-1.04-.6-1.55-1.91-1.21-3.07.41-1.41,1.01-2.74,2.17-3.64,1.8-1.4,3.6-2.81,5.65-3.88,1.65-.87,3.29-1.76,4.9-2.69,2.13-1.24,3.93-2.82,5.23-4.95,1.27-2.07,2.98-3.83,4.12-5.99.2-.38.43-.74.62-1.12.4-.81-.02-2.21-.84-2.77-.49-.34-1.02-.63-1.52-.94-.88-.55-1.75-1.16-2.66-1.64-1.99-1.04-3.19-2.66-3.85-4.73-.09-.28-.17-.57-.33-1.09.39-2.64,1.54-4.99,4.06-6.5.36-.22.75-.43,1.07-.71,1.76-1.58,3.87-2.37,6.22-2.75,2.01-.33,3.85-1.18,5.7-1.96.47-.2.77-.79,1.07-1.12-.18-1.56-1.13-2.59-1.83-3.73-.58-.96-.74-1.93-.52-2.96.24-1.13.51-2.26.81-3.37.53-1.94,1.64-3.32,3.7-3.78.42-.09.85-.21,1.24-.38,1.24-.55,2.14-1.42,2.38-2.83.2-1.14.48-2.28.53-3.44.07-1.78.51-3.46.99-5.11.72-2.49,1.4-5,2.15-7.47.3-.97.58-1.92.75-2.93.44-2.59,1.61-4.92,2.55-7.32.42-1.09,1.47-1.74,2.67-1.98,2.05-.4,4.08.5,5.34,2.42.82,1.25,1.47,2.6,1.62,4.1.09.88.13,1.76.19,2.63.15,2.04.29,4.09.43,6.13.88,1.98.38,4.08.85,6.09.13.57.24,1.15.38,1.83,1.13,1.13,2.29,2.3,3.45,3.46.43.42.94.76,1.31,1.23,1.68,2.12,1.71,2.82.29,4.61-1,1.26-2.25,2.18-3.57,3.04-.58.38-1.29.66-1.48,1.47,1.48,2.77,1.46,2.79,2.83,3.85,2.02,1.55,3.94,3.24,6.1,4.59,2.08,1.3,3.6,3.16,4.99,5.12.73,1.04.82,2.2.27,3.34-.56,1.17-1.17,2.28-2.27,3.06-.57.4-1.04.97-1.48,1.52-.13.17,0,.54.02.79,3.14,2.79,6.26,5.59,9.41,8.35,1.52,1.33,2.54,3,3.22,4.79,1.14,3.01.91,5.79-1.64,7.92-.33.27-.61.58-.81.77-.43,1.14-.37,2.15-.05,3.17.81,1.3,1.87,2.3,3.3,2.93.68.3,1.31.75,2.01.98,3.6,1.16,6.61,3.38,9.61,5.61.24.18.5.33.75.49,1.11.75,2.42,1.33,3.31,2.3,1.82,1.97,3.43,4.14,5.12,6.24.18.23.31.51.45.78.55.99.57,2.03.08,2.95-.67,1.25-1.3,2.56-2.33,3.58-.81.8-1.56,1.67-2.31,2.53-.27.32-.46.72-.74,1.16Z"/>
  </g>
</svg>