<?xml version="1.0" encoding="UTF-8"?>
<svg id="Layer_2" data-name="Layer 2" xmlns="http://www.w3.org/2000/svg" viewBox="0 0 19.1 35.92">
  <defs>
    <style>
      .cls-1 {
        fill: #753d22;
        fill-rule: evenodd;
      }
    </style>
  </defs>
  <g id="Layer_2-2" data-name="Layer 2">
    <g>
      <path class="cls-1" d="M6.83,26.92c-13.74,0-3.18-21.36.85-25.41l.83-.84c3.51-2.92,7.65,4.44,8.06,6.21,1.57,6.71,5.73,17.28-2.06,20.12-1.73.8-5.12-.07-7.68-.1v.02ZM4.03,24.48c.69.37,1.62.58,2.8.58,6.04-.04,14.52,3.82,8.5-14.85-.78-2.41-1.16-6.21-4.42-7.97C8.01.68,2.21,16.03,2.63,20.91c.14,1.61.14,2.89,1.4,3.57Z"/>
      <path class="cls-1" d="M7.67,26.15c.01-.51.44-.92.96-.9.51.02.91.45.89.96l-.29,8.83c-.04,1.21-2.36,1.15-2.33-.06.71-2.23.86-5.34.76-8.83h0ZM10.5,26.62c-.02-.51.39-.94.9-.95.52-.03.94.38.96.9-.16,2.74-.56,6.15.53,8.36.04,1.21-2.29,1.33-2.33.12l-.05-8.42Z"/>
      <path class="cls-1" d="M2.25,24.68c-.26-.01-.45-.22-.45-.48.02-.26.23-.46.48-.44,1.32.05,2.62.1,3.82.11,1.2,0,2.35,0,3.39-.06,1.2-.08,2.44-.11,3.69-.13,1.24-.03,2.49-.03,3.75-.01.25,0,.46.21.46.47s-.21.46-.46.45c-1.25,0-2.5,0-3.73.01-1.22.02-2.43.06-3.65.14-1.05.07-2.22.08-3.46.06-1.24-.02-2.52-.07-3.84-.12h0ZM2.67,13.13c-.25-.01-.46-.23-.45-.48.01-.25.23-.45.48-.44.91.03,1.8.07,2.65.09.85.02,1.68.02,2.46.02.25,0,1.25.2,1.26.46,0,.25-.99.46-1.25.46-.79,0-1.64,0-2.5-.01-.87-.02-1.75-.06-2.65-.09h0ZM10.95,13.1c-.26,0-.47-.19-.48-.44,0-.26.19-.47.44-.48l1-.04c.25,0,.89.19.89.45s-.61.47-.86.48l-1,.04h0ZM1.18,22.25c-.26-.02-.45-.24-.43-.5.02-.25.25-.45.5-.43l.88.06c2.6.21,4.97.4,6.61.37h.62c.25-.02,1.3.28,1.31.54,0,.25-1.03.38-1.29.38h-.58c-1.74.04-4.12-.15-6.73-.36l-.88-.07h0ZM12.66,22.71c-.25,0-.46-.2-.47-.45,0-.25.2-.47.45-.47l2.43-.07c.26,0,.93.29.94.55,0,.25-.66.38-.92.38l-2.43.06h0ZM3.57,10.88c-.25-.02-.45-.24-.43-.5.02-.26.24-.45.5-.43.91.07,1.78.13,2.54.18.8.04,1.53.08,2.15.08.25,0,1.25.21,1.25.46s-1,.46-1.25.46c-.66,0-1.4-.03-2.2-.07-.82-.04-1.68-.1-2.57-.17h0ZM1.06,19.96c-.26-.01-.45-.23-.44-.49.02-.26.24-.45.5-.43,1.46.11,2.94.21,4.35.3,1.47.1,2.92.18,4.35.24.25,0,1.38.32,1.37.58-.01.26-1.15.36-1.41.35-1.47-.07-2.93-.15-4.37-.25-1.5-.09-2.93-.2-4.36-.3h0ZM4.63,8.64c-.26-.01-.45-.23-.43-.48.01-.26.23-.46.49-.43l2.14.14c.73.04,1.45.08,2.15.12.25,0,1.24.23,1.23.48,0,.26-1.02.46-1.27.44-.73-.03-1.43-.07-2.12-.11-.04-.01-2.18-.14-2.18-.14h0ZM1.84,15.69c-.26,0-.46-.22-.46-.47s.21-.47.47-.46l2.77.03,2.78.03c.25,0,.46.21.46.47,0,.26-.21.46-.47.46l-2.78-.02-2.78-.03h0ZM9.2,15.76c-.26,0-.46-.21-.46-.47s.21-.46.47-.46l2.36.02c.25,0,.92.3.92.56,0,.26-.67.37-.93.37l-2.35-.03h0ZM7.27,4.18c-.25,0-.46-.21-.46-.47s.21-.46.47-.46l3.4.04c.25,0,1.24.21,1.24.47s-1,.46-1.25.46l-3.4-.02h0ZM1.38,17.49c-.25-.01-.45-.24-.43-.5.01-.25.23-.45.49-.43l.5.03c3.05.2,6.06.39,8.83.43.25,0,1.76.39,1.75.65,0,.26-1.51.28-1.77.28-2.82-.03-5.84-.24-8.87-.44l-.5-.03h0ZM5.97,6.21c-.25-.01-.45-.23-.43-.49,0-.25.23-.46.48-.44.64.04,1.27.07,1.86.09.62.03,1.23.05,1.81.07.26,0,1.25.22,1.24.47-.01.25-1.01.46-1.27.45-.61-.01-1.22-.04-1.83-.07-.64-.02-1.26-.06-1.87-.09Z"/>
    </g>
  </g>
</svg>