<?xml version="1.0" encoding="UTF-8"?>
<svg id="Layer_2" data-name="Layer 2" xmlns="http://www.w3.org/2000/svg" viewBox="0 0 17.89 30.29">
  <defs>
    <style>
      .cls-1 {
        fill: #714226;
        fill-rule: evenodd;
      }
    </style>
  </defs>
  <g id="Layer_2-2" data-name="Layer 2">
    <path class="cls-1" d="M8.54,15.1c.07-.07.15-.15.17-.18.8-.71,1.57-1.47,2.38-2.18.33-.28.73-.46,1.12-.64.47-.21,1.04-.09,1.2.48.08.32-.02.68-.13.98-.19.55-.15.29-.6.5-.8.33-1.4,1.01-2.03,1.57-1.4,1.25-2.09,2.76-2.17,4.58.04-.03.09-.04.13-.06.28-.11.54-.06.81-.03.38.01.77.09,1.15.05,1.53-.1,2.68-.57,3.42-1.99.75-1.42,1.52-2.82,1.8-4.42.59-3.38.15-6.55-1.92-9.37-1.22-1.68-2.85-2.48-4.94-2.26-.19.01-.52.03-.68.11-1.1.62-2.32,1.09-3.25,1.96-.84.79-1.52,1.64-1.81,2.77-.15.56-.37,1.1-.57,1.63-.38,1.03-.65,2.09-.67,3.19-.03.8-.06,1.6-.16,2.4-.15,1.14.05,2.28.32,3.39.31,1.32,1.08,2.15,2.44,2.36.65.1,1.29.22,1.94.32.21-1.19.12-2.25,0-3.47-.05-.4-.37-.86-.59-1.19-.28-.4-.68-.72-1-1.11-.3-.36-.58-.74-.83-1.14-.28-.49-.11-1.16.43-1.39.47-.2.82.03,1.12.37.35.36.56.82.97,1.1.24-.54.22-1.14.21-1.74,0-.92,0-1.84.09-2.75.04-.49.29-.96.54-1.38.17-.3.71-.44,1.03-.32.29.13.53.51.55.83.02.33-.11.58-.16.9-.03.21-.07.43-.09.65.54-.84,1.18-1.59,2-2.16.44-.31,1.03-.29,1.28.24.15.32.06.65.01,1-.08.36-.05.23-.37.47-1.46,1.05-2.23,2.66-3,4.23-.35.71-.27,1.03-.13,1.67h0ZM8.47,21.93v2.07c0,1.53,0,3.05-.02,4.58,0,.43-.1.87-.26,1.27-.13.31-.58.43-.89.44-.3,0-.62-.33-.69-.62-.06-.35-.06-.71-.07-1.08,0-1.86,0-3.72,0-5.58,0-.23-.04-.47-.08-.71-.82-.15-1.64-.31-2.45-.46-1.86-.35-3.07-1.48-3.53-3.32-.18-.67-.34-1.35-.39-2.06-.24-3.72.12-7.34,1.62-10.79.56-1.27,1.27-2.37,2.34-3.27C5.24,1.39,6.66.73,8.13.18c1.28-.47,3.56.02,4.72.68,1.99,1.11,3.18,2.89,4.04,4.94.68,1.63.98,3.32,1,5.08,0,1.68-.22,3.33-.72,4.94-.55,1.78-1.5,3.39-2.67,4.83-.25.3-.56.59-.91.74-1.49.66-3.04.99-4.65.69-.16-.03-.32-.07-.46-.16Z"/>
  </g>
</svg>