<?xml version="1.0" encoding="UTF-8"?>
<svg id="Layer_2" data-name="Layer 2" xmlns="http://www.w3.org/2000/svg" viewBox="0 0 24.87 45.66">
  <defs>
    <style>
      .cls-1 {
        fill: #5c2f1c;
        fill-rule: evenodd;
      }
    </style>
  </defs>
  <g id="_Layer_" data-name="&amp;lt;Layer&amp;gt;">
    <path class="cls-1" d="M12.58,38.35c.04-1.66.08-2.58.08-3.5,0-.21-.14-.43-.21-.64-.05.12-.12.24-.14.37-.03.26-.05.53-.05.79,0,.79-.06,1.58.32,2.99h0ZM16.99,5.12s.03-.39.04-.8c0-.13-.06-.26-.08-.4-.06-.42-.26-.76-.61-1-.22-.15-.46-.29-.72-.38-.37-.15-.82-.26-1.11.1-.71.87-1.52,1.53-2.67,1.69-.26.04-.53.16-.73.31-.21.16-.39.39-.5.62-.24.5-.08,1.07-.17,1.59-.07.41-.17.8-.56,1.03-.35.2-.69.41-1.04.61-.37.2-.64.49-.83.86-.13.24-.25.48-.37.72-.42.91-.46,1.82-.02,2.74.18.37.37.73.47,1.12.13.53.12,1.06-.08,1.59-.15.41-.41.72-.78.88-.62.26-1.29.41-1.92.65-.77.3-1.42.8-1.77,1.57-.39.86-.74,1.74-1.08,2.62-.08.24-.05.53-.06.8-.02.54.46,1.07.98,1.08.67,0,1.35-.02,2.02,0,.69.02,1.14.84.8,1.48-.12.23-.25.47-.43.67-.18.2-.41.35-.61.54-.48.49-.48,1.29-.04,1.84.45.55,1,.93,1.7,1,.8.08,1.62.1,2.43.1.4,0,.83-.03,1.19-.19.91-.39,1.79-.43,2.76-.21.64.14,1.35.08,2.01,0,1.21-.16,2.4-.37,3.6-.6.24-.04.47-.24.68-.4.25-.2.3-.47.17-.7-.13-.23-.32-.43-.46-.66-.39-.64-.33-.98.25-1.37.67-.45,1.37-.86,2.04-1.32.84-.58,1.23-1.42,1.21-2.43-.02-1.39-.42-2.67-1.26-3.78-.32-.43-.72-.8-1.03-1.25-.31-.45-.47-.98-.24-1.52.1-.25.23-.49.37-.72.55-.89.49-1.81.07-2.71-.4-.87-.95-1.64-1.77-2.17-.45-.29-.89-.61-1.33-.92-.48-.35-.59-.88-.62-1.43-.01-.27.04-.54.09-1.22h0ZM10.33,36.57c.07-1.18.14-2.39.19-3.61.02-.41,0-.81-.01-1.21,0-.43-.6-1.04-1.07-1.08-1.21-.1-2.42-.18-3.63-.32-.69-.07-1.28-.41-1.75-.94-.27-.3-.5-.64-.76-.94-.62-.74-1.06-1.56-1.13-2.54-.02-.28-.21-.49-.43-.66-.32-.25-.66-.48-.95-.76-.73-.72-.98-1.61-.69-2.59.42-1.43.97-2.81,1.61-4.15.61-1.27,1.46-2.27,2.79-2.8.12-.05.25-.1.37-.17.25-.14.5-.79.39-1.08-.29-.76-.62-1.5-.71-2.32-.07-.68-.13-1.35-.04-2.02.09-.68.31-1.31.83-1.79.39-.37.78-.77,1.23-1.06,1.05-.68,1.82-1.57,2.33-2.73.27-.62.84-1.06,1.42-1.41.46-.28,1.01-.41,1.44-.72.43-.31.73-.79,1.13-1.15.41-.37.92-.57,1.48-.48,1.36.2,2.61.68,3.66,1.6.11.08.23.16.3.27.21.33.49.66.6,1.03.15.51.23,1.07.21,1.6-.04,1.17.41,2.09,1.25,2.87.29.28.53.61.82.9.89.9,1.36,1.99,1.61,3.22.11.54.12,1.06,0,1.6-.09.39-.15.8-.18,1.2-.02.26,0,.56.12.79.69,1.46,1.35,2.95,1.93,4.46.25.66.21,1.33.04,1.99-.15.52-.31,1.04-.52,1.54-.15.37-.34.76-.62,1.03-.72.7-1.02,1.5-1.11,2.5-.1,1.15-.78,1.99-1.89,2.42-.51.2-1.01.39-1.54.52-.65.16-1.33.24-1.98.4-.53.12-1.03.29-1.55.47-.41.14-.71.51-.74.89-.2,2.15-.28,4.31-.2,6.47.03.81.16,1.6.39,2.39.18.65.32,1.32.39,1.98.09.82-.05,1.62-.41,2.37-.4.86-1.46,1.35-2.38,1.03-.66-.23-1.19-.62-1.4-1.35-.15-.52-.31-1.03-.45-1.56-.1-.39-.2-.79-.22-1.19-.08-1.62-.13-3.24-.2-4.9Z"/>
  </g>
</svg>