<?xml version="1.0" encoding="UTF-8"?>
<svg id="Layer_2" data-name="Layer 2" xmlns="http://www.w3.org/2000/svg" viewBox="0 0 17.52 56.47">
  <defs>
    <style>
      .cls-1 {
        fill: #5c2f1c;
        fill-rule: evenodd;
      }
    </style>
  </defs>
  <g id="_Layer_" data-name="&amp;lt;Layer&amp;gt;">
    <path class="cls-1" d="M5.57,49.49c.1.16.19.24.21.34.04.21.05.44.07.66.07.77.15,1.54.21,2.32.02.22.01.45-.05.66-.07.27-.25.38-.39.31-.09-.05-.2-.16-.21-.25-.18-1.34.21-2.65.16-4.04h0ZM6.14,40.59c-.02-.93,0-1.73.22-2.5.24-.76.53-1.5.81-2.24.08-.21.2-.41.3-.62.16-.31.29-.35.4-.13.05.1.1.21.09.31-.14,1.13-.54,2.2-.93,3.26-.24.65-.34,1.31-.41,1.99-.05.45-.1.9-.16,1.35-.18,0-.25-.1-.25-.2-.03-.46-.05-.91-.06-1.23h0ZM1.93,49.17c.03-1.34.11-2.69.19-4.04,0-.11.06-.21.1-.33.12.06.23.22.24.49.12,2.36.24,4.7.36,7.06.01.22-.01.45-.06.67-.04.22-.11.43-.19.64-.04.1-.13.23-.21.24-.15.02-.33-.13-.4-.38-.08-.32-.15-.66-.14-.99.02-1.12.08-2.24.12-3.37h0ZM6.36,25c.07.23.16.44.21.65.21,1.05.79,1.83,1.72,2.37.25.15.4.67.3.89-.51,1.12-1.02,2.24-1.53,3.37-.04.1-.12.19-.2.27-.07.08-.15.15-.24.21-.29.2-.41.13-.43-.21-.1-2.35-.16-4.7.05-7.05.01-.16.07-.32.12-.49h0ZM7.27,49.34c.08.99.05,2.36.37,3.68.06.25.26.34.49.4.27.08.45.02.54-.26.07-.21.17-.42.19-.64.02-.33-.01-.68-.03-1.02-.03-.68-.02-1.37.15-2.03.33-1.23.38-2.46.31-3.72-.04-.8,0-1.59-.02-2.38-.01-.45-.01-.92-.14-1.35-.23-.8-.1-1.57.02-2.36.04-.25-.03-.45-.26-.58-.17.15-.34.29-.49.45-.07.07-.11.2-.14.3-.64,3.01-.9,6.06-1,9.5h0ZM13.43,17.18c.26-.04.44.06.57.27.18.3.25.63.27.96.1,1.7.08,3.39-.08,5.08-.08.91-.24,1.77-.56,2.63-.61,1.6-1.37,3.07-2.67,4.25-.58.53-.94,1.27-1.54,1.8-.26.24-.38.25-.46-.1-.02-.1-.05-.22-.02-.32.34-1.09.94-2.05,1.51-3.02.46-.77,1.11-1.44,1.55-2.22.51-.9.26-1.99.64-2.96.46-1.2.43-2.43-.14-3.62-.2-.41-.25-.86-.25-1.32,0-.7.43-1.22,1.19-1.43h0ZM6.37,21.04c-.2-.42-.15-.88-.17-1.33-.08-2.14-.23-4.27-.5-6.41-.17-1.34-.26-2.69-.33-4.04-.1-2.03-.16-4.06-.57-6.06-.05-.21,0-.45.05-.66.02-.1.12-.27.18-.27.21,0,.44.02.64.08.58.19.98.55,1.03,1.19.1,1.35.22,2.69.41,4.04.23,1.57.24,3.16.02,4.72-.37,2.69-.52,5.38-.64,8.09,0,.22-.09.43-.14.65h0ZM3.38,3.69c-.02-.06-.09-.28-.18-.49-.04-.1-.13-.17-.2-.25-.09.08-.2.13-.26.23-.59.89-.83,1.89-.53,2.92.26.88.43,1.76.5,2.67.06.8.1,1.59.23,2.37.39,2.25.48,4.52.51,6.79.05,3.98.04,7.95-.01,11.93-.03,2.39-.05,4.77.34,7.14.09.56.06,1.13.08,1.7.05,1.02.1,2.04.17,3.06.02.26.15.45.28.45.06,0,.14-.18.15-.29.24-2.72.32-5.44.28-8.17,0-.57-.05-1.13-.03-1.7.13-3.98.02-7.95,0-11.93,0-2.27-.14-4.54-.22-6.81,0-.23-.01-.46-.06-.68-.43-2.01-.43-4.07-.57-6.1-.06-.91-.14-1.81-.49-2.83h0ZM12.87,31.13c.26-.16.31-.25.18-.19-.06.03-.06.18-.1.27-.23.04-.36.12-.39.22.21-.15.25-.23.31-.3h0ZM.59,25.7c0,1.03.02,2.05,0,3.07-.02,1.25-.02,2.5.04,3.75.17,3.63.04,7.27-.05,10.91-.02.8-.05,1.59-.06,2.39,0,.8-.04,1.6-.23,2.37-.13.57-.12,1.12-.04,1.69.04.33.02.68-.05,1.01-.25,1.24-.25,2.49-.13,3.73.05.59.35,1.08.82,1.44.17.14.39.25.6.27,1.25.14,2.5.12,3.74.14.22,0,.46-.05.66-.15.43-.22.86-.2,1.32-.09.33.08.69.17,1,.02.72-.33,1.47-.62,2.01-1.24.14-.17.31-.36.36-.57.34-1.56.72-3.1.9-4.68.06-.57.09-1.15-.15-1.68-.34-.74-.47-1.5-.47-2.32,0-2.84-.05-5.68-.06-8.53,0-.57.06-1.13.11-1.7.03-.35.19-.66.46-.88.35-.29.72-.55,1.09-.81.76-.51,1.42-1.13,2.03-1.82.91-1.04,1.55-2.22,1.89-3.58.56-2.21.8-4.47,1.1-6.73.04-.33.05-.69,0-1.02-.21-1.11-.42-2.24-.7-3.33-.14-.55-.53-.99-1-1.34-1.1-.85-3.17-.9-4.42.25-.25.23-.46.52-.54.86-.18.89-.35,1.77-.29,2.69.1,1.48.17,2.96.05,4.43-.06.71-.4,1.29-1.01,1.7-.27.18-.69.13-.89-.16-.13-.19-.27-.38-.31-.59-.09-.44-.16-.9-.16-1.35,0-2.05-.04-4.09.11-6.14.02-.34,0-.68.06-1.01.59-3.62.43-7.26.32-10.9-.02-.8-.06-1.6-.12-2.38-.09-1.09-.56-1.94-1.56-2.48C5.99.39,4.87.22,3.76,0c-.1-.02-.22.04-.33.06-.96.2-1.65.72-2.12,1.57-.5.92-.78,1.89-.87,2.92-.03.34-.04.68-.04,1.02,0,.92,0,1.82.02,2.73.08,2.73.13,5.46.14,8.19,0,1.48.15,2.95.16,4.42.02,1.37-.06,2.73-.1,4.1,0,.23,0,.45,0,.68h-.03Z"/>
  </g>
</svg>