<?xml version="1.0" encoding="UTF-8"?>
<svg id="Layer_2" data-name="Layer 2" xmlns="http://www.w3.org/2000/svg" viewBox="0 0 102.82 70.46">
  <defs>
    <style>
      .cls-1 {
        fill: #5c2f1c;
        fill-rule: evenodd;
      }
    </style>
  </defs>
  <g id="_Layer_" data-name="&amp;lt;Layer&amp;gt;">
    <g>
      <path class="cls-1" d="M61.58,38.38c-.02-.12-.05-.24-.07-.36-.07.03-.19.05-.19.08,0,.12.04.24.06.36.07-.03.14-.05.2-.08h0ZM39.28,53.77c.06-.25,0-.49-.18-.7-.18.08-.24.28-.22.58.02.33.12.52.27.45.08-.04.1-.21.13-.32h0ZM81.02,31.8c0-.25-.08-.48-.27-.66-.02-.02-.16.06-.22.12-.07.08-.12.18-.14.29-.09.46,0,.92.22.99.07.02.18-.05.24-.11.14-.16.18-.38.16-.63h0ZM43.89,37.76c0,.1-.02.25.02.28.1.06.25.1.34.07.1-.04.19-.16.21-.26.02-.11,0-.31-.06-.35-.18-.11-.37,0-.52.26h0ZM63.99,36.9c.03-.39.08-.78-.18-1.11-.15-.19-.43-.2-.64-.07-.08.06-.16.17-.16.26,0,.38.18.73.38,1.07.06.11.18.25.27.27.18.03.29-.16.33-.42h0ZM61.81,49.93c0,.18,0,.3,0,.43-.01.27.08.55.33.68.14.07.32-.16.39-.43.1-.36.11-.74.02-1.13-.07-.29-.21-.5-.41-.51-.08,0-.18.17-.21.28-.06.24-.08.49-.11.69h0ZM81.29,42.33c-.06.26.01.03.03-.21,0-.1-.08-.25-.17-.32-.2-.17-.51-.21-.62,0-.33.66-.39,1.4-.09,2.17.02.06.17.16.22.14.12-.02.27-.09.29-.19.1-.35.16-.72.33-1.59h0ZM84.52,43c-.17-.62-.33-1.24-.51-1.85-.03-.11-.11-.27-.19-.31-.17-.08-.34.06-.43.33-.15.45-.29.9-.42,1.36-.1.34.25.77.63.8.39.03.7-.08.93-.33h0ZM60.82,24.18c0-.37,0-.74,0-1.12,0-.29-.11-.57-.27-.59-.25-.02-.46.15-.58.37-.11.21-.21.43-.28.66-.04.11-.02.24-.02.37,0,.41.37.83.71.77.23-.03.38-.18.45-.46h0ZM65.54,21.36c0-.12,0-.25-.04-.37-.06-.31-.21-.47-.43-.46-.12,0-.24.02-.33.08-.1.06-.17.15-.24.25-.35.49-.43,1.08-.35,1.71.01.11.12.22.22.32.16.16.41.22.63.07.53-.37.59-.96.54-1.6h0ZM74.1,45.23c.05.37.07.62.13.87.03.12.1.3.18.34.22.09.46.03.62-.16.42-.47.55-1.06.44-1.72-.04-.28-.24-.45-.48-.51-.29-.08-.52-.01-.61.25-.13.33-.21.68-.28.93h0ZM87.28,41.18c-.05-.5-.03-.64-.08-.76-.1-.28-.28-.46-.5-.5-.12-.02-.29-.04-.36.02-.18.14-.37.3-.45.5-.19.46-.14.98-.02,1.49.06.29.24.45.48.52.29.08.48,0,.63-.23.27-.42.32-.9.3-1.04h0ZM71.22,46.89c.01.1,0,.22.04.35.09.28.27.43.5.5.3.1.5.02.6-.26.08-.22.2-.44.21-.68.03-.37.02-.75-.04-1.12-.04-.29-.25-.46-.47-.51-.29-.06-.49.04-.62.26-.25.42-.25.92-.22,1.46h0ZM27.01,55.64c.27,0,.65.02,1.03.03.29,0,.5-.05.62-.17-.14-.24-.36-.37-.62-.49-.48-.21-.94-.53-1.44-.69-.53-.18-1-.02-1.35.37-.07.08-.1.24-.08.36.02.08.12.2.21.25.48.29,1,.27,1.62.34h0ZM77.16,44.23c.02.25,0,.51.06.75.07.3.28.46.5.47.13,0,.26.02.36-.04.1-.05.17-.16.23-.26.29-.54.32-1.16.26-1.79-.01-.11-.11-.25-.2-.33-.18-.14-.47-.21-.66-.07-.41.29-.51.77-.54,1.27h0ZM77.89,31.69c0-.07,0,.31.07.69.05.3.22.51.37.5.1,0,.22-.14.25-.24.17-.59.33-1.18.45-1.77.16-.75.75-1.2,1.03-1.86.04-.08-.01-.23-.07-.33-.06-.09-.2-.21-.26-.19-.59.19-1.03.58-1.44,1.02-.24.26-.4.59-.41.98v1.2h0ZM64.27,48.6c.02.22.04.47.08.71.02.12.08.24.13.35.11.25.31.41.6.42.23.02.46-.09.55-.32.18-.45.3-.91.43-1.37.03-.11-.02-.25-.04-.37-.06-.46-.76-.84-1.15-.65-.47.24-.59.68-.59,1.23h0ZM69.53,47.59c-.01-.25-.02-.5-.04-.75-.03-.33-.46-.68-.77-.68-.55,0-.87.31-1.06.77-.19.46-.19.95-.1,1.45.07.43.8.82,1.19.66.35-.14.57-.37.66-.75.06-.23.09-.48.13-.72h0ZM34.65,42.91c-.64,0-1.36-.56-2.12-.5-.31.03-.41.27-.32.43.06.12.17.25.27.29.24.08.51.16.75.14,1.04-.1,1.99.21,2.91.88.31.22.72.33,1.09.43.23.06.49.02.72-.02.12-.01.21-.11.31-.17-.07-.12-.14-.25-.23-.33-.51-.46-1.13-.68-1.75-.86-.5-.14-1.01-.18-1.64-.28h0ZM20.89,66.47c.2,0,.7-.02,1.21.03,1.01.1,2.03.25,3.05.34.31.03.53-.09.5-.19-.04-.1-.21-.19-.33-.22-.76-.13-1.52-.3-2.28-.37-.9-.08-1.75-.38-2.61-.72-.11-.05-.24.02-.36.03-.34.02-.63.52-.45.87.23.44.62.33,1.26.22h0ZM38.45,38.53c.82.3,1.27.62,1.79.64.26.01.44-.12.55-.34.12-.27.07-.49-.15-.66-.53-.44-1.15-.64-1.77-.78-.86-.2-1.74-.33-2.61-.48-.12-.02-.34.03-.34.07,0,.2.14.4.39.56.78.5,1.64.81,2.15,1h0ZM91.13,54.49c-.03.71-.06,1.6-.09,2.49,0,.12.07.25.1.37.1.28.32.41.6.29.36-.14.59-.48.47-.86-.28-.92-.26-1.79-.11-2.66.08-.5.18-.99.2-1.49,0-.37-.19-.76-.49-1.04-.08-.08-.25-.1-.37-.09-.09,0-.2.1-.23.18-.31.83.12,1.77-.08,2.81h0ZM76.49,60.16c-.06.87-.04,1.74.02,2.63.02.28.21.49.4.49.08,0,.2-.16.21-.26.17-1.6.4-3.18.66-4.75.02-.12.01-.25-.03-.37-.1-.27-.27-.44-.5-.51-.29-.1-.5-.02-.61.22-.06.1-.15.2-.15.31-.02.75,0,1.5,0,2.25h0ZM76.31,31.93c0,.08.02-.41-.01-.92-.02-.27-.19-.48-.39-.57-.24-.11-.84.25-.87.49-.02.12-.09.23-.09.35.01,1,.01,2,.06,3.01.02.31.26.49.48.41.22-.08.41-.23.6-.35.06-.62.12-1.23.23-2.42h0ZM38.24,34.4c-.21-.14-.32-.22-.43-.28-.51-.27-.88-.13-1.16.42-.14.28-.06.51.24.62,1.23.44,2.47.8,3.71,1.16.37.1.76.11,1.13.09.27-.02.4-.23.46-.45.1-.31,0-.48-.32-.61-.86-.36-1.75-.41-2.63-.6-.37-.08-.74-.25-1-.35h0ZM32.49,64.53c-.15-1.09-.09-1.98-.34-2.86-.02-.05-.17-.12-.24-.1-.37.11-.62.35-.68.74-.19,1.22-.29,2.46-.27,3.72,0,.12.05.25.1.36.06.12.14.3.21.32.23.05.52.12.7.03.19-.1.36-.34.39-.56.09-.61.1-1.24.14-1.66h0ZM46.65,21.26c-.77-.14-1.54-.23-2.31-.32-.12-.02-.25,0-.37.03-.26.07-.4.24-.5.46-.14.31-.07.49.29.6.12.04.23.14.35.17,1.41.26,2.83.39,4.19.13.26-.05.44-.27.44-.53,0-.18-.23-.31-.55-.35-.51-.07-1.02-.13-1.54-.19h0ZM36.9,46.79c-.04-.24-.16-.48-.37-.66-.62-.53-1.32-.92-2.1-.99-1-.11-2.01-.27-3.01-.23-.06,0-.14.12-.14.19,0,.13.02.29.1.37.18.18.39.41.62.49,1.36.44,2.69.95,3.99,1.58.11.06.25.02.38.02.33,0,.64-.42.55-.75h0ZM65.77,36.72c-.04.38-.04.76,0,1.15.02.27.16.53.37.64.25.15.51.12.72.02.48-.21.76-.6.88-1.09.2-.85.27-1.73.12-2.64-.02-.12-.08-.25-.13-.37-.11-.27-.32-.36-.63-.32-.84.12-1.31.57-1.32,1.46,0,.38,0,.76,0,1.15h0ZM23.86,64.58c.86.08,1.62.17,2.39.22.36.02.47-.15.33-.41-.06-.12-.1-.27-.2-.33-1.2-.89-2.51-1.56-3.88-2.07-.69-.26-1.51.35-1.52,1.14,0,.26.44.91.66.96.76.17,1.53.35,2.21.5h0ZM28.09,63.15c-1.77-.82-3.44-1.9-5.13-2.9-.23-.14-.28-.42-.19-.68.04-.09.18-.17.28-.18.23-.04.49-.09.72-.06,1.27.18,2.44.88,3.67,1.25.37.1.71.35,1.05.53.55.3.64.68.32,1.26-.12.21-.25.4-.4.58-.08.09-.19.13-.32.21h0ZM34.06,50.59c-.89-.77-1.48-1.05-2.11-1.27-.62-.2-1.26-.33-1.79-.76-.2-.16-.39-.37-.53-.58-.21-.29.03-.85.35-.86.25,0,.51-.08.74,0,1.11.36,2.22.72,3.32,1.15.35.14.66.45.96.71.32.29.39.68.33,1.05-.1.65-.83.93-1.33.51-.1-.08-.2-.18.08.06h0ZM69.4,64.6c0-1.13,0-1.75,0-2.39,0-.24-.11-.49-.16-.74-.05-.32-.22-.46-.54-.47-.24,0-.49.02-.63.23-.2.29-.39.61-.49.95-.38,1.3-.44,2.67-.16,4.08.06.29.27.43.53.51.68.18,1.31-.18,1.35-.79.05-.62.1-1.24.1-1.37h0ZM38.36,42.24c-1.73-.22-2.82-.64-3.88-1.2-.43-.22-.96-.92-.84-1.21.13-.34.36-.61.69-.76.11-.05.23-.1.36-.09.25.02.51.05.75.13,1.11.37,2.21.76,3.31,1.15.38.14.64.44.9.76.28.34.02,1.09-.4,1.2-.11.03-.23.08-.35.07-.37-.02-.75-.06-.54-.04h0ZM30.61,57.05c-.28-.02-.67-.11-1.03-.06-1.6.21-3.23.2-4.87.1-.38-.02-.48.12-.29.43.06.11.13.22.21.31.1.1.2.21.32.25,1.47.51,2.9,1.28,4.43,1.5.38.05.72-.1.99-.36.43-.43.68-.98.77-1.6.04-.25-.12-.43-.52-.56h0ZM28.89,50.02c1.38.4,2.64.77,3.89,1.13.39.12.7.39.95.71.08.1.18.24.18.35-.03.96-.49,1.63-1.28,2.05-.23.12-.49.13-.72,0-1.41-.76-2.85-1.46-4.19-2.38-.27-.19-.37-.69-.17-1.03.06-.1.12-.21.19-.31.31-.41.72-.61,1.15-.53h0ZM71.06,62.37c-.03.89-.15,1.78.05,2.69.06.29.57.72.89.69.12,0,.26.01.37-.02.85-.2,1.65-.51,2.36-.99.21-.14.45-.36.37-.59-.33-1.17-.27-2.32-.25-3.46,0-.51-.04-1.03-.1-1.54,0-.11-.12-.3-.21-.33-.14-.05-.35.13-.36.42-.06,1.28-.06,2.56-.11,3.84,0,.25-.12.47-.19.71-.09.29-.29.35-.61.26-.24-.08-.47-.19-.58-.48-.09-.25-.19-.51-.2-.76-.04-1.03-.03-2.06-.08-3.09-.02-.29-.24-.49-.45-.56-.3-.1-.52-.03-.64.22-.1.21-.25.43-.26.67-.03.76,0,1.54,0,2.31h0ZM86.73,55.4c.02,1.41-.08,2.4.1,3.43.09.43.79.85,1.16.66.44-.22.83-.48.98-.98.49-1.65.65-3.38.55-5.17-.01-.23-.15-.55-.33-.68-.18-.14-.5-.15-.72-.1-.47.11-.93.26-1.37.45-.35.15-.49.49-.48.89.04.63.09,1.27.1,1.49h0ZM57.37,24.82c.06-.5.15-.99.22-1.49.02-.12.03-.28-.03-.38-.13-.22-.27-.51-.47-.6-1.12-.53-2.27-.51-3.41-.55-.45,0-.9.42-.97.91-.15,1.13-.27,2.25-.07,3.43.05.31.41.83.68.92,1.02.34,2.03.43,3.04.34.24-.02.68-.45.72-.73.09-.62.2-1.23.29-1.85h0ZM46.67,2.39c-.27.05-.53.08-.77.14-.29.08-.43.24-.33.41.06.1.21.18.33.2,1.27.21,2.56.44,3.84.61,1.29.16,2.52.74,3.8.98.13.02.26.05.39.06.25,0,.53.06.76,0,1.56-.39,3.21-.49,4.7-1.08.25-.1.37-.33.33-.6-.03-.22-.24-.36-.55-.41-1.67-.31-3.34-.6-4.97-.46-1.52.12-3.03.12-4.58-.16-.64-.12-1.27-.06-1.89.07-.36.07-.72.17-1.05.25h0ZM99.16,48.73c-.69.45-1.54.64-2.42.69-.89.04-1.7.31-2.52.58-.39.13-.65.41-.65.77,0,1.27.04,2.55.13,3.83.03.35.29.73.47,1.08.05.11.19.18.31.26.3.22.82.07.91-.23.4-1.32.14-2.77.36-4.12.04-.27.56-.55.88-.46.64.18,1.22.52,1.72.97.42.38.47.94.67,1.43.13.31.34.41.6.33.52-.16.8-.52.83-1.06.04-.9-.09-1.8-.35-2.68-.15-.5-.42-.98-.92-1.39h0ZM55.58,10.68c.16.73-.07,1.86.18,3.03.07.33.23.49.55.39,1.4-.44,2.75-1.01,4.08-1.6.19-.08.37-.33.41-.55.14-.63.39-1.16.88-1.56.4-.32.56-.79.63-1.29.13-1,.13-2.03,0-3.07-.03-.29-.56-.73-.86-.69-.61.1-1.22.24-1.85.28-1.02.07-1.95.38-2.9.66-.78.23-1.16.81-1.14,1.68.01.76,0,1.53,0,2.73h0ZM23.59,39.83c-1.26-.12-2.54-.27-3.81-.34-1.05-.05-2.01.23-2.62,1.06-.53.7-1.23,1.12-2.06,1.39-.37.12-.54.45-.67.8-.17.45.23,1.13.71,1.21.38.06.77.17,1.14.16,3.15-.14,6.33-.03,9.52.21.64.05,1.27.04,1.9.06.69.02,1.19-.28,1.54-.82.26-.4.49-.83.72-1.26.21-.39-.14-1.02-.65-1.25-.61-.28-1.23-.5-1.87-.61-1.27-.22-2.55-.43-3.84-.63h0ZM10.58,52.92c-.77.18-1.51.58-2.43.61-1.43.04-2.59.72-3.63,1.57-.19.16-.26.41-.19.64.02.07.22.13.35.16.25.06.51.14.76.16,2.04.13,4.08.27,6.13.57.5.08,1.01.04,1.52.02,2.02-.08,4.06.03,6.1.28.51.06,1.02.1,1.53.09.37-.01.72-.14.97-.44.56-.63,1.02-1.33,1.19-2.2.06-.29-.08-.52-.4-.57-1.53-.25-3.06-.34-4.58-.6-.51-.09-1.02-.12-1.53-.16-.51-.03-1.02-.05-1.53-.06-1.4-.02-2.79-.04-4.25-.06h0ZM24.77,38.42c1.91.26,3.81.58,5.72.88.69.12,1.23-.15,1.63-.63.69-.84,1.27-1.75,1.58-2.83.07-.26-.06-.53-.28-.68-.21-.15-.45-.29-.7-.37-1.39-.43-2.79-.53-4.19-.66-.76-.07-1.53-.07-2.28-.21-2.29-.43-4.58-.47-6.87-.7-.25-.02-.5.03-.75.06-.33.02-.95.67-.95.99,0,.76.06,1.53.29,2.3.14.45.66,1.02,1.07,1.09.25.04.5.12.76.15,1.66.21,3.31.41,4.97.61h0ZM53.27,37.34c-1.53-.21-3.06-.36-4.59-.49-.26-.02-.51.02-.76.02-.24,0-.69.43-.79.68-.18.47-.25.97-.22,1.48.06,1.15.18,2.31.29,3.46.04.46.58.97,1.07,1.04,2.7.4,5.33.21,7.97.03.23-.02.5-.15.62-.32.55-.83,1.34-1.38,2.09-1.98.18-.15.33-.36.4-.59.22-.76.09-1.5-.46-2.19-.18-.22-.37-.4-.64-.47-.38-.11-.76-.25-1.13-.29-1.28-.14-2.55-.25-3.84-.37h0ZM40.83,9.57c.06.9-.04,1.79.17,2.7.06.27.45.83.72.93.88.33,1.76.47,2.62.18.25-.08.37-.28.37-.57,0-.25,0-.52-.06-.76-.13-.51-.32-1.01-.45-1.52-.16-.66-.11-1.28.14-1.87.25-.63.79-1,1.42-.92.51.06,1.03.12,1.54.24.37.1.73.3,1.05.57.78.68,1.15,1.5,1.13,2.46,0,.64-.22,1.23-.11,1.9.05.3.45.76.76.84.9.23,1.79.19,2.67.1.43-.05.94-.53,1.01-.93.21-1.39.09-2.81,0-4.23-.02-.25-.11-.51-.18-.77-.23-.92-.74-1.45-1.56-1.65-.76-.18-1.53-.33-2.3-.54-.89-.26-1.77-.41-2.67-.38-.76.02-1.54-.13-2.31-.17-.76-.04-1.54-.09-2.3-.05-.67.04-1.13.44-1.37,1.05-.23.57-.36,1.19-.35,1.84,0,.51.05,1.03.07,1.54h0ZM28.59,23.34c0,.31,0,.69,0,1.07,0,.13.08.26.08.39.02.28.46.85.72.9.38.08.76.19,1.14.22,2.44.22,4.83.02,7.25.1.37,0,.73-.14.96-.45.64-.88,1.93-3.14,2.34-4.11.1-.23.16-.47.24-.7.16-.49-.25-1.04-.78-1.15-1.29-.24-2.58-.33-3.83-.24-1.51.11-3.04.09-4.58-.02-.91-.06-1.74.18-2.55.48-.37.14-.53.47-.68.81-.1.22-.15.48-.17.72-.06.63-.1,1.27-.14,1.98h0ZM16.04,51.29c1.44-.03,2.73.25,4.01.43.64.09,1.28.1,1.9-.01.49-.08.98-.22,1.48-.2,1.02.03,1.61-.47,2.06-1.26.42-.74.9-1.45,1.32-2.18.12-.21.16-.47.23-.7.1-.3-.22-.86-.53-.95-2.31-.68-4.6-.68-6.88-.58-1.52.06-3.04.1-4.58-.06-1.56-.16-3.04.04-4.5.38-.25.06-.41.22-.56.43-.49.66-.52,1.4.03,2.13.37.49.3.96.34,1.46.02.27.19.47.49.55,1.79.5,3.57.35,5.2.57h0ZM11.2,64.63c-1.84-.13-4.03-.51-6.2-.39-.37.02-.77-.06-1.15-.12-.57-.1-1.26-.84-1.29-1.39-.06-1.29-.23-2.59.02-3.84.04-.22.25-.46.45-.54,1.29-.49,2.67-.59,4.1-.47.9.08,1.8.23,2.69.34,1.42.18,2.81.27,4.21.17,1.77-.13,3.57,0,5.37.46.27.07.44.31.52.56.04.12.1.26.1.38-.07.64-.44,1.15-.65,1.73-.41,1.17-1.02,2.23-1.67,3.26-.33.53-.81.87-1.55.73-1.54-.29-3.08-.55-4.95-.88h0ZM51.68,47.91c-.76-.07-2.16-.19-3.57-.34-1.92-.2-3.81-.15-5.67.12-.35.05-.82.67-.79,1.1.09,1.41.17,2.82.27,4.24,0,.12.08.25.1.38.04.24.57.75.8.84.51.19,1.02.23,1.52.22,3.79-.07,7.58-.16,11.36-.25.38,0,.75-.06,1.11-.14.23-.06.51-.14.64-.31.53-.66,1.2-1.16,1.8-1.74.08-.08.12-.21.16-.32.25-.72.26-1.49-.1-2.24-.16-.35-.47-.64-.89-.74-2.04-.47-4.08-.76-6.75-.82h0ZM57.5,20.4c-2.14-.36-4.33-.75-6.51-1.08-1.15-.17-2.3-.28-3.43-.06-1.16.23-1.18.18-2.52-.63-.47-.29-.97-.48-1.49-.51-1.92-.12-3.84-.21-5.77-.35-1.29-.09-2.54.08-3.82.06-.5,0-1.02,0-1.51-.29-.06-.04-.11-.19-.09-.24.04-.1.13-.22.23-.26,1.11-.49,2.24-.97,3.37-1.45.22-.1.47-.16.71-.21.87-.17,1.75-.24,2.6.38.65.48,1.2.41,1.74,0,.19-.14.4-.29.62-.38.21-.1.47-.2.71-.18,1.15.06,2.31.11,3.46.27,1.68.23,3.33.33,4.97.16.37-.03.76,0,1.15,0,.61-.01.92.23.97.9.02.4.14.76.45,1.05.1.09.26.15.37.13.62-.12,1.15-.4,1.66-.73,1.42-.94,2.93-1.72,4.56-2.3.82-.29,1.64-.51,2.55-.47.66.03,1.21-.21,1.74-.54.3-.2.66-.34,1.06-.29,1.54.2,3.08.29,4.61.74.12.04.24.11.36.18.37.21.58.55.68.94.08.32-.16.86-.41.96-.33.16-.65.35-1,.45-1.44.38-2.83.87-4.22,1.37-1.39.5-2.79.97-4.17,1.48-1.15.43-2.34.78-3.63.91h0ZM49.23,34.18c.54-.12,1.15-.25,1.74-.39.91-.23,1.49-.81,1.77-1.68.16-.47.22-.97.33-1.46.05-.25.08-.5.14-.74.1-.52.55-.9,1.03-.85.9.08,1.79.16,2.69.27.99.12,1.72-.25,2.22-1.01.13-.2.2-.45.32-.66.18-.32.45-.58.79-.72.78-.33,1.58-.66,2.39-.93.7-.23,1.4-.47,2.03-.84.65-.37,1.46-.3,2.15-.56.46-.17.86-.48,1.33-.59.96-.24,1.94-.41,2.91-.58.24-.04.52,0,.76.07,1.13.35,2.26.7,3.41.96,1.04.23,1.92.88,2.75,1.61.28.25.34.82.08,1.01-.29.21-.55.5-.88.62-2.3.85-4.49,1.92-6.71,2.93-2.55,1.17-5.13,2.26-7.83,3.14-.82.27-1.62.59-2.37.98-1.77.94-3.75,1.16-5.82.98-2.17-.19-4.35-.48-6.53-.74-.27-.04-.5-.22-.61-.44-.13-.27-.09-.51.06-.71.14-.19.37-.27.66-.17.37.12.73.29,1.18.47h0ZM40.92,68.37c.27,0,.91.03,1.54.07,2.43.16,4.86.41,7.23.1.49-.06,1.01-.01,1.53.03,2.31.19,4.55-.1,6.84-.13,1.36-.26,2.76-.17,4.17-.05.64.06,1.28.05,1.9,0,.21-.02.45-.2.58-.38.45-.59.65-1.31.73-2.06.04-.38.04-.76.03-1.15,0-.9-.03-1.79-.05-2.69,0-.51-.51-.99-1.03-1.01-.26-.01-.52-.04-.77-.03-2.53.1-5.07.02-7.64-.34-1.02-.14-2.05-.23-3.07-.31-.77-.06-1.54-.13-2.29-.07-1.51.13-3.04.02-4.58-.07-.89-.05-1.8-.16-2.67-.12-1.77.1-3.54.1-5.34-.02-1.03-.07-2.01.1-2.95.43-.24.08-.41.23-.53.47-.16.33-.31.69-.23,1.07.25,1.42.5,2.83.66,4.25.06.52.53,1.07.97,1.14,1.54.26,3.06.53,4.97.85h0ZM37.84,58.47c-.92-.09-1.68.04-2.44-.27-.12-.05-.24-.16-.3-.27-.12-.2-.15-.49,0-.69.13-.18.37-.33.59-.37.73-.16,1.5-.21,2.28-.06.51.1,1.02.23,1.53.35.81.18,1.52.04,2.12-.43.1-.07.19-.15.3-.2.33-.17.66-.33,1.05-.31,1.41.04,2.8.06,4.18-.14,1.23-.17,2.55.03,3.78-.2.74-.14,1.51-.1,2.28-.03,1.66.14,3.33.28,5,.41.91.08,1.78,0,2.6-.3.49-.18.79-.53.88-1.05.05-.25.05-.51.13-.74.16-.49.42-.88,1-.91.37-.02.76,0,1.13-.05.25-.03.52-.08.69-.22.65-.56,1.42-.9,2.26-1.15,1.18-.35,2.26-.92,3.5-1.14.35-.06.65-.31.98-.48.32-.17.62-.44.98-.47,1.17-.12,2.13-.61,3.08-1.17,3.42-1.35,6.87-2.62,10.35-3.84.8-.29,1.67-.45,2.52-.62.37-.07.76,0,1.12.22,1.5.92,2.98,1.85,4.43,2.84.25.18.21.83-.07.99-1.58.92-3.24,1.68-4.97,2.29-2.67.94-5.26,2.01-7.78,3.26-1.85.93-3.84,1.58-5.84,2.21-.48.15-.99.15-1.5.12-.39-.02-.77.05-1.05.28-.75.63-1.6,1.07-2.52,1.42-.57.21-1.13.47-1.69.72-1.47.66-3.05.96-4.73.91-1.4-.05-2.82-.23-4.2-.02-1.28-.1-2.56-.19-3.84-.3-1.15-.1-2.31-.25-3.46-.33-.9-.07-1.81-.16-2.68-.09-1.39.12-2.79.05-4.2,0-1.66-.06-3.33-.23-4.97-.07-.86.09-1.78-.04-2.52-.07h0ZM54.83,45.91c-.14.21-.32.39-.56.39-2.14-.06-3.89-.26-5.61-.62-.05,0-.09-.1-.13-.15.12-.03.23-.1.35-.08,2.01.17,4.02.37,6.02.55.12-.24.29-.43.53-.43,1.27.01,2.55.06,3.82.08.38,0,.78.01,1.13-.09.73-.21,1.37-.55,1.51-1.41.08-.49,0-1.03.25-1.46.06-.11.12-.23.21-.29.21-.13.43-.24.65-.32,1.27-.47,2.58-.82,3.81-1.39.54-.25,1.2-.28,1.81-.42.37-.09.68-.26.94-.53.43-.44.91-.8,1.5-1,1.52-.51,2.97-1.17,4.37-1.9,1.53-.8,3.2-1.24,4.93-1.53.74-.12,1.47-.24,2.18-.45.73-.23,1.5-.08,2.27.21.64.25,1.14.71,1.54,1.28.18.25.09.9-.14,1.03-.31.18-.59.43-.93.55-2.32.81-4.62,1.68-6.81,2.75-.66.32-1.35.57-2.05.81-4.18,1.46-8.36,2.9-12.55,4.35-.12.04-.23.09-.35.13-1.53.53-3.17.66-4.85.49-1.28-.13-2.57-.23-3.84-.54h0ZM81.79,55.33c.12.02.27.02.38.08.23.12.49.22.67.41.28.3.39.7.4,1.09.01.37-.02.76-.09,1.12-.12.6-.29,1.2-.4,1.81-.04.24,0,.51,0,.76,0,.44.43.69.78.59.36-.1.71-.19,1.07-.29.11-.04.23-.09.33-.16.3-.21.63-.5.53-.88-.39-1.43-.34-2.8-.04-4.15.03-.12-.02-.26,0-.38.03-.64-.76-1.27-1.33-1.08-.69.23-1.38.48-1.97.9-.1.06-.15.18-.23.27-.64,0-1.17.29-1.72.53-.36.16-.58.44-.65.8-.21,1.21-.42,2.43-.58,3.66-.06.49-.01,1,0,1.5,0,.34.44.74.77.72.68-.06,1.11-.43,1.27-1.07.15-.59.15-1.24.32-1.82.43-1.42.48-2.92.49-4.44h0ZM44.11,32.36c-.19-1.01-.84-1.57-1.77-1.88-.49-.15-.97-.33-1.44-.51-.05-.02-.11-.19-.09-.27.06-.23.22-.41.48-.44.86-.1,1.73,0,2.59.3.61.21,1.2.47,1.8.71-.12-.37-.2-.77-.37-1.12-.11-.21-.34-.43-.56-.55-.84-.45-1.75-.48-2.63-.68-.26-.06-.49-.17-.72-.31-.28-.17-.49-.75-.31-1.01.22-.31.49-.5.91-.46.25.03.52.03.76.11.51.14,1,.31,1.49.5.99.39,2.01.51,3.02.62-.48-.87-1.2-1.47-2.09-1.82-.88-.33-1.74-.66-2.56-1.13-.25-.15-.36-.36-.33-.63.88.08,1.77.17,2.66.23.9.06,1.79.09,2.68.14.34.02.69.52.61.84-.21.84-.41,1.7-1.07,2.29-.27,1.12-.75,2.1-1.56,2.87-.21.68-.65,1.2-1.03,1.76-.12.17-.37.24-.56.35-.02.5,0,1.01-.23,1.44-.15.28-.69.64-.87.53-1.52-.91-3.16-1.04-4.78-1.35-.41-.08-.51-.39-.29-.85.05-.11.11-.21.17-.31.28-.45.75-.64,1.25-.53,1,.22,1.99.56,2.98.81.62.15,1.25.23,1.88.35h0ZM70.24,33.12c.24.09.49.18.73.27.42.16.62.5.7.89.09.5.08,1.01.19,1.51.07.31.31.41.56.35.39-.09.63-.34.72-.71.24-1.08.3-2.2.19-3.36-.03-.31-.25-.51-.49-.48-1,.1-1.86.47-2.48,1.25-.07.08-.04.23-.06.36-.83-.37-1.25.18-1.05.8.16.49.29.98.45,1.46.03.08.17.14.26.21.26-.81.32-1.66.27-2.55h0ZM68.72,19.1c-.25,0-.49.01-.73.02-.42,0-.64.29-.75.63-.19.69-.25,1.42.05,2.17.04.1.14.25.23.26.11.02.26-.04.32-.12.68-.86.79-1.95.8-3.07.38.07.74.24.94.6.26.46.44.95.68,1.41.05.09.21.16.32.19.08.02.21-.04.25-.1.34-.67.25-1.42.15-2.17-.07-.57-.55-.82-1.1-.59-.44.18-.84.43-1.16.78h0ZM9.32,42.12c1.16-.6,2.28-1.09,3.49-1.39.84-.21,1.62-.56,2.4-.92.89-.41,1.33-1.17,1.18-2.48-.15-1.3-.37-2.59-1.06-3.8-.07-.12-.1-.25-.14-.38-.23-.65.39-1.69,1.03-1.71.64-.02,1.27-.07,1.9-.02,1.29.09,2.57.21,3.86.34,2.44.26,4.89.53,7.31.41.38-.02.77.02,1.15.06.52.03,1.03.15,1.51.4.61.31,1.22.55,1.87.64.68.1,1.27.02,1.64-.58.82-1.35,1.66-2.7,1.87-4.38.04-.25-.14-.47-.44-.57-.77-.23-1.54-.22-2.3-.21-1.02.02-2.01.22-3.04.08-1.5-.2-2.75.21-3.88.99-.1.06-.23.08-.35.11-.25-.01-.51,0-.76-.05-.65-.12-1.29-.16-1.89.02-2.13.64-4.35,1.03-6.45,1.74-.23.08-.51-.08-.72-.24-.32-.23-.36-.86-.07-.99.33-.16.64-.36.99-.46,1.07-.31,2.16-.58,3.24-.86.84-.22,1.69-.41,2.52-.65.48-.14.92-.41,1.09-.89.17-.47.35-.92.64-1.31.14-.2.28-.41.34-.65.22-.85.48-1.68.68-2.52.25-1.1.33-2.24-.16-3.43-.2-.48.1-1.02.53-1.25.53-.31,1.1-.53,1.71-.67,1.82-.44,3.55-1.05,5.17-1.93.64-.34,1.33-.6,2.01-.89.56-.24,1.15-.44,1.71-.68.23-.09.45-.21.63-.37.38-.32.67-.72.65-1.27-.02-.64-.02-1.29-.14-1.93-.23-1.31-.26-2.58.07-3.81.1-.38-.09-.77-.17-1.15-.2-.94.43-2.1,1.3-2.4.12-.04.23-.1.34-.13,1.92-.53,7.87-1.73,9.53-1.91.5-.05,1.02-.08,1.53-.02,3.22.37,6.43.78,9.64,1.18.83.1,1.48.52,1.99,1.23.16.22.37.4.55.6.09.1.15.22.24.33.18.23.26.48.26.74,0,.51.05,1.03,0,1.53-.16,1.52-.25,3.04-.21,4.59.01.41.53,1.05.98,1.2.25.08.5.19.75.25.64.14,1.28.28,1.93.37,1.15.15,2.31.26,3.47.39.52.06.99.26,1.43.62.41.35.88.64,1.29,1,.2.17.4.41.49.64.31.88.61,1.78.2,2.63-.38.8-.41,1.7-.18,2.62.16.64.37,1.27.62,1.89.09.23.3.46.5.62.32.25.67.47,1.02.66,1.42.76,2.84,1.55,4.28,2.27,1.07.53,1.77,1.19,1.65,2.45-.06.62,0,1.28.05,1.93.04.52.13,1.04.23,1.55.05.25.14.52.27.75.19.35.39.72.79.9.24.1.49.22.74.29.64.17,1.27.41,1.81.83,1.08.84,2.22,1.56,3.36,2.28.21.13.44.41.48.63.34,2.09,1.22,4.06,1.94,6.07.18.51.57.96,1.02,1.25,1.03.64,2.09,1.24,3.16,1.82.87.48,1.74.57,2.6.23.34-.14.7-.21,1.06-.31.21-.06.9.42.97.65.07.25.18.51.21.76.07.65.2,1.29.45,1.93.34.87.66,1.75.97,2.63.18.51.24,1.03.19,1.54-.06.51-.23.97-.64,1.27-1.19.86-2.53,1.44-3.92,1.94-.47.16-.96.29-1.38.51-2.71,1.4-5.6,2.47-8.28,3.92-3.28,1.37-6.55,2.77-9.96,3.84-.83.26-1.63.55-2.38.97-1.07.61-2.22,1.01-3.41,1.37-.95.29-1.89.57-2.84.84-1.19.34-2.34.72-3.16,1.72-.39.47-1.08.54-1.73.5-.51-.03-1.03-.1-1.54-.16-1.29-.15-2.57-.33-3.86-.45-.51-.05-1.01-.01-1.52.05-2.25.26-4.5.49-6.83.29-.77-.07-1.56-.14-2.3-.04-1.64.22-3.31.05-4.97-.02-.9-.04-1.8-.1-2.69-.02-1.53.13-3.05-.05-4.59-.53-1.03-.33-2.05-.41-3.05-.24-.9.16-1.77-.03-2.65-.4-.5-.21-1.02-.28-1.51-.13-.72.22-1.47.25-2.26.11-1.17-.2-2.31-.21-3.44-.07-2.02.25-4.08-.06-6.14-.38-.38-.06-.75-.25-1.08-.51-.54-.43-1.15-.69-1.79-.87-2.56-.71-5.11-1.14-7.68-1.03-.88.04-1.78.03-2.68-.01-.51-.02-1.03-.1-1.54-.23-1.23-.3-2.11-1.29-2.41-2.49-.06-.25-.11-.51-.12-.76-.1-2.07-.21-4.13-.43-6.21-.02-.25,0-.52.04-.76.05-.25.12-.51.25-.69.54-.67,1.17-1.24,2.09-1.37.62-.09,1.22-.22,1.77-.5.98-.49,1.99-.94,2.97-1.42.35-.17.51-.51.52-.91.03-1.66.04-3.33.06-5,0-.66.19-1.22.55-1.74.41-.59.72-1.26,1.03-1.83Z"/>
      <path class="cls-1" d="M59.16,10.08c.05.6-.71,1.09-1.3.85-1.17-.49-1.75-1.88-1.17-2.85.38-.64,1.52-.55,1.91.15.31.54.5,1.17.56,1.85Z"/>
    </g>
  </g>
</svg>