<?xml version="1.0" encoding="UTF-8"?>
<svg id="Layer_2" data-name="Layer 2" xmlns="http://www.w3.org/2000/svg" viewBox="0 0 93.35 53.58">
  <defs>
    <style>
      .cls-1 {
        fill: #5c2f1c;
        fill-rule: evenodd;
      }
    </style>
  </defs>
  <g id="_Layer_" data-name="&amp;lt;Layer&amp;gt;">
    <g>
      <path class="cls-1" d="M51.82,11.34c-.53-.31-.96-.33-1.39-.22-.06.02-.13.15-.13.23,0,.08.03.22.1.25.46.18.92.27,1.42-.26h0ZM16.11,32.63c-1.18-.14-1.5.35-1.05,1.54.6-.36.76-.97,1.05-1.54h0ZM29.31,20.09c-.14-.14-.21-.26-.28-.26-1.2,0-2.39,0-3.59.06-.18,0-.46.27-.51.46-.12.43-.14.88-.14,1.34-.02.32.31.53.63.45.19-.06.37-.13.55-.21,1.03-.51,2.07-1.02,3.08-1.52.08-.04.13-.15.25-.3h0ZM45.25,9.26c.11.19.14.37.24.42.63.3,1.27.58,1.91.85.43.18.84.19,1.31.06,1.11-.3,2.24-.52,3.41-.4.35.04.7.04.92.4.21.37.56.38.92.33.49-.08.99-.14,1.47-.26.19-.04.34-.25.61-.47-3.65-.71-7.15-1.06-10.79-.94h0ZM55.84,46.2c.07.06.14.12.21.18.14-.03.31-.02.4-.1.71-.64,1.44-1.25,2.08-1.94,2.07-2.24,3.98-4.59,5.41-7.33.52-1.01,1.24-1.92,1.86-2.89,1.01-1.56,1.57-3.34,2.32-5.02.07-.17-.02-.41-.05-.72-.64.45-.89.98-1.14,1.54-.2.45-.39.92-.65,1.34-1.03,1.59-2.12,3.14-3.12,4.76-.98,1.57-1.94,3.13-2.99,4.66-.8,1.15-1.66,2.24-2.55,3.32-.6.72-1.18,1.46-1.77,2.2h0ZM17.68,32.24c.67-.41,1.09-.68,1.51-.94.3-.18.6-.37.91-.53,1.61-.8,3.26-1.54,4.67-2.69.19-.15.43-.25.66-.35.95-.41,1.92-.8,2.9-1.21.19.51-.17.6-.39.72-.93.5-1.89.93-2.81,1.46-1.09.61-2.16,1.25-3.22,1.93-1.07.68-1.96,1.56-2.75,2.55-1.68,2.06-3.35,4.13-5.03,6.18-.25.31-.51.63-.8.9-.16.15-.41.2-.73.35,0-.33-.03-.53.02-.7.27-.81.56-1.61.87-2.4.06-.18.2-.34.32-.48,1.07-1.06,2.14-2.1,3.19-3.17.46-.47.96-.95.66-1.62h0ZM36.47,4.53c.4-.47.8-.42,1.19-.35,2.02.38,4.08.44,6.05,1.15,1.07.39,2.24.55,3.37.76,3.74.69,7.42,1.66,11.1,2.59.48.12.97.23,1.09.87-.16.06-.31.17-.42.15-2.37-.65-4.78-1.12-7.25-1.1-2.69-.41-5.24-.25-7.78-.11-.8.04-1.52-.1-2.14-.53-.96-.68-2.03-1.07-3.07-1.56-.87-.4-1.66-.91-2.14-1.87h0ZM64.76,8.61c-.66.55-1.44.6-2.24.55-.18-.02-.39-.15-.5-.3-.41-.5-.96-.7-1.55-.85-2.29-.56-4.58-1.14-6.86-1.69-1.16-.28-2.38-.33-3.49-.85-.3-.14-.68-.11-1.03-.17-.5-.08-1-.14-1.48-.25-1.8-.43-3.58-1.02-5.4-1.27-2.58-.35-5.11-1.08-7.74-1-.29,0-.61-.05-.88-.16-.21-.08-.41-.26-.56-.46-.27-.39-.03-.86.45-.84,2.2.07,4.4-.23,6.6.16,1.23.22,2.49.26,3.74.38,2.1.2,4.18.51,6.2,1.12,1.05.32,2.14.53,3.2.84.76.22,1.51.52,2.26.8.33.12.64.31.98.37,1.7.29,3.24,1.04,4.82,1.66.74.29,1.49.59,2.22.91.5.21,1.03.42,1.27,1.06h0ZM57.85,31.81c.22-1.35.83-2.56,1.35-3.79.26-.6.62-1.13,1.28-1.4.22-.09.43-.28.57-.47.88-1.26,2.01-2.22,3.34-2.96.15-.08.23-.29.43-.57-.33-.08-.54-.15-.76-.17-.24-.03-.47-.02-.84-.02.17-.37.25-.66.44-.87.5-.56,1.07-1.06,1.59-1.6.25-.25.4-.55.36-.94-.06-.58-.61-.9-1.07-.58-.2.15-.37.35-.54.52-.6.63-1.31,1.06-2.14,1.32-1.48.48-2.92,1.08-4.43,1.47-2.32.59-4.68,1.1-7.04,1.56-1.13.22-2.29.28-3.44.39-2.4.23-4.81.43-7.21.66-.85.08-1.68.24-2.53.37-.25.04-.5.14-.74.12-.82-.08-1.58.15-2.36.36-.47.13-.97.18-1.8.33.75-.67,1.33-.9,1.93-1.11,1.95-.65,3.89-1.31,5.84-1.95.19-.06.39-.12.58-.13,2.12-.15,4.09-.97,6.15-1.38,1.67-.33,3.33-.71,4.99-1.07.59-.13,1.17-.27,1.76-.41,2.59-.59,5.19-1.18,7.86-1.2.1,0,.21-.02.29-.06.12-.09.29-.21.29-.31,0-.18-.09-.43-.22-.49-.25-.14-.57-.24-.85-.22-2.24.17-4.47.32-6.66,1.04-1.75.57-3.62.8-5.43,1.21-2.34.54-4.67,1.15-7.03,1.64-1.87.39-3.69.94-5.5,1.53-1.66.54-3.31,1.14-4.96,1.72-1.37.48-2.76.92-4.11,1.46-2.01.81-3.93,1.76-5.76,2.92-.88.57-1.9.91-2.8,1.45-1.39.86-2.95,1.25-4.49,1.68-.41.11-.9.08-1.33,0-.41-.08-.91-.1-1.15-.64.95-.45,1.97-.39,2.94-.5.65-.07,1.3-.11,1.95-.19.24-.03.52-.09.69-.23.16-.14.29-.41.29-.62,0-.12-.25-.33-.41-.36-.29-.06-.6-.06-.89,0-1.03.19-2.06.43-3.1.62-1.82.33-3.64.68-5.48.96-.42.06-.89-.11-1.33-.2-.68-.13-1.37-.16-1.99-.34-.08-.47.16-.59.41-.62,1.55-.13,3.1-.31,4.65-.35,2.92-.08,5.81-.3,8.62-1.16.84-.25,1.48-.83,2.2-1.27.6-.36,1.2-.72,1.79-1.08.35-.21.72-.38,1.02-.63.87-.71,1.85-1.17,2.88-1.59.74-.29,1.42-.74,2.14-1.09.71-.37,1.44-.71,2.16-1.07.4-.2.8-.41,1.19-.62.13-.07.27-.14.39-.24.62-.51,1.53-.12,2.17-.86.48-.56,1.35-.81,2.07-1.17.67-.33,1.37-.62,2.06-.91.74-.32,1.48-.64,2.22-.93.75-.29,1.52-.53,2.26-.82.43-.16.82-.38,1.25-.55.56-.22,1.11-.44,1.69-.62,1.15-.37,2.3-.72,3.45-1.05,1.11-.31,2.23-.57,3.33-.9,3.57-1.05,7.21-1.74,10.9-2.25.49-.07,1-.1,1.48-.25,1.21-.4,2.47-.45,3.71-.55,2.55-.23,5.11-.41,7.66-.52,2.05-.09,4.11-.06,6.17-.07.15,0,.32-.02.45.03,1.01.41,2.08.2,3.12.22,1.35.02,2.71.11,4.06.19.23.01.45.14.8.25-.18.29-.28.53-.44.66-1.68,1.44-3.41,2.79-5.36,3.85-1.41.77-2.89,1.44-4.2,2.34-1.12.78-2.38,1.27-3.51,2-.66.44-.76.42-1.71.42-.02-.14-.09-.31-.04-.43.48-1.2.93-2.42,1.82-3.42.53-.6,1.05-1.21,1.58-1.82.17-.21.22-.45.06-.69-.18-.27-.47-.39-.78-.28-.28.11-.54.26-.78.44-1.24.91-2.05,2.17-2.7,3.53-.47,1-.86,2.03-1.3,3.04-.19.45-.25.48-.97.55-.02-.29-.05-.59-.05-.88,0-.45.05-.9.04-1.35-.02-.48-.33-.76-.75-.78-.37-.02-.68.19-.8.56-.06.18-.11.39-.12.59-.09.59-.22,1.19-.22,1.79,0,1.33-.29,2.59-.68,3.84-.16.53-.31,1.06-.47,1.57-.08.09-.13.2-.21.23-.94.34-1.57.98-2.01,1.89-.56,1.12-1.21,2.19-1.82,3.29-.1.17-.15.37-.25.55-1.11,1.73-2.22,3.45-3.32,5.18-.29.46-.57.94-.81,1.43-.22.46-.43.88-.93,1.13-.23.13-.39.43-.55.68-.2.33-.38.7-.55,1.06-.52,1.12-1.56,1.8-2.28,2.75-.78,1.03-1.64,2.01-2.4,3.06-.48.68-1.11,1.14-1.75,1.6-.06.04-.19-.03-.36-.06.24-1.11.49-2.16,1.15-3.19,1.22-1.86,2.66-3.5,4.23-5.04.99-.96,1.61-2.18,2.34-3.31.51-.8.95-1.65,1.43-2.47.15-.25.32-.53.53-.72,1.1-.99,1.7-2.35,2.61-3.48.19-.22.33-.51.41-.79.19-.63.55-1.17.86-1.74.51-.91.9-1.89,1.27-2.87.18-.48.4-.9.7-1.32.53-.72,1-1.49,1.5-2.25.08-.12.17-.25.23-.38.11-.25.11-.54-.14-.65-.19-.08-.51-.08-.68.04-.27.19-.52.47-.7.76-1.38,2.21-2.59,4.52-3.65,6.89-.64,1.42-1.54,2.68-2.2,4.07-.07.14-.17.25-.25.37-.85,1.24-1.77,2.43-2.55,3.72-.8,1.34-1.77,2.55-2.77,3.74-.45.54-.9,1.07-1.35,1.61-.38.46-.78.88-1.45.99,0-.23-.07-.39-.02-.52.48-1.2.97-2.42,1.48-3.61.16-.36.36-.72.6-1.03,1.73-2.26,3.55-4.46,5.21-6.77,1.17-1.63,2.44-3.18,3.72-4.72.09-.11.16-.25.2-.39.02-.08,0-.22-.06-.27-.1-.1-.26-.22-.36-.19-.23.06-.5.16-.64.34-1.66,2.14-3.69,3.98-5.01,6.39-.16.28-.35.65-.84.42h0ZM10.72,44.17c-.51-1.38-.63-2.65-.17-3.94.53-1.52,1.08-3.02,1.62-4.53.14-.38.33-.74.43-1.12.06-.27,0-.57,0-.94-1.23-.37-2.36-.76-3.64-.87-2.7-.23-5.36-.81-7.84-1.96-.3-.15-.64-.31-.87-.55-.45-.46-.2-1.27.42-1.45,1.94-.27,3.72-.55,5.52-.73,2.09-.21,4.19-.3,6.3-.5,1.14-.1,2.3-.25,3.41-.54.96-.25,1.9-.65,2.77-1.12,1.46-.78,2.86-1.67,4.35-2.55.43-.85.5-1.84.45-2.85-.04-.6-.09-1.2.24-1.79.52-.33,1.14-.29,1.73-.29,1.25.02,2.5.09,3.75.15.35.02.7.05,1.04.12,1.07.23,2.11.14,3.07-.37,3.61-1.9,7.5-3.12,11.23-4.72.83-.36,1.72-.54,2.57-.8.13-.29.12-.5-.18-.62-.83-.36-1.65-.74-2.48-1.08-.93-.38-1.83-.77-2.69-1.32-1.27-.79-2.65-1.41-3.97-2.12-.49-.26-.96-.54-1.39-.88-1.07-.84-2.07-1.74-3.26-2.42-.46-.27-.85-.7-1.23-1.08-.45-.46-.9-.94-1.32-1.43-.63-.74-.15-1.75.73-1.76.3,0,.6-.05.9-.05.8,0,1.61.07,2.41.02,2.77-.18,5.51.18,8.24.5,1.74.21,3.52.29,5.21.66,2.74.62,5.44,1.41,8.14,2.17,1.44.41,2.87.89,4.3,1.38,2.28.78,4.46,1.78,6.44,3.18.49.35.96.51,1.53.41.55-.09,1.09-.18,1.64-.24,2.9-.31,5.79-.61,8.68-.91,1.42-.14,2.8.02,4.19.27.88.15,1.78.23,2.68.29,1.9.1,3.8.17,5.7.25.15,0,.29.05.45.08.68.13,1.32.47,1.5,1.11.2.72-.27,1.34-.8,1.83-2.07,1.91-4.48,3.34-6.84,4.84-.89.56-1.82,1.06-2.75,1.54-1.46.76-2.77,1.78-4.3,2.43-1.29.56-2.54,1.21-3.86,1.69-.84.31-1.75.41-2.71.62-.09.22-.21.49-.29.77-.71,2.35-1.33,4.74-2.13,7.05-.82,2.37-2.03,4.58-3.47,6.64-.6.86-1.03,1.83-1.62,2.71-.97,1.44-1.92,2.91-3.05,4.22-1.23,1.42-2.57,2.76-4.04,3.96-.93.76-1.8,1.6-2.67,2.43-1.01.97-1.98,1.97-3,2.93-.29.27-.65.51-1.02.6-.97.25-1.36.08-1.54-.99-.3-1.83.18-3.49.85-5.12.63-1.54.89-3.18,1.35-4.77.1-.33.13-.69.25-1.02.97-2.42,1.85-4.88,2.94-7.24.99-2.14,1.86-4.32,2.72-6.51.24-.6.6-1.15.94-1.71.6-.98,1.11-2.01,1.93-2.85.11-.11.08-.34.15-.65-.37.07-.61.08-.83.17-1.6.62-3.28.93-4.94,1.29-1.33.28-2.65.56-3.97.89-1.52.37-3.06.45-4.62.55-1.44.1-2.88.29-4.33.44-.5.04-1,.04-1.5.1-.95.11-1.89.24-2.83.37-.49.07-.99.17-1.49.2-1.08.05-2.05.39-2.94,1.01-1.11.77-2.24,1.5-3.34,2.29-.41.29-.73.68-1.1,1.02-.48.43-.81.49-1.36.19-.22-.13-.41-.28-.61-.43-.2-.16-.38-.31-.64-.53-.58.32-1.17.6-1.71.95-1.26.82-2.41,1.76-3.41,2.91-1.22,1.4-2.27,2.91-3.44,4.34-1.35,1.69-2.76,3.31-4.34,4.8-.63.59-1.3.88-2.24.97Z"/>
      <path class="cls-1" d="M83.08,13.66c-.41.59-1.06.71-1.68.86-.41.1-.78-.32-.7-.74.15-.86,1.28-1.76,2.16-1.72.43.02.78.56.6.97-.09.23-.25.42-.39.63Z"/>
    </g>
  </g>
</svg>