<?xml version="1.0" encoding="UTF-8"?>
<svg id="Layer_2" data-name="Layer 2" xmlns="http://www.w3.org/2000/svg" viewBox="0 0 67.96 30.25">
  <defs>
    <style>
      .cls-1 {
        fill: #5c2f1c;
        fill-rule: evenodd;
      }
    </style>
  </defs>
  <g id="_Layer_" data-name="&amp;lt;Layer&amp;gt;">
    <g>
      <path class="cls-1" d="M36.4,3.69c-.4.12-.5.23-.27.24.05,0,.1-.23.16-.35.14-.03.29-.04.41-.1.07-.04.08-.17.11-.26-.24-.06-.38.1-.41.47h0ZM28.45,9.71c.35-.15.42-.26.25-.22-.08.02-.1.21-.15.32-.13.05-.33.07-.37.16-.08.18.06.11.28-.26h0ZM21.52,16.03c-.45-.06-.92-.05-1.27.2-1.56,1.07-3.18,2.05-4.65,3.27-1.68,1.4-3.51,2.61-5.46,3.62-2.6,1.35-4.99,3.03-6.98,5.21-.49.54-1.01,1.05-1.63,1.44-.26.16-.55.19-.84.16-.48-.06-.81-.5-.64-.91.12-.27.18-.57.35-.79.8-1.05,1.7-2,2.77-2.77,1.66-1.2,3.28-2.44,5.08-3.41,2.45-1.33,4.64-3.03,6.89-4.65,1.07-.77,2.09-1.58,3.15-2.36,2.36-1.73,4.69-3.48,6.86-5.44.43-.4.88-.76,1.34-1.13,3.2-2.54,6.29-5.21,9.32-7.94.11-.1.24-.16.36-.25.42-.33,1.66-.37,2.09-.05.46.35.95.69,1.37,1.08,1.06,1,2.09,2.04,3.14,3.06.84.81,1.69,1.6,2.73,2.17.51.27.98.65,1.42,1.02,2.38,1.93,4.76,3.86,7.13,5.8.34.27.71.52,1.01.83,2.07,2.07,4.52,3.69,6.71,5.62.54.49,1.18.86,1.78,1.28,1.32.92,2.64,1.81,3.94,2.76.21.15.33.47.43.72.14.33-.24,1.01-.57,1.02-.57.02-1.15.03-1.73.03-.64,0-1.1-.27-1.33-.89-.04-.14-.16-.25-.23-.37-.27-.51-1.08-.72-1.5-.4-.58.44-1.15.89-1.74,1.32-.33.25-.92.1-1.14-.27-.15-.26-.19-.54-.08-.81.05-.13.15-.25.23-.37.28-.34.56-.66.83-1.01.24-.3.17-.87-.12-1.19-.46-.51-1.54-.64-1.99-.23-.33.29-.64.59-.93.92-.29.33-.54.67-.91.93-.31.21-.8.2-1.2-.12-.45-.34-.52-.76-.33-1.12.44-.8,1.26-1.21,1.78-1.91.24-.31.23-.87-.05-1.21-.39-.45-.83-.8-1.35-1.08-.45-.24-.87-.14-1.24.09-.37.21-.72.5-1.01.82-.57.66-1.08,1.36-1.62,2.04-.21.27-.97.13-1.11-.2-.06-.13-.12-.26-.16-.4-.13-.44-.07-.9.22-1.23.67-.76,1.39-1.49,2.08-2.23.52-.56.29-1.27-.59-1.67-.04-.14-.16-.42-.35-.61-.32-.29-.69-.54-1.06-.77-.53-.33-1.1-.34-1.66-.06-1.19.58-2.18,1.45-3.13,2.36-.52.5-.99,1.05-1.54,1.54-.24.22-.56.17-.75-.02-.2-.21-.27-.5-.12-.79.29-.5.58-1,.95-1.45.37-.45.81-.84,1.23-1.24.53-.51,1.06-1,1.58-1.5.4-.37.3-1.15-.19-1.53-.46-.36-.91-.72-1.38-1.07-1.04-.8-2.06-1.62-3.12-2.39-.83-.6-1.51-1.36-2.25-2.06-.96-.9-1.44-.92-2.71-.14-.5.3-1.02.58-1.49.92-1.18.85-2.34,1.72-3.51,2.6-5.35,4.05-10.33,8.52-15.02,13.32-1.23,1.25-2.5,2.44-3.88,3.53-.92.73-1.8,1.5-2.77,2.13-.99.65-1.6,1.7-2.58,2.34-.27.18-.56.18-.79.03-.25-.17-.41-.44-.36-.74.06-.44.29-.84.62-1.12,1.12-.93,2.28-1.82,3.4-2.74,1.02-.83,2.02-1.67,3.03-2.5.34-.28.72-.51,1.02-.82,1.93-1.98,3.96-3.86,5.83-5.9.1-.1.14-.25.2-.39.11-.07.22-.12.31-.21.04-.04.04-.14.06-.21-.2.04-.28.2-.25.51Z"/>
      <path class="cls-1" d="M33.69,13.24c.45.1.86.02,1.26-.19.77-.39,1.36-1.11,2.27-1.23.31-.04.55.11.66.41.05.13.04.29,0,.43-.03.14-.09.29-.19.37-.43.39-.85.8-1.33,1.12-.96.66-1.87,1.37-2.76,2.13-2.11,1.79-4.29,3.49-6.41,5.27-1.56,1.31-3.09,2.65-4.63,3.99-1.09.96-2.1,2.01-2.94,3.22-.29.41-.76.56-1.13.37-.77-.37-1.34-.24-1.89.37-.19.21-.48.34-.75.43-.28.1-.55-.02-.8-.19-.26-.18-.32-.43-.16-.75.06-.13.12-.27.2-.38.18-.23.35-.47.55-.68,2.26-2.28,4.51-4.56,6.78-6.8,1.66-1.64,3.36-3.24,5.04-4.84,3.27-3.12,6.54-6.23,9.81-9.34.21-.2.44-.41.7-.52.25-.12.55-.14.84-.16.3-.03.62.1.72.39.08.23.06.58-.06.8-.22.37-.52.71-.85.99-.99.85-2.03,1.65-3.02,2.5-.55.48-1.04,1.03-1.54,1.55-.21.21-.29.49-.31.79-.56.03-.89.28-.88.89-.78.13-.8.16-.88.88-.42-.06-.86-.02-1.17.26-1.17.97-2.41,1.87-3.22,3.21-.41.19-.73.45-.85.91-.41.16-.78.37-.89.85l-.25.17.17-.25c.47-.12.76-.4.87-.87.5-.09.8-.38.84-.9.43.02.88-.02,1.21-.28.99-.78,1.95-1.61,2.92-2.42.21-.18.29-.45.3-.75.76-.14.77-.16.88-.89.79-.12.83-.17.87-.89Z"/>
      <path class="cls-1" d="M33.81,23.75c-.45-.05-.88.04-1.23.3-1.84,1.41-3.62,2.89-5.23,4.56-.33.34-.95.28-1.14-.07-.23-.41-.18-.89.1-1.19.1-.1.17-.22.28-.33.31-.3.59-.65.94-.91,3.13-2.36,5.9-5.12,8.79-7.75.26-.24.55-.21.75,0,.2.2.35.5.23.77-.17.39-.42.76-.7,1.08-.88.96-1.79,1.89-2.68,2.85-.19.21-.25.5-.23.8l.13-.12Z"/>
      <path class="cls-1" d="M33.68,23.87c.45.04.87-.08,1.23-.33.82-.6,1.63-1.22,2.45-1.81.27-.2.53-.1.67.26.06.14.08.31.03.43-.1.26-.2.56-.39.75-.73.72-1.46,1.43-2.25,2.08-1.25,1.01-2.43,2.1-3.59,3.2-.21.21-.51.16-.78-.04-.48-.34-.6-.74-.33-1.11.18-.23.31-.51.51-.7.75-.7,1.52-1.37,2.27-2.06.21-.2.29-.49.3-.8l-.13.12Z"/>
      <path class="cls-1" d="M52.16,15c-.27.51-.54,1.02-.81,1.53-1.27,1.18-2.81,2.05-3.99,3.32-.28.03-.56.1-.82.09-.3-.02-.53-.81-.35-1.12.07-.13.11-.27.21-.38.19-.21.38-.44.61-.6,1.06-.76,2.12-1.5,3.18-2.25.5-.35,1.07-.39,1.65-.41.15,0,.29-.04.43-.05l-.11-.11Z"/>
      <path class="cls-1" d="M39.49,25.01c.1.11.26.21.27.33.01.27.04.6-.1.82-.47.74-1.09,1.36-1.82,1.83-.12.07-.27.08-.4.12-.33.09-.59-.02-.74-.33-.12-.25-.14-.56.05-.8.66-.78,1.43-1.42,2.35-1.89.12-.06.26-.06.4-.09Z"/>
    </g>
  </g>
</svg>