<?xml version="1.0" encoding="UTF-8"?>
<svg id="Layer_2" data-name="Layer 2" xmlns="http://www.w3.org/2000/svg" viewBox="0 0 51.56 47.28">
  <defs>
    <style>
      .cls-1 {
        fill: #5c2f1c;
        fill-rule: evenodd;
      }
    </style>
  </defs>
  <g id="_Layer_" data-name="&amp;lt;Layer&amp;gt;">
    <path class="cls-1" d="M6.22,24.76c.1-.06.21-.12.31-.18-.08-.08-.15-.2-.25-.25-.1-.05-.23-.08-.33-.05-.11.02-.28.16-.27.2.07.28.28.37.55.27h0ZM31.65,15.03c-.27.02-.46.14-.49.38,0,.07.15.19.25.24.28.14.51.06.59-.2.07-.23-.07-.38-.34-.42h0ZM7.38,22.3c.1-.08.2-.17.29-.25-.09-.09-.17-.2-.27-.27-.25-.16-.5-.13-.66.08-.05.06-.06.21-.01.27.16.22.39.27.66.17h0ZM45.1,11.44c.24-.1.51-.16.72-.29.45-.31.71-.78.98-1.25.21-.37-.02-.69-.52-.78-.41-.07-.79-.06-1.19.06-.49.13-.91.61-.93,1.16-.02.42.21.76.56.98.11.07.25.09.38.13h0ZM15.85,4.69c-.13-.05-.25-.1-.38-.16-.45-.21-1.15.07-1.38.55-.42.88-.87,1.74-1.25,2.63-1.4,3.33-2.81,6.65-4.48,9.84-.06.12-.11.25-.16.39-.27.69-.21,1.38.22,1.97.33.44.73.84,1.15,1.2.31.27.72.4,1.05.66.84.64,1.71.9,2.7.39.75-.38,1.56-.58,2.36-.82,1.73-.53,3.46-1.03,5.16-1.62,1.31-.46,2.63-.91,3.97-1.24,1.23-.3,2.36-.81,3.5-1.31.43-.19.6-1,.27-1.45-.66-.9-1.29-1.81-2.01-2.65-1.09-1.26-2.24-2.47-3.4-3.66-.58-.59-1.18-1.21-1.88-1.63-1.78-1.08-3.47-2.32-5.42-3.09h0ZM7.94,30.04c.21-.18.49-.31.64-.54.5-.73,1.17-1.15,2.05-1.29.24-.04.51-.26.65-.48.45-.7.78-1.47,1.05-2.27.24-.71.79-1.11,1.46-1.39,1.54-.66,3.06-1.35,4.74-1.57.84-.11,1.59-.52,2.36-.84,1.03-.43,2.07-.81,3.19-.98,1.25-.19,2.4-.71,3.57-1.15.51-.2,1.07-.28,1.62-.37.68-.1,1.42.35,1.69.96.55,1.28,1.02,2.59,1.31,3.96.11.55.2,1.1.36,1.63.32,1.08.39,2.19.45,3.31.1,2.12-.25,4.17-.88,6.18-.76,2.4-1.79,4.68-3.3,6.71-.2.26-.45.33-.72.22-.25-.11-.52-.21-.75-.37-.69-.46-1.36-.97-2.06-1.42-1.29-.84-2.59-1.65-4.02-2.21-1.3-.51-2.52-1.19-3.7-1.95-1.29-.82-2.65-1.52-4.04-2.19-1.89-.9-3.67-2.01-5.31-3.31-.21-.17-.3-.43-.28-.73-.27-.02-.55,0-.82-.04-.51-.09-.88-.74-.8-1.29.08-.56.32-1.06.71-1.47.09-.09.25-.15.38-.16.22,0,.44.22.37.53-.18.85.04,1.66.08,2.49h0ZM33.91,20.83c-.02-.12-.02-.27-.08-.37-.03-.05-.26-.06-.26-.05-.09.29.06.41.43.34-.09.82.06,1.62.18,2.43.06.41.27.75.65.96-.05,1.23.03,2.44.21,3.65.03.19.13.38.21.6.35-1.09.31-2.16.16-3.24-.06-.42-.28-.74-.68-.92-.03-.68-.06-1.36-.11-2.04-.02-.27-.08-.54-.16-.8-.07-.25-.27-.44-.54-.55h0ZM20.48,4.97c.41.06.82.1,1.22.19.28.06.43.31.49.6.38.08.77.16,1.15.26.26.07.42.27.52.54.51.05.88.23.87.83.26.02.56,0,.79.1.37.17.72.41,1.05.66,1.31,1.03,2.48,2.2,3.59,3.43.17.19.22.49.28.75.11.44-.23.8-.71.75-.14,0-.3,0-.39-.06-1.29-1.07-3.25-3.11-4.29-4.47-.25-.33-.37-.73-.33-1.16-.74-.16-.79-.21-.76-.91-.42.06-.8-.02-1.19-.2-.25-.12-.41-.33-.48-.61-.67-.05-1.29-.21-1.71-.79-.11-.07-.32-.16-.31-.21.02-.2.13-.09.21.31h0ZM1.57,25.48c-.02-.45-.23-.8-.54-1.08-.31-.27-.7-.47-.91-.85-.16-.3-.16-.54.06-.69.1-.07.26-.13.37-.11.41.07.81.19,1.21.29.64.14.95-.1,1.04-.87.06-.59.18-1.13.82-1.28.73-.17,1.25-.59,1.61-1.21.28-.48.54-.97.8-1.47.37-.75.72-1.5,1.11-2.24.77-1.48,1.66-2.91,2.32-4.44,1.04-2.43,1.93-4.92,2.88-7.39.16-.39-.03-.81-.47-1-.76-.33-1.55-.62-2.3-.98-.37-.18-.64-.55-.68-.98-.06-.49.53-1.1,1.02-1.13.27-.01.56-.07.82-.03.97.14,1.92.36,2.89.46,1.25.14,2.45.48,3.66.82,5.43,1.54,3.88,1.08,7.94,3.53,1.44.86,2.79,1.83,3.95,3.07.38.4.82.76,1.24,1.12.95.83,1.74,1.79,2.41,2.87.36.58.86,1.08,1.32,1.6.21.23.49.29.77.21,1.62-.46,3.04-1.36,4.59-1.98.52-.21.94-.58,1.29-1.03.92-1.22,1.83-2.45,2.78-3.65.15-.19.48-.25.73-.36.13-.06.27-.1.41-.08,1.66.26,3.34.1,5.01.1.41,0,.81.08,1.21.23.48.18.82.95.56,1.38-.14.23-.26.5-.45.7-.27.31-.58.6-.91.86-1.08.9-1.99,1.93-2.8,3.08-.94,1.33-1.48,1.4-3.22.66-.13-.05-.25-.11-.38-.17-.52-.23-1.06-.31-1.62-.26-.98.09-1.92.23-2.82.69-.99.51-2.04.89-2.96,1.53-.53.37-.91,1.17-.81,1.8.05.28.08.56.16.82.09.41.2.81.31,1.21.37,1.34.79,2.67,1.11,4.02.39,1.63.54,3.3.39,4.98-.06.55-.17,1.11-.18,1.66-.06,1.98-.55,3.85-1.25,5.68-.2.52-.34,1.05-.46,1.6-.18.82-.54,1.59-.99,2.29-1.13,1.75-2.29,3.49-3.83,4.93-.82.76-1.58,1.58-2.38,2.34-.2.19-.44.36-.69.46-.25.09-.54.12-.8.08-.26-.03-.64-.75-.57-1.03.1-.4.23-.8.37-1.19.14-.39.02-.9-.25-1.13-1.99-1.76-4.09-3.36-6.53-4.44-1.03-.45-2.01-.96-2.95-1.57-1.63-1.07-3.38-1.94-5.09-2.87-2.45-1.32-4.93-2.59-7.35-3.98-1.31-.76-2.56-1.66-3.74-2.63-.22-.17-.4-.92-.26-1.17.35-.6.7-1.19,1.05-1.78Z"/>
  </g>
</svg>