<?xml version="1.0" encoding="UTF-8"?>
<svg id="Layer_2" data-name="Layer 2" xmlns="http://www.w3.org/2000/svg" viewBox="0 0 27.4 52.53">
  <defs>
    <style>
      .cls-1 {
        fill: #5c2f1c;
        fill-rule: evenodd;
      }
    </style>
  </defs>
  <g id="_Layer_" data-name="&amp;lt;Layer&amp;gt;">
    <path class="cls-1" d="M18.71,12.86c-.41-.04-.84.44-.76.87.02.1.11.21.19.27.28.2.61.16.89-.07.18-.15.3-.33.36-.55.06-.2-.34-.49-.68-.53h0ZM17.97,23.17c.12-.67.46-1.23.79-1.81.06-.09.06-.21.09-.32.07-.24-.14-.71-.38-.85-.38-.2-.67-.09-.71.25-.11.89-.03,1.77.21,2.72h0ZM13.89,46.18c-.1.06-.24.08-.29.16-.18.28-.4.56-.47.87-.18.87-.3,1.75-.09,2.63.02.1.1.25.14.25.24,0,.41-.14.54-.33.2-.28.28-.6.31-.94.08-.89.07-1.77-.14-2.65h0ZM13.87,13.69c.04-.21.12-.43.13-.65.08-1.58.14-3.15.21-4.73.03-.68.16-1.33.32-2,.29-1.19.66-2.38.86-3.6.02-.08-.09-.22-.18-.28-.06-.04-.2-.03-.26.01-.19.12-.41.23-.52.41-.45.79-.78,1.62-.82,2.55-.03.68-.1,1.35-.09,2.02.06,2.03.05,4.05.24,6.07,0,.06.07.13.11.19h0ZM2.3,26.6c-.36.93-.36,1.83-.16,2.72.17.76.47,1.5.76,2.24.17.43.49.77.88,1,.58.35,1.18.68,1.86.77.11.02.23.02.34,0,.11-.02.22-.06.31-.11.18-.11.21-.31,0-.53-.9-1.01-1.83-2-2.71-3.02-.59-.7-.99-1.5-1.1-2.44-.02-.21-.13-.42-.19-.63h0ZM25.52,8.49c-.08.08-.18.15-.23.25-.28.51-.2,1.1-.33,1.65-.46,1.87-.98,3.72-1.25,5.63-.1.68-.55,1.24-1.15,1.62-.49.29-.98.56-1.47.86-.09.06-.2.21-.18.27.08.2.29.28.53.26.34-.04.68-.05,1.01-.13.82-.2,1.44-.71,1.78-1.46,1.25-2.74,1.75-5.61,1.41-8.62-.01-.11-.08-.21-.12-.32h0ZM10.28,43.4c-.03.82-.07,1.72-.09,2.63-.03,1.25-.05,2.5.21,3.73.02.1.1.21.18.29.07.07.17.1.27.15.28.15.41.06.5-.22.27-.77.18-1.57.23-2.36.18-2.73.18-5.44-.1-8.16-.08-.68-.28-1.33-.69-1.9-.06-.09-.17-.14-.27-.18-.02-.01-.13.09-.14.14-.14,1.93-.14,3.85-.1,5.88h0ZM16.95,41.7c0,1.79,0,4.39,0,6.98,0,.22.06.44.09.66.05.26.2.38.45.43.74.13,1.13-.19.96-.82-.25-.88-.34-1.77-.33-2.68.03-2.71.04-5.41.06-8.12,0-.91-.01-1.81-.25-2.69-.18-.68-.16-1.33,0-2,.1-.44.12-.89-.06-1.32-.04-.1-.13-.21-.22-.25-.27-.13-.44-.04-.47.21-.06.33-.13.67-.14,1.01-.04,2.59-.06,5.19-.11,8.59h0ZM5.25,22.43c.01.36.06,1.04.07,1.72.02,1.04.29,2.01.6,2.98.36,1.15,1.04,2.05,2.01,2.67,1.08.69,1.88,1.62,2.62,2.62.06.08.06.24,0,.33-.04.09-.2.21-.25.19-2.82-1.15-2.52-.81-4.58-3.31-.44-.53-.89-1.03-1.31-1.57-.14-.17-.26-.39-.3-.6-.24-1.23-.47-2.45-.67-3.68-.11-.68-.13-1.37.06-2.03.28-.98.29-2.02.72-2.96.04-.09.14-.19.23-.21.25-.06.46.02.59.18.07.08.16.19.16.29.02,1.02.03,2.04.05,3.39h0ZM14.64,38.34c-.39-.1-.53-.4-.67-.68-.14-.3-.27-.63-.33-.95-.15-.9-.42-1.76-.68-2.63-.42-1.44-1.13-2.7-2.24-3.74-.66-.61-1.31-1.24-1.97-1.87-.06-.06-.14-.23-.1-.29.04-.08.19-.14.29-.14.68,0,1.36.06,2.03.04.71-.02,1.29-.37,1.76-.91.45-.53.71-1.15.92-1.81.03-.1.13-.18.21-.23.16-.09.29.04.33.34.06.45.13.9.14,1.35.02,1.02.06,2.03.19,3.05.09.67.1,1.35.14,2.03.02.34.02.68,0,1.02-.02,1.81-.03,3.62-.06,5.43h0ZM15.92,29.16c-.07-.87-.1-1.21-.12-1.54-.08-1.59-.15-3.18-.23-4.76-.08-1.7-.08-3.41-.35-5.09-.16-1.02-.14-2.05-.04-3.06.17-1.81.25-3.63.32-5.44.06-1.72.43-3.38.88-5.02.18-.64.55-1.23.85-1.84.11-.23.33-.28.59-.24.21.04.41.14.48.39.1.33.17.67.06,1-.36,1.07-.72,2.14-.96,3.26-.27,1.23-.48,2.45-.53,3.7-.03.91-.05,1.81-.06,2.73,0,1.02-.02,2.05-.21,3.05-.18.9-.2,1.8-.2,2.71,0,.8-.03,1.59-.02,2.38.03,2.39-.1,4.77-.45,7.78h0ZM22.46,13.69c0-.21,0-.44,0-.65.01-.1.06-.29.12-.29.23-.04.32.13.23.41-.07.22-.22.37-.43.48-.05.33-.04.69-.16,1-.49,1.31-1.28,2.39-2.51,3.13-.49.29-.97.58-1.45.88-.32.19-.55,0-.57-.51-.02-.33-.02-.68.02-1.02.03-.34.15-.67.45-.88,1.21-.83,2.43-1.67,3.65-2.5.19-.13.41-.12.65-.05h0ZM11.86,15.46c-.27-2.84-.23-5.34-.18-7.84.03-1.72.34-3.39.68-5.06.09-.44.35-.83.68-1.16.75-.74,1.66-1.19,2.7-1.33.79-.11,1.59-.08,2.38.02,1.14.15,2.08,1.12,2.2,2.29.02.22.07.45.06.68-.04,1.47-.06,2.95-.14,4.43-.05.9-.19,1.8-.29,2.71-.04.41.46.84.91.77.6-.11,1.02-.46,1.26-1.02.18-.43.26-.87.29-1.33.03-.45.05-.91.21-1.34.32-.88,1.1-1.77,2.23-1.86.72-.06,1.33.16,1.76.79.26.37.49.77.58,1.22.1.45.17.9.19,1.35.09,2.63-.17,5.22-.89,7.76-.15.54-.41,1.06-.63,1.58-.48,1.11-1.29,1.85-2.41,2.28-.21.08-.43.13-.64.21-.33.14-.54.41-.73.7-.39.57-.65,1.21-.82,1.87-.31,1.21-.55,2.44-.77,3.67-.1.55-.12,1.13-.12,1.7,0,1.48-.16,2.95-.21,4.43-.02.34,0,.68-.05,1.02-.37,2.03-.31,4.07-.3,6.12,0,1.14-.03,2.28-.05,3.41-.03,1.14.01,2.27.31,3.39.15.56.05,1.13-.12,1.68-.14.46-.05.89.17,1.31.05.1.09.21.12.32.13.51-.28,1.2-.79,1.33-.33.08-.66.16-1,.21-.45.07-.91.08-1.32.29-.72.39-1.51.49-2.31.45-1.48-.06-2.96.03-4.43.05-1.08,0-1.56-.57-1.61-1.38-.11-1.7-.17-3.4-.11-5.11.02-.45.06-.91.06-1.36.02-2.62.03-5.23.03-7.84,0-.62-.39-1.09-1.01-1.15-1.72-.18-3.3-.82-4.88-1.46-.43-.17-.79-.45-1.03-.87-.22-.39-.46-.78-.69-1.17-.35-.59-.61-1.22-.67-1.91-.03-.34-.02-.69-.11-1.02-.44-1.57-.48-3.14-.14-4.73.14-.67.14-1.35.01-2.03-.15-.8-.13-1.58.07-2.37.14-.55.2-1.13.37-1.66.26-.78.76-1.38,1.55-1.71.86-.37,1.75-.49,2.67-.34.9.14,1.78.36,2.63.71.19.08.38.27.49.45.41.69.7,1.44.73,2.25.04,1.59.04,3.18.08,4.77,0,.33.09.68.32.96.37.45.86.73,1.45.78.25.02.45-.06.62-.22.43-.41.68-.91.81-1.47.08-.33.14-.67.12-1.01-.07-2.61-.15-5.23-.24-7.84,0-.23-.04-.45-.03-.34Z"/>
  </g>
</svg>