<?xml version="1.0" encoding="UTF-8"?>
<svg id="Layer_2" data-name="Layer 2" xmlns="http://www.w3.org/2000/svg" viewBox="0 0 35.47 40.54">
  <defs>
    <style>
      .cls-1 {
        fill: #5c2f1c;
        fill-rule: evenodd;
      }
    </style>
  </defs>
  <g id="_Layer_" data-name="&amp;lt;Layer&amp;gt;">
    <path class="cls-1" d="M11.28,29.53c.09-.07.18-.14.28-.2-.08-.08-.15-.23-.24-.24-.08,0-.19.12-.27.18.07.09.16.17.23.26h0ZM30.08,8.42c-.1.03-.22.02-.26.08-.09.09-.16.22-.17.34-.08.71.14,1.31.66,1.79.1.09.27.23.33.19.26-.14.36-.39.31-.66-.13-.66-.38-1.27-.88-1.75h0ZM5.33,8.32c-.15-.3-.45-.43-.67-.18-.45.5-.83,1.06-1.18,1.62-.13.21-.14.51-.16.78-.02.29.08.57.32.71.18.11.41-.06.59-.32.53-.8.81-1.71,1.1-2.61h0ZM8.84,32.55c-.29-.28-.54-.68-.88-.82-.88-.35-1.72-.84-2.67-1.02-.12-.02-.26.02-.38.08-.33.16-.36.39-.1.67.18.19.34.48.57.56.9.32,1.81.58,2.73.85.28.08.53-.05.73-.32h0ZM27.16,9.71c-.13.04-.29.03-.39.1-.54.37-.72.9-.56,1.39.17.53.42,1,.85,1.38.24.21.48.25.76.17.47-.15.74-.42.75-.84,0-.14.03-.27,0-.41-.12-.54-.35-1.04-.7-1.47-.18-.23-.44-.31-.71-.32h0ZM19.4,14.79c-.05-.64-.03-1.31-.38-1.93-.27-.47-.98-.6-1.38-.21-.1.1-.19.2-.26.31-.07.12-.12.25-.15.37-.14.53-.18,1.07-.02,1.6.04.14.1.25.16.37.24.43,1.02.71,1.42.49.37-.21.53-.57.61-1.01h0ZM3.97,24.03c0-.09,0-.8-.06-1.5-.02-.42-.08-.84-.18-1.25-.06-.26-.19-.53-.33-.76-.16-.24-.43-.45-.65-.37-.27.11-.36.43-.37.71-.01,1.86.5,3.61,1.13,5.33.04.12.18.25.29.27.16.04.27-.2.26-.56,0-.42-.04-.84-.1-1.87h0ZM31.61,25.36c.26-.07.57-.07.78-.2.36-.25.53-.68.55-1.09.03-1.26.02-2.53,0-3.79,0-.27-.1-.55-.19-.81-.1-.31-.31-.47-.58-.49-.14,0-.33-.05-.41.02-.2.16-.38.38-.52.6-.08.11-.08.27-.08.41,0,1.4,0,2.8,0,4.21,0,.45.21.8.45,1.14h0ZM6.68,21.48s-.1-.04-.24-.02c-.13.02-.29.07-.37.16-.62.66-.72,1.44-.5,2.28.07.29.28.48.53.58.26.11.48.01.69-.24.26-.32.54-.62.83-.92.23-.24.87-.29,1.15-.08.44.33.88.67,1.29,1.02.34.29.82.16,1.07-.2.33-.49.16-1.22-.32-1.42-.12-.06-.23-.17-.35-.2-1.2-.31-2.4-.6-3.77-.95h0ZM14.97,10.22c.79,0,1.07.04,1.34,0,.26-.04.52-.17.78-.25-.12-.25-.34-.4-.61-.5-2.07-.8-4.14-1.61-6.22-2.39-.24-.1-.54-.05-.81-.02-.12.02-.27.12-.33.22-.06.07-.04.25,0,.32.16.23.31.48.53.62,1.4.95,2.99,1.46,4.59,1.93.39.11.83.09.73.08h0ZM24.97,13.76c.03-.14.09-.28.08-.41-.04-.42-.22-.8-.46-1.15-.33-.48-.96-.77-1.44-.62-.4.14-.78.31-1.18.44-.45.15-.64.51-.78.92-.18.56-.11,1.11.11,1.63.13.29.38.43.68.4.98-.08,1.93-.32,2.75-.88.11-.07.16-.22.23-.32h0ZM9.13,12.15c-.04.36-.09.77-.16,1.17-.08.52-.71.91-1.23.81-.42-.07-.77-.28-1.14-.45-.59-.27-.74-.8-.74-1.34,0-.83.25-1.61.73-2.31.31-.45.88-.62,1.44-.37.54.23.86.66.98,1.22.08.4.08.81.12,1.27h0ZM13.73,12.02c-.62-.14-.76-.16-.9-.2-.26-.07-.53-.15-.8-.22-.57-.15-1.15.18-1.25.71-.08.41-.14.82-.2,1.23-.06.46.35,1.23.72,1.36,1.05.39,2.14.54,3.25.35.22-.04.49-.32.57-.54.18-.51.25-1.06.1-1.62-.12-.45-.43-.72-.8-.88-.37-.16-.79-.21-.71-.19h0ZM17.92,2.14c-.23.04-.51.06-.77.14-.29.08-.47.28-.58.54-.12.25-.01.47.31.61,1.26.58,2.54,1.11,3.78,1.74,1.03.52,2.04.9,3.18.47.41.09.8.17,1.21.25.13.02.29.04.41-.01.37-.19.34-.36.05-.62-.74-.64-1.53-1.21-2.38-1.69-.48-.26-.99-.5-1.52-.66-.92-.29-1.87-.53-2.81-.76-.26-.06-.56-.01-.88-.01h0ZM24.57,30.93c-.85-.23-1.69-.16-2.51.08-.96.28-1.93.42-2.92.39-2.83-.08-5.6.44-8.37.89-.28.05-.45.31-.55.56-.12.32.24.85.62.93.69.14,1.39.21,2.09.14,1.68-.17,3.29-.72,5-.78.27-.01.55-.14.79-.28.63-.34,1.28-.53,2.01-.58.56-.04,1.15-.12,1.61-.44.67-.47,1.52-.47,2.22-.9h0ZM23.13,28.52c0-.28.03-.54,0-.8-.06-.42.02-.82.1-1.23.13-.68.26-1.36.32-2.05.03-.41-.03-.84-.11-1.24-.19-.94-1.12-1.78-2.12-1.49-.13.03-.27.05-.41.08-1.09.3-1.44.72-1.39,1.72.09,1.66.14,3.33.1,4.99-.01.43.41.82.78.8.98-.05,1.9-.32,2.74-.77h0ZM19.96,10.09c-.87.02-1.05-.14-1.03-.48.06-1.03-.55-1.55-1.45-1.71-1.82-.31-3.46-1.06-5.09-1.88-.71-.36-.72-1.11-.02-1.65.11-.09.23-.16.35-.25.37-.25.81-.33,1.18-.14,2.6,1.38,5.39,2.32,8.05,3.59.63.3,1.34.39,2.05.42.39.02.56.12.45.34-.06.12-.16.23-.26.32-.21.18-.41.41-.66.5-.92.32-1.85.61-2.81.86-.39.11-.83.07-.74.07h0ZM15.81,29.63c.28-.03.55-.06.83-.09.14-.01.27-.03.41-.05.86-.11,1.34-.62,1.25-1.36-.2-1.52-.42-3.04-.65-4.56-.06-.45-.72-.99-1.19-1.06-.7-.11-1.39-.08-2.07.12-.41.12-.73.41-.86.84-.13.4-.19.82-.29,1.23-.18.68-.24,1.37-.08,2.07.16.68.32,1.35.5,2.03.13.48.75.88,1.3.87.29,0,.56-.02.84-.04h0ZM29.43,24.19c0-.84,0-1.67-.02-2.5,0-.28-.09-.55-.14-.82-.09-.46-.81-.98-1.25-.88-.82.18-1.64.37-2.44.56-.48.11-.74.47-.63.88.56,1.94.48,3.85-.26,5.73-.05.12-.05.27-.08.4-.1.44.25.88.66.8.82-.17,1.64-.33,2.45-.51.27-.06.52-.18.78-.3.53-.26.9-.65.92-1.27.02-.69,0-1.39,0-2.08h0ZM13.69,20.5c-.7,0-1.4,0-2.1,0-.28,0-.57,0-.84-.06-1.49-.39-2.99-.72-4.45-1.21-1.05-.36-2.05-.9-3.04-1.41-.35-.19-.65-.52-.92-.84-.28-.33-.37-.75-.28-1.17.08-.41.23-.81.37-1.2.22-.6.55-.76.87-.43.29.29.55.63.86.9.21.18.45.36.7.42.54.14,1.11.14,1.64.3,2.15.63,4.3,1.21,6.55,1.44.97.1,1.92.37,2.88.54,1.4.25,2.79.24,4.16-.16.54-.15,1.07-.36,1.62-.43,2.53-.35,4.87-1.26,7.18-2.27.76-.33,1.45-.84,2.3-1,.3-.06.56.05.66.37.29.88,0,1.77-.68,2.2-.24.14-.47.33-.72.42-1.18.43-2.34.92-3.6,1.14-1.23.21-2.44.59-3.66.9-1.68.82-3.56.73-5.3,1.24-1.26.1-2.52.19-3.76.27-.14.01-.29,0-.42,0v.04ZM31.19,31.37c-.08-.32.04-.53.36-.55.09,0,.27.16.26.24-.03.32-.24.45-.56.37-.02.43-.21.78-.55,1.02-.34.23-.71.41-1.05.62-.22.15-.48.3-.61.52-.68,1.11-1.7,1.71-2.92,2.02-.09.11-.15.26-.26.32-1.1.58-2.24,1.09-3.49,1.23-1.52.16-3.04.26-4.56.37-.7.04-1.38-.06-2.04-.33-.41-.17-.66-.49-.78-.9-.08-.25.05-.54.37-.6,1.22-.19,2.44-.33,3.66-.49.33.32.62.62.93.89.55.46,1.07.35,1.29-.27.09-.26.14-.53.22-.8.19-.56.57-.93,1.15-1.1.39-.1.79-.23,1.2-.31.1-.02.27.06.35.14.62.73,1.1,1.61,2.07,1.96-.02-.84.01-1.66.19-2.47.06-.25.23-.57.45-.66,1.01-.43,2.01-.9,3.1-1.15.41-.1.82-.13,1.23-.08h0ZM6.71,34.82c-.15-.36-.25-.42-.25-.17,0,.03.21.06.33.1,0,.14,0,.29.03.42.04.12.11.26.21.32.49.27,1.01.48,1.47.78.47.31.87.7,1.27,1.02.88.16,1.69.41,2.54.38.29,0,.49-.22.62-.48.14-.29.08-.54-.21-.74-.22-.16-.43-.4-.68-.47-1.5-.41-2.99-.8-4.49-1.17-.26-.06-.56,0-.84,0h0ZM27.88,4.34c-.1.31,0,.57.29.71.05.02.29-.18.28-.26-.06-.34-.3-.46-.64-.38.04-.44-.23-.68-.57-.89-.25-.17-.51-.25-.63-.07-.14.19-.02.44.21.61.32.23.66.36,1.06.28h0ZM31.93,4.58c.22.84.47,1.79.72,2.73.37,1.35.49,2.76.98,4.1.43,1.18.28,2.52.86,3.68.29,1.8.64,3.59.87,5.4.15,1.11.18,2.27-.12,3.36-.48,1.78-.56,3.6-.59,5.42-.01.86-.25,1.66-.58,2.45-.71,1.69-1.62,3.27-2.57,4.83-.22.37-.62.56-1.03.64-.27.05-.57.04-.84.02-.85-.05-1.7.02-2.47.39-.9.43-1.89.58-2.79.94-.93.36-1.89.53-2.88.6-.28.02-.57,0-.84.05-2.49.56-5.02.54-7.54.53-1.01,0-1.93.24-2.81.72-.27.15-.55.1-.8-.1-.99-.77-1.98-1.55-2.98-2.33-.78-.61-1.4-1.37-1.91-2.22-.87-1.46-1.48-3.04-1.93-4.66-.61-2.16-1.1-4.36-1.64-6.54-.41-1.63-.63-3.31-.86-4.98-.2-1.4-.2-2.8.15-4.19.18-.68.35-1.37.39-2.07.09-1.43.47-2.77,1.1-4.04.41-.78.51-1.6.61-2.44.07-.58.4-1.04.82-1.43.51-.48,1.03-.96,1.66-1.29.5-.26,1.01-.49,1.5-.78,2.07-1.21,4.26-2.14,6.65-2.55.41-.07.81-.23,1.21-.36.68-.22,1.37-.33,2.07-.35,1.69-.05,3.37-.08,5.06-.14,2.14-.07,4.19.43,6.17,1.17.65.24,1.25.64,1.79,1.08.88.7,1.68,1.49,2.6,2.32Z"/>
  </g>
</svg>