<?xml version="1.0" encoding="UTF-8"?>
<svg id="Layer_2" data-name="Layer 2" xmlns="http://www.w3.org/2000/svg" viewBox="0 0 87.32 29.79">
  <defs>
    <style>
      .cls-1 {
        fill: #5c2f1c;
        fill-rule: evenodd;
      }
    </style>
  </defs>
  <g id="_Layer_" data-name="&amp;lt;Layer&amp;gt;">
    <g>
      <path class="cls-1" d="M31.61,8.89c-.65-.46-1.37-.76-2.14-.91-.13-.02-.28.06-.4.1-.1.05-.03.24.13.34.41.26.84.46,1.13.9.15.22.45.37.7.5.12.07.29.09.42.06.23-.06.45-.18.66-.29.05-.02.08-.2.06-.23-.17-.18-.36-.32-.54-.47h0ZM35.19,8.22c-.12.33-.44.34-.68.47-.63.32-1.23.22-1.81-.13-.5-.31-.99-.62-1.49-.94-.16-.1-.23-.27-.16-.35.07-.07.14-.16.22-.19.47-.18.96-.14,1.44-.05.14.03.29.06.42.13.63.28,1.25.56,1.86.85.08.04.13.14.2.21h0ZM7.27,21.77c1.27-.39,2.51-.88,3.74-1.38.09-.04.2-.09.23-.16.06-.13.12-.27.1-.41-.03-.26-.28-.45-.51-.44-.84.06-1.66.29-2.4.68-.57.3-1.04.75-1.26,1.39-.02.07.06.17.1.3h0ZM36.58,7.79c.64-.16,1.22-.41,1.78-.72.08-.03.17-.14.17-.21,0-.07-.08-.18-.15-.22-.8-.53-1.7-.78-2.62-1.02-.34-.1-.68-.09-1.01.04-.33.13-.64.26-.96.41-.1.05-.1.33,0,.39.85.6,1.77,1.06,2.79,1.34h0ZM37.18,5.17c-.12-.15-.26-.25-.24-.3.05-.12.14-.24.24-.31.16-.1.35-.18.52-.26,1.46-.69,1.19-.73,2.78-.21.6.2,1.21.4,1.81.61.08.03.16.12.18.21.02.06-.02.2-.08.23-.71.33-1.42.65-2.14.96-.33.13-.67.14-1.01,0-.72-.32-1.43-.64-2.07-.92h0ZM31.89,25.04c-.13-.37-.45-.37-.72-.48-.84-.32-1.54,0-2.21.45-.18.13-.2.53-.02.66.37.24.74.47,1.13.69.65.37,1.25.78,1.67,1.42.16.25.38.46.6.64.1.1.29.14.41.1.34-.07.71-.2.81-.55.15-.55.54-.81.99-1.04.27-.15.57-.21.84-.06.29.17.57.14.85.02.23-.1.45-.2.68-.29.16-.16.18-.24.19-.33-1.13-.55-2.22-.84-3.35-1.01-.18-.02-.4.06-.56.14-.6.33-1.28.54-1.8,1-.1.1-.27.11-.41.15-.11.02-.17-.03-.21-.15-.07-.27,0-.5.19-.68.29-.25.61-.48.92-.71h0ZM2.97,17.09c.14-.07.25-.17.39-.17.93-.09,1.87-.15,2.8-.21.14-.02.3,0,.44-.03,1.5-.32,3.02-.45,4.54-.62.34-.04.68-.13,1.02-.19.17-.04.37.06.33.16-.06.13-.13.27-.24.33-.17.1-.36.16-.55.2-.78.15-1.55.28-2.33.42-.97.17-1.94.38-2.87.73-.13.05-.25.14-.34.25-.05.05-.03.17-.02.26.26.1.41.13.54.11.44-.09.87-.19,1.3-.31,1.06-.29,2.14-.33,3.22-.41.19-.02.37.23.3.41-.04.08-.09.18-.16.22-.17.1-.35.17-.54.23-.47.16-.98.24-1.41.47-.93.48-1.84.25-2.72-.06-.98-.34-1.91-.78-2.86-1.19-.31-.14-.64-.26-.84-.61h0ZM26.11,23.81c.46.28.9.58,1.36.87.25.15.47.06.66-.11.11-.1.23-.17.32-.3.03-.04-.03-.22-.07-.23-.67-.11-1.35-.22-2.03-.33-.08,0-.16.09-.24.13-.09-.04-.17-.09-.26-.12.08.1.17.1.26.1h0ZM66.15,3.44c-.2.08-.39.2-.57.33-.41.41-.39,1.02-.72,1.44-.3.38-.73.68-1.03,1.07-.99,1.24-1.73,2.63-2.32,4.12-.2.51-.31,1.05-.11,1.59.07.19.18.36.38.42.09.02.21.02.28-.02.08-.04.17-.17.14-.23-.25-.76-.03-1.43.29-2.13.47-1.04,1-2.05,1.69-2.96.57-.75,1.27-1.39,2.05-1.91.21-.14.44-.24.64-.39.98-.72,2.08-1.1,3.28-1.28.44-.08.88-.14,1.32-.1.69.08,1.38.11,2.06.27,1.19.28,2.42.49,3.58.92.65.25,1.32.41,2.02.45.29.02.6.09.88.17,1.23.4,2.49.62,3.75.87.53.11,1.07.21,1.6.34.17.03.32.28.25.46-.11.33-.21.66-.38.96-.38.71-.95,1.27-1.58,1.75-.86.67-1.73,1.3-2.63,1.92-.82.55-1.67,1.06-2.63,1.37-.1.02-.19.08-.25.15-.06.08-.09.17-.11.26-.02.13.11.31.21.35.36.12.69.03,1-.13,1.18-.62,2.39-1.2,3.44-2.04.61-.49,1.28-.93,1.89-1.42.5-.41,1-.81,1.33-1.38.04-.07.16-.1.33-.19-.11.23-.17.4-.25.55-.77,1.35-1.9,2.4-3.06,3.42-1.15,1-2.4,1.89-3.61,2.84-.86.68-1.83,1.18-2.79,1.68-.39.2-.83.33-1.25.46-.42.12-.87.19-1.31.3-1.51.36-1.51.35-3.04-.02-.49-.11-.94-.29-1.35-.58-.16-.12-.32-.24-.49-.33-.96-.53-1.54-1.37-1.98-2.33-.17-.38-.2-.76-.14-1.16.04-.26.18-.43.37-.61.25-.24.25-.42.04-.62-.25-.23-.6-.26-.79-.06-.1.1-.22.21-.26.35-.13.37-.23.76-.3,1.14-.06.25-.06.49-.08.78-.77.52-1.49,1.12-2.12,1.81-.18.19-.28.42-.16.68.11.27.05.5-.14.68-.51.47-1.03.92-1.54,1.39-.18.16-.37.32-.43.58.08.21.18.28.25.27.14-.02.29-.07.41-.17.87-.73,1.73-1.46,2.59-2.22.52-.46,1.07-.88,1.69-1.2.07-.04.18,0,.27.03.1.02.07.29-.03.38-.1.09-.21.21-.33.29-.44.33-.88.64-1.32.95-.49.34-.93.75-1.27,1.23-.05.06-.03.19-.02.29,0,.11.25.18.37.11.13-.06.27-.13.38-.22.2-.15.37-.33.57-.48.73-.51,1.46-1.01,2.2-1.5.11-.07.29-.11.41-.08.12.03.23.16.31.28.02.04-.02.19-.09.24-.15.14-.32.24-.49.33-1.77.92-3.33,2.13-4.77,3.49-.51.49-1.09.86-1.73,1.15-.08.04-.19.02-.29.02,0-.27.18-.46.37-.61.34-.27.72-.53,1.07-.8.1-.07.15-.33.06-.39-.11-.08-.25-.14-.39-.14-.14,0-.29.07-.42.14-.47.27-.89.61-1.23,1.05-.09.12-.18.24-.3.32-.05.05-.2.02-.25-.03-.16-.15-.23-.42-.14-.54.17-.24.36-.46.55-.69.22-.25.47-.5.68-.76.04-.06.03-.23,0-.26-.1-.09-.28-.18-.38-.14-.22.07-.45.21-.64.37-.27.2-.52.45-.78.67-.06.04-.18.03-.27.02-.1,0-.15-.29-.09-.39.1-.18.19-.36.33-.5.41-.42.83-.85,1.27-1.23.83-.71,1.66-1.4,2.67-1.86.14-.07.21-.21.19-.36-.02-.17-.23-.39-.39-.39s-.3,0-.44.04c-.18.07-.37.16-.52.29-1.14.95-2.28,1.89-3.41,2.86-.25.23-.47.51-.67.78-.26.37-.26.78-.02,1.12.4.57.81,1.13,1.27,1.65.25.29.6.5.92.72.31.21.66.23,1,.1.98-.39,1.87-.91,2.65-1.61.48-.43.97-.84,1.46-1.27,1.33-1.14,2.82-1.99,4.55-2.55.53.1,1.1.27,1.64.49.06.02.1.18.07.25-.09.17-.2.34-.35.47-.88.72-1.8,1.38-2.77,1.98-.68.41-1.33.85-2.01,1.27-.68.41-1.36.8-2.06,1.18-1,.53-2,1.07-3.04,1.54-1.85.83-3.73,1.59-5.75,1.91-1.07.18-2.14.44-3.22.56-1.82.21-3.65.2-5.47-.14-1.07-.2-2.15-.36-3.22-.56-1.31-.27-2.58-.67-3.84-1.11-.74-.26-1.46-.61-2.21-.84-.7-.23-1.43-.4-2.16-.54-1.46-.29-2.88-.71-4.31-1.08-.62-.16-1.25-.31-1.89-.37-1.09-.11-2.16-.29-3.22-.53-.82-.18-1.66-.29-2.5-.34-.94-.06-1.88-.09-2.81-.17-1.69-.15-3.36.08-5.03.25-1.52.45-2.93.72-4.25,1.3-1.59.71-3.15,1.45-4.66,2.29-.43.24-.9.41-1.35.6-.12.05-.27-.1-.25-.25.07-.64.22-1.27.56-1.83.21-.33.42-.67.63-1,.24-.39.58-.66,1.02-.81.51-.17,1-.41,1.52-.59,1.13-.37,2.26-.72,3.39-1.07.08-.02.19.02.28.05.1.04-.04.25-.21.34-.22.11-.44.22-.67.32-.99.45-1.99.89-2.97,1.35-.72.34-1.39.76-1.97,1.31-.1.1-.19.22-.27.34.08.18.18.27.25.24.23-.08.46-.17.66-.31,1.52-1.05,3.2-1.77,4.95-2.32.1-.04.2-.04.29-.09.77-.4,1.58-.53,2.44-.39.13.02.28-.06.41-.12.1-.05.11-.15.06-.25-.13-.25-.37-.35-.6-.4-.55-.12-1.01-.41-1.45-.74-.23-.17-.41-.41-.58-.64-.19-.27-.13-.55.14-.78.08-.06.17-.1.24-.16.21-.17.27-.33.12-.49-.39-.43-.27-.82.02-1.19.21-.27.48-.51.76-.71.37-.25.74-.48,1.09-.76.52-.4,1.17-.41,1.89-.58-.15.56-.27.93-.35,1.32-.07.33-.1.67-.14,1.01,0,.11.19.34.25.31.09-.05.2-.09.22-.17.24-.76.56-1.48,1.05-2.11,0-.1,0-.19.01-.29.14.14-.08.2-.05.3.02.65-.33,1.23-.38,1.87-.02.24-.02.48-.02.73,0,.12.19.28.31.23.08-.02.19-.08.23-.15.08-.13.14-.27.15-.41.13-1.05.54-1.99,1.07-2.95.6-.14,1.21-.28,1.83-.41.08.38,0,.62-.14.82-.37.6-.59,1.25-.75,1.92-.05.23,0,.49.02.72,0,.08.14.13.21.17.23-.17.33-.27.38-.41.1-.27.18-.56.28-.84.39-1.09.98-2.04,1.81-2.85.22-.22.49-.33.78-.36.09,0,.18.06.26.1-.33.67-.68,1.2-1.01,1.75-.39.63-.8,1.24-1.01,1.97-.05.18-.08.38-.12.58-.04.19.15.5.26.45.12-.07.27-.17.31-.28.42-1.28,1.15-2.39,1.91-3.49.19-.29.39-.57.63-.82.96-.99.76-1.01,2.28-1.54,1.44-.5,2.93-.88,4.39-1.33.13-.04.28,0,.43.02.16-.19.32-.37.59-.35.07-.06.14-.16.21-.2.17-.1.35-.19.53-.25.32-.12.65-.22.98-.33.04.13.11.23.08.29-.21.49-.45,1-.66,1.5-.08.18-.1.38-.1.57,0,.06.09.18.16.2.08.03.22.02.27-.02.16-.18.31-.38.43-.59.4-.68.8-1.36,1.18-2.05.33-.62.9-.89,1.54-1.07.06-.02.16.06.23.11-.62,1.16-1.25,2.16-1.87,3.17-.31.51-.6,1.03-.75,1.61-.02.08.03.17.07.26.03.09.3.03.39-.09.09-.12.19-.22.27-.35.18-.29.34-.6.53-.9.59-.91,1.18-1.82,1.79-2.73.27-.41.57-.8.98-1.1.19-.13.37-.34.47-.55.33-.79,1.05-.99,1.77-1.19.05-.02.14.09.25.15-.3.51-.66.98-1.07,1.42-1.37,1.45-2.49,3.06-3.44,4.82-.3.56-.56,1.15-.8,1.74-.13.33-.18.68-.21,1.02-.03.24.04.49.24.68.21.02.31-.02.36-.08.06-.07.09-.18.08-.28-.04-.81.22-1.56.61-2.25.97-1.73,2.06-3.38,3.38-4.86.33-.37.65-.75.96-1.14.66-.83,1.45-1.48,2.44-1.88.27-.11.59-.21.77-.42.32-.38.73-.48,1.17-.57,1.07-.2,2.14-.41,3.21-.6.19-.03.39-.03.59-.04.12-.02.26.21.2.31-.16.3-.33.6-.49.92-.12.22-.17.46-.11.72.02.08.11.17.18.2.07.03.23.03.26-.02.22-.32.41-.68.64-.99.36-.47.74-.93,1.13-1.37.21-.24.53-.27.82-.27.06,0,.15.07.21.13-.29.49-.54.86-.85,1.17-.91.94-1.63,2-2.29,3.1-.43.72-.73,1.5-1.05,2.28-.07.15,0,.37.02.57.36-.06.47-.18.53-.3.3-.61.55-1.27.89-1.86.65-1.17,1.39-2.28,2.36-3.23.67-.65,1.32-1.33,1.99-1.98.05-.05.17,0,.27.02-.6,1.07-1.19,2.04-1.83,2.98-.76,1.11-1.59,2.15-2.29,3.29-.45.73-.78,1.49-1.03,2.3-.07.23-.07.48-.09.72.18.1.33.12.35.08.17-.3.33-.61.45-.93.37-.93.87-1.78,1.44-2.59.85-1.21,1.66-2.46,2.64-3.57.2-.22.33-.49.52-.72.39-.51.78-1.03,1.19-1.52.13-.15.3-.27.48-.33.47-.15.96-.25,1.45-.14,0,.34-.1.46-.2.57-.24.25-.49.49-.72.74-1.46,1.63-2.79,3.35-4.01,5.15-.59.86-1.04,1.8-1.53,2.71-.14.3-.21.66-.25,1-.03.24.06.49.26.66.1.09.26.12.4.14.14.03.29-.14.29-.26-.25-.58-.21-1.02.02-1.42.76-1.34,1.42-2.73,2.43-3.9.49-.57.89-1.19,1.35-1.78.75-.92,1.51-1.81,2.38-2.63.56-.53,1.23-.8,1.91-1.11.13-.06.29-.08.43-.08,1.24,0,2.48,0,3.71.02.07,0,.13.09.18.17-.1.21-.17.27-.25.34-.91.84-1.69,1.8-2.3,2.88-.48.88-1.02,1.7-1.47,2.59-.28.51-.46,1.08-.65,1.65-.05.12-.02.29,0,.44.02.07.11.15.19.17.08.03.2,0,.26-.06.06-.05.1-.17.14-.25.76-2.23,2.12-4.12,3.5-5.99.5-.68,1.15-1.23,2.01-1.42.19-.13.38-.25.57-.37h0ZM47.63,3.85c.14-.02.28-.04.41-.06,1.2,0,2.25-.16,3.29-.43-.89-.72-1.7-.91-2.87-.92.03.09.07.18.1.25.11.29,0,.5-.25.51-.28.02-.54-.25-.84-.06-.27-.29-.68-.41-.84-.8-.1-.25-.32-.37-.56-.45-.94-.3-1.91-.4-2.89-.48-.09.14-.08.25-.03.29,1.35.71,2.81,1.12,4.31,1.38.37.1.62.29.57.72-.14.03-.27.06-.41.09-.16-.05-.31-.09-.42.1-.21-.23-.5-.29-.8-.34-1.46-.26-2.84-.75-4.23-1.27-.4-.14-.68-.37-.74-.82-.01-.09-.09-.17-.15-.26-.13-.03-.27-.08-.42-.1-.21-.02-.45.11-.48.26-.09.38-.18.76-.26,1.15-.04.17.09.41.25.48.82.34,1.63.69,2.45,1.01,1.67.66,1.11.65,2.98.3.34-.06.68-.12,1.01-.21.14-.04.25-.14.37-.21.17.09.31.04.41-.12h0ZM6.62,20.13c-.69-.63-1.54-.79-2.31-1.12-.45-.19-.91-.37-1.32-.65-.5-.33-1.03-.6-1.58-.82-.41-.17-.78-.42-1.16-.65-.2-.12-.31-.48-.21-.65.1-.17.24-.31.46-.32.79-.02,1.58-.08,2.36-.04,1.5.07,2.97-.15,4.44-.32,2.2-.25,4.41-.57,6.61-.88,1.07-.16,2.14-.38,3.22-.58.63-.12,1.26-.29,1.89-.35,1.54-.14,3.01-.62,4.44-1.14,2.05-.74,4.1-1.46,6.17-2.11.14-.06.21-.26.11-.36-.45-.45-.84-.75-1.3-.96-.45-.21-.87-.48-1.29-.74-.25-.14-.18-.62.1-.73.18-.09.36-.17.55-.23,2.09-.62,4.07-1.53,6.09-2.34.96-.39,1.89-.86,2.85-1.26.85-.33,1.52-.9,2.18-1.5.32-.28.43-.65.33-1.07-.06-.24-.15-.48-.21-.72-.07-.26.22-.6.51-.59.24,0,.5.02.72.11,1.04.37,2.12.48,3.21.51,1,.03,1.96.17,2.93.43.96.25,1.93.41,2.91.61.49.09.98.14,1.45.3,1.27.41,2.61.53,3.91.81.38.09.8.09,1.19.03,2.8-.38,5.63-.34,8.44-.29,1.38.02,2.77.06,4.15.07,1.09,0,2.17,0,3.25-.11,1.1-.13,2.18-.04,3.23.29,1.28.39,2.6.58,3.92.82.44.09.88.17,1.29.33,1.02.39,2.07.65,3.14.87.68.14,1.35.33,2.01.5.29.08.53.25.74.48.24.25.44.56.72.75.43.29.53.68.54,1.15.02.77-.17,1.45-.64,2.08-.56.77-1.17,1.46-1.84,2.13-1.82,1.85-4.77,4.12-7.03,5.41-1.26.72-2.56,1.3-4.01,1.46-.8.1-1.5.45-2.14.95-2.25,1.79-4.68,3.32-7.17,4.74-1.59.89-3.25,1.71-4.93,2.4-1.54.64-3.14,1.19-4.85,1.34-.88.08-1.75.3-2.63.43-2.48.34-4.93.17-7.38-.33-.14-.04-.29-.11-.43-.13-1.64-.14-3.19-.65-4.76-1.09-.4-.11-.78-.1-1.17-.02-1.91.44-3.66,1.19-5.24,2.37-.16.11-.31.22-.49.32-.25.14-.64.07-.8-.15-.29-.4-.57-.8-.86-1.21-.41-.58-.93-1.03-1.56-1.33-.53-.27-1.03-.59-1.51-.94-.84-.61-1.74-1.13-2.7-1.55-.76-.34-.75-.35-1.14-1.27-.18-.04-.37-.1-.56-.13-2.12-.22-4.23-.41-6.36-.27-.7.06-1.38.15-2.05.36-.8.25-1.62.45-2.41.72s-1.59.55-2.36.91c-1.26.56-2.5,1.19-3.73,1.81-.71.35-1.43.68-2.06,1.17-.08.06-.18.09-.27.13-.32.14-.74-.1-.78-.45-.02-.2-.04-.41,0-.59.33-1.19.71-2.36,1.36-3.44.57-.93,1.09-1.88,1.63-2.83.09-.17.1-.37.15-.53Z"/>
      <path class="cls-1" d="M75.81,8.88c.36.25.72.33,1.13.2.42-.14.8-.38,1.1-.7.46-.51.37-1.51-.49-1.78-.73-.23-1.35,0-1.9.46-.55.45-.6,1.02-.13,1.53.1.11.2.21.29.3h0ZM74.73,9.85c-.41-.24-.65-.6-.74-1.06-.03-.2-.1-.4-.08-.59,0-.24.03-.5.14-.72.24-.49.6-.88,1.11-1.15.68-.35,1.39-.53,2.13-.56.34-.02.69.07,1.01.18.17.06.34.21.44.37.53.88.77,1.82.49,2.85-.1.35-.3.61-.6.81-.69.45-1.48.54-2.28.57-.13,0-.29-.06-.42-.12-.41-.17-.8-.38-1.2-.58Z"/>
      <path class="cls-1" d="M60.15,5.46c.42-.48.9-1.04,1.41-1.57.12-.13.34-.18.53-.21.07-.02.19.06.24.12.05.07.06.17.06.27-.89.92-1.54,1.85-2.16,2.78-.08.12-.22.19-.34.26-.21-.06-.3-.13-.3-.2,0-.14,0-.3.06-.43.14-.31.3-.61.51-1.02Z"/>
      <path class="cls-1" d="M40.49,18.44c-.11-.09-.09-.3.02-.37.5-.31,1.03-.55,1.62-.63.18-.02.37.06.55.13.06.03.13.16.13.24,0,.08-.04.21-.12.24-.6.33-1.27.45-1.95.51-.08,0-.17-.08-.25-.12Z"/>
      <path class="cls-1" d="M54.19,15.23c.1-.09.15-.19.23-.24.51-.33,1.07-.41,1.66-.23.18.15.24.23.24.32,0,.08-.05.2-.11.24-.12.07-.25.14-.39.16-.48.08-.95.2-1.43.07-.08-.02-.14-.21-.19-.32Z"/>
      <path class="cls-1" d="M48.78,16.46c.03-.1.03-.29.11-.33.55-.27,1.12-.35,1.72-.15.08.03.15.12.21.19.1.14,0,.45-.15.5-.59.17-1.17.1-1.74-.09-.04,0-.07-.06-.16-.13Z"/>
      <path class="cls-1" d="M58.65,14.74c-.12-.12-.09-.43.06-.51.53-.3,1.09-.37,1.67-.25.14.17.14.25.14.34-.6.25-1.1.39-1.62.53-.06,0-.16-.07-.24-.1Z"/>
      <path class="cls-1" d="M31.88,18.21c-.04-.21-.02-.31,0-.4.58-.23,1.05-.25,1.5-.06.07.03.13.15.14.23,0,.08-.06.21-.12.23-.56.21-1.13.2-1.53,0Z"/>
      <path class="cls-1" d="M31.88,10.87c.28.03.45-.14.58-.34.18.29.37.58.12.93-.16.24-.21.56-.48.72-.07.03-.18.04-.26,0-.08-.04-.15-.12-.18-.2-.04-.09-.04-.19-.02-.29.07-.29.16-.56.24-.83Z"/>
      <path class="cls-1" d="M35.46,18.41c-.03-.09-.09-.23-.09-.36,0-.07.1-.18.18-.21.33-.1.66-.1.99.06.18.09.3.3.26.47-.04.16-.18.21-.33.25-.35.06-.68.02-1.02-.21Z"/>
      <path class="cls-1" d="M47.15,16.37c-.06.09-.08.15-.12.17-.36.17-.74.24-1.13.13-.08-.02-.16-.12-.18-.19-.02-.08.01-.2.07-.25.36-.33.77-.4,1.2-.17.08.04.1.21.14.31Z"/>
      <path class="cls-1" d="M22.7,19.29c0-.12-.05-.29.02-.37.17-.24.52-.32.78-.18.1.05.16.22.19.34.02.06-.08.19-.15.22-.18.06-.37.11-.56.13-.08,0-.16-.07-.28-.13Z"/>
      <path class="cls-1" d="M28.55,17.55c.04.09.14.2.11.25-.06.11-.15.25-.26.29-.12.05-.28.04-.41,0-.13-.03-.27-.09-.26-.29,0-.14.04-.27.18-.35.24-.11.44-.09.65.09Z"/>
      <path class="cls-1" d="M19.53,20.23c-.17.21-.41.23-.64.16-.08-.03-.15-.14-.17-.21-.02-.08.02-.21.07-.26.22-.21.58-.18.76.05.04.05,0,.17-.01.27Z"/>
      <path class="cls-1" d="M32.13,27.36c-.01-.09-.06-.19-.04-.27.08-.17.16-.37.3-.49.48-.42,1.05-.71,1.66-.88.11-.04.31.06.37.15.06.1.03.33-.04.39-.63.45-1.27.89-1.99,1.21-.06.02-.17-.06-.26-.1Z"/>
      <path class="cls-1" d="M77.35,8.06c-.1.19-.27.27-.47.28-.24,0-.48-.18-.53-.41-.03-.14-.02-.3.13-.38.17-.11.34-.18.55-.15.3.06.46.38.32.67Z"/>
    </g>
  </g>
</svg>