<?xml version="1.0" encoding="UTF-8"?>
<svg id="Layer_2" data-name="Layer 2" xmlns="http://www.w3.org/2000/svg" viewBox="0 0 25.32 39.87">
  <defs>
    <style>
      .cls-1 {
        fill: #5c2f1c;
        fill-rule: evenodd;
      }
    </style>
  </defs>
  <g id="_Layer_" data-name="&amp;lt;Layer&amp;gt;">
    <path class="cls-1" d="M13.52,4.91c-.02.1-.06.2-.06.31.15.02.19-.09.19-.18l-.12-.13ZM10.62,11.94c-.1.3-.14.55.04.72.13.13.36.03.57-.17.54-.51.9-1.15,1.29-1.75.47-.72,1.25-1.15,1.66-1.91.05-.08.06-.23.02-.3-.06-.08-.19-.15-.3-.16-.39-.03-.7.2-.99.42-1.07.85-1.86,1.91-2.29,3.16h0ZM15.69,14.35c.3.25.65.3,1,.21.59-.16,1.11-.47,1.59-.84.69-.52,1.13-1.23,1.36-2.06.09-.33-.03-1.04-.18-1.01-.23.05-.48.11-.64.25-.99.88-1.96,1.78-2.77,2.83-.15.19-.24.41-.37.62h0ZM10.16,19.51c.06.51.1,1.23.21,1.96.09.6.3,1.18.61,1.71.15.24.36.3.62.27.25-.03.49-.11.58-.37.08-.21.06-.46.08-.69-.46-.6-.64-1.29-.62-2.05.02-.85.02-1.71-.19-2.55-.03-.11-.1-.22-.18-.31-.07-.08-.16-.16-.26-.2-.29-.14-.46-.05-.56.22-.24.58-.25,1.18-.29,2.02h0ZM17.39,9.38c.02.12.07.26.02.34-.91,1.5-2.16,2.74-4.05,4-.09.06-.25.06-.35.02-.26-.1-.35-.3-.29-.56.02-.11.05-.24.1-.34.12-.21.24-.42.38-.61.58-.78,1.29-1.44,2.02-2.07.55-.47,1.19-.81,1.9-1,.06-.02.17.14.25.21h0ZM8.68,21.17c-.05-.83-.08-1.44-.12-2.06-.02-.37-.04-.74-.06-1.1-.02-.34-.15-.47-.4-.38-.11.04-.25.09-.31.18-.7.91-.91,1.98-.98,3.09.22.96.42,1.93,1.07,2.71.15.18.35.33.55.45.09.06.25.05.36.01.1-.04.25-.16.25-.23-.11-.96-.25-1.93-.35-2.67h0ZM19.06,28.6c.26,1.09.59,2.52.93,3.94.08.31.26.41.49.33.11-.05.24-.08.33-.15.37-.35.56-.8.56-1.3.03-.85-.06-1.69.12-2.54.07-.34-.02-.72-.08-1.08-.13-.75-.53-1.35-1.06-1.89-.62-.61-1.32-1.08-2.2-1.2-.08-.01-.2.1-.25.19-.06.09-.1.21-.1.32-.02.52.36.89.52,1.34.2.57.42,1.15.75,2.04h0ZM12.31,30.78c-.03,1.44.03,2.41.27,3.36.08.34.27.67.46.98.29.46,1.32.37,1.56-.1.45-.9.67-1.83.47-2.83-.17-.84-.36-1.67-.58-2.49-.12-.48-.4-.88-.71-1.26-.19-.22-.39-.26-.64-.18-.25.07-.41.2-.5.46-.3.82-.31,1.67-.32,2.06h0ZM10.65,30c.04-.73.1-1.35.11-1.96,0-.29-.16-.45-.39-.49-.27-.05-.49.02-.66.24-.14.19-.33.37-.41.6-.51,1.39-.98,2.79-1.23,4.25-.06.37-.04.76.24,1.03.55.52.98,1.08,1.1,1.86.04.22.23.42.37.62.16.22.76.4.97.26.23-.15.28-.37.29-.64.04-.87-.2-1.7-.3-2.56-.13-1.11-.2-2.2-.09-3.2h0ZM14.64,25.91c.12,0,.24-.02.37-.02.69-.02,1.15.38,1.5.91.19.3.33.65.46,1,.62,1.62.94,3.31,1.31,4.99.14.6.15,1.21.05,1.83-.13.79-1.19,1.16-1.7.67-.08-.08-.23-.19-.23-.27.05-.49.13-.97.21-1.45.16-.86.14-1.71-.07-2.56-.29-1.19-.64-2.37-1.26-3.45-.18-.32-.34-.66-.46-1-.08-.22-.06-.48-.1-.72-.27-.21-.17-.06-.08.08h0ZM5.75,16.97c-.82.13-1.28.67-1.49,1.42-.23.82-.19,1.69-.48,2.51-.33.91.15,1.66.77,2.29.05.05.23,0,.33-.04.36-.17.61-.5.52-.86-.3-1.1-.26-2.17.07-3.25.14-.46.24-.95.3-1.43.03-.23-.06-.48-.09-.72.29-.04.38-.1.23-.14-.03-.01-.11.14-.16.22h0ZM10.9,7.22c.36-.06.66-.22.74-.6.1-.46.16-.93.02-1.38-.06-.21-.22-.39-.33-.58-.25.25-.38.56-.38.9,0,.58.02,1.17.03,1.75-.21.04-.44.08-.66.12-.1.02-.22.04-.31.09.12.33.32.35.55.23.21-.1.33-.27.35-.53h0ZM16.41,39.12c-2.25.27-4.62.15-6.94.59-.72.14-1.47.23-2.21.06-.25-.06-.41-.25-.54-.45-.16-.24-.15-.45-.02-.7.24-.43.76-.64.9-1.15.07-.25-.01-.42-.32-.52-.6-.18-1.21.17-1.81-.08-.29-.12-.36-.28-.33-.59.06-.54.49-.83.73-1.24.19-.32.33-.66.16-1.05-.14-.34-.22-.71-.39-1.03-.13-.22-.4-.27-.64-.26-.64.03-1.13.51-1.73.62-.26.04-.49-.06-.68-.23-.18-.16-.21-.4-.05-.64.13-.2.28-.41.47-.55.3-.21.62-.41.96-.55.45-.18.94-.31,1.41-.46.37-.12.65-.38.82-.71.36-.64.64-1.33.97-1.99.2-.4-.14-1.13-.49-1.26-.12-.04-.23-.1-.34-.13-.47-.16-.96-.27-1.4-.47-.49-.22-.95-.17-1.44-.08-.41.08-.76-.11-.92-.43-.06-.11-.13-.22-.13-.34,0-1.63-.01-1.62-.37-2.49-.21-.51-.56-.77-1.09-.84-.24-.04-.46-.15-.69-.23-.29-.1-.35-.7-.16-.95.32-.4.79-.6,1.16-.92.39-.34.6-.76.7-1.26.1-.5,0-.98-.07-1.46-.08-.53.19-.94.7-1.15.58-.23,1.13-.5,1.65-.85.36-.25.49-.73.29-1.3-.08-.25-.14-.47-.1-.71.05-.33.59-.62.86-.45.42.25.7.68,1.17.88.37.16,1.14-.14,1.24-.52.07-.24.13-.48.15-.73.04-.52.24-.95.6-1.31.26-.25.55-.49.7-.84.12-.26.1-.48-.08-.7-.48-.58-1.07-1.02-1.72-1.39-.31-.18-.72-.19-1.06-.33-.22-.08-.42-.24-.61-.39-.31-.25-.33-.77-.06-.96.31-.2.63-.39.93-.6.31-.23.52-.55.57-.92.07-.49.11-.98.08-1.47-.04-.79.24-1.44.67-2.07.35-.51.66-1.05,1.2-1.39C9.28.02,9.56,0,9.79,0c.08,0,.17.15.22.26.11.21.18.46.3.67.05.1.19.16.3.19.86.26,1.7.12,2.53-.18.49-.18.98.06,1.2.52.32.67.65,1.34.95,2.01.3.68.35,1.44.73,2.09.14.24.29.42.49.4.09,0,.18-.16.23-.27.1-.23.15-.47.25-.7.11-.24.32-.35.57-.36.26,0,.49.1.61.35.1.22.21.46.21.69.03.57.33.9.79,1.15.34.18.71.2,1.07.06.34-.13.66-.3,1.03-.36.34-.05.75.33.66.66-.06.23-.16.46-.22.7-.1.35-.24.71-.25,1.07-.03.74.01,1.48.04,2.22.03.9.23,1.09.99,1.32.23.07.46.13.69.22.27.11.33.32.26.61-.06.23-.15.48-.41.56-.35.11-.72.22-1.08.21-1.13-.06-1.85.55-2.43,1.41-.15.23-.08.36.19.56.64.46.66.53.51.8-.2.33-.46.57-.85.65-.12.02-.24.06-.36.06-.37-.02-.74-.04-1.1-.13-.59-.14-1.11-.53-1.75-.53-.27,0-.8.33-.83.6-.08.74-.12,1.48-.23,2.21-.12.73-.35,1.44-.31,2.19.02.37.28.7.65.77.64.13,1.24.05,1.77-.33.6-.44,1.15-.94,1.74-1.38.19-.14.43-.22.67-.29.25-.07.5,0,.67.2.15.18.17.43.03.66-.12.21-.3.39-.46.58-.31.38-.33.63-.08.96.25.33.6.43.98.4.64-.05,1.1-.54,1.71-.66.37-.07.73-.1,1.09.04.25.1.41.26.47.49.08.27.04.52-.19.67-.3.21-.64.37-.94.57-.1.06-.15.19-.22.29-.21.31-.02.84.32.87.49.04.98.04,1.47.1.29.04.43.23.45.47,0,.12.02.28-.04.37-.31.37-.68.71-.96,1.11-.15.21-.1.5.06.68.25.29.64.33.96.53.21.13.34.35.38.59.05.24-.08.45-.34.56-.22.1-.47.16-.7.25-.35.14-.62.38-.78.74-.16.34-.34.66-.47,1.01-.32.95-.83,1.79-1.4,2.61-.43.61-.83,1.22-1.23,1.84-.15.24-.16.49-.02.64.08.08.23.13.33.12.74-.09,1.47-.2,2.2-.28.25-.02.51-.02.73.06.22.07.42.23.59.4.24.21.2.6-.08,1-.07.1-.17.2-.27.25-.11.05-.25.08-.37.08-1.24-.09-2.44.29-3.69.24-.62-.02-1.23.03-1.85.03-.49,0-.99-.03-1.56-.05Z"/>
  </g>
</svg>