<?xml version="1.0" encoding="UTF-8"?>
<svg id="Layer_2" data-name="Layer 2" xmlns="http://www.w3.org/2000/svg" viewBox="0 0 44.21 28.76">
  <defs>
    <style>
      .cls-1 {
        fill: #5c2f1c;
        fill-rule: evenodd;
      }
    </style>
  </defs>
  <g id="_Layer_" data-name="&amp;lt;Layer&amp;gt;">
    <path class="cls-1" d="M21.27,4.64c1.29-.1,1.59-.19,2.89-.85.23-.12.28-.33.24-.59-.05-.35-.13-.67-.45-.87-.19-.11-.4-.25-.6-.27-.94-.08-1.8.16-2.51.8-.27.24-.34.57-.38.92-.05.45.38.9.81.86h0ZM27.05,24.15c-.03-.1-.05-.22-.1-.31-.43-.77-1.19-.93-1.97-1.07-.18-.03-.79.28-.85.45-.27.72-.67,1.4-.86,2.16-.06.24.13.73.35.88.29.2.58.29.92.27,1.23-.1,2.2-1.22,2.52-2.38h0ZM9.93,27.09c.22-.05.45-.06.66-.14.88-.35,1.54-.94,1.91-1.83.19-.46.11-.89-.17-1.27-.27-.37-.64-.63-1.1-.75-1.18-.31-2.33.12-2.95,1.12-.18.29-.31.61-.48.9-.19.33-.16.67.08.94.53.61,1.19,1.04,2.05,1.03h0ZM21.13,23.54c-.35.12-.68.22-1,.35-1.39.54-2.86.74-4.34.74-.59,0-1.12-.18-1.41-.76-.6-1.18-1.6-1.88-2.79-2.36-.65-.26-1.3-.4-1.98-.16-.32.12-.64.26-.98.3-1.17.16-2.16.63-2.98,1.5-.15.16-.33.31-.53.43-.19.11-.41.21-.62.25-.68.14-1.35.09-2.01-.16-.1-.04-.17-.15-.23-.25-.5-.85-.49-1.71-.02-2.56.18-.32.54-.5.85-.5,1.61.02,3.15-.32,4.7-.71.46-.12.78-.43,1.03-.82.32-.48.57-.98.75-1.52.14-.43.32-.86.53-1.25.29-.52.76-.85,1.35-.96.55-.11,1.13-.09,1.69-.19.33-.05.66-.17.95-.35.29-.17.57-.4.76-.66.25-.37.43-.8.6-1.22.38-.92,1.14-1.38,2.01-1.71.28-.11.8.08.84.34.14.79.31,1.55.8,2.21.37.49.85.73,1.45.75.47.02.91-.1,1.29-.37.84-.6,1.58-1.29,2.13-2.16.12-.19.28-.36.42-.53.15-.17.35-.28.59-.31,1.03-.1,2.04,0,3.03.26.18.05.35.28.45.47.1.19.13.43.13.65,0,1.03-.06,2.05-.04,3.07.02,1.14.1,2.26.57,3.33.24.52.29,1.1.29,1.67,0,.79-.04,1.58-.08,2.38-.02.25-.14.45-.3.5-.07.02-.23-.08-.28-.17-.23-.41-.58-.69-.99-.9-.92-.46-1.89-.76-2.89-1.02-.68-.18-1.32,0-1.91.45-.72.56-1.23,1.33-1.85,1.95h0ZM14.03,26.69c-.57.43-1.2.93-1.84,1.4-.77.56-1.65.75-2.59.64-.57-.06-1.11-.2-1.62-.48-.5-.28-1-.55-1.42-.95-.33-.32-.65-.64-.96-.96-.25-.26-.54-.43-.87-.52-1.33-.34-2.67-.59-4.03-.69-.29-.02-.62-.47-.58-.74.02-.11.02-.23.05-.33.12-.44.26-.89.06-1.33-.33-.79-.3-1.55.06-2.32.09-.21.18-.42.25-.64.25-.72.84-1.05,1.51-1.25.33-.1.67-.11,1.01-.14.91-.06,1.82-.09,2.72-.17.33-.02.66-.14.99-.25.34-.12.7-.71.72-1.08.04-1.01-.42-1.75-1.15-2.35-.17-.13-.44-.2-.64-.17-.45.05-.89.22-1.34.28-.47.06-.89-.1-1.19-.5-.14-.18-.21-.39-.33-.59-.2-.37.03-1.01.31-1.25.44-.37.95-.62,1.5-.79.59-.17.98-.55,1.25-1.07.1-.21.21-.41.34-.59.41-.56.9-1.04,1.55-1.3.63-.25,1.27-.49,1.92-.72.68-.25,5.84-1.72,6.54-1.91.65-.18,1.31-.38,1.95-.59.31-.1.58-.49.56-.78-.04-.34-.08-.68-.11-1.01-.02-.23-.05-.46-.06-.68-.03-.51.37-1.19.8-1.42C21.01.56,22.72-.03,24.59,0c.33,0,.65.17.88.45.13.18.29.36.36.57.15.43.25.88.38,1.31.21.61.68.95,1.27.92.57-.04,1.17,0,1.7-.16,1.65-.5,3.38-.53,5.02-.99.11-.03.23-.04.34-.06,1.23-.21,2.49-.22,3.73-.43,1.23-.19,2.45-.49,3.69-.68.34-.06,1.03.36,1.08.69.04.22.13.44.17.66.14.78.44,1.54.47,2.34.02.46.28.85.45,1.27.1.22.12.44,0,.65-.21.4-.41.81-.67,1.19-.26.39-.64.68-1.1.77-1.23.23-2.46.46-3.63.92-.42.16-.86.29-1.27.49-1.74.86-3.53,1.58-5.36,2.22-.21.07-.41.19-.6.32-.27.2-.51.45-.58.81-.16.79-.11,1.59,0,2.38.06.44.21.9.44,1.28.6.99.91,2.08,1.2,3.18.29,1.1.39,2.24.18,3.38-.1.6-.41,1.07-.9,1.38-.49.3-1,.56-1.51.77-1.46.61-2.71,1.18-3.66,1.77-.59.37-1.23.57-1.91.72-.81.19-1.58-.02-2.31-.35-.2-.09-.39-.25-.53-.42-.25-.37-.47-.78-.7-1.17-.31-.53-.57-.68-1.09-.56-1,.22-2.01.36-3.04.43-1.03.08-2.03.27-3.08.61Z"/>
  </g>
</svg>