<?xml version="1.0" encoding="UTF-8"?>
<svg id="Layer_2" data-name="Layer 2" xmlns="http://www.w3.org/2000/svg" viewBox="0 0 291.4 81.21">
  <defs>
    <style>
      .cls-1 {
        fill: #ecc782;
      }

      .cls-1, .cls-2 {
        fill-rule: evenodd;
      }

      .cls-2 {
        fill: #5c2f1c;
      }
    </style>
  </defs>
  <g id="_Layer_" data-name="&amp;lt;Layer&amp;gt;">
    <g>
      <g>
        <path class="cls-1" d="M31.19,18.49c.13.56.26,1.14.42,1.7.04.13.17.25.29.41.26-.03.53-.08.79-.06,1.28.05,2.53-.29,3.81-.23,1-.18,2-.25,3.01-.28.59-.02,1.16-.06,1.75-.02.5.04.96-.08,1.27-.53.19-.25.45-.44.71-.62,1.41-1.05,2.92-1.94,4.46-2.79.51-.29,1.05-.51,1.63-.61.57-.1.92.1.95.76.02.27-.02.53-.14.77-.1.18-.22.36-.33.54l-1.63,2.75c-.1.18-.17.37-.1.61.33.28.75.37,1.31.43.66-.31,1.52-.37,2.32-.67.65-.24,1.33-.38,2.04-.3.31.02.63-.03.95-.08.37-.04.72-.14,1.09-.18.55-.06,1.03.55.84,1.07-.09.25-.19.5-.33.73-.37.58-.77,1.14-1.26,1.65-.14.14-.24.33-.33.46.06.29.19.45.37.58l1.97,1.34c.31.21.6.45.79.79.75,1.28,1.56,2.52,2.2,3.88.47.98.77,1.97.69,3.06-.06.77.1,1.49.55,2.12.05.08.05.21.06.29-.42.96-.4.96-.5,2.15-.07.79-.16,1.58-.3,2.36-.14.68-.35,1.33-.53,2-.71,1.19-1.44,2.36-2.14,3.56-.33.56-.64,1.1-1.07,1.58-.29.33-.49.7-.51,1.14-.02.4-.19.72-.43,1.01l-.48.58-.6,2.39.14,2.36c.09,1.38.2,2.75.44,4.11.16.92.58,1.71.9,2.55.19.5.6.88.95,1.27.1.13.23.23.31.37.33.57.84.96,1.37,1.31.8.54,1.6,1.06,2.52,1.34.07.02.19-.05.26-.11-.09-.59-.22-1.06-.4-1.5-.19-.49-.41-.96-.61-1.41l.13-.84c.02-.1.03-.21.07-.31.18-.44.56-.84,1.11-.5.22.13.45.29.87.2.4-.2.92-.46,1.44-.74.18-.1.36-.24.49-.4.1-.1.1-.29.15-.43l-.31-.57c-.18-.32-.38-.65-.56-.97-.16-.31-.12-.62.05-.92.09-.13.2-.24.32-.35.13-.14.44-.17.59-.06.18.12.36.24.53.37.28.25.55.5.84.72.31.22.64.38,1.04.29,1.15-1.24,1.32-1.54,1.98-3.58,0-.43-.14-.83-.34-1.19-.21-.37-.45-.73-.64-1.11-.14-.28-.25-.59-.32-.9-.06-.27.06-.51.29-.68.28-.21.6-.26.9-.11.61.31,1.18.72,1.84.95l3.31,1.18c.65.22,1.34.31,2.04.28l.96-.07c.76-.36,1.63-.49,2.33-1.18.41-.58.78-1.28,1.22-1.95.53-.79.92-1.66,1.36-2.53.31-.62.64-1.21,1.08-1.76.4-.49.77-1.02,1.06-1.58.39-.79.96-1.41,1.6-1.96.49-.41.98-.82,1.44-1.26.59-.56,1.27-.98,1.96-1.37.69-.39,1.43-.7,2.25-.81,1.68-.23,3.37-.39,5.08-.28.58.04,1.15.15,1.71.33.5.18,1.01.36,1.62.39.35-.06.77-.15,1.19-.2.37-.04.74-.09,1.11-.08.39,0,.72.18.96.49.12.16.09.47-.09.55-.23.11-.48.21-.77.33.1.13.18.28.29.33.68.32,1.4.48,2.12.68,1.54.41,3.07.84,4.6,1.29.66.2,1.32.44,2.01.48.53.03,1.06-.04,1.67-.07.53.37,1.19.48,1.9.46.85-.02,1.7.03,2.55.09,1.33.08,2.65.26,3.97-.05,1.07.02,2.1-.26,3.14-.43.84-.14,1.5-.54,2.08-1.1.88-.86,1.01-1.74.45-2.75-.38-.69-.76-1.39-1.13-2.09-.1-.19-.15-.4-.19-.6-.04-.21.02-.41.17-.59.31-.37.8-.48,1.14-.21.33.25.65.55.97.83l1.4,1.3c.21.18.45.29.76.25.5-.45,1.13-.75,1.74-1.07.57-.3,1.07-.68,1.44-1.23l-.1-.64c-.04-.3.15-.49.48-.44l.46.13c.28.07.53.02.75-.16.17-.14.33-.29.46-.45.19-.21.25-.48.17-.74-.08-.25-.21-.49-.32-.73-.13-.28-.28-.57-.39-.87-.19-.55-.37-1.11-.58-1.72.04-.36.03-.8.13-1.21.13-.52.55-.79,1.09-.65.32.08.59.23.8.48.61.68,1.28,1.28,2.01,1.81.17.14.39.17.6.16.37-.02.73-.12,1.05-.33.35-.24.68-.5,1.05-.72.61-.37,1.04-.9,1.49-1.43l-.59-.93c.04-.14.06-.25.11-.34.08-.14.21-.24.39-.21.25.06.51.15.77.2.09,0,.18-.07.33-.14l.46-1.43c-.11-.89-.36-1.73-.2-2.58-.37-.52-.49-1.07-.59-1.66-.1-.74-.16-1.47-.1-2.21.03-.45.63-.71.99-.45.13.1.27.18.36.3.49.65.85,1.35.95,2.17l.1.71c.33.52.69.92,1.11,1.23.41.32.9.33,1.32.02.25-.2.45-.46.72-.63.57-.35.9-.88,1.19-1.46.21-.43.44-.85.62-1.29.25-.6.37-1.23.14-1.86-.1-.31-.23-.6-.21-.89l.17-.96-.27-.62c-.5-1.07-.75-2.2-.62-3.41.09-.89.1-1.8.1-2.71,0-.84-.09-1.69-.12-2.54,0-.28.13-.51.37-.66.1-.06.19-.09.28-.14.63.02,1,.33,1.11.94.06.37.1.74.17,1.1.05.26.1.53.2.76.33.79.71,1.55,1.01,2.35.31.81.8,1.51,1.39,2.12.85.88,1.68,1.77,2.59,2.55.53.19,1.01.46,1.53.54.86.12,1.64.41,2.41.78.48.23,1,.39,1.48.6.75.33,1.54.43,2.33.41l3.19-.09.47-.04,2.21-.33,2.36-.38c.26-.04.53-.1.72-.33.06-.24.12-.51.21-.75.11-.33.35-.53.68-.61.47-.11.94-.14,1.42-.08.79.11,1.58.21,2.47.33.35-.12.82-.25,1.25-.45.72-.33,1.42-.71,2.13-1.07.29-.15.49-.41.6-.72.13-.37.19-.73.08-1.1-.17-.56-.22-1.15-.52-1.67-.05-.09-.06-.21-.07-.3-.05-.26.22-.7.49-.75.21-.05.42-.09.63-.06,1.27.06,2.53.24,3.8.33.5.04.96,0,1.39-.21,1.15-.56,2.34-1,3.58-1.31.41-.1.83-.21,1.21-.39.7-.3,1.44-.33,2.18-.43,1.38-.18,2.75-.16,4.12.14.15.02.32.06.47.04.21-.02.45-.04.6-.16.99-.79,2.08-1.5,2.63-2.71.08-.18.25-.38.42-.45.61-.24,1.08-.68,1.64-.99.47-.25.92-.53,1.46-.64.8-.16,1.16-.66,1.15-1.48,0-.25.09-.53.13-.78.02-.1.07-.21.1-.29.12-.31.64-.57.94-.41.87.41,1.85.55,2.63,1.14.09.06.19.11.29.13,1.1.22,2.12.68,3.26.75.94.06,1.89.25,2.79.59.5.19,1.01.34,1.52.49.86.25,1.71.58,2.57.56.48-.22.73-.54.84-.97.07-.26.11-.53.18-.78.08-.25.18-.5.3-.73.28-.56,1.13-.62,1.46-.1.06.1.13.17.17.27.36,1.18,1.17,1.98,2.11,2.66,1-.07,1.96-.04,2.9-.2,1.23-.21,2.4-.48,3.36-1.24l1.5-.3c.91.03,1.85.2,2.75.51.36.12.72.2,1.09.26,1.16.2,2.25.6,3.34,1.03.9.34,1.73.81,2.59,1.21.49.24.92.52,1.29.92.29.3.64.56.93.87.18.19.32.42.46.64.09.14.02.46-.08.6-.16.22-.39.35-.62.49-.18.1-.37.21-.41.45.07.27.3.43.47.62.91,1.01,1.46,2.23,1.93,3.47.28.75.39,1.54.45,2.34.02.26-.02.53-.06.79-.05.36-.29.56-.62.64-.2.04-.41.03-.6.04-.71-.59-1.11-1.35-1.6-1.98-1.05-.8-1.98-1.68-3.17-2.35l-1.15-.19c-.17.3-.06.56.03.8.26.69.57,1.38.83,2.08.2.54.4,1.1.54,1.66.09.34-.14.68-.51.61-.31-.06-.65,0-.99-.23-.14-.21-.29-.49-.5-.72-.56-.61-2.4-1.64-3.3-1.85-.15-.03-.29.06-.32.23.26.41.6.77.77,1.2.34.91.82,1.73,1.31,2.55.3.51.53,1.03.67,1.62.19.77.44,1.52.67,2.29.05.14.18.25.25.36,1.15-.05,1.15-.04,2.36.27.51.14,1.03.25,1.56.33.2.03.43,0,.62-.07.13-.04.25-.19.31-.32.06-.14.06-.32.07-.48.05-.8.08-1.59.16-2.38.03-.37.16-.72.27-1.07.1-.29.46-.49.77-.46.16.02.33.02.47.08.91.44,1.84.83,2.52,1.64.24.27.42.62.92.77.27.06.64,0,1-.11.58-.2,1.15-.15,1.72.03.51.16,1.02.32,1.5.56,1.12.55,2.05,1.31,2.58,2.49.19.45.41.88.64,1.29.3.53.37,1.11.42,1.69.06.68-.17,1.27-.67,1.7-.64.57-1.29,1.12-2.07,1.5l-2.08.97c0,.64-.14,1.32-.27,1.99-.14.73-.08,1.49-.34,2.14l.24,1.14c-.12.14-.2.29-.32.38-.51.37-.76.88-.86,1.47-.05.33-.13.62-.28.91-.41.75-.8,1.5-.92,2.36-.02.21-.13.4-.25.58l-.92,1.48c-.25.41-.52.8-.64,1.27l.04.33c.08.41-.11.72-.43.96-.12.1-.26.17-.41.25-.44.2-.8.52-1.12.88-.56.62-1.19,1.19-1.56,1.99-.45.92-1.18,1.62-1.87,2.37-1.26,1.34-2.74,2.35-4.4,3.08-1.31.58-2.62,1.19-3.86,1.9-.92.54-1.89.98-2.96,1.14-.1.02-.18.1-.34.18l-.65,1.02c.02.33.03.65.02.97,0,.33-.14.65-.43.8-.64.34-1.04.89-1.37,1.51l-1.12,2.12c-.27.52-.57,1.02-.96,1.46-.35.41-.68.83-.99,1.26-.49.71-.97,1.41-1.55,2.03l-.37.15-6.26,1.33-6.07-1.71-9.3-3.24-5.7.96-7.78,3.04-10.62.38-6.45-3.05-6.64-1.71-10.82,3.8-7.78,2.09-8.35-2.28-7.58-3.04-6.45,1.72-10.24,2.85-4.93.18-5.5-2.41c-.03-.53-.13-1.04-.26-1.55-.06-.24-.2-.52-.38-.68-.92-.81-1.74-1.72-2.71-2.48-1.07-.85-2.31-1.52-3.22-2.52-.41-.14-.75-.3-1.11-.37-.9-.18-1.72-.54-2.42-.98q-1.69-.07-3.3.68c-.49.22-.52.25-1.25,1.17,0,.25.04.53,0,.78-.02.28-.16.52-.45.6l-1.36.38c-.32.4-.6.79-.92,1.15-.25.29-.44.59-.49.99-.04.26-.21.48-.41.67-.26.25-.53.52-.77.8-.1.12-.15.27-.21.41.09.19.21.27.28.24.28-.14.54-.33.82-.46.33-.16.78.2.74.58-.03.21-.13.41-.39.55l-1.03.14c-.56.08-1,.33-1.3.84l-.49.82-.38.68-6.64.32-6.47-1.7-8.17-3.41-8.52,2.72-7.04,1.94c.05-.32.06-.65.02-1.02-.29-.72-.58-1.52-.7-2.36-.06-.44-.25-.82-.56-1.12-.19-.19-.39-.38-.44-.65-.12-.6-.49-1.05-.78-1.55-.06-.1-.08-.2-.13-.33l.17-1.05c-.45-1.14-.47-1.25-.47-2.33,0-.75.06-1.5,0-2.24-.06-.76.02-1.48.17-2.2.13-.68.25-1.37.41-2.04.33-1.28.68-2.57,1.33-3.74.34-.6.6-1.25.78-1.93.26-1.03.72-2,1.3-2.9.37-.58.67-1.2.93-1.84.22-.54.39-1.11.52-1.67.06-.29-.03-.63-.05-.95.25-.36.61-.63.72-1.06.11-.41.33-.83.31-1.23,0-.6.19-1.15.31-1.77-.1-.69-.17-1.43.13-2.18-.32-.63-.41-1.3-.36-2.01,0-.17,0-.33,0-.48-.04-.33-.15-.62-.45-.81-.17-.12-.36-.24-.37-.54l.27-.85c-.02-.19-.58-1.24-.58-1.24-.43-.39-.83-.75-1.21-1.11-.83-.83-1.81-1.48-2.83-2.04-.47-.26-.94-.49-1.37-.83-.56-.43-1.2-.65-1.89-.8l-2.51-.5c-.25-.06-.52-.09-.79-.1-.5,0-1.34.2-2.15.5-.06.08-.15.16-.19.25-.19.56-.23,1.14-.17,1.73.07.72.35,1.33.88,1.83l.59.53c.67.55,1.42.94,2.2,1.3.28.14.57.28.85.44.29.18.38.71.16.99-.1.14-.2.27-.33.33-.28.15-.6.25-.87.39-1.03.57-2.1,1.03-3.23,1.35-.37.27-.84.09-1.23.29-.58.3-1.23.34-1.86.36l-1.91.02c-1.33-.02-2.66-.12-3.98-.09-.47,0-.95-.13-1.42-.21-.7-.4-1.52-.48-2.25-.8-.88-.38-1.79-.67-2.69-.99-.65-.24-1.3-.49-1.98-.59-.49-.07-.92-.26-1.34-.49-1.86-1.03-3.77-1.97-5.53-3.18-.35-.25-.75-.42-1.11-.64-.79-.45-1.54-.95-2.1-1.7-.4-.53-.9-.88-1.52-1.11-.96-.33-1.82-.88-2.75-1.28-.39-.17-.74-.41-1.02-.74-.3-.39-.71-.63-1.15-.84-.33-.17-.67-.32-1-.5-.69-.39-1.35-.84-1.89-1.43-.21-.23-.18-.64.06-.86.28-.27.73-.37,1.03-.21.19.1.37.2.54.33.39.29.81.49,1.29.61.78.17,1.57.35,2.3.65,1.04.45,2.13.62,3.24.76.75.1,1.5.13,2.22.25.48.1.95.11,1.42.11,1.17,0,2.34-.02,3.49-.25.26-.05.53-.11.79-.1.65.08,1.27-.06,1.9-.18,1.4-.28,2.81-.55,4.16-1.06.94-.36,1.85-.84,2.85-1.03.67-.33,1.35-.63,2-.98.42-.22.82-.49,1.22-.76.53-.36,1.05-.72,1.56-1.09.34-.25.65-.54.94-.78.41-.12.69,0,.88.29.21.34.21.71-.02,1.05-.15.21-.34.41-.49.63-.36.56-.51,1.17-.36,1.83h0ZM231.28,30.9v-1.59c.02-.48.25-.8.72-.96.64.05,1.22.33,1.81.57.25.1.51.14.76.21-.12-.76-.57-1.15-.97-1.56-.26-.27-.47-.57-.57-.95-.09-.36.1-.78.43-.94.39-.19.82-.29,1.23-.12.88.38,1.82.58,2.71.92l.9.3c.9.32,1.78.25,2.67-.04.33-.1.51-.36.57-.7.07-.31.06-.63-.03-.94-.06-.23-.22-.36-.42-.45-.09-.05-.2-.08-.3-.08-.67,0-1.1-.33-1.34-.94-.32-.8-.79-1.5-1.5-2.02-.17-.12-.32-.32-.37-.51-.16-.6-.64-.96-1.04-1.38-.33-.34-.64-.71-1.12-.86-.16.84-.08,1.51.06,2.18.08.33.04.64-.1.93-.06.13-.22.21-.32.3-.75-.23-1.44-.47-2.05-.95-.33-.26-.74-.41-1.18-.45-.11.41-.05.61.05.8.53.93.87,1.93,1.15,2.95.12.45.02.84-.41,1.18l-.94.1c-.64-.07-1.07-.48-1.62-.43l-.18.27c-.14.19-.3.28-.37.19-.06-.08-.07-.18-.09-.28,0-.1.03-.21.05-.31-.05-.23-.22-.35-.41-.46-.42-.22-.86-.41-1.35-.31-.05.1-.14.21-.13.28.23.94.25,1.89.25,2.85,0,.49-.23.8-.64,1.01l-.19.09c-.49.09-1.01-.05-1.54-.13-.36-.06-.73-.1-1.09-.1-.06,0-.17.14-.17.21,0,.16.04.32.09.47.1.25.24.48.32.73.21.66.1,1.27-.36,1.78-.22.25-.49.42-.82.45l-.95.02c-.13.13-.29.22-.33.35-.36,1.07-.69,2.12-1.03,3.19-.06.21-.07.41-.1.61-.03.19.21.46.36.44l1.45-.23.79-.76c.61-.21,1.25-.29,1.87-.42.84-.18,1.64-.43,2.36-.94.29-.52.45-1.07.34-1.67-.05-.26-.02-.53,0-.8.03-.28.2-.49.49-.57.35-.11.72-.16,1.09-.08.36.1.73.13,1.03.17.35-.16.45-.39.45-.67Z"/>
        <g>
          <path class="cls-2" d="M135.02,39.83c.14-.04.07-.02,0,0h0ZM40.3,21.49c-.11.09-.17.09-.18,0h.18ZM229.99,33.35c.06-.07.12-.18.18-.19.09-.02.18.05.26.09-.06.06-.11.17-.19.18-.07.03-.17-.06-.25-.08h0ZM215.96,65.12c.13.3.05.41-.11.43-.08-.17-.05-.26,0-.35l.11-.08ZM97.89,48.48c-.06-.1-.06-.21.05-.25.08-.05.21-.06.27-.02.07.04.14.16.13.23-.02.06-.13.15-.21.16-.08.02-.17-.06-.25-.11h0ZM209.4,2c.18-.25.43-.25.68-.16-.25.41-.48.37-.68.16h0ZM93.57,50.92c.02-.14.02-.3.06-.45.03-.09.11-.16.18-.22.26-.02.33.04.32.16-.02.26-.14.48-.35.64l-.21-.13ZM115.99,56.95q-.37.23-1-.14c.37-.19.71-.16,1,.14h0ZM39.42,21.63c-.15.1-.25.21-.37.23-.28.03-.57.2-.84-.06.34-.31.73-.31,1.2-.17h0ZM152.23,20.81q.49.51.61,1.02c-.7-.29-.73-.36-.61-1.02h0ZM136.47,35.96c.25-.21.37-.25.49-.14.2.17.37.36.36.64,0,.07-.07.15-.12.22-.36-.14-.63-.34-.73-.72h0ZM95.68,51.7c.16-.39.48-.54.85-.61.07-.02.22.06.23.11.03.08,0,.24-.07.29-.3.23-.61.41-1.01.21h0ZM118.76,62.93c.29.29.48.62.6,1-.06.23-.14.25-.26.21-.25-.08-.45-.24-.54-.49.04-.24-.06-.52.2-.72h0ZM158.12,54.9c-.15.44-.45.6-.82.6-.09,0-.21-.05-.28-.1-.05-.05-.04-.16-.07-.29.25-.06.49-.12.73-.18.15-.03.3-.03.44-.04h0ZM243.85,25.33c-.14.17-.32.27-.55.24-.14,0-.29-.15-.29-.3,0-.27.27-.49.53-.4.22.07.33.22.31.46h0ZM93.72,48.65c.06-.27.15-.44.27-.45.27-.04.52.08.66.33.05.08.02.19-.1.25-.18.1-.4.14-.61.07-.09-.03-.16-.13-.23-.19h0ZM230.57,58.89c.12.03.18.1.18.21,0,.28-.18.47-.39.61-.06.05-.21.05-.27,0-.06-.04-.13-.18-.12-.25.07-.35.29-.55.6-.59h0ZM117.96,62.43c-.06.35-.19.49-.45.47-.38-.03-.65-.25-.62-.55,0-.07.12-.18.2-.19.33-.06.6.11.87.27h0ZM78.51,64.39c-.36.06-.72.09-1.06-.09-.07-.04-.11-.14-.14-.21.26-.31.5-.43.77-.33.18.07.37.18.54.28.02.22-.05.29-.11.35h0ZM96.35,53.86c-.38-.1-.54-.51-.41-.68.19-.26.45-.41.8-.37.21.02.39.29.29.45-.17.27-.34.52-.67.6h0ZM137.48,32.86q-.61-.68-.68-1.43c.61.35.79.53,1,1,.06.13-.03.25-.32.43h0ZM96.91,46.21c-.03.1-.03.23-.1.27-.43.21-.88.31-1.37.17.33-.71.53-.76,1.46-.44h0ZM85.3,46.25c0-.52.31-.88.67-1.19.05-.05.17-.03.25-.03.18.45.13.76-.08,1.01-.21.25-.49.39-.84.21h0ZM79.67,62.69c.17-.29.42-.46.72-.57.1-.05.21-.07.31-.05.16.02.28.13.34.29.05.15,0,.35-.1.43-.21.19-.48.21-.74.2-.21,0-.4-.1-.53-.29h0ZM237.03,29.02c-.37-.12-.52-.33-.6-.58-.06-.2.12-.44.31-.45.37-.02.72.06,1.04.25.05.03.05.17.07.26-.21.25-.5.35-.82.52h0ZM93.18,47.15c-.4.08-.81.13-1.23.02-.14-.02-.29-.18-.27-.33,0-.15.14-.35.26-.36.42-.05.83-.11,1.25-.11.11,0,.25.18.34.3.06.08-.08.37-.18.4l-.17.08ZM88.67,44.65c.26,0,.52-.03.77-.02.1,0,.24.05.27.12.07.12.11.28.11.43,0,.06-.14.18-.22.18-.45.04-.91.07-1.36.07-.06,0-.14-.14-.18-.21-.06-.11-.04-.21.08-.27.17-.1.35-.19.53-.29h0ZM45.71,22.27c-.56.05-1.12.1-1.69.13-.15,0-.31-.03-.46-.04-.12-.02-.25-.26-.17-.37.08-.13.2-.22.29-.3.72,0,1.38.12,2.02.33.1.02.09.18,0,.25h0ZM223.85,69.17c.12.06.17.17.09.26l-.84.88,2.47-.53.37-.15c.58-.61,1.07-1.32,1.55-2.03.3-.43.64-.85.99-1.26.38-.44.68-.94.96-1.46.37-.7.76-1.41,1.12-2.12.33-.62.73-1.17,1.37-1.51.29-.16.42-.47.43-.8,0-.32,0-.64-.02-.97.23-.37.46-.72.65-1.02.16-.09.25-.17.34-.18,1.07-.16,2.04-.6,2.96-1.14,1.24-.72,2.55-1.32,3.86-1.9,1.66-.73,3.14-1.74,4.4-3.08.69-.75,1.42-1.45,1.87-2.37.37-.8,1-1.37,1.56-1.99.32-.37.68-.68,1.12-.88.15-.07.29-.14.41-.25.32-.24.51-.54.43-.96-.02-.1-.02-.21-.04-.33.11-.46.39-.85.64-1.27.3-.49.62-.98.92-1.48.11-.18.22-.37.25-.58.12-.87.52-1.62.92-2.36.15-.29.23-.58.28-.91.1-.6.35-1.11.86-1.47.12-.09.21-.24.32-.38-.07-.36-.15-.72-.24-1.14.26-.65.2-1.42.34-2.14.13-.67.27-1.35.27-1.99.74-.34,1.42-.65,2.08-.97.78-.37,1.43-.92,2.07-1.5.5-.44.73-1.02.67-1.7-.05-.58-.12-1.16-.42-1.69-.24-.41-.45-.84-.64-1.29-.53-1.18-1.46-1.94-2.58-2.49-.47-.24-.99-.4-1.5-.56-.56-.18-1.14-.23-1.73-.03-.35.12-.72.17-.99.11-.49-.17-.68-.5-.92-.77-.68-.81-1.62-1.2-2.52-1.64-.13-.06-.31-.06-.47-.08-.31-.02-.68.17-.77.46-.11.35-.24.71-.27,1.07-.08.79-.11,1.58-.16,2.38,0,.16,0,.33-.07.48-.06.13-.18.28-.31.32-.19.07-.42.1-.62.07-.53-.08-1.05-.18-1.56-.33-1.22-.31-1.21-.32-2.36-.27-.08-.11-.21-.22-.25-.36-.25-.76-.49-1.52-.68-2.29-.14-.58-.37-1.11-.67-1.62-.5-.82-.97-1.64-1.31-2.55-.17-.43-.51-.8-.77-1.2.03-.17.17-.26.32-.23.9.21,2.75,1.24,3.3,1.85.21.23.36.52.5.72.34.24.68.18.98.23.37.06.6-.27.52-.61-.14-.56-.34-1.11-.54-1.66-.26-.7-.56-1.38-.83-2.08-.1-.24-.21-.5-.03-.8.39.06.8.14,1.15.19,1.19.67,2.12,1.54,3.17,2.35.49.64.89,1.39,1.6,1.98.18,0,.4,0,.6-.04.33-.07.57-.28.62-.64.04-.25.08-.53.06-.79-.06-.8-.17-1.59-.45-2.34-.48-1.24-1.03-2.46-1.93-3.47-.17-.19-.4-.35-.47-.62.04-.25.22-.35.41-.45.23-.14.45-.26.62-.49.1-.14.17-.47.07-.6-.14-.22-.27-.45-.45-.64-.29-.31-.64-.56-.93-.87-.37-.41-.8-.68-1.29-.92-.87-.4-1.7-.87-2.59-1.21-1.09-.42-2.18-.83-3.34-1.03-.37-.06-.73-.14-1.09-.26-.91-.31-1.85-.48-2.75-.51-.52.1-.99.2-1.5.3-.96.76-2.13,1.03-3.36,1.24-.95.16-1.9.13-2.91.2-.93-.68-1.74-1.48-2.1-2.66-.03-.1-.11-.18-.17-.27-.34-.52-1.19-.45-1.46.1-.12.23-.22.48-.3.73-.07.25-.11.52-.18.78-.11.43-.37.75-.84.97-.86.02-1.71-.32-2.57-.56-.51-.14-1.02-.29-1.52-.49-.9-.34-1.85-.53-2.79-.59-1.15-.07-2.16-.53-3.26-.75-.1-.02-.2-.07-.29-.13-.78-.59-1.76-.72-2.63-1.14-.3-.15-.82.1-.94.41-.03.09-.08.19-.1.29-.06.25-.14.53-.13.78.02.82-.35,1.32-1.15,1.48-.53.11-.99.38-1.46.64-.56.3-1.03.75-1.64.99-.18.07-.34.27-.42.45-.56,1.22-1.65,1.93-2.63,2.71-.15.13-.4.14-.6.16-.15.02-.32-.02-.47-.04-1.37-.29-2.74-.33-4.12-.14-.74.1-1.48.13-2.18.43-.38.18-.8.29-1.21.39-1.24.31-2.44.75-3.58,1.31-.45.22-.89.25-1.39.21-1.27-.1-2.53-.27-3.8-.33-.21-.02-.42.02-.63.06-.26.05-.53.49-.49.75.02.1.02.21.07.3.29.52.34,1.11.52,1.67.11.37.05.73-.08,1.1-.1.31-.3.57-.6.72-.71.37-1.41.75-2.13,1.07-.43.2-.9.33-1.25.45-.9-.12-1.69-.21-2.47-.33-.49-.06-.95-.03-1.42.08-.33.08-.57.29-.68.61-.1.24-.15.51-.21.75-.2.22-.46.29-.72.33-.79.13-1.58.25-2.36.38-.73.11-1.46.21-2.21.33-.16.02-.31.03-.47.04-1.07.03-2.12.06-3.19.09-.8.02-1.58-.08-2.33-.41-.49-.21-1-.37-1.48-.6-.77-.37-1.55-.66-2.41-.78-.52-.08-1-.35-1.53-.54-.92-.77-1.74-1.67-2.6-2.55-.59-.6-1.07-1.31-1.38-2.12-.3-.8-.68-1.56-1.01-2.35-.1-.24-.15-.5-.2-.76-.07-.36-.11-.73-.17-1.1-.1-.61-.48-.92-1.11-.94-.08.05-.18.08-.28.14-.24.15-.38.38-.37.66.03.85.12,1.7.12,2.54,0,.91-.02,1.81-.1,2.71-.13,1.21.12,2.33.62,3.41.1.19.17.39.27.62-.06.29-.1.6-.17.96-.02.29.12.58.21.89.22.64.11,1.26-.14,1.86-.18.44-.41.86-.62,1.29-.29.57-.62,1.11-1.19,1.46-.27.17-.48.43-.72.63-.42.32-.91.3-1.32-.02-.42-.32-.78-.72-1.12-1.23-.02-.19-.06-.45-.1-.71-.1-.83-.46-1.52-.95-2.17-.09-.13-.23-.21-.36-.3-.36-.26-.96,0-.99.45-.06.74,0,1.47.1,2.21.1.6.22,1.15.59,1.66-.16.85.09,1.69.2,2.58-.15.46-.31.96-.46,1.43-.14.06-.24.14-.33.14-.25-.05-.51-.14-.76-.2-.17-.03-.31.06-.4.21-.05.1-.06.2-.1.34.17.29.37.6.59.93-.45.53-.87,1.07-1.48,1.43-.37.21-.71.48-1.06.72-.32.21-.67.31-1.05.33-.21.02-.43-.02-.6-.16-.73-.53-1.4-1.13-2.01-1.81-.22-.25-.49-.4-.81-.48-.54-.14-.96.14-1.09.65-.09.41-.09.85-.13,1.21.21.61.39,1.17.58,1.72.11.29.26.59.39.87.11.25.24.49.32.73.08.26.02.53-.17.74-.13.16-.29.3-.46.45-.22.18-.47.23-.75.16-.15-.03-.31-.1-.45-.13-.33-.05-.53.14-.49.44.02.21.06.42.1.64-.37.56-.88.93-1.44,1.23-.61.33-1.24.62-1.74,1.07-.31.03-.55-.07-.76-.25-.47-.43-.93-.87-1.4-1.3-.32-.28-.64-.57-.97-.83-.34-.27-.83-.16-1.14.21-.15.18-.21.37-.17.59.04.21.1.41.19.6.37.7.75,1.4,1.13,2.09.56,1.01.43,1.89-.45,2.75-.58.56-1.24.96-2.08,1.1-1.04.17-2.08.45-3.14.43-1.32.31-2.65.13-3.97.05-.84-.06-1.7-.1-2.55-.09-.71.02-1.38-.09-1.9-.46-.61.03-1.15.1-1.67.07-.69-.04-1.35-.28-2.01-.48-1.53-.45-3.06-.88-4.6-1.29-.72-.21-1.45-.37-2.12-.68-.11-.06-.19-.21-.29-.33.29-.12.54-.21.77-.33.17-.08.21-.39.09-.55-.24-.32-.57-.49-.96-.49s-.75.04-1.11.08c-.42.05-.84.14-1.19.2-.6-.03-1.11-.21-1.62-.39-.56-.18-1.12-.29-1.71-.33-1.71-.11-3.4.05-5.08.28-.81.12-1.54.42-2.25.81-.68.39-1.37.8-1.96,1.36-.45.45-.96.85-1.44,1.27-.64.55-1.21,1.17-1.6,1.96-.29.56-.66,1.09-1.06,1.58-.44.55-.77,1.14-1.09,1.76-.42.87-.82,1.74-1.35,2.53-.44.67-.81,1.37-1.22,1.95-.7.68-1.58.82-2.33,1.18-.33.02-.64.06-.96.07-.7.03-1.38-.06-2.04-.28-1.11-.4-2.21-.78-3.31-1.17-.66-.23-1.23-.64-1.84-.96-.3-.15-.62-.1-.9.11-.23.18-.35.41-.29.68.06.31.18.62.32.9.18.38.43.74.64,1.11.2.37.35.76.34,1.19-.67,2.05-.83,2.34-1.98,3.58-.41.1-.73-.06-1.04-.29-.29-.22-.57-.48-.84-.72-.17-.13-.34-.25-.53-.37-.15-.1-.45-.07-.59.06-.11.11-.23.22-.32.36-.17.29-.21.6-.05.91.17.33.37.65.56.97.1.18.21.37.31.57-.05.14-.06.33-.15.43-.13.16-.31.3-.49.4-.52.28-1.04.54-1.44.74-.42.09-.64-.07-.87-.2-.56-.33-.94.06-1.11.5-.04.1-.05.21-.07.31-.04.26-.08.53-.13.84.2.45.42.92.61,1.41.17.44.31.91.46,1.35-.14.21-.25.28-.33.25-.92-.28-1.73-.8-2.52-1.34-.53-.36-1.04-.74-1.37-1.31-.08-.14-.21-.24-.31-.37-.35-.4-.76-.77-.95-1.27-.32-.84-.74-1.63-.9-2.55-.24-1.37-.34-2.74-.44-4.11-.06-.75-.09-1.48-.14-2.36.17-.68.37-1.51.6-2.39.14-.17.31-.37.48-.58.24-.29.41-.61.43-1.01.02-.44.22-.81.51-1.14.44-.49.75-1.03,1.07-1.58.7-1.19,1.42-2.37,2.14-3.56.18-.67.4-1.32.53-2,.14-.78.23-1.58.3-2.36.1-1.19.08-1.19.51-2.15-.02-.09-.02-.21-.07-.29-.45-.64-.61-1.35-.55-2.12.08-1.09-.22-2.09-.69-3.06-.64-1.35-1.45-2.59-2.2-3.88-.19-.33-.48-.58-.79-.79-.65-.46-1.32-.91-1.97-1.34-.18-.14-.3-.29-.37-.58.1-.13.19-.32.33-.48.49-.49.88-1.05,1.26-1.63.13-.23.24-.48.33-.73.19-.52-.29-1.12-.84-1.07-.37.05-.72.14-1.09.18-.32.05-.64.1-.95.08-.71-.08-1.39.06-2.04.3-.8.3-1.66.36-2.32.67-.56-.06-.97-.15-1.31-.43-.08-.24,0-.43.1-.61.54-.92,1.08-1.83,1.63-2.75.11-.18.23-.36.33-.54.13-.24.16-.5.14-.77-.02-.65-.38-.86-.95-.76-.58.1-1.12.33-1.63.61-1.54.84-3.06,1.73-4.46,2.79-.25.18-.52.37-.71.63-.31.44-.77.56-1.27.52-.59-.05-1.16,0-1.75.02-1.01.02-2.01.1-3.01.28-1.28-.06-2.53.28-3.81.23-.26-.02-.53.03-.79.06-.12-.16-.25-.28-.29-.41-.16-.56-.29-1.13-.42-1.69-.15-.66,0-1.27.36-1.83.14-.22.33-.41.49-.63.23-.34.23-.71.02-1.05-.19-.3-.47-.41-.88-.29-.29.24-.6.53-.94.78-.51.37-1.03.73-1.56,1.09-.4.27-.8.54-1.22.76-.65.35-1.33.65-2,.98-1,.19-1.91.67-2.85,1.03-1.35.51-2.76.78-4.16,1.06-.63.12-1.25.26-1.9.18-.25-.02-.52.05-.79.1-1.15.23-2.32.25-3.49.25-.47,0-.95-.02-1.42-.1-.72-.14-1.47-.17-2.22-.26-1.11-.14-2.2-.32-3.24-.76-.73-.3-1.52-.48-2.3-.65-.48-.12-.9-.31-1.29-.61-.17-.13-.35-.22-.54-.33-.3-.16-.76-.06-1.03.21-.25.22-.28.63-.06.86.54.59,1.2,1.04,1.89,1.43.33.18.67.33,1,.5.43.21.84.45,1.15.84.27.33.62.57,1.02.74.92.41,1.78.95,2.74,1.28.62.22,1.12.57,1.52,1.11.56.74,1.31,1.24,2.1,1.7.36.21.76.39,1.11.64,1.76,1.2,3.67,2.14,5.53,3.18.41.23.85.42,1.34.49.68.1,1.33.35,1.97.59.91.32,1.82.6,2.7.99.72.32,1.54.4,2.25.8.47.08.95.22,1.42.21,1.32-.03,2.65.07,3.98.09.63,0,1.27-.02,1.91-.02.63-.02,1.28-.06,1.86-.36.39-.2.86-.02,1.23-.29,1.13-.32,2.2-.77,3.23-1.35.27-.14.59-.24.87-.39.13-.06.24-.2.33-.33.22-.28.14-.81-.16-.99-.28-.16-.57-.3-.85-.44-.77-.36-1.53-.75-2.2-1.31-.19-.17-.4-.34-.59-.53-.53-.5-.8-1.11-.88-1.83-.06-.59-.02-1.17.17-1.73.04-.1.13-.18.19-.25.81-.3,1.65-.51,2.15-.5.26,0,.53.04.79.1.84.16,1.67.33,2.51.5.68.14,1.33.37,1.89.81.43.32.9.55,1.37.81,1.03.56,2,1.21,2.83,2.04.38.37.78.72,1.21,1.11.18.33.37.71.57,1.05-.08.5-.17.8-.26,1.04.02.3.2.42.37.54.29.19.41.48.45.81.02.15.02.31,0,.48-.05.71.04,1.38.36,2.01-.3.75-.24,1.49-.13,2.18-.12.62-.32,1.16-.31,1.77.02.41-.2.82-.31,1.23-.11.43-.46.7-.72,1.06.02.32.11.65.05.95-.13.56-.29,1.13-.52,1.67-.26.64-.56,1.26-.93,1.84-.58.9-1.04,1.87-1.3,2.9-.18.68-.44,1.32-.78,1.93-.65,1.17-1,2.46-1.32,3.74-.18.67-.29,1.35-.42,2.04-.15.72-.23,1.45-.17,2.2.06.74,0,1.49,0,2.24,0,1.08.02,1.19.47,2.33-.06.35-.11.72-.17,1.05.05.13.06.23.13.33.29.5.66.96.78,1.55.05.27.25.47.44.65.32.3.51.68.56,1.12.12.84.41,1.65.7,2.36.04.37.03.68-.02,1.02l2.01-.56c-.1-.17-.18-.35-.27-.53-.12-.24-.14-.51-.06-.77.27-.86.65-1.67.84-2.55.02-.05.06-.1.16-.22.17-.13.42-.3.65-.46.31-.02.57-.05.8.2-.05.51-.39.96-.45,1.5-.03.57.14,1.13.29,1.69.05.18.12.37.11.57l1.76-.48c-.25-.3-.51-.59-.76-.89.05-.49.1-.97.14-1.5.28-.35.57-.72.83-1.04.21-.09.36-.17.51-.2.88-.2,1.77-.38,2.65-.56.1-.02.21.03.33.05.11.1.25.19.33.32.53.75,1.26,1.3,1.91,1.91.05.05,3.77-1.15,3.77-1.15l1.31.54c-.05-.19-.14-.37-.25-.55-.19-.31-.39-.62-.58-.94.11-.2.22-.31.29-.29.4.14.8.28,1.19.44.73.29,1.45.66,2.28.65-.24.61-.76.78-1.09,1.23l-.13.18,1.48.63c.46-.21.96-.36,1.34-.72.12-.29.23-.58.34-.88.17-.05.32-.1.47-.14.15-.03.33-.02.47-.08.2-.07.41-.16.56-.29.64-.58.79-1.33.51-2.03-.13-.29-.33-.55-.57-.75-.71-.64-1.43-1.28-2.14-1.92-.19-.18-.39-.36-.53-.57-.08-.12-.05-.29.17-.4.41.14.87.29,1.31.43.51.16,1.02.3,1.52.48.56.17,1.12.35,1.71.4.49.03.92.21,1.34.45.09.06.2.06.31.08.26-.03.53-.06.82-.1.09.11.24.21.26.35.18.89.45,1.75.84,2.56.05.09.05.2.05.21.03.52-.49.81-.29,1.28.2.32.73.22.8.64-.1.67-.19,1.29-.27,1.85.07.19.12.27.15.38.18.57.59.87,1.14,1.01.3.07.61.14.92.21.1.43-.1.58-.38.72-.29,0-.6.02-.92,0,.19.05,6.83-.27,6.83-.27l.38-.68c.16-.27.32-.55.49-.82.29-.5.73-.76,1.3-.84.37-.06.72-.1,1.03-.14.26-.14.36-.33.39-.55.04-.38-.41-.74-.74-.58-.28.14-.54.32-.82.46-.06.03-.19-.05-.28-.08.05-.3.1-.45.21-.57.24-.28.51-.53.77-.8.19-.19.37-.41.41-.67.06-.4.25-.7.49-.99.31-.36.6-.75.92-1.15.44-.13.91-.25,1.36-.38.29-.09.42-.33.45-.6.03-.25,0-.53,0-.78.73-.92.76-.95,1.25-1.17q1.62-.75,3.3-.68c.7.44,1.52.8,2.42.98.36.07.7.24,1.11.37.92,1,2.15,1.67,3.22,2.52.97.76,1.79,1.66,2.71,2.48.18.16.32.44.38.68.14.51.23,1.03.26,1.55l1.39.6c.04-.29.1-.37.14-.47.22-.05.41,0,.58.15.3.3.56.62.77.98l2.61,1.15,1.3-.05c-.35-.32-.53-.72-.64-1.19-.08-.31-.18-.61-.25-.92-.06-.2-.07-.41-.09-.63-.05-.37.11-.65.44-.75.36-.1.72-.19,1.07-.29.14-.05.29-.11.43-.2.18-.11.3-.29.31-.52,0-.29-.08-.53-.31-.69-.18-.12-.37-.22-.57-.3-.83-.33-1.38-.95-1.77-1.75-.33-.7.09-1.58.86-1.73.15-.03.31-.05.47-.06.9,0,1.8,0,2.7-.02.1,0,.21.04.31.07.14.03.32.37.29.53,0,.1-.21.29-.34.29-.26,0-.53.02-.8,0-.68,0-1.37-.03-2.06-.02-.26,0-.53.06-.72.27-.06.07-.1.18-.13.28-.02.1.14.35.25.37,1.15.1,2.14.32,3.16.21.41-.05.84,0,1.27.11-.02.1,0,.22-.04.26-.21.17-.42.31-.65.45-.45.29-.81.68-1.13,1.11-.29.38-.48.82-.45,1.33,0,.16,0,.31,0,.47-.02.96.29,1.77.98,2.44.19.18.38.37.49.74,0,0,.56-.02.56-.02l1.88-.53c-.35-.05-.7-.1-1.05-.27-.6-.48-1.15-1.03-1.37-1.86,0-.25.02-.51,0-.78-.04-.65.68-1.46,1.34-1.6.57-.12,1.15-.24,1.72-.32.41-.06.84-.07,1.22.17.14.21.05.41.02.61-.02.27-.06.53-.07.72.21.62.39,1.17.57,1.71.26.25.53.49.77.74l1.36-.38c-.51-.54-.89-.99-1.26-1.4-.06-.68-.04-.88.09-1.12.15-.29.38-.53.65-.68.36-.23.75-.41,1.11-.62.14-.09.25-.18.36-.26.12-.55-.13-.86-.56-1.05-.24-.11-.52-.13-.76-.23-.55-.25-.97-.65-1.12-1.27-.08-.37-.02-.73.25-1.03.25-.3.56-.49.92-.61.76-.26,1.5-.53,2.12-1,.14-.29.13-.57-.05-.78-.14-.15-.34-.25-.53-.34-.09-.05-.21-.03-.31-.05-.73-.1-1.25-.56-1.73-1.06-.11-.1-.18-.26-.23-.41-.17-.5-.23-1.03-.03-1.55.06-.14.17-.26.25-.36.35-.03.66-.05.95-.07.41-.41.8-.78,1.16-1.16.15-.16.15-.53,0-.75-.18-.29-.45-.45-.8-.44-.53.05-1.05.13-1.53.18q-.76-.78-1.82-1.31c0-.1-.05-.21,0-.29.05-.06.18-.13.26-.11.72.16,1.49.18,2.16.49.8.36,1.65.41,2.47.6.36.08.71-.33.61-.72-.04-.14-.1-.32-.21-.41-.23-.22-.5-.39-.75-.59-.39-.29-.48-.6-.28-.94.17-.3.36-.34.81-.17.15.05.3.1.48.15.11-.1.26-.2.31-.33.06-.13.06-.36-.02-.45-.31-.36-.41-.88-.9-1.14-.12-.02-.29-.06-.44-.05-.49.08-.95,0-1.42-.13-.36-.1-.72-.14-1.08-.24-.16-.04-.3-.1-.44-.18-.08-.06-.19-.17-.19-.24.06-.39-.06-.73-.23-1.06-.06-.13.06-.35.18-.39,1.53-.45,3.13-.55,4.7-.8.13-.02.29.1.46.17-.15.47-.3.92-.42,1.37-.09.31-.18.62-.2.93-.03,1.19.28,1.42,1.35,1.54.23.02.41-.1.53-.3.06-.08.08-.19.13-.31-.06-.12-.12-.26-.18-.41-.07-.14-.17-.27-.23-.42-.17-.45.03-1.01.49-1.21.51-.21.95-.45,1.13-1.03.05-.14.21-.23.32-.35.21-.23.45-.45.62-.72.41-.69.66-1.44.65-2.27-.02-.48-.02-.95,0-1.42,0-.18.18-.22.35-.24.1.03.21.05.29.1.65.39,1.34.63,2.12.65.25,0,.51.11.76.17.98.22,1.93.6,2.98.57.48-.17.98-.34,1.47-.53.56-.21,1.05-.53,1.48-.93.49-.48.71-1.05.61-1.73-.03-.21-.07-.42-.13-.63-.25-.92-.54-1.83-1.08-2.64-.12-.17-.24-.36-.29-.56-.03-.14.03-.31.08-.45.04-.09.14-.17.23-.23.44-.37.69-.38,1.14-.1.98.66,2.05,1.13,3.14,1.55.29.1.62.18.93.16.8-.03,1.59-.12,2.36-.37.91-.31,1.55-.92,1.85-1.84.15-.45.22-.92.18-1.42-.07-.85-.25-1.69-.64-2.45-.25-.47-.51-.94-.74-1.42-.13-.28-.22-.58-.33-.88.17-.48.33-.92.49-1.35,1.58,1.31,3.3,2.11,5.08,2.85.5.21,1.03.26,1.56.15.21-.06.41-.1.62-.14.41-.09.65-.34.84-.69.08-.18.13-.41.25-.58.63-.96.71-1.97.55-3.06-.09-.59-.22-1.15-.51-1.66-.34-.6-.64-1.23-1-1.81-.91-1.53-1.39-3.22-1.85-4.91-.13-.47-.24-.91-.53-1.31-.33-.44-.44-.96-.52-1.49-.07-.41-.15-.84-.08-1.27.16-.12.3-.06.38.06.22.37.38.76.63,1.11.4.56.82,1.11,1.28,1.62.54.59,1.1,1.17,1.71,1.67.8.64,1.68,1.16,2.68,1.35.96.19,1.83.56,2.71.93.79.32,1.57.66,2.26.96.58.03,1.06.06,1.54.07.53,0,1.06,0,1.59,0,.48-.02.95-.06,1.43-.02.5.06,1.02-.03,1.55-.06-.25.33-.58.49-.91.65-.72.37-2.02,1.28-2.49,1.71-.73.68-1.21,1.47-1.13,2.6.1.21.25.5.37.78.12.25.17.51,0,.75-.57.41-1.14.8-1.69,1.23-.21.15-.41.35-.54.57-.49.78-.8,1.62-.64,2.56.02.16.05.32.06.48.09.84-.05,1.03-.86,1.23-.41.1-.84.17-1.25.25-.71.16-.84-.1-.96-.7-.07-.37-.06-.73.02-1.11.29-1.38.46-1.71,1.43-2.78.29-.32.6-.61.96-.84.41-.25.81-.51,1.2-.78.14-.08.23-.21.32-.35.14-.19.04-.57-.21-.67-.14-.05-.32-.1-.45-.07-.31.09-.6.22-.89.33-1.6.6-2.61,1.79-3.22,3.33-.21.54-.33,1.11-.49,1.68-.2.68-.25,1.36-.03,2.05.06.21.05.41-.14.6-.42.16-.86.35-1.31.5-.66.2-1.33.37-2,.54-.34.1-.6-.17-.56-.55.02-.17.06-.32.06-.48.03-.62.33-1.11.78-1.51.48-.44.95-.85,1.56-1.1.29-.13.57-.28.8-.52.12-.13.08-.45-.08-.57-.18-.12-.37-.2-.6-.17-.76.06-1.45.36-2.02.86-.87.8-1.58,1.72-1.77,2.94-.05.32-.05.64-.05.95,0,.45-.14.82-.6,1.03-.18.09-.33.25-.49.38-.1.08-.03.33.09.42.17.14.37.19.59.18.21,0,.43-.05.62.08.13.09.25.19.27.37.02.16-.07.35-.2.41-.25.09-.49.18-.75.26-.72.21-1.38.52-1.97.99-.18.13-.35.26-.33.5.02.28.26.28.47.32.14.02.29.08.45.12.08.6-.13,1.19-.02,1.77.05.27-.17.53-.43.6-.73.19-1.38.52-1.93,1.06-.08.07-.36-.06-.4-.16-.16-.53-.13-1.07.05-1.58.3-.84.65-1.68,1.25-2.39.37-.45.72-.92,1.13-1.33.23-.24.33-.54.35-.88,0-.19-.13-.43-.3-.53-.12-.06-.35-.03-.45.06-.56.49-1.04,1.05-1.54,1.61-.81.9-1.27,1.96-1.63,3.07-.21.61-.33,1.27-.16,1.89.18.66.21,1.36.53,2,.12.22.13.51.18.76.88.78,1.59,1.54,2.3,2.29-.04.37-.25.62-.48.84-.47.45-.73,1.03-1.02,1.61-.13.27-.25.6-.25.91-.02,1.21.25,2.32,1.23,3.16.23.2.54.33.67.67-.06.64-.41,1.19-.61,1.8-.08.25-.21.49-.26.75-.21,1.23-.02,2.43.45,3.57.26.65.6,1.25,1.23,1.62.09.06.17.14.22.22.12.18.19.39.1.6-.19.44-.4.87-.6,1.29-.22.5-.36,1-.47,1.53-.19.8-.12,1.58.22,2.33.24.53.52,1.04.8,1.6-.12.08-.23.22-.36.22-.68.03-1.37,0-2.04-.19-.31-.1-.6-.22-.84-.43-.35-.29-.53-.66-.5-1.12.05-.64.23-1.25.65-1.76.17-.21.34-.41.49-.63.08-.14.14-.29.19-.44.1-.29-.05-.72-.31-.82-.49-.21-1-.39-1.48-.59-.53-.22-.84-.64-.92-1.21-.02-.21-.05-.43,0-.63.1-.47.23-.93.37-1.38.16-.52.41-.99.83-1.35.27-.23.53-.49.8-.73.1-.55.08-.58-.05-.78-.17-.25-.41-.32-.68-.35-.26-.03-.53,0-.79-.03-.48-.04-.96-.05-1.42-.17-.71-.17-1.25-.62-1.44-1.35-.34-1.3.04-2.4,1-3.31.11-.1.25-.19.37-.29.29-.26.37-.69.21-1.03-.36-.72-.81-1.36-1.48-1.83-.39-.27-.53-.64-.55-1.08,0-.21.13-.47.29-.53.25-.1.49-.23.74-.29.71-.14.98-.56.86-1.26,0-.03.05-.1.1-.2.64-.25,1.41-.29,2.04-.53.26-.21.31-.49.42-.72-.37.02-.52-.36-.81-.45-.3-.08-.62-.15-.92-.26-.31-.1-.54-.32-.72-.59-.21-.32-.35-.68-.33-1.06.05-.63.05-1.31.36-1.86.44-.77.75-1.66,1.54-2.19.18-.11.21-.36.14-.58-.08-.22-.39-.35-.67-.29-.42.1-.8.28-1.07.64-.58.76-.98,1.64-1.33,2.53-.32.82-.37,1.66-.16,2.5.1.41.18.83.25,1.25,0,.09-.05.23-.11.28-.54.32-1.1.64-1.66.93-.24.12-.53.1-.78.02-.35-.14-.69-.28-1.03-.43-.37-.16-.6-.45-.67-.84-.06-.32-.11-.64-.12-.96,0-.21.13-.4.32-.53.09,0,.2,0,.29.02.16.02.31.1.47.1.37,0,.8-.41.64-.89-.14-.38-.41-.64-.8-.72-.31-.06-.64-.06-.95-.08-.36-.02-.62.15-.83.41-.21.25-.34.53-.38.85-.08,1.03-.05,2.03.44,2.96.06.12.06.21-.16.38-.39.18-.98.24-1.55.32-.52.1-1.05.14-1.58.18-.14,0-.28-.13-.45-.21.04-.22.03-.45.14-.61.13-.22.34-.42.56-.54.26-.17.6-.23.88-.36.18-.1.35-.25.49-.4.31-.34.14-.89-.29-1.03-.26-.08-.54-.11-.78.02-.47.24-.93.5-1.36.8-.57.38-.88.9-.94,1.6-.03.36,0,.75-.27,1.05-.68.33-1.58.6-2.41.77-.33.06-.63-.03-.95-.06-.63-.08-1.15.11-1.57.59-.28.33-.53.67-.77.97-.11.35-.19.65-.32.95-.19.45-.2.93-.2,1.42,0,.63.31,1.11.84,1.43.28.16.57.28.85.42.09.06.06.16-.02.26-.19.21-.45.3-.71.33-.61.09-1.09.42-1.54.8-.36.31-.68.67-.99,1.03-.4.45-.61,1-.64,1.6-.06.91-.02,1.81.46,2.63.07.14.1.3.14.43-.1.52-.42.88-.64,1.31-.35.65-.62,1.37-.57,2.12.13,1.7.88,3.03,2.38,3.91.09.05,2.03-.46,2.03-.46-.11-.15-.25-.29-.42-.41-.36-.22-.73-.42-1.1-.64-.61-.37-1.03-.92-1.34-1.54-.18-.39-.24-.8-.13-1.23.21-.8.5-1.52,1.13-2.07.13-.1.23-.23.33-.34.49-.53.48-1.03-.02-1.54-.72-.53-.81-1.15-.85-1.8,0-.15.02-.32.1-.45.11-.25.26-.46.4-.68.45-.71,1.08-1.15,1.89-1.37.3-.07.6-.2.9-.29.21-.31.44-.61.64-.91.49-.14.95-.26,1.43-.28.45,0,.82.19,1.05.59.04.07,0,.2,0,.29-.38.09-.64.09-.87.08-.48.29-.81.73-1.35.92-.4.13-.55.46-.48.89.03.2.04.41.06.6-.12.27-.23.51-.33.75-.13.3-.21.6-.45.84-.18.18-.37.37-.53.58-.05.07,0,.2-.02.35.27.11.57.21.92.36.13.24.29.51.43.79.09.2.07.41-.05.6-.65.56-.63.93-.29,1.35-.07.56-.14,1.13-.21,1.68.28.84.43,1.69.68,2.48l2.25-.6.57.23c-.03-.17-.03-.36-.05-.53,0-.08.1-.17.15-.25-.14-.24-.17-.5-.06-.75.11-.3.28-.57.41-.81.64-.46,1.3-.52,1.99-.41.06.14.14.22.14.32,0,.21-.04.42-.09.63-.1.46-.29.63-.76.64-.26,0-.53,0-.7-.02-.38.16-.68.28-.96.39.03.15.06.31.08.42.2.25.44.37.7.38.31.02.63-.02.94,0,.26,0,.53.03.8.24.09.18.22.41.33.64.04.1.04.19.02.29l4.08,1.64,1.58.43c.25-.46-.04-1.29-.76-1.27-.37,0-.74.1-1.11.1-.91.02-1.66-.32-2.16-1.11-.09-.15-.07-.33.08-.39.15-.05.31-.08.45-.14.33-.13.52-.37.54-.72.02-.34-.27-.68-.66-.79-.21-.06-.42-.06-.63-.11-.41-.11-.62-.47-.48-.86.1-.24.23-.48.37-.69.15-.22.56-.14.65.1.03.1.03.21.05.32.1.36.33.5.69.45.39-.06.7-.23.96-.53.33-.37.27-.99-.17-1.24-.27-.16-.56-.29-.84-.43-.25-.41-.49-.82-.73-1.23-.06-.1,0-.19.11-.23.54.49,1.03.66,1.67.67.49,0,.87.36,1.15.76.06.23.04.45-.09.62-.6.83-.72,1.77-.64,2.74,0,.1.03.21.03.23.17.41.31.77.46,1.11.31.72.8,1.24,1.59,1.44.56.14,1.12.29,1.69.45.18.05.38.33.36.48-.06.32-.13.64-.19.95l1.23.33c.1-.5.23-1.02.42-1.53.17.1.36.13.41.23.49,1,1.37,1.42,2.4,1.6.37.06.73.08,1.13.23l2.45-.66.1-.3c.26.02.51.03.76.08l3.25-.88c-.14-.33-.34-.5-.64-.51-.25,0-.52.02-.79.06-.71.13-1.38-.04-2.04-.25-.3-.1-.56-.28-.79-.52-.68-.78-.91-1.69-.57-2.67.28-.8.67-1.57,1.02-2.34.17-.38.39-.76.41-1.29-.21-.48-.56-.7-.95-.91-.49-.25-.84-.64-1.03-1.16-.11-.3-.24-.6-.36-.89-.35-.84-.26-1.67.11-2.48.2-.43.45-.84.66-1.27.14-.29.28-.58.38-.88.15-.38-.02-.93-.34-1.15-.4-.27-.81-.52-1.19-.8-.17-.11-.29-.3-.41-.43-.13-.5-.35-.94-.27-1.5.17-.44.44-.91.76-1.33.1-.13.21-.25.35-.32.13-.06.29-.04.47-.06.12.25.25.49.34.73.11.29.45.48.41.88-.06.1-.14.22-.23.36-.05.1-.16.17-.17.27-.02.14-.02.31.03.44.02.06.19.12.28.1.53-.11,1.03-.26,1.55-.36.25-.06.53-.09.79-.09.21,0,.39.12.5.34-.15.06-.3.12-.45.16-.21.06-.41.11-.62.17-.37.1-.68.31-.96.54-.14.11-.25.41-.2.57.04.16.3.37.49.34.36-.02.73-.07,1.1-.09.05,0,.17.17.14.23-.06.25-.17.49-.27.73-.09.19-.24.37-.29.56-.03.14.03.33.12.45.08.12.23.21.37.29.41.24.83.47,1.23.71.13.06.13.36.02.41-.49.21-.97.42-1.45.65-.19.08-.39.17-.58.26-.21.11-.35.49-.28.69.07.21.24.35.45.41.2.06.41.07.62.1.26.05.52.1.78.14.09.02.27.29.25.38-.03.26-.1.52-.13.79-.09.62-.09,1.26.02,1.9.12.71.39,1.31.93,1.8.15.13.28.3.38.41-.02.36-.22.55-.35.77-.49.89-.57,1.81-.25,2.78.11.31.29.58.59.72.47.22.94.44,1.42.63l1.42-.5c.04-.17.02-.34-.07-.51-.14-.24-.33-.43-.6-.48-.25-.06-.53-.02-.79-.08-.45-.08-.79-.32-.93-.76,0-.51.21-.92.57-1.27.47-.45,1.01-.77,1.57-1.08.33-.18.37-.67.11-.97-.21-.26-.48-.41-.82-.41-.16,0-.33.03-.48.03-.33,0-.64-.07-.91-.32-.06-.12-.11-.27-.19-.41-.46-.8-.42-1.62-.21-2.48.18-.73.61-1.23,1.41-1.32.53-.06,1.05-.11,1.58-.17.56.18,1.11.35,1.66.53.04.02.06.08.13.17-.24.38-.52.77-.72,1.2-.23.47-.49.94-.59,1.47q.16,1.73,1.3,3.72c-.16.37-.33.76-.49,1.15-.16.41-.17.84,0,1.25l.07.19,1.4-.49c-.18-.28-.18-.55-.02-.78.12-.18.25-.34.42-.46.21-.15.47-.24.7-.37.2-.12.29-.53.14-.72-.16-.2-.33-.43-.53-.58-.49-.33-.97-.65-1.37-1.23-.05-.21-.13-.52-.19-.84-.13-.57.03-1.04.53-1.43.18.08.37.16.57.24.25.08.49.18.75.25.24.07.53-.08.67-.32.11-.21.09-.62-.08-.75-.2-.16-.42-.31-.65-.45-.3-.18-.43-.45-.47-.78-.03-.21-.06-.43-.02-.64.1-.52.22-1.04.37-1.54.2-.72.69-1.23,1.37-1.46.45-.16.88-.34,1.3-.57.06-.02.18.06.25.11-.13.36-.29.57-.46.77-.17.23-.26.48-.2.74.12.45,0,.84-.1,1.26-.5,2.2.1,4.1,1.59,5.74.45.49,1.04.73,1.71.73.19,0,.41-.1.58-.21.33-.23.27-.78-.07-.94-.14-.07-.29-.13-.45-.17-.9-.25-1.46-.86-1.79-1.68-.38-.9-.5-1.85-.22-2.8.08-.26.24-.47.52-.56.62-.2,1.26-.18,1.89-.11.25.1.4.33.37.45-.16.61-.32,1.23-.45,1.76.19,1.39,1.06,2.13,2.02,2.81.25-.02.45-.04.66-.07.11-.02.21-.03.32-.05.3-.07.53-.49.38-.76-.11-.23-.27-.45-.41-.64-.43-.17-.83-.33-1.23-.47-.11-.13-.23-.24-.3-.37-.08-.13-.13-.29-.11-.44.03-.44.21-.81.46-1.16.11-.15.39-.25.57-.18,1.22.43,2.3,1.1,3.25,1.97.36.32.69.64,1.12.9.63.35,1,.94,1.19,1.63.2.72.35,1.44.23,2.2-.03.2-.02.43,0,.64.04.37.57.92.95.98.1.03.21.03.31.02.16-.03.33-.06.45-.14.74-.5,1.58-.63,2.43-.7.85-.07,1.7-.03,2.54.14.83.17,1.63.45,2.45.68.57.41,1.22.64,1.87.88.25.08.48.23.69.38.6.44,1.24.83,1.91,1.15.13.07.25.2.37.29.05.05.09.12.11.2l1.96-.76c-.23-.14-.46-.29-.68-.46-1.46-1.05-2.98-2.01-4.66-2.7-.69-.28-1.38-.54-2.08-.8-.15-.06-.29-.11-.35-.28q-.62,0-1.08-.29c.57-.15.68-.1,1.07.33.21-.02.42-.1.61-.07.94.18,1.89.31,2.79.59,1.36.45,2.79.67,4.03,1.44.18.11.4.14.6.21.8.31,1.58.65,2.36,1.02l1.88-.73c-.74-.35-1.47-.69-2.23-1.02-.38-.16-.8-.29-1.06-.67-.18-.02-.32-.1-.38-.28-.25.04-.51.12-.68-.16-.18-.02-.33-.08-.37-.28-.13.02-.27.05-.41.06-.15,0-.25-.09-.29-.23-.25.03-.53.14-.69-.18-.31.11-.6.02-.88-.1-.3-.14-.69-.16-.87-.51-.1.02-.21.06-.31.05-.47-.08-.94-.15-1.41-.27-1.96-.49-3.18-.72-5.62-1-.26-.03-.51-.11-.72-.34-.16-.36-.35-.74-.5-1.14-.33-.81-.85-1.45-1.51-2.01-1.09-.94-2.27-1.76-3.62-2.28-.94-.37-1.86-.78-2.84-1.03-.26-.07-.51-.16-.75-.28-.12-.06-.2-.22-.3-.36.26-.49.53-.94.76-1.42.33-.66.61-1.34.95-2.01.26-.53.59-1,.86-1.53.1-.17.11-.4.12-.6,0-.23-.11-.41-.32-.51-.21-.1-.41-.07-.6.05-.1.05-.18.11-.25.19-.4.51-.76,1.02-1.01,1.62-.53,1.33-1.35,2.51-1.97,3.81-.19.38-.44.72-.76,1.01-.21.18-.45.29-.72.27-.21-.02-.44-.02-.63-.08-.13-.06-.21-.2-.31-.29.29-.76.92-1.19,1.44-1.62.09-.38.09-.72.24-1,.55-1.03.9-2.15,1.58-3.11.08-.14.17-.29.19-.44.14-1.12.69-2.11,1.02-3.17.1-.31.18-.61.25-.92.14-.72.29-1.46.4-2.19.22-1.46.41-2.94.34-4.44-.02-.57-.08-1.18.03-1.74.18-.84.17-1.68.19-2.52.03-.8.02-1.59,0-2.39,0-.38-.68-.82-1.07-.72-.19.23-.27.38-.29.53-.15,1.1-.29,2.2-.45,3.3-.02.09-.13.15-.2.22.02.3.07.62.07.94,0,1.73-.25,3.46-.21,5.19-.14.04-.26.12-.33.09-.75-.37-1.5-.75-2.25-1.14-.24-.12-.47-.26-.67-.42-.37-.27-.52-.66-.41-1.11.05-.2.1-.42.23-.57.73-.91,1.58-1.7,2.71-2.1.19-.07.37-.21.57-.32.1-.18.21-.35.31-.53-.29-.21-.6-.42-.91-.64-.02-.08-.06-.18-.05-.27.14-.75-.12-1.25-.84-1.51-.14-.06-.3-.1-.45-.17-.29-.14-.54-.37-.65-.68-.49-1.3-.43-1.46.61-2.3.21-.16.46-.26.68-.41.22-.14.44-.3.64-.47.25-.21.29-.76.06-1.03-.06-.08-.13-.16-.21-.23-.08-.07-.16-.14-.24-.2-.59-.46-.61-1.21-.17-1.69.18-.19.34-.4.53-.6.87-.96,1.93-1.65,3.19-2,.92-.25,1.84-.53,2.75-.81.15-.04.29-.14.42-.22.17-.11.26-.58.14-.73-.23-.29-.47-.56-.72-.85-.29-.31-.58-.62-.68-1.03,0-.35.13-.64.37-.88.16-.14.33-.28.49-.4.69-.51,1.47-.84,2.28-1.15,1.14-.43,2.24-.92,3.3-1.55.22-.14.49-.21.73-.29.2.11.29.23.26.27-.39.88-.69,1.78-1.03,2.68-.03.1-.08.19-.14.28-.07.07-.17.13-.25.19-.1-.03-.2-.06-.29-.1-.51-.14-.88.04-1.01.49-.03.1-.06.19-.08.3-.31,1.64-.4,3.26.03,4.89.14.57.27,1.14.38,1.71.07.37.09.73.15,1.12-.33-.09-.49-.31-.57-.55-.19-.49-.36-1-.45-1.53-.15-.78-.26-1.56-.18-2.37.03-.3-.35-.55-.68-.47-.39.1-.7.41-.68.79.04.57.15,1.15.19,1.73.12,1.69.81,3.18,1.59,4.64.22.43.51.81.91,1.1.17.11.38.18.58.22.2.03.42-.06.66.1.06.08.16.2.26.33.27.33.63.57,1.03.72.27.1.52.05.74-.15.21-.18.37-.37.28-.7-.57-.73-1.1-1.54-1.29-2.5-.02-.16-.11-.3-.19-.43-.23-.37-.34-.78-.35-1.21,0-.37-.29-.68-.26-1.07.04-.37-.04-.75,0-1.11.08-.64,0-1.27.16-1.9.29-1.13.45-2.29.96-3.36.53-1.97,1.5-3.73,2.57-5.45.45-.74,1.01-1.38,1.68-1.9.57-.46,1.22-.84,1.84-1.26.18-.11.37-.21.57-.27,1.02-.3,1.98-.76,3.02-.99.41-.1.82-.25,1.21-.41.71-.28,1.45-.33,2.19-.37.69-.04,1.38,0,2.03.23.11.2.21.4.34.56.29.37.75.49,1.14.3.1-.05.19-.09.27-.16.58-.49,1.26-.55,1.96-.38.88.21,1.76.37,2.67.33.21,0,.41.09.63.1.32.03.63.04.95.07.96.09,1.91.02,2.84-.21.25-.06.53-.03.8-.06.21-.02.42-.03.61-.11,1.21-.43,2.44-.72,3.74-.62.38-.05.62-.33.6-.59,0-.29-.14-.52-.39-.65-.28-.15-.6-.24-.92-.21-.73.03-1.48.05-2.2.28-.2.06-.41.13-.62.12-1.23-.03-2.43.2-3.64.27-1.33.08-2.66,0-3.98.08-.31.02-.63-.06-.88-.29.34-.67.86-.97,1.27-1.38.58-.55,1.37-.8,2-1.28.28-.21.69-.25,1-.36.77-.92.94-1.03,1.98-1.27.41-.1.83-.2,1.25-.27.36-.05.74-.11,1.11-.09.49.04.95,0,1.42-.12,1.11-.23,2.23-.14,3.32.1,1.4.29,2.8.62,4.14,1.15.1.04.15.14.26.26-.03.22-.06.48-.09.73.1.28.31.42.61.41.37-.02.73-.06,1.05-.09.25-.21.44-.39.64-.57.16.1.3.18.44.25-.25.72-.8,1.05-1.27,1.48-.3.27-.26.71.09.95.13.08.29.12.46.2.21-.14.43-.3.66-.41.19-.08.41-.1.61-.14.06-.31.12-.62.17-.93.05-.31-.24-.6-.02-.98.37.09.8-.1,1.2.12-.38.96-.47,1.14-.95,1.6-.1.1-.29.11-.43.18.04.16,0,.3-.14.41-.19.15-.42.28-.63.43-.16.12-.33.25-.45.41-.13.16-.13.38-.04.58.08.18.29.29.5.28.27-.02.51-.1.71-.26.2-.17.41-.31.68-.33.05-.1.07-.2.14-.26.54-.5.98-1.11,1.39-1.7.22-.33.3-.66.13-1.04-.06-.12,0-.28.02-.46.25.05.45.08.65.13.26.15.36.36.33.48-.02.1-.03.21-.07.3-.47,1.04-1.27,1.8-2.18,2.44-.13.08-.31.07-.46.1.05.17,0,.31-.11.43-.17.2-.36.39-.52.6-.1.13-.05.49.1.58.13.07.31.17.44.13.25-.06.52-.17.71-.33.64-.56,1.23-1.18,1.89-1.7.66-.5,1.08-1.16,1.4-1.89.1-.25.2-.49.32-.72.1-.21.31-.29.53-.26.1.02.2.07.29.1,0,.11.04.22,0,.32-.16.51-.41,1.02-.81,1.35-.68.56-1.05,1.32-1.5,2.04-.82,1.31-1.66,2.6-2.36,3.97-.31.62-.73,1.18-1.18,1.71-.62.72-1.13,1.53-1.7,2.3-.51.68-.78,1.51-1.17,2.26-.05.1-.06.21-.06.31,0,.1.02.21.03.31.26.37.64.55,1.07.61.21-.08.34-.22.42-.43.31-.84.59-1.72,1.14-2.45,1.85-2.53,3.38-5.28,5.23-7.82.62-1.13,1.46-2.09,2.21-3.12.22-.3.39-.65.66-.89.52-.46.96-1,1.46-1.47.53-.51,1.17-.9,1.95-.99.53-.06,1.05-.16,1.55-.22.39.1.75.22,1.12.27,2.34.29,4.49,1.26,6.69,2.02.29.1.58.27.76.56-1.04-.1-1.97-.33-2.83-.76-.29-.14-.57-.3-.88-.38-.87-.24-1.75-.45-2.63-.67-.64-.15-1.27-.1-1.9.02-.16.02-.37.28-.39.45-.03.24.2.54.45.57.42.05.84.1,1.27.12.75.06,1.49.17,2.19.42,1.1.39,2.19.81,3.28,1.23.15.22.13.32.06.4-.68.64-1.46.84-2.35.49-.14-.06-.29-.13-.45-.18-1.42-.43-2.85-.86-4.34-.99-.21-.02-.41.02-.62.07-.17.03-.25.17-.29.33-.02.12.1.38.18.42.14.06.29.14.44.17,1.8.35,2.51.56,3.81,1.09-.14.48-.5.51-.75.69-.25.2-.55.33-.93.34-1.01-.34-2.04-.76-3.11-.9-.09.06-.15.08-.17.11-.23.34-.2.67.08.83.23.12.47.22.71.34.33.16.72.18,1,.47,0,.1.02.25-.03.3-.54.5-1.09,1-1.65,1.48-.08.07-.2.08-.32.11-.54-.16-1.1-.33-1.66-.48-.2-.05-.41-.04-.62-.05-.2,0-.41.18-.45.38-.05.19.05.33.17.41.26.18.55.33.83.49.17.1.21.41.08.55-.45.46-.88.95-1.6.93-.33.11-.5.34-.5.54,0,.27.02.53.03.75-.28.52-.67.89-1.11,1.19-.75.53-1.35,1.19-1.93,1.9-.43.54-.88,1.07-1.33,1.59-.28.31-.61.6-1,.96-.21.48-.49,1.04-.96,1.51-.14.13-.28.33-.33.52-.32.98-.86,1.82-1.58,2.55-.27.28-.44.62-.43,1,0,.68-.29,1.23-.64,1.77-.18.26-.39.5-.57.72-.03.19-.09.36-.09.51,0,1.03-.25,2.01-.68,2.92-.36.8-.57,1.6-.68,2.44-.11.84-.36,1.67-.68,2.46-.49,1.23-1.04,2.44-1.66,3.62-.46.92-1.07,1.71-1.82,2.39-.54.46-.93,1-1.15,1.68.46.68.57.74,1.3.78.87-.88,1.66-1.89,2.4-2.92.52-.73.97-1.52,1.35-2.35.36-.77.76-1.53,1.08-2.3.29-.67.74-1.16,1.35-1.54.64-.38,1.3-.71,2.01-.93.71-.23,1.44-.4,2.17-.52.85-.14,1.62-.46,2.36-.89.55-.32,1.12-.62,1.73-.81.56-.18,1.07-.47,1.58-.75,1.04-.55,1.98-1.24,2.87-2.01.61-.53,1.25-.99,2.1-1.04.14-.02.29-.13.41-.22.16-.13.28-.33.45-.43.9-.48,1.7-1.1,2.52-1.69.32-.22.68-.29,1.06-.27.42.03.85.06,1.19.07.68-.33.64-1.04,1.05-1.46.47-.23.96-.42,1.41-.68.46-.28.84-.7,1.24-.88.41-.17.8-.17,1.17-.23.47-.08.64-.53.95-.81,1.09-.5,1.93-1.23,3.05-1.27.16-.02.33-.08.45-.17.36-.27.75-.39,1.19-.33.64-.21,1.27-.05,1.88.14.52.16.96.45,1.29.89.22.29.48.57.72.85.32.37.54.79.68,1.25.1.37.17.73.25,1.09.12.52,0,.96-.41,1.3-.28.24-.58.47-.9.64-.74.42-1.53.77-2.35.99-2,.53-3.95,1.25-5.99,1.66-.52.1-1.06.19-1.54.41-.49.23-1.03.24-1.54.39-1.26.39-2.44,1.07-3.75,1.32-.66.37-1.23.5-1.79.67-.25.08-.53.11-.76.22-1.06.49-2.19.83-3.3,1.15-.84.24-1.58.61-2.26,1.15-.34.26-.69.48-1.07.68-1.22.67-2.31,1.52-3.37,2.4-.29.23-.54.51-.68.87-.02.31-.02.62-.05.93-.61.56-1.15,1.18-1.79,1.63-1.22.85-2.23,1.97-3.48,2.78-.21.14-.41.34-.58.54-.69.73-1.38,1.48-2.06,2.21-.11.11-.2.26-.33.35-.67.45-1.17,1.07-1.76,1.62-.22.21-.49.4-.72.59-.35-.04-.66-.08-.94-.11-.8.31-.97,1.12-1.42,1.67-.78.52-1.59.58-2.46.36-.7-.17-1.29-.52-1.81-.97-.57-.48-1.08-1.01-1.47-1.66-.25-.41-.53-.81-.8-1.2-.6-.88-1.19-1.75-1.81-2.62-.32-.44-.33-.88-.11-1.35.1-.24.21-.49.37-.71.54-.72,1.07-1.46,1.67-2.12.43-.48.84-.97,1.15-1.52.53-.93,1.17-1.77,1.97-2.44.05-.2.1-.34.12-.5.03-.29-.09-.52-.32-.68-.29-.21-.77-.2-1.03.06-.16.15-.31.3-.42.48-1.04,1.48-1.96,3.04-3.2,4.36-.69,1.02-1.25,1.93-1.96,2.72-.25.27-.42.61-.38,1.11.12.2.25.5.47.72.49.51.82,1.11,1.24,1.66.84,1.03,1.48,2.2,2.05,3.37-.03.14-.13.23-.24.18-.24-.12-.48-.25-.66-.45-.77-.8-1.7-1.43-2.4-2.33-.08-.1-.28-.1-.41-.14-.27.29-.2.63-.17.93.03.28.21.49.41.68.45.45.9.89,1.36,1.34.18.19.36.4.57.56.82.58,1.64,1.18,2.5,1.71.72.45,1.51.77,2.32,1.03.45.14.92.24,1.46.38.53-.14,1.16-.22,1.74-.45.68-1,1.63-1.54,2.74-1.85.47-.13.95-.14,1.42-.1.66.06,1.24-.1,1.84-.39.68-.35,1.24-.82,1.75-1.35.51-.54,1.01-1.11,1.46-1.7.49-.65,1.05-1.2,1.64-1.74,1.19-1.07,2.39-2.11,3.61-3.13.87-.72,1.87-1.22,2.9-1.65.07-.04.18.05.28.07,0,.35-.18.62-.37.87-1.11,1.5-2.3,2.94-3.78,4.08-.72.56-1.42,1.11-2.12,1.69-.16.13-.29.3-.39.49-.05.07-.03.2,0,.3.02.14.2.23.37.21.38-.02.72-.16,1.02-.4.85-.63,1.71-1.26,2.55-1.91.25-.18.51-.38.72-.61,2.33-2.44,2.01-1.64,3.74-5.09.14-.29.33-.54.49-.81.93-.34,1.75-.83,2.55-1.37.3-.21.64-.38.97-.53.81-.39,1.64-.76,2.42-1.12.24.03.28.21.23.36-.13.42-.43.74-.87.86-.52.15-.99.39-1.45.63-.1.06-.19.13-.24.21-.04.08-.04.19-.02.3.21.1.32.12.41.11.32-.06.63-.13.94-.18.17.15.2.26.17.34-.39.76-1.01,1.36-1.58,1.98-.72.8-1.39,1.62-1.93,2.53-.7,1.15-1.62,2.1-2.61,2.99-.72.65-1.51,1.19-2.39,1.57-.72.32-1.42.71-2.19.95-.56.17-1.07.45-1.61.7-.09.04-.17.12-.23.21-.05.08-.1.21-.06.29.03.08.13.16.21.21.1.05.21.09.31.07.26-.02.53-.06.78-.14,1.63-.48,3.22-1.07,4.7-1.92.37-.21.75-.44,1.05-.72.86-.8,1.73-1.58,2.41-2.54.37-.52.71-1.06,1.07-1.59.27-.38.53-.8,1.01-.99.14.08.29.14.42.23.19.12.43.15.6.04.87-.54,1.89-.67,2.87-.92.13-.04.29.03.49.06-.08.17-.12.33-.21.45-.67.82-1.36,1.62-2.02,2.46-.4.51-.84.96-1.38,1.32-.35.24-.68.51-1.04.73-.64.41-1.17.92-1.69,1.46-.53.58-1.07,1.18-1.62,1.8-.45.22-.93.45-1.4.68-.57.29-1.13.57-1.74.78-.21.06-.38.4-.36.65.02.16.08.3.1.45.04.26-.15.54-.41.61-1.2.14-2.24.43-3.32.27-.32-.06-.63.03-.93.14-.47.17-.68.67-.5,1.17.05.15.13.29.18.45.04.12-.08.36-.2.39-.41.13-.8.24-1.24.2-.53-.05-1.06-.05-1.59-.06-.15,0-.36.29-.33.49,0,.11.19.32.3.34.1.02.21.06.31.05.31-.02.63-.07.88-.1.57.2,1.07.37,1.57.55.25.1.33.41.18.67-.13.24-.33.41-.64.52-.42,0-.9.02-1.33.02q-.96-.45-1.86-.19c-.25.07-.51.14-.77.18-.15.02-.31-.02-.46-.04-.22-.25-.43-.48-.62-.69-.78-.41-1.48.1-2.16.1-.41.24-.78.45-1.15.67-1.25.78-2.2,1.83-2.85,3.16-.07.14-.14.28-.23.41-.13.2-.33.26-.55.26-.21-.02-.42-.06-.63-.11-.46-.12-.92-.3-1.38-.34-.9-.09-1.8-.21-2.63-.13-.48.15-.87.29-1.29.4-.82.18-1.56.52-2.25,1.01l1.9.67c.34-.14.71-.25,1.08-.36.72-.21,1.45-.25,2.2-.12,1.46.25,2.91.57,4.19,1.38.15.61.05.83-.55,1.09-1.15-.64-2.45-.91-3.71-1.14l-.33.15,3.17,1.1,6.07,1.71,3.1-.66c.35-.35.71-.7,1.07-1.05.11-.11.26-.16.39-.24h0ZM232.81,31.51c-.03-.21-.06-.37-.07-.52-.02-.1-.02-.21-.02-.3,0-.28.27-.49.52-.41.19.07.37.17.55.28.17.1.2.37.08.52-.24.27-.37.43-.53.57-.06.06-.21.14-.26.11-.12-.06-.2-.19-.26-.25h0ZM158.64,51.95c-1.04.54-1.98.96-2.95,1.31-.1-.3-.06-.41.02-.46.84-.56,1.79-.81,2.94-.84h0ZM84.11,61.82c-.07.1-.11.28-.22.35-.17.12-.38.18-.59.22-.38.08-.85-.28-.89-.69-.02-.14.06-.32.15-.43.22-.26.56-.3.87-.14.29.14.51.36.68.69h0ZM131.52,63.06c0,.41.03.82.02,1.23,0,.21-.04.41-.09.6-.06.19-.13.41-.37.46-.15.03-.29-.16-.33-.43-.09-.64,0-1.24.25-1.83.03-.08.16-.14.24-.16.09,0,.18.07.28.12h0ZM96.39,43.92c.19-.07.33-.14.49-.18.57-.13,1.12.06,1.69.14-.02.41-.28.66-.59.86-.22.14-.48.21-.82.08-.21-.25-.48-.55-.77-.89h0ZM134.45,61.65c.42.28.9.4,1.17.83-.44.16-.75.21-1.06.25-.64.06-1.11-.21-1.44-.81.38-.21.8-.25,1.33-.26h0ZM225.84,25.43c.45.29.57.73.58,1.23,0,.33-.25.58-.6.57-.31-.02-.65.02-.87-.42.21-.46.39-1,.89-1.38h0ZM87.93,61.7c-.13.57-.45.87-.88.96-.36.07-.73.07-1.11.11-.1,0-.33-.2-.32-.32,0-.1.04-.2.08-.29.85-.4,1.47-.47,2.23-.46h0ZM159.24,49.91c0,.14.06.32,0,.43-.24.35-.87.62-1.23.49-.42-.17-.85-.34-1.09-.79q1.12-.33,2.32-.13h0ZM53.17,23.09c-.47-.11-.84-.4-1.23-.66-.02-.21.03-.34.1-.37.83-.35,1.17-.37,2.18-.11-.28.47-.59.88-1.06,1.15h0ZM116.07,46.26c-.08-.17,0-.29.12-.39.08-.06.19-.1.29-.11,1.05-.1,2,.18,2.83.84.06.05.13.17.11.25-.02.11-.13.16-.25.14-.92-.25-1.85-.47-2.79-.61-.1,0-.2-.07-.29-.11h0ZM110.59,45.28c-.06-.12-.04-.23.07-.28.14-.06.3-.17.44-.14.83.11,1.66.25,2.49.4.06.02.13.16.13.23,0,.1-.06.2-.13.27-.07.06-.19.13-.29.11-.83-.14-1.66-.26-2.48-.42-.09-.02-.15-.11-.23-.17h0ZM185.71,11.68c-.33.51-.76.96-1.26,1.34-.1.07-.36-.05-.38-.17-.08-.41-.15-.83-.21-1.24-.03-.18.21-.39.41-.39.42,0,.84,0,1.23.18.08.03.13.16.21.28h0ZM131.7,58.15c-.21.06-.41.06-.6-.06-.14-.09-.11-.45.03-.73.15-.29.36-.53.64-.67.29-.11.6-.19.9-.25.06-.02.21.1.22.16.06.44-.13.81-.36,1.16-.05.1-.15.16-.25.19-.19.08-.4.14-.6.21h0ZM79.57,66.95c-.3.18-.65.4-1.01.6-.1.05-.21.06-.31.06-.08-.02-.21-.09-.21-.14,0-.53.15-1.02.48-1.44.15-.19.38-.33.61-.45.19-.12.4-.06.55.13.1.41.15.8-.1,1.26h0ZM133.87,53.61c.64-.21,1.31-.36,2-.39.31.03.54.25.59.45.1.39-.12.76-.5.83-.21.05-.42.09-.63.09-.61,0-1.12-.25-1.45-.79v-.18ZM91.72,44.53c.08-.13.14-.3.25-.35.41-.16.83-.11,1.25-.08.47.02.77.3,1.03.65.08.1,0,.38-.11.41-.26.06-.51.12-.77.16-.5.08-.94-.04-1.3-.42-.1-.11-.21-.23-.34-.37h0ZM222.84,63.14q1.47.02,1.91.3c-.21.72-.67,1.02-1.42.89-.36-.05-.72-.06-1.06-.1-.05-.13-.14-.23-.11-.3.08-.38.31-.64.68-.8h0ZM97.58,41.46c.1.06.15.08.18.12.35.37.24.87-.2.97-.67.16-1.35.11-2.02.14-.12,0-.19-.09-.19-.19,0-.1,0-.22.06-.29.27-.41.72-.6,1.16-.81.34.02.7.06,1.01.07h0ZM221.12,65.26c.45.05.87.07,1.28.13.33.04.45.46.2.73-.17.18-.39.33-.58.5-.6-.02-1.19.04-1.74-.21-.07-.02-.11-.13-.17-.19.22-.38.54-.65,1.01-.96h0ZM133.3,60.28c-.1.3-.37.39-.62.37-.41-.02-.82-.1-1.22-.19-.28-.07-.39-.33-.45-.59-.04-.17.1-.46.24-.53.39-.16.8-.24,1.21-.25.1,0,.2.05.3.09.28.31.48.67.54,1.09h0ZM141.19,50.96c.02.18-.05.32-.21.37-.85.27-1.74.38-2.62.51-.24-.07-.33-.12-.4-.2-.08-.09,0-.32.1-.41.09-.06.17-.15.26-.16.77-.13,1.54-.25,2.32-.35.21-.03.41.08.54.24h0ZM135.02,52.3c-.48.06-.89.14-1.3.17-.15.02-.3-.03-.46-.06-.11-.02-.22-.24-.23-.37,0-.11.02-.19.13-.25.1-.04.18-.11.28-.13.88-.14,1.75-.27,2.63-.41.26.06.38.26.36.4-.05.24-.19.38-.4.45-.34.1-.71.15-1,.21h0ZM248.02,20.79c.53.04.92.27,1.21.68.18.25.17.62,0,.88-.29.38-.66.67-1.07.89-.11.06-.37-.05-.39-.16-.02-.87-.03-1.6.26-2.29h0ZM118.85,55.61c-.53-.11-1.09-.25-1.66-.38-.51-.18-.63-.62-.38-.97.06-.08.16-.13.28-.21.74.11,1.55-.1,2.3.37.05.46.05.92-.54,1.19h0ZM44.59,19.85c.14-.27.25-.37.37-.48.6-.6,1.43-.84,2.11-1.33.08-.06.19-.09.29-.11.07.94-.4,1.5-.92,2.02-.14.14-.37.2-.57.24-.43.1-.84-.03-1.21-.24l-.06-.1ZM160.41,33.54c.11-.07.22-.2.37-.25.45-.15.9-.28,1.35-.39.14-.03.31,0,.45.05.1.03.02.35-.15.56-.33.41-.68.8-1.01,1.21-.29.35-.68.48-1.12.48-.08,0-.16-.07-.22-.1.11-.51.22-1.02.34-1.55h0ZM141.45,49.13c-.07.1-.1.23-.18.27-.64.27-1.3.37-1.99.37.24-.68.54-.98.82-1.3.32-.37.34-.88.55-1.29.41-.08.56-.02.7.06,0,.33,0,.64,0,.96.02.32.06.63.1.93h0ZM240.54,14.38c-.14-.02-.31-.02-.44-.1-.72-.34-1.34-.82-1.98-1.27-.1-.07-.1-.18-.04-.27.27-.35.61-.56,1.04-.64.31-.06.68.09.8.36.19.43.38.85.56,1.3.08.19.13.4.05.62h0ZM252,35.77c.02.1.09.2.07.29-.06.41-.29.72-.65.84-.71.21-1.44.35-2.17.51-.18.04-.37-.21-.36-.42.02-.36.19-.62.48-.78.62-.33,1.64-.48,2.63-.44h0ZM81.04,60.1c.06.28.04.41-.02.46-.77.56-1.68.84-2.55,1.19-.16.06-.42-.11-.49-.3-.21-.53-.13-.8.37-1.03.29-.13.58-.25.88-.37.4-.15.81-.18,1.23-.06.2.04.41.07.59.1h0ZM154.28,35.61c.07-.29.3-.41.57-.48,1.11-.31,2.23-.61,3.35-.91,0,.67-.36.99-.68,1.33-.22.23-.5.37-.81.46-.45.14-.91.23-1.4.21-.46-.02-.8-.21-1.02-.61h0ZM121.83,48.93c.04.53-.06.88-.15,1.23-.06.25-.33.45-.59.41-.73-.09-1.46-.19-2.2-.29-.23-.02-.38-.37-.29-.63.09-.26.25-.49.5-.56.25-.09.51-.14.77-.14.31,0,.63.09.94.09s.62-.06,1.02-.1h0ZM216.63,69.97c.56-.92,1.23-1.5,1.88-2.11.1-.1.27-.18.41-.21.63-.11,1.26-.14,1.89.1-.02.16,0,.35-.06.45-.18.25-.41.49-.64.71-.18.18-.44.25-.71.31-.43.07-.84-.05-1.25-.09-.22,0-.41.08-.56.24-.18.18-.33.41-.53.57-.08.08-.28.02-.43.02h0ZM136.96,55.64c.41.23.73.57,1.04.94.09.1,0,.36-.12.38-1.03.21-2.05.41-3.08.6-.34-.02-.49-.32-.41-.5.24-.49.56-.9,1.04-1.15.47-.24.98-.39,1.53-.27h0ZM240.38,50.5c0-.09,0-.2.02-.28.37-.61.91-1.02,1.61-1.19.81-.21,1.65-.36,2.4-.75.13-.06.32-.02.47,0,.22.03.36.29.25.46-.19.32-.44.59-.81.71-.2.07-.4.14-.61.17-1.03.22-2.05.48-3.03.87-.1.03-.21,0-.31,0h0ZM110.26,46.63c.56.06,1.08.02,1.58.16.44.13.8.23.66.85-.1.47-.1.94.06,1.39.03.1.02.21.03.32,0,.12-.18.29-.33.27-.15-.02-.29-.08-.46-.13-.07-.14-.14-.29-.21-.42-.06-.14-.14-.28-.19-.39-.36-.27-.72-.48-1.03-.76-.33-.31-.46-.7-.12-1.29h0ZM229.16,21.15c.18-.11.35-.14.46,0,.57.64,1.06,1.34,1.43,2.1.09.19.12.41.17.61-.13.19-.23.27-.3.26-.68-.19-1.24-.6-1.78-1.01-.29-.02-.55-.03-.81-.06-.17,0-.3-.12-.37-.26-.07-.15.06-.42.25-.53.18-.1.37-.17.56-.27.14-.3.28-.58.39-.84h0ZM86.57,50.27c-.14.29-.37.41-.64.44-.33.03-.64-.02-.9-.24-.11-.09-.2-.24-.25-.38-.05-.14-.06-.31-.05-.47.1-.77.47-1.4,1.12-1.84.31-.2.64-.36.97-.53.17.12.22.25.19.29-.49.81-.61,1.69-.43,2.6l-.02.13ZM141.96,31.44c.46.29.92.54,1.35.84.42.31.82.67,1.11,1.12.06.11-.04.37-.17.38-.2.05-.41.11-.61.1-1.13-.13-2.15-.54-3.02-1.27-.14-.12-.12-.27-.05-.45.45-.23.91-.47,1.39-.72h0ZM141.71,53.74c-.52-.14-1.08.04-1.64.14-.42.06-.84.17-1.26.24-.15.02-.31.02-.47,0-.29,0-.62-.6-.45-.88.07-.12.21-.25.36-.28,1.23-.27,2.48-.55,3.75-.68.1,0,.21,0,.32,0,.12,0,.25.22.2.36-.17.41-.37.76-.8,1.09h0ZM161.84,44.29c-.12.11-.18.23-.27.25-.71.21-1.43.39-2.15.58-.29.03-.48-.16-.45-.28.16-.86.68-1.54,1.15-2.24.37-.24.78-.33,1.2-.2.22.5.2.77.25,1.03.06.3.17.59.25.86h0ZM112.51,51.9c.26-.61.77-.78,1.31-.8.79,0,1.58-.1,2.37.06.15.02.31.05.45.09.34.09.49.67.23.92-.1.1-.23.21-.37.28-.33.17-.7.26-1.07.22-.88-.1-1.78-.19-2.64-.47-.12-.04-.19-.21-.28-.31h0ZM85.61,64.42c-.07.08-.13.19-.21.22-.73.42-1.5.76-2.28,1.06-.49.17-.99.32-1.5.46-.22.06-.59-.26-.53-.46.08-.3.17-.61.32-.88.09-.18.29-.33.47-.4.64-.23,1.31-.34,2-.35.47,0,.95.02,1.42.05.18.02.25.15.31.3h0ZM158.2,40.32c.62-.17,1.26-.4,1.93-.53.37-.06.72-.14,1.09-.2.39-.07.72.1.98.37.11.13.15.27.13.44-.05.33-.2.6-.54.71-.29.08-.61.14-.92.21-.3.08-.61.19-.99.32-.48-.34-1.11-.48-1.63-.83-.15-.1-.13-.27-.06-.49h0ZM83.86,67.66c-.08.91-.3,1.21-1.03,1.38-.26.06-.52.1-.67.14-.23-.04-.33-.04-.43-.08-.72-.29-1.44-.29-2.16-.02-.25.1-.5.18-.76.22-.14.02-.3-.05-.5-.09.09-.16.14-.34.25-.41.86-.53,1.81-.87,2.79-1.12.14-.04.31-.06.47-.05.68,0,1.37,0,2.05.02h0ZM89.94,41.41c.37-.41.83-.65,1.36-.76,1.24-.25,2.49-.46,3.76-.64.15-.02.32.03.46.08.06.02.09.13.13.2-.58.39-1.15.76-1.75,1.16-.64.1-1.32.22-1.95.33-.36-.06-.67-.15-.98-.17-.32-.02-.61.17-.94.07-.03-.09-.06-.18-.09-.28h0ZM216.7,64.36c.03-.1.05-.22.12-.29.53-.53,1.15-.92,1.88-1.19.59.2,1.19.45,1.84.29.2.14.27.25.25.31-.12.32-.37.53-.7.59-.41.08-.84.09-1.25.16-.14.02-.28.16-.38.27-.05.05-.07.21-.02.27.13.17.29.29.43.45.06.07.07.19.1.28-.19.33-.42.62-.83.67-.42-.17-.27-.67-.54-.92-.31-.29-.6-.6-.89-.9h0ZM92.07,54.33c-.09.24-.16.49-.25.73-.08.18-.41.28-.55.18-.53-.35-1-.76-1.44-1.26.07-.82.29-1.57.72-2.25.47-.23.94-.48,1.44-.72.2.56.29,1.12.14,1.67-.11.1-.19.16-.29.21-.74.4-.76.62-.16,1.08.13.1.24.21.38.35h0ZM157.28,42.14c-.26.17-.58.21-.89.26-.83.15-1.65.31-2.47.45-.45.08-.82-.11-1.09-.48-.06-.08-.11-.18-.17-.29.06-.13.13-.26.21-.43.91-.21,1.83-.41,2.75-.61.15-.03.31-.02.45-.03.46.19.81.51,1.17.81.06.05.03.19.05.3h0ZM89.63,48.05c.09.1.17.27.3.3.35.1.72.14,1.08.24.12.05.21.21.31.31-.07.13-.1.25-.17.31-.33.25-.67.51-1.03.73-.17.11-.39.17-.6.19-.49.04-.94-.11-1.33-.42-.29-.21-.41-.65-.25-.99.32-.68.82-1.23,1.36-1.74.1-.1.35-.1.44.02.06.07.13.18.11.27-.06.25-.14.5-.22.79h0ZM143.02,30.42c.29-.29.55-.54.81-.8.19-.17.49-.17.73-.02.84.59,1.47,1.34,1.93,2.25.17.34.09.72-.16,1.04-.11.16-.41.22-.55.08-.79-.86-1.72-1.54-2.63-2.26-.03-.03-.04-.1-.14-.3h0ZM242.34,39.69c0-.1-.04-.21,0-.29.08-.19.2-.37.29-.56.26-.5.66-.81,1.21-.93.62-.14,1.22-.33,1.8-.58.49-.2,1-.3,1.5-.45.09-.02.2.05.31.07.07.45-.09.82-.37,1.14-1.28.5-2.56,1-3.82,1.47-.29.11-.6.25-.92.12h0ZM114.61,60.2c-.32.13-.57.02-.83-.02-.72-.1-1.27-.46-1.66-1.07-.2-.31-.39-.62-.59-.93-.1-.28-.08-.56,0-.6.09-.03.2-.09.29-.07.41.06.83.12,1.24.21.51.13,1.01.27,1.51.42.21.06.36.2.43.49-.15.49-.13,1.09-.39,1.57h0ZM160.05,38.73c-.64.24-1.23.47-1.83.66-.24.08-.51.11-.77.14-.25.03-.49-.27-.41-.52.25-.84.68-1.53,1.32-2.12.41-.38.9-.53,1.45-.53.14,0,.34.16.34.27-.03.58-.06,1.15.06,1.72.02.13-.1.29-.15.39h0ZM236.47,53.93c.24-.76.64-1.21,1.27-1.43.2-.07.43-.1.59-.23.57-.45,1.26-.56,1.92-.67.73-.11,1.44-.3,2.13-.54.1-.03.21-.05.3-.03.09.03.17.11.24.18-.05.28-.11.42-.21.53-.35.41-.84.63-1.31.85-.42-.12-.84-.1-1.23.1-.37.18-.74.39-1.12.57-.76.37-1.54.58-2.57.67h0ZM110.73,51.64c-.32-.1-.57-.21-.82-.27-.29-.06-.62.11-.79.41-.03.07-.02.22.02.29.09.14.2.27.33.34.36.21.76.37,1.11.59.32.19.58.46.65.85.02.09-.04.2-.07.29-.49-.09-.83-.22-1.18-.33-.41-.13-.74-.4-1.04-.68-.47-.45-.78-1-1.08-1.54-.13-.21-.11-.51-.14-.77-.02-.17.19-.43.37-.47.1-.03.21-.08.3-.06.94.1,1.89.12,2.76.48.11.39-.06.64-.41.89h0ZM151.28,46.29c-.27.05-.53,0-.76-.15-.89-.6-1.7-1.29-2.17-2.28-.2-.41-.08-.63.42-.76.52-.13,1.03-.28,1.54-.39.2-.05.43-.06.63-.02.13.02.29.18.31.31.02.12-.04.35-.14.41-.27.16-.58.25-.86.38-.29.15-.5.38-.62.7-.06.17.1.48.26.51.15.02.32.03.47.02.68-.14,1.34-.33,1.98-.59.21-.09.4.02.46.33-.4.44-.82.92-1.25,1.38-.07.08-.18.11-.28.16h0ZM137.17,60.06c-.63.1-1.09.18-1.57.24-.28.03-.52-.08-.69-.31-.15-.21-.27-.45-.38-.68-.13-.26,0-.58.26-.63.99-.2,1.98-.39,2.96-.57.15-.02.32,0,.47.03.09.02.21.1.23.18.1.3.17.61.21.92.03.25-.17.55-.41.6-.41.09-.84.18-1.09.22h0ZM55.85,63.92c0,.1,0,.22-.05.29-.06.06-.17.14-.27.13-.69-.03-1.38,0-2.04.2-.3.1-.6.22-.89.33-.22.09-.42.06-.57-.12-.21-.24-.43-.48-.61-.72-.13-.18-.14-.41-.06-.61.12-.31.33-.56.62-.69.25-.1.5-.18.76-.26.54-.19,1.05-.11,1.46.32.21.24.45.42.8.48.37.07.64.36.86.66h0ZM116.53,50.08c-.62-.26-1.2-.49-1.77-.75-.19-.09-.37-.21-.53-.34-.55-.41-.44-1.18-.06-1.54.11-.1.25-.17.35-.23,1.03.19,2.01.37,2.99.56-.02.78-.24,1.27-.42,1.75-.24.28-.4.41-.56.55h0ZM242.06,10.65c.39-.26.84-.42,1.28-.6.42-.18.87-.14,1.21.13.72.54,1.41,1.12,1.95,1.87.31.43.45.89.5,1.62-.23,0-.34-.03-.42-.1-1.23-1.03-2.61-1.81-4.12-2.36-.14-.05-.28-.14-.38-.25-.06-.06-.02-.18-.02-.3h0ZM35.63,22.1c-.04.14-.08.3-.13.44-.23.21-.35.33-.49.37-.83.2-1.63.47-2.48.59-.68.1-1.33.29-1.98.54-1.46.53-2.95.88-4.51.6-.09-.16-.12-.31.07-.38,1.09-.43,2.24-.64,3.38-.88.41-.08.83-.16,1.21-.35.53-.27,1.11-.4,1.75-.41.2.04.46.09.71.18.66.23,1.09.14,1.33-.67.02-.08.14-.14.21-.21.3-.02.63-.07.92.16h0ZM155.24,37.75c.26-.21.49-.41.73-.6.28.03.36.13.31.24-.4.8-.57,1.67-.86,2.55-.12.06-.25.16-.39.2-.88.2-1.74.39-2.62.58-.27.02-.45-.19-.44-.31.02-.21.05-.42.1-.63.06-.32.23-.59.5-.78.17-.11.33-.25.52-.33.72-.32,1.45-.61,2.15-.91h0ZM118.78,61.14c-.57-.08-1.1-.15-1.62-.22-.16-.02-.31-.06-.46-.09-.43-.1-.61-.36-.59-.8.02-.5.2-.92.61-1.23.16-.12.44-.17.59-.06.17.12.33.25.5.37.42.34.91.3,1.22-.13.06-.09.07-.2.13-.29.21-.33.49-.37.79-.1.23.21.46.43.67.66.06.06.05.2.08.35-.33.22-.67.46-1,.72-.33.26-.63.55-.92.81h0ZM54.18,48.95c0,.17.04.33,0,.48-.1.3-.25.59-.37.88-.09.2-.22.35-.47.43-.33-.08-.69-.14-1.06-.22-1.15-.27-2.29-.34-3.45,0-.19.06-.41.05-.61.08-.02-.14-.07-.26-.04-.33.2-.39.51-.66.92-.84,1.48-.66,3.03-.84,4.64-.64.15.02.29.11.44.18h0ZM19.16,27.02c.1.45.13.81.25,1.16.14.4.35.77.52,1.16-.12.18-.24.27-.29.25-.73-.31-1.48-.6-2.18-.98-1.3-.69-2.59-1.45-3.87-2.18-.09-.05-.14-.18-.19-.25.08-.06.16-.17.25-.18.66-.08,1.24.13,1.77.56,1.2.15,2.4.29,3.76.46h0ZM236.74,16.31c.22.42.44.78.61,1.17.1.25.14.5.21.76-.06.24-.17.27-.28.21-.42-.32-.85-.63-1.27-.96-.33-.26-.64-.56-.96-.82-.25-.21-.57-.19-.88,0-.24.13-.41.32-.57.55-.25.37-.36.76-.25,1.2.09.36.19.72.28,1.07-.14.19-.26.26-.33.24-.54-.21-1.07-.44-1.61-.69-.07-.03-.09-.18-.13-.3.52-.64,1.07-1.28,1.57-1.96.49-.67,1.12-1.12,1.84-1.41.78.06,1.3.51,1.77.95h0ZM154.59,43.9c1.14-.34,2.17-.55,3.22-.71.18.14.23.25.2.32-.23.54-.49,1.07-.72,1.59-.23.53-.6.86-1.16,1-.98.24-1.98.39-2.93.76-.23-.14-.25-.24-.18-.32.17-.2.35-.4.54-.58.56-.53.95-1.15,1.03-2.05h0ZM138.81,47.5c-.57.99-.95,1.48-1.98,2.52-.86.16-1.74.3-2.63.45-.15.02-.32.02-.47,0-.09-.02-.19-.1-.23-.18-.03-.07.02-.19.07-.28.05-.08.12-.17.21-.23.34-.24.69-.47,1.07-.72.21-.4.43-.82.67-1.26.95-.34,1.93-.51,2.94-.51.12,0,.25.14.36.22h0ZM245.49,44.5c.91-.42,1.85-.53,2.79-.68.26.06.33.14.29.25-.21.73-.68,1.31-1.15,1.87-.1.11-.23.21-.37.29-.47.23-.93.53-1.44.65-.81.21-1.61.49-2.41.74-.17-.12-.23-.25-.19-.3.69-1.07,1.64-1.92,2.49-2.83h0ZM38.47,30.76c-.79-.16-1.36-.25-1.93-.37-.48-.1-.88-.36-1.22-.71-1.01-1.05-1.66-2.29-1.97-3.72-.12-.61.03-.89.62-1.08.15-.05.31-.09.46-.12.23-.05.45.07.5.28.16.5.18,1.03.18,1.56.02,1.15.58,2.01,1.51,2.63.35.24.73.41,1.11.63.18.11.37.2.53.33.09.09.1.27.2.57h0ZM66.23,61.7c.96.7,1.74,1.48,2.54,2.26.11.11.21.24.29.38.14.21.06.38-.21.55-.68,0-1.42-.14-2.14-.26-.69-.11-1.32-.38-1.95-.65-.41-.16-.73-.43-1.03-.73-.13-.14-.1-.46.06-.57.09-.06.16-.14.26-.18.53-.23,1.06-.46,1.6-.68.14-.06.31-.06.58-.12h0ZM58.59,41c-.1-.02-.21-.03-.3-.06-1.14-.47-2.34-.65-3.56-.68-.84-.02-1.69,0-2.53.02-.14,0-.33-.18-.3-.3.08-.31.16-.61.25-.92.1-.28.34-.39.62-.41,1.98-.19,3.86.24,5.73.92.16.29.31.56.45.84.1.2-.04.41-.36.59h0ZM153.7,47.72c1.02-.25,1.89-.45,2.77-.66.38-.1.74-.02,1.07.19.49.31.96.62,1.45.94-.06.19-.13.25-.24.29-1.5.33-2.99.73-4.47,1.19-.25.08-.51.16-.77.17-.5,0-.94-.16-1.2-.63-.09-.17-.07-.49.06-.59.48-.33.96-.65,1.32-.9h0ZM131.54,50.74c-.31,0-.57-.02-.83.02-.28.03-.48.21-.64.43-.15.21-.06.6.18.67.25.06.52.1.77.15.23.06.35.22.39.58-.75.41-.82.42-1.96.33-.25-.33-.41-.73-.78-.98-.16-.1-.28-.33-.34-.52-.21-.72-.02-1.35.48-1.89.14-.15.34-.25.53-.32.19-.07.42-.1.62-.08.45.04.84-.09,1.23-.27.24-.1.45-.25.69-.38.47-.23.96-.34,1.54-.25-.23.46-.64.72-.99,1.03-.4.38-.5.93-.89,1.48h0ZM51.73,29.63c-.28-.32-.49-.68-.56-1.1-.02-.08.06-.24.11-.26,1.05-.39,2.11-.65,3.25-.53.47.05.95.05,1.45.06.67.33,1.09.95,1.62,1.46.15.39.45.72.54,1.13-.29.04-.47-.04-.66-.14-.48-.24-.98-.42-1.5-.49-.95-.12-1.89-.28-2.83-.08-.47.1-.95.14-1.42-.04h0ZM152.88,25.43c-.17-.11-.33-.24-.53-.33-.58-.27-1.07-.67-1.48-1.15-.06-.08-.1-.2-.11-.29-.05-.38.52-.82.88-.68.6.24,1.15.54,1.45,1.15.21.4.51.66.88.89.12.08.2.22.27.31,0,.53-.18.96-.41,1.38-.16.31-.41.49-.75.51-.31.02-.65.06-.94-.03-.96-.29-1.88-.7-2.72-1.27-.35-.23-.68-.5-.81-.94.11-.21.31-.25.52-.3.44-.14.83-.07,1.19.21.29.23.57.47.86.7.29.24.64.34,1.01.41.29.05.47-.08.68-.57h0ZM97.09,57.53c.33.21.68.45,1.03.68.12.08.23.35.16.4-.12.1-.27.16-.41.22-.94-.1-1.72-.19-2.46-.29-.11-.11-.23-.17-.25-.26-.13-.44-.41-.72-.86-.84-.2-.06-.37-.18-.53-.25-.17-.49-.36-.93-.5-1.38-.16-.55-.05-1.04.32-1.49.24-.27.75-.3.99-.05.33.35.61.75.98,1.03.47.38.81.84,1.07,1.35.14.29.3.56.48.86h0ZM248.28,39.06c.6-.22,1.19-.45,1.78-.67.2-.07.41-.1.61-.14.25-.05.53.21.49.48-.02.1,0,.22-.03.31-.35.95-.72,1.87-1.28,2.71-.21.32-.5.56-.88.64-.72.16-1.45.31-2.17.45-.08.02-.18-.06-.28-.1,0-.1-.03-.21,0-.3.37-1.25,1.21-2.22,1.77-3.37h0ZM49.27,48.02c-.06-.13-.18-.23-.16-.3.14-.61.41-1.19.74-1.73.07-.13.23-.23.37-.29.29-.1.61-.15.92-.24.77-.21,1.56-.23,2.35-.18.64.05,1.25.18,1.79.57.18.13.3.29.34.57-.21.36-.23.86-.63,1.18-.76.3-1.44-.15-2.25-.18-.49.08-1.06.2-1.63.26-.62.08-1.22.36-1.84.34h0ZM47.94,67.16c-.24-.15-.37-.37-.47-.63-.26-.75-.53-1.5-.77-2.26-.09-.27.02-.53.22-.72.15-.14.34-.25.53-.35.42-.22.85-.42,1.27-.65.24-.12.46-.26.68-.41.29-.18.43-.45.46-.79,0-.1,0-.21,0-.32.05-.48.23-.66.65-.77.71-.18,1.37-.13,1.97.33.15.12.15.25.09.47-.17.06-.36.15-.56.21-.6.14-1.04.51-1.46.92-.43.43-.69.93-.72,1.56,0,.31.06.64-.16,1.02-.29.25-.67.53-1.01.86-.36.33-.62.73-.63,1.25,0,.1-.06.18-.1.29h0ZM47.92,22.78c1.57.04,2.49.29,3.57,1.07.87.62,1.73,1.23,2.61,1.81.18.11.26.31.19.39-.06.08-.14.18-.22.2-1.13.25-2.27.5-3.41.73-.27.06-.53-.06-.74-.23-.45-.36-.9-.72-1.34-1.09-.06-.06-.06-.23,0-.3.03-.08.16-.14.25-.16.74-.11,1.46-.07,2.19.12.12.03.3-.19.27-.31-.14-.48-.39-.88-.81-1.14-.27-.18-.59-.25-.91-.2-.31.06-.61.16-.91.27-.29.1-.57.29-.88.37-.64.14-1.26.1-1.79-.38.1-.08.17-.18.25-.19.26-.03.53-.02.79-.02.44,0,.68-.23.74-.66.02-.1.1-.18.15-.26h0ZM51.8,32.28c-.03-.12-.06-.17-.06-.21.06-.76.35-1.14,1-1.22.9-.1,1.8-.1,2.69.03,1.04.15,1.91.6,2.34,1.65.07.18.38.18.55.02.14-.15.23-.36.46-.42.35.45.4.85.29,1.27-.03.1-.14.16-.24.27-.18-.05-.39-.06-.58-.13-.76-.28-1.56-.35-2.35-.34-.9,0-1.8-.06-2.7.1-.15.03-.31-.02-.5-.02-.31-.34-.63-.69-.9-1h0ZM70.49,56c.15.04.33.04.43.13.87.78,1.83,1.43,2.83,2.04.31.19.61.4.89.64.1.09.15.28.15.43,0,.33-.13.62-.45.78-.24.11-.49.2-.73.3-1.39-.06-2.87-.32-4.04-.72-.14-.06-.28-.14-.42-.21-.15-.1-.17-.25-.17-.46.26-.4.59-.82.83-1.29.27-.51.45-1.06.68-1.62h0ZM92.55,58.49c-1.35.67-1.79.84-2.8,1.03-.13.02-.28-.07-.44-.11.02-.18.02-.34.04-.5.06-.6-.08-1.15-.35-1.69-.29-.56-.69-.93-1.38-.84-.1.02-.21.02-.32,0-.68-.09-1.2-.38-1.42-1.16.1-.24.16-.57.33-.82.34-.47.65-.98,1.01-1.42.36-.45.81-.83,1.2-1.26.07-.08.28-.04.49-.05-.06.25-.1.46-.15.65-.15.52-.29,1.03-.45,1.53-.16.51-.06.94.35,1.29.93.79,1.85,1.6,3.02,2.02.47.19.76.56.92,1.04.02.08-.02.19-.04.29h0ZM241.41,41.39c1.28-.48,2.46-.92,3.64-1.37.14-.05.3-.1.45-.14.2-.06.4-.11.6,0,0,.1.06.22.02.3-.39.81-.8,1.61-1.2,2.4-.1.19-.17.4-.31.55-.17.2-.35.42-.57.53-.58.26-1.17.49-1.77.68-.4.13-.8.24-1.19.41-.73.29-1.49.54-2.24.79-.13-.14-.15-.26-.1-.33.2-.25.42-.48.64-.72.63-.71,1.22-1.44,1.58-2.36.09-.24.27-.45.46-.74h0ZM157.56,53.57c.51-.05.97-.13,1.44-.17.21,0,.43-.02.63.02.42.09.85.53.74,1.06-.07.39-.24.7-.55.93-.34.25-.7.48-1.03.7-.04.13-.09.23-.09.33,0,.21.02.41.03.6.54.26.92.33,2.18.36.25-.22.3-.56.45-.83.2-.37.4-.75.64-1.11.27-.39.62-.72,1.05-.95.41-.24.83-.46,1.27-.72.21-.53.33-1.07.3-1.64-.42-.25-.85-.28-1.27-.24-.43.03-.84.06-1.26-.03-.37-.07-.76,0-1.08.18-.57.29-1.16.5-1.76.72-.54.19-1.07.44-1.6.64l-.09.15ZM51.37,41.72c.51-.33.98-.37,1.46-.39,1.54-.06,3.07.1,4.54.6.2.07.4.17.58.28.22.14.42.31.44.64-.37.8-.88,1.55-1.43,2.26-.06.07-.19.09-.28.13-.25-.06-.34-.11-.44-.17-.91-.57-1.91-.91-3-.92-.68,0-1.38.04-2.06.06-.15,0-.29-.06-.45-.1.06-.83.32-1.58.64-2.38h0ZM52.65,37.44c-.17-.88-.06-1.62-.18-2.35.06-.4.31-.64.58-.65.84-.03,1.7-.07,2.54-.06.53,0,1.07.06,1.58.16.72.13,1.44.33,2.08.8.02.21.04.42.04.63,0,.21-.02.42,0,.64.02.26.07.53.09.79.02.21.03.43-.02.63-.03.14-.17.24-.29.37-.33-.09-.63-.18-.93-.25-.98-.25-1.95-.53-2.97-.52-.42,0-.84-.07-1.26-.11-.42-.05-.84.07-1.25-.07h0ZM109.83,55.68c.05.1.09.15.09.2,0,.1,0,.21-.02.31-.14.98.06,1.89.55,2.75.18.31.36.64.54.96.05.1.09.19.14.29.09.17,0,.48-.15.56-.33.18-.66.35-.99.51-.34.18-.63.4-.87.68-.21.25-.32.56-.3.89.06.92.3,1.77.9,2.49.17.21.36.4.52.6.05.08.03.21.06.39-.53.26-.76.78-.87,1.38-.05.26-.14.51-.25.75-.03.06-.21.09-.26.06-.56-.33-.98-.79-1.21-1.33.22-.84.43-1.61.62-2.37.1-.41-.16-.84-.6-.98-.15-.04-.31-.06-.47-.09-.37-.06-.68-.26-.99-.5-.46-.37-.58-.88-.53-1.42.04-.36.42-.44.68-.61.32-.21.67-.32,1.04-.37.73-.12,1.46-.25,2.19-.38.4-.07.58-.53.34-.87-.12-.17-.26-.35-.43-.45-.23-.13-.51-.17-.74-.28-.99-.48-1.54-1.27-1.67-2.36-.05-.41.28-.84.69-.94.68-.15,1.35-.08,1.98.12h0ZM165.84,53.43c.14-.57.29-1.14.42-1.7.13-.53-.14-.97-.67-1.07-.21-.04-.42-.08-.64-.1-.63-.03-1.27-.06-1.9.04-.58.1-1.16.02-1.71-.23-.5-.24-.58-.64-.16-.97.21-.16.43-.31.64-.49.17-.14.19-.37.16-.58-.05-.27-.18-.5-.37-.69-.23-.22-.5-.37-.81-.49-.45-.14-.92-.28-1.35-.44-.18-.07-.15-.25-.11-.45.58-.2,1.17-.41,1.82-.46.29.11.59.21.87.32.65-.29,1.19-.73,1.84-.87.41.06.61.12.82.15.6.1.64.33.38.72-.18.26-.37.53-.52.8-.27.53-.19,1.03.16,1.49.26.35.58.61.99.79.69.29,1.38.55,2.12.65.31.04.62.12.94.18.27.06.38.37.25.64-.06.1-.1.19-.14.29-.29.51-.56,1.01-.92,1.66-.12.12-.34.34-.57.58-.18.18-.34.39-.53.59-.21.22-.51.19-.84-.07-.04-.03-.06-.08-.17-.29h0ZM102.28,43.87c-.49.41-.94.65-1.48.76-.66.13-1.16.48-1.54,1.05-.14.21-.35.37-.51.54.04.14.04.27.1.33.53.54,1.14.94,1.89,1.11.27.06.45.29.54.54s.03.6-.16.73c-.39.27-.8.53-1.2.78-.31.2-.65.36-.96.55-.18.12-.31.29-.37.57.16.27.37.58.53.9.16.33.27.69.39,1,0,.33-.09.56-.31.75-.33.27-.66.53-.97.82-.11.1-.15.27-.22.41.07.1.12.2.19.27.12.1.37.12.43.02.16-.21.3-.43.45-.65.49-.73,1.15-1.23,2.03-1.42.36-.08.72-.18,1.07-.29.25-.06.35-.41.21-.66-.06-.09-.09-.21-.16-.27-.45-.51-.58-1.12-.65-1.77-.06-.51.13-.93.49-1.29.15-.14.33-.26.5-.38.17-.13.38-.21.46-.42,0-.1.04-.23,0-.3-.4-.6-.32-1.23-.19-1.85.14-.64.52-1.17,1-1.6.31-.29.66-.52,1.03-.8-.08-.15-.13-.29-.21-.41-.06-.07-.17-.11-.27-.15-.15-.06-.31-.08-.47-.12-1.13-.27-2.24-.59-3.27-1.17-.18-.1-.4-.16-.6-.23-.1-.03-.35.07-.42.18-.2.28-.23.59-.1.91.08.2.24.34.45.41.52.17,1.03.21,1.57.14.22-.02.41.09.58.23.15.14.17.23.17.8h0ZM51.81,55.47c.43-.02.66-.28.83-.64.15-.32.04-.68-.25-.83-1.33-.69-2.67-.58-4,0-.38.18-.76.37-1.02.82-.03.1-.09.25-.1.4-.06.48-.09.96-.13,1.44-.21.37-.41.73-.58,1.05.02.6.12,1.12.31,1.62.05.13.2.25.33.31.18.09.4.13.54.16.96-.32,1.29-1.16,1.83-1.8.33-.18.65-.37.98-.54.72-.4,1.44-.18,2.16,0,.1.02.2.1.25.17.16.22.37.39.39.68-.03.33-.13.63-.56.72-.73-.14-1.5-.45-2.12-.33-1.49.47-2.25,1.46-2.78,2.62-.3.22-.57.41-.83.58-.17.13-.36.25-.53.36-.18.11-.45-.02-.48-.25-.04-.2-.1-.41-.1-.63-.05-1.27-.08-2.55-.11-3.81,0-.22,0-.44.05-.64.21-.99.44-1.97.67-2.95.06-.25.16-.49.25-.77.7-.29,1.29-.74,1.73-1.27.68-.27,1.32-.32,1.95-.41.2-.03.41,0,.63.02.66.07,1.23.33,1.69.8.21.33.26.7.29,1.07.03.8.06,1.59.1,2.39,0,.13-.07.2-.25.24-.41-.07-.87-.14-1.31-.22-1.08.15-2,.75-2.98,1.03-.36-.4-.43-.49-.37-.69.05-.2.1-.42.22-.58.29-.41.7-.64,1.21-.67.16-.02.32-.04.48-.03.49.02.96.1,1.33.45.07.07.19.1.29.14h0ZM145.13,58.94c-.02.16-.02.33-.06.47-.11.35-.19.72-.35,1.05-.32.63-.36,1.33-.45,2-.07.49.04.96.25,1.4.15.33.37.64.56.96.24.14.47.27.7.41.21.14.5.17.63.54-.03.31-.25.62-.42.94-.19.37-.18.87-.56,1.11-.45.3-.92-.09-1.39-.09-.41,0-.83-.14-1.25-.23-.25-.07-.49-.18-.67-.25-.37-.42-.61-.84-.76-1.3-.24-.73-.21-1.45.26-2.12.31-.44.68-.81,1.05-1.19.3-.29.18-.89-.21-1.09-.23-.11-.47-.24-.73-.29-.67-.16-1.12-.57-1.42-1.17-.3-.64-.42-1.31-.29-2.01.03-.19.36-.33.51-.22.25.17.49.37.72.55.14-.07.25-.09.33-.16.35-.34.36-.77.06-1.12-.18-.21-.4-.36-.67-.41-.25-.04-.52-.07-.75-.1-.41-.4-.65-.89-1.11-1.19-.04-.03,0-.17,0-.3.71-.2,1.43-.36,2.17-.36.13.12.25.22.37.32,0,.28.02.54.03.81.19.43.36.88.57,1.31.37.75.96,1.25,1.82,1.38.21.03.42.05.62.1.14.04.28.15.42.24h0ZM30.07,21.58c-.65.26-1.35.33-2.01.5-.51.14-1.05.2-1.53.41-.84.39-1.73.53-2.63.57-.8.04-1.58.14-2.36.31-.84.18-1.68.29-2.52.29-.43,0-.87.03-1.27.14-1.51.38-3.04.33-4.58.19-1.03-.1-1.97-.4-2.88-.85-.06-.03-.1-.15-.17-.27.29-.14.57-.29.82-.42.52.02,1,.03,1.47.04.37,0,.74,0,1.11-.04,1.63-.18,3.26-.4,4.89-.59.48-.06.95-.12,1.42-.14.56-.02.98-.41,1.5-.53.31-.07.62-.14.92-.22.36-.1.72-.18,1.05-.34.58-.29,1.19-.47,1.82-.58.42-.08.8-.25,1.2-.39.85-.31,1.63-.76,2.43-1.18.19-.08.4-.14.6-.21.1-.04.37.1.38.21.04.21.07.42.12.64.15.66.12,1.37.39,2.01.04.1-.11.28-.18.43h0ZM32.55,32c.14-.13.23-.18.29-.26.18-.27.14-.58-.09-.68-.24-.12-.49-.21-.72-.33-.29-.14-.6-.26-.83-.45-1.19-.98-2.33-2.01-3.18-3.32-.15-.22-.22-.48.02-.74,1.14-.37,2.35-.53,3.55-.8.13.11.26.19.34.33.07.14.11.29.12.45.14,1.62,1.13,2.83,2.03,4.06.1.13.22.23.36.33.45.37.94.68,1.51.85.1.03.18.2.33.39-1.18.21-2.22.65-3.37.43-.2-.03-.41.02-.62.05-.32.04-.64.1-.95.1-1.17-.03-2.33-.09-3.5-.14-1.34-.06-2.56-.57-3.69-1.07-.1-.13-.14-.17-.16-.21-.17-.46-.43-.84-.9-1.06-.77-.37-1.41-.93-2.07-1.46-.24-.2-.43-.46-.6-.73-.15-.23-.15-.5.09-.71q2.4-.61,4.86-.71c.33-.02.68.08.83.37.41.74,1.16,1.23,1.46,2.06.1.28.39.49.63.71.63.57,1.32,1.05,2.02,1.54.67.45,1.36.82,2.24,1.03h0ZM74.29,68.73c-.33-.15-.72-.31-1.1-.5-.29-.14-.5-.4-.6-.71-.11-.41-.24-.82-.3-1.23-.11-.8.16-1.46.8-1.99.16.08.33.12.42.22.09.11.15.3.14.43-.03.48-.1.95-.14,1.38.05.14.07.25.12.34.22.41.57.61,1.04.64.16,0,.31-.02.47-.02.48,0,.84.36.8.8-.05.41-.14.84-.18,1.26-.03.31-.04.63,0,.95.03.42.25.69.57.88l-1.84-.49c-.05-.44-.05-.87.02-1.31.03-.21-.02-.42-.21-.64h0ZM72.33,70.11l-1.36-.35-1.72-.72c.11-.09.21-.2.27-.31.18-.32.3-.68.45-1.01.17-.4.45-.73.8-.97.09-.06.18-.09.29-.12.22.09.33.18.33.25-.1.57-.23,1.14-.34,1.66.19.29.45.32.69.43.19.08.37.19.53.33.17.14.22.37.17.57-.02.1-.06.16-.1.22h0ZM222.52,32.27c-.12.13-.29.22-.33.35-.36,1.06-.69,2.12-1.03,3.19-.06.21-.07.41-.1.61-.03.19.21.46.36.44.48-.06.95-.15,1.45-.23.25-.24.52-.49.79-.76.61-.21,1.25-.29,1.87-.42.84-.18,1.64-.43,2.36-.94.29-.52.45-1.05.34-1.67-.05-.26-.02-.53,0-.8.03-.28.21-.49.49-.57.36-.11.72-.16,1.09-.08.36.1.73.13,1.03.17.35-.16.45-.39.45-.67.02-.53,0-1.07,0-1.59,0-.48.25-.8.71-.96.64.05,1.22.33,1.81.57.25.1.51.14.76.21-.12-.76-.57-1.15-.97-1.56-.26-.27-.47-.57-.57-.95-.09-.36.1-.78.43-.94.39-.19.82-.28,1.23-.12.88.39,1.82.58,2.71.92.29.11.6.2.9.3.9.32,1.78.25,2.67-.03.33-.11.51-.37.57-.71.07-.31.06-.63-.03-.94-.06-.23-.22-.36-.42-.45-.09-.05-.2-.08-.3-.08-.67,0-1.1-.33-1.34-.94-.32-.8-.79-1.5-1.5-2.02-.16-.12-.32-.32-.37-.51-.16-.6-.64-.96-1.04-1.38-.33-.34-.64-.71-1.12-.86-.17.83-.08,1.51.06,2.18.08.33.04.64-.1.93-.06.13-.22.21-.32.3-.75-.23-1.44-.47-2.05-.95-.33-.26-.74-.41-1.18-.44-.11.41-.05.61.05.8.53.93.87,1.93,1.15,2.95.12.45.02.84-.41,1.18-.32.04-.68.08-.94.1-.64-.07-1.07-.48-1.62-.43-.06.1-.12.18-.17.27-.14.19-.3.28-.37.19-.06-.08-.08-.18-.09-.28,0-.1.03-.21.05-.31-.05-.23-.22-.35-.41-.46-.42-.21-.86-.41-1.35-.31-.05.1-.14.21-.13.28.23.94.25,1.89.25,2.85,0,.49-.23.8-.64,1.01-.05.02-.1.04-.19.09-.49.09-1-.05-1.54-.13-.36-.06-.73-.1-1.09-.1-.06,0-.17.14-.17.21,0,.16.04.32.1.48.09.24.23.47.31.72.21.66.1,1.27-.36,1.78-.22.25-.49.42-.82.45-.32.02-.64.02-.95.02h0ZM170.99,43.67c.03.15.09.26.07.36-.15.78-.33,1.55-.47,2.35-.1.57-.52,1.03-.61,1.62-.02.1-.07.2-.13.29-.13.19-.28.33-.5.37-.21.03-.43.08-.63.05-.68-.14-1.35-.3-2.02-.48-.15-.03-.29-.13-.42-.21-.38-.24-.45-.77-.15-1.11.24-.28.52-.52.87-.66.36-.14.64-.37.87-.68.24-.32.17-.76-.16-.97-.27-.17-.57-.27-.89-.29-.43-.02-.86-.02-1.27-.06-.63-.1-1.27-.22-1.82-.54-.38-.22-.71-.51-.69-1,0-.4.24-.68.62-.84.53-.09,1.04.09,1.57.15.17,0,.44-.15.51-.33.1-.21-.05-.59-.25-.69-.14-.06-.29-.14-.45-.15-.26-.03-.53,0-.8-.06-.13-.03-.23-.19-.33-.27-.06-.66.05-1.22.63-1.56.24-.21.3-.36.25-.53-.05-.21-.2-.37-.42-.41-.53-.1-1.05-.14-1.57.09-.13.06-.3.07-.46.07-.41,0-.81-.49-.74-.87.13-.77.73-1.54,1.51-1.64.95-.14,1.9-.26,2.84.02.35.02.54-.24.52-.43-.05-.29-.2-.49-.46-.58-.2-.08-.41-.14-.62-.13-.42,0-.84.09-1.27.1-.13,0-.28-.13-.42-.2.11-.37.39-.53.63-.72.35-.29.53-.66.48-1.13-.25-.45-.37-1-.83-1.33-.5-.36-.54-.89-.48-1.44.06-.53.28-1.02.69-1.49.21-.13.5-.25.76-.45.57-.44,1.2-.67,1.93-.62.35-.11.55-.19.72-.3.32-.22.38-.75.11-.98-.32-.27-.68-.51-1.02-.76-.51-.4-.66-.95-.6-1.55,0-.16.1-.3.18-.44.09-.13.21-.24.33-.35.69-.67,1.48-1.2,2.36-1.62.72-.33,1.38-.84,2.18-.96.82-.14,1.36-.54,1.62-1.32.53-.15.8-.14,1.06-.11.31.03.52.25.45.53-.17.66-.04,1.25.32,1.82.17.27.06.53-.17.68-.5.32-1.07.48-1.62.69-1.74.74-3.25,1.78-4.25,3.45-.11.52-.21,1.05-.31,1.51.06.16.07.27.14.35.47.67.26,1.07-.26,1.5-.13.1-.25.21-.39.29-.58.36-.9.89-1.07,1.49.27,1.89.46,2.24,2.01,3.68.1.35.45.6.39,1.08-.12.1-.25.29-.43.38-.51.23-.8.68-1.17,1.06-.38.39-.69.81-.93,1.29-.14.27-.27.58-.35.88-.17.68.03,1.27.57,1.73.23.21.51.37.78.53.37.22.76.41,1.12.63.41.25.8.53,1.22.76.37.2.77.33,1.14.49h0ZM105.25,64.5c-.44-.02-.82-.18-1.15-.47-1.12-.97-2.25-1.94-3.33-2.89-.24-.46-.46-.88-.68-1.29-.05-.1.11-.36.23-.37.1-.02.21-.05.31-.05.48.02.96.04,1.42.1.55.07,1.05-.06,1.57-.21.14-.05.27-.37.21-.55-.08-.2-.17-.41-.37-.49-.38-.17-.8-.29-1.18-.48-.94-.49-1.61-1.2-1.84-2.27-.07-.33.02-.62.29-.85.29-.24.61-.42.98-.51.88-.2,1.77-.39,2.67-.29.1.02.21-.02.37-.05.29-.14.62-.3.94-.45.21-.56.12-.88-.29-1.08-.1-.04-.2-.1-.29-.13-.76-.2-1.26-.77-1.79-1.29-.24-.23-.25-.57-.15-.9.09-.29.32-.41.59-.45.26-.04.53-.07.79-.06.54.02,1.06-.03,1.56-.21.33-.59.22-1-.19-1.18-.33-.15-.68-.26-1.03-.42-.3-.14-.5-.39-.6-.71-.05-.15-.09-.3-.11-.46-.07-.45.06-.86.38-1.16.38-.37.77-.72,1.31-.86.3-.09.6-.21.93-.33.29.02.61.02.91.11.25.06.49.21.7.37.28.19.29.63.04.82-.17.13-.36.23-.53.35-.17.13-.33.27-.38.53.09.08.2.21.33.25.2.07.41.06.62.1.09.02.17.11.21.2.06.09.06.21.08.31.04.21.08.42.07.64,0,.28-.13.54-.41.62-.67.22-1.27.51-1.75,1.05-.14.15-.29.32-.37.51-.2.61-.29,1.23.06,1.85.38.64.74,1.29,1.12,1.96-.09.11-.15.27-.27.36-.3.21-.63.39-.93.6-.31.23-.49.55-.57.93-.16.76-.07,1.48.25,2.16.15.35.34.66.53.99.33.54.29.61-.32.93-.29.14-.57.28-.83.45-.53.31-.88.78-1.04,1.35-.07.26-.09.53-.13.84.33.69.67,1.41,1.01,2.12.47.1.87.35,1.2.69.12.13.15.28.08.43-.04.08-.15.11-.25.18-.45-.36-.9-.72-1-1.35h0ZM85.15,56.82c-.42-.07-.83-.12-1.25-.11-.77.02-1.38-.73-1.3-1.5.02-.26.09-.53.19-.76.17-.39.4-.76.57-1.14.1-.18.15-.39.19-.6.02-.1-.04-.23-.1-.29-.12-.1-.27-.15-.42-.25-.18.12-.39.22-.53.37-.4.42-.72.92-.95,1.46-.41.93-.42,1.85.09,2.75.1.18.21.37.3.56.05.1-.03.4-.12.43-.43.19-.87.37-1.24.53-.36-.08-.58-.2-.7-.47-.11-.26-.07-.53.05-.77.13-.29.33-.55.44-.84.05-.13,0-.34-.07-.44-.09-.11-.27-.17-.41-.17-.15,0-.31.08-.45.15-.4.21-.64.57-.76.99-.13.45-.19.92-.29,1.4-.42.12-.82.23-1.23.33-.1.03-.21,0-.41,0-.27-.64-.9-.92-1.52-1.23-.94-.41-1.64-.86-2.29-1.43-.27-.25-.59-.45-.87-.68-.4-.35-.82-.68-1.09-1.15-.04-.06.03-.19.06-.33.83.2,1.66.31,2.46.65,1.43.62,1.44.59,3.07.65.54.02,1.07-.04,1.54-.3.56-.32,1.16-.52,1.8-.61.53-.08.99-.33,1.38-.72.57-.57,1.08-1.16,1.43-1.91,0-.3,0-.62.05-.94.03-.26.18-.49.54-.54.1.41.21.83.32,1.23.09.33.34.53.66.63.51.17,1.04.16,1.57.21.13,0,.28.25.2.37-.14.22-.29.45-.43.66-.49.76-.99,1.53-.94,2.49.15.46.29.91.43,1.37.1.02.22.03.3.08.53.35,1.07.67,1.71.79.14.02.3.1.42.18.26.19.47.45.46.8-.02.37-.07.73-.12,1.1-.04.22-.19.39-.4.45-.57.13-1.13.25-1.7.34-.44.07-.58-.18-.4-.66.06-.15.12-.29.15-.45,0-.1-.03-.22-.09-.3-.17-.18-.37-.34-.6-.54.17-.59.5-1.16.29-1.82h0ZM174.06,58.45c.1,0,.21-.05.31-.02,1.61.49,2.93,1.46,4.07,2.68.47.5.76,1.14.96,1.8.05.2-.02.42-.02.64,0,.1.02.21.02.3.09.29.44.48.36.84-.23.27-.55.29-.87.3-.18.02-.45-.15-.49-.33-.1-.36-.18-.72-.25-1.07-.05-.26-.02-.54-.09-.78-.29-.93-.79-1.74-1.59-2.32-.77-.57-1.52-1.15-2.28-1.73-.08-.06-.12-.17-.17-.26-.17.06-.31,0-.45-.09-.09-.27-.02-.29.12-.23.15.06.31.09.36.26h0ZM133.07,39.36c-.49.2-.92.15-1.31-.24.03-.11.03-.27.1-.29.86-.43,1.62-1,2.41-1.53.13-.1.28-.16.42-.22.25-.13.52-.13.77,0,.24.1.46.25.71.4.11.24.2.49.33.72.41.77.83.96,1.37.14.18.04.23.18.22.33-.02.1-.06.22-.14.27-.51.35-1.08.44-1.66.3-.83-.19-1.66-.39-2.48-.58-.33-.07-.6.09-.66.29-.05.14-.06.31-.1.46.1.12.04.09.02-.03h0ZM223.69,47.82c-.1,0-.22,0-.31.05-.37.22-.76.41-1.06.7-.98.97-1.93,1.97-2.89,2.97-.11.11-.17.27-.1.43-.13,0-.17.06-.13.14.49-.14.84-.27,1.11-.53.42-.41.83-.83,1.22-1.26.5-.55.96-1.13,1.45-1.69.18-.21.41-.35.59-.54.07-.06.08-.19.11-.27.15-.05.31-.08.44-.16.21-.14.41-.3.6-.49.77-.75,1.59-1.46,2.47-2.1.21-.14.41-.33.39-.63.28,0,.52-.12.73-.28.99-.73,2.09-1.25,3.21-1.73,1.94-.86,3.85-1.77,5.72-2.79.55-.3,1.11-.6,1.71-.83.73-.29,1.43-.69,2.12-1.11.31-.18.57-.47.91-.77.68-.19,1.5-.24,2.22-.6.66-.33,1.42-.4,2.09-.75.41-.22.92-.26,1.37-.41.9-.29,1.82-.56,2.63-1.09.21-.14.49-.21.74-.27.31-.07.63-.07.95-.13.49-.09.73-.41.69-1.07,0-.1-.24-.29-.35-.28-.59,0-1.15.21-1.7.37-.25.07-.5.17-.77.17-.54,0-1.04.24-1.54.33-.49.09-.88.33-1.33.52-.97.41-1.94.83-2.92,1.24-.59.24-1.15.53-1.78.67-.35.08-.67.32-1,.48-1.05.51-2.16.88-3.18,1.46-.18.1-.39.2-.59.23-1.06.17-2.01.68-3.02.97-.25.07-.5.21-.72.34-1.21.77-2.41,1.55-3.51,2.48-.41.33-.8.68-1.16,1.08-.39.43-.85.8-1.26,1.2-.15.14-.31.29-.29.54-.19.06-.42.08-.57.2-1.12.92-2.2,1.88-3.22,2.91-.06.06-.04.19-.06.29h0ZM227.94,63.93c-.02.08-.03.19-.09.24-.06.05-.17,0-.15-.1.02-.07.11-.13.16-.18,0-.11,0-.22.03-.32.24-.53.48-1.06.73-1.59.07-.14.15-.28.25-.4.1-.13.22-.22.35-.33.1-.09.2-.07.28.03-.05.63-.33,1.02-.6,1.42-.29.44-.49.95-.97,1.23h0ZM113.48,53.78c.48-.16.95-.08,1.41.03.21.06.37.32.36.64,0,.08-.1.16-.17.22-.37-.14-.59-.29-.78-.46-.24-.21-.62-.17-.8-.49-.12-.11-.06-.07-.02.05h0ZM20.46,25.25c-.37.03-.73.08-1.1.12.28-.21.54-.2.8-.21.09,0,.18.08.27.12l.02-.03ZM113.94,55.91c-.26.02-.52.14-.78.05.31-.27.33-.27.75,0l.03-.05ZM225.06,67.7c.13-.07.17-.24.35-.17-.17.11-.26.14-.35.17Z"/>
          <path class="cls-2" d="M199.44,20.95c.02-.16.09-.18.18-.06l-.18.06ZM195.76,16.77c.1.17.21.26.19.34-.12.49-.51.68-1.08.53-.06-.58.45-.63.89-.88h0ZM192.3,31.79c-.22-.2-.44-.4-.66-.6-.29-.23-.61-.43-.88-.67-.06-.05-.05-.17-.08-.27.1.02.2,0,.26.04.45.29.89.57,1.31.9.17.13.25.34.06.6h0ZM196.31,19.35c-.37.24-.76.5-1.16.75-.28.14-.46.02-.48-.17-.02-.15,0-.33.14-.41.42-.2.85-.39,1.31-.54.14-.05.23.15.19.37h0ZM195.68,21.4q.06.4.45.57c.41-.18.84-.36,1.26-.57.29-.15.45-.44.46-.77,0-.1-.04-.21-.08-.29-.03-.08-.33-.14-.42-.06-.53.44-1.18.68-1.66,1.12h0ZM190.91,28c.78.47,1.54.82,2.36,1.07.14.05.26.18.38.26.11.09.1.34,0,.42-.18.14-.39.2-.6.12-1.03-.42-1.97-1.01-2.8-1.77-.38-.35-.68-.8-.99-1.23-.05-.06-.03-.21,0-.29.02-.04.21-.06.25-.02.45.45.9.89,1.41,1.42h0ZM197.01,24.73c-.68-.41-1.36-.8-2.03-1.23-.22-.14-.41-.34-.61-.53-.26-.25-.52-.53-.78-.8-.06-.08-.13-.16-.17-.26-.15-.27-.29-.57-.41-.78-.12-.76-.21-1.44-.33-2.11-.02-.16-.13-.29-.2-.43-.07-.13-.3-.21-.42-.13-.64.63-1.15,1.16-1.64,1.72-.66.78-.77,1.75-.74,2.71.03,1.23.53,2.27,1.51,3.04.33.25.65.53,1,.77.71.53,1.51.79,2.36.9.27.04.57-.05.72-.26.53-.79,1.25-1.45,1.7-2.3.05-.1.03-.21.05-.32h0ZM205.18,17.2c.47-.22.88-.47,1.18-.87.5-.64,1.16-1.05,1.96-1.27.3-.08.57-.27.84-.43.23-.14.33-.55.24-.86-.08-.3-.4-.59-.68-.6-.64-.06-1.27-.02-1.86.26-.39.18-.76.37-1.15.57-.1.1-.21.22-.31.34-.33.45-.72.57-1.25.43-.47-.12-.95-.18-1.42-.25-.1-.02-.21-.06-.31-.06-1.13.15-2.2-.26-3.37-.33-.25.1-.53.25-.83.33-.31.06-.64.02-.95.02-.33,0-.65.03-.92.21-.5.32-1.06.49-1.62.64-.78.2-1.5.51-2.17.96-.22.15-.44.33-.68.41-.69.21-1.07.85-1.68,1.17-.8.98-1.67,1.93-1.93,3.24-.12.56-.22,1.14-.37,1.7-.05.17-.09.4-.32.47-.29-.16-.44-.45-.64-.69-.1-.13-.23-.21-.36-.32-.17-.14-.57-.11-.73.06-.13.13-.18.44-.06.6.61.88,1,1.86,1.27,2.9.16.57.48,1.06.73,1.58.06.13.09.28.14.52-.39-.22-.71-.4-1.03-.57-.17-.08-.44,0-.58.16-.13.15-.19.46-.1.59.71.86,1.29,1.62,2,2.26.94.85,1.92,1.67,3.05,2.28.09.05.16.14.26.22.03.13.06.28.1.5.28.22.6.49.93.76.13.11.47.05.58-.1.1-.13.22-.24.29-.37.2-.37.38-.76.58-1.17.21-.18.46-.39.68-.58.07-.11.16-.2.17-.3.09-.53.29-1.03.57-1.47.17-.27.35-.55.59-.75.54-.44.97-.98,1.38-1.53.12-.17.27-.33.41-.48.52-.55.89-1.18,1.2-1.86.45-1.01.9-2.04,1.58-2.93.22-.3.45-.59.68-.88.56-.71,1.17-1.38,1.62-2.16.19-.33.48-.6.8-.76.68-.38,1.19-.89,1.49-1.56Z"/>
          <path class="cls-2" d="M179.45,48.59c-.21-1.25-.39-2.24-.17-3.26.05-.21.1-.42.07-.62-.07-.79.16-1.47.53-2.14.23-.38.28-.8.11-1.23-.03-.1-.1-.18-.16-.26-.11-.14-.44-.18-.59-.09-.22.14-.43.32-.54.56-.52,1.17-.89,2.38-.96,3.67-.04.64-.12,1.27-.13,1.89,0,.59.06,1.17.1,1.75.36.83.51,1.72,1.01,2.5.73,1.16,1.42,2.36,2.14,3.53.13.23.31.43.48.64.39.44.77.88,1.17,1.31.46.51.93,1,1.54,1.38.67.41,1.31.88,1.93,1.38,1.08.88,2.28,1.54,3.57,2.09.97.4,1.9.92,2.96,1.14.2.04.41.13.59.23,1,.52,2.1.74,3.21.88.73.1,1.48.16,2.21.22.37.02.76.07,1.11-.02.84-.18,1.69-.07,2.54-.06.53,0,1.05.03,1.59.03.63,0,1.26-.1,1.9,0,.37.06.74-.06,1.07-.23.2-.09.33-.26.41-.46.13-.29.03-.65-.21-.85-.31-.25-.68-.37-1.05-.24-.56.18-1.14.19-1.72.25-.64.07-1.27,0-1.91-.02-.63-.02-1.27-.16-1.89.03-1.05-.13-2.12.06-3.18-.14-.72-.13-1.46-.26-2.2-.34-.64-.08-1.23-.28-1.83-.51-.79-.33-1.57-.65-2.37-.94-1.21-.43-2.32-1.06-3.37-1.79-1.17-.82-2.32-1.7-3.28-2.76-.61-.67-1.28-1.27-1.83-2-.88-1.14-1.6-2.38-2.22-3.67-.31-.67-.49-1.39-.65-1.86Z"/>
          <path class="cls-2" d="M192.33,65.23c.17.02.33.06.37.25.26-.06.51-.06.69.18.17.02.33.05.37.25.25-.11.52-.13.78-.06.41.1.82.22,1.23.32.21.06.44.17.62.13.68-.16,1.24.17,1.85.33.48.11.96.19,1.46.25l4.19-.71c0-.18-.11-.33-.37-.51-1.79.33-3.43.17-5.05-.1-2.21-.37-4.34-1.02-6.42-1.83-1.29-.5-2.59-.95-3.88-1.44-1.08-.43-2.09-1.02-3.06-1.66-.22-.14-.45-.28-.68-.41-.37-.21-.73-.42-1.11-.62-.83-.44-1.46-1.08-1.85-1.92-.41-.88-.98-1.64-1.57-2.39-.29-.38-.58-.76-.74-1.22-.34-.95-.79-1.85-1.26-2.73-.25-.48-.37-.99-.43-1.53-.02-.2-.12-.4-.2-.59-.07-.17-.4-.21-.57-.11-.19.11-.32.29-.34.49-.09.59-.05,1.18.21,1.72.54,1.15.95,2.36,1.53,3.49.17.33.31.69.55.97.87,1.01,1.47,2.19,2.04,3.37.06.1.12.19.21.35.62.45,1.28.99,2.06,1.34.14.06.29.14.41.24,1.06.81,2.3,1.32,3.46,1.96.65.34,1.37.56,2.05.84.16.06.27.16.29.34.71-.14,1.27.11,1.75.62.26-.04.5,0,.69.19.25-.03.49,0,.68.18Z"/>
          <path class="cls-2" d="M178.24,32.43c-.05.17-.06.33-.14.47-.37.69-.11,1.19.41,1.69.63.58,1.3,1.09,2.04,1.51.23.13.48.21.73.31.22.08.55-.06.68-.29.14-.24.14-.56-.02-.74-.14-.15-.29-.33-.47-.41-.53-.25-1.01-.59-1.48-.94-.29-.21-.26-.65.05-.78.4-.16.8-.3,1.19-.48.21-.1.33-.41.29-.68-.06-.37-.43-.68-.79-.62-.21.05-.42.1-.61.18-.23.1-.45.27-.75.22-.38-.6-.67-1.11-.9-1.65-.18-.43-.45-.85-.39-1.36,0-.1-.02-.21-.07-.31-.44-.75-.4-1.65-.8-2.4-.16-.31-.37-.57-.91-.45-.33.08-.59.44-.46.72.31.68.45,1.42.65,2.12.1.35.22.71.37,1.04.42.97.84,1.95,1.38,2.85Z"/>
          <path class="cls-2" d="M203.45,27.5c-.29.32-.47.57-.49.92.06.09.1.2.18.25.18.1.38.16.58.25,1.19.47,2.36.98,3.32,1.85.11.1.26.17.4.25.22.13.51.08.73-.12.27-.23.35-.53.27-.85-.06-.27-.2-.5-.42-.66-.21-.16-.45-.29-.68-.42-.47-.25-.94-.49-1.34-.92.06-.13.07-.32.17-.4.29-.22.64-.39.94-.6.71-.46,1.42-.94,2.11-1.42.15-.1.13-.42,0-.56-.33-.33-.62-.4-1-.22-.49.23-.96.45-1.42.72-.59.37-1.12.83-1.71,1.17-.55.31-1.15.53-1.64.76Z"/>
          <path class="cls-2" d="M207.64,57.47c.43.04.85-.16,1.26.07,1,.17,2.01.12,2.99-.1.15-.03.28-.14.41-.21.1-.05.21-.37.15-.43-.06-.07-.15-.17-.23-.18-.32-.03-.64-.07-.95-.04-1.23.1-2.42-.13-3.6-.42-.67-.17-1.3-.45-1.9-.78-.65-.37-1.23-.83-1.55-1.53-.03-.1-.14-.16-.22-.24-.06-.07-.37-.07-.44,0-.39.37-.46,1.07-.11,1.44.33.33.67.68,1.07.94.66.43,1.34.84,2.11,1.08.36.11.68.27,1.02.4Z"/>
          <path class="cls-2" d="M208.99,19.73c.15.45.43.84.8,1.15.77.66,1.54,1.31,2.3,1.96.31.25.77.1.87-.32.1-.38.05-.75-.26-1.01-.33-.27-.69-.49-1.03-.75-.29-.22-.58-.47-.71-.84.05-.22.16-.4.37-.48.45-.14.91-.27,1.36-.41.07-.17.16-.3.18-.45.04-.33-.21-.65-.53-.68-.21-.02-.44-.03-.63.03-.65.21-1.3.45-1.94.7-.49.19-.75.56-.8,1.1Z"/>
          <path class="cls-2" d="M198.57,36.48c.14-.12.25-.24.39-.29.6-.21,1.21-.39,1.81-.59.15-.05.29-.14.43-.2.28-.16.28-.61.02-.81-.22-.16-.49-.25-.74-.25-.48,0-.97.06-1.4.26-.68.32-1.37.56-2.1.7-.1,0-.2.08-.29.13-.41.22-.58.88-.33,1.25.5.61.9,1.09,1.16,1.7.12.25.41.31.69.27.33-.06.61-.33.64-.62,0-.15.02-.32,0-.47-.07-.36-.17-.72-.27-1.08Z"/>
          <path class="cls-2" d="M198.1,47.96c.13-.07.25-.18.39-.22.41-.1.82-.18,1.23-.26.21-.05.37-.25.37-.45,0-.21-.19-.42-.37-.45-1.37-.18-2.09-.13-3.43.25-.27.08-.45.26-.57.52-.1.19-.13.41-.03.61.19.43.41.89.81,1.14.56.35.95.82,1.31,1.34.16.24.43.27.71.24.25-.05.52-.29.54-.51.07-.56-.04-1.05-.47-1.44-.15-.14-.32-.28-.45-.44-.06-.07-.03-.2-.06-.33Z"/>
          <path class="cls-2" d="M186.58,41.06c.03.78.15,1.56.45,2.29.28.73.62,1.46.94,2.17.13.31.38.51.71.57.21.04.41.07.63.08.15,0,.31-.02.41-.17.18-.21.25-.46.16-.72-.06-.15-.14-.29-.25-.41-.87-.84-1.19-1.95-1.54-3.06-.06-.2-.08-.41-.15-.61-.1-.34-.37-.49-.71-.52-.1,0-.21.02-.33.02-.1.1-.2.22-.32.36Z"/>
          <path class="cls-2" d="M209.25,59.82c.16-.07.37-.14.53-.26.11-.08.22-.26.21-.39-.02-.12-.17-.26-.29-.32-.14-.07-.31-.06-.47-.06-.59,0-1.15-.13-1.73-.26-1.25-.26-2.46-.65-3.49-1.44-.12-.09-.28-.14-.43-.21-.16-.08-.42.1-.45.32-.03.22-.02.44.11.61.47.51,1,.98,1.64,1.23,1.24.49,2.55.71,3.87.84.15.02.31-.03.51-.06Z"/>
          <path class="cls-2" d="M174.05,29.45c.06.26.1.49.17.67.25.58.5,1.15.78,1.72.15.28.41.47.74.54.18.04.45-.13.47-.31.02-.1.03-.21.02-.31,0-.1-.03-.21-.09-.29-.57-.91-.8-1.93-.98-2.98-.02-.1-.09-.18-.13-.28-.03-.08-.3-.18-.41-.15-.29.08-.56.39-.57.68-.02.26,0,.52,0,.72Z"/>
          <path class="cls-2" d="M182.06,46.06c.09.16.17.37.29.53.28.37.68.47,1.11.45.1,0,.21-.08.27-.14.17-.21.33-.41.45-.64.14-.26.06-.67-.17-.87-.12-.11-.25-.21-.38-.27-.61-.33-1.14-.17-1.44.45-.06.14-.09.3-.13.49Z"/>
          <path class="cls-2" d="M193.9,58.11c.17-.08.31-.14.45-.22.37-.22.36-.65,0-.88-.41-.27-.84-.42-1.33-.41-.27.02-.51.1-.69.32-.25.32-.22.75.1.97.17.12.37.22.57.25.3.04.62,0,.91-.02Z"/>
          <path class="cls-2" d="M205.85,60.43c.21.32.38.45.6.48.68.12,1.36.22,2.04.3.13.02.29-.1.41-.18.12-.08.1-.35,0-.41-.09-.06-.16-.15-.25-.18-.72-.19-1.44-.38-2.17-.56-.25-.06-.49.11-.6.4-.02.05-.02.1-.03.15Z"/>
          <path class="cls-2" d="M198.37,60.41c.55-.07.92-.49.89-.89,0-.14-.1-.31-.21-.39-.64-.46-1.3-.33-1.73.3-.24.36-.11.76.29.86.3.07.6.1.76.12Z"/>
          <path class="cls-2" d="M188.45,31.89c-.09.08-.21.18-.32.29-.08.08-.07.37,0,.44.33.35.74.57,1.23.64.45.06.78-.4.6-.83-.08-.21-.21-.37-.41-.46-.34-.16-.7-.19-1.11-.08Z"/>
          <path class="cls-2" d="M183.6,51.32c.05.41.39.65.8.58.48-.08.78-.4.8-.84.02-.36-.13-.62-.44-.79-.26-.15-.6-.06-.86.19-.23.24-.35.52-.3.86Z"/>
          <path class="cls-2" d="M188.06,54.58c-.06-.31-.26-.49-.51-.6-.3-.13-.61-.16-.92-.04-.37.12-.51.6-.28.92.24.33.58.46.97.37.2-.03.41-.14.56-.26.1-.09.13-.28.18-.39Z"/>
          <path class="cls-2" d="M184.42,30.36c.19.12.22.03.16-.09-.13,0-.14.04-.16.09Z"/>
          <path class="cls-2" d="M23.73,28.44c.25.36.44.61.61.88.33.49.75.88,1.25,1.19.63.39,1.22.84,1.94,1.13.28,0,.6,0,.92,0,.12,0,.28-.18.3-.33.02-.17-.07-.34-.2-.41-.29-.14-.57-.28-.86-.4-1.42-.63-2.48-1.58-2.97-3.1-.05-.15-.14-.29-.21-.41-.09-.17-.44-.16-.53.02-.07.14-.17.27-.18.42-.05.31-.05.63-.06,1Z"/>
        </g>
      </g>
      <g>
        <path class="cls-2" d="M246.3,77.89c1.72.8-2.95.62-2.43-.7.24-.64,1.92.48,2.43.7h0ZM242.78,76.33l-.25.72-3.3-1.43c.14-.78,3.06.52,3.55.72h0ZM240.98,76.48l-.21-.46c-.05.19.04.4.21.46h0ZM237.35,75.03c.61,0,.28.76-.24.74,0,.02-6.23,1.19-6.23,1.19-.39-1.11,5.55-1.94,6.23-1.94h.24ZM228.5,77.64c.61-.29.45.6-.03.82-5.48,2.55-9.58,3.51-15,1.27l.25-.7c5.36,2.2,9.33,1.11,14.77-1.39h0ZM211.17,77.89c.52.23.06.84-.41.63-3.95-1.82-3.26-2.32.41-.63h0ZM204.44,75.31l-.14.74c-5.42-1.16-10.45,2.63-15.54,4.35l-.21-.72c5.24-1.76,10.3-5.59,15.89-4.37h0ZM185.05,80.44c.82-.04-.04.77-.6.77-1.6,0-3.7-1.07-.95-.8.3.03.62.06.95.06l.6-.02h0ZM175.98,77.86c.56.25,0,.81-.47.6-18.54-8.6-16.18,8.79-35.1,0-18.64-8.64-16.1,8.83-35.11,0-6.68-3.1-9.94-3.37-16.29-.45-1,.45-.76-.88,3.65-2.29,8.13-2.61,13.98,4.74,21.55,4.74,10.71,0,10.91-9.91,26.47-2.69,7.08,3.29,10.2,3.29,17.28,0,1.31-1.42,8.11-3.75,13.5-1.85l4.51,1.93h0ZM86.85,78.19c-.45.2-3.13,1.03-2.93,1.64.43,1.34,5.34-2.73,2.93-1.64h0ZM79.46,80.45c.68-.02.19.76-.36.76-.8,0-7.39-1.09-6.97-2.27.23-.61,3.24.88,3.74,1.02,1.07.31,2.16.5,3.23.5h.36ZM70.72,77.89c.56.25,0,.81-.48.6-4.04-1.87-3.04-2.23.48-.6h0ZM59.24,75.28l.13.75c-.58.12-3.83,1.48-4.02.93-.28-.79,3.35-1.57,3.89-1.68Z"/>
        <path class="cls-2" d="M8.88,73.16c-.35,0-.68-.15-.91-.4-.23-.25-.9-.6-.9-.98s.67-.73.9-.98c.23-.25.56-.4.91-.4,1.33,0,2.7-.33,4.08-.81,1.38-.49,2.79-1.15,4.19-1.8,1.55-.71,3.06-1.42,4.61-1.94,1.54-.53,3.16-1.29,4.75-1.29s2.55,1.16,4.09,1.7c1.54.53,3.59.84,5.11,1.54,1.41.65,2.81,1.31,4.19,1.8,1.38.48,2.75.4,4.08.4s2.71.08,4.09-.4c1.38-.49,2.79-1.15,4.19-1.8,1.54-.71,4.04-1.42,5.58-1.94,1.54-.53,2.19-1.46,3.78-1.46s3.06.93,4.61,1.46c1.54.53,3.06,1.24,4.59,1.94,1.4.65,2.8,1.31,4.19,1.8,1.39.48,2.75.81,4.09.81s2.25-.82,3.64-1.31c1.38-.49,3.24-.65,4.64-1.31,1.54-.71,3.06-1.42,4.6-1.94,1.54-.53,3.1-.89,4.68-.89,1.27.42,2.44,1.27,4.69.89,1.6-.28,3.06,1.24,4.59,1.94,1.4.65,2.65.98,4.04,1.46,1.38.49,2.72,1.36,4.06,1.36s2.89-.55,4.27-1.03c1.39-.49,2.79-1.15,4.2-1.8,1.51-.7,3.04-1.42,4.58-1.94,1.54-.53,3.1-1.29,4.69-1.29s3.14.76,4.69,1.29c1.54.53,3.06,1.24,4.58,1.94,1.4.65,2.81,1.31,4.19,1.8,1.38.48,2.75.81,4.09.81s2.48-.57,3.85-1.07c5.44-1.9,4.43-1.54,4.43-1.55,0,0,2.18-.84,2.19-.85,1.52-.7.87-.56,2.4-1.08,3.45-1.19,6.49-1.9,9.58-.88,1.4.48,2.82,2.15,4.28,2.82,1.46.47,3.1,1.42,4.56,1.88l1.78.1,1.93.64c2.83,0,5.75-1.38,8.38-2.61,1.57-.89,3.42-2.38,4.99-2.87,2.01-.62,3.76-.1,5.79.09,3.3.31,6.03,1.57,9.08,2.99,1.2.56,2.68,1.56,3.92,1.91l2.05-.06c1.42.16,1.23,1.31,6.14-.65l9.04-4.19,6.91.48c3.71.92,7.54,2.39,9.75,3.36,3.68,1.62,3.93,2.53,11.17-.72,7.51-3.38,12.01-3.33,15.73-1.87,4.22,1.65,7.45,4.97,12.96,4.97,1.85,0,3.11,5.06-9.74-.9-14.79-6.87-14.53,2.83-25.83,2.83-4.42,0-8.39-2.59-12.43-4.23-1.94-.78-.34-.72-4.11-1.15l-4.07.02c-1.39.39-8.17,4.51-13.32,5.28-3.53.53-6.24-1.07-8.8-2.72-.85-.56-2.26-.58-2.91-1.24-1.7-1.73-4.66-1.29-7.03-1.4-.96-.05-2.05.4-3.37.56-1.65.21-1.78.87-2.66,1.46-.67.45-1.4.92-2.34,1.29-4.39,1.73-11.73,2.68-15.44,1.44-3.31-1.11-3.88-4.12-6.88-5.17-2.32-.83-5.41.15-8.48,1.23-1.37.49-2.76,1.12-4.15,1.77-1.61.75-3.13,1.45-4.67,1.98-1.54.53-3.1.48-4.69.48s-3.15.06-4.69-.48c-1.54-.53-3.14-.84-4.66-1.54-1.41-.65-2.73-1.71-4.11-2.2-1.39-.49-2.75-.81-4.09-.81s-2.71.81-4.09,1.31c-1.38.49-2.79.64-4.19,1.3-1.53.71-3.05,1.41-4.59,1.94-1.54.53-2.95.72-4.54.72s-3.29-.19-4.84-.72c-1.54-.53-3.06-1.23-4.59-1.94-1.4-.65-2.8-1.31-4.19-1.79-1.38-.49-2.75-.41-4.09-.41s-2.68-.09-4.05.39c-2.04.72-3.87,1.38-3.88,1.38,0,0-1.08.41-1.09.43-1.52.71-2.3,1.41-3.84,1.94-1.54.53-3.1.88-4.69.88s-3.07-.68-4.61-1.21c-1.54-.53-3.14-.91-4.66-1.62-1.41-.65-2.81-1.31-4.19-1.79-1.38-.49-2.75-.81-4.08-.81s-2.68.32-4.06.8c-1.37.49-2.75,1.12-4.14,1.77-1.61.75-3.13,1.45-4.67,1.98-1.54.53-2.95.56-4.54.56s-3.29-.04-4.84-.56c-1.54-.53-2.54-.84-4.06-1.54l-.53-.41c-1.4-.65-2.8-1.31-4.19-1.79-1.38-.49-2.75-.81-4.08-.81s-2.68.32-4.05.8c-1.37.49-2.75,1.12-4.14,1.77-1.5.87-3.05,1.55-4.68,1.98-1.57.41-3.1.88-4.69.88Z"/>
        <path class="cls-2" d="M269.35,70.87c.8-.21,1.08,1.14.28,1.34-.54.13-8.52,4.12-7.69,1.85.41-1.1,6.5-2.98,7.41-3.19h0ZM260.37,74.53l-2.83.99c-1.74.46-1.85,1.79-.71,1.58,5.37-1.01,4.75-3.06,3.54-2.56h0ZM253.96,75.89c1.23.09,1.34,2.87-6.1-.36-3.39-1.47-3.03-2.8.48-1.27l1.9.76,3.72.87h0ZM243.16,71.92c.77.32.32,1.62-.45,1.3l-2.83-.96c-4.93-2.15-18.04,6.53-16.45,3.18.28-.6,11.17-5.39,15.22-4.83l1.53.3s2.99,1.02,2.99,1.02h0ZM220.69,75.85l-2.19.02c-1.98-.23-2.45.94-1.3,1.18,4.78.96,4.69-1.34,3.49-1.2h0ZM212.61,73.98c.78.34.85,1.9-2.08.54-7.2-3.33-9.88-3.32-17.07,0-4.93,2.28,3.4-6.53,13.08-3.18l6.07,2.63h0ZM187.86,75.36l-2.32.49c-1.46.17-1.9,1.48-.72,1.43,4.66-.16,4.22-2.28,3.04-1.93h0ZM105.19,74.53c-1.43-.67-2.87-1.33-4.29-1.83-1.42-.49-2.84-.83-4.24-.83s-2.81.33-4.24.83c-1.42.5-2.85,1.16-4.28,1.82-9.61,4.83-12.66,1.9-21.54-1.53-.33-.12-2.07-2.55,3.99.27,12.58,5.84,13.87,0,17.04,0l4.5-1.92c1.5-.51,3.01-.86,4.54-.86s3.03.35,4.54.86c1.5.53,3,1.23,4.49,1.92,18.56,8.6,15.91-8.91,35.11,0,12.61,5.84,13.87,0,17.06,0,1.4-1.52,8.45-3.69,13.59-1.91,7.2,2.5,6.26,4.23,4,3.19-7.21-3.33-9.87-3.37-17.09-.02-3.2,0-4.88,6.12-18.06,0-18.54-8.61-15.9,8.9-35.11,0h0ZM158.32,74.55l-.8-.38.8.38h0ZM88.09,74.55l-.79-.38.79.38h0ZM64.58,70.9l-3.33-.4s-.72.22-.72.22c-1.14,1.32,2.02,1.19,2.39,1.24,2.98.4,2.38-.89,1.66-1.07h0ZM54.73,72.26c.33-.14,3.69.28-5.09,3.76-5.05,2.01-4.45-.15-3.62-.31l8.71-3.45h0ZM43.78,75.92l-2.45-.35c-1.55-.39-2.31.76-1.18,1.1,4.94,1.49,4.71-.72,3.63-.75h0ZM29.72,70.97c1.26.33.17,1.42-1.07,1.15-.58-.13-4.41-.1-3.34-1.37l.77-.25s3.64.47,3.64.47Z"/>
      </g>
    </g>
  </g>
</svg>