<?xml version="1.0" encoding="UTF-8"?>
<svg id="Layer_2" data-name="Layer 2" xmlns="http://www.w3.org/2000/svg" viewBox="0 0 255.1 73.34">
  <defs>
    <style>
      .cls-1 {
        fill: #5c2f1c;
        fill-rule: evenodd;
      }
    </style>
  </defs>
  <g id="_Layer_" data-name="&amp;lt;Layer&amp;gt;">
    <g>
      <path class="cls-1" d="M126.56,47.83c-.03.22-.01.11,0,0h0ZM199.75,45.56c-.27.1-.21.2-.15.31l.15-.31ZM203.88,47.64c-.16-.05-.28,0-.35.14-.03.06-.02.14,0,.21.04.19.17.24.31.1.1-.08.15-.21.21-.33l-.16-.11ZM130.98,2.98c.14-.02.28-.06.43-.1-.13-.06-.25-.15-.39-.16-.2,0-.29.09-.23.19.03.05.14.08.19.08h0ZM207.31,45.01c.4.16.39.16.68-.14.14-.14.15-.24-.03-.31-.06-.02-.15,0-.19.03-.16.13-.3.28-.46.42h0ZM201.99,62.8c.19.12.36.25.54.35.12.07.27.1.4.12-.1-.67-.46-.76-.95-.47h0ZM206.27,63.67q-1.22-.25-2.09,0c.56.34,1.17.21,1.75.19.11,0,.22-.13.33-.2h0ZM152.39,36.96c-.17.35-.1.72,0,1.06.03.1.2.21.31.21.11,0,.29-.1.32-.2.18-.51-.03-.84-.63-1.08h0ZM168.33,47.32c.16.49.46.77,1,.67.14-.02.27-.12.36-.23.11-.13-.03-.48-.19-.57-.42-.22-.83-.31-1.18.13h0ZM173.25,47.77c-.07-.3-.23-.53-.52-.66-.35-.16-.72-.16-1.07-.04-.1.03-.22.19-.23.3,0,.12.08.29.19.36.53.37,1.07.34,1.62.04h0ZM177.42,58.25c.63.76.83.8,2.07.47-.2-.46-.39-.68-.66-.7-.48-.02-.98-.1-1.41.22h0ZM135.44,2.32c-.69-.17-1.37-.13-2.03.06-.18.05-.33.26-.52.42q1.12.25,2.55-.49h0ZM170.71,53.66c-.17-.37-.47-.58-.86-.65-.44-.07-.89-.16-1.26.21.15.72.41,1.03.91,1.08.6.07,1-.15,1.21-.65h0ZM188.77,49.98c-.1.18-.23.31-.21.42.11.68.44,1.23,1.03,1.59.1.06.3.06.41,0,.1-.06.19-.22.22-.35.07-.39-.05-.75-.35-.99-.34-.26-.73-.45-1.11-.68h0ZM125.35,38.97c.21-.02.44-.02.66-.06.14-.02.28-.1.42-.15.23-.1.4-.51.32-.76-.08-.23-.26-.37-.49-.37-.37,0-.74.02-1.1.1-.3.07-.48.33-.55.64-.05.19.12.5.29.53.15.02.3.04.46.06h0ZM173.18,58.23c.7.83.88.97,1.59,1.14.14.03.29-.02.44-.04.2-.04.35-.33.27-.53-.19-.53-.53-.92-1.1-1.02-.47-.08-.89.07-1.2.45h0ZM171.81,45.48c-.03-.4-.17-.8-.45-1.15-.25-.31-.59-.42-.99-.38-.29.03-.54.35-.47.62.12.45.35.85.78,1.03.34.15.72.19,1.13-.12h0ZM170.66,55.41c.47.99.97,1.55,1.58,1.95.07.04.27-.06.36-.14.21-.21.31-.49.31-.87-.12-.2-.26-.46-.43-.7-.08-.12-.22-.19-.33-.29-.51-.16-1.01-.21-1.5.06h0ZM122.33,38.96c.55-.35.77-.87.69-1.51-.19-.27-.45-.39-.76-.35-.22.02-.47.07-.62.2-.45.39-.87.81-1.03,1.49.56.25,1.13.23,1.73.17h0ZM186.41,58.54c.2-.27.21-.61.02-.83-.6-.66-1.09-1.41-1.61-2.13-.04-.06-.11-.1-.17-.14-.06-.03-.13-.06-.2-.08-.07-.02-.19-.05-.21-.02-.07.11-.19.26-.16.37.18.76.71,1.3,1.19,1.85.33.38.59.87,1.16.98h0ZM166.31,44.15c.08.79.57,1.3,1.22,1.7.12.06.29.08.41.05.29-.06.58-.13.75-.47-.1-.24-.18-.52-.32-.77-.17-.33-.41-.61-.8-.7-.43-.1-.87-.18-1.27.19h0ZM170.37,42.28c-.06-.9-.48-1.55-1.3-1.93-.07-.03-.15-.02-.22-.03-.34-.06-.8.34-.73.66.11.6.37,1.14.84,1.54.23.2.52.29.82.3.27.02.61-.29.59-.54h0ZM195.87,59.48c-.12-.18-.23-.39-.39-.55-.87-.83-1.75-1.64-2.63-2.46-.05-.05-.13-.06-.2-.08-.18-.05-.31.02-.37.19-.12.4-.02.77.29,1.01.89.68,1.8,1.34,2.72,1.99.1.08.27.06.41.05.05,0,.1-.1.16-.16h0ZM196.75,25.94c-.25-.34-.62-.49-.98-.46-.89.1-1.76.31-2.46.92-.05.04-.09.11-.1.18-.04.18.03.31.19.35.79.21,1.58.43,2.37.6.19.04.42-.05.64-.08-.07-.32-.14-.6-.19-.86.2-.25.37-.45.54-.66h0ZM193.25,28.68c.22.07.36.14.5.14.55,0,1.05.16,1.4.59.4.48.88.78,1.5.91.2.04.4.22.54.37.47.52,1.04.52,1.65.37.18-.05.26-.16.25-.31,0-.07,0-.16-.04-.2-.5-.45-1.03-.84-1.7-1.05-.57-.17-1.15-.35-1.68-.6-.77-.37-1.54-.37-2.42-.21h0ZM125.71,40.38c-.43-.4-.9-.44-1.44-.26-.47.16-.72.5-.86.93-.09.28-.14.57-.2.86-.05.29.19.65.45.66.45.02.89.03,1.33,0,.37-.02.7-.33.75-.68.08-.51.21-1.02-.03-1.52h0ZM164.16,40.57c.22,1.02.54,1.63,1.14,2.07.45.33.96.36,1.49.22.14-.03.35-.41.31-.55-.1-.28-.17-.58-.31-.83-.57-1.04-1.37-1.31-2.63-.91h0ZM154.68,36.9c-.04.22-.13.44-.09.63.04.21.17.42.32.58.99,1.14,2.02,2.25,3.2,3.19.07-.89-.27-1.68-1.25-3.26-.66-.41-1.25-1.03-2.19-1.15h0ZM131.53,37.81c-.49.51-.73,1.16-1,1.77-.85,1.95-.78,3.95-.23,5.96.02.07.06.14.1.2.11.17.22.22.3.14.05-.05.11-.13.1-.19-.05-.52-.1-1.04-.17-1.67.37-1.89.57-3.91,1.08-5.88.02-.09-.11-.21-.18-.33h0ZM181.39,64.56c.18-.06.32-.1.45-.17.06-.03.1-.1.15-.16.12-.15.03-.53-.14-.59-.49-.15-.99-.28-1.44-.41-.2-.48-.38-.89-.53-1.23-.59-.49-1.1-.93-1.63-1.35-.24-.18-.5-.33-.76-.47-.19-.11-.41-.17-.63-.07-.15.07-.17.35-.02.6.27.45.54.9.82,1.34.64.44,1.25.88,1.87,1.3.62.42,1.26.81,1.87,1.2h0ZM166.85,47.82c-.06.08-.12.25-.24.3-.56.25-1.15.29-1.73.2-.06-.06-.14-.1-.17-.16-.39-1.05-.78-2.1-1.16-3.16-.05-.14-.04-.29-.06-.45-.03-.18.13-.47.29-.56.17-.08.55-.03.63.1.38.56.76,1.11,1.13,1.68-.02.24-.04.45-.06.7.29.61,1.32.46,1.37,1.36h0ZM165.6,49.52q.55,1.33,1.53,2.43c.6.16,1.19.04,1.77-.11.37-.09.52-.6.27-.91-.43-.53-.85-1.06-1.31-1.56-.14-.16-.38-.29-.59-.3-.6-.05-1.2-.01-1.67.46h0ZM143.35,64.09c1.06.8,2.09,1.25,3.22,1.42,2.07.32,4.14.69,6.26.58,1.05-.05,2.1,0,3.15-.03.29,0,.59-.07.87-.1.02-.31-.15-.45-.37-.52-.37-.12-.73-.04-1.11.02-.51.09-1.04.13-1.56.14-.52.02-1-.2-1.55-.06-.5.12-1.04.07-1.56.06-.22,0-.44-.09-.66-.14-1.76-.37-3.53-.72-5.22-1.34-.41-.15-.85-.3-1.46-.04h0ZM179.21,46.34c.17-.44.25-.89-.06-1.28-.43-.54-.66-1.13-.83-1.8-.27-1.09-.72-2.12-.8-3.26,0-.14-.12-.27-.19-.43-.85-.56-1.55-.98-2.26-1.4-.06-.03-.14-.02-.26-.04-.6.2-1.22.48-1.66.99-.14.16.04.47.29.43.99-.17,1.93-.19,2.82.54.25.74.54,1.5.76,2.29.38,1.39,1.13,2.59,1.84,3.82.05.08.23.09.35.13h0ZM131.15,53.56c-.03-.21-.02-.44-.1-.63-.86-1.92-1.83-3.79-2.3-5.86-.03-.12-.2-.22-.33-.28-.14-.08-.46.13-.52.32-.18.6-.24,1.15.23,1.69.5.57.46.6-.07,1.33-.08.12-.14.26-.24.43.16.14.3.32.49.42.26.14.55.22.82.35.26.13.31.61.08.77-.3.21-.62.4-.92.59.14.85.47,1.23,1.07,1.19.59-.04,1.21.05,1.78-.31h0ZM180.39,44.86c-.5-.75-.99-1.33-1.02-2.14-.02-.36-.25-.7-.36-1.06-.07-.21-.1-.44-.14-.66-.06-.35.37-.73.71-.61,1.08.38,1.62,1.36,1.37,2.48-.03.14-.08.29-.15.51.43,1.28.88,2.63,1.34,3.98.12.35.31.68.49,1.01.6,1.05,1.04,2.16,1.29,3.34.54.81,1.36,1.43,1.62,2.42.05.17,0,.3-.15.38-.63-.15-1.11-.56-1.27-1.16-.25-.91-.81-1.59-1.45-2.2-.18-.6-.27-1.2-.52-1.73-.23-.46-.62-.84-1.03-1.36-.37-.92-.8-1.96-.73-3.21h0ZM198.34,32.79c-.06.26-.14.54-.19.84-.08.41.12.75.39,1.01.21.21.51.3.83.18.26-.1.47-.42.48-.7,0-.46-.08-.89-.26-1.32-.13-.31.16-.54.52-.43.37.1.72.22,1.15.35.13.23.26.5.41.75.16.25.34.49.53.73.19.25.28.52.23.84-.29.33-.61.64-.89.99-.21.27-.13.73.14,1.04.29.31.73.46,1.02.3.26-.14.5-.33.76-.49.43-.27.88-.09,1.07.42.36.96.34,1.93.05,2.89-.21.72-.57,1.39-.88,2.08-.22.49-.58.88-1.01,1.2-.29.23-.66.37-.88.77.08.17.14.38.26.55.51.68.51.68-.21,1.15-.14-.06-.31-.09-.39-.19-.17-.24-.26-.54-.43-.78-.22-.29-.47-.6-.76-.82-.86-.65-1.81-.37-2.19.62-.03.07-.04.14-.06.21-.21.68-.04,1.2.51,1.59.18.13.39.23.57.35.19.12.37.25.56.38-.32.6-.92.79-1.46,1.03-.91.4-2.05-.28-2.23-1.3-.02-.14-.02-.3,0-.44.08-.39.13-.76-.28-.99-.27-.16-.56-.16-.87-.08-.97.23-1.86.6-2.64,1.24-.61.5-1.25.45-1.9.12-.89-.45-1.66-1.05-2.18-1.92-.15-.26-.28-.53-.59-.69-.45-.16-.87.05-1.27.25-.88.44-1.6.13-2.29-.41-.09-.08-.12-.23-.17-.35.07-.03.16-.11.19-.09,1,.47,1.91.1,2.81-.3.29-.13.41-.67.22-1-.19-.35-.66-.57-.94-.38-.37.24-.72.53-1.07.8-.7-.1-1.33-.31-1.89-.74-.45-.35-.68-.86-.49-1.38.13-.35.32-.68.42-.89.37-.39.73-.51,1.07-.65,1.27-.53,2.03-1.54,2.53-2.75.19-.49.31-1.01.45-1.46.14-.16.21-.32.33-.39,1.08-.62,1.83-1.53,2.41-2.63.49-.93,1.06-1.82,1.58-2.71.18-.02.37-.09.45-.03.58.51,1.15.98,1.99.88.07,0,.15.02.21.06.27.14.54.29.5.66-.05.4.06.74.36,1.02.29.27.62.43,1.01.45.22.01.45-.02.68-.02.54,0,1.03.15,1.51.4.06.03.1.11.17.21h0ZM166.18,29.58c-.14-.41-.28-.84-.43-1.25,0-.33.13-.59.36-.8.34-.3.69-.59,1.01-.91.59-.6,1.06-1.27,1.24-2.18-.03-.24-.1-.53-.11-.84-.05-.92-.29-1.78-.72-2.59-.11-.2-.22-.41-.28-.62-.15-.52-.15-1.05.07-1.55.16-.33.37-.65.52-.94-.06-.35-.12-.65-.17-.89.15-.45.48-.65.85-.73.36-.09.74-.13,1.12-.12,1.58.04,3.17.06,4.73.39.1.02.3-.1.34-.21.04-.1-.04-.27-.09-.4-.02-.06-.11-.11-.18-.14-.35-.14-.7-.35-1.05-.38-1.58-.14-3.14-.46-4.73-.21-.37.06-.75,0-1.17,0-.35-.15-.47-.51-.59-.86-.15-.41.1-.79.5-.81.07,0,.15-.04.22-.03,1.74.12,3.47.14,5.2.06.82-.04,1.66.05,2.47.31.35.11.74.15,1.11.16.2,0,.41-.13.6-.2.03-.37-.1-.64-.43-.72-1.31-.36-2.63-.63-4.01-.6-1.13.02-2.26,0-3.39-.02-.29,0-.59-.07-.89-.11.04-.2.04-.42.1-.45.63-.23,1.27-.49,1.93-.63,1.19-.25,2.41-.17,3.59.11.66.16,1.32.31,2,.32,1.71,0,3.24.58,4.68,1.45.52.31,1.06.6,1.48,1.02.92.89,1.78,1.84,2.63,2.8.25.27.39.64.51,1,.35.99.68,2,1.06,3.12-.15.6-.35,1.33-.51,2.06-.1.45-.02.89.19,1.32.29.62.7,1.17,1.23,1.61.52.44,1.06.85,1.59,1.27.53.41.71.95.66,1.6-.08,1.14-.72,1.95-1.51,2.68-.11.1-.25.18-.37.26-1.21.85-2.09,1.93-2.4,3.42-.06.29-.22.57-.41.79-1.19,1.44-2.67,2.18-4.7,1.78-.22-.18-.5-.43-.8-.65-.74-.53-1.54-.98-2.21-1.56-.67-.58-1.61-.47-2.38-1.13-.14-.25-.37-.64-.54-.96-.19-.89.04-1.54.58-2.16.49-.56.34-.91-.45-1.43-.91.17-1.42.78-1.61,1.65-.12.59-.12,1.2-.17,1.75-.37.8-.71,1.54-1.09,2.35-1.45.59-2.92.27-4.25-.06-.62.09-.96.39-1.31.67-.24.19-.48.37-.73.53-.59.37-1.41.23-1.84-.3-.39-.47-.75-.95-.94-1.59.13-.14.25-.4.42-.45,1.38-.4,2.07-1.42,2.54-2.68.28-.78.62-1.53.94-2.33h0ZM206.64,40.31c0-.14-.02-.27.01-.4.02-.1.12-.17.18-.25-.03.44-.14.52-.23.62.22.34.57.44.94.55.7.21.82.39.83,1.11,0,.14-.05.29-.08.44-.08.13-.13.28-.23.38-.98.93-1.97,1.85-2.93,2.75-.2-.05-.29-.16-.26-.32.03-.14.08-.31.18-.4.73-.66.99-1.52.91-2.44-.05-.64.16-1.18.37-1.74.05-.12.21-.19.31-.29h0ZM165.77,37.99c.57-.16,1.14-.34,1.71-.48.21-.06.45,0,.62,0,.57.29,1.1.56,1.65.84.6-.1,1.2-.16,1.77-.33.42-.12.8-.38,1.19-.59.06-.04.13-.1.15-.17.04-.14.1-.31.05-.41-.06-.1-.27-.19-.37-.15-1.38.42-2.78.49-4.21.4-.37-.02-.75-.04-1.12-.02-.65.04-1.13.33-1.39.95-.35.04-.7.08-1.05.14-.15.03-.2.17-.14.33.02.06.07.13.12.17.19.11.41.14.59,0,.25-.17.41-.39.44-.7h0ZM186.67,16.67c.2.13.13.06-.05.04,0-.14,0-.29-.02-.44,0-.06-.04-.14-.08-.19-.15.09-.22.24-.18.34.05.11.21.17.32.25h0ZM134.01,57.55c-.04-.27-.15-.47-.45-.47,0-.15.04-.32-.02-.44-.39-.8-.88-1.54-1.55-2.2-.47.36-.92.7-1.42,1.08.77.46,1.46.9,2.18,1.29.25.14.56.16.84.23.03.28.21.41.47.45l-.05.05ZM195.71,48.91c-.04-.26-.18-.43-.45-.45,0-.58-.37-.97-.67-1.4-.13-.18-.45-.27-.61-.17-.45.27-.88.57-1.34.83-.26.14-.54.31-.83.34-.91.08-1.81,0-2.61-.54-.5-.34-.99-.7-1.49-1.03-.1-.07-.26-.05-.39-.04-.15.02-.04.36.19.55.46.39.94.77,1.36,1.19.5.49,1.09.81,1.74,1.03.5.17,1,.3,1.52.45.45-.14.88-.27,1.23-.38.31-.44.56-.8.8-1.13.21.02.37,0,.51.05.21.06.41.14.62.22,0,.31.14.47.46.46-.03.33.17.43.45.46.08.1.14.22.25.29.15.1.27.04.28-.12-.3-.11-.44-.12-.56-.13.02-.32-.18-.43-.45-.47h0ZM151.28,38.92c.04.61.25,1.18.56,1.7.19.32.38.65.56.98.12.21.1.43-.04.62-.16.2-.57.15-.8-.1-.2-.22-.45-.44-.56-.7-.57-1.39-1.32-2.71-1.72-4.19-.15-.57-.46-1.11-.72-1.65-.05-.09-.25-.17-.35-.15-.12.04-.23.18-.29.3-.06.13-.1.3-.07.44.19,1.04.34,2.09.85,3.04.58,1.06,1.15,2.12,1.77,3.16.65,1.11,1.36,2.17,2.04,3.26.1.16.06.33-.1.38-.13.04-.29.04-.41,0-.14-.05-.25-.16-.34-.28-1.29-1.77-2.68-3.47-3.65-5.46-.26-.55-.51-1.1-.78-1.63-.06-.13-.2-.21-.34-.34-.05.22-.12.42-.14.62-.03.6-.02,1.21-.06,1.81,0,.11-.14.24-.25.32-.11.08-.51-.14-.56-.29-.05-.14-.11-.29-.14-.44-.03-.22-.05-.45-.03-.67.13-1.46-.28-2.84-.6-4.21-.2-.03-.36-.1-.47-.05-.12.05-.22.19-.3.31-.08.13-.14.27-.16.42-.12,1.35-.33,2.71.18,4.03.08.21.09.45.13.67.31,1.57.9,3.04,1.74,4.4.15.25.27.53.39.79.02.06-.02.15-.05.21-.09.15-.22.17-.38.05-.06-.04-.14-.07-.18-.13-1.62-1.97-2.59-4.24-2.98-6.75-.15-.97-.25-1.94-.07-2.92.1-.51.02-1.05.02-1.58,0-.17-.37-.36-.53-.29-.51.22-.85.61-1.12,1.08-.35.61-.37,1.3-.42,2.01-.26.32-.55.66-.8.99-.21.78-.16,1.54-.17,2.29,0,.68.05,1.36.03,2.04-.09,2.08.72,3.83,1.98,5.41.33.42.7.8,1.02,1.21.14.17.2.4.29.6.02.06,0,.18-.03.19-.13.06-.33.17-.39.12-1.4-1.19-2.52-2.6-3.31-4.26-.16-.34-.31-.7-.37-1.07-.33-2.08-.81-4.15-.29-6.29.18-.73.35-1.5.3-2.23-.05-.71.26-1.33.26-2.01,0-.15-.02-.3-.02-.45,0-.28-.37-.6-.6-.54-.27.07-.6.43-.51.66.42,1.14-.18,2.2-.21,3.31-.01.32-.31.49-.61.59-.21-.1-.41-.22-.62-.26-.12-.02-.31.05-.39.14-.29.36-.44.78-.5,1.24-.27,1.97-.16,3.94.1,5.88.19,1.42.8,2.74,1.64,3.94.7,1,1.55,1.84,2.47,2.64.12.11.07.3-.06.39-.04.03-.14.03-.2,0-1.8-.94-3.14-2.34-4.01-4.17-.26-.54-.47-1.11-.68-1.68-.09-.21-.2-.43-.21-.64-.08-1.51-.42-2.99-.52-4.49-.1-1.45.25-2.85.72-4.21.02-.06-.02-.18-.07-.19-.12-.05-.27-.1-.39-.08-.14.03-.26.14-.39.22-.95.61-1.45,1.51-1.64,2.6-.19,1.11-.34,2.24-.55,3.35-.16.81-.33,1.62,0,2.44.03.06.03.15.02.22-.23,1.62.31,3.14.55,4.7.14.9.42,1.77.84,2.58.59,1.14,1.11,2.31,1.89,3.35.5.67,1.06,1.29,1.72,1.79.9.69,1.83,1.34,2.75,1.99.49.35,1,.67,1.51,1,2.04,1.34,4.22,2.35,6.66,2.71.15.02.31.03.45.08,1.6.56,3.27.52,4.93.5,1.96-.02,3.93-.01,5.89-.01.92,0,1.81-.13,2.6-.64.12-.08.28-.08.51-.14.2.14.47.27.68.47,1.22,1.16,2.61,2.05,4.17,2.67.63.25,1.21.62,1.84.89.33.14.72.18,1.09.25.06,0,.19-.06.19-.08,0-.12,0-.29-.08-.34-.81-.54-1.59-1.13-2.56-1.41-.58-.17-1.06-.56-1.5-.99-.76-.72-1.54-1.44-2.32-2.16-.16-.16-.34-.31-.48-.49-1.37-1.8-3.14-3.27-4.3-5.24-.2-.32-.45-.61-.72-.88-.54-.55-.98-1.15-1.27-1.86-.23-.57-.6-1.05-.98-1.52-1-1.23-2-2.46-2.98-3.67.23-.56.51-.72.78-.49.91.8,1.77,1.64,2.49,2.62.41.54.84,1.07,1.25,1.61.27.36.56.71.78,1.1.33.6.68,1.17,1.11,1.71.43.53.82,1.08,1.2,1.65.51.76,1.05,1.47,1.69,2.12.37.37.7.8,1.01,1.23.36.49.79.89,1.27,1.27.77.6,1.5,1.27,2.22,1.93.72.68,1.53,1.23,2.44,1.62,1.46.62,2.83,1.42,4.16,2.29.63.41,1.29.78,1.93,1.19.17.12.29.32.43.47-.55.71-.91.8-1.51.44-.84-.51-1.68-1.02-2.52-1.52-.19-.11-.4-.18-.63-.27-.14.19-.28.37-.41.55-.28.42-.67.6-1.16.55-.37-.04-.75-.11-1.11-.21-2.06-.56-3.96-1.46-5.61-2.84-.35-.29-.71-.56-1.09-.81-.1-.07-.29,0-.45,0-.27.33-.56.69-.81,1-.18.08-.31.16-.46.2-1.03.26-2.08.41-3.14.44-1.89.04-3.78.11-5.67.08-1.81-.02-3.62-.11-5.41-.47-.52-.11-1.03-.21-1.53-.41-.77-.31-1.55-.6-2.38-.71-.62-.09-1.11-.45-1.44-1-.11-.2-.21-.42-.37-.57-.22-.19-.49-.38-.76-.45-.51-.12-1.05-.15-1.61-.22-.13-.16-.33-.31-.38-.51-.32-1.23-1.24-1.62-2.36-1.75-.45-.06-.9-.02-1.35-.05-.37-.02-.56-.49-.35-.86.07-.13.19-.23.27-.36.04-.06.04-.14.09-.3-.44-.61-1.1-.92-1.85-1.06-.45-.08-.9-.1-1.35-.17-.45-.07-.67-.37-.76-.95-.02-.15-.04-.29-.07-.44-1.62-1.41-1.97-1.62-3.81-2.29-.05-.54.63-.6.7-1.21-.21-.44-.51-.96-.72-1.52-.19-.49-.28-1.01-.42-1.53-.42-.33-.84-.64-1.23-.95,0-.18-.06-.34-.02-.47.09-.29.23-.56.32-.85.13-.44.21-.89-.05-1.32-.21-.34-.55-.48-.93-.59-.14-.04-.25-.16-.43-.29.51-.21.98-.42,1.4-.6.25-.63.5-1.2-.19-1.7-.33-.02-.71-.05-1.08-.06-.5,0-.87.26-1.1.68-.26.46-.42.96-.49,1.5-.08.75-.21,1.5-.33,2.4,1.11,4.16,3.05,8.19,4.58,12.35-.14.08-.25.21-.38.23-.23.04-.47-.06-.57-.27-.4-.82-.77-1.64-1.14-2.46-.27-.62-.49-1.27-.79-1.88-.99-2.04-1.68-4.2-2.53-6.3-.2-.51-.29-1.02-.27-1.55.03-1.06.06-2.12.39-3.14.3-.93.58-1.87.86-2.81.17-.57.35-1.15.5-1.65-.11-.41-.29-.63-.61-.72-.44-.11-.88-.22-1.38-.33-.45.06-.72.45-.86.88-.4,1.22-.78,2.44-1.08,3.68-.31,1.32-.53,2.67-.78,4-.45,2.35-.23,4.66.43,6.94.12.43.39.81.58,1.2-.11.28-.37.34-.53.22-.24-.18-.45-.42-.58-.68-.42-.84-1.01-3.16-1.03-4.15-.02-1.06.02-2.12.04-3.17.01-.61.12-1.21.38-1.76.33-.7.42-1.44.53-2.2.14-.97.3-1.94.55-2.89.31-1.17.72-2.3,1.51-3.26.29-.35.55-.72.78-1.11.19-.31.33-.66.48-.98.85-.31,1.71.12,2.5-.2-.97-1.44-1.49-2.3-2.1-3.79-.12-.29-.07-.59.09-.86.07-.13.15-.27.26-.37.63-.55,1.33-.99,2.11-1.28.25-.1.64.21.6.5-.03.21-.05.49-.18.62-.25.27-.6.45-.86.71-.14.15-.26.41-.23.6.13.84.51,1.58,1.2,2.11.23.18.51.33.8.41.5.15,1.03.24,1.62.38.51-.21,1.06-.42,1.66-.66.92.2,1.88.41,2.81.62.69-.12,1.37-.23,2.09-.36,1.33-.8,2.46-1.92,3.66-2.94.12-.35-.05-.58-.35-.77-.12-.07-.25-.04-.4.05-2.03,1.13-2.75,1.26-5.52.98-.29-.22-.7-.45-1-.77-.87-.92-1.31-2.01-1-3.3.1-.4,0-.73-.1-1.1-.07-.32.1-.57.39-.74.76-.43,1.44-.3,2.08.25.21.18.25.66.05.81-.24.18-.51.33-.76.49-.39.25-.68.59-.82,1.04q.37,1.18.97,1.68c.04-.06.11-.11.12-.17.18-.88.78-1.23,1.62-1.29.55-.04,1.02.53.82,1.06-.13.34-.39.63-.59.94.4.27.84.15,1.27,0,.29-.1.57-.28.65-.58.14-.54.58-.87.86-1.33.16-.52.03-1.03-.08-1.55q-.04-.18-.51-.29c-.37.27-.71.57-1.11.78-.16.09-.43.02-.64-.03-.16-.04-.31-.46-.23-.58.42-.63.8-1.3,1.69-1.35.13,0,.25-.14.39-.23.1-.58.2-1.17.31-1.84-.12-.44-.27-.95-.42-1.46-.08-.29-.18-.57-.25-.87-.18-.76.1-1.41.79-1.69.62-.25,1.27-.46,1.93-.64.51-.14,1.04-.2,1.58-.29.43.07.87.14,1.31.21.2-.15.43-.25.56-.42.77-1,1.85-1.26,3.02-1.21.37.02.74.1,1.1.22.52.18.72.82.41,1.32-.16.26-.37.45-.74.33-.2-.07-.52-.14-.65-.03-.93.75-1.97.58-3.02.45-.07,0-.15,0-.34.02-.37.2-.82.46-1.23.69-.73.04-1.41.06-2.08.12-.22.02-.45.12-.62.24-.18.12-.3.33-.45.51.04.23.04.46.13.66.46.99.77,1.97.25,3.04-.06.13-.06.3-.06.45.06,1.55.41,3.01,1.54,4.14,1.01,1.02,2.09,1.97,3.17,2.98.51-.03,1.03-.12,1.55-.1.52.02,1.04.18,1.57.23.39.03.72.16,1.05.36.18.12.41.18.63.25.76.24,1.13.07,1.37-.68.11-.36.19-.73.45-1.02.05-.06.12-.09.22-.17.17.09.38.16.56.27.13.07.23.19.34.29.29-.29.19-.71.35-1.14.33-.39.72-.84,1.12-1.29.26-.29.72-.2.97.14.37.51.58,1.06.53,1.7-.07.67-.18,1.35.02,2.02.12.39.72.7,1.09.53.14-.06.25-.17.37-.25.13-.07.27-.12.45-.19.28.19.58.39.93.62.56-.04,1.15-.07,1.75-.1.51-.09.77-.78,1.43-.6.29.28.6.58.97.94.08-.55.11-1,.2-1.44.06-.31.29-.55.61-.6.44-.07.89-.14,1.34-.14.7,0,1.35-.15,2-.37.79-.27,1.25-.87,1.35-1.67.1-.74.14-1.51-.29-2.2-.11-.19-.14-.43-.21-.64-.05-.18.08-.51.24-.6.06-.04.12-.11.18-.12,1.11-.23,1.85-.98,2.54-1.8.31-.37.4-.8.39-1.27-.02-.46-.11-.89-.31-1.31-.26-.55-.67-.81-1.27-.71-1.04.16-2.08.35-3.09.52-.46.66-.89,1.27-1.33,1.9-.51.32-1.02.64-1.53.96-.15,0-.3.02-.45,0-.37-.06-.73-.22-1.1-.22-.63,0-1.18-.21-1.75-.42-.72-.27-1.11-.78-1.05-1.55.07-.85-.17-1.64-.33-2.45-.1-.49.24-1.1.69-1.31.63-.29,1.29-.43,1.97-.22.13.04.24.17.33.28.09.11-.1.53-.26.57-.29.08-.58.14-.88.21-.41.1-.64.37-.83.82.02.75.16,1.56.32,2.29.47.59,1.03.77,1.66.76.37,0,.75-.08,1.12-.16.97-.2,1.68-.66,1.76-1.76.02-.21.15-.43.26-.61.08-.12.22-.25.35-.27.21-.04.45.02.67,0,.61-.04,1.19-.17,1.63-.66.2-.22.46-.39.7-.55.91-.62.96-.74.67-1.86-.04-.14-.05-.29-.08-.47.2-.27.42-.57.65-.9.07-.73.08-1.47-.19-2.2-.24-.65-.51-1.26-1.15-1.62-.51-.27-.64-.82-.97-1.35-1.48-1.27-3.1-2.48-4.93-3.44-.6-.31-1.16-.71-1.76-1.03-.25-.14-.56-.17-.86-.25-.1-.08-.19-.19-.3-.25-.16-.09-.26-.04-.22.11.3.07.43.08.56.1.03.14.01.32.09.42.54.74,1.21,1.37,2.05,1.75.98.45,1.7,1.25,2.65,1.73.12.06.23.21.29.33.07.13.12.29.11.42-.04.25-.24.34-.48.37-.92-.35-1.78-.78-2.51-1.48-.26-.25-.61-.44-.95-.6-.62-.3-1.17-.7-1.66-1.17-1.29-1.22-2.87-1.92-4.45-2.63-.41-.19-.86-.31-1.27-.49-.56-.25-1.14-.39-1.75-.43-.45-.03-.92-.03-1.35-.14-.8-.19-1.58-.5-2.39-.67-.74-.15-1.5-.16-2.24-.27-1.88-.28-3.74-.45-5.62.02-.65.16-1.34.14-2.02.18-2.26.14-4.5.38-6.71.93-.88.22-1.79.34-2.63.65-.84.31-1.61.82-2.43,1.22-.88.43-1.8.79-2.65,1.28-2.74,1.6-5.53,3.1-8.07,5.03-1.56,1.19-3.29,2.14-4.81,3.4-.34.29-.78.45-1.18.66-1.21.66-2.28,1.46-3.14,2.55-.61.76-1.34,1.43-1.96,2.19-1.39,1.69-2.69,3.45-3.84,5.32-.87,1.42-1.81,2.79-2.78,4.13-.54.74-.96,1.53-1.28,2.39-.63,1.7-1.41,3.33-2.54,4.78-.74.96-1.33,2-1.87,3.09-.53,1.08-1.16,2.11-1.78,3.15-.7,1.17-1.42,2.32-2.15,3.46-.44.7-.9,1.39-1.5,1.98-.26.26-.46.59-.69.89-1,1.33-1.99,2.65-2.99,3.98-.14.18-.29.36-.47.49-1.11.8-1.97,1.89-3.07,2.68-1.52,1.1-3.11,2.14-4.76,3.03-1.58.86-3.29,1.51-4.95,2.24-.34.15-.7.25-1.06.37-.35.13-.74.21-1.04.41-1.28.88-2.77,1.2-4.19,1.67-1.22.4-2.47.7-3.71,1.01-.88.22-1.73.5-2.64.61-.82.1-1.62.35-2.44.43-.9.08-1.79.26-2.69.37-.3.04-.61.04-.9-.01-.4-.06-.68-.29-.76-.71.12-.29.33-.53.65-.55.68-.03,1.36-.02,2.03,0,.99.03,1.94-.06,2.91-.37.92-.3,1.9-.44,2.86-.65.15-.03.31-.02.45-.08,2.85-.97,5.86-1.46,8.57-2.84,1.9-.54,3.57-1.62,5.41-2.32.69-.26,1.33-.72,1.94-1.14.62-.43,1.23-.88,1.93-1.18.14-.06.28-.13.4-.22,1.69-1.28,3.37-2.56,4.72-4.21.33-.41.61-.88.98-1.24.71-.7,1.28-1.48,1.77-2.34.21-.39.51-.75.8-1.09,2.2-2.52,3.87-5.38,5.31-8.39.23-.48.43-.98.74-1.4,1.46-1.95,2.45-4.16,3.48-6.34.25-.55.63-1.05.67-1.68.41-.19.47-.53.43-.92.29,0,.4-.22.47-.46.36-.2.41-.54.43-.9.29-.01.42-.19.49-.45.92-.74,1.18-1.17,1.36-2.26.43-.05.62-.39.82-.7,1.36-2.09,2.81-4.1,4.56-5.89.26-.27.53-.54.73-.85.63-.99,1.54-1.64,2.51-2.24.9-.55,1.8-1.11,2.63-1.76,1.67-1.3,3.42-2.47,5.21-3.6.64-.4,1.27-.82,1.88-1.26,1.96-1.42,4.01-2.68,6.21-3.68,1.09-.5,2.14-1.08,3.11-1.81.37-.04.79.05.92-.45.35.04.71.08,1.03-.1-.48-.28-.82-.25-.99.15-.37.03-.78-.02-.92.46-.61,0-1.17.17-1.75.39-1.97.73-3.81,1.76-5.8,2.47-.7.24-1.34.68-1.97,1.08-1.01.64-1.99,1.35-2.98,2.03-1.66,1.15-3.32,2.33-5.02,3.42-.56.37-1.08.8-1.59,1.26-1.73,1.55-3.26,3.32-4.78,5.08-1.33,1.53-2.48,3.21-3.49,4.97-.18.33-.33.67-.29,1.06-.07.02-.16.02-.21.06-.61.62-1.07,1.32-1.14,2.22-.29.02-.4.21-.48.45-.33.21-.37.57-.43.9-.25.06-.4.22-.48.45-.41.18-.43.56-.43.93-.34.02-.54.28-.68.53-.59,1.05-1.13,2.13-1.72,3.19-.85,1.52-1.87,2.92-3,4.25-.24.29-.52.56-.72.88-.78,1.21-1.7,2.31-2.64,3.4-.35.39-.61.86-.91,1.3-1.58,2.4-3.26,4.72-5.13,6.91-.78.92-1.57,1.83-2.21,2.87-.65,1.06-1.68,1.74-2.7,2.37-.58.36-1.15.71-1.63,1.2-.54.54-1.22.89-1.9,1.22-1.36.66-2.71,1.33-4.08,1.98-1.09.52-2.29.75-3.44,1.11-.41.13-.89.02-1.46.02-1.42.9-3.12,1.19-4.85,1.45-2.38.37-4.76.82-7.14,1.22-1.13.19-2.27.16-3.39,0-1.05-.15-2.1-.24-3.16-.29-.68-.03-1.34-.14-2.02-.28-1.25-.27-2.48-.62-3.77-.74-.61-.06-1.21-.23-1.68-.64-.52-.47-1.13-.74-1.77-.98s-1.29-.45-1.89-.75c-.6-.3-1.16-.69-1.61-.96-.49-.08-.74.1-1,.25-.66.37-1.3.77-1.95,1.15-.26.16-.51.35-.8.43-1.94.64-3.73,1.66-5.67,2.26-1.36.43-2.75.83-4.23.67-.75-.09-1.5.02-2.24.21-1.04.26-2.09.25-3.14.04-.52-.11-1.04-.23-1.57-.23-1.37.02-2.7-.33-4.04-.47-1-.1-1.91-.43-2.75-.98-.45-.43-.68-.99-.93-1.54-.06-.14-.1-.3-.08-.43.03-.13.13-.29.24-.36.11-.07.32-.1.41-.04.37.25.71.55,1.13.89.37-.05.8-.1,1.29-.16.3.31.62.63,1.04,1.05.64.26,1.46.44,2.28.46,1.74.06,3.47.28,5.21.17.83-.06,1.66,0,2.46-.29.21-.07.45-.1.67-.1,1.46-.04,2.83-.44,4.17-.97,1.33-.53,2.73-.84,4-1.54.19-.1.43-.14.65-.18.9-.2,1.69-.64,2.42-1.19.67-.49,1.32-.99,1.91-1.44.52-.06.85.15,1.11.4,1.62,1.58,3.63,2.39,5.75,3.02.51.15,1,.34,1.48.55.91.37,1.83.7,2.83.78.37.02.76.09,1.11.18,1.34.37,2.69.36,4.04.06.22-.05.44-.11.66-.14.61-.09,1.21-.13,1.79.1.96.37,1.93.3,2.91.1,1.32-.28,2.65-.54,4-.69,1.11-.12,2.21-.46,3.31-.71.96-.23,1.92-.43,2.85-.72,1.15-.35,2.3-.74,3.4-1.21,1.11-.46,2.27-.77,3.3-1.46,1.01-.66,2.15-1.11,3.2-1.71.52-.29,1.01-.67,1.46-1.07,1.45-1.32,2.9-2.64,4.14-4.18,1.13-1.42,2.32-2.79,3.49-4.17.05-.06.1-.11.15-.17,1.52-2.16,3.06-4.31,4.25-6.69.33-.67.68-1.35,1.05-2.01.74-1.31,1.54-2.59,2.28-3.92,1.1-1.98,2.25-3.93,3.55-5.79.35-.49.66-1.01.95-1.54.69-1.27,1.57-2.4,2.59-3.43,1.27-1.3,2.45-2.67,3.37-4.25.49-.86,1.14-1.6,1.84-2.29,1.41-1.37,2.82-2.73,4.2-4.14,1.02-1.04,2.19-1.85,3.47-2.51.6-.31,1.22-.61,1.81-.94.93-.51,1.84-1.04,2.67-1.71,1.36-1.1,2.9-1.9,4.52-2.55,1.26-.5,2.53-1,3.79-1.5.28-.11.56-.24.82-.39,2.04-1.23,4.29-1.84,6.61-2.25,2.15-.39,4.32-.69,6.45-1.23.5-.13,1.05-.12,1.57-.17.6-.06,1.21-.1,1.8-.19.9-.16,1.81-.07,2.72-.09,1.38.4,2.86.21,4.25.61.5.14,1.05.15,1.58.19,2.36.17,4.62.65,6.73,1.77.4.21.85.31,1.27.46.35.13.76.19,1.04.41.91.71,1.97,1.11,3.01,1.56.98.42,1.89.92,2.76,1.53.31.22.62.43.95.64.45.02.91.01,1.36.05.48.04.84.31,1.08.72.14.26.22.56.36.83.1.18.24.35.38.56.54-.12,1.04-.26,1.56-.35.52-.08,1.05-.12,1.53-.16.24-.14.48-.22.63-.37.8-.84,1.78-1.07,2.9-.96.29.03.6.06,1,.11.39.2.87.41,1.32.69.59.35,1.19.62,1.9.64.22,0,.45.07.66.15,1.15.43,2.34.62,3.55.66.76.03,1.49.21,2.19.52.83.37,1.67.7,2.41,1,.37.37.45.72.45,1.11,0,.37,0,.75,0,1.11.26.44.67.64,1.11.77.29.08.6.1.9.13.68.08,1.08.5,1.33,1.09.15.35.26.71.38,1.07.43,1.29.86,2.57,1.3,3.86.12.36.31.7.36,1.07.17,1.16.83,2.09,1.36,3.08.25.47.69.8,1.17,1.01.33.06.59-.1.86-.22.48-.23.95-.48,1.44-.68,1.21-.51,2.37-.37,3.46.32.24.16.53.41.58.66.25,1.15,1.03,2,1.65,2.94.13.19.28.36.44.56.29.2.59.43.92.6,1.05.55,1.77,1.39,2.36,2.38.27.45.5.93.83,1.35.97,1.21,1.58,2.56,1.81,3.96.32.51.67.78,1.1.97.41.18.82.37,1.27.57.17.21.37.45.56.68.69.84.84,1.75.36,2.75-.2.41-.24.87-.23,1.33,0,.37,0,.75,0,.96-.23.7-.61,1.06-1.07,1.34-.45.28-.92.53-1.44.82-.4,1.37-1.52,2.12-2.75,2.73-.33.17-.72.23-1.09.27-.37.05-.74.01-1.1.01-1,.93-2.24,1.27-3.45,1.67-.27.09-.61.06-.89-.02-.73-.2-1.44-.46-2.19-.7-.51-.05-1.02.06-1.52.25-.27.1-.52.45-.45.7.19.58.38,1.15-.01,1.72.26.31.43.55.63.76.92.9,1.85,1.79,2.78,2.68.65.63,1.4,1.14,2.17,1.63.83.53,1.73.91,2.7,1.14,2.21.51,4.44.81,6.72.88,2.14.06,4.21-.22,6.3-.57,1.96-.32,3.74-1.12,5.56-1.88.49-.2.95-.47,1.41-.72,1.4-.74,2.8-1.49,4.2-2.24.13-.31.24-.59.36-.86.46-1,1.29-1.2,1.9-.37.6.8,1.34,1.43,2.1,2.04.23.19.49.38.77.47,1.51.49,2.91,1.29,4.47,1.63.29.07.58.2.88.22,2.11.11,4.19.62,6.32.49.83-.05,1.66-.04,2.5,0,2.92.12,5.69-.52,8.41-1.51.35-.13.71-.27,1.06-.39.07-.02.16-.02.22-.03.25.13.31.37.17.56-.22.3-.49.57-.78.8-.23.18-.53.29-.82.38-1.42.49-2.84.99-4.34,1.26-1.27.24-2.53.35-3.83.34-1.36-.01-2.72.04-4.08.04-.45,0-.94.04-1.35-.1-.95-.33-1.92-.34-2.9-.36-1.45-.04-2.85-.35-4.16-.98-.27-.12-.54-.27-.82-.39-1.77-.74-2.83-1.29-3.97-2.04-.12-.08-.28-.13-.42-.12-.14,0-.32.08-.37.18-.1.19-.15.41-.18.63-.14,1.02-.76,1.63-1.72,1.83-.69.15-1.29.41-1.8.89-.57.53-1.24.8-1.99,1-1.16.32-2.28.8-3.51.84-.37.01-.73.17-1.09.3-.78.28-1.56.59-2.33.88-1.07.41-2.15.71-3.31.68-.68-.02-1.35.16-2.01.28-.59.12-1.19.12-2.13.22,1.49.41,2.64.35,3.79.14.52-.1,1.04-.24,1.56-.25.99-.03,1.95-.1,2.91-.39.49-.15,1.04-.17,1.57-.17.92,0,1.79-.26,2.68-.41.29-.05.58-.17.85-.29.42-.19.8-.43,1.23-.6,1.23-.46,2.31-1.11,3.17-2.1.19-.22.45-.42.71-.55.43-.22.87-.25,1.24.16.09.32-.02.58-.21.83-.34.43-.85.62-1.27.94-.84.66-1.75,1.17-2.75,1.54-.35.13-.72.26-1.02.48-.83.59-1.78.8-2.77.9-.45.05-.9.08-1.35.1-.91.03-1.8.1-2.69.35-.86.25-1.79.28-2.68.43-.6.1-1.19.23-1.75.34-1.53-.1-3.03-.26-4.54-.3-1.08-.03-2.1-.27-3.1-.6-1.14-.39-2.26-.84-3.41-1.21-1.07-.35-2.05-.94-3.08-1.43-1.05-1.12-2.48-1.7-3.67-2.63-.8-.62-1.47-1.29-1.82-2.25-.26-.72-.69-1.34-1.25-1.87-.61-.58-1.06-1.27-1.38-2.06-.14-.35-.31-.68-.5-1.01-.43-.75-.63-1.54-.48-2.4.02-.15-.02-.3-.04-.45-.56-.89-1.12-1.78-1.68-2.67-.45-.43-1.04-.61-1.62-.77-.17-.05-.4.08-.67.15.16.5.28.93.45,1.34.23.56.55,1.09.74,1.66.6,1.81,1.61,3.4,2.57,5.03.11.19.22.4.36.57.87,1.04,1.75,2.07,2.64,3.1.2.23.47.41.63.65.86,1.34,1.9,2.54,2.84,3.81.04.06.1.14.09.2,0,.14-.02.29-.08.42-.07.15-.24.19-.39.09-.95-.63-1.75-1.42-2.4-2.36-.43-.62-.88-1.23-1.37-1.8-.29-.34-.65-.62-1.01-.9-.08-.06-.26.02-.39.06-.05.02-.09.14-.08.19.05.21.1.44.19.64.41.83,1.05,1.47,1.75,2.05.53.44,1.02.9,1.41,1.46.13.19.12.51-.04.6-.21.14-.42.09-.62-.04-.19-.12-.38-.25-.55-.39-.24-.19-.46-.4-.7-.58-.42-.33-.85-.63-1.34-.99h-.82c-.41,0-.76-.16-.97-.49-.6-.98-1.38-1.79-2.17-2.61-.31-.32-.58-.7-.81-1.08-.54-.91-1.06-1.83-1.56-2.76-.14-.25-.25-.56-.29-.84-.08-.8-.45-1.46-.98-2.01-.96-1.01-1.57-2.2-2.13-3.45-.31-.68-.61-1.39-1.03-2.01-.65-.96-1.01-2.01-1.3-3.11-.1-.37-.21-.72-.37-1.06-.09-.19-.29-.41-.47-.45-.96-.23-1.93-.39-2.89-.06-.07.02-.13.08-.19.13-.12.58.19,1.02.48,1.46.12.17.35.31.55.36.37.09.75.08,1.12.15.21.04.41.16.67.27-.16.21-.25.44-.43.52-.27.13-.58.16-.87.24-.16.04-.32.37-.3.56.04.39.16.73.47,1.05.43.35,1.13.31,1.56.87-.11.18-.18.42-.35.53-.53.35-.63.79-.45,1.37.04.11-.05.27-.1.47-.41.11-.84.22-1.26.33-.18.18-.21.38-.12.6.08.17.07.33-.07.38-.13.05-.31.08-.41.02-.52-.31-1.01-.66-1.53-.97-.12-.07-.29-.07-.44-.08-.06,0-.17.02-.2.07-.07.12-.2.31-.16.38.39.64.81,1.27,1.2,1.88.41.31.89.22,1.33.3.45.08.89.18,1.22.54,0,.67-.91.44-1.02,1.01.19.46.57.69,1,.87.34.15.72.23,1.05.39.12.06.16.25.24.37-.14.23-.29.47-.43.7.27.64.79.93,1.38,1.13.07.02.14.05.21.07.08.02.15.04.22.06.73.16,1.45.33,2.16.49.14-.12.25-.22.37-.32.39-.32.74-.32.99-.03.05.06.12.1.16.16.43.62.86,1.24,1.29,1.86.21.3.11.58-.24.69-.21.07-.45.09-.65.18-.12.05-.2.2-.29.32-.04.06-.05.14-.07.21,1.68,1.48,1.83,1.57,3.78,2.35.08.12.19.24.25.37.1.28.18.57.29.96.53.5,1.27.91,1.69,1.66.13.23.49.34.81.56.14.34.29.76.49,1.28.17.11.41.3.67.43,1.17.55,2.4.94,3.66,1.17,1.71.29,3.41.6,5.13.92.59.11,1.2.17,1.81.14,1.15-.06,2.24.27,3.35.43.11.02.22.18.28.29.08.14-.18.47-.36.5-2.4.41-4.8.41-7.19-.14-.15-.04-.29-.08-.44-.1-3.56-.5-6.83-1.84-10.09-3.26-.55-.24-1.11-.48-1.66-.72-.69-.31-1.39-.6-2.06-.93-.95-.48-1.89-.95-2.8-1.49-.72-.41-1.42-.87-2.07-1.38-1.18-.95-2.31-1.95-3.45-2.94-.34-.3-.64-.64-.96-.97-.62-.66-1.24-1.32-1.86-1.97-.1-.11-.24-.19-.33-.32-.8-1.2-1.87-2.17-2.84-3.22-.66-.72-1.28-1.48-1.69-2.4-.43-.98-1.04-1.83-1.73-2.65-.68-.82-1.29-1.68-1.65-2.69-.28-.78-.94-1.37-1.07-2.23-.05-.38-.37-.7-.71-.84-1.56-.69-2.72-1.89-3.97-2.98-.22-.19-.45-.4-.67-.6-.07.06-.16.12-.15.14.19.72.35,1.44.27,2.2-.05.46.08.9.23,1.33.15.42.26.86.43,1.41.27.32.6.72.95,1.13.78.92,1.59,1.82,1.99,3,.07.21.19.42.35.58.7.7,1.17,1.58,1.78,2.35.32.41.68.81,1.05,1.18,1.28,1.29,2.46,2.67,3.44,4.2.46.71.97,1.34,1.58,1.92.61.56,1.17,1.17,1.75,1.77,1.15,1.21,2.44,2.25,3.84,3.16,1.59,1.03,3.19,2.02,4.89,2.86.54.27,1.09.52,1.6.85,2.75,1.83,5.84,2.82,9.02,3.55,1.46.33,2.94.65,4.46.59.17,0,.38.22.51.38.18.22.06.56-.2.8-.24.21-.54.39-.82.29-.94-.34-1.93-.34-2.89-.52-1.19-.22-2.39-.36-3.5-.9-.33-.16-.73-.19-1.09-.29-.88-.25-1.72-.54-2.51-1-1.04-.61-2.13-1.15-3.2-1.71-.26-.14-.53-.33-.81-.39-.7-.14-1.25-.49-1.77-.95-.27-.25-.59-.48-.93-.63-1.05-.46-1.95-1.16-2.94-1.7-1.09-.58-1.98-1.38-2.83-2.24-.37-.38-.74-.72-1.23-.98-.38-.2-.69-.56-1-.9-.52-.55-1-1.13-1.5-1.7-.51-.56-1-1.12-1.39-1.78-.69-1.19-1.58-2.22-2.54-3.18-1.34-1.35-2.44-2.87-3.59-4.37-.14-.18-.31-.36-.37-.57-.36-1.11-1.08-1.97-1.9-2.77-.82-.81-1.38-1.81-1.66-2.92-.22-.87-.53-1.72-.51-2.65.01-.64-.35-1.11-.98-1.4-.47-.21-.9-.53-1.34-.81-.11-.88.12-1.78-.04-2.64-.22-.18-.39-.35-.58-.45-.1-.05-.31-.03-.39.04-.09.08-.15.28-.11.39.31.84.65,1.66.99,2.48.02.06.12.09.18.14Z"/>
      <path class="cls-1" d="M135.89,9.36c.91.04,1.81.06,2.72.12.22.02.45.09.64.2.18.11.35.29.47.47.06.1.06.31,0,.41-.06.11-.23.18-.37.21-.14.02-.31,0-.43-.06-.55-.29-1.15-.37-1.76-.37-.99.02-1.97.02-2.95.06-.3,0-.6.05-.9.12-1.61.4-3.22.8-4.82,1.25-.65.18-1.3.43-1.89.75-1.4.74-2.87,1.34-4.21,2.22-.81.54-1.73.92-2.6,1.37-.6.31-1.21.64-1.79.98-1.13.65-2.07,1.51-2.87,2.54-.69.9-1.4,1.78-2.11,2.67-.09.12-.18.25-.29.34-1.36,1.1-2.37,2.53-3.65,3.71-.12.11-.21.22-.33.31-1.72,1.3-2.98,2.99-4.16,4.75-.67,1-1.4,1.97-1.95,3.06-.1.2-.23.4-.38.56-1.18,1.22-1.77,2.8-2.62,4.22-.22.38-.37.82-.52,1.25-.51,1.43-1.21,2.77-1.99,4.06-.51.84-1,1.69-1.53,2.52-.68,1.09-1.23,2.26-2.21,3.14-.94,1.48-2.2,2.68-3.34,4-.99,1.15-1.99,2.28-3.01,3.39-.92,1-1.88,1.97-3.19,2.5-1.2.91-2.57,1.54-3.74,2.52-1.04.86-2.23,1.55-3.58,1.91-.73.19-1.43.49-2.15.71-.21.06-.45.03-.67-.02-.1-.02-.17-.19-.23-.31-.02-.05.02-.16.06-.2.1-.11.21-.23.35-.28.57-.19,1.15-.35,1.73-.54,1.37-.46,2.64-1.08,3.81-1.96,1.14-.86,2.35-1.64,3.57-2.4,1.22-.77,2.34-1.65,3.31-2.73,1.21-1.35,2.4-2.72,3.66-4.02,1.38-1.42,2.48-3.05,3.7-4.58.78-1.64,1.87-3.09,2.83-4.63.35-.57.57-1.23.84-1.85.5-1.18.99-2.37,1.49-3.55.45-1.04.97-2.06,1.68-2.94,1.38-1.72,2.53-3.59,3.75-5.4.43-.63.89-1.21,1.43-1.75,1.76-1.76,3.5-3.55,5.24-5.34,1.32-1.35,2.54-2.79,3.63-4.34.4-.56.9-1,1.48-1.37,1.42-.87,2.83-1.75,4.31-2.5,1.81-.92,3.63-1.86,5.44-2.79,1.28-.66,2.6-1.21,4.04-1.43.22-.04.44-.12.66-.18,1.75-.54,3.55-.7,5.37-.75Z"/>
      <path class="cls-1" d="M140.8,5.83c.53.21,1.02.41,1.5.6.08.3-.18.61-.46.57-.22-.03-.45-.05-.67-.1-.88-.23-1.79-.27-2.7-.26-.91.02-1.82-.02-2.72.07-1.27.13-2.55.29-3.8.53-.9.18-1.79.29-2.69.37-.61.05-1.22.16-1.73.48-1.05.67-2.22.98-3.4,1.19-1.3.23-2.42.83-3.59,1.35-.96.42-1.88.96-2.81,1.47-.47.25-.91.54-1.37.8-.33.19-.64.44-.99.53-1.6.43-2.79,1.51-3.96,2.56-1.29,1.15-2.48,2.43-3.72,3.65-.16.16-.33.32-.45.51-.49.78-1.13,1.4-1.85,1.97-.96.76-1.62,1.79-2.35,2.75-.36.49-.7.98-1.08,1.45-1.37,1.71-2.59,3.53-3.77,5.38-.24.38-.43.8-.62,1.21-.54,1.08-1.08,2.16-1.97,3.02-.31.31-.51.74-.71,1.15-.58,1.15-1.21,2.26-1.99,3.29-.86,1.15-1.49,2.45-2.06,3.77-.6,1.4-1.43,2.65-2.57,3.72-.2.03-.42.09-.64.09-.14,0-.32-.08-.39-.18-.06-.1-.02-.27,0-.41.01-.07.06-.15.11-.19,1.28-.93,1.95-2.32,2.56-3.68.56-1.25,1.26-2.4,2-3.54.29-.45.63-.87.83-1.35.65-1.55,1.64-2.88,2.62-4.22.4-.55.77-1.13,1.05-1.74,1-2.15,2.44-4,3.84-5.86.5-.66,1.02-1.31,1.44-2.03.3-.52.64-1.05,1.06-1.46,1.58-1.53,2.91-3.27,4.43-4.85.53-.54,1.08-1.05,1.64-1.56.61-.56,1.27-1.07,1.87-1.65.93-.91,1.98-1.64,3.13-2.21.74-.37,1.46-.78,2.16-1.24.57-.38,1.19-.66,1.8-.96.95-.45,1.94-.82,2.83-1.41.36-.24.83-.34,1.26-.48,1.29-.42,2.63-.73,3.88-1.25,1.91-.79,3.89-1.21,5.93-1.38,1.29-.1,2.55-.23,3.81-.51,1.11-.25,2.23-.28,3.36-.14.6.07,1.2.1,1.99.15Z"/>
      <path class="cls-1" d="M130.67,59.39c.44.47.88.99,1.37,1.45,1.74,1.57,3.58,3.02,5.51,4.34.25.17.51.33.79.45,1.86.83,3.62,1.89,5.93,2.28.49,0,1.24-.02,1.99,0,.68.03,1.36.12,1.99.38,1.19.51,2.46.7,3.79,1.02,1.67-.53,3.48-.67,5.27-.93,1.04-.15,2.07-.43,3.1-.64.74-.15,1.48-.29,2.22-.4.12-.02.27.1.38.19.12.1.05.51-.06.63-.27.29-.61.45-.98.54-.96.21-1.92.41-2.88.6-.44.1-.9.15-1.33.26-.45.12-.88.16-1.34.15-1.21-.03-2.42.04-3.59.39-.28.08-.62.15-.9.08-1.46-.33-3.02-.21-4.4-.94-.41-.21-.85-.36-1.31-.33-.9.07-1.75-.49-2.67-.2-.93-.29-1.93-.36-2.82-.79-1.29-.61-2.64-1.15-3.86-1.9-1.35-.82-2.71-1.66-3.8-2.84-.41-.44-.84-.86-1.38-1.17-.74-.43-1.21-1.12-1.58-1.87-.11-.22-.11-.47.08-.62.1-.08.27-.08.47-.14Z"/>
      <path class="cls-1" d="M54.53,70.12c-.32-.14-.6-.24-.87-.37-.2-.1-.3-.45-.17-.58.1-.1.21-.19.33-.26.07-.04.15-.06.22-.05,1.83.1,3.58-.39,5.32-.84.51-.13,1-.33,1.5-.5.72-.24,1.41-.58,2.14-.71,1.83-.31,3.42-1.16,5-2.03,1.91-1.06,3.75-2.25,5.42-3.67.4-.35.82-.66,1.33-.84.95-.32,1.68-.98,2.49-1.54.3-.21.58-.49.8-.79.64-.87,1.46-1.52,2.28-2.18.59-.48,1.11-1.02,1.62-1.58,1.01-1.12,2.04-2.22,3.07-3.33.1-.11.22-.22.35-.27.12-.05.31-.08.39-.02.1.07.18.27.16.39-.04.21-.13.45-.27.6-1.76,1.77-3.26,3.77-5.23,5.33-.41.33-.77.73-1.1,1.13-.64.77-1.42,1.36-2.27,1.85-.86.49-1.62,1.08-2.42,1.64-.74.51-1.58.9-2.28,1.46-1.11.91-2.36,1.6-3.54,2.42-.93.65-1.93,1.18-3.01,1.54-1.93.64-3.84,1.35-5.79,1.93-1.8.54-3.65.89-5.48,1.29Z"/>
      <path class="cls-1" d="M200.02,64.6c.14.04.33.04.42.14.79.74,1.77,1.14,2.75,1.51.42.16.87.3,1.31.31,1.9.03,3.73.49,5.63.88.24-.03.55-.05.83-.12.67-.17,1.34-.16,2.02-.05.74.11,1.5.18,2.24.2.45.02.93,0,1.35-.12,1.03-.33,2.07-.41,3.12-.32.94-.55,1.87-1.03,2.56-1.87.34-.41.8-.69,1.29-.91.62-.28,1.23-.56,1.86-.82.78-.32,1.48-.71,2.09-1.31.37-.37.84-.62,1.29-.91.12-.08.29-.1.43-.1.14,0,.29.06.39.15.16.14.17.48.02.6-.68.6-1.33,1.22-2.04,1.77-.35.27-.78.45-1.19.63-.83.36-1.68.67-2.51,1.04-.62.28-1.15.68-1.46,1.35-.24.53-.72.76-1.29.74-.46-.02-.89.07-1.33.22-1.79.62-3.62,1.02-5.54.84-.6-.06-1.21-.05-1.81-.03-3.36.13-6.58-.7-9.83-1.33-1.07-.21-1.95-.77-2.71-1.53-.23-.23-.21-.52.1-.98Z"/>
      <path class="cls-1" d="M85.2,63.55c-.04-.06-.09-.11-.11-.18-.02-.07-.06-.19-.02-.22.16-.15.31-.35.51-.42,1.24-.47,2.22-1.28,3.12-2.21,1.3-1.37,2.69-2.64,3.8-4.18.62-.85,1.42-1.56,2.16-2.31.64-.65,1.16-1.36,1.58-2.18,1-1.95,1.97-3.9,2.93-5.87.86-1.76,1.9-3.43,2.85-5.14.04-.07.08-.14.13-.19.89-1.12,1.77-2.24,2.68-3.34.06-.08.3-.09.39-.03.1.06.17.25.16.38-.02.22-.07.45-.18.64-.24.38-.51.75-.8,1.09-1.03,1.21-1.89,2.55-2.62,3.95-.93,1.81-1.92,3.58-2.72,5.46-.99,2.29-2.3,4.41-3.96,6.3-.49.56-.98,1.14-1.47,1.71-.3.34-.57.71-.89,1.03-1.15,1.19-2.33,2.36-3.48,3.55-1.07,1.13-2.4,1.81-3.86,2.24-.06.02-.14-.04-.2-.06Z"/>
      <path class="cls-1" d="M107.55,32.52c-.19-.05-.37-.05-.45-.14-.07-.07-.06-.26-.02-.39.05-.14.14-.26.24-.38.15-.17.31-.33.49-.47.83-.66,1.51-1.46,2.13-2.32,1.4-1.98,3.01-3.77,4.84-5.36,1.31-1.13,2.63-2.25,4.13-3.14.45-.26.88-.59,1.26-.95.51-.46,1.06-.84,1.67-1.15.74-.37,1.49-.74,2.24-1.08.96-.44,1.92-.86,2.9-1.26.43-.17.87-.23,1.3.02.06.03.15.1.14.15-.02.14-.03.36-.11.39-.98.4-1.87.96-2.9,1.24-1.55.42-2.9,1.26-4.2,2.15-.62.43-1.22.88-1.84,1.31-2.15,1.47-4.66,3.57-6.36,5.4-.31.33-.62.67-.88,1.04-1.27,1.9-2.95,3.41-4.57,4.95Z"/>
      <path class="cls-1" d="M236.86,60.3c.41.17.74.33,1.1.44.5.15,1.01.33,1.53.36,2.4.13,4.78.49,7.2.45.23,0,.45,0,.68.01,1.75.09,3.42-.37,5.12-.7.29-.06.59-.11.89-.11.12,0,.24.14.36.21.09.45-.17.78-.53.87-1.16.28-2.29.73-3.51.72-2.63-.02-5.27,0-7.9-.06-1.2-.03-2.39-.23-3.58-.39-.72-.09-1.24-.54-1.55-1.18-.06-.12.12-.37.2-.61Z"/>
      <path class="cls-1" d="M113.87,52.29c-.17-.13-.43-.23-.48-.39-.1-.35-.12-.74-.13-1.11-.03-1.36-.07-2.7-.38-4.04-.21-.88-.14-1.77.1-2.67.47-1.73.8-3.51,1.51-5.18.39-.9.86-1.75,1.45-2.54.13-.16.34-.28.53-.39.14-.07.31,0,.33.18.03.21.04.48-.06.64-.59.97-.99,2.02-1.46,3.05-.98,2.16-1.39,4.42-1.27,6.79.09,1.72.04,3.46.04,5.19,0,.14-.1.27-.18.47Z"/>
      <path class="cls-1" d="M208.54,70.47c0-.25.12-.49.36-.47.45.04.88.21,1.33.24,1.21.1,2.42.11,3.61-.17,1.64-.38,3.29-.45,4.95-.35.08,0,.15,0,.23.02,1.08.1,2.1-.05,3.04-.64.39-.25.83-.37,1.3-.24.07.02.17.08.18.14.02.12,0,.26-.02.39-.02.06-.08.14-.15.17-.53.27-1.07.55-1.61.81-.41.2-.86.3-1.31.31-.91.01-1.81.02-2.72.02-.91,0-1.81.03-2.7.26-.51.13-1.04.16-1.57.22-.6.08-1.21.1-1.79.22-.62.14-1.19.07-1.78-.13-.5-.17-1-.33-1.33-.79Z"/>
      <path class="cls-1" d="M100.22,55.48c.23-.74.77-1.28,1.25-1.85.69-.81,1.27-1.67,1.82-2.59.43-.72.77-1.46,1.07-2.23.52-1.34,1.07-2.66,1.63-3.98.12-.27.31-.51.52-.72.08-.08.29-.12.41-.08.11.04.22.18.26.31.04.13.04.31,0,.44-.29.77-.59,1.54-.9,2.32-.3.76-.62,1.54-.93,2.3-.37.91-.76,1.8-1.36,2.59-.46.6-.84,1.25-1.25,1.89-.41.63-.89,1.22-1.49,1.69-.33.25-.69.26-1.02-.09Z"/>
      <path class="cls-1" d="M148.69,48.7c.59.76,1.19,1.52,1.79,2.29.23.29.48.58.66.91.96,1.72,2.21,3.23,3.46,4.72.24.29.45.6.66.91.11.16.04.43-.14.61-.18.17-.45.2-.61.1-.52-.33-.89-.81-1.27-1.27-.38-.47-.74-.96-1.13-1.4-.41-.45-.76-.91-1.05-1.46-.46-.86-1-1.68-1.63-2.43-.58-.69-1.07-1.45-1.36-2.31-.04-.13,0-.3.06-.44.1-.22.3-.29.56-.24Z"/>
      <path class="cls-1" d="M107.04,53.15c.49.21.68.61.59,1.09-.06.36-.21.72-.38,1.04-.14.25-.35.5-.59.68-1.77,1.29-3.18,2.98-4.8,4.43-.73.66-1.54,1.22-2.42,1.64-.15.07-.4-.07-.66-.12.16-.25.25-.48.42-.6,1.92-1.36,3.47-3.11,5.14-4.74.6-.57,1.15-1.19,1.88-1.95.04-.14.12-.5.22-.86.06-.22.08-.21.6-.62Z"/>
      <path class="cls-1" d="M240.85,63.64c.13-.15.26-.31.38-.45.2-.02.35-.06.49-.02.65.19,1.29.41,1.93.61,1.38.45,2.78.6,4.21.31.89-.19,1.79-.2,2.69-.13.22.02.44.07.66.11.3.06.57.4.49.63-.08.22-.24.37-.46.44-.14.04-.29.08-.44.08-1.65.01-3.3.02-4.94.04-.6,0-1.19-.04-1.76-.29-.76-.34-1.58-.45-2.39-.59-.39-.07-.66-.33-.85-.72Z"/>
      <path class="cls-1" d="M27.48,64.14c.2-.54.4-.68.74-.53,1.44.62,2.92,1.15,4.28,1.97.76.46,1.63.76,2.44,1.15.47.23.92.51,1.37.76.14.08.21.5.1.6-.1.09-.27.2-.38.18-1.38-.35-2.7-.88-3.99-1.47-.2-.1-.41-.21-.55-.37-.84-.96-1.99-1.29-3.14-1.63-.38-.11-.68-.29-.87-.66Z"/>
      <path class="cls-1" d="M139.06,54.02c.14.02.3.02.43.07.2.08.41.2.58.33,1.48,1.15,2.94,2.31,4.42,3.47.06.05.12.1.14.17.04.14.1.29.07.42-.03.12-.16.26-.27.31-.45.18-.93.16-1.27-.15-.96-.86-2.05-1.52-3.08-2.26-.49-.34-.96-.74-1.26-1.27-.1-.19-.14-.41-.17-.63-.04-.2.22-.46.41-.45Z"/>
      <path class="cls-1" d="M91.8,63.96c-.53.1-.79-.03-.72-.2.06-.13.13-.25.21-.37.04-.06.11-.1.17-.14.56-.37,1.27-.45,1.77-.94.49-.47,1.02-.89,1.52-1.33.57-.49,1.11-1.01,1.68-1.5.45-.39.97-.7,1.54-.89.1-.03.31.06.38.16.07.09.07.28.03.4-.05.13-.16.25-.27.35-.91.78-1.82,1.56-2.73,2.32-.4.34-.84.64-1.22,1-.74.69-1.57,1.13-2.37,1.14Z"/>
      <path class="cls-1" d="M112.46,55.07c.18.12.46.21.51.37.41,1.36.8,2.73,1.18,4.1.14.5.22,1.03.4,1.52.15.41.41.79.61,1.16-.21.34-.48.41-.78.29-.6-.24-1.02-.73-1.09-1.33-.13-1.06-.49-2.03-.82-3.02-.28-.85-.29-1.76-.24-2.67,0-.13.14-.25.24-.42Z"/>
      <path class="cls-1" d="M44.79,67.69c.11.14.23.25.28.38.09.21-.04.52-.19.58-.07.03-.12.1-.19.11-.65.15-1.31.3-2.07.47-.68-.43-1.48-.8-2.4-.92-.51-.06-1.01-.29-1.5-.49-.18-.08-.3-.31-.47-.5.13-.19.24-.37.35-.53.12,0,.21-.02.27,0,1.17.57,2.41.81,3.71.79.37,0,.75.08,1.12.1.37.02.75,0,1.1,0Z"/>
      <path class="cls-1" d="M135.26,68.45c.05.17,0,.29-.19.34-.14.03-.32.09-.44.04-1.75-.69-3.48-1.44-5.03-2.52-.3-.21-.53-.52-.76-.81-.07-.1-.06-.29-.04-.43.02-.14.44-.3.58-.24.14.06.29.09.41.18,1.42.98,2.89,1.9,4.49,2.58.33.14.61.43.91.65.05.04.05.14.07.21Z"/>
      <path class="cls-1" d="M151.4,11.41c.14.13.3.21.33.33.14.5.26,1.01.34,1.52.09.56-.56,1.17-1.13,1.14-.7-.04-1.29-.33-1.86-.7-.37-.25-.46-.8-.24-1.2.15-.27.36-.51.64-.6.63-.2,1.29-.34,1.91-.49Z"/>
      <path class="cls-1" d="M154.69,29.5c.32.08.61.15.9.21.63.13,1.02.55,1.31,1.09.16.28.16.63-.02.82-.2.23-.43.42-.75.41-.68-.02-1.3-.23-1.89-.54-.56-.29-.71-1.01-.26-1.49.19-.21.47-.33.71-.5Z"/>
      <path class="cls-1" d="M111.25,39.7c.06.19.21.41.18.6-.19,1.42-.16,2.83-.12,4.25,0,.08,0,.17-.04.22-.07.11-.17.23-.28.3-.15.08-.31.03-.39-.12-.75-1.57-.74-3.16-.08-4.76.11-.28.33-.48.71-.49Z"/>
      <path class="cls-1" d="M141.8,28.1c-.02.23-.39.58-.61.58-.68,0-1.35-.1-1.95-.41-.19-.1-.35-.28-.49-.44-.23-.27-.2-.83.08-1.02.3-.21.62-.42.96-.55.45-.17.92-.09,1.23.29.28.34.51.73.74,1.11.07.11.04.29.05.44Z"/>
      <path class="cls-1" d="M199.32,67.1c-.14.13-.23.27-.35.31-.13.04-.32.03-.43-.04-1.14-.73-2.27-1.47-3.38-2.24-.23-.16-.37-.47-.51-.72-.04-.09.02-.31.1-.38.09-.08.31-.16.4-.11.79.45,1.56.89,2.31,1.39.56.37,1.09.79,1.6,1.23.14.12.17.38.24.57Z"/>
      <path class="cls-1" d="M164.37,69.97c.02.21.09.49-.14.6-1.36.6-2.73,1.17-4.27,1.05-.31-.02-.56-.17-.72-.44-.1-.16-.11-.3.02-.38.19-.1.39-.19.6-.24,1.15-.29,2.33-.42,3.47-.8.35-.12.74-.06,1.04.21Z"/>
      <path class="cls-1" d="M114.36,29.26c-.1-.15-.29-.32-.31-.5-.03-.2.03-.47.16-.62.84-.99,1.82-1.81,3.11-2.16.14-.04.31-.08.44-.04.12.04.22.17.3.28.04.05.07.16.04.21-.07.13-.14.29-.26.36-1.12.64-2.11,1.43-3,2.36-.08.09-.28.06-.48.1Z"/>
      <path class="cls-1" d="M143.24,29.27c.5.03.74.17.91.45.31.47.37.97.06,1.46-.28.43-.84.63-1.38.51-.56-.14-.9-.5-1.03-1.06-.1-.41.15-.96.54-1.11.34-.14.71-.2.9-.24Z"/>
      <path class="cls-1" d="M145.55,51.31c.14.06.31.09.39.2.7.85,1.39,1.71,2.07,2.59.07.09.08.35,0,.41-.15.14-.37.27-.56.26-.2,0-.44-.11-.6-.25-.7-.66-1.31-1.4-1.82-2.22-.14-.23-.1-.62.12-.81.1-.09.25-.12.39-.17Z"/>
      <path class="cls-1" d="M150.35,25.78c-.06.15-.08.31-.17.41-.26.29-.6.44-1,.42-.46-.02-.86-.22-1.24-.47-.36-.24-.37-.9,0-1.17.24-.18.5-.33.77-.45.45-.2.86-.1,1.21.28.26.28.48.58.43.98Z"/>
      <path class="cls-1" d="M160.03,15.08c.06.32.11.61.15.86-.41.47-.82.43-1.22.14-.57-.41-.68-1.22-.27-1.78.5-.7,1.31-.84,1.92-.31.2.17.18.61-.05.78-.17.13-.36.22-.52.32Z"/>
      <path class="cls-1" d="M162.15,29.62c-.36.35-.72.37-1.09.22-.37-.15-.6-.43-.62-.84-.02-.41.17-.73.51-.93.41-.24.86-.25,1.28-.02.1.06.23.24.21.34-.08.44-.2.86-.29,1.23Z"/>
      <path class="cls-1" d="M146.92,61.88c-.25.22-.56.24-.84.16-.59-.17-1.06-.52-1.42-1.02-.13-.17-.13-.45,0-.6.18-.18.4-.21.61-.14.66.22,1.16.65,1.56,1.2.08.1.05.27.08.4Z"/>
      <path class="cls-1" d="M141.98,14.06c.08.57-.41,1.21-.96,1.28-.33.04-.7-.17-.9-.52-.13-.23-.08-.6.12-.82.26-.27.54-.49.94-.53.36-.05.76.24.81.58Z"/>
      <path class="cls-1" d="M124.31,66.79c.07,0,.15-.05.21-.03.72.25,1.34.66,1.88,1.18.05.05.09.17.06.21-.08.1-.19.24-.3.26-.83.16-1.46-.21-1.97-.82-.11-.14-.04-.42-.02-.64,0-.06.09-.11.14-.17Z"/>
      <path class="cls-1" d="M150.22,59.03c.72.17,1.17.54,1.43,1.11.04.09-.04.29-.13.38-.1.09-.27.15-.4.14-.65-.04-1.11-.39-1.41-.96-.12-.23.13-.65.51-.67Z"/>
      <path class="cls-1" d="M158.33,61.74c-.32.51-.55.6-.86.39-.5-.33-.94-.73-1.12-1.32-.04-.11.04-.28.1-.4.09-.17.44-.23.59-.14.12.08.28.14.37.25.32.4.62.82.92,1.23Z"/>
      <path class="cls-1" d="M124.79,33.4c-.42-.39-.37-.82-.1-1.23.26-.39.62-.64,1.13-.57.25.04.46.23.43.42-.11.64-.47,1.09-1.05,1.36-.12.06-.29,0-.42,0Z"/>
      <path class="cls-1" d="M190.45,64.41c.04.16,0,.3-.18.34-.21.05-.45.09-.66.04-.44-.1-.82-.36-1.15-.66-.16-.14-.27-.49-.16-.58.1-.09.25-.18.38-.19.65-.08,1.17.18,1.58.66.1.1.12.27.18.4Z"/>
      <path class="cls-1" d="M177.52,53.95c.02.15-.25.35-.45.31-.55-.12-.88-.49-1.16-.92-.11-.16-.1-.43.03-.6.15-.2.61-.25.8-.09.35.29.6.64.78,1.04.03.06,0,.14,0,.26Z"/>
      <path class="cls-1" d="M167.84,70.94c-.37.55-.88.76-1.54.6-.21-.05-.43-.33-.36-.49.06-.13.13-.28.24-.33.26-.13.54-.25.83-.31.43-.1.7.11.82.53Z"/>
      <path class="cls-1" d="M119.99,61.88c-.14-.04-.31-.04-.41-.13-.3-.25-.49-.57-.43-.98.02-.14.1-.28.19-.38.11-.13.49-.08.61.06.26.28.47.58.45.99,0,.21-.2.44-.41.45Z"/>
      <path class="cls-1" d="M129.72,33.28c.02-.07.04-.14.08-.2.41-.62.88-.42,1.23,0,.15.17.18.4.07.6-.12.2-.35.26-.56.24-.4-.04-.65-.28-.81-.64Z"/>
      <path class="cls-1" d="M154.38,28.53c-.24.09-.42.22-.59.21-.29-.03-.51-.37-.42-.62.04-.12.13-.24.22-.33.14-.13.39-.08.55.15.11.16.14.36.24.6Z"/>
      <path class="cls-1" d="M152.11,20.86c-.04.25-.2.37-.43.33-.29-.05-.38-.18-.33-.42.06-.3.18-.39.42-.34.28.06.38.2.34.43Z"/>
      <path class="cls-1" d="M179.81,32.13c.17-.15.31-.33.5-.45.32-.19.79-.11,1.04.14.55.56.79,1.24.81,2.01.01.39-.5.91-.87.86-.59-.09-1.18-.21-1.76-.31-.07-.01-.14-.05-.21-.08-.43-.17-.82-.82-.76-1.27.08-.52.41-.81,1.08-.93.07,0,.15,0,.22-.02.03.37.05.73.12,1.08.02.1.21.2.33.21.12.01.32-.05.37-.14.05-.1.02-.29-.05-.41-.18-.33-.46-.56-.81-.71Z"/>
      <path class="cls-1" d="M166.96,32.08c.37-.1.8-.23,1.23-.33.43-.09.88.2,1.08.64.16.36.19.72.11,1.1-.09.41-.67.82-1.01.69-.43-.15-.84-.33-1.23-.53-.27-.14-.45-.39-.51-.71-.07-.33.07-.58.33-.86Z"/>
      <path class="cls-1" d="M170.21,29.27c-.18.13-.36.25-.54.39-.22-.08-.45-.11-.64-.22-.5-.31-.68-.84-.47-1.36.25-.6.66-.98,1.35-1,.47-.02.76.25.67.65-.11.51-.24,1.01-.37,1.54Z"/>
      <path class="cls-1" d="M171.77,20.12c.01.21-.42.57-.62.54-.6-.11-1.12-.36-1.49-.86-.16-.21-.19-.6-.05-.84.23-.41.57-.68,1.01-.82.34-.11.87.18.8.53-.1.51.21.83.33,1.24.02.07.02.14.03.21Z"/>
      <path class="cls-1" d="M176.29,25.31c.03.73-.5,1.11-1.03.93-.14-.05-.28-.1-.4-.19-.53-.37-.61-1-.2-1.52.42-.54,1.1-.49,1.41.13.13.25.19.54.22.65Z"/>
      <path class="cls-1" d="M186.32,30.36c-.09.16-.16.37-.29.53-.31.37-.89.33-1.15-.05-.21-.31-.4-.64-.23-1.03.19-.45.56-.68,1.03-.72.12-.01.29.07.37.17.26.29.25.68.27,1.09Z"/>
      <path class="cls-1" d="M183.67,18.25c.04.38-.07.72-.26,1.04-.12.21-.58.27-.8.11-.31-.24-.49-.64-.36-.96.15-.34.36-.64.78-.69.26-.03.61.24.63.49Z"/>
      <path class="cls-1" d="M182.62,25.46c0,.29-.19.55-.47.61-.25.05-.54-.23-.57-.53-.02-.26.19-.53.49-.6.25-.06.54.21.55.52Z"/>
      <path class="cls-1" d="M180.58,29.54c-.08.16-.19.22-.36.2-.22-.03-.33-.3-.21-.5.09-.14.24-.17.39-.09.15.08.2.22.17.39Z"/>
      <path class="cls-1" d="M195.79,35.89c0,.7-.51,1.08-1.06.92-.45-.13-.81-.37-1.07-.75-.23-.33-.29-.68-.13-1.05.18-.41.64-.67,1.09-.62.54.07.98.44,1.1.96.05.21.06.44.07.54Z"/>
      <path class="cls-1" d="M200.08,41.16c-.06-.02-.15-.04-.2-.08-.69-.59-1.02-1.21-.77-1.43.43-.39.96-.32,1.47-.25.45.06.72.6.52,1.03-.21.43-.53.7-1.02.73Z"/>
      <path class="cls-1" d="M191.16,43.9c-.12.12-.24.34-.42.41-.52.2-1.02.08-1.49-.23-.24-.16-.45-.54-.34-.75.1-.19.25-.39.43-.48.6-.29,1.47-.02,1.76.54.06.12.04.29.06.5Z"/>
      <path class="cls-1" d="M194.98,44.66c-.29.04-.59-.19-.61-.49-.03-.32.18-.61.45-.63.3-.03.59.19.62.47.03.28-.2.6-.47.64Z"/>
      <path class="cls-1" d="M199.6,38.26c-.36.04-.69-.34-.59-.68.02-.06.08-.14.14-.16.33-.08.65.28.59.67,0,.06-.09.11-.14.16Z"/>
    </g>
  </g>
</svg>