<?xml version="1.0" encoding="UTF-8"?>
<svg id="Layer_2" data-name="Layer 2" xmlns="http://www.w3.org/2000/svg" viewBox="0 0 84.54 74.02">
  <defs>
    <style>
      .cls-1 {
        fill: #5c2f1c;
        fill-rule: evenodd;
      }
    </style>
  </defs>
  <g id="_Layer_" data-name="&amp;lt;Layer&amp;gt;">
    <g>
      <path class="cls-1" d="M54.36,10.56l-.13.18.21.03-.09-.21h0ZM48.38,7.01c-.54,0-.89.16-.91.47-.07.95,0,2.18.28,3.48.05.23.27.44.44.63.08.1.23.19.34.18.22,0,.41-.19.39-.49-.04-.65-.14-1.3-.22-1.94-.1-.77-.21-1.55-.31-2.32h0ZM51.66,11.94c.12-.03.25-.06.37-.1.48-.17.72-.5.57-.82-.41-.82-.69-1.68-.83-2.58-.02-.11-.12-.22-.18-.33-.15-.25-.37-.34-.67-.28-.23.05-.49.16-.53.42-.06.39-.06.78.03,1.15.18.76.43,1.5.65,2.25.08.27.29.37.6.28h0ZM18.57,28.92c.06.4.1.8.19,1.18.11.48.97.66,1.31.27.26-.29.55-.6.68-.96.29-.79.23-1.56-.4-2.24-.34-.37-1.16-.25-1.31.23-.16.5-.31.99-.46,1.52h0ZM61.89,34.06c-.43-.17-.94-.33-1.43-.55-.49-.21-.92-.54-1.19-1.04-.19-.36-.41-.69-.74-.95-.25-.18-.48-.2-.73-.1-.53.21-.87.6-.92,1.18-.17,2.39-.3,4.78.19,7.18.27,1.31.43,2.65.62,3.98.08.53.06,1.07-.06,1.58-.1.43-.92.68-1.32.38-.47-.34-.73-.83-.77-1.35-.1-1.35-.04-2.68-.3-4-.21-1.06-.25-2.13-.25-3.2.02-1.87.1-3.73-.41-5.59-.1-.37-.06-.8-.06-1.2,0-.52.06-1.06.03-1.6-.03-.54-.2-1.04-.65-1.42-1.67-1.38-3.35-2.73-4.94-4.19-1-.92-2.01-1.8-3.04-2.67-.2-.18-.45-.32-.7-.37-.25-.06-.58-.08-.76.04-.78.49-1.29,1.29-2.08,1.78-.44.29-.83.65-1.18,1.04-1.33,1.47-2.87,2.7-4.45,3.88-.63.46-1.19,1.02-1.76,1.57-.28.27-.51.6-.76.9-.34.41-.58.91-.59,1.44-.03,2.4-.04,4.8-.05,7.2,0,.27.1.54.15.8.22,1.02.59,1.4,1.54,1.59.39.09.8.11,1.18.22.25.07.47.24.71.37.25.14.43.33.51.61.39,1.28.44,2.65,1.02,3.88.1.22.36.45.59.52,1.3.4,2.63.42,3.95.27.22-.03.48-.25.62-.45.14-.21.18-.49.21-.76.14-1.19.05-2.4.34-3.57.07-.27.22-.46.45-.62.33-.24.7-.43,1.1-.27,1.14.42,2.31.62,3.5.8.79.11,1.58.25,2.34.54.39.16.97.78,1,1.19.05.53.08,1.07.1,1.59.03.53.05,1.07.06,1.59.02.48.54.98,1.06,1.06,1.45.22,2.9.33,4.37.26.28,0,.75-.45.78-.76.1-.93.18-1.85.31-2.78.1-.73.59-1.15,1.24-1.38.24-.08.51-.16.76-.15.66.04,1.35.03,1.98.21,1.05.32,2.08.45,3.15.36.42-.03.77.15,1.12.36.25.15.45.33.49.62.23,1.31.46,2.63.68,3.96.19.17.36.44.59.51.78.26,1.57.2,2.37.06.45-.08,1-.65,1-1.08.02-.93.02-1.87.06-2.81,0-.39.1-.79.15-1.18.06-.49.57-.98,1.07-1,.53-.02,1.05.03,1.58,0,.29,0,.49-.19.61-.43.76-1.44.94-3.03.83-4.65-.09-1.2-.26-2.4-.42-3.59-.04-.33-.28-.49-.52-.41-1.73.64-3.55,1-5.38,1.3-.38.06-.78-.05-1.13-.29-.47-.3-.82-.69-.9-1.27-.04-.26-.06-.53-.1-.8-.02-.14-.07-.25-.11-.39-.08-.29-.66-.8-.88-.71-.24.09-.47.24-.65.41-.38.39-.44.95-.66,1.42-.25.54-.73.78-1.25.83-1.05.1-2.11.06-3.26.1h0ZM22.69,26.24c.23.18.41.41.41.65.05,1.61.1,3.2.1,4.81,0,1.19.05,2.38.28,3.58.25,1.32.24,2.67.16,4-.02.25-.1.54-.25.73-.16.18-.43.37-.66.37-1.72,0-3.45-.05-5.17-.1-.26,0-.52-.11-.77-.17-.27-.05-.78-.58-.82-.81-.16-.93-.1-1.87-.1-2.81,0-1.59,0-3.19-.02-4.79,0-1.07-.37-2.12-.27-3.19.03-.31.09-.54.27-.61.05-.02.2.17.26.29.28.46.55.92.66,1.46.08.4.13.8.26,1.18.44,1.26,2.07,1.99,3.3,1.49.24-.1.47-.24.68-.38.21-.15.41-.33.61-.5.7-.66,1.07-1.49,1.19-2.44.12-.93,0-1.87-.05-2.81-.25-.02-.53.02-.76-.08-.36-.16-.68-.43-1.03-.61-.35-.18-.72-.36-1.11-.45-1.05-.27-2.09-.3-3,.4-.2.17-.43.29-.66.42-.08-.06-.23-.11-.24-.17-.09-.69.27-1.27.53-1.85,1.22-2.75,2.22-5.6,3.08-8.48.08-.25.23-.47.39-.68.16-.21.38-.35.62-.34.09,0,.19.19.24.31.12.24.23.48.31.73.52,1.78,1.06,3.58,1.56,5.37.1.37.16.79.18,1.19.03,1.19.05,2.39.04,3.57,0,.25-.15.5-.23.75h0ZM24.68,20.34c.14,3.17.31,6.38.19,9.58-.04.93-.03,1.89.14,2.8.36,2.01.38,4,.43,6.01.02.68.04,1.34.07,2.01.03.72-.22,1.29-.79,1.71-.1.08-.2.18-.29.26-.67.7-.17,2.4.78,2.69.13.05.25.12.37.14,1.06.17,2.11.33,3.18.21.31-.04.78-.41.85-.72.05-.26.15-.52.16-.78.08-1.19.12-2.4.2-3.59.02-.41.23-.76.56-1,.21-.16.42-.31.63-.45.35-.25.51-.62.58-1.01.09-.52.12-1.07.13-1.59.04-1.47.05-2.94.09-4.41.02-.7-.21-1.32-.52-1.93-.21-.41-.11-.8.12-1.12.7-.96,1.57-1.76,2.49-2.51,1.33-1.07,2.62-2.2,3.95-3.26,1.14-.92,2.13-1.97,3.14-3,.55-.56.98-1.23,1.42-1.89.45-.68.74-1.41.74-2.23-.02-3.61.46-7.19.45-10.81,0-.79.74-1.39,1.64-1.39.39,0,.82.02,1.18.18,1.48.67,3.08.91,4.62,1.35.53.16,1.06.04,1.55-.18.97-.41,1.9-.88,2.88-1.27.19-.08.51.04.75.12.11.03.22.18.26.3.37,1.03.48,2.09.49,3.15.02,1.47-.03,2.94-.05,4.42,0,.13-.05.25-.06.38-.05.64-.79,1.19-1.4,1.03-.26-.07-.52-.16-.76-.25-.4-.15-.78-.1-1.15.05-.36.16-.71.34-1.06.53-.36.17-.76.25-1.16.22-1.46-.06-2.92-.18-4.32-.75-.37-.14-.78-.13-1.18-.18-.37-.06-.75.29-.82.68-.24,1.23.06,2.39.63,3.49.12.24.28.47.47.66.95.97,1.87,1.96,2.92,2.82,2.18,1.81,4.26,3.76,6.73,5.18.35.2.5.63.61,1.03.08.25.08.53.16.79.07.25.17.5.28.75.11.25.33.44.6.47.53.06,1.06.08,1.58.13.57.05,1,.33,1.32.8.22.33.44.68.65,1.03.6.92,1.47,1.12,2.45.92.54-.1.96-.41,1.22-.91.06-.12.12-.24.16-.37.33-1,1.06-1.46,2.09-1.48.66,0,1.33.02,1.99.07.95.09,1.46.53,1.7,1.44.11.39.2.78.31,1.16.09.33.6.7.9.7.82.02,1.56-.25,2.27-.61.21-.12.4-.33.56-.54.23-.32.41-.67.64-1,.23-.33.57-.49.97-.58.4-.09.79-.09,1.18,0,.55.12.98.39,1.24.93.24.49.42.99.44,1.54.05,1.34,0,2.67.32,4,.13.53.07,1.08-.06,1.59-.27,1.03-.49,2.08-.56,3.14-.02.41.02.8.04,1.2.01.26.5.8.78.85.66.11,1.31.21,1.96.34.25.06.5.18.75.28.38.16.86.91.84,1.3-.02.26-.05.52-.04.8.02,1.21-.57,2.32-.45,3.55.1,1.06.13,2.14.18,3.21.05,1.2.1,2.41.37,3.6.1.39.13.8.14,1.2.09,2.81.53,5.61.56,8.42,0,.81.14,1.6.31,2.4.29,1.33.22,2.67.05,3.99-.15,1.16-1.26,1.93-2.2,1.9-.93-.02-1.85-.17-2.78-.21-1.19-.06-2.36.3-3.57.18-1.19-.11-2.39-.19-3.58-.25-2.4-.13-4.79-.22-7.18-.35-.67-.03-1.33-.02-1.98.12-1.05.23-2.11.2-3.18.12-.92-.08-1.86-.14-2.79-.17-.8-.03-1.6-.02-2.39.03-2.52.14-5.04.14-7.57-.1-1.46-.14-2.92-.18-4.36.1-.65.13-1.32.11-1.99.07-1.86-.14-3.72-.14-5.58-.04-1.59.09-3.19.06-4.78-.11-.8-.1-1.6-.1-2.39-.17-1.47-.14-2.92-.14-4.35.2-.92.22-1.85.25-2.78.14-2.51-.34-5.04-.39-7.57-.47-1.73-.06-3.45-.25-5.18-.38-.53-.05-1.07-.08-1.58.06-1.31.37-2.63.18-3.95-.09-.25-.06-.51-.16-.74-.29-.26-.14-.36-.39-.41-.65-.06-.29.04-.49.35-.59.25-.07.51-.17.76-.16.93.03,1.87.29,2.79.1,1.58-.31,3.17-.17,4.76-.06,1.34.1,2.67.18,3.99.22.93.03,1.87.04,2.78-.07.95-.12,1.85-.1,2.75.25.25.1.51.18.77.2.53.06,1.07.14,1.59.09,1.45-.13,2.9-.29,4.34-.49,1.07-.15,2.12-.14,3.18-.07,2.12.15,4.25.29,6.38.4,2.13.11,4.25.21,6.38-.02,1.58-.19,3.18-.1,4.78,0,1.33.1,2.65.11,3.98,0,1.45-.11,2.92-.02,4.39.02,1.2.03,2.4.13,3.6.18.65.02,1.34.08,1.98-.03,1.72-.29,3.44-.19,5.17-.1.67.03,1.33.1,2,.13.66.02,1.35.08,1.99-.02,1.85-.29,3.71-.15,5.57,0,.93.08,1.86.1,2.79.11,1.21.03,2.37-.2,3.51-.54.14-.21.34-.41.41-.64.08-.25.09-.54.04-.8-.23-1.19-.35-2.38-.37-3.6-.02-.93-.07-1.88-.22-2.8-.17-1.07-.21-2.13-.26-3.2-.05-1.08-.1-2.14-.36-3.2-.12-.51-.13-1.06-.17-1.59-.04-.54.03-1.09-.08-1.6-.51-2.4-.41-4.82-.41-7.21,0-.51-.47-1.09-.94-1.15-1.19-.19-2.36-.43-3.56-.41-.27,0-.84.42-.89.66-.19.92-.12,1.86-.06,2.8.03.39,0,.8-.15,1.18-.1.29-.54.75-.82.75-1.86-.02-3.72.08-5.56.25-.26.02-.53-.04-.8-.06-.51-.05-1.27-.84-1.36-1.35-.17-1.06.09-2.15-.26-3.2-.14-.39-.37-.7-.76-.88-1.02-.42-2.07-.51-3.13-.35-.22.03-.52.26-.58.47-.14.51-.19,1.04-.23,1.57-.06.67-.1,1.33-.28,1.97-.17.59-.9,1.15-1.51.98-1.58-.41-3.16-.49-4.76-.34-.92.08-1.85.14-2.78.19-.65.05-1.21-.48-1.35-1.22-.2-1.06-.3-2.12-.31-3.21,0-.26,0-.54-.06-.8-.12-.56-.46-.95-.98-1.18-.77-.33-1.56-.4-2.36-.26-.21.03-.44.28-.57.49-.13.21-.2.49-.22.75-.05.8-.04,1.6-.09,2.4-.01.25-.11.51-.18.77-.06.27-.61.71-.88.71-.26,0-.52.07-.78.05-2-.17-3.99-.19-5.97.06-.26.05-.53-.03-.79-.09-.41-.1-.74-.35-.88-.76-.45-1.26-.55-2.61-.96-3.9-.12-.38-.39-.73-.79-.88-.62-.22-1.27-.42-1.91-.61-.12-.04-.27-.06-.39-.02-.24.06-.45.21-.55.48-.1.24-.16.5-.17.77-.04.8-.02,1.61-.09,2.4-.04.53-.26,1.01-.56,1.46-.25.36-.61.55-.99.55-2.26-.02-4.52-.2-6.77-.51-.55-.08-.98-.45-1.19-.99-.2-.49-.33-1.01-.46-1.54-.12-.53-.16-1.06-.31-1.58-.12-.38-.41-.67-.84-.79-.8-.21-1.58-.14-2.37,0-.66.1-1.22.66-1.29,1.29-.13,1.05-.08,2.14-.47,3.15-.1.25-.62.67-.9.67-.26,0-.52.02-.79.02-.93-.02-1.86-.09-2.79-.09-1.06.02-2.11.28-3.18.17-.57-.06-1-.36-1.29-.84-.14-.23-.29-.47-.33-.73-.12-.66-.17-1.33-.26-1.99-.06-.45-.61-1.02-1.05-1.12-.66-.16-1.32-.19-1.98-.14-.13,0-.26.08-.38.11-.47.14-.95.69-.98,1.12-.14,1.87-.28,3.74-.37,5.6-.03.66,0,1.34.08,2.01.21,2,.33,4.01.16,6-.17,2.01-.15,4,.15,6.01.27,1.73.14,3.48.06,5.2-.02.4-.19.77-.48,1.07-.25.26-.84.21-1-.12-.11-.24-.27-.49-.27-.75,0-1.33-.05-2.66-.22-4-.21-1.74-.19-3.47-.11-5.21.05-1.07.13-2.14.15-3.21.02-.67.03-1.34-.09-2-.24-1.34-.21-2.67-.22-4-.02-1.46.11-2.94-.33-4.4-.12-.37-.1-.8-.06-1.19.1-1.07.1-2.13-.24-3.18-.07-.21.43-.86.67-.91.25-.06.51-.14.77-.15.4,0,.8,0,1.19.05,1.72.21,3.45.11,5.17.26.46.04,1.07.56,1.15,1,.04.26.11.53.15.79.07.4.1.8.18,1.19.12.71.7,1.3,1.32,1.32,1.06.05,2.12.07,3.19.09.65,0,1.31-.58,1.34-1.21.03-.53.04-1.06.02-1.6,0-.26-.02-.57-.16-.78-.8-1.21-.73-2.52-.69-3.86.08-2.54,0-5.09,0-7.63,0-.96-.31-1.85-.44-2.79-.1-.68-.06-1.35.22-1.95.57-1.19.88-2.5,1.54-3.67.77-1.38,1.07-2.98,1.64-4.45.57-1.49,1.17-2.96,1.42-4.55.08-.53.32-1.01.49-1.51.14-.39.18-.79.1-1.18-.29-1.47-.18-2.94-.33-4.41-.05-.56-.33-1.01-.77-1.37-.21-.16-.38-.37-.55-.58-.22-.25-.12-.85.16-1.05,1.19-.83,1.19-.84,1.95-2.24.06-.11.15-.21.25-.29.2-.18.47-.33.69-.22.24.12.33.42.35.69,0,.26,0,.53,0,.8-.02.27-.06.53-.07.8-.02.55.38,1.06.85,1.24.76.3,1.57.25,2.35.41.28.06.49.2.66.43.16.25.24.49.17.73-.08.33-.56.72-.86.75-.4.03-.78-.02-1.17-.14-.52-.15-1.05-.26-1.58-.18-.26.05-.49.22-.56.49-.27.92-.27,1.85.22,2.72.48.83.92,1.66.94,2.63.43,1.83.78,3.69,1.37,5.48.38,1.16.86,2.28,1.3,3.45Z"/>
      <path class="cls-1" d="M7.42,55.42c.05-.96.06-1.23.09-1.49.08-.53.35-.97.66-1.41.92-1.29,2.59-.88,3.37.19.83,1.15.86,3,.04,4.12-.08.11-.16.22-.27.29-.67.42-1.39.7-2.2.75-.28.02-.51-.1-.74-.25-.58-.41-.9-.99-.94-1.7-.02-.41,0-.8,0-.5Z"/>
      <path class="cls-1" d="M20.66,55.58l.16-.2-.21-.06.06.25h0ZM22.81,55.68c-.03.55-.02.95-.09,1.33-.08.52-.32.99-.76,1.31-.53.4-1.1.67-1.78.68-.61,0-1.32-.49-1.53-1.07-.23-.63-.32-1.29-.37-1.94-.06-.68.09-1.31.42-1.9.13-.21.29-.43.48-.59.53-.41,1.16-.62,1.82-.6.67.02,1.24.38,1.62.99.07.1.14.25.14.37.02.52.03,1.04.04,1.42Z"/>
      <path class="cls-1" d="M53.11,56.3c-.05.43-.27,1.03-.76,1.5-.47.44-.94.88-1.42,1.31-.56.49-1.62.24-2.01-.49-.12-.24-.22-.49-.32-.72-.15-.38-.15-.77-.13-1.16.03-.37.35-.74.69-.84.39-.11.78.06,1.16,0,.29-.04.51-.14.57-.36.03-.1-.08-.25-.15-.36-.15-.22-.35-.41-.48-.63-.22-.41-.06-.82.31-.95.52-.18,1.03-.12,1.51.1.64.31,1.01.84,1.06,1.55.02.26-.02.53-.05,1.03Z"/>
      <path class="cls-1" d="M69.08,56.12c.02-.17.01-.3.03-.44.12-.87.76-1.31,1.7-1.14.53.1,1.02.3,1.44.64.43.35.71.79.78,1.34.09.67.07,1.33-.08,1.97-.12.53-.46.9-.89,1.23-.35.27-1.15.14-1.48-.14-.53-.44-.95-.95-1.25-1.56-.3-.62-.3-1.28-.26-1.9Z"/>
      <path class="cls-1" d="M32.43,56.16c-.16.74-.24,1.26-.39,1.76-.16.54-.62.78-1.12.95-.11.04-.26-.02-.39-.05-.54-.13-.95-.47-1.25-.9-.6-.92-.95-1.89-.92-2.98.01-.79.57-1.52,1.35-1.65.8-.14,1.55.05,2.22.53.33.25.52.64.55,1.01.03.52-.04,1.04-.06,1.33Z"/>
      <path class="cls-1" d="M43.83,56.68c-.06.37-.1.76-.2,1.13-.11.37-.34.67-.72.84-.51.22-.99.21-1.49-.05-.35-.19-.7-.4-.88-.76-.41-.84-.54-1.76-.56-2.67-.02-.53.22-1.03.54-1.43.14-.18.42-.3.66-.34.65-.1,1.28.08,1.88.38.25.14.41.32.53.57.18.36.29.73.29,1.13.01.39-.03.78-.05,1.19Z"/>
      <path class="cls-1" d="M63.75,57.54c-.06.7-.15,1.21-.36,1.69-.25.57-1.01.88-1.61.62-.79-.35-1.25-.95-1.29-1.82-.04-.77-.02-1.55,0-2.33,0-.4.58-.89,1.07-.98.99-.17,1.88.76,2.07,1.46.03.13.07.25.08.38.03.39.04.78.05.99Z"/>
      <path class="cls-1" d="M41.85,28.93c.07-.37.09-.78.23-1.15.19-.49.5-.92,1.04-1.1.64-.21,1.3-.21,1.93.06.37.15.7.41.8.84.21.9.4,1.82.58,2.73.1.53-.41,1.31-1,1.55-.61.26-1.26.33-1.93.24-1-.16-1.41-.75-1.59-1.56-.03-.13-.05-.27-.06-.4,0-.4-.02-.8-.02-1.21Z"/>
      <path class="cls-1" d="M41.52,37.16c-.04.25-.08.52-.14.77-.08.41-.34.78-.69.88-.74.24-1.49.45-2.21.75-.43.17-1.13-.28-1.21-.73-.17-.93-.11-1.86,0-2.77.04-.36.3-.71.7-.88.74-.29,1.52-.29,2.31-.21.4.04,1.04.51,1.11,1.01.02.13.09.25.1.38.02.27.02.53.02.8Z"/>
      <path class="cls-1" d="M53.42,36.73c-.07.41-.12.8-.22,1.17-.07.24-.22.46-.35.68-.36.61-1.17.72-1.66.27-.84-.75-1.22-1.7-1.32-2.79-.01-.11.05-.25.12-.36.44-.68,1.09-1.07,1.86-1.27.27-.06.52,0,.73.18.33.25.56.56.66.96.09.37.12.77.18,1.15Z"/>
      <path class="cls-1" d="M46.38,34.84c.39.07.66.33.77.73.11.37.22.75.29,1.13.17.91-.4,1.75-1.32,1.99-.29.08-.5.02-.71-.2-.29-.29-.49-.61-.52-1.01-.08-.94.12-1.78.76-2.48.2-.21.43-.26.72-.17Z"/>
      <path class="cls-1" d="M63.39,36.32c.12.03.25.05.35.11.76.44,1.09,1.16.87,1.93-.11.38-.39.65-.74.8-.44.18-1.15-.1-1.37-.45-.45-.7-.4-1.51.23-2.05.18-.16.44-.23.66-.34Z"/>
      <path class="cls-1" d="M69.39,38.94c-.18.52-.66.84-1.15.72-.62-.14-1.09-.89-.91-1.48.11-.39.36-.66.7-.86.25-.16.86-.1,1.06.16.34.44.49.91.31,1.46Z"/>
      <path class="cls-1" d="M73.92,39.38c-.07.14-.12.25-.18.35-.16.25-.39.33-.69.23-.46-.14-.64-.44-.54-.87.06-.25.17-.49.44-.57.33-.1.93.22.98.49.03.13,0,.27-.01.37Z"/>
    </g>
  </g>
</svg>