<?xml version="1.0" encoding="UTF-8"?>
<svg id="Layer_2" data-name="Layer 2" xmlns="http://www.w3.org/2000/svg" viewBox="0 0 46.35 43.95">
  <defs>
    <style>
      .cls-1 {
        fill: #5c2f1c;
        fill-rule: evenodd;
      }
    </style>
  </defs>
  <g id="_Layer_" data-name="&amp;lt;Layer&amp;gt;">
    <g>
      <path class="cls-1" d="M11.68,20.7c1.36-.06,2.57-.04,3.74-.31.46-.11.88-.33,1.21-.71.39-.43.31-1.25-.17-1.58-.2-.14-.41-.24-.66-.21-2.02.15-4.05.26-6.06.57-.42.06-.84.48-.95.95-.02.12-.04.23-.04.35,0,.12-.02.28.04.35.16.16.35.37.55.39.83.1,1.67.14,2.33.19h0ZM12.23,25.08c.49,0,.97,0,1.46-.02.85-.03,1.69-.06,2.54-.15.2-.02.4-.26.56-.43.07-.07.06-.23.1-.34.1-.35.08-.72.03-1.07-.07-.54-.47-.92-.94-.89-1.87.11-5.27.14-6.88.07-.23-.01-.48.05-.72.08-.42.05-.78.67-.63,1.12.11.34.21.69.36,1.03.15.35.47.56.84.57,1.09.04,2.18.03,3.27.04h0ZM41.09,19.13c.31-.06.78-.14,1.25-.23.3-.05.51-.59.34-.86-.64-1.01-1.27-2.03-1.93-3.03-.26-.39-.57-.76-.89-1.13-.31-.35-.54-.84-1.05-.89-.33-.03-.69.14-1.04.21-.34.06-.66-.29-.64-.66,0-.12-.02-.25,0-.36.06-.23.16-.45.23-.68.24-.76.13-1.09-.51-1.48-.43-.27-1.01-.02-1.13.45-.09.37-.07.72.05,1.06.2.56.48,1.09.7,1.65.71,1.79,1.8,3.38,2.6,5.12.05.1.14.19.22.29.23.31.55.44.92.49.23.04.47.03.88.04h0ZM31.27,24.08c1.21,0,2.42.01,3.62,0,.49,0,.97-.03,1.44-.12.2-.04.45-.24.53-.43.19-.45.21-.93.08-1.41-.1-.35-.4-.63-.76-.64-.36-.02-.72-.05-1.08-.06-1.69-.04-3.37,0-5.03.42-.69.17-1.44.16-2.16.23-.48.04-.96.09-1.44.13-.28.03-.66.41-.67.74-.02.24-.02.49.02.71.06.32.49.65.76.66,1.57.03,3.12-.22,4.69-.22h0ZM20.04,11.57c.72,0,1.44-.13,2.17-.06,1.81.19,3.62.21,5.41-.19.47-.12.96-.1,1.44-.12,1.21-.04,2.42-.07,3.62-.11.12,0,.24-.08.33-.15.06-.05.1-.17.1-.24-.02-.12-.07-.27-.15-.31-.55-.27-1.13-.43-1.74-.41-1.09.05-2.17.12-3.26.17-.48.02-.98.07-1.44-.02-2.28-.41-4.58-.3-6.87-.41-1.96-.1-3.85.22-5.72.76-.11.04-.19.14-.29.21-.2.16-.29.37-.24.64.04.2.22.39.49.4,2.06.15,4.1-.12,6.16-.17h0ZM31.25,17.14c1.12-.05,1.97-.1,2.8-.12.49-.02.96,0,1.44.04.65.05,1.11.41,1.41.98.27.53-.09,1.34-.64,1.44-.23.05-.47.13-.7.13-.6.03-1.2.02-1.81.05-2.04.11-4.09.15-6.09.66-.33.08-.71,0-1.07-.04-.39-.04-.64-.31-.8-.64-.23-.46-.2-.95-.03-1.4.12-.34.43-.59.76-.73.33-.14.68-.24,1.03-.3.35-.06.72-.07,1.08-.07.96,0,1.93,0,2.61,0h0ZM13.08,30.64c1.11-.04,1.96-.07,2.8-.11.24-.02.48-.09.72-.12.23-.04.68-.59.65-.82-.1-.72-.21-1.43-.33-2.15-.07-.41-.62-.83-1.06-.86-1.93-.11-3.87-.12-5.8,0-.23.01-.46.12-.69.18-.24.06-.55.62-.51.88.11.85.51,1.62.77,2.41.11.32.51.6.84.6.97,0,1.93,0,2.63,0h0ZM21.51,8.13c1.48,0,2.56,0,3.64,0,.12,0,.24-.03.35-.05.24-.02.65-.47.69-.73.17-1.2.09-2.39.02-3.59,0-.11-.08-.22-.1-.34-.09-.39-.4-.58-.72-.74-.2-.11-.46-.15-.7-.17-1.82-.14-3.59.17-5.3.77-.46.16-.78.54-1.11.88-.65.64-.87,1.42-.78,2.29.02.24.08.47.13.71.05.26.47.72.7.74,1.2.08,2.39.17,3.19.22h0ZM39.64,35.61c.11-.21.17-.46.33-.64.48-.56.88-1.13,1.03-1.89.16-.83.41-1.65.51-2.49.2-1.81.83-3.54,1.05-5.36.06-.48.25-.94.4-1.4.16-.45.37-.9.53-1.35.09-.23.13-.47.2-.7.14-.47-.27-1.02-.72-.96-.6.09-1.2.21-1.79.29-.6.07-1.23.02-1.79.27-.21.09-.44.27-.53.46-.2.45-.23.94-.11,1.42.07.28.23.45.46.43.36-.02.72-.1,1.07-.13.25-.02.45.14.5.41.04.25-.02.53-.2.66-.38.29-.81.51-1.19.8-.29.21-.5.54-.57.9-.1.48-.16.97-.03,1.45.09.34.25.66.7.69.24.02.47.12.7.2.23.08.51.67.43.94-.19.62-.57,1.07-1.22,1.23-.41.1-.64.37-.74.71-.26.96-.3,1.92-.17,2.89.22,1.58.31,3.14.24,4.73,0,.1.06.22.1.33.09.27.29.35.56.16.19-.13.41-.31.46-.52.26-.94.44-1.89-.02-2.84-.1-.21-.14-.46-.2-.7h0ZM32.77,25.53c-1.22.04-2.42.06-3.63.14-.72.05-1.45.14-2.17.27-.49.08-.92.33-1.09.84-.28.8-.55,1.6-.93,2.35-.06.11-.07.23-.11.35-.18.47.24,1.04.72.98,1.44-.18,2.87-.41,4.33-.48.36-.02.72-.08,1.07-.18,1.41-.41,2.86-.48,4.31-.55.37-.02.73-.04,1.07-.14.21-.06.4-.25.56-.42.07-.08.07-.23.1-.34.12-.6.1-1.2.01-1.8-.06-.43-.52-.88-.98-.9-1.08-.04-2.17-.07-3.25-.1h0ZM20.28,27.05c-.02-.38-.05-.62-.05-.86s-.02-.49.03-.72c.04-.24.11-.48.23-.68.19-.32.49-.53.87-.57.4-.04.99.44,1.04.83.05.35.11.71.12,1.07.03.6-.08,1.2.14,1.78.04.11.09.26.19.3.07.03.21-.07.3-.14.4-.31.58-.76.64-1.23.18-1.19.16-2.4.13-3.61-.01-.49-.18-.95-.39-1.38-.23-.46-.25-.94-.03-1.38.47-.92.43-1.85.19-2.81-.21-.79-.8-1.28-1.54-1.27-.6.01-1.2.06-1.8.1-.11,0-.23.06-.33.12-.33.17-.6.4-.7.76-.25.95-.3,1.9-.06,2.86.12.49.02.94-.14,1.4-.27.81-.21,1.66-.17,2.51.03.6.28,1.17.38,1.75.1.58-.33,1.15-.23,1.75.02.12.03.25.08.35.11.25.3.35.54.38.31.05.45-.06.48-.38.02-.35.06-.72.08-.94h0ZM17.08,13.14c.23-.03,1.08-.11,1.92-.22.85-.12,1.69-.12,2.52.07.72.16,1.44.1,2.16.02,2.77-.33,5.56-.4,8.34-.29.24,0,.48,0,.72.04,1.18.13,2.05.65,2.39,1.87.11.37-.08.76-.43.81-4.29.62-4.73.66-8.31.55-.37-.01-.68-.19-.91-.51-.38-.54-.94-.75-1.56-.74-1.21,0-2.42.03-3.63.05-.88.02-1.66.33-2.4.77-.2.12-.38.3-.59.42-.21.12-.43.26-.66.28-1.92.15-3.82.63-5.76.41-.29-.03-.43-.23-.45-.49,0-.12-.04-.25,0-.35.23-.69.54-1.35,1.08-1.85.18-.16.39-.29.62-.35.35-.1.71-.14,1.07-.17,1.09-.1,2.17-.18,3.87-.3h0ZM25.5,36.72c-4.76-.21-8.38-.12-12.01.02-.48.02-.96.1-1.43.18-.37.05-.83.71-.75,1.09.12.59.22,1.19.37,1.77.19.76.37,1.16,1.57,1.07.48-.05.98-.02,1.44-.11,2.15-.41,4.32-.42,6.49-.49,1.21-.04,2.42-.06,3.62-.07,2.78-.05,5.52-.57,8.27-.88.24-.02.48-.09.7-.17.83-.33,1.65-.21,2.47.02.34.09.63-.19.73-.64.08-.36.08-.71.02-1.07-.05-.32-.41-.68-.7-.72-1.33-.14-2.65-.09-3.98-.06-2.65.06-5.31.18-6.82.06h0ZM24.39,35.21c2.97.24,6.82.05,10.68-.18.24-.02.5-.02.72-.11.2-.09.45-.25.53-.45.34-.92.37-1.88.19-2.85-.05-.24-.48-.68-.72-.72-.12-.02-.24-.05-.36-.06-1.57-.06-3.14-.02-4.68.32-.95.21-1.91.27-2.87.39-2.16.26-4.34.17-6.51.14-1.57-.03-3.14-.06-4.71.04-1.81.12-3.61.31-5.41.47-.12.01-.26.02-.35.09-.18.14-.43.31-.46.49-.15.75.09,1.44.52,2.05.13.18.38.36.59.38.6.06,1.21.06,1.81.04,3.38-.12,6.76-.21,11.04-.06h0ZM7.33,12.52c.03-.15.12-.37.24-.57.2-.3.44-.59.81-.68.57-.17,1.17-.28,1.74-.45.27-.08.48-.08.64.15.14.18.21.43.12.66-.49,1.11-1.26,2.04-1.74,3.15-.48,1.1-1.11,2.13-1.66,3.2-.27.54-.48,1.11-.79,1.62-.6,1.01-1.48,1.54-2.7,1.42-.25-.02-.46-.13-.64-.3-.17-.17-.36-.37-.31-.61.23-1.31.7-2.54,1.5-3.63.14-.19.35-.3.6-.33-.14-.26-.14-.62.06-.92.62-.96,1.24-1.93,2.12-2.7h0ZM5.87,42.49c-.23-.06-.47-.16-.7-.17-.41-.03-.69-.24-.89-.54-.2-.3-.43-.64-.46-.97-.16-1.95-.76-3.8-1.02-5.72-.16-1.21-.68-2.34-.71-3.57-.03-1.1-.41-2.15-.49-3.24-.11-1.47-.56-2.85-1-4.23-.15-.47-.33-.91-.49-1.37-.12-.35-.13-.73,0-1.07.28-.8.54-1.61.93-2.36.61-1.18,1.27-2.36,2-3.47,1.12-1.73,2.2-3.49,3.08-5.36.1-.22.27-.4.43-.58.25-.28.56-.51.92-.56.84-.14,1.68-.22,2.52-.32.72-.09,1.45-.15,2.16-.29.49-.1.87-.45,1.01-.95.27-.93.48-1.88.73-2.81.1-.35.21-.7.35-1.03.24-.56.58-1.06,1.05-1.46.65-.57,1.34-1.04,2.11-1.41.55-.25,1.12-.47,1.7-.71C21.24,0,23.42-.09,25.6.11c1.12.11,2.12.55,3.01,1.2.41.29.63.73.68,1.24.03.36.08.72.05,1.09-.08,1.21-.17,2.42-.11,3.63.03.44.47.84.98.86.24.01.48.04.72.04,2.19.03,4.36-.03,6.53-.43.46-.09.97.16,1.21.62.61,1.19,1.31,2.33,2.06,3.43.55.8,1.1,1.6,1.66,2.4.27.4.6.77.87,1.17.68,1,1.36,2.01,1.99,3.04.31.52.82.9,1.01,1.5.04.11.06.23.09.38-.85,2.25-1.34,4.64-2.3,6.88-.39,1.52-.82,3.04-.9,4.63-.06,1.22-.25,2.41-.5,3.6-.2.95-.34,1.92-.43,2.88-.1.99-.43,1.89-.83,2.78-.22.47-.68.72-1.16.76-.84.06-1.7.05-2.55,0-1.1-.09-2.18-.03-3.24.29-.82.25-1.66.33-2.51.35-2.07.05-4.13.11-6.17.42-.48.07-.97.07-1.45.07-3.4,0-6.79.22-10.19.35-1.33.05-2.65.15-3.98.38-1.18.21-2.4.37-3.62.25-.2-.02-.46-.24-.53-.42-.12-.33-.13-.71-.18-1.07.23-.02.47-.03.71-.09.28-.06.43-.23.4-.48-.03-.37-.06-.72.16-1.04.06-.09.16-.18.26-.23.27-.14.47-.06.61.17.18.31.3.65.61.88.19.13.74-.05.97-.3.17-.19.33-.41.3-.65-.08-.96-.21-1.91-.55-2.83-.02-.06-.16-.14-.24-.14-.36.03-.67.25-1.05.24-.39,0-.63-.35-.5-.75.12-.37.39-.57.7-.76.45-.29.61-.74.62-1.24,0-.36-.03-.72-.08-1.08-.12-.92-.62-1.28-1.47-1.07-.23.06-.46.15-.69.2-.34.08-.68-.21-.72-.61-.02-.11-.01-.23-.01-.35,0-.26.08-.49.31-.62.31-.18.66-.29.97-.47.43-.23.67-.77.56-1.21-.48-1.87-1.06-3.72-1.45-5.62-.07-.35-.24-.68-.4-1.01-.16-.35-.46-.53-.84-.6-.6-.1-1.2-.06-1.8.04-.59.1-.97.81-.73,1.38.05.11.08.23.14.33.13.2.25.42.41.59.53.57.75,1.23.62,2-.27,1.58-.06,3.15.21,4.7.49,2.74,1.11,5.45,1.67,8.18.41.79.18,1.67.4,2.49Z"/>
      <path class="cls-1" d="M5.05,16.22c.33.12.67.19.98.34.32.17.52.48.52.84s-.22.63-.53.81c-.23.13-.84-.13-.88-.36-.02-.11-.06-.23-.05-.34.02-.46.04-.92.07-1.38l-.1.09Z"/>
      <path class="cls-1" d="M7.26,12.58c.24,0,.48-.03.71-.04.53-.01.81.42.62.97-.08.25-.32.33-.57.33-.25,0-.47-.06-.6-.29-.06-.1-.1-.22-.1-.33,0-.23,0-.47.02-.7l-.07.06Z"/>
      <path class="cls-1" d="M40.07,16.28c.26-.05.51.03.59.29.09.24,0,.49-.18.64-.18.17-.41.19-.64.08-.25-.12-.35-.35-.27-.62.06-.23.25-.36.5-.39Z"/>
    </g>
  </g>
</svg>