<?xml version="1.0" encoding="UTF-8"?>
<svg id="Layer_2" data-name="Layer 2" xmlns="http://www.w3.org/2000/svg" viewBox="0 0 84.83 47.63">
  <defs>
    <style>
      .cls-1 {
        fill: #5c2f1c;
        fill-rule: evenodd;
      }
    </style>
  </defs>
  <g id="_Layer_" data-name="&amp;lt;Layer&amp;gt;">
    <path class="cls-1" d="M42.52,44.39c.53-.06,1.02,0,1.38-.17.97-.45,1.7-1.18,1.93-2.28.13-.62.06-1.27-.39-1.79-.42-.49-.85-1-1.37-1.35-.98-.67-1.74-.6-2.42.02-.57.53-1.19,1-1.71,1.58-.9,1.01-.46,2.79.85,3.41.56.27,1.19.4,1.72.57h0ZM22.88,42.12c-.08-.53-.04-1.11-.26-1.59-.6-1.31-1.62-2.23-3.07-2.52-.9-.18-1.8-.17-2.66.07-.33.09-.68.25-.75.65-.11.68-.45,1.08-1.17,1.21-.45.07-.7.45-.92.85-.29.56-.41,1.15-.4,1.8.02,1.1.58,1.95,1.54,2.44,2.2,1.12,4.35,1.33,6.26-.28.14-.11.28-.22.41-.32.74-.57,1.12-1.31,1.02-2.32h0ZM82.1,5.29c0-.74,0-1.46,0-2.18,0-.49-.37-.92-.81-.93-.72-.02-1.44-.09-2.15,0-3.1.31-6.2.64-9.3,1-.61.08-1.25.22-1.77.52-1.17.66-2.46.91-3.76,1.18-2.78.56-5.6.9-8.43,1.26-4.23.52-8.41,1.3-12.6,2.08-3.57.67-7.12,1.44-10.65,2.23-2.93.65-5.87,1.32-8.75,2.12-2.64.74-5.32,1.26-8.06,1.62-2.37.32-4.72.8-7.08,1.22-.44.07-.87.2-1.26.37-1.06.45-1.67,1.31-1.64,2.48.02.98.16,1.99.41,2.95.15.59.49,1.22.91,1.67,1.72,1.93,3.82,2.48,6.18,1.93,1.07-.67,2.38-.61,3.55-.98.84-.26,1.71-.47,2.54-.76.83-.29,1.62-.64,2.44-.97.8-.34,1.72-.39,2.4-.81.5-1.06.72-2.1.82-3.16.02-.28,0-.55.04-.8.07-.49.38-.81.82-.96,1.69-.55,3.45-.69,5.29-.41,1.62.24,3.23.3,4.92-.22.53-.76,1.2-1.58,2.12-2.09,1.15-.65,2.39-.5,3.62,0,.23.1.44.34.6.57.39.51.74,1.03,1.18,1.66,2.23.13,4.47.36,6.7.22.53-.03,1.06-.16,1.55-.32,2.01-.67,4-1.36,5.99-2.05,2.99-1.03,5.99-2.08,8.98-3.1,2.16-.73,4.38-1.36,6.5-2.17,2.55-.97,5.12-1.84,7.72-2.68.32-.11.62-.29,1-.46h0ZM24.86,40.85c-.25-.4-.47-.8-.72-1.18-.25-.38-.51-.76-.82-1.12-1.74-2.07-3.39-2.95-6.81-2.17-.51.12-1,.35-1.47.57-1.32.6-2.38,1.45-2.74,2.97-.04.16-.2.27-.35.45-2.67.44-5.44.48-8.22.34-.36-.02-.72-.05-1.06-.17-.22-.08-.4-.34-.59-.54-.06-.06-.06-.17-.08-.26-.25-1.34-.23-2.4.05-4.28.67-.55,1.44-.94,2.31-1.17,2.4-.63,4.86-.93,7.39-.92.44,0,.91.03,1.34.19,1.15.41,1.65-.21,1.88-1.23.27-1.12.35-2.28.51-3.42.09-.62.16-1.25.25-1.86.07-.46.33-.8.73-1.02.7-.41,1.45-.61,2.29-.53,1.62.14,3.23.25,4.85.38.69.05,1.22-.21,1.5-.84.22-.47.41-.96.54-1.46.37-1.56.71-3.12,1.07-4.67.15-.68.63-1.05,1.27-1.18.51-.1,1.06-.14,1.59-.11,1.62.09,3.24.22,4.85.33.67.05,1.23.28,1.59.92.14.24.32.46.51.67.46.49,1.07.76,1.71.74,1.35-.06,2.67-.29,3.83-.93.45-.25.84-.62,1.16-1.03.37-.47.84-.63,1.39-.58,1.34.1,2.68.21,4.03.38.21.02.5.29.6.51.21.5.4,1.03.47,1.56.42,2.97.93,5.91,1.49,8.87.35,1.87.51,3.76.71,5.66.06.62.1,1.27-.25,1.83-.42.67-.29,1.34.09,2.04.08.16.1.35.13.52.05.23-.16.6-.37.61-.79.08-1.58.14-2.38.21-.36.04-.7.16-1.05.16-.25,0-.56-.1-.74-.29-.67-.64-1.26-1.36-1.92-2.01-.69-.67-1.54-1.03-2.46-1.13-1.19-.14-2.34-.14-3.4.41-.73.38-1.3.88-1.46,1.74-.05.26-.09.53-.18.77-.12.36-.38.59-.76.63-.88.12-1.76.28-2.65.29-2.16.04-4.27.26-6.4.51-1.06.13-2.12.13-3.25-.14h0ZM24.99,42.96c-.32.45-.61.88-.91,1.3-.66.93-1.5,1.69-2.45,2.32-2.61,1.77-6.32,1.23-8.64-1.22-.59-.62-1.01-1.33-1.08-2.18-.02-.34.03-.71-.29-.99-.72.33-1.46.52-2.31.42-.8-.09-1.62-.09-2.43-.09-1.89-.03-3.76-.05-5.55.6-.36.13-1.02-.35-1-.73.1-1.88-.21-3.76-.32-5.65-.04-.74-.04-1.5.4-2.06.61-.84,1.35-1.59,2.4-1.89.42-.13.87-.17,1.3-.25,2.71-.52,5.43-.92,8.22-.92.52,0,.8-.29.93-.75.25-.84.52-1.69.71-2.56.1-.41.03-.88.02-1.32,0-.21-.39-.53-.58-.51-.8.05-1.59.15-2.4.15-1.29,0-2.44-.46-3.57-1.19-2.48-1.58-3.31-3.88-3.51-6.52-.11-1.53.37-2.81,1.35-3.89.47-.53,1.03-.94,1.74-1.11.68-.16,1.38-.31,2.08-.42,2.55-.39,5.09-.8,7.64-1.13,2.74-.37,5.43-.88,8.07-1.62,1.27-.35,2.58-.6,3.87-.89.61-.13,1.23-.24,1.82-.4,5.99-1.55,12.09-2.68,18.21-3.72,3.41-.57,6.81-1.17,10.3-1.42,1.59-.13,3.13-.51,4.66-.97,2.69-.83,5.4-1.58,8.25-1.91,3.35-.4,6.69-.92,10.03-1.38.26-.04.53-.04.8-.06.41-.02.97.38,1,.8.11,1.72.5,3.41,1.04,5.06.16.49-.19,1.16-.66,1.29-1.61.46-3.21.93-4.84,1.34-1.62.42-3.18,1.02-4.74,1.61-2.38.9-4.84,1.61-7.28,2.36-3.28,1.01-6.58,1.95-9.73,3.31-1.69.72-3.44,1.32-5.16,1.97-.25.09-.53.17-.7.35-.18.17-.34.44-.34.67.02.9.07,1.8.2,2.7.2,1.44.38,2.88.72,4.31.49,2.05.84,4.09,1.08,6.17.08.72.2,1.43.25,2.15.14,2.08.27,4.15.39,6.22.05.89-.58,1.48-1.49,1.45-1.08-.03-2.16-.1-3.24-.1-.86,0-1.51.32-1.87,1.17-.56,1.35-1.55,2.32-2.83,2.97-.38.19-.84.33-1.27.33-.62,0-1.27-.09-1.87-.24-1.19-.29-2.23-.87-3-1.88-.28-.37-.53-.76-.81-1.12-.29-.4-.72-.64-1.17-.65-2.15-.05-4.31-.27-6.45.05-1.58.23-3.17.43-4.99.68Z"/>
  </g>
</svg>