<?xml version="1.0" encoding="UTF-8"?>
<svg id="Layer_2" data-name="Layer 2" xmlns="http://www.w3.org/2000/svg" viewBox="0 0 104.47 60.25">
  <defs>
    <style>
      .cls-1 {
        fill: #5c2f1c;
        fill-rule: evenodd;
      }
    </style>
  </defs>
  <g id="_Layer_" data-name="&amp;lt;Layer&amp;gt;">
    <path class="cls-1" d="M68.55,19.36c.47.77.92,1.85,1.54,2.61h.31c.31-.3.61-.6,1.07-.92.62-.45,1.38.16,1.38.92,0,.16,0,.46-.15.77-.16.31-.31.61-.61.77-.16.3-.31.45-.31.76.31,1.54.62,2.92,1.08,4.46,0,.3-.15.62-.15.76v.47c.61.61,1.23,1.07,2,1.54,1.38.76,2.61,1.38,4,2,.31.15.77.3,1.07.3,2.16.62,4.31,1.23,6.46,1.85.92.3,1.84.45,2.76.45,2.15-.15,4.15,0,6.3.62.61.16,1.23.3,1.84.46,2.15.46,4,1.38,6,2.15.61.31.92.93,1.23,1.39.16.46.16.76-.15,1.22-.16.16-.31.32-.46.63l-.15.14-.31-.14c-.31-.16-.61-.31-1.07-.47-.61.31-1.07.47-1.7.77-.15,0-.46.15-.46.3-.61.62-1.38.92-2.15,1.23-.77.3-1.69.61-2.61.76-.31,0-.77.3-1.07.46-.16.16-.31.16-.31.31.31.46.46,1.07.77,1.54.46,1.23.77,2.46,1.23,3.69.31.61.31,1.07.31,1.69,0,1.07.31,2.01.46,3.07.15.92.31,1.85.31,2.77,0,.46-.16.92-.47,1.23-.16.16-.46.31-.77.31-.62-.15-1.08-.31-1.54-.77-.31-.3-.77-.61-1.08-1.07-.46-.31-.92-.62-1.38-.93-.31-.45-.62-.92-.92-1.23-1.07-1.07-1.85-2.15-2.61-3.37-.46-.76-.92-1.38-1.54-2.15-.62-1.07-1.38-2-1.84-3.07-.46-1.08-1.23-2.01-1.85-3.08-.15-.3-.31-.46-.46-.76-.77-.31-1.69-.47-2.46-.77-.61-.31-1.39-.45-2.15-.45-.31,0-.62-.16-.92-.16-.31-.15-.77.16-1.23.16-.61,0-1.38-.31-1.99-.31-.15.15-.31.31-.62.45-.46.31-1.07.31-1.38-.14-.15-.16-.46-.31-.61-.63-.31,0-.61-.14-1.07-.14-.15-.16-.62-.16-.77-.16-.92.3-1.69.16-2.61.16-.92-.16-1.85-.16-2.77,0-1.07.14-2,.3-2.92.3-.62,0-1.23,0-1.85.16-.31.15-.46.15-.77.15-1.38,0-2.77.3-4.15.46,0,.45.31.76.46,1.07.31.46.16.92-.15,1.23-.31.3-.76.46-1.23.16-.46-.46-.92-.77-1.39-1.23-.15-.15-.31-.46-.31-.46-.62.16-1.23.16-1.85.31,0,0-.15.15-.15.31-.15.15-.15.45-.3.76,0,.31-.47.77-.92.61-1.23-.16-2.31-.92-2.92-2.15-.16-.77-.77-1.23-1.23-1.85-.16-.3-.46-.45-.77-.76-.15-.46-.31-.92-.46-1.08-.77-1.07-1.38-2.3-2.46-3.07-.46-.46-.92-1.07-1.23-1.54-.61-.76-.15-1.69.62-2,.31-.15.77,0,1.08.31.61.61,1.23,1.23,1.85,1.85.3.15.46.45.61.6.92,1.39,1.84,2.62,2.77,4,.31.46.62.92.92,1.23.31.45.77.61,1.23.45.15,0,.46,0,.61-.15h.31s.15-.15,0-.15c-1.08-1.23-2-2.61-3.23-3.69-.15-.15-.46-.46-.61-.76-.31-.31-.16-.93.15-1.39.31-.31.62-.46,1.08-.31.16,0,.46.16.77.31.61.76,1.38,1.39,2,2.15.61.76,1.23,1.54,1.85,2.15q1.07,1.08,2.46.62c-.62-.92-1.23-1.69-1.85-2.46-.46-.46-.92-.77-1.38-1.23-.31-.3-.31-.77-.15-1.23-1.07-.31-2.16-.46-3.23-.92-.46,0-.77-.15-1.07-.15-1.23.15-2.15-.16-3.22-.62-1.38-.45-2.93-.76-4.46-.92-1.23-.16-2.46-.46-3.54-.92-.15-.15-.3-.15-.46-.15-1.38-.47-2.92-.92-4.46-1.39-2.15-.76-4.15-1.69-6.14-2.61-1.23-.46-2.61-.92-3.69-1.7-.92-.14-1.54-.77-2.3-1.07-1.23-.61-2.46-1.38-3.69-2.15-2.3-1.38-4.45-2.76-6.76-4.3-.77-.46-1.38-.92-1.84-1.54-.31-.32-.61-.61-.92-.93-.46-.46-.92-.76-1.23-1.23-.3-.46-.61-.92-1.07-1.23-.31-.16-.46-.47-.61-.62-.31-.3-.46-.76-.77-1.07-.46-.77-.76-1.54-.92-2.46l.16-.15c.31-1.07,1.07-1.69,2.31-1.84,1.38-.31,2.76-.47,4.3-.62,1.07,0,2.31,0,3.38-.16.92-.15,1.85.16,2.77.16.61.15,1.07,0,1.54,0,.31,0,.61-.16.92,0,1.07.15,2.15.15,3.07.31.46,0,.77.15,1.23.15,1.38.16,2.92.61,4.3.61q.15,0,.31.16c1.69.3,3.38.61,5.07.92.46-.3.61-.61.92-.76.31-.31.61-.61,1.07-.92.16-.15.31-.15.46-.46.46-.46.92-.92,1.54-1.23.15-.16.46-.32.62-.62.76-.62,1.54-1.39,2.3-2.15.16-.16.16-.47.31-.77.31-.61.77-.92,1.54-.92h.31c.77-.46,1.54-1.07,2.46-1.23.46,0,.61.15.76.15.46.3.77.76.77,1.38-.15.46-.46,1.07-.92,1.23-.31.16-.61.16-.92.16.31.3.61.76,1.07,1.08.15.14.31,0,.31,0,.46-.17.77-.47,1.08-.78.61-.3,1.23-.3,1.84.16.46.29.46,1.23,0,1.54-.46.3-.77.61-1.23.92q-.15.15-.15.3c.31.61.61,1.08.92,1.54.15.3.3.3.61.3.31-.3.61-.45,1.07-.76.46.15.62.15.77.31.61.45.61,1.53,0,1.99-.31.16-.47.31-.62.46,0,0-.16,0-.16.15.31.62.77,1.23,1.07,1.85q0,.15.16.15c.15,0,.46-.15.62-.15,1.07,0,1.54.92,1.07,1.84,0,.17-.16.17-.16.32-.15.14-.15.46-.15.76.15.31.31.61.46.92,0,.31.31.63.61.77,1.69.77,3.38,1.54,4.91,2.47.77.45,1.54.92,2.31,1.38.16-.31.31-.62.62-.78,1.23-.6,1.99-1.53,2.61-2.45.15-.3.46-.62.61-.92,1.07-1.38,2-2.61,3.07-3.84.31-.46.77-.76,1.08-1.07.47-.46,1.07-.61,1.69-.46.31.15.61.61.61.92s-.15.77-.31.93c-.31.3-.62.76-1.07,1.07-.46.32-.92.78-1.38,1.23,0,0-.16.16-.31.31.31-.15.61-.15.92,0,.31.15.46.3.61.45.46.47.77.92,1.07,1.39,0,0,.16,0,.16-.15.31-.32.46-.61.77-.93.16-.15.31-.15.46-.15.77-.16,1.38.76,1.07,1.38,0,.31-.15.46-.15.77-.31.46-.46.77-.62,1.23h0ZM18.45,13.06c-.61.15-.92.3-1.23.62-.46.6-.77,1.07-.31,1.84,0,.15.15.46.15.77.16.45.62.92,1.08,1.23.31.15.77.3,1.23.45.46.16.92,0,1.23-.45.31-.61.46-1.07.31-1.7-.15-.61-.31-1.22-.62-1.68-.31-.46-.61-.78-1.23-.93-.15-.15-.46-.15-.61-.15h0ZM63.79,16.13c-.15.16-.31.32-.46.46-.61.77-1.07,1.38-1.54,2.16-.61,1.07-1.38,1.85-2.31,2.3-.15.16-.31.32-.61.32.46.45,1.07.76,1.69.92.16,0,.31-.15.46-.15.92-.62,2-1.23,2.92-1.85.46-.31.92-.62,1.23-1.07.15-.15.15-.3.15-.3-.15-.31-.46-.47-.61-.77-.31-.46-.61-.77-.92-1.23-.15-.17-.15-.46,0-.78h0ZM66.71,33.81c-1.39-.3-2.77-.76-4-1.38-2.31-.92-4.61-1.7-6.92-2.46-.16-.16-.31-.16-.46-.16-.77-.15-1.7-.31-2.46-.61-.92-.31-1.85-.61-2.92-.61,0,0-.16,0-.31-.15-1.23-.46-2.61-.62-4-.92-1.23-.16-2.46-.31-3.69-.62-1.53-.15-3.07-.46-4.45-.92-.31-.16-.62-.16-.77-.31-.61-.16-1.07-.16-1.54-.46-.77-.31-1.54-.62-2.31-.92-.76-.31-1.69-.76-2.46-1.23-.47-.31-.92-.62-1.39-.92-.15-.16-.15-.31-.31-.31q.15.15.31.31c.16.15.31.46.46.61.31.45.31,1.38-.15,1.84-.16.31-.47.46-.77.46-1.23.16-2.46.3-3.69.3-.15.16-.31.16-.46.16.31.16.61.16.92.31,1.07.46,2,1.07,3.07,1.39,1.08.31,2.16.77,3.08,1.07.46.16.92.31,1.38.46,1.7.46,3.38.92,5.08,1.39.3.15.76.3,1.23.3,1.07,0,2.15.47,3.23.62.77.16,1.39.3,2.15.46,1.84.76,3.84.92,5.84,1.23.31.16.46,0,.61,0h.92c1.23.31,2.61.16,4,.46,1.07.16,2.15.16,3.38,0h1.23c.92,0,1.84.16,2.61.61.31.31.76.31,1.07.46.77-.46,1.54-.46,2.46-.46h0ZM77.01,35.66c.3.15.46.3.77.45,1.23.47,2.3,1.24,3.38,1.85.46.31,1.08.45,1.7.77.46.14.92.3,1.23.46.31.14.62.45.92.6.31-.15.62-.6,1.23-.76.92.3,1.84.46,2.61.46,1.38,0,2.76.15,4.15.46h.31c1.54.46,3.23.46,4.92,1.07.31-.15.61-.3.92-.45-1.69-.78-3.69-1.38-5.54-1.54-.77-.16-1.54-.16-2.46-.3h-1.08c-.76,0-1.38.14-2.15-.16-.92.3-1.85,0-2.77-.46-.61-.15-1.23-.46-1.84-.46-.46-.15-1.07-.3-1.54-.46-.31-.16-.77-.3-1.08-.3-.92-.16-1.69-.46-2.61-.78-.31-.15-.61-.3-1.07-.45h0ZM73.31,33.66c-.46-.3-.92-.61-1.38-1.08-.61-.45-.76-.45-1.69-.6-.46-.31-.61-.62-.77-.92-.16-.15-.31-.46-.46-.46-.92-.46-1.54-1.08-2.31-1.54-.77-.6-1.39-1.07-2-1.53-.92-.62-1.69-1.08-2.61-1.54-1.38-.77-2.61-1.54-4.15-2.16-.92-.62-1.85-.92-2.61-1.69-.62-.46-1.38-.76-2-1.23-.77-.3-1.39-.61-2-1.07-.77-.46-1.54-.76-2.31-.92-.31,0-.77.15-1.07.15-.16,0-.31-.15-.31-.15-.16-.31-.31-.47-.47-.77-.3,0-.46-.16-.61-.31-.92-.3-1.85-.76-2.77-1.08-.92-.45-1.69-.92-2.61-1.23-.92-.46-1.85-.77-2.77-.92h-.31c-1.69-.61-3.23-1.24-4.92-1.7-.15-.15-.31-.15-.46-.31-1.85-.77-2.92-1.07-4.92-1.38-.92,0-1.69-.3-2.61-.45-.92-.15-1.69-.15-2.61-.15-.31-.16-.77-.16-1.23-.32-1.08-.3-2-.45-3.07-.45-.62-.15-1.23-.15-1.7-.31h-.76c-.46.16-.77,0-1.23,0-1.07-.15-2-.3-3.07-.15h-1.38c-.76.31-1.39.31-2.15.15-1.54.31-2.92.46-4.46.76q-.16,0-.31.16c.15.16.15.61.31.76.61.77,1.23,1.54,1.84,2.15.31.16.46.32.77.63.77.92,1.69,1.68,2.46,2.6.46.47.92.77,1.54.93.46.15.77.45,1.07.61.46.46,1.08.77,1.7,1.07.92.45,1.84,1.07,2.76,1.69,1.54.92,2.92,1.85,4.61,2.62h.31c.31-.16.77-.32,1.07-.62h3.38c.31,0,.77-.15.92-.15l.16-.15c-.93-1.38-1.38-2.77-2-4.15-.46-1.23-.92-2.31-1.23-3.53-.16-.3-.16-.76-.16-1.08,0-.46.31-.76.62-.92.31-.15.77-.15,1.08,0,.46.3.76.77.92,1.23.16.76.31,1.38.46,2.15.15.3.31.45.31.77,1.38.46,2.3,1.38,3.23,2.15.92.76,1.99,1.54,2.92,2.16.77.6,1.7.76,2.46,1.07.61.31,1.23.46,1.85.76,1.07.47,2.15.77,3.38.92.16,0,.47,0,.62.16,1.23.15,2.31.46,3.53.61,1.08.15,2.3.31,3.38.61.76.16,1.38.31,2,.47,2.3.76,4.76,1.23,7.07,1.84,1.08.16,2.3.62,3.38,1.07,2,.77,3.84,1.38,5.84,2.16,1.23.46,2.46.92,3.69,1.23,1.38.46,2.61.92,3.84,1.38h0ZM57.95,35.81c.62.46,1.23.92,1.85,1.38.31.31.46.77.61,1.38v.3c-.3.46-.77.92-1.38.62-.3-.16-.46-.16-.61-.3-.31-.32-.76-.62-1.07-.92-1.07-1.08-2.31-1.7-3.69-2.47-.15-.15-.61-.15-.76-.45,0,.3.15.45.31.6.92,1.07,2,2.16,3.08,3.24,0,.14.15.14.31.3.31.3.77.46,1.23.46,1.07-.16,2.15-.31,3.23-.31.31,0,.62,0,.77-.15q.15,0,.15-.16c-.15-.14-.15-.3-.3-.46-.46-.76-.92-1.38-1.38-1.99-.62-.78-1.23-1.08-2.15-1.08h-.16ZM94.06,55.64c-.3-1.69-.3-3.38-.76-4.92-.16.15-.31.31-.31.46l-.15.16c-.46,0-.46.14-.77,0-.16-.47-.47-.62-.77-1.08-.31-.46-.77-.77-1.23-1.23-.46-.3-.92-.77-1.38-1.23-.46-.15-.77-.46-1.08-.61.31.76.92,1.54,1.23,2.3.92.92,1.54,2.16,2.46,3.22.15.32.3.62.61.78.46.45,1.07.76,1.23,1.39.16.14.31.3.31.3.15.15.46.3.61.46h0ZM41.04,7.38c-1.7,1.23-3.53,2.46-5.38,3.53,0,0,0,.15-.15.15.61.31,1.23.46,1.84.62.46.14.77.3,1.07.3.46.31.62,0,.77-.3.15-.16.15-.31.31-.47.31-.3.61-.45.92-.6.76-.32,1.53-.92,2.15-1.54,0,0,0-.16-.16-.16-.31-.45-.77-1.07-1.07-1.37q-.16-.16-.31-.16h0ZM38.12,4.45c-.61.47-1.23,1.08-1.85,1.54-1.07,1.07-2.15,2-3.22,2.91-.31.16-.62.47-.77.78.46.3.92.6,1.38.6.31-.3.61-.6.92-.92.3-.31.76-.47,1.07-.77,1.07-.92,2.31-1.69,3.38-2.61.15-.15.46-.15.61-.3-.46-.47-1.07-.92-1.54-1.24h0ZM66.71,21.21c-.31.16-.77.46-1.08.76-.92.62-1.84,1.23-2.77,1.7,1.07.61,2.15,1.23,3.08,1.84,0,0,.15.16.31.16.77-.32,1.54-.92,2-1.7l.15-.3c-.15-.15-.31-.47-.31-.61-.46-.62-.92-1.38-1.38-1.85h0ZM43.5,11.21c-.77.47-1.54.92-2.31,1.54,0,0,0,.15-.15.15.76.3,1.54.61,2.31.92.15.17.3.17.3,0,.46-.46.92-.61,1.38-.76-.16-.61-.46-1.07-.92-1.54-.15-.15-.31-.31-.61-.31h0ZM94.68,42.72c-1.84-.45-3.84-.77-5.84-.92h-.31c.46.46.77.77,1.39,1.07.31.15.61.3.92.15.76-.31,1.54-.31,2.46-.15.46,0,.92,0,1.38-.16h0ZM91.91,47.65c-.15-.31-.46-.78-.77-1.23l-.16-.15c-.61-.31-1.38-.92-2.15-1.08-.31-.15-.46-.3-.62-.3,1.23.92,2.46,1.84,3.69,2.77h0ZM65.79,39.04c-.16-.62-.46-.76-1.07-1.54-.46-.47-1.07-1.07-1.69-1.54h-.46c.15.31.3.62.46.77.46.62,1.08,1.23,1.54,1.85.31.46.62.62,1.07.46h.16ZM70.4,28.59c0-.77-.31-1.7-.77-2.31-.61.15-.77.31-1.23.77.77.76,1.38,1.23,2,1.54h0ZM69.63,39.2c-.61-.92-1.23-1.85-2-2.47-.16-.15-.31-.15-.31-.15.31.61.77,1.23,1.08,2,.31.46.77.62,1.23.62h0ZM72.7,39.34c-.31-.46-.61-.76-.92-1.07.15.3.46.61.62.92l.15.14h.16Z"/>
  </g>
</svg>