<?xml version="1.0" encoding="UTF-8"?>
<svg id="Layer_2" data-name="Layer 2" xmlns="http://www.w3.org/2000/svg" viewBox="0 0 219.49 107.58">
  <defs>
    <style>
      .cls-1 {
        fill: #ecc178;
      }

      .cls-1, .cls-2 {
        fill-rule: evenodd;
      }

      .cls-2 {
        fill: #5c2f1c;
      }
    </style>
  </defs>
  <g id="_Layer_" data-name="&amp;lt;Layer&amp;gt;">
    <g>
      <path class="cls-1" d="M38.95,61.34c1.03-2.91,1.29-3.94,2.46-8.38.28-1.05.44-2.09.47-3.16l.19-6.09c0-.92.02-2.37,0-3.83-.02-.88.02-1.75-.15-2.62-.02-.09-.07-.19-.14-.25-.04-.04-.14-.05-.2-.03-.08.05-.16.12-.21.19-.49.84-.78,1.78-1.15,2.68-1.09,2.71-2.39,5.31-3.97,7.77-1.53,2.36-3.07,4.73-4.5,7.16-.54.91-1.11,1.83-1.84,2.62-1.01,1.07-1.77,2.31-2.54,3.55-.18.3.06.83.39.95.47.16.96.18,1.43.18,1.77,0,3.47.44,5.17.81.28.06.55.2.83.27.75.21,1.52.29,2.31.18.41-.05.72-.26.89-.64.19-.45.39-.89.55-1.34h0ZM41.31,64.61l1.04-.9,6.39-1.78,6.84-1.04.45,10.28-8.18-.6-2.97-3.28-3.57-2.68h0ZM58.11,61.48l.45,9.99,2.23,2.08,1.78,3.28,5.8-.15,2.08-6.1.89-8.2s-.6-1.63-1.34-1.63-6.98.29-6.98.29l-4.61-.29s-.44,1.19-.29.74h0ZM49.63,30.63l21.7,20.57-1.48-7.6-2.68-8.49.45-1.04,5.8.9,3.86-6.11,1.93-10.58-1.34.15-17.24,12.96-2.23-2.68-1.19-2.83-6.54,3.73s-1.34,1.03-1.04,1.03h0ZM102.4,40.91l-4.02-5.67-4.9-3.72-3.27-.45.74,7.31,11.45,2.53h0ZM88.13,31.08l-.15,6.71-12.63-2.24-1.19-1.34,3.42-3.43,6.24-1.49,4.31,1.78h0ZM68.66,78.16l2.08-1.93,8.77-1.93,9.52.3.14,8.35-5.05,1.49-6.84-.29-5.5-.9-3.12-5.07h0ZM85.16,10.67l5.05,1.93,5.95,2.53-5.35-6.55-2.68.6s-3.42,1.79-2.97,1.49h0ZM104.49,26.76l-.29,7.45,10.25,3.72,12.93,5.66,1.49,2.68,3.42,9.24-.3,10.88-1.34,3.42-6.54-1.93-4.9,1.19v6.4l13.52-1.93,10.71-7.15,9.51-8.64-14.42-8.49-8.77-5.36-7.88-3.88-1.34-4.03-4.46-5.51-4.46,3.13-3.71-4.32s-3.27-2.53-3.42-2.53h0ZM111.03,68.78c0,.3,1.63-.6,1.63-.6l4.02.6-.74,6.85-6.69-.15,1.78-6.7h0ZM180.57,103.92c-.13-.05-.2-.21-.16-.35l.16.35h0ZM40.26,102.99l.1.58c-.45.09-2.96,1.15-3.1.72-.21-.61,2.59-1.21,3-1.3h0ZM184.67,105.02c1.32.61-2.28.49-1.88-.53.19-.5,1.49.36,1.88.53h0ZM31.67,98.6c-.03-.06-.06-.14-.1-.21-.18-.34-.31-.72-.28-1.11.14-1.57-.08-3.1-.29-4.66-.13-.96.31-1.7,1.09-2.24.16-.11.34-.18.51-.27.36-.17.64-.43.91-.72.75-.81,1.18-1.78,1.41-2.84.09-.39-.08-.76-.37-1.06-.14-.13-.29-.27-.45-.37-1.25-.83-2.61-1.28-4.13-1.25-.38.02-.77.04-1.16.04-.64,0-1.28-.63-1.35-1.31-.03-.39-.05-.77-.08-1.16-.04-.49-.08-.97-.13-1.46-.1-.97-.49-1.88-.53-2.87-.03-.87-.2-1.74-.44-2.59-.11-.37-.16-.76-.18-1.15-.07-1.19-.4-2.3-.79-3.4-.2-.57-.3-1.13-.31-1.72-.02-1.17-.03-2.34-.02-3.5.02-.88-.03-1.75-.16-2.63-.08-.47-.71-.74-1.13-.47-.17.1-.34.18-.5.3-.31.23-.64.45-.92.72-.79.77-1.77,1.19-2.75,1.61-.37.15-.75.25-1.14.26-.39.02-.78.02-1.17.04-.39.02-.76.12-1.12.28-.62.28-1.25.54-1.88.81-.36.16-.68.38-.91.71-.5.72-.99,1.44-1.49,2.16-.1.15-.29.25-.44.37-.17.12-.35.1-.53-.06-.14-.13-.31-.25-.39-.42-.31-.6-.6-1.22-.89-1.84-.13-.26-.26-.53-.34-.8-.4-1.52-1.14-2.9-1.61-4.39-.27-.83-.26-1.75-.77-2.51-.04-.07,0-.19,0-.29,0-.19.07-.39.23-.52.23-.17.48-.33.75-.45,1.26-.51,2.54-.99,3.8-1.5.46-.17.84-.45,1.03-.96.2-.55.44-1.08.71-1.59.45-.85,1.2-1.27,2.12-1.35.68-.06,1.36-.04,2.04.1.67.15,1.34.28,2.01.37.28.03.58-.05.86-.1.47-.1.82-.57.82-1.07,0-.19,0-.38-.02-.58-.02-.21.06-.38.26-.48.24-.11.7-.02.8.14.1.16.25.34.27.5.16.98.59,1.86.84,2.8.12.46.29.93.5,1.37.46.97.84,1.97,1.14,2.99.14.46.45.87.68,1.29.12.21.6.27.76.08,1.92-2.19,3.79-4.42,5.26-6.97,1.02-1.77,2.2-3.45,3.29-5.17.63-.99,1.25-1.98,1.84-2.99.34-.58.66-1.19.93-1.81.94-2.15,1.85-4.29,2.77-6.44.43-.99.74-2.01,1.03-3.04.08-.27.13-.59.07-.85-.34-1.52-.47-3.09-1.01-4.56-.17-.46-.33-.92-.38-1.41-.11-1.12-.52-2.05-1.42-2.77-.22-.18-.37-.45-.47-.72-.13-.38-.39-.68-.66-.96-.76-.76-1.52-1.51-2.26-2.28-.2-.21-.35-.47-.5-.71-.05-.08-.09-.18-.09-.28,0-.21.07-.39.22-.52.14-.11.32-.1.52-.02.46.2.84.51,1.2.83.44.39.85.8,1.26,1.23.95.99,1.99,1.87,3.09,2.66.32.24.63.46.94.71,1.56,1.32,3.11,2.66,4.66,3.98.52.44,1.07.84,1.59,1.28.58.49,1.16.6,1.88.25,1.83-.91,3.63-1.89,5.42-2.87.25-.14.49-.32.72-.5.32-.25.5-.61.54-1,.11-1.07.02-2.14-.29-3.17.19-.78.36-1.54.58-2.28.06-.2.27-.26.45-.27.23-.02.39.05.46.27.06.18.15.36.17.55.05,1.26.12,2.53.12,3.8,0,1.27.14,2.52.39,3.76.07.39.35.67.78.76.67.15.95.61.94,1.28,0,.09.01.18.02.29.02.1.02.19.06.29.09.23.25.29.45.21.09-.04.19-.06.27-.12,2.19-1.62,4.43-3.18,6.68-4.71,1.7-1.15,3.27-2.45,4.83-3.78.67-.57,1.32-1.16,2.04-1.66,1.12-.78,2.06-1.78,3.16-2.59.15-.11.26-.29.37-.45.17-.24.23-.53.27-.82,0-.1,0-.19-.02-.29-.35-1.72-.52-3.47-1.15-5.12-.21-.56-.53-1.04-1.15-1.24-.18-.06-.36-.14-.54-.24-.08-.03-.16-.1-.23-.15-.25-.16-.35-.48-.25-.76.06-.18.16-.34.37-.41.18-.06.37-.13.56-.14.88-.05,1.74.03,2.59.29,1.12.35,2.22.72,3.3,1.19,1.24.53,2.44.53,3.67-.06.88-.43,1.79-.75,2.74-1,.19-.05.37-.14.53-.23.36-.19.65-.46.66-.88.04-1.66.05-3.31.08-4.97,0-.48-.01-.96.11-1.44.08-.32.3-.49.58-.6.19-.07.38-.02.48.19.3.62.39,1.31.41,1.99.03.97.01,1.95.02,2.92,0,.58,0,1.17.04,1.75.02.39.17.76.38,1.09.06.09.1.17.16.24,1.29,1.59,2.46,3.26,3.66,4.93.34.47.7.94,1.09,1.38.51.58,1.09,1.09,1.8,1.46,1.12.58,2.2,1.23,3.36,1.89.09.22.23.48.29.76.09.37.21.74.38,1.09.47.96.93,1.93,1.38,2.9.17.36.37.72.42,1.08.17,1.34,1.03,2.29,1.71,3.35.16.24.37.45.58.65,1.03.9,1.97,1.89,2.89,2.89.65.72,1.37,1.38,2.05,2.09.23.25.79.21,1.07-.03.66-.57,1.33-1.15,1.91-1.81.34-.37.52-.81.62-1.3.07-.3-.1-.64-.36-.68-.38-.06-.76-.12-1.15-.19-.2-.04-.49-.42-.52-.65-.02-.19-.08-.38-.09-.57,0-.88,0-1.75.02-2.63.02-.92.46-1.23,1.21-1.38.29-.05.56-.15.8-.32.18-.1.31-.24.36-.44.07-.28.14-.56.18-.85.2-1.54.38-3.09.59-4.62.03-.29.23-.53.45-.73.2-.19.57-.17.75.09.11.16.21.33.27.51.12.37.14.76.1,1.15-.05.49-.13.96-.21,1.45-.14.87-.23,1.73-.18,2.61.01.25.23.57.49.64.55.19,1.13.27,1.66.54.31.16.6.65.5.96-.06.18-.11.37-.17.56-.23.75-.47,1.49-.68,2.24-.18.64-.6.97-1.2,1.13-.28.08-.56.16-.79.37-.14.14-.28.31-.26.5.06.48.14.95.25,1.43.07.28.16.57.33.8,1.38,1.89,2.64,3.86,4.19,5.62.39.44.7.94,1.02,1.43.32.49.64.98.91,1.49.44.82,1.12,1.33,1.99,1.61,1.86.6,3.59,1.5,5.35,2.32.53.25,1.07.51,1.47.94.54.6,1.23.94,1.87,1.39,2.07,1.46,4.18,2.84,6.43,4.03.78.41,1.5.9,2.26,1.35,1.09.64,2.18,1.29,3.31,1.85,1.31.66,2.57,1.39,3.82,2.16,1.17.71,2.4,1.28,3.63,1.85.16.08.39.04.57-.02.38-.09.72-.3,1.03-.54,1.17-.88,2.34-1.74,3.51-2.62.23-.17.51-.25.81-.28.33-.03.76.49.65.8-.14.37-.34.7-.61.99-.59.66-1.31,1.17-1.99,1.71-1.07.84-2.16,1.66-3.21,2.54-1.73,1.41-3.45,2.85-4.99,4.48-.27.29-.56.56-.87.78-.88.62-1.66,1.35-2.43,2.1-.42.41-.83.83-1.31,1.17-1.27.92-2.38,2.01-3.53,3.06-.64.59-1.29,1.19-1.97,1.74-1.68,1.33-3.21,2.84-4.87,4.19-.31.25-.5.62-.59.99-.15.66-.27,1.34-.35,2.01-.12,1.08-.4,2.11-.79,3.11-.39,1-.78,1.98-1.07,3.02-.31,1.13-.81,2.2-1.52,3.14-.29.39-.54.8-.76,1.23-.69,1.35-1.39,2.71-2.12,4.03,1.01.45,2.03,1.6,3.08,2.08,1.12.36,2.39,1.09,3.52,1.45l1.37.08,1.5.49c2.19,0,4.44-1.07,6.47-2.01,1.21-.69,2.64-1.84,3.85-2.22,1.56-.48,2.91-.08,4.47.06,2.56.25,4.65,1.21,7.01,2.32.92.43,2.07,1.21,3.02,1.48l1.58-.06c1.11.13.95,1.02,4.74-.51l6.98-3.22,5.33.37c2.86.7,5.82,1.83,7.52,2.58,2.84,1.26,3.04,1.97,8.63-.54,5.79-2.61,9.26-2.57,12.14-1.45,3.26,1.27,5.75,3.84,10,3.84,1.44,0,2.41,3.91-7.52-.7-11.41-5.3-11.22,2.19-19.94,2.19-3.42,0-6.48-2.01-9.59-3.26-1.5-.6-.28-.57-3.19-.89l-3.14.02c-1.07.3-6.31,3.48-10.28,4.09-2.72.41-4.82-.83-6.8-2.11-.66-.42-1.74-.45-2.24-.96-1.32-1.35-3.6-1-5.43-1.09-.74-.03-1.58.31-2.59.43-1.28.17-1.39.68-2.05,1.13-.52.35-1.09.71-1.81.99-3.39,1.33-9.06,2.07-11.92,1.11-2.56-.86-3-3.18-5.31-4-1.79-.64-4.17.12-6.54.95-1.06.37-2.13.87-3.2,1.36-1.24.57-2.42,1.12-3.61,1.53-1.19.41-2.4.37-3.62.37s-2.43.03-3.62-.37c-1.19-.41-2.42-.64-3.6-1.19-1.09-.5-2.11-1.32-3.18-1.69-1.07-.38-2.13-.64-3.16-.64s-2.09.64-3.16,1.01-2.15.49-3.23,1c-1.18.54-2.36,1.09-3.54,1.5-1.19.41-2.28.56-3.51.56s-2.54-.15-3.73-.56c-1.19-.41-2.37-.95-3.54-1.5-1.08-.51-2.17-1.01-3.24-1.38-1.07-.38-2.12-.32-3.16-.32s-2.07-.06-3.12.3c-1.58.56-2.99,1.06-3,1.07-.02,0-.84.32-.84.33-1.18.54-1.77,1.09-2.97,1.5-1.19.41-2.39.69-3.62.69s-2.37-.52-3.56-.94c-1.19-.41-2.43-.71-3.6-1.25-1.08-.51-2.16-1.01-3.24-1.38-1.07-.38-2.12-.64-3.16-.64s-2.07.25-3.12.62c-1.06.37-2.13.87-3.2,1.36-1.24.57-2.42,1.12-3.61,1.53-1.19.41-2.28.44-3.51.44s-2.55-.03-3.74-.44c-1.19-.41-1.96-.64-3.14-1.19l-.41-.31c-1.07-.51-2.16-1.01-3.23-1.38-1.07-.38-2.12-.64-3.15-.64s-2.07.25-3.13.62c-1.05.37-2.12.87-3.2,1.36-1.15.68-2.35,1.19-3.61,1.53-1.21.33-2.4.69-3.62.69-.27,0-.52-.13-.7-.32-.18-.19-.7-.45-.7-.76,0-.29.52-.56.7-.75.17-.2.43-.31.7-.31,1.03,0,2.09-.25,3.15-.64,1.07-.37,2.16-.88,3.24-1.38,1.19-.55,2.37-1.1,3.55-1.5,1.19-.41,2.44-.99,3.67-.99s1.97.89,3.15,1.31c1.19.41,2.78.64,3.95,1.19,1.09.5,2.17,1,3.24,1.38,1.07.38,2.12.32,3.16.32s2.08.06,3.15-.32h.02ZM202.46,99.59c-.7.17-5.4,1.62-5.71,2.47-.65,1.75,5.52-1.33,5.93-1.43.62-.14.4-1.19-.22-1.03h0ZM195.53,102.41l-2.18.76c-1.35.35-1.42,1.38-.55,1.22,4.15-.79,3.67-2.36,2.73-1.98h0ZM190.59,103.47l-2.87-.67-1.47-.6c-2.71-1.18-2.99-.15-.37.99,5.75,2.5,5.66.34,4.72.28h0ZM182.25,100.41l-2.31-.78-1.17-.24c-3.12-.44-11.53,3.27-11.75,3.72-1.23,2.59,8.89-4.1,12.7-2.46l2.18.75c.59.25.94-.75.35-1h0ZM164.9,103.44h-1.69c-1.53-.17-1.89.74-1,.92,3.69.74,3.62-1.04,2.69-.92h0ZM158.66,102l-4.68-2.04c-7.48-2.58-13.91,4.23-10.1,2.46,5.55-2.56,7.62-2.58,13.17,0,2.27,1.05,2.2-.15,1.61-.41h0ZM139.56,103.06l-1.79.39c-1.12.13-1.47,1.14-.56,1.11,3.6-.13,3.25-1.77,2.35-1.5h0ZM75.75,102.42c-1.11-.52-2.22-1.03-3.32-1.41-1.1-.39-2.19-.64-3.28-.64s-2.17.25-3.27.64c-1.01.35-2.03.81-3.05,1.29l-.26.11c-7.42,3.72-9.77,1.47-16.63-1.19-.25-.1-1.6-1.96,3.08.21,9.71,4.51,10.7,0,13.16,0l3.47-1.48c1.16-.4,2.32-.66,3.5-.66s2.35.26,3.51.66c1.16.41,2.31.95,3.47,1.48,14.32,6.64,12.28-6.88,27.1,0,9.73,4.51,10.71,0,13.17,0,1.09-1.17,6.53-2.84,10.49-1.47,5.56,1.93,4.84,3.26,3.1,2.45-5.48-2.52-7.56-2.58-12.93-.12l-.26.11c-2.49.07-3.84,4.69-13.94,0-14.32-6.65-12.28,6.87-27.1,0h0ZM44.39,99.61l-2.57-.3-.55.17c-.88,1.03,1.55.92,1.84.96,2.3.31,1.84-.68,1.29-.83h0ZM36.79,100.67l-6.72,2.66c-.64.13-1.11,1.79,2.79.24,6.77-2.69,4.18-3.02,3.92-2.9h0ZM28.34,103.5l-1.9-.28c-1.19-.3-1.78.58-.91.84,3.82,1.15,3.64-.55,2.81-.56h0ZM17.48,99.67l-2.81-.36-.59.18c-.83.98,2.12.97,2.58,1.06.95.21,1.79-.62.82-.88h0ZM181.95,103.81c-.37-.14-2.63-1.15-2.74-.55l2.55,1.11.19-.56h0ZM177.76,102.8c-.71,0-5.29.64-4.99,1.5l4.81-.92c.4,0,.65-.58.18-.59h0ZM170.93,104.82c.49-.22.36.47-.02.65-4.23,1.97-7.39,2.71-11.57.98l.19-.54c4.14,1.7,7.2.86,11.4-1.08h0ZM157.55,105.02c-2.83-1.31-3.37-.92-.32.49.36.17.71-.31.32-.49h0ZM152.36,103.02c-4.32-.93-8.23,2.01-12.26,3.38l.16.56c3.94-1.33,7.82-4.27,12-3.37l.11-.57h0ZM137.39,106.97c.64-.02-.03.6-.47.6-1.23,0-2.85-.83-.73-.62.23.02.48.04.73.04l.47-.02h0ZM130.38,104.99c.43.2,0,.64-.36.46-14.32-6.64-12.5,6.79-27.09.02-14.4-6.69-12.43,6.8-27.1,0-5.16-2.4-7.68-2.6-12.58-.35-.77.35-.58-.68,2.83-1.77,6.27-2.01,10.79,3.65,16.63,3.65,8.27,0,8.42-7.65,20.43-2.08,5.46,2.54,7.88,2.54,13.34,0,1.01-1.09,6.26-2.89,10.42-1.42l3.48,1.49h0ZM61.58,105.24c-.34.16-2.41.8-2.26,1.27.33,1.04,4.12-2.11,2.26-1.27h0ZM55.88,106.99h-.27c-.83,0-1.66-.14-2.5-.37-.39-.11-2.71-1.27-2.88-.78-.33.89,4.77,1.74,5.38,1.74.43,0,.8-.6.27-.59h0ZM49.13,105.02c-2.72-1.26-3.49-.98-.37.46.37.17.8-.27.37-.46Z"/>
      <g>
        <g>
          <path class="cls-2" d="M184.67,105.02c1.32.61-2.28.49-1.88-.53.19-.5,1.49.36,1.88.53h0ZM181.95,103.81l-.19.56-2.55-1.11c.11-.6,2.37.41,2.74.55h0ZM180.57,103.92l-.16-.35c-.04.13.03.29.16.35h0ZM177.76,102.8c.47,0,.22.59-.18.59l-4.81.92c-.3-.87,4.28-1.5,4.81-1.5h.18ZM170.93,104.82c.49-.22.36.47-.02.65-4.23,1.97-7.39,2.71-11.57.98l.19-.54c4.14,1.7,7.2.86,11.4-1.08h0ZM157.55,105.02c.39.17.04.65-.32.49-3.05-1.41-2.52-1.8.32-.49h0ZM152.36,103.02l-.11.57c-4.18-.9-8.07,2.04-12,3.37l-.16-.56c4.04-1.37,7.94-4.31,12.26-3.38h0ZM137.39,106.97c.64-.02-.03.6-.47.6-1.23,0-2.85-.83-.72-.62.23.02.47.04.72.04l.47-.02h0ZM130.38,104.99c.43.2,0,.64-.36.46-14.32-6.64-12.5,6.79-27.09.02-14.4-6.69-12.43,6.8-27.1,0-5.16-2.4-7.68-2.6-12.58-.35-.77.35-.58-.68,2.83-1.77,6.27-2.01,10.79,3.65,16.63,3.65,8.27,0,8.42-7.65,20.43-2.08,5.46,2.54,7.88,2.54,13.34,0,1.01-1.09,6.26-2.89,10.42-1.42l3.48,1.49h0ZM61.58,105.24c-.34.16-2.41.8-2.26,1.27.33,1.04,4.12-2.11,2.26-1.27h0ZM55.88,106.99c.53-.02.16.59-.27.59-.61,0-5.71-.85-5.38-1.74.18-.49,2.5.66,2.88.78.83.23,1.67.38,2.5.38h.27ZM49.13,105.02c.43.19,0,.63-.37.46-3.11-1.44-2.35-1.72.37-.46h0ZM40.26,102.99l.1.58c-.45.09-2.96,1.15-3.1.72-.21-.61,2.59-1.21,3-1.3Z"/>
          <path class="cls-2" d="M1.39,101.37c-.27,0-.52-.13-.7-.32-.18-.19-.7-.46-.7-.76s.52-.56.7-.75c.17-.19.43-.31.7-.31,1.03,0,2.09-.25,3.15-.63,1.07-.38,2.16-.88,3.24-1.38,1.19-.55,2.37-1.1,3.55-1.5,1.19-.41,2.44-.99,3.67-.99s1.97.89,3.15,1.31c1.19.41,2.78.64,3.95,1.19,1.09.5,2.17,1,3.24,1.38,1.07.37,2.12.31,3.16.31s2.08.06,3.15-.31c1.07-.38,2.15-.88,3.23-1.38,1.19-.55,3.12-1.1,4.31-1.5,1.19-.41,1.7-1.12,2.92-1.12s2.37.72,3.56,1.12c1.19.41,2.37.96,3.54,1.5,1.08.5,2.17,1,3.24,1.38,1.07.37,2.12.63,3.16.63s1.74-.64,2.81-1.01c1.07-.37,2.5-.5,3.58-1,1.19-.55,2.36-1.1,3.55-1.5,1.19-.41,2.39-.68,3.61-.68.98.33,1.89.99,3.62.68,1.23-.21,2.37.96,3.54,1.5,1.08.5,2.05.76,3.12,1.14,1.07.37,2.09,1.05,3.13,1.05s2.23-.43,3.3-.8c1.07-.38,2.15-.88,3.23-1.38,1.18-.55,2.35-1.09,3.54-1.5,1.19-.41,2.39-.99,3.62-.99s2.43.58,3.62.99c1.19.41,2.37.96,3.55,1.5,1.08.5,2.16,1,3.23,1.38,1.07.37,2.12.63,3.16.63s1.91-.44,2.98-.83c4.19-1.46,3.41-1.19,3.41-1.19,0,0,1.69-.65,1.69-.66,1.17-.54.67-.44,1.85-.84,2.67-.91,5.02-1.46,7.4-.67,1.09.36,2.18,1.66,3.3,2.17,1.12.36,2.39,1.09,3.52,1.45l1.37.08,1.5.49c2.19,0,4.44-1.07,6.47-2.01,1.21-.69,2.64-1.84,3.85-2.22,1.56-.48,2.91-.08,4.47.07,2.56.24,4.65,1.2,7.01,2.31.92.43,2.07,1.21,3.02,1.48l1.58-.06c1.1.13.95,1.02,4.74-.51l6.98-3.22,5.33.37c2.86.7,5.82,1.83,7.52,2.58,2.84,1.26,3.04,1.97,8.63-.54,5.79-2.61,9.26-2.57,12.14-1.45,3.26,1.27,5.75,3.84,10,3.84,1.44,0,2.41,3.91-7.52-.7-11.41-5.3-11.22,2.19-19.94,2.19-3.42,0-6.48-2.01-9.59-3.26-1.5-.6-.27-.57-3.19-.89l-3.14.02c-1.07.3-6.31,3.48-10.28,4.09-2.72.41-4.82-.83-6.8-2.11-.65-.42-1.74-.45-2.24-.96-1.32-1.35-3.6-1-5.43-1.09-.74-.03-1.58.31-2.59.43-1.28.17-1.39.68-2.05,1.13-.52.35-1.08.71-1.81.99-3.39,1.33-9.06,2.07-11.92,1.11-2.56-.86-3-3.18-5.31-4-1.79-.64-4.17.12-6.54.95-1.06.37-2.13.87-3.2,1.36-1.24.57-2.42,1.12-3.61,1.53-1.19.41-2.4.37-3.62.37s-2.44.04-3.62-.37c-1.19-.41-2.43-.64-3.6-1.19-1.09-.5-2.11-1.32-3.18-1.69-1.07-.38-2.13-.64-3.16-.64s-2.09.64-3.16,1c-1.07.38-2.15.5-3.23,1.01-1.18.54-2.36,1.09-3.55,1.5-1.19.41-2.27.56-3.5.56s-2.54-.14-3.73-.56c-1.19-.41-2.37-.95-3.54-1.5-1.09-.51-2.17-1.01-3.24-1.38-1.07-.38-2.12-.32-3.16-.32s-2.07-.06-3.12.3c-1.58.56-2.99,1.06-3,1.07-.02,0-.84.32-.84.33-1.18.54-1.77,1.09-2.97,1.5-1.19.41-2.39.69-3.62.69s-2.37-.52-3.56-.94c-1.19-.41-2.43-.71-3.6-1.25-1.08-.51-2.16-1.01-3.24-1.38-1.07-.38-2.12-.64-3.16-.64s-2.07.25-3.12.62c-1.06.37-2.13.87-3.2,1.36-1.24.57-2.42,1.12-3.61,1.53-1.19.41-2.28.44-3.51.44s-2.55-.03-3.74-.44c-1.19-.41-1.96-.64-3.14-1.19l-.41-.31c-1.07-.51-2.16-1.01-3.23-1.38-1.07-.38-2.12-.64-3.15-.64s-2.07.25-3.13.62c-1.05.37-2.13.87-3.2,1.36-1.15.68-2.35,1.19-3.61,1.53-1.21.33-2.4.69-3.62.69Z"/>
          <path class="cls-2" d="M202.46,99.59c.62-.15.84.89.22,1.03-.41.1-6.59,3.18-5.93,1.43.31-.84,5.01-2.29,5.71-2.47h0ZM195.53,102.42l-2.18.76c-1.35.35-1.42,1.38-.55,1.22,4.15-.79,3.67-2.36,2.73-1.97h0ZM190.59,103.47c.95.06,1.03,2.22-4.72-.28-2.61-1.14-2.34-2.17.37-.99l1.47.6,2.87.67h0ZM182.25,100.41c.59.25.24,1.24-.35,1l-2.18-.75c-3.81-1.64-13.93,5.05-12.7,2.46.22-.45,8.63-4.16,11.75-3.72l1.18.24,2.31.78h0ZM164.9,103.44h-1.69c-1.53-.16-1.89.74-1,.92,3.69.74,3.62-1.04,2.69-.92h0ZM158.66,102c.6.26.66,1.46-1.61.41-5.55-2.57-7.62-2.55-13.17,0-3.81,1.77,2.62-5.04,10.1-2.46l4.68,2.04h0ZM139.56,103.06l-1.79.39c-1.13.13-1.47,1.14-.56,1.1,3.6-.12,3.25-1.76,2.35-1.49h0ZM75.75,102.42c-1.11-.52-2.22-1.03-3.32-1.41-1.1-.39-2.19-.64-3.28-.64s-2.17.25-3.27.64c-1.1.38-2.2.89-3.31,1.41-7.42,3.72-9.77,1.46-16.63-1.19-.25-.1-1.59-1.96,3.08.21,9.71,4.51,10.7,0,13.16,0l3.47-1.48c1.16-.4,2.32-.66,3.5-.66s2.35.26,3.51.66c1.16.41,2.31.95,3.47,1.48,14.32,6.64,12.28-6.88,27.1,0,9.73,4.51,10.71,0,13.16,0,1.09-1.18,6.53-2.84,10.49-1.47,5.56,1.93,4.84,3.26,3.1,2.45-5.57-2.56-7.62-2.58-13.19,0-2.47,0-3.77,4.72-13.94,0-14.32-6.65-12.28,6.87-27.1,0h0ZM116.75,102.43l-.61-.29.61.29h0ZM62.54,102.43l-.61-.29.61.29h0ZM44.39,99.62l-2.57-.31s-.55.17-.55.17c-.88,1.03,1.55.92,1.84.96,2.3.31,1.84-.68,1.29-.82h0ZM36.79,100.67c.25-.12,2.85.21-3.92,2.9-3.9,1.55-3.44-.11-2.79-.24l6.72-2.66h0ZM28.34,103.5l-1.9-.28c-1.19-.3-1.78.58-.91.85,3.82,1.15,3.64-.56,2.81-.57h0ZM17.48,99.67c.97.26.13,1.1-.82.88-.45-.09-3.41-.08-2.58-1.06l.59-.18,2.81.36Z"/>
        </g>
        <g>
          <path class="cls-2" d="M120.17,96.14c.02-.18-.06-.32-.22-.33-.05,0-.12.1-.16.17-.09.19-.04.34.12.43.21-.12.24-.2.26-.28h0ZM83.1,91.06c.14.18.23.21.3.18.21-.08.19-.18-.07-.23-.07-.02-.15.03-.23.05h0ZM87.87,35.95c-.02-.09-.03-.17-.04-.26-.11.17-.08.25-.07.34l.11-.08ZM82.53,86.93c.02-.08.06-.17.06-.25-.18,0-.22.08-.22.17l.16.08ZM18.23,56.41c.02-.07.05-.14.05-.21-.11-.02-.14.06-.14.14l.09.08ZM48.8,86.24c0-.09.04-.17.02-.25-.02-.08-.1-.19-.16-.18-.15,0-.24.14-.23.33,0,.21.09.32.22.29.06,0,.1-.12.15-.18h0ZM76.79,82.91c-.07-.08-.12-.18-.2-.21-.08-.03-.19-.02-.28,0-.25.09-.31.22-.15.35.07.05.17.08.25.09.21.02.35-.08.38-.23h0ZM125.33,95.13c-.04-.06-.12-.13-.19-.14-.19-.03-.36.05-.46.21-.02.03.09.15.17.21.18.12.35.09.46-.06.04-.06.05-.15.02-.21h0ZM79.4,75.12c-.2-.06-.37,0-.45.18-.01.03.11.17.18.18.2.06.37-.02.46-.2,0,0-.13-.1-.2-.16h0ZM36.11,88.8c-.18.06-.32.17-.4.33-.03.08-.09.2-.06.26.09.18.25.25.45.21.31-.05.47-.27.39-.57-.06-.24-.18-.31-.38-.24h0ZM39.89,94.73c-.06.06-.14.11-.16.19-.06.26-.03.53.1.76.06-.06.15-.13.17-.2.02-.17.01-.36,0-.52,0-.09-.07-.16-.11-.24h0ZM75.87,85.21c-.1-.11-.25-.16-.46-.17-.19,0-.36.04-.5.18.11.13.26.17.47.17s.36-.05.49-.18h0ZM77.37,80.77c-.1-.23-.23-.24-.43-.08-.37.29-.42.52-.1.55.2.02.36-.05.46-.21.04-.07.04-.17.06-.25h0ZM52.43,63.9c0-.17-.05-.37-.22-.44-.17-.06-.35.06-.48.17-.14.13-.21.29-.2.49.02.19.43.36.66.23.17-.08.24-.25.25-.45h0ZM121.08,93.52c.08,0,.18,0,.23-.04.14-.1.27-.21.38-.34.06-.06.11-.18.08-.25-.09-.18-.25-.23-.45-.18-.29.07-.44.29-.38.57,0,.09.09.16.14.23h0ZM122.39,95.89c.19-.03.32-.16.43-.33.15-.21.13-.38-.12-.45-.2-.07-.37.02-.49.18-.12.17-.14.35-.03.5.04.06.14.06.21.1h0ZM44.17,94.86c.02-.2-.06-.38-.26-.46-.27-.11-.62.11-.62.37,0,.3.29.56.57.49.19-.05.29-.19.32-.39h0ZM86.88,32.92c-.03-.19-.12-.33-.25-.33-.07,0-.18.09-.21.17-.13.23-.22.49-.34.73-.1.2-.06.37.17.43.18.04.35-.06.45-.21.15-.24.23-.5.2-.8h0ZM86.27,36.42c.04-.2-.02-.37-.21-.46-.07-.04-.19,0-.27.06-.09.02-.17.08-.23.14-.22.21-.16.59.11.67.21.05.38,0,.5-.17.05-.07.07-.16.1-.24h0ZM51.09,69.65c-.03-.28-.37-.43-.59-.27-.16.12-.27.25-.3.43-.02.08-.04.18,0,.25.09.2.25.24.45.17.32-.11.49-.3.45-.58h0ZM67.08,79.05c-.03-.41-.17-.72-.31-.64-.17.09-.26.24-.32.43-.02.09-.07.17-.12.25-.12.2-.11.37.06.49.07.04.16.05.25.06.19,0,.34-.1.41-.3.03-.09.02-.19.02-.29h0ZM73.97,91.74c.08.02.16.06.24.06.27,0,.54,0,.81-.02.09,0,.18-.02.25-.06.1-.06,0-.14-.26-.14-.36,0-.72-.08-1.04.16h0ZM78.35,91.72c-.53-.2-.9-.16-1.26-.15-.09,0-.17.04-.26.06.11.12.26.16.47.15.27-.02.54-.03,1.05-.06h0ZM124.73,92.29c-.06-.05-.12-.13-.2-.16-.27-.12-.56-.09-.76.1-.26.25-.49.57-.34.97.07.2.25.22.46.13.35-.17.61-.42.77-.76.04-.09.05-.18.07-.28h0ZM55.04,27.89c.2-.11.13.02.22.11.06.06.16.1.25.1.18,0,.37.02.55,0,.2-.02.35-.12.47-.27.14-.15.2-.33.12-.45-.1-.16-.3-.23-.48-.15-.25.11-.48.28-1.13.66h0ZM47.06,97.79c-.04-.14-.1-.34-.17-.54-.04-.08-.12-.14-.19-.19-.2-.12-.37-.1-.49.06-.06.09-.11.17-.14.27l-3.06-1.28-4.73,1.51c.04-.56-.44-.99-.9-.85-1.1.29-2.22.54-3.25,1.06-.08.04-.14.12-.21.18-.16.14-.19.31-.12.52.05.15.15.26.31.33-.1.03-2.26.63-2.26.63-.01-.38-.1-.74-.29-1.08-.18-.34-.31-.72-.28-1.11.14-1.57-.08-3.1-.29-4.66-.13-.96.31-1.7,1.09-2.24.16-.11.34-.18.51-.27.36-.17.64-.43.91-.72.75-.81,1.18-1.78,1.41-2.84.09-.39-.08-.76-.37-1.06-.14-.13-.29-.27-.45-.37-1.25-.83-2.61-1.28-4.13-1.25-.38.02-.77.04-1.16.04-.64,0-1.28-.63-1.35-1.31-.03-.39-.05-.77-.08-1.16-.04-.49-.08-.97-.13-1.46-.1-.97-.49-1.88-.53-2.87-.03-.87-.2-1.74-.44-2.59-.11-.37-.16-.76-.18-1.15-.07-1.19-.4-2.3-.79-3.4-.2-.57-.3-1.13-.31-1.72-.02-1.17-.03-2.34-.02-3.5.02-.88-.03-1.75-.16-2.63-.08-.47-.71-.74-1.13-.47-.17.1-.34.18-.5.3-.31.23-.64.45-.92.72-.79.77-1.77,1.19-2.75,1.61-.37.15-.75.25-1.14.26-.39.02-.78.02-1.17.04-.39.02-.76.12-1.12.28-.62.28-1.25.54-1.88.81-.36.16-.68.38-.91.71-.5.72-.99,1.44-1.49,2.16-.1.15-.29.25-.44.37-.17.12-.35.1-.53-.06-.14-.13-.31-.25-.39-.42-.31-.6-.6-1.22-.89-1.84-.13-.26-.26-.53-.34-.8-.4-1.52-1.14-2.9-1.61-4.39-.27-.83-.26-1.75-.77-2.51-.04-.07,0-.19,0-.29,0-.19.07-.39.23-.52.23-.17.48-.33.75-.45,1.26-.51,2.54-.99,3.8-1.5.46-.17.84-.45,1.03-.96.2-.55.44-1.08.71-1.59.45-.85,1.2-1.27,2.12-1.35.68-.06,1.36-.04,2.04.1.67.15,1.34.28,2.01.37.28.03.58-.05.86-.1.47-.1.82-.57.82-1.07,0-.19,0-.38-.02-.58-.02-.21.06-.38.26-.48.24-.11.7-.02.8.14.1.16.25.34.27.5.16.98.59,1.86.84,2.8.12.46.29.93.5,1.37.46.97.84,1.97,1.14,2.99.14.46.45.87.68,1.29.12.21.6.27.76.08,1.92-2.19,3.79-4.42,5.26-6.97,1.02-1.77,2.2-3.45,3.29-5.17.63-.99,1.25-1.98,1.84-2.99.34-.58.66-1.19.93-1.81.94-2.15,1.85-4.29,2.77-6.44.43-.99.74-2.01,1.03-3.04.08-.27.13-.59.07-.85-.34-1.52-.47-3.09-1.01-4.56-.17-.46-.33-.92-.38-1.41-.11-1.12-.52-2.05-1.42-2.77-.22-.18-.37-.45-.47-.72-.13-.38-.39-.68-.66-.96-.76-.76-1.52-1.51-2.26-2.28-.2-.21-.35-.47-.5-.71-.05-.08-.09-.18-.09-.28,0-.21.07-.39.22-.52.14-.11.32-.1.52-.02.46.2.84.51,1.2.83.44.39.85.8,1.26,1.23.95.99,1.99,1.87,3.09,2.66.32.24.63.46.94.71,1.56,1.32,3.11,2.66,4.66,3.98.52.44,1.07.84,1.59,1.28.58.49,1.16.6,1.88.25,1.83-.91,3.63-1.89,5.42-2.87.25-.14.49-.32.72-.5.32-.25.5-.61.54-1,.11-1.07.02-2.14-.29-3.17.19-.78.36-1.54.58-2.28.06-.2.27-.26.45-.27.23-.02.39.05.46.27.06.18.15.36.17.55.05,1.26.12,2.53.12,3.8,0,1.27.14,2.52.39,3.76.07.39.35.67.78.76.67.15.95.61.94,1.28,0,.09.01.18.02.29.02.1.02.19.06.29.09.23.25.29.45.21.09-.04.19-.06.27-.12,2.19-1.62,4.43-3.18,6.68-4.71,1.7-1.15,3.27-2.45,4.83-3.78.67-.57,1.32-1.16,2.04-1.66,1.12-.78,2.06-1.78,3.16-2.59.15-.11.26-.29.37-.45.17-.24.23-.53.27-.82,0-.1,0-.19-.02-.29-.35-1.72-.52-3.47-1.15-5.12-.21-.56-.53-1.04-1.15-1.24-.18-.06-.36-.14-.54-.24-.08-.03-.16-.1-.23-.15-.25-.16-.35-.48-.25-.76.06-.18.16-.34.37-.41.18-.06.37-.13.56-.14.88-.05,1.74.03,2.59.29,1.12.35,2.22.72,3.3,1.19,1.24.53,2.44.53,3.67-.06.88-.43,1.79-.75,2.74-1,.19-.05.37-.14.53-.23.36-.19.65-.46.66-.88.04-1.66.05-3.31.08-4.97,0-.48-.01-.96.11-1.44.08-.32.3-.49.58-.6.19-.07.38-.02.48.19.3.62.39,1.31.41,1.99.03.97.01,1.95.02,2.92,0,.58,0,1.17.04,1.75.02.39.17.76.38,1.09.06.09.1.17.16.24,1.29,1.59,2.46,3.26,3.66,4.93.34.47.7.94,1.09,1.38.51.58,1.09,1.09,1.8,1.46,1.12.58,2.2,1.23,3.36,1.89.09.22.23.48.29.76.09.37.21.74.38,1.09.47.96.93,1.93,1.38,2.9.17.36.37.72.42,1.08.17,1.34,1.03,2.29,1.71,3.35.16.24.37.45.58.65,1.03.9,1.97,1.89,2.89,2.89.65.72,1.37,1.38,2.05,2.09.23.25.79.21,1.07-.03.66-.57,1.33-1.15,1.91-1.81.34-.37.52-.81.62-1.3.07-.3-.1-.64-.36-.68-.38-.06-.76-.12-1.15-.19-.2-.04-.49-.42-.52-.65-.02-.19-.08-.38-.09-.57,0-.88,0-1.75.02-2.63.02-.92.46-1.23,1.21-1.38.29-.05.56-.15.8-.32.18-.1.31-.24.36-.44.07-.28.14-.56.18-.85.2-1.54.38-3.09.59-4.62.03-.29.23-.53.45-.73.2-.19.57-.17.75.09.11.16.21.33.27.51.12.37.14.76.1,1.15-.05.49-.13.96-.21,1.45-.14.87-.23,1.73-.18,2.61.01.25.23.57.49.64.55.19,1.13.27,1.66.54.31.16.6.65.5.96-.06.18-.11.37-.17.56-.23.75-.47,1.49-.68,2.24-.18.64-.6.97-1.2,1.13-.28.08-.56.16-.79.37-.14.14-.28.31-.26.5.06.48.14.95.25,1.43.07.28.16.57.33.8,1.38,1.89,2.64,3.86,4.19,5.62.39.44.7.94,1.02,1.43.32.49.64.98.91,1.49.44.82,1.12,1.33,1.99,1.61,1.86.6,3.59,1.5,5.35,2.32.53.25,1.07.51,1.47.94.54.6,1.23.94,1.87,1.39,2.07,1.46,4.18,2.84,6.43,4.03.78.41,1.5.9,2.26,1.35,1.09.64,2.18,1.29,3.31,1.85,1.31.66,2.57,1.39,3.82,2.16,1.17.71,2.4,1.28,3.63,1.85.16.08.39.04.57-.02.38-.09.72-.3,1.03-.54,1.17-.88,2.34-1.74,3.51-2.62.23-.17.51-.25.81-.28.33-.03.76.49.65.8-.14.37-.34.7-.61.99-.59.66-1.31,1.17-1.99,1.71-1.07.84-2.16,1.66-3.21,2.54-1.73,1.41-3.45,2.85-4.99,4.48-.27.29-.56.56-.87.78-.88.62-1.66,1.35-2.43,2.1-.42.41-.83.83-1.31,1.17-1.27.92-2.38,2.01-3.53,3.06-.64.59-1.29,1.19-1.97,1.74-1.68,1.33-3.21,2.84-4.87,4.19-.31.25-.5.62-.59.99-.15.66-.27,1.34-.35,2.01-.12,1.08-.4,2.11-.79,3.11-.39,1-.78,1.98-1.07,3.02-.31,1.13-.81,2.2-1.52,3.14-.29.39-.54.8-.76,1.23-.76,1.48-1.52,2.95-2.32,4.4-.19.34-.43.68-.69,1l-3.24-.84-8.35,2.94-6.01,1.62-3.62-.99c.3-.02.6-.04.91,0,.51.06.96-.09,1.37-.37.52-.37,1.04-.48,1.64-.2.47.21.94.13,1.4-.09.45-.21.82-.52,1.11-.92.06-.08.12-.16.15-.25.06-.21.06-.39-.06-.52-.05-.07-.16-.13-.25-.13-1.09-.14-2.1.31-3.16.43-.18.02-.37.13-.54.21-.09.03-.17.1-.23.17-.13.14-.24.3-.37.44-.18.21-.64.26-.76.06-.33-.54-.74-.84-1.41-.77-.87.08-1.76.04-2.62.15-.66.08-1.33.15-1.99.19l-2.62-1.05.45-.02c1.07-.06,2.14-.05,3.2-.18,1.85-.25,3.69-.34,5.54-.37.97-.02,1.93-.13,2.89-.32,1.43-.29,2.9-.33,4.3-.76,1.56-.06,3.06-.54,4.61-.73.42-.05.68-.35.89-.68.05-.08.1-.17.14-.26.16-.29.02-.6-.27-.6-1.85,0-3.69.08-5.53.35-.96.14-1.92.27-2.87.53-1.6.43-3.22.72-4.87.91-1.65.19-3.29.37-4.93.51-.49.04-.98.06-1.44.19-.85.26-1.72.33-2.59.36-1.66.04-3.31.08-4.96.12-.49.02-.98,0-1.46.07-1.74.27-3.49.3-5.24.43-.48.05-.97.06-1.45.16-1.25.23-2.52.29-3.78.3-2.14.02-4.28.23-6.42.2-.48,0-.96.1-1.45.13-.2.02-4.9-.58-4.9-.58l-1.77.77c-1.78.02-3.6.11-5.51.17-1.92.14-4.06.18-6.2,0-.58-.05-1.17-.08-1.75-.11-1.16-.06-2.33-.14-3.49-.06-.41.03-.71.37-.65.78.01.09.02.18.04.28.05.17-1.32-.41-1.32-.41h0ZM51.91,66.76c-.02-.17-.02-.26-.04-.36-.03-.19-.11-.42-.29-.46-.15-.04-.39.06-.51.17-.38.36-.49.82-.34,1.31.06.19.24.28.43.31.22.04.4-.02.49-.24.1-.26.19-.53.26-.74h0ZM113.93,97.82c.3-.02.58-.1.76-.33.18-.21.29-.48.45-.72.13-.2.12-.37-.09-.48-.17-.08-.37-.07-.54.02-.45.21-.72.6-.97,1-.13.21-.12.35.13.45.08.03.18.04.26.06h0ZM78.56,77.82c0-.27-.28-.5-.57-.45-.18.04-.39.06-.52.17-.29.25-.46.59-.44.99.02.32.25.54.53.48.1-.02.18-.03.27-.06.37-.14.72-.68.72-1.12h0ZM117.36,72.07c.04.4.09,1.06.15,1.71,0,.09.08.18.13.26.05-.06.12-.13.14-.19.37-1.12.26-2.24.08-3.36-.02-.08-.12-.14-.18-.21-.05.05-.12.08-.15.14-.21.45-.13.92-.16,1.66h0ZM118.26,95.89c-.1-.19-.25-.25-.46-.21-.61.11-.95.53-1.2,1.04-.13.25.04.54.34.57.29.03.57,0,.77-.21.19-.19.37-.41.5-.65.07-.14.03-.35.05-.53h0ZM81.48,79.87c.08-.3-.18-.57-.47-.57-.5-.02-.91.25-1.32.47-.18.09-.23.29-.27.46-.05.23.02.37.25.45.48.14.94.09,1.36-.14.26-.14.41-.37.45-.66h0ZM89.81,35.19c-.04-.63-.08-1.3-.14-1.97,0-.1-.04-.19-.08-.27-.16.02-.23.1-.24.19-.11,1.24-.17,2.5.05,3.74.02.08.12.15.19.2.02.02.14-.08.18-.14.28-.56,0-1.13.05-1.75h0ZM101.83,21.39c-.14-.33-.26-.69-.44-1.03-.22-.43-.52-.8-.95-1.05-.08-.04-.2-.1-.27-.07-.16.06-.23.22-.25.44-.04.39.06.75.31,1.06.3.38.67.66,1.11.86.21.1.37.04.49-.21h0ZM82.16,76.81c-.07-.46-.55-.66-.9-.44-.16.1-.34.21-.44.37-.21.33-.37.68-.54,1.03-.11.23-.05.4.18.48.09.05.19.06.28.03.39-.06.76-.21,1.04-.49.3-.27.44-.63.37-.98h0ZM115.07,33.32c0-.1,0-.19-.03-.29-.05-.21-.15-.36-.31-.4-.08-.02-.19.02-.27.06-.41.27-.73.61-1.01,1.01-.16.21-.2.59-.04.8.23.3.48.59.73.87.14.14.33.19.53.13.06-.02.12-.12.14-.2.2-.65.23-1.32.25-1.99h0ZM79.46,83.63c.13,0,.33.02.52,0,.29-.05.55-.18.7-.45.09-.17.14-.37.19-.54.07-.26-.16-.56-.45-.61-.49-.1-.97-.06-1.42.14-.27.12-.45.35-.55.64-.07.21.18.66.37.71.19.03.38.06.63.12h0ZM43.14,68.55c.02.18.03.37.05.55.04.28.25.51.55.54.27.03.55.06.83.04.35,0,.52-.24.44-.52-.2-.65-.57-1.16-1.17-1.5-.2-.1-.62.1-.64.33-.02.17-.04.37-.06.55h0ZM62.35,80.03c.25-.5.42-1.03.43-1.61,0-.19-.08-.35-.29-.43-.45-.18-.91-.18-1.38-.06-.29.07-.48.26-.56.54-.14.47-.12.95.06,1.38.06.16.24.31.4.37.47.14.93.11,1.35-.2h0ZM90.96,79.01c0-.88.02-1.74.03-2.61,0-.29-.03-.58-.06-.86,0-.1-.08-.26-.1-.26-.18.02-.33.14-.38.33-.24.93-.43,1.85-.25,2.85.14.76.08,1.54.12,2.32.02.37.07.76.13,1.15,0,.08.09.17.15.23.1.09.27,0,.29-.26.05-.96.06-1.93.08-2.89h0ZM58.78,76.58c.16-.02.35-.02.53-.05.35-.03.6-.43.54-.83-.08-.47-.22-.92-.44-1.34-.12-.25-.45-.3-.69-.09-.56.49-1.14.98-1.7,1.48-.15.14-.11.3.1.44.5.33,1.05.41,1.66.38h0ZM89.72,10.62c-.04-.2-.06-.49-.12-.77-.07-.37-.55-.67-.88-.57-.18.06-.37.08-.56.15-.63.23-1.26.49-1.88.74-.23.09-.3.25-.23.42.06.18.17.37.35.45.62.27,1.24.53,1.87.77.18.07.37.08.56.11.34.06.78-.27.82-.64.02-.18.04-.37.06-.65h0ZM41.86,67.95c0-.65.04-.95-.01-1.23-.05-.28-.19-.54-.46-.71-.16-.1-.34-.17-.53-.23-.18-.05-.38-.06-.57-.07-.42-.03-.77.24-.83.63-.11.82-.03,1.99.23,2.56.07.16.27.29.44.34.27.1.56.16.84.19.35.03.8-.35.82-.68.03-.38.06-.77.06-.8h0ZM56.52,65.52c-.04,1.24-.07,2.21-.09,3.19-.02.57-.02,1.15,0,1.74.02.17.1.36.18.53.09.2.25.3.44.33.1,0,.24.06.28,0,.13-.13.25-.29.31-.47.06-.18.07-.38.07-.58,0-.88-.02-1.74-.25-2.59-.23-.85-.26-1.72-.31-2.59-.03-.57-.02-1.15-.08-1.74-.07-.68.04-1.33.15-1.99,0-.06-.12-.17-.19-.18-.08-.02-.2,0-.27.06-.07.03-.14.13-.14.21-.16,1.44-.05,2.89-.1,4.07h0ZM11.37,66.18c.2,0,.37-.1.51-.24.4-.41.79-.84,1.23-1.21.52-.45,1.23-.52,1.81-.83.09-.04.2-.06.25-.13.13-.14.23-.29.32-.45.09-.17.07-.37.02-.56-.12-.49-.45-.65-.84-.48-.61.29-1.15.68-1.71,1.05-.71.5-1.47.88-2.3,1.15-.18.06-.25.28-.25.48.02.51.26.9.68,1.18.07.05.18.03.26.05h0ZM28.94,66.13c0-.08-.04-.56-.08-1.04-.02-.19-.02-.39-.06-.58-.03-.19-.1-.37-.14-.56-.06-.27-.46-.47-.68-.33-.24.17-.49.33-.72.49-.33.24-.51.58-.56.97-.08.59-.1,1.18.06,1.74.08.29.29.49.6.54.1.02.19.03.29.06.36.12.37.21.06.57-.3.37-.2.76.23.86.19.03.38.03.57.03.21,0,.35-.12.42-.33.2-.66.09-1.34.01-2.43h0ZM52.55,80.23c.63-.03,1.39-.06,2.16-.1.2-.02.51-.35.57-.57.12-.47.16-.93.12-1.42-.04-.47-.57-.82-1.03-.67-.18.06-.38.09-.53.2-1.11.77-2.31,1.34-3.59,1.75-.08.02-.16.11-.22.17-.06.06-.1.16-.14.24-.11.21-.02.32.26.33.76.02,1.52.04,2.42.07h0ZM8.84,60.33c.13.5.27,1.07.41,1.63.07.28.42.43.68.29,1.19-.67,2.36-1.36,3.41-2.23.08-.07.15-.13.21-.21.24-.33.34-.68.25-1.09-.09-.37-.33-.58-.58-.46-1.24.57-2.53.98-3.84,1.34-.16.05-.29.25-.41.4-.06.06-.06.17-.12.33h0ZM37.52,95c-.01-.08,0-.18-.05-.23-.05-.05-.16-.1-.23-.07-.93.23-1.84.54-2.78.71-.21.05-.39-.02-.52-.19-.28-.33-.16-.77.23-.92.9-.36,1.85-.53,2.77-.81.18-.06.33-.19.49-.3.17-.11.26-.61.14-.79-.05-.09-.14-.16-.21-.2-.18-.06-.38-.17-.54-.13-1.21.31-2.4.68-3.53,1.2-.31.16-.58.61-.56.95.02.19.02.38.06.57.12.47.26.93.41,1.38.09.29.61.49.97.37,1.08-.4,2.17-.79,3.2-1.3.08-.04.11-.14.16-.22h0ZM19.01,61.35c0-.15,0,.03.01.23,0,.09.03.18.05.28.02.1.04.19.06.29.06.35.57.53.92.32,1.07-.64,2.07-1.37,3.02-2.18.08-.06.14-.14.19-.21.25-.41.43-.86.33-1.36-.08-.37-.53-.66-.86-.56-.09.02-.2,0-.28.05-.85.45-1.74.79-2.64,1.12-.5.19-.71.61-.78,1.11-.02.19,0,.38,0,.92h0ZM37.44,65.25c-.63-.23-1.26-.44-1.93-.52-.34-.03-.76.33-.73.7.05.85.1,1.71.17,2.57.02.18.08.37.12.55.12.54.69.99,1.26.98.38,0,.75-.06,1.09-.26.18-.1.33-.22.36-.42.12-.93.12-2.33-.05-3.11-.04-.18-.19-.32-.29-.49h0ZM32.68,69.3c.14-.02.24-.03.34-.04.36,0,.68-.41.65-.8,0-.09,0-.19,0-.29-.09-1.16-.53-2.28-.59-3.44,0-.1-.02-.21-.08-.28-.12-.14-.25-.33-.41-.38-.55-.19-1.11-.33-1.68-.46-.31-.1-.74.33-.75.71-.03,1.26.05,2.52.27,3.76.04.19.14.36.2.54.12.29.38.46.66.52.47.1.96.11,1.4.15h0ZM73.01,89.78c.2.21.38.43.71.43,1.25.02,2.5-.02,3.75-.17.21-.02.52-.35.57-.58.15-.66.21-1.33.1-2.01-.01-.09-.04-.18-.08-.26-.04-.09-.09-.23-.16-.24-.18-.03-.38-.06-.55,0-.29.1-.39.41-.59.62-.21.21-.62.25-.73.03-.29-.58-.71-.87-1.37-.84-.48.02-.96,0-1.44.02-.43,0-.64.21-.55.44.3.83.27,1.7.35,2.55h0ZM52.75,90.16c.56-.02,1.14-.02,1.72-.05.3,0,.59-.29.56-.54-.1-.96-.19-1.93-.28-2.89-.02-.19-.14-.37-.34-.42-.94-.28-1.9-.33-2.87-.21-.35.04-.72.42-.73.78-.02.87-.03,1.74-.04,2.61,0,.23.31.61.51.63.48.03.96.06,1.47.09h0ZM97.58,88.07c.26.25.51.41.8.42,1.16.08,2.31.02,3.45-.18.32-.05.49-.31.58-.57.23-.64.27-1.31.17-1.98-.03-.23-.33-.6-.53-.61-1.55-.12-3.07,0-4.57.4-.26.08-.51.41-.43.65.19.64.37,1.28.54,1.87h0ZM88.77,85.9c-1.34.13-2.22-.02-3.07.2-.2.06-.37.22-.35.38.1.76.25,1.51.13,2.29-.05.31.44.72.79.72.19,0,.39.02.57-.02,1.23-.28,2.48-.37,3.72-.54.18-.02.5-.42.53-.62.1-.58,0-1.15-.07-1.73-.06-.51-.26-.71-.71-.71-.67,0-1.35.02-1.54.02h0ZM63.96,90.27c.57,0,1.15.03,1.73.05.19,0,.38-.06.58-.07.33-.02.72-.43.75-.76.07-.67.05-1.35,0-2.01-.01-.19-.35-.61-.53-.62-1.44-.14-2.88-.2-4.33-.16-.19,0-.4.03-.55.13s-.33.25-.36.41c-.17.76-.17,1.53-.11,2.3.03.33.4.65.8.67.68.02,1.35.05,2.03.06h0ZM55.35,65.78c-.06,1.15-.1,2.42-.17,3.68-.02.29-.07.58-.17.84-.11.27-.3.5-.6.58-.49.13-.96.06-1.43-.07-.33-.09-.68-.56-.64-.88.06-.48.09-.97.21-1.43.3-1.23.68-2.43.96-3.65.27-1.13.64-2.23.85-3.37.04-.24.22-.3.45-.24.18.05.33.15.36.37.07.49.12.96.16,1.44.03.4.02.78.02,1.17v1.55h0ZM113.43,84.44c-1.47,0-2.89.29-4.31.63-.16.03-.35.23-.39.4-.16.65-.18,1.34-.1,2.01.02.19.37.6.54.64.48.13.96.17,1.44.12,1.25-.13,2.5-.29,3.75-.44.21-.03.54-.37.58-.58.12-.68.24-1.34.35-2.01.02-.1-.02-.19-.06-.29-.06-.17-.18-.36-.38-.39-.48-.06-.96-.07-1.44-.1h0ZM39.29,92.31c.08-.05.17-.1.25-.14.36-.21.71-.23,1.06.04.16.12.35.26.52.25.71-.08,1.33.18,1.96.42.18.07.38.1.57.11,1.07.06,2.15.16,3.2-.06,1.06-.21,2.12-.21,3.19-.22,2.53-.02,5.05-.05,7.56-.36.08-.02.14-.07.22-.1-.13-.17-.3-.22-.5-.26q-2.2-.47-4.32-.52c-.97-.02-1.94-.06-2.91,0-1.46.09-2.91-.17-4.37.06-1.83-.21-3.69-.1-5.51-.45-.28-.05-.58,0-.86.1-.26.09-.45.41-.37.69.04.2.15.35.31.45h0ZM106.27,28.88c-.16-.16-.38-.35-.6-.54-.17-.16-.34-.21-.47-.11-.07.06-.13.17-.13.26,0,.49.02.97.02,1.45-.02.87-.04,1.74-.06,2.61,0,.29.01.58.07.86.06.28.18.54.45.72.99.66,2.09,1,3.27,1.02.7.02,1.32-.29,1.81-.8.11-.1.15-.35.13-.52-.02-.18-.14-.37-.26-.5-.64-.73-1.32-1.42-1.94-2.16-.68-.83-1.42-1.58-2.29-2.3h0ZM121.41,85.17c0,.14.04.53.07.92.02.25.33.55.57.54.48-.02.98.02,1.44-.08,1.14-.22,2.26-.48,3.41-.64.66-.09,1.32-.29,1.97-.49.55-.17,1.08-.4,1.62-.61.29-.11.45-.34.6-.6.09-.17.14-.36.19-.55.15-.56-.14-.98-.65-1.02-.98-.06-1.93.02-2.89.18-.95.17-1.89.37-2.82.61-.57.14-1.13.25-1.72.26-.38.02-.76.08-1.15.12-.37.04-.63.38-.64.82v.53h0ZM112.54,75.69c.75-.07,1.33-.12,1.91-.18.3-.02.75-.44.81-.76.07-.37.16-.76.2-1.14.12-1.36.15-2.71.51-4.04.03-.09-.02-.2-.01-.29,0-.21-.3-.59-.52-.63-.9-.12-1.72-.14-3.19-.03-.23,0-.63.31-.64.49-.05.97-.27,1.9-.52,2.86-.25.93-.53,1.87-.75,2.8-.08.37.23.76.62.8.58.06,1.15.1,1.58.12h0ZM73.73,82.92c-.56-.12-1.13-.24-1.7-.37-.49-.11-.9-.35-1.31-.63-.33-.23-.62-.53-.68-.91-.08-.6-.41-1.09-.61-1.63-.15-.37-.12-.76.12-1.11.11-.15.25-.3.41-.4.84-.49,1.66-1.04,2.55-1.41.89-.38,1.82-.7,2.79-.81.19-.02.4-.04.58.02.16.06.29.21.41.35.05.05.02.18,0,.28-.12.98-.47,1.89-.84,2.78-.07.18-.2.34-.32.49-.27.32-.37.68-.35,1.09.02.6-.19,1.15-.43,1.67-.13.26-.33.49-.62.6h0ZM106.65,70.22c-.79.07-1.6.68-2.55.91-.29.06-.49.33-.57.61-.29,1.03-.65,2.03-.98,3.05-.09.27-.16.55-.25.83-.06.21.24.61.47.59,1.55-.08,3.1-.17,4.65-.27.09,0,.18-.06.26-.11.08-.06.16-.11.21-.19.64-.88,1.02-1.87,1.42-2.87.36-.91.54-1.85.65-2.82.02-.22-.39-.58-.6-.53-.84.25-1.68.49-2.71.8h0ZM39.16,84.56c-.68-.07-1.36-.1-2.04.02-.24.05-.43.44-.29.67.34.59.67,1.19,1.03,1.76.41.67.5,1.47.95,2.12.18.25.43.41.71.45.96.15,1.92.29,2.88.39.58.06,1.16.1,1.75,0,.34-.04.73-.45.7-.8-.1-1.16-.02-2.34-.21-3.49-.04-.21-.34-.54-.57-.58-1.63-.26-3.25-.57-4.9-.56h0ZM49.82,62.17c.53,0,.86.42.72.95-.29,1.12-.63,2.24-.88,3.37-.25,1.14-.8,2.16-1.16,3.26-.09.25-.49.33-.73.18-.33-.21-.63-.45-.86-.76-.06-.08-.12-.15-.16-.25-.86-1.96-2.42-3.22-4.21-4.25-.18-.1-.31-.24-.37-.44-.01-.05.06-.15.12-.19.5-.31,1.07-.44,1.61-.64,1.27-.47,2.63-.6,3.91-1.07.26-.1.57-.13.85-.14.39-.02.77-.02,1.16-.02h0ZM85.52,91.12c.18.08.35.18.53.22.29.04.58.05.88.06,2.92.04,5.83-.1,8.75-.17.39-.02.78-.02,1.16-.08,1.45-.25,2.91-.24,4.36-.3,2.72-.1,5.45-.09,8.16-.49.48-.07.97-.06,1.46-.08.78-.03,1.56-.07,2.33-.11.68-.03,1.35-.13,2.02-.3.46-.13.95-.23,1.42-.26,1.75-.09,3.47-.51,5.23-.51.29,0,.58-.06.87-.1,1.54-.21,3.08-.45,4.62-.59.8-.07,1.51-.37,2.18-.79.15-.08.24-.29.33-.45.03-.05,0-.17-.04-.21-.06-.06-.16-.13-.25-.14-.71-.09-1.31.33-1.99.41-.97.11-1.93.22-2.86.53-.37.11-.76.17-1.15.17-.98,0-1.93.19-2.88.42-.57.13-1.15.22-1.72.33-.9.5-1.87.44-2.85.42-1.07,0-2.15,0-3.2.19-1.35.25-2.71.25-4.07.29-2.43.06-4.86.09-7.3.14-.39,0-.78,0-1.16.07-1.34.26-2.71.3-4.06.46-.78.1-1.55.11-2.33.02-.39-.06-.79.03-1.13.23-.47.27-.9.23-1.37,0-.35-.19-.74-.21-1.13-.18-1.46.09-2.88.49-4.34.56-.09,0-.18.06-.27.1-.08.04-.15.1-.22.16h0ZM83.59,30.21c.64,0,1.22.06,1.76.29.17.09.27.25.31.45.02.1,0,.2-.03.29-.54,1.55-1.03,3.13-1.67,4.65-.13.32-.58.61-.92.58-.77-.08-1.55-.13-2.31-.26-.86-.14-1.72-.3-2.56-.53-.94-.25-1.89-.39-2.85-.57-.29-.06-.37-.29-.25-.68.03-.1.08-.18.09-.27.21-1.05.91-1.7,1.79-2.17,1.29-.68,2.62-1.24,4.08-1.46.86-.13,1.7-.4,2.53-.31h0ZM92.16,79.13c0,.45,0,1.21,0,1.99,0,.29.06.57.09.86.03.34.45.67.8.68,1.06.05,2.11-.17,3.16-.25.29,0,.56-.15.82-.26,1.01-.42,1.8-1.12,2.42-2.01.32-.46.57-1,.78-1.54.15-.36.17-.75.1-1.14-.05-.3-.2-.54-.46-.69-.16-.1-.33-.21-.51-.26-1.57-.47-3.14-.95-4.72-1.38-.46-.14-.96-.14-1.44-.16-.18,0-.39.07-.54.18-.14.1-.27.3-.29.48-.09,1.05-.14,2.12-.23,3.5h0ZM88.65,79.13c0-.65.02-1.03,0-1.42-.04-.88.09-1.74-.04-2.61-.03-.21-.35-.52-.58-.56-1.06-.16-2.12-.06-3.17.07-.3.04-.55.24-.65.51-.42,1.18-.86,2.36-1.17,3.57-.1.37-.16.76-.21,1.14-.03.29.03.57.16.84.33.72.34.8-.19,1.2-.43.33-.58.73-.57,1.24,0,.23.26.6.47.65,2.9.64,2.01.62,4.5-.14.19-.06.37-.13.54-.21.17-.09.35-.18.48-.32.13-.13.29-.31.29-.47.07-1.26.11-2.51.15-3.5h0ZM87.1,98.7l4.51-1.26,1.38-.37c-.65.07-1.31.1-1.97.16-1.26.11-2.52.23-3.78.32-.97.07-1.94.08-2.91.13-.49.02-.96-.19-1.45-.08-1.34.29-2.71.21-4.05.51-.56.13-1.15.21-1.73.26l-.36.03,2.16.95c1.54-.33,3.1-.41,4.65-.46,1.19-.04,2.37-.06,3.55-.19h0ZM70.62,48.71c-.06-.71-.15-1.58-.39-2.42-.4-1.41-.79-2.8-1.2-4.19-.41-1.4-.94-2.75-1.39-4.15-.37-1.13-.98-2.11-1.7-3.02-.17-.22-.46-.34-.72-.48-.17-.09-.37-.14-.56-.17-.79-.06-1.52-.29-2.21-.68-.78-.15-1.41-.61-2.03-1.1-.15-.12-.34-.11-.54,0-.16.09-.33.21-.48.31-.43.29-.64.72-.71,1.23-.02.19-.02.38-.02.58-.03,1.07.16,2.12.22,3.19,0,.17.14.37.26.5.46.49.93,1,1.42,1.46,2.78,2.71,5.56,5.43,8.07,8.4.38.45.78.88,1.19,1.29.12.12.35.13.53.18.09-.16.19-.32.25-.49.03-.09,0-.2,0-.45h0ZM57.26,81.51c-1.9-.02-3.65-.05-5.41-.07-1.65-.02-3.31.06-4.96-.06-.59-.04-1.17.06-1.72.27-1.73.67-3.54,1.04-5.4,1.15-.09,0-.18.08-.26.12.06.04.12.12.19.13.77.08,1.54.17,2.32.21.88.05,1.71.37,2.59.47.19,0,.38.04.58.06.97.08,1.94.17,2.9.34.57.11,1.16.13,1.74.17,1.55.09,3.11.12,4.65.42.57.1,1.16.09,1.75.13.48.03.97,0,1.45.06,1.07.12,2.13.17,3.2.13.58-.03,1.18-.03,1.75.09,1.25.25,2.52.24,3.77.33,1.38.09,5.6.02,7-.07.29-.02.36-.14.22-.39-.09-.17-.2-.34-.39-.4-1.02-.29-2.04-.63-3.09-.83-.8-.17-1.4-.65-1.85-1.34-.1-.17-.18-.34-.29-.5-.23-.34-.58-.55-.97-.56-.97,0-1.95,0-2.92.07-2.33.16-4.66.28-6.84.06h0ZM70.72,34.07c.86.03,1.4-.12,1.85-.57.89-.88,1.8-1.76,2.69-2.65.2-.2.37-.45.5-.71.82-1.55,1.42-3.19,2.03-4.82.31-.84.35-1.71.56-2.55.07-.29.16-.57.19-.85.08-.57.14-1.15.2-1.74.02-.19.02-.39-.02-.58-.04-.17-.1-.42-.23-.5-.13-.07-.4-.02-.54.08-.56.39-1.03.89-1.62,1.23-.94.54-1.75,1.22-2.57,1.89-1.95,1.6-3.94,3.14-6.04,4.54-3.75,2.5-3.72,2.53-6.08,4.49-.06.05-.11.17-.09.23.05.21.19.35.38.41.27.09.55.17.84.25.84.19,1.69.44,2.56.54.97.13,1.87.51,2.83.67.58.1,1.12.31,1.68.48.37.1.76.14.89.16h0ZM50.16,98.95l4.15,1.1,5.52-.27,1.15-.49c-1.23.14-2.46.06-3.68.14-.96.07-1.94.03-2.91-.19-.37-.09-.77-.11-1.16-.11-1.03,0-2.05-.12-3.08-.17h0ZM58.86,65.41c.06,1.44.12,2.7.18,3.96.03.58.13,1.16.33,1.71.1.26.26.51.54.64.26.13.53.24.79.36.29.13.45.36.51.65.1.47.16.95.27,1.42.14.61.55,1.02,1.09,1.27.52.26,1.07.48,1.65.53,1.06.09,2.12.25,3.19.15.43-.04.71-.26.9-.63.09-.18.2-.34.25-.52.22-.74.5-1.48.63-2.24.2-1.25.56-2.45.77-3.7.37-2.2.55-4.41.69-6.63.02-.19-.02-.39-.02-.58,0-.32-.27-.6-.51-.51-.76.29-1.5.33-2.28.06-.55-.19-1.12-.27-1.71-.29-1.45-.06-2.91-.07-4.34-.37-.78-.16-1.54,0-2.28.22-.21.06-.56.41-.58.58-.09,1.36-.1,2.71-.08,3.89h0ZM59.49,93.37c.82.1,1.58.22,2.36.29,1.56.13,3.12.1,4.66-.21.68-.13,1.35-.2,2.03-.2,1.56,0,3.12-.02,4.67-.05.88,0,1.75-.04,2.63-.06.97-.03,1.95-.06,2.92-.1.39,0,.78,0,1.16-.04,3.39-.46,6.8-.32,10.2-.38,2.82-.06,5.64-.1,8.45-.41.58-.06,1.16-.07,1.75-.09,2.72-.09,5.44-.19,8.16-.45,1.84-.17,3.69-.21,5.54-.21.49,0,.96-.09,1.4-.32.35-.18.74-.25,1.13-.3.77-.06,1.55-.14,2.33-.17,1.26-.06,2.52-.13,3.76-.39.67-.14,1.35-.14,2.03-.06.18.02.33.15.5.23-.17.07-.34.19-.53.21-.38.07-.77.09-1.16.13-.29.03-.6.02-.87.11-1.5.51-3.06.49-4.62.61-1.74.14-3.49.28-5.24.37-.29.02-.6.05-.84.18-.8.42-1.7.42-2.53.69-.75.25-1.52.28-2.29.41-1.44.25-2.88.41-4.34.52-.29.02-.59.02-.87.1-2,.52-4.05.49-6.09.61-1.17.07-2.33.04-3.49.24-.66.12-1.36.07-2.04.1-1.85.07-3.69.07-5.52.45-.48.09-.97.09-1.46.1-3.01.13-6.02.29-9.05.32-.58,0-1.17.04-1.74.13-1.26.19-2.52.24-3.79.18-2.63-.13-5.25.09-7.88.18-.39.02-.77.06-1.16.13-.39.07-.77.06-1.16.04-1.26-.06-2.53-.06-3.79-.21-.68-.07-1.36-.12-2.04-.11-2.15.03-4.27-.28-6.39-.53-.1,0-.19-.04-.28-.08-.19-.1-.28-.26-.33-.44-.07-.24-.02-.39.21-.48.18-.06.36-.17.54-.18.87-.1,1.74-.2,2.61-.28.58-.05,1.17-.1,1.75-.08,2.63.08,5.25-.1,7.86-.46.29-.04.58-.06.83-.09h0ZM104.49,83.69c.68.04,1.36.06,2.04.04,1.07-.03,2.13-.1,3.2-.14,1.73-.34,3.48-.36,5.22-.42,1.17-.04,2.33-.03,3.48-.33.37-.1.77-.1,1.16-.12,2.62-.16,5.23-.45,7.77-1.11.28-.07.57-.13.86-.14,1.17-.06,2.26-.5,3.41-.7.08,0,.16-.11.21-.19.21-.34.28-.72.15-1.11-.07-.18-.18-.34-.29-.5-.24-.38-.18-.74.06-1.07.16-.24.38-.45.52-.7.26-.45.25-.93.08-1.41-.08-.22-.46-.49-.68-.47-.67.07-1.35.15-2.02.2-1.55.1-3.1.15-4.66.25-.49.02-.96.1-1.44.16-.58.08-1.15.15-1.74.23-.77.09-1.54.16-2.31.27-.87.13-1.71.34-2.43.91-.23.17-.54.18-.83.13-.1-.02-.2-.02-.28-.06-.82-.43-1.66-.45-2.55-.24-.46.1-.96.12-1.44.13-1.56.07-3.11.13-4.66.18-1.27.02-2.51.22-3.75.48-.3.06-.59.25-.66.52-.35,1.34-1.04,2.51-1.74,3.68-.2.33-.48.6-.8.82-.17.11-.34.19-.51.29-.19.11-.29.25-.26.42.02.06.16.1.25.13.57.12,1.15.09,1.73.06.97-.05,1.95-.11,2.91-.16h0ZM42.07,43.71c0-.92.02-2.37,0-3.83-.02-.88.02-1.75-.15-2.62-.02-.09-.07-.19-.14-.25-.04-.04-.14-.05-.2-.03-.08.05-.16.12-.21.19-.49.84-.78,1.78-1.15,2.68-1.09,2.71-2.39,5.31-3.97,7.77-1.53,2.36-3.07,4.73-4.5,7.16-.54.91-1.11,1.83-1.84,2.62-1.01,1.07-1.77,2.31-2.54,3.55-.18.3.06.83.39.95.47.16.96.18,1.43.18,1.77,0,3.47.44,5.17.81.28.06.55.2.83.27.75.21,1.52.29,2.31.18.41-.05.72-.26.89-.64.19-.45.39-.89.55-1.34,1.03-2.91,1.29-3.94,2.46-8.38.28-1.05.44-2.09.47-3.16.05-1.85.11-3.69.19-6.09h0ZM133.12,59.32c0,.72,0,.92,0,1.11.07,2.24-.05,4.46-.56,6.66-.07.29-.07.59-.14.87-.09.38-.21.76-.3,1.13-.17.68-.53,1.25-.95,1.79-.18.23-.41.45-.7.48-.16.02-.37-.12-.51-.25-.59-.52-1.17-1.03-1.91-1.32-.72-.29-1.44-.59-2.24-.6-.49-.02-.96-.11-1.43-.27-.46-.16-.95-.21-1.43-.21-.97,0-1.95-.02-2.92-.05-.39,0-.74.36-.76.72-.12,1.56.3,3.1.12,4.67,0,.09.05.18.06.28.02.21.41.55.62.52.97-.09,1.9-.41,2.88-.4.49.02.97,0,1.46,0,1.56-.02,3.12,0,4.63-.45.27-.09.58-.08.87-.1.49-.04.97-.06,1.46-.09.39-.02.76-.14,1.13-.28.72-.28,1.44-.56,2.04-1.11.29-.26.63-.45.94-.68,3.29-2.42,6.7-4.69,9.83-7.33.14-.13.3-.24.46-.36,2.01-1.54,4.01-3.08,6.02-4.62.15-.11.26-.28.4-.41.16-.17.08-.65-.12-.78-.97-.64-2.01-1.18-2.99-1.81-1.06-.68-2.19-1.27-3.31-1.85-1.13-.57-2.22-1.21-3.29-1.89-1.48-.92-2.95-1.88-4.53-2.66-.43-.21-.83-.5-1.23-.76-.65-.42-1.31-.85-1.96-1.27-.57-.37-1.09-.81-1.72-1.11-.96-.45-1.91-.93-2.87-1.41-.25-.12-.56.12-.56.42,0,.29.06.58.18.84.62,1.32,1.18,2.67,1.71,4.04.43,1.08.84,2.17,1.17,3.29.22.76.39,1.51.4,2.29.02,1.17.05,2.34.06,2.98h0ZM86.7,39.02c.29-.05.57-.11.86-.16.91-.14,1.73.14,2.52.57.17.1.31.23.44.38.19.22.37.45.52.71,1.06,1.77,1.66,3.72,2.11,5.72.11.47.13.96.15,1.46.06,1.07.08,2.13.13,3.2,0,.1.06.21.13.26.1.07.25-.02.32-.26.15-.56.17-1.15.37-1.7.26-.76.21-1.54.09-2.32-.02-.09-.04-.19-.06-.29-.27-2.14-.95-4.16-1.7-6.17-.07-.21.02-.4.27-.42,1.18-.12,2.32.02,3.42.49.48.21.82.57.96,1.04.41,1.3.75,2.62.74,4-.02,1.76.02,3.51.02,5.26,0,.48-.13.96-.18,1.44,0,.07.08.19.15.22.19.08.4.02.46-.17.23-.74.44-1.49.64-2.24.07-.28.1-.57.12-.86.08-1.56,0-3.12-.07-4.68-.03-.59-.22-1.14-.34-1.71-.08-.39-.15-.77-.05-1.16.04-.15.21-.37.35-.4.49-.12.96-.02,1.4.23.09.05.19.09.24.16.33.48.54,1.03,1.11,1.32.15.08.24.3.3.49.29.93.47,1.88.5,2.87.03,1.16.07,2.33.13,3.49.01.26.15.37.3.33.08-.03.2-.09.23-.15.32-.72.53-1.46.53-2.26,0-1.17-.02-2.33-.29-3.49-.09-.37-.1-.77-.15-1.15-.05-.32.21-.77.65-.8.19,0,.38-.06.58-.09.31-.03.8.37.83.68.03.28.07.57.1.87.12,1.16.22,2.32.37,3.48.18,1.35.24,2.72.33,4.08.06.68.06,1.36.11,2.04.06.78.23,1.55.22,2.33,0,.76-.19,1.54-.25,2.32-.07.87-.12,1.74-.12,2.62.02,1.57-.07,3.12-.49,4.63-.1,1.08-.44,2.09-.69,3.14-.14.6-.5,1.04-1,1.37-.08.06-.17.1-.26.14-.8.47-.83.34-1.24,1.51-.32.92-.67,1.83-1.01,2.74-.06.18-.17.35-.25.53-.14.28-.7.46-1.03.31-.33-.15-.5-.38-.49-.64.02-.79.18-1.54.42-2.28.35-1.03.46-2.09.36-3.17-.02-.2-.08-.38-.23-.52-.06-.05-.14-.1-.2-.09-.09.02-.21.08-.24.16-.35.9-.5,1.86-.62,2.83-.12.88-.38,1.7-.67,2.54-.12.34-.53.63-.89.6-.6-.04-1.16-.18-1.62-.58-.13-.13-.21-.33-.25-.51-.04-.18-.03-.39,0-.58.1-.47.28-.93.33-1.42.17-1.45.41-2.89.54-4.34.01-.21-.1-.37-.27-.49-.19-.13-.6.12-.66.4-.02.09-.06.18-.08.28-.33,1.72-.69,3.43-.76,5.2,0,.18-.1.37-.18.54-.07.19-.22.31-.42.37-.58.14-1.15.09-1.7-.16-.21-.1-.26-.25-.27-.47,0-.5.25-.93.33-1.41.09-.49.15-.96.03-1.45-.02-.09-.09-.18-.16-.25-.14-.1-.32-.1-.51.02-.18.1-.29.27-.34.46-.27.93-.54,1.86-.82,2.79-.16.11-.31.28-.48.3-.57.09-1.16.05-1.74-.05-.18-.02-.49-.48-.44-.68.09-.48.21-.95.29-1.42.03-.19,0-.39-.03-.57-.05-.21-.21-.32-.39-.36-.21-.05-.39.02-.47.23-.27.73-.53,1.46-.8,2.2-.15.41-.51.55-.9.64-.1.02-.19.02-.29.03-.62.03-.96-.23-.98-.79-.02-.47.12-.97-.14-1.42-.04-.06-.13-.14-.19-.14-.09,0-.2.06-.25.14-.41.56-.61,1.21-.88,1.83-.12.25-.73.48-1.04.34-.16-.06-.33-.22-.4-.38-.12-.25-.16-.56-.23-.83-.07-.25-.21-.33-.45-.23-.08.03-.18.06-.25.11-.31.26-.39.67-.6.99-.17.25-.39.45-.68.53-.47.13-.93.3-1.42.3-.25,0-.51-.28-.53-.57-.03-.49.08-.97.22-1.43.24-.75.33-1.52.31-2.3,0-.18-.15-.33-.23-.5-.2.03-.38.1-.5.25-.12.16-.25.32-.29.5-.21,1.15-.52,2.28-.8,3.41-.17.72-.6,1.23-1.35,1.36-.77.12-1.53.27-2.27.53-.29.1-.63-.17-.58-.45.16-.86.33-1.72.33-2.6,0-.29-.04-.58-.1-.87-.06-.25-.21-.32-.36-.23-.08.06-.19.11-.21.19-.25,1.04-.61,2.04-.76,3.11-.07.48-.29.93-.63,1.3-.25-.05-.33-.14-.33-.23,0-.29,0-.58.08-.86.14-.57.35-1.11.5-1.67.29-1.14.61-2.25.58-3.44-.01-.49.05-.98.16-1.45.29-1.15.37-2.3.39-3.47,0-.49.06-.98.12-1.46.34-2.61.51-5.23.52-7.86,0-1.07-.06-2.14-.06-3.21,0-1.71-.86-5.99-1.23-7.78-.81-2.49-1.4-5.06-2.67-7.39-.09-.17-.1-.37-.16-.57-.07-.25.2-.56.47-.55.6,0,1.15.19,1.62.55.16.12.31.27.38.44.48,1.16,1.02,2.32,1.4,3.52.78,2.4,1.57,4.81,2.09,7.29.14.67.29,1.33.37,2.01.03.29.04.59.11.87.56,2,.47,4.06.47,6.1,0,1.26-.1,2.52-.44,3.76-.16.56-.25,1.14-.36,1.71-.05.21.07.34.27.33.1,0,.22-.06.25-.13.64-1.42.89-2.27.96-3.33.06-1.16.09-2.33.33-3.48.1-.48.08-.97-.06-1.45-.18-.66-.26-1.33-.25-2.01.02-1.17-.14-2.33-.41-3.47-.73-3.23-1.53-6.44-2.62-9.57-.16-.45-.29-.92-.44-1.38-.07-.25.2-.62.43-.61.1.02.2,0,.29,0,.78.11,1.51.37,2.24.65.16.06.31.23.41.39.16.24.29.5.41.77.81,1.77,1.29,3.66,1.7,5.57.02.09.04.18.05.28.22,2.71.67,5.4.69,8.15,0,1.26.04,2.52.09,3.8,0,.22.16.37.29.34.08-.02.16-.13.18-.21.07-.29.15-.57.18-.86.09-.77.2-1.54.21-2.32.02-.68-.11-1.35-.14-2.03-.06-1.17-.08-2.34-.13-3.5-.04-1.08-.08-2.14-.37-3.19-.06-.18-.08-.37-.1-.57-.13-1.66-.59-3.25-1.13-4.81-.09-.28-.1-.57-.1-.87,0-.17.15-.38.35-.41.78-.1,1.56-.04,2.3.2.27.07.5.27.66.53.68,1.09.98,2.33,1.25,3.57.56,2.55.54,2.55.61,5.49,0,.29-.02.59.15.84.03.06.12.1.18.09.09-.02.21-.06.25-.13.29-.52.51-1.05.51-1.66,0-.78-.06-1.55-.18-2.32-.28-1.83-.62-3.64-1.13-5.43-.08-.3.16-.57.48-.53.1.02.19-.02.29.02.38.09.75.19,1.12.31.3.08.53.28.57.58.04.3.11.57.31.78.26.29.6.53.8.85.55.91.99,1.89,1.27,2.93.44,1.62.64,3.25.67,4.91.02,1.36,0,2.72.02,4.08,0,.09.05.21.12.25.1.08.29,0,.37-.22.15-.36.25-.75.37-1.11.13-.37.21-.76.22-1.14.04-1.66.04-3.32-.31-4.95-.1-.47-.17-.96-.23-1.44-.06-.49-.19-.95-.37-1.41-.42-1.09-.89-2.16-1.47-3.17-.09-.16-.1-.36-.14-.57h0ZM130.73,67.95c-.02.19-.03.37-.06.56-.02.1-.08.18-.11.27-.38-.21-.19-.45-.02-.67.05-.06.17-.07.26-.11-.03-.19-.04-.39-.08-.57-.07-.36-.25-.43-.6-.27-.45.21-.82.02-.81-.4,0-.29.02-.59.03-.87.02-.6-.1-1.17-.32-1.71-.09-.22-.25-.27-.47-.22-.19.05-.41.14-.41.34-.04,1.06-.04,2.13-.06,3.19,0,.29-.25.51-.58.54-.3.02-.58,0-.84-.17-.26-.15-.43-.37-.48-.68-.16-.96.02-1.94-.1-2.91-.02-.18-.11-.36-.17-.54-.09-.21-.24-.28-.48-.22-.18.04-.35.15-.37.37-.09.97-.14,1.93-.21,2.91-.02.23-.35.52-.59.55-.39.06-.78.05-1.16-.03-.18-.03-.38-.12-.52-.25-.21-.18-.37-.44-.57-.65-.16-.18-.34-.21-.5-.07-.22.18-.45.37-.65.59-.29.29-.65.37-1.06.33-.33-.03-.53-.21-.67-.48-.18-.34-.18-.76-.45-1.07-.19-.21-.61-.27-.73-.04-.14.25-.24.53-.39.78-.15.26-.4.46-.68.5-.58.09-1.16.11-1.74.16-.36.03-.79-.33-.82-.68-.04-.39-.04-.77-.08-1.16-.03-.28-.08-.57-.14-.84-.06-.23-.21-.32-.44-.32-.19,0-.37.06-.41.29-.11.57-.17,1.15-.26,1.72-.08.55-.45.86-.94,1-.46.14-.95.22-1.42.32-.09.02-.19-.02-.29,0-.25.02-.58-.28-.56-.53.02-.29,0-.59.09-.86.18-.65.36-1.32.41-2,.02-.3.02-.58-.02-.87-.04-.24-.2-.33-.38-.29-.1.02-.22.02-.28.08-.21.21-.36.47-.4.76-.15,1.17-.51,2.28-.78,3.41-.04.19-.11.37-.17.57-.17.59-.68.9-1.34.83-.32-.03-.55-.31-.49-.59.18-.95.3-1.93.56-2.86.32-1.15.41-2.3.45-3.46.02-.59.02-1.17.05-1.75.02-.49.04-.98.14-1.45.34-1.65.27-3.3.07-4.94-.1-.77-.18-1.54-.19-2.32-.03-1.75-.15-3.5-.47-5.23-.15-.76-.21-1.54-.21-2.32,0-1.28-.41-2.49-.56-3.75-.12-.88-.54-1.66-.79-2.5-.06-.18-.18-.35-.25-.53-.13-.29-.5-.46-.71-.32-.17.11-.25.26-.25.47,0,.59.06,1.17.27,1.72.14.37.24.73.36,1.11.11.37-.26.76-.67.71-.1,0-.19-.03-.28-.05-.29-.06-.56-.32-.59-.57-.02-.39-.02-.78-.07-1.15-.03-.17-.15-.35-.27-.48-.11-.11-.63.17-.72.37-.1.27-.19.56-.3.83-.07.18-.53.41-.73.39-.19-.02-.39,0-.58-.05-.57-.12-1.14-.25-1.71-.37-1.42-.3-2.81-.79-4.29-.8-.86-.17-1.71-.35-2.57-.54-.39-.08-.83-.61-.89-1.06-.2-1.74-.29-3.49-.14-5.25.02-.23.42-.5.64-.45,1.25.28,2.38.84,3.4,1.6,1.17.88,2.31,1.78,3.18,2.98.57.8,1.25,1.5,1.97,2.13.16.14.35.16.55.09.31-.11.48-.41.37-.67-.12-.26-.21-.56-.39-.78-.48-.61-1.01-1.19-1.51-1.78-.89-1.05-1.91-1.93-3.02-2.75-1.43-1.05-3.01-1.78-4.68-2.32-.28-.09-.51-.28-.7-.5-.25-.29-.41-.68-.77-.85-.35-.17-.71-.3-1.01-.55-.26-.2-.57-.15-.77.06-.14.15-.23.32-.36.46-.2.22-.43.37-.74.41-1.46.12-2.92,0-4.38,0-.68-.02-1.35.05-2.02.25-.84.25-1.69.45-2.53.67-.21.05-.39,0-.49-.22-.04-.06-.04-.18,0-.27.16-.45.32-.91.49-1.37,1.03-2.65,1.46-4.66,1.68-7.35.19-2.25.11-4.47-.4-6.67-.09-.38-.14-.78-.13-1.16.02-.89-.14-1.75-.35-2.59-.05-.19.08-.35.28-.41.09-.02.21-.04.28,0,.27.13.52.27.77.42.27.14.47.38.53.67.21,1.05.42,2.1.53,3.16.09.87.02,1.75-.12,2.62-.19,1.15-.38,2.31-.27,3.48.02.25.18.34.35.3.09-.02.23-.03.27-.1.15-.24.31-.49.41-.76.09-.27.13-.57.14-.86.05-.78.09-1.56.1-2.33.02-1.46.02-2.92.05-4.38,0-.18.08-.43.21-.53.24-.16.55-.21.83-.07.26.14.47.32.56.63.1.38.25.75.62.95.29.15.45.39.51.67.14.67.24,1.34.35,2.01.08.49.08.97-.02,1.45-.13.68-.22,1.35-.33,2.02q-.04.24.24.8c.54-.15.78-.59.89-1.06.13-.57.21-1.15.23-1.73.03-1.07,0-2.14,0-3.21,0-.21.04-.39.13-.57.09-.18.22-.29.45-.29.76,0,1.43.44,1.59,1.02.34,1.23.58,2.47.53,3.75-.02.58-.1,1.16.03,1.74.06.24.21.33.39.27.09-.02.22-.03.26-.1.28-.41.4-.88.43-1.37.09-1.07.07-2.14-.09-3.21-.03-.21-.04-.39.06-.55.04-.07.14-.16.21-.16.23,0,1.6.47,2.16.73.08.04.11.15.16.24.13-.04.33-.06.51-.02.18.05.38.1.53.21.98.74,1.57,1.72,1.69,2.94.05.49.07.98.13,1.46.03.23.18.34.36.36.09,0,.21,0,.27-.06.15-.13.27-.29.41-.41.5-.45.51-.37.95.05.5.47.91,1.01,1.25,1.6.21.35.52.59.9.71.47.15.88.41,1.27.69.63.46,1.23.97,1.72,1.58.19.21.37.47.43.75.57,2.41.71,4.45.51,6.95-.02.37-.36.72-.74.77-.29.03-.59.02-.87.08-.2.04-.31.21-.39.38-.1.2-.1.38.06.54.14.14.25.31.42.39.61.31,1.19.64,1.64,1.17.18.21.49.3.8.25.49-.09.97-.02,1.4.25.25.16.49.34.59.62.37,1,.73,2.01,1.09,3.02.06.17.11.37.15.56.17.86.36,1.71.51,2.58.09.57.13,1.16.15,1.75.06,1.54.33,3.09.63,4.62.02.07.12.15.19.2.14.09.31.02.37-.23.08-.27.14-.57.13-.86-.06-1.56-.1-3.12-.25-4.66-.15-1.56-.4-3.1-.84-4.59-.11-.37-.15-.76-.22-1.15-.04-.21,0-.4.15-.53.13-.11.31-.12.52-.04.18.08.34.19.52.27.27.13.51.3.64.57.53,1.04,1.03,2.08,1.34,3.22.12.47.28.93.33,1.42.06.49.1.97.22,1.44.26.95.33,1.93.37,2.89.07,1.56.31,3.1.53,4.64.02.06.14.12.21.18.16.13.29.07.39-.18.07-.18.16-.37.15-.55-.06-2.44-.08-4.86-.51-7.27-.21-1.15-.31-2.32-.6-3.45-.09-.37-.04-.77-.05-1.16,0-.23.42-.47.67-.38.46.15.92.33,1.3.64.6.49,1.19,1,1.77,1.5.42.78.74,1.58.82,2.48.03.38.1.77.2,1.15.22.86.29,1.73.3,2.6.06,2.04.02,4.09-.09,6.14-.04.68-.18,1.35-.26,2.02,0,.08.04.17.1.25.12.17.27.14.46-.03.15-.14.27-.29.31-.49.28-1.53.52-3.06.57-4.62.02-.58.03-1.18.05-1.76.04-.97,0-1.94-.15-2.9-.08-.48-.17-.97-.18-1.45-.02-1.09-.4-2.1-.61-3.14-.05-.22.02-.4.2-.53.15-.1.34-.13.53-.06.37.13.74.25,1.09.43.16.08.33.25.36.42.14.58.35,1.11.7,1.59.23.31.34.69.41,1.08.58,3.05.61,3.37.53,6.38-.02.78-.06,1.56-.18,2.33-.16,1.06-.24,2.12-.19,3.2,0,.09.05.21.11.27.09.09.27.02.35-.21.42-1.2.68-2.43.71-3.71.04-1.46.18-2.92.16-4.38-.03-1.74-.08-3.5-.66-5.18-.06-.18-.04-.38-.05-.57-.02-.26.35-.57.58-.49,1.47.49,2.88,1.13,4.24,1.89.24.14.51.25.61.54.06.17-.49.5-.96.54-.08.02-.2,0-.25-.06-.14-.13-.23-.31-.37-.44-.14-.13-.3-.24-.47-.33-.25-.15-.62-.07-.79.15-.1.14-.11.33.03.52.49.61.82,1.31,1.05,2.06.11.37.23.75.29,1.13.08.57.07,1.17.19,1.74.29,1.34.29,2.7.06,4.05-.03.21.05.4.23.51.2.13.59-.12.64-.38.02-.1.06-.19.08-.29s.05-.19.06-.29c.2-2.04.13-4.08-.18-6.1-.04-.28-.22-.53-.13-.84,1.15.94,1.7,1.62,2.12,2.5.8,1.66,1.56,3.35,2.08,5.13.38,1.32.65,2.65.63,4.04-.01.77.03,1.55.04,2.33.03,1.75-.01,3.5-.41,5.22-.15.66-.21,1.35-.33,2.02-.04.18-.2.3-.39.39h0ZM59.39,41.64c.09.03.21.04.27.1.5.45,1,.91,1.49,1.38.29.28.49.61.6.99.26.84.5,1.68.59,2.55.17,1.66.2,3.3.11,4.96-.01.2.17.36.33.39.22.04.38-.04.5-.2.12-.16.19-.33.23-.52.14-.77.14-1.55.14-2.33,0-.88-.02-1.75-.02-2.62,0-.1.08-.26.09-.26.18.05.41.06.53.18.42.4.82.83,1.21,1.25.27.31.4.68.4,1.08,0,.87-.03,1.75-.06,2.63,0,.39-.04.77.07,1.15.07.23.21.32.39.33.23,0,.39-.06.47-.25.05-.1.12-.17.14-.25.06-.38.1-.78.15-1.16.06-.38.12-.76.19-1.15.02-.09.1-.25.12-.25.18.06.36.12.52.22.18.1.27.28.29.48.03.29.09.59.09.88,0,.48-.06.97-.06,1.46,0,.21.14.37.3.39.21.03.37-.08.49-.25.22-.31.46-.61.69-.91.46.25.76.64,1.07,1.02.19.22.28.5.31.8.1,1.26.04,2.53.02,3.8-.01.72-.21,1.32-.84,1.76-.32.21-.58.51-.88.76-.08.06-.2.11-.28.1-1.42-.35-2.89-.32-4.34-.42-.49-.04-.98-.1-1.44-.21-.57-.14-1.16-.12-1.74-.2-.41-.06-.59-.21-.47-.53.25-.68-.04-1.11-.54-1.5-.23-.18-.55-.09-.72.21-.15.26-.21.54-.14.84.03.18.13.36.16.55.04.18-.06.37-.25.46-.26.13-.54.25-.82.27-.58.04-1.17.02-1.75.03-.82,0-1.52-.25-2.11-.84-.18-.19-.65-.08-.76.13-.08.18-.17.36-.28.51-.19.27-.48.33-.75.17-.08-.06-.16-.11-.25-.16-.46-.3-.74-.32-1.02-.02-.21.21-.37.45-.64.57-.08.04-.2.09-.27.06-.06-.03-.11-.16-.12-.25-.05-.57-.07-1.16-.13-1.73,0-.09-.1-.18-.18-.22-.14-.08-.33-.02-.44.18-.39.68-.41,1.49-.65,2.23-.1.3-.33.47-.6.57-.38.14-.77.18-1.14.02-.16-.06-.25-.26-.38-.41.02-.97.04-1.94.04-2.91,0-.29-.05-.58-.27-.8-.06-.06-.14-.16-.2-.15-.08.02-.18.1-.22.18-.08.17-.18.36-.18.53-.01,1.27-.33,2.51-.59,3.73-.04.17-.21.35-.37.44-.51.28-1.03.53-1.64.56-.33,0-.59-.23-.51-.53.24-.84.49-1.67.7-2.52.21-.86.34-1.73.2-2.61-.03-.21-.19-.37-.33-.35-.22,0-.32.17-.4.37-.2.55-.36,1.11-.41,1.69-.1,1.19-.52,2.28-.9,3.38-.06.18-.17.34-.26.52-.25.47-.62.72-1.17.69-.28,0-.58-.29-.55-.53.03-.2.02-.4.07-.58.27-1.03.56-2.07.84-3.1.28-1.03.55-2.06.78-3.11.23-1.04.65-2.04.75-3.12.37-1.11.41-2.29.43-3.46.04-2.92.12-5.84.13-8.76,0-1.85-.12-3.7-.12-5.55,0-1.77-.46-3.46-.76-5.18-.04-.19-.13-.37-.2-.55-.29-.74-.34-1.51-.29-2.3,0-.08.08-.18.15-.24.13-.1.31-.1.51,0,.08.05.17.11.21.19.38.68.76,1.36,1.12,2.04.09.18.17.37.21.55.22,1.25.71,2.44.76,3.72.02.38.04.78.12,1.16.47,2.32.33,4.65.3,6.98,0,.59-.12,1.16-.2,1.74-.14,1.07-.23,2.13-.18,3.21,0,.09.06.21.13.25.1.06.25-.06.3-.29.06-.29,0-.61.12-.87.48-1.1.55-2.25.6-3.42.02-.49.08-.97.08-1.46-.02-2.04-.04-4.09-.08-6.13-.02-1.08-.15-2.14-.45-3.18-.11-.37-.12-.76-.14-1.15-.02-.21.08-.39.23-.46.07-.03.2,0,.28.04.35.19.66.43.9.74,1.7,2.21,1.82,2.46,2.38,5.22.1.48.16.96.18,1.45.14,2.33.07,4.67-.02,7-.02.49-.14.96-.24,1.44-.15.76-.27,1.53-.19,2.32,0,.1.04.2.1.27.1.11.25.03.33-.21.35-1.11.7-2.23.72-3.41,0-.2.02-.4.06-.59.4-1.62.35-3.29.37-4.93.02-.88-.02-1.75-.22-2.61-.17-.76-.24-1.54-.15-2.32,0-.1.04-.23.12-.27.14-.09.32-.06.5.07.08.05.17.11.21.19.32.59.53,1.24,1.02,1.74.2.21.27.51.3.8.07.58.09,1.17.21,1.74.43,2.01.41,4.07.4,6.1,0,.68,0,1.36-.02,2.04-.01.68,0,1.36-.07,2.05-.05.57-.21,1.14-.29,1.72-.03.21.08.37.24.44.06.02.18-.07.24-.14.29-.28.49-.61.53-1.01.07-.68.17-1.35.16-2.04-.02-.69.04-1.35.21-2.02.06-.18.08-.38.08-.57-.02-1.85.12-3.69-.24-5.53-.12-.66-.11-1.35-.14-2.03-.01-.21.08-.44.23-.46.19-.02.37.11.49.27.11.16.25.32.29.49.12.57.25,1.12.53,1.65.48.87.64,1.83.65,2.82.04,1.96.03,3.9-.1,5.84-.02.49-.07.98-.17,1.45-.17.87-.2,1.74-.18,2.62,0,.08.06.2.13.25.13.1.3.02.42-.17.31-.5.49-1.06.53-1.65.09-1.46.27-2.91.45-4.36.22-1.94.27-3.88-.17-5.81-.04-.21-.03-.39.12-.55.17.06.38.09.51.2.72.65,1.44,1.31,2.01,2.1.05.08.06.18.08.29l-.08-.09ZM33.11,82.02c.58.17,1.16.11,1.74.02.32-.06.41-.31.21-.63-.1-.17-.23-.32-.33-.49-.22-.37-.2-.71.1-1.07.18-.22.41-.42.66-.57.43-.23.93-.29,1.41-.27.29,0,.57.17.76.4.13.14.23.31.3.49.14.37.26.73.39,1.1.08.25.41.45.67.45,2.77-.07,5.37-.86,7.92-1.85.17-.08.35-.17.52-.26,1.21-.64,2.44-1.22,3.71-1.73.64-.27,1.22-.61,1.68-1.14.33-.37.8-.56,1.25-.72,1.04-.37,1.86-1.05,2.58-1.85.06-.06.11-.16.14-.25.08-.17.05-.36-.12-.5-.22-.19-.5-.32-.8-.34-1.45-.12-2.9-.21-4.34-.56-.65-.17-1.35-.25-2.03-.17-.17.02-.35.14-.5.25-.04.03,0,.19.02.27.12.38.26.73.36,1.11.04.18.03.39.01.58-.07.63-.73,1.48-1.38,1.77-.16.08-.4.09-.56.02-.54-.25-.97-.64-1.35-1.09-.33-.4-.34-1.2,0-1.64.12-.16.28-.28.4-.42.41-.51.53-.58-.35-1-.44-.21-.89-.41-1.33-.61-.35-.16-.73-.27-1.12-.3-2.14-.19-4.27-.36-6.42-.27-.78.02-1.56.06-2.34.06-1.55,0-3.11.02-4.65-.32-.76-.17-1.54-.17-2.32-.09-.38.03-.72.43-.62.8.4,1.62.63,3.24.64,4.91,0,.29.03.59.11.87.27.95.32,1.92.46,2.88.04.29.08.58.16.86s.21.55.31.81c.1.26.45.42.71.3.23-.1.21-.27.07-.49-.1-.16-.13-.37-.17-.56-.16-.76.28-1.55,1.19-1.69.19-.03.39-.05.58-.06-.05.28-.14.56-.15.84-.01.18.06.36.13.53.08.21.25.27.47.24.19-.04.33-.13.42-.3.1-.2.09-.39-.07-.53-.29-.25-.59-.47-.88-.71,0-.21.05-.4.18-.52.23-.23.53-.21.81-.15.29.06.55.21.74.42.56.61.87,1.63.37,2.42-.15.25-.3.48-.29.79-.17.02-.33.04-.5.06-.28.02-.33.12-.13.25.06.04.17,0,.24-.02.18-.04.29-.15.34-.33h0ZM55.95,34.61c.03.08.06.15.1.24-.06-.06-.11-.12-.17-.18.02-.29.14-.54.31-.77.17-.24.29-.51.31-.8.01-.21-.1-.37-.26-.47-.17-.11-.35-.1-.55-.14-.9-.08-1.29-.42-1.23-1.21.06-.84-.29-1.48-.79-2.08-.14-.15-.32-.21-.51-.19-.09,0-.19.04-.27.07-.61.29-1.17.66-1.73,1.04-.31.21-.32.72-.02,1,1.16,1,2.32,2.01,3.48,3.01.37.34.82.48,1.32.48h0ZM120.84,38.13c-.09-.03-.1-.14-.16-.21-1.07-1.5-2.15-2.99-3.25-4.47-.1-.13-.33-.18-.49-.27-.05.09-.1.17-.13.25-.16.68-.11,1.35.06,2.01.05.18.16.37.27.5.26.29.51.6.83.82.72.49,1.47.94,2.29,1.26.18.06.38.08.57.11h0ZM61.17,92.01c-.03-.06-.04-.14-.08-.2-.14.07-.04.14.15.14.17.25.42.39.72.42,1.26.14,2.52.1,3.78-.03.06-.02.13-.06.19-.1-.12-.17-.29-.22-.49-.26-.48-.08-.95-.24-1.42-.3-.48-.06-.97,0-1.45-.04-.51-.03-.95.15-1.39.37h0ZM113.25,36.98c.02.09,0,.2.06.27.03.04.21.05.21.04.06-.16-.05-.25-.31-.25,0-.1.02-.2,0-.29-.12-.6-.49-1.03-1-1.34-.25-.15-.56-.12-.82.05-.25.16-.39.41-.45.69.13.13.25.29.41.4.4.28.86.44,1.34.51.18.02.37-.04.56-.06h0ZM117.91,38.74c.04.2.15.34.34.4.09.02.18.06.26.04.08-.02.19-.06.21-.12.05-.12-.07-.22-.32-.25-.18-.02-.37,0-.55-.02.03-.2-.02-.37-.15-.5-.14-.14-.27-.25-.41-.37-.08-.05-.15-.1-.24-.14-.19-.07-.37-.03-.5.1-.1.14-.06.3.09.48.33.41.79.41,1.27.37h0ZM93.91,13.06c-.12-.54-.13-.54-.59-.58.02-.1.05-.19.02-.29-.15-.68-.52-1.19-1.17-1.46-.03-.07-.05-.14-.1-.21-.13.06-.03.13.17.14,0,.17-.04.35,0,.53.13.64.44,1.12,1.14,1.24.11.54.13.57.59.59-.1.4.02.72.38.92.06.03.18.02.25,0,.05-.02.11-.13.09-.18-.15-.33-.31-.68-.77-.68h0ZM98.03,18.28c0,.2.08.34.25.41.01,0,.14-.14.12-.2-.07-.21-.23-.25-.43-.15.12-.41,0-.75-.3-1.03-.17-.14-.37-.11-.51.04-.04.05-.01.17.02.24.19.33.44.62.85.68h0ZM145.41,66.3c-.25.14-.46.32-.58.59-.29.09-.5.29-.57.6-.28-.03-.56,0-.82.12-.18.08-.3.21-.36.41-.33.07-.6.2-.59.6-.29-.03-.58.02-.83.18-1.77,1.16-3.32,2.63-5.13,3.72-.6.62-1.35,1.09-1.89,1.77-.12.14-.2.33-.26.5-.07.2-.03.4.11.53.12.12.29.1.49-.03.39-.29.79-.56,1.15-.87,1.32-1.13,2.59-2.31,3.94-3.39.82-.66,1.59-1.4,2.26-2.21.06-.06.06-.18.1-.27.35-.06.56-.25.58-.62.47,0,.87-.16,1.19-.52.19-.2.38-.4.58-.6.19-.19.38-.39.58-.59.06-.05.11-.09.17-.16-.04.08-.07.15-.11.22h0ZM126.69,92.57c.24.06.4-.03.41-.28,0-.06-.14-.19-.19-.18-.24.03-.32.2-.25.43-.19-.04-.35.02-.39.19-.04.17.07.28.23.23.17-.04.22-.2.18-.39Z"/>
          <path class="cls-2" d="M83.9,54.59c-.05.18-.16.32-.32.41-.19.1-.55-.13-.63-.4-.09-.27-.06-.54.09-.79.1-.19.27-.26.47-.15.36.21.49.57.39.93Z"/>
          <path class="cls-2" d="M92.72,15.35c.7,1.08.85,2.29.76,3.55-.01.17-.1.36-.19.53-.08.18-.25.24-.46.16-.08-.03-.17-.1-.21-.19-.26-.62.04-1.3-.26-1.94-.2-.42-.28-.9-.41-1.36-.12-.41.1-.69.56-.74.09,0,.19.04.28.06l-.07-.06Z"/>
          <path class="cls-2" d="M110.34,54.42c-.06.35-.08.63-.16.9-.05.21-.2.29-.37.33-.23.05-.37,0-.46-.2-.33-.72-.32-1.44-.02-2.17.1-.24.49-.3.69-.12.07.06.16.13.18.22.06.36.11.73.15,1.04Z"/>
          <path class="cls-2" d="M59.39,41.64c.02.4.15.76.3,1.13.38.91.47,1.88.57,2.85.02.19.03.39.02.58-.1,1.27-.21,2.52-.33,3.78-.04.39-.15.76-.35,1.11-.1.18-.23.31-.46.29-.15-.02-.29-.17-.32-.39-.03-.29,0-.58,0-.88.06-.97.14-1.93.19-2.91.03-.58.03-1.16-.01-1.75-.04-.57-.15-1.15-.24-1.73-.1-.6-.56-1.01-.84-1.52-.14-.24.06-.52.39-.55.1-.02.19-.04.28-.03.29.02.59.06.88.1l-.08-.09Z"/>
          <path class="cls-2" d="M64.12,57.68c.02-.27.23-.47.55-.54.21-.05.37.02.47.21.24.44.29.88.05,1.33-.12.22-.25.26-.47.14-.5-.28-.65-.56-.6-1.14Z"/>
          <path class="cls-2" d="M112.65,79.58c.03.21-.02.38-.17.52-.48.47-.99.88-1.57,1.19-.29.15-.8-.02-.98-.34-.37-.62-.36-1.27-.06-1.9.12-.24.39-.41.68-.44.58-.02,1.13.09,1.66.33.28.13.43.31.45.64Z"/>
          <path class="cls-2" d="M122.92,78.1c-.04.19-.04.38-.14.54-.49.8-1.23,1.17-2.16,1.11-.1,0-.2-.03-.27-.08-.16-.1-.33-.19-.45-.33-.13-.13-.04-.65.08-.81.35-.47.82-.8,1.33-1.07.54-.29,1.19-.13,1.52.36.05.09.06.18.09.27Z"/>
          <path class="cls-2" d="M106.77,80.98c-.13,0-.22,0-.31-.02-.6-.08-.91-.83-.56-1.29.35-.48.83-.77,1.35-1.01.4-.19.94.04,1.19.47.1.18.11.36.02.55-.33.76-.9,1.19-1.68,1.3Z"/>
          <path class="cls-2" d="M127.81,77.37c-.02.09,0,.2-.05.28-.24.41-.55.75-1.02.92-.28.11-.55.06-.81-.05-.21-.08-.4-.53-.32-.71.21-.54.56-.96,1.08-1.24.29-.15.53-.07.78.09.25.14.36.36.33.71Z"/>
          <path class="cls-2" d="M117.17,79.21c.01.45-.34.96-.76,1.04-.38.06-.75-.02-1.01-.33-.06-.08-.12-.14-.17-.22-.21-.3-.11-.82.18-1,.25-.15.5-.25.78-.28.49-.05.97.33.99.79Z"/>
          <path class="cls-2" d="M31.4,74.33c-.02-.26,0-.47-.06-.64-.07-.19-.24-.29-.4-.36-.22-.06-.62.16-.66.39-.1.48-.09.94.13,1.38.1.2.24.28.45.28.19,0,.36-.08.41-.29.08-.27.1-.56.13-.76h0ZM28.96,74.92c-.08-.55-.16-.93-.17-1.32,0-.17.08-.39.19-.53.4-.57.88-1.03,1.58-1.19.19-.05.37-.08.56-.13.72-.18,1.34.06,1.89.5.23.18.36.45.4.75-.39.99-.46,2.07-.52,3.13-.04.66-.62,1.21-1.4,1.21-.48,0-.96-.09-1.44-.14-.41-.05-.89-.56-.95-1-.06-.48-.11-.96-.14-1.27Z"/>
          <path class="cls-2" d="M36.81,74.67c.08,0,.17,0,.25-.02.09-.02.16-.08.24-.14.34-.23.4-.64.18-.96-.23-.33-.62-.41-.98-.21-.08.05-.16.13-.19.21-.2.44.05.98.5,1.12h0ZM34.8,74.06c.02-.23.02-.52.06-.81.06-.38.25-.72.56-.96.31-.22.64-.44.98-.6.25-.13.55-.14.84-.04.45.17.85.45,1.21.76.88.8.91,2.27.07,3.11-.42.42-.92.68-1.53.69-.38.02-.77.02-1.15,0-.47,0-.87-.44-.92-.94-.04-.38-.08-.76-.12-1.21Z"/>
          <path class="cls-2" d="M42.43,74.08c.08-.19,0-.37-.19-.46-.04-.02-.14.06-.19.11-.13.16-.14.33,0,.45.14.14.29.1.39-.1h0ZM41.56,76.42c-.29-.07-.57-.21-.7-.48-.22-.43-.41-.88-.55-1.34-.2-.71.03-1.34.53-1.86.41-.44.94-.67,1.55-.7.52-.03.96.15,1.24.6.16.24.28.51.39.77.11.28.1.57.01.85-.31.99-.98,1.65-1.91,2.06-.17.08-.37.07-.55.1Z"/>
          <path class="cls-2" d="M41.1,80.54c-.31-.03-.55-.19-.7-.43-.5-.75-.05-1.86.82-2.05.38-.09.76-.07,1.13.07.35.13.59.65.41.92-.05.08-.08.17-.13.25-.33.48-.74.87-1.25,1.15-.09.03-.18.05-.27.08Z"/>
        </g>
      </g>
    </g>
  </g>
</svg>