<?xml version="1.0" encoding="UTF-8"?>
<svg id="Layer_2" data-name="Layer 2" xmlns="http://www.w3.org/2000/svg" viewBox="0 0 490.46 1700">
  <g id="crack_flat" data-name="crack flat">
    <path d="M121.69,1373.61s5.04-68.43,5.04-68.43c2.06-23.63,3.42-49.2,8.1-72.44l3.87-.17,53.11-2.3,95.19-273.23-24-84.9c-20.52-8.74-45.21-19.1-64.14-27-1.45-18.06-4.79-59.5-5.95-77.17l-1.49-22.79c-15.77-7.15-37.41-17.01-52.39-23.96,0,0,.46-1.12.46-1.12,16.35,5.57,39.7,14.19,56.22,19.98l1.71.61s.28,2.04.28,2.04c1.72,12.16,5.03,36.68,6.6,48.85l5.6,45.17c15.27,5.51,34.4,12.53,51.42,18.64l10.01-125.53-63.03-108.81c-.6-.05-1.75-.15-1.75-.15-14.68-1.16-31.74-2.96-46.46-4.52-6.91-.83-13.96-1.64-20.86-2.65-.11-.39-.23-.77-.34-1.15-4.69-.1-9.38-.24-14.07-.46-19.52-.94-39.02-2.32-58.45-4.48,0,0-1.41-2.84-1.41-2.84-22.07-45.49-43.88-91.11-64.95-137.09l1.08-.56c6.38,10.92,12.64,21.91,18.91,32.89,18.29,31.93,36.16,64.1,53.95,96.3,11.19.87,22.35,2.04,33.51,3.31,9.6,1.11,19.19,2.33,28.74,3.8-3.87-12.93-7.99-25.79-12.12-38.64-13.59-41.51-30.48-92.77-44.49-134.19-3.62-2.17-67.92-40.63-67.92-40.63l.56-1.07,74.12,33.59,1.86.84s.68,2.15.68,2.15c13.38,42.07,30.52,94.12,44.4,136.27,4.65,13.81,9.3,27.62,14.27,41.33,15.39.15,32.22.79,47.35,1.48,4.34.23,11.64.59,15.89.83.35.08.73-.35.96,1.49l4.95,2.88,42.13,55.77-58.98-172.88c-.3.14-.64.3-.64.3-17.94-30.41-34-61.94-49.58-93.6-5.73-11.76-11.29-23.63-16.62-35.57,0,0,2.49-2.94,2.49-2.94,1.13-1.32,2.3-2.68,3.49-4.06-.52-6.7-.88-13.4-1.18-20.1-.74-18.39-.88-37.7-.51-56.08.21-8.13.59-16.26,1.11-24.38-14.91-8.52-34.67-19.53-49.07-27.57l-2.12-1.19-.16-2.21c-3.11-41.98-6.19-85.71-8.71-127.61l1.21-.12c2.89,21.13,5.53,42.28,8.27,63.42,2.26,17.58,5.29,42.62,7.53,61.06,15.69,7.78,37.01,18.28,52.08,25.52l3.24,1.57s-.03,3.99-.03,3.99c-.49,33.12-2.99,66.39-7.8,99.21,19.6-22.76,45.1-52.18,63.52-73.78-21.78-47.05-44.16-96.05-65.4-143.11l1.09-.53c12.27,23.68,24.36,47.45,36.51,71.18,8.04,15.47,18.42,36.27,27.62,54.51-.15-5.74-.27-11.41-.37-16.04-.8-33.34.07-70.26,1.22-103.77l.04-1.38.57-.98,35.94-61.96c-.72-24.77-1.51-51.79-2.02-76.41l1.21-.07c1.28,12.84,2.48,25.69,3.65,38.55.9,9.58,2.65,28.98,3.51,38.55l.07.82-.46.89-32.51,63.19c.1,5.93.56,33.46.56,33.46.35,34.26-.31,68.98-2.24,103.21.25.5.51,1.01.51,1.01,0,0-1.66,2.08-1.66,2.08-19.19,23.95-47.06,59.25-66.64,83.91,7.03,14.77,13.7,29.7,20.15,44.73,6.97,16.06,13.81,32.65,20.22,48.92,1.48,3.75,2.94,7.52,4.37,11.29l-3.43-10.05,133.46-178.83.52-112.93v-1.11s.34-.85.34-.85c20.21-51.9,41.94-106.14,63.23-157.54l1.14.42c-4.33,13.48-8.76,26.91-13.2,40.35-12.64,38.4-27.18,81.28-40.47,119.55.03,1.33,1.28,54.41,2.09,88.62l51.15-119.44-31.85,127.59-101.46,170.58,39.87,103.72c5.01-4.99,10.01-10,14.98-15.03,14.05-14.38,29.74-30.87,43.5-45.82-5.5-40.99-13.51-83.34-19.05-124.21l2.7-1.47,58.61-31.79c22.18-33.89,56.33-85.1,78.84-119.04l1.02.65-37.18,61.49c-9.24,15.28-28.03,46.16-37.36,61.37l-.42.69-.8.47s-50.47,29.44-55.51,32.39c7.45,40.26,13.07,82.6,20.92,122.72-21.04,26.59-41.97,53.79-61.64,81.63l-1.84,136.44-11.97,142.92,46.08,59.66c6.69-50.41,11.99-100.92,15.92-151.6l4.47-59,.05-.68c4.98-14.15,12.34-33.84,17.5-48.16,33.55-50.25,82.17-119.98,116.9-170.61,0,0,1.01.67,1.01.67-31.46,49.7-80.42,127.49-109.89,172.74-4.62,13.89-11.08,33.52-15.79,47.36-.41,6.25-3.87,58.42-3.87,58.42-3.81,59.06-5.76,118.15-5.81,177.4l.04.05-99.4,297.38,68.26,57.4.08,1.84c10.04,26.11,19.09,52.58,27.8,79.15,2.63,8.3,5.23,16.61,7.77,24.94l56.05,30.41,1.12.61.47.98s9.78,20.42,9.78,20.42c8.58,18.27,20.32,43.21,28.79,61.54l-1.08.55-11.1-19.74c-7.77-13.96-17.83-31.98-26.46-47.69-1.37,24.54-3.43,61.92-4.44,79.32-.63,9.92-1.41,19.83-2.29,29.73,12.26,29.13,25.24,61.23,37.01,90.47l-1.1.5c-3.8-7.33-7.6-14.66-11.32-22.02-10.38-20.52-23.43-45.75-33.47-66.29l-.46-.95.06-1.27c.85-20.57,2.48-41.09,4.14-61.6l4.62-59.21-57.25-27.27-1.86-.89-.81-2.21c-8.6-23.56-16.7-47.3-24.23-71.23l6,132.44c3.75,11.08,6.69,22.3,9.35,33.56,4.6,18.54,7.48,39.45,9.49,58.5,2.17,17.78,5.94,43.23,7.38,58.08,6.08,16.14,14.91,39.35,20.72,55.3,0,0-1.12.48-1.12.48-7.54-15.33-18.03-37.67-25.51-53.26-2.85-13.11-5.32-26.34-7.92-39.52-1.86-9.68-5.81-29.1-7.89-38.75-2.95-15.31-5.04-30.73-6.23-46.24l-18.11-64.99c-.53,1.71-1.05,3.43-1.59,5.14-7.03,22.52-16.78,53.15-24.28,75.78,1.38,16.18,2.48,32.38,3.73,48.57,3.43,47.74,7.28,102.07,10.02,149.56,0,0-1.21.12-1.21.11-3.19-23.82-6.45-50.4-9.52-74.35-4.55-38.37-10.44-85.79-14.57-124.04l-.12-1.1s.36-1.17.36-1.17c6.86-22.96,16.62-54.21,23.9-77.05,2.39-7.59,4.9-15.13,7.36-22.7l-17.36-62.32c-10.2,3.85-20.39,7.74-30.63,11.5-26.17,9.72-61.44,22.75-88.75,32.65,7.05,21.77,18.85,58.57,24.86,77.62,1.27,41.39,1.26,90.69,1.71,132.16l-1.21.04-2.17-32.69c-1.87-29.11-4.34-68.97-5.97-98.1-6.62-16.33-23.53-64.79-31.19-85.63,29.63-11.63,68.47-26.58,98.24-37.96,9.45-3.65,18.94-7.19,28.42-10.76l-85.46-85.55-52.87,1.63c-.31,15.42-2.26,31.98-3.72,47.12-4.09,35.04-10.16,93.19-15.1,127.88-5.6,30.81-11.43,62.21-17.3,92.91l-1.2-.19c3.42-28.18,7.16-56.9,10.78-85.07,2.01-11.24,3.68-39.55,4.56-51.24Z"/>
  </g>
</svg>