<?xml version="1.0" encoding="UTF-8"?>
<svg id="Layer_2" data-name="Layer 2" xmlns="http://www.w3.org/2000/svg" viewBox="0 0 640.98 524.21">
  <g id="_Layer_" data-name="&amp;lt;Layer&amp;gt;">
    <g>
      <polygon points="533.96 102.11 535.13 100.1 533.96 102.11 533.96 102.11"/>
      <path d="M318.62,515.08l3.83-8.63,1.33-2.38.57-6.32,1.07-10.32,2.88-3.52,4.53-2.09-1.34-5.15-1.55-4.31-5.81-15.05-1.42-3.57,3.41-3.73.83-10.62,2.44-8.73,4.99-2.42,1.81-10.39,1.63-8.57,4.5-6.41,1.81-2.13,3.25,1.15,3.64,2.15,6.04,5.88,4.04,5.7,3.84,7.83,2.32,11.83,7.71,7.13-6.24-9.17-.13-9.68.16-.1,18.98,12.45,1.57,4.42.7,3.54,4.23,4.18,2.73,5.34,5.74,7.81,6.89.32,5.67,2.33,6.64,1.37-5.17-1.92-5.97-3.35-6.62-1.17-1.19-2.29-3.29-4.18-3.62-6.95-2.79-9.18,14.73,2.47,5.94,6.11,3.58,4.72,6.99-.61,6.96-.4,9.16,3.67-2.21-1.9-4.53-3.65-9.76-1.44-6.86-1.12-2.29-3.14-3.61-3.19-3.95-4.27-10.1-2-9.29-.76-3.65-3.71-4.86-3.4-6.06-3.2-4-.81-3.02-4.46-3.69-5.66-5.06-5.51-4.38-6.55-2.41-6.82,1.37-4.33,4.28-1.08,3.18-3.26,9.4-4.52,2.92-1.7,2.01-4.21,5.46-5.47,3.39-1.62,4.47-.26,6.3-5.96,5.43,2.48,7.69,7.51,7.27,1.01,7.28,2.65,13.97.81,5.05-.12,3.1,1.74,5.26,1.04,5.14-.81,2.43,3.7.69,6.16,1.62,3.79-3.46,6.63-.33,4.29-1.04,5.2-.67,5.78-.95,2.26-2.5,2.6-1.05,1.53.33.67,1.15,2.93,1.61,5.91,1.1,5.5.23,1.59-4.54,5.55.43,2.67-.32,2.5-1.16,6.6-.79,2.94-2.3,1.3,5.32,7.72-.21,6.56-.05,6.01,3.27,4.04,7.89,7.32,2.78,2.82,1.47,3.82,1.51,3.37,3.48,3.21-6.01-13.66-7.39-7.84-3.31-6.26.04-9.75.63-2.67-.97-2.42-2.42-5.26.8-3.04,1.32-4.86.97-6.19,2.98-3.46,2.94.49-.67-3.83-1.37-5.85-1.95-6.96.87-3.36,2.06-3.15,1.31-5.99,1.15-4.36,4.47-4.89,6.27,1,11.04,2.25,1.8,2.31,3.44,5.86-1.56,5.48-3.58,5.47,2.07,1.76,2.95,3.83-2.28,6.47-1.34,3.83.92,1.84,2.91,5.69.25,3.61.32,9.31,1.25,6.96.13-5.69.17-8.72-2.02-12.61,2.66-8.57.76-2.59-3.38-4.54.34-1.89,1.86-3.08,3.11-4.33.91-4.96,1.74-3.63,3.54-.59,5.8-.62,4.75-.28,3.78,3.32,4.12,4.99,4.77,5.56,3.66,3.2,1.28,7.17,4.28,4.4.11,9.11-.03,3.88.44,2.56-1.93,5.93-.15,8.01-.49,3.31-2.23,2.66-1.37,1.88,3.39,2.01,5.37,3.89,5.47,6.1,1.84,2.64,1.49,4.88,4.11,3.19,6,5.26.89,5.22,4.46,3.71,4.67,9.23,5.82,10.13-.51-3.09-3.52-6.67-1.98-5.49-2.36-4.26-2.56-3.74-1-.68-.51-2.7.33-3.4-5.93-4.59-5.23-6.07-1.28-7.67-3.26-3.93-3.55-2.29-1.61-9.63.26-7.28.46-2.97,2.91-4,.78-10.84,2.56.66,4.35,1.14,5.87,4.3-4.24-4.78-3.94-1.56-3.67-2.43-2.28-2.9-.12-4.19-.61-2.71,4-1.39,4.05-1.68,2.77,1.58,2.89.51,5.14-.17,5.6-.23,3.74-2.41,5.62-.32,2.39-2.79,4.6-5.34,4.66-3.83,2.32.18,3.76.49,2.36.53,4.99,1.14,7.99.08,3.79,1.09,8.44.35,3.8-.33,4.83-2.01,7.57-.97,6.53-2.08-4.03.61-7.33.53-5.63,1-4.74,1.02-5.24-.92-2.99-1.45-8.43.34-4.53-1.8-3.28-.89-7.17-1.54,2.12-4.54,3.04-7.3,6.31-7.57-8.09,7.68-3.4,4.21-2.18,4.26-3.99,2.94-2.57,3.27-4.52,5.02-3.28,2.98-4.57,1.26-4.91.19-8.18.54-4.55-.44-3.58-2.41-4.98-.04-3.19-1.15-5.16-5.02-6.53-5.94-5.35-6.02-3.2-5.28,1.07-2.75,3.26-2.93,3.34-2.23,2.4-1.76,5.08-3.56,2.59-.48,1.86-2.19,4.64-3.55,5.08-3.3,2.18-.8.54-1.62.55-1.18,1.73-1.37,3.48.18,13.54.04,11.39,2.69,9.17.57-6.53-1.48-5.99-.86-4.94-2.16-13.97-1.2-4.53-1-4.67-3.21-6.89-3.41-2.53-4.7-7.31-8.05,4.3-2.64,8.18-1.85-12.83,1.51-6.13,1.5-8.53-1.48-4.48-3.85-6.63-2.97-5.64-1.87-.17-4.37.41-3.8,8.37-10.17,2.31-6.72,2.48-2.29,6.25-3.05,3.51-1.68,3.47-3.75,4.19-.38,11.42-1.07,9.49,5.16-.27-4.77,3.78-4.26,5.2-4.87,7.66-2.19,5.75,1.97,6.18-.27,6.28,3.83,3.54,3.31,4.67-.8,6.29,1.48,4.61-.81,4.14-.73,8.61-2.36,3.24-1.31-14.83.95-10.56-.46-6.1-1.34-7.62-6.16-8.61-4.12,6.56-5.84,7.09-3.55,7.09-3.67,1.77-4.6,3.14-4.18,4.16-5.96,2.12-7.19-8.42,11.97-5.83,8.76-11.99,3.48-5.35,4.08-3.99,5.48-6.22,1.52-6.17,2.32-3.71,2.57-3.41,4.46-4.12,2.77-3.79.86-4.76-3.74-3.36-.34-3.64.35-7.92-5.75-1.05-4.49,4.83-3.81-4.68,1.86-4.36,1.7-1.97,2.38-4.55.66-7.2.5-6.03,1.38-4.31-2.26-7.24-1.04-3.65-3.95-6.43-6.37-2.01-2.83-5.98-1.88-3.87-1.68-1.9-3.15-2.28-1.67-2.57-2.43.13-9.16,1.88-8.31,2.3-5.18,3.08-1.65,3.55-1.95-2.8-2.04.07-3.82-3.81-7.48,3.73-7.2,1.93-6.11,4.48-4.51.93-7.09-.82-7.62,2.98-3.22,2.4-3.98,10.14-12.34,8.34.6,2.3-3.28,3.56-6.48,7.97-5.7,7.4-6.03.33-3.82-.34-2.98,4.35-4.35,5.53-9.8,4.94-5.06,2.12-5.13-9.18,9.98-3.36,3.35-2.92,6.54-3.12,2.12-1.45,6.25-2.08,2.63-2.41.84-3.27,2.52-5.68,4.74-5.41,4.62-2.36-4.08.23-5.89-.35-9.14.73-4.62-.07-2.79.49-10.8,5.06-6.75,1.21-5.65,2.15-5.82,7.32-11.89,2.56-1.72,5.96-1.32,7.26-.59,6.73-.63,6.83-.55h5.69s3.91.1,3.91.1l7.03.25,6.26,2.02-6.48-4.39-3.12-.04-6.8-1.16-8.1-.51,9.23-9.9,4.62-5.88,3-4.61,3.33-2.12,1.51-1.03,3.19-.38,5.4-2.84,4.51-2.27,3.62-5.97-3.02,3.15-2.78,1.37-10.08,3.61-2.4,2-4.48,2.73-3.98,5.61-4.41,4.77-4.25,4.82-4.47,2.81-3.53,4.6-7.18-.15-6.64,1.13-4.5.19-3.18,2.16-6.99.59-3.71-2.37.68-5.2-4.36-5.76-3.11-6.24,4.16-6.86-6.37-10.62.78-3.41.6-6.08-2.56,7.67.66,5.49,3.14,7.29-3.72,7.85,2.12,3.52,4.33,7.08-1.1,3.71,1.47,2.73,4.65,8.92-2.31,1.81-1.56,2.55-2.89,6.92-2.74,4.18-3.96,3.65-3.99-7.81-1.01-9.46.17,6.02-.64,6.68,3.07,6.74.94,2.19,2.26,2.2-.65,3.04-1.07,3.93-.4,10.39.78,5.16-.52,7.74.43,8.15-1.13,3.61-4.86,4.07-5.7,8.28-5.15,4.84-4.82,4.49-9.45-10.48-.25-12.82-1.01-4.95-3.06-8.29,2.03-11.94,4.24-4.8,2.99-4.04-2.56,2.47-4.41,2.51-4.79,7.84-5.96-1.63-5.89-5.98-4.94-7.07,1.57-6.93,3.13-3.76,1.39-5.48,7.88-9.13,1.69-7.12,1.54-6.39-5.97,13.59-6.68,7.15-3.95,7.22-4.48,3.85-2.05,1.56-2.79-1.55-4.08,1.27-4.02-1.87-3.27.69-4.8-.22-3.73-1.76-2.55-6.52,1.58-3.94,5.49-.1,7.13,1.03-12.44-2.98-3.11.03-2.58-2.79-2.48-4.44-5.02-3.25-2.94-3.2-.81-4.36-1.9-4.02-2.17-3.48.31-11.73.16-4.84,2.59-5.35,2.81-6.57,7.75-11.47-.71-4.84-.26-5.77,1.01-5.98.98-8.62-1.08,7.85-2.01,9.03-2.71,11.64-3.78,6.67-5.2,4.09-4.09,2.17-3.59-2.76-1.98-1.33-.09-10.26-2.88-3.58-6.96-9.3,6.39,11.01.8,6.24,6.17,11.18,2.43,2.75-1.41,2.73,1.24,2.49.52,4.48.27,7.58-2.92,5.84,4.01,4.76-2.27,3.25-13.55-9.21-9.8-4.16,9.32,5.74,9.81,9.13,10.21,4.59,5.74,6.59,3.5,3.84,3.16,2.53.58,4.4.6,7.43-1.67,4.26-2.28,2.61-2.58,8.25-4.32,5.25-4.32,2.5-6.14,5.52-5.9,4.57-5.22,5.03-5.37-3.15-8.28,3.41-3.45,1.1-4.86.06-4.72-1.66-6.25-7.27-.16-6.32-1.79-8.3-5.43-10.88-5.93-9.95,2.7,6.86,3.33,7.24,4.1,8.83.73,8.17.35,6.21,2.35,3.32,2.17,1.65-.81,2.41-.02,3.12-2.51,3.81-6.29,4.41-8.78,4.1-6.94,4.72-5.75-.08-4.23,3.28-7.06,4.63-1.65,5.34-3.26,9.33-1.91,6.92-7.71-1.08-4.38-1.8-3.47-5.36-.71-2.86-6.88-4.37-2.2-7.34-.39-6.15-2.03-5.45-2.59-6.32,1.31-3.34.07-3.16,2.13-1.99,2.66-3.31-1.24-6.74-1.03-9.48-3.61-3.9-5.63-6.24-4.56-6.95,3,6.28,5.4,6.73,3.19,7.73-.86,11.69-5.01,7.61-8.64-6.66-3.66-2.36-5.02-5.5-4.78-5.44-2.76-3.55-3.14-2.66,1.1-7.44,1.72-7.34,8.04-7.15,2.28-4.36-3.23-11.36,2.03-9.94,2.76-7.46-5.55-6.33-2.44-4.2-3.9-4.83-.92-5.9-6.8-4.8-7.15-7.58,3.63,5.34,4.99,6.23,2.44,2.48.91,4.01,6.93,9.43,2.25,6.39-1.06,7.24-.84,13.14-.46,9.13-4.77,5.01-9.04,13.12-4.93.96-4.7-1.74-7.47-4.46-5.18-.82-6.6-3.57-5.77-.87-4.72-.83-5.61-4.18-7-1-5.61-4.58-14.38-13.21-7.18-4.96-5.59-7.03-5.1-2.8-2.09-2.53-7.64-11.76-6.94-10.34-7.82-2.23-8.48-5.29-14.41-9.2,16.19,13.11,2.61,2.39,3.69.88,6.27,3.57,8.18,13.31,1.02,5.36-3.67,2.66-18.07,2.75-8.92,2.57-7.15-4.38-7.53-4.16-6.23-4.32-4.51-2.72-8.81.13-6.4.46-7.4-.64-5.4-1.03,9.09,3.21,11.11.72,11.47,2.84,7.71,5.17,7.26,5.06,8.55,5.11,5-2.94,7.7-1.86,16.71-2.36,8.58,2.98,12.22,8.93,11.54,11.64,3.57,5,3.9,2.31-2.29,3.26-5.83,3.9-12.51,2.77,13.2-.63,9.35-2.77,5.76.33,5.9-.28,21.99,6.25,10.92,6.28,8.83,2.75,5.94,4.95,8.64,8.47,8.36,7.06,7.55,15.11,6.25,7.04,1.47,8.18.79,3.77-1.33,5.62-2.18,5.68-10.28,6.13-11.4,3.31-8.16-3.7-9.42-.52-6.64-6.85-5.75-6.02-1.6-6.78-2.15-5.89-2.86-5.25-3.72.06-6.96-5.7-7.54-8.01-3.12-4.6-.9-2.87-2.43-.55-8.03.14-8.06.88-10.66-4.84-4.45-3.05-2.59-7.47-5.12-3.2-8.75-9.08-9.24-7.32,5.81,5.09,6.25,9.48,8.35,7.77,3.18,7.94,3.73,1.71,2.64,2.27-.03,5.83,3.68-4.59,6.17,2.82,4.92.93,11.06.06,3.55,3.32,5.61,6.72,12.73,12.95,4.76,6.82.58,5.31,5.28,9.46,1.68,8.87-3,2.37-5.21,4.86-7.15,7.09-12.21-1.98-8.35-2.47-8.11-3.83-6.1-9.87-4.33-10.82.73-7.79.31-4.93-3.84-5.19-3.37-5.62-.69-10.33,1.69,16.78,2.58,3.95-.52,4.35-.78,8.53-7.25.89-9.64-5.6-7.75-4.38-5.05-3.67-.36-8.6-2.27-6.24-3.54-9.85-4.21-17.1,1.16,14.42,3.37,11.21,1.99,7.35-1.46,9.26-3.88-3.85-2.54-5.01.94,5.58.58,3.33,4.37,3.14-10.62,5.63-4.92.83-3.34,4.32-2.1,2.58-4.58.89-7.31,4.83,8.55-3.43,5.95-.99,3.29-5.63,5.34-.41,12.61-5.16,9.66,2.31,7.31,4.87,7.44,3.96,3.62,1.83,5.07.83,6.91,8.99,5.83,9.39,4.74,2.09,3.21,2.51,7.56,2.41,4.22,1.29-3.94,6.79-9,1.39-9.14,2.91-10.56-6.6-9.42,7.12-14.52,3.3,10.27.53,7.86-2.53,5.49-3.1,5.87,3.17,6.69,1.59,10.65-2.13,7.86,1.04,5.53,8.29,2.56,4.62,4.13,4.2,4.34,6.15.18,3.07-1.18,3.13,1.04,6.82-2.09,7.81,1.89,5.65.34,7.11.17,11.45.48,1.9-4.57,3.37-5.56,4.42-3.96,3.74-8.7-2.36-6.28-7.65-6.31-10.18-4.58-8.59-.89-7.65-5.4-2.2-16.59-4.97-10.37-15.02-1.21-9.15-.91-7.98-9.64-3.68-7.82-1.2-5.05-3.55-7.69-4.4,9.4,7.96,9.13,3.67,10.03,10.11.69,13.82,3.91,7,2.68,3.93-8.13.41-4.6-7.07-14.15-11.04,6.17,5.14,5.04,6.66,4.6,6.86,4.95,2.48,6.99,2.16,8.05,1.2,9.38,3.33,6,2.22,3.08,5.01,3.22,5.37,3.87,9.67.45,4.65,5.62,4.64,5.86,7.49-3.86,9.38-7.12,7.98-8.7,8.71-12.48-1.89-2.43-.5-5.02,3.63-5.9-.35-7.56-4.9-5.55-4.1-4.27-1.19-2.37-1.23-5.65,1.08-2.86-1.56-4.28-5.89-4-6.66-2.99-8.02-2.16-3.78-6.41-1.56-8.25-5.59-6.79-7.78-8.04-7.47-3.23-2.91-5.92-1.84-4.44-1.53-3.6-4.33-2.14-1.73,3.74,5.94,8.94,3.87,3.4,3.08,6.74,6.07,10.06,12.26,3.03,1.76,3.55,2.97,7.43,4.39,3.7,8.28,2.06,2,.15,3.32.17,4.06.91,2.82-1.36,2.9-4.9,1.39-3.9-.14-.88,4.84-1.52,1.49-9.07,5.27-9.29,6.68-6.29,4.42-5.24-.31-5.11,2.06-5.28,2.91-5.99.11-10.3-.24-13.08,2.5,14.14-.69,10.23.89,8.06,1.61,4.57-3.41,5.56-1.19,1.26,2.97-2.78,4.1-3.48,5.93-2.55,7.96,8.57-12.82,2.83-2.85.14-5.57,6.52-6.66,6.74-3.98,6.46-3.81,8.15-4.43,7.07-5.36,2.96-.32,7.82-.59,6.61,2.38,6.29,1.5,7.1,3.25,4.72,3.81,3.78.03,5.36.71,7.3-.16,5.55,5.25,6.13,8.38,1.74,7.43,4.85,7.42,1.04,3.69-2.69,4.22,5.17,4.54.69,6.12-3.29,8.58-5.45,5.34-7.51,4.74-6.11,4.96-6.48,3.09-10.44,7.34-6.43-.74-10.21-3.56-2.37-.84-4.57-.29-2.18-.61-3.17,1.97-6.31,6.58-7.61,7.06-3.64,4.65-2.93,3.41-5.36.71-5.27.08-1.53-.12-5.08,4.98-14.74,6.78-7.43,4.62,14.03-6.2,11.9-3.85,7.18-1.89,7.91-.39,3.95-5.99,4.8-4.04,4.38-4.32,6.61-5.03,4.71-3.45,1.82.74,3.01.4,6.82,1.97,2.06,3.47,3.4-.46,5.28-.11,5.04-1.77,6.55-3.72,8.91-6.69,10.04-7.09,5.06-2.58,3.87-1.92,10.81,2.32-.77,6.04-1.61,6.43-4.13,5.73-3.41,2.91-1.19,4.56-4.9,2.46-3.65,1.14-5.35,4.59,7.01-3.36,7.6-.69-.37,6.07,1.78,6.21-3.67,8.16,2.31,8.63-1.39,6.19.02,10.39,1.37-9.93,1.19-7.2-.3-4.4,2.53-4.31,1.68-4.56-2.18-6.21.76-4.98.81-10.73,6.93-9.77,9.03-3.99,7.15-3.1,9.43,1.17,6.81,2.71,13.46-1.91,6.5,5.85,7.19,4.89,1.33,5.25,3.54,1.91,11.69,20.98-2.11-6.72-1.62-8.81-8.1-7.61-.21-7.57-7.9-5.45-1.83-6.85,6.73-4.95,7.99-6.29,9.3-3.19,13.85.14,9.55,1.12,8.31,7.57,8.79,3.3,4.13,7.76,4.08,5.99,2.39,5.82,2.92,5.43-8.82,7.38-2.46,8.74-5.87,4.84-4.62,5.2-9.16,2.07-5.01,5.36-7.32,1.41-6.52,1.9-7.7,3.86,16.36-3.81,7.58-2.11,3.29-3.78,4.58-.76,1.06,4.34,3.96-6.02,5.93-5.97,4.86-3.72,3.44-2.6,3.11-7.03,2.31-1.45,3.35-3.19,3.31-1.28,5.18.86,4.58-.17,4.23,3.64,1.28,6.89,6.23,15.77-2.41,2.97-3.55,3.08-.66,5.66-.79,14.17-1.97,4.36.17,3.95-1.82,9.24,3.04-9.13h0ZM366.73,358.56l-.76,5.39-8.74,3.4-2.9,1.93-5.66,1.24-6.9,3.95-3.5,2.56-3.39.66-7.51,4.2-5.27-3.36-2.73-4.71-3.31-1.54-3.22-1.21-6.3-7.19-8.08-9.48-14.48-7.23-2.47-11.22-18.55-20.13,4.39-7.65-.49-14.12,12.09-9.3,8.41-.6,10.51-.1.84-6.57,2.06-6.49,12.2-9.87,8.86-.21,10.3,10.73,5.28,5.48,7.81.19,1.69,4.51,4.9.25,4.7,1.33,5.81,8.06-2.06,13.49,4.51,2.75,4.36,6.71,5.34,8.72,4.6,9.07-1.93,4.49-1.69,4.48-.02,4.9-5.03,6.77-3.66,5.69h0ZM325.02,228.75l.11-.07,1.17-.28,24.65-9.87,7.74,3.07,10,3.16,10.87,2.41,7.59,8.04,3.27,6.47.78,7.53-1.9,4.74-6.39,2.55-17.15,10.46-9.38,3.49-6.75-4.35-5.34,1.18-5.96-5.19-5.58-4.04-1.6-7.74-3.93-7.37-3.68-3.87,1.49-10.33h0ZM504.62,329.11l8.2,5.69,10.14,3.39,6.6.64,4.41,6.32,7.73,6.97,4.77,3.28,2.7,1.37.2,1.8-2.23,2.95-7.31,3.83-3.12,2.36-5.72,3.2-2.14,2.2-2.64,1.12-7.01,3.64-4.94,4.63-2.08,4.93-4.14,1.13-8.6,1.63-5.9.36-3.98-1.27-7.05-1.47-7.28-2.21-2.12-1.22-.4-4.92.58-4.39-1.86-2.56-3.53-5.13,3.46-4.99.42-4.55,7.18.66,2.69,2.6,4.41,1.48,4.67,2.08,2.58,2.16,11.34,2.92-11.42-5.59-5.53-2.53-3.62-1.51-2.78-5.81-1.87-6.12.18-3.96,2.51-1.68,2.29-4.14.68-1.77,2.46-1.17,3.23-3.62,2.67-3.06,11.16.32h0ZM517.65,275.53l5.5.73,5.45,5.18-5.46,1.02-6.46,3.55-11.04,4.4-2.56-5.5-2.67-4.9-1.03-1.09,1.83-.9,7.76-3.24,8.69.75h0ZM447.45,255.14l11.73,4.26,10.77,4.81,3.9,2.93,2.61,1.35,1.79,9.24,7.67.35,4.93,1.54,3.64.72,4.33,6.17,1.52,7.62,2.5,6.82-2.87,2.36-3.51,4.79-4.73,5.65.69,7.1-2.83,1.94-2.75,6.08-5.46,5.29-6.43,4.15-1.52,14.19-4.69,1.38-4.67,2.77-3.96,4.09-8.13-.21-9.77.32-11.23-1.97-13.06-5.29-4.33-9.12-6.84.54-6.74-2.08-8.82-10.32-1.68-5.27-2.03-3.66.03-6.44-8.81-11.29-5.16-8.63.18-9.09,5.82-5.59,2.95-6.97,8.73-8.67,6.18-2.35,8-.47,5.67-4.33,6.72-3.85,5.52-2.29,4.76-.65,5.72-1.07,4.53.11.59.32,8.5,2.74h0ZM376.08,139.81l5.14-5.44,5.42-3.24,6.37-5.55,4.9-6.02.53-2.71,1.44-.5,6.43-1.77,3.97-.93,6.3-2.48,7.4,1.83,9.01,10.29,3.01,3.01.99,2.98,5.69,1.99,1.62,1.89,4.41,9.8,1.02,6.01-2.88,4.74,5.82,13.74,5.43,16.33-1.94,5.82-.29,6.04-2.66,4.15.78,5.94-1.24,4.08,2.57,3.25-.12,2.56-5.45,6.24-2.89,7.14-8.59,8.06-2.33.5-5.06,3.25-5.77.52-5.66,1.9-4.39,1.84-7.79-.41-2.67,3.7-5.67-1.94-3.14-5.19-3.07-4.21-.66-4-5.28-3.76-11.84-8-10.2-1.95-11.44-8.23,5.16-11.14,3.72-5.6,1.33-6.76,5.69-12.1,6.78-7.59-2.38-3.54-.49-4.66-4.16-7.14,7.14-12.74h0ZM292.44,200.24l-.22-2.49,3.38-6.93.97-8.67,12.85-9.52,11.77-5.42,9.49-6.84,7.23-5.1,3.82-4.5,3.22-.78,6.86,1.01,9.52,2.73,7.17,7.14-.08,7.54-4.29,8.36-3.81,10.46-4.68,9.15-5.32,10.35-7.56,6.04-.34.22-1.29.42-4.31,2.79-4.13,1.83-5.24,3.94-6.93,2.22-4.51.24-2.39-1.91-12.79-7.88-3.17-3.17-1.93-4.94-4.21-4.19.92-2.11h0ZM197.46,287.84l-3.05-7.53,1.36-3.58.48-4.87,5.05-5.61-4.76-7.43-7.71-10.15-2.66-4.31-.7-4.55-3.12-5.5,1.39-4.7,5.42.3,1.69-2.36,16.65-13.07,17.93-3.17,6.12,1.9,7.67-2.97,15.98-7.75,11.51,3.79,8.42,2.17,3.87,5.32,4.4,2.82,7.68,5.2-1.35,6.96,4.89-4.58,5.82,3.23,5.45,4.53,1.79,1.04.88.97,2.42,6.95-4.13,9.54-.36,7.32-5.83,5.56-5.65,6.8.07,6.23-.72,3.87-8.47.05-6.13-.27-4.91-2.92-2.68,1.32-7,.65-4.35-3.54-8.94-9.08-4.77-1.97-4.1-4.11-3.57-4.25-.65-2.93-13.77,1.48,12.79,3.31,3.48,4.17,3.34,3.78,1.46,2.4,4.48,2.39,7.68,6.46.08,3.84,4.83,1.51,3.81,1.94-1.1,3.82-5.38,6.58.62,7.62-8.14,9.51,5.31,5.39-2.13,2.52-6.08.81,7.47.72,12.3,9.49,6.7,7.71.79,8.79-4.53,2.7-4.82,1.33-4.62,2.48-3.76-3.88-4.35-2.31-5.9-4.81-.48-8.35-4.96-4.11-4.37-5.4,3.33-.7,2.23-2.51-4.88-.42-6.41-.09-3.26-3.05-4.09-1.61-10.24-2.35-9.05-.3-4.48-4.87-2-3.04-.94-7.25-2.22-11.04h0ZM218.79,416.99l-8.73,7.92-9.42-2.25-9.55-.97-7.04.22-4.41-2.39-7.52-3.31-4.64-4.96-.55-10.36-3.98-8.5-.81-10.84-1.86-3.83-3.9-3.05-2.33-4.31-3.21-11.46,8.84-7.55,6.57-5.94,4.81-6.9,6.4-5.97,4.54-5.2,9.57-11.02,4.57-1.24,1.57,2.56,9.6,2.46,5.9,2.02,3.74,3.74,8.55.11,9.09,1.97,8.68,11.51,1.64,7.42,3.69,5.23,6.03,5.43,4.01,6.03,3.42,13.84-2.98,6.53-.24,5.67,1.24,4.96-4.84,4.53-5.32,2.96-7.78.49-6.12.95-5.33,5.51-11.92,8.01h0ZM284.02,412.73l-10.5-.79-10.06-9.33,3.66-10.3,1.21-10.21,3.21-10.11-.28-12.5,9.26-3.36,4.81-3.34,5.83,8.7,1.26.7,4.65,5.82,2.53,2.51,5.23,1.48,9.67,9.39,5.05,6.07,4.47,4.08-.24,5.01-3.39,5.55.89,12.49-2.65,7.7-2.38,5.35-3,5.81,1.01,8.34-3.39-.27-3.81,1.5-4.64-1.3-1.31-.49-4.21-6.67-3.84-9.34-9.03-12.49h0Z"/>
      <polygon points="622.64 279.78 621.05 280.25 626.77 278.47 622.64 279.78 622.64 279.78"/>
    </g>
  </g>
</svg>