<?xml version="1.0" encoding="UTF-8"?>
<svg id="Layer_2" data-name="Layer 2" xmlns="http://www.w3.org/2000/svg" xmlns:xlink="http://www.w3.org/1999/xlink" viewBox="0 0 707.44 442.85">
  <defs>
    <style>
      .cls-1 {
        fill: url(#_횁책챌청챙첼챠챠청챕_찾챨횪채챔책챠챵_13-27);
      }

      .cls-2 {
        fill: url(#_횁책챌청챙첼챠챠청챕_찾챨횪채챔책챠챵_13-14);
      }

      .cls-3 {
        fill: url(#_횁책챌청챙첼챠챠청챕_찾챨횪채챔책챠챵_13-9);
      }

      .cls-4 {
        fill: url(#_횁책챌청챙첼챠챠청챕_찾챨횪채챔책챠챵_13-20);
      }

      .cls-5 {
        fill: url(#_횁책챌청챙첼챠챠청챕_찾챨횪채챔책챠챵_13-15);
      }

      .cls-6 {
        fill: url(#_횁책챌청챙첼챠챠청챕_찾챨횪채챔책챠챵_13-32);
      }

      .cls-7 {
        fill: url(#_횁책챌청챙첼챠챠청챕_찾챨횪채챔책챠챵_13-28);
      }

      .cls-8 {
        fill: url(#_횁책챌청챙첼챠챠청챕_찾챨횪채챔책챠챵_13-34);
      }

      .cls-9 {
        fill: url(#_횁책챌청챙첼챠챠청챕_찾챨횪채챔책챠챵_13-25);
      }

      .cls-10 {
        fill: url(#_횁책챌청챙첼챠챠청챕_찾챨횪채챔책챠챵_13-18);
      }

      .cls-11 {
        fill: url(#_횁책챌청챙첼챠챠청챕_찾챨횪채챔책챠챵_13-17);
      }

      .cls-12 {
        fill: url(#_횁책챌청챙첼챠챠청챕_찾챨횪채챔책챠챵_13-39);
      }

      .cls-13 {
        fill: url(#_횁책챌청챙첼챠챠청챕_찾챨횪채챔책챠챵_13-22);
      }

      .cls-14 {
        fill: url(#_횁책챌청챙첼챠챠청챕_찾챨횪채챔책챠챵_13-6);
      }

      .cls-15 {
        fill: url(#_횁책챌청챙첼챠챠청챕_찾챨횪채챔책챠챵_13);
      }

      .cls-16 {
        fill: none;
      }

      .cls-17 {
        fill: url(#_횁책챌청챙첼챠챠청챕_찾챨횪채챔책챠챵_13-21);
      }

      .cls-18 {
        fill: url(#_횁책챌청챙첼챠챠청챕_찾챨횪채챔책챠챵_13-41);
      }

      .cls-19 {
        fill: url(#_횁책챌청챙첼챠챠청챕_찾챨횪채챔책챠챵_13-23);
      }

      .cls-20 {
        fill: url(#_횁책챌청챙첼챠챠청챕_찾챨횪채챔책챠챵_13-36);
      }

      .cls-21 {
        fill: url(#_횁책챌청챙첼챠챠청챕_찾챨횪채챔책챠챵_13-11);
      }

      .cls-22 {
        fill: url(#_횁책챌청챙첼챠챠청챕_찾챨횪채챔책챠챵_13-10);
      }

      .cls-23 {
        fill: url(#_횁책챌청챙첼챠챠청챕_찾챨횪채챔책챠챵_13-2);
      }

      .cls-24 {
        fill: url(#_횁책챌청챙첼챠챠청챕_찾챨횪채챔책챠챵_13-16);
      }

      .cls-25 {
        fill: url(#_횁책챌청챙첼챠챠청챕_찾챨횪채챔책챠챵_13-13);
      }

      .cls-26 {
        fill: url(#_횁책챌청챙첼챠챠청챕_찾챨횪채챔책챠챵_13-12);
      }

      .cls-27 {
        fill: url(#_횁책챌청챙첼챠챠청챕_찾챨횪채챔책챠챵_13-40);
      }

      .cls-28 {
        fill: url(#_횁책챌청챙첼챠챠청챕_찾챨횪채챔책챠챵_13-29);
      }

      .cls-29 {
        fill: url(#_횁책챌청챙첼챠챠청챕_찾챨횪채챔책챠챵_13-31);
      }

      .cls-30 {
        fill: url(#_횁책챌청챙첼챠챠청챕_찾챨횪채챔책챠챵_13-26);
      }

      .cls-31 {
        fill: url(#_횁책챌청챙첼챠챠청챕_찾챨횪채챔책챠챵_13-3);
      }

      .cls-32 {
        fill: url(#_횁책챌청챙첼챠챠청챕_찾챨횪채챔책챠챵_13-7);
      }

      .cls-33 {
        fill: url(#_횁책챌청챙첼챠챠청챕_찾챨횪채챔책챠챵_13-33);
      }

      .cls-34 {
        fill: url(#_횁책챌청챙첼챠챠청챕_찾챨횪채챔책챠챵_13-42);
      }

      .cls-35 {
        fill: url(#_횁책챌청챙첼챠챠청챕_찾챨횪채챔책챠챵_13-19);
      }

      .cls-36 {
        fill: url(#_횁책챌청챙첼챠챠청챕_찾챨횪채챔책챠챵_13-8);
      }

      .cls-37 {
        fill: url(#_횁책챌청챙첼챠챠청챕_찾챨횪채챔책챠챵_13-38);
      }

      .cls-38 {
        fill: url(#_횁책챌청챙첼챠챠청챕_찾챨횪채챔책챠챵_13-24);
      }

      .cls-39 {
        fill: url(#_횁책챌청챙첼챠챠청챕_찾챨횪채챔책챠챵_13-30);
      }

      .cls-40 {
        fill: url(#_횁책챌청챙첼챠챠청챕_찾챨횪채챔책챠챵_13-35);
      }

      .cls-41 {
        clip-path: url(#clippath);
      }

      .cls-42 {
        fill: url(#_횁책챌청챙첼챠챠청챕_찾챨횪채챔책챠챵_13-37);
      }

      .cls-43 {
        fill: url(#_횁책챌청챙첼챠챠청챕_찾챨횪채챔책챠챵_13-5);
      }

      .cls-44 {
        fill: url(#_횁책챌청챙첼챠챠청챕_찾챨횪채챔책챠챵_13-4);
      }
    </style>
    <clipPath id="clippath">
      <path class="cls-16" d="M703.25,330.29l-7.24-2.45-15.04-1.9-12.83-9.13-4.16-4.11-4.24-2.41-7.26-.73-15.4-1.56-34.91,1.9-11.82-4.06-12.48-1.88-12.43-6.06-9.29,3.35-15.42,6.07-24.67-.62-17.08-1.63-5.42-7.79-25.92-.45-32.63-18.61-15.66-18.89-17.29-20.57-3.62-3.73-5.39-.53-.95-4.85,4.66-7.46,4.79-6.6,3.09-6.17,6.2-7.17-6.6-11.27-6.62-13.59-1-5.15,5.36-4.29,21.02-8.59,27.97-13.46,17.98-7.34,21.07,7.88,20.56,11.23,13.9,10.27,7.86,4.76,5.54,5.62,1.05,9.68-7.41,13.95-16.73,8.51-12.29,9.93-22.94,18.02,17.46-11.86,6.83-4.07,5.77-6.15,15.58-5.97,12.55-4.35,12.99,8.21,10.95,2.09,12.61,1.22,16.4.84-14.58-1.71-8.68-.19-6.13-1.9-10.11-3.53-11.55-8.1,5.67-11.24,13.85-13.7,10.4-2.65,10.09.32,9.53-1.3,9.8.35,17.32-2.05,8.07,7.35,5.62,8.16,2.22,5.7,4.43,3.45-.76-11.6,10.73,1.58,13.73,1.5,10-1.27,7-2.22-16.63,2.15-22.54-4.5-16.38-8.76-4.58-5.68,7.62-5.01,18.36-7.33,29.46-9.3-28.32,6.67-9.8.29-8.7,3.89-17.42,10.5-11.08.61-13.67,1.72-9.47.74-11.65,1.4-13.05,2.59-8.51-2.95-16.95-13.73-3.37-7.72,5.89-6.2,6.26-7.09,15.97-7.31-9.68,2.9-17.13,11.07-11.16,6.04-12.75-5.46-14.36-8.85-7.88-8.7.45-11.8,3.17-11.22-6.47-4.4,7.34-14.1,9.47-8.28,5.73-15.75,25.84-15.7,12.95-8.03,15.49-10.85,14.41-6.98,12.04-7.08,10.01-7.6,15.51-3.7-10.63,1.83-9.73,1.52-6.84,6.45-9.39,5.69-15.14,5.28,2.83-4.44,2.09-6.19,3.81-6.46,6.81-5.46-12.45,9.95-10.69,15.78-17.13,12.59-19.2,6.95-19.62,7.79-5.17-11.63,2.21-7.65-4.9-9.72,2.69,6.98-1.51,6.52-2,7.11,2.48,12.22.19,8.17-2.32,7.69-14.84,13.33-16.5,3.98-.19.5,9.01,3.42,4.38,5.75,3.75,5.2-.06,10.82.02,12.49-12.3,5.46-13.02,7.39-27.96,8.66-7.88-.26-12.24.8-.48-8.41,9.67-8.76-7.01-3.91,3.77-7.38,5.63-5.78-3.67-4.22,4.14-6.01,4.16-5.21v-7.86s2.02-7.36,2.02-7.36l15.33-15.4,12.72-13.85,4.86-9.9,2.88-12.76-3.69,6.05-1.23,5.4-6.14,9.3-5.5-20.56-2.46-8.59-4.25-9.71,1.94,10.55,1.26,8.15,1.37,15.93,1.24,9.9-11.36,13.22-13.11,9.29-2.48,16.16-10.03,11.42-10.22-4.45-10.57-3.94,7.91,4.7,7.83,6.3,2.35,4.42-2.85,6.55-3.28,2.4-2.58,3.74-6.66,1.35-9.15.89-12.5,2.37-10.02-1.19-10.82-6.92-15.28-9.55-5.34-8.92-2.74-10.14,7.73-7.79,3.8-7.42,6.21-8.47,2.22-9.92-5.75,10.83-4.59,3.96-3.43,4.71-8.78,9.63-3.24,1.38-7.83-1.42-8.26-2.42-6.45-3.41-11.56-2.19-3.81-5.71-4.85-12.62-7.07-10.54-5.86-6.58-9.07-3.88-3.99-9.67-5.69-9.2-2-9.33.81,10.54,1.91,9.4,6.31,12.16,8.09,4.54,12.68,15.45,5.34,13.14,1.51,6.44,5.27.72,15.01,3.47,14.06,8.38,7.55,11.18,2.51,12.99-5.33,6.75-12.21,13.22-16.56,3.17-10.76-2.87-5.51,2.87-15.03,7.96-19.57-5.99-11.53-6.27-7.56-3.28-2.01-6.02-.6-9.94,1.1-12.64-1.73,8.38-5.89-6.43.78-28.37-1.23,18.6-6.63,11.78-13.49-.63-19.23-1.69-9.02-4.83-9.38-8.08-.96-7.07,1.71-10.13,9.62-1.08,2.47-5.67,1.5-12.09-4.97-15.29-1.2,9.64,2.5,6.49-.45,8.84-2.23,3.19-10.92,1.7-5.98.18-16.38-6.32,7.11,3.22,5.53,3.94,4.63,1.99-.57,19.19,7.06,2.67,6.19,6.15,6.94,9.7,7.37-.31,10.34-.56,8.8,1.49,10.51,1.18,11.42,2.22,1.61,9.36,2.48,10.63,16.25,6.62,14.96,9.11,4.86,8.64,1.21,5.43-.07,7.2,6.04,6.48-2.88-15.43,2.13-13.03,11.75-3.8,10.66-2.73,8.62,2.61-3.77,5.15-10.48,4.04,14.58-2.83,17.58-11.74,11.38-8.69,4.49-4.26,18.56-3.11,9.54,4.49,6.49,4.53,14.17-2.04,19.29,5.79.77,11.25-3.02,13.66-1.69,7.48-30.95,11.33,14.01,9-10.16,15.31-11.87,8.68-12.69,8.73-23.15-5.71-9.48,3.2-6.59-3.09-9.79-14.13-4.31-4.63,3.29-6.77-.38-10.21-3.32,11.88-20.78-11.38,5.17,5.52,8.24,11.17,9.14,9.33,12.41,16.69-19.5,3.93-16.16-4.71-18.66-8.1-15.5-10.9-5.08-5.07v-2.16s-2.8-3.93-2.8-3.93l2.17-5.43-.29-4.28.79-7.34-3.69,7.89-4.75,6.24-8.47-6.24-16.2-13.13-9.81-14.65,2.24,7.66-1.86,5.72-7.91-2.38-13.22-.39-15.42-7.46-8.69-15.41-13.72-10.88-15.03-11.5-9.83-11.7-5.05-2.94-4.86-5.35,7.34,9.48,3.13,11.8-11.97-3.04-19.57-8.24L0,112.47l25.43,6.99,24.24,6.64,14.36,9.64,13.32,4.63,12.9,3.84,9.21,11.3,8.48,10.03,1.61,5.54,5.11,8.94-16.83,10.94-18.21,1.3-9.86,3.81-15.33,6.05-31.14,11.72-15.33,9.11,28.62-10.42,25.78-4.9,6.81-.46,1.64-2.23,9.29-5.84,10.55-.23,17.07-4.49,22.28-3.52,18.35.5,10.4,10.33,6.06,3.97,6.5,3.1,8.79,6.48-3.67,6.8,8.16.29,10.62,3.82,18.12,12.48,17.31,9.94-2.8,11.79-6.75,13.3-2.11,3.38-2.75,3.84,4.71,4.9-2.74,9.6-5.69,3.94-1.96.59-7.74,2.32-4.54,7.37-5.08,5.38.51,4.5-20.78-.88-13.72-2.61-8.36-3.55-3.03-2.47-1.71-2.84-3.31-2.15-5.68-6.32-5.32-5.48-1.92-12.01-6.66-5.71-9.23-5.8-8.22-4.12-3.97-7.51-3.09-5.9-3.3-3.07-12.02-6.88,10.39,7.56,2.39,4.47.54,9.55-9.77.92-6.99,3.26,3.84-1.34,7.61-.73,6.98,1.98,9.69.94,4.14,5.1,10,6.85,3.36,11.57,9.58,14.44,5.95,5.73-1.65,4.13-7.54,7.58-9.71,9.6-10.42,9.4-7.69,3.05-14.03.96-7.18-.84-8.31-5.88-8.2-.2-13.87,8.62-16.02-1.99-15.77-2.54-8.98,1.14,25.57,4.09,9.5,1.75,8.72,1.8-3.63,3.58,6.46-4.1,1.02-3.03,4.73-4.28,7.31-2.4,5.89,4.04,5.9,4.01,8.54-1.35,10.29.38,5.56.91,2.3.24-.49,5.15,3.93-6.52,7.08-9.22,23.06-20.12,1.14-.48,14.28,2.63,10.73,1.8,5.64,5.43,12.48,7.51-7.42,13.07-5.87,16.3-4,6.69-10.75,4.56-15.58,4.99-10.65,3.81-12.5,10.49-6.81,6.55-.84,4.27-5.67,3.79-11.35,1.34-7.48,2.71-10.63,3.36-11.33,2.51-9.88,3.73-8.07,3.82,8.6-3.02,9.37-2.11,19.55-3.77,7.8-2.69,3.79-.73,6.19,1.47,5.79.3-6.92,7.08-7.52,7.97,11.67-7.66,9.09-8.4,8.23-9.59,5.11-6.48,4.89-6.5,12.68-3.55,12.76-.98,10.55-3.52,8.81-2.41,4.03,3.33,3.51,3.76-3.13,11.8-4.3,7.93-.94,5.49-1.17,6.2-5.95,5.27-7.68,9.42,8.84-6.87,8.46-6.96,4.31-11.73,8.23-6.03.25-7.37,1.44-8.27,2.24-6.34-1.59-6.34,11.22-11.82,4.49.72,24.62,6.78,11.95,4.47,9.92,5.15,13.34-3.3,11.24-2.19.75-.58,1.31,1.73,4.8,4.15,4.29,4.51,15.19,2.9,11.06,7.17,8.91,6.98.9,6.75,1.97,4.67,1.7,5.2.58,5.08,4.45,3.54,3.85,4.53,4.76,8.37.56-5.99-3.18-6.14-3.47-5.9.6-4.32-2.15-9.86v-7.42l1.36-7.2,3.65-4.42,17.45-6.49,16.98-7.75,6.75-6.71,7.42-.58,8.63,3.42,12.66,11.23,4.84,9.61,15.44,13.64,6.19,4.43,7.9,3.77-17.36-16.88-11.25-15.28-10.72-10.89-2.22-8.81,3.18-11.48,9.44-10.63,3.2-10.95-.34-5.37,2.57-3.67,11.82-11.38,13.08-.95,17.38,4.65,14.42,4.27,9.73,10.66,8.17,8.86,8.54,21.14,3.8,15.72-2.54,7.59-4.21,4.79,3.87-1.35,8.17-.44,10.1,1.56,6.34,3.23,15.48,8.09,8.47,7.56,6.42,6.85,13.04,1.32,15.42-3.8,14.45-1.38,13.85,2.16-7.82-2.78-7.67-3.04-16.57,2.87-14.34,1.35-11.55-7.65-16-12.34-18.9-8.06-3.03-9.14-5.02-11.51,4.89-3.58,5.66-2.31,4.91-2.65,20.1.72,11.95,7.98,19.97,5.07-18.13-9.8-5.26-6.31,2.85-2.36,6.8-4.3,4.89-1.44,6.2-5.5,9.44-8.67,4.29-5.06,6.33-2.36,7.69-2.34,10.5.43,9.43-1.37,17.97-.48,7.41,1.27,6.55,3.25,6.89,5.4,5.14,4.38,5.55-1.42,9.04.44,9.33.31,6.86,2.04-4.19-2.09ZM283.48,358.47l-2.14,9.9-7.65,4.66-10.44,4.72-6.85,1.37-11.33-6.64-11.07-3.03-8.44-3.93-7.62-4.06-7-1.26-.79-22.75,2.86-11.26,2.08-4.87.57-3.69,13.51-4.64,5.3-3.47,23.95-1.76,14.42,11.31,8.87,6.08,6.7,3.39,4.43,4.16,1.22,8.42-3.53,7.99-7.07,9.36ZM361.77,378.86l-12.3,4.13-8.12,4.98-3.63,3.94-3.1,4.77-5.67-2.09-6.73-4.12-9.76-4.29h-11.97s-6.11-4.86-6.11-4.86l-5.62-12.52.44-4.31,2.69-3.43,2.19-3.36,4.67-2.46-1.19-5.85,1.01-5.3,2.14-6.81,1.77-2.91,4.6-1.24,3.85-1.59,10.96-2.38,1.88.61,14.32,14.64,6.35,9.8,13.76,8.66,9.93,4.76,3.32,3.49-9.72,7.74ZM414.01,305.01l-4.31,9.93.22,7.59-2.57,6.83-1.08,5.5-4.67,7.25-3.43,6.91-.96,7.39-5.31,2.51-6.31,2.72-8.72.97-14.19-5.65-12.78-6.51-9.4-10.11-7-7.34-7.05-3.39-4.16-2.57-15.21,1.07-17.76-3.39-11.72-6.86-7.45-8.33-26.62-14.57-1.52-1.19.39-3.16,6.96-16.04,19.52-18.58,17.62-1.7,16.13-4.06,9.71-.97,13.86,1.47-11.61,10.71,13.46-4.73,9.88-7.47,14.72-3.69,11.85,2.21,14.01,8.4,2.69,3.65,4.71,3.62,9.64,10.37,22.37,19.99-3.93,11.26ZM591.48,328.17l-10.04,8.7-15.09,6.65-5.52,4.59-5.86-1.36-21.24,1.18-14.09,1.67-7.31-13.45-4.39-10.72,10.74-5.45,18.86-1.36,10.57-1.72,7.28-3.85,13.69-1.6,11.96,2.9,9.24,2.42,4.94,5.89-3.76,5.5Z"/>
    </clipPath>
    <linearGradient id="_횁책챌청챙첼챠챠청챕_찾챨횪채챔책챠챵_13" data-name="횁책챌청챙첼챠챠청챕 찾챨횪채챔책챠챵 13" x1="354.86" y1="230.24" x2="354.86" y2="179.77" gradientUnits="userSpaceOnUse">
      <stop offset="0" stop-color="#000"/>
      <stop offset=".28" stop-color="#252525"/>
      <stop offset=".58" stop-color="#464646"/>
      <stop offset=".83" stop-color="#5b5b5b"/>
      <stop offset="1" stop-color="#636363"/>
    </linearGradient>
    <linearGradient id="_횁책챌청챙첼챠챠청챕_찾챨횪채챔책챠챵_13-2" data-name="횁책챌청챙첼챠챠청챕 찾챨횪채챔책챠챵 13" x1="334.94" y1="247.18" x2="334.94" y2="200.07" xlink:href="#_횁책챌청챙첼챠챠청챕_찾챨횪채챔책챠챵_13"/>
    <linearGradient id="_횁책챌청챙첼챠챠청챕_찾챨횪채챔책챠챵_13-3" data-name="횁책챌청챙첼챠챠청챕 찾챨횪채챔책챠챵 13" x1="304.9" y1="241.5" x2="304.9" y2="226.78" xlink:href="#_횁책챌청챙첼챠챠청챕_찾챨횪채챔책챠챵_13"/>
    <linearGradient id="_횁책챌청챙첼챠챠청챕_찾챨횪채챔책챠챵_13-4" data-name="횁책챌청챙첼챠챠청챕 찾챨횪채챔책챠챵 13" x1="289.48" y1="245.72" x2="289.48" y2="225.67" xlink:href="#_횁책챌청챙첼챠챠청챕_찾챨횪채챔책챠챵_13"/>
    <linearGradient id="_횁책챌청챙첼챠챠청챕_찾챨횪채챔책챠챵_13-5" data-name="횁책챌청챙첼챠챠청챕 찾챨횪채챔책챠챵 13" x1="287.51" y1="103.9" x2="287.51" y2="84.93" xlink:href="#_횁책챌청챙첼챠챠청챕_찾챨횪채챔책챠챵_13"/>
    <linearGradient id="_횁책챌청챙첼챠챠청챕_찾챨횪채챔책챠챵_13-6" data-name="횁책챌청챙첼챠챠청챕 찾챨횪채챔책챠챵 13" x1="331.92" y1="141.99" x2="331.92" y2="97.96" xlink:href="#_횁책챌청챙첼챠챠청챕_찾챨횪채챔책챠챵_13"/>
    <linearGradient id="_횁책챌청챙첼챠챠청챕_찾챨횪채챔책챠챵_13-7" data-name="횁책챌청챙첼챠챠청챕 찾챨횪채챔책챠챵 13" x1="373.33" y1="150.77" x2="373.33" y2="121.32" xlink:href="#_횁책챌청챙첼챠챠청챕_찾챨횪채챔책챠챵_13"/>
    <linearGradient id="_횁책챌청챙첼챠챠청챕_찾챨횪채챔책챠챵_13-8" data-name="횁책챌청챙첼챠챠청챕 찾챨횪채챔책챠챵 13" x1="394.41" y1="127.07" x2="394.41" y2="96.29" xlink:href="#_횁책챌청챙첼챠챠청챕_찾챨횪채챔책챠챵_13"/>
    <linearGradient id="_횁책챌청챙첼챠챠청챕_찾챨횪채챔책챠챵_13-9" data-name="횁책챌청챙첼챠챠청챕 찾챨횪채챔책챠챵 13" x1="395.62" y1="135.98" x2="395.62" y2="128.03" xlink:href="#_횁책챌청챙첼챠챠청챕_찾챨횪채챔책챠챵_13"/>
    <linearGradient id="_횁책챌청챙첼챠챠청챕_찾챨횪채챔책챠챵_13-10" data-name="횁책챌청챙첼챠챠청챕 찾챨횪채챔책챠챵 13" x1="408.26" y1="184.99" x2="408.26" y2="141.53" xlink:href="#_횁책챌청챙첼챠챠청챕_찾챨횪채챔책챠챵_13"/>
    <linearGradient id="_횁책챌청챙첼챠챠청챕_찾챨횪채챔책챠챵_13-11" data-name="횁책챌청챙첼챠챠청챕 찾챨횪채챔책챠챵 13" x1="450.47" y1="147.46" x2="450.47" y2="125.31" xlink:href="#_횁책챌청챙첼챠챠청챕_찾챨횪채챔책챠챵_13"/>
    <linearGradient id="_횁책챌청챙첼챠챠청챕_찾챨횪채챔책챠챵_13-12" data-name="횁책챌청챙첼챠챠청챕 찾챨횪채챔책챠챵 13" x1="402.73" y1="220.51" x2="402.73" y2="172.18" xlink:href="#_횁책챌청챙첼챠챠청챕_찾챨횪채챔책챠챵_13"/>
    <linearGradient id="_횁책챌청챙첼챠챠청챕_찾챨횪채챔책챠챵_13-13" data-name="횁책챌청챙첼챠챠청챕 찾챨횪채챔책챠챵 13" x1="412.53" y1="284.53" x2="412.53" y2="229.02" xlink:href="#_횁책챌청챙첼챠챠청챕_찾챨횪채챔책챠챵_13"/>
    <linearGradient id="_횁책챌청챙첼챠챠청챕_찾챨횪채챔책챠챵_13-14" data-name="횁책챌청챙첼챠챠청챕 찾챨횪채챔책챠챵 13" x1="477.94" y1="319.24" x2="477.94" y2="291.36" xlink:href="#_횁책챌청챙첼챠챠청챕_찾챨횪채챔책챠챵_13"/>
    <linearGradient id="_횁책챌청챙첼챠챠청챕_찾챨횪채챔책챠챵_13-15" data-name="횁책챌청챙첼챠챠청챕 찾챨횪채챔책챠챵 13" x1="510.37" y1="328.23" x2="510.37" y2="302.51" xlink:href="#_횁책챌청챙첼챠챠청챕_찾챨횪채챔책챠챵_13"/>
    <linearGradient id="_횁책챌청챙첼챠챠청챕_찾챨횪채챔책챠챵_13-16" data-name="횁책챌청챙첼챠챠청챕 찾챨횪채챔책챠챵 13" x1="513.72" y1="358.08" x2="513.72" y2="324.91" xlink:href="#_횁책챌청챙첼챠챠청챕_찾챨횪채챔책챠챵_13"/>
    <linearGradient id="_횁책챌청챙첼챠챠청챕_찾챨횪채챔책챠챵_13-17" data-name="횁책챌청챙첼챠챠청챕 찾챨횪채챔책챠챵 13" x1="547.29" y1="353.32" x2="547.29" y2="343.54" xlink:href="#_횁책챌청챙첼챠챠청챕_찾챨횪채챔책챠챵_13"/>
    <linearGradient id="_횁책챌청챙첼챠챠청챕_찾챨횪채챔책챠챵_13-18" data-name="횁책챌청챙첼챠챠청챕 찾챨횪채챔책챠챵 13" x1="573.28" y1="315.64" x2="573.28" y2="296.26" xlink:href="#_횁책챌청챙첼챠챠청챕_찾챨횪채챔책챠챵_13"/>
    <linearGradient id="_횁책챌청챙첼챠챠청챕_찾챨횪채챔책챠챵_13-19" data-name="횁책챌청챙첼챠챠청챕 찾챨횪채챔책챠챵 13" x1="648.86" y1="318.27" x2="648.86" y2="303.45" xlink:href="#_횁책챌청챙첼챠챠청챕_찾챨횪채챔책챠챵_13"/>
    <linearGradient id="_횁책챌청챙첼챠챠청챕_찾챨횪채챔책챠챵_13-20" data-name="횁책챌청챙첼챠챠청챕 찾챨횪채챔책챠챵 13" x1="522.76" y1="385.86" x2="522.76" y2="360.43" xlink:href="#_횁책챌청챙첼챠챠청챕_찾챨횪채챔책챠챵_13"/>
    <linearGradient id="_횁책챌청챙첼챠챠청챕_찾챨횪채챔책챠챵_13-21" data-name="횁책챌청챙첼챠챠청챕 찾챨횪채챔책챠챵 13" x1="562.21" y1="412.31" x2="562.21" y2="389.01" xlink:href="#_횁책챌청챙첼챠챠청챕_찾챨횪채챔책챠챵_13"/>
    <linearGradient id="_횁책챌청챙첼챠챠청챕_찾챨횪채챔책챠챵_13-22" data-name="횁책챌청챙첼챠챠청챕 찾챨횪채챔책챠챵 13" x1="407.55" y1="368.5" x2="407.55" y2="293.19" xlink:href="#_횁책챌청챙첼챠챠청챕_찾챨횪채챔책챠챵_13"/>
    <linearGradient id="_횁책챌청챙첼챠챠청챕_찾챨횪채챔책챠챵_13-23" data-name="횁책챌청챙첼챠챠청챕 찾챨횪채챔책챠챵 13" x1="379.68" y1="374.37" x2="379.68" y2="358.26" xlink:href="#_횁책챌청챙첼챠챠청챕_찾챨횪채챔책챠챵_13"/>
    <linearGradient id="_횁책챌청챙첼챠챠청챕_찾챨횪채챔책챠챵_13-24" data-name="횁책챌청챙첼챠챠청챕 찾챨횪채챔책챠챵 13" x1="365.06" y1="380.58" x2="365.06" y2="369.29" xlink:href="#_횁책챌청챙첼챠챠청챕_찾챨횪채챔책챠챵_13"/>
    <linearGradient id="_횁책챌청챙첼챠챠청챕_찾챨횪채챔책챠챵_13-25" data-name="횁책챌청챙첼챠챠청챕 찾챨횪채챔책챠챵 13" x1="325.61" y1="412.52" x2="325.61" y2="385.51" xlink:href="#_횁책챌청챙첼챠챠청챕_찾챨횪채챔책챠챵_13"/>
    <linearGradient id="_횁책챌청챙첼챠챠청챕_찾챨횪채챔책챠챵_13-26" data-name="횁책챌청챙첼챠챠청챕 찾챨횪채챔책챠챵 13" x1="295.9" y1="388" x2="295.9" y2="366.47" xlink:href="#_횁책챌청챙첼챠챠청챕_찾챨횪채챔책챠챵_13"/>
    <linearGradient id="_횁책챌청챙첼챠챠청챕_찾챨횪채챔책챠챵_13-27" data-name="횁책챌청챙첼챠챠청챕 찾챨횪채챔책챠챵 13" x1="223.08" y1="370.01" x2="223.08" y2="357.83" xlink:href="#_횁책챌청챙첼챠챠청챕_찾챨횪채챔책챠챵_13"/>
    <linearGradient id="_횁책챌청챙첼챠챠청챕_찾챨횪채챔책챠챵_13-28" data-name="횁책챌청챙첼챠챠청챕 찾챨횪채챔책챠챵 13" x1="268.89" y1="382.8" x2="268.89" y2="367.43" xlink:href="#_횁책챌청챙첼챠챠청챕_찾챨횪채챔책챠챵_13"/>
    <linearGradient id="_횁책챌청챙첼챠챠청챕_찾챨횪채챔책챠챵_13-29" data-name="횁책챌청챙첼챠챠청챕 찾챨횪채챔책챠챵 13" x1="253.52" y1="306.53" x2="253.52" y2="291.66" xlink:href="#_횁책챌청챙첼챠챠청챕_찾챨횪채챔책챠챵_13"/>
    <linearGradient id="_횁책챌청챙첼챠챠청챕_찾챨횪채챔책챠챵_13-30" data-name="횁책챌청챙첼챠챠청챕 찾챨횪채챔책챠챵 13" x1="196.93" y1="347.99" x2="196.93" y2="282.18" xlink:href="#_횁책챌청챙첼챠챠청챕_찾챨횪채챔책챠챵_13"/>
    <linearGradient id="_횁책챌청챙첼챠챠청챕_찾챨횪채챔책챠챵_13-31" data-name="횁책챌청챙첼챠챠청챕 찾챨횪채챔책챠챵 13" x1="171.32" y1="385.63" x2="171.32" y2="336.28" xlink:href="#_횁책챌청챙첼챠챠청챕_찾챨횪채챔책챠챵_13"/>
    <linearGradient id="_횁책챌청챙첼챠챠청챕_찾챨횪채챔책챠챵_13-32" data-name="횁책챌청챙첼챠챠청챕 찾챨횪채챔책챠챵 13" x1="104.01" y1="418.33" x2="104.01" y2="402.34" xlink:href="#_횁책챌청챙첼챠챠청챕_찾챨횪채챔책챠챵_13"/>
    <linearGradient id="_횁책챌청챙첼챠챠청챕_찾챨횪채챔책챠챵_13-33" data-name="횁책챌청챙첼챠챠청챕 찾챨횪채챔책챠챵 13" x1="135.28" y1="325.7" x2="135.28" y2="311.06" xlink:href="#_횁책챌청챙첼챠챠청챕_찾챨횪채챔책챠챵_13"/>
    <linearGradient id="_횁책챌청챙첼챠챠청챕_찾챨횪채챔책챠챵_13-34" data-name="횁책챌청챙첼챠챠청챕 찾챨횪채챔책챠챵 13" x1="241.98" y1="269.02" x2="241.98" y2="210.43" xlink:href="#_횁책챌청챙첼챠챠청챕_찾챨횪채챔책챠챵_13"/>
    <linearGradient id="_횁책챌청챙첼챠챠청챕_찾챨횪채챔책챠챵_13-35" data-name="횁책챌청챙첼챠챠청챕 찾챨횪채챔책챠챵 13" x1="142.25" y1="191.6" x2="142.25" y2="168.76" xlink:href="#_횁책챌청챙첼챠챠청챕_찾챨횪채챔책챠챵_13"/>
    <linearGradient id="_횁책챌청챙첼챠챠청챕_찾챨횪채챔책챠챵_13-36" data-name="횁책챌청챙첼챠챠청챕 찾챨횪채챔책챠챵 13" x1="465.05" y1="109.48" x2="465.05" y2="64.18" xlink:href="#_횁책챌청챙첼챠챠청챕_찾챨횪채챔책챠챵_13"/>
    <linearGradient id="_횁책챌청챙첼챠챠청챕_찾챨횪채챔책챠챵_13-37" data-name="횁책챌청챙첼챠챠청챕 찾챨횪채챔책챠챵 13" x1="504.97" y1="73.96" x2="504.97" y2="36.36" xlink:href="#_횁책챌청챙첼챠챠청챕_찾챨횪채챔책챠챵_13"/>
    <linearGradient id="_횁책챌청챙첼챠챠청챕_찾챨횪채챔책챠챵_13-38" data-name="횁책챌청챙첼챠챠청챕 찾챨횪채챔책챠챵 13" x1="488.38" y1="145.54" x2="488.38" y2="120.93" xlink:href="#_횁책챌청챙첼챠챠청챕_찾챨횪채챔책챠챵_13"/>
    <linearGradient id="_횁책챌청챙첼챠챠청챕_찾챨횪채챔책챠챵_13-39" data-name="횁책챌청챙첼챠챠청챕 찾챨횪채챔책챠챵 13" x1="535.65" y1="187.01" x2="535.65" y2="150.86" xlink:href="#_횁책챌청챙첼챠챠청챕_찾챨횪채챔책챠챵_13"/>
    <linearGradient id="_횁책챌청챙첼챠챠청챕_찾챨횪채챔책챠챵_13-40" data-name="횁책챌청챙첼챠챠청챕 찾챨횪채챔책챠챵 13" x1="596.03" y1="173.6" x2="596.03" y2="164.19" xlink:href="#_횁책챌청챙첼챠챠청챕_찾챨횪채챔책챠챵_13"/>
    <linearGradient id="_횁책챌청챙첼챠챠청챕_찾챨횪채챔책챠챵_13-41" data-name="횁책챌청챙첼챠챠청챕 찾챨횪채챔책챠챵 13" x1="521.74" y1="213.02" x2="521.74" y2="196.03" xlink:href="#_횁책챌청챙첼챠챠청챕_찾챨횪채챔책챠챵_13"/>
    <linearGradient id="_횁책챌청챙첼챠챠청챕_찾챨횪채챔책챠챵_13-42" data-name="횁책챌청챙첼챠챠청챕 찾챨횪채챔책챠챵 13" x1="181.07" y1="216.65" x2="181.07" y2="175.01" xlink:href="#_횁책챌청챙첼챠챠청챕_찾챨횪채챔책챠챵_13"/>
  </defs>
  <g id="_Layer_" data-name="&amp;lt;Layer&amp;gt;">
    <g>
      <path d="M703.25,330.29l-7.24-2.45-15.04-1.9-12.83-9.13-4.16-4.11-4.24-2.41-7.26-.73-15.4-1.56-34.91,1.9-11.82-4.06-12.48-1.88-12.43-6.06-9.29,3.35-15.42,6.07-24.67-.62-17.08-1.63-5.42-7.79-25.92-.45-32.63-18.61-15.66-18.89-17.29-20.57-3.62-3.73-5.39-.53-.95-4.85,4.66-7.46,4.79-6.6,3.09-6.17,6.2-7.17-6.6-11.27-6.62-13.59-1-5.15,5.36-4.29,21.02-8.59,27.97-13.46,17.98-7.34,21.07,7.88,20.56,11.23,13.9,10.27,7.86,4.76,5.54,5.62,1.05,9.68-7.41,13.95-16.73,8.51-12.29,9.93-22.94,18.02,17.46-11.86,6.83-4.07,5.77-6.15,15.58-5.97,12.55-4.35,12.99,8.21,10.95,2.09,12.61,1.22,16.4.84-14.58-1.71-8.68-.19-6.13-1.9-10.11-3.53-11.55-8.1,5.67-11.24,13.85-13.7,10.4-2.65,10.09.32,9.53-1.3,9.8.35,17.32-2.05,8.07,7.35,5.62,8.16,2.22,5.7,4.43,3.45-.76-11.6,10.73,1.58,13.73,1.5,10-1.27,7-2.22-16.63,2.15-22.54-4.5-16.38-8.76-4.58-5.68,7.62-5.01,18.36-7.33,29.46-9.3-28.32,6.67-9.8.29-8.7,3.89-17.42,10.5-11.08.61-13.67,1.72-9.47.74-11.65,1.4-13.05,2.59-8.51-2.95-16.95-13.73-3.37-7.72,5.89-6.2,6.26-7.09,15.96-7.31-9.68,2.9-17.13,11.07-11.16,6.04-12.75-5.46-14.36-8.85-7.88-8.7.45-11.8,3.17-11.22-6.47-4.4,7.34-14.1,9.47-8.28,5.73-15.75,25.84-15.7,12.95-8.03,15.49-10.85,14.41-6.98,12.04-7.08,10.01-7.6,15.51-3.7-10.63,1.83-9.73,1.52-6.84,6.45-9.39,5.69-15.14,5.28,2.83-4.44,2.09-6.19,3.81-6.46,6.81-5.46-12.45,9.95-10.69,15.78-17.13,12.59-19.2,6.95-19.62,7.79-5.17-11.63,2.21-7.65-4.9-9.72,2.69,6.98-1.51,6.52-2,7.11,2.48,12.22.19,8.17-2.32,7.69-14.84,13.33-16.5,3.98-.19.5,9.01,3.42,4.38,5.75,3.75,5.2-.06,10.82.02,12.49-12.3,5.46-13.02,7.39-27.96,8.66-7.88-.25-12.24.8-.48-8.41,9.67-8.76-7.01-3.91,3.77-7.38,5.63-5.78-3.67-4.22,4.14-6.01,4.16-5.21v-7.86s2.02-7.36,2.02-7.36l15.33-15.4,12.72-13.85,4.86-9.9,2.88-12.76-3.69,6.05-1.23,5.4-6.14,9.3-5.5-20.56-2.46-8.59-4.25-9.71,1.94,10.55,1.26,8.15,1.37,15.93,1.24,9.9-11.36,13.22-13.11,9.29-2.48,16.16-10.03,11.42-10.22-4.45-10.57-3.94,7.91,4.7,7.83,6.3,2.35,4.42-2.85,6.55-3.28,2.4-2.58,3.74-6.66,1.35-9.15.89-12.5,2.37-10.02-1.19-10.82-6.93-15.28-9.54-5.34-8.92-2.74-10.14,7.73-7.79,3.8-7.42,6.21-8.47,2.22-9.92-5.75,10.83-4.59,3.96-3.43,4.71-8.78,9.63-3.24,1.38-7.83-1.42-8.26-2.42-6.45-3.41-11.56-2.19-3.81-5.71-4.85-12.62-7.07-10.54-5.86-6.58-9.07-3.88-3.99-9.67-5.69-9.2-2-9.33.81,10.54,1.91,9.4,6.31,12.16,8.09,4.54,12.68,15.45,5.34,13.14,1.51,6.44,5.27.72,15.01,3.47,14.06,8.38,7.55,11.18,2.51,12.99-5.33,6.75-12.21,13.22-16.56,3.17-10.76-2.87-5.51,2.87-15.03,7.96-19.57-5.99-11.53-6.27-7.56-3.28-2.01-6.02-.6-9.94,1.1-12.64-1.73,8.38-5.89-6.43.78-28.37-1.23,18.6-6.63,11.78-13.49-.63-19.23-1.69-9.02-4.83-9.38-8.08-.96-7.07,1.71-10.13,9.62-1.08,2.47-5.67,1.5-12.09-4.97-15.29-1.2,9.64,2.5,6.48-.45,8.84-2.23,3.19-10.92,1.7-5.98.18-16.38-6.32,7.11,3.22,5.53,3.94,4.63,1.99-.57,19.19,7.06,2.67,6.19,6.15,6.94,9.7,7.37-.31,10.34-.56,8.8,1.49,10.51,1.18,11.42,2.22,1.61,9.36,2.48,10.63,16.25,6.62,14.96,9.11,4.86,8.64,1.21,5.43-.07,7.2,6.04,6.48-2.88-15.43,2.13-13.03,11.75-3.8,10.66-2.73,8.62,2.61-3.77,5.15-10.48,4.04,14.58-2.83,17.58-11.74,11.38-8.69,4.49-4.26,18.56-3.11,9.54,4.49,6.49,4.53,14.17-2.04,19.29,5.79.77,11.25-3.02,13.66-1.69,7.48-30.95,11.33,14.01,9-10.16,15.31-11.87,8.68-12.69,8.73-23.15-5.71-9.48,3.2-6.59-3.09-9.79-14.13-4.31-4.63,3.29-6.77-.38-10.21-3.32,11.88-20.78-11.38,5.17,5.52,8.24,11.17,9.14,9.33,12.41,16.69-19.5,3.93-16.16-4.71-18.66-8.1-15.5-10.9-5.08-5.07v-2.16s-2.8-3.93-2.8-3.93l2.17-5.43-.29-4.28.79-7.34-3.69,7.89-4.75,6.24-8.47-6.24-16.2-13.13-9.81-14.65,2.24,7.66-1.86,5.72-7.91-2.38-13.22-.39-15.42-7.46-8.69-15.41-13.72-10.88-15.03-11.5-9.83-11.7-5.05-2.94-4.86-5.35,7.34,9.48,3.13,11.8-11.97-3.04-19.57-8.24L0,112.47l25.43,6.99,24.24,6.64,14.36,9.64,13.32,4.63,12.9,3.84,9.21,11.3,8.48,10.03,1.61,5.54,5.11,8.94-16.83,10.94-18.21,1.3-9.86,3.81-15.33,6.05-31.14,11.72-15.33,9.11,28.62-10.42,25.78-4.9,6.81-.46,1.64-2.23,9.28-5.84,10.55-.23,17.07-4.49,22.28-3.52,18.35.5,10.4,10.33,6.06,3.97,6.5,3.1,8.79,6.48-3.67,6.8,8.16.29,10.62,3.82,18.12,12.48,17.31,9.94-2.8,11.79-6.75,13.3-2.11,3.38-2.75,3.84,4.71,4.9-2.74,9.6-5.69,3.94-1.96.59-7.74,2.32-4.54,7.37-5.08,5.38.51,4.5-20.78-.88-13.72-2.61-8.36-3.55-3.03-2.47-1.71-2.84-3.31-2.15-5.68-6.32-5.32-5.48-1.92-12.01-6.66-5.71-9.23-5.8-8.22-4.12-3.97-7.51-3.09-5.9-3.3-3.07-12.02-6.88,10.39,7.56,2.39,4.47.54,9.55-9.77.92-6.99,3.26,3.84-1.34,7.61-.73,6.98,1.98,9.69.94,4.14,5.1,10,6.85,3.36,11.57,9.58,14.44,5.95,5.73-1.65,4.13-7.54,7.58-9.71,9.6-10.42,9.4-7.69,3.05-14.03.96-7.18-.84-8.31-5.88-8.2-.2-13.87,8.62-16.02-1.99-15.77-2.54-8.98,1.14,25.57,4.09,9.5,1.75,8.72,1.8-3.63,3.58,6.46-4.1,1.02-3.03,4.73-4.28,7.31-2.4,5.89,4.03,5.9,4.01,8.54-1.35,10.29.38,5.56.91,2.3.24-.49,5.15,3.93-6.52,7.08-9.22,23.06-20.12,1.14-.48,14.28,2.63,10.73,1.8,5.64,5.43,12.48,7.51-7.42,13.07-5.87,16.3-4,6.69-10.75,4.56-15.58,4.99-10.65,3.81-12.5,10.49-6.81,6.55-.84,4.27-5.67,3.79-11.35,1.34-7.48,2.71-10.63,3.36-11.33,2.51-9.88,3.73-8.07,3.82,8.6-3.02,9.37-2.11,19.55-3.77,7.8-2.69,3.79-.73,6.19,1.47,5.79.3-6.92,7.08-7.52,7.97,11.67-7.66,9.09-8.4,8.23-9.59,5.11-6.48,4.89-6.5,12.68-3.55,12.76-.98,10.55-3.52,8.81-2.41,4.03,3.33,3.51,3.76-3.13,11.8-4.3,7.93-.94,5.49-1.17,6.2-5.95,5.27-7.68,9.42,8.84-6.87,8.46-6.96,4.31-11.73,8.23-6.03.25-7.37,1.44-8.27,2.24-6.34-1.59-6.34,11.22-11.82,4.49.72,24.62,6.78,11.95,4.47,9.92,5.15,13.34-3.3,11.24-2.19.75-.58,1.31,1.73,4.8,4.15,4.29,4.51,15.19,2.9,11.06,7.17,8.91,6.98.9,6.75,1.97,4.67,1.71,5.2.58,5.08,4.45,3.54,3.85,4.53,4.76,8.37.56-5.99-3.18-6.14-3.47-5.9.6-4.32-2.15-9.86v-7.42l1.36-7.2,3.65-4.42,17.45-6.49,16.98-7.75,6.75-6.71,7.42-.58,8.63,3.42,12.66,11.23,4.84,9.61,15.44,13.64,6.19,4.43,7.9,3.77-17.36-16.88-11.25-15.28-10.72-10.89-2.22-8.81,3.18-11.48,9.44-10.63,3.2-10.95-.34-5.37,2.57-3.67,11.82-11.38,13.08-.95,17.38,4.65,14.42,4.27,9.73,10.66,8.17,8.86,8.54,21.14,3.8,15.72-2.54,7.59-4.21,4.79,3.87-1.35,8.17-.44,10.1,1.56,6.34,3.23,15.48,8.09,8.47,7.56,6.42,6.85,13.04,1.32,15.42-3.8,14.45-1.38,13.85,2.16-7.82-2.78-7.67-3.04-16.57,2.87-14.34,1.35-11.55-7.65-16-12.34-18.9-8.06-3.03-9.14-5.02-11.51,4.89-3.58,5.66-2.31,4.91-2.65,20.1.72,11.95,7.98,19.97,5.07-18.13-9.8-5.26-6.31,2.85-2.36,6.8-4.3,4.89-1.44,6.2-5.5,9.44-8.67,4.29-5.06,6.33-2.36,7.69-2.34,10.5.43,9.43-1.37,17.97-.48,7.41,1.27,6.55,3.25,6.89,5.4,5.14,4.38,5.55-1.42,9.04.44,9.33.31,6.86,2.04-4.19-2.09ZM283.48,358.47l-2.14,9.9-7.65,4.66-10.44,4.72-6.85,1.37-11.33-6.64-11.07-3.03-8.44-3.93-7.62-4.06-7-1.26-.79-22.75,2.86-11.26,2.08-4.87.57-3.69,13.51-4.64,5.3-3.47,23.95-1.76,14.42,11.31,8.87,6.08,6.7,3.39,4.43,4.16,1.22,8.42-3.53,7.99-7.07,9.36ZM361.77,378.86l-12.3,4.13-8.12,4.98-3.63,3.94-3.1,4.77-5.67-2.09-6.73-4.12-9.76-4.29h-11.97s-6.11-4.86-6.11-4.86l-5.62-12.52.44-4.31,2.69-3.43,2.19-3.36,4.67-2.46-1.19-5.85,1.01-5.3,2.14-6.81,1.77-2.91,4.6-1.24,3.85-1.59,10.96-2.38,1.88.61,14.32,14.64,6.35,9.8,13.76,8.66,9.93,4.76,3.32,3.49-9.72,7.74ZM414.01,305.01l-4.31,9.93.22,7.59-2.57,6.83-1.08,5.5-4.67,7.25-3.43,6.91-.96,7.39-5.31,2.51-6.31,2.72-8.72.97-14.19-5.65-12.78-6.51-9.4-10.11-7-7.34-7.05-3.39-4.16-2.57-15.21,1.07-17.76-3.39-11.72-6.86-7.45-8.33-26.62-14.57-1.52-1.18.39-3.17,6.96-16.04,19.52-18.58,17.62-1.7,16.13-4.06,9.71-.97,13.86,1.47-11.61,10.71,13.46-4.73,9.88-7.47,14.72-3.69,11.85,2.21,14.01,8.4,2.69,3.65,4.71,3.62,9.64,10.37,22.37,19.99-3.93,11.26ZM591.48,328.17l-10.04,8.7-15.09,6.65-5.52,4.59-5.86-1.36-21.24,1.18-14.09,1.67-7.31-13.45-4.39-10.72,10.74-5.45,18.86-1.36,10.57-1.72,7.28-3.85,13.69-1.6,11.96,2.9,9.24,2.42,4.94,5.89-3.76,5.5Z"/>
      <g class="cls-41">
        <g>
          <path class="cls-15" d="M363.38,200.49c.24,11.96,2.42,33.74,3.39,29.13.97-4.62.97-20.13,2.19-49.85-8.75,1.06-28.19,9.3-28.19,9.3,0,0,11.19-2.66,12.52,2.25,1.33,4.91,3.57,17.82,5.02,10.71,1.45-7.1,4.84-13.5,5.08-1.54Z"/>
          <path class="cls-23" d="M349.96,200.72c-.98.96-2.45,1.63-3.54,2.53-3.4,2.79-5.75,6.55-8.71,9.73-3.54,3.81-7.55,6.73-11.63,9.96-3.01,2.38-5.91,5.33-8.49,8.14-.75.82-.73.39-.3,1.46.19.49.49.89.64,1.39.65,2.19.44,5.36,1.59,7.29,1.56,2.61,2.73-2.46,3-3.77.37-1.83.37-2.77,1.94-3.94,1.66-1.24,1.97-.65,3.37.7,2.42,2.32,1.41-1.69,2.57-2.72,1.32-1.17,1.77.81,2.04,1.87.6,2.36.54,4.88,1.15,7.24.25.96.55,7.22,3.06,6.53,1.74-.48,1.4-5.01,1.5-6.18.14-1.66.09-3.27.21-4.92.08-1.13.45-3.05-.51-3.89-2.54,2.1-.64,6.65-1.11,9.41-.1.6-.5,2.43-1.4,1.9-.74-.43-.49-3.86-.6-4.55-.42-2.58-.15-4.85-.25-7.4-.05-1.21-1.14-4.57.34-5.43,1.58-.92,1.51,1.76,2.32,2.36.96-1.51,1.4-.29,2.42-.72,1.56-.66-.07-4.5,1.57-5.09,2.5-.92,2.53,12.67,3.3,13.98.27-.27.39-.73.47-1.16,1.79-.21,1.23,3.41,2.4,4,1.19-1.59.96-3.74,1.08-5.61.09-1.36.53-3.39-.15-4.66-.24.65-.46,1.99-1.4,1.85-.52-1.81-.14-3.89-.14-5.75,0-.78-.11-6.22,1.39-3.77.89,1.44.99,3.71,1.21,5.32.38,2.8.44,5.75,1.14,8.49.84,3.28,2.05.87,2.3-.97.6-4.38-.73-25.87-.73-34.25-.48-.13-1.67.25-2.06.63Z"/>
          <path class="cls-31" d="M308.71,229.29c-2.1-.55-3.98-1.36-6.19-1.59-1.84-.19-3.66-.79-5.49-.92.24.38.77.49,1.15.78.44.34.71.78,1.1,1.17.67.66,1.49,1.02,2.14,1.72.56.59,1.13,1.17,1.58,1.86.35.53.55,1.27.96,1.74.87.98.96-.02,1.18-.91,1.32.37,1.46,3.15,1.66,4.22.24,1.28.38,3.03,1.03,4.16.38-.97.09-2.27.32-3.33.17-.81.6-1.51.78-2.32.22-1.03.08-2.1.11-3.15.08-2.7,1.87-1.33,3.71-1.36-.47-1.35-2.53-1.67-4.04-2.06Z"/>
          <path class="cls-44" d="M289.23,233.09c1.16.57,1.07,3.02,1.32,4.09.37,1.51.52,3.06.87,4.58.19.82.38,2.11.85,2.78.8-.75-.25-3.27-.22-4.31.03-1.31,0-2.64.14-3.94.17-1.61.69-3.2.64-4.82-.04-1.6-.6-2.66.67-3.75.52-.44,1.14-1.13,1.03-1.82-2.58-.59-5.79,0-7.82,1.42-.58.41-2.08.99-2.28,1.71-.1.37.26,1.12.34,1.54.28,1.39.31,2.83.51,4.26.21,1.49.88,2.87,1.27,4.32.31,1.15.53,2.25.61,3.43.07.99-.06,2.18.22,3.13,1.18-1,.76-5.03.71-6.4-.02-.65-.26-1.5-.13-2.14.19-.89.29-.31.78-.84.69-.76.23-2.28.49-3.25Z"/>
          <path class="cls-43" d="M285.75,91.92c1.56.4,1.93,3.43,1.59,4.6,1.2.47,2.5,1.4,3.61,2.05,1.15-1.22-1.05-5.21,2.2-2.61.53-1.19.61-.92,1.71-.6.48.14,1.16.25,1.59.52,2.32,1.49,1.93,6.05,3.58,8.02,1.22-1.01-.72-4.58.49-5.78,1.57.73.4,3.48,1.41,4.62,1.49,1.67,1.4-1.39,1.37-2.31-.07-2.08-.08-4.18,0-6.27.03-.73.46-3.12.36-3.18-1.45-.16-2.44.68-3.82.71-2.82.06-6.06-.42-8.85-.83-1.75-.26-3.11-1.06-4.64-1.87-1.65-.88-3.54-1.41-5.34-1.92-2.24-.63-4.53-1.22-6.79-1.76-.9-.22-1.91-.46-2.84-.35.59,1.11,2.1,1.13,3.14,1.64,1.08.53,1.95,1.52,3.03,2.07,1.95.99,4.39,1.15,5.43,3.1,1.71,3.22,1.1-.28,2.78.15Z"/>
          <path class="cls-14" d="M316.52,125.27c.23,2.44.24,5.23,1.26,7.5,1.09-.46.56-4.53.63-5.64.06-.85.12-3.65,1.03-4.17,1.4-.81,1.95,1.55,2.46,2.2.6.78,1.72.96,2.42,1.76,1.16,1.32.82,2.5.73,4.08-.04.69-.37,2.22-.07,2.85.35.73,2.78,1.96,3.55,2.12-.25-2.09-.64-5.01.45-6.98,1.04-1.88,1.87-.15,2.6.97.87,1.34,2.75,1.37,3.84,2.73,1.46,1.83.47,4.66,1.68,6.46,1.05-.69,2.56-7.08,4.08-2.32.41,1.28.12,3.21,1.09,4.25.4.43,1.03.64,1.49.93.84-.9,2.08-.5,3.15-.59.02-1.22-.54-4.05.77-4.95.69-.48,1.83.21,2.75.03,1.4-.27,2.15-1.38,3.42-1.91.66-.28,3.65-1,3.56-1.72-.08-.59-1.43-.7-1.81-.75-2.01-.25-3.93-.13-5.96-.55-2.2-.46-4.46-.76-6.63-1.35-2.43-.66-4.67-2-6.92-3.09-5.03-2.42-9.54-5.53-14.4-8.19-3.23-1.77-5.01-2.39-6.68-5.83-1.12-2.31-2.16-4.49-3.58-6.66-.88-1.34-1.69-2.72-2.23-4.23-.64-1.76-.84-3.58-2.78-4.23,1.94,5.27,1.64,10.88,2.66,16.42.56,3.04.88,6.1,1.24,9.16.13,1.08-.02,3.65.93,4.4,1.32-.93.66-4.57.49-5.88-.23-1.71-.54-3.72.02-5.4,1.19.82.73,2.77,1.3,3.88,2.59-2.02,3.33,3.42,3.45,4.73Z"/>
          <path class="cls-32" d="M364.44,132.14c1.38.69,3.25.69,4.38,1.79,1.63,1.58,1.09,4.06,1.96,5.94.99,2.14,1.59-.4,1.91-1.57.39-1.41.6-4.99,2.68-5.18,1.77-.16,1.86,2.43,2.03,3.67.66,4.76.58,9.57,2.75,13.97.38-2.99.42-5.59.14-8.59-.25-2.67.4-5.26,0-7.96-.12-.82-.92-3.06-.05-3.77.41-.33,1.02.26,1.47-.2.46-.46.43-2.16.78-2.86.27-.54.93-1.03,1.16-1.53.29-.64.2-1.48.41-2.14.26-.84.76-1.5.71-2.42,0,0-3.48,1.23-3.89,1.55-1.06.81-1.68,2.05-2.65,2.95-2.79,2.57-6.37,2.54-9.97,2.93-1.79.2-4.36.38-5.93,1.43-.43.29-.54.54-.46.75.24.6,2.01.95,2.54,1.21Z"/>
          <path class="cls-36" d="M389.98,124.61c.44-1.77.69-3.59,1.11-5.36.41-1.71.89-3.4,1.31-5.1.35-1.42.72-3.89,1.93-4.85.16.4.28.82.36,1.22,1.37-.8,1.49-2.81,1.96-4.18.49-1.42,1.23-2.66,1.88-3.99.63-1.28,2.45-4.9.99-6.05-1.19.96-2.26,2.17-3.36,3.26-.76.76-1.47,1.48-2.41,2.03-.65.38-1.54.56-2.1,1.08-.83.78-1.29,2.38-1.68,4.18,1.28,3.32-.06,7.15-.23,10.59-.13,2.66-1.78,7.08-.58,9.64.55-.51.63-1.72.81-2.46Z"/>
          <path class="cls-3" d="M398.91,132.2c.67-1.58-1.14-1.68-2.53-2.26-.91-.37-1.37-.97-2.88-1.91-.18.41-.67.75-.85,1.18-.42.98.08,2.46-.05,3.51-.08.68-.85,2.73,0,3.21.98.55,1.04-3.07,1.88-3.65.26.41.36.47.82.39.52.49.4,1.22.4,1.86,1.15-.24,2.75-1.2,3.22-2.33Z"/>
          <path class="cls-22" d="M391.51,159.38c.18-1.29.67-4.82,2.35-5.19.84,1.19-.32,3.02.34,4.3,1.57-.89,2.04-4.44,4.15-4.71,1.61-.2,1.58,3.83,1.53,4.97-.14,3.13-1.25,6.05-1.04,9.16.43-.38.69-1.01,1.17-1.39.7-.54,1.07-.34,1.88-.49,1.06-.19.83.04,1.15-.97.51-1.65.93-3.54,1.34-5.25.13-.54,1.43-5.99.48-6.1-.95-.11-1.23,3.08-1.94,3.65-1.03-3.18.68-5.92,3.99-5.3,1.81.34,1.7.61,1.2,2.49-.72,2.64-.16,4.99-.23,7.66,1.15-2.28,1.98-4.91,2.68-7.35.14-.49.34-2.28,1.12-2.24.82.05.93,1.92,1.38,2.39,2.02-.36,2.69-4.07,5.13-4.48,1.68-.28,2.68,1.47,4.15.29,1.4-1.12,2.1-2.91,3.57-4.08,1.09-.86,3.83-2.21,4.01-3.67-1.22-.92-6.51.83-7.78,1.08-4,.79-7.97.58-12.01.87-3.04.22-5.8.8-8.71,1.58-1.53.41-3.75,1.04-5.36.65-2.65-.64-3.02-4.28-5.2-5.74-.17.06-.26.14-.46.14-.84.96-.82,2.07-.86,3.45-.05,1.65-.65,3.16-.73,4.78-.08,1.75.2,3.49.1,5.23-.32,5.58-.22,11.3-1.06,16.83-.44,2.92-.7,5.76-.88,8.71-.07,1.21-.69,3.23.05,4.31,1.72-1.16,1.49-5.53,1.67-7.3.36-3.51,1.16-6.95,1.79-10.42.48-2.62.7-5.27,1.07-7.89Z"/>
          <path class="cls-21" d="M462.81,133.39c.31-2.77,1.75-5.63-.03-8.08-4.04,1.58-7.71,4.05-11.45,6.17-3.76,2.13-7.45,3.85-10.96,6.42-1.04.76-3.14,1.76-3.09,3.26.59.04,1.35-.24,1.82-.19.71.07.78.51,1.66.27.67-.19,1.25-1.34,1.87-.96.84.53.07,3.83.06,4.63,0,.64.43,3.45,1.55,2.28.4-.42.15-1.89.26-2.45.15-.71.51-1.35.65-2.07.31-1.64-.29-2.82,1.06-4.16.46-.46.94-.55,1.45-.89.46-.31.8-.9,1.24-1.16.41-.25,2.62-1.27,2.97-1.11,1.09.52.08,3.33-.46,3.91-.39-.96-.91-1.96-2.03-1.28-1.18.72-.59,2.16-.5,3.19.05.61-.91,3.49-.66,3.74.28.29,2.1-.79,2.51-.91,1.03-.31,1.81-.15,2.42-1.01.55-.78.68-2.38.88-3.28.28-1.31,1.39-7.42,4.05-5.07.49-.48.64-1.39,1.33-1.62,1.09,1.26.24,5.85,1.45,6.03,1.85.28,1.87-4.77,1.97-5.65Z"/>
          <path class="cls-26" d="M406.28,202.29c1.04-.27,1.55-1.83,2.3-2.5.54,1.2,2.39.98,2.81,2.32-.48-2.62-2.32-4.57-3.57-6.86-1.84-3.36-3.83-6.54-5.1-10.16-1.08-3.08-2.42-5.77-3.88-8.64-.6-1.18-1.29-2.55-.87-4.26-.37-.03-.92,0-1.31.14-.07,1.46.09,2.82-.18,4.28-.32,1.69-.14,3.31-.36,4.99-.22,1.72-.56,3.39-.56,5.12,0,3.21-.2,6.38-.82,9.54-.36,1.81-1.19,5.57-.15,7.19,1.54-2.04.91-5.84,1.58-8.29.45-1.67.97-5.4,2.39-6.51,1.33,1.47-.48,3.53.51,4.83.33.43,1.19.21,1.56.85.38.67,0,.93-.26,1.67-.93,2.76-.69,5.73-1.08,8.57-.2,1.43-.64,5.14-1.89,5.95-.51-1.68,1.34-6.24-.24-7.33-1.29,3.73-1.52,7.81-2.32,11.64-.21,1.02-1.51,5.53.12,5.66.95-1.67,2.15-3.28,3.15-4.96,1.29-2.18,2.09-4.39,3.03-6.71.78-1.92,1.07-3.71,1.58-5.7.18-.69,1.18-4.88,2.15-4.8,1.75.15-1.35,4.66,1.43,3.95Z"/>
          <path class="cls-25" d="M425.33,262.47c-5.22-6.46-10.4-12.99-15.94-19.19-3.71-4.15-6.92-9.57-11.78-12.58-1.26-.78-2.75-1.56-4.24-1.69-2.55,1.55-1.32,6.05-1.93,8.77-.34,1.48-.42,2.99-.73,4.48-.3,1.42-.85,2.77-1.07,4.21-.27,1.78-.27,3.6-.43,5.39-.09,1.04-.61,2.46-.31,3.41,1.24-1.06,1.24-4.16,1.59-5.7.31-1.42.81-2.77,1.15-4.19.4-1.74.99-3.87.9-5.68.02.05.02.26.02.31,1.66-.2.87-3.45,3.06-3.35.3.02.37.53.67.54.36,0,.57-.27.88-.36.45-.14.89-.8,1.4-.33.38.35-.08,2.36-.1,2.77-.16,2.99-.81,5.96-1.23,8.93-.45,3.19-1.63,6.24-2.16,9.42-.31,1.84-1.39,4.88-.85,6.66,1.08-.28,1.96-2.84,2.28-3.82.94-2.82,1.33-5.78,2.15-8.64.23-.79,1.21-5.42,2.6-5.41.88,0,.24,2.15.46,2.7,2.93-2.53,2.93,3.43,3.28,4.87.54,2.22-.14,3.82-.71,5.97-.36,1.33-.43,4.75-1.6,5.5-1.71-1.42.8-6.29.1-8.38-.41.61-.46,1.91-.58,2.7-.27,1.81-.49,3.58-.85,5.38-.48,2.44-1.32,5.04-1.56,7.48-.21,2.17,1.42,3.15,2.5,4.9.88-1.83,1.11-4.09,1.63-6.05.94-3.55,2.07-6.94,3.24-10.42.32-.97,1.38-5.22,3.38-4.68,1.13.31.45,2.39.93,3.1,2.83-1.32,3.06.15,3.66,2.55.53,2.13.41,3.3-.11,5.53-.5,2.18-1.26,4.66-1,6.91,1.6-1.44,2.27-7.46,4.85-7.7.34.68.23,1.43.29,2.16.92-.17,1.49-1.3,2.71-1.21,1.01.08,1.75.83,2.37,1.56,1.5,1.79.99,4.63,2.86,6.19.81.68,1.4.44,2.18,1.21.76.75,1.14,1.8,2.07,2.46.07.05.88.36.81.27,1.01,1.43-.29,3.51.49,5.09,1.35-1.06,1.28-2.81,1.77-4.3.41-1.23.86-1.51,1.83-2.28-.83-2.06-2.6-3.88-3.93-5.63-2.45-3.21-4.45-6.71-7-9.85Z"/>
          <path class="cls-2" d="M491.71,295.57c-3.04-.44-6.15-.21-9.22-.74-2.82-.48-5.72-.46-8.54-1.08-1.3-.28-11.61-3.49-12.34-2-.02.04-.03.08-.04.13-.06.55,1.12,1.55,1.4,2,2.36,3.84,4.53,8.08,5.46,12.51.13.64.25,2.36,1.15,2.07,1.21-.4.71-3.8.7-4.59-.03-1.27-.06-3.13.61-4.28.67-1.15.61-.86,1.33.1.91,1.22.69,1.09,1.99.24,1.08-.71,1.77-1.09,3.04-1.1,1.66,0,2.97.08,3.07,1.79.12,1.97.14,3.91.36,5.89.11,1.02.03,2.94.87,3.64.72-.46,2.77-11.32,4.94-7.33.96-.45,1.48-1.77,2.5-2.28,1.52-.77,2.12.74,2.08,2.16-.05,1.54-.89,3.05-1.09,4.59-.23,1.74-.18,3.53-.26,5.27-.1,2.2-.2,4.47-.07,6.67,2.13-4.91,3.23-11.08,3.54-16.43.1-1.79-.28-4.43,1.13-5.87-.45-.86-1.7-1.23-2.62-1.37Z"/>
          <path class="cls-5" d="M508.7,311.96c.2-.32.65-1.13,1.06-1.24.62-.16.23.08.79.22.29.07.29.54.72.6.26.03.65-.3.89-.39.75-.25,1.55-.7,2.33-.85.67-.13,1.26.11,1.9.06,1.09-.08,1.01-.3,1.78-1.12.94-1.01,2.28-1.47,3.51-2.02,1-.45,2.28-.76.72-1.12-1.43-.33-3.19,0-4.68-.17-2.9-.34-5.66-1.09-8.49-1.74-1.88-.43-3.85-.14-5.75-.36-1.01-.11-4.01-1.71-4.88-1.21-.02.02-.05.03-.07.05-.66.56-.11,2.28-.04,3.04.13,1.47.29,2.93.1,4.4-.79,5.91-1.19,12.15-.83,18.12,1.79-.81,1.54-7.01,1.8-8.63.34-2.14.99-6.73,2.91-8.16.5.68-.27,2.44.41,2.94.95.71,1.36-1.25,1.99-1.54-.01,1.19.11,2.31.04,3.51-.07,1.37-.49,3.02-.25,4.38.61,3.38,2.36-2.66,2.52-3.6.3-1.75.56-3.64,1.54-5.18Z"/>
          <path class="cls-24" d="M518.29,351.2c.65,2.21,1.11-.03,1.33-.82.26-.94.92-1.81,1.79-2.28-.63-2.32-2.13-4.58-3.13-6.77-1.34-2.93-2.41-5.91-3.67-8.87-.97-2.3-2.43-5.7-4.18-7.54-.81.41-1.81.23-2.64.5.45,4.94-.58,9.95-1.4,14.84-.13.76-1.02,4.72.66,3.46,1.06-.79,1.09-4.41,1.35-5.6.25-1.14.28-3.02,1.05-3.94,1.27.9,1.36,3.33,1.67,4.72.27,1.22-.45,3.19.62,4.11,1.18-.73,1.64-1.26,1.83.37.14,1.22.46,1.53.84,2.65.81,2.36.02,5.11,0,7.55,0,1.3-.35,3.37.24,4.51,1.7-1.62,1.3-6.01,3.64-6.89Z"/>
          <path class="cls-11" d="M550.93,348.24c.18.36.14,1.74-.36,1.9-.48.15-.76-.88-1.34-.61-.48.23.03.67,0,1.08-.06.71-.38,1.31-.46,1.99,2.04-.1,3.03.47,3.68-1.52.37-1.13.55-2.35,1.63-2.94,1.45-.78,2.06.11,2.82,1.28.08-.14.48-.38.57-.56,1.22.74-.07,2.64.42,3.7.89,1.9,1.43-.25,1.63-1.12.34-1.51,1.16-3.48,2.21-4.63.84-.92,2.31-1.77,2.76-2.96-1.74.22-3.81.38-4.88.29-1.39-.11-2.73-.65-4.15-.61-1.62.05-3.3.52-4.88.84-4.89,1-10.05.77-15.03,1.03-1.96.1-4.23.23-5.42,1.99.96.62,2.48.04,3.55.23,1.9.34,3.12,1.9,5.18,1.56,1.02-.17,2.16-.43,3.13-.02,1.38.59,1.33,2.26,2.45,3.17.55-.52,1.09-.95,1.42-1.64.4-.83.24-1.64,1.29-1.99.82-.28,1.59-.09,2.47-.5.77-.37.81-.97,1.32.03Z"/>
          <path class="cls-10" d="M606.44,308.34c-4.49-.81-8.66-2.06-12.92-3.61-4.59-1.66-9.36-2.56-14.01-3.94-4.13-1.23-8.08-3.38-12.29-4.31-2.9-.64-6.27.2-9.07.99-3.27.92-6.67.43-9.92,1.31-2.91.79-5,3-7.88,3.92-.93.3-3.67.56-4.27,1.18-.57.59-.14,1.98.97,2.44,1.36.52,3.06.17,3.77,1.81.47,1.11-.06,2.83-.11,3.98-.02.39-.33,3.14.11,3.43,1.07.72,1.84-3.52,2.15-4.25.69-1.61,1.22-4.21,2.9-2.4.89-.65,3.88-4.39,4.67-2.63.46,1.03-.9,3.43-1.26,4.38-.34.9-1.01,2.46-.62,3.37,2.2-1.44,2.67-5.61,4.27-7.7,1.39-1.8,3.76-1.87,5.47-2.66,1.27-.59.95-.94,2.22-.1.37.24,1.27.49,1.53.75,1.2,1.18-.74,3.97-.28,5.56,1.01-.23,1.49-2.72,1.97-3.57.83-1.47,1.83-3.98,3.47-4.26,1.28-.23,2.79.26,3.55,1.32.31.44.11,1.03.62,1.41.63.47,1.06-.08,1.73,0,1.83.24,1.08,2.08.93,3.35-.08.67-.35,1.91.64,2.02.81.09,1.51-2,1.94-2.53,1.48-1.83,3.13-.53,5.17-.61.89-.04,1.54-.2,2.37.17.76.34,1.19,1.14,2.05,1.27,1.18.18,3.73-1.44,4.34.35.61,1.82-2.3,3.91-1.68,5.93,1.6-.86,2.25-2.67,3.58-3.79.49-.42,1.07-.91,1.73-.59.61.3.41,1.3.85,1.64,1.08.83,2.62-.67,3.81-.16,1.03.44.31.94.83,1.66.58.81,1.58.69,2.34.27.63-.35.99-1.1,1.62-1.5.56-.35,1.13-.42,1.73-.64,1.61-.6,4.22-1.76,5.35-3.04-1.4.41-2.91,0-4.31-.24Z"/>
          <path class="cls-35" d="M668.03,314.07c-2.6-2.7-5.58-5.14-8.99-6.77-4.04-1.94-9.01-2.43-13.42-3.11-3.86-.59-7.64-1.09-11.51-.4-1.1.19-2.34.34-3.37.77-.56.23-1.03.72-1.59.91-.39.13-2.08.02-2.18.4-.15.61,2.55,1.5,3.64,1.66,1.07.77,3.27.44,4.56.71,1.88.39,3.26.65,3.3,2.7.02.8-.46,1.98.4,2.43,1.42.74,2.16-1.45,2.86-2.11,1.22-1.15,1.33-.44,2.44-.14,1.25.35,3.04-.59,4.3-.82,4.09-.72.86,1.77,1.61,3.72,1.49-.43,2.8-2.13,4.48-2.46.6-.11,1.15.12,1.71.08.81-.05,1.88-.63,2.68-.44,2.12.5-.23,3.82-.75,5.05,1,.9,2.31,1.23,3.45,1.94-.66-1.04.23-2.12,1.14-2.62,1-.56,1.41-.33,2.42.31,1.09.69,1.19.36,2.29.59,1.24.26,2.04,1.56,3.23,1.81.06-1.42-1.82-3.27-2.71-4.2Z"/>
          <path class="cls-4" d="M525.17,364.51c-.72-1.22-1.41-2.68-2.42-4.08-.78.21-2.65.6-3.05,1.17-.27.38-.11,1.29-.2,1.75-.25,1.31-.98,2.6-1.48,3.83-1.05,2.58-1.56,5.43-1.82,8.19-.08.9-.18,1.79-.39,2.68-.13.57-.95,2.15-.77,2.7.66,2.08,1.85-2.43,1.95-3.18.29-2.05.49-5.68,2.9-6.71,2.2-.94-.22,3.1,0,4.14,1.17.14,1.58-.35,2.21.99.4.87.3,1.8.06,2.69-.33,1.21-.88,2.34-1.16,3.58-.08.35-.54,1.63-.43,1.96.28.8,2.29.42,3.21.77.28.11.43.42.78.51.18.05.49-.27.7-.22.54.13.71.48,1.22.58.83-1.03.79-2.85,1.56-4.04.48-.76,1.29-1.08,1.85-1.68.91-.96.63-1.84.26-3.22-1.15-4.29-2.7-8.57-4.98-12.41Z"/>
          <path class="cls-17" d="M572.68,405.33c-4.04-2.13-6.92-5.53-10.32-8.45-2.97-2.55-6.58-5.5-10.24-7.02-.73-.3-3.06-1.23-3.78-.69-.05.04-.1.1-.12.16-.4.94,1.59,4.3,1.85,5.24.37,1.35.24.91,1.27,1.36,1.18.53,1.41.99,2.29,2,1.38,1.57,3.4,1.01,4.21,3.21.45,1.2-.31,2.98.55,3.81,1.71,1.66,1.77-2.79,3.42-2.76,2.1.04.2,3,.37,3.75.38,1.6,1.94-.16,2.99-.05,1.16.13,1.07,1.1,1.77,1.65.65.5,1.48.22,2.18.75,1.19.91.27,3.68,1.49,4,.35.09.92-.56,1.34-.58.52-.02.94.22,1.34.52.25-.53.34-1.23.74-1.76.59-.77,1.93-1.19,2.2-2.21.44-1.7-2.31-2.28-3.54-2.93Z"/>
          <path class="cls-13" d="M417.07,293.66c-1.18-.03-2.23.28-3.27-.47-.83.02-1.6,1.8-1.88,2.44-1.32,3.02-2.71,6.29-3.57,9.47-.73,2.71-1.05,5.51-1.78,8.22-.79,2.96-1.63,5.9-2.3,8.9-.69,3.12-1.45,6.29-2.58,9.29-.86,2.28-2.18,4.29-2.9,6.64-1.86,6.05-1.62,11.97-1.45,18.14.05,1.82-.49,3.54-.48,5.36,0,2.01-.56,5.08.12,6.86.89-1,.85-3.12,1.09-4.4.51-2.76.95-5.2.68-8.03-.11-1.17-.64-3.5-.19-4.63.38-.96.26-.37.93-.86,1.26-.93,1.51-2.87,2.7-3.67,1.17,2.27,1.38,5.9,1.28,8.39-.11,2.74-1.11,6.58.29,9.16.86-.32.86-2.6,1.03-3.42.38-1.85.71-3.7,1.15-5.53.41-1.69.55-3.4.75-5.12.11-.92.57-2.21.21-3.01-.83.87-.22,2.82-1.21,3.6-.99-.83-.04-3.07.13-4.1.38-2.38.47-4.79.93-7.16.32-1.63,1.29-2.94,1.47-4.6.13-1.2-.31-4.15,1.11-4.78.56,1.96.36,4.76.36,6.8,0,1.9-1.7,7.43.11,8.81,1.01-.83.94-2.81,1.23-4,.51-2.08.43-3.95.35-6.11-.09-2.19.33-4.33.45-6.51.04-.82-.37-2.84.51-3.25.69.99-.02,2.73,1.37,3.33,1.21-1.6.24-5.27.52-7.24.18-1.28.52-2.53.63-3.82.07-.79-.14-1.81.39-2.42.97,1.49.18,3.74.95,5.34,1.51-.9,1-4.48.95-5.91-.08-2.18.41-3.81.74-5.88.69-4.38-.59-9.05.2-13.41.33-1.81.88-2.39-1.04-2.43Z"/>
          <path class="cls-19" d="M383.48,358.89c-1.27.46-2.34,1.44-3.66,1.71-1.48.3-3.29,0-4.76-.29-.91-.18-1.58-.44-2.36-.95-.34-.23-.81-.86-1.24-.93-.63-.1-.81-.15-.61.6.19.71,1.61,1.58,2.01,2.34.59,1.16,1.03,2.47,1.54,3.67.22-.37.64-.67,1.12-.71.61,1.47.64,3.28.6,4.85-.03,1.17-.87,4.3.17,5.17,1.22-.65,1.5-3.49,1.64-4.69.23-2,.43-4.14,1.81-5.76.9-1.06.42-.5,1.24-.33.05.01.46.45.55.51.1.05.4-.38.45-.35,1.15.78.91,2.6,1.3,3.86.39-.54.9-1.13,1.14-1.76.47-1.25.02-2.7.61-3.93.56-1.17,3.97-2.38,3.49-3.62-1.69-.11-3.46.02-5.05.59Z"/>
          <path class="cls-38" d="M370.76,370.71c-.62-.5-3.02-1.55-3.75-1.4-.17,1.78-3.22,3.46-4.14,4.53-1.04,1.19-3.24,2.63-3.88,4.01-.42.91-.29.68.52.93.58.18,1.99.27,2.55.11.48-.13.89-.71,1.44-.82,1.87-.39,1.57,1.42,2.54,2.5.51-.4.31-1.95.85-2.68.18-.24.6-.18.83-.58.24-.42,0-.96.37-1.37,1.12.76.82,2.65,1.79,3.41.62-.62.5-1.99.61-2.8.18-1.33.47-2.5.76-3.78.08-.33.14-.63.11-.98-.06-.79-.09-.68-.6-1.09Z"/>
          <path class="cls-9" d="M333.99,389.69c-.62.11-1.13.47-1.73.63-1.52.42-2.77-.05-4.19-.59-3.93-1.49-8.62-3.97-12.89-4.21-1.79-.1-2.08.18-.83,1.01,1.71,1.13,2.78,2.5,4.12,3.96.57.62,1.11.85,1.4,1.76.33,1.05-.11,2.12-.02,3.18.67.08.97-.19,1.51.26.56.47.28,1.3,1.04,1.57,1.88.67.58-2.68,1.09-3.36.96-1.3,1.55,1.01,2.21,1.6.52.46.8.33,1.37,1,.88,1.04,1.41,2.52,2.75,3.08.48-.45.45-1.32,1.11-1.64.9,2,1.49,3.73,1.66,5.94.16,2.02.36,4.08.66,6.08.13.84.17,1.94.82,2.53.55-1.28-.11-3.14-.07-4.53.06-2.02.21-4.03.21-6.05,0-2.23-.71-4.7.22-6.83.56-1.29,1.71-1.9,2.44-3.01.41-.61.53-1.49.72-2.19-.91-.42-2.69-.38-3.63-.21Z"/>
          <path class="cls-30" d="M293.72,374.93c-.74-2.11-1.66-4.66-2.86-6.57-.38-.6-.97-.95-1.48-1.9.02,1.07-.27,2.11-.24,3.2.05,1.58.75,2.95.99,4.53.29,1.85.7,3.68.97,5.53.15,1.04.13,3.22,1.16,3.79.05-.76-.22-1.75.56-2.22.99.93,1.21,2.59,2.15,3.54.66.67,1.18,1.47,1.96,1.68.18.05.76-.24,1.09-.16.38.09.84.65,1.15.91.38.32.76.63,1.18.71,0-.5.17-1.44.55-1.82.55-.56,1.44-.38,1.76-1.22-1.89-.79-4.02-1.75-5.62-3.09-1.87-1.56-2.57-4.77-3.32-6.93Z"/>
          <path class="cls-1" d="M232.89,367.39c-4.25-1.83-7.68-5.04-11.74-7.21-2.06-1.1-4.44-1.62-6.74-2.06-.73-.14-1.66-.25-2.91-.3-.62,1.1-.79,2.16-.49,3.31.44,1.64.8,3.62,1.72,5.08,1.05-.05.35-7.22,2.01-3.59-.04-.27.13-.51.16-.76,1.46.37,2.06,1.03,2.51,2.5.16.51.65,4.25,1.99,3.11,1.14-.97-.88-3.24,1.08-3.38,1.14-.08,2.04,1.1,2.4,2.14,1.98-.81,2.48,2.99,3.51,3.78.94-.38.38-1.8,1.18-2.21.38-.19,1.13.12,1.57.33.79.37,1.3.68,2.18.72.85.04,2.24.35,3.04.28,2.46-.2-.76-1.42-1.48-1.73Z"/>
          <path class="cls-7" d="M279.47,368.11c-2.52.66-4.57-.16-6.92,1.3-1.6,1-2.9,2.5-4.54,3.41-1.93,1.07-3.68,1.88-5.83,2.44-1.56.41-3.33.38-4.84.91-.88.31-1.22.75-1.28,1.28-.08.67.3,1.46.58,2.28.25.73.18,1.42.61,2.05.19.28.85.74,1.13,1.01.35-.97.21-2.63,1.23-3.07.14-.06.61.51.97.43.45-.11.93-.95,1.55-1.12,2.32-.64,1.33,1.23,2.21,2.24.8-.51,2.31-.02,2.97-.51.83-.62-.08-2.44.03-3.51-1.45-.58-1.12.86-1.33,1.84-1.07-1.14-.08-2.09.96-2.44,2.34-.8,1.81,1.54,2.35,3.18,1.53-1.04,1-3.12,2.15-4.25,1.04-1.03,2.3-1.55,2.9.35,1.2-.91,1.75-3.19,3.39-3.64,2.12-.58,2.05,2.3,2.54,3.61,1.2-1.2.2-3.42.75-4.94.11-.03.2,0,.32-.02.62-1.37.2-2.12.12-3.52-.65.13-1.35.5-2.02.68Z"/>
          <path class="cls-28" d="M259.27,304.21c2-.2,4.27,1.19,5.8,2.33-1.94-2.2-5.29-3.41-7.7-5.11-3.17-2.24-6.45-4.3-9.63-6.52-.66-.46-1.39-.82-2.06-1.28-.68-.47-1.14-1.28-1.79-1.67-.4-.25-.72-.32-.97-.27-.74.14-.94,1.29-.95,2.23,0,1.03.46,1.61.78,2.62.58,1.84.66,3.9,1.06,5.78.19.88.47,3.04,1.16,3.56.92-2.27.42-4.15.41-6.51,0-1.82.95-1.72,1.61.01.46,1.21.89,2.54,1.12,3.81.22,1.23-.09,2.45,1.24,3.02.75-1.08.1-3.11.41-4.43.3-1.25.24-.92,1.25-.78,1.14.15,3.02,1.16,3.96,1.93.98.8.73,1.48,2.05,1.65.84.11,1.46-.27,2.25-.34Z"/>
          <path class="cls-39" d="M211.01,308.92c.22-1.55,1.15-1.94,1.76-3.18.48-.98-.18-2.06.18-3.07.67-1.9,2.89-.78,3.99.21,1.41,1.29,1.74,1.52,1.82-.56.05-1.36-.47-2.74-.35-4.05,2.06,1.67,1.84,4.97,2.64,7.26.44,1.26,1.05,2.45,1.5,3.71.25.69.6,2.99,1.52,3.28,1.67.53.27-2.94.14-3.53-.21-.94-.04-4.03-1.09-4.31-.11.55-.19,1.13-.63,1.53-1-.51-1.22-4.37-1.21-5.53,0-.52-.23-2.88-.04-3.11,1.01-1.18,1.87,2.39,2.04,2.88.63,1.89,1.12,3.81,1.63,5.73.24.88.51,3.13,1.77,3.21.18-.92-.45-2.13-.68-3.04-.49-1.93-.8-3.89-1.22-5.84-.58-2.73-1.16-4.97-2.28-7.54-.84-1.94-.84-3.46-1.1-5.49-.3-2.35-3.68-3.87-5.44-5.32-.24.11-.75.07-1.09.69-.3.55-.11,1.51-.12,2.09-.01,1.66-.06,3.32-.75,4.87-1.44,3.23-4.71,5.31-7.95,6.55-1.75.66-3.48,1.27-4.84,2.61-1.25,1.24-2.4,2.5-3.71,3.69-2.32,2.11-5.18,4.97-6.29,7.9-.55,1.44-.75,3.05-1.52,4.4-1.01,1.78-2.8,2.17-4.78,2.42-5.66.71-12.4-2.52-17.81-.14.73.59,1.72.65,2.55,1.03,1.23.56,1.9,1.37,2.76,2.38.22.25.86,1.21,1.18,1.26.57.1.27-.21.77-.31,1.8-.38,3.04-.43,4.55.88.88.77,1.43,2.42,2.45,2.96.46.24,2.15.44,2.6.11.55-.41.09-2.67-.06-3.23,1.55-.22,3.04,2.53,3.51,3.55.8,1.75,1.13,3.62,1.73,5.43.09.29,2.09,3.21,2.33,2.73.42-.85-.41-3.79,1.17-1.88,1.05,1.27,1.1,3.05,1.6,4.55.28.83.73,1.32,1.18,2.02.45.71.61,1.33.8,2.22.34,1.59.59,5.99,2.19,7.04,1.03-1.43-.39-5.51-.73-7.08-.61-2.78-1.21-5.65-1.51-8.47-.25-2.39-1.15-4.84-1.02-7.28.06-1.27.6-2.58.42-3.84-.14-.98-.95-1.8-.93-2.8.02-.75.4-1.82.53-2.46.29.34.56,1.2,1.15,1.14.71-.07.58-1.11,1.33-1.17.75-1.92-.32-2.78,2.08-3.87,2.06-.94,2.05-2.3,2.53-4.19,3.06,1.77.99-2.68,2.93-1.99,1.62.58,2.57,5.29,3,6.64.42,1.29,1.16,4.97,2.31,5.67.4-1.07.11-2.75.11-3.92,0-1.8.1-3.66.36-5.44Z"/>
          <path class="cls-29" d="M190.95,358.99c-.53-2.49-.9-4.83-1.18-7.37-.33-3.01-1.53-5.9-1.84-8.89-.17-1.63.91-4.84-.8-5.74-.47-.25-1.69-.57-2.24-.71-2.66,2.23-5.05,5.15-6.11,7.85-1.36,3.45-1.95,7.24-2.97,10.8-1.03,3.6-2.66,6.69-4.2,10.06-1.09,2.39-1.9,4.74-4,6.53-1.84,1.55-4.39,2.98-6.6,3.9-2.92,1.22-5.98,1.65-8.73,3.31-.23.14-2.17,1.07-2.1,1.41.09.47,3.81-.29,4.49-.3,2.47-.04,4.25.85,6.62-.46.95-.52,1.46-1.38,2.57-1.66,1.45-.36,2.42.47,3.71,1.04.58.26.9.34,1.47.47.21.04.36-.27.62-.2.9.26.97,1.33,1.93.53.87-.73.75-3,1.33-4.02.55-.97,1.4-1.92,2.19-2.71,2.03-2.01,3.5-1.74,4.96.58.03-1.45-.51-2.91-.68-4.35-.13-1.09-.77-4.34.21-5.1,2.27,1.56,1.83,6.25,3.19,8.58.52.9,1.22,1.27,1.73,1.97.85,1.17,1.15,3.03,1.66,4.36.81,2.08,1.85,5.15,3.36,6.75,1.15-.63.6-4.21.49-5.3-.28-2.72-.95-5.34-1.54-8-.1-.47-.71-4.43-1.74-3.52-.95.84.53,3.23-.63,4.18-.96-1.44-.99-3.71-1.4-5.35-.49-1.9-1.14-4.01-1.31-5.97-.13-1.47.61-1.86,1.49-.51.65,1,.56,2.63,1.81,3.19,1.33-2.17-.78-5.87-.81-8.21,0-.87.32-1.68.35-2.55.04-1.03-.24-1.97.1-2.96,1.73,1.42,2.44,4.45,2.94,6.47.62,2.44,1.13,4.9,1.74,7.34.31,1.22.42,3.36,1.26,4.39.42-1.3-.04-2.92-.32-4.25-.39-1.85-.62-3.74-1.02-5.59Z"/>
          <path class="cls-6" d="M113.89,409.33c-.42-1.44-.81-2.54-.35-4.04.27-.88,1.04-2.31,1.1-2.95-1.25,0-2.16.08-3.27,1.36-1.5,1.72-2.79,4.17-5.01,5.14-3.41,1.5-11.5-1.26-13.24,3.33.71.48,1.45.05,2.22-.02,1.09-.09,2.39.14,3.4.56,1.44.59,3.19,2.52,4.99,2.07,1.95-.49,1.46-2.69,3.89-.73,1,.81,1.13,1.36,2.12.73.54-.35.3-1.03,1.26-.85-.03-.42,0-.87.15-1.27.85.11.99,1.45,1.31,2.11.61,1.23,1.55,2.51,2.39,3.56.19-1.57-.61-3.04-.69-4.61-.07-1.49.15-2.95-.27-4.39Z"/>
          <path class="cls-33" d="M140.89,311.92c-.58-.62-1.92-.41-2.67-.86-.21,2.04-2.64,4.11-3.81,5.39-2.47,2.71-4.71,6.04-6.32,9.25.93-.15,1.57-.37,2.39-.82.76-.41,1.2-.35,1.9-.54.81-.23,1.81-.77,2.56-1.08.66-.27,1.29-.86,1.97-.54.84.4,1.48,2.72,1.91.28.23-1.29-.64-2.92.15-4.12.2-.31.72.07.91-.23.25-.4-.41-1.23.04-1.58,1.01-.78,1.48,2.11,2.3,1.6.78-.49-.76-3.47-.94-4.18-.19-.74.12-2-.41-2.58Z"/>
          <path class="cls-8" d="M244.58,262.51c.13-3.36-.91-6.48-1.2-9.79-.5-5.47-4.23-10.34-2.75-15.88,2.13.82,2.85,3.17,3.34,5.14.5,2.03.92,4.09,1.42,6.12.27,1.08.67,2.86,1.8,3.37,1.05-1.13.31-3.6.11-4.97-.16-1.09-1.37-4.4-.67-5.4,1.01-1.45,4.48,1.68,6.09,1.9.48-.65.21-1.73.96-2.11,2,1.32,3.1,4.93,3.81,7.02.42,1.24.97,5.73,2.76,5.85.43-.94.18-2.07.1-3.06-.12-1.52-.06-2.99,0-4.51.02-.62-.27-1.88.14-2.4.52-.66.9-.16,1.51-.48.65-.33.57-.88,1.06-1.28.73-.59,1.26-.27,2.12-.24,1.54.05,1.85-.22,2.56-1.4,1.32.85,1.83,3.73,2.18,5.16.44,1.79.63,3.61.71,5.44.02.59-.2,2.54.14,3.08.92,1.44,3.11-.69,4.23.55,1.31-1.53.23-6.04-.22-7.81-.04.83.11,3.72-1,3.68-.52-1.2-.4-2.88-.6-4.18-.19-1.28-.71-3.04-.53-4.33.08-.6.43-1.52,1.14-1.77.76-.27,1.09.29,1.83.55.48-1.09-.21-2.23-.09-3.3,4.03,2.42,1.31,8.71,4.41,11.57.15-2.01-.27-3.75-.74-5.7-.35-1.46-.55-2.96-.69-4.46-.08-.85.27-2.57.01-3.32-.41-1.17-2.62-1.39-3.39-2.62-.59-.26-.88.18-1.38.37-1.05.38-2.36.35-3.47.46-6.07.64-12.69.4-18.68-.76-11.42-2.22-21.86-6.58-32-12.11-5.5-3-10.04-7.63-15.56-10.45-.03,1.17,1.47,2.83,1.93,3.93.51,1.21.76,2.27,1.8,3.15,1.46,1.25,2.38,2.05,3.32,3.79.71,1.32,1.46,3.3,2.62,4.27.28-.38.39-.84.5-1.3,1.21,1.14,1.67,3.42,2.07,4.97.53,2.1.62,6.72,2.52,8.09,3.29-.94-1.19-9.67.25-11.83,1.95.82,2.94,3.9,3.98,5.59.77,1.25,1.7,1.07,3.2,1,.84-.04,1.48-.4,2.32-.11,1.24.43,2.09,2,2.78,2.98.66.94,3.73,4.85,3.94,1.56,1.03-.14,2.02,3.2,2.33,4.05,1.08,2.95,1.34,6.01,1.77,9.08.48,3.44,1.34,6.86,2.26,10.21.81,3,1.48,6.46,3.07,9.16.54-1.84-.16-4.54-.08-6.51Z"/>
          <path class="cls-40" d="M152.92,184.09c.08-.65-.46-2.46,0-2.92.66-.66,1.29.44,1.98.39-.11-2.21,2.56.82,2.8,1.31.85,1.76,1.42,3.77,2.06,5.62.32.95.5,2.29,1.08,3.1.36-.93.02-2.2-.04-3.19-.1-1.6.16-3.2.05-4.8-.15-2.34-1.13-4.32-.62-6.7.01-.14-.07.09-.13.13-1.09-.94-2.43-.78-3.29-1.08-1.07-.37-1.83-.99-2.99-1.23-1.56-.32-3.23-.32-4.82-.44-5.38-.44-10.28-1.93-15.47-3.36-2.65-.73-5.29-1.37-7.99-1.92-.66-.14-1.42-.37-2.07-.17,1.39,1.23,2.23,2.66,3.5,3.97,1.5,1.56,3.53,2.28,5.09,3.79,1.04,1,2.03,2.03,2.85,3.22.81,1.18,1.47,2.56,2.9,3.17,1.74.73,1.79-1.16,3.5-1.42,1.34-.2,1.05.14,1.84-.85.38-.47.7-1.2,1.09-1.63,1.67-1.86,3.57.15,4.72,1.84.56.82,3.49,6.67,3.94,3.16Z"/>
          <path class="cls-20" d="M456.85,90.87c1.21.08,1.59-1.38,2.71-1.45,1.09-.07,2.31,1.69,2.72-.14,2.05,1.08,1.11,5.28,1.48,7.18.15.78.49,2.76,1.19,3.25.42.29.7-.19,1.04.02,2.82,1.72.55,6.97,2.26,9.75.85-1.37.46-4.34.71-5.99.36-2.33,1.25-4.88.54-7.23-.25.53-.52,1.1-.94,1.55-1.65-.97-.85-3.55-.6-5.08.23-1.39-.36-5.56.77-6.59.88-.81,1.06-.38,1.29.79.47,2.31-.96,4.79-.01,7.14,1.16-.61.99-3.26,1.32-4.54.51-1.89.83-4.19,1.52-6,.4-1.05.93-1.09,1.42-1.89.51-.82.17-1.93,1.36-2.14.76,1.77.15,3.91,1.03,5.66,2.4-1.84,1.7-6.52,2-9.09.47-4.03,2.14-7.8,1.18-11.89-1.74.99-2.73,1.54-3.59,2.49-2.56,2.81-4.25,6.31-6.82,9.17-5.2,5.81-13.62,7.26-19.52,12.17,1.21.62,2.86.05,4.1.61,1.1.5,1.54,2.16,2.81,2.24Z"/>
          <path class="cls-42" d="M485.93,68c.5-2.02,1.29-3.76,2.13-5.64.64-1.44,1.58-8.4,4.39-7.39,1.15.42.83,2.07,1.8,2.5,1.1.48,2.08-1.47,2.66-2.23,1.49-1.96,3.94-6.33,6.53-7.02,1.19-.32,2.11.34,3.28-.28.69-.36,1.02-.96,1.77-1.22.35-.12.72.62,1.16.41.44-.21.31-1,.64-1.2.38-.24.91-.72,1.33-.14.6.84-1.06,2.35.03,3.34.94.86,1.28-.15,1.75-.96.75-1.29,1.17-3.02,2.41-3.95.74-.55,1.73-.89,2.54-1.51,1.74-1.35,3.77-1.58,5.56-2.69.74-.46,2.47-2.32,2.43-3.23-.01-.3-.07-.42-.19-.44-.13-.03-.34.08-.63.19-1.16.44-2.07,1.01-3.3,1.34-1.38.37-2.61,1.09-3.97,1.5-1.21.36-2.52.45-3.75.76-2.16.55-4.34,1.41-6.41,2.21-4.75,1.84-9.33,4.05-14.05,5.88-.99.38-2.09.52-3.11.82-1.17.34-2.07.95-3.34.67-1.23-.27-1.82-1.74-2.59-2.45-.55,1.32.08,3.95.16,5.46.08,1.47-.07,2.76-.16,4.24-.16,2.58-.05,5.17-.31,7.74-.27,2.66-1.77,6.66-.82,9.23,1.34-1.15,1.62-4.24,2.04-5.95Z"/>
          <path class="cls-37" d="M475.71,127.98c-.15,1.99-.43,3.9-.73,5.88-.11.72-.82,3.1.46,3.06,1.38-.04,1.21-4.06,2.46-4.85.25.67,0,1.5.12,2.2,1.25-1.05,1.74,1.48,1.65,2.22-.1.84-1.02,2.9-.47,3.74.45.68,2.31.95,3.13,1.52.17-.82.22-2.4.86-2.99.86-.79,1.12-.06,1.82.3.5.25.48.22.96.37.41.12.78.02,1.22.21.99.43,1.19,1.29,1.78,2.1,1.3,1.8,3.09.6,5.11,1.36,1.61.6,2.82,1.33,4.54,1.51,1.24.13,2.25.63,3.43.94-.13-2.07-3.95-3.23-5.45-4.21-2.5-1.63-5.06-3.11-7.64-4.6-3.15-1.82-5.88-4.09-8.13-6.93-1.98-2.5-2.49-6.12-3.8-8.87.08,2.32-1.16,4.71-1.33,7.05Z"/>
          <path class="cls-12" d="M522.94,151.74c-.18-.32-.47-.56-.8-.71-.81-.36-1.89-.18-2.28.75-.33.79.14,1.7.04,2.52-.12.96-.67,1.93-1.02,2.83-.15.4-1.31,2.51-1,2.9,1.03,1.26,2.05-3.51,2.94-1.01.15.41-.19,1.03.14,1.46.34.44.48.22.83.47.57.39,1.16,1.11,1.8,1.5,2.73-2.45,1.24,4.63,2.36,5.13.9.4,1.3-2.53,2.63-2.62,1.13-.08,1.58.98,2.26,1.61.44.4,1.1.59,1.49,1.02.6.64.57,1.79,1.34,2.26.91.55,2.31.29,3.25,1.15,1.14,1.05.79,2.77,1.47,3.99.82,1.45,1.23-.31,2.62-.28,1.42.03,3.16.76,3.23,2.16.16,3.35-1.58,6.79-1.3,10.14,2.15-1.14,2.36-4.82,3.26-6.79.51-1.11,1.37-2.1,1.83-.33,1-.49,1.69-2.61,2.58-3.5s2.21-1.44,2.84-2.43c-1.09-.37-2.42-.32-3.59-.37-1.79-.08-3.39-.74-5.05-1.4-4.31-1.72-7.87-3.82-11.08-7.1-1.77-1.82-3.65-3.54-5.34-5.43-1.45-1.62-2.45-3.61-4.03-5.11-.93-.89-.83-1.73-1.44-2.8Z"/>
          <path class="cls-27" d="M600.22,165.68c-3.78,1.15-7.43,1.98-11.38,2.48-3.04.39-5.81,1.08-8.77,1.69,1.9.52,3.67.44,5.39,1.51,1.03.64.86.67,2.14.26,1.02-.32,1.64-.3,2.64-.22.7.06.56.32,1.33.08.52-.17,1.07-.69,1.58-.95,1.2-.6.92-.02,2.04-.03.66,0,1.18-.94,1.8-.22.61.7-.95,2.69-1.3,3.31.97-.47,1.79.29,2.57-.11.96-.48,1.59-2.66,2.49-3.4.51-.43,1.75-.95,2.42-.98,1.05-.04.97.79,1.78.95.48.1.99-1.06,1.5-.13.31.58-.59,1.82-.23,2.62,1.39-1.29,1.69-3.02,2.5-4.67.76-1.55,2.29-2.13,3.27-3.38-3.36-.86-8.79.28-11.78,1.19Z"/>
          <path class="cls-18" d="M529.16,207.78c.23-.72.78-1.33,1.06-2.08.36-.97.63-2.02.9-3.02.61-2.25,2.2-4.27,2.75-6.57-.41-.13-.74-.14-1.17.23-.89.75-1.56,1.6-2.34,2.47-2.04,2.28-3.94,3.81-6.81,5.11-5.1,2.31-11.96,2.86-13.98,8.86.89-.14,1.99-.79,2.82-.52.41.13.11.73.7.76.44.02,1.25-1,1.61-1.23.62-.4,1.29-.6,1.93-.95.71-.38.74-.71,1.3-1.25.83-.8,1.94-1.03,3.09-.93.21.6.19,1.26.63,1.76.81-.28,1.36-1.33,1.84-2,.78-1.1,1.17-1.23,2.24-1.83.53-.3,2.55-2.34,3.11-2.1.79.34-.05,2.58.31,3.28Z"/>
          <path class="cls-34" d="M170.88,185.73c.31,3.29.9,6.38,1.73,9.59.56,2.16.9,5.81,2.66,7.41,2.6-1.4-.22-7.66.85-10.03,2.08-.15,2.37,3.1,3.87,3.69.45.17,1.13-.16,1.84.21.87.45,1.59,1.62,1.99,2.47,1.12,2.4,1.39,5.27,2.31,7.77,1.18,3.2,2.12,6.95,4.06,9.81.43-2.45.18-5.33,1.16-7.67.53-1.27,1.75-2.16,2.06-3.52,2.25,1.24.61-3.63.56-4.46-.18-2.84,1.98-5.69-1.47-7.35-6.77-3.24-13.12-8.67-18.24-14.15-1.97-2.11-3.79-4.25-6.66-4.49-.24,1.82.95,3.37,1.65,4.93.82,1.81,1.45,3.81,1.64,5.79Z"/>
        </g>
      </g>
    </g>
  </g>
</svg>