<?xml version="1.0" encoding="UTF-8"?>
<svg id="Layer_2" data-name="Layer 2" xmlns="http://www.w3.org/2000/svg" viewBox="0 0 114.05 42.23">
  <defs>
    <style>
      .cls-1 {
        fill: #633b0d;
      }
    </style>
  </defs>
  <g id="Layer_1-2" data-name="Layer 1">
    <g>
      <path class="cls-1" d="M113.92,37.45c-2.19.19-4.39.01-6.59-.02.22-.05.42-.07.6-.03.15.03.31-.24.15-.32-.3-.17-.73-.1-1.07-.07-.79.07-1.59.07-2.37.19-.28.04-.56.06-.84.08.42-4.49-.04-8.96-1.98-13.06-.95-2.01-1.88-4.1-3.06-5.98-.51-.83-1.12-1.65-1.51-2.54-.05-.12-.12-.26-.21-.4-.15-.35-.34-.67-.63-.96-.09-.09-.25.03-.29.14,0,0,0,0-.01,0-.72-.05-1.08,2.12-1.21,2.52-.57,1.71-1.17,3.41-1.73,5.13-.12-.65-.37-1.25-.64-1.84-.36-1.18-.83-2.32-1.48-3.37-.42-.68-.89-1.34-1.36-1.98-.17-.34-.33-.68-.5-1.01-.58-1.12-1.21-2.22-1.8-3.34-.06-.12-.13-.24-.2-.36-.19-.56-.43-1.09-.77-1.64-.31-.48-.65-.96-.97-1.44-.39-.67-.78-1.33-1.17-1.99-.25-.57-.45-1.16-.71-1.72-.19-.42-.64-.78-.96-1.1-.21-.21-.41-.48-.61-.75-.19-.32-.46-.81-.8-1-.24-.24-.51-.42-.82-.51-.73-.21-1.8.74-2.33,1.12-1.11.81-2.09,1.77-3.02,2.77-1.94,2.1-3.85,4.19-5.59,6.47-.78,1.02-1.56,2.03-2.33,3.06-.4.54-.96,1.31-1.16,2.05-.83-1.47-1.91-2.81-3.09-4.01-.49-.5-1.01-.97-1.5-1.48-.39-.41-.78-1.01-1.27-1.3-.75-.45-1.4.49-1.78,1.05-.88,1.28-2,2.38-2.77,3.74-.78,1.38-1.41,2.88-2.11,4.3-.56,1.13-.92,2.36-1.29,3.57-.1-.16-.18-.39-.3-.51-.06-.16-.12-.33-.19-.48-.41-1.05-.92-2.07-1.42-3.09-.45-.92-.92-1.82-1.39-2.73-1.01-1.78-2.04-3.55-2.98-5.38-.95-1.84-1.8-3.72-2.74-5.56-.24-.47-.51-.95-.77-1.43-1.28.05-2.56.12-3.83.21-1.58.12-3.17.21-4.75.34-.44.03-.88.08-1.32.13-.01,0-.02,0-.03.01-2.09,1-4.06,2.2-6.04,3.41-1.99,1.21-4.02,2.35-5.98,3.61-1.66,1.06-3.3,2.15-5.04,3.08-.02.04-.04.07-.06.1-.34.59-.7,1.13-1.09,1.68-.68.95-1.16,2.07-1.57,3.16-.49,1.29-1.11,2.54-1.54,3.85-.48,1.43-1.09,2.9-1.68,4.29-.55,1.28-.94,2.6-1.46,3.88-.56,1.39-1.01,2.82-1.44,4.24-.23.76-.49,1.51-.72,2.28-.06.21-.12.48-.17.7-.06.27-.13.55-.2.82-.72.06-1.44.15-2.17.21-.88.08-2.46.38-3.21-.27-.02-.02-.05.02-.04.04.76.95,2.88.97,3.99,1.1,1,.12,2.01.06,3.01.06.96,0,1.95.01,2.9-.11.91-.12,1.78.07,2.68.03.98-.04,1.97-.11,2.95-.15,1.86-.08,3.69.17,5.53-.12,1.92-.3,3.81-1.11,5.77-1.04,1.05.04,2.06.37,3.06.67.29.09.57.15.84.18-.34.06-.69.12-1.03.18-3.2-.09-6.4-.13-9.58.2-1.99.21-4,.21-5.98.46-.99.12-1.97.31-2.97.39-.57.05-1.14.05-1.71.11-.68.07-1.32.27-2.01.12-.04-.01-.09.06-.05.08.75.27,1.54.09,2.31.14,1.03.06,2.06.1,3.08.03,2.08-.15,4.15-.02,6.21-.34,1.03-.16,2.03-.47,3.05-.65,1.15-.2,2.37-.2,3.54-.21.81,0,1.62,0,2.42,0-.35.07-.71.13-1.06.19-1.04.16-2.08.3-3.12.46-.57.08-1.15.15-1.7.33-.28.09-1.02.22-1.35.13-.03,0-.06.04-.03.05.55.23,1.38-.01,1.96-.05,1.02-.07,2.04-.11,3.06-.16,2.17-.11,4.34-.3,6.51-.44,4.44-.27,8.91-.31,13.36-.63.12,0,.27-.24.09-.25-2.13-.16-4.27-.15-6.4-.26-1.74-.09-3.45-.13-5.17-.11.15-.08.29-.16.48-.24,1.02-.43,2.12-.59,3.21-.76.57-.09,1.13-.14,1.7-.16.01.05.04.09.09.12.22.12.53,0,.76-.04.74-.15,1.61.02,2.36.04,1.27.04,2.53.46,3.81.35,1.6-.14,3.23-.19,4.85-.21h-.02c-1.49.11-2.88-.03-4.33.46-.05.02-.07.12,0,.1,1.54-.29,2.98.12,4.51.24,1.43.12,2.8.05,4.23.01.6-.01,1.25.22,1.86.24.7.02,1.41-.07,2.09-.2,1.48-.27,2.89-.81,4.36-1.13,1.5-.32,3.05-.3,4.61-.2-.44.07-.88.17-1.32.29-.03,0-.05.07,0,.06,1.78-.14,3.51.06,5.25.41,1.68.33,3.24.42,4.94.28.63-.06,1.27-.1,1.91-.14-.12.02-.25.04-.37.06-1.1.18-2.2.34-3.31.47-.86.11-1.65.15-2.45.49-.05.02-.09.16,0,.13.84-.24,1.76-.17,2.62-.19,1.02-.02,2.03-.07,3.05-.15.98-.09,1.96-.1,2.93-.22,1.12-.13,2.05-.07,3.16.08.96.13,1.96.01,2.91-.06,1.02-.08,2.02-.59,3.03-.77,1.16-.2,2.31-.34,3.49-.33.69,0,1.37.04,2.06,0-.64.09-1.27.19-1.9.3-1.01.18-2.61.08-3.39.85-.03.03-.03.1.03.09.22-.04.17,0,.28-.17,0,0,0,0,0-.01.13,0,.58-.03.6-.04.36-.05.71-.08,1.07-.08.67-.01,1.33-.04,2-.1,1.56-.15,3.1-.3,4.67-.25.27,0,.53.02.8.04-.62.05-1.25.09-1.87.12-.87.05-1.75,0-2.62.05-.41.02-.74.17-1.11.23,0,0,0,0,0,0,0,0-.02,0-.02.01,0,0,0,0,0,0,0,.01-.01.02-.01.03h0s0,.02,0,.03c0,0,0,0,.01,0,0,0,0,0,0,0,.42.07.9-.03,1.35.02.84.1,1.67.23,2.52.27,1.62.07,3.29-.07,4.88-.41,1.59-.34,3.45-.14,5.07-.16,1.61-.02,3.35-.01,4.9-.49.15-.05.28-.34.04-.32ZM59.46,9.17s-.04.03-.04.05c-.14.3-.32.59-.52.88.16-.3.32-.59.47-.89.03-.02.06-.03.09-.03ZM57.87,11.26c.29-.44.62-.86.89-1.32.07-.11.23-.41.43-.61-.96,1.44-1.89,2.85-2.7,4.37.42-.84.86-1.66,1.37-2.45ZM17.72,38.57s-.02.02-.03.03c-.22-.02-.45-.03-.67-.03-1.81-.02-3.64.24-5.42-.12-.81-.16-1.62-.4-2.43-.53-1.02-.15-2.06-.04-3.08.04-.18.01-.35.03-.53.04,1.07-2.52,1.91-5.14,2.98-7.66,1.11-2.6,2.1-5.25,3.25-7.84,1.09-2.46,1.84-5.07,3.24-7.38.29-.48.68-.84.92-1.35.11-.25.26-.42.43-.55.32.5.57,1.09.81,1.55.23.45.44.9.65,1.36-.42.21-.79.57-1.12.85-.59.5-1.22.96-1.8,1.48-.03.03,0,.07.03.04.56-.39,1.14-.75,1.71-1.12.43-.28.91-.55,1.34-.86.06.15.12.3.19.45-.31.19-.59.42-.87.67-.35.31-.78.56-1.08.91-.04.04,0,.1.05.06.4-.29.87-.51,1.29-.8.24-.16.52-.3.77-.46.03.06.05.13.08.19.78,2.11,1.55,4.3,2.07,6.49.17.7.34,1.4.51,2.1-.06-.1-.12-.21-.18-.32-.41-.76-.76-1.55-1.2-2.28-.28-.48-1.21-2.3-1.96-2-.66.27-1.08,1.92-1.37,2.48-.79,1.53-1.48,3.05-2.07,4.68-.6,1.65-1.08,3.35-1.39,5.09-.12.67-.12,1.35-.17,2.02.21-1.17.45-2.33.78-3.48.42-1.47.91-2.99,1.57-4.42.46-1.29,1-2.56,1.61-3.79-.13.3-.25.6-.38.9-.21.52-.43,1.06-.58,1.59-.09.31-.26.54-.24.86,0,.08.1.09.16.06.35-.14.54-.5.82-.75.33-.28.99-.67,1.23-1.04-.55.84-1.04,1.72-1.53,2.6-.3.52-.58,1.07-.84,1.62-.12.25-.57.92-.41,1.22.05.09.16.07.23.02.4-.28.77-.65,1.12-1.02-.13.19-.25.39-.38.57-.76,1.12-1.68,2.37-2.1,3.66-.02.06.05.06.08.02.55-.95,1.37-1.78,2.17-2.6-.31.71-.57,1.45-.8,2.2-.14.43-.65,1.58-.15,1.88.05.03.14,0,.18-.04.79-.53,1.5-1.09,2.34-1.54.4-.21.89-.52,1.34-.62.02,0,.07-.01.13-.02-.36.24-.71.49-1.06.74-1.43,1.03-2.77,2.18-4.21,3.2-.04.03-.03.09.02.07.8-.33,1.53-.83,2.28-1.25.51-.3,1.04-.58,1.55-.87-.51.47-1.08.93-1.48,1.49-.04.06-.04.14.03.18.23.14.63-.05.88-.09.85-.11,1.73-.21,2.59-.25,0,0,1.13.04.54.29-.36.15-.7.33-1.05.49-.47.23-.94.55-1.37.86ZM20.16,38.66c-.35.05-.71.05-1.08.04.46-.08.91-.16,1.37-.24.6-.11,1.19-.11,1.79-.14-.69.15-1.39.25-2.09.34ZM31.44,37.51c-.96.06-2.05-.26-3.02-.32-1.77-.09-3.34.36-5,.82.07-.35,0-.74,0-1.08,0-.27,0-.55,0-.83.07.29.11.58.07.89-.01.08.1.04.12,0,.14-.47.1-.93.03-1.4-.12-.81-.12-1.63-.3-2.44-.16-.8-.37-1.6-.6-2.39-.09-.53-.17-1.06-.24-1.6-.31-2.31-.78-4.6-1.32-6.87-.26-1.08-.67-2.11-.98-3.17-.29-.99-.64-1.87-1.11-2.79-.46-.9-1.15-1.6-1.73-2.41-.2-.27-.39-.61-.61-.9.13-.06.28-.12.44-.17,1.14-.43,2.22-1.21,3.24-1.91,0,.06.03.11.09.11.28.02.58-.06.87-.17-1.25.81-2.47,1.66-3.65,2.59-.01.01,0,.04.01.03,1.68-.99,3.39-1.85,5.17-2.66.21-.1.43-.19.64-.29,0,0-.02.02-.02.02-.48.38-.98.73-1.48,1.08-.62.44-1.38.88-1.84,1.5-.18.24-.15.4-.02.51-.26.19-.52.38-.78.57-.02.01-.01.04,0,.02.28-.18.56-.37.84-.54.17.09.42.1.62.06.38-.08.73-.26,1.11-.34.17-.04.29-.04.39-.02-.26.16-.51.33-.77.5-.47.31-.94.73-1.45.96-.04.02-.06.1,0,.08.86-.27,1.68-.84,2.49-1.25.05.32-.14.83-.15,1.16-.06,1.14,1.02,2.2,1.47,3.18.59,1.26.97,2.63,1.3,3.98.29,1.18.51,2.39.9,3.55,0,.03.02.06.04.1-.89-1.26-1.86-2.49-2.72-3.76-.04-.06-.08-.07-.13-.07.58,1.83,1.66,3.56,2.46,5.24.35.54.71,1.07,1.08,1.58.91,1.28,1.8,2.55,2.57,3.92.14.26.28.53.43.79-.52-1.5-1.08-2.98-1.74-4.42-.18-.4-.38-.78-.6-1.16-.02-.52-.06-1.03-.09-1.54-.06-1.27.08-2.57.14-3.84.11-2.33.39-4.66.66-6.98.12-1.09.33-2.13.61-3.18.28-1.07.49-2.17,1-3.16.48-.92.91-1.86,1.34-2.8.34-.73.7-1.46.97-2.21.29.04,5.44-.4,6.73-.35.65.03,1.31.05,1.96.06.35.01.69,0,1.03.01.43,0,.28-.04.29.43,0,.16.02.31.05.45,0,.8-.1,1.64-.08,2.37.05,1.58.11,3.18.2,4.76.07,1.16.2,2.32.38,3.46-.01.3,0,.61.14.83.02.12.04.23.06.35.14.73.32,1.45.46,2.18.02.11.03.22.05.32-.1-.11-.2-.22-.31-.33-.9-.93-1.8-1.84-2.77-2.71-1.01-.91-1.68-2.04-2.63-2.99-.5-.5-1.45-1.36-2.21-1.41-.8-.05-.92,1.07-.97,1.6-.08.83-.22,1.66-.36,2.49-1.5.78-2.87,1.86-4.28,2.8-.1.06-.05.2.07.13,1.36-.8,2.92-1.53,4.15-2.54-.05.27-.09.53-.13.8-.02.11-.03.22-.05.33-1.34.75-2.63,1.62-3.84,2.53-.03.02-.01.06.02.04.79-.52,1.63-.93,2.43-1.41.4-.24.88-.44,1.33-.67-.13,1.19-.16,2.4-.34,3.59-.2,1.36-.45,2.7-.57,4.07-.14,1.52-.15,3.04-.33,4.56-.17,1.37-.35,2.73-.45,4.1-.09,1.18-.12,2.41-.34,3.58-.14,0-.28.02-.43.03ZM44.37,34.93c-.65.24-1.3.49-1.95.74-.91.35-1.88.7-2.71,1.2-.35,0-.7.01-1.05.04-.81.05-1.63.18-2.44.29-.44.06-.88.14-1.31.22-.37.07-.71-.05-1.08-.05-.63,0-1.25.06-1.88.1.49-1.73.62-3.59.92-5.36.41-2.36.75-4.7,1.08-7.08.32-2.29.95-4.53,1.12-6.85.08-1.1.23-2.15.4-3.24.08-.5.08-1.02.14-1.53.01-.1,0-.25,0-.4.38,1.13.76,2.27,1.15,3.4,0,0,0,.02.01.03-.07.06-.15.11-.22.16-.05.03-.07.13.01.1.1-.04.17-.08.25-.13.07.21.16.46.29.62.54.65.08,1.41-.21,2-.28.57-.62,1.11-.93,1.66-.07.13-.59,1.21,0,.94.41-.18.8-.75,1.1-1.05.54-.54,1.22-1.22,1.94-1.6-.11.18-.24.36-.38.54-.45.38-.91.84-1.42,1.05-.02,0-.03.05,0,.04.36-.09.67-.31.98-.54-.05.07-.1.13-.14.2-.44.66-.87,1.33-1.24,2.03-.32.6-.63,1.22-.91,1.84-.14.32-.36.7-.2,1.04.02.04.07.08.12.08.29,0,.46-.2.65-.39.5-.52,1.04-1.02,1.61-1.47.11-.08.22-.17.34-.26-.12.14-.24.29-.36.43-.54.66-1.04,1.33-1.51,2.04-.46.69-1.02,1.4-1.35,2.17h0c-.03.1.09.17.17.07.45-.59,1.08-1.08,1.57-1.65.59-.68,1.21-1.33,1.84-1.97.28-.28.56-.57.84-.85-.5.81-.96,1.65-1.39,2.51-.45.91-.9,1.84-1.28,2.79-.28.7-.79,1.64-.63,2.41.22,1.14,2.86-1.57,3.12-1.8.3-.27.62-.52.95-.76-.12.11-.24.23-.36.35-.72.71-1.38,1.49-1.97,2.31-.35.49-1.07,1.06-1.14,1.7,0,.06.07.03.08,0,.2-.63,1.3-1.38,1.78-1.79.75-.63,1.48-1.27,2.24-1.88.12-.09.23-.19.35-.28-.56.56-1.2,1.26-1.22,1.93,0,.09.03.14.12.16.96.18,2.04-.3,2.97-.55-.02.01-.04.02-.06.03-.82.4-1.62.82-2.42,1.27-.28.16-.56.34-.83.51-.38.24-.82.75-1.22.91.06-.02.09-.13,0-.13-.09,0-.11.05-.16.12-.04.05,0,.12.06.11.69-.1,1.34-.51,1.99-.75.81-.3,1.65-.54,2.46-.84.39-.15.78-.3,1.17-.44-.12.06-.24.11-.36.17-1.05.49-2.04,1.16-3.03,1.76-.55.34-1.09.71-1.65,1.03-.29.17-.54.32-.72.62-.06.1-.09.29.05.34.36.13.67,0,1.05-.03.52-.03,1.04-.14,1.56-.21,1.18-.16,2.38-.24,3.57-.33.06,0,.1,0,.13-.02-.16.06-.32.12-.48.17ZM74.61,12.62c-.53.74-1.07,1.47-1.56,2.23-.5.77-1.01,1.53-1.5,2.3-.24.38-.63.85-.65,1.32,0,.07.03.17.12.16.56-.03.91-.52,1.32-.88.35-.3.76-.56,1.14-.83.16-.11.31-.24.47-.36-.38.55-.84,1.07-1.2,1.62-.52.79-1.05,1.67-1.44,2.54-.66,1.08-1.3,2.17-2,3.22-.03.04.02.06.05.03.6-.54,1.16-1.13,1.7-1.74.05.15.13.3.25.45.09.1.21.18.34.24-.17.2-.35.4-.52.6-.23.26-.43.52-.64.8-.11.15-.22.3-.33.46-.05.08-.09.16-.14.24-.13.1-.16.21-.12.32-.12.05-.12.06-.16.2-.03.08.06.13.12.08.71-.57,1.43-1.12,2.14-1.69-.5.65-.96,1.3-1.42,2-.06.09.03.16.12.11.02-.02.04-.03.05-.04.42-.28.84-.58,1.24-.9-.11.71-.08,1.38.06,2.1-.93,1-1.77,2.23-2.44,3.4-.04.07.04.1.09.05.46-.53,1.02-.85,1.53-1.31.29-.26.59-.52.88-.79-.05.29-.14.57-.24.85-.02.02-.03.03-.05.05-.73.75-1.13,1.8-1.93,2.46-.03.03-.04.1.02.07.47-.22.87-.58,1.26-.95-.29.71-.53,1.43-.8,2.15-.31.83-1.01,1.73-1.04,2.62,0,.17.09.25.26.24.32-.03.5-.22.8-.36.33-.15.68-.24,1.03-.3.03,0,.34-.08.31-.04-.28.32-.99,1.01-.78,1.5-.43,0-.85,0-1.27.04-1.74-.11-3.47-.18-5.22,0-1.55.16-3.01.79-4.58.82-1.4.03-2.76-.63-4.14-.51-.51.04-1.02.08-1.53.11-.12-.28-.21-.58-.3-.83-.21-.62-.57-1.22-.85-1.82-.57-1.23-1.09-2.48-1.68-3.7-.59-1.23-1.2-2.46-1.75-3.71-.49-1.1-.7-2.33-1.54-3.23-.02-.02-.03-.04-.05-.05-.4-.61-.98-1.18-1.5-1.6-.24-.25-.48-.49-.73-.73-.83-.79-1.51-1.71-2.27-2.56-.03-.82-.1-1.63-.21-2.49-.02-.18-.04-.37-.06-.55.34-.31.46-.95.56-1.33.22-.79.48-1.57.74-2.36.05.48-.06,1.09-.06,1.46,0,.57-.02,1.1.08,1.66.15.95,1.27,1.19,1.96,1.67,1.02.72,1.87,1.7,2.79,2.53.43.4.87.79,1.3,1.2.21.2.42.4.59.65.13.2.15.45.27.65.03.05.07.08.12.09,0,.03.01.05.02.07,0,.03,0,.06.02.08-.03.09-.03.18.05.25-.04.15-.09.32-.13.48-.15.41-.27.83-.39,1.23-.2.7-.81,2.38,0,2.85.11.07.21.13.32.2-.13.09-.26.18-.39.25-.05.03-.06.12.01.09.18-.06.35-.15.52-.25,1.11.75,1.85,1.67,2.43,2.92-.08,1.15-.03,2.3-.11,3.45,0,.05.06.02.07,0,.21-.54.24-1.14.34-1.71.05-.26.1-.51.15-.77.03.05.06.11.09.17.05.76.12,1.52.2,2.28.07.66-.04,1.8.37,2.34.05.07.16-.06.13-.12-.12-.33.02-.84.06-1.18.04-.37.08-.74.11-1.11.04.14.08.28.12.42.17.62.25,1.47.59,2.01.1.16.32-.02.33-.15.03-.21,0-.43-.04-.64-.01-.35-.04-.71-.06-1.06.09.37.18.74.27,1.11.08.3.46.02.45-.21-.23-3.22-.82-6.38-1.25-9.57-.27-1.99-.41-3.98-.47-5.97.05-1.59.25-3.17.84-4.63.49-1.2,1.11-2.32,1.74-3.44.03.02.06.02.1.01.29-.04,1.15-.71,1.56-.81-.23.29-.49.56-.71.86-.08.11-.05.27.09.29.19.03-.31.51-.42.63-.24.28-.51.52-.68.85-.06.12-.07.28.1.3.58.09,1.1-.32,1.65-.4-.12.12-.28.2-.41.34-.21.22-.37.53-.56.78-.1.12-.2.44.07.45.3.02.51-.08.77-.23.13-.08.31-.2.41-.03.13.23.31.82.36,1.05.26,1.24.79,2.46,1.15,3.67.35,1.16.43,2.39.59,3.59.07.5.13,1.01.21,1.52.07.46-.04.79.28,1.14.02.02.04.03.06.03v.14c-.05.08-.1.15-.16.22-.69.97-1.11,2.11-1.88,3.03-.06.07,0,.18.08.11.71-.53,1.24-1.22,1.8-1.88-.03.16-.06.31-.09.47-.01.05-.02.1-.03.15-.04.07-.09.13-.14.2-.58.88-1.09,1.82-1.57,2.76-.16.3-.64,1.02-.46,1.35.03.06.12-.01.11-.06-.06-.23.3-.6.43-.77.33-.46.68-.89,1.04-1.32.47-.57.94-1.14,1.42-1.7.14-.14.28-.27.4-.41.17-.19.37-.36.56-.54.38-.37.18-.22,0,.15-.23.49-.44,1.03-.71,1.5-.11.19-.25.37-.26.61,0,.12.09.17.2.12.14-.05.85-.44.81-.34-.13.37-.14.82-.1,1.21.06.59.43,1.14.5,1.74.01.1,0,.21,0,.32-.41.23-.79.48-1.17.76-.64.46-1.37.9-1.9,1.5-.05.06,0,.13.06.08.64-.45,1.35-.81,2-1.23.32-.21.71-.41,1.05-.65.02.04.04.07.07.1,0,0,.01.01.02.01-.22.97-.39,1.94-.39,2.94,0,.11.14.05.15-.03.24-2.27,1.18-4.38,1.46-6.63.3-2.44,1.16-4.72,1.89-7.05.68-2.19,2.02-3.89,3.33-5.73,1.32-1.85,2.6-3.7,4.12-5.41.2-.23.33-.47.47-.74,0,0,.02,0,.03,0-.23.74-.75,1.35-1.2,1.98ZM88.95,37.55s-.02-.07-.08-.08c-3.29-.57-6.76-.64-10.11-.41.2-.51.28-1.08.34-1.66.02-.02.04-.04.04-.06,1.13-4.02,1.35-8.54.89-12.69-.24-2.17-.89-4.2-1.6-6.25-.32-.93-.49-1.9-.81-2.83-.18-.52-.42-1.02-.66-1.51-.14-.51-.28-1.02-.43-1.52-.14-.46-.53-.56-.89-.3-.3.21-.53.59-.82.84-.38.34-.72.67-1.07,1.04-.86.91-1.71,1.71-2.44,2.73-.4.56-.78,1.13-1.18,1.69-.46.15-.84.45-1.24.72-.57.38-1.16.74-1.74,1.11-.22-.8-.53-1.56-.89-2.29.09-.07.17-.21.1-.28.47-.86,1.2-1.68,1.83-2.41.78-.91,1.53-1.84,2.28-2.78.85-1.07,1.75-2.09,2.67-3.09-.05.09-.09.17-.09.26,0,.04.02.09.07.09.2,0,.31-.07.47-.19.61-.48,1.38-.86,2.08-1.18.24-.11.51-.2.76-.28.01,0,.01.02.02.03-.58.49-1.17,1-1.83,1.32-.02,0-.05.07-.01.07.33,0,.63-.25.9-.42-.36.28-.73.55-1.04.88-.09.1-.11.39.1.32.44-.14.87-.32,1.29-.49.36-.14.72-.25,1.1-.27.56-.02.43.68.49.99.21,1.11.98,1.36,1.96,1.73.09.03.19.07.28.12-.31.35-.6.72-.87,1.08-.07.1.04.18.13.12.41-.27.84-.52,1.26-.77.05.08.09.17.12.28.07.28-.03.64-.09.91-.03.13-.05.26-.07.38-.42.53-.85,1.09-1.37,1.48-.04.03-.04.12.03.09.44-.22.87-.47,1.29-.76,0,.05,0,.09,0,.14.08.9,1.5.73,2.2.88-.74.88-1.33,1.9-2.11,2.74-.05.06.01.11.07.06.5-.46,1.13-.8,1.67-1.21.1-.07.19-.15.29-.24-.29.52-.65,1.01-.98,1.5-.4.6-1.33,1.59-1.03,2.39.24.65,1.64-.24,1.89-.41.88-.59,1.8-1.11,2.68-1.68-.04.14-.06.3-.08.45-.11.14-.21.26-.3.36-.73.87-1.45,1.76-2.12,2.67-.07.09,0,.23.13.17.83-.44,1.54-1,2.23-1.62,0,.56.06,1.12.37,1.58.22.32.61.47.84.82.26.39.39.91.54,1.36.32.99.65,1.98,1.01,2.96.41,1.12,1.16,2.48.55,3.63-.45.86-1.09,1.65-1.57,2.49-.29.49-.79,1.22-.74,1.81.01.1.12.16.21.13.45-.12.73-.47,1.07-.78.32-.3.63-.6.97-.88.12-.1.25-.29.39-.43-.02.57.06,1.1.26,1.66.34.95.61,1.96.86,2.95.03.11.12.14.21.11,0,.18,0,.36,0,.54-.23.02-.45.04-.68.06ZM91.76,37.22c-.64.09-1.28.18-1.92.25.03-5.73-.12-11.39-.8-17.09-.17-1.4-.48-2.77-.65-4.17-.11-.87-.28-1.71-.46-2.56.08.15.16.3.25.46.66,1.14,1.37,2.25,2.03,3.4.68,1.19,1.18,2.45,1.7,3.71.2.49.32.99.42,1.5-.61.46-1.19,1-1.72,1.47-.03.02-.02.07.02.04.5-.36,1.02-.68,1.55-1.01.07-.05.15-.09.23-.14.02.11.04.21.06.32-.19.19-.37.38-.53.56-.54.56-.97,1.21-1.5,1.77-.03.04-.02.11.04.08.53-.31.95-.87,1.4-1.28.2-.19.45-.37.69-.56,0,.04.02.09.02.13-.42,1.88-.22,3.95-.16,5.86.08,2.38.31,4.74.51,7.12,0,.02,0,.03.01.05-.39.02-.78.05-1.17.1ZM99.61,37.16c-.68.02-1.36.08-2.04.15.07-.06.12-.2,0-.2-1.46.02-2.89-.07-4.33-.01.05-.05.09-.11.1-.17.12-1.97-.08-3.96-.09-5.93,0-1.88-.07-3.77-.13-5.65v-.09s.01-.03.01-.05c0-.08,0-.16-.01-.24.02-.56.1-1.12.22-1.67.23-.21.42-.45.55-.71.06-.12,0-.28-.16-.21-.07.03-.13.07-.2.11.29-1.05.66-2.09.91-3.12.07-.3.16-.59.25-.89.34,0,.65-.21.95-.35.12-.06.2-.08.25-.07-.18.28-.35.56-.52.84-.33.54-.71,1.04-.85,1.66,0,0,0,0,0,0,0,.09.09.12.17.04.3-.3.59-.63.88-.96,0,.07.06.13.13.12.17,0,.49-.13.44.15-.05.3-.09.61-.11.91-.03,0-.05.02-.08.03-.06.02-.08.15,0,.13.02,0,.04,0,.07-.02-.02.21-.03.41-.04.62-.01.33,0,.66.03.99-.16.15-.33.28-.5.34-.05.02-.08.13,0,.12.19-.03.36-.12.53-.22.05.4.13.79.23,1.18-.61.69-1.2,1.4-1.71,2.17-.04.07.02.13.09.08.61-.45,1.26-.89,1.85-1.39.02.08.04.15.06.23-.28.35-.53.72-.78,1.09-.13.19-.56,1.11-.79,1.15-.08,0-.15.12-.11.18,0,.02.02.04.05.04,0,0,0,0,0,0,.49.09,1.46-1.15,1.76-1.43.04-.04.08-.08.12-.11.08.3.17.6.31.88.34.69.55,1.31.71,2.06.18.83.35,1.66.51,2.49-.49.79-.95,1.59-1.23,2.47-.05.09.04.19.14.11.9-.69,1.68-1.65,2.37-2.54.25-.32.63-.71.96-1.13.02.07.04.14.05.21-.22.21-.4.47-.57.67-.24.29-.5.57-.74.87-.14.18-.34.36-.41.57-.01.04.02.07.06.06.08-.04.08-.05.1-.14,0,0,0,0,0,0,.07,0,.13-.01.18-.07.11-.07.24-.23.34-.3.25-.2.52-.38.76-.59.15-.13.3-.25.45-.38.06.21.12.41.22.61.05.11.07.22.05.32-.45.36-.89.72-1.32,1.1-.65.56-1.26,1.16-1.84,1.79-.32.34-.8.75-.89,1.23-.02.09.1.04.12,0h0c.05-.03.07-.13,0-.11-.03,0-.05,0-.07.03.18-.19.55-.46.79-.67.45-.39.91-.77,1.38-1.15.03.09.11.16.24.08.25-.14.55-.28.86-.39-.22.24-.43.48-.63.73-.34.34-.7.73-.89,1.18-.09.21.14.29.29.18.72-.5,1.62-.9,2.47-1.15.19-.05.79-.32.44.02-.11.11-.31.34-.31.51-.01.51.15.39.52.62.38.25.56.7.78,1.08-1.14-.01-2.28-.15-3.43-.12Z"/>
      <path class="cls-1" d="M112.4,38.35c-1.96.22-3.96.07-5.93.17-1.93.1-3.84.15-5.77.37-1.88.21-3.76.09-5.64.24-2.22.17-4.44.35-6.67.49h0c-.14,0-.24.24-.09.25,2.08.13,4.16.09,6.24,0,.97-.04,1.95,0,2.93,0,.87,0,1.66-.26,2.5-.44,2.1-.42,4.22-.45,6.35-.54,1.01-.04,2-.11,3.01-.08,1.04.02,2.01.05,3.03-.2.14-.03.23-.29.03-.27Z"/>
      <path class="cls-1" d="M87.34,38.86c-3.08-.1-6.15-.42-9.22-.53-1.38-.05-2.76.2-4.15.08-1.47-.12-3.03.44-4.47.11-.03,0-.06.04-.03.05.6.27,1.27.38,1.95.43-1.37.03-2.74.13-4.1.17-1.55.05-3.07-.06-4.6-.16.09-.01.19-.03.28-.05,1.9-.31,3.8-.43,5.72-.6.12-.01.24-.27.07-.28-1.83-.16-3.69-.19-5.53-.18-.87,0-1.73.06-2.59.15-.98.12-1.94.48-2.92.52-.77.03-1.5-.07-2.28.02-.92.1-1.84.18-2.76.26-.95.07-1.89.14-2.84.25-.4.05-.79.1-1.18.2-.19.05-.38.11-.56.16-.13.04-.35.32-.12.05.03-.04,0-.09-.04-.05-.04.03-.09.07-.13.11-.04.03-.06.11.01.1,1.38-.19,2.82-.04,4.22.02-.04.05-.05.11,0,.13,1.53.51,3.08.92,4.7,1,1.62.08,3.02-.39,4.59-.67,3.69-.66,7.53-.51,11.26-.94.06,0,.13-.1.12-.17.17,0,.33,0,.49.02,1.37.07,2.67.32,4.04.05,1.55-.3,3.28-.19,4.86-.24,1.73-.05,3.45.1,5.17.09.06,0,.13-.12.05-.13Z"/>
      <path class="cls-1" d="M47.5,40.26c-.65-.04-1.31-.02-1.97-.05-.7-.04-1.32-.31-2-.42-.61-.1-1.3.03-1.92.04-.82,0-1.63,0-2.44.02-3.03.07-6.18.28-9.18.71-.07.01-.12.15-.02.14.08,0,.16-.01.24-.02.02,0,.04-.02.05-.04.16.06.43.13.39.13.35.03.7.04,1.05.06.82.05,1.64.07,2.46.08,1.54.02,3.07.01,4.61.01,2.91,0,5.79-.23,8.68-.45.1,0,.19-.22.05-.22Z"/>
      <path class="cls-1" d="M23.46,41.02c-2.97.06-5.95.24-8.92.26-1.6.02-3.18.31-4.77.32-.6,0-1.2,0-1.8.05-.22.01-.39.17-.36-.03,0-.04-.05-.02-.06,0-.04.03-.07.05-.1.08-.04.02-.08.1-.01.11.97.12,2.16.45,3.13.37,1.57-.13,3.14-.03,4.72.04,2.74.1,5.44-.56,8.14-.99.08-.01.18-.21.05-.21Z"/>
      <path class="cls-1" d="M93.09,40.19c-2.2-.06-4.39-.1-6.59-.2-2.1-.09-4.26.21-6.35-.09-2.15-.3-4.4-.58-6.57-.37-1.19.11-2.39.18-3.59.28-1.23.1-2.41.46-3.64.59-.02,0-.05.05-.01.05,1.05.05,2.11-.07,3.16-.07,1.17,0,2.34.04,3.52.02,2.25-.03,4.46.36,6.67.77,2.07.39,4.29-.44,6.35-.65,2.31-.23,4.68-.17,7.01-.23.05,0,.11-.11.04-.11Z"/>
    </g>
  </g>
</svg>