<?xml version="1.0" encoding="UTF-8"?>
<svg id="Layer_2" data-name="Layer 2" xmlns="http://www.w3.org/2000/svg" viewBox="0 0 143.09 117.68">
  <defs>
    <style>
      .cls-1 {
        fill: #753d22;
      }
    </style>
  </defs>
  <g id="Layer_2-2" data-name="Layer 2">
    <g>
      <path class="cls-1" d="M119.74,82.91c-.08-.05-.21,0-.21.1,0,.06,0,.12-.01.19-.13-.21-.29-.39-.48-.56-.72-.65-1.78-.97-2.69-1.26-.52-.17-1.01-.4-1.55-.46-.17-.02-.33-.03-.5-.03.1-3.99-1.72-9.22-3.17-13.35-.5-1.41-.92-2.62-1.19-3.56-.85-2.97-1.79-5.98-2.7-8.88-2.34-7.48-4.76-15.22-5.81-23.11l-.21-1.6-1.26,1.01c-3.68,2.97-4.13,8.13-4.26,12.73-.12,4.15-.42,8.24-.81,12.21-.04.04-.06.1-.08.15-.08.19-.13.4-.19.6-.13.46-.24.94-.36,1.41-.23.87-.44,1.76-.67,2.63-.19.73-.41,1.24-1,1.71-.56.45-.98.9-1.13,1.64-.15.79-.03,1.65,0,2.45.02.89,0,1.78-.02,2.67-.05,1.75-.1,3.51-.15,5.25-.05,1.68-.08,3.37,0,5.04-.01.06-.02.13-.03.19-1.14-4.4-2.45-8.67-3.87-12.67-.95-2.68-2.19-5.3-3.38-7.84-2.2-4.65-4.27-9.05-4.82-13.92-.19-1.7-.19-3.47-.19-5.17,0-2.08.01-4.22-.32-6.33-.65-4.15-2.57-8.04-4.42-11.8-1.71-3.47-3.78-7.24-4.17-11.16-.38-3.77-.49-7.46-1.35-11.2-.66.11-1.04.79-1.31,1.41-1.19,2.69-2.85,6.02-3.12,8.98-.23,2.55-.03,5.2-.32,7.81-.7,6.36-1.96,12.65-3.77,18.78-.22.75-.45,1.5-.68,2.25-1.45,4.74-2.95,9.65-2.46,14.69.09.99.26,1.97.43,2.92.39,2.24.76,4.36.2,6.36-.56,2-1.97,3.63-3.46,5.37-.45.53-.93,1.07-1.37,1.62-4.44,5.56-3.74,12.01-3.06,18.25.22,2.02.44,4.1.48,6.1-.94.53-1.68,1.44-2.36,2.24-.24.3-.13.8.17,1,1.32.93,3.11,1.3,4.69,1.46,1.68.18,3.38.16,5.06.2,1.5.04,2.98.07,4.48.15.09,0,.19,0,.28.01.05,0,.12,0,.2,0,.07,0,.13,0,.2.01.84.05,1.68.1,2.53.11.82.02,1.77.15,2.58-.02.03,0,.05-.02.07-.04,2.76.1,5.53.41,5.86,1.32.06.18.03.38.05.57.07,1.31,2.54,3.05,3.65,3.44,1.48.51,3,.45,4.48.41.63-.03,1.23-.05,1.83-.03.72.03,1.42.12,2.17.21.9.11,1.83.23,2.78.23.16,0,.32,0,.49-.02,1.92-.09,4.31-.94,5.25-3.04.24-.55.36-1.12.4-1.7.95.11,2.47.2,2.78,1.32.25.96-1.25,1.59-1.91,1.93-1.88.98-3.93,1.64-6.02,1.99-2.18.37-4.45.54-6.66.39-2.21-.14-4.42-.52-6.59-.96-.91-.19-1.95-.4-2.64-1.07-.32-.3-.52-.63-.59-1.05-.08-.5.03-1.01-.1-1.51-.26-1-1.21-1.43-2.16-1.5-1.2-.1-2.43.05-3.64.07-5.16.11-10.29-.24-15.42-.79-1.16-.12-2.28-.25-3.39-.64-1-.35-1.99-.7-2.96-1.17-.52-.25-1.26-.66-.86-1.31.31-.5.73-.95,1.16-1.34.95-.87,2.04-1.45,3.3-1.75.11-.03.09-.2-.02-.18-1.04.23-2.04.66-2.95,1.22-.48.29-.94.65-1.34,1.05-.34.33-.77.72-.9,1.2-.12.48.16.88.42,1.25.3.45.64.86,1.04,1.22.78.7,2.03,1.07,3.05,1.2,2.54.32,5.1.38,7.65.5,2.87.13,5.75.22,8.62.3,1.43.04,2.87.1,4.3.14.61.02,1.22,0,1.83.08.43.06.92.19,1.09.62.2.51.15,1.07.42,1.57.2.37.54.7.89.93.73.5,1.69.76,2.55.95,2.34.5,4.75.82,7.14,1.09,2.4.26,4.76.52,7.17.29,2.65-.26,5.3-.97,7.55-2.44.68-.44,1.14-1.11,1.19-1.83.09.51-.06,1.04-.49,1.53-.77.89-1.95,1.35-3.02,1.73-1.4.5-2.85.87-4.32,1.15-2.96.57-5.96.72-8.96.71-1.49,0-2.98-.05-4.46-.11-1.29-.05-2.62-.12-3.83-.6-.7-.28-1.34-.67-1.87-1.22-.49-.5-.89-1.08-1.44-1.51-.77-.62-2.07-.9-2.76-.03-.08.09.08.21.16.11.47-.59,1.31-.55,1.92-.22.63.34,1.04.96,1.47,1.5.83,1.04,1.86,1.72,3.11,2.13,1.34.43,2.69.62,4.09.76,1.57.16,3.16.24,4.74.26,3.13.04,6.32-.21,9.38-.91,1.46-.35,2.96-.75,4.33-1.36,1.08-.48,2.2-1.18,2.8-2.23.71-1.26.46-2.81-.54-3.84-1.16-1.19-2.83-1.4-4.41-1.46-.02-.19-.04-.38-.08-.57-.44-3.06-.98-6.16-1.61-9.25.06.03.12.07.18.1.6.28,1.23.51,1.86.72,1.29.44,2.62.71,3.98.87,1.32.14,2.68.05,4.01.03,1.35-.02,2.71-.05,4.03-.4.16-.04.13-.26-.04-.26-1.31.06-2.62.22-3.94.19-1.32-.03-2.58-.35-3.87-.63-1.24-.27-2.48-.63-3.7-1.02-.61-.19-1.21-.43-1.81-.65-.32-.12-.64-.2-.97-.27-.11-.53-.22-1.07-.34-1.59,1.45.96,3.38,1.15,5.05,1.43,2.12.36,4.26.63,6.42.71,2.08.06,4.19-.05,6.22-.51.97-.22,1.92-.52,2.84-.9.92-.38,1.95-.82,2.65-1.57.62-.66.87-1.73.26-2.48-.15-.19-.33-.33-.53-.45-.38-.3-.82-.5-1.29-.6-.07-.02-.13-.02-.2-.04.03-.23.05-.47.07-.71.14,0,.28,0,.41,0,.49.01,1,.03,1.46.17.79.24,1.58.6,2.24,1.11.46.35.87.8.99,1.36-.1.37-.26.71-.48,1.02-.45.64-1.14,1.12-1.78,1.54-.38.24-.72.53-1.13.74-.39.21-.8.37-1.21.52-.9.33-1.82.62-2.75.86-.13.03-.1.22.03.2,1.02-.18,2.02-.43,3-.77.52-.18,1.04-.41,1.57-.55.48-.12.93-.26,1.4-.46.88-.38,1.71-.99,2.13-1.88.36-.77.32-1.84-.41-2.36ZM111.82,83.62c-.43.69-1.08,1.1-1.99,1.29.07-.34.11-.68.16-1.01,1.16-2.13,1.79-4.56,1.88-6.98,0-.31,0-.61,0-.91.73,3.09.99,5.98-.04,7.61ZM109.82,71.24c1.85,2.78,2.01,6.48.9,9.58-.13.38-.29.77-.46,1.14,0-.16.03-.33.03-.5.01-.56-.08-1.12-.15-1.68-.13-1.01-.24-2.02-.31-3.04.05-1.12.04-2.23-.01-3.35-.04-.8-.1-1.61-.18-2.41.06.09.12.17.18.26ZM106.76,65.53c.06-.67.2-1.33.36-1.98.04.23.07.46.1.69.04.25.08.51.11.76-.01.69,0,1.38.04,2.07.06,1.31.21,2.61.4,3.91,0,.06-.01.12-.02.18-.2-.92-.47-1.82-.69-2.73-.23-.96-.39-1.91-.3-2.89ZM106.69,80.18s0,.06.01.1c-.87-1.63-1.59-3.45-1.23-5.3,0-.03,0-.05,0-.07.15-.12.3-.23.45-.37.25-.24.51-.48.77-.73.05-.03.1-.06.14-.09,0,.09,0,.19,0,.29-.04,1.02-.32,2.03-.36,3.04-.04,1.04.08,2.11.21,3.13ZM106.78,72.25c-.19.12-.37.24-.55.35-1.18.72-2.51,1.17-3.79,1.67-.47.19-.93.38-1.39.59.56-.44,1.12-.87,1.62-1.38.76-.77,1.25-1.76,1.66-2.75.41-.98.8-1.97,1.15-2.97.13-.39.25-.79.36-1.19,0,.5.03,1,.12,1.52.15.98.42,1.93.62,2.9.09.42.14.84.19,1.26ZM102.88,53.43c.28-1.44.47-2.88.62-4.34.07.22.13.43.2.65.15,2.21.05,4.43-.58,6.56-.4,1.35-1,2.63-1.48,3.95-.03.09-.06.17-.08.26,0-.05.01-.1.02-.15.06-.42.06-.92.22-1.32.07-.19.2-.34.26-.53.05-.2.08-.41.1-.61.06-.45.11-.89.17-1.34.04-.38.08-.76.12-1.14.15-.66.3-1.32.43-1.99ZM103.06,58.23h0c-.48,1.76-1.02,3.48-1.57,5.21-.01.05-.03.11-.04.16.04-.31.09-.61.17-.91.17-.69.35-1.38.56-2.05.26-.81.58-1.6.89-2.4ZM101.26,42.11c.08.05.17.05.23.02.07.15.14.3.21.45.21.83.43,1.66.66,2.48,0,.15.02.29.02.44,0,.1-.01.19-.02.28-.13-.39-.27-.78-.42-1.17-.19-.72-.42-1.43-.64-2.14-.05-.15-.1-.31-.15-.47.04.03.08.07.12.1ZM101.06,46.18c-.01-.57-.03-1.14-.06-1.7.25.58.48,1.18.69,1.79.05.15.09.31.14.46.03.28.06.56.08.84-.06.51-.04,1.04-.07,1.54-.02.65-.02,1.29-.05,1.95-.07.56-.14,1.12-.22,1.67-.04.19-.06.38-.1.57-.14.7-.29,1.4-.45,2.09-.03.14-.06.28-.1.42-.12.3-.25.59-.39.88.44-1.5.65-3.07.62-4.64-.02-.99-.14-1.98-.14-2.96,0-.46.07-.93.07-1.39,0-.5,0-1,0-1.5ZM97.52,44.2c.09-2.97.31-6.18,1.51-8.68-.12.66-.14,1.33-.13,1.99.02,1.03.22,2.02.53,2.97-.04,1.53-.02,3.04.12,4.58.08.96.22,1.96.44,2.91.21.93.43,1.81.51,2.77.14,1.8.04,3.6-.44,5.34-.46,1.69-1.28,3.33-2.29,4.77-.05-.12-.1-.24-.13-.35-.41-1.23-.64-2.51-.77-3.8-.03-.32-.07-.65-.09-.97.36-3.76.63-7.63.75-11.53ZM99.22,64.77c-.34.34-.67.69-1,1.04,0,0,.02-.02.02-.02.38-.47.82-.91,1.17-1.4.73-1.02.75-2.22.94-3.41.01-.06.02-.12.03-.17.03-.05.06-.1.09-.15-.03.22-.06.45-.08.67-.08.64-.15,1.27-.27,1.9-.1.53-.34,1.09-.34,1.64-.45.78-.93,1.53-1.51,2.24-.7.85-1.49,1.62-2.28,2.38.12-.21.25-.41.36-.62.8-1.44,1.85-2.77,2.93-4.02.04-.04-.03-.11-.07-.07ZM96.93,61.79c.01.05.02.11.02.15-.02.02-.04.04-.06.08-.15.23-.29.47-.42.72.05-.77.03-1.55,0-2.32,0-.05,0-.1,0-.14.14.51.32,1.01.47,1.51ZM95.33,69.06c.64-1.18,1.14-2.43,1.81-3.6.47-.82,1-1.62,1.57-2.38-.06.24-.12.47-.22.71-.46,1.17-1.17,2.21-1.85,3.24-.48.73-.94,1.46-1.4,2.2.03-.06.06-.12.1-.18ZM94.53,72.23c.61-.71,1.31-1.35,1.99-1.94,1.37-1.18,2.92-2.3,3.91-3.8-.35.61-.79,1.17-1.24,1.7-1.09,1.31-2.34,2.46-3.53,3.67-.45.45-.88.92-1.31,1.38.06-.33.11-.68.17-1.01ZM92.79,64.29c.15-.29.41-.48.65-.68.07-.05.13-.11.18-.17-.19.74-.36,1.49-.53,2.23-.12.56-.24,1.12-.33,1.69-.04-.69-.09-1.38-.12-2.07-.01-.33-.01-.71.14-1.01ZM80.05,58.6c.03.08.05.16.08.23.22.67.41,1.36.46,2.07,0,.18,0,.35,0,.52-.28,1.33-.76,2.62-1.1,3.93-.03.12-.06.24-.09.36-.2.69-.35,1.38-.49,2.09,0,.02,0,.03,0,.05,0,.03-.01.06-.02.09-.16.78-.31,1.57-.41,2.35-.1.69-.15,1.39-.2,2.08-.09-.31-.19-.61-.3-.91-.38-1.06-.83-2.1-1.08-3.21-.07-.31-.13-.62-.17-.93.04-1.13.21-2.26.42-3.37.74-1.75,1.91-3.37,2.75-5.02.05-.11.11-.22.16-.33ZM80.4,86.21c.02.15.03.3.05.45-.13-.58-.26-1.15-.39-1.72-.25-1.1-.49-2.2-.66-3.31-.09-.57-.14-1.15-.18-1.73.46,2.09.87,4.19,1.17,6.31ZM80.01,78.84c.88,2.3,1.36,4.75,1.65,7.2.17,1.49.22,2.98.29,4.48-.15-1.16-.34-2.3-.49-3.45-.25-1.93-.58-3.84-.94-5.74-.16-.83-.33-1.66-.51-2.49ZM77.82,76.69c0,.12-.01.23-.02.34-.03-.79-.07-1.57-.12-2.37-.02-.33-.04-.66-.05-.99.2.99.24,2,.2,3.01ZM79.68,55.87c-.07,1.08-.35,2.17-.74,3.14-.29.71-.63,1.39-.97,2.08.18-.52.37-1.02.55-1.54.44-1.22.84-2.44,1.16-3.69ZM76.89,34.44c.31,1.97.31,3.95.29,6.04,0,1.76,0,3.58.2,5.38.06.58.15,1.14.25,1.7-.06.57-.15,1.13-.26,1.7-.22,1.15-.52,2.29-.72,3.44-.2,1.15-.4,2.3-.57,3.45-.12.9-.22,1.8-.31,2.71-.03-.96-.04-1.93-.01-2.89.1-3.4.61-6.78.81-10.18.1-1.66.03-3.35-.03-5.01-.06-1.7.05-3.39.03-5.08-.01-1.2-.08-2.4-.2-3.58.21.77.38,1.54.51,2.32ZM68.83,14.17s.01-.07.02-.1c.85,3.13,2.33,6.15,3.78,9.11,1.01,2.05,2.04,4.13,2.85,6.26.29,1.78.45,3.59.52,5.37.06,1.69.06,3.39-.08,5.08-.14,1.65-.49,3.28-.72,4.92-.47,3.33-.56,6.68-.63,10.04-.05,2.61.05,5.2.33,7.78-.13-.39-.26-.79-.38-1.19-.44-1.51-.62-3.06-.64-4.62-.03-3,.47-5.97.67-8.96.1-1.47.09-2.96-.14-4.42-.23-1.52-.62-3.01-1-4.49-.77-3.01-1.43-6.07-1.8-9.16-.18-1.52-.25-3.06-.45-4.58-.21-1.51-.56-3-.96-4.48-.52-1.92-1.16-3.85-1.57-5.8.07-.26.13-.51.19-.76ZM75.23,75.62c-.04,1.13-.28,2.21-.69,3.25-.6,1.55-1.3,3.04-1.8,4.61.14-.78.25-1.56.34-2.35.34-2.77.61-5.55.79-8.33.12-1.8.2-3.6.24-5.41.08.44.18.88.26,1.32.21,1.14.39,2.28.55,3.43.16,1.15.33,2.32.29,3.48ZM68.45,15.64c.2.87.44,1.72.68,2.57.43,1.48.89,2.95,1.23,4.46.33,1.51.57,3.07.74,4.61.34,3.11.13,6.29.76,9.37.63,3.05,1.89,5.9,2.15,9.03.26,3.05-.27,6.1-.47,9.15-.1,1.46-.11,2.93.06,4.37.19,1.47.61,2.89,1.07,4.3.02.08.05.17.07.24-.75-1.13-1.55-2.24-2.01-3.53-.73-2.03-.78-4.24-.93-6.36-.16-2.29-.32-4.58-.47-6.87-.3-4.39-.44-8.8-.93-13.18-.25-2.16-.56-4.3-.99-6.43-.43-2.12-1-4.2-1.4-6.32-.21-1.15-.26-2.35-.04-3.5.12-.64.31-1.27.48-1.9ZM64.18,29.57c.17,1.02.36,2.03.51,3.02.39,2.58.57,5.18.52,7.79-.07,2.87-.38,5.7-.79,8.53.14-1.83.22-3.67.31-5.51.11-2.21-.12-4.38-.41-6.57-.31-2.39-.67-4.88-.14-7.26ZM65.48,70.55c-1.05-1.67-1.93-3.4-2.52-5.25.04-.08,0-.15-.06-.18-.1-.33-.2-.66-.28-.99.02-.25.03-.51.03-.77,0,0,0-.02.01-.02.1.15.21.3.32.44.41.5.86.96,1.31,1.42.89.9,1.79,1.81,2.38,2.94.67,1.29.42,2.71-.01,4.03-.35,1.09-.71,2.16-.99,3.26,0-.43.02-.86.04-1.28.05-.74.11-1.49.14-2.23.03-.54-.1-.91-.37-1.36ZM67.65,72.36c.35-1.29.39-2.55-.16-3.79-.52-1.17-1.29-2.15-2.16-3.08-.49-.53-.99-1.04-1.47-1.57-.22-.26-.44-.53-.65-.81-.08-.11-.17-.22-.25-.34.01-.02.02-.03.02-.05.42.12.83.21,1.22.38.79.33,1.33.91,1.82,1.61.49.71.91,1.46,1.28,2.24.35.74.67,1.52,1.11,2.21.25,2.29-.93,4.23-1.71,6.3.29-1.04.64-2.05.93-3.1ZM67.2,63.57c-.59-.78-1.32-1.44-2.24-1.79-.4-.16-.87-.29-1.36-.37.13-.3.24-.6.35-.91.05.02.1.03.15.05.27.09.55.18.82.29.01,0,.01,0,.02,0,.39.27.8.5,1.24.7.09.06.18.12.26.2.05.04.11.09.16.13.02.01.03.03.03.03l.02.03c.11.11.21.22.31.33.09.11.17.22.24.33.01.02.03.04.03.05.01.01.01.02.03.04.03.06.07.12.1.18.03.06.06.13.09.19.03.34.08.67.12,1-.12-.18-.25-.34-.38-.51ZM65.33,59.51c-.22-.05-.45-.08-.67-.1-.1-.06-.19-.12-.29-.19.19-.62.34-1.27.47-1.9.17.49.36.98.57,1.45.13.3.29.6.45.89-.18-.05-.35-.1-.54-.14ZM61.76,38.46s0-.02,0-.02c.01-.06.03-.12.04-.17.23-.92.56-1.85.73-2.79.36-1.28.67-2.56.98-3.85-.12,1.26-.04,2.53.12,3.8.29,2.24.83,4.5.69,6.77-.07,1.2-.33,2.37-.62,3.53-.3,1.14-.57,2.29-.86,3.44-.2.78-.37,1.57-.52,2.37-.08-1.98-.39-3.94-.56-5.92-.2-2.38-.19-4.77,0-7.16ZM60.78,43.17c0,.39.02.79.04,1.2.14,2.43.62,4.83.7,7.26.05,1.28-.03,2.55-.21,3.81-.05-.63-.12-1.27-.21-1.91-.21-1.45-.48-2.9-.63-4.37-.04-1.04-.06-2.09-.05-3.14.07-.96.2-1.91.36-2.86ZM58.1,77.82c-.04.73-.11,1.45-.2,2.16-.21,1.53-.68,2.98-1.09,4.46-.12.43-.24.85-.35,1.28-.04-.19-.06-.38-.09-.57,0-.28,0-.56,0-.84.03-1,.14-2,.3-3,.15-.99.32-1.99.47-2.98.15-.96.24-1.93.46-2.89.1-.42.21-.84.32-1.26h0c.07-.13.14-.26.21-.4-.03.66-.06,1.33-.06,1.99,0,.69.08,1.35.04,2.04ZM54.3,71.31c.42-.53.88-1.06,1.32-1.57.34-.39.68-.79,1.01-1.19-.06.14-.11.27-.17.41-.32.72-.65,1.43-1.04,2.11-.38.66-.69,1.33-1.09,1.97-.81,1.27-1.69,2.51-2.31,3.89-.36.8-.61,1.63-.8,2.47.25-2.87,1.08-5.59,3.08-8.1ZM49.68,96.81c.21-.26.42-.52.63-.78.02.34.08.7.22,1.06-.29-.09-.57-.19-.86-.29ZM51.98,87.29c-.08,1.01-.12,2.02-.13,3.03-.07-.7-.14-1.39-.22-2.08-.17-1.61-.34-3.18-.43-4.73.13-2.16.43-4.32,1.25-6.32.6-1.47,1.48-2.77,2.45-4.03.48-.62,1.03-1.15,1.48-1.79.44-.61.86-1.23,1.19-1.9.19-.38.36-.79.51-1.19-.19.85-.42,1.69-.7,2.52-.09.28-.2.55-.3.83-.16.29-.32.58-.47.89-.35.72-.66,1.45-.95,2.2-.68,1.34-1.37,2.67-1.91,4.08-1.03,2.72-1.55,5.6-1.76,8.49ZM54.99,89.4c-.2.74-.45,1.47-.69,2.2-.25.72-.56,1.47-.65,2.24-.07.52-.09,1.03-.11,1.54-.52-1.45-.4-3.33-.3-4.66.14-1.84.39-3.67.76-5.48.23-1.16.51-2.31.83-3.46.11,1.12.29,2.25.4,3.35.13,1.43.14,2.89-.24,4.28ZM56.68,93.76c-.02,1.29-.16,2.6-.09,3.9-.29-.04-.57-.1-.82-.16-.09-.21-.14-.43-.17-.65-.05-.24-.07-.48-.09-.72v-.14c0-.08,0-.16,0-.24,0-.67.09-1.36.23-2,.22-1.01.5-2.01.65-3.03.06-.37.09-.74.11-1.12.16-.94.16-1.89.08-2.84.14-.49.28-.98.42-1.46.41-1.48.77-2.97,1.21-4.44.2-.66.4-1.32.55-1.99.16-.69.24-1.39.42-2.07.35-1.31.3-2.75.44-4.09.07-.65.16-1.3.27-1.95.32-.52.64-1.04.95-1.56.04-.06.07-.11.11-.17-.14.58-.26,1.16-.35,1.75-.17,1.07-.25,2.11-.23,3.19.02,1.05.07,2.09.08,3.14.02,2.05-.02,4.23-.79,6.15-.43,1.07-1.11,1.98-1.73,2.94-.63.98-1.02,1.99-1.13,3.15-.15,1.46-.09,2.96-.12,4.43ZM62.75,89.79c-.29,1.33-.54,2.67-.72,4.02-.09.68-.27,1.36-.4,2.04-.12.62-.12,1.27-.13,1.91-1.28,0-2.8.1-4.16-.01,0-.05,0-.11-.02-.17-.02-.08-.1-.1-.15-.06.07-1.11,0-2.23,0-3.35,0-1.29,0-2.59.06-3.88.05-1.31.3-2.5,1.01-3.61.59-.92,1.26-1.77,1.74-2.75.87-1.83,1.25-3.83,1.41-5.83.08-1.02.11-2.04.15-3.07.03-1.02.11-2.05.09-3.08-.04-1.99.19-3.97.94-5.81.46,1.48,1.13,2.89,2.07,4.1.19.24.4.46.59.69.26.31.33.61.29,1.01-.06.72-.14,1.45-.21,2.16-.15,1.42-.48,2.94-.25,4.37,0,.06.06.09.11.08-.04.66-.04,1.33,0,2.01-.19.69-.38,1.39-.58,2.09-.68,2.36-1.31,4.73-1.83,7.13ZM63.59,90.66c.44-2.42,1.09-4.79,1.77-7.15.69-2.39,1.44-4.76,2.3-7.1.79-2.14,2.1-4.16,2.21-6.49.07-1.43-.18-2.86-.32-4.28-.03-.35-.08-.7-.13-1.05.35.56.63,1.17.77,1.84.3,1.52.01,3.1-.34,4.59-.01.03-.03.06-.05.08,0,.03,0,.05.01.07v.02c-.42,1.72-.88,3.42-1.34,5.14-.92,3.4-1.98,6.75-3.04,10.1-.72,2.28-1.48,4.54-2.26,6.8.11-.86.26-1.72.41-2.56ZM68.79,95.37c0,.62.07,1.32-.14,1.91-.12.36-.34.67-.62.91-2-.15-3.89-.3-4.85-.38,1.09-3.2,2.16-6.41,3.16-9.64,1.05-3.4,1.97-6.83,2.91-10.26.46-1.7.91-3.4,1.34-5.11.4-1.59.84-3.2.86-4.85,0-.4-.01-.79-.05-1.18.07-.94-.05-1.84-.43-2.76-1.05-2.52-3.15-4.4-4.41-6.8-.03-.07-.08-.15-.11-.23-.49-1.61-.75-3.31-.85-5,.07-.75.13-1.5.19-2.24.42-5.38.97-10.75.09-16.12-.24-1.43-.52-2.85-.75-4.28-.19-1.18-.3-2.37-.4-3.56.8-4.47,1.34-8.99,1.59-13.52.1-1.8.8-3.59,1.64-4.16,0,.08-.01.15-.01.23-.03.58-.07,1.13-.13,1.71-.12,1.09-.24,2.17-.49,3.26-.23,1.03-.57,2.02-.84,3.04-.28,1.07-.39,2.13-.26,3.24.24,2.15,1.26,4.14,1.77,6.23.52,2.11.91,4.25,1.2,6.39.6,4.37.91,8.77,1.23,13.16.17,2.26.3,4.51.45,6.77.14,2.19.16,4.43.57,6.59.35,1.84,1.16,3.5,1.92,5.18-.06,5.03-.33,10.06-.88,15.07-.28,2.49-.47,5.05-1.55,7.36-.51,1.1-1.04,2.16-1.44,3.3-.39,1.14-.78,2.34-.82,3.55-.02.72.09,1.45.11,2.17ZM72.55,92.92c-.1.79-.38,1.62-.68,2.34-.36.87-.96,1.52-1.74,2.04-.14.1-.29.19-.46.28.03-.05.05-.11.08-.16,1.44-1.09,2.31-2.79,2.8-4.5ZM70.25,90.35c.14-.68.36-1.31.65-1.94.44-.98.96-1.91,1.32-2.91-.4,1.93-.62,3.89-.96,5.83-.22,1.22-.55,2.41-1.04,3.51,0-.17-.01-.34-.01-.5-.02-.69-.04-1.39-.04-2.08,0-.66-.04-1.26.09-1.91ZM75.04,98.47c-.02.09-.75.09-1.85.05.86-.47,1.64-1.1,2.29-1.86.07-.08.13-.16.2-.25-.23.68-.46,1.36-.64,2.06ZM76.22,86.67c-.08,1.71-.18,3.46-.62,5.12-.11.41-.24.81-.39,1.21-.16.42-.36.71-.63,1.06-.46.58-.91,1.14-1.44,1.67-.59.59-1.27,1.05-1.9,1.58-.5.42-1.04.76-1.65,1h-.02c.87-.4,1.67-.95,2.21-1.71.5-.67.75-1.47.96-2.28.12-.46.2-.96.38-1.4.18-.46.42-.89.58-1.35.32-.91.6-1.81.83-2.75.21-.95.34-1.94.44-2.9.1-.95.09-1.91.23-2.86.13-.92.38-1.81.71-2.67.09-.23.19-.45.28-.67.03.8.06,1.61.09,2.41.03.53.05,1.06.08,1.59-.04.98-.09,1.97-.13,2.95ZM76.73,57.63c.14-1.16.33-2.31.55-3.46.22-1.15.54-2.29.79-3.42,0,0,0,0,0-.01-.02.53.06,1.08.17,1.6.04.19.1.38.15.58,0,.01,0,.03,0,.04-.14.71-.25,1.44-.42,2.14-.35,1.47-.76,2.93-1.09,4.41-.15.67-.28,1.36-.4,2.04.03-1.31.1-2.61.26-3.92ZM79.39,97.3c-.4,2.01-.81,4.04-.71,6.09-.1-.04-.21-.06-.31-.1-3.93-1.35-.13-11.15-.21-14.26-.04-1.6-.09-3.2-.14-4.8,0-.38-.02-.75-.03-1.13.03.16.06.32.1.47.52,2.15,1.29,4.23,1.69,6.4.46,2.47.08,4.88-.39,7.32ZM80.43,99.33c-.14.46-.27.94-.38,1.41.11-1.04.3-2.08.5-3.12,0,.57-.05,1.14-.12,1.71ZM83.88,103.57c-.11,0-.21,0-.32,0-.47,0-.93.02-1.38.04-.39.01-.77.03-1.14.03.15-1.87.63-3.71,1.48-5.39.46-.92.98-1.79,1.21-2.81.23-1.04.12-2.14.04-3.19-.13-1.99-.38-3.97-.71-5.93-.32-1.91-.68-3.79-1.26-5.65-.59-1.88-1.39-3.7-2.42-5.39-.01-.33-.04-.65-.06-.98-.05-.58-.07-1.15-.08-1.74.16-.76.32-1.53.46-2.29.32-1.72.68-3.43,1.16-5.12.46-1.64,1.13-3.29,1.26-5,.01-.09,0-.18.01-.27.08.17.16.34.23.5.74,1.55,1.49,3.14,2.17,4.74.41,1.14.79,2.29,1.21,3.43.42,1.14.8,2.3,1.01,3.51.2,1.18.2,2.34.12,3.53-.09,1.29-.23,2.58-.22,3.87,0,.31.02.62.04.92-.36,1.9-.28,3.94-.03,5.82.14,1.07.41,2.12.52,3.2.1,1,.16,1.99.17,3,.01.95-.05,1.9-.14,2.84-.04.45-.1.89-.16,1.33-.08.56-.24,1.02-.47,1.54-.44.96-.83,1.94-1.31,2.88-.43.87-.91,1.73-1.37,2.6ZM85.94,103.73c-.38-.04-.77-.09-1.16-.12.94-1.39,1.59-2.96,2.03-4.58.11-.43.2-.86.26-1.29.08-.53.29-1.03.44-1.55.28-.91.48-1.83.63-2.76.21-1.37.24-2.75.23-4.12.11,2.76-.06,5.53-.93,8.21-.66,2.02-1.68,4.06-1.49,6.23ZM87.05,102.79c.33-1.55,1.24-2.97,1.84-4.41.78-1.86,1.07-3.93,1.12-5.94.11-4.09-.84-8.14-1.19-12.21-.07-.88-.12-1.75-.12-2.64.06.21.12.44.18.65,0,.06,0,.12.01.18.86,3.73,1.4,7.59,1.55,11.41.07,1.89.05,3.78-.07,5.67-.07.96-.19,1.92-.26,2.89-.07.86-.09,1.8-.3,2.65-.1.38-.24.56-.63.64-.43.08-.85.16-1.24.38-.34.2-.63.44-.88.71ZM93.23,98.96c.16,1.12.27,2.21-.11,3.07-.61,1.35-2.36,1.9-3.67,1.96-.71.04-1.41-.02-2.14-.1.37-.44.84-.84,1.35-.98.36-.1.75-.02,1.12-.11.41-.1.77-.34,1.01-.68.51-.71.61-1.71.77-2.54.2-.96.34-1.91.44-2.88.12-1.31.2-2.62.22-3.93.38,2.07.72,4.13,1.02,6.17ZM92.76,82.45s0,0,0-.02c-.06-.19,0-.54.05-.81.43-2.19.87-4.55,1.31-7.02,1.62-2.04,3.71-3.7,5.42-5.64,1.14-1.3,2.14-2.79,2.97-4.31.89-1.61,1.11-3.54,1.41-5.34.21-1.23.46-2.45.77-3.64-.05,1.48-.25,2.97-.48,4.4-.38,2.28-.92,4.61-2.07,6.63-.53.93-.95,1.92-1.52,2.82-.58.91-1.25,1.74-2.01,2.51-1.49,1.51-2.94,2.95-3.97,4.82-.97,1.74-1.61,3.64-1.88,5.61ZM95.5,77.64c.5-.89,1.09-1.72,1.75-2.48.72-.82,1.59-1.5,2.43-2.19,1.71-1.41,3.08-3.2,3.66-5.37.31-1.13.57-2.27.88-3.4.29-1.06.55-2.13.75-3.22.23-1.26.4-2.54.47-3.82.03-.53.03-1.05.03-1.57.32,1.72.57,3.46.56,5.21,0,2.14-.36,4.24-1.04,6.26-.33.99-.7,2.01-1.3,2.88-.28.4-.58.81-.94,1.16-.37.37-.8.67-1.19,1.02-.4.35-.83.66-1.22,1.02-.41.38-.78.8-1.16,1.2-.72.79-1.35,1.66-1.97,2.53-.46.65-.93,1.3-1.4,1.94-.37.37-.73.74-1.07,1.13-.17.2-.34.4-.49.61.31-1.01.71-1.99,1.24-2.9ZM99.49,77.85c-.5.3-.99.62-1.47.95.14-.1.28-.2.42-.29.34-.23.69-.45,1.05-.65ZM94.3,83.3c.2-.35.45-.67.68-.95.41-.49.85-.94,1.32-1.38.94-.85,1.99-1.59,3.03-2.3,1.09-.74,2.21-1.42,3.33-2.1.29-.18.58-.34.88-.5.2-.07.41-.14.6-.21.24,1.76,1.03,3.35,1.88,4.92.41.75.8,1.51,1.16,2.29.14.7.31,1.38.5,2.07-4.52.26-9.11-.37-13.39-1.83ZM116.06,84.45c-.19.71-.92,1.28-1.51,1.61-1.59.87-3.35,1.43-5.13,1.74-1.67.29-3.37.37-5.06.31,1.76-.06,3.51-.31,5.23-.71,1.77-.41,3.58-.96,5.2-1.78.51-.26,1.04-.64,1.27-1.17ZM114.2,83.13s.03,0,.03,0c.03.01.06.02.09.03.06.02.1.04.16.05.05.02.1.04.16.06.02.01.11.05.12.06.18.11.36.23.52.36,0,0,0,0,.01.02.03.27-.11.57-.36.76-.57.45-1.38.68-2.04.93-.1.04-.21.08-.32.11.3-.27.56-.58.79-.93.28-.44.49-.96.64-1.5.02,0,.03,0,.05,0,.03,0,.05.01.08.02,0,0,.04,0,.07.02Z"/>
      <path class="cls-1" d="M52.79,62.23c.11-1.36-.15-2.81-.94-4.4-.96-1.9-2.17-3.7-3.33-5.44-1.32-1.95-2.67-3.97-3.67-6.14-.09-.2-.21-.44-.33-.7,0-.01,0-.04-.02-.05-.53-1.17-.94-2.44-1.27-3.67-.34-1.29-.41-2.58-1.11-3.76-.33-.54-.67-1.04-.87-1.65-.21-.59-.3-1.22-.41-1.85-.24-1.4-.56-2.81-.72-4.22-.05-.45-.59-.62-.92-.36-.86.67-1.57,1.5-2.03,2.49-.48,1.01-.71,2.14-.9,3.22-.1.57-.2,1.14-.27,1.71-.2.56-.37,1.13-.5,1.72-.32,1.41-.46,2.84-.62,4.28-.17,1.46-.32,2.92-.68,4.34-.37,1.49-.87,2.91-1.35,4.36-.47,1.45-.91,2.91-1.16,4.42-.25,1.55-.32,3.11-.42,4.68-.1,1.54-.23,3.06-.54,4.57-.1.52-.23,1.04-.37,1.55-.3.8-.63,1.6-.96,2.38-.7,1.68-1.42,3.4-1.81,5.14-.68-.04-1.4.05-1.98.14-1.09.16-2.17.58-3.14,1.11-.46.25-.87.56-1.3.86-.43.29-.83.59-1.19.96-.65.67-1.16,1.47-1.25,2.41-.02.15.22.17.23.02.07-1,.61-1.83,1.35-2.47.76-.67,1.64-1.06,2.59-1.37.93-.3,1.91-.39,2.88-.45.48-.02.96,0,1.43.04.05,0,.1,0,.15.01-.07.57-.1,1.15-.08,1.73-.16.03-.31.08-.46.12-.17.05-.34.12-.5.19-.65.16-1.28.46-1.84.87-.75.54-1.81,1.81-1.06,2.71.35.69,1.26,1.11,2,1.38.21.08.4.15.61.22.07.03.13.05.2.08,1.09.4,2.19.8,3.32,1.07,1.4.34,2.78.73,4.19.99,1.6.29,3.2.48,4.83.38.15,0,.13-.19.02-.24.29-.04.58-.08.86-.12,1.28-.2,2.53-.5,3.79-.82.96-.24,2.19-.39,2.95-1.1.76-.71,1.14-2,.54-2.9-.17-.25-.4-.46-.66-.63-.01-.07-.02-.15-.02-.22,0-.07,0-.13.01-.21.12-.28.3-.55.43-.75.33-.5.73-.97,1.06-1.47.7-1.09,1.16-2.38,1.55-3.6.21-.64.45-1.25.6-1.91.15-.66.34-1.3.61-1.92.56-1.28,1.29-2.47,1.7-3.81.13-.2.25-.4.36-.61.5-.9.71-2.24.4-3.32ZM44.59,49.64c.76,1.31,1.6,2.55,2.42,3.77,1.19,1.77,2.31,3.43,3.22,5.24.09.18.16.35.24.53.03.85-.03,1.7-.17,2.53-.1.6-.26,1.18-.45,1.76-.09.28-.2.55-.31.82-.05.15-.12.31-.17.47-.41.4-.83.78-1.29,1.12-.53.4-1.07.74-1.69.98-.7.26-1.37.24-2.1.14-1.36-.19-2.64-.05-3.68.92-.38.36-.7.77-.97,1.22.12-.44.23-.88.35-1.32.61-2.33,1.29-4.65,1.78-7.01.24-1.13.44-2.28.51-3.43.06-1.1-.05-2.21.04-3.31.11-1.21.65-2.09,1.35-3.04.33-.44.66-.9.92-1.39ZM42.1,72.36c-.63.14-1.29.26-1.91.47.18-.17.36-.34.57-.5.52-.39,1.1-.73,1.75-.88.69-.16,1.4-.04,2.1-.06-.77.46-1.62.75-2.51.96ZM43.97,73.44c-.93,1.59-1.64,3.35-1.84,5.31v.13c-.12,1.07-.25,2.23-.69,2.97-.41.07-.81.14-1.21.19-.76.08-1.52.1-2.28.13-.09,0-.19,0-.28,0,.06-.54.16-1.08.26-1.62.14-.76.33-1.51.56-2.25.23-.71.45-1.42.71-2.12.18-.5.38-.97.84-1.28.93-.62,2.16-.68,3.18-1.11.25-.11.51-.23.75-.37ZM46.06,70.19c-.52.35-1.14.31-1.74.28-.71-.03-1.4-.08-2.09.11-.63.17-1.2.47-1.73.85-.56.41-1.01.91-1.41,1.47.04-.11.08-.22.12-.33.44-1.19,1.06-2.45,2.49-2.51.71-.04,1.4.16,2.11.19.69.02,1.29-.16,1.87-.53.63-.41,1.2-.91,1.79-1.38.01-.01.02-.02.04-.03-.16.3-.33.61-.53.9-.24.29-.48.58-.74.85-.06.05-.12.1-.18.13ZM40.23,69.65c.37-.47.8-.9,1.33-1.23.58-.36,1.2-.5,1.87-.42.71.08,1.39.27,2.11.28.4,0,.79-.03,1.18-.1-.5.44-1.01.87-1.59,1.18-1.43.75-2.88-.43-4.35.04-.19.06-.37.15-.54.25ZM42.15,48.43c.23-.6.47-1.2.75-1.78.02-.04.04-.09.07-.12.09.17.17.34.23.49.17.37.35.73.54,1.09,0,0,0,.01,0,.03-.11.91-.61,1.64-1.11,2.4-.53.8-.97,1.6-1.18,2.55-.22,1.09-.11,2.21-.09,3.31.04,1.16-.06,2.33-.3,3.47-.1.51-.22,1.01-.34,1.52-.01-.65-.02-1.3-.02-1.96,0-.88-.07-1.76-.07-2.65,0-.66.02-1.32.06-1.98.13-.7.3-1.38.46-2.07.34-1.43.65-2.87,1.01-4.3ZM40.03,50.79c.16-1.46.38-2.91.53-4.38.09-.84.14-1.7.08-2.55,0,.02.01.04.02.05.2.5.36,1,.43,1.53.09.73,0,1.46-.1,2.18-.15,1.17-.31,2.34-.47,3.51,0,0,0,.03,0,.04-.22,1.03-.36,2.08-.43,3.14-.05-.88-.1-1.76-.16-2.64.03-.3.07-.59.1-.89ZM39.82,46.17c-.04.37-.1.72-.14,1.08,0-.01,0-.03,0-.05-.1-1.83-.22-3.67-.32-5.51.05.12.11.24.16.36.57,1.32.5,2.73.31,4.12ZM38.81,33.41c.14-.46.29-.91.48-1.35.12.69.22,1.38.33,2.07l-.95-.26c.05-.15.09-.3.14-.46ZM37,48.23c.06-.76.01-1.53.04-2.29,0-.12.01-.25.02-.38l1.1-4.16c.22,4.91.43,9.82.65,14.73.07,1.65.18,3.3.29,4.94.11,1.57.21,3.14.04,4.7-.14,1.32-.68,2.63-1.17,3.86-.5,1.23-1.04,2.45-1.55,3.68-.55,1.34-1.04,2.72-1.33,4.14-.14.69-.19,1.4-.34,2.09-.07.34-.16.71-.2,1.07-.02.2,0,.42.03.64-.65-.23-1.29-.47-1.92-.74,1.63-2.42,2.75-5.07,3.45-7.9.71-2.86,1.17-5.74,1.29-8.69.12-2.98-.11-5.94-.27-8.92-.08-1.52-.17-3.04-.21-4.56-.02-.75.03-1.47.08-2.21ZM35.79,63.5c.17-1.91.34-3.81.43-5.73.22,4.39.16,8.78-.89,13.09-.26,1.08-.61,2.15-1.03,3.21.08-.66.15-1.33.27-1.98.25-1.37.45-2.75.59-4.14.14-1.49.49-2.96.62-4.45ZM31.19,79.89c-.65-.29-1.31-.58-1.95-.87-.59-2.8.59-5.63,1.84-8.6.62-1.49,1.26-3.03,1.68-4.59.41-1.53.61-3.1.79-4.62.08-.56.14-1.12.22-1.67.31-2.14.78-4.28,1.31-6.39,0,.06,0,.12.01.18.25,2.87.1,5.78-.05,8.64-.08,1.5-.12,3-.15,4.51-.04,1.43-.24,2.83-.5,4.23-.29,1.62-.74,3.14-1.4,4.64-.32.72-.57,1.48-.87,2.21-.3.74-.61,1.47-.89,2.21-.02.04-.03.09-.03.12ZM38.9,84.85c-1.03.07-2.09-.1-3.12-.23-1.06-.14-2.09-.38-3.11-.66-.47-.12-.95-.26-1.42-.39.64.04,1.28.09,1.91.13,1.27.08,2.53.2,3.79.23.05,0,.1,0,.17,0,.57.14,1.15.27,1.74.38.19.03.39.05.59.08.06.07.14.11.24.11.5,0,1,.05,1.5.01.08,0,.17-.02.26-.03-.85.17-1.7.31-2.56.37ZM46.02,82.76c-.17.46-.66.69-1.1.85-.93.32-1.94.54-2.9.75h0c.21-.06.42-.12.62-.2.44-.17.89-.36,1.3-.59.46-.26.9-.62,1.07-1.14.1-.32.08-.65-.05-.96-.01-.04-.03-.09-.05-.12.03,0,.07,0,.11.01.03.02.05.05.08.07.15.11.3.15.44.14.08.05.15.13.23.22.24.29.38.61.24.99ZM47.35,76.13c-.1-.23-.44-.36-.66-.18-.02,0-.04.02-.05.03.01,0,.02-.02.03-.03.41-.52.83-1.03,1.22-1.57-.05.32-.1.63-.19.94-.09.29-.21.56-.34.81Z"/>
      <path class="cls-1" d="M122.62,84.86c-.06-.11-.18-.16-.3-.11-.09.03-.2.09-.28.14-.09.07-.16.19-.22.27-.12.17-.23.33-.35.49-.13.16-.23.35-.35.53-.11.17-.23.3-.38.45-.31.28-.72.49-1.08.68-.38.21-.79.4-1.19.59-.13.06-.04.25.09.21.43-.16.86-.34,1.28-.52.42-.2.83-.44,1.23-.67.1-.05.2-.12.3-.17h0s.06-.02.09-.04c.05-.02.1-.04.14-.07.23-.12.43-.26.6-.45.15-.18.3-.39.39-.6.11-.24.14-.48.03-.72Z"/>
      <path class="cls-1" d="M111.35,91.16c-.8.08-1.6.13-2.41.19-.71.05-1.46.14-2.14.38-.39.14-.74.28-1.16.3-.42.01-.83.02-1.25.02-.8,0-1.62-.03-2.42-.07-.14,0-.17.2-.02.22.8.12,1.6.19,2.41.19.36,0,.72,0,1.08-.02.5-.02.92.03,1.4.12.77.13,1.59,0,2.33-.22.76-.21,1.53-.54,2.25-.87.13-.06.07-.25-.07-.24Z"/>
      <path class="cls-1" d="M45.04,94.06c-1.73.23-3.57,1.41-3.65,3.31-.04.82.18,1.73.77,2.33.51.52,1.38.8,2.1.73.11-.02.08-.18-.03-.17-.37.01-.78-.07-1.09-.28-.27-.19-.5-.47-.69-.74-.44-.62-.5-1.31-.29-2.03.21-.68.59-1.31,1.1-1.8.54-.53,1.15-.85,1.85-1.11.13-.04.07-.24-.07-.23Z"/>
      <path class="cls-1" d="M136.75,89.75c-.43.04-.8.09-1.23-.04-.4-.11-.78-.26-1.16-.41-.8-.29-1.58-.44-2.44-.42-1.83.03-3.6.05-5.3-.74-.77-.35-1.53-.82-2.39-.92-.92-.11-1.52.37-2.2.9-.69.54-1.53.94-2.31,1.31-.78.37-1.57.74-2.38,1.06-.11.04-.06.24.06.21.81-.19,1.6-.41,2.37-.74.8-.34,1.55-.76,2.32-1.15.78-.4,1.65-.29,2.49-.15.86.14,1.7.42,2.57.57.89.16,1.78.32,2.69.37.89.04,1.79-.05,2.68.02.88.06,1.63.46,2.46.71.65.19,1.41.32,2-.09.23-.16.03-.51-.22-.48Z"/>
      <path class="cls-1" d="M142.96,88.03c-1.18.04-2.37.24-3.54.06-.59-.09-1.17-.31-1.73-.47-.55-.16-1.08-.33-1.6-.53-.5-.19-1.05-.42-1.59-.44-.53,0-.88.26-1.31.51-.95.56-2.3.68-3.38.73-.2.01-.2.35,0,.35,1.08.06,2.11-.06,3.17-.27,1.13-.22,2.15.14,3.26.27.56.07,1.12.13,1.69.17.57.03,1.15-.08,1.72-.07,1.11.02,2.25.13,3.34-.08.15-.03.11-.23-.03-.23Z"/>
      <path class="cls-1" d="M48.44,81.6c-.24-.78-.73-1.49-1.49-1.82-.16-.07-.24.17-.09.24.58.31,1.04.95.91,1.63-.03.15-.09.29-.14.44-.05.16-.12.29-.19.41-.05.06-.09.13-.15.2-.03.03-.06.07-.08.11-.01.01-.03.04-.03.04-.14.15-.29.27-.4.45-.2.32.04.76.43.71.54-.08.9-.56,1.11-1.03.2-.43.27-.92.12-1.37Z"/>
      <path class="cls-1" d="M23.88,77.94c-.16,0-.31.01-.46.02-.33-.04-.71.08-.96.21-.36.19-.71.44-1.02.78-.24.27-.45.57-.56.91-.06.17-.1.37-.12.55-.02.23.04.38.14.56.09.47.21.92.47,1.32.27.42.68.74,1.05,1.05.19.15.45-.13.29-.3-.44-.47-1.23-1.25-1.01-1.96.21-.21.34-.44.52-.68.09-.12.17-.24.27-.36.11-.14.12-.13.26-.27.26-.25.52-.49.74-.73.22-.23.38-.5.56-.76.08-.13.02-.36-.16-.36Z"/>
      <path class="cls-1" d="M58.91,106.04c-4.76.29-9.55.15-14.28-.46-1.14-.15-2.27-.33-3.4-.53-1.09-.19-2.23-.34-3.28-.73-1.04-.38-2.05-1.13-2.28-2.28-.23-1.16.62-2.08,1.36-2.82.18-.19-.07-.51-.25-.32-1.07,1.02-2.05,2.26-1.42,3.81.64,1.55,2.3,2.18,3.82,2.51,4.11.91,8.41,1.29,12.62,1.38,2.4.05,4.79,0,7.18-.19.25-.01.19-.39-.06-.38Z"/>
      <path class="cls-1" d="M64.73,108.85c-.77-.05-1.58.03-2.35.07-.87.04-1.73.06-2.58.05-1.67-.03-3.31,0-4.96-.24-.08,0-.1.12-.01.13,1.67.35,3.39.72,5.1.77.79.02,1.58.02,2.38-.02.81-.04,1.73-.11,2.5-.36.2-.07.14-.38-.06-.4Z"/>
      <path class="cls-1" d="M107.96,104.73c-.22-.16-.43.16-.23.33.99.87,1.26,2.23.99,3.48-.31,1.39-1.24,2.44-2.45,3.15-1.26.74-2.74,1.08-4.17,1.35-1.71.33-3.43.58-5.16.8-3.54.44-7.12.7-10.68.69-3.51-.01-7.25,0-10.66-.96-.81-.23-1.61-.53-2.41-.79-.8-.26-1.64-.35-2.46-.52-1.56-.35-3.16-.39-4.61.35-.11.05-.04.22.07.17,1.63-.76,3.51-.51,5.15.09.41.15.75.4,1.15.58.39.17.8.3,1.2.44.83.29,1.65.57,2.5.77,3.62.86,7.49.7,11.18.62,3.67-.08,7.34-.38,10.98-.91,3.04-.44,6.71-.74,9.14-2.85,1.85-1.61,2.79-5.12.47-6.77Z"/>
      <path class="cls-1" d="M115.8,104.86c-.3-.13-.46.29-.25.47,1.25,1.11,1.42,3,.64,4.44-.92,1.69-2.81,2.65-4.47,3.44-3.89,1.86-8.08,3.16-12.34,3.83-2.48.4-4.96.59-7.47.48-.05,0-.05.07,0,.07,4.81.26,9.62-.08,14.28-1.36,2.32-.64,4.59-1.5,6.74-2.57,1.75-.86,3.59-2.07,4.34-3.96.66-1.66.35-4.05-1.46-4.85Z"/>
      <path class="cls-1" d="M23.05,89.2c-.91-.16-1.78-.29-2.67-.52-.85-.22-1.68-.5-2.49-.82-1.7-.66-3.28-1.51-4.73-2.61-.66-.5-1.39-1.09-1.68-1.89-.36-.99.19-1.94.81-2.69,1.19-1.42,2.81-2.46,4.55-3.04.09-.03.05-.19-.05-.17-1.89.52-3.68,1.51-5,2.97-.64.71-1.19,1.63-1.22,2.6-.02.93.48,1.74,1.12,2.37,1.47,1.44,3.33,2.53,5.24,3.3,1.88.76,4.11,1.2,6.14,1.03.32-.03.27-.48-.01-.53Z"/>
      <path class="cls-1" d="M27.41,93.48c-4.01-.15-7.98-1.04-11.66-2.63-.2-.08-.3.22-.12.31,3.65,1.83,7.66,2.75,11.74,2.67.22,0,.27-.34.04-.35Z"/>
      <path class="cls-1" d="M127.19,79.97c-.89-.87-2.18-1.42-3.31-1.9-2.5-1.08-5.09-1.73-7.81-1.96-.04,0-.04.05,0,.06,2.34.31,4.56,1.06,6.7,2.07,1.02.48,1.99,1.09,2.9,1.77.44.32.87.69,1.1,1.2.21.48.11.9.14,1.4,0,.31.4.38.61.24.99-.68.33-2.22-.33-2.88Z"/>
      <path class="cls-1" d="M22.75,70.2c-4.37.2-8.68.37-12.91,1.59-2.02.58-3.98,1.39-5.79,2.47-1.57.94-3.69,2.32-4,4.28-.4,2.44,1.71,4.06,3.63,5.03.15.07.31-.2.14-.28-1.67-.91-3.79-2.79-2.9-4.94.36-.89,1.25-1.46,2.01-1.99.78-.55,1.6-1.05,2.44-1.5,3.39-1.81,7.18-2.66,10.93-3.34,2.16-.39,4.33-.71,6.51-.97.22-.03.16-.35-.05-.34Z"/>
      <path class="cls-1" d="M22.09,65.99c-4.46.33-8.71,1.42-12.91,2.96-.04.01-.01.06.02.06,4.17-1.4,8.58-2.24,12.93-2.79.14-.02.11-.23-.03-.22Z"/>
      <path class="cls-1" d="M23.26,105.6c-1.59-.75-3.62-.75-5.35-.8-1.88-.05-3.75.33-5.63.3-2.04-.03-4.06-.55-6.03-1.03-2-.48-4.01-.96-6-1.49-.14-.04-.23.18-.08.22,1.98.56,3.93,1.18,5.9,1.79,1.86.57,3.71,1.22,5.64,1.51,1.84.27,3.75.11,5.58-.23.93-.18,1.85-.39,2.8-.44,1.09-.07,2.04.14,3.09.4.14.04.22-.16.08-.22Z"/>
    </g>
  </g>
</svg>